<?xml version="1.0" encoding="iso-8859-1"?>
<!-- Generator: Adobe Illustrator 19.0.0, SVG Export Plug-In . SVG Version: 6.00 Build 0)  -->
<svg version="1.1" id="Layer_1" xmlns="http://www.w3.org/2000/svg" xmlns:xlink="http://www.w3.org/1999/xlink" x="0px" y="0px"
	 viewBox="0 0 500 500" style="enable-background:new 0 0 500 500;" xml:space="preserve">
<path d="M3.829,248.719C4.584,113.879,112.718,2.387,252.456,4.018c132.041,1.541,243.009,108.121,241.523,248.45
	c-1.395,131.708-108.199,244.015-250.261,241.487C112.962,491.626,4.699,385.935,3.829,248.719z M366.528,261.858
	c-1.977-9.539-3.638-19.156-5.984-28.604c-11.135-44.85-26.188-88.434-43.713-131.138c-5.632-13.724-12.659-26.927-19.777-39.971
	c-3.786-6.938-6.328-7.321-12.783-2.761c-8.151,5.759-16.45,11.612-23.431,18.667c-25.707,25.979-51.572,51.862-76.034,78.992
	c-15.591,17.291-28.859,36.683-43.076,55.204c-4.854,6.323-6.343,13.68-5.06,21.431c1.302,7.868,2.818,15.721,4.703,23.468
	c11.073,45.498,26.363,89.634,43.961,132.961c5.415,13.331,12.014,26.227,18.778,38.947c4.953,9.313,8.031,9.699,16.809,3.5
	c5.448-3.848,10.981-7.777,15.655-12.485c26.217-26.405,52.901-52.402,77.983-79.857c16.468-18.026,30.635-38.173,45.538-57.596
	C364.625,276.713,367.55,269.886,366.528,261.858z"/>
</svg>
