<?xml version="1.0" encoding="utf-8"?>
<!-- Generator: Adobe Illustrator 25.1.0, SVG Export Plug-In . SVG Version: 6.00 Build 0)  -->
<svg version="1.1" id="_x30_XBTC" xmlns="http://www.w3.org/2000/svg" xmlns:xlink="http://www.w3.org/1999/xlink" x="0px" y="0px"
	 viewBox="0 0 500 500" style="enable-background:new 0 0 500 500;" xml:space="preserve">
<path d="M250.1,498.9c-66.4,0-128.9-25.8-175.9-72.7c-47.1-46.9-73-109.3-73-175.7c0-67.1,25.8-129.9,72.7-176.9
	c46.9-47,109.6-72.9,176.5-72.9c0,0,0.1,0,0.1,0c66.6,0,129,25.9,175.9,73c46.9,47,72.6,109.7,72.6,176.5
	c0,66.5-25.9,129-72.8,175.9c-46.9,47-109.4,72.8-175.9,72.9v-5v5C250.2,498.9,250.1,498.9,250.1,498.9z M250.3,10.6
	c-64.2,0-124.4,24.8-169.4,70c-45,45.2-69.8,105.5-69.8,169.9c0,63.7,24.9,123.6,70.1,168.7c45.1,45,105.1,69.8,168.8,69.8
	c0.1,0,0.1,0,0.2,0c63.8,0,123.8-24.9,168.8-70c45-45.1,69.9-105.1,69.9-168.9c0-64.1-24.8-124.3-69.7-169.5
	C374.2,35.5,314.3,10.6,250.3,10.6C250.4,10.6,250.4,10.6,250.3,10.6z"/>
<path d="M250.9,23.9C125.6,23.9,25.2,125,25.3,251.2c0.1,124.9,101,226.1,225.4,226c124.4-0.1,225-101.3,225.1-226.3
	C475.8,125.2,375.4,23.9,250.9,23.9z M351.3,294.4c-11.4,12.3-22.8,24.8-34.8,36.5c-29.8,28.9-60.4,56.9-93.5,82.1
	c-2.1,1.6-4.3,3.1-6.5,4.6c-10.7,7.2-12.1,7-16.8-4.8c-4.5-11.2-8.7-22.7-12.3-34.2c-14.7-46.5-27.8-93.4-37.1-141.3
	c-1-5.2-2.3-10.6-2.1-15.8c0.2-4,1.4-8.9,4-11.8c11.5-13.1,23.3-26.1,35.8-38.3c30.2-29.4,61.3-57.8,94.9-83.4
	c3.6-2.7,7.3-5.2,11.2-7.4c5.2-3,6.9-2.7,9.3,2.9c4.6,10.9,9.1,21.8,12.8,33c14.9,45.9,27.7,92.3,37.6,139.6c1.6,8,2.8,16,4.1,24
	C358.4,286.3,354.9,290.6,351.3,294.4z"/>
</svg>
