<?xml version="1.0" encoding="iso-8859-1"?>
<!-- Generator: Adobe Illustrator 19.0.0, SVG Export Plug-In . SVG Version: 6.00 Build 0)  -->
<svg version="1.1" id="Layer_1" xmlns="http://www.w3.org/2000/svg" xmlns:xlink="http://www.w3.org/1999/xlink" x="0px" y="0px"
	 viewBox="0 0 2000 2000" style="enable-background:new 0 0 2000 2000;" xml:space="preserve">
<path d="M1000.816,10.815c539.093-3.183,993.928,440.24,985.03,1001.606c-8.352,526.886-437.586,969.561-990.85,967.572
	C460.65,1978.073,2.721,1539.96,16.344,967.772C28.714,448.218,455.255,9.944,1000.816,10.815z M1000.712,99.972
	c-261.551,3.161-483.114,99.848-660.347,291.61c-148.82,161.02-227.636,354.19-234.049,573.486
	c-15.332,524.297,403.356,922.885,886.901,925.388c507.366,2.627,889.834-401.265,902.835-868.026
	C1910.578,500.908,1486.399,96.205,1000.712,99.972z M1841.558,994.61c3.651,458.146-379.257,859.014-874.665,841.179
	c-431.402-15.531-812.807-376.026-806.724-854.31c5.722-449.953,378.472-836.9,859.216-827.507
	C1469.481,162.767,1842.295,532.103,1841.558,994.61z M499.425,1081.678c61.74,0,122.462,0,184.826,0
	c-33.804,135.677-67.316,270.182-100.952,405.185c231.145,0,461.5,0,693.066,0c16.17-64.842,32.359-129.763,48.853-195.906
	c-131.224,0-261.144,0-391.501,0c17.366-70.469,34.481-139.917,51.638-209.536c65.991,0,131.109,0,196.653,0
	c13.777-55.676,27.45-110.931,41.536-167.852c-65.796,0-130.675,0-196.119,0c17.658-70.638,34.918-139.688,52.432-209.75
	c124.557,0,248.756,0,372.823,0c16.823-67.514,33.363-133.899,50.028-200.78c-225.235,0-449.355,0-674.064,0
	c-34.249,137.229-68.37,273.944-102.658,411.331c-62.082,0-123.484,0-184.984,0C527.148,970.12,513.495,1025.06,499.425,1081.678z"
	/>
</svg>
