<?xml version="1.0" encoding="iso-8859-1"?>
<!-- Generator: Adobe Illustrator 19.0.0, SVG Export Plug-In . SVG Version: 6.00 Build 0)  -->
<svg version="1.1" id="Layer_1" xmlns="http://www.w3.org/2000/svg" xmlns:xlink="http://www.w3.org/1999/xlink" x="0px" y="0px"
	 viewBox="0 0 2000 2000" style="enable-background:new 0 0 2000 2000;" xml:space="preserve">
<path d="M1989.218,1000.554c2.644,544.119-440.943,984.514-981.136,987.85C448.221,1991.861,5.078,1533.739,11.213,984.267
	C17.059,460.69,454.356-13.63,1043.787,8.838C1553.196,28.256,1993.859,452.39,1989.218,1000.554z M998.703,1898.904
	c500.445-0.068,899.085-401.019,902.855-890.74c3.955-513.668-399.567-886.501-849.414-909.049
	C784.73,85.711,552.913,173.707,363.551,362.492C189.989,535.525,100.722,748.664,100.008,993.698
	C98.539,1497.767,504.996,1897.461,998.703,1898.904z M1000.055,1841.839c-453.476,6.744-863.452-377.678-843.792-879.44
	c16.924-431.945,372.352-814.617,857.722-809.609c449.764,4.64,850.046,377.891,831.318,882.959
	C1829.303,1467.221,1467.093,1845.823,1000.055,1841.839z M818.739,425.267c-31.311,44.033-63.678,89.085-95.563,134.476
	c-122.522,174.422-244.923,348.929-367.247,523.49c-9.642,13.76-24.276,27.406-26.241,42.456
	c-4.089,31.308-1.236,63.523-1.236,97.528c150.398,0,298.223,0,447.538,0c0,93.528,0,184.834,0,276.424
	c231.998,0,462.473,0,693.616,0c24.67-67.83,48.934-134.547,73.705-202.656c-11.426,0-20.099,0-27.248,0
	c-14.201,17.497-25.751,35.454-40.867,49.601c-34.276,32.078-78.989,34.51-122.221,35.137
	c-105.206,1.526-210.448,0.497-315.676,0.497c-5.797,0-11.594,0-18.302,0c1.398-3.579,1.55-4.994,2.328-5.815
	c78.394-82.655,157.494-164.654,235.069-248.07c63.321-68.089,122.747-139.567,167.29-221.817
	c40.346-74.5,64.994-152.701,53.098-239.314c-10.312-75.082-49.245-132.934-107.02-178.39
	c-63.958-50.321-137.708-68.782-219.031-62.461c-100.447,7.807-174.64,54.937-224.442,141.761
	c-5.95,10.372-11.521,20.961-17.268,31.45c-1.222-0.407-2.444-0.814-3.667-1.221c0-57.125,0-114.25,0-173.076
	C876.664,425.267,849.536,425.267,818.739,425.267z M914.418,1414.473c32.758-35.166,65.764-70.105,98.223-105.545
	c63.498-69.33,127.517-138.209,189.759-208.655c53.326-60.354,94.488-128.831,120.83-205.051
	c24.087-69.693,33.919-140.781,5.805-212.35c-29.199-74.33-81.835-124.392-161.039-136.079
	c-82.99-12.246-155.652,14.378-209.968,81.003c-31.722,38.911-53.511,80.986-52.259,134.661
	c2.532,108.553,0.761,217.207,0.764,325.819c0,7.26,0,14.519,0,23.952c47.663,0,93.013,0,137.75,0c0,37.984,0,73.736,0,110.89
	c-46.52,0-91.373,0-137.309,0c0,62.663,0,123.865,0,185.066C909.455,1410.281,911.936,1412.377,914.418,1414.473z M773.493,592.746
	C650.091,767.27,529.492,937.83,407.054,1110.99c125.298,0,245.369,0,366.439,0C773.493,938.424,773.493,767.901,773.493,592.746z"
	/>
</svg>
