<?xml version="1.0" encoding="iso-8859-1"?>
<!-- Generator: Adobe Illustrator 19.0.0, SVG Export Plug-In . SVG Version: 6.00 Build 0)  -->
<svg version="1.1" id="Layer_1" xmlns="http://www.w3.org/2000/svg" xmlns:xlink="http://www.w3.org/1999/xlink" x="0px" y="0px"
	 viewBox="0 0 2000 2000" style="enable-background:new 0 0 2000 2000;" xml:space="preserve">
<path d="M1974.037,996.35c-10.283,539.215-424.081,990.723-1005.04,975.587c-512.706-13.358-946.544-416.762-940.47-988.129
	c5.48-515.455,412.707-966.511,997.149-953.793C1543.448,41.281,1953.982,441.412,1974.037,996.35z M481.248,1463.703
	c2.327,93.76,34.283,174.965,113.538,231.811c26.755,19.19,58.715,20.22,88.79,5.507c32.291-15.798,57.292-41.759,48.329-78.715
	c-8.813-36.336-24.114-73.198-45.111-104.008c-35.06-51.445-79.351-96.532-115.396-147.386
	c-66.45-93.747-70.551-201.973-54.236-309.26c13.986-91.972,19.259-180.684-16.178-268.418
	c-24.833-61.48-49.843-122.891-74.344-184.503c-26.094-65.62-19.845-81.723,45.389-115.054c4.404,12.273,8.559,23.854,12.715,35.436
	c1.761-0.305,3.521-0.609,5.282-0.914c2.478-22.384,4.957-44.767,7.679-69.353c86.241,56.641,117.77,47.198,154.905-46.17
	c18.251-45.888,46.413-80.923,94.052-94.18c61.713-17.173,124.054-33.589,187.188-43.671c48.905-7.81,98.948-2.46,146.015,17.709
	c36.789,15.764,56.451,40.935,54.415,75.283c-2.541,42.882-18.918,80.381-46.637,113.376
	c-66.255,78.866-151.963,127.865-247.23,162.34c-23.892,8.646-48.086,16.454-72.141,24.647c0.765,2.72,1.53,5.44,2.294,8.16
	c63.042-15.461,127.457-26.81,188.822-47.293c106.406-35.518,205.472-86.698,271.142-182.032
	c54.67-79.366,50.626-140.261-23.459-200.847c-22.337-18.267-52.819-33.235-81.031-36.309
	c-64.806-7.061-130.619-9.299-195.826-7.246c-100.276,3.156-199.511,22.118-274.868,92.478
	c-62.362,58.226-158.7,78.931-186.894,170.341c-12.385,3.614-22.157,9.739-30.829,8.452c-47.68-7.078-67.682,26.76-87.044,59.067
	c-6.079,10.144-7.12,27.848-2.696,39.012c29.878,75.395,65.449,148.706,92.077,225.164c24.622,70.697,40.679,144.372,25.117,220.715
	c-17.668,86.676-13.523,173.684-1.333,260.443c10.345,73.627,52.75,132.532,92.921,191.957
	c33.455,49.49,68.483,97.917,102.455,146.303C609.594,1658.918,521.166,1577.576,481.248,1463.703z M1402.025,778.817
	c-10.556-6.771-16.992-10.601-23.118-14.876c-53.581-37.387-76.625-112.705-52.707-171.989
	c25.111-62.241,95.869-97.801,168.242-84.551c56.741,10.388,108.164,76.84,109.467,139.64
	c1.577,75.948-40.839,126.913-100.497,161.447c-107.769,62.384-158.781,61.84-231.42-23.796
	c-42.584-50.203-92.672-93.266-154.638-119.852c-46.106-19.781-105.775-20.364-140.185-0.66
	c16.896,5.686,34.162,10.468,50.622,17.216c68.791,28.203,116.563,82.788,167.239,133.849
	c29.608,29.834,56.363,65.393,91.603,86.147c76.064,44.795,160.502,39.135,239.068,8.726
	c139.517-54,200.482-204.552,142.625-342.613c-31.423-74.982-88.058-125.579-169.544-137.337
	c-94.629-13.654-177.036,12.331-223.607,103C1221.926,636.842,1251.089,775.483,1402.025,778.817z M1345.125,1491.29
	c-3.36-14.627-5.596-23.708-7.523-32.854c-13.056-61.983-57.125-84.859-111.464-53.877
	c-85.946,49.002-114.55,137.126-89.561,229.936c7.42,27.559,27.973,56.812,50.949,74.017
	c84.177,63.034,189.041,20.848,244.536-57.389c56.57-79.753,59.588-169.096,31.647-262.154
	c-39.59-131.854-120.835-234.393-223.343-320.784c-63.594-53.595-133.532-99.663-200.622-149.109
	c-2.737,2.575-5.473,5.15-8.21,7.725c6.788,39.745-0.124,84.298,32.396,115.883c32.339,31.409,69.43,57.864,103.552,87.509
	c73.558,63.908,141.72,133.037,187.958,219.891c62.757,117.885,38.174,216.255-33.729,286.607
	c-26.803,26.224-60.233,27.268-89.909,4.108c-43.004-33.562-44.75-109.355-3.618-157.107c30.39-35.281,58.736-37.499,94.556-7.687
	C1328.194,1480.543,1334.48,1484.077,1345.125,1491.29z M1532.337,1100.928c6.54,42.085,24.967,52.52,68.828,38.868
	c65.734-20.461,113.221-65.182,141.431-128.473c16.553-37.136-0.742-82.126-39.639-93.843c-23.398-7.048-52.246-9.816-74.955-2.711
	c-64.127,20.063-126.666,45.42-189.194,70.292c-33.054,13.148-65.369,16.39-95.595-3.251c-34.225-22.239-67.288-46.487-99.386-71.73
	c-55.402-43.57-108.532-90.112-165.056-132.124c-18.699-13.898-44.916-17.682-75.598-29.006
	c9.159,27.541,14.448,43.447,19.737,59.353c1.912-1.936,3.823-3.873,5.735-5.809c59.243,55.825,118.21,111.946,177.834,167.361
	c34.699,32.249,69.723,64.231,105.948,94.732c31.813,26.786,70.032,28.871,106.514,14.095
	c58.32-23.621,114.585-52.272,172.532-76.882c27.142-11.527,54.015-33.247,86.271-14.435
	c10.07,54.205-50.955,114.907-111.285,108.958c-1.098-12.856-2.243-26.264-3.387-39.673c-1.831-0.894-3.661-1.788-5.492-2.682
	C1548.48,1070.897,1539.38,1087.826,1532.337,1100.928z M675.248,764.141c-0.535,2.365-1.071,4.729-1.606,7.094
	c6.978,4.056,13.714,8.615,20.971,12.087c64.175,30.712,107.669,96.518,84.521,175.234c-19.477,66.234-41.407,132.15-68.062,195.773
	c-37.571,89.679-57.305,179.597-29.669,275.624c26.53,92.184,122.214,162.203,210.285,158.928
	c-5.187-2.781-8.686-5.078-12.488-6.634c-72.576-29.697-105.058-87.256-121.127-161.367
	c-17.945-82.762,12.319-154.249,40.687-227.199c36.491-93.837,76.237-186.441,71.425-290.828
	c-2.774-60.172-37.149-112.723-94.677-127.024C743.122,767.777,708.735,767.771,675.248,764.141z M761.786,730.847
	c26.555,5.565,53.391,10.061,79.604,16.931c45.037,11.803,72.077,43.809,72.28,87.164c0.115,24.618-2.584,49.514-6.675,73.837
	c-12.644,75.18,8.188,140.802,57.387,196.963c103.64,118.306,234.305,200.55,373.595,272.795
	c-25.42-43.515-49.686-88.829-84.648-123.295c-39.145-38.59-88.055-67.248-132.573-100.419
	c-74.875-55.791-119.962-125.656-115.73-223.883c1.831-42.5-2.905-86.941-14.356-127.781c-7.823-27.902-26.953-59.816-50.613-74.667
	C883.079,692.725,821.398,714.492,761.786,730.847z M828.552,1667.047c59.443,51.521,128.945,58.906,189.485,10.306
	c25.583-20.537,46.189-51.374,60.055-81.652c45.281-98.875,45.114-231.19-66.145-300.026c-17.25-10.673-32.627-24.328-49.268-36.038
	c-40.653-28.606-81.539-56.88-125.41-87.432c-12.363,31.953-22.962,59.348-34.178,88.337c26.211,16.649,49.6,33.823,74.993,47.19
	c69.841,36.767,107.201,96.796,126.087,170.615c16.65,65.078-8.05,136.241-63.377,161.454
	C906.068,1655.626,865.471,1658.566,828.552,1667.047z M296.895,1051.009c30.043,2.824,64.357-14.085,78.415-42.424
	c12.643-25.485,10.286-50.642-7.904-72.521c-21.716-26.119-48.737-36.303-83.366-27.076
	c-51.287,13.666-87.721,66.623-90.239,130.293c-2.83,71.539,18.702,138.122,41.596,203.671
	c25.399,72.722,55.392,144.347,108.098,202.697c9.621,10.651,31.261,23.903,38.965,19.882c13.865-7.237,26.846-25.422,30.361-41.222
	c6.463-29.054,7.644-59.695,7.623-89.672c-0.026-36.658-4.304-73.291-5.416-109.975c-2.591-85.472-1.421-170.691,29.126-258.664
	c-60.999,40.679-70.487,97.883-74.23,156.362c-3.999,62.47-4.196,125.176-7.371,187.712c-0.696,13.714-6.956,27.145-12.147,46.186
	c-8.103-10.263-11.894-14.027-14.476-18.49c-48.692-84.157-79.205-174.872-96.977-270.136
	c-13.354-71.582,24.649-115.95,97.534-110.863c4.606,7.721,9.952,16.684,19.402,32.526
	C336.281,1009.805,316.607,1030.387,296.895,1051.009z M1467.741,1224.199c56.919-7.776,103.623,19.849,127.361,73.936
	c11.716,26.694,4.106,48.394-24.387,52.884c-28.645,4.514-58.555,0.993-87.324,0.993c7.363,31.926,14.715,63.804,22.32,96.781
	c32,0,62.157,0.155,92.309-0.185c4.031-0.046,8.07-2.506,12.045-4.006c59.252-22.358,67.921-67.657,66.875-132.487
	c-1.566-97.15-99.773-146.181-179.894-135.127c-48.752,6.726-67.168,39.151-50.029,86.099
	C1454.486,1249.072,1461.375,1236.145,1467.741,1224.199z M641.507,804.004c-132.865,97.778-93.518,249.268,39.13,352.898
	c11.957-28.924,23.677-57.276,34.892-84.407C651.16,994.045,578.757,920.614,641.507,804.004z"/>
</svg>
