<?xml version="1.0" encoding="iso-8859-1"?>
<!-- Generator: Adobe Illustrator 19.0.0, SVG Export Plug-In . SVG Version: 6.00 Build 0)  -->
<svg version="1.1" id="Layer_1" xmlns="http://www.w3.org/2000/svg" xmlns:xlink="http://www.w3.org/1999/xlink" x="0px" y="0px"
	 viewBox="0 0 2000 2000" style="enable-background:new 0 0 2000 2000;" xml:space="preserve">
<path d="M1986.542,1001.652c3.19,534.434-435.559,992.513-999.642,985.343c-547.534-6.959-980.81-459.26-972.926-1002.541
	c7.69-529.941,446.084-984.46,1012.581-970.751C1560.109,26.615,1990.175,466.522,1986.542,1001.652z M1000.817,102.743
	c-488.048-3.131-895.512,394.071-898.549,890.562c-3.094,505.716,400.931,892.757,872.546,905.034
	c513.281,13.361,919.818-396.447,924.273-888.224C1903.727,497.914,1486.441,99.151,1000.817,102.743z M1001.822,1841.862
	c-460.142,3.919-835.741-371.488-843.702-825.451c-8.283-472.28,371.464-858.733,842.304-858.957
	c469.938-0.224,855.025,386.722,842.526,866.761C1831.266,1472.981,1459.324,1844.319,1001.822,1841.862z M1278.746,667.755
	c-36.469,0-72.938,0-111.657,0c0,38.264,0,73.957,0,109.078c-111.067,0-219.812,0-330.733,0c0-36.918,0-72.639,0-109.906
	c-37.345,0-72.536,0-110.138,0c0-37.259,0-72.965,0-109.455c-38.88,0-75.295,0-112.598,0c0,36.931,0,72.597,0,110.461
	c37.006,0,72.774,0,108.665,0c0,37.802,0,73.374,0,111.31c-37.389,0-73.085,0-110.547,0c0,37.51,0,72.633,0,110.133
	c-37.527,0-73.208,0-110.436,0c0,37.574,0,72.746,0,110.462c-37.263,0-72.934,0-109.123,0c0,112.662,0,222.725,0,333.672
	c37.183,0,72.997,0,110.882,0c0-73.591,0-146.182,0-219.895c37.109,0,72.153,0,109.558,0c0,73.228,0,145.757,0,220.461
	c37.954,0,73.616,0,111.73,0c0,37.935,0,73.676,0,109.007c75.723,0,148.935,0,222.595,0c0-36.843,0-72.183,0-109.932
	c-73.356,0-146.256,0-219.527,0c0-37.524,0-72.626,0-108.63c184.051,0,366.888,0,550.927,0c0,37.312,0,73.292,0.001,109.273
	c-72.997,0-145.995,0-219.439,0c0,37.037,0,73.246,0,109.595c74.456,0,147.458,0,220.242,0c0-37.071,0-72.942,0-108.814
	c37.225,0,74.45,0,113.696,0c0-75.235,0-147.697,0-220.724c36.972,0,71.868,0,109.04,0c0,73.879,0,146.372,0,218.655
	c38.583,0,74.844,0,110.397,0c0-111.848,0-221.762,0-333.468c-36.771,0-71.899,0-109.554,0c0-37.404,0-73.072,0-111.212
	c-38.15,0-73.777,0-110.927,0c0-37.738,0-72.893,0-110.374c-37.871,0-74.169,0-113.444,0c0-38.281,0-74.199,0.003-110.114
	c37.64,0,75.28,0,112.781,0c0-38.415,0-73.997,0-110.014c-37.779,0-74.1,0-112.393,0
	C1278.746,594.842,1278.746,631.298,1278.746,667.755z M727.65,997.954c36.348,0,71.343,0,106.24,0c0-36.658,0-72.152,0-107.708
	c-36.244,0-70.681,0-106.24,0C727.65,927.809,727.65,962.796,727.65,997.954z M1277.482,890.42c-36.204,0-71.177,0-107.387,0
	c0,36.397,0,71.373,0,107.526c35.786,0,70.854,0,107.387,0C1277.482,961.288,1277.482,926.237,1277.482,890.42z"/>
</svg>
