<?xml version="1.0" encoding="utf-8"?>
<!-- Generator: Adobe Illustrator 25.1.0, SVG Export Plug-In . SVG Version: 6.00 Build 0)  -->
<svg version="1.1" id="aave" xmlns="http://www.w3.org/2000/svg" xmlns:xlink="http://www.w3.org/1999/xlink" x="0px" y="0px"
	 viewBox="0 0 500 500" style="enable-background:new 0 0 500 500;" xml:space="preserve">
<path d="M250,2C113,2,2,113,2,250s111,248,248,248s248-111,248-248S387,2,250,2z M355.5,365.9c-2.7,2.9-6.4,4.3-11.1,4.3
	c-3-0.1-6.1-1-8.6-2.9c-2.7-1.8-4.5-4.5-6-7.6L250,161.3l-29.3,72.9h14.2c8.2,0,14.9,6.8,15,15v0.4c0,8.3-6.8,14.9-15,15h-26.6
	l-38.4,95.1c-1.5,3.1-3.3,5.7-6,7.6c-2.5,1.9-5.5,2.8-8.6,2.9c-4.7,0-8.5-1.4-11.1-4.3c-2.6-2.9-4.1-6.6-4.1-11.3c0-2,0.4-3.9,1-5.8
	l34.8-84.2h-14.8c-8.2,0-14.9-6.8-15-15v-0.2c0-8.3,6.8-14.9,15-15h27.6l36.5-88.3c4.7-10.5,11.7-15.6,21-15.6h7.4
	c9.2,0,16.3,5.1,21,15.6l83.9,202.7c0.8,1.8,1.1,3.8,1.1,5.8C359.6,359.3,358.2,363,355.5,365.9z"/>
</svg>
