<?xml version="1.0" encoding="utf-8"?>
<!-- Generator: Adobe Illustrator 24.2.0, SVG Export Plug-In . SVG Version: 6.00 Build 0)  -->
<svg version="1.1" id="Layer_1" xmlns="http://www.w3.org/2000/svg" xmlns:xlink="http://www.w3.org/1999/xlink" x="0px" y="0px"
	 viewBox="0 0 500 500" style="enable-background:new 0 0 500 500;" xml:space="preserve">
<g>
	<path d="M98.3,243c-16.5-0.2-29.1,12-29.2,27.8c-0.1,15.5,12.2,28.1,27.5,28.3c15.8,0.2,28.5-12.4,28.5-27.9
		C125.1,255.5,113.2,243.1,98.3,243z"/>
	<path d="M249.7,2.5C112.9,2.5,2,112.5,2,248.2s110.9,245.7,247.7,245.7s247.7-110,247.7-245.7S386.5,2.5,249.7,2.5z M397.7,322.4
		c-0.8,0.8-3,0.8-4.3,0.4c-14-5-23.9-14.6-29.5-28.2c-0.5-1.3-0.2-3.7,0.7-4.6c5.8-5.4,11.9-10.5,18.9-16.7
		c2.8,19.3,13.3,29,31.8,29.6c0.3,0.4,0.6,0.8,0.8,1.3C409.9,310.4,403.9,316.5,397.7,322.4z M440.9,279c-0.9-5.1-1-9.8-2.5-14
		c-6.6-18.6-28.8-24.8-43.9-12.1c-11.2,9.6-21.8,20.1-32.4,30.4c-7.3,7.1-14.4,14.7-21.5,22.1c-14.2,14.7-30.8,22.1-51.4,17.7
		c-16.7-3.6-28.7-13.3-36.3-28.6c-1.6-3.3-1.5-6,1.6-8.5c5.5-4.5,10.9-9.2,17.2-14.6c0.7,2.9,1.1,4.9,1.6,6.8
		c3.6,14.8,19,24.7,32.9,21.2c16.5-4.1,25.5-18.7,21.6-34.6c-4.4-17.9-27.4-26.8-42.1-15.7c-11.4,8.6-21.7,18.5-32.2,28.1
		c-1.9,1.7-2.8,4.9-3.5,7.6c-5.5,21.8-22.5,36.9-45.8,39.3c-19.9,2-40.2-7.5-50.8-27.2c-3.7-6.9-3.6-7.5,2.1-12.5
		c4.9-4.2,9.8-8.3,15.7-13.4c0.5,2.9,0.8,4.6,1.1,6.3c2.9,16.3,18.1,26.4,34.4,23c14.9-3.1,24.4-18.9,20.6-34.3
		c-4.8-19.5-28.4-28.1-44-15.7c-10.9,8.7-21.5,18.3-31.8,27.8c-2,1.9-3.3,5.6-3.4,8.5c-0.4,10-0.2,20.2-0.3,30.2
		c0,2.2-0.5,4.3-0.8,6.7c-9.3,1.4-16-2.4-21.9-8.9c-16.5,9.2-33.3,10.6-50.5,3c-11.5-5.1-19.4-14-24.8-25
		c-10.8-21.9-3.9-49,16.3-64.3c8.1-6.1,17.5-9,27.6-9.7c10.1-0.7,19.7,1.3,28.6,6.1c8.8,4.8,15.2,12.4,20.9,20.6
		c0.5-0.1,1.1-0.1,1.6-0.2c0.3-2.6,0.9-5.2,0.9-7.8c0.1-23.8,0-47.6,0-71.4c0-2.6,0.2-5.2,0.3-7.7c6.4-2.8,15.4-0.1,20.6,6
		c3.7,4.3,5.6,9.3,5.6,15.2c-0.1,13.2,0,26.3,0,39.4c0,2.4,0.2,4.7,0.4,7.8c29.4-12.9,53.4-7,72.2,18.6c0.6-0.1,1.2-0.2,1.9-0.3
		c0.4-2.6,1.1-5.2,1.1-7.7c0.1-17.9,0-35.8,0-53.6c0-3,0.1-6.1,0.8-9c2-9.4,9.1-16.2,18.6-17.9c5.6-1,7.4,0.3,7.5,6
		c0.2,6.1,0.1,12.2,0.1,18.3c0,12.6,0,25.1,0,37.7c0,2,0,4.1,0,6.9c35.6-12.9,60.9-2.2,76.3,32.3c7.4-6.5,14.5-12.5,21.3-18.8
		c7.2-6.6,15.1-12.2,24.6-15.1c23.8-7.3,51.6,5.1,61.8,27.7c2.3,5.2,2,7.1-1.9,11.1C451.7,268.5,446.5,273.6,440.9,279z"/>
</g>
</svg>
