<?xml version="1.0" encoding="utf-8"?>
<!-- Generator: Adobe Illustrator 24.2.0, SVG Export Plug-In . SVG Version: 6.00 Build 0)  -->
<svg version="1.1" id="Layer_1" xmlns="http://www.w3.org/2000/svg" xmlns:xlink="http://www.w3.org/1999/xlink" x="0px" y="0px"
	 viewBox="0 0 500 500" style="enable-background:new 0 0 500 500;" xml:space="preserve">
<path d="M36.6,126.4C107.1,85.5,178,44.4,249.5,3c23.9,13.1,189.4,109.1,213.6,123.1c0.2,2.1,0.5,4.5,0.5,6.9
	c0,65.5-0.4,238.3-0.6,240.7c-71.2,41.1-142.1,82-213.3,123.1c-71.2-41.2-142.2-82.4-212.9-123.4C35.7,368.7,35.5,133,36.6,126.4z
	 M240.4,31.7c-2,0.7-173.8,101-173.8,101l129.1,73.6c0,0,29.6-51.6,42.4-73.6c1.5-2.6,2.3-5.1,2.3-8.1
	C240.4,95.4,240.7,34,240.4,31.7z M56,149l0.7,200.9c0,0,68.2-39.2,80.4-45.7c7.2-3.8,4.3-2.9,8.3-10.2
	c11.7-21.3,38.5-68.4,39.3-70.4C141.8,198.7,56,149,56,149z M442.7,149.8l-127.5,75.1c0,0,28.8,50.6,41.6,73
	c1.4,2.4,3.2,4.2,5.6,5.6c10.4,6,81.1,46.4,81.1,46.4L442.7,149.8z M260.4,31.7c0,0-0.7,64-0.5,93.6c0,2.6,0.8,5.3,1.9,7.6
	c2,4.1,43.5,73.7,43.5,73.7L432.7,132L260.4,31.7z M241.9,467.5v-92.9l-93.3-54l-81.9,47.2L241.9,467.5z M259.5,374.9l-0.5,92.6
	l174.6-100c0,0-54.8-32.1-81.7-47.1C337.1,327.5,259.5,374.9,259.5,374.9z M242,352v-86c0,0-50,28.1-73.2,42.1
	C169.5,309.4,242,352,242,352z M330.3,308.7l-70-42.7l0.4,86L330.3,308.7z M239.2,172.6l-26.8,43.9l26.8,15.5V172.6z M176.5,280.7
	l51.9-31.8l-24.8-14.4L176.5,280.7z M323.1,279.7l-27-45.2L270,249.4L323.1,279.7z M260.4,172.6c-0.3,1.4,0,58.3,0.5,59.6
	c7.4-4.3,24.3-14.8,25.9-16.2C278.5,201.4,261.3,172.9,260.4,172.6z"/>
</svg>
