<?xml version="1.0" encoding="iso-8859-1"?>
<!-- Generator: Adobe Illustrator 19.0.0, SVG Export Plug-In . SVG Version: 6.00 Build 0)  -->
<svg version="1.1" id="Layer_1" xmlns="http://www.w3.org/2000/svg" xmlns:xlink="http://www.w3.org/1999/xlink" x="0px" y="0px"
	 viewBox="0 0 500 500" style="enable-background:new 0 0 500 500;" xml:space="preserve">
<path id="XMLID_4_" d="M457.726,131.279c0,79.991,0,159.733,0,239.674c-68.856,39.78-137.459,79.413-206.578,119.346
	c-68.795-39.831-137.568-79.65-206.735-119.697c0-79.424,0-158.882,0-238.98C113.075,91.884,181.87,52.069,251.131,11.984
	C320.025,51.766,388.828,91.495,457.726,131.279z M241.603,39.996c-56.455,32.513-111.985,64.494-168.688,97.15
	c42.379,24.439,83.367,48.075,125.117,72.151c15.378-25.2,29.187-50.548,43.571-74.99
	C241.603,102.997,241.603,72.204,241.603,39.996z M260.883,134.054c0.263,0.674,0.392,1.183,0.643,1.623
	c11.848,20.731,23.66,41.484,35.607,62.158c2.217,3.837,4.983,7.357,7.604,11.181c41.56-24.056,82.261-47.616,124.299-71.948
	c-56.62-32.51-111.809-64.685-168.153-96.762C260.883,72.528,260.883,103.388,260.883,134.054z M438.335,155.264
	c-8.848,3.083-119.596,67.695-123.454,72.023c0.59,1.289,1.118,2.733,1.872,4.048c12.624,22.021,25.23,44.053,37.996,65.992
	c1.22,2.097,3.232,3.986,5.307,5.282c5.635,3.522,11.524,6.636,17.273,9.978c18.193,10.573,36.359,21.193,54.566,31.744
	c1.869,1.083,3.935,1.826,6.44,2.969C438.335,282.751,438.335,219.077,438.335,155.264z M188.473,226.143
	c-41.662-24.125-82.58-47.819-124.424-72.049c0,64.875,0,128.672,0,193.445c3.359-1.722,6.058-2.966,8.625-4.442
	c22.252-12.794,44.447-25.689,66.745-38.403c4.4-2.509,7.553-5.829,10.017-10.224c6.644-11.85,13.601-23.523,20.354-35.313
	C175.882,248.521,181.869,237.824,188.473,226.143z M152.644,319.304c-26.175,14.739-52.271,29.707-78.416,45.222
	c7.04,6.275,161.396,94.773,167.426,96.188c0-29.836,0-59.642,0-89.954C212.164,353.712,182.727,336.695,152.644,319.304z
	 M349.796,319.299c-30.365,17.556-59.827,34.59-88.768,51.323c0,30.927,0,60.664,0,91.507
	c56.147-32.434,111.468-64.391,167.989-97.041C401.727,349.315,375.824,334.343,349.796,319.299z M241.976,348.637
	c0-10.487-0.004-19.16,0.001-27.833c0.006-8.749,0.148-17.5-0.003-26.246c-0.147-8.542,0.67-17.163-0.846-26.389
	c-23.319,13.428-45.647,26.286-69.299,39.905C195.454,321.736,217.752,334.629,241.976,348.637z M261.594,347.806
	c23.14-13.391,45.477-26.316,68.701-39.756c-23.508-13.558-45.781-26.403-68.181-39.322
	C260.253,275.429,259.823,335.928,261.594,347.806z M241.44,234.412c0-20.533,0-39.699,0-58.864
	c-0.362-0.104-0.724-0.208-1.086-0.312c-8.295,14.441-16.591,28.882-25.159,43.798C223.854,224.107,231.931,228.84,241.44,234.412z
	 M287.215,219.085c-8.68-15.028-16.721-28.948-25.398-43.97c-2.31,12.17-1.621,53.418,0.659,58.247
	C270.369,228.807,278.258,224.255,287.215,219.085z M205.388,235.848c-8.491,14.703-16.689,28.898-24.887,43.093
	c0.394,0.366,0.789,0.731,1.183,1.097c16.338-9.482,32.676-18.964,49.86-28.937C222.438,245.791,214.548,241.19,205.388,235.848z
	 M297.387,236.772c-10.475,4.061-21.944,11.051-25.114,15.273c15.87,9.155,31.702,18.287,47.534,27.42
	c0.433-0.459,0.865-0.918,1.298-1.376C313.178,264.279,305.25,250.469,297.387,236.772z"/>
</svg>
