<?xml version="1.0" encoding="iso-8859-1"?>
<!-- Generator: Adobe Illustrator 19.0.0, SVG Export Plug-In . SVG Version: 6.00 Build 0)  -->
<svg version="1.1" id="Layer_1" xmlns="http://www.w3.org/2000/svg" xmlns:xlink="http://www.w3.org/1999/xlink" x="0px" y="0px"
	 viewBox="0 0 500 500" enable-background="new 0 0 500 500" xml:space="preserve">
<path d="M237.161,18c6.544,67.262,21.932,129.395,42.451,190.777c-13.685,3.878-27.252,7.722-41.875,11.865
	c-8.704-17.035-10.72-35.937-17.665-54.157c-11.607,22.07-23.42,43.316-33.95,65.181c-3.962,8.227-8.932,13.605-17.24,16.999
	c-7.931,3.24-15.388,7.639-25.066,12.549C175.056,179.817,205.536,100.4,237.161,18z M402.268,422.625
	c-31.246-27.824-52.734-62.837-72.775-98.866c-6.507-11.699-12.406-23.772-17.894-35.984c-2.37-5.274-5.693-7.592-10.784-6.161
	c-11.026,3.101-21.88,6.812-32.56,10.197c3.499,6.567,6.413,12.117,9.399,17.627c22.643,41.789,50.123,79.668,87.681,109.569
	c14.849,11.822,30.934,21.522,48.448,28.555c12.011,4.823,24.498,8.839,38.025,6.858
	C433.403,446.534,417.077,435.812,402.268,422.625z M492.547,220.381c-41.466-0.538-82.974-2.307-124.17,4.589
	c-21.039,3.522-42.432,5.558-63.075,10.657c-28.643,7.075-57.037,15.498-84.976,24.994c-32.467,11.035-63.084,26.354-92.521,44.097
	c-24.89,15.002-48.001,32.32-69.542,51.67c-12.654,11.368-24.431,23.75-36.154,36.102c-6.708,7.067-12.517,14.988-18.73,22.524
	c3.341-0.043,5.106-1.513,6.778-3.081c14.208-13.33,28.231-26.862,42.631-39.981c25.209-22.965,53.982-40.981,83.789-57.04
	c43.42-23.393,88.611-43.03,136.506-55.454c30.633-7.946,61.562-14.813,92.512-21.444c13.493-2.891,27.357-4.089,41.079-5.858
	c19.133-2.467,38.28-4.843,57.443-7.07c9.873-1.147,19.793-1.889,31.884-3.019C493.297,220.729,492.924,220.386,492.547,220.381z
	 M50.708,343.196c43.901-34.604,92.277-61.838,143.411-83.774c40.524-17.384,82.223-31.663,125.787-40.438
	c35.007-7.051,69.82-14.2,105.695-14.522c3.781-0.034,7.549-1.601,11.322-2.457c-0.143-0.978-0.286-1.956-0.43-2.934
	c-28.759,1.02-57.517,2.04-86.276,3.062c-0.425,0.015-0.856,0.024-1.272,0.104c-17.24,3.305-34.409,7.047-51.732,9.829
	c-24.795,3.982-48.726,11.451-72.362,19.237c-37.771,12.442-73.024,30.755-106.414,52.437
	c-32.197,20.908-61.839,44.948-86.92,74.542C37.915,353.254,44.318,348.233,50.708,343.196z M299.674,261.201
	c-45.617,11.012-89.664,26.718-130.81,49.128c-58.267,31.736-104.941,72.217-109.769,83.994
	c111.74-87.398,242.077-128.627,381.127-147.372C392.571,247.168,345.678,250.094,299.674,261.201z M64.345,474.798
	c19.785-39.284,39.57-78.568,59.95-119.033c-5.827,3.534-10.752,5.815-14.79,9.167c-4.099,3.402-8.749,7.272-10.681,11.958
	c-7.927,19.224-14.927,38.831-22.233,58.31c-4.773,12.725-9.488,25.472-14.229,38.209C63.023,473.871,63.684,474.334,64.345,474.798
	z"/>
</svg>
