<?xml version="1.0" encoding="iso-8859-1"?>
<!-- Generator: Adobe Illustrator 19.0.0, SVG Export Plug-In . SVG Version: 6.00 Build 0)  -->
<svg version="1.1" id="Layer_1" xmlns="http://www.w3.org/2000/svg" xmlns:xlink="http://www.w3.org/1999/xlink" x="0px" y="0px"
	 viewBox="0 0 500 500" style="enable-background:new 0 0 500 500;" xml:space="preserve">
<path d="M82.304,369.78c64.132-111.158,128.03-221.911,192.023-332.827c7.658,4.284,13.79,9.88,18.074,17.213
	c13.733,23.502,27.292,47.105,40.909,70.674c35.304,61.103,70.612,122.203,105.9,183.314c16.649,28.832,33.564,57.517,49.761,86.601
	c8.653,15.537,8.061,31.728-0.201,47.541c-0.122,0.233-0.282,0.448-0.443,0.656c-0.041,0.053-0.154,0.051-0.616,0.188
	C418.029,322.47,348.297,201.718,278.386,80.655c-55.71,96.558-111.256,192.833-166.812,289.125
	C101.937,369.78,92.433,369.78,82.304,369.78z M247.408,30.763c-0.444-0.002-0.89,0.01-1.332,0.049
	c-18.442,1.652-32.35,10.493-41.622,26.491c-14.48,24.985-28.864,50.027-43.305,75.035
	c-49.762,86.181-99.556,172.344-149.23,258.576c-2.633,4.57-4.562,9.61-6.3,14.611c-1.502,4.321-2.146,8.91-1.615,13.779
	c127.838,0,255.443,0,383.355,0c-4.848-8.357-9.624-16.589-14.516-25.022c-111.087,0-222.188,0-333.605,0
	C109.209,273.04,178.988,152.13,248.972,30.868C248.114,30.808,247.761,30.765,247.408,30.763z M11.549,444.369
	c0.447,0.83,0.623,1.241,0.87,1.604c10.045,14.741,23.926,23.139,41.804,23.162c130.307,0.163,260.614,0.096,390.921,0.043
	c3.342-0.001,6.721-0.46,10.017-1.062c5.311-0.971,10.204-3.119,15.091-5.909C406.345,351.494,342.584,241.035,278.63,130.242
	c-5.061,8.806-9.825,17.095-14.674,25.532c55.437,96.016,110.825,191.947,166.627,288.595
	C290.616,444.369,151.229,444.369,11.549,444.369z M140.152,369.75c73.03,0,145.614,0,218.685,0
	c-36.513-63.167-72.847-126.025-109.366-189.202C212.978,243.709,176.626,306.624,140.152,369.75z M249.465,231.331
	c21.802,37.787,43.416,75.248,65.229,113.054c-43.594,0-86.785,0-130.495,0C206.005,306.613,227.652,269.115,249.465,231.331z"/>
</svg>
