<?xml version="1.0" encoding="iso-8859-1"?>
<!-- Generator: Adobe Illustrator 19.0.0, SVG Export Plug-In . SVG Version: 6.00 Build 0)  -->
<svg version="1.1" id="Layer_1" xmlns="http://www.w3.org/2000/svg" xmlns:xlink="http://www.w3.org/1999/xlink" x="0px" y="0px"
	 viewBox="0 0 2000 2000" style="enable-background:new 0 0 2000 2000;" xml:space="preserve">
<path d="M1971.487,1400.227c-0.003,150.139-2.395,300.332,1.027,450.393c1.66,72.782-46.615,115.26-124.488,97.034
	c-66.806-15.636-135.113-24.936-202.846-36.513c-106.838-18.262-210.834,0.356-314.304,25.059
	c-140.968,33.655-284.385,45.667-428.114,32.695c-180.665-16.305-345.373-80.071-491.021-189.714
	c-175.55-132.153-294.284-304.305-354.123-515.34c-47.053-165.942-51.139-334.016-8.985-502.01
	c50.614-201.707,155.993-370.533,313.538-505.317C497.391,140.83,653.778,66.06,829.929,37.596
	c298.875-48.295,567.1,24.519,798.776,218.522c174.074,145.768,281.899,334.279,324.242,557.528
	c12.728,67.109,16.306,136.557,17.767,205.068C1973.424,1145.833,1971.49,1273.051,1971.487,1400.227z M990.713,1822.995
	c458.454,7.437,830.785-369.228,832.299-816.634c1.579-466.488-370.515-832.314-821.858-834.312
	c-463.309-2.051-822.842,368.223-832.251,802.547C158.41,1458.941,546.927,1826.695,990.713,1822.995z M928.566,1438.833
	c-19.078-2.479-38.015-7.279-56.523-12.723c-257.84-75.843-389.466-364.873-282.357-604.811
	c113.139-253.445,426.216-346.417,655.938-190.672c91.991,62.367,150.619,147.997,182.332,254.053
	c13.395,44.797,52.561,63.12,96.099,50.43c37.436-10.912,57.492-50.623,45.37-94.066
	c-30.811-110.426-89.773-203.465-173.775-281.516c-183.128-170.155-477.247-202.495-692.615-75.194
	c-251.978,148.94-361.581,445.021-265.207,713.82c107.569,300.02,436.257,462.172,730.237,368.775
	c182.056-57.84,310.405-175.625,382.418-353.029c17.159-42.271-2.908-86.273-42.019-99.843
	c-39.982-13.872-81.748,7.147-98.027,49.335c-65.15,168.829-229.664,280.118-419.23,279.495
	C974.321,1441.897,951.259,1441.782,928.566,1438.833z M863.177,1189.197c50.858,44.831,112.031,51.518,174.017,37.693
	c53.541-11.942,94.328-44.682,104.393-103.188c9.087-52.818-18.532-89.02-58.558-118.306c-6.611-4.837-13.42-9.4-21.865-15.296
	c9.844-6.737,16.735-10.695,22.755-15.701c32.087-26.681,54.272-59.137,46.445-102.709c-11.233-62.528-50.466-95.019-123.31-107.617
	c-43.696-7.557-124.799,22.363-150.869,69.876c16.632,15.633,33.945,31.906,49.615,46.634
	c17.925-10.495,30.603-20.626,45.056-25.764c23.481-8.348,49.787-8.805,65.649,12.194c9.672,12.803,14.384,34.522,11.499,50.457
	c-4.57,25.239-27.317,34.728-51.868,36.989c-20.804,1.916-41.634,3.538-63.471,5.375c0,24.784,0,47.084,0,69.355
	c29.231,3.324,56.641,4.286,83.02,10.002c30.951,6.707,46.654,31.269,43.144,60.335c-3.061,25.355-27.503,47.912-56.667,43.976
	c-29.494-3.981-57.895-16.059-92.502-26.281c-10.344,11.488-25.52,28.341-45.045,50.025
	C850.311,1174.084,855.808,1182.702,863.177,1189.197z"/>
</svg>
