<?xml version="1.0" encoding="iso-8859-1"?>
<!-- Generator: Adobe Illustrator 19.0.0, SVG Export Plug-In . SVG Version: 6.00 Build 0)  -->
<svg version="1.1" id="Layer_1" xmlns="http://www.w3.org/2000/svg" xmlns:xlink="http://www.w3.org/1999/xlink" x="0px" y="0px"
	 viewBox="0 0 500 500" enable-background="new 0 0 500 500" xml:space="preserve">
<path d="M250.461,376.315c-70.443,23.003-140.631,45.944-210.848,68.797c-3.915,1.274-8.025,2.262-12.113,2.638
	c-14.196,1.307-22.734-7.256-20.825-21.473c2.623-19.54,5.94-38.986,8.897-58.481c3.06-20.175,6.052-40.36,9.06-60.543
	c4.547-30.499,9.069-61.002,13.626-91.499c5.995-40.114,12-80.227,18.037-120.336c1.24-8.237,2.612-16.455,3.975-24.673
	c1.067-6.432,3.365-12.439,9.86-14.913c6.803-2.592,12.088,1.29,16.651,5.877c21.576,21.692,43.135,43.403,64.613,65.193
	c31.726,32.186,63.375,64.446,95.073,96.66c0.953,0.969,2.084,1.763,3.94,3.314c2.533-2.287,5.113-4.393,7.439-6.749
	c50.327-50.962,100.615-101.963,150.955-152.913c3.161-3.2,6.41-6.444,10.098-8.965c8.469-5.787,16.096-3.408,20.075,6.174
	c1.449,3.489,2.32,7.303,2.903,11.054c5.64,36.338,11.286,72.675,16.68,109.05c4.526,30.523,8.48,61.131,13.118,91.636
	c5.874,38.63,12.278,77.179,18.25,115.795c1.851,11.966,3.741,24,4.355,36.066c0.752,14.773-7.729,22.555-22.239,19.335
	c-15.417-3.421-30.384-8.947-45.459-13.827C367.796,414.498,309.043,395.357,250.461,376.315z M89.949,115.982
	c-14.416,96.981-28.512,191.805-42.764,287.681c48.232-15.676,94.667-30.767,142.323-46.256
	c-9.419-3.899-17.622-6.492-25.009-10.563c-8.646-4.765-10.871-13.483-6.506-22.366c1.797-3.658,4.361-7.102,7.186-10.062
	c8.637-9.048,17.594-17.789,26.381-26.693c10.941-11.086,21.836-22.215,33.319-33.903
	C180.053,208.026,135.729,162.747,89.949,115.982z M276.528,253.62c3.329,3.528,5.894,6.342,8.56,9.056
	c17.056,17.357,34.354,34.481,51.139,52.095c15.121,15.868,11.432,29.63-9.218,36.581c-4.635,1.56-9.2,3.325-16.04,5.81
	c48.607,15.791,94.94,30.843,142.998,46.456c-14.296-96.313-28.349-190.984-42.689-287.598
	C365.691,162.57,321.534,207.661,276.528,253.62z M207.543,323.333c14.315,4.791,26.673,9.001,39.097,13.005
	c1.894,0.61,4.271,0.84,6.127,0.272c13.089-4.002,26.101-8.259,40.932-13.01c-15.883-14.393-30.536-27.672-43.819-39.709
	C237.179,295.725,223.029,308.907,207.543,323.333z"/>
</svg>
