<?xml version="1.0" encoding="iso-8859-1"?>
<!-- Generator: Adobe Illustrator 19.0.0, SVG Export Plug-In . SVG Version: 6.00 Build 0)  -->
<svg version="1.1" id="Layer_1" xmlns="http://www.w3.org/2000/svg" xmlns:xlink="http://www.w3.org/1999/xlink" x="0px" y="0px"
	 viewBox="0 0 2000 2000" style="enable-background:new 0 0 2000 2000;" xml:space="preserve">
<path d="M1987.022,997.901c3.753,539.103-436.827,989.313-990.444,987.324c-543.236-1.952-984.019-446.448-982.563-992.252
	C15.437,460.079,458.794-9.212,1039.269,10.847C1547.553,28.411,1989.418,450.069,1987.022,997.901z M1000.814,1895.996
	c494.071-1.002,900.9-397.388,898.551-905.323c-2.257-487.79-401.058-890.894-899.19-890.547
	c-495.12,0.345-895.107,401.153-897.488,890.527C100.22,1497.826,506.37,1894.798,1000.814,1895.996z M1001.135,1840.528
	c-456.025,2.398-865.021-377.653-842.079-885.952c19.05-422.061,368.298-798.638,843.84-799.988
	c450.536-1.279,859.305,372.785,840.187,879.53C1826.798,1465.772,1470.015,1839.275,1001.135,1840.528z M1238.032,756.814
	c-6.864-58.465-44.927-94.687-95.927-120.122c18.383-31.435,34.086-60.505,51.911-88.211
	c22.594-35.119,40.016-71.196,30.318-114.345c-9.776-43.495-49.465-81.247-94.678-87.07c-47.863-6.165-87.822,11.375-113.234,52.59
	c-42.225,68.483-81.93,138.518-122.787,207.847c-29.518,50.089-59.183,100.091-89.637,151.578
	c-7.307-12.558-12.625-23.446-19.519-33.223c-22.239-31.54-46.694-59.636-89.932-61.174c-58.824-2.092-92.785,35.655-123.211,77.352
	c-5.911,8.1-4.388,24.023-1.94,35.4c9.602,44.622,23.761,88.412,31.045,133.352c14.171,87.431,5.169,175.024-6.518,262.032
	c-6.915,51.476-17.698,102.423-26.145,153.706c-5.215,31.658-0.47,41.774,27.951,57.692c53.055,29.715,106.534,58.672,159.23,87.611
	c0.128,1.937,0.451,2.763,0.176,3.249c-9.641,17.033-19.517,33.936-28.982,51.065c-12.545,22.702-8.23,42.824,11.417,54.945
	c18.326,11.306,40.958,4.725,54.027-16.26c11.002-17.665,21.41-35.699,32.706-54.614c26.671,14.622,51.941,28.477,78.069,42.802
	c-20.409,34.899-40.68,68.322-59.684,102.452c-15.167,27.239-0.236,56.951,28.984,59.159c18.747,1.417,30.216-9.734,39.018-24.627
	c19.572-33.115,39.156-66.222,58.49-98.919c20.832,4.887,35.975-1.076,50.058-14.169c43.755-40.677,87.94-80.899,132.398-120.808
	c49.5-44.436,99.826-88.382,135.021-145.628c45.246-73.594,88.89-148.19,132.234-222.929c22.18-38.245,21.784-78.752,5.693-119.315
	c-12.905-32.531-38.641-53.056-68.284-69.192C1352.387,822.941,1306.086,782.991,1238.032,756.814z M810.214,1384.411
	c34.354-58.936,68.378-118.065,102.946-176.874c78.89-134.21,157.706-268.466,237.277-402.273
	c22.962-38.612,9.395-83.89-49.142-98.941c-21.453,35.789-42.528,72.021-64.754,107.532c-9.697,15.494-31.185,20.671-46.912,13.633
	c-14.809-6.628-24.819-25.629-20.928-42.557c1.76-7.657,6.033-14.928,10.082-21.838c42.069-71.811,84.384-143.478,126.5-215.261
	c16.698-28.461,33.07-57.114,47.12-81.407c-3.889-25.392-13.082-39.723-33.354-42.975c-20.122-3.227-32.559,7.393-42.428,24.401
	c-36.304,62.566-73.515,124.606-110.278,186.906c-44.405,75.251-88.878,150.462-132.913,225.929
	c-10.189,17.462-22.969,27.847-44.411,25.397c-20.989-2.398-26.586-18.493-32.738-34.423c-8.511-22.04-15.416-44.852-25.748-65.994
	c-9.559-19.562-18.741-41.213-46.486-47.461c-11.311,8.427-23.565,17.556-31.481,23.454c9.087,56.505,19.267,108.154,25.378,160.281
	c12.127,103.446,0.481,206.096-14.96,308.38c-4.815,31.9-10.278,63.702-15.328,94.839c50.446,27.903,98.254,54.347,148.128,81.934
	C801.572,1398.029,806.156,1391.373,810.214,1384.411z M950.885,1472.14c38.46-65.132,76.711-130.388,115.128-195.546
	c66.292-112.434,132.527-224.902,199.091-337.175c19.807-33.409,19.334-60.601-4.99-83.059
	c-10.459-9.657-23.778-16.217-36.653-24.752c-120.91,205.549-240.114,408.196-360.1,612.174
	c26.396,14.72,50.407,28.109,76.457,42.636C944.399,1480.569,948.201,1476.685,950.885,1472.14z M1246.727,1230.835
	c32.298-59.958,69.263-117.392,103.669-176.231c18.239-31.191,10.781-62.09-19.268-78.897
	c-88.397,150.225-176.812,300.481-265.227,450.737C1133.312,1367.256,1203.227,1311.589,1246.727,1230.835z"/>
</svg>
