<?xml version="1.0" encoding="iso-8859-1"?>
<!-- Generator: Adobe Illustrator 19.0.0, SVG Export Plug-In . SVG Version: 6.00 Build 0)  -->
<svg version="1.1" id="Layer_1" xmlns="http://www.w3.org/2000/svg" xmlns:xlink="http://www.w3.org/1999/xlink" x="0px" y="0px"
	 viewBox="0 0 2000 2000" style="enable-background:new 0 0 2000 2000;" xml:space="preserve">
<path d="M389.058,1936.638c5.589-35.191,10.767-70.125,16.733-104.924c18.871-110.085,38.29-220.076,57.002-330.187
	c13.307-78.306,26.193-156.691,38.128-235.213c1.274-8.38-2.389-20.632-8.307-26.52c-99.585-99.091-200.378-196.968-299.855-296.167
	C134.393,885.425,77.868,825.376,20.755,766.406c38.458-5.724,80.22-11.876,121.962-18.165
	c127.421-19.198,254.809-38.616,382.262-57.596c50.311-7.492,100.849-13.511,151.063-21.571c8.352-1.341,19.197-7.923,22.778-15.123
	c61.226-123.096,121.449-246.69,181.977-370.133c39.161-79.867,78.457-159.668,120.068-244.331
	c26.616,53.771,50.892,102.35,74.763,151.127c75.157,153.573,149.952,307.325,225.814,460.548
	c3.979,8.038,15.916,15.49,25.174,17.024c68.028,11.274,136.239,21.54,204.546,31.017c84.016,11.656,168.318,21.296,252.237,33.581
	c67.131,9.827,133.875,22.304,199.641,33.411c-26.308,27.54-52.309,56.095-79.721,83.224
	c-125.288,123.998-249.538,249.11-377.523,370.272c-31.975,30.271-25.822,59.51-20.188,92.583
	c20.165,118.38,41.178,236.616,61.475,354.974c14.772,86.142,28.949,172.387,43.25,258.609c0.546,3.293-0.382,6.83-0.885,13.971
	c-38.483-20.232-75.107-39.241-111.509-58.665c-161.007-85.91-321.832-172.166-483.258-257.28
	c-8.401-4.429-23.636-3.071-32.507,1.617c-195.304,103.199-390.157,207.255-585.146,311.051
	C395.689,1937.262,393.639,1936.638,389.058,1936.638z"/>
</svg>
