<?xml version="1.0" encoding="iso-8859-1"?>
<!-- Generator: Adobe Illustrator 19.0.0, SVG Export Plug-In . SVG Version: 6.00 Build 0)  -->
<svg version="1.1" id="Layer_1" xmlns="http://www.w3.org/2000/svg" xmlns:xlink="http://www.w3.org/1999/xlink" x="0px" y="0px"
	 viewBox="0 0 500 500" style="enable-background:new 0 0 500 500;" xml:space="preserve">
<path id="XMLID_4_" d="M250.022,457.924c-53.754,0-107.508,0.028-161.263-0.022c-11.07-0.01-19.955-4.216-25.658-14.149
	c-16.409-28.581-32.758-57.198-49.336-85.681c-5.566-9.563-4.741-18.746,0.504-27.841c29.93-51.902,59.96-103.746,89.915-155.634
	c24.445-42.344,48.804-84.737,73.267-127.07c5.332-9.227,13.32-14.138,24.189-14.114c32.455,0.072,64.91,0.038,97.364,0.136
	c10.676,0.032,18.942,4.488,24.397,13.898c24.033,41.463,48.142,82.883,72.155,124.358c29.533,51.009,58.73,102.215,88.671,152.983
	c8.153,13.824,7.892,26.116-0.119,39.548c-15.458,25.917-30.559,52.052-45.439,78.306c-6.018,10.618-14.796,15.293-26.625,15.289
	C358.037,457.914,304.029,457.924,250.022,457.924z M136.853,343.801c76.144,0,150.896,0,227.077,0
	c-38.098-66.124-75.267-130.636-113.303-196.652C212.288,213.414,174.666,278.443,136.853,343.801z"/>
</svg>
