<?xml version="1.0" encoding="iso-8859-1"?>
<!-- Generator: Adobe Illustrator 19.0.0, SVG Export Plug-In . SVG Version: 6.00 Build 0)  -->
<svg version="1.1" id="Layer_1" xmlns="http://www.w3.org/2000/svg" xmlns:xlink="http://www.w3.org/1999/xlink" x="0px" y="0px"
	 viewBox="0 0 500 500" enable-background="new 0 0 500 500" xml:space="preserve">
<path d="M6,301.935c3.705-0.217,6.243-0.492,8.781-0.495c28.77-0.037,57.541,0.088,86.31-0.138
	c5.826-0.046,8.874,1.546,11.627,7.277c22.762,47.392,59.722,77.921,111.892,85.924c67.311,10.326,125.23-23.683,152.651-79.142
	c5.001-10.114,9.908-14.791,22.052-14.296c29.011,1.181,58.101,0.409,87.159,0.453c2.524,0.004,5.048,0.208,8.651,0.366
	c0,8.949,0.195,17.509-0.032,26.058c-1.278,47.992-2.412,95.99-4.129,143.967c-0.631,17.629-7.86,23.742-25.664,23.843
	c-15.248,0.086-30.498,0.115-45.744-0.041c-12.879-0.132-21.452-7.998-22.264-21.215c-0.775-12.621-0.477-25.305-0.941-37.951
	c-0.085-2.305-1.564-4.559-2.4-6.836c-2.027,1.271-4.561,2.124-6.006,3.875c-24.026,29.123-56.191,45.491-91.527,54.753
	c-74.06,19.41-140.895,0.947-200.796-44.252C48.447,408.49,20.086,360.255,6,301.935z M239.406,2.539
	C104.815,7.812,20.586,112.917,7.207,197.29c32.526,0,64.99,0.121,97.45-0.24c2.47-0.027,5.981-2.94,7.183-5.402
	c10.32-21.131,23.46-40.035,41.69-55.136c43.042-35.653,91.512-43.913,143.579-25.431c39.65,14.074,67.791,42.006,85.435,80.397
	c1.144,2.488,4.572,5.563,6.969,5.591c32.151,0.371,64.307,0.249,97.238,0.249C464.816,88.811,363.943-2.34,239.406,2.539z"/>
</svg>
