<?xml version="1.0" encoding="iso-8859-1"?>
<!-- Generator: Adobe Illustrator 19.0.0, SVG Export Plug-In . SVG Version: 6.00 Build 0)  -->
<svg version="1.1" id="Layer_1" xmlns="http://www.w3.org/2000/svg" xmlns:xlink="http://www.w3.org/1999/xlink" x="0px" y="0px"
	 viewBox="0 0 2000 2000" style="enable-background:new 0 0 2000 2000;" xml:space="preserve">
<path d="M1001.147,8.003c542.471-1.437,993.512,441.201,985.746,1001.557c-7.332,529.053-437.17,971.068-989.88,969.971
	C459.727,1978.465,2.953,1540.026,15.244,968.813C26.44,448.46,451.014,8.381,1001.147,8.003z M104.608,993.032
	c-0.441,499.193,401.515,887.792,873.986,897.1c524.425,10.331,903.137-405.458,918.468-860.106
	c8.799-260.944-78.944-486.794-263.533-671.055c-171.984-171.68-382.204-259.189-626.202-261.713
	C509.062,92.104,102.693,499.561,104.608,993.032z M1842.268,992.733c3.564,459.537-377.981,856.997-869.289,842.341
	c-179.905-5.367-343.245-63.159-484.7-175.04c-228.139-180.442-339.252-418.29-327.759-708.532
	c16.891-426.58,373.385-801.107,844.886-799.855C1464.638,152.866,1843.772,528.906,1842.268,992.733z M1444.27,992.827
	c-0.603-17.36-7.846-30.694-23.219-39.547c-41.321-23.795-82.519-47.804-123.818-71.638
	c-60.227-34.756-120.532-69.378-180.743-104.16c-50.616-29.239-101.099-58.707-151.727-87.925
	c-55.935-32.281-111.96-64.405-167.96-96.572c-31-17.807-69.539,6.028-69.51,42.919c0.189,238.883,0.086,477.766,0.121,716.65
	c0.003,18.015,8.097,32.02,23.25,41.204c15.697,9.513,32.18,8.878,47.97-0.214c53.896-31.032,107.626-62.354,161.508-93.41
	c76.172-43.902,152.469-87.586,228.629-131.509c77.046-44.434,153.987-89.05,230.978-133.579
	C1435.969,1025.664,1444.575,1011.905,1444.27,992.827z M1329.75,1653.842c-1.934,28.927,22.061,54.908,53.289,54.701
	c28.797-0.192,52.991-22.336,53.028-54.519c0.034-29.053-24.603-53.022-52.128-53.126
	C1353.68,1600.784,1329.249,1624.388,1329.75,1653.842z M672.257,1654.87c1.09-30.697-24.179-53.597-53.241-53.982
	c-28.806-0.382-52.484,24.072-53.051,51.978c-0.669,32.921,24.067,55.484,52.928,55.677
	C650.288,1708.753,673.661,1682.904,672.257,1654.87z M512.818,1631.572c30.48,2.487,51.575-30.232,51.187-53.216
	c-0.528-31.26-25.051-53.897-57.413-53.217c-26.726,0.562-50.847,26.354-49.888,53.344
	C457.836,1610.358,480.903,1632.18,512.818,1631.572z M416.938,1537.389c28.475-0.003,53.137-24.175,53.171-52.116
	c0.036-29.4-23.91-53.194-52.448-54.302c-28.587-1.11-54.971,21.594-55.315,53.479
	C362.023,1514.496,386.343,1537.392,416.938,1537.389z M921.37,241.638c0.005-29.368-23.92-53.912-52.582-53.941
	c-29.592-0.029-53.972,24.17-53.497,54.02c0.534,33.494,22.987,52.967,53.607,53.431C897.445,295.58,922.057,273.127,921.37,241.638
	z M792.73,276.854c2.405-29.65-24.884-54.381-52.593-54.471c-29.465-0.095-53.552,24.02-53.595,53.765
	c-0.047,33.109,25.751,54.176,53.42,53.844C770.318,329.628,793.862,305.991,792.73,276.854z M1531.9,503.614
	c0.08,27.894,25.655,54.163,54.498,52.954c30.08-1.26,53.144-21.995,53.013-53.945c-0.126-30.787-22.655-52.942-53.62-53.433
	C1556.602,448.728,1531.816,474.309,1531.9,503.614z M947.914,1758.577c0.016,28.23,24.535,52.421,53.139,52.427
	c28.937,0.006,53.293-24.311,52.978-53.481c-0.383-35.491-25.424-54.149-53.068-54.076
	C973.253,1703.521,948.155,1721.958,947.914,1758.577z M1584.746,1537.39c33.555,1.324,54.355-25.368,54.839-53.582
	c0.513-29.941-23.943-52.013-54.712-52.779c-24.382-0.607-53.107,22.615-52.996,53.93
	C1531.976,1513.056,1556.413,1537.384,1584.746,1537.39z M392.517,1374.867c1.98-28.43-22.868-52.55-53.095-53.131
	c-28.316-0.545-53.163,24.279-53.054,52.265c0.119,30.417,21.615,54.656,53.485,55.009
	C370.81,1429.352,395.485,1401.571,392.517,1374.867z M1315.457,276.126c0.008-29.304-23.769-53.58-52.617-53.722
	c-29.47-0.145-52.788,23.438-53.768,52.401c-1.058,31.279,23.609,55.271,52.96,55.174
	C1290.718,329.884,1315.705,308.21,1315.457,276.126z M1080.638,241.378c-0.668,30.237,21.516,53.109,51.214,53.705
	c27.396,0.55,53.976-15.718,54.83-53.232c0.677-29.75-23.557-53.852-53.144-54.157
	C1105.018,187.4,1080.636,212.144,1080.638,241.378z M1383.502,279.548c-30.808,0.009-52.542,21.706-54.091,50.687
	c-1.533,28.69,25.655,56.522,52.803,55.731c30.857-0.899,53.318-23.618,53.84-55.278
	C1436.48,304.882,1411.046,276.906,1383.502,279.548z M1492.05,1631.317c30.263-0.002,53.353-23.121,53.574-53.642
	c0.206-28.484-24.507-52.533-53.988-52.537c-29.668-0.004-53.576,23.716-53.593,53.801
	C1438.027,1608.435,1465.062,1633.876,1492.05,1631.317z M196.494,1125.645c-2.889,29.819,24.858,54.156,53.007,54.335
	c29.063,0.185,53.097-24.344,53.172-53.627c0.073-28.53-24.777-54.263-52.281-54.14
	C219.867,1072.35,196.497,1095.519,196.494,1125.645z M283.94,679.617c-30.075-0.151-51.711,21.536-53.263,50.483
	c-1.833,34.17,26.263,55.701,52.152,55.843c29.516,0.162,54.059-23.707,54.647-52.177
	C338.03,706.869,314.548,677.621,283.94,679.617z M470.108,503.815c0.285-28.898-24.155-54.512-52.601-54.713
	c-30.657-0.216-54.378,21.713-54.884,53.27c-0.476,29.733,20.583,53.343,52.787,53.968
	C446.959,556.953,468.17,533.068,470.108,503.815z M248.751,808.43c-28.349-3.468-52.169,26.346-52.825,50.579
	c-0.888,32.797,26.423,55.341,52.931,55.581c29.612,0.268,53.596-23.981,53.895-53.647
	C303.022,834.08,278.961,804.942,248.751,808.43z M1770.919,732.501c3.452-29.236-26.839-53.226-51.51-53.403
	c-32.168-0.231-54.486,27.112-54.759,52.334c-0.325,30.058,24.079,54.43,54.204,54.562
	C1745.256,786.11,1773.798,763.139,1770.919,732.501z M1805.597,1126.94c2.238-24.605-18.023-53.807-53.699-54.658
	c-27.265-0.65-52.584,25.355-52.563,53.808c0.021,29.187,23.992,53.647,52.885,53.963
	C1781.217,1180.37,1805.594,1156.114,1805.597,1126.94z M230.888,1254.782c-1.964,33.925,28.981,54.283,53.18,53.8
	c30.061-0.6,53.854-25.803,53.318-55.563c-0.504-27.936-25.946-52.49-54.565-52.101
	C252.273,1201.332,228.187,1228.722,230.888,1254.782z M1609.491,1374.711c-2.645,27.84,22.012,54.443,53.419,54.423
	c29.189-0.018,52.78-24.687,52.76-54.856c-0.019-28.509-23.899-52.389-52.85-52.419
	C1633.105,1321.829,1607.361,1346.551,1609.491,1374.711z M619.076,279.491c-29.827-2.265-51.407,25.729-53.212,48.529
	c-2.735,34.551,27.5,58.018,52.335,57.823c29.211-0.229,52.766-23.273,54.365-50.926
	C674.426,302.726,645.794,277.191,619.076,279.491z M1001.038,177.482c-29.667-3.952-54.472,28.1-53.441,51.962
	c1.302,30.158,23.76,54.203,53.311,54.217c29.656,0.014,53.188-23.906,53.186-54.063
	C1054.091,199.21,1031.971,177.482,1001.038,177.482z M1753.496,808.43c-30.358-3.559-54.525,25.366-54.227,53.079
	c0.312,28.999,24.481,53.332,53.548,53.069c27.322-0.247,53.938-22.84,53.28-55.273
	C1805.613,835.465,1782.278,805.046,1753.496,808.43z M1770.917,1255.478c3.746-26.746-21.96-54.563-52.08-54.513
	c-28.978,0.049-53.834,24.271-54.214,52.409c-0.406,29.992,24.651,55.561,54.646,55.256
	C1744.588,1308.372,1773.913,1285.243,1770.917,1255.478z M1261.75,1764.041c26.027,2.876,54.323-23.782,53.843-51.364
	c-0.548-31.537-22.757-54.805-53.545-54.815c-30.012-0.009-52.757,22.374-52.771,51.932
	C1209.263,1741.204,1231.344,1764.032,1261.75,1764.041z M1662.402,559.136c-31.528,0.047-53.131,22.044-53.106,54.077
	c0.022,28.572,24.044,52.29,52.953,52.284c29.37-0.006,53.539-24.492,53.422-54.123
	C1715.554,581.813,1692.384,559.092,1662.402,559.136z M392.658,610.739c1.89-29.021-26.477-52.991-53.601-51.964
	c-30.215,1.144-52.982,23.65-52.718,54.198c0.248,28.785,24.889,52.858,54.029,52.489
	C368.481,665.106,394.528,641.711,392.658,610.739z M1711.587,993.937c-2.436,30.262,29.329,53.862,51.895,53.519
	c29.749-0.452,54.247-24.048,54.284-53.259c0.038-30.483-22.776-53.687-53.043-53.95
	C1734.462,939.983,1711.591,963.093,1711.587,993.937z M739.237,1764.041c30.728,0.004,53.478-22.101,53.493-51.978
	c0.016-31.838-21.568-54.191-52.338-54.201c-30.903-0.01-53.845,23.021-53.841,54.049
	C686.555,1740.654,710.187,1764.037,739.237,1764.041z M509.399,461.733c29.814,0.275,54.255-23.007,54.637-52.045
	c0.388-29.504-23.717-54.372-52.89-54.561c-30.157-0.195-52.098,22.184-53.736,51.805
	C455.726,437.391,482.239,463.061,509.399,461.733z M1544.324,407.773c-0.098-29.932-22.835-52.664-52.656-52.646
	c-29.45,0.019-53.707,24.296-53.697,53.742c0.01,29.218,23.904,52.703,53.795,52.875
	C1522.325,461.919,1544.428,439.223,1544.324,407.773z M238.28,940.698c-31.766-1.229-52.924,23.733-53.875,49.499
	c-1.17,31.72,22.206,56.719,52.123,57.134c27.036,0.375,52.444-23.448,54.154-48.316
	C293.013,965.101,267.424,939.679,238.28,940.698z M921.37,1745.206c0-29.888-22.163-51.231-51.134-53.005
	c-31.06-1.902-55.156,27.64-55.445,53.018c-0.324,28.37,27.932,54.336,50.878,53.75
	C898.525,1798.131,921.369,1776.82,921.37,1745.206z M1080.638,1744.707c-0.011,31.079,22.562,53.028,53.095,54.345
	c26.007,1.123,53.818-24.928,53.228-53.296c-0.6-28.829-23.257-51.637-50.519-53.587
	C1105.53,1689.959,1078.035,1718.73,1080.638,1744.707z"/>
</svg>
