<?xml version="1.0" encoding="iso-8859-1"?>
<!-- Generator: Adobe Illustrator 19.0.0, SVG Export Plug-In . SVG Version: 6.00 Build 0)  -->
<svg version="1.1" id="Layer_1" xmlns="http://www.w3.org/2000/svg" xmlns:xlink="http://www.w3.org/1999/xlink" x="0px" y="0px"
	 viewBox="0 0 500 500" enable-background="new 0 0 500 500" xml:space="preserve">
<path d="M149.947,282.463c-35.634-0.766-67.591-7.784-95.451-27.443C25.198,234.346-3.262,191.105,8.869,147.43
	c9.652-34.75,33.686-56.448,67.509-66.256c53.662-15.56,124.977,3.816,159.012,66.074c8.04,14.708,16.462,29.207,24.199,42.9
	c22.197-8.833,43.6-17.678,65.24-25.896C378.975,143.692,457.821,176.34,484,229.31c22.579,45.685,10.064,97.103-40.076,122.465
	c-51.206,25.902-98.951,12.85-144.004-17.362c-3.679-2.467-7.04-5.407-11.35-8.749c-0.979,3.087-1.894,5.405-2.427,7.808
	c-0.553,2.492-0.737,5.067-1.293,9.158c-47.121-15.691-93.601-31.169-140.623-46.827
	C146.414,290.703,147.976,287.061,149.947,282.463z M276.997,229.823c10.674,19.095,20.609,37.589,31.215,55.689
	c22.058,37.646,73.925,47.856,103.495,36.205c30.081-11.853,46.009-42.69,35.952-70.62c-14.6-40.548-54.07-56.869-89.851-53.712
	C329.158,199.913,303.599,215.224,276.997,229.823z M223.664,210.158c-9.069-16.018-17.857-30.789-25.928-45.941
	c-19.526-36.655-50.497-51.718-91.089-49.4c-26.883,1.535-52.439,25.035-54.928,49.498c-5.567,54.714,50.98,82.188,91.423,78.625
	C171.974,240.4,196.812,225.029,223.664,210.158z M229.26,253.502c-11.33,5.354-22.706,10.73-35.253,16.659
	c23.966,7.826,46.327,15.128,70.83,23.129c-7.106-12.994-12.805-23.414-18.694-34.182
	C240.737,257.312,235.105,255.442,229.26,253.502z M341.135,94.816c-0.022-27.585-23.028-50.56-51.212-50.322
	c-25.906,0.219-47.579,22.905-47.677,49.904c-0.104,28.779,20.652,49.932,49.008,49.946
	C315.322,146.362,341.158,124.11,341.135,94.816z M135.913,321.422c0,15.106,0,27.737,0,40.769
	c39.04,12.91,77.225,25.537,116.413,38.496c7.74-10.714,15.139-20.956,23.689-32.792
	C228.402,352.101,182.938,337.02,135.913,321.422z M143.391,396.32c9.034,17.392,18.068,34.784,27.777,53.475
	c19.24-9.497,36.458-17.996,53.677-26.495c-0.15-1.058-0.299-2.116-0.449-3.174c-25.989-8.771-51.978-17.541-77.966-26.312
	C145.417,394.65,144.404,395.485,143.391,396.32z"/>
</svg>
