<?xml version="1.0" encoding="iso-8859-1"?>
<!-- Generator: Adobe Illustrator 19.0.0, SVG Export Plug-In . SVG Version: 6.00 Build 0)  -->
<svg version="1.1" id="Layer_1" xmlns="http://www.w3.org/2000/svg" xmlns:xlink="http://www.w3.org/1999/xlink" x="0px" y="0px"
	 viewBox="0 0 2000 2000" style="enable-background:new 0 0 2000 2000;" xml:space="preserve">
<path d="M1000.899,15.215c551.362,1.591,996.725,452.708,981.376,1016.755c-14.124,519.021-440.407,948.006-985.881,945.914
	c-542.411-2.08-979.21-437.11-976.91-979.066C21.795,454.4,455.715,17.49,1000.899,15.215z M1580.85,1384.141
	c-195.066-359.313-387.893-714.503-582.555-1073.073c-193.662,359.749-385.006,715.193-577.662,1073.073
	C808.953,1384.141,1192.767,1384.141,1580.85,1384.141z M1039.251,87.494c-2.172,2.175-4.343,4.349-6.515,6.524
	c248.086,457.192,496.171,914.385,747.5,1377.555c167.388-309.793,183.242-617.345,12.486-920.217
	C1628.84,260.672,1370.543,110.805,1039.251,87.494z M964.65,90.85c-269.908,3.204-611.477,156.106-785.285,514.564
	c-148.444,306.147-93.424,654.307,45.742,859.783C471.32,1007.641,717.045,550.994,964.65,90.85z M267.782,1525.73
	c-0.967,2.391-1.935,4.782-2.902,7.173c204.286,260.748,470.875,392.302,804.838,369.374
	c278.975-19.153,499.792-150.068,671.656-376.547C1245.743,1525.73,756.762,1525.73,267.782,1525.73z"/>
</svg>
