<?xml version="1.0" encoding="iso-8859-1"?>
<!-- Generator: Adobe Illustrator 19.0.0, SVG Export Plug-In . SVG Version: 6.00 Build 0)  -->
<svg version="1.1" id="Layer_1" xmlns="http://www.w3.org/2000/svg" xmlns:xlink="http://www.w3.org/1999/xlink" x="0px" y="0px"
	 viewBox="0 0 2000 2000" style="enable-background:new 0 0 2000 2000;" xml:space="preserve">
<path d="M1538.286,656.94c0-125.96,0-248.322,0-372.828c143.42,0,284.925,0,430.492,0c0,10.062-0.015,20.455,0.002,30.849
	c0.498,300.661,4.431,601.368,0.44,901.97c-3.334,251.106-123.915,435.196-347.673,547.062
	c-100.185,50.087-209.959,56.017-321.465,43.183c-123.264-14.186-216.503-61.053-300.877-127.473
	c-86.09,69.66-182.695,113.372-293.693,127.21c-209.877,26.164-386.813-37.088-528.773-192.786
	c-87.471-95.936-136.845-209.406-145.237-340.999c-9.721-152.431,24.29-290.486,121.783-410.154
	C246.523,748.529,364.31,675.391,511,649.44c142.895-25.279,278.691-9.398,405.656,63.698
	c22.556,12.986,44.963,26.912,64.982,43.388c13.557,11.158,20.566,9.933,34.192-0.198c87.513-65.07,185.721-101.026,294.669-113.458
	C1386.515,634.197,1460.128,640.714,1538.286,656.94z M780.282,1226.567c8.562-93.898-73.873-162.942-141.116-168.443
	c-113.971-9.326-178.062,81.688-180.376,164.211c-2.365,84.342,68.258,167.665,142.203,169.152
	C710.506,1393.689,777.975,1331.627,780.282,1226.567z M1217.135,1222.397c-1.094,90.828,64.778,164.838,143.206,169.936
	c106.948,6.952,175.143-74.212,176.928-160.099c1.913-92.025-55.727-164.624-148.706-173.777
	C1286.887,1048.449,1209.376,1139.959,1217.135,1222.397z"/>
</svg>
