<?xml version="1.0" encoding="iso-8859-1"?>
<!-- Generator: Adobe Illustrator 19.0.0, SVG Export Plug-In . SVG Version: 6.00 Build 0)  -->
<svg version="1.1" id="Layer_1" xmlns="http://www.w3.org/2000/svg" xmlns:xlink="http://www.w3.org/1999/xlink" x="0px" y="0px"
	 viewBox="0 0 500 500" enable-background="new 0 0 500 500" xml:space="preserve">
<path d="M473.362,247.885c0,28.86,0.032,57.721-0.013,86.581c-0.024,15.021-4.338,28.737-12.907,41.093
	c-4.74,6.835-10.499,12.703-17.413,17.294c-6.936,4.605-14.045,8.957-21.183,13.245c-9.464,5.685-19.008,11.24-28.558,16.781
	c-14,8.124-28.037,16.185-42.057,24.275c-9.563,5.518-19.109,11.066-28.69,16.554c-9.679,5.544-19.533,10.799-29.043,16.618
	c-7.196,4.402-14.812,7.718-22.843,9.935c-16.826,4.644-33.104,2.477-48.611-5.266c-6.662-3.327-13.055-7.193-19.562-10.829
	c-5.123-2.862-10.261-5.698-15.341-8.636c-5.926-3.427-11.772-6.991-17.695-10.423c-4.97-2.88-10.028-5.61-14.999-8.488
	c-7.822-4.528-15.586-9.156-23.41-13.68c-5.08-2.937-10.251-5.716-15.33-8.654c-5.926-3.427-11.772-6.991-17.699-10.417
	c-5.186-2.997-10.496-5.783-15.64-8.848c-6.947-4.139-14.092-8.039-20.618-12.776c-17.194-12.482-27.009-29.444-29.127-50.678
	c-0.401-4.02-0.55-8.08-0.552-12.121c-0.027-55.51-0.181-111.021,0.071-166.529c0.126-27.751,12.286-49.126,36.388-63.132
	c48.795-28.355,97.762-56.413,146.574-84.74c13.466-7.815,27.734-11.628,43.281-10.462c10.313,0.774,20.02,3.67,28.971,8.828
	c50.275,28.975,100.571,57.915,150.746,87.064c19.824,11.517,31.049,29.127,34.615,51.658c0.534,3.374,0.575,6.851,0.58,10.281
	c0.043,28.492,0.025,56.984,0.025,85.475C473.336,247.885,473.349,247.885,473.362,247.885z M457.583,249.326
	c0.015,0,0.029,0,0.044,0c0-28.988,0.044-57.976-0.015-86.963c-0.044-21.6-9.446-38.099-28.04-48.91
	c-49.42-28.734-98.946-57.286-148.516-85.761c-18.783-10.79-37.88-10.777-56.674,0.03c-49.75,28.609-99.499,57.221-149.074,86.129
	c-18.198,10.612-27.448,27.127-27.531,48.131c-0.226,57.115-0.189,114.232-0.027,171.347c0.061,21.455,9.487,37.941,27.975,49.035
	c6.415,3.849,12.942,7.512,19.421,11.253c43.238,24.97,86.414,50.049,129.745,74.857c18.419,10.545,37.281,10.539,55.708-0.037
	c49.674-28.508,99.293-57.115,148.8-85.913c18.542-10.785,28.131-27.179,28.171-48.815
	C457.622,305.582,457.583,277.454,457.583,249.326z M446.187,247.744c0,24.687,0.021,49.373-0.008,74.06
	c-0.018,15.629-4.539,29.718-14.642,41.817c-4.764,5.705-10.414,10.374-16.862,14.093c-43.344,24.995-86.625,50.099-130.039,74.973
	c-20.982,12.021-42.399,12.168-63.397,0.178c-43.779-24.999-87.499-50.107-130.993-75.597c-20.2-11.838-30.609-30.202-30.748-53.602
	c-0.3-50.477-0.314-100.958-0.01-151.435c0.139-23.055,10.229-41.32,30.121-53.179c27.905-16.637,56.206-32.609,84.341-48.859
	c15.502-8.953,30.969-17.967,46.53-26.817c21.27-12.097,42.812-12.378,64.044-0.232c43.228,24.728,86.278,49.767,129.402,74.677
	c17.18,9.924,27.706,24.596,31.179,44.148c0.747,4.204,0.994,8.544,1.01,12.822c0.092,24.318,0.045,48.636,0.045,72.954
	C446.169,247.744,446.178,247.744,446.187,247.744z M325.665,166.275c-3.891,3.73-7.91,7.582-11.656,11.173
	c3.952,4.118,7.798,8.126,11.137,11.604c4.142-3.824,8.163-7.534,12.193-11.255C333.324,173.834,329.434,169.995,325.665,166.275z
	 M362.342,130.107c-4.034,3.753-8.112,7.546-11.974,11.138c3.907,4.049,7.7,7.98,11.698,12.123
	c4.041-4.135,7.884-8.068,11.581-11.851C369.696,137.529,365.751,133.547,362.342,130.107z M319.276,341.926
	c-4.148-4.148-8.075-8.076-11.425-11.428c-4.142,3.881-8.191,7.674-12.133,11.368c3.858,3.984,7.671,7.923,11.478,11.854
	C311.302,349.711,315.287,345.82,319.276,341.926z M325.319,371.397c4.026-3.767,8.017-7.501,12.068-11.291
	c-4.106-3.961-8.049-7.765-12.149-11.72c-3.692,3.684-7.648,7.632-11.335,11.311C317.919,363.814,321.746,367.736,325.319,371.397z
	 M143.801,348.246c-4.24,4.148-8.142,7.965-11.501,11.25c3.847,4.064,7.605,8.034,10.97,11.588
	c3.973-3.636,7.989-7.312,12.136-11.108C151.339,355.866,147.57,352.056,143.801,348.246z M161.648,353.569
	c4.008-3.987,7.95-7.909,11.797-11.736c-3.966-4.031-7.867-7.995-11.263-11.447c-4.181,3.802-8.302,7.549-12.372,11.25
	C153.893,345.752,157.752,349.642,161.648,353.569z M350.049,323.389c4.126,4.087,8.074,7.999,11.395,11.289
	c4.156-3.8,8.26-7.553,11.909-10.89c-3.856-4.099-7.607-8.086-11.204-11.909C358.048,315.781,354.084,319.551,350.049,323.389z
	 M355.784,159.732c-4.248-4.297-8.099-8.193-11.891-12.028c-4.065,4.011-7.959,7.853-11.674,11.518
	c3.97,4.007,7.867,7.942,11.902,12.016C347.945,167.466,351.774,163.688,355.784,159.732z M343.435,317.015
	c4.208-4.191,8.074-8.041,11.627-11.579c-3.793-3.921-7.595-7.851-10.944-11.314c-4.047,3.785-8.03,7.509-11.832,11.063
	C336.087,309.219,339.765,313.121,343.435,317.015z M271.461,293.6c-4.314,4.306-8.167,8.151-11.757,11.735
	c3.708,3.764,7.531,7.645,11.525,11.699c3.831-3.854,7.722-7.768,11.586-11.654C278.743,301.155,275.031,297.304,271.461,293.6z
	 M179.861,334.494c3.767-3.457,7.852-7.207,11.573-10.622c-3.998-4.221-7.749-8.181-11.348-11.981
	c-4.044,3.885-7.98,7.668-11.992,11.524C172.161,327.244,176.148,330.998,179.861,334.494z M191.537,141.015
	c-3.806-3.862-7.645-7.757-10.988-11.148c-4.19,4.034-8.183,7.879-12.044,11.595c3.736,3.786,7.503,7.602,11.418,11.57
	C183.724,149.098,187.514,145.178,191.537,141.015z M205.246,177.463c3.636,3.934,7.348,7.95,10.679,11.554
	c4.094-3.806,8.058-7.492,12.018-11.173c-4.02-3.983-7.878-7.806-11.762-11.654C212.433,170.053,208.699,173.903,205.246,177.463z
	 M325.401,153.075c4.144-4.04,8.054-7.852,11.847-11.55c-4.107-3.925-8.117-7.755-12.054-11.517
	c-3.59,3.56-7.478,7.415-11.252,11.157C317.78,145.153,321.633,149.158,325.401,153.075z M306.878,280.329
	c4.189-3.998,8.124-7.753,11.89-11.347c-3.985-4.01-7.811-7.859-11.506-11.576c-3.854,3.831-7.663,7.616-11.539,11.469
	C299.538,272.792,303.344,276.701,306.878,280.329z M198.659,330.492c-4.152,3.823-8.25,7.596-12.315,11.339
	c3.976,4.061,7.83,7.998,11.633,11.882c4.102-4.091,8.043-8.021,12.054-12.021C206.027,337.749,202.12,333.901,198.659,330.492z
	 M143.908,166.47c-4.08,3.907-8.076,7.734-11.59,11.099c3.782,3.964,7.54,7.902,10.786,11.303c4.057-3.648,8.11-7.293,12.323-11.081
	C151.267,173.702,147.398,169.9,143.908,166.47z M162.092,147.836c-4.312,4.085-8.291,7.856-12.259,11.615
	c4.051,4.069,7.913,7.948,11.762,11.815c4.008-4.01,7.931-7.936,11.889-11.897C169.613,155.451,165.772,151.562,162.092,147.836z
	 M173.073,305.5c-3.805-4.015-7.616-8.037-11.063-11.674c-4.163,3.931-8.134,7.681-11.712,11.06
	c3.929,4.142,7.697,8.116,11.407,12.027C165.651,312.952,169.51,309.078,173.073,305.5z M143.703,311.944
	c-4.112,4.026-7.989,7.821-11.345,11.107c3.835,4.022,7.659,8.031,11.62,12.185c3.745-3.826,7.548-7.711,11.667-11.918
	C151.436,319.309,147.567,315.625,143.703,311.944z M205.384,323.58c3.546,3.657,7.35,7.582,11.335,11.691
	c3.778-3.835,7.65-7.766,11.352-11.524c-4.102-4.196-7.835-8.014-11.652-11.92C212.587,315.909,208.841,319.898,205.384,323.58z
	 M168.443,359.663c3.967,3.757,7.989,7.566,12.088,11.448c3.249-3.268,7.099-7.141,11.191-11.256
	c-3.894-3.88-7.834-7.805-11.894-11.85C175.922,352.004,172.165,355.852,168.443,359.663z M180.042,202.628
	c-3.981,3.922-7.865,7.749-11.559,11.389c3.833,3.924,7.637,7.82,11.169,11.436c3.977-3.684,7.953-7.366,12.102-11.209
	C187.641,210.165,183.774,206.33,180.042,202.628z M350.071,177.54c4.245,4.262,8.092,8.124,11.692,11.739
	c3.958-4.011,7.862-7.967,11.503-11.656c-3.627-3.756-7.433-7.697-11.198-11.595C358.069,169.865,354.129,173.646,350.071,177.54z
	 M350.254,359.504c4.156,4.234,8.023,8.174,11.803,12.026c3.908-3.853,7.784-7.675,11.496-11.334
	c-3.891-4.055-7.743-8.069-11.446-11.927C357.984,352.177,354.022,355.933,350.254,359.504z M277.478,323.731
	c3.89,3.803,7.806,7.631,11.478,11.221c4.002-3.671,8.118-7.448,11.985-10.995c-4.176-4.268-8.006-8.183-11.792-12.052
	C285.304,315.802,281.527,319.629,277.478,323.731z M331.958,341.583c4.032,4.113,7.841,7.999,11.607,11.841
	c4.087-3.931,8.075-7.766,12.228-11.76c-4.182-4.159-8.105-8.062-11.889-11.825C339.694,333.979,335.874,337.734,331.958,341.583z
	 M253.043,275.625c-4.032,3.895-7.974,7.705-11.739,11.343c3.934,3.944,7.784,7.804,11.772,11.802
	c3.826-3.856,7.644-7.704,11.596-11.687C260.459,282.932,256.641,279.171,253.043,275.625z M337.933,323.314
	c-2.409-2.218-4.51-4.092-6.54-6.04c-1.966-1.885-3.86-3.846-5.775-5.763c-4.284,4.222-8.114,7.997-12.117,11.942
	c4.122,3.995,8.135,7.883,12.059,11.686C329.428,331.443,333.377,327.668,337.933,323.314z M179.684,165.865
	c-3.936,3.989-7.823,7.929-11.663,11.821c4.185,4.19,7.981,7.991,11.314,11.329c4.068-3.757,8.133-7.511,12.232-11.296
	C187.582,173.745,183.727,169.899,179.684,165.865z M264.531,178.915c-4.096-3.784-8.122-7.502-12.062-11.141
	c-3.537,3.426-7.526,7.289-11.309,10.953c4.011,4.147,7.801,8.066,11.342,11.728C256.53,186.591,260.417,182.863,264.531,178.915z
	 M235.206,293.732c-4.399,4.173-8.353,7.925-12.043,11.426c3.84,4.005,7.607,7.934,11.546,12.044
	c3.967-4.002,7.854-7.924,11.711-11.815C242.365,301.172,238.654,297.315,235.206,293.732z M289.266,189.615
	c3.913-3.971,7.785-7.9,11.324-11.491c-4.141-4.219-7.939-8.09-10.993-11.201c-3.944,3.766-7.877,7.52-11.762,11.229
	C281.462,181.789,285.242,185.58,289.266,189.615z M216.259,261.627c3.818-3.567,7.714-7.207,11.518-10.762
	c-4.034-4.01-7.867-7.82-11.784-11.714c-3.676,3.812-7.397,7.672-10.892,11.298C208.742,254.096,212.598,257.959,216.259,261.627z
	 M168.582,286.834c3.821,3.945,7.603,7.849,10.892,11.244c3.999-3.654,8.007-7.316,11.88-10.855
	c-3.897-4.134-7.62-8.082-10.983-11.65C176.176,279.581,172.227,283.352,168.582,286.834z M235.025,184.438
	c-4.15,4.009-8.077,7.802-11.775,11.375c3.712,3.908,7.463,7.857,11.236,11.829c4.041-3.986,7.924-7.816,11.677-11.518
	C242.228,191.996,238.455,188.037,235.025,184.438z M161.585,207.488c4.071-3.931,8.004-7.729,11.426-11.034
	c-3.795-4.15-7.484-8.185-11.145-12.188c-4.061,4.028-7.945,7.88-11.947,11.849C153.833,199.93,157.76,203.759,161.585,207.488z
	 M209.817,159.527c-3.91-3.921-7.809-7.832-11.387-11.42c-4.084,3.851-8.059,7.599-11.788,11.115
	c4.025,4.052,7.877,7.93,11.837,11.916C202.134,167.395,205.935,163.503,209.817,159.527z M143.45,129.668
	c-4,3.965-7.861,7.793-11.422,11.322c3.848,4.032,7.618,7.983,11.369,11.913c4.082-3.859,8.027-7.589,12.053-11.395
	C151.28,137.394,147.475,133.64,143.45,129.668z M301.073,250.802c-4.197-4.128-8.077-7.944-11.64-11.448
	c-3.985,3.773-7.941,7.518-11.897,11.264c3.933,3.946,7.782,7.807,11.286,11.323C292.892,258.241,296.937,254.563,301.073,250.802z
	 M252.702,202.862c-3.814,3.746-7.64,7.503-11.36,11.157c3.888,3.906,7.728,7.764,11.28,11.331
	c3.946-3.646,7.877-7.277,12.006-11.092C260.462,210.277,256.584,206.572,252.702,202.862z M325.026,225.522
	c4.255-3.924,8.247-7.605,12.326-11.367c-4.098-3.931-7.959-7.635-11.986-11.498c-3.73,3.732-7.593,7.596-11.808,11.813
	C317.517,218.285,321.368,221.996,325.026,225.522z M313.58,287.084c4.23,4.176,8.093,7.989,11.667,11.518
	c4.255-3.98,8.157-7.631,11.985-11.211c-4.114-4.019-8-7.816-12.026-11.749C321.524,279.266,317.708,283.022,313.58,287.084z
	 M319.087,159.765c-4.193-4.311-7.976-8.2-11.169-11.482c-4.205,3.89-8.211,7.597-11.457,10.6
	c3.743,4.125,7.389,8.144,11.153,12.292C311.462,167.348,315.249,163.582,319.087,159.765z M198.127,243.884
	c3.791-3.821,7.63-7.69,11.563-11.654c-3.81-3.853-7.636-7.722-11.284-11.411c-4.083,3.937-8.018,7.732-11.897,11.472
	C190.483,236.256,194.351,240.116,198.127,243.884z M344.306,184.542c-4.227,4.084-8.138,7.863-11.589,11.198
	c3.716,3.951,7.435,7.907,10.947,11.642c4.071-3.899,8.004-7.667,11.603-11.114C351.407,192.139,347.739,188.215,344.306,184.542z
	 M179.508,261.578c3.915-3.582,7.94-7.265,11.936-10.919c-4.001-3.998-7.789-7.782-11.393-11.384
	c-3.912,3.782-7.825,7.565-11.671,11.283C172.252,254.393,176.068,258.171,179.508,261.578z M252.555,310.602
	c-3.762,3.733-7.686,7.628-11.501,11.414c4.009,4.232,7.805,8.239,11.242,11.867c4.231-4.013,8.187-7.764,12.151-11.524
	C260.443,318.401,256.562,314.564,252.555,310.602z M336.37,250.483c-4.058-3.963-7.936-7.749-11.398-11.129
	c-4.185,3.951-8.055,7.604-12.039,11.365c3.944,3.767,7.806,7.455,11.79,11.26C328.397,258.353,332.267,254.532,336.37,250.483z
	 M186.64,268.745c3.902,4.015,7.717,7.941,11.312,11.64c3.999-3.894,7.91-7.702,11.864-11.553c-3.94-3.97-7.779-7.84-11.63-11.72
	C194.262,261.066,190.403,264.954,186.64,268.745z M259.728,195.898c3.683,3.725,7.529,7.614,11.262,11.39
	c3.86-3.815,7.726-7.638,11.363-11.233c-3.804-4.039-7.478-7.94-11.121-11.808C267.179,188.351,263.339,192.24,259.728,195.898z
	 M307.475,244.219c3.985-3.997,7.821-7.844,11.799-11.835c-4.178-4.2-7.961-8.003-11.582-11.642
	c-4.072,4.05-7.947,7.903-11.743,11.677C299.692,236.25,303.431,240.079,307.475,244.219z"/>
</svg>
