<?xml version="1.0" encoding="iso-8859-1"?>
<!-- Generator: Adobe Illustrator 19.0.0, SVG Export Plug-In . SVG Version: 6.00 Build 0)  -->
<svg version="1.1" id="Layer_1" xmlns="http://www.w3.org/2000/svg" xmlns:xlink="http://www.w3.org/1999/xlink" x="0px" y="0px"
	 viewBox="0 0 500 500" style="enable-background:new 0 0 500 500;" xml:space="preserve">
<path id="XMLID_4_" d="M104.397,340.267c28.8-29.16,59.112-59.85,88.86-89.97c-30.067-30.705-60.347-61.628-90.23-92.144
	c18.239-18.673,36.171-37.032,54.763-56.066c31.078,30.762,61.834,61.204,93.614,92.662c30.498-31.408,60.513-62.32,90.68-93.388
	c19.474,20.252,37.375,38.869,54.925,57.121c-28.711,29.26-58.902,60.03-88.505,90.2c30.288,30.653,60.726,61.457,90.646,91.738
	c-18.972,19.222-37.119,37.608-56.177,56.917c-30.205-30.799-60.537-61.726-91.289-93.082
	c-31.348,31.933-61.555,62.704-91.201,92.904C141.114,377.511,122.999,359.136,104.397,340.267z M290.125,358.084
	c-12.985,13.224-26.187,26.668-40.277,41.017c-13.545-13.547-26.881-26.886-40.314-40.322c-14.769,15.015-29.6,30.092-42.941,43.656
	c27.973,28.571,56.337,57.541,85.075,86.892c28.298-28.826,56.577-57.633,83.407-84.963
	C320.85,389.717,306.016,374.445,290.125,358.084z M335.314,96.494c-27.563-28.068-55.962-56.986-84.579-86.128
	c-28.541,29.032-56.929,57.907-84.029,85.473c14.063,14.636,28.687,29.856,43.949,45.741c13.371-13.521,26.613-26.911,40.736-41.193
	c13.717,13.998,26.906,27.457,40.132,40.955C306.731,125.766,321.499,110.642,335.314,96.494z"/>
</svg>
