<?xml version="1.0" encoding="iso-8859-1"?>
<!-- Generator: Adobe Illustrator 19.0.0, SVG Export Plug-In . SVG Version: 6.00 Build 0)  -->
<svg version="1.1" id="Layer_1" xmlns="http://www.w3.org/2000/svg" xmlns:xlink="http://www.w3.org/1999/xlink" x="0px" y="0px"
	 viewBox="-64 66 370 370" style="enable-background:new -64 66 370 370;" xml:space="preserve">
<path transform="translate(0.000000,370.000000) scale(0.100000,-0.100000)" d="M103.182,2015.653
	c-142.108-30.935-284.217-106.34-397.324-209.779c-169.177-156.609-265.849-375.089-265.849-606.136
	c-0.967-232.014,72.504-415.691,231.047-581.968c143.075-149.842,313.219-234.914,520.098-259.082
	c195.278-23.201,371.222,19.334,542.332,131.474c93.772,61.87,341.254,313.219,341.254,347.054c0,3.867-25.135,42.536-57.037,87.005
	l-56.07,81.205l-51.236-63.804c-235.881-293.884-416.658-400.224-660.273-386.69C26.811,567.5-163.634,684.474-277.707,878.785
	c-59.937,102.473-83.138,190.445-83.138,316.119c0.967,151.776,38.669,262.949,129.541,384.756
	c149.842,201.079,424.392,299.684,663.173,238.781c219.446-56.07,379.923-212.679,700.875-686.374
	c174.01-256.182,261.016-367.355,381.856-489.162c148.875-150.809,267.783-226.213,415.691-265.849
	c91.839-25.135,285.184-29.968,377.022-9.667c201.079,44.469,386.69,164.343,508.497,326.753
	c52.203,70.571,104.406,161.443,105.373,183.678c0,7.734-29.969,11.601-105.373,11.601h-104.406l-36.736-53.17
	c-87.972-127.608-239.748-232.014-392.49-268.749c-73.471-18.368-198.178-20.301-271.649-4.834
	c-218.48,46.403-417.625,236.847-713.442,680.574c-155.643,233.947-277.45,390.557-396.357,507.53
	c-130.508,128.574-235.881,199.145-365.422,244.581c-76.371,27.068-96.672,29.969-224.28,32.869
	C212.422,2030.154,150.552,2026.287,103.182,2015.653z M1937.058,2011.786c-79.271-21.268-178.844-68.637-267.783-128.574
	c-67.671-45.436-225.247-200.112-284.217-279.383l-41.569-55.103l57.037-82.172c30.935-45.436,58.003-82.172,60.904-82.172
	c2.9,0,17.401,15.468,31.902,35.769c251.348,332.553,487.229,458.227,760.812,404.091
	c214.613-41.569,404.091-195.278,483.362-392.49c14.501-34.802,29.002-79.271,32.869-98.606l6.767-36.736h-402.157h-401.191
	v-101.506v-101.506h501.73h500.763l5.8,47.369c13.534,117.94-23.201,304.518-86.038,429.226
	c-87.005,173.044-261.982,331.586-448.56,406.024C2302.479,2033.054,2080.133,2048.521,1937.058,2011.786z"/>
</svg>
