<?xml version="1.0" encoding="iso-8859-1"?>
<!-- Generator: Adobe Illustrator 19.0.0, SVG Export Plug-In . SVG Version: 6.00 Build 0)  -->
<svg version="1.1" id="Layer_1" xmlns="http://www.w3.org/2000/svg" xmlns:xlink="http://www.w3.org/1999/xlink" x="0px" y="0px"
	 viewBox="0 0 500 500" enable-background="new 0 0 500 500" xml:space="preserve">
<path d="M494.957,224.117c0,2.871,0,5.742,0,8.613c-0.492,2.312-0.991,4.623-1.475,6.936c-3.476,16.601-12.281,30.263-23.636,42.447
	c-18.198,19.527-40.311,33.619-64.112,45.14c-53.512,25.902-110.501,38.118-169.459,42.202c-26.929,1.865-53.831,1.28-80.671-1.765
	c-26.197-2.972-51.861-8.268-76.551-17.683c-17.057-6.505-33.181-14.762-47.107-26.781C19.22,312.243,9.619,299.24,6.385,282.303
	c-0.534-2.796-0.955-5.613-1.428-8.42c0-1.276,0-2.552,0-3.828c0.25-1.074,0.649-2.138,0.727-3.225
	c0.561-7.892,2.802-15.329,6.123-22.448c6.865-14.713,17.267-26.686,29.342-37.294c18.968-16.665,40.583-29.119,63.536-39.331
	c50.199-22.333,103.116-33.345,157.663-37.248c24.037-1.72,48.085-1.475,72.116,0.689c26.419,2.38,52.374,6.989,77.555,15.467
	c18.356,6.18,35.822,14.196,51.267,26.09c12.318,9.486,22.568,20.71,27.782,35.683C492.83,213.501,493.686,218.881,494.957,224.117z
	 M349.746,279.862c-4.049,1.567-7.272,2.9-10.553,4.067c-14.189,5.048-28.62,9.049-43.875,7.86
	c-5.827-0.454-11.806-1.217-17.307-3.059c-8.018-2.684-11.607-11.789-8.442-19.693c1.314,0,2.74,0.052,4.162-0.008
	c13.852-0.589,27.743-0.727,41.542-1.926c14.788-1.285,28.672-5.897,40.965-14.53c6.252-4.391,11.282-9.93,14.043-17.143
	c3.343-8.735,4.969-17.843,4.014-27.193c-1.394-13.65-8.254-23.577-21.07-28.925c-3.35-1.398-6.94-2.494-10.523-3.017
	c-27.692-4.044-52.012,3.342-72.923,21.947c-0.798,0.71-1.604,1.41-2.696,2.369c-4.965-9.001-12.175-14.959-21.209-18.85
	c-8.314-3.581-17.024-5.325-26.015-5.48c-14.562-0.25-28.905,2.04-43.233,4.26c-6.243,0.967-12.43,2.301-18.68,3.476
	c-1.983,11.547-3.874,22.558-5.85,34.069c1.433-0.493,2.062-0.635,2.622-0.913c17.114-8.514,35.178-11.95,54.228-10.245
	c5.905,0.528,11.76,1.277,16.985,4.315c6.372,3.705,8.954,11.02,6.379,17.492c-10.834,0.365-21.665,0.528-32.47,1.147
	c-11.931,0.684-23.845,1.751-35.265,5.705c-10.552,3.654-20.133,8.873-27.382,17.618c-8.177,9.865-10.753,21.644-10.277,34.001
	c0.748,19.429,11.41,31.269,30.507,34.748c9.681,1.764,19.392,1.099,29.042-0.25c15.334-2.143,29.183-7.765,40.828-18.227
	c2.011-1.806,3.915-3.73,6.414-6.123c0.348,0.645,0.595,1.249,0.964,1.766c8.873,12.437,21.225,18.911,36.121,20.927
	c13.802,1.868,27.673,2.36,41.478,0.474c10.215-1.396,20.321-3.587,30.594-5.445C345.177,303.245,347.368,292.034,349.746,279.862z
	 M140.299,461.041c12.7,15.846,28.938,24.588,49.573,24.301c10.68-0.148,20.781-2.882,30.503-7.079
	c17.039-7.357,31.663-18.297,45.072-30.944c24.341-22.956,43.436-49.921,59.948-78.839c0.362-0.634,0.591-1.345,1.07-2.456
	c-9.172,1.882-17.876,3.602-26.539,5.51c-1.481,0.326-2.847,1.362-4.163,2.226c-16.653,10.938-33.834,20.959-51.668,29.849
	c-29.028,14.47-59.072,26.124-90.992,32.446c-8.22,1.628-16.546,2.719-25.181,4.115
	C130.991,447.837,135.221,454.706,140.299,461.041z M42.416,367.62c1.37,14.221,6.75,26.783,16.999,37.012
	c12.806,12.78,28.867,18.225,46.324,20.409c20.518,2.567,40.716,0.181,60.717-4.368c37.158-8.45,71.462-23.884,104.247-42.968
	c0.811-0.472,1.495-1.163,1.623-1.264c-18.943,1.226-38.315,2.895-57.722,3.632c-25.042,0.951-50.032-0.302-74.902-3.661
	c-25.171-3.399-49.865-8.749-73.637-17.831c-7.849-2.999-15.494-6.531-23.748-10.038C42.317,355.257,41.825,361.491,42.416,367.62z
	 M199.284,128.51c1.789-0.401,3.506-1.442,5.073-2.469c22.283-14.608,45.467-27.578,69.823-38.407
	c26.865-11.945,54.562-21.234,83.702-25.809c4.645-0.729,9.325-1.239,14.045-1.857c-2.305-7.094-8.17-16.792-14.749-24.145
	c-16.318-18.238-36.554-24.627-60.42-19.665c-15.249,3.17-28.69,10.327-41.263,19.237c-22.105,15.664-39.95,35.528-55.898,57.211
	c-9.537,12.966-18.17,26.518-26.324,41.338C182.514,132.035,190.924,130.384,199.284,128.51z M276.952,119.98
	c34.327-1.391,68.522,0.21,102.397,6.466c25.629,4.733,50.528,11.777,74.066,23.182c1.242,0.602,2.516,1.139,4.008,1.81
	c1.54-6.85,0.944-13.351,0.174-19.825c-1.858-15.634-8.192-29.028-20.24-39.429c-12.28-10.601-26.988-15.329-42.757-17.311
	c-20.678-2.598-41.034-0.215-61.195,4.375c-37.003,8.423-71.158,23.805-103.831,42.762c-0.943,0.547-1.784,1.268-2.4,1.711
	C243.643,122.448,260.275,120.655,276.952,119.98z M275.484,241.498c11.972,1.024,23.897,0.293,35.744-1.404
	c4.785-0.686,9.146-2.836,12.4-6.64c4.892-5.718,5.94-12.22,3.369-19.209c-2.449-6.659-8.218-8.356-14.469-9.148
	c-0.472-0.06-0.955-0.043-1.433-0.056c-20.316-0.529-36.569,15.023-37.213,35.946C274.607,241.224,275.037,241.46,275.484,241.498z
	 M189.139,258.848c-6.023,1.352-10.726,4.727-13.814,10.171c-5.492,9.683-1.936,19.623,8.72,22.907
	c11.014,3.394,21.445,1.262,29.754-6.687c7.818-7.479,10.529-17.816,13.428-28.406C214.098,256.54,201.531,256.065,189.139,258.848z
	"/>
</svg>
