<?xml version="1.0" encoding="utf-8"?>
<!-- Generator: Adobe Illustrator 25.1.0, SVG Export Plug-In . SVG Version: 6.00 Build 0)  -->
<svg version="1.1" id="aergo" xmlns="http://www.w3.org/2000/svg" xmlns:xlink="http://www.w3.org/1999/xlink" x="0px" y="0px"
	 viewBox="0 0 500 500" style="enable-background:new 0 0 500 500;" xml:space="preserve">
<g>
	<path d="M373.1,238c-12.8,12.2-60.9,35-104.1,51.8c-1.9-2.9-3.7-5.7-5.4-8.4c-2.4-3.9-5-7.9-7.7-12
		c-19.3-29.6-39.2-60.3-39.2-106.7c0-20.6,8.5-42.2,22.7-57.7l-52.6-48.3c-26.4,28.8-41.5,67.4-41.5,106
		c0,67.6,29.3,112.7,50.7,145.6c1.3,2.1,2.6,4.1,3.9,6.1c-59.8,21.8-118.6,48.5-145.5,85.7C18.2,450.2,21.7,488,22.2,493l71.1-0.1
		c0-0.2-1-23.2,19-50.9c18.4-25.5,87-51.8,128.1-66.2c10.4,15.7,19.9,31,22.9,38.6c1,2.5,2,5.1,3.1,7.8
		c7.8,19.7,17.6,44.1,17.6,73.1h71.4c0-42.7-13.7-76.9-22.6-99.5c-1-2.5-1.9-4.9-2.8-7.2c-4.1-10.5-11.6-23.5-20.8-38
		c40.1-16.3,90.8-39.8,113-60.8L373.1,238z"/>
	<path d="M434.2,55.5C404,22.2,362.5,3.8,317.4,3.8c-68,0-108.6,28.7-130.7,52.8l52.6,48.3c18-19.6,44.2-29.6,78-29.6
		c42.4,0,88.2,34.3,88.2,89.8c0,39.1-13.4,54.8-32.4,72.8l49.1,51.8c28.4-26.9,54.7-60.6,54.9-124.7
		C477.1,125.5,461.4,85.6,434.2,55.5z"/>
</g>
</svg>
