<?xml version="1.0" encoding="iso-8859-1"?>
<!-- Generator: Adobe Illustrator 19.0.0, SVG Export Plug-In . SVG Version: 6.00 Build 0)  -->
<svg version="1.1" id="Layer_1" xmlns="http://www.w3.org/2000/svg" xmlns:xlink="http://www.w3.org/1999/xlink" x="0px" y="0px"
	 viewBox="0 0 500 500" style="enable-background:new 0 0 500 500;" xml:space="preserve">
<path id="XMLID_4_" d="M230.795,17.461c-0.946,1.406-2.301,4.028-4.214,6.145c-5.608,6.205-11.702,11.985-17.127,18.34
	c-11.155,13.067-20.714,27.331-25.454,43.949c-10.989,38.521-4.457,73.302,23.471,103.215
	c15.368,16.459,34.996,26.902,53.428,39.095c15.683,10.374,31.621,20.474,46.495,31.93c18.448,14.209,32.888,31.996,41.823,53.869
	c9.138,22.371,12.298,45.336,8.961,69.422c-1.536,11.085-4.078,21.765-7.931,32.14c-7.893,21.253-21.91,38.219-38.767,52.882
	c-6.944,6.04-14.764,11.076-22.229,16.509c-1.691,1.23-3.562,2.213-5.351,3.307c-2.851,1.743-5.731,1.947-8.244-0.443
	c-2.096-1.993-1.779-5.985,0.985-8.887c5.972-6.269,12.332-12.17,18.267-18.472c12.457-13.228,22.583-28.103,28.104-45.481
	c10.677-33.609,7.544-65.678-12.905-95.12c-6.345-9.136-14.495-16.812-23.681-23.002c-15.576-10.496-31.611-20.308-47.382-30.517
	c-14.809-9.586-30.332-18.298-44.103-29.21c-22.661-17.956-40.23-40.324-47.372-68.968c-9.061-36.34-5.401-71.501,14.611-103.727
	c8.672-13.965,20.121-25.981,33.592-35.696c7.264-5.239,14.861-10.024,22.409-14.855c1.979-1.267,4.258-2.304,6.54-2.804
	C228.125,10.336,230.615,12.596,230.795,17.461z M310.794,174.655c-2.98,5.862-6.122,11.757-8.099,17.983
	c-2.553,8.039-0.431,15.109,6.727,19.519c6.298,3.88,14.084,2.907,19.529-3.206c4.936-5.541,10.211-11.285,13.283-17.894
	c14.263-30.69,19.476-62.71,11.021-96.054c-5.485-21.633-16.963-39.953-32.76-55.535c-11.323-11.169-24.152-20.322-38.61-27.107
	c-2.566-1.204-5.197-2.378-7.375,0.103c-2.293,2.612-1.812,5.5,0.487,8.07c1.196,1.337,2.356,2.706,3.556,4.04
	c4.6,5.113,9.292,10.146,13.803,15.337c19.285,22.195,30.771,47.547,31.105,80.962C322.786,137.19,319.973,156.602,310.794,174.655z
	 M161.512,434.235c14.552,24.269,34.727,42.131,60.192,54.229c2.426,1.152,4.662,1.554,6.548-0.498
	c2.119-2.305,1.842-5.083,0.095-7.406c-1.971-2.621-4.473-4.837-6.543-7.392c-9.019-11.132-19.514-21.421-26.647-33.662
	c-21.736-37.302-20.494-75.825-2.736-114.421c2.627-5.709,5.556-11.315,7.684-17.207c2.759-7.64-0.208-15.508-6.678-19.574
	c-5.996-3.768-13.724-2.606-19.648,3.063c-5.886,5.632-10.37,12.301-14.02,19.541c-9.77,19.377-12.823,40.333-14.471,61.791
	C146.147,394.301,150.091,415.188,161.512,434.235z"/>
</svg>
