<?xml version="1.0" encoding="iso-8859-1"?>
<!-- Generator: Adobe Illustrator 19.0.0, SVG Export Plug-In . SVG Version: 6.00 Build 0)  -->
<svg version="1.1" id="Layer_1" xmlns="http://www.w3.org/2000/svg" xmlns:xlink="http://www.w3.org/1999/xlink" x="0px" y="0px"
	 viewBox="0 0 2000 2000" style="enable-background:new 0 0 2000 2000;" xml:space="preserve">
<path d="M13,620.098c70.923,40.867,90.187,39.277,145.651-7.293c40.793-34.252,90.549-41.138,140.317-40.815
	c43.339,0.281,86.542,10.174,129.985,12.67c13.051,0.75,31.569-5.119,39.317-14.664c58.834-72.489,132.507-112.617,226.943-107.832
	c55.523,2.814,97.589-22.823,136.916-56.916c9.864-8.552,19.62-17.229,33.532-29.457c19.373,43.64,15.023,84.19,8.21,123.885
	c-14.218,82.841-57.098,152.904-102.944,221.383c-14.797,22.102-29.412,44.378-42.95,67.261
	c-28.215,47.693-52.016,96.112-25.367,153.393c21.691,46.624,36.683,97.341,64.38,139.91c25.567,39.295,60.758,38.847,90.14,1.978
	c47.349-59.415,89.663-122.853,133.847-184.775c70.085-98.218,147.232-189.52,261.541-237.979
	c37.175-15.76,78.756-27.487,118.788-29.038c167.526-6.49,321.344,32.947,447.617,150.735
	c92.803,86.567,135.221,197.698,153.738,320.157c12.909,85.371,8.304,168.882-24.085,249.999
	c-45.166,113.116-134.485,177.017-243.569,217.894c-168.051,62.973-342.903,64.898-516.763,41.919
	c-156.673-20.708-309.859-61.138-453.758-130.509c-99.417-47.927-162.059-121.446-161.633-235.902
	c0.645-173.376-80.363-290.29-236.657-360.949c-70.168-31.722-138.792-67.586-205.346-106.331
	c-48.237-28.081-91.133-64.762-109.289-121.566C18.416,647.413,16.851,637.067,13,620.098z M1438.251,1475.546
	c46.476-7.109,93.724-10.99,139.296-21.885c196.919-47.075,312.659-196.66,249.456-416.98
	c-63.863-222.622-341.995-337.32-543.851-245.056c-157.547,72.012-244.998,201.072-270.699,368.66
	c-17.313,112.887,14.165,219.271,143.359,271.266C1246.335,1467.984,1341.398,1474.109,1438.251,1475.546z M1415.512,956.726
	c-38.871-56.656-101.838-80.759-155.42-66.245c-93.761,25.398-126.338,147.158-97.136,230.297
	c17.678,50.331,58.646,79.084,101.817,104.232c66.566,38.776,127.152,83.836,171.971,153.01
	c49.527-79.836,124.76-125.261,198.177-174.067c90.08-59.883,109.525-131.578,69.222-229.204
	c-27.108-65.664-93.896-99.394-161.991-80.656c-48.558,13.363-80.452,46.539-103.881,97.522
	C1428.631,976.805,1422.295,966.612,1415.512,956.726z"/>
</svg>
