<?xml version="1.0" encoding="iso-8859-1"?>
<!-- Generator: Adobe Illustrator 19.0.0, SVG Export Plug-In . SVG Version: 6.00 Build 0)  -->
<svg version="1.1" id="Layer_1" xmlns="http://www.w3.org/2000/svg" xmlns:xlink="http://www.w3.org/1999/xlink" x="0px" y="0px"
	 viewBox="0 0 2000 2000" style="enable-background:new 0 0 2000 2000;" xml:space="preserve">
<path d="M206.491,1899.278c0-82.995,7.48-160.678-2.337-236.11c-8.036-61.747-36.685-120.812-55.776-179.77
	c-46.469-28.076-90.548-54.708-136.72-82.605c54.582-115.84,107.803-228.788,161.224-342.164c50.774,0,99.042,0,153.74,0
	c28.386-60.389,57.828-123.024,92.016-195.755c-75.887,0-143.527,0-214.555,0c-2.969-87.88,18.943-162.581,46.226-235.423
	c112.728-300.965,338.576-462.475,647.177-519.981c52.466-9.777,105.498-23.597,158.247-23.504
	c196.149,0.345,381.311,44.539,542.604,161.698c191.927,139.411,323.329,321.667,378.038,555.028
	c5.438,23.194,4.191,47.955,6.721,80.726c-138.312,14.327-269.606,7.049-407.396,5.136c-12.422-31.496-24.792-63.536-37.666-95.372
	c-37.675-93.168-91.488-175.609-174.347-233.825c-181.718-127.673-373.155-119.184-557.907-15.21
	c-254.68,143.327-321.615,477.247-151.984,712.842c42.397,58.884,102.747,104.996,219.629,167.121c0,156.807,0,315.215,0,477.166
	C654.107,1899.278,435.897,1899.278,206.491,1899.278z M1084.018,635.583c-176.246-3.05-347.888,157.297-350.03,326.997
	c-2.202,174.554,163.206,336.517,344.476,337.302c156.62,0.678,309.454-163.327,311.745-334.532
	C1392.656,782.476,1259.078,638.613,1084.018,635.583z"/>
</svg>
