<?xml version="1.0" encoding="iso-8859-1"?>
<!-- Generator: Adobe Illustrator 19.0.0, SVG Export Plug-In . SVG Version: 6.00 Build 0)  -->
<svg version="1.1" id="Layer_1" xmlns="http://www.w3.org/2000/svg" xmlns:xlink="http://www.w3.org/1999/xlink" x="0px" y="0px"
	 viewBox="0 0 2000 2000" style="enable-background:new 0 0 2000 2000;" xml:space="preserve">
<path d="M153.649,507.097c282.348-163.061,564.779-326.169,849.606-490.661c283.182,163.422,565.601,326.404,849.02,489.963
	c0,327.427,0,653.661,0,984.947c-279.953,161.686-562.262,324.732-848.796,490.22c-282.495-163.037-566.212-326.779-849.83-490.463
	C153.649,1162.265,153.649,835.831,153.649,507.097z M997.987,415.122c-75.999,131.763-147.144,255.11-219.772,381.029
	c78.109,45.016,151.821,87.498,225.474,129.946c74.323-42.972,145.079-83.882,217.099-125.522
	C1146.311,671.727,1074.778,547.971,997.987,415.122z M489.674,1295.768c151.364,0,292.381,0,436.582,0
	c0-81.866,0-161.608,0-243.002c-73.253-42.231-145.448-83.852-222.368-128.196C632.777,1047.794,563.458,1167.912,489.674,1295.768z
	 M1079.504,1295.525c142.937,0,280.479,0,426.766,0c-72.319-125.204-141.415-244.828-211.716-366.54
	c-76.114,44.241-146.718,85.279-215.05,124.997C1079.504,1136.751,1079.504,1213.689,1079.504,1295.525z M1349.165,726.483
	c98.509-56.889,192.83-111.359,293.907-169.73c-195.534-112.871-383.736-221.509-571.937-330.148
	c-2.139,2.547-4.279,5.094-6.418,7.641C1158.838,397.123,1252.96,560,1349.165,726.483z M649.82,722.064
	c93.556-162.237,184.793-320.452,276.03-478.666c-2.728-2.215-5.456-4.43-8.184-6.644
	C734.899,342.366,552.132,447.979,363.682,556.877C461.823,613.534,552.786,666.047,649.82,722.064z M1423.243,855.167
	c92.666,160.279,183.064,316.637,280.133,484.533c0-223.489,0-431.266,0-646.509C1607.35,748.714,1516.97,800.973,1423.243,855.167z
	 M926.434,1766.052c0-112.016,0-213.51,0-315.762c-180.06,0-357.141,0-547.402,0
	C567.281,1558.879,743.675,1660.629,926.434,1766.052z M1079.887,1766.526c184.554-106.678,361.01-208.675,548.62-317.12
	c-192.673,0-369.658,0-548.62,0C1079.887,1554.33,1079.887,1655.658,1079.887,1766.526z M302.566,1323.415
	C399.02,1156.169,486.525,1004.44,575.5,850.162c-93.659-53.935-181.114-104.297-272.933-157.173
	C302.566,903.163,302.566,1104.638,302.566,1323.415z"/>
</svg>
