<?xml version="1.0" encoding="iso-8859-1"?>
<!-- Generator: Adobe Illustrator 19.0.0, SVG Export Plug-In . SVG Version: 6.00 Build 0)  -->
<svg version="1.1" id="Layer_1" xmlns="http://www.w3.org/2000/svg" xmlns:xlink="http://www.w3.org/1999/xlink" x="0px" y="0px"
	 viewBox="0 0 2000 2000" style="enable-background:new 0 0 2000 2000;" xml:space="preserve">
<path d="M1000.506,1981C463.422,1981.311,5.367,1542.936,19.201,972.474c6.454-266.158,107.594-495.053,299.228-679.912
	C518.585,99.482,761.005,7.912,1038.943,17.105c507.229,16.776,951.959,435.619,944.036,999.085
	C1975.579,1542.501,1547.815,1979.678,1000.506,1981z M1000.908,105.755c-181.546-2.004-348.633,56.524-471.707,134.516
	c-143.782,91.116-254.58,211.908-329.865,364.991C124.204,758.034,94.62,919.441,112.503,1088.29
	c26.479,250.016,139.392,455.215,335.763,611.079c185.607,147.321,399.669,210.329,635.907,188.228
	c232.772-21.777,429.062-121.308,583.913-296.227c172.864-195.268,245.872-425.472,221.606-685.04
	C1850.074,482.54,1483.897,104.527,1000.908,105.755z M162.466,997.848c1.589-219.074,75.524-411.022,225.107-570.467
	c166.672-177.66,374.749-268.735,618.804-267.509c223.253,1.121,418.042,80.938,577.854,236.963
	c179.632,175.375,265.059,391.398,254.234,642.342c-8.939,207.203-86.955,387.794-230.601,537.279
	c-173.437,180.487-387.671,267.83-637.799,260.4C539.03,1824.053,160.894,1464.863,162.466,997.848z M1538.393,1472.954
	c-164.446-378.337-328.378-755.493-492.265-1132.544c-30.374,0-59.807,0-90.222,0
	c-163.877,377.114-327.818,754.376-492.072,1132.358c83.604,0,166.191,0,249.411,0c95.615-222.781,191.349-445.84,287.745-670.442
	c96.49,224.844,192.23,447.94,287.795,670.627C1372.222,1472.954,1454.569,1472.954,1538.393,1472.954z"/>
</svg>
