<?xml version="1.0" encoding="iso-8859-1"?>
<!-- Generator: Adobe Illustrator 19.0.0, SVG Export Plug-In . SVG Version: 6.00 Build 0)  -->
<svg version="1.1" id="Layer_1" xmlns="http://www.w3.org/2000/svg" xmlns:xlink="http://www.w3.org/1999/xlink" x="0px" y="0px"
	 viewBox="0 0 500 500" enable-background="new 0 0 500 500" xml:space="preserve">
<path d="M467.42,249.945c0,32.002,0.002,64.003-0.004,96.005c-0.001,2.909,0.049,5.823-0.099,8.726
	c-0.671,13.147-5.61,22.9-18,29.858c-46.817,26.291-93.146,53.45-139.642,80.311c-13.517,7.809-27.224,15.325-40.402,23.674
	c-12.181,7.717-23.447,7.17-35.617-0.098c-23.968-14.316-48.32-27.988-72.484-41.978c-35.776-20.713-71.261-41.95-107.425-61.961
	c-13.353-7.389-18.064-17.921-18.238-31.874c-0.136-10.908-0.078-21.819-0.074-32.728c0.022-56.73,0.277-113.461-0.052-170.189
	c-0.097-16.731,5.11-28.608,20.641-37.271c45.598-25.435,90.516-52.089,135.691-78.281c14.438-8.371,28.947-16.627,43.244-25.233
	c11.505-6.926,22.399-6.282,33.833,0.444c39.393,23.173,78.951,46.064,118.474,69.015c19.752,11.47,39.092,23.782,59.496,33.953
	c16.293,8.122,20.678,20.947,20.637,37.259c-0.083,33.456-0.025,66.912-0.025,100.369
	C467.39,249.945,467.405,249.945,467.42,249.945z M213.702,210.146c-5.398,0.416-9.99,1.06-14.585,1.075
	c-26.91,0.092-53.822-0.123-80.729,0.143c-6.847,0.068-13.905,0.68-20.472,2.481c-13.674,3.75-22.681,12.97-25.943,26.831
	c-3.262,13.86,0.765,25.894,11.218,35.629c8.221,7.657,18.276,9.926,29.183,9.899c29.456-0.074,58.913-0.064,88.368,0.03
	c4.196,0.013,8.389,0.674,13.76,1.137c0,5.458,0,9.754,0,14.051c-0.002,30.184-0.199,60.369,0.072,90.55
	c0.147,16.443,7.936,28.602,23.186,35.019c14.544,6.12,27.894,2.985,39.256-7.706c8.444-7.946,11.4-18.244,11.408-29.636
	c0.021-29.092,0.167-58.184,0.257-87.276c0.015-4.663,0.002-9.326,0.002-15.003c5.015-0.443,8.874-1.045,12.738-1.078
	c15.273-0.131,30.547-0.078,45.82-0.104c16.001-0.028,32.012,0.285,48-0.197c18.473-0.557,33.276-13.376,36.232-30.512
	c2.869-16.635-5.757-33.462-21.795-39.863c-6.528-2.605-14.137-3.327-21.275-3.431c-26.158-0.384-52.326-0.268-78.489-0.11
	c-25.426,0.153-40.535,14.992-41.54,40.511c-0.167,4.24-0.024,8.492-0.024,13.076c-12,0-22.351,0-33.264,0
	c0-11.407,0-22.011,0-33.531c5.979-0.275,10.961-0.553,15.946-0.726c20.425-0.711,36.273-14.004,36.974-34.211
	c1.096-31.591,1.29-63.298-0.128-94.866c-1.135-25.259-26.578-40.285-49.838-31.386c-14.273,5.461-23.35,18.942-23.47,36.049
	c-0.206,29.455,0.005,58.912-0.051,88.368C214.511,199.978,214.022,204.599,213.702,210.146z M234.179,296.529
	c-0.067,30.811-0.057,61.621-0.031,92.432c0.002,2.165,0.122,4.362,0.503,6.488c1.564,8.722,8.023,14.525,16.245,14.751
	c8.935,0.246,15.886-5.447,17.433-14.605c0.539-3.191,0.568-6.497,0.55-9.749c-0.16-29.719-0.354-59.437-0.627-89.155
	c-0.029-3.119-0.629-6.234-1.022-9.882c-10.912,0-20.896,0-32.064,0C234.738,290.865,234.185,293.696,234.179,296.529z
	 M245.52,212.003c16.67,0.947,23.632-7.1,23.062-22.531c-0.818-22.139-0.25-44.331-0.211-66.5c0.011-6.172,0.619-12.364,0.285-18.51
	c-0.519-9.521-7.973-16.632-16.864-16.752c-8.563-0.116-15.707,6.058-17.213,15.159c-0.471,2.844-0.424,5.793-0.426,8.694
	c-0.026,29.075-0.031,58.149,0.011,87.224c0.005,3.572,0.319,7.144,0.561,12.192C239.172,211.408,242.339,211.822,245.52,212.003z
	 M301.779,266.424c28.687,0.06,57.374,0.054,86.061,0.042c3.266-0.001,6.582,0.17,9.787-0.318
	c8.497-1.293,14.369-8.008,14.73-16.398c0.355-8.253-5.108-15.406-13.492-17.438c-2.099-0.509-4.313-0.764-6.474-0.767
	c-28.301-0.035-56.603-0.024-84.904,0.054c-2.146,0.006-4.388,0.318-6.417,0.994c-6.324,2.108-10.927,6.446-11.79,13.028
	c-0.827,6.306-0.178,12.804-0.178,20.145C294.031,266.032,297.904,266.416,301.779,266.424z M210.007,232.777
	c-34.891-0.254-69.784-0.599-104.675-0.498c-7.384,0.021-13.34,6.558-14.616,14.017c-1.278,7.472,2.262,15.023,9.274,17.952
	c3.566,1.49,7.731,2.129,11.629,2.146c31.269,0.135,62.539,0.05,93.809-0.042c2.453-0.007,4.904-0.573,8.208-0.985
	c0-10.687,0-20.973,0-31.115C211.967,233.549,210.99,232.784,210.007,232.777z"/>
</svg>
