<?xml version="1.0" encoding="iso-8859-1"?>
<!-- Generator: Adobe Illustrator 19.0.0, SVG Export Plug-In . SVG Version: 6.00 Build 0)  -->
<svg version="1.1" id="Layer_1" xmlns="http://www.w3.org/2000/svg" xmlns:xlink="http://www.w3.org/1999/xlink" x="0px" y="0px"
	 viewBox="0 0 500 500" style="enable-background:new 0 0 500 500;" xml:space="preserve">
<path id="XMLID_4_" d="M245.958,381.87c-53.428-2.418-92.247-26.444-115.293-74.935c-6.455-13.581-9.972-27.724-10.92-42.889
	c-2.645-42.314,12.997-76.499,43.853-104.686c16.039-14.652,34.361-24.632,55.022-31.293c14.936-4.815,29.99-7.884,45.468-6.879
	c37.29,2.423,68.539,17.333,92.692,46.474c13.286,16.031,21.712,34.487,26.364,54.344c4.782,20.41,3.061,41.031-2.963,61.252
	c-7.123,23.909-20.378,43.877-38.487,60.723c-18.802,17.49-41.275,28.44-65.928,34.586
	C266.113,380.973,255.832,380.852,245.958,381.87z M162.243,251.781c-1.076,52.04,39.769,90.103,88.023,89.936
	c53.631-0.186,91.547-37.527,92.588-89.173c1.073-53.251-40.344-89.793-87.384-91.151
	C201.678,159.84,159.82,206.446,162.243,251.781z M51.791,266.646c-13.368,1.337-26.844,2.685-40.259,4.027
	c4.121,90.3,78.881,204.968,215.012,218.105c1.352-13.79,2.704-27.573,3.999-40.785C126.651,429.301,68.421,368.79,51.791,266.646z
	 M420.822,417.815c32.583-33.512,54.982-73.109,63.008-120.758c-13.912-2.777-26.283-5.247-39.688-7.923
	c-20.821,81.114-71.018,133.428-153.434,155.344c2.969,13.478,5.849,26.554,8.876,40.296
	C348.243,474.228,388.041,451.531,420.822,417.815z M16.837,196.249c13.347,3.02,26.692,6.04,40.438,9.151
	c18.72-70.094,62.037-117.01,128.936-142.242c-4.513-13.239-8.693-25.5-13.07-38.341C107.806,44.347,37.42,105.366,16.837,196.249z
	 M425.738,161.535c12.93,25.545,19.366,52.508,21.621,81.122c7.31,0,14.039,0,20.767,0c6.673,0,13.345,0,19.85,0
	c6.772-53.984-46.293-157.595-91.271-178.492c-8.011,10.092-16.128,20.318-24.601,30.992
	C394.976,114.414,412.729,135.834,425.738,161.535z M326.709,69.164c5.789-13.427,11.31-26.233,16.804-38.977
	c-30.61-12.785-61.456-18.936-93.915-18.602c0,12.638,0,26.055,0,41.151C276.015,54.474,301.689,58.548,326.709,69.164z"/>
</svg>
