<?xml version="1.0" encoding="iso-8859-1"?>
<!-- Generator: Adobe Illustrator 19.0.0, SVG Export Plug-In . SVG Version: 6.00 Build 0)  -->
<svg version="1.1" id="Layer_1" xmlns="http://www.w3.org/2000/svg" xmlns:xlink="http://www.w3.org/1999/xlink" x="0px" y="0px"
	 viewBox="0 0 500 500" enable-background="new 0 0 500 500" xml:space="preserve">
<path d="M494.219,249.582c0.364,135.059-106.843,244.722-246.144,243.628C116.266,492.175,4.781,382.06,6.112,246.274
	C7.404,114.578,118.586,2.244,255.567,5.046C385.148,7.697,494.861,116.687,494.219,249.582z M250.028,456.655
	c110.953-0.089,208.468-91.361,208.053-212.522c-0.386-112.775-96.542-208.855-219.405-202.781
	c-102.887,5.086-200.953,94.389-196.24,216.55C46.516,363.662,135.686,456.235,250.028,456.655z M359.342,280.188
	c-16.084,30.019-41.191,49.263-74.477,56.603c-56.708,12.506-112.992-19.614-130.78-75.211c-9.612-30.042-6.806-59.253,8.076-86.899
	c14.843-27.574,37.9-45.638,67.859-54.927c-45.48,5.374-95.891,42.146-107.766,102.783
	c-11.479,58.615,15.467,115.191,69.353,142.823c53.385,27.376,118.26,14.347,158.01-31.422
	c38.286-44.083,39.898-105.242,15.867-146.435C376.639,219.322,375.263,250.475,359.342,280.188z M214.688,188.618
	c2.425,6.244,7.349,8.303,13.026,8.911c19.745,2.115,39.353,1.745,58.849-2.723c3.03-0.695,7.638,0.156,9.842,2.146
	c8.121,7.333,16.552,14.695,23.009,23.42c13.547,18.306,18.761,39.098,13.523,61.73c-1.801,7.783-4.533,15.35-6.84,23.016
	c36.423-40.607,41.502-85.503,17.882-134.11c5.222-3.672,10-7.032,14.779-10.392c-28.697-27.459-56.124-51.034-78.673-80.907
	C275.872,127.227,252.823,162.571,214.688,188.618z M164.354,244.345c5.21,35.567,33.411,66.573,71.263,75.195
	c30.593,6.968,66.329-4.182,83.197-23.586c-43.586,12.032-81.471,2.793-108.203-34.727c-26.838-37.67-23.411-76.618,3.542-115.138
	C176.549,166.502,158.214,202.438,164.354,244.345z M255.659,87.571c1.282,13.752,2.564,27.504,3.846,41.256
	c8.457-7.702,11.01-16.955,11.561-26.638c-4.967-5.352-9.508-10.245-14.049-15.138C256.565,87.224,256.112,87.397,255.659,87.571z"
	/>
</svg>
