<?xml version="1.0" encoding="iso-8859-1"?>
<!-- Generator: Adobe Illustrator 19.0.0, SVG Export Plug-In . SVG Version: 6.00 Build 0)  -->
<svg version="1.1" id="Layer_1" xmlns="http://www.w3.org/2000/svg" xmlns:xlink="http://www.w3.org/1999/xlink" x="0px" y="0px"
	 viewBox="0 0 500 500" enable-background="new 0 0 500 500" xml:space="preserve">
<path d="M411.573,298.142c0-38.074-0.025-76.148,0.009-114.221c0.021-23.981,0.099-47.962,0.208-71.943
	c0.071-15.514,5.238-20.684,20.519-20.695c13.849-0.01,27.697-0.017,41.546,0.001c15.874,0.021,21.038,5.145,20.856,21.386
	c-0.532,47.612-1.252,95.223-1.831,142.835c-0.501,41.199-0.949,82.399-1.35,123.6c-0.272,27.99-4.597,32.446-32.14,32.532
	c-23.979,0.075-47.971-0.342-71.931,0.348c-10.264,0.296-16.443-3.753-20.988-12.361c-15.269-28.923-30.645-57.792-46.155-86.587
	c-29.753-55.241-59.616-110.421-89.471-165.607c-1.723-3.184-3.772-6.192-6.833-11.175
	c-37.899,69.749-74.99,138.014-113.283,208.488c5.638,0,9.43,0.035,13.221-0.005c39.849-0.423,79.703-0.654,119.544-1.455
	c8.294-0.167,13.67,1.703,17.846,9.512c6.504,12.162,14.448,23.55,21.636,35.355c1.92,3.153,3.705,6.497,4.863,9.982
	c2.878,8.658,0.882,11.743-8.239,12.833c-4.679,0.559-9.434,0.636-14.155,0.65c-67.214,0.195-134.428,0.522-201.641,0.33
	c-11.723-0.034-23.624-1.4-35.117-3.748c-18.852-3.852-27.486-15.427-22.118-33.675c5.352-18.193,13.583-35.831,22.624-52.595
	c36.494-67.667,73.93-134.825,110.691-202.35c9.437-17.335,22.294-26.564,42.904-25.853c28.337,0.978,56.773,1.193,85.088-0.06
	c19.037-0.843,30.647,8.017,39.145,23.129c22.656,40.288,45.089,80.702,67.615,121.063c11.304,20.254,22.616,40.502,33.925,60.753
	C409.566,298.451,410.57,298.297,411.573,298.142z"/>
</svg>
