<?xml version="1.0" encoding="iso-8859-1"?>
<!-- Generator: Adobe Illustrator 19.0.0, SVG Export Plug-In . SVG Version: 6.00 Build 0)  -->
<svg version="1.1" id="Layer_1" xmlns="http://www.w3.org/2000/svg" xmlns:xlink="http://www.w3.org/1999/xlink" x="0px" y="0px"
	 viewBox="0 0 2000 2000" style="enable-background:new 0 0 2000 2000;" xml:space="preserve">
<path d="M671.076,1552.164c-218.074-0.051-436.021,0.064-655.561-0.075c0-225.91,0-439.898,0-655.478
	c113.641-72.971,227.253-146.672,341.997-218.567c13.016-8.156,32.389-8.458,48.826-8.509c181.656-0.561,363.322,0.4,544.964-1.263
	c23.808-0.218,50.471-8.003,70.744-20.503c94.776-58.436,187.626-119.989,281.62-179.71c10.602-6.736,24.07-12.645,36.232-12.69
	c203.454-0.75,406.911-0.529,610.368-0.359c5.878,0.005,11.755,1.809,26.658,4.256c3.812,213.696-0.286,428.25,2.265,646.342
	c-6.262,5.35-13.63,13.234-22.424,18.914c-102.693,66.328-205.169,133.015-308.899,197.688
	c-16.218,10.112-38.373,14.862-57.825,14.98c-181.651,1.1-363.32-0.176-544.96,1.602c-24.938,0.244-52.858,8.399-74.091,21.495
	C871.076,1421.913,773.012,1486.54,671.076,1552.164z M686.727,1485.305c209.493-135.422,414.15-267.717,618.816-400.019
	c0-185.793,0-370.388,0-562.178c-210.121,135.896-415.607,268.794-618.816,400.22
	C686.727,1111.209,686.727,1294.618,686.727,1485.305z M635.153,936.72c-192.032,0-380.183,0-568.077,0
	c0,190.568,0,378.515,0,566.651c190.809,0,378.879,0,568.077,0C635.153,1313.363,635.153,1126.236,635.153,936.72z
	 M1928.558,1071.442c0-191.548,0-379.382,0-568.009c-190.754,0-378.769,0-567.194,0c0,190.725,0,378.676,0,568.009
	C1551.308,1071.442,1738.486,1071.442,1928.558,1071.442z M130.203,880.062c9.574,2.687,12.725,4.342,15.878,4.345
	c163.281,0.163,326.563,0.461,489.84-0.337c12.179-0.06,25.604-6.042,36.269-12.743c71.605-44.994,142.661-90.865,213.741-136.689
	c5.22-3.365,9.235-8.598,14.997-14.095c-5.569-2.036-7.73-3.515-9.892-3.517c-163.278-0.184-326.557-0.408-489.834,0.042
	c-10.289,0.028-21.985,3.139-30.622,8.612C291.981,775.48,213.917,826.125,130.203,880.062z M1094.443,1281.354
	c1.029,2.996,2.057,5.992,3.086,8.988c11.856,0,23.711,0,35.567,0c137.982-0.001,275.99-1.501,413.931,0.862
	c44.529,0.763,81.48-9.752,117.919-34.976c63.982-44.29,130.506-84.906,200.166-129.766c-9.553-2.428-12.774-3.961-15.997-3.964
	c-163.399-0.143-326.799-0.231-490.197,0.045c-8.059,0.013-17.409,1.272-23.972,5.415
	C1254.54,1178.714,1174.544,1230.118,1094.443,1281.354z"/>
</svg>
