<?xml version="1.0" encoding="iso-8859-1"?>
<!-- Generator: Adobe Illustrator 19.0.0, SVG Export Plug-In . SVG Version: 6.00 Build 0)  -->
<svg version="1.1" id="Layer_1" xmlns="http://www.w3.org/2000/svg" xmlns:xlink="http://www.w3.org/1999/xlink" x="0px" y="0px"
	 viewBox="0 0 500 500" enable-background="new 0 0 500 500" xml:space="preserve">
<path d="M250.305,495.166C114.676,495.253,4.792,385.416,5,249.969C5.208,114.834,116.179,4.192,250.862,4.836
	C385.046,5.478,494.53,115.182,494.998,249.461C495.471,384.852,385.696,495.08,250.305,495.166z M473.618,253.338
	c2.409-122.036-96.637-224.094-220.403-227.107C131.85,23.276,28.898,123.587,26.483,247.147
	c-2.388,122.14,97.679,225.157,220.532,227.035C369.322,476.051,471.182,376.78,473.618,253.338z M286.444,94.917
	c-26.183,0-49.273,0-73.251,0c-37.062,89.405-73.86,178.171-110.92,267.57c27.22,0,51.721,0,76.713,0
	c23.269-57.666,46.268-114.662,70.999-175.953c24.964,62.317,48.131,120.146,70.841,176.835c26.679,0,50.579,0,77.063,0
	C360.167,272.5,323.036,183.06,286.444,94.917z"/>
</svg>
