<?xml version="1.0" encoding="iso-8859-1"?>
<!-- Generator: Adobe Illustrator 19.0.0, SVG Export Plug-In . SVG Version: 6.00 Build 0)  -->
<svg version="1.1" id="Layer_1" xmlns="http://www.w3.org/2000/svg" xmlns:xlink="http://www.w3.org/1999/xlink" x="0px" y="0px"
	 viewBox="0 0 500 500" enable-background="new 0 0 500 500" xml:space="preserve">
<path d="M496.148,412.193c-21.821,24.096-48.154,42.303-79.489,51.961c-66.559,20.514-125.879,6.67-176.116-41.521
	c-35.419-33.977-76.809-52.32-125.758-52.281c-39.396,0.032-74.895,12.649-106.128,36.863c-2.066,1.602-4.107,3.235-6.9,4.337
	C79.309,282.296,156.861,153.04,234.883,23c1.29,1.915,2.358,3.354,3.275,4.884c55.869,93.153,111.636,186.367,167.635,279.442
	c17.722,29.456,37.738,57.302,62.473,81.364C476.808,397.001,486.503,404.127,496.148,412.193z"/>
</svg>
