<?xml version="1.0" encoding="iso-8859-1"?>
<!-- Generator: Adobe Illustrator 19.0.0, SVG Export Plug-In . SVG Version: 6.00 Build 0)  -->
<svg version="1.1" id="Layer_1" xmlns="http://www.w3.org/2000/svg" xmlns:xlink="http://www.w3.org/1999/xlink" x="0px" y="0px"
	 viewBox="0 0 2000 2000" style="enable-background:new 0 0 2000 2000;" xml:space="preserve">
<path d="M1329.603,1755.962c-16.532,63.194-32.426,123.948-49.277,188.36c-47.551-44.027-93.148-86.244-142.215-131.675
	c-31.61,57.743-61.933,113.136-93.689,171.147c-36.428-55.222-71.293-108.074-106.984-162.178
	c-43.371,47.497-85.589,93.731-131.003,143.465c-22.416-62.016-43.79-121.15-65.964-182.498
	c-53.329,35.548-105.129,70.077-161.491,107.646c-6.666-65.74-13.064-128.838-19.653-193.81
	c-60.224,22.054-119.903,43.908-182.822,66.95c9.15-64.533,17.938-126.509,27.252-192.201c-64.02,6.118-126.514,12.09-192.334,18.38
	c24.45-60.94,47.687-118.858,72.178-179.901c-64.533-8.548-126.928-16.813-193.13-25.583
	c38.355-52.61,75.032-102.918,115.372-158.253c-59.561-23.554-117.433-46.44-180.133-71.236
	c49.439-42.627,96.833-83.491,146.56-126.365c-53.572-38.282-104.405-74.605-157.252-112.369
	c57.342-28.857,113.606-57.172,172.562-86.841c-41.612-48.492-82.535-96.181-126.386-147.282
	c64.223-14.542,125.934-28.515,189.408-42.887c-29.463-57.598-58.124-113.63-87.873-171.786c64.482,0,126.57,0,192.58,0
	c-13.869-61.663-27.554-122.507-42.178-187.528c64.295,17.198,124.447,33.287,187.351,50.112c0-64.702,0-127.142,0-195.881
	c59.833,32.815,115.288,63.23,173.426,95.115c16.658-63.043,32.716-123.811,49.605-187.727
	c48.304,44.682,94.059,87.006,142.726,132.023C897.351,115.849,927.195,60.877,959.159,2
	c35.941,55.102,70.203,107.629,106.715,163.606c44.096-48.064,86.642-94.437,131.223-143.029
	c21.685,60.694,42.495,118.938,65.053,182.073c54.103-35.879,106.327-70.512,161.402-107.035
	c6.671,64.818,13.172,127.983,19.859,192.958c61.133-22.148,119.704-43.367,181.777-65.856
	c-8.964,63.744-17.62,125.299-26.954,191.681c64.748-6.932,127.153-13.614,193.761-20.745
	c-24.266,60.172-47.66,118.18-72.729,180.342c64.657,8.849,126.123,17.262,191.781,26.249
	c-38.221,53.726-74.292,104.429-112.106,157.584c59.555,23.646,117.676,46.724,179.751,71.371
	c-49.945,42.723-97.262,83.199-147.601,126.26c52.141,37.375,102.786,73.679,156.479,112.167
	c-57.964,28.868-113.33,56.443-172.781,86.051c42.151,49.247,82.495,96.381,126.272,147.526
	c-64.129,14.617-124.933,28.476-188.922,43.061c29.6,58.013,57.482,112.658,86.779,170.077c-65.779,0-128.049,0-192.765,0
	c14.523,62.189,28.611,122.513,44.002,188.416c-63.832-17.071-124.251-33.229-189.428-50.66c0,66.033,0,128.547,0,195.81
	C1441.292,1817.278,1387.087,1787.52,1329.603,1755.962z M489.473,990.753c-2.704,285.294,223.689,500.135,480.548,513.758
	c313.205,16.611,528.511-226.956,544.24-471.843c20.951-326.193-237.142-536.832-474.125-551.449
	C717.403,461.314,485.676,720.981,489.473,990.753z M943.193,1196.678c-28.311,0-51.767,0-78.078,0
	c-12.865-34.944-26.068-70.807-39.264-106.649c-47.886,0-93.287,0-141.487,0c-12.502,33.794-25.421,68.717-39.053,105.566
	c-22.889,0-46.098,0-73.349,0c52.199-135.818,104.098-270.852,156.183-406.373c19.53,0,37.56,0,58.079,0
	C838.07,923.805,890.143,1058.975,943.193,1196.678z M755.911,877.77c-17.429,53.171-34.069,103.934-51.07,155.797
	c34.754,0,67.276,0,101.189,0C789.352,981.719,773.025,930.968,755.911,877.77z M1323.815,844.775c34.301,0,65.777,0,98.316,0
	c3.452-18.861,6.477-35.388,9.962-54.429c-95.615,0-189.399,0-283.713,0c0,18.424,0,35.495,0,56.044c34.004,0,67.137,0,103.064,0
	c0,119.318,0,235.176,0,349.705c24.533,0,46.141,0,72.371,0C1323.815,1077.55,1323.815,962.441,1323.815,844.775z M1052.256,789.736
	c-25.825,0-48.89,0-72.001,0c0,136.528,0,271.398,0,406.376c74.875,0,147.286,0,219.949,0c0-19.97,0-38.333,0-58.481
	c-49.174,0-96.224,0-147.948,0C1052.256,1019.717,1052.256,905.507,1052.256,789.736z"/>
</svg>
