<?xml version="1.0" encoding="utf-8"?>
<!-- Generator: Adobe Illustrator 25.1.0, SVG Export Plug-In . SVG Version: 6.00 Build 0)  -->
<svg version="1.1" id="Layer_1" xmlns="http://www.w3.org/2000/svg" xmlns:xlink="http://www.w3.org/1999/xlink" x="0px" y="0px"
	 viewBox="0 0 500 500" style="enable-background:new 0 0 500 500;" xml:space="preserve">
<g>
	<path d="M205.8,189.2L133.1,32.9C56.3,74.5,4.2,155.7,4.2,249.1C4.2,334.7,48,410,114.3,454.1L205.8,189.2z"/>
	<path d="M254.1,121.8L298.5,8.1c-15.6-3.1-31.8-4.8-48.4-4.8c-13.8,0-27.3,1.2-40.5,3.3L254.1,121.8z"/>
	<polygon points="217.9,382.2 281.2,382.2 250,278.7 	"/>
	<path d="M304.3,461.1H195.4l-8.3,25.7c20.1,5.3,41.2,8.2,63,8.2c21.6,0,42.6-2.8,62.6-8.1L304.3,461.1z"/>
	<path d="M375.4,37.6l-74.2,152l86.5,263.3c65.3-44.2,108.3-119,108.3-203.8C495.9,159.1,447.5,80.4,375.4,37.6z"/>
</g>
</svg>
