<?xml version="1.0" encoding="iso-8859-1"?>
<!-- Generator: Adobe Illustrator 19.0.0, SVG Export Plug-In . SVG Version: 6.00 Build 0)  -->
<svg version="1.1" id="Layer_1" xmlns="http://www.w3.org/2000/svg" xmlns:xlink="http://www.w3.org/1999/xlink" x="0px" y="0px"
	 viewBox="0 0 500 500" style="enable-background:new 0 0 500 500;" xml:space="preserve">
<path id="XMLID_4_" d="M487.733,257.872c-12.336,23.491-29.46,43.252-48.627,61.252c-42.998,40.379-93.7,65.199-152.408,71.842
	c-84.13,9.519-158.251-13.49-220.938-71.153c-16.862-15.511-31.265-33.112-44.101-52.117c-5.784-8.564-6.053-15.813-0.14-24.424
	C66.765,177.38,127.493,135.03,207.09,122.373c61.99-9.858,121.244-0.641,176.469,30.109c39.177,21.814,71.121,51.65,96.161,88.841
	c2.903,4.311,5.353,8.926,8.014,13.4C487.733,255.773,487.733,256.822,487.733,257.872z M334.305,158.182
	c0.498,0.6,0.927,1.278,1.504,1.787c19.193,16.932,32.505,37.591,39.295,62.318c0.896,3.264,2.676,5.24,5.416,7.181
	c6.162,4.366,7.495,12.091,3.718,18.093c-3.809,6.054-11.716,8.173-17.958,4.813c-6.294-3.388-9.254-10.877-5.726-17.505
	c2.31-4.34,1.613-7.857,0.332-11.911c-23.237-73.504-107.814-102.317-170.587-62.693c-1.773,1.119-3.458,2.424-5.338,3.319
	c-3.982,1.895-7.152,0.86-9.233-3.002c-0.829-1.539-1.218-3.316-2.038-5.636c-55.01,19.056-97.871,53.044-131.233,100.395
	c31.886,45.738,72.542,79.133,125.72,99.369c-1.21-1.972-1.417-2.478-1.768-2.847c-0.904-0.948-1.865-1.842-2.816-2.745
	c-17.552-16.673-29.498-36.688-35.636-60.11c-1.135-4.332-2.335-8.112-6.083-11.386c-5.664-4.948-5.424-12.908-0.582-18.375
	c4.531-5.116,12.208-6.028,17.864-2.12c5.808,4.013,7.942,12.007,3.647,18.051c-2.751,3.87-2.43,7.099-1.329,10.955
	c17.527,61.427,78.264,98.101,146.426,77.832c10.595-3.15,20.243-9.676,30.096-15.066c6.942-3.798,10.148-2.787,12.637,4.98
	c0.206,0.642,0.783,1.164,1.522,2.218c53.753-19.173,95.875-52.924,128.846-99.596C428.776,210.28,387.529,176.662,334.305,158.182z
	 M355.351,256.116c0.019,57.219-46.25,103.634-103.485,103.814c-56.981,0.179-103.844-46.522-103.865-103.504
	c-0.02-57.231,46.298-103.604,103.556-103.676C308.879,152.678,355.333,198.94,355.351,256.116z M341.486,256.816
	c0.126-49.574-39.721-89.955-89.015-90.207c-49.884-0.255-90.569,39.91-90.631,89.474c-0.062,49.307,40.228,89.727,89.503,89.791
	C300.967,345.939,341.361,306.031,341.486,256.816z M372.598,263.9c-3.856-0.307-6.829,1.872-7.452,6.397
	c-3.234,23.479-12.611,44.068-28.268,61.87c-3.383,3.846-3.3,7.794-0.465,10.486c3.059,2.906,7.095,2.366,10.997-1.486
	c0.557-0.55,1.076-1.143,1.584-1.741c11.86-13.935,20.683-29.545,25.562-47.229c1.873-6.788,3.183-13.732,4.34-18.809
	C378.782,267.023,376.46,264.208,372.598,263.9z M130.67,244.896c3.798,0.802,6.841-1.596,8.188-6.524
	c0.345-1.26,0.523-2.566,0.774-3.852c3.906-19.995,12.632-37.624,25.968-53.002c1.536-1.771,3.152-3.533,4.337-5.532
	c1.688-2.848,1.187-6.158-1.401-7.718c-2.113-1.274-5.368-1.452-7.896-0.968c-1.743,0.334-3.409,2.416-4.595,4.083
	c-6.058,8.516-12.513,16.821-17.76,25.824c-7.045,12.087-10.974,25.439-12.948,38.692
	C125.147,241.184,127.028,244.126,130.67,244.896z M252.337,319.41c5.773,0,11.546,0.046,17.318-0.01
	c9.393-0.092,11.856-2.77,10.471-11.917c-2.198-14.52-4.453-29.036-7.038-43.491c-0.89-4.979-0.514-8.405,3.592-12.392
	c13.429-13.041,13.006-34.249-0.162-47.326c-13.097-13.007-34.361-13.148-47.588-0.316c-13.274,12.878-13.905,34.208-0.705,47.368
	c3.959,3.947,4.683,7.364,3.741,12.451c-2.769,14.954-5.262,29.966-7.486,45.012c-1.089,7.366,1.634,10.321,8.965,10.563
	c6.291,0.208,12.594,0.043,18.891,0.043C252.337,319.401,252.337,319.405,252.337,319.41z"/>
</svg>
