<?xml version="1.0" encoding="utf-8"?>
<!-- Generator: Adobe Illustrator 24.1.0, SVG Export Plug-In . SVG Version: 6.00 Build 0)  -->
<svg version="1.1" id="Layer_1" xmlns="http://www.w3.org/2000/svg" xmlns:xlink="http://www.w3.org/1999/xlink" x="0px" y="0px"
	 viewBox="0 0 2000 2000" style="enable-background:new 0 0 2000 2000;" xml:space="preserve">
<path d="M359.2,1097.8c38.8,236.5,215.3,489.2,554.4,537.5c243.1,34.6,558.6-78.7,687.6-411.5c75.7-195.4,55.8-390.2-54.7-568
	c-111.7-179.7-277.5-283.6-485.8-303.3c-1.4-107.2-1-207.6-5.2-307.8c-1.3-31.6,10.1-36.8,35.2-32.3c59,10.6,120.3,14.9,176.2,34.5
	c87.1,30.7,176,63,253.8,111.3c74.6,46.4,143.6,107.5,201.2,174c64.4,74.4,121.2,158,167.1,245.1c86.6,164.4,112,341.3,91.4,527.4
	c-21.5,194.3-94.1,365.7-213.1,517.1c-96.4,122.7-222.2,211.2-364.3,274.3c-131.1,58.3-266.2,94.4-413.6,86.6
	c-171.3-9.1-330.9-47.1-480.2-133.2c-158.8-91.7-285.9-215-369.9-376.3c-49.2-94.4-92.3-196.2-113.5-299.7
	c-19.4-95.2-12.9-197.8-4.9-296.1c11-134.8,57-261.4,125.6-378.3c30.8-52.5,67.8-101.4,103.7-154.5
	c-72.3-62.8-143.8-124.8-224.2-194.5c246.3-37.1,482.6-72.7,720.6-108.5c-1.6,241.9-3.2,480.9-4.9,729.4
	c-80.1-69.5-150.3-130.4-222.5-193C434.6,634.9,318.7,850.4,359.2,1097.8z M840.9,1182.5c97.4,89.8,261.4,81.7,355.9-37.9
	c71.2-90.1,70-253.9-29.9-334.9c-117.5-95.2-257.9-84.6-355.4,23.7C731.1,922.8,724.6,1088.8,840.9,1182.5z"/>
</svg>
