<?xml version="1.0" encoding="iso-8859-1"?>
<!-- Generator: Adobe Illustrator 19.0.0, SVG Export Plug-In . SVG Version: 6.00 Build 0)  -->
<svg version="1.1" id="Layer_1" xmlns="http://www.w3.org/2000/svg" xmlns:xlink="http://www.w3.org/1999/xlink" x="0px" y="0px"
	 viewBox="0 0 2000 2000" style="enable-background:new 0 0 2000 2000;" xml:space="preserve">
<path d="M572.108,1004.288c82.915,0,163.687,0,255.789,0c-140.334,163.972-275.287,321.655-411.917,481.299
	C280.251,1326.614,145.454,1168.732,5,1004.225c92.36,0,174.566,0,257.756,0c6.651-55.232,10.211-108.383,19.893-160.395
	c21.539-115.701,63.39-224.896,132.903-319.632c50.669-69.054,104.802-140.043,171.758-191.462
	c72.773-55.886,159.02-98.102,245.012-132.036c146.966-57.996,300.535-66.59,456.897-36.328
	c147.018,28.453,273.369,94.387,390.884,185.916c101.133,78.77,169.18,179.377,222.038,292.267
	c57.28,122.334,89.441,252.026,82.87,387.358c-8.113,167.075-58.032,320.885-154.514,460.557
	c-92.435,133.815-209.822,235.45-360.191,293.991c-79.68,31.021-164.555,53.551-249.127,65.707
	c-75.693,10.88-155.694,11.708-231.028-0.334c-78.525-12.553-155.266-41.944-229.853-71.4
	c-47.852-18.898-90.516-51.031-135.266-77.634c-18.984-11.285-23.576-21.2-4.714-41.18
	c59.784-63.332,116.628-129.438,178.616-198.966c147.926,105.627,315.838,131.819,491.359,77.515
	c173.681-53.735,297.679-170.173,359.177-341.442c104.772-291.785-37.746-545.712-216.901-661.34
	c-249.95-161.32-509.565-96.02-669.651,37.06C595.48,711.638,548.906,918.934,572.108,1004.288z M909.179,1003.319
	c2.339,126.549,88.384,213.439,219.655,217.811c111.598,3.717,205.658-103.083,210.228-202.681
	c6.067-132.22-96.875-230.939-211.926-227.442C997.536,786.293,907.249,898.879,909.179,1003.319z"/>
</svg>
