<?xml version="1.0" encoding="iso-8859-1"?>
<!-- Generator: Adobe Illustrator 19.0.0, SVG Export Plug-In . SVG Version: 6.00 Build 0)  -->
<svg version="1.1" id="Layer_1" xmlns="http://www.w3.org/2000/svg" xmlns:xlink="http://www.w3.org/1999/xlink" x="0px" y="0px"
	 viewBox="0 0 500 500" enable-background="new 0 0 500 500" xml:space="preserve">
<path d="M275.829,316.113c0.549-49.577-40.005-90.333-91.056-91.399c-17.595-0.367-30.724-8.188-38.143-24.006
	c-7.112-15.162-5.304-30.088,5.062-43.376c8.089-10.369,19.042-15.439,32.315-15.696c46.973-0.909,83.327-32.194,91.096-78.42
	c0.8-4.757,0.74-9.668,0.959-14.513c1.003-22.181,17.938-39.28,39.802-40.135c22.703-0.888,40.374,14.596,43.276,37.206
	c1.603,12.491,2.465,25.491,6.713,37.15c13.059,35.843,46.022,57.653,85.93,58.754c21.886,0.604,38.638,16.303,40.867,38.297
	c2.007,19.805-11.948,38.764-32.16,43.69c-26.213,6.39-50.348-13.311-51.076-41.692c-1.163-45.358-31.94-81.21-76.609-89.243
	c-48.195-8.667-96.138,24.478-105.254,72.768c-9.452,50.068,23.059,98.644,72.19,107.608c6.067,1.107,12.306,1.472,18.485,1.736
	c22.211,0.948,39.654,17.707,40.723,39.351c1.11,22.463-14.372,40.794-36.849,43.626c-9.608,1.21-19.497,1.349-28.776,3.8
	c-40.158,10.611-66.327,45.285-67.547,88.4c-0.625,22.064-15.78,38.609-37.885,41.358c-19.292,2.4-38.965-10.998-43.921-30.614
	c-1.632-6.458-1.534-13.357-2.174-20.06c-4.238-44.388-40.446-79.361-84.975-82.124c-5.379-0.334-10.856-0.426-16.087-1.561
	c-19.569-4.245-33.791-24.185-31.761-43.986c2.207-21.524,20.013-37.943,41.293-38.076c20.75-0.13,38.592,15.482,41.257,36.06
	c1.278,9.873,1.564,20.019,4.113,29.557c12.119,45.344,55.06,73.198,101.975,66.797
	C242.153,401.295,275.314,362.604,275.829,316.113z M222.767,307.478c-4.074-19.98-19.66-32.331-41.932-33.23
	c-45.073-1.819-80.853-31.993-89.123-75.158c-7.858-41.013,13.949-83.769,52.859-100.021c12.613-5.269,27.001-7.125,40.784-8.582
	c27.161-2.872,44.975-29.489,35.911-55.258c-6.533-18.574-25.552-30.31-44.542-27.484c-21.353,3.177-35.403,19.357-36.416,41.935
	c-2.351,52.387-38.821,89.032-90.539,90.976c-24.823,0.933-42.654,18.252-42.769,41.54c-0.116,23.626,17.966,40.712,43.116,42.216
	c10.612,0.635,21.768,2.125,31.477,6.132c36.861,15.213,56.816,43.193,58.689,83.346c1.187,25.45,18.263,43.379,41.813,43.366
	C208.383,357.241,228.016,333.214,222.767,307.478z"/>
</svg>
