<?xml version="1.0" encoding="utf-8"?>
<!-- Generator: Adobe Illustrator 26.2.1, SVG Export Plug-In . SVG Version: 6.00 Build 0)  -->
<svg version="1.1" id="amp" xmlns="http://www.w3.org/2000/svg" xmlns:xlink="http://www.w3.org/1999/xlink" x="0px" y="0px"
	 viewBox="0 0 500 500" style="enable-background:new 0 0 500 500;" xml:space="preserve">
<g>
	<path d="M265.9,137.5c-1.9-5.6-4.2-8.5-6.3-10c-2-1.5-5-2.7-10.1-2.7c-5.1,0-8.1,1.2-10.1,2.7c-2.1,1.5-4.4,4.4-6.3,10
		c-1.7,5.2-10.9,31.9-22.4,65.2h77.6C276.8,169.4,267.6,142.7,265.9,137.5z"/>
	<path d="M249.5,0C111.7,0,0,111.7,0,249.5S111.7,499,249.5,499S499,387.3,499,249.5S387.3,0,249.5,0z M124.8,202.7h53
		c13.1-37.9,23.9-69.5,25.8-75.1c3.3-10,8.8-18.8,17.1-25.1c8.4-6.3,18.4-9,28.8-9c10.5,0,20.4,2.7,28.8,9
		c8.3,6.3,13.8,15.1,17.1,25.1c1.9,5.6,12.7,37.2,25.8,75.1h52.9c8.6,0,15.6,7,15.6,15.6c0,8.6-7,15.6-15.6,15.6h-42.2h-33h-99.1
		h-33h-42.2c-8.6,0-15.6-7-15.6-15.6C109,209.7,116.1,202.7,124.8,202.7z M374.3,296.3h-20.6l8.3,24.1l8.3,24.1l3.1,9.1v0
		c2.9,8.1-1.5,17-9.6,19.8c-8.1,2.9-17-1.5-19.8-9.6l-3.1-9.1l-8.3-24.1c-3.5-10-7.5-21.7-11.9-34.3H178.5
		c-4.4,12.6-8.4,24.3-11.9,34.3l-8.3,24.1l-3.1,9.1c-2.8,8.1-11.7,12.4-19.8,9.6c-8.1-2.8-12.4-11.7-9.6-19.7c0,0,0,0,0-0.1l3.1-9.1
		l8.3-24.1l8.3-24.1h-20.7c-8.6,0-15.6-7-15.6-15.6c0-8.6,7-15.6,15.6-15.6h31.4h33h120.7h33h31.4c8.6,0,15.6,7,15.6,15.6
		C389.9,289.3,382.9,296.3,374.3,296.3z"/>
</g>
</svg>
