<?xml version="1.0" encoding="iso-8859-1"?>
<!-- Generator: Adobe Illustrator 19.0.0, SVG Export Plug-In . SVG Version: 6.00 Build 0)  -->
<svg version="1.1" id="Layer_1" xmlns="http://www.w3.org/2000/svg" xmlns:xlink="http://www.w3.org/1999/xlink" x="0px" y="0px"
	 viewBox="0 0 2000 2000" style="enable-background:new 0 0 2000 2000;" xml:space="preserve">
<path d="M1587.396,1149.384c-102.849,0-194.437,0-290.72,0c-95.37-159.535-191.663-320.616-293.82-491.505
	c-231.483,387.736-458.511,768.011-685.792,1148.708c-94.099,0-186.245,0-291.794,0
	C351.605,1260.853,674.205,721.366,1002.837,171.79C1198.704,499.351,1390.22,819.635,1587.396,1149.384z M1799.802,1505.598
	c-61.568-103.24-118.151-198.12-173.078-290.224c-296.165,0-585.26,0-877.469,0c-116.04,194.461-231.943,388.694-352.021,589.922
	c128.609,0,246.388,0,364.543,0c59.219-99.09,117.426-196.485,179.109-299.699
	C1225.632,1505.598,1507.043,1505.598,1799.802,1505.598z M975.732,1578.433c-44.517,74.697-88.394,148.321-134.914,226.377
	c382.944,0,755.932,0,1137.819,0c-47.993-80.438-92.1-154.363-135.067-226.377
	C1551.819,1578.433,1264.786,1578.433,975.732,1578.433z M789.554,1148.229c145.863,0,282.429,0,426.31,0
	c-71.653-119.473-139.486-232.574-213.157-355.411C928.269,916.936,860.561,1029.832,789.554,1148.229z"/>
</svg>
