<?xml version="1.0" encoding="iso-8859-1"?>
<!-- Generator: Adobe Illustrator 19.0.0, SVG Export Plug-In . SVG Version: 6.00 Build 0)  -->
<svg version="1.1" id="Layer_1" xmlns="http://www.w3.org/2000/svg" xmlns:xlink="http://www.w3.org/1999/xlink" x="0px" y="0px"
	 viewBox="0 0 2000 2000" style="enable-background:new 0 0 2000 2000;" xml:space="preserve">
<path d="M1819.253,1529.362c-272.957-500.408-543.277-995.979-819.039-1501.529c-274.87,503.791-546.033,1000.79-818.223,1499.67
	C-33.114,1234.72-68.122,693.034,301.152,316.264c367.891-375.359,965.895-393.578,1354.379-41.91
	C2050.462,631.859,2056.268,1190.225,1819.253,1529.362z M1690.134,1691.206c-34.161-62.535-68.834-126.007-102.604-187.825
	c-393.767,0-783.059,0-1174.85,0c-34.297,62.776-68.34,125.089-103.204,188.904
	C699.037,2088.528,1337.368,2062.524,1690.134,1691.206z M611.25,1139.251c-30.585,56.184-61.178,112.382-93.948,172.578
	c324.212,0,642.057,0,965.808,0c-32.572-59.813-62.533-114.832-93.98-172.578C1128.177,1139.251,870.818,1139.251,611.25,1139.251z
	 M717.423,944.961c192.491,0,375.415,0,565.701,0c-95.167-174.547-186.989-342.956-283.012-519.071
	C904,602.37,811.903,771.479,717.423,944.961z"/>
</svg>
