<?xml version="1.0" encoding="utf-8"?>
<!-- Generator: Adobe Illustrator 25.1.0, SVG Export Plug-In . SVG Version: 6.00 Build 0)  -->
<svg version="1.1" id="ANKR" xmlns="http://www.w3.org/2000/svg" xmlns:xlink="http://www.w3.org/1999/xlink" x="0px" y="0px"
	 viewBox="0 0 500 500" style="enable-background:new 0 0 500 500;" xml:space="preserve">
<g>
	<polygon points="251.3,4.4 41.1,127.5 41.1,203.9 86.6,203.9 86.6,153.6 251.3,57.2 416,153.6 416,203.9 461.5,203.9 461.5,127.5 	
		"/>
	<path d="M416,347.7l-141.9,83.1v-78.1c46-9.9,80.6-50.9,80.6-99.9c0-56.4-45.9-102.2-102.2-102.2s-102.2,45.8-102.2,102.2
		c0,49,34.6,90,80.6,99.9v79.5L86.6,347.7v-47.9H41.1v74L230.9,485l20.4,11.9l22.8-13.3l187.4-109.8v-74H416V347.7z M195.9,252.7
		c0-31.2,25.3-56.6,56.6-56.6s56.6,25.4,56.6,56.6s-25.4,56.6-56.6,56.6S195.9,283.9,195.9,252.7z"/>
</g>
</svg>
