<?xml version="1.0" encoding="iso-8859-1"?>
<!-- Generator: Adobe Illustrator 19.0.0, SVG Export Plug-In . SVG Version: 6.00 Build 0)  -->
<svg version="1.1" id="Layer_1" xmlns="http://www.w3.org/2000/svg" xmlns:xlink="http://www.w3.org/1999/xlink" x="0px" y="0px"
	 viewBox="0 0 500 500" style="enable-background:new 0 0 500 500;" xml:space="preserve">
<path id="XMLID_4_" d="M301.975,49.761c0.027,0.062,0.071,0.409,0.225,0.468c1.67,0.645,3.373,1.206,5.036,1.87
	c1.42,0.567,2.801,1.233,4.195,1.863c0.245,0.11,0.461,0.288,0.71,0.382c2.073,0.787,4.182,1.488,6.218,2.362
	c2.221,0.953,4.369,2.072,6.56,3.095c0.378,0.177,0.826,0.201,1.214,0.363c1.37,0.574,2.751,1.13,4.083,1.784
	c1.036,0.509,1.967,1.236,3.012,1.721c2.996,1.391,6.033,2.694,9.041,4.061c1.516,0.689,3.008,1.433,4.503,2.168
	c2.072,1.019,4.138,2.049,6.203,3.082c2.61,1.305,5.195,2.662,7.83,3.914c1.948,0.925,3.994,1.648,5.933,2.592
	c1.677,0.816,3.254,1.836,4.894,2.731c3.575,1.95,7.177,3.849,10.738,5.824c2.424,1.344,4.751,2.868,7.203,4.155
	c2.888,1.517,5.67,3.215,8.543,4.756c2.21,1.185,4.293,2.606,6.463,3.87c2.333,1.359,4.733,2.606,7.045,3.998
	c2.006,1.208,3.924,2.563,5.895,3.831c0.855,0.55,1.743,1.049,2.617,1.568c0.635,0.377,1.294,0.718,1.908,1.126
	c2.908,1.934,5.803,3.886,8.704,5.829c4.176,2.797,8.37,5.568,12.525,8.397c3.347,2.279,6.657,4.615,9.965,6.951
	c1.792,1.266,3.562,2.563,5.309,3.89c1.444,1.097,2.824,2.278,4.258,3.388c2.232,1.727,4.52,3.383,6.72,5.149
	c2.74,2.198,5.393,4.506,8.129,6.709c1.401,1.128,2.908,2.122,4.352,3.197c0.511,0.38,0.974,0.824,1.46,1.237
	c1.318,1.12,2.637,2.239,3.999,3.396c-0.495,3.531-0.681,7.09-2.012,10.476c-0.545,1.386-0.605,2.957-0.936,4.433
	c-0.648,2.889-1.332,5.769-2,8.653c-0.497,2.148-0.922,4.317-1.509,6.44c-0.611,2.21-1.398,4.37-2.066,6.565
	c-0.292,0.961-0.479,1.955-0.712,2.934c-0.48,2.014-0.912,4.041-1.455,6.038c-0.405,1.487-0.987,2.924-1.432,4.402
	c-0.707,2.346-1.313,4.724-2.062,7.056c-0.542,1.687-1.28,3.311-1.867,4.985c-0.486,1.386-0.851,2.814-1.321,4.206
	c-0.631,1.866-1.343,3.705-1.962,5.576c-0.4,1.209-0.471,2.585-1.097,3.647c-0.688,1.168-1.048,2.402-1.52,3.628
	c-1.252,3.256-2.582,6.483-3.886,9.72c-0.879,2.181-1.725,4.377-2.665,6.532c-0.611,1.401-1.428,2.712-2.037,4.113
	c-0.568,1.306-0.913,2.708-1.479,4.015c-1.287,2.971-2.662,5.904-3.977,8.863c-0.993,2.234-1.884,4.517-2.938,6.721
	c-1.842,3.851-3.746,7.674-5.678,11.481c-1.331,2.622-2.736,5.207-4.143,7.79c-0.961,1.763-1.978,3.495-2.977,5.237
	c-1.741,3.036-3.47,6.078-5.238,9.098c-1.617,2.762-3.274,5.501-4.92,8.246c-1.161,1.936-2.305,3.882-3.507,5.792
	c-1.129,1.793-2.319,3.548-3.492,5.312c-0.725,1.09-1.553,2.12-2.189,3.259c-1.797,3.216-4.219,5.984-6.343,8.963
	c-1.772,2.485-3.749,4.823-5.57,7.274c-1.742,2.346-3.356,4.787-5.109,7.124c-1.272,1.696-2.683,3.288-4.025,4.932
	c-1.169,1.431-2.248,2.945-3.509,4.288c-1.858,1.979-3.435,4.195-5.469,6.04c-1.735,1.574-3.127,3.522-4.709,5.271
	c-1.656,1.831-3.495,3.515-4.999,5.461c-1.478,1.913-3.452,3.31-4.891,5.278c-1.172,1.602-2.868,2.83-4.367,4.184
	c-4.496,4.058-8.988,8.119-13.522,12.134c-3.318,2.938-6.648,5.867-10.071,8.68c-1.977,1.625-4.157,3-6.227,4.513
	c-1.66,1.214-3.268,2.5-4.943,3.693c-2.161,1.539-4.351,3.039-6.554,4.517c-3.351,2.248-6.799,4.361-10.069,6.72
	c-3.7,2.669-7.744,4.737-11.651,7.042c-3.527,2.081-7.088,4.116-10.73,5.985c-2.884,1.48-5.922,2.658-8.874,4.009
	c-2.705,1.239-5.367,2.572-8.082,3.788c-2.6,1.165-5.246,2.226-7.864,3.348c-0.619,0.265-1.198,0.629-1.82,0.886
	c-1.802,0.744-3.615,1.463-5.428,2.181c-1.042,0.413-2.086,0.823-3.142,1.2c-2.372,0.847-4.731,1.744-7.142,2.466
	c-0.769,0.23-1.726,0.12-2.524-0.099c-1.494-0.411-2.941-0.997-4.395-1.544c-2.472-0.93-4.904-1.976-7.409-2.803
	c-2.3-0.76-4.392-1.956-6.623-2.849c-4.39-1.757-8.624-3.867-12.976-5.712c-2.704-1.146-5.405-2.314-8.029-3.63
	c-2.765-1.387-5.455-2.93-8.144-4.463c-3.986-2.272-7.906-4.665-11.923-6.879c-4.309-2.375-8.247-5.301-12.319-8.028
	c-2.873-1.923-5.744-3.851-8.559-5.858c-5.5-3.921-11.062-7.764-16.12-12.265c-3.225-2.869-6.424-5.768-9.659-8.626
	c-2.585-2.284-5.3-4.431-7.79-6.813c-3.384-3.239-6.641-6.612-9.889-9.989c-2.314-2.405-4.527-4.908-6.777-7.374
	c-2.495-2.735-5.027-5.439-7.458-8.23c-2.4-2.756-4.746-5.563-7.021-8.424c-2.034-2.558-3.94-5.218-5.9-7.835
	c-2.29-3.058-4.572-6.121-6.866-9.175c-1.688-2.247-3.43-4.454-5.071-6.734c-1.139-1.582-2.14-3.261-3.216-4.889
	c-1.197-1.811-2.432-3.599-3.608-5.424c-0.93-1.444-1.798-2.929-2.688-4.398c-1.816-2.998-3.668-5.974-5.43-9.003
	c-1.918-3.295-3.727-6.654-5.63-9.959c-1.745-3.032-3.642-5.979-5.304-9.055c-1.597-2.955-2.972-6.029-4.456-9.045
	c-1.345-2.736-2.762-5.439-4.042-8.205c-1.223-2.644-2.292-5.359-3.466-8.026c-0.762-1.732-1.629-3.418-2.377-5.155
	c-0.661-1.533-1.179-3.127-1.84-4.66c-0.644-1.493-1.373-2.949-2.092-4.408c-0.888-1.8-1.298-3.783-2.571-5.461
	c-0.818-1.079-0.98-2.645-1.482-3.976c-0.795-2.111-1.655-4.198-2.438-6.314c-0.64-1.729-1.201-3.487-1.807-5.228
	c-0.548-1.574-1.107-3.143-1.664-4.713c-0.532-1.501-1.06-3.004-1.604-4.5c-0.463-1.273-0.969-2.532-1.416-3.811
	c-0.312-0.892-0.547-1.81-0.831-2.713c-0.385-1.226-0.811-2.439-1.165-3.673c-0.303-1.055-0.513-2.137-0.796-3.199
	c-0.189-0.709-0.421-1.407-0.653-2.104c-0.473-1.421-0.974-2.833-1.433-4.258c-0.261-0.811-0.485-1.635-0.69-2.462
	c-0.495-2-0.957-4.009-1.457-6.008c-0.189-0.757-0.472-1.49-0.667-2.245c-0.765-2.953-1.478-5.92-2.279-8.863
	c-0.556-2.044-1.289-4.04-1.819-6.09c-0.361-1.393-0.439-2.858-0.766-4.262c-0.52-2.229-1.168-4.428-1.712-6.651
	c-0.33-1.351-0.613-2.717-0.829-4.09c-0.243-1.543-0.387-3.101-0.61-4.944c0.271-0.274,0.686-0.78,1.185-1.182
	c3.914-3.155,7.825-6.315,11.776-9.423c3.557-2.798,7.185-5.505,10.739-8.307c1.791-1.412,3.439-3.006,5.24-4.404
	c1.633-1.267,3.405-2.355,5.083-3.567c2.225-1.606,4.381-3.311,6.636-4.873c2.498-1.729,5.084-3.33,7.615-5.012
	c4.418-2.936,8.813-5.909,13.239-8.834c2.99-1.977,6.025-3.886,9.023-5.852c1.585-1.039,3.066-2.26,4.727-3.153
	c0.838-0.451,1.7-0.896,2.554-1.315c3.331-1.637,6.426-3.662,9.612-5.534c3.132-1.841,6.218-3.764,9.391-5.53
	c3.278-1.824,6.67-3.444,9.954-5.259c3.416-1.889,6.744-3.936,10.146-5.849c1.356-0.763,2.821-1.33,4.215-2.028
	c1.208-0.605,2.368-1.307,3.583-1.897c1.206-0.586,2.469-1.052,3.68-1.629c1.795-0.856,3.503-1.939,5.364-2.596
	c1.784-0.63,3.209-1.896,5.064-2.405c1.506-0.414,2.887-1.29,4.313-1.982c1.876-0.911,3.735-1.858,5.613-2.764
	c3.145-1.517,6.287-3.041,9.455-4.51c1.845-0.855,3.74-1.602,5.602-2.421c0.093-0.041,0.088-0.307,0.148-0.544
	c1.115-0.037,2.067-0.755,3.115-1.159c1.186-0.457,2.336-0.992,3.511-1.476c3.261-1.341,6.553-2.604,9.832-3.9
	c1.636-0.647,3.282-1.27,4.9-1.959c1.927-0.821,3.812-1.741,5.748-2.54c1.285-0.531,2.638-0.897,3.942-1.386
	c2.916-1.094,5.817-2.229,8.732-3.325c1.354-0.509,2.735-0.949,4.09-1.455c1.695-0.632,3.395-1.259,5.06-1.964
	c1.659-0.702,3.497-0.971,4.935-2.239c0.477-0.42,1.329-0.116,2.047-0.586c0.85-0.557,2.054-0.561,3.093-0.844
	c0.687-0.187,1.356-0.442,2.031-0.67c4.027-1.36,8.053-2.721,12.285-4.151c2.536,0.882,5.198,1.823,7.873,2.726
	c0.807,0.273,1.658,0.414,2.477,0.655c1.618,0.477,3.281,0.857,4.826,1.511c1.378,0.584,2.794,0.936,4.212,1.351
	c1.056,0.309,2.013,0.948,3.024,1.416c0.81,0.375,1.627,0.742,2.46,1.061c0.783,0.3,1.603,0.506,2.388,0.8
	c1.883,0.706,3.758,1.436,5.633,2.164c1.407,0.547,2.797,1.137,4.214,1.654c1.819,0.663,3.669,1.242,5.482,1.92
	c0.74,0.276,1.471,0.644,2.113,1.1c0.611,0.435,1.313,0.176,2.02,0.593C298.452,48.846,300.227,49.178,301.975,49.761z
	 M78.599,291.962c0.108-0.026,0.217-0.053,0.325-0.079c-0.06-0.715-0.044-1.445-0.193-2.141c-0.4-1.862-1.097-3.663-1.124-5.601
	c-0.004-0.27,0.062-0.59-0.056-0.803c-1.119-2.017-0.612-4.317-1.117-6.468c-0.658-2.799-0.447-5.795-0.703-8.698
	c-0.54-6.135,0.741-12.203,0.603-18.321c-0.004-0.16,0.036-0.323,0.062-0.483c0.403-2.479,0.826-4.955,1.204-7.438
	c0.298-1.953,0.467-3.927,0.829-5.867c0.403-2.16,0.948-4.294,1.454-6.434c0.448-1.893,0.899-3.785,1.405-5.663
	c0.35-1.296,0.803-2.564,1.197-3.849c0.289-0.944,0.502-1.915,0.844-2.839c0.656-1.772,1.393-3.514,2.07-5.279
	c0.718-1.872,1.312-3.799,2.134-5.623c0.831-1.843,1.882-3.586,2.824-5.379c1.909-3.634,3.82-7.263,6.043-10.724
	c1.93-3.004,3.601-6.181,5.623-9.119c2.206-3.207,4.524-6.366,7.082-9.294c3.373-3.86,6.962-7.539,10.583-11.171
	c2.47-2.478,5.056-4.862,7.766-7.072c2.84-2.316,5.865-4.41,8.858-6.531c1.543-1.094,3.186-2.05,4.797-3.046
	c2.707-1.674,5.412-3.353,8.143-4.988c1.756-1.051,3.521-2.1,5.352-3.011c1.642-0.817,3.438-1.331,5.062-2.177
	c4.093-2.131,8.524-3.357,12.833-4.9c1.632-0.584,3.23-1.311,5.027-1.503c1.245-0.133,2.42-1.048,3.654-1.119
	c1.531-0.088,2.857-1.183,4.445-0.762c0.135,0.036,0.309-0.075,0.465-0.116c0.647-0.171,1.287-0.372,1.942-0.501
	c0.42-0.083,0.95,0.09,1.279-0.106c1.794-1.067,3.865-0.58,5.787-1.081c2.676-0.697,5.559-0.597,8.353-0.838
	c0.54-0.047,1.08-0.087,1.619-0.14c2.909-0.288,5.815-0.653,8.742-0.155c0.333,0.057,0.7-0.084,1.38-0.18
	c-0.591-0.715-0.977-1.277-1.456-1.744c-1.91-1.866-3.884-3.667-5.766-5.56c-1.652-1.662-3.189-3.437-4.819-5.121
	c-1.417-1.464-2.909-2.856-4.336-4.312c-0.566-0.577-0.352-1.255,0.443-1.462c0.412-0.107,0.859-0.097,1.291-0.104
	c1.733-0.027,3.472,0.032,5.199-0.081c1.294-0.084,2.571-0.536,3.86-0.558c4.334-0.074,8.67-0.032,13.005-0.024
	c0.704,0.001,1.523-0.171,2.089,0.123c1.526,0.79,3.112,0.433,4.671,0.513c1.622,0.083,3.333-0.22,4.848,0.206
	c1.452,0.408,2.853,0.332,4.28,0.468c2.394,0.229,4.781,0.54,7.17,0.817c0.053,0.006,0.105,0.026,0.158,0.036
	c2.108,0.38,4.212,0.782,6.325,1.134c2.224,0.37,4.472,0.614,6.682,1.054c3.309,0.659,6.604,1.4,9.886,2.183
	c2.284,0.545,4.543,1.202,6.803,1.846c1.432,0.408,2.825,1.16,4.27,1.262c2.04,0.145,3.849,0.998,5.71,1.572
	c1.998,0.616,4.072,1.012,6.028,1.872c2.332,1.026,4.87,1.573,7.28,2.437c2.818,1.01,5.579,2.18,8.393,3.202
	c2.684,0.974,5.406,1.847,8.111,2.764c0.387,0.995,1.381,0.465,2.049,0.805c1.855,0.945,3.761,1.793,5.656,2.658
	c1.692,0.773,3.407,1.499,5.094,2.284c1.302,0.606,2.571,1.281,3.863,1.909c2.332,1.133,4.681,2.232,7,3.392
	c0.664,0.332,1.2,0.94,1.878,1.225c3.853,1.623,7.239,4.094,10.962,5.957c2.799,1.401,5.495,3.009,8.206,4.579
	c0.357,0.207,0.698,0.72,0.746,1.126c0.132,1.114,0.127,2.247,0.135,3.373c0.016,2.32,0.005,4.639,0.005,7.041
	c0.713,0.299,1.529,0.538,2.239,0.957c2.572,1.517,5.107,3.097,7.658,4.648c4.06,2.468,7.97,5.149,11.653,8.156
	c1.762,1.438,3.637,2.755,5.276,4.32c2.183,2.085,4.267,4.288,6.238,6.575c1.417,1.645,2.562,3.523,3.861,5.273
	c1.963,2.645,3.503,5.53,4.948,8.476c0.275,0.561,0.716,1.053,0.92,1.633c0.522,1.485,0.954,3.002,1.421,4.506
	c0.608,1.956,1.353,3.883,1.782,5.878c0.413,1.923,0.573,3.912,0.705,5.881c0.124,1.835,0.061,3.683,0.089,5.524
	c0.062,4.1-0.081,8.187-0.726,12.245c-0.025,0.16-0.021,0.327-0.059,0.483c-0.403,1.641-0.796,3.284-1.226,4.917
	c-0.174,0.663-0.437,1.302-0.646,1.957c-0.511,1.607-0.797,3.33-1.565,4.802c-1.596,3.056-2.845,6.312-5.047,9.043
	c-1.457,1.808-2.684,3.808-4.211,5.55c-1.433,1.634-3.069,3.107-4.72,4.529c-1.371,1.182-2.868,2.225-4.359,3.258
	c-1.064,0.737-2.2,1.372-3.321,2.024c-2.285,1.33-4.75,2.253-7.253,3.062c-1.148,0.371-2.355,0.561-3.73,0.878
	c0.327-0.806,0.592-1.367,0.784-1.951c0.604-1.838,1.53-3.589,1.55-5.59c0.013-1.246,0.02-2.492,0.053-3.737
	c0.054-1.994-0.521-3.881-1.526-5.507c-2.968-4.799-7.422-7.331-12.992-7.977c-0.479-0.056-0.946-0.257-1.424-0.279
	c-1.882-0.087-3.767-0.175-5.651-0.162c-0.678,0.005-1.346,0.36-2.032,0.436c-1.043,0.116-2.046,0.261-3.085,0.517
	c-2.211,0.544-4.271,1.363-6.257,2.383c-2.744,1.409-5.374,3.028-7.406,5.413c-1.307,1.534-2.659,3.059-3.731,4.753
	c-1.077,1.702-1.861,3.594-2.716,5.429c-0.605,1.299-1.23,2.609-1.638,3.976c-0.577,1.932-0.77,3.993-1.475,5.868
	c-0.91,2.419-0.415,4.961-1.086,7.427c-0.833,3.056,0.579,6.167,0.667,9.287c0.028,0.991,0.265,2.036,0.661,2.945
	c1.043,2.394,2.227,4.726,3.353,7.083c1.54,3.226,3.543,6.143,6.086,8.646c2.486,2.446,5.133,4.712,8.188,6.455
	c2.066,1.179,4.058,2.496,6.168,3.589c2.149,1.114,4.318,2.356,6.63,2.946c2.605,0.664,4.911,2.187,7.638,2.428
	c1.061,0.094,2.115,0.351,3.153,0.61c1.495,0.373,2.961,0.863,4.46,1.219c3.109,0.739,6.249,1.237,9.454,1.425
	c4.262,0.251,8.51,0.729,12.769,1.033c1.503,0.107,3.024,0.034,4.531-0.057c0.459-0.028,1.054-0.274,1.318-0.623
	c0.944-1.249,1.776-2.583,2.646-3.888c1.848-2.775,3.689-5.554,5.541-8.327c1.358-2.033,2.778-4.027,4.079-6.096
	c1.131-1.798,2.122-3.684,3.199-5.518c2.094-3.568,4.231-7.111,6.295-10.696c0.983-1.707,1.825-3.493,2.755-5.231
	c0.959-1.791,1.979-3.55,2.916-5.352c2.055-3.95,4.063-7.924,6.113-11.876c1.535-2.961,3.116-5.898,4.656-8.857
	c0.491-0.943,0.967-1.899,1.361-2.885c0.55-1.374,0.944-2.812,1.535-4.166c0.84-1.925,1.865-3.77,2.689-5.702
	c1.08-2.532,2.045-5.114,3.052-7.677c0.247-0.629,0.441-1.279,0.702-1.902c0.824-1.967,1.755-3.895,2.486-5.896
	c1.218-3.335,2.303-6.717,3.46-10.074c0.916-2.659,1.861-5.307,2.782-7.964c0.261-0.753,0.449-1.533,0.729-2.278
	c0.633-1.684,1.33-3.343,1.951-5.031c0.926-2.519,1.211-5.246,2.571-7.638c0.462-0.812,0.581-1.824,0.829-2.752
	c0.327-1.227,0.578-2.477,0.947-3.691c0.82-2.698,1.755-5.363,2.526-8.075c0.601-2.114,1.034-4.276,1.528-6.419
	c0.252-1.094,0.426-2.207,0.723-3.288c0.318-1.157,0.81-2.268,1.101-3.43c0.443-1.769,0.808-3.559,1.152-5.35
	c0.341-1.778,0.616-3.57,0.907-5.28c-0.971-0.775-1.776-1.401-2.564-2.049c-2.529-2.081-5.008-4.225-7.589-6.239
	c-2.346-1.831-4.802-3.519-7.203-5.279c-1.904-1.396-3.812-2.786-5.689-4.217c-2.258-1.721-4.429-3.561-6.74-5.207
	c-2.947-2.099-6.007-4.038-8.996-6.08c-2.328-1.591-4.59-3.282-6.937-4.843c-3.115-2.071-6.255-4.107-9.439-6.069
	c-2.939-1.811-5.965-3.481-8.927-5.254c-2.647-1.585-5.27-3.212-7.886-4.848c-1.255-0.785-2.463-1.665-3.698-2.458
	c-2.987-1.918-6.16-3.549-9.274-5.268c-3.631-2.005-7.273-3.991-10.921-5.964c-1.081-0.584-2.219-1.062-3.297-1.651
	c-1.721-0.942-3.377-2.009-5.126-2.894c-3.186-1.613-6.441-3.09-9.628-4.701c-2.649-1.34-5.224-2.826-7.864-4.183
	c-2.794-1.436-5.62-2.812-8.447-4.183c-2.607-1.264-5.218-2.523-7.861-3.71c-1.686-0.757-3.439-1.366-5.152-2.065
	c-1.056-0.431-2.211-0.745-3.111-1.401c-1.337-0.974-2.863-1.478-4.323-2.142c-1.758-0.8-3.576-1.466-5.363-2.203
	c-1.624-0.669-3.374-1.154-4.807-2.112c-0.759-0.508-1.519-0.376-2.213-0.733c-1.01-0.519-2.057-0.967-3.247-1.52
	c0,0.146,0.032-0.179-0.005-0.187c-1.437-0.312-2.73-0.933-4.006-1.654c-0.869-0.491-1.881-0.72-2.8-1.13
	c-1.123-0.501-2.186-1.143-3.327-1.594c-2.668-1.055-5.368-2.026-8.051-3.043c-2.094-0.794-4.176-1.62-6.275-2.4
	c-0.762-0.283-1.639-0.461-2.304-0.77c-1.68-0.781-3.447-1.259-5.158-1.91c-0.734-0.279-1.711-0.248-2.215-0.734
	c-1.054-1.015-2.437-0.958-3.632-1.462c-1.815-0.766-3.719-1.323-5.583-1.974c-1.498-0.523-2.982-1.091-4.494-1.572
	c-1.373-0.437-2.774-0.784-4.153-1.169c-0.379,0.15-0.791,0.334-1.217,0.477c-1.339,0.449-2.685,0.878-4.024,1.324
	c-1.57,0.524-3.133,1.07-4.707,1.585c-1.904,0.623-3.832,1.178-5.721,1.844c-2.786,0.983-5.567,1.987-8.306,3.093
	c-0.835,0.337-1.85,0.354-2.477,0.774c-0.894,0.6-1.904,0.65-2.795,1.115c-0.754,0.393-1.654,0.495-2.442,0.835
	c-1.689,0.728-3.31,1.625-5.027,2.273c-2.506,0.946-5.035,1.806-7.442,3.018c-2.136,1.075-4.387,1.921-6.585,2.874
	c-1.069,0.463-2.115,0.985-3.203,1.398c-1.356,0.515-2.813,0.808-4.103,1.447c-1.663,0.823-3.371,1.511-5.079,2.216
	c-1.785,0.738-3.549,1.528-5.313,2.318c-1.861,0.834-3.733,1.648-5.556,2.56c-1.062,0.531-2.193,0.902-3.235,1.41
	c-1.368,0.667-2.722,1.321-4.166,1.809c-0.69,0.233-1.358,0.548-2.007,0.884c-1.166,0.604-2.288,1.294-3.465,1.874
	c-2.818,1.39-5.671,2.71-8.483,4.113c-1.295,0.646-2.504,1.463-3.792,2.124c-2.139,1.098-4.312,2.128-6.466,3.198
	c-0.994,0.494-1.972,1.019-2.962,1.521c-2.914,1.478-5.846,2.92-8.741,4.435c-2.411,1.261-4.775,2.613-7.168,3.91
	c-3.343,1.812-6.739,3.533-10.031,5.435c-4.518,2.61-8.967,5.342-13.433,8.042c-2.513,1.52-4.992,3.096-7.503,4.62
	c-3.524,2.139-7.097,4.198-10.584,6.393c-2.939,1.85-5.784,3.848-8.674,5.776c-2.206,1.471-4.461,2.874-6.615,4.417
	c-3.459,2.477-6.842,5.059-10.278,7.567c-2.592,1.892-5.241,3.708-7.824,5.612c-3.196,2.356-6.389,4.72-9.513,7.171
	c-3.093,2.427-6.098,4.967-9.211,7.514c0.072,0.486,0.108,0.963,0.218,1.423c0.353,1.483,0.772,2.951,1.093,4.44
	c0.298,1.383,0.49,2.789,0.755,4.181c0.188,0.988,0.23,2.062,0.667,2.932c1.144,2.275,1.18,4.837,2.08,7.185
	c0.748,1.951,0.954,4.107,1.42,6.169c0.22,0.976,0.292,2.053,0.77,2.89c0.997,1.745,1.222,3.708,1.875,5.543
	c0.812,2.282,1.553,4.589,2.306,6.892c0.259,0.792,0.434,1.611,0.696,2.402c0.576,1.739,1.195,3.465,1.774,5.203
	c0.528,1.586,0.974,3.201,1.552,4.767c0.845,2.288,1.834,4.523,2.651,6.82c0.572,1.61,0.871,3.317,1.45,4.924
	c0.791,2.191,1.753,4.318,2.602,6.489c0.551,1.407,0.989,2.86,1.555,4.26c0.556,1.374,1.226,2.701,1.819,4.061
	c0.59,1.354,1.16,2.717,1.712,4.086c0.333,0.825,0.594,1.68,0.928,2.505c0.77,1.905,1.556,3.804,2.35,5.7
	c0.556,1.329,1.066,2.685,1.719,3.966c1.211,2.377,2.558,4.684,3.763,7.064c1.573,3.105,3.048,6.26,4.594,9.379
	c1.517,3.063,3.061,6.113,4.613,9.159C77.519,290.071,78.073,291.01,78.599,291.962z M334.105,158.769
	c1.02,0,2.045-0.007,3.071,0.002c0.994,0.008,1.905,0.133,2.89,0.542c1.112,0.462,2.478,0.034,3.711,0.697
	c1.153,0.62,2.512,0.853,3.77,1.286c0.706,0.243,1.39,0.528,2.123-0.213c-0.286-0.325-0.521-0.771-0.89-0.979
	c-1.249-0.705-2.503-1.431-3.831-1.959c-3.748-1.489-7.278-3.474-11.243-4.487c-3.306-0.844-6.487-2.164-9.865-2.813
	c-1.229-0.236-2.398-0.765-3.614-1.092c-1.192-0.321-2.413-0.203-3.672-0.594c-2.125-0.661-4.483-0.575-6.745-0.79
	c-0.484-0.046-1.116,0.151-1.433-0.089c-1.112-0.842-2.348-0.5-3.535-0.553c-1.243-0.055-2.491,0.026-3.734-0.024
	c-1.053-0.043-2.088-0.255-3.124-0.45c-2.023-0.382-4.169-0.112-6.388-0.112c0.098,0.402,0.073,0.847,0.283,1.071
	c0.987,1.051,2.003,2.08,3.076,3.043c0.99,0.889,2.044,1.709,3.104,2.514c2.593,1.971,5.209,3.908,8.311,5.044
	c0.064,1.133,1.153,0.447,1.706,0.935c0.886,0.781,2.115,1.228,3.259,1.65c2.594,0.957,5.214,1.848,7.846,2.696
	c1.632,0.526,3.292,0.984,4.967,1.349c0.568,0.124,1.297,0.02,1.816-0.245c1.066-0.544,2.026-1.292,3.056-1.913
	C330.95,162.121,332.453,160.494,334.105,158.769z"/>
</svg>
