<?xml version="1.0" encoding="utf-8"?>
<!-- Generator: Adobe Illustrator 24.2.0, SVG Export Plug-In . SVG Version: 6.00 Build 0)  -->
<svg version="1.1" id="Layer_1" xmlns="http://www.w3.org/2000/svg" xmlns:xlink="http://www.w3.org/1999/xlink" x="0px" y="0px"
	 viewBox="0 0 500 500" style="enable-background:new 0 0 500 500;" xml:space="preserve">
<style type="text/css">
	.st0{fill-rule:evenodd;clip-rule:evenodd;}
</style>
<path class="st0" d="M362.9,279.4c0.4-1.6,0.8-3.3,1.2-5.1c7.3-34,29.8-41.7,43-41.7c0.1-0.1,0.3-0.1,0.4-0.2
	c13.1-0.1,19.7,5.1,22.2,7.6c3.3,3.3,11.5,13.3,1.6,29.2c20.6-3.5,52.9-23.4,55.2-74.3c2-42-27.3-69.9-60.3-89.1l0,0.2
	c0,0-0.1-0.1-0.1-0.1l-8.2-4.1c0,0,1.6-10,0-16.7c-98.5-62-200.3-68-238.7-63.3L204.3,47C94.9,54.7,7.5,143.4,7.5,252.4
	c0,127,112.8,231.9,251.9,231.9c104,0,190.4-60.4,235.6-141.4C434.8,356.6,363.8,332.1,362.9,279.4z M402,101.9
	c-0.8-0.4-13-4.2-25.4-5.9c-6.4,6.7-12.4,9.9-14.1,10.8c-37.4-8-51-27.4-51-27.4C346.8,79.2,378.6,87.7,402,101.9z"/>
</svg>
