<?xml version="1.0" encoding="utf-8"?>
<!-- Generator: Adobe Illustrator 26.2.1, SVG Export Plug-In . SVG Version: 6.00 Build 0)  -->
<svg version="1.1" id="ape" xmlns="http://www.w3.org/2000/svg" xmlns:xlink="http://www.w3.org/1999/xlink" x="0px" y="0px"
	 viewBox="0 0 500 500" style="enable-background:new 0 0 500 500;" xml:space="preserve">
<g>
	<path d="M490.7,138.9c-1.4,8.8-3.3,13.2-5.4,18.1l0,0c-2.2,5.4-4.8,11.4-7.1,23.6c-0.9,4.9-1.3,8.4-1.7,11.6v0.1v0.1
		c-0.6,5.1-1,8.4-3,14.5c-1.6,4.9-4.5,13.2-11.1,22c-5.4,7.1-14.5,19.1-26.5,20.5c-1,0-3.2,0.1-4.2-0.3
		c-34.1-17.5-63.5-30.4-73.6-33.3c-11.9-3.3-10.3-29.1-9-51.8c0.6-10.1,1.2-19.8,0.7-27.9c-1.6-28.6-6.8-60-31.7-75.4
		C303.3,51.7,284,49,265.7,49c3.5-1.6,7.2-3.8,11.3-6.2l0.1-0.1c10.8-6.2,24.3-14,37.6-15.5c4.3-0.4,8.7-0.9,12.9-1.4
		c26.9-3,50.2-5.6,74.6,2.7c11.1,3.8,34,16.5,39.8,28.3c4.2,8.4,11.1,14.9,25.2,27.8c7.2,6.8,12,10.7,15.6,13.6l0.1,0.1
		c4.9,4,5.9,4.9,7.4,8C494.6,115.5,493,125.3,490.7,138.9z"/>
	<path d="M365.7,256.5c2,0.7,2.7,3,1.6,4.8c-3.6,5.5-7.7,12.9-12.4,21.8c-2.3,4.3-4.6,8.5-6.5,11.7c-6.7,11.4-7.1,21-7.5,28.6
		c-0.4,8.1-0.9,11.7-5.6,14.9c-3.9,2.6-8,3.5-36.2,7.8c-4.9,0.7-7.1,1.7-9,2.6c-0.3,0.1-0.6,0.3-0.9,0.4c-1.9,0.9-3.9-0.9-3.8-3
		c0.1-3.9,0.3-8.7,0.3-14.8v-1.2c0.1-5.5-0.1-10-0.3-13.6c-0.4-7.2-0.4-10.3,1.4-13.3c2.3-3.8,4.2-4.9,7.2-6.8
		c4.2-2.6,10-6.2,18.5-18.1c4.5-6.2,5.5-9.5,6.2-12.4c0.3-1.2,0.4-1.6,3.9-4.3c3.8-2.7,14.9-11.3,29.4-9
		C355.9,253.5,360.7,254.8,365.7,256.5L365.7,256.5z"/>
	<path d="M254.7,386.4c-0.6,0.9-1.3,1.2-2.3,1.2c-2.9,0.1-5.1-0.6-6.4-2.3c-2.9-3.5-2.5-10.6-1.9-14.8l11.9-3.2
		C256.8,373.8,257.3,382.9,254.7,386.4z"/>
	<path d="M255.5,343.6c-0.1,1.7-0.4,3.6-0.4,5.8c0,0.7,0,1.6,0,2.3c0,1.9,0.1,5.1-0.1,6.4c-3.8,1.3-6.9,1.3-11,1.3c0-1.2,0-3,0-4.2
		c0-0.9,0.1-1.9,0.1-2.7c0-1,0-2,0-2.9c0-2.3,0-6.1,0.6-7.1c1.2-0.1,2.3-0.4,3.5-0.7c2.5-0.6,5.6-1.2,7.7-0.9
		C255.8,341.4,255.7,342.6,255.5,343.6z"/>
	<path d="M233.5,382.8c-0.6,6.1-2.5,13.6-8.2,14.8c-2.6,0.6-3.8-0.3-4.6-1c-3.9-3.6-4.5-14.3-3.9-22.1c2.6,0,5.9-0.6,10-1.3
		c2.5-0.4,4.9-1,6.8-1.4C233.8,374.5,234,378.6,233.5,382.8z"/>
	<path d="M230.8,360.9l-12.9,4.5c0.7-5.1,1.6-12,1.9-16.8c0.3-3.3,1.2-4.3,1.4-4.5c0.1-0.1,0.3-0.3,0.7-0.3c0.1,0,0.1,0,0.3,0h0.3
		l8.1-0.4C230.9,347.3,230.9,355.7,230.8,360.9z"/>
	<path d="M210,356.9c-0.7,1.9-1.6,7.4-2.2,11.3l-16.2-0.4c0.9-5.1,2.2-10.1,3.6-14.2s2.9-7.1,4.3-8c1.6-1,5.2-1.2,7.4,0.7
		C210.5,349.4,211.6,352.8,210,356.9z"/>
	<path d="M204,406.4c-1.3,1.7-2.6,2.6-4.3,2.7c-1.7,0.1-3.2-0.1-4.2-1.2c-5.1-4.6-4.6-20-4.5-27.3c6.7-1.6,13.9-2.9,17.4-3
		C208.8,383.6,209,399.6,204,406.4z"/>
	<path d="M182.9,367.3c-0.7,2.2-1.6,4-2.2,5.8c-1.9,0.6-7.7,0.1-13.5-1.2l4-25.5c6.7-1.7,14.3-2.3,16.2-0.3
		C189.9,348.8,184.9,361.8,182.9,367.3z"/>
	<path d="M175.5,410.3c-3.2,3.9-7.8,5.6-14.3,5.6c-4.5-0.1-6.2-1.7-6.9-3c-3.6-5.8-0.1-19.4,3.5-28.1l21.8,1.3
		c0.3,1.6,0.4,3.3,0.4,5.4C180.3,397.5,179.6,405.3,175.5,410.3z"/>
	<path d="M356.5,225.7c-19.7-5.6-17.9-34.4-16.3-62.2c0.6-9.8,1.2-19.2,0.7-26.8c-1.4-26-5.9-54.4-26.9-67.3
		c-22.6-13.7-59.4-10.7-82.2-7.8l0,0l0,0c-8.4,2.5-16.2,4.2-22.1,3.9c-13.5-0.7-23.9-6.4-33.1-11.3c-7.2-3.9-13.5-7.2-19.4-7.2
		c-0.3,0-0.6,0-1,0c-17.6,1.2-25.7,5.5-33.1,12c-1.9,1.6-4,6.4-11.6,27.8c-3.8,10.7-4.5,16.6-5.1,22.4c-0.6,5.2-1.3,10.6-4,18.7
		c-1.9,5.5-3.3,10.3-4.8,14.9c-3.6,12.3-6.5,21.8-15.2,33.4c-1,1.3-2.3,3.3-3.8,5.6c-2,3-4.3,6.9-7.7,11.4
		c-2.3,3.2-7.5,14.9-7.2,18.5c0.4,5.6,2.3,9.3,4.3,13.3c2.2,4,4.5,8.7,4.9,15v1c0.7,10.1-0.7,15.2-19.8,32.3
		c-12.3,11-21,21.6-26.9,29.4c-0.6,0.7,0.1,1.7,1,1.6c0.1,0,0.4,0,0.6,0c0.4,0,0.7,0,1.2,0s0.7,0,1.2,0s0.7,0,1.2,0.1
		c4.6,0.6,9.1,2.5,12.4,5.9c0.6,0.6,1.4,0.7,2.2,0.4c3.2-1.3,6.5-1.2,9.8-0.7c3.9,0.4,7.8,1.4,10.6,3.9c1,0.9,2.5,1.4,3.8,1.2
		c3-0.6,6.2-0.6,9.3,0.6c2.2,0.9,4,2,5.6,3.6c1.4,1.4,3.9,1.7,5.6,0.7c0.7-0.4,1.4-0.7,2.3-1c4.2-1.4,8.8-0.6,12.9,0.9
		c2,0.7,4,1.3,5.9,2.6c3,2,4.9,4.8,6.2,8c1,2.5,4.3,3.2,6.4,1.7c2.6-1.9,4.6-2,6.8-1.2c0.9,0.4,1.6,0.9,2,1.4c1.6,1.7,3.9,3.5,6.2,3
		c6.4-1.4,13.9-0.4,19.5,2.5c2,1.2,4,2.7,5.6,5.2l0,0l0,0l0.1-1.2c0.1-0.4,0.4-0.9,0.9-1l1.3-0.4c3.2-1,19.5-5.6,25.7,1
		c0.3,0.3,0.7,0.3,1,0c0.9-1,1.6-1.4,2-1.7c4.2-2.5,11.1-2.6,15.9,1.3c1,0.7,2.5,0.4,3.2-0.4c0.4-0.6,0.9-1.2,1.4-1.6
		c1.6-1.4,3.8-2.2,6.1-2l9-0.4c2.3-0.1,9.3-0.6,11.4-1c0.1,0,0.3,0,0.6-0.1c0.9-0.1,2-0.4,3.2-0.6c4.3-1,9.3-2,13.3-0.1
		c3.9,1.7,3.3,6.2,2.9,10.1c-0.1,1.6-0.4,3.2-0.4,4.8c0,0.7,0,1.4,0,2.2c0,3.3,0.1,6.5-0.6,8.8l0,0l0,0l0.4,1.9
		c0.4,1.9,2.3,2.9,3.9,1.9c3-1.9,6.1-4.2,7.1-5.6c0.1-0.1,0.1-0.3,0.1-0.4c0.1-0.4,0.4-1.2,0.7-2.7c0.6-3.3,1.2-10.1,1.2-23.7
		c0-0.7,0-1.3,0-1.4c0.1-5.1-0.1-9.1-0.3-12.7c-0.4-7.4-0.7-13.3,3-19.2c3.6-5.8,7.1-8,10.4-10.1c3.9-2.5,8.2-5.2,15.8-15.3
		c3.6-5.1,4-7.1,4.5-8.7c0.9-3.8,2-6.1,7.7-10.3c4.6-3.5,18.5-14,37.2-10.8c6.2,1,16.1,4.3,25.9,8.2l0,0l0,0c0.3,0.1,0.7,0.3,1,0.4
		c0.1,0.1,0.3,0.1,0.4,0.3c8.5,3.3,16.8,7.2,22.3,10.3c1.6,0.9,3.5,0.3,4.6-1c1.7-2,3.5-3.3,5.5-4.5c0.7-0.4,1.4-0.9,2-1.3
		c1.9-1.6,1.9-4.9-0.3-5.9C389.2,235.5,364.6,228,356.5,225.7L356.5,225.7z M168.7,231.8c-6.1,26.6-47.4,56-66.2,56h-0.4
		c-0.3,0-0.6,0-1-0.1c-0.3,0-0.7-0.1-1.2-0.3c-0.1,0-0.4-0.1-0.6-0.1c-3.5-1-8.1-3.8-11.7-7.2c-2.5-2.5-4.3-5.2-5.1-8.4
		c-0.1-0.6-0.3-1-0.3-1.6c-1-4.5-2.3-10.3,1.7-19.5c0.6-1.3,1-2.5,1.4-3.5c0.1-0.3,0.3-0.7,0.4-1c0.4-1,0.9-1.9,1.2-2.7
		c0.6-1.4,1-2.6,1.4-3.6c0.1-0.4,0.3-0.7,0.4-1.2c1.2-3.2,1.3-4.3,1.4-5.6c0.1-1,0.3-2.2,0.7-3.9c1.2-5.1,1.7-9.3,2.3-13
		c1-6.8,1.7-12.6,5.5-18.1c0.6-0.9,1.3-1.7,2-2.5c0.3-0.3,0.6-0.4,0.9-0.7c0.3-0.3,0.6-0.4,0.9-0.7c0.9-0.6,1.9-1.2,2.9-1.6
		c0.3-0.1,0.7-0.3,1-0.4c0.7-0.3,1.4-0.4,2.3-0.7c3.3-0.9,7.4-1,11.9-0.4c5.1,0.4,9.5,1.3,13.7,2.5c3.5,1,6.5,2,9.1,3
		c0.3,0.1,0.6,0.1,0.7,0.3c0.4,0.1,1,0.4,1.4,0.6c0.7,0.3,1.3,0.6,2,0.9c0.9,0.4,1.6,0.7,2.2,1l0.6,0.3c2.9,1.3,5.4,2.7,7.5,4.3
		c1,0.7,2,1.6,2.9,2.3c0.3,0.3,0.6,0.6,0.9,0.9c0.3,0.3,0.6,0.6,0.9,0.9C170.5,216.2,170.1,225.9,168.7,231.8z M187.8,130.7
		l-0.9,4.8c-1.9,10.8-6.1,25.9-21.8,29.6c-15,3.8-18.7,4.5-29.4,4.9c-0.3,0-0.4,0-0.7,0c-7.8,0-23-4.9-25.6-17.2
		c-1.7-8,1.7-13.6,7.5-23.1c1-1.6,2-3.2,3-5.1c7.7-12.9,10.6-22.1,13-29.5c2.3-7.2,4.3-13.3,9.3-18.2c1.2-1.2,2.5-2.3,4-3.3
		c1-0.7,2-1.3,3-1.9c1.4-0.7,2.9-1.3,4.5-1.9c3.5-1.2,7.2-1.7,11-1.7c7.4,0,14.6,2.2,19.8,6.2c2.3,1.9,5.6,5.6,7.7,16.8
		C193.5,97,191.7,107.4,187.8,130.7z M299.8,161.6c-5.4,9.3-8.4,14.3-13,18.2c-9.3,7.7-20.1,9.5-28.9,9.5c-6.4,0-11.9-1-15-1.6
		c-9.3-1.7-26.3-4.8-32-18.2c-1.2-2.6-1.2-4.3-1.2-6.5c0-2.2,0-5.6-1-14.2v-0.6c-0.4-3.9-1-8.2,0.1-13.7l0.1-0.7
		c3.2-16.3,4-18.9,4.8-20.2c1.7-3.2,5.6-4.5,8.8-2.9c3.2,1.6,4.5,5.4,2.9,8.5c-0.3,0.9-1.3,4.5-3.8,17.1l-0.1,0.7
		c-0.7,3.6-0.4,6.2,0,9.7v0.6c1,9.3,1,13.5,1,15.6c0,0.4,0,0.9,0,1.2c0,0.1,0,0.3,0.1,0.3c1,2.3,3,4,5.5,5.5c2.2,1.2,4.5-0.9,4-3.3
		c-2.7-14.2-2.5-30.5,2.9-40.6c1.7-3.5,5.2-9.1,8.4-14.5l0,0l0,0c0.3-0.6,0.6-1,1-1.6c0.3-0.4,0.6-0.9,0.7-1.3
		c1.4-2.3,2.7-4.5,3.8-6.2c0.1-0.3,0.3-0.4,0.4-0.7c0.1-0.1,0.1-0.3,0.3-0.4c0.3-0.4,0.4-0.7,0.6-1c0.1-0.1,0.1-0.3,0.3-0.4
		c0,0,0-0.1,0.1-0.1c0.1-0.1,0.1-0.3,0.3-0.4c0.1-0.3,0.3-0.4,0.4-0.6l0,0c0,0,0,0,0-0.1l0,0c0.7-1.2,1.6-2.2,2.3-3.3
		c1.7-2.3-0.3-5.4-2.9-4.2c-4.6,2-7.7,4.5-8.4,4.9c-2.9,2.3-6.9,1.7-9.3-1c-2.3-2.9-1.7-6.9,1-9.3c3.3-2.6,21.3-15.8,42.7-9.5
		c15.5,4.3,23.6,16.2,26.6,20.7c2.5,3.6,10,14.6,9.7,29.8C313.5,138.1,308.6,146.5,299.8,161.6L299.8,161.6z"/>
	<path d="M160.5,81.8c-1.2,2.6-2.5,5.9-3.8,9.5c-3.3,8.2-7.1,17.6-8.8,21.1c-3,5.9-5.5,9.5-7.4,12.6c-2.2,3.5-3.9,6.2-5.4,10
		c-2.3,6.7-2.7,14-1.2,22.1c-4-0.4-10.8-3.3-11.6-6.8c-0.6-2.6,1-5.5,5.9-13.6c1-1.6,2-3.3,3.2-5.2c8.4-14,11.7-24.6,14.2-32.1
		c2.7-8.4,3.9-11.9,8.2-14.8C155.7,83.1,158,82.2,160.5,81.8z"/>
	<path d="M152.4,376.7c-4.5,9.3-10.3,17.9-13.7,22.1c-2.9-8-8-26-6.7-40.6c0-0.4,0.1-0.9,0.1-1.3c0.6-4.5,1.7-8.7,3.9-12
		c1.4-2.2,5.4-3.5,9.7-3.5c3.3,0,6.8,0.7,9.8,2.3l0,0c1.6,0.9,3.9,2.6,4,7.8C159.9,358.6,156.6,368,152.4,376.7z"/>
	<path d="M401.8,272.6c0.3,0.3,0.6,0.7,0.4,1.2c-1.3,2.7-3,4.6-4.9,6.9c-2.3,2.7-4.9,5.9-7.5,10.8c-3.5,6.9-4.6,13.3-5.2,29.5
		c-0.7,19.1,0,29.6,0.6,37.5c0.6,7.5,0.9,12-0.4,19.4c-2.7,14.8-9,24.6-17.1,37c-10,15.5-20.4,31.5-37.6,36.7
		c-1.6,0.4-1.6,0.4-6.1,0.6c-3.9,0-10.4,0-22.7,0.4c-22.4,0.9-33.7,1.2-43.4,3c-10.1,2-15.3,4-20.5,6.2c-4.6,1.9-9,3.6-17.4,5.4
		c-4.9,1-12.4,2.2-37.7,2.2c-26.3,0-42.2,0-63.3-2.3c-28.8-3.3-43.4-4.9-52.9-10.1c-22.7-12.1-32.3-33.8-48.2-69.9
		c0,0,0-0.1-0.1-0.1c-0.1-0.4,0.3-0.9,0.7-0.6c0.7,0.4,1.6,0.9,2.3,1.2c0.7,0.3,1.4,0.4,2.2,0.6c1.4,0.3,2.9,0.3,4.5,0
		c0.3,0,0.6-0.1,0.7-0.1h0.1c0.3-0.1,0.6,0,0.7,0.3c1,2.7,2.6,5.2,5.4,6.7c2.7,1.4,5.8,1.4,8.8,1.4c3,0,6.2-0.3,9.3-0.6
		c1.6-0.1,3.3,0.6,3.9,2.2c2.7,6.8,6.4,11.7,11.6,12.4c0.3,0,0.7,0.1,1.2,0.1c1,0,2.5-0.3,4.6-1.4c2.5-1.4,6.4-0.6,8.2,1.7
		c1.2,1.3,2.3,2.3,3.5,3.2c5.4,5.5,18.5,8.2,29.5,8.2c6.1,0,11.4-0.7,14.6-2.3c4.5-2.2,4.5-5.6,4.3-6.9c-0.4-2.5-0.7-4.9-1-7.2
		c0-0.3,0.4-0.4,0.6-0.1c0.7,1.4,1.4,3.2,3.6,3.6c0.3,0,0.4,0.1,0.7,0.1c3,0,7.8,1,8.7,3.9c0.4,1.4,1,2.9,1.9,4.2
		c1.9,2.9,5.6,6.4,13,6.5h0.6c8.5,0,15.2-2.7,19.5-8.2c0.3-0.3,0.6-0.7,0.9-1.2c1.6-2.3,6.4-2.3,8.4-0.4c2.3,2.2,5.2,3.2,8.4,3.2
		c0.6,0,1,0,1.6-0.1c3.8-0.4,7.1-2.5,9.5-5.9c1.6-2.3,2.7-5.1,3.6-8.1c0.3-0.9,1.4-1.2,2.2-0.6c1.6,1.4,4.2,3,8.1,3
		c0.9,0,1.9-0.1,3-0.3c7.4-1.4,11.1-7.7,12.9-14.6c0-0.3,0.4-0.3,0.6-0.1c1.9,2.3,5.4,4.9,11.4,4.9c0.3,0,0.6,0,1,0
		c3.2-0.1,5.9-1.6,7.8-4c2.3-3,3.2-7.4,3.5-11.7c0.1-1.6,1.2-3,2.6-3.8c6.2-2.7,13.7-8.2,15.9-12.1c0,0,0,0,0-0.1
		c0.7-1.2,1.7-2.2,3-2.5c4.6-0.9,6.8-1.9,8.7-2.6c1.6-0.7,2.9-1.3,6.5-1.9c28.5-4.3,34.1-5.4,40.2-9.4c9.3-6.2,9.7-14.6,10.1-22.9
		c0.4-6.9,0.9-14.8,6.2-24c2-3.3,4.2-7.5,6.7-12c4-7.7,9.8-18.2,14-24c1-1.3,2.7-1.7,4.2-1.2C391.8,267.1,399.9,271.1,401.8,272.6
		L401.8,272.6z"/>
	<path d="M124.6,357.3c-1.2,9.8-1.9,23-0.3,40.2c0.4,4.8,1,9.8,1.9,14.9c-1.3,0.7-5.4,1.7-12.6,1.6c-10.3-0.1-20.4-2.7-23.4-6.1
		l-0.4-0.4c-2.5-2-4.2-3.3-4.3-6.9c-0.1-1.2,0.4-2.5,1.6-4.2c0.6-1,1.4-2,2.5-3.5c1.7-2.3,3.9-5.2,6.1-9c6.5-10.8,9-14.3,12-18.5
		c0.3-0.3,0.4-0.7,0.7-1c1.9-2.5,4-5.5,7.2-10.4c2.5-3.6,4.5-6.5,6.1-8.8c2.7-3.8,4.6-5.8,5.8-6.9c-0.1,1.7-0.6,4-0.9,6.2
		C125.9,348.2,125.2,352.4,124.6,357.3L124.6,357.3z"/>
	<path d="M120,204c0,0.1-0.1,0.1-0.1,0.3c-1.3,1.9-2.9,3.9-4.8,8.1c-4.9,11-5.1,17.1-5.1,22.1c0,2.6-0.1,4.6-0.7,7.1
		c-0.4,1.6-1.3,3.5-2.2,5.5c-2.9,6.7-6.7,15.3-5.1,27c-2.3-1.2-5.9-3.8-6.5-5.1c-0.1-0.6-0.3-1.3-0.4-1.9c-0.9-3.6-1.3-6.1,1-11.4
		c6.1-14,6.8-17.5,7.4-21.3c0.1-0.9,0.1-1.4,0.4-2.6c1.3-5.5,2-10.3,2.5-14.2c0.9-5.8,1.4-9.7,3.3-12.6c0.7-1,2.7-1.6,5.6-1.6
		c1.2,0,2.5,0.1,3.9,0.3h0.3C119.7,204,119.9,204,120,204z"/>
	<path d="M111.9,343c-0.3-3.3-0.9-6.8-2.2-10c-0.1-0.1-0.4-1-0.6-1.2c-0.3-0.4-0.4-0.7-0.7-1.2l0,0l0,0c-0.1-0.1-0.3-0.3-0.4-0.4
		c-0.1-0.1-0.4-0.4-0.6-0.6l-0.1-0.1c-0.1-0.1-0.3-0.1-0.4-0.3c-0.3-0.1-0.4-0.3-0.7-0.4c-0.1,0-0.3-0.1-0.4-0.1l0,0h-0.1
		c0,0,0,0-0.1,0c0,0,0,0-0.1,0c-0.1,0,0,0,0,0c-0.1,0-0.1,0-0.1,0c-2-0.7-3.9-1.4-6.1-1.9c0,0,0,0-0.1,0l0,0c-0.3,0-0.7,0-0.7,0
		c-0.3,0-0.6,0-0.9,0c-0.1,0-0.3,0-0.4,0h-0.1h-0.1c0,0,0,0-0.1,0l0,0c-0.4,0.1-1,0.3-1.4,0.4c-0.1,0.1-0.4,0.1-0.6,0.3
		c-0.1,0.1-0.3,0.3-0.6,0.3l0,0l0,0c-0.3,0.3-0.4,0.4-0.7,0.7c-0.1,0.1-0.3,0.3-0.4,0.6l0,0l0,0l0,0l0,0c0,0.1-0.1,0.1-0.1,0.3
		c-0.7,1.2-1.6,2.5-2.5,3.6c-1.9,2.9-3.9,5.8-5.8,8.7c-1.7,2.6-3.6,5.2-5.4,7.8c-1,1.4-2,2.9-2.9,4.3c-0.1,0.3-0.3,0.4-0.4,0.7
		c1.2,0.3,2.3,0.4,3.5,0.7c2.6,0.4,5.2,1,8,1.3c5.5,0.7,11.1,1.2,16.8,0.9c0.3,0,0.6,0,0.7,0c1.3-1.9,2.9-4.2,4.9-7.2
		c1.2-1.7,2.2-3.3,3.2-4.8C112.3,344.7,112.1,344,111.9,343L111.9,343z"/>
	<path d="M92.2,365.9c-0.4,4.2-5.2,15.3-12.7,25.7c-6.2,8.8-10,10.8-10.7,11c-3-0.4-5.9-7.8-8.2-15.2c-1-3-1.7-5.9-2.5-8.5
		c-1.6-5.6-1.9-13.2-1.6-17.8c6.2,3.5,17.4,4.5,32.7,4.5l0,0C90.2,365.7,91.2,365.9,92.2,365.9z"/>
	<path d="M81.2,330.9L81.2,330.9c-0.1,0.1-0.1,0.3-0.1,0.3c-2.6,3.9-5.4,7.8-8,11.7c-1.4,2-2.7,4-4.2,6.1c-0.7,1.2-1.7,2.3-2.6,3.6
		c-2.2-0.6-4.3-1-6.5-1.6c-1.7-0.6-3.5-1-5.2-1.7c-0.3-0.1-0.7-0.3-1-0.4c-0.3-0.6-0.7-1.2-1.2-1.4l0,0c0.6-1.3,1.3-2.6,1.9-3.9
		c1.2-2.3,2.5-4.6,3.8-6.9c2.3-4,5.2-8.2,9.3-10.8c0.1-0.1,0.4-0.3,0.6-0.4c1.6-1,3-1.6,5.1-1.9c0.3,0,1.6,0,2.2,0
		c0.1,0,0.1,0,0.3,0l0,0c0,0,0.1,0,0.3,0.1c0.4,0.1,0.9,0.3,1.4,0.4c0.1,0.1,0.3,0.1,0.4,0.3c0.4,0.3,0.9,0.4,1.2,0.7
		c-0.6-0.4,0.9,1,0.9,0.9C80.5,327.2,81,328.7,81.2,330.9z"/>
	<path d="M60.1,319.7c-4.9,4-8.5,9.4-11.4,15c-1.7,3.2-3.2,6.2-4.8,9.4c-0.1,0.3-0.3,0.6-0.4,1c-1.4-0.3-3-0.7-4.5-1.2
		c-1.6-0.4-3-1-4.6-1.7c-0.7-0.3-1.3-0.7-2-1c1.4-2.7,3.2-5.5,4.9-8.1c2.3-3.6,4.9-7.2,7.7-10.7c1-1.3,2.2-2.7,3.6-3.6
		c1.4-0.9,3.3-0.7,5.1-0.6c1.9,0.1,3.8,0.1,5.5,0.9C59.6,319.3,60,319.6,60.1,319.7z"/>
	<path d="M52.3,385.8c-0.3,0.1-0.4,0.4-0.6,0.7c-0.1,0-0.3,0.1-0.4,0.1c-1.2,0.1-2.5,0.1-3.6,0.3c-2.3,0.1-4.6,0.3-6.9,0.1
		c-1.3,0-2.5-0.3-3-1c-0.9-1.3-1.2-3.5-1.4-5.2c-1.4-8.4-1.7-17.2-0.6-25.6c4.3,1.6,9,2.7,13.6,3.6c-1,7.7,0.7,18.9,1.7,22.4
		C51.5,382.5,51.9,384.2,52.3,385.8z"/>
	<path d="M38.3,317c-3.9,4.8-7.4,9.8-10.6,15c-1.3,2.2-2.7,4.3-3.8,6.7c-1.6-0.4-2.9-1-4.3-2c-1.2-0.7-2.2-1.4-3.3-2.3
		c-0.3-0.3-1-0.9-1.4-1.2c-0.1-0.1-0.1-0.1-0.3-0.3c0.3-1,1-2.2,1.3-2.9c0.9-1.7,1.7-3.5,2.6-5.2c1.7-3.2,3.8-6.4,6.1-9.3
		c0.9-1,1.6-2.5,3-2.7c1.2-0.3,2.7-0.1,3.8,0C34.1,313.5,36.4,314.8,38.3,317L38.3,317z"/>
	<path d="M8.4,337.8c0-0.3,0.4-0.3,0.6,0c1,1.4,2.5,2.6,3.9,3.8c0.7,0.6,1.3,1,2,1.4c0.1,0.1,0.1,0.1,0.1,0.3
		c-1.6,6.5-2.6,13.3-2.7,20.1c0,0.4-0.6,0.4-0.7,0.1C9.7,355.4,7,342.6,8.4,337.8z"/>
	<path d="M27.3,352.1c-0.7,5.8-1.2,11.6-0.9,17.5c0.1,3.2,0.4,6.4,0.9,9.5l0,0l0,0c-0.7-0.1-1.4-0.1-2.2-0.1c0.1,0-0.3,0-0.4,0l0,0
		c-0.1,0-0.3,0-0.3,0c-0.9-0.1-0.9-0.3-1.6-0.7c-0.9-0.6-1.7-1.6-2.3-2.6c-1.6-2.7-1.9-5.9-2-9.1c-0.3-6.1,0.3-12,1.4-17.9
		c1,0.4,1.7,0.7,3.2,1.3C24.5,351,26,351.5,27.3,352.1L27.3,352.1L27.3,352.1z"/>
</g>
</svg>
