<?xml version="1.0" encoding="iso-8859-1"?>
<!-- Generator: Adobe Illustrator 19.0.0, SVG Export Plug-In . SVG Version: 6.00 Build 0)  -->
<svg version="1.1" id="Layer_1" xmlns="http://www.w3.org/2000/svg" xmlns:xlink="http://www.w3.org/1999/xlink" x="0px" y="0px"
	 viewBox="0 0 2000 2000" style="enable-background:new 0 0 2000 2000;" xml:space="preserve">
<path d="M1009.941,13.155c534.48,7.502,973.808,434.797,976.402,985.629c2.539,538.942-444.132,985.417-983.434,983.892
	c-544.463-1.54-980.124-433.97-985.44-972.326C11.975,453.985,454.249,13.719,1009.941,13.155z M1117.645,1491.928
	c-247.179,0-492.985,0-745.635,0c201.996,231.621,447.332,335.845,747.017,294.748c207.208-28.416,374.385-130.842,511.428-297.168
	c-96.638,0-185.272,0-274.967,0c-38.992-80.026-77.513-159.085-118.519-243.243
	C1196.009,1330.594,1157.822,1409.214,1117.645,1491.928z M1197.395,227.406c170.777,378.021,340.738,754.233,512.561,1134.569
	C1956.074,880.388,1660.737,333.054,1197.395,227.406z M771.586,235.661C550.18,297.126,320.637,487.583,237.736,766.705
	c-60.1,202.355-42.381,398.336,52.745,593.856C452.19,982.459,610.847,611.494,771.586,235.661z M1212.361,1063.339
	c-70.486-145.087-139.283-286.698-211.048-434.42c-71.807,148.107-140.297,289.372-210.621,434.42
	C932.482,1063.339,1069.26,1063.339,1212.361,1063.339z"/>
</svg>
