<?xml version="1.0" encoding="iso-8859-1"?>
<!-- Generator: Adobe Illustrator 19.0.0, SVG Export Plug-In . SVG Version: 6.00 Build 0)  -->
<svg version="1.1" id="Layer_1" xmlns="http://www.w3.org/2000/svg" xmlns:xlink="http://www.w3.org/1999/xlink" x="0px" y="0px"
	 viewBox="0 0 500 500" style="enable-background:new 0 0 500 500;" xml:space="preserve">
<path d="M250.173,2.95c73.865,39.794,147.121,79.26,220.776,118.941c0,84.218,0,168.155,0,252.836
	c-73.642,39.971-147.178,79.885-221.495,120.223c-73.099-38.976-146.098-77.9-218.78-116.654
	c-2.745-11.556-3.785-234.408-1.146-256.572C102.103,82.656,175.405,43.197,250.173,2.95z M61.172,357.723
	c63.881,34.03,126.324,67.295,188.061,100.183c63.99-34.752,126.579-68.743,189.158-102.728c0-71.891,0-142.842,0-214.038
	c-62.86-33.721-125.219-67.173-188.256-100.989c-63.223,33.93-126.36,67.814-188.964,101.412
	C61.172,214.004,61.172,285.451,61.172,357.723z M296.121,311.691c-16.223,2.066-30.812,5.143-45.457,5.44
	c-14.185,0.288-28.428-2.282-44.197-3.741c0,26.818,0,53.954,0,82.79c-11.36-5.006-20.747-9.143-30.848-13.594
	c0-27.459,0-54.714,0-82.87c-28.345-15.837-51.463-37.094-70.244-64.143c32.805-46.344,74.991-77.12,132.474-81.293
	c57.198-4.152,102.557,21.301,140.524,62.876c12.969-6.649,25.182-12.91,38.544-19.761c0,11.243,0,20.982,0,32.218
	c-23.531,7.025-39.554,24.429-56.143,41.574c-9.198,9.505-20.886,16.6-31.478,24.802c-2.659,27.106-1.71,41.88,3.616,51.195
	c20.17-4.57,18.696-21.04,19.358-37.041c10.047-5.708,20.178-11.463,30.592-17.379c9.408,28.457-17.572,77.136-50.539,88.494
	c-5.012,1.727-10.649,2.391-15.975,2.299c-9.818-0.171-15.928-4.855-18.088-14.49c-1.611-7.184-1.849-14.747-2.055-22.159
	C295.887,335.5,296.121,324.076,296.121,311.691z M147.059,235.567c14.127,16.277,30.152,28.72,52.479,38.438
	c-17.853-28.524-13.701-53.486,3.378-77.809C180.476,204.87,162.012,217.478,147.059,235.567z M291.677,194.808
	c19.975,25.694,22.659,50.791,6.452,79.29c21.576-10.325,38.095-22.096,52.112-38.988
	C333.804,217.574,316.32,203.767,291.677,194.808z M111.298,171.999c9.497,4.952,18.856,9.832,27.757,14.473
	c30.771-32.298,66.178-49.317,109.67-48.759c43.175,0.554,78.547,17.708,107.333,49.31c9.7-5.153,18.392-9.77,28.233-14.998
	C311.104,76.857,167.785,89.891,111.298,171.999z"/>
</svg>
