<?xml version="1.0" encoding="iso-8859-1"?>
<!-- Generator: Adobe Illustrator 19.0.0, SVG Export Plug-In . SVG Version: 6.00 Build 0)  -->
<svg version="1.1" id="Layer_1" xmlns="http://www.w3.org/2000/svg" xmlns:xlink="http://www.w3.org/1999/xlink" x="0px" y="0px"
	 viewBox="0 0 500 500" style="enable-background:new 0 0 500 500;" xml:space="preserve">
<path id="XMLID_4_" d="M250.768,11.191c132.23-0.154,240.913,108.074,239.308,242.478
	C488.51,384.848,380.675,491.946,247.052,490.07C116.126,488.233,9.192,380.484,11.186,246.878
	C13.133,116.353,119.803,10.968,250.768,11.191z M249.412,471.291c121.586-0.073,220.524-99.169,220.29-220.644
	c-0.234-121.838-98.86-220.345-220.575-220.308c-121.602,0.037-220.441,99.019-220.272,220.59
	C29.025,372.67,127.806,471.364,249.412,471.291z M249.067,460.585c-115.4-0.047-209.713-94.466-209.594-209.83
	c0.12-115.914,94.298-209.777,210.343-209.637c115.305,0.138,209.266,94.289,209.28,209.701
	C459.109,366.385,364.745,460.632,249.067,460.585z M334.102,217.366c0.639-0.125,0.862-0.206,1.085-0.206
	c12.655-0.015,25.309-0.014,37.964-0.037c6.459-0.012,9.852-3.392,9.953-9.894c0.036-2.28,0.01-4.56,0.006-6.84
	c-0.015-7.981-3.159-11.096-11.257-11.102c-15.049-0.012-30.098-0.046-45.147,0.042c-2.177,0.013-3.203-0.681-3.932-2.752
	c-3.434-9.762-6.995-19.48-10.587-29.185c-4.973-13.435-9.614-27.013-15.148-40.215c-4.796-11.442-12.687-20.664-24.328-25.716
	c-14.697-6.377-38.125-6.196-52.776,12.039c-4.681,5.827-8.598,11.987-11.198,19.023c-7.883,21.335-15.915,42.615-23.741,63.971
	c-0.95,2.594-2.174,3.366-4.891,3.339c-15.048-0.146-30.097-0.102-45.146-0.053c-6.067,0.02-9.525,3.535-9.599,9.548
	c-0.031,2.508-0.014,5.016-0.01,7.524c0.013,7.755,3.169,10.871,11.055,10.879c10.147,0.011,20.293,0.003,30.44,0.003
	c1.996,0,3.991,0,6.374,0c-1.309,3.592-2.259,6.757-3.654,9.713c-0.473,1.003-2.045,2.053-3.153,2.096
	c-5.464,0.215-10.941,0.096-16.413,0.1c-5.358,0.003-10.721-0.118-16.074,0.052c-5.942,0.189-9.181,3.646-9.253,9.543
	c-0.035,2.85-0.028,5.701-0.002,8.55c0.058,6.338,3.381,9.688,9.706,9.716c7.858,0.035,15.716,0.008,23.801,0.008
	c-0.248,0.982-0.368,1.755-0.636,2.472c-11.244,30.157-22.547,60.293-33.718,90.477c-2.296,6.205-4.155,12.662-2.758,19.358
	c2.775,13.305,14.343,23.047,27.813,23.765c16.466,0.877,28.129-6.353,32.85-20.431c4.121-12.288,8.246-24.575,12.221-36.91
	c0.817-2.535,1.893-3.495,4.742-3.486c35.798,0.122,71.597,0.08,107.395,0.08c7.885,0,7.878,0.003,10.284,7.414
	c3.231,9.951,6.825,19.8,9.633,29.868c4.205,15.08,16.75,24.734,33.54,23.577c11.077-0.763,22.184-9.194,25.202-19.901
	c2.364-8.385,0.258-16.308-2.516-24.031c-10.571-29.434-21.358-58.79-32.057-88.177c-0.492-1.352-0.919-2.727-1.54-4.582
	c1.581,0,2.683,0,3.785,0c6.84-0.001,13.681,0.051,20.521-0.018c5.914-0.06,9.286-3.413,9.471-9.328
	c0.082-2.62,0.031-5.244,0.015-7.866c-0.043-7.229-3.236-10.479-10.383-10.496c-10.261-0.025-20.522,0.05-30.781-0.084
	c-1.185-0.016-2.985-0.801-3.42-1.733C336.362,224.314,335.369,220.921,334.102,217.366z M254.232,151.698
	c-13.315,40.88-26.293,80.725-39.364,120.859c26.694,0,52.977,0,79.652,0C281.144,232.433,267.852,192.558,254.232,151.698z"/>
</svg>
