<?xml version="1.0" encoding="iso-8859-1"?>
<!-- Generator: Adobe Illustrator 19.0.0, SVG Export Plug-In . SVG Version: 6.00 Build 0)  -->
<svg version="1.1" id="Layer_1" xmlns="http://www.w3.org/2000/svg" xmlns:xlink="http://www.w3.org/1999/xlink" x="0px" y="0px"
	 viewBox="0 0 2000 2000" style="enable-background:new 0 0 2000 2000;" xml:space="preserve">
<path d="M1983.492,1000.185c-8.078,266.37-99.107,501.57-290.554,691.729c-198.699,197.363-442.613,295.711-721.973,288.069
	c-258.592-7.073-484.575-104.717-667.787-289.309C112.959,1499.023,14.4,1264.79,15.03,995.175
	c0.63-269.333,98.443-504.33,290.125-694.36C500.389,107.266,739.908,8.996,1014.755,13.776
	c263.217,4.578,492.838,101.803,679.453,289.159C1884.775,494.259,1976.086,729.069,1983.492,1000.185z M1920.009,998.243
	c-0.121-509.128-407.25-922.236-922.223-922.822C492.602,74.846,77.28,483.632,77.117,995.749
	c-0.162,510.525,410.048,919.939,915.105,922.407C1509.565,1920.683,1917.76,1507.646,1920.009,998.243z M1001.014,100.962
	c22.97,0,46.001-1.026,68.89,0.331c17.702,1.05,35.227,5.087,52.831,7.791c3.239,0.498,6.476,1.351,9.724,1.399
	c31.223,0.467,60.443,10.169,90,18.752c27.053,7.856,55.146,12.581,81.549,22.1c30.056,10.836,59.463,24.075,87.845,38.792
	c33.951,17.604,67.103,36.939,99.56,57.193c63.577,39.674,119.918,88.451,169.429,144.448
	c32.579,36.847,65.942,74.111,91.587,115.727c42.708,69.305,81.075,141.528,102.359,221.184
	c9.419,35.254,20.355,70.169,28.094,105.783c5.534,25.468,9.17,51.797,9.684,77.821c1.456,73.627,5.231,147.169-6.873,220.738
	c-12.61,76.645-33.767,150.651-62.694,222.151c-15.917,39.342-38.05,76.485-60.141,112.947
	c-45.043,74.343-101.111,139.91-165.82,197.938c-54.224,48.626-113.695,90.042-177.935,124.211
	c-42.398,22.552-85.991,42.586-132.744,55.274c-27.908,7.574-54.447,21.505-82.669,26.332
	c-57.672,9.864-114.931,24.416-174.376,21.391c-27.82-1.416-55.963,1.824-83.619-0.732c-40.413-3.735-80.585-10.36-120.728-16.601
	c-20.826-3.238-41.594-7.44-61.968-12.802c-16.99-4.471-32.984-13.186-50.102-16.606c-29.781-5.951-56.365-19.283-83.094-32.265
	c-34.817-16.909-69.835-33.731-103.099-53.408c-26.142-15.464-50.174-34.652-74.418-53.136
	c-88.288-67.308-161.653-147.985-219.481-243.076c-31.157-51.234-58.284-104.476-78.51-160.555
	c-15.601-43.257-26.809-88.483-35.672-133.677c-8.451-43.095-12.59-87.177-16.229-131.024c-2.367-28.516-2.385-57.55,0.004-86.062
	c3.67-43.798,8.959-87.573,16.177-130.922c4.783-28.724,14.189-56.674,21.435-84.994c14.262-55.745,37.53-107.86,64.253-158.523
	c44.324-84.032,101.06-158.354,168.962-225.179c60.29-59.334,127.723-107.997,201.484-147.996
	c37.987-20.6,77.935-38.051,118.216-53.806c32.137-12.569,65.586-23.12,99.396-29.789
	C861.074,108.549,930.016,93.662,1001.014,100.962z M585.13,1464.167c25.479-22.989,50.064-44.338,73.72-66.672
	c67.262-63.504,134.105-127.452,201.189-191.144c62.167-59.025,124.548-117.825,186.625-176.944
	c74.907-71.339,149.541-142.965,224.463-214.288c6.965-6.631,14.298-14.077,22.91-17.578c46.757-19.01,93.97-36.9,143.96-56.314
	c-5.915,29.186-11.089,55.371-16.556,81.495c-4.645,22.199-9.358,44.394-14.692,66.433c-1.034,4.273-4.594,8.269-7.789,11.632
	c-42.577,44.814-84.741,90.04-128.104,134.085c-76.35,77.551-153.664,154.152-230.177,231.543
	c-61.935,62.646-123.329,125.827-184.767,188.961c-2.889,2.969-3.875,7.79-6.511,13.365c82.606,0,162.799,0,243.388,0
	c124.901-125.021,249.564-249.805,376.317-376.68c10.924,11.69,19.911,21.849,29.468,31.442
	c46.213,46.382,92.512,92.679,138.994,138.792c4.673,4.636,10.774,7.832,19.186,13.808c0-250.666,0-496.55,0-746.825
	c-248.347,0.003-496.462,0-749.85,0.002c64.683,64.685,125.278,125.283,186.749,186.756
	c-249.663,249.617-497.459,497.367-748.27,748.133C429.697,1464.167,508.367,1464.167,585.13,1464.167z M803.939,784.503
	c1.01-1.318,2.019-2.635,3.029-3.953c30.506,16.238,61.012,32.475,91.92,48.927c18.991-19.099,37.392-37.605,58.437-58.77
	c-20.138-9.709-37.036-18.227-54.248-26.054c-18.019-8.195-38.041-12.49-53.545-27.27c6.407-16.155,7.301-31.345,1.227-47.76
	c-21.22-57.343-83.939-97.282-141.8-37.226c-13.456,13.966-27.707,27.166-41.156,41.139c-6.666,6.925-12.34,14.804-19.405,23.396
	c53.539,71.849,106.491,142.909,160.497,215.384c25.058-9.963,36.041-32.185,52.632-49.67
	C841.797,835.874,822.868,810.188,803.939,784.503z M375.179,965.37c30.12,96.675,61.847,192.67,95.62,292.694
	c20.784-20.876,39.241-39.416,58.601-58.863c-3.722-9.003-8.354-17.479-10.592-26.545c-1.579-6.396-2.626-15.761,0.794-20.047
	c12.819-16.067,27.57-30.592,41.021-45.074c13.478,8.754,24.161,15.692,34.567,22.45c18.124-17.432,34.904-33.571,51.992-50.005
	c-2.246-3.932-3.173-7.488-5.474-9.275c-16.913-13.136-34.012-26.039-51.22-38.788c-48.183-35.697-96.431-71.308-144.69-106.902
	c-15.298-11.283-16.496-11.159-30.277,1.916C403.21,938.608,390.95,950.338,375.179,965.37z M661.769,942.045
	c8.415-8.866,15.088-15.909,21.774-22.939c28.31-29.768,40.747-64.452,18.279-106.436c-30.011-56.078-89.893-78.04-142.475-30.402
	c-14.398,13.045-26.837,28.239-40.375,42.254c-7.014,7.261-14.467,14.098-22.111,21.504
	c55.974,74.587,110.131,146.754,165.5,220.536c18.499-19.113,34.995-36.158,52.275-54.012
	C696.506,988.371,679.732,966.001,661.769,942.045z M793.159,705.548c-9.133-8.319-17.053-15.533-25.82-23.518
	c-8.89,8.57-15.985,15.409-23.253,22.415c8.347,10.554,14.751,18.652,21.809,27.576
	C783.692,733.149,782.373,715.236,793.159,705.548z M508.62,1059.016c-17.032-5.806-21.478-27.028-43.322-23.499
	c6.641,15.967,12.551,30.179,20.497,49.284C495.551,1073.781,501.108,1067.503,508.62,1059.016z M632.038,875.063
	c1.834-6.366,3.828-13.285,6.622-22.977c-5.565-6.004-12.101-13.056-19.058-20.562c-9.826,8.013-17.156,13.991-24.442,19.933
	C615.718,880.232,622.219,884.46,632.038,875.063z"/>
</svg>
