<?xml version="1.0" encoding="iso-8859-1"?>
<!-- Generator: Adobe Illustrator 19.0.0, SVG Export Plug-In . SVG Version: 6.00 Build 0)  -->
<svg version="1.1" id="Layer_1" xmlns="http://www.w3.org/2000/svg" xmlns:xlink="http://www.w3.org/1999/xlink" x="0px" y="0px"
	 viewBox="0 0 2000 2000" style="enable-background:new 0 0 2000 2000;" xml:space="preserve">
<path d="M997.027,1978.268c-205.6,0-411.2,0.023-616.8-0.006c-202.259-0.029-356.449-154.232-356.488-356.755
	c-0.082-414.097-0.084-828.194,0.001-1242.292C23.781,176.886,178.113,22.749,380.445,22.738
	c415.545-0.023,831.09-0.048,1246.635,0.011c196.326,0.028,352.036,155.647,352.118,352.333
	c0.174,416.993,0.177,833.986-0.001,1250.979c-0.084,196.609-155.891,352.129-352.336,352.193
	C1416.916,1978.321,1206.971,1978.268,997.027,1978.268z M1657.799,1298.684c-40.918-340.314-81.636-678.963-122.912-1022.247
	c-146.875,59.531-287.273,115.989-427.074,173.89c-12.156,5.035-22.016,18.411-30.17,29.883
	c-101.372,142.623-200.267,287.05-303.671,428.176c-164.855,224.993-309.279,465.353-492.746,672.668c75.695,0,160.163,0,229.727,0
	c29.756-55.06,54.291-102.068,80.478-148.135c10.659-18.751,24.992-35.401,37.507-53.111
	c54.092-76.55,108.13-153.138,159.712-226.206c138.257,0,270.907,0,406.233,0c-2.045,50.496,34.56,100.63-20.161,145.083
	C1341.856,1298.684,1502.051,1298.684,1657.799,1298.684z M1131.233,662.91c-87.82,125.086-175.641,250.172-266.486,379.567
	c109.77,0,211.49,0,318.802,0c-13.997-127.361-27.61-251.232-41.223-375.103C1138.628,665.886,1134.93,664.398,1131.233,662.91z"/>
</svg>
