<?xml version="1.0" encoding="iso-8859-1"?>
<!-- Generator: Adobe Illustrator 19.0.0, SVG Export Plug-In . SVG Version: 6.00 Build 0)  -->
<svg version="1.1" id="Layer_1" xmlns="http://www.w3.org/2000/svg" xmlns:xlink="http://www.w3.org/1999/xlink" x="0px" y="0px"
	 viewBox="0 0 2000 2000" style="enable-background:new 0 0 2000 2000;" xml:space="preserve">
<path d="M903.295,257.541c80.348,0,156.511,0,235.139,0c0,431.061,0,860.508,0,1292.782c-77.718,0-155.478,0-235.139,0
	C903.295,1119.303,903.295,689.857,903.295,257.541z M75.333,1116.528c-21.775-258.457,59.595-490.544,230.151-686.593
	c270.182-310.566,827.073-478.841,1303.801-86.934c192.239,158.035,298.032,374.016,317.4,620.29
	c24.771,314.972-89.843,581.434-326.767,793.324c0,9.798-0.28,18.597,0.082,27.37c0.334,8.085,1.359,16.142,2.664,30.75
	c104.782-78.201,184.375-171.733,244.641-278.854c129.964-231.007,168.737-478.147,101.039-736.106
	c-60.21-229.426-189.401-413.696-382.439-553.607c-150.415-109.018-321.497-168.023-502.157-180.038
	c-263.352-17.514-502.352,66.414-702.622,238.605C161.361,476.491,52.033,701.585,25.296,962.637
	c-16.873,164.742,14.341,326.238,81.707,476.971c67.378,150.761,164.585,281.172,304.446,382.468c0-24.74,0-43.289,0-60.536
	C209.298,1590.156,96.976,1373.424,75.333,1116.528z M1313.542,1550.41c76.704,0,150.33,0,223.971,0c0-299.05,0-595.358,0-892.485
	c-74.993,0-147.411,0-223.971,0C1313.542,959.133,1313.542,1255.057,1313.542,1550.41z M729.708,1550.183
	c0-226.067,0-449.165,0-676.477c-82.861,5.424-164.13-7.319-245.757,8.339c0,225.069,0,445.005,0,668.138
	C567.542,1550.183,648.425,1550.183,729.708,1550.183z M774.755,1919.448c16.449,0,31.019,0,49.529,0c0-39.815,0-76.792,0-115.184
	c26.859,0,49.755,0,74.367,0c19.24,38.668,38.313,77,57.134,114.827c17.588,0,33.062,0,49.622,0
	c-19.96-40.328-38.374-77.532-55.617-112.37c3.943-6.052,4.734-8.921,6.392-9.568c36.239-14.141,44.416-45.438,43.097-78.418
	c-1.394-34.85-19.921-64.462-55.848-68.862c-55.109-6.75-111.078-6.474-168.676-9.277
	C774.755,1737.553,774.755,1827.749,774.755,1919.448z M825.037,1770.989c0-31.823,0-62.006,0-97.1c29.187,0,59.336-4.74,87.28,1.09
	c43.991,9.177,50.032,61.231,13.624,96.01C892.992,1770.989,860.226,1770.989,825.037,1770.989z M550.648,1844.476
	c33.636,0,65.372,0,98.775,0c12.461,29.541,24.745,58.663,35.888,85.081c17.728,0,31.396,0,48.069,0
	c-38.332-97.495-75.372-191.705-112.694-286.63c-16.202,0.727-28.982,1.301-42.248,1.896
	c-37.615,96.044-74.138,189.301-111.857,285.61c17.85,0,30.889,0,48.077,0C526.615,1901.875,538.446,1873.618,550.648,1844.476z
	 M637.214,1809.917c-26.492,0-48.447,0-74.1,0c11.677-30.681,22.338-58.691,32.999-86.7c2.547-0.323,5.093-0.646,7.64-0.969
	C614.406,1750.162,625.06,1778.076,637.214,1809.917z M1264.418,1707.062c-30.581-74.95-143.201-89.069-195.564-24.608
	c-41.057,50.543-42.342,108.332-25.289,166.853c16.978,58.265,78.564,92.152,141.877,82.506
	c57.269-8.725,88.923-48.822,90.712-116.57c-14.642,0-29.209,0-45.239,0c-3.337,47.891-23.132,80.037-72.134,86.562
	c-63.141-16.405-75.191-62.069-75.73-116.868c-0.614-62.292,22.274-92.979,77.939-111.608c35.769,8.546,56.469,31.977,63.849,67.332
	c15.854,0,29.723,0,47.886,0C1269.554,1727.488,1268.357,1716.716,1264.418,1707.062z M1312.895,1644.868
	c0.791,9.993,1.409,17.802,2.305,29.117c29.81,0,56.98,0,87.756,0c0,87.259,0,170.873,0,255.442c18.358,0,32.948,0,51.438,0
	c0-86.071,0-169.542,0-256.825c32.148,0,60.399,0,90.436,0c0-11.004,0-18.081,0-27.734
	C1465.551,1644.868,1390.691,1644.868,1312.895,1644.868z"/>
</svg>
