<?xml version="1.0" encoding="iso-8859-1"?>
<!-- Generator: Adobe Illustrator 19.0.0, SVG Export Plug-In . SVG Version: 6.00 Build 0)  -->
<svg version="1.1" id="Layer_1" xmlns="http://www.w3.org/2000/svg" xmlns:xlink="http://www.w3.org/1999/xlink" x="0px" y="0px"
	 viewBox="-129 131 240 240" style="enable-background:new -129 131 240 240;" xml:space="preserve">
<path transform="translate(0.000000,240.000000) scale(0.100000,-0.100000)" d="M-369.957,383.405
	c-156.024-272.007-288.576-506.734-296.861-519.161c-113.221-200.208-169.832-298.241-200.208-349.329
	c-20.711-34.519-56.611-96.652-78.703-138.075c-23.473-41.422-92.51-162.928-154.644-269.246l-111.84-193.305l273.388-4.142
	c254.057-2.761,273.388-1.381,294.099,23.473c11.046,13.807,98.033,160.167,193.305,325.856
	c93.891,164.309,180.878,314.81,193.305,335.522c12.427,20.711,57.991,99.414,102.175,175.355S-15.105,11.984,59.455,139.013
	c132.552,223.681,150.501,267.865,122.887,295.48c-6.904,6.904-66.276,106.318-131.171,219.539
	C-13.724,768.634-71.715,865.286-77.238,870.809C-82.761,874.951-213.932,656.793-369.957,383.405z M292.802-44.626
	c-56.611-31.757-168.451-91.129-248.534-132.552c-80.083-42.803-147.74-78.703-150.501-81.464
	c-6.904-5.523,28.996-56.611,81.464-115.983c23.473-26.234,69.037-82.845,100.795-124.267s64.895-81.464,73.18-89.749
	c13.807-12.427,156.024-185.02,332.76-404.559l69.037-86.987l251.296-2.761c186.401-1.381,249.915,1.381,249.915,13.807
	c0,8.284-5.523,20.711-13.807,24.853c-6.904,4.142-48.326,71.799-91.129,149.121c-44.184,77.322-84.226,143.598-89.749,147.74
	c-5.523,4.142-17.95,23.473-26.234,41.422c-8.284,19.33-28.996,57.991-45.565,85.606s-60.753,102.175-98.033,165.69
	c-37.28,63.514-86.987,149.121-109.079,190.543c-22.092,41.422-48.326,85.606-57.991,96.652
	c-8.284,11.046-35.899,56.611-60.753,100.795c-24.853,42.803-49.707,78.703-53.849,78.703
	C400.5,10.604,349.412-14.25,292.802-44.626z M-198.744-391.194c-167.07-283.053-392.132-677.947-387.99-682.089
	c2.761-2.761,59.372,27.615,128.409,69.037c67.657,40.042,212.635,124.267,323.095,187.782
	c237.489,136.694,283.053,167.07,266.484,178.116c-6.904,4.142-70.418,81.464-140.836,171.213
	c-71.799,88.368-132.552,161.547-133.932,161.547C-146.276-305.587-171.129-344.248-198.744-391.194z"/>
</svg>
