<?xml version="1.0" encoding="iso-8859-1"?>
<!-- Generator: Adobe Illustrator 19.0.0, SVG Export Plug-In . SVG Version: 6.00 Build 0)  -->
<svg version="1.1" id="Layer_1" xmlns="http://www.w3.org/2000/svg" xmlns:xlink="http://www.w3.org/1999/xlink" x="0px" y="0px"
	 viewBox="0 0 2000 2000" style="enable-background:new 0 0 2000 2000;" xml:space="preserve">
<path d="M1984.796,1006.73c9.859,487.642-419.516,1015.299-1058.481,969.067c-489.494-35.418-913.94-447.554-904.883-999.202
	C30.325,434.966,492.496-14.691,1061.203,14.762C1549.068,40.028,1998.04,466.808,1984.796,1006.73z M553.877,1215.086
	c152.367-149.322,300.061-294.064,449.61-440.624c156.909,151.534,305.529,295.062,443.166,427.984
	c77.004-76.252,145.22-143.802,207.915-205.885c-215.027-215.079-435.209-435.313-650.117-650.272
	C788.924,561.493,566.29,783.795,347.3,1002.457C411.052,1068.077,478.31,1137.305,553.877,1215.086z M788.711,1443.433
	c80.295,78.9,148.992,146.402,216.992,213.22c67.97-65.517,139.211-134.186,214.88-207.124
	c-72.788-76.138-141.172-147.669-206.016-215.497C935.895,1306.972,862.56,1374.964,788.711,1443.433z"/>
</svg>
