<?xml version="1.0" encoding="iso-8859-1"?>
<!-- Generator: Adobe Illustrator 19.0.0, SVG Export Plug-In . SVG Version: 6.00 Build 0)  -->
<svg version="1.1" id="Layer_1" xmlns="http://www.w3.org/2000/svg" xmlns:xlink="http://www.w3.org/1999/xlink" x="0px" y="0px"
	 viewBox="0 0 500 500" enable-background="new 0 0 500 500" xml:space="preserve">
<path d="M250.083,164.986c39.453,0,78.906,0,118.359,0c1.956,0,3.916-0.066,5.868,0.02c9.608,0.421,12.683,5.657,8.034,14.095
	c-14.316,25.981-28.789,51.876-43.127,77.845c-25.838,46.8-51.615,93.634-77.442,140.439c-1.985,3.597-3.164,7.64-8.564,8.334
	c-5.826,0.749-9.374-0.156-12.545-5.939c-40.437-73.737-81.203-147.294-121.836-220.924c-5.582-10.114-3.101-13.92,8.981-13.932
	c40.757-0.039,81.514-0.015,122.272-0.015C250.083,164.935,250.083,164.96,250.083,164.986z M306.068,230.306
	c1.377,8.519,2.383,14.844,3.425,21.164c1.033,6.262,2.102,12.517,3.333,19.831c7.681-3.835,8.482-9.611,8.691-15.4
	c0.341-9.445,0.444-18.906,0.332-28.357c-0.059-5.004,1.524-8.745,5.709-11.642c3.472-2.403,6.813-5.088,9.81-8.056
	c2.484-2.46,5.384-5.396,2.619-9.338c-2.656-3.786-6.259-2.792-9.607-1.033c-3.166,1.662-6.483,3.257-9.187,5.531
	c-5.413,4.553-10.849,4.623-17.256,2.233c-8.844-3.298-17.955-5.899-27.006-8.62c-5.218-1.569-10.076-1.197-14.695,4.518
	c6.366,3.301,12.233,5.918,17.647,9.269c5.555,3.438,13,4.185,16.934,11.157c-6.02,5.076-11.913,9.691-17.386,14.759
	c-5.387,4.988-10.771,9.227-18.753,6.652c-0.16-0.052-0.661,0.956-0.938,1.371c3.721,5.049,7.409,10.053,11.183,15.175
	c2.222-4.013,3.405-8.955,6.532-11.255C285.777,242.145,294.936,237.162,306.068,230.306z M461.585,349.456
	c-13.544-38.112-27.129-76.208-40.734-114.298c-6.144-17.202-12.286-34.406-18.63-51.535c-0.812-2.193-2.842-3.936-4.308-5.888
	c-1.771,1.711-3.596,3.373-5.288,5.16c-0.655,0.692-1.022,1.661-1.497,2.516c-40.283,72.405-80.575,144.805-120.813,217.236
	c-2.134,3.842-5.723,7.734-1.909,12.471c3.598,4.468,7.97,1.374,11.773,0.553c39.216-8.463,78.388-17.13,117.567-25.762
	c17.203-3.79,34.437-7.456,51.578-11.512c10.156-2.403,15.319-8.803,15.149-19.367C463.836,356.899,462.885,353.116,461.585,349.456
	z M46.723,377.109c3.669,1.295,7.557,2.003,11.376,2.834c41.4,9.013,82.806,17.993,124.209,26.994
	c15.606,3.393,31.191,6.883,46.825,10.141c2.015,0.42,4.266-0.297,6.408-0.488c-0.258-2.399-0.415-4.815-0.825-7.188
	c-0.157-0.911-0.885-1.726-1.36-2.58c-41.17-74.078-82.322-148.165-123.584-222.191c-1.482-2.659-4.046-4.715-6.105-7.052
	c-1.841,2.815-4.344,5.398-5.425,8.48c-19.633,55.976-39.106,112.009-58.567,168.046c-1.06,3.051-1.721,6.241-2.176,7.924
	C37.477,370.045,40.613,374.953,46.723,377.109z M249.61,154.258c40.097,0,80.195,0.073,120.292-0.115
	c3.948-0.019,9.619-0.349,11.446-2.803c3.151-4.23-2.316-7.366-4.873-10.366C343.707,102.521,310.82,64.168,277.951,25.8
	c-4.028-4.701-7.839-9.638-12.261-13.942c-8.188-7.968-18.707-8.09-27.294-0.677c-1.961,1.693-3.641,3.727-5.353,5.69
	C199.2,55.689,165.368,94.517,131.541,133.349c-3.854,4.424-7.874,8.725-11.44,13.371c-3.522,4.589-2.355,6.991,3.353,7.58
	c2.259,0.233,4.56,0.066,6.842,0.067c39.771,0.002,79.543,0.001,119.314,0.001C249.61,154.331,249.61,154.295,249.61,154.258z
	 M472.039,339.062c0.101-1.933,0.292-3.865,0.291-5.798c-0.021-58.966-0.038-117.932-0.142-176.898
	c-0.007-4.213-0.291-8.503-1.132-12.617c-0.936-4.574-2.66-8.987-4.337-14.433c-15.551,8.377-29.593,15.888-43.582,23.498
	c-9.084,4.942-13.909,18.075-10.369,27.994c17.844,49.995,35.694,99.988,53.585,149.966c1.064,2.972,2.513,5.807,3.783,8.705
	C470.77,339.341,471.404,339.201,472.039,339.062z M31.608,152.085c-0.193,60.328-0.301,120.656-0.354,180.984
	c-0.002,1.936,0.867,3.872,1.33,5.808c3.142-3.421,4.501-6.95,5.731-10.522c16.133-46.849,32.184-93.726,48.43-140.535
	c2.72-7.837,5.693-15.325-0.968-22.68c-0.773-0.853-1.029-2.474-0.983-3.718c0.191-5.135-3.171-7.391-7.047-9.54
	c-13.094-7.259-26.117-14.647-40.183-22.556C32.996,136.679,31.633,144.267,31.608,152.085z M281.829,12.886
	c1.757,2.279,3.428,4.631,5.287,6.824c8.429,9.942,16.903,19.846,25.374,29.752c24.568,28.729,49.363,57.267,73.578,86.29
	c7.207,8.637,17.931,5.708,26.23,10.17c0.536,0.288,1.783-0.608,2.637-1.069c13.476-7.275,27.013-14.441,40.373-21.922
	c5.183-2.902,5.425-4.549,0.745-8.843c-4.758-4.366-9.965-8.441-15.528-11.7c-31.49-18.444-63.146-36.604-94.745-54.864
	c-20.853-12.05-41.704-24.106-62.555-36.159C282.76,11.871,282.294,12.378,281.829,12.886z M219.509,12.319
	c-1.447,0.706-2.942,1.327-4.333,2.129c-51.735,29.825-103.471,59.65-155.164,89.55c-3.085,1.784-5.985,3.985-8.676,6.332
	c-7.875,6.867-7.679,10.156,1.166,15.425c7.847,4.674,16.069,8.722,23.874,13.461c7.087,4.304,13.871,8.795,22.365,3.41
	c0.744-0.471,1.993-0.571,2.871-0.336c6.559,1.753,10.173-2.166,13.978-6.563c32.883-38.006,65.89-75.906,98.836-113.858
	c2.296-2.645,4.4-5.457,6.593-8.192C220.516,13.224,220.013,12.772,219.509,12.319z M64.524,393.484
	c2.844,1.898,5.593,3.962,8.547,5.67c42.577,24.616,85.156,49.228,127.797,73.733c9.872,5.673,19.725,11.487,30.043,16.248
	c10.998,5.075,15.662,1.539,15.639-10.828c-0.018-9.447-0.327-18.893-0.471-28.339c-0.197-12.93-5.457-19.505-18.079-22.332
	c-47.356-10.607-94.717-21.192-142.082-31.76c-6.83-1.524-13.692-2.904-20.539-4.35C65.094,392.179,64.809,392.832,64.524,393.484z
	 M435.308,392.944c-3.444,0.575-6.918,1.013-10.328,1.747c-28.037,6.032-56.066,12.104-84.091,18.193
	c-21.336,4.636-42.656,9.349-63.998,13.957c-9.26,1.999-17.209,8.316-18.783,16.099c-2.538,12.551-1.42,25.954-0.92,38.962
	c0.27,7.045,6.681,10.511,13.521,8.113c4.27-1.497,8.388-3.597,12.318-5.869c46.84-27.073,93.634-54.228,140.437-81.365
	c4.159-2.411,8.302-4.85,12.453-7.276C435.714,394.651,435.511,393.797,435.308,392.944z"/>
</svg>
