<?xml version="1.0" encoding="utf-8"?>
<!-- Generator: Adobe Illustrator 25.1.0, SVG Export Plug-In . SVG Version: 6.00 Build 0)  -->
<svg version="1.1" id="aro" xmlns="http://www.w3.org/2000/svg" xmlns:xlink="http://www.w3.org/1999/xlink" x="0px" y="0px"
	 viewBox="0 0 500 500" style="enable-background:new 0 0 500 500;" xml:space="preserve">
<path d="M459.5,412.7L261.9,85.1l-39.1-64.9l-32.3,68.7l-39.2,83.4c-8.4,18-6.9,39.5,4,56.1l21.9,33.4
	c-50.4,15-97.7,52.9-142.6,115.7C24,392.4,13.4,411,6,428.6c-9.3,22.1,6.9,46.5,30.9,46.5h143.7c24.9,0,39.5-28.1,25-48.4
	l-48.3-68.4l-33.1,23.4l37.4,52.9H48.1c5-10.5,11.5-22.5,19.4-33.5c42.1-58.8,86.9-93.4,133.3-103.3l98.5,150.4
	c10.7,16.3,28.7,26,48.2,26h77.3h71.8L459.5,412.7z M189.3,206.1c-3.2-5-3.7-11.2-1.2-16.6l39.1-83.4l112.7,186.8
	c-33.2-21.9-71.5-38.6-111.2-38.6c-2.6,0-5.1,0.1-7.7,0.2L189.3,206.1z M347.5,433.6c-5.7,0-11.1-2.9-14.2-7.7l-84.6-129.1
	c74.3,13.8,149.5,97.6,167.4,122.4l8.7,14.4H347.5z"/>
</svg>
