<?xml version="1.0" encoding="utf-8"?>
<!-- Generator: Adobe Illustrator 25.1.0, SVG Export Plug-In . SVG Version: 6.00 Build 0)  -->
<svg version="1.1" id="ARRR" xmlns="http://www.w3.org/2000/svg" xmlns:xlink="http://www.w3.org/1999/xlink" x="0px" y="0px"
	 viewBox="0 0 500 500" style="enable-background:new 0 0 500 500;" xml:space="preserve">
<path d="M249.5,2.1C112.9,2.1,2.1,112.9,2.1,249.5s110.8,247.4,247.4,247.4s247.4-110.8,247.4-247.4S386.1,2.1,249.5,2.1z
	 M138.4,186.3c0-30.6,24.8-55.4,55.4-55.4h124.7c16.9,0,32,5.4,41.3,16.2l-64.4,32h-91.9c-9.2,0-16.7,7.5-16.7,16.7v39.4l-48.4,25.1
	V186.3z M376.1,268.2c0,30.6-24.8,55.4-55.4,55.4H186.5v48.5c0,8-6.5,14.5-14.5,14.4l-33-0.1V306l62.8-32.3h108.6
	c9.1,0,16.4-7.3,16.4-16.4v-48.8l49.3-25.2V268.2z"/>
</svg>
