<?xml version="1.0" encoding="iso-8859-1"?>
<!-- Generator: Adobe Illustrator 19.0.0, SVG Export Plug-In . SVG Version: 6.00 Build 0)  -->
<svg version="1.1" id="Layer_1" xmlns="http://www.w3.org/2000/svg" xmlns:xlink="http://www.w3.org/1999/xlink" x="0px" y="0px"
	 viewBox="0 0 500 500" enable-background="new 0 0 500 500" xml:space="preserve">
<path d="M143.709,440.674c-23.42,0-46.249,0-69.077,0c-22.559,0-45.118,0-70.101,0c2.494-3.765,3.521-7,5.681-8.205
	c3.747-2.09,8.105-3.383,12.362-4.21c26.125-5.074,39.119-23.142,43.381-47.192c3.013-17.004,2.324-34.704,2.822-52.107
	C70.51,268.378,72,207.79,73.691,147.207c0.236-8.465,1.872-16.952,1.467-25.362c-0.872-18.084-5.227-36.564-29.163-42.883
	c-8.486-2.24-16.985-4.438-25.435-6.807c-1.714-0.48-3.238-1.64-5.323-2.735c0.105-2.241,0.203-4.349,0.34-7.273
	c33.959,0,67.56,0,103.207,0c23.691,39.034,45.012,81.047,68.328,121.905c23.288,40.807,45.598,82.171,69.214,124.877
	C297.15,225.422,337.112,143.677,377.042,62c36.864,0,72.444,0,108.694,0c0,3.088,0,5.767,0,9.426
	c-8.944,1.932-17.571,3.328-25.92,5.703c-14.33,4.076-26.96,10.976-31.87,26.243c-2.108,6.554-2.992,13.752-3.037,20.666
	c-0.09,14.055,0.943,28.112,1.203,42.174c0.833,44.975,1.419,89.956,2.311,134.93c0.523,26.366,1.193,52.735,2.262,79.083
	c1.06,26.121,13.468,43.543,39.796,47.696c7.169,1.131,14.135,3.553,21.568,5.479c0.361,2.387,0.663,4.389,1.047,6.931
	c-58.052,0-115.37,0-172.748,0c-1.062-4.576-0.213-7.129,3.96-8.255c4.583-1.237,8.972-3.484,13.612-4.168
	c28.95-4.272,40.703-20.946,41.202-49.686c0.186-10.741-0.909-21.498-1.132-32.254c-0.44-21.191-0.566-42.388-1.026-63.579
	c-0.887-40.881-1.901-81.759-2.89-122.637c-0.512-21.136-1.084-42.27-1.702-66.228c-37.603,76.717-74.033,151.04-110.409,225.254
	c12.803,23.609,25.06,46.213,37.776,69.66c-1.646,1.555-2.941,2.779-5.36,5.065c-16.791-21.599-39.781-27.716-64.7-28.599
	c-48.425-86.394-96.664-172.455-145.394-259.393c0,4.626,0.045,8.586-0.007,12.546c-0.793,60.626-1.494,121.254-2.455,181.878
	c-0.347,21.926-1.877,43.844-1.786,65.761c0.05,12.028,1.862,24.051,6.374,35.574c6.198,15.826,18.706,22.911,34.156,26.461
	c5.716,1.313,11.446,2.569,17.195,3.728C142.144,432.341,143.592,435.077,143.709,440.674z"/>
</svg>
