<?xml version="1.0" encoding="iso-8859-1"?>
<!-- Generator: Adobe Illustrator 19.0.0, SVG Export Plug-In . SVG Version: 6.00 Build 0)  -->
<svg version="1.1" id="Layer_1" xmlns="http://www.w3.org/2000/svg" xmlns:xlink="http://www.w3.org/1999/xlink" x="0px" y="0px"
	 viewBox="0 0 500 500" enable-background="new 0 0 500 500" xml:space="preserve">
<path d="M15.462,169.738c0-21.141,0.182-42.284-0.067-63.422c-0.154-13.108,5.656-21.715,17.898-26.052
	c70.07-24.822,140.091-49.786,210.33-74.12c5.768-1.998,13.566-1.175,19.53,0.899c67.817,23.577,135.473,47.614,203.14,71.621
	c17.893,6.348,22.004,12.257,22.023,30.771c0.04,40.59,0.067,81.181,0.035,121.771c-0.014,18.255-4.637,24.884-21.907,30.97
	c-67.718,23.864-135.393,47.855-203.314,71.129c-6.988,2.395-16.226,2.399-23.208-0.007
	c-68.282-23.525-136.325-47.746-204.39-71.897c-15.42-5.471-19.966-12.164-20.007-28.241c-0.055-21.141-0.013-42.282-0.013-63.423
	C15.496,169.738,15.479,169.738,15.462,169.738z M44.693,317.853c62.487,22.135,125.081,43.975,187.362,66.676
	c13.994,5.101,26.417,4.927,40.316-0.108c62.716-22.722,125.698-44.709,188.608-66.896c26.268-9.264,31.424-18.421,26.044-45.062
	c-6.275,3.811-12.447,9.102-19.597,11.661c-66.387,23.758-133.014,46.848-199.38,70.663c-11.063,3.97-20.825,3.795-31.79-0.122
	c-65.607-23.436-131.449-46.216-197.059-69.645c-7.982-2.85-15.046-8.268-22.952-12.731
	C12.804,302.233,16.147,307.741,44.693,317.853z M467.324,337.603c-66.766,23.901-133.584,47.671-200.694,70.579
	c-8.398,2.867-19.43,3.03-27.794,0.188c-65.15-22.137-130.004-45.15-194.786-68.352c-9.841-3.525-18.833-9.42-27.766-13.988
	c-3.811,28.805-0.28,35.023,28.073,45.084c64.452,22.87,128.858,45.878,193.589,67.933c8.396,2.861,19.443,2.904,27.827,0.045
	c65.121-22.207,129.902-45.412,194.761-68.385c26.758-9.478,30.868-16.601,26.64-44.559
	C480.68,329.969,474.454,335.05,467.324,337.603z M46.586,425.199c64.149,22.632,128.204,45.539,192.567,67.546
	c7.682,2.626,17.817,2.63,25.495-0.002c66.346-22.746,132.394-46.359,198.519-69.751c23.939-8.469,29.792-19.933,23.703-43.112
	c-7.147,3.916-14.31,9.155-22.321,12.023c-66.82,23.918-133.72,47.618-200.838,70.681c-6.901,2.371-16.063,2.148-23.018-0.241
	c-66.33-22.79-132.461-46.162-198.501-69.783c-9.12-3.262-17.428-8.792-26.26-13.349C14.022,411.628,15.782,414.332,46.586,425.199z
	"/>
</svg>
