<?xml version="1.0" encoding="iso-8859-1"?>
<!-- Generator: Adobe Illustrator 19.0.0, SVG Export Plug-In . SVG Version: 6.00 Build 0)  -->
<svg version="1.1" id="Layer_1" xmlns="http://www.w3.org/2000/svg" xmlns:xlink="http://www.w3.org/1999/xlink" x="0px" y="0px"
	 viewBox="0 0 500 500" style="enable-background:new 0 0 500 500;" xml:space="preserve">
<path id="XMLID_4_" d="M254.422,16.751c1.443,1.811,2.724,3.783,4.351,5.41c76.003,76.006,152.032,151.985,228.084,227.941
	c1.446,1.445,3.19,2.592,4.795,3.878c0,0.531,0,1.061,0,1.592c-2.06,1.586-4.231,3.048-6.163,4.776
	c-51.366,45.935-111.018,74.549-179.192,84.667c-90.434,13.422-173.868-5.408-249.739-56.446
	c-13.369-8.994-25.43-19.932-38.116-29.945c-1.405-1.109-2.952-2.038-4.433-3.051c0-0.531,0-1.061,0-1.592
	c1.799-1.439,3.753-2.722,5.375-4.338c53.281-53.105,106.53-106.242,159.782-159.376c24.557-24.503,49.109-49.01,73.664-73.516
	C253.36,16.751,253.891,16.751,254.422,16.751z M252.963,36.006c-72.568,73.298-144.691,146.147-216.758,218.939
	c127.024,112.982,321.688,101.44,434.924-1.393C398.503,181.132,325.9,108.736,252.963,36.006z M252.829,486.433
	c-23.167-23.239-46.333-46.477-70.712-70.932c37.663-1.282,73.119-7.525,107.404-19.834c34.04-12.222,64.88-30.696,96.5-48.408
	c-1.174,1.544-2.339,3.096-3.524,4.632c-12.643,16.394-26.15,31.998-40.917,46.556c-27.567,27.178-54.867,54.628-82.237,82.006
	c-1.817,1.817-3.289,3.979-4.922,5.98C253.891,486.433,253.36,486.433,252.829,486.433z M215.757,427.725
	c12.509,12.501,25.381,25.364,37.732,37.706c22.152-22.204,44.857-44.962,65.854-66.008c-15.188,5.164-32.409,11.93-50.15,16.795
	C251.425,421.09,233.139,424.062,215.757,427.725z M96.141,255.289c106.726-51.595,234.906-44.441,324.528,12.53
	c-35.235,22.7-73.142,37.423-114.309,44.914C241.934,273.501,171.687,254.754,96.141,255.289z M393.622,267.918
	c-75.067-36.208-151.387-42.487-230.391-22.324c52.121,8.407,100.962,25.718,145.946,52.675
	C338.674,292.586,366.26,283.037,393.622,267.918z"/>
</svg>
