<?xml version="1.0" encoding="utf-8"?>
<!-- Generator: Adobe Illustrator 24.1.0, SVG Export Plug-In . SVG Version: 6.00 Build 0)  -->
<svg version="1.1" id="Layer_1" xmlns="http://www.w3.org/2000/svg" xmlns:xlink="http://www.w3.org/1999/xlink" x="0px" y="0px"
	 viewBox="0 0 500 500" style="enable-background:new 0 0 500 500;" xml:space="preserve">
<g>
	<path d="M176.8,419.6C202.1,444.9,226,469,250,493c0.5,0,1.1,0,1.6,0c1.7-2.1,3.2-4.3,5.1-6.2c28.3-28.3,56.6-56.7,85.1-84.9
		c15.3-15.1,29.3-31.2,42.3-48.2c1.2-1.6,2.4-3.2,3.6-4.8c-32.7,18.3-64.6,37.4-99.9,50.1C252.5,411.8,215.8,418.3,176.8,419.6z"/>
	<path d="M492.2,248.5c-78.7-78.6-157.4-157.2-236-235.9c-1.7-1.7-3-3.7-4.5-5.6c-0.5,0-1.1,0-1.6,0c-25.4,25.4-50.8,50.7-76.2,76.1
		C118.7,138.1,63.6,193,8.4,248c-1.7,1.7-3.7,3-5.6,4.5c0,0.5,0,1.1,0,1.6c1.5,1,3.1,2,4.6,3.2c13.1,10.4,25.6,21.7,39.4,31
		c78.5,52.8,164.8,72.3,258.4,58.4c70.5-10.5,132.3-40.1,185.4-87.6c2-1.8,4.2-3.3,6.4-4.9c0-0.5,0-1.1,0-1.6
		C495.5,251.1,493.7,250,492.2,248.5z M305.4,313.3c-66.7-40.6-139.4-60-217.5-59.4c110.4-53.4,243.1-46,335.8,13
		C387.2,290.3,348,305.5,305.4,313.3z"/>
</g>
</svg>
