<?xml version="1.0" encoding="iso-8859-1"?>
<!-- Generator: Adobe Illustrator 19.0.0, SVG Export Plug-In . SVG Version: 6.00 Build 0)  -->
<svg version="1.1" id="Layer_1" xmlns="http://www.w3.org/2000/svg" xmlns:xlink="http://www.w3.org/1999/xlink" x="0px" y="0px"
	 viewBox="0 0 2000 2000" style="enable-background:new 0 0 2000 2000;" xml:space="preserve">
<path d="M962.975,269.094c0-69.293-0.479-136.122,0.445-202.932c0.165-11.932,3.464-25.66,10.135-35.184
	c7.819-11.165,20.051-21.653,36.434-16.73c19.586,5.885,32.671,24.39,32.835,46.487c0.446,60.144,0.408,120.293,0.47,180.44
	c0.03,29.451-0.016,28.951,28.188,31.662c166.741,16.027,323.2,61.586,460.272,161.899
	c115.952,84.856,200.233,194.512,259.017,325.444c31.999,71.273,57.546,144.592,72.077,220.705
	c14.87,77.886,24.221,157.078,31.26,236.12c4.781,53.693,3.565,108.204,1.245,162.186
	c-5.067,117.879-47.013,221.858-123.212,312.212c-66.817,79.23-150.906,134.257-244.083,176.897
	c-95.806,43.842-196.677,71.844-300.493,85.867c-82.79,11.182-166.835,19.747-250.154,18.464
	c-82.527-1.271-165.734-11.473-247.048-26.43c-133.727-24.599-261.591-68.124-375.289-145.761
	c-105.096-71.763-181.613-166.244-220.908-288.149c-10.753-33.359-14.66-68.931-21.618-103.506
	c-19.596-97.381-0.348-193.693,8.716-290.167c11.944-127.13,43.251-249.705,96.834-365.624
	c86.294-186.685,221.124-324.804,412.364-405.8c84.764-35.9,172.425-58.896,263.728-68.995
	C915.907,275.796,937.527,272.489,962.975,269.094z M981.42,1551.607c112.754-3.063,205.062-11.34,296.063-33.324
	c90.365-21.83,176.353-52.609,250.355-110.639c77.126-60.48,117.821-139.738,119.901-238.135
	c1.203-56.923-5.876-112.868-18.233-168.478c-27.086-121.892-86.675-224.915-179.536-307.718
	c-91.41-81.51-198.833-131.712-318.349-158.391c-111.177-24.818-220.795-16.956-328.278,14.787
	c-90.591,26.755-172.76,71.483-243.879,135.34c-81.231,72.936-136.867,162.173-170.24,265.205
	c-25.271,78.018-33.717,158.841-28.476,240.584c1.655,25.821,6.807,52.163,15.071,76.679
	c28.316,83.998,89.93,139.272,164.482,181.655c83.387,47.405,175.306,70.527,268.689,85.815
	C872.235,1545.34,936.817,1547.534,981.42,1551.607z"/>
</svg>
