<?xml version="1.0" encoding="iso-8859-1"?>
<!-- Generator: Adobe Illustrator 19.0.0, SVG Export Plug-In . SVG Version: 6.00 Build 0)  -->
<svg version="1.1" id="Layer_1" xmlns="http://www.w3.org/2000/svg" xmlns:xlink="http://www.w3.org/1999/xlink" x="0px" y="0px"
	 viewBox="0 0 500 500" enable-background="new 0 0 500 500" xml:space="preserve">
<path d="M495.457,496.187c-4.834,0-8.619,0-12.403,0c-78.855-0.002-157.715,0.603-236.562-0.184
	c-71.8-0.716-131.92-29.274-179.802-82.173C23.376,365.979,2.736,308.679,4.086,244.228c1.126-53.762,18.655-102.294,51.82-144.83
	c39.479-50.634,91.188-82.254,154.319-92.007C294.772-5.67,368.188,19.045,428.052,80.63
	c43.196,44.438,66.735,98.198,67.585,160.274c1.132,82.686,0.333,165.398,0.341,248.098
	C495.978,490.885,495.714,492.768,495.457,496.187z M316.722,348.459c-19.928,0-42.994,0.025-66.06-0.005
	c-64.854-0.084-112.151-60.636-96.393-123.385c15.831-63.042,88.23-93.822,144.471-61.281c33.83,19.574,50.009,49.611,50.719,88.199
	c0.417,22.666,0.076,45.346,0.076,68.394c16.788,16.628,33.484,33.089,50.093,49.637c16.714,16.652,33.342,33.391,50.007,50.092
	c0.756-0.365,1.512-0.73,2.269-1.095c0-2.554,0.002-5.108,0-7.661c-0.04-56.537,0.698-113.089-0.336-169.608
	c-1.068-58.351-25.655-106.818-69.009-144.841c-39.288-34.457-86.046-50.47-138.738-48.853
	c-57.128,1.753-105.079,24.039-143.199,65.717c-73.644,80.518-69.187,206.367,9.391,281.638
	c39.459,37.798,87.358,56.001,141.812,56.421c53.073,0.41,106.151,0.093,159.227,0.095c3.28,0,6.561,0,10.018,0
	C386.683,417.826,352.958,384.387,316.722,348.459z M249.946,306.945c32.463,0.042,58.174-25.181,58.191-57.088
	c0.017-31.735-26.143-58.183-57.588-58.22c-32.174-0.038-57.543,25.366-57.587,57.666
	C192.917,282.122,217.415,306.903,249.946,306.945z"/>
</svg>
