<?xml version="1.0" encoding="iso-8859-1"?>
<!-- Generator: Adobe Illustrator 19.0.0, SVG Export Plug-In . SVG Version: 6.00 Build 0)  -->
<svg version="1.1" id="Layer_1" xmlns="http://www.w3.org/2000/svg" xmlns:xlink="http://www.w3.org/1999/xlink" x="0px" y="0px"
	 viewBox="0 0 2000 2000" style="enable-background:new 0 0 2000 2000;" xml:space="preserve">
<path d="M1846.848,752.995c-39.224,13.736-76.575,26.816-112.21,39.296c-136.746-374.142-388.047-592.293-787.99-594.616
	c-343.874-1.998-596.479,168.61-734.91,479.672c-134.423,302.054-81.411,589.785,130.3,859.258
	C540.17,1138.89,734.56,748.692,932.13,352.107c8.926,8.306,18.377,13.547,22.602,21.548
	c117.746,223.01,234.963,446.3,357.333,679.186c223.329-71.237,443.868-156.66,668.454-229.283
	c2.106,5.002,4.213,10.004,6.32,15.006c-520.237,252.713-1040.474,505.426-1560.799,758.181
	c23.487,75.23,282.561,209.784,506.63,212.364c378.673,4.361,750.462-253.852,821.55-717.873
	c36.246-18.898,75.51-39.369,121.692-63.447c7.235,120.526-21.706,229.513-66.417,333.957
	c-103.439,241.633-277.669,414.239-523.099,509.022c-517.955,200.03-1056.536-85.28-1218.207-561.561
	C-119.978,754.87,213.186,227.183,711.724,98.194C1232.25-36.484,1719.004,283.569,1846.848,752.995z M736.98,1228.884
	c2.113,2.938,4.227,5.875,6.34,8.812c117.597-44.988,235.194-89.976,359.169-137.404
	c-56.924-112.968-111.636-221.547-170.304-337.977C864.002,925.283,800.491,1077.083,736.98,1228.884z M1301.573,1479.355
	c79.208,0,152.903,0,233.961,0c-41.752-70.587-80.223-135.627-118.995-201.177c-62.244,27.525-121.678,53.806-182.985,80.916
	C1259.794,1405.488,1281.498,1443.862,1301.573,1479.355z"/>
</svg>
