<?xml version="1.0" encoding="iso-8859-1"?>
<!-- Generator: Adobe Illustrator 19.0.0, SVG Export Plug-In . SVG Version: 6.00 Build 0)  -->
<svg version="1.1" id="Layer_1" xmlns="http://www.w3.org/2000/svg" xmlns:xlink="http://www.w3.org/1999/xlink" x="0px" y="0px"
	 viewBox="0 0 500 500" enable-background="new 0 0 500 500" xml:space="preserve">
<path d="M420.659,253.096c-8.144,14.209-15.948,27.824-24.298,42.391c16.739,0,32.252,0,48.624,0
	c16.519,28.496,33.011,56.946,49.749,85.82c-16.263,28.146-32.46,56.18-49.014,84.829c-32.71,0-65.744,0-99.527,0
	c-7.398-12.683-14.907-25.554-23.19-39.753c-8.089,13.78-15.578,26.537-23.243,39.595c-33.073,0-66.117,0-99.581,0
	c-7.726-13.277-15.489-26.619-24.071-41.368c-8.599,14.732-16.585,28.413-24.733,42.372c-32.916,0-65.682,0-98.963,0
	C36.011,438.656,19.597,410.309,3,381.645c16.458-28.48,32.861-56.867,49.377-85.448c16.089,0,31.942,0,49.172,0
	c-8.391-14.61-16.279-28.343-24.685-42.979c16.15-28.007,32.496-56.355,49.283-85.466c14.795,0,29.759,0,46.493,0
	c-8.528-14.979-16.231-28.51-24.061-42.263c16.422-28.388,32.706-56.536,49.095-84.867c32.912,0,65.708,0,99.282,0
	c16.277,28.085,32.656,56.345,49.283,85.034c-7.691,13.425-15.503,27.06-23.922,41.754c16.978,0,32.788,0,48.781,0
	C387.729,196.163,404.089,224.448,420.659,253.096z"/>
</svg>
