<?xml version="1.0" encoding="iso-8859-1"?>
<!-- Generator: Adobe Illustrator 19.0.0, SVG Export Plug-In . SVG Version: 6.00 Build 0)  -->
<svg version="1.1" id="Layer_1" xmlns="http://www.w3.org/2000/svg" xmlns:xlink="http://www.w3.org/1999/xlink" x="0px" y="0px"
	 viewBox="0 0 500 500" enable-background="new 0 0 500 500" xml:space="preserve">
<path d="M5.001,249.631C5.046,114.608,114.664,5.01,249.676,5c135.096-0.01,244.852,109.818,244.694,244.853
	c-0.158,135.06-109.864,244.641-244.794,244.517C114.52,494.246,4.955,384.608,5.001,249.631z M313.395,291.025
	c1.136-0.746,2.14-1.376,3.113-2.049c28.187-19.488,37.071-56.133,20.868-86.86c-16.177-30.677-32.465-61.297-48.854-91.861
	c-17.675-32.963-56.675-45.137-90.006-28.263c-33.122,16.768-46.969,54.8-31.754,87.946c4.009,8.733,8.899,17.062,13.382,25.578
	c0.958,1.819,1.905,3.643,2.881,5.511c-0.521,0.379-0.891,0.67-1.282,0.929c-29.922,19.824-39.353,56.796-22.541,88.446
	c16.045,30.206,32.053,60.433,48.221,90.573c2.43,4.53,5.244,8.978,8.561,12.886c21.462,25.287,56.078,31.041,85.432,14.42
	c29.522-16.716,42.121-51.792,29.412-83.145c-3.451-8.513-8.295-16.462-12.528-24.656c-1.597-3.092-3.272-6.143-4.977-9.336
	c-1.199,0.651-2.236,1.207-3.265,1.775c-33.886,18.71-74.334,6.805-92.643-27.306c-6.846-12.756-13.591-25.566-20.386-38.349
	c-4.618-8.688-9.244-17.373-13.9-26.123c14.353-8.812,29.697-12.624,46.256-9.975c22.58,3.612,39.201,15.784,49.94,35.974
	c10.907,20.507,21.803,41.019,32.709,61.526C312.436,289.424,312.891,290.154,313.395,291.025z"/>
</svg>
