<?xml version="1.0" encoding="iso-8859-1"?>
<!-- Generator: Adobe Illustrator 19.0.0, SVG Export Plug-In . SVG Version: 6.00 Build 0)  -->
<svg version="1.1" id="Layer_1" xmlns="http://www.w3.org/2000/svg" xmlns:xlink="http://www.w3.org/1999/xlink" x="0px" y="0px"
	 viewBox="0 0 2000 2000" style="enable-background:new 0 0 2000 2000;" xml:space="preserve">
<path d="M340.088,1294.269c-87.401,6.609-150.92-14.346-207.289-58.467c-60.479-47.339-95.188-109.023-109.16-184.571
	c-12.807-69.248,1.701-132.163,34.768-192.271c41.569-75.562,106.237-120.221,188.869-141.502
	c34.228-8.815,68.681-4.652,103.044-5.387c60.957-1.303,117.736-15.401,171.394-45.704
	c68.838-38.876,120.113-93.053,153.679-164.064c22.702-48.027,30.435-98.892,32.598-152.159
	c2.178-53.65,2.381-108.16,26.704-159.339C779.392,96.759,852.219,36.353,953.206,20.108
	c104.753-16.851,198.211,13.116,271.356,95.709c37.833,42.72,63.491,91.9,70.203,146.956
	c11.865,97.329-11.902,185.132-84.707,256.549c-45.23,44.368-99.25,69.241-159.889,82.036c-10.164,2.145-21.169-0.074-31.692,0.821
	c-43.647,3.716-88.18,3.604-130.67,12.819c-65.805,14.271-126.039,41.008-174.409,92.104c-36.01,38.04-66.175,78.798-87.546,126.301
	c-11.436,25.419-18.583,51.601-17.984,80.056c0.951,45.248-1.063,90.578,0.534,135.789c3.113,88.158,35.409,164.438,95.238,229.743
	c58.488,63.842,131.198,100.045,215.398,113.776c23.481,3.829,48.033,1.159,72.094,1.338c59.36,0.442,115.503,13.397,165.444,46.32
	c73.462,48.429,119.673,114.539,134.42,203.16c13.158,79.07-4.424,150.015-49.407,213.998
	c-46.275,65.821-109.145,106.855-190.093,121.081c-79.744,14.015-151.908-2.312-217.105-47.639
	c-67.984-47.265-109.165-111.937-123.375-195.153c-5.951-34.849-2.112-68.885-4.045-103.228
	c-4.868-86.501-38.303-159.388-96.827-222.356c-50.408-54.235-111.253-89.797-183.447-104.551
	C393.238,1298.9,358.841,1296.657,340.088,1294.269z M1176.765,677.768c-46.695,23.612-96.4,34.013-148.481,34.15
	c-26.013,0.069-52.545-3.133-77.936,0.88c-64.305,10.162-120.641,36.833-167.297,84.44c-72.572,74.052-99.94,163.153-80.809,262.378
	c19.359,100.404,78.352,174.395,174.825,215.273c33.867,14.35,68.502,22.865,105.63,21.139c45.04-2.094,90.011-0.498,133.743,11.745
	c22.507,6.301,44.387,14.843,73.756,24.821c-34.036-47.202-40.384-91.915-14.585-137.819
	c26.939-47.932,71.986-58.972,124.032-55.049c-11.199-47.303-17.141-92.422-15.315-138.561c1.797-45.407,1.816-90.884,2.64-137.792
	c-48.823,1.964-87.806-14.139-113.392-58.052c-26.34-45.206-16.793-86.113,14.011-127.646
	C1180.389,677.674,1178.227,677.028,1176.765,677.768z M1245.346,1368.506c7.264,7.314,14.207,14.984,21.85,21.879
	c30.882,27.857,56.373,59.727,76.466,96.323c29.091,52.983,40.828,110.468,44.363,169.685c1.452,24.327-4.152,48.185-0.6,73.722
	c11.494,82.631,52.236,147.239,116.735,195.893c66.69,50.307,142.759,68.028,226.712,52.757
	c59.25-10.777,111.115-35.77,152.46-77.443c72.949-73.527,104.061-162.494,83.562-266.433
	c-20.807-105.502-81.713-177.867-180.928-218.48c-45.895-18.787-93.878-23.781-142.986-22.362
	c-64.781,1.872-124.655-15.34-179.383-49.461c-25.306-15.777-49.094-33.987-73.478-51.029
	c3.438,57.505,58.39,101.086,111.627,100.87c17.945-0.073,36.199,2.018,53.802,5.616c45.101,9.219,88.271,57.323,81.479,122.048
	c-5.241,49.949-44.991,90.42-88.451,96.974c-65.746,9.914-112.635-17.933-130.552-71.521c-6.163-18.433-5.339-39.461-6.178-59.368
	c-2.6-61.681-42.645-110.82-94.02-117.9c-23.352-3.218-46.949-4.654-70.435-6.899
	C1246.708,1365.088,1246.027,1366.797,1245.346,1368.506z M1306.072,634.707c24.519-3.386,47.084-11.378,66.176-29.911
	c27.397-26.595,38.473-58.181,38.878-95.12c0.178-16.266-1.501-33.382,2.859-48.626c17.699-61.887,82.773-101.562,148.922-77.673
	c40.827,14.744,66.544,45.818,73.471,88.063c6.905,42.108-6.516,78.875-40.515,107.584c-25.266,21.336-54.797,26.402-85.605,25.847
	c-40.333-0.726-72.3,15.932-98.634,44.208c-14.235,15.284-24.323,33.69-17.751,59.183c9.836-7.604,15.571-19.26,24.667-26.93
	c55.225-46.571,121.952-64.771,191.682-73.062c36.101-4.293,72.755-3.731,109.071-6.51c15.039-1.151,30.545-3.365,44.639-8.433
	c58.274-20.955,110.157-51.282,148.851-101.73c55.674-72.585,73.602-153.588,55.984-242.447
	c-13.886-70.032-50.207-126.447-106.401-171.047c-68.179-54.112-146.666-69.656-229.67-58.086
	c-64.43,8.981-119.755,40.356-165.046,89.107c-50.226,54.064-76.547,116.907-79.153,190.368
	c-1.258,35.468-1.23,71.252-6.227,106.259c-9.171,64.246-34.319,122.47-76.784,172.188c-16.627,19.467-35.076,37.378-53.865,57.234
	C1270.699,635.172,1288.685,637.108,1306.072,634.707z"/>
</svg>
