<?xml version="1.0" encoding="utf-8"?>
<!-- Generator: Adobe Illustrator 25.1.0, SVG Export Plug-In . SVG Version: 6.00 Build 0)  -->
<svg version="1.1" id="Layer_1" xmlns="http://www.w3.org/2000/svg" xmlns:xlink="http://www.w3.org/1999/xlink" x="0px" y="0px"
	 viewBox="0 0 500 500" style="enable-background:new 0 0 500 500;" xml:space="preserve">
<g>
	<path d="M286,137c-0.7-0.2-1.4-0.4-2.1-0.5c-18.8,35.9-37.7,71.8-57.2,108.9c24.9,0,48,0,72.8,0C294.9,208.5,290.4,172.8,286,137z"
		/>
	<path d="M209.8,278.2c-1.9,3.6-3.8,7.2-6.2,11.9c34.8,0,67.6,0,101.4,0c-0.7-4.5-1.3-7.8-2-11.9C271.6,278.2,241,278.2,209.8,278.2
		z"/>
	<path d="M249.8,3.3C114,3.3,3.9,113.3,3.9,249.1S114,495,249.8,495s245.9-110.1,245.9-245.9S385.6,3.3,249.8,3.3z M366.1,383.2
		c-12.6,0.6-25.4,0.2-38,0c-8-0.2-12.1-4.3-12.9-12.7c-1.4-14.5-3.8-29-5.8-43.5c-0.1-0.9-0.7-1.8-1.7-4.4c-40.3,0-80.5,0-121.3,0
		c-8.4,15.9-17,31.5-25,47.5c-3.6,7-8.5,11.2-16.4,11.9c-16.1,1.5-44.5,1.6-49.8-2.5c-6.5-5.3,23.6-56.8,23.6-56.8l-22.6,0.1
		c0,0-0.1-21.3-0.1-31.6c14.1,0,27.3,0,40.8,0c2.4-4.4,7-13,7-13l-47.8,0c0,0,0-21.4,0-31.6c22.6,0,44.3,0,66,0
		c7.7-13.8,14.9-26.5,21.9-39.3c22.5-40.7,45.1-81.3,67.3-122.2c5.2-9.7,12.6-14.6,23.3-14.7c15.6-0.1,31.2-0.4,46.8,0.2
		c15.2,0.6,17.7,3.7,19.7,18.4c8.7,61.1,17.7,122.3,26.4,183.4c4.4,31.2,8.9,62.4,12.7,93.7C381.7,378.6,378.2,382.6,366.1,383.2z"
		/>
</g>
</svg>
