<?xml version="1.0" encoding="iso-8859-1"?>
<!-- Generator: Adobe Illustrator 19.0.0, SVG Export Plug-In . SVG Version: 6.00 Build 0)  -->
<svg version="1.1" id="Layer_1" xmlns="http://www.w3.org/2000/svg" xmlns:xlink="http://www.w3.org/1999/xlink" x="0px" y="0px"
	 viewBox="0 0 500 500" enable-background="new 0 0 500 500" xml:space="preserve">
<path d="M316.128,172.553c-0.299,4.075-0.322,4.484-0.36,4.893c-1.527,16.357-43.926,36.678-57.331,27.177
	c-30.697-21.756-61.168-43.83-91.738-65.765c-2.984-2.141-5.887-4.441-9.056-6.271c-11.488-6.633-22.404-2.081-24.956,10.956
	c-11.33,57.879-22.289,115.831-33.644,173.706c-1.705,8.689-0.044,15.499,7.594,20.111c8.104,4.894,14.726,1.085,21.213-4.051
	c66.478-52.621,140.697-92.515,215.763-130.998c8.623-4.42,16.463-3.169,23.546,3.644c5.012,4.821,10.425,9.221,15.56,13.918
	c14.002,12.806,12.209,25.16-4.621,33.499c-27.13,13.444-54.619,26.242-81.2,40.704C204.198,344.513,117.142,403.264,37.475,472.69
	c-2.162,1.884-4.41,3.675-6.686,5.419c-6.02,4.613-13.51,7.361-18.819,1.39c-4.166-4.686-7.814-12.875-6.799-18.647
	c8.328-47.356,17.698-94.531,26.952-141.721c18.091-92.254,36.31-184.484,54.492-276.72c0.626-3.174,1.421-6.314,2.135-9.471
	c3.53-15.606,15.282-20.668,28.287-11.232c62.913,45.652,125.678,91.51,188.244,137.637
	C310.419,163.133,313.669,169.48,316.128,172.553z M279.727,383.028c64.167-25.978,130.461-44.089,198.682-55.7
	c5.873-1,13.383-7.488,15.134-13.01c1.503-4.741-2.567-13.53-6.938-17.425c-13.374-11.915-28.084-22.329-42.266-33.337
	c-6.778-5.261-13.758-6.074-21.728-2.283c-55.063,26.187-108.025,56.017-157.88,91.169c-4.901,3.456-8.121,9.295-10.274,11.843
	C253.942,382.141,264.909,389.027,279.727,383.028z"/>
</svg>
