<?xml version="1.0" encoding="iso-8859-1"?>
<!-- Generator: Adobe Illustrator 19.0.0, SVG Export Plug-In . SVG Version: 6.00 Build 0)  -->
<svg version="1.1" id="Layer_1" xmlns="http://www.w3.org/2000/svg" xmlns:xlink="http://www.w3.org/1999/xlink" x="0px" y="0px"
	 viewBox="0 0 2000 2000" style="enable-background:new 0 0 2000 2000;" xml:space="preserve">
<path d="M1742.562,1060.889c-35.518-27.433-71.021-54.886-106.582-82.263c-2.697-2.076-5.807-3.615-6.705-4.165
	c-173.126,271.888-398.124,490.976-669.949,668.383c126.283,148.193,243.686,299.642,456.358,308.464
	c-23.095,23.698-98.781,38.332-147.127,27.154c-122.317-28.282-219.269-97.935-306.287-184.963
	c-32.075-32.079-67.324-60.986-105.128-94.935c-19.681,9.406-50.377,24.078-81.673,39.035
	c-23.829,126.414-149.08,151.151-217.536,65.606c-112.226,16.716-216.58,4.6-298.204-86.791
	c90.387,44.101,182.595,31.557,275.243,11.033c29.866-98.368,90.947-127.477,184-88.714c9.357,3.898,23.946,3.406,32.933-1.218
	c116.653-60.023,225.285-132.484,323.851-219.007c69.465-60.977,140.257-121.387,202.684-189.204
	c84.084-91.344,160.689-189.572,240.515-284.837c8.871-10.586,17.817-21.109,28.622-33.904
	c-310.559-204.9-648.649-340.428-1033.329-388.851c14.357,19.241,20.204,32.382,30.277,39.737
	c82.205,60.03,85.334,148.018,12.531,206.843c5.024,10.081,10.77,17.825,12.912,26.463
	c60.703,244.819,155.013,475.777,284.837,692.109c11.262,18.766,23.934,36.686,37.526,57.4
	c-31.108,19.395-59.938,37.37-92.673,57.78c-165.801-243.163-278.585-508.579-338.112-799.25
	c11.187-1.533,22.542-3.089,33.896-4.645c-63.209-4.078-113.387-30.933-130.751-92.388c-17.59-62.255,3.555-116.034,62.906-148.607
	c0.965-13.031,1.78-24.046,2.961-40.001c-136.326,8.094-272.449,10.116-374.664,122.117
	c-1.901-51.002,67.833-131.033,151.393-160.084c72.93-25.356,149.763-39.486,226.315-58.943
	c19.573-148.993,45.404-299.051,212.793-368.893C537.856,154.19,527.105,287.45,524.74,426.816
	c397.077,25.872,750.723,164.992,1076.16,388.088c62.115-114.793,119.062-229.117,135.992-360.572
	c8.576-66.588-0.844-126.817-27.177-187.29c49.14,32.952,73.652,81.831,84.596,137.053
	c25.952,130.949-11.958,252.323-61.107,371.248c-14.433,34.923-31.562,68.731-46.028,99.97
	c31.363,33.227,63.358,65.621,93.18,99.905c6.47,7.438,5.143,21.658,7.407,32.754
	C1772.696,1025.612,1757.629,1043.25,1742.562,1060.889z M703.959,1004.057c-1.986,188.229,137.913,321.791,314.448,321.214
	c180.49-0.59,312.946-132.877,314.868-314.133c1.849-174.36-133.198-315.327-313.033-314.773
	C855.449,691.638,705.87,822.972,703.959,1004.057z M1822.467,1231.114c19.274,6.318,40.298,7.3,62.015,10.987
	c35.374,60.958,59.817,125.672,52.619,199.517c46.97-77.124,35.379-155.567,6.964-234.532
	c61.355-75.061,41.35-150.527-10.731-190.484c-46.824-35.924-95.831-26.398-145.57-8.629c-15.067,17.639-30.133,35.277-45.2,52.916
	C1722.639,1153.586,1746.781,1206.302,1822.467,1231.114z M1799.939,1589.752c75.195-25.968,115.542-70.471,132.66-137.354
	c-80.134,112.1-192.616,141.547-309.807,155.9c-8.448-107.43-16.765-213.199-25.082-318.969c-3.397,0.187-6.794,0.375-10.191,0.562
	c2.753,105.821,27.888,211.679,2.849,326.769c-98.117-4.495-195.685-8.964-293.253-13.434c-0.161,3.057-0.323,6.114-0.484,9.171
	c98.459,8.288,196.919,16.577,295.795,24.9c-16.222,115.573-47.563,226.401-155.042,304.343
	c87.716-11.891,132.853-92.336,176.471-303.368C1676.237,1622.377,1739.645,1610.574,1799.939,1589.752z M1631.466,200.768
	c-75.6-32.065-154.684-26.269-230.281-3.986c-85.638,25.242-168.493,59.929-235.867,84.438
	c-55.121-48.42-107.116-95.827-161.003-140.977c-63.1-52.871-130.643-98.348-213.191-116.425
	c-46.002-10.074-100.16-0.443-117.013,20.858c210.793-18.452,335.84,122.302,466.948,254.098
	c-35.687,22.04-69.479,42.911-103.271,63.781c1.277,2.218,2.554,4.437,3.831,6.655c34.821-18.793,69.642-37.586,106.753-57.615
	c23.372,28.3,47.158,57.103,70.945,85.905c1.707-1.493,3.415-2.985,5.122-4.478c-20.267-28.48-40.534-56.959-63.72-89.542
	c175.034-73.954,345.026-150.503,539.718-58.485C1677.546,230.018,1656.25,211.28,1631.466,200.768z M268.371,1195.473
	c-56.364,118.106-102.199,238.832-91.679,373.342c4.22,53.955,26.527,98.67,67.355,133.913
	c-99.8-192.986-19.541-365.095,55.893-540.976c20.227,13,35.646,22.911,51.066,32.821c0.515-1.11,1.031-2.219,1.546-3.329
	c-13.608-15.324-27.216-30.649-41.219-46.417c12.116-23.847,24.742-48.698,37.368-73.55c-2.379-1.23-4.758-2.461-7.137-3.691
	c-14.449,23.009-28.899,46.018-45.302,72.137C159.405,1004.891,24.496,875.575,39.564,663c-9.123,19.516-16.522,39.2-18.344,59.388
	c-8.918,98.825,37.607,178.677,96.061,250.531c51.884,63.778,112.005,120.854,170.544,183.072
	C282.115,1167.56,275.071,1181.434,268.371,1195.473z"/>
</svg>
