<?xml version="1.0" encoding="iso-8859-1"?>
<!-- Generator: Adobe Illustrator 19.0.0, SVG Export Plug-In . SVG Version: 6.00 Build 0)  -->
<svg version="1.1" id="Layer_1" xmlns="http://www.w3.org/2000/svg" xmlns:xlink="http://www.w3.org/1999/xlink" x="0px" y="0px"
	 viewBox="0 0 2000 2000" style="enable-background:new 0 0 2000 2000;" xml:space="preserve">
<path d="M1932.932,1055.378c17.76,3.201,31.781,5.728,48.143,8.677c0,28.514,0,55.881,0,90.435c-37.139,0-76.505,4.641-113.61-2.486
	c-13.207-2.537-29.716-33.591-29.813-51.708c-1.182-220.022,1.303-440.061,0.634-660.089c-0.153-50.403-1.075-102.974-14.865-150.73
	c-32.638-113.03-135.11-180.246-250.796-173.652c-113.527,6.47-199.948,78.971-223.061,188.12
	c-3.353,15.836-4.108,32.478-4.061,48.741c1.189,407.227,3.582,814.455,2.954,1221.677c-0.085,54.948-7.962,112.148-24.555,164.391
	c-53.23,167.596-213.983,267.706-377.072,241.076c-160.697-26.24-285.59-179.396-285.765-352.678
	c-0.422-418.748,0.23-837.498-0.218-1256.246c-0.193-180.484-169.707-301.033-337.06-240.872
	c-99.274,35.688-155.85,119.337-156.48,237.813c-1.126,211.832-0.337,423.673-0.392,635.511c-0.008,31.2-1.236,62.435-0.146,93.592
	c1.415,40.444-13.378,62.177-57.343,59.243c-30.645-2.045-61.536-0.394-94.528-0.394c0-32.324,0-59.666,0-90.418
	c16.44-3.043,33.466-6.195,55.645-10.3c0-17.219,0.072-34.854-0.011-52.488c-0.908-193.761-2.743-387.525-2.101-581.28
	c0.151-45.606,3.604-92.387,14.164-136.566C125.552,105.043,287.85-9.623,462.519,12.731
	c160.852,20.586,292.558,176.588,292.966,351.536c0.968,415.462-0.452,830.932,1.471,1246.387
	c0.199,42.94,9.104,89.08,26.586,128.079c48.645,108.513,167.026,161.016,283.591,132.785
	c111.546-27.016,179.121-117.585,178.891-239.139c-0.767-405.601-1.839-811.203-1.469-1216.804
	c0.04-43.94,3.664-89.129,14.248-131.589c44.632-179.053,200.798-290.424,375.761-271.618
	c161.746,17.385,296.1,173.949,297.83,352.503c2.052,211.818,0.518,423.671,0.537,635.508
	C1932.933,1018.193,1932.932,1036.006,1932.932,1055.378z M887.145,770.387c-0.093-13.576-9.321-27.089-14.307-40.632
	c-6.013,12.673-17.235,25.33-17.276,38.022c-0.977,304.988-0.973,609.982,0,914.97c0.041,12.823,11.127,25.61,17.067,38.414
	c5.056-13.574,14.415-27.119,14.509-40.727c1.043-152.489,0.659-304.987,0.658-457.483
	C887.795,1072.095,888.177,921.237,887.145,770.387z M1143.621,771.248c-0.088-13.862-8.756-27.669-13.44-41.501
	c-6.282,14.021-17.997,28.024-18.046,42.067c-1.047,303.349-1.003,606.704-0.071,910.054c0.04,13.111,10.574,26.189,16.22,39.282
	c5.316-13.282,15.158-26.532,15.255-39.852c1.092-150.849,0.693-301.709,0.693-452.565
	C1144.233,1076.237,1144.595,923.738,1143.621,771.248z M1015.32,817.489c-0.095-13.201-10.067-26.331-15.45-39.494
	c-5.574,13.179-15.973,26.343-16.013,39.538c-0.917,303.62-0.918,607.243,0.005,910.862c0.04,13.196,10.484,26.359,16.081,39.538
	c5.359-13.195,15.284-26.356,15.38-39.589c1.098-150.983,0.698-301.976,0.698-452.966
	C1016.021,1122.747,1016.418,970.113,1015.32,817.489z M1700.275,1116.073c0.115,12.904,10.546,25.716,16.187,38.571
	c5.301-13.304,15.182-26.593,15.226-39.915c0.895-268.84,0.852-537.684,0.026-806.525c-0.037-12.11-9.214-24.192-14.135-36.287
	c-6.012,12.545-17.131,25.041-17.25,37.641c-1.264,134.41-0.786,268.835-0.79,403.257
	C1699.537,847.236,1699.078,981.662,1700.275,1116.073z M1602.983,262.655c-0.111-12.388-11.674-24.674-17.918-37.007
	c-4.578,12.199-13.119,24.388-13.151,36.599c-0.758,284.056-0.809,568.115,0.079,852.171c0.042,13.403,9.95,26.774,15.264,40.16
	c5.519-13.252,15.726-26.465,15.835-39.762c1.163-141.198,0.721-282.41,0.713-423.618
	C1603.796,548.348,1604.258,405.494,1602.983,262.655z M426.924,262.664c-0.078-12.328-8.465-24.603-12.992-36.902
	c-5.966,12.455-17.097,24.891-17.141,37.367c-0.988,284.086-0.978,568.177-0.091,852.263c0.041,13.165,9.966,26.299,15.288,39.448
	c5.18-13.304,14.759-26.573,14.864-39.917c1.098-139.573,0.678-279.158,0.669-418.739
	C427.513,551.676,427.842,407.166,426.924,262.664z M298.438,311.877c-0.116-13.226-10.089-26.365-15.487-39.545
	c-5.073,13.535-14.526,27.055-14.57,40.606c-0.87,267.578-0.879,535.161,0.04,802.739c0.045,13.061,10.151,26.087,15.572,39.129
	c5.053-13.397,14.389-26.759,14.498-40.197c1.09-134.603,0.662-269.218,0.659-403.829C299.145,577.81,299.6,444.836,298.438,311.877
	z M524.864,1111.7c0.138,14.376,10.687,28.651,16.406,42.974c4.749-13.66,13.598-27.308,13.64-40.983
	c0.816-265.938,0.873-531.881-0.128-797.818c-0.055-14.478-10.711-28.916-16.433-43.372c-4.746,15.436-13.481,30.839-13.61,46.314
	c-1.097,131.32-0.627,262.652-0.628,393.981C524.112,845.767,523.59,978.742,524.864,1111.7z M1443.799,1114.746
	c0.115,13.309,10.139,26.532,15.564,39.795c5.441-13.317,15.582-26.617,15.628-39.953c0.926-267.602,0.924-535.209-0.019-802.812
	c-0.047-13.18-10.351-26.324-15.879-39.485c-5.333,13.214-15.184,26.39-15.299,39.65c-1.15,132.972-0.699,265.958-0.702,398.94
	C1443.088,845.505,1442.634,980.133,1443.799,1114.746z"/>
</svg>
