<?xml version="1.0" encoding="iso-8859-1"?>
<!-- Generator: Adobe Illustrator 19.0.0, SVG Export Plug-In . SVG Version: 6.00 Build 0)  -->
<svg version="1.1" id="Layer_1" xmlns="http://www.w3.org/2000/svg" xmlns:xlink="http://www.w3.org/1999/xlink" x="0px" y="0px"
	 viewBox="0 0 2000 2000" style="enable-background:new 0 0 2000 2000;" xml:space="preserve">
<path d="M340.699,357.916c11.643,9.747,23.886,18.865,34.839,29.333C588.507,590.791,796.193,800.23,1015.666,996.49
	c205.972,184.187,401.115,379.046,599.539,570.774c14.622,14.129,29.619,23.667,50.795,28.093
	c29.923,6.254,45.115,29.53,43.641,54.445c-1.52,25.691-22.849,47.385-49.183,50.024c-25.794,2.585-52.162-11.495-56.971-39.743
	c-4.547-26.71-20.979-41.053-37.591-57.288c-145.653-142.348-292.5-283.498-436.606-427.394
	c-67.754-67.656-128.198-142.608-195.575-210.67c-185.564-187.453-373.064-372.99-559.708-559.375
	c-13.367-13.348-26.006-27.425-38.984-41.163C336.916,362.101,338.808,360.008,340.699,357.916z M1540.859,1697.748
	c-28.626-3.19-44.598-22.42-62.91-39.647c-182.3-171.488-354.244-353.41-543.321-518.374
	C743.086,972.613,563.463,791.841,378.588,617.084c-21.998-20.794-44.193-41.379-66.296-62.061
	c2.566,14.996,11.402,24.582,20.596,33.81c91.031,91.369,183.526,181.328,272.852,274.333
	c121.796,126.812,247.223,249.856,365.789,380.184c144.048,158.337,304.702,301.564,458.115,451.386
	c20.474,19.994,42.621,37.479,48.156,69.646c3.385,19.674,20.318,33.32,43.532,35.108c24.108,1.858,43.033-5.282,54.746-27.025
	c4.232-7.855,6.675-16.674,9.411-23.708C1579.464,1722.119,1567.62,1700.729,1540.859,1697.748z M1394.375,1776.539
	c-14.577-5.354-29.511-13.284-40.676-23.856c-198.948-188.377-390.054-384.669-596.195-565.927
	c-190.97-167.918-370.213-349.17-554.795-524.367c-7.96-7.555-17.671-13.266-26.566-19.836c-2.396,3.011-4.791,6.022-7.187,9.033
	c12.411,10.456,25.674,20.06,37.104,31.497c125.977,126.055,251.378,252.688,377.531,378.566
	c100.113,99.895,194.349,205.368,292.173,307.299c137.142,142.9,282.693,277.724,424.387,416.268
	c16.574,16.206,31.772,31.711,38.242,57.392c11.538,45.794,62.375,54.713,92.469,18.558c7.718-9.272,10.873-22.342,15.363-32.024
	C1425.337,1786.726,1424.954,1787.768,1394.375,1776.539z M642.17,222.227c7.983,8.168,15.902,16.4,23.959,24.495
	c128.244,128.845,256.548,257.63,384.74,386.527c46.154,46.408,93.006,92.174,137.797,139.87
	c45.631,48.591,86.765,101.563,133.981,148.477c143.104,142.193,288.249,282.331,432.447,423.425
	c15.225,14.898,29.919,28.048,34.066,53.051c5.12,30.873,32.601,44.851,61.396,40.563c22.966-3.42,40.201-20.025,43.716-42.117
	c4.77-29.985-7.139-50.302-41.231-60.442c-19.866-5.908-35.703-14.485-50.734-28.79
	c-191.889-182.623-375.681-373.371-575.766-547.902c-186.102-162.333-359.944-338.719-539.286-508.81
	c-12.534-11.887-25.912-22.885-38.897-34.296C646.295,218.262,644.232,220.244,642.17,222.227z M1226.268,1831.985
	c-12.783-2.017-25.482-12.495-35.664-21.892c-191.771-176.983-369.464-368.398-567.587-539.276
	c-170.364-146.938-328.775-307.73-492.647-462.209c-9.373-8.836-20.331-15.991-30.552-23.928c-3.199,3.798-6.399,7.596-9.598,11.393
	c13.007,9.685,27.496,17.899,38.793,29.281c121.512,122.416,243.249,244.624,363.393,368.377
	c71.768,73.924,138.667,152.642,211.556,225.397c140.12,139.862,282.947,277.014,424.641,415.3
	c20.563,20.069,39.784,38.702,47.325,70.174c9.41,39.275,58.6,47.861,87.05,18.434c8.466-8.756,12.914-21.396,19.543-32.843
	C1273.681,1855.463,1258.128,1837.012,1226.268,1831.985z M1764.821,1470.192c-16.218-3.918-32.025-15.552-44.68-27.302
	c-186.045-172.741-360.176-357.6-552.602-524.25C983.579,759.323,812.503,585.135,635.661,417.592
	c-13.716-12.995-28.242-25.135-42.391-37.673c-1.903,8.286-0.054,12.63,3.002,15.818
	c199.752,208.385,415.18,401.477,602.801,621.817c46.951,55.139,103.68,101.931,155.709,152.77
	c115.681,113.038,231.232,226.209,347.126,339.61c1.283,35.115,14.796,62.9,51.727,66.394c33.654,3.184,53.626-17.246,62.011-53.421
	C1807.716,1494.903,1793.812,1477.195,1764.821,1470.192z M1904.13,1174.688c-14.399-2.285-28.805-14.15-40.104-24.919
	C1666.915,961.9,1477.95,765.744,1271.445,587.383c-151.28-130.662-292.888-272.519-438.927-409.258
	c-6.755-6.325-14.695-11.382-22.084-17.03c5.139,18.009,15.606,29.614,26.636,40.655c96.392,96.495,192.849,192.925,289.359,289.301
	c78.225,78.116,150.649,161.819,226.964,241.452c147.147,153.545,303.017,298.731,455.225,447.429
	c16.718,16.333,33.169,31.424,37.988,57.412c5.11,27.554,27.237,41.522,54.732,45.271c29.966-6.266,48.974-23.113,54.836-54.277
	C1950.119,1200.013,1937.166,1179.931,1904.13,1174.688z M8,914.217c11.943,13.269,23.393,27.024,35.911,39.727
	c76.532,77.666,154.137,154.294,229.769,232.823c76.513,79.444,148.999,162.852,227.074,240.687
	c149.301,148.843,301.338,294.941,452.174,442.246c16.69,16.299,34.379,30.714,36.121,58.099
	c1.208,18.996,16.767,31.061,36.731,35.019c31.534,6.252,55.439-6.203,65.221-34.578c9.201-26.692-3.197-54.342-33.851-64.122
	c-24.959-7.963-45.59-19.597-64.665-37.478c-183.902-172.387-354.584-358.258-547.265-521.984
	c-142.429-121.026-273.574-255.331-409.821-383.64c-5.984-5.635-12.722-10.47-19.109-15.678
	C13.526,908.297,10.763,911.257,8,914.217z M889.866,54.057c87.374,84.799,175.156,169.182,262.007,254.513
	c86.495,84.982,166.05,176.673,249.826,264.07c143.308,149.501,295.094,290.877,443.312,435.673
	c14.124,13.798,27.052,26.132,30.423,49.066c4.041,27.495,31.204,43.86,55.468,41.965c25.768-2.012,48.066-23.82,50.198-49.095
	c2.297-27.236-10.599-50.151-41.324-55.191c-26.379-4.327-41.924-19.162-58.648-35.606
	c-98.497-96.855-198.574-192.165-295.118-290.928c-106.692-109.145-226.699-203.342-337.59-307.682
	c-105.881-99.626-211.838-199.172-317.999-298.5c-8.578-8.026-18.995-14.087-28.557-21.06
	C897.864,45.539,893.865,49.798,889.866,54.057z M1099.891,47.965c86.816,94.333,170.798,191.483,261.086,282.367
	c151.047,152.046,306.155,300.057,459.447,449.875c16.645,16.268,32.461,31.422,37.406,57.583
	c5.4,28.567,31.091,43.081,56.328,40.741c25.112-2.328,44.382-20.429,47.622-44.731c4.086-30.648-8.331-53.301-41.645-59.539
	c-22.142-4.145-35.563-15.921-50.02-29.481c-199.506-187.132-384.562-389.485-595.757-564.361
	c-41.899-34.694-79.398-74.654-120.184-110.764c-13.854-12.266-31.583-20.155-47.542-30.044
	C1104.385,42.396,1102.138,45.18,1099.891,47.965z M10.475,1107.581c6.375,14.058,9.673,30.957,19.614,41.721
	c74.797,80.988,150.819,160.99,226.35,241.128c149.248,158.35,309.836,306.018,465.954,457.878
	c18.095,17.601,35.835,32.625,39.599,61.715c3.448,26.645,33.417,42.129,57.676,38.234c23.676-3.802,44.753-23.991,47.995-45.976
	c3.646-24.717-11.258-52.606-39.346-56.663c-30.69-4.433-47.363-23.949-66.921-42.336
	c-184.74-173.687-354.805-362.689-551.634-523.885c-66.99-54.862-127.173-118.035-190.466-177.41
	C16.357,1103.851,13.416,1105.716,10.475,1107.581z M1330.161,102.828c197.171,192.424,394.342,384.847,591.513,577.271
	C1814.632,393.717,1615.635,203.506,1330.161,102.828z M73.266,1330.017c71.346,252.997,348.017,516.94,589.216,575.143
	C465.31,1712.698,271.382,1523.401,73.266,1330.017z M53.881,74.529c54.113,57.82,108.225,115.639,162.338,173.459
	C165.712,185.805,110.35,129.224,53.881,74.529z"/>
</svg>
