<?xml version="1.0" encoding="iso-8859-1"?>
<!-- Generator: Adobe Illustrator 19.0.0, SVG Export Plug-In . SVG Version: 6.00 Build 0)  -->
<svg version="1.1" id="Layer_1" xmlns="http://www.w3.org/2000/svg" xmlns:xlink="http://www.w3.org/1999/xlink" x="0px" y="0px"
	 viewBox="0 0 500 500" enable-background="new 0 0 500 500" xml:space="preserve">
<path d="M5.401,451.765C84.762,314.758,163.317,179.142,242.757,42c24.114,42.097,47.75,83.358,71.535,124.88
	c-29.858,51.258-59.635,102.374-90.159,154.775c60.038,0,119.09,0,178.594,0c24.8,43.277,49.224,85.898,74.56,130.11
	C319.61,451.765,163.543,451.765,5.401,451.765z M315.684,168.724c29.093,51.135,57.569,101.186,86.763,152.499
	c30.675-51.39,60.551-101.443,91.026-152.499C433.522,168.724,375.168,168.724,315.684,168.724z"/>
</svg>
