<?xml version="1.0" encoding="iso-8859-1"?>
<!-- Generator: Adobe Illustrator 19.0.0, SVG Export Plug-In . SVG Version: 6.00 Build 0)  -->
<svg version="1.1" id="Layer_1" xmlns="http://www.w3.org/2000/svg" xmlns:xlink="http://www.w3.org/1999/xlink" x="0px" y="0px"
	 viewBox="0 0 500 500" enable-background="new 0 0 500 500" xml:space="preserve">
<path d="M248.705,4.437c134.393-3.734,248.349,112.077,247.506,247.504c-0.847,136.206-108.828,244.138-244.849,245.054
	C120.64,497.874-1.94,388.359,3.153,239.51C7.473,113.28,115.713,1.131,248.705,4.437z M351.939,126.664
	c-6.87-13.823-12.831-25.818-19.078-38.389c-41.496,20.629-82.108,40.817-124.708,61.995c0-19.157,0-35.914,0-52.927
	c-15.033,0-28.758,0-42.053,0c0,111.597,0,222.102,0,332.656c14.268,0,27.665,0,41.783,0c0-40.829,0-80.54,0-120.727
	c48.033-23.989,95.661-47.775,143.793-71.814c-6.461-13.201-12.518-25.577-18.825-38.463
	c-42.238,20.983-82.874,41.17-124.011,61.606c0-21.882,0-42.075,0-62.582C256.5,174.252,303.741,150.697,351.939,126.664z"/>
</svg>
