<?xml version="1.0" encoding="iso-8859-1"?>
<!-- Generator: Adobe Illustrator 19.0.0, SVG Export Plug-In . SVG Version: 6.00 Build 0)  -->
<svg version="1.1" id="Layer_1" xmlns="http://www.w3.org/2000/svg" xmlns:xlink="http://www.w3.org/1999/xlink" x="0px" y="0px"
	 viewBox="0 0 500 500" enable-background="new 0 0 500 500" xml:space="preserve">
<path d="M493.932,246.763c-0.315,53.057-13.934,99.172-43.45,139.397c-31.622,43.095-74.133,71.551-125.902,85.883
	c-27.195,7.529-54.906,11.64-83.011,10.401c-51.818-2.285-100.728-15.582-142.821-46.744c-44.2-32.722-73.855-76.134-86.215-130.316
	c-6.199-27.176-7.893-54.494-4.8-82.536c4.484-40.657,18.463-76.942,42.319-109.944c26.77-37.034,62.398-61.864,104.734-77.629
	c34.889-12.992,71.155-19.012,108.251-16.841c52.699,3.084,101.832,18.264,144.092,50.702
	c37.309,28.637,62.75,66.003,76.481,111.405C490.486,203.274,493.408,226.301,493.932,246.763z M243.577,28.274
	c-11.59,1.644-30.078,3.498-48.252,6.987c-55.397,10.637-100.889,37.81-135.451,82.803c-27.753,36.13-40.496,77.543-43.142,122.409
	c-1.225,20.766,1.457,41.326,6.3,61.52c13.106,54.652,42.288,98.775,89.354,129.574c56.42,36.921,119.028,47.783,184.784,35.729
	c55.32-10.141,103.037-35.071,138.797-80.379c30.081-38.112,44.371-81.621,47.124-129.424c1.197-20.785-1.523-41.34-6.387-61.501
	c-12.763-52.896-41.791-94.919-86.668-125.513C348.089,41.88,300.664,30.581,243.577,28.274z M183.16,59.117
	c-3.677,0.973-7.222,2.436-10.835,3.656c-47.221,15.934-84.29,44.772-108.824,88.274c-17.912,31.758-24.632,66.625-23.455,102.971
	c0.457,14.098,5.966,26.362,15.093,36.997C83.234,323.752,120.993,336.82,162,342.488c17.686,2.445,35.619,3.277,53.47,4.309
	c20.665,1.195,39.729,7.541,57.137,18.181c18.764,11.469,33.535,26.702,37.838,49.425c1.183,6.248,1.17,12.722,1.732,19.402
	c19.034-7.918,25.774-30.232,21.534-48.408c-5.658-24.256-21.103-41.579-40.058-56.131c-20.671-15.87-44.301-26.755-68.307-36.188
	c-22.134-8.698-41-21.319-56.428-39.001c-13.554-15.534-22.739-33.623-24.917-54.329c-3.827-36.375,5.798-70.054,23.209-101.566
	c7.754-14.034,17.291-27.082,26.236-40.914C189.944,57.876,186.483,58.237,183.16,59.117z M343.603,68.519
	c-32.359-14.389-66.406-18.469-101.393-16.195c-3.53,0.229-7.668,1.916-10.223,4.313c-7.44,6.981-14.732,14.25-21.164,22.152
	c-21.344,26.223-35.977,55.89-40.704,89.472c-3.451,24.517-0.152,47.997,16.575,68.325c13.975,16.983,32.881,25.681,52.27,33.695
	c34.955,14.448,67.64,32.326,93.445,60.657c15.866,17.419,27.856,36.877,27.908,61.595c0.013,6.104,0.002,12.208,0.002,20.201
	c8.967-6.346,17.171-10.706,23.432-17c5.94-5.972,11.157-13.425,14.365-21.189c6.351-15.373,0.93-30.067-7.947-42.478
	c-13.243-18.515-27.84-36.096-42.418-53.611c-14.125-16.972-29.657-32.804-43.299-50.137
	c-18.546-23.564-25.938-50.138-16.344-79.754c8.19-25.285,22.097-46.694,43.364-63.041c5.715-4.393,11.216-9.066,17.703-14.331
	C346.542,69.926,345.091,69.181,343.603,68.519z M375.395,85.806c-3.324,2.451-5.583,4.137-7.862,5.794
	c-19.522,14.185-37.243,30.069-48.533,51.927c-11.155,21.596-11.494,43.226,2.524,63.416c9.174,13.212,20.031,25.305,30.635,37.462
	c14.127,16.196,29.337,31.476,42.981,48.056c14.325,17.408,26.711,36.244,32.038,59.306c14.122-15.087,24.997-40.818,16.398-63.453
	c-5.804-15.276-12.096-30.368-18.168-45.542c-9.682-24.195-5.57-45.822,12.521-64.517c2.588-2.674,6.727-3.847,9.353-5.281
	C430.617,134.039,406.517,106.903,375.395,85.806z"/>
</svg>
