<?xml version="1.0" encoding="utf-8"?>
<!-- Generator: Adobe Illustrator 26.2.1, SVG Export Plug-In . SVG Version: 6.00 Build 0)  -->
<svg version="1.1" id="auto" xmlns="http://www.w3.org/2000/svg" xmlns:xlink="http://www.w3.org/1999/xlink" x="0px" y="0px"
	 viewBox="0 0 500 500" style="enable-background:new 0 0 500 500;" xml:space="preserve">
<path d="M249.5-0.5C111.2-0.5-1,111.7-1,250s112.2,250.5,250.5,250.5S500,388.3,500,250S387.8-0.5,249.5-0.5z M365.1,94.1
	c-25.5-8.3-32.4-6.7-45.3-5.5c-14.7,1.3-36.7,17.1-36.7,38.3v19.3h68.4v31.6h-66v94.8c0,0,1.1,51.2,0,96.2
	c-1.1,45-36.5,88.3-87.1,88.3c-50.6,0-88.9-36.9-88.9-88.3c0-51.4,41.3-87.3,87.9-87.3c33.5,0,49.8,15.5,49.8,15.5V177.9H222v-31.6
	h25.2v-21.2c0-46.6,43.2-66.7,62.2-67.8c17.4-1.6,38.3-2.2,55.7,2.1V94.1z"/>
<ellipse cx="198.8" cy="367.4" rx="51.4" ry="51.4"/>
</svg>
