<?xml version="1.0" encoding="utf-8"?>
<!-- Generator: Adobe Illustrator 25.1.0, SVG Export Plug-In . SVG Version: 6.00 Build 0)  -->
<svg version="1.1" id="avax" xmlns="http://www.w3.org/2000/svg" xmlns:xlink="http://www.w3.org/1999/xlink" x="0px" y="0px"
	 viewBox="0 0 500 500" style="enable-background:new 0 0 500 500;" xml:space="preserve">
<style type="text/css">
	.st0{fill-rule:evenodd;clip-rule:evenodd;}
</style>
<path class="st0" d="M250,0C111.9,0,0,111.9,0,250s111.9,250,250,250s250-111.9,250-250S388.1,0,250,0z M210.2,355.6
	c-8.7,13.4-23,21.9-39,22.8H92.3c-17.3,0-24.4-12-15.7-27.2l157.3-277c8.7-15,22.4-15,31.1,0l12,21.7l28.3,49.8
	c6.9,14.2,6.9,30.9,0,45.1L210.2,355.6z M407.7,378.4H299c-17.1,0-24.2-12.2-15.7-27.2l54.9-94.7c8.7-15,22.6-15,31.3,0l53.9,94.7
	C432.1,366.2,425,378.4,407.7,378.4z"/>
</svg>
