<?xml version="1.0" encoding="iso-8859-1"?>
<!-- Generator: Adobe Illustrator 19.0.0, SVG Export Plug-In . SVG Version: 6.00 Build 0)  -->
<svg version="1.1" id="Layer_1" xmlns="http://www.w3.org/2000/svg" xmlns:xlink="http://www.w3.org/1999/xlink" x="0px" y="0px"
	 viewBox="0 0 500 500" enable-background="new 0 0 500 500" xml:space="preserve">
<path d="M495,325.287c-4.959,0.773-9.268,2.02-13.581,2.029c-49.967,0.112-99.935,0.039-149.903-0.007
	c-0.793-0.001-1.586-0.291-3.987-0.76c-25.25-23.137-51.53-47.218-78.866-72.266c-26.101,23.79-52.073,47.462-77.999,71.092
	c-55.5,0-110.638,0-166.528,0c0-8.473,0-16.431,0-24.806c54.969-50.299,110.229-100.865,166.118-152.007
	c26.909,24.282,52.684,47.54,79.397,71.645c26.094-23.615,51.544-46.648,77.936-70.533C383.625,200.965,439.181,251.814,495,302.905
	C495,309.745,495,316.563,495,325.287z M327.859,181.633c-20.057,18.291-39.731,36.232-60.339,55.025
	c24.136,22.038,47.418,43.297,70.085,63.995c39.702,0,78.478,0,120.147,0C413.495,260.101,371.157,221.307,327.859,181.633z
	 M160.781,301.442c23.273-21.234,46.245-42.194,69.821-63.705c-20.231-18.501-39.542-36.161-60.032-54.898
	c-42.99,39.302-85.505,78.169-129.733,118.603C82.193,301.442,120.96,301.442,160.781,301.442z"/>
</svg>
