<?xml version="1.0" encoding="utf-8"?>
<!-- Generator: Adobe Illustrator 25.1.0, SVG Export Plug-In . SVG Version: 6.00 Build 0)  -->
<svg version="1.1" id="awc" xmlns="http://www.w3.org/2000/svg" xmlns:xlink="http://www.w3.org/1999/xlink" x="0px" y="0px"
	 viewBox="0 0 500 500" style="enable-background:new 0 0 500 500;" xml:space="preserve">
<style type="text/css">
	.st0{fill-rule:evenodd;clip-rule:evenodd;}
</style>
<path id="path0_fill" class="st0" d="M5.2,491.3L150.4,93.6c18.4-46.4,52.8-72.7,98.5-73.5l0,0c0.3,0,0.7,0,1,0s0.7,0,1,0l0,0
	c45.7,0.8,80,27,98.5,73.5l145.2,397.7L404.7,460l-124-339.7c-7.6-18.8-16.3-25.6-30.7-25.9c-14.5,0.3-23.2,7.1-30.7,25.9L95.1,460
	L5.2,491.3z M313.1,339.9c0,34.7-27.9,62.9-62.3,62.9s-62.3-28.2-62.3-62.9s27.9-62.9,62.3-62.9S313.1,305.1,313.1,339.9z"/>
</svg>
