<?xml version="1.0" encoding="iso-8859-1"?>
<!-- Generator: Adobe Illustrator 19.0.0, SVG Export Plug-In . SVG Version: 6.00 Build 0)  -->
<svg version="1.1" id="Layer_1" xmlns="http://www.w3.org/2000/svg" xmlns:xlink="http://www.w3.org/1999/xlink" x="0px" y="0px"
	 viewBox="0 0 500 500" enable-background="new 0 0 500 500" xml:space="preserve">
<path d="M201.822,4c52.347,1.293,97.625,15.859,137.705,46.109c26.099,19.699,46.563,44.058,62.042,72.735
	c1.077,1.995,2.208,4.098,2.63,6.283c1.004,5.192-1.301,9.525-5.915,12.037c-4.07,2.215-9.642,1.675-13.411-1.544
	c-3.812-3.256-7.441-6.725-11.19-10.055c-30.578-27.163-65.264-47.585-103.288-62.363c-20.639-8.022-41.846-14.147-63.751-17.829
	c-12.305-2.068-24.549-4.288-37.072-4.544c-13.489-0.276-26.974-0.803-40.463-1.082c-2.854-0.059-5.744,0.854-8.575,0.67
	c-5.355-0.348-9.942-4.635-10.898-9.609c-1.033-5.377,1.625-10.691,7.436-12.873c10.166-3.817,20.379-7.69,30.861-10.439
	c12.556-3.293,25.327-5.884,38.441-6.212C192.328,5.133,198.264,4.31,201.822,4z M469.06,141.754
	c-5.931-30.332-17.379-58.528-35.095-83.967c-5.148-7.393-10.818-14.463-16.715-21.278c-3.561-4.115-9.218-4.363-13.718-1.645
	c-4.418,2.668-6.474,7.677-5.043,12.881c0.806,2.933,1.919,5.789,2.997,8.64c11.908,31.495,19.243,64.122,21.081,97.639
	c1.516,27.647,0.932,55.363-4.124,82.873c-3.977,21.64-9.316,42.821-16.982,63.399c-3.462,9.293-7.455,18.406-11.6,27.421
	c-2.26,4.915-2.4,9.212,1.335,13.268c4.907,5.33,11.54,6.724,18.017-0.125c7.134-7.543,14.08-15.382,20.165-23.776
	c28.714-39.608,43.443-83.896,43.57-137.665C473.568,169.831,471.784,155.683,469.06,141.754z M330.653,435.99
	c12.622-1.094,24.883-3.951,36.944-7.624c30.862-9.398,58.477-24.61,82.873-45.857c17.311-15.077,31.78-32.404,43.611-51.972
	c1.475-2.439,2.369-5.771,2.158-8.586c-0.626-8.369-11.028-13.446-19.267-7.076c-12.743,9.854-25.747,19.476-39.322,28.127
	c-33.219,21.169-69.512,35.196-107.834,43.921c-11.348,2.583-22.912,4.308-34.445,5.947c-6.834,0.971-13.821,0.806-20.704,1.5
	c-21.809,2.198-43.468,0.636-65.071-2.371c-3.72-0.518-9.808,1.33-12.177,5.971c-2.29,4.489-2.058,10.004,1.211,13.339
	c1.568,1.6,3.683,2.772,5.726,3.783c30.91,15.284,63.751,22.436,102.191,23.248C311.888,437.815,321.262,436.805,330.653,435.99z
	 M5.165,303.402c0.058,0.921,0.45,1.846,0.807,2.719c2.354,5.756,6.416,7.43,11.066,7.737c4.881,0.322,9.623-3.957,11.177-9.253
	c2.359-8.039,4.463-16.161,7.082-24.114c15.279-46.409,39.707-87.585,72.352-123.768c18.881-20.928,39.851-39.695,63.654-55.023
	c9.651-6.215,19.601-11.962,29.334-18.053c4.981-3.117,6.416-8.105,4.244-13.515c-2.077-5.173-7.296-8.705-12.14-7.76
	c-7.493,1.462-15.029,2.868-22.368,4.933c-49.885,14.039-90.69,41.408-121.756,83.117C19.132,190.008,5.074,234.678,4.16,285.324
	C4.428,290.298,4.755,296.852,5.165,303.402z M70.175,238.837c-1.15,5.216-2.043,10.56-2.308,15.885
	c-0.564,11.351-1.946,22.688-0.184,34.102c1.255,8.134,1.242,16.479,2.724,24.559c3.072,16.744,7.908,33.004,14.638,48.708
	c11.815,27.57,28.442,51.871,49.814,72.786c15.305,14.977,32.571,27.449,51.611,37.443c17.037,8.943,34.937,15.471,53.538,20.186
	c4.68,1.186,9.88-0.74,12.295-4.314c3.055-4.52,3.305-10.033,0.13-13.965c-1.517-1.879-3.711-3.304-5.797-4.618
	c-18.125-11.417-34.79-24.73-50.382-39.347c-17.914-16.793-33.727-35.456-47.638-55.698
	c-23.423-34.082-40.707-70.986-50.748-111.178c-2.032-8.132-3.691-16.359-5.776-24.477c-1.375-5.355-5.615-8.375-10.955-8.384
	C75.845,230.517,71.325,233.624,70.175,238.837z"/>
</svg>
