<?xml version="1.0" encoding="iso-8859-1"?>
<!-- Generator: Adobe Illustrator 19.0.0, SVG Export Plug-In . SVG Version: 6.00 Build 0)  -->
<svg version="1.1" id="Layer_1" xmlns="http://www.w3.org/2000/svg" xmlns:xlink="http://www.w3.org/1999/xlink" x="0px" y="0px"
	 viewBox="0 0 500 500" enable-background="new 0 0 500 500" xml:space="preserve">
<path d="M332.231,191.648c-13.685,13.262-28.246,27.373-43.289,41.951c15.006,14.53,29.573,28.635,43.412,42.035
	c0,16.998,0,32.526,0,48.262c-15.784,0-31.416,0-47.373,0c0-7.636,0-15.303,0-23.085c-6.846-6.588-13.586-13.075-20.251-19.489
	c-6.449,6.387-13.089,12.964-19.973,19.781c0,7.272,0,14.859,0,22.723c-15.88,0-31.594,0-47.53,0c0-15.531,0-31.048,0-47.919
	c13.879-13.372,28.491-27.45,43.542-41.951c-15.295-14.72-29.896-28.774-43.626-41.988c0-17.38,0-32.918,0-48.715
	c15.794,0,31.508,0,47.456,0c0,7.633,0,15.199,0,22.862c6.811,6.56,13.555,13.055,20.224,19.478
	c6.322-6.267,13.024-12.912,20.04-19.868c0-7.158,0-14.735,0-22.523c15.832,0,31.462,0,47.37,0
	C332.231,158.663,332.231,174.166,332.231,191.648z M240.722,299.821c8.52-8.444,16.414-16.267,23.913-23.699
	c7.88,7.643,15.872,15.395,24.1,23.375c0,6.714,0,13.556,0,20.425c13.447,0,26.551,0,39.762,0c0-13.992,0-27.637,0-42.961
	c-14.302-13.813-29.4-28.395-45.301-43.752c15.711-15.102,30.929-29.73,45.151-43.4c0-15.37,0-28.985,0-42.782
	c-13.286,0-26.304,0-39.715,0c0,7.155,0,14.119,0,20.172c-8.515,8.484-16.38,16.32-24.036,23.948
	c-7.791-7.611-15.686-15.322-23.844-23.292c0-6.846,0-13.793,0-20.795c-13.438,0-26.446,0-39.682,0c0,13.981,0,27.712,0,42.894
	c14.383,13.934,29.465,28.545,45.29,43.877c-15.662,15.15-30.836,29.827-45.262,43.781c0,14.974,0,28.595,0,42.442
	c13.26,0,26.267,0,39.625,0C240.722,313.078,240.722,306.234,240.722,299.821z M360.591,142.126
	c0.955,1.157,1.675,2.029,2.587,3.132c37.956-32.643,75.714-65.115,113.595-97.693c-2.021-2.28-3.73-4.209-5.664-6.392
	C434.194,74.894,397.481,108.429,360.591,142.126z M458.46,41.046c-1.966-2.082-3.726-3.946-5.68-6.016
	c-32.669,33.74-65.271,67.41-98.171,101.389c0.952,0.961,1.766,1.782,2.846,2.871C391.556,106.122,425.154,73.442,458.46,41.046z
	 M440.431,35.793c-2.203-1.841-4.089-3.418-6.142-5.133c-28.659,33.472-57.111,66.701-85.661,100.044
	c1.134,0.98,1.925,1.664,3.062,2.646C381.41,100.677,410.853,68.309,440.431,35.793z M365.87,148.507
	c0.977,1.173,1.755,2.106,2.59,3.108c35.101-26.621,69.895-53.009,104.878-79.54c-1.718-2.183-3.243-4.12-4.949-6.288
	C434.185,93.385,400.13,120.863,365.87,148.507z M147.898,161.953c0.83-1.305,1.467-2.306,2.165-3.404
	c-36.031-23.937-71.647-47.599-107.376-71.336c-1.441,2.262-2.707,4.25-4.258,6.684C75.011,116.64,111.309,139.206,147.898,161.953z
	 M481.123,86.529c-1.642-2.304-3.063-4.298-4.61-6.469c-35.321,25.087-70.414,50.011-105.622,75.018
	c0.794,1.159,1.38,2.015,2.285,3.337C409.304,134.356,445.119,110.505,481.123,86.529z M130.224,257.11
	c-0.385-1.569-0.627-2.554-0.961-3.912c-42.209,6.536-84.172,13.035-126.252,19.551c0.583,2.871,1.05,5.166,1.573,7.741
	C46.732,272.647,88.355,264.901,130.224,257.11z M37.462,102.893c-1.382,2.476-2.562,4.589-3.807,6.82
	c36.863,19.877,73.351,39.551,110.025,59.327c0.765-1.326,1.338-2.319,2.015-3.494C109.55,144.622,73.598,123.811,37.462,102.893z
	 M480.039,96.967c-34.988,21.745-69.696,43.315-104.603,65.009c0.812,1.278,1.417,2.229,2.165,3.407
	c35.5-20.603,70.768-41.071,106.453-61.781C482.618,101.229,481.409,99.231,480.039,96.967z M230.43,486.511
	c2.782,0.339,5.078,0.619,7.637,0.931c3.718-40.675,7.404-80.992,11.108-121.517c-1.484-0.181-2.498-0.305-3.992-0.487
	C240.236,406.035,235.344,446.186,230.43,486.511z M495.414,133.154c-1.133-2.466-2.097-4.563-3.202-6.969
	c-36.506,16.85-72.699,33.556-109.052,50.335c0.68,1.365,1.191,2.391,1.792,3.599C421.795,164.455,458.465,148.864,495.414,133.154z
	 M379.636,169.064c0.587,1.207,1.082,2.224,1.767,3.63c35.35-17.694,70.476-35.277,105.813-52.965
	c-1.147-2.27-2.202-4.357-3.426-6.779C448.874,131.762,414.363,150.355,379.636,169.064z M36.662,120.339
	c-1.16,2.531-2.113,4.611-3.155,6.886c35.712,16.493,71.033,32.806,106.543,49.206c0.575-1.284,1.037-2.313,1.645-3.67
	C106.65,155.271,71.797,137.875,36.662,120.339z M496.817,149.275c-0.972-2.53-1.804-4.696-2.697-7.023
	c-35.943,13.952-71.66,27.817-107.593,41.765c0.441,1.312,0.808,2.403,1.285,3.822C424.299,174.93,460.402,162.158,496.817,149.275z
	 M335.489,120.699c1.302,0.88,2.244,1.517,3.348,2.263c22.281-31.516,44.451-62.876,66.714-94.367
	c-2.122-1.531-3.927-2.833-6.09-4.394C377.976,56.61,356.774,88.591,335.489,120.699z M19.872,285.598
	c0.751,2.767,1.347,4.962,1.955,7.203c36.831-9.247,73.185-18.374,109.801-27.568c-0.187-1.35-0.342-2.468-0.554-4
	C93.708,269.42,56.907,277.483,19.872,285.598z M128.114,240.732c-0.21-1.706-0.345-2.81-0.494-4.02
	c-37.834,1.161-75.291,2.311-113.146,3.472c0.188,2.645,0.35,4.923,0.527,7.426C52.942,245.303,90.413,243.025,128.114,240.732z
	 M162.788,322.661c-1.048-1.141-1.817-1.978-2.74-2.982c-28.476,24.491-56.783,48.836-85.294,73.356
	c1.67,1.896,3.138,3.563,4.905,5.57C107.531,373.142,135.097,347.958,162.788,322.661z M257.461,366.409c-1.521,0-2.649,0-4.073,0
	c-2.249,37.509-4.489,74.865-6.742,112.455c2.756,0,4.856,0,7.378,0C255.176,441.185,256.317,403.849,257.461,366.409z
	 M168.371,136.045c1.217-0.967,2.161-1.716,3.179-2.525c-25.124-27.566-49.855-54.701-74.758-82.025
	c-1.812,1.814-3.312,3.314-5.211,5.215C117.393,83.376,142.865,109.693,168.371,136.045z M19.926,254.993
	c0.374,2.639,0.68,4.797,1.026,7.234c36.134-4.435,71.863-8.819,107.807-13.231c-0.144-1.458-0.257-2.598-0.398-4.025
	C92.189,248.314,56.231,251.637,19.926,254.993z M290.263,363.172c-1.591,0.537-2.664,0.9-3.835,1.295
	c6.63,35.625,13.218,71.02,19.875,106.788c2.421-0.427,4.57-0.807,7.194-1.27C305.726,434.26,298.02,398.832,290.263,363.172z
	 M15.407,224.996c0,2.698,0,4.885,0,7.074c37.585,0,74.923,0,112.345,0c0-1.243,0-2.171,0-3.728
	C90.122,227.222,52.807,226.11,15.407,224.996z M134.067,273.096c-0.399-1.406-0.729-2.571-1.097-3.866
	c-34.556,9.853-68.666,19.578-102.901,29.339c0.693,2.362,1.285,4.379,2.047,6.975C66.26,294.677,100.033,283.928,134.067,273.096z
	 M224.95,361.42c-1.342-0.411-2.411-0.738-3.841-1.176c-10.817,34.167-21.538,68.028-32.344,102.159
	c2.525,0.733,4.527,1.314,6.96,2.02C205.532,429.859,215.203,395.773,224.95,361.42z M493.256,298.32
	c0.691-2.479,1.276-4.58,1.952-7.006c-34.765-8.732-69.214-17.384-103.726-26.052c-0.471,1.476-0.754,2.366-1.216,3.813
	C424.677,278.846,458.865,288.554,493.256,298.32z M321.247,112.436c1.367,0.661,2.372,1.146,3.627,1.753
	c16.637-31.011,33.13-61.755,49.701-92.644c-2.268-1.156-4.219-2.151-6.411-3.268C352.486,49.74,336.932,80.958,321.247,112.436z
	 M72.547,89.533c-1.487,2.137-2.745,3.945-4.077,5.858c28.14,19.995,55.972,39.771,83.941,59.645
	c0.798-1.084,1.493-2.028,2.397-3.255C127.266,130.938,99.974,110.287,72.547,89.533z M128.168,224.103
	c0.111-1.535,0.192-2.648,0.293-4.03c-34.364-3.135-68.444-6.243-102.665-9.365c-0.253,2.551-0.46,4.639-0.704,7.094
	C59.577,219.911,93.746,221.999,128.168,224.103z M162.763,142.143c1.14-1.043,1.992-1.821,3-2.743
	c-23.833-23.125-47.307-45.9-70.903-68.794c-1.719,1.82-3.174,3.361-4.803,5.086C114.294,97.844,138.437,119.91,162.763,142.143z
	 M209.492,355.882c-1.481-0.61-2.509-1.033-3.709-1.527c-13.732,29.894-27.348,59.533-41.099,89.468
	c2.153,1.004,4.048,1.888,6.35,2.961C183.916,416.336,196.664,386.204,209.492,355.882z M395.482,232.607c0,1.317,0,2.433,0,3.92
	c31.104,0.938,62.047,1.872,93.246,2.813c0.113-2.361,0.207-4.326,0.322-6.732C457.587,232.607,426.624,232.607,395.482,232.607z
	 M117.069,52.685c-1.97,1.732-3.529,3.102-5.218,4.587c21.058,24.598,41.861,48.899,62.743,73.291c1.171-0.911,2-1.556,3.187-2.48
	C157.443,102.826,137.325,77.841,117.069,52.685z M478.786,308.964c0.838-2.571,1.473-4.522,2.152-6.605
	c-30.803-9.808-61.2-19.488-91.74-29.213c-0.497,1.444-0.831,2.415-1.304,3.792C418.248,287.634,448.4,298.258,478.786,308.964z
	 M389.253,191.785c0.392,1.415,0.693,2.504,1.071,3.869c31.057-8.856,61.809-17.625,92.641-26.417
	c-0.663-2.282-1.217-4.19-1.936-6.669C450.215,172.378,419.852,182.044,389.253,191.785z M157.446,316.333
	c-1.079-1.226-1.826-2.075-2.674-3.039c-25.221,19.137-50.234,38.117-75.362,57.184c1.51,1.929,2.733,3.492,4.245,5.423
	C108.455,355.881,132.879,336.164,157.446,316.333z M240.972,365.038c-1.421-0.334-2.537-0.597-3.909-0.92
	c-5.757,31.123-11.479,62.054-17.263,93.324c2.382,0.367,4.437,0.684,6.8,1.048C231.421,427.143,236.187,396.154,240.972,365.038z
	 M168.528,328.621c-1.057-0.99-1.892-1.771-2.95-2.762c-22.423,21.802-44.698,43.459-67.017,65.159
	c1.639,1.708,3.092,3.222,4.757,4.956C125.058,373.52,146.735,351.131,168.528,328.621z M52.086,143.709
	c-0.902,2.34-1.612,4.183-2.469,6.407c29.141,11.319,58.077,22.559,87.163,33.857c0.599-1.377,1.014-2.331,1.6-3.678
	C109.411,168.013,80.84,155.9,52.086,143.709z M130.212,207.707c0.209-1.546,0.358-2.652,0.538-3.983
	c-30.231-6.579-60.198-13.101-90.318-19.655c-0.484,2.496-0.839,4.326-1.298,6.691C69.723,196.451,99.807,202.049,130.212,207.707z
	 M393.209,257.202c-0.323,1.503-0.56,2.61-0.842,3.922c30.22,6.586,60.146,13.108,90.374,19.695c0.46-2.209,0.862-4.138,1.392-6.684
	C453.535,268.437,423.455,262.835,393.209,257.202z M180.089,21.905c-2.3,0.974-4.18,1.77-6.258,2.649
	c11.971,28.305,23.77,56.202,35.629,84.24c1.263-0.394,2.246-0.701,3.841-1.198C202.16,78.85,191.185,50.534,180.089,21.905z
	 M265.773,366.24c-1.57,0.113-2.58,0.186-3.679,0.266c0,31.352,0,62.472,0,93.683c2.164,0,4.024,0,6.488,0
	C267.64,428.689,266.71,397.578,265.773,366.24z M274.032,365.872c-1.676,0.232-2.784,0.386-4.002,0.554
	c1.871,30.533,3.721,60.731,5.568,90.883c2.347,0,4.423,0,6.784,0C279.587,426.7,276.82,396.398,274.032,365.872z M49.699,307.404
	c0.974,2.347,1.759,4.235,2.599,6.258c28.368-11.019,56.324-21.878,84.41-32.787c-0.477-1.444-0.803-2.434-1.258-3.813
	C106.789,287.203,78.412,297.244,49.699,307.404z M177.799,336.997c-18.869,23.496-37.551,46.759-56.302,70.108
	c1.921,1.501,3.5,2.735,5.302,4.143c18.102-23.967,36.1-47.796,54.26-71.841C179.915,338.562,178.933,337.835,177.799,336.997z
	 M354.976,28.926c-2.265-0.958-4.07-1.722-6.193-2.62c-11.724,27.698-23.322,55.098-34.993,82.67
	c1.279,0.575,2.228,1.001,3.667,1.648C330.027,83.255,342.445,56.214,354.976,28.926z M180.983,441.351
	c2.279,0.812,4.137,1.474,6.339,2.258c9.986-28.378,19.867-56.458,29.794-84.665c-1.265-0.515-2.233-0.91-3.716-1.514
	C202.536,385.554,191.805,413.334,180.983,441.351z M201.997,352.504c-1.201-0.667-2.208-1.226-3.51-1.95
	c-14.16,26.394-28.262,52.682-42.501,79.224c2.088,1.089,3.837,2.001,5.986,3.122C175.442,405.844,188.686,379.241,201.997,352.504z
	 M379.214,41.995c-2.092-1.233-3.796-2.237-5.79-3.412c-15.024,26.001-29.926,51.793-44.907,77.72
	c1.341,0.79,2.232,1.315,3.473,2.045C347.831,92.737,363.453,67.477,379.214,41.995z M290.369,101.439
	c1.375,0.354,2.543,0.655,3.897,1.004c7.166-28.718,14.229-57.018,21.339-85.514c-2.367-0.573-4.281-1.037-6.479-1.57
	C302.868,44.077,296.651,72.607,290.369,101.439z M93.142,87.975c-1.397,1.677-2.724,3.269-4.282,5.138
	c22.99,18.558,45.702,36.893,68.506,55.3c1.006-1.188,1.687-1.994,2.617-3.092C137.595,126.114,115.464,107.126,93.142,87.975z
	 M306.08,358.852c-1.41,0.515-2.461,0.899-3.769,1.376c8.836,27.791,17.6,55.356,26.413,83.076c2.235-0.755,3.999-1.35,6.3-2.128
	C325.3,413.518,315.736,386.314,306.08,358.852z M187.824,120.662c1.277-0.816,2.255-1.44,3.397-2.169
	c-15.18-24.474-30.262-48.79-45.454-73.283c-1.934,1.224-3.588,2.272-5.598,3.544C156.238,73.001,171.994,96.776,187.824,120.662z
	 M383.23,288.462c-0.607,1.321-1.081,2.35-1.676,3.643c25.996,12.98,51.785,25.857,77.876,38.885
	c1.037-2.147,1.896-3.924,2.901-6.003C435.725,312.701,409.558,300.618,383.23,288.462z M478.989,198.533
	c-0.474-2.448-0.847-4.374-1.263-6.521c-28.377,5.284-56.37,10.496-84.596,15.752c0.261,1.384,0.451,2.389,0.746,3.953
	C422.457,207.291,450.597,202.932,478.989,198.533z M146.434,419.056c2.057,1.169,3.828,2.176,5.743,3.265
	c14.307-24.781,28.395-49.184,42.595-73.779c-1.102-0.648-2.093-1.23-3.461-2.034C176.251,370.854,161.439,394.8,146.434,419.056z
	 M288.629,449.989c2.213-0.216,4.147-0.404,6.561-0.64c-4.35-28.342-8.647-56.335-12.988-84.625
	c-1.531,0.355-2.624,0.608-3.923,0.909C281.734,393.792,285.162,421.729,288.629,449.989z M340.651,27.809
	c-2.231-0.779-4.148-1.448-6.23-2.175c-9.511,27.03-18.851,53.574-28.257,80.306c1.297,0.51,2.343,0.921,3.734,1.468
	C320.221,80.689,330.37,54.421,340.651,27.809z M473.479,185.85c-0.548-2.366-0.991-4.277-1.476-6.368
	c-26.901,6.75-53.504,13.426-80.382,20.17c0.16,1.299,0.298,2.418,0.497,4.029C419.523,197.676,446.392,191.787,473.479,185.85z
	 M386.487,280.905c-0.55,1.319-0.978,2.346-1.541,3.696c25.616,10.868,50.94,21.612,76.518,32.463
	c0.839-2.094,1.571-3.921,2.437-6.083C438.052,300.939,412.411,290.976,386.487,280.905z M363.923,423.018
	c2.098-1.198,3.793-2.166,5.652-3.228c-13.8-23.895-27.404-47.449-41.155-71.26c-1.329,0.843-2.281,1.445-3.4,2.155
	C338.039,374.891,350.923,398.847,363.923,423.018z M134.09,191.748c0.483-1.439,0.836-2.492,1.276-3.8
	c-25.652-9.042-51.051-17.995-76.651-27.019c-0.764,2.113-1.401,3.875-2.208,6.107C82.478,175.309,108.157,183.488,134.09,191.748z
	 M395.257,240.789c-0.138,1.439-0.255,2.65-0.388,4.03c27.154,2.476,53.91,4.916,80.827,7.371c0.287-2.276,0.521-4.13,0.811-6.429
	C449.209,244.09,422.36,242.447,395.257,240.789z M475.888,225.701c-0.184-2.389-0.328-4.243-0.497-6.431
	c-26.859,1.639-53.426,3.259-80.024,4.882c0,1.532,0,2.459,0,4.043C422.365,227.359,449.001,226.534,475.888,225.701z
	 M50.864,199.802c-0.308,2.403-0.553,4.313-0.817,6.368c26.546,3.26,52.597,6.459,78.889,9.688c0.136-1.491,0.229-2.507,0.367-4.02
	C102.992,207.8,77.076,203.824,50.864,199.802z M338.676,431.339c2.177-0.901,3.979-1.647,5.929-2.453
	c-10.356-24.478-20.573-48.628-30.844-72.904c-1.343,0.506-2.315,0.872-3.746,1.411
	C319.639,382.222,329.105,406.645,338.676,431.339z M194.91,116.456c1.403-0.968,2.328-1.606,3.328-2.297
	c-12.466-23.165-24.797-46.081-37.214-69.155c-2.009,1.186-3.615,2.134-5.507,3.251C168.758,71.18,181.772,93.711,194.91,116.456z
	 M342.23,125.475c1.227,0.949,2.12,1.64,3.197,2.473c16.259-20.238,32.352-40.268,48.606-60.501
	c-1.73-1.357-3.202-2.511-5.018-3.934C373.287,84.344,357.815,104.835,342.23,125.475z M210.186,437.931
	c2.422,0.453,4.215,0.787,6.249,1.168c5.526-25.404,10.969-50.43,16.455-75.651c-1.416-0.38-2.401-0.644-3.872-1.038
	C222.685,387.807,216.47,412.732,210.186,437.931z M394.396,249.041c-0.207,1.511-0.36,2.627-0.547,3.994
	c25.677,3.944,51.043,7.839,76.726,11.784c0.218-2.14,0.406-3.98,0.646-6.336C445.428,255.313,420.05,252.194,394.396,249.041z
	 M139.478,59.777c-1.937,1.34-3.479,2.406-5.228,3.615c15.647,20.734,31.187,41.326,46.796,62.009
	c1.24-0.86,2.103-1.458,3.325-2.305C169.293,101.829,154.436,80.875,139.478,59.777z M131.805,199.651
	c0.403-1.439,0.701-2.501,1.083-3.868c-25.034-7.104-49.744-14.116-74.566-21.16c-0.625,2.316-1.083,4.009-1.658,6.141
	C81.901,187.107,106.74,193.351,131.805,199.651z M298.274,361.378c-1.412,0.408-2.474,0.715-3.856,1.114
	c6.334,25.239,12.597,50.193,18.914,75.362c2.258-0.678,3.935-1.182,6.091-1.829C312.31,410.921,305.317,386.237,298.274,361.378z
	 M187.735,344.257c-1.156-0.826-2.164-1.546-3.285-2.347c-14.644,20.714-29.134,41.212-43.75,61.887
	c1.75,1.224,3.275,2.29,5.174,3.619C159.984,386.127,173.789,365.299,187.735,344.257z M143.74,295.752
	c-0.761-1.349-1.32-2.34-1.975-3.5c-22.385,11.208-44.545,22.304-66.795,33.445c1.054,2.015,1.918,3.666,2.913,5.567
	C99.914,319.384,121.726,307.622,143.74,295.752z M324.771,33.272c-2.078-0.586-3.952-1.115-6.041-1.705
	c-6.843,24.122-13.589,47.899-20.392,71.88c1.166,0.383,2.254,0.741,3.814,1.254C309.747,80.719,317.206,57.163,324.771,33.272z
	 M379.446,295.776c-0.717,1.506-1.195,2.51-1.739,3.652c20.85,12.059,41.402,23.945,62.139,35.939
	c1.094-1.992,1.937-3.526,2.973-5.412C421.627,318.526,400.645,307.21,379.446,295.776z M299.303,29.905
	c-2.372-0.414-3.981-0.696-6.066-1.06c-3.656,23.757-7.287,47.349-10.933,71.036c1.456,0.313,2.458,0.528,3.938,0.847
	C290.616,77.006,294.954,53.488,299.303,29.905z M174.559,334.297c-1.049-0.998-1.874-1.782-2.941-2.796
	c-16.003,17.604-31.838,35.023-47.785,52.565c1.613,1.487,2.906,2.679,4.53,4.177C143.922,370.074,159.168,352.27,174.559,334.297z
	 M152.405,309.8c-0.89-1.186-1.563-2.084-2.428-3.236c-19.709,13.131-39.224,26.133-58.945,39.272
	c1.197,1.768,2.179,3.217,3.452,5.098C113.94,337.116,133.07,323.531,152.405,309.8z M394.504,215.899
	c0.11,1.423,0.196,2.55,0.31,4.024c23.635-2.184,47.019-4.345,70.558-6.52c-0.158-2.178-0.285-3.921-0.446-6.142
	C441.177,210.174,417.953,213.023,394.504,215.899z M177.559,49.619c-1.908,0.917-3.562,1.712-5.447,2.618
	c10.102,20.291,20.009,40.192,29.96,60.182c1.273-0.62,2.219-1.082,3.612-1.761C196.251,90.185,186.937,69.972,177.559,49.619z
	 M87.754,333.141c1.179,1.911,2.151,3.488,3.174,5.146c19.088-11.864,37.903-23.559,56.876-35.352
	c-0.72-1.178-1.315-2.151-2.103-3.44C126.34,310.737,107.134,321.889,87.754,333.141z M367.492,403.518
	c1.907-1.259,3.438-2.268,5.049-3.332c-12.464-18.807-24.702-37.273-37.083-55.954c-1.238,0.814-2.172,1.427-3.361,2.209
	C343.973,365.592,355.695,384.495,367.492,403.518z M217.246,106.118c1.507-0.638,2.444-1.035,3.688-1.562
	c-6.773-21.297-13.494-42.429-20.303-63.835c-2.039,0.671-3.687,1.213-5.743,1.889C202.393,63.927,209.788,84.935,217.246,106.118z
	 M321.157,352.422c-1.415,0.775-2.42,1.325-3.519,1.927c9.394,20.375,18.687,40.531,28.065,60.869
	c1.994-0.918,3.576-1.647,5.505-2.535C341.059,392.333,331.147,372.457,321.157,352.422z M354.537,328.479
	c-1.085,1.147-1.876,1.984-2.773,2.932c14.771,16.207,29.342,32.195,44.053,48.336c1.571-1.483,2.842-2.684,4.367-4.124
	C384.982,359.923,369.923,344.37,354.537,328.479z M376.761,395.177c1.83-1.353,3.242-2.397,4.807-3.553
	c-13.19-17.475-26.235-34.758-39.35-52.133c-1.252,0.858-2.122,1.453-3.337,2.285C351.615,359.726,364.138,377.381,376.761,395.177z
	 M241.047,99.995c1.012-0.133,1.582-0.169,2.134-0.291c0.537-0.119,1.055-0.326,1.82-0.571c-2.626-21.28-5.226-42.351-7.841-63.537
	c-2.301,0.261-3.915,0.444-5.899,0.67C234.536,57.595,237.776,78.698,241.047,99.995z M213.183,39.942
	c-2.196,0.622-3.832,1.085-5.73,1.623c5.919,20.887,11.714,41.336,17.555,61.949c1.36-0.398,2.347-0.687,3.829-1.12
	C223.607,81.527,218.423,60.848,213.183,39.942z M426.079,341.456c1.091-1.752,2.046-3.287,3.138-5.043
	c-18.083-11.244-35.84-22.285-53.732-33.41c-0.823,1.185-1.415,2.037-2.301,3.312C390.935,318.108,408.368,329.689,426.079,341.456z
	 M274.093,98.991c1.442,0.181,2.573,0.323,3.99,0.501c2.535-20.809,5.038-41.348,7.558-62.031c-2.155-0.316-3.771-0.553-5.822-0.854
	C277.883,57.702,275.999,78.224,274.093,98.991z M81.789,308.818c0.904,1.991,1.618,3.563,2.43,5.35
	c18.727-8.641,37.148-17.141,55.77-25.734c-0.552-1.294-0.995-2.33-1.582-3.705C119.34,292.842,100.683,300.78,81.789,308.818z
	 M382.434,382.664c1.705-1.541,2.973-2.687,4.304-3.891c-12.847-15.011-25.432-29.716-38.103-44.522
	c-0.999,0.843-1.896,1.599-3.108,2.622C357.954,352.291,370.126,367.394,382.434,382.664z M370.741,309.775
	c-0.831,1.363-1.422,2.331-2.108,3.456c15.39,11.641,30.586,23.135,45.921,34.734c1.222-1.723,2.161-3.047,3.331-4.696
	C402.048,332.018,386.455,320.94,370.741,309.775z M232.977,101.54c1.491-0.354,2.607-0.618,3.911-0.928
	c-3.547-19.028-7.05-37.827-10.574-56.73c-2.014,0.402-3.502,0.698-5.632,1.123C224.823,64.047,228.883,82.716,232.977,101.54z
	 M265.868,98.527c1.592,0,2.604,0,4.001,0c1.156-19.222,2.302-38.298,3.459-57.532c-2.163,0-3.695,0-5.754,0
	C267,60.339,266.436,79.361,265.868,98.527z M385.564,352.671c1.343-1.451,2.367-2.558,3.524-3.808
	c-9.626-8.796-19.025-17.383-28.577-26.111c-0.977,1.046-1.755,1.878-2.762,2.956C367.236,334.904,376.357,343.746,385.564,352.671z
	 M250.885,60.119c-1.959,0.112-3.439,0.197-5.17,0.296c1.185,12.96,2.336,25.555,3.494,38.222c1.42,0,2.549,0,4.056,0
	C252.458,85.577,251.679,72.969,250.885,60.119z M363.362,319.621c8.651,7.412,17.144,14.688,25.744,22.056
	c1.23-1.429,2.15-2.498,3.284-3.815c-8.807-7.115-17.53-14.162-26.527-21.431C364.834,317.743,364.136,318.634,363.362,319.621z
	 M257.279,98.689c1.792-0.156,2.896-0.252,3.998-0.348c0-10.836,0-21.325,0-32.108c-1.675,0.107-3.039,0.195-3.998,0.256
	C257.279,77.362,257.279,87.875,257.279,98.689z M277.629,233.109c16.208-15.606,31.934-30.747,46.727-44.991
	c0-13.451,0-25.268,0-37.001c-10.702,0-21.103,0-31.765,0c0,6.391,0,12.538,0,17.921c-9.747,9.685-18.979,18.859-27.778,27.602
	c-9.203-8.965-18.546-18.067-28.132-27.405c0-5.99,0-12.107,0-18.097c-10.76,0-21.159,0-31.669,0c0,12.115,0,23.963,0,37.501
	c14.832,14.326,30.449,29.409,46.586,44.996c-16.114,15.549-31.816,30.702-46.494,44.866c0,13.749,0,25.582,0,37.531
	c10.64,0,21.037,0,31.726,0c0-6.318,0-12.458,0-18.169c9.645-9.49,18.928-18.624,28.02-27.57
	c9.106,8.906,18.424,18.018,27.913,27.298c0,6.102,0,12.232,0,18.437c10.716,0,21.116,0,31.704,0c0-12.031,0-23.875,0-37.954
	C309.877,264.068,294.139,248.959,277.629,233.109z"/>
</svg>
