<?xml version="1.0" encoding="utf-8"?>
<!-- Generator: Adobe Illustrator 25.1.0, SVG Export Plug-In . SVG Version: 6.00 Build 0)  -->
<svg version="1.1" id="bac" xmlns="http://www.w3.org/2000/svg" xmlns:xlink="http://www.w3.org/1999/xlink" x="0px" y="0px"
	 viewBox="0 0 500 500" style="enable-background:new 0 0 500 500;" xml:space="preserve">
<path d="M250,500C112.1,500,0,387.9,0,250C0,159.9,48.8,76.4,127.3,32.1l0,0C164.6,11.1,207,0,250,0c137.9,0,250,112.1,250,250
	S387.9,500,250,500z M147.3,367.6c0,57.4,46.7,104.2,104.2,104.2c57.4,0,104.2-46.7,104.2-104.2S309,263.4,251.5,263.4
	C194.1,263.4,147.3,310.1,147.3,367.6z M120.5,68.1C62.2,109.8,26.8,177.5,26.8,250c0,86.8,49.8,162.1,122.3,199.1
	c-17.4-21.8-28-49.3-28.5-79.3l0,0V68.1H120.5z M251.5,236.6c72.2,0,131,58.7,131,131c0,29.6-9.9,56.9-26.5,78.9
	c69.8-37.8,117.2-111.7,117.2-196.4C473.2,127,373.1,26.9,250,26.9c-35.8,0-71.1,8.6-102.7,25v236.5
	C171.3,256.9,209.1,236.6,251.5,236.6z"/>
</svg>
