<?xml version="1.0" encoding="utf-8"?>
<!-- Generator: Adobe Illustrator 25.1.0, SVG Export Plug-In . SVG Version: 6.00 Build 0)  -->
<svg version="1.1" id="BAM" xmlns="http://www.w3.org/2000/svg" xmlns:xlink="http://www.w3.org/1999/xlink" x="0px" y="0px"
	 viewBox="0 0 500 500" style="enable-background:new 0 0 500 500;" xml:space="preserve">
<path d="M249.5,1.1C112.7,1.1,1.8,112,1.8,248.8s110.9,247.7,247.7,247.7s247.7-110.9,247.7-247.7S386.3,1.1,249.5,1.1z
	 M165.7,284.9L140,352.4c-0.6,1.5-2,2.5-3.6,2.5l-20.6,0c-2.6,0-4.5-2.6-3.5-5.1l28.2-74.2c0.7-2,2.9-3,4.9-2.2l18,6.8
	C165.4,280.8,166.4,283,165.7,284.9z M245.7,306l-17.2,47.6c-0.5,1.5-2,2.5-3.5,2.5l-20.6,0c-2.6,0-4.5-2.6-3.5-5.1l19.8-54.3
	c0.7-2,2.9-3,4.9-2.2l18,6.8C245.5,301.8,246.5,304,245.7,306z M250.7,293.6l-25.1-9.4l24.7-66.1c-2.8,1.1-14.1,5.2-23.8,5.2
	c-11.2,0-23.2-4.8-23.2-4.8s8.3-5.3,22.9-5.3c8.6,0,15.7,1.6,20,2.9c-7.3-3.5-21-10.8-30.3-20.1c-13.2-13.2-21.5-32.9-21.5-32.9
	s16,3.5,33.2,20.8c14.5,14.5,21.3,28.9,23.1,33.2l8.6-23l25.1,9.4L250.7,293.6z M348.9,261.4l-34,91c-0.5,1.5-2,2.5-3.5,2.5l-20.6,0
	c-2.6,0-4.5-2.6-3.5-5.1l36.6-97.8c0.7-2,2.9-2.9,4.9-2.2l18,6.8C348.6,257.2,349.6,259.4,348.9,261.4z M354,250.8l-25.1-9.4
	l41.4-110.7l25.1,9.4L354,250.8z"/>
</svg>
