<?xml version="1.0" encoding="iso-8859-1"?>
<!-- Generator: Adobe Illustrator 19.0.0, SVG Export Plug-In . SVG Version: 6.00 Build 0)  -->
<svg version="1.1" id="Layer_1" xmlns="http://www.w3.org/2000/svg" xmlns:xlink="http://www.w3.org/1999/xlink" x="0px" y="0px"
	 viewBox="0 0 500 500" enable-background="new 0 0 500 500" xml:space="preserve">
<path d="M250.577,81.322c0-23.317,0-44.519,0-65.72c0-2.601,0-5.201,0-7.753c100.882-6.902,221.648,74.495,240.572,202.367
	c23.656,159.845-94.734,270.919-215.082,281.818C112.003,506.893,5.009,372.283,8.064,250.26c23.928,0,47.897,0,73.377,0
	c3.368,59.425,27.758,108.111,79.157,141.445c31.011,20.112,65.285,29.376,101.828,26.63
	c77.926-5.857,147.882-70.828,155.556-141.312c5.566-51.123-5.241-97.365-38.812-136.549
	C345.978,101.734,302.862,81.844,250.577,81.322z M316.268,255.332c-1.631,36.158-31.288,60.633-72.397,59.748
	c-31.409-0.676-58.989-32.951-58.989-69.034c0-75.272,0-150.543,0-225.815c0-3.802,0-7.603,0-11.158c-26.022,0-50.433,0-75.648,0
	c0,76.756,0.548,152.953-0.195,229.138c-0.484,49.621,16.856,89.863,54.576,122.709c54.517,47.474,157.117,35.893,198.378-23.737
	c42.625-61.601,42.127-121.648-5.677-181.067c-26.047-32.375-63.304-46.38-105.356-47.902c0,25.598,0,50.04,0,75.047
	C292.343,186.543,318.071,215.357,316.268,255.332z M290.388,245.029c-1.055-19.206-21.132-36.711-39.499-34.206
	c0,25.712,0,51.455,0,77.953C274.95,289.616,291.79,270.542,290.388,245.029z"/>
</svg>
