<?xml version="1.0" encoding="iso-8859-1"?>
<!-- Generator: Adobe Illustrator 19.0.0, SVG Export Plug-In . SVG Version: 6.00 Build 0)  -->
<svg version="1.1" id="Layer_1" xmlns="http://www.w3.org/2000/svg" xmlns:xlink="http://www.w3.org/1999/xlink" x="0px" y="0px"
	 viewBox="0 0 2000 2000" style="enable-background:new 0 0 2000 2000;" xml:space="preserve">
<path d="M1981.125,1000.394c-9.015,549.773-430.353,979.128-982.075,978.484c-552.412-0.645-980.367-432.137-977.823-983.622
	C23.749,448.732,449.047,21.331,999.899,21.127C1552.27,20.923,1972.54,451.12,1981.125,1000.394z M1860.511,1000.657
	c0.27-475.209-385.232-860.985-860.353-860.965c-472.672,0.02-859.528,384.645-860.276,855.315
	c-0.761,478.316,382.556,864.466,858.93,865.279C1473.831,1861.097,1860.241,1475.615,1860.511,1000.657z M1528.303,1096.795
	c-97.874-193.883-194.723-385.734-291.519-577.481c-73.35,0-145.699,0-216.773,0c-97.489,192.408-194.219,383.318-292.165,576.628
	c74.295,0,144.561,0,215.193,0c61.051-120.653,121.521-240.158,184.129-363.888c62.668,123.602,123.212,243.015,184.929,364.741
	C1383.697,1096.795,1454.201,1096.795,1528.303,1096.795z M470.819,1096.276c74.888,0,146.272,0,216.163,0
	c95.389-187.181,189.948-372.715,284.45-558.278c2.13-4.182,3.682-8.666,5.34-13.071c0.293-0.78-0.06-1.938-0.422-2.79
	c-0.322-0.758-1.07-1.336-2.514-3.029c-68.668,0-138.221,0-209.627,0C666.823,710.691,569.385,902.375,470.819,1096.276z
	 M477.344,1378.846c0-72.163,0-139.545,0-206.799c25.374-9.61,77.466-7.863,103.22,3.831c5.413,7.484,11.502,15.903,17.641,24.391
	c0,15.468,0,30.644,0,46.868c-5.099,5.958-10.56,12.339-16.017,18.716c33.779,30.739,19.749,66.673,13.369,102.578
	C556.56,1386.987,517.652,1375.306,477.344,1378.846z M532.18,1336.979c2.537,0.374,5.074,0.747,7.611,1.12
	c14.036-14.612,5.057-32.222,6.251-49.313c-6.002,0-10.099,0-16.253,0C530.638,1305.881,531.409,1321.43,532.18,1336.979z
	 M537.928,1251.117c13.76-18.96,12.503-33.07-4.368-42.2C529.566,1223.773,525.705,1237.82,537.928,1251.117z M957.266,1230.162
	c-1.201-0.031-2.402-0.061-3.602-0.092c0-19.45,0-38.9,0-57.269c-25.951-8.136-34.549-7.89-54.388,0.505
	c-5.266,38.674-3.519,185.232,2.273,203.656c16.995,0,33.809,0,52.93,0c0-22.286,0-42.922,0-63.557
	c0.943-0.001,1.885-0.003,2.828-0.004c5.684,21.515,11.367,43.029,16.848,63.776c19.372,0,36.266,0,55.473,0
	c-11.728-39.587-22.875-77.211-33.694-113.731c10.393-30.345,20.445-59.692,30.786-89.886c-16.152-9.346-33.469-8.36-52.761-1.672
	C968.036,1192.565,962.651,1211.364,957.266,1230.162z M828.233,1244.724c-0.809,0.062-1.618,0.125-2.427,0.188
	c-7.825-24.77-15.65-49.54-23.111-73.159c-25.972-7.189-27.31-7.098-46.194,1.989c0,67.796,0,135.032,0,203.294
	c15.765,0,28.595,0,42.983,0c0-26.06,0-50.577,0-75.094c1.639-0.398,3.278-0.796,4.917-1.193
	c8.493,25.886,16.986,51.773,25.54,77.849c16.15-1.118,30.33,3.194,45.731-4.54c0-66.4,0-132.859,0-201.883
	c-14.309-6.158-29.968-9.012-47.44,2.271C828.233,1197.769,828.233,1221.247,828.233,1244.724z M1213.827,1166.243
	c11.107,0,21.573-0.07,32.038,0.013c34.092,0.269,56.129,18.594,57.907,52.424c1.847,35.148,1.802,70.568-0.207,105.709
	c-3.643,63.754-67.71,68.555-103.084,47.16c-14.203-8.591-21.837-23.938-22.232-40.433c-0.934-39.046-0.881-78.143-0.02-117.193
	C1178.653,1194.788,1185.713,1186.831,1213.827,1166.243z M1240.546,1197.841c-14.566,48.611-12.94,123.531,1.757,145.212
	C1249.916,1318.217,1249.665,1226.573,1240.546,1197.841z M745.838,1377.378c-20.91,0-36.815,0-54.489,0
	c-0.639-11.299-1.215-21.48-1.901-33.625c-5.653-1.567-11.212-3.109-19.191-5.321c-1.573,13.615-2.849,24.654-4.263,36.891
	c-16.972,7.29-34.823,1.257-56.046,4.037c6.651-70.914,17.077-138.505,25.034-206.063c21.568-10.078,60.547-9.734,82.583,0.773
	C726.836,1240.74,736.159,1307.778,745.838,1377.378z M682.69,1304.397c2.875-22.058,4.93-42.168-7.472-61.561
	c-2.254,18.957-4.409,37.073-6.686,56.22C673.417,1300.9,677.429,1302.413,682.69,1304.397z M1517.366,1172.729
	c-15.134-6.204-30.426-7.707-44.788,1.934c1.134,24.751,2.234,48.755,3.333,72.76c-1.966,0.351-3.932,0.701-5.898,1.052
	c-8.507-25.903-17.014-51.807-26.41-80.419c-15.523,1.333-29.902,2.567-41.083,3.527c0,71.384,0,138.704,0,204.853
	c15.206,0,27.081,0,41.424,0c0-27,0-51.828,0-76.656c1.541-0.214,3.082-0.427,4.623-0.641c8.266,26.274,16.532,52.548,24.776,78.753
	c14.709,0,26.962,0,44.023,0C1517.366,1307.868,1517.366,1240.547,1517.366,1172.729z M1086.388,1217.152
	c0.006-8.653,3.599-14.407,14.663-15.834c2.463,20.195,4.891,40.098,7.188,58.931c19.585,0,35.202,0,54.065,0
	c-2.154-25.051-4.074-47.383-5.667-65.902c-32.829-34.013-71.32-38.257-107.79-15.296c-4.726,7.474-9.261,14.645-14.321,22.646
	c0,43.167-0.271,87.047,0.113,130.922c0.197,22.475,11.538,37.907,32.026,45.112c7.093,2.495,14.415,4.614,21.806,5.94
	c27.694,4.966,58.915-15.158,68.764-42.463c5.757-15.961,3.774-31.158,1.758-47.407c-17.71,0-33.573,0-52.239,0
	c-1.762,17.266-3.416,33.478-5.223,51.187c-6.287-1.986-9.673-3.056-15.156-4.788
	C1086.375,1298.88,1086.359,1258.016,1086.388,1217.152z M1377.598,1174.379c-19.436-8.651-37.29-8.547-54.95-0.069
	c1.308,34.84,3.049,68.041,3.663,101.262c0.625,33.778,0.138,67.577,0.138,101.193c16.853,0,32.589,0,51.149,0
	C1377.598,1306.5,1377.598,1240.155,1377.598,1174.379z"/>
</svg>
