<?xml version="1.0" encoding="iso-8859-1"?>
<!-- Generator: Adobe Illustrator 19.0.0, SVG Export Plug-In . SVG Version: 6.00 Build 0)  -->
<svg version="1.1" id="Layer_1" xmlns="http://www.w3.org/2000/svg" xmlns:xlink="http://www.w3.org/1999/xlink" x="0px" y="0px"
	 viewBox="0 0 500 500" style="enable-background:new 0 0 500 500;" xml:space="preserve">
<path id="XMLID_4_" d="M26.169,454.571c35.778-20.714,72.238-40.357,107.082-62.537c21.483-13.675,43.253-18.822,68.409-17.975
	c42.437,1.429,84.959,0.184,127.439,0.614c6.407,0.065,13.507,1.829,19.06,4.972c40.656,23.013,81.005,46.57,121.43,69.99
	c2.933,1.699,5.706,3.673,10.683,6.899c-152.942,0-303.257,0-453.571,0C26.524,455.88,26.347,455.226,26.169,454.571z
	 M236.04,42.439C161.516,171.556,86.991,300.674,11.027,432.286c4.369-1.599,5.7-1.881,6.821-2.526
	c43.587-25.072,87.201-50.1,130.638-75.429c3.446-2.01,6.275-5.781,8.345-9.342c25.986-44.708,51.922-89.447,77.429-134.429
	c2.981-5.256,4.619-12.003,4.668-18.076c0.378-46.409,0.217-92.823,0.188-139.235c-0.002-3.425-0.283-6.85-0.434-10.274
	C237.802,42.796,236.921,42.617,236.04,42.439z M265.811,43.021c-0.218,2.063-0.623,4.125-0.625,6.188
	c-0.037,48.912-0.147,97.824,0.156,146.734c0.029,4.67,1.885,9.781,4.245,13.916c25.636,44.909,51.415,89.738,77.556,134.354
	c2.884,4.922,7.639,9.446,12.586,12.35c39.671,23.296,79.592,46.164,119.45,69.141c3.534,2.037,7.157,3.919,10.738,5.873
	c0.625-0.614,1.25-1.229,1.875-1.843C417.262,300.613,342.731,171.492,268.201,42.37C267.404,42.587,266.608,42.804,265.811,43.021z
	"/>
</svg>
