<?xml version="1.0" encoding="iso-8859-1"?>
<!-- Generator: Adobe Illustrator 19.0.0, SVG Export Plug-In . SVG Version: 6.00 Build 0)  -->
<svg version="1.1" id="Layer_1" xmlns="http://www.w3.org/2000/svg" xmlns:xlink="http://www.w3.org/1999/xlink" x="0px" y="0px"
	 viewBox="0 0 500 500" enable-background="new 0 0 500 500" xml:space="preserve">
<path d="M50.828,375.357c-0.498-5.525-0.977-10.697-1.428-15.871c-0.452-5.191-0.898-10.383-1.308-15.578
	c-0.459-5.807-0.786-11.625-1.328-17.425c-0.908-9.715-0.866-19.468-1.419-29.189c-1.013-17.792-0.36-35.576-0.431-53.36
	c-0.034-8.499,0.731-17.004,1.25-25.501c0.33-5.409,0.77-10.815,1.342-16.206c0.762-7.185,1.522-14.378,2.601-21.525
	c2.255-14.945,4.981-29.806,9.007-44.445c2.997-10.896,6.604-21.579,11.156-31.981c4.918-11.236,10.89-21.988,19.09-31.349
	c5.655-6.456,12.294-12.171,18.74-17.975c4.542-4.089,9.388-7.898,14.29-11.606c9.694-7.332,20.023-13.765,31.013-19.282
	c11.432-5.739,23.268-10.495,35.811-13.538c6.114-1.483,12.342-2.568,18.548-3.681c8.543-1.532,17.201-1.964,25.875-1.822
	c6.709,0.11,13.364,0.862,20.03,1.696c10.464,1.31,20.592,3.708,30.571,6.866c10.639,3.366,20.872,7.58,30.463,13.057
	c6.625,3.782,13.121,7.791,19.447,12.002c3.612,2.405,6.838,5.346,10.113,8.175c4.332,3.742,8.703,7.464,12.755,11.467
	c3.584,3.54,6.945,7.318,10.063,11.232c4.665,5.857,9.209,11.815,13.457,17.945c2.582,3.726,4.751,7.753,6.683,11.824
	c4.388,9.245,8.383,18.64,10.74,28.577c1.358,5.728,2.434,11.483,3.311,17.305c1.092,7.249,1.333,14.486,1.137,21.747
	c-0.205,7.555-0.726,15.098-2.448,22.531c-0.679,2.93-0.683,6-1.368,8.928c-0.775,3.313-2.029,6.523-2.973,9.805
	c-4.118,14.31-10.226,27.892-17.524,40.958c-4.586,8.21-9.68,16.213-15.176,23.91c-4.397,6.157-9.944,11.473-15.956,16.411
	c-7.402,6.08-15.21,11.546-23.467,16.508c-10.526,6.325-21.524,11.813-32.952,16.507c-9.112,3.743-18.278,7.391-27.554,10.753
	c-7.47,2.708-15.076,5.126-22.735,7.318c-13.169,3.769-26.376,7.44-39.664,10.814c-10.113,2.568-20.357,4.691-30.579,6.862
	c-7.509,1.594-15.06,3.031-22.624,4.381c-8.626,1.539-17.274,2.977-25.937,4.319c-6.252,0.969-12.55,1.674-18.818,2.558
	c-8.393,1.185-16.776,2.43-25.164,3.649c-0.108,0.016-0.218,0.014-0.326,0.023c-5.062,0.432-10.129,0.82-15.185,1.314
	c-2.999,0.293-5.976,0.78-8.971,1.122C52.382,375.658,51.745,375.464,50.828,375.357z M403.16,207.482
	c-2.807,12.723-7.858,24.718-13.489,36.497c-2.689,5.625-5.813,11.076-8.969,16.487c-2.999,5.142-6.104,10.249-9.508,15.158
	c-5.115,7.374-11.431,13.753-18.507,19.559c-5.168,4.24-10.514,8.201-16.086,11.933c-7.893,5.287-16.195,9.945-24.85,13.987
	c-8.831,4.124-17.734,8.16-26.838,11.703c-10.863,4.229-21.843,8.269-33.01,11.706c-13.201,4.063-26.645,7.429-40.005,11.027
	c-5.333,1.436-10.694,2.801-16.093,3.993c-7.898,1.743-15.838,3.317-23.768,4.93c-6.271,1.275-12.534,2.599-18.837,3.717
	c-5.576,0.989-11.209,1.683-16.804,2.581c-6.007,0.964-11.992,2.049-17.999,3.012c-3.489,0.559-6.999,1.008-10.507,1.458
	c-4.461,0.573-8.921,1.165-13.397,1.622c-3.756,0.383-7.533,0.584-11.454,0.877c-0.661,2.674-1.251,5.336-1.986,7.962
	c-0.867,3.102-1.998,6.142-2.768,9.263c-1.579,6.397-3.048,12.82-4.461,19.251c-1.435,6.529-2.753,13.08-4.116,19.623
	c-1.033,4.961-2.088,9.919-3.073,14.888c-0.768,3.878-1.456,7.77-2.157,11.66c-0.844,4.686-1.728,9.368-2.469,14.069
	c-0.438,2.774-0.633,5.582-0.951,8.497c3.116,0.314,5.798,0.495,8.449,0.869c6.796,0.958,13.564,2.093,20.369,2.982
	c5.764,0.753,11.562,1.29,17.35,1.869c6.54,0.654,13.081,1.301,19.631,1.856c7.965,0.675,15.935,1.308,23.912,1.851
	c7.247,0.493,14.502,0.891,21.758,1.24c5.858,0.282,11.725,0.629,17.585,0.597c20.499-0.112,40.998-0.377,61.496-0.585
	c0.327-0.003,0.656-0.008,0.98-0.04c3.968-0.394,7.93-0.849,11.904-1.177c5.707-0.472,11.439-0.709,17.129-1.31
	c6.076-0.642,12.124-1.541,18.17-2.421c5.518-0.803,11.051-1.572,16.512-2.652c4.702-0.93,9.283-2.39,13.966-3.418
	c13.637-2.992,26.671-7.54,39.187-13.407c11.725-5.496,22.018-12.922,31.069-21.765c6.611-6.458,12.728-13.368,19.003-20.128
	c5.921-6.378,11.071-13.318,15.685-20.562c4.263-6.694,8.318-13.543,11.883-20.586c3.831-7.57,6.923-15.448,9.178-23.617
	c1.972-7.146,3.882-14.274,4.497-21.663c0.372-4.461,1.15-8.91,1.215-13.371c0.084-5.733-0.207-11.483-0.632-17.205
	c-0.324-4.353-0.909-8.709-1.744-13.001c-0.929-4.779-2.278-9.484-3.431-14.225c-1.972-8.106-5.184-15.832-8.802-23.353
	c-6.107-12.695-13.556-24.67-22.987-35.499c-6.106-7.01-11.908-14.26-19.757-20.724C404.036,205.084,403.432,206.251,403.16,207.482
	z"/>
</svg>
