<?xml version="1.0" encoding="iso-8859-1"?>
<!-- Generator: Adobe Illustrator 19.0.0, SVG Export Plug-In . SVG Version: 6.00 Build 0)  -->
<svg version="1.1" id="Layer_1" xmlns="http://www.w3.org/2000/svg" xmlns:xlink="http://www.w3.org/1999/xlink" x="0px" y="0px"
	 viewBox="0 0 500 500" style="enable-background:new 0 0 500 500;" xml:space="preserve">
<path d="M39.507,483.936c0-127.54,0-253.863,0-381.015c28.13,0,55.91,0,84.585,0c0-28.54,0-56.273,0-84.815c3.463,0,6.03,0,8.597,0
	c67.918,0,135.838-0.289,203.754,0.088c57.432,0.319,107.041,38.97,121.365,92.808c12.479,46.903,1.56,88.538-32.581,123.619
	c-4.878,5.012-9.612,10.166-14.904,15.774c4.519,4.655,8.66,8.727,12.585,12.997c17.489,19.024,30.878,40.349,36.522,65.935
	c3.053,13.841,3.685,27.637,1.936,41.88c-3.052,24.843-12.389,46.681-27.921,66.03c-18.642,23.223-42.621,38.098-71.653,44.493
	c-7.101,1.564-14.557,2.107-21.851,2.117c-97.614,0.134-195.228,0.089-292.842,0.089C44.793,483.936,42.486,483.936,39.507,483.936z
	 M124.162,398.605c0-84.681,0-168.872,0-253.429c-14.655,0-28.306,0-42.468,0c-0.254,3.324-0.662,6.191-0.664,9.059
	c-0.085,92.027-0.139,184.054-0.156,276.082c-0.001,3.687,0.398,7.374,0.61,11.053c2.282,0.155,3.434,0.302,4.587,0.302
	c85.853-0.005,171.706,0.039,257.558-0.175c5.717-0.014,11.612-1.416,17.113-3.158c23.618-7.48,39.953-23.335,51.041-45.158
	c7.826-15.403,10.369-31.849,8.118-48.619c-2.476-18.442-11.29-34.483-23.919-47.979c-13.031-13.927-26.911-27.058-40.383-40.574
	c-1.588-1.593-2.948-3.414-4.526-5.26c12.133-12.332,24.015-24.124,35.555-36.242c7.471-7.845,15.505-15.46,21.445-24.401
	c21.208-31.925,16.42-75.965-10.369-103.606c-18.05-18.623-40.331-26.911-66.311-26.733c-50.273,0.345-100.551,0.078-150.827,0.097
	c-4.595,0.002-9.189,0.24-13.795,0.369c0,14.658,0,28.294,0,42.569c3.754,0,6.941-0.001,10.129,0
	c52.923,0.011,105.846-0.014,158.77,0.05c24.482,0.029,43.047,19.917,42.211,44.267c-0.426,12.396-6.42,22.189-15.072,30.713
	c-16.327,16.088-32.529,32.302-48.733,48.514c-8.268,8.271-16.428,16.65-24.986,25.336c6.269,6.167,12.162,11.889,17.971,17.694
	c19.115,19.101,38.172,38.26,57.305,57.343c11.197,11.168,14.608,25.174,11.055,39.675c-4.849,19.79-19.16,32.387-41.506,32.533
	c-67.621,0.442-135.246,0.138-202.87,0.103C129.069,399.028,127.096,398.793,124.162,398.605z M166.465,356.706
	c56.081,0,111.346,0,168.032,0c-35.508-35.571-70.042-70.166-105.921-106.109c35.626-35.174,70.871-69.973,106.934-105.578
	c-56.911-0.001-112.84-0.219-169.045-0.004C166.465,216.055,166.465,285.91,166.465,356.706z"/>
</svg>
