<?xml version="1.0" encoding="iso-8859-1"?>
<!-- Generator: Adobe Illustrator 19.0.0, SVG Export Plug-In . SVG Version: 6.00 Build 0)  -->
<svg version="1.1" id="Layer_1" xmlns="http://www.w3.org/2000/svg" xmlns:xlink="http://www.w3.org/1999/xlink" x="0px" y="0px"
	 viewBox="0 0 2000 2000" style="enable-background:new 0 0 2000 2000;" xml:space="preserve">
<path d="M1977.909,996.802c2.773,533.122-440.612,978.161-994.227,971.324c-535.608-6.614-979.055-445.438-967.485-993.39
	C27.167,455.23,462.116,13.879,1020.689,26.067C1551.13,37.641,1979.72,469.526,1977.909,996.802z M831.256,1882.376
	c113.148,32.77,223.919,32.958,335.634-0.717c-20.227-67.959-40.457-132.614-58.659-197.833
	c-29.643-106.208-55.446-213.308-51.331-324.773c1.974-53.471,21.753-100.087,63.092-135.618c7.005-6.021,16.784-10.92,25.83-12.088
	c33.646-4.341,67.639-5.99,101.291-10.294c202.112-25.852,352.629-125.922,443.431-310.614
	c37.021-75.301,57.701-154.887,57.415-239.186c-0.028-8.285-3.262-20.139-9.071-23.69c-4.623-2.826-15.705,3.933-23.478,7.422
	c-28.335,12.715-55.455,29.217-84.891,38.209c-105.221,32.143-213.855,31.755-322.609,30.536
	c-120.463-1.35-227.354,32.253-307.017,127.6c-24.451-21.035-46.998-43.131-72.206-61.594
	c-66.072-48.392-142.751-63.879-222.672-66.024c-90.971-2.441-182.55,6.471-272.406-15.227
	c-51.044-12.326-105.077-15.772-148.554-50.839c-7.198-5.806-17.23-8.097-25.953-12.013c-3.029,9.645-8.914,19.366-8.664,28.925
	c4.789,183.052,81.357,330.871,225.253,442.142c107.219,82.91,235.211,105.415,366.669,114.639c13.455,0.944,29.056,7.274,39,16.261
	c53.308,48.18,66.496,112.524,59.319,179.443c-7.829,73.006-20.066,146.004-36.943,217.455
	C883.437,1710.44,856.223,1794.745,831.256,1882.376z"/>
</svg>
