<?xml version="1.0" encoding="iso-8859-1"?>
<!-- Generator: Adobe Illustrator 19.0.0, SVG Export Plug-In . SVG Version: 6.00 Build 0)  -->
<svg version="1.1" id="Layer_1" xmlns="http://www.w3.org/2000/svg" xmlns:xlink="http://www.w3.org/1999/xlink" x="0px" y="0px"
	 viewBox="0 0 2000 2000" style="enable-background:new 0 0 2000 2000;" xml:space="preserve">
<path d="M609.879,1116.658c-3.356,0-6.619,0-10.527,0c-0.514-3.245-1.016-6.414-1.646-10.391c-17.442,0-34.524,0-52.896,0
	c0-13.79,0-26.762,0-40.702c-7.884,0-14.503,0-21.832,0c0-8.141,0-15.293,0-23.214c7.063-0.315,13.665-0.609,20.836-0.929
	c0-6.036,0-11.393,0-17.684c-13.047,0-26.154,0-40.129,0c0-27.045,0-53.191,0-80.485c19.948,0,39.412,0,59.579,0
	c0.274-5.893,0.497-10.693,0.764-16.432c5.347-0.462,10.657-0.921,16.334-1.412c1.044-20.547,2.059-40.516,3.074-60.485
	c-1.427-0.354-2.854-0.708-4.28-1.061c-1.324,3.498-2.648,6.995-4.179,11.04c-3.205,0-6.71,0-10.635,0
	c-0.42-3.423-0.782-6.371-1.216-9.903c-6.494,0-12.751,0-20.3,0c0,12.553,0,24.955,0,37.883c-19.634,0-37.999,0-57.685,0
	c0,12.864,0,25.239,0,38.518c-13.435,0-25.575,0-38.74,0c0,13.942,0,26.973,0,40.672c-10.115,0-19.223,0-28.293,0
	c-1.466,2.517-2.626,4.507-3.559,6.109c-10.362,0-20.132,0-29.904,0c-1.763-2.245-3.187-4.059-4.225-5.381
	c-4.685,0-8.622,0-13.344,0c0,13.064,0,25.796,0,39.207c5.638,0,11.238,0,17.464,0c0-6.41,0-12.466,0-17.293
	c2.792-4.3,4.843-7.459,7.182-11.06c2.512,0,5.536,0,7.435,0c3.302,3.465,5.979,6.274,9.152,9.603c0,7.029,0,15.133,0,23.238
	c-0.43,0.042-0.86,0.084-1.29,0.127c1.221,3.316,2.442,6.633,3.788,10.289c2.984,0,5.923,0,9.796,0c0-16.519,0-32.683,0-49.79
	c27.353,0,53.783,0,80.751,0c0,26.449,0,52.472,0,79.64c-14.295,0-28.541,0-43.259,0c-0.537,3.65-0.922,6.262-1.427,9.689
	c-7.43,0-14.882,0-22.777,0c-0.473-2.642-0.944-5.272-1.521-8.497c-3.102-0.377-6.359-0.773-10.131-1.232
	c-0.793-1.944-1.682-4.121-2.975-7.29c-1.667,2.605-2.96,4.625-4.399,6.874c-2.961,0-5.979,0-7.588,0
	c-3.897-3.434-6.832-6.019-9.945-8.761c-0.832-9.365-1.622-19.344-2.713-29.29c-0.156-1.422-1.771-2.684-2.711-4.02
	c-0.895,0.058-1.79,0.115-2.684,0.173c0,13.894,0,27.789,0,42.245c-16.081,0-30.072,0-45.547,0c0-12.315,0-24.652,0-37.5
	c-12.1,0-22.733,0-34.835,0c0,12.279,0,24.631,0,37.973c-13.552,0-25.673,0-38.795,0c0,8.247,0,15.484,0,23.382
	c-15.24,0-29.465,0-44.386,0c0-14.296,0-28.264,0-43.287c12.149,0,24.268,0,37.451,0c0.401-8.415,0.756-15.868,1.158-24.303
	c7.027,0,13.622,0,21.3,0c0-25.378,0-49.763,0-75.389c13.18,0,25.283,0,37.776,0c0.379-5.451,0.673-9.676,1.028-14.77
	c7.433,0,14.879,0,23.23,0c0.327,4.432,0.657,8.897,1.04,14.083c5.141,0,10.152,0,16.279,0c0-14.6,0-29.179,0-44.521
	c7.635-0.458,14.244-0.855,21.361-1.283c0.421-4.433,0.815-8.582,1.258-13.249c5.09-0.36,9.929-0.702,15.491-1.095
	c0-4.581,0-9.014,0-14.217c-25.281,0-50.87,0-77.175,0c0,9.315,0,18.66,0,28.396c4.307,0.539,8.139,1.019,12.558,1.573
	c0,7.261,0,14.133,0,21.765c-7.768,0-15.209,0-23.171,0c-0.36-5.141-0.696-9.932-1.12-15.989c-22.875,0-45.41,0-68.703,0
	c-0.374-7.8-0.69-14.369-1.055-21.976c-11.988,0-23.485,0-35.574,0c0-15.058,0-29.042,0-44.38c11.564,0,23.305,0,35.448,0
	c0.405-5.459,0.714-9.622,1.085-14.625c25.923,0,51.605,0,78.468,0c0-12.305,0-23.801,0-36.507c27.05,0,52.946,0,79.415,0
	c0-13.679,0-26.135,0-39.371c-21.624,0-43.209,0-65.187,0c-0.406,3.083-0.792,6.019-1.235,9.383
	c-3.556,0.345-6.829,0.663-11.226,1.089c0,7.944,0,15.772,0,24.344c-15.088,0-29.056,0-43.962,0c0-14.035,0-28.238,0-43.412
	c13.65,0,27.317,0,41.789,0c0-14.837,0-28.748,0-43.322c-3.317-0.476-6.81-0.978-10.802-1.551c0-3.473,0-6.67,0-10.259
	c3.682-0.387,6.952-0.731,11.073-1.165c0.303-5.199,0.599-10.279,0.943-16.182c26.505,0,52.711,0,80.021,0c0,9.672,0,19.322,0,29.21
	c3.667,1.208,6.42,2.115,9.487,3.126c0,3.148,0,6.117,0,9.592c-2.693,0.655-5.251,1.277-8.355,2.031c0,10.315,0,20.633,0,31.908
	c11.755,0,23.524,0,36.586,0c0-13.598,0-27.499,0-42.008c27.495,0,53.718,0,80.603,0c0,26.579,0,52.796,0,80.067
	c-8.428,0-16.586,0-24.852,0c-1.017,3.156-1.738,5.394-2.627,8.153c-3.091,0.271-6.345,0.556-10.072,0.883
	c0,9.489,0,18.526,0,28.133c18.703,0,36.956,0,56.201,0c0-12.501,0-24.635,0-37.589c11.86,0,22.779,0,33.446,0
	c5.47-5.097,10.138-7.531,16.896-2.172c3.104,2.461,9.158,1.2,15.092,1.737c0-12.422,0-23.623,0-35.547c15.371,0,29.595,0,44.539,0
	c0,14.249,0,28.22,0,43.693c-9.197,0-18.467,0-28.144,0c0,4.149,0,6.807,0,10.03c2.412,0.742,4.919,1.513,8.008,2.463
	c0,3.055,0,6.272,0,9.95c-2.7,0.679-5.242,1.319-8.081,2.033c0,8.328,0,16.24,0,25.233c7.072,0,13.945,0,21.962,0
	c0,6.666,0,12.292,0,18.66c18.13,0,35.132,0,52.833,0c0.212-2.3,0.424-4.601,0.68-7.374c-2.852-0.739-5.397-1.398-8.866-2.296
	c-0.143-2.989-0.298-6.204-0.473-9.86c3.03-0.875,5.596-1.615,8.739-2.523c0-4.195,0-8.651,0-14.3c-12.328,0-24.427,0-37.582,0
	c0-27.119,0-53.083,0-80.013c-39.901,0-78.733,0-118.209,0c0-15.216,0-29.461,0-44.667c12.427,0,24.58,0,37.438,0
	c0-9.601,0-18.26,0-27.534c-25.745,0-51.149,0-71.607,0c-19.052-9.256-34.975-2.871-50.448-6.136c0-14.066,0-28.272,0-43.635
	c14.121,0,28.086,0,43.006,0c0-10.817,0-20.515,0-31.442c13.938,0,26.953,0,40.722,0c0-16.467,0-31.719,0-47.797
	c27.241,0,53.693,0,81.279,0c0,6.81,0,13.404,0,20.408c4.641,0.478,8.221,0.846,12.559,1.293c0,7.125,0,14.25,0,21.816
	c-3.803,0.326-7.378,0.633-12.205,1.047c0,11.64,0,23.109,0,35.672c-14.278,0-27.305,0-40.783,0c0,13.796,0,26.462,0,39.746
	c26.057,0,51.384,0,77.826,0c0-26.337,0-52.254,0-78.901c27.3,0,53.499,0,80.725,0c0,13.191,0,26.245,0,40.253
	c13.14,0,25.312,0,38.737,0c0,13.291,0,25.677,0,38.891c26.934,0,52.617,0,79.526,0c0,26.739,0,52.63,0,79.509
	c14.253,0,27.305,0,41.08,0c0,27.477,0,53.941,0,81.225c-12.651,0-24.528,0-39.751,0c3.346,5.084,5.298,8.05,7.251,11.016
	c0.639-0.249,1.277-0.498,1.916-0.747c0,22.313,0,44.627,0,67.507c26.121,0,51.452,0,77.559,0c0-12.023,0-23.778,0-36.407
	c-12.174,0-24.034,0-36.777,0c0-27.334,0-53.813,0-81.515c12.33,0,24.416,0,36.987,0c0-5.386,0-9.56,0-15.025
	c-7.662,0-15.137,0-23.208,0c0-8.177,0-15.085,0-23.281c7.409,0,14.854,0,23.59,0c0-11.771,0-22.327,0-33.689
	c14.052,0,26.836,0,40.266,0c0.408-2.975,0.713-5.194,1.127-8.207c-12.919,0-25.076,0-38.439,0
	c-0.698,0.818-2.165,2.535-4.114,4.817c-6.361,0-13.028,0-20.022,0c-0.39,4.833-0.727,8.995-1.104,13.659
	c-7.706,0-14.884,0-22.703,0c-0.461-4.581-0.882-8.753-1.407-13.971c-10.738,0-21.351,0-32.628,0c0-27.287,0-53.512,0-81.248
	c5.117,0,10.195,0,15.273,0c18.431-0.001,36.864,0.163,55.29-0.139c3.795-0.062,7.561-1.869,11.34-2.871
	c-0.107-0.736-0.215-1.472-0.322-2.208c12.531,0,25.062,0,38.183,0c0-12.427,0-24.213,0-36.418c-21.052,0-41.529,0-62.693,0
	c-0.441,4.191-0.872,8.279-1.361,12.922c-14.595,0-28.851,0-43.452,0c0-14.627,0-28.6,0-43.458c9.331,0,18.124,0,27.775,0
	c0-17.571,0-34.286,0-51.676c-0.689-0.374-2.214-1.203-3.744-2.034c0-14.132,0-28.144,0-42.779c14.539,0,28.539,0,43.385,0
	c0,14.165,0,28.389,0,43.551c-10.334,0-20.907,0-31.479,0c0,0.445,0,0.89,0,1.336c23.589,0,47.179,0,72.08,0
	c0-12.656,0-25.055,0-37.879c15.286,0,29.261,0,43.907,0c0,14.698,0,28.928,0,44.151c-14.254,0-27.924,0-42.267,0
	c0,12.776,0,24.579,0,37.13c16.822,0,33.529,0,51.487,0c0-12.366,0-24.458,0-37.182c15.194,0,29.153,0,43.867,0
	c0,14.425,0,28.659,0,43.73c-5.065,0.236-9.85,0.459-15.382,0.717c0,12.672,0,25.087,0,38.118c2.44,0.819,4.914,1.649,7.796,2.617
	c0,2.972,0,5.945,0,9.413c-2.449,0.759-4.944,1.531-7.926,2.455c0,6.336,0,12.66,0,19.753c12.412,0,24.47,0,37.124,0
	c0-26.66,0-53.291,0-80.798c26.75,0,52.935,0,80.465,0c0,13.837,0,27.758,0,42.255c26.658,0,51.984,0,78.62,0
	c0-13.22,0-26.225,0-39.819c27.552,0,53.803,0,80.669,0c0,26.212,0,52.212,0,78.871c-1.25,0.68-3,1.631-3.904,2.123
	c0,12.33,0,23.933,0,36.769c13.663,0,26.671,0,40.49,0c0,24.443,0,47.664,0,71.222c2.934,0.792,5.175,1.397,8.051,2.174
	c0,7.112,0,14.285,0,22.024c-7.579,0-14.505,0-22.374,0c-0.489-4.411-0.975-8.8-1.527-13.783c-13.401,0-26.416,0-39.87,0
	c-0.488,3.015-0.91,5.628-1.397,8.64c-7.557,0-14.829,0-23.105,0c0-14.779,0-29.374,0-44.736c-13.96,0-26.948,0-41.052,0
	c0,6.492,0,13.073,0,20.788c-26.705,0-52.335,0-78.545,0c0,4.678,0,8.205,0,12.824c13.046,0,26.11,0,39.656,0
	c0.723,4.498,1.291,8.033,2.024,12.599c5.799,0,11.759,0,18.543,0c0,8.135,0,15.233,0,23.053c-6.224,0-11.972,0-18.58,0
	c0,7.819,0,14.946,0,22.702c11.84,0,23.387,0,35.971,0c0.35-5.836,0.707-11.784,1.108-18.486c26.449,0,52.659,0,80.22,0
	c0,9.39,0,18.703,0,28.604c8.909,0,16.495,0,24.826,0c0,7.476,0,14.341,0,22.254c-7.696,0-15.488,0-24.656,0
	c0,10.259,0,19.54,0,29.248c-27.385,0-53.37,0-80.351,0c-0.307-5.381-0.594-10.403-0.949-16.623c-13.463,0-26.498,0-40.112,0
	c-0.368-7.798-0.678-14.388-1.02-21.635c-25.669,0-50.466,0-76.565,0c0-11.176,0-21.707,0-33.06c-12.11,0-22.933,0-34.627,0
	c0,11.774,0,23.543,0,36.302c24.146,0,48.27,0,73.178,0c0,27.183,0,53.412,0,80.799c-6.67,0-13.526,0-21.141,0
	c-0.467,5.183-0.838,9.308-1.265,14.048c-3.165,0.645-6.327,1.289-10.01,2.039c0,10.955,0,21.873,0,33.892
	c10.844,0,21.408,0,32.564,0c0,15.086,0,29.091,0,44.238c-10.365,0-20.922,0-32.27,0c0,7.637,0,14.162,0,21.164
	c7.567,0,15.115,0,23.567,0c0,7.829,0,15.213,0,23.006c-7.541,0-14.538,0-22.071,0c-0.484-2.735-0.945-5.342-1.414-7.939
	c-0.472,7.885-0.937,15.76-1.446,24.389c-13.883,0-27.274,0-41.47,0c0,8.263,0,15.763,0,23.996c-8.25,0-15.704,0-24.212,0
	c0-7.571,0-15.085,0-22.963c-5.163-0.382-9.328-0.69-14.722-1.089c0-26.195,0-52.119,0-78.925
	c-7.783-0.373-14.37-0.689-21.464-1.029c0-14.582,0-28.575,0-43.724c6.756-0.384,13.579-0.771,21.316-1.21c0-9.398,0-18.17,0-27.974
	c11.545,0,22.151,0,33.215,0c0-7.975,0-14.902,0-22.587c-1.604-0.838-3.64-1.902-6.143-3.21c0-2.756,0-5.742,0-9.236
	c1.992-0.878,4.092-1.804,6.148-2.711c0-3.005,0-5.71,0-8.991c-17.4,0-34.454,0-52.106,0c0,3.774,0,7.293,0,11.718
	c4.146,0.409,8.266,0.816,13.125,1.295c0,7.262,0,14.442,0,22.359c-7.386,0-14.823,0-23.34,0c0-6.429,0-12.406,0-18.826
	c-3.979,0-6.889,0-10.65,0c0,10.037,0,19.754,0,30.695c-13.486,0-26.19,0-39.26,0c-0.463,6.274-0.837,11.354-1.259,17.069
	c-7.742,0-14.928,0-22.833,0c-0.347-5.259-0.683-10.345-1.063-16.096c-5.005,0-9.672,0-14.857,0c0,8.649,0,17.121,0,26.807
	c25.941,0,51.838,0,78.613,0c0,22.237,0,43.301,0,65.58c10.745,0,20.673,0,31.23,0c0,15.423,0,29.628,0,44.459
	c-14.424,0-28.417,0-43.51,0c0-9.014,0-18.061,0-27.923c-8.848,0-16.644,0-25.777,0c0,14.481,0,29.311,0,44.655
	c-27.257,0-53.198,0-79.97,0c0-26.478,0-52.692,0-80.641c12.283,0,24.401,0,36.519,0c-0.02-0.983-0.04-1.965-0.06-2.948
	c-25.758,0-51.517,0-78.145,0c0-15.165,0-29.155,0-43.62c-3.512-0.845-6.299-1.516-9.513-2.29c0-3.329,0-6.581,0-10.188
	c2.769-0.621,5.396-1.209,8.476-1.899c0-3.837,0-7.693,0-12.151c-8.059,0-15.865,0-24.563,0c0,11.598,0,22.848,0,34.569
	c-3.549,0.904-6.377,1.624-9.754,2.484c-0.341,2.746-0.708,5.695-1.166,9.374c-3.887,0-7.62,0-11.803,0
	c-0.338-3.112-0.659-6.074-1.1-10.136c-6.737,0-13.323,0-20.952,0c0-12.605,0-24.111,0-36.003c-3.581-0.585-6.182-1.01-9.576-1.564
	c0-15.211,0-30.466,0-45.98c-2.834-0.955-5.023-1.694-7.175-2.419c0-26.636,0-52.893,0-80.146c12.86,0,25.001,0,37.753,0
	c0-13.42,0-25.849,0-39.312c-3.854-0.217-7.696-0.433-11.81-0.665c-1.075,2.15-1.988,3.977-3.112,6.224
	c-2.482,0.153-5.193,0.32-8.375,0.517c-1.474-2.107-2.951-4.219-4.329-6.188c-4.228-0.357-8.136-0.688-13.112-1.108
	c0-12.619,0-24.756,0-37.85c-26.771,0-52.44,0-79.438,0c0-13.905,0-26.887,0-40.459c-12.845,0-24.359,0-36.651,0
	c0,10.911,0,21.776,0,33.52c4.198,0.321,8.619,0.659,13.788,1.054c0,7.465,0,14.613,0,22.336c-4.67,0.458-9.113,0.894-14.038,1.377
	c0,6.414,0,12.418,0,19.668c26.102,0,52.005,0,78.908,0c0,10.259,0,19.323,0,28.836c3.94,0.411,6.913,0.721,10.696,1.115
	c0,3.339,0,6.768,0,10.745c-3.032,0.324-5.99,0.639-9.657,1.031c-0.22,1.751-0.454,3.613-0.805,6.405c12.877,0,25.063,0,38.127,0
	c0,27.281,0,53.712,0,81.021c-11.963,0-23.214,0-35.279,0c0,11.074,0,21.298,0,32.693c11.474,0,22.938,0,35.022,0
	c0,27.368,0,53.587,0,80.97c-11.767,0-23.279,0-35.322,0c0,20.039,0,38.92,0,58.814c6.976,0.341,13.549,0.663,20.726,1.015
	c0,14.495,0,28.733,0,43.62c-14.294,0-28.261,0-43.312,0c-0.331-7.497-0.661-14.964-1.013-22.94c-14.202,0-27.9,0-42.363,0
	c-0.556,3.429-1.123,6.929-1.798,11.096c-7.238,0-14.425,0-22.452,0c0-7.179,0-14.025,0-21.588c2.563-0.61,5.379-1.281,9.077-2.162
	c0-22.71,0-45.309,0-68.8c12.166,0,23.394,0,35.311,0c0-14.244,0-27.598,0-41.712c-11.655,0-23.405,0-36.176,0
	c0,13.819,0,27.501,0,42.484c-14.608,0-28.263,0-42.65,0c0,7.04,0,12.767,0,19.059c-8.258,0-15.743,0-23.783,0
	c-0.3-6.043-0.583-11.745-0.908-18.295c-3.259-0.181-6.141-0.341-9.869-0.547c0,13.456,0,26.162,0,39.377c9.458,0,19.217,0,27.651,0
	c5.558-1.959,10.071-3.549,15.167-5.345c1.5,3.827,2.436,6.216,3.557,9.075c5.1,0,10.272,0,16.284,0c0,7.641,0,14.765,0,22.935
	c-7.309,0.408-14.617,0.816-21.925,1.224c-0.062,0.745-0.123,1.49-0.185,2.234c2.58,0.844,5.161,1.687,5.846,1.911
	c3.791,4.122,6.385,6.941,9.181,9.981c0,7.085,0,14.966,0,22.848c-0.362,0.032-0.724,0.064-1.085,0.096
	c1.136,3.374,2.273,6.749,3.476,10.323c3.145,0.223,6.133,0.436,9.656,0.686c0,6.662,0,13.016,0,20.089
	c-1.407,2.25-3.255,5.204-5.37,8.585c-2.745,0-5.758,0-8.771,0c0.881-0.867,1.762-1.733,2.643-2.6c-2.2-3.333-4.4-6.666-6.6-9.999
	c-1.621,1.572-3.242,3.143-4.864,4.715c-0.55-10.405-1.1-20.809-1.65-31.214c-0.785,0.054-1.571,0.109-2.356,0.163
	c-0.219,4.728-0.437,9.455-0.697,15.077c-4.202,0.423-8.325,0.838-12.847,1.293C611.238,1109.842,610.603,1113.024,609.879,1116.658
	z M1029.332,782.682c8.578,0,16.151,0,23.857,0c0.895-3.134,1.687-5.911,2.431-8.518c3.911,0,7.193,0,10.684,0
	c0.823,3.161,1.548,5.945,2.228,8.556c3.318,0,6.014,0,8.922,0c0.75-3.076,1.437-5.892,2.037-8.35c4.187,0,7.719,0,11.104,0
	c0.654,3.274,1.17,5.863,1.759,8.812c3.431-0.205,6.375-0.381,9.706-0.58c0-5.148,0-9.673,0-14.733
	c-1.876-0.787-3.966-1.664-6.178-2.593c0-3.406,0-6.415,0-9.677c2.208-1.053,4.295-2.049,7.021-3.349c0-13.49,0-26.893,0-41.435
	c26.409,0,52.01,0,78.299,0c0-20.41,0-39.661,0-58.322c2.486-1.991,4.255-3.408,5.051-4.046c0-8.462,0-15.649,0-23.066
	c-14.214,0-27.587,0-40.778,0c0,14.785,0,29.052,0,43.371c4.463,0.592,8.283,1.099,12.177,1.616c0,7.711,0,14.621,0,21.776
	c-4.437,0.539-8.265,1.005-12.206,1.484c-0.404,4.685-0.758,8.798-1.216,14.115c-25.061,0-49.399,0-74.547,0
	c0,13.162,0,25.04,0,37.226c-4.074,0.515-7.349,0.93-10.742,1.359c-1.225,1.933-2.466,3.892-3.486,5.503c-3.416,0-6.163,0-8.988,0
	c-1.242-2.063-2.415-4.012-3.212-5.336c-5.082,0-9.251,0-13.923,0C1029.332,758.649,1029.332,770.178,1029.332,782.682z
	 M451.838,860.361c0.55-3.307,0.986-5.927,1.446-8.696c3.078-0.377,5.729-0.702,8.6-1.054c0-7.5,0-14.681,0-21.975
	c-19.098,0-37.546,0-55.857,0c0,11.06,0,21.263,0,31.725C421.549,860.361,436.21,860.361,451.838,860.361z M1063.574,628.05
	c-11.759,0-22.898,0-34.05,0c0,12.506,0,24.297,0,36.327c11.623,0,22.516,0,34.05,0
	C1063.574,652.021,1063.574,640.247,1063.574,628.05z M1027.175,831.005c0-13.538,0-25.916,0-38.522c-12.58,0-24.354,0-36.51,0
	c0,13.183,0,25.587,0,38.522C1003.054,831.005,1014.882,831.005,1027.175,831.005z M1591.682,986.436c26.299,0,51.998,0,78.59,0
	c0-15.032,0-29.218,0-44.129c-18.475,0-36.992,0-56.4,0c0,10.553,0,20.889,0,31.968c-15.075,0-29.288,0-44.4,0
	c0-10.452,0-20.776,0-31.87c-6.202,0-11.534,0-17.745,0c0,11.379,0,22.883,0,35.165c1.414,0.829,3.418,2.005,5.262,3.087
	c0,7.024,0,13.696,0,21.095c-7.66,0-14.861,0-23.037,0c-0.364-3.999-0.741-8.133-1.195-13.127c-8.567,0-17.226,0-26.599,0
	c0,17.725,0,35.366,0,53.684c6.301,0,12.526,0,19.626,0c0-6.333,0-12.341,0-18.991c15.097,0,29.336,0,44.207,0
	c0,14.239,0,28.222,0,43.438c-12.891,0-25.892,0-39.734,0c-0.374,7.39-0.689,13.641-1.032,20.411c-14.939,0-29.183,0-44.278,0
	c0-6.392,0-12.425,0-18.862c-2.412-0.456-4.082-0.771-6.877-1.299c-0.404,7.351-0.782,14.208-1.191,21.649
	c-7.561,0-14.776,0-23.072,0c-0.347-6.767-0.697-13.607-1.072-20.923c-9.178,0-17.648,0-26.858,0c0,14.405,0,28.662,0,43.497
	c2.884,0.5,6.09,1.056,9.805,1.7c0,7.111,0,14.034,0,21.652c-3.216,0.435-6.428,0.869-10.691,1.446
	c-0.326,6.635-0.662,13.499-1.036,21.123c-7.599,0-14.783,0-22.84,0c0-6.862,0-13.971,0-21.651c3.435-0.34,6.672-0.66,10.631-1.051
	c0-7.619,0-14.882,0-23.396c-9.395,0-19.627,0-30.708,0c0-14.909,0-28.605,0-43.086c-12.63,0-24.385,0-36.908,0
	c0,6.948,0,13.849,0,21.374c2.517,0.679,5.308,1.432,8.456,2.282c0,14.179,0,28.176,0,42.885c-14.661,0-28.861,0-43.871,0
	c0-9.204,0-18.007,0-27.936c-15.31,0-29.881,0-45.707,0c-0.341-6.921-0.631-12.803-0.956-19.394
	c-3.972,2.661-7.321,4.905-10.671,7.148c0.696-0.047,1.393-0.094,2.089-0.141c-1.142,7.179-2.283,14.358-3.682,23.154
	c-8.431-0.665-15.828-1.248-23.583-1.86c0-7.663,0-14.33,0-22.055c6.483-0.409,12.732-0.803,18.981-1.197
	c0.033-0.692,0.065-1.385,0.098-2.077c-13.884,0-27.767,0-42.538,0c0-15.797,0-29.991,0-45.331c7.069,0,14.263,0,22.545,0
	c0.286-5.498,0.517-9.943,0.763-14.681c1.713-1.907,3.575-3.979,7.239-8.057c-16.413,0-30.516,0-45.445,0
	c0-27.659,0-53.882,0-81.555c11.483,0,23.203,0,35.362,0c0-8.059,0-14.681,0-22.42c-6.813,0-13.392,0-20.672,0
	c0-7.994,0-14.891,0-22.883c6.671-0.495,13.478-0.999,21.004-1.557c0-7.503,0-14.473,0-22.391c26.646,0,52.55,0,79.58,0
	c0.655,0.849,2.074,2.69,3.67,4.758c2.533,0.215,5.255,0.445,8.689,0.736c0,3.6,0,7.028,0,10.917
	c-3.129,0.331-6.124,0.648-9.843,1.042c0,7.07,0,14.228,0,22.033c12.657,0,25.104,0,38.779,0c0-14.812,0-29.366,0-44.564
	c27.202,0,53.192,0,80.301,0c0,12.836,0,25.86,0,39.606c29.155,0,57.207,0,85.978,0c0-22.185,0-44.385,0-67.252
	c-5.937-0.28-11.624-0.548-17.942-0.846c0-7.649,0-14.827,0-22.735c6.015-0.263,11.703-0.511,17.999-0.786
	c0-10.539,0-20.772,0-31.581c-13.125,0-25.869,0-39.063,0c0,25.85,0,51.19,0,77.543c5.694,0.274,11.046,0.533,17.131,0.826
	c0,7.394,0,14.531,0,22.157c-7.735,0-15.239,0-23.556,0c0-6.362,0-12.09,0-18.501c-24.93,0-49.053,0-74.02,0
	c0-27.193,0-53.677,0-81.15c13.24,0,26.29,0,39.89,0c0-24.768,0-48.562,0-73.435c-13.085,0-26.113,0-40.422,0
	c0-22.947,0-44.871,0-67.893c-8.527,0-15.768,0-23.747,0c0-7.98,0-14.846,0-22.545c7.329,0,14.504,0,22.467,0
	c0.579,2.304,1.284,5.108,2.076,8.256c11.503,0,22.798,0,34.652,0c0-11.646,0-23.414,0-36.336c-24.532,0-48.91,0-73.982,0
	c0-27.378,0-53.617,0-80.599c26.464,0,52.68,0,79.996,0c0,23.285,0,46.742,0,71.572c13.404,0,25.758,0,38.872,0
	c0,39.918,0,78.452,0,118.382c14.014,0,27.303,0,41.768,0c0,27.293,0,53.214,0,80.03c26.851,0,52.522,0,79.174,0
	c0,8.119,0,15.349,0,23.645c14.576,0,28.221,0,42.703,0c0,15.259,0,29.48,0,44.671c-13.551,0-27.222,0-41.543,0
	c0,4.057,0,7.177,0,11.227c25.958,0,51.641,0,78.584,0c0,11.376,0,21.923,0,33.287c7.444,0.45,13.682,0.827,20.242,1.223
	c0,7.683,0,14.65,0,22.55c-6.3,0-12.298,0-19.08,0c0,7.748,0,14.579,0,22.057c15.238,0,30.37,0,46.362,0c0-12.443,0-24.318,0-37.075
	c27.014,0,53.186,0,80.688,0c0,13.964,0,27.873,0,42.558c14.097,0,26.893,0,40.579,0c0,14.981,0,29.178,0,44.086
	c-14.013,0-27.996,0-42.74,0c-0.575-1.666-1.32-3.827-2.172-6.297c-14.208,0-28.248,0-43.557,0c0,12.649,0,25.078,0,38.244
	c-26.964,0-52.677,0-79.166,0c0,7.869,0,14.988,0,23.062c9.91,0,19.599,0,29.956,0c0,15.16,0,29.39,0,44.317
	c-14.449,0-28.654,0-43.96,0c0-7.052,0-13.62,0-20.724c-8.354,0-15.634,0-23.473,0c-0.818,1.377-1.872,3.153-3.152,5.309
	c-2.831,0-5.851,0-9.456,0c-1.072-1.788-2.246-3.746-3.602-6.007c-8.981,0-17.851,0-27.521,0
	C1591.682,1040.355,1591.682,1014.135,1591.682,986.436z M1302.797,1025.064c0-25.382,0-49.141,0-73.267
	c-11.709,0-22.834,0-34.798,0c0,23.263,0,45.838,0,68.899c-8.473,0.409-16.148,0.779-26.617,1.284
	c4.263,4.013,6.402,6.026,8.969,8.442c-0.35,7.589-0.714,15.459-1.168,25.287c0.566,1.314,1.955,4.542,3.453,8.021
	c3.327-0.254,6.247-0.477,10.052-0.767c0-12.706,0-24.838,0-37.899C1276.361,1025.064,1289.118,1025.064,1302.797,1025.064z
	 M1384.976,947.21c0,31.91,0,62.789,0,93.987c5.971,0.451,11.373,0.859,17.869,1.349c0,8.027,0,15.479,0,22.805
	c7.75,0,14.338,0,21.032,0c0-13.808,0-26.875,0-41.297c-6.742,0-12.954,0-19.35,0c0-8.292,0-15.211,0-22.822
	c6.778-0.364,13.014-0.698,19.169-1.029c0-4.487,0-8.001,0-12.555c-10.314,0-19.99,0-30.836,0c0-14.036,0-27.051,0-40.439
	C1389.599,947.21,1387.544,947.21,1384.976,947.21z M184.216,1468.626c-0.466,7.933-0.935,15.902-1.419,24.141
	c-2.221,0.977-4.072,1.792-5.357,2.357c10.389,11.576,24.535,8.397,37.806,8.412c97.683,0.112,195.366,0.046,293.049,0.037
	c3.343,0,6.685,0,10.815,0c0.437-4.599,0.828-8.725,1.298-13.678c7.589,0,15.051,0,23.276,0c0.4,4.095,0.803,8.222,1.27,13.007
	c5.872,0,11.53,0,18.469,0c0-10.557,0-21.111,0-32.185c15.266,0,29.268,0,44.531,0c0,10.593,0,21.14,0,32.283
	c9.677,0,18.11,0,27.5,0c0.29-4.758,0.581-9.525,0.924-15.136c7.466,0,14.936,0,23.507,0c0.23,4.349,0.478,9.032,0.727,13.715
	c0.6,0.03,1.2,0.059,1.8,0.089c0-10.983,0-21.967,0-33.544c15.628,0,29.844,0,45.063,0c0,11.777,0,22.983,0,34.844
	c14.328,0,27.672,0,41.743,0c0-10.307,0-20.509,0-31.587c-7.552,0-14.814,0-22.845,0c0-7.952,0-15.05,0-23.008
	c7.683,0,14.935,0,22.98,0c0.383-6.737,0.721-12.69,1.115-19.629c17.618,0,34.701,0,52.487,0c0-8.284,0-15.548,0-23.53
	c8.156,0,15.595,0,23.967,0c0,7.428,0,14.647,0,21.867c0.728,0.029,1.457,0.058,2.185,0.087c0-11.798,0-23.596,0-36.27
	c13.381,0,25.526,0,38.712,0c0-14.806,0-28.74,0-43.65c14.049,0,27.095,0,41.014,0c0-5.662,0-10.333,0-15.505
	c-3.409-0.468-6.666-0.915-10.648-1.461c0-7.079,0-14.224,0-21.634c3.665-0.302,6.952-0.574,11.343-0.936c0-13.26,0-26.321,0-40.353
	c9.273,0,17.435,0,26.41,0c0-8.487,0-16.011,0-24.215c8.283,0,15.745,0,24.044,0c0,7.953,0,15.481,0,23.981
	c10.207,0,19.6,0,30.105,0c0,13.048,0,25.146,0,38.288c13.252,0,25.405,0,38.665,0c0,14.058,0,27.062,0,41.165
	c14.143,0,27.187,0,41.215,0c0,13.904,0,26.701,0,40.245c19.203,0,37.418,0,56.015,0c0.564-2.605,1.128-5.209,1.789-8.259
	c3.528,0,6.806,0,10.752,0c0.593,2.506,1.26,5.329,1.994,8.434c2.802,0.368,5.466,0.718,9.281,1.22c0,13.115,0,26.155,0,39.828
	c14.536,0,27.903,0,41.891,0c0.178-3.848,0.372-8.028,0.557-12.026c7.775-2.154,15.112-4.188,22.04-6.107
	c-0.552-4.088-1.048-7.753-1.695-12.545c4.046-0.197,7.212-0.351,10.646-0.518c0.962,2.722,1.74,4.927,2.697,7.633
	c7.174,0,14.182,0,21.511,0c0.42,3.193,0.766,5.82,1.111,8.446c0.261-0.008,0.523-0.016,0.785-0.024c0-7.543,0-15.087,0-23.959
	c-6.937,1.906-13.128,3.608-20.231,5.559c-0.417-4.115-0.682-6.741-1.004-9.918c2.969-0.829,5.503-1.536,8.498-2.372
	c0-1.881,0-3.865,0-6.083c-3.419-0.452-6.414-0.848-10.095-1.335c0-5.822,0-11.467,0-17.875c6.042,0,12.003,0,18.967,0
	c0.37,3.813,0.767,7.906,1.206,12.421c3.023,0.209,5.694,0.394,8.808,0.609c1.202-2.09,2.342-4.072,3.521-6.124
	c4.071-0.282,7.979-0.553,12.399-0.86c0-3.073,0-5.678,0-8.881c-5.253-0.408-10.307-0.801-15.777-1.226c0-5.943,0-11.38,0-17.683
	c5.994,0,11.922,0,18.724,0c0.49,3.181,1.028,6.678,1.733,11.258c6.856,0,13.748,0,21.223,0c0,8.603,0,16.109,0,24.554
	c-6.389,0.294-12.646,0.583-19.11,0.881c-0.452,3.63-0.817,6.569-1.247,10.018c-6.431,0.378-12.536,0.736-18.642,1.094
	c0.023,0.553,0.047,1.107,0.07,1.66c13.241,1.098,26.482,2.195,40.68,3.372c0.255-4.299,0.536-9.022,0.86-14.472
	c6.445,0,12.648,0,19.516,0c0,5.786,0,11.2,0,17.394c-1.727,0.55-3.928,1.252-6.813,2.172c-0.175,2.355-0.37,4.978-0.604,8.125
	c3.065,0.576,5.664,1.065,8.864,1.667c0.617,2.25,1.314,4.79,2.256,8.226c5.756,0,11.758,0,18.561,0c0,9.588,0,18.303,0,27.717
	c-9.023,0-18.083,0-27.742,0c-0.784-2.01-1.71-4.385-2.636-6.76c-0.73-0.081-1.46-0.161-2.191-0.242
	c-1.208,4.791-2.415,9.583-4.402,17.464c4.77-2.035,7.71-3.289,10.65-4.544c-0.188-0.545-0.376-1.089-0.564-1.634
	c2.979,0.164,5.957,0.328,9.539,0.526c0,3.476,0,6.36,0,10.049c-3.969,0.271-7.801,0.533-12.163,0.831
	c-0.427,3.75-0.865,7.601-1.346,11.823c-3.886,0.598-7.521,1.156-11.155,1.715c-0.024,0.816-0.047,1.632-0.071,2.448
	c5.061,0.522,10.122,1.045,16.005,1.652c0.396,5.155,0.804,10.474,1.273,16.578c5.836,0,11.245,0,16.818,0
	c1.276,2.726,2.262,4.835,3.441,7.354c2.455,0.211,5.141,0.442,7.81,0.671c0.863,2.313,1.584,4.245,2.399,6.43
	c6.86,0,13.513,0,21.409,0c0-10.917,0-21.481,0-32.531c15.235,0,29.234,0,44.536,0c0,10.661,0,21.202,0,32.327
	c6.362,0,11.45,0,17.351,0c0.558-3.31,1.147-6.803,1.857-11.016c7.192,0,14.36,0,22.227,0c0.552,3.472,1.112,6.99,1.85,11.631
	c58.331-0.002,116.629,0.043,175.054-0.026c0.452-6.247,0.67-9.267,0.939-12.991c1.811-0.77,3.911-1.663,6.011-2.562
	c1.149-3.372,2.3-6.739,3.707-10.858c-3.456-0.29-6.268-0.526-11.852-0.995c3.532-3.764,5.575-5.941,8.277-8.82
	c-0.569-1.769-1.46-4.536-3.322-10.323c-3.344,4.075-5.424,6.609-8.137,9.916c-0.075,0-1.584,0-3.777,0
	c-0.535-2.414-1.064-4.801-1.593-7.189c-0.597-0.066-1.193-0.132-1.79-0.198c-0.568,2.625-0.594,5.557-1.857,7.788
	c-1.239,2.188-3.737,3.664-5.16,4.972c-5.301-1.56-9.763-2.873-12.79-3.764c-4.229,2.817-7.008,4.667-9.786,6.518
	c-0.74-0.687-1.479-1.373-2.219-2.06c1.091-2.382,2.182-4.764,3.363-7.343c-1.759-0.269-4.244-0.65-7.146-1.094
	c0-3.635,0-6.894,0-10.508c2.979-0.597,5.623-1.127,8.756-1.755c0.637-1.634,1.371-3.518,2.204-5.655
	c2.774-0.262,5.487-0.518,7.811-0.738c2.2-2.774,4.252-5.36,7.505-9.461c1.789,4.721,2.657,7.011,3.525,9.301
	c0.722,0.041,1.443,0.082,2.165,0.123c0.694-2.869,1.387-5.739,2.593-10.727c8.419,0.864,17.124,1.757,26.559,2.726
	c-0.141-0.256-0.892-2.39-2.284-3.951c-1.673-1.875-3.892-3.264-6.888-5.68c-1.594-0.163-4.609-0.472-8.408-0.862
	c0-7.282,0-14.414,0-22.271c7.614,0,15.055,0,23.12,0c0,4.154,0,7.752,0,11.528c2.059,1.67,3.828,3.104,6.3,5.107
	c-1.78,2.594-3.386,4.937-5.363,7.818c2.004,0.633,3.81,1.203,6.274,1.981c0.303-5.882,0.565-10.979,0.855-16.604
	c7.95,0,15.458,0,23.262,0c0.297,3.638,0.545,6.664,0.747,9.135c2.841,2.162,5.412,4.12,9.906,7.541
	c-8.752,3.185-14.723,5.357-22.292,8.111c4.87,5.125,9.653,10.158,15.736,16.56c0.885-4.609,1.612-8.393,2.43-12.65
	c3.443,0,6.708,0,11.098,0c2.009,11.023,4.036,22.144,6.259,34.339c-9.555,0-16.511,0-24.246,0c-0.846-1.754-1.96-4.065-2.656-5.507
	c-9.53-1.512-18.198-2.887-28.533-4.527c8.011,11.084,0.247,18.671-0.827,28.825c8.43,6.804,8.43,6.812,23.091,6.811
	c97.99-0.008,195.98-0.021,293.97-0.032c3.341,0,6.681,0,10.812,0c0,5.029,0,9.433,0,14.413c-655.552,0-1310.943,0-1967.218,0
	c0-4.366,0-8.718,0-14.355c3.49,0,6.741,0,9.992,0c42.391-0.006,84.782,0.054,127.172-0.113c4.687-0.018,9.368-1.338,13.974-2.043
	c0.24-4.282,0.411-7.329,0.582-10.375c0.613,0.35,1.226,0.7,1.838,1.051c2.915-4.791,5.831-9.582,9.507-15.622
	c-5.171,0-7.79,0-10.409,0c-0.592-0.647-1.184-1.295-1.776-1.942c2.369-2.302,4.738-4.603,7.522-7.309
	c-0.734-1.833-1.83-4.57-3.026-7.557c-1.901,0-3.664,0-4.45,0c-1.956,3.144-3.604,5.793-5.252,8.442
	c-0.858-0.334-1.716-0.669-2.574-1.003c-0.71-2.371-1.42-4.741-2.231-7.448c-2.594,4.626-5.022,8.957-7.276,12.977
	c-6.198-1.793-10.935-3.164-14.428-4.174c-3.774,2.852-6.232,4.71-8.691,6.568c-0.762-0.63-1.524-1.261-2.286-1.891
	c1.173-2.54,2.347-5.079,3.499-7.573c-1.704-0.148-4.354-0.378-7.721-0.67c0-3.594,0-7.053,0-10.958
	c2.694-0.389,5.364-0.774,8.777-1.266c0.784-1.72,1.731-3.798,2.856-6.265c2.467-0.194,5.153-0.405,6.677-0.525
	c2.719-3.16,4.828-5.611,8.183-9.51c1.859,4.853,2.727,7.116,4.496,11.734c1.299-5.423,2.023-8.443,2.857-11.927
	c6.799,0,13.481,0,21.288,0c0.974,1.04,2.678,2.861,4.382,4.681c0.787-0.372,1.573-0.744,2.36-1.116
	c-0.977-1.962-1.631-4.199-3.014-5.812c-1.606-1.874-3.851-3.2-6.933-5.651c-1.722-0.227-4.989-0.657-8.841-1.164
	c0-7.509,0-14.651,0-22.241c8.102,0,15.345,0,22.512,0c1.537,5.779,2.986,11.227,4.435,16.676c0.775,0.087,1.55,0.174,2.324,0.261
	c-1.45,2.417-2.9,4.834-4.77,7.95c1.983,0.412,3.646,0.758,5.863,1.218c0.356-5.671,0.658-10.475,1.003-15.963
	c7.96,0,15.408,0,23.346,0c0.424,3.311,0.804,6.282,1.169,9.135c2.525,2.026,5.058,4.057,9.392,7.533
	c-8.823,3.149-15.054,5.373-23.335,8.329c7.175,3.866,13.507,7.279,19.84,10.692c-0.968,1.578-1.936,3.156-2.904,4.735
	c0.506-3.543,1.013-7.086,1.645-11.511c3.628,0,7.357,0,12.169,0c1.692,11.008,3.383,22.011,5.223,33.984
	c-9.225,0-16.438,0-24.221,0c-0.735-1.871-1.576-4.01-2.211-5.625C200.438,1471.022,192.08,1469.788,184.216,1468.626z
	 M1227.795,1489.115c-6.908-0.601-12.743-1.108-18.219-1.584c0-8.102,0-14.743,0-22.689c21.349,1.202,42.073,2.37,63.153,3.557
	c0.337,6.988,0.639,13.266,0.991,20.572c4.935-0.564,8.805-1.006,12.676-1.449c-0.015-0.881-0.031-1.761-0.046-2.642
	c-2.352-0.774-4.703-1.547-6.585-2.166c0-6.177,0-11.571,0-17.195c3.921-0.428,7.2-0.786,10.767-1.176
	c0.848-6.68,1.674-13.183,2.522-19.859c-1.49-0.814-3.265-1.784-5.156-2.816c0-4.314,0-8.289,0-11.833
	c-1.993-2.548-3.644-4.659-5.366-6.861c-2.442,0-4.864,0-7.496,0c-0.787,2.374-1.521,4.586-2.262,6.821c-3.432,0-6.389,0-9.098,0
	c-1.079-2.747-1.97-5.016-2.899-7.38c-4.385,2.835-7.938,5.132-12.137,7.846c-0.349,2.23-0.852,5.445-1.663,10.632
	c-5.242-2.135-9.512-3.875-13.782-5.615c0.133-0.507,0.266-1.013,0.399-1.52c-5.436,0-10.872,0-16.489,0
	c-0.595-4.563-1.107-8.482-1.618-12.401c-0.833-0.001-1.667-0.002-2.5-0.003c-0.734,3.851-1.468,7.702-2.254,11.826
	c-6.757,0-13.031,0-19.29,0c0,23.419,0,46.576,0,69.776c12.452,0,24.245,0,36.352,0
	C1227.795,1498.116,1227.795,1493.926,1227.795,1489.115z M1059.983,1489.975c0-14.61,0-28.592,0-42.808
	c2.912-0.8,5.708-1.568,8.335-2.289c0-5.699,0-10.821,0-16.652c-13.157,0-25.815,0-38.793,0c0,25.238,0,49.895,0,74.742
	c26.973,0,53.203,0,80.485,0c-1.617-11.737,2.24-23.32-2.169-33.969c-1.11,0.08-2.22,0.159-3.33,0.239
	c-0.337,6.844-0.674,13.688-1.021,20.738C1088.457,1489.975,1074.489,1489.975,1059.983,1489.975z M947.234,1503.196
	c0-25.624,0-50.245,0-74.99c-12.546,0-24.291,0-36.036,0c-0.301,0.662-0.602,1.323-0.903,1.985c2.346,1.963,4.692,3.926,7.301,6.107
	c-0.154,2.52-0.32,5.231-0.487,7.97c-2.304,1.184-4.342,2.232-6.222,3.198c0,5.527,0,10.419,0,13.685
	c8.582,14.071,1.256,28.713,5.558,42.044C926.444,1503.196,936.454,1503.196,947.234,1503.196z M988.716,1387.034
	c-13.524,0-26.184,0-38.617,0c0,13.439,0,26.135,0,38.751c13.205,0,25.651,0,38.617,0
	C988.716,1412.823,988.716,1400.394,988.716,1387.034z M831.236,1491.646c8.024,0,14.869,0,21.65,0
	c0.592,4.576,1.044,8.066,1.463,11.297c5.822,0,10.844,0,15.999,0c0-10.875,0-21.086,0-31.478c-13.324,0-25.966,0-39.112,0
	C831.236,1478.034,831.236,1483.991,831.236,1491.646z M1293.136,1408.394c-1.049-3.211-1.73-5.299-2.412-7.387
	c-0.453,0.059-0.907,0.119-1.36,0.178c0,4.613,0,9.225,0,12.496c3.5,4.033,6.28,7.236,9.492,10.938
	c0.527-4.272,0.959-7.772,1.291-10.459c4.075-1.297,7.216-2.296,10.357-3.296c-0.211-0.823-0.422-1.646-0.634-2.469
	C1304.459,1408.394,1299.047,1408.394,1293.136,1408.394z M183.788,1452.36c-4.313,0.418-7.817,0.757-12.794,1.239
	c1.991,2.763,3.204,4.447,2.962,4.11c5.554-1.229,9.481-2.098,14.685-3.25c-0.18-3.158-0.38-6.675-0.58-10.192
	c-0.837,0.007-1.674,0.014-2.511,0.02C184.999,1446.811,184.449,1449.334,183.788,1452.36z M1658.325,1443.817
	c-0.717-0.083-1.433-0.165-2.15-0.248c-0.988,2.896-1.976,5.792-2.962,8.682c-3.744,0.546-7.229,1.053-11.576,1.687
	c1.503,3.055,2.565,5.213,3.872,7.87c1.297-2.612,2.19-4.409,2.948-5.935c3.571-0.286,6.548-0.524,10.366-0.829
	C1658.64,1450.932,1658.483,1447.375,1658.325,1443.817z M1105.606,1301.034c0-26.855,0-53.052,0-80.764
	c-11.842,0-23.061,0-34.279,0c0.04-0.56,0.08-1.12,0.12-1.679c4.105-0.283,8.209-0.565,12.048-0.83c0-4.132,0-7.376,0-11.112
	c-4.487,0-8.395,0-13.335,0c0-7.36,0-14.27,0-22.074c-7.961,0-14.892,0-22.01,0c-0.499-4.14-0.892-7.403-1.348-11.19
	c-3.718,0-7.173,0-10.877,0c-0.321,3.944-0.587,7.223-0.872,10.716c-4.88,0-9.257,0-14.802,0c0-8.496,0-16.313,0-25.321
	c-8.951,0-16.735,0-24.415,0c0-6.959,0-12.676,0-19.454c11.148,0,21.75,0,32.094,0c0.847-3.663,1.445-6.252,2.258-9.773
	c6.85,0,13.449,0,19.938,0c0.599-4.251,1.051-7.467,1.52-10.793c7.139-0.405,13.704-0.778,19.976-1.134c0-12.069,0-22.938,0-34.002
	c-11.748,0-22.686,0-33.951,0c-0.339,2.416-0.614,4.374-0.83,5.918c-0.345-5.619-0.715-11.641-1.11-18.08
	c-11.651,0-22.52,0-33.948,0c-0.401,4.71-0.755,8.872-1.11,13.04c-2.286,0.707-4.233,1.309-6.408,1.982c0,3.562,0,6.802,0,8.501
	c3.142,3.022,5.285,5.082,8.185,7.871c-4.098,1.708-6.236,2.6-8.955,3.734c0,10.549,0,20.888,0,31.506c-15.009,0-29.235,0-44.384,0
	c0-11.203,0-21.801,0-33.588c-13.626,0-26.353,0-39.445,0c-0.355-7.757-0.656-14.323-0.951-20.773c-8.264,0-15.502,0-23.858,0
	c0,7.138,0,13.692,0,20.555c-6.121,0.444-11.147,0.808-16.034,1.162c0,27.186,0,53.417,0,80.585c9.831,0,18.926,0,28.055,0
	c0.437,3.877,0.769,6.822,1.099,9.757c4.37,0,8.128,0,11.759,0c0.614-3.837,1.088-6.795,1.561-9.752
	c0.975,0.1,1.949,0.2,2.924,0.301c0,11.008,0,22.016,0,33.59c11.843,0,22.221,0,32.301,0c1.265,2.726,2.245,4.838,3.239,6.98
	c7.159,0,13.888,0,21.092,0c0.93-2.259,1.907-4.633,2.578-6.264c5.619,0,10.372,0,16.187,0c0,8.822,0,16.929,0,26.063
	c8.58,0,16.049,0,23.48,0c0.261,4.652,0.463,8.241,0.683,12.164c3.584,0.491,6.701,0.918,9.818,1.345
	c0.031,0.419,0.061,0.838,0.092,1.258c-2.522,0.462-5.045,0.925-7.635,1.4c0,3.76,0,7.026,0,10.162
	c3.32,0.94,6.136,1.737,9.744,2.759c0,8.511,0,16.693,0,25.236C1052.974,1301.034,1079.189,1301.034,1105.606,1301.034z
	 M165.015,1106.238c0,9.976,0,19.038,0,28.481c15.138,0,29.105,0,43.567,0c0-14.726,0-28.956,0-44.262c-6.218,0-11.893,0-18.803,0
	c0-22.316,0-43.583,0-64.705c-27.48,0-53.662,0-80.075,0c-0.382,6.537-0.715,12.217-1.094,18.705c-7.16,0-13.505,0-19.968,0
	c-0.765,3.438-1.347,6.051-1.966,8.828c-2.835,0.512-5.447,0.984-8.464,1.53c0,3.705,0,6.956,0,10.508
	c3.058,0.784,5.903,1.513,8.925,2.288c0.37,7.311,0.717,14.175,1.104,21.82c7.402,0,13.727,0,20.411,0
	c0.4,5.621,0.74,10.408,1.195,16.808C128.475,1106.238,146.176,1106.238,165.015,1106.238z M1880.298,1105.26
	c0-12.831,0-24.919,0-37.39c7.989-0.38,14.87-0.708,21.666-1.031c0-7.857,0-14.757,0-21.872c-7.461-0.44-14.295-0.843-21.13-1.246
	c0.059-0.962,0.118-1.925,0.177-2.887c8.136,0,16.271,0,24.678,0c0-15.349,0-29.597,0-43.804c-14.874,0-29.094,0-44.259,0
	c0,9.504,0,18.26,0,28.308c-21.299,0-41.649,0-62.09,0c0,27.337,0,53.334,0,79.922
	C1826.719,1105.26,1852.945,1105.26,1880.298,1105.26z M1608.206,750.023c0.875-2.223,1.714-4.353,2.798-7.108
	c13.644,0,27.015,0,40.69,0c0-15.057,0-29.276,0-44.552c-14.311,0-27.945,0-42.662,0c0-10.036,0-19.044,0-28.229
	c-27.349,0-53.578,0-80.286,0c0,26.894,0,53.094,0,79.889C1555.567,750.023,1581.806,750.023,1608.206,750.023z M1182.314,474.213
	c-12.541,0-24.026,0-35.468,0c0,15.189,0,29.144,0,43.118c14.948,0,29.191,0,43.495,0c0.408-4.842,0.756-8.973,1.178-13.976
	c24.229,0,47.746,0,71.476,0c0-27.107,0-53.248,0-79.696c-26.907,0-52.918,0-80.681,0
	C1182.314,440.804,1182.314,456.919,1182.314,474.213z M809.796,623.08c0.355,7.438,0.668,13.995,0.969,20.282
	c8.528,0,15.965,0,24.274,0c0-7.223,0-13.529,0-20.731c8.411,0,15.945,0,23.853,0c0-27.41,0-53.885,0-81.046
	c-7.903,0-15.171,0-22.537,0c-1.13-2.67-2.044-4.829-2.95-6.969c-7.614,0-14.872,0-21.914,0c-1.177,2.581-2.136,4.683-3.339,7.318
	c-9.742,0-19.116,0-28.858,0c0,27.073,0,53.326,0,81.146C790.094,623.08,799.77,623.08,809.796,623.08z M789.097,1064.467
	c26.731,0,52.922,0,80.252,0c0-10.124,0-19.794,0-30.013c7.352-0.375,13.611-0.694,20.358-1.037c0-7.747,0-14.634,0-22.345
	c-6.732-0.378-12.994-0.73-20.658-1.161c0-8.897,0-17.224,0-25.611c-5.36-0.305-9.283-0.528-13.447-0.764
	c-0.647-2.934-1.221-5.542-1.86-8.442c-3.873,0-7.451,0-11.155,0c-0.656,2.945-1.236,5.547-1.945,8.73c-17.023,0-33.813,0-51.545,0
	C789.097,1011.369,789.097,1037.621,789.097,1064.467z M1640.1,830.102c26.793,0,52.955,0,79.845,0
	c0.357-6.456,0.686-12.418,1.029-18.616c6.163-0.345,11.5-0.644,16.665-0.933c0-7.842,0-14.73,0-21.806
	c-5.788-0.292-10.893-0.55-17.295-0.874c0-12.815,0-25.178,0-37.852c-27.312,0-53.291,0-80.244,0
	C1640.1,777.088,1640.1,803.276,1640.1,830.102z M108.913,793.488c0,9.077,0,17.451,0,25.716c-4.538,0.537-7.766,0.919-11.015,1.304
	c0,7.482,0,14.355,0,21.292c3.89,0.413,7.143,0.759,11.607,1.233c0,10.324,0,20.242,0,30.13c27.498,0,53.7,0,80.747,0
	c0-14.682,0-28.672,0-43.066c3.996-0.464,7.202-0.836,10.557-1.225c0-4.063,0-7.557,0-11.28c-3.752-0.605-6.942-1.12-10.703-1.726
	c0-7.524,0-14.509,0-22.377C162.563,793.488,136.393,793.488,108.913,793.488z M270.023,939.102c3.601-0.871,6.112-1.479,8.38-2.027
	c0-3.831,0-6.84,0-9.907c-2.895-0.843-5.436-1.582-8.049-2.343c-0.457-4.533-0.877-8.695-1.293-12.826c-26.84,0-53.056,0-80.507,0
	c1.886,30.718-2.955,60.9,3.556,90.93c4.152,0,7.706,0,11.604,0c0.469-3.408,0.875-6.361,1.427-10.379c21.13,0,42.185,0,64.882,0
	C270.023,973.467,270.023,956.099,270.023,939.102z M1327.59,1342.131c-6.81,0-12.536,0-18.678,0
	c-0.261,3.505-0.484,6.499-0.707,9.492c-0.46-0.164-0.92-0.329-1.38-0.494c-1.338,3.973-2.677,7.947-4.898,14.543
	c9.394-2.143,15.773-3.598,22.909-5.226c1.219,6.126,2.257,11.347,3.263,16.4c-2.865,1.828-4.81,3.069-6.193,3.952
	c0,5.929,0,11.021,0,16.455c3.897,0.45,7.207,0.831,8.133,0.938c5.955,3.308,9.932,5.517,14.209,7.894
	c0.229,4.436,0.478,9.256,0.604,11.699c4.637,4.19,7.651,6.912,10.994,9.933c1.83,0,4.246,0,6.661,0
	c1.373-2.405,2.63-4.606,4.506-7.893c3.358,2.518,5.992,4.493,9.794,7.343c7.535-1.522,15.885-3.209,25.02-5.055
	c-0.18-3.502-0.341-6.628-0.43-8.359c-5.098-2.306-8.725-3.947-12.353-5.588c0.096-0.427,0.191-0.854,0.287-1.281
	c-4.534,0-9.069,0-14.047,0c0-2.601,0-4.549,0-6.848c6.197-0.394,11.877-0.754,17.466-1.109c0-6.514,0-12.139,0-17.872
	c-6.686,0-12.608,0-18.583,0c-0.658,4.238-1.201,7.734-1.704,10.969c-10.503,0-20.285,0-30.066,0
	c-0.074-0.77-0.148-1.541-0.222-2.311c3.057-0.298,6.115-0.596,9.708-0.947c1.072-1.294,2.367-2.856,3.583-4.323
	c3.18-0.267,6.188-0.519,9.495-0.797c0-3.479,0-6.601,0-9.86c-3.943-0.563-7.16-1.023-10.21-1.458
	c-0.768-3.112-1.399-5.668-2.062-8.354c-5.119-0.232-9.678-0.438-14.575-0.661c-0.833-2.292-1.627-4.478-2.355-6.483
	c-2.402-0.495-4.434-0.914-6.764-1.394C1328.448,1350.259,1328.015,1346.15,1327.59,1342.131z M1819.309,887.829
	c0,7.929,0,14.812,0,22.649c6.906,0,13.202,0,19.795,0c0.534,5.008,0.97,9.097,1.44,13.506c14.806,0,28.985,0,43.516,0
	c0-14.848,0-29.021,0-43.713c-14.643,0-28.607,0-42.91,0c-0.915,2.268-1.781,4.413-2.641,6.545
	C1831.861,887.167,1825.61,887.497,1819.309,887.829z M1714.813,1059.483c4.723,0.378,8.88,0.711,14.108,1.13
	c0,9.527,0,18.533,0,27.794c15.319,0,29.494,0,43.819,0c0-14.927,0-29.103,0-44.117c-11.655,0-22.58,0-33.013,0
	c-1.328-2.93-2.253-4.971-3.012-6.648c-7.503,0-14.197,0-21.903,0C1714.813,1045.527,1714.813,1052.388,1714.813,1059.483z
	 M66.721,953.231c0,14.856,0,29.015,0,43.073c15.037,0,29.212,0,43.556,0c0.3-5.771,0.56-10.76,0.782-15.03c4.462,0,8.2,0,12.245,0
	c0-4.127,0-7.624,0-11.584c-4.41,0-8.216,0-12.718,0c0-5.568,0-10.674,0-16.46C94.99,953.231,80.792,953.231,66.721,953.231z
	 M685.213,501.14c0,14.753,0,29.141,0,43.683c14.873,0,28.828,0,43.452,0c0-14.65,0-28.826,0-43.683
	C714.084,501.14,699.89,501.14,685.213,501.14z M1595.109,640.877c0-14.917,0-29.099,0-43.374c-14.814,0-28.761,0-43.333,0
	c0,14.848,0,29.067,0,43.374C1566.606,640.877,1580.809,640.877,1595.109,640.877z M1756.208,834.917c-14.807,0-29.008,0-43.356,0
	c0,14.8,0,28.965,0,43.431c14.756,0,28.712,0,43.356,0C1756.208,863.219,1756.208,849.252,1756.208,834.917z M1219.097,563.707
	c14.829,0,29.028,0,43.486,0c0-14.884,0-29.1,0-43.677c-14.717,0-28.711,0-43.486,0
	C1219.097,535.153,1219.097,549.136,1219.097,563.707z M858.686,500.83c0-14.973,0-29.183,0-43.51c-14.604,0-28.319,0-42.776,0
	c0,14.661,0,28.875,0,43.51C830.563,500.83,844.747,500.83,858.686,500.83z M1516.749,632.337c-15.062,0-29.547,0-43.944,0
	c0,14.583,0,28.251,0,42.539c14.967,0,29.251,0,43.944,0C1516.749,660.321,1516.749,646.376,1516.749,632.337z M1630.929,1177.215
	c2.195-3.144,4.2-6.016,5.502-7.88c0-7.51,0-13.856,0-20.604c-3.447-0.366-6.396-0.679-9.451-1.003
	c-1.246-3.168-2.438-6.194-2.617-6.65c0-10.771,0-18.914,0-26.265c-2.867-3.238-5.461-6.168-8.475-9.572c-2.39,0-5.683,0-8.375,0
	c-2.43,3.719-4.474,6.849-6.273,9.604c0,6.734,0,13.098,0,19.91c2.961,0.467,5.563,0.877,10.365,1.635
	c0.559,11.214,1.123,22.53,1.63,32.694c3.565,2.914,6.367,5.203,9.95,8.131C1625.607,1177.215,1628.338,1177.215,1630.929,1177.215z
	 M590.525,1212.22c3.69,3.196,6.655,5.763,10.526,9.116c1.759-0.077,4.745-0.208,7.417-0.325c2.147-3.432,3.982-6.365,5.136-8.21
	c0-7.573,0-13.92,0-20.374c-3.523-0.347-6.517-0.641-9.473-0.932c-1.249-3.415-2.362-6.457-3.474-9.498
	c0.336-0.021,0.673-0.041,1.009-0.062c0-8.151,0-16.301,0-23.331c-3.079-3.706-5.687-6.845-8.529-10.265c-2.477,0-5.51,0-11.086,0
	c-1.55,9.613-3.122,19.365-4.744,29.429c4.734,0.743,7.11,1.116,11.63,1.825C589.498,1191.14,590.04,1202.27,590.525,1212.22z
	 M1149.943,1184.177c0-7.824,0-14.412,0-20.852c-3.758-0.475-6.719-0.849-9.43-1.192c-1.217-3.675-2.243-6.776-3.269-9.877
	c0.403-0.035,0.806-0.07,1.208-0.105c0-7.849,0-15.699,0-22.843c-3.044-3.415-5.857-6.571-8.88-9.962c-2.326,0-5.045,0-7.428,0
	c-2.431,3.392-4.629,6.46-6.776,9.456c0,6.628,0,13.285,0,20.363c3.024,0.546,5.614,1.013,10.018,1.809
	c0.685,11.085,1.369,22.143,2.053,33.201c1.543-1.474,3.085-2.947,4.628-4.421c2.005,3.554,4.011,7.109,6.935,12.291
	c0.253,0,2.991,0,6.081,0C1146.927,1189.06,1148.79,1186.043,1149.943,1184.177z M642.973,1217.785
	c1.484-7.672,2.869-14.83,4.189-21.658c-3.437-1.633-5.634-2.677-8.962-4.258c3.123-2.212,5.144-3.644,7.069-5.008
	c0-6.856,0-13.51,0-18.335c-4.51-3.904-7.826-6.775-11.775-10.193c-1.906,0-4.905,0-9.502,0c-1.113,9.333-2.206,18.496-3.297,27.638
	c4.758,4.005,8.759,7.374,13.39,11.273c-0.993,6.032-2.096,12.738-3.38,20.542C635.991,1217.785,639.526,1217.785,642.973,1217.785z
	 M1230.481,1150.175c2.641,5.035,5.132,9.784,7.623,14.534c1.642-1.404,3.285-2.808,4.928-4.212
	c-0.409,3.278-0.811,6.557-1.228,9.834c-0.445,3.496-0.906,6.991-1.471,11.347c4.907,0,8.664,0,12.417,0
	c1.089-7.673,2.094-14.756,3.065-21.6c-3.058-1.759-5.436-3.128-8.886-5.112c3.605-2.195,5.978-3.641,7.915-4.82
	c0-7.073,0-13.447,0-20.076c-2.956-0.713-5.548-1.338-7.85-1.893c-0.856-2.304-1.56-4.2-2.223-5.987c-3.588,0-6.626,0-11.853,0
	C1232.084,1131.752,1231.305,1140.711,1230.481,1150.175z M581.956,1277.859c4.812,4.148,8.662,7.467,13.428,11.577
	c-1.006,5.811-2.196,12.686-3.506,20.253c5.367,0,9.085,0,12.745,0c1.37-7.703,2.613-14.69,3.793-21.322
	c-3.411-1.829-5.774-3.096-9.533-5.111c3.763-2.066,5.932-3.258,7.682-4.218c0-7.356,0-13.998,0-18.306
	c-4.804-4.313-8.086-7.261-11.839-10.631c-1.875,0-4.594,0-9.432,0C584.115,1259.892,583.007,1269.116,581.956,1277.859z
	 M399.596,1155.175c4.829,0,8.088,0,11.383,0c1.346-7.743,2.601-14.961,3.781-21.745c-3.472-1.773-5.643-2.881-9.056-4.624
	c3.412-2.055,5.5-3.312,7.334-4.416c0-7.132,0-13.8,0-18.767c-4.471-3.737-7.847-6.559-12.02-10.047c-1.587,0-4.563,0-8.998,0
	c-1.189,9.46-2.34,18.613-3.481,27.685c4.658,3.918,8.505,7.155,13.152,11.065C401.081,1140.397,400.348,1147.697,399.596,1155.175z
	 M1630.543,1244.915c-3.006-1.976-5.248-3.45-8.393-5.518c3.296-2.051,5.425-3.376,7.206-4.484c0-7.036,0-13.406,0-20.113
	c-2.906-0.614-5.491-1.161-7.87-1.664c-0.753-2.397-1.366-4.348-1.946-6.194c-3.7,0-6.961,0-11.517,0
	c-1.104,9.215-2.17,18.123-3.238,27.04c4.608,4.214,8.579,7.846,13.045,11.93c-0.682,6.316-1.434,13.275-2.201,20.37
	c4.862,0,8.106,0,11.401,0C1628.27,1258.741,1629.427,1251.702,1630.543,1244.915z M1135.687,1254.067
	c3.667-2.11,5.774-3.322,7.41-4.264c0-7.406,0-14.035,0-20.681c-2.892-0.544-5.246-0.988-7.595-1.43
	c-0.912-2.394-1.727-4.533-2.617-6.87c-3.495,0.169-6.493,0.314-9.298,0.45c-7.417,20.672-3.931,34.902,8.32,36.76
	c-0.81,7.334-1.622,14.677-2.502,22.643c4.597,0,8.075,0,11.617,0c1.373-7.233,2.65-13.959,4-21.069
	C1141.632,1257.595,1139.292,1256.206,1135.687,1254.067z M1631.696,1077.348c-6.277-0.343-11.913-0.65-17.444-0.952
	c-0.783-3.073-1.354-5.315-1.912-7.508c-3.799,0-7.066,0-10.927,0c0,3.635,0,6.869,0,10.167c2.294,1.415,4.651,2.87,8.941,5.517
	c-5.292,1.528-8.46,2.442-11.374,3.283c0,3.835,0,7.014,0,10.336c6.963,0.899,13.267,1.713,19.572,2.527
	c-0.124,0.549-0.247,1.098-0.37,1.647c4.421,0.978,8.843,1.956,14.823,3.279C1632.515,1095.059,1632.117,1086.454,1631.696,1077.348
	z M608.369,1120.133c-6.061,0-10.927,0-15.871,0c-1.15-2.78-2.144-5.185-3.256-7.874c-3.697,0.173-6.915,0.324-10.343,0.485
	c0,4.105,0,7.388,0,9.881c2.756,1.68,4.909,2.992,8.823,5.378c-5.581,1.537-8.663,2.387-12.108,3.336
	c0.176,3.766,0.327,7.018,0.519,11.138c11.047,0.534,21.34,1.032,32.236,1.559C608.369,1135.124,608.369,1127.849,608.369,1120.133z
	 M1145.588,1113.693c0-7.538,0-14.634,0-22.153c-6.17-0.3-11.572-0.562-16.948-0.823c-0.887-2.627-1.634-4.84-2.314-6.852
	c-3.953,0-7.429,0-11.185,0c0,3.686,0,6.682,0,9.571c2.669,1.628,5.156,3.146,9.763,5.955c-5.634,1.627-8.619,2.489-11.83,3.416
	c0,3.217,0,6.19,0,10.885C1124.473,1113.693,1134.922,1113.693,1145.588,1113.693z M89.677,1023.038
	c-4.307-0.299-7.863-0.546-11.593-0.805c-0.34-3.215-0.615-5.822-0.899-8.508c-8.169,0-15.64,0-23.211,0c0,7.607,0,14.506,0,22.581
	c12.139-0.571,23.634-1.112,35.703-1.679C89.677,1030.084,89.677,1026.653,89.677,1023.038z M1172.075,1092.122
	c0-8.976,0-15.787,0-22.931c-7.964,0-15.164,0-22.285,0c-1.043,2.554-1.906,4.667-2.605,6.376
	c-4.235,0.319-7.777,0.586-11.494,0.866c0,3.953,0,7.191,0,11.319C1148.407,1089.279,1160.089,1090.682,1172.075,1092.122z
	 M534.793,933.409c0-4.674,0-7.892,0-11.282c-2.552-0.74-4.778-1.386-6.884-1.996c-0.451-4.612-0.855-8.752-1.273-13.029
	c-7.93,0-15.101,0-22.882,0c0,7.506,0,14.405,0,21.626C514.499,930.348,524.303,931.827,534.793,933.409z M640.804,1025.304
	c1.771-0.084,4.471-0.213,9.714-0.462c1.034-9.113,2.074-18.278,3.147-27.727c-9.269,0-16.633,0-24.396,0c0,7.43,0,14.026,0,19.242
	C633.549,1019.677,636.839,1022.229,640.804,1025.304z M335.811,1105.157c-8.009,0-15.226,0-22.858,0c0,7.83,0,15.097,0,22.578
	c8.005,0,14.972,0,22.858,0C335.811,1119.747,335.811,1112.63,335.811,1105.157z M778.088,1033.36c0-7.779,0-14.897,0-22.158
	c-7.957,0-15.123,0-22.895,0c0,7.534,0,14.407,0,22.158C763.408,1033.36,770.586,1033.36,778.088,1033.36z M1503.412,573.955
	c0-7.779,0-14.881,0-22.158c-8.021,0-15.221,0-22.922,0c0,7.569,0,14.482,0,22.158
	C1488.766,573.955,1495.961,573.955,1503.412,573.955z M1688.643,689.8c8.017,0,15.424,0,22.984,0c0-7.787,0-14.685,0-22.159
	c-7.845,0-15.032,0-22.984,0C1688.643,675.613,1688.643,682.539,1688.643,689.8z M526.751,1100.476c0-7.603,0-14.427,0-21.427
	c-8.101,0-15.479,0-23.207,0c0,7.455,0,14.077,0,21.427C511.984,1100.476,519.388,1100.476,526.751,1100.476z M1872.906,963.18
	c0-7.839,0-15.164,0-22.443c-7.897,0-14.797,0-22.281,0c0,7.685,0,14.783,0,22.443C1858.402,963.18,1865.531,963.18,1872.906,963.18
	z M151.408,909.551c0,8.001,0,15.096,0,22.272c7.91,0,14.837,0,22.459,0c0-7.635,0-14.77,0-22.272
	C165.457,909.551,158.332,909.551,151.408,909.551z M878.626,1047.129c0,7.549,0,14.635,0,22.321c7.791,0,14.945,0,22.669,0
	c0-7.589,0-14.712,0-22.321C893.593,1047.129,886.442,1047.129,878.626,1047.129z M627.483,639.093c0,8.01,0,15.174,0,22.183
	c8.036,0,15.243,0,22.864,0c0-7.679,0-14.65,0-22.183C641.979,639.093,634.531,639.093,627.483,639.093z M865.375,1149.265
	c0-7.817,0-14.892,0-21.997c-8.164,0-15.515,0-23.084,0c0,7.841,0,14.696,0,21.997
	C850.333,1149.265,857.716,1149.265,865.375,1149.265z M575.006,479.682c0-7.757,0-14.843,0-22.003c-8.125,0-15.485,0-23.103,0
	c0,7.658,0,14.493,0,22.003C559.917,479.682,567.312,479.682,575.006,479.682z M1174.336,436.032c-7.55,0-14.687,0-22.259,0
	c0,7.706,0,14.797,0,22.328c7.569,0,14.48,0,22.259,0C1174.336,451.03,1174.336,443.714,1174.336,436.032z M1830.221,829.995
	c-8.027,0-15.381,0-22.9,0c0,7.604,0,14.411,0,21.77c7.841,0,15.01,0,22.9,0C1830.221,843.931,1830.221,837.088,1830.221,829.995z
	 M1195.958,1127.471c0-7.736,0-14.889,0-22.112c-7.887,0-15.104,0-22.853,0c0,7.501,0,14.39,0,22.112
	C1181.369,1127.471,1188.58,1127.471,1195.958,1127.471z M177.552,786.159c8.25,0,15.705,0,22.804,0c0-7.723,0-14.582,0-21.429
	c-8.053,0-15.292,0-22.804,0C177.552,772.797,177.552,779.658,177.552,786.159z M1773.544,813.279c0,7.712,0,14.59,0,21.347
	c7.969,0,15.195,0,22.871,0c0-7.274,0-13.901,0-21.347C1788.097,813.279,1780.679,813.279,1773.544,813.279z M881.182,866.422
	c0,7.568,0,14.432,0,21.505c7.912,0,15.1,0,22.907,0c0-7.417,0-14.272,0-21.505C896.086,866.422,888.659,866.422,881.182,866.422z
	 M109.906,912.025c7.851,0,15.034,0,22.508,0c0-7.609,0-14.67,0-21.892c-7.767,0-14.733,0-22.508,0
	C109.906,898.031,109.906,904.872,109.906,912.025z M703.294,1100.776c-7.992,0-15.37,0-22.792,0c0,7.551,0,14.393,0,21.411
	c7.858,0,15.034,0,22.792,0C703.294,1114.823,703.294,1108.009,703.294,1100.776z M1761.05,1098.44c0,7.773,0,14.617,0,21.426
	c8.206,0,15.62,0,23.128,0c0-7.513,0-14.16,0-21.426C1775.738,1098.44,1768.331,1098.44,1761.05,1098.44z M1760.895,999.234
	c0,7.492,0,14.306,0,21.672c7.973,0,15.346,0,23.106,0c0-7.528,0-14.354,0-21.672
	C1775.625,999.234,1768.467,999.234,1760.895,999.234z M141.174,982.499c0,7.537,0,14.38,0,21.551c7.917,0,15.116,0,22.835,0
	c0-7.347,0-14.218,0-21.551C155.79,982.499,148.596,982.499,141.174,982.499z M1905.98,1069.587c0,6.97,0,13.794,0,20.829
	c8.116,0,15.767,0,23.668,0c0-7.199,0-13.562,0-20.829C1921.829,1069.587,1914.188,1069.587,1905.98,1069.587z M1977.353,967.921
	c-8.036,0-15.427,0-23.082,0c0,7.479,0,14.295,0,21.556c7.766,0,14.961,0,23.082,0
	C1977.353,981.842,1977.353,975.043,1977.353,967.921z M746.358,711.516c-7.836,0-15.012,0-22.531,0c0,7.617,0,14.511,0,21.911
	c7.627,0,14.615,0,22.531,0C746.358,726.194,746.358,718.865,746.358,711.516z M603.231,1327.509c-5.093,0-8.582,0-12.633,0
	c-0.957,8.018-1.852,15.519-2.775,23.253c4.859,0,8.145,0,12.171,0C601.147,1342.476,602.149,1335.278,603.231,1327.509z
	 M1235.594,1223.085c5.025,0,8.281,0,11.924,0c1.317-7.862,2.564-15.3,3.924-23.416c-5.006,0-8.292,0-12.503,0
	C1237.786,1207.739,1236.721,1215.193,1235.594,1223.085z M593.145,1223.913c-2.137,6.954-4.082,13.286-6.383,20.774
	c5.61,0,9.072,0,11.929,0c2.334-4.633,4.379-8.692,6.948-13.79c-0.147-1.482-0.41-4.126-0.693-6.984
	C600.704,1223.913,596.961,1223.913,593.145,1223.913z M1613.119,1284.754c-0.952,8.095-1.802,15.328-2.662,22.641
	c5.128,0,8.553,0,11.993,0c1.335-7.948,2.528-15.044,3.804-22.641C1620.985,1284.754,1617.03,1284.754,1613.119,1284.754z
	 M409.923,1173.51c-5.129,0-8.881,0-12.634,0c-0.651,4.317-1.25,7.854-1.702,11.409c-0.466,3.667-0.788,7.352-1.191,11.21
	c4.814,0,8.104,0,12.042,0C407.689,1188.015,408.764,1181.035,409.923,1173.51z M1123.831,1321.916c5.235,0,9.034,0,13.014,0
	c1.043-7.927,1.996-15.178,3.021-22.968c-4.791,0-8.083,0-12.11,0C1126.477,1306.433,1125.217,1313.81,1123.831,1321.916z
	 M1142.993,1194.859c-5.794,0-9.278,0-11.135,0c-2.778,4.941-4.855,8.637-7.559,13.448c0.111,1.272,0.346,3.946,0.644,7.351
	c3.888,0.191,7.417,0.365,11.433,0.563C1138.77,1208.491,1140.748,1202.107,1142.993,1194.859z M628.01,1142.109
	c-1.032,3.183-0.955,6.726-1.446,10.785c4.684,0,8.129,0,11.831,0c2.133-7.09,4.112-13.667,6.358-21.13c-5.549,0-8.792,0-11.102,0
	C631.167,1136.194,629.028,1138.97,628.01,1142.109z M641.997,1235.579c-5.237,0.25-8.752,0.417-12.489,0.596
	c-1.086,8.057-2.058,15.272-3.088,22.914c4.831,0,8.117,0,12.33,0C639.881,1250.904,640.873,1243.72,641.997,1235.579z
	 M1629.028,1180.291c-5.771,0-9.194,0-11.146,0c-2.707,4.874-4.756,8.563-7.397,13.318c0.163,1.615,0.456,4.521,0.777,7.701
	c3.707,0,6.691,0,10.95,0C1624.426,1194.482,1626.562,1187.896,1629.028,1180.291z M405.211,1089.757
	c2.237-4.567,4.104-8.378,6.658-13.594c-0.141-1.268-0.461-4.145-0.78-7.014c-4.02,0-7.25,0-9.479,0
	c-2.27,4.478-4.171,8.229-6.986,13.782c0,0.467,0,3.154,0,6.826C399.011,1089.757,402.486,1089.757,405.211,1089.757z
	 M604.866,1377.954c0-4.188,0-7.9,0-11.822c-4.233,0-7.737,0-11.858,0c0,3.951,0,7.414,0,11.822
	C597.348,1377.954,600.862,1377.954,604.866,1377.954z M1477.22,607.747c0.296,4.195,0.538,7.625,0.759,10.76
	c4.658,0,8.155,0,12.094,0c0-3.687,0-6.675,0-10.76C1485.626,607.747,1481.846,607.747,1477.22,607.747z M428.656,713.59
	c0,4.125,0,7.561,0,11.019c4.426,0,8.132,0,11.874,0c0-4.13,0-7.368,0-11.019C436.287,713.59,432.549,713.59,428.656,713.59z
	 M1279.756,509.573c4.608,0,8.098,0,11.988,0c0-3.865,0-7.071,0-10.916c-4.212,0-7.962,0-12.63,0
	C1279.356,502.765,1279.556,506.162,1279.756,509.573z M1626.028,1374.735c-0.294-4.3-0.494-7.23-0.725-10.611
	c-4.297,0-8.029,0-12.158,0c0,3.848,0,7.095,0,11.96C1618.058,1375.569,1621.912,1375.166,1626.028,1374.735z M564.194,752.226
	c0,4.001,0,7.449,0,11.284c4.204,0,7.873,0,11.934,0c0-3.987,0-7.178,0-11.284C571.57,752.226,568.108,752.226,564.194,752.226z
	 M1250.303,1279.447c-4.249,0-7.74,0-11.267,0c0,4.104,0,7.57,0,11.444c3.923,0,7.156,0,11.267,0
	C1250.303,1286.368,1250.303,1282.911,1250.303,1279.447z M632.028,1285.93c3.975,0,7.426,0,11.133,0c0-4.017,0-7.46,0-11.362
	c-3.799,0-7.032,0-11.133,0C632.028,1278.296,632.028,1281.928,632.028,1285.93z M1625.246,657.206c0-3.81,0-7.026,0-10.625
	c-4.125,0-8.106,0-12.131,0c0,3.848,0,6.83,0,10.625C1617.692,657.206,1621.198,657.206,1625.246,657.206z M989.502,1073.964
	c-4.336,0-8.133,0-11.971,0c0,4.14,0,7.594,0,11.187c4.253,0,7.819,0,11.971,0C989.502,1080.879,989.502,1077.638,989.502,1073.964z
	 M1893.544,983.608c4.763,0,8.288,0,11.959,0c0-4.07,0-7.516,0-11.398c-4.19,0-7.684,0-12.487,0
	C1893.234,976.909,1893.393,980.344,1893.544,983.608z M1033.467,1145.218c4.23,0,7.732,0,11.322,0c0-3.938,0-7.157,0-10.916
	c-3.515-0.252-6.493-0.465-11.322-0.811C1033.467,1137.937,1033.467,1141.54,1033.467,1145.218z M1063.921,1054.579
	c-3.94,0-7.396,0-11.2,0c0,4.006,0,7.443,0,11.404c3.544,0,6.475,0,11.2,0C1063.921,1062.16,1063.921,1058.532,1063.921,1054.579z
	 M1445.93,903.786c0-4.151,0-7.54,0-11.022c-4.25,0-7.699,0-11.545,0c0,3.851,0,7.056,0,11.022
	C1438.898,903.786,1442.323,903.786,1445.93,903.786z M974.69,1124.855c0.209,4.231,0.38,7.701,0.571,11.571
	c4.158,0,7.359,0,11.261,0c0-3.963,0-7.458,0-11.571C982.369,1124.855,978.912,1124.855,974.69,1124.855z M88.308,944.759
	c4.213,0,7.665,0,11.046,0c0-3.978,0-7.197,0-10.935c-3.754,0-6.981,0-11.046,0C88.308,938.048,88.308,941.484,88.308,944.759z
	 M1168.936,933.835c0,3.939,0,7.372,0,11.043c4.002,0,7.419,0,11.326,0c0-3.871,0-7.056,0-11.043
	C1175.847,933.835,1172.628,933.835,1168.936,933.835z M752.137,554.387c0.255,4.385,0.441,7.563,0.635,10.892
	c4.344,0,7.806,0,11.77,0c0-3.78,0-6.984,0-11.526C759.911,553.989,756.233,554.177,752.137,554.387z M1240.619,1238.719
	c0.179,4.024,0.319,7.183,0.464,10.44c4.475,0,7.97,0,11.798,0c0-3.765,0-6.952,0-10.44
	C1248.691,1238.719,1245.014,1238.719,1240.619,1238.719z M1626.312,1428.124c-0.397-4.414-0.679-7.544-0.951-10.556
	c-4.74,0-8.448,0-12.149,0c0,3.953,0,7.141,0,11.144C1617.743,1428.509,1621.702,1428.331,1626.312,1428.124z M590.867,1418.614
	c4.355,0,7.806,0,11.605,0c0-3.817,0-6.981,0-10.673c-3.929,0-7.409,0-11.605,0C590.867,1412.039,590.867,1415.376,590.867,1418.614
	z M1806.258,859.322c-4.24,0-7.936,0-12.214,0c0.249,4.01,0.446,7.188,0.662,10.667c4.264,0,7.508,0,11.552,0
	C1806.258,865.703,1806.258,862.523,1806.258,859.322z M409.023,1253.174c-4.255,0-7.945,0-11.886,0c0,3.962,0,7.12,0,10.764
	c4.131,0,7.637,0,11.886,0C409.023,1259.788,409.023,1256.589,409.023,1253.174z M999.598,1253.079c0,4.131,0,7.538,0,10.681
	c4.372,0,7.885,0,11.906,0c0.286-3.592,0.519-6.523,0.849-10.681C1007.124,1253.079,1003.368,1253.079,999.598,1253.079z
	 M986.676,1229.102c-4.542,0-8.001,0-11.476,0c0,3.931,0,7.149,0,10.837c3.951,0,7.428,0,11.476,0
	C986.676,1236.026,986.676,1232.478,986.676,1229.102z M400.157,1222.927c4.221,0,7.413,0,11.104,0c0-4.016,0-7.46,0-11.395
	c-3.823,0-7.013,0-11.642,0C399.829,1215.971,399.992,1219.423,400.157,1222.927z M641.012,1326.264c0-3.672,0-6.867,0-10.343
	c-4.101,0-7.585,0-11.631,0c-0.231,3.519-0.424,6.462-0.679,10.343C633.148,1326.264,637.075,1326.264,641.012,1326.264z
	 M1130.16,1337.637c0,4.043,0,7.261,0,10.906c3.931,0,7.354,0,11.222,0c0-3.835,0-7.061,0-10.906
	C1136.946,1337.637,1133.564,1337.637,1130.16,1337.637z M264.409,770.211c4.376,0,8.123,0,12.457,0
	c-0.268-4.072-0.478-7.268-0.707-10.759c-4.209,0-7.488,0-11.75,0C264.409,763.679,264.409,766.835,264.409,770.211z
	 M1649.265,842.425c0.173,3.902,0.315,7.084,0.462,10.405c4.312,0,7.771,0,11.802,0c0.19-3.474,0.351-6.409,0.569-10.405
	C1657.244,842.425,1653.543,842.425,1649.265,842.425z M842.301,1069.418c0,3.856,0,7.04,0,10.465c4.266,0,7.919,0,11.747,0
	c0-3.996,0-7.162,0-10.465C849.728,1069.418,846.025,1069.418,842.301,1069.418z M196.846,1070.376c4.111,0,7.551,0,11.017,0
	c0-4.021,0-7.389,0-10.697c-3.977,0-7.219,0-11.017,0C196.846,1063.967,196.846,1067.134,196.846,1070.376z M1627.313,1323.225
	c-3.911,0-7.324,0-10.943,0c0,3.927,0,7.13,0,10.774c3.741,0,6.959,0,10.943,0
	C1627.313,1329.969,1627.313,1326.757,1627.313,1323.225z M143.675,1428.079c4.023,0,7.446,0,10.973,0c0-3.956,0-7.337,0-10.861
	c-3.929,0-7.117,0-10.973,0C143.675,1421.491,143.675,1424.654,143.675,1428.079z M224.786,999.034c-3.893,0-7.087,0-10.682,0
	c0,3.879,0,7.266,0,10.816c3.884,0,7.076,0,10.682,0C224.786,1005.98,224.786,1002.592,224.786,999.034z M1287.199,1339.634
	c3.822,0,6.975,0,10.205,0c0-3.357,0-5.981,0-9.099c-3.606,0-6.762,0-10.205,0
	C1287.199,1333.956,1287.199,1336.786,1287.199,1339.634z M1978.285,940.472c0-4.469,0-7.865,0-12.043
	c-2.976,0.463-5.131,0.798-7.432,1.155c0,3.414,0,6.091,0,9.858C1973.093,939.752,1975.442,940.078,1978.285,940.472z
	 M1015.073,805.803c-8.231,0-15.636,0-23.138,0c0,7.631,0,14.46,0,21.733c8.082,0,15.503,0,23.138,0
	C1015.073,819.81,1015.073,812.765,1015.073,805.803z M953.454,1393.345c0,3.931,0,7.131,0,10.405c4.335,0,8.063,0,11.937,0
	c0-3.806,0-6.756,0-10.954C960.713,1393.011,957.161,1393.174,953.454,1393.345z"/>
</svg>
