<?xml version="1.0" encoding="iso-8859-1"?>
<!-- Generator: Adobe Illustrator 19.0.0, SVG Export Plug-In . SVG Version: 6.00 Build 0)  -->
<svg version="1.1" id="Layer_1" xmlns="http://www.w3.org/2000/svg" xmlns:xlink="http://www.w3.org/1999/xlink" x="0px" y="0px"
	 viewBox="0 0 500 500" style="enable-background:new 0 0 500 500;" xml:space="preserve">
<path d="M276.475,183.866c0-8.082,0-14.803,0-22.964c5.546,1.054,10.19,1.707,14.718,2.831
	c55.728,13.839,113.669,60.25,123.948,139.104c13.051,100.12-54.901,175.006-137.328,188.898
	c-100.157,16.88-181.219-54.868-193.805-137.49c-1.623-10.653-2.62-21.507-2.682-32.274c-0.28-49.294-0.126-98.59-0.117-147.886
	c0.001-3.942-0.242-7.921,0.195-11.819c0.675-6.024,4.003-9.962,10.313-10.64c6.505-0.699,10.476,2.906,11.961,8.66
	c1.084,4.198,0.984,8.765,0.991,13.169c0.094,52.746-0.229,105.495,0.233,158.237c0.527,60.205,46.903,123.872,119.381,136.697
	c78.013,13.805,151.899-37.637,166.119-113.533c9.944-53.073-5.014-99.175-45.369-136.269
	C325.65,200.769,302.297,190.958,276.475,183.866z M182.042,25.277c0-3.452,0.08-6.911-0.112-10.353
	c-0.35-6.271-3.824-10.135-9.958-10.831c-6.369-0.723-10.512,2.851-11.687,8.843c-1.031,5.255-1.247,10.734-1.252,16.115
	c-0.074,77.918-0.054,155.836-0.041,233.754c0.001,3.942-0.242,7.937,0.293,11.815c1.054,7.649,6.294,12.835,12.162,12.657
	c6.228-0.19,10.119-5.056,10.555-13.452c0.179-3.443,0.044-6.903,0.044-10.355c0.001-38.959,0.001-77.918,0.001-116.877
	C182.045,106.154,182.047,65.716,182.042,25.277z M198.855,265.814c0.004,3.938,0.013,7.908,0.49,11.805
	c0.792,6.475,5.342,9.56,11.245,9.422c5.279-0.124,9.338-3.298,10.108-9.022c0.523-3.889,0.616-7.858,0.618-11.791
	c0.035-66.572,0.028-133.143,0.015-199.715c-0.001-2.956,0.1-5.942-0.268-8.861c-0.871-6.923-5.504-11.922-10.798-12.004
	c-5.391-0.084-10.355,4.854-11.128,11.591c-0.447,3.9-0.293,7.877-0.295,11.82c-0.019,32.053-0.011,64.106-0.009,96.159
	C198.835,198.749,198.82,232.282,198.855,265.814z M237.787,266.666c0.002,3.449,0.018,6.906,0.247,10.344
	c0.44,6.585,4.869,9.802,10.674,10.13c5.305,0.299,9.529-2.853,10.887-8.255c0.945-3.76,1.291-7.76,1.297-11.653
	c0.078-56.695,0.068-113.39,0.014-170.085c-0.003-3.424-0.256-6.905-0.911-10.258c-1.19-6.09-4.921-9.598-11.372-9.279
	c-6.318,0.312-9.986,3.796-10.59,10.107c-0.327,3.424-0.244,6.894-0.246,10.343c-0.016,28.101-0.009,56.202-0.01,84.303
	C237.777,210.464,237.769,238.565,237.787,266.666z M143.394,97.164c-0.003-3.446,0.37-7.023-0.406-10.308
	c-1.208-5.11-4.399-8.76-10.14-9.191c-5.654-0.424-9.75,2.162-11.438,7.372c-1.18,3.642-1.489,7.685-1.532,11.556
	c-0.167,14.783-0.069,29.57-0.068,44.355c0.002,43.37-0.091,86.741,0.08,130.11c0.039,9.885,4.792,15.784,11.719,16.059
	c7.191,0.285,11.398-5.204,11.777-15.487c0.109-2.953,0.022-5.913,0.022-8.871c0-26.614,0-53.227,0-79.841
	C143.407,154.334,143.417,125.749,143.394,97.164z M349.209,339.87c-6.189-1.785-10.375,1.634-13.072,6.877
	c-1.337,2.6-2.086,5.509-3.043,8.297c-7.609,22.166-22.722,37.629-43.301,48.038c-5.679,2.872-11.82,4.815-17.617,7.472
	c-5.495,2.518-8.384,6.846-7.214,13.072c1.379,7.34,8.256,10.476,17.537,7.206c33.665-11.861,59.226-32.596,71.805-67.088
	c1.335-3.66,2.229-7.481,2.655-8.933C357.676,346.205,355.201,341.597,349.209,339.87z"/>
</svg>
