<?xml version="1.0" encoding="iso-8859-1"?>
<!-- Generator: Adobe Illustrator 19.0.0, SVG Export Plug-In . SVG Version: 6.00 Build 0)  -->
<svg version="1.1" id="Layer_1" xmlns="http://www.w3.org/2000/svg" xmlns:xlink="http://www.w3.org/1999/xlink" x="0px" y="0px"
	 viewBox="0 0 2000 2000" style="enable-background:new 0 0 2000 2000;" xml:space="preserve">
<path d="M1974.195,1000.709c-2.086,267.379-95.203,498.116-285.278,686.602c-203.746,202.044-451.525,295.54-738.187,283.204
	c-481.906-20.738-922.166-420.373-922.554-972.753C27.797,459.203,462.121,23.893,1005.855,24.7
	C1543.025,25.498,1981.898,470.073,1974.195,1000.709z M1004.229,160.435c-465.971,2.548-839.15,372.317-839.842,835.682
	c-0.697,466.497,367.518,840.977,838.919,840.233c467.488-0.739,829.177-369.008,836.01-824.003
	C1846.547,530.738,1461.893,164.653,1004.229,160.435z M1281.939,1062.173c60.543,41.141,119.616,84.491,180.889,124.488
	c27.405,17.889,58.172,31.039,88.368,44.138c37.566,16.295,77.491,22.49,116.872,19.776c29.335,24.111,29.621,46.889,1.404,68.415
	c-15.845,12.087-32.941,22.533-49.465,33.714c15.741,33.51,13.481,44.663-18.39,66.484c-19.068,13.055-40.215,23.073-59.646,34.016
	c1.529,14.875,3.06,29.767,4.388,42.688c-28.029,30.842-60.902,47.041-98.822,56.374c6.4,29.935-10.383,45.076-33.748,54.843
	c-25.859,10.81-52.273,20.294-80.377,31.098c-0.188,21.85-17.418,32.964-37.3,39.199c-46.95,14.725-94.47,27.354-143.948,30.874
	c-17.58,1.251-35.033,4.292-54.032,6.705c0,23.746,0,46.666,0,69.69c406.926-32.177,783.831-453.44,682.229-941.449
	c-227.154,0-454.532,0-682.547,0c0,21.474,0,41.431,0,63.461c13.138,0.997,25.074,2.036,37.028,2.783
	c31.105,1.942,60.834,9.258,87.533,25.505c34.599,21.055,38.612,53.163,11.421,83.004c-3.245,3.561-6.641,6.983-10.482,11.009
	C1244.414,1040.813,1264.138,1050.077,1281.939,1062.173z M1173.232,1377.913c38.526,25.063,77.164,49.979,115.132,75.871
	c37.938,25.872,76.051,51.414,119.305,67.549c10.857,4.05,23.945,6.338,35.145,4.415c27.414-4.707,51.243-18.647,72.823-35.964
	c3.033-2.434,3.72-7.79,5.851-12.6c-5.923-2.589-10.132-5.348-14.715-6.294c-66.777-13.792-124.831-45.772-179.589-85.011
	c-55.735-39.939-111.756-79.424-177.858-101.374c-6.782-2.252-12.185-8.657-17.699-12.743c7.444-18.716,18.008-18.174,32.307-13.109
	c50.471,17.875,96.546,43.297,140.368,74.03c40.749,28.578,82.716,55.696,125.898,80.394c17.482,9.999,39.31,14.701,59.685,16.864
	c43.092,4.574,77.669-16.984,109.762-42.611c2.62-2.093,2.124-8.089,3.113-12.434c-3.999-1.209-6.27-2.443-8.574-2.512
	c-49.168-1.455-94.526-16.805-138.566-37.361c-53.778-25.101-101.888-59.073-147.541-96.319
	c-46.042-37.563-96.676-63.211-155.927-71.525c-7.685-1.078-14.599-7.655-25.527-13.711c8.592-8.824,14.277-14.663,21.365-21.943
	c33.751,10.865,68.523,17.327,98.544,32.929c36.878,19.166,70.257,45.311,104.301,69.625c45.989,32.846,91.95,65.332,145.054,86.332
	c58.421,23.102,111.89,17.786,159.792-24.763c3.829-3.401,6.664-7.922,9.98-11.946c-3.352-3.154-4.851-5.395-6.934-6.323
	c-2.828-1.259-6.2-2.393-9.171-2.064c-37.887,4.19-72.847-7.025-107.732-19.532c-69.196-24.807-127.633-67.651-186.474-109.973
	c-55.419-39.86-108.742-83.413-172.378-101.609c-31.66,4.04-59.818,7.633-87.61,11.18c0,211.06,0,419.168,0,627.104
	c51.457,8.696,182.676-18.598,212.597-45.155c-7.123-5.555-13.602-11.27-20.719-16.031c-19.383-12.964-39.176-25.318-58.53-38.325
	c-11.523-7.744-16.787-17.316-3.345-32.818c7.696,3.394,16.457,6.295,24.231,10.872c21.454,12.629,41.848,27.242,63.996,38.429
	c9.953,5.027,24.22,7.606,34.539,4.558c22.168-6.549,43.179-17.177,64.338-26.847c4.319-1.974,7.209-7.073,13.735-13.8
	c-109.392-40.967-192.617-118.253-293.793-174.076c6.526-9.457,11.308-16.387,16.396-23.76
	C1158.987,1370.634,1166.564,1373.575,1173.232,1377.913z M690.669,1275.425c-126.653,0.514-211.141,102.483-216.778,210.366
	c-6.546,125.274,110.706,222.924,218.398,223.487c126.137,0.659,219.843-109.104,215.341-215.126
	C912.977,1385.526,821.26,1274.895,690.669,1275.425z M1296.954,495.076c3.662,23.617,7.401,47.729,11.333,73.086
	c-14.57,0-24.78,0-37.023,0c-1.312-48.685-17.872-91.279-51.421-124.964c-33.741-33.879-74.434-54.915-123.272-53.492
	c0,89.975,0,177.783,0,265.081c208.271,0,414.261,0,623.397,0c-34.19-68.792-71.939-131.65-124.464-183.498
	c-21.447-21.17-51.512-28.335-83.457-20.813c-34.567,8.139-58.286,28.907-74.865,59.232
	C1384.654,465.193,1329.61,469.654,1296.954,495.076z M453.752,1573.762c-16.469-67.454-14.774-132.852,17.014-195.319
	c-12.51-41.794-12.642-82.473-2.932-124.54c9.837-42.616,32.228-77.906,56.414-112.278
	c-80.422-74.106-222.697-70.163-301.995,17.283C255.865,1320.635,333.523,1458.738,453.752,1573.762z M222.935,843.349
	c-20.126,90.777-17.792,180.364-7.705,276.108c41.004-34.175,84.531-51.8,131.448-60.709c47.982-9.111,94.068,3.212,139.52,18.512
	c36.202-76.262,41.663-153.407,36.195-233.912C420.993,843.349,321.818,843.349,222.935,843.349z M678.206,622.275
	c19.118-10.156,39.237-18.56,59.332-26.71c23.003-9.329,47.658-15.245,69.495-26.662c63.474-33.183,74.721-70.267,63.124-138.305
	c-5.213-30.585-18.277-60.804-6.255-92.576c4.068-10.752,8.453-21.385,13.403-33.864c-8.647-1.462-15.621-2.386-22.482-3.842
	c-42.769-9.081-73.7,24.904-73.944,56.286c-0.15,19.323,1.078,38.771,3.433,57.949c1.179,9.603,2.457,17.539-9.742,24.127
	c-5.787-2.281-13.325-4.666-20.329-8.13c-16.646-8.233-32.937-17.184-49.556-25.475c-42.246-21.075-83.265-26.183-127.943-2.091
	c-30.574,16.486-65.811,24.386-99.085,35.77c-9.937,3.4-20.283,5.604-33.154,9.092c4.786,2.71,5.994,3.966,7.26,4.027
	c32.319,1.564,64.473,2.286,96.095-7.241c18.362-5.532,22.2-1.76,21.41,19.623c-19.622,5.172-39.945,10.529-65.55,17.278
	c10.974,6.368,17.794,13.207,25.347,14.147c19.714,2.453,39.753,3.082,59.654,2.952c13.083-0.085,26.148-2.75,40.474-4.405
	c0,9.395,0,14.786,0,22.349c-17.597,3.948-34.795,7.807-53.187,11.934c26.607,22.166,35.96,15.775,85.918,7.473
	c3.364,4.206,7.498,9.377,12.267,15.34c-18.502,19.467-41.867,14.549-59.697,23.036c-38.413,27.049-76.826,54.099-116.017,81.696
	c42.695,0,84.66,0,125.337,0C642.633,644.234,659.786,632.06,678.206,622.275z M1097.628,350.012
	c77.383,8.899,140.314,41.708,178.504,106.851c27.667-6.215,52.417-15.787,77.334-16.247c25.056-0.463,50.278,8.142,78.119,13.269
	c27.018-23.513,59.865-42.074,102.815-41.952c-117.278-117.321-303.093-189.318-436.773-201.418
	C1097.628,257.539,1097.628,302.504,1097.628,350.012z M597.821,843.85c70.071,60.917,108.014,137.45,146.538,214.279
	c62.586,9.879,116.372,36.304,162.554,85.166c0-102.952,0-200.644,0-299.445C804.33,843.85,703.951,843.85,597.821,843.85z
	 M684.463,1245.058c97.536-1.83,168.452,42.984,223.237,122.926c0-54.456,0.409-104.653-0.378-154.832
	c-0.141-8.984-3.338-19.15-8.332-26.627c-30.284-45.348-72.841-74.694-124.793-89.769c-36.042-10.458-72.667-10.257-110.43-1.355
	C670.825,1146.443,677.588,1195.343,684.463,1245.058z M287.313,652.547c112.061,16.906,207.116-10.614,287.739-84.204
	c-11.953-14.623-21.978-26.887-33.047-40.429c-26.197-6.434-52.602-15.715-65.344-43.865c-21.81-5.169-42.761-10.135-65.417-15.504
	C361.463,524.017,318.893,583.99,287.313,652.547z M752.089,361.073c2.722-49.119,38.413-87.315,85.591-87.841
	c22.818-0.254,45.71,6.147,70.227,9.781c0-10.485,0-22.513,0-34.542c0-12.578,0-25.155,0-39.631
	c-168.301,23.952-313.004,88.249-434.891,201.861c32.526-3.754,62.693-15.193,90.628-30.448
	c43.689-23.859,87.165-27.289,132.573-7.481c17.595,7.675,34.991,15.807,55.78,25.227
	C751.997,383.596,751.466,372.303,752.089,361.073z M627.502,1108.06c-84.628,30.251-150.405,137.047-131.442,230.599
	c40.94-47.389,90.155-78.809,151.942-90.576C651.918,1207.361,639.732,1126.449,627.502,1108.06z M901.217,323.729
	c-3.492,6.176-8.369,11.96-10.241,18.593c-8.741,30.986-1.795,61.445,7.682,90.554c14.033,43.104-3.795,118.031-55.493,145.368
	c-27.67,14.632-56.683,26.83-85.525,39.105c-24.596,10.467-51.152,16.739-76.585,36.543c78.419,0,151.973,0,226.509,0
	c0-110.71,0-219.01,0-327.31C905.448,325.631,903.333,324.68,901.217,323.729z M906.781,1786.49c0-55.39,0-108.193,0-166.806
	c-45.758,67.202-103.347,108.489-180.114,122.393C785.051,1763.519,843.004,1783.525,906.781,1786.49z M622.559,1071.379
	c-15.526-55.997-33.484-110.441-60.777-161.677c-6.019,31.179-7.805,62.462-14.831,92.52c-7.237,30.958-19.58,60.723-30.147,92.384
	c9.997,7.215,20.87,15.062,30.467,21.99C575.179,1099.834,598.353,1085.916,622.559,1071.379z M1211.605,959.791
	c-35.722-19.856-73.829-28.607-115.43-24.634c0,31.909,0,61.221,0,90.39c59.989,3.532,102.622-8.966,126.954-36.516
	C1226.358,976.49,1222.652,965.932,1211.605,959.791z M591.931,882.706c22.864,62.048,44.129,119.755,66.08,179.326
	c14.478-2.136,29.383-4.336,47.774-7.049C676.072,992.057,642.589,934.484,591.931,882.706z"/>
</svg>
