<?xml version="1.0" encoding="iso-8859-1"?>
<!-- Generator: Adobe Illustrator 19.0.0, SVG Export Plug-In . SVG Version: 6.00 Build 0)  -->
<svg version="1.1" id="Layer_1" xmlns="http://www.w3.org/2000/svg" xmlns:xlink="http://www.w3.org/1999/xlink" x="0px" y="0px"
	 viewBox="0 0 2000 2000" style="enable-background:new 0 0 2000 2000;" xml:space="preserve">
<path d="M832.513,384.481c0-81.459,0-157.06,0-240.446c59.74-5.296,116.832-15.306,173.737-14.336
	c107.442,1.831,213.211,18.005,314.41,57.273c172.289,66.852,312.679,174.606,423.444,322.762
	c284.377,380.374,221.354,932.109-139.866,1240.251c-168.693,143.906-362.295,221.043-582.319,224.692
	c-264.913,4.394-491.778-91.017-676.731-281.6c-89.864-92.599-159.251-199.543-203.422-320.97
	c-38.018-104.513-59.608-212.686-54.153-324.891c2.97-61.096,49.127-105.932,112.223-109.095
	c52.8-2.647,104.793,40.676,112.902,96.968c5.074,35.227,4.93,71.175,9.091,106.569c42.648,362.728,380.28,630.475,743.981,600.156
	c283.121-23.602,537.126-252.422,605.019-515.748c95.66-371.023-135.02-759.494-517.531-846.059
	C1049.372,356.487,944.367,361.148,832.513,384.481z M431.031,823.656c16.15,0,29.663,0.002,43.176,0
	c173.791-0.03,347.584,0.409,521.371-0.41c45.658-0.215,87.247,11.03,126.372,33.553c95.508,54.982,135.724,178.384,92.785,284.812
	c-40.951,101.5-157.667,160.861-262.602,133.559c-107.569-27.988-174.231-113.13-176.636-227.406
	c-1.139-54.101-0.195-108.246-0.195-166.698c-78.367,0-151.938,0-224.646,0c-12.812,49.134-11.092,205.739,0.934,261.425
	c56.965,263.781,289.201,397.193,515.49,367.162c270.595-35.911,442.303-290.991,387.374-547.904
	c-50.095-234.304-229.088-370.794-470.067-371.159c-156.716-0.237-313.43-1.011-470.146-1.43
	c-62.509-0.167-125.019-0.027-201.386-0.027C356.604,675.954,393.62,749.415,431.031,823.656z M774.875,130.691
	c-0.415-50.735-39.234-97.388-84.872-107.682C612.566,5.544,549.601,52.464,548.119,132.279
	c-2.27,122.224-1.856,244.499-2.243,366.753c-0.036,11.242,2.37,22.492,3.808,35.207c75.7,0,147.911,0,225.557,0
	C775.24,395.588,775.959,263.132,774.875,130.691z M487.42,533.338c0-79.586,0-155.209,0-240.682
	c-97.854,67.691-173.463,144.825-241.695,240.682C331.347,533.338,408.886,533.338,487.42,533.338z"/>
</svg>
