<?xml version="1.0" encoding="iso-8859-1"?>
<!-- Generator: Adobe Illustrator 19.0.0, SVG Export Plug-In . SVG Version: 6.00 Build 0)  -->
<svg version="1.1" id="Layer_1" xmlns="http://www.w3.org/2000/svg" xmlns:xlink="http://www.w3.org/1999/xlink" x="0px" y="0px"
	 viewBox="0 0 500 500" enable-background="new 0 0 500 500" xml:space="preserve">
<path d="M247.91,494.698C117.173,494.06-1.014,383.926,6.064,235.465C11.821,114.705,114.12-1,262.228,5.14
	c124.383,5.156,233.98,109.112,232.756,248.273C493.812,386.731,384.753,496.276,247.91,494.698z M251.022,103.084
	c-0.7-5.161-4.631-3.542-7.694-3.598c-1.323-0.024-2.652,0.305-4.536,0.545c-1.227,0.545-3.069,1.362-3.923,1.741
	c-2.419-0.919-4.112-1.562-6.073-2.306c-0.129,1.872-0.235,3.419-0.297,4.329c-1.721,0.92-3.016,1.463-4.151,2.24
	c-15.17,10.392-21.998,26.992-17.066,46.019c1.86,7.175,1.471,14.251-1.478,21.135c-4.071,9.504-10.997,16.593-18.471,23.559
	c-13.7,12.768-30.652,15.286-48.002,16.073c-12.762,0.579-25.699-1.614-38.376-0.498c-23.375,2.058-42.08,13.708-56.368,32.143
	c-15.24,19.665-20.252,42.122-16.17,66.467c3.758,22.406,14.839,40.532,33.356,53.985c19.218,13.962,40.569,18.898,63.949,15.341
	c14.447-2.198,27.509-7.737,38.776-17.083c16.203-13.441,35.14-19.371,55.762-19.48c16.401-0.086,32.514,3.109,47.286,10.501
	c15.972,7.993,29.105,18.315,35.322,36.786c10.673,31.709,44.358,48.708,76.152,40.366c32.479-8.521,54.274-42.454,46.008-76.368
	c-7.219-29.618-31.769-48.712-61.807-49.473c-13.611-0.344-26.073,3.921-37.282,11.848c-3.998,2.827-8.234,5.49-12.703,7.448
	c-17.25,7.556-35.207,7.385-53.284,3.904c-22.97-4.424-41.617-16.356-56.207-34.311c-15.595-19.193-16.15-41.74-12.458-64.773
	c2.219-13.846,9.739-25.217,18.88-35.394c8.166-9.091,18.862-14.475,31.041-13.557c20.118,1.516,36.728-10.707,42.448-25.458
	c-0.627-0.369-1.258-0.74-2.971-1.749c2.81,0.486,4.388,0.759,5.879,1.016c0.44-1.809,0.811-3.339,0.84-3.458
	c-0.985-3.722-1.632-6.168-2.279-8.614c0.354,0.224,0.709,0.448,1.063,0.672c1.097-2.286,2.193-4.572,3.478-7.25
	c-3.03-0.683-5.001-1.127-7.531-1.697c-0.537,2.513-1.019,4.768-1.501,7.023c-0.212-0.031-0.424-0.062-0.637-0.093
	c0.324-2.529,0.649-5.059,0.951-7.414c2.117-0.273,3.483-0.449,4.659-0.601c0-1.973,0-3.606,0-5.494
	c-1.156,0.087-2.244,0.169-2.974,0.224c0.788-2.578,1.529-5.003,2.302-7.535c-2.202-0.624-4.293-1.217-6.474-1.836
	c0-1.21,0-2.297-0.019-3.401c3.62,0.249,7.241,0.497,11.583,0.796c0.668-4.867,1.311-9.561,1.938-14.131
	c-5.06-0.759-9.263-1.39-14.032-2.106c-0.574,4.091-1.338,7.975-1.537,11.887c-0.061,1.196,1.433,2.472,2.215,3.711
	c-2.452-2.104-4.904-4.208-6.655-5.71c0.686-3.304,1.145-5.516,1.693-8.158c-2.808,0-4.828,0-6.91,0
	c-0.141,1.29-0.284,2.601-0.459,4.205c-1.763-1.585-3.197-2.874-4.516-4.06c-1.495,1.365-2.71,2.475-3.925,3.584
	c0-1.761,0-3.523,0-5.784c-1.991-0.358-3.739-0.671-5.256-0.944C251.941,100.263,251.482,101.674,251.022,103.084z M307.468,76.245
	c-0.737,4.539-1.484,9.133-2.269,13.966c4.739,0.781,8.919,1.471,13.967,2.303c0.69-4.703,1.38-9.398,2.085-14.2
	C316.315,77.573,312.122,76.944,307.468,76.245z M262.302,94.58c0.564-4.699,1.013-8.437,1.493-12.437
	c-4.4-0.8-8.34-1.517-12.546-2.281c-0.737,4.597-1.422,8.876-2.136,13.33C253.628,93.668,257.812,94.108,262.302,94.58z
	 M284.677,90.34c4.727,0.543,8.726,1.002,12.817,1.472c0.538-4.63,1.003-8.639,1.479-12.741c-4.599-0.562-8.613-1.053-12.75-1.559
	C285.69,81.94,285.218,85.855,284.677,90.34z M319.694,70.315c0.559-4.377,0.997-7.803,1.495-11.699
	c-4.174-0.481-7.85-0.904-11.63-1.339c-0.534,4.284-0.977,7.847-1.448,11.624C312.355,69.419,315.912,69.853,319.694,70.315z
	 M316.377,119.088c3.749-0.581,7.085-1.098,10.721-1.662c-0.563-4.039-1.043-7.478-1.553-11.138
	c-3.884,0.725-7.621,1.422-11.46,2.139C314.868,112.072,315.532,115.158,316.377,119.088z M323.661,88.102
	c3.819,0.537,6.592,0.926,9.79,1.376c0.392-3.387,0.772-6.661,1.168-10.085c-3.716-0.46-6.479-0.803-9.549-1.183
	C324.617,81.397,324.16,84.601,323.661,88.102z M298.998,114.629c-0.527,3.706-0.943,6.629-1.398,9.827
	c3.462,0.483,6.407,0.895,9.983,1.394c0.479-3.612,0.882-6.645,1.297-9.772C305.607,115.598,302.477,115.139,298.998,114.629z
	 M277.382,66.671c-0.43,2.994-0.839,5.84-1.283,8.933c3.42,0.309,6.006,0.542,8.712,0.787c0.379-2.953,0.748-5.824,1.131-8.803
	C282.834,67.255,280.334,66.987,277.382,66.671z M324.258,43.401c-3.609,0-6.222,0-8.866,0c-0.238,2.413-0.467,4.727-0.751,7.609
	c2.7,0.26,5.31,0.512,8,0.771C323.19,48.937,323.631,46.651,324.258,43.401z M291.866,60.102c2.994,0.363,5.69,0.689,8.471,1.026
	c0.219-2.956,0.403-5.453,0.599-8.106c-2.587-0.353-5.174-0.706-7.763-1.059C292.751,54.594,292.351,57.086,291.866,60.102z
	 M270.952,78.842c0-3.043,0-5.628,0-8.389c-2.121-0.307-4.43-0.64-7.044-1.018c-0.434,2.573-0.893,5.293-1.357,8.049
	C265.424,77.948,267.733,78.321,270.952,78.842z M278.423,83.117c-3.233,0-5.545,0-8.461,0c-0.206,2.303-0.409,4.57-0.635,7.096
	c2.745,0.51,5.09,0.946,7.608,1.414C277.451,88.674,277.872,86.268,278.423,83.117z M292.96,136.759
	c0.923,2.34,1.847,4.681,2.83,7.171c2.389-1.156,4.48-2.168,6.822-3.302c-0.884-2.265-1.702-4.361-2.602-6.666
	C297.38,135.005,295.207,135.868,292.96,136.759z M309.602,95.217c0,3.17,0,5.458,0,7.705c2.183,0.31,4.147,0.589,6.68,0.949
	c0.338-2.261,0.675-4.513,1.069-7.15C314.632,96.194,312.335,95.748,309.602,95.217z M318.115,125.445
	c-2.589-0.326-5.085-0.641-7.886-0.994c0,2.695,0,4.586,0,7.026c2.101,0.325,4.311,0.668,6.415,0.993
	C317.15,130.055,317.506,128.356,318.115,125.445z M239,98.084c2.9,0,4.92,0,7.146,0c0-2.248,0-4.245,0-6.386
	c-2.064,0-3.782,0-5.935,0C239.826,93.732,239.456,95.684,239,98.084z M329.516,100.467c0-2.634,0-4.673,0-6.845
	c-1.775-0.091-3.357-0.171-5.391-0.275c-0.433,1.786-0.882,3.633-1.334,5.495C325.228,99.431,327.055,99.872,329.516,100.467z
	 M297.702,65.928c0,2.913,0,4.921,0,6.92c1.99,0,3.718,0,5.485,0c0.464-1.81,0.879-3.428,1.353-5.279
	C302.225,67.013,300.279,66.546,297.702,65.928z M326.252,58.45c-0.385,1.908-0.721,3.568-1.122,5.552
	c2.051,0.438,4.083,0.872,6.215,1.327c0-2.496,0-4.35,0-6.553C329.505,58.658,327.966,58.559,326.252,58.45z M333.159,76.089
	c0.546-2.013,1.043-3.846,1.755-6.469c-2.602-0.117-4.452-0.2-6.71-0.301c-0.189,2.095-0.324,3.596-0.47,5.219
	C329.63,75.08,331.243,75.541,333.159,76.089z M292.636,112.667c2.495,0.232,4.535,0.422,6.601,0.614c0-2.372,0-4.199,0-6.004
	c-1.935,0-3.517,0-5.054,0C293.696,108.975,293.263,110.483,292.636,112.667z M306.578,97.636c-2.52-0.281-4.564-0.509-6.633-0.74
	c0,2.462,0,4.296,0,6.108c1.934,0,3.515,0,5.055,0C305.497,101.313,305.939,99.813,306.578,97.636z M290.048,124.274
	c-0.444,2.469-0.785,4.367-1.213,6.75c2.267,0.171,3.8,0.286,5.85,0.44c0.405-1.958,0.765-3.697,1.126-5.44
	C293.782,125.408,292.296,124.957,290.048,124.274z M292.441,99.205c0.372-2.009,0.694-3.745,1.016-5.484
	c-2.215-0.277-4.02-0.502-6.159-0.77c0,2.254,0,4.205,0,6.254C289.078,99.205,290.518,99.205,292.441,99.205z M345.11,46.053
	c-2.082,0-3.644,0-5.4,0c0,1.892,0,3.569,0,5.314c1.935,0,3.612,0,5.4,0C345.11,49.506,345.11,47.945,345.11,46.053z M267.403,93.69
	c0.187,1.934,0.331,3.432,0.499,5.166c1.604,0.166,2.786,0.289,4.361,0.452c0.381-1.936,0.711-3.609,1.107-5.618
	C271.12,93.69,269.587,93.69,267.403,93.69z M289.376,71.857c1.753,0.398,3.409,0.775,5.112,1.162c0-2.329,0-3.883,0-5.565
	c-1.625,0-3.01,0-4.343,0C289.888,68.926,289.67,70.174,289.376,71.857z M255.033,109.407c4.144,0.621,8.041,1.205,12.586,1.886
	c-0.436,3.928-0.865,7.797-1.374,12.391c-3.933-0.42-7.792-0.832-12.487-1.334C254.168,118.185,254.58,114.008,255.033,109.407z
	 M266.473,112.212c-3.662-0.503-6.881-0.945-10.372-1.425c-0.493,3.907-0.913,7.231-1.331,10.537
	c3.974,0.456,7.168,0.822,10.358,1.187C265.605,118.864,266.012,115.744,266.473,112.212z"/>
</svg>
