<?xml version="1.0" encoding="iso-8859-1"?>
<!-- Generator: Adobe Illustrator 19.0.0, SVG Export Plug-In . SVG Version: 6.00 Build 0)  -->
<svg version="1.1" id="Layer_1" xmlns="http://www.w3.org/2000/svg" xmlns:xlink="http://www.w3.org/1999/xlink" x="0px" y="0px"
	 viewBox="0 0 500 500" style="enable-background:new 0 0 500 500;" xml:space="preserve">
<path id="XMLID_4_" d="M250.839,451.811C172.195,362.459,94.097,273.728,15.627,184.575c4.256-5.862,8.109-11.364,12.161-16.716
	c19.735-26.068,39.467-52.139,59.378-78.071c1.971-2.567,4.884-4.77,7.821-6.179c22.428-10.76,44.949-21.328,67.51-31.808
	c2.316-1.076,5.083-1.661,7.642-1.665c55.363-0.084,110.727-0.07,166.09,0.015c2.33,0.004,4.872,0.427,6.955,1.414
	c23.571,11.172,47.072,22.492,70.573,33.763c24.233,32.731,48.42,65.401,73.019,98.627c-1.633,2.241-2.988,4.458-4.686,6.371
	c-12.724,14.327-25.591,28.528-38.269,42.896c-16.667,18.887-33.214,37.881-49.792,56.847
	c-16.586,18.975-33.09,38.022-49.738,56.942c-12.17,13.83-24.575,27.453-36.765,41.264c-12.341,13.982-24.533,28.096-36.82,42.126
	c-5.432,6.204-10.921,12.359-16.424,18.5C253.512,449.758,252.514,450.409,250.839,451.811z M141.674,241.073
	c36.269,63.91,72.6,127.928,109.564,193.063c36.498-65.344,72.388-129.598,108.501-194.252
	c-9.927-36.339-19.88-72.769-29.818-109.15c-52.615,0-104.473,0-156.457,0C162.847,167.584,152.318,204.126,141.674,241.073z
	 M100.685,90.895c23.12,9.951,44.81,19.352,66.577,28.57c2.595,1.099,5.609,1.695,8.431,1.7
	c39.814,0.073,79.629,0.029,119.443-0.051c10.434-0.021,20.875-0.524,31.299-0.265c4.031,0.1,7.602-0.415,11.188-2.124
	c18.313-8.727,36.669-17.367,54.996-26.065c2.247-1.066,4.415-2.298,7.232-3.774c-20.056-9.621-39.217-18.89-58.472-27.957
	c-2.521-1.187-5.528-1.887-8.312-1.893c-53.41-0.113-106.821-0.111-160.231-0.019c-2.555,0.004-5.295,0.642-7.63,1.694
	c-12.998,5.858-25.911,11.905-38.825,17.948C118.152,82.511,109.972,86.468,100.685,90.895z M338.877,128.196
	c9.594,35.317,18.922,69.654,28.477,104.827c36.004-17.07,71.268-33.789,106.816-50.643c-21.734-29.375-42.938-58.476-64.752-87.467
	C385.522,106.188,362.379,117.108,338.877,128.196z M29.246,181.157c35.25,18.089,69.566,36.086,104.723,53.614
	c10.292-35.909,20.308-70.857,30.518-106.482c-24.242-10.283-47.926-20.328-71.889-30.493
	C71.403,125.686,50.616,153.038,29.246,181.157z M277.471,406.244c0.361,0.385,0.721,0.769,1.082,1.154
	c60.155-68.299,120.311-136.598,180.439-204.92c0.374-0.425,0.36-1.19,0.812-2.83c-3.762,1.619-6.811,2.821-9.766,4.221
	c-23.535,11.146-46.947,22.562-70.637,33.369c-7.651,3.491-13.327,8.08-16.658,15.897c-1.97,4.623-4.958,8.808-7.427,13.224
	c-18.998,33.972-38.005,67.94-56.959,101.937C291.326,380.906,284.429,393.592,277.471,406.244z M222.618,405.849
	c0.435-0.402,0.869-0.804,1.304-1.206c-30.151-53.158-60.301-106.317-90.461-159.492c-30.954-15.927-61.769-31.783-92.584-47.638
	c-0.257,0.368-0.514,0.736-0.771,1.104C100.944,267.695,161.781,336.772,222.618,405.849z M297.446,238.427
	c11.004,2.626,17.437,8.5,20.199,17.75c2.115,7.084,1.507,14.376-0.276,21.555c-3.406,13.719-13.198,20.195-26.126,23.041
	c-6.558,1.444-13.17,2.642-20.553,4.11c0,7.756,0,15.879,0,24.085c-5.829,2.18-11.042,0.985-16.855,0.747c0-8.305,0-16.387,0-25.096
	c-4.073,0-7.542,0-11.266,0c-2.805,7.962,2.093,16.621-1.542,24.94c-5.051,0-10.01,0-15.606,0
	c-0.174-8.583-0.339-16.689-0.518-25.514c-10.885-0.17-20.911-0.326-31.169-0.485c-0.732-6.565,1.301-12.045,2.32-18.424
	c5.368-0.653,10.755-1.309,16.321-1.986c0.486-1.626,1.241-2.977,1.24-4.327c-0.019-23.537-0.126-47.074-0.241-70.611
	c-0.003-0.709-0.304-1.416-0.511-2.325c-4.893-6.449-12.434-3.294-18.981-4.528c-1.972-5.372-0.692-10.635-1.132-16.729
	c10.639,0,20.716,0,30.951,0c2.622-8.784,0.265-17.109,1.801-25.778c4.722,0,9.41,0,14.549,0c4.13,7.542-0.36,16.324,2.044,24.743
	c3.528,0,6.808,0,10.286,0c3.51-8.018,0.171-16.499,2.248-24.948c4.771,0,9.459,0,14.666,0c1.86,8.397,0.297,16.687,1.497,24.958
	c4.798,1.118,9.446,2.152,14.064,3.301c2.108,0.524,4.177,1.223,6.234,1.928c16.008,5.488,20.7,20.964,17.019,33.933
	c-1.015,3.576-3.497,6.784-5.563,9.994C301.424,234.504,299.76,235.898,297.446,238.427z M242.195,283.688
	c3.151,0.307,5.938,0.847,8.712,0.787c4.576-0.099,9.181-0.324,13.702-0.99c3.985-0.587,8.012-1.475,11.768-2.897
	c6.079-2.3,9.81-6.565,10.046-13.546c0.25-7.385-4.4-10.769-10.19-13.209c-9.819-4.137-20.221-3.824-30.578-3.489
	c-1.072,0.035-2.118,0.862-3.461,1.445C242.195,262.351,242.195,272.65,242.195,283.688z M241.987,233.479
	c10.404,0.781,19.493,0.628,28.194-2.788c1.932-0.758,3.968-1.902,5.296-3.439c7.01-8.115,3.136-19.288-7.852-22.503
	c-7.907-2.313-16.015-3.185-25.061-2.076C241.247,212.846,242.279,222.981,241.987,233.479z"/>
</svg>
