<?xml version="1.0" encoding="utf-8"?>
<!-- Generator: Adobe Illustrator 24.2.0, SVG Export Plug-In . SVG Version: 6.00 Build 0)  -->
<svg version="1.1" id="Layer_1" xmlns="http://www.w3.org/2000/svg" xmlns:xlink="http://www.w3.org/1999/xlink" x="0px" y="0px"
	 viewBox="0 0 2000 2000" style="enable-background:new 0 0 2000 2000;" xml:space="preserve">
<path d="M265.1,981.3c-4.6,94.1,9.3,190.3,42.2,278.8l0,0c10.6,31.7,23.7,62.8,40.2,91.8c0,0-0.1-0.1-0.1-0.1c0,1.9,0.8,3.4,2.3,4.5
	c0,0,0,0.4,0,0.4c1.9,5,4.5,9.6,7.6,14c-0.1,0.3,0.1,0.6,0.4,0.6c3.5,8.1,8.1,15.6,13.4,22.7l-0.1,0.3c0.5,0.3,0.8,1,1.1,1.5l0,0
	c7.1,13,15,25.4,24.3,36.9c0,0-0.1-0.1-0.1-0.1c24,37.5,53.8,71.7,85.9,102.4c3.7,4.3,7.7,8.6,12.3,12.1c0.7,1,1.1,2.1,2.5,2.3
	c0.3,0.1,0.5,0.5,0.6,0.8l0.5,0.1c-0.1,0.4,0.1,0.6,0.5,0.7c0.5,0.5,0.7,1.4,1.5,1.4c0.4,1.4,1.2,2.3,2.8,2.5l-0.1,0
	c19.9,21.1,44.5,38.5,67.8,56.1c1.7,1.2,3.8,2.1,4.3,5.3c-184.5-0.2-369,0.4-553.4-0.3c0-402.5,0-804.9,0-1207.4
	c184.6-0.1,369.2,0.2,553.8,0c-70.5,55.1-139.7,117.8-187.4,195.4c0,0,0.1-0.1,0.1-0.1c-13.7,18.1-25.4,38.5-35.3,58.8l0,0
	c-8.1,12.3-14.4,25.4-19.6,39.1l0,0c-41.2,84.7-63.9,179.6-67.5,273.6c-1,1.7-0.8,3.5-0.2,5.3C264.8,980.6,264.8,981,265.1,981.3z
	 M1732.3,955.8c0.6,1.8,0.8,3.7,0.1,5.5c3.6,19.9,2.1,40.3,2,60.4c-0.2,13.3,1.3,26.7-2,39.9c0.7,1.2,0.5,2.5,0,3.7
	c0.5,0.6,0.5,1.3-0.1,1.9c-0.5,21-2.8,42.1-7.3,62.5c0.3,0.3,0.2,0.6,0,0.8c-7.1,47.1-18.6,94.2-36.7,138.3
	c-6.1,20.1-14.7,40-24.5,58.5l0,0c-5,12.8-11.4,24.9-18.6,36.6c0,1.1-0.3,1.9-1.3,2.5c-9.1,18-19.3,35.4-31.4,51.6
	c0,0,0.1-0.1,0.1-0.1c-16.5,27.1-35.9,52.6-57.4,75.9c0,0,0.1,0,0.1,0c-17.2,20.9-36.1,40.8-56.5,58.5l0,0c-0.4,1.3-1.1,2.2-2.5,2.4
	c-2.3,3-4.8,5.9-8.5,7.4l0,0c-13.9,14.8-30.4,26.6-46.6,38.7c-0.1,0.4-0.4,0.5-0.8,0.5c-4.1,3.9-8.5,7.4-13.7,9.9
	c0,0,0.1-0.1,0.1-0.1c-1.1,1.3-2.3,2.6-4.2,5c184.7-0.2,369.3,0.4,553.9-0.2c0-402.5,0-804.9,0-1207.4c-184.3,0-368.5,0-554.4,0
	C1599.4,533.4,1719,738.6,1732.3,955.8z M1009,1615.5c774.1-9.9,781.3-1211.1-20.3-1207C210.9,422.5,214.2,1620.2,1009,1615.5z
	 M1190.2,926.7c91,6.2,128.4,119.1,94.9,194.3c-26.1,62.1-94.2,83-152.1,104.9c5.1,36.5,16.5,71.7,25.6,108.2
	c-21.7,7.3-43.8,11.8-66.5,17c-10.4-35-17.5-70.3-27.5-105.4c-17.8,0.3-33.8,7.2-51.1,10.6c6.6,36.7,18.7,71.4,25.5,108.1
	c-21.1,7-43.3,9-65,16.8c-11.5-35.6-18.7-71.8-28-108.6c-44.2,8.8-87.7,19.8-131.8,31.8c-4.6-27.2-4.5-54.3-7.4-81.2
	c26.7-15.8,75.9-0.9,65.7-49.9c-12.5-49-25.9-97.8-37.5-147.1c-11.5-44.9-22.2-90-33.9-134.8c-11.8-45.7-61.6-18.2-92.3-11.8
	c-8.5-22.7-11.9-46.8-19.6-70.9c44-12.1,88.3-22.3,132.9-33.4c-9.1-36.2-18-71.6-26.9-107.4c21.9-6.9,44.1-10.8,66.3-17.4
	c9.5,34.8,18.1,69.6,26.2,105.3c16.6-4.3,32.8-7.8,49.5-13.2c-4.1-35.5-17.2-68.9-23.7-104.4c21.6-6.4,43-12,65.1-16.6
	c11.7,35.4,18.1,71.5,28.5,106.8c38.7-2.7,77.3-8.7,115.4,1.7c50.3,13.1,80.5,66.2,81.2,116c0.5,31.7-16.1,55.7-35.9,78.2
	C1175.4,925.1,1182.8,925.7,1190.2,926.7z M1023.7,1168.2c46.6-12.6,102.8-22.5,129.7-67.2c17-31.3,7.3-67.8-23.1-83.6
	c-55.7-24.8-117.5,1-172.9,15c14.8,47.3,23.8,95.5,36.9,143.1C1004.8,1172.9,1014.2,1170.5,1023.7,1168.2z M942.6,965.2
	c57.7-10,180.9-50.9,125.3-127.7c-40.1-45.6-108.8-15.1-158.4-3.2C919.4,878.9,930.3,922.1,942.6,965.2z"/>
</svg>
