<?xml version="1.0" encoding="iso-8859-1"?>
<!-- Generator: Adobe Illustrator 19.0.0, SVG Export Plug-In . SVG Version: 6.00 Build 0)  -->
<svg version="1.1" id="Layer_1" xmlns="http://www.w3.org/2000/svg" xmlns:xlink="http://www.w3.org/1999/xlink" x="0px" y="0px"
	 viewBox="0 0 500 500" style="enable-background:new 0 0 500 500;" xml:space="preserve">
<path id="XMLID_4_" d="M280.725,16.147c9.051,1.498,18.31,2.144,27.149,4.431c28.08,7.265,54.531,18.419,78.429,35.123
	c18.771,13.12,35.75,28.21,50.083,46.145c15.832,19.812,28.828,41.344,37.625,65.155c6.79,18.377,12.035,37.233,13.608,56.918
	c2.869,33.026,0.235,54.575,0.199,54.974c-1.197,13.144-4.225,25.887-7.661,38.612c-5.229,19.371-13.114,37.568-23.347,54.708
	c-13.659,22.878-30.26,43.266-50.802,60.556c-21.394,18.007-44.883,32.016-71.06,41.748c-17.87,6.644-36.127,11.407-55.151,13.105
	c-0.704,0.063-34.172,3.186-56.814-0.063c-9.083-1.303-18.308-2.163-27.155-4.432c-28.109-7.211-54.544-18.425-78.453-35.109
	c-17.496-12.209-33.184-26.342-47.054-42.666c-17.105-20.131-30.441-42.433-39.931-66.936c-7.297-18.84-12.557-38.308-14.319-58.6
	c-2.679-30.851-0.23-54.624-0.197-55.028c1.073-13.167,4.265-25.878,7.691-38.596c7.357-27.311,19.922-52.034,36.429-74.823
	C70.874,96.351,83.577,83.05,97.697,70.931c21.237-18.227,44.901-31.987,71.065-41.736c17.866-6.657,36.139-11.276,55.15-13.108
	C246.441,13.915,279.694,15.977,280.725,16.147z M324.753,243.269c2.696-0.859,4.984-1.729,7.343-2.315
	c11.882-2.955,20.917-9.851,27.902-19.744c11.703-16.577,13.075-34.597,7.342-53.486c-4.711-15.52-14.708-26.483-29.418-33.389
	c-12.479-5.858-25.823-8.13-39.259-8.305c-40.129-0.523-80.269-0.267-120.405-0.296c-1.771-0.001-3.543,0.177-5.992,0.307
	c0,11.893,0,23.256,0,34.619c0,11.424,0.052,22.848-0.015,34.271c-0.066,11.315,0.306,22.648-0.254,34.317
	c-21.329,0.189-41.851-0.094-62.371,0.204c0,13.461,0,25.954,0,38.95c3.857,0,7.214,0,10.571,0
	c54.957,0.005,109.914,0.009,164.871,0.019c3.087,0.001,6.188-0.117,9.259,0.116c10.964,0.832,20.685,4.541,25.99,14.764
	c9.388,18.094-1.256,41.228-17.526,45.422c-6.616,1.705-13.055,3.18-19.853,3.167c-17.907-0.034-35.813-0.031-53.72-0.088
	c-2.064-0.007-4.127-0.297-6.878-0.509c0-9.974,0-19.423,0-29.239c-16.929,0-33.119,0-49.606,0c0,23.389,0,46.384,0,69.459
	c1.324,0.204,2.206,0.469,3.083,0.455c42.228-0.676,84.486,1.699,126.692-1.296c18.125-1.286,34.819-6.71,49.737-17.171
	c7.946-5.572,13.957-12.78,18.258-21.591c5.309-10.879,6.115-22.359,5.655-34.107c-0.863-22.061-11.847-37.661-31.205-47.376
	C338.739,247.314,331.769,245.705,324.753,243.269z M225.456,229.181c21.224-0.113,42.502,1.326,63.638-1.439
	c5.997-0.785,11.978-2.387,16.939-6.51c10.439-8.676,12.931-19.527,9.81-34.221c-1.638-7.715-6.237-13.117-13.319-16.639
	c-7.844-3.9-16.12-5.618-24.798-5.642c-16.345-0.045-32.689-0.046-49.034-0.036c-1.804,0.001-3.608,0.198-5.791,0.327
	c0,21.133,0,41.894,0,62.781C224.391,228.629,224.925,229.184,225.456,229.181z"/>
</svg>
