<?xml version="1.0" encoding="iso-8859-1"?>
<!-- Generator: Adobe Illustrator 19.0.0, SVG Export Plug-In . SVG Version: 6.00 Build 0)  -->
<svg version="1.1" id="Layer_1" xmlns="http://www.w3.org/2000/svg" xmlns:xlink="http://www.w3.org/1999/xlink" x="0px" y="0px"
	 viewBox="0 0 500 500" style="enable-background:new 0 0 500 500;" xml:space="preserve">
<path d="M211.159,364.314c-11.878-6.873-23.281-13.471-35.117-20.319c-10.071,12.644-22.398,19.979-38.433,19.731
	c-16.016-0.247-28.268-7.6-38.259-20.672c-3.455,1.922-7.005,3.897-10.836,6.029c0.197,1.648,0.229,3.168,0.576,4.612
	c2.058,8.548-0.95,15.375-7.334,20.834c-6.851,5.858-14.658,6.384-22.598,2.655c-7.436-3.492-11.276-9.593-11.803-17.91
	c-0.595-9.393,3.334-16.421,11.493-20.421c7.759-3.804,15.657-3.014,22.711,2.501c1.427,1.116,2.83,2.262,4.4,3.518
	c3.401-1.929,6.755-3.83,10.451-5.926c-2.573-9.833-6.013-19.23-3.594-29.704c2.377-10.292,6.81-19.011,14.515-26.054
	c7.7-7.038,17.187-10.346,27.502-11.499c0-13.882,0-26.869,0-40.403c-2.778-0.712-5.723-1.51-8.688-2.221
	c-16.677-3.999-29.959-18.774-33.244-35.614c-1.991-10.207,0.129-19.531,3.796-29.675c-3.483-2.115-6.971-4.233-10.71-6.504
	c-5.108,5.098-11.1,8.855-18.468,8.675c-4.953-0.121-9.68-2.079-13.496-5.478c-8.675-7.728-7.916-21.393-3.455-27.913
	c5.739-8.389,16.371-11.922,26.083-8.037c10.328,4.132,14.522,14.008,11.811,28.523c3.35,1.992,6.845,4.069,10.717,6.371
	c9.843-13.218,22.496-20.857,38.564-20.936c16.115-0.079,29.025,7.144,38.821,20.764c12.004-6.929,23.607-13.626,35.164-20.296
	c-14.05-34.268,7.259-63.725,38.68-67.025c1.273-3.931,0.511-8.054,0.551-12.494c-1.661-0.637-3.298-1.283-4.949-1.894
	c-8.8-3.256-15.198-11.12-13.841-22.679c1.084-9.237,7.758-16.574,17.461-18.511c9.476-1.891,19.8,4.204,23.617,13.943
	c3.543,9.042,0.318,19.65-7.791,24.718c-2.804,1.752-6.016,2.854-9.342,4.392c0,3.894,0,7.99,0,12.533
	c17.413,2.113,30.888,10.42,38.645,26.415c6.522,13.447,6.104,27.103-1.027,41.224c11.205,7.242,23.177,13.355,35.222,20.686
	c9.152-13.41,21.832-21.429,38.172-21.78c16.454-0.354,29.515,7.146,39.57,20.474c4.061-1.611,7.778-3.161,10.769-6.126
	c-0.159-2.96-0.313-5.812-0.464-8.663c-0.532-10.079,6.311-18.119,15.681-20.547c8.735-2.263,18.765,1.605,23.549,9.642
	c8.322,13.98-0.548,31.361-17.292,32.637c-4.605,0.351-9.305-1.028-13.109-4.166c-1.606-1.325-3.135-2.743-4.894-4.29
	c-1.997,1.004-4.102,1.971-6.114,3.102c-1.788,1.005-3.474,2.193-5.164,3.274c12.376,28.349-0.545,62.45-40.509,67.657
	c0,12.916,0,25.877,0,39.365c2.87,0.659,5.819,1.464,8.816,2.004c21.597,3.891,36.605,24.866,36.248,43.902
	c-0.14,7.466-1.636,14.377-4.767,21.676c3.649,2.196,7.367,4.434,10.973,6.605c11.321-9.638,22.319-10.866,31.22-3.725
	c7.829,6.281,9.878,17.78,5.016,26.819c-4.222,7.85-15.416,14.17-26.043,9.901c-11.102-4.46-15.298-13.067-12.694-28.725
	c-3.322-1.961-6.837-4.035-10.848-6.403c-9.787,12.753-22.014,20.774-38.412,20.846c-16.366,0.072-28.892-7.205-39.034-20.695
	c-11.513,6.622-23.118,13.298-35.264,20.284c6.782,14.916,6.94,29.597-1.19,43.574c-8.084,13.899-20.454,21.735-36.933,23.23
	c0,4.336,0,8.405,0,12.984c6.874,2.165,13.314,5.524,16.526,12.69c1.941,4.33,2.687,8.921,1.415,13.707
	c-3.166,11.912-13.615,16.927-22.62,16.508c-6.982-0.325-17.261-6.681-19.073-15.866c-2.629-13.325,2.281-20.715,18.325-27.518
	c0-3.73,0-7.573,0-11.619c-1.021-0.483-1.9-1.217-2.833-1.295c-27.764-2.315-48.282-31.236-38.198-60.748
	C210.192,367.754,210.511,366.509,211.159,364.314z M213.703,360.058c10.146-14.068,22.669-21.558,39.445-21.7
	c16.841-0.143,29.108,7.964,38.97,20.679c11.912-6.935,23.282-13.554,34.542-20.11c-12.708-32.943,4.85-62.558,36.945-67.64
	c0-13.4,0-26.838,0-40.53c-15.447-2.634-27.724-9.786-35.395-23.389c-7.769-13.777-7.83-28.142-1.558-42.834
	c-11.971-6.909-23.571-13.603-35.423-20.443c-9.89,13.709-23.178,20.448-39.128,20.162c-15.862-0.284-28.62-7.908-37.871-21.105
	c-12.023,7.209-23.947,13.369-35.08,20.567c0.517,1.284,0.699,1.768,0.905,2.242c13.33,30.704-8.402,59.798-32.429,63.483
	c-2.504,0.384-4.934,1.251-7.698,1.971c-0.035,13.373-0.078,26.55,0.018,39.607c33.258,3.942,53.705,34.083,39.025,68.94
	C190.279,346.503,201.673,353.096,213.703,360.058z M160.443,184.878c0.054-12.84-9.799-23.024-22.36-23.111
	c-12.028-0.083-23.076,10.947-22.963,22.929c0.118,12.491,10.456,22.133,23.153,22.563
	C149.358,207.634,161.49,196.181,160.443,184.878z M160.449,317.809c0.019-12.787-9.964-22.964-22.524-22.962
	c-12.021,0.003-23.038,11.161-22.799,23.094c0.252,12.568,10.541,22.028,23.304,22.415
	C148.869,340.673,161.49,329.776,160.449,317.809z M252.996,95.715c-12.493-0.851-22.883,11.342-22.326,22.805
	c0.614,12.622,10.737,23.347,23.103,22.358c13.642-1.091,21.52-10.265,22.183-22.802C276.604,105.787,265.753,95.658,252.996,95.715
	z M252.914,361.911c-12.108-0.881-22.836,11.049-22.239,22.877c0.621,12.306,9.941,22.615,22.407,22.238
	c13.253-0.4,22.228-9.448,22.871-22.842C276.544,371.86,265.701,361.835,252.914,361.911z M390.724,184.673
	c0.837-11.074-8.732-23.001-22.517-22.766c-13.249,0.226-22.446,10.32-22.678,23c-0.222,12.086,10.399,21.664,22.467,22.379
	C378.079,207.884,391.548,197.891,390.724,184.673z M390.708,318.276c1.052-11.201-8.175-23.047-21.998-23.28
	c-11.951-0.201-22.907,8.539-23.069,22.494c-0.153,13.131,9.593,21.957,21.85,22.831
	C379.851,341.204,391.563,329.255,390.708,318.276z M253.223,318.732c-37.628,1.054-67.646-31.252-67.948-67.325
	c-0.306-36.623,31.821-68.228,67.476-68.086c33.77,0.135,68.053,25.712,68.285,67.93
	C321.246,289.474,290.224,319.363,253.223,318.732z M253.072,229.055c-12.537,0.039-22.199,9.66-22.189,22.097
	c0.01,12.729,9.313,21.84,22.101,22.163c11.482,0.291,22.077-7.898,22.79-21.779C276.425,238.84,266.038,229.015,253.072,229.055z"
	/>
</svg>
