<?xml version="1.0" encoding="iso-8859-1"?>
<!-- Generator: Adobe Illustrator 19.0.0, SVG Export Plug-In . SVG Version: 6.00 Build 0)  -->
<svg version="1.1" id="Layer_1" xmlns="http://www.w3.org/2000/svg" xmlns:xlink="http://www.w3.org/1999/xlink" x="0px" y="0px"
	 viewBox="0 0 500 500" enable-background="new 0 0 500 500" xml:space="preserve">
<path d="M170.949,474.366c-7.537-3.93-14.637-7.42-21.525-11.288c-6.126-3.44-12.121-7.14-17.986-11.009
	c-8.395-5.537-16.279-11.734-23.884-18.357c-6.426-5.597-12.268-11.711-18.182-17.794C79.2,405.456,70.61,393.793,62.622,381.618
	c-12.713-19.376-22.075-40.294-28.789-62.388c-2.676-8.807-4.634-17.854-6.485-26.88c-1.108-5.406-1.411-10.98-2.013-16.486
	c-0.621-5.678-1.523-11.357-1.654-17.05c-0.16-6.938-0.996-13.933,0.563-20.84c0.132-0.586,0.132-1.205,0.166-1.81
	c0.31-5.559,0.468-11.131,0.967-16.673c0.389-4.308,0.943-8.635,1.881-12.852c1.905-8.561,3.665-17.149,6.147-25.592
	c2.52-8.573,5.232-17.066,8.825-25.222c3.86-8.764,7.895-17.482,12.434-25.908c5.173-9.603,11.12-18.773,17.921-27.346
	c3.997-5.038,7.743-10.305,12.057-15.055c6.158-6.779,12.411-13.535,19.207-19.654c9.714-8.746,20.016-16.824,31.027-23.943
	c10.055-6.501,20.46-12.408,31.322-17.402c14.211-6.533,28.948-11.767,44.159-15.429c7.071-1.702,14.221-3.193,21.501-4.065
	c5.35-0.641,10.712-1.166,16.047-1.825c12.268-1.515,24.53-0.492,36.786-0.673c4.451-0.066,8.915,1.081,13.381,1.606
	c2.668,0.313,5.338,0.522,8.008,0.893c11.684,1.624,23.087,4.341,34.375,7.679c11.616,3.435,22.853,7.932,33.788,13.026
	c8.64,4.025,16.819,9.07,25.065,13.898c4.633,2.713,8.985,5.906,13.862,9.148c-5.182,8.583-11.72,16.026-17.465,24.02
	c-5.954,8.287-12.123,16.419-18.191,24.624c-6.064,8.2-12.121,16.405-18.179,24.61c-6.056,8.203-12.13,16.393-18.159,24.616
	c-6.027,8.22-12.009,16.472-18.209,24.983c-29.605-19.244-60.61-22.908-92.853-8.785c-19.92,8.725-34.654,23.412-44.485,42.872
	c-22.991,45.51-5.191,102.329,44.808,126.494C210.707,380.698,190.972,427.191,170.949,474.366z M268.742,353.774
	c0,1.343-0.019,2.526,0.003,3.708c0.172,9.388,0.022,18.762,0.637,28.164c1.097,16.787-0.288,33.639,0.998,50.467
	c0.716,9.363,0.047,18.825,0.218,28.238c0.177,9.744,0.612,19.483,0.952,29.224c0.009,0.272,0.216,0.537,0.343,0.833
	c29.453-0.253,57.909-5.656,85.312-16.274c0.323-4.132-1.775-7.246-2.947-10.57c-1.485-4.21-3.567-8.206-5.257-12.348
	c-4.177-10.238-8.26-20.515-12.419-30.762c-1.832-4.515-4.072-8.943-5.589-13.488c-2.044-6.125-5.079-11.799-7.067-17.937
	c-2.147-6.628-5.178-12.968-7.821-19.435c-1.521-3.722-2.723-7.623-4.679-11.099c-1.129-2.005-1.698-4.11-2.468-6.168
	c-1.08-2.886-1.794-5.909-2.95-9.848C293.696,351.379,281.442,352.828,268.742,353.774z M186.735,480.347
	c11.04,3.963,22.329,6.95,33.85,9.242c7.913,1.574,15.804,2.99,23.854,3.506c0.889,0.057,1.759,0.37,2.644,0.526
	c3.727,0.655,7.427,0.479,11.167,0.074c0.215-1.009,0.435-1.58,0.446-2.155c0.244-12.423-0.291-24.842,0.825-37.273
	c0.957-10.665,0.067-21.401,0.774-32.149c1.013-15.404-0.144-30.919,1.105-46.367c0.329-4.074-0.099-8.204,0.092-12.295
	c0.188-4.04-0.192-8.055,0.418-12.153c0.427-2.869,1.337-6.063,0.091-9.296c-4.696-0.85-9.542-1.537-14.291-2.642
	c-4.725-1.099-9.352-2.617-14.135-3.984c-19.889,46.675-39.709,93.188-59.694,140.088
	C178.423,477.198,182.552,478.846,186.735,480.347z M414.689,425.252c-2.765-3.193-5.635-6.295-8.403-9.485
	c-3.259-3.756-6.425-7.593-9.693-11.342c-2.768-3.175-5.68-6.226-8.428-9.418c-5.099-5.92-10.105-11.918-15.187-17.853
	c-5.662-6.612-11.356-13.197-17.062-19.771c-0.557-0.642-1.296-1.127-1.936-1.673c-9.185,7.546-19.315,13.196-30.048,18.746
	c3.53,3.648,3.292,8.766,6.704,12.016c0.069,4.901,4,8.155,5.377,12.611c1.295,4.188,4.011,7.944,5.58,12.197
	c1.519,4.115,3.968,7.877,5.825,11.88c1.906,4.109,3.22,8.534,5.47,12.43c2.302,3.985,4.203,8.125,6.155,12.258
	c1.93,4.087,3.812,8.197,5.684,12.311c1.83,4.02,3.621,8.057,5.386,11.988c9.689-2.15,45.414-24.388,55.337-34.286
	C421.87,433.66,418.309,429.431,414.689,425.252z M371.498,359.732c-0.788,0.828-1.894,1.353-2.646,1.875
	c4.606,5.107,8.536,9.704,12.72,14.057c10.813,11.249,21.736,22.392,32.62,33.572c1.482,1.522,3.248,2.837,4.45,4.551
	c4.381,6.252,10.589,10.692,15.717,16.637c13.308-11.686,24.131-25.173,34.602-38.971c0.319-0.421,0.263-1.126,0.419-1.881
	c-24.984-16.688-49.912-33.34-74.847-49.982c-0.366-0.244-0.81-0.376-1.228-0.533c-0.133-0.05-0.3-0.017-0.45-0.008
	c-0.149,0.009-0.298,0.035-0.793,0.097c-1.633,1.558-2.079,5.144-5.452,4.477C381.455,349.136,376.512,354.467,371.498,359.732z
	 M414.79,76.189c-4.889,5.077-9.178,10.732-13.746,16.12c-6.827,8.052-13.611,16.141-20.53,24.114
	c-5.241,6.04-10.67,11.917-16.002,17.879c-2.315,2.588-4.643,5.168-6.885,7.819c-4.661,5.51-9.201,11.123-13.918,16.584
	c-5.036,5.829-10.23,11.521-15.316,17.308c-0.349,0.397-0.374,1.08-0.576,1.709c1.162,0.912,2.205,1.729,3.414,2.678
	c1.284-1.551,2.44-3.121,3.771-4.525c7.715-8.138,15.48-16.227,23.21-24.351c5.219-5.485,10.389-11.017,15.614-16.497
	c7.008-7.351,14.039-14.68,21.075-22.005c7.822-8.143,15.677-16.255,23.485-24.411c5.142-5.371,10.228-10.798,15.099-15.945
	c-2.635-2.802-5.116-5.442-7.981-8.489C421.848,68.542,418.406,72.434,414.79,76.189z M343.343,194.106
	c1.045,1.26,1.777,2.142,2.621,3.16c43.831-24.659,87.246-49.084,130.723-73.543c-2.116-3.263-3.979-6.136-6.052-9.333
	C427.9,141.152,385.685,167.589,343.343,194.106z"/>
</svg>
