<?xml version="1.0" encoding="iso-8859-1"?>
<!-- Generator: Adobe Illustrator 19.0.0, SVG Export Plug-In . SVG Version: 6.00 Build 0)  -->
<svg version="1.1" id="Layer_1" xmlns="http://www.w3.org/2000/svg" xmlns:xlink="http://www.w3.org/1999/xlink" x="0px" y="0px"
	 viewBox="0 0 500 500" enable-background="new 0 0 500 500" xml:space="preserve">
<path d="M435.393,9.92c0.163,1.969,0.413,3.577,0.413,5.186c0.014,116.236-0.005,232.473,0.067,348.709
	c0.002,3.534-1.002,5.838-4.02,7.829c-28.014,18.472-55.957,37.051-83.891,55.643c-26.25,17.47-52.483,34.966-78.679,52.517
	c-5.358,3.59-10.459,7.566-15.832,11.132c-0.942,0.625-3.017,0.64-3.95,0.015c-14.731-9.877-29.291-20.011-44.03-29.876
	c-28.016-18.753-56.119-37.376-84.19-56.047c-16.185-10.765-32.307-21.628-48.619-32.198c-4.093-2.652-5.59-5.624-5.583-10.562
	c0.145-115.571,0.107-231.142,0.122-346.714c0-1.767,0.24-3.534,0.391-5.634C190.371,9.92,312.661,9.92,435.393,9.92z
	 M159.094,192.501c0.201-2.674,0.494-4.778,0.496-6.883c0.029-23.946,0.017-47.893,0.01-71.839
	c-0.003-9.156,3.03-12.206,12.22-12.207c29.768-0.003,59.536-0.107,89.303,0.082c7.451,0.047,14.995,0.472,22.327,1.718
	c22.153,3.763,39.411,14.972,49.07,35.7c8.53,18.304,9.429,37.047-1.241,54.971c-3.505,5.889-8.628,10.815-13.463,16.734
	c0.962,1.018,2.172,2.489,3.571,3.75c7.355,6.633,13.915,13.967,17.566,23.268c15.342,39.086-9.561,90.508-60.608,92.371
	c-36.04,1.316-72.161,0.47-108.245,0.492c-7.185,0.004-10.492-3.601-10.496-10.899c-0.014-26.275,0.019-52.551-0.025-78.826
	c-0.004-2.219-0.439-4.438-0.671-6.629c-17.102,0-33.459,0-50.472,0c-0.199,2.673-0.51,4.918-0.512,7.164
	c-0.03,32.761,0.112,65.523-0.148,98.282c-0.043,5.399,1.897,8.458,6.215,11.313c44.35,29.326,88.614,58.782,132.817,88.329
	c3.466,2.317,5.95,2.241,9.387-0.08c20.783-14.038,41.718-27.852,62.61-41.729c23.802-15.81,47.606-31.618,71.427-47.401
	c3.103-2.056,4.834-4.484,4.829-8.553c-0.101-94.625-0.075-189.25-0.11-283.874c-0.001-1.906-0.436-3.812-0.691-5.902
	c-95.498,0-190.466,0-285.853,0c-0.199,2.282-0.489,4.059-0.49,5.835c-0.026,43.072-0.027,86.143-0.017,129.215
	c0.001,5.213,0.775,6.01,6.117,6.027c13.304,0.042,26.608,0.025,39.912-0.004C155.39,192.923,156.851,192.693,159.094,192.501z
	 M204.211,289.342c2.164,0.166,3.783,0.395,5.401,0.397c18.267,0.019,36.535,0.092,54.801-0.069
	c4.454-0.039,8.976-0.511,13.336-1.416c10.45-2.169,17.872-8.251,20.429-18.783c2.546-10.491,0.547-20.148-7.869-27.738
	c-6.849-6.177-15.303-7.76-24.064-7.841c-19.096-0.176-38.195-0.077-57.292-0.054c-1.437,0.002-2.874,0.285-4.741,0.483
	C204.211,252.78,204.211,270.869,204.211,289.342z M204.813,142.898c-1.83,5.49-1.546,45.598,0.319,49.676
	c1.263,0.111,2.722,0.351,4.182,0.352c18.11,0.015,36.222,0.122,54.329-0.104c4.602-0.057,9.273-0.849,13.768-1.915
	c10.06-2.385,16.393-10.122,17.004-20.143c0.805-13.211-3.779-21.663-14.659-25.289c-5.113-1.704-10.688-2.677-16.077-2.784
	c-18.27-0.361-36.55-0.195-54.826-0.199C207.555,142.494,206.257,142.747,204.813,142.898z"/>
</svg>
