<?xml version="1.0" encoding="iso-8859-1"?>
<!-- Generator: Adobe Illustrator 19.0.0, SVG Export Plug-In . SVG Version: 6.00 Build 0)  -->
<svg version="1.1" id="Layer_1" xmlns="http://www.w3.org/2000/svg" xmlns:xlink="http://www.w3.org/1999/xlink" x="0px" y="0px"
	 viewBox="0 0 2000 2000" style="enable-background:new 0 0 2000 2000;" xml:space="preserve">
<path d="M1979.445,997.804c2.27,538.411-441.26,979.954-981.357,977.864C465.06,1973.605,22.54,1541.262,22.554,996.251
	c0.014-541.113,439.853-979.557,981.932-977.853C1548.481,20.108,1981.667,463.564,1979.445,997.804z M1912.454,998.18
	c0.466-504.176-406.281-912.042-909.984-912.488C498.544,85.247,90.334,492.386,89.954,995.815
	c-0.381,504.21,406.51,911.403,910.151,912.563C1505.904,1909.543,1914.006,1496.319,1912.454,998.18z M1197.753,455.121
	c0.108,244.565,0.241,489.13,0.28,733.696c0.003,17.924,0.476,35.956-1.204,53.755c-10.793,114.371-123.396,196.653-234.578,171.87
	c-85.43-19.043-149.284-92.699-155.553-179.434c-6.041-83.576,46.864-165.095,126.907-195.544
	c82.386-31.34,172.043-4.516,226.565,67.607c5.827,7.707,12.509,14.768,20.382,23.988c0-82.719,0-160.566,0-236.718
	c-79.315-52.261-177.814-55.83-247.634-41.123c-151.631,31.94-254.765,123.338-293.439,274.602
	c-39.037,152.684,3.645,286.034,126.369,385.617c122.691,99.556,262.08,113.532,403.475,44.665
	c138.446-67.43,207.083-185.61,210.263-338.269c3.259-156.455,0.734-313.03,0.739-469.552c0.002-56.993,0-113.985,0-163.048
	c-62.816-64.104-120.716-123.192-182.575-186.32C1197.752,422.637,1197.745,438.879,1197.753,455.121z M1153.675,833.513
	c-101.748-38.443-203.558-38.207-305.252,0.41c-13.073,4.964-26.087,10.084-44.952,17.385c0-151.535,0-298.157,0-448.62
	c-60.297,60.998-116.226,117.576-173.828,175.848c0,167.466,0,338.127,0,514.105c81.389-201.429,296.877-328.679,551.077-222.593
	C1174.015,841.836,1174.225,841.278,1153.675,833.513z"/>
</svg>
