<?xml version="1.0" encoding="iso-8859-1"?>
<!-- Generator: Adobe Illustrator 19.0.0, SVG Export Plug-In . SVG Version: 6.00 Build 0)  -->
<svg version="1.1" id="Layer_1" xmlns="http://www.w3.org/2000/svg" xmlns:xlink="http://www.w3.org/1999/xlink" x="0px" y="0px"
	 viewBox="0 0 500 500" enable-background="new 0 0 500 500" xml:space="preserve">
<path d="M300.522,304.192c0-36.332,0-71.82,0-110.077c-49.977,28.84-98.001,56.553-146.593,84.593c0,36.44,0,72.926,0,110.47
	c-15.296,8.838-30.504,17.624-47.43,27.404c0-56.329,0-110.734,0-166.298c63.959-37.3,128.574-74.982,194.264-113.291
	c64.754,37.727,129.72,75.577,195.237,113.749c0,54.611,0,109.176,0,166.272C430.037,378.943,365.476,341.681,300.522,304.192z
	 M4.788,193.951c0,56.274,0,111.504,0,167.698c14.997,8.593,30.218,17.314,47.765,27.368c0-57.063,0-111.538,0-165.615
	c65.681-38.342,130.013-75.897,196.248-114.562c-17.561-10.109-32.851-18.911-48.387-27.854
	C134.801,118.875,69.681,156.479,4.788,193.951z"/>
</svg>
