<?xml version="1.0" encoding="iso-8859-1"?>
<!-- Generator: Adobe Illustrator 19.0.0, SVG Export Plug-In . SVG Version: 6.00 Build 0)  -->
<svg version="1.1" id="Layer_1" xmlns="http://www.w3.org/2000/svg" xmlns:xlink="http://www.w3.org/1999/xlink" x="0px" y="0px"
	 viewBox="0 0 2000 2000" style="enable-background:new 0 0 2000 2000;" xml:space="preserve">
<path d="M161.772,497.581c-7.205-4.289-13.99-8.186-20.636-12.308C54.365,431.465,7.733,329.651,24.473,230.64
	c17.491-103.453,93.231-183.143,193.444-207.37c107.546-26,227.434,27.719,279.353,127.921c3.679,7.1,6.544,7.805,13.34,3.842
	C631.7,84.422,762.085,41.484,901.507,27.948c209.537-20.344,406.775,20.653,589.033,126.504
	c203.923,118.434,346.913,289.605,429.251,510.363c52.286,140.185,70.445,285.416,55.287,434.566
	c-17.144,168.694-72.706,323.553-170.156,462.315c-139.241,198.269-326.661,328.637-561.107,390.394
	c-95.759,25.224-193.555,35.602-292.348,29.604c-248.352-15.077-462.607-109.033-640.12-283.767
	c-129.132-127.11-215.036-279.75-259.371-455.338c-34.447-136.428-39.439-274.16-14.458-412.879
	c20.789-115.44,60.899-223.613,120.366-324.664C159.182,502.841,160.257,500.506,161.772,497.581z M998.944,518.25
	c-262.273,0.057-474.968,213.355-474.587,475.931c0.381,262.527,211.789,474.176,474.51,475.053
	c261.529,0.873,474.963-212.69,475.155-475.442C1474.215,731.386,1261.229,518.193,998.944,518.25z"/>
</svg>
