<?xml version="1.0" encoding="iso-8859-1"?>
<!-- Generator: Adobe Illustrator 19.0.0, SVG Export Plug-In . SVG Version: 6.00 Build 0)  -->
<svg version="1.1" id="Layer_1" xmlns="http://www.w3.org/2000/svg" xmlns:xlink="http://www.w3.org/1999/xlink" x="0px" y="0px"
	 viewBox="0 0 500 500" enable-background="new 0 0 500 500" xml:space="preserve">
<path d="M8.106,309.319c0-38.62,0.281-77.244-0.102-115.86c-0.244-24.599,9.975-43.094,30.16-56.55
	C96.033,98.33,153.794,59.59,211.795,21.211c33.4-22.101,52.653-15.448,81.361,3.181c49.398,32.056,97.774,65.693,146.419,98.901
	c21.12,14.418,45.663,26.023,49.739,55.731c0.508,3.701,1.064,7.438,1.067,11.158c0.061,78.811,0.064,157.622,0.039,236.433
	c-0.012,38.983-29.641,67.695-68.19,63.494c-40.962-4.463-78.198-19.013-97.126-58.692c-9.63-20.188-14.618-43.361-17.179-65.703
	c-0.814-7.096,12.375-16.523,20.207-23.743c19.552-18.022,25.862-66.53,13.626-89.911c-18.707-35.745-47.948-49.494-86.784-47.999
	c-20.811,0.801-41.679,0.092-62.52,0.159c-18.278,0.058-33.452,15.252-33.611,33.658c-0.654,75.595-1.272,151.19-1.887,226.785
	c-0.065,8.054,0.026,16.11-0.127,24.161c-0.01,0.519-1.507,1.459-2.302,1.449c-32.865-0.449-65.952,1.193-98.524-2.163
	c-28.645-2.951-47.848-29.314-47.884-58.219C8.069,389.7,8.106,349.51,8.106,309.319z"/>
</svg>
