<?xml version="1.0" encoding="iso-8859-1"?>
<!-- Generator: Adobe Illustrator 19.0.0, SVG Export Plug-In . SVG Version: 6.00 Build 0)  -->
<svg version="1.1" id="Layer_1" xmlns="http://www.w3.org/2000/svg" xmlns:xlink="http://www.w3.org/1999/xlink" x="0px" y="0px"
	 viewBox="0 0 2000 2000" style="enable-background:new 0 0 2000 2000;" xml:space="preserve">
<path d="M809.944,1872.642c4.916-16.17,13.924-24.064,32.213-28.578c21.747-5.368,44.503-16.526,60.451-31.818
	c9.635-9.239,9.556-31.065,9.744-47.283c0.905-78.384,0.376-156.784,0.435-235.178c0.252-335.841,0.608-671.683,0.754-1007.524
	c0.045-103.217-0.865-206.437-0.347-309.651c0.096-19.145,2.051-39.26,8.238-57.17c9.902-28.662,30.515-49.142,62.61-50.739
	c23.187-1.153,47.372-1.371,69.739,3.862c57.989,13.567,114.858,31.929,172.852,45.469c61.955,14.464,124.801,25.065,187.044,38.356
	c50.565,10.797,100.924,22.618,151.177,34.799c94.333,22.866,188.327,47.17,282.887,69.037c30.309,7.009,59.214,14.588,87.91,28.055
	c34.117,16.012,45.897,41.511,45.983,74.194c0.454,172.411-0.953,344.827-0.44,517.238c0.525,176.347,2.725,352.688,3.714,529.034
	c0.205,36.506-4.588,72.339-22.078,105.442c-12.086,22.876-29.071,37.691-54.972,45.033
	c-95.088,26.952-189.545,56.122-284.532,83.441c-141.932,40.821-284.171,80.572-426.164,121.183
	c-92.528,26.464-184.847,53.657-277.268,80.496C889.372,1889.204,835.431,1885.409,809.944,1872.642z M1347.416,465.486
	c0.86-47.997-7.148-92.624-31.165-134.391c-14.805-25.746-34.052-39.861-65.061-40.029c-31.795-0.172-49.915,16.252-64.542,41.526
	c-28.048,48.465-30.029,100.41-24.036,154.195c4.551,40.842,24.258,73.424,52.356,101.34c16.127,16.023,57.224,19.766,72.916,6.231
	c18.364-15.839,37.947-31.835,43.72-57.665C1336.908,512.964,1342.148,489.222,1347.416,465.486z M1344.899,1458.969
	c0.69-25.985-3.726-66.057-25.913-100.946c-16.111-25.334-36.101-47.926-71.039-46.462c-31.591,1.324-49.069,21.902-61.347,46.854
	c-39.531,80.337-35.623,157.613,19.398,230.391c31.729,41.968,73.095,42.615,105.802,1.916
	C1339.519,1556.229,1344.668,1515.653,1344.899,1458.969z M1872.323,580.882c-4.908-19.716-8.985-42.336-16.396-63.806
	c-5.502-15.94-15.474-30.897-36.133-29.05c-21.393,1.912-31.104,18.501-35.801,35.949c-4.993,18.547-8.853,38.75-6.766,57.514
	c2.655,23.861,10.403,47.501,18.627,70.271c5.153,14.267,19.534,24.392,34.101,19.34c11.832-4.103,25.143-15.238,29.68-26.519
	C1867.085,626.058,1867.958,604.89,1872.323,580.882z M1874.658,1340.188c-8.194-27.733-12.937-55.854-24.785-80.57
	c-12.378-25.822-39.37-25.218-55.984-1.908c-4.42,6.202-9.682,13.608-9.964,20.645c-1.243,31.035-3.019,62.355,0.004,93.119
	c1.401,14.259,11.187,29.325,20.991,40.746c15.043,17.523,38.303,15.66,48.412-4.837
	C1863.276,1387.225,1867.343,1364.168,1874.658,1340.188z M621.428,1501.029c4.476,49.221,21.696,93.049,59.601,126.093
	c8.846,7.712,22.321,11.695,34.31,13.908c29.975,5.533,51.326-7.876,69.629-31.761c48.509-63.3,56.6-135.891,45.741-210.485
	c-5.883-40.411-22.605-79.54-54.668-109.067c-25.034-23.053-65.429-26.469-91.649-0.172c-16.018,16.064-28.561,36.288-39.825,56.247
	c-20.919,37.068-26.115,77.995-23.295,126.95C621.271,1477.574,620.37,1489.39,621.428,1501.029z M662.976,601.234
	c31.318,40.406,88.163,47.49,122.95-3.632c58.732-86.311,59.149-177.12,19.49-270.059c-10.022-23.487-23.229-47.407-49.762-56.97
	c-36.739-13.241-73.437-0.268-94.246,34.748c-26.672,44.882-47.35,92.07-40.162,140.029
	C621.144,517.997,633.164,562.771,662.976,601.234z M283.935,965.064c1.475,44.365,19.535,82.054,46.537,116.39
	c13.858,17.621,33.029,23.263,51.907,17.037c13.387-4.415,25.974-16.722,34.777-28.581c30.381-40.928,41.652-89.771,43.189-138.841
	c1.83-58.42-1.987-117.306-42.168-166.463c-23.955-29.307-53.502-33.489-79.825-7.5c-9.072,8.956-16.393,20.135-22.765,31.297
	c-24.298,42.563-36.777,88.078-31.719,131.039C283.868,938.97,283.502,952.03,283.935,965.064z M125.941,1230.78
	c-6.136-18.068-16.738-35.46-40.243-36.821c-22.229-1.288-32.098,14.584-40.257,30.497c-33.721,65.768-36.353,132.516-4.791,200.217
	c20.461,43.889,56.123,32.86,73.547,3.66c20.506-34.366,31.478-70.736,33.703-112.335
	C140.781,1287.524,135.347,1258.477,125.941,1230.78z M123.599,499.449c-6.323-16.671-18.615-28.099-37.629-29.459
	c-17.896-1.28-28.777,9.679-37.75,23.034c-20.871,31.061-27.646,67.293-29.841,102.905c-2.372,38.488,6.147,77.363,26.469,110.782
	c20.315,33.409,45.201,32.599,65.613,0.517c21.955-34.507,34.8-71.886,31.863-118.048
	C148.145,559.925,135.077,529.711,123.599,499.449z"/>
</svg>
