<?xml version="1.0" encoding="iso-8859-1"?>
<!-- Generator: Adobe Illustrator 19.0.0, SVG Export Plug-In . SVG Version: 6.00 Build 0)  -->
<svg version="1.1" id="Layer_1" xmlns="http://www.w3.org/2000/svg" xmlns:xlink="http://www.w3.org/1999/xlink" x="0px" y="0px"
	 viewBox="0 0 2000 2000" style="enable-background:new 0 0 2000 2000;" xml:space="preserve">
<path d="M1002.176,15.622c520.923-5.258,983.286,416.379,983.33,981.953c0.043,552.074-442.961,982.629-982.94,983.234
	C455.503,1981.421,8.762,1534.06,19.161,977.313C29.072,446.654,465.922,11.899,1002.176,15.622z M798.607,1586.898
	c6.077,0.473,9.261,0.937,12.444,0.938c156.334,0.051,312.669,0.228,469.002-0.163c16.722-0.042,33.818-1.758,50.097-5.5
	c249.417-57.337,337.033-352.062,179.071-536.137c-14.935-17.404-32.398-32.64-48.653-48.849
	c86.11-72.308,129.018-161.668,127.27-273.396c-2.718-173.773-154.848-318.742-321.088-317.499
	c-149.069,1.115-298.154,0.221-447.232,0.324c-6.881,0.005-13.761,1.085-20.558,1.658c0,44.717,0,87.011,0,130.142
	c7.082,0.491,12.578,1.197,18.076,1.206c145.855,0.215,291.711,0.257,437.566,0.671c14.422,0.041,29.126,0.86,43.211,3.722
	c96.49,19.611,164.07,111.861,154.084,209.438c-10.388,101.498-91.676,175.812-193.151,175.989
	c-296.549,0.517-593.099,0.833-889.648,1.226c-9.418,0.013-18.837,0.002-29.571,0.002c0,45.998,0,88.93,0,134.569
	c16.651,0,31.771,0.003,46.891,0c286.881-0.074,573.763-0.236,860.644-0.012c17.568,0.014,35.637,0.98,52.613,5.072
	c79.199,19.092,130.851,68.641,148.283,148.014c17.922,81.611-10.1,148.977-76.128,199.902
	c-35.846,27.647-77.867,37.478-122.3,37.578c-141.022,0.317-282.044,0.241-423.066,0.317c-9.25,0.005-18.5,0.001-27.858,0.001
	C798.607,1501.83,798.607,1543.446,798.607,1586.898z"/>
</svg>
