<?xml version="1.0" encoding="iso-8859-1"?>
<!-- Generator: Adobe Illustrator 19.0.0, SVG Export Plug-In . SVG Version: 6.00 Build 0)  -->
<svg version="1.1" id="Layer_1" xmlns="http://www.w3.org/2000/svg" xmlns:xlink="http://www.w3.org/1999/xlink" x="0px" y="0px"
	 viewBox="0 0 2000 2000" style="enable-background:new 0 0 2000 2000;" xml:space="preserve">
<path d="M804.106,1964.092c-78.829-13.309-153.283-39.9-225.306-73.687c-63.179-29.638-122.597-65.985-177.564-108.784
	c-72.939-56.793-137.335-121.987-192.525-196.829c-58.911-79.888-104.752-166.041-137.466-259.382
	c-20.73-59.147-33.22-120.153-43.455-182.082c-11.941-72.253-11.44-144.711-8.154-216.841
	C22.7,859.218,36.22,792.559,55.823,727.802c12.136-40.09,27.223-79.286,41.413-120.114c-17.008-3.004-34.361-6.068-51.714-9.133
	c-0.656-1.456-1.312-2.911-1.969-4.367c70.39-43.243,140.78-86.486,211.929-130.194c1.93,3.108,4.067,4.957,4.114,6.857
	c1.924,77.673,3.671,155.35,5.375,233.028c0.069,3.14-0.495,6.294-0.809,9.976c-12.229-11.855-23.856-23.126-36.005-34.903
	c-131.707,277.29-91.752,729.862,271.81,998.058c384.035,283.298,883.92,184.573,1149.342-145.246
	c17.297-0.843,29.41,11.972,43.49,19.572c14.521,7.837,28.321,17.032,42.283,25.875c13.56,8.588,26.925,17.484,40.763,26.497
	c-50.108,62.354-102.577,117.234-161.886,164.603c-82.45,65.85-173.37,117.809-272.462,155.046
	c-60.423,22.706-123.103,36.728-185.995,50.081C1145.45,1975.573,956.899,1993.678,804.106,1964.092z M893.617,26.635
	c-25.372,3.085-50.734,6.437-75.929,10.67C737.741,50.737,661.056,75,587.874,109.754c-85.271,40.495-165.782,88.729-234.72,153.978
	c-38.074,36.036-74.652,73.693-110.987,111.502c-11.171,11.624-19.304,26.166-29.465,40.255
	c41.748,25.71,81.261,50.044,120.441,74.173c270.881-341.209,708.821-407.257,1042.384-238.025
	c178.335,90.478,310.606,227.4,390.926,410.516c104.974,239.321,95.977,478.57-15.134,715.521
	c40.642,26.228,79.165,51.09,118.798,76.668c32.037-59.206,56.162-118.459,73.355-180.387
	c23.039-82.986,38.358-167.279,36.579-253.845c-0.821-39.922-2.261-79.88-5.156-119.695c-2.209-30.375-4.635-61.121-11.335-90.712
	c-23.343-103.099-57.302-202.242-110.947-294.288c-40.108-68.819-86.925-132.414-141.04-190.411
	c-51.154-54.823-109.456-101.618-172.015-143.102c-48.822-32.375-100.255-59.538-154.025-82.819
	c-75.881-32.854-154.363-55.672-236.268-67.039C1132.7,29.746,976.563,16.55,893.617,26.635z M597.031,1546.234
	c137.415,0,274.832,0.373,412.244-0.229c40.764-0.179,81.508-3.332,122.275-4.714c57.023-1.932,110.947-16.668,162.029-41.036
	c71.821-34.261,123.764-87.032,149.44-164.124c19.857-59.619,23.2-119.703,14.526-181.757
	c-11.102-79.422-49.052-139.184-119.86-177.562c-11.981-6.493-23.853-13.187-36.721-20.312
	c40.494-24.355,74.829-52.071,95.237-92.865c35.166-70.293,32.912-144.5,16.689-218.54c-10.883-49.667-38.145-90.186-78.953-122.071
	c-61.689-48.199-134.45-65.27-208.962-67.138c-149.89-3.758-299.941-1.139-449.925-1.051c-6.633,0.004-13.604-0.144-19.845,1.707
	c-54.279,16.103-88.379,62.922-88.381,120.728c-0.011,312.537-0.006,625.074-0.006,937.611c0,9.146,0,18.293,0,31.353
	C578.914,1546.234,587.973,1546.234,597.031,1546.234z M794.542,1064.594c9.456-0.449,17.622-1.163,25.789-1.172
	c72.054-0.087,144.162-1.701,216.138,0.672c34.257,1.129,68.766,3.478,102.748,13.345c55.342,16.068,82.71,65.395,81.367,110.637
	c-0.757,25.513,2.111,50.775-7.216,76.329c-11.45,31.371-31.583,53.4-61.328,63.931c-25.359,8.978-52.959,15.398-79.716,15.966
	c-89.607,1.901-179.281,0.684-268.929,0.59c-2.388-0.002-4.774-0.817-8.854-1.562
	C794.542,1249.691,794.542,1157.885,794.542,1064.594z M794.314,645.899c8.412,0,15.724,0,23.036,0
	c71.94,0,143.92-1.409,215.804,0.612c34.311,0.964,69.13,3.597,102.25,15.606c41.646,15.101,59.797,56.316,60.259,88.718
	c0.486,34.077-3.482,67.186-32.094,89.551c-15.072,11.782-33.869,19.442-51.914,26.629c-28.223,11.24-58.272,10.581-88.204,10.391
	c-67.755-0.43-135.514-0.135-203.272-0.135c-8.195,0-16.389,0-25.865,0C794.314,798.328,794.314,723.305,794.314,645.899z"/>
</svg>
