<?xml version="1.0" encoding="utf-8"?>
<!-- Generator: Adobe Illustrator 24.1.0, SVG Export Plug-In . SVG Version: 6.00 Build 0)  -->
<svg version="1.1" id="BEZ" xmlns="http://www.w3.org/2000/svg" xmlns:xlink="http://www.w3.org/1999/xlink" x="0px" y="0px"
	 viewBox="0 0 500 500" style="enable-background:new 0 0 500 500;" xml:space="preserve">
<path d="M214.3,230.8c12.1-0.3,24.1-0.1,36.2-0.1c0-0.1,0-0.1,0-0.2c12.4,0,24.8,0.6,37.1-0.1c20.7-1.2,34-15.6,34.7-36.4
	c0.8-24.7-8.5-37.9-31.3-39.6c-25.8-1.9-51.7-1.2-77.6-1.7c-6.3-0.1-7.9,3.6-7.9,9.1c0.1,20,0.1,40,0,60.1
	C205.3,228.2,207.8,230.9,214.3,230.8z"/>
<path d="M288.9,267.8c-25-0.9-50.1-0.2-75.2-0.5c-6.2-0.1-8.3,2.8-8.3,8.6c0.1,22.7,0.1,45.4,0,68.1c0,6.4,2.6,9,9,8.8
	c12.7-0.3,25.4-0.1,38-0.1c0,0,0,0,0,0c12.7,0,25.4,0.2,38-0.1c11.9-0.3,22.9-3.6,30.6-13.3c11.5-14.6,12.6-30.9,6-47.6
	C320.3,274.7,305.6,268.4,288.9,267.8z"/>
<path d="M435,94.2L294.3,13.7c-26.9-15.4-60-15.4-86.9,0L66.7,94.2c-27.2,15.6-44,44.6-44,75.9v159.5c0,31.4,16.8,60.4,44,75.9
	l140.7,80.5c26.9,15.4,60,15.4,86.9,0L435,405.6c27.2-15.6,44-44.6,44-75.9V170.2C479.1,138.8,462.3,109.8,435,94.2z M136.1,128.5
	c0-15.5,12.5-28,28-28s28,12.5,28,28c0,15.5-12.5,28-28,28S136.1,143.9,136.1,128.5z M367.1,358c-17.5,23.5-42.5,32.4-70.3,33.1
	c-42.2,0.9-84.3,0.3-126.5,0.2c-10.8,0-14.5-3.7-14.5-14.4c-0.1-67.6,0-135.1-0.2-202.7c0-5.5,1.5-7.5,7.5-7.7
	c24.9-0.8,40.3-18,38.5-42.8c-0.4-6.3,1-8.4,7.4-8.4c30.4,0.3,60.8-0.6,91.1,0.4c52.5,1.8,85.2,47.1,69.5,95.3
	c-4.6,14-13,25-25.8,32.5c-1.9,1.1-3.8,2.5-6.7,4.4c4.4,2.1,7.7,3.7,11,5.4c20.6,10.3,31.1,27.2,32.4,50.1
	C381.7,322.9,379.2,341.7,367.1,358z"/>
</svg>
