<?xml version="1.0" encoding="utf-8"?>
<!-- Generator: Adobe Illustrator 25.1.0, SVG Export Plug-In . SVG Version: 6.00 Build 0)  -->
<svg version="1.1" id="BF" xmlns="http://www.w3.org/2000/svg" xmlns:xlink="http://www.w3.org/1999/xlink" x="0px" y="0px"
	 viewBox="0 0 500 500" style="enable-background:new 0 0 500 500;" xml:space="preserve">
<path d="M439.2,112.4c0,29.6-23.9,53.2-53.3,53.2h-9.6v-53.2H316v53.2h-2.3H185.5v-53.2h-60.3v53.2H123h-9.2
	c-29.4,0-53.3-23.9-53.3-53.2H0C0,177,49.9,224.8,114.5,224.8h8.4h2.3V293c0,69.1,56.3,125.3,125.5,125.3S376.2,362.1,376.2,293
	v-68.2h10.4c64.7,0,113.3-47.6,113.3-112.4H439.2z M316,292.9c0,35.9-29.3,65.1-65.2,65.1c-36,0-65.2-29.2-65.2-65.1v-68.1H316
	V292.9z"/>
</svg>
