<?xml version="1.0" encoding="iso-8859-1"?>
<!-- Generator: Adobe Illustrator 19.0.0, SVG Export Plug-In . SVG Version: 6.00 Build 0)  -->
<svg version="1.1" id="Layer_1" xmlns="http://www.w3.org/2000/svg" xmlns:xlink="http://www.w3.org/1999/xlink" x="0px" y="0px"
	 viewBox="0 0 2000 2000" style="enable-background:new 0 0 2000 2000;" xml:space="preserve">
<path d="M997.271,1987.143C480.273,1997.224,1.698,1563.107,8.701,987.119C15.148,456.85,457.267,2.864,1021.666,14.118
	c533.483,10.637,982.221,454.681,968.513,1012.795C1976.625,1578.697,1510.874,1998.729,997.271,1987.143z M1002.539,91.685
	C496.442,86.774,86.961,502.917,85.849,1000.961c-1.035,463.495,366.745,908.956,910.788,911.197
	c539.615,2.223,914.488-438.037,916.792-905.281C1915.856,514.494,1513.505,90.329,1002.539,91.685z M1000.574,1855.392
	c-451.382,5.793-853.622-358.932-858.746-845.151c-5.078-481.803,386.79-862.113,854.526-863.748
	c471.121-1.646,865.047,379.664,860.956,861.762C1853.172,1495.943,1450.419,1860.253,1000.574,1855.392z M733.041,967.156
	c46.894-25.54,55.441-61.046,55.93-98.47c0.764-58.479-0.596-117.018-2.431-175.488c-1.08-34.423-25.745-66.329-59.58-69.615
	c-60.68-5.892-121.834-7.488-182.837-9.271c-38.097-1.114-41.162,3.244-41.167,43.185c-0.026,227.18-0.035,454.36,0.182,681.54
	c0.015,15.489,1.923,30.976,3.108,48.842c64.816,0,124.702,1.229,184.516-0.328c66.714-1.737,101.263-38.045,101.916-105.092
	c0.629-64.487-1.511-129.037,0.591-193.46C794.867,1040.057,793.653,994.333,733.041,967.156z M1040.497,1387.972
	c15.748-127.798-2.026-252.602,4.8-373.87c35.188-12.416,69.99,7.396,98.19-16.573c-2.088-22.17-4.094-43.468-6.6-70.075
	c-30.586-2.3-60.464-4.546-87.884-6.608c0-77.621,0-152.834,0-230.164c36.287-1.999,68.869-3.795,99.847-5.502
	c0-27.043,0-48.013,0-68.489c-73.412,0-142.957,0-211.611,0c0,258.514,0,513.768,0,771.28
	C971.344,1387.972,1001.771,1387.972,1040.497,1387.972z M1313.784,688.249c1.377,233.422,2.741,464.593,4.128,699.598
	c36.151,0,67.922,0,101.01,0c1.175-16.842,2.686-28.347,2.67-39.849c-0.161-116.533-0.655-233.066-0.885-349.598
	c-0.173-87.548-0.539-175.101,0.292-262.641c0.142-14.904,5.888-29.755,9.225-45.476c16.963,0.753,28.458,2.096,39.875,1.604
	c27.481-1.182,25.704-21.254,27.115-40.977c1.491-20.843-3.256-36.185-26.3-36.43c-72.812-0.774-145.637-0.286-217.056-0.286
	C1222.912,671.13,1232.217,684.118,1313.784,688.249z M678.773,1043.462c-0.584-36.623-14.986-43.316-57.885-29.547
	c0,96.176,0,193.184,0,295.099c19.873-3.576,36.474-6.563,58.303-10.49C679.191,1209.911,680.1,1126.669,678.773,1043.462z
	 M680.067,885.205c2.072-55.303-0.078-110.767-0.557-166.16c-0.195-22.563-10.23-35.697-34.416-35.466
	c-9.205,0.088-18.424-1.229-24.855-1.701c0,82.799,0,162.423,0,246.191C667.415,938.483,678.296,932.468,680.067,885.205z"/>
</svg>
