<?xml version="1.0" encoding="iso-8859-1"?>
<!-- Generator: Adobe Illustrator 19.0.0, SVG Export Plug-In . SVG Version: 6.00 Build 0)  -->
<svg version="1.1" id="Layer_1" xmlns="http://www.w3.org/2000/svg" xmlns:xlink="http://www.w3.org/1999/xlink" x="0px" y="0px"
	 viewBox="0 0 2000 2000" style="enable-background:new 0 0 2000 2000;" xml:space="preserve">
<path d="M1001.237,1979.345c-535.39,0.621-992.006-438.273-978.24-1005.883C35.427,461.009,459.542,8.553,1031.101,23.024
	c509.65,12.903,962.676,435.218,947.791,1007.882C1965.501,1546.06,1543.767,1977.258,1001.237,1979.345z M350.563,349.316
	c0,432.527,0,862.626,0,1293.677c387.82,0,773.918,0,1156.566,0c78.459-78.254,154.607-154.204,230.975-230.374
	c0-92.293,0-185.058,0-282.52c-48.539-47.341-99.169-96.72-153.576-149.783c43.909-41.967,86.551-82.724,127.71-122.063
	c0-93.843,0-184.81,0-272.995c-79.286-79.563-156.858-157.404-235.124-235.943C1103.251,349.316,727.894,349.316,350.563,349.316z
	 M1552.51,1184.369c-31.021-31.074-61.67-61.775-94.625-94.786c-275.841,0-553.808,0-831.223,0c0-63.125,0-123.739,0-185.678
	c269.189,0,536.519,0,800.111,0c33.123-33.197,64.286-64.428,96.598-96.813c0-57.851,0-117.987,0-176.25
	c-32.277-32.582-63.327-63.924-93.396-94.276c-298.128,0-595.414,0-893.794,0c0,307.37,0,612.852,0,919.646
	c309.143,0,616.598,0,924.046,0c30.509-30.403,61.23-61.017,92.282-91.963C1552.51,1304.332,1552.51,1244.165,1552.51,1184.369z"/>
</svg>
