<?xml version="1.0" encoding="iso-8859-1"?>
<!-- Generator: Adobe Illustrator 19.0.0, SVG Export Plug-In . SVG Version: 6.00 Build 0)  -->
<svg version="1.1" id="Layer_1" xmlns="http://www.w3.org/2000/svg" xmlns:xlink="http://www.w3.org/1999/xlink" x="0px" y="0px"
	 viewBox="0 0 2000 2000" style="enable-background:new 0 0 2000 2000;" xml:space="preserve">
<path d="M376.311,1140.75c21.314-70.757,41.563-139.105,62.509-207.238c26.827-87.261,55.136-174.077,81.005-261.617
	c14.72-49.811,49.023-78.092,95.687-92.209c22.879-6.921,47.948-9.122,72.032-9.156c264.419-0.375,528.84-0.133,793.259,0.481
	c83.08,0.193,162.256-19.307,239.678-46.478c43.643-15.316,86.775-32.956,128.213-53.441
	c41.416-20.474,80.434-45.799,125.645-71.975c-15.787,26.72-27.329,52.019-43.939,73.376
	c-75.458,97.022-176.751,155.675-291.319,195.739c-92.73,32.427-188.056,25.427-283.064,25.117
	c-211.074-0.69-422.145-2.311-633.217-3.694c-88.38-0.579-111.716,17.316-138.67,101.334
	c-31.678,98.74-65.171,196.899-97.795,295.336c-0.907,2.736-0.881,5.781-1.61,10.953c51.409,31.36,90.938,74.481,105.973,134.49
	c6.544,26.119,4.755,54.326,3.435,82.475C543.002,1228.923,469.867,1173.908,376.311,1140.75z M1802.671,622.378
	c-125.013,93.374-264.177,142.534-421.565,140.565c-177.731-2.224-355.501-1.411-533.255-1.497
	c-20.589-0.01-41.322,1.609-61.742,4.319c-50.132,6.655-99.027,60.144-100.134,109.374c5.661,0.479,11.395,1.36,17.133,1.394
	c234.771,1.393,469.544,2.518,704.314,4.12c110.619,0.755,208.554-34.076,293.702-104.08
	c52.489-43.153,92.13-96.086,117.831-165.367C1810.59,616.929,1806.518,619.504,1802.671,622.378z M1401.401,1521.872
	c-89.57-79.187-196.817-122.233-310.639-151.034c-34.146-8.64-67.47-14.709-105.005-2.744
	c-73.274,23.357-148.721,40.339-223.896,57.149c-63.161,14.123-127.666,15.945-191.793,6.458
	c-78.782-11.655-151.493-40.396-219.43-81.919c-40.113-24.517-79.972-49.87-121.992-70.721
	c-39.463-19.582-82.58-27.847-126.598-15.318c-31.304,8.911-49.02,42.566-36.237,66.158c6.525-20.109,21.97-28.728,40.939-25.895
	c19.989,2.986,40.918,7.473,58.533,16.792c28.489,15.073,54.63,34.594,81.715,52.308c112.214,73.391,234.134,119.55,368.458,129.861
	c113.8,8.736,225.01-7.335,334.522-37.562c36.055-9.952,70.059-17.282,109.84-8.283c106.891,24.179,209.278,58.62,305.254,111.283
	c40.283,22.104,79.076,46.924,118.542,70.519C1475.512,1605.521,1440.625,1556.549,1401.401,1521.872z M1664.572,829.146
	c-105.455,89.949-226.108,132.266-365.961,128.842c-170.887-4.183-341.951-1.361-512.938-1.204
	c-69.543,0.064-121.29,42.01-130.235,105.412c5.795,0.398,11.511,1.099,17.231,1.139c220.562,1.534,441.123,3.407,661.688,4.356
	c158.886,0.684,281.173-86.543,336.619-239.831C1667.308,828.553,1665.511,828.346,1664.572,829.146z M773.6,1237.811
	c186.474,2.536,373.033,2.57,559.386,8.778c117.614,3.918,231.578,33.172,343,70.871c28.084,9.502,55.817,20.04,88.134,31.696
	c-4.494-7.109-5.977-10.278-8.181-12.821c-42.327-48.837-94.341-84.502-152.77-111.104
	c-113.975-51.891-234.915-73.777-358.932-75.924c-148.048-2.564-296.18-0.336-444.275-0.208
	c-47.692,0.041-95.383,0.006-143.646,0.006c15.149,30.19,28.866,57.526,44.488,88.658
	C723.391,1237.764,748.5,1237.469,773.6,1237.811z M1558.738,1631.663c32.078-41.234,62.178-79.926,92.92-119.442
	c-126.276-104.685-267.044-165.469-431.58-164.791C1368.101,1398.991,1488.995,1482.484,1558.738,1631.663z M64.559,1270.763
	c12.175-25.765,36.722-39.441,63.888-47.493c79.63-23.605,159.586-12.948,239.437-1.91c29.863,4.128,59.474,10.078,93.187,15.885
	c-4.286-5.531-5.257-7.454-6.791-8.667c-88.508-69.972-190.816-85.557-299.105-73.343c-25.091,2.83-50.495,11.326-73.575,21.949
	c-66.659,30.682-81.202,107.753-33.774,156.169C52.881,1313.424,55.253,1290.456,64.559,1270.763z M1366.045,1310.815
	c114.858,31.978,224.375,74.014,314.235,157.788c20.934-27.378,40.897-53.488,63.446-82.978
	C1621.3,1329.737,1496.643,1306.519,1366.045,1310.815z"/>
</svg>
