<?xml version="1.0" encoding="iso-8859-1"?>
<!-- Generator: Adobe Illustrator 19.0.0, SVG Export Plug-In . SVG Version: 6.00 Build 0)  -->
<svg version="1.1" id="Layer_1" xmlns="http://www.w3.org/2000/svg" xmlns:xlink="http://www.w3.org/1999/xlink" x="0px" y="0px"
	 viewBox="0 0 500 500" enable-background="new 0 0 500 500" xml:space="preserve">
<path d="M303.684,131.52c0-6.386,0-10.391,0-15.256c-35.886,0-71.854,0-108.208,0c0,26.24,0,51.749,0,77.611
	c57.281,0,113.74,0,170.929,0c0-46.711,0-92.639,0-139.21c-78.021,0-155.95,0-234.707,0c0,129.904,0,260.002,0,391.291
	c77.979,0,155.975,0,234.708,0c0-46.451,0-92.357,0-138.868c-56.764,0-113.265,0-170.655,0c0,25.166,0,50.373,0,76.293
	c36.011,0,71.722,0,107.682,0c0-4.951,0-9.518,0-15.589c-26.223,0-51.932-0.627-77.588,0.257
	c-13.456,0.463-18.037-4.269-17.787-17.541c0.59-31.277,0.142-31.117,31.309-30.674c31.353,0.446,62.712,0.581,94.069,0.707
	c16.142,0.065,18.673,2.332,18.679,18.725c0.011,26.781-0.162,53.562-0.238,80.343c-0.025,9.031-3.906,13.489-13.54,13.457
	c-59.397-0.197-118.795-0.237-178.192,0.039c-9.783,0.046-13.666-4.421-13.711-13.32c-0.246-48.479-0.389-96.959-0.578-145.439
	c-0.045-11.519,4.489-16.842,17.164-16.77c79.081,0.45,158.166,0.367,237.249,0.073c11.61-0.043,15.801,5.04,15.789,15.841
	c-0.079,69.239-0.163,138.479,0.093,207.717c0.038,10.363-5.295,14.072-14.189,14.1c-73.351,0.23-146.702,0.34-220.053,0.351
	c-28.02,0.004-56.04-0.523-84.059-0.445c-11.529,0.032-16.024-4.858-16.007-16.509c0.215-152.394,0.191-304.789,0.045-457.183
	C81.877,10.309,85.321,5.008,97.698,5.05C198.502,5.388,299.309,5.4,400.114,5c11.889-0.047,15.881,5.081,15.885,15.573
	c0.027,69.239,0.009,138.479,0.013,207.718c0,9.107-4.089,13.558-13.629,13.533c-81.44-0.207-162.881-0.29-244.322-0.227
	c-10.115,0.008-11.458-5.962-11.465-13.935c-0.038-46.151-0.181-92.301-0.31-138.451c-0.059-21.113,1.291-22.45,22.958-22.473
	c52.597-0.055,105.193-0.166,157.79-0.101c5.382,0.007,11.049,0.215,16.041,1.919c3.189,1.089,7.548,5.006,7.673,7.82
	c0.931,20.943,0.964,41.927,1.213,62.899c0.116,9.803,0.222,19.61,0.075,29.412c-0.117,7.766-4.313,11.621-12.115,11.621
	c-39.371,0.003-78.742,0.08-118.113,0.017c-9.014-0.014-13.665-4.751-13.534-13.878c0.526-36.751-5.567-35.619,33.41-34.984
	C261.963,131.793,282.252,131.52,303.684,131.52z"/>
</svg>
