<?xml version="1.0" encoding="iso-8859-1"?>
<!-- Generator: Adobe Illustrator 19.0.0, SVG Export Plug-In . SVG Version: 6.00 Build 0)  -->
<svg version="1.1" id="Layer_1" xmlns="http://www.w3.org/2000/svg" xmlns:xlink="http://www.w3.org/1999/xlink" x="0px" y="0px"
	 viewBox="0 0 2000 2000" style="enable-background:new 0 0 2000 2000;" xml:space="preserve">
<path d="M1018.761,1343.852c-25.713,35.629-51.199,70.943-78.388,108.618c3.844,18.369,8.285,39.591,13.137,62.775
	c8.017,6.036,17.508,13.183,28.596,21.531c3.046-9.39,0.958-17.5,2.082-25.625c2.477-2.789,5.186-5.84,9.548-10.752
	c5.506-1.33,12.802,0.729,20.307,4.896c25.383,14.095,51.26,27.306,76.522,41.608c5.945,3.365,11.593,8.879,15.037,14.772
	c21.57,36.911,42.718,74.076,63.505,111.436c10.838,19.479,21.33,39.211,30.765,59.396c12.817,27.419,25.69,54.948,32.284,84.737
	c1.31,5.919,0.8,12.323,0.542,18.478c-0.177,4.22-1.46,8.383-2.093,12.595c-1.563,10.387-5.067,19.367-16.043,23.273
	c-2.233,0.795-4.36,1.889-6.158,2.68c-11.872-0.681-18.834-9.244-26.255-16.267c-12.249-11.591-23.737-24.015-35.165-36.438
	c-15.196-16.518-29.248-33.851-42.194-52.352c-9.787-13.985-13.567-29.016-16.246-44.713c-4.235-24.811-7.241-49.831-10.864-75.448
	c-3.39-2.268-5.974,0.55-9.097,3.031c-12.672,10.071-25.365,20.137-38.46,29.639c-3.967,2.878-9.257,3.933-12.85,5.382
	c-12.557-8.448-10.582-7.3-12.22-39.97c-28.422-7.053-58.509-3.971-88.672-11.75c-19.388-46.404-38.454-94.038-57.816-141.356
	c-21.704,5.945-41.172,11.722-60.869,16.57c-30.817,7.585-61.909,14.07-92.661,21.9c-28.453,7.245-57.484,7.354-86.039,4.94
	c-26.056-2.203-52.654-0.594-78.256-7.868c-2.621-0.745-5.636-0.1-8.661-0.1c4.658,21.141,17.083,31.596,37.881,31.763
	c29.986,0.24,59.975,0.062,89.963,0.063c4.8,0,9.599,0,15.423,0c8.055,19.85,16.051,39.479,23.989,59.131
	c9.224,22.838,18.398,45.696,27.594,68.545c13.079,32.497,26.154,64.996,39.24,97.491c1.237,3.071,2.13,6.376,3.889,9.121
	c4.376,6.83,5.811,14.071,4.189,22.762c-4.343,3.323-9.154,7.002-15.179,11.611c-5.304-3.77-10.733-6.734-15.047-10.863
	c-12.796-12.248-24.986-25.128-37.72-37.443c-20.092-19.43-40.377-38.661-60.702-57.849c-6.83-6.448-10.419-16.122-19.892-19.908
	c-0.888-0.355-1.78-0.703-3.938-1.555c-0.42,6.739-0.818,13.115-1.254,20.106c-35.001-17.276-68.584-36.416-100.718-57.998
	c-21.914-14.718-38.271-34.262-46.684-59.64c-9.849-29.714-19.402-59.528-28.826-89.379c-1.12-3.547-0.625-7.604-0.771-9.8
	c-23.061-16.667-46.449-30.875-66.496-48.817c-19.925-17.832-42.163-33.551-57.814-56.098c-8.399-12.1-19.339-22.43-27.816-34.485
	c-6.544-9.305-11.665-19.771-16.318-30.212c-10.872-24.391-16.227-50.308-19.91-76.648c-2.563-18.331-5.751-36.575-8.399-54.896
	c-0.617-4.271,0.004-8.706-0.261-13.046c-1.197-19.587-2.509-39.168-3.848-59.819c-9.045,3.726-17.344,8.446-26.253,10.445
	c-8.785,1.971-18.189,1.188-25.211,1.516c-12.366-2.573-13.458-12.092-17.143-20.592c-4.375,3.101-8.089,5.733-10.946,7.758
	c-18.905-2.686-30.533-14.776-41.836-27.206c-6.472-7.118-8.402-16.182-8.111-25.328c0.491-15.464-2.56-29.168-13.724-40.807
	c-4.136-4.312-7.457-10.22-9.077-15.983c-5.945-21.149,15.44-45.739,37.173-43.616c8.777,0.857,14.304,6.791,20.333,12.076
	c0.962,0.843,2.043,1.552,4.858,3.667c-0.869-7.488-0.191-13.792-2.455-18.753c-5.653-12.386-0.907-23.053,5.752-32.01
	c6.78-9.12,18.479-9.409,29.194-8.356c8.941,0.879,17.754,2.976,26.664,4.256c16.266,2.337,30.622,9.75,45.206,16.604
	c2.093,0.984,4.288,1.753,7.772,3.162c3.47-5.81,7.26-11.051,9.918-16.813c8.184-17.743,23.808-28.822,37.344-41.556
	c13.873-13.051,29.987-23.754,41.35-39.419c6.738-9.289,11.583-19.389,11.865-31.771c-27.576-6.634-51.926-19.51-75.14-34.351
	c-12.381-7.915-23.834-17.499-34.82-27.32c-11.729-10.484-22.831-21.755-33.424-33.395c-8.633-9.485-16.94-19.484-23.908-30.218
	c-10.036-15.459-19.197-31.541-27.893-47.806c-15.961-29.852-25.955-61.964-33.803-94.739c-5.173-21.603-10.148-43.28-14.226-65.108
	c-2.181-11.676-1.233-23.948-3.526-35.591c-4.718-23.958-1.822-48.032-2.627-72.033c-0.596-17.755,2.833-35.118,5.228-52.637
	c2.909-21.279,7.989-41.809,14.439-62.228c6.89-21.811,15.399-42.909,26.244-62.926c20.652-38.115,46.645-72.39,78.655-101.674
	c24.281-22.213,49.859-43.288,78.55-59.382c15.41-8.644,33.401-13.468,50.805-17.547c16.128-3.78,32.942-4.978,49.499-6.931
	c17.348-2.046,34.506-1.793,51.749-2.142c23.067-0.467,45.858,2.774,68.707,5.575c23.205,2.845,45.948,7.552,67.338,16.806
	c28.729,12.429,57.479,25.029,85.209,39.493c38.328,19.992,74.534,43.529,108.794,70.094c30.055,23.305,58.324,48.493,84.424,76.081
	c17.392,18.383,33.883,37.62,48.685,58.174c19.424,26.973,37.061,55.009,52.63,84.494c24.282,45.984,42.829,93.981,55.027,144.45
	c6.558,27.134,12.548,54.405,19.173,83.264c16.305,16.141,33.305,33.972,51.392,50.624c23.293,21.446,47.325,42.098,71.286,62.806
	c18.823,16.268,37.231,33.184,57.277,47.819c19.303,14.092,40.122,26.239,60.908,38.132c26.367,15.086,56.26,20.96,85.194,28.276
	c20.014,5.06,40.975,7.584,61.766,10.154c35.431,4.379,70.814,5.839,106.319,4.94c17.131-0.434,34.191-3.549,51.294-5.345
	c2.808-0.295,5.673-0.041,9.974-0.041c2.033,15.951,4.041,31.417,5.965,46.893c1.937,15.58,5.1,31.15,5.343,46.761
	c0.291,18.667,2.611,37.418-1.75,56.188c-2.008,8.643-1.787,17.806-4.558,26.605c-4.104,13.035-12.464,22.943-22.635,30.886
	c-18.836,14.709-40.357,24.857-62.59,33.537c-33.566,13.104-67.006,26.529-100.543,39.708
	c-21.796,8.566-37.639,24.149-50.737,42.886c-16.606,23.757-30.612,49.058-44.318,74.573c-16.171,30.103-32.273,60.372-52.73,87.824
	c-10.901,14.629-25.263,26.143-40.814,36c-21.286,13.491-43.987,23.751-67.245,33.488c-27.048,11.324-52.057,7.675-76.86-4.13
	c-21.824-10.387-43.965-20.304-63.533-35.002C1033.223,1350.139,1025.477,1347.342,1018.761,1343.852z M935.555,1424.541
	c10.433-13.319,19.967-25.019,28.953-37.127c6-8.084,11.276-16.711,16.777-25.158c7.555-11.6,15.682-22.894,22.376-34.977
	c12.333-22.261,18.775-46.602,24.973-71.227c6.651-26.422,11.608-53.073,16.17-79.854c2.476-14.539,4.737-29.117,6.93-43.703
	c1.699-11.302,3.465-22.609,4.614-33.973c1.353-13.39,1.703-26.884,3.148-40.261c2.459-22.769,6.457-45.416,7.944-68.236
	c2.07-31.752,2.466-63.614,3.477-95.432c0.23-7.231,0.261-14.484,0.011-21.713c-0.932-26.926-2.019-53.846-3.055-80.769
	c-0.018-0.48-0.124-0.957-0.178-1.437c-1.82-16.21-3.544-32.431-5.488-48.626c-1.481-12.341-3.109-24.667-4.912-36.964
	c-2.081-14.188-4.424-28.337-6.656-42.502c-2.604-16.526-5.001-33.087-7.874-49.566c-2.946-16.901-5.906-33.823-9.675-50.553
	c-5.408-24.007-10.002-48.366-17.775-71.629c-10.042-30.05-21.478-59.824-34.926-88.491c-12.121-25.837-26.368-50.957-42.243-74.676
	c-16.207-24.215-34.154-47.312-53.381-69.501c-27.158-31.342-57.224-59.414-89.593-84.884
	C741.418,130.986,682.41,97.145,619.761,69.73c-10.408-4.554-21.128-8.493-31.931-12.026c-18.519-6.056-37.331-10.206-56.923-12.245
	c-20.48-2.132-40.98-3.964-61.497-4.983c-11.875-0.59-23.9,2.527-35.839,2.396c-18.316-0.201-36.155,2.231-54.002,5.921
	c-17.734,3.667-35.005,8.255-51.087,16.969c-27.047,14.655-50.516,34.151-73.14,54.556c-12.785,11.53-24.15,24.764-35.294,37.958
	c-28.194,33.379-49.813,70.594-63.757,112.166c-8.004,23.864-14.457,47.946-17.592,73.082c-2.307,18.497-4.532,36.974-5.209,55.555
	c-0.541,14.839,0.574,29.636,2.146,44.537c1.854,17.573,3.357,35.137,6.216,52.626c4.751,29.065,11.731,57.533,19.454,85.94
	c9.185,33.782,23.755,65.146,41.673,94.755c15.159,25.05,33.507,47.801,55.235,68.14c21.248,19.89,44.292,36.485,69.85,49.844
	c25.32,13.234,52.205,20.431,81.03,20.537c10.272,0.038,20.535,2.33,30.802,3.593c-0.007,0.369-0.015,0.737-0.022,1.106
	c-18.44,1.7-36.879,3.4-56.015,5.164c0,7.83,0,14.29,0,22.083c8.307,0,16.032,0,23.757,0c0.029,0.811,0.059,1.622,0.088,2.433
	c-9.248,1.537-18.496,3.074-25.745,4.278c-9.911,12.468-18.067,24.365-27.904,34.654c-10.253,10.724-21.728,20.402-33.381,29.639
	c-19.592,15.529-34.528,33.905-40.944,58.602c-9.395,36.159-15.508,72.766-15.744,110.195c-0.192,30.477-0.346,60.96,0.107,91.431
	c0.192,12.886,1.281,25.855,3.206,38.598c3.183,21.081,7.997,41.921,10.964,63.026c3.026,21.524,10.714,41.399,20.105,60.548
	c10.167,20.731,25.649,37.887,41.817,54.119c15.294,15.353,31.306,30.012,47.363,44.58c19.15,17.374,39.16,33.649,62.531,45.27
	c2.459,1.222,4.382,3.52,6.766,5.494c6.761,2.315,13.781,5.229,21.068,7.11c15.714,4.057,31.47,8.077,47.39,11.178
	c14.089,2.744,28.365,5.165,42.662,6.058c26.943,1.683,53.998,1.591,80.938,3.301c28.271,1.794,55.637-3.88,82.602-10.181
	c39.469-9.223,78.33-21.051,117.508-31.784c-6.45-20.601-19.828-39.173-21.904-61.631c6.922-2.002,12.307-3.559,17.722-5.125
	c28.97,70.7,57.448,140.198,86.211,210.391c24.34,2.034,48.008,4.011,72.471,6.055c0-16.118,0-30.468,0-46.047
	c-22.553-18.063-45.661-36.571-68.484-54.85c-0.285-4.17-0.104-7.615-0.809-10.868c-6.532-30.168-13.195-60.308-19.869-90.446
	c-2.57-11.607-5.165-23.21-7.953-34.766c-1.065-4.415-1.836-8.536,2.482-12.184c5.031-1.012,10.374-2.087,16.265-3.272
	C928.647,1390.47,931.948,1406.753,935.555,1424.541z M1091.266,894.264c0,8.517,0.138,13.735-0.026,18.945
	c-0.516,16.419-0.679,32.868-1.835,49.245c-1.937,27.44-4.51,54.836-6.869,82.246c-0.943,10.954-1.662,21.946-3.13,32.833
	c-2.544,18.858-6.228,37.58-8.274,56.484c-2.709,25.039-6.851,49.788-11.627,74.495c-7.292,37.72-15.33,75.198-29.49,111.077
	c-1.001,2.538-1.739,5.179-2.543,7.602c67.952,40.717,75.844,45.88,120.537,56.76c5.821-1.541,11.324-2.93,16.789-4.455
	c32.141-8.972,60.64-25.275,87.243-44.827c8.836-6.494,17.34-14.627,23.165-23.807c17.339-27.326,33.326-55.512,49.735-83.425
	c13.008-22.127,25.78-44.394,38.803-66.512c18.987-32.249,47.087-53.564,81.59-66.771c28.783-11.018,58.081-20.738,86.595-32.396
	c25.542-10.443,51.572-20.798,69.346-44.712c1.964-5.623,4.982-11.762,6.122-18.231c1.159-6.575-0.426-13.641,0.777-20.2
	c2.213-12.06-0.659-23.921-0.125-35.837c1.251-27.91-3.01-55.295-7.089-84.408c-7.21,0.783-14.184,1.545-21.159,2.296
	c-3.334,0.359-6.685,1.102-10.002,0.978c-35.612-1.332-71.237,2.081-106.913-2.449c-25.976-3.299-51.856-6.646-77.503-11.938
	c-51.236-10.573-98.409-30.777-141.29-60.544c-18.033-12.518-35.317-26.256-52.021-40.518
	c-26.083-22.269-51.536-45.285-76.957-68.315c-15.778-14.294-31.002-29.198-47.369-44.674c0.305,6.399,0.127,12.168,0.949,17.79
	c1.373,9.38,3.824,18.609,5.036,28.003c2.319,17.973,3.899,36.041,6.131,54.027c2.639,21.264,6.407,42.415,8.276,63.739
	c1.927,21.992,2.159,44.132,3.135,66.207c0.085,1.913,0.192,3.824,0.297,5.891c51.061,56.047,102.089,112.041,153.085,168.065
	c3.897,4.281,7.572,8.766,11.323,13.179c0.298,0.351,0.578,0.909,0.517,1.32c-0.06,0.405-0.562,0.744-0.993,1.259
	c-18.002-16.757-36.254-33.246-53.925-50.334c-18.425-17.816-36.255-36.246-54.411-54.341
	C1129.57,930.472,1112.374,912.492,1091.266,894.264z M242.581,1123.046c1.413-27.716,1.392-53.748,4.428-79.419
	c3.032-25.628,9.126-50.894,13.812-75.97c-28.581-16.641-58.104-25.986-90.219-24.534c-3.867,2.696-7.368,5.137-11.698,8.156
	c-0.708,4.514-2.766,9.826-2.048,14.732c1.363,9.319,3.431,18.748,6.824,27.504c4.614,11.908,10.565,23.319,16.331,34.747
	c1.794,3.556,4.227,6.525-0.092,11.118c-1.918-1.256-4.698-2.132-5.904-4.015c-10.401-16.248-22.716-30.827-36.961-43.815
	c-1.003-0.914-1.539-2.341-1.517-2.308c-5.812-1.971-10.568-3.584-14.622-4.959c-3.733,1.44-6.814,2.628-8.861,3.417
	c-2.537,3.065-4.586,5.131-6.16,7.511c-9.329,14.108-9.945,24.893,0.827,37.74c11.468,13.677,15.63,28.674,15.301,46.072
	c-0.118,6.247,1.724,13.823,5.472,18.591c8.558,10.886,18.899,20.341,32.492,24.712c9.294-1.889,12.955-9.322,16.808-16.521
	c1.566-2.927,2.777-6.052,4.441-8.917c1.565-2.693,3.516-5.161,5.296-7.729c-2.149,14.889-1.117,28.964-0.538,43.213
	c6.922,1.85,12.326,3.294,18.482,4.939C216.723,1132.727,229.569,1127.917,242.581,1123.046z M1206.183,1858.938
	c9.281-17.302,9.512-33.063,5.254-48.436c-11.258-40.649-31.087-77.714-50.814-114.635c-20.136-37.685-41.659-74.629-62.474-111.953
	c-5.154-9.242-10.409-18.619-19.43-24.389c-7.92-5.066-16.916-8.421-25.3-12.793c-17.184-8.96-34.277-18.095-51.612-27.266
	c0,10.957,0,22.358,0,33.442c8.142,6.648,15.79,12.893,22.972,18.758c0,30.929,0,60.405,0,91.669
	c14.974-11.655,29.029-22.169,42.576-33.302c7.861-6.461,15.632-7.725,26.241-2.341c1.066,5.638,2.548,11.971,3.376,18.389
	c0.553,4.286-0.278,8.752,0.291,13.034c2.691,20.27,5.617,40.509,8.524,60.749c2.12,14.763,5.596,29.047,15.226,41.031
	c8.085,10.061,15.833,20.42,24.348,30.104C1164.956,1813.287,1184.927,1835.244,1206.183,1858.938z M621.484,1673.47
	c41.96,42.221,84.532,84.452,129.967,124.29c-29.597-73.014-59.195-146.028-88.454-218.207c-14.39,0-27.734,0-41.513,0
	C621.484,1611.175,621.484,1641.964,621.484,1673.47z M601.053,1689.952c0.017-37.658,0.473-72.664-0.236-107.165
	c-18.888-1.568-36.103-2.998-53.044-4.405c-22.733-12.182-32.105-35.394-46.221-53.438c-11.599-2.625-22.461-5.084-33.302-7.537
	c-0.455,1.88-1.065,2.909-0.845,3.71c7.919,28.807,15.65,57.592,27.713,85.158c5.727,13.085,12.735,24.017,24.349,32.103
	c14.432,10.048,28.512,20.638,43.303,30.123C574.373,1675.939,586.824,1682.053,601.053,1689.952z M1845.611,1449.42
	c-6.669-6.807-13.669-13.324-19.944-20.477c-18.024-20.548-35.163-41.904-53.783-61.886c-15.585-16.725-30.637-33.827-45.414-51.259
	c-17.639-20.81-36.341-40.727-54.793-60.837c-14.609-15.921-29.538-31.548-44.318-47.312c-0.99-1.056-1.944-2.146-2.891-3.241
	c-13.431-15.537-26.858-31.078-39.97-46.252c-4.911,0-8.714,0-13.465,0c-1.987,1.955-4.353,4.283-6.23,6.131
	c0,4.924,0,8.724,0,13.119c92.699,91.338,185.513,182.79,278.328,274.243C1843.958,1450.906,1844.784,1450.163,1845.611,1449.42z
	 M1546.562,1968.932c-3.705-4.749-7.183-9.698-11.155-14.211c-15.499-17.612-31.055-35.176-46.777-52.589
	c-19.94-22.084-40.059-44.005-60.11-65.988c-1.953-2.141-4.032-4.17-5.946-6.344c-9.778-11.106-19.408-22.345-29.303-33.346
	c-14.72-16.366-29.684-32.511-44.423-48.861c-15.723-17.442-31.295-35.018-46.964-52.507c-0.944-1.054-2.164-1.86-3.256-2.782
	c-3.933,0-7.737,0-13.259,0c-2.125,4.441-4.43,9.257-6.843,14.298c11.712,12.646,21.3,25.436,33.36,35.163
	c8.003,6.455,12.456,15.452,20.444,21.619c9.321,7.197,18.123,15.178,26.48,23.492c50.072,49.815,99.913,99.862,149.923,149.74
	c11.594,11.564,23.54,22.775,35.324,34.149C1544.892,1970.154,1545.727,1969.543,1546.562,1968.932z M1787.839,1788.943
	c40.844,40.312,82.155,80.151,123.261,120.197c0.863-0.794,1.726-1.588,2.589-2.383c-9.503-11.614-18.568-23.622-28.609-34.75
	c-15.729-17.433-32.199-34.196-48.194-51.393c-8.173-8.788-16.061-17.845-23.961-26.882c-12.559-14.367-24.876-28.949-37.566-43.198
	c-11.184-12.558-22.84-24.695-34.107-37.181c-16.041-17.779-31.906-35.715-47.871-53.562c-1.928-2.156-3.937-4.25-6.028-6.247
	c-3.178-3.036-6.46-5.963-9.229-8.505c-8.525,4.745-17.132,7.546-14.274,20.102
	C1705.13,1706.395,1746.255,1747.901,1787.839,1788.943z M1048.506,1961.943c-10.896-13.07-21.674-26.24-32.727-39.176
	c-8.425-9.86-17.36-19.285-25.781-29.148c-14.929-17.487-29.606-35.187-44.452-52.744c-9.541-11.283-18.847-22.796-28.923-33.585
	c-6.967-7.46-12.3-17.283-25.317-19.707c-3.36,2.906-7.48,6.468-9.552,8.259c-2.964,13.169,5.033,18.331,11.292,24.331
	c18.866,18.089,38.113,35.787,56.768,54.09c25.162,24.687,49.917,49.787,74.832,74.725c6.322,6.328,13.095,11.976,21.156,15.772
	C1046.703,1963.821,1047.604,1962.882,1048.506,1961.943z M1364.279,1461.254c10.571,10.315,21.267,20.501,31.953,30.697
	c10.417,9.94,20.999,19.711,31.309,29.761c10.716,10.444,21.11,21.217,31.797,31.691c10.488,10.278,21.076,20.459,31.79,30.501
	c10.327,9.681,20.871,19.131,31.32,28.682c0.685-0.692,1.37-1.384,2.055-2.076c-6.845-7.157-14.044-14.012-20.469-21.528
	c-20.179-23.606-39.883-47.62-60.128-71.168c-15.324-17.825-31.276-35.109-46.783-52.778c-6.596-7.516-12.536-15.613-19.195-23.069
	c-9.868-11.05-20.111-21.766-29.74-32.135c-11.673,2.167-16.67,7.743-15.723,19.914
	C1343.038,1440.229,1353.584,1450.818,1364.279,1461.254z M852.669,816.387c-11.957-21.192-25.272-44.789-38.905-68.95
	c4.807-3.32,9.457-6.532,15.292-10.561c5.118,7.455,10.429,14.541,15.035,22.059c6.231,10.172,12.587,20.361,17.656,31.123
	c5.251,11.149,9.456,22.856,13.202,34.611c1.193,3.743-0.504,8.424-0.949,12.669c-2.464,23.483-12.406,44.636-21.192,68.131
	c8.463,15.816,24.037,27.573,35.737,45.028c10.976-17.75,21.261-34.22,31.354-50.807c2.978-4.894,5.037-10.363,8.163-15.147
	c14.016-21.455,11.791-44.047,3.33-66.157c-9.001-23.523-19.466-46.522-30.12-69.363c-6.618-14.188-14.775-27.657-22.995-42.843
	c5.379-3.598,10.342-6.917,16.61-11.111c4.575,7.404,9.419,13.843,12.805,20.975c12.124,25.53,24.596,50.951,35.276,77.091
	c7.154,17.51,11.773,36.088,16.984,54.343c2.651,9.289-1.741,17.901-4.559,26.523c-7.192,21.999-19.449,41.369-31.652,60.761
	c-6.307,10.023-12.677,20.006-19.53,30.813c6.443,8.239,12.811,16.383,20.024,25.606c-14.068,2.475-26.593,5.248-39.267,6.77
	c-17.644,2.119-34.27,7.759-50.979,13.21c-11.474,3.743-17.515,13.051-21.401,23.509c-3.638,9.791-5.939,20.082-8.768,30.17
	c-2.049,7.307-4.341,14.569-5.919,21.979c-2.582,12.124-4.671,24.354-7.385,38.753c-11.816,17.569-28.266,33.524-47.444,46.821
	c-13.005,9.017-25.863,6.042-37.476-1.83c-9.374-6.354-17.345-14.778-28.283-24.331c-8.421-1.549-20.377-2.868-31.779-6.126
	c-9.038-2.582-18.047-6.54-25.919-11.656c-14.873-9.666-19.405-24.304-15.771-41.367c1.488-6.985,2.63-14.554,6.217-20.472
	c6.92-11.417,8.327-24.063,10.895-36.521c4.496-21.806,17.046-39.04,30.98-55.571c6.827-8.1,16.893-9.224,25.956-10.663
	c9.836-1.561,20.22-0.279,30.309,0.498c20.206,1.555,40.317,9.263,61.662-0.28c9.189-9.853,10.339-24.254,13.24-37.44
	c2.852-12.961,2.357-26.656,3.368-40.026c1.25-16.515,2.539-33.027,3.885-50.493c15.231,17.668,29.79,34.556,44.368,51.466
	C844.285,874.061,856.202,847.704,852.669,816.387z M766.102,986.454c-14.766,0-31.063,2.09-46.53-0.596
	c-15.013-2.607-29.683-1.099-43.809-2.331c-14.062,5.887-20.266,17.821-27.435,29.224c-11.909,18.941-10.756,36.472,0.298,55.883
	c12.577,22.088,27.283,42.53,43.127,62.077c9.431,11.635,19.445,24.166,35.691,27.058c10.304-2.688,15.935-10.882,22.772-17.451
	c7.248-6.964,14.26-14.174,20.737-20.64c1.432-7.538,2.471-14.122,3.953-20.605c5.157-22.56,8.835-45.486,17.277-67.227
	c6.185-15.928,13.713-30.577,30.905-37.211c7.505-2.896,15.01-5.914,22.738-8.08c12.911-3.618,26.001-6.595,40.467-10.204
	c-26.42-30.503-51.599-59.572-77.825-89.851c-2.69,18.203-4.163,34.724-7.748,50.773
	C796.26,957.235,792.023,978.112,766.102,986.454z M621.061,1100.561c14.811,16.156,22.046,20.15,38.769,20.935
	c-5.368-8.068-9.551-16.066-15.364-22.619c-6.069-6.842-5.505-18.4-16.468-22.769
	C625.624,1084.477,623.451,1092.137,621.061,1100.561z M470.423,327.272c-0.828-45.069-31.897-73.585-72.86-74.857
	c-36.079-1.121-73.563,32.901-72.881,72.972c0.358,21.017,8.77,37.72,22.766,52.191c13.576,14.036,29.9,21.86,49.238,19.53
	C431,403.343,471.107,364.516,470.423,327.272z M314.841,444.111c-10.016-23.486-34.61-37.358-59.046-31.491
	c-25.708,6.172-45.866,32.761-40.781,55.854c5.222,23.713,18.79,49.624,66.554,44.584
	C310.467,501.785,326.563,471.596,314.841,444.111z M479.701,693.077c17.79-6.405,34.76-14.158,47.984-29.254
	c14.124-16.123,23.343-34.714,32.544-53.543c1.254-2.567,1.715-5.521,2.528-8.242c-10.428,13.478-21.34,26.074-30.522,39.825
	c-12.061,18.064-28.903,28.267-49.106,34.09c-15.034,4.333-30.099,8.353-45.918,8.805c-6.092,0.174-11.03,2.974-13.169,10.726
	c2.294,2.954,5.048,6.5,8.253,10.626C449.659,701.436,465.071,698.344,479.701,693.077z"/>
</svg>
