<?xml version="1.0" encoding="iso-8859-1"?>
<!-- Generator: Adobe Illustrator 19.0.0, SVG Export Plug-In . SVG Version: 6.00 Build 0)  -->
<svg version="1.1" id="Layer_1" xmlns="http://www.w3.org/2000/svg" xmlns:xlink="http://www.w3.org/1999/xlink" x="0px" y="0px"
	 viewBox="0 0 500 500" enable-background="new 0 0 500 500" xml:space="preserve">
<path d="M132.961,492.879c-14.245,4.223-32.366-1.773-44.5-14.281c-1.798-4.606-0.386-9.104,1.062-13.624
	c7.551-23.569,17.927-45.966,28.288-68.371c0.69-1.493,1.335-3.006,2.14-4.824c-0.752-0.796-1.368-1.703-2.206-2.3
	c-25.748-18.354-40.248-44.038-47.087-74.188c-7.883-34.75-3.917-68.377,12.097-100.388c6.657-13.308,15.972-24.702,26.359-35.174
	c28.036-28.267,60.506-50.398,96.034-68.096c16.137-8.039,32.33-16.049,48.915-23.089c38.294-16.255,65.29-44.188,84.955-80.058
	c1.042-1.9,2.206-3.734,3.321-5.611c17.909,15.061,35.091,30.3,48.94,48.951c25.263,34.023,40.155,71.945,44.077,114.201
	c4.007,43.169-3.665,84.147-23.695,122.506c-31.729,60.765-81.342,99.47-147.572,116.537c-27.908,7.192-56.465,8.295-85.117,5.231
	c-5.738-0.614-11.385-2.076-17.629-3.252C145.688,433.612,139.111,463.038,132.961,492.879z M230.654,144.951
	c-2.001,10.762-3.803,20.456-5.688,30.594c-15.107,0.179-29.2-3.255-43.786-3.145c-1.013,6.147-1.897,11.513-2.842,17.252
	c1.867,0.45,3.151,0.879,4.468,1.054c3.85,0.511,7.747,0.729,11.563,1.411c8.383,1.497,11.387,5.839,9.998,14.043
	c-0.88,5.198-1.792,10.392-2.648,15.594c-3.379,20.536-6.717,41.079-10.123,61.611c-1.413,8.514-4.33,10.868-12.938,10.439
	c-4.13-0.206-8.247-0.68-13.215-1.105c-2.36,6.487-4.758,13.077-7.382,20.288c7.981,0.819,14.83,1.641,21.7,2.195
	c7.095,0.573,14.173,1.109,21.603,2.93c-1.647,10.525-3.167,20.231-4.722,30.168c6.9,1.61,12.99,2.796,19.512,1.438
	c1.739-9.847,3.411-19.319,5.036-28.524c8.726-1.527,13.687-0.82,19.125,2.706c-1.498,9.241-3.031,18.693-4.657,28.72
	c6.707,0.686,12.663,1.296,19.389,1.984c1.912-10.274,3.763-20.222,5.73-30.796c4.92-0.118,9.274-0.27,13.63-0.317
	c10.877-0.119,21.61-1.138,31.999-4.648c17.697-5.979,30.407-26.01,27.971-44.541c-0.387-2.947-1.538-5.927-2.93-8.581
	c-3.346-6.382-8.779-10.597-15.267-13.559c-2.117-0.967-4.151-2.117-7.389-3.785c3.572-2.077,5.893-3.455,8.241-4.786
	c10.539-5.973,14.671-15.543,14.766-27.095c0.091-11.037-5.479-18.908-14.797-24.348c-7.271-4.244-15.241-6.596-23.362-8.538
	c-2.9-0.693-5.768-1.521-9.273-2.452c1.612-10.36,3.12-20.06,4.728-30.397c-6.629-0.715-12.566-1.356-19.172-2.068
	c-1.869,10.212-3.596,19.646-5.278,28.84c-8.405,1.524-12.93,1.044-19.061-1.916c0.565-9.445,3.854-18.695,3.986-28.709
	C242.979,146.226,237.229,145.631,230.654,144.951z M228.939,298.73c10.492,0.679,20.999,1.856,31.482,1.689
	c6.519-0.104,13.251-1.563,19.442-3.701c6.819-2.356,11.624-7.264,12.254-15.235c0.633-8.003-3.198-13.242-9.894-16.695
	c-3.423-1.765-6.993-3.681-10.709-4.358c-10.869-1.979-21.837-3.423-32.786-4.935c-1.798-0.248-3.696,0.225-6.27,0.419
	c-2.299,13.855-4.544,27.391-6.843,41.249C227.479,298.065,228.191,298.682,228.939,298.73z M276.578,237.216
	c3.601-0.931,7.242-3.04,10.024-5.544c7.435-6.692,7.102-16.833-0.64-23.149c-2.721-2.22-6.057-4.303-9.415-5.007
	c-9.728-2.038-19.598-3.421-29.442-4.854c-1.46-0.213-3.084,0.696-5.059,1.194c-2.025,12.147-4.016,24.095-6.232,37.392
	C250.297,239.257,263.477,240.603,276.578,237.216z"/>
</svg>
