<?xml version="1.0" encoding="iso-8859-1"?>
<!-- Generator: Adobe Illustrator 19.0.0, SVG Export Plug-In . SVG Version: 6.00 Build 0)  -->
<svg version="1.1" id="Layer_1" xmlns="http://www.w3.org/2000/svg" xmlns:xlink="http://www.w3.org/1999/xlink" x="0px" y="0px"
	 viewBox="0 0 2000 2000" style="enable-background:new 0 0 2000 2000;" xml:space="preserve">
<path d="M16.751,998.355C15.948,473.185,438.295,27.178,992.372,24.819c561.973-2.393,983.4,450.13,984.579,969.697
	c1.217,536.263-438.656,974.294-979.434,975.049C467.131,1970.306,17.525,1542.822,16.751,998.355z M1968.894,998.041
	c1.112-525.711-434.307-961.122-959.88-964.857C469.048,29.347,28.565,456.391,25.789,991.147
	c-2.784,536.251,429.621,967.257,968.8,968.807C1531.579,1961.498,1967.767,1530.858,1968.894,998.041z M952.027,1768.4
	c175.299-77.793,285.164-204.126,247.324-403.53c-34.01-179.219-172.436-248.114-350.256-259.422
	c11.875-10.19,19.065-16.444,26.343-22.592c69.219-58.469,126.134-123.27,150.127-215.59
	c38.521-148.227-30.313-305.241-211.418-341.959c-70.927-14.38-141.598-7.391-211.793,2.717
	c-80.868,11.645-161.178,27.164-241.752,40.874c-3.858,0.656-7.925,0.084-12.307,0.084
	c173.261-277.135,566.058-440.127,938.377-291.496c386.589,154.328,583.215,573.161,451.849,963.466
	C1603.768,1641.317,1216.905,1796.91,952.027,1768.4z M1171.241,719.967c25.41-38.457,49.955-75.606,76.647-116.004
	c21.429,43.369,41.108,83.196,61.347,124.156c30.172-17.463,57.445-33.248,86.387-49.998
	c-26.629-45.994-52.337-90.397-79.45-137.226c52.316-7.829,101.3-15.159,151.62-22.689c-5.784-26.096-10.951-49.41-16.512-74.5
	c-49.47,11.379-96.942,22.298-147.496,33.926c5.108-49.044,9.819-94.279,14.752-141.646c-36.997-2.248-72.242-4.389-110.634-6.722
	c0,48.721,0,94.129,0,143.32c-49.718-17.935-95.629-34.498-143.37-51.72c-8.323,24.566-16.175,47.741-24.577,72.539
	c50.062,13.487,96.965,26.123,147.211,39.66c-33.085,44.22-63.728,85.176-94.988,126.958
	C1119.531,680.76,1144.664,699.816,1171.241,719.967z M522.648,1570.752c6.261,40.767,24.928,64.939,59.364,84.282
	c36.664,20.594,69.69,41.343,116.111,28.688c56.87-15.503,116.443-21.006,169.387-50.114
	c45.403-24.962,77.391-60.394,88.626-111.952c27.848-127.79-52.79-255.818-181.007-282.78
	c-103.883-21.845-205.125,3.397-308.845,22.931C485.932,1367.454,506.975,1468.691,522.648,1570.752z M590.181,1094.592
	c25.86-5.725,52.619-12.604,75.498-25.247c27.835-15.382,57.073-33.254,76.735-57.363c43.15-52.908,59.124-116.648,54.39-185.021
	c-6.74-97.336-63.262-153.404-160.725-155.744c-33.865-0.813-68.186,3.8-101.8,9.096c-56.49,8.899-112.582,20.328-170.545,31.006
	c25.677,137.972,50.796,272.937,76.655,411.885C492.395,1113.433,541.585,1105.351,590.181,1094.592z"/>
</svg>
