<?xml version="1.0" encoding="iso-8859-1"?>
<!-- Generator: Adobe Illustrator 19.0.0, SVG Export Plug-In . SVG Version: 6.00 Build 0)  -->
<svg version="1.1" id="Layer_1" xmlns="http://www.w3.org/2000/svg" xmlns:xlink="http://www.w3.org/1999/xlink" x="0px" y="0px"
	 viewBox="0 0 2000 2000" style="enable-background:new 0 0 2000 2000;" xml:space="preserve">
<path d="M20.431,998.485c-0.233-535.681,437.474-980.207,981.51-981.343c535.447-1.118,978.914,439.467,979.556,980.073
	c0.641,539.187-436.273,980.529-978.037,981.855C464.362,1980.389,20.436,1546.199,20.431,998.485z M124.824,986.209
	c-16.743,469.936,379.627,849.251,802.534,878.261c527.249,36.168,934.341-382.582,940.313-856.797
	c6.148-488.117-385.917-862.543-825.332-886.209C541.027,94.465,112.875,509.882,124.824,986.209z M234.344,994.678
	C224.02,593.592,564.91,229.343,1000.994,231.42c404.074,1.925,753.602,326.51,755.899,757.725
	c2.285,428.894-344.658,751.013-729.285,766.719C577.656,1774.237,223.492,1396.575,234.344,994.678z M866.919,637.186
	c-81.553,15.317-159.138,29.889-238.419,44.779c9.518,53.596,17.85,100.513,26.907,151.515
	c117.09-19.807,229.496-38.822,341.903-57.836c3.581,4.691,7.162,9.383,10.744,14.074
	c-98.722,175.606-197.445,351.213-298.239,530.504c20.284,30.059,42.353,62.764,65.935,97.709
	c71.168-10.082,139.976-19.83,210.661-29.844c12.157,53.31,22.366,98.074,33.279,145.93c16.961-5.228,28.163-8.681,42.672-13.153
	c-4.749-30.087-8.957-57.209-13.328-84.305c-4.283-26.548-14.973-56.098,33.506-62.285c10.674,46.863,20.949,91.97,32.048,140.695
	c15.942-4.569,29.831-8.55,43.183-12.377c-6.367-46.623-12.275-89.88-19.543-143.095c91.352-17.45,177.026-33.816,269.528-51.486
	c-10.83-55.83-20.307-104.682-29.942-154.347c-133.114,23.271-257.228,44.968-394.262,68.923
	c11.77-29.392,16.75-47.347,25.628-63.106c59.191-105.068,119.478-209.518,178.861-314.478
	c31.809-56.222,62.526-113.062,93.318-168.863c-27.414-36.218-50.559-66.795-73.326-96.874
	c-66.459,10.577-128.523,20.454-192.572,30.647c-12.347-52.33-23.291-98.716-35.274-149.501
	c-16.48,6.272-28.595,10.883-40.904,15.568c7.511,50.298,14.513,97.192,21.983,147.215c-18.99-1.085-30.855-1.762-43.536-2.486
	c-11.541-47.976-22.419-93.196-33.634-139.815c-16.407,4.776-27.863,8.11-42.327,12.32
	C849.94,539.993,857.935,585.759,866.919,637.186z"/>
</svg>
