<?xml version="1.0" encoding="utf-8"?>
<!-- Generator: Adobe Illustrator 25.1.0, SVG Export Plug-In . SVG Version: 6.00 Build 0)  -->
<svg version="1.1" id="Layer_1" xmlns="http://www.w3.org/2000/svg" xmlns:xlink="http://www.w3.org/1999/xlink" x="0px" y="0px"
	 viewBox="0 0 500 500" style="enable-background:new 0 0 500 500;" xml:space="preserve">
<path d="M450.7,333.4l0.5-175.2c11.5-2.5,20.2-12.8,20.2-25.1c0-14.2-11.5-25.7-25.7-25.7c-9,0-16.9,4.6-21.5,11.6l-150-86.6
	c0.6-2.2,0.9-4.4,0.9-6.8c0-14.2-11.5-25.7-25.7-25.7s-25.7,11.5-25.7,25.7c0,2.4,0.3,4.7,1,6.9L75.6,118.7
	c-4.6-6.8-12.4-11.2-21.2-11.2c-14.2,0-25.7,11.5-25.7,25.7c0,12.3,8.6,22.5,20.1,25.1v175.3c-11.5,2.6-20.1,12.8-20.1,25.1
	c0,14.2,11.5,25.7,25.7,25.7c7.6,0,14.4-3.3,19.1-8.5l152.5,88c-1.4,3.2-2.2,6.7-2.2,10.4c0,14.2,11.5,25.7,25.7,25.7
	s25.7-11.5,25.7-25.7c0-3.8-0.8-7.4-2.3-10.6L426,375.2c4.7,5.6,11.8,9.1,19.6,9.1c14.2,0,25.7-11.5,25.7-25.7
	C471.4,346.2,462.5,335.8,450.7,333.4z M420.4,128.4c-0.3,1.5-0.4,3.1-0.4,4.8c0,12.7,9.2,23.2,21.2,25.3l-0.5,174.9
	c-5.3,1-10,3.7-13.6,7.4l-149.1-97.4c1.5-3.6,2.3-7.5,2.3-11.6c0-15.2-11.2-27.9-25.9-30l0.4-151c6-1.3,11.2-4.7,14.8-9.4
	L420.4,128.4z M229.2,41.6c3.8,4.9,9.4,8.3,15.7,9.4l-0.4,151c-14.2,2.6-24.9,15-24.9,29.9c0,3.1,0.5,6,1.3,8.8L73.5,341.6
	c-3.8-4.3-9-7.2-14.8-8.3V158.5c12.1-2.1,21.3-12.6,21.3-25.3c0-1.8-0.2-3.5-0.5-5.2L229.2,41.6z M266.9,455.5
	c-4.6-4.3-10.7-6.9-17.5-6.9c-6.9,0-13.1,2.7-17.7,7.1L78.5,367.3c1-2.7,1.5-5.6,1.5-8.6c0-2.9-0.5-5.8-1.4-8.4l146.8-100.5
	c5.5,7.6,14.5,12.5,24.6,12.5c9.1,0,17.2-4,22.8-10.3l148.9,97.3c-1.1,2.9-1.8,6.1-1.8,9.4c0,2.7,0.4,5.3,1.2,7.8L266.9,455.5z"/>
</svg>
