<?xml version="1.0" encoding="iso-8859-1"?>
<!-- Generator: Adobe Illustrator 19.0.0, SVG Export Plug-In . SVG Version: 6.00 Build 0)  -->
<svg version="1.1" id="Layer_1" xmlns="http://www.w3.org/2000/svg" xmlns:xlink="http://www.w3.org/1999/xlink" x="0px" y="0px"
	 viewBox="0 0 500 500" style="enable-background:new 0 0 500 500;" xml:space="preserve">
<path d="M414.058,367.712c-46.193,26.775-92.718,53.742-138.862,80.488c1.55,20.143-7.433,32.354-23.324,32.822
	c-15.673,0.461-24.216-10.2-24.731-32.244c-45.762-26.702-92.173-53.783-139.52-81.409c-7.057,6.843-15.897,8.812-25.437,6.457
	c-5.874-1.45-10.254-5.419-13.402-10.531c-7.972-12.951-2.706-26.319,15.278-38.318c0-52.409,0-105.091,0-158.437
	c-1.934-1.145-4.233-2.444-6.471-3.841c-12.18-7.605-15.907-23.016-8.319-34.307c7.621-11.339,23.385-13.949,34.933-5.711
	c2.153,1.536,4.087,3.378,6.59,5.469c45.637-25.806,91.072-51.498,136.029-76.92c1.462-22.258,10.666-33.302,26.043-32.168
	c15.093,1.114,23.128,12.426,22.534,32.656c44.837,25.215,90.039,50.636,135.759,76.347c2.129-1.684,4.128-3.36,6.224-4.906
	c11.544-8.518,26.773-6.538,35.165,4.542c8.226,10.86,5.234,25.987-6.914,34.521c-2.185,1.535-4.616,2.718-7.381,4.323
	c0,52.93,0,105.932,0,158.747c18.404,12.204,23.345,24.791,15.118,37.972C445.309,376.183,431.754,377.877,414.058,367.712z
	 M93.41,359.549c45.936,26.749,92.328,53.764,139.172,81.041c12.415-10.996,24.932-9.82,37.338-0.594
	c46.856-27.168,93.293-54.093,139.143-80.678c0-6.834,0-12.222,0-18.28c-45.394-29.141-90.946-58.385-136.881-87.874
	c-14.2,11.622-28.37,11.436-42.428-0.471c-45.913,30.276-91.416,60.282-136.344,89.909C93.41,348.64,93.41,353.589,93.41,359.549z
	 M231.615,59.68c-46.326,26.216-92.096,52.118-137.865,78.019c-0.485,7.024-1.566,13.451-5.015,18.136
	c-3.479,4.726-9.308,7.721-14.334,11.652c-1.655,29.642-0.903,149.262,1.038,158.552c4.592,2.618,9.219,5.255,13.697,7.809
	c45.517-30.065,90.683-59.899,135.395-89.433c-3.916-21.424,0.131-29.022,21.185-41.221c0-45.065,0-90.288,0-135.517
	C240.998,65,236.687,62.556,231.615,59.68z M277.954,245.27c45.979,29.512,91.544,58.758,136.78,87.794
	c4.944-2.739,8.959-4.963,13.022-7.215c0-53.254,0-106.299,0-159.871c-13.322-4.637-20.067-14.025-19.272-28.277
	c-46.363-26.056-92.255-51.847-138.154-77.642c-4.965,2.911-9.552,5.6-14.028,8.224c0,45.41,0,90.295,0,134.929
	C277.889,214.925,281.587,221.935,277.954,245.27z"/>
</svg>
