<?xml version="1.0" encoding="iso-8859-1"?>
<!-- Generator: Adobe Illustrator 19.0.0, SVG Export Plug-In . SVG Version: 6.00 Build 0)  -->
<svg version="1.1" id="Layer_1" xmlns="http://www.w3.org/2000/svg" xmlns:xlink="http://www.w3.org/1999/xlink" x="0px" y="0px"
	 viewBox="0 0 500 500" enable-background="new 0 0 500 500" xml:space="preserve">
<path d="M494.117,249.113c1.796,131.542-109.009,249.758-254.991,244.155C116.389,488.558,0.428,384.71,5.731,238.109
	C10.153,115.867,113.729-0.94,261.35,4.797C385.548,9.624,494.972,113.391,494.117,249.113z M268.466,105.047
	c-12.547,0-24.467,0-37.057,0c0-21.226,0-42.089,0-62.985c-41.35,2.875-93.554,21.894-133.186,65.107
	c-44.181,48.173-62.57,105.119-54.238,170.113c13.106,102.226,101.888,173.6,187.686,178.29c0-20.908,0-41.79,0-62.578
	c12.533,0,24.452,0,36.855,0c0,21.216,0,41.975,0,63.625c76.007-10.104,133.59-46.97,167.293-115.46
	c36.556-74.288,29.648-147.255-18.259-214.602c-36.03-50.65-86.85-77.861-149.094-84.889
	C268.466,63.253,268.466,83.888,268.466,105.047z M148.759,155.828c0,12.066,0,23.688,0,35.267c67.747,0,135.121,0,202.596,0
	c0-11.915,0-23.42,0-35.267C283.43,155.828,216.076,155.828,148.759,155.828z M148.731,306.817c0,11.986,0,23.602,0,35.354
	c67.703,0,135.063,0,202.628,0c0-11.9,0-23.405,0-35.354C283.537,306.817,216.162,306.817,148.731,306.817z M351.286,231.368
	c-67.673,0-135.063,0-202.57,0c0,11.943,0,23.563,0,35.305c67.62,0,134.911,0,202.57,0
	C351.286,254.575,351.286,243.097,351.286,231.368z"/>
</svg>
