<?xml version="1.0" encoding="iso-8859-1"?>
<!-- Generator: Adobe Illustrator 19.0.0, SVG Export Plug-In . SVG Version: 6.00 Build 0)  -->
<svg version="1.1" id="Layer_1" xmlns="http://www.w3.org/2000/svg" xmlns:xlink="http://www.w3.org/1999/xlink" x="0px" y="0px"
	 viewBox="0 0 2000 2000" style="enable-background:new 0 0 2000 2000;" xml:space="preserve">
<path d="M1834.185,691.855c-32.217,0-56.67,0-84.647,0C1604.664,368.868,1347.47,209.975,997.8,190.398
	c-348.522,20.295-605.148,178.886-752.107,503.393c-14.162,0-27.091,0-40.021,0c-11.561,0-23.123,0-40.29,0
	c9.083-22.851,15.484-41.902,24.019-59.943c49.28-104.167,111.9-198.63,197.206-277.607
	c76.183-70.531,162.287-124.963,256.623-167.046c56.838-25.355,115.377-46.368,177.041-55.841c64.07-9.843,127.023-29.843,193-24.03
	c24.528,2.161,49.501,3.31,73.279,9.038c39.182,9.438,79.355,11.162,118.764,21.073c73.535,18.494,143.2,44.741,210.067,79.83
	c86.691,45.492,164.291,102.607,231.618,174.049c53.075,56.319,97.338,118.619,133.179,186.907
	C1798.226,614.604,1814.095,650.127,1834.185,691.855z M1744.716,1325.199c-27.406,58.931-59.655,114.657-97.468,167.892
	c-43.308,60.97-93.933,115.015-154.329,156.86c-60.554,41.955-123.687,81.368-194.074,107.534
	c-80.964,30.098-163.025,52.75-249.879,54.045c-39.324,0.587-78.672,0.083-118.003-0.401
	c-64.387-0.793-126.435-16.648-186.791-36.095c-76.905-24.78-148.755-61.693-214.736-109.014
	c-47.613-34.148-94.992-68.421-133.404-113.623c-53.317-62.74-97.862-131.01-134.012-204.891
	c-5.622-11.49-11.951-22.635-17.688-33.439c-27.121,0.109-51.512-1.917-75.564,1.181c0,7.788-1.27,12.222,0.186,15.412
	c34.048,74.609,70.48,147.953,120.994,213.156c19.019,24.55,37.502,50.1,59.897,71.323c42.292,40.077,83.534,83.068,131.95,114.454
	c73.572,47.693,150.086,91.245,235.613,117.414c74.982,22.942,149.672,43.208,228.618,43.325
	c32.781,0.049,65.566-0.211,98.343,0.233c92.546,1.254,180.689-21.829,265.921-53.871c86.578-32.548,167.876-76.121,240.819-134.623
	c56.729-45.498,108.18-95.725,152.102-153.477c45.063-59.252,80.987-124.052,111.773-191.7c5.661-12.44,9.382-25.762,14.983-41.432
	c-27.445,0-50.724,0-77.709,0C1751.052,1316.981,1746.85,1320.609,1744.716,1325.199z M268.822,1244.689
	c72.155,2.516,129.849-27.055,172.869-82.499c35.539-45.802,53.938-97.969,33.189-157.351c3.257-5.4,5.362-12.611,10.171-16.26
	c30.24-22.948,39.221-56.88,48.295-90.8c15.025-56.167-20.399-121.268-89.255-132.714c-45.721-7.6-93.325-2.761-139.871-1.31
	c-10.865,40.471-20.864,77.719-31.561,117.565c39.865,15.509,82.965,0.015,124.427,10.899c2.256,7.276,4.46,14.382,6.848,22.08
	c-7.859,8.234-14.932,15.644-21.015,22.017c-43.074,5.72-85.12-2.736-125.759,5.392c-11.635,41.173-22.406,79.289-34.194,121.004
	c40.533,0,78.109,0,114.89,0c7.503,8.74,13.203,15.38,17.964,20.926c-7.686,28.13-25.72,35.697-50.725,35.66
	c-31.035-0.046-62.385-3.514-96.547,3.54c-10.904,38.298-21.803,76.58-34.643,121.679
	C209.095,1244.516,238.992,1243.649,268.822,1244.689z M1768.199,763.68c-7.773,0.321-15.803,0.765-23.199,2.937
	c-113.931,33.453-198.26,101.344-240.374,214.313c-26.393,70.797-25.929,140.91,25.863,202.304
	c32.37,38.372,75.186,56.852,129.169,60.102c11.148-40.471,21.889-79.464,33.003-119.81c-12.28-5.456-22.246-8.645-30.91-13.958
	c-30.053-18.432-48.05-45.461-44.215-80.979c3.796-35.165,16.349-67.811,43.806-92.978c26.364-24.165,56.021-41.84,91.433-49.414
	c3.054-6.577,6.592-12.151,8.31-18.238c9.387-33.256,18.327-66.638,28.146-102.635
	C1780.619,764.585,1774.38,763.424,1768.199,763.68z M929.944,1085.666c14.779-53.845,28.593-107.956,42.618-162.005
	c13.527-52.133,29.804-103.663,39.752-160.713c-23.962,0-43.379,0-62.796,0c-19.379,0-38.758,0-59.501,0
	c-8.823,33.295-16.64,63.336-24.749,93.297c-32.542,120.233-65.296,240.409-97.496,360.733c-2.125,7.942-0.277,16.947-0.277,25.895
	c39.95,0,77.583,0,117.431,0C900.148,1189.885,915.6,1137.927,929.944,1085.666z M178.303,1120.69
	c10.156-38.833,20.461-77.626,30.824-116.404c10.685-39.985,21.12-80.043,32.397-119.862
	c11.087-39.149,25.026-77.624,29.306-120.829c-42.685-0.832-81.323-1.238-121.633,0.059
	C107.246,923.06,66.119,1079.32,25.058,1235.596c-0.309,1.176-0.071,2.764,0.513,3.831c0.576,1.052,1.915,1.686,6.097,5.089
	c8.309,0,19.905,0,31.502,0c26.032,0,52.063,0,83.118,0C157.623,1200.635,167.857,1160.635,178.303,1120.69z M928.216,1730.073
	c14.491-26.286,10.618-53.292,4.766-82.515c-229.364-23.142-388.866-149.487-506.774-332.273c-29.977,0-55.85,0-82.307,0
	C423.478,1510.981,646.153,1699.849,928.216,1730.073z M1359.389,1541.068c-86.512,61.953-185.884,94.752-293.017,106.62
	c-3.636,28.595-4.202,55.136,0.091,81.799c277.301-23.896,519.496-226.943,583.594-414.911c-25.059,0-49.822,0-81.623,0
	C1516.937,1405.943,1444.294,1480.267,1359.389,1541.068z M642.213,464.506c86.693-60.748,184.21-91.303,288.988-105.906
	c1.428-24.848,2.811-48.909,4.195-72.988c-189.182-8.936-480.447,148.586-593.207,405.904c29.205,0,57.527,0,85.858,0
	C485.385,599.617,555.969,524.939,642.213,464.506z M1517.751,491.3c-28.264-31.12-64.062-55.885-98.318-80.98
	c-86.166-63.122-183.84-100.886-287.354-123.897c-20.965-4.661-43.358-2.9-66.008-4.15c0,28.188,0,52.388,0,78.592
	c50.315,1.792,95.413,17.655,141.379,31.151c60.723,17.829,113.238,50.099,165.317,83.98c29.591,19.251,51.869,46.749,78.016,69.752
	c42.496,37.387,76.596,80.602,105.196,128.873c3.91,6.599,9.74,12.061,14.779,18.167c26.971,0,52.981,0,85.285,0
	C1620.693,614.881,1571.782,550.792,1517.751,491.3z M935.887,457.762c-6.422-0.886-11.354-1.914-16.328-2.194
	c-27.911-1.568-53.291,8.61-79.744,15.388c-36.58,9.372-70.997,23.207-102.692,42.363
	c-69.387,41.936-132.065,92.264-180.803,158.117c-4.03,5.446-6.966,11.702-12.276,20.766c35.665,0,66.738,0,100.562,0
	c35.158-41.773,79.89-74.964,128.166-103.5c49.459-29.236,106.985-36.392,163.114-56.458
	C935.887,505.109,935.887,482.051,935.887,457.762z M908.791,1464.868c-57.317-7.456-108.702-30.634-158.487-59.181
	c-42.228-24.214-75.476-58.574-110.39-92.08c-31.26,0.604-62.08-0.756-96.499,0.986c31.344,51.873,69.492,90.116,113.102,123.495
	c88.438,67.689,142.35,92.874,258.112,119.152c5.657,1.284,12.203-1.343,21.202-2.526c2.786-24.685,1.291-47.901,1.543-68.658
	C930.868,1471.804,921.885,1466.572,908.791,1464.868z M1332.519,563.209c-64.036-50.719-135.471-85.58-214.431-104.522
	c-16.545-3.969-35.622-7.574-53.285,0.809c0,24.944,0,48.34,0,75.483c53.62,13.071,108.602,25.029,156.763,52.748
	c49.243,28.341,96.484,60.667,129.712,104.13c35.198,0,66.281,0,104.059,0C1417.307,638.957,1377.574,598.895,1332.519,563.209z
	 M1449.584,1315.576c-31.88,0-62.897,0-93.714,0c-21.019,19.197-40.992,39.726-63.353,57.199
	c-21.215,16.578-43.97,31.797-67.812,44.232c-24.969,13.024-51.645,23.148-78.301,32.464c-26.327,9.201-53.56,15.807-80.608,23.612
	c-0.781,7.169-1.771,12.254-1.815,17.347c-0.182,20.874-0.076,41.75-0.076,65.486
	C1212.889,1548.289,1399.69,1417.3,1449.584,1315.576z M1123.73,1183.16c5.614-20.43,18.297-39.94,10.126-62.115
	c-61.817,0-121.363,0-184.46,0c-11.701,39.917-23.116,78.859-34.73,118.483c7.205,2.474,10.743,4.737,14.29,4.751
	c57.326,0.221,114.652,0.156,172.373,0.156C1120.221,1224.961,1118.32,1202.847,1123.73,1183.16z M1786.256,886.395
	c35.436,4.64,56.194,25.101,72.525,52.649c41.406-23.82,80.419-46.264,120.839-69.516
	c-36.308-63.552-82.834-105.497-161.817-106.113C1806.664,806.838,1796.792,845.325,1786.256,886.395z M1907.569,1135.217
	c-30.234-23.619-58.359-45.59-87.586-68.423c-27.257,33.883-65.696,41.503-99.292,57.225
	c-4.474,41.229-25.999,76.686-25.693,119.137C1781.597,1236.07,1847.422,1195.383,1907.569,1135.217z"/>
</svg>
