<?xml version="1.0" encoding="iso-8859-1"?>
<!-- Generator: Adobe Illustrator 19.0.0, SVG Export Plug-In . SVG Version: 6.00 Build 0)  -->
<svg version="1.1" id="Layer_1" xmlns="http://www.w3.org/2000/svg" xmlns:xlink="http://www.w3.org/1999/xlink" x="0px" y="0px"
	 viewBox="0 0 2000 2000" style="enable-background:new 0 0 2000 2000;" xml:space="preserve">
<path d="M407.741,993.753c-85.686-85.374-170.596-169.194-254.626-253.887C37.741,623.582,2.528,482.675,45.944,328.134
	C90.017,171.252,199.11,70.371,358.558,36.925C507.422,5.699,639.326,47.78,748.234,157.451
	c225.295,226.872,451.388,452.952,680.383,682.596c25.971-26.649,50.048-51.57,74.36-76.261
	c64.224-65.225,133.175-126.485,191.657-196.497c72.259-86.506,58.84-211.313-20.994-277.85
	c-83.978-69.991-209.681-58.295-287.117,25.393c-33.803,36.532-69.999,70.849-108.216,109.298
	c-25.407-26.256-49.449-51.58-74.031-76.369c-24.077-24.28-48.704-48.016-75.474-74.335
	c86.498-77.064,152.281-175.271,263.64-220.615c248.449-101.166,525.546,46.058,570.995,306.925
	c25.794,148.05-15.835,274.82-122.662,380.677c-84.306,83.541-167.814,167.886-253.639,253.839
	c6.876,7.485,13.173,14.855,20.001,21.694c81.059,81.186,163.2,161.319,243.078,243.648c118.213,121.84,151,267.85,99.06,426.533
	c-49.101,150.011-157.222,244.426-313.835,274.457c-141.865,27.202-268.476-8.095-372.133-111.202
	c-226.039-224.839-451.148-450.613-676.384-676.257c-9.092-9.109-15.61-20.788-25.046-33.604
	c-68.038,68.399-130.111,130.607-191.943,193.054c-26.046,26.305-53.344,51.64-77.035,79.958
	c-89.412,106.875-51.534,283.866,98.668,320.453c74.107,18.051,141.291-2.032,196.572-54.92
	c39.814-38.091,77.302-78.613,114.174-116.358c53.956,54.083,104.921,105.169,157.897,158.269
	c-90.884,87.846-171.775,193.751-309.035,229.62c-216.652,56.616-451.288-73.661-506.766-291.342
	c-38.936-152.773-7.122-291.392,106.686-406.067c77.975-78.568,156.439-156.651,234.629-235.006
	C392.681,1010.206,399.235,1002.826,407.741,993.753z M1746.646,1552.053c1.57-59.452-20.67-109.107-62.217-150.718
	c-69.669-69.779-139.411-139.486-209.136-209.208C1182.184,899.033,889.21,605.804,595.86,312.951
	c-75.115-74.988-191.909-83.199-271.518-20.723c-94.768,74.372-94.977,222.17-3.131,309.951
	c105.208,100.551,206.622,205.074,309.615,307.94c260.234,259.913,520.34,519.955,780.714,779.727
	c55.238,55.11,147.771,71.53,220.542,40.423C1704.406,1699.354,1746.702,1633.566,1746.646,1552.053z"/>
</svg>
