<?xml version="1.0" encoding="iso-8859-1"?>
<!-- Generator: Adobe Illustrator 19.0.0, SVG Export Plug-In . SVG Version: 6.00 Build 0)  -->
<svg version="1.1" id="Layer_1" xmlns="http://www.w3.org/2000/svg" xmlns:xlink="http://www.w3.org/1999/xlink" x="0px" y="0px"
	 viewBox="0 0 500 500" enable-background="new 0 0 500 500" xml:space="preserve">
<path d="M250.12,491.579c-12.349,0-24.698,0.04-37.047-0.04c-1.99-0.013-3.968,0.423-6.041-0.627
	c-1.564-0.792-3.812,0.415-5.524-0.909c-4.301,0.059-8.308-1.499-12.402-2.444c-5.697-1.314-11.28-3.129-16.846-4.962
	c-4.269-1.406-8.406-3.176-12.721-4.459c-1.847-0.549-3.553-1.561-5.34-2.321c-6.94-2.95-13.822-6.083-20.371-9.774
	c-5.123-2.887-10.438-5.519-15.173-9.111c-2.038-1.546-4.495-2.531-6.593-4.011c-3.482-2.456-6.849-5.078-10.225-7.681
	c-3.693-2.847-7.419-5.66-10.987-8.659c-3.16-2.656-6.175-5.491-9.157-8.348c-3.13-2.998-6.138-6.123-9.213-9.18
	c-3.731-3.708-7.147-7.68-10.342-11.865c-1.865-2.443-4.186-4.536-6.068-6.968c-2.902-3.749-5.667-7.608-8.37-11.505
	c-1.966-2.834-3.695-5.831-5.606-8.704c-1.842-2.77-3.12-5.88-5.25-8.483c-0.589-0.719-0.707-1.804-1.16-2.658
	c-1.829-3.45-3.86-6.801-5.527-10.326c-3.115-6.584-5.981-13.27-8.656-20.063c-2.456-6.237-4.395-12.628-6.624-18.925
	c-1.549-4.375-2.4-9.003-3.475-13.539c-1.002-4.229-1.724-8.517-2.529-12.783c-0.707-3.748-0.746-7.663-2.209-11.269
	c-0.046-0.113,0.001-0.261-0.007-0.392c-0.261-4.095-0.686-8.188-0.737-12.286c-0.042-3.341-1.204-6.524-0.904-9.926
	c0.299-3.389,0.066-6.826,0.066-10.241c0-3.416-0.093-6.835,0.034-10.246c0.08-2.131,0.592-4.244,0.726-6.377
	c0.131-2.094-0.44-4.346,0.149-6.267c0.705-2.302,0.5-4.536,0.697-6.802c0.094-1.088,0.531-2.143,0.75-3.225
	c0.22-1.088-0.442-2.325,0.703-3.286c0.266-0.223,0.031-0.998,0.103-1.508c0.192-1.349-0.346-2.691,0.673-4.085
	c0.717-0.981-0.509-2.826,0.895-3.934c-0.051-3.038,0.881-5.903,1.587-8.803c0.867-3.566,1.577-7.163,2.854-10.637
	c0.884-2.406,1.126-5.041,1.904-7.494c0.806-2.54,2.065-4.937,2.858-7.48c2.25-7.212,5.208-14.129,8.382-20.967
	c1.534-3.304,2.641-6.866,4.572-9.911c2.899-4.568,5.149-9.489,8.171-13.996c2.322-3.463,4.389-7.116,6.697-10.612
	c2.333-3.534,4.807-6.961,7.334-10.351c2.63-3.53,5.304-7.032,8.09-10.439c2.115-2.586,4.355-5.082,6.683-7.478
	c4.211-4.334,8.511-8.582,12.806-12.832c5.093-5.039,10.696-9.475,16.229-14.018c6.495-5.334,13.437-9.986,20.38-14.65
	c3.655-2.455,7.528-4.603,11.404-6.704c5.999-3.25,11.985-6.554,18.168-9.423c4.058-1.883,8.318-3.419,12.423-5.199
	c4.478-1.942,9.374-2.709,13.619-5.187c3.379-0.159,6.321-1.909,9.554-2.665c2.841-0.664,5.699-1.39,8.508-2.248
	c2.111-0.644,4.267-1.395,6.438-1.528c3.658-0.225,7.05-2.01,10.772-1.648c1.573-1.23,3.723-0.147,5.105-0.948
	c1.834-1.063,3.555-0.282,5.278-0.624c1.59-0.316,3.068-1.031,4.802-0.846c1.469,0.157,3.083,0.433,4.412-0.717
	c0.15-0.13,0.51-0.023,0.773-0.017c9.363,0.203,18.711-1.694,28.035-0.654c4.517,0.504,9.004,0.331,13.473,0.756
	c1.435,0.137,2.897,0.61,4.409,0.727c1.363,0.106,2.685-0.302,4.151,0.436c1.262,0.636,3.049,0.165,4.588,0.335
	c1.219,0.135,2.41,0.51,3.618,0.76c1.334,0.275,2.668,0.55,4.009,0.785c1.219,0.214,2.406-0.145,3.699,0.637
	c1.167,0.706,2.915,0.548,4.345,0.753c1.74,0.249,3.371,1.023,5.164,1.011c1.751-0.011,3.3,1.316,4.873,1.426
	c3.543,0.247,6.751,1.545,10.03,2.542c7.907,2.404,15.678,5.2,23.388,8.217c7.951,3.112,15.462,7.095,23.128,10.761
	c4.301,2.057,8.123,5.089,12.317,7.398c4.023,2.215,7.77,4.801,11.487,7.462c3.758,2.691,7.545,5.334,11.24,8.122
	c4.362,3.29,8.139,7.261,12.615,10.393c0.636,0.445,1.126,1.099,1.683,1.657c3.809,3.809,7.67,7.567,11.411,11.44
	c3.599,3.726,7.311,7.381,10.549,11.409c4.699,5.845,9.179,11.87,13.597,17.947c4.461,6.136,8.134,12.724,12.268,19.032
	c3.32,5.065,5.776,10.712,8.437,16.188c2.014,4.146,3.915,8.366,5.562,12.669c2.128,5.561,3.86,11.273,5.939,16.854
	c1.448,3.887,2.339,7.936,3.736,11.844c0.765,2.139,1.077,4.524,1.711,6.781c0.699,2.492,1.134,5.063,1.604,7.615
	c0.448,2.429,1.182,4.863,1.42,7.244c0.239,2.398,0.797,4.744,0.983,7.143c0.135,1.74,0.503,3.462,0.763,5.193
	c0.241,1.603-0.603,3.365,0.762,4.822c0.197,0.21,0.064,0.767,0.022,1.156c-0.549,5.059,0.987,9.996,0.828,15.046
	c-0.157,4.987,0.068,9.986-0.062,14.975c-0.144,5.543-0.174,11.124-0.9,16.603c-0.354,2.668-0.117,5.416-0.757,7.941
	c-0.945,3.731-1.008,7.586-2.102,11.311c-0.533,1.813-0.553,3.958-0.944,5.934c-0.836,4.226-1.833,8.411-2.859,12.598
	c-1.98,8.079-4.807,15.872-7.378,23.755c-0.981,3.007-2.223,5.927-3.382,8.849c-2.237,5.636-4.948,11.098-7.7,16.512
	c-2.826,5.559-5.865,11-9.084,16.362c-3.369,5.611-7.239,10.872-10.641,16.45c-1.691,2.773-3.822,5.303-5.937,7.788
	c-3.315,3.894-6.666,7.774-9.917,11.705c-5.597,6.767-12.065,12.637-18.276,18.756c-4.517,4.451-9.605,8.342-14.585,12.298
	c-3.109,2.469-6.661,4.39-9.709,6.924c-4.042,3.36-8.738,5.672-12.977,8.698c-1.595,1.138-3.303,2.137-5.033,3.063
	c-6.448,3.452-12.753,7.252-19.45,10.134c-5.333,2.295-10.707,4.585-16.184,6.613c-5.47,2.026-11.013,3.859-16.523,5.745
	c-3.213,1.1-6.53,2.099-9.905,2.746c-1.464,0.28-3.315,0.07-4.314,0.898c-1.517,1.258-3.315-0.038-4.699,1.164
	c-1.176,1.021-3.143-0.516-4.274,1.087c-0.044,0.062-0.252-0.001-0.383,0.009c-3.438,0.261-6.875,0.725-10.315,0.751
	C274.818,491.635,262.469,491.579,250.12,491.579z M249.201,17.003c-5.97,0.54-13.273-0.896-20.484,0.762
	c-1.99,0.457-4.132-0.538-6.115,0.475c-1.96,1.001-4.213-0.198-6.293,1.028c-1.308,0.771-3.236-0.323-4.86,0.61
	c-1.4,0.804-3.331-0.286-4.676,1.068c-3.612-0.47-6.786,1.949-10.383,1.577c-5.772,2.38-11.947,3.413-17.857,5.396
	c-8.43,2.829-16.733,5.888-24.829,9.547c-9.694,4.381-19.106,9.294-28.057,15.039c-6.479,4.159-12.906,8.425-18.981,13.157
	c-5.016,3.908-9.995,7.913-14.607,12.279c-7.004,6.632-13.809,13.484-20.119,20.801c-0.171,0.198-0.413,0.346-0.549,0.563
	c-2.205,3.529-5.08,6.549-7.61,9.826c-2.07,2.681-3.924,5.49-5.866,8.245c-2.355,3.341-4.71,6.692-6.849,10.172
	c-3.08,5.009-6.095,10.067-8.885,15.24c-1.665,3.087-2.611,6.564-4.294,9.639c-3.051,5.574-4.802,11.684-7.529,17.388
	c-1.094,2.287-1.612,4.846-2.42,7.272c-0.768,2.308-2.06,4.568-2.232,6.914c-0.196,2.684-2.211,4.86-1.705,7.615
	c-1.871,3.679-2.266,7.796-3.009,11.728c-0.669,3.542-2.085,7.028-1.721,10.75c-1.759,2.573-0.31,5.651-1.423,8.473
	c-0.829,2.103-0.162,4.718-0.84,7.131c-0.513,1.827,0.001,3.92-0.131,5.882c-0.126,1.871-0.665,3.721-0.723,5.589
	c-0.118,3.807-0.106,7.621-0.015,11.429c0.088,3.709-0.163,7.39,0.643,11.132c0.716,3.321-0.15,6.871,0.842,10.31
	c0.583,2.02-0.475,4.361,0.86,6.353c-0.226,3.575,0.944,6.939,1.465,10.4c0.649,4.314,1.46,8.571,2.483,12.798
	c1.097,4.534,1.88,9.187,3.452,13.552c1.975,5.482,3.405,11.143,5.88,16.485c1.515,3.269,2.522,6.826,4.06,10.137
	c1.587,3.415,3.122,6.855,4.744,10.253c1.258,2.636,2.569,5.249,3.943,7.826c1.609,3.019,3.009,6.214,5.041,8.927
	c3.214,4.289,5.787,8.984,8.957,13.316c3.379,4.616,6.841,9.197,10.256,13.791c3.043,4.094,6.416,7.997,10.023,11.605
	c4.588,4.588,8.97,9.374,14.025,13.538c4.137,3.408,7.966,7.224,12.257,10.483c3.697,2.808,7.283,5.781,11.134,8.359
	c3.884,2.6,7.729,5.263,11.805,7.602c4.353,2.498,8.624,5.131,13.07,7.482c5.275,2.79,10.539,5.58,16.073,7.833
	c4.05,1.649,8.058,3.373,12.198,4.823c2.982,1.044,5.991,2.02,8.98,3.044c2.995,1.026,5.975,2.143,9.04,2.902
	c4.406,1.091,8.836,2.051,13.194,3.357c2.022,0.606,4.487,0.075,6.291,0.978c2.155,1.079,4.424,0.225,6.578,1.304
	c1.529,0.766,3.652,0.211,5.55,0.823c1.73,0.558,3.691,0.135,5.588,0.788c1.527,0.525,3.387,0.004,5.085,0.136
	c1.61,0.125,3.198,0.698,4.8,0.723c5.911,0.091,11.829,0.177,17.736-0.003c5.936-0.181,11.889,0.668,17.825-0.665
	c2.685-0.603,5.562,0.129,8.355-0.785c1.606-0.526,3.429-0.185,5.2-0.763c1.723-0.562,3.706-0.498,5.569-0.765
	c4.321-0.618,8.576-1.457,12.793-2.516c6.642-1.668,13.377-2.925,19.821-5.426c4.409-1.711,9.024-2.835,13.429-4.698
	c4.355-1.843,8.808-3.457,13.103-5.481c6.182-2.913,12.294-5.944,18.139-9.496c3.251-1.975,6.58-3.824,9.779-5.878
	c4.063-2.609,8.079-5.298,12.02-8.087c2.57-1.819,4.874-4.021,7.479-5.781c1.941-1.311,3.368-3.228,5.275-4.412
	c1.921-1.192,3.264-2.87,4.911-4.275c1.746-1.49,3.639-2.839,5.22-4.486c4.315-4.496,9-8.61,12.932-13.516
	c2.862-3.572,5.866-7.074,8.915-10.491c4.052-4.542,7.411-9.586,10.942-14.465c3.938-5.44,7.441-11.265,10.519-17.284
	c2.607-5.098,5.638-9.958,7.95-15.23c3.222-7.346,6.304-14.732,9.004-22.289c1.845-5.163,3.179-10.484,5.079-15.629
	c0.594-1.608,0.261-3.576,0.924-5.137c0.737-1.736,0.982-3.542,1.452-5.306c0.448-1.681,0.228-3.601,0.915-5.142
	c0.832-1.868,0.063-3.977,0.909-5.523c0.967-1.767,0.488-3.63,1.197-5.429c0.783-1.986,0.289-4.444,0.852-6.727
	c0.533-2.159-0.201-4.583,0.896-6.742c-0.549-4.797,0.822-9.488,0.793-14.258c-0.024-3.941,0.098-7.887-0.034-11.824
	c-0.132-3.969-0.49-7.93-0.762-11.893c-0.254-3.702-0.524-7.403-0.785-11.104c-0.009-0.131,0.056-0.319-0.01-0.386
	c-1.274-1.296-0.59-2.929-0.793-4.41c-0.202-1.476-0.553-2.932-0.765-4.407c-0.305-2.118-0.189-4.374-0.906-6.333
	c-0.782-2.137-0.838-4.356-1.45-6.487c-0.61-2.123-1.049-4.295-1.6-6.435c-0.886-3.44-1.574-6.954-2.759-10.29
	c-1.951-5.495-3.703-11.056-5.774-16.52c-2.546-6.719-5.616-13.184-8.44-19.764c-1.15-2.681-2.872-5.159-4.174-7.744
	c-3.052-6.061-6.754-11.684-10.407-17.351c-2.622-4.067-5.25-8.168-8.291-11.917c-2.641-3.256-4.721-6.996-8.015-9.714
	c-0.599-2.148-2.614-3.116-3.904-4.688c-1.29-1.572-2.489-3.238-3.918-4.674c-6.851-6.886-13.523-13.961-21.326-19.835
	c-2.35-1.77-4.329-4.035-6.689-5.79c-4.288-3.189-8.692-6.228-13.123-9.217c-5.807-3.916-11.721-7.668-17.954-10.885
	c-6.053-3.124-12.035-6.362-18.349-8.991c-5.271-2.194-10.493-4.497-15.904-6.329c-4.382-1.483-8.717-3.232-13.214-4.214
	c-4.575-0.999-8.829-3.348-13.651-3.252c-4.194-2.027-8.975-1.498-13.307-3.074c-1.704-0.62-3.675-0.115-5.604-0.717
	c-1.827-0.571-4-0.761-5.936-0.81c-5.424-0.138-10.764-1.386-16.229-0.963C257.055,17.21,253.754,17.003,249.201,17.003z
	 M280.869,223.941c4.19,1.019,8.061,2.473,11.973,3.843c3.747,1.312,6.965,3.506,10.417,5.291c1.872,0.968,3.488,2.526,5.031,4.013
	c3.164,3.049,6.427,6.03,8.923,9.692c0.753,1.105,1.339,2.328,1.962,3.518c1.864,3.557,3.851,7.084,4.71,11.047
	c0.68,3.135,2.335,6.025,2.108,9.407c-0.097,1.443,0.47,2.93,0.727,4.398c0.235,1.342-0.631,2.9,0.79,4.008
	c-0.338,3.853,0.648,7.763-0.552,11.59c-0.261,0.831-0.188,1.772-0.233,2.663c-0.319,6.368-2.024,12.48-4.376,18.287
	c-1.769,4.366-3.737,8.779-6.66,12.61c-1.29,1.69-2.671,3.332-3.77,5.142c-1.829,3.013-4.71,4.927-7.269,7.13
	c-3.931,3.386-8.43,5.955-13.397,7.557c-3.025,0.976-6,2.067-9.183,2.639c-2.025,0.364-4.109,1.151-6.125,1.229
	c-4.5,0.174-8.911,1.238-13.466,0.946c-4.448-0.284-8.93,0.025-13.393-0.097c-2.392-0.065-4.769-0.591-7.163-0.725
	c-2.357-0.131-4.86,0.454-7.057-0.152c-2.693-0.743-5.415-0.135-7.963-0.747c-5.254-1.263-10.551-0.304-16.067-0.837
	c0-1.258,0-2.54,0-3.823c0-74.082,0-148.165,0-222.247c0-0.919-0.112-1.857,0.036-2.752c0.115-0.698,0.554-1.342,0.9-2.126
	c5.974,0.76,11.677-1.196,17.506-0.69c3.904-1.159,8.039-0.132,11.856-0.943c4.548-0.966,9.062-0.849,13.487-0.497
	c6.618,0.526,13.233,1.285,19.5,4.203c3.532,1.645,7.31,2.995,10.384,5.27c4.401,3.257,8.472,6.956,11.847,11.462
	c2.474,3.303,4.922,6.658,6.58,10.321c1.841,4.066,4.179,8.14,4.08,12.886c1.436,3.048,1.167,6.386,1.741,9.563
	c0.582,3.222,0.765,6.393,0.56,9.551c-0.475,7.311-1.389,14.485-4.47,21.381c-1.795,4.018-3.85,7.659-6.496,11.119
	c-1.248,1.632-2.495,3.231-3.978,4.627c-3.928,3.697-8.223,6.888-13.116,9.225C281.097,222.999,281.078,223.362,280.869,223.941z
	 M228.967,235.371c0,9.11-0.165,17.902,0.046,26.686c0.212,8.821-0.857,17.669,0.69,26.473c0.548,3.121-0.3,6.349,0.736,9.548
	c0.578,1.783-0.465,4.153,0.254,5.811c0.824,1.9-0.015,4.087,1.427,5.715c0.071,4.04,1.323,7.686,3.069,11.341
	c2.186,4.574,4.449,7.683,8.369,8.933c1.627,0.519,3.245,1.254,4.854,1.544c1.83,0.33,3.77,0.846,5.558,0.805
	c5.931-0.136,11.857,0.668,17.827-0.538c3.4-0.687,6.732-1.4,10.035-2.469c6.491-2.103,13.817-7.428,17.271-13.145
	c2.518-4.167,4.748-8.55,6.132-13.204c1.378-4.638,3.049-9.289,2.609-14.315c-0.117-1.33-0.448-2.773,0.684-4.058
	c0.391-0.444,0.319-1.641,0.017-2.288c-1.272-2.724-0.547-5.575-0.742-8.362c-0.045-0.641,0.11-1.367-0.138-1.912
	c-1.322-2.897-1.788-6.054-2.898-9.039c-2.746-7.385-9.047-16.374-15.769-20.423c-3.045-1.834-6.054-3.53-9.765-4.097
	c-2.662-0.407-5.227-1.607-8.037-1.43c-1.248-1.483-2.934-0.526-4.402-0.784c-1.595-0.28-3.195-0.747-4.794-0.757
	C251.106,235.339,240.212,235.371,228.967,235.371z M228.967,219.774c9.606-0.76,18.852,0.675,28.065-0.872
	c2.833-0.476,5.615-1.197,8.169-2.216c3.37-1.344,6.594-3.121,9.665-5.301c4.407-3.129,7.276-7.282,9.833-11.727
	c3.045-5.293,4.169-11.292,4.875-17.253c0.491-4.145,0.379-8.42,0.012-12.591c-0.345-3.923-1.004-7.806-2.108-11.687
	c-1.311-4.609-3.362-8.829-6.113-12.418c-4.801-6.263-11.205-10.811-18.767-13.452c-2.074-0.725-4.224-1.296-6.383-1.695
	c-1.97-0.364-3.957-0.178-6.01-0.664c-3.035-0.719-6.279,0.397-9.325,1.066c-2.678,0.589-5.15,2.12-7.544,3.162
	c-1.445,4.057-1.822,8.013-2.695,11.843c-0.582,2.553,0.272,5.366-0.885,7.927c0.603,5.45-0.956,10.779-0.841,16.225
	c0.193,9.191,0.053,18.388,0.053,27.583C228.967,204.913,228.967,212.121,228.967,219.774z M150.146,117.506
	c2.632,0.722,4.931,2.087,7.205,3.545c5.114,3.278,8.714,7.797,11.806,12.999c3.92,6.596,5.209,13.926,6.992,21.154
	c-0.594,3.89,0.822,7.629,0.818,11.495c-0.048,40.585-0.001,81.171-0.064,121.756c-0.008,5.277-0.487,10.553-0.761,15.829
	c-0.019,0.365-0.062,0.774-0.238,1.078c-0.964,1.665-1.054,3.672-1.17,5.373c-0.217,3.193-1.557,5.99-2.207,9.002
	c-0.724,3.361-2.867,6.163-4.211,9.28c-2.096,4.86-8.664,11.609-13.64,13.587c-1.805,0.717-3.519,1.664-5.248,2.494
	c0,1.276,0,2.42,0,3.69c2.998,0.242,5.833-0.222,8.736-0.584c4.968-0.62,9.993-0.078,15.049-0.732
	c6.902-0.894,13.947-0.682,20.931-0.953c0.24-0.009,0.476-0.114,0.781-0.191c0-76.62,0-153.256,0-229.617
	c-3.081-1.525-6.182-1.041-9.231-1.191c-3.835-0.188-7.747,0.713-11.496-0.765c-5.97,0.575-11.845-0.997-17.799-0.794
	c-0.914,0.031-2.138,0.358-2.687-0.096c-1.474-1.217-2.879-0.463-4.366-0.641c0,1.354-0.006,2.399,0.01,3.444
	c0.002,0.1,0.149,0.197,0.228,0.295C149.77,117.151,149.925,117.446,150.146,117.506z M362.014,301.093
	c0.562-1.181-0.194-2.544,0.863-3.954c0.799-1.066,0.91-2.867,0.847-4.32c-0.29-6.72,0.664-13.447-0.652-20.181
	c-0.924-4.732-2.181-9.346-4.118-13.677c-2.289-5.119-5.69-9.641-9.485-13.788c-1.271-1.389-2.995-2.354-4.362-3.668
	c-3.724-3.579-8.31-5.863-12.679-8.439c-2.379-1.403-5.128-2.18-7.707-3.244c-0.588-0.242-1.167-0.505-2.255-0.977
	c2.689,3.386,5.188,6.102,7.183,9.148c3.005,4.587,5.492,9.449,7.717,14.517c2.504,5.702,3.158,11.803,5.043,17.608
	c0.502,1.544-0.027,3.398,0.105,5.095c0.125,1.609,0.775,3.211,0.708,4.796c-0.222,5.277,0.707,10.58-0.663,15.849
	c-0.561,2.156-0.256,4.478-0.72,6.775c-0.709,3.513-1.445,6.992-2.49,10.423c-1.422,4.673-3.263,9.232-5.719,13.373
	c-2.841,4.792-6.52,9.087-10.087,13.94C343.149,333.521,355.666,320.312,362.014,301.093z M306.677,124.309
	c2.746,2.31,4.708,5.302,6.674,8.25c2.916,4.371,5.253,9.016,7.162,13.956c1.738,4.498,2.684,9.136,3.899,13.742
	c0.735,2.786,0.721,5.548,0.727,8.348c0.012,5.248,0.003,10.496,0.003,15.744c0,0.787,0.254,1.69-0.042,2.343
	c-1.639,3.614-1.515,7.684-3.084,11.32c-1.441,3.337-2.598,6.796-4.005,10.149c-0.423,1.007-1.263,1.839-1.912,2.751
	c-0.649,0.912-1.342,1.796-1.934,2.744c-0.534,0.855-0.957,1.779-1.494,2.796c0.701,0,1.321,0.189,1.716-0.029
	c4.989-2.744,10.263-5.056,14.242-9.352c1.336-1.443,2.865-2.713,4.147-4.2c2.517-2.921,4.85-5.955,6.607-9.452
	c1.758-3.499,3.056-7.125,4.342-10.807c1.219-3.488,1.299-7.087,1.832-10.628c0.372-2.471,0.196-5.044-0.63-7.558
	c-0.428-1.303,0.364-3.068-0.191-4.251c-0.635-1.355-1.089-2.776-1.361-4.144c-0.28-1.409-1.207-2.49-1.476-3.724
	c-1.174-5.387-4.667-9.527-7.726-13.696c-4.063-5.537-9.767-9.53-15.852-12.812c-4.514-2.435-9.469-3.752-14.256-5.489
	c-0.681-0.247-1.529-0.034-2.79-0.034C303.304,121.78,305.066,122.954,306.677,124.309z M170.525,383.483
	c-1.445,1.152-3.023,2.41-4.577,3.65c1.008,0.389,2.01,0.834,3.05,1.164c2.327,0.738,2.548,2.951,3.134,4.743
	c0.451,1.378-0.731,2.568-1.595,3.611c-1.531,1.851-3.424,2.827-5.968,2.734c-4.197-0.152-8.403-0.037-12.606-0.046
	c-0.61-0.001-1.221-0.073-1.836-0.639c1.234-0.081,2.468-0.162,3.823-0.252c0-6.959,0-13.883,0-20.908
	c-0.177-0.177-0.456-0.456-1.013-1.013c-0.695,0-1.669,0-2.814,0c0.23-0.473,0.317-0.811,0.406-0.811
	c4.202-0.026,8.405,0.004,12.607-0.034c2.062-0.019,4.011,0.399,5.591,1.706C170.546,378.892,170.91,380.996,170.525,383.483z
	 M158.083,398.555c2.012,0,3.709,0.003,5.406-0.001c1.608-0.004,3.434-0.63,3.768-1.937c0.417-1.633,1.77-3.217,0.593-5.328
	c-0.989-1.773-2.323-2.826-3.925-3.64c-1.933,0-3.86,0-5.842,0C158.083,391.275,158.083,394.771,158.083,398.555z M158.081,386.731
	c1.912,0,3.479,0,5.075,0c1.195-0.859,2.413-1.734,3.531-2.538c0-1.784,0-3.35,0-4.759c-1.098-2.175-3.238-2.39-5.104-2.887
	c-1.163-0.31-2.633-0.436-3.502,1.119C158.081,380.524,158.081,383.494,158.081,386.731z M255.457,375.852
	c-4.238,0-7.837,0-12.092,0c1.937,0.708,3.258,1.192,4.383,1.603c0,6.886,0,13.542,0,20.565c-1.317,0.291-2.541,0.562-3.765,0.832
	c1.837,0.492,3.639,0.529,5.439,0.481c1.819-0.048,3.674,0.214,5.492-0.472c-1.343-0.425-2.985,0.165-3.766-1.476
	c0-1.889,0-3.822,0-5.492c1.407-1.584,2.639-2.971,3.996-4.498c2.277,3.392,4.543,6.769,7.081,10.551
	c-1.58,0.353-2.826,0.631-4.072,0.91c3.554,0.487,7.058,0.492,10.561,0.466c0.12-0.001,0.237-0.312,0.464-0.63
	c-0.744,0-1.362,0-2.291,0c-3.184-4.534-6.406-9.122-9.555-13.605c2.586-2.586,5.081-5.081,7.6-7.6
	c1.062-0.401,2.239-0.846,3.416-1.291c-0.03-0.121-0.061-0.242-0.091-0.363c-3.336,0-6.673,0-10.181,0
	c1.204,0.925,2.242,1.723,3.11,2.39c-1.616,2.003-3.062,3.956-4.679,5.756c-1.605,1.787-3.381,3.421-5.369,5.409
	c0-4.255,0-8.024,0-11.887C252.355,377.038,253.623,376.553,255.457,375.852z M295.265,392.703
	c-0.304-1.476-0.029-2.642-0.649-3.957c-0.938-1.991,0.576-4.039,1.091-6.04c0.581-2.258,2.17-3.904,3.831-5.483
	c1.176-1.118,2.498-1.577,4.086-1.54c1.962,0.046,3.925,0.011,6.418,0.011c1.3,1.15,2.983,2.481,4.461,4.011
	c0.832,0.861,1.777,2.009,1.875,3.1c0.209,2.324,1.692,4.52,0.605,7.009c-0.873,2.001-1.342,4.056-2.647,6.007
	c-1.795,2.684-4.315,3.563-6.914,4.222c-3.35,0.848-6.456-0.626-8.991-2.714C297.069,396.207,296.335,394.322,295.265,392.703z
	 M308.211,398.534c4.358-3.575,5.129-6.518,4.991-10.911c-0.119-3.803-0.738-7.787-3.83-10.017c-1.561-0.497-2.611-0.83-3.812-1.213
	c-1.439,0.741-2.954,1.521-4.329,2.228c-0.702,1.37-1.315,2.565-2.099,4.094c0.256,3.93-0.723,8.339,0.93,12.282
	c1.262,1.323,2.346,2.458,3.374,3.535C305.098,398.534,306.668,398.534,308.211,398.534z M342.922,399.205
	c-1.518-0.767-2.543-1.286-3.563-1.801c-0.989-2.681-1.207-9.513-0.449-16.754c1.931,2.204,3.378,4.245,4.892,6.222
	c1.599,2.088,3.143,4.217,4.744,6.304c1.585,2.065,3.21,4.099,4.848,6.185c0.451-0.023,0.957-0.048,1.593-0.08
	c0-6.741,0-13.401,0-19.537c0.577-1.122,0.913-1.775,1.158-2.252c1.042-0.501,1.942-0.933,3.407-1.638c-3.488,0-6.3,0-9.595,0
	c1.479,1.052,2.559,1.82,3.396,2.415c0,5.358,0,10.434,0,15.509c-4.759-6.134-9.45-12.181-13.938-17.966c-2.109,0-3.781,0-5.673,0
	c1.223,0.94,2.255,1.734,3.219,2.475c0,6.188,0,12.226,0,18.459c-0.945,0.726-1.99,1.527-3.203,2.458
	C336.745,399.205,339.557,399.205,342.922,399.205z M227.994,396.398c-2.029-2.089-3.776-7.567-2.819-10.119
	c0.79-2.107,0.678-4.382,1.875-6.698c0.37-0.37,0.919-1.199,1.691-1.626c1.155-0.639,2.469-1.368,3.711-1.361
	c1.09,0.006,2.347,0.776,3.227,1.553c1.883,1.662,3.903,3.339,3.618,6.334c0.68-0.135,1.038-0.206,1.419-0.282
	c0-2.563,0-5.018,0-7.421c-0.423-0.394-0.78-0.726-1.068-0.996c-0.744,0.6-1.419,1.144-1.988,1.603
	c-0.734-0.733-1.281-1.28-1.691-1.691c-1.466,0-2.671,0.16-3.818-0.03c-3.506-0.581-6.003,1.081-7.924,3.649
	c-2.117,2.83-3.309,6.185-3.012,9.69c0.12,1.414,0.71,2.884,0.634,4.47c0.451,0.431,1.101,0.796,1.369,1.347
	c2.219,4.567,6.278,5.511,10.732,5.235c1.919-0.119,3.974-1.021,5.119-2.654c1.154-1.645,2.228-3.48,2.489-5.693
	c-0.363-0.105-0.713-0.207-1.35-0.392c-0.259,3.526-2.346,5.68-5.609,7.208c-1.223,0-2.788,0-4.483,0
	C229.291,397.697,228.634,397.056,227.994,396.398z M272.901,394.835c2.216,4.578,6.287,5.484,10.738,5.224
	c1.934-0.113,3.964-1.074,5.107-2.679c1.159-1.628,2.278-3.451,2.453-5.696c-0.355-0.094-0.708-0.188-1.232-0.328
	c-0.484,3.399-2.359,5.724-5.516,7.088c-1.53,0-3.199,0-4.748,0c-0.762-0.762-1.42-1.402-2.058-2.061
	c-2.033-2.1-3.741-7.556-2.793-10.121c0.779-2.106,0.714-4.371,1.807-6.622c0.629-0.629,1.464-1.464,2.368-2.368
	c0.445,0,1.172,0.222,1.44-0.036c1.857-1.779,3.387-0.342,4.604,0.667c2.018,1.674,4.144,3.45,3.913,6.591
	c0.68-0.151,1.037-0.23,1.473-0.327c0-2.305,0.078-4.525-0.051-6.734c-0.035-0.602-0.69-1.168-1.021-1.689
	c-0.837,0.657-1.516,1.189-2.32,1.821c-0.626-0.789-1.11-1.399-1.483-1.87c-2.612,0-4.973,0-7.753,0
	c-1.428,1.359-3.383,2.712-4.626,4.547c-1.19,1.758-1.736,3.988-2.391,6.065c-0.728,2.308,1.209,4.403,0.615,7.015
	C272,393.895,272.631,394.278,272.901,394.835z M206.476,375.696c0.556,0,1.08,0,1.646,0c2.939,7.553,5.883,15.12,8.816,22.659
	c1.007,0.147,1.73,0.253,2.525,0.37c-0.176,0.277-0.284,0.596-0.394,0.597c-3.241,0.027-6.481,0.022-9.76-0.538
	c0.921-0.107,1.843-0.214,2.805-0.326c0.335-0.335,0.706-0.706,0.98-0.979c-0.808-1.947-1.598-3.848-2.443-5.884
	c-2.916,0-5.898,0-9.1,0c-0.59,1.636-1.249,3.461-1.802,4.994c0.401,2.805,2.772,1.478,4.533,2.587c-3.406,0-6.216,0-9.027,0
	c1.728-0.809,2.952-2.195,3.422-3.905c0.907-3.299,2.439-6.354,3.623-9.529C203.558,382.365,204.853,378.936,206.476,375.696z
	 M210.209,390.546c-1.266-3.493-2.459-6.782-3.856-10.637c-1.564,3.823-2.913,7.123-4.35,10.637
	C204.835,390.546,207.365,390.546,210.209,390.546z M173.923,399.211c6.743,0,13.485,0,20.357,0c0-1.554,0.014-2.979-0.004-4.403
	c-0.018-1.381-0.07-2.761-0.122-4.742c-2.329,3.101-1.962,7.267-5.934,8.353c-2.056,0-4.25,0-6.295,0
	c-0.415-0.415-0.693-0.692-0.963-0.963c0-6.658,0-13.308,0-19.525c0.844-2.219,2.733-0.951,4.283-2.039
	c-4.118-0.354-7.788-0.146-12.375-0.201c2.098,1.268,4.22-0.037,4.829,2.271c0,6.373,0,12.918,0,19.864
	c-1.217,0.329-2.496,0.675-3.776,1.021C173.923,398.969,173.923,399.09,173.923,399.211z M332.199,375.849
	c-4.772,0-8.632,0-13.284,0c2.078,0.641,3.407,1.05,4.523,1.394c0,7.346,0,14.263,0,21.2c-1.356,0.094-2.585,0.179-3.814,0.265
	c3.504,0.636,6.998,0.644,10.493,0.626c0.439-0.002,0.877-0.135,1.316-0.208c-0.009-0.169-0.018-0.339-0.028-0.508
	c-1.239,0-2.477,0-3.806,0c0-7.192,0-14.108,0-21.425C328.797,376.843,330.085,376.467,332.199,375.849z"/>
</svg>
