<?xml version="1.0" encoding="iso-8859-1"?>
<!-- Generator: Adobe Illustrator 19.0.0, SVG Export Plug-In . SVG Version: 6.00 Build 0)  -->
<svg version="1.1" id="Layer_1" xmlns="http://www.w3.org/2000/svg" xmlns:xlink="http://www.w3.org/1999/xlink" x="0px" y="0px"
	 viewBox="0 0 2000 2000" style="enable-background:new 0 0 2000 2000;" xml:space="preserve">
<path d="M1003.593,1940.491c-232.707-5.202-441.937-74.115-625.872-215.007c-177.135-135.682-291.685-313.72-341.281-531.402
	c-29.216-128.236-26.341-257.133,5.643-385.229c75.576-302.68,263.371-510.657,542.654-639.553
	c116.096-53.581,239.619-80.742,367.766-85.876c297.154-11.907,554.993,82.503,766.926,291.419
	c141.446,139.433,230.498,308.654,255.56,507.7c7.566,60.09,14.089,121.444,10.507,181.589
	c-9.731,163.377-62.463,313.572-155.945,448.346c-88.782,128-202.818,228.382-339.997,302.064
	c-93.653,50.303-192.464,86.75-297.954,102.469C1129.152,1926.315,1066.277,1932.76,1003.593,1940.491z M1096.463,1792.84
	c368.342-23.294,796.606-357.689,748.21-863.986c-40.933-428.221-434.413-691.227-747.375-706.618c0,53.001,0,106.003,0,160.395
	c36.713,0,71.512-1.745,106.082,0.327c104.583,6.267,196.822,40.318,266.434,123.053c65.599,77.966,74.09,188.609,18.871,272.864
	c-65.387,99.769-166.207,140.367-277.948,143.725c-196.314,5.9-392.933,1.648-589.425,1.647c-8.949,0-17.899,0-26.006,0
	c0-183.181,0-362.215,0-543.174c75.15,0,148.157,0,223.199,0c0-49.243,0-96.542,0-146.549c-12.812,1.938-23.925,2.585-34.476,5.367
	c-192.416,50.737-352.504,151.778-473.581,310.498c-77.501,101.596-130.692,215.777-145.081,343.413
	c-7.594,67.357-2.774,136.333-0.787,204.496c2.509,86.072,32.5,165.476,69.741,241.339
	c56.753,115.611,138.611,211.496,242.035,288.567c101.829,75.882,215.297,125.981,340.297,153.989c0-55.426,0-109.147,0-164.941
	c-75.132,0-148.117,0-221.65,0c0-182.913,0-363.719,0-546.318c12.022,0,22.237,0,32.452,0c179.569,0,359.14,0.552,538.705-0.316
	c58.453-0.283,114.53,8.187,169.607,28.203c101.618,36.93,207.189,138.291,187.969,279.315
	c-8.773,64.371-39.611,117.729-91.804,157.01c-76.996,57.948-165.457,81.467-260.628,82.987c-24.934,0.398-49.879,0.06-74.839,0.06
	C1096.463,1678.55,1096.463,1734.7,1096.463,1792.84z M944.708,1618.821c0,61.434,0,120.135,0,180.263
	c10.857-0.759,19.848-1.388,29.098-2.034c0-60.591,0-119.133,0-178.229C963.383,1618.821,954.995,1618.821,944.708,1618.821z
	 M943.875,215.457c0,57.203,0,111.238,0,167.198c11.587-0.539,21.287-0.99,31.152-1.448c0-56.863,0-110.887,0-165.75
	C964.211,215.457,955.161,215.457,943.875,215.457z"/>
</svg>
