<?xml version="1.0" encoding="iso-8859-1"?>
<!-- Generator: Adobe Illustrator 19.0.0, SVG Export Plug-In . SVG Version: 6.00 Build 0)  -->
<svg version="1.1" id="Layer_1" xmlns="http://www.w3.org/2000/svg" xmlns:xlink="http://www.w3.org/1999/xlink" x="0px" y="0px"
	 viewBox="0 0 500 500" style="enable-background:new 0 0 500 500;" xml:space="preserve">
<path d="M138.394,455.597c40.104-68.716,79.634-136.445,119.286-204.387c-38.792-68.028-77.489-135.891-116.284-203.925
	c76.972,0,153.288,0,229.699,0c39.512,67.935,78.678,135.276,118.149,203.141c-39.214,68.341-78.476,136.767-117.725,205.171
	C293.745,455.597,216.561,455.597,138.394,455.597z M336.312,250.957c-26.071,45.475-51.777,90.312-78.01,136.07
	c25.082,0,48.984,0,73.426,0c26.403-45.376,52.937-90.976,79.39-136.437c-26.861-45.597-53.401-90.648-79.932-135.685
	c-24.073,0-47.785,0-72.584,0C284.723,160.637,310.368,205.535,336.312,250.957z M157.973,365.034
	c-22.105-38.891-43.849-77.149-65.488-115.222c22.404-38.944,44.486-77.328,66.55-115.681
	c-12.948-23.127-25.68-45.869-39.006-69.671C84.093,126.879,48.709,188.338,13.16,250.083
	c34.893,60.663,69.719,121.21,105.231,182.949C132.137,409.418,145.111,387.131,157.973,365.034z"/>
</svg>
