<?xml version="1.0" encoding="iso-8859-1"?>
<!-- Generator: Adobe Illustrator 19.0.0, SVG Export Plug-In . SVG Version: 6.00 Build 0)  -->
<svg version="1.1" id="Layer_1" xmlns="http://www.w3.org/2000/svg" xmlns:xlink="http://www.w3.org/1999/xlink" x="0px" y="0px"
	 viewBox="0 0 500 500" enable-background="new 0 0 500 500" xml:space="preserve">
<path d="M249.344,4.955c31.58,23.763,55.527,52.052,69.598,88.243c16.954,43.606-2.326,90.432-44.039,104.504
	c-27.856,9.397-53.789,4.619-75.402-15.707c-20.908-19.664-29.003-44.947-21.946-72.458C188.579,66.56,213.19,31.931,249.344,4.955z
	 M95.757,317.102c52.872,20.751,106.902-13.286,108.089-68.091c0.983-45.379-40.915-82.798-85.268-74.588
	C71.897,183.065,36.294,209.885,7,246.756C31.575,280.719,59.9,303.029,95.757,317.102z M318.902,403.879
	c20.556-52.815-11.863-106.212-66.259-108.814c-45.477-2.176-84.207,39.867-76.244,84.753c8.347,47.05,35.31,82.904,72.714,112.345
	C280.878,468.336,304.821,440.059,318.902,403.879z M409.377,181.976c-15.249-6.258-30.576-9.776-47.408-7.691
	c-46.563,5.769-76.965,54.583-60.813,98.644c15.389,41.981,61.139,61.043,104.609,44.033c36.154-14.148,64.513-37.943,88.186-69.587
	C471.833,217.133,443.44,195.954,409.377,181.976z"/>
</svg>
