<?xml version="1.0" encoding="iso-8859-1"?>
<!-- Generator: Adobe Illustrator 19.0.0, SVG Export Plug-In . SVG Version: 6.00 Build 0)  -->
<svg version="1.1" id="Layer_1" xmlns="http://www.w3.org/2000/svg" xmlns:xlink="http://www.w3.org/1999/xlink" x="0px" y="0px"
	 viewBox="0 0 2000 2000" style="enable-background:new 0 0 2000 2000;" xml:space="preserve">
<path d="M996.065,1985.092C447.959,1984.367,8.494,1542.368,9.977,993.319c1.467-543.058,446.54-983.926,991.756-982.387
	c546.665,1.544,983.143,443.992,982.28,995.715C1983.165,1548.238,1541.34,1985.814,996.065,1985.092z M884.598,1535.383
	c0-30.884-0.002-56.272,0-81.66c0.023-263.688-0.131-527.375,0.181-791.062c0.09-76.047,21.876-99.792,96.064-101.592
	c56.419-1.369,113.053-1.12,169.36,2.263c55.864,3.356,80.479,29.457,82.051,84.404c1.713,59.88,1.655,119.881,0.006,179.764
	c-1.432,52.021-28.476,78.056-80.28,79.737c-36.89,1.197-73.849,0.232-109.875,0.232c0,45.163,0,82.258,0,124.374
	c45.179,0,87.724-1.851,130.043,0.442c60.696,3.287,81.992,26.763,82.524,87.33c0.572,65.061,0.473,130.133,0.038,195.196
	c-0.469,70.193-24.789,94.447-96.547,95.804c-43.91,0.831-87.849,0.154-133.172,0.154c0,44.882,0,83.089,0,126.248
	c49.632,0,95.62,0.801,141.562-0.315c25.575-0.621,51.539-2.142,76.522-7.22c91.202-18.536,148.926-84.676,155.136-179.159
	c3.364-51.17,2.198-102.629,3.416-153.949c2.364-99.649-3.15-195.094-127.024-228.508c74.529-48.496,99.64-85.745,101.299-151.6
	c1.508-59.891,2.195-119.916-0.017-179.762c-4.177-112.989-60.784-181.216-172.009-195.119c-75.953-9.494-153.611-6.69-230.516-6.96
	c-161.139-0.564-231.83,70.351-232.738,231.272c-0.253,44.857-0.039,89.716-0.039,144.915
	c-67.612-53.24-124.827-98.294-185.545-146.106c-26.182,33.286-49.865,63.395-75.363,95.811
	c88.196,70.867,172.748,138.805,260.312,209.165c-89.224,71.459-173.18,138.698-259.842,208.105
	c26.192,32.594,50.495,62.837,76.387,95.058c60.756-47.784,118.451-93.16,187.173-147.209c0,147.053,0,277.863,0,409.947
	C791.787,1535.383,834.37,1535.383,884.598,1535.383z"/>
</svg>
