<?xml version="1.0" encoding="iso-8859-1"?>
<!-- Generator: Adobe Illustrator 19.0.0, SVG Export Plug-In . SVG Version: 6.00 Build 0)  -->
<svg version="1.1" id="Layer_1" xmlns="http://www.w3.org/2000/svg" xmlns:xlink="http://www.w3.org/1999/xlink" x="0px" y="0px"
	 viewBox="0 0 500 500" enable-background="new 0 0 500 500" xml:space="preserve">
<path d="M251.323,495.396c-29.162-10.176-56.47-23.124-82.748-38.298C120.508,429.34,83.862,391.14,61.391,339.967
	c-10.239-23.317-14.58-47.753-14.476-73.168c0.205-49.826,0.113-99.654,0.172-149.481c0.007-5.726,0.005-11.463,0.327-17.177
	c0.819-14.516,8.452-23.664,22.781-26.637c10.113-2.098,20.365-3.561,30.586-5.101c21.082-3.177,41.75-8.084,62.017-14.655
	c17.35-5.625,34.111-12.611,49.748-22.121c10.741-6.532,20.611-14.111,29.316-23.237c6.558-6.875,12.498-7.282,19.446-0.598
	c19.372,18.637,42.4,31.131,67.165,40.736c21.121,8.191,42.959,13.991,65.189,18.244c12.945,2.477,26.065,4.094,38.942,6.864
	c14.251,3.065,21.72,11.753,22.457,26.224c0.75,14.731,0.718,29.509,0.756,44.267c0.104,40.567-0.19,81.136,0.151,121.7
	c0.376,44.673-15.323,83.554-40.685,119.512c-23.694,33.591-55.534,57.267-90.715,77.111
	C301.207,475.626,276.852,486.684,251.323,495.396z M312.66,235.766c1.483-0.987,3.212-2.206,5.005-3.323
	c30.403-18.925,35.221-51.936,23.494-80.929c-6.522-16.125-19.862-25.226-35.954-30.652c-15.008-5.06-30.556-6.141-46.209-6.187
	c-34.601-0.103-69.202-0.053-103.803-0.043c-1.703,0-3.406,0.214-5.273,0.34c0,11.474,0,22.528,0,33.524
	c7.509,0.611,14.463,1.177,21.534,1.752c0.173,1.38,0.373,2.228,0.373,3.076c0.017,59.726,0.045,119.451-0.01,179.177
	c-0.007,7.81-3.154,11.178-10.843,12.256c-4.49,0.629-9,1.12-13.434,1.665c0,10.866,0,21.095,0,31.536
	c1.785,0.136,3.069,0.319,4.352,0.32c36.363,0.016,72.727-0.02,109.09,0.029c16.587,0.022,32.895-1.815,48.649-7.208
	c19.464-6.663,35.302-17.853,43.924-37.211c7.375-16.559,8.413-33.907,5.006-51.584c-2.808-14.572-10.747-26.002-22.802-34.197
	C328.768,243.357,320.797,240.045,312.66,235.766z M221.202,340.807c9.259,0,18.054,0.17,26.84-0.048
	c8.787-0.218,17.635-0.279,26.327-1.408c9.708-1.261,18.786-4.75,25.345-12.591c9.867-11.795,11.086-25.525,7.614-39.775
	c-3.907-16.037-15.688-24.756-30.983-26.562c-18.041-2.13-36.388-1.672-55.143-2.355
	C221.202,286.534,221.202,313.492,221.202,340.807z M262.414,221.655c19.218-1.757,32.249-11.051,34.738-32.097
	c1.873-15.838-3.182-29.628-20.79-34.806c-18.114-5.327-36.605-2.423-55.324-3.22c0,23.925,0,47.185,0,71.963
	C235.267,222.908,248.896,222.891,262.414,221.655z"/>
</svg>
