<?xml version="1.0" encoding="iso-8859-1"?>
<!-- Generator: Adobe Illustrator 19.0.0, SVG Export Plug-In . SVG Version: 6.00 Build 0)  -->
<svg version="1.1" id="Layer_1" xmlns="http://www.w3.org/2000/svg" xmlns:xlink="http://www.w3.org/1999/xlink" x="0px" y="0px"
	 viewBox="0 0 500 500" style="enable-background:new 0 0 500 500;" xml:space="preserve">
<path d="M309.683,250.554c-0.066,32.862-26.478,59.18-59.337,59.127c-33.182-0.054-59.444-26.477-59.345-59.707
	c0.098-32.714,26.64-59.237,59.359-59.318C283.185,190.575,309.75,217.398,309.683,250.554z M408.137,250.311
	c0.047,21.734,17.979,39.678,39.689,39.713c22.217,0.036,39.737-17.646,39.683-40.051c-0.053-22.068-17.546-39.35-39.72-39.243
	C425.77,210.838,408.09,228.485,408.137,250.311z M250.702,408.132c-21.94-0.199-39.739,17.338-39.852,39.266
	c-0.116,22.51,17.241,40.154,39.458,40.11c22.087-0.044,39.641-17.469,39.721-39.431
	C290.11,426.161,272.555,408.331,250.702,408.132z M389.709,150.18c22.124,0.091,39.851-17.25,39.983-39.113
	c0.135-22.363-17.299-40.121-39.512-40.246c-21.865-0.123-39.564,17.497-39.666,39.49
	C350.411,132.406,367.796,150.09,389.709,150.18z M52.761,210.705c-22.031,0-39.688,17.503-39.761,39.413
	c-0.072,21.849,17.557,39.697,39.416,39.907c21.959,0.211,39.679-17.297,39.759-39.281
	C92.258,228.029,75.205,210.705,52.761,210.705z M290.029,52.979c0.136-22.17-17.598-39.992-39.787-39.983
	c-21.764,0.009-39.271,17.37-39.392,39.063c-0.127,22.714,16.88,40.056,39.339,40.116C272.365,92.235,289.894,74.989,290.029,52.979
	z M150.363,110.863c0.161-22.087-17.719-40.061-39.835-40.045c-21.98,0.016-39.344,17.532-39.341,39.688
	c0.003,22.222,17.253,39.653,39.263,39.675C132.477,150.202,150.204,132.739,150.363,110.863z M110.469,429.692
	c22.116,0.054,40.049-17.901,39.894-39.943c-0.154-21.924-17.77-39.27-39.848-39.237c-22.266,0.034-39.35,17.185-39.328,39.482
	C71.208,412.209,88.455,429.638,110.469,429.692z M389.997,429.692c21.98,0.026,39.652-17.531,39.695-39.438
	c0.044-22.231-17.174-39.68-39.217-39.742c-22.636-0.064-39.961,17.077-39.962,39.537
	C350.512,412.055,368.054,429.666,389.997,429.692z M177.542,134.232c-14.21,14.204-28.965,28.951-43.317,43.297
	c12.981,12.986,26.388,26.398,39.978,39.992c8.893-19.786,23.582-34.509,43.462-43.407
	C204.051,160.582,190.618,147.229,177.542,134.232z M366.425,322.706c-12.949-12.957-26.344-26.361-39.865-39.891
	c-8.848,20.064-23.842,34.72-43.776,43.853c13.726,13.741,27.017,27.046,39.838,39.882
	C337.273,351.885,352.131,337.014,366.425,322.706z M217.552,326.369c-19.785-8.77-34.447-23.578-43.135-42.898
	c-13.451,13.326-27.015,26.765-40.322,39.949c14.306,14.302,28.956,28.947,43.432,43.419
	C190.648,353.573,203.982,340.09,217.552,326.369z M326.585,217.692c13.644-13.643,27.076-27.074,40.13-40.127
	c-14.428-14.406-29.196-29.151-43.566-43.498c-13.08,13.06-26.5,26.459-40.135,40.073C303,182.961,317.603,197.821,326.585,217.692z
	 M261.869,384.468c0-17.541,0-34.685,0-51.598c-8.01,0-15.517,0-23.28,0c0,17.149,0,34.192,0,51.598
	C246.798,384.468,254.307,384.468,261.869,384.468z M332.913,238.728c0,7.934,0,15.461,0,23.215c17.115,0,34.286,0,51.623,0
	c0-7.944,0-15.46,0-23.215C367.039,238.728,349.867,238.728,332.913,238.728z M167.891,262.023c0-7.884,0-15.425,0-23.332
	c-17.065,0-34.27,0-51.766,0c0,7.819,0,15.353,0,23.332C133.8,262.023,150.85,262.023,167.891,262.023z M261.989,116.296
	c-8.047,0-15.708,0-23.326,0c0,17.505,0,34.545,0,51.519c7.876,0,15.412,0,23.326,0
	C261.989,150.361,261.989,133.349,261.989,116.296z"/>
</svg>
