<?xml version="1.0" encoding="iso-8859-1"?>
<!-- Generator: Adobe Illustrator 19.0.0, SVG Export Plug-In . SVG Version: 6.00 Build 0)  -->
<svg version="1.1" id="Layer_1" xmlns="http://www.w3.org/2000/svg" xmlns:xlink="http://www.w3.org/1999/xlink" x="0px" y="0px"
	 viewBox="0 0 2000 2000" style="enable-background:new 0 0 2000 2000;" xml:space="preserve">
<path d="M983.915,1945.556C597.227,1707.614,351.353,1218.414,404.183,709.21c79.095-52.852,294.963-126.237,385.714-131.431
	c0,37.978,0,75.883,0,112.445c-94.035,28.856-186.5,57.23-281.78,86.468c2.544,43.522,3.196,81.483,7.305,119.067
	c7.343,67.172,15.971,134.23,25.555,201.122c9.399,65.604,16.708,131.889,32.108,196.156
	c18.876,78.77,58.547,148.497,110.215,211.443c45.689,55.663,89.432,112.92,134.284,169.275c8.356,10.5,17.893,20.06,26.884,30.054
	c1.508-1.216,3.017-2.432,4.525-3.648c-21.902-30.517-42.824-61.8-65.924-91.381c-38.881-49.789-81.454-96.845-118.177-148.127
	c-36.7-51.251-65.608-107.758-79.963-169.824c-25.722-111.216-14.313-219.503,38.009-320.833
	c31.957-61.889,71.338-119.944,107.385-179.722c2.598,1.004,5.196,2.009,7.794,3.013c0,5.214,1.446,10.947-0.213,15.565
	c-36.319,101.127-49.621,204.872-35.344,311.629c12.942,96.774,48.016,183.873,114.799,256.652c3.263,3.556,7.216,6.478,13.565,8.6
	c-71.526-103.056-94.921-214.878-62.515-335.704c22.456-83.726,66.61-155.971,125.441-220.5
	c21.599,36.777,38.954,73.679,62.909,105.634c55.008,73.38,112.195,145.2,170.398,216.092
	c81.661,99.465,122.772,211.697,113.045,340.934c-1.271,16.886-6.304,33.488-5.961,51.254
	c50.432-107.703,83.094-220.586,102.43-338.093c19.596-119.089,20.821-237.926,6.371-357.952
	c37.062,73.666,67.378,150.395,83.352,231.033c15.942,80.474,23.603,162.587,38.295,244.131c0-31.772,2.294-63.754-0.603-95.26
	c-3.326-36.165-13.096-71.741-16.345-107.908c-1.464-16.296,6.424-33.341,9.503-50.151c17.45-95.268,34.94-190.543,34.819-286.809
	c-39.072-27.433-257.746-94.981-321.338-99.733c-18.08-36.052-29.42-74.074-30.711-115.617
	c168.521,7.587,320.675,59.162,464.801,139.327c0.716,104.893-0.986,208.272-17.911,311.758
	c-10.516,64.296-32.731,123.166-54.896,183.065c-5.989,16.186-4.679,34.92-9.104,51.862
	c-35.422,135.607-90.674,262.448-170.094,378.259c-85.36,124.471-191.217,227.71-320.203,306.712
	c-9.984,6.115-20.078,12.052-30.836,18.5c-33.812-94.385-82.094-176.825-144.162-251.414
	C902.591,1781.669,952.047,1855.737,983.915,1945.556z M808.102,549.207c-11.262,93.974-13.144,190.159,8.768,285.686
	c58.852-85.37,115.345-167.318,173.404-251.539c4.212,6.73,5.183,7.593,5.03,8.145c-1.38,4.987-2.644,10.042-4.521,14.85
	c-35.504,90.924-26.981,179.114,22.083,261.885c21.393,36.09,51.666,66.864,77.393,100.445
	c79.495,103.764,129.642,222.084,170.371,345.021c2.409,7.271,4.482,14.653,7.534,24.689c4.157-5.734,6.407-7.589,7.035-9.886
	c21.958-80.312,40.151-161.497,40.938-245.096c0.649-68.995-7.286-137.514-39.907-199.739
	c-25.316-48.289-53.678-95.057-82.246-141.542c-29.458-47.934-61.067-94.683-66.557-152.793
	c-1.298-13.736-0.192-27.698-0.192-44.954c44.891,6.157,83.134,11.402,127.375,17.47
	c-99.762-167.411-161.507-343.403-193.189-531.065C920.386,177.582,832.077,349.149,808.102,549.207z"/>
</svg>
