<?xml version="1.0" encoding="iso-8859-1"?>
<!-- Generator: Adobe Illustrator 19.0.0, SVG Export Plug-In . SVG Version: 6.00 Build 0)  -->
<svg version="1.1" id="Layer_1" xmlns="http://www.w3.org/2000/svg" xmlns:xlink="http://www.w3.org/1999/xlink" x="0px" y="0px"
	 viewBox="0 0 500 500" style="enable-background:new 0 0 500 500;" xml:space="preserve">
<path d="M250.741,5.001c135.692-0.177,246.646,111.256,244.281,248.861c-2.304,134.059-112.887,242.654-249.208,240.148
	C111.813,491.547,2.945,380.81,6.009,243.851C8.985,110.812,117.914,4.628,250.741,5.001z M157.039,369.215
	c0.003-3.532-3.68-7.157-7.345-7.232c-3.65-0.074-7.449,3.398-7.518,6.872c-0.084,4.204,3.255,7.934,7.242,8.091
	C153.307,377.099,157.036,373.317,157.039,369.215z M286.61,144.553c-0.066-3.77-3.516-7.154-7.302-7.163
	c-4.021-0.009-7.76,3.851-7.53,7.772c0.202,3.439,4.242,7.474,7.487,7.479C282.812,152.647,286.678,148.39,286.61,144.553z
	 M382.951,152.732c5.736-2.517,8.11-5.275,7.574-8.797c-0.522-3.431-4.091-6.536-7.544-6.566c-2.909-0.025-6.522,2.646-7.112,5.259
	C374.77,147.496,376.266,149.63,382.951,152.732z M338.513,354.751c0.009-4.212-3.463-7.891-7.415-7.855
	c-3.637,0.033-7.286,3.628-7.445,7.335c-0.17,3.966,3.616,7.714,7.637,7.562C335.28,361.642,338.505,358.497,338.513,354.751z
	 M338.478,234.986c0.056-4.101-3.405-7.799-7.343-7.846c-3.896-0.047-7.494,3.657-7.477,7.696c0.016,3.863,3.894,7.912,7.625,7.396
	C335.365,241.667,338.738,239.009,338.478,234.986z M157.011,160.12c0.148-4.079-3.384-7.784-7.411-7.776
	c-3.704,0.007-7.348,3.499-7.468,7.157c-0.127,3.852,3.718,7.892,7.486,7.866C153.226,167.341,156.879,163.76,157.011,160.12z
	 M382.91,361.74c3.823,0.089,7.456-3.263,7.608-7.018c0.142-3.521-4.038-8.034-7.58-8.182c-3.079-0.129-7.047,4.01-7.219,7.529
	C375.506,358.423,378.521,361.639,382.91,361.74z M375.693,294.739c0.116,3.684,3.728,7.498,7.164,7.566
	c3.491,0.069,7.771-4.331,7.708-7.925c-0.06-3.47-4.715-7.788-8.094-7.508C378.904,287.168,375.576,291.03,375.693,294.739z
	 M338.498,294.567c-0.034-3.652-3.564-7.443-7.093-7.619c-3.62-0.18-7.764,3.918-7.75,7.666c0.013,3.622,3.595,7.397,7.173,7.56
	C334.686,302.35,338.535,298.533,338.498,294.567z M375.749,234.662c-0.021,3.854,3.811,7.895,7.355,7.755
	c3.704-0.147,7.531-4.345,7.389-8.106c-0.129-3.42-4.029-7.344-7.418-7.465C379.626,226.723,375.77,230.837,375.749,234.662z
	 M208.879,219.516c-0.032-3.668-3.595-7.307-7.236-7.392c-3.888-0.091-7.644,3.719-7.585,7.696c0.055,3.783,3.405,7.176,7.221,7.313
	C205.234,227.275,208.915,223.587,208.879,219.516z M157.016,219.738c0.053-3.64-3.409-7.371-7.038-7.586
	c-3.948-0.234-7.768,3.438-7.771,7.471c-0.003,3.884,3.198,7.314,7.01,7.512C153.208,227.342,156.958,223.786,157.016,219.738z
	 M208.866,130.341c0.14-4.164-3.292-7.829-7.391-7.893c-3.85-0.059-7.231,3.194-7.425,7.146c-0.202,4.114,3.195,7.625,7.388,7.633
	C205.227,137.234,208.743,133.975,208.866,130.341z M375.715,264.826c0.067,3.44,3.948,7.658,7.091,7.705
	c3.423,0.052,7.797-4.536,7.701-8.078c-0.093-3.428-4.049-7.466-7.417-7.57C379.447,256.77,375.637,260.874,375.715,264.826z
	 M338.522,324.763c0.063-4.038-3.658-8.003-7.444-7.933c-3.465,0.065-7.33,3.918-7.452,7.43c-0.136,3.916,3.791,8.037,7.562,7.936
	C334.624,332.103,338.468,328.208,338.522,324.763z M323.65,144.857c0.125,4.093,3.997,7.749,7.878,7.437
	c3.999-0.321,7.24-4.174,6.98-8.297c-0.216-3.428-4.338-6.966-7.81-6.705C326.945,137.575,323.539,141.231,323.65,144.857z
	 M382.577,196.82c-3.645,0.284-7.111,4.629-6.853,8.591c0.234,3.586,4.298,7.329,7.609,7.007c3.836-0.373,7.633-4.816,7.174-8.394
	C390.097,200.836,385.431,196.598,382.577,196.82z M338.555,264.263c-0.105-3.507-4.03-7.254-7.522-7.181
	c-3.705,0.078-7.342,3.72-7.379,7.389c-0.04,3.963,3.818,8.003,7.571,7.927C334.948,272.324,338.673,268.189,338.555,264.263z
	 M156.996,279.476c-0.028-3.808-3.6-7.339-7.368-7.282c-3.937,0.059-7.432,3.425-7.486,7.21c-0.057,4.004,3.728,7.733,7.75,7.635
	C153.63,286.947,157.025,283.333,156.996,279.476z M234.646,144.767c-0.021-3.886-3.297-7.308-7.093-7.41
	c-3.924-0.105-7.733,3.657-7.582,7.49c0.154,3.931,4.136,7.854,7.743,7.628C231.373,152.247,234.667,148.586,234.646,144.767z
	 M131.048,205.08c0.155-3.88-3.601-8.068-7.303-8.143c-3.416-0.069-7.161,3.72-7.297,7.382c-0.16,4.317,3.139,8.065,7.147,8.119
	C126.999,212.484,130.906,208.628,131.048,205.08z M246.093,279.918c0.103,3.821,3.501,7.181,7.235,7.155
	c3.876-0.027,7.666-3.986,7.453-7.786c-0.21-3.746-3.771-7.205-7.436-7.223C249.468,272.046,245.983,275.82,246.093,279.918z
	 M286.591,234.768c0.01-4.283-3.417-7.666-7.59-7.493c-3.807,0.158-7.259,3.663-7.248,7.359c0.011,3.813,4.113,7.874,7.774,7.697
	C283.019,242.163,286.582,238.347,286.591,234.768z M364.33,189.651c-0.068-3.826-3.426-7.438-7.044-7.578
	c-3.835-0.149-7.507,3.65-7.472,7.731c0.037,4.24,3.559,7.67,7.612,7.412C361.24,196.972,364.398,193.511,364.33,189.651z
	 M234.66,294.66c-0.027-4.162-3.613-7.923-7.44-7.805c-3.417,0.106-7.185,4.038-7.256,7.571c-0.075,3.767,3.343,7.385,7.097,7.51
	C231.236,302.077,234.686,298.773,234.66,294.66z M234.645,264.388c-0.103-3.697-3.699-7.406-7.23-7.457
	c-3.643-0.053-7.738,4.311-7.526,8.021c0.194,3.398,4.277,7.519,7.485,7.554C230.936,272.545,234.754,268.282,234.645,264.388z
	 M383.109,316.723c-3.281-0.158-7.211,3.724-7.388,7.298c-0.197,3.968,3.413,8.199,7.051,8.262c3.385,0.059,7.398-3.747,7.71-7.313
	C390.798,321.346,386.826,316.902,383.109,316.723z M208.837,249.105c-0.04-3.666-3.541-6.9-7.425-6.859
	c-3.889,0.041-7.353,3.344-7.365,7.025c-0.015,4.253,3.377,7.767,7.485,7.756C205.587,257.017,208.884,253.442,208.837,249.105z
	 M271.76,294.621c-0.005,3.926,3.805,7.502,7.809,7.328c3.899-0.169,7.091-3.554,7.033-7.459c-0.055-3.761-3.52-7.46-7.133-7.614
	C275.926,286.725,271.765,290.905,271.76,294.621z M246.095,219.887c0.118,3.959,3.393,7.317,7.158,7.338
	c3.907,0.021,7.773-3.911,7.626-7.758c-0.147-3.841-4.337-7.636-8.079-7.316C248.984,212.478,245.978,215.947,246.095,219.887z
	 M116.413,234.509c-0.049,4.029,3.706,7.984,7.439,7.836c3.527-0.14,7.174-3.953,7.223-7.551c0.048-3.605-4.171-8.031-7.583-7.953
	C120.107,226.918,116.458,230.871,116.413,234.509z M182.647,234.732c0.003-4.114-2.909-7.352-6.788-7.548
	c-4.078-0.206-7.628,3.3-7.587,7.491c0.037,3.783,3.395,7.509,6.981,7.747C178.878,242.663,182.645,238.746,182.647,234.732z
	 M260.753,250.214c0.273-3.888-2.682-7.437-6.547-7.864c-3.929-0.434-7.744,2.453-8.111,6.138c-0.436,4.383,3.003,8.713,7.006,8.822
	C256.699,257.407,260.495,253.887,260.753,250.214z M182.689,264.323c-0.067-3.551-3.899-7.582-7.19-7.566
	c-3.596,0.017-7.283,4.22-7.169,8.17c0.104,3.586,3.851,7.578,7.139,7.607C179.066,272.566,182.766,268.358,182.689,264.323z
	 M312.315,129.968c-0.021-4.302-3.396-7.78-7.423-7.65c-3.705,0.12-6.941,3.611-6.995,7.55c-0.059,4.231,3.277,7.478,7.548,7.349
	C309.503,137.094,312.336,134.105,312.315,129.968z M208.787,159.649c-0.15-4.099-3.97-7.669-7.86-7.346
	c-3.756,0.312-6.976,3.926-6.872,7.711c0.102,3.714,3.733,7.451,7.238,7.45C205.27,167.463,208.934,163.643,208.787,159.649z
	 M234.629,204.736c0.063-3.659-3.291-7.496-6.801-7.782c-3.444-0.28-7.838,3.95-7.916,7.622c-0.081,3.806,3.18,7.281,7.061,7.524
	C231.207,212.365,234.553,209.147,234.629,204.736z M168.256,205.08c0.125,3.946,3.441,7.139,7.325,7.054
	c4.274-0.093,7.262-3.379,7.115-7.826c-0.122-3.704-3.705-7.308-7.205-7.246C171.666,197.131,168.128,201.05,168.256,205.08z
	 M330.923,167.503c-3.963,0.084-7.233,3.3-7.306,7.184c-0.071,3.842,3.915,7.821,7.687,7.674c3.596-0.14,7.232-3.863,7.245-7.419
	C338.566,170.592,335.304,167.41,330.923,167.503z M156.99,130.268c0.044-4.208-3.459-7.929-7.446-7.911
	c-3.997,0.018-7.422,3.727-7.357,7.966c0.057,3.737,3.44,6.883,7.417,6.899C153.52,137.238,156.951,134.007,156.99,130.268z
	 M375.744,174.767c0.023,3.697,3.51,7.645,6.938,7.854c3.31,0.202,7.846-4.331,7.855-7.85c0.01-3.428-4.611-8.038-7.891-7.873
	C379.339,167.065,375.722,171.188,375.744,174.767z M286.582,174.381c-0.128-3.537-3.985-7.272-7.396-7.16
	c-3.556,0.116-7.389,3.906-7.414,7.332c-0.028,3.757,4.073,8.051,7.571,7.926C283.158,182.343,286.726,178.353,286.582,174.381z
	 M246.055,309.003c-0.092,4.323,3.127,7.867,7.184,7.91c3.77,0.04,7.37-3.318,7.568-7.058c0.2-3.774-3.597-7.773-7.438-7.835
	C249.68,301.96,246.133,305.347,246.055,309.003z M364.373,279.482c-0.085-3.832-3.443-7.352-7.112-7.456
	c-3.951-0.111-7.427,3.496-7.414,7.692c0.013,4.111,3.716,7.699,7.645,7.408C361.213,286.85,364.456,283.248,364.373,279.482z
	 M271.762,264.633c0.14,3.805,4.305,7.944,7.817,7.768c3.369-0.169,7.052-4.248,7.039-7.797c-0.014-3.843-4.147-7.886-7.765-7.596
	C275.278,257.296,271.636,261.211,271.762,264.633z M131.062,324.518c-0.005-3.812-4.037-7.898-7.626-7.729
	c-3.627,0.171-6.988,3.818-7.025,7.622c-0.039,4.064,3.74,7.9,7.547,7.662C127.556,331.848,131.067,328.115,131.062,324.518z
	 M142.188,309.3c-0.122,3.925,3.641,7.793,7.499,7.708c3.695-0.082,7.183-3.566,7.29-7.282c0.109-3.783-3.075-7.353-6.825-7.652
	C146.312,301.766,142.309,305.399,142.188,309.3z M182.676,324.677c0.055-3.949-3.058-7.574-6.761-7.873
	c-3.566-0.288-7.571,3.707-7.592,7.573c-0.021,3.884,3.849,8.12,7.332,8.025C179.064,332.307,182.624,328.39,182.676,324.677z
	 M349.893,249.719c-0.009,4.039,3.718,7.78,7.536,7.564c3.519-0.199,6.897-3.947,6.922-7.681c0.027-3.965-3.072-7.22-7.007-7.361
	C353.186,242.094,349.903,245.388,349.893,249.719z M234.623,234.712c0.012-3.837-3.221-7.376-6.908-7.565
	c-3.877-0.198-7.608,3.503-7.598,7.537c0.01,3.927,3.913,7.948,7.55,7.778C230.85,242.312,234.613,238.12,234.623,234.712z
	 M323.642,204.48c-0.069,3.82,3.203,7.467,6.919,7.711c4.016,0.264,7.884-3.258,8.004-7.288c0.114-3.834-3.862-7.914-7.597-7.796
	C327.353,197.22,323.707,200.889,323.642,204.48z M286.599,204.609c-0.098-3.593-3.763-7.51-7.158-7.652
	c-3.593-0.15-7.726,4.044-7.63,7.74c0.108,4.117,3.777,7.601,7.816,7.42C283.499,211.943,286.705,208.491,286.599,204.609z
	 M246.089,189.921c-0.059,3.614,3.332,7.182,6.955,7.318c3.638,0.136,7.539-3.305,7.7-6.793c0.199-4.321-2.91-7.733-7.164-7.86
	C249.075,182.452,246.165,185.3,246.089,189.921z M312.365,190.05c0.128-4.195-2.669-7.4-6.686-7.661
	c-3.868-0.251-7.48,2.861-7.733,6.661c-0.289,4.34,2.836,7.899,7.046,8.025C309.05,197.196,312.24,194.157,312.365,190.05z
	 M234.69,174.479c-0.143-3.782-3.69-7.323-7.329-7.317c-3.748,0.006-7.614,4.161-7.384,7.935c0.22,3.601,4.033,7.421,7.414,7.426
	C231.172,182.529,234.842,178.485,234.69,174.479z M364.371,159.82c0.026-3.821-3.259-7.396-6.985-7.6
	c-3.97-0.218-7.528,3.373-7.507,7.576c0.022,4.163,3.688,7.94,7.494,7.718C360.973,167.304,364.345,163.596,364.371,159.82z
	 M142.158,339.773c0.146,4.016,3.979,7.372,8.048,7.048c3.805-0.303,7.011-3.903,6.815-7.654c-0.196-3.76-3.715-7.145-7.439-7.156
	C145.618,332,142.011,335.77,142.158,339.773z M364.289,339.316c-0.055-3.783-3.416-7.4-7-7.532
	c-3.819-0.141-7.465,3.668-7.441,7.771c0.026,4.274,3.512,7.639,7.642,7.376C361.23,346.694,364.346,343.204,364.289,339.316z
	 M130.976,354.828c0.116-4.064-3.438-7.956-7.276-7.967c-3.731-0.01-7.134,3.385-7.282,7.264c-0.166,4.362,3.011,7.763,7.244,7.753
	C127.533,361.869,130.866,358.656,130.976,354.828z M182.706,354.59c0.079-3.886-3.812-8.095-7.355-7.956
	c-3.392,0.132-6.808,3.896-6.92,7.622c-0.128,4.282,3.035,7.641,7.167,7.613C179.506,361.843,182.624,358.65,182.706,354.59z
	 M349.825,309.594c0.038,3.872,3.29,7.408,6.99,7.6c3.788,0.196,7.585-3.674,7.546-7.692c-0.038-4.048-3.796-7.716-7.682-7.499
	C352.737,302.223,349.785,305.493,349.825,309.594z M349.831,369.475c0.137,4.246,3.783,7.798,7.674,7.477
	c3.887-0.321,6.889-3.678,6.835-7.644c-0.056-4.077-3.786-7.622-7.706-7.323C352.591,362.293,349.702,365.474,349.831,369.475z
	 M364.29,130.375c0.097-4.351-3.075-7.915-7.128-8.01c-4.107-0.096-7.352,3.338-7.321,7.747c0.026,3.87,3.283,7.191,7.09,7.231
	C360.732,137.383,364.207,134.093,364.29,130.375z M130.896,144.383c-0.115-3.715-3.489-6.94-7.341-7.016
	c-4.074-0.081-7.303,3.509-7.088,7.882c0.186,3.802,3.691,7.23,7.34,7.18C127.725,152.374,131.027,148.627,130.896,144.383z
	 M130.925,264.5c-0.042-3.841-3.409-7.366-7.127-7.462c-3.996-0.103-7.51,3.602-7.414,7.819c0.083,3.673,3.749,7.598,7.138,7.644
	C127.198,272.549,130.969,268.474,130.925,264.5z M297.918,249.561c0.023,4.032,3.199,7.371,7.092,7.457
	c4.309,0.095,7.357-3.123,7.322-7.733c-0.03-3.944-3.252-7.043-7.263-6.985C301.156,242.357,297.896,245.667,297.918,249.561z
	 M142.138,249.637c0.038,3.984,3.866,7.676,7.762,7.487c3.716-0.18,7.068-3.724,7.086-7.493c0.019-3.82-3.274-7.239-7.085-7.356
	C145.829,242.15,142.1,245.686,142.138,249.637z M194.059,189.794c-0.022,3.753,3.327,7.296,7.08,7.489
	c3.906,0.201,7.725-3.497,7.747-7.501c0.022-4.049-3.633-7.531-7.752-7.385C197.262,182.533,194.082,185.858,194.059,189.794z
	 M168.24,174.791c0.025,3.874,3.364,7.416,7.137,7.572c3.875,0.16,7.501-3.708,7.38-7.875c-0.114-3.935-3.471-7.127-7.397-7.034
	C171.345,167.55,168.214,170.776,168.24,174.791z M130.85,175.006c0.118-4.122-2.806-7.374-6.841-7.61
	c-3.925-0.23-7.317,2.865-7.542,6.879c-0.236,4.215,3.178,8.162,7.128,8.244C127.071,182.591,130.742,178.788,130.85,175.006z
	 M297.867,159.928c0.082,3.957,3.97,7.712,7.74,7.477c3.727-0.232,6.744-3.692,6.726-7.711c-0.019-4.091-3.034-7.296-6.957-7.394
	C301.447,152.201,297.784,155.922,297.867,159.928z M168.301,145.037c0.102,3.909,3.373,7.244,7.168,7.31
	c3.963,0.069,7.31-3.525,7.254-7.79c-0.049-3.746-3.499-7.307-7.072-7.298C171.7,137.267,168.195,140.976,168.301,145.037z
	 M364.394,219.688c0.018-3.586-3.496-7.43-6.992-7.65c-3.721-0.234-7.602,3.661-7.604,7.631c-0.002,4.006,3.058,7.326,6.935,7.524
	C360.704,227.395,364.374,223.801,364.394,219.688z M312.32,219.577c-0.083-4.255-3.594-7.682-7.591-7.409
	c-3.709,0.254-6.884,3.805-6.841,7.651c0.047,4.151,3.62,7.528,7.724,7.3C309.573,226.899,312.401,223.719,312.32,219.577z
	 M182.713,294.369c-0.102-3.746-3.641-7.505-7.12-7.562c-3.794-0.063-7.385,3.862-7.28,7.956c0.093,3.62,3.696,7.467,7.085,7.565
	C179.048,302.432,182.82,298.329,182.713,294.369z M130.909,294.642c0.062-4.022-3.607-7.822-7.483-7.752
	c-3.549,0.064-6.958,3.761-6.976,7.564c-0.019,4.123,3.601,7.888,7.423,7.721C127.494,302.015,130.851,298.422,130.909,294.642z
	 M149.026,197.049c3.919,0.304,7.509-2.678,7.924-6.58c0.421-3.957-2.471-7.468-6.495-7.888c-4.31-0.45-8.103,2.644-8.311,6.78
	C141.948,193.274,145.051,196.741,149.026,197.049z"/>
</svg>
