<?xml version="1.0" encoding="utf-8"?>
<!-- Generator: Adobe Illustrator 26.2.1, SVG Export Plug-In . SVG Version: 6.00 Build 0)  -->
<svg version="1.1" id="bnb" xmlns:svg="http://www.w3.org/2000/svg"
	 xmlns="http://www.w3.org/2000/svg" xmlns:xlink="http://www.w3.org/1999/xlink" x="0px" y="0px" viewBox="0 0 500 500"
	 style="enable-background:new 0 0 500 500;" xml:space="preserve">
<path d="M250,0C111.9,0,0,111.9,0,250s111.9,250,250,250s250-111.9,250-250S388.1,0,250,0z M395.3,164.5v38.5l-32.9,19.4v-38.5
	l-32.7-19.4l32.7-19.4L395.3,164.5z M249.9,79.1l89,52.4l-32.7,19.4l-56.3-33.2l-56.2,33.2L161,131.5L249.9,79.1z M282.8,164.5
	l-32.9,19.4l-32.7-19.4l32.7-19.4L282.8,164.5z M104.7,164.5l32.7-19.4l32.9,19.4l-32.9,19.4v38.5l-32.7-19.4V164.5z M193.8,387.9
	l-89-52.2v-105l32.7,19.3l0.2,66.1l56.2,33.1V387.9z M193.8,321.6L161,302.4v-38.7l32.7,19.4V321.6z M282.8,401.5l-32.9,19.4
	l-32.7-19.4V363l32.7,19.4l32.9-19.4V401.5z M282.8,335.6l-32.7,19.2l-32.7-19.2v-66.3l-56.3-33.1v-38.7l32.9-19.4l56,33.2
	l56.3-33.2l32.9,19.4H339l0.2,38.7l-56.3,33.1V335.6z M306.2,283.1l32.7-19.4v38.7l-32.7,19.2V283.1z M395.3,335.6l-89,52.2v-38.7
	l56.1-33l0.2-66.1l32.7-19.4V335.6z"/>
</svg>
