<?xml version="1.0" encoding="iso-8859-1"?>
<!-- Generator: Adobe Illustrator 19.0.0, SVG Export Plug-In . SVG Version: 6.00 Build 0)  -->
<svg version="1.1" id="Layer_1" xmlns="http://www.w3.org/2000/svg" xmlns:xlink="http://www.w3.org/1999/xlink" x="0px" y="0px"
	 viewBox="0 0 500 500" style="enable-background:new 0 0 500 500;" xml:space="preserve">
<path id="XMLID_4_" d="M399.811,343.587c-50.304,49.605-100.158,98.768-149.463,147.388c-49.24-49.242-98.565-98.569-147.044-147.05
	c16.942-16.99,34.845-34.942,53.004-53.151c29.768,29.773,60.932,60.941,93.451,93.465c5.399-6.052,9.875-11.553,14.848-16.56
	c24.535-24.707,49.327-49.159,73.711-74.014c4.617-4.706,7.219-4.467,11.579,0.124c14.409,15.171,29.215,29.966,43.912,44.862
	C395.268,340.127,397.023,341.311,399.811,343.587z M344.78,210.446c-31.479-31.481-62.844-62.848-94.082-94.088
	c-32.948,32.169-64.528,63.003-95.676,93.415c-16.828-16.891-35.019-35.15-52.676-52.874
	c48.988-48.966,98.354-98.31,148.569-148.502c48.565,48.819,98.157,98.669,147.929,148.7
	C380.783,174.918,362.944,192.521,344.78,210.446z M304.956,249.554c-18.701,18.796-36.84,37.027-54.547,54.824
	c-17.956-18.061-36.28-36.492-53.93-54.246c17.55-17.536,36.063-36.036,54.085-54.044
	C268.329,213.551,286.989,231.893,304.956,249.554z M437.199,304.364c-17.667-17.714-35.707-35.8-52.954-53.092
	c17.981-17.928,36.105-35.998,54.383-54.222c17.112,17.279,35.074,35.417,52.677,53.193
	C473.471,268.082,455.469,286.089,437.199,304.364z M63.545,304.554c-19.165-19.141-37.022-36.976-54.28-54.211
	c17.349-17.323,35.336-35.283,54.25-54.168c17.21,17.295,35.312,35.487,51.662,51.919C97.582,267.334,80.345,286.184,63.545,304.554
	z"/>
</svg>
