<?xml version="1.0" encoding="iso-8859-1"?>
<!-- Generator: Adobe Illustrator 19.0.0, SVG Export Plug-In . SVG Version: 6.00 Build 0)  -->
<svg version="1.1" id="Layer_1" xmlns="http://www.w3.org/2000/svg" xmlns:xlink="http://www.w3.org/1999/xlink" x="0px" y="0px"
	 viewBox="0 0 500 500" style="enable-background:new 0 0 500 500;" xml:space="preserve">
<path d="M320.437,427.838c0.949,16.602,1.865,32.642,2.87,50.229c-32.645-8.911-63.972-17.463-95.792-26.149
	C231.271,448.247,276.882,436.644,320.437,427.838z M368.722,177.943c0.586-1.477,1.261-2.925,1.742-4.435
	c2.856-8.962,5.564-17.973,8.535-26.897c1.505-4.521,2.437-8.863,1.529-13.758c-1.041-5.613-1.014-11.416-1.655-17.114
	c-0.859-7.637-1.912-15.253-2.882-22.878c-0.466-0.269-0.933-0.539-1.399-0.808c-12.944,12.913-25.889,25.827-39.027,38.934
	c10.69,16.019,21.097,31.612,31.503,47.205C367.62,178.11,368.171,178.027,368.722,177.943z M342.516,270.662
	c-12.51,9.804-24.185,18.953-36.029,28.235c7.549,6.033,73.228,38.148,78.407,38.043
	C370.674,314.699,356.746,292.916,342.516,270.662z M165.949,5.891c-23.028,0-46.056,0-70.233,0
	c0.376,5.029-0.544,10.78,1.418,15.273c4.248,9.73,9.959,18.823,15.131,28.142c0.23,0.415,1.052,0.501,1.986,0.909
	c17.377-14.031,34.85-28.14,52.323-42.249C166.366,7.275,166.158,6.583,165.949,5.891z M347.802,272.687
	c14.427,22.016,28.209,44.457,42.973,66.25c0.543-0.167,1.085-0.334,1.628-0.501c4.546-18.164,9.092-36.329,13.858-55.372
	c-19.45-4.174-38.463-8.254-57.476-12.334C348.457,271.382,348.13,272.035,347.802,272.687z M188.15,415.877
	c-13.809,14.544-27.77,28.943-41.617,44.7c14.732,10.128,28.708,19.736,43.641,30.002c0-25.673,0-49.64,0-73.608
	C189.499,416.606,188.825,416.241,188.15,415.877z M295.062,102.667c8.226-9.645,16.641-19.136,24.623-28.979
	c7.931-9.781,17.245-18.529,24.009-29.21c-0.389-0.446-0.779-0.892-1.168-1.338c-20.347,4.005-40.694,8.009-61.393,12.083
	c4.24,16.459,8.194,31.808,12.149,47.158C293.875,102.476,294.468,102.572,295.062,102.667z M167.657,340.697
	c-6.929,26.594-14.451,53.037-20.6,79.83c0.484,0.279,0.969,0.558,1.453,0.837c13.636-5.002,27.273-10.004,41.138-15.09
	c-6.782-22.571-13.264-44.141-19.745-65.71C169.154,340.609,168.406,340.653,167.657,340.697z M163.725,335.318
	c-14.069,7.226-28.139,14.451-42.671,21.915c7.407,19.805,13.522,39.336,21.284,58.25c0.661-0.044,1.322-0.087,1.983-0.131
	c7.012-26.14,14.024-52.279,21.037-78.419C164.813,336.395,164.269,335.857,163.725,335.318z M344.299,50.349
	c-16.064,18.94-32.127,37.88-48.772,57.506c12.614,6.903,24.064,13.169,36.562,20.009c4.948-26.113,9.719-51.296,14.49-76.479
	C345.82,51.039,345.06,50.694,344.299,50.349z M161.525,229.168c26.894,1.723,53.788,3.446,80.681,5.169
	c0.242-0.714,0.485-1.427,0.727-2.141c-16.657-12.663-33.314-25.326-50.591-38.46c-10.662,11.417-21.059,22.55-31.456,33.682
	C161.1,228.001,161.313,228.584,161.525,229.168z M161.54,234.971c10.247,12.064,20.494,24.127,31.022,36.521
	c17.436-10.922,35.143-20.285,51.771-31.383c-0.193-0.608-0.385-1.215-0.578-1.823c-27.072-1.745-54.144-3.49-81.216-5.235
	C162.206,233.691,161.873,234.331,161.54,234.971z M270.497,486.792c-17.566-11.118-35.133-22.235-53.168-33.65
	c-7.175,13.657-13.879,26.42-21.41,40.755c25.634-1.658,49.712-3.215,73.79-4.772C269.971,488.347,270.234,487.57,270.497,486.792z
	 M243.985,196.217c3.453,12.888,6.905,25.776,10.38,38.746c22.882-3.858,44.678-7.532,66.475-11.207
	c0.051-0.762,0.102-1.524,0.153-2.286c-25.244-8.9-50.488-17.8-75.732-26.699C244.835,195.253,244.41,195.735,243.985,196.217z
	 M357.552,341.931c-10.018-1.183-19.91-4.01-29.684-3.72c17.06,17.336,33.842,34.389,51.439,52.272
	c3.47-14.801,6.822-29.097,10.277-43.835C377.745,344.878,367.682,343.127,357.552,341.931z M340.281,263.238
	c-2.707-12.266-5.414-24.532-8.257-37.414c-22.871,3.808-45.028,7.497-67.185,11.186c-0.059,0.803-0.117,1.605-0.176,2.408
	c24.821,8.462,49.641,16.924,74.462,25.387C339.511,264.282,339.896,263.76,340.281,263.238z M120.016,50.249
	c6.389,2.534,58.95,2.284,63.448,0.065c-2.992-13.054-5.991-26.186-9.036-39.308c-0.179-0.772-0.723-1.46-1.696-3.351
	C154.969,22.007,137.752,35.919,120.016,50.249z M308.66,155.468c-2.588-6.901-4.874-13.931-7.805-20.683
	c-2.731-6.292-3.911-13.372-8.647-20.32c-8.304,18.942-15.924,36.326-24.018,54.789c16.29,2.516,31.684,4.894,48.499,7.491
	C313.67,168.747,311.152,162.112,308.66,155.468z M220.789,447.844c29.7-7.163,57.989-13.611,86.059-20.931
	c-0.047-0.744-0.094-1.488-0.141-2.232c-22.922-3.899-45.844-7.798-69.66-11.85C231.76,424.401,225.368,434.938,220.789,447.844z
	 M96.552,414.683c0,20.577,0,40.12,0,59.891c4.115-1.555,38.474-41.048,42.316-48.407
	C124.808,422.196,111.059,417.619,96.552,414.683z M115.412,360.878c-6.238,14.225-12.499,28.441-18.556,42.744
	c-0.777,1.836-0.457,4.137-0.658,6.366c7.594,2.256,14.397,4.365,21.252,6.289c6.974,1.958,13.998,3.734,21,5.59
	c0.425-0.407,0.85-0.814,1.274-1.221c-7.149-20.541-14.298-41.082-21.809-62.662C116.375,359.74,115.699,360.224,115.412,360.878z
	 M185.218,491.695c-14.233-9.833-28.139-19.44-42.017-29.028c-15.425,8.19-30.646,15.774-46.214,24.605
	C103.486,490.271,180.725,494.01,185.218,491.695z M129.816,97.387c12.594,11.933,25.744,23.257,39.712,35.477
	c6.7-15.569,12.982-30.167,19.265-44.765c-0.393-0.393-0.785-0.786-1.178-1.179c-19.012,2.96-38.024,5.921-57.036,8.881
	C130.324,96.33,130.07,96.859,129.816,97.387z M376.433,449.121c-17.121-6.487-33.701-14.411-52.436-20.206
	c1.075,17.017,2.048,32.438,3.088,48.9c17.363-9.314,33.512-17.977,49.662-26.64C376.642,450.489,376.537,449.805,376.433,449.121z
	 M378.013,398.767c-17.054,9.339-33.532,16.632-48.987,25.805c0.123,0.522,0.245,1.045,0.368,1.567
	c16.732,6.864,33.464,13.728,51.297,21.044C380.417,430.612,379.47,415.205,378.013,398.767z M338.855,121.111
	c11.667-12.103,23.303-24.172,35.63-36.96c-6.483-11.275-13.789-23.979-21.622-37.603
	C349.195,52.619,337.427,117.277,338.855,121.111z M313.679,382.866c3.201,13.146,6.402,26.292,9.793,40.216
	c17.066-9.399,33.716-16.692,49.426-25.727c-0.152-0.609-0.305-1.219-0.457-1.828c-19.155-4.739-38.31-9.479-57.464-14.218
	C314.544,381.827,314.111,382.347,313.679,382.866z M320.198,340.515c-2.389,11.887-4.807,23.921-7.311,36.381
	c19.384,4.749,37.94,9.295,57.486,14.084C352.916,373.422,336.721,357.134,320.198,340.515z M175.822,55.869
	c-19.968,0-39.935,0-61.011,0c3.278,12.305,6.375,23.93,9.689,36.37c18.03-12.166,35.578-22.717,52.184-34.656
	C176.396,57.012,176.109,56.441,175.822,55.869z M98.339,209.296c0.083,0.608,0.165,1.216,0.248,1.825
	c17.668,5.406,35.337,10.813,54.396,16.645c-3.729-15.989-7.038-30.173-10.613-45.499C126.962,191.724,112.65,200.51,98.339,209.296
	z M291.319,11.253c-19.372-2.066-38.745-4.131-59.354-6.329c3.499,13.223,6.652,25.139,10.06,38.02
	c17.293-10.153,33.683-19.775,50.073-29.398C291.839,12.781,291.579,12.017,291.319,11.253z M143.466,296.084
	c-7.767,17.773-15.517,35.554-23.159,53.381c-0.436,1.017,0.055,2.432,0.144,4.291c15.525-8.212,30.233-15.993,45.59-24.117
	c-6.951-12.234-13.448-23.668-20.241-35.622C144.352,295.275,143.685,295.582,143.466,296.084z M343.066,37.411
	c-13.919-8.042-27.839-16.084-41.744-24.117c-8.376,13.778-16.983,33.15-16.526,37.447c19.305-3.799,38.569-7.59,57.832-11.38
	C342.774,38.711,342.92,38.061,343.066,37.411z M326.985,266.915c0.085-0.738,0.17-1.477,0.255-2.215
	c-23.014-8.58-46.421-16.025-69.651-23.98c-0.357,0.409-0.715,0.818-1.072,1.227c3.428,9.899,6.856,19.799,10.378,29.972
	C287.38,270.212,307.183,268.564,326.985,266.915z M188.06,47.838c12.352-13.46,24.159-27.394,35.422-42.077
	c-15.597-0.71-30.798-1.555-46.421,0.852c3.246,13.903,6.309,27.02,9.372,40.137C186.975,47.112,187.517,47.475,188.06,47.838z
	 M119.191,266.025c-1.214,0.755-1.482,0.822-1.545,0.975c-7.052,16.995-14.136,33.977-21.043,51.031
	c-0.617,1.522-0.082,3.511-0.082,5.283c0.528,0.151,1.056,0.302,1.584,0.453c14.41-11.707,28.82-23.413,43.908-35.672
	C133.91,279.919,126.602,272.669,119.191,266.025z M150.961,231.189c-18.851-5.778-36.029-11.044-53.208-16.31
	c-0.399,0.469-0.798,0.939-1.197,1.408c7,13.681,14.001,27.362,21.531,42.08C129.37,249.446,139.901,241.179,150.961,231.189z
	 M204.105,271.593c19.157,0,38.314,0,58.547,0c-3.596-10.797-6.941-20.839-10.549-31.671
	c-16.987,10.426-32.889,20.186-48.791,29.946C203.576,270.444,203.841,271.019,204.105,271.593z M148.992,285.278
	c12.899-3.967,25.798-7.935,40.326-12.404c-11.039-12.77-21.163-24.482-31.287-36.194c-0.559,0.166-1.118,0.331-1.677,0.497
	c-2.939,15.653-5.879,31.306-8.818,46.959C148.021,284.517,148.506,284.898,148.992,285.278z M316.586,213.48
	c-16.468-14.076-33.9-26.97-51.052-40.592c-6.893,5.909-13.441,11.523-21.185,18.163c24.796,8.5,47.952,16.438,71.107,24.376
	C315.833,214.778,316.21,214.129,316.586,213.48z M122.636,148.937c-0.538,0.126-1.076,0.252-1.613,0.378
	c-4.026,8.881-8.349,17.643-11.994,26.678c-3.621,8.975-9.067,17.307-11.05,26.895c0.411,0.258,0.822,0.516,1.232,0.773
	c13.561-8.287,27.121-16.574,41.486-25.352C134.396,168.064,128.516,158.501,122.636,148.937z M363.722,180.171
	c-9.235-14.605-18.564-29.148-28.556-43.252c-0.553,0.145-1.105,0.291-1.657,0.436c-3.74,13.179-7.48,26.358-11.364,40.043
	c14.306,1.503,27.266,2.865,40.225,4.227C362.821,181.139,363.271,180.655,363.722,180.171z M168.817,141.834
	c-7.178,11.725-14.356,23.45-22.081,36.069c14.167,3.512,27.294,6.767,40.422,10.022c0.459-0.41,0.919-0.82,1.378-1.23
	c-5.96-14.824-11.919-29.649-17.879-44.473C170.044,142.092,169.431,141.963,168.817,141.834z M421.651,346.362
	c-0.718-0.278-1.437-0.555-2.155-0.833c-11.706,15.798-23.412,31.595-35.925,48.481c10.973,1.769,20.574,3.316,31.656,5.103
	C417.415,381.151,419.533,363.756,421.651,346.362z M228.738,8.048c-9.367,7.681-34.152,38.098-34.674,42.595
	c14.584-2.202,29.022-4.382,44.465-6.713C235.115,31.419,231.998,19.996,228.738,8.048z M156.655,226.443
	c11.334-11.908,21.393-22.476,32.477-34.12c-14.922-3.678-28.229-6.958-43.105-10.625
	C149.74,197.332,153.035,211.203,156.655,226.443z M167.39,324.587c0.582,0.039,1.164,0.078,1.747,0.116
	c6.389-15.234,12.778-30.469,19.167-45.703c-0.437-0.452-0.873-0.905-1.31-1.357c-12.596,3.833-25.192,7.666-39.156,11.916
	C154.705,301.863,161.047,313.225,167.39,324.587z M137.794,299.464c-0.378-0.392-0.756-0.784-1.134-1.176
	c-1.757,1.035-3.672,1.873-5.246,3.136c-10.242,8.217-20.292,16.678-30.661,24.729c-4.104,3.187-5.793,6.69-4.116,12.362
	c5.582,3.801,11.636,7.923,18.7,12.733C123.089,333.372,130.441,316.418,137.794,299.464z M180.105,156.353
	c2.822,6.45,4.789,13.36,8.551,19.336c0.555-0.188,1.11-0.376,1.665-0.564c0-24.976,0-49.953,0-75.123
	c-3.605,1.604-11.854,18.142-18.456,36.504C174.615,143.156,177.242,149.807,180.105,156.353z M312.332,478.645
	c-24.35-6.787-48.704-13.559-73.083-20.238c-1.105-0.303-2.445,0.254-3.676,0.41c-0.107,0.425-0.215,0.851-0.322,1.276
	c14.906,9.48,29.813,18.96,44.383,28.227c11.637-2.459,22.689-4.794,34.505-7.291C312.807,479.243,312.63,478.728,312.332,478.645z
	 M249.251,229.759c-3.339-12.179-6.678-24.358-9.91-36.145c-10.655-1.85-34.618-1.161-39.155,1.378
	c15.976,12.113,31.644,23.992,47.312,35.871C248.083,230.495,248.667,230.127,249.251,229.759z M297.827,115.615
	c6.369,18.178,13.103,36.217,20.458,54.019c0.676-0.053,1.353-0.106,2.029-0.158c3.638-12.606,7.276-25.211,11.017-38.173
	c-11.032-5.87-21.441-11.408-31.85-16.946C298.93,114.776,298.379,115.195,297.827,115.615z M100.994,296.781
	c4.1-10.048,7.95-20.203,12.263-30.157c1.54-3.554,1.572-6.468-0.224-9.859c-4.324-8.162-8.348-16.481-12.577-24.694
	c-0.597-1.159-1.667-2.073-2.656-3.269c-2.505,4.906-2.504,68.155,0.268,73.537C99.25,300.117,100.286,298.516,100.994,296.781z
	 M276.456,176.675c16.899,13.274,33.798,26.547,50.696,39.821c0.579-0.421,1.157-0.841,1.736-1.262
	c-3.593-11.543-7.186-23.086-10.72-34.439c-14.141-2.161-27.473-4.198-40.805-6.235C277.061,175.265,276.758,175.97,276.456,176.675
	z M373.466,337.861c-21.456-10.89-42.912-21.781-64.858-32.92c-0.204,1.78-0.512,2.472-0.302,2.922
	c3.555,7.617,7.042,15.272,10.904,22.732c0.667,1.288,2.904,2.198,4.551,2.473c11.922,1.992,23.871,3.822,35.827,5.601
	c4.366,0.649,8.774,1.018,13.163,1.515C372.99,339.409,373.228,338.635,373.466,337.861z M335.256,271.401
	c-9.218-1.504-58.12,3.118-62.04,5.802c9.739,6.741,19.247,13.323,29.195,20.208C313.473,288.651,323.906,280.389,335.256,271.401z
	 M402.06,276.114c-8.662-10.631-17.325-21.263-26.309-32.288c-9.254,7.547-17.839,14.549-26.424,21.551
	c0.192,0.547,0.385,1.093,0.577,1.64c16.967,3.644,33.935,7.288,50.902,10.932C401.224,277.337,401.642,276.726,402.06,276.114z
	 M362.772,185.405c-13.183-1.32-26.275-2.631-40.5-4.056c4.086,13.069,7.717,24.685,11.541,36.917
	C340.233,214.294,361.62,189.955,362.772,185.405z M195.436,416.757c-2.501,6.001-2.131,60.506,0.244,67.423
	c7.62-10.798,12.195-22.499,18.942-33.53C208.191,439.29,202.034,428.413,195.436,416.757z M135.871,89.167
	c0.28,0.664,0.56,1.328,0.84,1.992c17.616-2.788,35.232-5.576,53.596-8.483c-1.886-8.773-3.584-16.675-5.539-25.768
	C167.671,68.522,151.295,78.144,135.871,89.167z M237.2,47.801c-15.275,2.348-29.48,4.531-43.686,6.714
	c-0.138,0.516-0.276,1.032-0.414,1.547c10.6,9.074,22.576,16.292,34.969,25.372C231.596,69.792,235.583,59.529,237.2,47.801z
	 M384.947,441.063c0.615,0.116,1.229,0.231,1.843,0.347c8.724-12.519,17.449-25.039,26.962-38.691
	c-11.335-1.866-20.914-3.443-31.971-5.263C383.31,412.728,382.653,427.013,384.947,441.063z M407.708,293.026
	c-4.039,15.952-9.158,31.644-12.308,49.017c9.9-3.244,18.303-5.997,27.339-8.957c-4.424-13.863-8.649-27.104-12.874-40.344
	C409.145,292.836,408.426,292.931,407.708,293.026z M141.678,445.526c-0.206-4.279,1.059-8.768-1.5-13.822
	c-13.8,16.021-27.073,31.431-40.346,46.841c0.388,0.558,0.777,1.117,1.165,1.675c14.014-5.562,26.706-13.88,40.729-20.573
	C141.727,454.536,141.894,450.022,141.678,445.526z M144.066,282.613c2.704-14.882,5.408-29.764,8.112-44.647
	c-0.6-0.298-1.201-0.597-1.801-0.895c-9.821,8.03-19.643,16.061-28.564,23.355c7.318,7.95,14.039,15.251,20.76,22.552
	C143.07,282.857,143.568,282.735,144.066,282.613z M196.539,411.599c6.296,10.982,12.591,21.965,18.887,32.947
	c0.627,0.022,1.253,0.045,1.88,0.067c5.003-10.384,10.005-20.768,15.495-32.165c-12.68-0.925-24.001-1.75-35.322-2.576
	C197.165,410.449,196.852,411.024,196.539,411.599z M282.118,400.909c12.568,7.115,23.894,13.528,35.22,19.94
	c0.462-0.426,0.924-0.852,1.386-1.278c-2.907-12.171-5.814-24.343-9.062-37.947C300.126,388.301,291.724,394.184,282.118,400.909z
	 M292.877,17.725c-9.169,3.398-41.61,23.483-43.873,27.621c9.849,2.068,19.468,4.087,29.142,6.118
	c5.69-11.551,10.946-22.221,16.201-32.891C293.857,18.29,293.367,18.007,292.877,17.725z M336.615,228.972
	c2.508,11.374,5.015,22.749,7.808,35.418c9.786-7.994,18.356-14.994,27.863-22.759c-10.338-4.204-19.196-7.823-28.07-11.403
	c-2.028-0.818-4.111-1.499-6.169-2.244C337.57,228.314,337.093,228.643,336.615,228.972z M96.647,189.419
	c4.064-2.671,20.408-37.468,21.089-44.371c-6.802-0.67-13.6-1.34-21.089-2.078C96.647,159.067,96.647,174.019,96.647,189.419z
	 M147.296,453.563c12.24-12.812,24.48-25.624,36.72-38.435c-0.399-0.659-0.798-1.317-1.196-1.976
	c-12.594,4.569-25.188,9.138-37.319,13.539c0,9.353,0,17.513,0,25.673C146.099,452.764,146.698,453.164,147.296,453.563z
	 M254.37,85.127c6.806-9.748,13.612-19.497,21.097-30.219c-11.218-2.447-20.869-4.553-32.085-7
	c3.176,13.086,6.069,25.006,8.961,36.926C253.019,84.932,253.694,85.03,254.37,85.127z M118.021,104.955
	c-6.85,8.405-13.792,16.745-20.303,25.408c-1.491,1.983-1.435,5.128-2.399,8.961c8.944,0.711,16.685,1.327,24.751,1.968
	c0.594-13.185,1.134-25.167,1.736-38.533C119.611,104.005,118.571,104.28,118.021,104.955z M144.264,170.424
	c0.638,0.133,1.275,0.266,1.913,0.398c6.675-10.661,13.351-21.323,20.716-33.086c-10.249-1.393-18.78-2.553-28.131-3.825
	C140.728,146.957,142.496,158.69,144.264,170.424z M189.541,385.752c0-16.661,0-33.322,0-50.427
	c-5.905-0.782-11.432-1.514-18.494-2.45c5.699,18.641,11.008,36.008,16.317,53.375C188.09,386.084,188.816,385.918,189.541,385.752z
	 M110.294,59.856c-3.2,3.668-6.028,7.769-9.687,10.9c-5.416,4.636-5.22,10.084-4.006,16.556c7.918,1.634,15.505,4.377,24.381,4.146
	c-3.152-11.05-6.044-21.187-8.936-31.324C111.463,60.042,110.878,59.949,110.294,59.856z M385.889,381.4
	c0.612,0.271,1.224,0.542,1.836,0.813c10.167-13.773,20.335-27.546,30.502-41.319c-0.408-0.547-0.815-1.093-1.223-1.64
	c-7.635,2.469-15.271,4.937-23.354,7.55C390.795,358.323,387.378,369.659,385.889,381.4z M98.81,389.18
	c4.921-11.305,9.843-22.609,15.034-34.534c-5.752-3.715-11.041-7.132-17.182-11.099c0,16.165,0,30.719,0,45.273
	C97.378,388.94,98.094,389.06,98.81,389.18z M96.192,122.777c0.715,0.23,1.429,0.461,2.144,0.691
	c6.996-8.697,13.992-17.394,21.783-27.081c-8.317-1.817-15.174-3.315-23.875-5.216C95.791,102.245,95.847,112.511,96.192,122.777z
	 M187.557,290.663c-5.331,12.363-10.662,24.727-16.471,38.198c6.753,0.97,12.389,1.779,18.452,2.649c0-14.007,0-27.134,0-40.262
	C188.878,291.053,188.217,290.858,187.557,290.663z M303.991,418.483c-0.358-0.49-0.61-1.17-1.091-1.442
	c-7.484-4.225-14.985-8.419-22.521-12.551c-0.861-0.472-2.039-0.917-2.921-0.717c-8.31,1.88-16.589,3.896-24.865,5.927
	c-0.157,0.038-0.153,0.73-0.38,1.958c17.104,2.871,34.179,5.738,51.254,8.604C303.642,419.669,303.816,419.076,303.991,418.483z
	 M269.916,104.218c1.977-13.836,3.728-26.099,5.48-38.361c-0.607-0.218-1.213-0.436-1.82-0.654
	c-7.276,7.838-12.56,17.145-19.268,26.585C259.609,96.009,264.147,99.623,269.916,104.218z M278.422,70.353
	c-1.625,11.766-3.251,23.532-4.948,35.817c5.979,0,10.976,0,16.915,0c-3.229-12.386-6.304-24.177-9.378-35.968
	C280.149,70.252,279.286,70.302,278.422,70.353z M219.466,82.115c-2.387-4.934-24.64-20.552-29.865-20.925
	c1.44,6.884,2.844,13.6,4.377,20.925C202.792,82.115,210.998,82.115,219.466,82.115z M160.228,132.463
	c0.229-0.534,0.459-1.067,0.688-1.601c-9.832-8.742-19.664-17.484-29.496-26.226c-0.637,0.384-1.274,0.768-1.911,1.152
	c2.814,7.917,5.627,15.833,8.497,23.907C145.756,130.334,152.846,132.849,160.228,132.463z M98.398,31.948
	c-0.587,0.223-1.175,0.445-1.762,0.668c0,11.33,0,22.659,0,33.989c0.524,0.288,1.047,0.577,1.571,0.865
	c4.06-4.573,8.12-9.145,12.444-14.016C106.261,45.75,102.329,38.849,98.398,31.948z M239.36,57.033
	c-2.477,8.63-4.953,17.26-7.488,26.093c5.963,1.963,10.896,3.587,17.504,5.763c-2.748-11.476-5.189-21.671-7.63-31.865
	C240.95,57.027,240.155,57.03,239.36,57.033z M137.632,164.717c0.589-0.244,1.178-0.488,1.767-0.732
	c-1.367-9.225-2.733-18.45-4.294-28.988c-4.348,3.615-7.321,6.087-11.164,9.281C128.718,151.244,132.133,158.706,137.632,164.717z
	 M280.94,130.258c2.396-6.539,6.897-12.252,7.63-20.135c-5.32,0.324-9.953-1.278-14.741,1.368c1.649,6.389,3.236,12.54,4.823,18.691
	C279.414,130.208,280.177,130.233,280.94,130.258z M127.174,111.099c-0.69,0.165-1.379,0.33-2.069,0.495c0,8.491,0,16.983,0,26.671
	c3.419-2.891,6.121-5.175,9.311-7.872C131.837,123.522,129.505,117.31,127.174,111.099z"/>
</svg>
