<?xml version="1.0" encoding="utf-8"?>
<!-- Generator: Adobe Illustrator 26.2.1, SVG Export Plug-In . SVG Version: 6.00 Build 0)  -->
<svg version="1.1" id="Layer_1" xmlns="http://www.w3.org/2000/svg" xmlns:xlink="http://www.w3.org/1999/xlink" x="0px" y="0px"
	 viewBox="0 0 500 500" style="enable-background:new 0 0 500 500;" xml:space="preserve">
<path id="XMLID_4_" d="M406.7,263.6c0,9.9,0,18.7,0,27.6c0,34.9,0.1,69.8-0.2,104.7c0,3.4-2.4,8.2-5.1,9.8
	c-48.4,28.2-97,56-145.6,83.8c-0.8,0.4-1.6,0.6-3.6,1.4c-0.2-2.8-0.6-5.3-0.6-7.7c0-41.1-0.2-82.3,0.2-123.4c0-3.7,2.3-9,5.2-10.7
	c48.4-28.2,97-56,145.6-83.8C403.3,264.7,404.2,264.5,406.7,263.6z M216.7,491.8c-19.7-11.3-37.8-21.5-55.8-31.8
	c-19.4-11.1-38.8-22.2-58-33.7c-2.7-1.6-5.6-5.6-5.7-8.5c-0.3-43.3-0.2-86.5-0.2-129.8c0-0.8,0.3-1.6,0.6-3.3c2.9,1.4,5.5,2.6,8,4
	c34.7,19.9,69.3,39.7,103.8,59.8c3.1,1.8,6.9,5.8,6.9,8.8C216.8,401.5,216.7,445.6,216.7,491.8z M251.5,315.9c0-14.2,0-26.7,0-39.2
	c0-30.1-0.2-60.3,0.2-90.4c0-3.4,2.1-8.4,4.9-10c37-21.7,74.3-42.9,111.6-64.2c0.5-0.3,1.1-0.3,2.4-0.6c0.2,2.6,0.5,5.1,0.5,7.6
	c0,40-0.1,79.9,0.1,119.9c0,6-1.4,9.5-7,12.6c-34.6,19.4-68.8,39.3-103.2,59C258.4,312.2,255.8,313.6,251.5,315.9z M216.7,315.4
	c-2.7-1.1-4.1-1.5-5.3-2.2c-36.5-20.9-73-41.7-109.3-62.9c-2.5-1.4-4.9-5.4-4.9-8.2c-0.3-43.3-0.2-86.5-0.2-130.6
	c2,0.6,3.7,0.9,5,1.6c36.2,20.7,72.5,41.4,108.6,62.4c2.8,1.6,5.9,5.7,5.9,8.6C216.8,227.5,216.7,270.8,216.7,315.4z M115.2,74.7
	c39.2-22.5,77.1-44.3,115.2-65.9c1.9-1.1,5.3-1.1,7.2-0.1c37.8,21.5,75.5,43.2,113.2,64.9c0.4,0.2,0.6,0.9,1.2,2
	c-2.1,1.4-4.2,2.9-6.4,4.2c-35.1,20.2-70.2,40.4-105.5,60.2c-2.8,1.6-7.7,2.4-10.2,1c-37.1-20.9-74-42.2-110.9-63.4
	C118,77.1,117.2,76.3,115.2,74.7z"/>
</svg>
