<?xml version="1.0" encoding="iso-8859-1"?>
<!-- Generator: Adobe Illustrator 19.0.0, SVG Export Plug-In . SVG Version: 6.00 Build 0)  -->
<svg version="1.1" id="Layer_1" xmlns="http://www.w3.org/2000/svg" xmlns:xlink="http://www.w3.org/1999/xlink" x="0px" y="0px"
	 viewBox="0 0 500 500" enable-background="new 0 0 500 500" xml:space="preserve">
<path d="M381.276,249.196c12.303,21.584,24.393,42.769,36.453,63.972c2.628,4.62,5.188,9.28,7.696,13.966
	c1.433,2.677,3.208,3.611,6.445,2.986c13.523-2.614,28.444,6.536,32.022,18.609c5.304,17.896-5.501,31.607-18.129,36.625
	c-12.357,4.911-31.851-4.011-35.507-18.208c-0.907-3.522-2.822-4.266-6.117-4.249c-27.497,0.143-54.996,0.276-82.491,0.068
	c-5.09-0.039-7.849,1.84-10.254,6.072c-13.177,23.19-26.566,46.259-39.915,69.351c-1.228,2.123-2.684,4.114-3.969,6.067
	c11.956,15.621,12.689,31.118,2.19,42.031c-9.739,10.123-25.611,11.697-37.351,3.296c-7.419-5.309-11.341-12.78-11.704-22.04
	c-0.354-9.018,3.615-16.302,9.369-22.724c-12.358-21.235-24.464-42.005-36.531-62.797c-3-5.17-5.636-10.571-8.937-15.535
	c-1.142-1.718-3.782-3.441-5.753-3.459c-28.658-0.263-57.319-0.313-85.977-0.095c-1.742,0.013-4.251,2.365-5.062,4.216
	c-3.864,8.825-9.822,14.656-19.08,18.266c-12.032,4.691-30.088-4.644-34.86-18.083c-7.155-20.147,11.382-43.142,36.035-36.744
	c2.334-3.852,4.851-7.838,7.204-11.917c11.915-20.658,23.619-41.44,35.791-61.945c3.168-5.337,3.452-9.51,0.235-14.969
	c-11.202-19.012-21.931-38.302-32.798-57.51c-2.533-4.477-4.951-9.022-7.325-13.586c-1.244-2.392-2.59-3.14-5.548-2.396
	c-13.516,3.4-26.91-3.392-32.788-16.237c-5.576-12.184-1.372-27.037,9.879-34.9c14.992-10.478,36.619-3.538,42.605,13.766
	c1.013,2.929,2.427,4.245,5.73,4.218c28.327-0.232,56.656-0.362,84.983-0.328c3.659,0.004,5.641-1.175,7.467-4.361
	c13.932-24.309,28.01-48.536,42.23-72.679c1.838-3.121,1.742-5.169-0.52-7.946c-10.19-12.516-8.042-30.914,5.09-40.505
	c13.396-9.784,31.779-6.512,40.679,7.146c6.628,10.173,5.894,24.472-2.094,34.021c-2.125,2.54-1.955,4.001-0.298,6.828
	c8.64,14.744,16.819,29.757,25.275,44.61c5.493,9.648,10.976,19.316,16.95,28.664c1.311,2.052,4.671,3.926,7.109,3.954
	c26.161,0.292,52.327,0.196,78.491,0.206c0.5,0,1.02-0.109,1.497-0.008c6.364,1.346,10.025-0.407,12.479-7.255
	c4.202-11.725,22.043-19.293,35.412-13.347c13.49,6,20.233,19.614,16.763,33.841c-3.178,13.026-17.346,23.191-31.525,20.759
	c-3.5-0.6-5.42,0.352-7.204,3.493c-10.485,18.466-21.198,36.803-31.834,55.183C389.712,234.626,385.639,241.66,381.276,249.196z
	 M288.151,248.087c0.898-1.436,1.667-2.696,2.464-3.937c15.095-23.513-1.214-53.794-28.583-56.204
	c-16.537-1.456-33.296-0.404-49.956-0.441c-7.428-0.017-11.019,3.55-11.022,10.999c-0.014,33.829-0.007,67.658,0.024,101.487
	c0.008,8.892,3.562,12.49,12.341,12.524c15.164,0.059,30.337,0.383,45.49-0.019c12.344-0.328,22.783-5.3,30.775-15.034
	C299.769,285.177,301.166,263.602,288.151,248.087z"/>
</svg>
