<?xml version="1.0" encoding="iso-8859-1"?>
<!-- Generator: Adobe Illustrator 19.0.0, SVG Export Plug-In . SVG Version: 6.00 Build 0)  -->
<svg version="1.1" id="Layer_1" xmlns="http://www.w3.org/2000/svg" xmlns:xlink="http://www.w3.org/1999/xlink" x="0px" y="0px"
	 viewBox="0 0 2000 2000" style="enable-background:new 0 0 2000 2000;" xml:space="preserve">
<path d="M1983.167,1000.328c6.047,528.416-433.144,995.478-1008.378,981.779C459.975,1969.847,8.826,1547.004,19.095,974.308
	C28.14,469.889,454.574-12.368,1060.437,18.71C1551.614,43.905,1986.776,458.402,1983.167,1000.328z M929.242,684.909
	c3.072,97.915,8.87,192.901,8.291,287.847c-0.666,109.102-3.304,218.472-12.262,327.133
	c-5.096,61.817-22.009,123.129-38.191,183.436c-17.695,65.946-86.698,77.671-134.61,65.703
	c-84.802-21.183-142.267-79.659-201.674-143.657c31.286-6.129,58.705-11.501,91.498-17.925
	c-96.849-50.913-149.43-129.766-170.521-233.397c-70.614,111.092-70.173,286.559,0.291,384.583
	c11.023-31.61,21.57-61.855,33.481-96.011c5.344,11.045,8.5,17.602,11.684,24.145c46.295,95.122,113.544,169.056,212.304,211.776
	c42.433,18.355,85.653,35.617,125.969,57.97c59.782,33.146,110.997,77.055,144.538,139.799
	c11.384-16.618,20.027-31.412,30.742-44.511c58.285-71.253,135.902-114.123,220.353-145.276
	c87.263-32.19,153.839-88.485,203.093-166.171c14.909-23.516,27.35-48.596,41.894-74.705c11.49,32.701,21.931,62.416,32.862,93.527
	c84.179-113.376,63.439-306.48,1.398-380.541c-20.408,100.282-72.312,178.261-168.368,228.721
	c33.062,6.588,59.766,11.909,87.683,17.471c-38.568,54.071-107.258,110.805-163.702,133.272
	c-79.651,31.704-152.687,19.561-181.514-84.444c-29.787-107.468-35.298-217.82-37.884-327.982
	c-2.581-109.953,1.412-220.077,3.402-330.11c0.661-36.562,4.042-73.076,6.24-110.654c32.832,0,63.193,0.054,93.553-0.012
	c52.313-0.113,90.029-35.753,90.998-85.9c0.95-49.183-37.168-87.121-88.999-87.931c-27.113-0.424-54.261,0.722-81.35-0.165
	c-6.691-0.219-18.97-6.075-18.768-8.517c0.694-8.359,5.362-16.584,9.485-24.344c1.233-2.32,5.739-2.78,8.582-4.382
	c78.879-44.437,115.839-128.92,92.399-214.612c-22.468-82.141-98.413-138.986-184.155-136.926
	c-85.02,2.042-156.056,57.745-178.39,144.32c-19.976,77.434,19.197,167.673,90.962,204.662c18.515,9.543,26.238,19.401,18.179,39.94
	c-34.671,0-69.135-1.176-103.488,0.278c-50.509,2.138-82.73,39.347-81.354,91.54c1.206,45.757,39.085,81.809,86.387,82.022
	C861.408,685.023,892.536,684.909,929.242,684.909z M1000.49,412.508c58.464,0.343,105.288-46.42,106.047-105.911
	c0.692-54.219-48.526-104.726-102.426-105.108c-58.464-0.414-107.051,47.47-106.999,105.453
	C897.165,365.763,942.608,412.168,1000.49,412.508z"/>
</svg>
