<?xml version="1.0" encoding="iso-8859-1"?>
<!-- Generator: Adobe Illustrator 19.0.0, SVG Export Plug-In . SVG Version: 6.00 Build 0)  -->
<svg version="1.1" id="Layer_1" xmlns="http://www.w3.org/2000/svg" xmlns:xlink="http://www.w3.org/1999/xlink" x="0px" y="0px"
	 viewBox="0 0 2000 2000" style="enable-background:new 0 0 2000 2000;" xml:space="preserve">
<path d="M1167.719,19.144c9.284,87.229,20.306,169.156,26.326,251.45c17.203,235.175,33.141,470.451,47.709,705.803
	c2.969,47.971-0.785,96.543-4.028,144.664c-3.633,53.907-26.327,102.59-58.602,143.732
	c-65.413,83.384-131.459,166.962-204.655,243.361c-77.151,80.527-162.916,152.804-244.993,228.604
	c-12.403,11.455-25.214,22.468-33.078,39.377c6.366-4.079,13.131-7.652,19.039-12.311
	c135.371-106.764,271.318-212.813,405.698-320.811c83.464-67.078,158.992-141.322,191.586-248.324
	c2.233-7.332,8.423-14.198,14.333-19.56c108.439-98.384,220.545-192.032,347.646-266.025c10.514-6.121,21.619-11.225,39.191-20.272
	c-1.382,28.912-2.027,52.785-3.745,76.581c-9.251,128.143-27.383,254.596-65.566,377.914
	c-35.563,114.859-100.261,206.23-199.425,275.737c-147.215,103.187-309.455,173.919-478.488,230.863
	c-168.708,56.835-341.255,98.879-516.604,129.464c-6.567,1.146-13.312,1.277-23.301,2.182c-6.938-21.741-14.16-42.195-20.011-63.034
	c-76-270.691-124.025-545.531-121.079-827.744c1.329-127.344,16.165-252.96,49.776-376.147
	c48.757-178.7,145.576-326.047,288.514-443.168C781.76,142.187,963.409,64.061,1167.719,19.144z M1327.76,750.472
	c3.294,40.066,6.455,78.525,10.23,124.442c117.718-124.968,232.219-239.485,375.999-320.054
	c-2.435-45.672-4.758-89.242-7.631-143.116C1555.469,506.771,1425.969,610.701,1327.76,750.472z M1715.059,799.062
	c0-54.975,0-104.834,0-159.914c-148.812,85.772-263.492,202.436-376.942,321.122c0,35.504,0,69.882,0,113.472
	C1459.036,965.63,1578.117,866.317,1715.059,799.062z"/>
</svg>
