<?xml version="1.0" encoding="iso-8859-1"?>
<!-- Generator: Adobe Illustrator 19.0.0, SVG Export Plug-In . SVG Version: 6.00 Build 0)  -->
<svg version="1.1" id="Layer_1" xmlns="http://www.w3.org/2000/svg" xmlns:xlink="http://www.w3.org/1999/xlink" x="0px" y="0px"
	 viewBox="0 0 500 500" style="enable-background:new 0 0 500 500;" xml:space="preserve">
<path d="M41.439,249.144c-0.002-31.921-0.007-63.842,0.003-95.764c0.002-6.106,0.415-12.098,2.637-17.95
	c3.659-9.638,10.601-16.11,19.221-21.124c11.531-6.707,23.081-13.38,34.631-20.054c34.066-19.687,68.135-39.37,102.206-59.049
	c10.181-5.88,20.42-11.66,30.546-17.632c15.207-8.968,30.323-8.857,45.538-0.044c43.822,25.383,87.659,50.739,131.505,76.079
	c10.764,6.221,21.603,12.314,32.376,18.52c8.495,4.894,16.562,10.219,20.922,19.607c3.085,6.643,4.836,13.472,4.829,20.854
	c-0.062,64.521-0.018,129.043-0.048,193.565c-0.008,16.41-6.559,29.247-21.018,37.629c-19.163,11.108-38.31,22.246-57.49,33.325
	c-36.411,21.032-72.802,42.098-109.305,62.968c-5.044,2.884-10.489,5.485-16.081,6.9c-10.778,2.726-20.977,0.244-30.539-5.353
	c-14.438-8.452-28.978-16.732-43.465-25.1c-40.725-23.525-81.485-46.991-122.12-70.671c-5.216-3.04-10.228-6.745-14.53-10.963
	c-5.777-5.664-8.858-12.987-9.43-21.166c-0.268-3.834-0.367-7.686-0.37-11.53C41.428,311.175,41.441,280.159,41.439,249.144z
	 M318.377,213.676c-12.62-5.804-25.132-7.52-37.809-7.608c-30.794-0.213-61.591-0.062-92.386,0.032
	c-2.909,0.009-5.888,0.36-8.709,1.058c-5.722,1.415-9.487,6.297-9.868,12.282c-0.086,1.354-0.065,2.716-0.065,4.074
	c0.009,54.345,0.022,108.691,0.036,163.036c0,1.132-0.074,2.273,0.038,3.395c0.542,5.433,3.39,9.387,8.383,11.345
	c2.663,1.044,5.722,1.489,8.605,1.497c31.475,0.088,62.95,0.109,94.425-0.017c11.368-0.046,22.534-1.734,33.185-5.922
	c15.268-6.004,28.19-15.235,38.303-28.254c10.955-14.103,17.666-29.923,18.286-47.872c0.421-12.205,0.516-24.469-0.203-36.65
	c-0.594-10.062-3.918-19.611-8.687-28.504c-6.978,7.483-13.724,14.715-20.851,22.358c0,0.917-0.246,2.525,0.038,4.032
	c2.587,13.713,2.702,27.771,0.629,41.227c-3.804,24.683-18.806,41.118-42.984,48.179c-6.401,1.869-13.369,2.385-20.09,2.463
	c-25.357,0.295-50.719,0.16-76.079,0.155c-1.297,0-2.594-0.293-4.007-0.463c0-46.205,0-92.051,0-138.285
	c3.275-0.158,6.189-0.415,9.104-0.421c19.247-0.038,38.494-0.022,57.742-0.025c11.292-0.002,22.589-0.076,33.724,2.405
	C307.819,231.374,315.119,224.672,318.377,213.676z M197.996,125.411c2.559-0.293,4.111-0.623,5.664-0.626
	c23.082-0.046,46.165-0.145,69.246,0.004c5.857,0.038,11.9,0.117,17.528,1.509c21.109,5.223,35.736,18.076,42.107,39.083
	c4.399,14.505,3.666,29.476,1.561,44.335c-2.462,17.376-12.536,29.669-26.854,38.777c-8.992,5.72-19.064,7.896-29.744,7.826
	c-19.468-0.129-38.939,0.005-58.408,0.059c-2.192,0.006-4.384,0.205-6.81,0.326c0,9.736,0,18.866,0,28.247
	c1.736,0.106,3.058,0.261,4.379,0.256c22.169-0.099,44.339-0.154,66.506-0.393c4.037-0.043,8.117-0.589,12.089-1.357
	c36.891-7.136,65.456-37.485,68.46-78.093c0.911-12.31,1.232-24.834-1.057-37.217c-6.113-33.068-25.057-55.305-56.276-67.279
	c-10.062-3.859-20.667-4.868-31.316-4.919c-28.751-0.139-57.504-0.078-86.256-0.013c-2.909,0.007-5.839,0.452-8.722,0.921
	c-5.278,0.86-8.263,4.53-9.972,9.17c-0.75,2.035-0.606,4.456-0.607,6.701c-0.015,25.582,0.014,51.164,0.057,76.745
	c0.003,1.766,0.216,3.531,0.407,6.474c8.93-5.532,18.437-2.732,28.018-4.089C197.996,169.736,197.996,147.859,197.996,125.411z"/>
</svg>
