<?xml version="1.0" encoding="iso-8859-1"?>
<!-- Generator: Adobe Illustrator 19.0.0, SVG Export Plug-In . SVG Version: 6.00 Build 0)  -->
<svg version="1.1" id="Layer_1" xmlns="http://www.w3.org/2000/svg" xmlns:xlink="http://www.w3.org/1999/xlink" x="0px" y="0px"
	 viewBox="0 0 500 500" enable-background="new 0 0 500 500" xml:space="preserve">
<path d="M250.849,3.189c37.849,35.995,75.786,70.617,112.027,106.933c39.382,39.463,74.396,82.656,99.888,132.688
	c12.992,25.5,24.196,51.73,25.081,81.116c0.827,27.449-8.03,52.055-23.996,73.554c-26.038,35.06-61.999,52.22-105.454,48.872
	c-49.429-3.808-89.249-35.648-105.057-84.394c-1.024-3.159-1.822-6.391-2.76-9.715c-4.633,10.79-8.077,21.869-13.799,31.61
	c-25.401,43.241-63.582,65.849-113.725,62.433c-55.091-3.753-99.029-45.525-108.225-98.734c-5.495-31.794,1.96-60.928,14.83-89.253
	c18.553-40.834,44.574-76.761,73.487-110.837c41.118-48.459,88.576-90.404,135.269-133.159
	C242.237,10.804,246.141,7.393,250.849,3.189z M136.791,335.786c8.514-2.948,15.406-6.404,22.662-7.554
	c7.744-1.227,15.833-0.276,24.57-0.276c-20.317,13.602-55.835,15.827-68.933,4.808c31.766-26.418,99.327-22.301,119.581,1.426
	c-36.901-1.081-55.899,7.633-63.953,30.021c1.872,0.726,3.765,1.459,5.446,2.111c21.165-29.403,43.744-34.601,74.255-17.792
	c4.679-2.331,9.067-5.46,13.945-6.782c20.593-5.578,45.623-0.906,56.563,20.285c1.051,2.037,4.717,2.724,7.169,4.038
	c0.518-1.085,1.036-2.169,1.554-3.254c-13.904-25.646-36.384-33.051-65.114-28.109c26.73-27.919,98.458-24.469,119.773-1.656
	c-11.186,10.883-47.576,8.399-69.081-5.654c14.625-1.254,27.131,0.176,39.332,5.488c2.495,1.087,5.868,0.157,8.837,0.157
	c-0.033-0.963-0.066-1.926-0.099-2.89c-19.191-9.392-38.935-13.094-59.946-4.908c27.206,24.131,60.331,22.028,94.846,19.871
	c-7.4,9.684-14.407,16.139-25.548,14.194c-8.438-1.473-16.735-3.747-25.101-5.635c-2.644-0.597-5.309-1.101-7.964-1.648
	c-0.322,0.866-0.644,1.731-0.967,2.597c7.027,9.32,19.665,7.269,29.013,13.655c-13.386,2.916-26.948,4.74-40.493,6.686
	c-3.16,0.454-6.261,1.322-9.389,2c28.281,11.586,89.511-12.325,92.161-42.678c-5.92,1.335-11.546,2.605-19.172,4.325
	c26.334-25.674,35.681-59.209,20.665-73.086c-3.954,3.571-7.996,7.22-12.726,11.491c6.45-37.612-3.159-73.397-22.055-80.458
	c-2.138,5.394-4.304,10.856-6.927,17.473c-6.325-34.864-26.936-56.022-58.12-71.781c-0.511,5.996-0.881,10.341-1.492,17.507
	c-11.982-12.636-22.626-24.053-33.488-35.26c-11.077-11.429-18.914-24.462-22.006-40.294c-0.438-2.243-3.534-3.967-5.4-5.932
	c-0.826,0.329-1.653,0.657-2.479,0.986c-5.16,36.661-33.915,55.252-57.782,78.384c0.227-5.108,0.412-9.29,0.688-15.509
	c-32.146,15.291-52.201,37.124-59.303,71.426c-2.732-6.938-4.781-12.142-7.538-19.144c-24.494,24.703-28.528,52.464-20.507,84.063
	c-5.5-5.152-9.985-9.354-15.865-14.861c-10.784,31.752,1.57,53.899,22.562,75.327c-5.15-1.379-8.097-2.41-11.132-2.912
	c-2.888-0.477-5.866-0.401-9.828-0.626c16.515,37.326,72.24,51.797,95.862,41.975c-18.345-3.009-34.618-5.678-50.892-8.347
	c0.175-0.67,0.35-1.34,0.525-2.01c9.724-3.411,19.449-6.823,29.173-10.234c-0.282-1.284-0.564-2.567-0.846-3.851
	c-2.541,0-5.231-0.542-7.591,0.111c-5.208,1.439-10.17,3.764-15.374,5.224c-16.544,4.642-27.376,0.427-36.002-13.697
	c44.453,6.71,87.796-4.697,93.99-19.616C182.045,315.818,142.253,321.486,136.791,335.786z M291.095,454.002
	c-21.188-17.737-34.379-40.371-40.776-68.797c-16.951,58.662-54.927,90.317-113.969,97.352c0,4.161,0,8.346,0,12.639
	c76.411,0,152.316,0,228.551,0c0-4.529,0-8.5,0-13.03C336.797,480.236,312.193,471.664,291.095,454.002z M226.136,143.481
	c3.183-0.602,5.405-1.023,7.817-1.479c4.135,7.346,7.8,13.858,11.705,20.795c2.137-14.293-2.144-28.517,4.362-41.731
	c6.17,13.308,2.466,27.444,4.336,42.186c6.005-7.561,6.155-18.98,18.369-20.615c-26.143,42.634-15.664,89.684-18.564,135.152
	c8.923-21.38,22.29-39.027,39.794-53.843c14.928-12.635,27.878-26.924,33.834-46.269c0.515-1.673,2.311-2.951,3.512-4.412
	c1.11,0.398,2.22,0.796,3.33,1.193c1.783,11.347-6.645,19.974-11.643,29.684c11.305-3.721,21.937-7.22,32.782-10.789
	c-7.86-16.409-19.345-29.264-35.458-38.458c-1.078,37.125-25.095,60.619-46.202,71.961c-2.292,1.231-5.487,0.781-8.263,1.111
	c-0.192-0.92-0.385-1.839-0.577-2.759c21.248-13.353,39.841-28.788,44.926-55.193c-4.891-6.2-9.332-11.829-14.17-17.962
	c-14.024,10.823-19.256,24.874-20.192,40.96c0.798,0.44,1.595,0.88,2.393,1.32c5.272-9.256,10.543-18.511,15.947-27.999
	c1.903,1.323,3.264,2.269,4.94,3.434c-5.504,14.703-10.783,28.919-28.965,33.912c-5.027-23.68,3.207-41.687,20.078-56.011
	c-16.405-14.719-31.44-29.067-38.67-46.977c-13.051,15.726-26.711,32.186-40.128,48.353c14.387,7.116,27.626,44.734,17.178,54.238
	c-14.942-3.756-20.579-16.228-25.827-28.776c-0.868-2.075,0.714-5.174,1.163-7.799c0.727,0.025,1.454,0.049,2.181,0.074
	c5.535,9.269,11.07,18.538,16.605,27.806c0.788-17.367-4.286-31.611-18.82-42.314c-5.026,6.683-9.975,13.264-14.177,18.851
	c6.785,24.022,21.686,39.127,40.272,51.368c1.713,1.128,2.411,3.795,3.581,5.748c-35.491-16.18-47.801-34.173-53.13-73.996
	c-15.588,10.176-28.206,22.23-35.974,39.034c11.776,3.941,23.073,7.721,33.584,11.238c-4.814-10.041-9.751-20.338-14.688-30.634
	c1.25-0.884,2.501-1.769,3.751-2.653c1.824,1.62,4.637,2.907,5.315,4.914c4.949,14.649,14.08,26.371,24.891,37.008
	c8.631,8.492,18.152,16.259,25.714,25.613c8.581,10.614,15.42,22.636,23.276,34.435
	C244.418,229.631,253.082,184.593,226.136,143.481z M184.045,277.796c-21.569-11.137-44.858-16.434-68.828-19.702
	c0.365-1.464,0.731-2.929,1.096-4.393c25.195-0.394,48.728,7.355,71.386,18.324c23.377,11.317,43.183,27.141,57.956,51.069
	c-2.363-71.901-47.488-110.4-103.839-122.795c-0.767,2.654-1.538,5.324-2.572,8.907c20.819,3.95,38.549,13.106,54.025,26.754
	c15.41,13.589,27.143,29.757,36.989,50.785c-4.439-0.655-7.823-0.149-8.802-1.451c-12.334-16.408-30.951-22.89-48.431-31.103
	c-21.857-10.269-44.181-19.856-53.437-46.092c-2.951,5.293-5.373,9.637-8.25,14.797c8.11,7.464,15.85,14.588,23.589,21.711
	c-12.929,2.646-17.496-9.144-26.264-13.07c-0.874,4.852-1.722,9.106-2.395,13.388c-2.146,13.647,0.678,20.074,13.738,25.485
	c9.196,3.81,19.171,5.889,28.94,8.121c8.711,1.991,17.617,3.131,27.824,4.885c-8.984,6.585-17.333,5.249-67.899-9.518
	c2.526,5.333,4.666,9.853,6.328,13.36c15.271,7.505,30.228,9.87,45.77,8.983c10.426-0.595,20.841-1.444,31.274-1.834
	c2.259-0.085,4.574,1.309,6.864,2.022c-0.293,0.901-0.585,1.803-0.878,2.704c-18.55,4.131-37.144,5.373-56.151,2.489
	c-19.214-2.915-36.249-10.179-51.605-24.189c0,5.622,0,9.369,0,13.116c-0.223,0.804-0.446,1.608-0.669,2.412
	c12.06,4.847,24.119,9.693,36.179,14.54c-0.45,1.231-0.9,2.462-1.351,3.692c-10.198-2.386-20.396-4.773-33.034-7.73
	c6.219,9.498,11.298,17.255,16.383,25.02c38.979-25.923,93.38-26.856,128.978-3.725C224.322,303.407,205.705,288.98,184.045,277.796
	z M313.065,271.84c22.332-10.839,45.67-18.805,71.381-15.902c-22.816,5.813-46.046,10.061-67.097,21.184
	c-27.458,14.508-48.736,33.517-52.292,46.53c42.681-22.177,84.829-20.796,127.709,4.507c4.907-7.843,9.908-15.835,14.908-23.828
	c-7.004,0.429-12.302,2.396-17.679,4.116c-8.596,2.751-10.877,2.497-16.346-2.006c12.991-4.998,28.087-4.678,36.298-15.974
	c0-4.691,0-8.2,0-12.957c-15.871,14.229-33.262,21.447-52.91,24.381c-22.181,3.312-51.221,0.619-57.238-7.951
	c5.642,0.431,10.012,0.777,14.385,1.096c20.758,1.515,41.389,3.239,61.784-3.856c8.898-3.095,12.891-8.517,14.448-17.791
	c-20.971,9.939-42.573,13.901-65.411,12.622c1.149-2.119,2.685-3.473,4.416-3.802c13.038-2.477,26.369-3.815,39.124-7.286
	c26.598-7.238,31.291-17.721,21.606-42.592c-7.532,5.348-13.461,13.853-23.335,14.587c-0.493-0.832-0.986-1.665-1.479-2.497
	c7.796-7.113,15.592-14.225,23.829-21.74c-3.079-5.212-5.635-9.537-8.255-13.973c-2.693,4.999-4.708,9.407-7.304,13.439
	c-10.289,15.977-27.064,22.946-43.247,30.677c-18.411,8.795-38.172,15.373-51.527,32.348c-1.139,1.447-4.379,1.241-6.642,1.803
	c-0.716-0.921-1.432-1.842-2.148-2.764c7.434-11.125,13.95-23.019,22.492-33.216c17.664-21.084,39.379-36.513,67.861-41.634
	c-0.695-3.558-1.257-6.429-1.819-9.306c-63.707,12.874-102.476,65.437-102.588,119.808
	C270.296,297.97,290.249,282.915,313.065,271.84z M139.731,215.544c0,4.151,0,7.854,0,13.829
	c21.972,11.282,44.847,23.028,67.723,34.775C190.751,239.747,169.161,222.519,139.731,215.544z M361.328,215.934
	c-26.094,2.591-61.279,31.028-65.741,46.2c22.269-12.732,47.539-18.318,66.256-36.71
	C361.637,221.628,361.483,218.792,361.328,215.934z"/>
</svg>
