<?xml version="1.0" encoding="utf-8"?>
<!-- Generator: Adobe Illustrator 25.1.0, SVG Export Plug-In . SVG Version: 6.00 Build 0)  -->
<svg version="1.1" id="Layer_1" xmlns="http://www.w3.org/2000/svg" xmlns:xlink="http://www.w3.org/1999/xlink" x="0px" y="0px"
	 viewBox="0 0 500 500" style="enable-background:new 0 0 500 500;" xml:space="preserve">
<g>
	<polygon points="324.1,228.2 256.4,263.8 256.4,263.8 256.4,327.7 324.1,291.6 	"/>
	<polygon points="177.5,291.6 241.9,325.9 241.9,263.7 177.5,228.9 	"/>
	<path d="M163.1,295.1l-37.7,20.5v1.7c0,0.7,0.5,1.5,1.1,1.9l115.4,64.6v-41.4L169,303.6C165.7,301.9,163.6,298.7,163.1,295.1z"/>
	<path d="M338.5,294.8c-0.4,3.7-2.6,6.9-5.9,8.7l-76.2,40.6v42L376,319.2c0.7-0.4,1.1-1.2,1.1-1.9v-0.9l-0.2,0.3L338.5,294.8z"/>
	<polygon points="250.9,176.5 180.4,214 249.2,251.2 320.7,213.7 	"/>
	<path d="M250.1,1.8C113,1.8,1.8,113,1.8,250.1S113,498.4,250.1,498.4s248.3-111.2,248.3-248.3S387.2,1.8,250.1,1.8z M393.7,317.2
		c0,6.7-3.7,13-9.6,16.3l-123.7,69.2c-2.8,1.6-6,2.4-9.1,2.4c-3.1,0-6.3-0.8-9.1-2.4l-123.7-69.2c-5.9-3.3-9.6-9.5-9.6-16.3V179.8
		c0-6.7,3.7-13,9.6-16.3l123.7-69.2c2.8-1.6,6-2.4,9.1-2.4c3.1,0,6.3,0.8,9.1,2.4l123.7,69.2c5.9,3.3,9.5,9.5,9.6,16.3V317.2z"/>
	<polygon points="338.6,278.3 377.1,300.2 377.1,200.4 338.6,220.6 	"/>
	<path d="M376,177.9l-123.6-69.2c-0.4-0.2-0.7-0.3-1.1-0.3c-0.4,0-0.8,0.1-1.1,0.3l-123.7,69.2c-0.6,0.4-1.1,1.1-1.1,1.9v119.3
		l37.6-20.5v-65c0-4.1,2.3-7.9,6-9.9l76.5-40.8c1.7-0.9,3.5-1.3,5.3-1.3c1.8,0,3.6,0.4,5.3,1.3l76.5,40.8c1.1,0.6,2.1,1.3,2.9,2.2
		l41.6-21.9v-4.2C377.1,179,376.7,178.3,376,177.9z"/>
</g>
</svg>
