<?xml version="1.0" encoding="iso-8859-1"?>
<!-- Generator: Adobe Illustrator 19.0.0, SVG Export Plug-In . SVG Version: 6.00 Build 0)  -->
<svg version="1.1" id="Layer_1" xmlns="http://www.w3.org/2000/svg" xmlns:xlink="http://www.w3.org/1999/xlink" x="0px" y="0px"
	 viewBox="0 0 500 500" enable-background="new 0 0 500 500" xml:space="preserve">
<path d="M250.671,493.974C119.617,497.522,11.666,387.515,5.392,262.886C-2.188,112.316,122.687,3.037,250.891,4.006
	C384.676,5.018,487.446,111.585,495.053,233.21C504.518,384.54,377.336,498.065,250.671,493.974z M248.176,474.314
	c123.163,4.207,223.284-101.675,227.645-215.159C480.881,127.457,372.359,21.743,247.242,23.54
	c-121.99,1.752-221.28,101.627-222.398,225.195C23.711,373.957,130.847,477.207,248.176,474.314z M437.41,249.572
	c0.287,102.759-82.392,186.548-184.543,187.022c-105.353,0.488-189.787-81.67-190.18-185.056
	c-0.403-105.787,81.94-189.199,187.221-189.652C354.221,61.438,437.117,144.415,437.41,249.572z M376.258,248.839
	c0.111-68.89-56.322-125.656-124.829-125.565c-71.818,0.095-126.963,55.13-126.924,126.673
	c0.038,69.133,55.868,125.241,124.752,125.372C320.294,375.455,376.144,319.834,376.258,248.839z"/>
</svg>
