<?xml version="1.0" encoding="iso-8859-1"?>
<!-- Generator: Adobe Illustrator 19.0.0, SVG Export Plug-In . SVG Version: 6.00 Build 0)  -->
<svg version="1.1" id="Layer_1" xmlns="http://www.w3.org/2000/svg" xmlns:xlink="http://www.w3.org/1999/xlink" x="0px" y="0px"
	 viewBox="0 0 500 500" style="enable-background:new 0 0 500 500;" xml:space="preserve">
<path id="XMLID_4_" d="M251.626,460.074c-65.434,52.146-150.709,39.947-199.888-9.924c-48.892-49.58-60.532-133.65-8.767-198.739
	c-27.346-34.254-38.509-73.381-32.155-116.952C15.597,101.67,30.48,73.775,54.203,50.59c47.857-46.772,130.805-60.143,197.571-7.64
	c34.31-27.301,73.473-38.482,117.031-32.072c34.259,5.042,63.148,20.953,86.581,46.48c47.091,51.3,53.631,133.059,4.557,194.065
	c29.167,36.98,40.135,78.981,30.659,125.521c-6.668,32.748-23.305,60.006-48.704,81.799
	C391.363,502.103,312.086,508.568,251.626,460.074z M346.33,387.58c18.176-0.036,34.142-11.8,39.475-29.086
	c8.24-26.711-10.953-52.778-39.562-53.732c-36.296-1.21-60.825-33.958-51.017-68.112c6.591-22.954,26.144-37.371,52.045-38.374
	c23.392-0.906,40.884-19.485,40.306-42.811c-0.551-22.261-18.989-40.047-41.471-40.003c-23.034,0.044-40.508,17.752-41.309,41.861
	c-1.197,36.043-34.374,60.461-68.553,50.456c-22.305-6.529-37.219-26.423-38-50.686c-0.88-27.364-24.743-46.662-50.371-40.737
	c-20.832,4.816-34.211,23.464-32.275,44.985c1.824,20.275,19.172,36.314,40.379,36.887c19.815,0.536,35.479,8.549,45.98,25.414
	c22.061,35.434-2.782,79.68-45.36,81.123c-17.923,0.607-32.655,10.888-38.629,26.957c-5.898,15.862-1.706,33.864,11.013,45.079
	c12.886,11.362,27.785,14.183,43.631,7.56c16.132-6.743,24.916-19.48,25.529-37.004c0.814-23.25,11.036-40.416,32.283-49.869
	c34.582-15.385,73.049,9.525,74.367,47.655C305.649,369.944,322.957,387.626,346.33,387.58z"/>
</svg>
