<?xml version="1.0" encoding="iso-8859-1"?>
<!-- Generator: Adobe Illustrator 19.0.0, SVG Export Plug-In . SVG Version: 6.00 Build 0)  -->
<svg version="1.1" id="Layer_1" xmlns="http://www.w3.org/2000/svg" xmlns:xlink="http://www.w3.org/1999/xlink" x="0px" y="0px"
	 viewBox="0 0 2000 2000" style="enable-background:new 0 0 2000 2000;" xml:space="preserve">
<path d="M980.899,672.887c9.272-9.05,17.583-16.675,25.349-24.82c54.371-57.031,109.922-113.007,162.635-171.535
	c89.114-98.943,240.193-104.059,338.244-18.014c80.892,70.987,157.176,147.225,237.579,223.096
	c-29.289,18.168-57.571,25.857-89.727,19.508c-36.24-7.155-72.551-14.612-109.187-18.873c-26.228-3.05-53.807-5.234-79.455-0.543
	c-82.805,15.145-165.099,33.172-247.335,51.253c-16.644,3.66-32.975,10.946-48,19.2c-18.42,10.12-23.774,25.307-17.205,40.177
	c8.244,18.66,23.425,15.851,38.455,11.494c36.836-10.679,74.006-18.709,112.703-16.196c5.26,0.341,10.488,1.182,16.969,8.014
	c-10.317,2.971-20.75,5.593-30.933,8.969c-59.153,19.611-118.227,39.46-177.374,59.089c-18.291,6.07-30.013,16.962-29.684,37.618
	c0.28,17.55,7.388,26.023,25.185,26.048c11.363,0.016,22.888-2.615,34.071-5.218c50.6-11.776,101.08-24.068,151.679-35.846
	c5.094-1.186,10.703-0.159,23.888-0.159c-12.937,6.44-18.735,9.831-24.899,12.316c-57.85,23.316-115.9,46.143-173.557,69.924
	c-13.791,5.688-26.542,14.062-39.357,21.88c-5.857,3.573-11.326,8.243-15.896,13.373c-11.17,12.54-12.09,31.719-3.328,44.943
	c9.944,15.006,23.644,12.742,37.071,7.52c33.404-12.993,65.941-28.448,99.869-39.797c44.257-14.804,89.52-26.599,134.35-39.689
	c1.096,2.893,2.191,5.785,3.286,8.678c-9.736,4.274-19.413,8.689-29.217,12.801c-59.707,25.043-119.431,50.046-179.177,74.997
	c-18.176,7.591-32.216,18.296-32.656,40.301c-0.563,28.162,14.783,40.453,41.823,31.963c33.077-10.385,65.858-21.725,98.68-32.907
	c63.629-21.677,127.614-42.108,195.752-42.17c20.673-0.019,41.817,1.415,61.915,5.904c30.724,6.862,36.321,20.435,19.102,46.981
	c-21.72,33.485-39.642,68.154-43.975,108.232c-2.107,19.486-3.553,39.509-1.261,58.81c1.145,9.647,9.415,22.253,17.916,26.345
	c13.339,6.421,20.221-7.121,25.077-17.513c8.807-18.848,16.72-38.123,24.685-57.354c15.735-37.992,38.344-71.49,67.633-100.092
	c36.835-35.971,67.756-76.221,90.296-122.413c9.847-20.179,23.795-33.266,45.208-39.617
	c74.266-22.026,149.315-40.278,229.717-50.207c24.667,65.103,24.008,128.992-6.425,191.136
	c-11.015,22.492-26.596,43.721-43.796,62.053c-110.999,118.305-222.711,235.947-334.808,353.214
	c-94.379,98.732-236.859,105.595-340.685,14.444c-61.784-54.241-119.937-112.618-179.707-169.153
	c-14.289-13.516-28.516-27.097-44.604-42.391c-7.185,6.326-14.235,11.655-20.254,17.969
	c-56.769,59.547-114.333,118.376-169.783,179.132c-89.365,97.915-239.045,105.145-340.953,14.724
	c-83.162-73.788-161.979-152.474-242.636-229.08c-1.536-1.459-1.993-4.053-4.336-9.088c38.947-13.082,75.445-30.317,119.018-19.52
	c33.494,8.299,68.474,10.4,102.514,16.754c38.522,7.19,75.844,1.209,113.357-6.531c57.61-11.886,115.382-22.986,172.968-34.98
	c19.228-4.005,38.503-8.574,56.993-15.06c12.849-4.507,25.615-11.206,36.205-19.688c12.359-9.899,12.331-24.692,5.071-37.911
	c-6.639-12.087-17.578-11.046-30.243-8.526c-36.12,7.186-72.572,12.781-109.004,18.265c-7.463,1.124-15.409-0.958-24.389-6.252
	c6.54-2.849,12.903-6.236,19.649-8.462c62.466-20.612,124.965-41.129,187.533-61.428c18.644-6.049,29.476-17.73,29.596-37.881
	c0.102-17.227-7.531-26.751-25.09-25.68c-18.291,1.116-36.463,5.678-54.465,9.722c-43.938,9.87-87.73,20.386-131.63,30.426
	c-5.395,1.234-11.089,1.157-23.227,2.316c8.728-6.151,11.76-9.282,15.453-10.741c56.942-22.488,114.269-44.036,170.817-67.467
	c20.131-8.342,38.719-20.639,57.442-32.063c12.625-7.703,19.331-19.552,18.704-34.973c-0.933-22.928-14.557-34.547-36.71-27.85
	c-22.06,6.669-43.398,15.973-64.616,25.134c-56.315,24.313-114.175,42.995-177.222,47.623c5.875-3.307,11.482-7.266,17.668-9.82
	c57.696-23.822,115.561-47.238,173.202-71.193c11.688-4.858,23.45-10.332,33.748-17.559c16.207-11.372,20.266-31.705,11.825-49.623
	c-7.562-16.051-17.519-19.83-41.172-12.245c-40.734,13.062-81.282,26.766-121.553,41.19
	c-63.838,22.865-129.201,36.069-197.219,32.148c-15.96-0.92-32.273-3.799-47.406-8.834c-16.703-5.557-20.51-17.02-13.017-33.117
	c4.358-9.362,10.715-17.82,16.412-26.527c25.456-38.903,35.556-82.594,38.198-128.08c0.708-12.189-2.44-25.615-7.427-36.874
	c-6.724-15.182-23.475-16.136-33.428-2.496c-6.005,8.229-9.907,18.264-13.464,27.961c-21.031,57.341-52.945,106.754-95.653,151.27
	c-30.008,31.278-53.254,69.648-76.13,106.931c-12.914,21.047-26.453,36.871-51.202,42.445
	c-75.331,16.966-150.504,34.631-225.784,51.826c-3.167,0.724-6.787-0.538-13.236-1.175c-22.365-82.075-10.856-157.67,46.164-223.123
	c37.266-42.778,77.49-82.986,116.545-124.197c74.926-79.06,151.522-156.604,224.571-237.359
	c97.804-108.121,255.147-102.477,351.743-12.11c64.31,60.163,127.951,121.041,191.951,181.537
	C962.147,656.327,970.762,663.761,980.899,672.887z"/>
</svg>
