<?xml version="1.0" encoding="iso-8859-1"?>
<!-- Generator: Adobe Illustrator 19.0.0, SVG Export Plug-In . SVG Version: 6.00 Build 0)  -->
<svg version="1.1" id="Layer_1" xmlns="http://www.w3.org/2000/svg" xmlns:xlink="http://www.w3.org/1999/xlink" x="0px" y="0px"
	 viewBox="0 0 500 500" enable-background="new 0 0 500 500" xml:space="preserve">
<path d="M250.342,493.999C116.633,494.435,2.055,384.481,5.634,242.204C8.896,112.525,114.962,5.675,247.825,4.19
	c138.164-1.545,250.817,111.55,247.841,250.614C492.887,384.626,386.838,494.133,250.342,493.999z M21.648,249.007
	C21.026,376.069,124.05,478.4,249.703,478.472c129.219,0.074,223.579-100.955,229.753-216.007
	c3.524-65.678-17.46-123.172-62.698-170.962c-42.839-45.256-96.152-69.45-158.379-71.467
	C124.298,15.691,20.311,124.867,21.648,249.007z M209.279,329.858c70.039-23.522,139.938-46.997,209.837-70.471
	c-0.086-0.267-0.171-0.535-0.257-0.802c-120.405,0-240.809,0-361.682,0c40.937,57.778,81.412,114.903,122.653,173.111
	C189.972,396.622,199.593,363.352,209.279,329.858z M82.048,239.638c120.361,0,240.722,0,361.946,0
	c-40.938-57.77-81.409-114.881-122.232-172.488c-0.737,1.817-1.327,2.969-1.681,4.19c-8.31,28.632-16.803,57.213-24.739,85.948
	c-2.026,7.335-4.398,12.386-12.771,14.661c-15.022,4.082-29.59,9.816-44.389,14.735c-17.47,5.807-35.006,11.416-52.473,17.231
	c-17.355,5.778-34.662,11.702-51.988,17.569c-17.286,5.854-34.569,11.716-51.853,17.574
	C81.927,239.252,81.988,239.445,82.048,239.638z"/>
</svg>
