<?xml version="1.0" encoding="iso-8859-1"?>
<!-- Generator: Adobe Illustrator 19.0.0, SVG Export Plug-In . SVG Version: 6.00 Build 0)  -->
<svg version="1.1" id="Layer_1" xmlns="http://www.w3.org/2000/svg" xmlns:xlink="http://www.w3.org/1999/xlink" x="0px" y="0px"
	 viewBox="0 0 2000 2000" style="enable-background:new 0 0 2000 2000;" xml:space="preserve">
<path d="M1001.946,1977.425C465.218,1990.546,3.22,1534.393,21.234,969.798C37.504,459.853,449.08,7.471,1036.906,22.884
	c498.501,13.07,932.72,421.644,942.799,966.04C1989.75,1531.443,1534.483,1991.518,1001.946,1977.425z M1294.453,619.547
	c0-5.737-0.294-11.491,0.045-17.208c4.59-77.436-17.84-76.722-70.445-98.079c-76.438-31.033-155.989-37.887-239.103-29.632
	c-131.534,13.064-257.042,87.98-284.816,243.072c-21.499,120.05,35.787,248.563,141.087,305.99
	c73.758,40.225,150.802,74.402,224.857,114.116c39.635,21.256,70.09,51.477,71.36,102.511
	c1.187,47.684-10.844,86.476-54.735,111.382c-71.346,40.486-146.505,33.56-219.651,11.856
	c-45.729-13.569-87.626-40.031-131.277-60.634c-29.297-13.828-48.612-2.917-50.071,29.881c-1.315,29.565-1.28,59.277,0.001,88.845
	c1.122,25.894,10.844,46.87,35.862,60.503c157.951,86.072,319.319,94.602,479.526,12.236
	c136.872-70.368,181.465-203.811,151.986-349.281c-19.95-98.448-91.478-155.26-174.774-199.41
	c-72.144-38.239-146.621-72.269-217.387-112.834c-36.234-20.771-54.983-58.896-47.12-101.808
	c8.52-46.497,37.909-78.168,84.911-89.881c59.994-14.95,118.464-9.147,174.812,16.548c29.456,13.432,58.789,27.135,88.287,40.471
	c24.078,10.885,34.474-1.528,36.301-23.595C1295.619,656.361,1294.418,637.905,1294.453,619.547z M1002.356,1800.446
	c20.996-2.333,41.196-0.954,58.667-7.203c50.979-18.236,72.483-75.756,49.524-139.322c-6.707-18.569-25.068-38.628-43.02-46.009
	c-22.982-9.449-51.071-9.737-76.749-8.707c-57.42,2.304-90.424,26.126-94.761,71.16c-5.28,54.828,1.451,110.86,51.535,122.243
	C965.994,1796.798,985.1,1798.061,1002.356,1800.446z M1016.932,200.31c-100.266-1.79-103.721,19.805-112.467,74.157
	c-10.744,66.767,7.775,119.849,92.127,118.684c16.008-0.221,32.031,0.317,48.031-0.105c40.789-1.076,71.072-23.897,76.132-63.36
	c3.259-25.411-1.264-51.888-2.933-77.847c-2.273-35.341-27.682-46.459-57.008-51.135
	C1046.528,198.426,1031.58,200.31,1016.932,200.31z"/>
</svg>
