<?xml version="1.0" encoding="iso-8859-1"?>
<!-- Generator: Adobe Illustrator 19.0.0, SVG Export Plug-In . SVG Version: 6.00 Build 0)  -->
<svg version="1.1" id="Layer_1" xmlns="http://www.w3.org/2000/svg" xmlns:xlink="http://www.w3.org/1999/xlink" x="0px" y="0px"
	 viewBox="0 0 2000 2000" style="enable-background:new 0 0 2000 2000;" xml:space="preserve">
<path d="M860.705,803.925c117.988,0,235.064-6.769,351.006,1.801c129.958,9.606,239.417,65.082,312.967,180.123
	c44.177,69.098,68.247,144.073,64.878,224.439c-3.601,85.893-31.364,165.8-88.401,233.049c-3.22,3.797-5.068,8.759-9.287,16.259
	c100.95,99.185,201.722,198.196,308.111,302.726c33.598-46.496,69.822-90.476,98.985-138.724
	c28.999-47.976,50.901-100.241,76.26-151.32c0.306,6.581,1.042,15.087,1.047,23.594c0.071,114.086-0.02,228.172,0.056,342.257
	c0.053,79.875-52.347,138.15-134,139.158c-122.82,1.517-245.673,0.395-369.981-2.36c105.687-41.072,200.92-98.402,284.569-176.384
	c-101.862-100.019-203.79-200.104-306.898-301.346c-99.565,87.121-222.83,113.371-354.569,78.886
	c-132.306-34.634-224.814-120.882-266.809-253.019c-13.98-43.988-21.043-92.022-21.245-138.25
	c-1.652-377.354-0.93-754.717-0.93-1132.078c0-10.36,0-20.72,0-32.709c9.479-0.572,17.084-1.43,24.689-1.432
	c336.115-0.067,672.25-2.027,1008.332,1.342c82.869,0.831,134.7,44.21,135.757,134.019c2.956,250.949,0.681,501.96,0.433,752.946
	c-0.004,4.309-0.476,8.618-1.211,21.111c-11.901-26.41-21.048-45.914-29.544-65.698c-36.651-85.336-88.384-160.236-152.313-227.591
	c-73.256-77.182-158.117-137.661-254.099-182.51c-110.786-51.766-226.925-75.524-350.018-71.097
	c-108.562,3.905-217.375,0.817-327.784,0.817C860.705,522.359,860.705,661.39,860.705,803.925z M322.131,381.702
	c0,141.469,0,280.466,0,422.961c-100.705,0-200.147,0-300.031,0c-0.881,9.461-1.936,15.5-1.935,21.54
	c0.069,344.836,0.112,689.673,0.487,1034.509c0.063,58.164,60.724,116.946,119.866,116.972
	c255.341,0.112,510.682,0.057,766.023-0.015c6.14-0.002,12.279-0.9,26.916-2.044c-123.593-43.467-225.076-105.705-312.078-191.552
	c-116.891-115.339-195.535-252.443-226.169-413.644c-13.611-71.626-18.387-145.84-18.748-218.922
	c-1.81-365.892-0.829-731.798-0.829-1097.699c0-11.058,0-22.116,0-35.272c-79.87,0-156.021-0.007-232.171,0.002
	C85.897,18.546,26.283,67.356,23.584,125.438c-3.898,83.882-0.997,168.08-0.997,256.265
	C123.281,381.702,222.022,381.702,322.131,381.702z"/>
</svg>
