<?xml version="1.0" encoding="utf-8"?>
<!-- Generator: Adobe Illustrator 25.1.0, SVG Export Plug-In . SVG Version: 6.00 Build 0)  -->
<svg version="1.1" id="BTC_x2B__x2B_" xmlns="http://www.w3.org/2000/svg" xmlns:xlink="http://www.w3.org/1999/xlink" x="0px"
	 y="0px" viewBox="0 0 500 500" style="enable-background:new 0 0 500 500;" xml:space="preserve">
<g>
	<path d="M476.1,143.1C476.1,143.1,476.1,143.1,476.1,143.1c-17-35.9-42.3-67.1-73.4-91.1c-4.5,2.8-9.1,5.6-13.5,8.6
		c-2.3,1.6-4.6,3.1-7,4.6c2.3-1.5,4.7-3,7-4.6c4.4-3,9-5.8,13.5-8.6C360.5,19.3,307.5-0.2,250-0.2c-19,0-37.5,2.1-55.3,6.2
		c-7,10.4-14.2,20.6-20.6,31.3c-7.9,13.1-15.8,26.2-22.4,40.1c6-0.8,10.5-4.8,15.9-7c64-27.5,126-23.7,186.2,11.3
		c1,0.6,2.1,1,3.1,1.5c0,0,0,0,0,0c0.8,0.8,1.6,1.7,2.6,2.3c30.9,20.6,54,47.8,70,81.2c3.3,6.9,5.2,14.5,9.2,21.1c0,0,0,0,0,0
		c2.4,11.9,5.9,23.5,7.6,35.6c5.2,38.9-0.4,76.1-17.2,111.5c-17.1,36.2-43,64.4-77.1,85.2c-1.6,1-3,2.1-4.6,3.2c0,0,0,0,0,0
		c-0.8,0.2-1.8,0.4-1.6,1.5c0,0,0,0,0,0c0,0,0,0,0,0c0,0,0,0,0,0c-4.2-0.1-7.3,2.7-10.8,4.3c-44.2,20.3-89.8,25-137,12.3
		c-6.9-1.9-14.2-3.2-20.6-6.2c-14.7-6.9-29.2-14.3-42.7-23.4c0,0,0,0,0,0c-6-6.4-13.9-10.5-20.1-16.9
		c-14.4-14.6-27.3-30.2-37.4-48.1c-14.2-25.3-22-52.5-24.7-81.3c-1.2-21.4,0.4-42.5,5.6-63.3c6.8-27.4,19.1-52.1,36.4-74.3
		c14-18,31-32.8,50.1-45.2c2.5-1.6,5.7-2.4,7.1-5.4c6.6-13.8,14.6-27,22.4-40.1c6.4-10.7,13.6-20.9,20.6-31.3
		C83.2,31.2,0,130.8,0,249.8c0,16.6,1.6,32.8,4.7,48.4c0,0,0,0,0,0c12.4,63,48.3,117.4,98.3,153.8c4.7-4.4,9-9.1,13.1-14.1
		c-4,5-8.4,9.7-13.1,14.1c27.7,20.2,59.8,34.8,94.5,42.2c5.8-2,11.9-2.9,17.8-4.5c28.1-7.6,56.9-12.7,83.4-26
		c14.4-7.3,27.2-16,38.3-27.4c3.3-3.3,7.5-6.4,8.5-11.6c0,0,0,0,0,0c0.7-0.1,1.1-0.4,1.4-1c-0.2,0.6-0.6,1-1.4,1
		c-1,5.2-5.3,8.2-8.5,11.6c-11.1,11.3-23.9,20.1-38.3,27.4c-26.5,13.3-55.3,18.4-83.4,26c-5.9,1.6-12,2.5-17.8,4.5
		c16.9,3.6,34.4,5.5,52.4,5.5c138.1,0,250-111.9,250-250C500,211.6,491.4,175.5,476.1,143.1z"/>
	<path d="M178.9,309.2c-4.8,0.2-9.8-0.8-14.5,0.7c-1.5,8.7-2.9,17.2-4.5,26.5c15.6,0,30.7,0,46.5,0c0,13.2,0,25.7,0,38.8
		c8,0,15.4,0.5,23.5-0.4c0-12.7,0-25,0-37.5c6.5,0.3,12.3-0.4,18.5,0.7c0,12.5,0,24.6,0,37c7.8,0.4,14.9,0.5,22.9-0.1
		c0-12.8,0-25.3,0-38.4c9.7-0.1,18.5-1.4,27.2-3.2c28-5.7,42.5-23.3,42.5-51.9c0-20-8.3-32-27-39.1c-1.6-0.6-3.9-0.2-4.7-2.5
		c0.5-0.4,1-1,1.6-1.3c23.4-12.8,21.8-53.7-2.1-66c-7.6-3.9-15.5-6.5-23.8-8.1c-4.5-0.9-9.2-0.7-14.1-2.7c0-12.2,0-24.3,0-36.3
		c-7.9,0-15.3,0-23.3,0c0,12.3,0,24.2,0,36c-6.2,0-11.8,0-18.2,0c0-12.3,0-24.3,0-36.3c-8.1,0-15.3,0-23.2,0c0,12.5,0,24.8,0,37.7
		c-15.8,0-30.9,0-46.2,0c0,8.3,0,16,0,24.3c3.5,0,6.2,0,9,0c3,0,6.1-0.1,9.1,0.2c8.1,1,11.5,4.8,11.5,13c0,32.6,0,65.2,0,97.8
		C189.8,306.6,187.4,308.9,178.9,309.2z M289.3,269.3c8.7,8.9,7.5,23.6-2.6,30.9c-3.8,2.8-8.2,4.6-12.7,5.8
		c-14.2,3.7-28.6,3.8-43.4,3.1c0-16.9,0-33.5,0-50.4c15.2-0.5,30.1-1.2,44.8,2.9C280.6,263,285.4,265.3,289.3,269.3z M230.5,189.1
		c12.6-0.8,24.9-1,37,2.6c7.7,2.3,14.1,6.5,16.2,15c2.6,10.7-1.9,19.4-12.4,23.8c-12.9,5.4-26.5,4.8-40.8,4.6
		C230.5,219.4,230.5,204.5,230.5,189.1z"/>
	<path d="M109.1,281.3c5.2,0.9,10,1.3,15.5-0.6c0-7.6,0-15.2,0-23.4c7.9,0,15.1,0,22.2,0c2.3-4.8,1.5-9.1,0.8-14.3
		c-7.8-1.8-15.3,0.1-22.6-1.3c-1-7.5,0.5-14.8-0.9-22c-4.9-2-9.7-1.2-14.7-0.7c-2.3,7.6,0.2,15.4-1.6,23.1c-4,0-7.8-0.2-11.5,0
		c-3.6,0.2-7.5-1.2-11,1.5c-0.4,4.3-1,8.7,0.7,13.7c7.3,0,14.7,0,22,0C109.1,265.9,107.4,273.6,109.1,281.3z"/>
	<path d="M351.5,243.2c-0.5,4.9-0.9,9.2,0.4,14.3c7.6,0,15,0,22.4,0c1.2,8.3-0.6,16.1,1.2,23.9c5.1,1,9.9,1.2,15.3-0.4
		c0-7.6,0-15.2,0-23c8-1.3,15.5,0.6,23.4-1.3c0-4.7,1.7-9.3-1.6-14.3c-6.9,0-14,0-21.3,0c-1.2-8,0.6-15.5-1.3-23.2
		c-5-0.3-9.8-1.3-14.6,0.5c-1.4,7.4,0,14.7-1,22.3C366.4,243.1,358.9,241.2,351.5,243.2z"/>
</g>
</svg>
