<?xml version="1.0" encoding="iso-8859-1"?>
<!-- Generator: Adobe Illustrator 19.0.0, SVG Export Plug-In . SVG Version: 6.00 Build 0)  -->
<svg version="1.1" id="Layer_1" xmlns="http://www.w3.org/2000/svg" xmlns:xlink="http://www.w3.org/1999/xlink" x="0px" y="0px"
	 viewBox="0 0 2000 2000" style="enable-background:new 0 0 2000 2000;" xml:space="preserve">
<path d="M393.523,237.707c0,472.991,0,943.629,0,1418.683c75.377,106.419,377.541,247.837,525.86,255.522
	c39.532,2.048,77.268,6.545,115.833,5.65c29.68-0.689,59.57-6.059,88.712-12.37c30.669-6.642,61.261-15.011,90.606-26.034
	c33.965-12.759,66.502-28.527,98.716-46.28c56.355-31.058,103.275-72.323,146.684-117.508
	c38.959-40.553,70.001-87.923,93.278-139.936c18.278-40.844,37.661-81.214,45.711-125.62
	c10.951-60.41,23.679-121.108,17.053-182.734c-6.504-60.489-14.823-121.478-38.716-177.937
	c-19.129-45.204-40.43-90.258-67.162-131.202c-17.549-26.878-122.574-122.575-152.582-144.382
	c-83.018-60.329-175.723-96.867-278.147-109.776c-132.837-16.741-257.153,7.654-374.332,71.338c-0.552,0.3-1.517-0.158-3.906-0.481
	c0-234.692,0-469.604,0-704.111c394.644-137.181,953.815,1.063,1193.555,536.438c196.638,439.123,40.785,992.345-435.07,1247.8
	c-462.136,248.09-1032.693,84.142-1296.949-362.188C-101.297,1046.743,40.035,511.599,393.523,237.707z M751.872,1464.103
	c18.682,31.853,45.417,57.044,74.232,80.058c27.828,22.225,58.748,39.438,93.011,47.241c33.184,7.558,67.817,13.526,101.556,12.408
	c28.591-0.948,57.267-11.611,85.049-20.619c20.753-6.728,43.467-13.817,59.406-27.579c28.421-24.541,61.303-45.488,79.599-80.487
	c12.888-24.655,30.32-47.575,39.335-73.491c25.618-73.648,23.323-146.86-12.217-217.817c-18.515-36.964-36.516-75.106-66.52-103.526
	c-60.296-57.113-133.751-82.31-216.97-78.758c-88.888,3.794-162.081,39.928-219.453,107.398
	c-55.899,65.737-74.874,142.142-68.456,227.84C703.878,1382.634,738.479,1441.268,751.872,1464.103z"/>
</svg>
