<?xml version="1.0" encoding="iso-8859-1"?>
<!-- Generator: Adobe Illustrator 19.0.0, SVG Export Plug-In . SVG Version: 6.00 Build 0)  -->
<svg version="1.1" id="Layer_1" xmlns="http://www.w3.org/2000/svg" xmlns:xlink="http://www.w3.org/1999/xlink" x="0px" y="0px"
	 viewBox="0 0 500 500" style="enable-background:new 0 0 500 500;" xml:space="preserve">
<path d="M309.591,456.766c-1.383-21.672-3.406-42.961-8.623-63.809c-5.17-20.656-12.632-40.492-21.717-59.933
	c50.48-5.617,74.022-44.995,76.684-73.149c2.196-23.234-3.176-44.335-18.097-62.39c-14.829-17.945-34.334-27.814-57.775-30.28
	c3.372-8.18,6.628-15.735,9.613-23.395c5.971-15.324,10.767-31.021,13.721-47.21c1.581-8.667,2.71-17.425,3.771-26.175
	c1.064-8.776,1.791-17.592,2.668-26.409c86.051,12.176,161.442,84.687,173.397,177.13c7.241,55.99-5.253,107.387-38.86,152.913
	C410.932,419.358,365.907,446.584,309.591,456.766z M130.364,89.426c-6.311,15.168-15.243,28.577-26.763,40.194
	c-11.351,11.446-24.342,20.753-39.183,27.141c-14.908,6.418-30.512,10.349-46.85,10.832c-0.2,1.618-0.438,2.633-0.436,3.648
	c0.076,39.527,0.174,79.053,0.283,118.58c0,0.163,0.187,0.342,0.318,0.485c0.139,0.152,0.316,0.269,0.477,0.402
	c65.815,1.923,140.966-29.906,190.84-90.544C251.937,148.017,267.859,81.266,264.118,43c-40.902,0-81.826,0-123.697,0
	C139.621,59.103,136.529,74.607,130.364,89.426z M112.875,318.051c-26.064,9.358-53.115,14.624-80.752,17.21
	c14.749,2.504,28.676,7.238,41.677,14.269c13.227,7.152,24.796,16.629,34.746,27.94c9.827,11.173,17.342,23.796,22.992,37.565
	c5.69,13.866,7.827,28.509,9.002,43.656c41.851,0,82.94,0,124.756,0c-0.869-70.969-27.497-130.157-78.161-180.065
	C163.768,295.745,139.156,308.616,112.875,318.051z"/>
</svg>
