<?xml version="1.0" encoding="iso-8859-1"?>
<!-- Generator: Adobe Illustrator 19.0.0, SVG Export Plug-In . SVG Version: 6.00 Build 0)  -->
<svg version="1.1" id="Layer_1" xmlns="http://www.w3.org/2000/svg" xmlns:xlink="http://www.w3.org/1999/xlink" x="0px" y="0px"
	 viewBox="0 0 500 500" enable-background="new 0 0 500 500" xml:space="preserve">
<path id="XMLID_4_" d="M233.547,487.87c-5.469-0.139-10.951-0.302-16.353-1.167c-78.362-12.537-136.956-54.145-175.6-124.527
	c-17.331-31.566-25.209-66.043-28.187-101.741c0.062-6.255,0.123-12.468,0.184-18.723c0.814-7.717,1.333-15.484,2.622-23.121
	c10.249-60.758,38.077-111.37,85.728-151.188C178.407,3.505,296.969-4.182,379.232,51.775
	c81.774,55.624,119.994,133.897,106.734,232.035c-12.782,94.598-67.498,159.147-157.454,192.163
	C311.33,482.279,291,489.333,233.547,487.87z M268.846,129.562c3.783-16.02,7.612-32.238,11.605-49.147
	c-10.433-2.885-19.558-5.408-29.387-8.126c-4.644,17.522-9.088,34.289-13.774,51.968c-21.645-5.178-42.087-10.069-63.164-15.111
	c-1.36,4.772-2.498,8.519-3.493,12.304c-5.089,19.343-5.076,19.346,13.992,24.158c16.036,4.047,20.876,11.515,16.921,27.605
	c-10.815,44.005-21.845,87.958-32.922,131.898c-2.541,10.079-8.036,13.362-18.516,11.287c-6.678-1.322-13.247-3.197-20.276-4.926
	c-5.026,11.769-9.653,22.604-14.731,34.496c13.214,3.447,25.275,6.624,37.352,9.739c26.477,6.828,25.953,6.687,19.429,33.486
	c-7.325,30.091-13.054,24.625,20.821,32.219c0.587,0.132,1.278-0.204,2.457-0.421c0.447-1.251,1.107-2.719,1.502-4.256
	c11.711-45.463,23.372-90.939,35.094-136.399c5.463-21.188,1.624-17.294,22.358-14.175c33.168,4.99,65.923,7.765,99.14-2.944
	c39.757-12.819,47.427-70.457,17.792-92.047c-11.363-8.278-24.08-14.954-36.842-20.954c-7.127-3.351-9.338-6.346-7.02-14.08
	c4.038-13.472,6.969-27.276,10.571-41.774c-10.366-2.595-19.538-4.891-29.799-7.46c-2.64,9.852-5.146,19.013-7.547,28.201
	c-6.183,23.66-6.165,23.666-29.489,16.187C270.635,131.199,270.42,130.888,268.846,129.562z M252.485,436.5
	c4.045-15.988,7.84-30.327,11.24-44.759c1.309-5.555,3.578-7.527,9.668-6.55c11.079,1.777,22.316,3.287,33.512,3.476
	c39.417,0.666,63.015-17.12,72.868-55.113c4.764-18.367,2.764-36.092-9.022-51.891c-3.751-5.029-7.594-7.314-14.293-4.586
	c-6.973,2.839-14.51,4.58-21.96,5.885c-8.971,1.572-18.111,2.178-28.333,3.332c1.917,2.761,3.05,4.614,4.396,6.297
	c15.82,19.787,7.912,44.864-17.064,49.46c-13.293,2.446-27.548,0.822-41.225-0.474c-6.624-0.628-8.765,0.862-10.108,6.889
	c-3.233,14.511-7.079,28.884-10.566,43.34c-2.923,12.118-5.686,24.274-8.752,37.412C233.023,431.718,242.165,433.964,252.485,436.5z
	 M260.479,165.726c16.941,5.789,32.519,10.102,47.234,16.421c15.004,6.443,22.141,19.195,20.396,31.885
	c-1.955,14.219-10.545,24.898-25.095,24.929c-17.879,0.038-35.787-3.476-53.613-5.956c-1.72-0.239-4.555-4.39-4.159-6.095
	C249.779,207.384,254.843,187.979,260.479,165.726z"/>
</svg>
