<?xml version="1.0" encoding="iso-8859-1"?>
<!-- Generator: Adobe Illustrator 19.0.0, SVG Export Plug-In . SVG Version: 6.00 Build 0)  -->
<svg version="1.1" id="Layer_1" xmlns="http://www.w3.org/2000/svg" xmlns:xlink="http://www.w3.org/1999/xlink" x="0px" y="0px"
	 viewBox="0 0 2000 2000" style="enable-background:new 0 0 2000 2000;" xml:space="preserve">
<path d="M1976.704,956.964c23.574,516.39-363.893,960.921-872.506,1014.404c-570.866,60.03-1027.614-367.511-1078.615-867.596
	C-32.782,531.485,393.405,77.957,893.858,24.447C1449.62-34.977,1954.682,389.076,1976.704,956.964z M997.896,1895.224
	c439.709,8.385,896.899-338.728,899.742-895.415c2.555-500.349-388.354-898.675-896.488-899.792
	c-540.61-1.189-897.162,441.843-900.032,891.575C97.956,1487.023,506.127,1900.281,997.896,1895.224z M1004.718,170.565
	c451.475-1.685,826.426,376.666,822.91,830.506c-3.558,459.143-376.505,828.506-833.484,825.673
	c-457.245-2.835-825.142-379.583-823.285-831.283C172.755,533.889,554.845,163.426,1004.718,170.565z M807.456,1037.816
	c-91.242-84.827-166.66-97.779-242.083-43.385c-62.904,45.365-86.279,131.548-54.582,201.246
	c32.941,72.434,114.969,112.877,190.947,94.145c86.068-21.219,128.066-90.881,123.7-209.108
	c54.743-31.408,110.972-63.669,167.499-96.101c61.803,35.967,120.731,70.26,177.56,103.333c-1.116,16.715-2.57,28.059-2.518,39.396
	c0.364,79.695,58.86,150.397,135.417,164.091c76.661,13.712,152.897-27.615,183.686-99.575
	c30.239-70.674,5.038-155.677-59.167-199.567c-66.778-45.649-153.434-38.086-210.655,19.553
	c-9.986,10.06-16.017,24.046-23.587,35.774c-65.48-37.783-120.335-69.435-174.85-100.891c0-20.607,0-38.095,0-54.575
	c110.277-46.973,158.555-111.651,144.049-190.84c-15.489-84.554-80.492-142.794-161.405-144.611
	c-77.195-1.734-145.55,50.9-164.989,127.954c-9.105,36.094-4.626,71.265,10.724,105.16c23.91,52.797,68.241,81.31,120.295,98.452
	c0,20.472,0,38.068,0,57.053C913.27,976.661,859.943,1007.481,807.456,1037.816z M935.053,1127.885
	c-12.021,160.567,116.911,370.887,347.187,399.996c231.303,29.239,420.259-131.958,451.935-335.366
	c32.649-209.653-105.718-418.186-295.323-451.31c-7.937,42.225-15.882,84.496-23.743,126.325
	c150.325,74.28,211.276,182.168,182.238,320.578c-24.002,114.406-130.927,202.166-249.145,206.555
	c-64.686,2.402-122.945-13.767-174.596-52.583c-71.034-53.383-102.001-128.298-109.709-214.194
	C1019.686,1127.885,979.061,1127.885,935.053,1127.885z M973.87,1380.996c-22.242-47.055-42.92-90.8-65.526-138.626
	c-39.756,67.877-90.094,119.655-164.631,140.845c-73.785,20.976-145.635,16.1-213.634-22.098
	C416.576,1297.358,364.686,1156,410.385,1034.831c23.447-62.167,64.373-109.926,122.11-142.237
	c79.288-44.371,161.831-42.684,247.661-9.261c-13.252-27.889-26.449-50.638-34.973-75.02c-8.498-24.308-12.312-50.254-18.042-74.893
	c-129.475-38.096-345.285,32.207-433.15,229.142c-84.783,190.028-11.767,408.527,162.937,512.172
	C644.598,1586.073,869.965,1522.166,973.87,1380.996z M1219.945,875.958c53.493-7.473,105.956-14.803,158.946-22.206
	c54.159-135.06,18.644-318.274-112.858-435.791c-117.041-104.595-295.106-129.218-439.619-62.033
	c-134.244,62.411-232.67,216.992-224.696,335.374c41.793,0,83.7,0,127.963,0c25.857-127.853,97.479-213.007,229.395-234.652
	c108.486-17.801,198.112,22.07,259.678,111.088C1287.923,667.747,1283.497,772.919,1219.945,875.958z"/>
</svg>
