<?xml version="1.0" encoding="iso-8859-1"?>
<!-- Generator: Adobe Illustrator 19.0.0, SVG Export Plug-In . SVG Version: 6.00 Build 0)  -->
<svg version="1.1" id="Layer_1" xmlns="http://www.w3.org/2000/svg" xmlns:xlink="http://www.w3.org/1999/xlink" x="0px" y="0px"
	 viewBox="0 0 2000 2000" style="enable-background:new 0 0 2000 2000;" xml:space="preserve">
<path d="M148.332,1497.402c0-333.881,0-662.109,0-991.87c283.093-163.173,565.373-325.877,852.682-491.48
	c282.621,162.811,566.406,326.293,852.995,491.39c0,328.292,0,656.024,0,991.642c-280.127,161.569-563.921,325.252-852.561,491.731
	C718.836,1826.024,434.923,1662.484,148.332,1497.402z M1000.975,510.374C855.794,594.253,716.64,674.65,579.728,753.751
	c0,168.177,0,330.969,0,495.705c142.117,81.801,282.96,162.869,422.356,243.104c145.936-84.312,286.821-165.705,425.045-245.562
	c0-166.654,0-327.419,0-490.797C1285.447,674.472,1144.436,593.13,1000.975,510.374z M767.509,1143.006
	c74.98,44.676,150.955,89.945,229.63,136.822c81.55-45.51,162.095-90.459,241.685-134.875c0-94.302,0-182.911,0-273.565
	c-78.325-46.324-156.186-92.373-233.783-138.266c-79.681,44.032-155.427,85.889-237.532,131.26
	C767.509,958.196,767.509,1048.735,767.509,1143.006z"/>
</svg>
