<?xml version="1.0" encoding="iso-8859-1"?>
<!-- Generator: Adobe Illustrator 19.0.0, SVG Export Plug-In . SVG Version: 6.00 Build 0)  -->
<svg version="1.1" id="Layer_1" xmlns="http://www.w3.org/2000/svg" xmlns:xlink="http://www.w3.org/1999/xlink" x="0px" y="0px"
	 viewBox="0 0 500 500" style="enable-background:new 0 0 500 500;" xml:space="preserve">
<g id="XMLID_4_">
	<g id="XMLID_73_">
		<path id="XMLID_91_" d="M284.667,13.118c17.2,1.619,34.033,6.768,50.317,12.305c24.206,8.23,46.097,21.191,66.195,37.246
			c40.33,32.217,67.881,73.121,82.078,122.477c9.512,33.067,11.615,66.969,6.469,101.354c-4.926,32.916-15.491,63.718-33.335,91.57
			c-41.77,65.196-101.274,103.448-178.32,112.853c-39.682,4.844-78.523-0.534-115.73-15.443
			c-39.534-15.842-72.787-40.434-99.298-73.823c-27.786-34.995-45.141-74.486-50.292-119.105
			c-0.305-2.643-4.535-28.652,0.322-65.205c2.309-17.382,6.751-34.681,12.953-50.943c21.27-55.772,58.326-98.418,110.953-127.015
			c20.593-11.19,42.252-19.727,65.547-23.653C211.509,14.222,236.648,8.598,284.667,13.118z M251.078,65.627
			C144.387,67.332,62.983,152.061,65.923,256.778c2.841,101.201,84.889,183.054,191.423,179.957
			c101.244-2.943,182.286-86.092,179.349-190.84C433.807,142.924,349.736,66.235,251.078,65.627z"/>
		<path id="XMLID_83_" d="M250.804,87.301c89.473-1.618,162.71,72.663,164.915,159.366c2.389,93.949-73.646,166.4-158.299,169.022
			c-95.852,2.968-167.891-74.172-170.379-158.948C84.252,161.67,162.281,85.938,250.804,87.301z M398.796,251.6
			c0.265-81.128-66.242-148.503-149.091-147.669c-79.677,0.803-146.073,66.198-145.789,148.252
			c0.275,79.407,65.933,149.394,152.916,146.562C333.496,396.248,398.565,332.992,398.796,251.6z"/>
		<path id="XMLID_76_" d="M320.414,243.945c19.142,15.598,27.866,34.656,20.361,58.473c-8.691,27.578-29.886,37.502-57.669,37.259
			c0,7.694,0,14.955,0,22.831c-8.187,0-15.812,0-24.353,0c0-7.477,0-14.913,0-22.721c-5.579,0-10.262,0-15.529,0
			c0,7.505,0,14.761,0,22.675c-8.375,0-16.185,0-24.582,0c0-7.448,0-14.713,0-22.939c-18.685,0-36.831,0-56.345,0
			c5.037-10.255,9.314-19.249,13.95-28.055c0.611-1.162,3.019-1.803,4.649-1.918c3.871-0.274,7.775-0.088,12.22-0.088
			c0-39.83,0-79.353,0-119.223c-1.64-0.234-3.28-0.91-4.705-0.6c-9.071,1.976-13.867-2.132-16.847-10.412
			c-2.147-5.965-5.527-11.486-8.847-18.193c18.735,0,36.654,0,55.415,0c0-8.647,0-16.537,0-24.924c8.51,0,16.177,0,24.689,0
			c0,7.837,0,15.73,0,24.058c5.493,0,10.16,0,15.541,0c0-7.92,0-15.621,0-23.952c8.316,0,15.951,0,24.367,0
			c0,7.805,0,15.718,0,23.483C328.296,167.388,343.098,212.786,320.414,243.945z M223.061,308.905
			c2.125,0.264,3.887,0.672,5.649,0.672c20.607,0.005,41.214,0.028,61.821-0.12c14.122-0.101,23.412-9.108,23.283-22.251
			c-0.123-12.521-10.358-22.129-23.73-22.16c-20.151-0.046-40.302-0.035-60.454-0.004c-2.178,0.003-4.356,0.299-6.569,0.462
			C223.061,280.37,223.061,294.471,223.061,308.905z M222.699,234.766c19.995,0,39.21,0.759,58.327-0.272
			c12.338-0.666,20.234-10.556,20.272-21.904c0.039-12.017-6.765-21.173-19.592-22.108c-18.442-1.344-37.034-0.723-55.56-0.591
			c-1.16,0.008-3.26,3.025-3.295,4.677C222.577,207.594,222.699,220.629,222.699,234.766z"/>
	</g>
</g>
</svg>
