<?xml version="1.0" encoding="iso-8859-1"?>
<!-- Generator: Adobe Illustrator 19.0.0, SVG Export Plug-In . SVG Version: 6.00 Build 0)  -->
<svg version="1.1" id="Layer_1" xmlns="http://www.w3.org/2000/svg" xmlns:xlink="http://www.w3.org/1999/xlink" x="0px" y="0px"
	 viewBox="0 0 500 500" style="enable-background:new 0 0 500 500;" xml:space="preserve">
<path id="XMLID_4_" d="M303.889,489.331c-1.73-2.211-3.251-4.629-5.22-6.601c-47.569-47.665-95.176-95.293-142.831-142.873
	c-2.042-2.039-4.601-3.56-6.329-4.873c16.162-16.082,31.248-31.094,46.893-46.661c0.96,0.903,3.037,2.755,5.002,4.72
	c39.222,39.206,78.494,78.364,117.549,117.736c4.007,4.04,7.411,5.351,13.05,3.727c19.265-5.548,38.664-10.649,58.097-15.587
	c4.906-1.247,8.026-3.28,8.68-8.549c3.859-31.099,19.11-55.39,43.334-74.973c10.186-8.235,18.681-18.561,28.175-28.169
	c6.658,5.826,12.85,11.244,19.042,16.662c0,1.057,0,2.113,0,3.17c-0.627,1.388-1.461,2.721-1.851,4.173
	c-11.769,43.828-23.589,87.643-35.105,131.537c-1.451,5.531-4.02,8.196-9.585,9.619c-26.327,6.735-52.569,13.812-78.79,20.953
	c-19.021,5.18-37.963,10.649-56.94,15.989C306.002,489.331,304.946,489.331,303.889,489.331z M489.331,196.111
	c-5.286-18.714-10.714-37.389-15.823-56.151c-7.209-26.475-14.331-52.976-21.131-79.558c-1.418-5.544-4.041-8.162-9.59-9.618
	c-43.896-11.514-87.711-23.337-131.54-35.106c-1.456-0.391-2.795-1.217-4.188-1.84c-1.057,0-2.113,0-3.17,0
	c-5.41,6.192-10.821,12.385-16.512,18.899c9.446,9.431,19.454,17.853,27.557,27.824c19.766,24.324,44.068,40.101,75.554,43.835
	c5.322,0.631,7.24,3.885,8.483,8.745c4.967,19.426,10.152,38.799,15.607,58.093c1.45,5.128,0.726,8.512-3.224,12.428
	c-39.573,39.229-78.885,78.719-118.391,118.017c-1.969,1.959-5.034,2.816-6.236,3.46c17.165,17.265,32.172,32.358,48.263,48.543
	c1.316-1.74,2.828-4.309,4.867-6.351c47.58-47.655,95.209-95.262,142.875-142.832c1.972-1.968,4.389-3.489,6.599-5.219
	C489.331,198.224,489.331,197.168,489.331,196.111z M196.111,13.839c-18.974,5.343-37.912,10.814-56.929,15.997
	c-26.471,7.215-52.966,14.347-79.534,21.19c-5.022,1.293-7.249,3.69-8.558,8.659c-11.629,44.13-23.53,88.188-35.393,132.256
	c-0.391,1.451-1.228,2.783-1.857,4.17c0,1.057,0,2.113,0,3.17c6.192,5.419,12.384,10.838,19.062,16.682
	c9.301-9.428,17.623-19.546,27.591-27.636c24.352-19.765,40.075-44.088,43.862-75.552c0.637-5.291,3.804-7.285,8.697-8.528
	c19.433-4.938,38.834-10.036,58.102-15.579c5.632-1.62,9.042-0.329,13.054,3.715c39.056,39.374,78.329,78.532,117.552,117.74
	c1.967,1.966,4.044,3.821,5.026,4.745c15.667-15.544,30.78-30.539,46.761-46.395c-1.752-1.449-4.153-3.129-6.195-5.168
	c-47.65-47.588-95.27-95.205-142.849-142.864c-1.969-1.972-3.491-4.39-5.221-6.601C198.224,13.839,197.168,13.839,196.111,13.839z
	 M13.839,307.059c5.832,20.746,11.781,41.461,17.466,62.247c6.679,24.424,13.293,48.869,19.55,73.403
	c1.416,5.552,4.024,8.159,9.584,9.619c43.88,11.527,87.676,23.371,131.487,35.158c1.455,0.392,2.793,1.22,4.186,1.844
	c1.057,0,2.113,0,3.17,0c5.411-6.193,10.821-12.386,16.803-19.233c-9.527-9.316-19.708-17.581-27.817-27.534
	c-19.803-24.307-44.085-40.1-75.575-43.842c-5.315-0.632-7.247-3.868-8.487-8.738c-4.949-19.433-10.12-38.814-15.564-58.114
	c-1.452-5.147-0.681-8.533,3.257-12.438c39.575-39.241,78.908-78.725,118.369-118.08c1.852-1.847,4.272-3.126,5.701-4.149
	c-16.386-16.309-31.621-31.472-47.72-47.496c-0.907,1.201-2.141,3.302-3.808,4.971c-47.964,48.035-95.964,96.035-144.004,143.995
	c-1.971,1.967-4.388,3.487-6.597,5.215C13.839,304.946,13.839,306.002,13.839,307.059z"/>
</svg>
