<?xml version="1.0" encoding="iso-8859-1"?>
<!-- Generator: Adobe Illustrator 19.0.0, SVG Export Plug-In . SVG Version: 6.00 Build 0)  -->
<svg version="1.1" id="Layer_1" xmlns="http://www.w3.org/2000/svg" xmlns:xlink="http://www.w3.org/1999/xlink" x="0px" y="0px"
	 viewBox="0 0 2000 2000" style="enable-background:new 0 0 2000 2000;" xml:space="preserve">
<path d="M1115.388,886.451c17.776,0,30.347-0.001,42.919,0c91.136,0.005,182.276-0.516,273.408,0.11
	c316.037,2.171,557.533,250.373,551.071,565.93c-5.36,261.748-212.206,491.68-472.258,524.261
	c-28.877,3.618-58.16,5.52-87.261,5.584c-210.314,0.463-420.629,0.249-630.943,0.249c-12.703,0-25.405,0-40.832,0
	c0-121.932,0-241.462,0-366.086c13.925,0,27.458,0,40.991,0c209.146-0.002,418.293-0.103,627.439,0.044
	c79.192,0.056,141.469-30.465,177.206-102.905c59.753-121.122-26.809-259.542-162.893-260.218
	c-212.646-1.055-425.301-0.295-637.953-0.303c-13.877,0-27.754,0-47.526,0c0-15.942,0-29.376,0-42.811
	c-0.004-213.82,0.343-427.641-0.181-641.459c-0.215-87.693-57.977-159.993-140.008-178.104
	c-114.785-25.343-218.423,55.947-222.748,175.92c-1.725,47.844-0.463,95.798-0.47,143.703
	c-0.025,167.083-0.009,334.167-0.009,501.25c0,12.498,0,24.996,0,39.475c-122.815,0-241.528,0-364.493,0
	c-0.525-10.964-1.519-22.094-1.524-33.225c-0.091-218.493-0.539-436.988,0.052-655.48C20.11,290.63,225.282,59.296,495.733,24.156
	c281.68-36.599,541.794,142.822,605.34,419.745c9.821,42.796,12.68,87.788,13.699,131.881c2.05,88.752,0.614,177.585,0.616,266.384
	C1115.388,854.866,1115.388,867.565,1115.388,886.451z M382.977,1980.296c0-121.817,0-241.33,0-361.446
	c-121.853,0-241.33,0-362.253,0c0,121.015,0,239.686,0,361.446C143.368,1980.296,262.9,1980.296,382.977,1980.296z"/>
</svg>
