<?xml version="1.0" encoding="iso-8859-1"?>
<!-- Generator: Adobe Illustrator 19.0.0, SVG Export Plug-In . SVG Version: 6.00 Build 0)  -->
<svg version="1.1" id="Layer_1" xmlns="http://www.w3.org/2000/svg" xmlns:xlink="http://www.w3.org/1999/xlink" x="0px" y="0px"
	 viewBox="0 0 500 500" style="enable-background:new 0 0 500 500;" xml:space="preserve">
<path d="M138.366,45.347c-1.474,20.936-5.292,38.303-3.316,54.985c3.764,31.771,25.669,49.294,54.591,59.192
	c33.132,11.338,66.485,22.085,99.293,34.296c26.688,9.934,52.418,21.648,72.794,43.096c79.251,83.423,42.657,218.766-67.666,250.461
	c-85.629,24.601-173.41-30.727-190.273-118.014c-0.738-3.823-0.537-7.854-0.538-11.788c-0.027-80.008-0.413-160.019,0.192-240.022
	C103.655,89.514,116.861,66.788,138.366,45.347z M339.749,128.693c4.83-79.485-62.566-138.518-139.844-120.405
	c-24.998,5.859-51.843,13.729-55.383,47.678c-4.391,42.101,1.96,75.202,49.691,92.38c39.743,14.303,79.99,27.207,120.171,40.783
	C328.708,173.431,338.43,150.403,339.749,128.693z"/>
</svg>
