<?xml version="1.0" encoding="iso-8859-1"?>
<!-- Generator: Adobe Illustrator 19.0.0, SVG Export Plug-In . SVG Version: 6.00 Build 0)  -->
<svg version="1.1" id="Layer_1" xmlns="http://www.w3.org/2000/svg" xmlns:xlink="http://www.w3.org/1999/xlink" x="0px" y="0px"
	 viewBox="0 0 2000 2000" style="enable-background:new 0 0 2000 2000;" xml:space="preserve">
<path d="M914.205,1718.336c-5.234-9.565-10.289-18.804-14.856-27.151c2.19-26.574,18.887-35.379,40.33-44.47
	c109.563-46.451,196.991-119.323,257.983-222.693c83.407-141.357,82.563-282.081-3.191-421.724
	c-38.122-62.079-92.66-105.169-163.027-124.662c-96.862-26.831-187.003-8.49-270.049,47.152
	c-57.198,38.324-99.402,89.054-128.942,151.321c-27.32,57.587-72.423,88.242-138.219,86.171
	c-71.779-2.259-133.482-81.84-113.489-151.078c27.767-96.161,80.827-177.769,155.648-243.478
	C663.51,656.089,812.999,611.909,981.056,627.071c116.45,10.507,222.699,47.372,316.238,118.367
	c107.274,81.421,171.695,190.45,208.301,318.681c23.528,82.421,24.509,166.718,16.293,249.467
	c-12.964,130.569-58.313,251.035-149.039,349.574c-23.5,25.524-52.394,46.633-80.989,66.66c-12.41,8.692-30.331,9.514-46.731,14.19
	c-10.394-14.123-18.247-24.794-28.417-38.613c10.455-14.001,17.53-30.736,30.15-39.241
	c114.039-76.853,167.42-191.371,191.921-319.789c11.479-60.168,13.769-122.332,4.605-186.154
	c-19.177-133.549-70.982-247.193-171.352-337.21c-84.756-76.013-186.513-111.628-299-120.423
	c-81.654-6.384-161.464,0.019-238.474,29.47c-131.358,50.234-221.07,143.004-273.941,271.972
	c-5.945,14.503-6.612,33.459-3.313,48.986c6.92,32.567,44.899,48.197,71.805,28.631c16.335-11.878,30.066-29.927,39.714-48.006
	c80.666-151.155,207.035-239.22,376.548-243.955c135.577-3.787,246.563,60.553,319.683,179.083
	c36.962,59.916,56.925,125.211,67.201,195.95c19.883,136.865-29.883,249.881-106.771,355.83
	c-61.264,84.421-140.644,146.903-235.821,189.508C966.964,1720.212,944.179,1727.853,914.205,1718.336z M620.199,1298.375
	c45.064-5.813,84.634-23.889,118.344-54.827c33.302-30.564,55.469-68.462,74.839-108.632
	c25.587-53.065,83.345-89.544,131.989-79.719c103.134,20.83,152.111,96.193,121.967,191.168
	c-48.465,152.702-156.903,247.142-313.576,281.307c-42.429,9.252-87.681,6.786-131.661,7.201
	c-23.847,0.225-47.744-4.811-68.47-7.123c-29.183,36.728-29.027,40.085-0.18,72.667c66.184,10.424,131.897,15.667,199.788,4.158
	c173.064-29.338,292.044-126.036,368.214-280.995c24.815-50.484,33.141-101.93,26.778-158.558
	c-9.181-81.708-78.57-166.2-183.738-181.778c-79.243-11.738-172.832,23.853-212.807,108.154
	c-11.023,23.246-23.688,46.205-38.883,66.881c-35.662,48.524-80.831,78.256-143.145,62.029
	c-28.569,21.455-28.569,21.455-25.019,58.957C568.22,1299.991,593.879,1301.771,620.199,1298.375z M502.226,664.61
	c164.246-122.291,347.513-167.864,548.108-126.951c268.326,54.726,446.828,215.095,537.112,473.588
	c3.984,11.405,5.29,24.078,10.921,34.498c8.609,15.931,23.165,24.467,41.971,20.295c20.794-4.613,30.887-18.742,29.799-39.773
	c-0.457-8.847-3.158-17.693-5.657-26.302c-95.507-329.085-401.197-545.555-742.77-552.655
	c-107.606-2.237-212.736,20.94-310.558,66.351c-56.266,26.12-113.717,52.744-158.656,98.536
	c-31.614,32.215-28.978,47.93,16.66,71.922C479.163,678.284,491.532,672.572,502.226,664.61z M920.768,280.625
	c-12.202,0.216-24.609-0.468-36.554,1.502c-29.184,4.813-43.82,21.956-40.479,45.387c3.159,22.156,17.279,32.376,48.311,29.407
	c75.213-7.196,149.263,0.933,222.611,15.795c151.238,30.645,283.138,99.109,393.175,207.729
	c30.321,29.931,57.688,62.86,86.305,94.508c18.818,20.811,37.458,24.541,55.632,10.837c16.608-12.523,19.32-35.713,6.25-56.935
	c-3.171-5.148-7.323-9.773-11.467-14.227c-30.077-32.324-58.33-66.651-90.748-96.441
	c-168.419-154.766-368.325-231.875-596.391-237.61C945.197,280.577,932.979,280.409,920.768,280.625z M1849.775,12.094
	c-113.521,16.653-225.864,14.763-333.238,28.038c0,40.049,0,72.998,0,112.555c80.047-5.922,156.049-11.545,233.131-17.248
	c6.075,78.924,11.835,153.768,17.395,225.994c41.473,0,75.95,0,113.481,0C1867.047,243.816,1871.681,128.628,1849.775,12.094z
	 M324.692,1969.369c56.184-5.358,113.251-5.328,170.877-16.198c-4.916-40.287-9.082-74.418-12.964-106.235
	c-40.177,1.24-78.082,4.948-115.667,2.868c-38.783-2.146-76.874,22.113-115.642,3.953c-5.02-75.29-9.922-148.803-14.923-223.804
	c-39.14,3.744-74.436-8.635-111.866,12.794c4.166,53.97,8.693,108.396,12.482,162.874c3.888,55.891,7.055,111.832,10.935,174.126
	C210.013,1976.277,267.543,1974.82,324.692,1969.369z M365.07,120.662c-118.046,8.007-231.027,15.67-349.516,23.707
	c18.669,117.01,10.329,232.511,32.311,346.136c37.402-4.098,71.415-7.826,107.644-11.796c-5.35-77.125-10.546-152.05-15.976-230.323
	c76.329-5.456,150.239-10.739,225.537-16.12C365.07,194.304,365.07,160.281,365.07,120.662z M1900.957,1511.161
	c-17.224,1.512-37.043-8.104-51.678,9.914c4.572,75.121,9.136,150.128,13.724,225.522c-79.041,5.606-152.864,10.841-228.309,16.192
	c1.701,41.009-10.074,79.147,10.564,112.833c113.478-8.173,223.759-16.115,339.131-24.424
	c-8.196-115.843-15.985-225.941-24.083-340.392C1937.425,1510.806,1919.067,1509.572,1900.957,1511.161z M667.762,1442.627
	c139.078-25.201,239.928-105.205,305.843-230.162c11.802-22.373,13.584-42.444-2.721-67.334c-12.981-0.72-27.619-1.531-43.559-2.415
	c-7.284,12.086-14.047,21.993-19.5,32.576c-27.026,52.442-63.116,97.229-111.557,131.264c-76.67,53.868-159.757,80.64-253.84,56.943
	c-22.057-5.556-43.726-12.66-65.558-19.105c-18.096-5.343-32.842-0.914-44.722,15.669c0,11.096,0,23.056,0,39.896
	C507.465,1444.203,586.752,1457.305,667.762,1442.627z"/>
</svg>
