<?xml version="1.0" encoding="iso-8859-1"?>
<!-- Generator: Adobe Illustrator 19.0.0, SVG Export Plug-In . SVG Version: 6.00 Build 0)  -->
<svg version="1.1" id="Layer_1" xmlns="http://www.w3.org/2000/svg" xmlns:xlink="http://www.w3.org/1999/xlink" x="0px" y="0px"
	 viewBox="0 0 500 500" style="enable-background:new 0 0 500 500;" xml:space="preserve">
<path id="XMLID_4_" d="M243.387,130.235c0,50.798,0,100.565,0,150.516c-3.716,6.255-10.905,6.424-16.73,8.902
	c-1.344,0.572-3.866-0.493-5.31-1.542c-2.375-1.725-4.334-4.03-6.432-6.127c-32.866-32.863-65.562-65.9-98.722-98.464
	c-6.928-6.803-9.597-13.804-9.504-23.448c0.441-45.486,0.186-90.979,0.207-136.469c0.002-3.509,0.226-7.017,0.385-11.617
	c3.444,1.881,5.941,2.775,7.849,4.373c6.033,5.055,11.837,10.381,17.744,15.587c10.574,9.32,21.179,18.604,31.73,27.949
	c6.876,6.09,13.703,12.236,20.512,18.399c15.576,14.099,31.102,28.253,46.711,42.316
	C235.459,123.88,239.337,126.876,243.387,130.235z M203.352,302.381c-20.468-20.497-40.941-40.989-61.42-61.475
	c-8.843-8.846-17.677-17.702-26.567-26.501c-2.008-1.987-3.792-4.821-7.399-3.127c-1.405,8.096-1.531,104.972-0.138,114.236
	c0.716,0.535,1.497,1.632,2.282,1.634c28.937,0.087,57.874,0.074,87.549,0.074c4.957-6.141,8.006-13.33,8.515-21.651
	C204.66,303.853,204.046,303.077,203.352,302.381z M355.814,250.225c-16.372,16.191-32.676,32.452-48.837,48.853
	c-2.642,2.681-4.468,6.167-6.541,9.096c3.229,6.978,6.053,13.079,8.983,19.411c3.826,0,7.09,0,10.353,0
	c21.711-0.001,43.422-0.001,65.134-0.003c2.632,0,5.267,0.078,7.894-0.03c5.844-0.241,7.44-1.359,7.01-6.863
	c-0.502-6.42-1.613-12.868-3.201-19.115c-4.691-18.452-12.651-35.421-24.234-50.605c-1.904-2.496-4.002-4.844-6.811-8.223
	C361.385,245.917,358.299,247.768,355.814,250.225z M143.47,432.562c2.867-2.292,6.124-4.468,8.871-7.165
	c11.298-11.094,22.444-22.343,33.64-33.54c5.598-5.599,11.12-11.275,16.806-16.783c2.286-2.215,4.203-4.778,3.131-7.796
	c-2.233-6.281-2.84-13.514-8.648-17.65c-29.446,0-58.409,0-87.988,0C107.487,376.518,125.306,419.603,143.47,432.562z
	 M267.288,193.677c-0.505,0.671-1.6,1.447-1.603,2.226c-0.088,28.273-0.074,56.546-0.074,85.841
	c6.331,4.501,13.212,8.924,22.662,8.092c18.334-18.428,36.705-36.813,54.942-55.329c2.204-2.238,3.689-5.184,5.345-7.568
	C337.018,210.692,286.169,188.662,267.288,193.677z M174.913,462.156c13.261,8.277,27.461,14.691,42.673,18.517
	c5.947,1.496,12.054,2.679,18.154,3.151c6.457,0.5,7.535-0.89,7.819-7.059c0.061-1.314,0.012-2.632,0.012-3.949
	c0.003-23.365,0.005-46.73,0.007-70.095c0-2.926,0-5.851,0-9.208c-6.579-2.872-12.77-5.574-19.274-8.412
	c-2.736,2.163-5.446,3.985-7.771,6.208c-5.232,5.001-10.187,10.29-15.41,15.301c-11.837,11.358-23.772,22.612-35.654,33.922
	c-2.638,2.511-4.796,5.318-5.341,9.443C163.401,455.918,169.521,458.79,174.913,462.156z M265.543,394.472
	c-0.115,27.683-0.268,55.365-0.254,83.048c0.003,5.069,1.542,6.281,6.596,6.398c1.643,0.038,3.322,0.04,4.932-0.243
	c19.07-3.346,36.996-9.874,53.735-19.602c6.559-3.811,12.576-8.313,17.77-14.994c-2.128-2.715-4.039-5.712-6.483-8.179
	c-16.473-16.624-33.002-33.193-49.667-49.624c-2.683-2.645-6.133-4.512-8.566-6.262c-6.552,2.757-11.925,5.018-16.906,7.114
	C265.817,393.89,265.544,394.18,265.543,394.472z M360.121,427.129c1.879,1.878,3.67,3.894,7.732,2.977
	c1.753-2.109,4.121-4.784,6.3-7.605c11.553-14.951,17.921-32.332,22.995-50.221c1.581-5.575,2.215-11.486,2.661-17.292
	c0.293-3.819-1.474-5.255-5.226-5.68c-1.303-0.148-2.633-0.088-3.95-0.088c-25.04-0.001-50.079-0.015-75.119,0.039
	c-2.232,0.005-4.464,0.466-7.296,0.783c-2.138,6.5-6.722,12.074-4.935,20.283C322.377,389.405,341.253,408.264,360.121,427.129z"/>
</svg>
