<?xml version="1.0" encoding="utf-8"?>
<!-- Generator: Adobe Illustrator 25.1.0, SVG Export Plug-In . SVG Version: 6.00 Build 0)  -->
<svg version="1.1" id="btu" xmlns="http://www.w3.org/2000/svg" xmlns:xlink="http://www.w3.org/1999/xlink" x="0px" y="0px"
	 viewBox="0 0 500 500" style="enable-background:new 0 0 500 500;" xml:space="preserve">
<g>
	<path id="Shape" d="M192.5,23.6c37.3-8.9,76.6-8.7,113.9-0.3c0.2,0.3,0.7,1,0.9,1.3c8.9,12.1,17.5,24.4,25.1,37.3
		c6.8,11.2,12.8,22.9,18.6,34.8c15.4-0.9,30.8-1.6,46.2-0.7c11.8,0.3,23.5,1.7,35.3,2.8l1.4,0.1c14.4,16,26.7,33.8,36.5,52.9
		c-4.1,12.4-8.6,24.6-13.8,36.6c-8.6-22.9-21-44.2-36.3-63.3c-19.3-2.2-38.7-2.4-58-1.6c8.7,23.1,15.3,47,19.8,71.3
		c2.3,14,4.2,28.1,5.1,42.4c-1.7,7.2,5.8,10.3,7.9,16.3c5.2,10.9,1.8,24.7-7.4,32.4c-0.1,1.4-0.3,4.3-0.5,5.7
		c-0.4,6.2-0.9,12.4-1.7,18.6c-0.9,8.5-2.3,16.9-3.6,25.3c-4.5,24.7-11.3,48.8-20.2,72.3c19,0.9,38,0.4,56.9-1.3
		c16.8-20.2,30.3-43.3,39-68.2c4.6-12.6,7.6-25.6,10-38.8c6.5,12.4,12.7,25,18.2,37.8l0.6,1.4c-11.4,35.7-30.5,69.3-56.7,96.1
		c-26.4,0.2-52.8,1.8-79.2-0.5c-6.3,11.8-12.3,23.9-19.3,35.3c-12.2,4.7-24.8,8.5-37.6,11.2l-2.9,0.6c11.4-16,21.7-32.8,30.7-50.4
		c-24.1-3.8-47.8-9.6-70.8-17.7c-13.2-4.7-26.3-10-38.9-16c-2.7-1.3-5.3-2.5-8-3.8c-7.6,3.4-16.7,3.7-24.2-0.3
		c-8.4-4.2-14.1-12.8-14.8-22.1c-1-0.7-3-2.2-4-3c-12.4-8-24-17.2-35.4-26.6c-18.7-16.1-36.1-33.8-51.7-52.9
		c-11.3,17.1-21,35.2-29.6,53.8c8.7,24.1,22.4,46.1,38.8,65.7c20.3,1.7,40.7,2.2,61.1,0.8c0.2,0.4,0.5,1.3,0.7,1.7
		c3.4,8.4,7,16.7,10.9,24.9c-13.7,1-27.3,1.9-41,1.6c-14-0.2-27.9-1.2-41.9-2.5c-0.8-0.1-2.4-0.3-3.1-0.4
		c-32.1-34.4-54.4-77.9-62.8-124.3c-6.1-32.8-5.6-66.8,1.7-99.4c8.9-40.4,28.4-78.4,55.7-109.4C97.3,62.8,142.9,35.2,192.5,23.6
		L192.5,23.6z M214.5,47.1c-13.5,2.3-27,5.5-39.8,10.4c-23,8.2-44.4,20.7-63.6,35.8c-10.8,9.1-21.2,18.8-30.1,29.8
		c-16.1,19.2-29.2,41.1-37.6,64.7c8.4,18.9,18.4,37.2,29.8,54.5c15.3-18.8,32.5-36.1,50.6-52.1c11.5-9,22.7-18.6,35.2-26.2v-0.3
		c1.9-1.3,3.8-2.6,5.7-3.9c0-5.6,1.4-11.3,4.7-16c7.7-12.2,25.4-15.9,37.4-7.9c2-0.9,4.1-1.9,6.1-2.8c12.4-6.1,25.4-10.8,38.3-15.9
		c23.1-7.6,46.9-13.5,70.9-17.5c-9.2-18-19.6-35.4-31.5-51.7C265.6,43.4,239.7,43.2,214.5,47.1L214.5,47.1z M293.4,133.5
		c-13.7,3.3-27.2,7.5-40.4,12.4l0.5,0.2c-11.7,3.2-22.7,9.1-33.9,13.9c-0.9,7.7-4.1,15.3-10.4,20.1c-8.2,6.9-20.5,7.9-29.9,3
		c-11.2,7.5-22.4,15.3-32.5,24.2c-11.7,9.2-22.4,19.5-32.7,30.2c-8.6,8.9-16.5,18.3-24.1,28c8.4,10.6,17.1,20.9,26.7,30.5l-0.1,0.2
		c10.2,10.1,20.6,20.1,31.9,29c9,7.5,18.5,14.3,28.1,20.9c8.5-5.6,20.1-6,28.9-0.8c8.9,5,14,15.3,13.7,25.4
		c10.9,5.2,21.9,10.1,33.3,14.2c13.4,5.1,27.1,9.3,41,12.7c13.1,3.2,26.4,5.6,39.7,7.5c5.2-12.9,9.9-26,13.6-39.4l0.2-0.1
		c3.7-14,7-28.2,9.3-42.6c1.8-10.9,2.9-21.9,3.8-33c-7.1-3.1-13-9-15.5-16.3c-5.1-13.3,2.3-29.2,15.4-34.4
		c-0.9-11.2-2-22.4-3.9-33.5c-2.1-14.4-5.5-28.5-9.3-42.5c-3.7-12.7-8-25.2-12.9-37.5C320.3,127.8,306.8,130.1,293.4,133.5
		L293.4,133.5z M32.6,227.6c-4,25-4.1,50.7,0.1,75.7c7-13,15-25.5,23.2-37.8C47.7,253.2,39.9,240.6,32.6,227.6z"/>
</g>
</svg>
