<?xml version="1.0" encoding="iso-8859-1"?>
<!-- Generator: Adobe Illustrator 19.0.0, SVG Export Plug-In . SVG Version: 6.00 Build 0)  -->
<svg version="1.1" id="Layer_1" xmlns="http://www.w3.org/2000/svg" xmlns:xlink="http://www.w3.org/1999/xlink" x="0px" y="0px"
	 viewBox="0 0 500 500" style="enable-background:new 0 0 500 500;" xml:space="preserve">
<path d="M5.843,249.197C6.774,110.532,118.052,4.402,250.82,5.003c137.576,0.622,244.638,111.3,243.639,245.431
	c-1.033,138.81-112.398,243.03-243.63,243.025C111.286,493.453,6.159,381.202,5.843,249.197z M472.741,250.013
	C473.35,133.795,381.701,28.608,252.403,27.39C133.229,26.267,29.134,119.154,28.906,249.231
	c-0.22,125.572,99.305,221.383,220.89,222.036C372.166,471.923,471.913,374.207,472.741,250.013z M55.64,248.898
	c1.645-115.439,93.978-194.75,193.773-195.203c113.738-0.517,195.956,91.487,197.061,192.925
	c1.133,103.906-80.775,196.615-193.539,197.614C144.102,445.197,57.043,359.485,55.64,248.898z M244.584,413.864
	c4.443-16.799,8.439-31.91,12.453-47.088c10.472,1.268,19.654,2.754,28.896,3.423c22.197,1.607,43.265-1.066,59.204-18.922
	c10.906-12.218,16.253-26.935,17.841-43.098c1.94-19.751-5.561-34.881-22.301-45.508c-2.216-1.407-4.232-3.127-6.802-5.046
	c2.356-0.899,3.854-1.512,5.38-2.045c30.151-10.534,40.817-53.921,19.472-78.443c-6.469-7.431-15.634-12.781-24.208-18.033
	c-7.142-4.375-15.228-7.209-23.352-10.936c3.698-15.621,7.278-30.743,11.046-46.659c-9.772-2.446-18.197-4.555-27.414-6.862
	c-4.029,15.49-7.775,29.892-11.85,45.556c-7.83-1.755-15.123-3.39-22.754-5.1c0.708-16.603,9.536-30.7,9.728-46.514
	c-5.465-1.339-9.776-2.375-14.076-3.454c-4.197-1.054-8.216-3.784-13.396-1.034c-3.831,14.382-7.771,29.169-11.882,44.604
	c-19.713-4.84-38.441-9.439-57.9-14.217c-2.631,10.489-5.037,20.079-7.554,30.113c7.789,1.979,14.55,3.323,21.061,5.436
	c11.222,3.642,14.776,10.097,12.118,21.561c-2.017,8.699-4.459,17.298-6.644,25.958c-8.031,31.839-15.956,63.704-24.092,95.516
	c-2.508,9.807-4.543,11.325-14.514,10.21c-6.651-0.744-13.173-2.642-20.558-4.192c-4.682,10.662-9.201,20.953-14.01,31.902
	c19.447,5.02,38.14,9.846,57.734,14.905c-3.86,16.276-7.531,31.754-11.401,48.07c9.574,2.397,18.456,4.62,27.736,6.943
	c4.202-15.963,8.191-31.111,12.427-47.204c7.992,2.253,15.494,4.369,23.052,6.499c-3.983,16.409-7.645,31.494-11.301,46.554
	C226.432,409.235,234.968,411.412,244.584,413.864z M146.304,178.001c-6.619,1.981-11.632,3.481-17.534,5.247
	c-1.985-5.39-5.971-9.064-13.445-9.096c-10.634,6.545-9.088,18.896-13.131,30.034c12.192,3.167,23.371,6.071,35.325,9.176
	c1.112-4.115,1.894-7.011,2.797-10.354c-4.769-1.701-8.741-3.119-13.234-4.722c4.131-7.552,13.126-3.824,17.406-10.063
	C144.924,185.776,145.471,182.694,146.304,178.001z M113.087,214.865c-11.407-0.17-19.118,8.729-18.931,21.848
	c0.122,8.561,9.809,15.986,20.97,16.074c10.852,0.086,17.86-7.697,17.905-19.884C133.071,222.162,125.203,215.046,113.087,214.865z
	 M132.96,141.625c-3.91,5.411-1.246,12.769-9.687,15.533c0.875-7.037,1.626-13.076,2.336-18.791c-1.64-0.766-2.345-1.354-3.06-1.369
	c-1.113-0.022-2.235,0.346-3.78,0.627c-2.126,9.039-4.219,17.933-6.437,27.361c12.291,3.859,23.233,7.505,35.603,8.417
	c2.466-9.89,4.766-19.117,7.106-28.505c-2.875-0.993-4.651-1.607-7.006-2.421c-2.223,6.633-4.236,12.642-6.442,19.223
	c-2.415-1.167-4.104-1.984-5.746-2.777c1.066-5.964,2.014-11.271,3.023-16.916C136.099,141.828,134.552,141.728,132.96,141.625z
	 M110.815,280.981c-2.349,0-5.067,0.726-7.071-0.161c-3.492-1.546-7.579-3.414-9.513-6.385c-2.295-3.526,0.884-6.556,4.023-8.956
	c2.925-2.236,3.184-5.346,1.228-8.822c-4.485-1.18-8.409,0.489-10.295,4.202c-2.315,4.559-4.468,9.757-4.618,14.741
	c-0.277,9.207,9.164,16.584,20.229,17.093c9.648,0.444,17.821-7.92,18.371-18.799c0.358-7.07-3.556-14.057-8.746-14.675
	c-1.302,2.05-2.735,4.306-4.026,6.338c2.032,3.333,3.659,6.002,5.249,8.611C113.921,276.602,112.528,278.566,110.815,280.981z
	 M264.942,329.082c7.074,0.438,14.593-0.919,21.416-3.044c11.746-3.658,17.961-13.802,17.904-26.119
	c-0.046-9.931-5.357-16.749-12.643-22.459c-10.081-7.901-22.05-12.023-34.002-15.748c-8.679-2.705-17.85-3.832-27.551-5.816
	c-5.47,21.605-10.608,41.898-15.998,63.189C231.373,324.513,247.994,328.033,264.942,329.082z M287.193,234.368
	c10.567-1.126,19.68-5.038,24.1-15.692c5.422-13.069,1.266-25.114-11.277-33.537c-14.458-9.709-31.096-12.797-48.317-16.48
	c-4.726,19.11-9.338,37.756-14.329,57.937C254.5,231.35,270.332,236.165,287.193,234.368z M110.291,225.613
	c-5.07,2.005-7.637,4.818-6.616,9.557c0.808,3.753,6.321,6.766,11.617,6.949c6.143,0.211,8.56-3.241,9.069-9.101
	C120.743,226.187,114.843,226.62,110.291,225.613z"/>
</svg>
