<?xml version="1.0" encoding="iso-8859-1"?>
<!-- Generator: Adobe Illustrator 19.0.0, SVG Export Plug-In . SVG Version: 6.00 Build 0)  -->
<svg version="1.1" id="Layer_1" xmlns="http://www.w3.org/2000/svg" xmlns:xlink="http://www.w3.org/1999/xlink" x="0px" y="0px"
	 viewBox="0 0 500 500" enable-background="new 0 0 500 500" xml:space="preserve">
<path d="M249.873,495.273c-138.042-0.2-248.108-113.768-245.05-250.955C7.787,111.337,118.305,1.595,256.166,4.851
	C386.87,7.938,495.922,115.01,495.224,251.427C494.532,386.353,385.192,495.173,249.873,495.273z M326.281,239.823
	c0.312-0.517,0.395-0.856,0.593-0.948c1.284-0.597,2.585-1.159,3.895-1.698c18.606-7.671,32.636-20.197,40.3-39.03
	c7.86-19.314,11.466-39.541,10.931-60.373c-0.186-7.262-2.246-14.318-5.905-20.74c-6.093-10.694-15.59-17.11-26.88-21.253
	c-14.232-5.223-29.131-6.599-44.063-6.76c-31.144-0.338-62.295-0.105-93.443-0.092c-1.236,0.001-2.472,0.155-3.927,0.252
	c-8.104,43.709-16.164,87.181-24.287,130.991c-27.965,0-55.623,0-83.259,0c-3.659,16.993-7.233,33.593-10.889,50.573
	c-27.185,0-54.13,0-81.075,0c-0.02,0.22-0.04,0.441-0.06,0.661c42.596,13.558,85.192,27.115,128.076,40.765
	c3.711-15.667,7.288-30.771,10.841-45.774c9.464,0,18.378,0,27.803,0c-8.945,48.306-17.818,96.219-26.723,144.303
	c1.156,0.107,1.995,0.256,2.833,0.252c35.564-0.157,71.129-0.241,106.692-0.541c13.163-0.111,26.006-2.621,38.435-6.908
	c29.988-10.343,49.498-30.633,56.793-61.701c3.269-13.923,5.228-28.152,7.807-42.238c1.46-7.975,1.044-15.926-0.523-23.803
	c-3.203-16.103-13.007-26.801-27.778-33.301C330.431,241.563,328.373,240.713,326.281,239.823z M260.764,364.755
	c7.899-0.275,15.408-2.782,21.291-8.573c5.559-5.472,8.495-12.363,10.026-19.861c2.097-10.272,4.127-20.561,5.931-30.886
	c1.147-6.561,1.963-13.187,0.959-19.89c-0.786-5.248-2.805-9.742-7.067-13.136c-5.381-4.286-11.784-5.589-18.316-5.944
	c-8.253-0.449-16.538-0.296-24.81-0.376c-3.686-0.036-7.373-0.006-11.554-0.006c-6.107,32.94-12.166,65.622-18.318,98.804
	C233.408,364.887,247.1,365.23,260.764,364.755z M245.72,220.154c12.106-0.565,23.892,0.777,35.68-0.875
	c15.481-2.169,25.939-10.439,30.317-25.444c2.37-8.122,3.836-16.548,5.146-24.925c0.85-5.433,0.957-11.028,0.884-16.543
	c-0.058-4.384-2.099-8.137-5.327-11.237c-4.03-3.871-9.126-5.581-14.344-5.758c-12.095-0.41-24.213-0.131-36.616-0.131
	C256.223,163.49,251.021,191.556,245.72,220.154z"/>
</svg>
