<?xml version="1.0" encoding="iso-8859-1"?>
<!-- Generator: Adobe Illustrator 19.0.0, SVG Export Plug-In . SVG Version: 6.00 Build 0)  -->
<svg version="1.1" id="Layer_1" xmlns="http://www.w3.org/2000/svg" xmlns:xlink="http://www.w3.org/1999/xlink" x="0px" y="0px"
	 viewBox="0 0 2000 2000" style="enable-background:new 0 0 2000 2000;" xml:space="preserve">
<path d="M1982.595,1002.385c-6.304,548.091-440.004,981.068-984.017,979.526c-547.692-1.552-980.629-439.004-978.937-983.626
	c1.7-547.364,438.907-978.627,981.728-978.211C1548.444,20.493,1978.216,457.476,1982.595,1002.385z M484.644,1407.918
	c-0.45-1.157-0.899-2.315-1.349-3.472c171.553-185.821,343.105-371.642,514.658-557.463c-0.873-1.259-1.746-2.519-2.619-3.778
	c-150.645,63.504-301.291,127.008-451.936,190.512c-0.764-1.2-1.529-2.399-2.293-3.599
	c200.759-298.464,401.518-596.928,602.991-896.452C742.077,61.366,312.917,290.381,167.089,714.544
	c-141.337,411.099,40.028,848.317,392.518,1047.232c102.531-147.942,205.157-296.02,311.192-449.017
	C738.324,1345.405,611.484,1376.661,484.644,1407.918z M1403.897,532.768c0.705,1.509,1.409,3.018,2.114,4.526
	c96.804-17.669,193.607-35.338,290.411-53.006c0.613,1.604,1.227,3.208,1.84,4.812c-180.2,177.595-360.4,355.19-540.6,532.786
	c0.857,1.452,1.713,2.904,2.57,4.357c122.394-27.46,244.787-54.919,367.181-82.379c0.662,1.091,1.325,2.182,1.987,3.273
	c-294.619,285.314-589.238,570.628-884.359,856.428c324.139,158.075,834.958,94.231,1105.007-339.581
	c254.181-408.322,115.527-902.333-186.407-1137.126C1510.391,395.496,1457.144,464.132,1403.897,532.768z"/>
</svg>
