<?xml version="1.0" encoding="iso-8859-1"?>
<!-- Generator: Adobe Illustrator 19.0.0, SVG Export Plug-In . SVG Version: 6.00 Build 0)  -->
<svg version="1.1" id="Layer_1" xmlns="http://www.w3.org/2000/svg" xmlns:xlink="http://www.w3.org/1999/xlink" x="0px" y="0px"
	 viewBox="0 0 500 500" enable-background="new 0 0 500 500" xml:space="preserve">
<path d="M107.387,77.585c1.25-7.285,2.024-15.646,4.256-23.598c1.805-6.431,6.964-10.667,13.5-12.746
	c5.578-1.773,11.292-3.17,16.757-5.232c15.224-5.742,34.963,5.732,33.919,25.096c-0.083,1.541-0.011,3.09-0.011,5.388
	c2.922-0.471,5.313-0.856,8.222-1.324c0-6.262,0-12.308,0-18.354c0.001-17.305,5.337-25.25,21.438-30.658
	c12.393-4.162,24.863-8.221,37.537-11.36c5.061-1.254,11.059-0.968,16.12,0.446c13.87,3.876,27.546,8.502,41.149,13.26
	c9.766,3.416,15.175,10.812,15.754,21.101c0.472,8.391,0.096,16.83,0.096,25.597c2.662,0.587,4.906,1.081,7.491,1.651
	c0.775-5.072,1.015-9.952,2.323-14.527c3.047-10.659,14.796-18.841,25.768-17.024c8.981,1.487,18.176,3.675,26.352,7.519
	c9.994,4.699,13.862,14.384,14.424,25.196c0.202,3.894,0.032,7.807,0.416,11.843c0.536-7.329,4.126-12.956,9.254-17.782
	c6.879-6.473,15.32-7.027,23.665-4.972c7.671,1.89,15.305,4.663,22.326,8.271c8.617,4.427,12.783,12.351,12.764,22.13
	c-0.17,87.162-0.362,174.324-0.607,261.485c-0.03,10.798-4.95,18.635-14.206,24.499c-24.673,15.632-49.013,31.787-73.579,47.589
	c-13.087,8.418-26.454,16.403-39.541,24.821c-14.081,9.058-27.916,18.499-41.986,27.575c-10.452,6.742-20.761,13.837-31.774,19.538
	c-10.085,5.22-19.654,1.228-28.581-4.664c-19.491-12.864-39.12-25.519-58.676-38.285c-20.53-13.402-40.996-26.902-61.575-40.228
	c-16.947-10.974-34.188-21.504-50.958-32.739c-7.269-4.87-16.14-8.631-18.557-18.47c-0.879-3.58-1.755-7.289-1.75-10.938
	c0.122-85.984,0.454-171.967,0.495-257.951c0.007-13.67,5.97-25.596,21.613-29.078c7.019-1.563,13.909-4.406,20.979-4.884
	c11.886-0.804,21.254,7.091,24.217,18.692C106.796,75.937,107.32,77.369,107.387,77.585z M429.32,344.871
	c0-84.362,0-168.759,0-253.593c-1.449-0.436-3.218-0.967-5.056-1.52c-2.496,11.279-7.446,19.935-18.874,22.907
	c-10.134,2.635-19.99-0.066-29.215-3.593c-7.149-2.733-12.563-8.622-13.866-16.729c-1.169-7.276-1.575-14.675-2.373-22.577
	c-1.175-0.398-2.896-0.981-5.18-1.754c0,2.664-0.053,4.615,0.008,6.562c0.519,16.571-18.584,29.243-32.6,23.582
	c-2.676-1.081-5.715-1.434-8.627-1.732c-16.361-1.675-29.4-11.208-27.986-32.055c0.407-5.999,0.062-12.049,0.062-18.558
	c-8.959-2.66-17.528-5.262-26.135-7.732c-3.502-1.005-7.418-3.086-10.576-2.321c-11.329,2.744-22.413,6.496-33.893,9.958
	c0,8.05,0.055,15.478-0.013,22.906c-0.105,11.489-5.206,20.11-16.017,24.089c-7.081,2.606-15.006,2.9-22.124,5.435
	c-9.165,3.264-24.638-3.313-28.081-12.537c-2.12-5.68-3.353-11.691-5.056-17.81c-0.906,0.376-2.463,1.021-4.347,1.803
	c0,5.05-0.016,9.934,0.004,14.817c0.03,7.416-2.771,13.487-7.967,18.815c-5.728,5.874-13.06,6.883-20.518,8.727
	c-17.293,4.275-32.244-4.952-34.734-23.88c-1.826,0.844-3.489,1.613-5.38,2.487c0,85.727,0,171.083,0,256.671
	c59.555,38.665,119.061,77.299,178.497,115.888C309.482,423.581,369.191,384.364,429.32,344.871z"/>
</svg>
