<?xml version="1.0" encoding="utf-8"?>
<!-- Generator: Adobe Illustrator 25.1.0, SVG Export Plug-In . SVG Version: 6.00 Build 0)  -->
<svg version="1.1" id="Layer_2_1_" xmlns="http://www.w3.org/2000/svg" xmlns:xlink="http://www.w3.org/1999/xlink" x="0px" y="0px"
	 viewBox="0 0 500 500" style="enable-background:new 0 0 500 500;" xml:space="preserve">
<g>
	<path d="M255.1,51.9l-141.9,76.3v238.3l141.9,78.3l134.6-70.6v-36.9l-13.4-7L294.4,290l0.1-64.1l95.1-63.6v-36.1L255.1,51.9z
		 M345.3,348.5L255,401.3l-94.4-53.5l0.7-200.8l93.7-52.2v-0.1l95.2,55.1l-95.2,56.8v94.4L345.3,348.5z"/>
	<path d="M433.8,103.4L255.1,1L73.6,104.1v288.5l181.4,105.1l178.7-102.5v-95.9l-91.3-48.1l91.3-52.3V103.4z M309.2,233.6v47.6
		l85.9,40.8h0l9.3,4.6v56.4l-149.3,77.8v0l-156-85.7l0.7-255.7l155.2-85l150.1,84l0,52L309.2,233.6z"/>
</g>
</svg>
