<?xml version="1.0" encoding="iso-8859-1"?>
<!-- Generator: Adobe Illustrator 19.0.0, SVG Export Plug-In . SVG Version: 6.00 Build 0)  -->
<svg version="1.1" id="Layer_1" xmlns="http://www.w3.org/2000/svg" xmlns:xlink="http://www.w3.org/1999/xlink" x="0px" y="0px"
	 viewBox="0 0 2000 2000" style="enable-background:new 0 0 2000 2000;" xml:space="preserve">
<path d="M1970.881,1000.859c11.789,515.191-418.839,971.093-966.845,972.212c-541.67,1.106-980.874-444.768-973.546-986.207
	c7.156-528.674,451.074-968.028,994.271-956.44C1543.125,41.483,1981.205,478.073,1970.881,1000.859z M84.676,999.451
	c-9.457,491.977,400.062,923.424,920.448,920.924c526.987-2.532,909.621-438.119,915.616-904.661
	c6.773-527.144-431.203-912.58-874.317-932.11C512.292,60.063,75.066,501.112,84.676,999.451z M384.706,1000.509
	c0-168.134,0.362-336.271-0.404-504.401c-0.11-24.165,5.715-42.623,23.018-60.574C529.245,309.04,673.206,224.507,848.179,194.566
	c189.314-32.395,371.33-12.767,539.21,82.621c225.432,128.089,377.546,315.923,422.394,575.288
	c39.998,231.316-3.226,448.176-148.349,638.414c-130.761,171.412-299.752,285.983-514.182,319.952
	c-283.753,44.951-532.143-29.523-735.751-238.233c-19.341-19.826-27.7-39.541-27.471-67.704
	C385.396,1336.782,384.706,1168.643,384.706,1000.509z M912.911,859.467c15.953,0,27.856,0.005,39.759-0.001
	c83.105-0.037,166.21,0.016,249.314-0.274c7.428-0.026,14.977-1.763,22.252-3.579c110.868-27.679,156.89-123.276,150.931-203.637
	c-7.171-96.699-91.427-177.348-188.5-180.737c-55.84-1.949-111.802-0.385-167.709-0.396c-34.421-0.007-68.842-0.001-106.047-0.001
	C912.911,601.682,912.911,727.793,912.911,859.467z M913.244,1141.314c0,132.441,0,260.081,0,390.779
	c98.424,0,193.795,3.656,288.751-1.052c90.745-4.499,169.68-93.551,173.682-185.967c3.992-92.179-59.474-178.749-149.73-194.41
	c-51.667-8.965-105.271-7.643-158.053-9.054C1016.828,1140.245,965.697,1141.314,913.244,1141.314z"/>
</svg>
