<?xml version="1.0" encoding="utf-8"?>
<!-- Generator: Adobe Illustrator 25.1.0, SVG Export Plug-In . SVG Version: 6.00 Build 0)  -->
<svg version="1.1" id="Layer_1" xmlns="http://www.w3.org/2000/svg" xmlns:xlink="http://www.w3.org/1999/xlink" x="0px" y="0px"
	 viewBox="0 0 500 500" style="enable-background:new 0 0 500 500;" xml:space="preserve">
<path d="M470.2,335.2c-3.9-39.7-22.3-71.6-51-98.3c1.8-3.1,3-5.3,4.3-7.4c30.8-49.2,35.2-100.8,6.8-151.5
	C402,27.8,356.8,2.6,298.5,2.6c-82.2,0-260.4,0.6-268.6,1c0,164.2,0,489.6,0,489.6s204.5,3.4,302.8,1.2
	C413.9,492.7,478.1,415.7,470.2,335.2z M344.2,364.2c-62.8,0-125.5,0-188.6,0c-10.6,0-21.2,0-31.8,0c-1.1,0-1.7,0-1.7,0
	s0-7.8,0-16.7c-0.1-7.5,0-15,0-22.4c0-0.2,0-0.3,0-0.5c41.6-43.4,82.5-86.2,123.4-129c-0.8-1.7-1.6-3.3-2.4-5
	c-38.6,0-77.3,0-117.5,0c0,0,0,0,0,0c0,0,0,0,0,0c0-18.9,0-35.2,0-52.7c72.7,0,144.3,0,217.6,0c0,0,0,0,0,0c0,0,0,0,0,0
	c0,13.6,0,26.1,0,41.1c-39.2,41.6-80,84.9-120.8,128.1c0.4,1.7,0.8,3.5,1.2,5.2c39.6,0,79.2,0,120.4,0c0,0,0,0,0,0c0,0,0,0,0,0
	C344.2,331.3,344.2,346.3,344.2,364.2z"/>
</svg>
