<?xml version="1.0" encoding="utf-8"?>
<!-- Generator: Adobe Illustrator 25.1.0, SVG Export Plug-In . SVG Version: 6.00 Build 0)  -->
<svg version="1.1" id="Layer_1" xmlns="http://www.w3.org/2000/svg" xmlns:xlink="http://www.w3.org/1999/xlink" x="0px" y="0px"
	 viewBox="0 0 500 500" style="enable-background:new 0 0 500 500;" xml:space="preserve">
<g>
	<path d="M399,263c-4.6-3.2-8.5-6.9-10.5-12c-1.8-4.8-5.2-8.4-8.4-12.3c-8.8-10.3-21.8-8.7-33.1-3.6c-6.3,2.8-12.3,5.1-19.3,5.1
		c-14-0.1-23.8-6.9-30.4-18.7c-8.4-15.1-3.4-35.5,12.7-45.7c17.9-11.3,44.1-2.9,50.5,17.3c2.7,8.4,8,14.3,13.7,20.3
		c6.8,7.2,18.9,5.8,24.7,2.9c0-9.6,0-19.3,0-29.2c-8.6-1.3-15.8-4.9-20.2-12.5c-4.5-7.7-3.9-15.8-1.3-24.2c-1.4-1-2.6-1.9-3.9-2.7
		c-10.3-6-20.6-12.1-31-18c-1.2-0.7-3.5-0.7-4.8,0c-5,2.5-10.3,3.2-15.8,3.2c-4.5,0-9.1,0.5-13.5,1.7c-11,3-19.5,14.6-19.6,25.7
		c0,3.8,0.1,7.7-0.7,11.3c-3.2,15.3-12.9,24.7-28.1,27.3c-14.2,2.4-26.1-2.5-34.4-14.5c-8.3-12-8.8-24.8-1.4-37.3
		c7.8-13.2,20-19.2,35.1-16.8c7.5,1.2,14.2-0.3,21.2-1.8c12-2.5,16.5-14.7,16.6-22.3c0-1.2-1-2.9-2-3.6c-4-2.6-8.2-5-12.4-7.4
		c-3.2-1.8-6.4-3.6-9.8-5.4c-5.2,8-12.5,12.3-21.7,12.4c-9.4,0.1-16.4-4.9-21.8-12.5c-12.8,7.4-25.2,14.6-37.5,21.9
		c-1.1,0.6-2,2.7-1.9,4c0.3,7.1-2.4,13-6.2,18.9c-4.1,6.3-6,13.7-4.6,20.9c1.7,8.8,7.7,15.5,15.3,19.9c11,6.3,17.7,15.1,19.2,27.8
		c2.7,22.7-18,42.2-40.6,37.9c-12.9-2.4-21.9-9.9-26.6-22.2c-5.1-13.5-1.7-25.4,7.2-36.2c1.6-2,2.9-4.3,4-6.6
		c1.1-2.5,1.5-5.2,2.4-7.8c4.6-12.9-1.7-22.3-11.4-29c-1.8-1.2-3.3-1.1-5.1,0c-5.3,3.2-10.7,6.3-16.1,9.3c-2.2,1.2-2.5,2.5-1.6,4.8
		c5.8,14.4-3.4,30.6-18.8,33.3c-1.1,0.2-2.2,0.6-3.4,1c0,17.3,0,34.3,0,51.1c9.7,5.7,10.8,7.1,14.4,12.6c2.5,3.7,5.4,7.4,8.9,10.2
		c9.6,8.1,24.3,7.8,34.4,0.2c3.2-2.4,6.8-4.5,10.6-5.6c11.5-3.3,22.4-1.8,32,6c10.6,8.6,15,19.7,12.9,33c-2.8,17.1-18.4,30-35.7,29
		c-14-0.8-26.4-9.2-31.2-22.4c-0.4-1.2-1-2.6-1.9-3.4c-5.1-4.7-10.3-9.3-15.6-13.8c-1.2-1-3.1-1.6-4.8-1.8
		c-8.5-0.8-16.1,2.1-22.9,6.9c-0.8,0.6-1.2,2.3-1.2,3.4c-0.1,5.9-0.1,11.8,0,17.7c0,0.9,0.2,1.8,0.3,2.9c9.2,0,16.8,3,22.1,10.4
		c5.2,7.4,5.6,15.5,3.2,23.8c0.8,0.6,1.2,0.9,1.6,1.2c11,6.4,22,12.8,33.2,19c1.3,0.7,3.3,0.8,4.7,0.3c5-1.8,10-2.8,15.3-2.7
		c4.1,0.1,8.3-0.3,12.2-1.3c5-1.2,10.2-2.8,13.2-7.3c4.5-6.6,7.6-13.9,7.4-22.2c-0.1-3.4-0.1-6.9,0.8-10.1
		c5.1-18.5,23.3-30.4,43.2-24.9c17,4.7,26.6,19.3,25.2,37c-1.4,18.7-18.6,33.5-37.1,31c-8.3-1.1-16-0.5-23.8,2
		c-9.3,2.9-15.5,10.5-16.5,20.2c-0.3,2.8,0.6,4.7,3.2,6.1c3.7,1.9,7.2,4.1,10.8,6.1c3.8,2.1,7.5,4.2,11.6,6.6
		c4.9-7.2,11.2-11.5,19.6-12.2c8.4-0.7,15.4,2.3,21.2,8.2c0.7-0.4,1.2-0.6,1.7-0.9c12.8-7.3,25.6-14.6,38.2-22.1
		c1.3-0.7,1.9-2.7,2.6-4.2c1.3-3,1.8-6.5,3.7-8.9c4.2-5.3,5.7-11.4,6.5-17.8c1.2-8.5-6.4-22.2-14.1-25.7
		c-16.3-7.3-26.5-28.6-16.4-47.8c8.5-16.2,29.2-23.8,46.6-15.1c21.2,10.7,24.5,38.3,11.2,53.5c-2.6,2.9-4.5,6.6-6.2,10.2
		c-1.4,3.1-2.2,6.6-3,10c-1.9,8.2,2.5,18.7,9.6,22.6c8.3-4.8,16.9-9.7,25.4-14.6c-0.1-1.3-0.1-2-0.3-2.7c-3.8-12.3,3.1-25.5,15.5-30
		c2.6-0.9,3.3-2.2,3.3-4.7c-0.1-13.4-0.1-26.8-0.1-40.2C399.1,265.1,399,264,399,263z"/>
	<path d="M445.1,106.6L277.9,10.1c-16.5-9.5-36.7-9.5-53.2,0L57.6,106.6C41.1,116.1,31,133.7,31,152.7v193c0,19,10.1,36.6,26.6,46.1
		l167.2,96.5c16.5,9.5,36.7,9.5,53.2,0l167.2-96.5c16.5-9.5,26.6-27.1,26.6-46.1v-193C471.7,133.7,461.6,116.1,445.1,106.6z
		 M436.6,251.8c-3.8,8.1-10.4,13-19.4,14.3c-4.4,0.6-4.4,0.5-4.4,5c0,13.1,0,26.2,0,39.5c1.8,1.1,3.6,2.2,5.5,3.3
		c12.1,7.5,14.3,25.6,5.2,36.4c-8.6,10.2-22.6,10.7-31.5,5.8c-1-0.5-2.5-0.6-3.6-0.3c-2,0.6-3.8,1.6-5.6,2.6
		c-5.4,3.1-10.7,6.3-16.2,9.5c6.8,16.7,5,31.2-12.4,39.8c-11.3,5.6-25.8,2.3-35.1-12.3c-5,2.8-10,5.5-15,8.4
		c-6.9,4-13.7,8.1-20.6,12c-2,1.1-2.7,2.4-2.7,4.7c0,14.2-9.2,24.4-23.4,25.2c-11.7,0.7-22.6-6.2-25.8-20.4c-0.3-1.4-1.6-3-2.8-3.8
		c-6.8-4.2-13.6-8.2-20.5-12.2c-1.3-0.8-2.7-1.3-4.3-2.1c-1.2,1.3-2.3,2.4-3.4,3.6c-8,8.4-22.5,10.3-32.3,4.4
		c-10.9-6.6-16.1-19.8-12-31.4c0.9-2.7,0.2-4-2-5.3c-7.6-4.3-15.1-8.6-22.7-13c-2.9-1.7-5.7-3.6-8.5-5.4c-1.9-1.2-3.4-1.6-5.6-0.3
		c-10.2,5.9-23.6,3.4-30.8-5.5c-7.9-9.8-7.9-23.2,0.3-32.3c2.3-2.6,3.1-5,2.9-8.4c-0.4-6.2-0.1-12.4-0.1-18.6c0-1.4-0.2-2.8-0.3-4.2
		c-0.2,0.2-0.5,0.4-0.7,0.6c-4.2-2.7-8.7-4.9-12.4-8.1c-14.6-12.7-9.4-38.2,9.1-44.2c3.5-1.2,4.4-2.9,4.4-6.3
		c-0.2-15.4-0.1-30.7,0-46.1c0-2.3-0.5-4.1-2.5-5.6c-8.5-6.5-11.6-19-7.3-28.9c4.6-10.5,15.2-16.5,26.1-14.8
		c0.9,0.1,1.8,0.1,2.6,0.5c6.9,3.4,11.8-0.9,17.1-4.2c3.9-2.5,8.1-4.6,12.3-6.9c-3.6-13-1.1-24.3,10.4-31.9
		c12.9-8.6,25-5.7,35.9,4.9c3.4-1.9,6.7-3.6,10-5.5c9.4-5.4,18.8-10.9,28.3-16.3c2.5-1.4,3.8-3.2,4.4-6
		c2.2-10.4,11.6-18.5,21.3-19.3c14.4-1.2,23.7,7.4,26.3,16.9c1.4,5.1,3.9,8,8.6,10.2c5.9,2.8,11.4,6.4,17.1,9.6
		c0.5,0.3,1,0.4,1.9,0.7c10.9-11.5,23.7-14.9,37.5-5.5c10.6,7.2,12.7,16.3,9.1,32.9c3.5,2,7.1,4.1,10.7,6.3c8,4.7,16,9.2,24,14
		c2.3,1.4,4.5,1.5,7.1,0.7c14-4.3,28,1.3,33,15.9c3.2,9.3-0.3,21.2-8.3,27c-2.2,1.6-3,3.3-2.9,6c0.3,7,0.1,14,0.2,20.9
		c0,1.4,0.2,2.8,0.3,4.3c1.2,0.3,2.1,0.6,3,0.7C433.9,215.5,444.8,234.2,436.6,251.8z"/>
</g>
</svg>
