<?xml version="1.0" encoding="utf-8"?>
<!-- Generator: Adobe Illustrator 25.1.0, SVG Export Plug-In . SVG Version: 6.00 Build 0)  -->
<svg version="1.1" id="Layer_1" xmlns="http://www.w3.org/2000/svg" xmlns:xlink="http://www.w3.org/1999/xlink" x="0px" y="0px"
	 viewBox="0 0 500 500" style="enable-background:new 0 0 500 500;" xml:space="preserve">
<path d="M250,2c-18.5,0-36.6,2.1-54,5.9v101.7h-49.7V24.7c-54,24.9-97.6,68.6-122.2,122.8h253.3c37.3,0,67.5,30.3,67.5,67.7v65.9
	c0,37.4-30.2,67.7-67.5,67.7h-65.7c-37.3,0-67.5-30.3-67.5-67.7V233H194v47.7c0,10,7.8,17.8,17.8,17.8h65.7
	c9.9,0,17.8-7.8,17.8-17.8v-65.5c0-10-7.8-17.8-17.8-17.8H7.6C3.9,214.4,2,231.9,2,250c0,137,111,248,248,248s248-111,248-248
	S387,2,250,2z"/>
</svg>
