<?xml version="1.0" encoding="iso-8859-1"?>
<!-- Generator: Adobe Illustrator 19.0.0, SVG Export Plug-In . SVG Version: 6.00 Build 0)  -->
<svg version="1.1" id="Layer_1" xmlns="http://www.w3.org/2000/svg" xmlns:xlink="http://www.w3.org/1999/xlink" x="0px" y="0px"
	 viewBox="0 0 500 500" enable-background="new 0 0 500 500" xml:space="preserve">
<path d="M466.745,172.657c-29.49-3.107-57.412,5.306-83.917-7.119c-12.358-5.793-21.38-15.241-28.682-26.603
	c-23.381-36.381-68.286-54.368-110.871-47.896c-56.735,8.623-90.571,50.667-102.015,107.148c-8.557,42.23-7.845,84.25,5.91,125.446
	c16.843,50.442,55.156,84.397,112.395,85.501c1.113,0.021,2.222,0.207,4.222,1.977c-6.221,3.899-12.264,8.125-18.694,11.641
	c-34.548,18.891-71.173,30.668-110.885,30.796c-4.504,0.014-9.832-1.955-13.402-4.757c-47.706-37.435-74.05-87.618-83.525-146.504
	c-11.7-72.716-1.874-142.006,39.612-204.583c26.762-40.368,63.952-67.782,109.946-82.422c50.163-15.967,101.14-16.772,151.048-0.009
	c66.068,22.19,109.185,66.844,124.709,136.051C463.988,157.529,465.036,163.814,466.745,172.657z M444.728,318.75
	c-48.981,13.504-90.656,39.267-122.587,78.583c-25.091,30.895-53.896,56.276-89.566,73.737
	c-10.902,5.337-22.249,9.764-34.459,15.071c2.137,1.023,3.085,1.746,4.131,1.939c28.688,5.288,57.379,8.649,86.732,5.454
	c74.134-8.068,129.191-43.268,161.206-111.694c9.85-21.052,16.337-43.178,18.405-68.602
	C459.454,315.331,452.009,316.743,444.728,318.75z"/>
</svg>
