<?xml version="1.0" encoding="iso-8859-1"?>
<!-- Generator: Adobe Illustrator 19.0.0, SVG Export Plug-In . SVG Version: 6.00 Build 0)  -->
<svg version="1.1" id="Layer_1" xmlns="http://www.w3.org/2000/svg" xmlns:xlink="http://www.w3.org/1999/xlink" x="0px" y="0px"
	 viewBox="0 0 2000 2000" style="enable-background:new 0 0 2000 2000;" xml:space="preserve">
<path d="M925.118,1969.853c-183.878-4.328-409.265-89.573-594.057-264.808C121.279,1506.111,15.921,1258.004,22.5,967.068
	c5.584-246.938,95.075-463.505,263.81-641.739C486.239,114.145,735.955,8.876,1028.391,16.566
	c245.45,6.455,460.938,95.934,638.099,263.941c210.896,199.999,316.55,449.506,308.629,741.864
	C1961.477,1525.853,1551.468,1967.439,925.118,1969.853z M661.242,1023.404c10.581-22.545,22.965-43.995,31.028-66.961
	c36.447-103.817,93.845-186.258,209.07-212.094c140.538-31.512,218.954-10.06,294.367,81.932
	c68.481,83.536,86.105,182.079,55.763,279.089c-46.253,147.881-182.841,200.144-328.834,145.463
	c-72.617-27.198-121.547-122.723-94.167-215.928c19.157-65.212,69.376-116.618,169.914-107.273
	c45.935,4.27,70.834,23.589,79.155,64.217c12.585,61.45,1.653,93.842-43.324,115.18c-13.372,6.344-31.147,3.408-46.905,4.724
	c1.109-15.486,1.488-31.072,3.591-46.422c1.35-9.861,7.338-19.327,7.555-29.052c0.467-20.953-13.657-31-33.039-25.51
	c-24.706,6.997-47.74,38.775-51.187,70.616c-3.759,34.731,10.814,64.781,38.038,78.433
	c78.908,39.571,187.643-20.142,196.208-110.619c3.112-32.874-2.405-67.345-8.794-100.151c-9.094-46.695-39.164-78.663-83.227-95.791
	c-88.312-34.328-169.504-17.049-240.885,41.551c-74.997,61.569-88.318,147.721-81.816,237.863
	c3.417,47.379,26.212,92.934,7.391,142.29c-15.887,41.663-26.223,85.438-42.004,127.147c-8.309,21.963-20.368,43.756-35.513,61.559
	c-17.935,21.083-40.184,17.166-52.801-7.501c-6.146-12.017-7.37-26.986-8.932-40.831c-4.314-38.221-13.847-47.641-49.866-56.764
	c-12.045-3.051-25.853-12.972-31.597-23.655c-7.587-14.111-11.154-32.108-10.917-48.354c0.548-37.459-12.177-68.079-37.202-95.336
	c-23.59-25.694-20.046-38.393,14.976-46.011c34.159-7.43,69.313-10.31,104.048-15.057c12.819-1.752,25.688-3.129,38.534-4.678
	c0.186-3.347,0.372-6.694,0.557-10.042c-10.339-3.824-20.598-10.693-31.031-10.97c-62.407-1.661-124.934-3.95-187.255-1.602
	c-34.2,1.288-63.738,18.26-84.841,51.997c14.801,11.224,29.165,21.428,42.766,32.563c38.646,31.642,74.321,64.167,66.228,122.286
	c-5.674,40.745,13.718,68.707,51.674,85.406c42.425,18.666,69.672,49.423,82.78,96.103c15.271,54.379,59.928,67.876,109.883,40.439
	c53.258-29.25,80.777-78.494,104.516-130.583c13.15-28.854,23.21-59.116,35.664-91.335c97.558,68.415,199.14,84.249,308.337,50.25
	c78.569-24.463,140.658-71.592,189.609-136.933c32.526-43.417,41.985-94.47,53.641-146.213
	c13.028-57.835-1.552-111.194-14.516-164.561c-10.055-41.388-13.58-40.139,30.208-46.702
	c61.481-9.215,125.042-12.999,179.497-47.714c42.662-27.198,63.174-52.735,13.169-99.696c-5.478-5.145-10.281-11.003-15.489-16.442
	c-14.888-15.548-24.017-33.095-19.885-55.486c5.595-30.323-6.768-53.851-30.338-70.927c-42.397-30.716-63.985-72.605-75.567-122.73
	c-9.017-39.028-39.983-53.083-74.451-32.836c-28.197,16.564-56.053,37.329-76.752,62.292
	c-44.639,53.832-65.672,119.195-77.115,187.661c-1.745,10.439-4.252,20.75-7.226,35.062c-56.467-37.651-114-54.907-173.82-61.59
	c-74.786-8.355-146.056,10.38-210.734,46.655c-108.808,61.026-167.714,157.534-185.436,279.91
	C631.131,989.169,630.753,1009.178,661.242,1023.404z M1447.76,589.8c-28.086-13.408-42.757-36.522-46.498-66.282
	c-2.358-18.764-4.109-39.824-24.885-43.622c-22.632-4.137-30.76,18.561-41.611,33.849c-0.709,0.999-0.64,2.516-1.112,3.722
	c-26.682,68.299-54.001,136.363-79.232,205.193c-2.881,7.86,3.83,21.459,9.699,29.887c17.334,24.893,37.383,47.904,54.567,72.891
	c10.049,14.612,21.002,21.813,38.679,17.452c46.635-11.503,94.274-19.91,139.745-34.908c56.292-18.568,59.145-37.417,16.807-80.276
	c-18.899-19.131-35.664-38.406-28.737-67.465C1488.588,627.805,1477.194,603.851,1447.76,589.8z"/>
</svg>
