<?xml version="1.0" encoding="iso-8859-1"?>
<!-- Generator: Adobe Illustrator 19.0.0, SVG Export Plug-In . SVG Version: 6.00 Build 0)  -->
<svg version="1.1" id="Layer_1" xmlns="http://www.w3.org/2000/svg" xmlns:xlink="http://www.w3.org/1999/xlink" x="0px" y="0px"
	 viewBox="0 0 2000 2000" style="enable-background:new 0 0 2000 2000;" xml:space="preserve">
<path d="M1977.296,998.133c2.72,533.716-436.244,984.402-992.088,976.119c-522.707-7.788-961.406-431.439-960.979-978.801
	C24.655,451.217,472.623,7.641,1027.325,21.361C1547.37,34.224,1979.038,461.921,1977.296,998.133z M1000.427,239.686
	c-418.068,0.456-756.917,340.327-756.5,758.782c0.417,418.684,339.082,757.116,757.811,756.759
	c422.632-0.361,768.424-347.579,756.544-779.724C1747.383,579.05,1426.213,242.766,1000.427,239.686z M727.227,257.63
	c8.345-3.06,15.572-5.711,22.8-8.362c-9.008-30.88-17.372-59.552-27.225-93.328c32.112,27.778,60.18,52.058,88.567,76.613
	c8.203-2.779,15.811-5.356,23.667-8.018c-13.565-45.836-26.743-90.368-40.084-135.446c-8.003,2.824-14.604,5.154-22.644,7.991
	c8.488,29.607,16.788,58.558,26.532,92.548c-32.027-27.532-59.806-51.413-88.046-75.689c-7.613,2.696-15.097,5.346-23.456,8.306
	C700.852,168.114,713.838,212.19,727.227,257.63z M991.248,68.582c0,30.87,0,60.594,0,92.726
	c-22.097-31.034-42.958-60.331-63.076-88.585c-9.234,0-17.199,0-26.276,0c2.091,47.62,4.112,93.653,6.188,140.925
	c9.313-1.212,16.139-2.1,24.313-3.163c-1.458-30.792-2.873-60.666-4.287-90.54c1.195-0.362,2.389-0.724,3.584-1.087
	c21.433,30.115,42.866,60.23,64.346,90.412c8.508-1.05,15.977-1.971,24.557-3.03c-2.272-46.74-4.504-92.652-6.77-139.264
	C1004.595,67.633,997.644,68.127,991.248,68.582z M1277.733,260.633c24.321,8.994,46.82,20.403,70.659,25.325
	c28.048,5.79,48.67-18.01,40.853-43.958c-2.365-7.851-8.792-14.479-13.794-22.353c3.621-0.618,5.918-1.161,8.245-1.384
	c15.946-1.527,26.964-10.363,30.685-25.284c3.974-15.936-4.859-27.734-18.495-34.895c-18.668-9.804-37.952-18.435-58.443-28.275
	C1317.52,173.458,1298.436,215.273,1277.733,260.633z M565.177,296.388c16.28-9.533,31.917-18.69,47.447-27.784
	c11.372,8.958,21.983,17.316,33.014,26.005c7.801-4.928,14.445-9.125,22.43-14.169c-40.224-32.502-78.933-63.78-117.704-95.108
	c-8.108,5.1-15.017,9.445-21.74,13.673c7.209,50.576,14.244,99.937,21.515,150.946c8.426-4.867,14.463-8.354,20.671-11.939
	C568.872,323.697,567.061,310.313,565.177,296.388z M1218.762,237.384c-8.922-51.868-17.319-100.681-25.737-149.618
	c-9.978-1.501-17.373-2.614-25.179-3.789c-27.691,42.084-54.969,83.541-83.679,127.173c10.063,1.559,17.402,2.695,24.114,3.735
	c7.931-11.764,14.86-22.041,22.658-33.609c8.508,1.506,17.161,2.941,25.773,4.588c9.215,1.762,18.393,3.723,27.822,5.645
	c2.908,14.031,5.635,27.186,8.423,40.638C1201.5,233.88,1208.878,235.378,1218.762,237.384z M1543.809,409.024
	c2.842-6.202,5.227-11.404,6.572-14.339c-5.66-7.49-10.219-13.523-15.464-20.465c-10.627,14.258-14.359,27.936-5.8,40.219
	c9.271,13.305,20.645,25.976,33.53,35.709c14.638,11.057,32.038,8.816,46.053-2.679c13.149-10.785,15.912-25.778,10.086-41.946
	c-4.412-12.245-9.38-24.305-13.349-36.689c-3.786-11.815-2.075-23.719,9.434-29.527c6.136-3.096,16.592-3.039,22.585,0.219
	c9.77,5.311,18.13,14.163,13.123,22.241c5.453,8.406,9.577,14.763,13.952,21.509c14.175-26.139-12.034-66.033-43.113-68.599
	c-27.95-2.308-46.566,19.173-39.298,46.509c3.784,14.234,9.981,27.809,14.599,41.843c4.414,13.415-1.461,22.826-12.718,29.885
	c-11.758,7.375-20.657,0.635-28.459-6.604C1550.539,421.666,1547.604,414.795,1543.809,409.024z M427.362,305.289
	c-0.196-1.862-0.391-3.723-0.587-5.585c-11.707-0.605-24.288-4.284-34.96-1.251c-34.523,9.812-54.409,53.582-37.164,85.126
	c9.585,17.533,24.223,34.279,40.54,45.751c35.315,24.828,81.847,7.32,94.294-33.954c2.743-9.096-0.901-20.119-1.603-30.254
	c-1.841-0.014-3.681-0.028-5.522-0.042c-5.113,4.735-10.227,9.469-15.34,14.204c1.548,0.542,3.096,1.084,4.644,1.627
	c-1.876,8.911-1.554,19.226-6.14,26.407c-7.023,10.999-18.636,15.734-32.558,11.678c-31.035-9.042-50.279-30.879-61.616-59.468
	c-4.814-12.14-2.545-25.582,8.27-36.171c10.594-10.372,21.318-10.258,32.401-1.759C417.84,315.411,422.601,310.35,427.362,305.289z
	 M1513.647,223.547c-27.224,39.375-53.49,77.364-80.529,116.471c7.134,4.921,13.704,9.453,21.408,14.767
	c27.003-39.215,53.401-77.55,80.228-116.508C1527.285,233.064,1521.52,229.041,1513.647,223.547z M1045.614,1362.118
	c-2.839-1.124-5.678-2.247-8.516-3.371c11.422-26.146,22.845-52.291,34.267-78.437c1.916-11.686,3.036-23.574,5.934-35.011
	c4.442-17.534,10.107-34.758,15.46-52.813c-7.672-1.294-12.572-2.12-16.654-2.808c9.211-33.16,18.155-65.358,27.306-98.304
	c-9.183-1.04-15.946-1.806-22.43-2.54c9.288-33.602,18.148-65.655,27.278-98.682c-8.829-1.879-15.286-3.252-22.798-4.851
	c15.739-24.143,24.797-48.53,21.026-76.296c-8.452-0.469-15.658-0.868-24.07-1.334c15.607-26.28,20.337-52.738,20.078-80.774
	c-9.406-0.472-16.275-0.817-24.417-1.226c8.59-26.913,19.992-52.096,12.174-79.253c-8.834,0-15.599,0-19.725,0
	c3.629-26.348,7.169-52.049,10.79-78.336c-12.382,0-19.412,0-23.022,0c2.202-25.63,4.373-50.901,6.685-77.807
	c-11.329,2.777-17.362,4.256-21.028,5.155c1.831-24.596,3.594-48.268,5.462-73.362c-9.549,0.843-14.887,1.314-20.053,1.77
	c0-20.607,0-39.51,0-59.454c-7.19,1.183-11.288,1.857-15.381,2.53c1.092-7.129,3.545-13.231,2.634-18.779
	c-6.761-41.165-2.46-81.79,4.053-122.502c2.1-13.128,1.744-26.648,2.512-39.989c-1.837-0.201-3.674-0.403-5.512-0.604
	c-21.593,55.193-43.187,110.387-65.18,166.603c-0.393-0.061-4.563-0.704-12.688-1.956c-2.381,21.075-4.592,40.652-6.891,60.998
	c-3.517,0.503-8.545,1.223-15.997,2.289c0,19.933,0,39.11,0,58.942c-6.361,0.398-12.61,0.789-21.489,1.345
	c1.34,20.373,2.601,39.534,3.897,59.237c-4.474,0.315-10.258,0.722-18.816,1.324c1.905,25.911,3.752,51.031,5.68,77.258
	c-4.705-0.437-11.945-1.109-20.077-1.863c-6.42,27.065,5.271,49.467,15.195,73.283c-7.069,0.481-13.359,0.909-22.166,1.508
	c-1.9,26.54,6.8,49.748,18.965,73.007c-8.069,2.169-15.716,4.224-25.85,6.948c9.985,27.663,19.435,53.843,28.781,79.735
	c-5.702,1.188-12.581,2.621-23.967,4.992c10.641,27.699,20.631,53.704,30.913,80.468c-6.228,0.597-12.993,1.246-24.73,2.372
	c11.056,27.58,21.246,53.001,31.653,78.964c-3.443,1.368-7.971,3.167-14.463,5.746c12.339,34.166,24.292,67.262,36.496,101.055
	c-1.044,0.613-5.41,3.177-6.19,3.635c10.822,30.479,19.868,55.958,29.109,81.985c-5.95,1.359-9.233,2.11-11.692,2.672
	c-11.344-24.616-22.169-48.106-32.966-71.537c-4.899,0.838-8.587,1.468-7.035,1.203c-11.377-23.604-21.711-45.044-32.163-66.728
	c-6.287,1.201-10.705,2.045-12.116,2.315c-14.536-24.486-28.252-47.589-41.393-69.726c-8.614,3.309-13.191,5.068-13.863,5.326
	c-12.344-22.548-23.698-43.286-34.988-63.906c-8.413,4.312-12.975,6.65-15.784,8.09c-14.599-21.484-28.375-41.759-42.05-61.884
	c-8.819,3.828-14.19,6.159-16.18,7.022c-13.033-18.397-25.47-35.953-38.057-53.721c-7.615,3.437-11.989,5.412-13.717,6.191
	c-13.092-17.282-24.978-32.972-36.617-48.337c-7.241,4.561-11.029,6.947-12.499,7.874c-13.166-16.521-25.534-32.042-37.919-47.584
	c-6.255,4.111-9.975,6.555-13.819,9.082c-15.207-31.4-31.259-44.589-44.013-37.419C446.566,796.1,410.283,760.478,374,724.855
	c-1.346,1.1-2.692,2.201-4.038,3.301c15.029,29.932,30.057,59.865,45.089,89.795c1.563,3.113,4.88,6.473,4.457,9.278
	c-3.759,24.953,8.297,42.316,26.151,57.231c1.226,1.024,1.791,2.84,2.514,4.04c-4.754,2.773-9.199,5.365-17.911,10.446
	c12.469,15.693,23.854,30.021,35.367,44.511c-2.675,2.239-6.135,5.136-12.948,10.839c13.757,15.099,26.834,29.453,40.04,43.948
	c-2.537,2.67-6.562,6.906-13.515,14.224c19.414,17.872,38.194,35.16,57.198,52.654c-3.131,3.891-7.05,8.76-12.963,16.109
	c19.442,15.955,37.955,31.149,58.168,47.737c-3.203,2.451-8.655,6.622-17.447,13.349c22.017,16.198,41.76,30.723,63.823,46.955
	c-4.493,2.737-10.581,6.445-20.699,12.608c26.297,18.311,48.376,33.685,71.258,49.618c-1.061,2.75-2.866,7.426-5.513,14.285
	c23.496,12.218,46.446,24.151,70.099,36.45c-0.739,1.484-2.483,4.985-5.005,10.05c25.746,15.092,51.171,29.996,77.531,45.448
	c-0.201,1.01-0.828,4.16-1.416,7.114c41.378,23.242,82.016,46.069,124.889,70.151c-72.385-17.26-142.222-14.194-212.1,3.317
	c-17.111,4.257-34.221,8.515-46.864,11.661c-52.895,21.482-100.98,41.011-149.066,60.54c0.523,1.031,1.045,2.061,1.568,3.091
	c57.116,4.722,114.233,9.444,172.956,14.299c7.823,17.122,23.435,1.381,35.505,2.121c14.057,0.862,28.513-4.778,43.002-7.638
	c0.819,3.35,1.892,7.744,3.643,14.909c26.164-7.894,51.175-15.441,75.936-22.911c0.478,1.77,1.793,6.639,4.126,15.275
	c43.35-17.658,84.923-34.592,126.706-51.612c2.934,43.06,6.088,88.086,9.038,133.124c1.869,28.524,3.326,57.076,5.201,85.599
	c0.559,8.501,1.582,17.304,17.543,12.6c-5.601-76.431-11.217-153.055-17.093-233.24c31.235,15.114,58.667,28.388,86.096,41.66
	c1.048-2.7,2.229-5.742,2.83-7.289c19.954,7.725,38.918,15.066,58.364,22.594c2.92-6.878,4.572-10.772,4.599-10.836
	c24.003,6.139,46.391,11.865,69.574,17.795c0.974-7.561,1.481-11.497,1.74-13.511c19.857,2.684,39.039,5.276,58.281,7.877
	c2.075-4.085,3.591-7.069,4.419-8.699c22.181,1.783,43.681,1.999,64.592,5.617c20.87,3.611,41.151,10.631,62.965,16.499
	c-29.63-45.872-148.62-112.442-190.631-108.277c-3.276-3.773-5.901-9.723-9.113-10.059c-58.804-6.142-117.631-10.881-175.375,9.748
	c41.502-26.889,83.004-53.779,127.208-82.419c-0.036,0.797,0.141-3.083,0.228-4.996c24.459-15.255,47.468-29.605,71.214-44.415
	c-2.113-3.485-4.322-7.128-5.766-9.51c26.993-16.059,53.097-31.59,80.03-47.614c-5.662-6.487-9.089-10.414-11.543-13.226
	c23.018-14.551,45.675-28.874,68.389-43.233c-7.419-8.21-12.008-13.289-15.528-17.185c21.302-13.047,41.615-25.488,62.792-38.458
	c-7.198-7.863-11.442-12.499-14.151-15.459c16.955-12.001,33.448-23.675,52.467-37.136c-8.367-6.079-13.064-9.491-15.542-11.291
	c17.713-15.739,34.331-30.506,50.951-45.274c-6.973-6.123-12.039-10.572-15.106-13.265c17.643-16.401,32.883-30.569,48.689-45.262
	c-7.23-5.821-11.229-9.04-13.037-10.495c13.003-12.724,25.461-24.915,38.663-37.834c-7.473-5.26-10.958-7.712-13.363-9.405
	c7.202-8.678,16.179-15.396,19.444-24.225c8.654-23.401,25.9-40.006,41.126-58.384c9.087-10.968,17.591-22.418,29.156-37.238
	c-52.477,30.795-100.224,58.815-150.162,88.12c-22.169-7.776-32.094,14.51-47.674,28.313c-3.607-1.384-7.726-2.964-13.757-5.278
	c-9.26,10.601-18.507,21.186-28.448,32.567c-15.926-10.988-21.633,6.273-29.963,14.043c-9.536,8.894-16.498,20.546-24.886,31.399
	c-3.818-1.742-9.113-4.159-16.221-7.403c-13.277,16.043-26.386,31.884-40.261,48.65c-2.937-1.043-7.764-2.756-15.151-5.378
	c-13.378,20.882-26.655,41.608-40.77,63.641c-2.769-1.17-7.435-3.141-14.615-6.175c-11.245,20.118-22.276,39.855-33.493,59.923
	c-2.804-0.747-7.708-2.053-13.518-3.601c-12.513,23.847-24.518,46.727-37.028,70.568c-2.385-0.635-6.532-1.74-11.984-3.193
	c-10.279,24.759-20.127,48.483-27.707,66.741c-7.662,7.204-11.87,11.161-16.079,15.118
	C1063.318,1308.028,1054.466,1335.073,1045.614,1362.118z M1307.967,257.157c16.333,3.881,29.282,20.772,46.406,9.078
	c6.226-4.252,10.708-16.092,10.232-24.129c-1.184-20.001-19.468-23.894-35.452-31.982
	C1321.698,226.675,1315.24,241.012,1307.967,257.157z M1388.046,190.185c6.563-14.587-1.505-23.266-33.54-35.164
	c-6.069,13.119-12.188,26.343-18.721,40.465C1362.917,211.237,1379.509,209.157,1388.046,190.185z M554.134,221.678
	c3.246,22.09,5.814,39.566,8.676,59.037c13.991-8.231,24.993-14.704,37.57-22.103C585.346,246.605,571.428,235.489,554.134,221.678z
	 M1182.882,175.884c-3.568-20.082-6.601-37.154-10.432-58.721c-12.009,18.455-21.561,33.133-32.961,50.651
	C1155.331,170.76,1168.277,173.168,1182.882,175.884z M1071.364,1280.31c-11.422,26.146-22.845,52.291-34.267,78.437
	c2.839,1.124,5.677,2.247,8.516,3.371c8.852-27.045,17.705-54.09,26.557-81.134
	C1072.171,1280.983,1071.364,1280.31,1071.364,1280.31z"/>
</svg>
