<?xml version="1.0" encoding="iso-8859-1"?>
<!-- Generator: Adobe Illustrator 19.0.0, SVG Export Plug-In . SVG Version: 6.00 Build 0)  -->
<svg version="1.1" id="Layer_1" xmlns="http://www.w3.org/2000/svg" xmlns:xlink="http://www.w3.org/1999/xlink" x="0px" y="0px"
	 viewBox="0 0 500 500" enable-background="new 0 0 500 500" xml:space="preserve">
<path d="M250.626,4.143c135.447,0.169,245.3,110.15,245.133,245.418c-0.167,135.57-110.275,245.496-245.596,245.191
	C114.562,494.447,4.765,384.309,5.144,248.972C5.522,113.571,115.412,3.974,250.626,4.143z M381.058,175.882
	c-3.56-4.467-6.768-8.853-10.341-12.918c-24.642-28.029-55.821-43.637-92.668-48.032c-16.682-1.99-33.283-0.869-49.623,3.244
	c-29.283,7.371-53.84,22.335-72.911,45.874c-14.441,17.823-23.115,38.187-26.375,60.931c-2.003,13.974-1.713,27.868,1.213,41.602
	c7.824,36.721,28.019,65.116,59.16,85.722c19.836,13.125,41.81,20.465,65.502,22.792c13.439,1.32,26.763,0.722,39.994-1.763
	c18.357-3.448,35.412-10.242,50.968-20.616c4.59-3.061,8.916-6.515,13.519-9.903c-11.736-10.704-23.055-21.028-34.408-31.383
	c-0.443,0.27-0.787,0.452-1.1,0.675c-20.196,14.413-42.694,19.888-67.205,16.866c-26.272-3.239-48.278-14.776-64.654-35.706
	c-17.068-21.814-22.931-46.443-14.987-73.392c7.536-25.567,24.781-42.622,49.031-52.783c17.824-7.469,36.39-8.89,55.281-5.198
	c17.774,3.474,33.617,11.089,46.992,23.425c4.141,3.819,7.869,8.085,11.909,12.274C353.625,190.516,367.101,183.327,381.058,175.882
	z"/>
</svg>
