<?xml version="1.0" encoding="utf-8"?>
<!-- Generator: Adobe Illustrator 25.1.0, SVG Export Plug-In . SVG Version: 6.00 Build 0)  -->
<svg version="1.1" id="Layer_1" xmlns="http://www.w3.org/2000/svg" xmlns:xlink="http://www.w3.org/1999/xlink" x="0px" y="0px"
	 viewBox="0 0 500 500" style="enable-background:new 0 0 500 500;" xml:space="preserve">
<path d="M373.1,38.8H126.5L2.7,253.5l123.7,211.9h246.7l124.5-211.9L373.1,38.8z M196.4,343.3c33.1,0,66,0,98.8,0
	c7.6,0,15.2-0.4,22.7,0c19.2,1.2,32.5,15,32.3,33.1c-0.2,18-14.1,31.3-33.6,31.4c-45.4,0.2-90.8,0-136.2,0.2
	c-14.6,0.1-25-6.1-32.2-18.7c-21.3-37.1-42.4-74.3-64.4-111c-10.1-16.9-10.1-32,0.1-48.9c21.5-35.8,42.2-72.1,62.7-108.5
	c7.9-14.1,19.2-21,35.2-20.9c44.1,0.1,88.2-0.1,132.3,0.3c19.3,0.2,30.5,8.7,35,24.5c3.7,13.1-1.1,28.3-13.5,35.1
	c-7.1,3.9-16.1,5.8-24.3,6c-33.2,0.7-66.5,0.3-99.7,0.3c-4.6,0-9.2,0-14.4,0c-2.7,4.2-5,7.4-6.9,10.8
	c-14.8,25.6-29.5,51.3-44.7,77.8C162.5,284.1,179.3,313.4,196.4,343.3z"/>
</svg>
