<?xml version="1.0" encoding="iso-8859-1"?>
<!-- Generator: Adobe Illustrator 19.0.0, SVG Export Plug-In . SVG Version: 6.00 Build 0)  -->
<svg version="1.1" id="Layer_1" xmlns="http://www.w3.org/2000/svg" xmlns:xlink="http://www.w3.org/1999/xlink" x="0px" y="0px"
	 viewBox="0 0 500 500" enable-background="new 0 0 500 500" xml:space="preserve">
<path d="M90.497,414.555c-33.782,8.534-61.448-1.28-78.223-33.436c-11.686-22.401-11.445-50.065,16.857-78.278
	c-12.833-60.404-4.75-118.18,27.234-171.706c21.907-36.662,52.015-65.236,90.292-84.723c27.96-14.234,57.699-22.164,88.919-25.126
	c31.28-2.968,61.502,2.672,90.847,12.165c29.714,9.613,56.401,25.408,79.807,46.814c3.838-0.438,7.533-0.55,11.089-1.312
	c31.878-6.835,62.078,11.198,72.614,41.449c7.856,22.554,3.065,43.155-11.343,61.813c-1.792,2.32-3.534,4.679-4.758,6.303
	c21.374,106.363-9.42,191.571-97.922,254.537C274.383,501.047,179.879,488.296,90.497,414.555z M94.042,402.648
	c37.902,37.285,82.56,59.322,135.734,65.263c53.566,5.985,101.65-7.524,145.646-36.756c36.34-24.145,63.226-56.921,79.475-97.552
	c19.278-48.205,21.415-97.627,7.458-147.876c9.061-9.43,17.798-19.089,20.064-32.74c2.239-13.488,1.747-26.487-5.725-38.53
	c-5.813-9.371-12.81-17.558-23.083-22.136c-16.102-7.175-32.424-7.059-48.705-0.061c-34.793-32.813-75.441-52.578-122.384-59.671
	c-47.58-7.19-92.349,1.655-134.366,23.961c-33.408,17.737-60.764,42.901-80.834,75.067C33.447,185.913,24.93,244.639,39.562,306.67
	c-10.962,9.86-20.194,20.34-22.918,34.885c-2.667,14.236-1.533,27.954,6.527,40.515C38.375,405.768,67.116,414.114,94.042,402.648z
	 M62.807,298.669C40.526,220.124,74.509,117.525,168.99,72.484c80.885-38.56,172.817-12.077,216.314,35.825
	c-11.849,20.08-14.948,41.116-1.822,61.872c12.866,20.345,32.538,27.544,55.639,24.98c25.751,78.41-6.294,176.783-88.511,224.008
	c-99.253,57.01-201.171,12.059-236.797-33.027c11.463-19.562,14.731-40.086,2.36-60.62
	C104.125,305.523,85.052,297.952,62.807,298.669z M228.358,335.583c14.199,0.738,27.261,1.418,41.051,2.135
	c0,7.194,0,14.232,0,21.827c8.699,0,16.638,0,25.314,0c0-10.896,0-21.164,0-31.424c4.115-3.054,7.75-5.751,12.328-9.149
	c0.376,5.007,0.66,8.786,0.997,13.265c10.121,1.197,19.903,1.374,29.63-0.097c0-52.696,0-104.544,0-157.097
	c-10.232,0-19.701,0-29.145,0c-0.841,1.361-1.675,2.71-2.723,4.407c-3.832-3.102-7.223-5.847-11.237-9.096
	c0-10.055,0-20.275,0-30.533c-8.859,0-16.791,0-25.668,0c0,7.974,0,15.218,0,21.973c-13.896,0.574-26.8,1.108-40.56,1.676
	c0-7.444,0-15.211,0-23.643c-9.016,0-17.171,0-26.253,0c0,13.046,0,25.745,0,37.802c-24.556,18.563-37.265,41.958-37.253,72.042
	c0.011,30.398,13.489,53.746,37.617,72.388c0,12.31,0,24.748,0,37.327c8.884,0,16.824,0,25.901,0
	C228.358,350.773,228.358,342.824,228.358,335.583z M428.674,177.982c19.681,0.489,37.043-16.172,37.56-35.876
	c0.45-17.136-13.153-36.878-36.663-37.394c-18.671-0.41-36.816,15.584-36.41,35.726
	C392.635,160.627,408.578,177.482,428.674,177.982z M69.24,316.795c-20.083,0.081-36.515,16.652-36.427,36.894
	c0.082,18.969,15.847,36.372,37.031,36.328c18.34-0.038,36.594-14.488,35.969-36.836C105.742,332.608,89.765,316.713,69.24,316.795z
	 M252.178,192.92c-30.665,0.397-56.443,25.538-56.511,56.527c-0.067,30.689,25.438,56.101,55.484,56.889
	c29.825,0.783,60.781-27.473,56.32-56.239C311.794,219.743,281.453,192.542,252.178,192.92z"/>
</svg>
