<?xml version="1.0" encoding="iso-8859-1"?>
<!-- Generator: Adobe Illustrator 19.0.0, SVG Export Plug-In . SVG Version: 6.00 Build 0)  -->
<svg version="1.1" id="Layer_1" xmlns="http://www.w3.org/2000/svg" xmlns:xlink="http://www.w3.org/1999/xlink" x="0px" y="0px"
	 viewBox="0 0 500 500" enable-background="new 0 0 500 500" xml:space="preserve">
<path d="M260.959,494.424c-6.988,0-13.976,0-20.964,0c-0.932-0.141-1.86-0.363-2.797-0.411c-18.297-0.923-36.296-3.766-53.841-9.013
	c-67.208-20.098-117.213-61.308-149.942-123.272C19.228,334.87,10.957,306.093,7.907,275.85c-0.516-5.117-0.921-10.245-1.378-15.368
	c0-6.67,0-13.341,0-20.011c0.136-0.925,0.295-1.848,0.405-2.777c1.336-11.177,1.903-22.508,4.121-33.506
	C24.349,138.286,59.046,86.375,114.229,48.083c0.552-0.383,1.171-0.67,2.065-1.174c0,1.458,0,2.557,0,3.656
	c0,65.982-0.003,131.964,0.003,197.945c0.001,9.385,0.747,18.696,2.557,27.928c15.102,77.062,93.665,124.893,169.018,102.87
	c69.321-20.261,110.009-91.261,92.617-161.62c-16.324-66.041-82.024-110.182-149.047-100.027
	c-33.266,5.04-60.882,20.453-82.958,45.825c-0.495,0.569-1.021,1.112-1.732,1.884c0-45.477,0-90.604,0-135.664
	c27.78-13.34,57.11-20.086,82.373-22.224c3.624-0.307,7.246-0.636,10.869-0.955c6.988,0,13.976,0,20.964,0
	c0.768,0.136,1.532,0.357,2.304,0.395c22.233,1.111,43.942,5.09,64.976,12.366c58.747,20.321,103.669,57.518,134.646,111.364
	c16.913,29.4,26.811,61.158,30.209,94.92c0.483,4.803,0.889,9.613,1.33,14.42c0,6.988,0,13.976,0,20.964
	c-0.135,0.846-0.296,1.689-0.402,2.539c-1.441,11.559-2.052,23.292-4.442,34.65c-15.226,72.371-55.128,127.194-118.875,164.476
	c-29.349,17.165-61.247,27.003-95.09,30.442C270.733,493.561,265.844,493.973,260.959,494.424z M95.183,117.308
	c-0.819,0.929-1.145,1.273-1.442,1.641c-43.456,53.853-57.774,114.705-41.368,181.808C76.611,399.896,172.975,467.943,279.94,452.84
	c31.616-4.464,60.603-15.925,86.912-34.07c10.09-6.959,19.51-14.741,28.121-23.458c8.481-8.586,4.743-22.616-6.767-25.471
	c-6.199-1.537-11.131,0.771-15.709,5.084c-45.001,42.385-98.172,58.149-158.573,45.749
	C135.979,404.671,80.029,337.939,76.257,258.37c-1.422-29.987,4.646-58.507,17.927-85.471c0.601-1.221,0.952-2.698,0.957-4.058
	c0.065-16.196,0.042-32.393,0.042-48.589C95.183,119.49,95.183,118.729,95.183,117.308z M170.008,95.607
	c1.047-0.505,1.817-0.874,2.585-1.246c39.493-19.149,80.545-23.359,122.992-12.295c29.972,7.812,55.867,22.981,77.916,44.747
	c6.304,6.223,15.921,6.237,21.777,0.227c5.976-6.133,5.846-15.559-0.59-21.732c-5.151-4.941-10.342-9.905-15.967-14.276
	c-52.975-41.17-112.296-53.877-177.596-39.089c-10.679,2.418-21.014,6.013-31.117,10.396
	C170.008,73.353,170.008,84.293,170.008,95.607z M354.294,250.629c0.07-57.222-46.5-103.979-103.603-104.018
	c-57.446-0.039-104.054,46.415-104.079,103.736c-0.025,57.437,46.443,103.995,103.796,103.997
	C307.652,354.345,354.223,307.851,354.294,250.629z"/>
</svg>
