<?xml version="1.0" encoding="iso-8859-1"?>
<!-- Generator: Adobe Illustrator 19.0.0, SVG Export Plug-In . SVG Version: 6.00 Build 0)  -->
<svg version="1.1" id="Layer_1" xmlns="http://www.w3.org/2000/svg" xmlns:xlink="http://www.w3.org/1999/xlink" x="0px" y="0px"
	 viewBox="0 0 2000 2000" style="enable-background:new 0 0 2000 2000;" xml:space="preserve">
<path d="M153.93,1495.03c0-493.262,0-987.606,0-1487.696c9.159,6.826,17.677,11.393,23.883,18.1
	c30.624,33.099,60.314,67.063,90.939,100.161c47.094,50.896,93.196,102.84,142.491,151.532
	c46.39,45.822,96.369,88.011,148.887,135.524c136.113-78.461,284.168-163.805,435.571-251.079
	c147.055,85.006,295.973,171.09,447.331,258.584c131.33-136.261,257.122-278.486,390.56-413.241c2.219,1.545,4.438,3.09,6.658,4.636
	c0,494.896,0,989.793,0,1487.337c-281.069,162.123-563.22,324.871-840.513,484.816
	C714.755,1819.053,436.411,1658.237,153.93,1495.03z M998.425,1314.816c56.044-87.974,113.173-177.651,171.765-269.625
	c-119.67,0-232.294,0-341.69,0C884.108,1133.426,939.356,1221.09,998.425,1314.816z M1712.33,587.589c0-89.205,0-171.301,0-253.397
	c-1.981-1.436-3.963-2.871-5.944-4.307c-50.394,54.253-100.789,108.505-153.683,165.449
	C1607.493,526.999,1657.628,555.974,1712.33,587.589z M428.595,503.742c-2.213-21.089-111.573-141.814-145.123-160.656
	c0,80.343,0,159.863,0,244.749C334.244,558.415,381.661,530.939,428.595,503.742z"/>
</svg>
