<?xml version="1.0" encoding="iso-8859-1"?>
<!-- Generator: Adobe Illustrator 19.0.0, SVG Export Plug-In . SVG Version: 6.00 Build 0)  -->
<svg version="1.1" id="Layer_1" xmlns="http://www.w3.org/2000/svg" xmlns:xlink="http://www.w3.org/1999/xlink" x="0px" y="0px"
	 viewBox="0 0 500 500" style="enable-background:new 0 0 500 500;" xml:space="preserve">
<path d="M216.432,106.561c-1.572,0.878-2.804,1.859-4.206,2.305c-12.648,4.026-24.327,10.035-35.517,17.082
	c-4.74,2.985-4.829,3.034-8.667-0.769c-8.301-8.226-16.562-16.494-24.739-24.843c-1.85-1.889-3.292-4.177-4.753-6.062
	c-43.953,28.947-81.788,88.507-79.359,158.741c2.213,63.974,30.631,114.672,83.012,152.489c8.576-8.534,16.749-16.763,25.046-24.866
	c2.608-2.547,5.297-6.129,8.41-6.695c2.636-0.479,5.936,2.718,8.948,4.277c10.78,5.579,21.832,10.439,33.777,13.013
	c1.474,0.318,2.838,1.145,4.297,1.754c-26.045,25.761-51.825,51.26-77.984,77.133c-19.005-8.67-37.209-20.68-54.137-34.851
	c-19.925-16.681-36.421-36.231-50.038-58.228c-15.11-24.409-25.305-50.712-31.467-78.864c-5.344-24.416-6.128-49.062-4.098-73.507
	c3.861-46.493,20.799-88.554,49.068-125.717c21.597-28.392,48.365-50.982,79.816-67.93c4.875-2.627,4.963-2.668,8.814,1.181
	c23.668,23.658,47.303,47.347,70.936,71.04C214.518,104.169,215.305,105.235,216.432,106.561z M343.532,299.883
	c-2.758,2.345-5.167,4.368-7.548,6.423c-4.406,3.802-8.678,7.771-13.214,11.41c-14.797,11.871-31.77,18.732-50.574,20.552
	c-15.448,1.495-30.655-0.462-45.152-6.179c-22.428-8.844-38.914-24.035-48.215-46.538c-7.591-18.367-8.867-37.408-5.154-56.749
	c5.83-30.367,23.967-51.078,51.543-63.945c13.259-6.187,27.431-6.885,41.856-6.62c13.229,0.244,25.492,3.672,37.276,9.171
	c13.069,6.099,24.399,14.724,34.654,24.822c4.233,4.168,4.546,4.106,8.927-0.043c9.429-8.93,18.859-17.859,28.241-26.839
	c1.273-1.218,2.266-2.728,3.461-4.192c-2.117-2.606-3.769-5.046-5.824-7.079c-3.578-3.539-7.334-6.907-11.137-10.206
	c-28.012-24.306-60.981-36.171-97.659-37.599c-10.719-0.417-21.748,0.857-32.279,3.058c-30.199,6.312-56.388,20.34-77.851,42.854
	c-20.842,21.862-32.292,48.162-35.154,77.814c-1.671,17.314-1.177,34.814,2.599,52.168c6.976,32.061,23.31,58.066,48.831,78.299
	c25.407,20.143,55.091,28.193,86.984,29.024c7.63,0.199,15.292-0.913,22.943-1.359c11.936-0.695,23.398-3.54,34.6-7.557
	c24.466-8.773,44.043-24.631,63.284-43.612C366.85,324.283,355.345,312.244,343.532,299.883z M196.369,488.009
	c11.445,1.797,22.867,4.592,34.368,4.985c19.535,0.668,39.064,0.731,58.6-2.585c24.126-4.096,47.073-11.301,68.893-22.067
	c35.015-17.276,64.234-41.706,87.768-72.87c27.179-35.993,42.896-76.682,47.846-121.306c1.564-14.102,2.491-28.515,0.522-42.831
	c-0.67-4.868-0.795-5.518-5.647-5.551c-14.605-0.1-29.212-0.043-43.818-0.02c-2.399,0.004-4.792,0.156-6.26,2.477
	c0.397,3.201,0.956,6.327,1.147,9.476c0.947,15.671-0.281,31.29-3.367,46.583c-6.248,30.955-19.085,58.934-39.189,83.579
	c-22.284,27.317-49.91,46.868-82.841,59.146c-21.763,8.114-44.407,11.134-67.466,11.74c-3.208,0.084-6.027,0.059-8.668,2.745
	c-14.509,14.756-29.249,29.285-44.407,44.388C195.192,487.055,195.722,487.907,196.369,488.009z M185.655,14.458
	c13.665,13.738,27.387,27.419,41.01,41.199c1.885,1.906,3.88,2.493,6.419,2.239c4.737-0.474,9.5-1.268,14.228-1.124
	c14.016,0.427,28.005,1.401,41.749,4.479c46.317,10.373,83.87,34.399,112.526,72.273c9.968,13.174,18.227,27.336,24.029,42.819
	c1.651,4.404,4.032,6.013,8.808,5.908c14.594-0.32,29.199-0.091,43.8-0.167c1.925-0.01,3.847-0.549,5.878-0.86
	C444.513,45.204,303.275-21.503,184.929,12.465C185.297,13.513,185.33,14.131,185.655,14.458z M264.801,310.159
	c-0.212,0.155-0.413,0.346-0.565,0.559c-1.898,2.652-2.082,6.539-0.432,8.894c1.739,2.483,5.155,3.765,7.662,2.875
	c2.938-1.043,4.306-3.65,4.381-7.646c0.049-2.616-1.101-4.198-2.897-6.084c-3.552-3.731-2.179-8.049,2.602-9.815
	c1.469-0.543,2.973-0.993,4.45-1.517c26.432-9.382,41.711-38.773,33.206-66.976c-5.665-18.785-18.407-31.017-37.091-36.988
	c-5.29-1.69-6.483-4.855-3.255-9.318c0.611-0.844,1.725-1.358,2.23-2.24c2.695-4.703,0.313-10.716-4.388-11.087
	c-2.642-0.209-5.42-0.367-7.142,2.33c-1.619,2.536-1.26,6.982,1.448,9.32c3.254,2.81,2.926,5.7,1.888,8.864c-4.6,0-8.759,0-12.8,0
	c-1.291-4.022-0.71-6.969,2.436-9.521c2.656-2.154,2.157-5.332,1.144-8.099c-1.132-3.093-4.088-2.989-6.766-2.904
	c-4.245,0.134-5.411,1.412-5.541,5.938c-0.076,2.647,0.209,4.851,2.32,7.181c4.149,4.58,2.8,7.636-3.036,9.58
	c-11.521,3.838-21.409,9.92-28.6,20.147c-7.432,10.571-10.941,22.074-10.369,34.941c0.763,17.161,8.051,30.968,21.468,41.48
	c5.416,4.244,11.549,7.251,18.35,8.959c4.174,1.048,5.604,4.216,4.087,7.884c-0.468,1.133-1.761,1.903-2.586,2.913
	c-2.545,3.117-2.296,9.308,0.415,11.301c3.233,2.377,6.432,2.078,9.203-0.858c2.189-2.32,2.643-6.892,0.138-9.365
	c-2.987-2.948-4.283-5.837-2.644-9.67c4.304,0,8.451,0,12.996,0C268.13,304.993,267.815,307.959,264.801,310.159z M296.181,245.744
	c-0.611,19.008-14.602,35.204-35.285,35.372c-20.588,0.167-35.441-15.762-35.922-35.519c-0.466-19.117,16.277-34.589,35.701-34.587
	C280.165,211.011,296.796,226.611,296.181,245.744z"/>
</svg>
