<?xml version="1.0" encoding="iso-8859-1"?>
<!-- Generator: Adobe Illustrator 19.0.0, SVG Export Plug-In . SVG Version: 6.00 Build 0)  -->
<svg version="1.1" id="Layer_1" xmlns="http://www.w3.org/2000/svg" xmlns:xlink="http://www.w3.org/1999/xlink" x="0px" y="0px"
	 viewBox="0 0 500 500" style="enable-background:new 0 0 500 500;" xml:space="preserve">
<path d="M262.018,5c54.682,1.724,112.403,24.375,160.218,71.623c47.992,47.423,71.564,105.737,72.27,171.931
	c0.678,63.505-21.363,120.422-65.017,167.32c-49.416,53.087-111.478,80.009-183.744,78.79
	c-70.338-1.187-130.356-28.763-177.737-81.355C24.052,364.521,2.955,306.408,5.374,241.151C10.092,113.885,111.742,5.97,262.018,5z
	 M248.475,401.019c85.594,1.144,150.369-67.5,151.373-148.641c1.045-84.392-61.085-147.321-139.164-152.319
	c-97.611-6.249-158.321,67.169-162.307,141.302C93.769,327.065,161.564,402.475,248.475,401.019z M377.463,52.276
	c-0.918,0.631-1.421,0.877-1.798,1.251c-3.86,3.821-7.722,7.641-11.541,11.502c-6.286,6.356-6.878,13.548-0.607,19.872
	c18.2,18.354,36.639,36.476,55.188,54.479c5.432,5.272,12.585,6.067,17.605,1.805c5.018-4.26,9.192-9.515,13.56-14.147
	C430.601,95.937,406.998,71.127,377.463,52.276z M122.965,52.275c-2.579,1.425-4.339,2.08-5.713,3.207
	c-9.959,8.17-20.067,16.18-29.692,24.732c-13.597,12.082-24.585,26.421-34.576,41.572c-3.113,4.72-2.709,8.51,1.676,11.973
	c1.038,0.82,2.137,1.598,3.031,2.56c8.233,8.857,15.623,9.046,24.101,0.272c9.042-9.358,17.797-18.994,26.858-28.333
	c8.69-8.957,17.692-17.612,26.393-26.559c3.559-3.66,3.358-12.483-0.044-16.262C131.006,61,126.945,56.623,122.965,52.275z
	 M302.359,19.759c-11.639-1.66-22.898-4.355-34.216-4.628c-17.244-0.417-34.546,0.524-51.791,1.477
	c-17.863,0.987-20.21,4.328-17.023,21.759c1.378,7.538,4.77,10.73,12.475,10.766c26.066,0.12,52.133,0.133,78.198-0.012
	c7.34-0.041,12.131-5.009,12.327-12.177C302.478,31.546,302.359,26.143,302.359,19.759z M478.1,303.996
	c8.024-34.597,7.853-68.366,1.646-102.183c-1.495-0.522-2.707-1.099-3.984-1.367c-14.261-2.991-27.872-0.773-26.479,18.939
	c0.917,12.971,1.085,26,1.384,39.007c0.262,11.392,0.14,22.793,0.375,34.186c0.16,7.769,3.636,11.161,11.421,11.391
	C467.321,304.112,472.188,303.996,478.1,303.996z M21.287,306.633c3.524,0.407,5.439,0.416,7.243,0.87
	c12.711,3.203,20.726-2.688,20.616-15.559c-0.215-25.015-0.696-50.028-0.904-75.044c-0.067-8.071-3.317-12.446-13.55-13.828
	c-3.599-0.486-7.577,0.235-11.092,1.333c-2.077,0.649-4.874,2.931-5.139,4.793c-1.556,10.913-3.066,21.9-3.405,32.898
	c-0.306,9.964,0.537,20.011,1.544,29.954C17.757,283.47,19.651,294.814,21.287,306.633z M302.424,478.761
	c0-6.338,0.156-11.495-0.04-16.64c-0.236-6.189-5.16-11.049-11.463-11.072c-26.673-0.095-53.35-0.228-80.017,0.193
	c-3.403,0.054-7.411,2.616-10.004,5.169c-6.689,6.586,0.098,14.356-1.036,21.546c4.196,1.358,8.358,2.836,12.605,4.011
	c1.523,0.422,3.305-0.155,4.871,0.181c19.59,4.197,39.334,3.233,59.021,1.381C284.857,482.731,293.218,480.493,302.424,478.761z
	 M375.594,448.237c29.467-18.795,53.157-42.583,71.688-71.309c-2.144-2.848-4.29-5.574-6.302-8.395
	c-6.389-8.958-14.254-10.016-22.499-2.226c-10.752,10.159-21.089,20.759-31.543,31.231c-7.441,7.454-14.803,14.989-22.159,22.528
	c-5.577,5.715-6.135,15.065-0.903,19.629C367.283,442.666,371.19,445.063,375.594,448.237z M130.964,452.392
	c3.774-3.327,7.347-6.073,10.424-9.293c3.904-4.086,2.659-11.924-2.886-17.532c-5.868-5.935-12.173-11.434-18.136-17.279
	c-11.911-11.675-23.643-23.533-35.596-35.164c-7.775-7.565-17.111-7.229-22.296,0.627c-2.031,3.077-3.69,6.399-5.464,9.514
	C73.153,408.03,96.241,431.843,130.964,452.392z M387.302,250.082c0.274,76.512-62.123,140.896-143.255,138.83
	c-67.451-1.718-138.952-60.156-132.773-149.059c4.81-69.206,61.234-128.316,138.001-128.116
	C325.496,111.937,386.641,171.718,387.302,250.082z M260.027,303.991c15.825,0,30.541,0.585,45.189-0.173
	c13.255-0.685,24.529-6.333,30.985-18.602c4.563-8.67,6.641-18.299,5.22-28.043c-1.762-12.085-5.221-23.894-17.263-29.895
	c-5.322-2.652-11.533-4.181-17.482-4.754c-8.222-0.792-16.578-0.199-25.684-0.199c0-16.602,0-31.709,0-46.851
	c-17.855,0-34.846,0-51.812,0c-0.347,11.256,5.255,17.314,15.699,17.439c4.809,0.058,9.618,0.01,14.442,0.01
	c0,10.318,0,19.667,0,29.538c-5.397,0-10.225,0-14.978,0c-1.277,10.665,2.42,15.126,15.683,19.026
	C260.027,261.918,260.027,282.521,260.027,303.991z M238.454,304.72c0-6.918,0-12.421,0-17.703c-0.988-0.437-1.462-0.827-1.938-0.83
	c-11.975-0.077-24.014-0.917-35.909,0.037c-16.591,1.33-24.123-14.768-22.088-27.878c1.285-8.281,4.315-15.834,13.807-17.671
	c5.773-1.117,11.702-1.751,17.581-1.933c10.995-0.341,16.606-4.985,18.392-16.403c-12.843,0-25.661-0.65-38.376,0.219
	c-9.091,0.622-17.076,4.543-23.506,11.932c-9.381,10.781-10.986,23.503-9.096,36.357c2.322,15.798,11.568,29.695,29.549,31.413
	C203.759,303.872,220.797,303.941,238.454,304.72z M302.404,285.868c3.319-0.246,6.839-1.525,9.721-3.25
	c9.086-5.441,9.544-33.271,0.409-38.833c-9.498-5.783-20.028-6.419-31.073-4.068c0,15.473,0,30.338,0,46.299
	C288.915,286.017,295.691,286.366,302.404,285.868z"/>
</svg>
