<?xml version="1.0" encoding="iso-8859-1"?>
<!-- Generator: Adobe Illustrator 19.0.0, SVG Export Plug-In . SVG Version: 6.00 Build 0)  -->
<svg version="1.1" id="Layer_1" xmlns="http://www.w3.org/2000/svg" xmlns:xlink="http://www.w3.org/1999/xlink" x="0px" y="0px"
	 viewBox="0 0 500 500" enable-background="new 0 0 500 500" xml:space="preserve">
<path d="M5.29,345.204c0-62.61,0-124.967,0-187.583c54.034-31.203,108.095-62.422,162.311-93.73
	c54.075,31.218,108.046,62.376,162.129,93.598c0,62.378,0,124.728,0,187.663c-21.305-12.297-42.347-24.443-63.52-36.664
	c0-38.142,0-76.171,0-114.327c-32.921-19.008-65.717-37.944-98.587-56.922c-33.006,19.054-65.81,37.992-98.651,56.951
	c0,38.089,0,75.989,0,114.129c53.936,31.153,107.854,62.295,162.383,93.789c-21.554,12.452-42.589,24.604-63.727,36.815
	C113.464,407.654,59.517,376.51,5.29,345.204z M494.019,345.038c0-62.64,0-125.001,0-187.559
	c-54.129-31.25-108.252-62.498-162.363-93.737c-21.282,12.294-42.241,24.402-63.729,36.815
	c54.598,31.536,108.602,62.728,162.322,93.757c0,38.391,0,76.299,0,114.209c-32.974,19.032-65.775,37.965-98.577,56.899
	c-32.979-19.036-65.695-37.919-98.562-56.89c0-38.123,0-76.147,0-114.333c-21.175-12.217-42.225-24.361-63.555-36.668
	c0,62.951,0,125.301,0,187.637c54.097,31.238,108.064,62.402,162.107,93.609C385.895,407.465,439.963,376.248,494.019,345.038z"/>
</svg>
