<?xml version="1.0" encoding="iso-8859-1"?>
<!-- Generator: Adobe Illustrator 19.0.0, SVG Export Plug-In . SVG Version: 6.00 Build 0)  -->
<svg version="1.1" id="Layer_1" xmlns="http://www.w3.org/2000/svg" xmlns:xlink="http://www.w3.org/1999/xlink" x="0px" y="0px"
	 viewBox="0 0 2000 2000" style="enable-background:new 0 0 2000 2000;" xml:space="preserve">
<path d="M1134.317,121.697c22.158-40.605,42.115-77.174,63.105-115.639c18.219,3.014,34.943,4.144,50.706,8.644
	c140.218,40.031,263.986,108.887,366.549,213.41c79.457,80.975,136.614,175.915,167.781,285.085
	c24.253,84.95,27.121,172.823,13.722,259.217c-19.07,122.959-72.505,231.57-156.269,324.456
	c-19.212,21.304-38.716,42.345-59.029,64.538c27.54,51.01,52.583,101.111,80.98,149.233
	c62.294,105.56,32.641,221.931-64.079,289.527c-68.253,47.7-137.931,93.372-207.256,139.524
	c-83.679,55.708-167.645,110.987-251.512,166.411c-29.969,19.805-60.912,38.276-89.781,59.565
	c-30.99,22.854-60.181,22.351-91.398,1.508c-102.703-68.577-205.882-136.441-308.52-205.114
	c-88.119-58.959-177.756-115.935-262.948-178.894c-66.547-49.18-89.74-122.536-73.333-201.737
	c8.587-41.45,35.428-79.287,55.075-118.227c16.928-33.551,35.344-66.352,53.569-100.355c-30.38-35.387-62.52-69.075-90.372-105.998
	c-72.063-95.533-118.008-201.353-127.295-322.656c-5.72-74.716-2.402-148.287,17.267-219.918
	c28.559-104.007,82.291-194.772,155.904-273.899c84.598-90.934,186.592-155.821,301.536-200.37
	C719.177,24.328,762.161,15.165,804.079,3c22.682,41.083,42.424,76.843,64.498,116.824c-11.727,6.894-21.859,14.528-33.202,19.253
	c-89.866,37.434-158.741,96.471-193.199,189.681c-34.959,94.567-17.803,182.279,43.851,259.89
	c23.613,29.724,54.841,53.71,84.071,78.58c33.416,28.431,40.864,53.821,20.544,92.495c-39.91,75.957-80.635,151.49-121.543,226.917
	c-49.99,92.172-100.547,184.038-150.794,276.071c-23.799,43.59-47.333,87.325-71.21,130.872
	c-13.45,24.531-8.237,62.958,17.391,83.705c34.643,28.045,71.955,52.926,109.043,77.792
	c116.469,78.09,233.349,155.567,350.122,233.203c18.915,12.576,38.374,24.349,57.064,37.243
	c14.765,10.186,27.14,10.284,42.886-0.305c154.919-104.185,310.524-207.35,465.494-311.462
	c21.466-14.421,42.687-30.402,60.223-49.203c28.05-30.073,13.58-61.659-2.854-91.928c-72.119-132.833-144.1-265.741-216.343-398.506
	c-40.493-74.416-81.45-148.578-122.091-222.914c-14.318-26.189-5.552-60.757,22.875-81.119
	c48.506-34.744,91.284-74.185,117.28-129.169c45.379-95.981,39.002-188.627-19.919-276.65
	c-41.339-61.758-100.412-101.615-168.44-129.279C1152.835,132.149,1146.366,128.03,1134.317,121.697z M516.431,288.34
	c-235.658,194.007-244.551,541.844-25.864,745.134c53.099-97.075,105.614-193.082,159.108-290.879
	C513.373,618.677,467.218,469.179,516.431,288.34z M1354.323,743.718c52.921,96.614,105.733,193.031,159.367,290.946
	c237.404-228.765,184.586-583.523-28.025-745.182C1542.208,470.437,1485.214,615.225,1354.323,743.718z"/>
</svg>
