<?xml version="1.0" encoding="iso-8859-1"?>
<!-- Generator: Adobe Illustrator 19.0.0, SVG Export Plug-In . SVG Version: 6.00 Build 0)  -->
<svg version="1.1" id="Layer_1" xmlns="http://www.w3.org/2000/svg" xmlns:xlink="http://www.w3.org/1999/xlink" x="0px" y="0px"
	 viewBox="0 0 2000 2000" style="enable-background:new 0 0 2000 2000;" xml:space="preserve">
<path d="M1859.364,1494.261c-280.101,160.708-563.578,323.353-852.754,489.267c-281.857-162.027-564.92-324.747-847.594-487.244
	c0-331.94,0-656.63,0-991.325c278.156-160.08,558.958-321.682,846.713-487.286c284.604,162.759,568.662,325.206,853.635,488.177
	C1859.364,835.445,1859.364,1159.937,1859.364,1494.261z M308.836,1410.319c235.728,135.164,467.459,268.036,700.232,401.505
	c235.87-136.143,467.29-269.717,697.646-402.677c0-277.661,0-549.149,0-825.316c-233.344-133.586-465.529-266.508-698.867-400.09
	c-237.285,135.848-469.492,268.789-699.01,400.19C308.836,862.113,308.836,1130.848,308.836,1410.319z M469.065,684.346
	c0,217.661,0,423.328,0,632.025c184.72,104.872,367.983,208.917,549.633,312.046c180.877-105.592,355.054-207.272,528.21-308.357
	c0-38.919,0-71.458,0-108.985c-29.918-13.444-58.732-26.391-84.03-37.759c-152.776,83.622-297.789,162.994-441.025,241.394
	c-130.183-75.624-252.723-146.808-369.922-214.89c0-142.573,0-274.705,0-410.909c119.061-67.491,236.845-134.259,355.054-201.267
	c152.613,87.282,301.75,172.576,453.196,259.191c30.748-18.799,60.833-37.192,85.394-52.208c0-43.686,0-76.277,0-113.391
	c-176.721-101.219-352.078-201.656-536.914-307.524C824.138,479.938,643.766,583.774,469.065,684.346z"/>
</svg>
