<?xml version="1.0" encoding="iso-8859-1"?>
<!-- Generator: Adobe Illustrator 19.0.0, SVG Export Plug-In . SVG Version: 6.00 Build 0)  -->
<svg version="1.1" id="Layer_1" xmlns="http://www.w3.org/2000/svg" xmlns:xlink="http://www.w3.org/1999/xlink" x="0px" y="0px"
	 viewBox="0 0 2000 2000" style="enable-background:new 0 0 2000 2000;" xml:space="preserve">
<path d="M1020.002,1973.599c0-38.926,0-75.559,0-115.459c12.086-1.862,24.443-4.706,36.935-5.551
	c196.484-13.284,368.337-85.882,514.694-216.945c149.19-133.6,239.868-300.703,273.478-497.837
	c23.17-135.899,12.111-270.061-29.392-401.619c-0.955-3.029-1.434-6.208-2.736-11.985c17.003-9.628,34.467-19.517,51.279-29.037
	c2.562-21.459-7.584-34.79-21.006-49.83c-25.621,11.061-50.973,22.005-76.324,32.949c-0.77-1.153-1.54-2.306-2.309-3.459
	c21.498-18.208,42.996-36.416,63.99-54.196c-1.89-30.688-16.404-53.453-31.073-79.892c-8.712,0.858-18.953-0.523-26.978,3.06
	c-39.588,17.675-78.686,36.465-117.687,55.417c-5.444,2.645-9.395,8.362-15.87,14.351c5.801,12.868,11.428,25.348,17.77,39.415
	c35.365,1.525,59.746-25.438,92.594-28.809c-23.726,19.31-47.453,38.621-72.422,58.943c3.867,30.708,18.039,55.288,33.548,78.167
	c27.313,5.474,44.13-16.395,66.281-18.834c72.219,169.559,67.905,463.639-83.507,697.372
	c-167.616,258.747-445.384,379.227-672.336,376.148c0-32.031-1.144-64.294,0.322-96.439c1.458-31.977-5.849-64.967,9.225-99.276
	c11.112-0.773,22.775-3.591,33.819-2.03c78.337,11.074,156.552,23.012,234.795,34.746c34.113,5.116,68.2,10.402,99.707,15.215
	c18.644-9.3,15.149-22.822,12.339-35.485c-7.043-31.732-14.695-63.328-22.071-94.987c-0.732-3.142-1.243-6.335-1.749-8.952
	c2.609-16.888,13.134-27.001,25.586-36.645c103.81-80.399,207.371-161.12,310.879-241.907c9.135-7.13,17.361-15.425,24.424-21.759
	c-0.469-15.094-8.874-20.216-17.468-24.971c-12.343-6.831-24.823-13.417-37.281-20.038c-11.788-6.266-22.21-13.785-27.267-32.201
	c19.138-73.03,39.36-150.2,58.92-224.845c-12.66-19.378-27.644-13.214-40.677-10.59c-41.404,8.336-82.566,17.865-123.834,26.877
	c-12.684,2.77-25.407,5.359-38.887,8.193c-17.642-2.543-27.512-13.721-32.325-31.152c-3.743-13.557-7.902-27.194-13.816-39.892
	c-4.213-9.045-11.648-16.588-19.857-27.829c-28.203,24.528-53.419,46.389-78.557,68.34c-32.7,28.555-65.226,57.31-98.098,85.664
	c-6.212,5.358-13.691,9.247-19.231,12.917c-16.445-7.283-13.415-19.186-11.953-29.452c5.041-35.4,10.729-70.712,16.491-106.005
	c13.962-85.52,28.19-170.997,42.022-256.538c1.161-7.179,0.153-14.709,0.153-20.571c-11.624-11.647-21.42-6.232-31.213-1.232
	c-22.214,11.34-44.359,22.818-66.665,33.974c-11.504,5.754-23.293,10.94-31.799,14.91c-21.326-3.455-28.835-16.212-36.311-29.951
	c-37.33-68.599-75.069-136.977-112.781-205.368c-5.113-9.272-10.884-18.182-15.177-25.311c-19.422-3.209-23.731,9.524-29.414,19.54
	c-25.161,44.349-49.964,88.901-74.879,133.389c-14.841,26.5-29.72,52.978-44.443,79.543c-7.465,13.469-15.288,26.446-35.123,32.562
	c-13.816-6.234-30.534-13.493-47.003-21.28c-21.578-10.204-42.894-20.962-64.453-31.206c-10.318-4.902-10.455-4.615-30.018,2.395
	c10.355,68.582,25.89,136.947,39.553,205.654c13.512,67.95,26.391,136.026,39.753,205.109c-4.164,4.476-8.32,8.944-13.317,14.315
	c-5.845-3.257-11.135-4.989-14.81-8.44c-41.146-38.643-81.912-77.693-123.068-116.326c-18.826-17.672-36.04-37.315-60.949-53.691
	c-7.606,8.483-15.558,15.241-20.795,23.684c-7.982,12.868-13.095,27.541-21.294,40.242c-6.751,10.459-16.215,19.168-24.222,28.361
	c-50.303-8.401-97.213-16.255-144.13-24.06c-13.885-2.31-27.733-5.338-41.718-6.302c-5.556-0.383-11.437,3.943-20.18,7.271
	c2.359,12.525,3.664,24.099,6.77,35.167c17.278,61.557,34.994,122.992,51.623,181.19c-1.665,19.27-11.604,28.719-23.99,36.593
	c-12.817,8.148-25.722,16.219-37.995,25.14c-7.567,5.5-14.023,12.528-20.188,18.149c3.883,21.188,19.863,28.625,32.026,38.449
	c65.86,53.192,132.297,105.671,198.531,158.401c33.96,27.036,68.028,53.939,101.803,81.203
	c10.919,8.814,21.064,18.588,29.583,26.162c7.107,16.778,3.997,29.975-0.856,43.77c-11.481,32.631-21.87,65.646-32.844,98.94
	c3.89,4.747,7.247,8.843,12.399,15.13c118.179-22.853,237.055-45.841,350.962-67.868c16.728,6.07,24.684,13.407,24.755,25.648
	c0.341,58.356,0.153,116.714,0.153,174.955c-199.879,3.51-462.166-97.149-635.956-331.669
	c-172.431-232.687-191.901-529.699-118.619-729.837c9.984,3.04,19.949,6.689,30.208,9.075c23.483,5.461,43.069-1.779,57.851-20.54
	c15.03-19.076,24.695-40.951,27.9-65.001c4.371-32.803-2.826-44.823-35.052-62.127c-20.622,8.918-21.578,29.77-30.757,50.833
	c9.023,5.727,18.165,11.53,27.332,17.349c-4.235,9.728-6.675,15.332-10.53,24.186c-36.406-9.723-69.38-23.819-102.29-42.079
	c1.082-7.601,1.918-13.477,2.9-20.376c10.779-0.984,20.056-1.831,32.546-2.971c6.476-15.032,13.104-30.417,19.312-44.829
	c-24.533-21.535-47.229-20.159-65.7,3.105c-22.237,28.006-35.747,59.403-31.35,102.137c9.426,9.571,22.029,22.368,37.669,38.249
	c-0.578,4.09-0.686,12.715-3.088,20.645c-22.182,73.231-32.459,148.573-33.844,224.552c-1.366,74.921,8.279,149.236,26.668,222.215
	c38.002,150.812,111.569,282.149,220.78,392.153c124.745,125.652,274.408,207.022,449.55,238.786
	c32.988,5.983,66.497,9.086,99.765,13.526c10.672,1.425,21.341,2.879,33.44,4.513c0,38.96,0,76.591,0,114.229
	c-364.581,10.887-864.437-275.955-941.488-842.673C-47.45,558.477,373.175,58.626,935.35,22.158
	c581.542-37.723,1062.048,431.809,1041.101,1011.669C1956.397,1588.939,1490.621,1973.856,1020.002,1973.599z M444.906,379.151
	c9.144,5.073,18.327,10.078,27.424,15.235c17.583,9.968,30.498,27.864,51.121,31.399c35.759-20.371,52.183-36.481,61.234-59.598
	c-22.781-39.801-89.666-114.35-114.093-124.965c-10.126,9.795-21.221,20.528-33.457,32.365
	c19.233,24.199,36.158,45.495,53.083,66.791c-1.029,0.755-2.058,1.51-3.087,2.265c-24.736-16.67-49.471-33.341-75.535-50.906
	c-22.779,22.16-50.456,34.394-64.336,63.074c7.34,9.818,13.451,18.627,20.203,26.914c25.937,31.834,52.078,63.501,78.144,95.23
	c-27.611-9.04-55.227-18.062-82.83-27.125c-26.396-8.667-51.39-22.183-78.936-25.202c-20.142,19.974-35.864,40.153-46.69,66.257
	c36.17,45.791,69.852,93.162,111.36,137.298c17.477-14.403,27.051-30.857,36.689-47.752c-4.568-9.462-8.722-18.065-13.403-27.76
	c6.032-7.96,11.757-15.515,16.533-21.819c11.761,1.506,21.177,2.712,31.206,3.997c10.981-15.032,21.123-28.915,30.828-42.199
	c-2.364-6.689-4.139-11.708-5.913-16.727c23.289,7.614,35.497-7.426,50.416-25.134c-5.831-9.556-11.247-19.488-17.671-28.719
	c-10.244-14.718-21.158-28.97-31.789-43.419C445.406,378.653,444.906,379.151,444.906,379.151z M763.957,284.072
	c23.044,2.306,86.843-10.196,111.928-20.933c13.243-5.669,25.117-12.631,30.985-27.679c4.464-34.817-9.044-67.477-17.632-100.571
	c-9.466-36.479-31.377-48.362-68.666-40.572c-28.422,5.937-56.563,13.216-83.349,19.548c-10.14,9.607-10.902,18.934-7.949,30.705
	c8.913,35.529,16.259,71.449,24.686,107.105C756.627,262.958,760.773,273.89,763.957,284.072z M1579.026,301.428
	c-45.18,17.045-74.848,51.952-99.049,92.278c-9.675,16.122-8.869,34.659,3.363,48.801c15.372,17.771,32.215,34.939,50.988,48.923
	c21.523,16.032,45.709,14.079,65.317-4.59c21.083-20.074,41.587-41.137,59.61-63.929c16.7-21.119,15.066-43.881-1.262-65.954
	C1638.99,331.264,1616.064,310.38,1579.026,301.428z M979.96,257.159c7.133-11.928,11.981-20.036,16.796-28.087
	c9.999,0.454,18.571,0.843,27.308,1.24c4.955,8.997,9.491,17.234,13.865,25.176c19.415,1.695,37.18,10.281,58.546-1.43
	c-7.504-57.267-27.415-111.737-41.671-168.149c-28.189-9.473-54.558-6.489-79.435-4.338
	c-17.263,31.933-50.155,144.319-50.123,172.443C942.833,255.025,960.66,256.049,979.96,257.159z M640.547,158.292
	c-35.836,6.036-62.799,21.395-76.305,42.528c11.543,54.134,17.27,110.101,33.711,164.994c22.205-3.963,39.137-12.168,54.104-24.859
	c0.932-10.263,1.795-19.766,2.721-29.969c8.393-4.003,16.025-7.643,23.196-11.062c9.275,5.655,17.349,10.577,27.185,16.574
	c15.32-7.141,30.653-14.288,52.375-24.414C720.802,242.122,679.574,201.784,640.547,158.292z M1500.537,301.88
	c23.038-24.644,24.842-41.408,7.914-62.663c-19.494-24.476-45.07-40.227-75.543-47.306c-20.8-4.832-40.157,0.469-52.09,17.946
	c-17.005,24.905-32.118,51.26-46.072,78.022c-7.105,13.626-6.558,29.479,0.756,43.934c15.108,29.859,64.081,57.474,97.38,54.942
	c21.532-1.638,36.512-11.208,41.429-34.008c-12.32-15.711-27.338-24.685-46.748-28.173c-7.723,5.745-15.212,11.315-24.028,17.872
	c-6.432-4.449-12.066-8.345-18.988-13.132c17.471-33.969,33.709-66.284,58.081-95.535c7.529,4.846,12.646,8.139,18.244,11.742
	c-1.444,9.38-2.711,17.613-4.488,29.16C1470.59,283.431,1484.901,292.248,1500.537,301.88z M1258.363,232.196
	c23.162,1.466,41.176,18.888,64.561,5.004c0.598-6.826,1.293-14.749,2.117-24.149c-18.307-7.679-34.857-14.62-53.226-22.324
	c3.12-7.537,5.777-13.957,8.16-19.714c23.594-2.453,41.885,18.656,68.215,6.89c1.201-7.867,2.695-17.659,4.562-29.893
	c-39.267-13.045-75.79-25.178-115.041-38.217c-5.981,9.012-13.554,16.078-15.823,24.562c-12.64,47.263-36.828,91.507-41.238,144.192
	c40.458,11.752,76.415,28.594,118.779,35.632c5.158-9.894,9.732-18.668,13.393-25.69c-14.004-26.632-43.438-19.605-60.305-36.617
	C1254.382,245.599,1256.135,239.699,1258.363,232.196z M1620.556,589.929c48.89-29.875,89.957-64.96,132.466-94.744
	c6.496-25.043-10.945-35.707-23.053-53.011c-9.907,3.892-20.349,6.142-28.724,11.577c-68.537,44.475-101.238,72.151-112.082,95.85
	C1598.275,561.307,1608.554,574.512,1620.556,589.929z M439.057,371.801c-0.96-0.428-1.919-0.856-2.879-1.284
	c0.62,0.77,1.24,1.541,1.859,2.311L439.057,371.801z M438.038,372.828c2.29,2.108,4.579,4.215,6.869,6.323l0.5-0.498
	c-2.116-2.284-4.233-4.568-6.349-6.852L438.038,372.828z M794.872,139.083c8.253,34.421,15.837,66.049,23.997,100.084
	c10.019-4.342,16.428-7.12,26.051-11.291c-6.558-30.072-12.862-58.978-19.364-88.793
	C814.693,139.083,806.802,139.083,794.872,139.083z M1606.457,385.245c3.346-3.666,4.938-9.347,6.141-14.384
	c0.631-2.642-1.338-5.905-2.657-10.857c-5.961-0.372-11.949-0.746-17.805-1.111c-22.594,24.29-44.404,47.736-68.891,74.061
	c9.854,6.269,16.177,10.292,23.958,15.243C1568.286,425.924,1587.657,405.845,1606.457,385.245z M306.24,491.891
	c13.381,12.703,23.967,22.752,36.991,35.115c4.525-4.952,7.262-7.947,13.223-14.47C337.918,504.154,327.282,491.312,306.24,491.891z
	 M1007.497,143.253c0.453,18.731-8.779,33.633,5.566,46.575C1019.655,174.688,1021.572,160.122,1007.497,143.253z M632.317,230.972
	c-2.005,1.098-4.01,2.196-6.015,3.293c4.906,13.434,9.813,26.869,15.495,42.43c6.137-4.672,9.278-7.062,14.667-11.164
	C647.965,253.367,640.141,242.169,632.317,230.972z"/>
</svg>
