<?xml version="1.0" encoding="iso-8859-1"?>
<!-- Generator: Adobe Illustrator 19.0.0, SVG Export Plug-In . SVG Version: 6.00 Build 0)  -->
<svg version="1.1" id="Layer_1" xmlns="http://www.w3.org/2000/svg" xmlns:xlink="http://www.w3.org/1999/xlink" x="0px" y="0px"
	 viewBox="0 0 500 500" enable-background="new 0 0 500 500" xml:space="preserve">
<path d="M331.23,43.477c-14.135,8.214-26.81,15.58-39.649,23.041c-5.095-2.879-10.529-5.009-14.813-8.535
	c-16.688-13.734-31.846-11.764-49.731-0.291c-30.815,19.768-63.303,36.921-94.919,55.462c-3.959,2.322-6.885,6.403-10.289,9.67
	c3.666,3.446,6.838,7.74,11.074,10.208c52.335,30.493,104.825,60.72,158.18,91.538c1.694,66.405-1.635,133.266,2.248,203.291
	c32.008-18.436,59.643-34.379,87.306-50.273c10.699-6.147,21.323-12.447,32.232-18.203c11.851-6.254,17.965-15.103,16.544-29.045
	c-0.844-8.278-0.154-16.712-0.154-26.006c12.024-7.026,24.256-14.175,37.919-22.159c0,27.462,1.455,53.461-0.854,79.123
	c-0.728,8.093-10.056,17.774-17.973,22.482c-58.736,34.926-118.064,68.857-177.359,102.835c-4.966,2.846-11.047,3.745-18.251,6.081
	c0-82.712,0-163.474,0-244.246c-70.951-40.944-141.028-81.382-215.021-124.081c15.333-9.91,28.311-19.044,41.975-26.997
	c50.135-29.179,100.544-57.884,150.746-86.949c14.613-8.46,28.677-8.674,43.304,0.04C292.316,21.526,311.226,32.024,331.23,43.477z
	 M35.192,342.813c-0.184,21.104,8.231,35.114,26.561,45.323c38.686,21.545,76.771,44.168,115.133,66.295
	c17.992,10.378,36.056,20.631,55.241,31.6c0-16.317,0-30.619,0-45.134c-2.086-1.376-3.953-2.747-5.945-3.902
	c-46.135-26.755-92.537-53.069-138.133-80.713c-6.211-3.766-11.789-14.097-11.921-21.491c-0.99-55.527-0.539-111.08-0.539-166.675
	c-13.062-7.39-25.682-14.53-40.19-22.739C35.398,212.954,35.758,277.888,35.192,342.813z M466.956,139.429
	c-0.388-9.001-8.066-20.847-15.913-25.815c-32.903-20.831-67.145-39.547-101.028-59.113c-12.787,7.566-25.276,14.956-39.213,23.202
	c32.567,18.733,63.231,36.812,94.339,54.093c17.505,9.724,24.325,24.306,24.187,43.576c-0.25,34.951-0.071,69.905-0.071,106.687
	c13.713-7.938,25.734-14.896,38.44-22.252C467.698,219.064,468.672,179.189,466.956,139.429z"/>
</svg>
