<?xml version="1.0" encoding="iso-8859-1"?>
<!-- Generator: Adobe Illustrator 19.0.0, SVG Export Plug-In . SVG Version: 6.00 Build 0)  -->
<svg version="1.1" id="Layer_1" xmlns="http://www.w3.org/2000/svg" xmlns:xlink="http://www.w3.org/1999/xlink" x="0px" y="0px"
	 viewBox="0 0 500 500" style="enable-background:new 0 0 500 500;" xml:space="preserve">
<path d="M6,242.25c62.076-65.714,122.801-129.998,182.751-193.461c75.828,0,150.292,0,226.944,0
	C314.766,162.658,215.11,275.091,115.454,387.524c0.78,0.928,1.56,1.856,2.34,2.785c3.46-2.297,7.115-4.349,10.35-6.929
	c30.607-24.408,61.147-48.9,91.697-73.38c12.995-10.413,26.785-20.006,38.72-31.52c12.322-11.889,26.358-14.759,42.514-14.572
	c33.691,0.389,67.391-0.064,101.087-0.111c31.218-0.044,62.436-0.009,90.49-0.009c-59.198,59.687-120.556,121.552-182.599,184.108
	c-78.098,0-157.668,0-238.007,0C49.957,379.12,27.912,310.476,6,242.25z"/>
</svg>
