<?xml version="1.0" encoding="utf-8"?>
<!-- Generator: Adobe Illustrator 24.2.0, SVG Export Plug-In . SVG Version: 6.00 Build 0)  -->
<svg version="1.1" id="CEL" xmlns="http://www.w3.org/2000/svg" xmlns:xlink="http://www.w3.org/1999/xlink" x="0px" y="0px"
	 viewBox="0 0 500 500" style="enable-background:new 0 0 500 500;" xml:space="preserve">
<path d="M249.7,499C112.3,499,1,387.4,1,249.7S112.3,0.4,249.7,0.4S498.4,112,498.4,249.7C498.2,387.3,387,498.8,249.7,499z
	 M249.7,23.3c-124.8,0-225.9,101.4-225.9,226.5S125,476.3,249.7,476.3s225.9-101.4,225.9-226.5C475.5,124.7,374.4,23.4,249.7,23.3z"
	/>
<path d="M249.7,396.2c-65.3,0-122.7-43.4-140.6-106.3s7.9-130.2,63.4-164.7s127-28.1,175.4,15.9c3.4,2.6,5,6.9,4.2,11.2
	c-0.8,4.2-3.9,7.6-8,8.8s-8.5,0-11.5-3.1c-49.3-44.8-125.2-42.3-171.5,5.7s-46.3,124.1,0,172s122.2,50.5,171.5,5.7
	c3-3.1,7.4-4.3,11.5-3.1c4.1,1.2,7.2,4.6,8,8.8c0.8,4.2-0.8,8.5-4.2,11.2C321,382.7,286,396.3,249.7,396.2z"/>
<path d="M376.1,169.6c-11.8,0-21.3,9.6-21.3,21.4s9.6,21.4,21.3,21.4c11.8,0,21.3-9.6,21.3-21.4
	C397.4,179.2,387.9,169.6,376.1,169.6z M385.6,191c0,3.9-2.3,7.4-5.9,8.9s-7.7,0.7-10.4-2.1s-3.5-6.9-2.1-10.4
	c1.5-3.6,5-5.9,8.8-5.9C381.3,181.5,385.6,185.7,385.6,191z"/>
</svg>
