<?xml version="1.0" encoding="utf-8"?>
<!-- Generator: Adobe Illustrator 26.2.1, SVG Export Plug-In . SVG Version: 6.00 Build 0)  -->
<svg version="1.1" id="celo" xmlns="http://www.w3.org/2000/svg" xmlns:xlink="http://www.w3.org/1999/xlink" x="0px" y="0px"
	 viewBox="0 0 500 500" style="enable-background:new 0 0 500 500;" xml:space="preserve">
<path d="M500,197.4C500,88.4,411.6,0,302.6,0c-81.8,0-151.9,49.8-181.9,120.7C49.8,150.6,0,220.8,0,302.6
	C0,411.6,88.4,500,197.4,500c81.8,0,152-49.8,181.9-120.8C450.2,349.3,500,279.2,500,197.4z M197.4,447.4
	c-80,0-144.8-64.9-144.8-144.8c0-44.9,20.5-85.1,52.7-111.6c-0.1,2.1-0.1,4.2-0.1,6.3c0,109,88.4,197.4,197.4,197.4
	c2.2,0,4.4,0,6.6-0.1C282.6,426.8,242.4,447.4,197.4,447.4z M337.8,337.8c-11.3,2.8-23.1,4.3-35.2,4.3
	c-79.9,0-144.7-64.9-144.7-144.8c0-12.1,1.5-23.8,4.3-35c11.3-2.8,23.1-4.3,35.2-4.3c79.9,0,144.7,64.8,144.7,144.7
	C342.1,314.8,340.6,326.5,337.8,337.8z M394.7,309c0.1-2.1,0.1-4.3,0.1-6.4c0-109-88.4-197.4-197.4-197.4c-2.2,0-4.4,0-6.5,0.1
	c26.5-32.2,66.7-52.7,111.7-52.7c80,0,144.7,64.9,144.7,144.8C447.3,242.3,426.8,282.5,394.7,309z"/>
</svg>
