<?xml version="1.0" encoding="iso-8859-1"?>
<!-- Generator: Adobe Illustrator 19.0.0, SVG Export Plug-In . SVG Version: 6.00 Build 0)  -->
<svg version="1.1" id="Layer_1" xmlns="http://www.w3.org/2000/svg" xmlns:xlink="http://www.w3.org/1999/xlink" x="0px" y="0px"
	 viewBox="0 0 500 500" style="enable-background:new 0 0 500 500;" xml:space="preserve">
<path id="XMLID_4_" d="M168.067,108.952c0,5.079,0.001,9.315,0,13.551c-0.02,60.702,0.036,121.405-0.113,182.107
	c-0.041,16.662,4.303,31.706,14.18,45.217c11.506,15.739,27.321,24.237,46.055,27.807c19.965,3.805,39.983,7.327,59.977,10.98
	c12.584,2.299,25.153,4.691,37.761,6.845c2.147,0.367,4.462-0.254,7.696-0.492c0.255-3.827,0.676-7.324,0.69-10.822
	c0.082-20.123,0.378-40.254-0.064-60.368c-0.179-8.14,2.977-13.838,8.92-18.709c22.625-18.547,45.194-37.162,67.808-55.723
	c6.209-5.096,12.877-8.054,20.715-3.508c5.712,3.313,9.644,7.767,9.62,14.908c-0.083,25.07,1.073,50.21-0.435,75.19
	c-1.336,22.117-10.457,41.889-25.454,58.646c-13.648,15.25-29.615,26.886-49.59,32.344c-3.833,1.047-6.03,3.235-7.822,6.753
	c-11.848,23.258-30.204,39.514-54.386,49.069c-8.506,3.361-17.308,5.516-26.619,6.36c-12.559,1.138-24.987,1.407-37.391-0.604
	c-11.64-1.887-23.199-4.277-34.801-6.404c-17.084-3.132-34.17-6.257-51.265-9.332c-28.078-5.051-52.222-17.031-70.066-39.955
	c-13.255-17.029-20.934-36.299-22.26-57.912c-0.404-6.576-0.254-13.189-0.256-19.785c-0.016-58.063,0.271-116.129-0.12-174.19
	c-0.217-32.169,11.258-58.963,34.411-80.89c11.391-10.788,24.907-18.42,39.915-22.674c5.195-1.472,7.631-4.013,9.936-8.263
	c7.605-14.022,17.181-26.481,30.278-35.904c15.746-11.329,32.959-18.461,52.579-20.043c13.951-1.125,27.396,0.36,41.007,3.205
	c17.334,3.623,34.944,5.904,52.331,9.297c17.36,3.388,35.186,4.939,51.81,11.469c35.654,14.004,57.659,39.842,66.113,77.233
	c4.203,18.589,0.808,37.479,2.373,56.125c1.137,13.55-3.736,22.522-14.497,30.782c-22.666,17.399-44.36,36.072-66.288,54.42
	c-5.551,4.645-11.908,4.944-17.549,2.486c-5.789-2.522-9.227-7.744-9.027-15.08c0.42-15.494,0.232-31.008,0.155-46.513
	c-0.137-27.297-12.551-47.84-35.196-62.335c-8.656-5.541-18.733-7.73-28.749-9.517c-21.616-3.856-43.269-7.506-64.906-11.243
	c-8.735-1.508-17.447-3.166-26.214-4.457C176.128,108.557,172.804,108.952,168.067,108.952z M316.479,430.004
	c-13.202-2.498-25.088-4.842-37.011-6.98c-18.735-3.359-37.516-6.467-56.233-9.921c-6.432-1.187-12.924-2.555-19.062-4.752
	c-42.74-15.297-71.842-54.507-71.68-101.757c0.204-59.706,0.042-119.413-0.029-179.119c-0.004-3.013,0.926-6.341-1.572-9.718
	c-3.665,2.654-7.037,4.692-9.936,7.264c-16.119,14.298-24.313,32.221-24.303,53.853c0.026,58.388,0.008,116.775,0.019,175.163
	c0.001,6.265-0.371,12.571,0.201,18.788c2.519,27.393,19.608,52.312,47.592,60.531c15.655,4.598,31.94,7.136,48.025,10.161
	c19.016,3.576,38.227,6.179,57.15,10.168c11.323,2.387,22.28,2.217,33.152-0.852C295.966,449.116,307.568,442.658,316.479,430.004z
	 M371.472,200.574c10.946-9.155,21.597-17.837,31.897-26.916c1.619-1.427,2.265-4.645,2.311-7.054
	c0.222-11.538,0.201-23.085,0.037-34.626c-0.138-9.674-2.746-18.809-7.24-27.33c-11.879-22.522-30.819-35.112-55.696-39.3
	c-12.279-2.067-24.528-4.309-36.793-6.453c-12.922-2.26-25.874-4.358-38.764-6.785c-13.529-2.546-26.847-5.698-40.897-3.028
	c-16.116,3.062-29.357,10.453-41.105,23.492c4.559,1.112,7.977,2.128,11.463,2.764c12.26,2.237,24.548,4.325,36.819,6.506
	c13.223,2.351,26.473,4.57,39.648,7.163c15.764,3.102,31.334,6.537,45.299,15.408c24.7,15.691,41.828,36.673,47.942,65.704
	C368.401,179.653,369.626,189.35,371.472,200.574z M370.215,386.119c13.338-8.615,22.925-18.472,29.208-31.544
	c8.193-17.046,6.526-35.036,6.005-54.467c-12.534,10.39-24.055,19.94-35.213,29.19C370.215,348.108,370.215,366.154,370.215,386.119
	z"/>
</svg>
