<?xml version="1.0" encoding="iso-8859-1"?>
<!-- Generator: Adobe Illustrator 19.0.0, SVG Export Plug-In . SVG Version: 6.00 Build 0)  -->
<svg version="1.1" id="Layer_1" xmlns="http://www.w3.org/2000/svg" xmlns:xlink="http://www.w3.org/1999/xlink" x="0px" y="0px"
	 viewBox="0 0 500 500" enable-background="new 0 0 500 500" xml:space="preserve">
<path d="M192.678,248.433c25.421-24.718,51.128-49.327,76.37-74.405c14.62-14.525,28.754-29.1,47.919-38.256
	c72.643-34.706,160.672,10.76,174.541,90.055c7.723,44.151-2.875,83.232-33.784,114.695c-46.358,47.189-117.869,50.74-165.936,8.484
	c-33.435-29.393-63.402-62.731-94.881-94.343C195.82,253.569,195.128,252.08,192.678,248.433z M237.81,250.782
	c25.465,25.014,48.694,48.827,73.03,71.448c22.752,21.148,50.555,25.48,80.151,19.301c38.748-8.09,77.373-50.05,68.685-106.072
	c-10.394-67.023-86.39-100.999-139.094-62.615C290.816,194.522,266.354,223.482,237.81,250.782z M81.862,133.8
	C32.879,154.091,1.107,207.258,6.62,263.889c5.346,54.925,45.141,101.929,104.761,112.448c40.654,7.173,91.736-11.99,108.78-40.466
	c-7.056-7.417-13.959-14.672-20.804-21.867c-52.908,40.679-97.868,40.085-137.359-1.479c-29.304-30.842-30.368-88.429-2.213-121.251
	c14.93-17.404,33.118-30.056,56.132-32.857c32.118-3.908,60.837,4.066,83.358,30.665c7.469-8.711,14.025-16.357,21.23-24.76
	C188.531,125.742,132.097,112.99,81.862,133.8z"/>
</svg>
