<?xml version="1.0" encoding="utf-8"?>
<!-- Generator: Adobe Illustrator 25.1.0, SVG Export Plug-In . SVG Version: 6.00 Build 0)  -->
<svg version="1.1" id="Layer_1" xmlns="http://www.w3.org/2000/svg" xmlns:xlink="http://www.w3.org/1999/xlink" x="0px" y="0px"
	 viewBox="0 0 500 500" style="enable-background:new 0 0 500 500;" xml:space="preserve">
<g>
	<path d="M246.4,3C113.7,4.6,3.7,115.2,4.2,248.5c-0.1,134,107.9,245.1,244.6,245.6c138.1,0.5,247.9-111.1,246.5-248.6
		C494,109.7,380.9,1.4,246.4,3z M232.1,329.4c-0.6-0.1-1.2-0.1-1.8-0.1c-0.2,0-0.3,0-0.5,0c-0.5,0-1,0-1.5-0.1
		c-8.2-0.2-15,1.6-21.6,7c-4.2,3.4-8.9,6.3-13.5,9.2c-2.2,1.4-4.4,2.9-7.1,3c-0.3,0-0.5,0-0.8,0c-0.6,0-1.2-0.1-1.8-0.3
		c-0.3-0.1-0.6-0.2-0.9-0.3c-0.6-0.2-1.3-0.6-2-1c-0.2-0.5-0.4-1-0.5-1.5c-2.4-7.4-1.2-15-1-22.3c0.2-7.5-2.2-12.2-8.3-16.7
		c-23.2-16.9-37.6-39.6-39.6-68.5c-2.7-40,17.4-68.3,50.2-87.9c18.5-11.1,39.3-16.5,60.2-16.6c26.9-0.2,53.8,8.5,76,25.2
		c50.1,37.9,50.5,107.4,0.7,145.7c-6.6,5.1-13.5,9.4-20.5,13C277.5,327.4,255.6,331.4,232.1,329.4z M367.6,303.3
		c-2.5,11.9-9.1,21.9-18.4,29.3c-7.2,5.8-11.5,11.6-10.1,21.1c0.1,0.7,0.2,1.4,0.2,2.1c0,2.7-0.9,5.6-5.3,8.8
		c-0.4-0.4-0.8-0.9-1.2-1.3c-9.1-9.6-20.8-11-32.9-11.7c-3.9-0.2-7.9-0.4-11.8-0.7c-12.6-1.1-24.4-5-35.1-14.2c0,0,0,0,0,0
		c0,0,0,0,0,0c7.4-6.8,15.8-7,23.5-4.7c10.3,3.1,20.6,4.2,31,2.9c5.5-0.7,9.7,1.9,15.1,4c2.4-7.4,8.1-12,13.9-16.7
		c12.4-10.1,18.1-23.6,14.4-39.1c-2.3-9.7,1-16.8,5.7-26c0.1,0.1,0.2,0.2,0.3,0.3C370,271.5,371.1,287,367.6,303.3z"/>
	<path d="M303,170.1c-36.2-24.5-75.2-25.6-113.1-4.9c-52.6,28.7-57.3,92.5-10,127.4c9.5,7,19.1,12.6,14.9,28.3
		c4.7-1.4,6.7-1.4,7.8-2.4c8.1-7.8,17.5-7.8,28.1-6.5c22.2,2.7,43.3-1.4,63.3-11.7C348.8,271.9,353.9,204.6,303,170.1z M205.2,239.2
		c-0.8,2.1-2.1,4-3.7,5.5c-2.3,2.1-5.2,3.4-8.3,3.5c-7,0.2-13.9-6.5-13.9-13.5c0-3.5,1.7-6.9,4.2-9.5c2.6-2.5,6-4.1,9.6-4.1
		c3.1,0,5.9,1.1,8.1,2.9c2.5,2.1,4.3,5.1,4.8,8.5c0.1,0.4,0.1,0.9,0.1,1.3C206.2,235.8,205.9,237.6,205.2,239.2z M257.1,236
		c-0.8,6.8-6.7,12.3-13.6,12.1c0,0,0,0,0,0l0,0h0c-6.2-0.2-11.6-5.3-12.6-11.6c0-0.3-0.1-0.5-0.1-0.8c-0.1-0.7-0.1-1.3-0.1-2
		c0.3-7.1,5.9-12.5,13-12.7c0.5,0,0.9,0,1.4,0c6.7,0.6,12.1,6.5,12.1,13.5C257.2,235.1,257.1,235.5,257.1,236z M306.1,237.8
		c-1.5,5.6-6.6,10.1-12.4,10.4c-7,0.3-13.8-6.3-13.9-13.4c0,0,0,0,0,0c0,0,0,0,0,0c-0.1-7.3,6.2-13.5,13.6-13.5
		c7,0,12.8,5.6,13.1,12.5C306.6,235.1,306.5,236.5,306.1,237.8z"/>
</g>
</svg>
