<?xml version="1.0" encoding="iso-8859-1"?>
<!-- Generator: Adobe Illustrator 19.0.0, SVG Export Plug-In . SVG Version: 6.00 Build 0)  -->
<svg version="1.1" id="Layer_1" xmlns="http://www.w3.org/2000/svg" xmlns:xlink="http://www.w3.org/1999/xlink" x="0px" y="0px"
	 viewBox="0 0 2000 2000" style="enable-background:new 0 0 2000 2000;" xml:space="preserve">
<path d="M1275.247,1677.051c-10.319,41.125-3.434,74.88,18.377,104.959c38.693,53.358,111.657,66.56,165.37,28.326
	c93.824-66.786,186.863-134.689,279.636-202.931c40.431-29.74,55.985-71.697,47.038-120.314
	c-8.303-45.117-36.426-76.254-80.116-91.182c-38.858-13.278-75.675-6.639-108.881,17.202
	c-56.616,40.649-112.842,81.84-169.258,122.767c-4.074,2.955-8.365,5.612-10.504,7.04c-35.38-16.342-68.944-31.845-107.876-49.829
	c3.25-1.169,7.412-1.716,10.405-3.881c74.373-53.803,147.566-109.31,223.136-161.368c120.817-83.227,285.511-29.476,334.205,108.641
	c32.069,90.959,3.568,192.768-78.986,253.142c-91.936,67.235-184.116,134.141-276.517,200.737
	c-122.679,88.42-293.377,33.255-341.266-110.329c-8.92-26.745-12.974-54.609-10.649-82.998c0.544-6.643,2.165-13.197,3.529-21.189
	C1207.135,1676.053,1240.225,1674.222,1275.247,1677.051z M1463.159,78.451c0.883,1.816,1.512,3.817,2.685,5.42
	c29.544,40.343,47.278,85.033,51.09,135.197c0.382,5.022,4.675,10.867,8.838,14.266c11.502,9.391,23.913,17.667,35.937,26.421
	c59.779,43.524,120.039,86.408,179.152,130.819c40.351,30.316,54.689,73.155,44.256,121.228
	c-18.402,84.793-115.941,122.365-186.708,72.172c-93.937-66.627-186.91-134.633-279.584-203.012
	c-45.726-33.739-60.876-90.357-38.423-142.249c7.73-17.866,20.958-33.353,32.707-51.523c-27.77-35.216-68.59-23.877-106.261-25.405
	c-16.528,23.12-27.235,47.86-32.225,74.105c-17.77,93.451,10.462,170.967,86.81,228.117
	c89.811,67.228,181.108,132.474,271.968,198.294c58.102,42.089,121.917,55.572,191.97,37.228
	c86.2-22.572,151.077-94.806,161.823-183.914c10.426-86.452-20.357-157.711-90.983-210.346
	c-21.808-16.253-43.921-32.099-65.949-48.054c-72.621-52.6-145.055-105.463-218.087-157.487
	c-14.161-10.087-30.691-16.849-46.128-25.144C1465.085,75.872,1464.122,77.162,1463.159,78.451z M402.424,867.543
	c-78.935-36.867-176.431-22.252-240.018,37.583c-60.281,56.725-85.419,127.084-67.154,208.104
	c12.173,53.998,32.037,106.287,48.937,159.188c19.229,60.193,40.333,119.821,58.197,180.41
	c25.31,85.844,97.401,151.194,188.709,161.82c87.355,10.167,173.825-32.393,217.357-108.705c2.003-3.511,3.038-7.574,4.921-12.4
	c-27.135-19.455-53.501-38.359-81.07-58.125c-3.709,6.494-6.018,10.397-8.196,14.371c-23.31,42.523-59.861,65.579-107.656,65.37
	c-47.743-0.209-86.969-22.009-106.172-66.593c-18.719-43.461-31.504-89.505-46.389-134.582
	c-20.079-60.806-39.343-121.882-59.611-182.625c-10.92-32.729-18.281-64.98-7.578-99.624
	c18.078-58.517,85.358-96.119,143.962-78.769c12.838,3.8,25.226,9.119,38.209,13.88c1.758-2.924,3.761-5.247,4.682-7.941
	c9.454-27.662,18.733-55.384,28.777-85.218C408.609,871.354,405.693,869.069,402.424,867.543z M998.57,1731.474
	c4.929-81.383-23.531-148.961-89.098-197.881c-92.262-68.838-185.788-135.995-279.273-203.175
	c-86.89-62.44-204.514-54.479-281.287,18.246c-8.194,7.762-15.334,16.637-22.048,23.993c17.965,65.368,36.134,92.594,60.955,92.439
	c0.74-0.829,1.904-1.628,2.364-2.723c29.066-69.165,119.374-98.099,187.259-45.659c36.965,28.555,75.454,55.135,113.22,82.653
	c54.243,39.524,109.25,78.058,162.431,118.964c43.627,33.558,56.956,89.747,34.553,139.831
	c-7.794,17.424-20.572,32.618-31.774,49.911c11.457,22.209,47.382,31.645,105.308,25.457
	C979.563,1810.678,996.457,1766.373,998.57,1731.474z M748.637,1606.883c-57.869,62.405-74.671,162.505-37.631,239.035
	c40.871,84.444,108.714,129.686,203.442,130.365c111.477,0.799,222.964,0.449,334.444-0.058c19.41-0.088,38.825-3.239,58.189-5.408
	c3.6-0.403,6.969-2.877,11.581-4.893c-2.697-2.261-3.51-3.447-4.583-3.769c-48.051-14.4-88.025-41.065-121.652-78.158
	c-4.578-5.05-13.819-8.225-20.928-8.272c-83.821-0.561-167.647-0.303-251.471-0.433c-10.615-0.016-21.642,0.651-31.773-1.853
	c-46.601-11.519-78.879-40.19-91.224-86.671c-11.431-43.042-1.343-82.629,30.075-115.401c3.35-3.495,9.068-4.721,13.688-6.999
	c-1.052-2.352-2.104-4.704-3.156-7.056c-26.443-19.475-52.887-38.951-81.779-60.23
	C752.701,1601.406,750.942,1604.398,748.637,1606.883z M498.708,338.182c67.4-48.91,134.896-97.69,202.12-146.841
	c18.554-13.565,38.579-22.353,61.358-26.185c54.887-9.234,117.975,30.657,130.063,85.01c4.688,21.08,4.42,43.263,6.62,67.229
	c5.794,3.603,68.639,5.98,96.775,1.383c1.031-5.775,2.801-12.209,3.238-18.732c2.192-32.702-2.224-64.595-14.61-94.947
	c-30.919-75.765-86.83-123.056-166.934-138.359c-64.49-12.321-123.472,3.743-176.627,43.119
	c-71.01,52.603-143.279,103.507-214.31,156.082c-31.67,23.441-61.71,49.095-92.288,73.991c-3.484,2.836-5.668,7.269-8.66,11.233
	c28.151-4.273,54.338-10.541,80.735-11.611c26.488-1.074,53.187,3.034,83.361,5.118C491.103,343.57,494.937,340.919,498.708,338.182
	z M613.527,502.258c-2.095-5.026-3.28-9.033-5.305-12.558c-59.21-103.034-191.556-140.298-296.002-83.835
	c-61.603,33.302-95.394,86.583-114.787,152.104c-18.05,60.983-39.208,121.04-58.495,181.664
	c-15.808,49.69-31.228,99.512-45.978,149.523c-2.948,9.996-2.095,21.113-2.995,31.713c1.21,0.38,2.421,0.761,3.632,1.142
	c31.294-44.857,71.926-77.87,123.848-98.178c6.731-20.132,13.69-40.57,20.402-61.09c22.149-67.717,43.103-135.85,66.67-203.068
	c17.39-49.599,55.8-76.083,107.23-78.71c48.94-2.501,86.558,20.483,111.383,63.226c2.515,4.329,4.703,8.848,8.829,16.66
	C560.117,540.622,586.465,521.697,613.527,502.258z M853.268,32.959c1.03,0.683,2.251,1.133,3.446,1.505
	c45.281,14.08,83.886,38.796,115.423,74.053c7.502,8.387,15.009,11.997,26.265,11.941c81.727-0.406,163.458-0.52,245.183,0.044
	c15.954,0.11,32.479,1.499,47.724,5.858c69.276,19.809,104.891,100.826,72.508,165.047c-8.061,15.986-20.142,29.945-32.428,47.823
	c25.432,18.671,52.176,38.304,78.601,57.704c2.372-1.449,3.572-1.948,4.466-2.776c2.177-2.016,4.346-4.07,6.285-6.31
	c53.172-61.428,68.592-132.442,47.108-209.571c-26.433-94.898-115.837-160.136-212.993-159.016
	c-103.424,1.193-206.873,0.248-310.31,0.286c-17.876,0.007-35.811-0.572-53.609,0.681c-13.189,0.929-26.2,4.39-41.329,7.086
	C852.34,31.606,852.634,32.539,853.268,32.959z M1467.651,1692.479c-29.823-95.704-110.712-157.151-210.958-158.779
	c-90.652-1.471-181.343-0.547-272.017-0.594c-3.029-0.001-6.058,0.933-7.628,1.191c18.38,32.724,36.314,64.652,54.247,96.581
	c2.554,2.792,7.55,3.242,12.547,3.246c64.708,0.047,129.418-0.282,194.122,0.25c16.041,0.132,32.278,1.849,48.046,4.836
	c41.078,7.782,81.931,50.728,86.711,92.115c2.114,18.304,0.357,37.054,0.357,56.913c44.593,11.903,71.202-19.208,104.364-41.318
	C1474.309,1728.868,1473.113,1710.009,1467.651,1692.479z M338.001,636.371c75.698,82.061,200.28,94.905,292.024,29.292
	c72.886-52.126,145.055-105.257,217.496-158.005c3.173-2.311,5.889-5.249,7.579-6.776c-34.403-15.846-67.935-31.29-103.606-47.72
	c-2.512,1.692-7.477,4.826-12.222,8.264c-56.057,40.618-111.715,81.796-168.21,121.794c-62.841,44.492-145.054,22.977-179.315-45.95
	c-1.267-2.549-2.981-4.876-5.197-8.452c-43.439,16.131-46.884,56.878-60.02,93.311C330.607,627.221,334.021,632.056,338.001,636.371
	z M256.145,1141.221c1.949,0.797,4.046,1.278,6.115,1.727c37.697,8.169,75.042,7.545,112.062-4.064
	c69.772-21.88,119.646-66.407,144.085-135.055c29.268-82.214,54.763-165.773,81.767-248.79c2.74-8.422,4.624-17.123,6.571-24.436
	c-38.168,7.501-74.532,14.647-112.339,22.076c-21.958,67.62-45.257,136.677-66.734,206.297
	c-19.608,63.558-85.06,102.123-147.816,83.422c-11.998-3.575-23.523-8.736-36.312-13.56c-23.643,37.857-4.899,72.803,6.4,108.992
	C252.43,1139.215,254.202,1140.426,256.145,1141.221z M1139.084,361.845c-5.038,0-10.076,0-15.113,0
	c-63.856,0-127.715,0.302-191.568-0.209c-16.047-0.128-32.267-1.779-48.072-4.604c-44.115-7.887-85.087-52.043-89.406-96.772
	c-1.651-17.098-0.269-34.489-0.269-51.387c-25.913-11.193-57.04,1.094-103.348,41.36c2.568,15.672,3.715,33.602,8.565,50.468
	C727.64,397.266,813.433,461.993,913.91,462.46c88.546,0.412,177.095,0.116,265.642,0.045c4.286-0.003,8.571-0.849,11.559-1.165
	c-18.339-32.635-36.063-64.177-53.787-95.718C1137.911,364.362,1138.498,363.104,1139.084,361.845z M485.989,1648.482
	c-53.403,13.854-106.487,11.008-159.686-4.893c1.691,4.809,3.653,8.485,6.533,11.177c13.008,12.16,25.362,25.28,39.608,35.813
	c66.593,49.233,133.574,97.945,200.745,146.387c33.039,23.828,66.557,47.017,100.379,69.719c9.059,6.08,20.032,9.309,31.526,14.476
	c-13.346-25.697-27.601-48.003-36.773-72.234c-9.357-24.719-13.721-51.328-21.974-83.808
	C596.466,1728.837,541.589,1688.923,485.989,1648.482z M541.623,1061.503c-26.516,28.639-51.38,55.494-78.61,84.905
	c9.986,30.754,21.173,65.208,31.454,96.871c38.221,7.49,73.832,14.468,113.339,22.21
	C585.798,1197.656,563.591,1129.213,541.623,1061.503z"/>
</svg>
