<?xml version="1.0" encoding="iso-8859-1"?>
<!-- Generator: Adobe Illustrator 19.0.0, SVG Export Plug-In . SVG Version: 6.00 Build 0)  -->
<svg version="1.1" id="Layer_1" xmlns="http://www.w3.org/2000/svg" xmlns:xlink="http://www.w3.org/1999/xlink" x="0px" y="0px"
	 viewBox="0 0 500 500" enable-background="new 0 0 500 500" xml:space="preserve">
<path d="M250.245,307.848c-13.902,13.558-27.334,26.61-40.713,39.716c-33.552,32.868-73.343,44.483-118.493,31.611
	c-43.179-12.31-70.527-41.903-81.99-85.148c-19.021-71.756,32.908-141.865,108.755-147.72c3.811-0.294,7.635-0.431,11.48-0.642
	c2.038-12.359,3.011-24.702,6.196-36.445c12.762-47.058,43.291-76.961,90.967-86.478c51.137-10.208,92.016,8.401,122.152,50.523
	c10.069,14.073,9.877,28.289,0.856,38.95c-9.087,10.739-23.804,14.54-35.612,7.563c-5.937-3.508-10.666-9.521-15.057-15.097
	c-14.217-18.055-32.469-28.292-55.438-25.36c-24.214,3.092-41.915,16.744-49.718,40.42c-7.372,22.37-2.87,42.799,13.394,60.371
	c8.85,9.562,11.787,20.864,6.9,33.124c-4.501,11.289-13.957,19.183-25.572,17.725c-9.739-1.223-19.731-6.931-27.908-12.962
	c-34.079-25.135-82.296-9.674-93.775,30.717c-7.549,26.564,3.455,53.68,27.631,68.088c22.943,13.673,51.612,10.17,71.641-9.456
	c21.645-21.209,42.826-42.89,64.203-64.372c20.781-20.882,41.409-41.918,62.363-62.625c35.084-34.669,88.144-43.88,132.44-23.286
	c44.468,20.674,73.408,67.464,68.994,115.655c-4.654,50.809-31.19,87.603-79.536,104.567c-46.227,16.221-88.228,5.159-123.606-29.08
	C277.067,334.916,263.693,321.252,250.245,307.848z M292.004,265.671c15.435,15.281,30.193,32,47.249,45.899
	c8.649,7.048,21.183,11.639,32.414,12.749c27.841,2.751,52.56-15.089,60.783-40.947c7.674-24.131-1.988-52.813-22.522-66.862
	c-23.048-15.768-52.091-14.991-73.177,3.82C321.219,234.186,307.388,249.947,292.004,265.671z M322.964,454.997
	c14.053-11.341,16.791-28.777,7.036-41.891c-10.297-13.844-27.89-15.952-42.948-5.148c-26.1,18.726-48.964,18.805-75.261,0.26
	c-15.388-10.852-33.132-8.955-43.075,4.605c-10.032,13.681-7.025,31.172,7.548,42.768c21.109,16.796,45.551,24.277,72.597,25.628
	C276.005,480.113,301.272,472.503,322.964,454.997z M247.66,168.616c17.037,0.593,31.02-12.239,31.236-28.663
	c0.206-15.678-13.09-29.629-28.835-30.255c-16.109-0.64-29.315,11.944-29.879,28.472
	C219.612,154.887,231.495,168.053,247.66,168.616z"/>
</svg>
