<?xml version="1.0" encoding="iso-8859-1"?>
<!-- Generator: Adobe Illustrator 19.0.0, SVG Export Plug-In . SVG Version: 6.00 Build 0)  -->
<svg version="1.1" id="Layer_1" xmlns="http://www.w3.org/2000/svg" xmlns:xlink="http://www.w3.org/1999/xlink" x="0px" y="0px"
	 viewBox="0 0 500 500" enable-background="new 0 0 500 500" xml:space="preserve">
<path d="M486.77,326.962c-20.253,13.675-40.014,27.018-60.425,40.8c0,20.346,0,41.429,0,62.945
	c-40.682,20.476-81.178,40.858-122.784,61.799c-18.828-11.45-37.912-23.056-56.961-34.64c-17.066,10.634-33.746,21.338-50.83,31.355
	c-2.722,1.596-7.853,1.336-10.854-0.137c-37.671-18.498-75.159-37.372-112.675-56.185c-1.307-0.655-2.425-1.687-3.93-2.755
	c0-20.901,0-41.791,0-62.53c-20.167-13.559-39.951-26.86-59.779-40.191c0-48.968,0-97.604,0-145.857
	c19.766-13.556,39.057-26.788,58.623-40.207c0-21.498,0-42.79,0-64.314c41.454-23.523,82.587-46.864,124.331-70.552
	c18.422,12.479,36.706,24.865,55.413,37.538C265.525,31.303,284.154,18.576,302.56,6c41.877,23.779,83.114,47.195,124.531,70.712
	c0,21.315,0,42.419,0,64.17c10.618,7.303,21.306,14.641,31.98,22c8.105,5.587,16.305,11.048,24.198,16.922
	c1.741,1.296,3.348,4.092,3.356,6.204C486.814,232.777,486.77,279.547,486.77,326.962z M235.87,429.069c0-47.592,0-93.773,0-140.209
	c8.221,0,15.588,0,23.468,0c0,46.668,0,92.703,0,139.427c41.827-22.451,82.958-44.529,124.741-66.956
	c-22.228-15.36-43.774-30.249-64.751-44.745c-18.649,5.736-32.125,0.161-35.96-14.757c-3.405-13.244,0.703-26.602,18.455-31.085
	c13.868-3.502,25.032,5.678,29.987,25.623c25.83,17.445,52.155,35.223,78.48,53.003c17.553-11.949,34.784-23.679,51.795-35.259
	c0-16.835,0-33.333,0-50.063c-24.323,0-48.2,0-71.866,0c-13.578,13.672-28.945,15.086-39.538,4.042
	c-9.924-10.346-8.756-27.084-0.023-35.386c10.228-9.725,28.938-12.366,41.645,7.329c23.353,0,46.557,0,69.966,0
	c0-15.088,0-29.698,0-44.378c-17.503-11.91-34.916-23.758-52.476-35.706c-46.561,30.984-92.757,61.726-138.547,92.198
	c-1.247,15.209-10.292,25.244-22.671,25.865c-12.995,0.651-22.85-9.063-26.307-26.606c-45.482-30.297-91.464-60.927-137.654-91.696
	c-3.67,2.334-6.963,4.321-10.146,6.471c-10.253,6.927-20.066,14.624-30.812,20.668c-9.669,5.438-14.028,11.996-12.708,23.395
	c1.151,9.932,0.24,20.103,0.24,29.999c24.61,0,48.238,0,71.619,0c9.706-17.572,27.889-16.781,36.942-10.17
	c11.849,8.652,14.057,24.515,5.126,35.689c-8.955,11.203-26.173,14.829-41.2-2.432c-23.791,0-47.855,0-72.314,0
	c0,16.761,0,33.545,0,50.737c16.511,11.177,33,22.511,49.769,33.415c1.611,1.048,5.458,0.187,7.427-1.086
	c16.154-10.449,32.165-21.123,48.103-31.9c9.139-6.18,18.061-12.679,26.611-18.703c0.896-12.214,6.164-20.232,17.221-23.972
	c9.764-3.302,19.949-0.117,26.43,8.307c6.18,8.033,6.526,20.204,0.807,28.389c-5.973,8.549-16.111,12.29-25.925,9.65
	c-2.656-0.715-5.374-1.201-7.488-1.665c-21.747,15.029-42.796,29.576-64.893,44.847C151.801,384.044,193.047,406.134,235.87,429.069
	z M236.001,74.991c-42.473,25.467-83.524,50.081-125.864,75.469c41.48,27.423,82.108,54.283,122.862,81.226
	c9.352-6.248,18.695-7.182,28.248-0.325c40.527-26.854,81.087-53.731,122.235-80.997c-42.34-25.312-83.16-49.716-124.638-74.513
	c0,46.755,0,92.558,0,139.211c-7.495,0-14.931,0-22.844,0C236.001,168.461,236.001,122.607,236.001,74.991z M90.663,92.687
	c0,13.956,0,27.516,0,42.518c44.543-26.931,88.08-53.253,132.435-80.07c-10.639-7.052-19.941-13.412-29.508-19.345
	c-1.409-0.874-4.439-0.351-6.107,0.599c-15.374,8.764-30.604,17.78-45.895,26.691C124.728,72.906,107.849,82.697,90.663,92.687z
	 M271.304,55.01c44.067,26.563,87.858,52.96,132.309,79.755c0-14.646,0-28.081,0-41.666
	c-33.628-19.632-66.966-39.096-100.294-58.553C292.682,41.345,282.297,47.983,271.304,55.01z M221.224,446.552
	c-43.72-23.497-85.846-46.137-128.689-69.163c0,14.315,0,26.982,0,39.496c2.251,0.992,4.216,1.772,6.105,2.704
	c29.126,14.359,58.263,28.698,87.335,43.166c3.392,1.688,5.901,1.991,9.374-0.38C203.034,457.126,211.213,452.601,221.224,446.552z
	 M401.327,377.893c-42.687,22.918-84.743,45.496-127.705,68.56c10.664,6.581,20.332,12.546,29.613,18.273
	c33.286-16.352,65.753-32.301,98.091-48.188C401.327,403.851,401.327,391.405,401.327,377.893z"/>
</svg>
