<?xml version="1.0" encoding="iso-8859-1"?>
<!-- Generator: Adobe Illustrator 19.0.0, SVG Export Plug-In . SVG Version: 6.00 Build 0)  -->
<svg version="1.1" id="Layer_1" xmlns="http://www.w3.org/2000/svg" xmlns:xlink="http://www.w3.org/1999/xlink" x="0px" y="0px"
	 viewBox="0 0 2000 2000" style="enable-background:new 0 0 2000 2000;" xml:space="preserve">
<path d="M1007.017,1700.899c43.663,25.381,84.674,49.222,130.615,75.928c-10.76,8.513-17.203,15.013-24.845,19.445
	c-95.55,55.408-191.849,109.554-286.701,166.128c-44.551,26.572-85.982,26.477-130.252,0.772
	c-185.378-107.638-371.116-214.659-556.872-321.644c-47.242-27.208-69.797-66.756-69.252-121.859
	c1.158-117.127-0.98-234.302,1.529-351.387c0.47-21.948,9.974-53.632,26.046-63.722c113.948-71.54,230.693-138.625,353.795-211.415
	c0,56.909,0,103.536,0,154.293c-62.407,36.34-125.405,75.322-190.638,110.112c-36.627,19.534-53.99,48.056-54.858,86.837
	c-1.624,72.541-3.347,145.228-0.42,217.668c1.847,45.728,29.526,80.342,68.434,103.088
	c138.06,80.71,276.292,161.155,415.506,239.848c48.214,27.254,98.491,22.458,146.365-5.113
	C891.164,1767.8,946.813,1735.64,1007.017,1700.899z M1429.662,280.483c-0.029-31.347-16.39-51.104-43.335-66.324
	C1280.12,154.17,1174.589,92.984,1068.965,31.969c-38.922-22.484-78.183-24.806-117.405-2.258
	C758.606,140.636,565.735,251.706,373.113,363.205c-33.71,19.513-53.504,50.065-53.499,89.256
	c0.018,121.971,1.624,243.941,2.933,365.909c0.022,2.065,4.057,4.086,9.705,9.419c39.337-22.803,80.148-46.461,122.592-71.065
	c0-66.774,0.507-130.974-0.145-195.163c-0.63-61.956,26.151-107.105,79.535-137.891c132.826-76.6,265.189-154.007,398.165-230.345
	c49.465-28.396,100.196-30.082,150.503-0.683c41.288,24.128,81.758,49.823,124.08,71.976
	c65.732,34.408,94.903,87.303,92.422,160.966c-2.041,60.611-0.417,121.346-0.417,182.187
	c43.527,24.839,83.001,47.365,130.724,74.598C1429.712,540.747,1429.781,410.615,1429.662,280.483z M1720.744,851.378
	c49.053,27.699,75.317,70.38,75.89,124.913c1.682,159.966,1.325,319.97-0.18,479.94c-0.381,40.54-13.211,80.916-49.409,103.346
	c-67.12,41.592-136.533,79.573-205.845,117.498c-27.781,15.201-55.429,12.492-84.072-4.878
	c-64.741-39.26-131.243-75.615-200.494-115.129c-41.201,23.847-82.741,47.89-132.373,76.616
	c123.089,70.64,235.674,135.517,348.571,199.846c26.571,15.14,51.65,12.407,78.943-3.869
	c101.929-60.786,204.617-120.357,308.104-178.452c48.305-27.117,70.871-65.882,70.784-120.584
	c-0.341-212.765-0.17-425.531,0.172-638.296c0.084-52.547-20.955-91.026-67.734-117.196
	c-87.743-49.088-174.352-100.201-261.562-150.246c-15.058-8.641-30.756-16.168-50.821-26.643c0,55.21,0,102.629,0,154.188
	C1609.759,786.874,1664.859,819.821,1720.744,851.378z M320.71,1373.253c-3.217,57.292,19.392,97.471,69.594,125.689
	c102.036,57.354,202.891,116.806,304.269,175.332c40.425,23.338,82.183,25.173,122.527,2.037
	c185.929-106.625,372.152-212.795,556.048-322.841c24.975-14.945,49.03-49.132,53.197-77.403
	c8.293-56.266,2.455-114.615,2.455-175.671c-40.107-23.154-80.373-46.4-129.995-75.047c0,52.278,0.646,93.077-0.158,133.847
	c-1.082,54.909-22.537,99.05-71.468,127.287c-131.375,75.815-262.556,151.97-394.452,226.869
	c-26.755,15.193-56.305,25.466-84.558,38.004c-72.373-41.829-140.39-82.062-209.308-120.69
	c-58.832-32.974-89.242-80.658-85.683-149.261c1.552-29.909,0.261-59.966,0.261-100.233
	c-51.314,30.117-90.659,53.209-132.329,77.666C321.109,1297.755,322.823,1335.611,320.71,1373.253z M1623.257,1499.751
	c38.46-23.055,57.747-57.993,57.882-102.607c0.371-121.996,0.227-243.993,0.08-365.99c-0.054-44.923-19.536-80.025-58.072-102.4
	c-185.215-107.543-370.784-214.477-556.403-321.322c-31.682-18.237-66.679-24.167-99.653-7.671
	c-51.117,25.573-100.171,55.27-145.176,80.462c0,54.063,0,100.177,0,151.064c18.768-9.657,32.04-15.748,44.6-23.063
	c129.824-75.602,125.785-93.589,285.852,1.301c110.546,65.533,221.943,129.651,333.579,193.316
	c44.036,25.113,67.563,57.417,63.663,111.548c-4.373,60.685-1.003,121.925-1.063,182.923c-0.06,61.308-26.378,107.537-79.55,138.351
	c-28.181,16.332-56.287,32.793-92.948,54.162c47.76,27.629,88.444,51.164,132.168,76.458
	C1549.262,1542.609,1586.59,1521.731,1623.257,1499.751z M1177.629,381.909c-41.914-23.316-83.977-49.101-128.161-70.51
	c-33.04-16.009-68.075-11.373-99.895,6.919c-107.198,61.622-213.99,123.95-321.106,185.715
	c-37.768,21.778-56.648,54.322-56.687,97.452c-0.197,216.103-0.193,432.206-0.012,648.309c0.033,39.028,15.721,71.392,48.926,91.98
	c46.03,28.54,93.612,54.577,141.902,82.479c42.827-25.051,83.607-48.905,130.491-76.33c-39.796-23.381-73.247-43.896-107.502-62.966
	c-55.387-30.833-83.81-75.34-82.238-140.662c2.183-90.678,0.432-181.448,0.578-272.178c0.109-67.628,0.447-135.255,0.89-202.882
	c0.257-39.232,14.482-67.864,52.25-87.239c58.594-30.058,114.71-64.989,171.563-98.388c53.342-31.335,106.052-31.087,159.182,0.43
	c27.724,16.446,56.027,31.918,89.819,51.093C1177.629,480.702,1177.629,433.734,1177.629,381.909z"/>
</svg>
