<?xml version="1.0" encoding="iso-8859-1"?>
<!-- Generator: Adobe Illustrator 19.0.0, SVG Export Plug-In . SVG Version: 6.00 Build 0)  -->
<svg version="1.1" id="Layer_1" xmlns="http://www.w3.org/2000/svg" xmlns:xlink="http://www.w3.org/1999/xlink" x="0px" y="0px"
	 viewBox="0 0 2000 2000" style="enable-background:new 0 0 2000 2000;" xml:space="preserve">
<path d="M1631.599,1224.197c112.973,0,224.592,0,336.454,0c-60.619,338.45-403.841,753.934-946.073,760.71
	c-531.209,6.639-950.804-399.38-993.727-901.062C-17.896,544.449,376.695,55.023,941.094,13.453
	c510.591-37.606,933.562,318.288,1028.372,756.81c-112.76,0-224.981,0-337.521,0C1498.8,422.17,1136.302,282.563,839.933,361.82
	c-288.333,77.108-493.661,345.71-486.19,652.327c7.648,313.919,225.412,551.485,496.047,621.759
	C1152.791,1714.585,1506.22,1558.273,1631.599,1224.197z M966.084,711.854c-13.137,7.982-25.37,20.273-39.556,23.247
	c-92.401,19.368-167.226,67.093-224.094,140.844c-48.581,63.004-66.229,137.255-67.565,220.408c254.343,0,505.352,0,758.437,0
	c10.749-59.843-2.055-113.474-26.406-164.156c-50.857-105.85-137.13-167.06-250.075-194.218
	c-21.827-5.248-42.114-16.902-63.111-25.601c0.896-2.324,1.792-4.649,2.688-6.973c-31.078,0-62.156,0-93.234,0
	C964.139,707.554,965.112,709.704,966.084,711.854z M592.823,1284.281c280.471-0.058,560.942-0.145,841.413-0.237
	c60.738-0.02,75.895-16.333,71.835-79.513c-8.624-8.636-18.425-18.45-28.553-28.592c-12.767-0.952-25.41-1.894-37.389-2.787
	c-15.885-45.932-24.858-52.253-72.761-52.253c-236.412-0.002-472.828,0.605-709.235-0.531c-42.802-0.206-77.443,5.846-84.239,46.215
	c-22.89,14.889-39.195,25.495-52.759,34.317C515.552,1271.645,527.188,1284.294,592.823,1284.281z M1059.266,659.953
	c11.689-1.477,21.012-2.654,30.587-3.864c0-29.895,0-58.148,0-86.12c-51.513,0-100.206,0-149.165,0c0,30.499,0,58.057,0,87.104
	c12.617,1.599,24.02,3.045,35.752,4.532c5.603,9.34,10.958,18.269,16.005,26.682c17.537,0,33.557,0,50.999,0
	C1049.868,676.784,1054.941,667.699,1059.266,659.953z"/>
</svg>
