<?xml version="1.0" encoding="iso-8859-1"?>
<!-- Generator: Adobe Illustrator 19.0.0, SVG Export Plug-In . SVG Version: 6.00 Build 0)  -->
<svg version="1.1" id="Layer_1" xmlns="http://www.w3.org/2000/svg" xmlns:xlink="http://www.w3.org/1999/xlink" x="0px" y="0px"
	 viewBox="0 0 2000 2000" style="enable-background:new 0 0 2000 2000;" xml:space="preserve">
<path d="M1066.075,1437.332c0,2.299,0,4.647,0,6.995c0,17.417,0.122,34.836-0.045,52.251c-0.102,10.655-0.732,21.305-0.95,31.96
	c-0.078,3.833,0.354,7.677,0.565,11.732c68.475,23.365,116.285,67.996,142.095,135.004c18.047,46.854,19.042,94.782,4.67,142.843
	c-29.721,99.388-122.968,160.786-219.906,158.113c-87.572-2.415-181.87-60.935-208.921-167.343
	c-14.496-57.02-7.872-112.086,20.828-163.641c28.521-51.233,71.499-85.564,127.442-104.349c0-34.277,0-68.548,0-103.335
	c-2.722-0.805-5.112-1.805-7.599-2.205c-175.09-28.158-317.575-163.99-358.104-335.106c-8.066-34.054-12.339-68.536-12.345-103.462
	c-0.009-51.8,8.656-102.198,26.248-150.989c1.3-3.605,2.756-7.153,4.011-10.396c-4.122-4.26-81.915-49.456-89.875-52.24
	c-1.901,1.356-4.436,2.92-6.694,4.813c-29.264,24.53-62.544,41.164-99.952,48.458c-82.648,16.115-170.542-13.769-223.916-87.408
	c-31.58-43.57-46.168-92.507-42.36-146.164c6.894-97.148,74.86-180.754,174.243-202.421
	c117.949-25.715,232.371,44.216,263.553,160.822c8.446,31.584,9.671,63.55,3.775,95.741c-0.5,2.728-1.346,5.393-2.026,8.066
	c6.339,5.413,85.656,50.623,92.005,51.816c0.969-1.302,2.413-3.467,4.08-5.444c65.033-77.148,146.757-127.134,245.041-149.729
	c41.16-9.463,82.942-12.717,125.166-9.836c76.356,5.209,147.244,27.318,211.823,68.656c36.154,23.142,68.255,51.108,96.4,83.546
	c2.816,3.246,4.931,7.094,7.442,10.613c0.852,1.193,1.923,2.231,3.48,4.01c30.596-17.654,61.031-35.215,91.146-52.591
	c-11.144-54.421-4.934-105.863,21.378-154.245c25.591-47.057,63.58-80.747,113.188-100.906
	c97.889-39.778,211.75-3.73,269.498,84.999c58.08,89.24,45.213,207.576-30.633,280.887c-42.424,41.006-93.316,62.342-152.196,63.659
	c-58.827,1.317-109.839-19.22-154.201-58.122c-1.987,0.855-4.038,1.501-5.852,2.555c-25.018,14.531-49.986,29.148-75.021,43.651
	c-2.764,1.601-5.859,2.63-9.267,4.129c47.605,132.484,42.138,261.927-29.04,385.133
	C1314.282,1340.69,1206.213,1411.764,1066.075,1437.332z M684.346,996.566c0.5,171.572,138.031,313.715,313.348,314.436
	c175.147,0.721,316.119-139.979,316.327-314.589c0.207-173.659-141.015-314.933-314.848-314.962
	C825.584,681.421,684.363,822.772,684.346,996.566z M1655.192,706.719c51.11-0.058,89.276-43.014,88.596-89.744
	c-0.706-48.497-40.283-88.304-88.946-88.266c-49.141,0.038-89.086,40.266-88.974,89.605
	C1565.979,667.185,1606.098,706.891,1655.192,706.719z M1088.255,1753.536c0.2-48.837-39.552-88.85-88.652-89.234
	c-48.647-0.38-89.121,39.691-89.426,88.536c-0.306,49.014,40.027,89.599,89.057,89.613
	C1048.092,1842.465,1088.054,1802.551,1088.255,1753.536z M343.848,706.718c49.072-0.134,88.918-39.999,88.891-88.934
	c-0.027-48.805-40.121-89.203-88.944-89.001c-49.347,0.205-89.107,39.202-89.136,89.377
	C254.632,667.32,294.855,706.852,343.848,706.718z M1877.756,1374.725c-1.009,128.806-105.051,223.052-222.626,222.811
	c-122.748-0.251-222.131-99.186-223.021-220.96c-0.877-119.977,95.23-224.44,222.809-224.445
	C1778.4,1152.126,1876.944,1251.106,1877.756,1374.725z M1743.65,1375.005c0.935-46.66-37.888-88.996-88.479-89.084
	c-49.052-0.085-89.198,39.57-89.303,88.435c-0.106,49.352,39.83,89.722,88.982,89.473
	C1707.882,1463.56,1744.511,1419.677,1743.65,1375.005z M776.604,239.567c0.015-123.554,99.579-223.194,222.882-223.051
	c122.881,0.142,222.948,100.046,222.506,222.863c-0.465,128.883-105.65,223.959-224.598,222.654
	C872.27,460.66,776.182,358.678,776.604,239.567z M1088.255,239.292c-0.07-48.974-39.951-88.947-88.856-89.06
	c-49.031-0.114-89.44,40.386-89.222,89.422c0.217,48.849,40.423,88.812,89.255,88.712
	C1048.326,328.267,1088.325,288.156,1088.255,239.292z M343.633,1151.994c123.498,0.027,223.173,99.909,222.652,223.963
	c-0.532,126.678-104.258,222.055-222.933,221.597c-123.077-0.475-222.502-99.744-222.44-222.863
	C120.973,1251.794,220.81,1151.968,343.633,1151.994z M343.586,1285.947c-49.023,0.039-88.915,39.831-89.03,88.809
	c-0.115,48.741,40.024,89.004,88.849,89.123c49.136,0.12,89.517-40.233,89.333-89.27
	C432.554,1325.611,392.632,1285.908,343.586,1285.947z M1072.637,1085.353c-15.414,10.888-32.344,17.782-51.147,19.785
	c-36.328,3.871-67.576-6.971-90.969-35.148c-29.086-35.034-33.925-75.195-18.158-117.2c17.949-47.815,63.889-73.279,114.302-65.231
	c16.652,2.658,31.635,9.15,45.372,18.826c8.041,5.664,11.692,4.936,17.362-2.926c0.382-0.529,0.747-1.07,1.123-1.604
	c14.037-19.927,28.076-39.853,42.111-59.781c1.002-1.423,2.09-2.8,2.946-4.308c3.092-5.445,2.492-10.43-1.915-14.873
	c-1.516-1.529-3.31-2.828-5.121-4.012c-49.21-32.138-102.936-42.965-160.33-31.178c-119.788,24.599-192.351,141.572-164.764,258.381
	c28.986,122.73,158.826,194.775,281.137,150.187c16.638-6.065,32.245-14.167,46.899-24.077c7.826-5.292,9.343-11.068,4.43-18.224
	c-15.398-22.425-30.949-44.746-46.633-66.972c-1.752-2.482-4.737-4.094-7.37-6.293
	C1078.354,1082.458,1075.226,1083.524,1072.637,1085.353z"/>
</svg>
