<?xml version="1.0" encoding="iso-8859-1"?>
<!-- Generator: Adobe Illustrator 19.0.0, SVG Export Plug-In . SVG Version: 6.00 Build 0)  -->
<svg version="1.1" id="Layer_1" xmlns="http://www.w3.org/2000/svg" xmlns:xlink="http://www.w3.org/1999/xlink" x="0px" y="0px"
	 viewBox="0 0 500 500" enable-background="new 0 0 500 500" xml:space="preserve">
<path d="M287.948,76.109c-1.24,29.221-2.219,59.397-3.909,89.534c-1.075,19.168-2.917,38.307-4.954,57.401
	c-1.688,15.826-4.256,31.556-6.266,47.35c-1.804,14.182-3.142,28.425-5.115,42.582c-2.411,17.302-5.334,34.533-7.909,51.813
	c-1.311,8.796-2.467,17.62-3.471,26.456c-0.946,8.33-6.684,12.061-14.38,8.897c-0.906-0.372-1.72-1.89-1.894-2.985
	c-3.367-21.26-6.691-42.526-9.9-63.81c-3.095-20.525-6.234-41.046-8.999-61.617c-1.727-12.851-2.682-25.803-4.19-38.685
	c-1.604-13.699-3.84-27.333-5.102-41.06c-1.862-20.258-3.076-40.576-4.624-60.864c-1.96-25.7-3.82-51.409-6.084-77.082
	c-0.564-6.402,1.554-9.964,6.61-14.128c14.506-11.948,31.177-14.582,48.566-12.014c11.268,1.663,21.347,7.885,29.55,16.173
	c1.44,1.455,1.917,4.345,1.979,6.596C288.086,58.826,287.948,66.998,287.948,76.109z M196.702,52.938
	c-0.031-0.543,0.094-1.232-0.186-1.599c-1.144-1.496-2.133-3.536-3.689-4.225c-11.57-5.129-22.809-1.509-32.619,3.966
	c-9.178,5.122-16.86,12.959-25.088,19.738c-8.955,7.377-10.159,16.761-7.692,27.627c3.044,13.403,5.136,27.02,7.772,40.519
	c2.421,12.396,4.645,24.849,7.634,37.111c3.618,14.841,7.948,29.509,11.972,44.251c3.595,13.168,6.54,26.557,10.929,39.454
	c8.383,24.637,17.141,49.169,26.583,73.418c8.882,22.81,18.815,45.211,28.387,67.75c0.857,2.019,1.443,3.963,5.233,3.165
	c8.689-1.828,8.786-1.324,7.611-10.149c-0.321-2.406-0.485-4.835-0.866-7.23c-2.452-15.418-5.111-30.805-7.383-46.25
	c-3.218-21.875-6.221-43.783-9.197-65.693c-1.964-14.457-3.981-28.914-5.5-43.421c-1.862-17.789-3.189-35.633-4.821-53.446
	c-1.829-19.966-3.739-39.925-5.003-53.376C199.173,96.317,197.939,74.628,196.702,52.938z M292.338,58.682
	c0.391,33.747-0.135,67.47-3.228,101.12c-1.414,15.387-2.186,30.832-3.385,46.24c-1.028,13.215-1.863,26.462-3.473,39.611
	c-2.357,19.246-5.424,38.404-8.008,57.623c-1.831,13.624-3.102,27.326-5.098,40.924c-2.425,16.526-5.426,32.968-8.018,49.471
	c-1.053,6.705,2.236,10.169,8.668,8.552c2.295-0.577,4.631-3.509,5.731-5.921c9.617-21.091,19.162-42.22,28.329-63.51
	c11.6-26.939,22.37-54.253,29.21-82.822c5.626-23.496,10.469-47.209,14.751-70.989c3.534-19.627,5.93-39.469,8.444-59.265
	c1.091-8.596,0.24-17.521,2.016-25.928c2.313-10.953-0.158-19.669-7.991-27.257c-3.49-3.381-6.681-7.103-10.382-10.227
	c-9.364-7.904-19.952-12.899-34.409-12.463C294.035,43.804,292.152,42.667,292.338,58.682z M364.095,88.948
	c-0.813,14.881-1.394,29.833-3.402,44.576c-3.197,23.471-6.651,46.967-11.511,70.134c-5.228,24.925-11.047,49.846-18.671,74.12
	c-12.829,40.848-30.914,79.676-49.024,118.42c-4.098,8.767-4.048,8.403,4.942,11.415c3.208,1.074,4.322,0.232,5.851-2.026
	c2.241-3.311,4.724-6.457,7.092-9.682c23.593-32.13,46.224-64.927,64.8-100.249c23.489-44.666,41.781-91.57,59.512-138.777
	c6.145-16.36,4.752-29.797-4.24-43.697c-11.636-17.987-28.603-27.053-49.17-30.063C365.219,82.082,364.336,84.526,364.095,88.948z
	 M112.938,92.993c-4.92,2.023-10.27,3.718-14.336,6.944c-7.632,6.055-14.886,12.721-21.518,19.857
	c-5.038,5.421-10.327,11.107-7.308,20.153c5.759,17.26,10.165,34.995,16.43,52.056c8.354,22.75,16.906,45.536,27.234,67.428
	c18.564,39.352,39.77,77.324,65.469,112.589c8.574,11.765,17.545,23.24,26.213,34.939c2.638,3.56,5.485,3.707,9.185,1.857
	c4.29-2.146,2.08-4.906,0.945-7.483c-4.443-10.092-9.362-19.99-13.426-30.229c-11.421-28.774-22.92-57.53-33.563-86.595
	c-6.191-16.906-10.886-34.367-16.075-51.631c-2.541-8.454-4.794-17.001-6.96-25.561c-3.166-12.508-6.237-25.043-9.159-37.61
	c-2.563-11.022-5.037-22.071-7.243-33.17c-2.951-14.848-5.604-29.755-8.421-44.829C117.563,92.163,115.062,92.119,112.938,92.993z
	 M404.095,222.092c-25.182,65.343-60.844,124.7-102.849,180.441c-6.687,8.873-6.592,8.518,2.086,15.317
	c3.742,2.932,5.449,3.123,9.041-0.5c33.6-33.889,66.756-68.155,95.112-106.698c23.831-32.393,44.943-66.489,63.16-102.35
	c1.806-3.556,4.4-7.668,4.004-11.23c-2.522-22.665-10.596-43.188-39.948-53.343C424.377,170.143,414.122,196.073,404.095,222.092z
	 M196.803,405.194c-26.061-32.493-48.782-67.189-68.052-104.099c-14.877-28.493-29.199-57.282-40.275-87.52
	c-7.549-20.609-14.735-41.354-21.797-62.136c-2.33-6.857-6.543-9.279-12.434-5.375c-12.051,7.986-24.485,15.197-31.192,29.515
	c-3.062,6.537-4.842,11.885-2.618,18.625c12.383,37.543,33.946,69.993,57.33,101.192c14.586,19.461,30.303,38.208,46.857,56.026
	c20.327,21.88,41.922,42.593,63.257,63.517c6.721,6.592,7.151,6.167,14.625,0.757c0.41-0.297,0.605-0.891,1.065-1.602
	C201.36,411.182,199.156,408.128,196.803,405.194z M317.667,433.101c2.415,4.41,4.993,4.003,8.345,1.202
	c20.152-16.841,41.375-32.559,60.277-50.697c25.149-24.132,48.876-49.791,72.474-75.473c12.347-13.438,22.894-28.463,31.103-44.959
	c9.849-19.793,6.323-39.8-7.644-51.896c-3.017-2.613-4.71-4.074-7.622,1.101c-12.274,21.818-25.168,43.291-38.055,64.759
	c-22.162,36.919-49.598,69.757-78.991,101.023c-14.909,15.859-30.171,31.387-45.503,47.302
	C313.891,427.918,316.14,430.312,317.667,433.101z M173.465,409.707c-27.569-26.846-55.068-53.808-78.631-84.35
	c-15.1-19.572-30.169-39.253-43.797-59.848c-10.607-16.029-18.985-33.535-28.316-50.405c-3.57-6.455-4.033-6.597-8.444-0.991
	C1.24,230.684,0.724,248.808,9.273,267.121c8.266,17.707,20.519,32.857,34.515,46.386c22.321,21.577,44.864,42.932,67.657,64.01
	c12.309,11.383,25.18,22.177,38.078,32.898c10.721,8.911,21.853,17.328,33.105,26.203c2.954-4.028,5.488-7.483,8.426-11.488
	C184.849,419.717,178.889,414.988,173.465,409.707z M244.593,406.847c-23.19,0.65-41.238,10.832-54.899,29.384
	c-1.683,2.286-3.085,3.664,0.039,5.786c17.05,11.585,33.389,24.489,52.78,31.971c5.398,2.083,13.314,2.789,18.124,0.322
	c17.388-8.916,33.98-19.393,50.791-29.419c4.122-2.459,5.045-5.114,1.409-9.671c-15.685-19.65-35.399-30.105-60.848-28.383
	C249.49,406.837,247.04,406.778,244.593,406.847z"/>
</svg>
