<?xml version="1.0" encoding="iso-8859-1"?>
<!-- Generator: Adobe Illustrator 19.0.0, SVG Export Plug-In . SVG Version: 6.00 Build 0)  -->
<svg version="1.1" id="Layer_1" xmlns="http://www.w3.org/2000/svg" xmlns:xlink="http://www.w3.org/1999/xlink" x="0px" y="0px"
	 viewBox="0 0 500 500" style="enable-background:new 0 0 500 500;" xml:space="preserve">
<path d="M353.422,312.126c4.65-14.987,10.237-29.255,13.453-44.038c10.789-49.601-18.801-106.909-64.858-128.64
	c-69.539-32.811-146.188,5.089-166.404,76.667c-22.007,77.92,38.71,155.437,120.057,152.264
	c100.418-3.917,175.489-51.077,227.43-136.342c1.812-2.975,3.644-5.937,6.749-10.994c0.914,4.742,1.841,7.542,1.944,10.373
	c3.651,99.877-36.317,177.862-121.257,229.952c-53.967,33.096-114.234,41.681-176.048,25.715
	C100.28,462.748,39.903,401.533,15.801,308.421C-15.216,188.599,45.859,69.387,156.38,21.373
	c95.115-41.32,207.145-14.88,274.813,63.454c18.568,21.494,33.769,45.205,43.465,72.006c1.888,5.218,2.192,12.207,0.379,17.381
	c-20.269,57.845-57.705,101.636-110.414,132.561C361.078,308.855,357.186,310.345,353.422,312.126z"/>
</svg>
