<?xml version="1.0" encoding="iso-8859-1"?>
<!-- Generator: Adobe Illustrator 19.0.0, SVG Export Plug-In . SVG Version: 6.00 Build 0)  -->
<svg version="1.1" id="Layer_1" xmlns="http://www.w3.org/2000/svg" xmlns:xlink="http://www.w3.org/1999/xlink" x="0px" y="0px"
	 viewBox="0 0 500 500" style="enable-background:new 0 0 500 500;" xml:space="preserve">
<path d="M31.834,376.485c0-33.558-0.008-67.116,0.017-100.675c0.002-2.221,0.173-4.451,0.407-6.662
	c0.315-2.977,2.559-4.865,5.501-4.862c33.805,0.034,67.609,0.084,101.414,0.034c2.541-0.004,4.471,0.813,5.637,2.858
	c1.172,2.055-0.168,3.796-1.241,5.626c-6.824,11.645-13.538,23.354-20.269,35.054c-1.662,2.889-3.364,5.765-4.834,8.752
	c-0.963,1.957-2.496,2.878-4.431,2.657c-2.137-0.245-3.809-1.541-4.096-3.87c-1.51-12.259-16.833-18.086-26.593-10.514
	c-6.022,4.672-7.693,9.592-5.404,18.882c3.773,15.309,7.91,30.53,12.053,45.745c1.531,5.623,3.198,11.25,5.385,16.639
	c1.675,4.127,5.565,5.931,9.851,6.772c7.079,1.39,13.543-1.389,20.158-2.989c7.679-1.858,15.306-3.936,22.937-5.989
	c7.695-2.07,15.529-3.774,23.001-6.474c6.844-2.473,12.232-6.724,13.313-14.97c1.195-9.114-5.129-17.664-13.688-18.428
	c-2.931-0.262-5.994,0.456-8.939,1.025c-1.973,0.381-3.667,0.523-5.107-1.134c-1.588-1.826-1.465-3.722-0.325-5.69
	c5.384-9.289,10.784-18.568,16.145-27.869c2.927-5.079,5.785-10.198,8.681-15.296c1.154-2.031,2.307-4.267,5.034-4.193
	c2.862,0.078,4.159,2.193,5.453,4.54c5.229,9.486,10.643,18.87,16.018,28.275c4.789,8.38,9.622,16.734,14.425,25.105
	c5.403,9.417,10.884,18.791,16.139,28.29c1.726,3.12,3.85,6.379,2.532,10.262c-0.367,1.082-1.236,2.261-2.206,2.832
	c-20.742,12.2-41.509,24.356-62.317,36.444c-23.148,13.448-46.333,26.834-69.517,40.22c-15.9,9.18-31.877,18.228-47.721,27.504
	c-8.692,5.089-19.122,3.596-24.671-5.6c-1.584-2.626-2.615-6.034-2.631-9.09C31.768,445.295,31.834,410.89,31.834,376.485z
	 M248.267,271.661c-8.412,0-16.825-0.007-25.237,0.003c-5.042,0.006-6.943,3.115-4.376,7.527
	c9.208,15.824,18.552,31.568,27.782,47.379c7.206,12.344,14.286,24.761,21.492,37.105c2.666,4.567,7.146,6.368,12.74,3.027
	c12.51-7.473,25.153-14.726,37.775-22.011c46.283-26.713,92.58-53.4,138.87-80.1c5.898-3.402,9.126-8.557,9.207-15.317
	c0.082-6.851-3.393-11.969-9.196-15.325c-53.782-31.103-107.597-62.15-161.409-93.201c-5.893-3.401-11.81-6.763-17.758-10.067
	c-2.943-1.634-5.615-0.738-7.787,1.5c-1.478,1.522-2.831,3.242-3.9,5.073c-13.055,22.348-26.043,44.736-39.06,67.107
	c-3.051,5.244-6.247,10.407-9.176,15.717c-1.857,3.367,0.08,6.639,3.843,6.652c17.291,0.062,34.583,0.105,51.872-0.053
	c1.295-0.012,3.159-1.407,3.684-2.623c0.444-1.028-0.228-3.268-1.17-4.041c-5.03-4.132-7.155-9.289-6.799-15.73
	c0.451-8.17,9.963-16.254,18.042-15.298c6.554,0.776,11.833,4.013,16.298,8.525c13.008,13.143,25.876,26.424,38.762,39.686
	c6.717,6.913,7.188,17.406-0.556,24.648c-6.001,5.613-11.88,11.358-17.728,17.132c-8.369,8.264-16.663,16.605-24.984,24.918
	c-5.003,4.998-10.84,6.828-17.639,4.397c-12.302-4.4-15.458-20.403-5.783-29.233c1.585-1.447,2.6-2.954,1.756-5.124
	c-0.829-2.13-2.599-2.291-4.609-2.274c-8.318,0.072-16.637,0.03-24.956,0.03C248.267,271.68,248.267,271.67,248.267,271.661z
	 M32.95,121.002c0,33.926-0.003,67.852,0.011,101.777c0,1.209,0.127,2.423,0.258,3.627c0.329,3,2.36,4.6,4.972,5.341
	c2.038,0.578,4.224,0.868,6.346,0.882c21.592,0.141,43.185,0.2,64.777,0.28c10.37,0.038,20.74,0.147,31.109,0.07
	c4.038-0.03,5.898-3.342,3.931-6.772c-8.549-14.913-17.105-29.823-25.83-44.632c-0.674-1.145-2.642-1.992-4.079-2.106
	c-1.834-0.146-2.898,1.3-3.163,3.254c-0.86,6.321-4.318,10.693-9.986,13.582c-7.41,3.777-19.231-0.421-22.457-8.09
	c-2.714-6.452-2.183-12.98-0.391-19.466c4.702-17.01,9.62-33.96,14.268-50.984c2.877-10.536,11.909-16.154,23.303-12.735
	c18.681,5.605,37.568,10.526,56.391,15.65c6.605,1.798,11.072,5.649,12.637,12.427c3.285,14.225-11.668,24.576-22.465,20.283
	c-1.917-0.762-3.669-0.698-5.074,0.97c-1.457,1.73-0.853,3.338,0.178,5.113c8.399,14.45,16.721,28.946,25.074,43.423
	c2.625,4.55,6.247,4.66,8.872,0.077c9.797-17.103,19.46-34.282,29.241-51.395c6.117-10.703,12.358-21.335,18.536-32.003
	c3.22-5.56,3.253-10.417-3.194-14.02c-12.807-7.157-25.497-14.524-38.202-21.862C151.799,57.001,105.601,30.28,59.388,3.587
	c-5.804-3.353-11.828-3.464-17.621-0.23c-6.084,3.396-8.724,9.061-8.735,15.861c-0.055,33.928-0.025,67.856-0.025,101.784
	C32.987,121.002,32.969,121.002,32.95,121.002z"/>
</svg>
