<?xml version="1.0" encoding="iso-8859-1"?>
<!-- Generator: Adobe Illustrator 19.0.0, SVG Export Plug-In . SVG Version: 6.00 Build 0)  -->
<svg version="1.1" id="Layer_1" xmlns="http://www.w3.org/2000/svg" xmlns:xlink="http://www.w3.org/1999/xlink" x="0px" y="0px"
	 viewBox="0 0 500 500" enable-background="new 0 0 500 500" xml:space="preserve">
<path d="M495.882,250.027c-0.029,135.583-109.736,245.276-245.21,245.18C115.254,495.11,5.736,385.246,5.852,249.615
	C5.968,114.502,115.964,4.786,251.09,5C386.45,5.215,495.91,114.78,495.882,250.027z M250.884,454.019
	c112.566,0.012,203.737-91.141,203.832-203.79c0.095-112.585-91.043-203.961-203.565-204.097
	C138.506,45.997,47.075,137.295,47.028,249.961C46.98,362.703,138.194,454.007,250.884,454.019z M381.611,125.879
	c-71.805-76.04-193.657-74.807-264.201,3.033c-69.044,76.185-58.06,188.284,7.605,250.071c8.893-9.558,17.788-19.117,26.692-28.687
	c-55.813-54.564-55.483-145.128-0.188-200.022c52.477-52.097,136.221-55.038,191.598-6.576c27.882,24.4,44.227,55.185,47.78,92.063
	c4.403,45.689-10.765,84.581-42.857,116.554c4.524,4.764,9.141,9.344,13.424,14.216c4.283,4.871,8.232,10.035,12.453,15.225
	C444.694,316.709,452.878,201.349,381.611,125.879z M356.151,216.346c-14.63-45.904-57.667-77.113-105.528-76.824
	c-48.895,0.295-91.434,31.91-105.553,78.617c-13.671,45.227,3.612,90.484,32.705,114.618c12.86-4.718,25.332-9.294,37.623-13.804
	c-21.026-11.479-35.184-29.003-40.144-53.115c-4.957-24.099,0.505-46.042,16.143-65.064c27.666-33.654,77.913-37.591,110.45-8.795
	c16.147,14.29,25.338,32.345,26.134,53.87c1.248,33.723-14.339,58.13-42.771,73.854c12.011,4.659,24.356,9.448,37.244,14.447
	C354.064,308.41,370.67,261.899,356.151,216.346z"/>
</svg>
