<?xml version="1.0" encoding="iso-8859-1"?>
<!-- Generator: Adobe Illustrator 19.0.0, SVG Export Plug-In . SVG Version: 6.00 Build 0)  -->
<svg version="1.1" id="Layer_1" xmlns="http://www.w3.org/2000/svg" xmlns:xlink="http://www.w3.org/1999/xlink" x="0px" y="0px"
	 viewBox="0 0 2000 2000" style="enable-background:new 0 0 2000 2000;" xml:space="preserve">
<path d="M1184.555,1859.871c0,43.277,0,84.48,0,127.399c-26.653,0-51.572,0-78.812,0c0-39.253,0-77.665,0-117.954
	c-22.852,0-43.456,0-66.766,0c0,38.621,0,77.048,0,117.579c-26.567,0-50.534,0-77.935,0c0-41.287,0-82.23,0-123.708
	c-33.542-7.917-64.385-13.936-94.49-22.535c-98.29-28.075-185.156-77.269-265.09-140.854
	c-139.995-111.363-212.323-260.574-246.465-431.653c-18.797-94.188-29.46-189.66-26.28-285.632
	c4.397-132.734,20.842-263.682,66.608-389.927C446.3,451.969,535.013,342.684,658.04,259.079
	c90.786-61.695,189.965-100.603,301.942-117.248c0-42.722,0-85.282,0-129.162c27.203,0,50.592,0,77.287,0
	c0,40.195,0,80.13,0,121.799c23.854,0,44.445,0,67.109,0c0-40.172,0-79.531,0-121.045c26.863,0,51.807,0,79.433,0
	c0,42.186,0,84.955,0,130.444c95.3,15,183.279,45.306,263.518,95.891c80.257,50.597,149.871,113.051,211.323,189.857
	c-80.229,73.807-159.566,146.794-240.861,221.581c-60.52-78.293-132.989-137.812-233.072-162.35c0,33.976,0,65.428,0,99.716
	c-27.209-4.414-51.874-8.416-78.695-12.767c0-32.709,0-65.038,0-100.195c-22.665,0-43.094,0-66.501,0c0,33.274,0,65.436,0,99.931
	c-26.485,5.927-50.716,11.35-78.74,17.622c0-35.689,0-69.627,0-106.576c-50.839,9.884-93.106,28.975-131.454,56.946
	c-69.635,50.792-111.594,121.077-136.149,201.754c-32.284,106.071-42.331,214.771-33.728,325.555
	c5.801,74.7,16.717,147.89,43.537,218.29c37.764,99.129,100.878,173.9,201.644,213.273c4.094,1.599,8.069,3.598,12.274,4.801
	c12.51,3.579,25.108,6.854,42.536,11.562c0-36.206,0-70.648,0-107.617c27.842,5.595,50.707,10.19,77.88,15.65
	c0,32.637,0,66.322,0,101.212c24.262,0,44.26,0,66.966,0c0-32.246,0-64.414,0-98.406c26.925-5.014,51.618-9.612,79.542-14.812
	c0,33.771,0,66.553,0,101.672c50.545-10.74,93.641-30.309,130.601-60.108c36.706-29.595,69.879-63.572,107.274-98.096
	c76.1,69.856,155.505,142.748,237.938,218.418C1530.785,1721.5,1380.325,1825.103,1184.555,1859.871z M1110.942,1246.406
	c-92.529,11.476-177.793-23.674-207.051-127.625c-22.523-80.02-21.749-159.737,1.604-238.84
	c10.261-34.76,29.162-65.627,59.071-88.294c60.062-45.52,157.879-47.914,222.883-4.099c17.276,11.645,32.365,26.536,46.563,38.359
	c35.177-34.944,70.344-69.878,106.256-105.553c-80.16-87.97-178.321-128.935-299.941-118.054
	c-117.588,10.521-249.105,99.848-284.373,244.209c-24.033,98.375-26.378,196.406-4.32,294.843
	c13.214,58.97,37.082,113.621,80.572,156.973c89.984,89.698,198.093,123.93,322.738,97.538
	c74.287-15.729,134.439-57.403,185.159-112.262c-36.046-35.341-71.075-69.684-107.79-105.68
	C1201.889,1215.842,1161.103,1240.184,1110.942,1246.406z M1107.462,1220.929c36.597-3.931,57.04-12.785,76.277-32.229
	c0-125.199,0-250.123,0-374.257c-29.281-21.707-47.453-28.879-76.277-29.95C1107.462,931.244,1107.462,1075.989,1107.462,1220.929z
	 M962.118,827.879c0,117.604,0,234.564,0,350.547c21.046,21.985,43.558,36.842,74.523,38.9c0-144.555,0-286.95,0-430.502
	C1004.93,790.552,981.06,804.708,962.118,827.879z"/>
</svg>
