<?xml version="1.0" encoding="iso-8859-1"?>
<!-- Generator: Adobe Illustrator 19.0.0, SVG Export Plug-In . SVG Version: 6.00 Build 0)  -->
<svg version="1.1" id="Layer_1" xmlns="http://www.w3.org/2000/svg" xmlns:xlink="http://www.w3.org/1999/xlink" x="0px" y="0px"
	 viewBox="0 0 2000 2000" style="enable-background:new 0 0 2000 2000;" xml:space="preserve">
<path d="M1717.729,221.975c55.115-53.844,110.191-107.65,168.637-164.747c0,98.818,0,193.984,0,281.652
	c-164.379,169.338-325.859,335.69-491.512,506.339c-63.624-108.852-152.508-172.17-273.818-183.586
	c-57.846-5.444-112.885,6.579-165.459,32.089c198.873,199.614,395.683,397.158,591.509,593.714
	c-115.619,197.646-436.148,348.175-744.407,160.467c-52.254,52.296-103.965,104.048-155.471,155.595
	c219.569,194.205,730.553,259.825,1054.938-144.597c52.973,51.546,106.216,103.355,159.655,155.354
	c-235.867,339.377-872.167,554.753-1390.759,151.446c-69.621,69.976-139.705,140.418-213.434,214.522c0-99.525,0-194.575,0-292.828
	c181.672-178.82,365.376-359.641,548.623-540.011c115.018,164.292,297.253,223.219,433.108,137.917
	c-196.064-196.955-392.17-393.952-590.903-593.587c84.791-122.075,198.633-200.452,344.227-230.233
	c146.226-29.911,281.984,0.55,404.035,78.457c52.25-51.901,102.411-101.728,152.465-151.449
	c-174.173-150.876-505.048-220.696-792.788-74.876c-113.31,57.423-207.495,137.331-280.935,241.215
	c-73.292,103.675-118.002,218.27-134.21,344.508c-16.206,126.22,0.47,248.31,42.838,367.024
	c-58.942,56.888-116.077,112.032-172.389,166.382C38.769,1117.238,59.508,615.648,414.023,276.931
	C749.848-43.931,1303.455-103.957,1717.729,221.975z"/>
</svg>
