<?xml version="1.0" encoding="iso-8859-1"?>
<!-- Generator: Adobe Illustrator 19.0.0, SVG Export Plug-In . SVG Version: 6.00 Build 0)  -->
<svg version="1.1" id="Layer_1" xmlns="http://www.w3.org/2000/svg" xmlns:xlink="http://www.w3.org/1999/xlink" x="0px" y="0px"
	 viewBox="0 0 2000 2000" style="enable-background:new 0 0 2000 2000;" xml:space="preserve">
<path d="M1404.213,1566.064c14.424-98.029,23.131-193.418,43.877-286.111c15.097-67.454,39.48-134.882,72.005-195.76
	c28.11-52.615,86.161-78.041,144.17-88.375c74.801-13.327,150.042-6.748,217.849,30.697
	c67.104,37.056,78.426,106.979,87.019,173.777c19.172,149.049-55.237,258.385-157.129,355.356
	c-73.967,70.395-158.859,119.112-257.874,145.753c-26.776,7.204-50.509,22.279-71.788,48.654
	c-121.808,150.978-285.194,222.711-477.2,230.92c-305.111,13.044-547.038-117.216-740.669-341.594
	c-125.062-144.921-195.56-315.874-221.756-508.955C9.014,882.001,65.139,656.991,202.158,454.397
	c147.52-218.121,350.839-364.05,615.076-412.05c75.409-13.698,152.91-30.554,228.382-26.422
	c210.523,11.526,406.956,69.608,574.325,206.302c89.222,72.87,179.944,143.973,226.87,253.876
	c74.621,174.765-14.839,365.815-231.489,380.602c-99.368,6.782-178.662-31.753-233.701-114.7
	c-66.572-100.329-166.354-147.579-277.25-175.484c-153.704-38.677-291.151,10.824-397.778,114.214
	C577.28,806.123,536.557,965.044,593.13,1144.371c61.699,195.577,204.814,302.499,385.578,374.082
	C1112.668,1571.502,1250.864,1578.916,1404.213,1566.064z M1225.338,1761.049c-0.58-5.336-1.16-10.672-1.741-16.008
	c-258.724-33.027-495.663-109.5-668.826-321.871c-103.238-126.614-154.167-273.814-152.464-432.094
	c1.262-117.288,36.316-233.98,108.897-332.193c146.911-198.791,339.084-296.229,590.898-263.965
	c145.995,18.706,266.814,82.027,366.829,187.829c17.643,18.664,32.355,40.067,49.011,59.705
	c40.425,47.664,106.691,58.188,149.703,24.162c41.994-33.221,46.248-90.618,12.068-144.224
	c-55.856-87.602-135.054-152.142-218.198-209.885c-115.572-80.263-248.76-121.148-387.915-127.423
	c-268.658-12.116-496.196,79.438-673.872,287.049c-164.706,192.456-225.462,411.203-186.543,661.893
	c32.561,209.741,131.126,377.18,294.011,510.929c166.488,136.708,357.125,187.58,568.078,162.863
	C1126.42,1801.824,1175.375,1777.139,1225.338,1761.049z M1595.572,1505.505c101.343-53.425,169.743-128.741,210.796-228.28
	c19.785-47.972-2.76-106.463-41.606-117.441c-70.954-20.051-124.586,16.108-134.391,90.033
	C1619.482,1331.91,1608.06,1413.931,1595.572,1505.505z"/>
</svg>
