<?xml version="1.0" encoding="iso-8859-1"?>
<!-- Generator: Adobe Illustrator 19.0.0, SVG Export Plug-In . SVG Version: 6.00 Build 0)  -->
<svg version="1.1" id="Layer_1" xmlns="http://www.w3.org/2000/svg" xmlns:xlink="http://www.w3.org/1999/xlink" x="0px" y="0px"
	 viewBox="0 0 500 500" style="enable-background:new 0 0 500 500;" xml:space="preserve">
<path d="M71.691,165.617c12.293-5.117,24.608-10.242,37.601-15.65c3.705-23.39,4.379-47.393,7.876-71.235
	c30.128-20.492,60.361-41.055,90.632-61.645c21.391,3.755,42.899,7.531,65.072,11.424c13.333-7.315,27.155-14.9,41.025-22.51
	c22.245,4.786,44.443,9.562,66.79,14.37c9.072,6.126,18.179,12.531,27.569,18.491c3.854,2.446,6.675,5.474,8.989,9.296
	c7.27,12.007,14.675,23.932,22.47,36.609c-8.404,13.7-16.934,27.606-26.056,42.475c-22.232,5.062-45.136,10.277-68.399,15.574
	c-4.72-11.359-9.402-22.629-14.269-34.342c-13.333-2.394-26.785-4.809-38.959-6.994c-27.619,7.807-50.635,22.357-75.117,36.318
	c-1.194,20.881-2.412,42.195-3.646,63.784c-9.941,11.895-20.066,24.011-30.692,36.725c12.187,19.026,24.145,37.697,36.703,57.303
	c-2.641,9.278-5.482,19.257-8.216,28.86c8.251,9.268,15.854,17.807,23.859,26.799c6.237,1.135,12.805,2.447,19.412,3.509
	c18.14,2.916,36.29,5.768,54.454,8.528c2.274,0.346,4.759,0.423,6.968-0.111c16.976-4.096,33.907-8.374,50.512-12.511
	c6.766-7.5,13.243-14.68,19.848-22.001c13.415,5.173,26.702,10.296,40.742,15.71c6.862,26.417,13.803,53.14,20.925,80.556
	c-5.772,3.235-11.816,6.649-17.884,10.02c-17.378,9.652-34.954,18.966-52.074,29.055c-9.277,5.467-19.605,7.259-29.519,10.496
	c-7.191,2.348-14.832,3.401-21.885,6.06c-7.828,2.951-16.014,3.76-24.019,4.348c-14.694,1.081-28.815,4.12-42.718,8.763
	c-14.878-5.128-29.71-10.375-44.649-15.298c-4.041-1.331-7.27-3.435-10.203-6.391c-11.378-11.469-22.734-22.964-34.351-34.186
	c-2.62-2.531-6.04-4.611-9.47-5.863c-16.962-6.19-34.05-12.032-52.143-18.364c-2.51-6.598-5.345-13.868-8.046-21.188
	c-6.553-17.765-12.946-35.589-19.582-53.323c-10.606-28.343-21.356-56.632-32.294-85.604c9.141-7.374,17.958-14.487,27.126-21.882
	C74.63,209.869,73.18,188.041,71.691,165.617z M289.769,402.806c-24.315-8.402-47.297-16.344-70.495-24.361
	c-9.692,13.024-18.85,25.331-27.878,37.462c0.806,1.066,1.053,1.76,1.5,1.932c13.573,5.22,27.148,10.438,40.776,15.512
	c2.104,0.783,4.47,0.863,6.104,1.158C256.509,423.898,272.528,413.74,289.769,402.806z M53.949,253.996
	c8.212,23.114,16.288,45.847,24.67,69.441c12.368-18.304,24.295-35.957,36.571-54.125c-12.568-11.121-24.281-22.861-37.375-33.81
	C69.849,241.674,62.498,247.371,53.949,253.996z M176.875,239.142c-11.824-4.135-22.518-7.948-33.273-11.58
	c-2.433-0.821-5.102-1.523-7.622-1.406c-12.291,0.569-24.596,1.151-36.838,2.332c-4.95,0.477-10.306,0.926-15.26,5.265
	c22.778,13.018,44.936,25.683,67.473,38.563C160.003,261.075,168.195,250.426,176.875,239.142z M423.806,347.823
	c-12.79-1.792-24.744-3.467-37.846-5.303c0.809,12.208,1.557,23.491,2.266,34.184c17.771,13.935,34.869,27.344,51.967,40.752
	c0.433-0.262,0.867-0.525,1.3-0.787C435.669,393.996,429.844,371.323,423.806,347.823z M364.921,427.979
	c0.019-0.572,0.038-1.145,0.057-1.717c-23.092-7.171-46.185-14.342-69.217-21.494c-9.542,24.526-16.322,46.784-15.855,51.883
	C308.253,447.091,336.587,437.535,364.921,427.979z M174.763,339.355c-21.429-6.006-42.383-11.878-63.561-17.813
	c-7.711,4.344-15.473,8.716-24.761,13.948c24.041,12.008,46.515,23.233,69.416,34.672
	C162.408,359.488,168.451,349.64,174.763,339.355z M377.901,24.394c-33.927,2.677-66.213,5.225-98.605,7.781
	c6.52,6.401,12.72,12.488,19.85,19.487c24.416-1.868,50.252-3.844,76.235-5.831C376.202,38.836,376.968,32.327,377.901,24.394z
	 M115.904,316.804c22.298-1.299,43.142-2.162,64.236-4.833c0-6.411,0.088-12.244-0.024-18.074
	c-0.117-6.033,0.544-12.127-0.62-18.906c-9.567,0.805-18.531,1.559-27.264,2.294C140.186,290.388,128.528,303.071,115.904,316.804z
	 M264.043,60.901c-14.611,2.486-28.81,4.902-43.76,7.445c2.858,7.682,5.449,14.644,8.179,21.982
	c19.103,2.12,38.02,4.219,58.27,6.466C278.686,84.065,271.409,72.553,264.043,60.901z M331.955,104.662
	c5.887-3.996,11.805-8.012,18.558-12.596c-17.64-11.708-34.309-22.771-52.072-34.56c-2.934,13.674-3.364,26.43-5.688,39.921
	C305.783,99.832,318.286,102.14,331.955,104.662z M302.343,55.419c17.91,11.844,34.376,22.732,51.194,33.854
	c6.963-13.455,13.471-26.032,20.362-39.347C349.956,51.764,327.045,53.522,302.343,55.419z M141.118,382.061
	c-17.084-12.746-33.72-25.164-50.385-37.543c-0.362-0.269-1.064-0.081-2.834-0.163c2.969,11.197,7.523,21.47,11.198,31.999
	c3.689,10.567,7.796,20.989,11.986,32.187C121.607,399.264,131.196,390.809,141.118,382.061z M129.291,75.188
	c0.152,0.518,0.304,1.036,0.456,1.554c17.872-2.046,35.745-4.092,53.328-6.106c6.449-14.605,12.622-28.587,18.796-42.57
	c-0.482-0.404-0.965-0.808-1.447-1.212C176.714,42.965,153.003,59.076,129.291,75.188z M309.897,367.363
	c-22.974-3.638-45.033-7.131-68.858-10.904c18.363,14.931,35.325,28.723,52.772,42.909
	C299.202,388.642,304.277,378.545,309.897,367.363z M210.061,471.335c4.541-7.337,8.76-14.154,13.094-21.158
	c-12.142-10.188-23.552-19.762-34.879-29.265c-7.332,3.36-12.23,7.012-16.385,12.1C184.308,445.479,196.714,457.934,210.061,471.335
	z M196.401,134.146c-0.383-0.508-0.766-1.015-1.149-1.523c-12.843,4.988-26.424,7.853-38.935,13.576
	c-4.166,19.02-9.632,37.134-12.076,56.055C161.628,179.552,179.015,156.849,196.401,134.146z M215.967,376.205
	c-11.769-10.941-23.039-21.418-35.561-33.058c1.643,12.742,3.096,23.654,4.446,34.578c1.366,11.05,1.606,22.273,4.546,34.333
	C198.748,399.441,207.224,388.003,215.967,376.205z M141.959,219.084c16.746-14.298,33.565-28.658,50.23-42.887
	c2.569-12.772,5.061-25.162,7.963-39.595c-2.351,2.51-3.209,3.285-3.903,4.187c-11.414,14.83-22.838,29.652-34.194,44.527
	c-6.915,9.058-13.691,18.22-20.587,27.292C139.91,214.658,138.865,216.539,141.959,219.084z M371.016,463.077
	c21.812-12.1,42.267-23.447,62.723-34.795c-0.169-0.569-0.339-1.138-0.508-1.707c-18.949,0.818-37.899,1.635-57.393,2.476
	C374.257,440.206,372.754,450.808,371.016,463.077z M395.857,91.977c-14.042,14.612-27.654,28.778-41.267,42.943
	c9.85-0.569,18.995-1.976,27.835-4.467c8.757-2.467,18.103-2.996,26.594-6.842C404.563,112.901,400.436,102.984,395.857,91.977z
	 M273.823,457.257c5.531-16.701,10.779-32.544,16.665-50.319c-16.83,10.728-31.823,20.286-47.74,30.432
	C253.367,444.165,262.927,450.284,273.823,457.257z M354.146,393.771c3.272-12.191,6.307-23.503,9.789-36.479
	c-20.912,14.273-40.19,27.432-59.468,40.591c0.127,0.409,0.254,0.817,0.381,1.226C321.067,397.353,337.286,395.597,354.146,393.771z
	 M114.504,410.583c13.034,6.421,41.822,15.826,48.295,15.722c-6.342-13.535-12.563-26.81-19.194-40.962
	C133.526,394.086,124.285,402.1,114.504,410.583z M385.78,379.754c-8.384,5.107-16.09,9.802-25.125,15.306
	c24.974,7.942,48.786,15.515,72.599,23.088c0.114-0.304,0.228-0.609,0.342-0.913C417.759,404.82,401.922,392.407,385.78,379.754z
	 M96.757,223.732c13.697,2.006,26.227-2.301,40.076-1.063c-5.51-14.388-10.525-27.485-16.153-42.184
	C112.265,195.699,104.675,209.419,96.757,223.732z M356.119,124.526c12.011-11.319,23.794-22.295,35.368-33.488
	c1.508-1.459,2.748-4.046,2.726-6.096c-0.131-11.984-0.674-23.964-1.15-38.083C380.187,73.925,368.163,99.204,356.119,124.526z
	 M194.126,89.297c2.366,11.792,8.07,27.912,11.487,32.511c6.499-10.122,12.925-20.13,19.289-30.04
	c-2.875-7.371-5.471-14.03-8.308-21.302C208.501,77.249,201.148,83.412,194.126,89.297z M267.302,58.654
	c7.497,11.825,14.247,22.471,21.984,34.673c1.826-14.252,3.406-26.576,4.759-37.139c-6.974-7.65-13.021-14.283-19.784-21.703
	C271.754,43.19,269.532,50.907,267.302,58.654z M270.428,33.416c-15.667,4.495-29.806,8.55-43.62,12.513
	c-2.112,6.181-3.967,11.611-6.229,18.229c14.946-2.577,29.213-4.248,43.076-7.858C265.887,48.759,267.927,41.865,270.428,33.416z
	 M375.02,424.86c18.606-0.67,36.144-1.299,53.681-1.944c0.256-0.009,0.659-0.154,0.718-0.329c0.078-0.23-0.117-0.552-0.396-1.566
	c-20.827-6.687-42.044-13.514-63.284-20.274c-1.006-0.32-2.202-0.041-4.454-0.041C366.159,409.276,370.555,417.008,375.02,424.86z
	 M365.031,433.411c-0.22-0.37-0.44-0.741-0.66-1.111c-24.806,8.38-49.613,16.759-74.419,25.139c0.103,0.351,0.206,0.702,0.309,1.053
	c17.234,0,34.468,0,51.865,0C349.83,450.057,357.43,441.734,365.031,433.411z M280.802,395.523c0.208-0.391,0.417-0.782,0.625-1.174
	c-15.456-12.562-30.913-25.125-46.824-38.058c-4.471,6.533-8.504,12.425-12.832,18.748
	C242.047,382.075,261.425,388.799,280.802,395.523z M158.912,372.671c8.032,11.792,15.86,23.284,23.687,34.776
	c0.503-0.176,1.005-0.352,1.508-0.528c-2.438-20.21-4.875-40.42-7.568-62.743C169.91,354.892,164.423,363.762,158.912,372.671z
	 M306.547,402.837c-0.057,0.359-0.114,0.717-0.171,1.076c20.627,6.385,41.254,12.769,63.448,19.639
	c-5.604-9.601-10.269-17.593-14.965-25.639C338.402,399.591,322.474,401.214,306.547,402.837z M196.002,128.436
	c0.049-0.602,0.098-1.204,0.147-1.806c-13.124-5.854-26.247-11.707-40.683-18.147c0.727,11.636,1.359,21.738,2.027,32.436
	C170.701,136.637,183.352,132.537,196.002,128.436z M92.958,221.43c5.37-12.902,10.099-24.262,14.966-35.953
	c-10.292-4.926-19.769-9.462-30.908-14.793C82.552,188.305,87.479,203.987,92.958,221.43z M273.226,461.508
	c-11.696-7.399-22.934-14.508-34.592-21.883c-3.347,3.524-6.146,6.472-9.402,9.899c16.095,10.335,31.778,20.571,49.109,30.999
	C276.405,473.328,274.909,467.765,273.226,461.508z M351.257,122.794c0.393,0.109,0.786,0.218,1.18,0.328
	c12.328-25.943,24.656-51.885,37.862-79.675c-5.168,2.596-8.63,4.334-11.584,5.818c-6.669,12.831-13.061,24.977-19.285,37.207
	c-1.577,3.098-3.151,6.364-3.81,9.731C353.894,105.013,352.676,113.923,351.257,122.794z M286.614,25.478
	c0.021,0.578,0.042,1.156,0.063,1.734c25.186-1.416,50.334-3.299,75.346-6.931c-16.151-3.389-32.301-6.778-47.882-10.048
	C304.399,15.629,295.507,20.554,286.614,25.478z M434.034,82.925c-7.277-11.432-13.383-22.396-21.31-33.66
	c-4.492,12.867-9.429,24.106-12.566,36.859C411.748,85.029,422.365,84.026,434.034,82.925z M209.846,195.097
	c0.961-20.395,1.842-39.077,2.721-57.748c-2.506-1.983-4.501-3.561-7.24-5.728c-3.221,15.667-6.256,30.43-9.263,45.057
	C200.472,182.569,204.656,188.161,209.846,195.097z M369.147,353.509c-3.189,12.02-6.911,23.778-9.695,37.585
	c9.186-5.569,16.76-10.162,23.537-14.271c0-11.229,0-21.379,0-32.915C377.616,347.635,373.41,350.552,369.147,353.509z
	 M131.349,146.192c2.396,18.956,4.626,36.595,6.855,54.234c5.053-17.973,10.079-35.806,13.935-54.234
	C144.907,146.192,138.582,146.192,131.349,146.192z M114.131,311.622c12.58-10.952,29.972-30.596,32.083-36.066
	c-9.05,0.114-17.449-4.205-27.014-3.139C117.545,285.217,115.954,297.523,114.131,311.622z M200.679,124.359
	c-3.93-11.922-7.242-21.971-10.66-32.342c-10.361,4.455-20.318,8.735-31.314,13.463
	C172.743,111.793,185.709,117.626,200.679,124.359z M255.026,110.671c-9.984-5.763-18.47-10.661-27.368-15.797
	c-6.26,9.7-12.04,18.655-18.957,29.373C224.96,119.482,239.296,115.28,255.026,110.671z M353.841,359.408
	c-0.3-0.457-0.601-0.914-0.901-1.371c-12.911,3.187-25.823,6.375-38.595,9.528c-2.329,4.514-4.692,8.57-6.55,12.845
	c-1.844,4.242-5.169,7.995-5.456,14.129C320.16,382.383,337.001,370.896,353.841,359.408z M184.031,205.93
	c-13.858,6.23-26.054,11.712-39.287,17.66c11.39,4.041,21.909,7.773,33.395,11.848C180.895,226.005,182.953,216.921,184.031,205.93z
	 M176.148,335.691c1.169-6.471,2.274-12.583,3.435-19.008c-18.201,1.194-35.587,2.335-52.972,3.475
	C142.552,326.635,159.108,330.669,176.148,335.691z M109.134,317.766c1.757-13.224,3.383-25.463,5.009-37.702
	c-0.426-0.138-0.852-0.277-1.278-0.415c-9.456,14.088-18.913,28.176-28.944,43.121c2.49,0.165,3.662,0.517,4.685,0.266
	C95.343,321.384,102.049,319.601,109.134,317.766z M218.34,373.038c4.303-6.362,7.964-11.774,12.258-18.123
	c-7.448-2.59-14.053-4.297-20.744-5.838c-6.789-1.564-13.196-5.003-22.097-4.551C198.444,354.49,207.999,363.397,218.34,373.038z
	 M226.001,41.866c12.358-3.476,24.383-6.858,36.408-10.239c-0.034-0.341-0.068-0.682-0.102-1.023
	c-16.082-2.757-32.165-5.513-49.739-8.526C217.419,29.225,221.292,34.929,226.001,41.866z M208.32,31.281
	c-0.409,0.121-0.817,0.241-1.226,0.362c-1.939,8.145-4.025,16.26-5.777,24.445c-1.762,8.238-5.006,16.228-5.357,26.257
	c7.258-5.987,13.286-10.96,19.26-15.888C212.875,54.503,210.597,42.892,208.32,31.281z M147.611,111.348
	c-9.607,2.034-16.801,6.073-24.452,9.65c-2.61,8.547-5.174,16.946-8.091,26.495c5.127-2.133,8.861-3.687,12.562-5.227
	C134.077,132.29,140.415,122.483,147.611,111.348z M336.562,462.741c-18.184,0-34.133,0-52.223,0
	c11.959,5.986,22.047,11.035,32.321,16.177C323.157,473.637,329.212,468.715,336.562,462.741z M184.605,417.374
	c-7.88-11.557-15.355-22.522-22.83-33.487c-0.34,0.125-0.681,0.251-1.021,0.376c2.69,14.313,5.379,28.626,8.344,44.405
	C174.964,424.395,179.551,421.055,184.605,417.374z M114.272,152.501c6.619,17.306,12.791,33.442,18.963,49.578
	c-2.043-18.368-2.486-36.854-6.337-55.224C122.297,148.913,118.621,150.557,114.272,152.501z M207.956,326.787
	c-7.826,4.265-15.811,6.047-22.751,11.4c14.42,3.87,27.998,7.514,43.024,11.546C220.851,341.382,214.549,334.249,207.956,326.787z
	 M183.294,75.601c-14.467,10.827-28.048,20.992-41.628,31.156c0.258,0.431,0.516,0.862,0.774,1.293
	c15.392-6.576,30.785-13.151,46.33-19.792C186.931,84.009,185.346,80.345,183.294,75.601z M208.061,319.093
	c2.616-8.249,4.766-15.028,6.988-22.037c-8.792-5.337-16.528-11.567-27.169-16.62C194.968,294.012,201.119,305.796,208.061,319.093z
	 M170.823,77.114c-15.338,1.432-30.375,1.451-46.4,4.996c5.869,4.615,10.603,8.337,15.365,12.081
	c9.973-5.394,19.459-10.518,28.936-15.662C169.463,78.128,170.125,77.589,170.823,77.114z M183.967,271.951
	c8.101,5.516,15.724,10.882,25.243,16.343c-10.453-19.359-21.843-36.253-26.276-39.481
	C183.263,256.189,183.6,263.738,183.967,271.951z M366.69,464.402c1.288-10.353,3.777-19.737,3.888-31.188
	c-8.476,9.319-15.769,17.339-23.739,26.102C353.888,461.122,359.681,462.606,366.69,464.402z M81.497,165.713
	c12.761,3.452,24.181,4.755,36.384,7.454c-2.713-7.039-5.043-13.082-7.451-19.329C100.977,157.718,92.113,161.356,81.497,165.713z
	 M157.047,271.368c8.489,0,15.589,0,23.329,0c-0.839-8.976-1.604-17.153-2.519-26.941
	C170.401,254.079,163.884,262.517,157.047,271.368z M201.729,319.803c0.487-0.445,0.973-0.891,1.46-1.336
	c-6.089-11.743-12.178-23.487-19.219-37.064c0,11.85,0,21.427,0,31.469C189.975,315.215,195.852,317.509,201.729,319.803z
	 M433.624,86.96c-11.473,1.176-20.899,2.142-31.831,3.262c7.27,6.048,13.304,11.067,19.862,16.523
	C425.768,99.945,429.319,94.076,433.624,86.96z M133.176,141.046c7.63,0,13.621,0,19.611,0c-0.391-9.403-0.757-18.23-1.189-28.64
	C145.083,122.534,139.462,131.273,133.176,141.046z M152.824,373.153c-15.492-7.719-29.604-15.322-44.835-20.735
	c12.053,8.993,24.105,17.985,36.174,26.99C146.908,377.426,149.248,375.735,152.824,373.153z M214.998,471.101
	c10.124,0.722,19.139-0.111,29.174-2.427c-6.183-5.397-11.738-10.247-17.926-15.649
	C222.356,459.276,218.899,464.831,214.998,471.101z M185.419,200.968c1.573-5.298,4.141-9.916,2.847-16.358
	c-11.294,9.675-21.958,18.81-32.622,27.946c0.291,0.465,0.581,0.929,0.872,1.394C166.196,209.602,175.876,205.255,185.419,200.968z
	 M334.886,107.322c3.49,8.517,6.696,16.342,10.542,25.73c2.141-12.882,3.991-24.007,6.08-36.578
	C345.314,100.517,340.463,103.683,334.886,107.322z M283.198,483.004c8.489-1.002,16.502-1.948,26.542-3.133
	c-10.802-5.28-19.67-9.628-28.565-13.916c-0.372-0.179-1.01,0.194-2.262,0.476C280.326,471.894,281.733,477.339,283.198,483.004z
	 M278.692,101.641c-0.063-0.569-0.127-1.137-0.19-1.706c-13.072-1.438-26.144-2.876-39.216-4.314
	c-0.091,0.439-0.182,0.879-0.272,1.318c7.057,4.06,14.114,8.12,21.142,12.163C266.569,106.521,272.63,104.081,278.692,101.641z
	 M206.975,202.927c-6.652,0.367-12.04,0.664-17.744,0.979c-1.849,8.92-3.526,17.009-5.639,27.201
	C192.006,220.966,199.032,212.499,206.975,202.927z M90.191,225.578c-3.982-12.571-7.651-24.153-11.548-36.456
	c-1.402,9.909,0.051,32.73,2.462,40.381C84.023,228.243,86.913,226.994,90.191,225.578z M397.859,43.06
	c-1.745,11.184-1.057,24.555,1.828,30.974c3.376-9.783,6.597-19.113,9.941-28.803c-4.089-1.034-7.139-1.839-10.212-2.547
	C398.95,42.576,398.38,42.922,397.859,43.06z M224.921,446.379c3.448-3.085,6.292-5.629,9.555-8.548
	c-5.453-1.997-10.569-3.944-15.737-5.743c-5.006-1.744-9.571-5.057-16.928-4.856C210.532,434.458,218.046,440.683,224.921,446.379z
	 M223.498,475.3c9.741,5.231,19.709,9.047,31.809,12.056c-2.86-5.814-4.962-10.088-6.995-14.221
	C239.63,473.893,231.564,474.597,223.498,475.3z M136.712,96.835c-5.062-3.932-9.535-7.407-15.165-11.781
	c0.812,10.062-0.818,18.796,2.868,27.527C128.467,107.392,132.232,102.571,136.712,96.835z M136.945,269.703
	c-16.155-11.484-33.786-20.968-38.991-21.533c3.919,3.6,8.408,6.707,11.567,10.833C116.623,268.277,126.73,268.861,136.945,269.703z
	 M155.013,376.21c-3.347,2.689-5.755,4.624-8.253,6.631c4.471,9.472,8.758,18.553,13.045,27.635
	C160.457,398.957,157.124,388.215,155.013,376.21z M201.219,325.608c0.019-0.606,0.038-1.212,0.057-1.818
	c-5.548-2.058-11.095-4.116-17.428-6.465c-1.05,5.788-1.954,10.767-3.155,17.387C188.398,331.295,194.809,328.452,201.219,325.608z
	 M194.932,181.637c-1.613,6.303-2.993,11.694-4.648,18.162c6.137-0.602,11.194,0.688,16.939-1.379
	C202.967,192.608,199.23,187.506,194.932,181.637z M330.107,473.284c0.256,0.652,0.512,1.303,0.768,1.955
	c9.356-2.664,18.713-5.329,29.618-8.434c-6.997-1.681-12.266-2.948-17.469-4.198C338.55,466.304,334.328,469.794,330.107,473.284z
	 M403.909,97.104c-0.407,0.385-0.815,0.771-1.223,1.156c3.051,7.27,6.102,14.54,9.628,22.942c2.734-4.197,4.861-7.461,7.135-10.952
	C413.984,105.627,408.946,101.366,403.909,97.104z M214.621,134.514c8.265-4.678,15.818-8.953,23.37-13.228
	c-0.144-0.426-0.287-0.851-0.431-1.277c-9.219,2.67-18.439,5.341-28.579,8.277C211.132,130.662,212.628,132.314,214.621,134.514z
	 M196.674,49.908c-3.089,6.755-6.442,13.406-9.158,20.308c-1.413,3.589,0.17,6.893,3.593,10.411
	C193.811,69.791,196.799,60.261,196.674,49.908z M275.598,484.613c-7.418-3.241-13.896-6.071-21.787-9.519
	c2.666,5.574,4.612,9.644,6.755,14.123C265.498,487.706,270.088,486.3,275.598,484.613z M223.063,44.542
	c-3.057-4.431-5.763-8.352-9.317-13.503c-0.707,10.402,2.887,18.458,3.98,28.531C219.786,53.769,221.299,49.51,223.063,44.542z
	 M391.483,38.361c-3.561-4.09-6.41-7.362-9.705-11.147c-0.717,5.843-1.343,10.941-2.066,16.831
	C383.861,42.041,387.388,40.338,391.483,38.361z M109.914,182.201c1.722-1.561,3.348-3.035,5.334-4.834
	c-7.122-2.654-13.882-3.701-21.04-2.917C99.342,176.983,104.476,179.517,109.914,182.201z"/>
</svg>
