<?xml version="1.0" encoding="iso-8859-1"?>
<!-- Generator: Adobe Illustrator 19.0.0, SVG Export Plug-In . SVG Version: 6.00 Build 0)  -->
<svg version="1.1" id="Layer_1" xmlns="http://www.w3.org/2000/svg" xmlns:xlink="http://www.w3.org/1999/xlink" x="0px" y="0px"
	 viewBox="0 0 500 500" style="enable-background:new 0 0 500 500;" xml:space="preserve">
<path d="M307.659,279.894c14.69,10.722,29.083,21.229,44.395,32.405c-13.402,23.591-35.634,35.252-60.02,45.913
	c0,9.536,0,19.302,0,29.875c-8.592,0-16.024,0-24.703,0c-0.525-8.339-1.064-16.89-1.637-25.989c-7.971,0-15.493,0-24.382,0
	c-0.492,8.412-0.972,16.64-1.511,25.858c-7.661,0-15.404,0-24.129,0c0-9.925,0-20.093,0-31.185
	c-47.754-20.733-75.525-56.219-75.953-108.753c-0.43-52.714,27.278-88.069,75.266-109.367c0-9.65,0-19.041,0-29.005
	c8.913,0,16.699,0,25.496,0c0,7.257,0,13.983,0,21.518c9.156,0,17.332,0,26.475,0c0-7.009,0-14.102,0-21.582
	c8.804,0,16.653,0,25.422,0c0,9.147,0,17.799,0,26.806c23.965,8.984,45.217,20.71,59.133,43.359
	c-15.35,11.711-30.343,23.15-46.24,35.278c-12.556-17.024-29.465-26.128-50.595-25.542c-13.861,0.385-25.655,6.5-35.125,16.604
	c-22.868,24.398-22.172,61.881-0.894,82.876C241.927,311.925,267.377,316.006,307.659,279.894z M103.371,447.365
	c12.102,7.565,23.923,15.633,36.365,22.59c25.83,14.441,54.332,21.582,83.287,24.085c40.428,3.496,80.09-1.707,118.127-17.658
	c48.639-20.397,86.835-52.489,113.941-97.708c2.141-3.572,3.347-7.706,4.988-11.579c-0.684-0.421-1.368-0.841-2.051-1.262
	c-39.521,57.402-89.179,100.311-159.352,115.355C228.654,496.2,164.767,480.842,105,442.448
	C104.457,444.087,103.914,445.726,103.371,447.365z M162.666,72.924c8.104-3.141,15.934-7.25,24.273-9.483
	c42.674-11.43,85.126-12.792,127.097,3.73c67.072,26.403,108.174,74.906,124.258,144.969c1.68,7.317,3.897,14.511,5.865,21.762
	c1.565-63.817-39.835-136.473-115.862-169.959C261.832,34.668,183.023,47.99,152.489,76.386
	C155.885,75.24,159.328,74.218,162.666,72.924z M174.369,13.957C108.814,34.368,58.99,81.159,46.274,114.245
	C136.807,6.139,246.724-18,376.638,44.162C329.36,5.598,248.154-9.017,174.369,13.957z"/>
</svg>
