<?xml version="1.0" encoding="iso-8859-1"?>
<!-- Generator: Adobe Illustrator 19.0.0, SVG Export Plug-In . SVG Version: 6.00 Build 0)  -->
<svg version="1.1" id="Layer_1" xmlns="http://www.w3.org/2000/svg" xmlns:xlink="http://www.w3.org/1999/xlink" x="0px" y="0px"
	 viewBox="0 0 2000 2000" style="enable-background:new 0 0 2000 2000;" xml:space="preserve">
<path d="M128.25,998.932c0.001-118.526-1.558-237.08,0.478-355.571c1.729-100.654,42.555-182.498,130.563-235.722
	c94.885-57.384,191.088-112.587,286.585-168.962c86.308-50.951,172.308-102.424,258.723-153.191
	c28.293-16.622,56.39-34.267,86.437-47.083c86.03-36.696,172.053-32.891,252.818,13.801
	c172.145,99.52,342.89,201.463,514.141,302.528c33.634,19.849,68.135,38.523,100.188,60.698
	c68.22,47.198,106.827,112.804,115.764,195.785c11.53,107.06,5.941,214.207,4.097,321.446c-1.492,86.783,2.7,173.651,2.176,260.468
	c-0.409,67.841-2.327,135.794-7.125,203.445c-3.155,44.489-25.875,82.599-51.054,118.93
	c-33.348,48.118-82.496,76.009-131.209,104.412c-158.514,92.425-317.251,184.469-475.886,276.687
	c-27.092,15.749-53.832,32.123-81.207,47.361c-84.017,46.765-169.765,50.554-254.577,4.17
	c-83.704-45.778-165.969-94.216-248.406-142.274c-114.907-66.986-229.056-135.277-344.177-201.889
	c-66.164-38.284-117.071-88.907-141.894-162.642c-9.468-28.122-16.963-56.385-16.758-86.819
	C128.721,1235.988,128.249,1117.458,128.25,998.932z M717.463,863.254c-66.728,107.764-140.22,206.591-206.413,314.681
	c17.767,9.147,30.694,15.802,43.728,22.513c58.805-86.991,115.464-170.809,178.366-263.861c0,78.979,0,145.983,0,215.445
	c-55.542,21.606-111.259,43.28-169.296,65.856c9.816,17.04,17.347,30.114,25.674,44.571c54.306-20.248,105.055-39.17,157.723-58.808
	c53.473,32.474,92.053,83.634,136.233,130.128c-97.916-21.418-195.831-42.836-297.049-64.976c0,19.53,0,35.978,0,53.123
	c62.515,13.931,124.975,25.986,186.384,42.054c62.599,16.38,129.159,17.094,187.462,44.262c4.41,29.466,9.877,55.643,11.844,82.081
	c1.931,25.951,19.828,50.87,4.994,79.081c-18.051-8.95-36.688-16.926-54.091-27.028c-106.954-62.08-213.576-124.733-320.432-186.984
	c-31.157-18.151-33.451-17.203-57.538,17.225c1.626,2.614,2.619,6.324,4.97,7.684c120.522,69.685,241.688,138.276,361.555,209.065
	c57.586,34.008,111.191,32.714,166.833-3.586c52.368-34.164,106.692-65.316,159.839-98.304
	c47.412-29.428,94.39-59.554,139.125-87.833c-10.325-29.983-19.332-56.137-29.69-86.215
	c-119.404,12.526-237.538,24.919-357.668,37.522c-61.245-55.88-122.731-112.444-184.828-168.329
	c-16.711-15.039-22.347-32.517-22.122-54.536c0.777-75.837,1.301-151.712-0.396-227.521c-0.589-26.315,8.302-44.73,26.957-61.992
	c50.919-47.12,102.828-93.465,150.206-143.997c25.644-27.352,52.254-35.471,87.585-32.943c66.064,4.726,132.311,7.115,198.516,9.57
	c39.447,1.463,79.169-1.003,118.34,2.756c16.599,1.593,29.9,2.046,42.752-8.128c5.434-21.384-0.941-33.776-21.266-45.654
	c-64.858-37.905-127.648-79.332-191.592-118.823c-27.235-16.82-55.353-32.213-85.258-49.521
	c-6.006,18.417-10.673,32.73-15.531,47.628c60.004,43.027,126.003,72.113,185.436,119.81c-86.547-1.852-166.637-3.372-246.706-5.628
	c-6.839-0.193-13.541-5.279-21.984-8.79c7.584-22.712,15.79-43.093,5.754-65.603c-13.107,0-25.358,0-40.174,0
	c-5.915,24.31-11.737,48.238-18.575,76.343c-131.901,28.158-265.323,56.642-398.746,85.125
	c113.223-78.914,235.318-140.8,352.684-216.689c-9.082-13.859-15.353-23.429-23.095-35.243
	c-24.669,14.159-46.258,26.534-67.832,38.935c-96.417,55.424-192.568,111.32-289.363,166.078
	c-44.06,24.926-71.013,60.786-77.946,110.928c-1.938,14.012-1.853,28.372-1.861,42.572c-0.06,109.042,0.002,218.085,0.287,327.127
	c0.032,12.178,1.695,24.352,2.82,39.458c16.082-0.857,29.256-1.56,44.148-2.354c0-36.665,0.001-69.717,0-102.768
	c-0.001-31.609-0.004-63.219-0.005-94.828c-0.001-33.19-0.721-66.4,0.205-99.564c0.908-32.513-4.475-65.495,5.025-101.998
	C575.939,803.153,645.873,832.852,717.463,863.254z M1399.172,1327.086c0.641,41.626,26.986,66.589,68.857,65.244
	c32.202-1.034,67.214-37.283,63.558-68.863c-3.544-30.619-34.219-68.596-67.779-64.915
	C1421.372,1263.208,1398.503,1283.593,1399.172,1327.086z M1005.782,491.13c38.238-0.42,61.101-22.872,61.615-60.506
	c0.514-37.632-32.521-72.816-66.379-70.696c-35.713,2.236-68.144,37.59-66.333,72.312
	C936.472,466.505,966.72,491.56,1005.782,491.13z M478.03,1345.283c32.945-0.036,67.378-33.09,67.414-64.716
	c0.035-30.443-35.551-66.678-66.802-68.023c-32.48-1.398-66.501,35.002-65.947,70.557
	C413.317,1323.152,436.618,1345.328,478.03,1345.283z M1472.581,645.266c-14.247,0.916-35.982,26.111-33.811,39.195
	c2.563,15.451,21.228,27.98,38.924,26.129c17.905-1.873,27.057-12.742,26.603-31.594
	C1503.882,661.812,1487.426,644.311,1472.581,645.266z M1010.188,1402.166c10.036,53.491,19.104,101.825,28.774,153.363
	c103.488-64.128,201.649-124.955,306.049-189.648C1226.564,1378.717,1119.531,1390.316,1010.188,1402.166z M585.426,751.089
	c63.353,26.937,117.315,49.88,169.835,72.211c47.368-48.393,91.265-93.239,140.031-143.06
	C792.33,705.834,692.296,721.55,585.426,751.089z"/>
</svg>
