<?xml version="1.0" encoding="iso-8859-1"?>
<!-- Generator: Adobe Illustrator 19.0.0, SVG Export Plug-In . SVG Version: 6.00 Build 0)  -->
<svg version="1.1" id="Layer_1" xmlns="http://www.w3.org/2000/svg" xmlns:xlink="http://www.w3.org/1999/xlink" x="0px" y="0px"
	 viewBox="0 0 500 500" style="enable-background:new 0 0 500 500;" xml:space="preserve">
<path id="XMLID_4_" d="M273.753,460.671c0.952,9.898,1.855,19.296,2.776,28.874c-38.127-8.097-93.441-57.546-106.291-95.05
	c18.655-0.681,35.642-6.433,51.366-16.04c15.4-9.41,28.509-21.31,39.474-37.371c1.134,10.292,2.125,19.282,3.109,28.207
	c39.113,0.531,94.758-38.915,104.191-95.685c6.582,10.442,13.346,19.676,15.884,30.962c2.471,10.987,4.108,22.161,6.195,33.712
	c26.741-10.762,49.631-27.059,67.161-51.388c3.201,25.366-29.052,85.926-62.858,117.85
	C360.908,436.707,320.767,455.721,273.753,460.671z M44.86,216.635c17.654-24.512,40.526-40.551,67.075-51.355
	c2.124,11.72,3.727,23.1,6.335,34.245c2.623,11.206,9.332,20.455,16.026,30.88c9.707-54.495,59.601-94.974,104.507-97.006
	c1.072,9.196,2.149,18.425,3.298,28.277c22.91-31.138,51.905-49.961,90.441-52.7C310.173,62.103,273.7,32.046,226.299,12.884
	c1.1,10.186,2.116,19.594,3.168,29.342C115.221,54.976,52.162,152.26,44.86,216.635z M368.897,239.057
	c-8.909,0.951-17.866,1.908-28.317,3.024c16.739,10.513,27.923,24.299,37.216,39.701c9.331,15.465,14.634,32.332,15.35,50.767
	c51.913-22.891,89.544-77.333,95.713-105.999c-9.245,0.948-18.449,1.891-28.279,2.899c-4.84-46.842-23.583-87.016-55.612-120.935
	c-32.006-33.894-70.76-55.51-116.968-63.723c23.512,17.738,39.734,40.669,50.851,68.419c-24.031,0.61-45.76,5.993-65.041,21.381
	C330.996,144.277,370.803,200.92,368.897,239.057z M132.216,264.466c10.301-1.176,19.457-2.221,29.565-3.375
	c-31.479-22.48-50.015-51.478-52.899-90.083c-46.447,22.605-77.121,58.18-96.044,105.638c10.481-0.984,20.053-1.882,29.659-2.783
	c5.014,47.132,23.813,86.977,55.553,120.533c31.431,33.23,92.744,66.418,115.524,62.893c-23.472-17.128-38.859-39.753-49.98-66.822
	c24.536-0.423,46.526-6.258,65.064-21.242C174.579,354.616,142.484,320.314,132.216,264.466z"/>
</svg>
