<?xml version="1.0" encoding="iso-8859-1"?>
<!-- Generator: Adobe Illustrator 19.0.0, SVG Export Plug-In . SVG Version: 6.00 Build 0)  -->
<svg version="1.1" id="Layer_1" xmlns="http://www.w3.org/2000/svg" xmlns:xlink="http://www.w3.org/1999/xlink" x="0px" y="0px"
	 viewBox="0 0 500 500" enable-background="new 0 0 500 500" xml:space="preserve">
<path d="M118.4,264.966c17.91,31.008,36.17,62.624,54.929,95.102c-18.136,31.443-36.319,62.969-55.304,95.885
	C80.958,391.763,44.667,328.916,7.739,264.966C45.016,264.966,81.268,264.966,118.4,264.966z M195.686,129.362
	c37.47,0,73.701,0,110.809,0C324.551,98.073,342.731,66.568,361.525,34c-74.118,0-146.5,0-220.933,0
	C159.557,66.826,177.755,98.326,195.686,129.362z M383.893,46.372c-18.908,32.759-37.092,64.264-55.337,95.874
	c18.767,32.464,37.163,64.286,55.27,95.609c37.081,0,72.892,0,110.617,0C457.26,173.451,420.977,110.605,383.893,46.372z
	 M361.236,467.968c-18.793-32.552-36.97-64.038-54.834-94.982c-37.584,0-74.092,0-111.026,0
	c-18.086,31.35-36.101,62.577-54.796,94.982C215.025,467.968,287.331,467.968,361.236,467.968z M328.64,359.753
	c18.507,32.019,36.547,63.232,55.352,95.767c37.204-64.468,73.569-127.48,110.426-191.348c-37.975,0-74.122,0-110.652,0
	C365.35,296.104,346.973,327.967,328.64,359.753z M7.665,237.802c37.665,0,73.768,0,110.657,0
	c18.203-31.552,36.604-63.447,55.011-95.352c-18.484-31.997-36.537-63.246-55.339-95.794C80.849,111.01,44.56,173.881,7.665,237.802
	z"/>
</svg>
