<?xml version="1.0" encoding="iso-8859-1"?>
<!-- Generator: Adobe Illustrator 19.0.0, SVG Export Plug-In . SVG Version: 6.00 Build 0)  -->
<svg version="1.1" id="Layer_1" xmlns="http://www.w3.org/2000/svg" xmlns:xlink="http://www.w3.org/1999/xlink" x="0px" y="0px"
	 viewBox="0 0 500 500" enable-background="new 0 0 500 500" xml:space="preserve">
<path d="M113.54,380.49c-27.031,0.938-46.363-11.621-62.614-30.414c-4.363-5.046-8.946-10.071-14.152-14.191
	C11.958,316.246,3.853,290.77,5.128,259.552c1.927-47.18,1.298-94.475,1.259-141.72c-0.019-22.698,7.859-41.295,24.724-56.537
	c10.224-9.24,19.906-19.127,29.347-29.178c14.02-14.926,31.218-21.783,51.433-21.791c57.705-0.022,115.41-0.168,173.115,0.02
	c16.9,0.055,31.963,5.7,44.25,17.69c8.977,8.759,17.563,17.935,26.793,26.413c18.341,16.847,33.576,35.147,31.413,62.771
	c5.05,0.799,9.052,1.753,13.099,2.016c14.963,0.974,27.166,7.723,37.615,17.922c12.864,12.558,25.514,25.337,38.184,38.092
	c12.359,12.44,18.496,27.547,18.517,45.028c0.067,55.196-0.04,110.392,0.065,165.588c0.034,18.067-6.331,33.313-19.04,46.013
	c-12.422,12.414-24.849,24.825-37.298,37.212c-13.084,13.019-28.786,19.226-47.332,19.166c-57.286-0.185-114.574-0.223-171.86,0.017
	c-19.905,0.084-36.712-6.415-50.633-20.616c-8.195-8.36-16.306-16.826-24.868-24.799C125.965,426.149,111.647,407.716,113.54,380.49
	z M328.915,111.11c-14.862-15.297-28.506-29.339-42.366-43.605c-60.384,0-120.965,0-183.097,0
	c-12.25,12.422-25.409,25.241-37.808,38.758c-2.668,2.909-3.599,8.336-3.619,12.611c-0.239,50.998-0.237,101.997-0.003,152.995
	c0.02,4.292,0.868,9.763,3.535,12.658c12.419,13.482,25.613,26.25,37.849,38.586c62.532,0,123.533,0,182.21,0
	c15.434-14.931,29.499-28.539,44.155-42.719c-0.228-4.298-0.485-9.132-0.796-15.002c-13.852,0-26.57,0-41.533,0
	c-4.501,5.491-9.798,11.954-14.442,17.62c-52.178,0-102.686,0-151.895,0c-5.856-5.344-10.76-9.82-15.262-13.928
	c0-49.374,0-97.798,0-145.358c5.363-5.922,10.11-11.163,14.39-15.889c50.987,0,100.689,0,150.611,0
	c6.948,6.484,13.921,12.99,19.398,18.102c14.037,0,25.965,0,38.674,0C328.915,119.891,328.915,115.011,328.915,111.11z
	 M379.349,215.289c5.742,5.354,10.603,9.887,15.135,14.113c0,49.661,0,98.521,0,145.972c-5.413,5.937-9.889,10.846-13.994,15.348
	c-51.075,0-101.22,0-152.722,0c-12.951-22.946-33.914-21.521-56.612-17.118c0,5.836,0,10.728,0,14.931
	c14.299,14.378,28.109,28.264,41.975,42.207c61.004,0,122.023,0,180.752,0c15.289-15.086,29.225-28.836,43.423-42.844
	c0-56.751,0-113.999,0-168.486c-15.142-15.831-28.68-29.985-42.061-43.975c-61.151,0-121.775,0-182.413,0
	c-13.928,14.012-27.735,27.903-42.444,42.701c0.236,4.351,0.519,9.556,0.897,16.524c12.381,0,24.29,2.442,34.454-0.723
	c9.186-2.861,16.463-11.849,25.246-18.649C279.753,215.289,329.51,215.289,379.349,215.289z"/>
</svg>
