<?xml version="1.0" encoding="utf-8"?>
<!-- Generator: Adobe Illustrator 24.2.0, SVG Export Plug-In . SVG Version: 6.00 Build 0)  -->
<svg version="1.1" id="Layer_1" xmlns="http://www.w3.org/2000/svg" xmlns:xlink="http://www.w3.org/1999/xlink" x="0px" y="0px"
	 viewBox="0 0 500 500" style="enable-background:new 0 0 500 500;" xml:space="preserve">
<style type="text/css">
	.st0{fill-rule:evenodd;clip-rule:evenodd;}
</style>
<path class="st0" d="M76.9,387.7c-12.3-7.5-19.8-20.8-19.8-35.2v-80.1c0-3.1,0.8-6.1,2.3-8.7c4.8-8.2,15.4-11,23.6-6.2l180.8,105.4
	c10.5,6.2,17,17.5,17,29.7v82.9c0,3.8-1,7.5-2.9,10.8c-5.9,9.7-18.7,12.8-28.3,6.9L76.9,387.7z M346.3,235.6
	c10.5,6.2,17,17.5,17,29.7v168.3c0,4.9-2.6,9.5-7,12l-39.5,22.5c-0.5,0.3-1,0.5-1.6,0.7v-93.4c0-12.1-6.4-23.3-16.7-29.5
	l-158.6-94.9V145.1c0-3.1,0.8-6.1,2.3-8.7c4.8-8.2,15.4-11,23.6-6.2L346.3,235.6z M425.3,111.4c10.7,6.1,17.2,17.5,17.2,29.8V387
	c0,5.1-2.8,9.7-7.2,12.1l-37.5,20.3V248.2c0-12.1-6.4-23.3-16.7-29.5l-162.2-97.3V21.2c0-3.1,0.8-6.1,2.3-8.7
	c4.8-8.2,15.4-11,23.6-6.2L425.3,111.4z"/>
</svg>
