<?xml version="1.0" encoding="iso-8859-1"?>
<!-- Generator: Adobe Illustrator 19.0.0, SVG Export Plug-In . SVG Version: 6.00 Build 0)  -->
<svg version="1.1" id="Layer_1" xmlns="http://www.w3.org/2000/svg" xmlns:xlink="http://www.w3.org/1999/xlink" x="0px" y="0px"
	 viewBox="0 0 2000 2000" style="enable-background:new 0 0 2000 2000;" xml:space="preserve">
<path d="M555.731,1861.51c-3.491-44.753-6.693-85.788-9.98-127.924c-86.465-24.901-171.782-49.471-260.576-75.042
	c11.455-41.31,22.654-81.694,34.419-124.122c-72.663-52.995-145.206-105.903-219.601-160.161
	c25.054-34.665,49.23-68.115,75.387-104.305c-49.854-74.229-99.792-148.585-151.424-225.461
	c35.61-24.404,70.374-48.229,106.506-72.992C108.75,884.067,87.18,797.21,65.142,708.467c42.071-10.82,82.067-21.106,124.755-32.085
	c9.622-88.996,19.248-178.023,29.143-269.542c43.709,4.092,84.748,7.935,127.987,11.983
	c39.481-80.616,78.877-161.059,119.367-243.734c38.897,18.797,76.012,36.733,115.852,55.985
	c64.258-61.837,128.847-123.994,194.068-186.759c31.788,32.423,62.66,63.912,95.068,96.967
	c81.903-36.282,161.876-71.709,244.809-108.447c16.808,36.792,33.062,72.373,50.137,109.748
	c90.778-6.204,181.145-12.379,273.717-18.706c3.473,43.933,6.726,85.09,10.145,128.344c86.34,24.927,172.334,49.755,260.656,75.255
	c-11.714,41.991-22.992,82.416-34.586,123.975c73.634,53.685,146.102,106.521,219.528,160.055
	c-25.806,35.796-49.984,69.334-75.293,104.44c50.408,75.018,100.474,149.528,151.568,225.566
	c-36.046,24.6-70.961,48.429-106.45,72.649c21.624,87.63,42.876,173.753,64.97,263.289c-40.829,10.559-80.546,20.831-124.48,32.193
	c-9.497,87.634-19.151,176.705-29.2,269.434c-42.896-4.114-84.601-8.114-127.879-12.265
	c-39.846,81.273-79.266,161.68-119.541,243.828c-38.95-18.724-76.153-36.608-115.871-55.702
	c-64.571,62.031-129.188,124.106-194.395,186.748c-30.951-30.213-61.058-59.603-92.484-90.279
	c-81.192,36.052-162.311,72.07-247.083,109.711c-17.559-38.781-34.851-76.972-53.086-117.246
	C736.456,1849.741,647.256,1855.55,555.731,1861.51z M335.716,994.408c0.021,363.806,295.28,659.605,660.746,661.954
	c362.237,2.328,663.613-296.882,663.728-658.958c0.117-368.9-293.491-666.427-657.757-666.534
	C630.785,330.76,335.695,624.443,335.716,994.408z M1440.253,1336.716c186.696-239.841,144.443-586.7-94.198-778.339
	c-236.596-189.996-584.822-153.579-779.697,82.308c-192.616,233.153-141.266,545.648-6.947,693.402
	c0-13.329-0.056-23.939,0.009-34.548c0.66-107.855-1.586-215.823,2.586-323.542c10.695-276.158,269.108-470.146,537.872-406.112
	c168.916,40.245,306.231,187.016,331.3,354.114c27.843,185.589-53.604,357.336-213.739,450.709
	c-155.614,90.737-345.225,78.026-487.254-32.709c-10.554-8.229-20.901-16.724-33.985-27.212c0,52.328,0,100.495-0.01,148.667
	C908.421,1608.76,1244.935,1587.635,1440.253,1336.716z M1000.503,693.191c-168.926-0.122-305.299,134.413-305.473,301.357
	c-0.175,167.871,135.759,305.322,302.112,305.485c168.383,0.165,304.663-134.939,304.73-302.101
	C1301.939,828.459,1168.288,693.312,1000.503,693.191z"/>
</svg>
