<?xml version="1.0" encoding="utf-8"?>
<!-- Generator: Adobe Illustrator 25.1.0, SVG Export Plug-In . SVG Version: 6.00 Build 0)  -->
<svg version="1.1" id="coni" xmlns="http://www.w3.org/2000/svg" xmlns:xlink="http://www.w3.org/1999/xlink" x="0px" y="0px"
	 viewBox="0 0 500 500" style="enable-background:new 0 0 500 500;" xml:space="preserve">
<path d="M479.7,212.1L287.1,19.5C266.6-1,233.4-1,212.9,19.5L20.3,212.1c-20.5,20.5-20.5,53.7,0,74.2l192.6,192.6
	c20.5,20.5,53.7,20.5,74.2,0l192.6-192.6C500.2,265.8,500.2,232.6,479.7,212.1z M335.3,193.1l-38,21.9v-32.7h-90.9
	c-3.1,0-5.6,2.5-5.6,5.6v123.3c0,3.1,2.5,5.6,5.6,5.6h85.3c3.1,0,5.6-2.5,5.6-5.6V241l38-22v92.3c0,24-19.4,43.4-43.4,43.4h-85.6
	c-24,0-43.4-19.4-43.4-43.4V187.7c0-24,19.4-43.4,43.4-43.4h91.2c20.9,0,37.8,16.9,37.8,37.8V193.1z"/>
</svg>
