<?xml version="1.0" encoding="iso-8859-1"?>
<!-- Generator: Adobe Illustrator 19.0.0, SVG Export Plug-In . SVG Version: 6.00 Build 0)  -->
<svg version="1.1" id="Layer_1" xmlns="http://www.w3.org/2000/svg" xmlns:xlink="http://www.w3.org/1999/xlink" x="0px" y="0px"
	 viewBox="0 0 500 500" enable-background="new 0 0 500 500" xml:space="preserve">
<path d="M164.316,167.865c0.116,23.779-19.329,43.324-43.186,43.409c-24.037,0.085-43.359-19.138-43.544-43.322
	c-0.181-23.716,19.249-43.257,43.174-43.42C144.715,124.367,164.199,143.752,164.316,167.865z M375.895,101.691
	c-22.894,0.013-43.333,17.563-43.399,43.269c-0.066,25.649,20.597,43.309,43.344,43.31c23.789,0.001,42.988-19.259,43.034-43.248
	C418.919,121.076,399.753,101.678,375.895,101.691z M272.287,323.241c-23.417,0.019-42.898,19.485-42.922,42.889
	c-0.025,24.115,19.222,43.593,43.101,43.617c23.961,0.025,43.396-19.414,43.355-43.362
	C315.78,342.465,296.363,323.221,272.287,323.241z M154.04,275.088c-0.027-20.908-16.9-35.162-35.235-35.069
	c-18.262,0.093-34.945,14.31-34.914,35.095c0.032,20.734,16.504,35.003,34.952,35.04
	C137.633,310.231,154.067,295.629,154.04,275.088z M286.117,51.277c-19.208-0.116-35.186,15.881-35.058,35.1
	c0.129,19.377,15.638,34.897,34.891,34.915c19.436,0.018,34.989-15.551,34.989-35.026C320.94,67.006,305.402,51.394,286.117,51.277z
	 M366.73,279.729c-19.268-0.116-35.154,15.476-35.254,34.601c-0.102,19.403,15.509,35.29,34.785,35.399
	c19.27,0.109,35.069-15.668,35.12-35.073C401.431,295.631,385.769,279.843,366.73,279.729z M141.828,326.041
	c-17.163-0.052-31.238,13.684-31.179,30.874c0.057,16.653,12.755,31.01,31.028,30.992c18.217-0.018,30.796-14.598,30.85-30.846
	C172.542,339.996,158.782,326.092,141.828,326.041z M235.53,62.365c0.036-17.247-13.771-31.234-30.85-31.253
	c-16.969-0.019-30.642,13.638-30.695,30.661c-0.054,17.303,13.427,31.012,30.532,31.048
	C221.431,92.858,235.496,79.046,235.53,62.365z M395.258,254.435c0.098,16.79,13.902,30.573,30.665,30.619
	c17.024,0.046,31.004-13.971,30.888-30.972c-0.116-17.07-13.853-30.748-30.809-30.677
	C408.825,223.477,395.158,237.272,395.258,254.435z M206.274,421.832c-0.135-14.753-12.441-27.059-27.055-26.725
	c-14.647,0.335-26.483,11.523-26.505,26.94c-0.022,14.951,11.903,26.649,26.713,26.579
	C194.481,448.555,206.409,436.65,206.274,421.832z M102.934,59.125c-0.159,14.996,11.651,27.077,26.544,27.151
	c14.615,0.073,26.706-12.001,26.783-26.745c0.076-14.593-11.75-26.453-26.517-26.594C114.948,32.797,103.091,44.378,102.934,59.125z
	 M463.239,162.229c-14.559,0.062-26.474,12.107-26.465,26.755c0.008,14.56,11.865,26.573,26.244,26.59
	c15.184,0.018,26.985-11.639,26.982-26.651C489.997,174.149,477.985,162.167,463.239,162.229z M255.817,455.646
	c0.057-13.662-10.908-22.249-21.447-22.738c-14.045-0.653-23.829,10.893-23.868,22.385c-0.043,12.445,9.968,22.677,22.369,22.787
	C245.544,478.192,255.764,468.421,255.817,455.646z M72.617,109.863c12.331-0.066,22.425-10.113,22.531-22.426
	c0.107-12.48-9.957-22.608-22.474-22.618c-12.651-0.01-22.617,9.864-22.621,22.412C50.048,99.657,60.289,109.929,72.617,109.863z
	 M465.797,148.114c12.333-0.045,22.305-10.117,22.304-22.527c-0.001-12.445-10.262-22.632-22.678-22.515
	c-12.289,0.115-22.354,10.31-22.319,22.606C443.139,138.212,453.201,148.16,465.797,148.114z M312.348,464.054
	c-0.001-10.052-8.087-18.132-18.218-18.203c-10.246-0.072-18.683,8.245-18.714,18.447c-0.031,10.211,8.28,18.395,18.672,18.387
	C304.545,482.677,312.349,474.715,312.348,464.054z M14.379,134.174c0.176,10.276,8.384,18.383,18.526,18.297
	c10.111-0.086,18.371-8.436,18.32-18.519c-0.051-10.077-8.4-18.291-18.556-18.254C22.517,115.734,14.207,124.129,14.379,134.174z
	 M461.299,68.555c0.097-9.959-8.213-18.357-18.176-18.367c-10.367-0.011-18.404,7.949-18.448,18.269
	c-0.043,10.254,7.887,18.3,18.067,18.332C453.093,86.823,461.198,78.858,461.299,68.555z M360.124,443.353
	c0.017-7.99-6.406-14.439-14.359-14.417c-7.91,0.022-14.481,6.605-14.398,14.425c0.084,7.827,6.495,14.215,14.286,14.232
	C353.754,457.61,360.108,451.358,360.124,443.353z M37.31,189.013c-0.095-7.892-6.487-14.16-14.39-14.114
	c-7.823,0.046-14.248,6.572-14.132,14.353c0.118,7.934,6.429,14.107,14.382,14.068C31.082,203.282,37.405,196.884,37.31,189.013z
	 M399.052,19.888c-7.963-0.111-14.494,6.372-14.472,14.366c0.02,7.591,6.545,14.094,14.177,14.131
	c7.719,0.037,14.208-6.329,14.253-13.983C413.057,26.357,406.942,19.998,399.052,19.888z M376.18,423.919
	c5.608,0.085,10.412-4.578,10.456-10.148c0.043-5.529-4.852-10.353-10.407-10.257c-5.654,0.098-9.986,4.52-9.999,10.206
	C366.218,419.42,370.523,423.833,376.18,423.919z M21.745,230.687c-0.055,5.508,4.551,10.178,10.063,10.201
	c5.421,0.022,10.198-4.691,10.245-10.108c0.047-5.448-4.609-10.085-10.155-10.113C26.269,220.639,21.801,225.047,21.745,230.687z
	 M347.898,22.198c-0.142,5.29,4.344,10.081,9.67,10.329c5.446,0.253,10.304-4.277,10.468-9.759c0.17-5.72-4.035-10.173-9.759-10.335
	C352.633,12.274,348.049,16.587,347.898,22.198z M393.751,393.511c3.104-0.068,5.97-2.898,6.062-5.986
	c0.095-3.186-2.821-6.171-6.071-6.217c-3.323-0.047-6.115,2.743-6.099,6.095C387.658,390.727,390.513,393.581,393.751,393.511z
	 M50.852,259.285c-0.092-3.392-2.655-5.834-6.037-5.75c-3.409,0.084-5.793,2.593-5.732,6.032c0.06,3.354,2.634,5.824,6.009,5.765
	C48.392,265.274,50.941,262.598,50.852,259.285z M326.511,14.674c-3.315,0.016-5.983,2.684-5.934,5.935
	c0.048,3.213,2.848,5.898,6.076,5.826c3.329-0.074,5.718-2.655,5.666-6.123C332.27,17.049,329.808,14.658,326.511,14.674z"/>
</svg>
