<?xml version="1.0" encoding="utf-8"?>
<!-- Generator: Adobe Illustrator 25.1.0, SVG Export Plug-In . SVG Version: 6.00 Build 0)  -->
<svg version="1.1" id="COTI" xmlns="http://www.w3.org/2000/svg" xmlns:xlink="http://www.w3.org/1999/xlink" x="0px" y="0px"
	 viewBox="0 0 500 500" style="enable-background:new 0 0 500 500;" xml:space="preserve">
<style type="text/css">
	.st0{opacity:0.5;}
</style>
<path d="M11.8,208.1C3.6,208.1,0,211.7,0,219c0,0,0,164,0,187.6c0,8.2,3.6,10.9,11.8,10.9c90.2,0.9,200.4-79.2,291.5-142.1V58.7
	C213.1,120.7,100.2,209,11.8,208.1z"/>
<path class="st0" d="M486.4,292.8c8.2,0,11.8-3.6,11.8-10.9c0,0,0-164,0-187.6c0-8.2-3.6-10.9-11.8-10.9
	c-91.1-0.9-200.4,79.2-291.5,142.1v215.9C285.1,379.3,398.1,291,486.4,292.8z"/>
</svg>
