<?xml version="1.0" encoding="utf-8"?>
<!-- Generator: Adobe Illustrator 25.1.0, SVG Export Plug-In . SVG Version: 6.00 Build 0)  -->
<svg version="1.1" id="COTI" xmlns="http://www.w3.org/2000/svg" xmlns:xlink="http://www.w3.org/1999/xlink" x="0px" y="0px"
	 viewBox="0 0 500 500" style="enable-background:new 0 0 500 500;" xml:space="preserve">
<path d="M296.9,272.5V164.1c-33,20.5-65.5,43.5-95.7,64.4v108.3C234.3,316.2,266.8,293.3,296.9,272.5z"/>
<g>
	<path d="M271.4,297.5c4-2.8,8.1-5.6,12-8.3C279.4,291.9,275.4,294.7,271.4,297.5z"/>
	<path d="M285.1,288c2-1.4,3.9-2.7,5.9-4.1C289.1,285.3,287.1,286.6,285.1,288z"/>
	<path d="M296,280.5c0.5-0.3,1-0.7,1.5-1C296.9,279.8,296.4,280.1,296,280.5z"/>
	<path d="M11.8,208.1C3.6,208.1,0,211.7,0,219c0,0,0,164,0,187.6c0,8.2,3.6,10.9,11.8,10.9c58.3,0.6,124.9-32.7,189.4-73.2
		c-2.1,1.3-4.2,2.6-6.3,3.9V225.5c34.2-23.6,71-49.7,108.4-72.9V58.7C213.1,120.7,100.2,209,11.8,208.1z"/>
	<path d="M257.8,306.8c4.1-2.8,8.1-5.5,12.1-8.3C265.9,301.3,261.9,304,257.8,306.8z"/>
	<path d="M202.6,343.3c4.2-2.6,8.4-5.3,12.5-8C211,338,206.8,340.7,202.6,343.3z"/>
	<path d="M244.3,316c4.1-2.8,8.2-5.5,12.2-8.3C252.4,310.5,248.4,313.3,244.3,316z"/>
	<path d="M216.6,334.4c4.2-2.7,8.3-5.4,12.5-8.2C224.9,329,220.8,331.7,216.6,334.4z"/>
	<path d="M230.5,325.3c4.1-2.7,8.2-5.5,12.3-8.3C238.7,319.8,234.6,322.5,230.5,325.3z"/>
</g>
<g>
	<path d="M255.3,183.9c4.1-2.8,8.3-5.6,12.4-8.4C263.6,178.3,259.5,181.1,255.3,183.9z"/>
	<path d="M228.2,202.4c4-2.8,8.1-5.6,12.2-8.4C236.3,196.8,232.3,199.6,228.2,202.4z"/>
	<path d="M241.7,193.1c4.1-2.8,8.2-5.6,12.3-8.4C249.9,187.5,245.8,190.3,241.7,193.1z"/>
	<path d="M296.9,156.6c2.1-1.3,4.2-2.7,6.4-4C301.2,153.9,299,155.2,296.9,156.6z"/>
	<path d="M283,165.5c4.2-2.7,8.4-5.4,12.6-8.1C291.4,160.1,287.2,162.8,283,165.5z"/>
	<path d="M269.1,174.6c4.2-2.8,8.3-5.5,12.5-8.2C277.4,169.1,273.2,171.9,269.1,174.6z"/>
	<path d="M200.8,221.4c0.5-0.3,1-0.7,1.4-1C201.7,220.8,201.2,221.1,200.8,221.4z"/>
	<path d="M221,207.4c2-1.4,3.9-2.7,5.9-4.1C224.9,204.7,223,206.1,221,207.4z"/>
	<path d="M486.4,83.4c-56.9-0.6-120.9,30.5-183.1,69.2v122.8c-34.1,23.6-71,49.6-108.4,72.8v93.2c90.2-62.1,203.2-150.4,291.5-148.6
		c8.2,0,11.8-3.6,11.8-10.9c0,0,0-164,0-187.6C498.2,86.1,494.6,83.4,486.4,83.4z"/>
	<path d="M214.8,211.7c2.1-1.4,4.1-2.9,6.2-4.3C218.9,208.8,216.9,210.3,214.8,211.7z"/>
	<path d="M207.8,216.6c0.2-0.1,0.3-0.2,0.5-0.4C208.2,216.3,208,216.4,207.8,216.6z"/>
</g>
</svg>
