<?xml version="1.0" encoding="iso-8859-1"?>
<!-- Generator: Adobe Illustrator 19.0.0, SVG Export Plug-In . SVG Version: 6.00 Build 0)  -->
<svg version="1.1" id="Layer_1" xmlns="http://www.w3.org/2000/svg" xmlns:xlink="http://www.w3.org/1999/xlink" x="0px" y="0px"
	 viewBox="0 0 500 500" enable-background="new 0 0 500 500" xml:space="preserve">
<path d="M287.951,84.848c87.657-0.786,164.272,70.52,164.087,163.966c-0.178,90.173-71.702,164.259-164.616,164.197
	c-91.311-0.061-164.379-75.601-163.485-166.181C124.815,157.869,198.547,83.807,287.951,84.848z M288.046,388.963
	c74.997,2.093,141.159-63.096,140.343-141.734c-0.774-74.589-63.149-142.978-148.249-138.952
	c-71.102,3.364-134.091,64.008-132.736,143.231C148.715,328.128,212.497,390.433,288.046,388.963z M265.335,5.478
	c-12.602,0.878-24.978,3.242-37.189,6.305c-32.201,8.077-61.477,22.362-87.97,42.335c-3.55,2.676-6.971,5.591-10.087,8.755
	c-3.553,3.607-3.774,9.022-1.072,13.32c4.215,6.704,11.963,7.657,18.749,2.02c19.46-16.165,41.131-28.336,64.837-37.162
	c21.042-7.833,42.825-11.704,65.074-13.089c16.92-1.053,33.828,0.486,50.439,3.537c25.684,4.718,50.012,13.54,72.285,27.388
	c8.494,5.281,16.57,11.235,24.813,16.917c4.266,2.941,9.598,3.274,13.575,0.748c7.417-4.711,7.844-14.049,0.475-19.636
	c-7.689-5.83-15.521-11.555-23.751-16.569c-17.965-10.946-37.012-19.6-57.247-25.593C335.183,7.918,311.676,4.228,287.556,4
	C280.149,4.491,272.741,4.962,265.335,5.478z M304.289,492.563c15.829-0.654,31.276-3.638,46.547-7.581
	c19.854-5.127,38.753-12.801,56.52-22.981c9.488-5.436,18.531-11.702,27.475-18.019c5.783-4.085,6.78-11.069,2.799-16.209
	c-3.48-4.495-8.833-7.434-16.237-2.967c-1.111,0.67-2.124,1.5-3.188,2.248c-12.779,8.981-26,17.125-40.375,23.435
	c-26.114,11.464-53.229,18.137-81.806,18.816c-17.707,0.42-35.302-0.371-52.671-4.012c-28.472-5.97-54.881-16.915-78.944-33.332
	c-4.751-3.241-9.245-6.859-13.886-10.265c-4.162-3.055-8.759-3.397-13.096-0.894c-4.381,2.529-6.213,6.76-5.553,11.873
	c0.484,3.749,2.674,6.465,5.615,8.612c4.8,3.503,9.585,7.03,14.491,10.38c17.39,11.873,36.092,21.154,55.958,28.116
	c25.784,9.035,52.412,13.16,82.041,13.839C293.174,493.377,298.724,492.793,304.289,492.563z M45.829,278.608
	c1.644,16.254,5.454,32.057,10.57,47.53c6.902,20.875,16.587,40.425,28.899,58.644c3.637,5.382,7.446,10.661,11.425,15.795
	c3.417,4.408,8.573,5.612,13.486,3.619c4.71-1.911,7.162-6.088,7.254-11.414c0.067-3.94-2.198-6.61-4.311-9.389
	c-10.476-13.783-19.333-28.461-26.486-44.29c-12.154-26.898-18.299-55.125-19.478-84.437c-0.802-19.919,1.7-39.578,6.444-58.989
	c5.861-23.979,15.289-46.351,28.908-66.94c3.271-4.945,6.913-9.656,9.983-14.718c4.612-7.604-0.831-16.956-9.722-17.094
	c-4.471-0.069-7.913,1.898-10.369,5.487c-4.501,6.578-9.111,13.099-13.25,19.902c-13.865,22.794-23.676,47.193-29.346,73.338
	c-3.834,17.681-5.751,35.496-6.358,57.081C44.044,259.027,44.839,268.827,45.829,278.608z M108.288,228.478
	c0.879-4.539,1.515-9.124,2.299-13.682c3.333-19.382,10.316-37.445,19.867-54.557c12.879-23.075,30.135-42.271,51.475-57.823
	c14.949-10.894,31.173-19.368,48.716-25.203c9.311-3.097,18.777-5.7,28.561-6.973c5.227-0.68,8.196-4.137,9.601-8.907
	c1.349-4.578-0.349-8.364-3.775-11.506c-3.171-2.909-6.934-3.458-10.935-2.642c-11.233,2.29-22.385,4.826-33.252,8.627
	c-37.843,13.238-69.037,35.858-93.734,67.194c-18.241,23.145-30.772,49.317-37.483,78.104c-1.765,7.57-3.001,15.27-4.294,22.941
	c-1.348,8.002,5.303,14.452,11.549,13.841C102.722,237.907,107.153,234.336,108.288,228.478z M86.353,281.905
	c1.647,7.018,2.914,14.136,4.823,21.08c7.563,27.508,20.291,52.476,38.32,74.552c14.787,18.106,32.102,33.501,52.188,45.655
	c22.757,13.77,47.244,22.847,73.467,27.233c6.297,1.053,11.752-2.545,13.561-8.754c1.674-5.747-1.35-11.508-7.341-13.767
	c-1.544-0.582-3.206-0.885-4.835-1.206c-4.363-0.858-8.818-1.361-13.095-2.526c-25.937-7.067-49.716-18.512-70.386-35.863
	c-14.45-12.13-27.106-25.953-37.216-41.964c-8.354-13.23-15.009-27.246-19.783-42.195c-2.827-8.853-4.742-17.873-6.563-26.95
	c-1.252-6.238-5.614-9.527-11.911-9.418C89.997,267.435,84.919,275.793,86.353,281.905z M305.774,46.791
	c-4.579,1.981-7.948,7.265-7.22,11.532c1.105,6.476,5.331,10.05,10.467,10.801c5.669,0.829,11.406,1.388,16.976,2.666
	c34.416,7.898,64.479,23.825,89.415,49.044c2.875,2.908,5.599,5.972,8.559,8.79c4.557,4.338,11.251,4.596,15.685,0.786
	c4.806-4.13,5.583-10.689,1.854-15.979c-0.748-1.061-1.538-2.124-2.472-3.015c-7.798-7.435-15.151-15.438-23.552-22.121
	c-23.982-19.077-50.877-32.506-80.896-39.287c-7.567-1.709-15.207-3.091-22.758-4.612C309.667,45.871,307.581,46.009,305.774,46.791
	z M329.554,448.795c16.382-3.42,32.144-8.706,47.24-15.991c17.69-8.536,33.74-19.496,48.353-32.557
	c4.288-3.833,8.357-7.956,12.169-12.263c3.505-3.96,3.811-9.528,1.363-13.492c-2.707-4.382-7.53-6.665-12.327-5.788
	c-3.278,0.599-5.617,2.696-7.853,4.979c-8.73,8.913-18.113,17.073-28.402,24.143c-18.367,12.621-38.377,21.624-60.084,26.697
	c-7.379,1.725-14.913,2.78-22.322,4.387c-5.65,1.226-9.813,6.977-9.211,12.175c0.701,6.046,6.139,10.643,15.082,10.453
	C317.173,450.928,323.409,450.078,329.554,448.795z M335.035,234.094c0-16.917,0-33.834,0-50.751c0-1.301,0.067-2.607-0.02-3.903
	c-0.368-5.476-4.95-10.457-10.064-10.998c-6.077-0.643-10.843,2.65-12.386,8.702c-0.407,1.597-0.601,3.292-0.603,4.942
	c-0.033,34.95-0.038,69.899,0.011,104.849c0.003,1.822,0.199,3.773,0.865,5.441c1.754,4.39,4.84,7.497,9.79,7.957
	c5.036,0.468,8.674-2.131,10.846-6.34c1.126-2.182,1.494-4.96,1.512-7.474c0.123-17.474,0.065-34.949,0.065-52.424
	C335.045,234.094,335.04,234.094,335.035,234.094z M267.227,256.848c0,10.6-0.154,21.202,0.057,31.798
	c0.128,6.46,5.323,11.614,11.175,11.725c6.339,0.12,11.266-4.805,11.693-11.699c0.034-0.556,0.001-1.115,0.001-1.673
	c-0.006-20.27,0-40.539-0.037-60.809c-0.003-1.656-0.088-3.362-0.482-4.959c-1.15-4.664-5.961-8.67-10.348-8.82
	c-4.937-0.168-9.829,3.291-11.233,8.28c-0.593,2.106-0.759,4.386-0.777,6.59c-0.079,9.855-0.034,19.711-0.034,29.567
	C267.236,256.848,267.231,256.848,267.227,256.848z M222.516,289.257c0.249,5.588,5.259,10.648,10.609,11.101
	c5.393,0.457,9.828-2.743,11.552-8.367c0.325-1.059,0.768-2.15,0.775-3.228c0.063-9.639,0.31-19.288-0.055-28.914
	c-0.226-5.94-4.8-10.351-10.046-10.861c-7.136-0.693-12.469,3.892-12.835,11.351c-0.236,4.809-0.044,9.638-0.044,14.459
	C222.471,279.618,222.301,284.446,222.516,289.257z"/>
</svg>
