<?xml version="1.0" encoding="iso-8859-1"?>
<!-- Generator: Adobe Illustrator 19.0.0, SVG Export Plug-In . SVG Version: 6.00 Build 0)  -->
<svg version="1.1" id="Layer_1" xmlns="http://www.w3.org/2000/svg" xmlns:xlink="http://www.w3.org/1999/xlink" x="0px" y="0px"
	 viewBox="0 0 500 500" enable-background="new 0 0 500 500" xml:space="preserve">
<path d="M225.701,464.045c-4.871,10.811-9.479,21.04-14.21,31.539c-13.841,0-27.425,0-42.177,0
	c4.986-15.315,12.539-29.001,18.226-44.102c-11.511-6.502-23.03-13.01-35.541-20.077c-10.509,21.029-18.904,43.111-29.314,64.343
	c-13.991,0-27.618,0-42.648,0c13.907-31.77,27.511-62.847,41.224-94.174c-5.207-8.219-10.681-16.313-15.604-24.729
	c-17.501-29.917-27.468-62.249-30.825-96.728c-3.988-40.962-1.155-81.302,10.811-120.777c15.64-51.593,47.903-88.712,97.344-110.641
	c30.229-13.408,62.209-19.27,94.913-22.003c2.64-0.221,5.284-0.389,8.493-0.623c3.452-8.234,6.866-16.378,10.433-24.888
	c14.013,0,27.832,0,42.755,0c-3.14,8.103-6.075,15.675-9.416,24.295c14.114,2.047,27.729,4.021,42.226,6.124
	c4.323-10.029,8.735-20.267,13.19-30.603c14.091,0,27.677,0,42.544,0c-2.137,5.259-3.619,9.981-5.885,14.291
	c-8.373,15.919-11.575,32.643-10.352,50.656c0.942,13.882,0.188,27.879,0.188,43.418c-9.131-3.496-17.216-6.591-26.352-10.089
	c-43.938,99.894-87.748,199.497-131.859,299.786c12.295,5.128,24.871,7.932,37.705,9.72c29.349,4.087,57.335-2.252,84.739-11.803
	c13.129-4.576,25.851-10.318,39.278-15.743c0,21.434,0,42.668,0,64.523C354.535,471.448,291.548,477.761,225.701,464.045z
	 M304.351,83.987c-38.328,86.922-76.582,173.678-115.239,261.346c9.597,11.708,19.152,23.363,29.675,36.199
	c43.038-98.25,85.351-194.848,127.949-292.095C332.547,85.47,318.772,84.505,304.351,83.987z M258.027,90.87
	c-11.841,2.899-20.909,7.093-29.361,12.625c-19.467,12.739-32.844,30.648-43.152,51.136c-14.06,27.947-19.298,57.874-18.924,88.798
	c0.172,14.253,2.16,28.483,3.325,42.724c0.626,0.086,1.252,0.171,1.879,0.257C200.312,221.742,228.831,157.074,258.027,90.87z"/>
</svg>
