<?xml version="1.0" encoding="utf-8"?>
<!-- Generator: Adobe Illustrator 25.1.0, SVG Export Plug-In . SVG Version: 6.00 Build 0)  -->
<svg version="1.1" id="Layer_1" xmlns="http://www.w3.org/2000/svg" xmlns:xlink="http://www.w3.org/1999/xlink" x="0px" y="0px"
	 viewBox="0 0 500 500" style="enable-background:new 0 0 500 500;" xml:space="preserve">
<g>
	<path d="M457.5,394.4c-63.3,71.1-141.5,97.3-233.8,73.5c-122-31.5-193.3-160-157.9-280.9C95.4,85.9,189.1,19,294.5,24.1
		c56.7,2.7,105.4,24.3,146.3,63.6c6.4,6.2,12.4,12.9,18.7,19.5c0.1-0.7-0.7-2.8-1.2-3.5c-35.1-46.6-80.6-78-137.2-92.4
		c-14.8-3.8-28.6-6.2-45.4-7.8c-10.9-0.4-20.5-0.9-32,0c-16.4,1.5-31.1,3.7-45.9,8C102.2,39.3,42.2,101.8,18.7,198.7
		c-2.8,11.5-3.7,23.4-5.5,35.1c0,10.7,0,21.4,0,32c2.4,14.5,3.9,29.3,7.4,43.5C43.8,404.8,123.1,477.7,220,493.2
		c7.5,1.2,15,2.1,22.5,3.1c11.4,1.2,22.7,0.9,34.5,0c4.7-0.5,9.3-0.9,14-1.6c60.8-8.6,112.1-35.4,153.2-81.2
		c6.1-6.8,16.5-21.9,16.5-21.9C459.6,392.5,458.4,393.3,457.5,394.4z"/>
	<path d="M365.9,314.2c-30.6-4.5-51.8-25-55.1-54.1c-2.2-18.8,6.9-33.3,24-37.8c5-1.3,10.4-1.4,16.1-2.1c-9.3-8-19.1-14.1-31.7-12.2
		c-8.5,1.3-17.1,2.8-25,5.7c-17.4,6.3-31.7,19.9-50.5,22.5c-0.7-0.5-1.3-0.7-1.6-0.6c0.7-17.3,8-29.9,19.2-40.6
		c11.7-11,25.9-14.6,42.9-13.4c-2-1.9-2.8-2.8-3.8-3.6c-18.4-15.1-39.1-15.6-59.7-6.8c-13.9,5.9-26.3,15.1-39.8,22
		c-10.7,5.4-21.7,11.2-33.2,13.8c-19.4,4.4-37.6-9.2-41.2-28.7c-3-16.1,0.6-31.4,5.5-46.6c2-6.2,4.5-12.3,6.8-18.4
		c-2.8,1.1-4.7,2.8-6,4.7c-9.6,14.3-20,28.2-28.6,43c-16.4,28.3-22.1,59.5-20.6,91.9c0.7,15.5,10.9,24,26.3,22.8
		c8-0.6,16.1-3.2,23.7-6c19.1-7,38.4-12.8,58.9-8.8c14,2.7,24.7,11,33.3,24.8c-3.8-0.5-6-0.7-8-1.1c-15.5-2.9-29.3,0.9-41.4,10.9
		c-26.6,22.2-30.3,63.1-8.4,91.7c15.8,20.6,37.6,32.6,62.2,38.6c37.9,9.2,75.9,5.9,113.3-3.4c11.5-2.9,22.7-7.3,34-11.1
		c-51.5,31-107.5,36.2-165.7,29.4c61.9,17.8,122.4,20.7,179.2-16.7c55.4-36.4,86.3-88.3,98.1-152.2c-0.6-0.3-1.1-0.6-1.7-0.9
		c-6.8,6.2-12.9,13.4-20.4,18.5c-5,3.4-9.8,6.8-14.5,10C425.4,313.7,396.6,318.7,365.9,314.2z"/>
	<path d="M189,154.2c0,0,48.4-22.2,69.7-32.2c4.3-2,7.6-1.4,11.3,1.3c52.4,37.8,165.6,118.6,165.6,118.6S333.8,121,281.7,60.3
		C250.6,92.5,189,154.2,189,154.2z"/>
	<path d="M377.1,103.4c-7.4,7-14.1,13.2-21.4,20.2c34.9,25.9,68.9,51,102.9,76.2C458.8,199.5,404.9,135.6,377.1,103.4z"/>
</g>
</svg>
