<?xml version="1.0" encoding="iso-8859-1"?>
<!-- Generator: Adobe Illustrator 19.0.0, SVG Export Plug-In . SVG Version: 6.00 Build 0)  -->
<svg version="1.1" id="Layer_1" xmlns="http://www.w3.org/2000/svg" xmlns:xlink="http://www.w3.org/1999/xlink" x="0px" y="0px"
	 viewBox="0 0 500 500" enable-background="new 0 0 500 500" xml:space="preserve">
<path d="M493.866,249.886c1.733,130.512-108.145,247.327-251.671,242.99C116.026,489.064,6.13,386.5,6.272,247.791
	C6.409,115.112,115.434,0.071,260.51,5.163C385.567,9.552,495.487,113.896,493.866,249.886z M483.342,218.805
	c-0.935,2.266-1.376,3.093-1.625,3.975c-1.684,5.957-2.743,12.166-5.09,17.846c-8.107,19.622-20.222,36.517-36.381,50.341
	c-10.352,8.856-22.858,12.629-36.178,12.726c-9.038,0.066-18.115-2.167-26.187-6.202c-7.054-3.526-14.388-7.336-18.853-14.48
	c-7.36-11.775-16.445-21.747-28.149-29.512c-9.753-6.471-20.443-9.317-31.718-9.105c-7.848,0.147-15.562,0.94-23.498-0.082
	c-9.615-1.238-18.317-4.708-25.957-9.991c-9.556-6.609-18.359-14.364-27.14-22.022c-10.139-8.842-21.527-15.323-34.236-19.494
	c-10.263-3.368-20.785-5.214-31.447-2.232c-8.585,2.401-13.84,9.269-11.168,16.897c1.436,4.1,3.63,8.115,6.258,11.58
	c5.596,7.379,12.145,14.058,17.486,21.603c7.312,10.327,12.499,21.667,14.854,34.355c1.708,9.205,3.326,18.237,0.889,27.466
	c-1.324,5.014-1.974,10.53-4.58,14.816c-5.446,8.96-12.326,16.837-21.697,22.248c-16.355,9.445-33.404,15.369-52.749,13.389
	c-16.677-1.707-31.071-8.645-44.851-17.503c-12.781-8.215-22.867-19.45-33.677-29.871c-1.735-1.672-3.056-3.772-4.569-5.675
	c-0.462,0.189-0.925,0.377-1.387,0.566c0,1.242-0.255,2.548,0.042,3.714c1.735,6.796,3.302,13.658,5.512,20.303
	c1.839,5.529,4.791,10.684,6.714,16.191c5.294,15.161,13.554,28.755,22.449,41.904c6,8.871,13.103,17.015,19.994,25.25
	c1.701,2.033,4.358,3.431,6.813,4.637c8.368,4.107,17.646,4.121,26.563,4.551c15.552,0.75,30.762-2.265,45.197-8.658
	c6.434-2.849,12.954-5.495,19.563-7.91c5.619-2.053,13.766-5.614,20.746-4.77c8.829,1.067,17.156,4.384,23.242,11.488
	c5.353,6.248,10.781,12.452,15.762,18.991c4.896,6.427,11.174,8.925,18.97,8.143c1.774-0.178,3.511-0.745,5.261-1.149
	c17.322-3.996,31.311-12.866,40.654-28.261c4.862-8.012,5.43-16.918,5.927-26.16c0.796-14.801-4.838-26.914-13.122-38.222
	c-5.954-8.127-13.639-14.633-21.656-20.681c-7.569-5.71-11.752-12.809-10.664-22.677c0.571-5.183,6.21-13.453,11.338-13.748
	c6.514-0.375,13.284-0.229,19.627,1.151c14.035,3.055,25.34,11.78,36.259,20.397c18.199,14.364,33.294,31.719,46.121,51.116
	c3.148,4.761,7.527,9.252,12.341,12.271c18.912,11.859,38.762,12.008,58.661,2.498c7.304-3.491,13.384-8.345,16.801-16.442
	c5.28-12.51,10.833-24.836,14.883-37.875c5.278-16.995,8.398-34.366,9.406-51.963C485.939,249.828,486.357,234.948,483.342,218.805z
	 M448.859,376.497c-4.801-0.999-7.48-0.886-10.161,1.403c-1.716,1.466-4.256,2.193-6.548,2.709
	c-3.55,0.799-7.208,1.106-10.813,1.674c-9.214,1.454-17.916-1.149-26.7-3.248c-7.33-1.751-12.41-6.976-17.891-11.512
	c-2.745-2.272-5.106-5.071-7.369-7.852c-6.72-8.257-10.266-18.93-19.371-25.404c-0.92-0.654-1.329-1.984-2.101-2.893
	c-3.787-4.457-7.234-9.301-11.536-13.197c-4.63-4.193-10.122-7.422-15.156-11.181c-12.394-9.255-24.532-18.765-41.17-19.257
	c-6.107-0.181-11.235,0.653-14.759,5.88c-3.057,4.536-1.739,10.608,1.931,16.287c4.205,6.507,11.056,9.93,16.242,15.265
	c7.612,7.832,14.894,15.75,20.265,25.449c3.656,6.601,4.969,13.541,5.619,20.722c0.972,10.733,1.13,21.471-4.316,31.335
	c-1.737,3.147-4.209,5.924-5.687,9.17c-2.625,5.762-7.389,9.295-12.227,12.782c-8.211,5.918-17.292,9.806-27.034,12.774
	c-11.12,3.387-20.146,1.661-27.707-7.214c-2.576-3.024-5.308-5.925-7.75-9.053c-4.995-6.395-9.383-13.091-17.33-16.758
	c-6.004-2.77-11.762-5.282-18.307-3.556c-5.758,1.518-11.399,3.553-16.979,5.659c-9.872,3.726-19.394,8.724-29.543,11.284
	c-14.211,3.586-26.408,3.68-43.663,3.33c-3.987-0.176-5.88-0.057-8.962-0.057c2.43,3.618,18.617,17.036,24.517,20.27
	c9.085,4.979,17.741,10.745,26.532,16.253c6.173,3.868,12.922,6.527,19.649,9.117c8.729,3.361,17.646,6.256,26.562,9.099
	c4.012,1.279,8.218,1.954,12.338,2.893c7.685,1.751,15.303,3.982,23.081,5.088c6.402,0.911,13.004,0.686,19.505,0.551
	c10.315-0.213,20.624-0.629,30.918-1.32c11.553-0.775,23.068-1.832,34.184-5.623c5.15-1.756,10.609-2.585,15.86-4.073
	c3.842-1.089,7.662-2.357,11.336-3.915c7.382-3.13,14.901-5.743,21.794-10.228c8.458-5.504,18.588-8.596,26.577-14.614
	c5.951-4.483,11.77-9.352,17.832-13.786c4.137-3.026,7.341-6.907,11.028-10.309c7.703-7.109,14.82-14.693,21.471-22.753
	c2.155-2.613,4.322-5.223,6.339-7.941C442.377,385.679,445.271,381.516,448.859,376.497z M101.126,150.452
	c2.433-9.583,4.881-19.462,7.46-29.307c1.977-7.55,4.046-15.077,6.223-22.571c0.867-2.985,3.241-4.723,6.243-4.807
	c3.117-0.087,5.96,0.91,7.076,4.413c0.72,2.26,1.704,4.445,2.313,6.731c1.726,6.471,3.32,12.977,5.022,19.69
	c8.436-6.142,16.444-11.802,24.263-17.712c8.232-6.221,8.328-6.277,10.55-14.355c2.379-8.647,4.396-17.395,6.55-26.103
	c1.227-4.96,3.069-9.693,7.836-12.165c8.873-4.602,18.796,0.032,21.396,9.705c1.388,5.162,2.779,10.324,4.272,15.867
	c6.134-1.021,11.82-1.967,17.611-2.93c2.133-8.12,4.147-15.848,6.2-23.565c0.721-2.711,1.647-5.37,2.286-8.098
	c1.81-7.723,8.927-10.684,14.263-10.816c6.301-0.155,12.039,4.486,13.848,11.283c2.718,10.213,5.19,20.492,7.901,31.275
	c5.88,0.876,11.875,1.769,18.063,2.691c1.29-5.183,2.265-9.435,3.418-13.638c1.164-4.245,2.641-8.483,6.553-10.978
	c8.823-5.626,19.899-1.428,22.574,8.602c2.671,10.016,5.097,20.1,7.475,30.19c1.102,4.677,3.003,8.617,7.539,10.847
	c1.072,0.527,2.084,1.176,3.029,1.909c12.201,9.463,24.383,18.95,36.787,28.6c1.271-4.46,2.579-8.873,3.782-13.315
	c1.827-6.744,3.377-13.57,5.443-20.238c1.255-4.048,4.891-6.616,8.014-6.236c3.977,0.484,6.402,2.665,7.37,6.75
	c1.28,5.402,3.081,12.499,4.645,18.035c0.647-0.06,1.341-1.807,2.083-2.014c6.755-1.883,10.53,0.048,12.433,6.514
	c0.62,2.108,0.973,4.294,1.531,6.423c2.678,10.221,5.384,20.435,8.162,30.963c10.222,1.785,20.193,3.654,30.501,2.306
	c0.216-2.415,1.351-14.395-0.708-18.644c-5.79-11.944-12.887-22.966-20.434-33.897c-17.403-25.207-39.678-45.125-65.182-61.392
	c-12.091-7.712-25.354-13.792-38.569-19.492c-20.736-8.944-42.721-13.943-65.136-15.856c-16.056-1.37-32.27-1.408-48.418,0.849
	c-12.733,1.78-25.315,3.922-37.716,7.401c-23.956,6.721-46.251,17.137-66.728,31.018c-15.696,10.641-30.261,22.797-42.898,37.238
	c-10.113,11.556-19.06,23.827-27.244,36.707c2.871,11.928,4.898,23.905,9.701,35.628C73.451,161.719,87.442,158.042,101.126,150.452
	z M44.835,138.298c-0.707-0.118-0.79-0.132-1.496-0.251c-0.561,0.81-1.225,1.568-1.669,2.438
	c-8.59,16.869-15.539,34.39-19.626,52.888c-2.249,10.182-3.822,20.544-5.112,30.898c-0.881,7.072-1.43,14.178-1.742,21.299
	c-0.332,7.558-0.782,15.772,0.872,23.336c1.146,5.24-0.649,11.043,2.872,15.761c4.77,6.391,9.197,13.11,14.547,18.981
	c11.186,12.274,23.42,23.421,37.842,31.949c11.026,6.52,22.705,11.14,35.539,12.128c16.52,1.271,31.893-2.67,46.308-10.798
	c11.235-6.335,20.137-14.777,24.696-27.034c4.184-11.249,4.092-22.831,1.4-34.421c-4.446-19.144-13.995-35.251-28.044-47.83
	c-6.346,0.738-11.894,1.742-17.471,1.938c-6.581,0.232-13.403,0.775-19.741-0.584c-19.905-4.267-34.771-16.099-46.082-32.778
	c-9.834-14.501-15.498-30.754-20.339-47.373C46.574,145.356,45.744,141.815,44.835,138.298z M469.637,166.066
	c-0.513,0.044-2.766,4.555-3.782,7.367c-3.507,11.38-7.084,22.731-13.117,32.992c-6.63,11.275-14.871,21.394-24.89,29.931
	c-10.084,8.593-21.414,14.013-35.003,13.89c-10.108-0.091-19.559-3.033-28.037-7.988c-14.694-8.588-28.854-18.088-43.258-27.172
	c-16.963-10.697-33.576-21.866-54.185-25.028c-17.733-2.721-33.175,2.189-48.214,11.156c0.535,1.161,0.673,2.078,1.206,2.525
	c8.985,7.535,17.711,15.426,27.123,22.39c10.769,7.968,22.545,13.88,36.636,13.171c6.075-0.306,12.22-0.504,18.256,0.07
	c6.332,0.602,12.813,1.464,18.803,3.479c18.134,6.101,30.725,19.061,41.132,34.586c2.204,3.288,4.989,6.44,8.158,8.768
	c4.749,3.49,9.911,6.373,15.641,8.324c8.351,2.843,16.884,4.278,25.496,3.033c14.378-2.079,25.904-9.694,35.012-20.761
	c5.975-7.26,11.882-14.689,16.824-22.66c9.573-15.443,13.68-32.826,15.724-50.677c0.937-8.177-2.414-15.752-4.668-23.408
	C473.1,175.323,471.27,170.723,469.637,166.066z M218.129,195.172c14.513-9.453,28.998-12.219,44.556-12.202
	c0.66-1.499,1.48-2.87,1.886-4.355c4.25-15.564,8.569-31.111,12.561-46.742c1.371-5.366,3.429-10.87,1.493-16.541
	c-3.227-9.454-6.878-18.77-9.868-28.295c-2.2-7.009-3.625-14.261-5.404-21.403c-1.588-6.375-3.086-12.774-4.819-19.11
	c-1.09-3.986-4.832-5.647-8.109-5.732c-2.466-0.064-6.401,2.006-7.25,4.108c-2.795,6.922-4.614,14.255-6.56,21.497
	c-1.807,6.727-3.106,13.592-4.979,20.299c-1.778,6.367-4.945,12.482-5.81,18.934c-1.14,8.499-5.414,16.272-5.199,24.984
	c0.009,0.378-0.255,0.76-0.375,1.145c-1.546,4.94-3.241,9.841-4.588,14.835c-1.197,4.437-1.785,9.042-3.035,13.461
	c-2.727,9.646-5.892,19.171-8.494,28.848c-1.207,4.488,2.946,8.155,7.59,7.311C214.289,195.75,216.87,195.375,218.129,195.172z
	 M357.808,221.459c-1.439-6.168-2.823-12.876-4.579-19.485c-6.712-25.257-13.773-50.423-20.242-75.741
	c-3.58-14.009-8.719-27.619-10.384-42.154c-0.674-5.883-2.911-11.605-4.626-17.344c-1.331-4.456-5.673-7.973-9.386-7.962
	c-4.143,0.013-7.264,2.79-8.924,8.172c-0.757,2.455-1.186,5.009-1.856,7.494c-2.07,7.68-4.269,15.326-6.263,23.025
	c-3.561,13.745-6.991,27.523-10.512,41.278c-2.19,8.556-4.571,17.065-6.634,25.651c-1.232,5.126-2.178,10.32-3.299,16.03
	c-0.341,1.74,0.644,3.474,2.313,4.071c3.328,1.192,6.568,2.352,9.811,3.506c5.022,1.786,10.333,3.016,15.001,5.472
	c8.239,4.335,15.737,10.104,23.701,14.907c7.651,4.615,15.018,9.667,22.249,14.916C349.134,226.892,352.333,226.88,357.808,221.459z
	 M360.027,230.475c8.99,6.112,17.926,11.077,28.736,12.123c9.334,0.904,18.604-0.039,26.091-5.078
	c8.123-5.468,14.983-12.91,22.011-19.877c6.725-6.666,10.496-15.289,14.824-23.604c3.43-6.589,5.142-13.542,8.413-20.41
	c-8.384-2.586-15.707-2.286-24.595-3.719c0.204,4.732,0.811,7.997,1.632,12.328c0.643,3.392,1.811,7.321,1.848,11.071
	c0.037,3.707-2.998,6.824-6.284,6.854c-13.201,0.121-26.404,0.115-39.605-0.004c-3.22-0.029-5.309-1.924-5.398-5.303
	c-0.058-2.209,0.218-4.436,0.464-6.642c0.286-2.568,0.701-5.122,1.055-7.65c-5.422-4.076-11.407-1.327-16.799-2.686
	c-4.931-5.056-2.62-10.717-1.333-16.381c1.456-6.405,2.662-12.868,3.894-18.901c-12.135-11.105-23.614-21.279-37.533-29.683
	c-0.236,2.069-0.623,3.083-0.409,3.949c1.865,7.545,3.726,15.095,5.81,22.582c2.241,8.054,4.696,16.049,7.104,24.055
	c3.395,11.288,6.974,22.522,10.214,33.854C363.328,208.407,369.016,219.541,360.027,230.475z M152.612,185.64
	c2.575-0.138,4.569-0.165,6.544-0.37c2.537-0.263,5.052-0.888,7.589-0.973c9.083-0.303,17.874,1.625,26.646,3.703
	c3.778,0.895,5.629-0.333,6.702-4.306c0.677-2.503,0.929-5.12,1.606-7.623c3.789-14.014,7.589-28.026,11.515-42.002
	c1.675-5.964,2.455-11.678,0.397-17.885c-2.615-7.887-4.023-16.166-6.412-24.139c-3.354-11.194-7.131-22.262-10.649-33.145h-8.078
	c-4.825,3.188-6.054,7.845-6.867,12.934c-0.624,3.908-2.013,7.699-3.138,11.52c-0.393,1.334-1.178,2.561-1.502,3.904
	c-1.963,8.143-3.688,16.347-5.796,24.452c-2.38,9.149-5.188,18.186-7.617,27.323c-3.793,14.268-7.438,28.575-11.084,42.881
	C152.233,182.841,152.528,183.903,152.612,185.64z M61.285,171.729c1.079,1.82,2.101,3.104,2.667,4.566
	c5.421,14.002,14.021,25.659,25.776,34.958c3.747,2.964,7.371,6.995,11.688,8.143c9.871,2.626,19.941,5.021,30.435,4.099
	c3.84-0.337,5.059-2.195,5.99-5.477c2.417-8.52,2.477-17.34,5.529-25.982c6.343-17.956,10.463-36.699,15.461-55.128
	c1.197-4.415,2.346-8.847,3.343-13.311c0.67-2.998,1.044-6.062,1.544-9.098c-0.602-0.414-0.691-0.475-1.293-0.889
	c-8.892,5.155-17.471,10.733-24.541,19.18c1.215,5.002,2.275,10.319,3.824,15.489c1.745,5.825,3.765,11.517-0.67,17.803
	c-9.483,0-19.408-0.287-29.306,0.111c-5.681,0.228-10.287-0.669-13.011-7.162c-5.247,2.084-10.109,4.035-14.989,5.94
	c-1.028,0.401-2.755,0.906-3.841,1.107c-4.725,0.877-9.495,1.547-14.163,2.656C64.158,169.105,62.861,170.626,61.285,171.729z
	 M428.801,194.11c2.317,0.053,4.1-2.035,3.659-4.31c-0.146-0.752-0.32-1.464-0.491-2.138c-5.302-20.997-10.755-41.956-16.29-62.893
	c-0.038-0.145-0.099-0.284-0.178-0.419c-0.878-1.493-3.162-1.123-3.642,0.541c-6.105,21.181-12.039,41.703-17.876,62.251
	c-0.108,0.38-0.246,0.784-0.371,1.216c-0.67,2.324,1.032,4.693,3.443,4.88C407.523,194.054,418.098,193.867,428.801,194.11z
	 M118.902,103.046c-0.692,3.348-1.128,6.1-1.843,8.777c-1.109,4.152-2.707,8.192-3.56,12.389
	c-1.576,7.749-2.404,15.652-5.833,22.948c-0.835,1.777-1.09,3.858-1.43,5.83c-0.745,4.319,1.906,7.792,6.255,7.745
	c7.084-0.077,14.173-0.37,21.245-0.806c5.029-0.31,6.317-3.145,4.152-7.879c-1.744-3.812-3.566-7.663-4.657-11.685
	c-3.322-12.248-6.293-24.591-9.462-36.881c-0.177-0.686-0.9-1.232-1.462-1.963L118.902,103.046z M379.417,172.286h13.122
	c0.927-3.483,1.758-4.985,2.42-7.399c2.463-8.993,4.701-18.055,6.703-27.162c0.846-3.847,1.796-8.032,1.119-11.778
	c-1.236-6.837-3.286-13.526-5.141-20.248c-0.475-1.722-2.39-2.667-4.01-1.914c-1.291,0.6-1.699,1.487-2.179,3.408
	c-3.583,14.355-7.263,28.687-10.714,43.074c-1.436,5.987-3.769,12.037-4.392,18.717
	C376.179,170.764,377.629,172.286,379.417,172.286z M282.81,108.913c2.141-7.45,4.021-13.268,5.334-19.212
	c0.24-1.085-1.585-3.026-2.895-3.951c-1.554-1.097-3.573-1.55-5.408-2.234c-3.687-1.375-6.239,0.625-5.3,4.446
	c1.325,5.389,2.93,10.718,4.65,15.996C279.642,105.34,280.96,106.44,282.81,108.913z M220.087,106.243
	c1.941-7.573,3.854-15.038,5.956-23.238c-4.971,0.77-8.644,1.339-12.224,1.893C212.854,91.974,216.173,103.323,220.087,106.243z
	 M279.89,253.856c4.679,0.775,10.317,1.775,12.999,8.066c2.813,6.599-0.375,9.995-6.308,11.358
	c-4.56,1.048-14.441-3.798-16.786-7.728c-3.276-5.493-0.461-11.046,5.948-11.682C276.741,253.77,277.758,253.856,279.89,253.856z
	 M288.999,266.489c-4.016-7.589-9.993-9.686-14.506-5.473C278.357,267.065,280.997,268.111,288.999,266.489z M325.636,200.223
	c-10.61-1.477-20.915-5.435-23.954-15.969c-1.522-5.274,1.994-12.189,7.392-13.079c9.44-1.557,18.294-0.27,25.459,6.984
	c3.881,3.93,5.645,10.345,3.826,14.783C336.452,197.595,331.806,200.254,325.636,200.223z M314.999,177.105
	c-1.007,0-2.029-0.109-3.02,0.019c-4.261,0.548-5.781,3.485-3.825,7.287c3.143,6.11,14.624,10.746,20.918,8.447
	c3.917-1.431,4.851-4.073,2.416-7.465C327.462,179.787,321.783,177.29,314.999,177.105z M107.788,209.888
	c-11.349-1.462-20.916-5.994-27.457-15.86c-4.591-6.924-5.018-11.281-0.378-17.319c1.692-2.202,4.516-4.103,7.189-4.879
	c9.169-2.662,18.097-2.278,26.003,4.015c0.94,0.748,1.924,1.721,3.021,1.95c7.591,1.582,9.49,8.159,11.269,13.947
	c3.347,10.888-5.427,18.641-16.676,18.606C109.768,210.345,108.779,210.048,107.788,209.888z M110.312,203.963
	c1.218-0.255,3.242-0.476,5.126-1.111c7.427-2.502,8.951-7.902,3.92-13.923c-1.552-1.858-3.2-3.778-5.18-5.111
	c-7.765-5.229-16.044-8.841-25.581-5.304c-6.116,2.268-7.64,7.504-3.534,12.544C91.321,198.74,99.507,203.109,110.312,203.963z"/>
</svg>
