<?xml version="1.0" encoding="iso-8859-1"?>
<!-- Generator: Adobe Illustrator 19.0.0, SVG Export Plug-In . SVG Version: 6.00 Build 0)  -->
<svg version="1.1" id="Layer_1" xmlns="http://www.w3.org/2000/svg" xmlns:xlink="http://www.w3.org/1999/xlink" x="0px" y="0px"
	 viewBox="0 0 2000 2000" style="enable-background:new 0 0 2000 2000;" xml:space="preserve">
<path d="M1001.88,1942.733c-522.573,2.43-959.697-424.836-953.408-965.541C54.396,467.791,474.746,22.269,1033.96,38.871
	c495.194,14.702,926.926,423.374,919.376,968.356C1946.228,1520.328,1527.058,1943.039,1001.88,1942.733z M1001.765,125.12
	c-480.425-1.077-851.907,384.811-866.337,832.962c-16.441,510.572,390.2,893.727,851.96,898.858
	c497.084,5.524,864.659-388.921,879.484-833.996C1883.856,513.035,1470.284,121.541,1001.765,125.12z M1813.739,990.698
	c1.753,448.235-361.276,802.004-788.713,813.279c-472.046,12.452-836.909-371.435-837.367-811.4
	c-0.467-448.038,366.807-819.044,820.072-815.428C1451.531,180.689,1815.844,543.897,1813.739,990.698z M1216.961,1081.733
	c-19.729,19.898-39.2,39.363-58.474,59.021c-23.977,24.456-51.678,42.745-84.233,54.071c-46.769,16.272-93.616,17.357-140.641,2.318
	c-96.356-30.816-162.282-127.975-147.714-235.27c7.859-57.881,34.431-105.273,79.698-141.114
	c49.595-39.267,106.52-54.367,169.684-44.489c48.832,7.636,89.69,29.992,123.944,65.071c18.949,19.405,37.669,39.034,55.61,57.647
	c105.225-105.086,208.69-208.414,313.106-312.693c-2.567-2.167-5.428-4.367-8.047-6.825
	c-38.96-36.575-76.235-75.173-117.259-109.262c-47.301-39.306-101.583-68.007-159.037-90.486
	c-45.162-17.67-91.719-29.949-140.229-38.113c0-42.433,0-84.362,0-126.557c-66.069,0-131.232,0-197.048,0c0,42.056,0,83.4,0,125.24
	c-179.163,28.557-324.893,113.334-433.252,258.542c-108.505,145.404-147.214,309.815-122.629,488.714
	c34.458,250.74,232.741,503.629,556.204,554.024c0,41.36,0,82.901,0,124.218c66.273,0,131.461,0,197,0c0-4.384,0-7.988,0-11.592
	c0-35.499,0.013-70.997-0.016-106.496c-0.004-4.35-0.396-8.072,5.717-9.425c28.142-6.227,56.445-11.981,84.187-19.714
	c70.951-19.777,136.11-52.233,194.566-96.708c32.694-24.875,62.409-53.704,93.095-81.166c16.509-14.774,32.236-30.423,48.775-46.112
	C1424.356,1289.019,1320.913,1185.631,1216.961,1081.733z M616.194,701.167c-152.957,200.616-130.325,509.789,104.186,680.415
	c109.143,79.41,232.512,105.43,365.547,83c67.695-11.413,129.833-37.197,187.309-76.764c-22.005-21.663-42.753-42.088-63.844-62.851
	c-54.812,34.228-115.066,53.685-179.636,58.534c-37.934,2.849-75.979,0.464-113.226-8.014
	c-90.099-20.506-165.067-66.449-222.488-138.673c-74.638-93.881-100.97-201.095-79.469-318.995
	c19.872-108.968,78.107-193.73,169.394-255.527c55.435-37.527,117.128-57.981,184.062-63.727
	c39.863-3.422,78.893-0.323,117.802,7.782c42.435,8.839,81.906,25.056,119.117,47.143c2.208,1.31,7.274,1.103,8.968-0.524
	c19.887-19.106,39.383-38.619,59.547-58.583C1092.968,465.26,791.969,470.622,616.194,701.167z"/>
</svg>
