<?xml version="1.0" encoding="iso-8859-1"?>
<!-- Generator: Adobe Illustrator 19.0.0, SVG Export Plug-In . SVG Version: 6.00 Build 0)  -->
<svg version="1.1" id="Layer_1" xmlns="http://www.w3.org/2000/svg" xmlns:xlink="http://www.w3.org/1999/xlink" x="0px" y="0px"
	 viewBox="0 0 2000 2000" style="enable-background:new 0 0 2000 2000;" xml:space="preserve">
<path d="M1192.28,289.714c37.063,14.162,70.341,26.276,103.156,39.534c85.123,34.393,159.91,84.788,225.347,148.891
	c61.415,60.163,82.062,132.72,54.074,214.188c-25.283,73.592-79.821,117.205-157.062,130.112
	c-63.904,10.678-120.554-6.158-168.103-50.143c-45.881-42.442-95.954-77.015-157.823-91.482
	c-114.951-26.878-218.845-4.279-306.515,75.428c-96.801,88.009-131.939,199.661-102.016,326.101
	c24.844,104.98,90.536,182.146,190.504,226.117c109.367,48.106,215.345,36.439,316.269-25.049
	c18.949-11.545,36.511-26.457,51.966-42.466c90.97-94.229,261.22-75.441,323.112,50.641
	c38.264,77.948,23.349,167.559-37.849,229.827c-87.751,89.285-192.63,149.064-311.859,185.025c-6.189,1.867-11.927,5.227-21.4,9.471
	c0,78.548,0,157.381,0,233.912c-26.92,14.518-94.251,23.017-133.66,17.055c0-75.077,0-151.153,0-230.055
	c-48.073,0-90.668,0-137.177,0c0,76.736,0,152.094,0,230.111c-46.278,3.56-87.255-4.253-132.781-16.088c0-80.313,0-161.491,0-240.89
	c-352.923-143.07-540.266-396.506-509.362-776.766c25.451-313.157,209.62-517.781,504.822-631.741
	c1.008-6.641,3.79-16.814,3.898-27.016c0.696-65.837,0.769-131.68,1.159-197.521c0.049-8.259,0.758-16.513,1.43-30.268
	c41.464-6.356,83.091-12.736,129.231-19.808c0,84.085,0,162.699,0,243.381c47.044,0,90.33,0,137.986,0c0-80.433,0-158.255,0-239.327
	c47.393-6.375,87.875,10.109,132.652,10.414C1192.28,126.773,1192.28,207.362,1192.28,289.714z M1010.539,1606.296
	c31.077-3.657,66.774-6.353,101.931-12.265c125.023-21.026,231.852-77.594,320.839-167.797
	c21.949-22.249,25.764-52.281,10.663-77.705c-16.446-27.688-47.448-41.47-76.946-30.4c-14.9,5.592-28.679,16.434-40.527,27.51
	c-54.003,50.483-116.786,86.557-187.231,106.143c-95.902,26.664-192.685,26.409-287.223-8.659
	c-167.779-62.236-269.334-183.69-303.532-357.273c-16.282-82.646-8.146-166.708,22.728-247.792
	c31.128-81.752,80.898-149.613,148.527-202.564c81.808-64.053,175.762-98.458,281.486-98.098
	c61.286,0.209,120.195,8.412,177.493,31.417c59.64,23.945,111.668,58.47,158.202,102.214c19.326,18.167,41.798,27.459,68.415,18.332
	c48.789-16.731,64.744-71.302,27.976-107.751c-32.239-31.96-68.064-61.659-106.402-85.869
	c-150.406-94.982-313.168-116.337-483.952-69.725c-81.844,22.338-155.516,62.594-220.391,118.112
	c-141.786,121.335-212.922,276.361-215.34,461.772c-1.181,90.58,18.203,178.653,60.227,259.616
	C580.491,1483.239,761.649,1593.96,1010.539,1606.296z M1746.466,1635.651c168.851-202.574,245.461-435.578,230.978-699.208
	c-22.976-418.209-326.1-766.892-681.877-867.588c0,47.99,0,95.049,0,145.826c334.002,150.834,537.277,403.986,538.859,781.357
	c1.584,377.749-197.021,633.606-539.504,789.433c0,44.944,0,93.363,0,144.307C1426.808,1901.586,1621.12,1786.031,1746.466,1635.651
	z M691.394,1910.544c0.289-39.177,1.372-78.417-0.668-117.489c-0.456-8.733-10.515-19.776-19.065-24.807
	c-47.629-28.026-98.004-51.725-144.01-82.099c-118.146-78.001-207.51-182.603-271.491-308.591
	c-46.807-92.17-75.581-189.229-86.23-292.95c-9.122-88.851-5.076-176.29,13.733-262.368c18.774-85.92,51.246-167.445,96.812-243.701
	c84.065-140.685,197.727-248.936,344.178-322.703c22.725-11.446,45.068-23.652,65.03-34.16c0-49.588,0-95.049,0-146.596
	c-87.741,23.726-163.767,63.987-234.469,112.932C210.237,357.603,64.499,590.249,29.333,886.739
	c-56.743,478.416,242.875,907.656,657.734,1036.64C688.999,1917.863,691.367,1914.212,691.394,1910.544z"/>
</svg>
