<?xml version="1.0" encoding="iso-8859-1"?>
<!-- Generator: Adobe Illustrator 19.0.0, SVG Export Plug-In . SVG Version: 6.00 Build 0)  -->
<svg version="1.1" id="Layer_1" xmlns="http://www.w3.org/2000/svg" xmlns:xlink="http://www.w3.org/1999/xlink" x="0px" y="0px"
	 viewBox="0 0 2000 2000" style="enable-background:new 0 0 2000 2000;" xml:space="preserve">
<path d="M1980.816,998.546c10.489,518.269-408.541,984.152-977.452,982.786C432.332,1979.96,8.286,1531.561,21.428,970.11
	C33.111,470.991,425.92,19.697,1002.031,17.601C1566.11,15.549,1991.469,477.839,1980.816,998.546z M105.126,1006.523
	c-7.556,478.665,405.681,895.757,896.828,892.868c497.979-2.929,898.151-394.952,900.818-896.591
	c2.67-502.301-406.497-917.545-934.414-903.271C519.413,111.667,92.796,503.933,105.126,1006.523z M399.893,1431.117
	c14.546-13.371,31.125-25.117,43.314-40.372c88.359-110.585,175.617-222.049,263.648-332.898
	c85.919-108.188,171.799-216.416,258.79-323.74c38.826-47.901,57.019-49.592,88.25-10.831
	c115.54,143.393,230.248,287.456,345.643,430.967c66.241,82.381,132.87,164.459,200.288,245.875
	c7.844,9.473,21.854,13.841,33.005,20.576c6.308-12.924,17.195-25.55,18.062-38.829c2.553-39.125-0.765-78.633,1.791-117.758
	c2.695-41.243-8.143-74.933-34.129-108.123c-188.093-240.232-374.447-481.825-561.791-722.645
	c-32.54-41.829-54.463-40.164-87.987,3.204C788.452,669.818,610.06,904.631,426.682,1135.481
	c-73.651,92.717-42.837,191.211-45.287,288.872C387.56,1426.608,393.727,1428.863,399.893,1431.117z M1160.775,1128.325
	c0.025-91.815-64.789-155.903-158.242-156.468c-90.438-0.547-160.598,71.508-158.972,163.265
	c1.597,90.138,68.206,152.373,162.727,152.042C1098.787,1286.839,1160.748,1223.132,1160.775,1128.325z"/>
</svg>
