<?xml version="1.0" encoding="iso-8859-1"?>
<!-- Generator: Adobe Illustrator 19.0.0, SVG Export Plug-In . SVG Version: 6.00 Build 0)  -->
<svg version="1.1" id="Layer_1" xmlns="http://www.w3.org/2000/svg" xmlns:xlink="http://www.w3.org/1999/xlink" x="0px" y="0px"
	 viewBox="0 0 2000 2000" style="enable-background:new 0 0 2000 2000;" xml:space="preserve">
<path d="M1095.746,31c229.987,127.157,458.564,253.535,688.648,380.745c-90.617,134.939-180.363,268.58-271.086,403.677
	c-139.994-92.162-279.377-183.921-419.456-276.138c-142.684,80.132-284.901,160.001-426.421,239.48c0,156.504,0,311.537,0,466.68
	c143.321,78.986,285.524,157.357,429.498,236.703c139.937-77.478,280.908-155.529,422.802-234.091
	c84.16,113.763,167.847,226.886,252.675,341.551c-227.982,122.672-454.264,244.428-679.932,365.854
	c-291.73-154.596-582.236-308.544-873.592-462.942c0-327.337,0-654.609,0-984.368C510.044,349.716,802.425,190.614,1095.746,31z"/>
</svg>
