<?xml version="1.0" encoding="iso-8859-1"?>
<!-- Generator: Adobe Illustrator 19.0.0, SVG Export Plug-In . SVG Version: 6.00 Build 0)  -->
<svg version="1.1" id="Layer_1" xmlns="http://www.w3.org/2000/svg" xmlns:xlink="http://www.w3.org/1999/xlink" x="0px" y="0px"
	 viewBox="0 0 2000 2000" style="enable-background:new 0 0 2000 2000;" xml:space="preserve">
<path d="M1012.112,1575.867c0-80.156,0-151.692,0-224.738c-7.848-0.962-13.384-1.641-22.316-2.736c0,73.702,0,146.093,0,225.832
	c-28.487-29.001-51.715-52.649-78.149-79.561c0-45.275,0-93.988,0-143.829c-7.735-0.768-12.555-1.247-19.959-1.983
	c0,38.337,0,75.72,0,116.927c-64.874-39.821-87.496-98.067-88.305-168.311c-66.434,0-127.893,0-192.488,0
	c0-87.024,0-171.514,0-258.309c-12.443,0-21.718,0-30.993,0c-144.44,0-288.886-0.782-433.314,0.501
	c-40.547,0.36-106.788-34.684-126.607-71.547c215.007,0,428.136,0,636.854,0c10.019-66.29,15.625-129.232,29.841-190.166
	c14.159-60.691,43.86-115.528,87.812-161.836c-15.385,68.194-14.518,134.577,11.522,200.207
	c3.379-85.895,48.087-155.052,87.627-226.344c39.6-71.4,63.151-145.823,39.25-228.3c-0.68-2.348-0.211-5.166,0.27-7.659
	c0.279-1.443,1.655-2.675,3.714-5.772c61.917,34.147,101.787,85.083,119.191,153.418c16.564,65.035,12.665,130.951,6.843,196.864
	c-0.27,3.059,0.576,6.216,0.903,9.327c2.219,0.792,4.437,1.585,6.656,2.377c5.744-13.951,14.325-27.434,16.716-41.938
	c8.074-48.979,12.563-98.562,21.092-147.448c7.273-41.686,25.759-78.785,55.098-109.448c12.462,41.221,23.477,81.88,37.133,121.631
	c13.413,39.043,30.45,76.832,44.205,115.769c20.518,58.085,20.111,115.673-8.416,171.685c-2.963,5.818-4.475,12.376-8.342,23.373
	c59.417-9.969,77.599-52.098,92.812-102.62c43.597,73.955,41.063,147.375,22.083,225.216c219.454,0,436.386,0,657.11,0
	c-15.599,34.677-43.495,50.233-71.537,60.827c-23.826,9.002-51.299,11.199-77.197,11.395c-136.694,1.036-273.4,0.486-410.102,0.486
	c-9.212,0-18.424,0-29.826,0c0,86.536,0,170.338,0,256.788c-63.598,0-125.069,0-192.927,0
	c-3.195,69.229-21.634,130.78-89.231,168.836c0-39.937,0-77.189,0-114.441c-3.055-1.076-6.111-2.151-9.166-3.227
	c-3.56,6.986-9.914,13.861-10.195,20.977c-1.189,30.023-2.825,60.34,0.095,90.118c2.401,24.485-2.169,42.442-21.574,58.816
	C1049.693,1532.724,1034.326,1552.255,1012.112,1575.867z M971.653,1219.215c-26.112-79.33-179.062-172.299-266.332-157.232
	c3.802,22.545,5.487,45.841,11.957,67.724c9.27,31.35,22.614,59.426,60.8,67.623c48.858,10.488,96.592,26.212,145.448,36.715
	C939.139,1237.401,960.331,1243.287,971.653,1219.215z M1295.929,1063.547c-73.705-24.711-244.416,77.448-267.011,156.428
	c4.317,4.728,9.29,10.174,13.553,14.843c11.401,0,21.206,1.705,30.181-0.303c33.989-7.607,67.816-16.012,101.492-24.918
	c23.535-6.224,49.473-9.282,69.516-21.6C1289.337,1159.924,1287.38,1109.939,1295.929,1063.547z M959.786,1314.641
	c1.675,1.972,3.349,3.944,5.024,5.916c24.486-22.962,49.529-14.611,80.267,2.655c-16.445-38.572-29.359-68.862-44.895-105.301
	C984.992,1254.285,972.389,1284.463,959.786,1314.641z M1688.149,1160.78c36.299-3.06,69.349-27.767,93.715-64.49
	c-128.625,0-252.627,0-377.96,0c0,23.456,0,45.479,0,74.488C1500.128,1167.98,1594.5,1168.675,1688.149,1160.78z M216.922,1096.603
	c30.096,35.913,61.906,61.942,103.936,65.524c59.641,5.084,119.776,4.596,179.713,5.901c31.502,0.686,63.032,0.121,95.803,0.121
	c0-25.052,0-47.062,0-71.547C470.543,1096.603,346.59,1096.603,216.922,1096.603z M419.077,1227.426
	c48.898,57.641,106.088,80.038,177.578,67.079c0-22.239,0-44.175,0-67.079C537.152,1227.426,480.006,1227.426,419.077,1227.426z
	 M1581.54,1226.528c-62.476,0-119.842,0-178.048,0c0,23.565,0,45.504,0,68.196C1476.281,1306.6,1533.524,1285.27,1581.54,1226.528z"
	/>
</svg>
