<?xml version="1.0" encoding="iso-8859-1"?>
<!-- Generator: Adobe Illustrator 19.0.0, SVG Export Plug-In . SVG Version: 6.00 Build 0)  -->
<svg version="1.1" id="Layer_1" xmlns="http://www.w3.org/2000/svg" xmlns:xlink="http://www.w3.org/1999/xlink" x="0px" y="0px"
	 viewBox="0 0 2000 2000" style="enable-background:new 0 0 2000 2000;" xml:space="preserve">
<path d="M1978.183,998.976c0.01,539.799-437.367,977.196-977.161,977.206c-540.282,0.009-977.681-437.915-977.205-978.377
	c0.475-538.6,438.1-976.247,975.934-975.985C1541.027,22.084,1978.174,458.661,1978.183,998.976z M1001.763,97.486
	C500.43,97.848,113.458,498.062,99.874,967.718c-15.433,533.613,407.038,919.545,869.822,932.516
	c532.595,14.929,918.945-406.201,932.718-869.888C1918.163,500.124,1491.266,95.744,1001.763,97.486z M1001.119,172.932
	c454.583-3.08,826.534,371.725,826.638,825.898c0.104,454.27-372.027,827.305-827.481,826.921
	c-454.62-0.383-826.254-373.005-826.028-827.156C174.474,544.377,546.548,169.732,1001.119,172.932z M1623.91,753.599
	c-84.307-233.884-360.45-474.986-732.983-416.092c-165.928,26.231-303.386,107.198-409.375,237.428
	c-117.874,144.834-166.012,312.128-147.353,497.812c29.814,296.693,279.265,588.893,657.051,596.943
	c311.257,6.632,554.709-204.708,632.23-425.236c-94.925,0-189.613,0-285.736,0c-51.199,65.958-114.671,117.198-195.229,145.78
	c-80.313,28.495-161.671,32.15-244.18,11.864c-82.772-20.351-151.969-63.732-208.477-126.887
	c-137.937-154.161-141.697-392.198-1.129-551.165c74.044-83.737,167.939-132.252,279.374-139.666
	c153.186-10.192,276.879,49.208,370.205,169.832c94.261,0,187.094,0.003,279.928-0.022
	C1619.84,754.189,1621.444,753.865,1623.91,753.599z M1000.257,757.13c-132.931-0.339-242.83,105.584-242.565,242.006
	c0.264,136.506,107.56,237.331,233.05,241.626c141.274,4.835,251.474-106.833,251.195-241.891
	C1241.655,862.269,1132.055,757.252,1000.257,757.13z"/>
</svg>
