<?xml version="1.0" encoding="iso-8859-1"?>
<!-- Generator: Adobe Illustrator 19.0.0, SVG Export Plug-In . SVG Version: 6.00 Build 0)  -->
<svg version="1.1" id="Layer_1" xmlns="http://www.w3.org/2000/svg" xmlns:xlink="http://www.w3.org/1999/xlink" x="0px" y="0px"
	 viewBox="0 0 2000 2000" style="enable-background:new 0 0 2000 2000;" xml:space="preserve">
<path d="M18.937,999.097C17.62,456.642,457.194,6.779,1022.484,19.174c519.499,11.391,963.973,420.512,958.781,998.469
	c-4.656,518.296-430.295,984.82-1027.562,962.388C461.514,1961.546,18.905,1557.543,18.937,999.097z M1537.73,1274.267
	c-15.152-1.836-22.72-3.563-30.282-3.541c-66.59,0.193-133.194,1.645-199.76,0.592c-23.043-0.365-39.943,5.496-56.541,22.085
	c-55.236,55.207-121.909,94.57-197.676,109.751c-120.285,24.1-231.819-0.354-326.863-82.408
	c-125.867-108.664-177.526-247.235-140.095-407.863c37.213-159.689,135.937-269.242,302.055-309.938
	c90.714-22.223,176.333-7.77,256.119,33.489c54.083,27.968,101.806,68.235,158.599,107.282c70.562,0,151.303,0,236.748,0
	c-5.67-14.009-8.658-25.087-14.29-34.599c-15.315-25.867-19.898-53.181-19.494-83.202c1.291-96.017,0.531-192.062,0.403-288.097
	c-0.014-10.288-1.078-20.575-1.605-29.977c-48.238,0-92.673,0-140.702,0c0,68.291,0,133.946,0,200.934
	c-22.735-15.092-42.185-28.004-64.589-42.876c0-50.339,0-102.756,0-157.945c-49.011,0-95.131,0-145.044,0
	c0,31.289,0,60.958,0,91.965c-284.823-67.704-520.87,4.597-690.4,241.647c-145.603,203.593-161.008,430.159-41.439,648.286
	c157.611,287.525,409.063,388.194,731.876,316.577c0,30.42,0,60.338,0,90.143c50.228,0,97.552,0,145.944,0
	c0-54.881,0-107.523,0-158.294c21.949-14.296,41.637-27.12,65.827-42.877c0,71.057,0,136.221,0,201.235c48.116,0,93.508,0,140.208,0
	c0-97.153,0.419-192.131-0.181-287.104C1506.26,1363.743,1502.275,1317.638,1537.73,1274.267z"/>
</svg>
