<?xml version="1.0" encoding="iso-8859-1"?>
<!-- Generator: Adobe Illustrator 19.0.0, SVG Export Plug-In . SVG Version: 6.00 Build 0)  -->
<svg version="1.1" id="Layer_1" xmlns="http://www.w3.org/2000/svg" xmlns:xlink="http://www.w3.org/1999/xlink" x="0px" y="0px"
	 viewBox="0 0 2000 2000" style="enable-background:new 0 0 2000 2000;" xml:space="preserve">
<path d="M1980.935,999.103c-3.308,269.29-96.128,502.446-287.598,693.065c-203.428,202.524-450.894,298.049-737.56,286.24
	c-253.046-10.425-470.786-106.652-649.344-286.124C102.822,1487.63,7.335,1238.709,20.26,950.644
	c11.28-251.413,107.6-467.913,286.086-645.392C511.065,101.686,759.934,7.329,1048.054,18.759
	C1553.95,38.827,1984.68,465.441,1980.935,999.103z M997.261,96.267C520.356,96.356,98.38,471.877,96.021,993.58
	c-2.378,525.89,422.198,906.024,900.427,906.141c499.625,0.122,903.15-404.025,903.252-903.319
	C1899.8,509.047,1503.266,95.948,997.261,96.267z M138.507,996.808c-1.599-470.039,385.844-861.939,865.696-858.856
	c465.196,2.989,855.811,383.167,853.87,863.303c-1.936,478.947-392.275,859.588-864.397,856.719
	C507.858,1855.021,135.156,1456.318,138.507,996.808z M928.038,1023.891c15.605-9.266,27.005-15.905,38.28-22.751
	c58.6-35.579,106.073-81.648,132.78-145.905c54.949-132.21,3.907-278.964-123.516-341.738
	c-49.898-24.582-103.843-35.44-159.057-36.234c-127.145-1.83-254.315-1.952-381.476-2.552c-8.797-0.041-17.602,1.699-27.916,2.768
	c49.842,55.531,54.472,86.497,53.858,151.8c-1.031,109.697-3.587,219.38-4.456,329.077c-1.06,133.854-1.018,267.716-1.514,401.575
	c-0.06,16.061-0.034,32.144-0.864,48.175c-1.872,36.127-14.021,67.845-41.281,92.802c-4.651,4.258-8.865,8.992-16.312,16.604
	c82.249,0,159.537,0,239.054,0c-49.95-56.842-54.516-68.935-54.455-143.27c0.07-85.674,0.205-171.349,0.573-257.023
	c0.044-10.232,1.724-20.457,2.357-27.484c85.703-10.103,167.796-19.781,252.544-29.772c-0.68-0.452,1.936,0.651,3.662,2.56
	c4.477,4.952,8.953,9.988,12.747,15.464c62.131,89.664,99.347,189.302,112.751,296.992c3.859,31.008-2.085,63.82-7.41,95.146
	c-2.75,16.179-13.994,30.914-23.043,49.712c73.092,1.761,142.937,3.588,219.642,1.081c-34.828-36.12-50.04-74.128-58.933-115.257
	C1066.383,1268.424,1020.061,1138.357,928.038,1023.891z M1379.01,1024.127c9.949-6.138,17.521-11.154,25.407-15.618
	c38.703-21.908,74.046-47.899,102.612-82.461c118.363-143.206,69.031-354.633-99.453-421.02
	c-64.2-25.296-131.901-32.155-210.656-27.132c67.365,26.177,103.663,83.331,164.485,103.975c6.005,2.038,10.97,7.549,16.033,11.895
	c66.827,57.361,77.307,131.497,59.833,211.92c-15.578,71.699-64.615,117.552-125.688,153.571
	c-37.616,22.184-73.375,47.516-112.046,72.792c9.997,14.201,17.4,24.719,24.472,34.766c22.291-3.644,41.816-6.835,62.334-10.189
	c6.323,7.598,12.746,14.3,18.018,21.809c49.039,69.846,80.84,147.135,100.444,229.986c14.997,63.381,23.79,126.242-5.557,189.539
	c7.708,8.318,14.626,15.782,20.665,22.299c61.172,0,119.765,0,185.263,0c-44.967-44.82-52.759-99.637-67.586-152.136
	c-15.948-56.466-34.12-112.457-54.494-167.481C1459.396,1136.625,1423.461,1078.942,1379.01,1024.127z M1062.256,1056.204
	c3.328,4.5,5.677,7.742,8.092,10.932c52.452,69.295,85.162,147.668,106.627,231.269c17.137,66.745,29.868,133.4-3.071,197.227
	c19.604,23.845,19.582,24.224,36.23,25.217c14.674,0.875,29.406,1.013,44.113,1.062c39.697,0.133,79.395,0.046,125.309,0.046
	c-39.896-44.377-53.247-92.677-64.283-142.834c-20.757-94.333-52.398-185.035-102.007-268.501
	c-17.493-29.432-37.489-57.376-57.409-87.62c9.071-5.647,16.672-10.688,24.558-15.234c36.144-20.834,69.58-45.162,97.068-76.809
	c100.538-115.749,94.458-297.132-37.279-393.861c-76.709-56.324-166.878-62.424-257.275-60.514
	c30.059,23.549,59.051,46.702,88.584,69.141c9.424,7.16,19.689,13.895,30.584,18.33c97.376,39.639,134.275,138.163,110.813,239.456
	c-17.509,75.591-68.583,124.809-135.538,159.896c-17.57,9.207-34.071,20.645-50.343,32.083
	c-17.192,12.085-33.524,25.393-51.649,39.251c9.395,12.337,17.232,22.629,24.422,32.071
	C1021.17,1063.184,1039.506,1060.069,1062.256,1056.204z M702.478,1006.999c66.406-9.879,131.126-26.741,187.133-66.038
	c85.949-60.306,118.054-141.625,99.505-240.241c-16.232-86.297-76.254-141.204-173.613-151.975
	c-72.665-8.039-146.644-4.275-220.044-5.388c-3.311-0.05-6.68,3.639-11.729,6.582c0,152.928,0,306.273,0,467.601
	C625.988,1013.943,664.556,1012.64,702.478,1006.999z"/>
</svg>
