<?xml version="1.0" encoding="iso-8859-1"?>
<!-- Generator: Adobe Illustrator 19.0.0, SVG Export Plug-In . SVG Version: 6.00 Build 0)  -->
<svg version="1.1" id="Layer_1" xmlns="http://www.w3.org/2000/svg" xmlns:xlink="http://www.w3.org/1999/xlink" x="0px" y="0px"
	 viewBox="0 0 2000 2000" style="enable-background:new 0 0 2000 2000;" xml:space="preserve">
<path d="M17.567,997.216c1.719-543.324,441.98-983.444,983.906-981.715c562.206,1.793,992.082,464.387,981.434,1002.351
	c-10.581,534.574-454.465,970.849-1002.118,963.343C454.604,1973.985,15.879,1530.809,17.567,997.216z M1001.275,200.282
	c-437.734-2.417-796.424,355.598-798.661,797.159c-2.185,431.219,354.694,793.677,781.101,799.08
	c443.264,5.616,807.415-343.405,813.69-781.49C1803.89,562.334,1449.603,202.757,1001.275,200.282z M811.98,752.843
	c151.249-105.01,306.133-67.411,397.851,16.902c102.674,94.385,129.771,243.918,67.39,366.222
	c-63.52,124.537-201.203,191.589-337.134,163.366c-67.402-13.995-124.53-47.063-169.759-98.962
	c-62.543-71.768-84.13-156.657-74.521-250.218c-55.565-32.294-109.518-63.651-164.022-95.328
	c-21.773,57.588-28.48,143.335-17.565,214.476c17.443,113.689,68.719,210.021,152.071,290.248
	c-20.59,35.64-40.373,69.882-61.177,105.891c66.232,38.582,130.35,75.932,196.388,114.401c21.694-37.027,42.22-72.062,62.12-106.027
	c236.832,48.035,433.569-13.534,558.775-223.203c130.197-218.027,87.639-425.438-78.048-613.4
	c19.265-33.55,38.984-67.893,59.465-103.56c-66.049-38.491-130.268-75.915-196.182-114.327
	c-21.171,36.012-41.272,70.204-61.478,104.574c-191.015-47.56-356.472-6.461-501.163,131.507
	C704.507,690.132,758.788,721.805,811.98,752.843z"/>
</svg>
