<?xml version="1.0" encoding="iso-8859-1"?>
<!-- Generator: Adobe Illustrator 19.0.0, SVG Export Plug-In . SVG Version: 6.00 Build 0)  -->
<svg version="1.1" id="Layer_1" xmlns="http://www.w3.org/2000/svg" xmlns:xlink="http://www.w3.org/1999/xlink" x="0px" y="0px"
	 viewBox="0 0 2000 2000" style="enable-background:new 0 0 2000 2000;" xml:space="preserve">
<path d="M1869.736,438.377c37.557,35.017,76.587,71.408,112.441,104.838C1642.031,885.729,1304.37,1225.74,966.916,1565.543
	c-154.001-157.245-308.425-314.921-467.66-477.51c30.765-25.777,71.197-59.653,120.402-100.881
	c104.399,111.771,217.848,233.232,330.524,353.865C1264.761,1032.224,1564.396,738.1,1869.736,438.377z M859.339,961.869
	c37.638,42.525,72.56,81.981,103.162,116.555c179.551-178.195,355.86-353.172,533.146-529.119
	c-36.525-37.821-73.244-75.844-102.028-105.651C1210.987,620.794,1031.679,794.711,859.339,961.869z M477.922,1555.642
	c36.782-32.157,76.336-66.736,103.054-90.094c-158.762-161.021-314.219-318.692-470.394-477.089
	c-32.705,32.143-69.284,68.093-96.462,94.803C174.577,1246.687,329.75,1404.73,477.922,1555.642z"/>
</svg>
