<?xml version="1.0" encoding="iso-8859-1"?>
<!-- Generator: Adobe Illustrator 19.0.0, SVG Export Plug-In . SVG Version: 6.00 Build 0)  -->
<svg version="1.1" id="Layer_1" xmlns="http://www.w3.org/2000/svg" xmlns:xlink="http://www.w3.org/1999/xlink" x="0px" y="0px"
	 viewBox="0 0 2000 2000" style="enable-background:new 0 0 2000 2000;" xml:space="preserve">
<path d="M1447.868,403.979c-74.473,21.699-143.603,41.841-211.351,61.581c-4.496-4.594-8.288-6.603-8.669-9.127
	c-15.938-105.811-50.977-147.301-136.252-160.838c-111.964-17.773-210.286,25.817-248.776,118.595
	c-18.277,44.056-29.783,94.044-30.719,141.614c-3.443,174.951-1.223,350.015-0.95,525.036c0.018,11.749,1.045,23.559,2.48,35.233
	c9.566,77.857,22.686,88.148,101.8,75.625c156.133-24.714,312.124-50.326,468.201-75.4c19.536-3.139,39.234-5.269,61.752-8.249
	c0,82.211,0,160.61,0,246.475c-125.867,23.724-250.63,49.249-376.148,70.258c-99.394,16.636-199.362,32.543-299.726,39.898
	c-95.619,7.008-152.108-34.499-182.466-125.937c-15.204-45.794-27.851-94.89-28.466-142.662
	c-3.053-237.188-3.161-474.448-0.708-711.645c0.496-47.93,12.183-97.01,26.124-143.329
	C675.865,35.853,983.231-20.067,1172.558,53.791c13.963,5.447,27.717,11.43,46.313,19.128c2.926-17.758,5.431-32.956,8.45-51.277
	c71.13,0,142.627,0,220.547,0c0,64.796,0,128.207,0,191.619C1447.868,275.392,1447.868,337.524,1447.868,403.979z M600.053,1764.297
	c0,75.433,0,145.211,0,218.056c284.3-47.057,565.101-93.536,845.167-139.892c0-75.273,0-143.638,0-217.692
	C1161.062,1671.679,880.409,1718.013,600.053,1764.297z"/>
</svg>
