<?xml version="1.0" encoding="iso-8859-1"?>
<!-- Generator: Adobe Illustrator 19.0.0, SVG Export Plug-In . SVG Version: 6.00 Build 0)  -->
<svg version="1.1" id="Layer_1" xmlns="http://www.w3.org/2000/svg" xmlns:xlink="http://www.w3.org/1999/xlink" x="0px" y="0px"
	 viewBox="0 0 2000 2000" style="enable-background:new 0 0 2000 2000;" xml:space="preserve">
<path d="M1587.991,1447.395c39.499,35.861,76.45,69.41,113.251,102.822c-238.478,264.147-713.843,336.02-1051.937,51.113
	c-365.453-307.961-368.561-837.937-48.756-1156.517c319.442-318.218,829-285.693,1099.744,2.992
	c-36.755,33.458-73.618,67.013-114.213,103.966c-132.797-121.523-293.856-188.784-484.826-171.83
	c-191.083,16.963-343.977,103.11-456.419,257.262c-177.104,242.799-155.106,600.411,84.443,822.275
	C940.997,1655.567,1310.238,1706.879,1587.991,1447.395z M729.89,1008.124c-5.198-91.284,24.568-177.489,78.577-252.629
	c84.345-117.345,204.8-169.266,342.397-180.555c0-54.078,0-103.337,0-156.329c-226.091,7.587-397.996,103.851-505.732,296.886
	c-115.51,206.965-105.319,418.54,26.702,614.284c111.726,165.655,274.379,249.689,480.429,251.307
	c1.058-15.936,2.336-26.849,2.409-37.771c0.256-38.544,0.1-77.09,0.1-115.023C871.97,1396.998,741.973,1220.314,729.89,1008.124z
	 M459.262,1691.247c36.858-36.19,73.661-72.324,112.591-110.548c-159.044-160.942-241.113-357.145-240.99-581.083
	c0.122-223.802,82.876-419.699,240.14-577.737c-39.384-40.563-75.334-77.588-111.271-114.6
	C61.307,690.378,87.224,1344.171,459.262,1691.247z M872.957,747.359c-141.48,159.885-126.544,389.744,27.154,529.21
	c170.43,154.649,409.374,108.508,509.889-12.938c-34.578-36.242-68.999-72.319-103.081-108.041
	c-125.778,94.096-240.088,65.767-309.113-5.269c-77.612-79.872-86.644-192.306-16.404-286.35
	c33.18-44.424,80.765-69.794,134.365-79.745c72.672-13.492,135.207,14.061,191.092,60.24
	c37.21-38.206,71.789-73.711,106.393-109.242C1292.052,591.881,1021.576,579.406,872.957,747.359z M1841.021,301.837
	C1651.208,119.848,1425.087,20.662,1156.93,20.512c0,55.019,0,105.744,0,157.168c224.154,9.03,415.51,87.583,570.25,237.162
	C1765.349,376.953,1802.538,340.038,1841.021,301.837z M1156.908,1823.728c0,55.196,0,105.962,0,156.781
	c270.045-3.563,496.967-100.168,686.145-284.607c-38.167-38.131-74.486-74.417-113.047-112.943
	C1571.249,1737.908,1376.701,1812.961,1156.908,1823.728z"/>
</svg>
