<?xml version="1.0" encoding="utf-8"?>
<!-- Generator: Adobe Illustrator 25.1.0, SVG Export Plug-In . SVG Version: 6.00 Build 0)  -->
<svg version="1.1" id="cro" xmlns="http://www.w3.org/2000/svg" xmlns:xlink="http://www.w3.org/1999/xlink" x="0px" y="0px"
	 viewBox="0 0 500 500" style="enable-background:new 0 0 500 500;" xml:space="preserve">
<path d="M252.7,23.9L450,136.8v225.5L252.7,475.2L55.3,362.3V136.8L252.7,23.9 M252.7,2.4L36.6,126v247.1l216,123.6l216-123.6V126
	L252.7,2.4L252.7,2.4z"/>
<g>
	<polygon points="357,195 147.5,195 166,110.3 336.2,110.3 	"/>
</g>
<polygon points="196.8,208.1 306.9,208.1 289.2,257.4 294.6,309.7 209.1,309.7 215.3,257.4 "/>
<polygon points="356.2,224.3 414.8,266.6 337.7,400.6 306.2,400.6 269.2,366.7 269.2,349 307.2,314.2 307.7,256.6 "/>
<polygon points="147.9,224.3 89.4,266.6 166.4,400.6 197.9,400.6 234.9,366.7 234.9,349 196.9,314.2 196.4,256.6 "/>
</svg>
