<?xml version="1.0" encoding="iso-8859-1"?>
<!-- Generator: Adobe Illustrator 19.0.0, SVG Export Plug-In . SVG Version: 6.00 Build 0)  -->
<svg version="1.1" id="Layer_1" xmlns="http://www.w3.org/2000/svg" xmlns:xlink="http://www.w3.org/1999/xlink" x="0px" y="0px"
	 viewBox="0 0 2000 2000" style="enable-background:new 0 0 2000 2000;" xml:space="preserve">
<path d="M136.312,1013.526c4.617,13.663,9.224,27.33,13.853,40.989c11.361,33.524,26.214,65.522,43.546,96.296
	c17.411,30.914,37.447,60.01,59.54,87.953c23.707,29.984,50.021,57.334,78.316,82.567c35.155,31.35,73.818,58.367,115.707,80.165
	c23.477,12.217,47.664,23.182,72.029,33.54c16.613,7.062,33.859,12.898,51.237,17.822c18.476,5.235,37.383,9.019,56.209,12.923
	c14.288,2.963,28.676,5.632,43.14,7.503c16.296,2.107,32.7,3.82,49.107,4.517c18.005,0.764,36.1,0.856,54.096-0.005
	c20.678-0.99,41.333-2.966,61.92-5.218c19.28-2.109,38.396-6.361,57.704-7.364c14.701-0.763,29.721,1.231,44.369,3.491
	c39.564,6.104,72.081,25.675,98.683,55.015c21.139,23.315,35.322,50.239,42.324,81.391c5.508,24.503,6.206,48.885,1.808,73.063
	c-6.031,33.157-20.452,62.762-43.553,87.851c-21.782,23.656-47.533,40.785-78.327,50.58c-24.969,7.942-50.588,10.797-76.544,11.98
	c-20.257,0.924-40.537,3.042-60.758,2.563c-21.221-0.502-42.413-3.186-63.561-5.441c-15.986-1.705-32.022-3.531-47.783-6.6
	c-15.169-2.954-30.108-7.247-44.977-11.545c-16.463-4.759-32.947-9.603-49.029-15.485c-18.747-6.857-37.431-14.101-55.497-22.557
	c-36.712-17.182-71.213-38.156-103.905-62.24c-31.714-23.363-61.673-48.711-88.058-77.884
	c-18.026-19.931-35.443-40.656-50.918-62.588c-17.957-25.45-34.82-51.88-49.786-79.185c-26.861-49.007-52.022-98.867-71.108-151.684
	c-13.784-38.145-26.099-76.649-35.371-116.062c-6.223-26.45-11.493-53.184-15.731-80.021c-3.348-21.195-4.746-42.719-6.51-64.138
	c-1.702-20.665-2.764-41.382-4.107-62.076C135.021,1013.603,135.666,1013.565,136.312,1013.526z M1786.564,287.438
	c-19.347-16.95-38.222-34.477-58.135-50.735c-48.985-39.993-101.318-75.182-157.175-104.842
	c-53.566-28.443-109.182-52.305-167.309-69.878c-46.282-13.993-92.069-30.249-140.551-35.362c-29.856-3.149-59.79-6.922-89.74-7.435
	c-28.757-0.492-57.708,1.701-86.336,4.868c-25.417,2.812-50.946,6.922-75.628,13.467c-30.256,8.024-60.181,17.896-89.358,29.259
	c-53.398,20.796-102.183,50.093-147.571,85.069c-31.578,24.334-60.858,51.194-86.941,81.292
	c-15.509,17.896-30.79,36.271-43.79,56.001c-25.682,38.976-34.681,82-26.987,128.501c7.331,44.308,28.37,80.831,62.539,109.142
	c44.189,36.613,95.543,48.741,151.677,37.906c44.328-8.556,80.076-31.907,107.644-67.68c18.929-24.563,37.075-49.775,56.902-73.589
	c26.753-32.134,57.859-59.917,91.151-85.19c39.488-29.976,81.752-55.247,127.152-75.322c38.493-17.021,78.015-31.023,119.282-39.21
	c29.072-5.768,58.429-10.895,87.908-13.606c37.881-3.483,76.049-3.74,113.925,1.214c26.395,3.452,52.864,7.01,78.891,12.473
	c47.052,9.875,92.178,25.881,135.457,46.909c12.073,5.866,23.99,12.051,35.979,18.09
	C1785.887,288.332,1786.226,287.885,1786.564,287.438z M755.706,1904.345c2.009,0.881,3.987,1.844,6.032,2.633
	c81.019,31.25,164.808,51.264,251.122,60.005c31.687,3.209,63.671,3.93,95.545,4.682c21.783,0.515,43.646-0.296,65.409-1.593
	c19.91-1.186,39.749-3.685,59.592-5.853c22.56-2.464,45.31-4.003,67.59-8.068c49.513-9.034,97.524-23.455,143.658-43.854
	c99.023-43.785,182.186-107.949,248.559-193.579c51.981-67.062,88.835-141.702,111.569-223.455
	c7.801-28.052,11.888-56.339,7.29-85.187c-5.443-34.143-19.039-64.724-41.898-91.152c-35.654-41.221-81.239-61.629-134.906-63.009
	c-33.187-0.853-64.808,7.717-93.614,25.072c-42.892,25.843-70.883,62.746-83.247,111.435c-6.166,24.282-11.572,48.839-19.311,72.625
	c-37.762,116.071-103.406,213.602-196.648,292.48c-43.458,36.764-91.163,66.894-142.843,90.618
	c-77.803,35.715-159.45,55.666-245.14,58.436c-11.884,0.384-23.802,1.034-35.663,0.556c-20.972-0.844-41.913-2.46-62.867-3.753
	C755.859,1903.705,755.782,1904.025,755.706,1904.345z M710.876,102.721c-53.2,23.688-103.738,52.04-151.881,84.879
	c-46.544,31.748-89.866,67.311-130.385,106.35c-39.698,38.249-74.307,80.995-108.76,123.867
	c-39.703,49.405-70.626,103.967-93.97,162.719c-27.241,68.561-41.583,140.042-44.469,213.698
	c-1.59,40.593,1.277,81.101,7.795,121.164c7.816,48.044,20.521,94.877,39.333,139.89c16.788,40.171,34.326,80.238,62.352,113.964
	c41.142,49.508,95.124,70.55,158.965,64.358c38.195-3.704,72.341-18.802,100.386-45.206
	c50.392-47.442,68.785-105.681,55.143-173.614c-4.873-24.269-16.282-45.623-29.789-66.384
	c-38.644-59.399-66.18-123.806-83.362-192.603c-9.944-39.816-16.238-80.262-18.014-121.189c-1.108-25.543,0.372-51.221,1.235-76.82
	c1.204-35.7,7.558-70.72,15.979-105.312c20.671-84.918,57.084-162.554,109.379-232.626c22.482-30.125,47.204-58.317,74.997-83.694
	c12.648-11.548,25.635-22.724,39.67-35.131C712.993,101.938,711.905,102.263,710.876,102.721z"/>
</svg>
