<?xml version="1.0" encoding="iso-8859-1"?>
<!-- Generator: Adobe Illustrator 19.0.0, SVG Export Plug-In . SVG Version: 6.00 Build 0)  -->
<svg version="1.1" id="Layer_1" xmlns="http://www.w3.org/2000/svg" xmlns:xlink="http://www.w3.org/1999/xlink" x="0px" y="0px"
	 viewBox="0 0 500 500" enable-background="new 0 0 500 500" xml:space="preserve">
<path d="M464.796,94.643c-3.822,4.019-7.717,8.116-11.988,12.607c-50.627-58.122-114.151-86.233-190.87-80.938
	c-59.556,4.11-109.864,29.639-149.678,73.89c-81.376,90.444-75.496,222.664,4.33,306.012
	c29.912,31.231,65.769,52.545,107.799,63.145c41.879,10.562,83.349,9.123,124.55-4.006c41.368-13.182,75.376-37.07,103.49-70.308
	c4.567,4.07,8.837,7.751,12.2,12.225c-54.735,68.169-151.218,105.009-248.156,78.976C110.217,457.71,39.278,363.735,35.972,258.874
	C32.57,150.97,98.06,55.516,201.056,20.25C300.021-13.635,402.779,19.725,464.796,94.643z M229.895,108.786
	c-60.5,20.763-103.12,77.933-101.897,144.667c1.268,69.201,47.525,127.404,114.019,144.241
	c66.014,16.715,126.642-12.481,157.06-54.983c-3.93-4.288-7.768-8.475-11.459-12.502c-0.615,0.193-0.872,0.193-0.984,0.321
	c-1.082,1.232-2.154,2.474-3.202,3.736c-24.776,29.807-56.322,46.656-95.107,49.453c-17.613,1.27-34.962-0.713-51.678-6.367
	c-19.585-6.624-36.537-17.722-51.32-32.152c-14.831-14.476-25.725-31.639-32.199-51.158c-6.116-18.442-8.654-37.524-6.251-57.164
	c2.125-17.366,6.994-33.715,15.416-48.985c11.676-21.171,28.055-38.004,48.623-50.532c12.838-7.819,26.8-13.453,41.652-16.098
	c13.984-2.49,28.054-3.332,42.369-1.699c21.095,2.406,40.142,9.882,57.88,21.069c12.63,7.965,23.22,18.253,32.406,30.005
	c0.706,0.903,1.664,1.609,1.812,1.749c4.374-3.973,8.463-7.687,12.822-11.647C364.813,113.196,297.628,85.54,229.895,108.786z
	 M207.384,436.839c76.578,29.279,155.339,5.426,197.739-33.952c-4.03-3.931-8.039-7.843-11.94-11.649
	c-57.577,43.227-119.291,51.916-185.788,25.912C142.46,386.84,106.63,335.721,98.276,264.698c-0.153-0.077-0.516-0.416-0.881-0.418
	c-5.337-0.034-10.675-0.024-16.483-0.024C83.583,329.675,125.243,405.434,207.384,436.839z M208.065,86.202
	c65.942-28.24,128.394-17.786,186.272,25.487c3.811-4.095,7.661-8.232,11.517-12.375c-58.252-49.243-142.418-62.014-215.407-25.508
	C112.553,112.766,82.338,188.669,82.396,238.329c5.675,0,11.345,0,16.589,0C107.872,167.516,142.104,114.45,208.065,86.202z
	 M421.035,139.782c4.459-4.576,8.386-8.606,12.607-12.937c-4.187-4.745-7.92-8.976-10.712-12.14
	c-4.759,3.869-9.035,7.345-13.901,11.301C413.491,131.126,417.173,135.35,421.035,139.782z M420.681,363.431
	c-3.891,4.47-7.592,8.721-11.156,12.816c4.313,4.439,8.25,8.491,12.574,12.941c3.867-4.454,7.454-8.586,11.061-12.74
	C428.66,371.755,424.77,367.697,420.681,363.431z"/>
</svg>
