<?xml version="1.0" encoding="iso-8859-1"?>
<!-- Generator: Adobe Illustrator 19.0.0, SVG Export Plug-In . SVG Version: 6.00 Build 0)  -->
<svg version="1.1" id="Layer_1" xmlns="http://www.w3.org/2000/svg" xmlns:xlink="http://www.w3.org/1999/xlink" x="0px" y="0px"
	 viewBox="0 0 500 500" enable-background="new 0 0 500 500" xml:space="preserve">
<path d="M267.489,6.92c8.594,1.222,17.194,2.407,25.779,3.69c2.687,0.402,5.335,1.069,8.391,1.694
	c-0.516,2.409-0.948,4.431-1.484,6.932C238.01,7.312,179.67,16.607,126.113,50.229c-53.388,33.516-87.579,81.526-104.11,142.845
	c-2.246-0.556-4.377-1.084-7.237-1.792c2.415-7.795,4.275-15.373,7.072-22.586c34.132-88.023,97.57-141.03,190.353-158.728
	c7.314-1.395,14.77-2.049,22.16-3.047C245.398,6.92,256.443,6.92,267.489,6.92z M267.489,492.92c0.996-0.271,1.979-0.709,2.99-0.789
	c36.777-2.916,71.088-13.716,102.947-32.275c20.095-11.706,38.123-26.029,54.374-43.276c-1.804-1.7-3.439-3.24-5.295-4.989
	c-49.382,50.569-109.395,75.097-179.849,74.086c-0.136,1.936-0.295,3.455-0.328,4.976c-0.016,0.753,0.198,1.511,0.309,2.267
	C250.92,492.92,259.205,492.92,267.489,492.92z M270.572,214.789c2.565,2.686,4.848,5.075,7.129,7.466
	c20.753,21.758,45.634,29.981,75.179,22.952c5.283-1.257,10.579-2.458,16.775-3.895c-16.613,26.68-32.675,52.474-48.574,78.008
	c-36.42-14.53-73.073-16.591-111.232-9.309c1.986,3.978,3.662,7.334,5.571,11.155c38.209-6.651,75.036-4.008,110.302,13.951
	c24.443-39.804,48.317-78.679,72.191-117.555c-3.653,0.711-6.551,2.031-9.428,3.394c-13.911,6.592-28.36,11.442-43.604,13.893
	c-21.021,3.381-39.477-1.4-54.914-16.559c-4.369-4.291-9.091-8.222-14.009-12.64C274.544,208.048,272.716,211.15,270.572,214.789z
	 M175.751,334.992c4.221-1.889,7.513-3.363,11.245-5.033c-18.182-29.287-36.078-58.114-54.484-87.762
	c4.229,0.737,7.545,1.136,10.772,1.906c23.578,5.624,45.953,3.572,66.537-10.214c20.142-13.491,33.829-32.642,46.18-52.923
	c0.761-1.249,1.054-3.422,0.502-4.709c-1.528-3.558-3.619-6.875-5.766-10.798c-1.76,3.021-2.904,5.382-4.402,7.491
	c-8.95,12.599-17.292,25.714-27.159,37.555c-12.358,14.83-28.063,24.592-48.188,25.303c-11.808,0.417-23.24-1.756-34.265-5.654
	c-10.922-3.861-21.594-8.428-33.287-13.046C127.796,256.821,151.707,295.798,175.751,334.992z"/>
</svg>
