<?xml version="1.0" encoding="iso-8859-1"?>
<!-- Generator: Adobe Illustrator 19.0.0, SVG Export Plug-In . SVG Version: 6.00 Build 0)  -->
<svg version="1.1" id="Layer_1" xmlns="http://www.w3.org/2000/svg" xmlns:xlink="http://www.w3.org/1999/xlink" x="0px" y="0px"
	 viewBox="0 0 500 500" style="enable-background:new 0 0 500 500;" xml:space="preserve">
<path d="M249.304,7c7.64,0.393,14.682,0.469,21.661,1.171c18.6,1.87,36.834,5.579,54.56,11.629
	c12.24,4.178,24.131,9.16,35.607,15.135c14.095,7.338,27.391,15.894,39.912,25.686c12.432,9.723,23.862,20.502,34.254,32.357
	c13.41,15.297,24.744,32.011,33.948,50.185c8.536,16.855,14.871,34.489,19.07,52.876c1.418,6.208,2.196,12.562,3.241,18.854
	c2.577,15.522,2.115,31.184,1.945,46.814c-0.062,5.722-0.91,11.437-1.417,17.153c-0.878,9.903-2.769,19.633-5.121,29.277
	c-5.329,21.854-13.828,42.435-25.142,61.848c-6.641,11.395-14.225,22.164-22.685,32.278c-9.135,10.921-19.114,21.028-29.978,30.261
	c-10.571,8.984-21.742,17.14-33.639,24.246c-16.046,9.585-32.917,17.405-50.725,23.208c-10.855,3.537-21.889,6.315-33.089,8.408
	c-5.448,1.018-10.995,1.521-16.506,2.187c-9.246,1.117-18.539,1.667-27.841,1.403c-7.089-0.202-14.169-0.839-21.245-1.385
	c-12.681-0.98-25.114-3.45-37.382-6.696c-14.141-3.742-27.822-8.765-41.069-15.024c-12.537-5.923-24.488-12.817-35.882-20.691
	c-8.417-5.817-16.506-12.067-24-19.043c-4.956-4.613-9.919-9.24-14.58-14.144c-4.53-4.767-8.841-9.765-12.952-14.9
	c-4.737-5.916-9.392-11.927-13.654-18.189c-12.317-18.1-21.933-37.561-28.921-58.337c-3.562-10.592-6.427-21.356-8.421-32.327
	c-1.232-6.781-1.79-13.684-2.696-20.525c-1.238-9.347-1.168-18.747-0.938-28.129c0.146-5.983,0.712-11.977,1.468-17.919
	c0.997-7.83,2.066-15.674,3.646-23.402c2.116-10.351,5.1-20.501,8.742-30.429c4.783-13.038,10.53-25.637,17.458-37.69
	c7.799-13.57,16.746-26.314,26.878-38.254c6.912-8.145,14.336-15.799,22.179-23.005c13.783-12.665,28.878-23.599,45.176-32.842
	c15.767-8.942,32.277-16.146,49.623-21.449c9.315-2.848,18.754-5.209,28.344-6.808c7.462-1.244,15.018-1.981,22.555-2.692
	C237.746,7.523,243.838,7.326,249.304,7z M309.54,70.859c-0.735,1.172-1.418,2.234-2.073,3.312
	c-2.031,3.342-3.46,6.833-3.664,10.853c-0.452,8.925,6.849,17.114,16.237,17.608c6.273,0.33,11.339-2.332,15.117-7.208
	c3.47-4.477,4.387-9.562,2.529-15.016c-1.451-4.261-3.785-8.051-6.348-11.713c-6.702-9.575-15.897-15.307-27.419-16.76
	c-10.034-1.265-19.57,0.983-28.467,5.827c-11.749,6.396-20.715,15.673-27.44,27.092c-7.625,12.947-11.19,27.235-13.214,41.991
	c-0.725,5.285-1.234,8.068-8.088,10.135c-7.216,2.176-14.505,4.226-21.499,6.997c-11.172,4.426-20.8,11.377-29.522,19.611
	c-8.231,7.772-15.178,16.548-20.632,26.462c-9.68,17.596-14.487,36.421-14.356,56.554c0.056,8.564,0.854,17.026,2.769,25.324
	c3.323,14.393,8.495,28.113,16.189,40.796c8.187,13.496,18.771,24.696,32.093,33.233c8.342,5.346,17.31,9.347,26.721,12.414
	c3.82,1.245,7.64,2.537,11.341,4.093c3.641,1.531,5.196,3.847,4.966,8.755c-0.07,1.505-0.343,3.014-0.665,4.491
	c-1.089,4.993-2.108,10.007-3.4,14.949c-2.658,10.173-5.965,20.131-11.025,29.399c-1.072,1.964-2.443,3.898-4.091,5.388
	c-4.307,3.897-9.407,5.419-15.193,4.079c-3.573-0.827-6.693-2.479-9.428-5.043c0.572-0.834,1.037-1.528,1.519-2.209
	c2.33-3.292,3.878-6.928,4.161-10.946c0.385-5.461-1.622-10.028-5.673-13.744c-10.828-9.933-24.708-2.265-27.873,6.745
	c-1.624,4.625-1.135,9.126,0.32,13.607c3.493,10.753,11.063,17.738,21.118,22.204c8.915,3.959,18.17,4.346,27.646,2.155
	c8.536-1.973,16.18-5.725,22.864-11.286c7.229-6.014,12.614-13.593,17.256-21.702c6.67-11.653,10.873-24.132,12.571-37.475
	c0.71-5.583,3.796-8.581,9.318-9.362c8.339-1.179,16.463-3.205,24.34-6.159c10.164-3.811,19.498-9.072,27.96-15.929
	c5.424-4.395,10.074-9.527,14.776-14.621c1.19-1.289,2.235-2.778,3.054-4.329c1.356-2.569,1.246-5.132-0.565-7.569
	c-1.744-2.346-3.942-3.866-6.825-4.28c-2.896,0.502-5.126,2.103-7.194,4.018c-2.048,1.896-4.079,3.815-6.206,5.619
	c-13.173,11.171-28.248,18.727-44.832,23.333c-2.819,0.783-5.741,1.291-8.651,1.626c-2.893,0.334-3.884-1.266-4.21-3.88
	c-0.115-0.918-0.024-1.861-0.033-2.793c-0.104-11.18-0.184-22.361-0.319-33.541c-0.179-14.819-0.414-29.637-0.602-44.456
	c-0.172-13.54-0.307-27.081-0.47-40.622c-0.18-14.906-0.419-29.811-0.537-44.718c-0.048-6.067-0.646-12.165,0.541-18.068
	c1.33-1.835,2.93-2.443,4.975-1.812c0.4,0.123,0.828,0.161,1.246,0.216c7.091,0.939,13.74,3.251,19.718,7.122
	c9.59,6.209,16.508,14.768,21.328,25.111c1.701,3.65,3.523,7.299,5.765,10.629c2.662,3.956,6.627,5.825,11.909,5.368
	c0.649-0.943,1.527-1.964,2.12-3.129c2.021-3.969,2.23-8.148,1.654-12.537c-0.503-3.833-0.929-7.791-0.525-11.602
	c0.661-6.224-0.933-11.565-5.017-16.079c-2.184-2.413-4.758-4.573-7.457-6.401c-13.605-9.212-28.643-14.685-44.922-16.831
	c-2.15-0.283-4.293-0.784-6.368-1.419c-2.452-0.749-3.783-2.531-3.536-5.157c0.235-2.502,0.592-4.998,1.023-7.474
	c1.337-7.687,2.65-15.38,4.13-23.04c2.114-10.94,7.035-20.464,14.764-28.527c3.985-4.157,8.66-5.898,14.397-4.548
	C303.244,66.838,306.332,68.64,309.54,70.859z M231.121,156.551c-12.275,2.961-22.588,9.163-30.493,19.035
	c-7.968,9.951-13.654,21.184-17.693,33.251c-3.33,9.947-5.164,20.151-5.632,30.659c-0.427,9.586,0.172,19.083,1.678,28.514
	c1.363,8.533,3.499,16.912,6.098,25.161c3.275,10.4,8.065,20.024,15.246,28.283c6.904,7.94,15.228,14.038,24.978,18.117
	c2.933,1.227,5.991,1.913,9.184,2.462c0-62.087,0-123.965,0-186.127C233.21,156.148,232.154,156.301,231.121,156.551z"/>
</svg>
