<?xml version="1.0" encoding="utf-8"?>
<!-- Generator: Adobe Illustrator 25.1.0, SVG Export Plug-In . SVG Version: 6.00 Build 0)  -->
<svg version="1.1" id="Layer_1" xmlns="http://www.w3.org/2000/svg" xmlns:xlink="http://www.w3.org/1999/xlink" x="0px" y="0px"
	 viewBox="0 0 500 500" style="enable-background:new 0 0 500 500;" xml:space="preserve">
<style type="text/css">
	.st0{fill:#111111;}
</style>
<g>
	<path class="st0" d="M249.4,494C113.8,494,4.1,384.6,4,249.2C3.9,113.9,113.7,4.1,249.1,4c135.3-0.1,245,109.9,244.9,245.3
		C493.9,384.6,384.5,494,249.4,494z M239.4,133.7c-2.8,0.6-5.4,1.2-8,1.8c-26.6,5.7-48.8,18.7-64.2,41.3
		c-25.3,37.1-28.4,76.9-12,118.3c12,30.1,33.2,51.2,63.7,62.5c6.8,2.5,14,4,21.1,6.1c0.1,1,0.5,1.9,0.3,2.8
		c-1.4,9.9-2.5,19.8-4.6,29.5c-2.1,9.8-5.2,19.3-11.8,27.2c-7.8,9.4-18.9,10.5-29.3,2.9c1.1-1.3,2.2-2.5,3.2-3.8
		c4.9-6.5,4.9-15.5,0-21.7c-4.9-6.2-13.1-8.3-20.4-5.3c-7.6,3.1-12.1,10.6-10.4,18.8c0.9,4.6,2.8,9.4,5.5,13.3
		c11.4,16.4,31.5,21.9,50.7,14.5c17-6.6,28.6-19,36.8-34.9c6.7-13.1,10.6-27.1,11.9-42.2c2.8-0.5,5.5-0.9,8.1-1.3
		c25.3-4.2,47.3-14.7,64.7-33.9c3.3-3.6,6.4-7.4,6.9-12.4c-3.9-7.5-8-8.6-14.4-3.8c-1.6,1.2-2.9,2.6-4.4,3.8
		c-5.6,4.3-11,8.9-16.9,12.8c-13.2,8.7-28,13-43.4,15.9c-1.4-7.4-2.5-189.7-1.2-193.9c19.8,1.9,35,10.9,44.4,28.9
		c2.9,5.6,5.5,11.4,8.6,16.9c2.9,5.2,7.1,6.7,11.6,5c3.8-1.5,4.9-4.5,4.3-10.5c-0.6-6.3-1.7-12.6-1.1-18.8
		c0.8-8.6-2.5-14.4-8.9-19.4c-12.8-10-27.6-15.3-43.2-18.6c-5.2-1.1-10.5-1.8-16.1-2.7c1.3-17.5,3.2-34.4,10.2-50.2
		c2.3-5.2,5.8-10.2,9.9-14.2c7.1-6.9,18-6.3,25.7,0.4c-1.3,1.7-2.9,3.3-4,5.2c-3.5,5.6-3.8,11.5-0.8,17.4c4,7.8,13,11.3,21.1,8.6
		c8.2-2.8,12.9-10.7,11.6-19.7c-2.2-15.5-19.4-30-36.5-30.7c-15.6-0.7-28.4,5.7-39.7,15.7c-10.3,9.1-16.9,20.7-21.7,33.4
		C242.4,109.8,239.7,121.3,239.4,133.7z"/>
	<path class="st0" d="M239.7,153.2c0,3.7,0,6.3,0,8.9c0,26.1-0.2,52.1,0.1,78.2c0.3,29.9,1.1,59.9,1.6,89.8c0.1,4.3,0,8.6,0,13.5
		c-9.8-2-17.4-6.1-24.4-11.4c-14.3-10.8-23.8-25.2-28.6-42.2c-8.7-30.3-9-60.7,2.2-90.4c6.9-18.3,18.3-33.2,36.6-41.8
		C230.9,156.1,234.8,155,239.7,153.2z"/>
</g>
</svg>
