<?xml version="1.0" encoding="iso-8859-1"?>
<!-- Generator: Adobe Illustrator 19.0.0, SVG Export Plug-In . SVG Version: 6.00 Build 0)  -->
<svg version="1.1" id="Layer_1" xmlns="http://www.w3.org/2000/svg" xmlns:xlink="http://www.w3.org/1999/xlink" x="0px" y="0px"
	 viewBox="0 0 500 500" enable-background="new 0 0 500 500" xml:space="preserve">
<path d="M94.033,414.815c14.104-9.74,29.392-16.135,42.33-25.629c1.565-8.073-0.061-15.018-2.605-22
	c-7.3-20.035-17.559-38.225-32.411-53.671c-0.564-0.586-1.072-1.232-1.678-1.769c-8.952-7.932-11.063-9.822-22.549-2.67
	c-10.48,6.526-21.377,12.383-32.064,18.52c-17.593-27.776-17.851-122.416-0.368-156.655c6.272,3.503,12.558,6.967,18.799,10.512
	c5.872,3.336,11.846,6.523,17.499,10.201c6.484,4.219,10.839,2.054,15.354-1.902c8.406-7.365,15.441-15.919,21.261-25.463
	c6.885-11.291,13.183-22.87,17.133-35.572c0.8-2.571,1.795-5.155,2.067-7.798c0.357-3.474,0.088-7.012,0.088-11.171
	c-13.152-9.616-28.327-16.186-41.912-25.307c23.797-32.638,82.58-70.272,136.033-78.884c0,16.282,0,32.478,0,48.337
	c6.114,6.742,13.94,8.198,21.521,9.627c14.701,2.772,29.626,3.173,44.464,1.597c8.242-0.876,16.446-2.791,24.452-5.014
	c7.327-2.034,9.197-5.325,9.231-13.259c0.048-11.124,0.013-22.248,0.013-33.371c0-2.657,0-5.314,0-8.475
	c53.785,11.899,98.765,37.158,135.911,78.331c-30.333,17.567-60.126,34.82-90.221,52.248
	c-32.074-26.413-69.017-37.917-110.026-34.105c-39.929,3.712-73.523,21.387-99.311,52.107
	c-49.034,58.413-45.871,140.581,3.113,194.923c52.73,58.498,142.445,66.73,206.787,14.244c29.655,17.027,59.573,34.204,90.236,51.81
	c-36.735,41.264-81.992,66.911-136.408,78.95c-0.198-16.446,0.004-32.603-0.121-48.691c-3.747-6.912-10.737-8.188-17.124-9.742
	c-13.744-3.344-27.849-4.473-41.916-3.277c-9.901,0.842-19.755,2.792-29.472,4.957c-3.747,0.835-7.056,3.633-11.061,5.805
	c0,17.105,0,33.815,0,51.054C176.579,481.643,131.29,455.818,94.033,414.815z M273.129,306.794
	c-1.283,4.647-2.902,9.331-5.218,13.535c-4.012,7.284-8.671,14.211-13.078,21.32c17.474,0,35.034,0,53.243,0
	c-1.361-1.998-2.295-3.611-3.459-5.037c-5.865-7.187-10.352-15.17-13.499-23.859c-2.064-5.699-3.962-11.552,0.273-18.355
	c1.117,1.534,1.764,2.769,2.719,3.681c11.063,10.552,23.95,14.022,38.767,9.828c15.224-4.31,25.564-18.303,25.56-32.677
	c-0.003-10.453-3.288-19.899-9.305-27.973c-10.158-13.63-20.961-26.8-31.904-39.818c-12.542-14.92-25.219-29.689-34.33-47.094
	c-0.406-0.776-1.214-1.342-2.064-2.251c-7.997,14.554-17.136,27.538-27.658,39.618c-10.826,12.429-21.289,25.178-31.761,37.909
	c-6.369,7.744-11.97,15.96-15.155,25.665c-3.645,11.104-3.555,21.643,3.05,31.762c10.169,15.58,32.216,21.688,49.366,11.887
	c4.598-2.628,8.626-6.253,13.007-9.487C274.672,298.748,274.196,302.929,273.129,306.794z"/>
</svg>
