<?xml version="1.0" encoding="iso-8859-1"?>
<!-- Generator: Adobe Illustrator 19.0.0, SVG Export Plug-In . SVG Version: 6.00 Build 0)  -->
<svg version="1.1" id="Layer_1" xmlns="http://www.w3.org/2000/svg" xmlns:xlink="http://www.w3.org/1999/xlink" x="0px" y="0px"
	 viewBox="0 0 2000 2000" style="enable-background:new 0 0 2000 2000;" xml:space="preserve">
<path d="M1003.408,19.559c535.31-3.516,985.014,444.993,977.48,993.714c-7.243,527.486-448.772,976.45-1001.975,965.098
	C455.757,1967.635,8.381,1528.19,21.303,974.091C33.513,450.524,469.406,14.49,1003.408,19.559z M998.718,315.542
	c-382.106,8.494-679.211,302.403-679.234,682.82c-0.024,384.084,301.632,683.052,683.696,681.682
	c382.13-1.37,679.217-300.839,679.239-681.257C1682.442,614.709,1380.818,321.299,998.718,315.542z M96.048,925.24
	c-4.219,49.317-3.71,97.076-0.243,149.11c51.8,0.912,99.55,2.364,150.629-1.288c-1.739-52.169,4.002-100.18-4.204-151.068
	c-41.319,0-80.161-0.151-119.001,0.127C115.411,922.176,107.604,923.86,96.048,925.24z M924.338,99.294
	c0,27.052-0.045,49.551,0.012,72.05c0.061,23.839,0.219,47.677,0.35,74.665c53.717-1.173,101.669,3.636,149.79-3.172
	c0-49.664,0-95.864,0-143.543C1024.604,99.294,977.783,99.294,924.338,99.294z M520.65,408.598
	c-34.842-34.099-67.916-66.467-94.63-92.612c-37.711,35.657-71.392,67.504-106.637,100.83
	c31.677,31.016,64.738,63.387,97.472,95.439C452.645,476.513,484.613,444.588,520.65,408.598z M1899.44,1072.738
	c0-50.197,0-98.09,0-148.342c-48.51,0-94.732,0-143.503,0c0,50.253,0,98.071,0,148.342
	C1804.664,1072.738,1850.886,1072.738,1899.44,1072.738z M517.09,1585.835c-32.517-32.816-65.249-65.849-98.601-99.508
	c-33.314,33.686-66.012,66.75-98.69,99.792c32.505,32.828,65.226,65.872,98.566,99.543
	C451.697,1651.958,484.396,1618.894,517.09,1585.835z M1584.816,1689.16c36.31-36.889,68.738-69.833,102.271-103.901
	c-37.772-35.131-66.175-72.445-106.947-100.445c-34.338,34.884-66.766,67.827-96.451,97.984
	C1518.589,1619.504,1549.76,1652.288,1584.816,1689.16z M924.956,1752.799c0,51.467,0,97.539,0,144.073c49.219,0,95.371,0,145.464,0
	c0-26.304,0.922-50.263-0.261-74.117c-1.165-23.48,5.901-48.011-5.795-69.956C1017.607,1752.799,972.646,1752.799,924.956,1752.799z
	 M1685.194,415.489c-33.863-33.433-67.238-66.383-97.149-95.914c-34.03,33.303-68.038,66.585-99.513,97.387
	c31.558,31.442,64.531,64.292,97.525,97.164C1617.96,482.385,1651.185,449.326,1685.194,415.489z M979.128,859.659
	c1.318-42.419-18.702-75.282-53.257-84.091c-45.274-11.541-89.812-8.949-132.739,13.023
	c-72.303,37.009-95.199,154.494-15.864,201.947c31.64,18.925,58.52,45.807,84.529,66.633c5.466,33.207,1.996,57.683-26.728,77.255
	c-16.852,0-37.159,0-52.878,0c-28.564-26.168-8.929-57.59-21.599-85.19c-27.403,1.611-56.332-10.227-78.438,11.235
	c-27.742,0-53.207,0-80.002,0c-4.795,16.984-8.399,32.737-13.689,47.902c-13.943,39.976-33.038,49.655-80.324,40.714
	c-11.449-13.932-14.108-29.662-10.042-48.98c13.046-61.974,23.57-124.481,36.815-186.409c4.666-21.814,9.364-45.251,38.392-63.257
	c12.986,0.668,32.942,1.694,56.604,2.911c0,27.583,0,49.67,0,72.487c29.166,0,54.225,0,83.33,0
	c1.934-20.24,4.958-37.661,5.006-55.091c0.141-50.89-24.307-78.931-73.95-86.759c-82.211-12.964-156.737,28.826-179.186,108.722
	c-20.601,73.316-34.452,148.716-47.766,223.821c-7.916,44.658,14.897,83.85,51.937,94.607
	c79.523,23.094,159.902-3.299,190.51-75.164c3.866-9.077,8.995-17.616,14.87-28.977c3.985,13.26,7.375,22.421,9.467,31.87
	c8.657,39.095,37.387,57.259,72.698,63.053c25.25,4.143,52.74,4.055,77.697-1.297c61.191-13.123,98.591-51.235,112.605-114.063
	c12.96-58.103-17.431-92.381-58.603-123.244c-16.95-12.706-33.093-26.485-50.004-39.246c-9.056-6.833-18.962-12.539-21.043-13.897
	c-4.595-38.076,7.841-55.353,31.48-64.829c20.927-8.389,38.258-2.406,51.357,17.549c2.151,14.458,4.454,29.939,6.691,44.972
	c22.354,0,41.513,0,63.463,0C973.633,891.026,978.639,875.413,979.128,859.659z M1293.493,835.86
	c3.082-13.975,4.094-28.407,6.56-46.194c-24.568,0-47.501,0-72.175,0c-19.295,89.996-37.869,176.626-56.931,265.537
	c-23.628-88.781-28.461-179.936-52.327-265.66c-31.203,0-57.968,0-85.614,0c-15.487,71.487-30.151,139.579-45.005,207.63
	c-14.727,67.469-29.644,134.896-44.799,203.801c26.985,0,50.433,0,74.847,0c19.312-90.036,38.015-177.238,57.811-269.533
	c16.749,93.775,32.597,182.506,48.701,272.667c25.171,0,46.249,0.176,67.321-0.109c6.238-0.084,12.458-1.468,20.316-2.463
	C1239.508,1078.928,1266.686,957.435,1293.493,835.86z M1571.318,880.665c-3.962,22.277-7.41,44.66-11.992,66.809
	c-9.845,47.586-17.655,95.801-30.998,142.412c-29.618,103.462-97.356,134.478-192.053,122.291
	c-56.853-7.317-86.747-42.278-77.789-108.552c9.727-71.967,26.595-143.649,47.718-213.218
	c25.048-82.497,85.837-119.585,176.97-110.461C1548.31,786.469,1569.642,814.536,1571.318,880.665z M1472.915,853.865
	c-58.426-8.14-75.58,2.461-91.356,55.12c-2.334,7.788-5.297,15.437-6.998,23.358c-9.53,44.395-19.883,88.659-27.656,133.368
	c-4.335,24.937-11.908,51.414,9.186,78.504c16.615,0,35.427,0,51.716,0c25.141-14.9,36.395-36.741,41.596-60.914
	c12.625-58.681,22.742-117.903,35.524-176.547C1489.108,887.572,1487.188,871.634,1472.915,853.865z"/>
</svg>
