<?xml version="1.0" encoding="iso-8859-1"?>
<!-- Generator: Adobe Illustrator 19.0.0, SVG Export Plug-In . SVG Version: 6.00 Build 0)  -->
<svg version="1.1" id="Layer_1" xmlns="http://www.w3.org/2000/svg" xmlns:xlink="http://www.w3.org/1999/xlink" x="0px" y="0px"
	 viewBox="0 0 2000 2000" style="enable-background:new 0 0 2000 2000;" xml:space="preserve">
<path d="M158.664,495.991c43.644-49.932,73.673-111.011,126.812-158.931c0.377-1.556,1.743-7.201,2.059-8.506
	c10.806-9.476,18.758-16.449,26.71-23.422c-0.935-1.348-1.871-2.695-2.806-4.043c4.388-0.851,8.776-1.701,13.164-2.552
	C533.488,96.513,784.861,5.713,1072.752,25.986c231.211,16.282,432.078,108.542,603.825,273.442
	c-1.801-0.269,2.109,0.315,4.663,0.695c3.631,6.009,5.797,11.823,9.838,15.663c4.171,3.964,10.166,6.009,16.473,9.509
	c0.685,3.995,1.567,9.139,1.963,11.45c52.171,47.009,84.006,106.868,127.544,166.193c7.072,14.83,17.547,36.678,27.914,58.578
	c7.159,15.125,14.62,30.129,21.147,45.526c12.104,28.557,25.111,56.865,34.923,86.219c8.074,24.155,14.159,49.41,17.335,74.654
	c3.824,30.39,4.177,60.873,19.845,88.859c4.817,8.604,4.502,20.642,4.752,31.15c1.674,70.406,7.565,141.148,2.751,211.138
	c-3.976,57.812-18.871,115.202-32.459,171.933c-13.707,57.229-35.435,112.074-64.323,163.534
	c-14.038,25.007-31.156,48.275-46.618,72.498c-17.096,26.782-33.33,54.133-51.048,80.491c-9.354,13.915-20.385,26.88-31.847,39.165
	c-32.303,34.62-64.543,69.351-98.155,102.68c-19.758,19.592-41.224,37.741-63.492,54.446
	c-22.347,16.765-45.866,32.326-70.259,45.924c-41.328,23.04-82.713,46.473-125.945,65.489
	c-68.802,30.262-140.711,51.055-214.936,64.871c-83.107,15.469-166.875,14.252-250.125,10.237
	c-56.194-2.71-112.323-15.855-167.477-28.657c-65.458-15.194-127.278-41.036-187.283-71.946
	c-45.545-23.461-88.14-50.356-129.579-80.48c-55.721-40.506-105.937-86.591-153.456-135.91
	c-11.85-12.299-20.299-27.832-30.675-41.604c-15.173-20.14-31.177-39.67-45.903-60.124c-17.329-24.069-35.007-48.057-50.097-73.523
	c-18.263-30.82-37.72-61.778-49.966-95.133c-21.809-59.398-40.806-120.06-56.917-181.262
	c-20.815-79.074-18.784-160.525-16.559-241.515c0.836-30.434,2.01-61.453,8.547-90.984c7.825-35.353,17.878-69.609,20.892-106.42
	c2.513-30.688,17.343-60.344,26.493-90.525c3.992-13.167,6.269-26.971,11.398-39.647c6.195-15.309,14.595-29.725,22.029-44.534
	c12.486-24.873,25.206-49.635,37.242-74.724C157.676,508.191,157.578,501.807,158.664,495.991z M112.331,1000.293
	c-5.316,495.157,404.584,870.518,848.53,886.279c527.599,18.731,919.397-413.057,923.111-872.547
	c4.112-508.687-405.735-886.646-846.794-900.401c-262.047-8.172-487.312,78.677-671.374,266.055
	C196.941,551.585,114.33,759.85,112.331,1000.293z M1411.333,1426.224c-18.26-21.883-37.866-42.649-55.994-64.636
	c-47.99-58.206-95.036-117.196-143.38-175.104c-22.135-26.514-25.97-25.698-52.558-2.621
	c-101.649,88.229-247.88,81.377-341.631-17.187c-73.544-77.32-92.168-204.932-26.676-301.998
	c47.921-71.023,113.662-109.328,198.072-112.261c65.277-2.269,124.208,18.314,172.684,64.369
	c20.56,19.532,34.96,17.214,52.723-5.201c28.956-36.539,58.698-72.46,88.359-108.435c42.314-51.323,84.854-102.459,130.941-158.07
	c-9.886-10.363-18.821-22.05-29.941-31.031c-117.69-95.052-250.995-146.32-403.616-147.838
	c-275.052-2.735-544.971,185.667-619.274,486.682c-69.899,283.173,71.075,599.84,365.759,728.596
	c240.655,105.149,525.602,40.124,685.139-125.336C1425.412,1446.56,1419.224,1435.682,1411.333,1426.224z"/>
</svg>
