<?xml version="1.0" encoding="iso-8859-1"?>
<!-- Generator: Adobe Illustrator 19.0.0, SVG Export Plug-In . SVG Version: 6.00 Build 0)  -->
<svg version="1.1" id="Layer_1" xmlns="http://www.w3.org/2000/svg" xmlns:xlink="http://www.w3.org/1999/xlink" x="0px" y="0px"
	 viewBox="0 0 2000 2000" style="enable-background:new 0 0 2000 2000;" xml:space="preserve">
<path d="M1979.72,1825.53c-2.637,7.93-5.407,16.264-8.478,25.499c-622.122,0-1242.345,0-1868.651,0
	c64.174-81.502,129.784-156.623,193.213-233.489c64.786-78.51,129.627-156.977,194.8-235.167
	c64.421-77.287,129.286-154.202,194.122-231.478c8.807,0,16.698,0,26.54,0c1.47,1.949,3.797,4.549,5.579,7.48
	c9.06,14.9,1.664,28.917-2.53,43.083c-29.234,98.741-58.318,197.526-87.91,296.16c-3.712,12.374-9.168,23.939,2.736,39.416
	c45.969,9.63,94.961,20.317,144.133,30.097c76.65,15.246,153.49,29.537,230.127,44.849
	c110.088,21.997,220.101,44.375,330.078,66.917c83.246,17.063,166.316,34.986,249.592,51.896
	c110.32,22.402,220.867,43.704,331.071,66.655C1935.71,1801.94,1961.411,1798.319,1979.72,1825.53z M1034.284,178.609
	c-21.388-6.096-34.72-3.104-46.592,17.958c3.758,13.322,7.689,31.075,13.727,48.079c67.043,188.784,134.409,377.454,201.696,566.152
	c55.195,154.79,110.49,309.544,165.553,464.38c18.483,51.974,36.391,104.154,53.669,153.68
	c-5.601,16.533-14.154,23.982-28.092,27.296c-25.598,6.086-50.784,13.888-76.213,20.708
	c-70.003,18.774-140.154,37.01-209.989,56.387c-17.12,4.75-37.079,8.037-42.069,35.867c3.752,6.243,9.398,15.638,13.951,23.215
	c291.937,56.568,579.509,116.234,875.727,172.358C1645.126,1230.139,1338.791,702.8,1034.284,178.609z M21.29,1801.669
	c5.93,20.905,16.016,30.063,39.084,29.704c12.373-13.226,27.844-28.507,41.893-44.998c56.267-66.05,111.852-132.682,168.143-198.712
	c73.616-86.351,147.825-172.196,221.471-258.523c58.596-68.685,116.553-137.914,175.108-206.633
	c81.931-96.152,164.074-192.123,246.365-287.967c8.804-10.254,19.194-19.147,26.14-25.999c21.565-1.809,29.222,10.777,38.53,20.907
	c68.218,74.248,136.379,148.549,204.844,222.57c9.968,10.777,21.452,20.152,30.389,28.46c21.307-2.453,31.126-11.917,34.126-28.795
	c-99.214-278.511-198.357-556.819-300.462-843.443C634.802,745.537,327.291,1274.901,21.29,1801.669z"/>
</svg>
