<?xml version="1.0" encoding="iso-8859-1"?>
<!-- Generator: Adobe Illustrator 19.0.0, SVG Export Plug-In . SVG Version: 6.00 Build 0)  -->
<svg version="1.1" id="Layer_1" xmlns="http://www.w3.org/2000/svg" xmlns:xlink="http://www.w3.org/1999/xlink" x="0px" y="0px"
	 viewBox="0 0 500 500" enable-background="new 0 0 500 500" xml:space="preserve">
<path d="M6.001,248.887C6.188,114.518,113.773,8.702,242.538,4.592c138.107-4.408,251.887,105.767,252.85,242.622
	c0.957,135.874-107.893,244.647-240.778,246.662C117.091,495.961,5.706,384.883,6.001,248.887z M28.398,248.744
	c0.523,124.924,99.875,223.646,225.342,222.592c120.875-1.015,221.157-101.315,219.099-226.292
	C470.862,124.999,370.505,23.25,243.481,27.065C125.708,30.603,28.581,127.745,28.398,248.744z M250.855,458.18
	c-118.419-0.07-212.076-98.296-209.044-214.65C44.717,132.034,137.641,37.975,255.12,40.29
	c114.263,2.252,207.098,97.856,204.383,214.091C456.929,364.603,366.161,457.963,250.855,458.18z M197.887,209.559
	c-28.035-32.787-70.689-28.06-93-6.849c-24.242,23.046-27.159,60.066-6.579,85.727c10.573,13.183,24.26,21.194,41.049,23.462
	c23.651,3.195,42.803-5.553,58.474-23.137c15.165,8.776,29.986,17.353,45.1,26.099c-6.155,16.496-6.057,32.626,0.955,48.489
	c7.083,16.023,18.916,27.168,35.119,33.762c26.459,10.768,60.105,0.166,75.286-23.046c18.053-27.604,12.491-61.255-7.842-81.12
	c-11.798-11.527-26.184-17.797-42.699-18.21c-20.964-0.525-38.067,8.084-51.579,23.769c-7.926-4.575-15.36-8.858-22.786-13.154
	c-7.392-4.277-14.776-8.567-21.254-12.324c1.11-8.492,2.888-16.105,2.881-23.715c-0.007-7.766-1.769-15.53-2.854-24.009
	c14.16-8.17,29.109-16.796,43.956-25.362c26.855,30.841,65.704,28.498,88.898,10.334c24.459-19.155,31.439-53.904,16.217-80.994
	c-15.287-27.207-48.297-38.969-77.629-28.286c-26.273,9.569-50.902,42.227-37.019,82.764
	C227.73,192.33,212.776,200.964,197.887,209.559z M257.335,160.866c-0.541-24.247,18.966-44.464,43.59-45.176
	c24.715-0.715,45.105,18.945,45.763,44.126c0.635,24.272-19.684,44.854-44.715,45.294
	C278.072,205.53,257.885,185.522,257.335,160.866z M315.729,136.671c13.582,9.665,16.304,22.313,10.155,37.333
	c2.592,1.455,4.9,2.752,7.169,4.025c10.668-14.547,4.024-41.742-13.224-48.393C318.496,131.922,317.148,134.235,315.729,136.671z
	 M301.79,382.628c-24.75-0.044-45.047-20.622-44.67-45.287c0.367-24.039,20.563-43.97,44.561-43.978
	c25.31-0.008,45.499,20.214,44.938,45.867C346.076,364.023,325.556,383.074,301.79,382.628z M288.428,314.148
	c15.096-6.685,27.519-3.013,37.339,10.035c2.64-1.621,4.88-2.996,7.088-4.352c-8.384-17.988-35.117-23.275-48.674-12.675
	C285.544,309.399,286.918,311.663,288.428,314.148z M147.74,293.713c-25.064-0.137-44.336-19.968-44.176-45.46
	c0.147-23.59,20.162-43.671,43.52-43.664c25.613,0.007,45.632,19.66,45.617,44.782C192.685,273.995,172.555,293.849,147.74,293.713z
	 M183.631,248.699c2.093-18.172-17.587-37.781-34.972-35.122c0,2.756,0,5.51,0,8.204c15.802,2.254,24.739,10.945,26.688,26.918
	C178.196,248.699,180.928,248.699,183.631,248.699z"/>
</svg>
