<?xml version="1.0" encoding="utf-8"?>
<!-- Generator: Adobe Illustrator 25.1.0, SVG Export Plug-In . SVG Version: 6.00 Build 0)  -->
<svg version="1.1" id="Layer_2_1_" xmlns="http://www.w3.org/2000/svg" xmlns:xlink="http://www.w3.org/1999/xlink" x="0px" y="0px"
	 viewBox="0 0 500 500" style="enable-background:new 0 0 500 500;" xml:space="preserve">
<g>
	<path d="M427.4,71.6c-29.2,12.9-43.4,53.6-43.4,53.6L319.5,307l-63.1-159.4h-87.5l109.9,283.6h88.9L495.2,59.4
		C495.2,59.4,456.6,58.7,427.4,71.6z"/>
	<path d="M162.8,366.7c-12.9,0-81.4-2.7-81.4-73.9s75.3-74.6,75.3-74.6l-27.1-70.5C115.3,150.3,4.1,169.3,4.1,293.4
		s109.2,145.8,155,145.8c45.8,0,77.7-19,77.7-19L209,352.4C209,352.4,175.7,366.7,162.8,366.7z"/>
</g>
</svg>
