<?xml version="1.0" encoding="iso-8859-1"?>
<!-- Generator: Adobe Illustrator 19.0.0, SVG Export Plug-In . SVG Version: 6.00 Build 0)  -->
<svg version="1.1" id="Layer_1" xmlns="http://www.w3.org/2000/svg" xmlns:xlink="http://www.w3.org/1999/xlink" x="0px" y="0px"
	 viewBox="0 0 500 500" enable-background="new 0 0 500 500" xml:space="preserve">
<path d="M467.821,96.866c0,101.057,0,202.768,0,304.679c-54.032,77.114-168.186,113.35-264.43,83.784
	C101.303,453.966,29.381,359.47,28.367,255.368C27.285,144.441,94.297,49.357,197.678,15.133
	C295.563-17.273,409.561,17.003,467.821,96.866z M240.098,138.571c30.534,74.498,60.573,147.787,90.614,221.083
	c7.121,0,13.191,0,20,0c30.035-73.219,60.088-146.481,90.585-220.823c-7.358,0-12.962,0-19.429,0
	c-26.838,66.224-53.663,132.418-81.018,199.919c-27.675-68.184-54.55-134.398-81.249-200.179
	C252.697,138.571,247.388,138.571,240.098,138.571z M236.398,327.185c-40.317,31.243-81.36,17.63-99.746-5.383
	c-17.753-22.22-16.265-63.562,3.387-84.66c24.758-26.581,60.487-27.685,96.329-2.522c3.144-3.292,6.359-6.658,9.509-9.956
	c-29.737-31.473-85.302-31.934-115.699-2.04c-30.709,30.202-28.817,89.41,3.793,118.665c30.731,27.569,85.699,25.376,111.219-4.846
	C242.425,333.53,239.628,330.586,236.398,327.185z"/>
</svg>
