<?xml version="1.0" encoding="iso-8859-1"?>
<!-- Generator: Adobe Illustrator 19.0.0, SVG Export Plug-In . SVG Version: 6.00 Build 0)  -->
<svg version="1.1" id="Layer_1" xmlns="http://www.w3.org/2000/svg" xmlns:xlink="http://www.w3.org/1999/xlink" x="0px" y="0px"
	 viewBox="0 0 500 500" enable-background="new 0 0 500 500" xml:space="preserve">
<path d="M368.721,309.537c36.591,16.74,72.536,33.184,109.99,50.319c-37.843,41.722-74.966,82.651-113.14,124.739
	c-17.074-37.036-33.671-73.036-50.594-109.743C332.547,353.499,350.339,331.877,368.721,309.537z M132.786,484.682
	c17.311-37.598,33.961-73.762,50.504-109.695c-18.241-22.204-35.893-43.689-53.801-65.488
	c-36.494,16.725-72.645,33.293-109.799,50.32C57.7,401.785,94.837,442.785,132.786,484.682z M287.062,386.577
	c-25.888,0-50.736,0-75.945,0c-16.796,36.505-33.456,72.715-50.346,109.423c59.663,0,117.774,0,176.84,0
	C320.447,458.845,303.648,422.48,287.062,386.577z M8,331.996c37.308-16.985,73.632-33.522,109.815-49.995
	c0-25.667,0-50.579,0-76.089C81.526,189.312,45.135,172.664,8,155.677C8,214.821,8,272.775,8,331.996z M380.427,205.874
	c0,25.73,0,50.569,0,75.851c36.41,16.692,72.625,33.294,109.715,50.298c0-59.37,0-117.215,0-176.32
	C452.945,172.712,416.566,189.348,380.427,205.874z M365.749,3.449c-7.374,36.628-14.158,71.944-21.763,107.084
	c-2.187,10.108-1.062,18.634,4.027,27.532c7.426,12.983,13.92,26.498,20.957,40.066c36.999-16.889,73.052-33.347,109.93-50.181
	C441.014,86.263,403.729,45.239,365.749,3.449z M19.592,127.722c37.104,17.046,73.318,33.683,109.85,50.465
	c9.565-18.671,18.65-36.406,27.454-53.593c-8.143-40.391-16.129-80.006-24.416-121.116C94.132,45.683,57.103,86.438,19.592,127.722z
	"/>
</svg>
