<?xml version="1.0" encoding="utf-8"?>
<!-- Generator: Adobe Illustrator 24.2.0, SVG Export Plug-In . SVG Version: 6.00 Build 0)  -->
<svg version="1.1" id="Layer_1" xmlns="http://www.w3.org/2000/svg" xmlns:xlink="http://www.w3.org/1999/xlink" x="0px" y="0px"
	 viewBox="0 0 500 500" style="enable-background:new 0 0 500 500;" xml:space="preserve">
<path d="M440.3,190.4c29.6,0.1,53.9,22.5,56.8,52.3c2.8,29-18.9,56-49.2,61.2c-26.9,4.6-59.6,46.5-56.8,73.2
	c0.4,3.7,2.9,7.2,4.6,10.8c11.6,24.9,5.3,53.1-15.5,69.8c-20.9,16.8-50.6,16.8-71.5,0c-20.9-16.7-26.7-44.6-15.9-69.9
	c3-7.1,4.9-17,2.3-23.6c-6.6-16.3-15.3-31.8-24.7-46.7c-5.6-8.9-14.5-13-26.4-13.6c-26.2-1.2-46.3-20.1-51.8-45.7
	c-4.9-22.8,6.1-47.4,26.8-59.8c20.9-12.6,48.2-10.2,66.5,5.9c19.1,16.7,24.4,42.2,15.1,66.5c-2.5,6.4-3.4,14.4-2,21.1
	c5.2,24.1,18.5,43.4,37.8,58.8c7,5.6,12.8,5.5,19.7-0.6c19.3-17.1,31.6-38.1,35.4-63.5c0.8-5.2-2-11.3-4.2-16.6
	C371.6,231.3,399,190.2,440.3,190.4z"/>
<path d="M97.8,408.2c0.7-2.9,1.7-10.3,4.4-17.1c9.9-25.2-10.2-75.6-35.3-86.8c-3-1.3-6.7-1.1-10.1-1.3c-32.9-2.2-55.7-25-55.7-55.9
	c-0.1-30.5,21.5-52.2,54.3-55.7c5.9-0.6,13.6-3,16.9-7.3c11.6-15.1,22.6-30.9,31.9-47.5c5.9-10.5,4.6-22.1-0.6-34.2
	c-12.9-30,2.5-63,32.9-73.7c29.5-10.4,62.8,6.1,71.5,35.5c9.5,32.1-8.1,62.9-40.6,71.1c-33.3,8.4-60.8,41.2-62.6,75.3
	c-0.2,3.8,0.5,8,2,11.5c6.9,16.4,7.2,32.4,0.4,49c-2.1,5.1-2.4,11.8-1.3,17.2c5.5,25.7,19.3,46.6,40.6,61.9c5.7,4.1,13.6,5.4,20.7,7
	c28.9,6.7,48.5,34.2,44.6,63.1c-4.1,29.7-31.7,52.3-60.6,49.8C120.4,467.5,97.7,443,97.8,408.2z"/>
<path d="M399.5,81.8c-0.2,31.3-24.7,55.7-55.6,55.4c-31-0.3-54.8-24.9-54.7-56.4c0.1-31.2,24.7-55.6,55.7-55.3
	C376,25.8,399.7,50.2,399.5,81.8z"/>
</svg>
