<?xml version="1.0" encoding="iso-8859-1"?>
<!-- Generator: Adobe Illustrator 19.0.0, SVG Export Plug-In . SVG Version: 6.00 Build 0)  -->
<svg version="1.1" id="Layer_1" xmlns="http://www.w3.org/2000/svg" xmlns:xlink="http://www.w3.org/1999/xlink" x="0px" y="0px"
	 viewBox="0 0 500 500" enable-background="new 0 0 500 500" xml:space="preserve">
<path d="M431.19,396.659C366.781,332.421,303.012,268.82,238.832,204.81c0-29.186,0-58.785,0-88.384
	c0.966-0.836,1.931-1.673,2.897-2.509c61.071,59.8,122.142,119.601,184.024,180.195c0-59.482,0-118.644,0-177.163
	c22.54,22.357,44.78,44.417,68.99,68.431c0,65.446,0,134.485,0,206.115c-3.788,1.484-8.43,4.729-13.188,4.91
	C464.52,397.051,447.445,396.659,431.19,396.659z M148.413,395.653c27.438,0,56.159,0,88.27,0
	c-47.324-48.509-92.495-94.812-138.327-141.791c45.217-46.465,89.549-92.02,133.882-137.576c-0.813-0.83-1.626-1.659-2.439-2.489
	c-28.511,0-57.023,0-84.579,0C98.184,160.541,51.839,206.6,5,253.149C53.125,300.969,100.581,348.124,148.413,395.653z"/>
</svg>
