<?xml version="1.0" encoding="iso-8859-1"?>
<!-- Generator: Adobe Illustrator 19.0.0, SVG Export Plug-In . SVG Version: 6.00 Build 0)  -->
<svg version="1.1" id="Layer_1" xmlns="http://www.w3.org/2000/svg" xmlns:xlink="http://www.w3.org/1999/xlink" x="0px" y="0px"
	 viewBox="0 0 500 500" enable-background="new 0 0 500 500" xml:space="preserve">
<path d="M251.052,4c136.895,4.001,243.8,107.77,243.479,245.317c-0.319,136.788-106.927,243.685-244.754,243.242
	C112.96,492.119,6.173,385.458,6.745,247.591C7.31,111.212,113.452,7.704,251.052,4z M364.411,153.201
	c-8.78,0.031-17.56,0.062-26.34,0.093c0-8.013,0-16.026,0-24.841c-4.064-0.206-7.567-0.526-11.072-0.537
	c-15.659-0.049-31.337,0.449-46.97-0.188c-8.268-0.337-13.172,2.639-17.291,9.577c-10.103,17.019-20.762,33.709-31.349,50.436
	c-1.136,1.795-3.274,2.956-5.192,4.625c-14.294-22.468-27.786-43.675-40.546-63.732c-28.873-2.506-61.613-1.289-67.544,2.347
	c0.318,0.836,0.509,1.792,0.998,2.558c21.681,33.94,43.368,67.876,65.102,101.782c8.132,12.686,7.999,12.531,0.093,24.721
	c-21.733,33.512-43.322,67.116-64.856,100.756c-1.357,2.12-1.75,4.857-2.776,7.846c23.644,0,45.673,0,67.742,0
	c13.913-21.813,27.454-43.045,42.294-66.311c17.63,21.713,28.571,46.309,44.422,66.613c30.677,0,60.28,0,91.103,0
	c0-8.004,0-15.454,0-23.246c-8.08-0.483-15.384-0.919-22.873-1.366c-0.415-8.109-0.774-15.104-1.149-22.439
	c-8.451-0.392-15.875-0.737-23.299-1.082l0.254,0.261c0-15.188,0-30.376,0-46.918c-7.973,0-14.998,0-22.627,0
	c-0.72,7.719-1.415,15.169-2.074,22.226c-8.912,0-16.091,0-24.394,0c0-8.906,0-16.66,0-24.413c7.922,0,15.844,0,24.306,0
	c0.443-8.625,0.822-16.016,1.201-23.406c7.569,0,15.139,0,23.517,0c0-8.821,0-16.151,0-23.481c7.6-0.387,15.199-0.774,22.876-1.165
	c0-8.295,0-15.475,0-24.053c-8.223,0-15.571,0-22.918,0c0-15.402,0-30.805,0-46.855c8.748,0,16.046,0,23.345,0
	c0.491,7.261,0.982,14.523,1.513,22.377c7.831,0,14.748,0,22.606,0c0.56-7.85,1.082-15.173,1.603-22.497
	c7.335-0.419,14.67-0.837,22.837-1.304c0-7.748,0-14.65,0-22.587c-7.137,0-13.99,0-22.542,0
	C364.411,137.291,364.411,145.246,364.411,153.201z M362.134,297.375c0.958-8.902,3.819-16.765-2.242-24.958
	c-6.946,1.965-14.601-2.687-20.254,3.684c0,6.47,0,12.551,0,20.214C346.961,296.66,353.827,296.983,362.134,297.375z
	 M365.155,247.798c7.941,0,14.839,0,21.96,0c0-7.766,0-14.683,0-22.193c-7.622,0-14.489,0-21.96,0
	C365.155,233.55,365.155,240.713,365.155,247.798z M365.137,344.057c7.743,0,14.673,0,21.847,0c0-7.74,0-14.644,0-22.11
	c-7.521,0-14.177,0-21.847,0C365.137,329.517,365.137,336.696,365.137,344.057z M315.369,199.617c-7.632,0-15.265,0-23.039,0
	c-0.608-8.719-1.095-15.716-1.569-22.52c-8.638,0-16.184,0-23.777,0c0,7.788,0,14.504,0,22.296
	c7.736,0.501,15.002,0.971,22.621,1.464c0,8.154,0,15.532,0,23.204c-8.346,0.477-15.323,0.876-23.467,1.342
	c0,8.606,0,16.024,0,23.441c8.588,0,17.176,0,25.764,0c0-7.635,0-15.271,0-23.47c8.732,0,16.097,0,23.462,0
	C315.364,216.788,315.366,208.203,315.369,199.617z M242.794,248.719c0-7.665,0-15.33,0-23.128c-8.7,0-15.925,0-23.215,0
	c0,8.177,0,15.363,0,22.88c8.564,0,16.009,0,23.453,0L242.794,248.719z M242.794,248.719l0.239-0.249c0,7.847,0,15.693,0,23.845
	c8.764,0,16.081,0,23.398,0c-0.004-7.919-0.008-15.838-0.011-23.757C258.544,248.612,250.669,248.665,242.794,248.719z
	 M315.161,321.073c-7.615,0-15.23,0-23.051,0c0,8.918,0,16.059,0,22.993c8.368,0,15.559,0,22.797,0c0-8.44,0-15.847,0-23.254
	L315.161,321.073z"/>
</svg>
