<?xml version="1.0" encoding="iso-8859-1"?>
<!-- Generator: Adobe Illustrator 19.0.0, SVG Export Plug-In . SVG Version: 6.00 Build 0)  -->
<svg version="1.1" id="Layer_1" xmlns="http://www.w3.org/2000/svg" xmlns:xlink="http://www.w3.org/1999/xlink" x="0px" y="0px"
	 viewBox="0 0 500 500" enable-background="new 0 0 500 500" xml:space="preserve">
<path d="M296.753,416.488c-20.248,0-36.895-0.133-53.538,0.039c-15.122,0.156-28.849-11.551-30.77-25.167
	c-2.712-19.23,4.458-30.656,21.068-37.465c4.16-1.705,9.354-1.181,14.073-1.184c28.004-0.02,56.013,0.446,84.009,0.028
	c12.224-0.183,24.584-0.795,36.361-5.091c32.463-11.842,53.995-34.168,61.315-67.966c10.17-46.957-14.19-94.384-67.142-108.844
	c-7.963-2.175-16.477-3.123-24.753-3.222c-30.908-0.368-61.834-0.631-92.731,0.047c-16.652,0.366-31.588-13.624-32.87-28.541
	c-1.557-18.119,8.246-31.768,26.193-35.051c6.145-1.124,12.53-1.241,18.808-1.273c26.683-0.134,53.376-0.491,80.049,0.059
	c24.739,0.51,48.601,5.202,71.076,16.487c36.753,18.455,62.398,46.753,77.087,84.966c6.71,17.456,9.602,35.525,9.865,54.449
	c0.486,34.939-9.75,65.962-30.235,93.798c-24.172,32.848-56.435,53.013-96.53,60.828
	C343.231,418.232,318.139,415.75,296.753,416.488z M141.925,227.715c-10.245-0.026-18.988,3.239-25.647,11.165
	c-7.942,9.454-10.451,20.189-6.081,31.898c4.735,12.684,13.628,20.36,27.705,20.449c19.76,0.125,39.521-0.021,59.282-0.027
	c41.219-0.013,82.438-0.046,123.658,0.01c9.87,0.013,18.149-3.759,23.841-11.475c7.821-10.601,10.059-22.293,3.398-34.622
	c-6.327-11.71-16.288-17.305-29.387-17.345c-29.329-0.089-58.659-0.028-87.988-0.028
	C201.112,227.742,171.518,227.789,141.925,227.715z M128.619,167.422c22.544-0.352,37.282-21.588,29.969-42.888
	c-5.003-14.572-16-21.484-33.582-21.708c-26.427-0.337-52.861-0.212-79.292-0.138c-4.171,0.012-8.336,0.836-12.511,1.205
	c-16.754,1.477-28.317,18.774-27.118,33.879c1.324,16.677,15.812,29.665,32.922,29.692c14.539,0.023,29.078,0.005,43.616,0.004
	C97.956,167.468,113.291,167.662,128.619,167.422z"/>
</svg>
