<?xml version="1.0" encoding="utf-8"?>
<!-- Generator: Adobe Illustrator 25.1.0, SVG Export Plug-In . SVG Version: 6.00 Build 0)  -->
<svg version="1.1" id="Layer_1" xmlns="http://www.w3.org/2000/svg" xmlns:xlink="http://www.w3.org/1999/xlink" x="0px" y="0px"
	 viewBox="0 0 500 500" style="enable-background:new 0 0 500 500;" xml:space="preserve">
<path d="M465.5,373.8c-71.4,41-142.6,81.9-214.5,123.3c-71.2-40.9-142.3-81.8-213.9-123c0-82.6,0-165.1,0-248.2
	c71-40.8,142.2-81.7,213.9-123C322.6,44,394,85.1,465.5,126.2C465.5,208.7,465.5,290.5,465.5,373.8z M325.6,134
	c44.2,75.3,87.3,148.9,132.3,225.6c0-77.9,0-151.5,0-225.6C414,134,371.1,134,325.6,134z M44.3,136.4c0,79.7,0,154.7,0,230.1
	c43.5,0,86.1,0,130.9,0C131.7,290,89,215,44.3,136.4z M53.7,375.1c67.3,38.7,130.7,75.1,195.1,112.1c21.5-37.4,42.5-74.1,64.4-112.1
	C226.6,375.1,142.5,375.1,53.7,375.1z M455.9,370.8c-22.4-38.1-43.9-74.7-66.6-113.3C346,333,303.7,406.4,259.2,483.8
	C327.1,444.8,390.9,408.2,455.9,370.8z M188.4,124.7c86.7,0,171.4,0,259.8,0c-67-38.5-130.8-75.1-195.3-112.2
	C231.2,50.4,210.1,87,188.4,124.7z M112.7,241.7c43.1-75.1,85.1-148,129.3-225.1C174.8,55.2,111.8,91.5,48.1,128.1
	C69.6,165.9,90.5,202.6,112.7,241.7z M186.8,133.8c0,23.1,0,45.4,0,69.5c40.3-22.9,79.2-45.1,122.1-69.5
	C264.9,133.8,226.1,133.8,186.8,133.8z M271.8,284.9c6.8-12,13.7-24.1,20.6-36.2c-6.9-12-13.5-23.4-19.6-33.9c-15,0-28.5,0-42.3,0
	c-7.1,12.4-14.1,24.4-20.9,36.3c7.1,12.1,13.5,23.1,19.8,33.9C243.9,284.9,257.5,284.9,271.8,284.9z M316.1,296.1
	c-41.2,23.5-80.2,45.7-123,70c43.9,0,83.2,0,123,0C316.1,343,316.1,320.8,316.1,296.1z M324.2,217.2c0,46,0,89.8,0,138.5
	c21.4-37.1,40.4-70.1,60-104.1C363.9,240,344.9,229,324.2,217.2z M122.9,259.5c21.4,37.7,40.2,70.6,59.4,104.4
	c20.7-11.9,40-23,61.2-35.2C203.4,305.7,165.5,283.9,122.9,259.5z M177.7,143.6c-21,36.4-40.2,69.8-60,104.3
	c20.1,11.5,39.5,22.7,60,34.5C177.7,235.9,177.7,191.6,177.7,143.6z M258.9,171c39.9,22.9,78.1,44.9,120.5,69.3
	c-21.9-37.3-41.2-70.1-60.8-103.5C298.5,148.3,279.6,159.1,258.9,171z M235.6,206.3c23.4,0,44.4,0,69.7,0
	c-19.9-11.3-36-20.5-52.9-30.2C246.6,186.6,241.4,196,235.6,206.3z M314.7,288.4c-6.2-10.9-11.7-20.6-18.1-31.9
	c-11.9,20.6-22.8,39.5-36,62.5C281.2,307.4,297.5,298.2,314.7,288.4z M205.6,242.9c11.7-20.5,22.5-39.3,35.5-61.9
	c-20.3,11.6-36.7,20.9-53.8,30.6C193.7,222.6,199.3,232.2,205.6,242.9z M281.4,214.8c11.6,20.1,22.1,38.5,34.6,60.1
	c0-22.8,0-41.1,0-60.1C304.9,214.8,294.5,214.8,281.4,214.8z M196.8,293.6c20.5,11.5,36.5,20.6,52.8,29.8
	c6.1-10.8,11.2-19.8,16.9-29.8C243.7,293.6,222.8,293.6,196.8,293.6z M220.4,284.7c-11-19.4-21.4-37.5-33.8-59.3
	c0,22.7,0,40.7,0,59.3C197.7,284.7,208.1,284.7,220.4,284.7z"/>
</svg>
