<?xml version="1.0" encoding="iso-8859-1"?>
<!-- Generator: Adobe Illustrator 19.0.0, SVG Export Plug-In . SVG Version: 6.00 Build 0)  -->
<svg version="1.1" id="Layer_1" xmlns="http://www.w3.org/2000/svg" xmlns:xlink="http://www.w3.org/1999/xlink" x="0px" y="0px"
	 viewBox="0 0 2000 2000" style="enable-background:new 0 0 2000 2000;" xml:space="preserve">
<path d="M466.586,1734.536c-120.495,72.552-250.842,87.068-385.122,65.569c-14.439-25.096-6.269-38.565,11.271-50.907
	c69.824-49.132,114.176-117.205,145.23-196.39c-24.696-33.796-48.805-67.163-73.303-100.242
	c-72.439-97.807-116.781-209.089-134.368-327.398c-29.1-195.759,4.644-381.43,111.845-551.944
	C293.57,332.361,515.75,195.535,788.026,137.978c129.804-27.44,262.54-28.377,395.498-4.552
	c234.888,42.089,434.974,145.626,593.026,324.734c110.751,125.505,181,271.203,199.819,439.563
	c36.364,325.335-92.75,577.079-345.226,772.727c-139.099,107.79-298.868,171.414-471.946,194.572
	c-207.205,27.724-409.661,4.861-601.24-85.487C528.722,1765.747,499.942,1750.996,466.586,1734.536z M622.562,753.543
	c0,219.654,0,438.283,0,658.403c256.319,0,512.277,0,768.089,0c0-220.509,0-438.648,0-658.403
	C1134.603,753.543,880.383,753.543,622.562,753.543z M603.678,1229.213c0-98.594,0-194.248,0-291.773c-28.448,0-55.147,0-85.16,0
	c0,97.295,0,193.793,0,291.773C547.371,1229.213,574.308,1229.213,603.678,1229.213z M1413.284,1230.921c29.065,0,54.833,0,82.336,0
	c0-97.61,0-195.084,0-293.235c-28.343,0-54.869,0-82.336,0C1413.284,1035.461,1413.284,1131.098,1413.284,1230.921z
	 M1030.854,713.202c0-59.292,0-116.745,0-165.035c42.073-46.645,52.871-89.364,30.844-124.464
	c-10.431-16.621-32.238-36.28-48.767-36.169c-18.269,0.123-42.167,17.404-53.434,34.086
	c-26.935,39.882-15.573,83.085,28.344,124.123c0,52.084,0,107.263,0,164.881C1001.414,711.438,1011.894,712.066,1030.854,713.202z
	 M1009.256,828.467c101.965,8.883,194.889,29.24,254.993,118.962c30.392,45.37,41.205,96.512,27.897,149.184
	c-4.63,18.324-21.372,37.79-37.953,48.075c-43.132,26.755-92.626,19.379-138.895,11.382c-70.822-12.241-140.362-9.45-210.936,0.044
	c-35.433,4.767-72.299,5.148-107.841,1.288c-47.086-5.113-78.862-60.225-71.729-110.523
	c19.99-140.956,110.592-185.592,216.678-209.301C964.512,832.43,988.423,831.171,1009.256,828.467z M776.896,1075.93
	c16.023,20.506,34.044,35.27,61.587,27.963c26.621-7.062,38.011-26.806,41.828-51.943c-12.718-42.455-31.982-57.184-65.674-50.568
	C786.454,1006.916,773.131,1032.08,776.896,1075.93z M1133.639,1044.038c17.006,48.274,40.146,66.561,68.024,61.331
	c30.472-5.716,43.608-30.273,39.181-73.508c-14.512-22.973-36.231-39.224-62.057-29.008
	C1160.435,1010.111,1147.42,1030.856,1133.639,1044.038z M1156.549,1278.915c-98.862,0-194.902,0-296.858,0
	C951.081,1327.188,1094.927,1329.091,1156.549,1278.915z"/>
</svg>
