<?xml version="1.0" encoding="iso-8859-1"?>
<!-- Generator: Adobe Illustrator 19.0.0, SVG Export Plug-In . SVG Version: 6.00 Build 0)  -->
<svg version="1.1" id="Layer_1" xmlns="http://www.w3.org/2000/svg" xmlns:xlink="http://www.w3.org/1999/xlink" x="0px" y="0px"
	 viewBox="0 0 500 500" style="enable-background:new 0 0 500 500;" xml:space="preserve">
<path id="XMLID_4_" d="M374.395,184.583c-3.052-4.366-7.062-2.966-10.556-2.969c-63.528-0.062-127.056-0.046-190.584-0.036
	c-22.899,0.004-45.798,0.041-68.697,0.047c-1.837,0-3.728,0.124-5.5-0.251c-3.42-0.724-5.305-2.994-4.127-6.464
	c5.807-17.113,11.386-34.322,17.888-51.172c2.876-7.453,9.934-10.637,17.865-11.06c5.529-0.295,11.074-0.405,16.612-0.407
	c95.661-0.03,191.324,0.296,286.982-0.287c21.336-0.13,34.793,10.004,44.657,27.007c5.175,8.921,6.44,18.624,3.285,28.849
	c-16.665,54.002-34.613,107.531-56.9,159.533c-7.785,18.164-18.801,33.451-36.205,43.403c-16.351,9.35-34.137,13.947-52.89,14.306
	c-23.631,0.452-47.27,0.561-70.906,0.601c-52.817,0.089-105.634,0.077-158.45,0.035c-22.158-0.018-44.315-0.208-66.473-0.343
	c-2.212-0.013-4.47,0.072-6.624-0.33c-5.586-1.045-7.536-3.955-5.938-9.547c2.229-7.804,4.878-15.488,7.382-23.212
	c3.303-10.186,6.521-20.401,9.996-30.528c3.213-9.365,4.287-9.942,14.493-9.942c86.797,0.001,173.593-0.007,260.39-0.011
	c1.108,0,2.226-0.078,3.322,0.039c6.268,0.668,9.209-2.474,11.093-8.252c5.604-17.193,11.703-34.224,17.571-51.331
	c7.307-21.304,14.591-42.615,21.826-63.944C374.351,187.01,374.281,185.528,374.395,184.583z M98.472,277.194
	c7.009,0,14.018,0.002,21.028,0c17.338-0.005,34.677-0.072,52.015,0.008c7.497,0.035,14.428-1.603,17.557-9.006
	c6.31-14.932,12.152-30.073,17.759-45.286c1.663-4.512-0.442-6.929-5.18-7.654c-1.445-0.221-2.945-0.127-4.419-0.115
	c-47.565,0.37-95.13,0.938-142.695,0.976c-10.413,0.008-16.814,4.443-20.455,13.569c-5.192,13.013-10.288,26.07-15.1,39.227
	c-2.27,6.207,0.147,9.157,6.506,9.15c24.328-0.028,48.655-0.011,72.983-0.011C98.471,277.765,98.472,277.479,98.472,277.194z"/>
</svg>
