<?xml version="1.0" encoding="iso-8859-1"?>
<!-- Generator: Adobe Illustrator 19.0.0, SVG Export Plug-In . SVG Version: 6.00 Build 0)  -->
<svg version="1.1" id="Layer_1" xmlns="http://www.w3.org/2000/svg" xmlns:xlink="http://www.w3.org/1999/xlink" x="0px" y="0px"
	 viewBox="0 0 500 500" enable-background="new 0 0 500 500" xml:space="preserve">
<path d="M493.649,249.39c0.003,135.278-108.8,243.873-244.31,243.843C115.162,493.203,6.312,383.737,6.351,248.868
	C6.391,114.575,115.978,5.913,251.289,6C384.813,6.086,493.645,115.38,493.649,249.39z M291.972,214.546
	c-0.426,0.216-0.852,0.431-1.278,0.647c-0.787-0.964-1.529-1.969-2.367-2.887c-38.751-42.487-107.482-41.719-144.951,1.774
	c-18.033,20.933-26.051,45.611-26.528,73.053c-1.19,68.509,54.978,119.318,124.576,108.86
	c52.214-7.846,89.408-50.384,90.052-103.357c0.732-60.218,0.235-120.45,0.246-180.677c0-1.724-0.173-3.471-0.478-5.169
	c-1.502-8.347-7.094-13.731-15.46-14.992c-14.188-2.138-23.747,5.889-23.784,20.268c-0.084,32.478-0.027,64.957-0.028,97.435
	C291.972,211.183,291.972,212.864,291.972,214.546z M292.132,273.721c-5.671-28.36-22.205-47.822-50.106-55.258
	c-28.293-7.541-52.715,0.942-71.389,23.746c-14.276,17.433-17.67,37.942-14.645,59.735c6.48,46.673,55.253,74.13,97.128,54.237
	c27.875-13.242,39.48-37.039,40.566-67.902C293.255,284.042,293.146,278.791,292.132,273.721z"/>
</svg>
