<?xml version="1.0" encoding="iso-8859-1"?>
<!-- Generator: Adobe Illustrator 19.0.0, SVG Export Plug-In . SVG Version: 6.00 Build 0)  -->
<svg version="1.1" id="Layer_1" xmlns="http://www.w3.org/2000/svg" xmlns:xlink="http://www.w3.org/1999/xlink" x="0px" y="0px"
	 viewBox="0 0 500 500" enable-background="new 0 0 500 500" xml:space="preserve">
<path d="M187.329,356.337c1.373,14.716-4.096,15.138-14.11,14.31c-31.72-2.621-61.096-12.717-87.2-30.673
	c-28.298-19.465-50.468-44.696-64.433-76.48c-4.004-9.114-8.649-18.209-10.809-27.806c-2.765-12.285-3.704-25.04-4.654-37.651
	c-0.49-6.509,3.451-9.493,10.398-9.695c16.993-0.495,17.306-0.535,19.384,15.745c3.132,24.535,10.444,47.592,24.501,67.993
	c6.598,9.575,14.468,18.407,22.595,26.766c17.962,18.476,40.072,30.142,64.817,36.738c9.067,2.417,18.357,4.378,27.671,5.38
	c10.024,1.079,11.751,2.199,11.841,12.419C187.336,354.368,187.329,355.352,187.329,356.337z M189.218,477.479
	c0,1.313-0.007,2.627,0.001,3.94c0.058,9.793,3.734,12.878,13.461,11.234c2.9-0.49,5.758-1.43,8.67-1.615
	c15.448-0.983,30.13-4.928,44.441-10.689c16.363-6.587,31.498-15.218,45.424-26.027c13.735-10.661,25.745-23.186,35.817-37.147
	c20.009-27.733,30.8-59.146,33.61-93.238c0.272-3.298,1.084-7.901-0.643-9.686c-2.388-2.469-6.88-3.132-10.604-3.993
	c-2.112-0.488-4.488,0.26-6.748,0.3c-7.673,0.136-11.205,3.384-11.54,10.736c-0.149,3.276,0.1,6.618-0.458,9.821
	c-4.173,23.947-12.853,46.082-26.484,66.309c-16.856,25.012-39.799,42.349-67.135,54.359c-15.658,6.879-32.474,8.821-49.092,11.517
	c-6.685,1.085-8.327,2.369-8.625,9.252c-0.071,1.639-0.011,3.284-0.011,4.927C189.275,477.479,189.247,477.479,189.218,477.479z
	 M145.24,187.362c10.43-0.074,10.895-0.676,12.604-11.512c2.468-15.654,4.932-31.156,11.116-46.126
	c5.899-14.28,14.227-26.854,23.45-38.719c10.868-13.982,24.296-25.578,40.051-34.247c18.91-10.405,38.276-18.911,60.414-19.508
	c15.003-0.404,17.62-3.847,16.836-19.354c-0.569-11.275-1.313-12.415-12.776-11.745c-7.997,0.467-15.944,2.258-23.843,3.816
	c-7.596,1.499-15.564,2.396-22.547,5.441c-13.844,6.036-27.235,13.156-40.577,20.272c-5.172,2.758-10.046,6.327-14.469,10.197
	c-20.373,17.827-38.099,37.815-49.64,62.673c-9.496,20.453-16.398,41.717-17.514,64.328c-0.782,15.858-1.423,14.459,13.941,14.485
	C143.271,187.363,144.256,187.369,145.24,187.362z M320.102,128.228c-7.945,0.203-8.792,1.051-8.816,9.157
	c-0.011,3.935,0.226,7.871,0.208,11.806c-0.023,5.239,3.025,7.752,7.707,8.468c4.477,0.684,9.067,0.644,13.532,1.381
	c29.071,4.798,55.482,14.973,77.382,35.793c8.814,8.379,17.949,16.496,24.918,26.32c16.239,22.897,25.199,48.761,28.258,76.652
	c1.223,11.154,1.831,11.754,13.242,11.785c2.627,0.007,5.286,0.229,7.875-0.091c6.472-0.8,9.335-4.247,8.52-10.671
	c-1.098-8.656-2.549-17.269-3.92-25.889c-4.984-31.35-19.691-58.193-39.884-81.936c-17.626-20.724-39.092-36.862-64.288-47.809
	c-19.146-8.318-38.867-13.999-59.809-14.972C323.386,128.222,321.743,128.186,320.102,128.228z M189.153,438.475
	c0.41,6.214,4.106,9.615,10.211,9.023c5.485-0.532,11.071-0.962,16.366-2.367c23.004-6.104,44.359-15.128,62.704-31.229
	c27.749-24.355,41.8-55.228,46.771-90.978c1.099-7.903-3.797-12.681-12.01-12.451c-1.606,0.045-3.228,0.142-4.819-0.014
	c-8.949-0.879-10.892,0.59-12.858,8.907c-2.591,10.963-4.193,22.389-8.491,32.665c-6.716,16.056-17.004,29.868-30.906,41.005
	c-17.127,13.721-35.881,22.602-58.067,23.533c-1.633,0.069-3.297,1.219-4.805,2.107c-5.649,3.327-4.64,8.71-4.116,13.761
	C189.133,434.55,189.024,436.52,189.153,438.475z M204.162,174.618c0.313-1.604,0.449-3.241,0.725-4.854
	c4.196-24.589,16.341-44.607,34.515-61.452C256,92.926,276.245,85.68,297.721,81.173c12.335-2.589,12.426-2.149,12.054-14.977
	c-0.038-1.311-0.015-2.624-0.074-3.934c-0.376-8.446-3.753-11.608-12.441-10.832c-5.474,0.489-10.945,1.478-16.299,2.746
	c-32.514,7.696-59.318,24.474-79.73,51.033c-15.797,20.554-24.155,44.198-27.479,69.669c-0.418,3.203,0.565,7.955,2.748,9.793
	c2.84,2.391,7.529,2.585,11.423,3.724C201.65,187.428,201.658,187.43,204.162,174.618z M436.456,309.58
	c8.153-0.374,12.138-4.809,11.021-12.622c-3.297-23.063-10.313-44.849-23.666-64.136c-5.285-7.634-10.889-15.36-17.694-21.569
	c-22.288-20.337-48.462-33.36-78.513-37.437c-12.549-1.702-17.384-0.713-16.29,13.007c0.128,1.608-0.4,3.257-0.407,4.888
	c-0.03,6.874,3.116,10.287,10.171,11.473c4.473,0.752,8.927,1.655,13.35,2.664c31.267,7.131,54.234,25.185,69.864,52.992
	c6.919,12.31,10.243,25.726,13.264,39.359c2.543,11.477,2.948,11.387,13.981,11.394C433.176,309.591,434.819,309.655,436.456,309.58
	z M173.098,294.155c-20.203-1.604-37.181-10.612-52.484-22.852c-23.76-19.005-35.781-44.643-39.698-74.415
	c-0.854-6.492-3.492-8.692-10.017-8.484c-2.222,0.071-4.463-0.322-6.691-0.545c-8.314-0.832-13.861,4.719-12.728,12.918
	c0.355,2.571,1.438,5.05,1.719,7.622c3.144,28.823,15.898,53.299,35.368,74.047c13.084,13.943,28.834,24.445,46.839,32.08
	c13.356,5.663,27.126,8.112,41.018,10.646c6.936,1.265,10.674-2.821,10.895-10.153c0.049-1.639,0.007-3.281,0.008-4.921
	C187.321,297.548,185.558,295.145,173.098,294.155z M174.174,247.869c-5.781-1.66-11.496-4.035-16.745-6.973
	c-14.877-8.328-24.306-21.095-28.382-37.616c-4.154-16.839-9.995-17.223-21.507-14.798c-8.195,1.726-9.302,2.583-9.329,10.44
	c-0.042,12.391,4.509,23.471,10.42,33.881c14.147,24.914,35.383,40.469,63.802,45.094c13.951,2.271,14.897,0.847,14.895-13.389
	C187.327,251.379,187.256,251.625,174.174,247.869z M388.318,309.612c8.939,1.278,13.071-3.379,11.968-12.907
	c-1.162-10.034-3.465-19.658-8.583-28.485c-8.936-15.411-20.385-28.294-35.857-37.574c-11.057-6.632-23.443-8.614-35.605-11.454
	c-3.59-0.838-8.596,3.18-8.936,7.131c-0.403,4.683,0.26,9.452-0.051,14.15c-0.429,6.482,3.932,8.329,8.776,9.743
	c5.11,1.491,10.569,2.091,15.4,4.18c18.833,8.143,30.083,23.078,34.977,42.525c3.007,11.949,2.872,12.658,14.966,12.672
	C386.356,309.594,387.355,309.475,388.318,309.612z M189.272,386.774c0,0.981-0.021,1.962,0.003,2.942
	c0.256,10.183,2.206,11.931,12.185,10.843c11.085-1.208,21.529-4.552,31.13-10.161c26.509-15.488,42.5-38.104,45.86-68.985
	c0.259-2.378,0.108-5.73-1.321-7.2c-6.006-6.177-13.59-5.012-21.059-3.285c-5.873,1.358-6.818,5.922-7.709,11.041
	c-3.892,22.357-20.283,41.217-43.26,47.303c-3.393,0.899-6.687,2.21-10.108,2.959c-4.285,0.938-5.953,3.527-5.823,7.686
	c0.071,2.284,0.013,4.572,0.013,6.859C189.213,386.774,189.243,386.774,189.272,386.774z M250.584,175.087
	c7.476-25.654,22.623-43.278,50.714-47.138c2.92-0.401,7.14-3.436,7.758-5.978c1.271-5.228,1.105-11.023,0.444-16.452
	c-0.882-7.24-4.553-9.769-11.404-8.383c-6.028,1.219-12.131,2.582-17.824,4.834c-14.267,5.642-27.376,13.242-37.537,25.108
	c-11.173,13.047-19.631,27.459-21.676,44.881c-1.72,14.657-0.92,15.414,14.122,15.405
	C247.498,187.357,247.046,187.225,250.584,175.087z"/>
</svg>
