<?xml version="1.0" encoding="utf-8"?>
<!-- Generator: Adobe Illustrator 25.1.0, SVG Export Plug-In . SVG Version: 6.00 Build 0)  -->
<svg version="1.1" id="Layer_1" xmlns="http://www.w3.org/2000/svg" xmlns:xlink="http://www.w3.org/1999/xlink" x="0px" y="0px"
	 viewBox="0 0 500 500" style="enable-background:new 0 0 500 500;" xml:space="preserve">
<path d="M59,247.3C140.4,166,222.4,84.2,303.7,3c41.2,41.4,83.2,83.7,127.7,128.3c0,74,0,152.1-0.1,230.3c0,3.4-0.9,7.8-3.2,10.1
	c-40.5,41.3-81.3,82.4-121.2,122.7C223.2,411,141,329,59,247.3z M277.1,62.3c-62.8,62.3-125.5,124.5-184.6,183.1
	c30.1,31.1,60.8,62.8,92.1,95C215.4,247.8,246.4,154.6,277.1,62.3z M216.6,352.4c63.4,0,125.5,0,189.4,0
	c-16.1-48.3-31.7-94.9-47.3-141.8C310.6,258.6,264.2,305,216.6,352.4z M349.6,183.6c-14.2-42.7-28.8-86.5-45.3-136.2
	c-31.3,93.9-60.6,181.9-90.6,271.7C259.8,273.2,303.9,229.2,349.6,183.6z M391.2,375.7c-58,0-115.4,0-172.9,0
	c29.4,29.4,58.3,58.3,86,86C332.5,433.8,361.4,405.2,391.2,375.7z M400.8,133.6c-23.2-24.6-45.8-48.5-70.7-75
	c12.8,38.1,24.6,73,36.5,108.2C379.6,154.2,391.6,142.6,400.8,133.6z M409.6,296.5c0-51.7,0-93.7,0-137.4
	c-12.5,12-23.6,22.6-34.7,33.3C385.7,224.9,396.2,256.4,409.6,296.5z"/>
</svg>
