<?xml version="1.0" encoding="iso-8859-1"?>
<!-- Generator: Adobe Illustrator 19.0.0, SVG Export Plug-In . SVG Version: 6.00 Build 0)  -->
<svg version="1.1" id="Layer_1" xmlns="http://www.w3.org/2000/svg" xmlns:xlink="http://www.w3.org/1999/xlink" x="0px" y="0px"
	 viewBox="0 0 2000 2000" style="enable-background:new 0 0 2000 2000;" xml:space="preserve">
<path d="M15.499,624.573c658.197,0,1313.537,0,1971.445,0c0,241.703,0,482.148,0,725.424c-656.392,0-1312.428,0-1971.445,0
	C15.499,1108.759,15.499,868.426,15.499,624.573z M79.748,684.376c0,202.457,0,401.797,0,601.604
	c138.042,11.306,248.93-31.036,317.272-152.393c60.554-107.526,55.373-217.465-14.981-319.475
	C309.539,708.99,203.537,676.36,79.748,684.376z M1067.066,1286.019c-33.444-43.422-68.168-84.269-97.996-128.423
	c-29.949-44.333-55.019-91.963-81.449-136.827c-118.628,0-233.832,0-348.234,0c-59.845,89.796-96.285,193.821-193.302,265.25
	C594.819,1286.019,832.183,1286.019,1067.066,1286.019z M1533.558,953.716c-88.401-89.598-176.715-179.108-265.61-269.207
	c-182.654,17.121-278.318,178.618-271.812,269.207C1175.974,953.716,1355.944,953.716,1533.558,953.716z M1543.664,1021.947
	c-187.846,0-368.666,0-549.623,0c9.727,156.492,166.157,272.114,286.166,262.095
	C1366.492,1198.204,1452.614,1112.527,1543.664,1021.947z M1869.938,686.982c-164.184,0-328.623,0-496.127,0
	c86.132,86.028,168.545,168.342,247.682,247.383C1703.7,852.51,1787.018,769.548,1869.938,686.982z M1629.326,1042.543
	c-82.112,81.458-164.628,163.317-243.877,241.935c157.586,0,320.848,0,484.301,0
	C1787.212,1201.422,1706.278,1119.979,1629.326,1042.543z M1675.012,983.781c82.625,82.662,163.894,163.968,245.133,245.244
	c0-161.416,0-324.497,0-489.241C1836.241,823.3,1754.701,904.462,1675.012,983.781z M500.93,956.324
	c54.707-95.121,104.51-181.715,156.137-271.481c-106.524,0-205.268,0-313.906,0C435.418,754.043,485.151,840.095,500.93,956.324z
	 M1080.692,686.12c-107.753,0-207.224,0-311.365,0c52.053,90.024,101.508,175.556,155.898,269.621
	C940.196,840.577,990.83,755.417,1080.692,686.12z M576.917,953.205c93.119,0,179.62,0,272.298,0
	c-45.959-79.756-89.429-155.193-136.021-236.049C666.24,798.485,622.546,874.169,576.917,953.205z"/>
</svg>
