<?xml version="1.0" encoding="iso-8859-1"?>
<!-- Generator: Adobe Illustrator 19.0.0, SVG Export Plug-In . SVG Version: 6.00 Build 0)  -->
<svg version="1.1" id="Layer_1" xmlns="http://www.w3.org/2000/svg" xmlns:xlink="http://www.w3.org/1999/xlink" x="0px" y="0px"
	 viewBox="0 0 2000 2000" style="enable-background:new 0 0 2000 2000;" xml:space="preserve">
<path d="M1977.539,997.857c0.844,537.118-436.384,975.262-974.637,976.681c-538.373,1.419-976.916-435.599-978.441-975.04
	C22.939,461.465,461.014,22.226,999.908,21.458C1537.546,20.692,1976.693,459.286,1977.539,997.857z M1000.075,78.437
	C487.76,81.357,78.375,493.99,81.48,1004.32c3.106,510.512,417.353,917.655,933.379,912.483
	c502.066-5.032,910.383-419.948,906.007-932.077C1916.613,487.169,1500.236,75.587,1000.075,78.437z M1634.349,997.791
	c1.682,345.266-280.322,631.44-624.337,633.57c-356.14,2.205-640.989-277.591-642.334-630.939
	c-1.334-350.675,280.317-634.469,630.946-635.746C1350.331,363.394,1632.628,644.532,1634.349,997.791z M999.676,420.924
	c-325.584,3.781-577.458,262.544-573.611,589.3c3.695,313.922,269.913,568.582,592.732,562.041
	c313.788-6.358,567.74-271.974,557.049-593.528C1565.527,668.359,1313.823,421.861,999.676,420.924z M331.131,689.925
	c-27.233-12.78-55.424-23.58-83.522-34.429c-16.618-6.416-29.556,0.209-35.967,15.855c-6.166,15.05-0.456,28.323,14.253,34.91
	c27.488,12.311,55.305,24.054,83.604,34.331c20.268,7.361,38.592-6.589,37.809-32.702
	C344.008,704.052,339.124,693.676,331.131,689.925z M1303.22,1661.753c-3.29-6.309-22.457-10.04-30.631-6.495
	c-8.16,3.539-18.375,19.827-16.139,26.846c10.184,31.965,22.882,63.44,38.324,93.198c3.85,7.419,21.888,11.734,32.261,10.12
	c7.853-1.222,13.886-14.139,21.142-22.318C1332.614,1726.958,1319.729,1693.41,1303.22,1661.753z M1323.628,203.252
	c-13.876-4.998-25.681,2.573-31.366,16.814c-10.574,26.485-20.599,53.191-31.316,79.618c-6.24,15.389-5.969,29.301,9.471,38.299
	c13.268,7.732,32.225-0.677,39.711-17.361c11.677-26.024,22.468-52.449,33.403-78.8c1.639-3.949,2.017-8.421,4.355-18.711
	C1341.117,217.299,1333.608,206.847,1323.628,203.252z M1595.966,391.498c-9.529-2.815-24.443-1.334-31.691,4.706
	c-20.77,17.309-38.991,37.711-57.925,57.178c-12.64,12.996-14.65,27.499-1.307,40.801c13.233,13.193,27.764,11.678,40.819-1.101
	c18.881-18.484,37.756-37.001,55.878-56.216c5.177-5.49,7.74-13.445,12.932-22.867
	C1608.201,405.694,1603.521,393.73,1595.966,391.498z M502.197,461.067c-23-23.598-45.353-48.074-70.574-69.075
	c-5.854-4.875-24.405-0.876-32.735,5.122c-11.925,8.584-11.812,24.264-1.65,35.312c20.359,22.132,41.439,43.781,64.047,63.54
	c5.969,5.217,20.23,6.379,27.743,2.953c8.447-3.852,13.565-15.003,19.074-21.694C505.237,469.054,504.934,463.874,502.197,461.067z
	 M1787.193,1321.931c1.756-9.81-3.378-27.177-10.889-31.185c-26.934-14.376-55.774-25.525-84.647-35.773
	c-13.731-4.874-26.445,1.489-32.032,15.911c-5.813,15.003-1.434,28.352,12.981,35.401c19.011,9.297,39.017,16.566,58.631,24.621
	c10.074,4.137,20.225,8.087,34.546,13.798C1773.049,1337.49,1785.625,1330.696,1787.193,1321.931z M433.199,1604.187
	c23.23-22.473,47.241-44.416,67.758-69.213c4.931-5.959,1.064-24.356-4.804-32.859c-8.399-12.17-23.995-12.608-35.213-2.255
	c-22.168,20.458-43.9,41.595-63.637,64.34c-5.195,5.986-5.689,20.222-2.395,28.221c3.244,7.878,14.032,12.65,20.692,18.114
	C423.866,1607.686,429.914,1607.364,433.199,1604.187z M1607.907,1568.319c-23.395-24.062-46.221-48.913-71.848-70.387
	c-5.581-4.677-25.928-0.425-31.79,6.357c-5.932,6.862-7.398,26.112-1.996,32.708c19.378,23.659,41.671,45.199,64.762,65.364
	c5.894,5.147,20.146,5.502,28.089,2.171c7.854-3.294,12.587-14.033,17.59-20.162
	C1610.464,1576.435,1610.557,1571.044,1607.907,1568.319z M704.746,219.994c-3.238-5.926-23.405-8.975-30.595-4.687
	c-8.216,4.901-16.949,21.407-14.471,29.511c8.733,28.563,20.322,56.722,34.895,82.758c4.695,8.388,22.124,13.498,33.395,12.974
	c7.27-0.338,13.936-13.658,22.262-22.663C734.553,283.105,721.451,250.565,704.746,219.994z M252.671,1338.983
	c23.379-8.526,46.298-18.353,69.22-28.079c20.371-8.644,27.583-22.932,20.718-39.46c-6.823-16.428-22.177-21.73-42.642-13.525
	c-22.433,8.994-45.043,17.862-66.444,28.966c-9.15,4.747-15.435,15.015-19.432,19.104
	C214.317,1333.092,232.894,1346.195,252.671,1338.983z M1779.278,702.395c5.627-3.105,8.035-23.635,3.478-30.575
	c-5.316-8.094-21.673-16.119-30.155-13.636c-27.97,8.186-55.465,19.432-81.101,33.282c-7.691,4.155-12.954,21.283-11.49,31.325
	c1.26,8.645,13.679,15.663,22.55,24.832C1717.576,731.75,1749.42,718.873,1779.278,702.395z M726.034,1656.71
	c-10.012-1.264-26.807,4.491-30.999,12.355c-14.08,26.41-25.439,54.624-34.303,83.242c-2.565,8.28,4.228,26.002,11.248,29.073
	c9.032,3.951,29.456,1.334,33.063-5.115c16.677-29.819,29.223-61.949,45.112-97.408
	C741.511,1670.389,734.501,1657.779,726.034,1656.71z M973.377,256.715c0.272,17.73,10.333,28.126,27.14,28.445
	c16.895,0.321,27.566-9.855,27.867-27.551c0.475-27.924,0.518-55.87-0.03-83.792c-0.347-17.658-11.169-27.77-28.007-27.481
	c-15.607,0.268-26.003,9.994-26.813,26.588c-0.68,13.932-0.14,27.923-0.17,41.888C973.334,228.78,973.163,242.75,973.377,256.715z
	 M1028.559,1781.064c0-13.963,0.173-27.929-0.043-41.888c-0.274-17.714-10.166-28.146-27.126-28.337
	c-16.921-0.19-27.489,9.978-27.775,27.654c-0.452,27.916-0.505,55.853,0.047,83.766c0.349,17.673,11.031,27.684,28.045,27.277
	c15.696-0.375,25.977-9.874,26.636-26.595c0.549-13.939,0.113-27.917,0.113-41.877
	C1028.489,1781.064,1028.524,1781.064,1028.559,1781.064z M178.351,970.571c-16.31,1.102-25.603,11.375-25.78,27.304
	c-0.178,15.96,9.006,27.113,25.213,27.737c28.511,1.096,57.133,1.028,85.64-0.177c16.43-0.694,25.249-12.515,24.782-28.137
	c-0.466-15.58-9.698-25.993-26.369-26.75c-13.159-0.597-26.366-0.12-39.552-0.152C207.636,970.364,192.934,969.586,178.351,970.571z
	 M1741.218,970.606c-17.626,0.637-27.496,11.067-27.407,27.906c0.083,15.648,9.361,26.658,25.889,27.173
	c27.795,0.865,55.663,1.153,83.441,0.113c17.251-0.646,26.842-11.953,26.184-29.05c-0.619-16.08-10.472-25.431-26.834-26.155
	c-13.155-0.582-26.357-0.118-39.538-0.103C1769.039,970.505,1755.113,970.104,1741.218,970.606z M1116.037,1186.299
	c-7.561,37.185-22.534,50.057-60.522,50.163c-81.76,0.228-163.522,0.083-245.283,0.08c-62.61-0.002-125.219,0-187.829-0.046
	c-18.61-0.014-30.191,9.88-30.788,27.593c-0.607,17.988,11.15,27.895,29.274,29.319c2.93,0.23,5.89,0.098,8.836,0.098
	c142.894-0.002,285.788,0.221,428.681-0.125c58.088-0.14,98.609-34.595,110.273-91.669c7.168-35.074,14.844-70.044,22.423-105.674
	c63.615,0,124.704-0.232,185.791,0.137c19.218,0.116,31.514-7.787,33.754-27.067c1.965-16.911-12.181-29.118-33.551-29.587
	c-23.559-0.517-47.138-0.137-70.708-0.14c-33.67-0.004-67.34-0.001-103.756-0.001c5.851-27.252,10.991-51.19,16.415-76.45
	c27.966,0,53.69,0.062,79.414-0.017c26.517-0.082,53.039-0.012,79.548-0.557c19.768-0.406,32.758-12.074,32.789-28.356
	c0.031-16.284-13.125-28.278-32.608-28.457c-37.563-0.345-75.131-0.104-112.697-0.106c-11.273-0.001-22.547,0-35.102,0
	c5.099-24.555,9.701-45.347,13.708-66.254c14.717-76.787-32.448-133.99-110.61-134.156c-81.759-0.173-163.518-0.204-245.277-0.212
	c-51.56-0.005-103.12,0.315-154.679,0.141c-18.49-0.063-29.667,8.343-31.597,26.632c-1.745,16.533,11.259,28.242,31.134,29.522
	c4.403,0.284,8.836,0.154,13.255,0.15c77.339-0.07,154.677-0.174,232.016-0.221c52.295-0.032,104.596-0.432,156.884,0.178
	c35.953,0.419,60.041,24.875,55.005,56.598c-4.698,29.591-12.013,58.766-18.236,88.409c-6.556,0.501-11.635,1.224-16.715,1.226
	c-64.817,0.029-129.634-0.088-194.45-0.079c-43.456,0.006-86.958-0.888-130.331,1.05c-9.519,0.425-22.619,9.236-26.637,17.709
	c-3.544,7.473,0.328,22.517,6.41,29.303c5.533,6.173,18.432,7.834,28.103,7.887c97.962,0.534,195.927,0.329,293.892,0.332
	c8.55,0,17.1,0,27.882,0c-5.58,26.711-10.48,50.164-15.82,75.728c-9.934,0-18.615,0-27.297,0c-92.809,0-185.617-0.095-278.426,0.068
	c-22.265,0.039-35.418,10.383-36.062,27.209c-0.688,17.974,12.535,29.15,35.955,29.243c53.769,0.215,107.54,0,161.31-0.021
	c44.083-0.017,88.166-0.003,135.091-0.003C1128.257,1127.661,1122.005,1156.951,1116.037,1186.299z"/>
</svg>
