<?xml version="1.0" encoding="iso-8859-1"?>
<!-- Generator: Adobe Illustrator 19.0.0, SVG Export Plug-In . SVG Version: 6.00 Build 0)  -->
<svg version="1.1" id="Layer_1" xmlns="http://www.w3.org/2000/svg" xmlns:xlink="http://www.w3.org/1999/xlink" x="0px" y="0px"
	 viewBox="0 0 2000 2000" style="enable-background:new 0 0 2000 2000;" xml:space="preserve">
<path d="M1834.378,337.957c-18.922,17.601-35.691,33.2-52.387,48.73C1357.488-49.739,737.012,57.823,433.519,414.274
	c-304.564,357.709-285.958,891.851,50.713,1226.48c342.869,340.791,914.578,363.119,1295.207-24.983
	c17.398,15.819,35.036,31.858,52.664,47.887c-193.359,233-588.518,394.015-989.477,278.087
	c-403.705-116.721-690.691-487.438-703.829-908.773c-13.269-425.513,247.33-808.87,647.895-953.489
	C1175.254-60.803,1598.526,68.944,1834.378,337.957z M1152.395,971.497c0-172.842,0-339.775,0-507.615c-26.743,0-49.093,0-71.061,0
	c0,196.307,0,389.28,0,583.438c127.77,0,252.32,0,379.354,0c0-24.967,0-47.407,0-75.823
	C1358.191,971.497,1257.366,971.497,1152.395,971.497z"/>
</svg>
