<?xml version="1.0" encoding="iso-8859-1"?>
<!-- Generator: Adobe Illustrator 19.0.0, SVG Export Plug-In . SVG Version: 6.00 Build 0)  -->
<svg version="1.1" id="Layer_1" xmlns="http://www.w3.org/2000/svg" xmlns:xlink="http://www.w3.org/1999/xlink" x="0px" y="0px"
	 viewBox="0 0 500 500" style="enable-background:new 0 0 500 500;" xml:space="preserve">
<path d="M48.735,302.992c0.314-0.784,0.757-2.36,1.529-3.754c15.474-27.946,30.988-55.87,46.489-83.802
	c4.364-7.863,8.782-15.697,13.033-23.62c1.561-2.91,3.589-4.517,7.011-4.448c1.788,0.036,3.668-0.248,5.363-0.817
	c3.201-1.074,5.469-0.018,7.644,2.316c12.391,13.295,24.852,26.523,37.287,39.777c10.408,11.094,20.817,22.186,31.213,33.291
	c3.988,4.259,4.044,7.448,0.333,11.841c-20.06,23.745-40.115,47.494-60.161,71.25c-1.85,2.192-3.755,4.233-7.024,3.266
	c-3.302-0.977-4.12-3.665-4.478-6.667c-0.611-5.133-1.224-10.265-1.906-15.389c-0.56-4.207-2.234-5.818-6.426-6.425
	c-21.405-3.097-42.81-6.187-64.212-9.308C50.727,309.964,48.653,307.451,48.735,302.992z M307.452,394.459
	c0,5.263,0.072,10.526-0.027,15.787c-0.06,3.201,0.768,5.971,2.739,8.536c10.728,13.961,21.375,27.985,32.085,41.96
	c2.892,3.773,6.07,4.91,9.673,3.672c3.747-1.288,6.163-4.999,6.072-9.478c-0.064-3.158-0.18-6.317-0.375-9.469
	c-0.765-12.34-0.617-12.576,9.248-19.794c32.197-23.556,64.266-47.289,96.646-70.59c5.632-4.053,7.012-12.476,1.04-17.873
	c-10.791-9.751-21.198-19.928-31.712-29.982c-2.824-2.701-5.844-3.719-9.667-2.353c-3.937,1.407-7.952,1.444-11.678-0.679
	c-3.813-2.173-7.192-1.686-10.662,0.826c-29.136,21.089-58.291,42.153-87.499,63.143c-3.512,2.524-5.241,5.655-5.197,9.925
	c0.055,5.456,0.013,10.912,0.013,16.368C307.918,394.459,307.685,394.459,307.452,394.459z M207.999,405.572
	c10.616-0.459,21.234-0.879,31.846-1.42c1.581-0.081,3.295-0.424,4.672-1.161c14.084-7.537,28.138-15.133,42.144-22.816
	c6.701-3.676,7.716-11.471,2.519-17.205c-7.191-7.934-14.301-15.942-21.434-23.929c-16.761-18.767-33.493-37.56-50.286-56.299
	c-4.665-5.206-9.812-5.007-14.347,0.367c-5.06,5.996-10.101,12.007-15.165,17.999c-15.934,18.855-31.891,37.691-47.803,56.564
	c-3.857,4.575-3.688,10.41,0.399,14.813c9.568,10.308,19.232,20.526,28.755,30.875c2.625,2.853,5.63,3.941,9.446,3.713
	c9.746-0.584,19.503-0.981,29.256-1.453C208,405.605,208,405.589,207.999,405.572z M468.643,187.888
	c-3.04-5.533-6.314-10.937-9.496-16.392c-10.273-17.611-20.534-35.228-30.826-52.828c-2.616-4.473-6.78-6.491-11.588-5.525
	c-20.463,4.111-40.925,8.224-61.352,12.507c-1.921,0.403-3.934,1.67-5.316,3.103c-4.707,4.88-5.404,11.703-2.129,17.793
	c15.725,29.244,31.458,58.484,47.193,87.723c4.762,8.849,9.437,17.747,14.335,26.52c4.514,8.085,14.285,8.699,19.244,1.266
	c12.374-18.547,24.762-37.085,36.928-55.767c2.345-3.6,3.706-7.841,5.419-11.565C470.102,191.95,469.669,189.756,468.643,187.888z
	 M319.363,148.413c-0.907-0.339-2.491,0.664-3.567,1.383c-0.924,0.617-1.571,1.658-2.312,2.536
	c-9.747,11.557-19.482,23.125-29.234,34.678c-21.483,25.45-42.975,50.893-64.46,76.341c-2.813,3.332-2.824,4.554,0.046,7.612
	c25.21,26.871,50.416,53.745,75.706,80.541c0.875,0.927,2.767,1.624,3.906,1.334c0.876-0.223,1.751-2.122,1.882-3.355
	c2.26-21.329,4.411-42.669,6.573-64.008c3.031-29.911,6.049-59.824,9.076-89.736c1.475-14.576,2.958-29.152,4.534-44.682
	C321.107,150.509,320.472,148.828,319.363,148.413z M313.509,352.84c1.753,1.418,3.754,0.532,5.519-0.753
	c7.348-5.351,14.736-10.648,22.111-15.961c18.78-13.531,37.542-27.088,56.364-40.56c2.688-1.924,3.577-4.187,3.669-7.506
	c0.1-3.625,0.873-7.412,2.234-10.77c1.279-3.157,1.395-5.7-0.25-8.663c-4.78-8.612-9.389-17.32-14.056-25.996
	c-15.904-29.57-31.797-59.146-47.725-88.703c-0.909-1.686-1.489-4.129-4.148-3.631c-2.781,0.521-2.438,3.088-2.709,5.094
	c-0.756,5.596-1.437,11.203-2.132,16.808c-2.931,23.651-5.882,47.299-8.778,70.955c-3.21,26.222-6.37,52.451-9.548,78.677
	c-1.048,8.646-2.083,17.293-3.256,27.033C311.381,349.752,312.111,351.709,313.509,352.84z M135.431,180.929
	c1.107,1.537,2.614,2.781,3.923,4.177c21.92,23.377,43.834,46.759,65.756,70.134c3.108,3.315,6.278,3.3,9.257-0.188
	c7.394-8.658,14.721-17.372,22.068-26.07c21.24-25.148,42.475-50.3,63.715-75.448c2.84-3.362,5.724-6.687,8.523-10.083
	c1.335-1.62,1.605-3.459,0.479-5.337c-1.07-1.786-2.671-1.822-4.516-1.449c-7.222,1.46-14.465,2.821-21.694,4.25
	c-22.437,4.439-44.871,8.893-67.307,13.339c-25.63,5.079-51.262,10.144-76.887,15.248c-3.463,0.69-5.261,3.022-5.715,6.728
	C133.816,177.807,134.415,179.518,135.431,180.929z M319.143,107.903c-8.462-20.621-16.928-41.241-25.432-61.845
	c-1.197-2.901-3.979-3.606-6.591-1.794c-1.021,0.709-1.979,1.508-2.965,2.266c-24.345,18.717-48.695,37.429-73.034,56.154
	c-22.292,17.151-44.581,34.306-66.828,51.516c-0.845,0.654-1.237,1.894-1.841,2.861c1.194,0.222,2.453,0.808,3.57,0.606
	c6.308-1.137,12.585-2.453,18.868-3.727c48.498-9.839,96.996-19.681,145.49-29.542c1.012-0.206,2.499-0.364,2.873-1.039
	c2.376-4.288,4.502-8.716,6.603-12.885C319.553,109.364,319.429,108.6,319.143,107.903z M37.306,194.067
	c18.551-7.457,37.046-15.058,55.669-22.33c4.332-1.691,6.966-4.038,8.105-8.659c1.619-6.571,5.8-11.142,12.472-13.03
	c2.798-0.792,4.7-2.407,5.836-5.042C129.879,120.673,140.39,96.348,150.849,72c0.594-1.383,1.044-2.932,1.1-4.421
	c0.151-3.984-1.309-7.346-4.762-9.538c-3.157-2.004-6.365-1.733-9.456,0.284C113.614,74.062,89.48,89.776,65.418,105.6
	c-1.675,1.102-3.2,2.822-4.134,4.601c-12.01,22.868-23.921,45.789-35.781,68.735c-0.942,1.822-1.324,3.932-1.967,5.908
	C23.978,192.488,30.37,196.855,37.306,194.067z M223.099,34.853c-13.869,0.646-27.733,1.464-41.609,1.843
	c-4.615,0.126-6.877,2.142-8.444,6.182c-4.324,11.151-8.879,22.213-13.364,33.301c-8.863,21.91-17.757,43.808-26.582,65.733
	c-0.782,1.944-2.363,4.278-0.056,6.046c2.469,1.892,4.041-0.715,5.638-1.94c43.514-33.362,86.99-66.774,130.473-100.176
	c2.981-2.29,4.055-5.476,2.872-8.591c-1.197-3.149-3.179-4.309-7.31-4.138c-13.873,0.575-27.745,1.179-41.617,1.772
	C223.1,34.874,223.1,34.863,223.099,34.853z M95.455,184.926c-25.929,9.297-51.856,18.599-77.786,27.895
	c-5.612,2.012-6.662,4.114-4.869,9.806c7.098,22.538,14.193,45.076,21.29,67.614c0.754,2.394,1.847,4.484,4.72,4.741
	c2.758,0.247,4.07-1.554,5.247-3.68c18.489-33.385,37.004-66.755,55.503-100.135c0.554-1,1.153-2.017,1.463-3.102
	c0.623-2.182-0.766-4.023-3.162-3.944C97.263,184.32,96.352,184.604,95.455,184.926z M489.669,290.3
	c-1.401-8.981-2.809-17.962-4.213-26.943c-2.025-12.952-4.009-25.911-6.095-38.853c-0.78-4.837-4.798-7.882-8.663-6.29
	c-1.864,0.768-3.567,2.566-4.727,4.307c-10.55,15.839-20.958,31.773-31.425,47.668c-1.758,2.67-2.289,5.47-0.965,8.435
	c1.749,3.916,1.873,7.983,1.218,12.104c-0.476,2.998,0.331,5.476,2.504,7.54c11.375,10.806,22.719,21.645,34.153,32.389
	c3.609,3.392,8.941,2.007,10.772-2.619c0.351-0.886,0.605-1.817,0.833-2.745c1.823-7.432,3.639-14.865,5.434-22.304
	c0.672-2.785,1.283-5.585,1.848-8.059C490.083,293.139,489.89,291.718,489.669,290.3z M351.799,116.022
	c18.559-3.769,37.113-7.567,55.68-11.298c2.142-0.431,3.917-1.09,4.234-3.526c0.311-2.396-1.212-3.578-3.087-4.632
	c-33.249-18.696-66.484-37.417-99.71-56.154c-1.588-0.896-3.14-1.639-4.73-0.231c-1.555,1.378-1.661,3.085-0.883,4.972
	c8.094,19.622,16.129,39.268,24.336,58.842c0.504,1.203,2.26,2.53,3.54,2.648c6.064,0.561,10.622,3.38,14.189,8.177
	c0.663,0.892,1.812,1.423,2.41,1.873C349.536,116.402,350.675,116.25,351.799,116.022z"/>
</svg>
