<?xml version="1.0" encoding="iso-8859-1"?>
<!-- Generator: Adobe Illustrator 19.0.0, SVG Export Plug-In . SVG Version: 6.00 Build 0)  -->
<svg version="1.1" id="Layer_1" xmlns="http://www.w3.org/2000/svg" xmlns:xlink="http://www.w3.org/1999/xlink" x="0px" y="0px"
	 viewBox="0 0 500 500" enable-background="new 0 0 500 500" xml:space="preserve">
<path d="M249.643,494.613C126.796,497.247,4.843,397.052,5.11,249.621C5.361,111.519,114.797,4.311,251.228,5.003
	C386.624,5.69,494.786,111.266,495.24,249.801C495.708,392.262,377.96,497.158,249.643,494.613z M186.918,161.797
	c0,16.194,0.023,30.383-0.015,44.571c-0.011,4.101,2.193,6.389,5.997,6.448c10.298,0.158,20.601-0.045,31.107-0.106
	c0.438-4.856,0.228-8.301,1.223-11.354c0.583-1.788,3.051-4.157,4.734-4.208c18.969-0.58,38.18-2.048,54.589,10.73
	c2.566,1.998,5.616,4.598,8.53,4.714c13.11,0.523,26.273,0.697,38.711-0.035c0.741-2.06,1.082-2.532,1.027-2.951
	c-0.12-0.916-0.264-1.905-0.705-2.693c-12.817-22.903-32.164-37.033-57.824-42.204C246.036,159.015,217.495,163.247,186.918,161.797
	z M330.579,286.693c-7.204-1.845-37.992-3.151-42.985-1.806c-1.797,0.484-3.559,1.352-5.134,2.363
	c-16.229,10.418-34.43,9.327-52.488,9.096c-3.32-0.043-5.262-1.452-5.589-5.023c-0.203-2.215-1.002-4.374-1.427-6.12
	c-12.082,0-23.369,0-34.258,0c-0.759,1.599-1.48,2.42-1.491,3.249c-0.134,10.016-0.265,20.033-0.192,30.049
	c0.08,11.121,0.431,11.857,10.924,11.676c24.284-0.419,48.778,0.438,72.779-2.528C296.69,324.441,317.5,310.812,330.579,286.693z
	 M101.834,304.372c-19.461,7.519-38.821,12.992-57.218,21.159c6.517,15.532,12.1,29.987,21.895,42.809
	c17.478-11.117,34.207-21.757,50.909-32.381C112.318,325.618,107.539,315.934,101.834,304.372z M92.09,248.658
	c1.439-12.42,2.665-23.01,3.856-33.286c-19.476-6.728-49.03-12.868-58.817-12.402c-5.658,22.747-6.414,35.184-2.552,47.645
	C53.166,249.983,72.01,249.342,92.09,248.658z M185.487,103.655c9.569-2.875,18.59-5.533,27.574-8.311
	c3.472-1.074,5.946-3.002,5.016-7.264c-3.925-18.001-7.819-36.009-11.811-54.417c-16.191,3.603-31.165,7.538-46.045,15.887
	C168.767,67.85,177.143,85.788,185.487,103.655z M282.56,468.887c-3.049-21.354-5.772-40.421-8.601-60.23
	c-6.514,0-12.143,0-17.773,0c-5.56,0-11.12,0-17.01,0c-1.853,19.362-3.427,37.267-5.361,55.134
	c-0.593,5.479,2.439,6.964,6.608,6.852C253.642,470.289,266.85,469.573,282.56,468.887z M462.382,188.345
	c-18.146,5.057-34.873,9.678-51.571,14.405c-3.816,1.08-7.067,2.738-6.106,7.836c1.735,9.198,3.27,18.433,5.142,29.09
	c20.052-1.277,39.672-2.527,60.638-3.862C470.126,219.539,466.852,204.609,462.382,188.345z M283.025,31.477
	c-2.828,20.543-5.509,40.019-8.259,59.992c11.997,2.959,22.694,5.597,33.765,8.328c7.606-19.317,14.658-37.227,21.953-55.756
	C315.339,37.542,300.408,33.972,283.025,31.477z M463.104,312.308c-20.664-6.335-39.672-12.75-59.637-16.462
	c-4.623,11.005-8.771,20.88-13.223,31.476c17.94,9.876,35.303,19.434,53.924,29.685C450.544,341.957,456.59,327.684,463.104,312.308
	z M355.157,370.679c-9.861,7.015-18.693,13.299-28.454,20.243c9.457,17.417,18.852,34.72,28.647,52.76
	c15.403-7.746,28.288-16.807,40.194-27.889C381.952,400.609,368.987,386.128,355.157,370.679z M395.963,83.65
	c-13.847,15.739-26.899,30.575-40.049,45.522c8.352,9.062,15.946,17.302,23.786,25.809c16.843-12.101,32.557-23.391,48.713-34.999
	C419.624,105.841,408.629,95.431,395.963,83.65z M159.626,449.838c8.641-18.683,16.868-36.468,25.212-54.509
	c-10.707-6.522-20.227-12.322-29.953-18.247c-12.555,16.178-24.619,31.724-37.115,47.826
	C131.201,435.169,144.046,443.628,159.626,449.838z M95.943,94.075c-10.916,10.089-20.765,22-29.504,36.393
	c17.454,10.982,34.208,21.522,51.452,32.372c7.558-9.632,14.433-18.393,20.825-26.539
	C123.945,121.718,110.091,108.042,95.943,94.075z M187.288,224.815c0,9.967-0.108,18.449,0.022,26.928
	c0.295,19.16-3.925,18.613,19.951,18.282c2.803-0.039,5.657-0.766,8.38-1.55c10.627-3.058,13.433-10.009,6.854-19.096
	c-2.123-2.932-1.848-4.08-0.703-6.98c4.021-10.18-0.046-16.687-10.946-17.486C203.746,224.392,196.577,224.815,187.288,224.815z
	 M244.588,225.009c0,13.893-0.151,26.617,0.173,39.329c0.045,1.772,2.361,4.928,3.737,4.991c8.973,0.406,17.987,0.341,26.955-0.164
	c1.183-0.067,2.767-3.441,3.012-5.425c0.125-1.013-2.221-3.233-3.603-3.37c-5.186-0.515-10.457-0.171-15.646-0.67
	c-1.333-0.128-3.7-2.537-3.481-3.248c0.57-1.849,2.106-4.477,3.625-4.751c4.16-0.75,8.545-0.178,12.764-0.722
	c1.321-0.171,3.558-2.518,3.348-3.365c-0.459-1.847-2.01-4.537-3.49-4.803c-4.16-0.749-8.543-0.183-12.766-0.71
	c-1.345-0.168-3.676-2.534-3.456-3.21c0.596-1.825,2.166-4.482,3.624-4.668c5.156-0.66,10.47-0.085,15.623-0.752
	c1.405-0.182,3.035-2.955,3.436-4.785c0.207-0.947-2.021-3.477-3.201-3.512C265.399,224.884,255.541,225.009,244.588,225.009z
	 M309.862,234.816c0,5.318-0.023,9.969,0.006,14.62c0.032,5.215-0.255,10.474,0.378,15.618c0.209,1.695,2.682,3.986,4.435,4.312
	c1.188,0.221,3.609-2.258,4.243-3.984c0.772-2.1,0.161-4.681,0.296-7.045c0.452-7.888-0.991-15.929,1.215-23.945
	c3.892-0.334,7.261-0.237,10.365-1.098c1.107-0.307,1.99-2.886,2.179-4.52c0.122-1.056-1.179-3.264-1.881-3.281
	c-10.862-0.254-21.733-0.338-32.593-0.08c-0.871,0.021-2.11,2.765-2.356,4.369c-0.161,1.049,0.974,3.151,1.857,3.355
	C301.557,233.957,305.236,234.219,309.862,234.816z"/>
</svg>
