<?xml version="1.0" encoding="utf-8"?>
<!-- Generator: Adobe Illustrator 25.1.0, SVG Export Plug-In . SVG Version: 6.00 Build 0)  -->
<svg version="1.1" id="Layer_1" xmlns="http://www.w3.org/2000/svg" xmlns:xlink="http://www.w3.org/1999/xlink" x="0px" y="0px"
	 viewBox="0 0 500 500" style="enable-background:new 0 0 500 500;" xml:space="preserve">
<path d="M150.4,331.4c-4.3,2.7-7.7,4.9-11.3,7c-35.7,20.6-71.4,41.2-107.1,61.8c-0.7,0.4-1.5,0.8-2.4,1.3
	c-8.7-5-17.5-10.1-26.2-15.2c0-90.9,0-181.5,0-272.3c8.7-5,17.4-10,26.4-15.2c20,11.6,40.1,23.1,60.1,34.7
	c20,11.6,40.2,22.8,60.7,35.3c26.5-15.3,54.1-31.2,82-47.3c21.8,12.6,43.7,25.2,66.1,38.1c-12.2,7-23.8,13.7-35.5,20.5
	c-10.2-5.9-20.4-11.7-30.6-17.6c-25.4,14.6-50.6,29.2-75.8,43.7c0,29.3,0,58.4,0,87.8c25.1,14.5,50.3,29,75.8,43.8
	c10.1-5.8,20.3-11.7,30.6-17.6c11.7,6.7,23.3,13.4,35.6,20.5c-22.4,12.9-44.2,25.5-66.1,38.2C204.8,362.9,177.2,346.9,150.4,331.4z
	 M38.8,144.9c0,70.5,0,140.1,0,210.4c27.7-16,54.9-31.7,82-47.4c0-38.8,0-77.2,0-115.8C93.6,176.5,66.5,160.9,38.8,144.9z
	 M384.7,121.4c-37.3,21.5-74.4,43-111.4,64.3c0,43.2,0,86,0,128.9c37.2,21.5,74.3,42.9,111.4,64.3c37.2-21.4,74-42.7,111.4-64.3
	c-12.3-7.1-23.9-13.8-35.6-20.6c-25.4,14.6-50.6,29.2-75.8,43.7c-25.4-14.7-50.5-29.2-75.6-43.6c0-29.4,0-58.6,0-88
	c25.2-14.6,50.4-29.1,75.6-43.6c25.4,14.7,50.6,29.2,75.8,43.7c11.8-6.8,23.4-13.5,35.6-20.6C458.5,164,421.7,142.7,384.7,121.4z"/>
</svg>
