<?xml version="1.0" encoding="utf-8"?>
<!-- Generator: Adobe Illustrator 25.1.0, SVG Export Plug-In . SVG Version: 6.00 Build 0)  -->
<svg version="1.1" id="dcn" xmlns="http://www.w3.org/2000/svg" xmlns:xlink="http://www.w3.org/1999/xlink" x="0px" y="0px"
	 viewBox="0 0 500 500" style="enable-background:new 0 0 500 500;" xml:space="preserve">
<g>
	<path d="M252,1.8C115.6,0.8,3.8,110.7,2.8,248c-1,69.7,27.5,132.5,72.5,177.6c0.7,0.7,1.5,1.4,2.2,2.2l53.8-91.4l18.6-36.4
		l15.7-34.3l14.7-35.3l12.8-37.3l15.7-46.1l12.7-40.1l16.7-54L250,14.6l6.9,21.6l10.8,40.2l9.8,36.3l10.8,36.3l11,34.4l9.8,30.4
		l10.8,32.4l13.7,31.4l16.7,34.3l20.6,39.2l19.6,34.3l29.5,44.8c47.1-44.7,76.7-107.9,77.2-178.2C498.2,114.6,388.4,2.8,252,1.8z"/>
	<path d="M321.8,463.9l-15.7-43.2l-20.6-61.8l-12.8-40.2L258,273.6l-3.9-11.8l-2-5.9l-1-2h-1h-1c-1,0-1,0-1,0l-1,1c-1,0-1,1-1,1
		l-1,2l-7.8,20.6l-21.6,63.8l-21.6,56.9L163.3,483c26.3,9.9,54.9,15.2,84.7,15.2c28,0.2,55-4.3,80.1-12.7L321.8,463.9z"/>
</g>
</svg>
