<?xml version="1.0" encoding="iso-8859-1"?>
<!-- Generator: Adobe Illustrator 19.0.0, SVG Export Plug-In . SVG Version: 6.00 Build 0)  -->
<svg version="1.1" id="Layer_1" xmlns="http://www.w3.org/2000/svg" xmlns:xlink="http://www.w3.org/1999/xlink" x="0px" y="0px"
	 viewBox="0 0 500 500" style="enable-background:new 0 0 500 500;" xml:space="preserve">
<path id="XMLID_4_" d="M413.237,421.588c-6.345-9.581-12.79-18.959-18.88-28.563c-46.09-72.678-80.379-150.698-104.561-233.168
	c-12.632-43.081-24.357-86.428-36.505-129.651c-0.621-2.209-1.367-4.384-3.324-6.727c-1.496,4.503-3.149,8.96-4.463,13.515
	c-19.792,68.587-40.287,136.968-66.12,203.564c-23.832,61.438-55.312,119.023-90.666,174.536c-0.771,1.211-1.794,2.262-2.715,3.407
	C27.46,364.479-3.264,269.513,27.449,176.518C59.852,78.408,154.127,12.75,255.882,15.12
	c106.145,2.473,196.017,74.546,223.13,173.829C504.324,281.642,468.362,373.331,413.237,421.588z M247.484,251.867
	c-26.14,73.26-52.281,146.519-78.453,219.868c35.314,18.418,131.606,20.154,155.103,2.83
	c-24.775-74.254-49.5-148.355-74.224-222.456C249.101,252.029,248.292,251.948,247.484,251.867z"/>
</svg>
