<?xml version="1.0" encoding="iso-8859-1"?>
<!-- Generator: Adobe Illustrator 19.0.0, SVG Export Plug-In . SVG Version: 6.00 Build 0)  -->
<svg version="1.1" id="Layer_1" xmlns="http://www.w3.org/2000/svg" xmlns:xlink="http://www.w3.org/1999/xlink" x="0px" y="0px"
	 viewBox="0 0 500 500" style="enable-background:new 0 0 500 500;" xml:space="preserve">
<path id="XMLID_4_" d="M224.519,297.203c3.274-2.798,7.06-1.936,10.528-1.942c32.633-0.059,65.266,0.034,97.899,0.038
	c11.46,0.001,22.855-0.04,33.84-4.394c26.178-10.376,43.113-29.367,50.163-56.186c4.964-18.882,2.277-37.912-7.2-55.167
	c-12.708-23.137-32.425-36.681-58.654-41.229c-14.427-2.502-28.831-1.421-43.242-1.573c-4.858-0.051-8.379-1.442-11.868-4.579
	c-13.149-11.821-26.422-23.507-39.754-35.122c-8.057-7.019-16.352-13.764-24.45-20.738c-2.681-2.309-5.077-4.948-8.765-8.581
	c4.583-0.224,7.412-0.48,10.241-0.482c35.27-0.027,70.545-0.33,105.81,0.076c30.728,0.354,59.696,8.252,84.862,26.023
	c21.353,15.078,38.273,34.376,50.006,58.431c12.335,25.288,16.845,51.74,14.414,79.134c-2.37,26.706-11.863,51.392-27.91,73.172
	c-14.425,19.579-32.593,34.848-54.238,45.96c-2.024,1.039-4.078,2.029-6.044,3.17c-0.793,0.46-1.385,1.267-2.368,2.2
	c29.811,25.869,59.495,51.629,90.511,78.545c-3.248,0.641-4.915,1.253-6.584,1.257c-30.985,0.06-61.971-0.001-92.956,0.109
	c-3.869,0.014-6.853-1.052-9.794-3.634c-25.378-22.277-50.811-44.492-76.354-66.58c-21.706-18.77-43.604-37.317-65.354-56.036
	C232.91,305.331,228.848,301.253,224.519,297.203z M278.544,433.344c-5.467-4.646-10.984-9.234-16.392-13.947
	c-18.553-16.172-37.32-32.114-55.432-48.767c-4.933-4.536-9.507-5.383-15.747-5.37c-14.754,0.032-29.707,0.262-44.217-1.959
	c-19.119-2.927-34.7-13.548-46.539-28.766c-12.007-15.434-18.34-33.38-16.909-52.929c1.416-19.345,8.648-36.792,22.696-50.81
	c12.64-12.613,27.634-21.05,45.491-22.914c12.413-1.296,24.985-1.327,37.49-1.435c23.727-0.205,47.457-0.027,71.185-0.083
	c5.692-0.014,11.383-0.323,18.817-0.55c-13.669-11.885-25.771-22.408-37.874-32.93c-16.589-14.423-33.142-28.888-49.775-43.26
	c-22.121-19.114-44.423-38.023-66.355-57.351c-3.995-3.521-7.71-5.187-13.019-5.149c-29.989,0.217-59.98,0.094-89.97,0.126
	c-2.415,0.003-4.83,0.301-8.375,0.538c31.037,27.008,61.113,53.179,91.882,79.953c-2.367,1.248-3.719,2.011-5.114,2.688
	c-23.077,11.207-42.837,26.587-57.866,47.467c-18.613,25.859-29.049,54.632-28.67,86.804c0.089,7.532,1.106,15.054,1.728,22.578
	c1.333,16.137,6.721,31.128,13.791,45.45c10.933,22.148,27.131,40.047,46.83,54.735c15.073,11.239,32.272,18.701,50.219,23.352
	c12.486,3.236,25.833,4.029,38.825,4.265c31.628,0.573,63.273,0.187,94.911,0.187c5.911,0,11.822,0,17.733,0
	C278.106,434.626,278.325,433.985,278.544,433.344z"/>
</svg>
