<?xml version="1.0" encoding="iso-8859-1"?>
<!-- Generator: Adobe Illustrator 19.0.0, SVG Export Plug-In . SVG Version: 6.00 Build 0)  -->
<svg version="1.1" id="Layer_1" xmlns="http://www.w3.org/2000/svg" xmlns:xlink="http://www.w3.org/1999/xlink" x="0px" y="0px"
	 viewBox="0 0 500 500" enable-background="new 0 0 500 500" xml:space="preserve">
<path d="M5,121.495c7.15,0,13.406,0,19.662,0c33.288,0,66.592-0.628,99.86,0.183c31.073,0.758,60.347,8.565,86.092,27.028
	c13.24,9.495,24.108,21.249,33.5,34.457c2.355,3.311,4.623,6.684,7.338,10.617c1.694-2.216,3.233-4.007,4.53-5.959
	c26.213-39.438,63.339-60.435,110.092-65.047c7.579-0.748,15.219-1.192,22.833-1.224c32.196-0.133,64.393-0.056,96.59-0.056
	c2.961,0,5.923,0,9.446,0c0,17.051,0,33.491,0,50.817c-3.213,0-6.136,0-9.059,0c-31.924,0.001-63.856-0.408-95.768,0.211
	c-12.169,0.236-24.484,1.946-36.394,4.54c-22.237,4.843-40.055,17.201-52.713,36.08c-8.008,11.944-14.717,24.76-22.34,37.749
	c7.042,12.921,13.244,25.663,20.671,37.645c15.635,25.225,39.107,38.313,68.324,40.599c17.104,1.338,34.328,1.335,51.503,1.512
	c22.099,0.228,44.202,0.032,66.303,0.019c2.978-0.002,5.956,0,9.519,0c0,16.928,0,33.377,0,50.352
	c-2.553,0.158-4.928,0.43-7.305,0.432c-34.925,0.026-69.851,0.165-104.775-0.042c-19.738-0.117-39.102-2.9-57.848-9.494
	c-27.205-9.569-48.513-26.682-64.997-50.099c-2.663-3.784-5.247-7.624-7.892-11.421c-0.129-0.185-0.488-0.209-1.25-0.508
	c-2.214,3.134-4.549,6.368-6.813,9.651c-26.096,37.859-62.636,57.456-108.007,60.574c-20.106,1.382-40.335,1.119-60.51,1.313
	c-20.735,0.199-41.473,0.044-62.21,0.044c-2.664,0-5.328,0-8.38,0C5,294.567,5,208.498,5,121.495z M55.726,330.637
	c29.23-0.981,58.03,2.171,86.743-2.7c25.906-4.394,46.454-16.867,60.503-39.087c7.535-11.917,13.959-24.536,21.171-37.346
	c-6.171-11.313-11.65-22.246-17.93-32.698c-16.663-27.734-41.732-42.626-73.636-45.032c-19.786-1.492-39.728-0.925-59.601-1.235
	c-5.647-0.088-11.297-0.013-17.252-0.013C55.726,225.469,55.726,277.627,55.726,330.637z"/>
</svg>
