<?xml version="1.0" encoding="iso-8859-1"?>
<!-- Generator: Adobe Illustrator 19.0.0, SVG Export Plug-In . SVG Version: 6.00 Build 0)  -->
<svg version="1.1" id="Layer_1" xmlns="http://www.w3.org/2000/svg" xmlns:xlink="http://www.w3.org/1999/xlink" x="0px" y="0px"
	 viewBox="0 0 2000 2000" style="enable-background:new 0 0 2000 2000;" xml:space="preserve">
<path d="M985.697,11c265.876,2.616,488.702,86.152,674.808,257.951c219.702,202.813,326.808,456.956,318.381,755.634
	c-7.545,267.406-111.279,495.746-304.888,680.27c-193.973,184.872-428.16,273.922-695.416,270.103
	c-212.48-3.036-406.386-69.026-574.069-199.908c-262.092-204.571-393.351-475.885-387.52-808.571
	c4.329-246.941,94.228-463.69,263.115-643.301C473.633,117.364,714.997,14.561,985.697,11z M243.864,514.508
	c-141.42,234.307-179.436,483.273-96.998,745.1c82.277,261.313,253.344,446.941,504.256,555.54
	c192.018,83.109,391.349,93.953,592.292,35.896c208.199-60.154,374.229-181.292,495.224-361.419
	c118.532-176.459,167.583-371.82,147.288-583.341c-19.886-207.261-104.001-386.675-248.781-535.336
	c-152.957-157.057-340.61-248.052-559.473-266.528c-261.97-22.116-491.232,58.59-682.525,229.864
	C336.111,391.931,284.63,448.509,243.864,514.508z M1836.262,987.873c-1.164,206.754-63.596,386.113-192.421,538.933
	c-177.303,210.327-406.38,312.669-681.573,303.811c-176.471-5.681-336.607-64.199-475.311-174.103
	c-227.062-179.916-336.343-416.843-325.754-705.867c6.972-190.318,75.83-359.552,201.189-502.882
	C533,252.7,749.733,152.45,1009.357,155.309c235.528,2.593,436.896,91.976,598.397,263.274
	C1759.316,579.339,1835.46,772.334,1836.262,987.873z M986.714,761.891c25.828-22.376,45.446-47.925,61.98-75.986
	c17.458-29.63,31.668-60.737,40.657-93.923c6.432-23.747,11.93-47.807,16.476-71.984c3.707-19.712,6.966-39.752,7.646-59.741
	c1.6-47.003,0.692-93.852-13.716-139.522c-10.341-32.777-23.602-63.26-50.742-85.986c-25.767-21.577-63.398-23.013-90.7-6.914
	c-24.438,14.41-40.693,36.41-52.822,61.006c-21.282,43.161-29.935,89.664-31.501,137.505c-1.024,31.281,1.681,62.322,8.003,93.013
	c4.552,22.102,8.374,44.384,13.82,66.263c5.604,22.513,12.783,44.635,19.425,67.451c-5.891,5.106-11.685,9.636-16.917,14.742
	c-36.266,35.395-69.207,73.521-98.213,115.236c-22.054,31.717-40.635,65.149-56.238,100.314
	c-13.936,31.408-25.035,63.859-30.424,97.885c-3.557,22.459-6.84,45.104-7.922,67.777c-1.297,27.161-0.057,54.221,5.316,81.319
	c8.718,43.964,23.181,85.241,47.038,123.282c17.871,28.497,39.479,53.558,65.597,74.727c26.57,21.536,56.01,38.606,88.32,49.146
	c22.547,7.356,46.485,10.802,70.017,14.704c33.236,5.511,66.131,0.718,98.764-5.885c12.561-2.542,25.005-5.658,37.943-8.613
	c1.731,6.298,3.149,11.706,4.704,17.073c8.964,30.934,18.121,61.813,26.9,92.799c8.059,28.442,17.438,56.67,22.925,85.62
	c3.358,17.715,3.067,37.083-0.154,54.881c-6.371,35.199-27.135,62.503-55.996,82.951c-24.775,17.553-52.242,27.938-84.025,24.261
	c16.803-47.692,33.352-94.99,50.224-142.172c2.357-6.593,3.278-11.973-2.289-17.436c-14.727-14.453-29.182-29.181-43.872-43.928
	c-13.111,2.587-25.888,4.84-38.539,7.657c-31.788,7.078-63.542,14.316-95.232,21.814c-2.671,0.632-5.957,3.229-6.942,5.712
	c-9.191,23.16-17.942,46.494-26.903,69.996c8.309,7.439,15.908,14.591,23.87,21.312c34.934,29.492,69.776,59.101,105.093,88.129
	c10.796,8.874,20.864,20.21,35.824,21.761c32.738,3.394,64.481-3.143,93.425-17.421c28.696-14.157,51.831-35.46,67.838-64.626
	c19.394-35.338,22.482-72.917,17.197-111.019c-3.864-27.855-12.712-55.09-20.272-82.343c-9.224-33.255-19.526-66.21-29.14-99.36
	c-2.732-9.421-4.688-19.066-6.97-28.482c4.556-2.198,8.098-4.012,11.724-5.64c40.751-18.298,69.403-49.143,90.304-87.757
	c16.978-31.366,26.119-65.086,30.651-100.465c4.338-33.86,2.494-67.457-5.059-100.189c-6.911-29.952-18.883-58.353-37.164-83.998
	c-34.729-48.721-82.259-74.888-140.82-79.872c-25.141-2.14-50.785,1.648-77.847,2.814
	C1014.577,861.753,1000.611,811.698,986.714,761.891z M950.762,794.578c-3.232,4.199-6.267,8.568-9.727,12.57
	c-23.459,27.134-47.613,53.695-70.376,81.398c-28.757,34.997-50.075,74.836-66.859,116.533
	c-12.586,31.269-20.709,64.224-23.829,98.339c-3.416,37.344-1.061,73.78,10.701,109.381c10.051,30.419,26.038,57.339,49.377,79.592
	c19.719,18.801,41.61,33.944,67.363,43.84c24.45,9.395,49.512,16.488,75.434,16.966c29.503,0.544,59.115-1.686,88.586-3.932
	c12.294-0.937,24.348-5.027,36.91-7.771c-28.685-102.285-56.854-202.732-85.255-304.003c-3.791,1.284-6.852,1.747-9.276,3.243
	c-9.606,5.926-19.575,11.464-28.389,18.436c-27.734,21.936-44.616,49.778-44.422,86.262c0.207,39.145,17.285,71.314,43.061,98.978
	c13.799,14.811,30.206,27.192,46.497,41.608c-1.109,2.131-2.855,5.487-5.233,10.057c-15.006-5.679-29.963-9.605-43.247-16.675
	c-49.207-26.192-86.644-63.156-105.421-117.277c-10.312-29.721-11.877-59.67-5.611-89.883c10.952-52.81,43.034-91.663,85.066-123.21
	c11.392-8.55,23.675-15.913,35.588-23.846c-12.092-42.95-24.166-85.837-36.241-128.725
	C953.892,795.831,952.327,795.204,950.762,794.578z M953.244,610.663c22.079-24.34,40.722-51.176,56.678-79.807
	c21.404-38.406,38.266-78.65,47.858-121.787c7.341-33.015,11.816-66.361,2.725-99.346c-6.923-25.12-24.212-38.919-48.428-34.98
	c-28.342,4.61-48.828,21.688-62.652,47.134c-20.918,38.504-24.557,80.87-26.136,123.069c-1.047,27.993,2.27,56.348,5.833,84.26
	c3.774,29.556,10.152,58.78,15.88,90.875C949.369,615.086,951.269,612.84,953.244,610.663z M1151.534,1319.375
	c47.134-28.061,68.415-71.392,69.423-124.355c0.684-35.919-10.138-69.795-30.82-99.816c-6.837-9.923-12.811-21.173-21.78-28.728
	c-14.257-12.009-29.916-22.923-46.423-31.54c-18.666-9.744-39.467-12.567-61.38-9.809c27.951,100.073,55.625,199.152,83.761,299.889
	C1148.373,1321.821,1149.829,1320.389,1151.534,1319.375z"/>
</svg>
