<?xml version="1.0" encoding="iso-8859-1"?>
<!-- Generator: Adobe Illustrator 19.0.0, SVG Export Plug-In . SVG Version: 6.00 Build 0)  -->
<svg version="1.1" id="Layer_1" xmlns="http://www.w3.org/2000/svg" xmlns:xlink="http://www.w3.org/1999/xlink" x="0px" y="0px"
	 viewBox="0 0 2000 2000" style="enable-background:new 0 0 2000 2000;" xml:space="preserve">
<path d="M611.46,1897.99c62.21-77.015,122.665-151.857,184.701-228.657c246.365,67.844,473.022,24.296,668.801-145.622
	c143.223-124.303,223.437-285.242,234.387-475.032c13.736-238.062-71.902-438.084-257.265-588.377
	C1257.481,310.623,1045.42,269.943,814.878,328.95C758.791,244.552,695.716,168.433,619.47,96.94
	c46.23-15.374,88.157-31.658,131.36-43.136c64.809-17.219,131.029-25.864,198.156-31.382c48.511-3.988,96.389-1.879,143.884,2.275
	c140.602,12.296,272.6,54.338,395.582,124.233c75.24,42.761,144.144,94.321,204.965,155.36
	c103.653,104.023,182.769,224.482,232.449,363.568c23.687,66.315,42.247,133.782,48.476,203.999
	c3.438,38.76,3.932,77.808,4.936,116.747c0.736,28.547,0.114,57.127,0.15,85.693c0.08,62.765-13.8,123.442-29.768,183.437
	c-31.708,119.137-84.957,228.735-158.585,327.218c-120.702,161.448-276.812,276.332-467.249,343.771
	c-51.046,18.077-103.669,29.487-156.778,39.899c-67.847,13.3-136.077,7.901-204.197,9.26
	c-116.833,2.33-226.765-28.359-334.244-70.473C623.524,1905.415,618.942,1902.145,611.46,1897.99z M500.728,1719.726
	c32.554-46.536,66.132-92.711,94.324-141.878c82.605-144.067,128.328-300.461,146.168-465.036
	c14.949-137.91,7.105-274.632-25.305-409.834c-17.407-72.617-40.204-143.661-70.794-211.425
	c-34.537-76.509-70.263-152.986-125.274-218.149c-21.924-25.97-42.37-53.188-65.477-82.346
	C192.413,376.295,41.549,625.61,22.453,942.872c-21.526,357.633,126.765,640.843,414.397,858.311
	C460.035,1771.822,481.809,1746.772,500.728,1719.726z M1377.119,1265.449c117.597-167.088,118.668-406.634-41.595-578.042
	c-80.158-85.733-181.324-132.113-298.962-142.542c-37.449-3.32-73.407,1.059-112.567,7.389
	c110.183,301.222,103.145,597.715-11.525,894.432C1034.792,1483.66,1252.284,1442.822,1377.119,1265.449z"/>
</svg>
