<?xml version="1.0" encoding="iso-8859-1"?>
<!-- Generator: Adobe Illustrator 19.0.0, SVG Export Plug-In . SVG Version: 6.00 Build 0)  -->
<svg version="1.1" id="Layer_1" xmlns="http://www.w3.org/2000/svg" xmlns:xlink="http://www.w3.org/1999/xlink" x="0px" y="0px"
	 viewBox="0 0 500 500" enable-background="new 0 0 500 500" xml:space="preserve">
<path d="M357.308,369.635c-2.593,10.892-5.956,20.898,2.832,31.494c5.659,6.824,1.744,18.755-6.499,23.477
	c-6.783,3.885-8.308,9.545-10.536,16.31c-5.93,18.007-12.805,35.745-29.883,47.016c-12.251,8.085-24.732,8.93-37.938,3.211
	c-23.922-10.36-37.747-30.905-50.873-51.715c-7.761-12.305-14.048-25.599-20.264-38.793c-2.656-5.638-5.227-6.561-10.888-4.459
	c-12.502,4.642-25.098,9.25-37.994,12.555c-14.606,3.743-29.476,7.601-44.42,8.606c-21.706,1.46-46.717-5.854-53.45-25.678
	c-2.288-6.738-4.283-14.66-2.913-21.321c2.576-12.531,7.295-24.692,11.901-36.708c3.018-7.874,8.871-14.454,4.612-24.206
	c-2.864-6.557,2.838-14.225,7.85-14.079c14.803,0.433,17.685-11.542,25.85-20.018c-7.567-6.186-14.953-11.327-21.26-17.559
	c-15.635-15.449-30.868-31.311-46.028-47.23c-2.579-2.708-3.96-6.543-5.958-9.818c-4.325-7.089-6.935-14.942-15.299-19.593
	c-7.623-4.239-10.819-17.635-7.189-25.619c3.918-8.615,10.235-14.819,20.889-14.812c3.691,0.002,7.829-0.671,11.005-2.414
	c31.386-17.229,65.131-13.708,98.727-11.637c3.004,0.185,18.337,1.171,23.332,1.171c1.036-5.531,1.954-10.548,2.919-15.557
	c1.241-6.446,0.852-11.438-3.989-17.568c-15.975-20.231-6.902-43.982,17.716-50.711c3.815-1.043,7.902-5.074,9.7-8.774
	c5.803-11.943,12.929-22.675,24.756-29.081c11.724-6.35,36.414-6.383,50.504,7.14c22.732,21.817,35.961,48.924,47.723,77.204
	c1.145,2.753,1.851,5.686,2.935,8.467c1.919,4.924,5.021,6.362,10.199,4.088c12.599-5.533,25.208-11.105,38.091-15.913
	c20.403-7.615,41.294-12.299,63.367-8.737c16.833,2.716,33.865,17.06,34.421,39.252c0.698,27.875-10.517,51.213-23.33,74.265
	c-3.28,5.901-3.669,9.832-1.295,16.331c2.663,7.292,3.15,16.195,1.771,23.893c-1.147,6.399,0.603,9.092,4.855,12.958
	c11.777,10.709,23.42,21.655,34.136,33.401c5.082,5.571,8.691,12.861,11.655,19.922c10.804,25.738,2.36,47.401-22.956,58.682
	c-17.471,7.785-36.105,11.664-55.147,12.408C393.266,370.179,375.539,369.635,357.308,369.635z M192.115,205.086
	c0.094,1.461,0.466,3.076,0.635,4.353c3.44,26.042,6.721,52.109,10.65,78.077c0.452,2.991,4.047,6.772,7.046,7.905
	c18.462,6.969,37.201,13.199,55.778,19.867c5.026,1.804,9.041,0.923,13.125-2.399c19.096-15.533,38.238-31.01,57.542-46.282
	c5.363-4.243,7.574-9.465,6.49-15.893c-3.008-17.826-5.903-35.689-9.636-53.369c-2.308-10.931-20.942-18.507-30.23-12.221
	c-14.34,9.704-29.29-0.004-32.442-12.721c-0.611-2.466-0.399-5.564-1.844-7.316c-4.6-5.576-23.924-7.717-30.273-3.17
	c-13.675,9.794-27.27,19.736-40.352,30.294C195.063,195.069,191.24,195.965,192.115,205.086z M159.757,138.32
	c-2.638-0.686-47.241-3.885-66.181-3.159c-11.012,0.422-22.036,3.318-32.823,6.023c-10.139,2.542-12.309,6.681-9.421,16.737
	c2.447,8.519-0.314,15.916-5.708,21.392c-6.067,6.158-3.586,10.484,0.272,15.629c18.233,24.321,42.808,40.766,68.727,55.601
	c5.279,3.021,9.105,2.801,13.527-1.972c9.067-9.785,19.093-18.686,28.069-28.547c2.529-2.778,3.633-7.575,3.889-11.543
	c0.471-7.298-0.29-14.668-0.327-22.009C159.702,170.975,159.757,155.477,159.757,138.32z M190.058,117.439
	c-0.006,16.821-0.058,17.015,9.948,19.674c13.639,3.625,27.332,7.068,41.086,10.223c2.627,0.603,6.179,0.398,8.395-0.941
	c18.035-10.897,35.504-22.784,53.909-32.991c7.411-4.11,6.322-7.555,3.493-13.167c-7.915-15.696-14.477-32.224-23.816-47.006
	c-7.487-11.851-17.292-22.709-27.796-32.069c-14.807-13.194-31.591-10.091-43.066,6.138c-1.981,2.802-3.194,6.173-5.305,8.853
	c-5.178,6.572-4.211,11.45,1.428,17.921c13.186,15.133,9.807,37.746-7.708,46.229C191.391,104.776,188.519,109.663,190.058,117.439z
	 M64.789,373.436c0.087,14.173,4.861,22.282,18.305,26.483c7.55,2.359,16.191,3.179,24.05,2.245
	c27.733-3.293,53.001-14.127,77.471-27.169c5.431-2.895,6.344-6.476,4.77-11.579c-3.778-12.25-8.326-24.317-11.206-36.771
	c-1.758-7.599-5.698-11.673-12.182-15.196c-14.735-8.006-28.995-16.88-43.639-25.061c-3.861-2.157-10.607-5.546-12.236-4.1
	c-4.863,4.32-8.093,10.618-11.391,16.464c-0.849,1.504,0.517,4.183,0.662,6.336c0.735,10.93-2.018,14.693-12.116,18.297
	c-3.396,1.212-7.601,3.013-9.234,5.825C70.144,342.81,65.703,357.643,64.789,373.436z M405.45,184.671
	c9.744,0.272,9.741,0.27,16.299-9.498c2.17-3.232,4.499-6.365,6.517-9.689c8.11-13.359,15.031-27.246,17.151-42.967
	c1.841-13.658-4.82-25.18-17.379-27.991c-8.738-1.956-18.007-2.767-26.954-2.335c-26.257,1.267-50.443,10.827-74.719,19.941
	c-4.575,1.718-4.822,4.086-3.739,7.849c5.567,19.355,10.818,38.81,16.9,58.001c1.231,3.883,5.064,7.514,8.601,9.951
	c4.528,3.12,9.996,4.862,15.012,7.295c4.556,2.21,8.248,2.906,12.721-1.362C383.309,186.754,392.823,183.94,405.45,184.671z
	 M343.179,367.429c-19.897-3.712-38.941-6.949-57.822-10.952c-6.864-1.455-12.507-0.283-18.392,3.019
	c-11.269,6.323-22.664,12.436-34.186,18.284c-5.548,2.816-5.981,6.55-3.744,11.632c7.929,18.019,14.7,36.656,24.04,53.906
	c6.221,11.49,13.999,22.829,26.301,29.615c11.446,6.314,23.325,5.436,31.542-4.273c6.35-7.502,12.471-15.757,16.251-24.709
	c3.312-7.843,9.52-16.2,1.534-26.15c-4.385-5.463-1.057-19.956,4.138-22.466C345.157,389.383,343.527,379.061,343.179,367.429z
	 M429.573,249.384c-14.957,10.33-19.131,11.26-36.343,10.109c-2.531-0.169-5.838,1.127-7.704,2.89
	c-8.159,7.71-16.038,15.731-23.751,23.891c-2.271,2.403-5.112,5.586-5.214,8.499c-0.525,15.016-0.243,30.06-0.243,45.373
	c12.44,1.722,22.621,3.207,32.823,4.529c22.428,2.905,44.804,3.292,66.617-3.663c16.763-5.345,28.283-16.088,18.673-38.627
	C464.982,280.222,447.449,265.125,429.573,249.384z M332.283,180.42c-6.643-22.154-12.356-41.207-18.309-61.059
	c-20.855,8.698-39.319,19.053-57.687,31.771c15.149,6.669,15.149,6.669,22.504,1.984c15.07-9.601,28.6-4.149,33.629,13.118
	c0.91,3.122,3.587,6.219,6.277,8.204C321.716,176.664,325.676,177.616,332.283,180.42z M190.143,142.364
	c0.219,15.924-1.016,30.155,1.173,46.692c15.911-12.166,29.764-22.758,44.894-34.327C220.3,150.458,206,146.62,190.143,142.364z
	 M160.273,225.154c-11.248,11.493-20.869,21.324-32.59,33.3c14.112,6.675,25.61,12.115,39.032,18.464
	C164.454,258.754,162.563,243.553,160.273,225.154z M351.187,251.166c14.303-9.751,13.996-9.698,11.587-23.67
	c-0.759-4.404,1.119-9.208,0.827-13.767c-0.217-3.389-0.987-8.086-3.278-9.714c-4.565-3.245-10.345-4.781-17.327-7.746
	C345.877,215.579,348.465,232.924,351.187,251.166z M345.487,302.17c-11.418,9.376-21.373,17.549-33.425,27.445
	c12.678,3.041,22.723,5.45,33.425,8.017C345.487,325.539,345.487,314.992,345.487,302.17z M214.299,333.721
	c2.03,8.239,3.462,14.047,5.13,20.815c6.475-4.457,11.504-7.918,17.556-12.082C229.175,339.447,223.183,337.14,214.299,333.721z"/>
</svg>
