<?xml version="1.0" encoding="iso-8859-1"?>
<!-- Generator: Adobe Illustrator 19.0.0, SVG Export Plug-In . SVG Version: 6.00 Build 0)  -->
<svg version="1.1" id="Layer_1" xmlns="http://www.w3.org/2000/svg" xmlns:xlink="http://www.w3.org/1999/xlink" x="0px" y="0px"
	 viewBox="0 0 2000 2000" style="enable-background:new 0 0 2000 2000;" xml:space="preserve">
<path d="M37.972,1003.715C33.329,467.165,454.318,65.39,928.645,35.216c601.897-38.289,998.917,426.253,1033.551,881.698
	c46.863,616.253-447.193,1036.173-934.296,1041.112C422.716,1964.162,30.187,1488.231,37.972,1003.715z M888.255,286.645
	C474.346,346.771,200.71,706.733,262.9,1116.647c49.976,329.402,337.669,571.967,625.546,586.692c0-107.586,0-215.117,0-322.141
	c-171.348-67.38-274.911-186.072-280.114-373.749c-5.531-199.56,103.12-322.391,279.922-391.961
	C888.255,505.288,888.255,397.711,888.255,286.645z M1113.972,616.332c174.786,68.168,281.909,188.651,279.637,383.919
	c-2.248,193.204-109.447,314.73-278.797,381.248c0,111.71,0,217.342,0,323.128c293.388-25.087,615.633-276.713,632.588-673.427
	c16.337-382.274-253.438-696.175-633.428-743.385C1113.972,397.081,1113.972,506.117,1113.972,616.332z M1110.643,1063.161
	c59.499-111.145,54.158-192.401-14.136-244.269c-64.083-48.669-139.966-44.839-196.313,11.713
	c-54.619,54.818-73.091,138.18-1.518,226.124c-14.319,50.111-29.018,101.551-44.901,157.136c101.316,0,198.372,0,301.27,0
	C1139.168,1159.98,1124.54,1110.332,1110.643,1063.161z"/>
</svg>
