<?xml version="1.0" encoding="iso-8859-1"?>
<!-- Generator: Adobe Illustrator 19.0.0, SVG Export Plug-In . SVG Version: 6.00 Build 0)  -->
<svg version="1.1" id="Layer_1" xmlns="http://www.w3.org/2000/svg" xmlns:xlink="http://www.w3.org/1999/xlink" x="0px" y="0px"
	 viewBox="0 0 2000 2000" style="enable-background:new 0 0 2000 2000;" xml:space="preserve">
<path d="M1971.497,879.713c-597.415-91.617-1133.215,68.218-1631.625,403.899c0-272.633,0-539.312,0-811.373
	c-157.259,170.489-273.665,530.181-108.109,890.196c-31.519,24.26-63.887,49.174-96.588,74.344
	c-137.245-220.63-169.598-636.93,38.008-960.012C410.861,106.885,828.658-50.159,1233.198,47.126
	C1668.934,151.912,1933.373,515.706,1971.497,879.713z M651.984,968.293c210.949-77.078,425.956-115.922,649.275-131.042
	c-4.532-36.186-6.844-68.214-12.782-99.556c-18.951-100.033-56.787-191.206-151.652-240.904
	c-46.964-24.604-101.359-44.196-153.605-47.64c-109.219-7.199-219.243-2.181-331.236-2.181
	C651.984,617.549,651.984,789.846,651.984,968.293z M1303.11,979.676c-1.091,80.627-14.056,158.986-42.908,234.663
	c-50.891,133.485-166.319,215.855-309.154,218.029c-89.372,1.36-178.771,1.04-268.158,1.165
	c-11.016,0.016-22.035-1.872-34.815-3.038c0-68.348,0-132.775,0-197.201c-2.78-2.561-5.56-5.122-8.34-7.683
	c-142.998,114.573-285.997,229.145-428.561,343.37c215.661,318.909,671.16,505.956,1109.562,353.335
	c488.97-170.225,679.205-642.819,653.156-923.615c-39.537,0-78.963,0-118.154,0c-16.031,454.293-325.039,744.657-652.921,826.935
	c-255.892,64.213-556.871-17.544-674.85-131.254c14.007-0.695,25.326-1.739,36.645-1.745c131.182-0.082,262.384-1.448,393.539,0.446
	c122.321,1.766,237.161-23.6,342.529-86.323c149.45-88.965,236.337-225.659,287.825-387.173
	c34.717-108.906,45.074-221.457,41.467-344.45c-110.502,15.305-217.353,30.103-326.829,45.265
	C1303.144,945.3,1303.343,962.491,1303.11,979.676z"/>
</svg>
