<?xml version="1.0" encoding="iso-8859-1"?>
<!-- Generator: Adobe Illustrator 19.0.0, SVG Export Plug-In . SVG Version: 6.00 Build 0)  -->
<svg version="1.1" id="Layer_1" xmlns="http://www.w3.org/2000/svg" xmlns:xlink="http://www.w3.org/1999/xlink" x="0px" y="0px"
	 viewBox="0 0 500 500" style="enable-background:new 0 0 500 500;" xml:space="preserve">
<path d="M460.721,248.368c-0.575,101.25-62.398,191.557-158.322,226.218c-23.598,8.527-49.646,11.08-74.84,14.12
	c-19.211,2.318-32.882-9.992-33.469-26.266c-0.56-15.517,13.142-27.875,32.185-28.028c85.422-0.688,156.552-63.182,174.576-142.224
	C421.65,200.976,377.015,111.8,289.029,76.355c-20.526-8.269-44.054-9.466-66.371-12.759c-12.841-1.895-22.933-8.052-26.988-20.141
	c-3.775-11.254-0.085-21.048,8.772-27.601c5.348-3.957,13.096-6.738,19.692-6.599c38.759,0.819,75.764,9.451,109.898,28.402
	c65.866,36.568,105.989,92.191,121.897,165.585c0.421,1.943,0.862,3.898,1.055,5.87
	C458.266,222.194,459.483,235.282,460.721,248.368z M114.107,63.293c17.029,0.093,30.042-11.17,30.864-26.729
	c0.715-13.534-10.222-25.53-26.516-26.952c-13.866-1.211-27.899-0.685-41.857-0.632C54.353,9.063,44.77,18.758,44.765,41.017
	c-0.021,88.636-0.002,177.273,0.004,265.909c0.004,51.106-0.029,102.211,0.042,153.317c0.021,15.202,9.618,27.817,23.211,28.45
	c17.112,0.797,34.354,0.768,51.439-0.395c16.045-1.092,26.264-13.385,25.258-27.864c-0.962-13.835-13.492-25.48-28.077-25.941
	c-5.414-0.171-10.837-0.028-17.001-0.028c0-124.116,0-246.954,0-371.175C105.452,63.289,109.78,63.269,114.107,63.293z"/>
</svg>
