<?xml version="1.0" encoding="utf-8"?>
<!-- Generator: Adobe Illustrator 25.1.0, SVG Export Plug-In . SVG Version: 6.00 Build 0)  -->
<svg version="1.1" id="Layer_1" xmlns="http://www.w3.org/2000/svg" xmlns:xlink="http://www.w3.org/1999/xlink" x="0px" y="0px"
	 viewBox="0 0 500 500" style="enable-background:new 0 0 500 500;" xml:space="preserve">
<path d="M439.2,89.1c-41-48.7-93.9-77.1-157.3-85.3c-6.1-0.8-11.7-2-18.3-2.5c-8.8-0.5-16.3-0.4-24.8,0c-9.4,0.8-18.4,2.2-27.5,3.6
	c-44.2,7-83.6,24.9-117.9,53.4C47.1,97,18.6,146.2,7.4,205.3c-1.5,8.1-3.8,29.3-4.2,31.7c-0.6,8.4-0.8,16.3,0,24.8
	c1.2,8.9,2.2,17.9,3.7,26.8c8,49.5,29.2,92.5,63.4,129.1c32.3,34.7,71.7,58.1,117.4,70.3c31.4,8.4,63.4,10.4,95.8,5.9
	c66.8-9.3,120.9-40.7,162.6-93.4c25.2-31.8,41.3-67.9,48-108C506.8,216.5,488.8,148.2,439.2,89.1z M111.4,102.3
	c16.9,0,33.7,0,51.1,0c0,16.6,0,33.3,0,50.7c-16.8,0-33.6,0-51.1,0C111.4,135.9,111.4,119.4,111.4,102.3z M375.5,338.9
	c-17.1,22-40.6,39.5-69.2,49.5c-14.1,4.9-28.7,7.7-43.7,7.7c-48.1,0-96.3,0-144.4,0c-1.8,0-3.7-0.2-6-0.3c0-68.9,0-137.5,0-207
	c0,0,0,0,0,0c0,0,0,0,0,0c25.2,0,50,0,75.4,0c3.6,0,7.3,0,10.9,0c0-7.3,0-14.6,0-21.8c0-21.7,0-42.9,0-64.2c0,0,0,0,0,0c0,0,0,0,0,0
	c1.5-0.5,2.3-0.9,3.1-0.9c24,0.2,48.1-1.5,71.8,1c59,6.3,100.7,38.2,122.3,93.1C415.6,246.2,405.9,299.6,375.5,338.9z"/>
<path d="M199.6,307.5c0-38.9,0-77.7,0-117.2c2.3-0.2,4.4-0.4,6.6-0.4c17.2,0,34.3-0.1,51.5,0c32.2,0.2,56.6,22.4,60,54.3
	c3,28.5-17.4,56.1-46.8,62.9c-3,0.7-6.1,1-9.2,1c-19.8,0.1-39.7,0.1-59.5,0.2C201.5,308.3,200.7,307.8,199.6,307.5z"/>
</svg>
