<?xml version="1.0" encoding="iso-8859-1"?>
<!-- Generator: Adobe Illustrator 19.0.0, SVG Export Plug-In . SVG Version: 6.00 Build 0)  -->
<svg version="1.1" id="Layer_1" xmlns="http://www.w3.org/2000/svg" xmlns:xlink="http://www.w3.org/1999/xlink" x="0px" y="0px"
	 viewBox="0 0 2000 2000" style="enable-background:new 0 0 2000 2000;" xml:space="preserve">
<path d="M917.266,21.53c88.152,0,176.305,0,264.457,0c8.032,3.074,15.85,7.007,24.134,9.07c31.174,7.761,62.5,14.914,96.956,23.046
	c-22.645,36.805-43.011,69.907-62.989,102.376c2.62,36.629,15.134,67.269,40.515,92.922
	c58.789,59.418,130.459,84.754,212.804,79.861c29.331-1.743,54.822-12.956,69.409-42.381c10.826-21.84,24.742-42.162,37.563-62.987
	c2.773-4.505,6.752-8.267,10.021-12.185c84.301,53.063,218.86,213.473,240.389,287.382c-37.963,11.081-75.988,22.18-112.284,32.775
	c-34.054,38.314-45.448,81.688-44.447,130.231c1.596,77.374,29.461,143.19,84.051,197.2c23.527,23.277,51.401,36.642,86.399,23.402
	c17.453-6.603,36.074-10.136,54.201-14.927c9.831-2.598,19.735-4.922,29.597-7.367c0,71.261,0,139.243,0,207.225
	c5.231-24.532,10.798-49.245,11.844-74.148c1.5-35.695,0.297-71.548-0.905-107.295c-0.787-23.422-2.65-46.903-5.751-70.128
	c-4.611-34.534-10.743-68.865-16.227-103.283c10.667,26.267,17.652,53.381,23.369,80.76c5.581,26.724,9.867,53.718,14.722,80.593
	c0,57.136,0,114.271,0,171.407c-1.256,7.153-3.035,14.259-3.691,21.468c-9.932,109.01-35.962,214.156-83.76,312.525
	c-152.38,313.6-404.958,501.174-740.396,582.727c-29.112,7.078-58.629,12.489-87.958,18.675c-89.785,0-179.57,0-269.354,0
	c-6.242-1.679-12.4-3.821-18.739-4.97c-151.89-27.546-285.531-93.564-404.16-191.352c-3.988-3.288-8.489-5.954-12.751-8.91
	c1.423-1.629,2.846-3.258,4.27-4.888c54.341,44.174,112.566,82.008,174.842,112.273c22.56-37.306,43.965-72.703,65.43-108.198
	c1.081-58.173-26.254-102.872-66.965-141.274c-44.439-41.917-96.817-65.947-158.078-68.635
	c-31.135-1.365-57.221,7.386-72.881,38.219c-11.272,22.193-25.881,42.692-40.761,66.795
	c-85.721-99.547-144.401-209.484-184.254-332.471c30.529-8.28,58.633-15.903,88.668-24.049
	c10.196-18.764,24.716-36.896,30.413-57.471c23.596-85.217,14.218-166.394-37.213-240.529
	c-13.04-18.796-30.364-31.434-52.302-37.343c-24.272,6.948-48.035,13.75-75.787,21.694c8.008-119.313,30.985-229.702,75.75-337.479
	c26.641,16.409,50.761,31.265,72.632,44.736c116.769-20.301,217.987-184.152,182.26-291.297
	c-24.527-14.286-49.605-28.893-74.692-43.505c43.091-70.071,245.923-230.391,306.08-241.959
	c5.391,27.656,10.795,55.379,16.977,87.093c20.138,7.71,40.631,20.695,62.239,22.94c93.854,9.751,172.918-24.357,238.761-89.919
	c20.588-20.5,30.068-45.596,19.069-75.995C922.704,57.295,920.95,39.063,917.266,21.53z M356.95,1007.585
	c0.64,110.381,36.452,228.583,98.875,319.061c143.656,208.221,394.103,289.239,633.529,215.922
	c209.935-64.286,351.591-204.931,426.912-409.727c56.4-153.352,53.655-308.068-14.818-457.755
	c-110.734-242.074-365.911-368.633-627.574-312.622c-178.144,38.133-315.681,136.635-414.086,289.046
	C392.277,756.073,357.75,871.361,356.95,1007.585z M614.193,1910.844c-0.362,1.843-0.724,3.687-1.086,5.53
	c4.321,2.035,8.463,4.679,12.991,6.015c73.693,21.734,145.802,51.291,225.35,43.537c14.413-1.405,29.24,2.105,43.89,2.307
	c34.224,0.471,68.884,3.822,102.605-0.27c92.095-11.176,182.333-31.915,269.942-62.945c17.329-6.138,33.937-14.314,51.269-21.717
	c-11.356-51.627-22.183-100.846-32.665-148.497c-36.231-33.065-77.446-47.15-124.322-47.537
	c-50.824-0.42-99.183,9.518-143.795,33.716c-35.979,19.516-70.438,41.569-90.241,79.858c-6.597,12.757-9.273,25.321-5.937,39.953
	c7.067,30.996,12.654,62.332,18.759,93.545c1.821,9.309,3.347,18.675,5.416,30.311
	C830.874,1963.203,719.892,1954.812,614.193,1910.844z M1557.011,1549.938c40.971,25.551,82.236,51.286,124.81,77.836
	c89.817-100.319,158.078-212.391,206.795-337.948c-35.718-20.924-69.834-39.824-102.755-60.618
	c-18.675-11.796-37.187-15.788-57.799-8.416c-12.182,4.357-24.878,8.235-35.873,14.793
	c-66.265,39.526-111.57,96.311-136.941,169.148C1538.638,1452.42,1534.155,1500.011,1557.011,1549.938z M1174.978,1563.201
	c-73.882,32.699-147.822,48.425-226.189,54.322c3.767,15.144,6.599,26.526,9.725,39.091c78.415-6.547,152.206-21.821,223.338-54.003
	C1179.64,1589.931,1177.736,1579.011,1174.978,1563.201z M1597.201,997.02c-9.159,82.891-33.52,157.228-68.043,230.845
	c14.439,3.265,25.213,5.702,37.601,8.503c35.165-73.005,58.008-147.559,68.67-227.807
	C1622.865,1004.769,1612.265,1001.569,1597.201,997.02z M1486.905,1365.573c-8.326-9.438-15.968-18.1-25.504-28.909
	c-49.969,66.445-107.359,120.751-175.744,167.525c10.711,10.147,19.108,18.101,27.98,26.506
	C1380.99,1484.16,1437.728,1430.367,1486.905,1365.573z M1543.364,651.266c32.478,71.229,49.982,143.296,57.214,220.797
	c14.302-4.374,25.424-7.775,37.875-11.582c-5.877-77.233-25.428-148.439-55.85-218.994
	C1568.908,644.9,1557.585,647.722,1543.364,651.266z M609.71,1581.777c66.663,33.603,132.94,58.322,205.45,67.688
	c4.84-13.293,8.84-24.28,13.957-38.335c-75.345-9.778-142.056-34.445-207.75-69.13
	C617.132,1556.451,613.769,1567.927,609.71,1581.777z M1328.369,402.852c64.375,41.425,114.191,91.954,161.143,153.544
	c5.701-8.666,8.752-13.533,12.037-18.236c3.566-5.104,7.35-10.054,11.667-15.925c-44.742-56.962-93.968-106.756-154.952-145.902
	C1348.206,385.256,1339.887,392.635,1328.369,402.852z M531.715,1479.316c-56.841-46.312-100.417-101.054-137.676-163.851
	c-10.269,11.42-17.195,19.122-23.655,26.306c23.847,50.127,92.695,134.765,132.289,162.329
	C511.217,1496.808,520.19,1489.151,531.715,1479.316z M1021.694,305.975c70.078,2.597,137.76,17.765,205.506,43.478
	c3.413-13.481,6.117-24.161,9.301-36.738c-67.214-25.488-134.436-40.533-204.692-41.939c-4.107,10.287-7.288,17.749-10.001,25.377
	C1021.057,298.266,1021.694,300.872,1021.694,305.975z M896.936,278.136c-71.3,13.29-137.308,32.295-200.248,65.182
	c1.626,11.443,3.057,21.514,4.956,34.876c65.969-34.078,133.457-53.503,204.535-66.54
	C902.743,299.195,900.203,289.983,896.936,278.136z M311.339,1001.953c-10.721,4.018-20.734,7.77-30.867,11.567
	c0.557,71.829,11.912,139.247,33.602,206.47c12.043-2.624,21.259-4.632,31.744-6.917c-8.036-36.211-17.072-69.884-22.666-104.119
	C317.536,1074.587,315.35,1039.659,311.339,1001.953z M323.714,890.236c12.222-72.987,35.79-139.384,68.689-205.154
	c-12.964-2.689-22.245-4.614-33.157-6.877c-32.103,64.003-55.138,129.43-67.537,201.12
	C302.1,882.867,311.585,886.101,323.714,890.236z M581.207,413.047c-58.586,44.385-108.078,93.796-151.242,151.25
	c8.022,9.265,14.128,16.317,22.026,25.44c44.616-59.519,94.895-109.692,153.843-153.479
	C596.808,427.75,589.828,421.172,581.207,413.047z M779.483,652.721c-6.401-34.236-11.896-63.622-17.82-95.306
	c22.443-6.841,42.983-13.103,65.903-20.089c6.939,32.715,13.267,62.549,20.193,95.203c37.553-10.684,73.13-20.806,111.674-31.771
	c-6.103-31.541-12.026-62.154-18.359-94.886c22.424-7.018,42.946-13.441,66.479-20.806c8.207,35.804,15.909,69.403,23.176,101.109
	c29.778,3.684,57.557,4.965,84.313,10.874c58.112,12.833,106.384,44.822,139.273,93.128
	c73.284,107.641,94.205,224.212,42.946,347.701c-24.222,58.354-61.671,107.291-116.543,141.1c-3.389,2.088-6.371,4.835-11.245,8.585
	c7.116,35.473,14.278,71.179,21.895,109.151c-22.634,10.275-45.737,15.376-71.143,19.225c-7.277-32.497-14.107-62.999-21.024-93.885
	c-40.774,13.465-79.099,26.122-120.315,39.733c5.085,28.315,10.194,56.764,15.881,88.428c-22.976,6.272-45.067,12.302-69.601,18.999
	c-6.58-30.752-12.624-58.995-19.223-89.834c-61.399,15.817-120.925,31.151-184.11,47.429c-5.842-30.86-11.328-59.836-17.141-90.541
	c14.163-4.176,25.816-7.227,37.208-11.053c23.331-7.836,31.355-17.252,28.12-41.794c-5.103-38.709-12.672-77.122-20.042-115.499
	c-15.812-82.329-32.244-164.539-48.262-246.829c-8.696-44.675-15.162-48.868-58.995-37.554c-6.827,1.762-13.84,2.802-22.781,4.576
	c-5.436-27.979-10.498-54.035-16.123-82.988C662.797,687.531,720.707,670.255,779.483,652.721z M848.164,736.86
	c0.904,10.386,0.83,17.651,2.248,24.612c23.879,117.247,47.857,234.474,72.087,351.649c2.722,13.165,7.107,25.986,10.734,39.015
	c11.483,0,20.233,2.136,27.356-0.364c33.647-11.806,67.782-22.9,99.95-38.054c32.874-15.487,53.466-44.204,68.413-77.044
	c17.395-38.22,21.707-78.507,18.009-119.54c-5.524-61.3-23.567-118.092-66.074-164.778c-30.512-33.511-68.181-51.561-113.484-43.779
	C927.602,715.416,888.627,727.065,848.164,736.86z M507.061,1025.173c2.042-0.042,4.084-0.084,6.127-0.126
	c1.609-6.425,3.217-12.851,5.611-22.412c4.212,7.005,6.426,10.688,8.641,14.371c1.276-0.086,2.552-0.172,3.828-0.259
	c0-11.25,0-22.501,0-36.199c-9.112,1.299-17.499,2.496-27.818,3.967C504.755,999.217,505.908,1012.195,507.061,1025.173z
	 M1457.361,752.465c-5.491,15.798-9.186,26.429-12.811,36.86c5.367,3.116,11.26,6.537,18.013,10.457
	C1472.934,783.949,1463.499,771.361,1457.361,752.465z"/>
</svg>
