<?xml version="1.0" encoding="iso-8859-1"?>
<!-- Generator: Adobe Illustrator 19.0.0, SVG Export Plug-In . SVG Version: 6.00 Build 0)  -->
<svg version="1.1" id="Layer_1" xmlns="http://www.w3.org/2000/svg" xmlns:xlink="http://www.w3.org/1999/xlink" x="0px" y="0px"
	 viewBox="0 0 500 500" style="enable-background:new 0 0 500 500;" xml:space="preserve">
<path id="XMLID_4_" d="M218.264,439.414c-4.419,11.234-8.936,21.382-12.373,31.884c-2.663,8.137-7.103,11.721-15.862,11.419
	c-14.865-0.513-29.761-0.141-46.296-0.141c4.129-11.643,7.75-21.855,11.744-33.115c-7.436,0.903-14.063,1.708-21.303,2.588
	c-4.393,9.902-8.809,19.858-13.249,29.866c-19.373,0-37.569,0-56.984,0c3.365-9.236,6.371-17.486,9.759-26.784
	c-18.755-1.276-37.117-2.525-57.298-3.898c37.691-92.608,74.726-183.603,111.989-275.161c7.148,0,13.504,0,19.861,0
	c20.941,0.002,41.881,0.004,62.822,0.005c2.564,0,5.133-0.113,7.692-0.001c12.063,0.526,16.35,6.157,12.325,17.386
	c-6.612,18.446-13.74,36.708-20.746,55.011c-14.62,38.197-29.304,76.37-43.953,114.557c-0.743,1.936-1.398,3.905-2.459,6.881
	c3.088,0.463,5.42,1.254,7.678,1.084c33.983-2.568,66.63-10.15,96.01-28.1c50.872-31.08,83.98-75.492,97.379-133.789
	c2.15-9.353,2.011-19.655,0.797-29.249c-1.478-11.689-7.485-21.642-17.477-28.732c-10.318-7.321-21.548-12.084-34.309-12.65
	c-6.827-0.303-13.665-0.502-20.499-0.504c-87.608-0.028-175.216,0.017-262.825-0.088c-4.858-0.006-10.398,1.923-14.775-3.55
	c12.362-21.648,24.804-43.458,37.271-65.254c4.809-8.407,12.438-10.763,21.657-10.732c44.445,0.15,88.89,0.064,133.335,0.062
	c5.926,0,11.852,0,18.109,0c5.381-13.65,10.508-26.655,16.104-40.852c16.426,0,32.982-0.088,49.534,0.127
	c1.796,0.023,3.569,1.797,5.744,2.969c-1.361,13.322-9.197,24.101-11.835,37.131c6.71,0,13.303,0,20.493,0
	c5.149-13.067,10.272-26.067,15.568-39.507c17.924,0,35.601,0,54.493,0c1.678,15.577-9.042,26.828-11.183,41.33
	c7.62,1.293,15.42,2.386,23.119,3.965c21.433,4.395,41.962,11.121,60.26,23.623c34.003,23.233,45.806,55.903,40.382,95.618
	c-4.577,33.512-18.711,63.548-34.722,92.887c-36.612,67.089-92.347,112.073-162.547,139.833
	c-20.916,8.271-42.855,13.954-64.321,20.834C224.557,437.271,221.76,438.243,218.264,439.414z"/>
</svg>
