<?xml version="1.0" encoding="iso-8859-1"?>
<!-- Generator: Adobe Illustrator 19.0.0, SVG Export Plug-In . SVG Version: 6.00 Build 0)  -->
<svg version="1.1" id="Layer_1" xmlns="http://www.w3.org/2000/svg" xmlns:xlink="http://www.w3.org/1999/xlink" x="0px" y="0px"
	 viewBox="0 0 500 500" style="enable-background:new 0 0 500 500;" xml:space="preserve">
<path id="XMLID_4_" d="M257.532,360.022c0-72.78,0-144.722,0-217.786c75.842,0,151.305,0,227.089,0c0,12.814,0,26.283,0,40.929
	c-61.356,0-122.286,0-183.706,0c0,46.101,0,91.019,0,136.228c47.004,0,93.077,0,139.77,0c0-15.549,0-30.593,0-46.662
	c-30.665,0-60.719,0-91.158,0c0-14.144,0-27.266,0-41.205c44.935,0,89.572,0,134.873,0c0,42.344,0,84.973,0,128.496
	C409.1,360.022,333.637,360.022,257.532,360.022z M16.448,359.967c75.751,0,150.86,0,225.811,0c0-72.967,0-145.119,0-216.931
	c-14.03,0-27.401,0-41.93,0c0,29.479,0,58.143,0,88.045c-62.044,0-122.924,0-183.881,0
	C16.448,274.895,16.448,317.436,16.448,359.967z M65.671,319.653c-2.175-0.016-6.118-3.424-6.198-5.376
	c-0.549-13.46-0.289-26.954-0.289-40.962c47.22,0,93.519,0,140.569,0c0,15.231,0,30.269,0,46.576
	C154.45,319.891,110.059,319.97,65.671,319.653z M18.43,216.068c55.725,0,111.502,0,167.217,0c0-24.637,0-48.55,0-71.847
	c-56.061,0-111.294,0-167.217,0C18.43,168.449,18.43,192.026,18.43,216.068z"/>
</svg>
