<?xml version="1.0" encoding="iso-8859-1"?>
<!-- Generator: Adobe Illustrator 19.0.0, SVG Export Plug-In . SVG Version: 6.00 Build 0)  -->
<svg version="1.1" id="Layer_1" xmlns="http://www.w3.org/2000/svg" xmlns:xlink="http://www.w3.org/1999/xlink" x="0px" y="0px"
	 viewBox="0 0 500 500" style="enable-background:new 0 0 500 500;" xml:space="preserve">
<path d="M6.043,250.02c0-65.124-0.015-130.248,0.019-195.372C6.066,46.51,5.731,38.31,6.58,30.247
	c2.106-20.01,6.66-24.244,26.838-24.885c14.235-0.452,28.495-0.1,42.743-0.1c60.048-0.001,120.107-0.714,180.142,0.156
	C366.746,7.02,465.08,88.612,488.887,200.227c31.203,146.288-84.134,292.104-244.371,292.547
	c-67.17,0.185-134.341-0.211-201.511-0.537c-32.126-0.156-35.332-2.988-35.485-34.6c-0.334-69.204-0.103-138.411-0.103-207.616
	C6.959,250.021,6.501,250.021,6.043,250.02z M465.984,255.429c2.927-79.367-29.108-137.808-88.185-183.591
	c-61.476,24.952-121.574,49.344-182.822,74.203c21.1,50.485,41.111,98.362,62.002,148.345
	C328.205,281.11,396.969,268.292,465.984,255.429z M31.463,416.988c1.659,0.185,3.318,0.37,4.977,0.554
	c41.289-92.106,82.578-184.212,123.978-276.566C116.308,106.389,75.31,74.243,31.463,39.862
	C31.463,169.278,31.463,293.133,31.463,416.988z M461.264,280.66c-63.803,15.592-129.529,20.487-194.271,38.877
	c19.512,46.413,37.66,89.579,55.599,132.251C398.008,430.723,464.234,340.988,461.264,280.66z M176.312,165.261
	c-42.615,94.307-82.421,182.401-122.228,270.495c1.353,0.638,2.705,1.277,4.058,1.915c57.966-43.797,115.933-87.594,176.386-133.27
	C215.763,259.55,197.394,215.647,176.312,165.261z M301.158,463.479c-20.472-48.503-38.36-90.884-57.25-135.64
	c-60.635,45.297-118.556,88.567-181.569,135.64C145.318,463.479,220.999,463.479,301.158,463.479z M179.722,125.578
	c56.311-22.593,111.869-44.883,169.682-68.079c-6.389-4.107-10.206-7.526-14.677-9.279c-30.259-11.864-61.185-19.314-94.228-18.767
	c-58.626,0.971-117.281,0.273-182.181,0.273C101.228,63.605,139.144,93.54,179.722,125.578z"/>
</svg>
