<?xml version="1.0" encoding="iso-8859-1"?>
<!-- Generator: Adobe Illustrator 19.0.0, SVG Export Plug-In . SVG Version: 6.00 Build 0)  -->
<svg version="1.1" id="Layer_1" xmlns="http://www.w3.org/2000/svg" xmlns:xlink="http://www.w3.org/1999/xlink" x="0px" y="0px"
	 viewBox="0 0 500 500" enable-background="new 0 0 500 500" xml:space="preserve">
<path d="M251.206,251.763c9.553,0.375,17.006,4.88,24.43,9.07c32.867,18.553,65.653,37.247,98.452,55.921
	c23.407,13.327,46.844,26.604,70.132,40.135c5.024,2.919,9.907,6.384,14.059,10.417c4.41,4.283,4.005,7.576-0.86,11.211
	c-5.025,3.754-10.433,7.028-15.836,10.238c-54.1,32.141-108.211,64.265-162.373,96.301c-17.168,10.155-33.218,10.776-51.619-0.209
	c-55.155-32.926-111.349-64.11-167.082-96.072c-4.637-2.659-9.29-5.587-13.156-9.22c-5.379-5.055-4.994-10.181,0.775-14.812
	c3.841-3.083,8.177-5.604,12.473-8.058c53.062-30.308,106.161-60.549,159.236-90.835c4.663-2.661,9.008-5.988,13.882-8.145
	C239.327,255.225,245.358,253.702,251.206,251.763z M253.145,345.941c-13.152-0.718-25.262,2.375-35.692,10.187
	c-13.415,10.047-13.101,25.409,0.616,34.829c19.911,13.673,48.243,13.468,67.464,0.372c14.735-10.039,14.481-26.851-0.522-36.527
	C275.39,348.597,264.694,345.255,253.145,345.941z M476.011,237.514c0,28.058,0.003,56.116-0.004,84.175
	c-0.001,3.167,0.261,6.378-0.156,9.493c-1.295,9.668-6.438,13.543-16.067,11.445c-4.248-0.926-8.351-3.121-12.163-5.349
	c-52.771-30.848-105.139-62.404-158.368-92.438c-21.62-12.198-30.026-29.613-29.972-53.092
	c0.121-52.948-0.004-105.897,0.108-158.845c0.01-4.91,0.46-9.953,1.644-14.7c3.017-12.1,10.473-15.292,21.067-9.171
	c56.035,32.378,112.005,64.87,168.042,97.246c17.654,10.2,25.97,25.469,25.897,45.703
	C475.934,180.492,476.011,209.003,476.011,237.514z M332.046,223.777c0.434-16.621-18.167-42.518-34.582-47.49
	c-14.129-4.28-25.766,3.659-24.832,18.273c1.116,17.469,18.665,40.932,34.815,46.548
	C321.084,245.85,331.995,238.162,332.046,223.777z M462.425,156.799c0.259-18.892-16.479-41.628-35.384-48.063
	c-12.92-4.398-25.579,4.658-23.739,18.094c2.768,20.22,13.338,36.034,31.679,45.414
	C449.392,179.614,462.218,171.929,462.425,156.799z M27.833,239.07c0-27.582,0.071-55.165-0.022-82.747
	c-0.077-23.006,8.713-39.964,29.619-51.788C112.54,73.367,166.985,41.024,221.712,9.178c10.481-6.099,17.904-3.263,21.582,8.503
	c1.183,3.784,1.754,7.913,1.762,11.886c0.111,55.616,0.161,111.233,0.031,166.849c-0.049,21.037-9.103,36.881-27.562,47.679
	c-53.504,31.298-106.805,62.941-160.218,94.395c-3.055,1.799-6.324,3.287-9.611,4.633c-10.434,4.275-16.57,1.438-19.164-9.175
	c-0.842-3.443-0.666-7.175-0.672-10.775C27.812,295.139,27.833,267.104,27.833,239.07z M228.928,57.95
	c2.642-15.579-10.858-28.156-28.927-18.948c-15.605,7.952-25.472,21.1-30.386,37.577c-1.603,5.375-1.153,11.766-0.152,17.428
	c1.987,11.235,15.488,15.814,28.421,10.666C213.4,98.497,230.944,74.509,228.928,57.95z M43.679,287.818
	c-1.39,19.433,12.541,25.215,24.004,21.375c22.726-7.614,37.201-34.117,36.388-50.307c-0.996-19.832-14.989-22.713-27.666-18.017
	C57.053,248.037,42.742,271.418,43.679,287.818z M166.36,159.16c1.503-14.791-9.036-25.164-26.54-19.47
	c-17.876,5.815-37.138,30.215-33.225,54.472c1.845,11.437,11.516,17.551,22.69,14.435
	C148.825,203.148,168.148,177.075,166.36,159.16z"/>
</svg>
