<?xml version="1.0" encoding="iso-8859-1"?>
<!-- Generator: Adobe Illustrator 19.0.0, SVG Export Plug-In . SVG Version: 6.00 Build 0)  -->
<svg version="1.1" id="Layer_1" xmlns="http://www.w3.org/2000/svg" xmlns:xlink="http://www.w3.org/1999/xlink" x="0px" y="0px"
	 viewBox="0 0 500 500" enable-background="new 0 0 500 500" xml:space="preserve">
<path d="M494.6,249.789c0.334,135.452-110.53,246.273-246.695,245.425C113.171,494.375,2.811,383.458,4.385,246.544
	C5.927,112.431,115.834,2.867,251.427,3.858C385.642,4.84,495.154,114.765,494.6,249.789z M10.508,249.41
	c0.002,131.63,105.908,238.978,237.741,239.641c132.718,0.668,239.034-106.297,240.289-237.075
	c1.279-133.328-105.8-241.619-238.129-241.947C117.763,9.699,10.508,116.993,10.508,249.41z M471.095,249.638
	c0,122.879-99.255,222.216-222.215,221.952C125.164,471.323,25.86,369.656,27.955,245.606c2.024-119.8,99.498-218.369,222.499-218.2
	C372.105,27.574,471.095,127.209,471.095,249.638z M157.361,301.501l-0.094-0.096c0,8.497,0,16.995,0,25.655
	c-8.89,0-17.24,0-25.982,0c0,8.646,0,17.131,0,25.9c-8.808,0-17.227,0-25.621,0c0,8.792,0,17.286,0,25.721
	c8.704,0,17.206,0,26.019,0c0-8.582,0-16.983,0-25.343c8.633,0,16.949,0,25.595,0c0,8.585,0,16.98,0,25.529c1.409,0,2.49,0,3.571,0
	c32.013,0,64.027,0.002,96.04-0.001c15.363-0.002,30.461-1.998,45.132-6.583c36.164-11.301,63.437-33.249,79.689-67.849
	c11.375-24.218,14.202-49.781,10.281-76.123c-3.889-26.129-14.822-48.939-33.356-67.809c-26.278-26.755-58.998-39.105-95.864-40.049
	c-34.446-0.881-68.932-0.234-103.4-0.249c-0.692,0-1.383,0.124-2.009,0.185c0,8.645,0,17.069,0,25.805c8.575,0,16.984,0,25.469,0
	c0,8.709,0,17.101,0,25.84c-17.225,0-34.254,0-51.245,0c0,8.835,0,17.318,0,26.046c8.591,0,16.93,0,25.429,0
	c0,8.561,0,16.872,0,25.499c-17.227,0-34.283,0-51.366,0c0,8.81,0,17.303,0,25.952c1.72,0,3.255-0.003,4.789,0.001
	c15.641,0.041,31.281,0.083,46.922,0.125l-0.094-0.096c0,8.495,0,16.99,0,25.759c-8.844,0-17.237,0-25.703,0
	c0,8.826,0,17.371,0,26.181C140.319,301.501,148.84,301.501,157.361,301.501z M209.259,198.067c0,8.635,0,16.947,0,25.559
	c8.596,0,17.013,0,25.729,0c0,34.721,0,69.143,0,103.823c12.819-0.173,25.372,0.795,37.788-1.537
	c23.438-4.401,41.591-16.356,52.587-37.901c8.836-17.312,10.588-35.837,7.066-54.692c-5.499-29.446-22.444-49.194-51.355-58.145
	c-14.883-4.608-30.218-3.512-45.464-3.451c-0.148,0.001-0.296,0.177-0.668,0.415c0,8.38,0,16.902,0,25.928
	C226.133,198.067,217.727,198.067,209.259,198.067z M157.267,249.56c8.508-0.002,17.016-0.002,25.622-0.002
	c0-8.819,0-17.137,0-25.602c-8.535,0-16.929,0-25.528,0c0,8.664,0,17.183,0,25.701C157.361,249.658,157.268,249.562,157.267,249.56z
	 M157.267,301.403c8.504-0.002,17.009-0.002,25.575-0.002c0-8.887,0-17.281,0-25.684c-8.575,0-16.961,0-25.48,0
	c0,8.735,0,17.259,0,25.783C157.361,301.501,157.268,301.405,157.267,301.403z M183.412,326.797c8.51,0,16.887,0,25.226,0
	c0-8.551,0-16.873,0-25.308c-8.431,0-16.675,0-25.226,0C183.412,310.051,183.412,318.383,183.412,326.797z"/>
</svg>
