<?xml version="1.0" encoding="iso-8859-1"?>
<!-- Generator: Adobe Illustrator 19.0.0, SVG Export Plug-In . SVG Version: 6.00 Build 0)  -->
<svg version="1.1" id="Layer_1" xmlns="http://www.w3.org/2000/svg" xmlns:xlink="http://www.w3.org/1999/xlink" x="0px" y="0px"
	 viewBox="0 0 500 500" enable-background="new 0 0 500 500" xml:space="preserve">
<path d="M4.004,249.661C3.84,113.476,111.869,12.562,230.839,4.609C385.549-5.734,493.223,117.437,495.272,243.123
	C497.61,386.545,385.973,492.2,255.634,495.28C114.349,498.619,3.239,384.264,4.004,249.661z M477.755,250.696
	c1.311-127.599-101.386-227.508-222.809-229.823C122.104,18.341,22.662,123.347,20.832,244.895
	c-1.996,132.552,101.863,227.105,216.131,232.974C376.367,485.028,479.837,369.957,477.755,250.696z M287.963,65.074
	c-25.691-5.084-50.848-5.856-76.045,0.186c0,20.342,0,39.235,0,58.127c0,19.183,0,38.366,0,57.362
	c-60.75,40.807-46.019,109.901,0.427,137.001c0,38.657,0,77.798,0,117.352c13.018,1.223,25.266,3.313,37.506,3.26
	c12.434-0.054,24.859-2.224,37.956-3.534c0-40.032,0-78.876,0-117.181c55.551-36.482,48.282-106.543,0.156-135.459
	C287.963,143.546,287.963,104.622,287.963,65.074z M327.306,79.367c0,28.645,0,57.243,0,85.968
	c19.558,17.159,30.036,39.498,35.89,63.975c24.908,0,49.045,0,73.642,0C428.445,149.274,369.575,93.367,327.306,79.367z
	 M436.174,269.27c-24.226,0-48.428,0-73.112,0c-5.08,25.852-17.502,47.648-35.826,65.397c0,28.866,0,56.918,0,85.77
	C386.831,396.527,433.46,329.652,436.174,269.27z M171.502,333.606c-19.549-17.341-30.092-39.481-35.85-64.446
	c-24.407,0-48.231,0-72.053,0c-0.836,47.596,38.256,121.724,107.903,151.661C171.502,391.249,171.502,362.413,171.502,333.606z
	 M61.809,229.266c25.135,0,49.502,0,74.345,0c5.004-25.894,17.696-47.188,35.304-64.852c0-28.812,0-56.789,0-86.873
	C107.783,110.267,71.578,159.906,61.809,229.266z"/>
</svg>
