<?xml version="1.0" encoding="utf-8"?>
<!-- Generator: Adobe Illustrator 24.2.0, SVG Export Plug-In . SVG Version: 6.00 Build 0)  -->
<svg version="1.1" id="Layer_1" xmlns="http://www.w3.org/2000/svg" xmlns:xlink="http://www.w3.org/1999/xlink" x="0px" y="0px"
	 viewBox="0 0 500 500" style="enable-background:new 0 0 500 500;" xml:space="preserve">
<path d="M250.3,3.2C113.8,3.2,3.1,113.9,3.1,250.4s110.7,247.2,247.2,247.2s247.2-110.7,247.2-247.2S386.8,3.2,250.3,3.2z
	 M374.2,252.5c0.1,73.3-49.5,114.9-116,114.9h-91.1V242.5h55.3v69.2h35.8c33.5,0,57.6-30.4,57.6-59.2v-1.1
	c0-32.3-27.6-60.8-57.6-60.8h-55.3c-41.4,0-53.8-25.2-69.2-54h124.5c76.1,0,116,48.4,116,114.8V252.5z"/>
</svg>
