<?xml version="1.0" encoding="iso-8859-1"?>
<!-- Generator: Adobe Illustrator 19.0.0, SVG Export Plug-In . SVG Version: 6.00 Build 0)  -->
<svg version="1.1" id="Layer_1" xmlns="http://www.w3.org/2000/svg" xmlns:xlink="http://www.w3.org/1999/xlink" x="0px" y="0px"
	 viewBox="0 0 500 500" enable-background="new 0 0 500 500" xml:space="preserve">
<path d="M3.094,7C32.763,23.634,62.51,32.211,93.85,35.318c7.58,0.751,15.225,1.169,22.842,1.187
	c52.377,0.127,104.77-0.696,157.126,0.347c59.842,1.191,113.886,19.149,156.651,62.808c50.144,51.192,69.081,114.149,64.065,184.486
	c-4.511,63.242-29.575,117.159-78.713,158.407c-35.668,29.941-77.643,45.06-123.767,48.012c-24.984,1.599-50.107,1.34-75.167,1.323
	c-26.648-0.019-37.349-10.221-37.529-36.829c-0.435-64.013-0.245-128.031-0.307-192.047c-0.005-4.701-0.001-9.401-0.001-14.815
	c-72.415-6.473-110.734-49.292-127.48-119.332c28.628,27,61.649,30.537,96.117,30.1c39.218-0.496,78.447-0.115,119.001-0.115
	c0,81.609,0,162.463,0,244.376c33.77,1.706,62.939-7.226,88.523-26.897c44.698-34.367,63.464-94.845,47.865-151.958
	c-15.051-55.105-57.486-92.488-116.179-98.068c-33.902-3.223-68.268-1.575-102.426-2.097c-22.896-0.349-46.298,2.277-68.59-1.56
	C58.785,112.822,23.795,76.793,6.866,22.256C5.594,18.158,4.788,13.915,3.094,7z"/>
</svg>
