<?xml version="1.0" encoding="iso-8859-1"?>
<!-- Generator: Adobe Illustrator 19.0.0, SVG Export Plug-In . SVG Version: 6.00 Build 0)  -->
<svg version="1.1" id="Layer_1" xmlns="http://www.w3.org/2000/svg" xmlns:xlink="http://www.w3.org/1999/xlink" x="0px" y="0px"
	 viewBox="0 0 2000 2000" style="enable-background:new 0 0 2000 2000;" xml:space="preserve">
<path d="M1651.972,508.411c24.06-14.407,45.157-23.595,61.791-37.953c17.173-14.823,38.183-8.049,54.288-16.491
	c53.482,14.982,86.643,47.641,101.68,100.374c7.795,27.336,5.202,56.385-16.559,73.061c-28.893,22.142-59.787,41.674-90.346,62.688
	C1724.789,627.752,1688.861,568.869,1651.972,508.411z M1768.888,1103.201c0-67.866,0-135.948,0-203.518
	c-104.56-14.82-143.237,8.617-169.954,101.961C1609.397,1087.317,1676.98,1127.591,1768.888,1103.201z M1105.223,1703.241
	c-1.003-44.456-22.949-76.108-62.867-93.494c-44.873-19.544-90.927-5.178-116.824,22.513
	c-37.168,39.743-38.435,85.372-32.121,135.883c70.745,0,138.999,0,211.889,0C1105.299,1743.262,1105.674,1723.242,1105.223,1703.241
	z M1105.655,108.868c-6.911-43.947-35.471-70.134-76.953-83.346c-38.392-12.228-70.087,1.076-98.73,25.853
	c-43.692,37.796-34.002,86.712-30.127,137.102c70.243,0,138.262,0,209.851,0C1108.417,159.634,1109.583,133.85,1105.655,108.868z
	 M655.437,496.713c43.456-2.735,77.766-24.072,91.57-66.333c18.22-55.781-3.956-102.339-41.659-145.603
	c-60.952,35.363-120.527,69.928-181.298,105.186C556.061,442.774,580.753,501.413,655.437,496.713z M462.67,1721.889
	c-15.461,39.232-9.783,76.398,21.164,106.548c30.035,29.26,62.878,45.123,107.955,30.104
	c51.371-17.116,69.182-58.636,91.795-103.159c-61.956-35.739-121.055-69.83-184.135-106.217
	C485.415,1676.534,471.934,1698.381,462.67,1721.889z M1720.771,1294.211c-25.291-13.888-45.748-26.889-67.615-36.764
	c-46.262-20.892-104.036-3.142-131.401,41.622c-23.663,38.71-25.364,88.739,13.598,125.948
	c21.298,20.339,48.005,35.014,77.579,56.01C1651.099,1414.906,1685.525,1355.269,1720.771,1294.211z M1496.973,351.009
	c51.868-63.321,62.875-108.567,38.876-153.78c-22.503-42.392-59.766-62.648-114.94-54.555
	c-59.531,8.732-79.678,57.133-102.026,105.481C1380.325,283.64,1438.911,317.476,1496.973,351.009z M1881.41,1109.667
	c45.682-3.95,86.549-34.924,97.314-73.448c12.25-43.842,2.596-83.687-31.774-113.168c-37.696-32.333-83.413-31.103-130.169-23.593
	c0,69.999,0,137.297,0,210.497C1841.562,1109.954,1861.621,1111.378,1881.41,1109.667z M135.575,1435.104
	c-1.655,45.022,24.566,84.207,71.072,102.027c58.379,22.37,96.613-12.707,140.843-41.716
	c-35.115-60.774-68.017-117.717-103.267-178.724C186.477,1341.089,138.064,1367.4,135.575,1435.104z M1812.53,1531.05
	c38.619-22.169,56.159-58.07,53.193-100.935c-4.515-65.227-56.248-86.53-109.329-110.699
	c-34.626,59.952-68.082,117.878-103.426,179.072C1706.004,1536.081,1753.514,1564.927,1812.53,1531.05z M740.032,1660.459
	c25.69-50.25,8.701-111.537-37.967-139.45c-49.024-29.322-111.586-15.31-143.89,32.994c-11.816,17.668-21.819,36.547-32.466,54.565
	c4.195,4.671,6.489,8.836,10.013,10.909c55.472,32.621,111.102,64.973,170.8,99.779
	C718.952,1697.567,730.328,1679.44,740.032,1660.459z M1412.287,1526.223c-36.561-26.977-75.902-24.389-112.562-4.608
	c-41.183,22.222-59.554,66.153-47.354,113.729c7.465,29.111,24.333,55.812,38.417,86.755
	c65.368-38.066,126.176-73.477,186.767-108.761c-16.911-28.047-31.576-52.368-46.272-76.741
	C1424.674,1533.043,1417.926,1530.384,1412.287,1526.223z M493.993,660.598c5.753-60.105-20.8-93.83-107.305-132.282
	c-34.919,59.123-70.162,118.793-105.772,179.084c18.849,11.562,33.993,22.62,50.627,30.557c16.637,7.939,34.763,12.757,53.188,19.28
	C460.734,737.13,489.13,711.409,493.993,660.598z M627.228,160.161c-34.149-25.927-72.768-28.015-110.039-11.396
	c-40.22,17.934-67.185,66.468-60.649,105.463c6.187,36.909,25.618,68.034,49.544,96.984
	c59.821-34.763,116.644-67.784,178.855-103.936C670.271,212.147,655.566,181.677,627.228,160.161z M282.737,466.877
	c-37.198-16.042-90.633-4.82-116.238,22.269c-32.874,34.78-40.713,82.213-18.155,123.67c20.473,37.624,57.426,53.883,96.709,70.442
	c30.184-52.047,59.739-102.821,89.039-153.742c4.197-7.294,7.164-15.296,12.92-27.787
	C322.815,488.443,303.554,475.855,282.737,466.877z M333.743,1386.087c16.942,29.267,34.375,58.249,51.355,86.956
	c60.131-24.014,106.781-51.544,108.013-119.921c0.861-47.783-22.741-80.022-64.27-97.465
	c-56.935-23.914-101.728,4.482-146.435,39.954C300.06,1326.772,316.657,1356.571,333.743,1386.087z M1354.314,1822.894
	c35.75,45.886,94.756,55.134,142.055,24.574c46.701-30.174,60.861-87.747,33.744-139.912c-9.151-17.604-19.962-34.346-31.874-54.653
	c-61.253,35.203-120.275,69.124-182.715,105.009C1329.571,1781.81,1339.682,1804.113,1354.314,1822.894z M118.165,895.995
	c-54.932,3.355-95.069,42.023-99.629,94.679c-4.764,55.018,29.379,102.818,84.657,112.31c25.918,4.45,53.233,0.762,81.4,0.762
	c0-70.573,0-137.287,0-207.959C160.395,895.785,139.208,894.709,118.165,895.995z M1258.666,349.471
	c-21.147,48.292-5.918,97.751,37.513,129.387c37.978,27.664,91.069,26.463,127.675-6.186c24.486-21.839,41.498-49.774,50.057-85.235
	c-58.456-33.916-115.441-66.979-177.695-103.099C1281.276,309.906,1267.753,328.718,1258.666,349.471z M896.833,1897.427
	c7.076,63.506,89.617,109.316,156.802,68.791c49.395-29.794,63.455-81.433,45.348-150.994c-66.917,0-133.875,0-207.25,0
	C893.448,1844.171,893.882,1870.939,896.833,1897.427z M302.125,1104.853c41.412,2.862,88.217-41.335,94.243-84.441
	c7.33-52.433-13.91-95.192-60.356-116.186c-33.11-14.966-66.823-7.578-102.887-7.64c0,69.828,0,136.597,0,207.991
	C257.078,1104.577,279.699,1103.303,302.125,1104.853z M1614.69,532.779c-64.597,27.701-112.893,62.736-102.605,138.267
	c7.063,51.853,43.17,74.379,90.206,85.739c44.902,0.174,81.14-22.214,117.594-47.507
	C1680.9,651.025,1655.395,585.628,1614.69,532.779z M947.531,387.022c39.435,24.092,80.816,21.484,117.233-4.323
	c50.751-35.965,47.638-89.149,39.952-144.928c-69.189,0-135.893,0-204.648,0C893.325,295.923,889.412,351.516,947.531,387.022z
	 M725.505,1145.925c39.965,0,77.219,3.07,113.745-0.777c45.723-4.815,75.533-34.847,89.08-77.177
	c7.711-24.093,11.185-51.258,9.136-76.435c-6.088-74.797-39.445-112.353-114.177-121.385c-30.981-3.744-62.792-0.621-97.784-0.621
	C725.505,964.901,725.505,1054.586,725.505,1145.925z M761.589,1108.999c0-69.481,0-137.929,0-206.192
	c49.494-13.466,97.608-2.526,118.698,33.526c30.485,52.113,21.03,104.617-7.776,152.642
	C837.856,1114.529,801.635,1115.202,761.589,1108.999z M1184.969,1035.974c24.465,41.28,45.351,76.522,67.677,114.193
	c12.236-2.235,23.552-4.302,39.016-7.128c-28.703-49.017-54.6-93.24-80.113-136.808c25.972-44.15,51.158-86.963,78.768-133.897
	c-16.531,0-28.377,0-41.507,0c-19.91,33.4-39.606,66.44-61.699,103.502c-22.869-37.247-43.626-71.052-64.763-105.479
	c-11.477,0-21.389-0.252-31.267,0.209c-2.018,0.094-3.911,2.867-8.004,6.095c25.429,43.397,50.519,86.215,76.057,129.796
	c-27.143,46.222-53.494,91.096-82.095,139.801c16.4,1.313,27.3,2.186,39.374,3.153
	C1138.798,1112.373,1160.545,1076.388,1184.969,1035.974z M994.941,1144.636c11.894,0,21.097,0,30.939,0
	c0-92.608,0-182.517,0-273.657c-11.058,0-19.377,0-30.939,0C994.941,964.659,994.941,1054.599,994.941,1144.636z"/>
</svg>
