<?xml version="1.0" encoding="iso-8859-1"?>
<!-- Generator: Adobe Illustrator 19.0.0, SVG Export Plug-In . SVG Version: 6.00 Build 0)  -->
<svg version="1.1" id="Layer_1" xmlns="http://www.w3.org/2000/svg" xmlns:xlink="http://www.w3.org/1999/xlink" x="0px" y="0px"
	 viewBox="0 0 2000 2000" style="enable-background:new 0 0 2000 2000;" xml:space="preserve">
<path d="M798.287,1984.757c-60.562-22.608-113.156-42.241-167.532-62.54c-73.02-177.932-146.619-357.277-221.782-540.431
	c145.384-122.472,288.994-243.45,439.346-370.107c63.656,29.391,137.45,40.299,187.237,109.362
	c101.327,140.557,209.296,276.326,319.572,420.67C1167.644,1690.881,982.469,1838.214,798.287,1984.757z M1421.188,1045.319
	c94.496-114.869,185.641-225.666,271.871-330.486c0-44.137,0-80.984,0-116.191c-110.523-80.097-217.897-157.913-324.896-235.457
	c-110.096,80.404-219.741,160.478-329.483,240.623c-3.976,38.06-7.933,75.938-12.024,115.095
	C1160.037,829.256,1289.578,936.432,1421.188,1045.319z M426.661,455.558c-28.781,16.111-52.57,29.429-75.393,42.205
	c-14.663,128.105-29.023,253.574-43.316,378.447c79.145,7.22,149.854,17.366,220.76,18.996
	c59.23,1.362,125.375,30.87,181.601-42.926c0-87.89,0-189.323,0-299.685C617.764,520.934,520.333,487.603,426.661,455.558z
	 M857.581,354.546c25.761,32.642,58.75,50.398,97.269,55.077c59.729-54.829,117.672-108.019,178.491-163.848
	c-26.715-56.994-54.415-114.617-80.818-172.829c-26.783-59.049-33.68-64.09-99.859-61.935
	C878.732,68.349,802.928,127.14,723.886,188.44C770.099,245.745,814.338,299.752,857.581,354.546z"/>
</svg>
