<?xml version="1.0" encoding="iso-8859-1"?>
<!-- Generator: Adobe Illustrator 19.0.0, SVG Export Plug-In . SVG Version: 6.00 Build 0)  -->
<svg version="1.1" id="Layer_1" xmlns="http://www.w3.org/2000/svg" xmlns:xlink="http://www.w3.org/1999/xlink" x="0px" y="0px"
	 viewBox="0 0 500 500" enable-background="new 0 0 500 500" xml:space="preserve">
<path d="M79.835,461.586c3.474,0.995,279.214-0.273,282.729-0.273c2.556,5.864,4.404,10.107,6.254,14.35
	c0.22-0.069,0.441-0.137,0.661-0.206c2.407,5.899,4.815,11.797,7.654,18.753c-116.296,0-230.506,0-347.082,0
	C37.32,477.589,248.524,4,248.524,4l221.571,490.218l-34.142-0.376c0,0-170.915-374.605-184.639-405.294
	c-0.577-0.05-2.34-0.204-3.125-0.272C229.564,130.223,86.834,445.981,79.835,461.586z"/>
</svg>
