<?xml version="1.0" encoding="utf-8"?>
<!-- Generator: Adobe Illustrator 25.1.0, SVG Export Plug-In . SVG Version: 6.00 Build 0)  -->
<svg version="1.1" id="Layer_1" xmlns="http://www.w3.org/2000/svg" xmlns:xlink="http://www.w3.org/1999/xlink" x="0px" y="0px"
	 viewBox="0 0 2500 2500" style="enable-background:new 0 0 2500 2500;" xml:space="preserve">
<path d="M2248.1,18.5H251.9C123,18.5,18.5,123,18.5,251.9v1996.2c0,128.9,104.5,233.4,233.4,233.4h1996.2
	c128.9,0,233.4-104.5,233.4-233.4V251.9C2481.5,123,2377,18.5,2248.1,18.5z M1869,1721.3c-5.4,19-22.8,32.2-42.6,32.1h-6.5
	c-26.4,0-50.5-15.3-61.7-39.2L1269.4,674.7c-4.4-9.5-15.7-13.7-25.2-9.3c-4,1.9-7.3,5.1-9.2,9.1l-473.6,987.4h786.2
	c22.8,0,43.4,13.6,52.3,34.5l0.8,1.9c5.9,13.7,5,29.5-2.4,42.4c-13.3,23.2-38.1,37.6-64.9,37.6H698c-12.9,0-25.5-3.8-36.2-11
	l-4.4-2.9c-18.2-12.1-29-32.5-29-54.3c0-9.9,2.2-19.6,6.5-28.5l558.8-1149.9c5.8-12,14.1-22.6,24.4-31.2c20-16.7,49-17,69.3-0.7
	c4.4,3.5,8,7.9,10.5,13l566.7,1157.8C1872.2,1686.4,1873.8,1704.5,1869,1721.3z"/>
</svg>
