<?xml version="1.0" encoding="iso-8859-1"?>
<!-- Generator: Adobe Illustrator 19.0.0, SVG Export Plug-In . SVG Version: 6.00 Build 0)  -->
<svg version="1.1" id="Layer_1" xmlns="http://www.w3.org/2000/svg" xmlns:xlink="http://www.w3.org/1999/xlink" x="0px" y="0px"
	 viewBox="0 0 2000 2000" style="enable-background:new 0 0 2000 2000;" xml:space="preserve">
<path d="M1068.753,1262.767c50.369-2.225,97.25-4.296,145.505-6.427c22.723-73.337,45.13-145.605,67.502-217.883
	c7.231-23.36,15.537-46.463,21.345-70.175c21.439-87.528,91.257-115.959,171.634-143.145
	c-45.648,148.714-89.443,291.392-133.666,435.463c7.434,0.793,12.172,1.742,16.909,1.739c102.838-0.056,205.702,1.012,308.5-1.101
	c31.293-0.643,64.255-5.307,93.239-16.471c73.723-28.395,111.219-87.865,123.316-163.669c6.471-40.55-11.385-71.349-50.062-93.176
	c69.757-36.598,117.714-88.423,132.984-166.097c54.453,385.544-57.409,711.284-368.123,950.496
	c-305.842,235.462-645.108,260.997-1003.115,118.569c96.369-336.358,191.66-668.951,286.951-1001.545
	c1.379-0.138,2.758-0.275,4.137-0.413c16.141,83.568,32.281,167.135,48.737,252.336c11.685,0,22.758,0,37.574,0
	c66.375-80.331,134.77-163.109,203.166-245.887c1.238,0.677,2.476,1.353,3.714,2.03
	C1142.614,1017.988,1106.23,1138.566,1068.753,1262.767z M63.79,1259.898c0.423-2.384,0.625-4.832,1.3-7.143
	c45.215-154.792,90.444-309.58,135.74-464.348c7.707-26.335,15.713-52.583,23.656-79.121c106.974,0,211.384-0.441,315.784,0.429
	c17.648,0.147,35.68,4.449,52.793,9.395c62.301,18.006,100.67,73.589,89.461,136.012
	c-20.651,115.013-46.699,228.724-106.459,332.115c36.885-15.511,66.223-36.629,77.972-79.2
	c24.911-90.261,52.52-179.779,79.089-269.582c12.637-42.714,25.426-85.383,38.31-128.621c53.371,0,103.91-0.259,154.445,0.067
	c59.46,0.384,85.726,23.104,96.493,81.653c6.033,32.806,12.951,65.449,20.392,102.794c32.555-41.015,61.815-77.066,90.146-113.833
	c22.247-28.871,45.642-55.663,82.141-62.575c29.806-47.171,184.318-540.496,192.749-613.547c-1.143-1.101-2.141-2.497-3.499-3.201
	c-3.616-1.873-7.313-3.64-11.107-5.115c-242.3-94.182-486.076-107.382-733.001-16.773
	C193.876,250.42-73.037,760.063,53.408,1240.657c1.766,6.713,7.241,12.449,10.985,18.641L63.79,1259.898z M1545.96,181.75
	c-71.003,230.165-140.987,457.024-211.908,686.921c4.834-2.418,5.812-2.589,6.229-3.165c3.816-5.28,7.316-10.8,11.315-15.934
	c66.349-85.178,149.548-140.734,260.893-141.532c80.66-0.578,161.359,2.481,242.019,4.721c38.99,1.083,74.487,10.778,96.523,48.403
	C1889.631,517.782,1754.753,326.321,1545.96,181.75z M64.332,1259.359c1.47,11.8,1.263,24.093,4.795,35.196
	c48.047,151.078,127.979,283.24,240.57,394.635c41.832,41.388,88.633,77.754,136.343,119.165
	c64.002-216.204,125.804-424.975,188.874-638.031c-14.142,15.592-24.082,28.575-36.015,39.349
	c-45.148,40.762-101.433,51.041-159.054,52.03c-116.604,2.001-233.255,1.356-349.887,1.527c-8.721,0.013-17.445-2.171-26.167-3.333
	C63.79,1259.898,64.393,1259.299,64.332,1259.359z M259.785,1149.249c42.35,0,81.428-0.74,120.466,0.209
	c38.458,0.935,64.07-16.108,76.776-51.831c17.451-49.064,34.74-98.212,50.653-147.788c8.429-26.261,16.131-53.176,19.957-80.387
	c4.657-33.116-15.207-58.271-43.446-58.77c-41.549-0.735-83.121-0.19-127.097-0.19
	C324.504,923.943,292.465,1035.479,259.785,1149.249z M1641.614,1162.354c41.41-2.346,70.035-25.09,84.571-63.636
	c12.777-33.88-0.693-57.712-36.872-60.442c-38.726-2.923-77.843-0.659-116.983-0.659c-12.368,41.396-24.439,81.796-37.387,125.131
	C1573.302,1162.747,1607.556,1164.283,1641.614,1162.354z M1700.261,936.547c6.48-0.041,13.01-0.857,19.418-1.915
	c39.041-6.444,73.879-40.453,78.876-76.781c3.005-21.851-9.254-43.044-28.84-43.731c-42.872-1.504-85.834-0.466-128.66-0.466
	c-12.822,41.993-24.635,80.684-37.549,122.981C1638.408,936.636,1669.336,936.745,1700.261,936.547z"/>
</svg>
