<?xml version="1.0" encoding="iso-8859-1"?>
<!-- Generator: Adobe Illustrator 19.0.0, SVG Export Plug-In . SVG Version: 6.00 Build 0)  -->
<svg version="1.1" id="Layer_1" xmlns="http://www.w3.org/2000/svg" xmlns:xlink="http://www.w3.org/1999/xlink" x="0px" y="0px"
	 viewBox="0 0 500 500" enable-background="new 0 0 500 500" xml:space="preserve">
<path d="M235.547,2.961c9.289,0,18.578,0,27.867,0c8.543,1.056,17.138,1.801,25.621,3.219
	c51.321,8.577,95.877,30.793,132.971,67.327c39.442,38.847,63.24,85.806,71.179,140.677c1.072,7.407,1.857,14.855,2.776,22.285
	c0,8.328,0,16.656,0,24.984c-0.278,1.074-0.694,2.134-0.811,3.225c-0.801,7.475-1.148,15.022-2.359,22.427
	c-8.55,52.271-31.193,97.55-68.611,135.067c-38.757,38.858-85.467,62.302-139.905,70.058c-7.256,1.034-14.546,1.826-21.821,2.73
	c-8.328,0-16.656,0-24.984,0c-8.702-1.054-17.454-1.797-26.097-3.213c-47.244-7.737-89.085-27.185-124.739-59.174
	C42.393,392.884,15.652,343.52,6.766,284.646c-1.114-7.384-1.878-14.82-2.805-22.232c0-9.289,0-18.578,0-27.867
	c0.298-1.215,0.782-2.418,0.866-3.647c2.352-34.481,11.359-67.186,28.097-97.359C72.702,61.838,133.158,19.012,214.266,5.761
	C221.324,4.607,228.452,3.884,235.547,2.961z M222.321,101.076c-3.233,18.593-6.396,36.781-9.596,55.18c24.979,0,49.331,0,74.261,0
	c-3.594-18.639-7.094-36.793-10.665-55.313C258.372,97.652,240.628,97.854,222.321,101.076z M101.813,222.52
	c-2.949,18.307-3.174,36.148,0.389,54.038c18.645,3.22,36.776,6.351,55.107,9.517c0-25.166,0-49.38,0-74.23
	C138.728,215.419,120.589,218.908,101.813,222.52z M223.52,397c18.115,2.956,35.976,3.145,53.998-0.342
	c3.229-18.579,6.389-36.76,9.568-55.053c-25.075,0-49.435,0-74.241,0C216.408,360.099,219.884,378.131,223.52,397z M342.465,286.014
	c18.791-3.629,37.079-7.161,55.508-10.721c3.038-18.25,3.1-35.991-0.289-53.979c-18.482-3.217-36.681-6.385-55.22-9.612
	C342.465,236.547,342.465,260.816,342.465,286.014z M284.729,330.164c-11.701-23.2-23.003-45.609-34.822-69.043
	c-11.88,23.573-23.212,46.057-34.796,69.043C238.675,330.164,261.182,330.164,284.729,330.164z M262.115,248.914
	c23.531,11.862,45.942,23.159,68.813,34.687c0-23.446,0-46.129,0-69.393C308.003,225.769,285.654,237.042,262.115,248.914z
	 M249.92,236.71c11.866-23.552,23.21-46.068,34.72-68.915c-23.555,0-46.168,0-69.487,0
	C226.752,190.785,238.068,213.216,249.92,236.71z M237.726,248.914c-23.625-11.907-46.085-23.226-69.048-34.799
	c0,23.477,0,46.104,0,69.583C191.666,272.118,214.119,260.807,237.726,248.914z M294.943,325.983
	c10.864-10.916,21.22-21.32,31.942-32.094c-20.921-10.544-41.968-21.152-63.016-31.761c-0.221,0.315-0.442,0.629-0.663,0.944
	C273.757,283.986,284.307,304.9,294.943,325.983z M173.645,293.531c10.701,10.705,21.132,21.141,31.658,31.67
	c10.285-20.418,20.845-41.383,31.406-62.348c-0.296-0.226-0.591-0.452-0.887-0.678C214.906,272.723,193.991,283.271,173.645,293.531
	z M263.171,234.838c0.286,0.272,0.572,0.544,0.858,0.816c20.995-10.601,41.989-21.201,62.122-31.366
	c-10.679-10.667-21.113-21.09-31.64-31.605C284.254,193.023,273.712,213.931,263.171,234.838z M204.969,172.002
	c-10.881,10.883-21.263,21.268-31.967,31.974c20.898,10.53,41.957,21.142,63.016,31.753c0.209-0.311,0.417-0.621,0.626-0.932
	C226.084,213.862,215.524,192.927,204.969,172.002z M155.365,200.971c-6.665-16.728-13.079-32.828-19.801-49.7
	c-14.955,17.829-25.161,37.075-31.086,59.553C121.853,207.46,138.378,204.261,155.365,200.971z M287.985,103.407
	c3.364,17.406,6.553,33.911,9.849,50.966c16.783-6.693,32.921-13.129,49.685-19.814C329.722,119.574,310.543,109.53,287.985,103.407
	z M364.256,346.546c15.017-17.944,25.149-37.144,31.089-59.549c-17.281,3.341-33.779,6.53-50.87,9.834
	C351.126,313.548,357.519,329.615,364.256,346.546z M152.236,363.269c17.992,14.98,37.203,25.228,59.604,31.042
	c-3.396-17.452-6.604-33.939-9.891-50.831C185.165,350.161,169.192,356.519,152.236,363.269z M344.393,200.86
	c17.083,2.977,33.613,5.857,50.427,8.787c-4.042-18.871-20.216-49.077-30.868-57.677C357.467,168.18,351.039,184.248,344.393,200.86
	z M135.714,346.268c6.635-16.605,13.056-32.672,19.703-49.305c-17.131-2.985-33.642-5.863-50.485-8.798
	C109.507,307.685,122.882,332.955,135.714,346.268z M152.239,134.588c17,6.79,33.063,13.206,49.618,19.818
	c2.987-17.089,5.862-33.536,8.849-50.629C188.775,109.74,169.869,119.815,152.239,134.588z M347.582,363.24
	c-16.922-6.767-32.977-13.187-49.615-19.841c-2.985,17.107-5.866,33.622-8.841,50.673
	C311.114,388.006,329.954,378.001,347.582,363.24z M164.51,194.266c10.309-10.286,20.422-20.376,30.718-30.649
	c-16.348-6.522-33.027-13.176-50.988-20.342C151.436,161.376,158.023,177.947,164.51,194.266z M304.249,334.079
	c16.746,6.686,33.369,13.323,51.337,20.497c-7.193-18.087-13.838-34.797-20.462-51.455
	C324.701,313.572,314.697,323.604,304.249,334.079z M144.259,354.587c18.09-7.198,34.785-13.841,50.853-20.235
	c-10.343-10.364-20.431-20.472-30.553-30.614C158.089,319.945,151.45,336.575,144.259,354.587z M335.066,194.595
	c6.706-16.798,13.332-33.395,20.506-51.362c-18.113,7.204-34.815,13.847-51.392,20.44
	C314.554,174.06,324.56,184.077,335.066,194.595z"/>
</svg>
