<?xml version="1.0" encoding="iso-8859-1"?>
<!-- Generator: Adobe Illustrator 19.0.0, SVG Export Plug-In . SVG Version: 6.00 Build 0)  -->
<svg version="1.1" id="Layer_1" xmlns="http://www.w3.org/2000/svg" xmlns:xlink="http://www.w3.org/1999/xlink" x="0px" y="0px"
	 viewBox="0 0 2000 2000" style="enable-background:new 0 0 2000 2000;" xml:space="preserve">
<path d="M1671.262,981.74c-113.314,0-225.088,0-340.273,0c-0.65-10.139-1.913-20.389-1.867-30.633
	c0.411-92.253,1.807-184.407-24.824-274.393c-53.564-180.992-164.776-313.719-332.942-398.209
	c-91.512-45.978-189.629-67.722-291.848-64.095c-118.934,4.22-229.697,37.596-329.438,104.203
	c-2.142,1.431-4.995,1.798-10.976,3.845c-20.11-22.539-41.159-46.13-62.316-69.843c159.138-177.486,501.481-304.409,831.3-189.91
	C1513.67,203.51,1709.762,574.924,1671.262,981.74z M57.313,900.688c-60.379,181.844-51.731,365.217,15.335,544.363
	c39.321,105.034,97.947,198.918,175.589,275.091c25.72-22.655,48.896-43.069,72.322-63.703c-2.495-5.118-3.758-8.312-5.509-11.211
	c-44.186-73.179-77.66-150.62-91.838-235.406c-14.023-83.863-13.904-168.166,5.703-250.728
	c27.693-116.611,82.816-219.187,168.686-304.355c116.312-115.361,256.016-178.445,419.45-186.983
	c53.393-2.789,107.054-0.439,161.888-0.439c0-116.325,0-229.038,0-343.478C584.259,286.625,200.02,470.896,57.313,900.688z
	 M834.678,1911.89c329.247,142.245,685.179,44.278,894.526-168.856c-22.744-21.868-45.517-43.765-70.004-67.31
	c-6.929,3.859-14.725,7.772-22.096,12.368c-134.848,84.095-282.566,110.323-437.108,85.342
	c-144.492-23.357-266.931-93.275-365.424-202.788c-60.36-67.113-106.974-143.703-131.376-229.865
	c-17.537-61.921-22.792-127.746-29.138-192.261c-4.249-43.199-0.808-87.154-0.808-131.787c-115.8,0-228.365,0-342.55,0
	C296.505,1425.112,476.403,1757.104,834.678,1911.89z M1942.716,1102.108c62.332-184.037,54.136-370.721-14.693-552.632
	c-39.336-103.962-97.074-197.41-176.885-274.925c-25.625,23.865-48.366,45.043-70.617,65.765c2.028,5.085,2.615,7.739,4.005,9.871
	c60.685,93.1,95.891,195.279,102.536,305.923c9.213,153.404-31.416,293.327-123.349,417.167
	c-83.379,112.316-192.25,188.321-326.389,229.41c-87.953,26.941-177.841,29.425-268.396,28.808
	c-14.899-0.101-29.8-0.014-45.666-0.014c0,116.512,0,229.087,0,341.511C1453.684,1711.469,1808.35,1498.831,1942.716,1102.108z
	 M1500.852,97.019c-10.435,18.806-19.602,35.326-26.521,47.794c54.494,44.522,104.438,85.327,156.265,127.671
	c16.669-19.305,33.955-39.325,53.219-61.635C1627.264,164.547,1569.401,124.787,1500.852,97.019z M90.194,499.159
	c22.654,13.015,38.483,22.108,53.096,30.503c42.728-52.705,84.281-103.961,127.36-157.097
	c-19.149-16.931-38.392-33.944-64.669-57.176C166.344,378.296,128.933,437.673,90.194,499.159z M370.938,1724.63
	c-16.39,19.076-33.544,39.039-55.846,64.995c61.65,39.346,120.274,76.761,181.703,115.966
	c13.278-22.226,23.091-38.653,31.482-52.698C474.638,1809.166,423.326,1767.337,370.938,1724.63z M1731.05,1625.024
	c19.811,16.677,39.69,33.411,65.137,54.833c39.28-61.914,76.512-120.598,115.417-181.921
	c-22.468-12.743-39.014-22.128-53.314-30.238C1815.315,1520.835,1774.286,1571.565,1731.05,1625.024z M116.758,580.656
	c-14.094-6.344-28.999-13.053-43.729-19.683c-26.19,50.644-51.885,166.696-45.445,205.011c11.873,2.742,24.444,5.645,34.428,7.95
	C80.589,708.347,98.365,645.591,116.758,580.656z M764.705,1970.522c2.53-15.868,4.531-28.415,5.991-37.571
	c-64.985-18.26-126.136-35.443-189.913-53.365c-6.554,12.103-14.361,26.519-24.617,45.457
	C626.734,1948.808,692.655,1969.499,764.705,1970.522z M1422.248,117.542c6.447-13.038,14.018-28.351,24.84-50.236
	c-72.293-16.339-139.325-31.489-206.698-46.716c-5.364,18.292-8.834,30.127-12.448,42.452
	C1293.711,81.489,1356.581,99.123,1422.248,117.542z M1936.227,1440.013c15.949-71.806,30.866-138.964,46.035-207.253
	c-20.205-4.581-32.885-7.455-42.673-9.674c-18.378,65.434-35.798,127.455-54.266,193.208
	C1900.35,1423.296,1915.074,1430.157,1936.227,1440.013z"/>
</svg>
