<?xml version="1.0" encoding="iso-8859-1"?>
<!-- Generator: Adobe Illustrator 19.0.0, SVG Export Plug-In . SVG Version: 6.00 Build 0)  -->
<svg version="1.1" id="Layer_1" xmlns="http://www.w3.org/2000/svg" xmlns:xlink="http://www.w3.org/1999/xlink" x="0px" y="0px"
	 viewBox="0 0 500 500" enable-background="new 0 0 500 500" xml:space="preserve">
<path d="M78.317,491.32c5.011-6.224,9.57-10.798,12.86-16.152c19.102-31.084,38.038-62.273,56.696-93.625
	c3.668-6.164,7.698-7.625,14.937-7.449c33.537,0.817,67.104,0.956,100.652,0.576c17.366-0.197,28.594-10.87,36.883-25.168
	c14.021-24.186,28.403-48.171,41.929-72.63c4.276-7.733,8.059-16.554,8.828-25.166c0.671-7.511-1.631-16.311-5.363-23.013
	c-15.97-28.676-33.024-56.745-49.538-85.12c-7.259-12.473-18.552-18.645-32.285-18.73c-35.188-0.217-70.384,0.433-105.572,0.98
	c-3.853,0.06-6.789,0.149-9.023-3.693c-21.78-37.449-43.692-74.82-65.514-112.244c-0.612-1.049-0.634-2.442-1.184-4.726
	c4.073,0,7.575,0,11.076,0c78.907,0.001,157.815,0.21,236.72-0.159c17.532-0.082,29.586,8.017,37.868,22.071
	c15.681,26.61,30.379,53.798,45.87,80.523c16.626,28.683,33.723,57.092,50.555,85.655c6.883,11.68,14.025,23.234,20.304,35.236
	c7.794,14.898,6.668,30.004-1.589,44.424c-14.963,26.13-30.225,52.088-45.293,78.158c-18.542,32.081-37.006,64.207-55.522,96.303
	c-4.551,7.888-9.183,15.728-13.764,23.599c-8.631,14.83-20.726,23.428-38.656,23.385c-79.232-0.189-158.466-0.029-237.698-0.212
	C87.64,494.131,82.791,492.252,78.317,491.32z M203.884,226.086c-5.18-10.383-11.498-20.199-17.359-30.24
	c-12.816-21.955-25.684-43.881-38.474-65.852c-21.616-37.133-43.143-74.317-64.816-111.417c-4.452-7.62-10.876-8.299-17.348-1.977
	c-2.759,2.695-5.462,5.656-7.385,8.964c-14.241,24.496-28.02,49.263-42.488,73.623c-7.567,12.741-9.494,24.418-1.243,38.044
	c15.455,25.52,29.822,51.706,44.312,77.798c5.065,9.121,10.366,18.412,13.386,28.289c3.611,11.814-2.192,22.546-8.086,32.644
	c-15.697,26.898-31.453,53.761-47.181,80.641c-7.538,12.882-11.894,26.224-3.763,40.397c12.106,21.102,24.552,42.01,36.911,62.966
	c3.606,6.115,6.96,12.454,11.226,18.089c6.543,8.644,17.916,7.979,23.501-1.386c23.796-39.908,47.49-79.878,70.979-119.968
	c14.007-23.907,27.546-48.089,41.333-72.126c6.095-10.627,13.836-20.558,15.647-34.287
	C210.04,242.194,207.715,233.764,203.884,226.086z"/>
</svg>
