<?xml version="1.0" encoding="iso-8859-1"?>
<!-- Generator: Adobe Illustrator 19.0.0, SVG Export Plug-In . SVG Version: 6.00 Build 0)  -->
<svg version="1.1" id="Layer_1" xmlns="http://www.w3.org/2000/svg" xmlns:xlink="http://www.w3.org/1999/xlink" x="0px" y="0px"
	 viewBox="0 0 500 500" enable-background="new 0 0 500 500" xml:space="preserve">
<path d="M248.579,495.26c-67.964,0.286-126.738-24.172-173.957-71.842C23.12,371.424-1.081,307.15,3.369,233.349
	C7.136,170.878,31.942,116.877,76.25,73.626C128.012,23.1,191.624-0.833,264.328,3.499c62.249,3.708,116.381,28.024,159.852,72.584
	c51.302,52.587,75.355,116.576,70.778,190.266C487.656,383.892,389.322,496.063,248.579,495.26z M135.739,424.328
	c81.639,56.564,210.636,45.194,281.256-49.887c73.29-98.676,42.992-229.782-40.29-289.546c-1.875,12.034-3.675,23.582-5.356,34.367
	c94.325,93.596,54.22,226.745-13.05,268.116c-11.371-50.786-39.566-91.234-76.533-128.112
	c-15.43,15.864-29.925,30.765-44.419,45.667c0.613,0.956,1.227,1.913,1.84,2.869c12.962,0,25.924,0,38.65,0
	c6.202,8.127,11.788,15.448,18.849,24.701c-28.717,0-54.752,0-81.632,0c-4.157,6.73-8.089,13.096-13.467,21.802
	c37.851,0,73.196,0,108.337,0c3.868,9.152,7.11,16.821,11.251,26.619c-44.989,0-87.745,0-131.075,0
	c-1.788,7.033-3.235,12.723-5.077,19.964c47.427,0,93.533,0,138.725,0c6.416,8.676-0.089,10.36-4.658,12.433
	c-31.109,14.112-63.993,16.28-97.23,12.423c-17.652-2.048-34.75-7.626-50.605-16.658c3.117-23.22,10.794-44.023,22.115-63.595
	c16.201-28.008,38.904-50.415,61.953-72.603c32.197-30.994,63.628-62.727,84.228-103.158c15.375-30.177,23.651-62.151,23.316-95.772
	C258.348,6.909,122.571,42.261,63.748,152.341c-53.291,99.728-11.064,217.153,58.662,260.878
	c2.003-10.832,3.978-21.515,5.924-32.036c-93.943-92.16-59.065-221.876,10.126-269.485c10.902,53.235,39.185,95.965,77.579,133.78
	c8.34-9.025,15.812-17.111,24.44-26.447c0.02,0.127-0.342-2.113-0.705-4.359c13.899-1.781,19.364-12.502,28.409-23.9
	c-19.826,0-36.484,0-53.14,0c-6.013-8.082-11.493-15.448-18.532-24.91c32.247,0,61.554,0,91.533,0
	c3.705-6.718,7.109-12.891,11.671-21.162c-39.563,0-76.656,0-114.555,0c-3.265-8.815-6.18-16.683-9.773-26.38
	c45.808,0,89.865,0,134.89,0c1.185-7.282,2.169-13.33,3.469-21.319c-49.088,0-95.916,0-143.071,0
	c7.024-30.452,120.165-33.625,157.354-5.528c-3.343,22.768-10.065,44.689-21.476,65.252c-17.175,30.949-42.473,54.863-67.354,79.22
	c-26.349,25.794-52.3,52.002-71.623,83.778C147.968,351.967,136.278,386.661,135.739,424.328z"/>
</svg>
