<?xml version="1.0" encoding="utf-8"?>
<!-- Generator: Adobe Illustrator 19.0.0, SVG Export Plug-In . SVG Version: 6.00 Build 0)  -->
<svg version="1.1" id="Layer_1" xmlns="http://www.w3.org/2000/svg" xmlns:xlink="http://www.w3.org/1999/xlink" x="0px" y="0px"
	 viewBox="750 -750 2000 2000" style="enable-background:new 750 -750 2000 2000;" xml:space="preserve">
<path d="M762.9,247.4c-1.3-536.5,426-963,940.1-984.5c581.6-24.3,1025.3,441.2,1031,971.8c5.8,543.1-425.3,990-968.3,999.1
	C1202.8,1243.1,760,788.1,762.9,247.4C761.6-289.1,760,788.1,762.9,247.4z M851.9,248.3c-0.6,492.1,402.8,906.2,915.6,895.9
	c484.4-9.8,871.6-403.8,877.2-887.5c5.7-496.5-407.1-929.7-943.3-904C1244-625.5,852.8-245.7,851.9,248.3
	C851.3,740.4,852.8-245.7,851.9,248.3z M1748.5,1089.3c-465.3,2-837.5-380.6-842.2-832c-4.8-463.5,372.6-856.5,852.5-851.5
	c454.8,4.8,849.7,384.1,830.3,879.2C2572.3,717.1,2211.9,1089.8,1748.5,1089.3C1283.3,1091.3,2211.9,1089.8,1748.5,1089.3z
	 M1393.2,666.1c17.8-0.8,33.3-2.2,48.9-2.1c110.8,0.8,221.7,1.9,332.5,3c54.5,0.5,108.1-6.2,160.5-20.8
	c118.6-32.9,206.9-102.8,259.1-215.7c23.8-51.5,35.1-105.9,40.7-162.2c6-60,4.6-119.3-9.3-177.9c-21.8-91.8-72.5-162.1-157.2-206.3
	c-68.5-35.7-142.4-51.5-218.5-53.4c-72.6-1.8-145.4,2.5-218.1,3c-73.5,0.5-146.9-0.3-220.4-0.5c-7.1,0-14.2,0-21.5,0
	c0,10.5,0,18.5,0,28.1c17.4,5.5,34.6,11,51.8,16.3c43.1,13.2,44.1,13.2,44.2,59.2c0.6,185.7,0.7,371.4,0.8,557.1
	c0,28.5-1.9,57.1-1.8,85.6c0.2,26.7-2.6,31.2-28.4,38.1c-22.6,6-45.1,12.1-68.6,18.5C1389.7,646.6,1391.2,655.2,1393.2,666.1
	C1411,665.3,1391.2,655.2,1393.2,666.1z M1118.8,573.8c-30.6-2.1-59.1-4-91.1-6.2c6.7,12.4,11.3,21,14.7,27.3c30,0,57.2,0,87,0
	C1125,586.1,1122,580.2,1118.8,573.8C1088.2,571.7,1122,580.2,1118.8,573.8z M1055.4,92.7c3.2-10.3,5.2-16.6,7.2-22.8
	c-20.9-22.1-41.3-43.7-63-66.6c-3,9.7-5.7,15.3-6.3,21.2c-0.5,4.8-0.1,11.7,2.9,14.5C1014.6,56.6,1033.9,73.3,1055.4,92.7
	C1058.7,82.4,1033.9,73.3,1055.4,92.7z M2449.6-110.1c-8-10.5-7.5-26.9-23-26.7c-25.3,0.4-50.5,3.3-76.4,5.3
	c2.3,15,9.2,21.7,23.1,21.6C2397.6-110.3,2421.9-110.1,2449.6-110.1C2441.6-120.5,2421.9-110.1,2449.6-110.1z M2176-410.7
	c-0.1-2-0.3-4-0.4-6.1c-10.4-2.9-23.6-11.2-30.6-7.6c-23.2,12-44.1,28.3-65.9,42.9c0.1,1.5,0.2,3,0.2,4.4c8,2,17.8,8.1,23.6,5.4
	C2127.9-383.2,2151.8-397.4,2176-410.7C2175.9-412.7,2151.8-397.4,2176-410.7z M2000.1-497.5c-20,21.1-41.1,39.2-60,62.8
	c10.5,3.2,16.6,5.1,22.5,6.9c22.9-19.6,45-38.6,69.5-59.7C2019.5-491.4,2010.7-494.2,2000.1-497.5
	C1980.1-476.4,2010.7-494.2,2000.1-497.5z M2424.9,649.4c-15.9-23.6-31.4-46.6-48.5-72.1c-5.6,9.9-8.9,15.6-11.9,21
	c14.3,26.1,28.1,51.5,43.7,80C2414.8,667,2419.7,658.5,2424.9,649.4C2409,625.8,2419.7,658.5,2424.9,649.4z M2506.3,44.4
	c-4.1-28.2-1.4-30-30.1-34.6c-15.2-2.4-30.5-4.5-45.7-6.5c-5.1-0.7-10.2-0.6-20.1-1.2c6.8,10.1,10.1,21.1,16.1,22.9
	C2452.4,32.8,2479.2,38,2506.3,44.4C2502.2,16.2,2479.2,38,2506.3,44.4z M1158.8,640.9c-32.4,0-61.6,0-93.3,0
	c6.8,10.8,11.7,18.6,17.3,27.5c28.5-3.4,56.4-6.8,85.9-10.4C1164.6,650.9,1161.3,645.2,1158.8,640.9
	C1126.4,640.9,1161.3,645.2,1158.8,640.9z M2367.5-100c4.6,10.8,5.4,21.5,17.4,22.5c26.7,2.3,53.5,4,83.8,6.2
	c-6.2-12-10.7-20.6-15-28.7C2425-100,2397.9-100,2367.5-100C2372.1-89.1,2397.9-100,2367.5-100z M2283-221.3
	c5.8,17.2,15.9,21.4,30.7,17.4c6.5-1.7,13.3-1.8,20-2.8c16.5-2.4,33-4.8,52.2-7.6c-7.9-10.2-13.9-18-20-25.9
	C2337.8-233.7,2311-227.6,2283-221.3C2288.8-204.1,2311-227.6,2283-221.3z M1475.3-490.3c-2.8,28.7-5.4,55.4-8.4,85.5
	c9.6-3.3,16.6-5.7,23-7.9c5.3-30.1,10.3-58.2,15.7-89C1493.2-497.1,1484.6-493.8,1475.3-490.3
	C1472.5-461.6,1484.6-493.8,1475.3-490.3z M2433.3,441.1c-10,12.7-9.8,22.1,0.1,32.4c11.2,11.7,21,24.9,31.6,37.2
	c5.4,6.3,11.4,12.1,17.2,18.1c1.5-0.6,3-1.2,4.6-1.8c1.1-10.2,6.9-24.3,2.3-29.8C2472.4,477,2452.3,459.7,2433.3,441.1
	C2423.2,453.8,2452.3,459.7,2433.3,441.1z M1250.5,858.9c11.9,8.5,20.3,14.5,28.3,20.2c25.8-13.9,49.8-26.8,74.2-39.9
	c-9.3-13.2-18.1-15.2-30.9-9.3C1300.2,839.9,1277.5,848,1250.5,858.9C1262.3,867.3,1277.5,848,1250.5,858.9z M1040.3,313.2
	c1.7-22,1.8-22.1-12.7-30.2c-15.9-8.9-31.8-17.7-47.8-26.2c-5.5-2.9-11.5-4.9-20-8.5c2.8,14.5-5.9,28.2,10.5,35.1
	C993,293,1015.8,302.8,1040.3,313.2C1042,291.2,1015.8,302.8,1040.3,313.2z M1277.2,777.9c-28.9,8.7-56.6,17-88,26.4
	c10.7,9,18.3,15.3,26.3,22.1c25.9-10.6,51.5-21.1,80.3-33C1287.6,786.6,1282.1,782.1,1277.2,777.9
	C1248.3,786.6,1282.1,782.1,1277.2,777.9z M2449.8,607.2c5.4-12.6,9.4-21.9,13.3-31c-18.8-22.3-36.6-43.4-55.9-66.2
	c-4,9-6.9,15.5-9.7,21.9C2414.7,556.6,2431.1,580.2,2449.8,607.2C2455.2,594.6,2431.1,580.2,2449.8,607.2z M1073.5,18.3
	c1.7-0.3,3.5-0.6,5.2-0.9c0.9-7.6,5.4-17.6,2.2-22.4c-15.5-22.9-33.1-44.4-51.8-68.8c-5,12.7-8.7,21.7-12.3,30.8
	C1036.3-22,1054.9-1.8,1073.5,18.3C1075.2,18,1054.9-1.8,1073.5,18.3z M2225.8,770.9c5.7,29.9,11.1,58.5,16.8,88.3
	c25.8-17.8,25.8-17.8,18.6-43.7c-1.1-3.9-1.8-7.9-3-11.7c-4.8-15.6-9.8-31.2-15.8-50.4C2234.8,761.4,2230.2,766.3,2225.8,770.9
	C2231.5,800.8,2230.2,766.3,2225.8,770.9z M1218.3-222.6c-8.6-28.6-17-56.7-25.4-84.8c-1.6-0.5-3.1-1-4.7-1.5
	c-5.4,9.4-16.9,20.4-15,27.8c6.7,25.3,18.1,49.4,28.5,76C1208.7-212.5,1213.3-217.3,1218.3-222.6
	C1209.7-251.2,1213.3-217.3,1218.3-222.6z M1756.8-537.7c-12.1,25.1-24.2,50.1-37.3,77.1c10.5,0,17.1,0,23.6,0
	c15.5-25.5,30.6-50.4,46.8-77.1C1777-537.7,1767.6-537.7,1756.8-537.7C1744.7-512.5,1767.6-537.7,1756.8-537.7z M2218.3-383.3
	c-26.1,13.9-50.5,26.9-77.1,41c8.6,6,13.9,9.8,19.7,13.9c27.3-11.4,54.1-22.6,83.8-35C2234.3-371.2,2226.9-376.9,2218.3-383.3
	C2192.2-369.4,2226.9-376.9,2218.3-383.3z M2432.8,429.4c21.3,17.9,43.8,36.9,65.5,55.2c1.7-5.9,12.3-17.5,2.1-27.9
	c-18.2-18.6-39-34.7-59.8-52.8C2437.9,412.6,2436,418.9,2432.8,429.4C2454.1,447.3,2436,418.9,2432.8,429.4z M1287.7,882.2
	c-0.4,2-0.8,4-1.2,5.9c9.4,4.1,21.6,14,27.8,11.2c24.5-11.3,47.2-26.6,70.5-40.3c-0.3-2.1-0.7-4.2-1-6.2c-8.5-1.3-18.4-6.1-25.3-3.4
	C1334.3,858.9,1311.2,871,1287.7,882.2C1287.3,884.2,1311.2,871,1287.7,882.2z M967.7,157.4c24.6,15.2,47.7,29.5,71.6,44.3
	c4-23,3.9-22.8-11.4-34.3c-18.6-14-36.9-28.3-58.3-44.7C968.8,136.5,968.3,146.3,967.7,157.4C992.3,172.6,968.3,146.3,967.7,157.4z
	 M1419.1,875.9c-9.9-5.3-16.2-8.7-22-11.8c-26.5,14.6-51.7,28.6-79.1,43.7c11.3,6.7,19.7,11.7,28.5,16.9
	C1370.1,908.9,1393.1,893.4,1419.1,875.9C1409.2,870.6,1393.1,893.4,1419.1,875.9z M2454.1,331c-5.8,22.6-5.8,22.6,7.5,33.9
	c14,11.9,28,23.7,42,35.5c4.3,3.6,8.8,6.9,14.5,11.3c2.4-12.2,4.2-21.4,6.1-31C2500.9,364.2,2478.4,348.2,2454.1,331
	C2448.3,353.6,2478.4,348.2,2454.1,331z M980.2,75c22.9,17.8,44.7,34.8,67.6,52.7c2.6-8.2,4.5-14.5,6.8-21.7
	c-21.6-21.1-42.6-42.4-67.5-62.3C984.4,56.2,982.5,64.6,980.2,75C1003.1,92.9,982.5,64.6,980.2,75z M1138.9,741.8c-0.7,2-1.3,4-2,6
	c8.2,5.8,17.4,17.5,24.5,16.4c26-4.3,51.2-12.8,77.8-20.1c-12.4-17.6-12.5-18.2-27.2-15.8C1187.5,732.4,1163.2,737.3,1138.9,741.8
	C1138.2,743.8,1163.2,737.3,1138.9,741.8z M1056.7,422.2c1.3-1.1,2.6-2.1,4-3.2c-3-6.9-4.3-18-9.3-20
	c-25.1-10.4-51.2-18.5-78.8-28.1c-0.1,15.2-1.9,29.3,12.3,33.8C1008.3,412,1032.7,416.5,1056.7,422.2
	C1058,421.1,1032.7,416.5,1056.7,422.2z M1382,945.5c23.5-17.8,45.7-34.6,67.9-51.5c-0.2-1.7-0.5-3.4-0.7-5.1
	c-8-1.4-18-6.6-23.6-3.6c-24,12.8-46.7,28.1-71.9,43.7C1364.4,935.3,1372.4,939.9,1382,945.5C1405.4,927.7,1372.4,939.9,1382,945.5z
	 M2516,420.7c-22.2-17.4-44.3-34.7-67.5-52.9c-2.6,8-4.6,14.2-7.2,21.8c22.1,20.6,44.1,41.1,67.8,63.1
	C2511.9,439.8,2513.8,430.7,2516,420.7C2493.7,403.3,2513.8,430.7,2516,420.7z M2393.8-44.6c30.2,3.8,58.7,7.3,90.3,11.3
	c-5.3-12.3-9.2-21.2-12.8-29.5c-29.7-1.4-57.4-2.8-87.6-4.3C2387.9-57.7,2390.6-51.7,2393.8-44.6C2424-40.9,2390.6-51.7,2393.8-44.6
	z M2426.3,36.9c1,18.2,7.7,25.8,22,28.1c10.5,1.7,20.5,6.4,30.9,9.3c12,3.4,24,6.3,36.8,9.6c-1.9-28.9-1.8-29.1-27.4-34.6
	C2468.5,45,2448.2,41.2,2426.3,36.9C2427.3,55,2448.2,41.2,2426.3,36.9z M968.6,330.3c-1.9,1.8-2.9,2.3-2.8,2.7
	c1.1,9.2,2.3,18.3,3.7,28.7c26.7,8.2,53.1,16.3,82.1,25.2c-1.4-10.5-2.2-16.9-3.1-23.4C1021,352,994.4,341,968.6,330.3
	C966.7,332.1,994.4,341,968.6,330.3z M1032.6-81.4c18.9,22.7,36.8,44.3,55.9,67.2c4.4-8.8,7.6-15.2,10.6-21.3
	c-17.3-25-33.9-49-51.9-75.1C1041.7-99.7,1037.6-91.5,1032.6-81.4C1051.5-58.7,1037.6-91.5,1032.6-81.4z M1797.7-535.9
	c-12.9,23.4-26.3,47.9-39.7,72.3c1.2,1.7,2.3,3.3,3.5,5c7.5-2.2,18.2-2.1,22.1-7.1c16.7-21.7,31.3-44.9,48.5-70.1
	C1818.8-535.9,1809.1-535.9,1797.7-535.9C1784.9-512.5,1809.1-535.9,1797.7-535.9z M2533.8,248.4c3.5-25,3.5-30.4-4.7-34.2
	c-23.6-10.9-47.7-20.7-71.6-30.9c-1.4,1-2.9,2-4.3,3c2,7,1.8,17.7,6.5,20.5C2483.5,221.7,2508.4,234.5,2533.8,248.4
	C2537.4,223.4,2508.4,234.5,2533.8,248.4z M960.8,207.2c1.7,13.9-7.3,27.3,7.8,35c22.2,11.3,44.8,21.8,67.5,32.8
	c4.2-21.4,4.2-21.4-10.7-30.7c-16.1-10-32.1-20.2-48.3-30C972.8,211.8,967.8,210.2,960.8,207.2C962.5,221.1,967.8,210.2,960.8,207.2
	z M965.7,321.2c25.9,9.4,51.6,18.8,77.6,28.2c3.5-20.7,3.4-21.4-11.3-28.5c-18.8-9.1-37.7-17.8-56.6-26.5c-3.8-1.7-8.1-2.4-14.2-4.1
	C962.9,302.1,964.2,311.2,965.7,321.2C991.6,330.7,964.2,311.2,965.7,321.2z M1545.3-512.3c-30.3,7.5-30.2,7.5-34.5,34.5
	c-0.4,2.7-1.7,5.2-2,7.9c-2.1,16.5-4,33.1-6.1,50.4c15.2-0.5,22.7-5.5,25.3-19.5C1532.6-463.2,1539.2-487,1545.3-512.3
	C1515.1-504.8,1539.2-487,1545.3-512.3z M1656.2,1029.9c15-24,29.8-47.5,44.9-71.6c-20.4-6.9-21-6.9-30.3,4.8
	c-5.4,6.9-10.4,14.1-15.6,21.2c-9.8,13.2-19.7,26.3-30.4,40.5C1636.2,1026.6,1644.8,1028,1656.2,1029.9
	C1671.2,1005.9,1644.8,1028,1656.2,1029.9z M1879.7-527.2c-15.8,22.8-31.5,45.6-47.3,68.3c1,1.7,2.1,3.3,3.1,5
	c7.7-1.4,18.2-0.1,22.6-4.6c18.8-19.7,35.8-41.1,55.6-64.3C1900.3-524.5,1890.6-525.7,1879.7-527.2
	C1863.9-504.3,1890.6-525.7,1879.7-527.2z M1467.2-487.8c-11.3,4.8-19.8,8.5-30.1,12.9c-1.3,27.8-2.6,55.7-4,84.7
	c12.9-1.9,22-4.1,23.6-15.7C1460.2-431.7,1463.3-457.6,1467.2-487.8C1455.9-482.9,1463.3-457.6,1467.2-487.8z M1750.1-541.1
	c-16,3.2-31.2-3.6-38.5,13c-9.6,22.1-18.7,44.4-28.4,67.6c8.4,0,15.7,0,23.4,0C1720.7-486.5,1734.6-512.3,1750.1-541.1
	C1734.1-537.8,1734.6-512.3,1750.1-541.1z M1202,698c-30.6,3.8-59.7,7.5-92,11.5c8.2,10.5,14.6,18.7,20.7,26.4
	c28.4-6.6,54.9-12.7,83.4-19.3C1209.5,709.4,1206.3,704.6,1202,698C1171.4,701.8,1206.3,704.6,1202,698z M1830,1028.8
	c22.3,1.9,31.1-0.3,34.5-10.8c7.9-23.7,14.7-47.8,21.9-71.7c-15.6-4.6-23.4,0.6-28.3,13.7C1849.6,982.6,1839.9,1004.8,1830,1028.8
	C1852.2,1030.8,1839.9,1004.8,1830,1028.8z M2065-385.4c25.8-16,50.5-31.3,78.1-48.3c-12.3-6.4-20.5-10.7-29.4-15.3
	c-23.1,17.4-45.3,34.1-68.8,51.9C2052.9-392.4,2058.1-389.4,2065-385.4C2090.8-401.4,2058.1-389.4,2065-385.4z M2278.2,719
	c8.5,28.4,16.9,56.2,25.2,84.1c1.6,0.2,3.3,0.4,4.9,0.7c5.3-8.8,16.7-19.3,14.9-26.2c-6.9-25.4-18.2-49.5-28.8-76.7
	C2287.2,708.8,2282.9,713.7,2278.2,719C2286.7,747.4,2282.9,713.7,2278.2,719z M1626.6-530.8c-13.7,3-23.2,5.2-32.8,7.3
	c-7.1,27.9-13.9,54.8-21.4,84.4c9.9-2.4,16.7-4.1,23.6-5.8C1605.9-472.8,1615.6-499.9,1626.6-530.8
	C1612.9-527.7,1615.6-499.9,1626.6-530.8z M1869.5,1026.4c12.8-2.7,22.3-4.6,32.8-6.8c7-27.2,13.9-54.1,21.1-82.4
	c-11.4-0.7-20.6-1.3-24.9,10C1889.1,972.7,1879.8,998.2,1869.5,1026.4C1882.3,1023.8,1879.8,998.2,1869.5,1026.4z M1675.7-537
	c-9.9,27.2-19.5,53.5-29.3,80.5c8.3,0,14.9,0,22.5,0c12.8-26.7,25.4-52.9,38.6-80.5C1696-537,1687.2-537,1675.7-537
	C1665.8-509.8,1687.2-537,1675.7-537z M2276.9-336.1c-10.8-9-18.7-15.7-26.2-21.9c-26.8,12.6-51.9,24.4-77.6,36.5
	c10.1,13.4,19.4,15.3,33,9.7C2227.7-320.8,2250.3-327.1,2276.9-336.1C2266.1-345.1,2250.3-327.1,2276.9-336.1z M1226.1-234.8
	c17.1-13.1,17.1-13.1,13-30.8c-5.3-23.1-10.6-46.1-16.4-71.2c-12.7,9-25.6,14.9-21.3,29.6C1208.4-282.9,1217.6-259.3,1226.1-234.8
	C1243.2-247.9,1217.6-259.3,1226.1-234.8z M1185.2,797.9c27-9.4,53-18.6,81.7-28.6c-6.8-7.4-11.2-12.1-16-17.2
	c-29.2,7.3-57.7,14.4-87.9,22C1172.1,783.9,1178.5,790.7,1185.2,797.9C1212.1,788.5,1178.5,790.7,1185.2,797.9z M1429.6,964.2
	c0,1.8,0.1,3.5,0.1,5.3c11.7-0.8,20.9,15,33.3,4.4c19.3-16.6,37.3-34.6,57.5-53.6c-8.2-3.6-14.8-6.4-21.3-9.2
	C1475.4,929.2,1452.5,946.7,1429.6,964.2C1429.6,966,1452.5,946.7,1429.6,964.2z M2029.1,900.5c-15.7,2.4-24.5,6.6-24.9,21.9
	c-0.2,10.6-4.8,21-6.6,31.6c-2.3,13.4-3.9,27-6.2,43.2c12.4-4.7,21-8.1,29.6-11.4C2023.7,957.2,2026.3,929.7,2029.1,900.5
	C2013.3,902.9,2026.3,929.7,2029.1,900.5z M1138-246.2c-2.2-0.1-4.4-0.3-6.5-0.4c-3.8,10.1-13.4,22.5-10.4,30
	c9.3,23.7,23.3,45.6,36.7,70.4c6.3-8.2,10.3-13.3,14.2-18.2C1160.4-192.3,1149.2-219.3,1138-246.2
	C1135.8-246.4,1149.2-219.3,1138-246.2z M1151.9-132.8c-13.6-28.1-26.5-54.6-40.5-83.5c-7.3,11.4-12.3,19.3-18,28.2
	c14.5,24.1,28.8,47.7,44,72.9C1143.3-122.4,1147.1-127,1151.9-132.8C1138.3-160.9,1147.1-127,1151.9-132.8z M2454,317.8
	c24,18.2,46.8,35.5,73,55.3c0-14.9,0-24.7,0-35.5c-22.8-14.2-46.1-28.6-71.6-44.4C2454.9,303,2454.5,309.6,2454,317.8
	C2478,335.9,2454.5,309.6,2454,317.8z M2353.4,750.2c-6.1-13.5-11.7-26.4-17.6-39.1c-5.8-12.4-12-24.6-18.3-37.7
	c-15.5,15-15.6,15-10.2,31c5.4,15.9,10.9,31.8,16.6,47.6c2.5,7.1,5.6,14,9.5,23.6C2341.5,765.2,2347.3,757.9,2353.4,750.2
	C2347.3,736.7,2347.3,757.9,2353.4,750.2z M2358.1,741.2c2.4,0.2,4.8,0.3,7.1,0.5c3.5-10.1,12.5-22.4,9.6-30
	c-9.4-23.8-23.3-45.9-36.5-70.7c-6,8.5-10.1,14.4-13.9,19.8C2335.9,688.5,2347,714.8,2358.1,741.2
	C2360.5,741.3,2347,714.8,2358.1,741.2z M999.8,490.1c9.6,32.4,10.1,32.7,36.7,34.1c12.2,0.7,24.3,2.4,36.5,3.2
	c7,0.5,14.1,0.1,21.5,0.1c-1.5-16.3-8.3-22.7-23.4-24.3C1047.9,500.6,1025.2,494.9,999.8,490.1
	C1009.4,522.5,1025.2,494.9,999.8,490.1z M1306,801.6c-28.7,10.2-56.1,20-85.6,30.5c11.6,9,18.1,23.8,33.7,17.2
	c23.3-9.7,45.8-21.2,70.1-32.6C1317.3,811.1,1312.1,806.8,1306,801.6C1277.3,811.9,1312.1,806.8,1306,801.6z M1813.5,955.7
	c-11.4-2.1-21.1-3.6-26.8,6.5c-13.1,23.3-25.5,47-38.9,71.7c12,0,21.5,0,32.2,0C1791,1008.2,1802,982.5,1813.5,955.7
	C1802.2,953.6,1802,982.5,1813.5,955.7z M1950.1-509.5c-0.1-1.9-0.2-3.8-0.2-5.8c-10.8-0.4-26.3-5.4-31.4-0.2
	c-18.2,18.5-32.8,40.4-49.1,61.6c11.4,8.2,20.3,9.4,29.6-0.9C1915.7-473.2,1933-491.2,1950.1-509.5
	C1950.1-511.4,1933-491.2,1950.1-509.5z M2039.5-483.5c-21.1,19.3-41.9,38.4-62.9,57.6c12.6,11.9,23,11.1,34.2,0
	c7.1-7,16.4-11.7,24.4-18c10.7-8.4,21-17.3,33.5-27.7C2057-476.4,2048.5-479.8,2039.5-483.5C2018.4-464.2,2048.5-479.8,2039.5-483.5
	z M1849.7,952.8c-1.2-1.8-2.5-3.6-3.7-5.3c-7.5,4.2-18.3,6.4-21.9,12.8c-13,23.3-23.6,48-35.4,72.7c28.6,2.6,31.1,1.3,39.8-21.6
	C1835.9,991.9,1842.7,972.3,1849.7,952.8C1848.5,951,1842.7,972.3,1849.7,952.8z M1663.3,955.6c-0.4-1.6-0.9-3.2-1.3-4.8
	c-7.2,0.5-17.3-1.9-21.1,2c-19.7,20-37.7,41.5-57.7,64c15,4.4,27.7,11.8,37.1-0.2C1635.7,997,1649.1,976,1663.3,955.6
	C1662.9,954,1649.1,976,1663.3,955.6z M1626.8,950c-1.1-2.4-2.1-4.7-3.2-7.1c-8.3,2.1-19,1.7-24.5,6.8
	c-19.1,17.8-36.4,37.5-57.3,59.6c15.4-0.1,26.9,12.3,37.5,0.4C1596,990.6,1611,969.9,1626.8,950C1625.7,947.6,1611,969.9,1626.8,950
	z M2129.8-348.9c27.4-13.1,53.6-25.6,82.8-39.6c-11.9-7.8-20.2-13.2-28.2-18.5c-24.5,14.8-48,29-73.5,44.5
	C2118.5-357.1,2124.2-353,2129.8-348.9C2157.2-362,2124.2-353,2129.8-348.9z M1503.1,996.4c13.4,3.6,22.8,6.2,32.7,8.8
	c18.5-21.4,36.5-42,55.6-64.1c-11.1-5-19-9.6-27-2.2C1544.9,956.7,1525.9,974.9,1503.1,996.4C1516.5,1000,1525.9,974.9,1503.1,996.4
	z M1496.4,993.6c19.5-20.5,38.7-40.8,58-61c-0.8-1.8-1.5-3.6-2.2-5.4c-7.4,0-17.1-3-21.7,0.5c-22.2,17-43.1,35.7-65.9,55.1
	C1476.5,986.9,1485.3,989.8,1496.4,993.6C1515.9,973,1485.3,989.8,1496.4,993.6z M1993.8,916.5c-16.6-1.6-22.8,5-25.4,17.7
	c-3.9,19-8.9,37.7-13.3,56.6c-1.3,5.6-2.1,11.2-3.3,18.1c8.8-2.8,15.6-4.1,21.4-7.1c4.3-2.2,9.8-6.4,10.5-10.5
	C1987.7,966.8,1990.5,942.2,1993.8,916.5C1977.2,914.9,1990.5,942.2,1993.8,916.5z M2331.3-277.4c0.7-2,1.3-4,2-6
	c-9.3-5.6-19.9-17.5-27.5-15.8c-25.4,5.6-49.7,16.1-76.3,25.4c6.6,7,11.1,11.8,15.8,16.9C2274.5-263.7,2302.9-270.5,2331.3-277.4
	C2332-279.3,2302.9-270.5,2331.3-277.4z M2317.3-172.9c29.7-2.1,58.8-4.2,88.6-6.4c-8.7-22.8-14-28.6-25.1-26.7
	c-24.3,4.2-48.5,9-74.3,13.8C2310.3-185.4,2313.5-179.8,2317.3-172.9C2347-175.1,2313.5-179.8,2317.3-172.9z M1389.5,948.6
	c29.2,14.4,29.2,14.5,50.9-3.1c8.4-6.8,16.6-13.8,24.8-20.8c6.3-5.4,12.5-11,18.8-16.5c-0.5-1.5-1-3-1.6-4.4c-7.5-1-17-5.5-22.1-2.4
	C1436.9,915.3,1414.8,931.4,1389.5,948.6C1418.7,963,1414.8,931.4,1389.5,948.6z M2426.7-145.6c1.2-1.4,2.4-2.8,3.6-4.3
	c-7.6-7.3-15.2-20.9-22.7-20.9c-25.9,0.1-51.9,5-78,8c4,17.3,13.1,22.5,28.4,21.1C2380.8-143.8,2403.8-144.4,2426.7-145.6
	C2427.9-147,2403.8-144.4,2426.7-145.6z M1839.8-534c-15.2,24.2-29.8,47.6-45.4,72.4c8.9,1.8,15.3,3.1,22.6,4.6
	c18.1-23.8,35.8-47,55.5-73C1859-531.7,1849.8-532.8,1839.8-534C1824.6-509.8,1849.8-532.8,1839.8-534z M2059.1,971
	c1.4-27.8,2.7-55.8,4.1-84.1c-18.8,0-24,9.5-25.2,23.3c-0.8,8.7-2.4,17.3-3.4,26.1c-1.6,14.8-2.9,29.6-4.6,47.3
	C2041.7,978.6,2049.6,975.2,2059.1,971C2060.4,943.2,2049.6,975.2,2059.1,971z M1012.5-36.4c-3.8,13.8-6.6,23.6-9.3,33.5
	c21,19.8,40.8,38.5,61.1,57.7c5-10.6,10.5-18.8,2.3-28.2C1049.5,6.9,1032.6-13,1012.5-36.4C1008.7-22.6,1032.6-13,1012.5-36.4z
	 M2407.4-11.3c29.5,5.7,58.1,11.2,89,17.1c-4.7-14.2-2.7-30.2-19.1-32.2c-24-3-48.2-3.2-72.4-4.5c-0.8,0-1.6,1.7-3.2,3.3
	C2403.3-23.2,2405-18.2,2407.4-11.3C2437-5.6,2405-18.2,2407.4-11.3z M1044,166.2c0-11.4,3.2-22.1-0.5-25.7
	c-20.1-19.6-41.8-37.4-64.8-57.3c-2.8,12.9-4.6,21.4-6.8,31.6C994.7,131,1017.5,147.3,1044,166.2
	C1044,154.8,1017.5,147.3,1044,166.2z M2133.3,934.1c-2-27.6-3.9-55.4-6.1-86c-8.7,4.6-14.3,7.6-19.2,10.2
	c-1.5,31.2-2.9,60.3-4.5,93C2115.5,944.3,2123.5,939.7,2133.3,934.1C2131.3,906.5,2123.5,939.7,2133.3,934.1z M2188.2,806.9
	c-1.4-0.7-2.8-1.4-4.1-2.1c-5.1,7-14.7,14-14.6,20.9c0.5,26.9,4.1,53.8,6.6,81.3c24-11.8,27.4-15.5,25-31
	C2197.3,852.9,2192.5,829.9,2188.2,806.9C2186.8,806.2,2192.5,829.9,2188.2,806.9z M2209.7,882.5c11.9-7.5,27.3-10.2,24.1-26.1
	c-5-24.6-11.2-48.9-17.3-75.4c-7.9,6-13.7,10.4-18.7,14.3C2201.9,825.5,2205.8,854,2209.7,882.5C2221.6,875,2205.8,854,2209.7,882.5
	z M1738,960.1c-1-1.5-2-3-3-4.5c-7.7,2.2-18.5,1.8-22.5,6.9c-16.5,21-31,43.6-47.5,67.5c12.3,1.8,21.5,3.1,31.6,4.6
	C1710.8,1009.2,1724.4,984.6,1738,960.1C1737,958.6,1724.4,984.6,1738,960.1z M1142.5-254.6c12.3,26.4,24,51.3,35.9,76.7
	c13.9-9.6,16.4-19.3,10.6-32.8c-7.2-16.6-12.2-34.2-18.4-51.2c-1.9-5.1-5-9.8-8.4-16.3C1154.9-269.4,1149.3-262.8,1142.5-254.6
	C1154.9-228.3,1149.3-262.8,1142.5-254.6z M2258.6-248.9c5.5,15.6,13.7,20.7,28.5,16.2c11.5-3.5,23.8-4.3,35.6-6.6
	c11.9-2.4,23.7-5.2,35.6-7.8c0.4-1.6,0.8-3.3,1.3-4.9c-7-6.2-13.9-12.5-21.3-19.1C2312-263.9,2286.1-256.6,2258.6-248.9
	C2264-233.3,2286.1-256.6,2258.6-248.9z M2205.5-300c-0.6,2-1.2,4-1.8,6.1c6.6,3.3,14.1,10.4,19.6,9.1c27-6.2,53.4-14.6,81.1-22.5
	c-17.8-21.9-20.4-23.8-31.8-19.5C2250.1-318.3,2227.8-309,2205.5-300C2204.9-297.9,2227.8-309,2205.5-300z M1253.2-365.5
	c-10.6,11.5-26,15-22.5,30c5.7,24.4,13.9,48.2,22,75.3c7.8-6.8,13.1-11.4,17.6-15.3C1264.5-305.6,1259.2-333.6,1253.2-365.5
	C1242.5-354,1259.2-333.6,1253.2-365.5z M2438.7,95.1c28.5,10.1,56.1,19.8,87.4,30.8c-3-13.7-5.1-23.8-7.1-33.1
	c-28.2-6.8-54-13-81.3-19.5C2438.1,82.1,2438.3,87.3,2438.7,95.1C2467.2,105.2,2438.3,87.3,2438.7,95.1z M2446.5,131.7
	c28.2,11.7,55.6,23,86.3,35.8c-2.9-14.6-4.9-24.2-6.9-34c-26.6-7.9-52.5-15.6-79.5-23.6C2446.5,118.6,2446.5,123.8,2446.5,131.7
	C2474.7,143.3,2446.5,123.8,2446.5,131.7z M2535.6,208.5c-2.2-15.1-3.6-24.3-5-34.1c-26-9.4-51.7-18.7-77.4-28
	c-1.4,1-2.8,2.1-4.2,3.1c2.5,6.9,3,17.4,7.8,20.1C2481.1,183.2,2506.7,194.6,2535.6,208.5C2533.4,193.4,2506.7,194.6,2535.6,208.5z
	 M1039.5,240c-1-10.7,1.2-21.8-2.9-25c-22.5-17.7-46.4-33.6-71.7-51.4c0,14,0,24.1,0,34.6C988.8,211.7,1012.3,224.8,1039.5,240
	C1038.5,229.4,1012.3,224.8,1039.5,240z M1293.3-394.9c4.7,27.5,9.5,54.9,14.3,82.9c17.1-3.5,21.4-12.3,19.4-27
	c-2.2-16-2.3-32.3-3.8-48.5c-0.7-7.6-2.5-15.2-4.1-25C1309.3-405.8,1302.2-400.9,1293.3-394.9
	C1298.1-367.4,1302.2-400.9,1293.3-394.9z M1327.3-417.8c3.5,28.5,6.8,56.1,10.2,83.8c1.6,0.7,3.2,1.4,4.7,2.2
	c4.9-6.1,13.7-12,14.1-18.4c1.6-26.9,0.7-54,0.7-84.8C1345-428.1,1336.5-423.2,1327.3-417.8C1330.8-389.3,1336.5-423.2,1327.3-417.8
	z M985.4,442.3c28.3,5.7,55.6,11.1,85.8,17.2c-3-9.9-5.1-16.5-7.3-23.7c-28.3-8.2-55.9-16.3-86.3-25.2
	C980.8,423.2,982.8,431.6,985.4,442.3C1013.8,447.9,982.8,431.6,985.4,442.3z M2076.8-467.3c-22.2,18.7-43,36.3-63.8,53.9
	c0.3,1.7,0.6,3.4,0.9,5.1c7.3,1.3,16.7,6.2,21.4,3.3c23.7-14.4,46.2-30.8,71.6-48.2C2094.7-458.9,2086.3-462.9,2076.8-467.3
	C2054.6-448.6,2086.3-462.9,2076.8-467.3z M2420.8,478c-8.5,10.9-10.6,20-0.7,30.8c8.7,9.4,15.5,20.5,23.5,30.7
	c7.3,9.2,15,18.2,24,29.1c4.8-12,8.3-20.6,12-29.7c-17.7-18.9-34.8-37.3-51.9-55.6C2425.9,481.4,2423.6,480.1,2420.8,478
	C2412.4,488.9,2423.6,480.1,2420.8,478z M1905.5-446.2c20.3,9.7,20.6,9.7,33.8-3.1c14.1-13.6,28.2-27.3,42.2-41.2
	c3-3,5.1-6.7,9.7-12.8c-14.5,0.8-25.1-12.8-36.6,0.4C1938.7-484.4,1922.8-466.1,1905.5-446.2
	C1925.8-436.5,1922.8-466.1,1905.5-446.2z M1553.6-515.2c-5.3,28.2-10.5,55.5-15.7,83.1c13.6,1.8,21.4-1.7,24.7-12.5
	c7.5-24.8,14.8-49.6,23.1-77.6C1573.4-519.5,1564-517.5,1553.6-515.2C1548.2-487,1564-517.5,1553.6-515.2z M1665.6-531.8
	c-1.1-1.5-2.3-3.1-3.4-4.6c-9.5,3.3-24.8,4.1-27.5,10.3c-10.6,24.6-17.3,50.9-26.1,78.6c13.7-2.1,23.6-2.1,28.2-13.8
	C1646.2-484.9,1656-508.3,1665.6-531.8C1664.5-533.3,1656-508.3,1665.6-531.8z M1061.9,633.2c29.8-2.2,57.1-4.2,86.6-6.4
	c-5.2-9.4-8.4-15.1-11.3-20.4c-30.1,0-58.9,0-90.2,0C1052.6,616.7,1057.1,624.7,1061.9,633.2C1091.7,631,1057.1,624.7,1061.9,633.2z
	 M2345,629c12.8,27,25.3,53.3,37.8,79.6c1.9,0.2,3.8,0.4,5.7,0.6c3.9-9.8,13.6-22.3,10.6-29c-10.6-23.5-25.7-45-40.3-69.3
	C2353,618.5,2349.1,623.6,2345,629C2357.8,656,2349.1,623.6,2345,629z M1106,702.7c28.9-5,55.8-9.6,86.4-14.9
	c-6.8-8.7-11.2-14.2-15.2-19.3c-30,2.5-58.4,4.9-90.1,7.5C1094.7,686.7,1100,694.3,1106,702.7C1134.9,697.8,1100,694.3,1106,702.7z
	 M1260.1-370.7c6.5,28.1,12.9,55.5,19.9,85.8c8.5-7.6,13.5-11.9,18.3-16.3c-4.1-29-8-57.2-12.3-87.7
	C1276.1-381.9,1269.6-377.3,1260.1-370.7C1266.6-342.6,1269.6-377.3,1260.1-370.7z M1958.6,929.7c-16.2-4.5-23.4,1.5-26.7,14.9
	c-3.2,12.9-7.6,25.6-11.3,38.5c-3.2,11.1-6,22.4-9.6,35.9c12.6-3.6,22-6.3,31.7-9.1C1948,983.1,1953.2,956.9,1958.6,929.7
	C1942.3,925.1,1953.2,956.9,1958.6,929.7z M1132.1-102.1c-14.2-25.8-28.2-51.5-42.9-78.1c-16.4,20.7-18.9,24.8-14.2,32
	c14.1,21.9,29.2,43.1,45,66.2C1124.9-90.1,1128.3-95.7,1132.1-102.1C1118-127.9,1128.3-95.7,1132.1-102.1z M1114.4-69.4
	c-15.4-25.3-30.6-50.2-46.2-75.8c-15.8,20.9-18.1,24.6-12.4,32.6c14.8,21.1,30.9,41.4,47.8,63.9
	C1108.1-57.3,1111.1-63.1,1114.4-69.4C1099-94.6,1111.1-63.1,1114.4-69.4z M1074.6,471.7c-27-6.6-55.7-13.7-88-21.6
	c4.6,13.6,7.9,23.3,11,32.4c29.1,3.8,56.1,7.3,84.3,11c-2-8.2-3.3-13.4-4.6-18.6C1077.1,474.4,1076.4,473.9,1074.6,471.7
	C1047.6,465.1,1076.4,473.9,1074.6,471.7z M1013.8,528.8c8.4,27.7,10.8,31.5,24.5,31.9c23.7,0.6,47.4,0.2,72.8,0.2
	c-3.1-7.3-5.7-13.4-8.4-19.8C1073,537,1043.8,532.9,1013.8,528.8C1022.2,556.5,1043.8,532.9,1013.8,528.8z M2169,913
	c-3.5-28.5-6.9-55.5-11-88.5c-8.4,8.8-17.5,13.9-17.8,19.5c-1.5,27.8-0.7,55.8-0.7,87.9C2151.9,923.9,2159.6,918.9,2169,913
	C2165.4,884.5,2159.6,918.9,2169,913z M2460.3,220.5c-5.6,15.4-2.5,24.2,9.8,31c17.1,9.4,33.3,20.3,50,30.3c4.1,2.5,8.9,3.7,15,6.2
	c0-11.5,0-20.1,0-30.5C2510.9,245.6,2486.4,233.4,2460.3,220.5C2454.7,235.9,2486.4,233.4,2460.3,220.5z M2531.5,297.1
	c-24-13.2-47.4-26.1-71.2-39.2c-6.8,15.1-4,24.2,9.3,31.7c14.7,8.3,28,18.9,42,28.4c5.8,3.9,11.8,7.6,19.9,12.8
	C2531.5,317.5,2531.5,308.1,2531.5,297.1C2507.4,283.9,2531.5,308.1,2531.5,297.1z M1363-439c2,29.3,3.9,56.8,6,86.6
	c7.9-4.1,13.6-7.1,19.2-10c1.5-30,2.9-58.9,4.6-91.8C1381.5-448.4,1373.4-444.3,1363-439C1365-409.6,1373.4-444.3,1363-439z
	 M2428.5,640.7c18.7-18.9,14.4-33.4,1-48.7c-12.6-14.4-23.6-30.2-37-47.6c-4.8,9.4-7.7,15.2-10.7,21
	C2397.6,590.8,2412.7,615.2,2428.5,640.7C2447.2,621.9,2412.7,615.2,2428.5,640.7z M2270.9,731.9c-2-0.2-4.1-0.5-6.1-0.7
	c-3.5,7.1-10.8,14.9-9.7,21.2c4.6,26,11.8,51.6,18.8,80.3c9.4-10.2,24.5-13.6,21-27.2C2288.5,780.6,2279.1,756.4,2270.9,731.9
	C2268.9,731.7,2279.1,756.4,2270.9,731.9z M2074.7,876.6c-2.5,29.5-4.9,58.7-7.7,91.3c12.1-5.8,20.8-10.1,27.9-13.4
	c0-30.6,0-58.2,0-87.7C2087.2,870.5,2081.3,873.4,2074.7,876.6C2072.2,906.1,2081.3,873.4,2074.7,876.6z M1705.8,1033.7
	c13.1,0,23.1,0,33.3,0c12.4-25.2,24.6-49.9,38.2-77.6c-12.6,2.4-22.9-3.2-30,9.2C1734.7,987.4,1720.9,1008.9,1705.8,1033.7
	C1718.8,1033.7,1720.9,1008.9,1705.8,1033.7z M1421.4-380.2c2.6-30.7,5.2-59.8,8-92.4c-11.7,6-19.9,10.1-27.8,14.1
	c0,28.5,0,56.1,0,85.7C1408.7-375.5,1414.2-377.5,1421.4-380.2C1424-410.9,1414.2-377.5,1421.4-380.2z M1674,605.4
	c45.4,1.6,90.9,5.9,136.1,3.6c52-2.6,98-23.3,136.1-60.2c51.4-49.7,70.8-113.9,83.2-181.1c9.7-53,10.3-106.8,8.4-160.5
	c-2-56.3-9.1-112-28.6-165.2c-22.4-61-59.4-109.2-121.7-134.4c-60.4-24.4-123.3-22.4-186.5-18.2c-12,0.8-23.9,2.4-36.7,3.7
	c0,236.9,0,472.5,0,708.5C1667.9,603,1670.9,605.3,1674,605.4C1719.4,607,1670.9,605.3,1674,605.4z"/>
</svg>
