<?xml version="1.0" encoding="iso-8859-1"?>
<!-- Generator: Adobe Illustrator 19.0.0, SVG Export Plug-In . SVG Version: 6.00 Build 0)  -->
<svg version="1.1" id="Layer_1" xmlns="http://www.w3.org/2000/svg" xmlns:xlink="http://www.w3.org/1999/xlink" x="0px" y="0px"
	 viewBox="0 0 2000 2000" style="enable-background:new 0 0 2000 2000;" xml:space="preserve">
<path d="M12.884,997.398C11.58,460.88,438.902,34.354,953.022,12.848c581.648-24.331,1025.293,441.169,1030.969,971.831
	c5.809,543.126-425.275,990.042-968.291,999.089C452.817,1993.146,9.975,1538.082,12.884,997.398z M101.877,998.262
	c-0.602,492.094,402.751,906.226,915.562,895.872c484.396-9.78,871.57-403.828,877.156-887.545
	c5.733-496.502-407.099-929.661-943.3-903.991C493.958,124.493,102.767,504.302,101.877,998.262z M998.541,1839.267
	c-465.256,1.987-837.522-380.624-842.191-832.01c-4.794-463.467,372.597-856.536,852.54-851.518
	c454.825,4.756,849.7,384.12,830.311,879.168C1822.272,1467.108,1461.902,1839.803,998.541,1839.267z M643.215,1416.125
	c17.809-0.804,33.338-2.208,48.855-2.093c110.836,0.821,221.671,1.918,332.505,2.998c54.463,0.53,108.076-6.242,160.463-20.767
	c118.633-32.894,206.948-102.76,259.111-215.697c23.775-51.474,35.054-105.873,40.702-162.183
	c6.02-60.021,4.555-119.336-9.325-177.875c-21.756-91.756-72.479-162.121-157.176-206.315
	c-68.473-35.728-142.361-51.507-218.519-53.428c-72.638-1.832-145.412,2.458-218.133,2.969
	c-73.455,0.516-146.92-0.307-220.381-0.538c-7.114-0.022-14.229-0.003-21.525-0.003c0,10.537,0,18.545,0,28.135
	c17.42,5.485,34.566,10.994,51.78,16.283c43.079,13.235,44.058,13.192,44.216,59.179c0.641,185.708,0.724,371.419,0.769,557.129
	c0.007,28.541-1.931,57.086-1.76,85.622c0.159,26.657-2.559,31.228-28.423,38.135c-22.556,6.024-45.086,12.145-68.567,18.476
	C639.697,1396.624,641.241,1405.183,643.215,1416.125z M368.823,1323.809c-30.646-2.07-59.123-3.993-91.124-6.155
	c6.655,12.378,11.301,21.019,14.679,27.303c29.986,0,57.192,0,87.021,0C374.955,1336.068,372.03,1330.22,368.823,1323.809z
	 M305.445,842.723c3.232-10.289,5.201-16.557,7.176-22.846c-20.948-22.131-41.331-43.664-63.049-66.608
	c-2.999,9.684-5.708,15.335-6.264,21.19c-0.456,4.805-0.072,11.651,2.902,14.498C264.615,806.58,283.858,823.328,305.445,842.723z
	 M1699.602,639.919c-8.028-10.459-7.46-26.939-23.038-26.714c-25.28,0.365-50.523,3.337-76.362,5.252
	c2.288,14.971,9.229,21.737,23.14,21.552C1647.638,639.686,1671.941,639.919,1699.602,639.919z M1426.028,339.324
	c-0.143-2.025-0.286-4.049-0.43-6.074c-10.38-2.859-23.595-11.202-30.62-7.571c-23.164,11.974-44.089,28.279-65.873,42.921
	c0.082,1.481,0.164,2.963,0.246,4.444c7.968,2.021,17.803,8.057,23.58,5.369C1377.943,366.774,1401.77,352.586,1426.028,339.324z
	 M1250.144,252.54c-20.005,21.103-41.075,39.204-60.02,62.806c10.474,3.21,16.586,5.083,22.513,6.899
	c22.899-19.649,45.001-38.616,69.53-59.664C1269.464,258.597,1260.66,255.837,1250.144,252.54z M1674.888,1399.433
	c-15.875-23.611-31.354-46.634-48.455-72.068c-5.597,9.876-8.855,15.627-11.927,21.047c14.275,26.139,28.107,51.468,43.665,79.956
	C1664.76,1416.963,1669.675,1408.456,1674.888,1399.433z M1756.302,794.38c-4.081-28.18-1.442-29.982-30.128-34.565
	c-15.208-2.429-30.473-4.52-45.742-6.539c-5.055-0.669-10.202-0.637-20.086-1.195c6.812,10.109,10.089,21.051,16.131,22.886
	C1702.424,782.847,1729.184,788.049,1756.302,794.38z M408.8,1390.885c-32.379,0-61.606,0-93.336,0
	c6.792,10.787,11.722,18.617,17.326,27.518c28.541-3.448,56.368-6.809,85.93-10.38C414.577,1400.867,411.31,1395.222,408.8,1390.885
	z M1617.518,650.025c4.587,10.844,5.385,21.473,17.432,22.529c26.713,2.342,53.488,3.981,83.779,6.161
	c-6.25-11.967-10.745-20.575-14.984-28.69C1674.969,650.025,1647.91,650.025,1617.518,650.025z M1533.046,528.734
	c5.785,17.153,15.914,21.368,30.744,17.394c6.454-1.73,13.334-1.844,20.005-2.797c16.517-2.358,33.026-4.777,52.175-7.554
	c-7.887-10.224-13.897-18.017-19.962-25.88C1587.827,516.296,1561.029,522.381,1533.046,528.734z M725.278,259.664
	c-2.814,28.731-5.43,55.445-8.376,85.515c9.571-3.292,16.645-5.725,23.009-7.914c5.328-30.134,10.295-58.229,15.742-89.037
	C743.239,252.902,734.603,256.153,725.278,259.664z M1683.259,1191.083c-10.033,12.687-9.767,22.117,0.065,32.386
	c11.236,11.736,20.984,24.886,31.636,37.199c5.43,6.277,11.422,12.067,17.161,18.076c1.519-0.605,3.037-1.21,4.556-1.815
	c1.059-10.172,6.887-24.275,2.323-29.81C1722.398,1226.985,1702.319,1209.717,1683.259,1191.083z M500.469,1608.889
	c11.862,8.46,20.308,14.484,28.253,20.15c25.758-13.865,49.795-26.803,74.199-39.938c-9.277-13.224-18.109-15.222-30.926-9.306
	C550.191,1589.86,527.51,1598.026,500.469,1608.889z M290.282,1063.179c1.748-22.019,1.795-22.104-12.714-30.208
	c-15.874-8.866-31.771-17.698-47.822-26.236c-5.512-2.932-11.519-4.935-19.992-8.492c2.765,14.527-5.884,28.205,10.46,35.114
	C243.043,1043.007,265.826,1052.763,290.282,1063.179z M527.176,1527.916c-28.872,8.663-56.644,16.997-88.039,26.417
	c10.728,9.005,18.273,15.338,26.3,22.075c25.938-10.637,51.518-21.127,80.349-32.951
	C537.551,1536.58,532.135,1532.058,527.176,1527.916z M1699.84,1357.184c5.386-12.569,9.397-21.928,13.292-31.018
	c-18.85-22.336-36.645-43.422-55.905-66.243c-3.992,8.974-6.896,15.503-9.728,21.87
	C1664.687,1306.551,1681.119,1330.219,1699.84,1357.184z M323.504,768.301c1.74-0.298,3.48-0.596,5.22-0.894
	c0.937-7.602,5.438-17.612,2.205-22.395c-15.495-22.922-33.083-44.43-51.753-68.826c-5.048,12.682-8.651,21.735-12.267,30.819
	C286.324,728.034,304.914,748.168,323.504,768.301z M1475.816,1520.916c5.699,29.927,11.146,58.536,16.817,88.317
	c25.766-17.836,25.754-17.832,18.572-43.663c-1.079-3.883-1.812-7.867-3.002-11.713c-4.828-15.601-9.772-31.166-15.82-50.391
	C1484.838,1511.413,1480.239,1516.257,1475.816,1520.916z M468.266,527.392c-8.56-28.571-16.98-56.676-25.4-84.781
	c-1.561-0.483-3.122-0.967-4.683-1.45c-5.366,9.359-16.929,20.352-14.971,27.78c6.681,25.344,18.121,49.433,28.515,75.967
	C458.711,537.511,463.27,532.683,468.266,527.392z M1006.829,212.348c-12.144,25.13-24.229,50.136-37.261,77.102
	c10.5,0,17.098,0,23.649,0c15.474-25.479,30.585-50.361,46.826-77.102C1026.98,212.348,1017.611,212.348,1006.829,212.348z
	 M1468.345,366.683c-26.095,13.879-50.502,26.86-77.135,41.025c8.576,6.049,13.912,9.813,19.685,13.886
	c27.272-11.394,54.106-22.605,83.774-35C1484.309,378.758,1476.896,373.15,1468.345,366.683z M1682.796,1179.358
	c21.292,17.946,43.836,36.947,65.508,55.212c1.682-5.858,12.322-17.507,2.085-27.919c-18.239-18.552-38.958-34.667-59.803-52.813
	C1687.907,1162.614,1686.001,1168.858,1682.796,1179.358z M537.683,1632.224c-0.388,1.977-0.775,3.953-1.163,5.93
	c9.425,4.064,21.554,14.018,27.796,11.151c24.513-11.256,47.172-26.552,70.519-40.348c-0.35-2.076-0.699-4.152-1.049-6.229
	c-8.526-1.345-18.42-6.146-25.329-3.41C584.31,1608.882,561.193,1621.047,537.683,1632.224z M217.694,907.39
	c24.62,15.234,47.684,29.506,71.554,44.276c3.989-22.984,3.865-22.82-11.378-34.302c-18.552-13.974-36.868-28.259-58.331-44.749
	C218.801,886.531,218.283,896.284,217.694,907.39z M669.11,1625.882c-9.933-5.324-16.199-8.683-21.983-11.783
	c-26.477,14.639-51.651,28.558-79.108,43.739c11.302,6.713,19.73,11.719,28.5,16.928
	C620.135,1658.862,643.069,1643.418,669.11,1625.882z M1704.124,1080.969c-5.828,22.617-5.848,22.64,7.464,33.939
	c13.97,11.857,27.951,23.703,42,35.467c4.27,3.576,8.78,6.866,14.546,11.349c2.402-12.231,4.2-21.389,6.09-31.013
	C1750.912,1114.169,1728.401,1098.195,1704.124,1080.969z M230.238,825.045c22.869,17.833,44.674,34.835,67.621,52.728
	c2.58-8.22,4.54-14.466,6.803-21.678c-21.636-21.064-42.607-42.375-67.484-62.346C234.427,806.155,232.549,814.624,230.238,825.045z
	 M388.921,1491.832c-0.674,2.01-1.349,4.02-2.023,6.03c8.208,5.814,17.391,17.546,24.451,16.383
	c25.954-4.274,51.203-12.826,77.813-20.067c-12.435-17.632-12.535-18.24-27.243-15.811
	C437.51,1482.397,413.246,1487.298,388.921,1491.832z M306.722,1172.175c1.319-1.062,2.638-2.124,3.958-3.186
	c-3.003-6.915-4.288-17.965-9.299-20.048c-25.125-10.445-51.226-18.543-78.841-28.109c-0.138,15.153-1.899,29.31,12.331,33.789
	C258.338,1162.006,282.723,1166.476,306.722,1172.175z M631.989,1695.505c23.455-17.769,45.69-34.615,67.926-51.46
	c-0.246-1.712-0.493-3.424-0.739-5.136c-7.974-1.423-17.964-6.615-23.573-3.616c-24.013,12.841-46.735,28.097-71.939,43.719
	C614.382,1685.254,622.406,1689.925,631.989,1695.505z M1765.954,1170.731c-22.206-17.396-44.275-34.684-67.484-52.866
	c-2.637,8.043-4.645,14.168-7.155,21.826c22.08,20.569,44.12,41.1,67.77,63.131
	C1761.876,1189.783,1763.815,1180.725,1765.954,1170.731z M1643.764,705.38c30.216,3.766,58.723,7.319,90.294,11.253
	c-5.309-12.267-9.189-21.233-12.762-29.489c-29.7-1.448-57.428-2.8-87.641-4.273C1637.901,692.324,1640.591,698.313,1643.764,705.38
	z M1676.314,786.873c1.022,18.177,7.746,25.782,22.047,28.116c10.513,1.716,20.516,6.388,30.865,9.324
	c11.955,3.392,24.04,6.325,36.775,9.641c-1.895-28.858-1.846-29.085-27.366-34.63
	C1718.51,794.951,1698.244,791.228,1676.314,786.873z M218.582,1080.289c-1.898,1.8-2.862,2.324-2.813,2.725
	c1.108,9.176,2.326,18.338,3.676,28.672c26.672,8.177,53.124,16.287,82.128,25.18c-1.368-10.492-2.205-16.918-3.057-23.448
	C270.97,1102.001,244.406,1090.992,218.582,1080.289z M282.593,668.557c18.897,22.727,36.841,44.309,55.865,67.188
	c4.354-8.773,7.568-15.247,10.558-21.273c-17.294-25.03-33.887-49.046-51.903-75.121
	C291.663,650.314,287.589,658.509,282.593,668.557z M1047.724,214.108c-12.87,23.427-26.289,47.851-39.707,72.275
	c1.156,1.66,2.312,3.319,3.469,4.979c7.542-2.244,18.199-2.093,22.084-7.148c16.652-21.662,31.31-44.856,48.471-70.106
	C1068.803,214.108,1059.058,214.108,1047.724,214.108z M1783.814,998.416c3.539-25.039,3.503-30.393-4.655-34.168
	c-23.567-10.906-47.665-20.666-71.555-30.876c-1.44,1.012-2.881,2.024-4.321,3.036c2.029,7.045,1.837,17.658,6.46,20.534
	C1733.465,971.705,1758.426,984.477,1783.814,998.416z M210.809,957.185c1.715,13.905-7.283,27.312,7.811,35.03
	c22.189,11.345,44.817,21.832,67.535,32.819c4.199-21.449,4.192-21.437-10.664-30.672c-16.103-10.011-32.11-20.181-48.339-29.983
	C222.808,961.755,217.81,960.219,210.809,957.185z M215.72,1071.242c25.92,9.438,51.615,18.794,77.582,28.25
	c3.473-20.662,3.365-21.367-11.335-28.457c-18.765-9.051-37.671-17.815-56.627-26.459c-3.821-1.742-8.138-2.396-14.218-4.114
	C212.859,1052.098,214.216,1061.179,215.72,1071.242z M795.341,237.713c-30.27,7.488-30.245,7.492-34.549,34.496
	c-0.424,2.659-1.706,5.193-2.04,7.854c-2.075,16.537-3.993,33.094-6.057,50.429c15.186-0.463,22.658-5.455,25.324-19.542
	C782.596,286.781,789.24,263.003,795.341,237.713z M906.156,1779.874c15.014-23.961,29.766-47.504,44.863-71.598
	c-20.396-6.865-21.014-6.852-30.26,4.833c-5.442,6.877-10.397,14.136-15.648,21.166c-9.831,13.161-19.717,26.281-30.358,40.454
	C886.171,1776.599,894.776,1778.009,906.156,1779.874z M1129.704,222.848c-15.807,22.837-31.535,45.557-47.261,68.278
	c1.029,1.668,2.058,3.336,3.087,5.004c7.7-1.387,18.238-0.06,22.609-4.631c18.803-19.661,35.795-41.053,55.552-64.292
	C1150.332,225.494,1140.643,224.251,1129.704,222.848z M717.184,262.245c-11.303,4.826-19.84,8.471-30.145,12.872
	c-1.312,27.838-2.625,55.697-3.992,84.699c12.915-1.908,22.041-4.06,23.633-15.657C710.231,318.302,713.349,292.387,717.184,262.245
	z M1000.122,208.947c-15.987,3.235-31.208-3.603-38.459,13.011c-9.631,22.069-18.687,44.389-28.429,67.648
	c8.449,0,15.691,0,23.381,0C970.703,263.489,984.592,237.739,1000.122,208.947z M452.015,1447.957
	c-30.611,3.835-59.686,7.477-91.992,11.524c8.222,10.512,14.623,18.696,20.672,26.43c28.365-6.573,54.936-12.73,83.446-19.336
	C459.498,1459.445,456.349,1454.611,452.015,1447.957z M1079.976,1778.834c22.265,1.943,31.065-0.305,34.549-10.816
	c7.871-23.743,14.699-47.832,21.94-71.743c-15.592-4.592-23.4,0.584-28.341,13.692
	C1099.6,1732.584,1089.895,1754.755,1079.976,1778.834z M1314.96,364.582c25.807-15.967,50.514-31.254,78.076-48.307
	c-12.311-6.411-20.476-10.664-29.365-15.293c-23.065,17.385-45.267,34.119-68.823,51.873
	C1302.906,357.554,1308.129,360.599,1314.96,364.582z M1528.198,1468.98c8.511,28.384,16.859,56.224,25.207,84.065
	c1.629,0.219,3.259,0.438,4.888,0.657c5.316-8.839,16.728-19.336,14.857-26.222c-6.889-25.352-18.18-49.508-28.84-76.728
	C1537.233,1458.758,1532.873,1463.691,1528.198,1468.98z M876.624,219.238c-13.674,3.034-23.245,5.158-32.834,7.285
	c-7.055,27.871-13.879,54.831-21.361,84.393c9.881-2.427,16.704-4.102,23.561-5.786C855.94,277.229,865.615,250.103,876.624,219.238
	z M1119.502,1776.437c12.835-2.66,22.321-4.626,32.796-6.798c6.974-27.239,13.861-54.136,21.098-82.405
	c-11.367-0.673-20.648-1.328-24.86,9.994C1139.077,1722.658,1129.845,1748.173,1119.502,1776.437z M925.705,212.995
	c-9.906,27.2-19.471,53.465-29.333,80.545c8.313,0,14.912,0,22.531,0c12.784-26.654,25.394-52.946,38.631-80.545
	C945.967,212.995,937.207,212.995,925.705,212.995z M1526.911,413.907c-10.763-9.012-18.695-15.654-26.158-21.903
	c-26.759,12.596-51.885,24.424-77.566,36.512c10.078,13.381,19.444,15.323,33.04,9.668
	C1477.747,429.234,1500.34,422.864,1526.911,413.907z M476.117,515.207c17.131-13.142,17.086-13.132,12.99-30.81
	c-5.342-23.056-10.605-46.131-16.362-71.202c-12.671,9.021-25.592,14.881-21.321,29.638
	C458.445,467.094,467.638,490.726,476.117,515.207z M435.176,1547.931c26.957-9.442,52.98-18.557,81.736-28.629
	c-6.842-7.351-11.244-12.082-16.018-17.211c-29.25,7.326-57.677,14.446-87.941,22.026
	C422.103,1533.922,428.463,1540.737,435.176,1547.931z M679.614,1714.22c0.031,1.766,0.062,3.532,0.093,5.297
	c11.651-0.783,20.915,15.024,33.302,4.395c19.296-16.559,37.288-34.637,57.503-53.642c-8.25-3.575-14.776-6.403-21.305-9.233
	C725.385,1679.241,702.499,1696.73,679.614,1714.22z M1279.069,1650.516c-15.735,2.378-24.503,6.58-24.862,21.872
	c-0.249,10.579-4.757,20.996-6.612,31.616c-2.347,13.44-3.932,27.012-6.228,43.232c12.366-4.748,21.002-8.064,29.627-11.376
	C1273.708,1707.178,1276.304,1679.732,1279.069,1650.516z M388.027,503.762c-2.179-0.134-4.357-0.268-6.536-0.401
	c-3.821,10.149-13.352,22.545-10.406,30.032c9.333,23.726,23.327,45.618,36.689,70.388c6.334-8.161,10.322-13.3,14.152-18.235
	C410.391,557.717,399.209,530.739,388.027,503.762z M401.898,617.204c-13.625-28.062-26.507-54.593-40.548-83.511
	c-7.31,11.449-12.294,19.255-17.987,28.172c14.528,24.092,28.789,47.741,43.956,72.892
	C393.272,627.588,397.09,622.991,401.898,617.204z M1704.033,1067.761c23.954,18.155,46.845,35.504,73.015,55.338
	c0-14.896,0-24.719,0-35.496c-22.808-14.165-46.113-28.639-71.552-44.438C1704.909,1053.039,1704.517,1059.625,1704.033,1067.761z
	 M1603.409,1500.196c-6.085-13.535-11.693-26.414-17.645-39.133c-5.805-12.406-11.96-24.648-18.306-37.669
	c-15.514,14.985-15.613,15.019-10.199,30.985c5.391,15.899,10.909,31.757,16.578,47.559c2.541,7.082,5.586,13.982,9.482,23.643
	C1591.505,1515.238,1597.281,1507.939,1603.409,1500.196z M1608.091,1491.188c2.376,0.162,4.752,0.323,7.127,0.485
	c3.522-10.117,12.529-22.398,9.55-29.952c-9.402-23.844-23.295-45.917-36.538-70.711c-5.98,8.501-10.129,14.401-13.914,19.781
	C1585.942,1438.464,1597.016,1464.826,1608.091,1491.188z M249.788,1240.091c9.582,32.381,10.128,32.651,36.731,34.082
	c12.184,0.655,24.309,2.375,36.489,3.185c7.039,0.468,14.134,0.085,21.472,0.085c-1.504-16.339-8.26-22.7-23.41-24.323
	C297.937,1250.642,275.152,1244.906,249.788,1240.091z M555.97,1551.637c-28.7,10.24-56.073,20.006-85.621,30.549
	c11.616,9.016,18.11,23.752,33.697,17.244c23.284-9.722,45.833-21.203,70.119-32.605
	C567.253,1561.056,562.118,1556.769,555.97,1551.637z M1063.508,1705.67c-11.357-2.109-21.121-3.577-26.83,6.547
	c-13.13,23.283-25.538,46.973-38.902,71.728c12.028,0,21.455,0,32.169,0C1040.973,1758.225,1052.005,1732.496,1063.508,1705.67z
	 M1200.134,240.541c-0.08-1.92-0.161-3.841-0.241-5.761c-10.763-0.36-26.314-5.43-31.427-0.233
	c-18.162,18.464-32.766,40.428-49.143,61.615c11.381,8.152,20.33,9.407,29.63-0.873
	C1165.711,276.766,1183.042,258.762,1200.134,240.541z M1289.473,266.508c-21.081,19.302-41.925,38.387-62.859,57.555
	c12.556,11.921,22.96,11.124,34.235,0.019c7.114-7.006,16.421-11.73,24.356-17.972c10.7-8.417,21.027-17.31,33.548-27.683
	C1306.981,273.634,1298.508,270.186,1289.473,266.508z M1099.734,1702.761c-1.244-1.782-2.488-3.565-3.732-5.347
	c-7.495,4.152-18.339,6.435-21.885,12.79c-13.014,23.323-23.603,47.998-35.359,72.698c28.606,2.56,31.106,1.342,39.796-21.572
	C1085.915,1741.921,1092.697,1722.292,1099.734,1702.761z M913.331,1705.576c-0.441-1.599-0.882-3.199-1.323-4.798
	c-7.205,0.507-17.322-1.856-21.127,2.003c-19.669,19.953-37.723,41.499-57.668,63.986c15.003,4.436,27.69,11.778,37.141-0.229
	C885.712,1747.029,899.108,1725.977,913.331,1705.576z M876.799,1699.977c-1.072-2.36-2.143-4.719-3.215-7.079
	c-8.321,2.111-19.019,1.667-24.531,6.796c-19.083,17.758-36.362,37.456-57.322,59.575c15.376-0.135,26.92,12.302,37.458,0.358
	C846,1740.574,861.021,1719.942,876.799,1699.977z M1379.752,401.061c27.414-13.109,53.596-25.628,82.843-39.614
	c-11.888-7.805-20.158-13.235-28.235-18.538c-24.504,14.839-47.957,29.04-73.451,44.478
	C1368.474,392.877,1374.223,397.049,1379.752,401.061z M753.063,1746.377c13.408,3.613,22.844,6.156,32.65,8.799
	c18.545-21.383,36.454-42.034,55.593-64.102c-11.083-4.993-19.023-9.55-27.035-2.184
	C794.896,1706.699,775.878,1724.897,753.063,1746.377z M746.395,1743.577c19.51-20.538,38.747-40.787,57.984-61.036
	c-0.75-1.792-1.5-3.585-2.25-5.377c-7.374,0-17.067-3.039-21.726,0.517c-22.222,16.963-43.077,35.717-65.903,55.096
	C726.539,1736.854,735.304,1739.822,746.395,1743.577z M1243.766,1666.467c-16.565-1.582-22.797,5.012-25.372,17.668
	c-3.861,18.977-8.889,37.715-13.27,56.59c-1.289,5.553-2.067,11.226-3.297,18.055c8.804-2.806,15.588-4.066,21.427-7.128
	c4.277-2.243,9.831-6.441,10.489-10.474C1237.725,1716.781,1240.461,1692.181,1243.766,1666.467z M1581.286,472.645
	c0.675-1.985,1.35-3.971,2.025-5.956c-9.26-5.637-19.897-17.473-27.529-15.778c-25.402,5.64-49.726,16.139-76.308,25.419
	c6.58,7.027,11.089,11.843,15.848,16.925C1524.507,486.258,1552.896,479.452,1581.286,472.645z M1567.313,577.073
	c29.67-2.142,58.775-4.243,88.605-6.397c-8.688-22.848-13.995-28.576-25.086-26.651c-24.281,4.214-48.471,8.958-74.349,13.793
	C1560.307,564.617,1563.466,570.233,1567.313,577.073z M639.523,1698.59c29.19,14.448,29.222,14.488,50.853-3.133
	c8.37-6.818,16.606-13.804,24.81-20.821c6.342-5.425,12.541-11.018,18.803-16.537c-0.521-1.477-1.041-2.953-1.562-4.43
	c-7.479-1.003-17.026-5.453-22.083-2.42C686.941,1665.289,664.785,1681.408,639.523,1698.59z M1676.667,604.402
	c1.185-1.418,2.371-2.836,3.556-4.255c-7.564-7.347-15.151-20.935-22.689-20.908c-25.934,0.094-51.851,4.95-78.012,8.019
	c4.018,17.272,13.149,22.544,28.443,21.104C1630.789,606.213,1653.76,605.643,1676.667,604.402z M1089.823,216.006
	c-15.19,24.232-29.813,47.559-45.373,72.382c8.893,1.793,15.302,3.085,22.613,4.56c18.098-23.786,35.76-46.998,55.52-72.968
	C1109.031,218.336,1099.786,217.215,1089.823,216.006z M1309.083,1721.041c1.358-27.805,2.726-55.788,4.107-84.062
	c-18.787-0.017-23.987,9.534-25.213,23.268c-0.778,8.715-2.443,17.347-3.378,26.051c-1.587,14.778-2.912,29.585-4.633,47.317
	C1291.686,1728.555,1299.559,1725.155,1309.083,1721.041z M262.502,713.621c-3.828,13.789-6.554,23.61-9.288,33.456
	c20.992,19.82,40.796,38.517,61.144,57.729c5.012-10.634,10.512-18.835,2.337-28.2C299.51,756.919,282.589,737.003,262.502,713.621z
	 M1657.448,738.729c29.547,5.688,58.121,11.19,88.957,17.126c-4.679-14.209-2.745-30.202-19.094-32.231
	c-23.952-2.972-48.242-3.228-72.396-4.482c-0.772-0.04-1.635,1.663-3.173,3.332C1653.257,726.791,1655.005,731.768,1657.448,738.729
	z M293.992,916.168c0-11.368,3.187-22.075-0.531-25.7c-20.063-19.563-41.839-37.37-64.759-57.291
	c-2.775,12.898-4.602,21.387-6.803,31.612C244.694,881.035,267.498,897.286,293.992,916.168z M1383.26,1684.119
	c-1.96-27.643-3.93-55.428-6.099-86.022c-8.697,4.628-14.329,7.625-19.153,10.191c-1.501,31.19-2.902,60.324-4.474,92.986
	C1365.531,1694.35,1373.518,1689.741,1383.26,1684.119z M1438.173,1556.909c-1.379-0.704-2.757-1.408-4.136-2.113
	c-5.123,6.963-14.712,14.011-14.58,20.873c0.516,26.916,4.097,53.774,6.602,81.342c23.972-11.844,27.427-15.503,24.953-30.991
	C1447.318,1602.889,1442.508,1579.936,1438.173,1556.909z M1459.708,1632.494c11.897-7.524,27.335-10.248,24.086-26.123
	c-5.032-24.583-11.168-48.94-17.301-75.397c-7.906,6.013-13.665,10.393-18.749,14.259
	C1451.887,1575.457,1455.797,1603.975,1459.708,1632.494z M988.037,1710.104c-1.011-1.49-2.022-2.98-3.032-4.47
	c-7.69,2.162-18.525,1.846-22.52,6.918c-16.53,20.982-30.991,43.595-47.535,67.521c12.319,1.792,21.512,3.129,31.643,4.602
	C960.77,1759.164,974.403,1734.634,988.037,1710.104z M392.535,495.369c12.349,26.373,24.044,51.349,35.928,76.73
	c13.92-9.633,16.38-19.326,10.561-32.827c-7.165-16.621-12.153-34.171-18.439-51.187c-1.887-5.109-4.965-9.779-8.363-16.314
	C404.882,480.57,399.345,487.207,392.535,495.369z M1508.58,501.073c5.468,15.607,13.699,20.661,28.469,16.184
	c11.493-3.483,23.777-4.289,35.637-6.649c11.899-2.368,23.708-5.187,35.556-7.808c0.423-1.644,0.845-3.288,1.268-4.932
	c-6.973-6.249-13.945-12.498-21.284-19.076C1561.967,486.138,1536.135,493.365,1508.58,501.073z M1455.47,450.032
	c-0.595,2.021-1.19,4.042-1.786,6.064c6.59,3.251,14.066,10.37,19.62,9.098c26.954-6.173,53.393-14.595,81.073-22.524
	c-17.818-21.901-20.353-23.835-31.765-19.496C1500.084,431.738,1477.834,441.036,1455.47,450.032z M503.154,384.513
	c-10.626,11.52-25.995,15.05-22.52,29.967c5.682,24.393,13.907,48.194,21.972,75.314c7.802-6.787,13.076-11.375,17.623-15.33
	C514.526,444.421,509.211,416.419,503.154,384.513z M1688.681,845.146c28.538,10.073,56.125,19.81,87.399,30.85
	c-2.962-13.736-5.128-23.779-7.134-33.08c-28.225-6.786-53.956-12.972-81.285-19.542
	C1688.068,832.064,1688.314,837.323,1688.681,845.146z M1696.451,881.652c28.212,11.698,55.565,23.039,86.341,35.8
	c-2.938-14.554-4.876-24.154-6.859-33.972c-26.63-7.892-52.496-15.557-79.482-23.555
	C1696.451,868.561,1696.451,873.843,1696.451,881.652z M1785.566,958.543c-2.214-15.11-3.558-24.289-4.991-34.072
	c-26.011-9.402-51.729-18.698-77.447-27.994c-1.413,1.045-2.826,2.09-4.239,3.135c2.477,6.892,2.954,17.411,7.768,20.065
	C1731.103,933.156,1756.672,944.595,1785.566,958.543z M289.483,990.028c-1.002-10.674,1.173-21.751-2.876-24.95
	c-22.456-17.742-46.426-33.568-71.735-51.356c0,14.031,0,24.088,0,34.648C238.797,961.729,262.28,974.84,289.483,990.028z
	 M543.343,355.108c4.749,27.474,9.496,54.934,14.334,82.921c17.086-3.51,21.409-12.33,19.364-26.971
	c-2.238-16.018-2.305-32.328-3.78-48.468c-0.698-7.632-2.474-15.165-4.146-25.008C559.316,344.245,552.235,349.061,543.343,355.108z
	 M577.28,332.199c3.474,28.481,6.848,56.145,10.222,83.809c1.579,0.721,3.159,1.442,4.738,2.163
	c4.916-6.132,13.695-12.034,14.074-18.434c1.592-26.904,0.673-53.956,0.673-84.777C595.003,321.913,586.545,326.822,577.28,332.199z
	 M235.449,1192.255c28.348,5.669,55.631,11.126,85.813,17.162c-3.047-9.851-5.116-16.54-7.338-23.723
	c-28.254-8.242-55.949-16.321-86.292-25.172C230.753,1173.193,232.824,1181.6,235.449,1192.255z M1326.761,282.708
	c-22.182,18.725-43.016,36.311-63.849,53.897c0.295,1.698,0.589,3.397,0.883,5.095c7.263,1.308,16.695,6.191,21.425,3.322
	c23.732-14.397,46.234-30.822,71.646-48.232C1344.706,291.103,1336.255,287.149,1326.761,282.708z M1670.838,1227.966
	c-8.458,10.912-10.646,20.021-0.659,30.832c8.693,9.41,15.51,20.53,23.468,30.65c7.271,9.247,14.96,18.165,24.013,29.096
	c4.848-12.013,8.307-20.583,11.969-29.657c-17.666-18.933-34.756-37.302-51.94-55.584
	C1675.946,1231.45,1673.643,1230.123,1670.838,1227.966z M1155.494,303.829c20.272,9.652,20.561,9.691,33.811-3.068
	c14.146-13.62,28.232-27.305,42.156-41.151c2.972-2.956,5.132-6.73,9.665-12.807c-14.533,0.809-25.083-12.833-36.575,0.445
	C1188.685,265.579,1172.788,283.885,1155.494,303.829z M803.578,234.806c-5.331,28.226-10.477,55.475-15.69,83.077
	c13.578,1.802,21.42-1.671,24.685-12.474c7.482-24.76,14.763-49.58,23.079-77.584C823.394,230.493,813.957,232.547,803.578,234.806z
	 M915.625,218.182c-1.142-1.529-2.284-3.059-3.426-4.588c-9.502,3.285-24.794,4.068-27.485,10.295
	c-10.623,24.586-17.293,50.88-26.087,78.618c13.663-2.067,23.624-2.135,28.245-13.831
	C896.196,265.075,906.012,241.668,915.625,218.182z M311.875,1383.233c29.824-2.202,57.079-4.214,86.6-6.393
	c-5.205-9.359-8.394-15.094-11.333-20.38c-30.128,0-58.874,0-90.228,0C302.611,1366.657,307.128,1374.74,311.875,1383.233z
	 M1595.013,1379.046c12.806,26.974,25.306,53.306,37.807,79.637c1.89,0.191,3.781,0.382,5.671,0.573
	c3.886-9.837,13.632-22.325,10.598-29.033c-10.627-23.499-25.658-45.007-40.252-69.329
	C1603.038,1368.51,1599.145,1373.621,1595.013,1379.046z M355.995,1452.748c28.905-4.994,55.782-9.637,86.448-14.935
	c-6.816-8.672-11.159-14.198-15.169-19.3c-30.038,2.502-58.443,4.868-90.096,7.504
	C344.706,1436.712,350.039,1444.288,355.995,1452.748z M510.096,379.337c6.521,28.1,12.884,55.516,19.913,85.808
	c8.549-7.588,13.452-11.941,18.332-16.273c-4.078-29.014-8.034-57.157-12.33-87.713C526.12,368.098,519.588,372.679,510.096,379.337
	z M1208.558,1679.695c-16.214-4.546-23.397,1.518-26.744,14.935c-3.23,12.948-7.615,25.604-11.254,38.456
	c-3.154,11.135-5.974,22.365-9.573,35.934c12.556-3.602,21.989-6.308,31.74-9.105
	C1198.015,1733.12,1203.18,1706.947,1208.558,1679.695z M382.132,647.925c-14.181-25.838-28.247-51.466-42.888-78.142
	c-16.377,20.736-18.895,24.788-14.242,31.996c14.119,21.872,29.182,43.135,44.97,66.233
	C374.866,659.927,378.296,654.26,382.132,647.925z M364.379,680.62c-15.399-25.254-30.624-50.224-46.202-75.772
	c-15.804,20.928-18.065,24.568-12.429,32.597c14.837,21.136,30.855,41.443,47.795,63.927
	C358.09,692.665,361.113,686.875,364.379,680.62z M324.579,1221.69c-26.962-6.614-55.664-13.654-88.047-21.598
	c4.616,13.583,7.925,23.318,11.017,32.417c29.108,3.795,56.103,7.314,84.341,10.995c-2.029-8.189-3.288-13.385-4.637-18.557
	C327.102,1224.366,326.439,1223.918,324.579,1221.69z M263.827,1278.81c8.368,27.718,10.777,31.51,24.529,31.857
	c23.707,0.598,47.441,0.166,72.827,0.166c-3.109-7.35-5.667-13.395-8.363-19.768C322.953,1286.951,293.81,1282.938,263.827,1278.81z
	 M1418.963,1662.952c-3.548-28.499-6.912-55.525-11.021-88.528c-8.364,8.804-17.494,13.91-17.796,19.492
	c-1.504,27.83-0.687,55.786-0.687,87.943C1401.904,1673.884,1409.643,1668.925,1418.963,1662.952z M1710.298,970.503
	c-5.62,15.374-2.531,24.211,9.8,30.992c17.078,9.391,33.289,20.348,50.05,30.334c4.118,2.453,8.928,3.746,15.03,6.226
	c0-11.511,0-20.146,0-30.458C1760.912,995.576,1736.398,983.432,1710.298,970.503z M1781.491,1047.107
	c-24.042-13.235-47.359-26.071-71.182-39.185c-6.781,15.129-4.015,24.171,9.308,31.676c14.662,8.258,27.979,18.892,41.956,28.382
	c5.806,3.942,11.803,7.604,19.918,12.808C1781.491,1067.542,1781.491,1058.13,1781.491,1047.107z M612.979,311.033
	c2.035,29.319,3.945,56.842,6.011,86.616c7.887-4.085,13.62-7.054,19.247-9.969c1.49-29.977,2.926-58.888,4.564-91.846
	C631.546,301.571,623.425,305.71,612.979,311.033z M1678.518,1390.743c18.698-18.87,14.447-33.398,1.039-48.68
	c-12.63-14.395-23.622-30.227-37.014-47.606c-4.796,9.424-7.736,15.203-10.701,21.028
	C1647.558,1340.824,1662.692,1365.226,1678.518,1390.743z M1520.934,1481.901c-2.039-0.228-4.077-0.455-6.116-0.683
	c-3.464,7.104-10.832,14.904-9.711,21.193c4.636,26.027,11.84,51.596,18.824,80.307c9.446-10.217,24.512-13.588,20.995-27.206
	C1538.483,1530.573,1529.094,1506.395,1520.934,1481.901z M1324.686,1626.64c-2.48,29.508-4.93,58.665-7.674,91.315
	c12.115-5.846,20.829-10.051,27.867-13.447c0-30.595,0-58.176,0-87.736C1337.171,1620.538,1331.314,1623.4,1324.686,1626.64z
	 M955.75,1783.738c13.067,0,23.084,0,33.343,0c12.393-25.187,24.554-49.901,38.205-77.644c-12.643,2.406-22.889-3.232-29.958,9.165
	C984.695,1737.433,970.897,1758.95,955.75,1783.738z M671.371,369.829c2.645-30.712,5.152-59.825,7.96-92.436
	c-11.736,5.952-19.908,10.097-27.845,14.123c0,28.523,0,56.08,0,85.713C658.733,374.531,664.19,372.501,671.371,369.829z
	 M924.027,1355.393c45.368,1.616,90.894,5.863,136.082,3.568c51.975-2.639,97.964-23.303,136.119-60.234
	c51.354-49.707,70.845-113.948,83.172-181.139c9.718-52.973,10.32-106.792,8.387-160.458c-2.026-56.259-9.09-111.958-28.59-165.198
	c-22.351-61.025-59.396-109.173-121.661-134.36c-60.389-24.429-123.322-22.389-186.461-18.226
	c-11.968,0.789-23.885,2.352-36.729,3.65c0,236.924,0,472.547,0,708.535C917.882,1352.998,920.916,1355.282,924.027,1355.393z"/>
</svg>
