<?xml version="1.0" encoding="iso-8859-1"?>
<!-- Generator: Adobe Illustrator 19.0.0, SVG Export Plug-In . SVG Version: 6.00 Build 0)  -->
<svg version="1.1" id="Layer_1" xmlns="http://www.w3.org/2000/svg" xmlns:xlink="http://www.w3.org/1999/xlink" x="0px" y="0px"
	 viewBox="0 0 500 500" enable-background="new 0 0 500 500" xml:space="preserve">
<path d="M37.952,377.208c-16.239-37.425-24.438-75.495-22.433-115.543c3.01-60.107,25.4-112.88,61.355-160.303
	c21.575-28.457,45.397-54.92,75.72-74.432c30.156-19.405,63.528-24.992,98.761-20.432c22.027,2.851,42.936,9.585,63.525,19.105
	c-8.344,7.78-10.309,17.284-10.24,27.903c0.249,38.423,0.098,76.848,0.098,116.25c-30.314-15.887-61.484-21.406-94.539-11.554
	c-32.703,9.747-57.248,29.468-73.806,59.175c-24.706,44.325-16.68,104.913,16.895,140.543
	c38.199,40.538,100.367,53.581,154.03,22.071c6.309,10.386,14.931,17.383,27.699,17.516c18.335,0.191,32.383-13.615,32.522-32.068
	c0.14-18.523,0.031-37.047,0.031-55.571c0-81.273,0-162.546,0-243.82c0-2.763,0-5.525,0-9.881c6.322,4.685,11.88,8.48,17.083,12.712
	c32.584,26.498,62.683,55.33,84.307,91.86c7.966,13.457,12.467,28.246,16.077,44.119c-6.111-2.784-11.158-5.512-16.495-7.43
	c-12.669-4.554-22.773-0.251-28.602,11.777c-5.676,11.711-6.717,24.376-3.7,36.498c4.513,18.135,4.807,36.541,6.302,54.891
	c1.152,14.139,6.835,18.819,20.287,14.747c7.342-2.223,14.18-6.114,22.831-9.958c-4.34,14.652-7.884,28.786-12.709,42.467
	c-11.243,31.875-28.335,60.362-52.15,84.482c-31.811,32.218-70.902,50.3-115.076,58.323c-25.889,4.702-51.883,5.53-77.994,2.645
	c-2.066-0.228-5.093-1.625-5.751-3.255c-11.786-29.211-34.044-48.418-60.819-62.788c-22.69-12.177-43.391-26.898-62.733-43.767
	c-6.077-5.3-12.546-10.232-19.244-14.723C60.805,356.448,50.924,358.442,37.952,377.208z M242.807,109.914
	c9.916-2.083,21.114-4.179,32.117-7.029c1.618-0.419,3.643-4.705,3.204-6.701c-1.995-9.057-14.875-20.051-23.616-21
	c-9.543-1.036-19.07,5.138-24.44,15.839C224.284,102.556,228.603,109.667,242.807,109.914z M193.392,285.185
	c6.847,25.238,24.797,37.844,49.262,43.104c24.019,5.165,45.15-7.45,49.597-31.356c2.149-11.551,2.221-23.728,1.536-35.524
	c-2.161-37.195-31.668-48.188-60.059-42.04c-24.736,5.356-41.694,29.399-41.47,56.959
	C192.452,277.948,192.445,281.695,193.392,285.185z"/>
</svg>
