<?xml version="1.0" encoding="iso-8859-1"?>
<!-- Generator: Adobe Illustrator 19.0.0, SVG Export Plug-In . SVG Version: 6.00 Build 0)  -->
<svg version="1.1" id="Layer_1" xmlns="http://www.w3.org/2000/svg" xmlns:xlink="http://www.w3.org/1999/xlink" x="0px" y="0px"
	 viewBox="0 0 500 500" enable-background="new 0 0 500 500" xml:space="preserve">
<path d="M250.076,493.916C114.971,494.048,5.45,384.333,6.105,248.535C6.746,115.544,113.765,6.135,249.9,6
	c135.502-0.134,244.073,108.596,244.115,243.862C494.057,385.903,384.143,493.753,250.076,493.916z M243.626,180.239
	c-4.515,0-7.361-0.154-10.184,0.029c-8.481,0.551-17.187,0.201-25.388,2.053c-28.035,6.328-50.735,21.116-67.418,44.816
	c-14.173,20.134-21.181,42.661-20.409,67.04c0.887,27.983,10.907,52.823,30.586,73.09c28.05,28.889,62.121,40.288,101.819,32.662
	c51.267-9.848,88.673-54.059,89.228-108.516c0.59-57.825,0.146-115.661,0.12-173.492c-0.004-10.077-7.008-17.649-16.111-17.765
	c-6.651-0.085-15.836,7.292-15.648,17.52c0.585,31.752,0.313,63.523,0.094,95.285c-0.202,29.325-0.416,58.657-1.309,87.966
	c-0.496,16.276-8.035,30.238-18.476,42.236c-26.047,29.93-69.721,35.176-102.135,14.467c-32.255-20.608-45.535-64.187-29.227-98.983
	c12.66-27.012,34.198-42.311,63.488-46.457c6.816-0.965,14.059-1.234,21.786,0.918c-1.453,1.671-2.11,2.505-2.848,3.262
	c-6.865,7.04-13.751,14.059-20.616,21.098c-4.673,4.791-5.062,10.557-2.885,16.368c4.194,11.196,17.195,13.755,26.251,4.869
	c16.686-16.373,33.108-33.02,49.414-49.772c6.775-6.96,6.689-15.652,0.212-22.932c-3.773-4.241-7.94-8.131-11.944-12.166
	c-12.479-12.575-24.907-25.201-37.48-37.681c-3.964-3.935-8.629-6.764-14.609-5.172c-13.636,3.629-17.38,17.746-7.44,27.797
	C229.211,165.566,235.895,172.384,243.626,180.239z"/>
</svg>
