<?xml version="1.0" encoding="iso-8859-1"?>
<!-- Generator: Adobe Illustrator 19.0.0, SVG Export Plug-In . SVG Version: 6.00 Build 0)  -->
<svg version="1.1" id="Layer_1" xmlns="http://www.w3.org/2000/svg" xmlns:xlink="http://www.w3.org/1999/xlink" x="0px" y="0px"
	 viewBox="0 0 500 500" style="enable-background:new 0 0 500 500;" xml:space="preserve">
<path id="XMLID_4_" d="M84.497,291.217c-21.098-1.948-40.053,0.759-58.299-1.768c-2.971-11.562-3.655-64.017-1.171-84.63
	c9.486-0.195,19.257-0.472,29.03-0.576c9.403-0.1,18.807-0.022,29.746-0.022c0.262-6.399,0.66-11.689,0.665-16.979
	c0.048-48.436,0.027-96.871,0.026-145.307c0-2.996-0.101-5.996,0.016-8.987c0.425-10.856,1.52-12.225,12.062-12.23
	c66.91-0.031,133.821,0.102,200.732,0.126c35.966,0.013,68.337,12.006,98.842,29.863c34.564,20.233,56.634,50.79,71.899,87.176
	c11.524,27.47,16.608,55.98,18.283,85.585c2.712,47.938-2.796,94.312-21.825,138.75c-15.019,35.073-39.214,62.228-71.05,82.679
	c-23.871,15.334-50.083,24.338-78.475,26.419c-14.89,1.091-29.808,2.418-44.72,2.497c-55.425,0.296-110.852,0.118-166.278,0.119
	c-2.996,0-5.999,0.142-8.987-0.019c-8.673-0.468-9.96-1.804-10.462-10.859c-0.166-2.987-0.032-5.99-0.032-8.986
	c-0.001-48.935-0.002-97.87-0.002-146.805C84.497,302.384,84.497,297.507,84.497,291.217z M186.881,389.262
	c6.655,0,11.557,0,16.459,0c19.969,0,39.943-0.26,59.906,0.089c13.574,0.237,26.693-1.97,39.945-4.567
	c33.93-6.651,54.694-28.434,69.035-58.115c10.437-21.601,12.86-44.948,13.568-68.321c0.755-24.939-1.711-49.935-8.778-73.885
	c-9.12-30.902-26.864-54.778-58.115-67.777c-18.904-7.863-38.452-9.625-58.127-10.743c-20.9-1.187-41.92-0.342-62.886-0.227
	c-3.334,0.018-6.664,0.864-10.779,1.435c0,32.399,0,64.042,0,96.747c25.813,1.027,51.05-0.548,77.249,0.984
	c0,25.583,0.122,49.479-0.055,73.372c-0.079,10.688-1.47,12.055-12.104,12.165c-18.469,0.19-36.943-0.023-55.413,0.107
	c-3.255,0.023-6.505,0.889-9.902,1.387C186.881,324.241,186.881,355.543,186.881,389.262z"/>
</svg>
