<?xml version="1.0" encoding="utf-8"?>
<!-- Generator: Adobe Illustrator 25.1.0, SVG Export Plug-In . SVG Version: 6.00 Build 0)  -->
<svg version="1.1" id="dot" xmlns="http://www.w3.org/2000/svg" xmlns:xlink="http://www.w3.org/1999/xlink" x="0px" y="0px"
	 viewBox="0 0 500 500" style="enable-background:new 0 0 500 500;" xml:space="preserve">
<path d="M252.5,0C148.1,0.4,63.5,85,63.1,189.4c0,20.9,3.4,41.7,10,61.5c4.9,13.5,19.6,20.8,33.3,16.6c13.3-5.1,20.3-19.6,16.1-33.2
	c-5.6-15.5-8.1-31.9-7.4-48.3c2.3-75.4,65.3-134.7,140.7-132.5c75.4,2.3,134.7,65.3,132.5,140.7c-2.1,70.6-57.8,128-128.3,132.3
	c0,0-26.6,1.6-39.8,3.2c-4.9,0.7-9.7,1.7-14.5,2.9c-0.7,0.7-1.8,0.7-2.5,0l0,0c-0.5-0.6-0.5-1.5,0-2.1l4.1-22.5l25-112.3
	c3-14-5.9-27.8-20-30.8c-14-3-27.8,5.9-30.8,20c0,0-59.4,274.9-59.4,277.4c-3.4,13.4,4.7,26.9,18,30.3c0.1,0,0.3,0.1,0.4,0.1h1.4
	c13.3,3.5,27-4.6,30.4-17.9c0.1-0.2,0.1-0.4,0.2-0.7c0-0.4,0-0.8,0-1.2c0.7-3.2,8.2-39.8,8.2-39.8c5.7-27.6,27.9-48.8,55.8-53
	c5.7-0.9,29.8-2.5,29.8-2.5c104-10.4,180-103.1,169.6-207.2C426.5,75.5,347.9,2.5,252.5,0z"/>
<path d="M264,436.7c-17.1-3.6-33.8,7.4-37.3,24.5c0,0.2-0.1,0.3-0.1,0.5c-3.7,17,7.1,33.7,24,37.4c0,0,0,0,0.1,0h0.9
	c16.6,4,33.3-6.2,37.3-22.8c0-0.1,0.1-0.3,0.1-0.4v-1.7C291.9,457.1,281,440.6,264,436.7z"/>
</svg>
