<?xml version="1.0" encoding="iso-8859-1"?>
<!-- Generator: Adobe Illustrator 19.0.0, SVG Export Plug-In . SVG Version: 6.00 Build 0)  -->
<svg version="1.1" id="Layer_1" xmlns="http://www.w3.org/2000/svg" xmlns:xlink="http://www.w3.org/1999/xlink" x="0px" y="0px"
	 viewBox="0 0 2000 2000" style="enable-background:new 0 0 2000 2000;" xml:space="preserve">
<path d="M126.128,317.168c0-101.839,0-197.574,0-299.161c19.376,0,36.781,0,54.186,0c240.179,0,480.357-0.028,720.536,0.005
	c500.769,0.07,899.826,356.805,969.681,866.806c64.367,469.937-241.505,930.929-706.227,1057.088
	c-82.528,22.404-170.181,33.924-255.756,35.584c-241.721,4.688-483.593,1.639-725.405,1.639c-17.662,0-35.323,0-56.025,0
	c0-498.151,0-992.45,0-1492.365c18.261-1.08,35.477-2.97,52.694-2.984c240.178-0.192,480.36-0.895,720.535,0.073
	c286.532,1.154,513.339,229.75,512.555,514.937c-0.79,287.313-225.712,513.322-512.522,514.6
	c-104.298,0.465-208.6,0.075-316.314,0.075c0-94.971,0-185.432,0-281.646c24.241-1.186,47.907-3.211,71.584-3.344
	c81.691-0.46,163.442,1.668,245.065-0.751c130.419-3.865,227.69-102.079,228.544-227.388
	c0.858-125.776-95.057-227.534-225.019-230.405c-155.139-3.427-310.412-0.853-465.626-0.667c-6.317,0.008-12.631,2.181-23.22,4.133
	c0,299.721,0,599.065,0,899.2c4.272,2.112,8.538,6.067,12.8,6.062c178.031-0.181,357.03,10.89,533.873-3.857
	c283.867-23.671,481.386-180.84,576.239-447.432c94.836-266.544,36.448-509.822-161.187-713.623
	c-128.86-132.88-290.517-196.056-475.775-196.449c-238.544-0.506-477.089-0.128-715.634-0.13
	C166.498,317.168,147.288,317.168,126.128,317.168z"/>
</svg>
