<?xml version="1.0" encoding="iso-8859-1"?>
<!-- Generator: Adobe Illustrator 19.0.0, SVG Export Plug-In . SVG Version: 6.00 Build 0)  -->
<svg version="1.1" id="Layer_1" xmlns="http://www.w3.org/2000/svg" xmlns:xlink="http://www.w3.org/1999/xlink" x="0px" y="0px"
	 viewBox="0 0 500 500" enable-background="new 0 0 500 500" xml:space="preserve">
<path d="M150.351,248.762c0.001-71.102-0.021-142.205,0.018-213.307c0.008-14.797,8.226-26.15,19.991-28.002
	c14.274-2.247,26.997,8.023,28.519,23.204c0.363,3.623,0.126,7.307,0.127,10.964c0.005,139.361,0.006,278.721,0.008,418.082
	c0,1.219,0.047,2.439,0.008,3.656c-0.472,14.547-11.871,27.001-24.439,26.715c-13.561-0.308-24.067-11.68-24.181-26.786
	c-0.184-24.377-0.051-48.756-0.051-73.134C150.351,343.024,150.351,295.893,150.351,248.762z M277.292,248.706
	c0-27.216,0.018-54.432-0.004-81.649c-0.036-45.089-0.048-90.178-0.18-135.266c-0.037-12.636-8.113-22.609-19.274-24.37
	c-12.38-1.953-23.07,4.662-26.818,17.473c-1.561,5.337-2.045,11.156-2.049,16.757c-0.104,136.487-0.105,272.974,0.009,409.461
	c0.006,6.851,0.503,13.862,2.018,20.514c2.557,11.233,11.973,18.397,22.707,18.489c9.32,0.08,19.738-7.577,22.587-17.329
	c1.108-3.793,1.027-8.012,1.03-12.038c0.056-70.681,0.04-141.361,0.04-212.042C277.336,248.706,277.314,248.706,277.292,248.706z
	 M356.684,246.976c0-63.356,0.044-126.712-0.045-190.067c-0.014-10.128,0.231-20.376-1.176-30.353
	c-1.745-12.371-11.863-19.693-24.129-19.19c-11.832,0.485-21.098,9.357-22.36,21.537c-0.25,2.414-0.131,4.869-0.131,7.305
	c0.009,141.332,0.022,282.664,0.043,423.996c0,2.841-0.191,5.721,0.19,8.517c1.419,10.404,10.613,19.779,20.609,21.272
	c9.23,1.378,21.141-5.268,24.456-14.426c1.765-4.875,2.989-10.253,3.003-15.407c0.191-71.061,0.129-142.122,0.129-213.183
	C357.078,246.976,356.881,246.976,356.684,246.976z M71.065,377.979c0,24.772-0.056,49.544,0.052,74.315
	c0.019,4.426,0.271,8.944,1.185,13.256c2.347,11.07,12.709,19.5,23.27,19.428c10.481-0.072,20.428-7.63,22.993-18.293
	c1.313-5.456,1.881-11.216,1.897-16.841c0.137-48.325,0.084-96.65,0.036-144.975c-0.003-3.224-0.043-6.529-0.716-9.657
	c-2.887-13.408-13.771-22.627-25.342-21.755c-13.083,0.985-22.29,10.657-22.536,25.391c-0.44,26.37-0.124,52.753-0.124,79.131
	C71.542,377.978,71.304,377.978,71.065,377.979z M435.518,113.483c0-26.373,0.061-52.747-0.066-79.119
	c-0.019-3.969-0.206-8.193-1.539-11.854c-4.153-11.401-15.369-17.317-27.291-15.02c-10.901,2.1-19.167,12.563-19.232,26.295
	c-0.25,52.745-0.266,105.492,0.14,158.235c0.044,5.689,2.341,12.038,5.463,16.874c5.293,8.2,17.81,11.061,27.354,7.731
	c8.523-2.973,15.16-12.46,15.223-22.806c0.163-26.778,0.055-53.557,0.055-80.336C435.589,113.483,435.553,113.483,435.518,113.483z"
	/>
</svg>
