<?xml version="1.0" encoding="iso-8859-1"?>
<!-- Generator: Adobe Illustrator 19.0.0, SVG Export Plug-In . SVG Version: 6.00 Build 0)  -->
<svg version="1.1" id="Layer_1" xmlns="http://www.w3.org/2000/svg" xmlns:xlink="http://www.w3.org/1999/xlink" x="0px" y="0px"
	 viewBox="0 0 2000 2000" style="enable-background:new 0 0 2000 2000;" xml:space="preserve">
<path d="M174.417,871.025c-16.12-15.645-31.86-27.436-42.562-42.748c-5.519-7.897-5.051-22.868-2.207-33.252
	c18.599-67.911,71.783-102.4,131.031-128.762c15.829-7.043,23.257-15.206,28.89-30.893c17.418-48.512,46.804-89.622,82.963-129.481
	c-17.171,4.402-34.554,8.126-51.451,13.406c-15.193,4.747-29.594,12.055-44.817,16.676c-17.456,5.298-30.134-7.324-24.248-24.163
	c45.056-128.892,107.648-247.253,208.48-342.122c68.813-64.744,152.668-100.772,242.691-123.793
	c70.333-17.986,141.893-28.191,214.736-26.825c12.381,0.232,24.735,1.913,41.034,3.247c21.945-11.117,47.006-9.015,74.433-0.659
	c19.212,5.853,41.531,1.494,62.463,1.716c25.6,0.271,46.32,11.605,64.01,29.042c25.592,25.225,20.46,52.723-12.194,68.503
	c-11.103,5.365-21.834,11.498-27.389,14.445c-18.195,48.478-37.823,89.763-65.853,127.241
	c-21.235,28.392-29.13,60.855-24.445,92.824c37.498,0,73.162-2.318,108.349,0.778c25.392,2.234,44.592,19.059,61.228,39.196
	c8.661,10.483,23.261,16.059,33.982,23.069c54.824-22.058,96.927-10.301,124.622,38.488c24.842,1.512,33.614-12.703,39.849-33.331
	c-16.084-26.354-10.104-54.121,4.529-80.789c-8.566-15.515-18.203-29.42-24.278-44.738c-11.446-28.863,3.624-51.054,34.629-53.221
	c31.375-2.193,59.679,3.637,86.922,22.229c23.443,15.999,50.458,28.056,77.458,37.279c56.241,19.211,93.974,57.425,119.783,108.861
	c31.809,63.396,52.669,129.953,50.029,201.817c-1.819,49.507-5.912,98.928-8.229,148.423c-0.382,8.171,0.958,17.933,5.225,24.564
	c26.946,41.868,39.002,88.743,47.282,136.809c5.199,30.178,11.442,60.657,11.833,91.07c0.592,46.016-3.508,92.092-5.569,137.152
	c14.401-8.609,32.783-19.599,57.932-34.633c2.224,16.595,7.234,27.294,4.018,34.116c-32.299,68.522-22.194,135.422,8.114,200.5
	c14.669,31.496,34.444,60.715,53.056,90.24c13.226,20.979,9.623,28.707-11.777,40.222c-19.98,10.751-40.728,24.169-54.459,41.657
	c-38.593,49.155-58.177,107.95-76.518,167.019c-2.636,8.489-11.281,15.111-17.146,22.598c-3.026-0.474-6.053-0.949-9.079-1.423
	c-21.322-40.874-42.644-81.748-63.619-121.957c-36.534,4.003-55.311,28.391-70.583,52.543
	c19.832,18.148,42.284,33.802,58.364,54.425c33.677,43.193,33.442,94.408,21.963,144.653
	c-14.98,65.572-51.439,116.416-117.806,137.534c-19.358,6.16-43.892,3.502-63.821-2.512c-11.107-3.352-20.496-20.831-25.493-33.916
	c-6.599-17.281,8.594-27.044,19.508-38.149c10.65-10.837,22.072-22.782,27.463-36.481c7.912-20.108-2.613-33.589-23.985-40.769
	c-30.632-10.291-60.205-4.959-90.489,1.935c-16.6,3.779-34.279,4.055-51.436,3.771c-13.783-0.228-26.183-1.731-38.717,7.869
	c-9.447,7.235-23.404,14.629-34.09,13.104c-37.586-5.364-64.525,18.936-96.465,28.978c-17.536,5.513-37.767,2.576-56.791,3.181
	c-10.422,0.331-21.818-2.642-31.126,0.604c-40.637,14.171-80.842,21.365-124.625,14.201c-22.723-3.718-47.357,5.938-71.258,7.337
	c-38.479,2.252-73.152-10.059-105.052-31.265c-5.841-3.883-13.224-8.119-19.743-7.888c-50.37,1.778-97.257-7.844-137.187-40.548
	c-31.718,49.886-68.959,29.556-101.987-13.654c-4.839-6.331-6.909-14.902-12.11-20.807c-8.601-9.764-17.188-21.983-28.456-26.512
	c-39.441-15.854-64.338-42.627-73.596-84.167c-1.359-6.096-4.615-11.769-7.219-18.196c-16.328,10.1-30.923,19.128-44.19,27.335
	c-51.16-15.804-63.326-57.561-66.215-98.534c-2.09-29.644-11.661-54.464-22.153-80.422c-4.56-11.282-7.851-23.077-12.651-37.431
	c-12.155,7.505-22.085,14.461-32.729,20.06c-36.43,19.162-67.099,5.088-75.628-35.317c-9.724-46.064-5.752-91.116,9.915-135.794
	c4.714-13.444,2.898-29.341,3.189-44.131c0.354-17.973,0.966-36.085-0.828-53.906c-1.18-11.726-6.412-23.045-10.095-35.439
	c-7.553,0-12.74-0.948-17.447,0.153c-32.144,7.517-57.815-13.487-60.673-46.539c-5.429-62.796,20.873-113.338,58.137-160.109
	c17.807-22.351,28.229-44.521,15.389-74.333C171.709,899.001,174.985,881.846,174.417,871.025z M574.5,850.807
	c0.745-23.256,1.491-46.513,2.226-69.445c43.926-4.654,69.282-27.363,82.487-60.927c27.753-5.253,54.764,18.145,78.693-0.77
	c0.063-3.466,0.126-6.933,0.189-10.399c-32.225-4.571-64.45-9.142-97.208-13.789c-7.981,45.574-37.543,65.288-77.189,74.687
	c-3.531,26.594-6.855,51.637-10.45,78.716c6.877,1.438,13.097,2.738,19.317,4.039c-1.001,5.603-2.002,11.206-3.094,17.319
	c-20.121-2.09-36.47-3.789-54.988-5.712c-4.549,35.483-8.769,68.394-13.336,104.015c54.166,6.658,104.839,12.886,155.513,19.114
	c0.449-1.654,0.898-3.308,1.347-4.961c-10.203-3.188-20.406-6.376-30.61-9.563c0.219-0.879,0.437-1.758,0.656-2.636
	c10.059,0,20.117,0,31.9,0c3.173-23.349,6.195-45.578,9.289-68.345c-11.694-2.972-22.207-5.645-32.72-8.317
	c0.159-0.754,0.318-1.508,0.477-2.262c10.979,0.619,21.958,1.238,32.936,1.856c0.276-2.523,0.552-5.046,0.828-7.569
	c-22.81-3.133-45.62-6.267-70.897-9.739c7.675-7.258,13.326-12.602,18.028-17.049c20,2.259,37.967,4.289,57.629,6.51
	c2.586-20.365,4.861-38.278,7.86-61.894c84.15,10.9,166.868,21.615,249.587,32.33c0.162,2.427,0.324,4.853,0.486,7.28
	c-6.42,4.286-12.839,8.573-17.785,11.875c-70.134-10.191-138.179-20.078-208.907-30.355
	c-6.731,78.626-23.792,155.106-26.901,232.976c2.195,0.326,4.391,0.652,6.586,0.978c12.278-13.18,24.556-26.36,33.82-36.305
	c15.195-3.13,25.183-5.187,35.539-7.32c5.744,2.476,11.532,4.97,18.785,8.096c-1.238,8.134-2.358,15.496-3.478,22.859
	c1.617,1.177,3.235,2.353,4.852,3.53c7.044-8.16,14.089-16.32,21.146-24.495c-5.024-4.468-7.496-6.666-10.105-8.986
	c4.866-9.565,9.783-18.543,14.056-27.818c4.525-9.824,8.437-19.93,12.295-29.142c-24.527-36.637-16.89-57.436,26.081-68.215
	c8.374,6.224,18.061,13.425,32.004,23.788c-7.785,17.232-15.029,33.266-22.272,49.3c-2.33-0.554-4.66-1.107-6.99-1.661
	c2.473,8.922,4.947,17.843,9,32.464c5.689-15.236,8.97-24.022,14-37.491c0,40.491,0,74.837,0,109.184
	c19.513-31.656,38.239-61.653,77.108-65.864c3.246-10.094,5.745-17.865,8.244-25.637c1.14,0.269,2.28,0.538,3.421,0.808
	c-1.283,28.505-2.565,57.01-3.848,85.515c2.827,0.116,5.655,0.232,8.482,0.348c9.02-64.85,18.04-129.699,27.454-197.382
	c-15.026-2.154-28.822-4.132-44.687-6.407c5.017-7.059,8.62-12.128,13.137-18.483c16.894,3.503,33.182,6.881,48.726,10.104
	c-2.295,24.707-4.063,43.742-5.801,62.453c42.075,5.462,80.091,10.398,119.331,15.492c1.471-22.354,2.705-41.11,4.049-61.543
	c-33.843-13.951-62.498-34.586-61.145-80.247c-31.52-4.761-61.673-9.315-90.825-13.718c-12.322,8.783-23.903,17.039-37.336,26.614
	c-7.386-14.344-11.908-23.127-15.918-30.914c-15.538,0-29.984,0-42.484,0c-10.213,11.409-18.922,21.139-26.843,29.987
	c-7.421,0-13.215,0-19.241,0c-4.537-7.142-8.791-13.838-12.691-19.976c-9.542-1.482-18.095-2.811-26.553-4.125
	c-12.38,11.493-24.663,22.896-36.95,34.304c-5.762-3.798-12.757-5.843-13.675-9.44c-4.945-19.372-8.382-39.128-12.618-60.138
	c-17.047-1.993-34.89-4.078-53.814-6.29c-14.81,33.88-40.973,54.6-72.598,63.856c-2.516,15.914-2.917,28.773-7.038,40.304
	C588.9,842.251,580.234,846.005,574.5,850.807z M1631.791,669.381c-27.063-19.642-45.984-51.873-84.784-54.59
	c-30.063,22.853,10.064,52.782-5.653,79.06c-16.457-13.122-30.945-24.676-47.225-37.657c-15.196,26.819-6.251,51.983-3.71,78.247
	c-21.84-32.298-24.294-69.033-5.061-91.955c10.145,2.118,21.667,4.523,34.584,7.22c0.778-10.265,1.543-20.342,2.433-32.083
	c6.955-5.249,14.764-11.143,22.696-17.129c-48.202-38.122-84.103-50.143-122.451-37.011c0,9.174-2.819,21.519,0.751,31.602
	c3.992,11.278,13.775,20.505,23.34,33.831c-35.622,3.946-74.176-11.901-85.5,35.639c-0.775-9.179-2.159-20.291,2.571-24.453
	c13.753-12.1,29.955-21.415,45.91-32.309c-14.527-39.753-11.78-45.435,29.278-68.498c-15.186-37.111-54.755-56.543-98-46.828
	c-7.435-10.555-13.748-23.364-23.56-32.356c-9.632-8.827-22.342-17.817-34.584-19.263c-11.761-1.389-24.653,6.8-40.921,12.024
	c20.95,29.73,38.256,54.288,54.734,77.672c-45.951-27.378-51.254-27.111-82.27,6.243c8.134,15.497,16.596,31.618,25.057,47.738
	c-2.181,1.256-4.362,2.511-6.543,3.767c-13.336-20.383-26.672-40.765-40.214-61.461c21.062-11.094,39.233-20.666,57.659-30.371
	c-14.577-54.847-42.644-76.685-89.354-69.723c-7.876,5.226-15.057,9.991-22.238,14.756c-0.84-1.337-1.68-2.675-2.521-4.012
	c9.497-6.628,18.993-13.255,31.231-21.796c-51.381-39.854-100.729-23.159-153.289-9.826c4.854,14.069,8.977,26.022,13.101,37.975
	c12.153,2.32,24.122,6.725,28.403,15.072c9.197,17.932,3.099,35.235-10.999,50.841c-1.404-6.978-2.396-12.658-3.718-18.26
	c-1.263-5.353-2.869-10.626-4.804-17.685c-5.284,4.089-8.939,6.918-14.874,11.511c-45.608-101.946-51.028-197.911,28.375-285.083
	c-14.359-6.829-25.28-12.023-36.201-17.217c0.384-1.043,0.767-2.085,1.151-3.128c8.168,1.787,16.336,3.573,26.139,5.717
	c8.718-5.444,18.365-11.467,28.669-17.902c-10.792-5.701-19.991-10.56-29.19-15.419c0.622-1.105,1.243-2.211,1.865-3.316
	c9.244,2.014,18.488,4.027,27.731,6.041c-36.829-29.431-60.192-62.996-58.765-111.101c-2.117,0.09-4.234,0.179-6.35,0.269
	c-2.891,10.791-5.781,21.581-8.978,33.517c-1.157-9.719-2.161-18.149-3.968-33.315c-15.607,9.467-27.332,16.579-40.027,24.28
	c-1.19-2.464-3.057-6.328-4.301-8.904c-72.707-5.79-142.373,1.662-211.162,17.371c-117.979,26.943-223.57,75.166-300.107,174.236
	c-50.549,65.431-92.61,135.532-123.95,212.032c-1.705,4.162-2.202,8.82-3.713,15.135c30.662-8.233,58.18-17.979,86.535-22.648
	c36.628-6.031,74.026-11.811,110.908-10.825c53.797,1.438,70.384,18.9,84.624,75.535c72.89-21.875,145.92-41.175,204.277,26.471
	c26.184-18.464,50.261-39.179,77.583-53.853c43.442-23.332,99.123-23.916,118.862,38.38c0.827,2.61,2.824,4.85,4.276,7.263
	c-1.451,1.953-2.901,3.906-4.352,5.86c-8.825-6.214-17.731-12.317-26.453-18.673c-10.278-7.491-20.368-21.425-30.589-21.47
	c-18.982-0.084-40.529,3.715-56.46,13.387c-30.598,18.577-58.021,42.384-87.072,64.255c-23.65-50.371-70.734-64.46-123.633-57.125
	c-35.947,4.985-70.474,20.208-106.818,31.211c1.03-7.99,4.547-17.746,2.937-26.564c-3.004-16.446-4.157-40.143-14.808-46.747
	c-18.477-11.458-41.103-26.083-66.988-9.978c-58.891,36.642-108.137,82.432-140.249,144.553
	c-9.333,18.054-14.978,38.014-23.529,60.261c37.969,1.088,56.439-24.409,83.372-41.524c-10.617,22.388-21.003,40.458-27.835,59.783
	c-6.681,18.897-17.295,39.802,5.989,56.951c-32.622-9.784-17.67-38.372-24.267-58.957c-10.219,2.259-20.037,4.43-27.888,6.165
	c-9.208-3.624-16.545-6.512-23.489-9.245c-28.154,41.445-31.17,85.367-7.765,102.987c7.118,0,14.498,0,21.877,0
	c6.694,0,13.389,0,20.083,0c0.204,2.369,0.409,4.737,0.613,7.106c-21.655,3.092-43.31,6.184-62.508,8.926
	c-7.495-12.004-11.614-18.601-18.059-28.923c-23.877,26.298-41.507,53.791-41.624,86.818c-0.09,25.518-0.89,54.782,29.617,75.236
	c13.319-20.446,25.957-39.849,38.263-58.741c-2.699,28.404-10.756,54.809-37.236,73.587c-5.292-0.641-11.549-1.397-17.767-2.15
	c-27.505,28.585-20.222,60.668-5.288,94.877c8.934,20.466,24.757,19.389,45.328,15.891c8.137-13.372,17.213-28.289,27.942-45.921
	c-7.953,56.603-29.919,74.85-73.933,63.302c-21.202,44.529-17.976,85.793,16.55,122.748c-18.843,54.522-2.026,96.257,44.436,126.828
	c-12.423,28.395-19.999,56.021,1.559,81.02c18.908,21.926,41.836,37.248,74.461,29.908c-8.826,5.978-17.651,11.956-27.143,18.385
	c5.514,54.147,30.563,93.047,83.866,108.382c5.011,43.254,11.58,52.932,36.326,55.286c31.223,2.97,39.746-4.211,52.71-44.41
	c7.32,29.653-5.555,50.733-27.65,64.788c0.503,56.773,30.884,82.835,81.272,86.619c22.477,42.444,45.973,51.141,107.491,40.874
	c32.314,45.369,79.129,54.36,131.92,50.708c12.574-28.227,0.487-51.724-11.628-75.764c26.876,20.335,31.662,50.456,36.215,82.364
	c42.864,35.339,90.747,43.972,145.371,23.412c-4.326-23.141-20.152-34.994-37.332-46.783c-37.74-25.897-78.11-49.253-111.312-80.188
	c-59.519-55.455-96.055-124.207-90.959-208.608c1.635-27.08,9.658-53.775,14.847-81.11c-36.609-12.287-64.258-53.554-59.415-78.344
	c-10.278-11.167-19.495-21.181-27.378-29.745c-45.384-13.695-97.714-0.839-136.491-47.564c10.15,3.228,14.798,4.705,19.445,6.183
	c0.863-1.68,1.726-3.361,2.589-5.041c-8.033-4.807-16.067-9.614-21.412-12.813c-1.338-3.781-1.676-6.634-3.158-8.642
	c-26.002-35.229-38.331-76.08-35.791-118.359c2.831-47.126,13.535-93.78,21.118-142.602c-6.151,1.796-10.371,3.029-18.212,5.319
	c-1.629-13.885-5.182-26.056-4.026-37.763c3.222-32.624,7.845-65.143,13.039-97.524c2.478-15.447,3.707-34.225,28.956-27.111
	c9.088-63.981,17.924-126.185,27.136-191.044c71.031,9.277,136.144,17.781,200.506,26.187
	c21.056-28.655,44.528-50.646,77.369-61.073c30.242-9.602,60.101-20.403,90.214-30.421c30.4-10.114,68.638-5.718,92.389,12.218
	c-49.687-16.086-93.248-12.437-132.64,19.118c-5.238,4.196-13.69,5.403-20.827,6.036c-44.397,3.939-71.188,31.711-93.367,64.578
	c17.551,20.025,33.483,38.203,49.703,56.708c15.268-42.043,22.136-93.588,78.808-106.894
	c-16.664,14.997-33.523,30.168-46.126,41.511c20.201,24.126,37.397,44.664,56.944,68.01c2.782-2.462,10.593-6.223,13.149-12.222
	c7.908-18.564,14.503-37.773,20.314-57.121c6.367-21.2,32.544-40.353,52.696-39.823c-13.731,11.234-29.719,24.315-43.408,35.515
	c20.157,21.393,36.744,38.998,54.954,58.325c5.013,0,16.448,3.333,23.905-0.696c15.383-8.312,31.045-11.717,47.575-9.89
	c33.406,3.692,66.707,8.44,99.951,13.417c6.765,1.013,13.091,4.955,19.874,7.647c-0.924,35.701,19.283,53.475,48.035,63.237
	c0.522,11.779,0.977,22.03,1.443,32.535c4.673,1.616,9.149,3.163,15.253,5.274c-3.621,29.258-8.521,57.56-10.261,86.056
	c-1.759,28.807-0.388,57.805-0.388,90.874c8.02-4.462,14.621-6.687,19.268-11.012c10.716-9.975,19.725-21.848,30.778-31.384
	c33.151-28.601,69.026-49.832,118.879-36.511c2.623,13.031,5.366,26.658,8.174,40.605c4.22-2.382,7.161-4.041,14.721-8.308
	c-4.499,22.588-8.015,40.237-11.458,57.524c-7.752-0.562-12.621-0.914-22.898-1.659c18.734,22.991,24.068,50.152,50.722,60.236
	c15.779-8.479,30.673-14.749,43.537-23.881c13.011-9.235,22.771-23.259,36.145-31.729c29.284-18.548,60.561-32.044,96.882-21.961
	c5.504,8.573,10.614,16.533,13.3,20.716c1.097,12.901,1.821,21.432,2.692,31.677c-2.17,4.97-5.092,11.659-8.014,18.349
	c1.806-0.096,3.611-0.192,5.416-0.288c2.164,15.659,4.327,31.318,5.789,41.9c11.87,18.203,22.753,31.981,30.369,47.375
	c7.899,15.965,12.634,33.495,18.546,49.771c42.676-6.669,78.183-125.545,57.075-188.25c-19.606,17.925-38.268,34.985-60.797,55.582
	c19.379-32.082,31.006-64.307,68.256-73.974c3.616-44.692-0.627-64.886-20.409-91.649c-8.101,2.568-17.038,5.4-25.974,8.233
	c4.765-7.454,11.82-14.857,19.206-15.204c7.756-0.364,15.828,6.034,26.06,10.474c-10.63-44.581-22.548-86.762-47.272-123.981
	c-18.222-27.43-51.121-27.513-67.983,0.804c-8.771,14.729-12.434,32.499-19.002,50.535c-2.425-27.896-0.364-54.463,19.375-72.766
	c11.056-10.252,29.761-12.254,47.941-19.068c-15.556-21.716-32.589-45.495-53.188-74.252
	c-19.121,17.448-34.461,31.445-49.226,44.918c-0.134-27.408,17.495-42.731,43.727-50.972c-2.38-6.216-4.2-10.968-5.973-15.666
	c9.192,7.042,18.383,14.083,29.729,22.776c11.218-119.635-11.063-223.433-73.536-268.985c-8.517,5.197-17.034,10.394-28.041,17.11
	c29.586,56.969,40.621,117.541,28.133,175.803C1604.41,636.094,1618.101,652.738,1631.791,669.381z M1154.667,1390.04
	c-100.143-44.262-199.853-37.884-298.049,0.728c-63.549,24.988-103.257,67.677-93.316,144.467
	c7.739,59.777,31.075,111.012,71.058,153.791c74.286,79.48,171.407,110.81,276.385,118.322
	c59.604,4.265,119.452,1.469,178.898-11.86c130.518-29.266,233.79-101.479,322.269-197.939
	c22.102-24.096,40.823-51.294,61.098-77.066c0.955,0.559,1.91,1.119,2.865,1.678c-4.323,7.891-8.646,15.782-14.45,26.377
	c6.6-0.828,9.431-1.039,12.205-1.554c34.42-6.392,37.817-4.714,54.037,26.854c8.279,16.112,16.568,32.22,27.131,52.761
	c26.69-61.239,48.904-118.056,97.077-160.908c-22.219-5.781-40.602-10.564-58.986-15.347c0.316-1.447,0.631-2.895,0.947-4.342
	c25.417,1.424,50.833,2.848,79.809,4.471c-39.436-70.744-77.184-137.175-75.899-218.376c-8.312,6.162-13.855,13.188-19.825,19.83
	c-5.913,6.579-12.257,12.77-18.412,19.131c-0.844-0.88-1.689-1.761-2.533-2.641c11.366-17.428,22.731-34.856,34.097-52.284
	c-22.16,6.225-40.377,15.74-58.87,24.685c-33.234,16.076-52.517,7.843-64.781-26.427c-5.203-14.54-11.821-28.574-19.107-45.969
	c-28.567,61.522-44.038,72.839-86.37,66.303c49.401-8.286,74.339-37.812,61.052-69.885c-11.039,3.787-21.976,7.54-32.912,11.292
	c-0.032-0.651-0.064-1.302-0.097-1.952c8.513-5.438,17.025-10.877,25.538-16.315c-0.866-2.082-1.732-4.164-2.598-6.246
	c-47.978,5.222-94.608,5.113-131.138-34.949c-1.228,1.87-2.457,3.74-3.685,5.611c7.841,9.532,15.681,19.065,23.522,28.597
	c-0.849,1.344-1.698,2.689-2.547,4.034c-9.662-5.954-19.324-11.908-30.582-18.846c-3.504,7.48-7.902,14.89-10.458,22.889
	c-2.501,7.825-3.124,16.251-4.571,24.413c-1.809,0.016-3.618,0.033-5.427,0.049c-0.948-18.351-1.896-36.702-2.864-55.441
	c-9.019-1.651-17.504-3.205-25.47-4.664c-16.104,23.967-30.501,33.362-48.28,30.271c25.028-10.572,30.663-29.832,29.294-54.235
	c-12.651,5.023-23.847,9.467-35.042,13.912c3.092-7.065,8.292-9.259,12.755-12.476c4.593-3.31,8.468-7.617,17.444-15.911
	c-58.081,8.961-107.129,8.03-143.339-38.148c-1.965,1.829-3.93,3.658-5.894,5.487c9.525,11.961,19.051,23.922,28.577,35.883
	c-1.132,1.121-2.263,2.243-3.395,3.364c-8.135-7.586-16.271-15.172-27.745-25.871c-7.766,14.224-14.764,27.04-20.292,37.165
	c-2.584-3.05-6.068-7.162-7.682-9.066c-82.126,23.788-103.325,43.576-117.747,107.282c-20.484,6.413-41.642,13.038-63.07,19.747
	c-2.485,21.164-4.675,39.809-7.494,63.82c49.641,11.742,97.555,23.076,150.039,35.491c5.458-19.823,9.999-36.314,14.495-52.639
	c14.983,31.729,4.328,59.254-27.616,74.486C1161.198,1358.736,1157.909,1374.501,1154.667,1390.04z M681.16,1089.33
	c-29.086,30.651-27.804,73.944,7.483,163.457c-20.102,63.857,29.812,129.742,96.947,151.402
	c61.293-57.61,137.323-66.022,215.466-66.133c0-43.228,0-85.003,0-127.102c-6.634-4.964-12.984-9.716-17.015-12.732
	c-3.866-27.375-7.381-52.259-10.971-77.68c-9.719,2.073-15.184,3.238-18.645,3.976c3.45-9.391,6.733-18.331,11.775-32.054
	c-15.001,7.802-23.842,12.4-37.49,19.499c4.05-9.305,5.478-12.586,5.422-12.456c-20.81-2.45-41.552-4.891-61.885-7.285
	c3.621,2.262,7.872,4.918,12.123,7.574c-1.108,1.246-2.217,2.491-3.325,3.737c-4.515-1.144-9.03-2.287-16.68-4.225
	c0,25.34,0,48.701,0,72.061c-15.437-31.417-16.771-64.114-12.54-97.101c-12.106,3.879-25.099,8.042-36.267,11.62
	c-13.775-2.969-25.703-5.54-42.177-9.09c-1.733,28.251-3.343,54.502-4.958,80.819c-3.386-12.883-6.941-26.41-10.18-38.731
	c-9.264-0.683-15.613-1.151-25.177-1.855c5.529-5.147,8.605-8.01,8.051-7.495C722.553,1103.279,702.586,1096.55,681.16,1089.33z
	 M1543.519,321.834c-1.776-1.39-3.552-2.78-5.328-4.17c-21.267,43.774-60.634,55.549-109.459,61.83
	c13.534,6.438,21.579,10.264,35.227,16.756c-16.094-1.645-26.241-2.682-36.631-3.744c-0.352,25.768,17.498,33.56,40.957,42.003
	c-13.152,0.584-20.439,0.908-27.327,1.214c-9.437,16.591-18.51,32.541-25.541,44.903c16.65,17.697,30.786,32.723,48.375,51.418
	c9.608-29.235,18.31-55.711,25.957-78.979c15.623-2.97,29.065-5.525,42.859-8.148c27.706,43.548,30.041,92.174,28.239,141.578
	c-0.678,18.59,0.381,20.034,16.709,18.159c6.425-60.847,0.149-119.301-34.711-170.729c17.1-8.721,31.654-16.143,47.073-24.007
	c32.099,22.877,50.571,56.682,63.959,93.116c20.287,55.208,22.292,113.034,17.644,170.851c-2.115,26.314,12.571,43,28.223,67.506
	c1.542-12.686,2.681-19.617,3.156-26.594c0.551-8.078-0.132-16.274,0.838-24.283c12.574-103.812-5.484-201.373-63.171-289.29
	c-13.734-20.93-36.024-36.245-54.379-54.142c-1.876,1.538-3.753,3.076-5.629,4.613c-0.886,7.041-1.772,14.081-2.903,23.067
	c-6.996-14.577-13.229-27.564-20.215-42.121c-8.197,5.587-12.735,8.679-18.005,12.271
	C1540.866,336.823,1542.192,329.329,1543.519,321.834z M1543.081,1936.146c0.942,2.261,1.883,4.521,2.825,6.782
	c11.974-3.374,24.965-4.804,35.753-10.446c57.342-29.993,77.21-81.17,77.843-142.464c0.67-64.893-28.232-100.165-86.506-111.36
	c-53.811,36.792-104.436,71.405-153.191,104.74c13.585-1.881,29.311-5.514,45.105-5.839c15.966-0.328,32.315,1.131,47.941,4.433
	c36.932,7.805,68.313,27.181,66.7,77.513C1578.533,1891.238,1563.747,1914.514,1543.081,1936.146z M1148.454,950.552
	c-50.597-5.974-100.942-11.917-151.287-17.861c-0.168,2.005-0.335,4.01-0.503,6.014c10.783,2.596,21.566,5.193,32.349,7.789
	c-0.144,0.918-0.288,1.835-0.432,2.753c-10.413-1.06-20.825-2.12-32.165-3.274c-2.97,24.378-5.778,47.436-8.656,71.063
	c9.851,3.155,19.026,6.094,29.145,9.335c-10.309,0.733-19.579,1.391-28.848,2.05c0.018,1.919,0.036,3.838,0.054,5.757
	c51.776,7.357,103.553,14.713,155.402,22.08c6.77,7.375,13.473,14.677,19.379,21.112c13.477-2.079,24.958-3.851,42.26-6.52
	c-1.024-12.537,1.911-28.15-3.997-38.905C1185.597,1003.621,1166.196,977.409,1148.454,950.552z M514.159,1171.787
	c-4.631,36.908,23.453,75.907,61.094,82.292c30.449,5.165,61.271,8.127,99.174,12.997c-9.604-28.491-17.782-52.748-26.09-77.396
	C602.818,1183.61,558.488,1177.698,514.159,1171.787z M1390.941,972.667c-45.455-5.2-95.808,33.643-112.349,90.616
	c28.657,6.877,57.057,13.692,85.531,20.524C1373.498,1044.955,1382.031,1009.592,1390.941,972.667z M1509.766,1125.348
	c26.047,19.91,55.41,21.62,84.456,16.916c2.998-19.979,4.873-38.089,8.615-55.803c3.604-17.057,9.137-33.706,14.477-52.888
	C1555.849,1045.662,1507.841,1088.242,1509.766,1125.348z M1535.232,455.761c-18.422,3.76-28.817,5.882-36.286,7.407
	c-10.382,27.757-20.049,53.603-29.207,78.087c25.706,15.576,52.714,31.941,79.722,48.305c2.329-0.984,4.657-1.969,6.986-2.953
	C1549.501,543.767,1542.555,500.927,1535.232,455.761z M271.585,699.631c-50.58,25.497-96.348,52.011-111.522,117.096
	c12.688,5.061,25.753,10.273,39.893,15.914C215.364,781.07,266.225,754.737,271.585,699.631z M185.32,1018.567
	c-37.978,40.258-51.316,82.266-43.961,136.892c21.53,12.449,33.855-2.678,46.718-14.016
	C185.818,1099.538,212.273,1059.352,185.32,1018.567z M547.142,1048.839c15.671,9.074,26.325,11.936,31.534,18.882
	c15.348,20.466,28.538,42.55,44.286,66.619c3.59,0,11.457,0,16.015,0c11.192-25.614,21.574-49.375,33.748-77.237
	c-33.092-5.955-69.412-12.977-105.957-18.512C561.635,1037.814,555.4,1044.319,547.142,1048.839z M1021.828,65.863
	c5.307,33.248,18.707,52.579,40.666,62.862c26.412-16.264,51.952-31.99,77.47-47.702
	C1122.101,51.612,1062.972,44.887,1021.828,65.863z M1410.596,279.91c13.893,28.664,27.173,56.063,43.105,88.932
	c21.054-10.385,43.345-21.381,65.845-32.48C1498.231,297.31,1445.386,264.44,1410.596,279.91z M999.847,1187.672
	c22.942-29.465,44.448-58.643,86.29-54.034c0-11.653,0-20.078,0-28.427c-32.341-4.235-63.429-8.305-96.661-12.657
	C979.794,1124.982,991.396,1154.364,999.847,1187.672z M268.722,1444.75c-13.291-40.834-25.151-77.271-37.362-114.787
	c-27.568,29.255-30.158,113.828-3.312,144.307C241.436,1464.553,255.143,1454.605,268.722,1444.75z M1183.765,804.194
	c-6.531,49.721-12.437,94.681-18.105,137.83c7.809,12.398,14.179,22.512,24.38,38.707c6.245-45.8,10.657-85.225,17.334-124.261
	C1210.908,835.813,1201.704,822.496,1183.765,804.194z M1135.133,858.647c-2.454,24.853-4.74,47.996-7.026,71.139
	c3.022,0.394,6.044,0.788,9.066,1.182c4.196-26.064,8.393-52.127,12.761-79.26c-48.093-15.414-71.649-47.046-67.306-96.144
	c-58.685-4.93-58.685-4.93-74.051,11.13c19.642,2.532,39.007,5.029,57.705,7.44C1078.775,827.161,1078.775,827.161,1135.133,858.647
	z M537.793,1029.78c-2.134-0.352-4.268-0.704-6.403-1.056c-2.828,13.946-5.655,27.891-8.709,42.955
	c42.214,13.271,62.077,42.904,69.919,82.283c18.223,1.671,34.39,3.153,50.557,4.635c0.506-3.08,1.013-6.159,1.519-9.239
	c-13.096-2.747-26.193-5.493-41.375-8.677c-6.212-37.538-19.061-72.151-65.508-78.902
	C537.793,1050.121,537.793,1039.95,537.793,1029.78z M970.043,1821.661c13.353,19.256,21.952,44.281,53.198,39.665
	c24.17-3.571,48.38-6.879,72.572-10.304c-0.345-1.943-0.689-3.887-1.034-5.83C1053.351,1837.377,1011.923,1829.561,970.043,1821.661
	z M844.331,1069.356c0-13.041-0.67-23.16,0.183-33.149c0.909-10.639,3.258-21.156,5.155-32.808
	c-29.562,7.733-50.469,33.782-52.829,65.957C812.262,1069.356,827.462,1069.356,844.331,1069.356z M930.809,1085.869
	c0-21.645,0-43.049,0-66.342c-30.902,10.947-37.408,37.329-47.511,62.179c4.527,2.263,6.411,3.998,8.33,4.036
	C904.087,1085.99,916.553,1085.869,930.809,1085.869z M766.553,704.75c-25.021,34.294-28.354,59.857-14.517,78.019
	c14.124-12.489,28.307-25.032,45.717-40.427C788.17,730.795,778.261,718.856,766.553,704.75z M1092.412,1318.189
	c-22.482-2.144-38.835-3.704-58.807-5.609c2.754,12.598,4.916,22.491,6.858,31.374c50.962,14.67,56.146,13.839,65.572-12.697
	C1101.477,1326.885,1095.83,1321.468,1092.412,1318.189z M755.927,1031.983c-32.903,5.159-46.971,25.837-61.882,53.663
	c18.131,4.106,33.164,7.511,48.896,11.074C747.66,1073.191,751.423,1054.435,755.927,1031.983z M883.035,738.106
	c-10.048-11.844-19.738-23.266-29.829-35.16c-23.888,27.869-28.503,53.811-14.902,75.394
	C851.673,766.314,864.969,754.355,883.035,738.106z M940.804,773.291c15.089-14.02,28.875-26.83,44.956-41.772
	c-9.647-10.458-19.983-21.662-30.662-33.239C931.524,726.664,926.752,751.739,940.804,773.291z M362.118,1581.858
	c-1.789,0.872-3.578,1.744-5.367,2.617c0.596,27.562,8.53,52.108,31.069,74.286c7.293-9.572,13.048-17.125,19.023-24.969
	C391.027,1615.426,376.572,1598.642,362.118,1581.858z M1083.91,1149.013c-26.141-8.396-55.593,11.981-65.508,45.86
	C1039.928,1179.804,1061.862,1164.449,1083.91,1149.013z M937.375,147.104c-147.077,70.377-255.637,179.379-335.244,319.664
	c-11.185-11.013-20.817-22.755-32.592-31.664c-34.203-25.878-74.169-19.901-112.189-15.043
	c-34.08,4.354-67.358,14.983-101.334,22.924C411.14,231.517,658.149,70.172,930.499,82.472
	C932.691,103.072,934.897,123.813,937.375,147.104z M600.089,455.586c39.84-69.721,87.22-128.83,141.954-182.716
	c54.942-54.09,116.696-97.812,186.051-130.212c-2.322-18.879-4.331-35.222-6.643-54.026
	c-163.786,3.919-312.967,45.479-434.992,158.821c-53.706,49.884-94.511,110.014-118.237,182.318
	c31.816-6.978,60.317-16.416,89.413-18.911C509.479,406.414,563.852,398.889,600.089,455.586z M785.128,505.623
	c-50.929-45.164-104.678-25.664-163.259-15.284C692.777,338.65,799.527,231.15,942.377,157.177
	c10.66,11.626,20.942,22.839,31.75,34.627C886.09,277.314,824.149,382.311,785.128,505.623z M638.92,476.001
	c50.594-4.431,97.558-16.273,137.472,11.787c26.23-53.383,48.224-107.4,78.189-156.558c30.624-50.24,69.069-95.714,105.013-144.529
	c-3.956-4.626-9.508-11.119-16.457-19.244C808.571,236.613,708.25,337.723,638.92,476.001z M990.493,476.9
	c-3.264,3.559-6.173,6.733-9.453,10.309c-3.417-1.202-7.291-1.528-9.72-3.572c-43.475-36.577-85.678-25.89-127.934,2.542
	c-7.81,5.255-17.184,8.185-27.546,9.54c37.37-109.814,81.973-213.301,168.24-291.947c2.027,0.924,4.054,1.849,6.082,2.773
	c-1.623,4.714-2.498,9.871-4.987,14.072c-18.708,31.585-33.815,64.338-37.321,101.576c-4.067,43.205,2.969,83.79,25.683,121.331
	C979.873,453.994,984.696,465.378,990.493,476.9z M971.569,471.219c-10.26-34.741-27.319-71.658-30.678-109.782
	c-3.315-37.629,7.227-76.479,11.476-112.959c-54.595,67.702-95.902,145.988-123.256,232.022
	c29.962-12.314,57.87-23.784,85.596-35.179C936.71,455.343,956.044,464.149,971.569,471.219z M1457.216,907.861
	c19.478-2.499,37.64-2.953,50.061,21.577c0-10.331,0-15.905,0-22.025C1490.534,902.571,1473.849,893.924,1457.216,907.861z
	 M1282.009,1286.495c-10.174,20.514-17.977,36.249-27.107,54.658c95.051,7.014,182.454,19.209,267.84,44.851
	c-4.097,0.868-8.195,1.735-12.292,2.605c-9.885,42.9-52.504,78.864-116.222,73.756c-54.387-4.36-100.791-20.419-110.599-99.917
	c-14.65-3.262-35.709,0.545-37.706-23.255C1243.821,1314.12,1262.22,1302.923,1282.009,1286.495z M1301.945,1366.297
	c3.379,65.102,74.22,93.96,141.866,71.717c-5.169-13.99,10.43-38.642-19.107-38.98c-0.499-7.636-0.905-13.841-1.183-18.103
	C1382.09,1375.944,1342.894,1371.226,1301.945,1366.297z M971.329,1565.138c37.184,10.076,73.066,24.956,108.782,37.469
	c-56.931-55.301-171.983-87.625-221.192-25.672C894.947,1554.665,933.501,1554.888,971.329,1565.138z M1013.394,1445.314
	c1.592-1.438,3.184-2.876,4.776-4.314c-7.28-9.704-14.561-19.408-24.86-33.135c-16.739,9.292-30.772,17.081-44.805,24.871
	c0.993,1.639,1.986,3.278,2.979,4.917c14.514-2.546,29.029-5.092,41.408-7.263
	C1001.429,1436.604,1007.412,1440.959,1013.394,1445.314z M1152.379,1484.328c-1.163,1.893-2.326,3.786-3.489,5.679
	c5.381,3.729,10.761,7.459,16.142,11.189c2.097-1.721,4.193-3.442,6.29-5.163c-7.002-9.448-12.112-23.383-21.44-27.316
	c-14.858-6.265-31.631-3.157-44.093,15.611C1122.573,1484.328,1137.476,1484.328,1152.379,1484.328z"/>
</svg>
