<?xml version="1.0" encoding="iso-8859-1"?>
<!-- Generator: Adobe Illustrator 19.0.0, SVG Export Plug-In . SVG Version: 6.00 Build 0)  -->
<svg version="1.1" id="Layer_1" xmlns="http://www.w3.org/2000/svg" xmlns:xlink="http://www.w3.org/1999/xlink" x="0px" y="0px"
	 viewBox="0 0 500 500" style="enable-background:new 0 0 500 500;" xml:space="preserve">
<path d="M40.961,215.055c-2.079-1.062-3.705-1.816-5.258-2.699c-5.655-3.213-7.699-8.865-5.986-15.209
	c2.592-9.598,8.677-16.69,16.362-22.35c6.251-4.604,12.919-8.75,21.039-10.93c4.474-14.087,12.101-26.515,23.61-37.22
	c-1.337-0.177-2.346-0.615-3.141-0.367c-6.512,2.039-12.977,4.227-19.472,6.32c-1.694,0.546-3.444,0.918-4.937,1.309
	c-4.085-3.454-3.959-3.413-2.516-7.915c6.854-21.383,17.08-41.146,29.914-59.425c7.239-10.31,15.769-19.693,25.628-27.838
	c16.845-13.915,36.309-21.845,57.233-27.122c10.744-2.71,21.558-4.452,32.557-5.304c5.623-0.435,11.253-0.914,16.888-1.034
	c3.972-0.084,7.956,0.402,13.062,0.698c0.568-0.265,2.194-1.024,3.851-1.797c4.69-0.095,9.236,0.046,13.911,1.718
	c3.169,1.133,7.133,0.039,10.741-0.666c1.396,0.356,2.786,0.994,4.188,1.021c9.002,0.174,15.33,4.742,20.315,12.013
	c0,1.733,0,3.535,0,5.27c-2.707,6.72-9.965,7.483-14.983,11.581c0.286,5.262-1.888,9.728-5.402,13.66
	c-0.478,0.535-1.039,1.179-1.142,1.839c-0.983,6.245-5.384,10.472-8.743,15.367c-4.843,7.059-7.002,14.894-5.625,23.133
	c6.81-0.529,13.292-1.424,19.777-1.44c8.998-0.022,16.741,3.341,21.909,10.999c2.332,3.455,6.425,3.08,8.962,5.512
	c13.251-5.427,23.671-2.446,30.951,10.152c2.424-0.755,4.438-1.382,6.495-2.023c1.073-2.118,2.051-4.049,3.245-6.405
	c-4.09-6.822-2.781-13.723,0.993-20.528c-1.447-2.456-2.953-4.722-4.156-7.139c-1.097-2.204-2.225-4.5-2.697-6.882
	c-0.789-3.982,0.652-6.425,4.271-8.402c1.105-0.604,2.258-1.12,3.964-1.958c3.614,0.244,7.803,0.322,11.933,0.853
	c6.175,0.794,10.558,5.102,15.473,8.359c1.299,0.86,2.805,1.464,4.287,1.982c9.76,3.414,19.691,6.59,27.497,13.757
	c5.218,4.791,9.092,10.704,12.422,16.973c6.522,12.278,9.857,25.544,12.322,39.09c0.162,0.889,0.101,1.824,0.099,2.738
	c-0.021,10.007,0.742,20.017-0.017,30.02c-0.315,4.152-0.808,8.292-1.319,12.426c-0.286,2.314-0.775,4.603-1.107,6.519
	c5.063,7.135,7.921,14.584,10.277,22.428c3.567,11.873,5.059,24.099,5.948,36.261c0.83,11.356,1.048,23.004-2.143,34.81
	c2.268-1.502,4.657-2.853,6.77-4.548c2.19-1.758,4.223-3.558,7.616-2.645c2.3,1.612,3.235,3.567,1.755,6.755
	c-6.546,14.104-6.031,28.335-0.592,42.697c3.863,10.2,8.998,19.659,15.336,28.5c0.73,1.019,1.549,2.023,2.035,3.159
	c1.16,2.715,0.362,5.578-2.435,6.29c-11.441,2.909-16.585,12.045-21.928,21.178c-5.775,9.87-9.102,20.683-12.367,31.504
	c-0.935,3.098-2.314,4.762-6.263,4.793c-6.805-8.933-10.465-20.025-16.156-29.721c-9.18,0.757-13.708,6.981-18.126,13.782
	c1.108,0.726,2.234,1.555,3.441,2.242c12.046,6.853,17.904,17.281,18.331,31.051c0.317,10.207-1.299,19.875-6.423,28.866
	c-5.556,9.749-13.126,17.094-23.913,20.748c-5.381,1.823-10.92,1.633-15.987-0.546c-4.805-2.066-7.941-5.69-5.964-14.199
	c0.737-0.643,1.904-1.821,3.232-2.776c1.305-0.938,2.773-1.649,4.373-2.577c2.158-3.15,4.202-6.54,4.013-10.793
	c-0.165-3.722-1.494-5.542-5.148-6.64c-6.887-2.069-13.711-2.692-20.786-0.29c-6.564,2.228-13.393,2.997-20.448,0.508
	c-7.091,5.149-15.094,7.547-22.545,6.493c-6.451,2.927-11.67,5.344-16.932,7.667c-3.461,1.528-6.975,1.677-10.483,0.033
	c-3.513-1.646-6.9-1.338-10.445,0.234c-7.239,3.21-14.877,4.538-22.806,4.057c-1.094-0.066-2.285,0.159-3.267-0.2
	c-3.771-1.378-7.354-0.874-11.181,0.076c-12.617,3.134-24.398,0.781-35.287-6.236c-1.219-0.786-2.408-1.617-3.396-2.283
	c-18.451-0.316-22.634-1.014-36.431-9.788c-2.352,3.104-4.348,6.757-10.161,7.153c-8.575-1.327-13.9-8.177-17.667-16.517
	c-1.401-3.102-3.385-5.164-6.427-6.126c-10.566-3.342-16.802-10.428-19.001-21.241c-0.275-1.35-1.153-2.578-1.85-4.074
	c-3.879,2.436-7.47,4.692-10.547,6.625c-7.852-1.595-11.329-6.568-13.94-12.667c-2.938-6.864-3.623-13.993-3.275-19.799
	c-3.106-7.583-5.674-13.851-8.398-20.502c-1.097,0.47-2.257,0.833-3.276,1.434c-1.54,0.907-2.926,2.078-4.477,2.964
	c-4.961,2.833-9.896,3.588-15.365-1.289c-3.148-3.899-4.305-9.491-4.697-15.355c-0.639-9.561,0.773-18.794,4.486-27.63
	c1.114-2.651,1.159-5.141,0.467-7.944c-1.207-4.891-2.681-9.851-0.636-14.948c0.315-0.784,0.044-1.803,0.044-2.707
	c-1.059-1.753-2.082-3.449-3.43-5.68c-4.063,0.048-8.845,2.53-12.623-0.749c-2.41-2.092-4.072-5.046-5.872-7.36
	c0-4.901-0.047-9.289,0.03-13.674c0.022-1.239,0.305-2.5,0.645-3.701c2.744-9.694,7.611-18.214,13.885-26.08
	c2.202-2.76,3.527-6.264,4.99-9.545c0.479-1.074,0.367-2.567,0.11-3.781c-0.554-2.621-1.66-5.148-2.011-7.784
	C40.683,220.939,40.961,218.171,40.961,215.055z M139.994,211.485c-0.353-1.196-1.132-2.447-0.985-3.579
	c0.597-4.604,1.477-9.171,2.248-13.724c10.19-1.09,16.51-6.686,19.877-15.461c6.264,0.828,11.964,1.582,18.035,2.385
	c0.568-1.541,1.014-2.752,1.612-4.376c-8.371-2.008-16.319-2.736-24.219-3.477c-2.283,10.671-8.981,15.966-19.169,18.043
	c-0.895,6.546-1.762,12.884-2.697,19.716c1.74,0.353,3.285,0.667,4.83,0.981c0.307,0.428,0.614,0.856,0.989,1.378
	c-0.808,0.872-1.632,1.76-2.624,2.83c-4.064-0.425-8.131-0.851-12.029-1.259c-2.099,5.229-3.801,21.797-2.783,25.459
	c8.574,2.267,34.575,5.093,38.159,3.792c-3.27-0.885-5.939-1.607-8.607-2.329c0.046-0.222,0.093-0.444,0.139-0.665
	c2.668,0,5.335,0,8.401,0c0.808-5.845,1.571-11.36,2.356-17.038c-2.968-0.693-5.729-1.338-8.566-2.001
	c2.847-2.494,6.274,2.223,9.466-1.708c-6.128-1.461-11.891-1.799-18.296-2.526c2.042-1.953,3.455-3.304,4.632-4.431
	c4.93,0.573,9.388,1.091,14.275,1.658c0.625-4.998,1.181-9.442,1.738-13.888c1.254-0.421,2.327-1.169,3.291-1.048
	c19.053,2.403,38.094,4.899,57.13,7.432c0.615,0.082,1.15,0.763,2.375,1.622c-2.124,1.384-3.863,2.516-5.007,3.261
	c-17.608-2.538-34.449-4.965-51.77-7.461c-0.528,4.896-0.955,9.35-1.503,13.789c-0.553,4.474-1.212,8.936-1.85,13.399
	c-0.611,4.272-1.35,8.528-1.858,12.812c-0.595,5.024-1.081,10.065-1.42,15.112c-0.066,0.992,0.756,2.044,1.199,3.143
	c3.603-3.585,6.78-6.746,9.491-9.443c3.073-0.631,5.375-1.104,7.956-1.634c1.288,0.495,2.789,1.073,4.676,1.798
	c-0.217,2-0.431,3.979-0.674,6.221c4.26-0.053,4.739-3.325,5.96-5.921c-0.809-0.7-1.437-1.244-2.012-1.74
	c2.255-4.838,4.458-9.564,6.819-14.629c-3.424-2.799-4.395-6.307-3.547-10.335c0.79-1.211,1.581-2.421,2.377-3.642
	c2.157-0.931,4.282-1.848,6.748-2.912c2.535,1.852,4.959,3.623,6.79,4.96c1.037,6.022,0.071,10.354-5.125,12.658
	c-0.013,2.772-0.49,5.474,2.44,7.013c1.802-1.966-0.794-6.098,3.057-6.245c-0.24,1.953-0.613,3.88-0.686,5.819
	c-0.12,3.196,0.12,6.411-0.099,9.597c-0.243,3.524-1.128,7.056,1.366,11.382c3.922-9.167,8.604-16.556,18.232-17.63
	c0.882-2.555,1.56-4.517,2.237-6.48c0.851,2.234,0.719,4.216,0.573,6.198c-0.309,4.184-0.717,8.363-0.875,12.553
	c-0.04,1.049,0.715,2.127,1.105,3.192c0.342-0.042,0.685-0.083,1.027-0.125c2.25-16.089,4.5-32.179,6.729-48.117
	c-3.015-3.301-7.125-1.145-10.811-2.657c0.931-1.472,1.755-2.777,2.557-4.045c3.143,0.157,6.044,0.302,9.201,0.46
	c1.085,0.897,2.312,1.912,3.562,2.946c-0.557,4.803-2.303,9.35-1.001,14.308c9.692,0.498,19.138,3.13,29.054,3.3
	c0.349-5.296,0.655-9.941,0.984-14.932c-6.29-2.666-12.338-6.169-14.76-14.111c-0.131-1.418-0.312-3.367-0.539-5.827
	c-7.757-1.158-15.238-2.275-22.952-3.426c-1.902,1.781-3.88,3.634-5.873,5.502c-1.166-0.066-2.231-0.126-3.564-0.201
	c-1.147-2.253-2.259-4.437-3.209-6.304c-3.913,0-7.484,0-10.524,0c-2.574,2.864-4.738,5.272-6.882,7.658
	c-1.674-0.089-3.11-0.165-4.587-0.244c-1.126-1.78-2.176-3.442-3.13-4.95c-2.383-0.369-4.495-0.697-6.565-1.018
	c-3.088,2.871-6.132,5.702-9.161,8.518c-1.585-1.04-2.776-1.822-4.56-2.993c-0.477-4.465-0.986-9.236-1.517-14.216
	c-4.692-0.538-9.121-1.045-13.88-1.59c-3.571,8.212-9.678,13.521-18.208,15.701c-0.53,5.064,0.022,9.956-3.156,13.863
	C141.448,211.555,140.721,211.52,139.994,211.485z M402.318,166.693c-1.362-1.174-2.692-2.387-4.091-3.515
	c-3.521-2.837-6.933-5.844-10.672-8.361c-1.807-1.216-4.254-1.484-6.114-2.085c-1.237,1.096-2.048,1.815-3.44,3.048
	c0.959,4.526,1.995,9.41,3.202,15.105c-0.183,0.246-0.79,1.064-1.35,1.816c-4.271-3.464-7.741-6.28-11.703-9.493
	c-0.85,1.626-2.011,2.834-2.017,4.047c-0.02,3.985,0.38,7.973,0.615,11.96c0.064,1.087,0.116,2.174,0.224,4.208
	c-5.49-11.124-5.798-18.314-0.945-23.64c2.362,0.548,5.062,1.175,8.279,1.921c0.252-2.492,0.517-5.119,0.825-8.158
	c1.742-1.253,3.69-2.652,5.86-4.213c-5.435-4.197-11.053-7.272-17.134-9.57c-4.025-1.521-7.988-2.403-12.829,0.458
	c-0.499,2-1.165,4.676-1.625,6.518c2.348,3.735,5.52,5.712,5.506,10.124c-6.487,0.021-13.373-1.878-18.163,4.216
	c-0.282,1.422-0.566,2.852-0.928,4.678c-2.295-2.591-1.237-4.766-0.217-6.546c2.553-4.452,7.151-5.861,12.048-6.765
	c-0.783-3.999-3.803-7.079-1.903-11.276c1.791-3.956,5.674-4.934,8.74-6.963c-4.608-9.59-14.175-14.144-24.283-11.461
	c-0.825-1.135-1.732-2.43-2.688-3.686c-1.528-2.008-2.906-4.173-4.671-5.951c-5.345-5.382-10.288-5.171-16.009,0.475
	c1.152,1.996,2.653,3.877,3.387,6.021c1.49,4.354,4.189,7.571,7.909,10.115c0.722,0.494,1.183,1.368,2.558,3.022
	c-13.793-7.266-14.008-7.256-22.127,0.806c0.743,1.342,1.689,2.796,2.383,4.362c1.175,2.653,3.763,4.808,3.073,9.571
	c-3.922-6.127-8.015-10.681-10.357-16.521c4.596-2.437,9.115-4.833,13.776-7.305c-2.603-12.091-9.724-19.29-21.915-17.315
	c-1.911,1.228-3.842,2.469-6.659,4.279c1.671-4.332,6.716-3.623,7.068-8.299c-2.542-1.223-5.105-2.885-7.914-3.731
	c-9.676-2.913-18.915-0.309-28.108,2.417c-0.123,0.836-0.39,1.422-0.247,1.879c0.802,2.556,1.703,5.08,2.579,7.643
	c1.717,0.185,3.307,0.357,4.841,0.522c4.57,5.211,4.33,10.532-0.578,15.305c-0.593-2.592-1.197-5.231-1.9-8.302
	c-1.322,0.941-2.334,1.661-3.443,2.45c-3.867-5.295-4.965-11.227-6.658-16.871c-2.394-7.982-2.058-16.285-1.35-24.411
	c0.991-11.375,7.66-20.343,14.554-29.067c-3.35-1.624-6.145-2.978-8.939-4.333c0.114-0.271,0.227-0.542,0.341-0.813
	c2.03,0.495,4.059,0.991,6.427,1.569c2.254-1.406,4.665-2.909,7.14-4.453c-2.211-2.097-5.925-1.315-7.289-5.267
	c1.308,0.577,2.05,0.94,2.819,1.234c0.84,0.322,1.703,0.799,2.559,0.805c0.836,0.005,1.675-0.499,2.875-0.902
	c-10.178-6.354-15.694-14.816-15.398-26.653c-4.33,2.009-2.269,5.928-3.793,9.409c-0.28-3.024-0.477-5.149-0.659-7.109
	c-2.369-1.292-4.218-0.757-5.865,0.609c-1.484,1.231-2.848,2.608-4.408,4.054c-0.325-1.266-0.541-2.106-0.834-3.248
	c-10.102,0.314-20.02-0.532-30.06,0.905c-7.504,1.074-15.008,2.124-22.412,3.681c-12.931,2.72-25.4,7.027-37.311,12.696
	c-15.524,7.389-28.096,18.619-38.569,32.071c-11.672,14.994-20.979,31.468-28.693,48.828c-0.756,1.701-1.155,3.56-1.964,6.12
	c5.25-1.439,9.545-2.551,13.801-3.796c11.009-3.221,22.178-5.489,33.704-4.879c9.171,0.485,17.66,2.576,22.228,13.09
	c0,1.22,0,3.352,0,5.813c1.283-0.257,2.161-0.36,2.994-0.613c6.75-2.046,13.474-4.322,20.628-4.27
	c9.66,0.069,18.869,1.509,25.568,9.597c0.76,0.917,1.777,1.62,2.518,2.282c3.347-2.777,6.404-5.356,9.505-7.88
	c8.978-7.306,18.686-11.783,30.103-7.925c5.365,3.388,7.314,8.552,9.748,13.725c-4.046,0.85-6.213-0.809-7.907-3.805
	c-1.564-2.766-3.742-5.252-7.156-5.344c-4.562-0.124-9.099,0.255-13.265,2.627c-8.218,4.679-15.864,10.021-21.612,18.133
	c-1.652-2.45-2.877-4.669-4.477-6.573c-7.585-9.027-18.014-10.536-28.496-8.685c-8.365,1.477-16.899,3.636-25.24,9.036
	c0.431-3.439,0.796-5.88,1.032-8.333c0.414-4.29,0.514-9.164-3.476-11.366c-4.25-2.345-8.965-4.848-15.271-3.714
	c-4.909,3.619-10.53,7.608-15.983,11.814c-11.974,9.235-19.347,21.734-24.738,35.562c-0.533,1.367-0.478,2.963-0.756,4.856
	c8.644,0.078,13.162-6.366,19.396-9.531c-0.422,1.488-1.183,2.628-1.788,3.847c-1.686,3.399-3.756,6.695-4.843,10.283
	c-1.43,4.724-4.03,9.944,3.081,14.365c-5.758-1.845-6.804-3.125-6.973-7.614c-0.093-2.466-0.017-4.938-0.017-7.648
	c-2.971,0.712-5.237,1.255-7.279,1.745c-2.171-0.826-4.152-1.58-6.248-2.378c-3.929,6.03-4.774,12.511-6.255,19.447
	c1.035,1.854,2.298,4.118,3.422,6.133c4.422,0,8.068,0,12.397,0c-7.952,4.538-9.022,4.691-16.949,2.705
	c-0.986-1.61-1.998-3.261-2.979-4.862c-4.602,1.718-10.626,11.328-10.934,19.911c-0.235,6.561-0.262,13.892,6.21,18.619
	c5.864-3.451,7.592-9.486,10.722-15.368c-2.001,12.382-2.969,14.391-9.418,19.702c-1.312-0.168-2.855-0.365-4.547-0.581
	c-0.654,0.747-1.531,1.47-2.055,2.393c-3.691,6.501-2.632,17.931,2.292,23.529c0.872,0.991,2.366,1.708,3.686,1.961
	c1.739,0.333,3.59,0.082,5.936,0.082c2.409-4.016,4.763-7.94,7.117-11.864c-0.166,2.548-0.867,4.915-1.612,7.267
	c-2.66,8.397-7.809,11.054-16.527,8.246c-5.508,11.241-4.535,21.586,3.978,30.686c-2.121,6.188-2.547,12.016-0.6,17.937
	c2.016,6.13,7.027,9.781,11.554,13.569c-2.785,6.666-4.882,13.058-0.136,19.193c4.731,6.117,10.659,9.906,19.129,8.2
	c-2.218,1.474-4.436,2.949-6.842,4.548c1.369,13.373,7.509,23.052,20.758,26.849c1.035,7.797,1.141,8.122,3.836,12.075
	c10.765,4.189,14.787,2.039,18.387-10.087c0,3.012,0.445,5.817-0.102,8.413c-0.86,4.079-4.402,6.445-6.749,8.507
	c-0.07,14.366,7.924,20.425,20.55,21.495c1.599,6.18,5.85,9.518,11.167,10.468c4.679,0.836,9.66-0.013,15.115-0.131
	c3.51,4.096,7.698,8.436,13.851,10.324c6.156,1.889,12.334,2.661,18.896,1.787c2.784-7.081,0.087-12.936-4.405-19.15
	c1.7,0.405,2.798,0.342,3.322,0.86c1.061,1.049,2.16,2.293,2.628,3.666c1.794,5.257,3.344,10.596,5.356,17.105
	c7.404,7.68,24.338,10.735,35.176,4.573c-0.576-1.397-0.832-3.181-1.846-4.241c-2.36-2.467-4.834-4.988-7.707-6.769
	c-9.521-5.904-19.208-11.436-27.294-19.449c-10.46-10.366-17.975-22.363-21.537-36.623c-2.139-8.566-2.056-17.345,0.039-25.955
	c0.792-3.256,2.376-6.32,3.746-9.849c-9.198-1.659-12.576-8.851-16.316-15.48c0.308-1.566,0.579-2.942,0.911-4.628
	c-1.508-0.515-2.753-0.939-3.256-1.111c-1.646-2.377-2.935-4.238-4.009-5.787c-5.421-0.793-10.263-1.834-15.149-2.116
	c-4.137-0.238-7.987-1.18-11.512-3.113c-2.395-1.313-5.154-2.55-6.423-5.938c1.69,0.419,2.932,0.726,4.174,1.034
	c0.157-0.39,0.314-0.781,0.471-1.171c-2.207-1.183-4.415-2.366-6.485-3.476c0.379-0.182,0.986-0.474,1.548-0.744
	c-1.163-1.24-2.675-2.218-3.274-3.593c-4.17-9.568-8.275-19.058-6.215-30.084c1.928-10.323,3.005-20.806,4.426-31.223
	c0.039-0.285-0.275-0.619-0.431-0.942c-0.917,0.439-1.832,0.876-2.664,1.274c-2.469-2.828-2.664-5.883-2.263-9.013
	c1.055-8.248,2.184-16.487,3.29-24.728c0.719-5.357,1.892-6.485,7.22-6.658c2.979-15.246,3.128-31.068,7.244-46.426
	c17.137,0.336,33.2,4.858,49.436,5.614c6.876-9.753,15.544-15.648,27.261-16.475c1.016-0.072,2.041-0.607,2.978-1.091
	c5.129-2.651,10.278-4.991,16.157-5.794c5.296-0.724,12.846,0.279,17.483,3.359c-0.166,0.066-0.339,0.202-0.495,0.185
	c-0.536-0.06-1.086-0.114-1.596-0.277c-10.725-3.41-20.568-1.685-29.761,4.769c-1.684,1.182-3.944,1.888-6.015,2.117
	c-10.913,1.201-17.652,7.88-23.757,17.369c6.39,2.694,9.677,7.725,12.726,14.222c1.783-5.63,3.173-10.255,4.736-14.821
	c0.516-1.507,1.336-2.959,2.258-4.267c2.91-4.125,7.187-6.583,11.467-8.982c0.489-0.274,1.333,0.084,2.27,0.174
	c-2.603,1.873-5.077,3.379-7.213,5.268c-2.107,1.863-3.872,4.114-5.551,5.939c2.981,2.514,5.897,4.395,8.029,6.934
	c2.147,2.558,3.514,5.771,5.267,8.773c2.339,0.52,3.824-0.638,4.602-2.728c1.749-4.7,3.6-9.378,5.013-14.182
	c1.635-5.558,8.35-10.396,15.233-9.866c-6.122,1.851-10.531,4.741-12.806,10.056c2.91,2.141,5.712,3.643,7.741,5.854
	c2.001,2.18,3.22,5.078,4.839,7.753c0.75-0.547,1.316-0.96,1.9-1.386c3.098,3.046,5.304,1.34,7.017-1.683
	c0.881,0.689,1.44,1.125,1.505,1.176c2.05-0.524,3.701-1.315,5.336-1.282c2.689,0.055,5.362,0.68,8.049,1.001
	c6.673,0.795,13.359,1.49,20.019,2.38c1.366,0.183,2.641,1.045,4.309,1.74c0.271,2.119,0.542,4.244,0.868,6.793
	c1.71,2.083,3.67,4.471,5.371,6.543c2.251,0.901,4.071,1.629,6.068,2.428c0,2.93,0,5.629,0,8.377c1.296,0.119,2.3,0.212,4.027,0.371
	c-1.011,8.49-1.994,16.747-3.198,26.855c0,4.207,0,10.328,0,16.644c1.368,0.14,2.41,0.247,3.483,0.356
	c1.207-1.335,2.292-2.558,3.402-3.757c5.712-6.175,11.854-11.598,19.932-14.771c5.14-2.019,9.905-1.264,14.304-0.837
	c3.513,3.218,1.8,7.361,3.406,10.87c0.879-1.156,1.429-1.879,2.386-3.137c1.154,5.967-0.273,10.711-2.291,15.419
	c-1.321-0.452-2.374-0.813-3.649-1.249c0.479,2.767,4.59,10.63,6.981,13.001c1.074,1.066,2.693,1.582,3.098,1.807
	c6.937-1.472,11.6-4.598,15.64-8.973c4.143-4.488,9.58-6.753,15.292-8.979c5.044-1.966,9.424-1.342,14.002-0.762
	c1.488,2.412,2.721,4.411,3.981,6.453c-0.444,1.052-0.85,2.017-1.176,2.789c0.652,1.051,1.198,1.929,1.737,2.797
	c-0.994,2.017-1.867,3.788-2.806,5.694c0.917,0.753,1.713,1.406,2.846,2.336c0,2.995,0,6.253,0,9.253
	c7.886,5.782,8.658,15.117,12.805,23.399c1.878-1.101,3.671-1.637,4.68-2.834c4.137-4.904,6.722-10.588,7.764-16.967
	c0.609-3.729,1.822-7.406,2.008-11.145c0.261-5.24,2.696-10.629-0.928-16.418c-4.744,4.349-9.394,8.613-14.044,12.876
	c4.012-7.149,6.957-15.251,16.074-17.639c0.728-7.886,0.237-15.365-4.307-21.813c-3.088-1.292-5.163,0.453-7.848,1.293
	c1.082-1.312,2.164-2.624,2.832-3.433c3.866-1.478,6.003,0.545,8.399,2.455c-0.121-2.541-0.534-4.747-1.128-6.903
	c-2.294-8.335-5.058-16.489-9.896-23.76c-3.906-5.87-11.1-7.256-15.34-2.612c-1.979,2.168-3.192,5.172-4.273,7.981
	c-0.874,2.27-1.03,4.817-1.663,8.047c-1.451-5.277-0.605-9.664,0.887-13.642c1.713-4.568,4.304-8.92,10.482-8.46
	c1.46,0.109,2.955-0.242,5.191-0.452c-4.214-6.556-7.277-13.278-13.094-17.616c-6.261,0.854-9.611,4.881-11.89,10.184
	c-0.337-0.173-0.675-0.345-1.012-0.518c0.524-2.311,1.048-4.622,1.71-7.543c2.833-1.906,5.896-3.967,9.151-6.157
	c-0.271-0.795-0.675-1.983-1.08-3.171c1.365,1.177,2.646,2.477,4.126,3.485c0.879,0.598,2.071,0.736,3.599,1.237
	c0.09-14.439,1.047-28.218-3.254-41.62c-3.01-9.38-7.302-17.961-15.049-24.531c-2.396,1.439-4.649,2.793-7.425,4.461
	c7.56,14.25,9.931,29.324,7.77,44.592c2.626,2.001,4.547,4.451,6.407,6.945C399.69,162.913,400.987,164.816,402.318,166.693z
	 M283.789,345.467c-3.956-1.72-7.801-3.811-11.902-5.059c-4.108-1.25-8.447-2.13-12.727-2.346
	c-11.283-0.571-22.567-0.088-33.669,2.182c-9.455,1.933-18.358,5.354-26.317,10.982c-5.837,4.127-10.031,9.517-12.06,16.349
	c-1.797,6.052-0.792,12.397,0.267,18.299c2.446,13.633,9.065,25.422,18.732,35.405c5.201,5.372,11.349,9.498,17.762,13.277
	c14.774,8.706,31.039,12.927,47.848,14.089c13.537,0.935,27.234,0.94,40.748-1.896c10.433-2.189,20.668-4.876,30.358-9.347
	c12.158-5.609,23.194-12.877,33.709-21.257c12.775-10.18,23.894-21.643,32.838-35.27c0.818-1.246,1.883-2.329,2.833-3.488
	c0.299,0.184,0.599,0.368,0.898,0.551c-1.078,1.977-2.156,3.954-3.702,6.79c2.461-0.519,4.008-0.79,5.526-1.176
	c4.495-1.142,7.02-0.101,9.329,4.157c1.629,3.004,3.013,6.141,4.598,9.169c1.043,1.992,2.251,3.897,3.827,6.6
	c6.734-14.495,11.806-28.9,23.807-39.125c-4.724-3.192-10.63-1.082-15.105-5.817c7.211,0.946,13.592,2.194,20.028,1.009
	c-4.293-8.643-8.919-16.821-12.48-25.44c-3.633-8.795-5.557-18.155-4.992-28.825c-2.942,1.986-4.256,3.75-5.674,5.658
	c-1.241,1.67-2.033,4.494-5.252,4.299c2.988-4.5,5.829-8.777,8.747-13.171c-0.899-0.433-1.544-0.974-1.797-0.83
	c-2.323,1.33-4.447,3.084-6.88,4.132c-5.538,2.385-10.758,6.696-17.39,3.61c-5.995-4.426-4.658-12.859-10.032-18.152
	c-1.467,4.966-3.251,9.556-7.042,12.745c-4.106,3.455-9.062,4.189-14.88,3.259c13.157-2.488,19.748-10.071,16.034-17.943
	c-1.644,1.033-3.288,2.067-4.776,3.003c-1.703-0.184-3.112-0.337-4.966-0.537c3.365-0.757,6.578-0.853,7.949-4.745
	c-6.046-0.156-11.819,0.203-17.429-0.59c-5.939-0.84-11.269-3.629-15.717-8.122c0.273,3.613,3.179,5.478,5.407,7.96
	c-4.13,1.584-5.45-2.329-7.91-3.682c-1.196,1.441-2.236,2.694-3.1,3.735c-0.427,2.999-0.809,5.687-1.241,8.723
	c-3.538-4.574-0.911-9.728-2.013-14.39c-2.254-0.428-4.364-0.828-6.36-1.207c-4.159,6.068-7.607,8.335-11.606,7.756
	c6.421-4.508,7.947-7.829,6.191-13.452c-3.042,0.411-5.206,3.822-8.788,2.714c1.739-2.723,6.187-1.932,6.925-6.322
	c-6.33,0.754-12.515,2.091-18.782,0.085c-5.959-1.908-11.85-3.61-14.939-9.85c-0.694,0.614-1.097,0.97-2.07,1.832
	c2.473,2.834,4.92,5.638,7.367,8.443c-3.559-0.096-4.698-3.22-7.438-5.1c-1.308,1.566-2.785,2.914-3.716,4.57
	c-0.892,1.588-1.217,3.495-1.8,5.289c-1.055-1.208-1.851-2.121-2.5-2.864c-16.225,1.64-25.504,10.438-28.461,26.114
	c-5.324,1.689-10.567,3.353-15.9,5.045c-0.539,5.287-1.013,9.925-1.525,14.945c9.542,4.816,20.008,4.417,29.376,7.893
	c2.113,0.784,4.541,0.718,7.464,1.135c0.827-2.384,1.612-4.32,2.16-6.32c0.572-2.091,0.915-4.244,1.576-7.413
	c2.423,6.248,1.893,11.207-1.218,16.501c-1.652,0.927-3.799,2.132-5.575,3.129C285.489,337.344,284.673,341.241,283.789,345.467z
	 M212.724,273.091c-2.785,6.048-1.299,12.086-1.354,18.093c-3.746-6.924-2.414-14.735-3.571-22.286
	c0.417-0.376,1.171-1.057,2.877-2.596c-4.408,1.419-7.64,3.348-10.785,3.215c-2.989-0.126-6.302-0.318-9.379-2.059
	c-3.048,6.89-2.762,13.628-2.283,20.57c-0.878-3.373-1.755-6.745-2.594-9.969c-2.198-0.263-3.953-0.473-6.817-0.815
	c2.04-1.263,2.969-1.838,3.98-2.464c-2.938-0.2-5.769,0.097-8.251-0.695c-2.673-0.854-5.021-2.729-7.518-4.163
	c-6.8,5.471-5.162,13.176-5.226,20.343c-0.068,7.616,3.603,14.179,6.547,20.526c-2.578,8.165-0.692,15.315,3.195,22.067
	c4.155,7.218,11.331,11.093,17.938,15.539c0.802,0.54,2.07,0.389,3.132,0.56c6.601-7.78,15.541-11.061,24.793-13.717
	c9.283-2.665,18.859-2.963,29.091-2.831c-0.705-5.684-0.028-10.783-0.974-16.1c-0.912-5.128,0.161-10.609,0.345-15.511
	c-2.038-1.477-3.487-2.527-4.95-3.587c-0.059-6.471,0.008-12.817-2.922-18.67c-1.651,0.365-3.036,0.67-5.081,1.122
	c2.175-2.606,4.893-4.265,2.742-7.636c-2.397,0.855-4.023,3.654-7.6,3.075c0.825-1.173,1.385-1.97,2.352-3.347
	c-2.497,0.657-4.214,1.109-5.776,1.521c-3.762-0.844-7.352-1.649-11.62-2.606c1.527,1.337,2.481,2.172,3.434,3.007
	c-0.101,0.184-0.202,0.368-0.303,0.551C215.199,273.914,214.252,273.599,212.724,273.091z M380.021,108.203
	c4.082-2.113,7.811-4.044,12.06-6.244c2.268,2.408,4.98,4.816,7.13,7.652c8.714,11.496,12.28,24.813,12.867,38.976
	c0.339,8.184,0.062,16.394,0.062,24.912c1.883,3.064,3.902,6.35,6.48,10.546c0.554-1.907,0.954-2.705,0.998-3.522
	c0.458-8.37,1.128-16.741,1.216-25.117c0.155-14.715-3.26-28.798-8.997-42.246c-4.17-9.776-9.705-18.731-19.102-24.536
	c-0.87-0.537-1.942-0.746-3.231-1.223c-0.283,2.14-0.519,3.925-0.832,6.296c-2.533-3.515-1.1-8.571-6.117-9.945
	c-0.955,0.649-2.041,1.386-3.135,2.129c0.221-1.932,0.441-3.853,0.66-5.774c-0.426-0.213-0.852-0.425-1.278-0.638
	c-2.479,4.822-5.766,8.97-10.684,10.947c-4.745,1.907-9.803,3.035-15.425,4.715c2.461,1.093,4.539,2.016,6.618,2.939
	c-0.057,0.19-0.114,0.381-0.171,0.571c-2.537-0.274-5.075-0.548-7.675-0.829c0.154,6.383,4.08,8.733,9.066,10.422
	c-1.909,0.126-3.818,0.252-5.671,0.375c-2.326,4.057-4.588,8.004-6.628,11.562c4.066,4.253,7.601,7.95,11.306,11.826
	c4.742-6.198,5.297-13.41,7.352-20.19c1.845,0.433,3.208,0.753,4.194,0.985c2.332-0.901,4.272-1.65,6.487-2.506
	c1.734,3.725,3.828,6.851,4.663,10.284c2.021,8.313,3.042,16.797,2.366,25.415c-0.129,1.639,0.32,3.323,0.525,5.193
	c1.62-0.135,2.608-0.218,3.59-0.299C390.166,135.487,388.96,121.057,380.021,108.203z M379.715,481.301
	c1.564,0.247,2.391,0.476,3.221,0.491c4.665,0.084,8.374-2.409,11.795-5.02c12.642-9.649,16.614-26.764,13.255-41.93
	c-0.738-3.33-1.987-6.497-4.305-9.219c-4.581-5.379-10.682-7.722-17.296-9.371c-2.716,2.222-5.383,4.359-8.002,6.556
	c-6.917,5.802-13.649,11.828-22.296,15.135c-2.714,1.038-5.603,2.128-7.483,4.796c4.868-0.536,9.488-1.388,14.118-1.448
	c3.766-0.049,7.607,0.565,11.302,1.392c7.104,1.589,13.153,5.244,14.711,12.723c1.639,7.864,0.212,15.538-5.513,21.837
	C382.171,478.4,381.174,479.609,379.715,481.301z M295.276,266.221c2.711-4.87,1.744-8.921-1.736-12.624
	c-0.837-0.891-1.447-2.007-2.102-3.057c-3.018-4.842-6.016-9.697-8.785-14.168c-4.654-0.594-8.774-1.1-12.887-1.649
	c-7.506-1.002-15.003-2.075-22.519-2.987c-0.886-0.107-1.872,0.611-3.871,1.326c4.135,0.903,6.92,1.511,9.706,2.119
	c-0.022,0.211-0.044,0.422-0.066,0.633c-2.714-0.225-5.428-0.449-8.4-0.695c-0.741,6.094-1.45,11.934-2.15,17.694
	c2.85,0.816,5.227,1.496,7.894,2.259c-2.863,0.142-5.425,0.269-7.988,0.396c-0.019,0.474-0.037,0.947-0.056,1.421
	c12.968,1.857,25.935,3.713,38.779,5.552c1.786,1.92,3.458,3.719,4.811,5.174C289.368,267.099,292.216,266.676,295.276,266.221z
	 M124.312,290.975c0.505,2.742,0.629,5.433,1.515,7.844c2.73,7.429,8.29,11.583,16.051,12.767c6.899,1.052,13.816,1.979,20.59,2.943
	c0.439-0.369,0.926-0.576,0.962-0.843c0.189-1.415,0.752-3.031,0.294-4.239c-1.763-4.652-3.866-9.176-5.96-14.019
	C146.975,293.991,135.978,292.527,124.312,290.975z M342.942,241.921c-9.329-3.423-24.052,8.023-28.035,20.988
	c5.807,3.297,4.553,4.331,21.746,5.555c0.628-4.257,0.979-8.669,1.989-12.924C339.714,251.03,341.414,246.669,342.942,241.921z
	 M393.457,283.761c-0.479-6.747,1.203-12.758,3.166-18.793c0.775-2.381,2.538-5.034,0.704-7.79
	c-6.387,0.285-11.913,2.412-16.396,7.083c-4.259,4.438-9.25,8.418-9.361,15.151C380.423,284.965,383.122,284.481,393.457,283.761z
	 M360.701,134.624c3.922,1.888,7.539,3.385,10.905,5.318c3.472,1.994,6,5.486,10.017,6.917c2.268-9.237-0.919-27.602-5.584-32.896
	c-2.397,0.485-4.83,0.977-7.561,1.529C366.939,122.092,365.92,129.071,360.701,134.624z M39.29,205.027
	c2.715,0.446,5.31,0.872,7.853,1.29c2.769-6.893,6.645-12.285,11.346-17.175c3.834-3.989,4.521-9.439,6.333-14.46
	c-12.489,5.639-23.83,12.215-27.236,26.844C38.093,202.568,38.562,203.53,39.29,205.027z M135.153,257.876
	c-0.493,1.084-0.749,1.404-0.765,1.735c-0.034,0.695,0.057,1.396,0.104,2.212c10.204,2.805,13.184,11.517,16.071,19.901
	c2.528,0,4.461,0,6.335,0c1.89-6.522,2.325-13.404,8.281-17.441c-3.192-1.444-6.083-2.751-8.972-4.058
	C149.267,259.451,142.266,258.669,135.153,257.876z M43.658,284.172c0.666-4.62,1.298-8.362,1.724-12.128
	c0.446-3.935,1.182-7.935,0.845-11.825c-0.201-2.317-0.496-5.345-3.128-7.092c-7.038,8.087-10.813,17.259-11.804,27.511
	c0.454,2.147,0.896,4.237,1.356,6.415c1.088,0.532,2.192,1.073,3.205,1.568c2.048-0.892,3.926-1.578,5.666-2.521
	C42.451,285.599,43.141,284.655,43.658,284.172z M280.183,20.649c-4.148-7.851-21.637-8.878-29.343-3.404
	c1.299,6.611,4.145,12.17,9.877,15.368C267.479,28.457,273.83,24.554,280.183,20.649z M347.136,70.172
	c2.735,6.956,8.736,12.544,9.181,20.589c7.48,0.497,12.532-3.298,17.402-7.485C370.435,75.032,355.419,65.595,347.136,70.172z
	 M244.325,293.933c3.872,1.519,4.369-1.169,5.088-2.677c2.084-4.369,5.39-7.237,9.868-8.657c2.33-0.739,4.862-0.842,7.569-1.274
	c0-2.416,0-4.505,0-6.746c-7.977-1.054-15.83-2.091-24.107-3.184C240.661,279.454,243.335,286.673,244.325,293.933z M63.874,357.902
	c-1.437-4.656-2.811-9.297-4.306-13.899c-1.471-4.529-3.065-9.019-4.812-14.134c-4.97,6.403-5.143,13.64-5.575,20.382
	c-0.324,5.064-0.216,10.829,3.796,15.097C58.271,364.172,59.705,363.175,63.874,357.902z M291.357,241.929
	c0.442,0.087,0.883,0.174,1.325,0.261c1.733-11.143,3.619-22.262,4.682-34.148c-0.587-0.806-1.546-2.106-2.488-3.419
	c-0.918-1.28-1.819-2.572-3.337-4.723c-2.521,12.334-3.76,23.731-4.716,34.434C288.621,237.347,289.989,239.638,291.357,241.929z
	 M265.685,187.889c-4.834-0.543-9.277-1.041-13.379-1.502c-1.952,1.459-3.529,2.638-5.525,4.13
	c5.413,0.687,10.331,1.311,15.77,2.002c0.05,5.133,1.141,9.799,4.226,13.836c3.159,4.133,8.364,4.646,12.329,6.928
	c-0.34,3.419-1.063,6.494-0.824,9.491c0.226,2.832-2.808,5.749,0.005,8.687c2.054-2.43,4.098-13.711,3.729-19.715
	C270.51,206.345,266.459,203.193,265.685,187.889z M144.731,286.177c4.086,1.055,8.251,2.167,13.191,0.824
	c-2.859-4.633-7.241-1.712-10.233-3.358c-1.563-4.357-2.567-9.037-4.843-12.983c-2.378-4.121-7.011-5.827-11.686-6.995
	c-0.152-3.102-0.299-6.079-0.44-8.957c-2.886,3.371-3.763,7.239-2.629,11.532C138.77,271.916,138.77,271.916,144.731,286.177z
	 M269.106,458.833c-0.032-0.422-0.064-0.845-0.097-1.267c-5.177-0.699-10.394-1.188-15.521-2.155
	c-5.136-0.969-10.181-2.415-15.879-3.802c2.296,3.408,4.153,6.165,6.202,9.206C252.36,463.535,260.783,461.759,269.106,458.833z
	 M206.562,265.101c0.473-5.401,0.922-10.525,1.41-16.096c-7.935,2.478-10.948,8.405-13.154,15.011
	c-0.081,0.242,0.262,0.625,0.438,1.012c1.484,0.46,3.017,0.936,3.981,1.235C201.893,265.842,204.01,265.506,206.562,265.101z
	 M227.846,269.755c1.287-4.1,1.252-12.138-0.056-16.172c-5.948,2.691-9.876,8.392-10.596,15.458
	c0.441,0.228,0.909,0.672,1.385,0.682C221.671,269.786,224.765,269.755,227.846,269.755z M186.914,176.27
	c-5.426,7.211-6.298,13.936-2.894,18.397c3.495-3.117,7.006-6.248,10.781-9.615C193.512,181.038,191.221,177.788,186.914,176.27z
	 M265.282,336.78c5.233-1.961,5.233-1.961,6.32-5.929c-1.3-1.204-2.735-2.534-3.853-3.57c-4.738-0.427-8.949-0.807-14.063-1.269
	c0.812,3.246,1.426,5.703,1.973,7.89C259.098,334.931,262.001,335.799,265.282,336.78z M182.024,271.424
	c0.982-5.136,1.866-9.76,2.777-14.53c-7.034,0.576-12.878,5.935-14.063,12.565C174.221,271.129,177.662,273.036,182.024,271.424z
	 M205.306,193.655c3.439-3.142,6.857-6.265,10.401-9.502c-0.689-4.299-3.719-6.628-6.988-8.833
	C203.225,181.564,202.053,188.027,205.306,193.655z M233.587,173.817c-3.269,5.165-5.403,9.992-4.717,15.602
	c0.117,0.959,1.294,1.788,2.079,2.803c3.778-3.562,7.163-6.754,10.594-9.99C239.785,179.07,237.642,176.04,233.587,173.817z
	 M93.576,411.831c1.743-2.186,3.227-4.047,4.859-6.094c-2.065-2.413-3.716-4.837-5.855-6.703c-2.11-1.841-2.494-5.668-6.781-5.882
	C86.455,400.188,88.026,406.365,93.576,411.831z M228.254,20.743c0.575,5.375,1.109,10.373,1.669,15.609
	c-8.241,5.007-16.53,10.032-24.807,15.076c-8.4,5.119-15.732,11.646-22.672,18.477c-6.95,6.841-13.496,14.189-19.476,21.892
	c-5.969,7.689-11.016,16.094-16.713,24.551c-0.803-0.977-1.589-1.864-2.298-2.809c-4.649-6.201-10.766-9.242-18.583-9.582
	c-12.726-0.553-24.834,2.088-36.758,6.104c-0.818,0.276-1.691,0.391-3.087,0.704c0.191-1.404,0.149-2.435,0.48-3.326
	c4.504-12.117,10.504-23.38,18.556-33.575c9.691-12.27,21.097-22.647,34.46-30.623c8.331-4.972,17.017-9.426,26.427-12.353
	c8.797-2.736,17.44-5.968,26.593-7.36c4.845-0.737,9.814-0.856,14.566-1.952c6.17-1.423,12.343-0.761,18.516-0.974
	C226.172,20.565,227.224,20.692,228.254,20.743z M146.261,113.242c20.217-33.505,45.892-60.583,81.387-77.415
	c-0.519-4.383-0.999-8.45-1.527-12.907c-6.551-0.044-12.948-0.043-19.489,0.742c-7.898,0.948-15.731,2.151-23.359,4.167
	c-13.025,3.442-25.66,7.818-37.689,14.295c-10.506,5.658-19.998,12.539-28.386,20.651c-12.092,11.693-21.568,25.486-27.472,41.455
	c-0.323,0.873-0.273,1.883-0.443,3.184c12.299-3.889,24.265-6.343,36.696-5.558c6.442,0.407,12.318,2.268,16.936,7.028
	C144.106,110.109,145.019,111.604,146.261,113.242z M231.492,39.55c2.678,2.71,5.241,5.304,7.587,7.679
	c-6.519,7.819-13.604,15.372-19.56,23.73c-5.864,8.227-11.09,17.013-15.663,26.026c-4.575,9.017-7.996,18.62-11.852,27.796
	c-3.194-1.557-6.014-3.035-8.917-4.326c-8.407-3.74-16.73-0.951-25.063,0.451c-1.058,0.178-2.091,0.527-3.152,0.658
	c-0.488,0.06-1.018-0.215-2.156-0.489c3.012-9.341,8.157-17.406,13.572-25.11C183.295,71.767,204.747,52.542,231.492,39.55z
	 M191.065,122.19c4.76-14.238,10.904-27.327,18.247-39.855c7.441-12.695,17.051-23.735,26.822-34.708
	c-1.557-1.893-2.809-3.416-4.009-4.877c-5.678,0.494-17.201,7.247-40.108,26.993c-15.262,13.155-27.058,29.559-35.759,48.726
	C168.296,117.587,179.973,114.456,191.065,122.19z M243.263,118.701c-0.969,1.023-1.704,1.799-2.711,2.863
	c-3.34-2.064-6.64-4.102-9.823-6.068c-9.924-2.436-18.241,1.215-25.981,6.694c-1.782,1.261-3.128,2.435-5.109,0.718
	c9.707-32.071,30.516-65.042,43.392-71.772c-0.37,1.572-0.375,2.803-0.92,3.708c-3.546,5.893-6.914,11.89-8.271,18.697
	c-1.126,5.65-1.801,11.232-1.269,17.207C233.49,101.06,238.28,109.54,243.263,118.701z M235.9,60.86
	c-10.306,7.769-32.326,48.66-31.818,59.242c6.492-4.07,13.082-7.771,22.252-8.323c3.638,1.668,8.365,3.834,13.093,6.001
	c0.346-0.158,0.692-0.316,1.037-0.474c-5.434-8.259-8.881-17.012-10.139-26.843C229.021,80.266,231.997,71.273,235.9,60.86z
	 M310.069,333.142c22.31,1.782,44.039,4.572,65.291,11.04c-1.085,0.239-2.171,0.479-3.237,0.714
	c-2.501,8.062-7.367,13.416-15.58,16.403c-9.249,3.363-17.931,2.173-26.559-1.203c-7.921-3.099-12.133-9.372-13.378-17.702
	c-0.184-1.233-0.339-2.471-0.53-3.877c-2.626-0.523-5.078-1.012-7.357-1.466c-4.071-6.684-2.72-10.387,6.838-17.262
	c-1.165,2.154-1.751,3.39-2.477,4.539c-0.865,1.37-2.172,2.552-2.688,4.025C309.891,329.785,310.149,331.483,310.069,333.142z
	 M350.668,342.78c-5.295-0.53-10.283-1.197-15.293-1.483c-4.972-0.284-9.823-2.501-15.153-1.514
	c0.334,1.546,0.558,2.542,0.765,3.542c1.557,7.517,6.608,12.111,13.497,14.115c6.762,1.967,13.875,2.327,20.815,0.073
	c0.25-0.081,0.398-0.479,1.3-1.636c-0.699-0.286-1.525-0.624-2.347-0.96c0.654-0.895,1.284-1.758,1.793-2.455
	c-0.637-3.204-2.343-4.991-5.377-5.135C350.668,345.537,350.668,344.157,350.668,342.78z M265.546,397.625
	c-8.58-6.875-17.89-11.802-28.996-13.813c-9.481-1.717-17.567-0.124-25.037,5.626c-0.539,0.415-0.867,1.103-1.293,1.664
	c11.983-6.07,23.757-4.701,35.494-0.55c5.216,1.845,10.215,4.297,15.332,6.427c1.42,0.591,2.908,1.017,4.509,1.569
	C265.555,397.891,265.614,397.679,265.546,397.625z"/>
</svg>
