<?xml version="1.0" encoding="iso-8859-1"?>
<!-- Generator: Adobe Illustrator 19.0.0, SVG Export Plug-In . SVG Version: 6.00 Build 0)  -->
<svg version="1.1" id="Layer_1" xmlns="http://www.w3.org/2000/svg" xmlns:xlink="http://www.w3.org/1999/xlink" x="0px" y="0px"
	 viewBox="0 0 500 500" style="enable-background:new 0 0 500 500;" xml:space="preserve">
<path d="M248.864,7c0.451,3.602,1.066,7.193,1.328,10.809c2.033,28.121,4.031,56.245,5.964,84.373
	c0.644,9.368,1.142,18.748,1.577,28.129c1.591,34.362,2.73,68.75,4.777,103.084c3.158,52.948,3.287,105.941,2.637,158.925
	c-0.297,24.191-2.657,48.359-4.169,72.532c-0.353,5.64-0.737,11.314-1.706,16.868c-0.891,5.102-5.691,9.001-10.195,9.189
	c-4.153,0.173-9.129-3.162-10.43-7.953c-1.4-5.159-2.247-10.517-2.806-15.843c-0.824-7.852-1.446-15.745-1.689-23.635
	c-1.096-35.617-2.522-71.235-2.863-106.862c-0.268-27.966,0.523-55.957,1.488-83.915c1.102-31.908,2.79-63.798,4.465-95.684
	c1.298-24.717,2.744-49.43,4.532-74.115c1.831-25.288,4.157-50.541,6.267-75.809C248.315,7.062,248.59,7.031,248.864,7z
	 M232.725,37.231c-0.842,1.746-1.901,3.423-2.494,5.25c-7.161,22.052-15.026,43.914-21.178,66.247
	c-8.531,30.968-14.785,62.485-18.303,94.472c-2.943,26.753-7.185,53.46-8.289,80.292c-1.199,29.132-0.234,58.429,1.312,87.573
	c1.053,19.854,3.763,39.755,7.548,59.283c2.776,14.32,8.264,28.151,13.102,42.006c0.987,2.825,4.063,5.917,6.874,6.909
	c6.58,2.321,12.553-2.281,12.253-9.56c-0.425-10.315-2.119-20.572-2.747-30.885c-1.639-26.918-4.025-53.845-4.238-80.783
	c-0.401-50.768-0.344-101.574,1.2-152.312c0.954-31.358,4.829-62.637,7.738-93.92c1.511-16.25,3.795-32.427,5.687-48.642
	c1.001-8.577,1.913-17.163,2.865-25.746C233.611,37.354,233.168,37.293,232.725,37.231z M262.931,36.991
	c1.913,18.902,3.768,37.81,5.753,56.704c2.793,26.577,6.09,53.109,8.4,79.727c1.819,20.964,3.333,42.023,3.47,63.049
	c0.321,49.291,0.467,98.607-0.77,147.876c-0.7,27.862-4.279,55.652-6.554,83.474c-0.58,7.093,6.173,13.764,12.557,11.421
	c3.165-1.162,6.496-4.881,7.589-8.164c4.953-14.868,9.85-29.828,13.375-45.077c3.038-13.138,4.624-26.664,6.06-40.103
	c1.312-12.275,2.128-24.662,2.161-37.003c0.071-26.504,0.684-53.091-1.137-79.491c-1.919-27.819-5.918-55.532-9.899-83.163
	c-5.859-40.664-15.169-80.593-28.285-119.563c-3.422-10.168-7.611-20.078-11.448-30.106
	C263.779,36.711,263.355,36.851,262.931,36.991z M195.845,100.66c-1.55,2.454-3.193,4.855-4.637,7.37
	c-12.449,21.693-21.571,44.812-29.714,68.399c-14.289,41.392-22.482,83.923-22.338,127.687c0.08,24.157,2.362,48.328,4.184,72.452
	c1.615,21.383,5.596,42.411,13.547,62.403c2.864,7.203,7.247,13.859,11.421,20.458c1.867,2.952,5.046,4.785,8.981,3.136
	c3.996-1.674,6.459-4.434,6.223-8.997c-0.101-1.954-0.175-3.955-0.653-5.836c-8.923-35.142-15.108-70.728-15.802-107.034
	c-0.454-23.742-0.848-47.572,0.656-71.241c1.5-23.592,4.695-47.146,8.449-70.507c3.758-23.38,8.976-46.532,13.863-69.719
	c1.974-9.366,4.769-18.56,7.191-27.832C196.759,101.154,196.302,100.907,195.845,100.66z M320.931,197.597
	c4.353,25.029,7.926,50.385,9.109,75.723c1.359,29.115,0.255,58.39-0.816,87.558c-0.914,24.902-5.317,49.428-11.422,73.616
	c-1.381,5.473-2.661,10.993-3.554,16.56c-0.812,5.059,0.618,9.395,5.925,11.416c5.151,1.963,8.196-1.576,10.158-5.104
	c4.517-8.124,9.365-16.294,12.256-25.047c8.622-26.108,11.91-53.245,13.716-80.591c2.19-33.166,2.626-66.362-2.09-99.293
	c-7.09-49.508-22.608-96.446-45.811-140.787c-2.131-4.072-4.779-7.874-7.554-12.4C307.801,132.864,315.274,165.072,320.931,197.597z
	 M358.2,209.444c9.616,30.552,14.795,61.864,15.875,93.832c0.922,27.269-0.276,54.418-5.742,81.266
	c-2.904,14.266-5.619,28.573-8.155,42.908c-0.446,2.523,0.419,5.277,0.679,7.925c0.671,0.167,1.343,0.333,2.014,0.5
	c2.01-1.606,4.255-2.993,5.993-4.854c13.324-14.268,21.263-31.354,25.824-50.145c7.012-28.893,5.93-58.055,1.105-86.956
	c-6.224-37.283-22.213-70.915-42.755-102.779C354.75,197.244,356.298,203.4,358.2,209.444z M138.649,429.585
	c-0.853-5.801-2.471-11.484-3.596-17.252c-3.709-19.022-8.815-37.924-10.587-57.13c-1.877-20.331-1.1-40.974-0.492-61.451
	c0.829-27.956,6.476-55.208,14.231-82.027c2.117-7.322,4.402-14.596,6.61-21.891c-0.524-0.21-1.047-0.42-1.571-0.63
	c-7.047,13.77-14.174,27.501-21.124,41.32c-13.792,27.423-21.568,56.548-23.212,87.139c-1.034,19.238-0.726,38.587,3.118,57.557
	c3.575,17.643,9.094,34.73,20.295,49.258c3.641,4.723,6.784,10.375,14.784,12.461C137.744,434.134,138.967,431.746,138.649,429.585z
	"/>
</svg>
