<?xml version="1.0" encoding="iso-8859-1"?>
<!-- Generator: Adobe Illustrator 19.0.0, SVG Export Plug-In . SVG Version: 6.00 Build 0)  -->
<svg version="1.1" id="Layer_1" xmlns="http://www.w3.org/2000/svg" xmlns:xlink="http://www.w3.org/1999/xlink" x="0px" y="0px"
	 viewBox="0 0 2000 2000" style="enable-background:new 0 0 2000 2000;" xml:space="preserve">
<path d="M1075.242,12.626c43.792,56.912,87.616,112.77,130.271,169.507c131.104,174.386,255.306,353.522,365.65,541.869
	c69.042,117.848,132.542,238.568,175.965,368.763c23.492,70.434,38.801,142.272,33.895,216.946
	c-7.184,109.335-36.35,212.413-89.934,308.441c-38.68,69.318-88.341,129.957-147.286,182.355
	c-87.795,78.043-189.134,131.542-303.765,159.358c-55.596,13.491-112.165,21.057-168.953,20.36
	c-111.313-1.367-217.81-26.346-317.384-77.118c-79.527-40.55-149.655-94.229-208.612-161.066
	c-84.64-95.952-141.588-206.442-164.768-333.075c-5.72-31.246-10.362-62.776-13.562-94.371
	c-2.754-27.187,25.233-51.846,56.032-51.796c41.628,0.068,83.257,0.055,124.885-0.013c23.936-0.039,33.223-9.555,33.25-33.982
	c0.045-41.646-0.077-83.291,0.041-124.937c0.104-36.397,26.209-62.618,62.622-62.771c41.645-0.174,83.291-0.01,124.937-0.052
	c25.331-0.026,34.146-9.062,34.16-34.875c0.021-39.881,0.615-79.774-0.15-119.64c-0.684-35.662,27.587-70.857,67.384-67.874
	c39.663,2.973,79.723,0.673,119.609,0.644c25.66-0.019,37.892-10.976,38.248-36.604c0.611-43.983,0.673-87.99-0.032-131.97
	c-0.391-24.391-13.067-35.499-37.726-35.546c-40.472-0.076-81.026-1.604-121.392,0.472c-33.221,1.709-65.007-22.602-65.487-63.892
	c-0.633-54.529-0.64-109.113,1.417-163.586c0.42-11.115,10.072-22.643,17.333-32.623c82.631-113.567,165.621-226.872,248.566-340.21
	C1071.053,14.521,1072.359,14.223,1075.242,12.626z M1072.446,901.993c-3.143,5.873-4.247,8.705-5.985,11.07
	c-35.674,48.539-71.654,96.856-107.107,145.556c-83.854,115.188-160.47,234.694-218.041,365.604
	c-28.93,65.783-43.814,133.942-29.264,205.178c18.099,88.618,61.265,163.115,133.164,219.861
	c94.293,74.419,200.946,96.758,316.244,69.093c118.899-28.529,202.332-102.615,250.974-214.654
	c27.4-63.112,36.286-128.803,20.708-196.856c-19.12-83.524-58.642-158.418-102.561-230.392
	c-51.39-84.217-107.137-165.837-162.72-247.407C1139.193,986.982,1106.788,947.465,1072.446,901.993z M359.194,1008.592
	c0.03,31.275,20.084,52.888,51.58,53.388c45.682,0.726,91.392,0.725,137.073-0.016c28.355-0.46,49.359-15.849,51.043-44.21
	c3.04-51.191,3.673-102.855,0.249-153.983c-2.216-33.08-20.948-44.461-55.106-44.465c-43.936-0.005-87.872-0.025-131.807,0.007
	c-33.364,0.023-52.97,19.331-53.03,52.199c-0.041,22.846-0.008,45.693-0.008,68.54
	C359.189,962.899,359.172,985.745,359.194,1008.592z M773.812,837.445c23.962,2.776,49.823-22.904,49.935-49.651
	c0.195-46.874,0.374-93.753-0.066-140.623c-0.265-28.25-25.193-51.238-51.399-50.157c-46.795,1.93-93.812,2.228-140.57-0.109
	c-26.653-1.332-50.794,25.926-50.778,49.162c0.03,45.117-0.501,90.242,0.184,135.349c0.48,31.635,25.786,55.358,57.405,55.474
	c22.851,0.083,45.703,0.016,68.555,0.016C729.343,836.905,751.841,834.9,773.812,837.445z M418.999,514.903
	c0,18.161-0.557,36.343,0.157,54.476c0.713,18.133,18.401,37.81,36.45,38.407c35.061,1.16,70.207,1.203,105.272,0.161
	c17.529-0.521,36.572-17.969,37.257-35.507c1.48-37.862,1.785-75.894-0.154-113.717c-1.061-20.697-21.29-36.577-42.243-37
	c-29.297-0.591-58.63-0.744-87.919,0.017c-30.504,0.792-48.969,20.506-49.223,50.962c-0.117,14.065-0.02,28.132-0.02,42.199
	C418.717,514.903,418.858,514.903,418.999,514.903z M369.812,748.897c29.583-0.204,48.957-19.383,49.184-48.855
	c0.149-19.326,0.071-38.655,0.019-57.982c-0.08-30.041-21.077-51.156-51.43-51.504c-18.154-0.208-36.313-0.181-54.467-0.007
	c-31.161,0.298-52.248,21.374-52.462,52.365c-0.125,18.155-0.127,36.313,0.001,54.468c0.219,30.915,20.64,51.414,51.172,51.522
	c9.371,0.033,18.742,0.005,28.112,0.005C349.899,748.908,359.856,748.965,369.812,748.897z M869.076,1854.875
	c116.338,86.11,288.803,97.789,423.203-11.147c96.088-77.882,165.958-229.508,99.942-380.224
	c-206.032,158.69-422.542,178.982-650.972,46.645C706.381,1607.39,746.627,1764.242,869.076,1854.875z"/>
</svg>
