<?xml version="1.0" encoding="iso-8859-1"?>
<!-- Generator: Adobe Illustrator 19.0.0, SVG Export Plug-In . SVG Version: 6.00 Build 0)  -->
<svg version="1.1" id="Layer_1" xmlns="http://www.w3.org/2000/svg" xmlns:xlink="http://www.w3.org/1999/xlink" x="0px" y="0px"
	 viewBox="0 0 500 500" enable-background="new 0 0 500 500" xml:space="preserve">
<path d="M6.319,248.595C6.38,114.169,115.55,3.706,252.593,5.011c134.394,1.28,243.265,110.964,241.447,247.313
	c-1.779,133.454-110.109,239.618-242.298,240.406C116.383,493.537,6.256,384.173,6.319,248.595z M253.101,83.151
	c-17.662-0.074-34.99,2.183-51.881,7.473c-25.988,8.138-48.492,22.014-67.671,41.287c-5.592,5.62-5.641,14.046-0.406,19.219
	c5.278,5.215,13.001,4.888,18.777-0.653c35.42-33.979,77.227-46.979,125.624-38.004c14.54,2.696,28.154,8.034,40.962,15.396
	c5.339,3.069,7.884,8.623,6.617,13.903c-2.12,8.836-10.864,12.36-19.183,7.731c-44.974-25.028-101.009-17.344-136.257,18.684
	c-5.658,5.784-6.03,13.784-0.892,19.205c5.131,5.413,12.345,5.276,18.854,0.071c2.049-1.639,4.748-2.942,7.316-3.354
	c5.234-0.841,9.902,2.077,12.251,6.848c2.551,5.182,1.551,10.015-3.113,15.034c-25.951,27.925-24.062,69.842,4.285,95.066
	c5.292,4.709,5.787,12.557,1.126,17.84c-4.583,5.194-12.071,5.63-17.496,0.715c-19.602-17.759-29.958-39.948-30.413-66.362
	c-0.136-7.924,1.48-15.916,2.711-23.812c0.708-4.544,0.762-8.754-2.12-12.527c-3.078-4.03-7.296-5.793-12.251-4.993
	c-5.419,0.875-8.856,4.227-10.577,9.487c-2.348,7.177-8.399,10.749-15.089,9.102c-6.466-1.592-10.145-8.024-9.042-15.193
	c0.39-2.538,0.424-5.327-0.208-7.788c-1.419-5.526-6.777-9.24-12.371-9.155c-6.288,0.096-11.034,4.221-12.781,11.211
	c-7.005,28.02-7.724,56.198,0.063,84.049c17.019,60.873,55.283,101.607,116.263,120.041c2.794,0.845,6.294,0.674,9.116-0.18
	c5.34-1.616,8.5-6.981,8.327-12.58c-0.192-6.183-4.018-10.734-10.855-12.721c-33.536-9.747-59.811-29.383-78.923-58.483
	c-15.316-23.32-23.059-49.065-23.167-77.012c-0.028-7.312,5.128-12.769,11.872-12.959c6.923-0.195,12.083,4.735,12.733,12.073
	c0.597,6.734,0.666,13.587,2.016,20.172c9.457,46.158,36.17,77.226,81.336,91.779c8.155,2.628,15.147-0.93,17.491-8.358
	c2.267-7.185-1.455-13.996-9.203-16.843c-7.08-2.601-10.496-9.019-8.391-15.768c2.08-6.667,8.241-9.889,15.495-8.152
	c15.172,3.633,29.937,2.529,43.916-4.571c18.816-9.556,30.45-24.796,34.868-45.484c1.688-7.905,7.827-12.564,14.727-11.212
	c6.893,1.352,11.262,8.094,9.74,15.406c-4.736,22.753-16.159,41.347-34.795,55.38c-8.814,6.637-18.632,11.188-29.216,14.256
	c-6.636,1.923-10.16,7.482-9.54,14.348c0.535,5.922,5.439,10.972,11.557,11.531c2.073,0.189,4.219-0.334,6.324-0.595
	c7.031-0.872,13.237,4.098,13.874,11.14c0.576,6.363-2.543,10.961-9.1,13.417c-7.021,2.629-10.632,8.499-9.33,15.164
	c1.66,8.496,8.966,12.519,18.087,9.914c87.471-24.986,138.176-116.836,115.158-204.868c-0.688-2.631-2.41-5.324-4.387-7.218
	c-4.123-3.949-10.605-4.154-15.338-1.116c-4.969,3.189-6.905,8.97-5.29,15.608c9.015,37.068,4.498,72.403-13.94,105.81
	c-11.947,21.647-28.686,38.822-49.808,51.683c-6.362,3.873-13.293,2.51-17.278-3.21c-4.394-6.306-2.343-14.03,4.944-18.588
	c25.782-16.126,42.894-38.872,51.353-68.005c6.004-20.678,6.129-41.541,0.42-62.337c-1.988-7.241-8.562-10.922-15.729-9.236
	c-6.385,1.502-10.569,8.157-9.532,15.045c0.279,1.851,0.55,3.748,0.451,5.604c-0.405,7.58-7.794,12.887-15.164,10.99
	c-6.05-1.557-8.176-6.278-9.857-11.678c-10.892-34.973-47.182-53.61-81.722-42.084c-7.383,2.464-13.887-0.572-16.314-7.613
	c-2.276-6.604,1.025-13.876,8.095-15.863c7.553-2.124,15.326-4.136,23.106-4.659c26.5-1.783,49.125,7.316,68.256,25.663
	c2.177,2.088,5.536,3.612,8.536,4.027c5.458,0.756,9.68-2.022,12.318-6.868c2.527-4.642,1.795-10.995-1.949-15.101
	c-3.633-3.984-4.978-8.44-3.245-13.503c3.011-8.798,13.216-11.056,20.468-4.67c7.126,6.274,17.371,4.337,21.058-3.982
	c2.309-5.208,1.112-10.993-3.404-15.477C335.02,100.563,297.165,84.615,253.101,83.151z M250.396,214.617
	c-16.791-0.246-31.042,14.008-31.142,31.148c-0.099,17.023,13.748,31.311,30.469,31.44c17.105,0.132,30.943-13.708,31.045-31.049
	C280.867,229.063,267.194,214.863,250.396,214.617z"/>
</svg>
