<?xml version="1.0" encoding="iso-8859-1"?>
<!-- Generator: Adobe Illustrator 19.0.0, SVG Export Plug-In . SVG Version: 6.00 Build 0)  -->
<svg version="1.1" id="Layer_1" xmlns="http://www.w3.org/2000/svg" xmlns:xlink="http://www.w3.org/1999/xlink" x="0px" y="0px"
	 viewBox="0 0 2000 2000" style="enable-background:new 0 0 2000 2000;" xml:space="preserve">
<path d="M17.497,995.258C1.446,479.73,453.878-6.317,1034.837,14.111c503.749,17.713,956.43,432.579,949.945,1004.504
	c-5.723,504.683-432.783,1000.298-1056.908,964.253C458.414,1955.755,1.288,1537.449,17.497,995.258z M1455.853,650.095
	c48.322,80.371,61.19,166.699,44.123,253.062c-22.942,116.09-87.875,212.307-183.113,280.615
	c-102.363,73.418-212.188,136.479-319.189,203.369c-81.937,51.22-133.511,118.708-127.478,220.97
	c3.607,61.13,44.965,124.982,98.599,145.13c68.198,25.619,143.95,11.887,181.292-31.325c-5.547-0.484-9.701-1.326-13.804-1.13
	c-40.272,1.922-75.994-7.427-93.548-47.495c-17.677-40.346-0.301-75.329,28.459-102.056c36.647-34.057,75.874-65.821,116.609-94.902
	c98.212-70.114,207.694-124.846,287.807-219.23c73.61-86.724,126.357-181.12,124.105-298.887
	c-0.197-10.315-0.266-20.643,0.041-30.953c0.301-10.112,1.159-20.207,1.773-30.309c31.895,87.204,20.414,171.434-16.227,258.449
	c8.491-5.402,11.969-6.669,14.104-9.11c92.253-105.431,151.493-223.446,145.033-368.259
	c-6.01-134.735-61.757-246.931-164.503-329.461c-151.123-121.389-319.671-148.397-501.469-68.098
	c-61.679,27.243-126.062,46.418-186.426-9.642c-2.179,2.426-4.358,4.853-6.538,7.279c13.158,22.701,26.315,45.403,39.46,68.083
	c-55.643-2.934-97.781-24.856-116.206-87.259c-27.472,53.097-33.797,100.296-8.881,148.705
	c14.927,29.002,51.98,48.336,75.175,40.149c89.906-31.731,179.785-63.541,269.523-95.742
	c41.713-14.968,82.935-29.875,128.818-24.966c43.74,4.68,77.31,40.125,79.254,83.276c2.554,56.711-32.383,95.368-57.956,130.061
	c9.365,41.901,22.689,77.733,24.424,114.117c3.888,81.519-13.082,159.937-84.565,208.956
	c-44.18,30.297-95.839,52.694-147.221,68.827c-93.304,29.296-190.385,46.942-270.303,109.529
	c-58.388,45.725-91.307,105.637-112.483,184.275c57.87-47.683,111.295-82.741,181.641-76.246
	c-57.777,28.36-109.6,61.656-132.935,125.792c-23.235,63.859-9.868,122.494,22.692,186.949
	c12.839-73.201,50.666-122.269,103.832-157.682c52.938-35.262,108.909-66.275,165.046-96.361
	c95.468-51.165,192.048-99.926,273.074-173.974c101.703-92.945,165.729-202.945,157.365-345.059
	C1472.548,743.519,1462.717,697.914,1455.853,650.095z M1173.334,790.448c39.251,14.791,73.435,27.673,108.978,41.068
	c33.115-132.958-32.236-214.692-147.051-281.283c44.171-14.055,78.747-25.056,113.322-36.057c3.336,3.685,6.672,7.37,10.008,11.056
	c-5.739,19.254-11.477,38.508-18.18,60.997c6.899,8.631,17.244,21.572,33.252,41.598c19.869-41.045,37.129-76.7,52.434-108.317
	c-21.47-59.41-33.571-68.011-90.09-64.163c-14.384,0.979-28.762,5.906-42.583,10.65c-62.809,21.555-125.847,42.555-187.969,65.965
	c-53.691,20.233-108.12,39.91-158.699,66.528c-36.053,18.973-69.342,46.839-72.685,98.063
	c30.651-10.808,57.875-20.408,84.657-29.852c20.079,9.56,38.666,18.409,60.841,28.967c0-21.248,0-37.1,0-55.347
	c20.2-5.39,39.162-10.449,60.847-16.236c-15.848,69.005-43.089,74.763-82.78,81.882c-24.9,4.466-51.731-2.244-77.721-3.363
	c-46.88-2.018-92.983,7.532-141.184-4.504c-31.719-7.921-72.722-14.624-107.589,17.712c9.253,20.73,18.537,41.528,29.738,66.624
	c20.507-16.287,36.544-29.023,52.58-41.759c1.338,1.181,2.677,2.363,4.015,3.544c-15.237,19.082-30.474,38.164-49.73,62.278
	c5.367,30.384,11.692,66.191,19.695,111.496c20.48-27.504,35.666-47.899,51.258-68.84c32.006,16.401,63.606,32.594,84.933,43.523
	c58.863,0,105.807,0,161.26,0c-41.291,66.283-113.065,74.131-156.247,118.365c-15.638-8.441-28.557-15.414-37.215-20.087
	c-3.866,45.033-7.51,87.49-11.326,131.941c129.335-73.636,274.066-96.342,416.183-145.6c-21.339-27.508-41.853-53.953-68.096-87.782
	c43.366,22.07,79.771,40.597,121.247,61.705c-16.177-56.289-54.828-87.211-99.088-113.535c1.781-3.609,3.562-7.218,5.344-10.826
	c49.319,19.121,98.638,38.241,155.624,60.334C1223.808,853.067,1200.631,824.314,1173.334,790.448z M239.199,1107.669
	c15.635-1.249,23.386-0.087,29.594-2.654c38.359-15.865,75.996-33.536,114.683-48.513c15.197-5.883,32.486-6.364,48.822-9.304
	c-0.114,2.353-0.229,4.706-0.343,7.058c-79.271,53.632-158.541,107.264-239.684,162.163c64.788,4.388,127.795,6.481,188.209-25.38
	c38.278-20.187,75.994-46.626,130.678-39.861c-53.611,36.496-117.925,41.802-163.94,97.446
	c79.445-18.138,150.163-30.836,218.671-51.031c53.391-15.738,77.037-61.705,94.118-116.99
	c-23.985,11.149-42.44,19.728-65.703,30.541c14.339-25.483,25.58-45.46,38.82-68.99c-31.654,1.759-57.511,3.195-90.348,5.02
	c24.582-19.48,42.235-33.469,65.596-51.981c-31.045-5.606-53.056-9.581-76.454-13.806c24.913-10.124,47.92-19.474,76.196-30.964
	c-53.429-28.483-104.175-42.044-150.062-10.396C384.932,990.456,316.587,1047.81,239.199,1107.669z"/>
</svg>
