<?xml version="1.0" encoding="iso-8859-1"?>
<!-- Generator: Adobe Illustrator 19.0.0, SVG Export Plug-In . SVG Version: 6.00 Build 0)  -->
<svg version="1.1" id="Layer_1" xmlns="http://www.w3.org/2000/svg" xmlns:xlink="http://www.w3.org/1999/xlink" x="0px" y="0px"
	 viewBox="0 0 2000 2000" style="enable-background:new 0 0 2000 2000;" xml:space="preserve">
<path d="M999.757,16.154c545.031-0.762,989.442,447.035,982.18,996.521c-7.161,541.846-454.2,979.772-1001.185,970.088
	C440.539,1973.198,5.733,1527.003,15.124,982.25C24.39,444.753,464.545,14.055,999.757,16.154z M655.244,1536.049
	c7.438,1.505,10.654,2.777,13.842,2.711c144.482-2.99,289.349-0.626,433.328-10.803c131.271-9.279,246.886-62.474,335.228-164.322
	c101.271-116.755,139.373-254.715,130.845-406.73c-7.611-135.68-53.236-255.67-152.826-351.679
	c-94.009-90.628-210.147-132.602-337.072-139.894c-133.217-7.654-266.993-5.615-400.526-7.65
	c-6.445-0.098-12.915,1.358-22.227,2.414c0,119.268,0,237.153,0,358.681c-47.993,0-93.078,0-138.953,0c0,41.007,0,78.288,0,117.973
	c46.904,0,91.4,0,138.362,0C655.244,1137.549,655.244,1335.92,655.244,1536.049z M810.652,1414.259
	c97.04-3.828,195.136-0.187,290.854-13.557c133.479-18.645,236.394-88,288.537-218.605c29.195-73.125,31.124-149.964,28.357-227.299
	c-6.476-180.984-110.597-309.931-286.019-353.863c-86.282-21.608-174.31-20.542-262.279-20.337
	c-22.511,0.052-45.022,0.008-69.156,0.008c0,80.743,0,157.969,0,238.303c93.5,0,185.18,0,278.398,0c0,40.445,0,77.766,0,117.83
	c-93.963,0-185.705,0-278.819,0c0,159.662,0,316.558,0,474.815C805.839,1413.023,808.273,1414.353,810.652,1414.259z"/>
</svg>
