<?xml version="1.0" encoding="iso-8859-1"?>
<!-- Generator: Adobe Illustrator 19.0.0, SVG Export Plug-In . SVG Version: 6.00 Build 0)  -->
<svg version="1.1" id="Layer_1" xmlns="http://www.w3.org/2000/svg" xmlns:xlink="http://www.w3.org/1999/xlink" x="0px" y="0px"
	 viewBox="0 0 2000 2000" style="enable-background:new 0 0 2000 2000;" xml:space="preserve">
<path d="M0,1268.637C0,855.064,0,443.838,0,28.185c12.085,0,23.408,0,34.737,0c335.967,0,672.071-5.797,1007.85,2.049
	c221.745,5.183,425.057,77.986,601.982,217.498c91.138,71.866,169.04,154.467,227.936,254.523
	c66.909,113.674,108.051,235.439,110.578,368.294c2.327,122.153,6.198,244.481-19.117,365.263
	c-30.524,145.678-92.159,275.715-190.18,388.646c-150.557,173.454-342.876,274.888-564.207,321.232
	c-136.668,28.617-276.665,32.359-416.313,26.995c-13.139-0.504-28.074-9.364-38.415-18.568
	c-77.055-68.557-153.193-138.148-229.57-207.468c-110.565-100.354-221.156-200.688-331.618-301.165
	C128.603,1386.311,63.755,1326.873,0,1268.637z M778.183,737.791c0,179.852,0,348.124,0,511.871
	c91.526,0,181.068,6.844,269.039-1.984c83.06-8.337,144.734-59.425,165.712-142.873c12.253-48.755,16.267-101.627,12.738-151.856
	c-6.03-85.903-63.348-178.56-150.537-193.075C978.07,743.704,878.194,744.48,778.183,737.791z"/>
</svg>
