<?xml version="1.0" encoding="iso-8859-1"?>
<!-- Generator: Adobe Illustrator 19.0.0, SVG Export Plug-In . SVG Version: 6.00 Build 0)  -->
<svg version="1.1" id="Layer_1" xmlns="http://www.w3.org/2000/svg" xmlns:xlink="http://www.w3.org/1999/xlink" x="0px" y="0px"
	 viewBox="0 0 500 500" style="enable-background:new 0 0 500 500;" xml:space="preserve">
<path d="M185.539,493.485c-14.791-8.303-29.269-16.208-43.529-24.487c-22.175-12.875-44.18-26.044-66.304-39.008
	c-9.284-5.44-18.647-10.746-28.052-15.974c-5.972-3.32-9.08-7.636-8.752-15.043c0.571-12.908,0.072-25.863,0.069-38.798
	c-0.021-86.71-0.029-173.419-0.041-260.129c-0.001-4.831,0-9.661,0-14.367c10.962-6.694,20.921-12.926,31.033-18.898
	c7.478-4.416,15.295-8.262,22.715-12.768c13.325-8.092,27.913-13.851,41.224-21.756c14.81-8.796,29.624-17.551,44.649-25.982
	c5.215-2.926,9.404-3.11,14.565-0.08c22.598,13.268,45.346,26.279,68.073,39.326c24.041,13.801,48.128,27.521,72.179,41.305
	c25.467,14.596,50.961,29.147,76.353,43.872c15.842,9.186,31.536,18.629,47.252,28.029c2.925,1.749,5.641,3.847,8.639,5.912
	c0,17.75-0.163,35.223,0.037,52.691c0.33,28.952,0.923,57.901,1.34,86.852c0.121,8.38,0.019,16.763,0.019,25.941
	c-3.222,2.348-6.336,5.07-9.848,7.108c-36.512,21.19-73.065,42.307-109.652,63.366c-27.951,16.088-56.001,32.005-83.941,48.111
	c-16.1,9.281-32.061,18.801-48.102,28.184c-6.514,3.81-13.045,7.592-19.625,11.285C192.541,490.027,189.116,491.651,185.539,493.485
	z M187.928,16.113c-1.515,0.198-3.507-0.071-4.895,0.72c-17.353,9.896-34.618,19.946-51.754,29.868
	c1.442,5.282,5.427,6.334,8.635,8.243c19.691,11.719,39.346,23.498,59.104,35.102c14.934,8.771,30.054,17.225,44.999,25.976
	c16.742,9.803,33.293,19.935,50.086,29.648c23.361,13.513,46.845,26.815,70.329,40.114c8.362,4.735,16.878,9.198,25.324,13.785
	c10.156-5.429,20.262-9.615,28.935-15.808c8.695-6.21,19.73-8.978,27.745-18.073C359.759,115.537,273.985,65.906,187.928,16.113z
	 M106.718,433.05c0.871-2.228,1.318-2.857,1.341-3.502c0.932-26.149,0.851-52.325,1.48-78.48
	c1.418-59.035,0.227-118.132,0.147-177.204c-0.015-11.119,0.085-22.242,0.357-33.357c0.125-5.122-1.804-8.361-6.418-10.853
	c-9.113-4.921-17.856-10.525-26.866-15.644c-7.956-4.521-16.068-8.767-24.823-13.521c0,101.148,0,201.015,0,300.746
	C70.235,411.862,88.168,422.277,106.718,433.05z M450.553,259.71c-86.401,50.145-172.059,99.858-257.306,149.333
	c-2.11,16.451-1.579,55.586,1.132,63.761c86.124-49.771,172.03-99.415,257.267-148.673
	C453.497,306.291,452.887,267.525,450.553,259.71z M383.659,209.791c-63.905-36.666-126.989-72.862-191.099-109.646
	c0,22.964,0,44.535,0,66.458c4.006,2.75,7.819,5.785,12.002,8.171c24.632,14.051,49.361,27.932,74.036,41.907
	c18.441,10.444,36.918,20.827,55.254,31.451c14.089,8.163,27.965,16.695,41.989,24.972c2.201,1.299,4.686,2.118,7.818,3.503
	C383.659,253.448,383.659,231.605,383.659,209.791z M179.086,100.465c-5.949,3.166-10.204,5.289-14.324,7.649
	c-12.585,7.21-25.114,14.518-37.674,21.771c-3.205,1.851-5.265,4.222-5.153,8.279c0.279,10.056,0.447,20.118,0.446,30.178
	c-0.009,53.805-0.154,107.609-0.052,161.414c0.014,7.301-1.396,14.838,1.478,22.684c18.976-11.036,37.24-21.658,55.279-32.149
	C179.086,247.318,179.086,175.111,179.086,100.465z M321.218,254.492c-63.923,36.629-127.016,73.306-190.743,110.362
	c19.172,11.049,37.125,21.396,55.53,32.003c12.765-7.418,25.306-14.728,37.869-22c12.81-7.416,25.618-14.837,38.47-22.179
	c12.576-7.184,25.267-14.171,37.799-21.431c12.746-7.384,25.272-15.151,38.059-22.461c12.406-7.093,25.05-13.777,37.639-22.587
	C356.889,275.199,339.218,264.941,321.218,254.492z M192.655,312.527c38.317-22.219,75.615-43.846,114.191-66.215
	c-38.792-22.328-76.043-43.769-114.191-65.726C192.655,224.685,192.655,267.927,192.655,312.527z"/>
</svg>
