<?xml version="1.0" encoding="iso-8859-1"?>
<!-- Generator: Adobe Illustrator 19.0.0, SVG Export Plug-In . SVG Version: 6.00 Build 0)  -->
<svg version="1.1" id="Layer_1" xmlns="http://www.w3.org/2000/svg" xmlns:xlink="http://www.w3.org/1999/xlink" x="0px" y="0px"
	 viewBox="0 0 500 500" enable-background="new 0 0 500 500" xml:space="preserve">
<path d="M5.007,249.035C4.006,115.197,115.677-1.261,259.555,3.544c129.351,4.32,236.093,111.107,236.81,244.542
	c0.723,134.46-108.487,248.256-248.319,246.902C112.054,493.671,4.3,382.495,5.007,249.035z M27.235,249.299
	c-0.224,120.947,96.742,220.823,218.298,223.325c127.65,2.628,226.966-99.136,228.506-219.76
	c1.621-127.025-98.25-221.359-211.466-226.859C128.455,19.489,26.368,127.591,27.235,249.299z M250.587,458.909
	c-114.093,1.044-214.286-95.211-209.701-218.005C44.903,133.308,133.49,38.63,252.424,39.316
	c115.74,0.667,209.948,96.498,208.016,213.857C458.6,364.91,365.856,459.527,250.587,458.909z M250.294,165.913
	c0.805,0.709,1.131,0.874,1.272,1.138c23.418,43.944,46.833,87.89,70.222,131.849c8.639,16.236,17.171,32.528,25.84,48.748
	c4.532,8.48,14.062,13.332,23.259,12.081c9.02-1.227,16.197-7.737,18.667-17.084c2.127-8.047-1.341-14.779-4.988-21.587
	c-17.688-33.02-35.239-66.113-52.856-99.17c-20.4-38.279-40.723-76.6-61.284-114.793c-6.981-12.968-23.093-16.093-34.083-6.611
	c-3.329,2.872-5.759,7.05-7.883,11.014c-20.885,38.967-41.618,78.016-62.396,117.04c-17.371,32.625-34.619,65.317-52.185,97.838
	c-6.379,11.809-0.831,25.649,8.786,30.681c11.416,5.973,24.347,2.305,30.685-9.495c22.68-42.225,45.206-84.533,67.773-126.819
	C230.802,202.602,240.439,184.439,250.294,165.913z M273.01,271.671c0.036-12.534-9.953-22.608-22.417-22.604
	c-12.227,0.003-22.32,9.996-22.367,22.143c-0.049,12.727,9.571,22.598,22.16,22.738C262.932,294.087,272.974,284.199,273.01,271.671
	z"/>
</svg>
