<?xml version="1.0" encoding="iso-8859-1"?>
<!-- Generator: Adobe Illustrator 19.0.0, SVG Export Plug-In . SVG Version: 6.00 Build 0)  -->
<svg version="1.1" id="Layer_1" xmlns="http://www.w3.org/2000/svg" xmlns:xlink="http://www.w3.org/1999/xlink" x="0px" y="0px"
	 viewBox="0 0 2000 2000" style="enable-background:new 0 0 2000 2000;" xml:space="preserve">
<path d="M1755.815,651.141c-9.76,2.114-17.036,3.69-24.604,5.329C1611.536,243.887,1347.643,19.72,909.914,55.334
	C624.225,78.578,352.421,293.523,276.465,654.108c-9.397-0.856-19.155-1.744-29.032-2.643
	C285.956,352.256,556.064,45.122,936.499,15.538C1377.673-18.769,1702.655,305.503,1755.815,651.141z M1265.2,785.766
	c2.135-144.234-122.895-269.652-268.335-269.168c-143.916,0.48-265.281,122.01-265.983,266.347
	c-0.703,144.362,119.688,264.404,265.486,264.718C1142.82,1047.979,1263.053,930.849,1265.2,785.766z M993.121,1015.054
	c-124.665-3.639-229.677-111.659-227.686-234.207c2.118-130.331,107.536-229.395,241.947-227.362
	c121.315,1.835,224.115,109.149,222.595,232.371C1228.427,911.524,1117.681,1018.69,993.121,1015.054z M1685.337,959.475
	c-13.278,10.623-29.763,18.932-39.351,32.218c-128.239,177.714-255.49,356.14-383.041,534.351
	c-59.799,83.549-119.713,167.016-180.545,251.871c10.497,7.88,17.413,13.072,27.498,20.642
	c197.053-275.313,392.541-548.437,588.028-821.561C1693.73,971.155,1689.533,965.315,1685.337,959.475z M321.453,961.029
	c-11.182,5.742-20.116,10.33-31.119,15.98c197.234,275.588,392.918,549.01,589.625,823.862
	c10.483-9.403,17.166-15.397,25.902-23.234C709.264,1502.927,516.004,1232.88,321.453,961.029z M1126.398,1211.044
	c7.895,11.713,12.711,18.857,19.315,28.654c168.909-99.316,335.369-197.192,505.106-296.994
	c-11.661-10.609-18.327-16.672-26.586-24.186C1455.93,1017.412,1291.854,1113.823,1126.398,1211.044z M845.131,1241.023
	c5.133-10.37,9.672-19.54,15.325-30.96c-163.643-96.001-325.256-190.81-487.421-285.944c-10.369,7.886-18.727,14.243-29.597,22.51
	C514.195,1046.829,678.772,1143.403,845.131,1241.023z M1066.49,1310.889c1.483-40.264-31.36-75.594-71.003-76.38
	c-37.529-0.744-70.907,31.686-72.168,70.115c-1.351,41.185,30.681,75.788,70.477,76.135
	C1032.025,1381.093,1065.074,1349.328,1066.49,1310.889z M1752.64,744.095c-39.261,0.224-70.518,31.108-71.244,70.395
	c-0.755,40.847,31.274,73.4,72.596,73.784c38.477,0.358,69.943-30.779,70.79-70.05
	C1825.659,777.511,1792.916,743.866,1752.64,744.095z M178.061,813.606c-1.436,41.602,29.977,74.886,70.489,74.687
	c39.403-0.193,70.38-30.248,71.489-69.361c1.202-42.439-28.576-73.736-70.777-74.384
	C209.315,743.934,179.467,772.884,178.061,813.606z M923.321,1916.604c0.13,39.327,30.001,69.501,69.659,70.364
	c43.197,0.941,73.399-28.392,73.234-71.124c-0.154-39.678-29.586-69.524-69.416-70.39
	C954.904,1844.544,923.185,1875.26,923.321,1916.604z M981.53,1753.283c11.934-2.067,20.129-3.485,28.013-4.851
	c0-93.223,0-182.45,0-274.003c-10.673,0-19.188,0-28.013,0C981.53,1567.95,981.53,1659.481,981.53,1753.283z"/>
</svg>
