<?xml version="1.0" encoding="iso-8859-1"?>
<!-- Generator: Adobe Illustrator 19.0.0, SVG Export Plug-In . SVG Version: 6.00 Build 0)  -->
<svg version="1.1" id="Layer_1" xmlns="http://www.w3.org/2000/svg" xmlns:xlink="http://www.w3.org/1999/xlink" x="0px" y="0px"
	 viewBox="0 0 500 500" style="enable-background:new 0 0 500 500;" xml:space="preserve">
<path d="M306.066,251.211c0,60.725,0.018,121.45-0.007,182.176c-0.014,32.87-25.068,59.153-56.223,59.07
	c-31.116-0.083-56.111-26.464-56.119-59.399c-0.029-121.907-0.026-243.814-0.002-365.721C193.72,34.175,218.397,7.718,249.5,7.389
	c31.46-0.333,56.555,26.391,56.562,60.277C306.075,128.848,306.066,190.029,306.066,251.211z M492.477,150.072
	c0-0.912-0.019-1.824-0.041-2.736c-0.779-31.353-24.074-54.787-54.444-54.769c-30.136,0.018-54.453,23.813-54.744,54.809
	c-0.44,46.964-0.452,93.938,0.011,140.902c0.306,31.114,24.488,54.663,54.783,54.64c30.673-0.023,53.874-23.133,54.339-54.679
	c0.343-23.251,0.067-46.511,0.082-69.767C492.478,195.672,492.479,172.872,492.477,150.072z M7.246,441.124
	c0.865,27.723,24.399,50.969,51.343,51.334c32.656,0.442,57.337-19.711,58.29-49.564c1.032-32.319,1.032-64.72,0.044-97.042
	c-0.881-28.849-25.879-50.907-55.177-50.71c-28.903,0.194-53.574,23.318-54.475,51.623C6.78,362.248,7.185,377.761,7.17,393.26
	C7.156,409.216,6.749,425.184,7.246,441.124z"/>
</svg>
