<?xml version="1.0" encoding="iso-8859-1"?>
<!-- Generator: Adobe Illustrator 19.0.0, SVG Export Plug-In . SVG Version: 6.00 Build 0)  -->
<svg version="1.1" id="Layer_1" xmlns="http://www.w3.org/2000/svg" xmlns:xlink="http://www.w3.org/1999/xlink" x="0px" y="0px"
	 viewBox="0 0 500 500" style="enable-background:new 0 0 500 500;" xml:space="preserve">
<path d="M80.715,292.933c-19.64-0.173-35.376-16.354-34.99-35.979c0.376-19.121,16.572-34.881,35.632-34.675
	c19.477,0.211,35.134,16.488,34.84,36.221C115.909,277.832,100.171,293.105,80.715,292.933z M235.95,296.196
	c-18.993,0.058-33.511,14.824-33.257,33.826c0.244,18.296,15.146,33.022,33.474,33.081c18.918,0.061,33.482-14.626,33.445-33.728
	C269.575,310.074,255.435,296.137,235.95,296.196z M206.236,30.899c0.205,15,12.311,26.893,27.25,26.771
	c15.587-0.127,27.286-12.001,27.236-27.642c-0.05-15.627-11.845-27.166-27.626-27.027C217.5,3.139,206.02,15.063,206.236,30.899z
	 M141.345,404.964c-0.009-12.433-10.475-22.617-22.836-22.221c-12.176,0.39-21.72,10.414-21.5,22.582
	c0.222,12.233,10.166,21.925,22.305,21.738C131.539,426.875,141.354,417.03,141.345,404.964z M355.296,328.25
	c0.523-11.927-8.801-21.796-20.724-21.934c-11.686-0.136-20.888,8.824-21.106,20.551c-0.221,11.9,8.428,21.099,20.142,21.424
	C345.292,348.615,354.787,339.841,355.296,328.25z M197.924,148.586c0.079-11.646-8.898-20.762-20.584-20.902
	c-11.729-0.14-20.725,8.689-20.851,20.466c-0.128,11.929,8.454,20.617,20.436,20.689
	C188.915,168.911,197.844,160.299,197.924,148.586z M379.587,455.546c-11.122,0.123-19.652,8.537-19.874,19.601
	c-0.227,11.375,8.475,20.266,19.93,20.362c11.657,0.098,20.25-8.367,20.253-19.95C399.899,464.064,391.125,455.418,379.587,455.546z
	 M428.61,138.664c-10.802,0.112-19.584,8.872-19.777,19.727c-0.205,11.481,8.364,20.403,19.704,20.515
	c11.405,0.112,20.235-8.601,20.249-19.981C448.798,147.731,439.656,138.549,428.61,138.664z M338.454,242.983
	c-10.555,0.173-19.189,8.761-19.347,19.243c-0.163,10.861,8.676,19.902,19.566,20.012c10.811,0.11,19.681-8.838,19.637-19.809
	C358.265,251.354,349.533,242.802,338.454,242.983z M139.917,335.975c-0.03,10.061,8.238,18.55,18.355,18.846
	c10.617,0.31,19.283-7.91,19.502-18.5c0.221-10.629-8.1-19.215-18.709-19.304C148.523,316.928,139.948,325.417,139.917,335.975z
	 M316.501,144.947c-0.105-10.547-8.066-18.252-18.747-18.144c-10.688,0.108-18.159,7.831-18.062,18.672
	c0.097,10.833,7.603,18.12,18.576,18.033C308.852,163.425,316.606,155.531,316.501,144.947z M205.054,238.926
	c-9.295,0.059-16.994,7.648-17.044,16.799c-0.05,9.286,8.518,17.668,17.668,17.284c9.176-0.385,16.594-8.262,16.435-17.452
	C221.951,246.213,214.417,238.867,205.054,238.926z M91.829,154.423c-8.47,0.16-15.69,7.405-15.844,15.898
	c-0.16,8.875,7.205,16.061,16.391,15.991c8.958-0.068,15.44-6.601,15.518-15.643C107.973,161.593,100.717,154.255,91.829,154.423z
	 M257.377,85.043c-8.408,0.007-15.198,6.611-15.484,15.057c-0.298,8.817,6.465,15.865,15.353,16.002
	c9.046,0.139,15.828-6.446,15.878-15.415C273.174,91.816,266.348,85.035,257.377,85.043z M136.472,456.499
	c-7.839-0.01-14.613,6.792-14.591,14.653c0.022,7.975,6.633,14.535,14.63,14.517c8.083-0.018,14.556-6.493,14.542-14.548
	C151.039,463.157,144.41,456.509,136.472,456.499z M304.062,216.781c0.026,7.875,6.122,14.079,13.935,14.181
	c8.352,0.11,14.603-6.223,14.347-14.536c-0.243-7.9-6.446-13.896-14.275-13.797C310.309,202.727,304.036,209.065,304.062,216.781z
	 M264.251,170.05c-0.203-7.471-5.386-12.441-12.973-12.441c-7.872,0-13.257,5.523-13.023,13.356
	c0.218,7.28,5.763,12.639,13.061,12.622C259.026,183.57,264.464,177.879,264.251,170.05z M246.248,255.466
	c-0.209,6.449,4.944,12.1,11.349,12.445c6.841,0.369,12.535-5.145,12.513-12.118c-0.021-6.651-5.15-11.896-11.747-12.012
	C251.998,243.671,246.458,249.013,246.248,255.466z M365.526,382.895c0.262-7.043-4.867-12.49-11.845-12.577
	c-6.535-0.081-11.667,4.889-11.94,11.564c-0.29,7.088,4.773,12.459,11.819,12.539C360.131,394.496,365.279,389.537,365.526,382.895z
	 M414.824,373.441c-6.647,0.612-10.903,4.331-11.206,11.352c-0.293,6.781,4.747,11.614,11.673,11.466
	c7.184-0.153,10.494-4.302,11.186-10.431C426.556,378.631,421.151,372.858,414.824,373.441z M451.968,232.638
	c-6.442,0.458-10.324,4.022-10.524,10.773c-0.193,6.526,4.587,11.51,10.993,11.154c6.566-0.365,10.14-4.087,10.533-9.239
	C463.105,237.442,458.217,232.194,451.968,232.638z M256.672,396.463c-6.587,0.249-10.278,4.401-10.001,10.942
	c0.261,6.163,4.27,9.744,10.329,9.759c6.604,0.016,9.955-4.086,10.622-10.525C266.828,400.096,263.255,396.214,256.672,396.463z"/>
</svg>
