<?xml version="1.0" encoding="utf-8"?>
<!-- Generator: Adobe Illustrator 25.1.0, SVG Export Plug-In . SVG Version: 6.00 Build 0)  -->
<svg version="1.1" id="Layer_1" xmlns="http://www.w3.org/2000/svg" xmlns:xlink="http://www.w3.org/1999/xlink" x="0px" y="0px"
	 viewBox="0 0 500 500" style="enable-background:new 0 0 500 500;" xml:space="preserve">
<path d="M71.5,226.6c11.5,23.1,9.6,40.3-5.5,53.7c-12.3,10.9-31,12.5-45.1,3.6c-15.1-9.4-21.8-27.1-16.6-44
	c5.7-18.6,20.5-27.3,46.4-26.7c7.8-12.8,15.8-25.9,23.8-39.1c9.5-15.7,19-31.4,28.5-47.1c5-8.2,11.5-10.5,18.2-6.6
	c6.6,3.9,7.6,10.9,2.6,19.1c-15.5,25.5-31,51-46.5,76.5C75.3,219.6,73.3,223.3,71.5,226.6z M41,265.3c7.5,0,14-6.5,14.1-14.1
	c0.1-7.6-6.3-13.9-14.1-13.8c-8,0-14,6-14,13.8C26.9,258.8,33.4,265.3,41,265.3z M137.6,395.5c24.9,0.4,39.3,10.2,44.2,29.7
	c4,16.2-4.1,34.1-19.2,42.4c-14.9,8.2-34.1,5.2-45.9-7.2c-13.7-14.3-14-31.4-0.8-53.4c-13.2-23.1-26.6-46.4-40-69.7
	c-3.7-6.4-7.4-12.6-11-19.1c-4.1-7.5-2.6-14.3,3.7-17.9c6.2-3.6,13-1.5,17.3,5.8c16.1,27.7,32,55.5,48,83.3
	C135,391.6,136.4,393.6,137.6,395.5z M144.3,420c-8.1,0-13.9,5.8-13.9,13.9c0,8,5.9,13.9,13.9,13.9c7.9,0,14-6.1,14-14
	C158.3,426.1,152.1,419.9,144.3,420z M360.5,109.2c-20.6,1.8-37.5-8.4-43-25.6c-5.7-17.6,1.1-35.9,16.6-45.2
	c15.4-9.2,34.6-6.7,47.1,6.3c13.8,14.3,14.2,32.6,0.8,53.3c12.7,22,25.4,44.2,38.2,66.4c4.1,7.2,8.4,14.4,12.4,21.6
	c4.5,8,3.3,14.8-3,18.6c-6.3,3.8-13,1.6-17.6-6.3c-16-27.5-31.8-55-47.7-82.6C363.1,113.5,361.8,111.4,360.5,109.2z M353.7,85.1
	c7.8,0.1,13.9-5.8,14.2-13.6c0.2-7.7-5.9-14.1-13.5-14.3c-8-0.2-14.5,6-14.5,14.1C339.8,79.1,345.7,85,353.7,85.1z M448.9,291.4
	c-11.9,19.6-23.9,39.4-36,59.2c-5.7,9.4-11.3,18.9-17.1,28.2c-4.8,7.7-11.6,9.6-17.9,5.4c-5.8-3.8-7-11-2.6-18.2
	c17.7-29.3,35.5-58.5,53.2-87.7c-12-17.9-11.7-37.4,4.2-52.9c12.7-12.3,31.9-13.5,46.8-3.8c14.3,9.3,20.7,27.4,15.4,43.8
	C488.9,284.2,473.9,292.8,448.9,291.4z M458.8,239.6c-8.1,0-14.4,6.4-14.3,14.4c0.2,7.7,6.3,13.9,14,14c7.7,0.1,14.3-6.6,14.3-14.5
	C472.7,245.9,466.3,239.6,458.8,239.6z M180.8,61.1c33.6,0,66.8-0.1,100.1,0.2c4.1,0,9.3,1.1,12,3.7c2.5,2.5,4.2,8.8,2.7,11.6
	c-2,3.8-7.2,7.9-11.3,8.2c-13.1,1-26.4,0.4-39.6,0.4c-21.5,0-43.1,0-64.4,0c-11.2,22.9-31.3,28.9-48.3,23.6
	c-16.8-5.3-27.4-20.3-26.9-37.8c0.4-17,12.4-31.9,29.2-36.1C153.2,30,167.3,37.8,180.8,61.1z M157.2,72c-0.1-7.6-6.5-14.1-14.1-14.1
	c-7.6,0-13.8,6.4-13.7,14.3c0.1,7.9,6.1,13.9,14,13.9C151.1,86.1,157.3,79.8,157.2,72z M316.1,422.7c10.9-21.5,26.5-30.3,45.5-26.2
	c16.5,3.6,28.9,18,29.8,34.7c1,17.9-9.5,33.7-26,39.1c-18.8,6.2-34.6-1.1-49.1-23.4c-2.1,0-4.7,0-7.4,0c-31.8,0-63.6,0.1-95.4,0
	c-8.1,0-13.7-5.3-13.6-12.2c0.1-6.8,5.3-11.6,13.2-12c2.4-0.1,4.9-0.1,7.3-0.1c28.9,0,57.7,0,86.6-0.1
	C309.9,422.7,312.9,422.7,316.1,422.7z M353.5,420c-7.7-0.1-13.9,5.9-14.1,13.7c-0.2,7.8,5.7,14.1,13.5,14.3
	c8.2,0.2,14.4-5.9,14.4-14C367.2,426,361.4,420.1,353.5,420z M356.9,243.4c-1.7-2-7.4-2-10.7-0.9c-6,2-6.5,7.8-6.8,13.4
	c-2.2,44-31.9,78.4-75,86.7c-5.7,1.1-11.7,1.1-17.5,1.8c-6.8,0.8-10,5.3-10,11.5c0,6.5,4,10.4,10.5,11.1c3.1,0.3,6.4,0.1,9.5-0.1
	c57.3-5,101.5-50.3,107.1-108.8C361.7,253.1,360.3,247.4,356.9,243.4z M149.1,263.1c6.4-2.4,7-7.9,7.4-13.8
	c2.3-33.3,17.3-59.1,46.3-76.2c13.5-8,28.3-11.8,44-12.1c7.9-0.2,12.5-4.9,12.5-11.5c0-6.8-5.2-11.3-13.4-11.4c-1,0-2,0-2.9,0.1
	c-58.7,2-108,51.9-109.3,110.7C133.5,260,140.3,266.4,149.1,263.1z M285.6,252.7c-0.1,20.6-16.8,37.3-37.4,37.4
	c-20.9,0.1-37.9-17-37.9-37.8c0.1-20.4,17.1-37.4,37.5-37.4C268.6,214.8,285.6,231.9,285.6,252.7z M233.4,252.4
	c-0.1,8.4,6.4,14.8,14.9,14.8c7.9-0.1,14.4-6.6,14.4-14.5c0.1-8.4-6.5-14.9-14.9-14.7C239.7,238,233.4,244.4,233.4,252.4z
	 M324.8,254.5c0-8.7-5.6-14.4-13-13c-7.3,1.3-9.3,6.6-9.8,13.4c-2.2,29.2-23.1,50.1-51.3,51.7c-9.2,0.5-14.1,4.6-14,11.7
	c0.1,7.3,5.6,11.4,15,11.2C290.7,328.5,325,293.4,324.8,254.5z M181.8,263.9c6.9,0.4,11.6-4.6,12.2-12.7
	c2.3-31.1,21.8-50.4,53.2-52.8c7.6-0.6,12.2-5.3,11.9-12.1c-0.3-6.5-5-10.4-12.5-10.5c-38.7-0.8-74.5,33.8-75.2,72.6
	C171.2,258.2,174.8,263.5,181.8,263.9z"/>
</svg>
