<?xml version="1.0" encoding="iso-8859-1"?>
<!-- Generator: Adobe Illustrator 19.0.0, SVG Export Plug-In . SVG Version: 6.00 Build 0)  -->
<svg version="1.1" id="Layer_1" xmlns="http://www.w3.org/2000/svg" xmlns:xlink="http://www.w3.org/1999/xlink" x="0px" y="0px"
	 viewBox="0 0 500 500" style="enable-background:new 0 0 500 500;" xml:space="preserve">
<path d="M496.169,249.279C495.99,385.496,385.338,495.97,249.69,495.363C113.046,494.752,2.767,384.161,3.747,248.725
	C4.737,112.14,113.924,3.134,249.881,3C385.862,2.866,496.348,113.347,496.169,249.279z M250.469,9.318
	C118.046,10.091,10.732,118.049,10.747,249.163c0.014,128.167,103.386,239.601,238.948,239.527
	c137.366-0.075,240.085-110.183,240.108-239.138C489.827,112.725,378.76,10.161,250.469,9.318z M485.86,250.026
	C486.898,372.647,385.85,488.35,243.069,484.89c-121.65-2.948-228.68-100.992-228.665-236.8
	c0.014-127.76,103.952-237.102,241.05-234.637C380.824,15.707,486.24,117.984,485.86,250.026z M19.318,248.364
	c-0.566,127.956,103.284,230.094,227.157,232.051c130.662,2.065,235.362-105.174,234.868-230.964
	c-0.514-131.122-105.752-230.506-230.23-231.338C123.907,17.263,19.175,122.048,19.318,248.364z M477.288,249.957
	c1.244,121.318-101.413,231.203-235.29,226.537c-116.55-4.062-219.221-99.024-219.062-228.767
	c0.151-122.875,101.143-229.772,234.9-225.615C379.951,25.908,478.019,125.735,477.288,249.957z M216.896,126.491
	c0,88.555,0,176.049,0,263.557c8.546,0,16.562,0,25.276,0c0-42.521,0-84.657,0-127.366c17.597,0,34.496,0.156,51.39-0.068
	c8.092-0.107,16.36-0.01,24.229-1.594c34.351-6.912,56.449-38.178,53.401-74.696c-2.674-32.04-31.622-58.824-65.175-59.691
	c-19.327-0.499-38.676-0.127-58.015-0.141C237.776,126.485,227.55,126.491,216.896,126.491z M189.681,390.213
	c0-88.201,0-175.725,0-263.271c-7.103,0-13.672,0-20.284,0c0,87.986,0,175.517,0,263.271
	C176.277,390.213,182.68,390.213,189.681,390.213z M242.785,213.974c17.79,0,34.975,0.073,52.158-0.1
	c1.98-0.02,4.196-1.059,5.875-2.235c5.842-4.092,8.306-15.146,5.547-23.697c-2.546-7.888-6.747-10.626-16.364-10.65
	c-3.824-0.01-7.647-0.002-11.471-0.002c-11.885,0-23.769,0-35.744,0C242.785,190.013,242.785,201.77,242.785,213.974z"/>
</svg>
