<?xml version="1.0" encoding="iso-8859-1"?>
<!-- Generator: Adobe Illustrator 19.0.0, SVG Export Plug-In . SVG Version: 6.00 Build 0)  -->
<svg version="1.1" id="Layer_1" xmlns="http://www.w3.org/2000/svg" xmlns:xlink="http://www.w3.org/1999/xlink" x="0px" y="0px"
	 viewBox="0 0 2000 2000" style="enable-background:new 0 0 2000 2000;" xml:space="preserve">
<path d="M923.634,215.39c0-64.617,0-128.513,0-194.463c40.985,0,79.351,0,121.519,0c0,57.565,0,115.629,0,175.152
	c36.861,0,69.977,0,107.068,0c0-57.847,0-115.906,0-175.583c42.291,0,80.644,0,121.597,0c0,63.877,0,126.779,0,192.931
	c155.029,36.669,290.389,107.196,400.962,218.223c-50.341,50.303-100.487,100.411-152.822,152.707
	c-132.788-146.55-306.895-196.218-502.259-178.54c-159.661,14.447-288.018,90.364-386.007,217.242
	c-199.614,258.464-166.493,628.029,79.091,850.358c196.799,178.164,595.878,186.228,807.087-35.157
	c51.346,49.976,102.726,99.987,156.385,152.214c-112.443,111.968-245.755,184.039-401.666,219.303c0,54.869,0,108.764,0,164.471
	c-39.141,0-75.745,0-115.986,0c0-48.976,0-97.146,0-146.692c-38.51,0-73.432,0-111.819,0c0,47.836,0,96.078,0,146.368
	c-41.791,0-80.168,0-121.023,0c0-55.086,0-109.012,0-164.433c-225.218-56.36-400.102-180.062-520.725-377.359
	c-92.393-151.123-128.57-316.98-112.966-491.703C321.386,612.158,544.703,310.581,923.634,215.39z M1220.567,1325.388
	c-95.759,33.749-190.537,35.838-282.451-13.808c-99.67-53.834-184.534-199.969-165.058-287.978c265.714,0,532.083,0,802.759,0
	c1.983-13.081,5.653-24.13,4.897-34.867c-1.961-27.84-4.755-55.724-9.203-83.269c-15.263-94.506-53.879-178-118.817-249.053
	c-81.263-88.916-181.205-138.054-301.431-150.678c-103.505-10.868-201.234,4.019-291.765,54.621
	c-168.98,94.452-274.223,300.993-243.666,511.517c18.72,128.971,78.459,235.024,175.825,318.629
	c113.594,97.539,250.784,113.772,392.456,95.208c149.769-19.625,260.956-101.715,338.394-230.338
	c11.318-18.798,21.043-38.555,33.79-62.086c-44.592-23.839-84.365-45.101-129.46-69.208
	C1376.31,1215.936,1317.335,1291.283,1220.567,1325.388z M790.776,885.388c4.556-98.796,138.258-221.357,251.634-231.974
	c205.932-19.284,336.445,97.41,365.111,231.974C1201.738,885.388,996.252,885.388,790.776,885.388z"/>
</svg>
