<?xml version="1.0" encoding="iso-8859-1"?>
<!-- Generator: Adobe Illustrator 19.0.0, SVG Export Plug-In . SVG Version: 6.00 Build 0)  -->
<svg version="1.1" id="Layer_1" xmlns="http://www.w3.org/2000/svg" xmlns:xlink="http://www.w3.org/1999/xlink" x="0px" y="0px"
	 viewBox="0 0 2000 2000" style="enable-background:new 0 0 2000 2000;" xml:space="preserve">
<path d="M19.994,998.905C20.297,470.098,448.842,3.941,1033.344,20.527c494.249,14.024,966.896,418.463,947.971,1024.073
	c-15.355,491.38-426.847,957.703-1022.948,936.739C457.558,1963.726,21.378,1550.702,19.994,998.905z M943.034,1206.434
	c157.649-37.055,313.364-73.655,473.096-111.2c-76.752-268.291-153.045-534.975-230.533-805.836
	c-200.769,196.02-397.445,388.043-595.52,581.432C709.435,984.319,825.576,1094.751,943.034,1206.434z M583.352,952.402
	c-1.831,0.981-3.663,1.962-5.494,2.943c73.855,260.139,147.711,520.278,222.727,784.506
	c198.348-194.626,393.541-386.155,588.734-577.684c-1.109-1.361-2.217-2.722-3.326-4.083
	c-154.084,37.827-308.169,75.654-464.601,114.057C808.866,1165.706,696.109,1059.054,583.352,952.402z"/>
</svg>
