<?xml version="1.0" encoding="iso-8859-1"?>
<!-- Generator: Adobe Illustrator 19.0.0, SVG Export Plug-In . SVG Version: 6.00 Build 0)  -->
<svg version="1.1" id="Layer_1" xmlns="http://www.w3.org/2000/svg" xmlns:xlink="http://www.w3.org/1999/xlink" x="0px" y="0px"
	 viewBox="0 0 500 500" enable-background="new 0 0 500 500" xml:space="preserve">
<path d="M231.065,17.125c3.945,10.67,9.899,17.672,20.806,17.702c11.256,0.03,17.607-6.844,21.113-17.763
	c56.427,32.676,112.357,65.064,168.755,97.722c-6.6,8.099-10.423,16.599-4.952,26.604c5.5,10.057,14.654,11.65,25.394,10.282
	c0,65.122,0,129.821,0,195.01c-10.751-2.326-19.899,0.153-25.404,10.195c-5.199,9.483-2.546,18.113,5.375,26.249
	c-56.554,32.777-112.478,65.19-168.87,97.873c-3.944-10.233-9.87-17.974-21.653-17.569c-10.763,0.37-17.12,6.764-20.239,17.799
	c-56.542-32.751-112.382-65.095-168.895-97.83c7.213-8.731,10.636-17.767,4.3-27.696c-5.788-9.07-14.481-11.285-24.856-8.921
	c0-65.098,0-129.78,0-195.177c11.476,1.62,21.043-0.524,26.26-11.575c3.641-7.714,2.22-14.224-5.628-25.247
	C118.505,82.364,174.359,49.991,231.065,17.125z M178.9,302.941c2.909-1.84,5.229-3.419,7.651-4.821
	c73.81-42.722,147.632-85.425,221.448-128.137c5.184-3,10.465-5.859,15.475-9.128c5.619-3.667,7.096-9.206,4.157-13.888
	c-2.745-4.374-7.9-5.36-13.585-2.547c-1.533,0.758-3.011,1.63-4.491,2.49c-14.795,8.599-29.577,17.22-44.384,25.797
	c-2.151,1.246-4.415,2.295-7.028,3.642c-23.605-33.199-55.758-51.815-95.662-57.642c0-3.637,0-6.466,0-9.295
	c0-16.849,0.053-33.699-0.054-50.547c-0.018-2.779-0.05-5.923-1.292-8.249c-2.189-4.102-6.194-6.125-10.877-4.646
	c-4.808,1.518-7.272,4.952-7.23,10.328c0.138,17.705,0.065,35.412,0.024,53.118c-0.007,3.017-0.254,6.034-0.39,9.07
	c-42.691,3.173-75.859,22.05-101.351,55.233c-8.03-4.631-15.68-9.038-23.325-13.453c-9.384-5.419-18.66-11.038-28.188-16.192
	c-5.363-2.901-10.62-1.196-13.332,3.515c-2.489,4.325-1.302,9.265,3.419,12.702c2.755,2.005,5.847,3.551,8.807,5.271
	c14.02,8.149,28.047,16.286,42.678,24.779c-19.314,39.321-18.236,78.533-1.375,118.05c-2.002,1.259-3.873,2.513-5.815,3.645
	c-14.044,8.184-28.137,16.287-42.142,24.536c-6.581,3.877-8.413,8.847-5.526,14.017c2.938,5.262,8.242,6.431,14.766,2.806
	c9.224-5.127,18.289-10.54,27.434-15.81c7.065-4.072,14.148-8.113,21.386-12.262c25.705,35.169,60.084,53.612,102.973,57.604
	c0,3.414,0,6.231,0,9.047c0,14.85,0,29.7,0,44.551c0,1.713-0.062,3.43,0.018,5.14c0.317,6.761,3.828,10.654,9.594,10.706
	c5.786,0.052,9.672-3.842,9.735-10.522c0.159-16.848,0.059-33.698,0.062-50.547c0.001-3.021,0-6.043,0-9.032
	c42.043-5.549,73.72-25.787,96.853-59.768c3.155,1.761,5.641,3.106,8.086,4.521c14.072,8.145,28.129,16.316,42.203,24.459
	c9.23,5.34,14.518,5.182,17.925-0.485c3.502-5.825,0.848-10.843-8.676-16.373c-9.622-5.586-19.259-11.147-28.87-16.75
	c-7.099-4.139-14.168-8.328-19.875-11.686c0.751-8.575,2.378-15.93,1.788-23.103c-0.844-10.265-9.295-17.723-19.21-18.853
	c-9.39-1.071-17.068,3.9-21.238,13.779c-0.443,1.048-0.741,2.156-1.142,3.224c-15.167,40.446-56.55,62.349-95.554,55.631
	C211.88,332.919,193.409,321.861,178.9,302.941z M465.171,130.852c-0.403-5.694-5.098-9.853-10.884-9.641
	c-5.989,0.219-10.583,5.365-10.121,11.338c0.425,5.496,5.393,9.883,10.952,9.67C461.154,141.987,465.603,136.957,465.171,130.852z
	 M454.964,355.954c-6-0.142-10.874,4.67-10.82,10.682c0.05,5.573,4.654,10.207,10.282,10.349c6.056,0.152,10.83-4.592,10.751-10.684
	C465.103,360.549,460.701,356.089,454.964,355.954z M49.46,121.204c-5.813-0.028-10.07,4.163-10.267,10.109
	c-0.196,5.904,3.769,10.433,9.515,10.87c5.911,0.45,11.048-4.169,11.271-10.134C60.207,125.985,55.599,121.234,49.46,121.204z
	 M49.119,355.954c-5.798,0.161-9.872,4.453-9.939,10.471c-0.066,6.016,3.912,10.291,9.827,10.557
	c5.907,0.266,10.922-4.534,10.973-10.501C60.033,360.403,55.266,355.783,49.119,355.954z M252.816,4.112
	c-6.413-0.332-11.001,3.76-11.157,9.952c-0.151,6.008,4.605,10.891,10.561,10.842c5.614-0.046,10.069-4.513,10.226-10.255
	C262.615,8.49,258.902,4.427,252.816,4.112z M262.442,483.189c-0.306-6.043-4.327-9.673-10.602-9.571
	c-6.289,0.102-10.525,4.654-10.177,10.936c0.309,5.59,5.051,9.97,10.673,9.86C258.272,494.297,262.753,489.32,262.442,483.189z
	 M195.652,180.814c-14.011,10.392-24.268,23.142-28.393,40.323c-3.225,13.431-4.243,26.971-2.68,41.74
	c46.606-27.004,91.915-53.257,138.031-79.978C278.85,160.826,231.832,153.98,195.652,180.814z"/>
</svg>
