<?xml version="1.0" encoding="iso-8859-1"?>
<!-- Generator: Adobe Illustrator 19.0.0, SVG Export Plug-In . SVG Version: 6.00 Build 0)  -->
<svg version="1.1" id="Layer_1" xmlns="http://www.w3.org/2000/svg" xmlns:xlink="http://www.w3.org/1999/xlink" x="0px" y="0px"
	 viewBox="0 0 2000 2000" style="enable-background:new 0 0 2000 2000;" xml:space="preserve">
<path d="M980.268,19.294c30.563-12.026,40.358,7.659,51.694,25.789c87.945,140.647,176.203,281.098,264.142,421.748
	c101.318,162.05,202.447,324.218,303.518,486.422c7.207,11.566,13.261,23.85,19.112,34.46
	c-10.087,33.328-29.779,33.535-54.893,23.334c-151.706-61.625-303.566-122.872-455.398-184.189
	c-35.307-14.259-70.702-28.3-108.344-43.356C848.939,851.041,702.324,933.03,547.831,998.175
	c-9.591-14.984-14.482-22.625-23.261-36.34c12.273-10.23,23.151-23.432,37.138-30.313
	C691.391,867.73,822.007,805.823,951.39,741.436c31.613-15.732,58.07-16.231,91.136-2.489
	c147.007,61.097,295.284,119.138,443.13,178.214c7.249,2.896,14.761,5.134,30.373,10.509
	C1341.636,647.186,1171.411,373.404,997.81,94.193c-182.534,301.212-362.777,598.643-545.229,899.72
	c183.469,108.035,364.257,214.491,545.495,321.212c201.01-86.511,396.968-183.037,593.917-264.115
	c30.823,24.075,22.762,40.882,9.585,60.245c-156.752,230.341-312.959,461.052-469.356,691.635
	c-32.4,47.768-64.7,95.609-97.698,142.963c-8.434,12.103-19.357,22.472-33.408,38.515c-12.813-10.452-26.319-17.34-33.966-28.312
	c-188.419-270.368-376.217-541.168-564.114-811.9c-1.989-2.866-5.448-5.829-5.464-8.762c-0.088-15.346-5.429-36.592,2.476-44.831
	c16.915-17.63,33.639-3.59,45.292,12.851c34.108,48.122,68.083,96.341,101.76,144.766
	c146.385,210.49,292.661,421.056,438.83,631.696c2.712,3.908,3.615,9.072,7.751,19.912
	c172.047-252.177,337.852-495.205,509.656-747.026c-55.251,24.322-101.796,44.319-147.931,65.22
	c-109.226,49.484-218.475,98.927-327.193,149.509c-23.406,10.89-41.823,9.64-64.38-3.831
	c-181.608-108.454-363.985-215.622-546.178-323.095c-38.905-22.95-40.984-31.409-16.867-71.079
	c186.06-306.042,372.072-612.112,558.19-918.119C966.139,39.59,974.217,28.372,980.268,19.294z"/>
</svg>
