<?xml version="1.0" encoding="iso-8859-1"?>
<!-- Generator: Adobe Illustrator 19.0.0, SVG Export Plug-In . SVG Version: 6.00 Build 0)  -->
<svg version="1.1" id="Layer_1" xmlns="http://www.w3.org/2000/svg" xmlns:xlink="http://www.w3.org/1999/xlink" x="0px" y="0px"
	 viewBox="0 0 500 500" enable-background="new 0 0 500 500" xml:space="preserve">
<path d="M239.165,148.766c24.294,16.182,47.561,31.668,70.811,47.178c5.192,3.464,10.152,7.314,15.529,10.455
	c6.559,3.832,8.945,9.166,8.81,16.674c-0.314,17.443-0.183,34.9,0.09,52.345c0.116,7.426-2.602,12.495-8.918,16.667
	c-28.508,18.83-56.773,38.026-85.682,57.464c16.322,11.048,32.211,21.825,48.125,32.566c12.746,8.603,25.381,17.382,38.345,25.643
	c6.143,3.915,8.9,9.225,8.945,16.077c0.115,17.452-0.032,34.905-0.013,52.357c0.007,6.678-2.039,12.326-8.106,15.711
	c-6.259,3.492-11.489,0.291-16.399-3.276c-46.877-34.045-93.813-68.011-140.396-102.455c-3.56-2.632-6.207-8.645-6.443-13.233
	c-0.803-15.551-0.254-31.168-0.378-46.759c-0.064-8.128,4.79-12.766,10.826-17.079c27.661-19.766,55.199-39.702,83.646-60.199
	c-8.438-6.149-16.375-11.934-24.312-17.717c-19.845-14.46-39.622-29.016-59.575-43.326c-6.521-4.677-9.922-10.139-9.576-18.588
	c0.581-14.171,0.51-28.397-0.023-42.573c-0.307-8.154,2.841-13.408,9.325-17.978c19.498-13.741,38.695-27.907,58.023-41.89
	c26.77-19.367,53.606-38.644,80.28-58.143c4.923-3.599,9.921-4.951,15.314-2.304c5.356,2.63,6.927,7.623,6.891,13.405
	c-0.117,18.613-0.18,37.227-0.037,55.84c0.05,6.445-2.612,10.655-7.977,14.214c-27.603,18.311-55.017,36.907-82.488,55.418
	C242.527,146.121,241.343,147.114,239.165,148.766z"/>
</svg>
