<?xml version="1.0" encoding="iso-8859-1"?>
<!-- Generator: Adobe Illustrator 19.0.0, SVG Export Plug-In . SVG Version: 6.00 Build 0)  -->
<svg version="1.1" id="Layer_1" xmlns="http://www.w3.org/2000/svg" xmlns:xlink="http://www.w3.org/1999/xlink" x="0px" y="0px"
	 viewBox="0 0 500 500" enable-background="new 0 0 500 500" xml:space="preserve">
<path d="M250.072,6.097c39.695-1.232,76.399,9.363,111.436,26.672c27.349,13.511,51.203,32.017,71.122,54.975
	c28.344,32.666,47.341,70.022,56.401,112.821c5.381,25.416,6.289,51.002,3.623,76.019c-4.661,43.746-20.877,83.607-47.624,119.458
	c-33.572,45.001-77.824,73.441-130.754,89.025c-27.964,8.233-57.243,10.841-86.083,7.551
	c-39.177-4.469-75.986-16.448-109.723-38.491c-55.436-36.22-89.501-86.735-105.74-149.986c-6.588-25.66-7.402-52.231-4.864-78.324
	c4.447-45.709,21.134-87.314,48.889-124.026c20.541-27.169,45.966-49.067,75.957-65.358c25.048-13.607,51.413-23.643,79.955-26.914
	C225.104,8.093,237.602,7.221,250.072,6.097z M250.477,28.486C129.662,29.376,29.18,125.88,29.397,249.378
	c0.218,124.148,97.556,221.199,221.073,221.192c124.49-0.007,221.021-98.376,221.036-221.127
	C471.522,125.97,371.415,29.333,250.477,28.486z M250.875,56.009c108.502-0.41,196.951,91.439,192.779,201.845
	c-3.705,98.05-87.276,192.76-206.252,185.471c-95.431-5.847-181.871-85.961-179.743-197.607
	C59.709,138.238,145.845,55.882,250.875,56.009z M249.95,73.407C154.042,72.801,74.6,150.726,74.397,249.78
	c-0.199,96.887,79.3,181.137,184.014,176.813c90.343-3.73,169.648-78.573,168.234-180.314
	C425.322,150.98,346.582,71.978,249.95,73.407z M332.417,199.261c24.644-1.186,48.527-1.489,73.599,6.18
	c0.834,10.297,2.105,21.462,2.573,32.661c1.224,29.242-2.041,57.758-14.076,84.888c-19.254,43.403-52.578,70.708-97.913,81.98
	c-54.689,13.597-105.965,3.498-150.584-31.216c-29.332-22.821-47.544-53.533-53.406-91.028c-4.179-26.73-3.031-52.992,3.36-79.137
	c22.421-9.058,45.323-6.604,68.832-6.687c17.487-33.743,45.708-54.304,84.013-53.842
	C286.682,143.518,315.757,162.333,332.417,199.261z M281.226,320.312c-34.738,10.564-65.818,6.909-92.797-17.26
	c-26.626-23.854-35.278-54.052-29.144-89.581c-17.384,0.101-33.392-1.721-48.822,3.538
	c-25.431,123.495,81.563,193.774,174.853,172.484C289.15,366.613,287.465,343.867,281.226,320.312z M301.115,387.502
	c68.818-26.244,108.201-93.768,88.485-168.81c-16.849-4.769-34.113-6.629-52.052-4.531c3.381,20.173,2.649,39.002-5.553,57.13
	c-8.31,18.366-21.044,32.84-38.75,43.612C301.597,338.395,302.126,362.321,301.115,387.502z M250.48,236.874
	c17.725-16.342,39.214-27.485,63.901-34.575c-13.743-24.83-32.958-39.16-60.191-40.979c-31.875-2.129-55.142,11.785-70.939,39.256
	c12.186,5.334,23.969,9.62,34.884,15.513C229.089,222.004,239.18,229.519,250.48,236.874z M275.588,303.795
	c-13.715-46.453-68.735-83.895-99.207-84.465c-4.594,31.837,4.129,58.264,31.403,76.999
	C228.718,310.711,251.169,311.721,275.588,303.795z M257.987,245.889c9.739,17.92,18.859,34.702,27.973,51.472
	c29.799-15.746,44.321-60.027,30.225-84.557C294.575,219.453,275.027,229.771,257.987,245.889z"/>
</svg>
