<?xml version="1.0" encoding="iso-8859-1"?>
<!-- Generator: Adobe Illustrator 19.0.0, SVG Export Plug-In . SVG Version: 6.00 Build 0)  -->
<svg version="1.1" id="Layer_1" xmlns="http://www.w3.org/2000/svg" xmlns:xlink="http://www.w3.org/1999/xlink" x="0px" y="0px"
	 viewBox="0 0 500 500" enable-background="new 0 0 500 500" xml:space="preserve">
<path d="M474.429,250.586c0.001,26.189,0.065,52.377-0.015,78.566c-0.1,32.634-14.632,57.437-42.403,73.81
	c-45.957,27.097-92.18,53.761-138.688,79.899c-28.129,15.808-56.948,15.353-85.072-0.746
	c-45.733-26.179-91.442-52.403-136.952-78.967c-27.734-16.189-42.628-40.83-42.985-72.912
	c-0.602-54.103-0.784-108.226,0.071-162.322C28.88,136.706,43.839,112.5,70.83,96.683c46.022-26.969,92.342-53.43,138.591-80.01
	c16.282-9.357,33.834-12.045,52.45-10.056c12.753,1.363,24.148,5.709,35.139,12.086c45.387,26.336,91.158,52.021,136.279,78.8
	c26.373,15.652,40.479,39.671,41.035,70.623C474.818,195.604,474.428,223.099,474.429,250.586z M38.75,249.813
	c0.006,0,0.012,0,0.018,0c0,27.266-0.409,54.54,0.116,81.797c0.518,26.886,12.758,47.874,35.811,61.461
	c45.951,27.085,92.216,53.642,138.581,80.015c25.27,14.374,51.065,14.139,76.475-0.031c16.213-9.041,32.188-18.511,48.268-27.79
	c30.669-17.697,61.676-34.842,91.892-53.281c21.228-12.954,33.522-32.979,33.879-57.925c0.804-56.252,0.812-112.531,0.001-168.783
	c-0.36-24.975-12.706-45.16-34.029-57.856c-47.122-28.057-94.759-55.265-142.531-82.207c-23.799-13.422-48.611-13.076-72.323,0.342
	c-47.172,26.693-94.175,53.701-140.818,81.304c-22.558,13.35-34.59,34.18-35.198,60.508C38.257,194.837,38.75,222.331,38.75,249.813
	z M231.813,337.245c-6.379,8.897-14.307,15.467-24.352,18.874c-29.456,9.991-59.053-5.068-67.638-34.844
	c-6.643-23.043,3.412-49.717,28.174-61.04c19.354-8.851,37.541-6.218,53.929,6.958c7.044,5.663,13.093,12.562,19.608,18.885
	c1.67,1.621,3.393,3.188,5.568,5.226c2.268-1.98,4.24-3.54,6.024-5.291c5.554-5.452,11.077-10.936,16.538-16.48
	c15.448-15.683,42.079-18.15,59.973-7.989c20.632,11.716,30.895,34.883,25.616,57.263c-5.231,22.176-19.794,35.31-41.368,39.717
	c-15.693,3.206-30.642-0.979-42.642-12.203c-10.416-9.742-20.267-20.09-30.347-30.191c-9.775-9.795-19.429-19.712-29.31-29.398
	c-10.34-10.137-23.342-12.467-36.239-5.781c-11.809,6.122-17.944,20.33-14.757,33.68c3.101,12.99,14.782,22.168,28.284,22.398
	c8.925,0.152,16.374-3.033,22.694-9.246c5.956-5.855,7.052-5.795,13.056,0.286c1.969,1.994,3.877,4.053,5.719,6.164
	C230.883,334.851,231.102,335.748,231.813,337.245z M262.045,307.558c9.56,8.923,17.535,17.491,26.659,24.58
	c9.839,7.644,21.11,6.716,31.66,0.91c10.241-5.635,14.612-15.441,14.475-26.493c-0.139-11.192-5.381-20.396-15.883-25.557
	c-10.465-5.143-21.464-5.199-30.663,1.766C279.113,289.714,271.387,298.587,262.045,307.558z M266.751,216.305
	c18.797,5.397,40.501-9.685,35.493-33.295c-2.325-10.963-7.878-20.06-15.673-27.778c-12.798-12.673-24.291-26.323-33.318-41.969
	c-0.595-1.031-1.611-1.818-2.441-2.729c-0.876,0.562-1.585,0.782-1.915,1.262c-11.7,16.996-25.794,31.849-40.587,46.147
	c-7.216,6.975-12.32,15.463-14.597,25.477c-3.751,16.496,7.169,31.43,24.101,32.712c6.737,0.51,13.345,0.008,19.73-2.521
	c1.52-0.602,3.312-0.518,5.569-0.831c-2.664,12.082-8.952,21.152-13.819,29.721c6.721,6.696,13.036,12.987,18.508,18.438
	c5.654-5.28,11.74-10.962,18.008-16.814c-4.666-10.085-11.806-19.347-12.041-31.857
	C258.636,213.787,262.669,215.133,266.751,216.305z"/>
</svg>
