<?xml version="1.0" encoding="iso-8859-1"?>
<!-- Generator: Adobe Illustrator 19.0.0, SVG Export Plug-In . SVG Version: 6.00 Build 0)  -->
<svg version="1.1" id="Layer_1" xmlns="http://www.w3.org/2000/svg" xmlns:xlink="http://www.w3.org/1999/xlink" x="0px" y="0px"
	 viewBox="0 0 500 500" enable-background="new 0 0 500 500" xml:space="preserve">
<path d="M496.196,250.356c-1.658,135.317-109.632,244.316-247.301,243.773C109.454,493.58,3.403,382.383,3.251,248.799
	C3.098,114.185,114.906,4.442,250.444,5.002C385.31,5.559,495.479,113.227,496.196,250.356z M248.837,468.07
	c120.816,1.03,219.923-97.219,220.932-216.697c1.012-119.763-97.123-219.557-218.603-220.438
	C133.654,30.083,30.427,123.749,29.644,248.408C28.874,371.054,129.237,468.123,248.837,468.07z M97.236,267.224
	c12.378,5.36,25.03,10.467,38.034,13.927c35.902,9.552,72.83,11.724,109.734,11.977c40.323,0.277,80.56-2.157,119.938-11.97
	c14.815-3.692,29.565-7.884,42.147-17.073c12.559-9.173,12.953-20.054,0.153-28.653c-7.968-5.353-17.064-9.437-26.171-12.605
	c-22.114-7.693-45.153-11.268-68.419-13.503c-55.583-5.34-111.037-5.051-165.901,6.135c-16.437,3.351-32.377,9.641-48.115,15.702
	c-7.888,3.038-14.714,8.67-16.131,18.247C83.6,258.489,89.785,263.998,97.236,267.224z M297.574,387.885
	c21.929-2.067,43.835-5.037,64.663-12.626c7.852-2.861,15.636-6.735,22.363-11.639c8.16-5.949,8.007-13.691,0.568-20.385
	c-3.411-3.069-7.424-5.81-11.636-7.574c-7.781-3.258-15.766-6.239-23.919-8.362c-33.46-8.713-67.649-10.794-102.075-10.716
	c-33.157,0.075-66.107,2.218-98.219,10.919c-10.506,2.847-21.021,6.872-30.425,12.282c-13.854,7.97-13.622,19.147,0.342,27.204
	c8.328,4.805,17.62,8.333,26.885,11.05c33.664,9.872,68.445,11.066,105.3,12.274C265.412,389.619,281.554,389.395,297.574,387.885z
	 M167.875,116.205c-14.063,2.058-27.814,7.162-41.275,12.071c-8.177,2.982-17.501,7.122-17.311,17.93
	c0.189,10.727,9.82,14.123,17.764,17.754c7.265,3.321,14.995,5.828,22.737,7.869c32.194,8.487,65.117,10.632,98.255,10.695
	c34.413,0.066,68.685-1.711,102.021-10.939c10.881-3.012,21.797-7.243,31.455-13c12.689-7.563,12.447-18.024-0.394-25.608
	c-8.98-5.304-19.061-9.21-29.115-12.145c-33.254-9.71-67.609-10.936-114.806-12.004
	C222.554,110.312,195.064,112.227,167.875,116.205z"/>
</svg>
