<?xml version="1.0" encoding="iso-8859-1"?>
<!-- Generator: Adobe Illustrator 19.0.0, SVG Export Plug-In . SVG Version: 6.00 Build 0)  -->
<svg version="1.1" id="Layer_1" xmlns="http://www.w3.org/2000/svg" xmlns:xlink="http://www.w3.org/1999/xlink" x="0px" y="0px"
	 viewBox="0 0 2000 2000" style="enable-background:new 0 0 2000 2000;" xml:space="preserve">
<path d="M1348.529,1401.528c-113.03-180.797-222.589-356.04-335.414-536.509c296.811-184.929,593.14-369.557,897.697-559.312
	c24.383,357.006,48.183,705.491,72.267,1058.124C1770.078,1376.484,1560.62,1388.928,1348.529,1401.528z M984.245,967.463
	c42.495,297.281,84.99,594.562,128.455,898.632c278.214-144.692,550.376-286.236,822.537-427.781c-1.308-2.71-2.616-5.42-3.925-8.13
	c-204.396,12.116-408.791,24.233-615.05,36.46c-108.906-168.409-217.028-335.606-325.151-502.803
	C988.824,965.049,986.534,966.256,984.245,967.463z M130.163,693.922C132,585.448,63.014,522.712,9.886,445.277
	c10.288,338.835,20.575,677.671,30.964,1019.812c63.337-2.848,121.518-5.464,192.188-8.642
	c-36.848-23.083-62.463-39.128-92.108-57.698C136.446,1161.913,126.204,927.797,130.163,693.922z M449.163,1036.12
	c52.933,27.506,104.238,54.167,168.301,87.456c-21.997-40.758-36.354-67.359-51.306-95.062
	C666.66,845.695,760.341,661.525,867.441,485.52c66.497-109.279,98.676-218.043,72.098-343.127
	c-0.354-1.668-0.905-3.295-4.63-16.648C770.377,434.107,610.93,732.939,449.163,1036.12z M218.242,1223.405
	c62.076,13.841,117.113,26.113,182.729,40.744c-27.933-31.131-48.161-53.675-69.001-76.9c2.59-14.509,4.245-27.969,7.44-41.054
	c50.446-206.605,93.741-415.36,154.618-618.852c33.185-110.926-0.737-201.453-44.496-299.201
	C372.663,558.919,295.793,889.696,218.242,1223.405z M871.79,898.866c152.57-159.157,301.822-321.709,459.314-475.839
	c74.957-73.357,72.447-164.181,86.737-254.953c-231.652,247.794-463.305,495.588-697.359,745.952
	c45.967,42.148,88.397,81.052,140.059,128.42c-9.905-41.293-16.893-70.428-24.977-104.131
	C848.827,923.846,860.053,911.111,871.79,898.866z M847.15,1821.416c-9.552-6.668-18.713-13.999-28.715-19.904
	c-135.131-79.781-273.558-154.523-404.574-240.555c-101.705-66.785-205.024-31.16-310.494-23.134
	c245.886,98.224,491.771,196.447,737.656,294.67C843.065,1828.8,845.107,1825.108,847.15,1821.416z M1043.464,1752.252
	c-46.91-180.555-93.653-361.155-140.992-541.597c-4.624-17.626-8.465-38.723-20.298-50.621
	c-48.719-48.98-100.384-95.031-150.966-142.158c-3.103,2.102-6.206,4.203-9.309,6.305
	c104.218,243.345,208.437,486.691,312.655,730.036C1037.524,1753.562,1040.494,1752.907,1043.464,1752.252z M961.855,1739.719
	c-3.069-7.285-5.449-14.959-9.309-21.797c-73.813-130.766-155.619-257.76-219.288-393.278
	c-51.319-109.232-151.449-135.9-239.575-186.52c-3.226,3.122-6.451,6.244-9.677,9.367
	c156.228,198.747,312.456,397.494,468.684,596.24C955.745,1742.393,958.8,1741.056,961.855,1739.719z M897.135,1771.559
	c-10.86-11.763-21.4-23.84-32.63-35.239c-109.063-110.699-218.19-221.336-327.444-331.848
	c-16.536-16.726-31.199-41.507-51.219-47.461c-69.524-20.675-141.026-34.698-211.776-51.251c-1.069,3.016-2.138,6.031-3.206,9.046
	c206.607,154.755,413.215,309.51,619.822,464.265C892.833,1776.567,894.984,1774.063,897.135,1771.559z"/>
</svg>
