<?xml version="1.0" encoding="iso-8859-1"?>
<!-- Generator: Adobe Illustrator 19.0.0, SVG Export Plug-In . SVG Version: 6.00 Build 0)  -->
<svg version="1.1" id="Layer_1" xmlns="http://www.w3.org/2000/svg" xmlns:xlink="http://www.w3.org/1999/xlink" x="0px" y="0px"
	 viewBox="0 0 2000 2000" style="enable-background:new 0 0 2000 2000;" xml:space="preserve">
<path d="M797.43,1750.397c0-198.571,0.957-388.904-1.607-579.191c-0.234-17.406-19.216-40.98-35.899-50.756
	c-177.857-104.218-356.983-206.271-535.824-308.81c-44.46-25.491-89.145-50.59-136.219-77.281c0-62.94-2.863-127.05,1.053-190.744
	c2.423-39.406,31.452-65.306,65.037-84.549C341.588,351.569,529.145,243.97,716.713,136.389
	c59.279-33.999,119.195-66.949,177.62-102.359c69.425-42.077,137.492-44.748,208.499-3.432
	c152.34,88.641,305.552,175.784,458.335,263.666c91.911,52.868,183.002,107.212,275.794,158.481
	c51.32,28.355,76.21,68.265,76.087,126.943c-0.623,296.276-0.539,592.554-0.038,888.83c0.083,49.337-19.624,86.705-61.189,111.748
	c-44.56,26.848-90.199,51.903-139.887,80.326c0-347.382,0-689.083,0-1035.372c-15.335-12.631-29.897-28.13-47.467-38.564
	c-209.365-124.343-419.296-247.734-628.676-372.052c-19.385-11.51-34.732-13.862-55.402-1.785
	c-71.019,41.493-143.265,80.887-217.165,122.268c113.595,67.149,224.937,133.121,336.435,198.829
	c102.93,60.659,205.94,121.185,309.097,181.456c38.623,22.567,62.079,55.881,62.257,100.169
	c1.294,322.172,1.339,644.349,1.726,966.525c0.005,4.474-0.669,8.949-1.299,16.834c-64.173,36.525-129.909,73.938-200.83,114.303
	c0-14.861,0.003-25.425,0-35.988c-0.116-317.675-0.507-635.35,0-953.023c0.063-39.477-13.501-65.164-49.157-86.27
	c-217.994-129.037-434.588-260.44-654.663-392.87c-92.887,51.886-187.257,104.599-285.866,159.681
	c69.486,40.403,135.21,78.96,201.26,116.953c152.654,87.809,305.372,175.506,458.272,262.884
	c42.535,24.307,59.535,62.357,59.601,108.884c0.362,256.848-1.122,513.707,0.884,770.54
	c0.691,88.481-98.905,148.958-180.035,102.857c-112.684-64.031-224.412-129.742-336.688-194.494
	c-106.518-61.431-212.614-123.635-320.092-183.345c-52.375-29.097-79.333-69.47-76.71-129.99c1.558-35.96,0.285-72.042,0.285-115.4
	C324.949,1479.599,558.375,1613.385,797.43,1750.397z M88.431,951.834c0,70.884,0,136.018,0,201.72
	c180.82,100.864,361.318,201.548,545.587,304.336c0-70.653,0-134.376,0-201.501C453.475,1155.608,272.324,1054.487,88.431,951.834z"
	/>
</svg>
