<?xml version="1.0" encoding="iso-8859-1"?>
<!-- Generator: Adobe Illustrator 19.0.0, SVG Export Plug-In . SVG Version: 6.00 Build 0)  -->
<svg version="1.1" id="Layer_1" xmlns="http://www.w3.org/2000/svg" xmlns:xlink="http://www.w3.org/1999/xlink" x="0px" y="0px"
	 viewBox="0 0 2000 2000" style="enable-background:new 0 0 2000 2000;" xml:space="preserve">
<path d="M1003.083,15.331c540.143,2.293,976.325,430.859,981.386,969.034c5.32,565.762-436.19,984.322-957.498,996.636
	C458.339,1994.433,15.279,1547.399,17.867,996.817C20.443,448.679,458.79,21.228,1003.083,15.331z M1451.787,373.958
	c-17.03,9.486-31.612,16.838-45.414,25.441c-40.732,25.391-55.319,68.69-37.071,108.337c17.569,38.173,60.712,63.096,98.358,56.82
	c47.218-7.872,83.935-48.877,88.479-98.814c6.582-72.333-35.855-131.609-115.056-152.322
	c-106.565-27.87-202.071-0.916-286.217,68.097c-98.934,81.142-164.899,185.979-213.371,302.715
	c-13.275,31.97-23.45,65.226-36.537,102.087c-62.001-14.066-123.774-28.081-187.552-42.551c-4.857,17.798-8.727,31.977-13.7,50.197
	c64.154,15.716,125.376,30.714,187.561,45.948c-1.119,10.51-0.879,17.624-2.717,24.152
	c-39.988,141.983-80.159,283.914-120.401,425.825c-23.924,84.367-44.559,169.902-73.561,252.492
	c-13.848,39.436-40.214,76.182-67.401,108.724c-24.784,29.665-54.899,28.204-87.33,2.462c13.506-12.163,25.884-24.122,39.102-35.068
	c44.252-36.646,38.729-102.228-11.212-129.968c-38.032-21.125-90.871-15.085-116.771,13.349
	c-30.484,33.466-35.172,101.712-9.217,137.251c47.952,65.659,115.816,75.916,188.027,60.538
	c117.626-25.049,202.014-99.944,266.85-196.765c86.977-129.884,140.31-275.428,187.031-423.458
	c18.35-58.141,35.286-116.728,54.31-179.904c63.66,13.566,125.361,26.714,189.541,40.391c4.263-19.875,7.299-34.034,10.632-49.574
	c-64.904-15.961-125.174-30.783-186.856-45.952c15.325-53.153,27.333-101.758,43.391-148.985
	c29.513-86.799,58.785-173.861,93.476-258.637c16.176-39.528,42.66-75.853,86.736-92.635
	C1408.171,331.483,1429.214,338.024,1451.787,373.958z"/>
</svg>
