<?xml version="1.0" encoding="iso-8859-1"?>
<!-- Generator: Adobe Illustrator 19.0.0, SVG Export Plug-In . SVG Version: 6.00 Build 0)  -->
<svg version="1.1" id="Layer_1" xmlns="http://www.w3.org/2000/svg" xmlns:xlink="http://www.w3.org/1999/xlink" x="0px" y="0px"
	 viewBox="0 0 500 500" enable-background="new 0 0 500 500" xml:space="preserve">
<path d="M29.107,233.381c0.277-0.889,0.742-1.765,0.804-2.669c3.479-51.245,21.217-97.044,53.283-137.067
	c36.469-45.52,83.471-74.48,140.367-87.358c0.617-0.14,1.265-0.143,2.452-0.269c0,16.678,0,33.179,0,50.386
	c35.491-8.661,70.232-8.434,104.995,1.713c0,16.926,0,33.608,0,50.346c46.433,20.409,77.34,54.371,89.573,103.66
	c9.982,40.22,3.726,78.627-18.294,113.81c-45.461,72.637-137.744,89.525-204.076,48.452c0-7.545,0-15.3,0-23.759
	c27.286,19.943,57.479,28.331,90.577,25.193c25.084-2.378,47.919-11.348,67.259-27.533c40.344-33.763,55.57-76.872,46.061-128.66
	c-15.829-59.778-55.4-92.533-115.967-101.944c0-6.036,0-12.351,0-19.231c4.438,0.501,8.631,0.849,12.78,1.48
	c4.031,0.613,8.019,1.516,12.31,2.346c0-9.475,0-18.76,0-28.519c-19.048-4.208-38.219-4.826-57.523-2.418
	c-36.379,4.538-66.481,20.325-83.334,33.918c3.341,3.353,6.658,6.653,9.942,9.986c3.215,3.263,6.397,6.56,9.727,9.978
	c22.722-15.74,47.557-24.533,75.329-26.626c0.441,14.032-0.094,27.887,0.313,42.25c11.827-0.357,23.374-0.189,34.734,2.657
	c11.23,2.814,21.784,7.07,32.061,13.492c0,1.56,0,3.332,0,5.104c0,15.095,0.041,30.19-0.035,45.284
	c-0.015,3.018,0.537,5.706,1.96,8.432c13.619,26.067,9.819,55.471-10.149,77.036c-10.117,10.926-22.751,17.488-38.132,20.116
	c-0.079-3.352-0.185-6.527-0.221-9.702c-0.038-3.274-0.008-6.548-0.008-10.28c11.172-2.861,20.432-8.68,27.387-17.885
	c4.192-5.549,6.773-11.47,7.861-17.883c-4.261,0-8.49,0-13.179,0c-3.656,9.926-10.222,17.544-20.511,21.398
	c-7.126,2.669-14.408,2.801-21.709,0.554c-13.529-4.163-24.205-16.948-23.425-33.242c0.798-16.685,12.049-28.936,28.339-31.822
	c15.512-2.748,29.562,5.824,37.253,22.934c4.223,0,8.578,0,12.939,0c-1.121-14.819-14.458-28.622-34.655-35.691
	c0-6.37,0-12.849,0-20.052c4.147,1.104,8.093,1.901,11.851,3.227c3.839,1.354,7.494,3.228,11.518,5.001c0-7.312,0-14.458,0-21.603
	c-46.836-22.78-112.101,7.399-119.827,69.093c6.659,0,13.284,0,20.105,0c2.974-16.294,10.377-29.996,23.026-40.665
	c9.321-7.862,19.959-12.867,32.386-14.795c0,6.769,0,13.252,0,19.681c-25.084,9.797-37.077,25.498-36.249,47.97
	c0.667,18.103,12.374,37.166,35.815,43.609c1.241,4.88,1.605,55.244,0.435,60.153c-38.229-2.043-88.503-33.697-95.794-95.806
	c-3.606-0.05-7.304-0.12-11.003-0.146c-3.582-0.025-7.165-0.006-10.712-0.006c-1.192,15.973,8.333,49.375,29.887,74.442
	c0,8.902,0,17.903,0,26.998c-23.583-17.728-50.706-59.13-50.961-109.41c-0.222-43.712,16.076-80.708,47.119-110.748
	c-6.565-6.557-12.913-12.899-19.302-19.281c-39.284,33.666-65.412,97.046-52.847,160.419
	c12.447,62.777,49.561,105.954,107.616,132.448c0,5.807,0.011,11.86-0.014,17.912c-0.003,0.792-0.193,1.583-0.301,2.408
	c-58.894-19.429-124.573-81.204-130.032-174.405c-3.388-0.978-20.63-1.25-28.688-0.454
	c0.264,119.473,115.174,232.416,252.374,214.528c0-9.676,0-19.399,0-29.15c-33.516,3.659-57.329,0.025-73.091-4.148
	c-0.042-3.174-0.104-6.548-0.127-9.922c-0.022-3.257-0.005-6.515-0.005-10.198c51.064,12.511,98.765,5.659,142.691-22.672
	c33.908-21.869,57.761-52.165,70.97-90.328c14.756-42.631,13.52-85.139-3.963-126.746c-17.485-41.612-47.343-71.833-87.706-91.864
	c0-7.042,0-13.893,0-20.76c13.613,1.909,49.846,26.54,68.583,46.892c30.194,32.797,47.842,71.393,52.008,115.809
	c9.171,97.773-54.463,185.889-149.479,210.032c0,8.124,0,16.434,0,24.744c0,8.354,0,16.709,0,25.32
	c-6.414,1.955-12.915,2.615-19.36,3.229c-8.963,0.853-17.979,1.643-26.969,1.613c-12.282-0.042-24.569-0.753-36.746-2.642
	c-42.836-6.648-81.551-23.002-115.543-49.938c-46.268-36.664-76.006-83.872-88.922-141.561c-2.653-11.851-4.399-23.833-5.033-35.971
	c-0.047-0.898-0.522-1.773-0.799-2.658C29.107,251.757,29.107,242.569,29.107,233.381z M206.48,31.415
	c-53.108,18.127-94.126,50.293-123.637,97.13c-24.312,38.585-34.197,86.199-32.606,108.435c7.813,0.798,25.284,0.531,28.728-0.455
	c2.283-38.931,14.806-74.272,37.896-105.724c23.176-31.57,53.387-54.113,89.619-68.161C206.48,52.115,206.48,42.163,206.48,31.415z
	 M245.851,121.573c-30.241,7.527-54.199,23.359-72.802,47.312c-15.335,19.746-27.745,53.502-25.276,68.433
	c3.509,0,7.086,0.019,10.663-0.005c3.698-0.025,7.395-0.091,10.807-0.136c7.031-46.915,32.84-77.52,76.608-92.752
	C245.851,136.797,245.851,129.635,245.851,121.573z M245.327,306.556c-19.728-10.858-31.513-27.304-35.577-49.548
	c-3.471,0-6.726-0.086-9.974,0.024c-3.341,0.113-6.747-0.532-10.036,0.465c2.094,18.83,10.783,36.716,24.063,50.182
	c8.926,9.051,19.111,16.03,31.524,20.611C245.327,320.702,245.327,313.857,245.327,306.556z M275.944,233.477
	c-7.865-0.048-13.721,5.672-13.803,13.482c-0.078,7.505,6.531,14.265,13.951,14.27c7.467,0.005,13.926-6.61,13.848-14.184
	C289.864,239.617,283.579,233.524,275.944,233.477z"/>
</svg>
