<?xml version="1.0" encoding="iso-8859-1"?>
<!-- Generator: Adobe Illustrator 19.0.0, SVG Export Plug-In . SVG Version: 6.00 Build 0)  -->
<svg version="1.1" id="Layer_1" xmlns="http://www.w3.org/2000/svg" xmlns:xlink="http://www.w3.org/1999/xlink" x="0px" y="0px"
	 viewBox="0 0 2000 2000" style="enable-background:new 0 0 2000 2000;" xml:space="preserve">
<path d="M1000.15,20.633c100.847,41.968,201.488,84.029,302.272,125.745c125.954,52.134,252.067,103.885,377.917,156.267
	c5.852,2.436,11.897,8.543,14.346,14.405c51.596,123.511,102.711,247.223,153.869,370.916
	c42.611,103.026,85.159,206.079,128.177,310.191c-25.426,61.297-51.308,123.468-77.014,185.713
	c-50.182,121.514-100.226,243.086-150.41,364.599c-18.035,43.669-35.995,87.376-54.833,130.7c-2.66,6.117-9.268,12.207-15.51,14.823
	c-99.437,41.668-199.109,82.775-298.734,123.996c-123.764,51.208-247.532,102.403-371.304,153.592
	c-2.952,1.221-5.96,2.308-9.862,3.812c-69.612-28.813-140.011-57.929-210.392-87.088c-88.879-36.822-177.729-73.715-266.619-110.51
	c-68.123-28.198-136.367-56.107-204.299-84.758c-5.817-2.453-11.689-8.689-14.16-14.582
	c-41.82-99.773-83.143-199.754-124.497-299.722c-51.186-123.736-102.382-247.469-153.156-371.374
	c-2.223-5.425-2.217-13.353,0.01-18.777C75.739,867.296,126.01,746.206,176.136,625.057
	c42.447-102.589,84.884-205.182,127.127-307.855c3.33-8.095,8.953-12.491,16.681-15.678
	C442.263,251.065,564.558,200.547,686.8,149.903c101.487-42.046,202.895-84.28,304.354-126.395
	C993.717,22.443,996.457,21.8,1000.15,20.633z M1318.834,492.541c-105.218-44.17-210.496-88.365-316.717-132.956
	c-113.136,47.579-226.756,95.362-339.932,142.958c0,39.872,0,78.14,0,115.751c116.947,117.773,233.527,235.175,350.535,353.009
	c-120.313,132.736-241.046,265.936-362.199,399.599c0,40.409,0,81.788,0,123.287c2.674,1.3,4.743,2.471,6.931,3.344
	c111.019,44.266,222.021,88.576,333.157,132.545c5.563,2.201,13.071,3.57,18.362,1.671c24.499-8.793,48.52-18.912,72.737-28.495
	c69.486-27.496,139-54.921,208.463-82.473c14.709-5.834,29.251-12.092,42.966-17.779c0-42.425,0-82.829,0-124.54
	c-111.031,46.857-220.797,93.18-330.646,139.539c-81.063-33.481-162.154-66.974-243.431-100.543
	c136.409-149.616,271.463-297.746,406.188-445.515c0-6.018,0-11.293,0-17.659c-128.447-126.709-257.34-253.857-387.133-381.893
	c63.597-26.72,126.413-51.78,187.972-79.623c24.973-11.295,45.331-11.923,70.869,0.062c67.407,31.635,136.544,59.584,205.006,88.969
	c25.306,10.862,50.649,21.639,76.874,32.839C1318.834,573.717,1318.834,533.959,1318.834,492.541z"/>
</svg>
