<?xml version="1.0" encoding="iso-8859-1"?>
<!-- Generator: Adobe Illustrator 19.0.0, SVG Export Plug-In . SVG Version: 6.00 Build 0)  -->
<svg version="1.1" id="Layer_1" xmlns="http://www.w3.org/2000/svg" xmlns:xlink="http://www.w3.org/1999/xlink" x="0px" y="0px"
	 viewBox="0 0 2000 2000" style="enable-background:new 0 0 2000 2000;" xml:space="preserve">
<path d="M999.384,1979.998c-11.538-0.012-23.083-0.288-34.61,0.036c-50.677,1.428-100.226-6.358-149.908-15.597
	c-62.567-11.635-122.887-29.662-181.933-53.165c-51.645-20.558-101.951-43.804-148.251-74.389
	c-41.445-27.376-82.689-55.629-120.697-87.465c-34.907-29.238-66.065-63.114-97.647-96.121
	c-51.196-53.507-91.36-114.936-127.648-179.323c-28.596-50.74-50.678-103.924-70.257-158.615
	c-17.132-47.854-28.216-97.104-38.395-146.551c-5.516-26.793-7.127-54.542-8.677-81.963c-2.288-40.452-4.161-81.002-3.963-121.5
	c0.194-39.563,5.479-78.794,10.963-118.09c10.386-74.434,31.181-145.913,58.668-215.28
	c27.095-68.378,62.732-132.572,104.642-193.291C236.356,373.943,288.822,315.904,347.278,264
	c54.615-48.494,114.342-90.534,179.073-125.66c67.214-36.473,137.182-64.967,210.555-85.661
	c38.493-10.857,77.607-18.377,117.258-24.052c48.755-6.978,97.477-12.072,146.786-11.892c36.51,0.133,72.777,1.997,108.827,8.092
	c34.107,5.766,68.637,9.454,102.39,16.776c37,8.026,74.112,16.937,109.732,29.541c39.481,13.97,78.102,30.981,115.714,49.48
	c62.697,30.835,120.409,69.604,175.493,112.85c44.958,35.295,85.527,75.115,123.298,117.219
	c43.232,48.191,81.285,100.929,113.321,157.694c35.793,63.421,65.489,129.31,86.779,199.066
	c13.829,45.309,23.652,91.319,32.046,137.93c12.9,71.625,14.605,143.839,10.813,215.771
	c-4.506,85.467-21.106,169.329-49.021,250.698c-16.695,48.665-36.095,96.125-60.115,141.564
	c-26.869,50.829-56.677,99.973-92.958,144.716c-24.47,30.178-49.345,60.211-76.207,88.23
	c-55.675,58.072-118.559,107.565-186.857,150.121c-77.626,48.368-161.032,84.145-248.669,109.152
	c-42.11,12.016-86.168,17.058-129.088,26.43C1091.075,1981.969,1045.198,1979.621,999.384,1979.998z M1047.034,105.337
	c-284.747-0.134-490.745,81.938-662.461,243.765C205.421,517.938,110.494,729.046,103.548,975.018
	c-7.197,254.859,81.995,476.262,261.312,656.735c161.674,162.717,360.436,252.046,590.734,262.152
	c263.651,11.57,491.732-77.541,677.792-263.289c167.491-167.21,255.659-373.411,260.371-610.498
	c4.984-250.775-81.562-469.167-257.859-647.907C1461.85,195.749,1248.546,107.08,1047.034,105.337z M998.085,1838.02
	c-240.695-2.274-445.876-89.878-610.607-264.667c-158.733-168.425-235.365-371.918-226.954-603.141
	c8.125-223.367,93.705-415.415,254.984-571.742c162.395-157.409,358.191-237.543,583.424-237.214
	c245.071,0.358,453.176,93.449,618.858,274.106c154.047,167.97,227.65,369.033,218.895,596.341
	c-8.782,227.993-98.557,422.747-264.583,579.795C1432.539,1743.515,1231.243,1840.729,998.085,1838.02z M1117.226,749.523
	c39.181-14.788,59.853-42.349,56.031-83.411c-3.248-34.89-25.448-56.116-55.471-65.769c-27.556-3.631-52.092-2.152-71.045,15.634
	c-9.876,9.268-16.762,22.362-22.96,34.749c-7.951,15.892-5.194,32.501,0.339,49.006c9.29,27.712,32.155,40.984,55.483,52.334
	c0,123.14,0,244.599,0,359.012c-17.149,19.273-30.747,34.557-45.502,51.14c-1.041-13.526-2.597-24.793-2.66-36.068
	c-0.305-54.261-0.213-108.525-0.241-162.787c-0.003-4.747-1.207-10.049,0.471-14.141c5.692-13.882-1.01-22.963-10.157-31.924
	c-21.298-20.862-42.352-41.972-62.644-62.127c0-103.822,0-206.123,0-309.541c42.638-15.817,63.241-47.064,55.199-91.177
	c-7.458-40.908-37.792-59.182-84.498-62.342c-9.818,5.132-25.805,11.799-39.873,21.306c-14.905,10.073-23.672,25.395-25.433,43.816
	c-4.2,43.924,14.068,73.917,56.764,88.277c0,108.737,0,216.572,0,325.686c24.453,24.021,49.065,48.197,73.548,72.247
	c0,66.995,0,133.176,0,201.392c-51.348-52.127-101.106-102.64-149.918-152.193c0-63.92,0-126.253,0-188.225
	c42.257-17.996,65.515-49.168,60.007-81.323c-7.545-44.042-36.951-67.574-68.815-70.788c-45.31-4.571-71.958,24.542-81.115,49.373
	c-6.339,17.189-7.248,35.4-0.241,53.237c9.679,24.642,28.391,39.893,52.641,49.886c0,68.423,0,136.218,0,205.872
	c3.189,2.565,7.197,5.227,10.537,8.559c55.261,55.119,110.443,110.318,165.627,165.514c6.578,6.58,12.917,12.422,12.775,23.635
	c-0.896,70.32-1.134,140.649-1.298,210.976c-0.207,88.91-0.186,177.821-0.077,266.731c0.008,6.453,1.527,12.904,2.433,20.058
	c11.881,0,21.797,0,34.087,0c1.152-109.643-2.309-218.865,1.914-329.931c2.991-2.696,7.11-6.22,11.02-9.963
	c64.852-62.077,129.525-124.342,194.686-186.094c9.115-8.638,13.058-17.667,12.438-29.921c-0.681-13.466-0.155-26.993-0.155-39.721
	c44.659-22.855,65.324-57.116,55.544-90.905c-12.969-44.81-45.33-63.499-78.796-61.151c-40.977,2.875-63.481,23.301-73.911,67.578
	c-7.731,32.82,18.116,68.535,59.725,85.183c0,13.127,0,26.573,0,41.742c-59.012,56.49-118.639,113.569-180.511,172.797
	c0-37.511,0-71.891,0-110.577c25.898-25.506,54.363-53.54,83.653-82.386c0-54.628,0-110.249,0-164.276
	c39.515-40.358,77.915-79.577,118.418-120.944c0-5.702,0.005-14.48-0.001-23.258c-0.081-117.421-0.209-234.842-0.151-352.264
	c0.004-8.558,1.358-17.115,1.991-24.563c42.457-16.889,66.205-53.769,55.141-96.316c-8.003-30.775-37.706-55.975-71.451-57.216
	c-36.385-1.338-69.733,25.627-78.775,62.544c-8.247,33.668,11.861,66.603,55.593,90.421c0,128.552,0,257.424,0,379.371
	c-28.921,30.501-54.367,57.338-80.366,84.757C1117.226,857.464,1117.226,804.647,1117.226,749.523z M728.449,1052.282
	c0-146.381,0-293.422,0-442.546c24.538-7.393,36.579-27.88,45.963-52.166c7.892-59.089-27.896-88.286-70.069-96.137
	c-29.134-5.423-73.297,24.053-79.292,55.681c-3.68,19.414-3.75,40.027,6.108,59.159c12.156,23.59,34.328,32.577,57.839,40.975
	c0,130.731,0,261.052,0,391.104c-44.656-44.362-88.689-88.105-133.63-132.75c0-22.492,0-46.828,0-70.795
	c47.933-24.44,65.673-54.016,55.905-95.37c-8.022-33.961-34.572-53.845-67.091-57.08c-36.628-3.644-69.732,17.876-80.742,54.792
	c-4.418,14.814-3.584,29.953,0.889,45.468c8.088,28.051,29.842,41.247,53.983,52.629c0,29.435,0,57.857,0,85.107
	c15.629,17.115,32.437,31.201,47.783,50.525c-37.053,0-70.214,0-104.04,0c-17.993-18.175-36.129-36.472-54.218-54.815
	c-1.398-1.418-2.462-3.166-3.593-4.646c16.272-49.241,7.669-84.133-26.41-105.923c-22.399-14.322-71.865-12.339-94.114,9.703
	c-26.519,26.273-26.991,71.3-14.179,92.958c17.438,29.478,48.361,52.414,108.431,30.343c22.534,23.069,45.662,46.746,68.5,70.126
	c54.417,0,107.24,0,157.143,0c103.26,105.175,204.584,208.378,304.626,310.275c0,31.501,0,60.446,0,92.543
	c-76.917-74.829-151.864-147.741-226.391-220.245c18.784-43.458,10.34-82.754-19.295-104.196
	c-30.715-22.223-77.471-17.943-99.661,7.156c-29.387,33.238-33.255,64.52-6.054,103.596c19.555,28.093,59.683,35.607,97.495,17.986
	c32.902,32.822,66.049,65.888,99.196,98.954c-0.709,1.337-1.418,2.674-2.128,4.01c-61.534,0-123.068,0-187.217,0
	c-53.001-51.982-107.343-105.28-160.714-157.625c15.86-63.994,8.087-91.95-29.968-112.698
	c-33.112-18.052-67.537-11.475-96.045,18.35c-20.552,21.501-21.974,60.555-3.976,91.733c9.416,16.312,24.83,24.757,41.182,30.391
	c19.564,6.74,39.455,2.596,58.306-5.926c60.579,58.943,120.524,117.271,179.683,174.833c83.782,0,166.14,0,244.997,0
	c38.334,38.235,74.289,74.096,110.828,110.539c0,21.922,0,44.939,0,68.46c-50.985,49.146-101.947,98.27-153.643,148.102
	c9.057,10.175,16.416,18.442,24.53,27.557c43.892-42.228,85.062-81.836,129.641-124.724c0,21.239,0,37.275,0,53.31
	c0,15.611-0.424,31.237,0.118,46.829c0.554,15.905-2.669,32.185,2.478,47.9c11.985,0,22.441,0,33.93,0c0-145.091,0-288.82,0-431.322
	C873.365,1200.571,802.186,1127.735,728.449,1052.282z M1641.808,811.709c-45.804,45.811-87.861,87.873-129.267,129.285
	c0-69.616,0-141.262,0-212.811c46.423-28.469,65.612-61.119,54.971-96.344c-10.567-34.981-35.725-58.901-81.818-57.105
	c-33.471,1.304-59.955,26.581-69.895,68.234c-6.994,29.308,14.709,60.751,59.331,84.759c0,6.008,0,12.729,0,19.451
	c0,54.981,0,109.963,0,164.944c0,46.836,0.28,93.675-0.285,140.505c-0.091,7.571-1.611,17.397-6.428,22.261
	c-26.64,26.898-54.505,52.582-81.531,78.284c0-78.948,0-158.098,0-236.665c49.203-20.323,59.919-51.33,55.223-88.36
	c-3.75-29.575-27.588-56.275-58.335-61.568c-42.554-7.326-69.692,8.674-91.54,52.2c-0.907,20.723-3.894,41.667,7.806,60.831
	c11.318,18.538,28.038,30.292,48.203,37.422c0,92.74,0,184.26,0,276.676c-86.7,86.383-173.575,172.94-258.799,257.851
	c0,86.403,0,170.303,0,253.847c11.702,0,22.112,0,34.803,0c0-47.222,0-92.828,0-141.949c23.118,21.669,43.266,40.48,63.33,59.38
	c20.416,19.231,40.75,38.55,60.271,57.026c10.43-8.775,18.441-15.516,28.455-23.941c-51.864-48.904-101.401-95.614-150.995-142.377
	c0-15.093,0-29.966,0-41.904c45.673-45.83,89.66-89.967,134.777-135.239c53.953,0,109.577,0,168.66,0
	c55.596-55.502,112.622-112.431,170.269-169.98c37.189,11.409,71.762-3.592,90.088-34.772c18.197-30.96,8.526-77.16-17.526-96.879
	c-33.877-25.642-81.866-20.23-104.865,4.403c-23.054,24.692-34.076,64.372-3.632,104.16c-0.747,1.132-1.337,2.417-2.264,3.374
	c-46.527,47.983-92.927,96.091-139.872,143.662c-4.745,4.808-12.726,8.834-19.315,9.005c-34.294,0.891-68.624,0.415-107.417,0.415
	c74.584-74.746,146.222-146.541,217.942-218.418c0-27.769,0-54.848,0-82.737c55.251-55.119,110.476-110.213,167.205-166.806
	c0-11.125,0-23.835,0-35.805c47.259-23.159,64.554-52.817,56.207-94.639c-5.494-27.527-36.512-54.92-63.226-57.423
	c-46.849-4.389-75.695,21.903-84.793,52.939c-4.758,16.231-4.26,32.948,1.19,49.5c8.747,26.565,30.289,39.553,53.069,50.438
	C1641.808,804.203,1641.808,810.267,1641.808,811.709z M1235.611,1075.538c20.587-3.34,33.944-17.861,35.642-39.736
	c1.365-17.589-17.249-38.686-34.772-41.308c-21.342-3.193-37.454,10.766-46.384,40.187
	C1198.005,1063.722,1214.186,1079.014,1235.611,1075.538z M866.77,718.663c-8.748-25.296-30.526-33.787-62.259-24.272
	c-25.812,30.539-24.878,44.748,4.5,70.449c5.948,1.589,11.74,3.137,18.609,4.973C859.514,758.86,874.012,739.602,866.77,718.663z
	 M1137.016,678.188c2.226-17.979-12.273-38.67-29.483-42.075c-28.564-5.652-43.472,6.07-51.848,40.998
	c4.199,14.946,10.243,28.765,28.959,35.904C1117.786,713.841,1133.908,703.288,1137.016,678.188z M1219.204,411.877
	c19.25-0.548,39.618-21.154,40.005-40.472c0.381-19.033-20.683-40.706-39.742-40.89c-21.181-0.205-41.525,19.54-41.644,40.419
	C1177.708,391.073,1199.307,412.443,1219.204,411.877z M920.949,434.009c-6.211,6.692-13.449,14.491-19.627,21.147
	c0,12.156,0,22.235,0,31.639c24.322,35.308,61.788,27.437,76.417-2.077c0.008-9.398,0.008-18.793,0.008-26.354
	C965.729,432.998,947.208,426.059,920.949,434.009z M627.309,1156.932c15.768-4.118,33.023-19.827,28.872-42.216
	c-4.356-23.497-18.335-40.088-53.824-33.83c-5.982,4.454-12.371,9.212-19.007,14.153c-2.876,7.131-5.85,14.503-8.872,21.995
	C585.01,1151.291,601.549,1163.66,627.309,1156.932z M701.568,578.918c26.41-1.209,38.49-20.424,35.044-57.394
	c-5.784-6.033-12.337-12.867-16.986-17.715c-10.195-2.508-17.237-4.24-21.17-5.208c-19.449,2.639-30.635,12.049-37.482,26.908
	C659.866,562.664,673.207,580.216,701.568,578.918z M537.746,688.902c-23.032,0.048-40.005,16.302-40.095,38.397
	c-0.091,22.522,16.274,41.55,36.956,40.996c28.035-0.751,41.246-16.869,40.992-39.005
	C575.745,706.154,559.532,688.857,537.746,688.902z M298.364,1096.41c4.562,18.597,27.07,31.979,47.305,28.124
	c21.851-4.162,31.703-23.444,28.188-59.59c-10.168-6.906-22.313-15.153-33.19-22.54
	C305.782,1053.843,292.489,1072.459,298.364,1096.41z M337.502,880.315c26.758-0.224,38.955-17.829,37.34-53.893
	c-17.525-30.822-54.444-34.577-76.324,0.578C297.374,863.358,310.156,880.544,337.502,880.315z M1640.729,1059.188
	c-16.249-8.132-43.168-4.956-53.105,13.832c-12.671,23.957-6.89,41.353,21.493,59.46c8.706,0,17.49,0,25.716,0
	c6.043-4.099,11.541-7.829,17.674-11.989C1666.325,1091.422,1661.932,1069.799,1640.729,1059.188z M1502.254,688.658
	c15.574-3.074,31.87-20.98,30.174-39.848c-1.651-18.368-15.539-35.416-33.048-37.269c-26.263-2.779-39.809,9.018-47.544,41.409
	C1461.632,684.323,1475.023,694.033,1502.254,688.658z M1689.45,693.464c-11.799-12.868-28.593-16.751-43.878-10.146
	c-19.069,8.24-24.685,20.446-23.143,50.298c2.682,4.626,4.632,9.966,8.248,13.685c4.072,4.189,9.646,6.918,14.57,10.275
	c25.847,1.735,25.847,1.735,44.852-9.414C1702.83,724.734,1702.461,707.654,1689.45,693.464z M1405.684,851.466
	c4.312-19.36-6.928-40.46-25.184-47.276c-15.848-5.917-39.116,1.845-47.986,16.008c-11.26,17.979-4.391,39.642,19.462,59.35
	C1382.723,881.217,1401.261,871.322,1405.684,851.466z"/>
</svg>
