<?xml version="1.0" encoding="iso-8859-1"?>
<!-- Generator: Adobe Illustrator 19.0.0, SVG Export Plug-In . SVG Version: 6.00 Build 0)  -->
<svg version="1.1" id="Layer_1" xmlns="http://www.w3.org/2000/svg" xmlns:xlink="http://www.w3.org/1999/xlink" x="0px" y="0px"
	 viewBox="0 0 500 500" style="enable-background:new 0 0 500 500;" xml:space="preserve">
<path d="M329.289,86.601c-26.696-15.125-49.942-28.766-73.76-41.323c-3.909-2.061-11.183-0.92-15.452,1.405
	c-26.259,14.298-52.379,28.91-77.847,44.554c-5.053,3.104-9.821,11.043-10.03,16.919c-1.027,28.755-0.921,57.581-0.072,86.348
	c0.163,5.524,4.055,13.18,8.606,15.96c25.991,15.879,52.436,31.086,79.405,45.23c5.037,2.642,14.25,1.459,19.665-1.446
	c29.825-15.999,59.216-32.83,88.436-49.923c10.467-6.122,19.586-6.031,30.01,0.13c33.026,19.52,66.412,38.431,99.63,57.627
	c10.39,6.004,20.17,13.358,12.038,26.672c-7.798,12.766-18.895,8.882-29.543,2.682c-28.281-16.465-56.857-32.436-84.865-49.348
	c-8.403-5.074-14.735-4.94-23.052,0.002c-25.214,14.983-51.222,28.644-76.207,43.983c-5.015,3.079-9.544,11.189-9.751,17.138
	c-1.001,28.757-0.921,57.583-0.039,86.348c0.17,5.539,4.27,13.172,8.901,15.992c25.526,15.545,51.486,30.462,78.021,44.197
	c5.533,2.864,15.383,2.208,21.071-0.857c29.294-15.782,57.662-33.279,86.89-49.192c6.233-3.393,15.539-5.346,21.944-3.303
	c11.715,3.736,13.378,20.486,2.241,27.274c-38.041,23.185-76.656,45.47-115.707,66.903c-4.767,2.616-14.396-0.391-20.268-3.57
	c-29.269-15.847-58.274-32.221-86.846-49.29c-9.874-5.899-17.412-6.508-27.647-0.312c-28.466,17.233-57.889,32.879-86.593,49.733
	c-9.845,5.781-18.19,6.21-28.235,0.243C86.763,467.5,52.983,448.139,19.08,429.01c-10.524-5.938-14.757-13.638-14.532-25.967
	c0.699-38.377,0.72-76.783-0.011-115.159c-0.236-12.425,4.217-19.885,14.737-25.771c28.553-15.976,56.534-32.983,85.203-48.743
	c10.12-5.563,14.451-11.989,14.135-23.9c-0.839-31.592,0.086-63.228-0.453-94.834c-0.218-12.782,4.397-21.026,15.671-27.246
	c34.582-19.08,68.472-39.436,103.376-57.888c6.516-3.445,18.031-3.288,24.596,0.193c34.882,18.495,69.049,38.361,103.206,58.196
	c20.048,11.642,20.397,24.812,0.909,36.479c-33.886,20.287-68.138,39.962-102.203,59.95c-10.309,6.049-20.872,8.632-27.87-3.557
	c-7.086-12.343,1.184-20.059,11.165-25.944C273.211,119.37,299.492,104.049,329.289,86.601z M232.169,381.482
	c0-30.73,0.355-57.58-0.405-84.399c-0.107-3.773-4.949-8.616-8.819-10.885c-26.733-15.673-53.614-31.121-80.921-45.758
	c-4.358-2.336-12.184-2.236-16.552,0.143c-26.22,14.282-52.142,29.165-77.536,44.862c-4.617,2.854-8.814,10.323-8.977,15.788
	c-0.877,29.291-0.956,58.641,0.035,87.925c0.201,5.93,4.748,13.98,9.755,17.096c24.86,15.47,50.446,29.794,76.043,44.041
	c3.94,2.193,10.476,4.135,13.766,2.374c24.121-12.909,47.72-26.793,73.741-41.658c-7.985-4.843-13.081-8.097-18.328-11.087
	c-21.541-12.272-43.163-24.402-64.681-36.714c-9.561-5.471-14.295-13.604-8.695-23.969c5.599-10.364,15.048-11.009,24.749-5.757
	c14.866,8.048,29.46,16.596,44.245,24.796C202.662,365.531,215.839,372.595,232.169,381.482z"/>
</svg>
