<?xml version="1.0" encoding="utf-8"?>
<!-- Generator: Adobe Illustrator 25.1.0, SVG Export Plug-In . SVG Version: 6.00 Build 0)  -->
<svg version="1.1" id="Layer_1" xmlns="http://www.w3.org/2000/svg" xmlns:xlink="http://www.w3.org/1999/xlink" x="0px" y="0px"
	 viewBox="0 0 500 500" style="enable-background:new 0 0 500 500;" xml:space="preserve">
<path d="M250,496C113.2,496.1,2.9,386.2,3,249.4C3,116.5,107.9,2.4,249.9,2.2C391.1,2.1,497.3,116,497.1,250.4
	C496.9,386.8,383.1,498,250,496z M400.1,100.3C353.9,56.8,299.9,38,238.1,41.5C175.8,45,125.3,72.2,86.5,120.3
	C20.1,202.5,26,322,99.1,399.7c71.8,76.3,196.1,86.2,279.6,23.3c42.7-32.1,70.8-74.3,80.7-126.7c12.5-66.8-1.3-128.2-44.6-180.5
	c2.7-12.8,5.1-24,7.4-35.2c-1-0.4-2-0.8-3-1.2C413.3,85.9,407.4,92.3,400.1,100.3z"/>
<path d="M388.8,110.4c-22.2,21.9-44.8,39.3-72,49.6c-35.5,13.5-71.9,24.5-107.1,38.6c-69.8,28-110.3,102.1-97.3,175.7
	c1.2,6.5,3.6,12.8,4.1,19.6C68.8,346.3,46.4,289,57.5,222C70.2,144.3,122.8,83.2,202,62.3C271.6,43.9,333.3,62,388.8,110.4z"/>
<path d="M409.4,134.7c12.7,15.9,22.7,35.1,29.1,54.4c36.2,108.6-23.8,222.2-134.1,253.5c-55,15.6-107.1,6.8-155.9-22.5
	c-15.8-9.5-19.4-26.6-12.8-51.4c19.7-73.8,68.7-116.1,141.2-135.4c24.7-6.6,48.5-17.3,71.6-28.6c25.2-12.4,42.3-33.8,54.3-59.1
	c1.4-2.9,3-5.7,4.6-8.5C407.7,136.6,408.3,135.9,409.4,134.7z M379.7,191.6c-4.4,3.2-7.1,5.5-10,7.2c-12.7,7.3-24.8,15.9-38.3,21.2
	c-30.9,12.3-62.6,22.5-93.6,34.7c-21.8,8.6-41.9,20.4-55.5,40.5c-2.5,3.8-4,8.3-6.4,13.2c3.3,0.5,4.5,1.1,5.3,0.8
	c38.2-12.9,77.6-16.2,117.6-15.3c7,0.2,14.2-1.1,21.1-2.7C360.6,281.5,379.2,231.2,379.7,191.6z M331.6,300.6c-0.7-1-1.4-2-2.1-3
	c-14.9,0.7-29.9,0.8-44.7,2.3c-28.4,3-56.9,5.4-84.9,10.9c-13.1,2.6-25.6,10.6-37.1,18.2c-9.8,6.5-15.4,17-15.9,29.7
	c2.4,0.3,3.5,0.6,4.5,0.4c1.4-0.2,2.9-0.5,4.1-1.2c24.4-12.7,50.2-10.5,75.6-5.8c38.1,7,67.3-6.3,90.5-35.7
	C325.5,311.5,328.3,305.9,331.6,300.6z M281.2,357.9c-25.3,12.8-50,9.2-75,5c-14.8-2.5-30-3.4-44.4,3.2c-14.1,6.4-24,18.9-23.1,30.8
	c19.1-8.4,37.8-3.3,56.8,0.6c11.8,2.4,24,3.9,36,3.7C253.3,400.7,276.4,380.6,281.2,357.9z"/>
</svg>
