<?xml version="1.0" encoding="utf-8"?>
<!-- Generator: Adobe Illustrator 25.1.0, SVG Export Plug-In . SVG Version: 6.00 Build 0)  -->
<svg version="1.1" id="Layer_1" xmlns="http://www.w3.org/2000/svg" xmlns:xlink="http://www.w3.org/1999/xlink" x="0px" y="0px"
	 viewBox="0 0 500 500" style="enable-background:new 0 0 500 500;" xml:space="preserve">
<path d="M250.8,2.1C113.9,2.1,2.9,113.1,2.9,250s111,247.9,247.9,247.9s247.9-111,247.9-247.9S387.7,2.1,250.8,2.1z M125.6,163.8
	h143l-20.2,21.9c-7.7,8.5-18.7,13.3-30.2,13.3h-92.6V163.8z M125.6,232.5h57v35.2h-57V232.5z M125.6,336.4v-35.2h92.6
	c11.5,0,22.5,4.8,30.2,13.3l20.2,21.9H125.6z M373.7,335.9h-35.6c-8.4,0-16.4-3.3-22.3-9.2l-77.1-77.1l75.9-76
	c5.9-5.9,14-9.3,22.4-9.3h36.7l-85.8,85.8L373.7,335.9z"/>
</svg>
