<?xml version="1.0" encoding="iso-8859-1"?>
<!-- Generator: Adobe Illustrator 19.0.0, SVG Export Plug-In . SVG Version: 6.00 Build 0)  -->
<svg version="1.1" id="Layer_1" xmlns="http://www.w3.org/2000/svg" xmlns:xlink="http://www.w3.org/1999/xlink" x="0px" y="0px"
	 viewBox="0 0 500 500" enable-background="new 0 0 500 500" xml:space="preserve">
<path d="M433.63,56.519c0,35.484,0.304,68.845-0.156,102.196c-0.174,12.611-9.864,14.823-20.097,14.902
	c-47.054,0.363-94.109,0.716-141.164,0.894c-13.51,0.051-27.022-0.606-40.534-0.654c-2.241-0.008-4.487,1.45-8.001,2.672
	c0,10.31-1.354,20.801,0.638,30.613c0.849,4.18,8.695,9.878,13.359,9.876c35.16-0.012,70.316-1.792,105.479-1.966
	c24.711-0.122,49.437,1.271,74.141,2.341c4.282,0.185,8.488,2.134,14.568,3.76c0,37.072,0,73.478,0,111.807
	c-74.988,0-149.887,0-226.31,0c0,15.168,0,28.465,0,43.151c4.725,0.377,9.054,0.896,13.396,1.043
	c37.093,1.257,74.186,3.358,111.282,3.397c36.358,0.038,72.714-2.154,109.078-3.132c12.38-0.333,24.781-0.026,37.17,0.121
	c14.635,0.175,18.945,5.694,18.376,19.903c-0.986,24.611-1.672,49.273-1.218,73.891c0.402,21.8-1.866,25.584-23.892,25.399
	c-31.313-0.262-62.616-1.875-93.928-2.035c-23.519-0.12-47.042,1.587-70.567,1.701c-73.415,0.354-146.831,0.536-220.246,0.345
	c-22.186-0.058-44.369-1.516-66.552-2.386C5.599,493.854,7.724,483.973,7.69,476.16c-0.105-24.279,0.487-48.562,0.394-72.842
	c-0.189-49.83-1.155-99.662-0.857-149.488c0.32-53.466,2.205-106.924,2.427-160.389C9.75,70.49,7.169,47.538,6.186,24.57
	C5.473,7.891,9.375,4.304,25.965,4.308c55.298,0.016,110.599,0.225,165.892-0.306c13.757-0.132,19.305,4.408,18.96,18.631
	c-0.907,37.339-0.136,30.428,31.243,31.356c36.619,1.083,73.212,3.499,109.831,3.881c20.344,0.212,40.705-2.835,61.087-3.789
	C419.34,53.784,425.797,55.53,433.63,56.519z"/>
</svg>
