<?xml version="1.0" encoding="iso-8859-1"?>
<!-- Generator: Adobe Illustrator 19.0.0, SVG Export Plug-In . SVG Version: 6.00 Build 0)  -->
<svg version="1.1" id="Layer_1" xmlns="http://www.w3.org/2000/svg" xmlns:xlink="http://www.w3.org/1999/xlink" x="0px" y="0px"
	 viewBox="0 0 500 500" enable-background="new 0 0 500 500" xml:space="preserve">
<path d="M4.96,248.04c6.211-9.749,12.74-19.312,18.574-29.281c18.602-31.788,36.932-63.734,55.413-95.593
	c1.603-2.763,3.536-5.335,4.294-6.469c45.354,44.513,90.693,89.01,136.542,134.009c-44.992,44.507-89.64,88.674-135.168,133.712
	c-9.97-16.859-20.17-34.16-30.421-51.431c-14.644-24.671-29.287-49.344-44.061-73.937c-1.212-2.017-3.425-3.434-5.172-5.13
	C4.96,251.96,4.96,250,4.96,248.04z M280.455,250.816c44.762,44.621,89.248,88.966,134.516,134.091
	c26.634-44.941,53.02-89.466,79.714-134.508c-25.981-44.804-52.144-89.921-77.471-133.598
	C371.408,161.688,326.015,206.171,280.455,250.816z M371.23,459.143c-41.637-40.475-82.006-79.716-123.099-119.662
	c-38.893,38.112-79.614,78.014-122.115,119.662C208.915,459.143,289.215,459.143,371.23,459.143z M367.226,42.634
	c-77.733,0-156.931,0-237.674,0c41.347,39.981,81.502,78.811,123.522,119.444C289.469,123.997,328.513,83.142,367.226,42.634z"/>
</svg>
