<?xml version="1.0" encoding="iso-8859-1"?>
<!-- Generator: Adobe Illustrator 19.0.0, SVG Export Plug-In . SVG Version: 6.00 Build 0)  -->
<svg version="1.1" id="Layer_1" xmlns="http://www.w3.org/2000/svg" xmlns:xlink="http://www.w3.org/1999/xlink" x="0px" y="0px"
	 viewBox="0 0 2000 2000" style="enable-background:new 0 0 2000 2000;" xml:space="preserve">
<path d="M1195.149,497.767c-191.869-56.332-371.744-36.604-542.721,55.009C518.793,624.38,418.539,729.353,350.66,865.439
	c-133.686,268.017-75.11,581.259,86.376,768.874c369.073,0,738.91,0,1111.487,0c20.015-15.376,33.532-39.268,47.751-61.806
	c43.369-68.744,76.293-142.055,94.466-221.882c10.473-46.005,16.94-92.046,18.224-139.255c2.277-83.764-8.027-165.456-34.788-244.91
	c-4.659-13.833-4.124-27.229-0.913-44.837c24.321,67.569,41.089,132.501,47.972,200.491c4.577,45.22,5.698,90.332,2.87,135.134
	c-4.976,78.842-21.93,155.601-51.067,229.48c-42.199,107-105.548,199.729-189.469,277.83
	c-98.437,91.609-213.469,153.092-344.553,184.857c-82.742,20.051-166.72,23.061-250.545,16.511
	c-77.57-6.061-152.505-27.061-224.054-58.71c-94.575-41.834-178.544-98.881-249.609-174.256
	c-90.901-96.414-152.742-208.619-186.295-337.17c-20.967-80.33-27.712-161.707-22.079-243.668
	c5.615-81.689,25.159-160.847,57.202-236.736c33.406-79.116,78.941-150.076,135.757-214.469
	c66.589-75.469,145.612-134.246,235.537-178.088c64.515-31.453,132.48-52.63,203.77-64.865
	c58.748-10.083,117.461-12.621,176.378-10.115c53.665,2.283,106.666,11.995,158.783,25.459
	C1185.472,476.306,1187.883,479.456,1195.149,497.767z M461.333,1661.996c135.476,160.562,376.51,268.377,636.455,233.135
	c152.063-20.616,383.079-146,422.347-233.135C1168.302,1661.996,817.028,1661.996,461.333,1661.996z M1536.059,825.331
	c-3.836-7.186-9.747-18.261-14.917-27.946c-28.309-3.87-56.126,5.649-78.107-17.985c5.473-2.977,10.511-5.716,18.251-9.926
	c1.795-11.382,3.902-24.737,5.708-36.187c-11.832-11.242-23.484-7.678-34.161-8.126c-27.003-1.133-54.318,0.643-80.558-7.486
	c-14.053-4.354-29.773-7.086-35.801-23.809c8.591-32.215,28.69-46.465,68.323-46.953c8.804,10.162,18.535,21.395,27.28,31.49
	c37.08,15.813,72.194,6.355,106.994-2.177c73.543-18.033,137.774-53.253,190.468-107.956
	c45.198-46.921,72.157-102.627,77.358-168.254c6.882-86.828-8.719-169.145-53.213-244.238
	c-35.527-59.958-90.317-93.41-158.436-107.969c-46.88-10.02-91.303-4.308-134.734,12.625
	c-75.175,29.31-121.47,94.433-125.945,174.471c-2.569,45.937,9.765,89.069,21.616,132.533c4.439,16.28,7.733,33.067,9.497,49.838
	c3.179,30.221-10.369,52.38-41.62,60.344c-9.307,2.372-18.674,4.505-33.39,8.038c5.425-6.513,6.614-8.917,8.548-10.105
	c12.621-7.748,26.975-12.802,33.476-28.416c8.392-20.156,10.141-41.016,7.048-61.951c-5.098-34.511-10.6-69.055-18.138-103.096
	c-23.741-107.214,38.275-210.948,143.421-245.285c137.002-44.741,278.028,22.343,329.184,153.995
	c19.002,48.903,28.105,99.287,31.742,151.716c2.306,33.239,0.435,65.917-2.37,98.446c-5.706,66.157-27.292,127.474-73.074,176.809
	c-19.438,20.947-45.023,36.287-68.271,53.56c-10.362,7.699-21.853,13.879-33.431,21.124c0.808,4.452,1.467,8.082,2.38,13.114
	c41.192-9.153,77.205-28.42,118.133-44.688c-0.924,9.364-0.368,15.229-2.176,20.241c-15.445,42.81-48.912,67.898-88.648,84.499
	c-27.437,11.463-56.774,18.377-88.7,28.403c-7.94,9.597-9.01,23.608-4.052,38.998c9.794,30.399-4.421,62.402-32.76,75.336
	c-4.539,2.072-8.65,5.146-13.27,6.963c-31.688,12.461-50.885,36.877-67.191,65.669c-30.328,53.553-51.583,110.538-62.65,170.569
	c-7.596,41.198-11.546,83.561-7.684,125.735c2.399,26.2,13.346,50.189,26.489,72.635c17.18,29.342,35.999,57.72,53.844,86.678
	c22.497,36.507,47.568,71.725,59.955,113.506c2.69,9.072,3.182,18.795,4.928,29.729c-19.03,0-34.87,0-52.544,0
	c-4.605-15.079-8.872-31.248-14.464-46.944c-15.901-44.632-43.99-82.841-66.047-124.235c-17.361-32.582-34.226-65.612-48.388-99.659
	c-13.098-31.489-7.948-65.708-4.847-98.34c3.953-41.593,11.416-82.845,22.111-123.571c21.581-82.177,61.208-151.833,131.886-201.526
	C1515.053,871.548,1534.571,857.248,1536.059,825.331z M1524.522,745.638c69.527,9.865,155.413-16.191,204.496-63.409
	c-61.177,24.384-123.776,42.451-191.223,44.123C1533.541,732.533,1529.386,738.57,1524.522,745.638z M1404.8,704.187
	c0.379-1.823,0.758-3.646,1.138-5.469c-5.239-3.435-10.479-6.87-16.855-11.051c-3.103,5.846-5.278,9.944-8.768,16.52
	C1390.263,704.187,1397.531,704.187,1404.8,704.187z M1354.694,680.525c-4.151,6.918-6.537,10.895-9.629,16.048
	c5.867,3.59,10.333,6.323,20.333,12.443C1360.696,696.499,1358.258,690.009,1354.694,680.525z M1099.911,684.327
	c-52.054,35.601-103.993,71.371-155.928,107.147c-1.642,1.131-2.91,2.792-4.51,3.997c-32.112,24.172-35.542,56.564-24.718,91.806
	c6.133,19.969,14.446,39.379,23.09,58.445c25.405,56.036,59.902,106.475,99.37,153.286c26.575,31.519,56.901,59.797,92.801,80.671
	c42.356,24.628,84.827,37.697,140.35-8.716c51.044-42.669,76.832-96.028,81.474-161.043c0.414-5.791-1.133-11.722-1.77-17.587
	c-17.204,63.524-60.205,101.481-116.86,126.512c-17.313,7.649-34.702,11.034-55.045,5.915c-25.898-6.517-49.346-17.039-70.38-32.035
	c-72.264-51.518-120.876-121.379-154.605-202.729c-11.38-27.447-3.284-48.926,15.919-67.817
	c17.872-17.581,35.832-35.443,55.827-50.411c34.679-25.962,71.715-47.179,117.268-48.524c24.851-0.734,49.605-4.749,75.349-7.381
	c-9.257-13.7-24.108-6.958-35.396-11.101c-12.449-4.568-28.452-3.124-36.445-18.646c1.573-3.763,2.842-7.475,4.631-10.917
	c2.761-5.313,5.515-10.69,8.9-15.609c33.232-48.284,79.472-77.279,135.414-92.905c35.52-9.921,69.042-8.42,100.717,11.345
	c10.058,6.276,19.403,13.694,28.094,19.89c17.917-4.05,5.309-19.504,12.018-27.333c57.655-14.691,111.526-36.414,159.38-72.526
	c75.338-56.853,104.943-131.285,87.514-223.396c-7.266-38.399-27.942-69.936-60.028-93.921
	c-34.948-26.124-73.947-33.081-116.348-30.512c-28.449,1.724-52.12,12.89-73.085,30.937c-37.658,32.416-43.692,76.033-37.148,120.98
	c5.553,38.141,5.296,76.022,4.597,114.052c-0.516,28.091-14.24,49.409-39.507,62.795c-6.881,3.645-13.432,7.914-20.135,11.897
	c11.428,4.107,22.156,4.374,32.868,4.061c45.831-1.339,80.375-41.624,73.805-87.186c-4.401-30.523-11.256-60.694-15.611-91.222
	c-4.615-32.359-1.544-63.862,15.716-92.826c10.157-17.045,23.77-31.397,42.987-35.339c25.802-5.292,51.808-3.516,75.544,10.963
	c58.885,35.92,75.716,94.326,58.918,165.14c-12.089,50.964-45.086,88.557-86.905,118.583
	c-32.84,23.579-70.122,37.332-108.639,48.535c-13.552,3.942-26.302,10.642-43.274,17.683c-30.622-11.12-66.26-10.114-101.356,0.93
	c-43.465,13.679-82.847,35.937-116.149,66.745c-21.736,20.109-44.12,42.048-40.896,76.552c0.138,1.482-1.525,3.132-2.095,4.22
	c-4.385-5.03-8.896-10.205-14.259-16.357C1105.557,682.808,1102.188,682.769,1099.911,684.327z M512.087,1173.764
	c-5.999,38.371-14.756,76.077-26.537,113.247c-21.634,68.257-52.845,134.048-53.834,207.853c-0.231,17.228,1.626,64.759,7.78,86.138
	c22.759,0,45.842,0.074,68.924-0.021c22.821-0.094,45.641-0.357,68.99-0.551c0-9.18,0-15.644,0-23.337
	c-15.548,0-29.538,0.432-43.493-0.078c-49.414-1.803-66.298-36.138-61.122-74.194c4.949-36.385,13.071-72.54,22.576-108.053
	c12.381-46.259,28.315-91.478,54.064-132.425c6.188-9.841,12.57-20.038,25.845-24.043c35.067,57.251,68.699,114.046,91.671,175.923
	c22.727,61.216,41.805,123.786,62.362,185.398c11.271,0,23.031,0,34.817,0c-8.576-28.608-17.909-55.645-24.634-83.317
	c-6.79-27.936-10.056-56.719-16.558-84.738c-8.983-38.711-19.034-77.049-37.158-113.018
	c-47.612-94.489-124.488-162.822-203.516-231.412c-4.012,3.517-7.633,6.749-11.32,9.904c-3.205,2.743-6.485,5.4-14.841,12.336
	c3.313-11.165,4.066-15.949,6.073-20.131c36.643-76.376,91.615-135.38,166.006-176.454c72.216-39.873,149.337-66.325,229.533-83.729
	c28.294-6.14,53.302-16.664,73.603-36.839c14.108-14.02,34.259-21.719,45.653-42.584c-13.519,0.717-24.658,0.077-35.298,2.083
	c-47.962,9.044-95.823,18.642-143.645,28.413c-59.378,12.132-114.917,34.472-166.006,66.794
	c-72.925,46.137-127.167,109.872-166.286,186.126c-41.19,80.29-68.975,165.704-90.186,253.194
	c-4.609,19.012-4.849,39.083-7.101,58.666c18.634-84.507,56.917-156.779,122.654-213.747
	C508.844,1127.661,516.152,1147.761,512.087,1173.764z M819.852,1045.788c13.008,18.21,20.623,38.557,25.597,60.264
	c11.864,51.78,5.504,104.022,3.774,156.011c-1.428,42.892-6.803,85.641-9.087,128.524c-0.787,14.778,3.318,29.747,3.738,44.669
	c1.428,50.629,13.889,98.435,34.443,145.06c21.266,0.297,41.815,2.685,62.846-1.513c-16.794-32.639-33.871-62.951-48.224-94.502
	c-15.331-33.702-13.601-69.892-11.978-105.202c6.333-3.115,10.572-6.302,15.288-7.355c77.286-17.261,149.718-48.284,222.637-77.969
	c4.075-1.659,8.81-1.699,16.159-3.016c-6.813,101.506-37.342,194.491-66.604,289.289c34.664,0,66.611,0,100.097,0
	c2.557-4.121,5.436-8.759,10.561-17.018c-23.354,0-43.088,0-59.589,0c-10.647-8.973-9.691-16.141-6.362-24.375
	c9.313-23.034,19.034-45.973,26.855-69.526c15.946-48.021,30.753-96.419,46.383-145.783c25.013,47.888,51.167,94.949,74.346,143.432
	c14.595,30.527,26.11,62.793,25.648,97.798c-0.062,4.671,2.337,9.373,3.813,14.87c22.399,0,43.864,0,65.821,0
	c-24.512-75.79-133.773-346.572-147.007-364.374c-10.664,5.433-21.826,10.182-32.034,16.477
	c-49.71,30.656-104.611,49.898-158.009,72.427c-23.371,9.861-47.749,14.488-73.292,12.443c-11.881-0.951-21.416-4.887-27.636-18.043
	c0-10.224-0.177-22.251,0.031-34.271c0.825-47.599-8.56-93.342-24.699-137.898c-14.393-39.736-37.561-72.011-80.173-93.148
	C816.537,1039.522,817.81,1042.929,819.852,1045.788z"/>
</svg>
