<?xml version="1.0" encoding="iso-8859-1"?>
<!-- Generator: Adobe Illustrator 19.0.0, SVG Export Plug-In . SVG Version: 6.00 Build 0)  -->
<svg version="1.1" id="Layer_1" xmlns="http://www.w3.org/2000/svg" xmlns:xlink="http://www.w3.org/1999/xlink" x="0px" y="0px"
	 viewBox="0 0 500 500" style="enable-background:new 0 0 500 500;" xml:space="preserve">
<path id="XMLID_4_" d="M490.724,116.681c-26.744,15.66-51.964,30.609-77.359,45.254c-40.332,23.258-80.77,46.332-121.186,69.443
	c-11.698,6.69-23.677,12.917-35.112,20.023c-4.482,2.785-7.311,2.27-11.582-0.219c-36.841-21.471-73.936-42.508-110.8-63.94
	c-39.779-23.127-79.392-46.539-119.057-69.862c-0.41-0.241-0.543-0.954-1.299-2.374c14.814-8.658,29.636-17.397,44.53-26.008
	c22.685-13.116,45.348-26.276,68.244-39.016c2.445-1.361,7.033-1.208,9.522,0.198c36.676,20.715,73.098,41.883,109.829,62.498
	c2.904,1.63,8.43,1.334,11.429-0.37c35.656-20.255,71.051-40.969,106.557-61.49c3.562-2.059,6.504-4.028,11.549-1.03
	C413.558,72.117,451.461,93.886,490.724,116.681z M33.167,329.879c33.318,19.571,66.573,39.249,99.939,58.739
	c30.872,18.033,61.814,35.949,92.818,53.755c8.615,4.948,17.63,13.072,26.333,12.909c8.809-0.165,17.488-8.741,26.174-13.719
	c57.56-32.986,115.126-65.962,172.643-99.022c12.993-7.468,25.801-15.256,39.552-23.405
	c-40.769-23.732-80.426-46.816-119.606-69.624c-40.186,23.135-80.151,46.143-119.716,68.921
	c-40.413-23.33-80.344-46.382-119.793-69.156c-39.395,22.867-78.282,45.44-118.712,68.908
	C20.831,322.793,27.034,326.277,33.167,329.879z"/>
</svg>
