<?xml version="1.0" encoding="iso-8859-1"?>
<!-- Generator: Adobe Illustrator 19.0.0, SVG Export Plug-In . SVG Version: 6.00 Build 0)  -->
<svg version="1.1" id="Layer_1" xmlns="http://www.w3.org/2000/svg" xmlns:xlink="http://www.w3.org/1999/xlink" x="0px" y="0px"
	 viewBox="0 0 500 500" enable-background="new 0 0 500 500" xml:space="preserve">
<path d="M329.564,4c0,3.044,0.568,5.835-0.083,8.305c-16.259,61.746-33.904,123.164-48.458,185.307
	c-6.809,29.074-15.905,57.405-23.015,86.321c-1.021,4.151-2.54,8.179-3.83,12.268c-53.824,0-106.773,0-160.272,0
	C98.995,283.157,317.195,13.042,329.564,4z M175.326,494.717c81.525-87.043,165.051-172.199,245.6-260.374
	c-4.551-0.038-8.402,0.547-11.631,2.287c-37.982,20.465-75.996,40.878-113.726,61.802c-16.444,9.119-32.727,17.594-52.446,14.836
	c-1.925-0.269-4.085,1.149-6.427,1.875c-21.602,59.297-43.153,118.456-64.705,177.614
	C173.102,493.41,174.214,494.063,175.326,494.717z M420.736,222.48c-0.009-0.681-0.017-1.363-0.026-2.044
	c-45.223,0-90.446,0-135.539,0c-8.389,28.295-16.506,55.675-25.665,86.566C315.45,277.675,368.093,250.077,420.736,222.48z"/>
</svg>
