<?xml version="1.0" encoding="iso-8859-1"?>
<!-- Generator: Adobe Illustrator 19.0.0, SVG Export Plug-In . SVG Version: 6.00 Build 0)  -->
<svg version="1.1" id="Layer_1" xmlns="http://www.w3.org/2000/svg" xmlns:xlink="http://www.w3.org/1999/xlink" x="0px" y="0px"
	 viewBox="-49 51 400 400" style="enable-background:new -49 51 400 400;" xml:space="preserve">
<path transform="translate(0.000000,400.000000) scale(0.100000,-0.100000)" d="M1507.059,3391.273
	c-232.3-75.9-342.5-314.2-247.2-531.6c128.1-288.9,539.1-308.3,694-31.3c56.6,101.3,62.5,257.6,13.4,354.4
	C1880.859,3352.473,1675.359,3446.373,1507.059,3391.273z M-2.941,2990.673c-160.8-46.2-296.4-160.8-373.8-320.2
	c-46.2-92.3-49.1-110.2-49.1-248.7c0-135.5,4.5-157.9,46.2-245.7c59.6-125.1,165.3-230.8,288.9-288.9
	c87.9-41.7,110.2-46.2,248.7-46.2h40.4c73.3,0,145.6,17.6,210.7,51.4l61.8,32c208.5,108.7,300.8,138.5,421.4,137
	c165.3-3,254.7-55.1,381.2-223.4c98.3-129.6,134-156.4,226.4-163.8c84.9-7.4,157.9,28.3,208.5,101.3c49.1,70,41.7,215.9-11.9,275.5
	c-81.9,86.4-171.3,105.7-293.4,62.5c-43.2-14.9-102.8-26.8-134-26.8c-101.3,1.5-238.3,37.2-291.9,78.9
	c-68.5,52.1-151.9,180.2-213,327.6c-128.1,306.8-183.2,378.3-358.9,460.2C293.359,3006.973,111.659,3023.373-2.941,2990.673z
	 M2430.359,2265.373c-254.7-74.5-437.8-247.2-536.1-501.9c-32.8-86.4-37.2-125.1-37.2-265.1c0-141.5,4.5-178.7,38.7-268.1
	c262.1-692.5,1228.6-707.4,1495.2-22.3c204,525.7-186.2,1091.6-749.1,1085.6C2573.359,2293.673,2483.959,2281.773,2430.359,2265.373
	z M1405.859,1342.073c-74.6-32.6-98.3-83.4-147.4-168.3c-44.7-78.9-183.2-190.6-271-218.9c-102.8-34.3-283,7.4-534.6,123.6
	c-81,35.9-172.6,59.1-283,62.5c-76,2.4-159.3-4.5-233.8-40.2c-114.7-53.6-180.2-104.2-242.7-190.6c-148.9-204-148.9-495.9,0-699.9
	c57.2-76.7,109-122,209.5-176.3c17-9.2,34.8-16.4,53.5-21.4c57.8-15.3,157-32.2,206.1-33.1c63.6,0,165.3,4.5,242.7,40.2
	c183.2,86.4,266.6,189.1,341,418.5c23.8,74.5,65.5,175.7,90.8,223.4c55.1,105.7,181.7,221.9,268.1,248.7c73,22.3,232.3,22.3,308.3,0
	c119.1-34.3,215.9-4.5,285.9,90.8c70,93.8,35.7,263.6-65.5,326.1C1581.559,1358.473,1488.359,1389.373,1405.859,1342.073z
	 M1527.959,342.773c-283-68.5-393.2-393.2-211.5-629.9c44.7-59.6,162.3-122.1,254.7-137c95.3-14.9,218.9,28.3,299.3,102.8
	c96.8,89.4,128.1,159.3,128.1,287.4c0,165.3-81.9,293.4-229.3,354.4C1697.659,350.273,1594.959,359.173,1527.959,342.773z"/>
</svg>
