<?xml version="1.0" encoding="iso-8859-1"?>
<!-- Generator: Adobe Illustrator 19.0.0, SVG Export Plug-In . SVG Version: 6.00 Build 0)  -->
<svg version="1.1" id="Layer_1" xmlns="http://www.w3.org/2000/svg" xmlns:xlink="http://www.w3.org/1999/xlink" x="0px" y="0px"
	 viewBox="0 0 2000 2000" style="enable-background:new 0 0 2000 2000;" xml:space="preserve">
<path d="M1556.973,281.757c0.556,0.46-360.341,480.573-541.708,720.649c180.83,239.382,361.124,478.054,542.678,718.395
	c-5.709-1.922-367.956-144.885-544.39-214.515c0-336.562,0-673.581,0-1011.085C1189.517,425.764,1553.032,282.84,1556.973,281.757z
	 M437.181,287.112c0.646,2.327,1.061,4.748,1.972,6.966c16.413,39.955,32.916,79.873,49.335,119.826
	c14.788,35.984,29.47,72.013,44.248,108.001c22.241,54.163,44.579,108.286,66.779,162.465
	c26.861,65.554,53.568,131.171,80.445,196.718c15.3,37.313,31.031,74.453,45.956,111.915c2.008,5.04,2.22,12.222,0.232,17.202
	c-15.475,38.767-31.775,77.204-47.663,115.808c-29.195,70.939-58.247,141.938-87.425,212.885
	c-28.921,70.322-57.899,140.621-86.901,210.91c-21.011,50.923-63.275,161.473-62.482,161.774
	c12.953-17.566,25.906-35.133,38.858-52.699c0.067,0.066,0.133,0.131,0.2,0.197c165.831-219.452,331.663-438.904,498.24-659.344
	c-179.913-238.18-359.641-476.114-539.37-714.049C438.799,286.162,437.99,286.637,437.181,287.112z M1571.914,290.316
	c-179.194,237.301-358.388,474.603-537.965,712.41c179.966,238.246,359.725,476.218,539.484,714.19
	c1.341-2.773,1.159-4.701,0.467-6.425c-5.47-13.619-10.957-27.233-16.59-40.785c-17.645-42.455-35.481-84.831-52.999-127.338
	c-11.735-28.477-22.946-57.171-34.586-85.688c-18.49-45.296-37.214-90.496-55.71-135.79c-22.422-54.911-44.557-109.939-67.1-164.8
	c-20.188-49.131-40.904-98.046-60.924-147.245c-1.851-4.549-1.953-11.09-0.161-15.641c15.878-40.339,32.242-80.488,48.717-120.589
	c11.14-27.115,22.793-54.02,34.031-81.096c17.307-41.7,34.479-83.455,51.664-125.206c16.018-38.916,31.942-77.871,47.975-116.78
	c21.32-51.739,42.669-103.466,64.078-155.168c11.093-26.79,22.402-53.49,33.481-80.286c3.037-7.346,5.599-14.889,8.379-22.342
	C1573.408,291.264,1572.661,290.79,1571.914,290.316z M448.663,1725.135c13.67-5.301,27.362-10.547,41.008-15.911
	c54.609-21.468,109.201-42.977,163.803-64.464c50.836-20.004,101.693-39.954,152.508-60.011
	c48.953-19.322,97.869-38.74,146.793-58.136c14.161-5.614,28.293-11.298,42.482-16.968c0-168.591,0-336.503,0-504.414
	c-61.687,78.278-121.535,157.322-181.29,236.436c-59.776,79.142-119.23,158.53-179.248,237.488
	c-59.686,78.521-186.028,246.033-186.028,246.033S448.663,1725.135,448.663,1725.135z M492.468,331.791
	c58.015,76.875,115.937,153.82,173.981,230.673c58.392,77.313,116.929,154.516,175.327,231.824
	c45.028,59.608,89.926,119.313,134.914,178.952c6.103,8.09,12.386,16.044,19.887,25.744c0-169.633,0-336.755,0-503.769
	c-3.634-2.025-6.749-4.252-10.205-5.61c-28.14-11.056-56.354-21.923-84.526-32.898c-37.53-14.62-75.053-29.26-112.561-43.939
	c-25.741-10.074-51.514-20.072-77.157-30.393c-25.864-10.409-51.475-21.453-77.4-31.707c-27.271-10.787-54.789-20.947-82.184-31.42
	c-22.011-8.414-44.118-16.595-65.954-25.443c-12.987-5.263-25.533-11.616-37.792-17.257
	C449.619,278.223,482.221,318.213,492.468,331.791z M1505.501,1718.822c0,0-42.907-17.5-64.472-25.968
	c-25.166-9.882-50.554-19.2-75.708-29.111c-21.813-8.595-43.357-17.872-65.164-26.483c-19.788-7.814-39.821-15.004-59.652-22.71
	c-22.569-8.77-45.029-17.82-67.545-26.726c-33.406-13.214-66.829-26.383-100.225-39.62c-18.774-7.441-37.51-14.981-56.132-22.424
	c-3.714,5.798-4.511,439.059-1.037,447.963c182.084-76.093,548.276-229.125,548.276-229.125L1505.501,1718.822z M1022.413,473.092
	c40.787-16.019,81.571-32.042,122.334-48.123c80.16-31.623,160.295-63.308,240.46-94.918
	c49.068-19.348,98.156-38.646,147.304-57.792c2.679-1.044,30.763-14.596,30.763-14.596s-365.45-152.781-549.112-229.563
	c0,149.961,0,298.22,0,447.679C1017.581,474.675,1020.051,474.02,1022.413,473.092z M464.195,266.883
	c176.668,69.569,353.336,139.138,531.202,209.179c0-149.786,0-297.987,0-447.138C812.691,105.302,631.028,181.242,447.053,258.15
	c7.208,3.886,11.95,6.442,16.691,8.999C463.894,267.06,464.045,266.971,464.195,266.883z M446.931,1744.28
	c0,0,365.924,152.98,548.862,229.461c0-149.882,0-297.927,0-447.278C819.026,1596.136,446.931,1744.28,446.931,1744.28z"/>
</svg>
