<?xml version="1.0" encoding="iso-8859-1"?>
<!-- Generator: Adobe Illustrator 19.0.0, SVG Export Plug-In . SVG Version: 6.00 Build 0)  -->
<svg version="1.1" id="Layer_1" xmlns="http://www.w3.org/2000/svg" xmlns:xlink="http://www.w3.org/1999/xlink" x="0px" y="0px"
	 viewBox="0 0 2000 2000" style="enable-background:new 0 0 2000 2000;" xml:space="preserve">
<path d="M999.308,7.011c549.335,0.241,978.037,441.062,989.971,962.072c13.316,581.331-446.266,997.55-942.977,1017.731
	c-271.863,11.046-511.594-73.794-712.916-257.472C126.117,1540.237,15.583,1302.729,8.778,1022.543
	C-5.123,450.207,458.219,4.486,999.308,7.011z M1927.683,997.171c0.845-515.825-415.315-918.927-904.086-929.09
	C479.455,56.766,88.849,486.764,70.543,954.578c-10.119,258.608,72.422,485.536,248.548,674.941
	c182.745,196.523,412.106,297.184,679.799,297.175C1514.232,1926.677,1928.978,1508.638,1927.683,997.171z M143.315,997.243
	c155.469,116.974,309.517,232.878,461.332,347.103c67.833-67.883,134.854-134.954,207.033-207.187
	c-48.351-46.529-98.003-94.31-151.318-145.615c48.682-47.963,96.806-95.377,144.38-142.248
	c-66.017-65.704-132.531-131.903-199.558-198.613C452.935,764.921,299.277,880.218,143.315,997.243z M651.503,605.156
	c67.42,66.745,134.39,133.045,203.235,201.201c47.553-47.628,96.068-96.219,146.226-146.456
	c48.688,48.736,97.217,97.313,143.799,143.94c66.998-67.027,133.667-133.725,200.79-200.877
	c-114.126-152.285-229.465-306.189-346.23-461.996C882.454,296.937,766.975,451.051,651.503,605.156z M1854.566,996.422
	c-156.105-117.116-309.857-232.467-463.141-347.466c-67.675,67.467-134.634,134.221-204.893,204.264
	c49.095,48.954,98.04,97.76,147.94,147.516c-47.746,47.416-96.456,95.791-142.636,141.652
	c67.325,67.386,133.659,133.779,201.215,201.397C1546.113,1228.582,1699.761,1112.937,1854.566,996.422z M652.918,1392.289
	c114.125,151.645,229.527,304.985,346.438,460.332c117.063-155.67,232.651-309.377,347.635-462.282
	c-67.991-68.235-134.866-135.349-202.952-203.679c-49.203,48.868-98.231,97.562-148.81,147.798
	c-47.628-47.663-95.855-95.924-142.191-142.293C786.634,1258.57,720.027,1325.178,652.918,1392.289z M998.932,1254.645
	c85.424-85.422,172.223-172.22,257.163-257.158c-85.458-85.388-172.319-172.18-258.236-258.026
	c-85.215,85.222-171.737,171.752-257.104,257.125C827.587,1083.379,914.41,1170.162,998.932,1254.645z"/>
</svg>
