<?xml version="1.0" encoding="iso-8859-1"?>
<!-- Generator: Adobe Illustrator 19.0.0, SVG Export Plug-In . SVG Version: 6.00 Build 0)  -->
<svg version="1.1" id="Layer_1" xmlns="http://www.w3.org/2000/svg" xmlns:xlink="http://www.w3.org/1999/xlink" x="0px" y="0px"
	 viewBox="0 0 2000 2000" style="enable-background:new 0 0 2000 2000;" xml:space="preserve">
<path d="M26.924,992.991c4.667-268.076,98.939-499.686,290.604-689.206c189.95-187.824,421.226-282.112,687.219-280.696
	c270.282,1.439,502.938,101.06,692.177,295.512c183.544,188.6,275.866,417.313,275.445,679
	c-0.427,265.143-96.162,496.057-284.476,683.832c-202.924,202.344-450.927,298.014-737.025,284.601
	c-249.048-11.676-463.732-108.182-639.684-285.552C123.095,1490.876,30.726,1260.644,26.924,992.991z M773.913,779.106
	c125.532,0,249.349,0,368.219,0c32.753-26.977,61.822-50.92,90.49-74.532c0-31.826,0-62.546,0-92.053
	c-7.349-11.908-18.097-9.327-27.868-9.333c-136.222-0.084-272.443-0.078-408.665-0.093c-6.983-0.001-13.966,0-23.026,0
	c0-50.754,0-99.877,0-150.406c-7.053-1.561-12.39-3.74-17.739-3.77c-46.6-0.263-93.203-0.039-139.804-0.232
	c-7.844-0.032-14.105,1.668-19.051,12.26c0,44.79,0,92.594,0,142.2c-7.611,0-13.884,0-20.157,0
	c-37.999-0.001-75.998-0.058-113.996,0.05c-6.916,0.02-14.631-1.932-19.315,5.701c-3.369,41.153-2.137,153.383,2.253,170.375
	c16.655,0,33.755,0,50.856,0c16.49,0,32.989-0.336,49.468,0.093c16.904,0.44,34.003-2.047,50.542,1.752c0,46.76,0,92.406,0,139.886
	c-94.495,0-188.121,0-281.903,0c-9.704,10.186-18.556,19.557-27.502,28.838c-5.724,5.939-8.637,12.651-8.535,21.183
	c0.325,27.174,0.12,54.354,0.12,79.515c14.785,15.575,28.016,29.511,41.49,43.704c92.242,0,183.801,0,276.092,0
	c0,47.314,0,93.433,0,141.156c-26.056,0-51.013-0.243-75.963,0.068c-25.504,0.318-51.107-1.356-76.988,1.018
	c0,58.42,0,114.732,0,174.99c51.435,0.123,101.829-0.016,154.029,0.092c0,17.354,0,32.94,0,48.527
	c0,15.056-0.553,30.138,0.153,45.161c0.727,15.446-3.307,31.318,3.573,48.33c19.016,1.672,38.255,0.593,57.418,0.777
	c18.639,0.179,37.292,0.424,55.919-0.068c18.993-0.501,38.272,2.415,58.658-2.522c0-47.091,0-92.748,0-140.465
	c11.135-1.289,20.744-3.354,30.356-3.369c129.052-0.208,258.104-0.192,387.156,0.024c8.392,0.014,16.774,2.167,25.176,3.202
	c2.103,0.259,4.266,0.039,7.764,0.039c3.165-3.438,6.918-7.517,10.116-10.991c0-29.993-0.278-58.674,0.148-87.344
	c0.153-10.308-3.476-17.343-11.802-23.476c-22.923-16.887-45.323-34.484-70.791-53.991c-59.239,0-122.293,0-185.346,0
	c-63.574,0-127.149,0-191.103,0c0-48.361,0-94.512,0-139.975c1.844-0.994,2.44-1.595,3.036-1.596
	c95.349-0.195,190.698-0.344,286.047-0.534c1.39-0.003,2.799-0.428,4.16-0.801c0.635-0.174,1.261-0.611,1.734-1.086
	c0.495-0.496,0.802-1.18,2.569-3.91c-14.701-53.053-14.39-108.44-1.042-166.224c-51.368,0-99.92,0-148.472,0
	c-49.233,0-98.466,0-148.473,0C773.913,873.405,773.913,827.763,773.913,779.106z M1427.721,701.797
	c-158.07-3.006-300.926,128.015-299.671,299.775c1.26,172.489,137.487,292.29,286.379,298.248
	c173.543,6.943,313.424-129.667,312.778-299.983C1726.552,827.14,1585.405,699.823,1427.721,701.797z"/>
</svg>
