<?xml version="1.0" encoding="iso-8859-1"?>
<!-- Generator: Adobe Illustrator 19.0.0, SVG Export Plug-In . SVG Version: 6.00 Build 0)  -->
<svg version="1.1" id="Layer_1" xmlns="http://www.w3.org/2000/svg" xmlns:xlink="http://www.w3.org/1999/xlink" x="0px" y="0px"
	 viewBox="0 0 2000 2000" style="enable-background:new 0 0 2000 2000;" xml:space="preserve">
<path d="M1188.564,302.551c159.013,157.274,170.179,424.746,30.033,612.716c-53.003,71.089-122.9,129.38-178.505,198.785
	c-65.448,81.691-132.461,164.286-182.873,255.307c-59.955,108.252-61.52,190.783-38.87,321.551
	c-133.246-116.115-171.674-366.216-71.168-537.468c55.63-94.788,129.56-179.074,197.57-266.277
	c49.822-63.881,107.081-122.162,154.552-187.634C1181.805,585.746,1217.951,458.142,1188.564,302.551z M1151.097,1525.779
	c61.391-81.816,144.682-147.341,204.945-229.822c64.237-87.919,132.384-181.202,163.748-282.956
	c44.85-145.506,12.127-289.254-96.767-407.96c14.391,155.481-30.946,290.471-125.095,409.795
	c-41.893,53.095-89.443,101.729-131.276,154.866c-66.872,84.941-139.322,167.017-194.713,259.143
	c-105.045,174.71-70.578,421.573,68.141,546.967C998.067,1804.701,1052.424,1657.281,1151.097,1525.779z M967.01,195.383
	c-16.016,122.753-87.075,218.079-163.972,310.708C709.964,618.208,611.69,727.756,532.881,849.554
	c-113.015,174.665-79.244,420.179,67.212,563.699c-36.722-112.857-25.874-219.282,25.466-312.576
	c54.016-98.157,124.092-188.261,193.471-276.939c58.07-74.223,132.955-135.906,186.87-212.644
	c130.509-185.754,111.766-448.577-37.67-591.871C968.231,83.187,974.217,140.146,967.01,195.383z"/>
</svg>
