<?xml version="1.0" encoding="iso-8859-1"?>
<!-- Generator: Adobe Illustrator 19.0.0, SVG Export Plug-In . SVG Version: 6.00 Build 0)  -->
<svg version="1.1" id="Layer_1" xmlns="http://www.w3.org/2000/svg" xmlns:xlink="http://www.w3.org/1999/xlink" x="0px" y="0px"
	 viewBox="0 0 500 500" style="enable-background:new 0 0 500 500;" xml:space="preserve">
<path d="M129.538,458.391C89.278,389.211,49.215,320.37,8.915,251.121C49.1,182.067,89.28,113.022,129.446,44
	c79.304,0,158.072,0,237.866,0c41.185,68.446,82.645,137.35,124.172,206.365c-40.891,69.518-81.678,138.858-122.364,208.026
	C289.078,458.391,209.756,458.391,129.538,458.391z M438.277,251.648c-32.599-54.177-64.835-107.751-96.744-160.782
	c-62.618,0-124.201,0-185.887,0C124.273,144.744,93.06,198.348,61.76,252.1c31.456,54.016,62.783,107.811,93.912,161.264
	c62.977,0,125.123,0,187.433,0C374.818,359.477,406.426,305.769,438.277,251.648z M266.738,201.714c11.094,0,21.153,0,31.399,0
	c0,32.515,0,64.531,0,97.639c-46.092,0-91.731,0-137.577,0c0,13.054,0,25.012,0,37.383c58.879,0,117.425,0,175.837,0
	c0-58.87,0-117.135,0-175.253c-58.925,0-117.228,0-175.777,0c0,13.291,0,26.024,0,39.91c22.657,0,44.957,0,66.932,0
	c0,11.183,0,21.197,0,32.209c-22.777,0-44.85,0-66.893,0c0,12.963,0,24.895,0,37.146c35.145,0,69.859,0,106.08,0
	C266.738,246.943,266.738,224.316,266.738,201.714z"/>
</svg>
