<?xml version="1.0" encoding="iso-8859-1"?>
<!-- Generator: Adobe Illustrator 19.0.0, SVG Export Plug-In . SVG Version: 6.00 Build 0)  -->
<svg version="1.1" id="Layer_1" xmlns="http://www.w3.org/2000/svg" xmlns:xlink="http://www.w3.org/1999/xlink" x="0px" y="0px"
	 viewBox="0 0 500 500" enable-background="new 0 0 500 500" xml:space="preserve">
<path d="M285.66,169.485c-50.021,0-100.041,0-150.062-0.001c-1.457,0-2.921,0.077-4.369-0.039c-4.239-0.341-5.128-1.867-3.043-5.559
	c9.308-16.475,18.682-32.914,28.033-49.365c6.153-10.826,12.365-21.62,18.431-32.495c2.204-3.952,4.809-5.893,9.842-5.884
	c100.039,0.184,200.078,0.137,300.117,0.137c0.809,0,1.619-0.019,2.428,0.005c5.085,0.147,6.603,2.662,4.123,7.103
	c-12.934,23.157-25.915,46.289-38.881,69.428c-2.214,3.951-4.59,7.821-6.607,11.87c-1.813,3.639-4.381,4.898-8.495,4.887
	C386.672,169.44,336.166,169.486,285.66,169.485z M378.72,291.901c4.186,0.009,6.901-1.122,9.012-4.925
	c14.759-26.593,29.707-53.082,44.56-79.624c3.637-6.499,2.898-7.673-4.677-7.673c-100.713-0.006-201.426,0.026-302.139-0.1
	c-4.523-0.006-7.073,1.508-9.216,5.379c-8.069,14.577-16.416,29-24.66,43.48c-7.045,12.372-14.12,24.726-21.123,37.122
	c-2.515,4.451-1.521,6.062,3.671,6.259c1.132,0.043,2.267,0.008,3.4,0.008c49.872,0,99.743,0,149.615,0
	C277.683,291.827,328.202,291.786,378.72,291.901z M316.798,414.229c4.501,0.012,7.058-1.547,9.198-5.447
	c9.651-17.585,19.57-35.023,29.387-52.517c5.304-9.452,10.639-18.887,15.877-28.375c2.261-4.096,1.38-5.582-3.257-5.863
	c-1.291-0.078-2.59-0.022-3.885-0.02c-32.867,0.04-65.733,0.12-98.6,0.113c-67.678-0.014-135.356-0.049-203.034-0.18
	c-3.747-0.007-5.98,1.336-7.723,4.556c-4.003,7.397-8.251,14.663-12.415,21.973c-11.291,19.818-22.607,39.622-33.874,59.455
	c-2.391,4.209-1.445,5.904,3.286,6.202c1.129,0.071,2.266,0.017,3.399,0.017c50.031,0,100.062,0,150.092,0.001
	C215.766,414.143,266.282,414.093,316.798,414.229z"/>
</svg>
