<?xml version="1.0" encoding="iso-8859-1"?>
<!-- Generator: Adobe Illustrator 19.0.0, SVG Export Plug-In . SVG Version: 6.00 Build 0)  -->
<svg version="1.1" id="Layer_1" xmlns="http://www.w3.org/2000/svg" xmlns:xlink="http://www.w3.org/1999/xlink" x="0px" y="0px"
	 viewBox="0 0 500 500" style="enable-background:new 0 0 500 500;" xml:space="preserve">
<path id="XMLID_4_" d="M42.305,251.509c0-36.143,0.285-72.291-0.215-108.427c-0.115-8.274,2.706-12.805,9.625-16.813
	c37.267-21.587,74.303-43.571,111.416-65.422c25.542-15.039,51.196-29.893,76.552-45.238c8.224-4.977,15.306-4.996,23.626-0.14
	c61.6,35.949,123.368,71.609,185.079,107.368c1.524,0.883,2.888,2.152,4.508,2.738c6.08,2.199,7.362,6.929,7.268,12.66
	c-0.076,4.592,0.226,9.189,0.23,13.784c0.05,68.742-0.082,137.485,0.315,206.225c0.05,8.636-2.786,13.217-10.204,17.478
	c-62.464,35.886-124.713,72.147-186.914,108.489c-7.702,4.5-14.54,5.604-22.709,0.893
	c-63.621-36.693-127.341-73.214-191.191-109.505c-5.843-3.321-7.485-7.245-7.446-13.534c0.224-36.851,0.11-73.703,0.11-110.555
	C42.338,251.509,42.321,251.509,42.305,251.509z M246.349,477.734c0.227-4.444,0.51-7.553,0.525-10.663
	c0.085-18.051,0.083-36.103,0.157-54.154c0.05-12.366,0.024-24.735,0.358-37.094c0.097-3.608-0.468-6.099-4.078-7.568
	c-1.924-0.783-3.505-2.369-5.336-3.427c-27.486-15.871-54.864-31.936-82.576-47.404c-6.688-3.733-9.41-7.84-9.303-15.651
	c0.442-32.203-0.061-64.42,0.371-96.624c0.094-6.993-2.08-11.023-8.014-14.344c-26.48-14.818-52.781-29.956-79.18-44.92
	c-2.04-1.157-4.337-1.862-7.999-3.401c-0.094,4.913-0.226,8.645-0.227,12.377c-0.012,65.835-0.009,131.67-0.007,197.505
	c0,2.124,0.262,4.279-0.011,6.365c-0.706,5.382,1.713,8.733,6.393,10.933c1.586,0.746,2.973,1.903,4.503,2.779
	c52.659,30.145,105.321,60.286,157.995,90.405C228.369,467.681,236.88,472.405,246.349,477.734z M56.97,133.726
	c1.746,1.335,2.777,2.327,3.982,3.015c27.275,15.586,54.61,31.068,81.82,46.767c4.599,2.653,8.16,2.08,12.589-0.543
	c28.54-16.902,57.389-33.286,85.798-50.402c7.299-4.397,12.867-4.679,20.284-0.2c30.173,18.221,60.724,35.816,91.778,54.019
	c30.812-17.884,61.726-35.828,93.696-54.384c-16.65-9.618-31.921-18.426-47.179-27.256c-46.431-26.87-92.925-53.632-139.202-80.764
	c-6.233-3.655-10.739-4.131-17.273-0.236c-51.25,30.554-102.784,60.631-154.215,90.882C78.467,120.849,67.95,127.184,56.97,133.726z
	 M450.128,365.672c0-74.779,0-149.317,0-224.71c-2.078,0.927-3.341,1.359-4.475,2.015c-26.55,15.37-52.96,30.989-79.712,45.998
	c-6.808,3.82-8.963,8.284-8.862,15.943c0.427,32.564-0.025,65.14,0.292,97.707c0.067,6.899-2.184,10.637-8.262,14.071
	c-28.559,16.136-56.653,33.097-85.236,49.188c-5.799,3.265-7.788,6.746-7.762,13.117c0.096,22.986-0.35,45.975-0.536,68.963
	c-0.077,9.482-0.013,18.965-0.013,30.557C321.588,440.226,385.8,402.983,450.128,365.672z M153.457,200.185
	c-0.221,1.398-0.622,2.763-0.624,4.127c-0.043,31.528,0.191,63.059-0.237,94.581c-0.091,6.688,3.35,9.42,8.105,12.16
	c24.793,14.281,49.542,28.639,74.34,42.91c3.887,2.237,7.949,4.168,12.808,6.697c0-36.747,0-72.396,0-107.913
	C233.886,242.721,161.27,202.234,153.457,200.185z M344.414,191.731c-31.772-18.63-62.17-36.455-92.428-54.197
	c-24.105,11.857-86.47,49.238-92.481,55.594c30.742,17.507,61.359,34.944,92.276,52.551
	C282.428,227.83,312.834,210.123,344.414,191.731z M256.352,359.83c29.539-17.256,56.727-33.553,84.39-48.999
	c6.647-3.711,8.509-7.882,8.452-14.886c-0.235-28.626-0.011-57.256-0.012-85.885c0-2.993-0.377-5.986-0.631-9.767
	c-2.432,0.799-3.805,1.007-4.926,1.654c-27.789,16.043-55.529,32.171-83.351,48.156c-2.85,1.637-3.967,3.709-3.993,6.805
	c-0.021,2.46-0.476,4.918-0.46,7.376c0.143,22.98,0.363,45.959,0.524,68.939C256.4,341.285,256.352,349.347,256.352,359.83z
	 M126.977,326.758c0.047-3.452-2.901-6.594-6.505-6.934c-4.774-0.45-7.852,1.814-8.144,5.993c-0.296,4.238,2.544,7.478,6.753,7.704
	C123.064,333.734,126.927,330.425,126.977,326.758z M92.003,345.693c-0.425-4.2-3.797-7.01-7.91-6.591
	c-4.228,0.431-6.452,3.546-5.861,8.21c0.451,3.557,3.801,6.559,7.043,6.311C88.974,353.34,92.371,349.336,92.003,345.693z
	 M244.239,56.509c0.233,3.799,3.985,6.848,8.074,6.561c3.972-0.278,6.627-2.983,6.634-6.758c0.008-4.039-3.442-7.527-7.389-7.472
	C247.93,48.891,244.023,52.985,244.239,56.509z M251.73,90.339c-3.764,0.105-7.713,3.957-7.562,7.377
	c0.149,3.372,4.49,7.251,8.008,7.155c2.766-0.076,6.674-4.136,6.8-7.065C259.14,94.008,255.478,90.235,251.73,90.339z
	 M419.69,337.692c-3.554-0.085-7.538,3.829-7.589,7.454c-0.061,4.379,2.932,7.215,7.45,7.058c3.904-0.136,7.404-3.828,7.223-7.617
	C426.619,341.357,422.932,337.769,419.69,337.692z M384.246,332.705c4.106,0.147,7.582-2.978,7.651-6.877
	c0.065-3.679-3.648-7.429-7.295-7.37c-4.054,0.066-6.979,3.321-6.852,7.627C377.867,330.101,380.285,332.564,384.246,332.705z"/>
</svg>
