<?xml version="1.0" encoding="iso-8859-1"?>
<!-- Generator: Adobe Illustrator 19.0.0, SVG Export Plug-In . SVG Version: 6.00 Build 0)  -->
<svg version="1.1" id="Layer_1" xmlns="http://www.w3.org/2000/svg" xmlns:xlink="http://www.w3.org/1999/xlink" x="0px" y="0px"
	 viewBox="250 -236 2500 2472" style="enable-background:new 250 -236 2500 2472;" xml:space="preserve">
<path style="fill:#231815;" d="M1469.837,2213.975c-12.871-2.574-25.741-5.148-38.612-5.148c-28.315-2.574-59.205-2.574-87.52-7.722
	c-46.334-7.722-90.094-15.445-133.854-25.741c-46.334-12.871-92.668-28.315-136.428-43.76
	c-72.075-23.167-141.576-56.63-203.354-100.39c-51.482-33.464-102.964-69.501-151.872-110.687
	c-43.76-38.612-84.945-82.371-126.131-123.557c-25.741-28.315-51.482-59.205-74.649-92.668
	c-30.889-43.76-59.204-87.52-84.945-133.853c-23.167-41.186-43.76-82.371-61.779-126.131
	c-15.445-38.612-28.315-77.223-41.186-118.409c-10.296-33.464-18.019-69.501-25.741-102.964s-10.296-66.927-15.445-100.39
	c-2.574-23.167-2.574-48.908-5.148-72.075c0-2.574-2.574-2.574-2.574-5.148V926.922c2.574-12.871,5.148-25.741,5.148-38.612
	c2.574-54.056,12.871-108.112,23.167-162.169c15.445-77.223,41.186-154.446,72.075-226.521
	c38.612-87.52,87.52-169.891,144.15-247.114c23.167-30.889,48.908-59.204,74.649-87.52c30.889-33.463,61.779-64.353,95.242-95.242
	c59.204-51.482,123.557-97.816,193.058-139.002c56.63-33.463,115.835-61.779,177.613-84.945
	c48.908-18.019,97.816-33.463,146.724-46.334c36.038-10.296,72.075-15.445,110.687-20.593c30.889-5.148,64.353-5.148,97.816-7.722
	c30.889-2.574,64.353-5.148,95.242-5.148c38.612,0,77.223,5.148,115.835,10.296c33.463,2.574,69.501,7.722,102.964,12.871
	c23.167,2.574,46.334,7.722,69.501,15.445c43.76,12.871,87.52,25.741,131.279,41.186c30.889,10.296,59.205,25.741,90.094,38.612
	c28.315,12.871,56.63,25.741,82.371,43.76c43.76,25.741,87.52,54.056,128.705,84.945c36.038,25.741,69.501,54.056,100.39,84.945
	c33.463,30.889,66.927,64.353,95.242,97.816c43.76,51.482,82.371,105.538,118.409,162.169
	c43.76,72.075,79.797,146.724,105.538,226.521c12.871,36.038,25.741,72.075,33.463,110.687
	c10.297,41.186,18.019,82.371,23.167,126.131c5.148,38.612,7.722,77.223,10.297,115.835c0,2.574,2.574,5.148,2.574,5.148v95.242
	c-2.574,12.87-2.574,25.741-5.148,41.186l-15.445,123.557c-5.148,30.889-10.296,61.779-18.019,92.668
	c-15.445,59.205-33.464,115.835-59.205,172.465c-25.741,61.779-56.63,120.983-95.242,177.613
	c-25.741,38.612-54.056,77.223-84.946,115.835c-25.741,30.889-51.482,59.205-79.797,87.52
	c-48.908,51.482-102.964,95.242-159.594,136.428c-59.205,43.76-123.557,79.797-190.484,110.687
	c-66.927,30.889-136.428,56.63-205.928,74.649c-43.76,10.297-87.52,18.019-131.279,25.741
	c-36.037,5.148-72.075,7.722-108.112,10.296c-10.297,0-23.167,2.574-33.464,5.148
	C1518.745,2213.975,1495.578,2213.975,1469.837,2213.975z M1505.874,2177.937c321.763-2.574,599.766-115.835,831.436-339.782
	c221.373-216.225,344.93-486.506,355.227-797.973c15.445-373.245-120.983-689.86-398.986-939.549
	c-216.225-195.632-476.21-296.022-767.084-301.17c-342.356-5.148-635.804,115.835-875.196,362.949
	c-216.225,221.373-329.486,489.08-334.634,800.547c-7.722,365.523,131.279,674.416,401.561,918.956
	C942.145,2080.121,1204.704,2175.363,1505.874,2177.937L1505.874,2177.937z M1114.61,257.654c12.87-2.574,23.167-2.574,36.037-5.148
	c5.148,0,12.87-2.574,18.019-2.574h1088.847c15.445-2.574,25.741,5.148,33.463,18.019c30.889,51.482,51.482,105.538,66.927,162.169
	c10.297,36.038,12.871,74.649,20.593,110.687c2.574,12.871,2.574,25.741,2.574,36.038c0,5.148-2.574,12.871-7.722,18.019
	l-92.668,77.223c-28.315,23.167-54.056,46.334-79.797,69.501c-7.722,5.148-15.445,12.871-23.167,18.019c0,0,0,2.574,2.574,2.574
	h200.78c0,15.445,2.574,30.889,2.574,43.76c0,72.075,2.574,144.15,2.574,216.225c0,36.038-2.574,69.501-5.148,105.538
	c0,5.148-2.574,7.722-7.722,12.871c-38.612,33.463-77.223,64.353-115.835,97.816c-25.741,28.315-54.056,54.056-84.946,79.797
	h190.484c-2.574,23.167-2.574,43.76-5.148,66.927c-2.574,23.167-5.148,46.334-10.296,69.501c-2.574,18.019-5.148,38.612-7.722,56.63
	l-15.445,84.946c-5.148,20.593-10.296,43.76-18.019,61.779c-2.574,7.722-12.87,15.445-23.167,20.593
	c-51.482,30.889-100.39,59.204-151.872,90.094c-48.908,28.315-97.816,54.056-144.15,79.797
	c-12.87,7.722-23.167,12.871-36.037,20.593c-15.445,7.722-30.889,15.445-51.482,15.445H1315.39
	c-41.186,0-82.371-7.722-123.557-15.445c-43.76-10.297-82.371-25.741-120.983-46.334c-30.889-18.019-59.204-41.186-90.094-61.779
	c-20.593-15.445-38.612-33.463-56.63-51.482c-23.167-23.167-43.76-48.908-61.779-72.075
	c-25.741-33.463-51.482-66.927-72.075-102.964c-38.612-61.779-82.371-120.983-113.261-187.91
	c-20.593-48.908-41.186-97.816-59.204-146.724c-12.871-38.612-18.019-77.223-23.167-118.409
	c-5.148-36.037-7.722-72.075-7.722-105.538s5.148-66.927,10.296-100.39c0-2.574,0-7.722-2.574-10.296
	c-64.353,229.096-20.593,442.746,90.094,648.675c-12.871-12.87-25.741-25.741-36.038-41.186
	c-20.593-28.315-43.76-56.63-61.779-84.946c-25.741-43.76-48.908-87.52-69.501-133.853c-18.019-41.186-30.889-82.371-43.76-123.557
	c-7.722-30.889-12.871-61.779-15.445-90.094c-5.148-36.038-7.722-69.501-7.722-105.538c0-33.463,5.148-66.927,10.296-100.39
	c7.722-41.186,15.445-82.371,25.741-123.557c5.148-25.741,15.445-51.482,25.741-77.223c15.445-36.038,28.315-72.075,46.334-105.538
	c20.593-36.038,43.76-72.075,66.927-105.538c18.019-25.741,38.612-48.908,61.779-72.075c28.315-30.889,59.204-61.779,90.094-90.094
	c33.463-30.889,72.075-56.63,108.112-82.371c56.63-41.186,120.983-74.649,185.336-100.39c43.76-18.019,87.52-33.463,131.279-46.334
	c46.334-12.871,92.668-20.593,139.002-28.315c74.649-12.871,151.872-15.445,229.095-12.871
	c43.76,2.574,90.094,10.296,133.853,15.445c18.019,2.574,38.612,2.574,56.63,7.722c48.908,12.871,97.816,28.315,144.15,41.186
	c5.148,2.574,10.297,5.148,18.019,7.722c-296.022-28.315-563.729,48.908-813.417,198.206
	C1114.61,255.08,1114.61,257.654,1114.61,257.654L1114.61,257.654z M1014.22,1140.572c10.297,20.593,20.593,38.612,30.889,54.056
	c23.167,33.463,46.334,66.927,72.075,100.39c7.722,10.297,10.297,23.167,28.315,23.167h965.29c5.148,0,10.296,0,12.871-2.574
	c33.463-28.315,66.927-54.056,97.816-82.371c30.889-25.741,61.779-54.056,95.242-79.797c2.574-2.574,7.722-5.148,15.445-10.297
	C1889.416,1140.573,1454.392,1140.573,1014.22,1140.572L1014.22,1140.572z M2324.44,592.288c-7.722-2.574-12.871-2.574-20.593-2.574
	H1160.944c-20.593,0-36.037,7.722-51.482,20.593c-30.889,28.315-54.056,64.353-72.075,100.39
	c-10.297,15.445-15.445,33.463-25.741,54.056h1086.273c12.871,0,28.315,0,36.038-12.871c5.148-7.722,12.871-12.871,20.593-18.019
	c48.908-41.186,95.242-79.797,144.15-120.983C2308.995,607.732,2316.717,600.01,2324.44,592.288z M2236.92,1670.838
	c-5.148-2.574-10.297-2.574-15.445-2.574H1196.981c-51.482,0-102.964-2.574-154.446-5.148
	c-43.76-2.574-84.945-18.019-123.557-38.612c-12.871-7.722-25.741-15.445-41.186-23.167c5.148,5.148,5.148,10.297,7.722,12.871
	c33.463,33.463,66.927,69.501,100.39,100.39c38.612,36.037,79.797,64.353,126.131,87.52c48.908,25.741,100.39,41.186,154.446,43.76
	c33.463,2.574,69.501,2.574,102.964,2.574h525.118c12.87,0,23.167-2.574,36.037-7.722c20.593-10.296,41.186-23.167,64.353-33.463
	c72.075-38.612,144.15-79.797,216.225-118.409C2218.902,1681.134,2229.198,1675.986,2236.92,1670.838L2236.92,1670.838z"/>
</svg>
