<?xml version="1.0" encoding="iso-8859-1"?>
<!-- Generator: Adobe Illustrator 19.0.0, SVG Export Plug-In . SVG Version: 6.00 Build 0)  -->
<svg version="1.1" id="Layer_1" xmlns="http://www.w3.org/2000/svg" xmlns:xlink="http://www.w3.org/1999/xlink" x="0px" y="0px"
	 viewBox="0 0 500 500" enable-background="new 0 0 500 500" xml:space="preserve">
<path d="M458.066,77.119c-5.144,5.745-9.763,10.902-14.975,16.723c-49.69-47.621-108.284-69.739-175.56-64.657
	C203.788,34,151.51,62.931,110.739,112.161c-72.944,88.078-62.001,220.771,24.633,300.927
	c82.122,75.982,214.965,76.726,294.298,1.549c-13.099-12.093-26.212-24.199-39.638-36.594
	c-96.813,73.708-204.011,28.312-246.097-39.388c-47.189-75.909-27.695-171.951,43.322-223.102
	c73.28-52.78,171.15-34.559,219.142,25.067c-55.826,55.659-111.588,111.254-168.204,167.7c-3.895-4.399-8.488-9.585-13.59-15.347
	c50.023-49.952,100.405-100.262,150.81-150.594c-52.294-49.201-139.768-45.63-192.555,6.933
	c-53.808,53.579-55.561,141.695-3.097,197.686c49.386,52.707,142.147,69.015,210.918-2.625
	c23.509,23.739,47.047,47.508,70.753,71.445c-74.779,87.725-225.944,110.992-333.028,22.243
	C18.37,346.867,9.704,183.363,106.922,81.672C206.007-21.971,369.094-14.952,458.066,77.119z"/>
</svg>
