<?xml version="1.0" encoding="iso-8859-1"?>
<!-- Generator: Adobe Illustrator 19.0.0, SVG Export Plug-In . SVG Version: 6.00 Build 0)  -->
<svg version="1.1" id="Layer_1" xmlns="http://www.w3.org/2000/svg" xmlns:xlink="http://www.w3.org/1999/xlink" x="0px" y="0px"
	 viewBox="0 0 2000 2000" style="enable-background:new 0 0 2000 2000;" xml:space="preserve">
<path d="M997.117,1983.608c-205.077,0-410.155,0.208-615.232-0.058c-209.885-0.271-364.996-154.1-365.25-363.487
	c-0.503-413.997-0.501-827.996,0-1241.993C16.885,170.302,171.12,15.086,378.129,14.768c415.278-0.637,830.559-0.643,1245.838,0.002
	c207.019,0.321,361.143,155.512,361.395,363.387c0.504,413.997,0.512,827.996-0.003,1241.993
	c-0.26,209.369-155.394,363.135-365.323,363.4C1412.396,1983.813,1204.756,1983.608,997.117,1983.608z M894.979,884.311
	c-0.624-7.992-1.54-10.713-0.912-13.011c13.789-50.4,27.331-100.874,41.776-151.088c21.785-75.73,82.426-121.049,161.37-121.085
	c180.693-0.085,361.386-0.027,542.079-0.028c13.849,0,27.697,0,42.423,0c16.885-63.042,32.893-122.812,50.273-187.704
	c-16.89,0-29.433,0-41.976,0c-281.932,0-563.865-0.212-845.796,0.079c-170.143,0.176-346.934,132.697-392.762,297.144
	c-50.647,181.741-99.693,363.955-147.017,546.589c-41.669,160.812,65.639,297.313,231.365,297.597
	c134.558,0.23,269.117,0.047,403.675,0.047c151.218,0,302.438,0.271,453.652-0.506c12.373-0.063,33.613-4.634,35.66-11.563
	c17.078-57.815,30.619-116.675,46.132-178.847c-20.788,0-34.754,0.009-48.721-0.001c-181.97-0.139-363.944,0.282-545.909-0.763
	c-55.304-0.318-98.064-39.13-89.625-87.122c11.777-66.976,32.66-132.351,49.796-198.994c193.743,0,381.883,0,572.291,0
	c16.452-63.39,32.51-125.264,49.503-190.743C1270.125,884.311,1083.273,884.311,894.979,884.311z"/>
</svg>
