<?xml version="1.0" encoding="utf-8"?>
<!-- Generator: Adobe Illustrator 25.1.0, SVG Export Plug-In . SVG Version: 6.00 Build 0)  -->
<svg version="1.1" id="Layer_1" xmlns="http://www.w3.org/2000/svg" xmlns:xlink="http://www.w3.org/1999/xlink" x="0px" y="0px"
	 viewBox="0 0 500 500" style="enable-background:new 0 0 500 500;" xml:space="preserve">
<path id="eos" d="M252.8,7.9c2.1,2,4.5,3.8,6.2,6.1c33.2,45.2,66.3,90.4,99.3,135.8c1.8,2.4,3.2,5.4,3.8,8.4
	c16.3,74.2,32.5,148.4,48.8,222.6c1.4,6.2,0.6,7.8-4.8,11.2c-50.5,31.7-101,63.3-151.6,95c-0.4,0.2-0.6,0.7-0.9,1
	c-1.9,0-3.8,0-5.6,0c-0.8-0.7-1.6-1.4-2.5-2c-50.4-31.6-100.7-63.3-151.2-94.7c-4.5-2.8-4.3-6.5-3.5-10.5
	c4.3-20.1,8.8-40.2,13.2-60.3c11.7-53.6,23.4-107.3,35.3-160.9c0.8-3.8,2.6-7.7,4.9-10.9c32.7-45,65.5-89.8,98.4-134.6
	c1.7-2.3,4.1-4.1,6.2-6.1C250.3,7.9,251.6,7.9,252.8,7.9z M184.5,246.8c13.8,43.6,27.6,86.9,41.2,130c17.3,0,34,0,50.9,0
	c13.8-43.4,27.5-86.7,41.2-130c-22.2-39-44.3-77.8-66.9-117.5C228.5,168.9,206.6,207.7,184.5,246.8z M345.9,157.9
	c-28.9-39.5-57.8-79.1-86.6-118.6c-0.9,24.1-0.9,47.7-0.8,71.2c0,1.6,0.9,3.3,1.7,4.7c20.4,36.2,40.8,72.3,61.2,108.4
	c0.6,1.1,1.4,2.2,2.5,3.8C331.3,203.9,338.6,181.1,345.9,157.9z M178,227c0.8-1.1,1.3-1.5,1.6-2c20.9-36.9,41.9-73.8,62.7-110.8
	c0.8-1.4,1.1-3.2,1.1-4.9c0.1-22.3,0.1-44.7,0-67c0-0.9-0.1-1.7-0.3-3.9c-29.6,40.5-58.4,80-87.3,119.5
	C163.3,180.9,170.6,203.7,178,227z M391.3,376.9c-21.4-37.8-42.4-74.8-63.9-112.7c-12.1,38.2-23.8,75.2-35.7,112.7
	C325.1,376.9,357.7,376.9,391.3,376.9z M174.5,264.6c-21.6,38.1-42.5,75.1-63.8,112.5c33.5,0,66.2,0,99.4,0
	C198.3,339.8,186.6,302.8,174.5,264.6z M264.3,463.4c38.2-24,75.2-47.2,112.2-70.4c-0.2-0.3-0.3-0.6-0.5-0.9c-29.6,0-59.3,0-89.2,0
	C279.4,415.5,272.1,438.8,264.3,463.4z M236.2,462.5c0.3-0.2,0.6-0.4,0.9-0.6c-7.3-23.3-14.7-46.5-22-69.5c-30.2,0-59.8,0-90.8,0
	C162.5,416.3,199.3,439.4,236.2,462.5z M149.5,186.7c-0.3,0-0.6,0-0.9,0c-10.9,49.7-21.7,99.4-32.6,149c0.3,0.1,0.5,0.2,0.8,0.3
	c17.1-30.2,34.3-60.5,51.4-90.7C161.9,225.6,155.7,206.2,149.5,186.7z M333.7,245c17.3,30.5,34.3,60.5,51.3,90.5
	c0.3-0.1,0.6-0.3,0.8-0.4c-10.8-49.5-21.7-99-32.5-148.6c-0.3,0-0.7,0.1-1,0.1C346.1,206,340,225.4,333.7,245z M250.3,454.5
	c0.4,0,0.8,0,1.2,0c6.6-20.6,13.3-41.3,20-62.3c-13.9,0-27,0-40.8,0C237.4,413.3,243.8,433.9,250.3,454.5z"/>
</svg>
