<?xml version="1.0" encoding="iso-8859-1"?>
<!-- Generator: Adobe Illustrator 19.0.0, SVG Export Plug-In . SVG Version: 6.00 Build 0)  -->
<svg version="1.1" id="Layer_1" xmlns="http://www.w3.org/2000/svg" xmlns:xlink="http://www.w3.org/1999/xlink" x="0px" y="0px"
	 viewBox="0 0 2000 2000" style="enable-background:new 0 0 2000 2000;" xml:space="preserve">
<path d="M440.307,344.17c20.905-72.428,40.678-140.937,61.852-214.297c63.481,42.57,124.365,83.398,187.776,125.921
	c4.353,132.449,8.739,265.88,13.513,411.133C612.069,554.846,527.019,450.528,440.307,344.17z M1274.019,1721.108
	c-7.06-143.844-13.537-275.813-20.107-409.687c-62.449-40.493-124.837-80.945-190.344-123.421
	c-19.936,73.833-38.495,142.563-58.202,215.549C1093.841,1508.13,1180.795,1610.914,1274.019,1721.108z M1495.692,1880.525
	c21.405-75.829,41.135-145.724,60.628-214.779c-87.511-106.425-173.097-210.508-264.027-321.092
	c4.999,141.007,9.682,273.116,14.55,410.429C1369.128,1796.456,1431.274,1837.736,1495.692,1880.525z M686.72,1757.845
	c16.132,73.787,31.984,146.295,48.436,221.544c68.42-39.784,131.272-76.331,192.879-112.154
	c11.114-136.918,21.994-270.958,33.66-414.673C865.911,1558.903,776.571,1658.091,686.72,1757.845z M1757.309,668.514
	c40.152-63.675,79.405-125.923,120.718-191.438c-74.069-19.082-144.261-37.165-216.055-55.661
	c-102.579,88.818-204.578,177.135-315.131,272.858C1490.707,685.245,1623.808,676.892,1757.309,668.514z M304.958,1306.279
	c132.625-10.57,265.25-21.141,397.923-31.715c39.397-65.327,77.348-128.255,117.088-194.15
	c-75.803-17.687-147.462-34.408-217.331-50.711c-102.048,91.545-200.615,179.966-299.181,268.388
	C303.957,1300.82,304.457,1303.549,304.958,1306.279z M1182.136,926.123c76.436,19.181,146.776,36.832,216.625,54.36
	c102.236-89.002,202.458-176.251,302.681-263.5c-1.398-2.714-2.797-5.428-4.195-8.141c-130.885,8.252-261.77,16.503-394.996,24.903
	C1261.591,798.865,1222.799,860.995,1182.136,926.123z M121.137,1541.6c76.311,17.179,148.097,33.339,218.144,49.108
	c101.772-93.085,200.318-183.22,306.657-280.483c-142.751,12.735-275.393,24.567-408.842,36.472
	C198.832,1411.011,161.156,1474.336,121.137,1541.6z M708.992,736.632c-134.916-7.634-269.806-15.267-416.308-23.556
	c109.648,93.641,210.077,179.41,312.33,266.736c71.499-17.277,143.128-34.585,220.889-53.375
	C784.998,860.027,747.671,799.427,708.992,736.632z M725.468,298.562c4.127,132.192,8.253,264.384,12.438,398.41
	c61.721,41.693,123.211,83.229,187.114,126.395c21.763-74.93,41.655-143.418,62.161-214.017
	C902.519,504.534,818.021,399.92,733.523,295.305C730.838,296.391,728.153,297.477,725.468,298.562z M1306.973,293.881
	c-90.011,96.916-180.022,193.832-270.266,290.999c14.759,74.293,29.071,146.335,44.199,222.486
	c68.157-38.164,132.26-74.058,194.825-109.09c13.363-136.623,26.331-269.207,39.299-401.791
	C1312.344,295.617,1309.658,294.749,1306.973,293.881z M1755.681,1304.036c72.862-14.609,146.313-29.337,222.607-44.635
	c-38.225-67.978-74.355-132.228-109.494-194.716c-136.786-13.262-269.165-26.096-413.719-40.111
	C1560.353,1122.447,1656.996,1212.292,1755.681,1304.036z M1705.37,1305.614c-106.196-95.405-205.47-184.593-305.108-274.106
	c-73.593,16.056-145.762,31.801-221.378,48.299c38.554,66.454,74.976,129.236,112.103,193.231
	C1428.493,1283.848,1562.301,1294.367,1705.37,1305.614z M541.498,981.39c1.08-3.276,2.161-6.553,3.241-9.829
	C444.517,886.348,344.296,801.136,243.94,715.809c-73.821,18.305-144.961,35.944-220.112,54.579
	c39.942,64.47,77.377,124.895,116.048,187.314C273.901,965.607,407.699,973.498,541.498,981.39z M1308.304,245.134
	c-14.853-75.306-29.056-147.318-43.898-222.569c-63.642,35.335-123.582,68.614-187.768,104.251
	c-14.809,133.227-29.814,268.209-46.175,415.398C1128.341,437.559,1218.456,341.204,1308.304,245.134z M917.571,1194.587
	c-66.079,37.299-129.012,72.823-194.089,109.557c-12.354,133.381-24.689,266.558-38.039,410.693
	c96.601-107.051,185.123-205.15,275.867-305.711C946.768,1337.79,932.611,1268.354,917.571,1194.587z M747.649,260.682
	c84.302,101.366,165.177,198.61,250.852,301.626c16.255-147.996,31.525-287.028,47.493-432.412
	C943.879,174.66,847.269,217.011,747.649,260.682z M555.848,1015.182c-141.065-9.676-272.509-18.693-408.765-28.039
	c40.511,98.841,79.207,193.255,119.594,291.793C364.222,1189.966,456.767,1105.555,555.848,1015.182z M1745.418,735.085
	c-100.465,85.039-196.909,166.675-298.392,252.576c140.373,13.197,272.029,25.575,410.716,38.613
	C1818.694,925.046,1782.466,831.128,1745.418,735.085z M422.574,385.693c-44.55,98.029-86.453,190.233-129.514,284.986
	c131.271,9.15,255.209,17.789,390.009,27.185C592.095,588.844,509.188,489.489,422.574,385.693z M1694.033,1340.873
	c-131.059-10.508-254.73-20.423-388.668-31.161c89.251,106.379,172.393,205.476,259.454,309.246
	C1608.772,1524.367,1650.536,1434.485,1694.033,1340.873z M1357.694,277.003c-15.356,130.76-29.888,254.51-45.394,386.552
	c107.389-85.91,207.34-165.868,312.738-250.185C1532.512,366.174,1446.647,322.376,1357.694,277.003z M992.824,1449.66
	c-9.575,137.829-18.463,265.77-27.693,398.642c97.718-35.819,187.41-68.695,281.515-103.19
	C1162.035,1646.624,1080.53,1551.75,992.824,1449.66z M679.514,1336.646c-103.244,92.034-197.89,176.403-294.74,262.738
	c85.989,41.276,167.927,80.607,257.073,123.399C654.407,1594.032,666.474,1470.326,679.514,1336.646z"/>
</svg>
