<?xml version="1.0" encoding="iso-8859-1"?>
<!-- Generator: Adobe Illustrator 19.0.0, SVG Export Plug-In . SVG Version: 6.00 Build 0)  -->
<svg version="1.1" id="Layer_1" xmlns="http://www.w3.org/2000/svg" xmlns:xlink="http://www.w3.org/1999/xlink" x="0px" y="0px"
	 viewBox="0 0 2000 2000" style="enable-background:new 0 0 2000 2000;" xml:space="preserve">
<path d="M279.591,721.7c234.67-234.776,472.104-472.317,709.446-709.765c236.262,236.157,473.883,473.673,711.125,710.81
	c-77.952,77.783-155.808,155.47-233.799,233.292c-53.79-53.841-108.341-108.446-163.456-163.613
	c23.114-22.146,46.426-44.482,69.753-66.832c-129.667-129.627-257.227-257.148-382.426-382.31
	C862.428,470.238,734.585,597.23,607.661,723.311c126.833,126.859,254.167,254.22,381.701,381.78
	c30.306-30.381,61.034-61.186,90.534-90.758c55.325,55.081,110.105,109.619,164.439,163.713
	c-85.191,85.022-170.507,170.17-254.57,254.067C753.597,1195.866,516.524,958.713,279.591,721.7z M533.2,1037.482
	c-77.536,77.573-155.676,155.751-232.146,232.257c236.394,236.559,473.824,474.155,710.2,710.696
	c236.694-236.87,474.109-474.461,711.863-712.393c-15.707-15.51-31.754-31.322-47.763-47.173
	c-39.023-38.638-78.186-77.136-116.998-115.984c-46.574-46.617-92.804-93.577-139.257-140.316
	c-29.813-29.997-59.758-59.863-89.646-89.787c-31.002-31.039-61.987-62.096-93.017-93.106
	c-24.585-24.568-49.215-49.091-73.848-73.61c-37.449-37.276-74.912-74.538-112.384-111.79
	c-12.931-12.855-25.907-25.664-38.698-38.331c-86.356,86.295-171.801,171.681-256.854,256.674
	c54.325,54.309,109.058,109.026,165.476,165.427c30.104-30.555,60.613-61.521,91.219-92.585
	c127.333,127.284,254.583,254.486,381.87,381.725c-127.527,127.723-255.19,255.583-381.059,381.645
	c-127.929-127.729-255.498-255.097-384.008-383.405c22.474-21.617,45.501-43.766,69.168-66.531
	C641.548,1145.363,587.119,1091.168,533.2,1037.482z"/>
</svg>
