<?xml version="1.0" encoding="iso-8859-1"?>
<!-- Generator: Adobe Illustrator 19.0.0, SVG Export Plug-In . SVG Version: 6.00 Build 0)  -->
<svg version="1.1" id="Layer_1" xmlns="http://www.w3.org/2000/svg" xmlns:xlink="http://www.w3.org/1999/xlink" x="0px" y="0px"
	 viewBox="0 0 2000 2000" style="enable-background:new 0 0 2000 2000;" xml:space="preserve">
<path d="M1130.919,13.668c164.588-1.006,297.518,68.578,409.562,183.194c139.389,142.587,236.522,313.652,318.58,492.863
	c41.628,90.913,77.032,186.145,102.156,282.827c46.289,178.125,20.676,346.976-96.064,495.032
	c-76.182,96.619-171.52,171.907-274.638,238.04c-123.533,79.225-253.057,147.075-388.988,201.954
	c-91.794,37.059-186.749,64.477-286.196,72.828c-185.778,15.6-338.598-52.42-465.176-184.965
	c-129.804-135.923-221.668-296.912-302.992-464.561c-45.123-93.021-83.903-188.641-108.354-289.308
	C6.083,906.832,3.104,773.417,61.964,643.681c35.765-78.83,87.982-145.812,151.048-203.764
	c158.941-146.049,345.536-247.898,541.816-333.698c93.449-40.85,189.98-71.365,291.253-85.235
	C1074.168,17.138,1102.63,16.032,1130.919,13.668z M1586.683,1197.632c-0.056-48.776-28.921-87.71-69.111-101.413
	c-39.346-13.415-72.677,0.171-106.015,19.36c-187.616,107.989-375.561,215.408-563.203,323.353
	c-58.645,33.737-76.846,91.204-44.841,145.971c26.666,45.632,83.184,69.207,144.846,32.372
	c87.424-52.225,176.796-101.181,265.06-152.013c107.192-61.733,213.97-124.185,321.201-185.851
	C1568.783,1259.765,1582.134,1228.696,1586.683,1197.632z M1185.612,486.306c-4.835-31.479-14-61.017-43.195-80.721
	c-42.517-28.695-83.54-22.098-125.35,2.172c-100.636,58.417-201.724,116.055-302.601,174.058
	c-89.799,51.634-179.91,102.739-269.192,155.255c-45.949,27.028-62.26,61.906-57.352,100.523
	c10.178,80.085,89.022,116.143,159.314,75.636c81.917-47.207,163.869-94.35,245.815-141.505
	c112.049-64.477,223.947-129.22,336.253-193.246C1165.16,558.037,1181.234,526.758,1185.612,486.306z M694.317,1284.292
	c21.248-9.204,43.391-16.789,63.573-27.924c55.736-30.75,110.689-62.921,165.886-94.644
	c131.03-75.303,262.16-150.433,392.86-226.305c17.091-9.921,34.989-21.285,47.143-36.321c30.469-37.696,27.839-95.177-2.589-129.086
	c-34.021-37.911-83.627-46.46-129.126-20.432c-146.948,84.065-293.624,168.607-440.281,253.178
	c-54.357,31.346-109.703,61.255-162.099,95.628c-37.98,24.916-49.905,71.712-35.692,112.026
	C609.5,1254.4,645.099,1279.314,694.317,1284.292z"/>
</svg>
