<?xml version="1.0" encoding="iso-8859-1"?>
<!-- Generator: Adobe Illustrator 19.0.0, SVG Export Plug-In . SVG Version: 6.00 Build 0)  -->
<svg version="1.1" id="Layer_1" xmlns="http://www.w3.org/2000/svg" xmlns:xlink="http://www.w3.org/1999/xlink" x="0px" y="0px"
	 viewBox="0 0 2000 2000" style="enable-background:new 0 0 2000 2000;" xml:space="preserve">
<path d="M109.316,426.846c30.757,16.68,61.735,32.966,92.218,50.133c44.919,25.296,89.61,51.006,134.172,76.928
	c65.407,38.047,130.641,76.392,195.898,114.696c56.848,33.368,113.653,66.81,170.43,100.297
	c88.485,52.188,176.877,104.536,265.469,156.542c9.996,5.868,20.787,10.645,31.697,14.571c4.691,1.688,11.52,1.646,15.854-0.579
	c25.154-12.915,50.13-26.233,74.646-40.32c42.24-24.271,84.164-49.096,126.103-73.888c64.745-38.274,129.223-77.002,194.117-115.021
	c97.808-57.303,195.734-114.409,293.892-171.112c55.663-32.155,111.847-63.412,167.896-94.895
	c10.382-5.832,21.241-10.814,33.142-16.826c0.304,5.37,0.682,9.006,0.691,12.643c0.695,302.439,1.427,604.879,1.93,907.318
	c0.054,32.397-1.155,64.798-1.939,97.193c-0.486,20.084-6.695,27.113-25.95,34.967c-10.685,4.358-20.349,11.286-30.332,17.288
	c-31.682,19.047-63.021,38.682-94.997,57.218c-69.048,40.026-138.521,79.318-207.618,119.259
	c-112.321,64.926-224.648,129.845-336.639,195.337c-58.065,33.956-115.969,68.26-172.814,104.197
	c-22.464,14.201-40.149,13.525-62.831-0.077c-99.735-59.811-200.596-117.743-300.893-176.62
	c-58.423-34.296-116.357-69.425-174.872-103.562c-51.399-29.985-103.272-59.159-154.987-88.601
	c-56.259-32.029-113.389-62.643-168.403-96.679c-17.819-11.024-34.313-23.749-53.849-32.327
	c-10.189-4.474-14.66-15.334-14.719-27.577c-0.604-125.448-1.946-250.893-2.18-376.341c-0.364-194.898-0.027-389.797,0.012-584.695
	c0.004-19.27,0-38.539,0-57.809C106.079,427.952,107.697,427.399,109.316,426.846z M1700.577,775.41
	c-14.669,6.935-28.911,12.474-41.957,20.07c-33.334,19.41-65.866,40.199-99.2,59.611c-99.305,57.83-198.847,115.254-298.286,172.855
	c-60.79,35.213-121.639,70.328-182.297,105.768c-19.901,11.628-39.291,24.132-58.902,36.254c-9.392,5.805-18.614,6.493-28.258,0.194
	c-13.266-8.666-26.598-17.271-40.281-25.251c-45.511-26.542-91.223-52.738-136.799-79.168
	c-70.583-40.931-141.233-81.748-211.642-122.977c-84.411-49.428-168.523-99.369-252.97-148.734
	c-11.818-6.908-24.81-11.807-38.106-18.033c0,59.292,0,115.922,0,171.899c15.417,9.513,29.271,18.596,43.618,26.82
	c54.174,31.052,108.69,61.511,162.735,92.786c60.87,35.226,121.428,70.992,182.014,106.707
	c69.703,41.09,139.11,82.687,209.006,123.445c31.741,18.509,64.35,35.53,95.962,52.894c20.425-10.195,38.543-18.017,55.456-27.901
	c58.793-34.361,116.999-69.725,175.747-104.164c64.879-38.033,130.084-75.51,195.193-113.151
	c66.125-38.229,132.354-76.28,198.436-114.583c23.481-13.61,46.666-27.732,70.532-41.946
	C1700.577,891.518,1700.577,835.16,1700.577,775.41z M310.801,1352.401c27.481,15.758,54.63,31.09,81.554,46.807
	c93.489,54.576,186.961,109.184,280.323,163.976c85.268,50.042,170.249,100.573,255.653,150.381
	c25.311,14.762,51.625,27.804,80.174,43.076c232.576-132.699,461.542-270.991,692.797-403.32c0-57.629,0-113.524,0-170.562
	c-5.674,2.234-10.72,3.651-15.219,6.082c-33.837,18.286-67.989,36.044-101.241,55.347
	c-67.896,39.413-135.223,79.807-202.911,119.581c-73.031,42.915-146.2,85.596-219.323,128.355
	c-47.382,27.707-94.914,55.159-142.085,83.219c-10.266,6.107-18.632,6.67-29.169,0.273c-35.367-21.47-71.216-42.151-106.995-62.937
	c-67.33-39.116-134.871-77.87-202.085-117.183c-104.146-60.915-207.999-122.331-312.208-183.137
	c-18.734-10.931-38.586-19.947-59.265-30.535C310.801,1240.089,310.801,1295.703,310.801,1352.401z M1007.778,730.836
	c175.286-104.695,352.557-210.576,528.678-315.77c0-62.447,0-122.945,0-184.269c-3.313,0.705-6.082,0.741-8.316,1.852
	c-31.139,15.486-62.996,29.737-93.117,47.013c-56.679,32.509-112.191,67.044-168.474,100.252
	c-60.827,35.889-121.977,71.231-182.995,106.797c-68.505,39.93-137.028,79.829-205.526,119.772
	c-16.86,9.831-33.652,19.779-50.682,29.795C846.59,658.051,962.344,718.92,1007.778,730.836z M475.693,427.664
	c0.378,0.607,0.612,1.489,1.166,1.799c50.498,28.292,101.075,56.442,151.502,84.862c11.984,6.754,22.663,4.898,33.893-1.902
	c47.218-28.591,94.708-56.734,141.949-85.289c87.778-53.06,175.435-106.32,263.175-159.445
	c38.257-23.164,76.591-46.199,114.749-69.207c0-61.935,0-123.293,0-185.377C1160.381,16.775,497.861,405.945,475.693,427.664z"/>
</svg>
