<?xml version="1.0" encoding="iso-8859-1"?>
<!-- Generator: Adobe Illustrator 19.0.0, SVG Export Plug-In . SVG Version: 6.00 Build 0)  -->
<svg version="1.1" id="Layer_1" xmlns="http://www.w3.org/2000/svg" xmlns:xlink="http://www.w3.org/1999/xlink" x="0px" y="0px"
	 viewBox="0 0 2000 2000" style="enable-background:new 0 0 2000 2000;" xml:space="preserve">
<path d="M1988.957,949.049c-443.714,142.175-886.855,284.166-1332.151,426.847c15.99-61.936,31.489-121.971,47.817-185.215
	c-71.254,22.639-139.97,44.472-212.755,67.597c15.447,24.711,28.463,48.312,44.075,70.047
	c88.447,123.14,207.055,202.203,355.724,230.746c158.109,30.355,304.449-3.21,435.727-97.059
	c94.116-67.282,159.796-156.687,200.57-264.806c2.244-5.95,8.718-12.52,14.661-14.512c51.418-17.243,103.167-33.502,154.814-50.065
	c-41.878,261.901-249.412,502.893-545.495,569.098c-306.31,68.493-649.029-72.459-803.075-397.871
	c-41.259,13.174-82.763,26.426-124.337,39.701c110.919,276.118,425.905,532.377,824.838,506.085
	c447.546-29.496,752.918-381.54,788.995-760.517c49.642-16.115,100.328-32.569,151.272-49.107
	c-0.109,380.497-285.339,844.95-804.702,941.707C588.564,2092.83,133.292,1678.532,33.248,1247.832
	c293.194-93.692,586.626-187.461,883.364-282.285c-16.009,62.505-31.37,122.479-47.577,185.758
	c321.028-103.009,639.111-205.074,957.03-307.086c-74.994-405.437-447.088-704.645-863.674-683.914
	c-504.533,25.108-799.076,441.072-808.918,803.348c29.191-9.154,57.29-20.667,86.521-26.46
	c38.178-7.566,52.481-27.736,58.538-66.441c18.539-118.464,70.252-222.955,145.751-316.072
	c92.202-113.718,209.248-190.075,348.477-232.789c86.598-26.568,175.83-35.484,265.754-27.033
	c145.981,13.72,276.712,66.466,390.779,159.811c110.827,90.695,185.909,205.025,230.601,343.544
	c-224.001,72.406-447.862,144.768-673.698,217.768c15.899-61.799,31.446-122.234,47.71-185.45
	c-175.628,56.588-348.26,112.207-520.889,167.834c-172.315,55.526-344.628,111.059-520.01,167.578
	c-45.576-370.051,63.548-682.142,347.277-923.421C680.349-29.656,1107.902-51.893,1440.085,114.419
	C1793.54,291.381,1977.899,638.536,1988.957,949.049z M1266.019,605.398c-16.169,63.125-31.466,122.842-47.599,185.825
	c88.028-28.304,172.549-55.48,257.819-82.897c-133.416-208.063-369.618-306.689-608.638-251.879
	C645.928,507.28,492.185,684.175,451.728,867.851C722.206,780.674,992.078,693.692,1266.019,605.398z"/>
</svg>
