<?xml version="1.0" encoding="iso-8859-1"?>
<!-- Generator: Adobe Illustrator 19.0.0, SVG Export Plug-In . SVG Version: 6.00 Build 0)  -->
<svg version="1.1" id="Layer_1" xmlns="http://www.w3.org/2000/svg" xmlns:xlink="http://www.w3.org/1999/xlink" x="0px" y="0px"
	 viewBox="0 0 2000 2000" style="enable-background:new 0 0 2000 2000;" xml:space="preserve">
<path d="M998.128,1975.148C462.147,1974.083,9.071,1536.215,23.009,971.316C35.836,451.411,449.521,15.898,1011.416,21.221
	c530.453,5.025,976.178,425.853,965.608,999.619C1967.462,1539.828,1546.086,1971.366,998.128,1975.148z M1400.124,1231.135
	c-274.107,0-542.85,0-817.489,0c141.121,158.889,277.75,312.721,413.817,465.92
	C1130.445,1542.399,1264.322,1387.878,1400.124,1231.135z M1402.513,708.149c-146.788-154.244-290.6-305.362-435.323-457.436
	C837.519,401.932,708.068,552.895,574.938,708.149C853.875,708.149,1126.126,708.149,1402.513,708.149z M293.68,1008.742
	c21.144,0,39.229,0.001,57.314,0c18.196-0.001,36.399,0.335,54.585-0.075c40.475-0.912,71.315-33.722,68.572-75.389
	c-59.72,0-119.666,0-179.429,0c0-14.533,0-26.291,0-39.584c44.047,0,86.074,0.016,128.101-0.004
	c45.001-0.022,69.23-23.524,72.422-70.788c-2.224-1.127-4.662-3.437-7.11-3.448c-68.944-0.308-137.915-1.524-206.824-0.005
	c-33.217,0.732-51.484,23.271-51.775,58.429c-0.468,56.498-1.052,113.026,0.351,169.493c0.518,20.839,6.52,41.542,9.788,60.929
	c14.82,4.647,23.62,9.57,32.567,9.857c54.14,1.731,108.351,4.022,162.463,2.798c30.606-0.692,60.332-35.887,60.382-74.822
	c-66.8,0-133.632,0-201.408,0C293.68,1034.493,293.68,1023.335,293.68,1008.742z M1156.665,819.049
	c2.543,17.803,4.484,31.386,6.349,44.441c29.46,30.202,29.46,30.203,69.943,30.204c37.924,0.001,75.848,0,117.638,0
	c-1.061,16.009-1.807,27.25-2.581,38.935c-54.346,5.171-109.109-10.6-151.986,32.327c-41.428,41.475-37.006,94.022-41.401,148.832
	c10.467,3.617,19.657,9.439,28.925,9.566c60.335,0.825,120.724,1.688,181.023,0c47.26-1.323,64.576-24.098,58.815-74.344
	c-32.014,0-64.38,0-96.746,0c-31.82,0-63.641,0-97.047,0c4.219-29.916,18.83-40.679,43.24-40.297
	c16.28,0.255,32.632-0.9,48.838,0.221c36.436,2.52,65.182-9.038,81.812-43.051c18.373-37.579,16.839-76.778-4.248-110.973
	c-10.083-16.352-33.393-32.995-51.757-34.251C1285.677,816.428,1223.404,819.049,1156.665,819.049z M540.04,1123.985
	c23.805-1.262,43.181-2.289,64.118-3.398c0-35.168,0-63.604,0-93.268c19.739,0,37.527,0,56.361,0
	c25.359,32.289,50.865,64.765,74.128,94.384c28.246,0,51.539,0,82.893,0c-25.837-35.963-47.967-66.766-64.509-89.792
	c16.127-23.753,33.789-42.122,42.561-64.048c33.392-83.461-11.991-148.951-100.918-148.951c-10.528,0-21.057,0-31.585,0
	c-40.72,0-81.44,0-132.899,0c14.318,30.855,25.141,54.179,34.753,74.893c59.149,0,109.836,0,159.701,0
	c21.386,19.765,22.306,28.482,5.544,58.234c-61.707,0-124.559,0-190.15,0c0,8.405,0,14.837,0,21.269
	C540.04,1021.059,540.04,1068.81,540.04,1123.985z M1483.434,968.974c0,20.133,0.925,40.318-0.218,60.386
	c-1.705,29.93,9.335,53.432,32.366,71.861c40.707,32.574,88.288,24.028,133.901,19.85c43.492-3.984,72.599-30.21,75.54-74.67
	c3.287-49.699,5.88-100.463-0.636-149.513c-6.826-51.379-34.838-75.233-75.381-77.602c-29.618-1.731-59.494-1.675-89.121-0.019
	c-41.718,2.331-75.064,38.345-76.324,80.685C1482.877,922.94,1483.439,945.965,1483.434,968.974z M1114.294,818.913
	c-56.383,0-110.888-0.108-165.393,0.033c-45.276,0.117-80.131,25.181-85.816,70.241c-6.037,47.854-9.331,97.058-5.243,144.94
	c5.616,65.785,53.047,96.243,120.044,86.575c14.62-2.11,30.148,0.144,45.028,2.117c45.434,6.024,94.922-26.789,90.072-79.345
	c-59.935,0-120.096,0-182.748,0c-20.177-50.072-9.32-98.421-1.702-149.78c40.074,0,77.172,0.065,114.271-0.017
	C1083.599,893.586,1112.106,865.121,1114.294,818.913z M1657.926,894.517c-34.472,0-65.037,0-101.901,0
	c-20.037,46.544-4.36,96.081-9.728,146.578c40.087,0,75.156,0,117.048,0C1667.545,992.215,1675.297,943.268,1657.926,894.517z"/>
</svg>
