<?xml version="1.0" encoding="iso-8859-1"?>
<!-- Generator: Adobe Illustrator 19.0.0, SVG Export Plug-In . SVG Version: 6.00 Build 0)  -->
<svg version="1.1" id="Layer_1" xmlns="http://www.w3.org/2000/svg" xmlns:xlink="http://www.w3.org/1999/xlink" x="0px" y="0px"
	 viewBox="0 0 2000 2000" style="enable-background:new 0 0 2000 2000;" xml:space="preserve">
<path d="M1379.536,1905.371c0-147.513,0-292.441,0-439.624c-172.863,0-343.878,0-516.733,0c0-123.17,0-244.078,0-367.325
	c148.35,0,296.369,0,446.323,0c0-71.469,0-140.646,0-212.379c-147.767,0-295.75,0-445.924,0c0-107.612,0-212.703,0-320.028
	c170.388,0,339.811,0,511.197,0c0-159.365,0-316.531,0-474.394C1657.687,192.659,1942.144,499,1980.533,896.816
	C2031.489,1424.853,1683.002,1790.917,1379.536,1905.371z M305.33,1465.123c-195.252-289.712-203.216-602.306-20.557-899.834
	c206.734-336.744,522.225-451.189,907.62-388.724c0-46.115,0-94.148,0-141.818C895.186-32.455,470.199,55.748,203.424,421.3
	c-254.245,348.383-248.808,830.821,13.583,1173.695c272.978,356.708,693.517,433.17,975.701,367.864c0-47.845,0-95.97,0-141.929
	C823.566,1882.667,516.51,1778.468,305.33,1465.123z"/>
</svg>
