<?xml version="1.0" encoding="iso-8859-1"?>
<!-- Generator: Adobe Illustrator 19.0.0, SVG Export Plug-In . SVG Version: 6.00 Build 0)  -->
<svg version="1.1" id="Layer_1" xmlns="http://www.w3.org/2000/svg" xmlns:xlink="http://www.w3.org/1999/xlink" x="0px" y="0px"
	 viewBox="0 0 500 500" enable-background="new 0 0 500 500" xml:space="preserve">
<path d="M331.392,494.136c-33.06,0.012-66.12,0.032-99.179,0.008c-97.229-0.07-184.033-61.322-214.033-153.795
	C10.28,316.001,6.483,289.43,5.911,263.766C4.327,192.785,6.323,121.728,5.008,50.736C4.546,25.795,23.68,4.43,51.809,4.811
	C119.544,5.73,187.302,5.988,255.038,5.31c59.19-0.592,112.646,15.142,158.019,53.513c42.424,35.876,72.395,81.028,76.887,136.966
	c4.719,58.772,3.14,118.061,3.964,177.129c0.358,25.704-0.364,51.421-0.22,77.13c0.159,28.334-14.861,43.92-43.525,44.037
	C410.573,494.245,370.982,494.125,331.392,494.136z M432.136,250.373c0.6-100.436-81.744-184.149-184.992-182.225
	C148.16,69.994,66.816,148.213,68.021,253.81c1.125,98.561,83.278,180.631,186.247,178.623
	C353.293,430.502,433.167,347.602,432.136,250.373z M464.393,429.566c-0.044-19.894-15.064-35.691-34.09-35.851
	c-20.216-0.17-37.395,16.417-37.288,36.004c0.103,18.915,17.316,35.281,36.788,34.977
	C449.539,464.387,464.436,449.258,464.393,429.566z M72.785,38.142c-19.876,0.03-35.664,15.759-35.451,35.318
	c0.194,17.774,17.74,35.046,35.654,35.096c17.531,0.049,35.342-18.151,35.08-35.846C107.789,53.861,91.716,38.114,72.785,38.142z
	 M249.407,365.8c68.11-0.178,119.53-56.441,116.085-121.318c-3.273-61.65-50.318-110.123-115.53-110.392
	c-68.615-0.283-117.029,55.604-115.428,115.955C132.809,312.756,185.181,365.968,249.407,365.8z"/>
</svg>
