<?xml version="1.0" encoding="utf-8"?>
<!-- Generator: Adobe Illustrator 25.1.0, SVG Export Plug-In . SVG Version: 6.00 Build 0)  -->
<svg version="1.1" id="Layer_1" xmlns="http://www.w3.org/2000/svg" xmlns:xlink="http://www.w3.org/1999/xlink" x="0px" y="0px"
	 viewBox="0 0 500 500" style="enable-background:new 0 0 500 500;" xml:space="preserve">
<path d="M486.2,159c0,38.8,0,77.6,0,116.4c-4.8,2.2-9.6,4.4-14.4,6.6c-20.9,9.7-41.8,19.3-62.7,29c-17.7,8.2-35.5,16.3-53.2,24.5
	c-14.8,6.8-29.8,13.4-44.4,20.6c-23.4,11.4-47.8,15.3-73.5,10.8c-28.8-5.1-52.6-19.1-71.4-41.5c-2.7-3.2-5.1-6.7-7.8-10.2
	c-21.1,10.1-42.2,20.3-63.4,30.5c0.4,0.7,0.7,1.3,1,1.8c8.5,14.2,18.6,27.1,30.4,38.7c13,12.8,27.6,23.4,43.8,31.9
	c25.3,13.3,52.3,20.6,80.9,21.7c18.5,0.7,36.8-1.3,54.8-6.1c13.4-3.5,26.1-8.8,38.6-14.9c19.3-9.5,38.8-18.6,58.2-27.8
	c24.2-11.6,48.3-23.1,72.5-34.7c2.8-1.3,5.6-2.6,8.7-4.1c0.5,1.9,1.5,3.6,1.5,5.3c0.1,17.9,0.1,35.8,0.1,53.6c0,0.5,0,1-0.1,1.5
	c-12.8,6.2-25.5,12.3-38.2,18.4c-19,9.1-38,18.3-57,27.4c-11.1,5.3-22.1,10.9-33.3,16c-26.4,11.9-54.1,18.7-83.1,20.5
	c-2.9,0.2-5.7,0.4-8.6,0.6c-4.6,0-9.2,0-13.8,0c-0.8-0.1-1.5-0.2-2.3-0.3c-14.4-0.5-28.7-2.4-42.8-5.4c-22.8-5-44.4-13.1-64.9-24.3
	c-23.8-13.1-44.8-29.6-63-49.7c-17.1-18.7-31-39.7-41.6-62.7c-12.9-28.1-20.4-57.5-22.3-88.4c-0.2-2.9-0.4-5.7-0.6-8.6
	c0-4.7,0-9.4,0-14.2c0.1-0.8,0.2-1.5,0.3-2.3c0.4-11.1,1.6-22.1,3.5-33.1c4.1-23.5,11.4-46,22-67.3c14.9-30.1,35.1-56,60.6-77.8
	c17.3-14.8,36.3-27,57-36.4C185,12.7,213.5,5.4,243.4,3.6c2.8-0.2,5.6-0.4,8.4-0.6c4.6,0,9.2,0,13.8,0c0.8,0.1,1.5,0.2,2.3,0.3
	c9.1,0.9,18.2,1.3,27.2,2.6c25.1,3.6,48.9,11.3,71.6,22.5c26.8,13.4,50.4,31,70.8,53.1c18.3,19.8,33,42.1,44,66.8
	C483.2,151.8,484.7,155.5,486.2,159z M431,214.8c0-0.5,0.1-0.9,0.1-1.2c0-14,0-28,0-42c0-0.7-0.2-1.4-0.5-1.9c-2-4-3.8-8.1-6-12.1
	c-15.6-28.7-37.2-51.9-64.7-69.5c-25.1-16-52.6-25.6-82.3-28.7c-15.7-1.7-31.3-1.2-46.9,1.1c-21.3,3.2-41.4,9.8-60.4,20
	c-37.7,20.2-65.5,49.9-83.5,88.7c-14,30.2-19.5,62.1-16.9,95.3c1.1,14,3.8,27.8,7.9,41.2c0.2,0.6,0.4,1.1,0.6,1.8
	c21.4-10.3,42.6-20.5,63.9-30.7c-4.7-19.9-4.5-39.6,0.7-59.2c5.2-19.7,14.8-37,28.7-51.8c13.9-14.8,30.6-25.4,49.9-31.7
	c50.2-16.3,99.4,3.6,125,33.9c-50.2,22.2-100.3,44.4-150.7,66.6c24.9,17.7,49.4,35.2,74.1,52.8C323.8,263.2,377.4,239,431,214.8z"/>
</svg>
