<?xml version="1.0" encoding="iso-8859-1"?>
<!-- Generator: Adobe Illustrator 19.0.0, SVG Export Plug-In . SVG Version: 6.00 Build 0)  -->
<svg version="1.1" id="Layer_1" xmlns="http://www.w3.org/2000/svg" xmlns:xlink="http://www.w3.org/1999/xlink" x="0px" y="0px"
	 viewBox="0 0 2000 2000" style="enable-background:new 0 0 2000 2000;" xml:space="preserve">
<path d="M1983.347,963.599c-0.446,303.529-96.097,537.012-284.983,726.596c-207.324,208.088-463.454,304.824-758.057,288.453
	c-254.076-14.118-471.643-114.749-648.097-297.363C91.544,1473.614,0.304,1222.062,16.45,934.216
	c13.468-240.104,105.849-449.189,273.317-621.258C500.329,96.611,759.995-3.547,1061.195,13.48
	c253.159,14.311,470.019,115.871,645.781,298.218C1890.52,502.117,1982.385,731.708,1983.347,963.599z M1567.595,559.333
	c-9.223-33.214-36.825-52.827-74.435-60.126c-16.381-3.179-33.018-5.312-49.634-6.96c-47.893-4.75-95.813-9.259-143.766-13.353
	c-21.605-1.845-40.43,5.353-56.95,19.564c-11.481,9.876-22.581,21.494-36.008,27.567c-41.826,18.919-87.697,21.627-132.331,23.354
	c-74.741,2.892-149.961,4.308-224.054-9.674c-32.82-6.193-67.998-9.286-89.148-41.594c-1.696-2.591-5.312-3.905-7.987-5.879
	c-29.997-22.134-64.279-15.332-97.197-12.853c-43.85,3.302-87.539,9.019-131.195,14.518c-39.221,4.941-72.591,19.116-87.352,60.181
	c-1.609,4.475-4.527,9.651-8.367,11.96c-22.243,13.374-44.966,25.947-67.486,38.863c-37.6,21.564-59.361,54.84-69.05,96.161
	c-5.192,22.14-6.598,45.213-12.384,67.16c-11.076,42.013-24.192,83.192-26.972,127.272c-3.446,54.641-12.275,108.937-15.914,163.572
	c-3.291,49.412-2.736,99.081-3.856,148.637c-0.102,4.534-0.071,9.071-0.069,13.606c0.022,58.501-3.244,117.241,0.985,175.436
	c4.401,60.55,34.553,109.165,88.538,139.836c28.28,16.067,60.039,23.329,92.322,23.646c25.059,0.246,50.543-2.043,75.167-6.731
	c48.694-9.27,94.676-27.126,131.804-60.735c35.277-31.934,69.269-65.618,100.921-101.123c26.178-29.364,47.967-62.621,71.996-93.927
	c13.961-18.188,26.196-38.59,43.227-53.361c46.578-40.394,105.978-42.427,163.242-46.649c23.937-1.765,48.584,5.752,72.878,9.253
	c39.107,5.636,75.584,18.801,101.157,49.783c37.75,45.734,71.407,94.869,109.576,140.226
	c33.59,39.917,68.216,79.404,111.884,109.439c36.764,25.286,77.409,42.15,120.38,51.758c39.903,8.922,80.956,6.754,120.216-4.828
	c33.696-9.941,65.557-24.327,88.672-53.42c35.381-44.531,44.901-97.128,47.92-151.372c1.433-25.748-1.989-51.751-2.905-77.649
	c-1.395-39.432-2.724-78.869-3.676-118.313c-0.451-18.688,1.226-37.485-0.125-56.083c-3.856-53.113-8.229-106.203-13.47-159.195
	c-3.178-32.131-6.986-64.326-13.063-96.002c-4.553-23.734-14.355-46.425-19.639-70.068c-4.722-21.13-5.053-43.244-9.806-64.364
	c-10.099-44.875-33.973-80.672-74.129-104.702C1615.826,589.187,1594.401,575.777,1567.595,559.333z M551.411,608.991
	c23.486-1.483,45.978-4.183,68.403-3.717c9.525,0.198,21.252,4.66,27.944,11.269c24.529,24.225,55.479,32.491,86.762,43.67
	c55.53,19.844,112.399,16.67,169.068,19.076c54.145,2.299,108.415,4.266,162.562,3.131c52.702-1.105,105.996-2.252,157.781-10.88
	c52.751-8.789,106.836-20.611,143.35-66.692c27.68,1.397,54.725,2.762,82.724,4.175c42.523,38.005,86.837,75.286,141.36,97.84
	c24.198,10.01,22.781,34.018,26.259,53.398c8.557,47.687,14.898,95.817,20.7,143.941c5.587,46.333,8.909,92.936,14.098,139.323
	c4.957,44.321,11.922,88.43,16.27,132.802c2.365,24.13,0.234,48.668,1.712,72.925c2.307,37.855,5.79,75.642,9.083,113.431
	c4.582,52.572-39.016,81.724-90.228,62.776c-47.016-17.395-82.943-48.392-116.93-83.415c-22.979-23.68-49.764-43.935-70.956-69.009
	c-22.166-26.225-39.821-56.285-59.187-84.846c-27.883-41.121-58.078-78.236-108.736-94.493
	c-32.927-10.568-62.833-30.46-95.692-41.352c-54.381-18.025-110.323-24.799-168.403-19.788
	c-69.436,5.991-131.835,28.517-195.374,56.558c-61.844,27.293-98.963,71.85-129.568,126.727
	c-22.508,40.357-56.624,70.581-89.062,101.909c-31.161,30.094-63.901,58.964-98.595,84.819
	c-18.102,13.49-41.118,23.198-63.319,27.716c-33.333,6.784-65.715-11.667-67.251-49.826c-1.106-27.478,3.779-55.16,5.236-82.79
	c1.24-23.514,0.765-47.123,2.188-70.62c2.09-34.512,4.962-68.982,7.945-103.432c2.168-25.038,4.87-50.035,7.665-75.013
	c4.217-37.674,8.784-75.309,13.085-112.974c2.542-22.259,4.231-44.635,7.405-66.8c6.47-45.173,12.178-90.559,21.63-135.129
	c2.427-11.442,15.806-23.958,27.283-29.496C468.926,679.933,511.298,645.236,551.411,608.991z M999.027,894.564
	c0,8.628-0.04,15.403,0.007,22.178c0.18,26.118,17.073,44.548,43.416,44.975c43.621,0.707,87.335,1.707,130.868-0.382
	c25.744-1.236,43.954-8.218,43.488-44.954c-0.173-13.598-1.033-27.291,0.2-40.778c2.002-21.888-16.304-43.644-40.753-43.134
	c-30.804,0.643-61.632,0.157-92.45,0.158c-11.062,0-22.124,0-32.814,0c0-13.772,0-24.895,0-37.426
	c31.947,0,62.997,0.554,94.014-0.231c15.818-0.4,27.673,3.303,31.932,19.504c13.41,0,26.159,0,38.674,0
	c9.034-54.67-19.027-66.022-48.759-66.686c-39.646-0.885-79.328-0.343-118.993-0.168c-22.81,0.101-49.623,18.222-45.805,46.453
	c2.107,15.582,0.129,31.687,0.439,47.547c0.465,23.791,15.405,38.565,38.826,38.617c37.438,0.083,74.876-0.012,112.314,0.066
	c4.891,0.01,9.78,0.596,14.144,0.88c0,11.79,0,22.156,0,32.788c-35.896,0-70.425,0-106.866,0
	c-4.454-6.086-9.502-12.985-14.202-19.407C1031.244,894.564,1016.068,894.564,999.027,894.564z M1481.311,909.381
	c-45.366,0-89.578,0-138.433,0c38.066-31.321,71.259-60.096,106.044-86.799c28.6-21.954,38.708-43.327,29.55-74.054
	c-73.091,0-146.474,0-222.261,0c0.674,15.415,1.327,30.36,2.075,47.461c48.634,0,96.16,0,145.97,0
	c-4.121,4.409-5.855,6.709-8.01,8.503c-38.676,32.191-77.335,64.402-116.155,96.419c-13.575,11.196-29.193,20.789-22.736,42.833
	c1.26,4.301-0.699,9.545-1.37,16.348c74.925,0,149.693,0,225.327,0C1481.311,944.672,1481.311,929.015,1481.311,909.381z
	 M960.453,748.502c-71.117,0-139.881,0-208.712,0c0,18.435,0,35.635,0,51.904c69.976,0,138.866,0,208.712,0
	C960.453,782.738,960.453,766.675,960.453,748.502z M960.325,826.953c-71.199,0-139.915,0-208.332,0c0,17.211,0,33.27,0,49.014
	c70.26,0,139.178,0,208.332,0C960.325,859.564,960.325,844.078,960.325,826.953z M960.483,915.412c-70.4,0-139.616,0-208.509,0
	c0,17.224,0,33.255,0,48.978c70.511,0,139.696,0,208.509,0C960.483,947.342,960.483,931.806,960.483,915.412z M554.024,808.162
	c9.325,3.084,21.041,10.949,30.925,9.087c9.563-1.8,22.023-12.235,24.647-21.344c4.134-14.353,1.099-30.771,1.099-47.274
	c-20.487,0-38.224,0-56.671,0C554.024,766.855,554.024,784.27,554.024,808.162z M610.515,900.12
	c-6.628-4.18-14.074-10.015-22.428-13.89c-14.373-6.668-33.712,4.736-34.553,20.436c-0.836,15.607-0.183,31.294-0.183,47.433
	c19.996,0,38.263,0,57.164,0C610.515,936.847,610.515,920.583,610.515,900.12z M480.092,822.745c0,19.814,0,38.048,0,56.868
	c17.971,0,34.335,0,53.522,0c5.469-8.716,11.803-18.811,18.387-29.304c-7.411-10.694-13.651-19.699-19.101-27.564
	C513.937,822.745,497.532,822.745,480.092,822.745z M681.87,822.441c-14.972,0-29.029-0.541-43.024,0.154
	c-13.598,0.676-24.419,14.266-24.269,28.992c0.139,13.624,10.851,27.721,23.072,28.422c14.471,0.829,29.026,0.195,44.221,0.195
	C681.87,860.548,681.87,842.647,681.87,822.441z"/>
</svg>
