<?xml version="1.0" encoding="iso-8859-1"?>
<!-- Generator: Adobe Illustrator 19.0.0, SVG Export Plug-In . SVG Version: 6.00 Build 0)  -->
<svg version="1.1" id="Layer_1" xmlns="http://www.w3.org/2000/svg" xmlns:xlink="http://www.w3.org/1999/xlink" x="0px" y="0px"
	 viewBox="0 0 399.779 399.765" style="enable-background:new 0 0 399.779 399.765;" xml:space="preserve">
<path d="M199.787,399.764C90.706,400.026-1.229,311.366,0.012,197.721C1.203,88.735,88.409-0.922,202.36,0.007
	C310.116,0.886,402.85,88.85,399.701,206.496C396.9,311.144,310.752,399.833,199.787,399.764z M200.21,365.764
	c90.954,0.106,165.591-74.277,165.644-166.015c0.052-89.929-74.352-169.446-173.464-165.581
	C109.509,37.4,29.93,107.091,34.215,208.379C37.775,292.521,107.408,365.614,200.21,365.764z M154.929,251.286
	c0-43.548,0-86.415,0-129.189c-11.116,0-21.533,0-32.258,0c0,54.039,0,107.745,0,161.56c53.29,0,106.025,0,158.953,0
	c0-10.752,0-21.028,0-32.37C239.344,251.286,197.48,251.286,154.929,251.286z M281.52,154.324c0-11.017,0-21.603,0-32.209
	c-32.344,0-64.386,0-96.557,0c0,10.815,0,21.279,0,32.209C217.494,154.324,249.521,154.324,281.52,154.324z M185.175,219.005
	c25.038,0,49.717,0,74.406,0c0-10.897,0-21.32,0-31.991c-24.81,0-49.383,0-74.406,0
	C185.175,197.812,185.175,208.332,185.175,219.005z"/>
</svg>
