<?xml version="1.0" encoding="utf-8"?>
<!-- Generator: Adobe Illustrator 24.1.0, SVG Export Plug-In . SVG Version: 6.00 Build 0)  -->
<svg version="1.1" id="ETC" xmlns="http://www.w3.org/2000/svg" xmlns:xlink="http://www.w3.org/1999/xlink" x="0px" y="0px"
	 viewBox="0 0 500 500" style="enable-background:new 0 0 500 500;" xml:space="preserve">
<g>
	<polygon points="250.8,169.8 250.8,169.9 250.8,169.9 101.6,249.5 250.9,328.7 250.9,328.7 250.9,328.7 398.1,249 398.1,249 
		398.1,249 398,249 398.1,248.9 	"/>
	<path d="M404.3,272.3l-153.7,82.5c-43.9-23.4-100.6-53.6-154.9-82.5c46,67.8,103.2,151.7,154.9,227.7
		c51.7-76.2,98.1-145,153.8-227.7H404.3C404.3,272.4,404.3,272.3,404.3,272.3z"/>
	<polygon points="404.4,226.4 250,0 95.6,225.9 250.6,144.3 	"/>
</g>
</svg>
