<?xml version="1.0" encoding="iso-8859-1"?>
<!-- Generator: Adobe Illustrator 19.0.0, SVG Export Plug-In . SVG Version: 6.00 Build 0)  -->
<svg version="1.1" id="Layer_1" xmlns="http://www.w3.org/2000/svg" xmlns:xlink="http://www.w3.org/1999/xlink" x="0px" y="0px"
	 viewBox="0 0 500 500" style="enable-background:new 0 0 500 500;" xml:space="preserve">
<path id="XMLID_4_" d="M397.955,250.166c-21.861,11.701-42.797,22.908-63.733,34.113c-24.051,12.872-48.047,25.849-72.234,38.459
	c-2.6,1.356-6.994,1.874-9.406,0.601c-44.587-23.525-89-47.38-133.441-71.182c-0.911-0.488-1.716-1.175-3.335-2.301
	c2.052-1.365,3.497-2.509,5.097-3.364c43.694-23.347,87.378-46.712,131.18-69.855c2.264-1.196,6.139-1.591,8.267-0.469
	c44.977,23.721,89.813,47.712,134.665,71.67C395.744,248.231,396.339,248.875,397.955,250.166z M401.469,225.26
	c-48.056-71.043-96.113-142.086-144.806-214.07c-49.414,72.493-97.993,143.762-146.572,215.03c2.952,0.196,4.856-0.663,6.697-1.643
	c44.526-23.708,89.085-47.356,133.51-71.252c4.732-2.545,8.328-2.822,13.181-0.179c34.904,19.009,69.978,37.706,105,56.497
	c10.542,5.657,21.092,11.3,31.638,16.949C400.568,226.149,401.019,225.705,401.469,225.26z M400.354,272.623
	c-1.919,0.981-3.856,1.929-5.754,2.947c-43.869,23.54-87.771,47.022-131.545,70.738c-4.369,2.367-7.605,2.385-11.992,0.029
	c-45.205-24.28-90.535-48.328-135.842-72.417c-1.4-0.744-2.931-1.242-4.401-1.854c-0.256,0.322-0.513,0.644-0.769,0.966
	c48.641,71.335,97.282,142.669,146.629,215.039c48.774-72.11,96.861-143.205,144.949-214.3
	C401.204,273.388,400.779,273.006,400.354,272.623z"/>
</svg>
