<?xml version="1.0" encoding="iso-8859-1"?>
<!-- Generator: Adobe Illustrator 19.0.0, SVG Export Plug-In . SVG Version: 6.00 Build 0)  -->
<svg version="1.1" id="Layer_1" xmlns="http://www.w3.org/2000/svg" xmlns:xlink="http://www.w3.org/1999/xlink" x="0px" y="0px"
	 viewBox="0 0 500 500" style="enable-background:new 0 0 500 500;" xml:space="preserve">
<path id="XMLID_4_" d="M252.642,9.984c10.351,17.14,20.295,33.583,30.217,50.039c38.602,64.019,77.113,128.093,115.934,191.979
	c3.673,6.044,2.696,8.243-3.22,11.687c-46.222,26.912-92.217,54.212-138.214,81.508c-2.91,1.727-5.023,2.838-8.457,0.797
	c-47.622-28.316-95.34-56.47-143.027-84.677c-0.967-0.572-1.849-1.288-3.31-2.316C152.468,176.199,202.299,93.516,252.642,9.984z
	 M401.979,280.425c-1.951-0.327-3.107,0.171-4.182,0.806c-45.974,27.176-91.992,54.278-137.84,81.663
	c-5.456,3.259-9.345,3.725-15.176,0.222c-44.37-26.655-89.023-52.839-133.593-79.162c-2.005-1.184-4.059-2.287-6.09-3.427
	c-0.265,0.385-0.531,0.77-0.796,1.155c49.307,69.485,98.615,138.97,148.364,209.077C302.681,420.303,352.33,350.364,401.979,280.425
	z"/>
</svg>
