<?xml version="1.0" encoding="iso-8859-1"?>
<!-- Generator: Adobe Illustrator 19.0.0, SVG Export Plug-In . SVG Version: 6.00 Build 0)  -->
<svg version="1.1" id="Layer_1" xmlns="http://www.w3.org/2000/svg" xmlns:xlink="http://www.w3.org/1999/xlink" x="0px" y="0px"
	 viewBox="0 0 500 500" style="enable-background:new 0 0 500 500;" xml:space="preserve">
<path d="M99.805,383.642c-68.411-75.294-70.132-194.557,1.247-272.146c74.636-81.129,189.419-79.775,255.974-34.581
	c-72.611,37.435-144.822,74.664-218.11,112.448c15.744,10.968,30.683,21.375,46.323,32.27
	c-28.512,14.619-56.144,28.785-84.531,43.34c21.983,16.639,43.198,32.698,65.04,49.23
	C143.747,337.372,121.964,360.309,99.805,383.642z M257.75,371.801c-34.559,17.819-69.102,35.668-103.978,53.673
	c64.223,39.273,176.514,39.293,249.392-43.685c70.781-80.59,61.655-196.653,2.625-262.681c-23.56,24.519-47.024,49.1-70.362,74.183
	c21.916,16.598,43.117,32.654,64.897,49.149c-28.601,14.668-56.294,28.871-84.591,43.383c15.671,10.841,30.544,21.131,46.498,32.169
	C326.51,336.387,292.122,354.078,257.75,371.801z M71.821,445.378c83.691-43.085,167.363-86.206,252.038-129.842
	c-16.01-11.126-30.997-21.541-46.519-32.327c29.007-14.86,57.133-29.268,86.007-44.06c-10.214-7.698-19.642-14.638-28.884-21.816
	c-9.378-7.284-19.291-13.915-28.424-21.993c43.043-45.349,85.57-90.155,128.396-135.276c-0.966-0.108-1.266-0.243-1.449-0.149
	c-50.497,26.067-100.974,52.174-151.479,78.224c-31.067,16.024-62.181,31.957-93.263,47.952c-3.42,1.76-7.017,3.28-10.346,6.276
	c15.349,10.645,30.184,20.935,45.823,31.781c-28.87,14.805-57.03,29.246-85.898,44.05c19.443,14.784,38.224,29.065,57.409,43.654
	c-42.447,44.705-84.284,88.768-126.983,133.739C70.417,445.482,71.245,445.675,71.821,445.378z M65.535,95.049
	C-22.526,201.06,4.211,341.881,74.418,410.37c4.172-4.462,8.34-8.92,12.831-13.724c-37.445-41.718-56.947-90.743-57.423-146.436
	c-0.479-56.041,18.249-105.744,55.513-147.818c34.075-38.473,76.724-62.58,127.419-71.252
	c59.202-10.127,113.799,2.627,163.534,35.887c6.455-3.341,12.553-6.498,18.897-9.781C305.2-14.507,155.065-12.729,65.535,95.049z
	 M421.175,388.228c-64.583,78.958-184.505,109.605-287.585,47.641c-6.218,3.261-12.657,6.638-19.508,10.231
	c103.513,71.542,247.088,52.159,326.829-50.975c78.369-101.359,56.882-233.225-8.399-302.512c-4.58,4.043-9.174,8.1-14.086,12.436
	C491.873,193.835,484.352,310.988,421.175,388.228z"/>
</svg>
