<?xml version="1.0" encoding="iso-8859-1"?>
<!-- Generator: Adobe Illustrator 19.0.0, SVG Export Plug-In . SVG Version: 6.00 Build 0)  -->
<svg version="1.1" id="Layer_1" xmlns="http://www.w3.org/2000/svg" xmlns:xlink="http://www.w3.org/1999/xlink" x="0px" y="0px"
	 viewBox="0 0 2000 2000" style="enable-background:new 0 0 2000 2000;" xml:space="preserve">
<path d="M963.86,1396.55c0-43.13,0-88.564,0-139.24c-80.282-22.019-147.945-71.138-186.553-153.385
	c-38.221-81.424-32.643-163.145,10.342-247.998c-113.132-101.959-225.888-203.58-341.262-307.559
	c-85.908,53.885-175.521,70.091-268.748,27.806C108.665,544.89,60.559,492.811,33.623,421.022
	C-15.3,290.635,48.469,141.632,177.137,88.154c149.762-62.245,285.94,5.698,369.558,186.249c9.902,0.978,21.159,2.987,32.427,3.051
	c57.58,0.326,115.163,0.151,173.864,0.151c45.568-132.129,128.038-213.95,273.533-207.97
	c132.405,5.441,208.377,84.872,253.161,204.763c58.955,0,117.497,0,175.34,0c86.469-173.85,187.445-234.352,329.905-198.717
	c122.339,30.603,203.274,140.789,199.944,272.209c-2.979,117.567-92.692,225.023-205.82,246.646
	c-107.451,20.538-251.179-14.547-320.959-204.871c-57.337,0-115.947,0-176.061,0c-42.065,126.135-122.918,208.614-261.826,208.861
	c-138.559,0.247-219.327-83.016-265.807-209.044c-68.6,0-136.998,0-206.558,0c-11.648,27.465-23.118,54.512-37.667,88.818
	C619.635,578.517,731.564,680.99,845.771,785.547c81.965-57.296,170.225-74.214,263.166-40.134
	c71.183,26.102,121.473,77.243,152.374,147.081c65.583,148.223-5.213,290.139-188.062,368.239
	c-1.132,19.906-2.917,42.322-3.542,64.77c-0.639,22.954-0.142,45.941-0.142,72.288c119.517,39.352,197.172,116.351,215.448,248.611
	c50.475,0,100.579,0,155.536,0c14.41-92.002,56.996-168.883,143.784-214.647c52.896-27.893,109.747-35.002,168.246-24.668
	c123.855,21.882,217.189,130.034,222.059,255.896c4.601,118.927-76.921,234.026-193.128,262.274
	c-117.136,28.474-245.192-2.909-326.969-171.444c-58.703,0-119.071,0-183.415,0c-33.88,71.258-81.859,131.677-162.112,159.67
	c-53.277,18.584-106.493,21.278-160.275,5.172c-111.272-33.321-191.236-132.461-195.757-241.525
	C747.466,1544.119,813.031,1455.199,963.86,1396.55z M1981.074,997.309c0.183-147.778-121.668-267.777-272.59-268.448
	c-141.154-0.627-261.056,120.677-260.078,263.121c1.007,146.811,122.169,268.252,267.793,268.411
	C1862.747,1260.553,1980.893,1143.206,1981.074,997.309z M555.415,1673.076c1.623-144.61-120.35-268.33-266.026-269.835
	c-146.877-1.517-266.759,115.955-266.341,260.987c0.432,149.923,120.149,269.028,270.601,269.219
	C436.775,1933.629,553.797,1817.23,555.415,1673.076z M280.728,1260.393c144.135,0.168,259.885-115.977,260.091-260.978
	c0.213-150.892-117.772-269.358-268.578-270.66C108.165,727.338,2.419,876.522,13.017,989.649
	C13.023,1141.835,130.079,1260.217,280.728,1260.393z"/>
</svg>
