<?xml version="1.0" encoding="iso-8859-1"?>
<!-- Generator: Adobe Illustrator 19.0.0, SVG Export Plug-In . SVG Version: 6.00 Build 0)  -->
<svg version="1.1" id="Layer_1" xmlns="http://www.w3.org/2000/svg" xmlns:xlink="http://www.w3.org/1999/xlink" x="0px" y="0px"
	 viewBox="0 0 500 500" style="enable-background:new 0 0 500 500;" xml:space="preserve">
<path d="M246.516,496.435c-2.538-3.501-4.334-5.564-5.677-7.89c-24.379-42.227-48.692-84.491-73.049-126.731
	c-4.441-7.701-8.774-15.481-13.615-22.928c-2.873-4.42-6.332-8.565-10.055-12.308c-23.127-23.253-46.422-46.34-69.6-69.542
	c-2.102-2.104-3.773-4.639-6.036-7.462c2.473-2.836,4.463-5.4,6.737-7.681c23.174-23.234,46.544-46.275,69.488-69.734
	c5.247-5.365,9.662-11.78,13.45-18.298c27.693-47.649,55.122-95.452,82.669-143.187c1.354-2.346,3.031-4.505,5.185-7.675
	c2.361,3.5,4.328,6.068,5.933,8.845c28.694,49.669,57.159,99.472,86.205,148.934c4.277,7.283,10.997,13.238,17.046,19.353
	c20.935,21.161,42.085,42.109,63.116,63.175c1.938,1.941,3.616,4.14,6.589,7.577c-13.597,13.114-27.017,25.874-40.226,38.848
	c-13.608,13.366-27.721,26.322-40.243,40.653c-7.733,8.85-13.195,19.768-19.179,30.047c-21.723,37.314-43.232,74.752-64.834,112.137
	C256.112,480.024,251.752,487.45,246.516,496.435z M246.994,85.218c-3.244,3.042-5.107,4.71-6.882,6.467
	c-19.876,19.686-39.902,39.225-59.529,59.156c-8.879,9.016-18.351,17.927-25.105,28.456c-13.558,21.135-25.347,43.4-38.085,65.07
	c-2.222,3.78-2.308,6.66-0.05,10.462c9.076,15.282,17.665,30.854,26.76,46.124c6.09,10.224,11.33,21.452,19.383,29.917
	c25.233,26.526,51.612,51.962,77.57,77.798c1.565,1.558,3.325,2.921,5.188,4.542c1.531-1.325,2.728-2.238,3.783-3.293
	c26.274-26.261,52.558-52.512,78.757-78.849c2.485-2.498,4.776-5.337,6.551-8.372c13.083-22.364,25.939-44.861,39.056-67.204
	c2.352-4.006,2.363-7.253,0.012-11.269c-9.751-16.653-18.96-33.627-28.911-50.156c-5.856-9.726-11.743-19.746-19.356-28.036
	c-15.472-16.846-32.188-32.547-48.269-48.839C267.701,106.895,257.756,96.38,246.994,85.218z M245.988,71.413
	c21.039,20.823,41.359,40.935,61.679,61.047c0.479-0.439,0.957-0.879,1.436-1.318c-20.798-35.91-41.597-71.82-63.117-108.977
	c-21.454,37.118-42.113,72.86-62.772,108.602c0.6,0.413,1.201,0.825,1.801,1.238C205.126,112.02,225.237,92.034,245.988,71.413z
	 M247.036,429.039c-22.29-22.214-42.866-42.719-63.442-63.223c-0.481,0.355-0.962,0.711-1.443,1.066
	c21.035,36.336,42.071,72.671,63.886,110.354c21.797-37.702,42.526-73.558,63.255-109.413c-0.54-0.414-1.081-0.828-1.621-1.242
	C287.798,387.051,267.925,407.522,247.036,429.039z M366.128,207.086c-0.317,0.199-0.635,0.397-0.952,0.596
	c5.232,9.129,9.686,18.831,15.892,27.241c7.725,10.47,7.535,19.303-0.178,29.725c-6.468,8.739-11.069,18.86-16.497,28.369
	c0.22,0.091,0.441,0.181,0.661,0.272c14.633-14.576,29.267-29.152,43.442-43.272C394.465,235.8,380.296,221.443,366.128,207.086z
	 M83.862,248.312c14.842,14.944,29.212,29.412,42.769,43.061c-0.038-0.09-0.477-1.519-1.207-2.78
	c-5.719-9.868-11.074-19.984-17.391-29.457c-4.63-6.944-4.375-12.636,0.207-19.423c5.657-8.379,10.418-17.369,15.471-26.149
	c1.263-2.195,2.166-4.597,3.692-7.893C111.948,220.808,97.493,234.964,83.862,248.312z M246.042,190.593
	c-21.976,19.835-43.652,39.399-65.528,59.144c22.401,20.133,44.026,39.568,65.765,59.107c20.979-19.614,42.039-39.305,63.435-59.309
	C288.665,230.049,267.399,210.363,246.042,190.593z"/>
</svg>
