<?xml version="1.0" encoding="iso-8859-1"?>
<!-- Generator: Adobe Illustrator 19.0.0, SVG Export Plug-In . SVG Version: 6.00 Build 0)  -->
<svg version="1.1" id="Layer_1" xmlns="http://www.w3.org/2000/svg" xmlns:xlink="http://www.w3.org/1999/xlink" x="0px" y="0px"
	 viewBox="0 0 2000 2000" style="enable-background:new 0 0 2000 2000;" xml:space="preserve">
<path d="M492.939,1203.527c50.043-3.093,95.48-5.604,140.872-8.764c114.599-7.977,226.945-27.193,338.13-57.486
	c144.956-39.493,280.269-98.768,407.134-178.489c83.835-52.681,162.665-111.665,225.37-189.057
	c91.671-113.142,142.079-239.694,117.632-388.293c-2.747-16.7-8.541-32.899-6.292-53.481c28.875,38.751,59.194,76.52,86.331,116.451
	c60.952,89.691,114.199,183.749,141.654,289.625c30.929,119.272,39.312,239.816,31.531,363.744
	c-4.655,74.139-55.852,103.295-99.307,138.992c-129.007,105.973-264.12,203.871-412.427,282.36
	c-144.448,76.447-295.246,135.473-458.604,150.132c-115.713,10.383-232.62,9.258-337.365-56.586
	c-61.712-38.794-105.445-92.137-132.499-159.033C503.045,1374.38,490.351,1291.644,492.939,1203.527z M726.312,1016.849
	c189.72-36.993,359.959-114.925,502.826-247.633c105.385-97.892,165.299-215.413,152.417-362.653
	c-7.797-89.119-55.318-147.287-133.594-160.865c-129.38-22.442-244.045,16.693-347.553,91.443
	C768.74,432.227,673.351,558.022,604.045,703.696c-50.618,106.394-82.411,218.787-100.495,347.72
	C582.176,1039.388,654.766,1030.8,726.312,1016.849z M222.195,408.025C107.997,556.719,48.429,727.477,27.431,913.307
	c-21.825,193.145,50.928,458.009,108.027,522.458c-68.496-362.313,10.328-690.938,254.617-971.199
	C633.365,185.451,944.42,55.676,1324.516,80.124C1048.986-39.353,542.059-8.455,222.195,408.025z M1782.649,1548.559
	c-187.021,128.862-383.634,239.274-602.956,303.274c-151.314,44.154-305.484,70.512-464.23,55.157
	c-23.456-2.269-46.92-4.448-70.381-6.669c204.802,87.729,415.198,99.503,626.57,37.788
	c233.501-68.176,419.026-205.131,547.31-415.599C1806.865,1531.203,1794.913,1540.108,1782.649,1548.559z"/>
</svg>
