<?xml version="1.0" encoding="iso-8859-1"?>
<!-- Generator: Adobe Illustrator 19.0.0, SVG Export Plug-In . SVG Version: 6.00 Build 0)  -->
<svg version="1.1" id="Layer_1" xmlns="http://www.w3.org/2000/svg" xmlns:xlink="http://www.w3.org/1999/xlink" x="0px" y="0px"
	 viewBox="0 0 2000 2000" style="enable-background:new 0 0 2000 2000;" xml:space="preserve">
<path d="M504.457,1340.069c103.452,0,203.943,0,306.743,0c46.826,81.05,93.563,161.945,142.426,246.52
	c-200.446,0-395.471,0-594.875,0c-111.277-192.685-223.826-387.573-337.257-583.988C134.353,807.188,247.632,611.048,360.96,414.825
	c224.812,0,447.928,0,676.622,0c109.053,188.677,219.525,379.809,330.974,572.633c-46.967,81.121-93.996,162.348-144.258,249.16
	c-112.613-194.613-222.268-384.113-331.791-573.386c-129.315,0-255.835,0-386.529,0c-64.699,111.853-130.168,225.037-198.805,343.7
	c106.518,0,208.487,0,311.036,0c48.427,83.225,95.027,163.308,144.454,248.252c-101.105,0-197.749,0-305.117,0
	C475.875,1288.349,490.14,1314.161,504.457,1340.069z M858.092,765.183c-49.262,85.208-95.155,164.589-142.646,246.732
	c110.412,191.255,221.307,383.348,332.091,575.247c226.039,0,450.49,0,677.726,0c84.106-145.869,168.372-292.016,254.302-441.048
	c-99.68,0-191.584,0-284.87,0c-37.849,65.02-75.004,128.847-112.254,192.838c-131.069,0-260.411,0-392.689,0
	C1079.516,1148.244,970.235,959.19,858.092,765.183z M1726.208,419.083c-194.85,0-390.672,0-592.209,0
	c47.907,83.177,93.411,162.182,139.665,242.489c102.351,0,204.138,0,306.303,0c39.118,67.348,77.448,133.338,114.693,197.46
	c95.623,0,187.513,0,285.044,0C1894.524,711.201,1811.343,566.836,1726.208,419.083z"/>
</svg>
