<?xml version="1.0" encoding="iso-8859-1"?>
<!-- Generator: Adobe Illustrator 19.0.0, SVG Export Plug-In . SVG Version: 6.00 Build 0)  -->
<svg version="1.1" id="Layer_1" xmlns="http://www.w3.org/2000/svg" xmlns:xlink="http://www.w3.org/1999/xlink" x="0px" y="0px"
	 viewBox="0 0 500 500" enable-background="new 0 0 500 500" xml:space="preserve">
<path d="M263.8,495.612c0-10.301,0-19.029,0-27.758c0-132.546,0.02-265.091-0.071-397.637c-0.004-5.501,0.778-9.599,5.445-13.742
	c11.451-10.167,11.258-27.646,0.592-38.518c-10.843-11.053-28.502-10.926-39.25,0.282c-10.565,11.017-10.475,28.399,1.019,38.535
	c4.167,3.675,5.024,7.291,5.021,12.277c-0.088,135.828-0.07,271.655-0.07,407.483c0,1.01,0.015,2.02-0.003,3.03
	c-0.145,8.328-2.888,9.951-10.211,5.711c-20.932-12.12-41.8-24.351-62.69-36.543c-33.293-19.431-66.439-39.122-99.945-58.178
	c-13.968-7.944-20.448-19.019-20.386-35.044c0.244-63.369,0.084-126.739,0.116-190.108c0.005-10.75,2.176-12.029,11.31-7.009
	c38.634,21.233,77.257,42.485,115.928,63.651c3.9,2.134,6.252,4.404,7.335,9.361c3.339,15.287,19.647,23.919,34.734,19.288
	c14.22-4.365,22.235-20.027,17.664-34.515c-4.58-14.513-20.771-22.644-35.251-17.097c-4.575,1.753-7.884,1.087-11.856-1.114
	c-37.235-20.633-74.641-40.958-111.79-61.744c-12.112-6.777-24.086-11.479-39.22-4.154c5.025-12.182,11.786-20.913,21.305-26.663
	c27.383-16.54,55.116-32.502,82.772-48.588c25.699-14.948,51.668-29.441,77.161-44.73c24.659-14.789,48.571-14.737,73.406-0.141
	c50.176,29.489,100.656,58.463,151.162,87.385c23.583,13.504,35.332,33.158,35.172,60.572c-0.345,59.328-0.267,118.66-0.035,177.989
	c0.105,26.769-11.475,46.224-34.51,59.419c-32.575,18.66-65.038,37.518-97.549,56.291c-19.2,11.087-38.311,22.334-57.652,33.169
	C277.179,490.289,270.3,492.727,263.8,495.612z"/>
</svg>
