<?xml version="1.0" encoding="iso-8859-1"?>
<!-- Generator: Adobe Illustrator 19.0.0, SVG Export Plug-In . SVG Version: 6.00 Build 0)  -->
<svg version="1.1" id="Layer_1" xmlns="http://www.w3.org/2000/svg" xmlns:xlink="http://www.w3.org/1999/xlink" x="0px" y="0px"
	 viewBox="0 0 500 500" enable-background="new 0 0 500 500" xml:space="preserve">
<path d="M415.837,493.369c-22.487,0.567-41.506-7.733-57.126-24.005c-25.019-26.063-54.638-31.984-87.524-18.386
	c-9.361,3.871-17.986,11.07-25.109,18.505c-19.357,20.204-43.101,27.867-69.551,22.881c-52.007-9.804-77.627-58.03-58.803-107.77
	c12.392-32.745,54.062-53.401,87.954-45.276c18.979,4.55,33.195,15.243,46.333,28.364c26.436,26.402,76.127,27.711,106.221-5.242
	c37.743-41.329,106.595-29.17,128.285,22.371c14.415,34.253,3.848,67.843-18.282,87.918
	C453.373,486.212,436.383,493.868,415.837,493.369z M131.557,135.525c28.53,32.725,83.846,34.245,114.327,1.013
	c31.171-33.984,80.92-34.127,112.138-0.369c28.111,30.398,74.482,30.825,103.534,9.964c43.06-30.919,41.297-100.233-3.504-128.483
	c-31.93-20.134-74.745-15.325-101.19,13.379c-28.239,30.651-73.18,31.83-104.269,4.395c-11.077-9.775-21.371-20.376-35.987-25.622
	C165.075-8.691,111.906,28.049,111.493,88.675C110.74,103.233,118.394,120.426,131.557,135.525z M381.11,249.104
	c0.107-42.099-34.568-76.338-75.495-78.16c-44.124-1.964-82.347,33.395-81.869,79.599c0.443,42.814,36.034,78.639,78.811,77.063
	C346.733,327.608,380.997,293.366,381.11,249.104z M159.816,242.629c-3.173-36.636-34.27-74.441-84.916-70.947
	c-35.953,2.48-72.955,35.183-70.729,82.525c1.904,40.482,37.802,74.25,78.795,73.003
	C126.119,327.527,163.916,289.966,159.816,242.629z"/>
</svg>
