<?xml version="1.0" encoding="iso-8859-1"?>
<!-- Generator: Adobe Illustrator 19.0.0, SVG Export Plug-In . SVG Version: 6.00 Build 0)  -->
<svg version="1.1" id="Layer_1" xmlns="http://www.w3.org/2000/svg" xmlns:xlink="http://www.w3.org/1999/xlink" x="0px" y="0px"
	 viewBox="0 0 500 500" enable-background="new 0 0 500 500" xml:space="preserve">
<path d="M249.549,494.455C117.449,494.773,7.709,386.566,4.943,257.951C2.001,121.145,110.735,6.088,248.943,6
	c132.43-0.084,242.155,108.352,244.597,237.783C496.089,378.832,388.436,494.499,249.549,494.455z M477.319,244.685
	c-2.46-123.807-105.902-226.558-234.266-222.64C108.918,26.138,13.731,140.189,21.509,264.418
	c7.523,120.144,108.555,217.866,233.939,214.025C387.924,474.385,480.713,363.895,477.319,244.685z M313.63,203.067
	c26.709-33.427,22.327-85.044-9.039-112.514c-33.079-28.97-84.779-26.883-114.877,4.639c-30.722,32.174-30.598,82.516,0.333,114.561
	c15.097,15.64,30.3,31.178,45.417,46.798c18.541,19.158,37.787,37.7,55.367,57.705c19.984,22.74,16.074,56.37-7.275,75.668
	c-22.984,18.996-55.676,16.197-74.948-6.416c-19.655-23.064-17.702-53.598,5.131-73.748c18.005,19.346,36.028,38.711,54.089,58.117
	c11.078-11.945,14.102-24.204,5.751-33.582c-19.763-22.192-40.797-43.251-62.231-65.726c-10.81,11.952-21.087,21.565-29.286,32.706
	c-24.822,33.731-17.724,85.196,14.52,110.866c33.885,26.976,84.229,23.63,112.853-7.501c30.363-33.022,29.691-82.157-1.672-114.576
	c-23.099-23.876-46.388-47.568-69.448-71.481c-11.377-11.797-23.595-23.033-33.37-36.07c-17.511-23.354-11.742-55.293,11.691-73.234
	c23.269-17.815,54.63-14.21,73.896,8.496c18.974,22.361,16.825,52.546-5.683,73.006c-18.003-19.265-36.022-38.549-54.082-57.875
	c-12.675,13.354-14.338,25.562-3.329,36.662c19.898,20.063,40.959,38.972,62.334,59.117
	C296.489,221.536,305.787,212.882,313.63,203.067z M159.236,376.268c-0.863-17.2-1.637-32.635-2.502-49.877
	c-21.126-23.938-43.588-49.39-66.8-75.692c23.176-26.303,45.872-52.062,68.424-77.657c0-15.834,0-31.128,0-47.068
	C120.67,167.263,82.902,208.64,44.535,250.674C82.925,292.711,120.832,334.217,159.236,376.268z M340.133,374.572
	c37.657-41.23,75.594-82.767,113.86-124.665c-38.519-42.159-76.376-83.594-114.745-125.588c0.846,17.204,1.604,32.618,2.447,49.756
	c21.299,24.181,43.9,49.84,66.863,75.911c-23.182,26.215-45.389,51.326-68.425,77.376
	C340.133,343.045,340.133,358.489,340.133,374.572z"/>
</svg>
