<?xml version="1.0" encoding="iso-8859-1"?>
<!-- Generator: Adobe Illustrator 19.0.0, SVG Export Plug-In . SVG Version: 6.00 Build 0)  -->
<svg version="1.1" id="Layer_1" xmlns="http://www.w3.org/2000/svg" xmlns:xlink="http://www.w3.org/1999/xlink" x="0px" y="0px"
	 viewBox="0 0 500 500" enable-background="new 0 0 500 500" xml:space="preserve">
<path d="M74.866,421.111c69.52-65.925,138.9-131.717,208.209-197.441c-2.729-16.982,1.775-31.421,15.247-41.969
	c13.778-10.788,29.358-12.676,45.024-4.624c17.175,8.828,24.646,23.613,23.153,43.11c25.77,23.493,51.625,47.064,77.629,70.77
	c15.593-67.68-7.94-148.932-73.809-199.145c-67.922-51.778-159.447-54.025-229.263-8.01
	C70.95,130.008,39.072,213.059,55.771,290.552c13.547-12.649,26.885-25.103,40.373-37.698c-1.963-12.882,0.6-24.765,9.016-34.967
	c6.492-7.87,14.937-12.957,24.968-14.678c12.93-2.219,24.683,0.823,34.857,9.397c10.051,8.47,14.7,19.496,15.297,32.33
	c10.381,8.858,20.58,17.561,31.102,26.54c-9.723,11.411-19.318,22.67-29.283,34.364c-8.861-7.503-17.552-14.862-26.128-22.123
	c-4.87,1.106-9.602,2.687-14.44,3.138c-4.78,0.445-9.667-0.253-15.066-0.473c-29.841,27.897-60.065,56.152-90.603,84.701
	c-2.274-5.633-4.491-10.862-6.505-16.167c-4.216-11.107-8.602-22.16-12.399-33.411c-3.635-10.772-5.828-21.924-7.693-33.163
	c-2.62-15.785-3.497-31.653-2.978-47.586c0.261-7.995,1.323-15.975,2.257-23.934c2.686-22.89,9.198-44.744,18.503-65.759
	c8.538-19.284,19.518-37.099,32.722-53.586c9.332-11.653,19.527-22.444,30.829-32.15c20.56-17.656,43.381-31.683,68.53-41.864
	c14.692-5.948,29.832-10.481,45.403-13.304c9.262-1.679,18.687-2.616,28.081-3.365c8.264-0.66,16.593-0.936,24.88-0.763
	c10.109,0.211,20.163,1.302,30.187,2.863c15.931,2.481,31.421,6.462,46.542,12.024c13.306,4.895,26.07,10.904,38.321,18.028
	c12.97,7.542,25.174,16.189,36.499,25.999c30.536,26.453,53.309,58.474,68.212,96.054c6.137,15.474,10.497,31.469,13.314,47.845
	c1.31,7.612,2.022,15.359,2.49,23.076c0.565,9.331,0.954,18.705,0.723,28.043c-0.188,7.598-1.358,15.175-2.174,22.753
	c-1.25,11.608-3.896,22.925-7.064,34.148c-5.539,19.622-13.57,38.165-23.792,55.775c-7.469,12.866-16.071,24.957-25.827,36.172
	c-26.591,30.568-58.621,53.508-96.44,68.254c-14.645,5.71-29.65,10.063-45.163,12.712c-8.413,1.436-16.803,2.88-25.361,3.101
	c-7.768,0.2-15.546,0.913-23.296,0.66c-9.052-0.296-18.092-1.253-27.111-2.179c-11.726-1.204-23.15-3.932-34.492-7.115
	c-19.624-5.508-38.179-13.478-55.772-23.715c-13.192-7.676-25.557-16.518-37.088-26.535c-3.769-3.274-7.752-6.3-11.606-9.476
	C77.385,423.517,76.269,422.398,74.866,421.111z M314.731,256.067c-28.601,27.08-56.912,53.857-85.191,80.668
	c-28.387,26.914-56.741,53.861-85.187,80.868c90.174,59.636,227.622,32.499,283.701-80.07
	c-30.022-27.387-60.081-54.807-90.314-82.386C330.184,257.29,322.52,257.562,314.731,256.067z M323.791,226.042
	c6.407,0.853,13.588-5.454,13.575-13.198c-0.014-8.44-6.778-13.648-13.298-13.686c-6.54-0.038-13.307,4.671-13.77,13.399
	C309.918,219.729,316.47,226.029,323.791,226.042z M138.488,255.438c7.658,0.249,13.451-6.374,13.214-13.266
	c-0.287-8.351-5.69-13.518-13.848-13.567c-7.516-0.045-13.248,6.005-13.114,14.208C124.847,249.431,131.148,256.091,138.488,255.438
	z"/>
</svg>
