<?xml version="1.0" encoding="iso-8859-1"?>
<!-- Generator: Adobe Illustrator 19.0.0, SVG Export Plug-In . SVG Version: 6.00 Build 0)  -->
<svg version="1.1" id="Layer_1" xmlns="http://www.w3.org/2000/svg" xmlns:xlink="http://www.w3.org/1999/xlink" x="0px" y="0px"
	 viewBox="0 0 2000 2000" style="enable-background:new 0 0 2000 2000;" xml:space="preserve">
<path d="M1011.146,21.146c511.849-3.471,1014.003,421.106,964.556,1066.8c-35.023,457.341-425.82,920.781-1035.86,887.894
	c-447.921-24.148-962.526-408-914.805-1060.985C59.281,446.287,460.428,18.031,1011.146,21.146z M1479.271,1247.384
	c-318.673,0-633.259,0-946.404,0c0,57.897,0,112.345,0,165.533c317.406,0,630.86,0,946.404,0
	C1479.271,1357.104,1479.271,1303.797,1479.271,1247.384z M1480.438,923.085c-318.901,0-633.483,0-948.047,0
	c0,54.236,0,105.512,0,155.259c318.071,0,632.661,0,948.047,0C1480.438,1025.585,1480.438,976.575,1480.438,923.085z
	 M531.327,755.016c315.048,0,626.399,0,936.741,0c0-54.592,0-105.877,0-156.117c-313.98,0-624.167,0-936.741,0
	C531.327,651.498,531.327,701.586,531.327,755.016z"/>
</svg>
