<svg id="Layer_1" data-name="Layer 1" xmlns="http://www.w3.org/2000/svg" viewBox="0 0 1516.06 1716.02"><title>EXP</title><path d="M603.48,194.9c-5.05.5-9.52-1-14-1.64a507.12,507.12,0,0,0-96.67-4.83c-73.34,3.25-142.5,20.94-204.52,61.75-49.53,32.59-87,76.14-115.07,128.08-3.68,6.8-4.17,7.11-11.71,4.93-22.07-6.38-38.55-20.61-52.68-38-21.92-26.93-35.34-58.23-46-90.87-7.23-22-12.49-44.55-17-67.26a3.22,3.22,0,0,0-1.48-2.33c-1.3,7.77-2.79,15.51-3.85,23.31a533.22,533.22,0,0,0-5,90.68c2,58.67,12.63,115.45,38.91,168.55,32.61,65.91,83.53,112.56,150.27,142.48,8.18,3.67,8.36,3.65,4,11.6-20.46,37.52-51.51,62.79-91.16,77.7-32.38,12.18-66,15.07-100.32,12.48-9.72-.73-19.37-2-29.09-2.94,16.31,7.33,33.3,12.57,50.59,16.8,33.49,8.2,67.5,12.31,102,11.15C237.54,734,305.72,708,365.07,659c46.53-38.4,82.19-85.67,111.69-137.89,4.39-7.78,4.41-7.91,11.87-2.51,24.87,18,42.72,41.81,56.82,68.71,17.38,33.16,26.94,68.68,31.93,105.6a464.9,464.9,0,0,1,4.16,63.79c3.68-11.55,5.9-23.44,8-35.34a463.34,463.34,0,0,0,7-85c-.71-54.19-10.05-106.69-33.26-156.11-29.33-62.46-75.53-109.06-135.12-142.94-7.38-4.2-15-8-22.54-11.89-6.42-3.29-6.45-3.22-3.89-10.19,7.42-20.21,19.14-37.67,34.17-52.93,27.72-28.14,61.87-44.6,99.63-54.41,22-5.72,44.46-8.37,67.07-10a9.47,9.47,0,0,1,8.34,3.35q74.38,80.63,98.4,187.64A392,392,0,0,1,718,496.06a386.52,386.52,0,0,1-34.18,140.43Q622.34,771.69,488.25,836c-38.76,18.52-79.64,30-122.28,35.54a402.49,402.49,0,0,1-241.15-45.06Q10.44,764.62-46.71,647.66A390.66,390.66,0,0,1-84.4,514.75c-7.9-78.34,5.35-153,42-222.59,60.6-115.07,155.71-185,282.9-211.52A368.28,368.28,0,0,1,337.43,74q134.49,7.88,238.41,94.1a319.22,319.22,0,0,1,24,21.9C601.09,191.23,602.7,192.26,603.48,194.9Z" transform="translate(439.03 382.36)"/><path d="M1074.94,683q0,90.24,0,180.48c0,5.83-.35,11.65-.51,17.47-.14,5-.6,5.32-5.08,2.75q-39.45-22.64-78.88-45.31-140-80.44-280-160.79c-3.89-2.23-4.63-4-2.56-8.07A423.1,423.1,0,0,0,750.38,533.3a439.4,439.4,0,0,0,.67-112.55A426.43,426.43,0,0,0,709,280.8c-2.52-5,.69-6,3.66-7.72L849,194.3,1070.52,66.21c6-3.45,6.57-3.1,6.5,4.39-1.19,134.81-.22,269.63-1.18,404.43C1075.35,544.35,1075.65,613.67,1074.94,683Z" transform="translate(439.03 382.36)"/><path d="M338.83,1120q0-100.23,0-200.45c0-11.14-1.44-9.65,10.45-10.56a424.41,424.41,0,0,0,84-14.53Q589.39,850,680.91,715.82c4.06-5.93,4-6,10.27-2.45l287.33,164q36.46,20.81,72.93,41.59c5.68,3.24,5.7,3.46.08,6.67Q946.94,985.34,842.34,1045l-292.1,166.71L344.52,1329.18c-5,2.88-5.67,2.42-5.67-4.23Q338.82,1222.47,338.83,1120Z" transform="translate(439.03 382.36)"/><path d="M339.66-6.38c-1.32-121.42-.79-245.23-1-369,0-8.37,0-8.42,7.44-4.14Q494.7-293.64,643.32-207.7,827.86-101,1012.42,5.62q18.61,10.75,37.19,21.54c4.35,2.53,4.33,3.22-.16,5.8L774.28,191.05q-40.52,23.28-81,46.54c-6.33,3.63-6.34,3.6-10.56-2.74A436.93,436.93,0,0,0,540.23,99.12a432,432,0,0,0-162.49-57A301.61,301.61,0,0,0,346.46,39c-5.1-.18-7.16-2-6.94-7.52C340,19.67,339.66,7.83,339.66-6.38Z" transform="translate(439.03 382.36)"/><path d="M298.3,978.15c1.13,116.15.94,232.29,1,348.44,0,2.28,1.06,5.45-.79,6.64-2.28,1.47-4.53-1.24-6.6-2.43Q114.28,1228.15-63.33,1125.42q-166.57-96.34-333.12-192.73c-4.61-2.67-9.25-5.3-13.85-8-5.85-3.43-5.84-3.78-.13-7.07L-364.06,891Q-210.41,802.75-56.8,714.43c3.92-2.26,5.71-1.88,8.3,1.87q103,149.48,280.9,186a389.49,389.49,0,0,0,60.92,7.28c4,.18,5.05,1.86,5,5.53C298.25,936.15,298.3,957.15,298.3,978.15Z" transform="translate(439.03 382.36)"/><path d="M299.17-171q0,100,0,200c0,9.81.19,8.85-8.74,9.41C217.63,43,149.76,63.7,87.39,101.72a434.43,434.43,0,0,0-137.23,132c-2.6,3.91-4.56,3.95-8.35,1.78Q-234.35,134.79-410.6,34.2c-2.47-1.41-6.72-2-6.64-5.14.07-2.6,4.12-3.41,6.52-4.78Q-239.3-73.67-67.83-171.54L252.51-354.43q20.18-11.52,40.37-23c5.81-3.32,6.27-3.1,6.27,3.53Q299.18-272.45,299.17-171Z" transform="translate(439.03 382.36)"/><path d="M-437.94,667c0-55.5-.41-111,.09-166.49,1-115,.07-230,1-345,.24-28.16.25-56.32.47-84.47,0-6.2.2-6.31,5.57-3.22L-171.15,217l91.89,52.77c5.89,3.38,5.91,3.4,2.89,9.41a424,424,0,0,0-43.11,144.29c-9.69,86.67,4.76,169.2,44,247.23,3,6,3,6-2.76,9.4L-400.58,866.52q-15.79,9.13-31.58,18.28c-6.74,3.88-6.9,3.77-6.87-3.83q.36-81.73.7-163.47c.07-16.83,0-33.67,0-50.5Z" transform="translate(439.03 382.36)"/></svg>