<?xml version="1.0" encoding="iso-8859-1"?>
<!-- Generator: Adobe Illustrator 19.0.0, SVG Export Plug-In . SVG Version: 6.00 Build 0)  -->
<svg version="1.1" id="Layer_1" xmlns="http://www.w3.org/2000/svg" xmlns:xlink="http://www.w3.org/1999/xlink" x="0px" y="0px"
	 viewBox="0 0 2000 2000" style="enable-background:new 0 0 2000 2000;" xml:space="preserve">
<path d="M1785.889,1306.707c0,112.184,0,218.909,0,329.573c-58.498,0-115.18,1.191-171.717-1.127
	c-9.865-0.404-20.689-14.346-28.421-24.129c-74.403-94.148-148.682-188.404-221.793-283.554
	c-12.027-15.652-24.227-21.074-43.308-20.886c-68.217,0.675-136.46-1.241-204.677-0.521c-143.37,1.512-286.738,3.659-430.074,6.995
	c-11.411,0.266-26.24,9-33.264,18.429c-71.106,95.453-141.356,191.555-210.69,288.303c-12.676,17.688-25.979,24.48-47.732,23.869
	c-56.89-1.6-113.855-0.539-175.121-0.539c0-110.823,0-219.998,0-332.177c-20.38,0-36.452,0.187-52.517-0.031
	c-84.259-1.144-155.021-72.238-154.415-156.775c1.598-223.011,3.654-446.02,6.056-669.024
	c0.699-64.929,60.196-124.92,125.883-125.396c377.777-2.742,755.557-5.629,1133.341-6.572c187.355-0.467,374.719,3.256,562.081,4.81
	c97.091,0.805,147.625,51.755,147.639,149.812c0.029,214.896,0.168,429.793-0.228,644.689c-0.035,19.136-1.411,38.822-6.01,57.295
	c-14.659,58.89-60.577,94.862-121.577,96.836C1836.194,1307.335,1812.999,1306.707,1785.889,1306.707z"/>
</svg>
