<?xml version="1.0" encoding="iso-8859-1"?>
<!-- Generator: Adobe Illustrator 19.0.0, SVG Export Plug-In . SVG Version: 6.00 Build 0)  -->
<svg version="1.1" id="Layer_1" xmlns="http://www.w3.org/2000/svg" xmlns:xlink="http://www.w3.org/1999/xlink" x="0px" y="0px"
	 viewBox="0 0 500 500" style="enable-background:new 0 0 500 500;" xml:space="preserve">
<path id="XMLID_4_" d="M17.391,255.844c5.374,12.511,16.203,17.832,28.378,20.945c21.795,5.572,43.314,2.036,64.593-3.104
	c32.278-7.797,62.687-20.625,92.223-35.575c46.154-23.361,89.42-51.142,128.599-85.048c15.621-13.518,30.284-28.011,42.128-45.06
	c3.202-4.61,6.082-9.535,8.423-14.632c5.226-11.378,7.888-22.895-1.787-34.487c19.682,10.346,26.604,21.327,19.218,42.292
	c-6.804,19.316-20.144,34.478-34.287,48.773c-32.832,33.185-71.048,59.161-111.444,82.09
	c-33.678,19.116-68.786,35.212-105.425,47.758c-28.764,9.849-58.006,18.004-88.837,16.984c-7.48-0.247-15.118-1.564-22.296-3.694
	c-10.583-3.141-19.475-9.451-18.514-24.66c0.116-1.829-0.628-3.712-0.973-5.569C17.391,260.52,17.391,258.182,17.391,255.844z
	 M237.142,17.391c3.368,0.854,6.775,1.581,10.097,2.585c9.849,2.976,14.305,10.253,10.469,19.718
	c-3.011,7.429-7.35,14.633-12.431,20.848c-11.916,14.574-26.888,25.863-42.452,36.286c-4.294,2.875-3.978,5.719-1.172,9.115
	c3.504,4.24,7.713,4.803,12.234,1.469c8.452-6.233,17.075-12.277,25.145-18.979c13.801-11.459,27.179-23.466,35.551-39.768
	c6.442-12.546,7.36-26.273-13.117-30.645c-0.344-0.074-0.632-0.414-0.946-0.629C252.727,17.391,244.935,17.391,237.142,17.391z
	 M414.301,126.51c-3.064,5.831-6.492,11.543-10.37,16.861c-17.712,24.292-39.892,44.152-63.664,62.191
	c-60.512,45.919-126.759,81.001-199.428,103.494c-23.797,7.366-48.166,12.793-73.245,11.961
	c-16.213-0.538-32.753-2.054-42.953-18.129c0.775,3.908,2.308,7.52,2.83,11.272c1.397,10.035,7.606,16.231,16.356,19.493
	c6.99,2.606,14.54,4.481,21.962,5.017c27.504,1.989,54.073-3.743,80.29-11.295c40.18-11.574,78.404-27.949,115.229-47.641
	c48.209-25.78,93.527-55.697,132.295-94.618c15.813-15.876,30.387-32.843,37.654-54.729c5.364-16.155,1.416-28.928-12.771-39.84
	C423.321,103.531,420.202,115.28,414.301,126.51z M43.164,354.837c-0.01,0.376,0.091,0.77,0.215,1.132
	c4.362,12.743,13.752,20.048,26.213,23.754c15.459,4.599,31.439,3.6,46.943,1.721c28.09-3.404,55.473-10.791,81.78-21.183
	c22.943-9.063,45.624-18.97,67.768-29.834c45.503-22.324,87.696-49.96,126.745-82.316c3.105-2.573,6.19-5.323,8.646-8.487
	c3.234-4.166,2.303-12.769-1.644-15.456c-3.957-2.694-7.984-2.013-11.663,1.26c-21.715,19.316-45.048,36.453-69.567,52.05
	c-39.809,25.323-81.6,46.507-125.831,63.113c-29.703,11.151-59.799,20.004-91.409,23.5c-20.39,2.255-40.135,1.676-57.875-10.542
	C43.337,354.108,43.173,354.47,43.164,354.837z M303.485,42.887c-0.771,4.51-2.347,9.051-4.425,13.139
	c-9.099,17.901-23.279,31.601-38.446,44.165c-41.25,34.171-87.36,59.756-138.284,76.482c-19.261,6.326-38.925,11.21-59.39,9.998
	c-17.048-1.01-31.317-6.303-27.134-28.017c-1.171,2.376-2.017,3.654-2.454,5.058c-1.664,5.353-3.397,10.698-4.73,16.137
	c-2.147,8.765,0.93,16.565,8.766,20.851c4.16,2.275,8.886,3.936,13.554,4.786c19.059,3.468,37.721-0.162,55.811-5.431
	c71.267-20.758,134.576-55.867,188.415-107.264c11.257-10.747,21.098-22.941,26.46-37.974c5.289-14.827-1.292-27.166-16.041-30.283
	c-4.142-0.875-8.339-1.489-12.51-2.222C300.86,27.197,305.046,33.756,303.485,42.887z M339.473,36.874
	c5.546,4.647,8.701,10.232,8.189,17.548c-0.905,12.95-7.177,23.538-14.726,33.461c-21.766,28.608-49.564,50.59-79.556,69.648
	c-21.241,13.497-43.319,25.845-65.793,37.179c-16.838,8.491-34.871,14.631-52.442,21.641c-5.556,2.217-11.449,3.593-16.985,5.85
	c-5.474,2.232-8.058,9.405-5.807,14.696c1.898,4.461,6.158,6.374,11.011,4.456c25.437-10.055,51.5-18.831,76.086-30.668
	c42.797-20.603,82.825-45.944,118.265-77.92c17.853-16.108,34.483-33.265,44.555-55.697c4.96-11.048,3.602-25.668-4.404-31.763
	c-5.203-3.962-11.486-6.506-17.285-9.685C340.211,36.038,339.842,36.456,339.473,36.874z M457.852,211.273
	c-16.384,26.565-39.092,47.243-62.982,66.708c-31.882,25.977-66.555,47.749-102.691,67.268c-7.365,3.978-10.167,9.864-7.468,14.886
	c2.73,5.078,8.07,5.726,15.885,1.586c47.753-25.295,92.689-54.652,131.583-92.507c14.806-14.411,28.109-30.074,37.054-49.026
	c6.894-14.607,6.607-29.111-0.137-43.819C469.614,189.398,464.432,200.605,457.852,211.273z M191.182,466.942
	c24.551-1.931,48.127-8.138,71.087-16.616c58.707-21.677,113.238-50.88,161.467-91.147c17.388-14.518,33.539-30.245,45.5-49.735
	c6.709-10.932,10.83-22.638,9.723-36.025c-2.411,5.52-4.349,10.945-7.046,15.96c-10.192,18.949-24.711,34.42-40.725,48.421
	c-54.056,47.264-115.721,81.442-183.312,105.089c-26.281,9.194-53.138,16.143-81.355,15.187c-6.923-0.235-13.82-1.219-20.704-1.856
	C159.626,465.127,174.84,468.227,191.182,466.942z M446.041,354.519c-20.875,22.782-45.586,40.924-71.725,57.018
	c-16.816,10.354-34.075,20.227-51.961,28.541c-18.962,8.815-38.659,16.247-58.486,22.95c-17.432,5.894-35.509,9.829-54.109,10.27
	c-2.53,0.06-5.06,0.099-7.591,0.121c-2.329,0.02-4.659,0.004-8.567,0.004c18.976,6.817,36.661,5.172,53.958,1.411
	c14.843-3.227,29.358-8.16,43.803-12.983c30.711-10.253,59.169-25.233,86.577-42.317c27.148-16.923,52.261-36.263,72.565-61.263
	c6.68-8.225,12.413-17.062,16.086-28.131C459.212,338.935,452.928,347.003,446.041,354.519z M146.299,447.522
	c28.76,0.167,56.216-6.81,83.286-15.633c9.404-3.065,18.732-6.431,27.862-10.22c2.267-0.941,5.356-4.432,4.999-6.089
	c-0.514-2.386-3.589-5.433-6.018-5.906c-3.547-0.692-7.633,0.159-11.242,1.205c-23.653,6.859-46.997,14.962-70.917,20.671
	c-22.951,5.479-46.455,7.593-70.501-1.765C115.685,442.822,130.112,447.429,146.299,447.522z M463.188,261.698
	c-19.422,26.759-44.258,47.882-70.439,67.601c-1.394,1.05-2.916,2.001-4.077,3.274c-2.9,3.18-3.434,9.618-0.877,11.852
	c3.626,3.167,6.876,1.063,9.942-1.24c3.731-2.801,7.481-5.581,11.121-8.497c23.611-18.915,46.119-38.908,62.368-64.888
	c8.532-13.641,12.54-28.208,8.178-45.865C477.234,238.964,471.13,250.756,463.188,261.698z M73.404,103.024
	c-3.718,8.848,0.413,16.704,9.814,18.261c4.174,0.691,8.551,0.919,12.758,0.526c27.601-2.581,52.251-13.601,75.984-27.096
	c2.912-1.656,5.989-3.425,3.443-7.699c-2.748-4.614-5.927-5.41-10.595-3.063c-9.158,4.604-18.187,9.611-27.716,13.294
	c-13.536,5.231-27.432,9.762-42.364,7.873c-8.484-1.073-11.888-6.603-8.264-14.495c2.376-5.173,6.104-9.726,9.227-14.556
	C86.295,83.453,78.106,91.835,73.404,103.024z M47.817,136.841c-5.602,12.343-1.551,20.729,11.47,24.544
	c1.483,0.435,2.997,0.838,4.525,1.031c18.938,2.402,37.137-1.063,54.966-7.141c5.016-1.71,7.77-5.458,8.833-10.68
	c1.477-7.256-0.257-8.667-7.332-7.242c-13.653,2.749-27.363,6.368-41.163,6.956c-18.675,0.796-24.112-6.681-21.934-25.198
	C54.037,125.012,50.574,130.766,47.817,136.841z M74.807,402.451c5.847,8.608,14.354,12.568,24.099,14.794
	c15.434,3.525,30.935,2.297,46.394,0.632c3.168-0.341,8.124,0.931,8.922-4.455c0.767-5.179-3.226-7.751-6.765-9.929
	c-2.137-1.316-5.192-1.735-7.784-1.598c-6.392,0.337-12.741,1.455-19.132,1.852c-18.389,1.142-36.562,0.946-53.069-10.07
	C69.935,396.589,72.676,399.313,74.807,402.451z M228.747,485.923c12.582-1.09,25.182-2.021,37.734-3.384
	c3.127-0.34,6.043-2.292,9.156-3.137c12.131-3.293,24.648-5.5,36.394-9.817c35.082-12.893,66.696-32.162,96.181-54.955
	c2.683-2.074,4.16-5.708,6.197-8.618c-0.464-0.322-0.928-0.645-1.391-0.967c-54.98,41.523-114.424,72.656-184.816,78.3
	C228.384,484.204,228.566,485.063,228.747,485.923z M205.475,26.558c7.764,1.486,10.289,6.557,7.132,13.772
	c-2.138,4.886-5.208,9.365-7.861,14.026c11.886,5.626,17.49,3.96,23.892-7.24c1.433-2.507,2.788-5.104,3.792-7.804
	c3.318-8.93-0.278-15.208-9.662-17.234c-12-2.591-23.293,0.697-34.099,3.535C194.361,25.882,200.052,25.52,205.475,26.558z
	 M18.149,221.404c-0.762,9.36,1.465,17.676,10.251,22.724c1.424,0.818,4.287,1.112,5.335,0.25
	c3.752-3.088,3.237-15.441-0.925-18.019c-7.003-4.338-9.925-10.824-12.319-18.416C19.685,212.428,18.517,216.884,18.149,221.404z
	 M459.153,157.017c0.937-10.175-4.075-16.339-8.565-22.748C450.275,142.538,453.116,149.571,459.153,157.017z M291.447,485.577
	c6.796-0.857,13.593-1.714,20.389-2.57c-0.113-0.86-0.225-1.72-0.338-2.58c-6.795,0.874-13.59,1.749-20.385,2.623
	C291.224,483.891,291.335,484.734,291.447,485.577z"/>
</svg>
