<?xml version="1.0" encoding="iso-8859-1"?>
<!-- Generator: Adobe Illustrator 19.0.0, SVG Export Plug-In . SVG Version: 6.00 Build 0)  -->
<svg version="1.1" id="Layer_1" xmlns="http://www.w3.org/2000/svg" xmlns:xlink="http://www.w3.org/1999/xlink" x="0px" y="0px"
	 viewBox="0 0 500 500" enable-background="new 0 0 500 500" xml:space="preserve">
<path d="M176.317,386.055c0.922-2.414,1.45-5.084,2.827-7.201c13.105-20.148,26.362-40.197,39.545-60.295
	c0.922-1.406,1.606-2.969,2.532-4.706c-2.938-4.489-5.852-8.94-9.412-14.379c-6.998,10.526-13.619,20.486-20.154,30.315
	c-22.191,0-44.185,0-67.154,0c18.078-27.624,35.726-54.59,53.582-81.873C125.225,167.235,72.371,86.559,18.935,4.996
	c48.51,0,95.767,0,143.957,0c28.673,43.719,57.72,88.008,87.326,133.149c15.851-24.1,31.148-47.357,46.217-70.268
	c19.265,0,37.846,0,57.783,0c-8.392,12.974-16.271,25.155-24.694,38.176c13.579,0,26.102,0,40.13,0
	c-10.234,15.741-19.791,30.44-29.923,46.024c15.1,0,29.476,0,45.789,0c-21.591,33.043-42.256,64.667-63.001,96.415
	c52.874,80.697,105.724,161.36,159.238,243.035c-48.642,0-95.895,0-143.997,0c-28.64-43.67-57.608-87.841-87.113-132.83
	c-6.169,9.21-11.927,17.809-17.854,26.658c-16.331,0-32.613-0.029-48.896,0.03c-2.526,0.009-5.05,0.42-7.575,0.646
	C176.321,386.031,176.317,386.055,176.317,386.055z M250.71,138.713c5.054,7.788,9.583,14.768,14.657,22.587
	c5.182-7.908,9.834-15.005,14.803-22.587C270.039,138.713,260.997,138.713,250.71,138.713z M176.317,386.054
	c-9.374-0.266-18.747-0.707-28.122-0.762c-19.891-0.118-39.782-0.036-59.948-0.036c-23.231,35.491-46.306,70.743-69.804,106.641
	c30.201,0,58.84,0,87.376,0c18.2-27.709,36.17-55.176,54.27-82.557c5.22-7.896,10.812-15.546,16.234-23.309
	C176.321,386.031,176.317,386.055,176.317,386.054z M481.855,4.867c-23.239,0-45.023,0-66.897,0
	c-17.787,27.152-35.455,54.121-53.639,81.88c23.179,0,44.791,0,67.036,0C445.977,59.778,463.716,32.629,481.855,4.867z
	 M369.885,4.821c-11.528,0-21.754,0-32.234,0c-8.327,12.765-16.602,25.449-25.555,39.173c11.795,0,21.774,0,32.306,0
	C352.707,31.227,361.096,18.332,369.885,4.821z"/>
</svg>
