<?xml version="1.0" encoding="iso-8859-1"?>
<!-- Generator: Adobe Illustrator 19.0.0, SVG Export Plug-In . SVG Version: 6.00 Build 0)  -->
<svg version="1.1" id="Layer_1" xmlns="http://www.w3.org/2000/svg" xmlns:xlink="http://www.w3.org/1999/xlink" x="0px" y="0px"
	 viewBox="0 0 2000 2000" style="enable-background:new 0 0 2000 2000;" xml:space="preserve">
<path d="M687.498,17.13C754.986,31.153,857.947,52.1,960.708,73.989c225.202,47.972,450.495,95.548,675.393,144.914
	c240.893,52.876,387.913,279.17,337.195,521.255c-62.18,296.793-126.396,593.166-191.183,889.403
	c-53.419,244.258-278.877,391.376-522.91,340.162c-295.389-61.992-590.49-125.422-885.193-190.595
	c-254.776-56.343-395.371-280.71-340.257-536.651c63.246-293.703,124.991-587.732,189.151-881.234
	C267.35,157.919,444.819,16.611,687.498,17.13z M702.491,87.135C487.04,85.767,326.419,217.347,282.697,418.124
	c-58.539,268.821-116.153,537.849-172.738,807.089c-49.611,236.054,83.811,441.376,319.618,492.572
	c267.483,58.073,535.117,115.469,802.95,171.907c239.832,50.537,444.542-80.564,496.68-318.863
	c58.806-268.774,116.208-537.862,172.696-807.133c49.889-237.813-85.142-442.524-323.575-493.661
	c-260.771-55.928-521.512-111.994-782.391-167.418C758.974,94.764,721.312,90.202,702.491,87.135z M1011.889,1744.524
	c-410.805,7.519-755.693-336.443-747.169-764.958c7.671-385.632,331.329-741.35,777.344-727.147
	c372.61,11.866,740.863,329.364,714.256,797.396C1735.546,1415.251,1426.609,1747.474,1011.889,1744.524z M508.632,1351.596
	c276.852,58.901,541.676,115.244,810.45,172.426c14.066-61.743,28.18-120.222,39.53-179.233c1.059-5.506-14.34-18.68-23.847-20.943
	c-42.697-10.162-86.138-17.141-129.104-26.238c-94.688-20.047-189.252-40.679-283.866-61.073
	c-3.588-5.295-7.176-10.59-10.765-15.885c194.117-194.956,388.234-389.911,577.347-579.842
	c-253.02-53.289-517.589-109.011-785.332-165.401c-12.978,61.967-25.884,123.591-39.936,190.689
	c144.918,31.512,290.005,63.061,436.37,94.888C902.654,957.73,708.764,1151.543,508.632,1351.596z"/>
</svg>
