<?xml version="1.0" encoding="utf-8"?>
<!-- Generator: Adobe Illustrator 26.2.1, SVG Export Plug-In . SVG Version: 6.00 Build 0)  -->
<svg version="1.1" id="FEI" xmlns="http://www.w3.org/2000/svg" xmlns:xlink="http://www.w3.org/1999/xlink" x="0px" y="0px"
	 viewBox="0 0 500 500" style="enable-background:new 0 0 500 500;" xml:space="preserve">
<path d="M250,0C111.9,0,0,111.9,0,250s111.9,250,250,250s250-111.9,250-250S388.1,0,250,0z M204.1,131.9l33.9-50
	c6.2-9.2,19.9-9.1,26,0.2l32.7,50c6.8,10.4-0.7,24.2-13.1,24.2H217C204.5,156.3,197,142.3,204.1,131.9z M386.8,361.4H250H113.2
	c-18.5,0-29.7-20.5-19.7-36.1l77.8-121.4c5.7-9,15.7-14.4,26.3-14.4h104.8c10.6,0,20.6,5.4,26.3,14.4l77.8,121.4
	C416.5,340.9,405.3,361.4,386.8,361.4z"/>
</svg>
