<?xml version="1.0" encoding="iso-8859-1"?>
<!-- Generator: Adobe Illustrator 19.0.0, SVG Export Plug-In . SVG Version: 6.00 Build 0)  -->
<svg version="1.1" id="Layer_1" xmlns="http://www.w3.org/2000/svg" xmlns:xlink="http://www.w3.org/1999/xlink" x="0px" y="0px"
	 viewBox="0 0 2000 2000" style="enable-background:new 0 0 2000 2000;" xml:space="preserve">
<path d="M1000.281,23.689c538.856,0.349,975.999,437.692,975.902,976.348c-0.097,538.968-438.608,977.07-977.06,976.149
	c-539.087-0.922-975.929-438.397-975.431-976.842C24.191,460.52,461.79,23.34,1000.281,23.689z M1139.386,832.245
	c18.413-86.611,35.443-172.323,63.704-255.309c14.85-43.608,36.452-82.825,69.093-115.82c10.227-10.338,21.765-17.395,35.592-20.773
	c16.73-4.087,32.022-1.052,42.839,13.107c6.46,8.456,11.516,18.15,16.166,27.789c10.255,21.26,24.248,39.1,46.276,48.531
	c19.096,8.176,39.145,12.114,58.331-0.162c25.052-16.029,31.743-45.006,16.808-70.7c-10.832-18.635-27.119-31.785-44.682-43.453
	c-71.903-47.774-146.003-54.206-220.85-8.224c-64.717,39.758-111.393,96.894-145.967,163.649
	c-35.492,68.527-56.111,142.514-74.967,216.961c-1.983,7.828-4.114,15.619-6.173,23.415
	c-86.133-12.596-171.083-25.019-256.979-37.581c-4.841,33.273-9.519,65.427-14.295,98.257
	c84.345,12.381,167.593,24.6,251.178,36.869c-6.268,36.961-12.291,72.478-18.417,108.602
	c-83.603-12.231-166.34-24.335-249.816-36.547c-4.501,33.259-8.892,65.707-13.321,98.437
	c82.807,12.171,163.897,24.089,245.893,36.141c-1.729,8.717-3.135,16.129-4.675,23.513
	c-19.164,91.851-39.337,183.467-68.933,272.661c-16.818,50.686-36.518,100.085-68.547,143.612
	c-10.651,14.475-23.089,25.834-40.922,30.766c-20.973,5.8-37.805,0.655-49.871-17.373c-5.602-8.37-9.578-17.837-14.195-26.856
	c-10.92-21.332-25.922-38.692-49.193-46.566c-18.375-6.218-37.295-9.257-54.712,3.235c-27.762,19.914-32.088,52.339-8.274,79.562
	c37.268,42.603,85.13,66.731,141.494,71.934c51.198,4.726,96.436-12.821,136.63-43.132
	c64.001-48.264,111.672-109.607,141.372-184.252c28.175-70.811,47.608-144.373,66.725-217.992
	c5.796-22.319,11.233-44.732,17.079-68.079c86.2,12.591,171.732,25.085,258.059,37.695c4.86-33.082,9.547-64.988,14.433-98.242
	c-84.012-12.344-167.599-24.625-252.088-37.04c6.102-36.426,12.049-71.932,18.191-108.598
	c83.477,12.195,166.153,24.274,249.787,36.492c4.558-33.25,8.97-65.442,13.487-98.396
	C1303.023,856.254,1221.565,844.302,1139.386,832.245z"/>
</svg>
