<?xml version="1.0" encoding="iso-8859-1"?>
<!-- Generator: Adobe Illustrator 19.0.0, SVG Export Plug-In . SVG Version: 6.00 Build 0)  -->
<svg version="1.1" id="Layer_1" xmlns="http://www.w3.org/2000/svg" xmlns:xlink="http://www.w3.org/1999/xlink" x="0px" y="0px"
	 viewBox="0 0 2000 2000" style="enable-background:new 0 0 2000 2000;" xml:space="preserve">
<path d="M1984.891,999.554c15.581,502.611-418.352,1025.38-1058.965,984.692C485.58,1956.278-13.644,1573.001,18.011,937.639
	C41.342,469.36,447.193-10.181,1054.673,16.815C1544.369,38.578,1990.055,447.484,1984.891,999.554z M899.626,359.088
	c-16.15,64.938-30.577,122.95-44.855,180.364c-62.686-14.008-119.138-26.622-179.648-40.144
	c-9.657,38.696-18.32,73.41-27.48,110.119c36.584,9.713,68.354,18.148,110.547,29.35c0.658,22.288,5.065,48.003,1.32,72.471
	c-6.284,41.058-17.828,81.307-27.035,121.924c-28.483,125.66-56.472,251.435-85.631,376.938
	c-8.277,35.622-33.409,49.46-68.283,42.005c-21.988-4.7-44.163-8.524-71.879-13.814c-9.045,35.835-17.467,69.205-26.488,104.946
	c59.869,14.464,118.394,28.602,180.156,43.523c-13.103,62.205-25.242,119.832-38.186,181.281
	c40.843,10.445,77.879,19.916,115.3,29.485c14.781-61.391,29.215-121.34,44.744-185.841c26.028,8.178,49.455,15.54,73.91,23.224
	c-13.925,60.407-27.344,118.624-41.672,180.779c44.437,7.799,82.957,14.559,118.431,20.785
	c13.861-54.576,26.238-100.922,37.309-147.577c10.913-45.991,20.502-92.296,31.173-140.734c-8.209-0.914-14.45-0.958-20.369-2.364
	c-101.325-24.06-103.192-24.408-86.356-125.854c9.34-56.278,26.183-111.311,39.497-166.296
	c120.009,19.271,134.373,40.426,114.421,166.144c32.809,8.154,66.062,16.417,100.013,24.855
	c29.791-128.249,58.956-253.801,88.943-382.893c-37.682-9.162-70.177-17.063-91.354-22.212
	c-25.669,40.807-39.938,82.106-68.842,104.578c-33.72,26.216-77.042,9.283-115.273-9.274
	c18.191-79.43,35.791-156.279,55.827-243.765c84.629,24.86,166.445,44.792,245.114,73.384
	c56.504,20.536,83.308,66.762,77.623,129.855c-2.846,31.582-0.496,63.632-0.496,97.815c34.808,8.181,68.635,16.132,107.832,25.344
	c24.496-108.395,48.426-214.279,72.444-320.557c-118.102-28.705-229.507-55.782-345.723-84.029
	c12.702-61.795,24.921-121.234,37.544-182.645c-43.046-10.198-78.387-18.57-118.16-27.992
	c-14.731,60.482-29.244,120.069-44.373,182.185c-25.858-6.468-48.453-12.119-70.997-17.758c13.73-60.57,26.78-118.14,40.97-180.738
	C977.604,376.543,939.29,367.967,899.626,359.088z"/>
</svg>
