<?xml version="1.0" encoding="iso-8859-1"?>
<!-- Generator: Adobe Illustrator 19.0.0, SVG Export Plug-In . SVG Version: 6.00 Build 0)  -->
<svg version="1.1" id="Layer_1" xmlns="http://www.w3.org/2000/svg" xmlns:xlink="http://www.w3.org/1999/xlink" x="0px" y="0px"
	 viewBox="0 0 500 500" enable-background="new 0 0 500 500" xml:space="preserve">
<path d="M250.329,5.026c134.618-0.752,244.415,107.493,244.027,244.01c-0.386,135.907-107.321,244.231-244.328,244.433
	C113.542,493.67,13.151,386.998,6.23,263.553C-2.088,115.197,118.793,3.037,250.329,5.026z M250.099,451.724
	c112.503-0.222,199.382-88.599,203.214-195.283C457.5,139.85,365.006,45.189,250.151,45.031
	C139.286,44.878,47.179,132.557,47.068,248.462C46.962,360.094,135.543,450.551,250.099,451.724z M250.233,411.33
	c-90.416-0.839-162.564-72.22-162.515-162.705c0.049-90.611,73.858-162.353,163.588-161.57
	c88.154,0.769,161.442,72.142,161.082,162.112C412.016,341.849,338.684,410.582,250.233,411.33z M193.477,193.635
	c0,37.489,0,74.22,0,110.897c37.217,0,73.81,0,110.689,0c0-37.02,0-73.591,0-110.897
	C267.052,193.635,230.289,193.635,193.477,193.635z"/>
</svg>
