<?xml version="1.0" encoding="iso-8859-1"?>
<!-- Generator: Adobe Illustrator 19.0.0, SVG Export Plug-In . SVG Version: 6.00 Build 0)  -->
<svg version="1.1" id="Layer_1" xmlns="http://www.w3.org/2000/svg" xmlns:xlink="http://www.w3.org/1999/xlink" x="0px" y="0px"
	 viewBox="0 0 500 500" enable-background="new 0 0 500 500" xml:space="preserve">
<path d="M248.839,3.673C379.394,0.868,493.56,109.998,493.933,247.658c0.366,135.259-110.061,245.099-245.565,245.336
	C112.349,493.232,3.635,379.017,4.001,246.701C4.369,113.85,117.312,0.359,248.839,3.673z M247.59,467.075
	c122.928,0.003,220.407-96.416,220.545-218.149c0.138-121.938-96.889-218.63-217.772-220.338
	c-118.307-1.672-221.736,98.308-220.801,219.59C30.495,369.318,127.129,467.072,247.59,467.075z M448.249,248.766
	c3.286,109.198-94.732,201.092-203.821,199.319c-101.283-1.646-196.549-91.687-195.8-202.072
	c0.718-105.87,94.764-201.349,205.771-198.358C355.043,50.367,452.18,138.892,448.249,248.766z M381.846,248.404
	c-66.989-38.622-132.283-76.266-198.032-114.173c0,76.798,0,151.74,0,228.279C250.027,324.358,314.957,286.946,381.846,248.404z"/>
</svg>
