<?xml version="1.0" encoding="iso-8859-1"?>
<!-- Generator: Adobe Illustrator 19.0.0, SVG Export Plug-In . SVG Version: 6.00 Build 0)  -->
<svg version="1.1" id="Layer_1" xmlns="http://www.w3.org/2000/svg" xmlns:xlink="http://www.w3.org/1999/xlink" x="0px" y="0px"
	 viewBox="0 0 500 500" enable-background="new 0 0 500 500" xml:space="preserve">
<path d="M249.845,495.418C113.037,494.833,2.183,383.48,3.007,247.473C3.836,110.781,114.978,0.235,250.803,1.004
	c136.92,0.775,247.503,112.057,246.598,248.155C496.494,385.618,385.532,495.999,249.845,495.418z M341.629,365.763
	c-18.587,8.603-36.227,4.65-53.764-2.287c19.024,16.37,54.085,18.432,74.332,11.186c-6.541-14.59-15.703-27.173-28.101-37.308
	c-20.266-16.567-43.989-23.165-70.062-23.626c0.467-0.855,0.604-1.316,0.901-1.62c17.481-17.895,35.983-34.589,57.229-47.978
	c17.445-10.994,35.935-19.257,56.844-20.872c8.599-0.664,17.027,0.092,25.55,2.685c-2.933,17.115-10.481,31.525-21.306,44.38
	c-10.782,12.804-24.027,22.711-39.138,32.327c33.225-5.691,85.188-60.501,93.393-97.641c-58.392-9.556-110.591,0.776-152.411,46.271
	c35.171-79.252,16.433-149.337-35.478-215.519c-8.979,13.839-18.109,26.458-25.736,39.929
	c-26.312,46.475-34.273,95.539-18.743,147.395c2.843,9.493,6.622,18.706,10.217,28.742c-41.949-46.108-94.105-56.339-152.503-46.809
	c9.27,38.195,62.342,93.97,93.125,97.406c-14.687-9.311-27.861-19.176-38.625-31.892c-10.952-12.939-18.621-27.439-21.474-44.562
	c1.551-0.469,2.741-0.919,3.97-1.187c16.516-3.613,32.566-1.396,48.205,4.308c27.159,9.906,49.494,27.25,70.463,46.542
	c6.116,5.627,11.707,11.825,17.76,17.985c-44.852,1.408-78.617,19.903-98.553,61.788c27.042,5.669,52.076,4.675,75.056-11.26
	c-9.142,2.124-17.952,4.709-26.946,6.112c-9.224,1.439-18.29-0.104-26.97-4.616c2.62-8.354,8.054-14.244,14.451-19.314
	c11.333-8.983,24.438-14.546,38.091-18.813c8.671-2.711,17.527-4.833,27.654-7.587c-24.616,43.504-18.007,82.559,11.129,119.806
	c11.793-14.938,20.622-30.797,24.516-49.05c5.292-24.808-0.434-47.778-13.104-70.344c5.376,1.235,9.78,2.106,14.107,3.265
	c18.213,4.878,36.006,10.788,51.165,22.552C333.333,351.171,338.741,357.107,341.629,365.763z M250.263,286.843
	c50.383-63.283,48.613-131.491-0.135-189.778C200.066,157.651,201.205,225.914,250.263,286.843z M249.929,330.433
	c-21.384,26.565-21.051,57.877,0.321,82.73C271.684,388.123,271.842,355.129,249.929,330.433z"/>
</svg>
