<?xml version="1.0" encoding="iso-8859-1"?>
<!-- Generator: Adobe Illustrator 19.0.0, SVG Export Plug-In . SVG Version: 6.00 Build 0)  -->
<svg version="1.1" id="Layer_1" xmlns="http://www.w3.org/2000/svg" xmlns:xlink="http://www.w3.org/1999/xlink" x="0px" y="0px"
	 viewBox="0 0 500 500" enable-background="new 0 0 500 500" xml:space="preserve">
<path d="M100.832,191.739c2.828,17.324,11.557,27.916,30.178,28.89c-19.769,3.932-31.783,13.884-28.619,34.779
	c1.908,12.604,10.825,19.923,23.691,21.311c19.576,2.112,29.615-8.492,34.003-27.388c3.857,16.864,12.488,27.631,31.558,28.098
	c-8.315,3.903-16.203,5.713-21.256,10.509c-5.066,4.808-7.302,12.597-11.153,19.777c-3.523-15.709-10.431-27.481-29.264-27.38
	c-18.692,0.101-25.94,11.431-30.265,28.304c-4.185-22.907-17.505-31.723-38.982-27.35c-10.845,2.208-19.54,12.878-19.36,24.74
	c0.269,17.769,10.46,27.504,28.849,29.815c-18.18,3.162-29.831,12.195-28.478,30.954c1.166,16.172,11.613,24.625,29.296,25.275
	c-7.997,3.807-15.657,5.635-20.619,10.32c-5.123,4.838-7.623,12.454-11.971,20.084c-2.725-16.648-11.142-27.573-29.724-28.836
	c19.618-3.094,30.587-13.449,28.472-32.849c-1.661-15.232-12.612-22.556-28.156-24.655c17.877-2.941,29.265-11.944,28.338-30.386
	c-0.856-17.021-12.005-25.12-29.175-27.031c17.867-2.365,28.456-11.459,31.02-30.064c5.123,22.971,18.248,32.171,40.284,26.783
	c10.476-2.561,18.524-13.734,18.668-24.645c0.188-14.227-7.33-22.05-28.019-29.156c6.484-3.03,14.234-4.753,19.102-9.456
	C94.336,207.265,96.65,199.481,100.832,191.739z M209.877,39.58c-5.035,4.841-12.988,6.647-20.838,10.337
	c17.654,1.29,28.834,9.728,29.071,27.204c0.239,17.663-10.516,26.717-28.618,29.235c18.555,1.06,26.452,12.651,30.094,28.51
	c4.018-7.25,6.334-14.74,11.292-19.445c4.941-4.688,12.533-6.583,18.989-9.715c-20.89-7.135-28.622-15.22-27.832-29.074
	c0.69-12.111,8.886-23.355,19.967-24.896c6.998-0.974,14.844-0.68,21.464,1.553c10.764,3.631,13.765,14.164,17.018,24.979
	c3.888-16.719,12.091-27.775,30.158-27.758c17.85,0.017,26.199,10.903,29.171,27.375c4.357-7.754,6.782-15.467,11.928-20.258
	c4.991-4.646,12.776-6.291,21.516-10.24c-20.582,0.184-28.897-11.352-32.473-28.555c-3.822,16.87-11.18,27.968-29.888,28.265
	c-19.08,0.303-25.899-11.961-30.714-27.731c-3.34,14.918-9.479,26.061-25.933,27.521c-20.047,1.78-30.111-8.635-33.026-28
	C217.076,26.837,214.931,34.721,209.877,39.58z M400.668,363.322c-2.898,17.825-11.939,28.185-30.092,29.941
	c2.505,1.489,4.693,1.523,6.573,2.301c4.574,1.894,9.833,3.223,13.334,6.408c9.279,8.442,10.881,21.565,5.201,33.486
	c-4.495,9.434-15.004,14.788-27.059,13.785c-13.482-1.122-21.557-7.863-24.956-20.715c-0.583-2.204-1.5-4.319-2.263-6.475
	c-4.03,9.774-6.82,19.527-16.71,24.13c-9.399,4.374-19.085,4.243-28.593-0.24c-9.864-4.65-11.966-14.591-15.891-24.057
	c-3.437,16.803-12.242,27.181-30.319,28.891c18.184,2.091,27.23,12.285,30.424,29.717c4.217-16.438,11.636-27.927,30.083-27.994
	c18.606-0.067,26.203,11.152,30.315,27.907c4.118-16.322,11.72-27.955,30.047-27.884c18.198,0.07,26.514,10.798,29.363,28.29
	c4.006-7.779,6.085-15.538,11.025-20.373c5.048-4.94,12.904-7.012,20.401-10.776c-17.409-1.379-28.441-10.095-28.438-27.514
	c0.004-17.624,11.206-26.385,28.8-29.004C413.039,391.856,404.646,380.391,400.668,363.322z M460.259,366.37
	c3.984-7.851,6.024-15.647,10.951-20.528c5.037-4.99,12.907-7.121,20.455-10.973c-16.787-1.098-27.525-9.769-28.243-26.177
	c-0.795-18.17,10.343-27.578,28.708-30.076c-18.444-1.596-27.024-12.653-30.756-29.301c-3.487,10.313-6.109,20.064-16.102,24.6
	c-9.682,4.395-19.528,4.426-29.165-0.564c-9.546-4.943-11.586-14.817-14.389-24.059c-3.937,7.442-6.12,15.277-11.178,20.09
	c-5.09,4.844-13.039,6.683-21.668,10.75c20.256-0.441,28.166,11.274,32.278,28.559c3.919-22.54,16.927-31.174,37.972-27.746
	c10.003,1.63,18.776,10.957,19.856,22.078c1.895,19.501-8.886,29.487-27.815,33.236C449.385,338.133,457.89,348.907,460.259,366.37z
	 M37.408,75.517C38.484,93.93,27.382,103.704,8.5,106.591c19.062,1.069,27.362,12.335,30.926,29.413
	c4.102-17.172,12.409-28.291,30.919-28.111c18.079,0.176,25.342,11.824,29.501,27.915c3.627-16.938,12.32-27.864,30.904-29.527
	c-18.031-1.404-26.369-12.293-30.622-29.34c-3.132,7.175-4.431,12.862-7.726,16.936c-3.28,4.056-8.171,7.618-13.077,9.323
	c-4.971,1.728-10.882,1.566-16.278,1.084c-10.259-0.917-19.092-9.255-20.882-21.701c-2.935-20.404,8.699-30.426,28.578-34.33
	C50.916,47.904,43.516,35.375,40.19,19.66c-3.803,7.296-5.952,15.209-11.024,20.074c-4.973,4.77-12.92,6.44-21.291,10.26
	C25.451,50.732,36.45,59.116,37.408,75.517z M371.149,165.186c18.003,0.193,26.06,11.388,30.005,28.299
	c3.498-17.239,12.118-28.165,30.842-29.782c-18.38-1.926-28.7-11.671-28.893-28.9c-0.198-17.694,11.748-25.809,28.151-27.595
	c-7.177-3.567-14.918-5.561-19.884-10.401c-5.001-4.874-7.246-12.577-10.367-18.42c-3.169,6.05-5.306,13.91-10.354,18.711
	c-5.063,4.815-13.028,6.578-21.159,10.344c19.075,0.988,29.265,10.622,29.457,28.464c0.118,10.982-5.462,19.942-16.272,24.076
	c-9.147,3.499-19.452,4.259-26.927-2.026c-6.766-5.688-10.917-14.487-16.494-22.296c-1.718,16.846-12.146,25.906-29.703,28.217
	c18.707,1.335,27.35,12.024,31.157,29.007C344.963,176.357,352.938,164.991,371.149,165.186z M149.547,402.599
	c5.049,4.909,7.372,12.621,11.529,20.29c2.723-16.999,11.169-27.919,29.047-28.026c18.009-0.108,26.138,11.277,29.44,27.765
	c3.902-7.39,6.041-14.934,10.908-19.682c4.96-4.839,12.602-6.928,17.979-9.666c-5.505-2.718-13.031-4.632-17.867-9.321
	c-4.95-4.8-7.265-12.318-10.846-18.853c-7.024,19.376-12.183,24.999-24.657,26.336c-20.271,2.173-31.064-8.203-35.12-28.155
	c-3.299,17.58-11.918,28.438-31.286,28.727C136.999,396.03,144.68,397.867,149.547,402.599z M311.628,335.749
	c-19.022-1.189-27.411-12.633-31.358-29.502c-3.039,18.029-12.809,27.703-30.88,30.053c19.006,1.092,27.299,12.365,31.278,29.517
	C283.789,348.136,293.22,337.845,311.628,335.749z M430.451,47.619c7.696,3.818,15.49,5.826,20.506,10.696
	c5.023,4.876,7.27,12.611,10.384,18.438c2.999-5.714,5.163-13.502,10.171-18.355c5.096-4.938,12.993-6.985,21.215-11.069
	c-19.855,0.257-27.512-11.716-31.607-28.235C457.909,36.686,448.976,47.171,430.451,47.619z M130.6,450.758
	c-18.723-1.44-26.701-12.862-30.003-29.019c-4.01,7.347-6.303,15.068-11.371,19.847c-5.103,4.812-12.965,6.698-21.911,10.959
	c20.621-0.731,28.407,11.068,32.572,27.981C102.937,462.917,112.364,452.746,130.6,450.758z M99.924,379.064
	c-3.146,7.698-7.935,12.579-16.477,14.852c10.086-0.237,12.847,6.982,16.371,15.131c3.304-8.719,7.283-14.216,15.852-15.827
	C106.996,391.838,102.504,386.896,99.924,379.064z M166.169,226.073c2.532-2.319,6.282-3.309,9.498-4.881
	c-8.304-1.882-13.216-6.557-15.52-14.982c-2.437,8.133-7.243,12.919-15.632,14.871c8.603,1.655,12.682,7.041,15.039,15.704
	C162.397,232.001,163.667,228.365,166.169,226.073z M401.527,205.443c-2.662,4.636-3.856,8.385-6.381,10.65
	c-2.581,2.315-6.467,3.176-9.781,4.673c-0.34,0.616-0.679,1.232-1.019,1.847c10.153-0.968,13.271,6.014,16.921,13.307
	c2.18-8.431,7.358-12.821,15.643-14.698C408.498,219.158,403.458,214.378,401.527,205.443z M341.09,350.846
	c1.812-8.911,7.809-12.621,15.877-15.373c-9.84-0.238-13.299-6.481-16.043-14.49c-2.745,8.211-7.3,13.339-16.037,15.041
	C333.98,337.227,337.719,343.266,341.09,350.846z M176.095,335.796c-9.04-1.392-13.259-6.886-16.015-14.794
	c-2.329,8.393-7.69,12.892-15.679,15.319c8.873,1.311,12.86,6.751,15.907,14.559C162.32,342.342,167.583,337.845,176.095,335.796z
	 M236.566,163.301c-9.142-0.9-13.495-6.482-16.802-14.333c-1.604,9.155-7.762,12.54-15.46,15.014
	c9.026,1.16,13.22,6.639,16.087,14.706C222.447,169.574,228.583,165.91,236.566,163.301z M461.289,378.298
	c-2.636,7.917-7.054,13.145-15.586,14.991c8.246,2.054,13.15,6.755,15.596,14.841c2.745-8.207,7.217-13.135,15.902-14.857
	C467.856,392.099,464.134,386.12,461.289,378.298z M279.967,206.447c-1.814,8.967-7.575,12.712-15.661,14.965
	c9.102,0.907,13.042,6.759,16.223,16.063c3.195-9.75,7.514-15.214,16.424-16.596C287.435,220.176,283.571,213.885,279.967,206.447z
	 M160.163,33.753c-2.748,8.403-7.135,13.964-16.702,14.743c8.846,1.773,13.775,7.042,15.678,13.231
	c5.473-4.875,10.454-9.311,16.077-14.32C166.906,47.546,162.62,42.115,160.163,33.753z M340.705,121.435
	c2.387-8.237,7.42-13.053,14.152-14.182c-5.229-4.92-10.185-9.584-13.84-13.023c-4.798,4.214-9.749,8.563-14.839,13.034
	C333.345,107.933,338.184,112.71,340.705,121.435z M236.34,450.603c-8.334-1.736-13.663-5.968-16.195-14.736
	c-2.008,8.953-7.811,12.934-15.872,15.305c8.774,1.055,12.814,6.581,16.167,13.993C222.703,456.672,228.409,452.805,236.34,450.603z
	 M236.614,336.01c-9.067-1.456-13.466-7.295-17.06-15.204c-0.473,10.288-8.089,12.21-15.326,15.359
	c8.667,1.548,13.85,5.928,15.903,14.953C223.034,342.783,227.396,337.26,236.614,336.01z M328.243,278.637
	c4.056,3.99,8.549,8.41,13.867,13.642c0.903-7.2,6.133-11.475,12.472-12.566c-5.078-5.021-9.831-9.72-13.918-13.761
	C336.588,270.116,331.957,274.845,328.243,278.637z M461.488,120.749c2.679-8.104,7.362-13.083,16.184-14.676
	c-9.781-0.586-13.126-7.337-16.68-14.695c-2.482,7.869-6.46,13.325-15.404,14.673C454.252,107.757,458.062,113.781,461.488,120.749z
	 M220.124,236.244c2.891-7.787,7.014-13.292,15.535-15.42c-8.739-1.424-12.693-6.867-14.118-13.368
	c-5.205,5.021-9.936,9.583-15.331,14.787C212.937,222.599,217.806,227.686,220.124,236.244z M340.159,408.733
	c2.811-4.489,4.18-8.035,6.696-10.315c2.56-2.321,6.25-3.395,9.445-5.015c-8.867-1.004-12.205-7.527-15.789-14.606
	c-2.329,8.235-7.12,12.806-15.617,14.587C333.79,394.622,337.769,400.281,340.159,408.733z M160.028,91.351
	c-2.838,7.943-6.683,13.816-16.059,14.594c8.693,1.908,13.13,7.489,16.66,14.951c2.059-8.338,7.246-12.561,15.163-14.904
	C167.083,104.502,162.609,99.308,160.028,91.351z M477.801,220.796c-9.934-0.547-13.406-7.191-17.104-14.896
	c-1.142,9.081-6.809,12.946-14.792,15.221c8.288,1.941,12.418,6.97,15.364,14.67C463.819,227.405,468.908,222.543,477.801,220.796z
	 M39.587,435.841c-2.38,4.182-3.505,7.652-5.834,9.844c-2.445,2.301-6.042,3.375-10.921,5.915c9.445,1.08,14.209,5.887,16.51,14.031
	c2.95-8.009,7.503-13.153,16.175-14.841C46.627,449.41,42.728,443.28,39.587,435.841z M264.582,164.121
	c9.225,0.654,12.735,6.96,16.018,14.121c2.618-8.329,7.683-12.905,16.209-14.692c-8.478-1.31-13.294-6.135-16.56-14.158
	C278.337,158.248,272.198,161.568,264.582,164.121z M99.871,149.629c-2.816,7.994-7.965,12.393-14.725,13.041
	c5.356,4.698,10.477,9.189,16.365,14.354c0.601-8.133,6.444-11.157,14.023-13.422C107.365,162.036,102.493,157.569,99.871,149.629z
	 M55.392,163.558c-8.761-1.236-12.913-6.838-16.084-14.407c-2.286,8.48-7.369,13.188-16.135,14.614
	c9.062,1.365,13.384,6.493,16.32,14.35C42.318,170.502,46.957,165.468,55.392,163.558z"/>
</svg>
