<?xml version="1.0" encoding="iso-8859-1"?>
<!-- Generator: Adobe Illustrator 19.0.0, SVG Export Plug-In . SVG Version: 6.00 Build 0)  -->
<svg version="1.1" id="Layer_1" xmlns="http://www.w3.org/2000/svg" xmlns:xlink="http://www.w3.org/1999/xlink" x="0px" y="0px"
	 viewBox="0 0 500 500" style="enable-background:new 0 0 500 500;" xml:space="preserve">
<path d="M460.292,249.826c-6.19-6.751-11.641-12.864-17.271-18.807c-19.718-20.814-39.557-41.514-59.24-62.361
	c-31.072-32.909-62.03-65.926-93.097-98.839c-5.369-5.688-11.852-10.511-16.331-16.795c-4.039-5.668-6.913-12.567-8.652-19.345
	c-1.34-5.222-0.592-11.156,0.059-16.675c1.139-9.665,8.802-15.409,18.334-13.942c53.945,8.299,100.528,31.402,139.475,69.723
	c30.16,29.676,51.107,64.987,63.557,105.297c8.615,27.895,12.078,56.623,10.194,85.715c-3.617,55.849-23.736,105.178-60.046,147.908
	c-28.541,33.588-63.771,57.641-105.028,72.399c-15.956,5.707-32.987,8.464-49.6,12.252c-6.003,1.369-15.408-3.069-16.792-13.662
	c-2.107-16.132,1.167-29.767,13.734-42.006c22.701-22.109,43.917-45.747,65.67-68.825c26.979-28.623,53.853-57.344,80.811-85.987
	C437.169,274.078,448.37,262.377,460.292,249.826z M43.578,243.526c8.71-9.156,17.591-18.15,26.249-27.353
	c29.644-31.509,59.172-63.127,88.837-94.616c19.975-21.203,39.941-42.419,60.273-63.276c5.729-5.877,11.549-11.49,12.469-19.933
	c0.843-7.734,1.494-15.666,0.692-23.35c-0.761-7.288-9.199-13.193-15.706-11.758c-16.815,3.708-33.965,6.604-50.173,12.176
	c-21.428,7.366-41.401,18.145-60.03,31.381c-31.713,22.532-56.651,51.005-75.13,85.02c-15.19,27.96-24.596,57.798-28.206,89.649
	c-3.915,34.532-0.799,68.216,9.282,101.255c9.618,31.523,25.223,59.959,46.205,85.435c20.429,24.804,44.848,44.704,73.02,60.091
	c25.784,14.082,53.117,23.384,82.256,27.518c8.92,1.265,16.259-1.722,17.845-10.549c1.424-7.926,1.107-16.436-0.052-24.456
	c-0.72-4.982-3.491-10.418-6.965-14.132c-24.526-26.228-49.556-51.984-74.265-78.043c-31.113-32.813-62.075-65.768-93.095-98.669
	c-6.077-6.445-12.12-12.922-18.628-19.864C40.55,247.358,41.902,245.288,43.578,243.526z"/>
</svg>
