<?xml version="1.0" encoding="iso-8859-1"?>
<!-- Generator: Adobe Illustrator 19.0.0, SVG Export Plug-In . SVG Version: 6.00 Build 0)  -->
<svg version="1.1" id="Layer_1" xmlns="http://www.w3.org/2000/svg" xmlns:xlink="http://www.w3.org/1999/xlink" x="0px" y="0px"
	 viewBox="0 0 2000 2000" style="enable-background:new 0 0 2000 2000;" xml:space="preserve">
<path d="M1773.926,1364.359c54.226,30.65,58.256,65.936,11.297,106.777c-13.325,0-28.058,0-43.78,0
	c-6.256-3.689-13.335-7.863-22.515-13.276c-187.731,108.304-376.387,217.141-566.908,327.055c2.265,12.253,3.77,24.198,6.744,35.766
	c8.791,34.193-1.425,64.734-18.738,93.162c-36.749,60.341-114.205,75.688-172.994,43.59
	c-40.607-22.171-64.365-57.277-66.376-104.954c-0.277-6.563-0.038-13.148-0.038-21.806
	c-184.711-106.605-369.571-213.295-553.638-319.528c-79.268,30.103-150.713-19.56-171.581-76.889
	c-22.333-61.355,3.149-133.21,65.138-163.109c1.059-3.605,3.62-8.237,3.594-12.855c-0.368-65.186-1.382-130.369-1.582-195.554
	c-0.086-27.923,1.972-55.853,1.925-83.777c-0.058-33.821-1.753-67.637-1.953-101.459c-0.349-59.223-0.097-118.449-0.097-180.547
	c-5.212-3.865-12.235-9.26-19.447-14.39c-38.371-27.296-57.498-65.298-55.792-111.505c2.787-75.5,63.974-127.778,130.355-126.783
	c28.888,0.433,44.781,4.658,77.634,22.269c87.783-46.927,174.119-100.047,262.068-150.279
	C725.162,266.048,812.686,215.132,899.8,164.86c-1.807-61.406,20.417-107.264,75.961-130.942
	c52.535-22.395,103.227-17.085,145.092,24.266c41.914,41.399,51.015,91.335,29.411,149.153
	c60.43,40.178,126.065,73.356,188.784,111.321c62.358,37.747,126.326,72.832,189.528,109.188
	c63.687,36.635,127.3,73.398,190.993,110.133c36.256-24.789,68.652-22.381,87.966,6.618c21.121,31.713,10.382,59.771-33.61,87.28
	C1773.926,876.055,1773.926,1120.398,1773.926,1364.359z M1138.691,1767.374c191.664-110.759,380.774-220.041,569.238-328.951
	c0-12.358,0-23.769,0-36.512c-89.833-51.809-179.535-103.542-270.011-155.721c-18.633,18.077-41.096,17.7-61.629,18.006
	c-89.434,158.201-181.46,312.779-268.694,466.704C1118.875,1744.132,1127.902,1754.719,1138.691,1767.374z M1106.144,262.757
	c91.076,157.482,181.34,313.558,271.957,470.247c22.589-2.835,43.081,0.368,60.085,16.302
	c90.77-52.563,180.433-104.485,269.478-156.049c0-13.632,0-25.691,0-36.214c-10.648-6.31-19.658-11.792-28.8-17.045
	c-85.652-49.219-171.481-98.133-256.953-147.661c-89.93-52.112-179.491-104.862-269.375-157.053
	c-4.532-2.631-10.606-2.606-14.002-3.374C1127.257,242.649,1117.761,251.693,1106.144,262.757z M1139.217,922.034
	c67.677-39.122,134.798-77.923,202.868-117.272c-2.472-21.97,1.317-42.405,16.744-60.566
	c-91.199-157.897-181.927-314.98-271.997-470.923c-15.353,4.149-29.252,7.906-43.119,11.653
	c-4.884,18.085-5.668,553.592-0.747,580.912C1081.302,871.962,1113.066,890.41,1139.217,922.034z M1087.337,1721.816
	c90.785-157.4,181.114-314.01,272.626-472.67c-21.303-15.304-17.245-38.035-19.111-59.039
	c-67.896-39.219-135.151-78.068-200.494-115.813c-16.927,14.132-30.149,28.395-46.237,37.705
	c-16.431,9.507-35.675,14.151-53.565,20.878c0,192.364,0,383.75,0,576.887C1055.864,1713.708,1070.621,1717.51,1087.337,1721.816z
	 M973.096,273.093c-90.901,157.71-181.483,314.869-272.494,472.77c18.061,16.505,17.426,37.346,17.12,58.586
	c68.128,39.476,135.832,78.707,203.975,118.192c25.598-33.83,58.969-51.057,96.575-57.463c0-195.154,0-388.045,0-580.364
	C1002.909,280.829,988.951,277.207,973.096,273.093z M1019.041,1709.776c0-194.466,0-385.869,0-579.261
	c-10.878-2.851-22.017-4.79-32.383-8.75c-11.354-4.337-21.994-10.541-34.087-16.493c-83.067,48.243-167.913,95.306-251.553,145.813
	c22.992,39.934,44.475,77.578,66.281,115.034c27.205,46.732,54.96,93.144,81.963,139.991
	c39.641,68.773,78.826,137.808,118.205,206.732c2.409,4.217,4.814,8.437,5.643,9.89
	C991.396,1717.575,1004.628,1713.842,1019.041,1709.776z M420.434,633.061c66.51,38.271,133.623,76.889,200.837,115.566
	c10.913-5.644,21.042-10.882,32.211-16.658c9.058,0,18.832,0,29.386,0c90.28-156.396,180.283-312.312,270.286-468.228
	c-0.909-0.808-1.818-1.616-2.727-2.424c-173.266,100.08-346.531,200.159-517.752,299.058
	C428.597,584.589,424.843,606.881,420.434,633.061z M425.14,1428.865c53.659,36.392,509.255,297.403,528.126,302.687
	c-90.12-156.154-180.311-312.432-271.097-469.74c-51.755,29.513-101.515,57.811-151.196,86.246
	c-29.036,16.619-57.96,33.433-86.907,50.207C432.174,1405.157,422.356,1413.352,425.14,1428.865z M1747.966,630.045
	c-1.272-0.47-2.544-0.941-3.816-1.411c-62.791,108.536-125.583,217.072-188.708,326.185c10.33,13.161,15.913,27.195,15.642,43.604
	c-0.266,16.087-5.077,30.125-15.864,40.788c61.952,108.194,122.889,214.626,183.891,321.021c0.774,1.35,2.343,2.272,3.621,3.295
	c0.629,0.504,1.407,0.882,2.177,1.128c0.611,0.194,1.314,0.1,3.057,0.189C1747.966,1119.874,1747.966,874.96,1747.966,630.045z
	 M1147.908,1052.695c69.108,39.95,137.169,79.295,205.811,118.976c18.497-15.768,39.96-19.407,61.416-17.502
	c22.888-39.591,44.544-77.05,64.451-111.484c-7.301-16.765-13.412-30.798-19.713-45.265c6.706-14.984,12.989-29.022,19.841-44.334
	c-21.875-37.418-44.522-76.156-66.561-113.854c-23.019,2.491-41.566-2.162-60.277-15.036
	c-66.213,38.214-132.719,76.598-201.139,116.086C1160.765,977.429,1169.297,1015.184,1147.908,1052.695z M579.955,953.999
	c23.689,44.966,23.661,53.387-1.018,86.395c23.573,37.499,43.391,77.583,68.298,115.818
	c85.264-49.319,168.536-97.486,249.683-144.424c4.04-25.15,7.6-47.309,11.355-70.684c-66.575-39.103-133.657-79.428-199.527-115.39
	c-12.554,4.742-21.322,9.052-30.59,11.282c-9.819,2.363-20.113,2.748-33.06,4.352C624.35,877.224,602.242,915.457,579.955,953.999z
	 M357.102,698.853c-1.801,0.364-3.602,0.727-5.403,1.091c0,12.806-0.231,25.617,0.044,38.417
	c0.763,35.443,2.419,70.88,2.506,106.322c0.331,135.434,0.164,270.87,0.272,406.305c0.006,7.185,0.832,14.369,1.217,20.608
	c5.25,1.797,8.34,2.854,12.821,4.388c45.336-78.208,90.864-156.748,135.978-234.573c-5.69-11.059-10.528-20.46-15.07-29.287
	c0-11.354,0-22.054,0-31.9c5.257-9.301,10.049-17.782,14.683-25.983c-24.892-43.623-49.081-86.314-73.565-128.836
	C406.245,783.132,381.609,741.029,357.102,698.853z M1433.584,829.83c22.655,38.993,44.8,77.11,66.128,113.821
	c13.542,0,25.102,0,37.049,0c20.848-36.347,41.513-72.558,62.357-108.665c21.249-36.809,43.269-73.188,63.851-110.365
	c19.922-35.986,42.587-70.533,58.766-109.322c-47.977,21.663-91.866,49.532-136.868,75.276
	c-45.234,25.876-91.643,49.911-134.022,78.743c0,11.115,0,20.154,0,29.825C1445.454,808.729,1439.841,818.706,1433.584,829.83z
	 M1499.972,1051.668c-22.191,38.519-44.184,76.695-65.532,113.752c6.499,13.195,11.871,24.103,17.401,35.331
	c0,8.981,0,17.909,0,26.249c2.618,2.352,4.225,4.373,6.304,5.578c84.853,49.173,169.73,98.307,254.731,147.222
	c2.694,1.551,6.733,0.764,13.796,1.392c-64.736-111.949-127.61-220.677-190.552-329.524
	C1524.099,1051.668,1513.532,1051.668,1499.972,1051.668z M376.325,688.862c47.964,82.988,98.501,170.425,147.491,255.189
	c14.305,0,24.622,0,37.081,0c21.799-38.149,44.009-77.016,66.855-116.996c-15.467-15.969-23.707-34.666-17.002-56.641
	C581.9,748.112,421.228,657.819,410.089,655.232C398.341,666.934,389.16,676.078,376.325,688.862z M525.481,1051.127
	c-2.731,3.396-5.104,5.681-6.694,8.42c-35.713,61.527-71.375,123.085-106.956,184.689c-6.943,12.02-13.761,24.127-20.156,36.444
	c-3.74,7.203-4.59,14.316,5.126,17.912c32.623-13.296,214.382-120.672,227.707-135.173c-21.258-37.573-41.325-76.537-65.714-112.291
	C547.119,1051.127,537.312,1051.127,525.481,1051.127z"/>
</svg>
