<?xml version="1.0" encoding="iso-8859-1"?>
<!-- Generator: Adobe Illustrator 19.0.0, SVG Export Plug-In . SVG Version: 6.00 Build 0)  -->
<svg version="1.1" id="Layer_1" xmlns="http://www.w3.org/2000/svg" xmlns:xlink="http://www.w3.org/1999/xlink" x="0px" y="0px"
	 viewBox="0 0 2000 2000" style="enable-background:new 0 0 2000 2000;" xml:space="preserve">
<path d="M707.355,1702.233c4.186-114.865,59.629-197.714,162.509-246.172c54.828-25.825,113.892-42.568,170.709-64.287
	c44.11-16.862,87.515-35.567,131.573-52.571c49.536-19.119,99.609-36.849,149.152-55.952c32.937-12.699,65.368-26.711,97.998-40.203
	c15.267-6.313,30.153-13.714,45.757-19.015c49.101-16.679,74.025-53.62,80.116-102.053c5.928-47.132-8.829-88.105-49.038-118.119
	c-50.359-37.59-101.602-30.913-154.764-7.493c-55.159,24.299-110.945,47.176-166.41,70.784
	c-61.641,26.236-123.168,52.743-184.858,78.863c-70.815,29.983-141.709,59.777-212.656,89.446
	c-43.668,18.261-87.807,35.427-131.181,54.353c-58.378,25.474-116.905,22.651-175.389,2.322
	c-78.131-27.158-133.298-80.229-163.862-156.393c-18.248-45.474-25.816-93.225-15.855-143.336
	c10.59-53.276,31.411-100.218,67.89-140.672c39.287-43.567,90.198-66.604,143.975-85.435
	c57.122-20.003,114.937-38.427,170.756-61.616c38.506-15.997,57.442-50.811,64.964-91.176c4.456-23.912,2.385-47.184-5.399-70.653
	c-20.188-60.867-19.949-123.416,2.169-182.484c28.195-75.295,82.257-129.348,157.973-159.218
	c83.261-32.847,166.964-64.572,250.425-96.913c57.469-22.269,114.32-46.262,172.383-66.843
	c140.276-49.721,288.805,15.356,344.755,150.414c59.154,142.794-10.466,303.752-156.014,358.766
	c-41.067,15.522-81.436,33.083-123.062,46.883c-44.623,14.794-85.873,85.825-66.485,144.835
	c21.133,64.32,62.264,91.95,132.208,99.159c71.159,7.335,128.838,38.296,175.049,91.42c51.272,58.943,71,127.771,63.37,205.566
	c-10.135,103.336-66.753,174.074-156.521,218.112c-52.659,25.833-109.781,42.466-164.468,64.305
	c-29.154,11.642-58.678,23.353-85.708,39.042c-28.76,16.693-47.811,44.776-51.09,77.422c-2.832,28.198,0.106,58.229,6.925,85.862
	c11.342,45.953,18.064,89.341,7.644,137.995c-20.544,95.926-78.071,157.752-162.378,198.416
	c-31.427,15.158-67.196,18.618-101.908,18.52c-34.615-0.097-70.393-3.006-102.038-17.102c-36.72-16.356-70.915-38.245-98.233-69.368
	C731.769,1834.587,706.566,1773.807,707.355,1702.233z M1179.911,666.057c-35.399,12.818-64.461,23.043-93.309,33.84
	C984.125,738.25,881.78,776.96,779.255,815.186c-36.278,13.526-73.117,25.55-109.364,39.157
	c-48.399,18.169-96.065,38.361-144.792,55.571c-52.777,18.641-97.595,62.502-94.521,132.577
	c2.645,60.307,56.02,120.58,122.213,122.09c40.297,0.919,72.454-17.842,107.223-30.309c45.651-16.368,89.868-36.727,134.756-55.236
	c44.767-18.458,89.499-37.011,134.434-55.056c65.25-26.204,130.843-51.561,195.952-78.107
	c41.629-16.973,82.649-35.441,125.873-54.072C1197.808,826.648,1170.839,754.548,1179.911,666.057z M1541.092,291.761
	c-1.823-10.73-2.646-21.747-5.627-32.145c-22.682-79.105-101.579-116.294-178.105-85.345
	c-62.692,25.354-125.966,49.269-188.947,73.912c-77.83,30.453-155.583,61.103-233.446,91.469
	c-54.373,21.205-76.344,79.614-74.803,119.737c3.404,88.631,92.27,147.167,175.865,115.643
	c137.892-52,275.19-105.577,412.665-158.679C1505.438,394.435,1537.478,354.148,1541.092,291.761z M1106.449,1706.251
	c-0.43-84.496-61.488-132.896-127.956-130.99c-74.532,2.136-127.996,40.987-129.566,139.298
	c-1.049,65.691,61.201,120.769,129.391,122.026C1039.905,1837.719,1109.051,1784.011,1106.449,1706.251z"/>
</svg>
