<?xml version="1.0" encoding="iso-8859-1"?>
<!-- Generator: Adobe Illustrator 19.0.0, SVG Export Plug-In . SVG Version: 6.00 Build 0)  -->
<svg version="1.1" id="Layer_1" xmlns="http://www.w3.org/2000/svg" xmlns:xlink="http://www.w3.org/1999/xlink" x="0px" y="0px"
	 viewBox="0 0 2000 2000" style="enable-background:new 0 0 2000 2000;" xml:space="preserve">
<path d="M128.011,995.31c0-253.238,0.048-506.476-0.059-759.714c-0.014-33.04,8.497-64.207,17.721-95.583
	c17.739-60.341,58.242-95.301,116.58-115.449c18.751-6.476,36.352-8.733,55.103-8.736c455.828-0.078,911.657-0.281,1367.485,0.138
	c84.413,0.078,149.904,49.93,174.289,127.908c8.239,26.348,14.189,54.691,14.234,82.134c0.829,513.01,0.565,1026.021,0.703,1539.032
	c0.01,36.232-8.308,72.005-21.198,104.007c-19.01,47.194-56.186,82.583-106.403,97.764c-18.724,5.66-37.81,11.643-59.385,11.589
	c-457.462-1.16-914.928-0.815-1372.393-0.941c-76.645-0.021-128.36-41.897-166.227-103.635c-4.801-7.827-7.239-20.418-9.356-30.02
	c-6.739-30.557-10.564-62.351-10.66-93.683C127.67,1498.52,128.011,1246.914,128.011,995.31z M579.214,790.66
	c0-4.884,0-9.768-0.006-14.659c35.699-35.67,71.398-71.34,107.093-107.007c1.406-26.78,4.299-53.65-8.999-78.68
	c13.217-25.088,9.619-52.277,9.778-78.971c0.144-24.038,0.03-48.078,0.03-72.892c-10.755,0-18.429,0-27.765,0
	c0,60.415,0,120.217,0,182.616c-32.724,32.715-65.919,65.901-97.266,97.24c0,24.986,0,48.776,0,72.353
	c7.367,0,12.251,0,144.649-129.091c-53.43,53.43-102.319,102.32-144.82,144.82c0,27.894,0,45.309,0,65.812
	c54.646-54.811,106.528-106.723,158.239-158.805c13.229-13.324,29.406-24.483,28.618-47.324
	c-0.168-4.867,10.519-10.109,13.419-12.696c12.388,9.906,22.114,17.684,30.698,24.548c-4.208,8.212-8.37,16.336-12.572,24.449
	c-9.801,0-19.602,0-29.403,0c2.093,2.096,4.187,4.192,6.28,6.288c-8.291,8.343-16.582,16.687-23.002,23.146
	c13.036,0,30.792,0.187,48.542-0.053c17.275-0.234,34.544-0.907,53.368-1.43c0-24.596,0-45.393,0-67.68
	c61.838,0,121.844,0,182.403,0c0-10.547,0-19.394,0-28.583c-51.032,0-99.955,0-154.577,0c-9.922-11.997-22.271-26.927-32.08-38.787
	c-37.259,0-69.727,0-92.316,0c-15.673,10.92-25.047,17.451-32.798,22.851C706.728,635.578,706.728,650.283,579.214,790.66z
	 M1030.418,1124.159c0,4.882,0,9.765,0,15.161c-6.536,3.057-13.235,6.189-19.68,9.203c0.184,4.02,0.329,7.214,0.577,12.639
	c18.41,0,37.018,0,55.666,0c5.808-5.808,11.697-11.434,17.293-17.337c26.975-28.451,60.513-51.657,72.831-91.923
	c1.001-3.272,7.216-4.949,12.155-8.098c8.788,7.855,16.865,15.075,21.391,19.12c63.859,0,123.461,0,181.448,0
	c0-10.056,0-17.727,0-26.87c-54.913,0-108.23,0-160.044,0c-12.987-12.987-23.949-25.138-36.314-35.638
	c-4.07-3.456-11.769-2.636-17.809-3.771c4.345-6.454,8.689-12.908,13.791-20.487c66.62,0,133.168,0,199.706,0
	c0-17.183,0-32.576,0-46.628c-75.378,0-148.456,0-219.949,0c-20.035,20.035-38.523,38.523-57.159,57.159
	c-16.153,0-32.454,0-49.958,0c-13.16,13.457-25.246,29.69-40.937,40.857c-18.641,13.266-17.604,36.209-30.922,51.266
	c-2.864,3.238-7.529,4.883-1.955,1.426c-16.737-8.353-29.706-14.825-50.367-25.136c15.985-7.728,23.411-11.318,30.837-14.908
	c-1.379-1.411-2.758-2.823-4.137-4.234c9.783,0,19.565,0,30.133,0c7.618-7.821,15.683-15.906,23.52-24.206
	c6.712-7.108,15-13.265,21.558-24.578c-21.955,0-38.202,0-55.082,0c-30.395,30.894-61.273,62.279-94.984,96.544
	c0,3.815,0,11.466,0,21.165c-13.977-0.811-25.985-1.507-35.909-2.082c0-14.515,0-25.444,0-36.646
	c12.848-0.678,23.84-1.258,37.199-1.964c31.611-31.611,63.842-63.844,98.449-98.45c17.889,8.718,42.163-8.662,61.947,9.676
	c18.86-15.998,42.577-3.269,57.355-16.177c10.712-10.712,21.424-21.423,32.553-32.551c-94.993,0-192.134,0-290.92,0
	c0-24.239,0-45.051,0-66.474c-48.644,0-95.561,0-141.818,0c-11.739,12.345-21.859,26.41-40.694,15.961
	c-3.127-7.245-6.121-14.184-10.229-23.701c8.061-7.208,18.028-16.122,26.638-23.821c9.115,9.113,15.912,15.909,19.361,19.357
	c52.566,0,99.499,0,148.591,0c-0.708-13.731-1.332-25.832-1.943-37.685c-23.031,0-42.627,0-61.496,0
	c-8.545,7.788-16.514,15.051-26.357,24.021c-6.862-9.184-11.594-15.517-19.314-25.851c-1.545-10.125,3.623-22.026,23.116-28.811
	c6.852,6.239,14.885,13.553,20.513,18.677c23.245,0,43.976,0,63.794,0c0-19.656,0-37.175,0-55.675c-41.745,0-82.126,0-117.275,0
	c-53.4,53.4-104.073,104.072-154.241,154.241c0,31.683-0.034,64.121,0.151,96.559c0.006,1.058,2.246,2.103,3.445,3.154
	c21.776-12.331,70.827-57.393,74.328-72.309c0-4.343,0-13.817,0-23.564c13.362,0,25.479,0,36.538,0c0,13.183,0,24.148,0,37.593
	c-10.272,4.052-20.104,7.93-26.069,10.283c-30.038,30.039-58.149,58.149-85.756,85.756c21.53,0,45.594,0,70.652,0
	c27.91-27.91,56.92-56.678,85.604-85.767c7.597-7.704,13.984-14.773,16.975-27.428c6.713-28.401,20.038-29.628,47.881-8.064
	c0,6.43,0,12.938,0,20.002c-8.587,4.245-17.475,8.64-26.013,12.861c-3.126-3.126-5.438-5.437-1.391-1.391
	c-31.107,31.107-62.199,62.199-91.497,91.497c12.403,0,29.915,0,50.859,0c10.691,12.437,22.177,25.799,33.659,39.155
	c17.19-17.19,33.801-32.965,49.328-49.744c6.108-6.601,13.017-15.101,13.89-23.337c1.651-15.575,9.743-23.021,23.334-24.893
	c15.172-2.09,23.933,6.16,26.535,20.785c-8.018,26.066-40.574,12.943-53.094,35.424c-11.324,20.334-35.807,31.728-45.866,50.656
	c27.69,27.694,52.848,52.855,79.225,79.234c36.764,0,76.012-0.873,115.19,0.404c17.14,0.559,28.027-10.498,41.736-16.324
	C998.948,1124.742,1024.635,1137.011,1030.418,1124.159z M632.913,1114.599c-8.999-10.23-17.864-20.308-28.335-32.211
	c7.981-7.447,13.691-12.775,17.132-15.986c18.555-5.488,35.023,4.132,34.502,13.957c-1.319,24.913,16.895,33.918,29.686,47.058
	c42.142,43.294,85.231,85.665,128.727,129.161c0,70.975-0.054,142.724,0.252,214.471c0.01,2.231,3.75,4.447,6.158,7.122
	c4.598-1.541,8.895-2.98,11.765-3.942c0-100.68,0-199.855,0-293.257c-43.866-43.867-84.137-84.137-125.474-125.474
	c-15.811,0-36.458,5.563-51.031-1.466c-16.674-8.043-27.612,4.095-41.659,2.063c-17.282-2.5-35.201-0.597-53.885-0.597
	c0,10.249,0,17.952-0.016,25.661c53.118,53.118,106.236,106.236,159.58,159.58c7.471,0.869,15.19,1.766,22.908,2.664
	c-1.92,2.122-3.84,4.245-5.76,6.367c9.674,5.254,19.349,10.508,26.818,14.564c-5.861,11.135-10.01,19.017-13.596,25.83
	c-32.309,6.4-34.485-15.858-35.208-34.646c-50.98-50.98-99.476-99.482-147.997-147.958c-1-0.999-2.565-2.602-3.383-2.351
	c-1.379,0.423-2.371,2.109-3.277,3.015c0,21.04,0,41.809,0,61.298c54.341,54.341,107.459,107.459,160.656,160.656
	c16.107-2.809,28.588,2.224,34,18.381c1.863,5.561,0.296,12.27,0.296,18.043c-6.923,1.692-11.678,2.119-15.705,4.057
	c-3.638,1.752-6.481,5.156-8.757,7.063c-5.232-3.343-8.988-6.149-13.102-8.254c-3.81-1.949-8.003-3.147-11.872-4.618
	c0-11.207,0-20.897,0-27.826c-48.716-48.732-95.857-95.889-144.582-144.63c0,37.869,0,74.889,0,111.97
	c7.175,8.478,15.36,18.15,22.748,26.881c16.415-1.32,29.879-2.403,43.276-3.481c-9.17-10.525-16.649-19.109-23.714-27.218
	c-17.164,2.421-29.18-2.514-34.78-19.134c4.295-17.346,17.593-23.488,32.531-19.297c15.964,4.479,17.864,20.263,23.831,29.222
	c56.781,56.781,113.562,113.562,168.367,168.367c0-64.915,0-134.68,0-197.269c-53.999-53.999-104.243-104.243-154.468-154.468
	C638.949,1108.563,636.64,1110.873,632.913,1114.599z M1305.418,606.565c18.814,19.697,36.724,38.446,51.871,54.304
	c30.579,0,57.79,0,84.58,0c0.284-3.862,1.146-6.126,0.41-6.932c-30.477-33.383-61.098-66.635-90.566-98.671
	c-41.658,0-80.838,0-120.057,0.024c-28.794-28.902-57.587-57.805-86.635-86.962c-14.541-0.222-30.564-2.112-35.445-17.352
	c-4.731-14.771,1.895-28.018,18.569-33.09c20.151,4.706,19.511,21.841,21.975,36.369c30.471,30.471,60.487,60.487,89.889,89.889
	c67.112,0,133.604,0,200.096,0c0-23.305,0-45.217,0-68.66c-72.047,0-141.816,0-213.408,0c-28.627-28.628-57.37-57.372-89.316-89.32
	c-6.715,0-17.504,0-28.326,0c0.883-32.715,0.883-32.715,22.795-46.728c23.953,11.975,12.933,49.426,43.839,58.219
	c0-28.944,0-57.387,0-87.84c-26.482,0.959-51.746-1.281-74.897,1.32c0,86.874,0,169.683,0,252.952c15.949,0,30.164,0,40.408,0
	c11.802-8.469,20.526-14.729,23.591-16.929c10.787,11.555,18.857,20.2,26.476,28.361c-1.482,3.539-4.395,10.498-7.089,16.933
	c-20.237,9.547-29.227-6.54-39.37-16.054c-15.499,0-29.768,0-46.041,0c0.726,13.743,1.365,25.826,1.994,37.74
	c32.816,0,62.194,0,91.572,0.035c16.162,16.162,32.325,32.325,47.526,47.526c31.549,0,62.124,0,89.259,0
	c-10.079-11.652-21.089-24.38-33.434-38.653c-7.606,0-17.144,0-26.086,0c-4.293-8.914-8.136-16.894-11.979-24.873
	c2.602,2.901,5.204,5.802,7.806,8.702c5.092-12.528,10.184-25.055,14.054-34.579
	C1302.245,580.782,1307.838,592.456,1305.418,606.565z M918.801,497.822c-15.175-19.523-29.627-38.115-47.095-60.589
	c0-38.75,0-82.343,0-126.167c-9.475,0-17.151,0-26.475,0c0,38.06,0,75.15,0,115.924c-12.953,4.86-25.634,9.618-39.481,14.813
	c0,6.46,0,14.143,0,17.651c29.972,29.974,57.54,57.543,86.413,86.417c22.977,4.5,27.79,7.775,30.453,19.659
	c3.057,13.643-4.991,22.392-14.607,27.806c-5.841,3.289-15.044,0.606-21.633,0.606c-4.293-10.252-7.589-18.121-10.891-25.988
	c2.307-2.307,4.615-4.615,7.219-7.219c-29.62-29.609-59.254-59.233-89.819-89.786c0-11.224,0-21.989,0-32.033
	c-16.374,0-30.617,0-45.842,0c0,18.821,0,36.306,0,53.655c40.53,40.53,80.907,80.907,120.027,120.027c51.406,0,101.55,0,151.196,0
	c5.854-19.564,1.15-32.418-20.586-39.105c-11.901,9.117-20.922,30.118-42.348,19.347c-3.875-8.056-7.735-16.082-15.104-31.403
	c7.172-7.171,16.766-16.762,26.121-26.116c1.452,1.452-0.682,0.325-0.715-0.859c-2.062-74.141-3.953-148.286-5.921-224.792
	c-9.862,0.723-18.721,1.372-27.385,2.007c0,22.788-0.835,42.405,0.199,61.923c1.492,28.17-4.825,56.501,8.613,84.526
	C947.632,471.664,943.254,490.114,918.801,497.822z M561.301,1428.951c0,21.737,0,39.238,0,54.932
	c5.167,5.167,8.629,8.629,11.768,11.769c21.11,0,41.873,0,61.895,0c6.57-6.857,12.2-12.734,17.534-18.3c7.038,0,13.545,0,23.706,0
	c4.395,9.671,9.387,20.655,13.425,29.539c-11.356,16.703-22.336,24.146-38.697,17.581c-5.771-5.771-11.542-11.542-16.306-16.306
	c-25.067,0-49.111,0-75.313,0c0.677,13.712,1.275,25.833,1.865,37.77c35.986,0,68.969-2.911,101.181,0.824
	c31.804,3.687,60.903-15.778,92.85-9.518c-0.702,16.533,6.426,31.913-8.787,42.471c-3.68,2.553-7.844,4.409-9.688,5.428
	c-8.019-8.02-14.785-14.786-18.331-18.333c-56.137,0-106.288,0-156.569,0c0,19.993,0,38.64,0,57.599
	c34.822,0,67.651-2.482,99.928,0.678c34.176,3.346,65.174-14.65,98.752-10.483c24.276-24.276,48.508-48.508,72.473-72.472
	c0-14.458,0-28.679,0-44.515c-38.297,0-75.41,0-116.815,0c-24.102-22.286-49.66-45.92-74.255-68.662
	C614.884,1428.951,588.958,1428.951,561.301,1428.951z M602.41,1368.052c37.361,37.361,73.052,73.052,109.461,109.461
	c20.283-2.203,41.92,3.235,64.561-3.519c-46.362-46.475-90.041-90.26-132.014-132.335c-28.963,0-56.218,0-83.868,0
	c0,9.382,0,17.053,0,26.393C575.594,1368.052,589.838,1368.052,602.41,1368.052z M832.255,1561.174
	c-34.726,36.646-65.877,69.519-98.186,103.614c-7.889-6.924-16.081-14.115-21.012-18.443c-53.596,0-103.469,0-151.908,0
	c0,13.26,0,24.196,0,36.014c64.636,0,127.726,0,188.655,0c29.003-28.501,56.812-55.829,82.451-81.024
	C832.255,1588.155,832.255,1577.299,832.255,1561.174z M1019.05,567.64c0-88.248,0-172.036,0-257.915
	c-13.748,0.714-25.813,1.341-36.255,1.884c0,82.87,0,162.242,0,245.655C994.193,560.526,1005.354,563.72,1019.05,567.64z
	 M560.041,691.619c26.738-26.731,51.717-51.703,76.532-76.51c0-57.257,0.02-115.705-0.139-174.153
	c-0.003-1.183-2.09-2.361-1.449-1.682c-9.681,0-17.302,0-26.473,0c0,45.275,0,88.856,0,134.194
	c-16.469,15.369-33.05,30.843-48.471,45.234C560.041,643.183,560.041,665.871,560.041,691.619z M1246.986,465.446
	c67.356,0,130.476,0,194.473,0c0-9.197,0-16.871,0-27.8c-55.058,0-109.626,0-167.372,0c0-44.714,0-86.268,0-125.938
	c-11.093,0-18.721,0-27.101,0C1246.986,363.453,1246.986,413.522,1246.986,465.446z M1172.945,1124.159c29.297,0,58.595,0,92.52,0
	c7.236-8.544,16.591-19.591,26.952-31.825c27.28,0,54.381,0,82.349,0c-1.319-6.986-2.158-11.434-3.101-16.424
	c-61.075,0-120.897,0-180.85,0c-2.359,6.007-4.557,11.604-7.418,18.887c-10.255,0-21.191,0-31.216,0
	c-18.27,22.169-42.272,37.017-56.735,64.957C1134.559,1170.425,1151.903,1143.238,1172.945,1124.159z M719.727,582.962
	c32.331,0,62.941,0,94.193,0c-31.003-30.469-60.778-59.731-89.472-87.93c0-21.567,0-39.091,0-57.299
	c-6.385,0.483-10.815,0.819-16.444,1.245c0,44.535,0,88.183,0,132.262C711.049,574.284,714.515,577.75,719.727,582.962z
	 M1372.694,998.155c-58.572,0-116.11,0-171.612,0c7.46,8.776,15.234,17.921,22.18,26.092c49.754,0,99.525,0,149.433,0
	C1372.694,1014.774,1372.694,1007.128,1372.694,998.155z M1188.848,310.993c0,35.645,0,70.327,0,91.984
	c17.796,17.797,28.335,28.335,35.909,35.91c0-38.851,0-83.26,0-127.893C1212.056,310.993,1201.195,310.993,1188.848,310.993z
	 M588.288,439.196c-11.814,0-19.455,0-26.553,0c0,52.698,0,103.717,0,153.732c10.281-8.396,19.886-16.24,26.553-21.684
	C588.288,524.767,588.288,482.865,588.288,439.196z M1372.766,1143.776c-63.918,0-126.934-0.486-189.923,0.58
	c-8.423,0.142-16.714,8.138-34.332,17.333c82.345,0,153.038,0,224.255,0C1372.766,1155.578,1372.766,1151.172,1372.766,1143.776z
	 M884.979,311.065c0,42.356,0,83.666,0,126.168c8.468,4.023,16.022,7.613,25.913,12.312c0-49.155,0-93.718,0-138.48
	C901.416,311.065,893.766,311.065,884.979,311.065z M1217.249,661.901c-9.503-10.892-17.556-20.122-22.815-26.15
	c-34.335,0-64.515,0-94.147,0c0,9.701,0,17.308,0,26.15C1138.251,661.901,1175.066,661.901,1217.249,661.901z M1375.061,557.409
	c21.964,21.959,43.22,43.209,65.385,65.369c0-21.629,0-43.437,0-65.369C1417.827,557.409,1396.018,557.409,1375.061,557.409z"/>
</svg>
