<?xml version="1.0" encoding="iso-8859-1"?>
<!-- Generator: Adobe Illustrator 19.0.0, SVG Export Plug-In . SVG Version: 6.00 Build 0)  -->
<svg version="1.1" id="Layer_1" xmlns="http://www.w3.org/2000/svg" xmlns:xlink="http://www.w3.org/1999/xlink" x="0px" y="0px"
	 viewBox="0 0 500 500" style="enable-background:new 0 0 500 500;" xml:space="preserve">
<path id="XMLID_4_" d="M87.378,423.51c2.538-4.704,5.705-9.179,7.517-14.148c21.539-59.07,41.673-118.689,64.819-177.117
	c10.179-25.695,26.122-49.155,40.129-73.233c2.072-3.561,7.94-7.026,12.017-6.986c47.958,0.466,95.62,4.742,141.959,17.571
	c17.262,4.779,33.485,13.313,51.544,20.692c-31.332-71.018-94.478-81.484-161.026-85.766c19.96-35.536,75.886-60.348,121.912-53.514
	c-4.948-5.216-8.975-9.461-15.151-15.972c5.801,2.641,9.13,3.934,12.254,5.61c88.36,47.409,139.053,152.32,120.347,248.979
	c-20.565,106.267-102.15,183.92-205.991,195.561c-72.638,8.143-136.085-12.528-190.017-62.021
	C87.692,423.166,87.378,423.51,87.378,423.51z M232.975,307.35c-0.358,27.462,21.133,50.037,48.206,50.636
	c27.137,0.6,50.282-22.371,50.328-49.951c0.045-27.227-22.074-49.752-49.034-49.934C255.343,257.917,233.335,279.813,232.975,307.35
	z M87.392,423.491c2.036-93.955,24.446-183.02,66.07-269.541c-13.553,2.123-24.986,3.407-36.194,5.763
	c-34.994,7.356-68.748,17.779-95.421,43.359c-3.495,3.352-7.147,8.19-7.703,12.712c-9.995,81.276,13.964,150.691,73.548,207.381
	C87.692,423.166,87.378,423.51,87.392,423.491z M16.995,203.767c13.971-24.32,31.984-41.469,53.532-54.984
	c29.069-18.232,60.867-29.499,94.482-35.374c10.573-1.848,17.373-6.517,23.893-15.066c30.635-40.169,65.651-74.227,120.237-77.972
	C171.386-17.606,38.53,78.064,16.995,203.767z"/>
</svg>
