<?xml version="1.0" encoding="iso-8859-1"?>
<!-- Generator: Adobe Illustrator 19.0.0, SVG Export Plug-In . SVG Version: 6.00 Build 0)  -->
<svg version="1.1" id="Layer_1" xmlns="http://www.w3.org/2000/svg" xmlns:xlink="http://www.w3.org/1999/xlink" x="0px" y="0px"
	 viewBox="0 0 2000 2000" style="enable-background:new 0 0 2000 2000;" xml:space="preserve">
<path d="M1001.304,1987.952c-544.48,6.058-993.056-442.981-993.55-985.716C7.254,452.423,449.815,9.513,1000.058,9.082
	c545.615-0.428,990.655,450.058,989.346,995.631C1988.128,1536.873,1538.41,1994.302,1001.304,1987.952z M1581.649,685.158
	c19.739-68.251,38.557-131.461,55.857-195.083c2.68-9.854-1.593-21.599-2.565-31.589c-9.066-1.421-12.924-2.555-16.782-2.555
	c-259.417-0.02-518.835-0.045-778.251,0.377c-14.07,0.023-28.134,3.857-43.573,6.118c-5.453,17.164-10.61,31.987-14.869,47.065
	c-13.297,47.078-26.797,94.108-39.232,141.417c-28.56,108.656-58.05,217.104-84.214,326.343
	c-17.137,71.548-16.4,73.344-91.214,73.208c-38.021-0.069-76.041-0.012-115.472-0.012c-6.816,31.255-34.253,54.188-17.212,91.745
	c54.211,0,108.877,0,169.068,0c-2.002,15.401-3.332,25.626-5.02,38.609c-60.729,0-117.28-0.294-173.824,0.185
	c-16.341,0.138-32.663,2.498-48.798,3.824c-7.144,29.535-12.935,53.479-20.043,82.868c18.176,1.748,31.813,4.093,45.465,4.182
	c43.672,0.287,87.35-0.313,131.026-0.462c16.3-0.055,32.299,0.784,39.734,21.305c-22.212,79.034-44.787,159.357-68.081,242.241
	c12.007,1.825,18.265,3.562,24.536,3.61c87.337,0.682,174.676,1.422,262.013,1.284c11.311-0.018,22.614-4.87,34.981-7.728
	c3.364-12.056,6.244-21.993,8.907-31.987c11.226-42.135,22.116-84.362,33.63-126.419c23.723-86.651,47.341-173.336,71.909-259.748
	c8.528-29.995,14.176-61.762,39.156-87.955c140.141,0,281.065,0,424.88,0c29.861-73.74,42.589-150.131,67.369-228.032
	c-18.356-3.046-30.898-6.967-43.424-6.919c-118.479,0.457-236.955,1.702-355.433,2.395c-15.963,0.093-32.312-0.837-41.845-23.616
	c6.349-21.296,13.742-46.096,21.966-73.682c19.799-1.524,36.545-3.917,53.292-3.928c144.132-0.092,288.265,0.475,432.396,0.113
	C1553.01,692.291,1568.027,687.502,1581.649,685.158z"/>
</svg>
