<?xml version="1.0" encoding="utf-8"?>
<!-- Generator: Adobe Illustrator 25.1.0, SVG Export Plug-In . SVG Version: 6.00 Build 0)  -->
<svg version="1.1" id="Layer_1" xmlns="http://www.w3.org/2000/svg" xmlns:xlink="http://www.w3.org/1999/xlink" x="0px" y="0px"
	 viewBox="0 0 500 500" style="enable-background:new 0 0 500 500;" xml:space="preserve">
<path d="M104.7,52.2c0.1,28.8-21.5,50.8-49.9,51C26.4,103.4,4.5,81.6,4.2,52.9C3.8,23.2,25.8,0.7,55,1
	C83.2,1.2,104.7,23.3,104.7,52.2z M54.5,137c-28.6,0.2-50.3,22.3-50.4,51.2c0,29,21.8,51.1,50.4,51.2c28.3,0,50.2-22.2,50.2-51.2
	C104.8,159,83,136.8,54.5,137z M195.2,95c22.9,0.2,43.1-19.6,43.2-42.5c0.1-22.9-19.7-43.2-42.4-43.4C172.6,9,153.6,28,153.4,51.7
	C153.2,75.6,171.7,94.8,195.2,95z M196.8,230.5c22.7-0.6,41.6-19.8,41.6-42.3c-0.1-23.9-18.9-42.4-43.1-42.3
	c-24.3,0.1-42.3,18.5-41.9,43C153.7,212.9,172.7,231.2,196.8,230.5z M54,281.4c-23.1,0.3-42.5,20.1-42.3,43.2
	c0.2,23.8,18.8,41.8,43.1,41.5c24.8-0.3,42.2-17.8,41.9-42.4C96.6,300.1,77.4,281.1,54,281.4z M26.6,468.4
	c-0.3,16.1,12.5,28.8,28.6,28.4c15.3-0.4,27.2-12.8,27-28.1C82,453,70.2,441.2,54.6,441.2C39.1,441.1,26.9,453,26.6,468.4z
	 M167.9,322.9c-0.7,15.9,10.2,28.1,25.8,29c16,0.9,29.7-11.5,29.9-27.1c0.2-15.1-12-27.8-27.1-28.3C181,296,168.6,307.5,167.9,322.9
	z M362.2,187.9c-0.3-14.9-13.5-27.7-28.3-27.5c-15,0.3-27.5,13.3-27.2,28.3c0.3,15.3,12.9,27.5,28.2,27.3
	C350,215.9,362.5,203.1,362.2,187.9z M362.1,51.4c-0.4-15-11.8-25.9-27.1-26.1c-16.3-0.2-28.2,10.9-28.4,26.6
	c-0.2,15.7,11.6,27.1,27.9,27C350.8,78.8,362.5,67.1,362.1,51.4z M474.8,33.3c-11.9-0.2-21.4,8.8-21.2,20.1
	c0.2,10.8,10.8,20.6,21.6,20C486.1,72.8,494.1,64,494,53C493.9,41.4,486.2,33.5,474.8,33.3z M473.8,169.2
	c-10.6,0.1-19.9,9-20.2,19.4c-0.4,11.1,9.3,20.8,20.7,20.8c11.2,0,19.4-8,19.6-19.2C494.3,178.3,485.5,169.1,473.8,169.2z
	 M178.2,468.8c1,10.6,7.5,16.3,17.9,16.9c10.2,0.6,18.7-8,18.5-18.1c-0.1-10.2-8.6-18.2-18.8-17.9
	C185.5,450.1,177.3,458.7,178.2,468.8z M353,324.7c-0.4-10.9-6.8-16.3-17-17.1c-10.2-0.8-18.6,7.6-18.7,17.6
	c-0.1,10.1,8.1,18.3,18.2,18.2C345.6,343.3,353.4,335.1,353,324.7z"/>
</svg>
