<?xml version="1.0" encoding="iso-8859-1"?>
<!-- Generator: Adobe Illustrator 19.0.0, SVG Export Plug-In . SVG Version: 6.00 Build 0)  -->
<svg version="1.1" id="Layer_1" xmlns="http://www.w3.org/2000/svg" xmlns:xlink="http://www.w3.org/1999/xlink" x="0px" y="0px"
	 viewBox="0 0 500 500" style="enable-background:new 0 0 500 500;" xml:space="preserve">
<path d="M351.564,232.347c-3.409,3.695-7.26,7.869-10.738,11.639c-28.636-28.53-56.922-56.712-85.518-85.202
	c3.759-3.304,8.145-7.157,12.349-10.852C295.05,175.49,323.415,204.027,351.564,232.347z M232.001,351.094
	c3.825-3.45,8.026-7.239,11.856-10.693c-28.415-28.56-56.579-56.868-85.007-85.44c-3.469,3.966-7.191,8.219-10.673,12.199
	C175.89,294.909,204.291,323.348,232.001,351.094z M374.853,147.116c-3.87,3.876-7.859,7.87-11.058,11.073
	c28.219,28.397,56.528,56.884,85.272,85.809c3.418-3.817,7.041-7.862,10.612-11.849C431.343,203.743,402.979,175.31,374.853,147.116
	z M266.987,39.256c-3.936,3.845-7.963,7.778-11.413,11.149c28.401,28.52,56.747,56.985,85.255,85.612
	c3.628-3.7,7.429-7.577,11.069-11.288C323.251,95.891,294.959,67.412,266.987,39.256z M232.425,459.343
	c3.802-3.385,7.866-7.002,11.826-10.528c-28.886-28.738-57.394-57.102-85.69-85.253c-3.609,3.395-7.742,7.283-10.803,10.163
	C176.467,402.757,204.667,431.274,232.425,459.343z M123.85,351.621c4.035-3.626,8.241-7.405,11.992-10.776
	c-28.724-28.793-57.099-57.235-85.199-85.402c-3.832,3.74-7.876,7.686-11.457,11.18C67.635,295.184,95.97,323.631,123.85,351.621z
	 M351.74,340.218c-28.431-28.54-56.776-56.993-84.61-84.934c-4.036,3.807-8.168,7.704-12.183,11.491
	c28.405,28.326,56.834,56.677,85.033,84.798C343.795,347.888,347.992,343.836,351.74,340.218z M159.409,147.386
	c-4.024,4.03-8.13,8.142-11.59,11.608c28.062,28.195,56.346,56.614,84.097,84.497c4.096-3.714,8.29-7.517,12.231-11.092
	C215.617,203.776,187.278,175.346,159.409,147.386z M201.728,394.298c3.5,3.76,7.331,7.874,10.884,11.689
	c28.661-28.596,56.897-56.768,85.082-84.89c-3.744-3.978-7.606-8.082-10.734-11.405
	C258.056,338.384,229.741,366.491,201.728,394.298z M296.482,104.599c-3.409-3.234-7.455-7.073-11.023-10.458
	c-27.703,27.607-55.971,55.777-84.451,84.16c3.874,3.87,7.85,7.841,10.782,10.77C240.412,160.522,268.795,132.213,296.482,104.599z
	 M309.935,285.734c3.749,3.794,7.828,7.922,10.982,11.115c28.283-28.042,56.627-56.146,85.29-84.565
	c-3.691-3.736-7.503-7.595-11.48-11.621C365.749,229.736,337.573,258.005,309.935,285.734z M94.25,285.708
	c3.694,3.893,7.545,7.951,10.696,11.271c28.058-27.943,56.336-56.104,84.777-84.427c-3.703-3.632-7.709-7.561-11.002-10.79
	C150.192,230.112,121.766,258.362,94.25,285.708z M298.221,212.4c-4.018-3.824-8.204-7.808-11.23-10.688
	c-28.968,28.766-57.245,56.847-85.381,84.788c3.408,3.574,7.148,7.497,10.867,11.398C241.138,269.319,269.397,241.14,298.221,212.4z
	 M189.702,104.335c-3.687-3.525-7.728-7.389-11.348-10.85c-28.372,28.36-56.753,56.729-85.045,85.01
	c3.504,3.659,7.256,7.578,10.845,11.326C133.011,160.985,161.245,132.772,189.702,104.335z M405.288,320.348
	c-3.23-3.491-6.91-7.47-10.121-10.94c-28.734,28.682-57.145,57.042-86.036,85.881c3.42,3.136,7.423,6.807,11.065,10.147
	C348.76,376.874,377.144,348.491,405.288,320.348z M365.717,270.669c19.33,19.511,38.643,39.039,58.047,58.476
	c4.805,4.813,11.451,5.162,15.204,1.172c3.401-3.616,2.604-9.495-1.985-14.471c-0.922-1-1.9-1.949-2.862-2.911
	c-10.96-10.966-21.909-21.944-32.888-32.892c-8.63-8.606-17.299-17.173-25.707-25.516c-4.692,4.353-8.846,8.208-13.197,12.244
	C363.6,268.242,364.586,269.528,365.717,270.669z M258.411,379.541c15.579,15.574,31.172,31.134,46.77,46.689
	c4.236,4.225,8.345,8.597,12.806,12.571c3.448,3.071,8.922,3.006,11.975,0.433c3.444-2.903,4.113-8.217,1.381-12.521
	c-1.001-1.577-2.363-2.952-3.691-4.29c-11.491-11.575-22.981-23.151-34.534-34.664c-8.592-8.562-17.279-17.03-25.501-25.125
	c-4.873,4.416-9.052,8.204-13.485,12.221C255.882,376.779,257.088,378.219,258.411,379.541z M238.841,117.622
	c-18.102-18.079-36.225-36.136-54.343-54.198c-6.219-6.2-12.146-7.335-16.092-3.086c-4.067,4.38-3.15,10.073,2.998,16.269
	c15.708,15.83,31.505,31.573,47.297,47.32c4.331,4.318,8.767,8.531,13.286,12.92c4.48-4.482,8.32-8.324,12.828-12.834
	C242.517,121.546,240.743,119.521,238.841,117.622z M75.184,170.009c-0.957-0.951-2.047-2.299-3.192-2.428
	c-3.267-0.369-6.773-0.886-9.855-0.081c-4.167,1.088-4.854,5.151-3.962,8.691c0.677,2.684,2.368,5.423,4.336,7.42
	c15.653,15.886,31.471,31.61,47.259,47.363c4.584,4.574,9.234,9.081,14.303,14.06c4.445-4.461,8.447-8.477,13.205-13.252
	C116.005,210.608,95.606,190.297,75.184,170.009z M428.904,298.323c1.28-0.971,2.451-1.665,3.385-2.597
	c19.69-19.627,39.358-39.276,59.01-58.941c0.957-0.957,1.899-2,2.561-3.166c1.988-3.506,1.247-8.916-1.419-11.363
	c-3.2-2.937-8.334-3.105-11.96-0.221c-1.698,1.351-3.186,2.971-4.728,4.511c-16.976,16.948-33.896,33.953-50.962,50.809
	c-2.695,2.662-6.04,4.665-9.28,7.121C421.194,290.35,424.949,294.233,428.904,298.323z M174.452,311.456
	c-14.04,14.01-28.067,28.033-42.079,42.072c-5.95,5.961-12.006,11.827-17.728,18c-3.92,4.229-3.717,9.624-0.094,13.082
	c3.392,3.238,8.433,3.32,12.575,0.068c1.488-1.168,2.774-2.6,4.118-3.944c18.637-18.633,37.276-37.264,55.883-55.927
	c1.104-1.107,1.942-2.478,2.945-3.781c-4.147-4.018-8.018-7.768-12.539-12.148C176.482,309.75,175.387,310.523,174.452,311.456z
	 M66.652,203.463c-19.618,19.573-39.217,39.164-58.817,58.756c-0.768,0.767-1.615,1.488-2.234,2.365
	c-2.518,3.57-2.087,9.198,0.841,11.963c3.268,3.086,8.141,3.363,11.91,0.546c1.295-0.968,2.395-2.203,3.547-3.352
	c8.659-8.631,17.277-17.305,25.971-25.901c11.577-11.446,23.212-22.834,34.5-33.932c-4.549-4.812-8.391-8.876-12.438-13.158
	C68.692,201.768,67.587,202.53,66.652,203.463z M321.386,190.769c21.389-21.456,42.011-42.035,62.482-62.762
	c4.415-4.47,4.319-10.116,0.436-13.759c-3.612-3.389-8.664-3.137-13.16,0.707c-1.033,0.883-1.957,1.893-2.921,2.855
	c-17.158,17.136-34.321,34.267-51.465,51.418c-2.665,2.666-5.238,5.423-8.477,8.785
	C313.058,182.662,317.037,186.535,321.386,190.769z M282.352,419.884c-19.224,19.238-38.422,38.501-57.617,57.768
	c-1.149,1.153-2.399,2.261-3.304,3.592c-3.939,5.789-0.246,13.057,6.699,13.685c4.399,0.398,7.044-2.092,9.783-4.84
	c18.814-18.877,37.675-37.708,56.486-56.587c1.432-1.438,2.598-3.14,3.834-4.654c-4.215-4.36-7.982-8.255-11.851-12.257
	C284.85,417.832,283.489,418.746,282.352,419.884z M215.58,80.048c19.998-19.971,39.977-39.962,59.954-59.954
	c0.575-0.575,1.143-1.164,1.648-1.8c2.483-3.126,2.451-6.447,0.708-9.882c-1.68-3.312-4.602-5.049-8.018-4.187
	c-2.93,0.74-6.039,2.262-8.19,4.345c-11.904,11.532-23.548,23.332-35.264,35.058c-8.612,8.619-17.197,17.265-26.037,26.141
	c4.454,4.348,8.456,8.255,12.57,12.272C213.873,81.351,214.827,80.8,215.58,80.048z M126.687,113.96
	c-3.677-3.117-9.692-2.608-12.569,0.53c-2.713,2.959-3.042,8.506-0.275,11.959c2.982,3.721,6.352,7.131,8.736,9.772
	c5.268-4.632,9.52-8.371,14.008-12.318C133.144,120.402,130.154,116.899,126.687,113.96z M28.439,231.055
	c-2.988-2.687-5.979-5.4-8.998-8.083c-4.114-3.657-9.695-3.996-13.045-0.822c-3.185,3.018-3.34,9.325,0.043,13.217
	c2.645,3.043,5.727,5.705,8.686,8.605C19.546,239.683,23.662,235.69,28.439,231.055z M373.217,385.589
	c3.265,2.531,8.302,1.776,11.114-0.943c3.112-3.008,3.85-8.284,1.08-11.771c-2.965-3.733-6.457-7.047-9.432-10.236
	c-4.887,4.62-8.969,8.48-13.643,12.898C366.133,379.096,369.432,382.656,373.217,385.589z M253.74,483.924
	c3.917,3.473,6.856,6.261,9.988,8.811c4.02,3.273,10.097,2.974,13.179-0.451c2.967-3.296,2.766-8.646-0.493-12.443
	c-2.617-3.049-5.261-6.076-7.68-8.866C262.986,475.939,258.776,479.574,253.74,483.924z M234.416,5.832
	c-3.619-2.936-9.687-2.305-12.459,0.849c-2.691,3.062-2.806,8.54,0.157,11.821c3.15,3.487,6.657,6.652,9.891,9.842
	c4.54-4.249,8.471-7.927,13.238-12.388C241.071,12.016,237.936,8.688,234.416,5.832z M438.948,180.787
	c3.019-3.949,2.878-8.717-0.063-11.894c-3.308-3.574-8.339-4.161-12.489-0.967c-3.619,2.786-6.862,6.062-10.22,9.075
	c4.882,4.919,8.844,8.912,14.141,14.251C433.135,187.855,436.17,184.419,438.948,180.787z M479.662,276.157
	c3.92,3.577,8.855,3.855,12.379,0.932c3.571-2.963,4.027-8.904,0.925-13.132c-2.528-3.445-5.153-6.819-8.072-10.669
	c-5.734,5.656-9.673,9.54-14.189,13.994C473.998,270.564,476.724,273.476,479.662,276.157z M322.47,82.692
	c2.638-3.09,5.331-6.128,7.892-9.272c3.677-4.514,3.624-9.405-0.017-13.152c-3.338-3.435-8.67-3.243-13.154,0.475
	c-3.12,2.587-6.238,5.177-8.071,6.698C314.241,73.29,317.908,77.479,322.47,82.692z M59.941,318.346
	c-3.051,3.689-2.757,8.693,0.199,11.785c3.366,3.52,8.463,4.179,12.409,0.942c3.437-2.819,6.323-6.309,9.886-9.946
	c-4.552-4.419-8.408-8.161-13.065-12.682C66.074,311.872,62.776,314.918,59.941,318.346z M177.203,416.9
	c-3.435,3.516-6.761,6.357-9.379,9.745c-3.189,4.127-2.418,9.234,1.226,12.413c3.206,2.798,8.201,2.911,11.852-0.248
	c3.055-2.643,5.666-5.8,8.444-8.697C185.226,425.63,181.324,421.384,177.203,416.9z"/>
</svg>
