<?xml version="1.0" encoding="iso-8859-1"?>
<!-- Generator: Adobe Illustrator 19.0.0, SVG Export Plug-In . SVG Version: 6.00 Build 0)  -->
<svg version="1.1" id="Layer_1" xmlns="http://www.w3.org/2000/svg" xmlns:xlink="http://www.w3.org/1999/xlink" x="0px" y="0px"
	 viewBox="0 0 500 500" enable-background="new 0 0 500 500" xml:space="preserve">
<path d="M250.313,4.819c134.951,0.002,244.348,109.447,244.362,244.43c0.014,135.2-109.892,244.877-245.242,244.429
	C114.926,493.233,5.787,384.021,5.813,249.233C5.84,114.184,115.24,4.817,250.313,4.819z M250.25,22.22
	C124.921,22.224,23.342,123.713,23.217,249.051c-0.125,125.434,101.546,227.197,227.019,227.223
	c125.338,0.027,226.987-101.591,227.034-226.963C477.317,123.902,375.663,22.216,250.25,22.22z M241.12,198.965
	c0.248,1.317,0.494,2.547,0.708,3.783c0.746,4.301,1.35,8.633,2.282,12.893c0.404,1.847,1.4,3.587,2.281,5.297
	c0.418,0.811,1.198,1.436,1.915,2.262c0.533-0.612,0.983-1.075,1.371-1.586c2.425-3.193,3.678-6.895,4.477-10.753
	c1.699-8.202,2.947-16.475,3.491-24.839c0.225-3.46,1.327-6.425,4.119-8.629c2.459-1.942,4.936-3.864,7.348-5.864
	c5.144-4.265,10.259-8.564,15.371-12.867c16.731-14.082,33.757-27.784,51.788-40.189c13.669-9.405,27.821-17.995,42.745-25.28
	c0.259-0.126,0.518-0.252,0.898-0.437c1.744,1.45,3.322,3.113,4.73,4.941c4.417,5.734,7.04,12.259,8.421,19.312
	c2.38,12.157,0.745,23.865-4.023,35.212c-3.84,9.14-8.901,17.594-14.914,25.428c-7.507,9.781-15.276,19.363-22.991,28.984
	c-8.283,10.33-16.639,20.601-24.952,30.908c-1.735,2.151-3.411,4.348-5.13,6.511c-0.487,0.613-1.049,1.166-1.543,1.773
	c-2.014,2.477-4.494,3.312-7.747,3.039c-6.483-0.546-12.942-0.065-19.21,1.886c-2.136,0.665-4.14,1.631-5.86,3.105
	c-1.137,0.974-2.076,2.098-2.708,3.532c1.253,1.442,2.867,2.22,4.614,2.761c3.396,1.052,6.906,1.111,10.413,1.114
	c2.764,0.003,5.527-0.084,8.291-0.126c0.695-0.011,1.39-0.002,2.32-0.002c-0.339,0.539-0.559,0.912-0.802,1.27
	c-9.193,13.554-18.973,26.685-28.754,39.814c-3.671,4.928-7.363,9.841-10.995,14.797c-1.217,1.66-2.384,3.376-3.384,5.172
	c-1.615,2.901-3.983,4.102-7.255,3.792c-3.447-0.327-6.902-0.591-10.358-0.812c-1.849-0.118-3.71-0.155-5.563-0.115
	c-8.292,0.18-16.574,0.566-24.797,1.706c-7.9,1.094-15.671,2.717-22.953,6.137c-4.382,2.057-8.314,4.718-11.329,8.583
	c-0.304,0.39-0.584,0.799-0.864,1.206c-0.089,0.129-0.144,0.28-0.29,0.571c31.82,2.465,63.54,4.66,95.382,4.301
	c0.028,0.087,0.056,0.174,0.084,0.26c-0.412,0.224-0.818,0.46-1.237,0.671c-6.268,3.158-12.921,5.148-19.791,6.45
	c-13.177,2.499-26.482,2.767-39.815,2.031c-7.656-0.423-15.302-1.092-22.934-1.831c-5.619-0.544-11.21-1.382-16.813-2.085
	c-0.405-0.051-0.813-0.073-1.44-0.127c0.257,0.634,0.449,1.143,0.666,1.641c3.637,8.387,9.569,14.73,17.345,19.417
	c5.293,3.19,10.998,5.422,16.896,7.196c0.868,0.261,1.747,0.496,2.588,0.827c0.498,0.196,0.93,0.558,1.47,0.894
	c-0.73,0.738-1.452,0.661-2.118,0.578c-3.885-0.48-7.776-0.925-11.644-1.519c-5.591-0.858-11.063-2.222-16.359-4.24
	c-5.651-2.153-10.817-5.061-14.964-9.575c-1.188-1.293-2.075-2.754-2.792-4.347c-0.611-1.357-1.508-2.441-3.176-2.797
	c-0.199,2.405,0.212,4.649,0.876,6.86c1.38,4.599,4.026,8.45,7.107,12.051c3.409,3.985,7.355,7.327,11.841,10.038
	c0.704,0.426,1.387,0.894,2.036,1.4c0.367,0.286,0.644,0.688,1.012,1.094c-0.867,0.596-1.586,0.209-2.239-0.009
	c-2.187-0.728-4.359-1.506-6.518-2.316c-6.497-2.437-12.787-5.308-18.594-9.144c-1.82-1.203-3.565-2.521-5.483-3.884
	c-3.5,5.66-7.744,10.781-12.449,15.528c-6.944,7.005-13.708,12.862-15.055,12.995c-0.299-0.705,0.068-1.315,0.413-1.829
	c1.033-1.537,2.095-3.061,3.243-4.513c3.35-4.238,6.806-8.394,10.105-12.671c2.269-2.943,4.146-6.148,5.551-9.609
	c1.789-4.404,1.22-8.67-0.898-12.763c-1.797-3.472-4.532-3.803-7.213-0.942c-0.867,0.925-1.632,1.979-2.276,3.072
	c-1.841,3.122-3.597,6.295-5.385,9.448c-0.218,0.384-0.43,0.772-0.662,1.189c-2.689-4.009-3.401-15.546,4.025-24.019
	c-0.141-0.18-0.273-0.385-0.439-0.558c-6.903-7.154-13.799-14.316-20.725-21.447c-1.292-1.33-2.743-2.504-4.061-3.809
	c-0.845-0.836-1.655-1.75-1.437-3.01c0.564-0.817,1.301-0.721,1.982-0.606c0.602,0.102,1.206,0.298,1.762,0.555
	c7.809,3.6,15.296,7.743,22.047,13.121c3.659,2.915,7.013,6.138,9.908,9.824c0.124,0.158,0.256,0.309,0.58,0.697
	c-0.113-0.567-0.148-0.863-0.232-1.145c-3.92-13.279-8.152-26.449-13.659-39.175c-0.331-0.765-0.811-1.566-0.296-2.474
	c0.903-0.298,1.428,0.3,1.885,0.855c1.388,1.687,2.754,3.395,4.076,5.135c7.026,9.25,13.127,19.08,18.393,29.431
	c0.148,0.292,0.313,0.576,0.476,0.86c0.014,0.024,0.071,0.023,0.073,0.023c0-1.079,0.054-2.17-0.009-3.254
	c-0.343-5.894-0.484-11.791-0.176-17.689c0.365-6.98,1.144-13.907,3.726-20.468c1.021-2.594,2.437-5.033,3.696-7.532
	c0.29-0.575,0.753-0.967,1.601-0.902c0.143,0.406,0.294,0.819,0.435,1.234c2.539,7.53,4.954,15.105,7.67,22.57
	c1.232,3.387,3.024,6.575,4.644,9.812c0.435,0.868,1.108,1.643,1.778,2.363c1.796,1.929,3.467,1.63,4.344-0.874
	c0.526-1.502,0.925-3.109,1.019-4.691c0.335-5.679,0.812-11.374,0.684-17.051c-0.199-8.82-0.764-17.635-1.335-26.442
	c-0.488-7.53-1.2-15.046-1.815-22.568c-0.08-0.984-0.167-1.967-0.277-3.249c3.215-3.127,6.531-6.343,9.836-9.57
	c0.767-0.749,1.478-1.556,2.253-2.296c0.498-0.475,1.018-0.994,1.855-0.791c0.05,0.102,0.142,0.205,0.145,0.31
	c0.118,3.668,0.229,7.335,0.337,11.003c0.167,5.649,0.244,11.303,0.519,16.947c0.291,5.979,0.933,11.925,2.987,17.611
	c0.485,1.343,1.14,2.625,1.845,4.226c0.845-0.96,1.57-1.67,2.16-2.478c1.86-2.544,2.758-5.515,3.56-8.502
	c3.018-11.234,5.207-22.641,7.016-34.125c1.193-7.572,2.366-15.147,3.549-22.726c8.213-7.61,16.437-15.232,24.674-22.839
	C240.302,199.116,240.641,199.112,241.12,198.965z M343.815,150.607c-0.055-0.04-0.111-0.08-0.166-0.12
	c-0.351,0.382-0.708,0.758-1.052,1.146c-8.929,10.055-17.884,20.087-26.779,30.172c-19.973,22.645-39.627,45.564-58.618,69.043
	c-15.771,19.499-31.071,39.36-45.645,59.773c-0.321,0.45-0.634,0.905-0.951,1.357c0.431-0.105,0.695-0.333,0.936-0.584
	c1.342-1.399,2.677-2.806,4.018-4.206c13.925-14.537,27.916-29.012,41.759-43.626c18.008-19.012,34.657-39.164,49.809-60.525
	c12.189-17.184,24.195-34.498,36.281-51.756C343.556,151.066,343.679,150.832,343.815,150.607z"/>
</svg>
