<?xml version="1.0" encoding="iso-8859-1"?>
<!-- Generator: Adobe Illustrator 19.0.0, SVG Export Plug-In . SVG Version: 6.00 Build 0)  -->
<svg version="1.1" id="Layer_1" xmlns="http://www.w3.org/2000/svg" xmlns:xlink="http://www.w3.org/1999/xlink" x="0px" y="0px"
	 viewBox="0 0 500 500" enable-background="new 0 0 500 500" xml:space="preserve">
<path d="M215.755,217.267c51.005,0,101.371,0,152.133,0c0,15.818,0,31.309,0,47.684c-33.774,0-67.484,0-101.756,0
	c0,16.721,0,32.566,0,49.077c25.177,0,50.106,0,75.645,0c0,16.09,0,31.531,0,47.923c-24.924,0-50.008,0-75.65,0
	c0,16.373,0,31.812,0,48.049c2.053-0.102,4.031,0.052,5.9-0.329c33.401-6.815,63.865-19.862,89.135-43.279
	c40.889-37.891,58.678-85.041,50.213-139.891c-9.432-61.116-43.759-104.649-101.713-127.648
	c-25.46-10.104-52.37-12.214-79.787-8.751c-43.954,5.551-77.969,27.911-104.799,61.785c-23.093,29.157-32.55,63.54-35.265,100.21
	c-3.124,42.195,5.3,81.912,25.093,119.106c11.927,22.413,26.217,43.265,45.341,60.387c1.526,1.366,2.781,3.034,3.772,4.874
	c-63.563-27.564-98.394-78.523-116.115-143.805c-3.171-0.305-6.182-0.585-9.191-0.886c-3.031-0.303-6.06-0.627-10.123-1.049
	c-0.425-5.576-1.179-10.966-1.185-16.356c-0.021-20.493,0.288-40.987,0.259-61.481c-0.006-4.493,1.848-6.123,6.111-6.521
	c13.437-1.255,13.336-1.385,17.328-14.186c10.617-34.047,27.436-64.653,52.668-89.984c28.438-28.551,62.542-47.297,101.937-56.631
	c27.655-6.553,55.451-8.791,83.43-3.992c22.926,3.932,44.412,12.383,64.474,24.321c30.902,18.389,57.627,41.145,76.445,72.308
	c9.223,15.273,16.488,31.384,21.57,48.498c4.103,13.818,8.94,18.71,23.105,22.82c0,13.863,0.094,28.144-0.032,42.423
	c-0.09,10.222-0.549,20.44-0.698,30.662c-0.069,4.762-1.986,8.101-6.822,8.709c-7.265,0.914-10.37,5.502-12.215,11.951
	c-6.288,21.979-15.702,42.683-28.331,61.629c-16.337,24.508-37.21,44.66-62.208,60.504c-22.533,14.281-46.842,24.695-73.022,28.661
	c-23.81,3.606-48.112,3.971-72.201,5.708c-0.946,0.068-1.936-0.457-3.445-0.843C215.755,378.568,215.755,298.323,215.755,217.267z
	 M20.787,277.181c0-17.197,0.046-33.912-0.038-50.625c-0.017-3.438-1.565-6.009-5.479-5.964c-3.164,0.036-6.324,0.352-9.773,0.562
	c0,19.064,0,37.38,0,56.028C10.598,277.181,15.168,277.181,20.787,277.181z M495.788,277.294c0-18.974,0-37.493,0-55.648
	c-4.73,0-8.91,0-13.457,0c0,18.782,0,36.95,0,55.648C487.193,277.294,491.586,277.294,495.788,277.294z"/>
</svg>
