<?xml version="1.0" encoding="iso-8859-1"?>
<!-- Generator: Adobe Illustrator 19.0.0, SVG Export Plug-In . SVG Version: 6.00 Build 0)  -->
<svg version="1.1" id="Layer_1" xmlns="http://www.w3.org/2000/svg" xmlns:xlink="http://www.w3.org/1999/xlink" x="0px" y="0px"
	 viewBox="0 0 500 500" enable-background="new 0 0 500 500" xml:space="preserve">
<path d="M251.027,4.001c135.149,0.231,244.43,110.676,244.037,246.637C494.676,385.117,384.327,494.3,249.038,494.065
	C113.887,493.83,4.608,383.385,5.001,247.425C5.39,112.946,115.733,3.77,251.027,4.001z M167.718,193.676
	c33.602,0,65.752,0,98.623,0c4.824-12.601,9.392-24.533,14.11-36.856c-52.418,0-103.211,0-155.484,0c0,26.545,0,52.049,0,78.502
	c-9.137,0-16.783,0-25.066,0c-4.68,12.757-9.117,24.848-14.163,38.601c13.833,0,26.24,0,39.361,0
	c0,23.344,0.163,45.345-0.088,67.342c-0.088,7.732,1.81,12.684,10.712,12.628c22.007-0.139,44.015-0.045,66.637-0.045
	c4.958-12.429,9.702-24.323,15.281-38.31c-17.924,0-33.558,0-49.518,0c0-14.723,0-27.929,0-41.323c27.571,0,54.238,0,81.936,0
	c-10.616,26.774-20.844,52.569-31.414,79.229c17.075,0,32.104,0,47.676,0c11.237-26.713,22.394-53.239,33.576-79.822
	c33.182,0,65.418,0.129,97.652-0.066c12.143-0.074,14.152-2.319,14.189-14.509c0.092-30.627,0.065-61.254-0.017-91.881
	c-0.009-3.48-0.669-6.959-1.072-10.865c-38.306,0-75.359,0-112.984,0c-10.807,26.224-21.598,52.409-32.052,77.777
	c-33.483,0-65.484,0-97.896,0C167.718,220.49,167.718,207.97,167.718,193.676z M369.639,194.509c-13.164,0-25.568,0-38.79,0
	c-5.231,13.069-10.394,25.969-15.957,39.868c19.407,0,36.708,0,54.747,0C369.639,220.248,369.639,207.793,369.639,194.509z"/>
</svg>
