<?xml version="1.0" encoding="iso-8859-1"?>
<!-- Generator: Adobe Illustrator 19.0.0, SVG Export Plug-In . SVG Version: 6.00 Build 0)  -->
<svg version="1.1" id="Layer_1" xmlns="http://www.w3.org/2000/svg" xmlns:xlink="http://www.w3.org/1999/xlink" x="0px" y="0px"
	 viewBox="0 0 2000 2000" style="enable-background:new 0 0 2000 2000;" xml:space="preserve">
<path d="M998.897,8.781c501.644,2.631,923.817,410.046,912.389,938.426c-10.769,497.904-418.585,898.441-926.448,893.74
	c-497.69-4.607-932.374-425.14-901.746-970.919C109.526,398.98,500.423,9.863,998.897,8.781z M1879.014,780.091
	C1786.895,323.006,1424.747,8.146,928.451,39.273c-383.87,24.076-719.499,289.749-812.258,734.468
	c290.813,349.013,583.481,700.252,880.118,1056.255C1292.352,1477.879,1586.466,1128.054,1879.014,780.091z M214.287,1356.319
	c85.956,146.174,193.936,259.956,338.484,341.766c42.949-71.801,84.326-140.974,127.024-212.354
	c-77.077-91.453-152.459-180.894-228.614-271.253C372.536,1261.567,294.846,1308.084,214.287,1356.319z M1541.261,1214.486
	c-77.241,91.717-152.759,181.388-228.4,271.205c43.101,71.766,85.039,141.596,127.834,212.854
	c144.411-84.978,253.762-198.185,337.972-342.543C1699.048,1308.542,1621.188,1262.13,1541.261,1214.486z M1035.031,1985.192
	c556.078-19.74,914.557-476.985,945.055-863.775c-112.355,511.685-563.128,837.817-1057.306,802.098
	c-390.576-28.231-793.006-301.16-906.788-803.168C49.267,1535.14,445.931,2006.104,1035.031,1985.192z M1190.901,976.464
	c40.618,5.392,80.22,10.649,120.234,15.961c3.978-14.51,6.645-24.238,9.405-34.303c-11.315-13.71-22.062-26.733-31.497-38.166
	c13.295-84.871,26.142-166.885,38.989-248.899c4.51-0.449,9.021-0.898,13.532-1.348c30.328,114.73,60.657,229.461,93.192,352.537
	c11.893,3.889,32.792,10.723,56.396,18.443c59.734-172.063,117.942-339.731,175.514-505.564c18.105-0.822,29.49-1.339,43.61-1.98
	c4.828-9.856,10.039-20.493,19.194-39.181c-61.518-19.891-118.942-38.459-180.24-58.279c-3.681,14.382-6.852,26.769-10.061,39.309
	c14.269,12.432,26.254,22.874,42.118,36.695c-19.479,67.391-38.87,134.477-58.261,201.563
	c-36.711-106.765-66.225-212.474-116.547-309.227c-55.284-6.185-106.063-11.867-160.054-17.907
	c-3.446,16.533-6.071,29.129-8.977,43.072c32.315,17.582,35.942,43.473,29.329,74.573c-4.721,22.202-5.099,45.326-7.431,68.037
	c-11.776,114.711-23.556,229.422-35.287,343.667c-11.05,7.506-20.39,13.851-33.155,22.522
	C1190.901,949.881,1190.901,960.917,1190.901,976.464z M763.775,486.367c20.747,124.871,40.33,249.945,62.256,374.606
	c14.06,79.938,77.089,125.361,158.62,118.149c96.309-8.519,141.259-55.008,144.266-144.086c3.167-93.809,9-187.538,14.531-281.251
	c2.208-37.4,6.726-74.663,10.196-112.018c13.018-6.659,23.938-12.245,33.921-17.351c13.342-24.234,10.92-44.66-17.488-46.806
	c-44.131-3.333-88.698-0.881-132.393-0.881c-18.812,36.088,13.989,45.143,25.305,59.804c0,143.145,0.192,282.89-0.178,422.634
	c-0.066,24.948-13.803,40.06-37.932,44.944c-32.876-13.506-36.267-16.889-38.316-49.535c-2.941-46.854-4.932-93.773-6.828-140.685
	c-3.739-92.512-7.134-185.038-10.539-274.092c14.156-12.352,24.406-21.297,36.436-31.794c-2.167-10.503-4.314-20.912-7.024-34.048
	c-99.7,6.672-196.353,9.195-292.557,37.635c6.151,18.916,9.55,29.371,12.345,37.966c13.582,4.509,24.38,8.094,38.901,12.915
	C759.751,471.375,762.509,478.747,763.775,486.367z M253.146,548.169c4.393,8.622,9.27,18.192,14.301,28.067
	c16.089,0,29.582,0,48.667,0c61.176,142.813,122.618,286.246,183.646,428.712c-9.29,14.27-16.713,25.673-25.877,39.751
	c6.871,10.014,14.223,20.729,21.805,31.779c70.717-25.473,138.372-49.843,209.181-75.349c-5.88-15.923-10.054-27.228-13.881-37.593
	c-14.629-3.669-26.665-6.688-42.914-10.763c-21.471-72.709-43.231-146.398-66.501-225.201c18.929-3.472,34.737-6.373,49.188-9.023
	c15.017,19.071,27.335,34.715,38.739,49.197c17.798-3.799,31.024-6.622,50.9-10.865c-9.294-50.315-18.447-99.873-29.199-158.079
	c-24.621,7.44-45.396,13.718-65.118,19.678c0,19.075,0,30.465,0,49.129c-16.729,6.706-34.964,14.015-56.012,22.452
	c-20.464-72.158-38.832-136.923-57.108-201.361c9.151-4.677,12.947-7.414,17.181-8.658c39.295-11.538,64.251,9.256,88.643,36.52
	c29.066,32.488,61.688,31.838,89.776,0.582c-19.967-35.977-40.169-72.377-60.165-108.406
	C475.634,443.313,288.777,509.128,253.146,548.169z M990.886,1278.408c-0.064,58.25-23.425,97.242-61.043,101.884
	c-32.802,4.048-70.383-30.953-78.921-84.97c-5.849-37.004-5.889-77.812,3.652-113.681c13.95-52.447,72.49-61.215,101.869-15.393
	c20.672,32.241,29.14,72.308,43.057,108.881C996.629,1276.223,993.757,1277.315,990.886,1278.408z M913.714,1154.506
	c-5.676,0.571-11.352,1.141-17.028,1.712c-4.109,65.616,16.433,129.764,20.696,194.876c0.212,3.231,9.69,5.856,24.037,13.934
	C931.439,1289.2,922.577,1221.853,913.714,1154.506z M1129.225,1385.047c6.978,1.992,20.084,5.732,30,8.562
	c6.42-39.258,12.242-74.857,18.064-110.455c3.477,0.452,6.954,0.904,10.431,1.355c3.538,23.37,2.664,48.714,11.965,69.505
	c7.898,17.654-11.402,52.956,31.771,54.005c19.899-73.307,39.584-145.824,60.285-222.084c-6.819-2.422-19.916-7.074-31.988-11.363
	c-4.959,35.453-9.474,67.739-13.99,100.025c-2.898,0.087-5.795,0.174-8.693,0.261c-5.082-34.334-10.164-68.668-15.714-106.161
	c-13.403-4.632-27.616-9.543-35.338-12.212C1166.706,1234.21,1148.311,1308.239,1129.225,1385.047z M804.168,1388.014
	c-22.862-61.96-45.723-123.921-68.585-185.881c3.638-1.919,7.276-3.838,10.914-5.757c12.767,13.731,25.534,27.462,38.302,41.193
	c3.32-1.986,6.64-3.971,9.961-5.957c-8.84-21.555-17.68-43.11-26.62-64.911c-13.069,5.972-21.689,12.312-31.057,13.74
	c-27.855,4.245-40.366,24.008-41.172,47.352c-2.219,64.267,20.002,120.859,65.728,166.427c17.446,17.385,40.474,22.162,62.269,6.202
	c22.338-16.358,19.367-37.817,11.095-59.27c-4.011-0.892-8.023-1.784-12.034-2.676c-2.995,15.87-5.99,31.74-8.985,47.609
	C810.711,1386.728,807.439,1387.371,804.168,1388.014z M1099.703,1141.913c-17.537-1.092-42.532-2.649-59.34-3.695
	c-5.588,70.164-10.838,136.071-16.093,202.05c-6.21,8.049-12.218,15.836-23.063,29.891c31.516,2.356,57.322,4.286,75.698,5.66
	C1084.547,1297.413,1091.856,1222.415,1099.703,1141.913z"/>
</svg>
