<?xml version="1.0" encoding="utf-8"?>
<!-- Generator: Adobe Illustrator 24.2.0, SVG Export Plug-In . SVG Version: 6.00 Build 0)  -->
<svg version="1.1" id="FXC" xmlns="http://www.w3.org/2000/svg" xmlns:xlink="http://www.w3.org/1999/xlink" x="0px" y="0px"
	 viewBox="0 0 500 500" style="enable-background:new 0 0 500 500;" xml:space="preserve">
<style type="text/css">
	.st0{fill-rule:evenodd;clip-rule:evenodd;}
</style>
<path class="st0" d="M250,2C113,2,2,113,2,250s111,248,248,248s248-111,248-248S387,2,250,2z M351.9,155.2c0,3.1-2.7,6.2-6.2,6.2
	H225.2c-3.1,0-6.2,3.1-6.2,6.2v54c0,3.5,3.1,6.2,6.2,6.2h85c3.1,0,6.2,2.7,6.2,6.2v23c0,3.1-2.7,6.2-6.2,6.2h-85
	c-3.1,0-6.2,3.1-6.2,6.2v125.8c0,4.9-2.7,7.5-6.2,5.3L188,382.9c-3.1-1.8-4.4-3.5-4.4-7.1V269.5c0-3.1-3.5-6.2-6.2-6.2h-40.7
	c-3.5,0-6.2-3.1-6.2-6.2v-23c0-3.5,2.7-6.2,6.2-6.2h40.7c2.7,0,6.2-2.7,6.2-6.2v-89.5c0-3.5,2.7-6.2,5.8-6.2h156.3
	c3.1,0,6.2,3.1,6.2,6.2V155.2z"/>
</svg>
