<?xml version="1.0" encoding="iso-8859-1"?>
<!-- Generator: Adobe Illustrator 19.0.0, SVG Export Plug-In . SVG Version: 6.00 Build 0)  -->
<svg version="1.1" id="Layer_1" xmlns="http://www.w3.org/2000/svg" xmlns:xlink="http://www.w3.org/1999/xlink" x="0px" y="0px"
	 viewBox="0 0 2000 2000" style="enable-background:new 0 0 2000 2000;" xml:space="preserve">
<path d="M999.539,4.002c545.403-1.141,986.605,441.501,989.448,982.869c2.89,550.312-445.397,996.01-992.127,994.047
	c-540.372-1.94-982.698-435.925-986.547-980.501C6.351,440.182,459.211,2.896,999.539,4.002z M1676.457,391.253
	c-0.692-0.424-1.385-0.848-2.077-1.272c-200.917,201.117-401.835,402.234-598.83,599.426
	c128.355,129.628,257.072,259.622,388.066,391.915c-52.635-129.48-104.209-256.349-155.787-383.226
	C1430.822,795.621,1553.639,593.437,1676.457,391.253z M1600.651,1668.39c0.686-0.695,1.372-1.391,2.058-2.086
	c-201.142-200.423-402.285-400.846-600.216-598.069c-128.614,128.391-257.93,257.483-385.823,385.155
	c124.37-50.456,251.225-101.92,377.407-153.111C1197.005,1423.429,1398.828,1545.91,1600.651,1668.39z M1005.362,684.44
	C803.05,561.681,601.158,439.176,398.747,316.357c201.65,201.373,402.387,401.836,602.952,602.126
	c128.281-128.225,257.886-257.773,391.483-391.311C1260.894,580.817,1133.396,632.52,1005.362,684.44z M691.656,986.614
	c-122.424,201.529-244.651,402.735-366.878,603.941c1.153,0.795,2.307,1.59,3.46,2.385
	c199.649-200.759,399.297-401.517,593.951-597.253C794.216,865.982,665.514,735.535,536.45,604.722
	C587.991,731.54,639.368,857.956,691.656,986.614z"/>
</svg>
