<?xml version="1.0" encoding="iso-8859-1"?>
<!-- Generator: Adobe Illustrator 19.0.0, SVG Export Plug-In . SVG Version: 6.00 Build 0)  -->
<svg version="1.1" id="Layer_1" xmlns="http://www.w3.org/2000/svg" xmlns:xlink="http://www.w3.org/1999/xlink" x="0px" y="0px"
	 viewBox="0 0 2000 2000" style="enable-background:new 0 0 2000 2000;" xml:space="preserve">
<path d="M1002.523,6.003c208.471,0,416.942-0.011,625.413,0.006c63.414,0.005,102.014,38.373,102.071,101.829
	c0.116,128.476,0.105,256.953,0.005,385.429c-0.05,64.937-37.891,103.122-102.535,103.135
	c-417.548,0.082-835.096,0.088-1252.644-0.008c-63.823-0.015-101.991-38.308-102.025-101.78
	c-0.069-128.476-0.057-256.953-0.006-385.429c0.026-64.83,38.162-103.174,102.49-103.178C584.37,5.994,793.446,6.003,1002.523,6.003
	z M374.072,699.481c-63.56,0.023-101.235,37.964-101.266,102.094c-0.063,128.493-0.07,256.986,0.003,385.479
	c0.036,63.614,38.414,102.204,101.514,102.212c217.59,0.027,435.18,0.024,652.769,0.003
	c64.104-0.006,101.606-37.461,101.628-101.551c0.043-129.099,0.046-258.198-0.002-387.298
	c-0.024-64.191-37.135-100.926-101.879-100.943c-107.885-0.028-215.771-0.008-323.656-0.008
	C593.48,699.47,483.776,699.441,374.072,699.481z M272.817,1881.553c0.124,62.321,38.474,100.506,101.106,100.569
	c110.252,0.111,220.504,0.099,330.756,0.005c62.445-0.054,101.139-37.706,101.394-100.459
	c0.527-129.635,0.586-259.275-0.026-388.909c-0.3-63.543-39.372-101.002-103.029-101.033c-109.04-0.053-218.081-0.055-327.121,0.001
	c-64.378,0.033-103.028,38.563-103.095,102.734c-0.067,64.213-0.015,128.425-0.015,192.638
	C272.788,1751.916,272.688,1816.735,272.817,1881.553z"/>
</svg>
