<?xml version="1.0" encoding="iso-8859-1"?>
<!-- Generator: Adobe Illustrator 19.0.0, SVG Export Plug-In . SVG Version: 6.00 Build 0)  -->
<svg version="1.1" id="Layer_1" xmlns="http://www.w3.org/2000/svg" xmlns:xlink="http://www.w3.org/1999/xlink" x="0px" y="0px"
	 viewBox="0 0 500 500" style="enable-background:new 0 0 500 500;" xml:space="preserve">
<path d="M492.498,491.552c-3.106,0-5.361-0.001-7.616,0c-78.017,0.02-156.034,0.111-234.051,0.043
	C131.416,491.49,30.697,407.052,11.272,289.285C-10.996,154.277,77.991,31.395,210.816,10.029
	c133.256-21.435,261.22,73.32,279.241,207.065c1.383,10.266,2.253,20.685,2.28,31.036c0.205,78.94,0.141,157.881,0.161,236.821
	C492.498,486.776,492.498,488.601,492.498,491.552z M430.072,218.717c-5.793-52.44-48.485-122.429-128.478-146.341
	c-78.255-23.392-162.255,8.023-207.328,77.416c-43.807,67.444-37.444,158.262,16.054,219.342
	c36.487,41.658,82.839,63.157,138.342,63.462c55.532,0.305,101.602-21.716,140.185-63.381c0,22.245,0,42.484,0,62.901
	c15.455,0,30.476,0,45.356,0c0-53.773,0-106.938,0-160.054c-53.766,0-106.957,0-160.187,0c0,15.44,0,30.362,0,46.184
	c31.252,0,62.168,0,93.572,0c-26.862,48.036-87.282,78.801-148.889,64.724c-58.42-13.35-105.806-65.137-106.86-132.316
	c-1.005-64.077,42.046-119.597,104.73-135.342c29.58-7.43,58.824-5.14,86.73,7.114c42.676,18.741,69.027,51.714,80.519,96.291
	C399.731,218.717,414.883,218.717,430.072,218.717z"/>
</svg>
