<?xml version="1.0" encoding="iso-8859-1"?>
<!-- Generator: Adobe Illustrator 19.0.0, SVG Export Plug-In . SVG Version: 6.00 Build 0)  -->
<svg version="1.1" id="Layer_1" xmlns="http://www.w3.org/2000/svg" xmlns:xlink="http://www.w3.org/1999/xlink" x="0px" y="0px"
	 viewBox="0 0 2000 2000" style="enable-background:new 0 0 2000 2000;" xml:space="preserve">
<path d="M997.383,504.119c-80.127,80.072-160.456,161.418-241.969,241.56c-136.24,133.95-138.925,354.8-4.999,490.153
	c74.387,75.178,148.948,150.184,223.495,225.204c7.925,7.975,16.285,15.519,25.806,24.556
	c81.239-81.173,160.581-161.897,241.663-240.834c38.396-37.38,66.766-80.331,85.884-129.795
	c25.324-65.521,29.143-149.048,8.535-210.472c-56.189,56.721-110.812,111.992-165.585,167.114
	c-54.889,55.239-109.927,110.33-168.327,168.925c0-168.267,0-331.612,0-494.154c122.901-122.685,246.079-245.647,368.988-368.34
	c156.655,131.072,286.632,282.584,319.501,493.879c30.602,196.721-4.373,382.702-131.178,539.813
	c-78.002,96.644-170.099,182.054-257.351,271.053c-96.078,98.003-193.851,194.344-290.918,291.377
	c-2.636,2.635-5.64,4.904-12.466,10.785c-51.905-53.181-103.16-106.652-155.457-159.084
	c-113.634-113.928-228.453-226.679-341.557-341.128c-104.485-105.728-170.742-233.046-191.759-379.732
	c-32.753-228.589,26.047-432.224,188.441-599.564c159.824-164.691,323.55-325.596,485.592-488.134
	c3.3-3.31,6.946-6.276,13.661-12.301C997.383,172.55,997.383,336.504,997.383,504.119z"/>
</svg>
