<?xml version="1.0" encoding="iso-8859-1"?>
<!-- Generator: Adobe Illustrator 19.0.0, SVG Export Plug-In . SVG Version: 6.00 Build 0)  -->
<svg version="1.1" id="Layer_1" xmlns="http://www.w3.org/2000/svg" xmlns:xlink="http://www.w3.org/1999/xlink" x="0px" y="0px"
	 viewBox="0 0 2000 2000" style="enable-background:new 0 0 2000 2000;" xml:space="preserve">
<path d="M776.35,1380.391c-40.649,0-81.761-0.096-122.872,0.022c-62.357,0.179-120.319-15.748-174.103-47.141
	c-126.073-73.585-193.552-220.176-166.653-361.986C340.172,826.576,456.23,713.573,600.925,691.3
	c18.041-2.777,36.465-4.175,54.721-4.261c90.389-0.424,180.781-0.193,274.232-0.193c0,9.336,0,17.542,0,25.748
	c0,236.638-0.136,473.276,0.071,709.913c0.077,87.528-41.951,148.23-119.111,185.002c-69.265,33.009-143.832,38.994-219.043,33.538
	c-284.932-20.67-507.664-214.759-564.679-490.708c-53.493-258.907,75.28-528.992,312.431-655.705
	c92.527-49.438,191.032-74.152,296-74c190.752,0.276,381.505,0.078,572.257,0.078c7.8,0,15.599,0,26.024,0
	c0,88.82,0,176.294,0,266.134c43.062,0,83.528,0.429,123.983-0.103c57.62-0.757,111.431,13.208,162.38,39.62
	c132.597,68.738,204.56,215.983,179.755,368.159c-23.017,141.21-145.566,260.893-289.112,281.171
	c-25.172,3.556-50.886,4.33-76.362,4.495c-83.132,0.539-166.27,0.202-251.265,0.202c0-269.235,0-536.998,0-805.307
	c-4.01-0.996-6.387-2.106-8.764-2.104c-158.624,0.101-317.341-3.083-475.847,1.317c-204.627,5.68-392.417,176.082-424.469,378.247
	c-40.584,255.985,121.211,484.7,377.163,531.697c56.527,10.379,113.594,10.522,169.343-6.431
	C771.062,1462.476,786.612,1435.298,776.35,1380.391z M777.792,1231.726c0-134.474,0-263.297,0-394.104
	c-40.448,0-79.618-0.035-118.788,0.007c-102.182,0.108-187.557,73.798-198.275,171.1c-11.34,102.953,53.23,196.396,155.811,214.899
	C668.653,1233.027,723.114,1229.407,777.792,1231.726z M1235.499,835.214c0,133.769,0,263.032,0,394.356
	c43.188,0,85.039,1.393,126.768-0.275c103.374-4.132,182.34-80.605,191.428-183.683c8.065-91.474-58.466-182.985-154.759-201.38
	C1346.336,834.183,1291.122,837.822,1235.499,835.214z M1030.694,1642.592c112.074,0,224.152,0.459,336.221-0.3
	c30.684-0.208,61.583-2.329,91.976-6.524c331.897-45.807,565.476-354.942,519.74-687.126
	c-36.342-263.96-239.098-473.699-503.167-519.368c-33.115-5.727-66.991-7.05-100.789-10.441c0,53.995,0,103.344,0,151.876
	c27.057,2.904,52.694,3.897,77.63,8.602c259.42,48.946,421.469,289.769,369.656,548.526
	c-39.979,199.654-224.589,356.727-427.974,361.667c-98.907,2.402-197.911,0.803-296.872,1.013
	c-7.086,0.015-14.173,0.002-22.579,0.002c-10.862,55.301-33.174,104.335-70.348,152.074
	C1016.643,1642.592,1023.669,1642.592,1030.694,1642.592z"/>
</svg>
