<?xml version="1.0" encoding="iso-8859-1"?>
<!-- Generator: Adobe Illustrator 19.0.0, SVG Export Plug-In . SVG Version: 6.00 Build 0)  -->
<svg version="1.1" id="Layer_1" xmlns="http://www.w3.org/2000/svg" xmlns:xlink="http://www.w3.org/1999/xlink" x="0px" y="0px"
	 viewBox="0 0 500 500" enable-background="new 0 0 500 500" xml:space="preserve">
<path d="M249.204,5C384.341,5.049,493.132,114.318,493.02,249.886c-0.111,134.427-109.58,243.305-244.524,243.205
	C113.486,492.991,4.78,383.56,4.933,247.904C5.085,113.827,114.573,4.951,249.204,5z M297.918,201.073c-10.767,0-21.534,0-32.292,0
	c0,43.583,0,86.308,0,128.842c48.875,0,97.368,0,145.751,0c0-54.208,0-107.999,0-161.944c-37.918,0-75.57,0-113.577,0
	c0,11.277,0,22.252,0,33.226L297.918,201.073z M243.669,167.73c-23.382,0-46.233-0.167-69.079,0.091
	c-7.909,0.089-15.994,0.379-23.676,2.056c-26.319,5.745-46.968,19.384-57.824,45.024c-6.092,14.389-7.689,29.466-5.864,45.086
	c2.375,20.325,10.393,37.55,26.251,50.683c15.758,13.049,34.336,18.805,54.507,19.582c10.591,0.408,21.211,0.072,31.729,0.072
	c0-11.523,0-22.404,0-33.543c-12.295,0-24.177,0.525-35.993-0.137c-13.745-0.77-25.998-5.896-35.052-16.644
	c-11.476-13.622-11.855-29.704-8.163-45.973c5.012-22.082,26.998-32.316,44.341-32.682c24.382-0.514,48.783-0.13,73.176-0.13
	c1.81,0,3.62,0,5.646,0C243.669,189.907,243.669,179.14,243.669,167.73z M243.491,330.105c0-31.948,0-63.483,0-94.844
	c-27.042,0-53.679,0-80.309,0c0,11.18,0,21.933,0,33.259c16.332,0,32.313,0,48.732,0c0,20.84,0,41.104,0,61.585
	C222.637,330.105,232.907,330.105,243.491,330.105z M297.915,201.076c-0.003,31.758-0.003,63.514-0.003,95.402
	c27.202,0,54.007,0,80.866,0c0-31.847,0-63.39,0-95.281c-27.212,0-54.096,0-80.979,0C297.8,201.198,297.918,201.073,297.915,201.076
	z"/>
</svg>
