<?xml version="1.0" encoding="iso-8859-1"?>
<!-- Generator: Adobe Illustrator 19.0.0, SVG Export Plug-In . SVG Version: 6.00 Build 0)  -->
<svg version="1.1" id="Layer_1" xmlns="http://www.w3.org/2000/svg" xmlns:xlink="http://www.w3.org/1999/xlink" x="0px" y="0px"
	 viewBox="0 0 500 500" style="enable-background:new 0 0 500 500;" xml:space="preserve">
<path d="M492.723,251.013c0,56.564,0.452,113.132-0.157,169.69c-0.414,38.491-33.391,71.769-71.72,71.924
	c-113.402,0.457-226.806,0.179-340.21,0.154c-36.345-0.008-71.404-35.186-71.412-71.653c-0.024-113.404-0.025-226.807,0-340.211
	C9.234,44.468,44.277,9.305,80.631,9.295C192.379,9.264,304.13,9.73,415.873,9.001c32.018-0.209,65.608,22.317,74.088,55.301
	c1.558,6.061,2.623,12.44,2.645,18.676C492.807,138.99,492.723,195.002,492.723,251.013z M251.163,53.214
	c-110.967-0.806-201.43,89.124-202.012,199.905c-0.589,111.988,89.391,202.899,200.772,203.242
	c112.176,0.345,202.947-89.884,202.904-202.005C452.784,143.233,362.528,52.623,251.163,53.214z"/>
</svg>
