<?xml version="1.0" encoding="iso-8859-1"?>
<!-- Generator: Adobe Illustrator 19.0.0, SVG Export Plug-In . SVG Version: 6.00 Build 0)  -->
<svg version="1.1" id="Layer_1" xmlns="http://www.w3.org/2000/svg" xmlns:xlink="http://www.w3.org/1999/xlink" x="0px" y="0px"
	 viewBox="0 0 2000 2000" style="enable-background:new 0 0 2000 2000;" xml:space="preserve">
<path d="M1712.855,1166.425c-225.904,0-451.587,0-677.889,0c0-45.397,0-89.544,0-134.48c317.482,0,634.362,0,952.195,0
	c0,44.474,0,88.968,0,134.483c-27.137,0-53.776,0-80.215,0c-60.733,298.417-220.249,525.258-486.807,672.043
	c-203.379,111.995-421.852,142.146-648.534,94.785c-467.761-97.731-786.677-517.101-757.108-994.699
	c28.449-459.503,384.479-837.165,849.35-885.696c487.152-50.857,866.953,257.477,994.173,611.097c-67.368,0-134.47,0-201.415,0
	c-109.071-205.013-272.069-345.051-498.318-404.526c-181.439-47.696-358.759-30.125-527.318,52.954
	c-343.319,169.215-506.748,549.42-398.127,910.63c103.384,343.795,446.301,583.576,825.256,537.565
	C1429.76,1715.455,1667.223,1419.744,1712.855,1166.425z M769.316,433.437C487.304,534.668,322.733,825.263,380.874,1123.11
	c55.539,284.516,311.246,498.442,617.578,487.157c147.557-5.436,276.609-58.98,386.227-158.057
	c64.617-58.403,113.804-127.967,148.802-209.207c-23.853,0-45.442,0-66.719,0c-147.945,304.309-535.34,401.022-809.272,203.644
	C401.546,1262.23,353.891,902.713,554.591,658.523c100.695-122.514,232.17-190.309,390.603-198.537
	c186.427-9.681,338.237,63.262,457.905,204.772c24.506,0,48.645,0,74.324,0C1334.1,447.417,1045.459,334.312,769.316,433.437z
	 M1041.118,1435.6c-128.439,19.155-243.92-13.368-344.308-95.774c-180.118-147.854-210.28-413.969-69.065-599.7
	c145.08-190.815,423.066-235.476,622.87-75.983c29.568,0,58.453,0,88.338,0c-139.838-154.126-381.398-208.959-587.489-105.165
	c-210.862,106.196-318.516,347.113-257.245,574.128c59.477,220.364,263.179,378.233,501.015,368.829
	c121.514-4.804,227.625-49.156,317.692-131.017c40.282-36.612,73.375-78.904,100.208-128.275c-25.381,0-47.928,0-70.916,0
	C1268.821,1348.859,1169.807,1416.407,1041.118,1435.6z M1987.036,920.783c0-45.083,0-89.123,0-133.422
	c-317.809,0-634.543,0-951.928,0c0,44.905,0,88.992,0,133.422C1352.961,920.783,1670.045,920.783,1987.036,920.783z"/>
</svg>
