<?xml version="1.0" encoding="iso-8859-1"?>
<!-- Generator: Adobe Illustrator 19.0.0, SVG Export Plug-In . SVG Version: 6.00 Build 0)  -->
<svg version="1.1" id="Layer_1" xmlns="http://www.w3.org/2000/svg" xmlns:xlink="http://www.w3.org/1999/xlink" x="0px" y="0px"
	 viewBox="0 0 2000 2000" style="enable-background:new 0 0 2000 2000;" xml:space="preserve">
<path d="M1457.955,605.94c0,100.209,0,196.743,0,293.277c0,116.427-0.036,232.854,0.028,349.281
	c0.015,26.003-10.991,45.892-33.482,58.531c-128.055,71.955-256.341,143.498-384.359,215.518
	c-23.812,13.396-45.505,14.642-70.485,0.527c-122.538-69.238-245.519-137.712-369.115-205.042
	c-24.021-13.086-46.358-25.033-52.377-54.078c-1.491-7.194-2.366-14.657-2.373-21.997c-0.134-148.609,0.266-297.22-0.423-445.826
	c-0.131-28.314,10.731-47.983,34.864-61.502c77.492-43.408,155.072-86.665,232.331-130.485
	c93.574-53.073,186.803-106.755,280.283-159.995c64.282-36.61,128.808-72.792,193.097-109.389
	c87.658-49.9,175.106-100.169,262.808-149.991c84.9-48.23,169.993-96.12,255.037-144.096c15.143-8.543,30.461-16.775,48.658-26.778
	c0,11.224,0,19.086,0,26.948c0,471.171-0.193,942.342,0.375,1413.512c0.044,36.633-16.377,59.364-46.62,76.76
	c-122.442,70.432-244.338,141.812-366.687,212.408c-111.943,64.592-224.217,128.611-336.325,192.917
	c-16.359,9.384-33.254,18.014-48.778,28.635c-37.739,25.821-72.491,17.679-109.07-4.139
	c-91.943-54.838-184.922-107.938-277.434-161.823c-115.046-67.011-229.999-134.184-345.081-201.133
	c-38.363-22.318-76.545-45.016-115.657-65.959c-32.612-17.463-47.976-42.93-47.952-80.021
	c0.301-473.241,0.199-946.482,0.199-1419.723c0-8.141,0-16.282,0-29.279C407.69,147.103,652.963,289.466,899.866,432.775
	c-3.743,2.939-6.779,6.013-10.396,8.061c-59.285,33.561-118.823,66.68-177.861,100.668c-15.192,8.746-28.528,9.104-43.606,0.348
	c-73.883-42.901-148.037-85.333-222.049-128.01c-19.263-11.107-38.362-22.499-62.713-36.801
	c-5.007,9.494-10.101,18.043-13.999,27.107c-1.492,3.469-0.25,8.114-0.25,12.223c0,303.395,0.235,606.79-0.292,910.183
	c-0.067,38.811,16.254,66.008,48.88,84.813c142.779,82.294,285.632,164.46,428.351,246.857c38.98,22.505,77.5,45.807,116.403,68.447
	c25.436,14.803,51.22,17.739,77.979,2.291c86.218-49.774,172.652-99.172,258.991-148.737
	c86.902-49.889,173.928-99.566,260.583-149.881c20.893-12.131,43.509-23.575,59.785-40.63c12.31-12.899,22.176-34.197,22.251-51.804
	c1.313-308.868,0.987-617.743,0.879-926.617c-0.009-25.162-11.077-30.793-33.127-18.288
	C1478.89,467.178,1347.906,541,1217.214,615.336c-134.761,76.649-267.951,156.208-404.625,229.261
	c-45.143,24.129-57.362,53.464-55.025,100.079c3.145,62.721,1.228,125.692,1.638,188.555c0.142,21.677,11.253,37.828,29.161,47.98
	c63.335,35.902,127.001,71.234,190.951,106.029c23.667,12.877,45.705,3.251,66.888-8.714
	c52.694-29.765,105.167-59.941,158.289-88.924c29.599-16.149,44.1-39.6,44.01-73.329c-0.313-116.426,0.134-232.854-0.396-349.279
	c-0.079-17.401,5.964-29.802,20.115-38.915C1330.373,688.058,1392.533,648.052,1457.955,605.94z"/>
</svg>
