<?xml version="1.0" encoding="utf-8"?>
<!-- Generator: Adobe Illustrator 25.1.0, SVG Export Plug-In . SVG Version: 6.00 Build 0)  -->
<svg version="1.1" id="Layer_1" xmlns="http://www.w3.org/2000/svg" xmlns:xlink="http://www.w3.org/1999/xlink" x="0px" y="0px"
	 viewBox="0 0 500 500" style="enable-background:new 0 0 500 500;" xml:space="preserve">
<g>
	<path d="M156.9,258.2c30.8,0,55.8-25,55.8-55.8s-25-55.8-55.8-55.8H27.2C12.5,178.1,4.3,213.2,4.3,250.2c0,2.7,0.1,5.4,0.1,8H156.9
		z"/>
	<path d="M156.9,51.1c20.4,0,40.3,4,59,11.9c18,7.6,34.3,18.6,48.1,32.4c13.9,13.8,24.8,30.1,32.4,48.1c1.1,2.5,2.1,5.2,3.1,7.8
		c13.8-4.2,28.2-6.2,42.8-6.2h129.8C432.8,62,348.1,4.5,250,4.5c-53.8,0-103.5,17.3-143.9,46.6H156.9z"/>
	<path d="M342.4,240.8c-30.8,0-55.8,25-55.8,55.8c0,30.9,25,55.9,55.8,55.7h131.2c14.2-31.1,22.2-65.7,22.2-102.1
		c0-3.2-0.1-6.3-0.2-9.4H342.4z"/>
	<path d="M342.4,447.9c-20.4,0-40.3-4-59-11.9c-18-7.6-34.3-18.6-48.1-32.4c-13.9-13.8-24.8-30.1-32.4-48.1
		c-1.1-2.5-2.1-5.2-3.1-7.8c-13.8,4.2-28.2,6.2-42.8,6.2H27.2c39.1,83.9,124.2,142,222.8,142c54.6,0,105.1-17.8,145.8-48H342.4z"/>
</g>
</svg>
