<?xml version="1.0" encoding="utf-8"?>
<!-- Generator: Adobe Illustrator 25.1.0, SVG Export Plug-In . SVG Version: 6.00 Build 0)  -->
<svg version="1.1" id="Layer_1" xmlns="http://www.w3.org/2000/svg" xmlns:xlink="http://www.w3.org/1999/xlink" x="0px" y="0px"
	 viewBox="0 0 500 500" style="enable-background:new 0 0 500 500;" xml:space="preserve">
<path d="M250,393.5c-48.1-76.9-95.6-152.8-143.6-229.4c95.9,0,190.8,0,286.7,0C345.4,240.6,298,316.6,250,393.5z"/>
<path d="M227.6,400.7c-64.8-9.4-128.4-18.7-192.6-28c18.6-64.2,37-127.9,55.7-192.7C136.4,253.8,181.6,326.6,227.6,400.7z"/>
<path d="M409.4,180c18.7,64.8,37.1,128.4,55.7,192.6c-64.2,9.4-127.8,18.6-192.6,28.1C318.3,326.8,363.5,253.9,409.4,180z"/>
<path d="M386.3,141.2c-90.7,0-181.8,0-273.9,0C158.5,94.8,203.9,49,248.9,3.7C294.9,49.8,340.6,95.5,386.3,141.2z"/>
<path d="M82.5,403.6c51.9,7.3,103.8,14.6,156,21.9c0,22.8,0,45.3,0,68.6c-52.5-30-104.4-59.8-156.3-89.6
	C82.3,404.2,82.4,403.9,82.5,403.6z"/>
<path d="M418,404.4C366,434.2,314.1,464,261.6,494.1c0-23.3,0-45.6,0-68.6c52.1-7.3,104.1-14.6,156.1-21.9
	C417.7,403.9,417.8,404.1,418,404.4z"/>
<path d="M310.8,31.1c49.1,24.3,98.2,48.6,148.1,73.3c-14.1,11.4-27.6,22.4-41.6,33.7C381.5,102.7,345.8,67.4,310.2,32
	C310.4,31.7,310.6,31.4,310.8,31.1z"/>
<path d="M189.8,32.1c-35.5,35.2-71.1,70.4-107,106C69,127,55.5,116,41.2,104.4c49.8-24.6,98.9-49,148-73.3
	C189.4,31.5,189.6,31.8,189.8,32.1z"/>
<path d="M72.2,157c-12.9,46.4-25.8,92.7-38.7,138.9c-0.2,0-0.5-0.1-0.7-0.1c0-56.1,0-112.2,0-169.2C46.3,137,59.1,146.9,72.2,157z"
	/>
<path d="M427.9,157.1c13-10.1,25.8-20,39.3-30.5c0,57,0,113.1,0,169.1c-0.2,0.1-0.4,0.1-0.6,0.2
	C453.7,249.7,440.8,203.5,427.9,157.1z"/>
</svg>
