<?xml version="1.0" encoding="iso-8859-1"?>
<!-- Generator: Adobe Illustrator 19.0.0, SVG Export Plug-In . SVG Version: 6.00 Build 0)  -->
<svg version="1.1" id="Layer_1" xmlns="http://www.w3.org/2000/svg" xmlns:xlink="http://www.w3.org/1999/xlink" x="0px" y="0px"
	 viewBox="0 0 2000 2000" style="enable-background:new 0 0 2000 2000;" xml:space="preserve">
<path d="M1016.409,1978.842c-234.59-235.801-465.59-467.995-700.093-703.709c47.538-48.208,91.198-92.483,138.809-140.765
	c-46.371-47.422-90.792-92.849-137.92-141.044c48.164-49.279,92.891-95.042,140.587-143.843
	c-46.608-47.291-91.352-92.692-140.494-142.554C548.73,470.578,780.877,239.601,1008.079,11.071
	c236.526,233.157,469.69,462.999,706.395,696.331c-45.708,46.86-90.415,92.694-139.277,142.787
	c46.603,47.335,92.422,93.874,141.129,143.346c-47.217,47.747-91.023,92.046-138.44,139.995
	c45.798,46.908,90.225,92.41,138.306,141.656C1482.501,1510.17,1251.575,1742.374,1016.409,1978.842z M1015.641,706.918
	c-94.497,94.773-189.196,189.748-286.612,287.449c94.544,94.805,190.248,190.772,277.719,278.484
	c100.867-98.193,196.939-191.717,291.854-284.116C1205.978,896.484,1112.093,802.98,1015.641,706.918z M1016.352,289.458
	c167.853,168.541,329.947,331.299,490.106,492.113c28.342-28.528,52.468-52.811,76.022-76.52
	c-189.631-188.169-380.023-377.093-572.738-568.322c-186.709,188.44-377.114,377.308-563.933,568.563
	c27.627,29.156,50.312,53.096,76.168,80.382C686.242,620.796,848.566,457.868,1016.352,289.458z M445.114,1276.5
	c190.597,191.705,379.823,382.032,564.618,567.902c195.13-192.06,385.574-379.508,579.342-570.227
	c-26.13-25.218-50.416-48.657-77.207-74.512c-167.499,166.799-330.584,329.202-497.214,495.135
	c-164.693-165.228-328.35-329.416-490.909-492.503C495.842,1228.626,472.122,1251.011,445.114,1276.5z M1024.97,1561.603
	c139.019-139.695,281.217-282.584,422.091-424.143c-27.138-29.438-49.354-53.536-75.882-82.313
	c-118.969,119.068-235.402,235.598-354.931,355.227c-119.444-119.934-234.707-235.669-354.824-356.278
	c-26.982,27.523-50.915,51.935-75.543,77.056C732.929,1275.307,875.931,1415.496,1024.97,1561.603z M1011.662,421.714
	c-141.129,141.82-282.29,283.673-421.257,423.32c25.03,30.015,45.925,55.07,69.76,83.652
	c121.795-122.134,237.363-238.023,356.289-357.281c121.387,117.716,234.022,238.333,349.885,348.266
	c28.52-26.864,52.106-49.079,76.615-72.165C1300.532,706.899,1158.86,567.034,1011.662,421.714z M449.651,987.155
	c25.102,30.392,45.805,55.458,67.484,81.705c29.574-28.057,54.44-51.648,80.261-76.145c-25.942-29.81-46.584-57.016-77.884-74.708
	C494.12,943.141,470.842,966.181,449.651,987.155z M1511.785,916.136c-26.665,26.208-49.899,49.044-76.657,75.344
	c27.093,26.117,52.615,50.719,73.475,70.828c29.629-25.473,54.34-46.719,78.5-67.49
	C1561.154,967.709,1538.445,943.986,1511.785,916.136z"/>
</svg>
