<?xml version="1.0" encoding="iso-8859-1"?>
<!-- Generator: Adobe Illustrator 19.0.0, SVG Export Plug-In . SVG Version: 6.00 Build 0)  -->
<svg version="1.1" id="Layer_1" xmlns="http://www.w3.org/2000/svg" xmlns:xlink="http://www.w3.org/1999/xlink" x="0px" y="0px"
	 viewBox="0 0 2000 2000" style="enable-background:new 0 0 2000 2000;" xml:space="preserve">
<path d="M1310.991,398.878c-105.946-42.473-213.001-54.459-322.248-51.606c-32.021-44.14-62.818-86.592-92.298-127.229
	c2.207-13.032,7.205-19.151,17.954-20.554c35.838-4.677,71.668-9.466,107.407-14.837c50.935-7.655,101.733-16.237,152.696-23.695
	c29.992-4.389,60.26-6.875,90.275-11.123c30.704-4.345,61.252-9.798,95.334-15.328
	C1344.452,223.321,1329.54,309.752,1310.991,398.878z M598.886,101.787c-42.91,98.852-86.526,199.245-130.025,299.689
	c-4.032,9.311-9.319,18.685-3.846,32.783c130.627-74.476,259.56-148.467,386.568-223.171c3.411-11.435,6.172-20.689,9.411-31.546
	c-23.135-47.038-46.55-94.643-70.402-143.139C737.351,44.034,632.67,79.806,598.886,101.787z M1880.978,557.099
	c-9.505-2.404-17.331-5.569-25.356-6.197c-26.985-2.11-54.054-3.102-81.064-4.92c-36.825-2.478-73.654-4.999-110.416-8.248
	c-8.696-0.769-14.244,1.242-17.733,8.819c4.293,19.16,195.866,367.961,212.679,387.028c7.544,0.555,15.657,1.152,27.099,1.994
	c27.305-42.385,55.193-85.673,82.725-128.411C1947.559,717.641,1923.836,633.72,1880.978,557.099z M1279.945,1862.684
	c1.332,1.378,2.663,2.756,3.995,4.133c114.526-65.615,229.052-131.23,343.168-196.61c0-13.491,0-24.843,0-38.001
	c9.708-6.015,19.101-11.836,28.941-17.934c1.052-43.973-24.426-230.94-36.863-255.397
	C1502.927,1527.654,1391.918,1695.493,1279.945,1862.684z M239.666,965.359c-2.762,4.521-5.984,8.827-8.216,13.597
	c-20.126,43.016-40.129,86.091-60.072,129.193c-30.559,66.048-61.056,132.125-91.539,198.208
	c-4.891,10.603-8.819,21.46-4.181,33.223c4.75,12.045,9.77,23.983,14.262,34.968c76.21,10.42,150.269,21.013,227.324,28.608
	c-24.326-147.944-48.039-292.154-71.751-436.365C243.551,966.314,241.608,965.836,239.666,965.359z M68.84,684.552
	c-19.129,38.711-41.326,137.772-37.66,166.829c61.194,23.123,122.896,46.438,183.383,69.295
	c11.963-8.523,22.987-16.379,39.411-28.081c23.849-78.67,51.609-162.878,76.181-253.593
	C238.701,654.943,152.951,669.89,68.84,684.552z M1818.893,951.647c-114.403-46.259-228.881-92.332-343.253-138.667
	c-61.934-25.091-61.858-25.32-130.779-24.978c-7.594,0.038-15.184,0.86-26.483,1.543c43.744,54.417,84.778,105.462,126.448,157.298
	c84.969,0,169.497,0,255.296,0c5.201,78.978-7.34,154.562-24.424,235.256c58.104-66.294,112.537-128.4,166.75-190.255
	c-2.385-11.303-4.382-20.769-6.735-31.919C1829.081,956.637,1824.138,953.768,1818.893,951.647z M1539.734,1450.944
	c-122.139,141.809-281.632,204.839-469.16,218.732c63.889,71.811,124.196,139.596,186.456,209.576
	c96.746-143.333,191.544-283.78,286.343-424.226C1542.16,1453.665,1540.947,1452.304,1539.734,1450.944z M1441.758,471.821
	c38.552,27.506,73.365,60.254,111.787,92.35c15.126-7.909,33.129-17.323,50.956-26.645c2.798-7.8,5.23-14.583,8.177-22.799
	c-80.503-121.775-160.991-243.528-241.54-365.242c-0.306-0.463-1.507-0.483-2.277-0.445c-0.707,0.036-1.396,0.431-2.735,0.885
	c-15.139,82.261-30.337,164.847-45.603,247.799C1361.17,422.257,1403.339,444.411,1441.758,471.821z M1672.351,787.438
	c-75.127,0.435-147.972,0.857-220.817,1.278c-0.28,1.799-0.561,3.599-0.841,5.398c64.951,26.221,129.901,52.446,194.853,78.663
	c64.735,26.129,129.074,53.301,194.62,77.617c8.556-13.405,0.726-21.965-3.394-29.895c-17.005-32.735-34.787-65.073-52.685-97.335
	c-44.961-81.043-90.358-161.844-135.052-243.033c-9.175-16.668-20.84-29.073-40.661-34.212
	c-16.583,8.461-33.961,17.327-53.143,27.114C1607.431,637.634,1646.355,707.093,1672.351,787.438z M1448.295,121.738
	c-23.199,3.665-47.87,7.563-73.442,11.603c26.14,50.107,231.333,359.914,249.707,375.857c2.807-89.87,5.543-177.509,8.258-264.45
	C1596.482,207.825,1500.489,144.176,1448.295,121.738z M1642.127,250.446c-3.495,89.528-6.782,173.728-10.039,257.15
	c8.671,7.753,15.964,14.273,23.241,20.78c72.79,5.59,145.026,11.138,221.203,16.988
	C1815.613,431.442,1740.756,334.809,1642.127,250.446z M936.43,1795.314c-2.469,62.91-4.833,123.158-7.243,184.59
	c8.34,1.661,14.625,3.935,20.933,3.999c34.545,0.352,69.13,1.058,103.627-0.286c13.588-0.529,28.403-3.405,40.216-9.758
	c47.592-25.595,94.245-52.94,141.169-79.771c1.987-1.136,3.219-3.592,6.865-7.83
	C1140.167,1855.951,1039.829,1826.088,936.43,1795.314z M228.89,419.922c-25.485,17.522-49.769,32.4-65.367,57.867
	c-34.29,55.989-63.558,114.387-86.179,176.044c-2.073,5.65-2.555,11.884-4.348,20.639c85.991-14.495,168.646-28.428,257.085-43.336
	C298.256,557.32,262.335,490.106,228.89,419.922z M1238.265,734.826c-29.927,5.172-252.606,82.494-273.565,95.43
	c3.615,37.222,7.311,75.285,11.128,114.589c52.559,0,104.142,0,155.669,0C1158.647,907.067,1237.03,752.855,1238.265,734.826z
	 M880.647,686.715c21.326,43.663,69.555,116.2,86.672,130.171c89.147-30.908,178.465-61.876,269.153-93.318
	C1154.719,646.034,970.186,633.107,880.647,686.715z M588.938,103.124c-92.806,41.987-171.033,95.872-244,159.26
	c28.514,54.108,56.286,106.809,83.796,159.011c7.94,0,13.545,0,21.387,0C496.159,315.843,541.454,211.992,588.938,103.124z
	 M1259.345,740.078c-19.475,11.929-23.409,32.295-32.954,48.34c-10.047,16.888-18.811,34.542-28.051,51.906
	c-9.214,17.314-18.364,34.662-27.468,52.033c-8.889,16.959-17.685,33.967-27.4,52.642c97.27,0,190.704,0,287.793,0
	C1375.256,873.817,1321.846,804.716,1259.345,740.078z M18.703,1070.792c3.938,80.794,21.464,159.947,46.919,239.069
	c18.749-25.012,155.837-328.493,159.544-352.022C207.046,960.718,51.456,1045.542,18.703,1070.792z M1239.288,1872.693
	c-60.447-68.229-120.894-136.457-181.357-204.704c-40.036,0-78.412,0-118.968,0c0,40.695,0,80.573,0,121.215
	c99.956,29.409,199.073,58.572,298.19,87.734C1237.865,1875.523,1238.577,1874.108,1239.288,1872.693z M888.949,1972.701
	c-18.705-62.329-37.4-124.624-55.56-185.133c-12.085-5.62-21.594-10.042-31.005-14.418c-42.685,15.013-84.802,29.826-128.398,45.159
	c1.689,37.857-4.282,73.729,1.987,108.363C725.536,1950.499,859.916,1979.307,888.949,1972.701z M1238.408,41.715
	c-101.097-25.298-198.247-31.421-295.086-28.088c-19.136,35.459-53.257,151.273-50.724,177.303
	C1007.782,141.229,1120.435,92.62,1238.408,41.715z M1818.604,1260.956c-55.4,23.498-110.8,46.996-166.2,70.495
	c0.811,1.116,1.622,2.232,2.432,3.348c-5.559,9.731-11.118,19.461-18.438,32.275c4.813,39.526,8.556,82.751,15.701,125.406
	c7.02,41.906,7.651,85.104,25.442,126.244c48.275-117.747,96.55-235.494,144.825-353.241
	C1821.112,1263.973,1819.858,1262.464,1818.604,1260.956z M1836.204,1256.954c-27.088,123.993-53.836,246.435-80.585,368.877
	c92.514-105.812,156.006-225.894,194.034-360.634C1910.8,1256.717,1874.286,1256.465,1836.204,1256.954z M624.245,458.127
	c52.739-52.011,103.36-106.17,154.844-159.454c21.444-22.194,42.871-44.405,64.306-66.609c-0.995-1.363-1.991-2.726-2.986-4.088
	c-122.236,70.653-244.473,141.306-366.124,211.621c-0.621,12.553-1.14,23.048-1.679,33.935c23.176,17.84,45.782,35.242,69.149,53.23
	C570.147,503.378,599.221,482.806,624.245,458.127z M677.39,1012.548c23.217,11.396,45.024,22.099,66.515,32.648
	c7.912-4.482,14.246-8.07,21.984-12.454c21.834-95.698,43.74-191.715,65.699-287.965c-7.496-6.175-13.695-11.281-22.851-18.823
	C718.281,801.565,679.531,897.817,677.39,1012.548z M1213.4,1247.976c-64.976-0.348-129.955-0.174-194.933-0.058
	c-5.527,0.01-11.052,1.127-18.099,1.895c-5.036,36.834-16.479,71.611-18.02,108.187c3.966,1.384,6.184,2.768,8.456,2.862
	c58.424,2.412,116.429,1.062,172.415-18.975c47.122-16.865,89.536-40.551,122.785-84.006
	C1260.692,1248.572,1236.974,1248.103,1213.4,1247.976z M773.402,1260.742c46.338-15.863,90.859-31.104,136.32-46.667
	c0-42.972,0-85.216,0-129.972c-42.013-5.585-83.01-11.035-121.182-16.11c-10.467,6.9-17.854,11.769-25.685,16.932
	c-9.283,41.717-18.637,83.751-28.441,127.806C747.963,1229.415,760.221,1244.511,773.402,1260.742z M1356.33,125.627
	c-13.924-21.739-25.815-40.302-39-60.886c-19.544-6.116-40.473-12.666-62.957-19.702
	c-110.771,43.244-218.454,93.916-327.379,142.805C1069.592,168.595,1211.947,149.536,1356.33,125.627z M18.618,1055.521
	c68.572-33.66,133.943-71.978,200.846-109.274c-2.033-7.055-3.535-12.268-5.163-17.916
	c-62.534-22.833-124.362-45.408-186.323-68.031C15.345,901.311,9.826,1018.767,18.618,1055.521z M1883.267,996.576
	c-15.514-0.24-21.212,6.872-24.082,17.389c-2.146,7.868-4.189,15.779-6.733,23.521c-11.2,34.088-22.565,68.123-33.327,100.541
	c5.154,11.435,9.436,20.934,14.153,31.401c41.867,15.348,84.438,30.953,129.475,47.462c5.814-32.181,11.155-61.749,16.439-90.993
	C1945.152,1080.005,1913.52,1037.36,1883.267,996.576z M360.525,829.823c9.699-35.346,22.888-69.733,35.318-106.84
	c-17.141-24.349-35.33-50.184-56.069-79.643c-26.963,87.739-52.7,171.486-77.594,252.49c9.588,14.614,17.526,26.714,26.038,39.688
	c15.26,1.884,31.363,3.872,47.786,5.9C344.62,901.464,350.827,865.165,360.525,829.823z M779.648,1034.802
	c57.091-69.184,114.182-138.368,172.783-209.382c-37.409-27.403-73.65-51.18-113.54-74.739
	c-21.988,96.563-43.078,189.181-64.167,281.798C776.366,1033.253,778.007,1034.027,779.648,1034.802z M190.729,1558.203
	c41.837-49.574,81.296-96.329,122.569-145.235c-74.847-10.433-145.469-21.283-220.015-27.563
	C123.225,1446.563,150.357,1504.58,190.729,1558.203z M231.55,383.098c0.671,7.907,1.411,16.618,2.235,26.326
	c59.1,11.368,116.551,22.419,174.442,33.555c4.915-6.084,8.82-10.917,13.436-16.631c-27.462-51.944-54.462-103.016-81.561-154.274
	C314.741,288.32,265.721,338.765,231.55,383.098z M950.432,841.815c-56.339,68.135-112.678,136.27-168.408,203.669
	c3.283,6.018,5.204,9.539,6.99,12.812c40.058,6.533,79,13.827,120.984,16.38c0.705-43.856,1.372-85.346,2.08-129.426
	c19.566,0,36.368,0,55.048,0c-3.586-35.786-6.878-68.645-10.171-101.504C954.78,843.104,952.606,842.459,950.432,841.815z
	 M330.041,1389.373c1.786-3.64,5.124-7.276,5.133-10.921c0.276-111.848,0.225-223.697,0.225-336.571
	c-25.017-24.886-44.882-55.875-77.133-75.457c18.384,142.292,42.755,282.706,65.971,423.309
	C326.172,1389.613,328.107,1389.493,330.041,1389.373z M1891.739,995.085c28.789,38.673,54.724,78.683,88.594,118.539
	c8.729-99.217,9.899-192.495-9.377-284.883c-1.741-0.406-3.482-0.812-5.223-1.217c-24.191,36.711-48.382,73.422-73.974,112.257
	C1904.169,958.822,1901.262,976.77,1891.739,995.085z M1667.846,1723.671c-1.377-14.925-2.486-26.94-3.645-39.498
	c-9.224-1.301-17.219-2.429-25.849-3.646c-100.179,80.171-200.257,160.262-300.335,240.353
	C1463.054,1877.944,1573.001,1811.651,1667.846,1723.671z M197.426,1562.329c5.189,9.433,9.493,17.255,13.89,25.247
	c41.531,8.594,82.526,17.077,125.527,25.975c0-44.028-0.813-85.029,0.317-125.977c0.636-23.038-7.814-42.782-17.522-68.137
	C277.134,1469.133,237.275,1515.737,197.426,1562.329z M676.508,1809.313c45.817-15.716,86.388-29.632,125.317-42.985
	c5.932-10.76,10.967-19.893,16.772-30.424c-9.532-32.446-19.383-65.977-29.704-101.107c-12.126-4.512-24.844-9.244-40.252-14.977
	C724.876,1682.251,701.674,1743.201,676.508,1809.313z M1807.625,1323.749c-41.529,102.004-83.059,204.009-123.738,303.924
	c6.617,21.814-0.993,44.94,19.75,56.846c13.678-12.156,28.356-25.199,38-33.769c24.491-112.775,47.521-218.827,70.552-324.88
	C1810.668,1325.163,1809.147,1324.456,1807.625,1323.749z M825.98,1730.081c12.225,13.462,21.408,23.574,31.335,34.507
	c9.611,2.99,20.405,6.596,31.346,9.683c11.58,3.267,23.3,6.039,34.739,8.97c6.937-20.62,8.44-93.991,3.444-117.111
	c-41.338-8.678-82.091-17.233-127.486-26.763C809.096,1672.548,818.194,1703.55,825.98,1730.081z M1356.758,1894.509
	c42.121-32.951,83.917-66.323,125.685-99.723c39.009-31.194,77.805-62.655,116.696-93.999c-0.709-1.147-1.418-2.294-2.127-3.442
	c-110.234,63.131-220.467,126.262-329.309,188.597c10.602,13.125,19.902,24.637,27.606,34.174
	C1332.084,1913.193,1332.384,1913.577,1356.758,1894.509z M354.062,621.01c19.177-7.985,38.456-15.737,57.509-24.007
	c32.174-13.966,64.431-27.779,96.16-42.703c9.745-4.584,17.881-12.588,29.131-20.751c-25.657-19.973-48.15-37.483-68.531-53.348
	c-16.391,3.307-29.61,5.974-43.242,8.724c-24.383,42.757-48.901,85.75-73.419,128.742
	C352.468,618.78,353.265,619.895,354.062,621.01z M930.591,16.535c-46.189-0.011-87.879,8.418-132.171,17.59
	c26.296,50.046,46.849,99.644,79.282,150.249C896.306,125.335,913.04,72.232,930.591,16.535z M859.417,229.663
	c-67.232,66.444-131.632,135.593-200.124,207.478c57.964-23.875,110.633-45.57,165.192-68.043
	c12.607-44.15,25.783-90.292,38.959-136.435C862.102,231.664,860.759,230.663,859.417,229.663z M847.838,1804.514
	c8.634,32.261,17.965,64.341,27.443,96.367c6.251,21.121,12.751,42.194,20.057,62.965c3.56,10.123,8.981,19.926,26.281,12.425
	c1.875-59.485,3.783-119.989,5.78-183.332c-25.35-7.377-51.569-15.007-77.772-22.632
	C838.837,1784.665,845.244,1794.822,847.838,1804.514z M838.124,367.319c45.35-7.049,90.578-14.078,139.737-21.719
	c-31.639-43.107-60.581-82.541-90.788-123.697C869.058,239.981,836.715,340.587,838.124,367.319z M1851.86,995.053
	c-60.078,65.471-118.323,132.554-174.098,202.742c36.248-6.643,70.124-19.425,103.503-31.974c3.011-7.256,5.468-13.174,8.075-19.457
	c7.326-3.61,14.559-7.173,23.812-11.732c14.367-44.647,29.18-90.678,43.993-136.71
	C1855.383,996.966,1853.621,996.01,1851.86,995.053z M951.574,1250.429c-15.425-1.664-26.588-2.869-38.512-4.155
	c-1.754-7.73-3.343-14.737-5.156-22.728c-41.466,14.218-81.998,28.117-123.104,42.211c18.661,27.402,57.078,53.914,99.099,67.602
	C905.644,1306.714,927.574,1279.84,951.574,1250.429z M1656.487,1239.473c-6.659,23.794-13.643,48.75-20.793,74.296
	c4.779,3.316,8.654,6.005,13.403,9.3c54.63-22.937,108.992-45.761,163.353-68.585c-0.223-1.572-0.447-3.143-0.67-4.715
	c-44.452-8.618-88.904-17.237-134.724-26.12C1669.721,1229.293,1663.909,1233.764,1656.487,1239.473z M344.584,635.48
	c19.876,27.605,38.153,52.989,55.449,77.01c32.326-48.249,63.426-94.668,95.429-142.436
	C445.345,591.787,395.77,613.284,344.584,635.48z M336.173,473.338c2.083,47.883,4.049,93.058,6.014,138.232
	c1.306,0.48,2.613,0.96,3.919,1.44c24.91-43.484,49.82-86.967,75.017-130.95c-4.852-6.008-8.858-10.968-14.834-18.368
	C382.637,466.946,360.283,470.021,336.173,473.338z M1820.227,1184.443c3.968,20.602,7.76,41.404,19.524,61.386
	c37.16,2.455,74.347,4.911,113.348,7.488c2.435-10.849,4.458-19.86,6.751-30.073c-45.653-16.682-89.028-32.531-133.153-48.655
	C1824.244,1178.148,1819.714,1181.781,1820.227,1184.443z M334.448,606.389c-2-45.294-3.999-90.588-5.95-134.763
	c-29.122-16.321-55.083-31.872-87.45-46.151c31.503,64.298,60.437,123.355,89.372,182.411
	C331.763,607.388,333.106,606.889,334.448,606.389z M329.626,1717.831c12.023-33.833,5.746-64.165,6.31-95.153
	c-38.503-7.992-74.749-15.515-110.994-23.038C254.819,1642.825,287.559,1681.886,329.626,1717.831z M971.136,1355.026
	c7.55-36.236,14.599-70.072,22.021-105.693c-10.635,0-19.342,0-30.404,0c-22.252,27.838-45.605,57.054-72.335,90.494
	C920.787,1344.816,943.885,1362.715,971.136,1355.026z M678.636,1778.932c20.064-53.66,42.948-106.266,60.301-162.384
	c-7.62-3.422-13.207-5.932-19.72-8.857c-15.844,16.095-30.778,31.265-45.828,46.554c0,41.398,0,82.42,0,123.442
	C675.138,1778.101,676.887,1778.516,678.636,1778.932z M1680.451,1209.863c0.134,1.899,0.268,3.798,0.402,5.696
	c47.652,8.08,94.289,21.583,145.523,26.655c-6.473-21.118-11.907-38.844-16.915-55.182c-9.158-4.431-16.407-7.938-25.171-12.178
	C1748.913,1186.78,1714.682,1198.322,1680.451,1209.863z M755.446,1079.39c-7.052-2.032-12.152-5.409-15.65-4.19
	c-18.103,6.31-37.697,9.954-52.396,24.481c10.315,32.903,20.249,65.005,41.314,98.867
	C738.325,1155.708,746.732,1118.236,755.446,1079.39z M836.537,707.715c-3.502,14.393-0.46,25.953,9.298,33.029
	c29.415,21.33,59.718,41.434,89.675,62.016c1.233-1.283,2.466-2.565,3.699-3.848c-22.915-36.257-45.829-72.514-70.036-110.814
	C856.21,695.889,845.802,702.145,836.537,707.715z M336.112,1028.94c0-29.151,0-52.573,0-78.827
	c-20.958-1.067-42.666-11.081-67.479,6.196C291.644,981.077,312.051,1003.043,336.112,1028.94z M1236.314,1904.261
	c-39.83,22.836-79.66,45.673-119.49,68.509c0.556,1.549,1.112,3.098,1.668,4.647c28.651-4.618,57.302-9.236,87.391-14.086
	c11.517-18.556,22.956-36.987,34.394-55.418C1238.957,1906.696,1237.636,1905.479,1236.314,1904.261z M688.276,1085.145
	c19.176-9.826,40-10.207,55.571-27.632c-20.579-14.912-41.933-23.786-65.248-33.124
	C678.51,1046.343,679.547,1065.899,688.276,1085.145z M272.061,430.27c21.204,11.728,42.409,23.456,61.757,34.157
	c24.575-3.433,46.882-6.548,69.189-9.664C360.462,441.374,317.08,433.675,272.061,430.27z M1291.717,1939.082
	c-4.615-22.243-20.655-30.887-34.35-43.939c-10.513,21.419-26.24,38.212-32.517,64.604
	C1249.097,1952.253,1270.081,1945.768,1291.717,1939.082z M1430.515,115.113c0.041-1.417,0.081-2.834,0.122-4.251
	c-17.919-8.019-35.839-16.038-54.084-24.204c-6.421,13.444-10.089,24.593-3.326,38.137
	C1392.547,121.53,1411.531,118.322,1430.515,115.113z M675.871,1634.901c11.458-11.003,21.878-21.009,33.255-31.935
	c-10.245-4.854-20.134-9.538-33.894-16.057C672.998,1605.801,670.049,1620.454,675.871,1634.901z M1363.234,109.344
	c0-8.716,0-17.431,0-25.556c-8.633-7.649-18.07-9.967-31.33-11.506c10.033,14.729,18.104,26.578,26.174,38.426
	C1359.797,110.254,1361.515,109.799,1363.234,109.344z"/>
</svg>
