<?xml version="1.0" encoding="iso-8859-1"?>
<!-- Generator: Adobe Illustrator 19.0.0, SVG Export Plug-In . SVG Version: 6.00 Build 0)  -->
<svg version="1.1" id="Layer_1" xmlns="http://www.w3.org/2000/svg" xmlns:xlink="http://www.w3.org/1999/xlink" x="0px" y="0px"
	 viewBox="0 0 2000 2000" style="enable-background:new 0 0 2000 2000;" xml:space="preserve">
<path d="M1421.26,1616.821c0-81.836,0-155.232,0-234.473c105.7,0,210.474,0,318.613,0c0-254.063,0-502.301,0-754.589
	c-176.111,0-351.301,0-530.888,0c0-83.377,0-162.921,0-249.832c31.854,0,65.245,0,98.636,0c148.93,0.001,297.874-1.26,446.784,0.456
	c96.097,1.107,172.485,39.487,212.153,131.874c9.409,21.915,13.2,47.826,13.279,71.92c0.895,274.531-2.664,549.125,2.423,823.564
	c1.652,89.132-68.487,199.492-186.815,208.909C1672.875,1624.405,1548.925,1616.821,1421.26,1616.821z M790.57,378.047
	c-190.034,0-378.38-6.725-565.983,2.185c-143.19,6.8-208.223,115.096-206.591,228.281c3.853,267.245,1.119,534.583,1.304,801.883
	c0.065,94.714,62.806,182.124,155.365,194.141c96.66,12.55,195.391,9.42,293.239,12.412c36.689,1.122,73.442,0.182,108.552,0.182
	c0-83.517,0-158.184,0-238.603c-107.739,0-212.49,0-316.071,0c0-254.06,0-502.269,0-752.401c177.942,0,351.813,0,530.186,0
	C790.57,543.473,790.57,462.716,790.57,378.047z M464.19,1112.204c140.059,0,277.039,0,419.576,0c0,167.79,0,329.897,0,491.377
	c80.389,0,155.039,0,235.333,0c0-164.775,0-326.886,0-494.603c142.621,0,279.602,0,415.203,0c0-85.349,0-164.885,0-243.575
	c-358.839,0-713.371,0-1070.112,0C464.19,947.485,464.19,1026.98,464.19,1112.204z"/>
</svg>
