<?xml version="1.0" encoding="iso-8859-1"?>
<!-- Generator: Adobe Illustrator 19.0.0, SVG Export Plug-In . SVG Version: 6.00 Build 0)  -->
<svg version="1.1" id="Layer_1" xmlns="http://www.w3.org/2000/svg" xmlns:xlink="http://www.w3.org/1999/xlink" x="0px" y="0px"
	 viewBox="0 0 500 500" style="enable-background:new 0 0 500 500;" xml:space="preserve">
<path d="M289.988,401.889c-11.015,0-20.996,0-32.501,0c0,3.938,0,8.041,0,12.143c-0.002,17.798,0.186,35.599-0.076,53.393
	c-0.158,10.715-5.836,16.381-15.301,16.254c-9.515-0.128-14.68-5.128-14.815-15.289c-0.258-19.34-0.143-38.684-0.182-58.027
	c-0.005-2.27-0.001-4.54-0.001-7.848c-10.72,0-20.883,0-32.554,0c-0.191,3.804-0.3,7.874-0.625,11.928
	c-0.37,4.603-0.365,9.344-1.553,13.747c-1.617,5.996-8.502,11.401-13.716,10.559c-6.043-0.976-12.49-2.525-14.214-9.891
	c-1.04-4.442-1.728-9.009-2.074-13.558c-0.348-4.578-0.077-9.203-0.077-14.31c-15.774-4.746-29.857-11.212-40.839-23.377
	c-10.889-12.062-16.988-26.2-19.33-42.503c-20.053,0-38.97,0.001-57.886-0.002c-2.708,0-5.444,0.221-8.12-0.081
	c-8.345-0.94-14.004-7.423-13.911-15.67c0.099-8.745,5.19-14.243,14.512-14.432c17.016-0.345,34.044-0.172,51.066-0.211
	c4.174-0.009,8.348-0.001,13.333-0.001c0-11.327,0-21.574,0-33.272c-3.974,0-8.083,0.111-12.184-0.024
	c-7.69-0.252-15.484,0.037-23.036-1.155c-9.216-1.455-12.918-6.542-12.699-14.962c0.191-7.372,5.539-13.683,13.583-14.68
	c6.485-0.804,13.114-0.484,19.68-0.585c4.608-0.071,9.219-0.014,14.648-0.014c0-10.701,0-20.876,0-32.591c-4.239,0-8.362,0-12.486,0
	c-21.667,0-43.334,0.001-65.001-0.003c-2.321,0-4.676,0.211-6.958-0.099c-8.12-1.101-14.663-8.57-14.05-15.816
	c0.713-8.42,6.429-14.136,15.177-14.212c23.6-0.206,47.202-0.1,70.804-0.117c3.839-0.003,7.679,0,12.739,0
	c6.435-34.076,24.774-57.523,60.987-65.732c0-10.751-0.201-21.89,0.057-33.018c0.254-10.939,5.279-16.757,14.451-17.525
	c9.074-0.761,14.856,3.465,16.023,12.597c0.878,6.871,0.902,13.859,1.143,20.801c0.16,4.611,0.03,9.231,0.03,14.728
	c10.882,0,21.125,0,32.245,0c0.229-2.573,0.705-5.515,0.717-8.459c0.096-22.826,0.356-45.656,0.018-68.477
	c-0.143-9.639,7.292-15.718,16.394-15.046c8.989,0.664,13.913,5.908,14.018,16.322c0.202,20.117,0.062,40.238,0.063,60.357
	c0,4.955,0,9.91,0,15.514c10.806,0,20.708,0,32.316,0c0.059-6.102,0.004-12.488,0.217-18.864c0.206-6.149-0.053-12.45,1.23-18.395
	c1.795-8.319,7.562-11.71,16.327-11.088c7.285,0.517,12.315,5.268,12.958,13.5c0.599,7.668,0.173,15.413,0.311,23.122
	c0.076,4.221,0.385,8.438,0.618,13.256c33.749,8.83,54.498,29.95,60.53,65.605c3.749,0.269,7.502,0.754,11.257,0.77
	c17.024,0.074,34.048,0.012,51.072,0.007c3.095-0.001,6.198-0.095,9.284,0.081c9.215,0.525,14.798,5.823,15.094,14.174
	c0.278,7.861-6.725,15.744-15.088,15.906c-16.631,0.324-33.272,0.106-49.909,0.11c-6.522,0.002-13.043,0-20.334,0
	c0,10.904,0,21.076,0,32.64c10.033,0,19.975-0.129,29.912,0.042c7.395,0.127,13.439,2.432,16.569,10.134
	c3.345,8.23-0.764,17.959-9.468,19.836c-5.234,1.129-10.72,1.27-16.107,1.462c-6.556,0.234-13.126,0.056-21.175,0.056
	c-0.717,10.918-0.72,21.396,0.21,33.105c4.346,0,8.113,0.004,11.88-0.001c27.083-0.037,54.167-0.165,81.249-0.018
	c4.113,0.022,8.532,0.604,12.25,2.216c4.82,2.091,8.19,9.964,7.398,14.649c-1.061,6.276-6.617,12.256-12.94,13.339
	c-3.014,0.516-6.17,0.246-9.262,0.249c-26.697,0.026-53.393,0.034-80.09,0.047c-3.809,0.002-7.619,0-11.868,0
	c-5.752,35.61-26.263,56.983-60.658,65.627c0,7.953,0.054,15.603-0.021,23.251c-0.042,4.225,0.021,8.49-0.528,12.663
	c-1.298,9.873-6.093,14.407-14.712,14.444c-8.111,0.035-15.123-6.314-15.834-15.293c-0.578-7.306-0.168-14.691-0.187-22.042
	C289.98,410.031,289.988,406.225,289.988,401.889z M127.466,255.454c-0.026,0-0.052,0-0.078,0c0,23.969,0.849,47.977-0.247,71.896
	c-1.026,22.404,17.455,48.928,47.686,49.364c45.223,0.653,90.479,0.891,135.689-0.11c25.325-0.56,46.843-21.375,46.804-49.084
	c-0.066-47.552-0.338-95.107,0.102-142.655c0.29-31.33-27.286-49.969-48.606-49.612c-45.22,0.757-90.463,0.448-135.693,0.117
	c-22.689-0.166-46.236,21.794-45.765,45.859C127.843,205.961,127.466,230.711,127.466,255.454z M175.563,342.076
	c3.959-12.148,7.387-22.664,11.25-34.52c29.156,0,58.69,0,88.704,0c0-4.306,0-7.243,0-10.955c-2.999-0.284-5.962-0.796-8.926-0.807
	c-22.027-0.084-44.055-0.065-66.083-0.086c-3.475-0.003-6.978,0.223-10.42-0.125c-9.158-0.925-15.945-7.291-16.044-16.544
	c-0.331-30.907-0.377-61.822,0.024-92.727c0.129-9.931,7.657-15.9,18.832-15.99c27.436-0.22,54.875-0.155,82.312-0.209
	c5.024-0.01,10.051-0.161,15.07-0.029c12.86,0.338,20.044,7.223,20.528,20.056c0.32,8.49,0.071,17.002,0.071,25.504
	c0.001,34.008-0.592,68.031,0.286,102.017c0.359,13.884-8.825,25.15-24.873,24.697c-33.209-0.938-66.462-0.282-99.698-0.282
	C183.541,342.076,180.486,342.076,175.563,342.076z M209.5,205.681c0,18.675,0,36.567,0,54.275c22.58,0,44.338,0,65.949,0
	c0-18.487,0-36.102,0-54.275C253.374,205.681,231.898,205.681,209.5,205.681z"/>
</svg>
