<?xml version="1.0" encoding="iso-8859-1"?>
<!-- Generator: Adobe Illustrator 19.0.0, SVG Export Plug-In . SVG Version: 6.00 Build 0)  -->
<svg version="1.1" id="Layer_1" xmlns="http://www.w3.org/2000/svg" xmlns:xlink="http://www.w3.org/1999/xlink" x="0px" y="0px"
	 viewBox="0 0 500 500" enable-background="new 0 0 500 500" xml:space="preserve">
<path d="M38.7,229.877c23.103-10.691,45.177-20.907,68.327-31.62c31.739,74.42,78.287,134.473,142.971,182.198
	c63.898-46.811,110.767-106.866,142.886-182.035c22.743,10.377,44.83,20.455,66.539,30.361
	c-15.266,72.358-119.633,192.088-209.826,241.283C154.025,413.758,83.884,334.466,38.7,229.877z M487.05,148.963
	c3.253-15.86,5.879-31.848,8.688-47.334C350.985,13.721,147.537,14.411,3.782,101.979c5.091,24.649,10.303,49.883,15.656,75.797
	c153.927-89.265,306.062-89.487,460.197-0.555C482.202,167.574,485.12,158.37,487.05,148.963z"/>
</svg>
