<?xml version="1.0" encoding="utf-8"?>
<!-- Generator: Adobe Illustrator 26.2.1, SVG Export Plug-In . SVG Version: 6.00 Build 0)  -->
<svg version="1.1" id="moonbeam" xmlns="http://www.w3.org/2000/svg" xmlns:xlink="http://www.w3.org/1999/xlink" x="0px" y="0px"
	 viewBox="0 0 500 500" style="enable-background:new 0 0 500 500;" xml:space="preserve">
<path d="M445.5,199.7c3.4,0,6.3-2.7,6.3-6.1c0-1.1,0-2.1,0-3.2c0-86.1-69.8-155.8-155.8-155.8s-155.8,69.8-155.8,155.8
	c0,1.1,0,2.1,0,3.2c0.1,3.4,2.9,6.1,6.3,6.1H445.5z"/>
<path d="M476.6,245.1H114.1c-4.9,0-8.8-3.9-8.8-8.8l0,0c0-4.9,3.9-8.8,8.8-8.8h362.5c4.9,0,8.8,3.9,8.8,8.8l0,0
	C485.4,241.1,481.5,245.1,476.6,245.1z"/>
<path d="M306.4,288.4H40c-4.9,0-8.8-3.9-8.8-8.8l0,0c0-4.9,3.9-8.8,8.8-8.8h266.3c4.9,0,8.8,3.9,8.8,8.8l0,0
	C315.1,284.4,311.2,288.4,306.4,288.4z"/>
<path d="M434.1,331.7H115.4c-4.9,0-8.8-3.9-8.8-8.8l0,0c0-4.9,3.9-8.8,8.8-8.8h318.8c4.9,0,8.8,3.9,8.8,8.8l0,0
	C442.9,327.7,439,331.7,434.1,331.7z"/>
<path d="M186.7,375H60.1c-4.9,0-8.8-3.9-8.8-8.8l0,0c0-4.9,3.9-8.8,8.8-8.8h126.6c4.9,0,8.8,3.9,8.8,8.8l0,0
	C195.5,371,191.5,375,186.7,375z"/>
<path d="M438.8,418.2H276.3c-4.9,0-8.8-3.9-8.8-8.8l0,0c0-4.9,3.9-8.8,8.8-8.8h162.5c4.9,0,8.8,3.9,8.8,8.8l0,0
	C447.6,414.3,443.7,418.2,438.8,418.2z"/>
<path d="M338.8,461.5H176.2c-4.9,0-8.8-3.9-8.8-8.8l0,0c0-4.9,3.9-8.8,8.8-8.8h162.5c4.9,0,8.8,3.9,8.8,8.8l0,0
	C347.5,457.6,343.6,461.5,338.8,461.5z"/>
<path d="M488.9,375H224.5c-4.9,0-8.8-3.9-8.8-8.8l0,0c0-4.9,3.9-8.8,8.8-8.8h264.4c4.9,0,8.8,3.9,8.8,8.8l0,0
	C497.7,371,493.8,375,488.9,375z"/>
<path d="M143.5,461.5L143.5,461.5c-4.9,0-8.8-3.9-8.8-8.8l0,0c0-4.9,3.9-8.8,8.8-8.8l0,0c4.9,0,8.8,3.9,8.8,8.8l0,0
	C152.2,457.6,148.3,461.5,143.5,461.5z"/>
<path d="M26.4,375L26.4,375c-4.9,0-8.8-3.9-8.8-8.8l0,0c0-4.9,3.9-8.8,8.8-8.8l0,0c4.9,0,8.8,3.9,8.8,8.8l0,0
	C35.2,371,31.3,375,26.4,375z"/>
<path d="M81,331.7L81,331.7c-4.9,0-8.8-3.9-8.8-8.8l0,0c0-4.9,3.9-8.8,8.8-8.8l0,0c4.9,0,8.8,3.9,8.8,8.8l0,0
	C89.8,327.7,85.9,331.7,81,331.7z"/>
<path d="M7.9,288.4L7.9,288.4c-4.9,0-8.8-3.9-8.8-8.8l0,0c0-4.9,3.9-8.8,8.8-8.8l0,0c4.9,0,8.8,3.9,8.8,8.8l0,0
	C16.7,284.4,12.8,288.4,7.9,288.4z"/>
<path d="M81,245.1L81,245.1c-4.9,0-8.8-3.9-8.8-8.8l0,0c0-4.9,3.9-8.8,8.8-8.8l0,0c4.9,0,8.8,3.9,8.8,8.8l0,0
	C89.8,241.1,85.9,245.1,81,245.1z"/>
<path d="M242.8,418.2L242.8,418.2c-4.9,0-8.8-3.9-8.8-8.8l0,0c0-4.9,3.9-8.8,8.8-8.8l0,0c4.9,0,8.8,3.9,8.8,8.8l0,0
	C251.6,414.3,247.7,418.2,242.8,418.2z"/>
</svg>
