<?xml version="1.0" encoding="iso-8859-1"?>
<!-- Generator: Adobe Illustrator 19.0.0, SVG Export Plug-In . SVG Version: 6.00 Build 0)  -->
<svg version="1.1" id="Layer_1" xmlns="http://www.w3.org/2000/svg" xmlns:xlink="http://www.w3.org/1999/xlink" x="0px" y="0px"
	 viewBox="0 0 500 500" style="enable-background:new 0 0 500 500;" xml:space="preserve">
<path d="M201.325,274.33c16.874,16.664,33.418,33.002,50.887,50.254c18.719-19.039,37.493-38.134,56.094-57.054
	c43.92,21.083,82.33,16.503,111.392-12.832c22.194-22.403,38.157-63.669,11.836-109.362c5.621-5.73,11.244-11.456,16.902-17.218
	c53.055,74.362,59.764,201.864-26.39,291.938c-86.128,90.046-227.181,97.971-322.297,18.373
	C1.559,356.258-8.856,220.219,52.715,128.54c6.622,6.745,13.362,13.611,20.657,21.042c-22.412,40.963-20.006,80.884,15.569,115.951
	C111.16,287.434,154.096,301.887,201.325,274.33z M253.424,287.892c62.681-63.729,125.957-128.062,189.379-192.544
	C352.087-17.44,166.381-31.666,56.843,92.852C122.36,157.856,187.542,222.526,253.424,287.892z M411.104,94.761
	c-52.771,53.795-105.507,107.554-157.72,160.781C198.478,200.747,144.237,146.614,89.621,92.107
	C181.483,2.205,330.169,9.689,411.104,94.761z M107.991,240.229c17.54,15.609,45.92,16.315,59.1,2.956
	c-21.853-22.492-43.693-44.971-65.542-67.459C86.242,194.802,89.156,223.468,107.991,240.229z M400.426,230.872
	c15.39-16.515,17.451-43.006,4.958-58.016c-21.844,21.932-43.73,43.905-65.519,65.781
	C357.814,251.28,384.362,248.111,400.426,230.872z"/>
</svg>
