<?xml version="1.0" encoding="iso-8859-1"?>
<!-- Generator: Adobe Illustrator 19.0.0, SVG Export Plug-In . SVG Version: 6.00 Build 0)  -->
<svg version="1.1" id="Layer_1" xmlns="http://www.w3.org/2000/svg" xmlns:xlink="http://www.w3.org/1999/xlink" x="0px" y="0px"
	 viewBox="0 0 500 500" style="enable-background:new 0 0 500 500;" xml:space="preserve">
<path id="XMLID_4_" d="M305.639,64.207c9.012-8.677,17.9-17.26,26.817-25.813c8.667-8.314,17.363-16.599,26.401-25.235
	c4.611,4.485,8.781,8.542,12.16,11.829c-16.878,18.556-33.23,36.535-48.888,53.75c4.847,13.498,12.1,27.791,15.023,42.922
	c9.557,49.454-24.615,98.293-74.162,107.109c-8.394,1.494-10.536,4.624-10.296,12.649c0.565,18.93,0.181,37.889,0.181,57.726
	c33.355,4.917,59.285,20.738,75.195,50.589c10.946,20.539,13.633,42.479,8.437,65.217c-10.159,44.453-51.842,75.319-97.812,72.562
	c-45.443-2.726-82.624-38.438-87.674-84.572c-4.047-36.973,16.019-90.416,82.407-103.617c0-11.274,0-22.856,0-34.439
	c0-11.305,0-22.61,0-34.032c-46.521-9.744-75.715-36.523-81.761-83.466c-4.746-36.845,9.558-67.585,40.639-88.146
	C230.294,34.108,268.435,37.945,305.639,64.207z M244.929,211.3c41.02-0.123,74.224-33.272,74.434-74.311
	c0.212-41.266-33.657-75.26-74.821-75.097c-40.907,0.162-74.2,33.399-74.525,74.402C169.692,177.38,203.692,211.424,244.929,211.3z
	 M244.792,468.076c41.033-0.013,74.374-33.247,74.572-74.331c0.197-40.961-32.923-74.438-74.064-74.864
	c-41.231-0.426-75.345,33.569-75.133,74.872C170.378,434.802,203.8,468.088,244.792,468.076z"/>
</svg>
