<?xml version="1.0" encoding="iso-8859-1"?>
<!-- Generator: Adobe Illustrator 19.0.0, SVG Export Plug-In . SVG Version: 6.00 Build 0)  -->
<svg version="1.1" id="Layer_1" xmlns="http://www.w3.org/2000/svg" xmlns:xlink="http://www.w3.org/1999/xlink" x="0px" y="0px"
	 viewBox="0 0 500 500" style="enable-background:new 0 0 500 500;" xml:space="preserve">
<path d="M7.113,206.441c3.428-2.111,4.262-6.03,6.144-9.155c7.708-12.798,15.167-25.748,22.631-38.692
	c6.962-12.075,13.757-24.247,20.73-36.316c7.971-13.797,16.079-27.514,24.082-41.293c2.494-4.294,4.838-8.675,7.233-12.985
	c53.83,0,107.476,0,161.468,0c17.327,29.99,34.724,60.101,52.428,90.742c-17.826,0-34.97,0-52.707,0
	c-8.421-14.51-17.102-29.467-25.852-44.543c-36.304,0-72.477,0-109.128,0c-17.809,30.802-35.74,61.812-53.921,93.257
	c17.913,31.026,35.918,62.213,54.025,93.575c36.21,0,72.39,0,109.302,0c17.625-29.569,35.459-59.486,53.354-89.507
	c16.875,0,33.618,0,50.738,0c-26.132,45.264-52.148,90.327-78.322,135.665c-53.551,0-107.367,0-161.667,0
	c-1.572-2.519-3.448-5.32-5.121-8.239c-9.803-17.102-19.508-34.259-29.344-51.342c-10.436-18.124-20.951-36.203-31.492-54.267
	c-4.785-8.2-9.716-16.316-14.58-24.47C7.113,208.061,7.113,207.251,7.113,206.441z M493.157,301.22
	c-0.193-0.06-0.489-0.061-0.564-0.19c-7.506-12.9-15.049-25.78-22.473-38.727c-8.619-15.03-17.081-30.149-25.707-45.174
	c-8.827-15.375-17.756-30.691-26.676-46.013c-1.696-2.913-3.56-5.729-5.145-8.267c-54.253,0-108.078,0-161.743,0
	c-25.89,44.845-51.633,89.436-77.642,134.487c16.566,0,32.483,0,48.391,0c18.223-30.012,36.403-59.953,54.332-89.48
	c37.056,0,73.472,0,110.078,0c18.112,31.423,36.363,62.677,54.265,94.113c-18.279,31.653-36.291,62.845-54.203,93.862
	c-36.489,0-72.5,0-108.44,0c-8.643-14.93-17.215-29.738-25.755-44.49c-17.528,0-35.033,0-52.768,0
	c17.416,30.126,34.643,59.925,51.75,89.518c54.184,0,107.995,0,161.944,0c3.35-5.789,6.647-11.465,9.922-17.153
	c3.977-6.906,7.912-13.835,11.907-20.73c5.293-9.134,10.661-18.226,15.934-27.372c5.171-8.971,10.244-17.998,15.395-26.98
	c5.448-9.501,10.888-19.008,16.428-28.455c3.498-5.965,7.173-11.827,10.769-17.735C493.157,302.03,493.157,301.625,493.157,301.22z"
	/>
</svg>
