<?xml version="1.0" encoding="iso-8859-1"?>
<!-- Generator: Adobe Illustrator 19.0.0, SVG Export Plug-In . SVG Version: 6.00 Build 0)  -->
<svg version="1.1" id="Layer_1" xmlns="http://www.w3.org/2000/svg" xmlns:xlink="http://www.w3.org/1999/xlink" x="0px" y="0px"
	 viewBox="0 0 500 500" style="enable-background:new 0 0 500 500;" xml:space="preserve">
<path d="M344.609,226.372c-48.009,0-95.449,0-144.739,0c22.026,36.718,43.299,72.18,64.859,108.122
	c-16.693,27.777-33.331,55.461-49.672,82.653C128.561,438.524,32.615,387.443,9.715,290.623
	C-13.122,194.07,49.317,99.593,146.927,82.979C243.71,66.506,330.456,132.535,344.609,226.372z M177.931,283.658
	c4.886,0.191,9.812-3.485,13.18-9.394c3.676-6.449,2.579-12.639-1.507-18.632c-16.365-24.007-32.706-48.032-48.936-72.131
	c-3.652-5.422-8.236-7.809-14.225-4.713c-6.129,3.168-6.746,8.566-4.021,14.407c12.582,26.976,25.177,53.947,37.922,80.847
	C163.307,280.296,168.539,283.573,177.931,283.658z M390.686,421.72c18.124,0,35.104,0,52.25,0
	c17.548-29.166,34.986-58.149,52.461-87.195c-17.8-29.603-35.351-58.791-52.496-87.306c-17.741,0-34.441,0-52.171,0
	c17.708,29.573,34.925,58.325,52.288,87.321C425.626,363.515,408.391,392.225,390.686,421.72z M288.671,334.563
	c-17.414,28.96-34.707,57.72-52.407,87.155c17.859,0,34.85,0,52.248,0c17.428-28.932,34.902-57.94,52.506-87.163
	c-17.673-29.412-35.228-58.627-52.618-87.57c-17.479,0-34.266,0-52.27,0C254.096,276.932,271.385,305.75,288.671,334.563z
	 M313.567,421.607c18.118,0,34.827,0,52.222,0c17.27-28.717,34.694-57.69,52.391-87.119c-17.614-29.302-35.154-58.483-52.56-87.438
	c-17.431,0-34.172,0-52.214,0c17.704,29.53,34.923,58.251,52.442,87.474C348.376,363.629,331.272,392.118,313.567,421.607z"/>
</svg>
