<?xml version="1.0" encoding="iso-8859-1"?>
<!-- Generator: Adobe Illustrator 19.0.0, SVG Export Plug-In . SVG Version: 6.00 Build 0)  -->
<svg version="1.1" id="Layer_1" xmlns="http://www.w3.org/2000/svg" xmlns:xlink="http://www.w3.org/1999/xlink" x="0px" y="0px"
	 viewBox="0 0 2000 2000" style="enable-background:new 0 0 2000 2000;" xml:space="preserve">
<path d="M1604.664,1270.846c-26.189,0-48.814,0-70.063,0c14.841-46.142,31.92-89.556,42.389-134.51
	c10.505-45.108,14.421-91.75,21.474-139.41c126.695,0,254.236,0,381.723,0c20.141,383.112-263.645,861.761-783.875,962.265
	C583.295,2077.622,87.659,1634.874,28.176,1114.979C-40.764,512.438,420.187,34.849,960.171,14.452
	c576.104-21.761,978.608,427.719,1017.077,874.886c-105.555,2.645-210.798,1.377-316.954,0.575
	c-34.192-189.704-129.549-338.019-285.324-445.903c-114.785-79.496-244.123-116.07-383.324-113.638
	c-379.958,6.64-644.595,313.122-654.228,643.353c-9.798,335.888,219.368,605.289,517.123,670.533
	C1222.944,1724.983,1510.056,1500.867,1604.664,1270.846z M456.209,996.811c0.916,309.052,255.293,558.558,573.435,544.226
	c278.061-12.526,522.754-239.772,519.964-550.17c-2.783-309.643-251.156-543.192-546.199-540.572
	C709.779,444.792,455.288,685.821,456.209,996.811z M1095.297,1432.84c-28.217,0-53.665,0-82.687,0c0-44.213,0-86.228,0-131.023
	c-22.557,0-41.574,0-64.444,0c0,43.563,0,85.687,0,128.805c-29.076,6.468-54.287,7.116-83.449-0.832c0-43.482,0-86.453,0-133.078
	c-55.839,0-107.775,0-163.281,0c5.65-34.899,10.611-65.539,15.459-95.484c29.482-6.814,58.247,5.168,86.376-13.862
	c1.51-9.899,5.019-22.44,5.089-34.999c0.612-109.421,0.736-218.846,0.72-328.27c-0.006-39.505-12.39-51.65-52.935-52.761
	c-16.165-0.443-32.353-0.073-52.611-0.073c0-17.411,0-31.193,0-44.975c0-14.008,0-28.016,0-44.766c55.35,0,107.404,0,163.045,0
	c0-44.698,0-86.746,0-131.455c29.096,0,54.612,0,84.967,0c0,42.254,0,84.161,0,127.856c21.809,0,38.899,0,60.368,0
	c0-41.341,0-83.285,0-127.367c29.989,0,55.706,0,85.164,0c0,43.1,0,86.225,0,130.311c25.621,4.545,48.526,6.353,69.928,12.998
	c24.649,7.653,49.485,17.046,71.534,30.214c38.315,22.883,53.95,59.937,56.758,103.812c3.327,52.005-13.121,94.049-57.01,123.991
	c-1.412,0.963-1.507,3.855-2.574,6.853c13.589,5.993,28.336,10.358,40.71,18.382c28.979,18.792,50.822,43.13,59.222,78.577
	c11.78,49.714,7.056,97.759-13.945,143.319c-18.825,40.841-54.357,65.219-96.265,77.54c-33.182,9.755-67.941,14.202-102.066,20.65
	c-8.355,1.578-16.973,1.765-28.073,2.844C1095.297,1344.422,1095.297,1387.438,1095.297,1432.84z M954.81,1201.743
	c48.053-3.539,93.542-5.153,138.499-10.913c23.46-3.006,45.561-13.805,63.273-31.471c18.684-18.634,23.786-40.837,18.621-65.732
	c-6.753-32.55-30.796-48.091-59.643-58.239c-51.542-18.132-104.793-14.143-160.751-13.018
	C954.81,1082.795,954.81,1139.821,954.81,1201.743z M1034.485,935.43c26.625-3.005,52.983-8.448,76.997-23.422
	c41.43-25.832,36.572-97.106-10.221-118.531c-46.861-21.456-96.343-16.057-146.256-16.097c0,55.021,0,105.636,0,158.673
	C982.797,936.053,1008.931,938.314,1034.485,935.43z"/>
</svg>
