<?xml version="1.0" encoding="iso-8859-1"?>
<!-- Generator: Adobe Illustrator 19.0.0, SVG Export Plug-In . SVG Version: 6.00 Build 0)  -->
<svg version="1.1" id="Layer_1" xmlns="http://www.w3.org/2000/svg" xmlns:xlink="http://www.w3.org/1999/xlink" x="0px" y="0px"
	 viewBox="0 0 2000 2000" style="enable-background:new 0 0 2000 2000;" xml:space="preserve">
<path d="M996.416,1974.731C456.356,1976.813,8.28,1534.585,13.833,982.576c5.353-532.197,440.611-970.918,985.146-970.62
	c535.529,0.294,992.882,440.236,981.036,1004.835C1969.092,1537.384,1541.338,1975.882,996.416,1974.731z M996.861,1939.076
	c522.912,5.767,926.531-417.62,947.709-896.053c25.485-575.739-430.075-995.488-938.537-998.464
	C468.938,41.416,47.937,472.133,48.104,997.634C48.266,1508.86,475.31,1948.315,996.861,1939.076z M996.82,83.61
	c501.432-1.507,895.853,398.534,910.797,874.32c17.055,543.001-406.348,921.829-855.439,944.324
	c-564.527,28.278-951.251-414.288-966.486-873.495C67.956,494.164,497.525,80.052,996.82,83.61z M248.94,793.138
	c0,48.342,0,91.92,0,138.748c57.851,0,114.195,0,170.199,0c0,23.716,0,44.084,0,67.336c-57.674,0-113.251,0-170.153,0
	c0,48.312,0,93.675,0,142.487c60.936,0,120.323,0,180.394,0c5.745,28.113,9.9,53.356,16.111,78.082
	c66.881,266.227,242.295,397.543,497.074,417.96c127.062,10.182,254.376-1.221,379.283-29.299
	c48.844-10.979,96.858-25.651,146.336-38.932c0-191.207,0-378.512,0-570.393c-254.83,0-508.823,0-763.276,0
	c0-24.981,0-45.353,0-69.276c255.932,0,509.993,0,763.83,0c0-47.162,0-90.699,0-137.95c-243.836,0-485.848,0-733.333,0
	c45.274-102.17,111.993-173.62,213.795-208.381c121.469-41.477,240.403-22.517,357.864,18.327
	c23.04,8.012,45.527,17.612,70.059,27.178c30.42-73.102,59.521-143.034,88.615-212.951c-4.118-3.155-6.136-5.466-8.677-6.537
	c-93.579-39.448-191.14-64.115-292.228-71.34c-91.453-6.537-182.701-2.904-273.017,17.018
	C707.44,395.882,565.98,492.158,485.005,666.774c-18.51,39.915-31.852,82.226-48.691,126.364
	C375.731,793.138,313.2,793.138,248.94,793.138z M1198.586,1143.318c-162.253,0-322.247,0-483.838,0
	c2.591,10.893,4.431,19.456,6.668,27.913c40.29,152.331,148.678,248.195,311.961,240.028c54.361-2.719,108.7-5.874,165.209-8.947
	C1198.586,1311.103,1198.586,1226.941,1198.586,1143.318z"/>
</svg>
