<?xml version="1.0" encoding="iso-8859-1"?>
<!-- Generator: Adobe Illustrator 19.0.0, SVG Export Plug-In . SVG Version: 6.00 Build 0)  -->
<svg version="1.1" id="Layer_1" xmlns="http://www.w3.org/2000/svg" xmlns:xlink="http://www.w3.org/1999/xlink" x="0px" y="0px"
	 viewBox="0 0 500 500" enable-background="new 0 0 500 500" xml:space="preserve">
<path d="M321.917,23.742c2.483,1.348,4.122,1.881,5.301,2.931c24.033,21.406,37.16,48.401,41.557,80.099
	c5.821,41.959,2.453,83.229-9.002,123.836c-8.054,28.55-19.385,55.771-35.701,80.728c-0.319,0.487-0.498,1.066-1.234,2.684
	c6.429-2.528,11.984-4.859,17.641-6.911c20.281-7.36,41.041-12.41,62.765-12.608c15.851-0.144,31.02,2.503,44.801,10.906
	c18.369,11.201,27.259,28.319,29.911,48.968c3.053,23.772-2.374,46.249-11.66,67.983c-0.309,0.723-0.79,1.394-1.295,2.002
	c-0.224,0.269-0.709,0.321-1.927,0.822c-0.614-2.036-1.392-3.949-1.757-5.938c-2.169-11.85-5.929-23.08-12.372-33.35
	c-8.382-13.361-20.393-19.531-36.155-19.251c-12.009,0.213-23.392,3.096-33.841,8.465c-17.065,8.767-34.079,17.789-50.326,27.964
	c-35.844,22.448-70.749,46.4-107.931,66.686c-21.241,11.59-43.246,21.117-67.334,24.973c-5.749,0.92-11.564,1.758-17.37,1.928
	c-10.523,0.308-21.064,0.201-31.595,0.058c-14.208-0.192-27.611-3.868-40.091-10.51c-16.276-8.663-27.017-22.304-33.525-39.327
	c-1.749-4.575-5.103-8.944-3.118-15.103c1.706,0.867,3.307,1.537,4.762,2.44c18.707,11.615,39.133,16.412,60.917,14.191
	c13.703-1.397,25.252-8.254,35.429-17.335c17.511-15.625,28.793-35.377,37.034-56.991c6.606-17.324,10.504-35.293,11.264-53.876
	c0.032-0.782-0.117-1.572-0.23-2.952c-1.716-0.339-3.414-0.718-5.126-1.006c-38.095-6.41-73.468-19.652-104.636-42.803
	c-18.341-13.623-30.561-32.128-39.38-52.994c-0.311-0.736-0.569-1.533-0.641-2.321c-0.107-1.185-0.028-2.387-0.028-4.701
	c2.165,1.126,3.721,1.723,5.041,2.655c13.651,9.64,28.949,15.327,45.26,18.104c33.961,5.781,68.235,6.851,102.261,2.03
	c63.647-9.018,113.595-46.845,134.356-112.79c9.499-30.173,11.906-61.051,8.469-92.439C322.203,29.05,322.142,27.095,321.917,23.742
	z M123.77,178.807c-13.278,8.902-26.578,17.77-39.82,26.726c-1.623,1.098-2.934,2.658-5.194,4.748
	c2.53,0.568,3.648,1.038,4.766,1.038c23.463-0.006,46.967,0.774,70.38-0.334c26.976-1.277,53.304-6.049,78.106-18.041
	c47.59-23.01,69.928-75.925,51.727-125.577C267.53,23.159,221.095-6.267,170.942,5.492c-65.285,15.307-96.621,92.122-60.884,148.923
	c4.797,7.625,10.85,14.46,16.746,22.218C125.703,177.424,124.757,178.145,123.77,178.807z M241.738,58.047
	c-27.046-25.622-56.467-30.315-89.471-11.418c-1.542-2.011-3.182-4.15-4.812-6.277c25.4-21.145,75.572-18.96,99.934,12.49
	C245.572,54.516,243.716,56.226,241.738,58.047z"/>
</svg>
