<?xml version="1.0" encoding="iso-8859-1"?>
<!-- Generator: Adobe Illustrator 19.0.0, SVG Export Plug-In . SVG Version: 6.00 Build 0)  -->
<svg version="1.1" id="Layer_1" xmlns="http://www.w3.org/2000/svg" xmlns:xlink="http://www.w3.org/1999/xlink" x="0px" y="0px"
	 viewBox="0 0 2000 2000" style="enable-background:new 0 0 2000 2000;" xml:space="preserve">
<path d="M995.258,18.949c517.819-5.948,988.332,423.845,986.474,987.019c-1.848,559.967-462.54,982.061-988.388,977.166
	C463.815,1978.206,8.356,1529.67,20.258,972.286C31.395,450.691,466.857,14.179,995.258,18.949z M1005.494,266.869
	c-395.733-5.209-733.959,316.742-735.808,732.359c-1.854,416.958,326.355,727.591,711.122,735.803
	c399.555,8.528,751.076-313.847,751.207-739.498C1732.147,568.045,1381.637,261.562,1005.494,266.869z M1442.846,783.067
	c-73.01-145.122-185.895-238.898-349.779-258.459c-63.076-7.528-128.767-6.362-191.793,1.976
	c-96.92,12.822-182.059,55.645-251.526,126.655c-88.342,90.305-131.878,199.745-137.671,324.619
	c-9.505,204.915,66.972,370.055,244.539,475.025c135.307,79.988,284.82,84.226,434.224,36.984
	c114.333-36.153,195.41-111.807,249.375-218.239c46.802-92.303,54.434-191.701,58.8-300.542
	c-23.294-5.335-45.607-14.635-68.022-14.886c-127.163-1.428-254.35-0.773-381.529-0.584c-14.532,0.022-29.062,1.554-42.925,2.348
	c-15.415,100.026-8.596,169.375,21.281,202.697c51.841,0,106.092,0,160.768,0c-8.23,45.779-20.306,67.592-47.468,91.312
	c-71.681,62.595-240.151,63.947-307.609-42.909c-45.968-72.815-60.965-150.814-47.992-231.255
	c22.183-137.551,98.653-244.551,262.12-225.326c55.301,6.504,100.045,30.004,130.543,78.02
	c12.864,20.254,26.718,39.88,39.903,59.466c79.052-32.732,152.868-63.296,224.911-93.126
	C1442.995,788.934,1444.039,785.438,1442.846,783.067z"/>
</svg>
