<?xml version="1.0" encoding="utf-8"?>
<!-- Generator: Adobe Illustrator 25.1.0, SVG Export Plug-In . SVG Version: 6.00 Build 0)  -->
<svg version="1.1" id="Layer_1" xmlns="http://www.w3.org/2000/svg" xmlns:xlink="http://www.w3.org/1999/xlink" x="0px" y="0px"
	 viewBox="0 0 500 500" style="enable-background:new 0 0 500 500;" xml:space="preserve">
<path d="M469.1,233.5c0.2,3.3,0.4,5.7,0.4,8.2c0,39.7-0.2,79.4,0.1,119.1c0.1,10.7-4.2,17.8-13.3,23.1
	c-63.3,36.5-126.6,73.1-189.8,109.8c-9,5.3-17.3,4.7-26.1-0.4c-31-18.1-158.6-92.1-191.6-110.8c-9.9-5.6-14.6-12.6-14.5-24.3
	c0.3-72.7,0.3-145.3,0-218c0-10.5,3.9-17.3,12.9-22.5c54.7-31.5,109.3-63.3,164-95c10.1-5.9,20.3-11.8,30.5-17.6
	c9.8-5.6,18.9-3.1,28,2.2c24.5,14.4,140.9,81.7,174.4,101.2c13.3,7.8,13.5,18.4,0.3,26.2c-30.9,18.2-62,36-93,54.1
	c-5.8,3.4-10.9,2.9-16.5-0.3c-24.2-14.1-78.2-45-81.5-46.8c-61.7,35.7-123.3,71.3-186.2,107.7c3.9,2.4,123.5,71.7,180.5,104.7
	c3.6,2.1,6.6,3.1,10.6,0.7c29.8-17.4,91.3-53.3,93-54.7c-6.8-7.5-36.4-39.4-44.6-48.1c-3.5-3.7-6.7-7.6-4.3-13.2
	c2.4-5.5,7.2-6.3,12.4-6.3c49.2,0,98.4,0,147.6,0C464.3,232.7,466.2,233.1,469.1,233.5z"/>
</svg>
