<?xml version="1.0" encoding="iso-8859-1"?>
<!-- Generator: Adobe Illustrator 19.0.0, SVG Export Plug-In . SVG Version: 6.00 Build 0)  -->
<svg version="1.1" id="Layer_1" xmlns="http://www.w3.org/2000/svg" xmlns:xlink="http://www.w3.org/1999/xlink" x="0px" y="0px"
	 viewBox="0 0 500 500" enable-background="new 0 0 500 500" xml:space="preserve">
<path d="M466.122,371.195c-71.051,41.026-142.135,82.07-213.559,123.311c-71.077-41.03-142.145-82.055-213.668-123.342
	c0-81.836,0-164.203,0-247.179C109.953,83.073,181.198,42.054,252.503,1c70.992,40.857,142.066,81.761,213.619,122.941
	C466.122,205.691,466.122,288.072,466.122,371.195z M252.553,482.237c67.989-39.254,135.818-78.416,203.528-117.509
	c-0.037-78.534,0.059-156.652-0.086-234.577c-1.682-1.044-2.792-1.776-3.943-2.439c-16.216-9.346-32.461-18.641-48.652-28.03
	c-48.726-28.255-97.447-56.519-146.109-84.884c-3.344-1.949-5.949-2.08-9.354-0.079c-30.459,17.902-60.978,35.703-91.551,53.411
	c-33.999,19.692-68.074,39.251-102.108,58.881c-1.759,1.015-3.446,2.154-5.093,3.189c0,78.435,0,156.462,0,234.624
	C116.903,403.921,184.657,443.038,252.553,482.237z M322.284,308.103c-3.13,2.777-5.532,5.1-8.129,7.18
	c-16.417,13.155-34.246,24.162-52.494,34.551c-21.565,12.277-43.178,24.478-64.518,37.138c-12.564,7.454-24.5,15.924-35.574,25.526
	c-0.264,0.229-0.614,0.357-0.985,0.566c-32.425-18.723-64.843-37.442-97.19-56.12c0-73.011,0-145.798,0-218.806
	c32.629-18.839,65.148-37.615,97.422-56.25c10.389,7.531,20.464,14.835,30.303,21.966c17.243-9.971,34.055-19.693,50.934-29.454
	c-10.847-6.707-21.673-13.401-32.957-20.378c14.815-8.462,29.02-16.576,43.443-24.815c14.335,8.186,28.538,16.297,43.287,24.72
	c-6.249,3.961-11.937,7.836-17.875,11.278c-18.702,10.843-37.521,21.485-56.253,32.277c-16.969,9.776-33.666,19.979-49.292,31.843
	c-18.173,13.798-34.428,29.406-46.497,48.991c-8.625,13.996-14.364,29.04-17.173,45.289c-1.787,10.338-2.597,20.717-2.004,31.121
	c1.514,26.53,9.965,50.644,26.112,71.921c9.878,13.016,21.327,24.466,34.336,34.328c7.011,5.315,14.206,10.389,21.34,15.541
	c0.957,0.691,2.045,1.201,2.845,1.664c16.972-9.72,33.677-19.286,50.601-28.979c-4.935-3.006-9.72-5.995-14.576-8.864
	c-12.676-7.488-24.939-15.602-36.296-24.968c-11.074-9.133-21.095-19.286-28.031-32.084c-4.401-8.121-7.207-16.689-8.366-25.921
	c-2.741-21.828,3.102-41.024,16.663-58.163c10.275-12.986,23.033-23.145,36.493-32.476c20.756-14.39,42.928-26.448,64.927-38.774
	c20.041-11.229,39.947-22.668,58.412-36.418c4.173-3.108,8.254-6.338,12.777-9.819c32.369,18.686,64.909,37.47,97.673,56.384
	c0,72.862,0,145.655,0,218.875c-32.111,18.544-64.535,37.27-96.79,55.897c-10.335-7.556-20.636-15.087-30.566-22.347
	c-17.335,9.971-34.071,19.598-50.966,29.316c11.155,6.892,22.074,13.638,33.533,20.718c-15.048,8.696-29.511,17.054-44.289,25.594
	c-14.564-8.408-29.12-16.812-44.25-25.547c9.161-5.702,17.668-11.324,26.479-16.418c21.989-12.711,44.174-25.082,66.166-37.787
	c13.471-7.782,26.312-16.565,38.407-26.35c16.571-13.407,31.334-28.519,41.991-47.192c7.377-12.926,12.68-26.656,14.912-41.455
	c0.774-5.133,1.432-10.282,2.138-15.384c-2.676-0.898-142.643-1.198-147.979-0.324c-9.886,17.176-19.89,34.558-30.163,52.406
	C254.382,308.103,287.871,308.103,322.284,308.103z M313.62,115.967c-17.037,9.808-33.785,19.45-50.772,29.229
	c4.845,2.881,9.449,5.513,13.949,8.312c19.122,11.896,37.95,24.172,53.12,41.181c7.221,8.097,13.063,17.015,16.754,27.265
	c0.77,2.138,1.478,4.298,2.217,6.457c16.053,0,31.935,0,48.23,0c-0.286-1.621-0.559-2.996-0.769-4.38
	c-2.579-16.932-8.806-32.503-17.932-46.896c-8.025-12.656-17.795-23.857-28.966-33.89
	C338.256,133.193,326.259,124.251,313.62,115.967z"/>
</svg>
