<?xml version="1.0" encoding="iso-8859-1"?>
<!-- Generator: Adobe Illustrator 19.0.0, SVG Export Plug-In . SVG Version: 6.00 Build 0)  -->
<svg version="1.1" id="Layer_1" xmlns="http://www.w3.org/2000/svg" xmlns:xlink="http://www.w3.org/1999/xlink" x="0px" y="0px"
	 viewBox="0 0 2000 2000" style="enable-background:new 0 0 2000 2000;" xml:space="preserve">
<path d="M999.618,1981.866c-551.119-14.42-983.116-430.238-982.683-985.925c0.434-557.082,434.144-982.639,983.887-981.475
	c549.471,1.163,979.065,426.271,980.244,980.227C1982.245,1548.98,1552.158,1966.583,999.618,1981.866z M1090.41,1314.384
	c-60.37,44.351-124.848,54.866-191.071,49.912c-89.731-6.713-140.357-59.286-143.942-149.908
	c-1.663-42.055,7.435-84.548,11.833-126.823c1.38-13.263,3.342-26.466,5.748-45.247c-79.925,28.163-152.093,53.593-221.603,78.086
	c-34.633,195.309,60.175,358.923,234.911,394.125c190.412,38.359,359.774-13.699,504.917-142.316
	c26.277-128.598,52.052-254.738,78.084-382.138c-129.882,0-253.609,0-378.762,0c-8.831,47.401-17.029,91.406-26.317,141.256
	c58.143,0,108.395,0,163.84,0C1114.829,1195.625,1102.744,1254.397,1090.41,1314.384z M1397.137,802.034
	c38.42-134.939-42.369-277.798-179.566-316.462c-119.723-33.74-237.817-24.428-349.133,30.701
	c-112.113,55.523-191.787,142.593-237.982,266.169c69.461,13.651,132.861,26.112,195.89,38.499
	c39.347-83.328,85.567-157.535,173.931-182.352c115.829-32.53,191.383,5.927,201.677,121.193c1.251,14.001,4.01,27.867,6.137,42.252
	C1274.076,802.034,1335.922,802.034,1397.137,802.034z M801.935,947.961c-1.485-7.06-2.97-14.12-4.455-21.18
	c-66.252-11.626-132.503-23.251-200.926-35.258c-9.328,47.788-17.327,88.77-26.789,137.242
	C652.481,999.976,727.208,973.968,801.935,947.961z"/>
</svg>
