<?xml version="1.0" encoding="iso-8859-1"?>
<!-- Generator: Adobe Illustrator 19.0.0, SVG Export Plug-In . SVG Version: 6.00 Build 0)  -->
<svg version="1.1" id="Layer_1" xmlns="http://www.w3.org/2000/svg" xmlns:xlink="http://www.w3.org/1999/xlink" x="0px" y="0px"
	 viewBox="0 0 500 500" enable-background="new 0 0 500 500" xml:space="preserve">
<path d="M156.674,200.598c16.31,0,32.331-0.186,48.343,0.104c5.342,0.097,10.805,0.878,15.97,2.256
	c27.035,7.214,40.781,34.949,30.494,61.042c-3.45,8.752-9.367,15.399-17.325,20.304c-1.451,0.895-2.908,1.781-4.667,2.858
	c9.681,13.995,19.165,27.705,29.035,41.974c-10.306,0-19.928,0-29.918,0c-8.104-11.883-16.335-23.951-24.655-36.15
	c-7.17,0-14.262,0-21.968,0c0,11.923,0,23.839,0,36.124c-8.698,0-16.799,0-25.308,0
	C156.674,286.608,156.674,244.006,156.674,200.598z M182.007,269.796c8.715,0,16.952,0.661,25.04-0.153
	c12.516-1.26,20.716-10.118,21.095-21.405c0.434-12.91-6.553-22.342-19.481-24.395c-8.652-1.374-17.572-1.061-26.653-1.517
	C182.007,238.711,182.007,254.139,182.007,269.796z M65.045,306.413c-18.934-3.58-32.034-18.784-33.471-38.897
	c-1.34-18.754,9.501-35.59,27.504-40.9c6.843-2.018,14.397-2.301,21.612-2.21c8.778,0.111,16.966,3.305,24.964,7.995
	c3.657-6.597,7.164-12.922,10.839-19.551c-2.31-1.379-4.169-2.656-6.167-3.655c-17.377-8.683-35.638-10.403-54.434-6.271
	c-27.704,6.091-47.605,29.062-49.691,56.916c-2.183,29.153,13.479,54.856,40.349,64.802c22.397,8.29,44.491,6.351,65.782-4.36
	c3.05-1.534,5.802-3.66,8.055-5.105c0-17.084,0-33.21,0-49.223c-7.814,0-15.196,0-22.98,0c0,12.414,0,24.395,0,36.68
	C86.506,307.15,75.98,308.481,65.045,306.413z M412.141,328.942c15.868-0.754,30.293-6.561,41.526-18.439
	c11.761-12.436,15.588-27.396,13.711-44.549c-6.833,0-13.257-0.015-19.68,0.016c-1.001,0.005-2,0.222-3.365,0.384
	c-0.181,2.061-0.408,3.932-0.501,5.809c-0.917,18.504-9.678,29.919-27.991,33.024c-11.719,1.987-23.909,1.2-35.888,1.622
	c-0.263,0.009-0.541-0.389-0.756-0.555c0-27.684,0-55.32,0-83.464c7.771,0,15.19,0,22.875,0c0-7.57,0-14.628,0-21.88
	c-16.236,0-32.158,0-48.28,0c0,42.832,0,85.322,0,128.25C373.526,329.159,392.872,329.857,412.141,328.942z M290.017,200.992
	c0,43.024,0,85.62,0,128.101c8.49,0,16.576,0,24.671,0c0-42.88,0-85.362,0-128.101C306.04,200.992,297.957,200.992,290.017,200.992z
	 M467.695,250.514c0-9.531,0-18.676,0-28.405c9.71,0,18.854,0,27.91,0c0-7.328,0-14.041,0-21.339c-9.458,0-18.59,0-28.28,0
	c0-9.72,0-18.859,0-27.905c-7.293,0-13.997,0-21.312,0c0,9.505,0,18.633,0,28.312c-9.762,0-18.91,0-28.007,0
	c0,7.278,0,13.963,0,21.268c9.522,0,18.664,0,28.336,0c0,5.119,0,9.615,0,14.112c0,4.517,0,9.033,0,13.958
	C453.779,250.514,460.452,250.514,467.695,250.514z"/>
</svg>
