<?xml version="1.0" encoding="iso-8859-1"?>
<!-- Generator: Adobe Illustrator 19.0.0, SVG Export Plug-In . SVG Version: 6.00 Build 0)  -->
<svg version="1.1" id="Layer_1" xmlns="http://www.w3.org/2000/svg" xmlns:xlink="http://www.w3.org/1999/xlink" x="0px" y="0px"
	 viewBox="0 0 2000 2000" style="enable-background:new 0 0 2000 2000;" xml:space="preserve">
<path d="M1974.829,1003.431c-0.3,209.56-62.93,409.251-196.064,581.654c-198.143,256.586-461.804,390.029-788.089,390.672
	c-238.534,0.47-451.025-79.635-629.069-235.228C123.644,1532.573,8.967,1265.073,21.903,948.235
	c7.839-192.006,70.198-368.864,186.023-522.485C415.362,150.623,693.973,16.047,1038.943,23.218
	c105.585,2.195,208.273,25.03,306.616,63.423c191.208,74.647,346.626,195.886,461.528,366.461
	C1917.084,616.394,1972.754,797.277,1974.829,1003.431z M885.393,456.51c-17.198,1.584-30.089,3.853-42.963,3.757
	c-40.35-0.3-79.251,8.586-116.7,21.53c-63.783,22.047-121.161,56.104-171.235,101.775
	c-57.439,52.388-99.106,115.953-128.088,187.465c-26.492,65.368-42.357,133.048-36.383,204.714
	c2.491,29.877,6.263,59.209,14.841,87.933c14.993,50.208,40.171,95.23,68.151,139.209c32.696,51.391,68.157,100.48,111.415,143.436
	c37.634,37.371,75.884,74.153,114.751,110.238c24.497,22.743,49.495,45.253,76.301,65.126c38.18,28.306,80.668,49.43,125.377,65.781
	c37.351,13.661,75.462,23.133,115.327,27.378c44.915,4.782,89.244,3.459,133.004-6.003c31.74-6.863,63.895-14.566,93.668-27.111
	c44.16-18.606,87.566-39.986,123.111-73.5c24.898-23.475,51.106-45.997,73.094-72.017c29.654-35.091,52.267-75.141,71.276-117.25
	c23.721-52.547,39.095-107.257,43.637-164.548c3.075-38.788-1.515-77.433-11.474-115.175c-12.28-46.536-17.498-94.12-18.074-141.919
	c-0.51-42.254,1.862-84.632,4.962-126.808c2.151-29.271,5.239-58.911,12.373-87.262c8.106-32.214,21.193-63.173,32.102-94.683
	c9.572-27.649,17.599-55.965,29.177-82.746c9.091-21.027,14.833-41.56,12.092-64.442c-3.383-28.245-23.69-48.464-51.846-46.172
	c-24.122,1.963-48.576,6.33-71.614,13.637c-34.887,11.066-68.166,27.227-103.087,38.155c-27.829,8.709-56.883,14.164-85.766,18.687
	c-44.209,6.923-88.613,13.314-133.177,16.981c-27.016,2.223-54.62,0.282-81.726-2.275c-41.304-3.896-82.389-10.078-123.597-15.039
	C936.699,462.039,909.024,459.147,885.393,456.51z M1537.786,343.713c-196.155-155.391-416.288-218.218-660.814-183.547
	c-244.798,34.709-439.47,156.809-579.706,360.235C168.12,707.742,123.844,917.207,161.005,1140.805
	c39.368,236.88,161.878,425.128,359.442,560.606c186.506,127.896,395.085,171.525,617.909,134.898
	c214.778-35.305,391.675-140.391,525.945-311.463c155.031-197.523,209.801-423.632,170.03-670.576
	c-22.367-138.878-79.027-264.861-167.783-377.076c-2.116,4.807-3.573,8.097-5.015,11.394
	c-14.487,33.138-33.075,65.296-26.172,103.76c3.537,19.711,4.373,39.412,14.646,58.288c32.929,60.501,56.402,124.894,71.117,192.278
	c9.523,43.611,14.489,87.851,15.315,132.473c0.829,44.822-0.62,89.489-7.278,134.009c-6.866,45.907-17.244,90.89-33.148,134.384
	c-15.021,41.077-32.825,80.822-54.561,119.152c-23.401,41.268-48.854,81.108-80.5,115.847
	c-33.462,36.733-70.307,70.695-108.039,103.116c-24.949,21.438-53.909,38.26-81.438,56.601c-5.984,3.987-13.523,5.639-19.958,8.212
	c-2.503,2.354-4.68,5.313-7.598,6.965c-7.133,4.038-14.483,7.753-21.967,11.105c-52.421,23.482-105.592,44.276-162.182,56.393
	c-52.068,11.148-104.341,17.422-157.453,17.015c-21.345-0.164-42.842-0.217-63.986-2.716c-37.781-4.465-75.739-8.891-112.907-16.73
	c-49.279-10.394-96.038-28.811-141.929-49.893c-56.647-26.023-108.536-59.26-156.134-98.947
	c-40.185-33.506-77.868-69.656-110.005-111.556c-40.351-52.609-74.451-108.583-100.401-169.558
	c-19.786-46.493-36.264-94.058-43.591-144.23c-5.572-38.152-11.876-76.387-14.023-114.8c-2.568-45.95-1.283-92.145,7.05-137.745
	c5.044-27.601,8.045-55.818,15.907-82.6c10.181-34.68,24.162-68.255,36.74-102.219c18.959-51.195,47.717-97.17,79.071-141.237
	c35.631-50.078,77.581-94.665,125.307-133.848c43.99-36.115,90.907-67.517,141.597-93.228
	c49.117-24.913,100.487-43.629,154.016-57.061c52.34-13.134,105.278-20.431,159.083-21.043c28.1-0.319,56.247,1.035,84.33,2.485
	c18.271,0.943,36.759,1.942,54.624,5.531c31.497,6.328,62.955,13.413,93.775,22.422c51.681,15.106,101.579,35.302,147.715,63.208
	c21.748,13.154,44.659,19.879,69.079,19.438c15.284-0.276,30.67-5.457,45.646-9.714
	C1494.253,358.185,1514.887,351.033,1537.786,343.713z M1447.825,550.544c-31.723,14.549-63.384,29.233-95.125,43.743
	c-57.424,26.25-115.08,52.001-172.282,78.726c-43.984,20.549-87.613,41.882-131.041,63.586
	c-40.948,20.465-82.022,40.807-121.935,63.175c-36.402,20.4-71.467,42.942-104.613,68.81
	c-47.506,37.075-88.734,79.747-120.687,130.363c-42.706,67.651-69.116,140.637-58.633,222.665
	c3.941,30.835,13.268,60.024,35.615,82.734c32.427,32.954,74.856,42.546,118.683,46.474c21.535,1.93,43.415,1.027,65.084,0.11
	c16.572-0.702,33.755-1.096,49.432-5.769c30.605-9.123,60.856-19.926,90.32-32.262c40.39-16.91,73.396-45.136,101.34-77.91
	c21.882-25.665,40.661-54.324,58.271-83.206c32.125-52.689,63.356-105.984,93.048-160.076
	c20.649-37.619,38.437-76.834,56.901-115.622c25.161-52.856,50.866-105.498,74.271-159.133
	c24.028-55.065,45.567-111.215,68.878-168.57C1451.602,549.437,1449.595,549.732,1447.825,550.544z M537.154,1087.759
	c16.04-31.974,30.434-64.909,48.454-95.724c27.737-47.431,57.298-93.62,91.219-137.302c39.606-51.004,86.595-92.424,142.008-124.167
	c55.167-31.602,111.602-61.009,167.729-90.913c28.249-15.051,57.047-29.069,86.048-43.783
	c-50.515-17.564-102.036-25.4-154.13-28.827c-38.791-2.551-77.358,1.667-115.499,9.724c-36.602,7.732-71.482,19.764-103.655,39.044
	c-48.42,29.016-88.715,67.112-123.726,111.093c-43.791,55.01-72.456,116.839-78.523,187.155
	c-5.391,62.472,6.099,122.497,36.663,179.393C535.495,1090.542,536.43,1089.203,537.154,1087.759z M948.448,1491.972
	c50.104,16.698,101.697,20.7,154.054,13.538c52.937-7.24,101.049-27.416,145.16-56.804c22.312-14.865,43.372-31.734,64.19-48.689
	c33.338-27.151,62.705-58.37,85.421-94.892c30.1-48.395,40.469-102.742,43.158-158.845c2.49-51.96-5.161-102.991-15.434-153.653
	c-3.652-18.01-9.405-35.593-14.767-55.481c-9.304,18.318-17.328,34.265-25.484,50.143c-21.697,42.239-42.904,84.742-65.374,126.567
	c-15.267,28.417-31.155,56.647-48.926,83.531c-18.698,28.286-37.814,56.859-60.695,81.667
	c-25.189,27.311-54.12,51.379-82.783,75.223c-36.69,30.523-78.32,53.724-121.945,72.558
	c-35.443,15.302-72.271,27.395-109.491,41.286C913.065,1476.146,930.151,1485.875,948.448,1491.972z"/>
</svg>
