<?xml version="1.0" encoding="iso-8859-1"?>
<!-- Generator: Adobe Illustrator 19.0.0, SVG Export Plug-In . SVG Version: 6.00 Build 0)  -->
<svg version="1.1" id="Layer_1" xmlns="http://www.w3.org/2000/svg" xmlns:xlink="http://www.w3.org/1999/xlink" x="0px" y="0px"
	 viewBox="0 0 2000 2000" style="enable-background:new 0 0 2000 2000;" xml:space="preserve">
<path d="M1005.489,154.621c86.818,271.647,173.637,543.295,260.782,815.966c-88.778,96.672-175.258,190.842-266.438,290.129
	c-85.619-103.718-167.094-202.415-249.344-302.052c81.148-269.619,161.592-536.899,242.036-804.18
	C996.846,154.53,1001.168,154.575,1005.489,154.621z M1881.213,741.542c-6.602,3.15-14.007,5.252-19.691,9.603
	c-168.664,129.113-337.437,258.089-505.109,388.48c-12.485,9.709-22.774,29.347-24.047,45.177
	c-6.511,80.947-9.91,162.15-13.875,243.289c-0.522,10.692,1.95,21.53,3.597,37.867c100.546-26.401,195.893-51.437,290.5-76.278
	c93.177-216.718,184.855-429.949,276.532-643.181C1886.484,744.846,1883.849,743.194,1881.213,741.542z M121.245,709.767
	c4.043,12.951,7.11,26.306,12.275,38.793c67.446,163.059,138.55,324.713,201.369,489.528
	c29.237,76.708,66.326,134.316,153.82,143.75c3.644,0.393,6.933,3.374,10.574,4.589c56.983,19.003,113.996,37.914,176.166,58.561
	c0-108.953,0-210.164,0-309.913c-183.739-145.1-364.877-288.146-546.014-431.192C126.704,705.844,123.974,707.806,121.245,709.767z
	 M993.82,1364.447c-77.812-87.959-155.329-175.585-232.845-263.211c-3.636,2.311-7.272,4.622-10.907,6.933
	c82.237,218.728,164.474,437.456,246.711,656.185c4.342-0.668,8.683-1.336,13.025-2.005
	c80.222-212.278,160.444-424.556,243.412-644.1C1162.732,1204.128,1079.016,1283.585,993.82,1364.447z M1985.015,1584.538
	c-13.06-9.881-23.756-11.265-34.388-10.872c-139.157,5.146-278.35,9.697-417.396,17.022c-16.105,0.849-34.823,14.378-46.389,27.333
	c-33.336,37.338-63.827,77.235-94.962,116.503c-6.652,8.389-11.302,18.365-19.385,31.774
	c66.943,26.288,128.872,50.608,193.96,76.168C1707.87,1755.323,1846.442,1669.93,1985.015,1584.538z M12.574,1582.547
	c10.171,7.353,19.863,15.505,30.587,21.936c104.737,62.817,210.709,123.663,313.974,188.804
	c40.165,25.336,75.738,35.521,121.479,15.71c45.229-19.59,93.648-31.816,148.108-49.719
	c-37.307-52.886-67.687-100.373-103.088-143.763c-12.572-15.409-37.001-28.696-56.623-29.586
	c-137.78-6.247-275.718-9.026-413.608-12.823c-12.481-0.344-24.979-0.046-37.469-0.046
	C14.814,1576.223,13.694,1579.385,12.574,1582.547z M1060.919,1800.846c149.458-100.902,298.916-201.805,448.374-302.707
	c-2.186-4.109-4.372-8.218-6.557-12.327c-80.139,18.182-160.278,36.364-242.624,55.047c0-95.08,0-181.145,0-267.211
	c-3.423-0.879-6.846-1.759-10.269-2.638c-66.323,173.875-132.646,347.75-198.969,521.625
	C1054.221,1795.372,1057.57,1798.109,1060.919,1800.846z M470.057,1455.747c151.115,109.292,302.229,218.584,453.343,327.876
	c3.75-3.082,7.501-6.163,11.251-9.245c-59.229-171.149-118.457-342.297-177.686-513.446c-5.568,0.741-11.136,1.482-16.705,2.223
	c0,83.838,0,167.676,0,260.937c-95.657-28.697-180.33-54.099-265.002-79.5C473.525,1448.31,471.791,1452.029,470.057,1455.747z
	 M903.74,1832.723c-97.946-67.035-195.893-134.07-293.839-201.106c-2.623,3.008-5.247,6.017-7.87,9.025
	c28.127,44.808,56.255,89.616,87,138.594c-59.073,21.781-110.712,40.821-162.351,59.861c0.933,2.307,1.866,4.615,2.799,6.922
	c123.482,0,246.964,0,370.446,0C901.196,1841.587,902.468,1837.155,903.74,1832.723z M1100.068,1855.476
	c118.022,0,236.045,0,354.067,0c0.83-1.699,1.66-3.398,2.49-5.096c-48.194-21.604-96.387-43.208-150.667-67.539
	c37.287-49.941,71.092-95.219,104.898-140.497c-2.936-3.203-5.871-6.406-8.807-9.609
	c-102.493,69.137-204.985,138.274-307.478,207.411C1096.404,1845.256,1098.236,1850.366,1100.068,1855.476z"/>
</svg>
