<?xml version="1.0" encoding="iso-8859-1"?>
<!-- Generator: Adobe Illustrator 19.0.0, SVG Export Plug-In . SVG Version: 6.00 Build 0)  -->
<svg version="1.1" id="Layer_1" xmlns="http://www.w3.org/2000/svg" xmlns:xlink="http://www.w3.org/1999/xlink" x="0px" y="0px"
	 viewBox="0 0 2000 2000" style="enable-background:new 0 0 2000 2000;" xml:space="preserve">
<path d="M1930.391,747.399c-90.862,0-178.463,0-265.663,0c-156.694-356.827-535.523-467.572-815.677-371.881
	c-302.344,103.27-457.265,392.52-445.99,621.705c15.832,0,31.777,0,51.424,0c6.051-181.873,74.735-335.337,212.707-454.701
	c97.998-84.781,213.289-131.005,342.24-142.489c241.839-21.538,492.279,124.844,587.833,345.897c-44.811,0-88.277,0-132.823,0
	c-157.466-233.863-414.448-262.004-585.854-190.889c-108.193,44.888-190.859,118.878-245.884,222.536
	c-54.339,102.365-65.438,211.455-44.713,326.358c-180.233,0-357.575,0-538.994,0c-8.113-32.464-16.482-65.952-25.962-103.884
	c40.595,0,77.536,0,117.742,0c11.158-302.01,129.018-548.632,367.759-731.429c167.068-127.919,357.981-187.4,569.08-183.34
	C1521.757,93.823,1846.082,419.893,1930.391,747.399z M1177.287,1909.224c473.212-63.272,743.487-456.401,776.764-759.788
	c-345.211,0-690.292,0-1039.287,0c9.141,36.953,17.463,70.598,26.531,107.258c172.401,0,342.344,0,519.024,0
	c-75.702,114.783-174.609,187.168-301.359,212.889c-190.076,38.571-349.533-22.052-473.806-165.346c-49.287,0-94.524,0-140.763,0
	c56.244,124.498,227.271,272.915,436.302,293.78c281.332,28.082,485.135-94.737,621.531-339.616c17.48,0,35.592,0,59.616,0
	c-106.655,223.766-275.597,364.061-517.155,393.692c-298.131,36.572-520.948-91.695-673.463-348.884c-89.574,0-179.914,0-273,0
	C314.317,1664.584,704.24,1972.473,1177.287,1909.224z M1978.147,1102.584c0-35.458,0-67.831,0-101.868
	c-375.849,0-750.431,0-1128.629,0c8.526,35.863,16.521,69.495,24.218,101.868
	C1243.294,1102.584,1609.335,1102.584,1978.147,1102.584z M647.369,1254.315c-17.225-37.607-33.052-72.162-48.308-105.471
	c-172.417,0-342.555,0-516.26,0c9.098,36.346,17.522,69.998,26.402,105.471C288.917,1254.315,466.741,1254.315,647.369,1254.315z"/>
</svg>
