<?xml version="1.0" encoding="iso-8859-1"?>
<!-- Generator: Adobe Illustrator 19.0.0, SVG Export Plug-In . SVG Version: 6.00 Build 0)  -->
<svg version="1.1" id="Layer_1" xmlns="http://www.w3.org/2000/svg" xmlns:xlink="http://www.w3.org/1999/xlink" x="0px" y="0px"
	 viewBox="0 0 500 500" style="enable-background:new 0 0 500 500;" xml:space="preserve">
<path d="M311.483,172.639c-0.703-0.319-1.409-0.566-2.042-0.938c-14.579-8.569-30.316-13.285-47.144-14.925
	c-17.249-1.681-34.277-0.762-50.648,4.843c-31.145,10.664-52.702,31.343-63.071,62.977c-3.265,9.962-4.004,20.291-3.414,30.675
	c1.831,32.243,17.095,56.166,45.084,72.091c1.034,0.588,2.076,1.162,3.104,1.76c0.115,0.067,0.164,0.246,0.383,0.599
	c-2.646,2.3-5.441,4.517-7.99,6.986c-7.652,7.414-15.377,14.765-22.745,22.455c-5.556,5.8-9.394,12.83-12.026,20.408
	c-1.879,5.409-2.981,10.943-1.376,16.753c1.195,4.325,3.136,8.213,6.454,11.115c4.504,3.939,9.325,7.52,14.074,11.171
	c1.645,1.265,3.48,2.285,5.52,3.605c-12.851,14.305-27.291,26.849-38.404,42.993c-35.935-19.014-65.383-45.089-88.172-78.579
	C20.537,344.694,6.331,298.182,7.011,247.539C7.89,182.132,31.415,125.616,77.255,79c38.399-39.048,85.207-62.546,139.567-69.764
	C342.671-7.475,449.307,71.541,481.931,177.819c33.421,108.877-12.999,219.262-97.586,274.114c-1.256-1.571-0.703-3.426-0.687-5.094
	c0.077-8.107-1.705-15.792-5.265-23.027c-7.133-14.491-18.915-23.789-33.726-29.488c-8.582-3.302-17.578-4.915-26.725-5.602
	c-11.66-0.876-23.318-1.86-34.996-2.387c-14.99-0.676-30.012-0.699-44.996-1.472c-10.46-0.54-21.012-0.319-31.343-2.473
	c-3.353-0.699-6.788-1.422-9.884-2.807c-2.513-1.124-4.838-3.001-6.776-5.001c-3.015-3.111-3.798-6.937-2.641-11.259
	c1.34-5.006,3.354-9.723,6.615-13.656c3.82-4.608,8.199-8.751,12.313-13.117c1.285-1.364,2.692-1.426,4.475-1.045
	c7.168,1.531,14.32,3.349,21.579,4.178c7.562,0.863,15.183,1.333,22.887,0.723c7.937-0.628,15.835-1.276,23.588-3.077
	c24.595-5.714,44.266-18.746,58.26-39.888c8.649-13.067,12.856-27.525,13.032-43.258c0.127-11.343-0.814-22.501-4.626-33.208
	c-2.048-5.752-4.87-11.229-7.52-17.231c4.088-0.033,8.343-0.08,12.599-0.097c4.207-0.017,8.415-0.004,12.623-0.004
	c4.335,0,8.669,0,13.23,0c4.278-12.398,8.451-24.494,12.659-36.689c-2.066-1.045-3.474-0.913-4.64,0.711
	c-0.612,0.852-1.269,1.672-1.926,2.491c-3.809,4.746-8.976,7.319-14.838,7.444c-16.516,0.35-33.042,0.24-49.564,0.291
	c-0.258,0.001-0.517-0.256-1.006-0.514c5.213-5.465,10.47-10.796,15.524-16.314c10.441-11.399,21.49-22.275,30.566-34.864
	c6.422-8.908,12.2-18.195,15.22-28.887c2.901-10.272,3.149-20.493-2.165-30.113c-6.92-12.529-17.5-19.723-31.9-21.317
	c-5.005-0.554-9.927-0.405-14.74,0.65c-15.969,3.501-25.219,14.112-29.981,29.192c-0.809,2.561-1.312,5.224-1.858,7.861
	c-0.174,0.842-0.027,1.75-0.027,2.854c1.173,0,2.162,0,3.392,0c1.029-2.169,2.005-4.506,3.211-6.717
	c4.769-8.742,11.794-14.652,21.663-16.827c18.644-4.11,31.357,8.205,34.747,21.482c2.088,8.179,1.234,16.339-1.312,24.363
	c-3.358,10.58-9.031,19.886-15.644,28.668c-9.242,12.27-19.863,23.309-30.759,34.093C312.563,171.914,312.04,172.22,311.483,172.639
	z M297.538,228.414c-2.346-12.298-6.471-23.979-13.35-34.572c-9.117-14.04-21.336-22.948-38.632-23.535
	c-12.772-0.433-23.763,3.613-33.09,12.528c-8.727,8.34-13.369,18.688-15.72,30.212c-2.408,11.804-3.229,23.755-1.988,35.768
	c0.799,7.739,1.416,15.547,2.985,23.145c2.977,14.415,8.691,27.629,18.54,38.909c13.25,15.175,34.574,19.566,52.506,12.26
	c13.834-5.636,22.444-16.176,26.986-30.145c3.603-11.082,4.74-22.549,4.571-34.164C300.521,248.582,299.45,238.436,297.538,228.414z
	 M362.753,457.988c-0.187-7.46-3.373-13.351-9.863-17.09c-3.08-1.774-6.439-3.232-9.847-4.236c-9.673-2.851-19.708-3.805-29.7-4.463
	c-13.903-0.914-27.845-1.231-41.77-1.789c-10.185-0.408-20.388-0.547-30.553-1.243c-13.744-0.941-27.46-2.28-41.184-3.498
	c-2.812-0.249-5.605-0.716-8.214-1.057c-7.467,7.645-13.765,15.643-19.069,24.403c-3.993,6.596-6.944,13.609-7.931,21.332
	c-0.302,2.363-0.739,4.748,0.494,7.537c67.35,23.372,133.1,19.567,197.372-12.452C362.591,462.751,362.812,460.366,362.753,457.988z
	"/>
</svg>
