<?xml version="1.0" encoding="iso-8859-1"?>
<!-- Generator: Adobe Illustrator 19.0.0, SVG Export Plug-In . SVG Version: 6.00 Build 0)  -->
<svg version="1.1" id="Layer_1" xmlns="http://www.w3.org/2000/svg" xmlns:xlink="http://www.w3.org/1999/xlink" x="0px" y="0px"
	 viewBox="0 0 2000 2000" style="enable-background:new 0 0 2000 2000;" xml:space="preserve">
<path d="M1603.872,903.602c-21.058,0-33.104,0-45.15,0c-178.837,0-357.716,2.256-536.49-1.099
	c-72.624-1.363-122.532,64.012-121.483,115.626c1.279,62.99,55.088,115.995,122.149,116.304
	c100.735,0.463,201.474,0.112,302.211,0.235c5.302,0.006,10.602,1.195,28.071,3.299c-30.685,44.163-53.195,86.514-84.801,120.376
	c-162.932,174.571-479.367,153.416-599.904-86.176c-69.341-137.827-61.502-270.454,24.925-393.748
	c69.531-99.19,169.336-158.765,294.125-159.525c297.673-1.812,595.373,0.562,893.043-1.469
	c66.388-0.453,99.023,42.376,100.089,99.201c1.718,91.65,3.401,183.471-0.192,275.012
	c-6.164,157.042-37.753,308.642-111.834,449.103c-112.971,214.201-279.041,369.289-503.217,465.121
	c-150.765,64.45-307.472,83.188-466.667,69.113c-190.787-16.87-362.643-88.913-513.468-209.981
	c-117.962-94.688-210.636-208.908-274.769-345.157c-44.491-94.52-74.469-193.57-86.657-298.72
	C0.15,916.636,32.261,722.47,128.721,541.636c65.611-123.001,155.736-226.861,267.116-313.859
	C510.186,138.461,637.589,79.72,775.9,43.586c54.445-14.224,112.14-21.399,168.476-22.1c333.466-4.152,666.967-5.523,1000.458-7.456
	c12.158-0.07,24.339,3.752,35.4,5.578c-7.509,84.78-28.448,158.84-77.777,222.166c-57.845,74.258-132.983,121.911-226.03,138.232
	c-31.814,5.58-64.689,6.945-97.09,7.049c-193.549,0.619-387.104-0.352-580.652,0.52c-148.338,0.668-277.575,51.624-391.719,146.877
	c-112.911,94.224-181.863,214.883-206.419,356.207c-32.537,187.252,15.071,357.197,139.016,504.316
	c95.894,113.823,218.335,183.243,363.028,206.682c187.176,30.321,356.138-16.156,500.078-143.338
	c109.528-96.776,174.122-217.819,190.8-362.764C1600.499,1034.451,1600.371,972.525,1603.872,903.602z"/>
</svg>
