<?xml version="1.0" encoding="iso-8859-1"?>
<!-- Generator: Adobe Illustrator 19.0.0, SVG Export Plug-In . SVG Version: 6.00 Build 0)  -->
<svg version="1.1" id="Layer_1" xmlns="http://www.w3.org/2000/svg" xmlns:xlink="http://www.w3.org/1999/xlink" x="0px" y="0px"
	 viewBox="0 0 500 500" style="enable-background:new 0 0 500 500;" xml:space="preserve">
<path d="M251.879,249.31c0,59.99-0.026,119.979,0.026,179.969c0.009,9.989,0.427,19.976,0.531,29.966
	c0.115,11.143-4.178,19.942-13.325,26.716c-4.85,3.592-9.757,5.106-15.646,5.093c-46.524-0.101-93.048-0.066-139.572-0.071
	c-6.952-0.001-13.927,0.371-20.853-0.051c-18.194-1.109-27.709-14.618-22.567-32.283c2.029-6.969,5.162-13.621,7.888-20.378
	c0.808-2.003,1.923-3.886,2.934-5.804c7.808-14.799,11.12-30.212,11.02-47.276c-0.511-86.95,0.232-173.907-0.176-260.858
	c-0.08-17.066,0.996-33.726,5.33-50.123c6.291-23.805,21.183-40.634,42.166-53.252c15.093-9.076,30.945-11.083,47.92-10.67
	c21.727,0.53,43.557,1.412,65.187-0.09c17.802-1.236,28.838,14.033,28.842,27.956c0.002,8.261,0.057,16.522,0.061,24.784
	c0.027,56.05,0.047,112.1,0.069,168.15c0.002,6.074,0,12.149,0,18.223C251.769,249.311,251.824,249.311,251.879,249.31z
	 M286.958,362.856c0,31.751,0.562,63.515-0.239,95.246c-0.397,15.735,7.975,31.437,29.699,31.874
	c19.524,0.392,39.237,0.601,58.588-1.577c36.196-4.073,62.991-35.896,62.915-69.773c-0.076-33.494-0.207-66.988,0.015-100.48
	c0.039-5.913,0.816-12.127,2.785-17.655c3.619-10.157,8.209-19.987,12.722-29.802c3.166-6.887,2.846-13.476-0.432-20.072
	c-3.185-6.409-7.622-11.207-15.393-11.692c-3.007-0.188-5.991-1.032-8.988-1.044c-38.709-0.153-77.419-0.375-116.127-0.211
	c-15.906,0.067-23.826,7.635-25.779,23.404c-0.319,2.576-0.184,5.214-0.185,7.824c-0.01,31.319-0.007,62.639-0.007,93.958
	C286.675,362.857,286.817,362.857,286.958,362.856z M286.527,108.677c0,22.143-0.091,44.286,0.036,66.428
	c0.07,12.145,2.505,23.621,14.776,29.296c5.29,2.447,11.577,3.728,17.432,3.8c30.388,0.377,60.785,0.395,91.173,0.013
	c5.351-0.067,11.073-1.808,15.926-4.195c11.699-5.754,14.08-16.859,14.17-28.558c0.202-26.484,0.312-52.973,0.044-79.455
	c-0.083-8.195-1.044-16.455-2.399-24.551c-5.381-32.14-32.586-56.868-61.71-60.097c-21.866-2.424-44.219-0.977-66.333-0.402
	c-10.022,0.26-16.545,7.299-20.162,16.12c-1.902,4.64-2.469,10.085-2.529,15.179c-0.26,22.138-0.112,44.282-0.112,66.423
	C286.733,108.677,286.63,108.677,286.527,108.677z"/>
</svg>
