<?xml version="1.0" encoding="iso-8859-1"?>
<!-- Generator: Adobe Illustrator 19.0.0, SVG Export Plug-In . SVG Version: 6.00 Build 0)  -->
<svg version="1.1" id="Layer_1" xmlns="http://www.w3.org/2000/svg" xmlns:xlink="http://www.w3.org/1999/xlink" x="0px" y="0px"
	 viewBox="0 0 500 500" style="enable-background:new 0 0 500 500;" xml:space="preserve">
<path id="XMLID_4_" d="M233.27,138.792c0,21.693,0,42.245,0,63.47c-3.114,0.333-5.714,0.852-8.316,0.853
	c-57.414,0.029-114.829,0.1-172.242-0.067c-21.769-0.063-36.16-10.882-40.251-29.475c-5.066-23.022,11.594-44.856,35.268-45.428
	c20.616-0.498,41.252-0.17,61.879-0.205c3.358-0.006,6.715-0.001,12.414-0.001c-3.523-4.634-5.674-7.909-8.261-10.793
	c-13.928-15.531-16.393-33.861-11.275-52.996c7.882-29.467,45.316-43.888,76.051-29.999c17.194,7.77,29.919,20.858,39.517,36.547
	c8.371,13.683,15.22,28.33,22.206,42.81c2.328,4.824,4.41,7.498,10.43,7.331c5.928-0.164,8.037-2.559,10.166-7.703
	c9.493-22.932,20.757-44.896,38.768-62.593c17.856-17.544,38.394-25.58,63.72-19.272c34.672,8.636,50.084,50.249,29.032,79.65
	c-3.729,5.208-7.853,10.133-13.249,17.055c25.247,0,48.426,0.042,71.604-0.017c12.433-0.031,22.959,4.293,30.765,14.004
	c9.445,11.749,11.109,25.173,5.139,38.729c-5.982,13.582-16.999,21.82-32.126,22.079c-30.932,0.531-61.878,0.332-92.818,0.374
	c-30.584,0.041-61.168,0.009-93.256,0.009c0-21.618,0-42.684,0-64.363C256.142,138.792,245.349,138.792,233.27,138.792z
	 M204.753,120.715c-9.357-14.395-16.849-26.555-25.061-38.208c-2.88-4.088-7.265-7.299-11.424-10.263
	c-8.677-6.185-22.239-5.718-27.565,0.518c-5.353,6.267-3.71,17.653,3.8,26.282c0.451,0.518,0.923,1.021,1.426,1.488
	C161.638,115.119,181.068,118.719,204.753,120.715z M296.615,119.701c19.936,0.377,40.958-5.104,52.517-13.878
	c4.995-3.791,9.549-9.022,12.426-14.572c6.777-13.07-0.277-24.487-14.695-22.767c-7.5,0.895-16.414,4.751-21.231,10.281
	C315.264,90.668,307.134,104.521,296.615,119.701z M49.543,234.251c0.004,53.993-0.308,107.988,0.166,161.977
	c0.373,42.55,30.735,72.181,73.226,72.364c33.702,0.145,67.405,0.051,101.108,0.013c2.952-0.003,5.904-0.386,8.866-0.594
	c0-80.596,0-160.255,0-240.47c-60.918,0-121.313,0-182.946,0C49.786,230.266,49.543,232.258,49.543,234.251z M268.708,227.77
	c0,80.448,0,160.104,0,240.864c4.268,0,7.972,0,11.677,0c31.649-0.003,63.298,0.051,94.947-0.021
	c47.024-0.108,76.73-29.78,76.763-76.653c0.036-50.569,0.008-101.139,0.008-151.708c0-4.024,0-8.048,0-12.481
	C390.177,227.77,329.554,227.77,268.708,227.77z"/>
</svg>
