<?xml version="1.0" encoding="iso-8859-1"?>
<!-- Generator: Adobe Illustrator 19.0.0, SVG Export Plug-In . SVG Version: 6.00 Build 0)  -->
<svg version="1.1" id="Layer_1" xmlns="http://www.w3.org/2000/svg" xmlns:xlink="http://www.w3.org/1999/xlink" x="0px" y="0px"
	 viewBox="0 0 2000 2000" style="enable-background:new 0 0 2000 2000;" xml:space="preserve">
<path d="M1308.594,772.413c64.424,0,128.059-3.844,191.065,0.82c122.031,9.032,243.912,24.377,351.546,89.032
	c83.409,50.104,131.573,121.294,130.065,224.644c-2.912,199.573-1.527,399.221-0.528,598.831
	c0.419,83.631-38.145,144.517-104.736,189.442c-87.797,59.23-187.137,86.785-291.306,94.707c-78.888,6-158.295,4.978-237.447,7.775
	c-34.378,1.214-58.815-15.441-67.028-46.103c-22.959-85.723-8.939-133.073,83.85-136.651c68.889-2.657,138.521-0.06,206.448-9.595
	c64.352-9.033,129.31-24.541,182.625-73.438c-11.611,0-23.223,0-34.834,0c-195.078,0-390.198,2.391-585.219-0.963
	c-104.792-1.802-207.922-19.44-304.073-66.213c-103.91-50.547-154.29-134.213-155.42-248.174
	c-1.034-104.334-2.199-208.741,0.698-313.004c1.164-41.886,13.013-83.475,20.109-125.86c-150.994,0-305.651,0-463.569,0
	c0,62.741,0.101,123.678-0.033,184.614c-0.099,45.218-16.124,66.685-60.998,74.224c-27.633,4.642-56.549,6.649-84.359,4.09
	c-43.417-3.996-65.523-34.04-65.642-83.619c-0.324-134.966-0.183-269.934-0.199-404.9c-0.017-139.504,3.012-279.09-0.791-418.49
	C14.395,151.461,102.053,72.436,240.209,39.135c60.659-14.621,124.583-20.766,187.133-21.5c171.177-2.01,342.523-2.484,513.581,3.15
	c99.156,3.266,197.079,23.151,281.093,82.462c61.43,43.368,98.425,101.522,98.589,179.145
	c0.278,131.558,1.073,263.123-0.015,394.671C1320.344,706.93,1313.285,736.741,1308.594,772.413z M230.978,771.922
	c8.311,1.042,12.654,2.065,16.997,2.063c217.639-0.102,435.29,0.906,652.905-1.471c44.084-0.482,88.993-10.28,131.791-22.065
	c53.595-14.758,76.328-50.36,76.349-105.636c0.044-112.222-0.649-224.45,0.369-336.663c0.36-39.676-15.487-68.747-51.104-83.287
	c-27.737-11.323-57.879-22.517-87.206-23.223c-161.956-3.899-324.008-6.683-485.989-5.3c-65.743,0.561-133.056,2.446-195.061,31.554
	c-31.243,14.667-58.114,35.473-58.447,72.032C230.162,456.196,230.978,612.489,230.978,771.922z M1763.857,1531.494
	c1.64-6.014,3.233-9.134,3.235-12.255c0.101-144.068,0.126-288.136,0-432.204c-0.036-41.099-21.919-71.225-58.001-83.496
	c-57.066-19.407-116.24-43.612-175.002-44.966c-173.182-3.993-346.697-0.432-519.878,5.824
	c-66.458,2.4-129.019,34.662-124.141,131.183c5.032,99.576,1.116,199.604,1.119,299.433c0.002,64.29,12.295,90.743,76.118,105.657
	c76.073,17.777,155.034,29.401,233.055,31.373c176.857,4.47,353.905,1.422,530.875,1.293
	C1742.217,1533.327,1753.195,1532.123,1763.857,1531.494z"/>
</svg>
