<?xml version="1.0" encoding="iso-8859-1"?>
<!-- Generator: Adobe Illustrator 19.0.0, SVG Export Plug-In . SVG Version: 6.00 Build 0)  -->
<svg version="1.1" id="Layer_1" xmlns="http://www.w3.org/2000/svg" xmlns:xlink="http://www.w3.org/1999/xlink" x="0px" y="0px"
	 viewBox="0 0 500 500" enable-background="new 0 0 500 500" xml:space="preserve">
<path d="M167.962,141.088c26.922,21.059,54.24,40.339,84.213,56.013c29.994-15.655,57.266-34.992,84.228-56.003
	c1.29,1.8,2.514,3.345,3.566,4.999c18.539,29.138,37.393,58.081,55.518,87.474c65.377,106.02,0.202,243.611-124.8,257.573
	C174.114,501.932,89.38,430.424,83.423,333.34c-2.146-34.977,5.695-67.858,24.238-97.742c18.971-30.574,38.496-60.804,57.794-91.176
	C166.104,143.4,166.91,142.477,167.962,141.088z M182.24,118.043c23.529,16.412,46.489,32.427,70.02,48.84
	c23.957-16.786,46.876-32.845,69.831-48.929C298.338,80.6,275.54,44.746,252.175,8C228.734,44.885,205.862,80.874,182.24,118.043z"
	/>
</svg>
