<?xml version="1.0" encoding="utf-8"?>
<!-- Generator: Adobe Illustrator 25.1.0, SVG Export Plug-In . SVG Version: 6.00 Build 0)  -->
<svg version="1.1" id="gusd" xmlns="http://www.w3.org/2000/svg" xmlns:xlink="http://www.w3.org/1999/xlink" x="0px" y="0px"
	 viewBox="0 0 500 500" style="enable-background:new 0 0 500 500;" xml:space="preserve">
<path d="M497.7,173.6C497.6,79.1,420.9,2.4,326.4,2.4c-88.8,0-161.7,67.6-170.3,154.1C70,165.5,3,238.3,3,326.8
	C3,421.3,79.6,498,174.2,498c88.8,0,161.8-67.6,170.4-154.1C430.7,334.8,497.7,262,497.7,173.6z M233.4,80.6
	c24.8-24.8,57.8-38.4,93-38.4c35.1,0,68.1,13.7,93,38.5c20.5,20.5,33.4,46.5,37.3,74.8H345.4h-3.7H196.1
	C200,127.3,212.9,101.2,233.4,80.6z M194.9,195.3h110.7v109.9H194.9V195.3z M81.1,233.8c20.3-20.3,46.1-33.2,74.1-37.2v112.6H43.8
	C47.6,280.8,60.5,254.5,81.1,233.8z M267.1,419.8c-24.8,24.8-57.8,38.5-93,38.5c-35.1,0-68.1-13.7-93-38.5
	c-20.5-20.5-33.4-46.7-37.3-75h111.4h3.5h145.7C300.5,373.1,287.6,399.2,267.1,419.8z M345.4,303.8V191.1h111.4
	c-3.8,28.5-16.7,54.9-37.4,75.6C399.1,287,373.4,299.8,345.4,303.8z"/>
</svg>
