<?xml version="1.0" encoding="iso-8859-1"?>
<!-- Generator: Adobe Illustrator 19.0.0, SVG Export Plug-In . SVG Version: 6.00 Build 0)  -->
<svg version="1.1" id="Layer_1" xmlns="http://www.w3.org/2000/svg" xmlns:xlink="http://www.w3.org/1999/xlink" x="0px" y="0px"
	 viewBox="0 0 2000 2000" style="enable-background:new 0 0 2000 2000;" xml:space="preserve">
<path d="M1982.726,998.264c-163.737,283.029-326.633,564.604-489.985,846.968c-328.732,0-655.479,0-985.016,0
	c-162.375-280.705-325.29-562.343-489.983-847.056c163.41-282.418,326.961-565.08,490.48-847.687c328.389,0,653.919,0,984.185,0
	C1654.954,431.537,1818.491,714.298,1982.726,998.264z M75.888,998.123c149.641,258.648,298.647,516.198,450.67,778.963
	c61.634-103.298,119.739-200.684,176.851-296.404c-94.822-164.068-186.75-323.131-278.73-482.283
	c93.137-161.422,184.841-320.359,276.408-479.061c-59.391-98.983-116.624-194.369-177.239-295.391
	C371.615,487.04,224.087,742.002,75.888,998.123z M1464.645,203.165c-299.733,0-593.571,0-894.219,0
	c61.227,102.133,118.751,198.087,176.597,294.579c184.089,0,364.796,0,546.693,0c91.413,157.84,181.939,314.149,272.087,469.804
	c112.967,0,223.115,0,341.024,0C1756.739,708.096,1609.523,453.609,1464.645,203.165z M751.831,1498.632
	c-60.113,100.462-117.497,196.362-177.523,296.676c299.635,0,592.749,0,889.188,0c147.529-255.033,295.472-510.783,446.958-772.657
	c-119.602,0-229.706,0-341.046,0c-92.029,158.879-183.4,316.623-275.705,475.981
	C1113.042,1498.632,933.725,1498.632,751.831,1498.632z M1281.005,576.188c-92.581,143.765-181.664,282.096-271.375,421.403
	c89.652,142.562,177.393,282.085,268.641,427.184c84.494-146.106,165.536-286.244,246.699-426.589
	C1443.694,857.597,1364.196,720.086,1281.005,576.188z M1233.093,1447.763c-92.799-147.59-180.58-287.201-266.573-423.967
	c-157.3,0-308.822,0-468.739,0c84.042,145.519,164.806,285.362,244.855,423.967
	C905.649,1447.763,1063.714,1447.763,1233.093,1447.763z M499.163,970.05c160.63,0,313.364,0,467.874,0
	c89.125-138.258,178.36-276.686,270.229-419.2c-170.334,0-332.486,0-495.74,0C661.168,689.841,581.693,827.304,499.163,970.05z"/>
</svg>
