<?xml version="1.0" encoding="iso-8859-1"?>
<!-- Generator: Adobe Illustrator 19.0.0, SVG Export Plug-In . SVG Version: 6.00 Build 0)  -->
<svg version="1.1" id="Layer_1" xmlns="http://www.w3.org/2000/svg" xmlns:xlink="http://www.w3.org/1999/xlink" x="0px" y="0px"
	 viewBox="0 0 2000 2000" style="enable-background:new 0 0 2000 2000;" xml:space="preserve">
<path d="M998.278,1980.121c-87.852-0.597-172.786-15.197-255.537-39.503c-73.631-21.628-142.982-54.266-211.152-90.547
	c-116.411-61.957-206.561-151.559-291.437-250.152c-71.587-83.157-116.721-179.88-154.603-279.633
	c-23.987-63.162-34.036-132.184-45.293-199.423c-8.017-47.888-11.519-97.284-10.259-145.831
	c3.451-132.933,33.004-260.274,87.362-382.226c50.554-113.417,121.284-212.9,209.983-297.972
	C465.379,162.441,628.697,74.353,818.126,39.603C908.69,22.99,998.773,16.334,1092.448,26.5
	c154.256,16.741,295.372,64.146,425.866,145.163c107.992,67.046,197.973,153.83,272.81,256.942
	c69.437,95.669,120.184,201.071,148.335,314.399c26.972,108.581,40.335,219.177,27.869,333.884
	c-12.677,116.643-39.282,227.605-87.335,333.167c-57.6,126.534-140.558,234.203-245.902,326.643
	c-62.211,54.591-133.106,94.325-201.375,138.387c-35.635,23-80.112,32.269-120.536,47.894
	c-15.177,5.867-30.213,12.105-45.261,18.301c-7.721,3.179-15.073,8.673-23.022,9.658
	C1162.075,1961.072,1080.164,1970.497,998.278,1980.121z M1004.582,150.654c-479.846-5.439-831.414,384.827-843.438,805.85
	c-14.212,497.628,369.737,869.002,837.753,874.052c230.209,2.484,434.054-82.221,598.271-250.058
	c156.729-160.184,241.881-353.8,244.447-576.031C1847.104,528.957,1464.941,148.831,1004.582,150.654z M1611.103,1079.539
	c-11.003,56.181-64.545,43.113-102.387,68.395c0,46.161,0.197,96.22-0.096,146.276c-0.118,20.184,1.751,41.047-2.591,60.412
	c-12.376,55.201-59.01,90.076-121.156,92.982c-21.885,1.023-43.912,1.27-65.775,0.067c-76.16-4.19-128.797,51.229-134.467,131.57
	c-1.279,18.124-0.188,36.415-0.188,58.461c-173.737,0-343.115,0-518.12,0c3.277-14.752,4.711-27.356,8.938-38.942
	c8.541-23.407,17.842-46.606,28.179-69.275c26.546-58.211,30.158-119.906,23.966-181.704c-3.976-39.681-26.77-73.423-60.267-94.809
	c-98.716-63.023-152.493-156.221-182.674-265.386c-16.904-61.144-23.194-122.136-13.228-187.23
	c10.59-69.168,32.544-132.304,64.878-192.512c31.071-57.856,74.158-105.222,126.768-146.194
	c67.164-52.307,139.923-90.389,223.412-103.075c97.749-14.854,195.348-13.359,289.123,25.313
	c55.52,22.896,107.46,51.255,153.459,90.598c83.267,71.218,126.129,166.267,159.047,266.97
	c22.118,67.665,39.161,137.052,62.883,204.109C1567.302,992.194,1591.286,1036.175,1611.103,1079.539z M888.253,850.268
	c6.696,30.65,13.099,59.958,20.538,94.011c16.781-6.76,29.825-12.015,43.718-17.612c-0.841-23.081-23.004-44.593,3.799-63.524
	c12.094-3.957,26.149-8.556,29.387-9.615c31.483,2.646,52.313,4.398,77.729,6.534c-11.972-32.938,13.094-65.013-19.942-91.467
	c-13.251,0-29.83,0-44.998,0c-22.982-43.165-22.982-43.165,12.185-81.734c24.704,6.042,47.634-0.106,60.595-26.052
	c1.91-17.967,3.735-35.137,5.241-49.31c-35.85-5.831-69.736-11.342-105.587-17.173c4.181-24.788,7.395-43.842,10.815-64.113
	c-16.179-5.879-30.038-10.915-44.907-16.318c-11.935,6.083-23.496,11.975-34.946,17.81c3.582,16.296,6.754,30.724,11.144,50.694
	c-8.523,7.793-18.195,16.638-28.722,26.263c-28.023-2.794-54.068-5.39-86.479-8.621c-5.362,19.837-11.46,42.394-16.852,62.341
	c21.964,29.539,49.621,11.118,75.65,17.25c7.253,7.982,16.038,17.649,26.084,28.703c-16.317,25.729-5.203,62.545-44.99,81.017
	c-13.941-1.944-33.098-4.615-53.133-7.41c2.873,22.379,5.683,44.268,8.772,68.323C824.838,850.268,853.225,850.268,888.253,850.268z
	 M553.125,836.411c16.719,5.226,31.409,9.818,46.114,14.414c0-25.839,0-46.571,0-67.552c13.907-5.878,25.928-10.959,37.116-15.687
	c12.857,5.108,23.691,9.413,41.516,16.496c3.053,18.719,6.754,41.402,10.384,63.655c23.664,0,49.958,0,80.961,0
	c0-30.393,0-58.3,0-89.188c27.299,4.166,49.422,7.542,74.635,11.39c6.295-24.68,11.7-45.874,17.067-66.915
	c-34.592-5.563-63.191-10.162-96.463-15.513c4.486-35.663,8.098-64.375,11.451-91.03c-29.275,0-57.401,0-85.683,0
	c-5.253,30.437,6.034,61.885-30.138,76.051c-16.859-3.84-35.881-8.173-54.399-12.391
	C574.396,715.057,558.875,766.302,553.125,836.411z M999.965,710.407c3.369,18.938,5.797,32.59,8.831,49.646
	c25.928-11.744,46.296-14.598,65.95,10.695c0,21.855,0,48.278,0,76.059c50.055-23.441,95.616-47.74,143.37-66.434
	c68.862-26.957,93.008-63.836,83.077-142.985c-16.964,0.808-34.198,1.628-51.655,2.46c-3.386,19.805-5.864,34.292-8.18,47.842
	c-30.214,20.933-47.927,2.821-66.588-13.959c0-20.227,0-38.404,0-63.148c-26.524-1.428-52.105-2.805-76.649-4.126
	c-9.772,39.991-6.784,79.532-42.659,100.225C1038.442,707.823,1023.499,708.827,999.965,710.407z M553.039,858.77
	c-2.445,111.43,55.04,172.065,150.807,204.414c20.458-4.198,44.05,6.2,75.544-13.624c-31.401-10.593-52.308-17.647-73.081-24.655
	c-17.725-51.038-14.826-74.054,11.391-83.002c6.761,2.78,14.254,5.862,23.97,9.857c11.574-7.301,23.951-15.109,37.921-23.922
	c-1.5-19.359-2.873-37.083-4.558-58.834c-36.027,0-69.106,0-101.906,0c-11.204-27.675,14.084-61.564-27.924-80.65
	c-9.353,2.754-24.002,7.068-35.355,10.411c2.829,26.968,4.986,47.528,7.568,72.136C592.419,866.19,573.658,862.655,553.039,858.77z
	 M1163.442,472.238c-117.095-45.453-229.854-29.118-341.102,10.06c-4.782,35.437-9.151,67.812-13.419,99.444
	c21.605,5.387,37.677,9.394,54.424,13.57c8.266-4.378,16.888-8.945,25.204-13.351c1.724-24.408,3.337-47.251,5.164-73.136
	c32.222,0,60.1,0,90.333,0c5.603,8.048,12.098,17.376,17.209,24.717c-3.706,17.858-6.701,32.288-10.47,50.445
	c29.32,0,55.494,0,85.58,0c2.031-31.648,4.024-62.693,6.012-93.668c12.667-5.754,22.922-10.412,31.836-14.461
	c15.466,7.2,28.812,13.414,45.351,21.114C1161.297,485.915,1162.488,478.319,1163.442,472.238z M707.716,963.493
	c2.037,14.98,3.955,29.089,4.321,31.783c36.575,25.201,64.084,44.154,95.237,65.619c94.735-29.384,164.636-100.11,232.116-182.771
	c-27.415-8.427-51.547-16.607-74.844,4.685c-1.76,21.828-3.412,42.327-4.927,61.125c-17.861,6.873-30.193,11.619-41.882,16.118
	c-12.362-6.932-23.838-13.367-35.524-19.92c-1.386-22.779-2.688-44.173-4.187-68.803c-30.951,0-58.652,0-89.852,0
	c4.626,20.299,8.203,35.993,11.137,48.865C785.423,970.196,746.064,961.242,707.716,963.493z M1304.499,610.636
	c-21.05-58.404-48.712-108.156-116.352-125.826c-21.002,30.936-51.451,21.981-83.523,9.38
	c-17.562,31.428-11.462,60.338-8.881,87.093c33.998,7.596,64.377,14.384,95.334,21.301c2.454,27.261,4.518,50.179,6.585,73.145
	c9.027,0,15.423,0,22.317,0c4.733-14.984,9.16-29,14.672-46.451C1256.393,623.476,1278.516,617.571,1304.499,610.636z
	 M616.148,641.327c13.662,6.116,26.426,11.83,46.32,20.736c4.944-24.351,8.845-43.565,13.976-68.835
	c3.294-2.86,11.995-10.415,21.209-18.414c29.311,0,57.79,0,85.493,0c11.922-26.099,23.862-50.107,9.199-82.805
	C718.181,523.245,656.203,566.153,616.148,641.327z"/>
</svg>
