<?xml version="1.0" encoding="iso-8859-1"?>
<!-- Generator: Adobe Illustrator 19.0.0, SVG Export Plug-In . SVG Version: 6.00 Build 0)  -->
<svg version="1.1" id="Layer_1" xmlns="http://www.w3.org/2000/svg" xmlns:xlink="http://www.w3.org/1999/xlink" x="0px" y="0px"
	 viewBox="0 0 2000 2000" style="enable-background:new 0 0 2000 2000;" xml:space="preserve">
<path d="M1984.693,998.464c0,169.667,0.073,339.333-0.033,509c-0.048,76.206-20.429,147.771-55.714,214.315
	c-50.168,94.612-123.581,166.872-220.585,213.707c-48.258,23.3-98.245,41.556-152.555,44.441
	c-31.742,1.687-63.493,4.526-95.241,4.56c-322.12,0.34-644.242,0.657-966.361-0.047c-106.703-0.233-201.795-36.726-285.806-101.557
	c-91.296-70.452-150.74-162.485-177.946-274.411c-7.428-30.56-12.545-62.548-12.626-93.896
	c-0.884-340.15-0.713-680.304-0.43-1020.457c0.063-76.01,20.38-147.658,55.823-214.12
	c50.435-94.572,123.719-166.919,221.107-213.527c47.706-22.831,97.086-40.411,150.244-44.9c23.568-1.99,47.226-4.098,70.845-4.118
	c327.858-0.267,655.716,0.008,983.574-0.306c87.616-0.084,168.519,23.157,243.534,67.349
	c120.452,70.959,195.154,176.706,230.359,310.576c7.994,30.396,11.107,62.853,11.305,94.393
	C1985.255,659.126,1984.693,828.797,1984.693,998.464z M1386.596,709.218c-21.12,2.039-42.271,6.04-63.353,5.707
	c-42.747-0.676-83.723,9.518-124.551,18.967c-95.565,22.116-185.059,59.462-268.553,111.496
	c-74.179,46.229-140.072,102.271-197.904,167.217c-63.617,71.441-114.185,151.705-152.366,239.782
	c-42.077,97.062-61.218,199.243-70.544,303.752c-1.379,15.452-2.655,31.648,0.462,46.572c3.55,16.997,8.95,35.281,19.073,48.896
	c23.515,31.626,55.839,33.763,87.933,25.175c29.08-7.781,55.669-36.651,56.587-77.489c0.454-20.193,0.745-40.509,3.218-60.509
	c4.461-36.093,7.587-72.727,16.442-107.83c25.363-100.547,68.714-192.359,133.731-274.426
	c41.374-52.224,87.241-99.276,140.533-138.177c129.052-94.203,273.943-143.358,434.303-145.476
	c11.955-0.158,24.542-1.649,35.688-5.685c59.021-21.371,64.599-98.598,30.344-131.28
	C1443.956,713.315,1417.257,707.733,1386.596,709.218z M509.128,674.992c0,96.706,0.255,193.413-0.215,290.117
	c-0.094,19.348,4.491,36.449,14.148,53.105c19.68,33.944,62.409,48.484,97.912,32.351c37.612-17.092,52.854-46.93,52.71-87.477
	c-0.635-178.651-0.595-357.304-0.722-535.957c-0.013-18.704,2.429-37.629,0.347-56.069c-4.792-42.443-41.74-79.182-92.519-73.199
	c-37.803,4.454-72.437,38.327-71.964,84.556C509.822,479.934,509.127,577.466,509.128,674.992z M1492.837,1300.992
	c0-96.599-0.719-193.207,0.358-289.794c0.424-38.019-33.828-84.113-82.01-83.463c-46.865,0.631-79.95,35.804-82.712,79.826
	c-1.732,27.604-1.079,55.379-0.947,83.074c0.321,67.104,1.412,134.208,1.372,201.311c-0.059,99.857-1.212,199.714-1.114,299.57
	c0.043,43.969,23.408,72.495,52.568,82.844c56.517,20.057,112.226-14.964,112.415-81.114
	C1493.045,1495.828,1492.839,1398.409,1492.837,1300.992z M1218.316,1207.6c0.133,0,0.266,0,0.398,0
	c0-45.873,0.268-91.748-0.191-137.616c-0.113-11.298-0.141-23.616-4.421-33.672c-16.166-37.973-48.325-58.006-95.515-49.333
	c-32.416,5.957-62.35,31.637-63.051,76.754c-1.462,94.183-1.009,188.41-0.157,282.608c0.325,35.927,20.387,61.568,51.96,76.231
	c50.202,23.315,113.339-20.195,111.331-74.906C1216.958,1301.035,1218.316,1254.293,1218.316,1207.6z M1492.836,482.681
	c0-31.893,0.35-63.791-0.078-95.678c-0.717-53.363-51.248-90.372-102.86-77.137c-28.865,7.402-60.538,37.78-60.291,76.003
	c0.401,62.037-3.975,124.203-1.326,186.1c2.754,64.353,43.082,94.701,104.681,83.272c35.112-6.515,57.447-36.855,59.539-76.898
	C1494.162,546.537,1492.835,514.574,1492.836,482.681z M783.409,1388.027c0.306,0,0.611-0.001,0.917-0.001
	c0,27.837-0.997,55.719,0.242,83.501c1.701,38.126,45.617,74.846,82.91,70.243c56.136-6.929,80.863-48.988,79.691-90.071
	c-1.283-44.999,0.288-90.073-0.44-135.096c-0.879-54.29-39.147-82.907-81.931-84.153c-37.696-1.097-83.079,29.869-81.516,81.903
	C784.02,1338.89,783.409,1363.468,783.409,1388.027z M862.027,829.839c7.72-2.456,12.967-4.584,18.418-5.785
	c37.78-8.328,65.188-38.718,66.182-76.402c1.056-40.056,2.311-80.296-0.288-120.21c-3.209-49.284-37.374-77.517-82.523-78.671
	c-45.626-1.166-80.224,38.68-80.805,75.579c-0.67,42.499-0.406,85.053,1.006,127.531c0.855,25.727,12.127,47.392,35.553,60.008
	C833.523,819.404,848.85,824.366,862.027,829.839z M1217.536,577.02c0-21.27,0.643-42.563-0.133-63.804
	c-1.648-45.142-44.513-72.931-83.544-71.241c-47.5,2.056-78.626,40.26-78.755,88.785c-0.085,31.906-0.356,63.817,0.062,95.718
	c0.662,50.545,36.657,90.161,93.047,84.361c38.519-3.962,68.706-36.016,69.278-74.916
	C1217.78,616.292,1217.542,596.654,1217.536,577.02z"/>
</svg>
