<?xml version="1.0" encoding="iso-8859-1"?>
<!-- Generator: Adobe Illustrator 19.0.0, SVG Export Plug-In . SVG Version: 6.00 Build 0)  -->
<svg version="1.1" id="Layer_1" xmlns="http://www.w3.org/2000/svg" xmlns:xlink="http://www.w3.org/1999/xlink" x="0px" y="0px"
	 viewBox="0 0 2000 2000" style="enable-background:new 0 0 2000 2000;" xml:space="preserve">
<path d="M418.995,211.112c0,248.8,0,493.844,0,742.315c26.102-16.849,49.239-31.699,72.291-46.682
	c50.561-32.862,100.744-66.321,151.742-98.489c29.212-18.427,42.224-43.525,42.151-77.922
	c-0.448-210.913-0.224-421.827-0.224-632.74c0-8.292,0-16.584,0-24.467c350.542-135.311,911.72-39.835,1183.028,464.246
	c254.951,473.688,66.176,1010.399-284.81,1252.524c0-246.084,0-490.607,0-739.434c-9.769,6.006-16.069,9.699-22.189,13.67
	c-66.865,43.391-133.344,87.389-200.705,129.995c-30.512,19.299-44.299,44.873-44.189,81.086
	c0.64,210.218,0.313,420.438,0.312,630.658c0,8.197,0,16.393,0,23.875c-369.318,135.422-908.109,25.732-1174.821-454.862
	C-109.935,1021.673,43.729,480.928,418.995,211.112z M684.785,1161.123c184.043-119.702,367.446-238.987,549.818-357.602
	c0-106.209,0-210.499,0-317.168c-5.37,3.179-8.845,5.068-12.15,7.217c-256.126,166.61-512.15,333.378-768.497,499.648
	c-24.459,15.865-35.895,35.777-35.758,65.277c0.706,151.873,0.327,303.752,0.327,455.629c0,6.839,0,13.679,0,18.529
	c67.316,77.35,207.654,176.65,266.26,188.453C684.785,1534.508,684.785,1348.184,684.785,1161.123z M1316.434,842.798
	c-184.394,119.907-367.884,239.226-550.438,357.936c0,106.169,0,210.49,0,317.077c5.958-3.409,10.134-5.531,14.037-8.071
	c256.796-167.101,513.528-334.301,770.422-501.251c22.452-14.591,32.568-34.139,32.506-60.841
	c-0.357-155.415,0.008-310.832-0.627-466.246c-0.038-9.279-4.207-20.82-10.513-27.446c-69.1-72.605-149.4-129.85-240.558-171.682
	c-3.911-1.795-8.467-2.183-14.83-3.744C1316.434,467.885,1316.434,655.03,1316.434,842.798z"/>
</svg>
