<?xml version="1.0" encoding="iso-8859-1"?>
<!-- Generator: Adobe Illustrator 19.0.0, SVG Export Plug-In . SVG Version: 6.00 Build 0)  -->
<svg version="1.1" id="Layer_1" xmlns="http://www.w3.org/2000/svg" xmlns:xlink="http://www.w3.org/1999/xlink" x="0px" y="0px"
	 viewBox="0 0 2000 2000" style="enable-background:new 0 0 2000 2000;" xml:space="preserve">
<path d="M805.969,1029.183c18.135-1.688,30.926-3.883,43.723-3.913c112.76-0.271,225.521-0.157,343.238-0.157
	c7.628,319.676,15.14,634.46,22.721,952.168c-144.261,0-284.159,0-432.198,0C790.921,1662.821,798.397,1348.012,805.969,1029.183z
	 M1580.604,1571.914c188.682-1.947,335.378-183.039,308.711-378.022c-16.079-117.566-27.075-235.819-42.293-353.513
	c-12.79-98.917-21.768-199.009-44.27-295.83c-34.43-148.145-191.5-262.497-333.667-249.009
	c31.246,423.593,62.502,847.311,93.963,1273.805C1572.12,1570.717,1576.369,1571.958,1580.604,1571.914z M530.461,293.672
	c-173.777-4.052-323.477,128.851-345.804,302.736c-20.285,157.979-42.296,315.793-58.813,474.174
	c-8.643,82.88-18.334,168.281-7.705,249.96c18.793,144.421,179.365,264.104,318.042,247.581
	C467.567,1143.844,499.004,718.891,530.461,293.672z M829.809,23.743c-5.3,232.254-10.532,461.517-15.765,690.837
	c125.981,0,246.947,0,371.669,0c-5.596-231.188-11.123-459.491-16.723-690.837C1052.866,23.743,942.228,23.743,829.809,23.743z"/>
</svg>
