<?xml version="1.0" encoding="iso-8859-1"?>
<!-- Generator: Adobe Illustrator 19.0.0, SVG Export Plug-In . SVG Version: 6.00 Build 0)  -->
<svg version="1.1" id="Layer_1" xmlns="http://www.w3.org/2000/svg" xmlns:xlink="http://www.w3.org/1999/xlink" x="0px" y="0px"
	 viewBox="0 0 500 500" style="enable-background:new 0 0 500 500;" xml:space="preserve">
<path d="M252.491,495.717c-9.71-5.213-17.503-9.397-25.448-13.662c0-19.018,0-37.292,0-57.564
	c8.445,3.804,16.163,7.28,26.054,11.736c53.382-30.809,107.695-62.156,161.447-93.179c0-63.496,0-125.464,0-188.508
	c-19.732-11.343-39.637-22.786-61.387-35.289c0,68.519,0,135.814,0,203.461c-17.655,10.457-34.201,20.258-53.461,31.667
	c0-29.827,0-57.143,0-85.243c-32.381,0-62.646,0-94.563,0c0,65.606,0,131.005,0,200.072
	c-57.746-33.398-112.664-65.16-167.085-96.635c0-83.079,0-163.922,0-247.589C108.198,84.459,179.281,43.396,250.94,2
	c9.084,4.717,17.35,9.008,25.72,13.353c0,19.186,0,37.461,0,57.807c-8.6-3.892-16.338-7.393-26.011-11.771
	c-53.154,30.627-107.098,61.71-161.337,92.962c0,62.514,0,124.395,0,188.641c18.914,10.938,39.132,22.63,61.621,35.635
	c0-69.863,0-138.158,0-206.234c18.101-10.704,34.57-20.444,53.261-31.497c0,26.706,0,50.603,0,75.379c32.017,0,62.706,0,94.678,0
	c0-61.77,0-123.061,0-187.725c57.384,33.195,112.346,64.988,166.759,96.463c0,83.104,0,163.969,0,247.615
	C395.468,413.149,324.383,454.2,252.491,495.717z"/>
</svg>
