<?xml version="1.0" encoding="iso-8859-1"?>
<!-- Generator: Adobe Illustrator 19.0.0, SVG Export Plug-In . SVG Version: 6.00 Build 0)  -->
<svg version="1.1" id="Layer_1" xmlns="http://www.w3.org/2000/svg" xmlns:xlink="http://www.w3.org/1999/xlink" x="0px" y="0px"
	 viewBox="0 0 500 500" style="enable-background:new 0 0 500 500;" xml:space="preserve">
<path d="M4.903,248.805c0-60.211,0.247-120.423-0.095-180.632C4.61,33.274,35.198,5.101,68.353,5.066
	C187.09,4.94,305.828,5.082,424.565,4.973c32.189-0.03,62.623,25.936,65.854,58.378c6.612,66.397,2.869,132.773,2.822,199.167
	c-0.037,52.616,0.241,105.233-0.164,157.845c-0.13,16.919-1.583,31.859-12.387,48.249c-26.14,30.612-75.419,26.146-90.516,26.177
	c-93.465,0.191-186.934,0.517-280.393-0.232c-20.669-0.166-41.484-3.467-61.907-7.137c-22.37-4.02-43.679-35.652-43.295-59.251
	C5.553,368.396,4.903,308.595,4.903,248.805z M199.413,87.695c-40.321,3.611-63.389,27.035-63.232,66.505
	c0.319,80.372,0.096,160.746,0.096,241.12c0,4.43,0,8.861,0,13.315c21.853,0,41.883,0,63.16,0c0-5.094,0-9.601,0-14.108
	c0-41.239-0.412-82.483,0.148-123.714c0.362-26.633,15.274-52.901,50.211-51.864c27.342,0.812,46.319,24.395,45.886,46.831
	c-0.829,42.906-0.241,85.839-0.241,128.761c0,4.477,0,8.955,0,13.789c21.929,0,42.228,0,64.395,0
	c-1.266-53.736-0.297-106.697-4.37-159.267c-4.132-53.326-43.825-89.301-98.836-89.986c-19.397-0.242-38.755-0.883-57.217,11.998
	C199.413,141.535,199.413,115.09,199.413,87.695z"/>
</svg>
