<?xml version="1.0" encoding="iso-8859-1"?>
<!-- Generator: Adobe Illustrator 19.0.0, SVG Export Plug-In . SVG Version: 6.00 Build 0)  -->
<svg version="1.1" id="Layer_1" xmlns="http://www.w3.org/2000/svg" xmlns:xlink="http://www.w3.org/1999/xlink" x="0px" y="0px"
	 viewBox="0 0 500 500" enable-background="new 0 0 500 500" xml:space="preserve">
<path d="M249.843,304.812c-31.553-0.697-55.863-25.033-55.526-56.337c0.34-31.614,24.874-55.364,55.96-55.214
	c31.296,0.151,55.461,24.252,55.454,55.681C305.724,280.634,281.254,304.284,249.843,304.812z M394.638,247.433
	c33.395-33.578,66.596-66.959,99.865-100.41c-46.521,0-93.48,0-141.503,0C367.06,180.926,380.869,214.227,394.638,247.433z
	 M248.79,393.567c-33.654-13.856-67.106-27.628-100.833-41.514c0,48.05,0,94.88,0,141.368
	C181.568,460.137,214.969,427.06,248.79,393.567z M148.02,5.074c0,46.064,0,93.022,0,141.036
	c33.954-14.095,67.123-27.865,99.613-41.353C214.107,71.208,180.873,37.95,148.02,5.074z M147.061,146.909
	c-48.049,0-95.036,0-141.706,0c33.273,33.382,66.503,66.722,100.203,100.533C119.391,213.935,133.142,180.625,147.061,146.909z
	 M105.6,250.982c-33.633,33.651-66.894,66.93-100.068,100.122c46.519,0,93.517,0,141.642,0
	C133.077,317.154,119.216,283.774,105.6,250.982z M351.938,145.889c0-48.184,0-95.122,0-141.201
	c-33.215,33.035-66.594,66.233-100.354,99.81C284.948,118.259,318.351,132.036,351.938,145.889z M251.486,393.628
	C285.201,427.215,318.52,460.409,352,493.763c0-46.81,0-93.764,0-141.783C318.258,365.96,284.836,379.809,251.486,393.628z
	 M394.666,250.223c-13.875,33.654-27.653,67.075-41.56,100.807c48.136,0,94.98,0,141.492,0
	C461.312,317.453,428.164,284.015,394.666,250.223z"/>
</svg>
