<?xml version="1.0" encoding="iso-8859-1"?>
<!-- Generator: Adobe Illustrator 19.0.0, SVG Export Plug-In . SVG Version: 6.00 Build 0)  -->
<svg version="1.1" id="Layer_1" xmlns="http://www.w3.org/2000/svg" xmlns:xlink="http://www.w3.org/1999/xlink" x="0px" y="0px"
	 viewBox="0 0 2000 2000" style="enable-background:new 0 0 2000 2000;" xml:space="preserve">
<path d="M678.983,1349.307c37.893-44.008,74.783-86.85,115.024-133.584c-102.979-104.611-167.86-227.892-184.517-373.38
	c-16.507-144.182,14.395-278.555,94.113-406.299c-22.458-16.727-44.108-32.852-67.949-50.609
	c-12.872,7.614-25.001,15.075-37.392,22.073c-102.666,57.982-231.019,24.153-290.177-76.402
	c-58.949-100.198-29.225-226.32,72.417-286.365c76.311-45.081,156.36-43.888,231.642,5.437
	c72.424,47.453,106.106,134.097,88.127,217.885c-2.727,12.71-6.398,25.218-10.48,41.12c21.863,16.52,43.566,32.918,68.524,51.776
	c146.409-153.154,323.508-227.933,535.186-206.951c155.865,15.45,287.499,83.052,394.285,197.778
	c203.636,218.779,218.24,556.805,37.422,793.185c-183.819,240.303-546.702,337.86-860.658,131.615
	c-37.029,43.018-74.586,86.651-114.684,133.234c76.649,95.509,106.502,201.746,75.221,320.215
	c-21.263,80.531-68.006,144.588-136.296,192.598c-130.338,91.63-320.351,81.131-442.181-39.851
	c-120.633-119.795-125.761-312.607-40.292-434.659C311.622,1297.749,483.717,1259.516,678.983,1349.307z M1758.489,769.765
	c-0.006-290.297-235.364-525.38-526.978-526.364c-295.631-0.997-535.236,236.598-533.804,529.326
	c1.412,288.758,239.692,524.597,530.174,524.745C1521.332,1297.622,1758.495,1061.756,1758.489,769.765z M493.132,1891.945
	c137.867-0.723,251.795-114.509,251.598-251.286c-0.196-136.313-115.085-251.074-252.037-251.757
	c-139.106-0.694-254.393,115.141-253.169,254.373C240.734,1780.801,354.825,1892.671,493.132,1891.945z M493.511,343.146
	c65.829-0.94,119.952-55.929,118.923-120.823c-1.031-64.97-56.633-118.376-122.281-117.451
	c-65.682,0.925-119.634,55.944-118.552,120.897C372.699,291.696,427.12,344.095,493.511,343.146z M1612.933,1024.714
	c9.865-78.826-6.859-147.724-76.16-196.144c-32.884-22.976-118.008-39.96-166.81-32.527c-5.307,12.902-11.82,27.353-17.262,42.197
	c-31.121,84.888-61.678,169.984-93.203,254.721c-6.273,16.862-8.418,37.802-29.568,44.488c-24.379-6.118-25.875-27.583-32.165-44.43
	c-32.135-86.067-63.23-172.521-95.048-258.707c-5.385-14.588-12.526-28.528-19.799-44.891c-24.75,3.049-46.147,6.228-67.653,8.245
	c-136.621,12.815-179.422,107.942-172.62,204.298c0.512,7.248,0.808,14.511,1.258,22.753
	C1030.772,1299.835,1433.59,1298.403,1612.933,1024.714z M1029.53,518.251c0.936,108.321,91.316,197.122,200.155,196.661
	c108.849-0.462,198.47-90.453,197.891-198.709c-0.578-108.002-91.74-197.708-200.027-196.831
	C1118.616,320.255,1028.599,410.663,1029.53,518.251z M1250.528,858.244c12.029-20.841,22.057-38.215,30.942-53.609
	c-11.169-37.47-39.449-27.705-62.591-28.806c-19.897-0.946-38.236,2.425-42.313,30.054c8.96,15.778,18.9,33.28,29.401,51.77
	c-2.474,59.567-29.701,123.091,23.287,178.596C1278.884,978.558,1254.776,915.417,1250.528,858.244z"/>
</svg>
