<?xml version="1.0" encoding="iso-8859-1"?>
<!-- Generator: Adobe Illustrator 19.0.0, SVG Export Plug-In . SVG Version: 6.00 Build 0)  -->
<svg version="1.1" id="Layer_1" xmlns="http://www.w3.org/2000/svg" xmlns:xlink="http://www.w3.org/1999/xlink" x="0px" y="0px"
	 viewBox="0 0 500 500" enable-background="new 0 0 500 500" xml:space="preserve">
<path d="M31.584,21.001c0,71.97,0,143.398,0,215.249c9.54,0,18.731,0,28.619,0c0-71.638,0-143.317,0-215.283
	c9.897,0,19.106,0,28.879,0c0,71.738,0,143.294,0,215.278c126.18,0,251.799,0,377.862,0c0-9.225,0-18.579,0-28.697
	c-116.093,0-232.199,0-348.616,0c0-62.52,0-124.282,0-186.454c9.156,0,18.32,0,27.991,0c0,52.261,0,104.365,0,156.917
	c107.148,0,213.795,0,320.755,0c0-9.136,0-18.182,0-27.899c-97.027,0-194.027,0-291.379,0c0-43.139,0-85.611,0-128.587
	c9.261,0,18.576,0,28.361,0c0,32.932,0,65.754,0,98.961c30.48,0,60.501,0,91.138,0c0-32.903,0-65.693,0-98.983
	c9.759,0,18.917,0,28.56,0c0,32.817,0,65.63,0,98.905c9.648,0,18.842,0,28.691,0c0-32.744,0-65.697,0-99.033
	c9.997,0,19.344,0,29.233,0c0,33.191,0,65.999,0,99.15c9.729,0,18.919,0,28.649,0c0-33.192,0-66.171,0-99.494
	c9.564,0,18.598,0,28.238,0c0,32.989,0,65.945,0,99.371c9.751,0,18.912,0,28.619,0c0-32.998,0-65.978,0-99.336
	c9.737,0,18.945,0,28.601,0c0,153.272,0,306.588,0,460.597c-4.631,0-9.217,0-13.802,0c-4.624,0-9.247,0-14.514,0
	c0-72.04,0-143.725,0-215.678c-9.712,0-18.782,0-28.511,0c0,71.634,0,143.316,0,215.339c-9.852,0-19.053,0-28.806,0
	c0-71.652,0-143.221,0-215.199c-126.324,0-252.102,0-378.242,0c0,9.509,0,19.043,0,29.148c116.246,0,232.392,0,348.93,0
	c0,62.278,0,123.99,0,186.049c-9.23,0-18.417,0-28.028,0c0-52.135,0-104.075,0-156.487c-107.079,0-213.738,0-320.834,0
	c0,8.825,0,17.84,0,27.477c96.971,0,193.982,0,291.412,0c0,43.215,0,85.817,0,128.859c-9.286,0-18.606,0-28.496,0
	c0-33.115,0-66.083,0-99.354c-30.438,0-60.313,0-90.836,0c0,33.02,0,65.968,0,99.35c-9.821,0-19.013,0-28.932,0
	c0-32.894,0-65.992,0-99.35c-9.914,0-19.106,0-28.82,0c0,33.26,0,66.234,0,99.497c-9.72,0-18.92,0-28.729,0
	c0-33.166,0-66.139,0-99.447c-9.654,0-18.711,0-28.548,0c0,33.024,0,66.115,0,99.498c-9.831,0-18.892,0-28.674,0
	c0-33.06,0-66.158,0-99.543c-9.773,0-18.835,0-28.583,0c0,33.07,0,66.167,0,99.551c-9.898,0-19.116,0-28.731,0
	c0-153.424,0-306.737,0-460.372C12.464,21.001,21.656,21.001,31.584,21.001z"/>
</svg>
