<?xml version="1.0" encoding="iso-8859-1"?>
<!-- Generator: Adobe Illustrator 19.0.0, SVG Export Plug-In . SVG Version: 6.00 Build 0)  -->
<svg version="1.1" id="Layer_1" xmlns="http://www.w3.org/2000/svg" xmlns:xlink="http://www.w3.org/1999/xlink" x="0px" y="0px"
	 viewBox="0 0 2000 2000" style="enable-background:new 0 0 2000 2000;" xml:space="preserve">
<path d="M1128.442,1462.208c-16.734,1.788-29.368,4.285-42.006,4.312c-133.936,0.282-267.874,0.502-401.808,0.025
	c-64.185-0.229-79.925-16.378-80.09-80.057c-0.255-98.777,0.033-197.556-0.17-296.334c-0.034-16.288-1.401-32.574-2.263-51.258
	c-129.836,0-256.195,0-388.393,0c0,80.123,1.373,158.298-0.334,236.405c-2.344,107.294-80.132,183.444-192.001,187.086
	c-1.7-10.205-5.03-20.926-5.044-31.651c-0.302-231.04-0.923-462.083,0.057-693.119c0.489-115.363,74.057-191.155,194.517-198.777
	c0,134.456,0,268.752,0,407.256c133.227,0,260.623,0,393.562,0c0-70.111-0.328-138.332,0.073-206.549
	c0.691-117.362,68.24-190.228,192.279-201.482c0.871,19.123,2.473,38.082,2.487,57.041c0.173,231.04,0.022,462.08,0.155,693.121
	c0.054,93.973,25.997,120.216,118.354,120.506c48.552,0.153,97.107,0.278,145.658,0.022
	C1097.917,1408.574,1119.148,1423.662,1128.442,1462.208z M1986.726,829.591c-69.788-204.323-299.877-328.607-527.105-284.719
	c-229.605,44.347-386.134,253.156-371.428,495.482c13.626,224.536,204.545,408.622,440.619,424.853
	c188.326,12.947,411.802-123.637,437.864-274.914c-16.732,9.766-31.384,22.268-43.157,37.063
	c-132.038,165.922-371.596,194.185-532.438,58.939c-118.276-99.453-162.177-228.69-123.241-378.513
	c38.928-149.791,140.394-242.915,291.786-270.871c158.04-29.183,285.455,28.672,379.885,158.838
	c11.087,15.283,23.467,29.628,35.247,44.408C1978.748,836.635,1982.737,833.113,1986.726,829.591z"/>
</svg>
