<?xml version="1.0" encoding="iso-8859-1"?>
<!-- Generator: Adobe Illustrator 19.0.0, SVG Export Plug-In . SVG Version: 6.00 Build 0)  -->
<svg version="1.1" id="Layer_1" xmlns="http://www.w3.org/2000/svg" xmlns:xlink="http://www.w3.org/1999/xlink" x="0px" y="0px"
	 viewBox="0 0 500 500" enable-background="new 0 0 500 500" xml:space="preserve">
<path d="M397.439,437.718c0-92.023,0-183.782,0-275.533c-27.649-16.262-55.026-32.364-82.808-48.704
	c-1.139,8.62-2.24,16.779-3.289,24.944c-1.483,11.543-2.914,23.093-4.397,34.637c-0.327,2.546-1.282,5.119-1.076,7.607
	c0.573,6.929-3.576,11.316-7.736,15.796c-15.93,17.155-31.862,34.309-48.149,51.847c-17.703-17.217-35.42-34.447-53.446-51.977
	c0-1.685-0.002-3.57,0-5.454c0.053-37.188,0.122-74.377,0.151-111.565c0.008-10.624,0.159-21.258-0.266-31.867
	c-0.205-5.113,1.305-9.04,4.441-12.948c6.525-8.131,12.668-16.568,18.81-24.67C348.353-5.547,450.992,78.15,480.55,179.821
	C512.975,291.358,461.252,390.87,397.439,437.718z M23.828,329.879c37.254,103.61,139.863,168.298,248.631,157.721
	c0.649-1.186,1.378-2.457,2.053-3.757c9.466-18.233,18.975-36.444,28.32-54.738c1.118-2.188,1.878-4.837,1.883-7.274
	c0.108-48.224,0.081-96.449,0.081-144.673c0-1.303,0-2.606,0-5.036c-18.702,19.095-36.632,37.401-54.742,55.891
	c-18.647-14.171-37.022-28.136-56.222-42.726c0,29.726,0,58.457,0,87.736c-30.901-15.643-61.141-30.952-91.486-46.314
	c0-89.304,0-178.243,0-267.931C23.113,120.223-12.706,228.272,23.828,329.879z"/>
</svg>
