<?xml version="1.0" encoding="iso-8859-1"?>
<!-- Generator: Adobe Illustrator 19.0.0, SVG Export Plug-In . SVG Version: 6.00 Build 0)  -->
<svg version="1.1" id="Layer_1" xmlns="http://www.w3.org/2000/svg" xmlns:xlink="http://www.w3.org/1999/xlink" x="0px" y="0px"
	 viewBox="0 0 500 500" enable-background="new 0 0 500 500" xml:space="preserve">
<path d="M250.087,493.937C114.635,494.084,8.52,385.649,4.947,257.574C0.909,112.858,114.269,9.342,237.518,4.236
	c148.183-6.139,248.298,108.548,256.667,224.448c5.129,71.026-16.08,133.413-63.993,186.099
	C383.284,466.363,318.127,494.055,250.087,493.937z M27.123,248.66C26.534,372.01,125.97,470.331,245.626,472.012
	c129.215,1.815,223.064-99.682,227.183-214.279c4.701-130.794-99.841-232.599-223.922-232.005
	C126.046,26.316,26.602,126.271,27.123,248.66z M249.694,458.066c-115.012,0.262-209.021-93.211-209.178-208.859
	C40.36,134.133,134.279,35.609,258.128,39.861c108.726,3.733,201.783,92.612,201.073,211.13
	C458.51,366.411,363.594,458.708,249.694,458.066z M152.628,115.995c0,84.349,0,168.326,0,252.364c11.533,0,22.593,0,33.797,0
	c0.054-1.163,0.126-1.988,0.126-2.813c0.021-26.896-0.042-53.793,0.074-80.689c0.098-22.824,8.006-42.18,25.668-57.223
	c22.901-19.505,55.552-22.571,81.472-7.102c23.935,14.284,35.393,36.083,35.68,63.687c0.279,26.724,0.051,53.453,0.065,80.179
	c0.001,1.292,0.195,2.585,0.311,4.035c11.233,0,22.132,0,33.701,0c0-10.082,0.021-19.899-0.005-29.717
	c-0.044-16.501,0.004-33.003-0.23-49.501c-0.123-8.697,0.233-17.571-1.333-26.05c-8.304-44.978-44.949-80.011-89.387-85.524
	c-21.261-2.638-41.606-0.108-60.689,9.563c-8.685,4.402-16.608,10.308-25.391,15.857c0-29.051,0-57.991,0-87.065
	C175.055,115.995,164.259,115.995,152.628,115.995z"/>
</svg>
