<?xml version="1.0" encoding="utf-8"?>
<!-- Generator: Adobe Illustrator 26.0.0, SVG Export Plug-In . SVG Version: 6.00 Build 0)  -->
<svg version="1.1" id="HNT" xmlns="http://www.w3.org/2000/svg" xmlns:xlink="http://www.w3.org/1999/xlink" x="0px" y="0px"
	 viewBox="0 0 500 500" style="enable-background:new 0 0 500 500;" xml:space="preserve">
<style type="text/css">
	.st0{fill-rule:evenodd;clip-rule:evenodd;}
</style>
<path id="Combined-Shape" class="st0" d="M250,0c138.1,0,250,111.9,250,250c0,138.1-111.9,250-250,250C111.9,500,0,388.1,0,250
	C0,111.9,111.9,0,250,0z M303.2,116.8c-8.2,8.2-13.3,18.3-15.5,28.9c-40.1-15.1-86-5.5-116.6,25.1c-30.6,30.6-40.2,76.6-25.1,116.7
	c-10.6,2.1-20.8,7.3-29.1,15.5c-22.1,22.1-22.1,57.9,0,80c22.1,22.1,57.9,22.1,80,0c8.3-8.3,13.5-18.5,15.5-29.2
	c12.4,4.6,25.4,6.9,38.3,6.9c28.7,0,57-11.1,78-32.2c30.5-30.5,40.1-76.2,25.3-116.2c10.7-2.1,20.8-7.3,29.1-15.5
	c22.1-22.1,22.1-57.9,0-80C361.1,94.7,325.3,94.7,303.2,116.8z M369.3,130.1c14.6,14.6,14.6,38.3,0,52.8c-8.4,8.4-20,12.2-31.7,10.6
	c-0.6-0.1-1.1-0.1-1.7,0c-3.5-0.5-7.1,0-10.5,1.6c-4.9,2.3-8.3,6.3-10,11c-1.7,4.6-1.6,9.8,0.6,14.6c12.5,27.1,6.8,59.5-14.3,80.6
	c-21.1,21.1-53.5,26.9-80.6,14.3c-4.8-2.2-10.1-2.3-14.8-0.6c-4.6,1.7-8.6,5.2-10.8,10c-1.4,3.1-2,6.3-1.7,9.5
	c-0.1,0.6-0.1,1.3,0,1.9c2,11.9-1.9,24.1-10.4,32.6c-14.6,14.6-38.3,14.6-52.8,0c-7.1-7.1-10.9-16.4-10.9-26.4
	c0-10,3.9-19.4,10.9-26.4c8.4-8.4,20-12.2,32.3-10.5c1.2,0.3,2.5,0.4,3.8,0.4c2.7,0,5.5-0.6,8.1-1.8c4.8-2.2,8.2-6.1,9.9-10.6
	c1.8-4.7,1.8-10-0.5-14.9c-12.5-27.1-6.8-59.5,14.3-80.6c21.1-21.1,53.5-26.9,80.6-14.3c4.8,2.2,10.1,2.3,14.7,0.6
	c4.6-1.7,8.6-5.2,10.8-10c1.7-3.7,2.1-7.7,1.5-11.6c-2-11.9,1.9-24.1,10.4-32.6C331,115.5,354.7,115.5,369.3,130.1z M221,220.6
	c-16.2,16.2-16.2,42.4,0,58.5c16.2,16.2,42.4,16.2,58.5,0c16.2-16.2,16.2-42.4,0-58.5C263.4,204.5,237.2,204.5,221,220.6z"/>
</svg>
