<?xml version="1.0" encoding="iso-8859-1"?>
<!-- Generator: Adobe Illustrator 19.0.0, SVG Export Plug-In . SVG Version: 6.00 Build 0)  -->
<svg version="1.1" id="Layer_1" xmlns="http://www.w3.org/2000/svg" xmlns:xlink="http://www.w3.org/1999/xlink" x="0px" y="0px"
	 viewBox="0 0 500 500" enable-background="new 0 0 500 500" xml:space="preserve">
<path d="M31.77,485.042c9.013-29.201,17.265-55.939,25.911-83.952C9.104,336.397-6.861,263.556,14.073,184.537
	c15.411-58.175,49.258-104.713,99.541-138.374c100.34-67.171,230.041-52.299,311.445,31.903
	c88.273,91.308,94.289,224.575,15.543,324.407c-72.683,92.146-201.032,118.408-307.618,61.875
	C100.46,470.998,67.232,477.791,31.77,485.042z M166.75,99.19c0,96.289,0,191.537,0,287.279c20.617,0,40.63,0,61.5,0
	c0-46.242,0-91.391,0-137.572c9.099-2.534,17.547-5.551,26.254-7.186c25.464-4.78,31.999,0.776,32.03,26.326
	c0.03,24.048,0.007,48.096,0.007,72.144c0,15.366,0,30.733,0,46.612c21.189,0,40.961,0,61.06,0
	c0-54.508,1.154-108.278-0.501-161.961c-0.793-25.737-15.885-36.521-42.197-37.525c-26.362-1.007-51.805,2.452-76.827,15.536
	c0-42.999,0-84.043,0-126.936C206.717,84.016,186.745,91.599,166.75,99.19z"/>
</svg>
