<?xml version="1.0" encoding="iso-8859-1"?>
<!-- Generator: Adobe Illustrator 19.0.0, SVG Export Plug-In . SVG Version: 6.00 Build 0)  -->
<svg version="1.1" id="Layer_1" xmlns="http://www.w3.org/2000/svg" xmlns:xlink="http://www.w3.org/1999/xlink" x="0px" y="0px"
	 viewBox="0 0 2000 2000" style="enable-background:new 0 0 2000 2000;" xml:space="preserve">
<path d="M33.034,1681.511c29.391-67.399,58.21-133.489,87.844-201.445c17.43,0,35.561,1.346,53.408-0.326
	c24.627-2.307,49.176-6.163,73.514-10.676c34.083-6.319,67.082-16.59,99.078-30.089c38.572-16.275,75.505-35.55,108.808-61.007
	c20.182-15.427,40.444-31.112,58.473-48.907c26.952-26.602,50.827-56.028,70.816-88.455c19.408-31.485,35.069-64.685,46.986-99.639
	c4.02-11.793,7.032-23.93,10.661-36.448c-50.103,0-99.248,0.784-148.351-0.309c-27.158-0.604-54.447-2.942-80.718-11.202
	c-2.029-0.638-3.977-1.529-7.083-2.739c28.745-65.966,57.331-131.564,86.299-198.041c5.119-0.6,10.393-1.736,15.67-1.754
	c42.274-0.147,84.548-0.082,126.823-0.082c2.966,0,5.933,0,10.623,0c-4.713-16.034-8.799-30.971-13.492-45.715
	c-16.311-51.25-41.58-98.003-74.628-140.13c-17.768-22.649-37.546-44.099-58.67-63.656c-40.813-37.785-87.499-67.292-138.385-89.852
	c-42.355-18.778-86.405-31.92-132.166-39.72c-31.68-5.4-63.401-8.577-95.533-8.118c-7.257,0.103-14.535-1.203-22.719-1.944
	C82.145,436.766,53.912,372.078,25.143,306.16c6.395-1.788,12.78-4.328,19.395-5.298c39.002-5.721,78.36-6.669,117.565-4.77
	c52.559,2.547,104.707,8.834,156.236,20.673c50.107,11.512,98.755,26.919,146.032,46.909
	c52.214,22.077,101.444,49.653,147.684,82.315c20.476,14.463,39.886,30.56,58.888,46.948c18.164,15.665,36.057,31.836,52.497,49.267
	c32.271,34.216,61.198,71.09,86.085,111.223c31.232,50.366,55.999,103.522,72.321,160.426c6.64,23.147,10.983,46.952,16.439,70.442
	c0.469,2.02,1.442,3.923,2.185,5.89c61.117,0,121.754,0,183.022,0c3.596-16.834,5.914-34.186,11.11-50.63
	c10.087-31.919,20.855-63.693,33.062-94.853c14.953-38.173,35.15-73.861,58.917-107.196c18.294-25.659,37.976-50.423,58.364-74.464
	c15.186-17.907,31.745-34.823,49.002-50.763c35.929-33.187,74.507-63.133,116.756-87.955c25.273-14.848,50.651-29.705,76.945-42.592
	c53.644-26.293,110.002-45.646,168.127-59.177c29.01-6.753,58.707-10.701,88.209-15.147c16.56-2.496,33.331-3.795,50.054-4.941
	c15.504-1.063,31.068-1.478,46.613-1.687c20.366-0.274,40.816-1.159,61.088,0.249c19.275,1.339,38.373,5.257,57.531,8.162
	c1.456,0.221,2.766,1.403,4.333,2.24c-28.26,64.736-56.459,129.332-85.203,195.178c-17.128,0-33.288-1.127-49.232,0.251
	c-27.137,2.346-54.186,5.92-81.186,9.607c-43.074,5.881-84.318,18.928-124.315,35.32c-47.199,19.344-91.459,44.353-131.278,76.516
	c-17.288,13.965-34.704,28.045-50.211,43.885c-31.44,32.114-58.902,67.449-80.905,106.902
	c-18.287,32.791-32.009,67.344-42.332,103.339c-0.668,2.33-0.939,4.774-1.547,7.96c3.001,0,5.859,0,8.717,0
	c46.666,0,93.353-0.826,139.992,0.32c26.586,0.653,53.318,3.191,78.631,12.894c1.439,0.552,2.737,1.472,4.24,2.297
	c-13.008,29.595-25.9,58.806-38.692,88.061c-14.626,33.451-29.649,66.742-43.453,100.529c-4.392,10.748-12.847,9.675-20.33,9.776
	c-39.522,0.532-79.055,0.25-118.584,0.25c-2.988,0-5.977,0-10.149,0c3.092,11.017,5.433,21.387,8.904,31.364
	c13.217,37.991,30.54,74.148,52.981,107.468c13.23,19.643,28.323,38.199,44.033,55.955c15.143,17.115,31.024,33.955,48.633,48.416
	c23.039,18.92,47.193,36.834,72.495,52.562c37.491,23.306,77.295,42.633,119.859,54.985c30.334,8.802,61.126,16.243,92.04,22.736
	c16.58,3.483,33.823,4.075,50.816,5.261c21.983,1.534,44.015,2.357,66.689,3.52c28.2,64.708,56.47,129.575,85.318,195.768
	c-12.284,2.299-23.933,5.647-35.755,6.456c-26.909,1.841-53.932,3.771-80.854,3.187c-30.893-0.671-61.789-3.391-92.575-6.346
	c-53.668-5.151-106.186-16.475-157.134-34.007c-31.9-10.978-63.314-23.508-94.455-36.517c-43.35-18.109-83.644-42.02-121.821-69.231
	c-23.03-16.414-45.117-34.226-66.897-52.292c-15.288-12.681-29.982-26.228-43.812-40.484
	c-27.918-28.778-54.394-59.024-75.941-92.873c-19.463-30.575-38.215-61.824-54.385-94.22
	c-21.604-43.283-36.589-89.253-46.592-136.706c-1.55-7.351-2.89-14.745-4.43-22.098c-0.2-0.952-1.024-1.774-1.474-2.514
	c-62.22,0-124.177,0-186.09,0c-6.291,38.368-17.105,75.134-30.98,110.914c-8.727,22.505-18.238,44.837-29.254,66.293
	c-20.302,39.545-44.539,76.638-72.124,111.651c-23.382,29.679-48.808,57.502-76.88,82.459
	c-27.784,24.702-57.46,47.444-87.545,69.343c-33.308,24.245-69.5,44.002-106.777,61.603c-44.721,21.115-90.692,38.951-138.79,50.769
	c-28.636,7.036-57.345,13.958-86.308,19.412c-19.589,3.689-39.72,4.406-59.532,7.033c-41.417,5.491-83.024,3.008-124.536,2.899
	C67.754,1687.24,50.924,1683.626,33.034,1681.511z"/>
</svg>
