<?xml version="1.0" encoding="iso-8859-1"?>
<!-- Generator: Adobe Illustrator 19.0.0, SVG Export Plug-In . SVG Version: 6.00 Build 0)  -->
<svg version="1.1" id="Layer_1" xmlns="http://www.w3.org/2000/svg" xmlns:xlink="http://www.w3.org/1999/xlink" x="0px" y="0px"
	 viewBox="0 0 500 500" style="enable-background:new 0 0 500 500;" xml:space="preserve">
<path d="M361.737,444.924c-39.191-0.971-71.338-16.378-96.035-47.087c-13.201-16.414-22.582-34.719-28.151-54.989
	c-5.843-21.266-4.721-42.43,1.27-63.466c0.616-2.162,1.497-4.287,2.535-6.283c4.063-7.81,9.772-8.943,16.372-3.189
	c2.269,1.978,4.263,4.285,6.289,6.526c20.267,22.427,45.288,35.473,75.293,39.906c25.862,3.821,50.945,2.234,75.569-6.615
	c28.445-10.223,50.291-28.425,66.196-54.037c1.817-2.927,4.793-5.134,7.232-7.675c4.073,3.715,0.831,7.581,0.146,11.328
	c-3.359,18.375-12.075,34.86-18.706,52.063c-9.635,24.999-19.952,49.735-29.777,74.662c-6.182,15.682-15.615,29.139-26.511,41.866
	c-10.468,12.227-24.406,15.489-39.26,16.928C370.081,445.262,365.893,444.924,361.737,444.924z M150.66,465.37
	c5.209,6.288,11.5,10.648,19.545,12.76c14.313,3.758,28.799,6.337,43.57,5.173c12.738-1.004,25.409-2.992,38.071-4.817
	c24.187-3.486,48.393-6.884,72.5-10.874c13.715-2.27,27.262-5.581,40.85-8.579c2.141-0.472,4.236-1.575,6.043-2.832
	c0.436-0.303-0.177-3.393-0.623-3.475c-2.559-0.467-5.221-0.616-7.832-0.503c-13.37,0.577-26.305-1.929-38.916-5.924
	c-32.388-10.261-56.882-30.591-74.339-59.531c-21.698-35.971-29.669-73.76-15.236-114.633c4.857-13.754-0.325-19.692-14.466-17.423
	c-1.47,0.236-2.87,0.881-4.321,1.265c-27.705,7.325-50.043,22.511-66.877,45.719c-17.701,24.403-29.155,50.996-28.54,83.894
	C118.936,415.036,130.983,441.617,150.66,465.37z M345.443,30.616c-4.618-4.867-9.988-7.665-16.27-9.614
	c-24.553-7.616-49.216-5.237-73.954-1.391c-17.469,2.716-34.949,5.361-52.442,7.919c-17.491,2.558-35.062,4.631-52.479,7.612
	c-6.995,1.197-13.708,4.146-20.457,6.556c-1.081,0.386-2.354,2.173-2.286,3.232c0.056,0.872,1.868,1.872,3.085,2.355
	c0.983,0.39,2.242,0.163,3.371,0.093c20.748-1.293,40.329,3.228,58.945,12.125c27.25,13.023,46.919,34.037,61.425,60.01
	c11.179,20.016,17.616,41.556,17.996,64.698c0.258,15.667-3.303,30.572-8.128,45.354c-3.787,11.603,2.116,17.44,14.116,14.864
	c26.781-5.75,48.943-19.059,66.526-40.071c21.512-25.708,34.615-54.641,34.574-93.951C379.815,82.561,368.083,54.474,345.443,30.616
	z M390.85,308.991c47.446-7.647,86.868-43.636,98.205-90.513c0.689-2.847,1.062-6.071,0.464-8.882
	c-4.383-20.581-12.592-39.377-25.908-55.929c-19.626-24.397-38.77-49.181-58.404-73.572c-8.741-10.859-18.017-21.305-27.408-31.613
	c-2.237-2.456-5.1-6.545-9.174-3.828c-0.776,0.518,1.117,5.993,2.576,8.761c14.05,26.666,18.141,54.742,13.197,84.441
	c-2.902,17.437-9.334,33.485-18.161,48.488c-16.366,27.815-38.657,49.151-69.856,59.697c-7.777,2.629-15.884,4.308-23.886,6.233
	c-8.395,2.019-11.44,9.169-6.244,16.074c3.375,4.486,7.277,8.682,11.451,12.443c24.162,21.772,52.907,30.998,85.184,31.403
	C372.212,311.148,381.597,310.483,390.85,308.991z M264.092,167.908c-2.701-19.406-9.97-37.093-20.732-53.349
	c-14.669-22.159-33.258-39.741-57.861-50.842c-21.846-9.857-44.685-10.469-67.727-8.389c-10.339,0.933-20.108,3.9-28.277,12.314
	C75.223,82.34,64.922,99.154,57.371,117.908c-10.014,24.873-20.155,49.699-29.773,74.726c-6.357,16.54-12.063,33.34-17.613,50.171
	c-0.871,2.641,0.636,6.066,1.044,9.129c1.927-2.007,4.343-3.728,5.706-6.063c17.833-30.554,43.891-50.426,77.886-59.729
	c18.553-5.077,37.245-6.997,56.749-4.763c35.365,4.051,65.187,17.515,87.833,45.517c6.864,8.487,15.895,6.941,19.747-3.432
	c4.497-12.112,7.007-24.609,7.183-37.654C265.46,179.841,264.92,173.854,264.092,167.908z M9.936,289.531
	c4.267,19.02,11.339,36.792,23.478,52.273c16.302,20.789,32.44,41.711,49.012,62.283c13.254,16.453,25.184,34.078,41.181,48.174
	c2.733,2.408,6.075,4.125,9.136,6.161c2.43-4.728-1.528-7.652-3.386-10.947c-16.12-28.599-20.054-59.063-13.582-90.899
	c5.8-28.529,19.651-53.278,39.914-73.737c18.916-19.099,41.752-32.003,69.196-35.455c11-1.384,14.277-10.401,7.08-18.817
	c-10.175-11.897-22.421-21.253-36.433-28.341c-26.991-13.652-56.11-15.454-84.758-10.761c-45.736,7.493-78.283,33.8-96.13,77.133
	c-2.425,5.887-3.818,12.199-5.485,17.65C9.491,286.551,9.608,288.065,9.936,289.531z"/>
</svg>
