<?xml version="1.0" encoding="iso-8859-1"?>
<!-- Generator: Adobe Illustrator 19.0.0, SVG Export Plug-In . SVG Version: 6.00 Build 0)  -->
<svg version="1.1" id="Layer_1" xmlns="http://www.w3.org/2000/svg" xmlns:xlink="http://www.w3.org/1999/xlink" x="0px" y="0px"
	 viewBox="0 0 2000 2000" style="enable-background:new 0 0 2000 2000;" xml:space="preserve">
<path d="M1000.862,16.159c536.694-0.13,981.239,443.874,981.502,980.308c0.263,536.443-444.021,981.168-980.399,981.374
	c-542.893,0.208-982.669-441.911-982.422-987.654C19.784,457.966,464.768,16.289,1000.862,16.159z M782.857,780.912
	c0-149.779,0-294.596,0-439.388c-147.877,0-291.214,0-436.409,0c0,438.132,0,873.866,0,1309.837c147.445,0,291.943,0,439.929,0
	c0-101.213,0-198.95,0-296.43c144.806-56.81,286.475-112.389,434.15-170.324c0,159.793,0,314.315,0,467.411
	c151.52,0,298.137,0,445.204,0c0-438.596,0-874.332,0-1308.921c-151.185,0-298.966,0-449.663,0c0,83.8,0,163.647,0,238.886
	C1071.518,648.36,931.189,712.798,782.857,780.912z"/>
</svg>
