<?xml version="1.0" encoding="iso-8859-1"?>
<!-- Generator: Adobe Illustrator 19.0.0, SVG Export Plug-In . SVG Version: 6.00 Build 0)  -->
<svg version="1.1" id="Layer_1" xmlns="http://www.w3.org/2000/svg" xmlns:xlink="http://www.w3.org/1999/xlink" x="0px" y="0px"
	 viewBox="0 0 500 500" enable-background="new 0 0 500 500" xml:space="preserve">
<path d="M250.644,477.158c-15.354,8.366-31.682,13.94-48.909,16.459c-14.978,2.19-29.95,1.887-45.015-0.621
	c-25.285-4.209-47.877-14.293-67.836-30.026c-26.094-20.569-43.521-47.058-51.501-79.456c-3.32-13.479-5.21-27.202-5.214-41.124
	c-0.018-62.48-0.459-124.964,0.163-187.437c0.368-36.963,11.693-70.431,36.523-98.67c22.559-25.655,50.642-41.873,83.995-48.539
	c33.316-6.658,65.181-1.702,95.327,14.051c0.722,0.377,1.498,0.649,1.808,0.781c8.982-3.565,17.503-7.45,26.345-10.353
	c18.968-6.227,38.37-8.49,58.405-6.367c38.387,4.068,70.38,20.52,96.366,48.73c14.541,15.786,24.884,34.156,30.934,54.809
	c4.714,16.09,7.184,32.464,7.129,49.33c-0.204,63.296,0.002,126.594-0.19,189.89c-0.023,7.686-1.189,15.424-2.419,23.041
	c-3.011,18.647-9.336,36.146-19.31,52.244c-16.586,26.77-39.372,46.334-68.239,58.959c-21.499,9.402-43.972,13.35-67.274,11.993
	c-20.761-1.21-40.43-6.862-58.861-16.614C252.15,477.859,251.405,477.527,250.644,477.158z M208.593,222.728c0-2.21,0-4.204,0-6.197
	c0-20.003,0.005-40.006-0.006-60.008c-0.001-2.244,0.04-4.499-0.158-6.729c-1.726-19.463-22.367-31.479-40.863-22.287
	c-10.604,5.27-15.543,14.652-15.55,26.446c-0.038,64.09-0.035,128.181,0.034,192.271c0.003,3.02,0.444,6.128,1.235,9.045
	c5.574,20.554,32.088,27.432,47.038,12.292c5.754-5.828,8.32-12.829,8.293-20.975c-0.07-20.819-0.031-41.638-0.009-62.458
	c0.002-2.197,0.18-4.394,0.285-6.784c28.137,0,55.765,0,83.861,0c0,2.586,0,4.792,0,6.998c0.001,21.227-0.081,42.455,0.036,63.682
	c0.068,12.357,8.251,23.274,19.73,26.548c13.09,3.733,25.4-1.583,31.791-11.058c3.849-5.706,4.956-11.855,4.946-18.55
	c-0.074-50.007-0.04-100.014-0.041-150.021c0-14.288-0.049-28.576,0.004-42.863c0.061-16.498-16.037-32.386-36.71-26.458
	c-13.213,3.789-19.902,17.104-19.815,26.542c0.197,21.226,0.06,42.454,0.059,63.682c0,2.196,0,4.391,0,6.881
	C264.511,222.728,236.867,222.728,208.593,222.728z M307.462,111.701c-0.036-0.345,0.017-0.991-0.178-1.55
	c-10.351-29.711-28.438-53.47-55.073-70.334c-28.486-18.036-59.553-24.2-92.892-19.092c-27.401,4.199-51.127,15.992-71.032,35.092
	c-27.895,26.766-41.542,59.906-41.696,98.411c-0.238,59.605-0.107,119.211-0.016,178.816c0.014,9.162,0.484,18.333,1.032,27.482
	c0.86,14.354,4.25,28.214,10.476,41.117c24.216,50.18,64.596,76.553,119.985,79.719c15.114,0.864,30.022-1.893,44.419-6.851
	c4.7-1.619,9.446-3.125,13.901-5.856c-6.268-5.19-12.212-10.112-18.309-15.16c-0.374,0.089-0.97,0.183-1.536,0.37
	c-28.074,9.29-55.986,8.653-82.529-4.312C91.954,429.01,68.862,395.17,68.51,347.759c-0.484-65.113-0.154-130.233-0.066-195.35
	c0.008-5.881,0.4-11.82,1.278-17.632c4.199-27.81,17.383-50.918,39.057-68.462c32.288-26.137,68.827-32.837,108.338-19.631
	c28.325,9.467,49.269,28.146,63.015,54.616c3.817,7.351,6.497,15.292,9.468,22.409C295.158,119.972,301.021,116.031,307.462,111.701
	z M193.778,388.537c4.439,14.793,12.575,30.164,22.121,41.616c33.176,39.8,75.436,56.808,126.934,49.089
	c33.479-5.018,60.709-21.562,81.988-47.606c20.187-24.708,29.81-53.341,29.781-85.275c-0.059-64.309-0.028-128.619-0.005-192.928
	c0.003-8.572-0.846-17.009-2.318-25.48c-4.732-27.221-17.217-50.37-36.622-69.689c-25.68-25.567-57.075-38.466-93.166-39.558
	c-13.258-0.401-26.39,1.549-39.145,5.551c-6.281,1.971-12.516,3.99-18.576,7.119c6.485,5.346,12.577,10.369,18.621,15.352
	c17.237-5.851,34.631-7.832,52.54-5.328c30.565,4.273,55.123,18.917,74.129,42.94c16.153,20.417,23.346,44.105,23.427,69.875
	c0.195,62.471,0.139,124.944-0.027,187.416c-0.022,8.308-0.801,16.686-2.049,24.907c-3.808,25.093-15.517,46.219-34.163,63.205
	c-28.99,26.408-63.262,35.886-101.287,26.978c-41.954-9.828-69.409-36.484-82.68-77.579c-0.347-1.073-0.844-2.098-1.088-2.698
	C205.99,380.516,200.096,384.388,193.778,388.537z M279.128,209.315c0-2.674,0-4.696,0-6.719c0-16.33,0.209-32.664-0.099-48.988
	c-0.13-6.878-0.883-13.823-2.156-20.586c-7.994-42.465-44.956-76.413-90.753-78.761c-30.348-1.556-56.397,8.701-77.36,30.81
	c-16.744,17.66-26.399,38.911-26.574,63.25c-0.486,67.97-0.201,135.946-0.097,203.919c0.007,4.849,0.614,9.781,1.624,14.53
	c5.34,25.113,18.169,45.564,39.069,60.608c22.984,16.544,48.636,21.801,76.423,17.031c2.696-0.463,5.288-1.526,8.233-2.401
	c-4.585-6.406-8.82-12.321-13.064-18.25c-2.698,0.181-5.149,0.183-7.548,0.536c-9.034,1.331-17.823-0.025-26.504-2.349
	c-32.917-8.812-57.228-38.135-57.314-76.041c-0.144-63.891-0.12-127.782,0.014-191.673c0.036-17.093,4.537-33.005,14.962-46.835
	c18.542-24.599,43.538-34.74,73.755-31.111c16.763,2.013,31.339,9.751,43.261,21.908c14.132,14.411,22.01,31.634,22.245,51.978
	c0.203,17.552,0.085,35.108,0.133,52.661c0.006,2.155,0.155,4.311,0.238,6.482C265.041,209.315,271.728,209.315,279.128,209.315z
	 M222.678,290.924c0,2.38,0,4.207,0,6.033c0,17.351,0.023,34.702-0.009,52.053c-0.018,10.07,1.615,19.819,4.754,29.413
	c14.864,45.439,61.067,75.75,112.356,65.895c48.434-9.306,79.689-51.375,79.62-96.319c-0.1-65.322-0.013-130.643-0.054-195.965
	c-0.003-4.479,0.025-9.031-0.706-13.425c-4.166-25.025-15.412-46.094-35.354-62.208c-23.369-18.884-49.96-25.541-79.486-20.986
	c-3.285,0.507-6.478,1.614-10.038,2.525c4.793,6.685,9.158,12.774,13.391,18.678c9.892-1.158,19.316-1.366,28.848,0.418
	c34.763,6.507,62.083,37.866,62.109,75.065c0.044,65.322-0.018,130.643,0.043,195.965c0.01,10.337-2.167,20.2-6.15,29.605
	c-14.198,33.521-50.883,53.538-88.109,45.046c-33.776-7.706-59.574-37.376-60.014-74.506c-0.203-17.145-0.025-34.293-0.049-51.44
	c-0.003-1.944-0.197-3.888-0.304-5.847C236.419,290.924,229.943,290.924,222.678,290.924z M321.783,110.101
	c1.868,0.41,3.817,0.966,5.805,1.252c12.983,1.868,22.48,8.899,29.393,19.757c4.65,7.305,5.925,15.403,5.915,23.933
	c-0.07,63.278-0.037,126.557-0.042,189.836c0,1.632-0.045,3.265-0.1,4.896c-0.995,29.377-33.949,50.478-62.553,34.123
	c-13.54-7.742-20.803-19.863-21.01-35.628c-0.228-17.348-0.049-34.7-0.078-52.051c-0.003-1.759-0.218-3.519-0.33-5.202
	c-7.322,0-14.156,0-21.211,0c-0.08,1.528-0.197,2.724-0.197,3.921c-0.012,17.759-0.087,35.518,0.051,53.276
	c0.031,4.048,0.426,8.176,1.305,12.123c8.197,36.806,44.13,58.62,80.772,47.78c26.592-7.866,44.953-32.665,44.977-60.362
	c0.054-64.503,0.011-129.007,0.021-193.51c0.003-19.368-6.753-35.846-21.238-48.834c-13.928-12.489-30.326-17.573-49.112-15.695
	C316.742,96.637,319.22,103.255,321.783,110.101z M243.584,209.327c0.108-1.691,0.25-2.88,0.251-4.069
	c0.014-17.964,0.06-35.929-0.039-53.893c-0.018-3.235-0.517-6.488-1.025-9.696c-5.325-33.666-39.362-60.289-78.539-50.356
	c-28.023,7.105-47.167,32.854-47.111,61.054c0.13,65.121-0.115,130.243,0.12,195.363c0.091,25.228,11.977,43.949,33.96,56.051
	c11.136,6.131,23.247,8.085,36.058,6.462c-2.673-6.913-5.223-13.51-7.831-20.256c-2.7-0.492-5.502-0.912-8.263-1.521
	c-18.288-4.036-32.681-20.616-32.728-39.852c-0.161-65.325-0.064-130.65-0.048-195.976c0.001-2.24-0.075-4.531,0.34-6.712
	c5.009-26.357,29.881-38.473,48.259-34.708c11.644,2.385,20.787,7.757,27.682,17.29c5.577,7.712,7.954,16.408,7.991,25.792
	c0.064,16.535,0.008,33.071,0.033,49.606c0.003,1.754,0.214,3.509,0.339,5.42C229.947,209.327,236.424,209.327,243.584,209.327z"/>
</svg>
