<?xml version="1.0" encoding="iso-8859-1"?>
<!-- Generator: Adobe Illustrator 19.0.0, SVG Export Plug-In . SVG Version: 6.00 Build 0)  -->
<svg version="1.1" id="Layer_1" xmlns="http://www.w3.org/2000/svg" xmlns:xlink="http://www.w3.org/1999/xlink" x="0px" y="0px"
	 viewBox="0 0 500 500" style="enable-background:new 0 0 500 500;" xml:space="preserve">
<path id="XMLID_4_" d="M153.876,183.262c21.007,0,41.322,0,62.413,0c0,14.193,0,28.017,0,42.378c27.994,0,55.214,0,82.888,0
	c0-16.227,0-32.232,0-49.361c-2.555,0-5.089,0-7.623,0c-52.879,0.005-105.759,0.111-158.638-0.131
	c-5.639-0.026-8.593,1.849-11.255,6.602c-11.971,21.369-24.205,42.593-36.578,63.732c-2.116,3.616-2.043,6.317,0.022,9.859
	c12.216,20.949,24.364,41.94,36.19,63.11c2.932,5.248,6.288,7.852,12.456,7.014c3.971-0.54,8.075-0.101,12.659-0.101
	c0,16.851,0,33.049,0,49.734c-1.487,0.253-3.063,0.751-4.64,0.754c-18.267,0.043-36.539,0.197-54.797-0.208
	c-2.643-0.059-6.338-2.243-7.67-4.534c-22.331-38.399-44.279-77.02-66.581-115.435c-2.438-4.2-2.078-7.06,0.211-11.007
	c22.048-38.012,43.966-76.1,65.715-114.284c2.448-4.299,5.175-5.886,10.142-5.804c18.743,0.309,37.494,0.127,56.242,0.128
	c2.573,0,5.147,0,9.159,0c-0.793-11.766-1.126-22.739-2.412-33.598c-0.817-6.898-5.03-11.819-12.459-13.097
	c0-4.194,0-7.958,0-12.164c30.46,0,60.637,0,91.187,0c0.515,6.022,2.654,12.053-6.062,14.812c-2.484,0.786-5.084,4.988-5.484,7.917
	c-1.604,11.744-2.364,23.604-3.475,35.843c28.997,0,56.072,0,83.079,0c4.947-23.36-0.285-42.151-13.149-46.592
	c0-3.653,0-7.439,0-11.83c30.238,0,60.588,0,91.379,0c0,3.736,0,7.46,0,11.708c-11.936,2.45-13.582,12.316-13.78,22.006
	c-0.536,26.188-0.358,52.392-0.378,78.59c-0.034,46.149-0.005,92.298-0.002,138.448c0,2.582,0,5.163,0,8.53
	c8.9,0,17.005,0.151,25.094-0.134c1.522-0.054,3.522-1.507,4.383-2.888c4.698-7.529,9.738-14.954,13.363-22.999
	c1.94-4.305,1.273-9.784,1.835-15.243c27.309,0,54.523,0,82.158,0c0,4.478,0,8.691,0,13.189
	c-9.605,2.385-15.404,9.026-20.058,17.281c-10.493,18.612-21.422,36.98-31.816,55.646c-2.43,4.364-5.127,5.861-10.088,5.848
	c-67.301-0.165-134.602-0.106-201.903-0.102c-2.631,0-5.261,0-8.746,0c-0.471,11.94-2.621,23.893,3.026,34.631
	c2.392,4.549,7.817,8.5,12.763,10.494c9.354,3.772,9.624,3.103,8.368,14.79c-37.248,0-74.563,0-112.458,0
	c0-3.19-0.479-6.389,0.184-9.33c0.383-1.699,2.402-3.946,4.04-4.3c13.923-3.013,20.058-9.22,20.378-23.599
	c0.55-24.743,0.376-49.504,0.406-74.258c0.054-45.668,0.033-91.336,0.056-137.004C153.619,186.89,153.759,185.478,153.876,183.262z
	 M299.146,325.983c0-16.559,0-32.703,0-48.984c-27.668,0-54.843,0-82.086,0c0,16.681,0,32.781,0,48.984
	C244.821,325.983,271.816,325.983,299.146,325.983z M369.417,176.35c5.117,0,9.692,0.341,14.193-0.092
	c4.929-0.474,7.889,1.09,10.199,5.65c5.837,11.524,15.641,21.41,13.036,35.754c28.213,0,55.273,0,84.386,0
	c-1.547-5.217-1.607-12.135-4.377-13.482c-7.875-3.83-13.163-9.421-17.291-16.64c-7.984-13.962-16.007-27.903-23.836-41.952
	c-11.087-19.893-11.019-19.929-33.69-19.897c-7.692,0.011-15.383,0.004-23.075,0.005c-6.421,0.001-12.841,0-19.544,0
	C369.417,143.386,369.417,159.614,369.417,176.35z M299.522,383.995c0,4.488-0.044,8.504,0.008,12.519
	c0.186,14.293-6.611,25.939-21.246,26.766c-1.286,0.073-3.178,2.5-3.48,4.084c-0.562,2.949-0.161,6.082-0.161,9.359
	c38.026,0,75.307,0,112.451,0c0-4.642,0-8.642,0-13.25c-26.753-1.197-24.181-21.162-24.663-39.478
	C341.057,383.995,320.724,383.995,299.522,383.995z"/>
</svg>
