<?xml version="1.0" encoding="iso-8859-1"?>
<!-- Generator: Adobe Illustrator 19.0.0, SVG Export Plug-In . SVG Version: 6.00 Build 0)  -->
<svg version="1.1" id="Layer_1" xmlns="http://www.w3.org/2000/svg" xmlns:xlink="http://www.w3.org/1999/xlink" x="0px" y="0px"
	 viewBox="0 0 500 500" style="enable-background:new 0 0 500 500;" xml:space="preserve">
<path d="M92.11,339.677c0.467-41.089,11.514-74.322,34.476-103.19c6.504-8.176,14.58-15.107,21.973-22.57
	c6.116-6.173,12.579-12.028,18.382-18.479c17.524-19.479,33.081-40.416,45.939-63.312c6.239-11.109,10.052-23.131,13.592-35.24
	c4.018-13.743,6.202-27.895,7.594-42.096c1.061-10.826,1.035-21.764,1.309-32.656c0.069-2.739-0.511-5.503-0.889-8.242
	c-0.306-2.215,0.239-3.901,2.175-5.247c2.173-1.511,3.46-0.057,4.784,1.169c4.739,4.39,9.693,8.589,14.078,13.313
	c17.506,18.861,31.907,39.854,42.558,63.341c9.118,20.107,15.583,41,18.422,62.938c0.873,6.744,1.854,13.508,2.123,20.29
	c0.614,15.482-3.959,29.815-11.518,43.054c-11.713,20.514-27.358,37.82-44.992,53.462c-6.766,6.002-13.144,12.503-19.218,19.211
	c-12.002,13.256-23.302,27.077-33.399,41.9c-15.548,22.824-28.569,46.917-38.77,72.592c-6.631,16.69-12.123,33.704-16.349,51.144
	c-1.325,5.469-4.268,6.425-8.689,2.709c-9.517-7.999-17.33-17.516-24.551-27.586c-13.689-19.091-22.357-40.31-26.48-63.325
	C93.047,353.844,92.63,344.615,92.11,339.677z M408.722,307.338c-1.174-16.389-4.804-32.309-9.451-48.003
	c-4.392-14.834-10.401-29.029-17.656-42.693c-1.145-2.158-2.573-4.827-5.183-4.073c-1.628,0.47-3.014,2.967-3.826,4.849
	c-2.244,5.2-4.037,10.593-6.176,15.841c-6.548,16.071-14.476,31.423-24.143,45.859c-15.995,23.884-35.481,44.821-55.608,65.146
	c-11.308,11.419-22.446,22.949-32.423,35.54c-15.535,19.603-26.116,41.561-31.197,66.154c-1.219,5.898-3.046,11.645-6.516,16.854
	c-4.132,6.204-9.538,10.742-15.973,14.177c-2.115,1.129-3.987,2.348-3.548,4.922c0.449,2.628,2.478,3.912,5.049,4.448
	c2.151,0.449,4.243,1.177,6.396,1.614c8.442,1.715,16.835,3.876,25.363,4.917c13.039,1.59,26.078,0.987,39.176-0.738
	c16.965-2.235,32.956-7.212,48.218-14.678c17.73-8.673,33.226-20.407,46.569-34.968c12.569-13.716,22.477-29.124,29.684-46.289
	c9.048-21.55,12.61-44.086,12.73-67.357C409.714,321.685,409.236,314.51,408.722,307.338z"/>
</svg>
