<?xml version="1.0" encoding="iso-8859-1"?>
<!-- Generator: Adobe Illustrator 19.0.0, SVG Export Plug-In . SVG Version: 6.00 Build 0)  -->
<svg version="1.1" id="Layer_1" xmlns="http://www.w3.org/2000/svg" xmlns:xlink="http://www.w3.org/1999/xlink" x="0px" y="0px"
	 viewBox="0 0 2000 2000" style="enable-background:new 0 0 2000 2000;" xml:space="preserve">
<path d="M1001.393,14.772c545.692,0.138,985.021,441.147,984.611,988.378c-0.406,542.825-442.211,982.493-986.921,982.148
	c-545.156-0.345-984.173-442.044-983.587-989.593C16.076,454.287,457.953,14.634,1001.393,14.772z M509.661,344.151
	c0,350.506,0,699.562,0,1048.744c65.478,0,129.503,0,195.772,0c0-98.311,0-195.67,0-293.078c198.095,0,393.934,0,591.281,0
	c0,185.875,0,370.291,0,555.508c66.027,0,130.534,0,195.123,0c0-350.294,0-699.351,0-1048.531c-65.479,0-129.504,0-195.773,0
	c0,98.311,0,195.673,0,293.076c-198.095,0-393.934,0-591.281,0c0-185.876,0-370.292,0-555.719
	C639.254,344.151,575.228,344.151,509.661,344.151z"/>
</svg>
