<?xml version="1.0" encoding="utf-8"?>
<!-- Generator: Adobe Illustrator 25.1.0, SVG Export Plug-In . SVG Version: 6.00 Build 0)  -->
<svg version="1.1" id="hum" xmlns="http://www.w3.org/2000/svg" xmlns:xlink="http://www.w3.org/1999/xlink" x="0px" y="0px"
	 viewBox="0 0 500 500" style="enable-background:new 0 0 500 500;" xml:space="preserve">
<g>
	<path d="M331.2,169.5v0.4h-2.7v-0.1c-11.2,32.5-41.5,55.7-77.2,55.7c-35.7,0-65.9-23.3-77.2-55.7h-2H172H41.5v2.4v326.4h130.6
		V342.7c24.5,10.1,51.1,15.8,79.2,15.8c28.3,0,55.2-5.7,79.9-16v156.1h130.6V169.5H331.2z"/>
	<ellipse transform="matrix(0.7071 -0.7071 0.7071 0.7071 -10.9919 92.8633)" cx="106.6" cy="59.7" rx="58.1" ry="58.1"/>
	<ellipse transform="matrix(0.9732 -0.2298 0.2298 0.9732 -3.2058 91.867)" cx="392.9" cy="59.7" rx="58.1" ry="58.1"/>
</g>
</svg>
