<?xml version="1.0" encoding="iso-8859-1"?>
<!-- Generator: Adobe Illustrator 19.0.0, SVG Export Plug-In . SVG Version: 6.00 Build 0)  -->
<svg version="1.1" id="Layer_1" xmlns="http://www.w3.org/2000/svg" xmlns:xlink="http://www.w3.org/1999/xlink" x="0px" y="0px"
	 viewBox="0 0 500 500" style="enable-background:new 0 0 500 500;" xml:space="preserve">
<path d="M5.025,252.767c-0.415-11.195,4.401-18.894,10.35-25.075c29.528-30.684,59.509-60.934,89.446-91.221
	c27.516-27.837,55.223-55.485,82.758-83.304c11.212-11.328,21.904-23.185,33.405-34.204c5.134-4.919,11.251-9.299,17.689-12.25
	c8.946-4.101,17.597-2.658,25.083,4.769c18.116,17.974,36.533,35.643,54.795,53.47c41.392,40.405,82.767,80.828,124.141,121.25
	c13.616,13.303,26.899,26.967,40.903,39.847c13.708,12.608,13.658,25.804,3.466,38.175c-5.065,6.148-10.33,12.166-15.895,17.861
	c-20.218,20.688-40.592,41.223-60.923,61.801c-25.15,25.456-50.367,50.845-75.454,76.361c-17.576,17.877-34.873,36.03-52.541,53.814
	c-4.775,4.806-10.126,9.208-15.776,12.943c-13.285,8.783-21.888,7.823-33.802-3.136c-6.697-6.161-13.301-12.429-19.809-18.79
	c-33.485-32.723-66.997-65.419-100.355-98.271C89.735,344.38,67.262,321.65,44.534,299.18
	c-10.274-10.158-20.677-20.201-31.351-29.934C7.665,264.215,5.478,258.119,5.025,252.767z M100.075,190.015
	c-0.444,3.549-1.048,6.152-1.054,8.756c-0.081,33.558-0.113,67.117-0.02,100.675c0.007,2.486,1.071,4.969,1.782,8.055
	c11.826-0.088,23.084,0.542,35.728-0.556c0-15.735,0-30.395,0-45.183c8.801,0,16.123,0,23.879,0c0,8.345-0.067,15.559,0.018,22.771
	c0.088,7.435,0.323,14.869,0.493,22.3c12.778,0,24.03,0,35.882,0c0-39.111,0-77.443,0-116.358
	c-12.258-1.854-23.827-2.446-36.599,0.24c0,13.504,0,26.65,0,40.337c-8.263,0-15.314,0-23.846,0c0-13.756,0-26.898,0-40.99
	C123.36,188.393,111.859,188.52,100.075,190.015z M417.837,307.507c-1.756-10.64-8.013-16.694-11.905-23.916
	c-4.117-7.64-8.759-14.998-13.836-23.607c3.535-3.172,7.14-5.933,10.182-9.217c18.085-19.517,9.898-50.378-15.616-57.731
	c-7.944-2.289-16.439-3.181-24.738-3.612c-14.781-0.767-29.634-1.47-45.017,0.946c0,38.812,0,77.132,0,116.479
	c12.096,1.399,23.59,1.37,35.358-0.21c2.997-13.458-1.451-26.751,3.058-41.521c3.387,5.448,5.712,8.829,7.67,12.411
	c4.2,7.682,8.273,15.436,12.27,23.227c1.821,3.55,3.879,6.701,8.357,6.728C394.607,307.552,405.594,307.507,417.837,307.507z
	 M268.908,190.579c0,4.126,0.003,7.837-0.001,11.549c-0.021,19.474-0.007,38.948-0.097,58.422
	c-0.019,4.188-0.052,8.432-0.718,12.548c-1.158,7.158-3.797,9.432-10.315,9.881c-6.982,0.481-10.654-1.785-12.334-9.015
	c-1.196-5.145-1.515-10.578-1.57-15.889c-0.196-18.708-0.11-37.419-0.13-56.13c-0.004-3.724-0.001-7.449-0.001-11.672
	c-12.971-1.971-24.529-1.962-36.318,0.239c-0.366,3.074-0.863,5.312-0.865,7.552c-0.019,23.291-0.044,46.583,0.161,69.873
	c0.037,4.155,0.656,8.436,1.813,12.424c2.603,8.978,7.27,16.66,15.439,21.843c15.942,10.114,33.116,9.816,50.713,6.198
	c10.98-2.257,19.406-7.974,25.578-17.524c4.796-7.42,6.232-15.666,6.416-23.942c0.508-22.899,0.288-45.815,0.273-68.724
	c-0.001-2.234-0.578-4.467-0.86-6.498C297.712,188.391,285.038,187.897,268.908,190.579z M354.842,239.835
	c13.135,1.15,18.658-1.993,19.053-10.508c0.467-10.074-4.737-13.711-20.746-12.976C354.224,224.667,351.518,232.41,354.842,239.835z
	"/>
</svg>
