<?xml version="1.0" encoding="utf-8"?>
<!-- Generator: Adobe Illustrator 24.2.0, SVG Export Plug-In . SVG Version: 6.00 Build 0)  -->
<svg version="1.1" id="HUSD" xmlns="http://www.w3.org/2000/svg" xmlns:xlink="http://www.w3.org/1999/xlink" x="0px" y="0px"
	 viewBox="0 0 500 500" style="enable-background:new 0 0 500 500;" xml:space="preserve">
<path d="M249.6,4.6C114.1,4.6,4.2,114.5,4.2,250s109.9,245.4,245.4,245.4S495,385.5,495,250S385.1,4.6,249.6,4.6z M212.3,351h-38
	v-61.4c21,0,38,17,38,38V351z M324.9,351h-38v-64c0-9.9-8-18-18-18h-55.8c-21.4,0-38.8-17.4-38.8-38.8v-82.8h38v65.7
	c0,9.9,8,18,17.9,18h55.8c21.5,0,38.8,17.4,38.8,38.8V351z M324.9,210.3c-21,0-38-17-38-38v-24.9h38V210.3z"/>
</svg>
