<?xml version="1.0" encoding="iso-8859-1"?>
<!-- Generator: Adobe Illustrator 19.0.0, SVG Export Plug-In . SVG Version: 6.00 Build 0)  -->
<svg version="1.1" id="Layer_1" xmlns="http://www.w3.org/2000/svg" xmlns:xlink="http://www.w3.org/1999/xlink" x="0px" y="0px"
	 viewBox="0 0 2000 2000" style="enable-background:new 0 0 2000 2000;" xml:space="preserve">
<path d="M332.055,1634.319c-69.497-22.339-85.827-43.029-85.878-111.992c-0.275-373.959-0.239-747.918,0.2-1121.877
	c0.021-18,2.42-36.794,7.971-53.832c12.894-39.578,49.125-61.484,88.92-56.719c40.613,4.863,68.402,33.917,72.571,76.246
	c0.816,8.285,0.831,16.671,0.832,25.011c0.04,378.968,0.163,757.935-0.078,1136.903
	C416.548,1595.385,401.987,1613.186,332.055,1634.319z M1756.845,1520.803c0.245-373.84,0.2-747.68-0.175-1121.519
	c-0.016-16.389-2.055-33.458-6.909-49.04c-18.423-59.129-83.09-79.469-132.196-42.604c-28.765,21.595-31.443,52.365-31.422,84.966
	c0.245,378.846,0.024,757.693,0.284,1136.54c0.045,65.488,16.307,84.83,83.373,104.252
	C1740.291,1613.146,1756.798,1592.705,1756.845,1520.803z M1410.17,1183.259c-0.103-75.073,0.839-150.172-0.909-225.207
	c-0.988-42.405-31.134-72.989-70.483-77.262c-44.715-4.857-80.129,16.636-91.937,58.399c-4.896,17.319-6.773,36.024-6.807,54.105
	c-0.434,231.898-0.441,463.798,0.016,695.696c0.036,18.073,1.901,36.882,7.126,54.069c16.958,55.781,74.343,76.481,123.807,46.313
	c30.444-18.568,39.577-46.512,39.402-80.587c-0.625-121.786-0.245-243.576-0.223-365.365
	C1410.184,1290.033,1410.243,1236.646,1410.17,1183.259z M736.651,191.277c-0.372-45.85-29.507-77.919-70.303-82.185
	c-46.669-4.88-81.618,17.362-94.328,62.307c-4.44,15.699-5.819,32.719-5.848,49.141c-0.371,211.94-0.269,423.881-0.182,635.822
	c0.005,11.648-0.531,23.585,1.702,34.89c7.577,38.36,34.263,66.057,67.301,71.554c58.938,9.807,101.211-24.599,101.731-85.648
	c0.966-113.472,0.277-226.958,0.256-340.438C736.959,421.572,737.585,306.418,736.651,191.277z M736.884,1464.613
	c0-85.107-0.352-170.216,0.165-255.32c0.222-36.524-20.045-60.345-49.318-75.112c-30.688-15.481-62.847-9.379-89.004,12.252
	c-26.059,21.55-32.997,52.355-32.932,85.439c0.305,155.196,0.132,310.392,0.152,465.589c0.001,6.672-0.355,13.414,0.444,20.004
	c6.004,49.541,44.27,87.173,87.833,86.68c46.741-0.529,82.158-39.951,82.617-94.224c0.691-81.764,0.18-163.538,0.18-245.309
	C736.974,1464.613,736.929,1464.613,736.884,1464.613z M1410.809,615.57c-3.059-49.916-0.592-100.169-0.633-150.272
	c-0.074-91.855,0.739-183.725-0.688-275.56c-0.714-45.913-30.589-77.009-72.21-80.684c-47.05-4.154-80.791,19.121-92.007,64.945
	c-3.521,14.386-5.247,29.568-5.292,44.393c-0.397,130.268-0.613,260.54-0.07,390.807c0.286,68.562,16.933,89.812,84.981,112.029
	C1385.128,711.776,1414.433,674.701,1410.809,615.57z M1069.163,898.414c-0.282-104.976,0.695-209.966-0.689-314.925
	c-0.686-52.007-31.439-83.273-78.295-85.241c-48.442-2.035-86.804,28.72-89.232,80.272c-3.437,72.977-0.872,146.237-0.872,218.961
	c44.565,49.94,87.558,98.12,129.833,145.495C1065.428,938.29,1069.221,920.144,1069.163,898.414z M899.486,1885.71
	c0.086,13.128,2.576,26.758,6.713,39.241c11.503,34.716,50.21,59.289,85.693,55.947c39.098-3.682,74.102-34.91,74.863-73.885
	c1.853-94.87,0.603-189.799,0.603-285.854c-69.645,46.866-102.316,46.478-168.172-6.58
	C899.187,1709.491,898.911,1797.604,899.486,1885.71z M1066.987,89.62c-0.191-13.863-6.477-29.365-14.43-41.059
	c-20.045-29.477-53.614-40.442-87.027-31.719c-40.539,10.584-64.206,36.347-65.428,82.983c-2.3,87.739-0.663,175.582-0.663,265.347
	c77.576-52.252,106.511-45.951,168.199,0.09C1067.637,272.32,1068.247,180.957,1066.987,89.62z M899.113,1143.718
	c-0.002,76.859-0.242,153.72,0.245,230.577c0.083,13.189,1.879,26.733,5.292,39.468c11.078,41.342,47.286,65.251,90.551,61.049
	c40.447-3.929,70.677-32.958,72.451-75.576c2.217-53.237,0.533-106.637,0.533-159.746c-48.903-50.412-84.116-111.766-140.38-149.13
	C898.125,1102.81,899.114,1123.49,899.113,1143.718z"/>
</svg>
