<?xml version="1.0" encoding="iso-8859-1"?>
<!-- Generator: Adobe Illustrator 19.0.0, SVG Export Plug-In . SVG Version: 6.00 Build 0)  -->
<svg version="1.1" id="Layer_1" xmlns="http://www.w3.org/2000/svg" xmlns:xlink="http://www.w3.org/1999/xlink" x="0px" y="0px"
	 viewBox="0 0 2000 2000" style="enable-background:new 0 0 2000 2000;" xml:space="preserve">
<path d="M783.666,1981.506c-104.696,0-203.779,0-304.949,0c0-654.254,0-1306.623,0-1961.238c101.886,0,202.119,0,304.949,0
	C783.666,673.641,783.666,1325.891,783.666,1981.506z M1402.449,1060.822c42.395,0,80.947,0,118.301,0c0-42.793,0-81.406,0-121.651
	c-41.164,0-78.845,0-118.301,0C1402.449,982.616,1402.449,1022.471,1402.449,1060.822z M1334.807,1062.116
	c0-42.229,0-81.974,0-122.211c-40.887,0-78.364,0-118.25,0c0,41.158,0,79.936,0,122.211
	C1258.46,1062.116,1295.93,1062.116,1334.807,1062.116z M1401.141,875.142c42.387,0,82.153,0,120.805,0c0-40.972,0-78.591,0-117.686
	c-41.165,0-80.019,0-120.805,0C1401.141,799.637,1401.141,837.2,1401.141,875.142z M1520.911,1980.367c0-41.678,0-80.234,0-117.236
	c-42.224,0-81.049,0-119.474,0c0,40.466,0,78.096,0,117.236C1445.273,1980.367,1483.862,1980.367,1520.911,1980.367z
	 M1336.086,1862.687c-40.13,0-78.689,0-118.997,0c0,40.281,0,78.716,0,118.981c40.216,0,77.663,0,118.997,0
	C1336.086,1940.072,1336.086,1902.507,1336.086,1862.687z M1403.375,1799.251c42.145,0,80.544,0,117.553,0
	c0-42.041,0-80.531,0-119.495c-40.906,0-78.48,0-117.553,0C1403.375,1722.745,1403.375,1761.124,1403.375,1799.251z
	 M1521.01,1612.111c0-41.532,0-80.009,0-116.877c-42.014,0-80.735,0-119.569,0c0,40.444,0,77.948,0,116.877
	C1443.08,1612.111,1482.686,1612.111,1521.01,1612.111z M1217.873,1494.289c0,40.469,0,78.98,0,117.656c40.777,0,79.365,0,118.916,0
	c0-39.79,0-76.446,0-117.656C1295.822,1494.289,1258.37,1494.289,1217.873,1494.289z M1401.72,1127.116c0,40.663,0,78.184,0,116.231
	c42.069,0,81.667,0,121.72,0c0-39.934,0-76.473,0-116.231C1480.005,1127.116,1440.312,1127.116,1401.72,1127.116z M965.24,759.643
	c-41.06,0-79.527,0-117.392,0c0,41.472,0,78.932,0,116.875c40.57,0,78.197,0,117.392,0
	C965.24,835.942,965.24,797.333,965.24,759.643z M1335.159,1127.485c-41.586,0-80.157,0-117.565,0c0,41.023,0,78.512,0,117.572
	c39.982,0,76.454,0,117.565,0C1335.159,1203.481,1335.159,1164.999,1335.159,1127.485z M1216.563,758.865
	c0,40.466,0,77.817,0,116.939c41.176,0,79.7,0,119.72,0c0-40.254,0-77.845,0-116.939
	C1293.843,758.865,1256.466,758.865,1216.563,758.865z M1217.758,1680.75c0,41.072,0,79.359,0,119.695c40.303,0,77.403,0,116.975,0
	c0-40.948,0-79.397,0-119.695C1293.48,1680.75,1256.159,1680.75,1217.758,1680.75z M1216.454,1310.594c0,40.016,0,76.071,0,114.506
	c40.752,0,79.246,0,119.757,0c0-38.475,0-74.553,0-114.506C1293.684,1310.594,1255.39,1310.594,1216.454,1310.594z M1335.297,577.21
	c-41.178,0-79.446,0-118.734,0c0,40.009,0,76.038,0,114.771c39.444,0,76.763,0,118.734,0
	C1335.297,651.605,1335.297,614.522,1335.297,577.21z M1035.284,691.598c40.925,0,79.611,0,117.592,0c0-40.912,0-78.12,0-115.669
	c-40.54,0-78.007,0-117.592,0C1035.284,616.424,1035.284,654.856,1035.284,691.598z M1402.514,1424.54c41.947,0,80.604,0,119.608,0
	c0-38.991,0-74.992,0-113.445c-40.66,0-79.213,0-119.608,0C1402.514,1352.43,1402.514,1389.391,1402.514,1424.54z"/>
</svg>
