<?xml version="1.0" encoding="iso-8859-1"?>
<!-- Generator: Adobe Illustrator 19.0.0, SVG Export Plug-In . SVG Version: 6.00 Build 0)  -->
<svg version="1.1" id="Layer_1" xmlns="http://www.w3.org/2000/svg" xmlns:xlink="http://www.w3.org/1999/xlink" x="0px" y="0px"
	 viewBox="0 0 500 500" enable-background="new 0 0 500 500" xml:space="preserve">
<path d="M217.821,26.883C230.567,19.506,243.312,12.129,257.357,4c48.057,28.939,96.101,57.87,144.242,86.86
	c0,64.156,0,127.397,0,192.254c-11.876,6.952-24.143,14.133-39.665,23.22c-0.433-64.815-1.106-126.682-0.693-189.569
	c-48.365-28.903-96.069-57.412-143.773-85.921C217.586,29.524,217.703,28.203,217.821,26.883z M88.988,390.606
	c0-59.147,0-118.295,0-177.771c50.67-28.967,100.08-57.215,152.3-87.068c-15.074-9.198-27.467-16.759-38.95-23.766
	c-2.922,0.832-4.301,0.951-5.392,1.575c-46.625,26.627-93.181,53.377-139.873,79.887c-7.599,4.314-9.325,10.549-9.282,18.587
	c0.28,52.432,0.3,104.865,0.454,157.297c0.01,3.423,0.423,6.844,0.71,11.209c12.059,7.368,24.175,14.77,36.29,22.172
	C86.493,392.022,87.74,391.314,88.988,390.606z M295.622,467.586c-52.063-30.598-104.126-61.196-155.989-91.676
	c0-30.581,0-59.377,0-88.172c0-28.519,0-57.038,0-85.557c-1.065-0.627-2.13-1.255-3.195-1.882
	c-12.067,7.099-24.134,14.198-35.419,20.838c0,61.546,0,120.841,0,181.144c51.689,30.692,103.308,61.342,154.813,91.925
	c13.963-7.918,26.729-15.157,39.495-22.396C295.425,470.401,295.523,468.993,295.622,467.586z M201.957,36.32
	C150.034,66.115,99.066,95.362,47.971,124.682c1.16,16.255-1.09,30.73,1.235,46.918c52.17-29.668,101.728-57.851,150.77-85.74
	c50.033,29.029,97.708,58.304,148.579,87.581c0-17.796,0-32.027,0-49.019C300.155,95.335,251.235,65.935,201.957,36.32z
	 M415.414,114.454c-0.033,53.759-0.188,107.518,0.167,161.275c0.067,10.107-2.181,17.251-11.709,22.549
	c-40.067,22.278-79.815,45.13-119.63,67.861c-3.228,1.843-6.075,4.355-11.28,8.143c14.435,8.686,26.913,16.193,39.9,24.008
	c47.787-26.911,94.833-53.405,142.502-80.25c0-65.473,0-130.322,0-195.671c-12.805-7.457-24.901-14.503-39.054-22.745
	C415.858,106.873,415.417,110.663,415.414,114.454z M156.058,321.447c0,17.649,0,32.6,0,48.589
	c51.835,30.545,104.013,61.293,156.031,91.947c48.275-27.435,95.633-54.349,142.404-80.929c0-15.908,0-30.282,0-47.135
	c-48.659,27.368-94.902,53.378-141.576,79.629C260.967,383.045,209.614,352.892,156.058,321.447z"/>
</svg>
