<?xml version="1.0" encoding="iso-8859-1"?>
<!-- Generator: Adobe Illustrator 19.0.0, SVG Export Plug-In . SVG Version: 6.00 Build 0)  -->
<svg version="1.1" id="Layer_1" xmlns="http://www.w3.org/2000/svg" xmlns:xlink="http://www.w3.org/1999/xlink" x="0px" y="0px"
	 viewBox="0 0 2000 2000" style="enable-background:new 0 0 2000 2000;" xml:space="preserve">
<path d="M1595.114,961.886c150.639-20.026,264.686-95.323,351.153-217.236c96.777,277.165,29.839,722.554-317.721,1011.61
	c-353.574,294.057-875.457,307.21-1246.345,6.943C22.176,1471.733-89.464,987.697,114.257,565.734
	C306.42,167.714,772.144-88.921,1274.2,51.722c-123.629,88.205-204.567,201.712-228.338,355.151
	c-227.39-6.397-410.373,78.878-540.447,264.933c-70.903,101.418-106.731,218.87-100.244,341.195
	c19.671,370.95,307.696,598.669,634.719,577.803C1286.32,1575.081,1585.674,1389.339,1595.114,961.886z M1541.058,858.14
	c215.813,1.305,387.37-170.453,386.84-387.504c-0.532-218.091-172.609-375.083-371.657-383.705
	c-230.779-9.997-409.396,191.371-399.103,387.566C1159.321,692.683,1323.244,856.823,1541.058,858.14z"/>
</svg>
