<?xml version="1.0" encoding="iso-8859-1"?>
<!-- Generator: Adobe Illustrator 19.0.0, SVG Export Plug-In . SVG Version: 6.00 Build 0)  -->
<svg version="1.1" id="Layer_1" xmlns="http://www.w3.org/2000/svg" xmlns:xlink="http://www.w3.org/1999/xlink" x="0px" y="0px"
	 viewBox="0 0 2000 2000" style="enable-background:new 0 0 2000 2000;" xml:space="preserve">
<path d="M967.601,1694.468c74.23-106.26,140.984-202.864,208.854-298.677c67.422-95.18,135.968-189.565,206.685-288.008
	c-91.049-132.526-182.032-264.958-277.889-404.483c48.185-182.739,97.806-370.926,147.427-559.114
	c2.313,0.367,4.625,0.734,6.938,1.1c-3.096,47.52-6.193,95.04-9.583,147.078c15.039,9.101,29.364,20.148,45.451,27.147
	c231.7,100.81,378.959,273.068,425.766,521.745c58.093,308.639-51.065,553.917-305.063,733.268
	c-99.271,70.097-213.189,109.249-336.754,113.929C1045.655,1689.732,1011.916,1692.05,967.601,1694.468z M385.307,582.829
	c-101.429,157.942-143.722,330.648-109.645,514.808c49.718,268.689,208.611,453.885,460.997,556.348
	c-5.938,85.821-11.471,165.78-17.003,245.739c2.09,0.189,4.181,0.377,6.271,0.566c50.255-198.745,100.509-397.491,150.441-594.957
	c-90.236-134.808-179.315-267.887-269.472-402.577c145.313-210.792,288.737-418.843,433.21-628.416
	C859.067,236.939,544.331,335.201,385.307,582.829z M740.901,1983.539c201.442-292.77,402.884-585.54,603.327-876.859
	c-86.369-123.774-171.15-244.071-254.092-365.623c-10.596-15.529-20.034-39.785-15.752-56.301
	c43.183-166.526,89.388-332.268,134.637-498.26c15.11-55.43,29.91-110.945,44.851-166.421c-2.268-0.834-4.536-1.668-6.803-2.502
	c-202.445,293.91-404.89,587.82-610.685,886.592c92.505,131.178,188.877,267.84,284.053,402.805
	c-63.018,227.322-124.863,450.418-186.709,673.513C736.118,1981.502,738.51,1982.521,740.901,1983.539z"/>
</svg>
