<?xml version="1.0" encoding="iso-8859-1"?>
<!-- Generator: Adobe Illustrator 19.0.0, SVG Export Plug-In . SVG Version: 6.00 Build 0)  -->
<svg version="1.1" id="Layer_1" xmlns="http://www.w3.org/2000/svg" xmlns:xlink="http://www.w3.org/1999/xlink" x="0px" y="0px"
	 viewBox="0 0 500 500" style="enable-background:new 0 0 500 500;" xml:space="preserve">
<path d="M490.311,248.933c0,67.802,0.008,135.604-0.019,203.406c-0.002,4.217-0.014,8.462-0.463,12.647
	c-1.469,13.705-10.237,21.387-21.861,22.337c-11.577,0.946-23.325,0.753-34.936,0.043c-11.067-0.677-19.475-9.459-20.977-20.614
	c-0.725-5.383-1.266-10.841-1.268-16.265c-0.068-134.859-0.071-269.718,0.009-404.576c0.003-5.421,0.374-10.966,1.548-16.236
	c2.113-9.489,8.263-15.862,17.837-17.697c13.466-2.58,27.14-2.667,40.622-0.068c10.925,2.106,18.156,10.745,19.04,21.714
	c0.338,4.202,0.447,8.432,0.448,12.649C490.319,113.826,490.311,181.379,490.311,248.933z M222.571,235.508
	c-0.008-4.202-0.177-8.478-0.957-12.589c-1.892-9.976-7.856-16.795-17.881-18.651c-13.489-2.498-27.212-2.503-40.701,0.018
	c-9.698,1.813-15.62,8.372-17.617,18.024c-0.848,4.097-1.169,8.371-1.173,12.565c-0.068,73.761-0.059,147.521-0.017,221.282
	c0.002,3.211,0.245,6.457,0.762,9.625c2.101,12.89,9.891,20.639,22.866,21.477c10.383,0.671,20.883,0.684,31.263-0.018
	c13.141-0.889,21.206-9.136,22.984-22.285c0.464-3.427,0.489-6.932,0.492-10.401c0.033-36.508,0.02-73.016,0.02-109.524
	C222.611,308.523,222.641,272.015,222.571,235.508z M355.968,377.953c0-27.552,0.162-55.106-0.061-82.656
	c-0.131-16.184-8.942-25.488-25.04-26.497c-8.9-0.558-17.882-0.518-26.793-0.065c-16.736,0.851-25.977,10.488-26.017,27.27
	c-0.131,54.608-0.122,109.217-0.009,163.825c0.037,17.805,9.872,27.41,27.843,27.744c6.452,0.12,12.907,0.044,19.361,0.023
	c21.806-0.07,30.692-8.882,30.749-30.709c0.069-26.311,0.016-52.622,0.016-78.934C356.001,377.953,355.985,377.953,355.968,377.953z
	 M88.849,410.884c0-16.372,0.194-32.746-0.053-49.114c-0.264-17.463-9.909-27.044-27.355-27.504
	c-7.684-0.203-15.381-0.168-23.067-0.007c-17.528,0.367-27.03,9.848-27.521,27.279c-0.056,1.983-0.039,3.968-0.039,5.953
	c-0.002,29.27-0.007,58.541,0.006,87.811c0.001,2.727,0.006,5.462,0.204,8.179c0.996,13.698,9.352,22.79,23.04,23.736
	c10.365,0.717,20.853,0.698,31.223,0.028c13.64-0.881,22.098-9.853,23.367-23.534c0.228-2.464,0.212-4.955,0.215-7.434
	c0.018-15.131,0.009-30.263,0.009-45.394C88.868,410.884,88.858,410.884,88.849,410.884z"/>
</svg>
