<?xml version="1.0" encoding="iso-8859-1"?>
<!-- Generator: Adobe Illustrator 19.0.0, SVG Export Plug-In . SVG Version: 6.00 Build 0)  -->
<svg version="1.1" id="Layer_1" xmlns="http://www.w3.org/2000/svg" xmlns:xlink="http://www.w3.org/1999/xlink" x="0px" y="0px"
	 viewBox="0 0 2000 2000" style="enable-background:new 0 0 2000 2000;" xml:space="preserve">
<path d="M17.369,1247.086c4.402-14.911,7.204-30.533,13.472-44.613c34.278-77.002,69.242-153.701,104.606-230.21
	c2.395-5.182,10-7.955,20.214-15.629c93.673,99.704,200.06,186.648,279.866,294.247c-21.958,80.182-43.883,153.372-26.377,236.473
	c13.119,62.279,24.897,123.955,54.263,179.849c51.126,97.309,114.113,185.941,205.163,251.346
	c20.439,14.682,38.96,32.032,54.857,56.194c-13.838-4.704-27.349-11.1-41.565-13.843c-109.684-21.16-209.185-68.8-304.579-123.528
	c-77.553-44.492-145.118-101.879-206.407-169.605c-67.764-74.882-103.563-162.742-137.242-253.592
	c-8.076-21.786-10.986-45.488-16.272-68.308C17.369,1312.939,17.369,1280.012,17.369,1247.086z M985.403,22.226
	c-74.185,76.123-148.369,152.246-225.098,230.98c79.718,79.219,161.533,160.521,239.47,237.97
	c85.414-84.804,165.195-164.014,246.061-244.303c-20.871-21.619-45.005-48.127-70.749-72.966
	c-52.893-51.033-106.649-101.173-160.05-151.681C1005.159,22.226,995.281,22.226,985.403,22.226z M1822.159,979.152
	c-31.959,30.441-63.234,61.688-93.378,93.93c-54.876,58.694-108.756,118.32-162.127,176.547
	c10.118,36.871,26.044,74.613,30.106,113.591c11.302,108.447-8.256,212.59-58.682,309.847
	c-55.782,107.587-136.043,194.107-232.439,266.524c-10.246,7.697-18.376,18.211-27.488,27.418c2.168,3.578,4.336,7.156,6.504,10.735
	c61.759-21.714,123.021-44.993,185.39-64.787c100.926-32.03,189.657-87.263,270.134-152.605
	c104.893-85.166,185.983-191.723,224.09-323.741c22.666-78.522,26.632-159.593,5.851-240.969
	c-21.645-84.759-65.061-158.588-110.2-237.813C1844.467,966.326,1831.21,970.531,1822.159,979.152z M499.949,1128.847
	c112.592-203.879,274.956-371.917,422.159-553.66c-85.802-85.52-167.777-167.226-248.031-247.216
	C510.18,500.245,349.652,665.283,224.362,844.965C318.564,942.003,408.509,1034.655,499.949,1128.847z M1341.881,339.856
	c-84.285,80.497-166.872,159.372-258.01,246.414c57.754,52.579,103.347,115.011,156.025,172.281
	c51.26,55.728,97.333,116.686,141.531,178.324c44.553,62.133,84.001,127.926,124.521,190.321
	c93.292-92.232,185.313-183.208,279.853-276.674C1646.026,665.515,1496.656,493.808,1341.881,339.856z M1004.897,1499.121
	c-95.862,68.042-163.784,158.496-237.051,223.019c82.15,86.633,159.853,168.578,236.098,248.983
	c80.773-80.562,160.61-160.189,246.022-245.378C1170.227,1652.007,1088.795,1576.705,1004.897,1499.121z"/>
</svg>
