<?xml version="1.0" encoding="utf-8"?>
<!-- Generator: Adobe Illustrator 26.2.1, SVG Export Plug-In . SVG Version: 6.00 Build 0)  -->
<svg version="1.1" id="icp" xmlns="http://www.w3.org/2000/svg" xmlns:xlink="http://www.w3.org/1999/xlink" x="0px" y="0px"
	 viewBox="0 0 500 500" style="enable-background:new 0 0 500 500;" xml:space="preserve">
<path d="M496.6,278.8c2.1-9.2,3.4-18.7,3.4-28.6c-0.2-67.8-54.7-123-121.7-123c-28,0-58.5,14.9-90.7,44.3
	c-15.3,13.8-28.6,28.8-38.4,40.6c-34.8-40.3-81.8-84.9-128.2-84.9c-55,0.2-101.5,37.3-116.4,87.9c-1.3,3.2-2,5.4-2.1,6.1
	c-2.1,9.2-3.4,18.7-3.4,28.6c0,67.8,54.5,123,121.7,123c28,0,58.5-14.9,90.7-44.3c15.3-13.8,28.6-28.8,38.4-40.7
	c0,0-15.7-17.7-32.9-36.6c-9.3,11.5-22.7,27.1-38.2,41.1c-28.6,26-47.5,31.5-58.1,31.5c-40.3,0-72.9-33-72.9-73.9
	c0-40.5,32.6-73.5,72.9-73.9c1.3,0,2.8,0.1,4.4,0.4c25,10.1,46.1,27,51.8,32.4c20.7,19.8,40.2,42.4,40.3,42.4
	c17.2,18.9,32.9,36.6,32.9,36.6c0.1,0,0.1-0.1,0.2-0.2c34.9,40.3,82,85,128.5,85c57.3-0.2,105.4-40.5,118.1-94.4
	c-0.1,0.3-0.3,0.9-0.6,1.8C496.4,279.4,496.5,279,496.6,278.8z M282.4,248.6C282.4,248.6,282.4,248.5,282.4,248.6
	c9.2-11.6,22.5-27,37.9-40.9c28.6-26.2,47.3-31.5,58.1-31.5c40.3,0,72.9,33,72.9,73.9c0,40.5-32.6,73.5-72.9,73.9
	c-0.6,0-1.2,0-1.9-0.1c-25.9-9.8-47.9-27.4-53.8-32.9C301.9,271.2,282.4,248.6,282.4,248.6z"/>
</svg>
