<?xml version="1.0" encoding="iso-8859-1"?>
<!-- Generator: Adobe Illustrator 19.0.0, SVG Export Plug-In . SVG Version: 6.00 Build 0)  -->
<svg version="1.1" id="Layer_1" xmlns="http://www.w3.org/2000/svg" xmlns:xlink="http://www.w3.org/1999/xlink" x="0px" y="0px"
	 viewBox="0 0 500 500" style="enable-background:new 0 0 500 500;" xml:space="preserve">
<path id="XMLID_4_" d="M138.072,398.861c16.709-16.222,32.788-31.831,49.727-48.276c27.706,15.952,58.101,22.896,90.705,14.869
	c23.407-5.763,43.603-17.39,59.949-35.201c28.933-31.528,48.04-85.117,14.671-144.259c16.452-16.229,32.711-32.267,48.856-48.194
	c49.508,57.928,55.666,166.33-13.61,240.566C322.859,448.567,211.16,458.213,138.072,398.861z M161.173,170.839
	c44.798-48.57,97.696-52.837,152.688-25.029c17.078-16.947,32.968-32.716,48.788-48.414
	c-70.946-58.103-183.812-48.136-249.276,22.58C44.297,194.594,51.85,303.44,101.81,361.273c1.219-0.767,2.648-1.369,3.697-2.37
	c15.119-14.449,30.186-28.951,45.482-43.649C116.588,251.873,134.525,199.73,161.173,170.839z M440.155,107.617
	c27.029,0.557,50.098-22.171,50.201-49.461c0.103-27.369-22.567-50.011-49.82-49.757c-26.651,0.248-48.226,22.317-48.269,49.373
	C392.224,84.977,413.446,107.066,440.155,107.617z M61.401,388.979c-26.816,0.586-48.43,22.605-48.544,49.457
	c-0.116,27.331,22.57,49.968,49.834,49.726c26.582-0.236,48.236-22.441,48.228-49.455C110.91,410.946,88.448,388.388,61.401,388.979
	z"/>
</svg>
