<?xml version="1.0" encoding="iso-8859-1"?>
<!-- Generator: Adobe Illustrator 19.0.0, SVG Export Plug-In . SVG Version: 6.00 Build 0)  -->
<svg version="1.1" id="Layer_1" xmlns="http://www.w3.org/2000/svg" xmlns:xlink="http://www.w3.org/1999/xlink" x="0px" y="0px"
	 viewBox="0 0 500 500" enable-background="new 0 0 500 500" xml:space="preserve">
<path d="M496.41,250.942c-0.108,135.516-111.026,245.538-247.463,245.467c-135.725-0.071-246.09-110.9-245.947-246.98
	C3.143,112.57,113.786,2.818,251.427,3C386.683,3.18,496.519,114.342,496.41,250.942z M232.964,129.796
	c-2.001-0.556-5.106-2.215-5.826-1.493c-5.295,5.306-12.712,8.799-15.071,16.729c-3.726-3.169-7.2-6.715-11.24-9.414
	c-5.244-3.504-11.708-2.665-15.312,1.254c-3.266,3.55-3.175,7.591,0.678,13.401c1.612,2.43,3.757,4.503,5.616,6.775
	c1.608,1.965,3.153,3.982,4.726,5.975c-3.764-1.261-5.408,1.687-7.135,3.896c-9.59,12.265-21.836,21.698-33.294,32.015
	c-7.011,6.312-13.598,13.38-19.082,21.036c-8.623,12.037-17.162,23.985-28.209,34.011c-5.086,4.616-9.595,9.892-14.169,15.044
	c-13.399,15.092-15.871,33.416-14.745,52.52c0.456,7.731,3.398,15.278,10.437,19.187c12.961,7.198,27.032,9.99,41.674,6.006
	c4.304-1.171,8.472-3.523,12.15-6.117c3.554-2.507,6.46-6.572,4.32-10.995c-2.069-4.277,0.499-5.441,3.067-6.493
	c2.999-1.228,6.359-1.537,9.49-2.485c11.926-3.61,24.027-6.892,33.258-16.089c8.143-8.113,16.822-15.767,24.284-24.464
	c6.778-7.901,12.307-16.885,18.182-25.531c0.728-1.072,0.193-3.003,0.243-4.537c-1.539,0.078-3.339-0.334-4.569,0.322
	c-4.567,2.437-8.946,5.225-14.698,8.659c1.609-2.439,2.074-3.991,3.08-4.526c4.856-2.587,9.93-4.766,14.79-7.346
	c6.012-3.193,12.163-6.245,17.739-10.102c4.436-3.068,5.712-7.812,3.369-13.11c-2.921-6.605-6.859-9.036-13.505-8.974
	c-3.513,0.033-7.098-0.527-10.527-1.339c-2.253-0.533-3.145-2.114-0.85-4.135c2.651-2.335,5.151-4.841,7.717-7.272
	c0.627,0.136,1.379,0.092,1.862,0.432c21.006,14.816,38.311,32.839,49.022,56.588c1.482,3.285,3.13,6.509,4.936,9.626
	c0.527,0.909,2.131,2.081,2.774,1.847c1.275-0.464,2.982-4.115,2.521,0.676c-0.836,8.692,3.323,15.18,8.854,21.044
	c3.219,3.413,6.838,6.448,9.947,9.346c-2.602,0.257-5.788-0.362-7.735,0.911c-14.468,9.463-16.084,35.537,1.123,44.639
	c18.216,9.636,36.535,11.389,56.145,7.085c9.178-2.015,14.46-7.251,18.174-15.958c6.789-15.913,14.888-31.265,22.32-46.908
	c1.67-3.516,3.283-7.163,4.173-10.926c3.101-13.117,1.717-26.161-2.122-38.865c-1.581-5.232-3.955-10.543-7.216-14.881
	c-6.892-9.171-14.744-17.614-21.922-26.579c-3.541-4.423-8.016-6.358-13.355-7.484c-5.368-1.132-10.727-2.63-15.816-4.656
	c-3.634-1.447-3.123,0.963-2.883,2.547c0.365,2.41,1.662,4.683,1.988,7.092c0.174,1.286-0.859,2.735-1.348,4.11
	c-0.604-1.181-1.593-2.314-1.75-3.552c-0.989-7.792-1.2-15.733-2.812-23.383c-1.914-9.086-8.048-14.992-17.219-16.931
	c-10.681-2.258-18.133,4.394-17.486,15.195c0.155,2.582,0.531,5.151,0.802,7.687c-2.674-2.289-5.448-4.135-7.551-6.562
	c-6.775-7.818-13.303-15.85-19.926-23.799c2.264,2.314,4.389,4.797,6.861,6.862c1.016,0.849,3.33,1.581,4.118,1.029
	c4.77-3.34,9.724-6.632,13.716-10.801c3.272-3.417,2.028-8.016-0.251-11.856c-2.419-4.077-6.384-3.104-9.567-1.705
	c-5.942,2.611-11.652,5.79-17.263,9.068c-0.783,0.457-0.458,2.811-0.647,4.287c-7.859-6.601-14.638-14.087-19.161-23.418
	c5.507-1.265,7.348-6.011,9.304-10.337c1.775-3.925-0.07-9.891-3.456-12.397c-3.811-2.82-8.065-2.994-11.839-0.219
	c-2.503,1.84-4.353,4.567-6.496,6.897c-2.347-2.147-4.747-4.238-7.027-6.454c-2.801-2.722-5.292-5.8-8.29-8.272
	c-5.097-4.202-8.233-4.459-12.344-1.711c-4.358,2.914-5.608,7.174-4.504,11.975c0.642,2.795,1.963,5.528,3.432,8.022
	C225.274,117.69,229.172,123.712,232.964,129.796z M247.965,172.821c-4.494-5.362-4.553-5.465,0.843-8.553
	c2.178-1.246,4.677-1.93,7.03-2.87c-4.713-6.408-9.426-12.817-14.139-19.225c1.22,7.611-3.973,14.781-12.062,16.655
	C235.747,163.493,241.856,168.157,247.965,172.821z M376.789,272.916c-1.062-2.033-3.888-3.735-0.725-6.604
	c2.766-2.509,4.322-0.989,6.525,0.616c2.234,1.627,4.876,2.693,7.34,4.004c-0.056-1.439-0.472-2.315-1.159-2.686
	c-5.726-3.094-8.547-6.981-6.932-14.204c1.222-5.467,0.242-11.426,0.242-17.166c-1.345,2.647-1.451,5.255-1.594,7.86
	c-0.144,2.611-0.227,5.23-0.508,7.828c-0.967,8.956-2.753,10.726-11.413,11.504c-0.976,0.088-1.977,0.013-2.932,0.192
	c-1.587,0.297-3.147,0.74-4.719,1.121c1.526,1.053,3.024,2.959,4.582,3.007c5.96,0.187,8.408,4.257,10.628,8.683
	c1.734,3.456,3.233,7.031,5.673,12.392C382.21,281.793,379.172,277.477,376.789,272.916z M201.8,166.246
	c-1.57-1.487-3.711-2.37-5.589-3.532c3.159,3.275,6.507,6.392,9.42,9.872c2.564,3.063,4.641,6.534,6.934,9.825
	c-4.269,3.925-8.222,8.309-12.945,11.578c-2.276,1.575-6.006,1.048-9.153,1.483c6.147,1.759,11.975,1.009,16.814-2.901
	c6.311-5.1,12.582-6.909,19.723-1.981C218.617,182.46,210.279,174.278,201.8,166.246z M320.423,204.275
	c1.59,3.514,3.36,5.794,3.48,8.158c0.116,2.278-1.472,4.643-2.312,6.97c-1.594-0.694-3.306-1.203-4.755-2.124
	c-2.283-1.452-4.389-3.182-6.57-4.794c1.867,3.432,4.413,5.935,6.559,8.745c3.2,4.191,2.61,7.031-2.531,8.56
	c-3.142,0.935-2.911,0.852-1.042,3.102c0.901,1.084,0.569,3.529,0.217,5.239c-0.565,2.747-1.609,5.395-2.451,8.086
	c0.214,0.058,0.429,0.117,0.643,0.175c7.186-13.973,14.372-27.946,21.075-40.981C326.252,209.345,326.252,209.345,320.423,204.275z
	 M280.334,195.379c1.187,0.76,3.061,0.446,4.619,0.628c-0.596-1.53-0.864-3.322-1.844-4.543c-4.493-5.597-9.08-11.129-13.884-16.457
	c-1.116-1.238-3.216-1.59-4.863-2.349c0.884,1.33,1.621,2.793,2.679,3.966c3.037,3.367,1.238,5.051-2.085,6.016
	c-1.15,0.334-2.515-0.07-3.781-0.137C267.543,186.822,273.854,191.233,280.334,195.379z M344.367,256.878
	c3.547-1.401,6.327-2.36,8.96-3.625c0.771-0.371,1.389-1.544,1.625-2.465c1.516-5.916,2.471-12.014,4.45-17.763
	c2.393-6.951,3.633-13.809,1.745-21.131C361.4,228.848,352.754,242.58,344.367,256.878z"/>
</svg>
