<?xml version="1.0" encoding="iso-8859-1"?>
<!-- Generator: Adobe Illustrator 19.0.0, SVG Export Plug-In . SVG Version: 6.00 Build 0)  -->
<svg version="1.1" id="Layer_1" xmlns="http://www.w3.org/2000/svg" xmlns:xlink="http://www.w3.org/1999/xlink" x="0px" y="0px"
	 viewBox="0 0 2000 2000" style="enable-background:new 0 0 2000 2000;" xml:space="preserve">
<path d="M1431.941,701.727c0-136.773,0-261.592,0-390.201c93.559,0,182.269,0,275.447,0c0.98,18.036,2.579,33.817,2.586,49.599
	c0.134,297.408,0.633,594.817-0.078,892.223c-0.884,369.653-252.034,670.499-617.799,721.268
	c-376.161,52.212-698.69-195.45-788.508-535.213c-85.814-324.616,94.229-719.592,457.638-843.346
	c217.61-74.104,424.626-47.647,619.991,72.755C1394.802,677.183,1408.009,686.168,1431.941,701.727z M629.593,1265.496
	c-1.042,203.622,161.834,368.354,365.061,369.221c200.963,0.857,366.344-161.449,368.245-361.397
	c1.94-204.072-159.58-369.442-362.881-371.532C796.377,899.695,630.631,1062.435,629.593,1265.496z M1706.6,20.887
	c-92.556,0-181.415,0-273.497,0c0,58.704,0,114.613,0,174.025c92.371,0,180.988,0,273.497,0
	C1706.6,132.654,1706.6,78.045,1706.6,20.887z"/>
</svg>
