<?xml version="1.0" encoding="iso-8859-1"?>
<!-- Generator: Adobe Illustrator 19.0.0, SVG Export Plug-In . SVG Version: 6.00 Build 0)  -->
<svg version="1.1" id="Layer_1" xmlns="http://www.w3.org/2000/svg" xmlns:xlink="http://www.w3.org/1999/xlink" x="0px" y="0px"
	 viewBox="0 0 2000 2000" style="enable-background:new 0 0 2000 2000;" xml:space="preserve">
<path d="M998.14,12.865c525.127-13.11,989.827,432.781,986.3,971.161c24.396,527.735-443.587,1017.855-1010.015,999.39
	C446.58,1966.208,21.81,1533.148,14.517,1011.829C6.768,457.933,459.975,5.089,998.14,12.865z M1543.291,1536.567
	c1.27-10.425,3.38-19.685,3.385-28.946c0.17-328.314,0.154-656.629,0.12-984.943c-0.003-27.512-6.196-32.887-33.875-32.657
	c-54.23,0.451-108.471,0.959-162.694,0.312c-47.493-0.566-49.529,0.713-49.529,47.832c-0.001,290.281,0.014,580.563-0.021,870.844
	c-0.005,36.777-4.871,42.061-41.308,42.016c-135.333-0.168-270.665-0.666-405.998-1.02c-21.487-0.056-42.974-0.008-64.461-0.008
	c3.09,6.431,6.701,9.674,10.901,11.692c48.27,23.185,96.279,46.974,145.19,68.728c13.82,6.147,30.324,8.479,45.646,8.671
	c102.316,1.28,204.644,1.701,306.97,1.958c31.512,0.079,63.027-1.224,95.365-1.912c0-8.49-0.008-13.471,0.001-18.453
	c0.182-101.228,0.364-202.455,0.55-303.682c0.368-200.773,0.738-401.546,1.108-602.319c0.004-2.237-0.047-4.476,0.027-6.711
	c0.674-20.421,7.162-26.659,27.8-26.766c20.663-0.107,26.758,5.704,27.493,26.75c0.312,8.938,0.065,17.896,0.083,26.845
	c0.202,97.871,0.25,195.743,0.644,293.613c0.652,162.148,1.781,324.294,2.091,486.443c0.061,31.803-2.931,63.603-3.993,95.422
	c-0.353,10.561-0.775,23.43,12.203,26.568C1487.712,1543.303,1514.797,1543.485,1543.291,1536.567z M520.398,1327.492
	c-0.238,2.445-0.477,4.89-0.715,7.336c4.727,2.656,9.304,5.634,14.204,7.917c44.014,20.507,88.049,40.969,132.151,61.285
	c25.731,11.853,52.558,17.336,81.183,17.097c99.55-0.828,199.108-0.55,298.663-0.925c8.069-0.03,16.131-1.826,26.06-3.026
	c1.009-11.583,2.582-21.381,2.604-31.182c0.195-85.577,0.113-171.155,0.114-256.733c0-105.154-0.064-210.309,0.043-315.463
	c0.03-29.708,8.234-37.468,35.325-34.421c19.113,2.149,24.486,8.749,24.488,30.454c0.017,191.851-0.03,383.701,0.135,575.552
	c0.008,9.155,1.837,18.308,2.924,28.449c20.389,2.093,38.582,3.446,56.617,5.944c22.293,3.088,31.074-3.604,32.472-26.456
	c0.341-5.574,0.154-11.183,0.139-16.776c-0.361-137.576-0.933-275.151-1.024-412.727c-0.053-80.523,0.747-161.045,0.983-241.568
	c0.089-30.39-4.917-35.152-34.79-35.315c-57.554-0.314-115.108-0.72-172.662-1.092c-24.612-0.159-34.613,8.969-35.056,34.418
	c-0.447,25.698,0.858,51.42,0.873,77.132c0.096,167.24,0.088,334.48-0.067,501.72c-0.008,8.063-1.726,16.124-3.126,28.38
	C826.82,1327.492,673.609,1327.492,520.398,1327.492z M266.386,1212.223c-0.377,1.398-0.754,2.796-1.131,4.193
	c3.166,1.901,6.173,4.163,9.524,5.647c43.891,19.435,87.163,40.537,132.023,57.409c24.624,9.26,51.838,15.197,78.073,15.936
	c78.211,2.202,156.516,1.152,234.784,1.247c27.464,0.033,34.968-7.448,34.995-34.715c0.073-73.841,0.045-147.682,0.008-221.523
	c-0.007-13.391-1.136-26.846-0.164-40.156c1.29-17.657,9.041-24.361,26.774-25.751c27.799-2.179,38.198,7.101,38.253,35.043
	c0.146,73.841,0.071,147.682,0.025,221.523c-0.008,12.301-0.827,24.621-0.361,36.897c0.825,21.713,8.81,28.953,30.209,28.692
	c8.38-0.102,16.766-0.243,25.143-0.067c21.165,0.447,28.811-6.211,28.842-27.321c0.178-119.152,0.145-238.304,0.029-357.456
	c-0.018-18.205-6.094-24.911-23.822-25.004c-63.161-0.332-126.325-0.169-189.487-0.137c-15.144,0.008-22.621,7.827-22.64,22.89
	c-0.025,19.02-0.038,38.039-0.04,57.059c-0.006,64.331,0.337,128.665-0.127,192.993c-0.311,43.109-10.017,52.288-52.564,52.598
	c-3.916,0.028-7.832,0.005-11.747,0.005c-106.286,0-212.573,0-318.859,0C278.214,1212.223,272.3,1212.223,266.386,1212.223z
	 M379.362,1544.365c-0.206-15.533-16.165-31.046-31.434-30.556c-15.781,0.507-28.989,14.459-29.017,30.652
	c-0.028,16.69,14.407,30.218,31.634,29.646C364.13,1573.656,379.539,1557.752,379.362,1544.365z M1147.052,128.806
	c-15.028,0.505-29.835,16.342-29.162,31.191c0.714,15.742,15.664,29.304,31.336,28.424c15.812-0.888,29.87-15.545,29.415-30.67
	C1178.218,143.683,1161.454,128.322,1147.052,128.806z M1849.934,966.981c-16.071-0.371-27.51,11.424-27.838,28.702
	c-0.334,17.585,11.006,29.582,28.494,30.145c17.058,0.55,31.001-11.536,31.742-27.513
	C1883.095,981.878,1868.125,967.401,1849.934,966.981z M882.415,159.511c0.166-15.157-14.755-30.565-29.734-30.704
	c-14.811-0.138-30.03,15.263-30.039,30.398c-0.009,15.019,13.631,28.81,28.895,29.215
	C867.674,188.848,882.243,175.208,882.415,159.511z M453.459,1678.122c16.118-0.19,30.238-14.385,29.832-29.992
	c-0.403-15.506-15.366-29.766-30.768-29.323c-15.509,0.446-29.545,15.575-28.866,31.116
	C424.325,1665.264,438.106,1678.303,453.459,1678.122z M1652.015,479.892c15.707-0.098,29.853-14.542,29.598-30.222
	c-0.257-15.819-14.681-29.865-30.323-29.529c-15.508,0.334-27.999,13.326-28.291,29.425
	C1622.697,466.148,1635.944,479.993,1652.015,479.892z M1799.484,735.473c16.185,0.166,29.972-13.604,29.824-29.786
	c-0.146-15.916-14.48-29.987-30.225-29.67c-14.499,0.292-28.843,14.517-29.465,29.22
	C1768.981,720.318,1783.792,735.312,1799.484,735.473z M348.153,420.14c-15.629,0.245-29.639,14.876-29.232,30.53
	c0.414,15.961,14.778,29.696,30.523,29.185c15.392-0.499,27.944-13.765,28.062-29.657
	C377.628,433.675,364.165,419.889,348.153,420.14z M1547.818,1678.131c16.33-0.524,29.676-14.739,28.843-30.721
	c-0.796-15.267-14.594-28.547-29.641-28.529c-15.491,0.019-29.92,14.643-29.785,30.189
	C1517.372,1664.86,1531.877,1678.643,1547.818,1678.131z M707.162,1825.815c15.366,1.299,29.668-10.689,31.236-26.184
	c1.63-16.11-10.522-31.301-26.333-32.919c-15.473-1.583-30.606,11.125-32.424,27.229
	C677.898,1809.377,690.905,1824.441,707.162,1825.815z M200.395,1316.789c16.46,0.12,30.596-13.33,30.482-29.004
	c-0.113-15.547-14.565-29.312-30.544-29.092c-15.59,0.214-28.721,12.964-29.229,28.382
	C170.565,1303.433,183.611,1316.667,200.395,1316.789z M1799.839,1258.473c-15.807-0.001-30.381,14.343-30.146,29.669
	c0.247,16.091,14.069,28.974,30.744,28.655c16.185-0.309,28.745-12.653,28.871-28.375
	C1829.438,1272.276,1815.856,1258.474,1799.839,1258.473z M1030.192,1847.227c-0.242-15.677-14.92-29.461-30.872-28.991
	c-15.169,0.446-28.77,14.102-29.076,29.193c-0.312,15.355,14.332,29.899,30.051,29.846
	C1015.938,1877.221,1030.43,1862.657,1030.192,1847.227z M1030.314,145.562c-0.278-15.654-14.928-29.17-31.078-28.673
	c-15.652,0.482-28.891,13.697-29.043,28.989c-0.156,15.703,14.132,29.707,30.224,29.625
	C1016.527,175.422,1030.594,161.334,1030.314,145.562z M1291.321,1825.851c16.303-0.068,29.803-13.831,29.36-29.931
	c-0.441-16.009-14.68-29.742-30.339-29.262c-15.294,0.469-27.959,13.644-28.242,29.38
	C1261.8,1812.651,1274.806,1825.92,1291.321,1825.851z M1425.92,1763.037c16.704-0.108,29.445-13.356,28.938-30.092
	c-0.479-15.827-13.19-28.535-28.83-28.824c-15.987-0.295-29.714,13.264-29.906,29.539
	C1395.932,1749.872,1409.393,1763.143,1425.92,1763.037z M1737.581,1393.152c-16.362-0.37-28.754,11.172-29.515,27.491
	c-0.789,16.91,11.368,30.56,27.809,31.225c16.125,0.653,30.37-12.553,30.849-28.598
	C1767.212,1407.008,1754.167,1393.527,1737.581,1393.152z M292.483,1421.228c-0.381-15.999-12.935-28.175-29.023-28.147
	c-16.419,0.028-30.04,13.524-29.821,29.547c0.221,16.143,14.169,29.604,30.297,29.237
	C280.222,1451.495,292.88,1437.909,292.483,1421.228z M453.417,374.465c16.165-0.165,30.224-14.188,29.879-29.803
	c-0.346-15.646-14.889-29.425-30.687-29.074c-15.789,0.351-29.508,15.001-28.842,30.801
	C424.424,361.979,437.779,374.625,453.417,374.465z M1576.796,344.865c-0.299-16.008-14.61-29.774-30.435-29.276
	c-15.959,0.502-29.78,15.021-29.124,30.594c0.669,15.887,15.182,28.988,31.328,28.281
	C1564.179,373.78,1577.083,360.251,1576.796,344.865z M1737.367,541.778c-15.417-0.257-28.755,12.602-29.341,28.287
	c-0.622,16.644,11.978,30.717,27.966,31.236c15.539,0.505,30.338-13.414,30.854-29.019
	C1767.356,556.853,1753.041,542.04,1737.367,541.778z M230.83,706.453c0.443-14.986-14.75-30.451-29.927-30.46
	c-15.056-0.009-28.912,13.326-29.67,28.553c-0.806,16.209,12.315,30.443,28.531,30.951
	C215.573,735.994,230.366,722.164,230.83,706.453z M178.419,996.527c-0.193-16.688-13.609-29.859-29.839-29.294
	c-15.236,0.531-28.549,14.081-28.741,29.253c-0.199,15.699,14.463,30.841,29.454,30.418
	C165.959,1026.435,178.612,1013.239,178.419,996.527z M1652.752,1572.94c16.719-0.412,29.418-13.684,28.867-30.169
	c-0.535-16.007-14.719-29.047-30.899-28.406c-15.773,0.625-27.8,13.463-27.704,29.571
	C1623.118,1561.059,1635.728,1573.359,1652.752,1572.94z M604.184,1733.978c0.071-16.448-13.201-29.939-29.397-29.882
	c-16.185,0.057-29.336,13.656-29.181,30.175c0.15,15.955,12.576,28.44,28.608,28.745
	C590.856,1763.333,604.113,1750.488,604.184,1733.978z M709.202,226.645c16.019,0.095,28.728-12.081,29.228-28.003
	c0.522-16.628-12.169-30.346-28.43-30.731c-15.734-0.372-30.57,13.58-30.871,29.033
	C678.825,212.496,693.054,226.549,709.202,226.645z M852.86,1863.869c16.274-0.14,30.046-14.084,29.516-29.887
	c-0.512-15.289-13.782-28.011-29.394-28.182c-16.146-0.176-30.265,13.235-30.498,28.968
	C822.256,1850.26,836.606,1864.008,852.86,1863.869z M1178.003,1835.097c0.222-15.479-14.047-29.342-30.155-29.297
	c-16.127,0.045-30.14,13.853-29.95,29.513c0.181,14.93,13.804,28.204,29.306,28.556
	C1163.487,1864.238,1177.776,1850.89,1178.003,1835.097z M292.505,572.492c0.602-16.539-12.423-30.507-28.643-30.717
	c-14.994-0.194-29.321,13.086-30.257,28.044c-0.958,15.302,12.853,30.65,28.326,31.477
	C277.808,602.144,291.909,588.859,292.505,572.492z M1454.853,259.385c-0.352-16.376-14.165-29.419-30.4-28.705
	c-15.775,0.693-28.134,13.529-28.161,29.25c-0.029,16.614,12.907,29.458,29.569,29.358
	C1442.527,289.189,1455.212,276.105,1454.853,259.385z M1320.694,196.699c-0.348-16.174-14.137-29.187-30.482-28.768
	c-16.127,0.413-28.743,14.277-28.104,30.885c0.614,15.958,13.34,28.028,29.334,27.821
	C1308.021,226.423,1321.047,213.091,1320.694,196.699z M1866.781,848.879c-0.187-16.931-13.122-29.845-29.385-29.339
	c-15.928,0.496-29.061,14.5-28.697,30.602c0.357,15.782,12.859,27.808,29.105,27.998
	C1854.969,878.34,1866.973,866.218,1866.781,848.879z M1866.991,1146.418c0.756-16.779-11.37-30.631-27.553-31.475
	c-15.545-0.811-30.14,12.77-30.747,28.611c-0.64,16.697,11.719,29.604,28.695,29.968
	C1853.96,1173.877,1866.261,1162.615,1866.991,1146.418z M604.178,259.749c-0.167-16.365-13.647-29.408-30.026-29.052
	c-16.45,0.358-29.082,13.882-28.532,30.549c0.527,15.997,13.034,28.037,29.13,28.046
	C591.241,289.301,604.346,276.145,604.178,259.749z M161.677,878.115c16.795,0.319,30.059-12.297,30.165-28.693
	c0.102-15.851-13.645-29.806-29.443-29.889c-16.028-0.085-29.189,13.491-29.112,30.026
	C133.362,865.634,145.465,877.807,161.677,878.115z M162.495,1173.52c17.015-0.129,29.67-12.799,29.35-29.386
	c-0.305-15.84-14.47-29.521-30.239-29.206c-15.923,0.318-28.799,14.367-28.284,30.863
	C133.826,1161.942,146.138,1173.644,162.495,1173.52z"/>
</svg>
