<?xml version="1.0" encoding="iso-8859-1"?>
<!-- Generator: Adobe Illustrator 19.0.0, SVG Export Plug-In . SVG Version: 6.00 Build 0)  -->
<svg version="1.1" id="Layer_1" xmlns="http://www.w3.org/2000/svg" xmlns:xlink="http://www.w3.org/1999/xlink" x="0px" y="0px"
	 viewBox="0 0 2000 2000" style="enable-background:new 0 0 2000 2000;" xml:space="preserve">
<path d="M936.397,509.989c7.284-156.462,53.277-291.777,176.769-390.799c72.387-58.044,169.942-93.406,262.168-95.62
	c35.302,177.346-39.002,315.679-161.943,444.47c238.012-62.548,418.036,14.301,556.971,203.822
	c-32.625,30.847-65.192,60.277-96.241,91.227c-150.68,150.198-160.308,369.352-25.494,534.035
	c44.99,54.958,100.914,89.626,175.166,106.112c-20.174,53.13-37.102,106.508-60.286,157.013
	c-54.875,119.538-123.816,230.182-220.1,321.589c-83.415,79.19-180.667,105.276-292.01,72.927
	c-60.806-17.666-120.984-37.59-182.105-54.041c-47.073-12.67-94.052-5.18-139.714,9.938c-39.868,13.2-80.037,25.747-119.111,41.042
	c-122.327,47.882-224.194,11.273-313.233-75.426c-119.249-116.115-194.739-260.112-255.587-412.37
	c-42.325-105.908-64.059-216.62-72.405-330.69c-11.006-150.433,6.908-294.665,81.096-428.042
	c76.419-137.388,187.62-229.391,347.705-249.644c71.511-9.047,142.49,2.549,212.017,21.654
	C850.412,488.272,891.066,498.26,936.397,509.989z M1670.682,662.147c-23.574-22.269-43.577-45.659-67.802-63.23
	c-82.277-59.679-173.854-94.528-276.426-77.177c-71.833,12.151-141.977,34.312-212.855,52.085
	c-94.689,23.743-187.624,27.967-280.828-11.139c-72.505-30.421-150.536-42.898-228.606-32.216
	c-122.965,16.825-213.833,84.396-277.361,190.394c-93.477,155.968-100.501,325.633-75.408,498.575
	c27.641,190.506,108.908,359.903,218.781,516.116c40.992,58.281,89.562,109.69,154.145,142.965
	c40.262,20.745,81.947,27.635,126.537,13.351c56.104-17.973,113.087-33.217,169.116-51.409
	c73.775-23.954,146.691-26.282,220.356,0.523c41.068,14.944,83.238,26.831,124.682,40.778
	c90.863,30.579,167.886,10.304,234.131-59.117c66.652-69.846,120.923-148.371,167.001-232.531
	c23.795-43.459,42.553-89.676,63.373-134.188C1441.823,1294.611,1384.262,893.201,1670.682,662.147z M1311.393,106.171
	c-173.213,39.199-293.539,186.387-296.913,361.566C1152.518,483.37,1320.076,266.199,1311.393,106.171z M1022.659,634.789
	c-1.204,5.656-3.462,11.313-3.456,16.968c0.128,122.886,0.715,245.773,0.641,368.659c-0.013,20.912,9.56,32.51,28.021,40.802
	c93.064,41.799,185.709,84.532,278.762,126.356c10.331,4.643,22.32,5.597,33.54,8.262c1.031-1.972,2.063-3.945,3.094-5.917
	c-111.165-185.395-222.33-370.79-333.495-556.185C1027.396,634.085,1025.028,634.437,1022.659,634.789z M991.676,636.414
	C882.801,819.488,773.926,1002.561,661.682,1191.3c12.683-3.146,18.67-3.792,23.956-6.068
	c94.41-40.655,188.409-82.294,283.305-121.775c24.284-10.103,31.213-25.349,31.02-49.417c-0.904-112.89-0.937-225.786-1.27-338.68
	c-0.036-12.247-0.005-24.493-0.005-36.74C996.35,637.885,994.013,637.15,991.676,636.414z M1372.435,1220.913
	c-118.626-51.989-232.78-102.018-349.145-153.016c0,122.29,0,239.607,0,362.535
	C1141.474,1359.511,1255.335,1291.183,1372.435,1220.913z M995.313,1069.844c-116.755,50.975-230.529,100.649-348.856,152.311
	c119.014,69.081,232.451,134.925,348.856,202.491C995.313,1303.912,995.313,1188.748,995.313,1069.844z M1344.823,1302.699
	c-102.039,59.431-204.442,118.264-305.486,179.343c-10.846,6.556-19.133,26.096-19.466,39.834
	c-1.799,74.326-0.802,148.722-0.51,223.093c0.031,8.009,1.734,16.012,2.662,24.017c2.184,0.469,4.368,0.939,6.551,1.408
	c117.862-149.882,228.388-304.918,324.718-471.405C1350.461,1300.213,1347.469,1301.158,1344.823,1302.699z M655.254,1299.952
	c112.03,157.758,224.06,315.516,339.233,477.7c2.614-10.03,3.826-12.501,3.819-14.968c-0.229-83.402,0.031-166.816-1.675-250.19
	c-0.21-10.287-8.552-23.999-17.315-29.862c-28.966-19.381-59.86-35.879-90-53.507c-76.361-44.664-152.714-89.341-229.07-134.013
	C658.582,1296.726,656.918,1298.339,655.254,1299.952z"/>
</svg>
