<?xml version="1.0" encoding="utf-8"?>
<!-- Generator: Adobe Illustrator 25.1.0, SVG Export Plug-In . SVG Version: 6.00 Build 0)  -->
<svg version="1.1" id="Layer_1" xmlns="http://www.w3.org/2000/svg" xmlns:xlink="http://www.w3.org/1999/xlink" x="0px" y="0px"
	 viewBox="0 0 2000 2000" style="enable-background:new 0 0 2000 2000;" xml:space="preserve">
<path d="M936.4,510c7.3-156.5,53.3-291.8,176.8-390.8c72.4-58,169.9-93.4,262.2-95.6c35.3,177.3-39,315.7-161.9,444.5
	c238-62.5,418,14.3,557,203.8c-32.6,30.8-65.2,60.3-96.2,91.2c-150.7,150.2-160.3,369.4-25.5,534c45,55,100.9,89.6,175.2,106.1
	c-20.2,53.1-37.1,106.5-60.3,157c-54.9,119.5-123.8,230.2-220.1,321.6c-83.4,79.2-180.7,105.3-292,72.9
	c-60.8-17.7-121-37.6-182.1-54c-47.1-12.7-94.1-5.2-139.7,9.9c-39.9,13.2-80,25.7-119.1,41c-122.3,47.9-224.2,11.3-313.2-75.4
	c-119.2-116.1-194.7-260.1-255.6-412.4c-42.3-105.9-64.1-216.6-72.4-330.7c-11-150.4,6.9-294.7,81.1-428
	C326.8,567.8,438,475.8,598,455.5c71.5-9,142.5,2.5,212,21.7C850.4,488.3,891.1,498.3,936.4,510z M1670.7,662.1
	c-23.6-22.3-43.6-45.7-67.8-63.2c-82.3-59.7-173.9-94.5-276.4-77.2c-71.8,12.2-142,34.3-212.9,52.1c-94.7,23.7-187.6,28-280.8-11.1
	c-72.5-30.4-150.5-42.9-228.6-32.2c-123,16.8-213.8,84.4-277.4,190.4c-93.5,156-100.5,325.6-75.4,498.6
	c27.6,190.5,108.9,359.9,218.8,516.1c41,58.3,89.6,109.7,154.1,143c40.3,20.7,81.9,27.6,126.5,13.4c56.1-18,113.1-33.2,169.1-51.4
	c73.8-24,146.7-26.3,220.4,0.5c41.1,14.9,83.2,26.8,124.7,40.8c90.9,30.6,167.9,10.3,234.1-59.1c66.7-69.8,120.9-148.4,167-232.5
	c23.8-43.5,42.6-89.7,63.4-134.2C1441.8,1294.6,1384.3,893.2,1670.7,662.1z M1311.4,106.2c-173.2,39.2-293.5,186.4-296.9,361.6
	C1152.5,483.4,1320.1,266.2,1311.4,106.2z M1022.7,634.8c-1.2,5.7-3.5,11.3-3.5,17c0.1,122.9,0.7,245.8,0.6,368.7
	c0,20.9,9.6,32.5,28,40.8c93.1,41.8,185.7,84.5,278.8,126.4c10.3,4.6,22.3,5.6,33.5,8.3c1-2,2.1-3.9,3.1-5.9
	c-111.2-185.4-222.3-370.8-333.5-556.2C1027.4,634.1,1025,634.4,1022.7,634.8z M991.7,636.4c-108.9,183.1-217.8,366.1-330,554.9
	c12.7-3.1,18.7-3.8,24-6.1c94.4-40.7,188.4-82.3,283.3-121.8c24.3-10.1,31.2-25.3,31-49.4c-0.9-112.9-0.9-225.8-1.3-338.7
	c0-12.2,0-24.5,0-36.7C996.3,637.9,994,637.2,991.7,636.4z M1372.4,1220.9c-118.6-52-232.8-102-349.1-153c0,122.3,0,239.6,0,362.5
	C1141.5,1359.5,1255.3,1291.2,1372.4,1220.9z M995.3,1069.8c-116.8,51-230.5,100.6-348.9,152.3c119,69.1,232.5,134.9,348.9,202.5
	C995.3,1303.9,995.3,1188.7,995.3,1069.8z M1344.8,1302.7c-102,59.4-204.4,118.3-305.5,179.3c-10.8,6.6-19.1,26.1-19.5,39.8
	c-1.8,74.3-0.8,148.7-0.5,223.1c0,8,1.7,16,2.7,24c2.2,0.5,4.4,0.9,6.6,1.4c117.9-149.9,228.4-304.9,324.7-471.4
	C1350.5,1300.2,1347.5,1301.2,1344.8,1302.7z M655.3,1300c112,157.8,224.1,315.5,339.2,477.7c2.6-10,3.8-12.5,3.8-15
	c-0.2-83.4,0-166.8-1.7-250.2c-0.2-10.3-8.6-24-17.3-29.9c-29-19.4-59.9-35.9-90-53.5c-76.4-44.7-152.7-89.3-229.1-134
	C658.6,1296.7,656.9,1298.3,655.3,1300z"/>
</svg>
