<?xml version="1.0" encoding="iso-8859-1"?>
<!-- Generator: Adobe Illustrator 19.0.0, SVG Export Plug-In . SVG Version: 6.00 Build 0)  -->
<svg version="1.1" id="Layer_1" xmlns="http://www.w3.org/2000/svg" xmlns:xlink="http://www.w3.org/1999/xlink" x="0px" y="0px"
	 viewBox="0 0 500 500" enable-background="new 0 0 500 500" xml:space="preserve">
<path d="M493.39,250.332c-0.361,133.01-108.417,247.513-251.768,243.876C114.688,490.988,1.246,386.73,5.09,242.128
	C8.478,114.68,113.078,2.226,257.041,6.097C385.062,9.54,492.479,113.453,493.39,250.332z M75.941,216.862
	c-0.576,8.443,0.245,9.796,6.161,13.644c28.3,18.407,54.628,39.344,78.765,62.915c16.525,16.138,32.616,32.74,48.45,49.56
	c10.381,11.028,20.214,22.604,29.824,34.319c10.533,12.841,20.419,26.211,30.831,39.154c2.532,3.147,5.175,7.194,10.584,5.026
	c4.902-1.965,5.623-5.794,5.221-10.414c-0.895-10.291-1.639-20.595-2.474-30.891c-1.555-19.179-3.689-38.332-4.533-57.541
	c-0.77-17.521-4.708-16.78,13.769-23.705c0.948-0.355,1.838-0.938,2.813-1.143c14.034-2.95,20.764-11.29,23.475-25.739
	c3.524-18.779,9.964-37.003,14.931-55.524c2.125-7.923-1.5-11.903-9.543-10.284c-4.691,0.944-9.152,3.083-13.681,4.78
	c-29.163,10.927-58.338,21.82-87.453,32.873c-6.474,2.458-10.599,1.585-12.368-4.003c-1.754-5.54,1.98-7.926,6.509-9.701
	c40.799-15.984,81.6-31.965,122.31-48.175c2.716-1.081,5.819-3.575,6.838-6.162c9.766-24.809,19.023-49.817,28.692-74.665
	c1.645-4.227,0.717-7.699-2.477-9.571c-2.316-1.358-6.155-1.28-8.903-0.461c-3.816,1.137-7.207,3.647-10.846,5.435
	c-31.393,15.424-62.567,31.319-94.277,46.062c-25.484,11.848-51.465,22.675-77.51,33.253
	c-27.708,11.254-55.756,21.671-83.646,32.479C89.975,211.26,82.587,214.233,75.941,216.862z"/>
</svg>
