<?xml version="1.0" encoding="iso-8859-1"?>
<!-- Generator: Adobe Illustrator 19.0.0, SVG Export Plug-In . SVG Version: 6.00 Build 0)  -->
<svg version="1.1" id="Layer_1" xmlns="http://www.w3.org/2000/svg" xmlns:xlink="http://www.w3.org/1999/xlink" x="0px" y="0px"
	 viewBox="0 0 500 500" style="enable-background:new 0 0 500 500;" xml:space="preserve">
<path d="M332.053,77.565c20.089,36.272,39.156,70.698,58.333,105.324c-56.974,102.626-113.927,205.216-171.157,308.304
	c-37.269,0-74.581,0-113.176,0C181.323,353.432,256.243,216.312,332.053,77.565z M324.855,74.074
	C290.268,50.993,256.014,28.135,221.346,5c-1.425,2.611-2.39,3.963-2.951,5.466c-24.337,65.239-48.508,130.54-73.149,195.663
	c-2.407,6.362-1.351,10.926,1.545,16.312c15.137,28.152,30.069,56.414,46.21,86.777C237.284,230.247,280.816,152.613,324.855,74.074
	z M229.513,490.922c24.687-14.866,49.501-29.526,74.025-44.657c24.413-15.062,49.351-29.346,73.479-46.182
	c-19.448-25.336-38.013-49.522-57.669-75.129c-31.022,55.988-61.033,110.152-91.043,164.315
	C228.708,489.82,229.111,490.371,229.513,490.922z"/>
</svg>
