<?xml version="1.0" encoding="iso-8859-1"?>
<!-- Generator: Adobe Illustrator 19.0.0, SVG Export Plug-In . SVG Version: 6.00 Build 0)  -->
<svg version="1.1" id="Layer_1" xmlns="http://www.w3.org/2000/svg" xmlns:xlink="http://www.w3.org/1999/xlink" x="0px" y="0px"
	 viewBox="0 0 500 500" style="enable-background:new 0 0 500 500;" xml:space="preserve">
<path d="M247.61,495.737c-47.772-0.412-90.262-15.45-128.268-44.05c-33.807-25.44-58.561-57.932-75.568-96.413
	c-8.964-20.282-14.709-41.517-18.342-63.484c-3.268-19.758-4.012-39.591-2.723-59.327c1.441-22.068,5.515-43.845,12.77-64.983
	c7.784-22.679,17.941-44.124,31.565-63.772c14.149-20.404,31.055-38.225,50.912-53.43c21.147-16.192,44.153-28.309,69.59-35.928
	c14.009-4.196,28.32-6.424,42.867-8.279c15.146-1.932,30.066-0.994,44.784,0.785c18.715,2.262,37.071,7.158,54.573,14.704
	c39.672,17.105,71.662,43.511,97.044,78.407c19.68,27.057,32.651,57.106,40.658,89.269c6.6,26.509,8.725,53.703,6.533,80.939
	c-3.278,40.738-15.01,79.034-36.152,114.177c-18.367,30.531-42.413,55.727-72.031,75.624c-24.919,16.74-52.364,27.294-81.698,32.655
	C272.162,494.818,259.793,494.769,247.61,495.737z M87.58,251.989c-0.798,20.86,2.736,42.784,8.671,64.289
	c7.131,25.841,18.702,49.704,34.549,71.334c5.099,6.96,10.753,13.75,17.188,19.448c14.48,12.819,31.911,20.089,50.219,26.123
	c21.875,7.21,44.169,7.347,66.371,5.296c22.668-2.094,43.799-10.587,62.99-22.839c35.638-22.752,60.034-54.714,74.531-94.26
	c5.617-15.323,8.929-31.197,10.805-47.474c2.203-19.118,1.756-38.199-1.137-57.017c-2.844-18.502-8.318-36.442-16.381-53.582
	c-10.582-22.496-24.577-42.414-42.97-59.037c-21.55-19.476-46.172-32.971-74.923-39.447c-19.269-4.34-38.379-4.645-57.53-2.166
	c-20.1,2.602-39.042,9.612-56.515,20.011c-5.808,3.457-11.511,7.436-16.34,12.126c-13.988,13.583-24.525,29.835-33.479,47.006
	C95.912,175.781,87.065,212.005,87.58,251.989z M156.461,371.27c18.476,11.237,36.88,22.43,56.518,34.373
	c0-39.904,0-78.227,0-116.665c2.605-0.945,4.565-1.83,6.615-2.374c22.155-5.877,44.315-11.738,66.506-17.473
	c1.913-0.495,4.066-0.066,6.615-0.066c0,21.942,0,43.436,0,64.513c10.589,8.366,51.15,32.461,56.93,33.791
	c0-77.538,0-154.995,0-233.627c-18.473-10.375-36.616-22.348-57.023-32.904c0,40.128,0,78.799,0,117.845
	c-26.604,7.078-52.675,14.28-79.726,20.739c0-23.964,0-46.848,0-70.427c-18.493-10.798-36.912-21.552-56.435-32.952
	C156.461,215.423,156.461,293.109,156.461,371.27z"/>
</svg>
