<?xml version="1.0" encoding="iso-8859-1"?>
<!-- Generator: Adobe Illustrator 19.0.0, SVG Export Plug-In . SVG Version: 6.00 Build 0)  -->
<svg version="1.1" id="Layer_1" xmlns="http://www.w3.org/2000/svg" xmlns:xlink="http://www.w3.org/1999/xlink" x="0px" y="0px"
	 viewBox="0 0 2000 2000" style="enable-background:new 0 0 2000 2000;" xml:space="preserve">
<path d="M1981.861,1002.337c2.941,532.255-435.782,979.3-981.902,978.799c-544.448-0.499-983.583-451.487-979.723-985.949
	C24.081,462.826,458.3,20.847,1000.909,20.652C1551.342,20.453,1986.721,471.367,1981.861,1002.337z M857.842,449.633
	C666.443,506.225,469.252,689.39,452.483,954.688c-16.258,257.214,100.632,440.518,310.207,563.326
	c-2.993,58.371-5.565,108.527-8.388,163.577c37.035,0,70.076,0,105.262,0c3.744-39.03,7.525-78.451,11.664-121.602
	c56.325,8.342,106.648,15.796,160.614,23.788c-1.807,31.267-3.591,62.134-5.651,97.758c35.476,0,68.764,0,107.137,0
	c2.864-35.889,5.935-74.361,9.098-113.99c190.841-52.068,334.641-157.047,410.932-345.618
	c-63.041-26.049-119.307-49.299-175.87-72.672c-47.615,96.948-112.821,165.487-215.861,207.223
	c20.273-231.21,39.691-452.665,59.767-681.629c74.396,45.521,121.597,102.739,154.792,177.743
	c57.904-23.786,114.322-46.961,176.126-72.349c-55.838-154.08-170.073-249.014-311.028-315.985
	c2.819-50.028,5.405-95.926,8.161-144.834c-38.118,0-71.364,0-106.563,0c-2.86,39.433-5.577,76.875-8.081,111.397
	c-56.424-3.669-109.791-7.139-165.8-10.782c1.921-18.481,3.728-34.647,5.25-50.841c1.459-15.528,2.624-31.085,4.19-49.897
	c-39.625,0-73.113,0-107.739,0C866.278,364.135,861.972,407.775,857.842,449.633z M888.987,1365.764
	c58.397,7.618,107.382,14.009,161.188,21.029c22.206-258.759,43.71-509.337,65.487-763.095c-60.013,0-108.995,0-162.982,0
	C931.453,870.995,910.281,1117.675,888.987,1365.764z M644.333,963.994c-14.892,132.01,56.939,281.916,141.257,323.94
	c17.665-202.046,35.307-403.838,53.295-609.576C751.577,696.258,658.546,838.001,644.333,963.994z"/>
</svg>
