<?xml version="1.0" encoding="utf-8"?>
<!-- Generator: Adobe Illustrator 25.1.0, SVG Export Plug-In . SVG Version: 6.00 Build 0)  -->
<svg version="1.1" id="inb" xmlns="http://www.w3.org/2000/svg" xmlns:xlink="http://www.w3.org/1999/xlink" x="0px" y="0px"
	 viewBox="0 0 500 500" style="enable-background:new 0 0 500 500;" xml:space="preserve">
<path d="M249.4,2.5c-136.4,0-247,110.6-247,247s110.6,247,247,247s247-110.6,247-247S385.8,2.5,249.4,2.5z M249.4,478.5
	c-52.1,0-100-17.4-138.5-46.6c0.9-10.6,5.3-31.5,23.3-59c26.6-40.5,66.3-61.2,130.3-61.2s107.2,23.4,110.4,31.8
	c3.2,8.3-11.5,15.5-11.5,15.5s12.3-0.4,29-10.7c16.7-10.3,4-27,4-27l-44.5-44.9c0,0,0.4-2.8-5.6-19.9s-23.4-54-63.1-79.8
	c-39-25.3-66.7-28.6-134.6-30.2c-53.8-1.3-94.1,6.9-108.6,10.4C75.6,76.6,156,20.6,249.4,20.6c126.5,0,229,102.5,229,229
	S375.9,478.5,249.4,478.5z M275.6,215.2l47.7,48.1h-26.6l-22.5-47.1C273.8,215.3,274.9,214.5,275.6,215.2z"/>
</svg>
