<?xml version="1.0" encoding="iso-8859-1"?>
<!-- Generator: Adobe Illustrator 19.0.0, SVG Export Plug-In . SVG Version: 6.00 Build 0)  -->
<svg version="1.1" id="Layer_1" xmlns="http://www.w3.org/2000/svg" xmlns:xlink="http://www.w3.org/1999/xlink" x="0px" y="0px"
	 viewBox="0 0 2000 2000" style="enable-background:new 0 0 2000 2000;" xml:space="preserve">
<path d="M1135.55,337.509c228.58,389.213,455.563,775.707,683.397,1163.648c-36.27,21.773-71.032,42.755-105.902,63.555
	c-227.878,135.931-455.923,271.585-683.455,408.093c-23.02,13.811-41.957,14.662-65.262,0.877
	c-250.116-147.946-500.665-295.16-751.053-442.645c-4.76-2.804-9.008-6.479-17.624-12.755c11.632-1.649,18.56-3.471,25.491-3.486
	c88.038-0.192,176.089-0.894,264.103,0.572c16.3,0.271,33.88,6.982,48.448,15.078c143.027,79.491,285.804,159.445,427.967,240.469
	c26.393,15.042,47.627,16.014,74.647-0.08c170.704-101.676,342.398-201.691,513.74-302.299c6.876-4.037,13.485-8.528,21.567-13.665
	c-19.287-35.372-37.924-70.071-57.032-104.51c-151.539-273.133-303.039-546.288-455.003-819.185
	c-12.595-22.618-12.431-41.818,1.41-64.153C1086.633,425.64,1109.742,382.686,1135.55,337.509z M521.731,1193.216
	c27.048,0.855,44.075-9.518,57.05-32.646C727.13,896.149,875.904,631.966,1024.61,367.744
	c23.573-41.885,47.366-83.647,71.238-125.786c3.534,1.432,5.731,2.058,7.67,3.145c190.3,106.62,380.723,213.026,570.468,320.625
	c10.107,5.732,16.88,20.773,20.853,32.906c3.794,11.585,2.383,25.031,2.431,37.662c0.571,149.679,0.609,299.362,1.978,449.033
	c0.151,16.494,4.508,34.639,12.322,49.094c46.682,86.353,94.933,171.857,142.746,257.598c2.003,3.593,4.876,6.701,9.827,13.388
	c1.421-13.434,3.223-22.476,3.212-31.515c-0.358-281.545-0.883-563.09-1.456-844.635c-0.015-7.46-1.44-14.941-1.163-22.373
	c0.68-18.233-8.823-30.253-23.047-39.563c-5.269-3.448-10.816-6.483-16.315-9.566c-224.34-125.788-448.679-251.579-673.046-377.318
	c-39.418-22.091-78.962-43.957-119.786-66.672C811.388,406.372,590.919,797.759,368.408,1192.772
	C422.758,1192.772,472.287,1191.654,521.731,1193.216z M297.073,1244.46c-0.447-117.442-1.013-234.883-1.311-352.325
	c-0.227-89.256,0.612-178.523-0.56-267.764c-0.393-29.918,10.581-49.121,36.618-64.137
	c138.766-80.023,276.806-161.302,415.229-241.922c19.918-11.6,35.091-26.774,46.215-47.265
	c41.358-76.177,83.595-151.876,125.424-227.798c2.186-3.968,3.651-8.333,7.345-16.909c-11.301,5.3-18.189,7.962-24.524,11.589
	c-72.739,41.645-145.35,83.514-218.08,125.174c-172.444,98.776-344.783,197.739-517.574,295.904
	c-25.12,14.271-36.677,31.674-36.576,61.868c0.994,294.832,0.655,589.668,0.694,884.503c0.001,7.232,0,14.464,0,21.502
	c455.208,0,907.916,0,1362.566,0c-4.156-7.709-7.27-13.671-10.55-19.54c-19.609-35.088-40.835-69.386-58.382-105.474
	c-13.713-28.204-34.129-39.222-64.247-39.07c-172.724,0.873-345.452,1.604-518.178,1.599c-175.6-0.005-351.199-0.911-526.799-1.459
	c-5.079-0.016-10.157-0.446-17.31-0.779C297.076,1255.697,297.095,1250.079,297.073,1244.46z"/>
</svg>
