<?xml version="1.0" encoding="iso-8859-1"?>
<!-- Generator: Adobe Illustrator 19.0.0, SVG Export Plug-In . SVG Version: 6.00 Build 0)  -->
<svg version="1.1" id="Layer_1" xmlns="http://www.w3.org/2000/svg" xmlns:xlink="http://www.w3.org/1999/xlink" x="0px" y="0px"
	 viewBox="0 0 500 500" enable-background="new 0 0 500 500" xml:space="preserve">
<path d="M33.577,144.633c-3.986,12.78-8.967,25.175-11.667,38.049c-9.38,44.727-0.101,85.953,25.717,123.419
	c23.434,34.006,55.255,57.774,92.827,74.126c40.177,17.486,82.256,24.212,125.922,21.7c47.037-2.706,90.747-15.884,130.112-42.033
	c35.155-23.352,62.048-53.777,76.058-94.181c13.587-39.184,11.314-77.889-5.396-115.791c-0.673-1.526-1.403-3.027-1.348-5.093
	c0.878,1.057,1.921,2.016,2.612,3.184c37.455,63.373,32.711,144.586-11.856,203.492c-38.429,50.793-89.983,80.081-151.748,92.672
	c-31.075,6.335-62.334,7.482-93.699,2.857c-64.817-9.556-120.201-36.814-162.301-88.117c-22.403-27.301-36.481-58.591-41.193-93.68
	c-5.666-42.202,2.839-81.693,24.297-118.425C32.389,145.998,33.063,145.298,33.577,144.633z M207.466,187.535
	c13.914,57.33,27.642,113.889,41.369,170.449c0.615,0.031,1.229,0.063,1.844,0.095c13.602-56.71,27.204-113.42,40.905-170.543
	C263.145,187.535,235.613,187.535,207.466,187.535z M250.569,49.052c-0.566,0.087-1.131,0.175-1.697,0.262
	c-13.371,40.9-26.742,81.8-40.308,123.296c28.298,0,55.274,0,83.209,0C277.877,130.942,264.223,89.997,250.569,49.052z
	 M62.503,183.106c38.667-60.632,92.535-95.048,162.355-104.651c3.299-10.118,6.497-19.927,9.929-30.455
	C157.835,49.898,81.624,110.779,62.503,183.106z M437.003,182.357C415.409,104.842,335.128,48.519,265.438,48.376
	c3.22,9.976,6.393,19.806,9.739,30.172C345.511,88.304,399.104,123.122,437.003,182.357z"/>
</svg>
