<?xml version="1.0" encoding="iso-8859-1"?>
<!-- Generator: Adobe Illustrator 19.0.0, SVG Export Plug-In . SVG Version: 6.00 Build 0)  -->
<svg version="1.1" id="Layer_1" xmlns="http://www.w3.org/2000/svg" xmlns:xlink="http://www.w3.org/1999/xlink" x="0px" y="0px"
	 viewBox="0 0 2000 2000" style="enable-background:new 0 0 2000 2000;" xml:space="preserve">
<path d="M1539.044,1536.231c-178.697,148.52-356.46,296.264-537.094,446.395c-180.164-149.717-360.069-299.219-538.824-447.765
	c0-358.734,0-714.23,0-1072.787c178.217-148.156,357.5-297.199,538.764-447.888C1181,163.02,1359.522,311.365,1539.044,460.541
	C1539.044,817.865,1539.044,1175.616,1539.044,1536.231z M1226.26,642.956c-75.985-60.899-149.747-120.016-224.029-179.551
	C925.322,525.241,850.126,585.7,776.582,644.829c0,237.334,0,470.767,0,707.113c74.282,59.721,149.428,120.136,225.738,181.488
	c75.699-60.767,150.162-120.542,223.94-179.767C1226.26,1115.787,1226.26,879.98,1226.26,642.956z"/>
</svg>
