<?xml version="1.0" encoding="iso-8859-1"?>
<!-- Generator: Adobe Illustrator 19.0.0, SVG Export Plug-In . SVG Version: 6.00 Build 0)  -->
<svg version="1.1" id="Layer_1" xmlns="http://www.w3.org/2000/svg" xmlns:xlink="http://www.w3.org/1999/xlink" x="0px" y="0px"
	 viewBox="0 0 2000 2000" style="enable-background:new 0 0 2000 2000;" xml:space="preserve">
<path d="M999.902,19.911c540.095-1.548,946.536,428.866,978.233,905.335c19.724,296.486-73.571,553.861-281.064,765.656
	c-180.155,183.889-403.159,282.804-660.53,290.539c-584.372,17.562-984.874-437.095-1015.547-905.535
	C2.435,792.475,86.825,543.201,280.197,334.666C473.687,126.004,715.734,23.324,999.902,19.911z M1888.968,1003.516
	c4.011-495.735-397.146-880.04-858.323-892.845C502.91,96.017,131.405,511.458,110.144,951.528
	c-26.029,538.754,406.071,945.247,896.955,940.67C1493.792,1887.661,1891.096,1489.863,1888.968,1003.516z M518.429,1204.01
	c134.82,45.494,269.397,91.713,403.994,137.866c163.567,56.087,327.045,112.433,490.625,168.482
	c20.896,7.16,41.752,12.368,64.429,4.838c31.532-10.471,57.131-40.83,58.177-72.164c1.496-44.815-15.681-73.263-53.719-86.406
	c-119.509-41.294-239.15-82.208-358.757-123.218c-181.966-62.389-364.199-124.013-545.783-187.494
	c-62.737-21.932-119.623,31.703-113.91,77.865C458.717,1159.151,489.627,1194.292,518.429,1204.01z M506.582,772.739
	c-34.102,18.338-47.521,48.68-42.783,86.192c4.28,33.887,25.034,56.284,56.698,67.118
	c187.87,64.279,375.967,127.898,563.883,192.046c112.577,38.43,224.858,77.727,337.484,116.012
	c48.962,16.644,95.073-5.975,110.357-52.589c14.892-45.417-8.578-90.058-56.352-106.675c-37.238-12.952-74.579-25.606-111.89-38.347
	c-115.761-39.53-231.535-79.025-347.294-118.56c-126.392-43.166-252.736-86.473-379.187-129.465
	c-30.263-10.289-60.866-19.575-90.068-28.923C531.6,764.502,518.003,766.597,506.582,772.739z M1482.733,799.564
	c-98.948-35.18-198.168-69.611-297.534-103.595c-109.425-37.424-219.185-73.871-328.704-111.023
	c-96.272-32.659-192.302-66.033-288.665-98.419c-39.725-13.35-86.921,12.33-100.254,53.024
	c-14.272,43.559,8.047,92.983,48.251,106.411c66.557,22.231,133.302,43.905,199.71,66.568
	c68.361,23.329,136.299,47.894,204.628,71.315c101.102,34.654,202.388,68.769,303.592,103.123
	c67.735,22.993,135.249,46.666,203.265,68.798c55.383,18.022,108.484-21.265,108.618-78.932
	C1535.727,839.845,1518.173,812.165,1482.733,799.564z"/>
</svg>
