<?xml version="1.0" encoding="iso-8859-1"?>
<!-- Generator: Adobe Illustrator 19.0.0, SVG Export Plug-In . SVG Version: 6.00 Build 0)  -->
<svg version="1.1" id="Layer_1" xmlns="http://www.w3.org/2000/svg" xmlns:xlink="http://www.w3.org/1999/xlink" x="0px" y="0px"
	 viewBox="0 0 2000 2000" style="enable-background:new 0 0 2000 2000;" xml:space="preserve">
<path d="M1200.146,1521.799c-113.517,4.333-244.053-107.016-236.93-234.863c6.579-118.082-92.704-218.538-196.349-238.986
	c-102.68-20.258-211.835,32.312-260.618,137.566c-13.118,28.303-17.902,62.554-18.482,94.221
	c-2.417,131.913-114.984,244.756-247.038,240.298c-96.934-3.272-203.771-74.381-227.294-222.497
	c-13.521-85.138,65.403-204.28,157.26-232.743c31.979-9.909,66.015-18.16,99.171-18.382
	C381,1045.666,492.686,922.497,488.484,819.308c-5.657-138.915,105.284-248.992,240.641-248.755
	c125,0.218,229.046,105.588,232.612,230.738c4.29,150.583,96.61,239.466,247.043,245.173
	c94.303,3.578,167.768,51.725,205.119,138.695c38.102,88.719,26.786,175.564-37.036,252.316
	C1330.614,1493.092,1269.598,1516.193,1200.146,1521.799z M1561.129,770.67c0.732,93.268,58.881,148.942,152.238,151.419
	c87.121,2.312,155.152-37.774,212.98-94.952c64.416-63.691,83.978-165.803,28.616-252.232
	c-52.356-81.735-147.691-115.293-238.36-88.848c-92.674,27.03-166.76,128.809-155.488,248.52
	C1561.116,746.608,1561.034,758.64,1561.129,770.67z"/>
</svg>
