<?xml version="1.0" encoding="iso-8859-1"?>
<!-- Generator: Adobe Illustrator 19.0.0, SVG Export Plug-In . SVG Version: 6.00 Build 0)  -->
<svg version="1.1" id="Layer_1" xmlns="http://www.w3.org/2000/svg" xmlns:xlink="http://www.w3.org/1999/xlink" x="0px" y="0px"
	 viewBox="0 0 2000 2000" style="enable-background:new 0 0 2000 2000;" xml:space="preserve">
<path d="M1001.335,1981.752C459.699,1977.676,7.214,1542.232,21.403,975.75C34.537,451.348,437.878,66.999,904.95,24.801
	c637.462-57.592,1093.069,463.735,1074.116,1004.122C1960.686,1552.977,1542.488,1974.107,1001.335,1981.752z M1810.219,1002.408
	c-0.117-430.517-338.519-797.067-783.556-811.33c-459.478-14.726-824.884,348.155-835.622,788.162
	c-11.079,454.01,342.063,824.388,802.6,831.404C1440.86,1817.456,1806.964,1455.797,1810.219,1002.408z M283.972,1047.778
	c41.686,0,78.391,0,118.338,0c0-31.572,0-60.129,0-93.375c-38.929,0-76.525,0-118.787,0
	c27.797-261.775,148.298-460.355,375.285-582.763c247.84-133.653,497.775-121.019,735.149,30.868
	c222.282,142.23,318.679,385.379,317.243,551.774c-36.615,0-73.392,0-112.799,0c0,31.278,0,58.943,0,90.518
	c37.296,0,74.004,0,117.575,0c-18.629,217.55-111.496,389.258-276.906,522.675c-215.628,173.922-532.09,201.804-781.567,62.166
	C432.781,1503.859,310.495,1308.339,283.972,1047.778z M783.378,1378.572c0-210.948,0-414.905,0-624.955
	c9.121,9.929,14.573,14.809,18.779,20.595c159.657,219.637,319.263,439.311,478.655,659.14
	c15.451,21.309,32.138,42.073,61.455,33.065c31.241-9.599,37.088-36.115,36.805-65.937c-0.801-84.396-0.524-168.804-0.504-253.207
	c0.042-184.154,0.143-368.308,0.341-552.462c0.029-27.217-6.575-51.571-35.392-60.02c-28.921-8.479-46.436,8.893-61.692,31.76
	c-75.324,112.901-151.389,225.308-227.449,337.716c-6.218,9.19-14.365,17.075-23.137,27.349
	c-74.652-103.126-146.167-201.917-220.882-305.13c33.167-1.511,59.668-2.718,86.43-3.937c0-31.853,0-59.397,0-87.573
	c-104.788,0-206.258,0-310.447,0c0,29.289,0,56.816,0,88.658c34.575,0,66.803,0,101.205,0c0,253.372,0,502.437,0,755.417
	c-34.562,0-66.856,0-100.816,0c0,31.452,0,58.965,0,87.453c105.182,0,207.485,0,311.085,0c0-29.865,0-56.604,0-87.934
	C858.984,1378.572,822.362,1378.572,783.378,1378.572z M1274.447,742.932c-60.79,90.348-121.579,180.696-182.999,271.981
	c63.119,86.382,124.207,169.985,190.026,260.062c0-183.8,0-357.176,0-530.552C1279.132,743.926,1276.79,743.429,1274.447,742.932z"
	/>
</svg>
