<?xml version="1.0" encoding="iso-8859-1"?>
<!-- Generator: Adobe Illustrator 19.0.0, SVG Export Plug-In . SVG Version: 6.00 Build 0)  -->
<svg version="1.1" id="Layer_1" xmlns="http://www.w3.org/2000/svg" xmlns:xlink="http://www.w3.org/1999/xlink" x="0px" y="0px"
	 viewBox="0 0 2000 2000" style="enable-background:new 0 0 2000 2000;" xml:space="preserve">
<path d="M1759.567,383.457c-116.932,210.494-233.692,420.679-350.452,630.864c-4.179,2.111-8.358,4.223-12.536,6.334
	c-3.011-7.315-4.552-15.785-9.255-21.77c-57.155-72.712-115.311-144.64-172.13-217.61c-62.626-80.427-163.745-62.653-203.558,16.961
	c-59.106,118.191-125.785,232.598-189.337,348.562c-18.304,33.399-32.047,66.907-16.633,106.06
	c16.012,40.671,44.321,65.838,87.457,71.705c46.325,6.301,84.367-9.893,107.89-51.026c37.293-65.213,72.591-131.565,108.851-197.371
	c7.018-12.737,14.575-25.178,31.046-43.65c4.643,8.049,8.371,16.822,14.071,24.037c58.427,73.958,117.071,147.746,175.859,221.418
	c57.6,72.182,148.733,62.195,193.436-19.109c117.366-213.462,235.938-426.261,354.112-639.278c2.875-5.182,6.718-9.826,14.22-20.653
	c54.372,120.675,81.322,241.983,83.653,369.28c5.221,285.109-93.089,529.579-297.281,727.262
	c-405.029,392.117-1058.648,364.363-1427.712-77.977C-98.916,1197.786-34.309,577.906,385.491,237.617
	C834.297-126.185,1456.881-7.989,1759.567,383.457z M492.666,1325.891c25.27-0.442,57.891-19.25,78.187-56.146
	c70.291-127.783,139.95-255.918,209.229-384.253c21.044-38.982,13.742-88.229-15.674-120.901
	c-30.553-33.935-78.419-44.58-120.891-29.018c-34.634,12.69-52.079,40.372-68.347,70.428
	c-64.893,119.892-130.939,239.165-195.089,359.451C340.259,1240.12,391.441,1324.719,492.666,1325.891z"/>
</svg>
