<?xml version="1.0" encoding="iso-8859-1"?>
<!-- Generator: Adobe Illustrator 19.0.0, SVG Export Plug-In . SVG Version: 6.00 Build 0)  -->
<svg version="1.1" id="Layer_1" xmlns="http://www.w3.org/2000/svg" xmlns:xlink="http://www.w3.org/1999/xlink" x="0px" y="0px"
	 viewBox="0 0 2000 2000" style="enable-background:new 0 0 2000 2000;" xml:space="preserve">
<path d="M1017.495,1025.86c-17.212,46.549-33.68,91.087-51.06,138.088c-35.579,6.601-72.209,16.043-106.57-2.889
	c-10.279-22.911-3.113-41.693,3.483-59.848c39.106-107.618,78.762-215.036,118.24-322.519c0.911-2.481,2.259-4.853,2.816-7.404
	c7.74-35.427,31.357-52.674,65.379-60.763c60.425-14.367,120.898-18.088,181.647-4.13c48.552,11.155,76.992,41.732,82.073,88.975
	c1.651,15.355-2.246,31.306-4.082,52.466c22.04-34.506,52.686-44.29,85.218-50.984c44.771-9.213,89.759-11.423,134.431-1.264
	c68.236,15.519,82.693,59.499,67.255,112.607c-19.146,65.865-45.536,129.672-69.919,193.942
	c-8.59,22.642-28.375,36.602-49.086,46.75c-67.724,33.186-139.084,39.546-211.921,21.847
	c-48.897-11.882-68.552-47.262-56.735-96.223c17.065-70.701,61.982-113.685,132.693-127.524
	c42.384-8.295,85.67-11.987,128.026-17.677c9.213-23.191,7.555-32.43-13.921-36.146c-25.675-4.443-52.719-4.434-78.786-2.083
	c-21.639,1.952-42.72,10.09-68.275,16.557c-1.837-14.189-3.702-28.59-5.85-45.181
	C1250.608,992.46,1149.845,1037.362,1017.495,1025.86z M1055.69,919.651c18.384,0,34.399,1.367,50.099-0.275
	c36.602-3.826,69.821-41.187,70.936-78.08c0.534-17.68-7.355-29.932-23.909-32.987c-18.86-3.481-38.312-8.553-58.281,4.131
	C1082.193,846.5,1069.344,881.966,1055.69,919.651z M1333.857,1074.739c30.206,17.827,58.242,9.486,85.973-1.117
	c6.702-19.391,12.817-37.084,20.148-58.295c-13.791,2.376-23.116,4.507-32.56,5.463c-9.685,0.98-19.685-0.319-29.202,1.349
	C1345.454,1027.881,1331.478,1044.115,1333.857,1074.739z M1522.097,1241.414c-7.988,35.189,9.177,57.224,44.625,58.594
	c27.57,1.066,53.579-4.814,74.959-21.661c28.507-22.463,57.825-45.009,81.676-72.036c48.043-54.442,95.235-110.04,137.88-168.721
	c39.894-54.895,74.07-114.018,109.411-172.102c9.945-16.346,17.256-35.186,10.3-57.779c-32.948-29.918-67.564-12.416-102.227-2.014
	c-44.505,81.718-90.987,160.319-142.761,235.604c-1.72-0.577-3.439-1.154-5.159-1.731c6.473-74.585,12.945-149.171,19.118-220.294
	c-29.206-37.297-76.152-35.543-124.131,2.247c-5.305,52.889-12.848,107.351-15.673,162.058
	c-2.85,55.198-8.84,112.052,32.287,161.776c-39.368,29.349-76.871,57.308-117.869,87.872
	C1524.103,1234.649,1522.876,1237.98,1522.097,1241.414z M768.888,945.063c-19.225,54.288-39.335,108.262-58.697,162.502
	c-3.827,10.721-6.784,21.975-8.336,33.233c-2.14,15.52,5.95,26.634,20.802,29.275c28.934,5.146,57.892,3.888,86.699-3.85
	c11.443-31.562,22.379-61.451,33.12-91.41c19.413-54.147,40.621-107.747,57.547-162.664c19.127-62.056-7.618-105.62-71.622-117.172
	c-69.408-12.527-135.671,0.125-198.566,32.271c-30.079,15.373-50.401,37.852-61.543,69.776
	c-17.805,51.014-36.737,101.634-54.99,152.494c-9.572,26.671-19.424,53.277-27.811,80.327c-5.99,19.318,2.215,36.943,19.305,40.106
	c28.961,5.361,58.027,4.279,86.757-4.866c31.948-87.57,63.468-173.965,95.392-261.47c29.601-9.967,58.116-24.04,91.383,2.133
	C775.037,919.776,773.209,932.861,768.888,945.063z M586.809,760.883c4.755-13.248,3.345-28.708,4.565-40.841
	c-28.976-17.91-69.61-19.165-111.121-5.369c-27.708,76.171-55.911,153.447-83.925,230.792
	c-21.389,59.054-42.527,118.199-63.799,177.296c-11.427,31.747,6.443,47.005,34.006,47.588c23.748,0.502,47.572-2.637,72.868-4.264
	C489.536,1028.744,538.676,894.994,586.809,760.883z M295.256,1113.857c36.402-101.14,73.177-202.146,109.778-303.214
	c11.155-30.802,22.152-61.66,33.461-93.161c-23.191-3.193-35.299,8.407-44.363,23.305c-10.56,17.358-19.36,35.777-29.285,53.533
	c-26.271,46.998-51.332,94.753-79.568,140.547c-22.678,36.78-52.633,67.456-96.7,78.539c-37.027,9.312-73.704,3.405-110.203-5.391
	c-19.327-4.658-38.587-13.588-59.45-6.056c-3.321,22.633,13.908,33.087,26.852,43.449c69.027,55.256,147.904,92.068,233.21,121.69
	C285.032,1147.158,289.364,1130.227,295.256,1113.857z M169.471,1190.652c2.83,23.616,7.383,47.137,8.431,70.821
	c0.849,19.189,8.538,32.11,25.105,40.074c16.061,7.72,29.911,0.89,40.981-10c24.327-23.932,47.617-48.917,73.729-75.956
	c-54.526-6.611-102.408-21.967-150.474-54.262C168.258,1175.036,168.54,1182.883,169.471,1190.652z"/>
</svg>
