<?xml version="1.0" encoding="iso-8859-1"?>
<!-- Generator: Adobe Illustrator 19.0.0, SVG Export Plug-In . SVG Version: 6.00 Build 0)  -->
<svg version="1.1" id="Layer_1" xmlns="http://www.w3.org/2000/svg" xmlns:xlink="http://www.w3.org/1999/xlink" x="0px" y="0px"
	 viewBox="0 0 500 500" enable-background="new 0 0 500 500" xml:space="preserve">
<path d="M379.37,192.669c-0.221,19.252-12.927,34.313-36.533,35.635c-16.285,0.912-33.105-17.235-33.221-35.044
	c-0.134-20.588,15.795-35.454,34.709-35.6C363.904,157.509,379.715,172.354,379.37,192.669z M199.293,244.29
	c-0.037-18.091-12.923-34.974-34.939-35.052c-18.963-0.067-35.093,15.432-35.101,34.111c-0.009,20.905,15.233,35.177,35.235,35.819
	C183.741,279.556,199.332,263.53,199.293,244.29z M206.336,282.277c0.18,17.373,14.482,31.573,31.788,31.561
	c15.992-0.012,30.627-15.124,30.104-31.859c-0.495-15.822-12.717-29.291-30.271-30.12
	C221.088,251.887,206.17,266.238,206.336,282.277z M404.132,145.489c0.301,17.639,12.589,30.617,30.896,30.586
	c17.043-0.028,30.455-12.935,30.616-30.17c0.174-18.617-15.988-32.161-30.623-30.922
	C419.005,113.351,403.84,128.358,404.132,145.489z M91.27,304.305c16.093,0.223,29.742-13.086,29.89-29.146
	c0.164-17.822-12.134-30.553-29.877-30.929c-15.996-0.339-29.535,13.047-29.646,29.308C61.519,290.766,74.332,304.07,91.27,304.305z
	 M284.31,421.104c0.393-17.243-12.334-30.801-29.175-31.08c-16.501-0.273-30.403,12.962-30.622,29.152
	c-0.231,17.076,12.506,30.181,29.701,30.559C270.661,450.098,283.937,437.467,284.31,421.104z M310.282,102.759
	c0.199-16.082-13.563-30.18-29.66-30.384c-16.124-0.205-29.826,13.412-30.247,29.668c-0.385,14.855,11.393,30.811,29.898,30.295
	C296.854,132.553,310.074,119.522,310.282,102.759z M224.422,136.527c-0.078-16.445-13.396-29.371-30.21-29.32
	c-17.013,0.052-29.742,13.212-29.565,30.568c0.165,16.168,13.485,29.153,29.799,29.049
	C211.469,166.714,224.503,153.541,224.422,136.527z M313.144,338.371c16.886,0.459,30.949-12.18,31.361-28.183
	c0.444-17.249-11.771-30.884-28.091-31.358c-18.115-0.525-31.035,11.314-31.543,28.905
	C284.396,324.161,297.108,337.935,313.144,338.371z M95.897,429.35c-0.001,15.973,13.793,29.215,30.458,29.239
	c15.453,0.022,29.113-13.501,29.385-29.091c0.303-17.36-12.636-30.505-30.162-30.644C108.63,398.719,95.899,411.8,95.897,429.35z
	 M439.222,373.501c15.167-0.277,26.113-12.423,26.369-25.043c0.313-15.446-9.34-27.073-26.259-27.875
	c-14.495-0.687-26.39,11.341-26.39,26.117C411.244,361.323,426.24,373.738,439.222,373.501z M216.634,373.299
	c-0.03-15.703-11.248-26.995-27.178-26.962c-14.514,0.03-25.273,11.019-25.613,26.254c-0.369,16.515,13.349,27.104,25.935,26.471
	C204.902,399.093,216.662,387.952,216.634,373.299z M490.764,244.83c-0.865-17.668-9.848-26.666-28.578-26.545
	c-13.255,0.086-23.094,11.772-23.555,26.631c-0.393,12.689,12.391,27.031,26.324,25.182
	C478.288,271.732,491.459,259.035,490.764,244.83z M258.99,209.54c-0.008-13.493-12.423-26.139-26.356-25.486
	c-16.163,0.758-25.407,12.945-25.06,26.367c0.368,14.257,11.234,25.034,25.626,24.889
	C247.565,235.166,258.998,223.741,258.99,209.54z M61.392,209.164c-0.728-14.264-9.929-25.006-25.76-25.092
	c-14.344-0.077-25.663,9.865-25.511,27.164c0.119,13.458,11.737,24.247,25.627,24.074C50.295,235.823,62.13,223.611,61.392,209.164z
	 M336.06,372.849c-0.12,14.412,10.041,25.052,25.72,25.736c13.741,0.6,25.879-11.926,25.746-25.801
	c-0.139-14.515-11.126-25.377-25.686-25.391C348.806,346.895,336.197,356.402,336.06,372.849z M353.295,432.863
	c-0.072-12.88-10.448-25.733-25.854-25.535c-14.336,0.184-25.6,11.271-25.567,25.654c0.032,14.24,11.31,25.449,25.681,25.523
	C341.584,458.578,353.374,446.963,353.295,432.863z M113.013,372.594c13.999,0.062,25.544-11.336,25.562-25.236
	c0.019-14.505-11.201-25.883-25.515-25.873c-14.444,0.01-25.654,11.182-25.713,25.627C87.289,361.526,98.371,372.53,113.013,372.594
	z M211.445,46.284c-12.84,0.142-22.058,9.884-21.89,23.134c0.146,11.468,10.349,21.319,21.927,21.17
	c12.723-0.164,22.226-9.735,22.023-22.182C233.292,55.271,224.189,46.143,211.445,46.284z M367.077,150.721
	c10.74,0.047,21.348-11.028,21.326-22.264c-0.024-12.218-10.417-23.222-22.315-22.324c-12.402,0.936-21.426,7.531-22.016,21.82
	C344.024,140.981,353.807,150.663,367.077,150.721z M431.218,222.91c-0.228-13.054-10.59-23.06-23.503-22.697
	c-11.153,0.314-20.75,11.242-20.597,23.453c0.151,12.024,9.62,21.089,21.8,20.867C421.951,244.297,431.432,235.104,431.218,222.91z
	 M115.897,150.324c13.713,0.18,22.892-8.672,23.394-21.591c0.542-13.929-11.262-22.776-21.733-22.631
	c-11.943,0.165-22.904,8.849-22.265,22.146C95.255,140.637,104.152,150.17,115.897,150.324z M48.725,321.4
	c-11.877-0.057-21.596,9.531-21.847,21.551C26.648,354,36.901,364.228,48.177,364.197c12.265-0.033,21.461-9.208,21.511-21.462
	C69.737,330.989,60.37,321.456,48.725,321.4z M284.31,26.002C284.314,13.575,275.116,4.052,263.06,4
	c-11.681-0.051-21.387,9.898-21.45,21.988c-0.06,11.304,9.941,20.761,21.834,20.646C275.323,46.519,284.307,37.637,284.31,26.002z
	 M233.241,352.479c0.081,11.23,9.683,20.184,21.572,20.116c11.85-0.068,21.306-9.588,21.172-21.316
	c-0.134-11.806-9.518-21.067-21.351-21.073C242.019,330.2,233.146,339.437,233.241,352.479z M173.797,81.149
	c0.425-10.339-8.321-18.033-19.105-17.815c-9.005,0.182-16.904,8.768-16.785,18.243c0.121,9.596,8.625,17.881,18.163,17.697
	C167.332,98.648,173.398,90.84,173.797,81.149z M189.633,450.712c10.64,0.002,18.164-7.584,18.402-17.868
	c0.246-10.646-9.442-18.174-18.437-18.161c-9.567,0.014-16.889,8.221-16.829,18.641C172.829,443.798,179.532,450.71,189.633,450.712
	z M439.923,286.191c-0.086-9.414-8.356-16.779-18.719-16.7c-10.714,0.082-17.06,7.841-17.111,17.387
	c-0.059,11.005,8.449,18.333,18.135,17.998C432.334,304.844,440.02,296.728,439.923,286.191z M199.406,312.381
	c-0.001-9.099-8.117-17.362-17.385-17.701c-9.731-0.356-18.242,8.019-18.289,17.995c-0.046,10.014,7.906,17.866,18.308,18.077
	C191.468,330.944,199.408,322.545,199.406,312.381z M61.68,167.622c11.725-0.503,17.808-8.538,17.265-18.701
	c-0.615-11.509-6.563-16.491-17.405-16.85c-10.229-0.339-17.974,6.834-17.911,18.191C43.23,158.649,50.288,168.111,61.68,167.622z
	 M388.299,64.413c-0.298-9.546-5.727-18.047-18.113-18.026c-10.157,0.018-17.185,6.995-17.282,17.375
	c-0.105,11.304,8.867,19.318,18.06,17.651C380.882,81.406,388.605,74.216,388.299,64.413z M267.297,475.806
	c0.035,9.112,8.275,17.324,17.234,17.174c9.359-0.156,17.342-8.092,17.308-17.206c-0.036-9.605-8.009-17.134-17.967-16.964
	C274.831,458.964,267.263,466.724,267.297,475.806z M310.43,244.363c0.623-9.162-7.493-16.985-17.028-17.038
	c-9.78-0.055-17.302,7.188-17.33,16.687c-0.028,9.651,7.307,17.006,16.946,16.992C302.027,261.704,309.726,254.716,310.43,244.363z
	 M379.188,262.01c0.716-8.814-7.265-17.353-16.645-17.81c-9.15-0.445-17.724,7.356-18.021,16.397
	c-0.314,9.577,7.088,17.194,17.335,17.837C370.153,278.955,378.45,271.092,379.188,262.01z M27.433,261.103
	c-9.231-0.11-17.173,7.758-17.355,17.195c-0.18,9.346,6.984,16.943,16.284,17.267c9.658,0.337,17.338-6.921,17.511-16.55
	C44.048,269.34,36.588,261.212,27.433,261.103z M276.286,149.85c-9.731-0.068-17.07,7.214-17.101,16.967
	c-0.031,9.975,6.931,16.991,16.898,17.029c9.565,0.036,16.747-6.997,16.811-16.461C292.961,157.622,285.662,149.915,276.286,149.85z
	 M404.494,432.372c-0.071-9.647-7.503-16.69-17.434-16.522c-9.238,0.156-16.894,8.135-16.721,17.427
	c0.172,9.243,7.993,16.527,17.677,16.464C397.731,449.677,404.568,442.471,404.494,432.372z M395.524,84.821
	c-0.182,8.001,6.06,14.592,13.87,14.646c6.633,0.046,13.285-6.76,13.531-13.845c0.246-7.094-6.264-13.316-14.136-13.509
	C401.685,71.938,395.686,77.685,395.524,84.821z M477.708,285.882c-7.632,0.112-13.449,6.603-13.393,14.945
	c0.043,6.436,6.799,13.015,13.353,13.002c7.569-0.014,13.022-5.691,13.025-13.558C490.697,292.349,484.767,285.778,477.708,285.882z
	 M108.349,90.623c7.822-0.047,13.673-5.85,13.792-13.681c0.111-7.25-5.943-13.487-13.207-13.607
	c-7.43-0.122-13.595,5.757-13.641,13.008C95.242,84.376,100.994,90.667,108.349,90.623z M112.099,205.294
	c-0.21,7.586,6.032,13.893,13.741,13.884c7.761-0.009,13.44-5.932,13.355-13.931c-0.084-7.948-5.118-12.777-13.328-12.787
	C118.239,192.451,112.301,197.986,112.099,205.294z M104.853,188.546c0.153-7.598-5.81-13.841-13.483-14.117
	c-6.367-0.229-13.616,6.971-13.788,13.693c-0.179,6.997,6.19,13.63,13.29,13.843C98.883,202.206,104.689,196.632,104.853,188.546z
	 M477.972,174.47c-6.771-0.286-13.45,6.342-13.467,13.366c-0.02,8.164,5.55,14.235,13.132,14.314
	c7.368,0.077,12.786-5.683,12.827-13.635C490.504,180.376,485.535,174.789,477.972,174.47z M154.917,42.254
	c-0.293,7.013,5.905,13.289,13.167,13.334c8.273,0.051,14.48-5.309,14.292-12.814c-0.154-6.141-5.278-14.47-14.117-13.028
	C161.255,29.718,155.204,35.39,154.917,42.254z M434.763,415.841c6.49,0.077,12.823-5.985,13.04-12.481
	c0.231-6.936-5.677-13.09-12.811-13.347c-6.934-0.249-12.733,5.333-12.863,12.381C421.995,409.663,427.722,415.758,434.763,415.841z
	 M198.835,480.211c0.078,6.929,5.587,12.473,12.643,12.724c6.966,0.248,12.92-5.745,12.936-13.02
	c0.015-6.944-5.542-12.481-12.561-12.517C204.457,467.361,198.754,472.974,198.835,480.211z M322.921,21.152
	c-6.832,0.207-12.52,6.13-12.457,12.971c0.066,7.135,5.456,12.478,12.66,12.549c7.671,0.076,12.609-5.023,12.584-12.994
	C335.687,26.733,329.778,20.945,322.921,21.152z M375.364,304.441c-7.083-0.322-13.135,5.049-13.314,11.816
	c-0.191,7.208,4.917,13.098,11.691,13.48c7.581,0.427,13.214-4.71,13.479-12.291C387.479,310.035,382.683,304.774,375.364,304.441z
	 M284.892,376.933c-0.064,6.892,5.615,12.939,12.285,13.081c6.997,0.149,13.032-6.008,12.917-13.177
	c-0.112-7.009-5.811-12.666-12.729-12.634C290.374,364.236,284.959,369.762,284.892,376.933z M86.841,393.772
	c-0.133-6.745-6.284-12.687-12.891-12.452c-6.912,0.246-12.283,5.981-12.292,13.125c-0.009,7.079,5.495,12.532,12.557,12.44
	C81.873,406.785,86.993,401.467,86.841,393.772z M164.431,171.61c0.106-7.394-6.101-13.329-13.703-13.104
	c-6.781,0.201-12.155,6.238-11.917,13.388c0.235,7.071,5.736,12.058,13.198,11.966C158.573,183.779,164.339,178.093,164.431,171.61z
	"/>
</svg>
