<?xml version="1.0" encoding="iso-8859-1"?>
<!-- Generator: Adobe Illustrator 19.0.0, SVG Export Plug-In . SVG Version: 6.00 Build 0)  -->
<svg version="1.1" id="Layer_1" xmlns="http://www.w3.org/2000/svg" xmlns:xlink="http://www.w3.org/1999/xlink" x="0px" y="0px"
	 viewBox="0 0 2000 2000" style="enable-background:new 0 0 2000 2000;" xml:space="preserve">
<path d="M755.372,1973.993c-2.845-10.087-5.302-18.8-8.065-28.593c12.335-7.932,23.145-14.884,42.772-27.505
	c-206.737-49.634-379.287-145.968-517.089-304.634c-6.998,4.543-14.184,9.208-25.041,16.255
	c-15.599-19.181-33.278-37.104-46.548-57.848c-97.988-153.162-161.312-318.477-179.313-500.872
	C8.355,931.659,24.355,796.565,68.891,665.066c17.866-52.75,44.047-102.696,66.661-153.822
	c11.624-26.279,29.817-41.984,65.423-32.591c-9.065-15.337-15.552-26.312-23.469-39.708
	c87.456-133.912,196.544-245.291,333.781-327.472c3.689,2.413,7.378,4.826,11.067,7.238c-4.883,13.188-9.413,26.521-14.748,39.523
	c-5.109,12.451-11.053,24.559-13.816,39.782C663.993,52.923,865.98,12.021,1078.656,22.427
	c211.124,10.33,404.067,81.223,573.984,213.746c4.395-0.359,10.262-0.487,16-1.418c4.496-0.729,8.83-2.452,12.221-3.438
	c3.327,2.721,5.776,3.843,6.853,5.743c8.881,15.665,14.24,34.965,26.746,46.669c75.491,70.648,146.198,144.826,193.705,238.059
	c3.524,6.915,5.344,14.699,7.956,22.079c-2.373,2.835-4.745,5.67-7.118,8.505c-22.61-14.233-45.219-28.466-67.829-42.699
	C2042.51,851,2019.51,1186.968,1817.818,1520.589c5.934,7.398,11.364,14.168,20.836,25.976
	c-43.949,50.502-87.137,101.235-131.512,150.91c-126.608,141.729-290.707,214.433-472.696,251.076
	c-150.798,30.363-304.049,31.673-457.234,29.713C771.372,1978.188,765.558,1976.05,755.372,1973.993z M1077.852,1452.748
	c-14.145-24.742-21.471-45.732-35.401-60.489c-56.67-60.034-115.224-117.884-193.027-151.86
	c-46.045-20.108-92.672-31.504-142.665-23.379c-40.965,6.658-74.33,24.193-92.203,65.063c-17.122,39.153,1.221,69.85,26.647,93.183
	c30.992,28.441,65.431,56.385,103.385,73.333c91.729,40.961,190.126,30.173,286.934,23.987
	C1044.447,1471.76,1056.805,1462.066,1077.852,1452.748z M1271.737,1431.882c13.242,3.277,24.964,9.701,35.606,8.243
	c70.51-9.658,142.013-16.264,210.579-33.979c30.327-7.835,59.511-35.267,80.35-60.985c29.082-35.891,9.003-79.999-35.037-91.02
	c-66.967-16.758-127.79-0.506-181.534,38.732c-40.087,29.266-75.827,64.485-113.824,97.331
	C1269.089,1403.29,1270.17,1414.968,1271.737,1431.882z"/>
</svg>
