<?xml version="1.0" encoding="iso-8859-1"?>
<!-- Generator: Adobe Illustrator 19.0.0, SVG Export Plug-In . SVG Version: 6.00 Build 0)  -->
<svg version="1.1" id="Layer_1" xmlns="http://www.w3.org/2000/svg" xmlns:xlink="http://www.w3.org/1999/xlink" x="0px" y="0px"
	 viewBox="0 0 500 500" enable-background="new 0 0 500 500" xml:space="preserve">
<path d="M6.652,249.69C8.477,113.332,116.562,7.702,249.911,8.001c135.521,0.304,244.351,109.32,241.768,246.756
	c-2.431,129.355-106.024,237.254-243.33,236.696C113.501,490.904,8.639,384.457,6.652,249.69z M278.554,317.637
	c-10.246,9.719-19.878,18.857-30.23,28.677c-9.028-9.504-18.256-19.219-27.543-28.995c-13.773,0-27.116,0-40.935,0
	c0-13.902,0-27.258,0-43.717c-8.14-7.602-17.635-16.47-28.077-26.222c9.475-9.084,18.723-17.949,27.667-26.524
	c0.339-16.791-7.462-27.366-23.607-30.9c-6.959-1.523-14.337-1.487-21.529-1.534c-25.688-0.167-51.377-0.065-78.51-0.065
	c-1.978,10-3.537,19.687-5.845,29.191c-5.992,24.67-4.348,49.517,1.019,73.648c7.43,33.407,22.096,63.572,44.828,90.019
	c34.922,40.628,78.816,64.435,131.384,70.246c43.301,4.786,85.075-3.112,123.283-25.694c25.528-15.088,46.848-34.708,64.161-58.697
	c15.553-21.55,0.012-48.621-23.518-49.189C353.37,316.972,315.601,317.637,278.554,317.637z M444.28,309.222
	c2.459-14.978,5.735-29.507,7.065-44.212c2.417-26.732-1.376-52.745-9.567-78.497c-12.078-37.977-33.894-69.47-64.293-93.956
	c-49.27-39.686-106.048-54.284-168.594-41.727c-51.425,10.325-92.401,37.66-123.387,79.835c-6.916,9.414-8.661,20.262-3.256,31.071
	c5.269,10.539,13.87,17.913,25.963,18.058c37.461,0.449,74.93,0.164,113.466,0.164c8.834-9.203,18.08-18.836,28.021-29.191
	c9.675,10.037,18.961,19.671,28.761,29.837c13.055,0,26.345,0,40.243,0c0,14.124,0,27.449,0,43.112
	c8.431,7.932,17.733,16.683,28.347,26.669c-8.14,7.732-16.45,15.103-24.045,23.15c-2.342,2.482-4.457,7.222-3.73,10.212
	c3.619,14.88,13.337,24.9,28.785,25.258C379.349,309.73,410.666,309.222,444.28,309.222z M248.499,325.587
	c8.688-8.231,14.858-17.748,23.459-21.19c8.561-3.426,19.562-0.751,31.606-0.751c-6.399-24.014,2.361-40.962,23.357-53.922
	c-22.299-12.551-28.667-30.547-24.11-52.955c-11.779,0-21.516,0-33.565,0c-5.651-6.653-12.134-14.287-19.911-23.444
	c-7.677,9.24-14.225,17.123-19.788,23.819c-12.788,0-22.731,0-34.237,0c5.848,22.894-2.209,39.874-22.969,52.716
	c9.198,8.074,17.102,15.011,24.571,21.568c0,11.665,0,21.835,0,32.978C219.697,298.25,236.771,305.479,248.499,325.587z"/>
</svg>
