<?xml version="1.0" encoding="iso-8859-1"?>
<!-- Generator: Adobe Illustrator 19.0.0, SVG Export Plug-In . SVG Version: 6.00 Build 0)  -->
<svg version="1.1" id="Layer_1" xmlns="http://www.w3.org/2000/svg" xmlns:xlink="http://www.w3.org/1999/xlink" x="0px" y="0px"
	 viewBox="0 0 2000 2000" style="enable-background:new 0 0 2000 2000;" xml:space="preserve">
<path d="M270.562,1019.977c4.068-85.298,31.217-138.13,61.118-189.721c89.795-154.933,180.046-309.601,270.054-464.411
	c51.237-88.125,123.501-137.884,229.699-133.484c51.867,2.149,104.259-1.958,151.066,25.084
	c22.896,13.227,43.032,31.231,64.418,47.072c-1.942,3.668-3.885,7.336-5.827,11.005c-91.551,0-183.101,0-260.68,0
	c-65.451,20.525-92.143,61.99-117.389,105.965c-90.198,157.116-178.962,315.13-272.886,470.004
	c-47.264,77.935-40.62,147.131,4.12,222.074c93.669,156.905,184.801,315.343,275.456,474.019
	c34.719,60.769,82.027,92.824,154.109,92.185c200.729-1.781,401.508-2.685,602.209,0.166
	c61.903,0.879,103.665-25.727,135.183-72.443c26.401-39.131,47.426-81.889,72.665-126.266
	c-30.404-33.952-59.283-66.199-94.619-105.658c-16.853,24.648-32.757,41.61-41.422,61.696
	c-33.448,77.532-92.096,108.916-174.893,107.728c-130.415-1.871-260.885,0.382-391.326-0.213
	c-25.793-0.117-51.592-4.965-77.336-8.07c-36.229-4.368-61.817-23.253-80.009-55.164
	c-80.79-141.715-161.636-283.411-244.209-424.089c-23.811-40.566-24.672-76.375-0.786-117.245
	c84.077-143.861,165.781-289.106,249.34-433.273c26.434-45.608,72.829-52.407,119.686-52.777
	c124.429-0.983,248.869-0.682,373.305-0.71c18.058-0.004,36.478,3.566,54.111,1.084c84.588-11.906,135.572,31.165,170.925,101.398
	c22.149,44.002,43.806,86.59,86.426,117.583c38.429,27.945,36.26,84.784,3.113,114.793c-37.033,33.527-82.897,30.771-115.632-8.597
	c-9.892-11.896-15.571-27.295-23.298-41.304c6.819-22.234,13.206-43.056,20.444-66.656c-25.134-43.488-50.859-87.998-77.572-134.219
	c-175.682,0-349.7,0-534.322,0c-86.529,148.276-176.286,302.085-268.36,459.863C678,1153.665,767.49,1308.095,855.679,1460.279
	c179.992,0,352.399,0,532.332,0c36.857-62.153,75.062-126.579,112.249-189.29c72.028,74.647,142.488,147.67,220.655,228.678
	c-33.893,53.512-72.705,125.115-121.664,188.934c-41.687,54.34-104.557,75.078-174.422,74.732
	c-200.744-0.994-401.497-0.444-602.245-0.309c-96.102,0.065-166.87-42.495-215.1-125.072
	c-91.497-156.656-185.325-311.989-274.352-470.03C303.44,1115.214,285.458,1055.91,270.562,1019.977z M1222.334,304.164
	c59.112,8.189,119.618,15.492,178.807,11.752c84.779-5.357,139.752,29.103,178.127,101.493
	c27.464,51.806,58.831,101.544,84.611,145.628c74.558-71.667,146.489-140.808,220.977-212.409
	c-33.702-57.902-65.958-117.049-101.735-173.984c-66.717-106.172-166.246-158.533-289.623-159.696
	c-244.893-2.309-489.83-1.817-734.734-0.214C632.716,17.56,531.32,69.392,462.593,177.351
	c-29.832,46.862-56.657,95.651-84.453,143.792c-59.669,103.344-120.244,206.191-178.111,310.537
	c-29.064,52.408-23.044,82.771,16.178,126.971c3.678-4.864,7.797-9.27,10.742-14.355
	c96.605-166.851,193.358-333.617,289.504-500.732c54.063-93.97,132.149-143.966,242.964-143.386
	c246.914,1.293,493.841,0.773,740.76,0.043c55.903-0.165,105.997,16.554,148.382,50.574
	c64.747,51.971,102.062,123.916,138.203,199.8c-34.966,27.327-67.12,52.456-102.368,80.004
	c-20.135-31.519-37.861-57.772-54.069-84.93c-42.082-70.509-106.152-108.255-185.697-111.462
	c-108.176-4.361-216.659-1.087-335.237-1.087C1144.187,276.954,1180.744,298.403,1222.334,304.164z M103.969,1204.611
	c83.03,140.169,164.72,281.132,246.979,421.757c41.166,70.375,79.372,142.697,124.14,210.699
	c61.465,93.365,217.883,175.38,346.365,130.302c36.242-12.716,71.767-27.63,90.39-71.867c-61.621,0-117.712,0.49-173.785-0.287
	c-17.703-0.245-35.731-2.267-52.976-6.233c-89.175-20.507-141.413-84.634-184.235-158.96
	c-112.113-194.596-222.954-389.931-336.215-583.854c-46.228-79.151-55.546-161.115-25.58-245.802
	c15.756-44.528,6.267-76.112-30.104-108.36C15.933,929.173,18.221,1059.853,103.969,1204.611z M1784.039,1657.136
	c-18.76,41.352-43.419,80.599-69.644,117.874c-53.136,75.525-121.343,123.815-219.936,121.165
	c-110.207-2.962-220.639-3.257-330.812,0.288c-67.281,2.165-133.28,15.901-179.065,76.975c7.112,3.086,10.426,5.778,13.745,5.784
	c174.452,0.327,349.18,6.382,523.252-1.686c104.251-4.832,194.565-53.823,252.817-147.35c30.394-48.8,59.963-98.114,89.757-146.953
	c66.451-14.318,98.145-48.434,90.313-96.87c-8.207-50.758-43.248-68.784-121.217-58.625c-9.649,9.049-22.675,21.265-26.9,25.227
	C1797.601,1596.404,1796.621,1629.402,1784.039,1657.136z"/>
</svg>
