<?xml version="1.0" encoding="iso-8859-1"?>
<!-- Generator: Adobe Illustrator 19.0.0, SVG Export Plug-In . SVG Version: 6.00 Build 0)  -->
<svg version="1.1" id="Layer_1" xmlns="http://www.w3.org/2000/svg" xmlns:xlink="http://www.w3.org/1999/xlink" x="0px" y="0px"
	 viewBox="0 0 500 500" enable-background="new 0 0 500 500" xml:space="preserve">
<path d="M334.314,270.53c11.76,11.906,23.187,23.476,35.177,35.615c-11.211,13.869-24.783,24.723-36.872,38.646
	c0,49.416,0,99.637,0,150.369c-53.207,0-105.417,0-158.606,0c0-50.331,0-100.212,0-151.083
	c-12.294-11.645-24.606-23.307-37.801-35.806c12.95-13.939,25.102-27.019,37.833-40.723c0-51.191,0-102.767,0-156.916
	c27.547,27.014,53.382,52.348,80.009,78.46c10.126-8.129,18.078-17.352,26.733-25.781c8.527-8.304,16.869-16.796,25.299-25.2
	c8.592-8.565,17.192-17.123,27.484-27.373c1.261,15.312,0.59,28.416,0.712,41.475c0.124,13.268,0.031,26.538,0.032,39.808
	c0.001,12.929,0,25.858,0,38.787C334.314,244.051,334.314,257.295,334.314,270.53z M319.739,142.113
	c-12.415,9.454-159.505,157.599-163.706,164.605c5.099,4.958,10.314,10.03,17.112,16.641c0.547-7.045,0.924-11.906,1.324-17.052
	c3.09-2.928,6.165-5.842,9.241-8.757c0.672,0.25,1.345,0.5,2.017,0.75c0,4.26,0.001,8.521,0,12.781
	c-0.016,49.972-0.044,99.944-0.019,149.916c0.002,3.158,0.418,6.315,0.819,11.972c56.563-56.372,111.202-110.958,165.798-165.868
	c-6.194-6.053-11.446-11.186-17.596-17.196c-0.591,11.526,0.72,23.973-13.988,29.134c0-10.137,0.021-19.96-0.006-29.783
	c-0.027-9.519-0.111-19.037-0.157-28.556c-0.048-9.859-0.075-19.717-0.12-29.576c-0.044-9.859-0.106-19.717-0.145-29.576
	c-0.038-9.519,0.022-19.038-0.108-28.556C320.072,163.306,320.518,153.575,319.739,142.113z M319.423,360.595
	c-0.727-0.355-1.455-0.71-2.182-1.066c-40.181,40.204-80.361,80.408-120.542,120.613c0.276,0.695,0.552,1.391,0.828,2.086
	c10.042,0,20.085,0.001,30.127,0c10.201-0.002,20.403-0.007,30.604-0.009c10.201-0.002,20.404,0.096,30.604-0.028
	c10.038-0.122,20.142,0.622,30.562-0.576C319.423,440.422,319.423,400.509,319.423,360.595z M189.008,253.701
	c19.012-18.152,36.861-36.414,55.455-55.445c-6.636-6.571-12.586-12.514-18.595-18.399c-6.309-6.178-12.521-12.467-19.058-18.397
	c-5.998-5.442-10.507-12.713-18.558-16.428C185.973,164.958,186.353,242.461,189.008,253.701z M252.709,152.332
	c-45.481-32.235-90.542-64.173-137.482-97.444C162.337,38.15,207.333,22.163,252.825,6c44.632,16.241,90.19,31.585,137.399,48.983
	C343.18,88.286,298.063,120.226,252.709,152.332z M151.385,58.425c5.201,7.139,70.747,56.63,101.901,77.274
	c16.559-12.324,33.534-24.693,50.215-37.448c16.545-12.652,33.624-24.653,51.219-39.281
	c-35.446-12.673-68.887-24.629-101.834-36.408C218.638,34.662,185.16,46.491,151.385,58.425z"/>
</svg>
