<?xml version="1.0" encoding="iso-8859-1"?>
<!-- Generator: Adobe Illustrator 19.0.0, SVG Export Plug-In . SVG Version: 6.00 Build 0)  -->
<svg version="1.1" id="Layer_1" xmlns="http://www.w3.org/2000/svg" xmlns:xlink="http://www.w3.org/1999/xlink" x="0px" y="0px"
	 viewBox="0 0 500 500" style="enable-background:new 0 0 500 500;" xml:space="preserve">
<path d="M327.026,141.007c15.96,3.049,30.155,4.729,43.703,8.648c12.696,3.673,23.286,11.856,30.646,23.041
	c3.81,5.79,8.513,7.529,14.923,8.485c7.63,1.138,15.205,3.388,22.477,6.051c28.575,10.464,42.362,31.594,43.525,61.578
	c1.725,44.492-0.925,88.37-15.498,131.029c-6.159,18.03-10.288,36.747-15.515,55.102c-11.234,39.452-38.933,60.333-80.311,60.582
	c-17.365,0.104-34.732,0.019-52.097,0.017c-48.19-0.005-96.381-0.129-144.57,0.038c-19.751,0.069-37.705-4.915-53.574-16.892
	c-19.921-15.036-28.346-35.324-28.14-59.916c0.258-30.822,0.356-61.652-0.082-92.47c-0.102-7.139-1.54-14.704-4.259-21.291
	c-21.674-52.506-42.73-105.309-66.1-157.061C-0.89,96.92,39.693,55.864,75.548,48.899c37.149-7.217,77.287,10.769,90.446,42.652
	c0.407,0.987,1.715,1.603,4.054,3.681c0-6.133,0.032-10.714-0.005-15.294c-0.274-33.767,15.912-56.881,46.269-70.293
	c37.023-16.357,83.159-1.388,102.333,32.582c6.879,12.188,8.401,25.371,8.387,38.969
	C327.011,101.52,327.026,121.844,327.026,141.007z M316.604,352.107c-22.986,12.021-22.986,12.008-50.182,11.936
	c-11.717-0.031-23.434,0.026-35.151-0.002c-2.592-0.006-5.468,0.45-7.688-0.516c-1.891-0.822-3.718-3.216-4.207-5.244
	c-0.251-1.04,2.267-3.604,3.923-4.057c2.849-0.78,6.002-0.555,9.029-0.563c16.057-0.041,32.175,0.806,48.146-0.367
	c8.272-0.607,17.312-3.171,24.201-7.635c14.701-9.526,15.744-29.242,3.601-41.899c-6.359-6.628-14.099-9.689-23.319-9.643
	c-29.944,0.149-59.889,0.243-89.832,0.087c-9.258-0.048-17.016,3.086-23.564,9.284c-11.334,10.727-22.862,21.297-33.48,32.705
	c-3.08,3.309-4.577,9.223-4.672,13.986c-0.443,22.122,1.056,44.339-0.41,66.37c-1.761,26.454,16.483,42.516,41.128,42.39
	c65.962-0.337,131.926,0.009,197.889-0.153c20.047-0.049,33.107-9.191,38.607-28.358c9.925-34.588,19.505-69.307,27.853-104.299
	c3.216-13.479,2.677-27.854,3.849-41.82c-1.078-0.243-2.156-0.487-3.233-0.73c-1.711,2.719-3.653,5.321-5.097,8.175
	c-10.961,21.665-21.686,43.449-32.757,65.057c-11.469,22.385-38.698,30.822-61.321,19.856
	C328.886,371.322,321.31,363.104,316.604,352.107z M136.349,322.247c7.059-6.991,14.74-14.435,22.237-22.059
	c11.259-11.45,24.572-17.076,40.871-16.418c15.158,0.612,30.372-0.208,45.537,0.312c7.113,0.244,10.873-2.221,13.909-8.649
	c7.772-16.454,16.52-32.445,24.443-48.831c2-4.137,3.316-9.058,3.341-13.628c0.258-45.546,0.144-91.094,0.226-136.642
	c0.017-9.133-3.018-16.969-9.043-23.718c-10.248-11.478-27.761-15.662-42.96-10.295c-15.416,5.444-23.913,17.327-23.971,34.739
	c-0.175,52.921-0.095,105.843-0.182,158.765c-0.007,4.555-0.513,9.109-0.769,13.369c-19.8,2.459-19.8,2.459-26.446-13.842
	c-0.164-0.401-0.268-0.827-0.437-1.226c-17.836-42.334-35.41-84.78-53.627-126.95c-8.905-20.614-31.668-28.789-52.228-19.855
	C57.105,96.076,51.06,113.26,60.56,135.902c20.782,49.534,41.88,98.937,62.515,148.532
	C127.999,296.268,131.618,308.646,136.349,322.247z M407.185,216.798c-12.481,0.185-23.119,6.308-29.396,18.396
	c-16.373,31.528-32.499,63.193-48.144,95.087c-5.752,11.726-2.569,22.972,7.003,31.798c17.274,15.927,42.83,11.224,54.579-11.049
	c15.56-29.498,29.002-60.158,45.465-89.12C447.714,242.518,435.7,217.606,407.185,216.798z M267.053,284.174
	c25.705-2.192,45.754,3.141,57.696,25.562c1.594-1.33,2.936-1.934,3.453-2.956c14.28-28.238,28.85-56.338,42.539-84.861
	c7.55-15.732-0.446-33.018-16.805-39.221c-15.622-5.923-32.03-1.273-41.375,12.634c-4.804,7.148-8.36,15.154-12.276,22.875
	C289.535,239.401,278.893,260.65,267.053,284.174z"/>
</svg>
