<?xml version="1.0" encoding="iso-8859-1"?>
<!-- Generator: Adobe Illustrator 19.0.0, SVG Export Plug-In . SVG Version: 6.00 Build 0)  -->
<svg version="1.1" id="Layer_1" xmlns="http://www.w3.org/2000/svg" xmlns:xlink="http://www.w3.org/1999/xlink" x="0px" y="0px"
	 viewBox="0 0 2000 2000" style="enable-background:new 0 0 2000 2000;" xml:space="preserve">
<path d="M17.312,1603.499c0-1.087,0-2.173,0-3.26c4.11-3.355,8.55-6.381,12.284-10.113
	c193.618-193.516,387.179-387.09,580.724-580.68c3.749-3.75,7.236-7.764,11.446-12.302c-4.212-4.54-7.699-8.553-11.449-12.303
	c-193.545-193.59-387.106-387.164-580.724-580.68c-3.733-3.731-8.172-6.756-12.282-10.11c0-1.087,0-2.173,0-3.26
	c3.586-3.247,7.319-6.346,10.735-9.761C134.373,274.752,240.686,168.461,346.944,62.117c14.156-14.167,28.011-28.634,42.005-42.963
	c1.087,0,2.173,0,3.26,0c3.355,4.11,6.381,8.55,10.113,12.284c193.516,193.618,387.09,387.179,580.68,580.724
	c3.75,3.749,7.763,7.236,12.302,11.446c4.54-4.212,8.552-7.699,12.303-11.449c193.59-193.545,387.164-387.106,580.68-580.724
	c3.731-3.733,6.756-8.172,10.11-12.282c1.087,0,2.173,0,3.26,0c3.624,3.963,7.101,8.074,10.894,11.869
	c115.617,115.665,231.227,231.339,347.055,346.792c4.487,4.473,11.122,6.791,20.196,12.141
	c-206.628,206.592-407.784,407.713-611.098,610.991c200.349,200.345,401.411,401.403,600.868,600.856
	c-123.483,123.484-247.078,247.08-373.097,373.101c-200.053-200.068-401.201-401.232-604.015-604.061
	c-200.56,200.564-401.638,401.647-604.571,604.584c-4.494-5.317-8.359-10.615-12.938-15.199
	c-104.053-104.178-208.165-208.298-312.324-312.37C47.676,1632.917,32.425,1618.277,17.312,1603.499z"/>
</svg>
