<?xml version="1.0" encoding="iso-8859-1"?>
<!-- Generator: Adobe Illustrator 19.0.0, SVG Export Plug-In . SVG Version: 6.00 Build 0)  -->
<svg version="1.1" id="Layer_1" xmlns="http://www.w3.org/2000/svg" xmlns:xlink="http://www.w3.org/1999/xlink" x="0px" y="0px"
	 viewBox="0 0 500 500" enable-background="new 0 0 500 500" xml:space="preserve">
<path d="M324.615,110.737c0-27.944,0-55.535,0-83.215c87.352,24.074,168.517,101.932,169.394,227.673
	c0.795,114.078-83.484,188.976-169.342,215.155c0-27.994,0-55.9,0-83.617C452.093,329.264,432.779,164.955,324.615,110.737z
	 M6.004,239.373C5.371,364.538,84.225,445.187,175.333,470.531c0-27.683,0-55.25,0-83.321
	c-55.965-29.35-86.323-76.884-88.377-139.158c-2.122-64.327,31.098-109.365,88.463-136.5c0-28.413,0-56.016,0-83.704
	C97.487,50.534,6.592,122.872,6.004,239.373z M302.98,175.544c-35.813-12.618-70.91-12.212-105.928,0.072
	c0,100.868,0,200.712,0,300.289c28.084,11.585,84.019,12.63,105.928-0.039C302.98,375.49,302.98,275.642,302.98,175.544z
	 M197.005,27.724c0,25.712,0,51.423,0,78.229c35.582-11.813,70.691-14.588,106.221-0.678c0-26.659,0-52.081,0-78.059
	C275.122,11.65,218.077,15.054,197.005,27.724z"/>
</svg>
