<?xml version="1.0" encoding="iso-8859-1"?>
<!-- Generator: Adobe Illustrator 19.0.0, SVG Export Plug-In . SVG Version: 6.00 Build 0)  -->
<svg version="1.1" id="Layer_1" xmlns="http://www.w3.org/2000/svg" xmlns:xlink="http://www.w3.org/1999/xlink" x="0px" y="0px"
	 viewBox="0 0 500 500" enable-background="new 0 0 500 500" xml:space="preserve">
<path d="M250.354,3.788C385.83,4.59,498.94,113.164,496.264,255.731c-2.446,130.338-108.299,243.27-252.168,240.502
	C114.245,493.735,0.931,388.052,4.063,243.613C6.896,112.976,112.286,4.896,250.354,3.788z M293.271,93.756
	c-45.652-10.926-88.604-6.033-128.331,18.983c-39.678,24.986-63.669,61.019-73.117,106.648
	c-21.618,7.553-29.436,23.08-27.565,40.129c1.532,13.961,11.294,26.881,30.167,31.168c12.217,42.497,37.192,75.8,75.729,97.868
	c38.575,22.09,79.874,27.434,122.753,15.508c14.424,18.754,34.371,19.644,48.471,11.663c12.233-6.925,23.562-23.562,15.084-46.157
	c36.13-31.971,54.621-72.96,54.617-120.812c-0.004-47.927-19.251-88.643-54.839-120.839c8.194-17.838,0.303-37.288-15.438-45.987
	C325.33,73.378,305.832,76.729,293.271,93.756z M341.841,144.513c60.702,50.28,66.187,151.457,0.316,209.432
	c-11.457-6.494-23.46-7.043-35.514-0.812c-12.358,6.388-17.544,17.434-19.111,30.299c-74.033,20.334-149.833-21.705-171.764-95.8
	c12.009-7.958,20.644-18.448,19.79-34.183c-0.821-15.124-8.557-25.646-22.007-31.767c17.603-91.454,113.687-128.576,174.161-105.976
	C290.214,143.066,318.396,157.342,341.841,144.513z M296.068,248.846c1.212-26.196-22.012-47.056-47.34-46.146
	c-23.632,0.849-44.838,18.421-45.115,46.361c-0.268,26.965,21.41,47.286,48.721,46.534
	C275.675,294.953,297.389,274.341,296.068,248.846z"/>
</svg>
