<?xml version="1.0" encoding="iso-8859-1"?>
<!-- Generator: Adobe Illustrator 19.0.0, SVG Export Plug-In . SVG Version: 6.00 Build 0)  -->
<svg version="1.1" id="Layer_1" xmlns="http://www.w3.org/2000/svg" xmlns:xlink="http://www.w3.org/1999/xlink" x="0px" y="0px"
	 viewBox="0 0 500 500" enable-background="new 0 0 500 500" xml:space="preserve">
<path d="M249.448,37.179c38.619,0,77.239,0.049,115.858-0.06c4.95-0.014,9.26,0.249,10.516,6.16
	c6.928,8.272,10.79,18.421,16.717,27.308c6.524,9.782,11.272,20.596,17.88,30.366c3.772,5.577,6.078,12.121,9.486,17.972
	c5.37,9.222,11.588,17.976,16.557,27.398c4.466,8.469,9.672,16.458,14.35,24.77c6.287,11.171,12.401,22.427,19.216,33.301
	c2.6,4.148,5.14,8.52,7.224,12.81c4.675,9.62,11.003,18.193,15.87,27.641c2.685,5.211,2.682,9.561-1.174,14.502
	c-3.647,4.672-5.764,10.504-9.07,15.483c-6.816,10.268-11.915,21.527-18.89,31.718c-3.652,5.336-5.944,11.581-9.188,17.222
	c-5.311,9.236-10.956,18.279-16.344,27.472c-3.025,5.161-5.654,10.558-8.742,15.679c-7.903,13.103-14.993,26.681-23.466,39.459
	c-3.588,5.411-6.168,11.482-9.378,17.156c-3.627,6.413-7.5,12.688-11.166,19.079c-2.977,5.19-5.818,10.459-8.701,15.704
	c-2.264,4.119-6.39,6.962-10.864,7.299c-1.746,0.132-3.509,0.021-5.265,0.021c-74.313,0-148.626-0.059-222.939,0.086
	c-7.897,0.015-12.938-2.791-17.069-9.75c-4.739-7.982-9.038-16.221-13.886-24.092c-6.309-10.243-11.74-20.975-18.17-31.13
	c-8.188-12.932-14.709-26.839-23.47-39.461c-3.682-5.305-5.699-11.743-9.189-17.209c-8.537-13.374-15.793-27.49-24.094-41.013
	c-6.067-9.884-11.805-20.16-17.167-30.556c-3.234-6.27-7.047-12.218-10.043-18.658c-1.292-2.777-0.992-4.101,0.137-6.781
	c4.167-9.893,10.486-18.506,15.929-27.589c2.944-4.913,4.171-10.977,8.979-14.755c4.309-10.051,10.219-19.232,15.878-28.517
	c5.831-9.567,10.701-19.671,16.991-28.995c3.766-5.582,6.079-12.121,9.486-17.972c5.37-9.222,11.257-18.143,16.646-27.354
	c3.422-5.849,5.885-12.29,9.574-17.946c8.674-13.299,15.445-27.694,24.214-40.968c3.11-4.707,5.985-5.875,10.909-5.861
	C172.209,37.228,210.829,37.179,249.448,37.179z M102.027,123.741c-3.797,5.744-7.672,11.325-7.21,18.324
	c0.048,0.729-0.335,1.831-0.89,2.201c-4.142,2.76-3.951,7.86-6.342,11.389c-2.388,3.524-3.602,6.907-3.234,10.97
	c0.198,2.183-0.592,3.698-2.094,5.309c-4.03,4.324-8.138,15.085-8.496,21.01c-0.082,1.353-0.178,3.577-0.901,3.879
	c-4.733,1.972-4.899,6.682-6.578,10.396c-1.33,2.943-2.297,6.113-2.947,9.28c-0.543,2.644-0.39,2.617-3.543,8.048
	c-2.579,4.444-5.272,8.962-6.835,13.796c-0.738,2.282-1.47,5.071-0.586,8.21c0.712,2.526-4.038,3.923-5.103,7.305
	c-2.017,6.407-5.15,12.459-7.74,18.692c-0.374,0.899-0.738,2.2-0.366,2.942c1.465,2.916,2.668,6.315,4.996,8.374
	c4.792,4.24,5.897,10.763,10.305,15.109c0.392,0.387,0.606,0.954,1.374,2.206c1.575-3.306,3.322-5.651,3.777-8.224
	c0.77-4.351-1.329-9.353,3.552-12.663c0.546-0.37,0.01-2.232,0.109-3.39c0.118-1.386-0.007-2.984,0.644-4.099
	c2.676-4.578,3.09-9.498,2.893-14.613c-0.04-1.048,0.127-2.536,0.802-3.11c3.866-3.281,2.827-8.221,4.315-12.279
	c1.125-3.066,2.105-6.644,1.535-9.692c-0.314-1.679-1.149-2.581,0.473-3.813c2.425-1.84,3.856-4.032,3.483-7.379
	c-0.163-1.456,1.004-3.037,1.462-4.591c0.692-2.349,1.638-4.697,1.837-7.099c0.201-2.428,1.056-5.266-1.627-7.141
	c1.652-2.238,3.484-4.37,4.888-6.754c0.798-1.356,1.033-3.103,1.279-4.711c0.668-4.362,3.437-8.502,2.35-12.907
	c-0.4-1.622-1.036-2.309,0.15-3.922c2.431-3.304,4.466-7.136,4.392-11.243c-0.081-4.443,5.627-8.407,1.023-13.176
	c-0.295-0.306,0.085-1.835,0.596-2.261c4.985-4.148,4.519-10.445,6.312-15.823C101.001,129.53,101.395,126.596,102.027,123.741z
	 M68.326,316.385c3.005,6.175,7.396,10.264,12.161,14.052c0.74,0.588,1.757,1.162,2.027,1.954
	c2.773,8.118,7.025,14.975,14.886,19.207c1.266,0.681,2.139,2.544,2.678,4.046c2.458,6.84,8.443,14.588,14.449,18.734
	c1.279,0.883,2.539,2.235,3.093,3.651c3.025,7.721,8.094,14.245,14.878,19.193c1.239,0.903,2.286,2.553,2.676,4.053
	c1.691,6.501,5.928,11.732,10.66,15.542c3.875,3.121,6.391,6.297,8.394,10.606c2.743,5.9,7.048,10.778,11.685,15.325
	c4.819,4.725,9.012,5.113,14.922,0.9c2.038-1.452,3.105-0.665,4.265,0.753c1.238,1.512,2.135,2.191,3.875,0.286
	c0.664-0.727,2.801-0.018,4.25-0.149c1.26-0.113,3.243,0.874,3.407-1.391c0.093-1.293-0.205-2.967-0.998-3.897
	c-1.656-1.941-3.504-4.325-5.739-5.012c-2.891-0.89-6.299-0.246-4.094-4.968c-2.273-2.273-4.406-4.71-6.851-6.779
	c-3.588-3.036-5.736-8.068-11.528-8.247c-0.806-0.025-1.679-2.064-2.279-3.29c-0.469-0.959-0.203-2.591-0.878-3.086
	c-5.428-3.976-7.869-11.713-15.837-12.568c-0.905-0.097-1.765-1.476-2.469-2.396c-1.514-1.979-2.628-4.349-4.412-6.019
	c-5-4.682-8.93-10.587-15.335-13.691c-2.912-5.785-8.068-9.61-12.424-14.121c-1.919-1.987-3.442-4.606-7.084-4.258
	c-0.9,0.086-2.186-2.192-3.009-3.555c-0.538-0.892-0.202-2.585-0.875-3.08c-5.424-3.983-7.889-11.63-15.819-12.655
	c-1.046-0.135-1.854-2.56-2.656-3.989c-0.659-1.174-0.876-2.698-1.754-3.629c-3.607-3.825-7.357-7.518-11.155-11.153
	C70.989,316.325,69.915,316.548,68.326,316.385z M218.35,441.164c4.898-0.733,9.801-1.437,14.686-2.243
	c0.469-0.077,0.872-0.751,1.241-1.2c1.964-2.392,3.964-2.432,6.685-0.898c1.575,0.888,4.22,1.294,5.75,0.573
	c4.096-1.93,8.342-1.128,12.472-1.755c2.271-0.345,4.225-2.882,6.483-3.171c2.276-0.291,5.45,2.187,6.987,1.299
	c2.79-1.612,5.425-1.509,8.192-1.447c3.716,0.083,7.212-0.147,10.471-2.333c1.277-0.857,3.586-1.666,4.658-1.084
	c5.236,2.842,10.212-1.66,15.28-0.14c7.834-4.349,16.411-3.438,24.849-3.512c1.985-0.017,3.796-1.013,5.5-1.391
	c3.083-0.684,5.822-3.275,8.258-3.049c2.847,0.264,5.807,0.766,8.759,0.938c5.704,0.332,10.996-3.006,16.816-1.799
	c2.084,0.432,1.671-1.476,2.312-2.635c3.954-7.155,8.198-14.148,12.275-21.236c0.627-1.091,0.887-2.394,1.317-3.598
	c-1.087-0.198-2.167-0.483-3.263-0.577c-3.008-0.256-5.098,1.775-7.481,3.09c-1.42,0.784-3.588,2.441-4.247,1.99
	c-2.997-2.048-5.933-0.308-8.23,0.414c-4.387,1.379-9.664,0.68-13.118,4.108c-2.369,2.351-4.78,2.484-7.713,2.771
	c-7.664,0.751-15.455,1.381-21.687,6.885c-0.927,0.818-3.14,1.798-3.418,1.49c-3.893-4.303-7.244,1.095-11.059,0.577
	c-2.926-0.397-6.157,1.749-9.303,2.57c-2.307,0.602-2.978,2.946-4.441,3.906c-1.197,0.785-3.986-1.024-6.119-1.39
	c-0.582-0.1-1.345,1.267-2.027,1.269c-5.374,0.019-10.635,1.856-14.879,4.242c-5.12,2.878-10.03,3.216-15.366,3.266
	c-0.209,0.002-0.386,0.428-0.624,0.588c-4.577,3.059-11.194,1.124-15.035,6.145c-0.341,0.445-1.644,0.212-2.498,0.198
	C232.621,433.887,225.524,437.971,218.35,441.164z M109.027,105.544c2.603-0.22,5.143,1.229,7.307-1.157
	c4.241,1.174,5.037-4.671,9.619-4.213c8.405,0.841,16.526-1.128,23.664-6.154c0.82-0.578,2.174-0.732,3.219-0.599
	c4.365,0.555,8.16-1.378,12.126-2.553c4.713-1.397,9.97-1.616,13.299-6.131c0.209-0.283,1.532,0.16,2.293,0.404
	c1.023,0.328,2.375,1.428,2.944,1.096c6.397-3.728,14.713-2.451,20.455-7.9c0.682-0.647,2.078-0.654,3.162-0.746
	c2.846-0.243,5.772-0.044,8.534-0.636c2.604-0.559,5.003-2.585,7.56-2.725c3.14-0.172,5.489-0.867,7.526-3.299
	c0.516-0.615,2.188-0.493,3.283-0.352c5.259,0.676,9.543-2.456,14.345-3.51c5.119-1.124,5.148-0.995,12.762-6.742
	c-0.248-0.107-0.504-0.32-0.744-0.304c-4.261,0.282-8.749-0.138-12.714,1.105c-3.816,1.197-9.207-1.457-11.519,4.088
	c-0.049,0.117-1.635-0.139-2.257-0.574c-3.181-2.221-7.287-1.924-9.874-0.7c-2.618,1.238-4.915,1.216-7.363,1.265
	c-2.936,0.059-5.718-0.134-7.754,2.66c-0.422,0.579-2.305,0.881-2.847,0.457c-3.15-2.463-7.226-2.025-9.879-0.949
	c-2.843,1.154-5.456,1.004-8.174,1.463c-1.85,0.313-3.673,0.987-5.407,1.735c-2.489,1.073-4.787,3.284-7.53,0.374
	c-0.449-0.476-1.811-0.667-2.398-0.345c-4.538,2.491-9.442,1.445-14.211,1.763c-0.98,0.065-2.166,0.784-2.803,1.569
	c-2.275,2.803-4.998,2.048-7.794,1.317c-1.576-0.412-4.045-1.591-4.59-1.006c-1.98,2.123-4.273,1.278-6.462,1.586
	c-3.57,0.502-7.164,0.967-10.653,1.832c-1.21,0.3-2.642,1.537-3.111,2.695C119.46,89.192,112.869,96.318,109.027,105.544z
	 M306.055,56.495c2.865,2.692,3.797,7.675,8.602,7.105c0.418-0.05,1.394,1.046,1.384,1.595c-0.036,1.846,0.386,3.217,1.838,4.568
	c3.854,3.584,7.471,7.421,11.233,11.107c0.785,0.769,1.77,1.844,2.689,1.872c3.414,0.103,5.39,1.215,5.5,5.02
	c0.034,1.174,1.293,2.383,2.147,3.45c3.607,4.505,8.522,7.476,13.026,10.922c1.078,0.825,3.05,1.188,3.368,2.167
	c0.946,2.92,3.212,4.601,5.087,6.688c2.089,2.326,4.221,4.636,6.072,7.146c1.737,2.355,4.583,2.511,6.725,3.959
	c1.428,0.965,2.829,2.243,3.707,3.703c4.33,7.201,10.077,12.835,17.509,16.78c0.791,0.42,1.932,1.453,1.843,2.04
	c-0.386,2.548,1.474,3.623,2.838,5.024c2.449,2.516,5.098,4.85,7.402,7.488c2.943,3.369,6.258,5.728,11.782,5.617
	c-1.937-2.929-3.491-5.499-5.267-7.905c-2.17-2.939-3.98-6.744-6.937-8.352c-3.874-2.107-4.2-6.003-6.506-8.79
	c-2.617-3.163-4.28-7.14-7.006-10.183c-2.6-2.901-6.526-4.654-8.966-7.648c-2.521-3.094-2.225-7.843-5.668-10.802
	c-3.501-3.01-4.63-8.421-9.858-9.829c-0.646-0.174-1.583-1.375-1.471-1.909c0.682-3.253-2.727-4.404-3.282-6.559
	c-0.758-2.941-2.908-4.228-4.629-5.986c-2.828-2.889-3.929-7.264-8.443-8.871c-1.365-0.486-1.309-4.134-2.653-5.683
	c-2.944-3.393-5.693-6.782-7.517-10.968c-0.759-1.742-2.391-2.891-4.871-2.843C325.845,56.608,315.949,56.495,306.055,56.495z
	 M408.775,351.673c3.064-6.263,6.143-12.519,9.157-18.806c0.213-0.445,0.174-1.402-0.128-1.644
	c-3.502-2.799-0.443-4.261,1.088-6.169c1.196-1.49,2.354-3.107,3.09-4.852c2.635-6.25,6.759-12.005,6.565-19.244
	c-0.02-0.735,0.41-1.691,0.955-2.198c4.921-4.577,5.759-11.044,8.29-16.767c1.302-2.944-0.085-6.328,1.48-8.056
	c1.696-1.873,4.541-3.994,4.716-5.824c0.643-6.733,7.317-11.554,5.635-18.849c-0.086-0.374,0.463-0.997,0.85-1.364
	c5.225-4.947,5.347-12.486,9.173-18.182c0.675-1.005,0.209-3.346-0.515-4.627c-3.628-6.422-7.469-12.726-11.342-19.007
	c-1.234-2.001-2.795-3.8-5.24-7.079c0,5.253-0.123,8.706,0.033,12.146c0.17,3.756-4.547,4.579-4.554,8.589
	c-0.006,3.726-1.894,7.408-2.428,11.183c-0.621,4.394,1.444,9.458-3.584,12.579c0.729,6.877-4.922,12.562-3.607,19.627
	c0.339,1.82,0.218,4.422-0.851,5.685c-4.393,5.194-4.105,11.821-6.003,17.745c-1.227,3.829,2.358,9.133-3.59,11.535
	c0.396,6.817-4.073,12.751-3.547,19.613c0.13,1.694,0.476,4.386-0.39,4.971c-4.529,3.059-2.496,8.386-4.764,12.201
	C406.189,340.053,407.644,345.798,408.775,351.673z M61.668,299.922c0.151,0.464,0.619,2.952,1.759,5.078
	c0.927,1.729,2.564,2.784,4.996,2.787c1.205,0.002,3.477,2.001,3.427,3.004c-0.219,4.365,3.569,5.683,5.6,8.281
	c0.418,0.535,1.593,0.905,2.227,0.714c0.526-0.159,0.958-1.216,1.105-1.942c0.66-3.254,1.445-6.511,1.722-9.806
	c0.294-3.487,0.038-7.017,0.073-10.528c0.044-4.482-0.556-9.019,2.679-12.974c0.908-1.11,0.759-3.225,0.792-4.885
	c0.095-4.68-0.011-9.364,0.057-14.044c0.025-1.687-0.209-3.698,0.595-4.99c2.048-3.292-0.35-7.464,1.375-9.918
	c2.611-3.716,0.884-7.298,1.467-10.859c0.118-0.719-0.203-1.778-0.714-2.283c-1.743-1.72-1-2.946,0.44-4.303
	c0.806-0.76,2.101-1.874,1.969-2.615c-0.985-5.549,1.727-10.609,1.84-15.972c0.023-1.094,0.033-2.469-0.563-3.242
	c-1.957-2.537-0.843-4.274,0.445-6.789c3.095-6.042,1.805-13.109,3.526-19.574c0.337-1.268-0.917-3.057-1.682-4.472
	c-0.311-0.574-1.314-1.137-1.936-1.072c-0.554,0.059-1.304,0.916-1.471,1.551c-1.255,4.76-2.207,9.607-3.63,14.313
	c-0.774,2.561-3.273,4.79-0.289,7.55c0.375,0.347-0.035,2.272-0.655,2.85c-4.678,4.365-4.359,10.542-5.952,15.998
	c-0.634,2.172-1.594,5.01-0.736,6.691c1.596,3.126,0.235,4.613-1.448,6.79c-1.451,1.877-2.321,4.289-3.092,6.584
	c-1.04,3.096-1.381,6.468-2.706,9.412c-0.924,2.052-1.152,3.457-0.046,5.472c1.152,2.099,2.759,4.866-1.787,5.427
	c-0.345,0.043-0.552,1.44-0.772,2.222c-1.181,4.194-2.634,8.341-3.402,12.61c-0.419,2.326-3.766,4.734-0.243,7.468
	c0.433,0.336-0.572,3.142-1.456,4.428C63.275,291.658,61.153,294.249,61.668,299.922z M232.111,77.795
	c-6.145-0.907-11.254,1.235-16.503,2.77c-5.508,1.611-10.431,5.758-16.744,4.026c-5.565,2.787-12.338,2.792-17.15,7.198
	c-1.849,1.693-3.122,2.252-4.964,0.175c-0.417-0.47-1.696-0.531-2.432-0.305c-5.433,1.673-10.882,3.324-16.218,5.276
	c-3.308,1.21-5.829,6.224-10.177,1.771c-0.212-0.217-1.424,0.561-2.18,0.851c-2.269,0.871-4.518,1.803-6.821,2.572
	c-2.06,0.688-4.221,1.776-6.268,1.641c-3.07-0.203-4.547,0.955-5.518,3.611c-0.103,0.283-1.649,0.038-2.525,0.038
	c-2.045,0-4.128-0.25-6.128,0.051c-4.433,0.669-7.491,3.651-10.281,6.85c-1.751,2.008-1.541,3.97,0.283,6.072
	c0.417,0.481-0.434,2.519-1.177,3.468c-2.665,3.404-4.662,6.886-3.124,11.906c2.459-0.897,4.669-0.074,7.352-1.557
	c3.152-1.742,6.276-4.627,10.591-4.107c1.114,0.134,2.994-0.819,3.493-1.798c1.932-3.787,3.545-7.535,8.607-3.555
	c0.114,0.09,0.862-0.469,1.189-0.837c1.375-1.544,3.019-2.069,5.072-2.652c4.101-1.163,8.04-3.24,11.672-5.534
	c1.278-0.807,1.056-3.191,3.882-3.173c5.63,0.036,18.992-5.746,23.109-9.612c1.768-1.66,3.294-2.902,5.99-2.641
	c2.535,0.245,16.772-5.986,18.585-7.865c1.684-1.746,3.676-2.085,5.897-2.791C217.535,87.126,226.282,85.828,232.111,77.795z
	 M205.592,439.492c0.61-0.456,1.442-1.14,2.334-1.734c1.597-1.064,3.456-1.842,4.8-3.154c2.779-2.713,3.551,2.537,6.117,1.27
	c2.156-1.064,4.726-1.265,6.991-2.157c0.376-0.148,0.539-2.152,0.089-2.817c-0.965-1.425-2.295-2.664-3.664-3.738
	c-1.274-1-2.919-1.534-4.172-2.553c-1.578-1.284-2.824-2.976-4.402-4.26c-1.253-1.02-3.348-1.357-4.084-2.587
	c-1.486-2.482-2.785,1.204-3.804-0.161c-1.169-1.567-5.098-0.524-3.966-4.434c0.246-0.849-1.181-2.987-2.188-3.266
	c-6.712-1.86-9.936-10.301-18.042-9.495c-0.553,0.055-1.531-1.042-1.804-1.788c-2.453-6.704-9.297-8.298-14.001-12.371
	c-2.322-2.01-4.311-3.625-7.521-3.204c-0.592,0.078-1.907-0.815-1.862-1.101c0.78-5.048-4.45-5.076-6.578-7.615
	c-3.141-3.747-6.968-7.355-12.754-7.142c-1.095,0.04-2.85-1.256-3.277-2.34c-2.711-6.875-9.539-9.11-14.611-13.285
	c-1.188-0.978-2.938-1.382-4.501-1.741c-0.657-0.151-1.878,0.309-2.15,0.844c-0.279,0.55,0.038,1.762,0.525,2.281
	c2.598,2.769,5.171,5.598,8.06,8.044c2.926,2.477,4.495,7.147,9.645,6.414c0.219-0.031,0.694,1.328,0.952,2.073
	c0.355,1.025,0.278,2.526,0.972,3.057c6.032,4.618,9.124,12.82,17.686,14.448c0.98,0.186,1.776,2.057,2.379,3.283
	c0.47,0.955,0.136,2.623,0.799,3.117c5.4,4.026,7.924,11.613,15.792,12.683c1.043,0.142,1.94,1.925,2.76,3.054
	c5.216,7.18,11.083,13.74,19.128,17.746c1.727,0.86,1.653,1.64,2.018,2.997C194.86,435.822,200.18,437.321,205.592,439.492z
	 M295.875,57.926c-1.184,0.409-3.516,0.536-4.673,1.767c-1.877,1.998-3.883,2.154-6.225,2.083c-2.042-0.062-4.124-0.253-6.124,0.045
	c-2.742,0.409-3.792,3.779-1.73,5.655c3.772,3.432,7.601,6.837,11.702,9.851c1.649,1.212,4.093,1.319,6.145,2.018
	c0.759,0.258,1.914,0.637,2.068,1.188c1.353,4.864,5.866,6.811,9.403,8.926c4.37,2.613,7.024,8.707,13.537,7.47
	c0.397-0.075,1.258,0.452,1.338,0.822c1.246,5.759,6.994,6.944,10.463,10.425c2.654,2.663,6.067,3.467,9.385,4.854
	c3.198,1.337,5.204,5.516,7.765,8.417c0.128,0.145,0.65-0.102,0.842,0.037c2.931,2.109,6.122,3.965,8.656,6.481
	c1.875,1.863,3.677,2.593,6.119,2.28c1.831-0.235,1.83,1.121,2.649,2.293c3.929,5.621,9.604,9.34,15.592,12.535
	c0.939,0.501,2.049,0.852,3.1,0.911c0.724,0.041,1.878-0.362,2.12-0.894c0.26-0.572-0.076-1.761-0.573-2.277
	c-3.645-3.787-7.355-7.513-11.147-11.153c-0.738-0.709-1.897-1.278-2.904-1.354c-3.14-0.237-4.628-1.673-4.664-4.897
	c-0.01-0.959-0.756-2.123-1.508-2.827c-4.522-4.233-8.088-9.646-14.415-11.7c-1.003-0.326-2.028-1.125-2.646-1.99
	c-2.076-2.903-3.656-6.22-6.021-8.841c-2.58-2.86-5.876-5.064-8.757-7.666c-1.495-1.35-2.649-3.004-5.115-2.642
	c-0.505,0.074-1.351-1.249-1.819-2.056c-0.812-1.399-1.164-3.165-2.218-4.306c-3.367-3.643-6.927-7.113-10.505-10.553
	c-0.973-0.935-2.294-2.195-3.414-2.155c-2.848,0.103-2.518-1.621-3.442-3.457c-1.614-3.204-4.491-5.895-7.25-8.336
	C300.551,57.945,298.366,58.285,295.875,57.926z M439.037,200.377c0-1.278,0.077-1.875-0.013-2.446
	c-0.574-3.654,0.057-7.862-5.822-8.215c-1.654-0.099-3.351-2.886-4.635-4.716c-1.063-1.514-1.307-3.604-2.372-5.116
	c-0.726-1.03-2.327-2.175-3.383-2.043c-1.124,0.14-2.819,1.623-2.966,2.697c-0.841,6.157-1.755,12.37-1.713,18.558
	c0.027,3.904,3.757,8.104-1.845,11.057c-0.251,0.132-0.075,1.1-0.076,1.678c-0.004,3.51,0.495,7.113-0.141,10.503
	c-0.645,3.436-3.026,6.591,0.047,10.06c0.414,0.468-0.104,2.31-0.731,3.066c-5.175,6.233-0.663,14.266-3.982,20.802
	c2.207,2.552,1.585,4.921,0.254,7.814c-1.118,2.429-0.722,5.507-1.434,8.181c-1.475,5.541-1.406,9.042,0.483,15.019
	c0.259,0.819-0.439,2.017-0.864,2.964c-2.647,5.899-4.865,17.928-4.102,21.952c0.24,1.266,1.128,2.509,2.004,3.514
	c0.444,0.51,1.525,0.615,2.312,0.602c0.302-0.005,0.838-0.845,0.847-1.312c0.151-7.58,4.771-14.437,3.589-22.241
	c-0.114-0.754,0.104-2.115,0.555-2.314c4.756-2.096,2.101-7.236,4.416-10.591c1.853-2.685,2.404-7.137,1.746-10.45
	c-0.704-3.548-0.347-5.926,2.02-8.427c0.881-0.931,1.514-2.357,1.703-3.64c0.973-6.574,4.877-12.592,3.659-19.611
	c-0.145-0.832,1.135-1.828,1.476-2.842c1.295-3.856,2.834-7.682,3.598-11.651c0.733-3.811,4.224-7.748,0.197-11.781
	c-0.233-0.234,0.673-2.105,1.441-2.747C438.164,206.305,439.895,203.562,439.037,200.377z M267.943,419.347
	c8.158,2.514,14.132-3.222,21.067-3.23c1.656-0.002,3.099-3.382,5.014-4.639c2.573-1.69,4.99,2.334,6.953,1.322
	c5.473-2.825,11.445-3.548,17.226-5.006c2.239-0.565,0.422-4.25,3.645-3.689c2.271,0.395,4.666,0.103,7.004,0.062
	c0.836-0.015,1.709-0.066,2.496-0.318c4.386-1.402,8.751-2.87,13.123-4.316c3.231-6.685,8.98-0.986,13.217-2.7
	c0.25-0.101,0.39-0.535,0.63-0.586c3.474-0.749,6.636-2.436,10.287-2.924c1.462-0.195,5.572,0.336,5.584-3.699
	c0.001-0.418,1.798-1.282,2.637-1.149c1.565,0.247,3.039,1.53,4.551,1.53c1.512,0,2.981-1.257,4.547-1.571
	c1.804-0.362,3.896,0.725,4.195-2.719c0.162-1.863,3.578-2.646,3.324-5.606c-0.317-3.707-0.385-7.248,3.142-10.186
	c1.572-1.31-0.839-5.154,2.005-6.949c-0.996-0.76-2.383-2.393-2.927-2.149c-6.908,3.105-13.768,6.341-20.471,9.866
	c-2.141,1.126-3.319,4.737-6.547,1.883c-2.147,1.171-4.172,2.904-6.465,3.399c-5.319,1.148-9.999,3.272-13.639,7.292
	c-1.381,1.525-2.88,1.514-4.628,1.638c-5.862,0.417-15.493,5.12-21.176,9.944c-1.159,0.984-3.821,2.248-4.043,1.973
	c-3.003-3.719-5.282,0.135-7.322,0.928c-5.829,2.266-12.242,3.705-16.461,9.075c-0.535,0.682-2.028,0.716-3.102,0.854
	C282.787,408.832,275.536,413.464,267.943,419.347z M374.333,423.384c-4.601,0.736-8.126,1.491-11.689,1.817
	c-3.636,0.332-7.635-0.955-10.181,3.101c-0.294,0.469-1.891,0.742-2.334,0.398c-3.985-3.092-7.805,0.635-11.757,0.172
	c-3.579-0.419-7.123,0.04-10.742,1.424c-2.578,0.986-5.927,4.399-9.057,0.285c-0.176-0.231-1.572,0.252-2.251,0.654
	c-3.51,2.077-7.389,0.302-10.951,1.116c-3.681,0.841-7.156,2.726-10.855,3.31c-3.706,0.585-7.577,0.094-11.375,0.144
	c-1.707,0.022-3.582-0.209-5.088,0.4c-6.089,2.46-12.337,3.537-18.879,3.114c-1.746-0.113-3.529-0.2-5.253,0.021
	c-3.572,0.459-7.117,1.132-10.673,1.718c-2.521,5.425-6.624,1.571-10.084,1.833c-5.722,0.432-11.406,1.351-17.106,2.064
	c0.017,0.457,0.035,0.914,0.052,1.371c2.836,0,5.672,0,8.508,0c36.816,0,73.633,0,110.449,0c7.597,0,15.195-0.055,22.791,0.028
	c2.858,0.031,4.449-0.77,5.824-3.717C366.642,436.285,370.427,430.319,374.333,423.384z M163.239,446.325
	c-2.952-4.151-4.538-7.134-6.822-9.421c-3.678-3.681-5.168-9.517-10.948-11.178c-0.617-0.177-1.465-1.389-1.354-1.955
	c0.552-2.825-1.623-4.034-2.943-5.854c-2.247-3.099-3.844-6.718-6.337-9.574c-2.167-2.483-5.977-3.734-7.624-6.413
	c-1.617-2.629-1.412-6.595-3.992-8.762c-4.249-3.568-6.133-9.329-11.544-11.841c-1.63-0.757-2.501-2.591-2.994-4.848
	c-0.606-2.772-2.793-5.254-4.521-7.703c-0.995-1.41-2.549-2.415-3.64-3.772c-1.183-1.471-1.927-3.329-3.226-4.664
	c-1.108-1.139-2.646-1.992-4.147-2.587c-2.811-1.114,0.178-3.071-0.804-4.382c-3.507-4.678-7.002-9.365-10.534-14.023
	c-0.524-0.691-1.179-1.702-1.854-1.772c-1.342-0.138-2.74,0.277-4.115,0.464c0.217,0.997,0.205,2.127,0.69,2.97
	c3.124,5.432,6.504,10.721,9.519,16.211c4.062,7.398,8.024,14.849,12.716,21.875c4.855,7.271,9,15.003,13.356,22.534
	c7.75,13.4,15.617,26.76,22.926,40.407c1.625,3.034,2.877,4.369,6.11,4.319C147.813,446.253,154.474,446.325,163.239,446.325z
	 M268.706,256.305c0-2.047,0.228-4.127-0.062-6.132c-0.309-2.137-1.39-4.169-1.646-6.306c-1.262-10.53-8.423-16.604-16.273-22.35
	c-6.25-4.575-13.831-4.904-20.863-6.773c-3.896-1.035-8.294,0.68-12.419,1.209c-10.296,1.318-18.351,5.548-25.545,12.84
	c-5.86,5.94-7.946,13.256-9.074,20.823c-1.213,8.135,0.354,16.234,3.347,23.964c0.293,0.757,0.359,1.651,0.803,2.292
	c6.79,9.797,9.143,11.733,20.129,16.654c5.825,2.609,12.115,3.627,18.319,4.351c3.732,0.435,7.86-0.453,11.494-1.682
	c6.939-2.347,14.213-4.489,19.599-9.764C264.595,277.518,268.624,267.681,268.706,256.305z M101.887,223.576
	c0-3.589-0.212-6.531,0.065-9.427c0.236-2.465-1.253-3.553-2.818-4.765c-0.838,1.406-1.848,2.741-2.467,4.238
	c-0.619,1.497-1.153,3.149-1.19,4.745c-0.117,5.087-0.454,10.251,0.302,15.233c0.271,1.784,0.993,2.909-0.527,4.294
	c-0.823,0.75-1.935,1.661-2.063,2.615c-0.752,5.579-1.269,11.19-1.832,16.794c-0.371,3.692,4.064,8.135-1.732,11.026
	c-0.233,0.116-0.03,1.109-0.03,1.693c0,3.506,0.743,7.229-0.199,10.461c-1.039,3.568-2.447,6.618,0.102,10.071
	c0.388,0.526-0.299,2.156-0.871,3.024c-2.272,3.45-2.766,7.19-2.621,11.231c0.088,2.435,0.048,4.727-1.358,7.331
	c-1.414,2.619-0.465,6.468,1.333,9.677c1.49,2.659,3.305,3.292,6.12,3.512c1.574,0.123,4.449,2.317,4.287,2.948
	c-1.163,4.53,3.572,3.687,4.947,5.818c0.946,1.464,3.836,0.467,4.014-1.279c0.207-2.024,0.85-4.631-0.101-6.03
	c-2.91-4.278-2.991-8.059,0.091-12.139c0.422-0.558,0.427-2.168-0.001-2.512c-2.862-2.3-1.244-5.403-1.703-8.112
	c-0.554-3.269,1.384-6.939-1.688-9.857c-0.438-0.416-0.402-1.904-0.007-2.532c3.366-5.36,0.863-11.269,1.746-16.831
	c0.476-3.003-0.38-5.745-1.922-7.96c-1.37-1.968-0.634-3.19,0.116-4.77c2.263-4.764,2.452-9.472,0.645-14.578
	c-1.364-3.855-3.16-8.607-2.01-12.036C101.967,231.133,101.319,227.053,101.887,223.576z M208.911,96.906
	c-8.631-0.399-14.77,5.784-22.323,7.495c-0.18,0.041-0.335,0.431-0.405,0.685c-0.998,3.645-2.597,5.732-6.305,2.483
	c-6.189,2.677-12.443,5.22-18.514,8.145c-1.218,0.587-1.456,3.376-2.644,3.821c-1.792,0.672-4.063-0.079-6.054,0.245
	c-2.115,0.344-4.218,1.063-6.184,1.939c-1.977,0.881-3.751,2.21-5.666,3.244c-1.901,1.027-3.887,1.897-5.802,2.901
	c-1.77,0.928-2.847,4.655-4.812,3.141c-2.977-2.293-3.911,1.295-6.043,1.131c-1.455-0.112-3.05,0.948-4.509,1.639
	c-4.151,1.967-8.412,3.765-12.348,6.103c-3.338,1.983-5.253,6.064-3.364,8.756c2.569,3.66,0.837,5.258-0.985,8.123
	c-1.29,2.028-1.714,6.362-0.423,7.886c2.193,2.588,3.337-1.811,5.232-2.404c2.645-0.827,4.317-1.93,4.989-4.896
	c0.28-1.235,1.808-2.778,4.065-2.577c4.739,0.421,8.223-2.72,11.92-4.946c2.856-1.72,6.574-3.534,7.719-6.235
	c2.108-4.97,5.896-1.558,8.489-2.916c0.987-0.517,1.591-1.719,2.523-2.4c1.545-1.129,3.266-2.016,4.818-3.137
	c2.487-1.795,4.947-3.635,7.319-5.578c1.348-1.105,2.338-2.714,3.793-3.598c0.935-0.568,2.626,0.158,3.621-0.369
	c3.13-1.661,6.028-3.754,9.134-5.465c3.48-1.918,7.169-3.437,9.13-7.315c0.433-0.857,1.784-1.831,2.665-1.788
	c6.927,0.337,10.647-5.44,16.012-7.983C206.733,101.723,207.554,99.663,208.911,96.906z M140.755,360.773
	c1.967,4.843,6.528,6.949,10.105,10.005c2.304,1.968,5.075,5.16,7.392,4.96c4.322-0.371,5.081,2.408,6.855,4.697
	c0.887,1.145,1.858,2.515,3.104,3.043c5.303,2.247,8.206,8.599,14.917,8.544c1.065-0.009,2.683,1.538,3.118,2.71
	c1.37,3.685,4.721,5.551,7.544,7.073c4.545,2.45,6.972,8.683,13.47,7.752c0.468-0.067,1.207,1.367,1.735,2.159
	c4.539,6.812,12.006,10.105,18.272,14.766c1.903,1.416,5.66,0.792,8.45,0.353c1.201-0.189,2.558-2.13,3.04-3.549
	c0.899-2.647,2.925-1.598,4.281-1.448c3.761,0.418,6.678-0.257,7.953-2.674c0.295-0.559-0.058-2.154-0.394-2.246
	c-3.671-1.004-6.057-5.35-10.665-4.044c-0.78,0.221-2.698-0.671-2.707-1.079c-0.094-4.359-4.294-4.762-6.571-5.593
	c-5.064-1.848-8.818-7.467-15.28-5.657c-0.591,0.165-2.375-1.386-2.397-2.175c-0.097-3.453-3.468-3.085-5.125-4.612
	c-1.715-1.581-4.548-1.908-6.388-3.403c-3.211-2.61-6.602-4.1-10.751-3.738c-1.549,0.135-2.728,0.028-2.887-2.103
	c-0.069-0.924-1.12-2.143-2.034-2.577c-6.827-3.243-12.423-9.221-20.651-9.388c-0.506-0.01-1.26-0.225-1.469-0.59
	c-3.357-5.848-9.837-6.893-14.957-10.062C145.945,360.182,143.617,359.997,140.755,360.773z M248.842,76.442
	c0.769,1.689,0.859,2.422,1.24,2.633c2.368,1.318,4.698,3.17,7.242,3.571c2.407,0.38,4.197,0.845,6.02,2.611
	c6.26,6.066,13.828,9.768,22.336,11.706c1.49,0.339,3.474,1.478,3.911,2.713c0.54,1.527,1.206,1.806,2.443,2.633
	c4.568,3.054,10.458,3.842,14.175,8.303c0.271,0.325,1.348,0.497,1.555,0.276c2.472-2.642,3.633-0.097,5.13,1.203
	c6.323,5.492,13.46,9.357,21.698,11.202c1.519,0.34,4.076,1.699,4.023,2.431c-0.233,3.182,2.553,2.592,3.883,3.562
	c2.865,2.089,6.041,3.747,9.037,5.665c3.584,2.294,7.891,3.163,8.297,1.53c0.812-3.266-2.774-3.977-4.055-6.074
	c-0.148-0.243-0.368-0.513-0.618-0.611c-5.365-2.109-8.269-8.599-14.98-8.403c-0.639,0.019-1.652-0.87-1.909-1.556
	c-2.157-5.757-7.419-7.835-12.112-10.726c-3.507-2.16-5.677-6.89-11.008-5.341c-0.12,0.035-0.835-0.965-0.738-1.345
	c1.187-4.652-3.745-4.163-5.51-6.305c-3.039-3.687-9.192-6.401-14.102-8.066c-1.003-0.34-2.259-1.138-2.597-2.03
	c-1.379-3.635-4-5.614-7.346-7.445c-3.405-1.863-5.934-5.364-9.371-7.124c-2.379-1.219-5.142-3.085-8.268-2.035
	c-2.323,0.78-3.391,3.19-5.108,4.41c-1.804,1.281-4.885,0.72-7.393,1.071c-1.351,0.189-2.678,0.573-4.002,0.921
	C249.916,76.031,249.144,76.34,248.842,76.442z M398.999,332.055c-4.576,2.293-8.694,3.457-10.688,7.695
	c-0.332,0.707-1.975,1.26-2.91,1.132c-2.629-0.358-4.174,0.942-6.025,2.545c-5.031,4.357-12.625,5.406-15.811,12.288
	c-0.31,0.669-1.974,1.038-2.985,0.994c-3.322-0.145-5.842,1.343-8.287,3.337c-1.475,1.203-3.105,2.329-4.844,3.07
	c-2.926,1.247-5.327,2.891-6.797,5.824c-0.392,0.782-1.338,1.711-2.123,1.806c-8.13,0.993-13.889,6.318-19.989,10.917
	c-2.896,2.183-4.724,6.027-9.361,5.027c-0.603-0.13-1.433,0.674-2.125,1.1c-4.181,2.571-7.693,6.212-12.574,7.712
	c-0.566,0.174-1.243,2.143-0.915,2.608c0.634,0.899,2.048,1.974,2.962,1.833c5.955-0.922,10.41-5.797,16.602-6.47
	c0.99-0.108,1.574-2.64,2.647-3.764c0.685-0.718,1.923-1.27,2.915-1.275c7.726-0.032,13.845-4.67,20.686-7.188
	c1.744-0.642,3.222-2.422,4.442-3.977c1.917-2.442,3.362,2.008,5.633-0.028c2.346-2.103,5.508-4.031,8.537-4.459
	c4.296-0.607,7.193-2.745,10.037-5.529c0.757-0.741,1.914-1.718,2.769-1.615c7.484,0.909,12.669-4.805,19.243-6.527
	c4.817-1.262,7.574-4.519,6.932-10.059c-0.291-2.51-0.639-5.691,0.585-7.548C399.668,338.3,397.823,335.464,398.999,332.055z
	 M396.7,161.497c0.886,4.376-1.199,8.273,1.843,11.96c0.718,0.871,0.637,3.133,0.016,4.252c-3.019,5.446-1.128,11.267-1.659,16.883
	c-0.279,2.945-0.206,5.729,2.626,7.716c1.493,1.048,0.22,2.286,0.02,3.603c-1.243,8.2-1.878,16.465,0.212,24.669
	c0.272,1.067,0.967,2.45,0.562,3.2c-3.244,6.012-1.07,12.44-1.62,18.638c-0.118,1.334,0.001,3.034,0.735,4.035
	c2.335,3.182,2.567,6.107-0.038,9.175c-0.234,0.275-0.373,0.953-0.203,1.202c2.548,3.727,0.672,7.884,1.166,11.804
	c0.254,2.017-0.062,4.101,0.109,6.135c0.052,0.62,0.77,1.324,1.365,1.703c0.326,0.207,1.31-0.007,1.52-0.336
	c0.872-1.369,2.429-3.032,2.175-4.267c-1.417-6.893,3.421-13.686,0.173-20.538c-0.227-0.478-0.234-1.26,0.001-1.726
	c2.849-5.638,3.757-11.632,3.514-17.878c-0.03-0.78,0.139-1.855,0.648-2.321c2.434-2.229,0.576-3.612-0.943-4.87
	c-1.488-1.233-1.303-2.029,0.051-3.179c0.82-0.697,1.765-1.711,1.893-2.683c0.736-5.591,1.588-11.204,1.719-16.825
	c0.102-4.378-3.517-9.15,1.849-12.766c0.136-0.091,0.011-0.56,0.018-0.853c0.083-3.644,0.146-7.145,1.54-10.769
	c1.078-2.805,0.38-6.367,0.165-9.572c-0.184-2.747-2.728-5.241-5.661-5.43c-2.668-0.172-3.764-1.372-4.977-3.727
	C403.919,165.617,401.668,162.527,396.7,161.497z M36.024,270.511c0.301-0.24,0.85-0.488,1.107-0.912
	c3.667-6.057,4.3-13.461,8.525-19.291c0.253-0.349,0.173-1.334-0.133-1.635c-3.574-3.505-0.528-4.656,2.042-6.067
	c0.631-0.346,1.58-1.001,1.567-1.492c-0.117-4.519,4.109-7.373,4.573-11.214c0.354-2.931,4.906-5.617,1.037-8.953
	c1.89-2.653,4.048-5.161,5.592-8.003c1.406-2.587,1.736-5.792,3.281-8.261c1.994-3.186,3.425-6.27,3.249-10.127
	c-0.055-1.199,1.024-2.457,1.612-3.675c1.764-3.657,4.182-7.149,5.135-11.005c0.946-3.827,6.885-7.037,2.029-11.88
	c-0.014-0.014,0.669-0.845,1.112-1.181c4.902-3.717,5.888-9.908,9.163-14.675c1.37-1.994,1.258-5.007,1.819-7.556
	c-3.516,3.465-6.385,7.118-8.582,11.138c-3.765,6.891-6.297,14.59-10.803,20.911c-8.623,12.099-14.544,25.694-22.532,38.13
	c-6.781,10.557-12.273,21.921-19.316,32.367c-1.049,1.556-1.84,3.908-0.219,6.423C29.815,259.029,32.816,264.849,36.024,270.511z
	 M284.51,216.29c0,4.363,0.391,8.182-0.11,11.879c-0.499,3.677-0.254,7.184-0.123,10.849c0.552,15.477,0.181,30.986,0.295,46.482
	c0.016,2.15-2.609,4.059-0.193,6.567c0.852,0.884-0.367,3.343,2.541,3.327c2.482-0.014,4.077-1.348,4.477-3.184
	c0.548-2.512,1.068-5.745-0.042-7.767c-3.062-5.576-1.056-11.311-1.478-16.922c-0.321-4.273,1.178-5.513,5.508-5.552
	c9.064-0.081,18.144-0.336,27.186,0.115c4.137,0.207,8.083-0.604,11.475-2.09c7.058-3.093,13.742-6.676,16.307-15.364
	c2.675-9.059-0.583-20.749-12.045-24.736c-6.264-2.179-12.669-3.94-19.569-3.706C307.642,216.566,296.522,216.29,284.51,216.29z
	 M462.707,232.19c-1.931,4.291-3.914,8.435-5.633,12.686c-0.488,1.207-0.782,3.163-0.146,4.002c1.054,1.39,1.478,2.209-0.125,3.187
	c-4.166,2.541-5.49,6.994-7.147,11.066c-1.74,4.277-3.934,8.473-3.72,13.412c0.061,1.408-1.165,3.042-2.151,4.297
	c-4.896,6.225-7.523,13.287-8.29,21.123c-0.129,1.314-0.285,2.878-1.047,3.834c-4.252,5.337-9,13.87-9.417,17.944
	c-0.236,2.312,0.479,4.834-0.193,6.958c-0.639,2.022-3.424,2.479-4.467,4.992c-2.125,5.117-4.655,10.029-5.327,15.67
	c5.171-7.401,9.988-14.939,14.309-22.752c4.75-8.59,9.581-17.104,14.674-25.504c3.068-5.06,5.941-10.366,8.979-15.499
	c3.331-5.627,5.996-11.594,9.69-17.066c3.921-5.808,6.706-12.379,10.079-18.566c0.482-0.884,1.376-1.095,0.415-2.558
	C469.503,243.798,466.169,237.948,462.707,232.19z M103.345,186.387c0.37,1.267,0.435,3.016,1.034,3.224
	c1.205,0.417,3.286,0.556,3.984-0.172c5.432-5.659,13.362-8.679,16.889-16.461c0.882-1.945,2.911-3.83,6.016-4.331
	c2.751-0.444,5.331-2.671,7.709-4.476c2.075-1.575,3.604-4.997,5.656-5.242c4.336-0.518,1.951-4.151,3.589-5.628
	c0.821-0.74,1.776-1.883,2.678-1.89c4.791-0.041,8.053-2.863,10.512-6.259c2.305-3.184,7.979-3.43,7.644-9.012
	c-0.043-0.71,2.675-2.29,4.061-2.23c2.646,0.114,4.287-0.888,5.997-2.674c3.335-3.483,6.458-7.247,10.987-9.386
	c0.627-0.296,1.131-1.296,1.258-2.043c0.076-0.45-0.993-1.526-1.032-1.501c-3.938,2.475-9.451,1.181-12.712,5.444
	c-0.919,1.202-2.691,1.83-4.171,2.506c-2.26,1.033-4.739,1.452-5.038,4.861c-0.087,0.989-2.523,2.4-3.982,2.535
	c-7.334,0.675-12.122,6.12-18.058,9.355c-1.703,0.928-2.498,3.392-4.068,4.731c-1.379,1.177-4.04,0.396-5.054,1.037
	c-5.341,3.375-11.533,5.462-15.957,10.301c-2.274,2.487-4.363,4.88-8.623,4.836c-2.405-0.025-5.408,2.566-7.089,4.778
	c-1.405,1.85-3.734,4.331-0.993,7.59c1.075,1.279,0.388,4.207,0.165,6.349C104.611,183.925,103.827,185.154,103.345,186.387z
	 M333.026,130.514c-1.478-1.498-2.187-2.346-3.022-3.043c-5.546-4.631-12.13-7.356-18.913-9.339
	c-2.305-0.674-4.201-1.017-5.544-3.155c-1.265-2.013-5.662-5.126-8.168-5.769c-5.031-1.292-8.463-6.461-14.262-5.817
	c-2.849-4.135-7.832-5.219-11.549-8.093c-2.957-2.286-5.956-4.249-9.886-3.655c-1.967,0.298-3.911-0.216-4.392-1.919
	c-1.27-4.5-5.942-4.186-8.715-6.519c-1.114-0.937-4.291-0.736-5.624,0.215c-1.92,1.369-2.601,4.649-4.57,5.73
	c-2.289,1.257-5.445,0.843-8.124,1.541c-0.817,0.213-1.614,1.646-1.8,2.636c-0.085,0.456,1.23,1.435,2.071,1.763
	c6.799,2.65,13.677,5.1,20.438,7.841c2.287,0.927,4.025-2.096,5.812-0.686c1.628,1.285,2.433,4.606,3.958,4.857
	c6.805,1.12,12.655,5.509,19.67,5.541c2.14,0.01,3.607,0.773,5.374,1.979c3.095,2.113,6.597,4.301,10.175,4.85
	c3.669,0.563,6.433,6.54,11.006,2.065c0.228-0.223,1.784,0.333,2.126,0.892c3.099,5.066,9.393,4.435,13.572,7.687
	c1.772,1.379,4.655,1.435,7.076,1.811C330.497,132.043,331.4,131.247,333.026,130.514z M127.93,346.719
	c0.11-2.967,0.585-5.541,0.211-7.985c-0.617-4.039-1.813-7.987-2.704-11.988c-0.479-2.15-0.083-5.218-1.389-6.315
	c-3.096-2.599-2.137-4.69-1.278-7.892c1.412-5.264-1.196-10.389-2.515-15.472c-1.109-4.276-2.986-8.271-2.674-12.945
	c0.257-3.852,0.682-7.748-1.489-11.61c-1.646-2.927,2.357-8.171-3.665-9.687c1.209-4.389-3.09-8.638-1.489-12.286
	c2.174-4.951-1.379-9.062-0.355-13.567c0.071-0.313-1.083-1.266-1.668-1.267c-0.586-0.001-1.451,0.698-1.715,1.3
	c-2.599,5.912-2.477,11.942-0.789,18.091c1.013,3.693,1.68,7.48,2.502,11.226c-3.941,6.166-0.973,12.956-1.598,19.424
	c-0.182,1.887,1.436,4.001,2.39,5.932c1.517,3.068-3.295,3.157-2.647,6.049c0.498,2.223-0.1,4.668,0.14,6.977
	c0.51,4.911-2.052,10.541,3.375,14.442c0.517,0.372,0.014,2.777-0.572,3.962c-2.531,5.117-1.326,9.802,1.545,14.203
	c0.638,0.978,3.263,1.949,3.385,1.78c1.603-2.227,2.536-0.925,3.892,0.292C121.53,341.819,123.411,345.323,127.93,346.719z
	 M396.534,304.395c-6.945,5.996-13.091,10.968-18.81,16.389c-2.669,2.529-3.541,7.154-8.551,6.637
	c-5.135,4.55-10.497,8.88-15.266,13.786c-1.405,1.445-2.435,3.025-4.287,4.237c-2.499,1.635-5.954,1.387-7.609,5.216
	c-1.171,2.709-5.19,4.08-7.629,6.376c-2.86,2.692-3.763,7.751-9.139,7.292c-2.068,2.653-3.632,6.513-6.337,7.644
	c-3.133,1.311-6.157,1.996-8.11,5.977c2.541-0.281,4.816-0.158,6.823-0.834c3.796-1.278,12.737-8.362,16.082-12.113
	c0.486-0.545,1.291-1.169,1.934-1.154c7.64,0.172,12.71-5.326,18.058-9.193c3.89-2.812,5.7-8.47,12.117-6.719
	c0.335,0.092,0.919-0.562,1.329-0.933c4.58-4.137,10.689-6.227,14.743-11.114c0.8-0.965,2.324-1.353,3.547-1.939
	c2.195-1.051,4.365-2.185,6.637-3.04c3.55-1.337,4.832-4.166,4.73-7.525c-0.064-2.113-1.56-4.205-1.531-6.294
	c0.034-2.398,1.177-4.76,1.574-7.181C397.054,308.6,396.717,307.2,396.534,304.395z M393.341,262.959
	c0.736-4.473,1.34-7.686,1.782-10.92c1.289-9.426-2.763-18.857-0.017-28.303c0.235-0.807,0.404-2.064-0.029-2.564
	c-3.066-3.543-0.094-8.408-1.962-11.409c-2.644-4.25,0.37-7.382,0.183-10.956c-0.369-7.059,1.559-14.276-1.56-21.203
	c-0.589-1.309-0.257-3.688,0.612-4.861c1.827-2.464,1.136-5.083,0.908-7.474c-0.409-4.288-3.503-6.805-7.787-6.88
	c-2.335-0.041-4.254,0.197-4.895-2.998c-0.286-1.428-2.272-2.555-3.579-3.713c-0.355-0.315-1.228-0.515-1.548-0.3
	c-0.586,0.395-1.216,1.085-1.341,1.744c-1.366,7.193,2.32,13.989,1.748,21.143c-0.037,0.466,0.297,1.174,0.683,1.427
	c3.595,2.353,2.518,6.013,2.85,9.36c0.357,3.597-0.85,7.138,1.21,10.885c1.749,3.183-0.606,8.077,3.821,10.747
	c0.505,0.304,0.27,2.935-0.429,3.91c-1.577,2.203-1.528,3.909-0.009,6.108c0.705,1.021,0.796,2.774,0.55,4.081
	c-0.616,3.284,0.853,6.058,1.893,8.886c0.834,2.264,2.962,4.217,3.251,6.47c0.291,2.27-1.062,4.724-1.526,7.13
	c-0.217,1.125-0.492,2.617,0.038,3.445C391.132,251.308,389.365,257.119,393.341,262.959z M274.646,402.717
	c-7.892-2.591-15.096-4.93-22.276-7.339c-1.273-0.427-2.419-1.567-3.674-1.655c-3.812-0.269-3.801-0.155-6.346-2.438
	c-0.56-0.502-1.293-0.858-2.003-1.138c-4.528-1.783-9.147-5.11-13.592-4.899c-6.2,0.294-10.118-2.648-14.54-5.607
	c-0.856-0.573-2.129-0.478-3.138-0.874c-3.018-1.185-5.972-2.541-9.012-3.664c-1.277-0.472-3.231-1.202-3.963-0.635
	c-1.614,1.251-2.275,0.929-4.009,0.041c-2.338-1.198-4.953-2.433-7.967-1.997c-3.323,0.481-6.105-0.005-6.988-4.331
	c-0.267-1.31-3.278-1.865-4.595-3.198c-2.456-2.485-2.441,1.166-3.804,1.288c3.042,4.201,7.133,6.86,11.903,8.742
	c3.264,1.288,6.346,3.041,9.509,4.585c5.421-2.372,4.61,5.984,9.08,5.295c0.186-0.029,0.424,0.343,0.652,0.51
	c3.987,2.91,9.257,3.621,12.734,7.427c0.247,0.27,1.078,0.469,1.179,0.34c1.937-2.458,3.41-1.152,4.903,0.508
	c3.038,3.378,6.561,5.872,10.905,7.573c4.291,1.68,7.549,6.026,12.994,4.768c0.37-0.086,1.291,0.906,1.478,1.538
	c1.342,4.546,5.99,4.511,9.157,6.274c1.601,0.891,4.493-0.423,6.761-0.922c0.636-0.14,1.524-0.859,1.623-1.429
	c0.582-3.371,2.842-4.004,5.71-3.781C270.777,407.965,271.871,404.981,274.646,402.717z M111.638,214.711
	c3.023-4.836,9.603-6.819,9.935-13.603c0.041-0.83,1.484-1.708,2.42-2.359c8.576-5.97,11.228-8.926,16.554-18.442
	c0.411-0.734,1.1-1.544,1.845-1.823c5.101-1.911,7.772-6.61,11.61-9.955c2.354-2.051,4.462-4.192,4.471-7.811
	c0.004-1.379,1.831-4.045,2.326-3.931c5.038,1.152,5.487-3.809,6.907-5.948c1.817-2.737,4.964-5.802,3.938-10.85
	c-5.231,7.397-13.704,10.3-17.629,17.897c-0.539,1.043-2.275,2.154-3.38,2.079c-2.531-0.171-3.453,1.711-5.005,2.874
	c-1.988,1.489-3.271,3.553-5.942,4.638c-2.565,1.042-4.355,4.318-6.129,6.861c-1.164,1.668-1.92,3.204-4.352,3.442
	c-1.481,0.145-3.002,1.293-4.235,2.316c-4.366,3.622-8.37,7.743-13.023,10.926c-2.052,1.404-2.298,3.03-3.342,4.63
	c-2,3.064-1.225,4.358,0.861,6.427c0.84,0.832,1.559,3.183,1.077,3.725C107.471,209.259,110.493,211.719,111.638,214.711z
	 M305.743,130.167c-3.701-6.225-9.973-6.011-14.754-8.562c-2.553-1.363-5.87-1.273-8.827-1.913c-1.05-0.227-2.25-0.424-3.046-1.057
	c-5.264-4.19-11.643-5.713-17.831-7.729c-1.273-0.415-3.23-1.925-3.539-1.613c-3.791,3.831-5.304-0.117-7.573-1.901
	c-1.708-1.342-3.565-2.97-5.572-3.358c-4.617-0.894-8.724-2.88-13.025-4.549c-2.785-1.08-6.184-0.839-9.271-0.633
	c-0.524,0.035-0.47,3.2-1.389,4.358c-0.934,1.178-2.679,1.826-4.185,2.401c-1.267,0.484-2.84,0.258-4.014,0.861
	c-0.872,0.447-1.636,1.658-1.821,2.646c-0.086,0.46,1.23,1.364,2.055,1.782c3.245,1.648,9.072,2.381,12.705,1.84
	c1.14-0.169,3.131-0.45,3.361,0.007c2.223,4.437,7.021,3.672,10.434,4.512c4.121,1.014,8.531,4.175,12.811,1.921
	c2.306-1.215,3.296-1.352,5.003,0.394c0.896,0.916,2.301,1.451,3.572,1.862c6.635,2.142,13.276,4.225,20.432,3.601
	c1.606-0.14,3.637-0.037,4.857,0.825C291.957,129.987,298.41,130.468,305.743,130.167z M232.304,56.882
	c-1.627-0.194-2.437-0.374-3.247-0.375c-28.888-0.014-57.777-0.012-86.665-0.012c-0.875,0-1.818-0.208-2.611,0.048
	c-1.273,0.411-2.959,0.804-3.574,1.773c-3.02,4.762-5.744,9.711-9.464,16.133c2.798-1.21,3.889-2.096,4.968-2.08
	c5.935,0.083,11.78,0.063,16.968-3.526c0.592-0.41,1.865-0.357,2.562-0.004c3.366,1.706,6.64-0.166,9.952-0.077
	c5.94,0.159,11.637-0.701,16.479-4.594c0.252-0.202,0.868-0.167,1.208-0.011c7.885,3.62,15.541-0.787,23.322-0.671
	c0.473,0.007,1.091-0.37,1.407-0.758c2.028-2.49,3.723-2.329,7.012-1.264c6.27,2.032,12.657-1.538,19.087-2.063
	C230.467,59.338,231.126,58.068,232.304,56.882z M380.325,235.407c2.028-1.513,3.413-3.388,2.161-6.351
	c-0.631-1.493-1.473-3.188-1.288-4.676c0.41-3.285-1.481-5.983-1.725-8.955c-0.23-2.806-3.374-3.497-3.487-5.567
	c-0.128-2.353,1.031-4.768,1.573-7.17c0.126-0.557,0.249-1.314-0.017-1.729c-2.326-3.621-1.603-7.659-1.736-11.587
	c-0.028-0.825,0.033-2.094-0.437-2.395c-4.392-2.818-3.092-7.201-2.988-11.074c0.162-6.011-2.61-11.576-2.076-17.734
	c0.222-2.56-1.88-5.729-3.762-7.893c-0.941-1.082-3.783-0.418-5.727-0.76c-1.035-0.182-2.057-0.716-2.966-1.281
	c-1.874-1.166-3.613-2.557-5.528-3.644c-0.579-0.329-1.551,0.036-2.344,0.084c0.29,0.621,0.73,1.217,0.838,1.868
	c0.231,1.393,0.075,2.877,0.467,4.209c0.758,2.572,1.346,5.36,2.802,7.521c2.259,3.354,2.535,3.164,2.425,7.143
	c-0.024,0.872-0.33,1.994,0.087,2.578c2.533,3.55,2.842,7.623,3.648,11.725c0.537,2.735,3.87,4.831,4.815,7.601
	c0.979,2.87,0.111,6.334,0.902,9.313c1.245,4.691,2.005,10.411,5.137,13.491c4.732,4.653,1.644,9.935,3.435,14.549
	c0.685,1.766,1.03,3.701,1.931,5.339C377.52,231.932,379.011,233.609,380.325,235.407z M342.555,56.495
	c2.103,3.113,3.665,5.958,5.741,8.361c2.388,2.764,5.463,4.843,8.321,7.117c2.218,1.765,2.573,5.792,3.968,8.712
	c0.475,0.995,1.517,1.786,2.439,2.489c3.719,2.835,4.485,8.568,9.782,9.91c0.557,0.141,1.174,1.321,1.207,2.043
	c0.191,4.311,3.288,7.28,5.823,9.769c3.517,3.454,4.928,8.747,10.145,10.871c1.655,0.674,1.881,4.363,3.251,6.332
	c3.342,4.803,6.912,9.453,10.548,14.039c0.535,0.675,1.932,0.667,2.93,0.974c0.067-0.998,0.54-2.229,0.125-2.951
	c-1.234-2.153-3.042-3.986-4.22-6.163c-3.224-5.957-5.746-12.351-9.445-17.982c-6.91-10.518-13.007-21.475-19.136-32.437
	c-3.33-5.955-7.148-11.64-10.423-17.623c-1.236-2.258-2.424-3.575-5.135-3.502C353.276,56.594,348.07,56.495,342.555,56.495z
	 M332.293,352.828c4.207-5.655,12.698-6.85,15.187-14.205c0.161-0.476,0.898-1.179,1.228-1.11c4.442,0.922,5.856-3.064,8.451-5.108
	c2.871-2.262,5.817-4.442,8.532-6.879c0.943-0.846,1.151-2.459,1.95-3.531c0.866-1.16,1.886-2.361,3.118-3.032
	c0.741-0.403,2.44,0.684,2.982,0.231c5.041-4.209,9.935-8.594,14.849-12.955c3.789-3.363,7.274-6.688,3.156-12.293
	c-0.837-1.14-0.084-3.422-0.131-5.176c-0.052-1.931-0.183-3.86-0.312-6.439c-5.999,2.757-8.07,7.566-10.247,12.342
	c-0.673,1.477-1.742,3.953-2.642,3.959c-6.365,0.038-8.817,5.468-11.903,9.141c-2.005,2.386-5.793,4.954-4.736,9.326
	c-2.994,1.877-6.367,3.348-8.9,5.718c-4.681,4.379-9.136,9.088-10.69,15.713c-0.17,0.726-1.079,1.607-1.817,1.82
	C334.211,342.13,334.498,348.244,332.293,352.828z M119.752,271.302c0.484,2.93,0.867,5.883,1.497,8.781
	c0.28,1.292,0.772,2.759,1.663,3.653c2.169,2.174,2.531,4.115,0.658,6.729c-0.699,0.976-1.004,3.417-0.404,3.936
	c2.525,2.187,1.119,4.898,1.561,7.328c0.64,3.524,1.353,7.035,2.034,10.552c5.661,1.455,2.67,4.55,1.53,7.454
	c-0.398,1.013-0.492,2.561,0.015,3.436c1.648,2.843,1.882,5.848,1.663,8.961c-0.241,3.428,2.698,6.128,1.901,9.822
	c-0.437,2.026,3.363,6.381,5.099,5.88c4.92-1.419,7.093,2.642,10.418,4.379c0.905,0.473,1.851,0.866,3.474,1.618
	c0.624-5.954-0.769-10.545-4.121-14.466c-1.906-2.23-4.455-4.026-1.763-7.279c0.25-0.302,0.475-0.931,0.329-1.207
	c-3.657-6.955-2.934-15.786-9.248-21.6c-1.38-1.271-0.837-2.347,0.17-3.668c0.501-0.657,0.451-2.009,0.201-2.924
	C133.237,290.968,126.558,280.99,119.752,271.302z M206.112,372.573c-0.206,0.291-0.411,0.583-0.617,0.874
	c2.783,1.03,5.562,2.07,8.351,3.085c1.27,0.462,3.165,1.636,3.736,1.181c2.887-2.3,4.157-0.038,6.005,1.449
	c1.903,1.531,4.025,3.468,6.253,3.78c4.946,0.691,9.104,4.558,14.282,3.627c6.259-1.126,8.125,5.585,12.963,6.845
	c0.81,0.211,1.738,0.006,2.527,0.258c4.123,1.314,8.23,2.681,12.321,4.091c4.824,1.662,6.971,0.695,9.114-3.968
	c0.362-0.788,1.278-1.505,2.107-1.859c1.983-0.848,4.14-1.307,6.078-2.235c0.88-0.422,2.086-1.749,1.935-2.371
	c-0.232-0.955-1.824-2.506-2.293-2.332c-4.851,1.797-9.568-4.633-14.427-0.2c-0.271,0.247-1.527-0.385-2.198-0.809
	c-5.073-3.2-14.545-6.203-20.236-6.113c-3.983,0.063-7.609-0.474-11.321-2.349c-3.325-1.68-7.293-2.627-11.035-2.826
	C221.828,372.283,213.962,372.573,206.112,372.573z M275.443,130.247c0.01-0.468,0.02-0.935,0.031-1.403
	c-3.205-0.703-6.386-1.806-9.621-1.997c-3.279-0.194-6.544-3.07-9.998-0.208c-0.458,0.379-2.32-0.225-2.975-0.908
	c-4.629-4.828-11.443-3.368-16.797-6.02c-7.9,1.655-14.723-2.42-21.728-4.668c-3.407-1.094-5.493,0.369-7.645,1.384
	c-1.512,0.714-1.629,3.971-3.079,5.341c-1.641,1.55-4.138,2.16-6.124,3.401c-0.528,0.33-0.545,1.476-0.797,2.247
	c0.95,0.286,2.282,1.122,2.789,0.77c3.297-2.29,6.092-2.153,9.112,0.628c1.071,0.986,3.029,1.243,4.62,1.376
	c2.608,0.216,5.249,0.119,7.873,0.042c2.855-0.084,6.754,0.813,8.341-0.685c3.222-3.041,4.523,0.902,6.841,0.848
	C249.333,130.089,262.39,130.247,275.443,130.247z M364.892,210.48c0.237-2.487,0.585-3.4,0.35-4.122
	c-1.422-4.37-1.813-9.9-4.763-12.753c-4.336-4.194,0.446-10.015-3.973-13.425c-0.167-4.485-1.629-8.91-4.038-12.275
	c-2.007-2.804-3.483-5.172-2.955-8.475c0.822-5.149-2.204-9.048-4.352-13.099c-1.083-2.042-2.963-4.673-6.436-2.141
	c-1.525,1.112-3.069-0.607-4.425-1.79c-0.965-0.841-2.402-1.28-3.699-1.54c-0.647-0.129-1.854,0.377-2.082,0.908
	c-0.251,0.582,0.103,1.728,0.589,2.278c4.173,4.714,4.163,4.694,4.599,9.363c0.1,1.068,0.215,2.429,0.882,3.099
	c3.23,3.246,3.614,8.25,6.358,11.315c3.325,3.714,5.423,7.623,6.807,12.191c0.151,0.5,0.715,0.86,1.015,1.331
	C354.477,190.294,359.754,199.486,364.892,210.48z M161.591,294.892c6.397-0.083,6.998-0.525,7.007-5.753
	c0.039-22.163,0.017-44.326,0.017-66.489c0-1.166,0.189-2.372-0.043-3.49c-0.371-1.784-3.741-3.376-5.64-2.875
	c-2.144,0.565-1.303,2.296-1.307,3.553c-0.052,14.289-0.033,28.579-0.033,42.868C161.591,273.434,161.591,284.163,161.591,294.892z
	 M118.034,235.353c2.724-4.601,4.426-7.918,6.532-10.955c7.621-10.996,13.208-23.182,20.307-34.481
	c0.497-0.791,0.383-1.966,0.552-2.962c-1.374-0.141-2.778-0.506-4.11-0.33c-0.689,0.091-1.321,1.089-1.856,1.773
	c-1.888,2.414-3.788,4.823-5.558,7.323c-1.78,2.515-5.451,3.545-5.677,7.269c-0.253,4.164-5.235,2.919-6.265,4.991
	c-1.749,3.516-4.986,5.462-6.914,8.518c-0.946,1.499-1.433,5.088-0.734,5.532C118.929,224.957,117.243,229.733,118.034,235.353z
	 M354.925,311.114c1.436,0,3.344,0.588,4.091-0.094c5.388-4.926,10.68-10.039,13.243-17.128c0.864-2.391,1.959-3.716,4.697-3.982
	c1.446-0.141,3.827-1.532,3.93-2.548c0.287-2.806,2.79-3.542,3.891-5.44c0.668-1.153,1.42-2.441,1.506-3.71
	c0.169-2.497,0.755-5.257-2.04-6.982c-2.695-1.663,2.839-4.461-0.797-6.084c-0.625-0.279-1.114-0.864-1.364-1.065
	C373.042,279.736,364.129,295.173,354.925,311.114z M144.125,311.603c0,3.594-0.422,5.672,0.101,7.477
	c0.74,2.556,3.538,5.251,3.03,7.279c-1.025,4.097,3.87,3.48,3.866,6.325c-0.001,0.86,1.226,1.747,1.175,2.578
	c-0.448,7.354,1.099,12.364,4.794,16.204c1.859,1.932,3.85,2.73,5.943,1.077c1.316-1.039,1.628-0.404,2.586,0.232
	c0.858,0.57,1.195,3.228,2.889,1.208c0.311-0.371-0.666-1.933-1.184-2.871c-2.227-4.033-4.434-8.08-6.778-12.044
	C155.428,330.409,150.229,321.798,144.125,311.603z M300.203,373.199c-14.865-1.392-43.735-1.021-48.787,0.637
	c3.86,0.759,7.64,2.055,11.432,2.09c3.604,0.033,7.206,4.459,10.877,0.2c0.158-0.183,1.189,0.061,1.51,0.396
	c3.782,3.941,8.677,4.617,13.765,4.983c2.105,0.152,7.875-2.174,7.62-3.866C296.143,374.463,298.895,374.608,300.203,373.199z
	 M101.887,185.14c-0.484-0.167-0.967-0.334-1.451-0.501c-0.687,1.478-1.821,2.91-1.974,4.441c-0.391,3.896,0.55,7.902-1.715,11.627
	c-0.446,0.734,0.639,2.541,1.247,3.736c0.622,1.223,1.65,1.576,2.418,0.107c0.622-1.189,1.369-2.5,1.408-3.776
	C101.98,195.567,101.887,190.352,101.887,185.14z M223.756,221.555c-12.311-0.322-21.678,4.6-28.924,14.734
	c-2.768,3.871-3.637,8.118-4.535,12.153c-2.353,10.572,0.105,20.571,7.088,28.998c5.11,6.167,11.589,9.645,19.78,11.54
	c8.495,1.965,16.203,1.043,23.65-1.974c13.762-5.575,20.382-16.468,20.904-31.239c0.132-3.721-0.786-7.132-1.667-10.696
	c-1.571-6.358-5.929-12.399-11.072-16.606c-6.747-5.52-14.176-7.511-21.827-6.908C225.508,221.558,224.632,221.578,223.756,221.555z
	 M329.929,254.61c5.704-1.431,11.91-3.749,13.454-11.692c0.808-4.153,1.091-7.637-0.97-11.104
	c-2.509-4.221-6.139-7.481-11.026-8.379c-3.389-0.623-7.005,0.108-10.484-0.186c-3.287-0.278-6.511-1.436-9.794-1.614
	c-5.241-0.284-10.6,0.525-15.735-0.266c-4.126-0.636-4.06,2.619-5.04,4.31c-1.112,1.917,1.029,4.657-0.451,7.108
	c-0.358,0.592,0.614,1.975,0.95,3.003c0.253,0.773,0.921,1.924,0.631,2.283c-3.573,4.423-0.957,9.514-1.621,14.229
	c-0.388,2.756,1.616,4.203,4.102,4.319c4.37,0.205,8.757,0.057,14.563,0.057C314.869,257.981,322.607,256.447,329.929,254.61z"/>
</svg>
