<?xml version="1.0" encoding="iso-8859-1"?>
<!-- Generator: Adobe Illustrator 19.0.0, SVG Export Plug-In . SVG Version: 6.00 Build 0)  -->
<svg version="1.1" id="Layer_1" xmlns="http://www.w3.org/2000/svg" xmlns:xlink="http://www.w3.org/1999/xlink" x="0px" y="0px"
	 viewBox="0 0 500 500" style="enable-background:new 0 0 500 500;" xml:space="preserve">
<path id="XMLID_4_" d="M467.286,250.359c-0.004,36.526-0.224,73.055,0.18,109.577c0.082,7.454-2.426,11.598-8.77,15.122
	c-66.284,36.821-132.493,73.778-198.559,110.989c-6.411,3.611-11.238,3.436-17.536-0.112
	c-65.353-36.821-130.804-73.471-196.416-109.829c-7.609-4.217-10.645-9.035-10.604-17.88c0.339-72.65,0.304-145.302,0.03-217.953
	c-0.031-8.191,2.388-13.074,9.75-17.148C111.002,86.8,176.488,50.191,241.868,13.396c6.681-3.76,11.804-4.148,18.748-0.227
	c65.669,37.079,131.504,73.868,197.471,110.416c6.888,3.816,9.492,8.043,9.397,15.994
	C467.043,176.5,467.289,213.431,467.286,250.359z M177.86,176.524c24.363-13.735,46.469-25.853,68.183-38.635
	c7.187-4.231,12.885-3.738,19.892,0.252c29.977,17.072,60.172,33.766,90.428,50.339c3.604,1.974,9.08,4.491,11.968,3.123
	c12.47-5.908,24.299-13.169,37.342-20.488c-2.714-2.259-3.76-3.447-5.064-4.168c-46.338-25.637-92.616-51.386-139.229-76.514
	c-3.471-1.871-10.127-0.629-14.019,1.506c-44.311,24.306-88.382,49.05-132.489,73.727c-5.747,3.215-11.338,6.708-18.68,11.071
	c28.514,16.076,55.099,31.065,82.392,46.453c-5.058,3.943-8.379,6.533-13.069,10.189c12.041,6.682,22.689,12.837,33.619,18.441
	c2.073,1.063,6.065,0.997,7.815-0.333c14.407-10.953,23.112,1.224,34.995,7.553c-6.362,4.301-11.45,7.741-17.478,11.817
	c9.384,5.347,18.005,9.664,25.971,14.965c7.937,5.282,14.951,5.81,22.998,0.175c3.172-2.221,8.977-4.217,11.815-2.793
	c15.854,7.957,31.167,16.993,48.574,26.729c-24.654,13.785-47.217,25.907-69.211,38.984c-7.006,4.165-11.933,3.241-18.437-0.437
	c-35.966-20.333-72.142-40.294-108.29-60.302c-14.912-8.254-29.935-16.307-47.972-26.119c0,14.163,0.559,25.262-0.199,36.27
	c-0.494,7.177,2.208,10.86,8.195,14.135c49.976,27.336,99.726,55.088,149.86,82.128c4.266,2.301,11.928,2.368,16.152,0.063
	c47.897-26.139,95.439-52.927,143.036-79.613c2.485-1.393,4.608-3.43,7.801-5.85c-30.837-17.334-60.23-33.856-90.93-51.113
	c6.627-4.372,10.826-7.143,17.015-11.227c-13.068-7.277-24.358-13.753-35.894-19.757c-1.514-0.788-4.831,0.185-6.398,1.463
	c-14.694,11.994-25.303,2.163-37.336-6.481c6.665-4.291,12.544-8.077,20.062-12.919c-8.93-5.099-16.877-8.824-23.897-13.845
	c-9.43-6.743-17.746-6.878-27.32-0.083c-3.518,2.497-10.259,3.813-13.917,2.141C203.819,191.737,192.22,184.519,177.86,176.524z"/>
</svg>
