<?xml version="1.0" encoding="utf-8"?>
<!-- Generator: Adobe Illustrator 25.1.0, SVG Export Plug-In . SVG Version: 6.00 Build 0)  -->
<svg version="1.1" id="Layer_2_1_" xmlns="http://www.w3.org/2000/svg" xmlns:xlink="http://www.w3.org/1999/xlink" x="0px" y="0px"
	 viewBox="0 0 500 500" style="enable-background:new 0 0 500 500;" xml:space="preserve">
<polygon points="185.3,177.6 91.2,125.2 185.3,72.7 "/>
<polygon points="170.4,276.4 76.4,223.9 170.4,171.5 "/>
<polygon points="94,378.2 0,325.7 94,273.3 "/>
<polygon points="55.6,122.8 149.6,175.2 55.6,227.7 "/>
<polygon points="102.6,247 196.6,299.5 102.6,351.9 "/>
<polygon points="192.9,115.1 286.9,167.6 192.9,220 "/>
<polygon points="172.5,317.1 266.6,369.6 172.5,422 "/>
<polygon points="310.7,364.2 404.7,416.6 310.7,469 "/>
<polygon points="402.8,82.4 308.8,30 214.7,82.4 308.8,134.8 308.8,239.7 214.7,292.1 308.8,344.5 402.8,396.9 496.8,344.5 
	496.8,239.7 496.8,134.8 "/>
<g>
	<polygon points="261.8,147.8 297.4,167.6 297.4,128 	"/>
	<polygon points="297.4,232.8 297.4,167.6 238.9,200.2 	"/>
</g>
<polygon points="254.8,357.2 277.1,369.6 218.2,402.4 289.9,442.5 289.9,337.6 "/>
</svg>
