<?xml version="1.0" encoding="iso-8859-1"?>
<!-- Generator: Adobe Illustrator 19.0.0, SVG Export Plug-In . SVG Version: 6.00 Build 0)  -->
<svg version="1.1" id="Layer_1" xmlns="http://www.w3.org/2000/svg" xmlns:xlink="http://www.w3.org/1999/xlink" x="0px" y="0px"
	 viewBox="0 0 500 500" style="enable-background:new 0 0 500 500;" xml:space="preserve">
<path d="M300.907,16.847c19.876,11.627,38.885,22.771,57.919,33.873c22.727,13.256,45.407,26.593,68.236,39.671
	c15.474,8.864,31.208,17.272,46.746,26.026c5.998,3.379,11.659,7.363,17.699,10.658c3.193,1.742,4.223,4.095,4.217,7.407
	c-0.122,69.589-0.229,139.177-0.337,208.766c-0.005,3.214-0.001,6.427-0.001,9.641c0.572,0.349,1.144,0.698,1.716,1.047
	c-32.808,18.96-65.615,37.92-98.756,57.074c-64.477-37.275-129.181-74.682-194.662-112.538c6.406-3.879,12.197-7.538,18.131-10.948
	c12.122-6.966,24.362-13.729,36.478-20.706c12.414-7.148,24.601-14.703,37.184-21.533c3.795-2.06,5.338-4.388,5.336-8.366
	c-0.018-34.901-0.011-69.801-0.011-106.013c-4.653-2.975-9.849-6.296-15.968-10.208c0,37.475,0,73.851,0,111.981
	c-19.068-10.742-36.962-20.823-55.281-31.144c-13.726,7.757-27.462,15.521-42.095,23.791c-0.278-2.65-0.644-4.568-0.653-6.488
	c-0.054-11.978-0.112-23.957,0.021-35.934c0.043-3.874-0.591-6.517-4.965-7.907c-3.039-0.966-5.538-3.63-9.63-6.475
	c0,37.904,0,74.266,0,110.301c-4.185,1.496-6.618,0.33-9.535-1.489c-8.044-5.018-16.651-9.128-24.757-14.054
	c-6.282-3.818-12.032-8.501-18.232-12.466c-4.656-2.978-9.707-5.331-14.485-8.129c-10.87-6.364-21.681-12.83-32.588-19.298
	c-7.394,4.083-14.822,8.184-22.862,12.624c0-36.419,0-71.427,0-107.493c6.966,3.7,13.565,6.989,19.954,10.644
	c11.581,6.625,23.008,13.518,34.554,20.206c11.555,6.694,23.306,13.062,34.691,20.032c3.447,2.111,6.752,2.277,9.686,0.804
	c6.533-3.279,12.708-7.276,18.995-11.037c0.67-0.401,1.114-1.181,2.069-2.233c-25.935-15.094-51.675-30.074-78.795-45.857
	c32.801-19.066,64.209-37.518,97.09-55.768c0,13.884,0.4,26.269-0.17,38.609c-0.282,6.086,2.188,9.256,7.04,12.003
	c14.845,8.406,29.548,17.061,44.298,25.634c3.417,1.986,6.221,2.208,10.075-0.19c9.073-5.646,18.756-10.304,28.102-15.523
	c2.223-1.241,4.092-3.114,6.831-5.247c-27.034-15.52-53.53-30.732-81.294-46.671C235.806,54.015,268.68,35.941,300.907,16.847z
	 M271.754,350.411c-8.269,4.785-16.491,9.65-24.701,14.535c-3.468,2.064-6.764,2.118-10.33,0.048
	c-4.135-2.4-8.577-4.273-12.711-6.676c-15.504-9.012-30.926-18.167-46.405-27.222c-4.4-2.574-8.89-4.993-13.713-7.691
	c-1.754,13.375-0.979,108.125,0.874,112.25c13.14-7.593,26.259-15.174,38.949-22.506c25.256,14.472,49.695,28.477,74.626,42.763
	c0-36.499,0-71.969,0-108.482C275.677,348.621,273.611,349.336,271.754,350.411z M393.625,430.18
	c0.86-0.496,1.199-1.897,1.907-3.087c-31.92-18.39-63.45-36.555-95.618-55.088c0,37.526,0,74.072,0,111.969
	C331.722,465.743,362.698,448.004,393.625,430.18z M3,324.29c32.188,18.738,62.857,36.604,93.571,54.391
	c0.727,0.421,1.964-0.041,3.303-0.108c0-36.249,0-72.308,0-110.028C67.145,287.378,35.625,305.516,3,324.29z"/>
</svg>
