<?xml version="1.0" encoding="utf-8"?>
<!-- Generator: Adobe Illustrator 24.2.0, SVG Export Plug-In . SVG Version: 6.00 Build 0)  -->
<svg version="1.1" id="Layer_2_1_" xmlns="http://www.w3.org/2000/svg" xmlns:xlink="http://www.w3.org/1999/xlink" x="0px" y="0px"
	 viewBox="0 0 500 500" style="enable-background:new 0 0 500 500;" xml:space="preserve">
<style type="text/css">
	.st0{opacity:0.7;}
</style>
<polygon class="st0" points="188.7,174 90,119 188.7,63.9 "/>
<polygon points="173.1,277.7 74.4,222.6 173.1,167.6 "/>
<polygon class="st0" points="101.9,375.6 3.2,320.5 101.9,265.5 "/>
<polygon class="st0" points="279.6,452.1 180.9,397 279.6,342 "/>
<polygon class="st0" points="287.4,232 188.7,176.9 287.4,121.9 "/>
<polygon class="st0" points="52.6,124.5 151.3,179.5 52.6,234.6 "/>
<polygon class="st0" points="101.9,237.9 200.6,293 101.9,348 "/>
<polygon points="188.7,108.4 287.4,163.5 188.7,218.5 "/>
<polygon points="167.3,320.5 266.1,375.6 167.3,430.6 "/>
<polygon points="301.4,369.9 400.1,424.9 301.4,480 "/>
<polygon points="398.1,74.1 299.4,19 200.6,74.1 299.4,129.1 299.4,239.2 200.6,294.2 299.4,349.2 398.1,404.3 496.8,349.2 
	496.8,239.2 496.8,129.1 "/>
</svg>
