<?xml version="1.0" encoding="iso-8859-1"?>
<!-- Generator: Adobe Illustrator 19.0.0, SVG Export Plug-In . SVG Version: 6.00 Build 0)  -->
<svg version="1.1" id="Layer_1" xmlns="http://www.w3.org/2000/svg" xmlns:xlink="http://www.w3.org/1999/xlink" x="0px" y="0px"
	 viewBox="0 0 500 500" enable-background="new 0 0 500 500" xml:space="preserve">
<path d="M275.018,259.924c5.134-0.001,10.273,0.142,15.402-0.029c14.105-0.47,24.413,5.247,31.716,17.548
	c11.738,19.772,29.85,27.182,52.212,24.644c18.575-2.108,35.448-17.812,40.838-37.348c6.303-22.847-5.191-47.385-27.441-58.581
	c-21.042-10.588-46.907-4.926-61.346,13.533c-2.757,3.524-4.444,8.291-7.861,10.805c-6.448,4.745-13.465,10.809-20.838,11.768
	c-14.837,1.931-30.089,1.29-45.138,0.78c-11.47-0.389-15.888-8.553-12.435-21.71c5.124-19.527,14.229-37.148,27.988-51.884
	c34.608-37.065,77.821-50.374,126.646-39.793c47.923,10.385,80.912,39.997,95.572,87.605
	c21.853,70.967-26.102,145.864-102.358,157.761c-63.994,9.984-120.908-22.548-143.347-79.591
	c-2.206-5.607-3.998-11.508-4.972-17.439c-1.859-11.327,3.77-17.767,15.146-18.04C261.538,259.793,268.279,259.925,275.018,259.924z
	 M92.484,132.683C37.637,150.441,1.545,200.861,4.13,256.108c2.68,57.262,42.73,104.505,98.776,117.481
	c57.651,13.349,113.429-14.693,134.298-48.407c-5.802-17.914-11.645-34.379-16.389-51.155c-3.164-11.189-9.532-15.982-20.857-13.532
	c-11.523,2.492-18.362,10.287-24.615,19.733c-15.287,23.092-45.774,29.179-68.583,14.384c-24.46-15.866-31.779-45.643-17.112-69.623
	c20.301-33.193,66.855-32.813,87.701,1.097c7.312,11.894,16.927,18.724,30.686,16.432c4.511-0.751,10.329-5.692,11.886-10.031
	c6.299-17.559,11.169-35.63,17.103-55.288C209.198,135.437,146.325,115.25,92.484,132.683z"/>
</svg>
