<?xml version="1.0" encoding="iso-8859-1"?>
<!-- Generator: Adobe Illustrator 19.0.0, SVG Export Plug-In . SVG Version: 6.00 Build 0)  -->
<svg version="1.1" id="Layer_1" xmlns="http://www.w3.org/2000/svg" xmlns:xlink="http://www.w3.org/1999/xlink" x="0px" y="0px"
	 viewBox="0 0 2000 2000" style="enable-background:new 0 0 2000 2000;" xml:space="preserve">
<path d="M16.08,1000.18C9.725,479.512,439.451,14.23,1002.425,15.979c544.608,1.691,991.492,433.883,984.317,998.452
	c-6.799,534.882-434.415,973.373-994.799,970.622C454.454,1982.414,12.726,1548.523,16.08,1000.18z M989.054,267.232
	c-58.11,22.506-125.733,41.941-187.056,73.585c-306.229,158.027-458.3,477.366-389.78,807.787
	c57.819,278.82,234.298,463.725,503.142,558.009c32.213,11.298,69.808,21.863,101.969,16.169
	c141.009-24.965,262.67-93.305,362.373-193.897c192.338-194.053,261.755-429.256,203.71-696.002
	c-36.167-166.206-125.956-302.727-259.837-410.953C1228.141,344.783,1120.251,298.321,989.054,267.232z M1250.661,164.534
	c-0.446-3.694-0.892-7.387-1.339-11.081c-13.633-3.875-27.107-8.472-40.925-11.508c-89.289-19.622-179.039-25.674-270.852-21.018
	c-127.533,6.467-247.171,39.562-356.784,101.299C318.064,370.184,163.212,593.064,121.868,894.78
	c-15.847,115.648-5.444,227.022,29.847,336.094c48.308,149.304,137.69,270.955,263.997,364.296
	c81.833,60.474,171.703,104.417,281.366,128.018c-378.617-253.587-461.089-656.023-362.31-975.527
	c51.719-167.288,148.711-304.583,287.398-412.37C807.413,191.318,1018.367,140.23,1250.661,164.534z M752.075,1843.859
	c128.011,40.237,257.065,46.089,388.924,25.691c187.238-28.964,346.549-111.584,481.196-242.627
	c128.922-125.471,212.456-278.736,244.12-454.419c16.796-93.189,21.131-192.672,8.493-286.263
	c-25.22-186.766-119.901-340.23-265.398-460.893c-86.881-72.052-185.44-120.721-303.219-148.73
	c353.622,264.94,495.483,604.788,341.994,1017.296C1498.228,1696.934,1176.017,1864.12,752.075,1843.859z M947.024,1206.421
	c-10.319,7.216-19.866,13.459-28.951,20.314c-67.732,51.104-81.35,145.521-29.61,204.497
	c59.286,67.577,151.521,75.434,210.841,16.135c59.79-59.769,65.355-157.41-8.532-213.08c-37.629-28.351-44.13-57.297-42.203-98.29
	c2.608-55.462,0.654-111.139,0.655-166.723c0.001-56.941,0-113.882,0-167.542c94.46-80.15,111.987-123.981,82.193-199.252
	c-22.937-57.947-78.495-91.882-143.786-87.825c-54.091,3.361-113.159,48.093-123.271,101.624
	c-14.601,77.293-5.343,120.243,82.663,177.012C947.024,932.379,947.024,1069.576,947.024,1206.421z"/>
</svg>
