<?xml version="1.0" encoding="iso-8859-1"?>
<!-- Generator: Adobe Illustrator 19.0.0, SVG Export Plug-In . SVG Version: 6.00 Build 0)  -->
<svg version="1.1" id="Layer_1" xmlns="http://www.w3.org/2000/svg" xmlns:xlink="http://www.w3.org/1999/xlink" x="0px" y="0px"
	 viewBox="0 0 2000 2000" style="enable-background:new 0 0 2000 2000;" xml:space="preserve">
<path d="M15.831,997.784c1.461-545.906,442.452-981.922,989.571-981.487c530.938,0.422,993.433,436.821,980.116,1008.727
	c-12.295,527.991-441.399,961.086-990.12,960.398C452.782,1984.742,14.378,1540.871,15.831,997.784z M722.658,1234.818
	c9.14,8.52,15.692,16.716,24.055,22.097c80.337,51.69,216.377,38.967,286.56-26.339c76.952-71.604,68.374-182.852-18.818-240.833
	c-28.952-19.253-58.62-37.426-87.635-56.585c-32.985-21.78-44.62-53.34-35.791-90.817c9.046-38.394,34.822-67.09,73.484-69.451
	c36.73-2.243,74.413,7.893,111.362,14.377c11.512,2.02,21.999,9.877,32.615,14.901c26.787-47.007,22.613-66.857-23.003-78.941
	c-38.455-10.187-79.965-15.186-119.625-13.082C895.515,713.877,831.6,771.25,815.69,836.408
	c-15.893,65.088,9.731,119.851,77.304,163.936c20.389,13.302,41.844,24.976,62.153,38.391
	c31.279,20.662,57.063,45.862,52.186,87.495c-5.381,45.934-31.856,76.823-75.28,91.138
	c-51.118,16.851-100.709,10.019-147.864-15.501c-12.912-6.988-25.802-14.016-43.735-23.761
	C733.695,1199.641,728.424,1216.441,722.658,1234.818z M1467.309,1217.575c-76.65,0-144.783,0-216.269,0
	c33.397-167.859,66.057-332.019,99.621-500.716c-25.333,0-47.381,0-72.28,0c-36.963,185.121-73.348,367.348-109.398,547.9
	c23.607,18.173,202.774,24.898,285.038,11.88C1457.693,1260.32,1461.807,1242.031,1467.309,1217.575z M647.364,715.907
	c-37.754,189.131-74.58,373.618-112.238,562.268c25.815,0,47.723,0,72.356,0c37.48-187.98,74.414-373.225,112.106-562.268
	C692.55,715.907,672.297,715.907,647.364,715.907z"/>
</svg>
