<?xml version="1.0" encoding="iso-8859-1"?>
<!-- Generator: Adobe Illustrator 19.0.0, SVG Export Plug-In . SVG Version: 6.00 Build 0)  -->
<svg version="1.1" id="Layer_1" xmlns="http://www.w3.org/2000/svg" xmlns:xlink="http://www.w3.org/1999/xlink" x="0px" y="0px"
	 viewBox="0 0 500 500" style="enable-background:new 0 0 500 500;" xml:space="preserve">
<path d="M66.187,378.166c-6.991,1.057-13.475-0.062-19.473-4.172c-9.708-6.653-11.62-21.744-3.649-30.385
	c1.634-1.771,3.345-3.494,5.181-5.051c5.31-4.502,7.083-10.215,7.065-17.078c-0.132-48.277-0.092-96.554-0.047-144.832
	c0.006-6.756-1.849-11.738-7.809-16.279c-10.33-7.871-11.47-18.765-6.801-27.645c4.286-8.152,15.499-13.82,24.12-11.337
	c7.788,2.243,14.11,1.376,21.443-2.957c23.348-13.798,47.458-26.299,71.08-39.643c16.596-9.375,32.877-19.306,49.294-28.997
	c0.342-0.202,0.582-0.609,0.937-0.751c12.038-4.838,20.398-12.029,23.574-25.934C233.52,12.5,243.683,8.356,256.226,9.08
	c9.573,0.553,21.462,8.829,22.64,18.568c1.219,10.086,7.34,14.189,14.78,18.375c18.775,10.563,37.405,21.385,56.175,31.957
	c15.271,8.602,30.706,16.91,45.978,25.509c9.044,5.092,17.927,10.471,26.856,15.767c5.379,3.19,10.58,4.541,17.027,2.146
	c6.512-2.419,18.819,2.594,22.125,8.577c3.993,7.224,6.936,15.962,0.671,22.485c-9.231,9.612-8.855,20.685-8.821,32.345
	c0.135,46.668,0.122,93.336-0.014,140.004c-0.02,7.02,0.638,12.951,6.525,18.235c6.53,5.86,7.511,13.958,3.607,22.087
	c-3.725,7.758-9.696,13.614-18.581,12.771c-12.598-1.194-22.277,4.388-32.29,10.474c-13.281,8.072-26.921,15.552-40.41,23.282
	c-25.98,14.888-51.957,29.78-77.948,44.649c-2.436,1.394-4.989,2.582-7.432,3.964c-5.222,2.953-9.819,6.187-11.557,12.692
	c-0.866,3.241-3.582,6.23-6.048,8.761c-11.226,11.522-28.485,10.101-34.912-4.5c-5.192-11.797-14.495-17.613-24.151-23.588
	c-14.925-9.235-29.956-18.427-45.594-26.349c-19.585-9.922-38.533-20.919-57.642-31.661c-6.954-3.909-14.109-7.547-20.676-12.034
	C80.25,379.303,73.837,376.83,66.187,378.166z M166.49,156.301c0.007,0,0.013,0,0.02,0c0,18.901,0.642,37.834-0.268,56.691
	c-0.462,9.576,3.881,15.183,10.789,19.76c4.29,2.843,9.176,4.804,13.852,7.043c3.499,1.676,6.72,1.449,10.096-0.945
	c3.889-2.758,8.127-5.074,12.382-7.253c8.712-4.461,16.408-9.718,18.548-20.198c0.232-1.138,1.017-2.17,1.585-3.231
	c6.681-12.468,18.937-16.11,31.475-9.979c7.334,3.586,10.366,9.958,11.796,16.999c0.9,4.432,2.458,7.061,6.405,9.203
	c6.632,3.6,13.076,7.617,19.269,11.933c7.962,5.55,15.304,5.84,22.772-0.818c2.039-1.818,4.713-3.022,7.251-4.164
	c5.816-2.618,7.976-6.848,8.041-13.306c0.153-15.182,0.545-30.345,1.511-45.546c1.603-25.235,0.466-50.644,0.457-75.98
	c-0.002-5.19-1.992-9.022-6.892-11.572c-4.944-2.572-9.465-5.946-14.236-8.863c-12.246-7.488-24.578-14.834-36.77-22.409
	c-5.086-3.16-9.848-4.468-15.462-0.999c-10.082,6.232-20.428,6.48-30.413-0.278c-4.296-2.907-8.06-2.355-12.211,0.107
	c-17.848,10.589-35.753,21.082-53.651,31.585c-5.062,2.97-6.54,7.315-6.456,13.104C166.667,116.887,166.49,136.595,166.49,156.301z
	 M340.625,329.664c-0.074,0-0.147,0-0.221,0c0-12.061,0.017-24.121-0.004-36.182c-0.037-22.237-0.165-22.013-19.999-32.518
	c-6.13-3.247-10.588-3.814-15.926,1.485c-3.278,3.255-8.291,4.732-12.45,7.136c-8.003,4.626-14.619,9.693-17.27,19.861
	c-3.603,13.822-20.502,18.803-32.85,11.431c-5.976-3.568-9.514-8.305-10.725-15.035c-1.055-5.866-4.713-9.707-9.722-12.676
	c-6.869-4.071-13.556-8.449-20.34-12.663c-4.359-2.708-8.611-3.684-13.31-0.289c-3.861,2.789-8.214,4.889-12.289,7.392
	c-6.193,3.805-9.301,8.682-9.21,16.67c0.441,38.591,0.382,77.192,0.026,115.785c-0.067,7.261,2,12.465,8.05,16.082
	c17.76,10.62,35.554,21.184,53.361,31.725c4.642,2.747,9.029,3.223,14.73,1.557c6.042-1.766,12.477-5.795,19.522-1.442
	c8.75,5.407,16.83,1.243,24.49-3.124c5.531-3.153,10.678-6.97,16.103-10.317c10.832-6.684,21.78-13.184,32.575-19.927
	c1.913-1.195,4.46-3.02,4.755-4.867c1.187-7.432,1.95-14.977,2.18-22.502c0.144-4.701-1.338-9.433-1.404-14.161
	C340.496,358.613,340.625,344.137,340.625,329.664z M154.253,94.864c-25.194,11.164-46.346,24.652-67.89,37.396
	c-2.028,1.2-4.285,4.273-4.204,6.391c0.375,9.872-4.259,16.909-11.53,22.597c-4.168,3.26-5.678,7.092-5.659,12.426
	c0.177,51.025,0.148,102.051,0.04,153.076c-0.011,5.171,0.916,8.655,6.075,11.624c6.782,3.903,11.647,10.475,10.586,18.889
	c-0.998,7.914,2.933,11.525,9.039,14.931c14.628,8.159,28.843,17.068,43.56,25.056c5.769,3.131,11.305,7.494,19.494,7.842
	c0.177-4.231,0.477-8.097,0.48-11.964c0.03-36.562,0.008-73.123,0.004-109.685c0-2.812-0.128-5.635,0.06-8.435
	c0.364-5.403,2.229-9.731,7.37-12.719c5.988-3.481,11.478-7.818,18.409-12.635c-5.233-3.464-8.922-6.527-13.113-8.554
	c-9.319-4.506-13.145-11.058-12.96-21.867c0.631-36.953,0.241-73.923,0.241-110.886C154.253,104.422,154.253,100.497,154.253,94.864
	z M441.744,250.712c0.014,0,0.028,0,0.042,0c0-25.337-0.134-50.675,0.095-76.01c0.057-6.271-1.715-10.621-7.46-13.72
	c-7.982-4.305-13.014-11.176-11.974-20.509c0.679-6.097-2.487-8.849-6.659-11.312c-16.131-9.52-32.334-18.919-48.542-28.307
	c-2.761-1.599-5.647-2.992-8.529-4.368c-2.903-1.386-4.961,0.379-5.577,2.703c-0.8,3.021-0.77,6.312-0.773,9.488
	c-0.044,38.609-0.153,77.219,0.087,115.826c0.043,6.863-2.034,11.41-8.371,14.328c-3.955,1.821-7.589,4.412-11.186,6.916
	c-3.26,2.269-3.394,5.404-0.179,7.736c3.541,2.568,7.247,5.083,11.229,6.827c6.963,3.05,8.593,8.102,8.536,15.34
	c-0.309,38.606-0.146,77.217-0.143,115.825c0,3.217-0.132,6.445,0.085,9.649c0.232,3.435,2.496,4.74,5.859,3.54
	c1.119-0.399,2.088-1.203,3.182-1.695c19.677-8.849,37.689-20.651,56.247-31.497c4.217-2.464,5.219-5.497,4.716-9.908
	c-1.218-10.669,2.43-18.78,12.509-23.632c5.039-2.426,7.062-6.374,6.968-12.419C441.519,300.586,441.744,275.647,441.744,250.712z
	 M271.035,265.201c1.808-0.273,3.647-0.065,4.906-0.822c6.773-4.074,13.488-8.264,19.957-12.793
	c0.725-0.508,0.437-4.406-0.513-5.043c-5.588-3.743-11.509-6.989-17.323-10.393c-3.588-2.101-6.953-2.307-10.905-0.233
	c-7.842,4.116-16.392,4.144-24.223,0.605c-5.347-2.416-9.513-2.683-14.231,0.68c-2.243,1.598-5.062,2.361-7.458,3.776
	c-12.416,7.333-11.853,8.601,0.121,17.012c8.651,6.077,16.643,7.78,26.281,3.819c6.136-2.522,12.258-2.86,17.949,1.775
	C266.99,264.718,269.304,264.722,271.035,265.201z"/>
</svg>
