<?xml version="1.0" encoding="iso-8859-1"?>
<!-- Generator: Adobe Illustrator 19.0.0, SVG Export Plug-In . SVG Version: 6.00 Build 0)  -->
<svg version="1.1" id="Layer_1" xmlns="http://www.w3.org/2000/svg" xmlns:xlink="http://www.w3.org/1999/xlink" x="0px" y="0px"
	 viewBox="0 0 2000 2000" style="enable-background:new 0 0 2000 2000;" xml:space="preserve">
<path d="M1663.92,489.286c49.236-0.623,96.753,11.799,144.603,20.49c41.626,7.561,82.403,19.794,125.569,30.46
	c-0.49,7.331,0.09,14.306-1.545,20.716c-19.732,77.366-39.645,154.687-59.924,231.911c-3.071,11.694-8.241,22.837-11.964,32.941
	c82.096,299.418,31.727,571.775-160.399,823.194c3.29,87.844,6.796,181.492,10.434,278.621
	c-23.155,6.34-46.982,14.361-71.436,19.238c-46.717,9.318-93.549,18.766-140.766,24.718
	c-99.611,12.557-199.818,15.837-300.157,12.709c-18.22-0.568-36.663-3.117-54.421-7.248c-29.505-6.863-58.162-3.568-87.886-0.635
	c-57.709,5.694-115.553,14.826-174.055,3.371c-34.877-6.829-71.027-7.156-105.901-13.995
	c-132.602-26.001-252.716-79.929-360.807-161.699c-46.824-35.422-89.607-74.921-128.594-118.121
	c-54.12-59.969-98.309-127.243-134.27-199.817c-34.412-69.447-57.848-142.647-74.208-218.071
	c-13.913-64.143-14.981-129.472-14.442-194.913c1.223-148.637,41.943-286.71,113.682-415.502
	c44.949-80.696,102.315-152.995,171.194-214.864c80.094-71.942,169.114-130.552,270.225-169.444c2.75-1.058,5.029-3.34,9.235-6.221
	C643.441,180.819,659.011,93.298,674.72,5c108.661,0,215.747,0,325.296,0c-11.634,67.39-22.935,132.854-34.73,201.177
	c276.775-10.256,509.999,83.881,699.659,284.06c-14.519-0.47-29.039-0.941-43.558-1.411c-5.453-1.831-10.897-5.222-16.36-5.255
	c-61.253-0.366-122.513,0.127-183.762-0.475c-13.129-0.129-23.06,5.73-33.566,11.513c-7.625-11.366-19.394-6.061-27.838-4.304
	c-43.686,9.088-87.876,17.244-130.247,30.844c-83.442,26.783-153.516,73.731-207.304,144.634
	c-37.011,48.789-61.032,103.258-77.661,161.179c-10.795,37.601-17.575,76.355-27.573,120.914
	c9.352-8.04,13.279-11.087,16.832-14.521c44.123-42.644,88.113-85.426,132.292-128.012
	c70.727-68.176,141.525-136.278,212.395-204.305c17.614-16.908,35.619-33.409,53.444-50.097
	c-9.675,12.648-18.202,26.408-29.204,37.771c-96.836,100.016-194.29,199.433-291.165,299.412
	c-34.858,35.975-68.635,72.997-102.916,109.553c-8.789,68.173-26.316,134.472-33.134,207.657
	c35.018-32.754,65.871-60.993,96.035-89.95c73.057-70.134,146.003-140.385,218.606-210.988
	c96.816-94.149,193.187-188.756,290.027-282.88c7.106-6.907,16.452-11.509,24.756-17.183c-8.077,11.372-14.855,24.004-24.449,33.906
	c-49.74,51.338-100.214,101.965-150.37,152.901c-2.764,2.807-4.971,6.162-7.438,9.263c46.439-23.17,94.258-30.398,143.691-28.741
	c49.951,1.674,99.96,3.35,149.756,7.354c40.42,3.25,80.682,9.17,120.793,15.348c36.733,5.657,73.169,13.245,112.879,20.56
	c-2.132-8.821-3.178-15.35-5.281-21.518c-29.097-85.307-72.736-162.815-126.717-234.671
	C1700.297,535.295,1681.937,512.42,1663.92,489.286z M1679.51,1657.225c-22.867,3.617-45.68,7.615-68.61,10.774
	c-52.479,7.23-104.838,17.434-157.571,20.163c-63.132,3.267-126.455,9.36-189.995,1.728c-21.647-2.6-41.926-7.905-61.422-16.172
	c-25.438-10.787-44.896-29.761-53.367-55.953c-6.805-21.04-12.144-43.968-11.222-65.766c1.454-34.379,8.207-68.592,13.63-102.73
	c6.535-41.134,13.787-82.158,21.161-123.152c9.343-51.941,19.347-103.764,28.638-155.714c7.158-40.019,13.323-80.217,20.543-120.224
	c6.839-37.895,13.298-75.925,22.166-113.365c6.151-25.969,16.105-51.037,25.88-81.199
	c-139.045,144.061-274.736,284.647-408.95,423.702c-7.152,37.162-14.384,72.008-20.48,107.052
	c-9.397,54.016-16.843,108.396-27.31,162.195c-9.472,48.685-12.577,97.407-2.724,145.796
	c21.179,104.01,78.026,181.682,174.043,229.907c37.533,18.851,76.776,31.666,112.78,40.05
	c116.374-11.698,222.773-42.032,322.731-94.438C1520.222,1817.035,1609.233,1749.883,1679.51,1657.225z M436.859,1411.793
	c125.82-121.253,251.64-242.506,376.867-363.189c49.005-278.936,97.752-556.402,147.155-837.606
	c-120.713,7.881-231.074,37.362-335.496,90.052c-21.867,124.74-43.355,247.729-65.003,370.691
	c-21.656,123.004-44.047,245.882-65.057,368.996C474.347,1163.668,450.916,1286.21,436.859,1411.793z M463.224,1456.893
	c1.413,2.114,2.827,4.227,4.24,6.341c47.661,0,95.321,0,144.058,0c48.233-47.287,96.755-94.105,144.138-142.047
	c7.955-8.049,12.969-20.463,15.846-31.751c4.985-19.559,7.206-39.819,10.639-59.776c6.663-38.735,13.363-77.464,20.047-116.195
	c-1.345-0.907-2.69-1.814-4.035-2.721C686.513,1226.127,574.869,1341.51,463.224,1456.893z M682.195,1463.404
	c23.154,0,40.011,0,57.678,0c4.528-22.985,8.832-44.833,13.362-67.825C729.881,1417.876,708.55,1438.242,682.195,1463.404z"/>
</svg>
