<?xml version="1.0" encoding="iso-8859-1"?>
<!-- Generator: Adobe Illustrator 19.0.0, SVG Export Plug-In . SVG Version: 6.00 Build 0)  -->
<svg version="1.1" id="Layer_1" xmlns="http://www.w3.org/2000/svg" xmlns:xlink="http://www.w3.org/1999/xlink" x="0px" y="0px"
	 viewBox="0 0 2000 2000" style="enable-background:new 0 0 2000 2000;" xml:space="preserve">
<path d="M348.267,331.531c95.62,59.972,184.861,115.943,274.751,172.322c0,328.913,0,655.949,0,991.863
	c-86.368,56.637-177.278,116.253-274.751,180.172C348.267,1224.843,348.267,782.707,348.267,331.531z M1653.684,332.989
	c-93.718,60.309-180.422,116.106-264.778,170.39c0,333.25,0,660.089,0,994.881c85.064,55.516,172.762,112.751,264.778,172.804
	C1653.684,1222.536,1653.684,782.308,1653.684,332.989z M1267.784,721.797c0-53.205,0-99.663,0-147.828
	c-88.988-42.921-177.206-85.471-265.923-128.262c-91.252,44.181-181.158,87.71-268.305,129.904c0,51.438,0,97.298,0,147.171
	c61.716-25.094,119.638-48.645,179.668-73.053c0,244.632,0,482.204,0,725.296c-62.94-25.898-120.097-49.417-180.927-74.446
	c0,53.961,0,98.506,0,144.595c90.224,40.706,179.718,81.082,270.252,121.928c89.642-40.847,178.361-81.274,264.685-120.609
	c0-50.985,0-95.316,0-145.257c-57.276,24.539-110.864,47.5-168.896,72.363c0-244.905,0-480.866,0-724.139
	C1157.417,674.681,1211.128,697.61,1267.784,721.797z M1653.972,310.475c-217.163-99.503-425.649-195.029-639.533-293.029
	c0,105.902,0,204.227,0,304.296c120.511,53.731,241.651,107.743,367.298,163.764
	C1468.024,430.029,1556.276,373.288,1653.972,310.475z M1013.25,1680.593c0,102.79,0,198.046,0,301.255
	c213.317-96.359,422.1-190.669,639.064-288.676c-95.876-62.474-181.324-118.153-269.938-175.895
	C1256.294,1573.06,1133.448,1627.412,1013.25,1680.593z M985.182,319.719c0-101.019,0-197.359,0-300.227
	C773.341,116.774,566.34,211.833,352.185,310.178c96.095,59.845,185.773,115.693,277.741,172.968
	C753.414,426.338,870.329,372.554,985.182,319.719z M629.691,1516.329c-90.27,58.382-178.428,115.398-274.764,177.703
	c213.91,96.582,419.428,189.375,630.219,284.549c0-102.055,0-196.494,0-299.621C866.69,1624.763,748.298,1570.596,629.691,1516.329z
	"/>
</svg>
