<?xml version="1.0" encoding="iso-8859-1"?>
<!-- Generator: Adobe Illustrator 19.0.0, SVG Export Plug-In . SVG Version: 6.00 Build 0)  -->
<svg version="1.1" id="Layer_1" xmlns="http://www.w3.org/2000/svg" xmlns:xlink="http://www.w3.org/1999/xlink" x="0px" y="0px"
	 viewBox="0 0 500 500" style="enable-background:new 0 0 500 500;" xml:space="preserve">
<path d="M250.481,422.293c-23.368-0.787-36.189-26.204-23.344-46.582c2.3-3.648,5.702-6.582,8.376-10.017
	c9.627-12.364,9.417-19.513-0.748-31.386c-17.61-20.569-17.67-32.499-0.261-51.756c11.251-12.445,11.414-19.821-1.266-34.006
	c-7.978-8.925-12.845-17.883-10.273-30.31c2.559-12.369,9.432-20.187,21.588-22.805c11.885-2.56,22.176,0.565,30.177,10.26
	c8.145,9.869,8.538,20.575,2.984,31.422c-2.504,4.89-6.752,8.878-10.152,13.318c-8.969,11.713-8.783,20.799,0.604,31.938
	c18.195,21.592,18.219,30.372,0.143,51.616c-9.372,11.015-9.685,20.519-1.059,31.828c3.389,4.444,7.37,8.567,10.031,13.413
	C288.126,398.973,273.005,423.051,250.481,422.293z M95.027,280.636c-19.444,8.635-23.359,29.531-9.271,48.437
	c15.978,21.442,15.977,21.442-0.53,43.311c-0.752,0.996-1.511,1.991-2.198,3.032c-9.526,14.418-7.683,29.007,5.059,40.154
	c9.951,8.705,28.58,9.428,38.121,1.48c12.238-10.195,14.608-28.702,5.537-42.358c-5.357-8.063-14.596-16.207-14.666-24.378
	c-0.071-8.241,9.197-16.469,14.082-24.871c5.95-10.233,8.256-21.03,2.262-32.01c-5.478-10.034-14.334-15.167-27.815-15.849
	C103.308,278.227,98.932,278.901,95.027,280.636z M198.729,370.145c15.282-11.053,16.425-30.908,3.332-46.15
	c-14.849-17.286-14.986-22.582-1.01-40.098c1.562-1.957,3.351-3.757,4.727-5.834c8.753-13.213,6.88-28.55-4.652-38.861
	c-11.705-10.465-26.574-10.399-38.997,0.173c-11.344,9.655-13.724,26.346-5.208,38.979c2.42,3.591,6.033,6.353,8.751,9.772
	c8.778,11.042,8.639,21.244-0.401,32.132c-2.384,2.871-5.738,5.051-7.686,8.151c-5.965,9.494-8.018,19.8-2.954,30.275
	c5.324,11.012,14.193,17.237,31.248,17.123C187.663,375.052,193.931,373.615,198.729,370.145z M59.886,365.053
	c5.575-10.893,4.327-21.814-3.487-31.592c-2.341-2.93-5.056-5.576-7.26-8.599c-8.018-10.997-8.165-17.644-0.555-28.923
	c3.118-4.621,7.044-8.726,9.899-13.488c7.457-12.437,5.77-26.124-3.998-36.133c-10.122-10.372-23.48-12.303-35.96-5.2
	c-11.836,6.736-17.689,19.804-13.119,33.497c2.462,7.376,7.642,13.948,12.12,20.526c8.946,13.141,8.968,19.91-0.897,31.75
	c-1.988,2.386-4.575,4.264-6.672,6.57c-8.885,9.771-7.241,21.256-3.204,31.825c4.161,10.893,13.365,16.205,25.719,15.048
	C44.995,381.684,54.315,375.94,59.886,365.053z M294.962,247.828c-5.588,11.165-4.553,21.754,3.427,31.465
	c2.776,3.378,6.078,6.35,8.652,9.865c8.402,11.476,8.102,19.629-0.906,30.295c-2.009,2.379-4.55,4.318-6.5,6.738
	c-10.82,13.429-10.516,30.083,0.62,40.652c12.404,11.772,29.972,11.863,42.264,0.218c11.365-10.767,11.905-27.068,1.346-40.666
	c-17.553-22.606-17.551-22.604-0.305-45.389c0.753-0.995,1.273-2.176,2.079-3.119c8.016-9.37,7.458-19.755,2.456-29.865
	c-5.073-10.252-13.628-16.095-25.595-15.763C309.246,231.914,300.503,236.756,294.962,247.828z M277.457,137.519
	c-2.801-6.075-6.865-11.628-10.776-17.117c-7.086-9.947-7.161-19.297,0.045-29.021c4.033-5.442,8.642-10.652,11.601-16.652
	c6.042-12.253,0.895-28.753-10.475-36.37c-11.568-7.75-25.697-6.551-35.952,3.052c-12.415,11.626-13.249,27.103-2.243,41.651
	c17.123,22.634,17.122,22.634,0.383,44.347c-1.143,1.483-2.533,2.845-3.359,4.49c-5.349,10.65-6.531,21.946-0.27,32.128
	c5.39,8.766,14.121,13.951,26.711,13.313C273.394,177.119,286.523,157.18,277.457,137.519z M493.657,366.273
	c4.843-11.53,3.622-22.986-4.433-33.523c-16.826-22.01-16.656-22.134,0.552-45.292c1.11-1.494,2.25-2.996,3.128-4.628
	c6.523-12.123,3.515-29.814-6.37-37.811c-9.868-7.984-28.362-7.889-38.543,0.198c-10.565,8.392-13.38,24.386-6.107,37.273
	c2.73,4.837,6.37,9.184,9.793,13.602c8.747,11.29,9.044,19.06,0.564,30.022c-2.653,3.43-6.387,6.065-8.824,9.614
	c-6.952,10.123-7.055,20.349-1.654,31.723c5.56,11.707,15.496,13.232,25.552,14.736
	C479.171,381.143,489.133,377.045,493.657,366.273z M366.244,308.152c1.44,9.132,7.059,18.115,12.492,25.994
	c8.963,12.996,9.516,19.459-0.231,31.759c-3.43,4.329-7.348,8.423-9.969,13.212c-7.065,12.91-3.937,27.189,7.397,36.642
	c10.662,8.892,26.083,8.371,37.661-1.274c10.829-9.021,15.634-26.751,5.635-36.717c-20.247-20.181-15.816-35.838,0.104-56.394
	c13.836-17.866-2.653-43.621-25.185-43.467C377.261,278.023,363.609,291.444,366.244,308.152z M322.279,400.775
	c-17.489-0.291-31.142,13.266-30.848,30.629c0.278,16.386,13.722,29.442,30.297,29.422c15.729-0.019,29.836-14.064,29.963-29.834
	C351.823,414.703,338.528,401.045,322.279,400.775z M181.616,206.636c16.441,0.632,29.445-13.135,29.756-31.5
	c0.252-14.931-13.082-28.525-28.528-29.084c-15.655-0.567-30.056,13.027-30.555,28.843
	C151.71,193.232,163.449,205.938,181.616,206.636z M291.344,178.031c0.606,15.87,14.885,28.881,31.067,28.309
	c15.781-0.558,28.482-14.355,28.323-30.767c-0.159-16.352-13.73-29.65-29.798-29.197
	C303.974,146.853,290.696,161.058,291.344,178.031z M152.195,430.906c0.041,16.295,13.905,30.563,29.264,30.114
	c18.004-0.526,30.413-13.247,30.281-31.043c-0.122-16.431-13.453-29.2-30.181-28.909
	C164.562,401.363,152.153,413.974,152.195,430.906z"/>
</svg>
