<?xml version="1.0" encoding="iso-8859-1"?>
<!-- Generator: Adobe Illustrator 19.0.0, SVG Export Plug-In . SVG Version: 6.00 Build 0)  -->
<svg version="1.1" id="Layer_1" xmlns="http://www.w3.org/2000/svg" xmlns:xlink="http://www.w3.org/1999/xlink" x="0px" y="0px"
	 viewBox="0 0 2000 2000" style="enable-background:new 0 0 2000 2000;" xml:space="preserve">
<path d="M1001.909,1981.641C455.618,1978.311,19.19,1545.26,20.955,993.925C22.68,454.828,461.991,14.098,1010.636,20.528
	c537.048,6.294,974.599,433.276,970.36,988.373C1976.816,1556.463,1536.401,1977.336,1001.909,1981.641z M650.646,1421.906
	c149.66,39.948,295.099,78.769,444.457,118.636c6.765-24.758,12.816-46.901,18.772-68.699
	c-39.604-19.336-77.062-37.623-114.775-56.035c26.801-99.855,50.888-189.597,76.016-283.217
	c56.095,13.964,108.917,27.113,163.94,40.81c4.949-26.223,8.913-47.229,12.929-68.51c-54.938-15.506-104.502-29.495-157.544-44.466
	c6.531-22.524,11.689-40.313,18.405-63.474c54.218,13.079,105.824,25.528,161.598,38.982c6.179-23.882,11.546-44.623,17.463-67.492
	c-53.982-14.559-103.735-27.978-160.858-43.384c25.264-93.912,49.763-184.982,77.087-286.554
	c40.543,3.503,81.504,7.042,126.234,10.907c5.264-21.507,10.7-43.715,17.094-69.838c-149.385-40.204-294.344-79.216-443.431-119.34
	c-7.875,26.138-14.868,49.345-21.175,70.279c40.364,17.637,75.541,33.007,114.551,50.053
	c-25.991,99.352-49.953,190.949-75.369,288.106c-54.524-13.685-106.188-26.653-161.097-40.435
	c-5.645,23.573-10.633,44.398-16.454,68.704c54.359,14.893,104.271,28.568,157.375,43.118c-6.156,21.723-11.518,40.641-18.138,64
	c-55.122-13.128-107.036-25.492-161.4-38.439c-4.941,24.892-9.059,45.637-13.564,68.338c52.737,14.146,101.627,27.26,156.782,42.056
	c-25.61,94.742-51.005,188.687-78.058,288.766c-43.071-5.316-81.691-10.082-123.281-15.215
	C662.454,1373.253,657.011,1395.68,650.646,1421.906z"/>
</svg>
