<?xml version="1.0" encoding="iso-8859-1"?>
<!-- Generator: Adobe Illustrator 19.0.0, SVG Export Plug-In . SVG Version: 6.00 Build 0)  -->
<svg version="1.1" id="Layer_1" xmlns="http://www.w3.org/2000/svg" xmlns:xlink="http://www.w3.org/1999/xlink" x="0px" y="0px"
	 viewBox="0 0 500 500" enable-background="new 0 0 500 500" xml:space="preserve">
<path d="M294.123,312.893c-27.998,28.223-55.166,55.609-81.499,82.154c-40.718,0-79.894,0-119.457,0
	c47.332-47.555,94.228-94.674,141.567-142.236c-47.116-47.38-93.682-94.207-140.473-141.261c39.091,0,78.237,0,118.545,0
	c26.262,26.533,53.236,53.786,80.065,80.892c27.553-27.688,54.552-54.819,80.653-81.048c41.348,0,80.604,0,119.343,0
	c-46.453,46.582-93.104,93.364-139.706,140.097c48.13,48.425,94.846,95.428,142.516,143.391c-40.546,0-79.834,0-119.399,0
	C349.351,368.009,322.037,340.751,294.123,312.893z M76.932,204.754c-24.69,0-49.059,0-73.831,0c0,63.459,0,126.608,0,190.226
	c24.747,0,49.068,0,73.831,0C76.932,331.41,76.932,268.265,76.932,204.754z M76.861,179.014c0-22.777,0-45.066,0-67.438
	c-24.861,0-49.205,0-73.861,0c0,22.699,0,44.803,0,67.438C28.102,179.014,52.484,179.014,76.861,179.014z"/>
</svg>
