<?xml version="1.0" encoding="iso-8859-1"?>
<!-- Generator: Adobe Illustrator 19.0.0, SVG Export Plug-In . SVG Version: 6.00 Build 0)  -->
<svg version="1.1" id="Layer_1" xmlns="http://www.w3.org/2000/svg" xmlns:xlink="http://www.w3.org/1999/xlink" x="0px" y="0px"
	 viewBox="0 0 2000 2000" style="enable-background:new 0 0 2000 2000;" xml:space="preserve">
<path d="M999.312,1982.578C451.649,1982.144,18.672,1547.8,19.506,999.676c0.827-542.94,442.046-981.813,985.489-980.249
	c547.554,1.576,978.575,436.023,977.513,985.283C1981.466,1544.203,1540.272,1983.006,999.312,1982.578z M935.529,1198.923
	c4.577,114.263-44.881,167.166-217.475,235.874c0,49.281,0,100.475,0,150.845c189.768,18.465,336.463-126.173,397.398-389.792
	c70.39,0,142.758,0,218.493,0c0-59.353,0-110.697,0-171.889c-76.695,0-150.166,0-222.885,0c0-54.889,0-99.892,0-153.048
	c75.245,0,147.497,0,222.589,0c0-59.617,0-110.949,0-172.345c-76.92,0-150.506,0-228.851,0c0-73.206,0-136.348,0-205.825
	c-56.18,0-107.064,0-164.6,0c0,72.213,0,136.578,0,207.203c-77.635,0-148.697,0-223.749,0c0,60.207,0,113.868,0,173.871
	c76.772,0,147.82,0,220.576,0c0,52.578,0,98.728,0,151.328c-74.692,0-145.722,0-220.417,0c0,60.245,0,113.87,0,173.779
	C793.674,1198.923,864.823,1198.923,935.529,1198.923z"/>
</svg>
