<?xml version="1.0" encoding="utf-8"?>
<!-- Generator: Adobe Illustrator 19.0.0, SVG Export Plug-In . SVG Version: 6.00 Build 0)  -->
<svg version="1.1" id="Layer_1" xmlns="http://www.w3.org/2000/svg" xmlns:xlink="http://www.w3.org/1999/xlink" x="0px" y="0px"
	 viewBox="750 -750 2000 2000" style="enable-background:new 750 -750 2000 2000;" xml:space="preserve">
<path d="M2175.8,99.3c-13.3,27.6-46,33.5-65.1,0.4c-48.2,0-96.8,0-145.4,0c1.4,1.6,2.8,3.1,4.2,4.7c-7.6,7.5-15.2,14.9-22.9,22.4
	c-1.4-1.3-2.9-2.6-4.3-3.9c0,57.9,0,115.7,0,174.4c12.8,6.8,23.6,16.9,23,32.4c-0.5,14.2-7.6,26.2-22.6,31.8c0,54.3,0,108.1,0,163.2
	c11.6,7,22.6,16.9,22.8,32.3c0.2,15.4-9,26.6-23.2,32.8c0,56.5,0,112.1,0,167.3c32.5,19.4,28.5,50,0.1,65.9c0,44.9,0,90.1,0,135
	c32.6,18.9,27,52.4,0.4,65.2c0,44.7,0,89.8,0,135.8c14.4,8.6,25.6,19.9,21.5,39.3c-3.2,15.3-14.1,23.9-28.1,26.3
	c-17.7,3.1-28.3-9-37.1-23.2c-85.8,0-171.7,0-257.7,0c-9.4,13.9-19.7,27-38.5,22.9c-13.3-2.9-23.3-11-26.5-25.8
	c-3.4-15.4,1-24.6,21.6-40.8c0-44.2,0-88.8,0-133.1c-30.7-24.1-30.8-45.4-0.1-66.7c0-44.8,0-89.9,0-134.9
	c-30.2-18.2-30.5-48.1,0.4-66.3c0-55,0-110.5,0-165.5c-33.3-22-27.9-50.7-0.4-67c0-53.4,0-107.3,0-160.8
	c-30.8-25.2-31-45.9-0.1-66.3c0-57.4,0-115.2,0-169c-10.2-9.6-18.3-17.3-30.5-28.8c-40.9,0-89,0-136.7,0c-24.6,31.1-46.4,31.1-66,0
	c-51.5,0-103.5,0-155.9,0c-9.1,16.7-21.6,26.6-41.7,21.3c-11.6-3.1-22-14.9-23.3-26.6c-1.9-16,4.3-25.9,23.3-36.7
	c0-84.3,0-169.1,0-254.9c-15.3-8.3-26.6-20.3-23.1-40.3c2.2-12.5,14.9-23.4,28.8-26c12.4-2.3,24.4,5.1,36.2,23
	c51.2,2,103.3-0.3,154.7,0.3c21.8-31.5,43.8-31.6,66.1-0.9c1.5,0.2,3.2,0.7,4.9,0.7c46.4,0,92.9,0,135.7,0
	c8.6-10.3,15.4-18.6,22.2-26.8c1.8,1.5,3.5,3,5.3,4.5c0-51.5,0-103,0-155.6c-13.5-6.3-22.8-17.3-22.8-32.7
	c0-14.9,9.3-25.2,23.5-32.5c0-59.2,0-118.6,0-178.7c-16.4-9-26.3-21.3-21.7-41.3c3.4-14.8,13.9-22.6,27.2-25
	c17.8-3.2,28.2,9,37.2,23c85.7,0,171.6,0,258,0c8.7-14.4,19.7-26.5,38.2-22.7c14.3,2.9,24.7,12.3,27.1,27.3
	c2.9,18.1-6.3,30.3-22.2,37.4c0,60.8,0,120.3,0,179.5c27.6,16.6,33.7,44.6,0,66.4c0,51.2,0,102.7,0,148.4
	c10.4,10.3,17.6,17.4,24.7,24.5c-1,1.2-2,2.4-3,3.6c48.6,0,97.3,0,147,0c6.4-13.1,17.2-23,32.4-22.8c14.3,0.2,25.7,8.4,31.1,22.9
	c52.8,0,104.9,0,157.6,0c7.2-14.9,18.5-24.7,36-22.3c15.2,2.1,26.2,13.2,28.1,26.2c2.7,19.1-6.7,31.5-23.5,39.3
	c0,84.6,0,168.8,0,254.2c3.2,1.9,7.1,4,10.6,6.6c15.3,11,17.8,34,5.1,48.4c-12,13.7-34.3,15.2-47,1.5c-3.4-3.7-6.1-8.1-10.3-13.7
	C2280.4,99.3,2228.5,99.3,2175.8,99.3C2162.4,126.8,2228.5,99.3,2175.8,99.3z M1897.1,361.9c2.3-4.4,4.5-8.8,7.1-13.9
	c-1.5-2.9-3.2-6.4-5-10c-15.8-2.5-31.3-4.9-46.5-7.3c-13.7,14.2-20.5,19.7-38.6,6.3c-16.1,10.8-32.5,21.9-47.3,31.8
	c-1,8.8-1.7,15.3-2.4,21.6c4.6,4,9.3,7.3,13.2,11.5c12.8,13.7,26.5,24.9,48.5,21.7c18-16.7,37.1-34.6,56.5-52.2
	c4.5-4,10.1-6.8,15.2-10.1c-3.8,4.8-7.1,10-11.5,14.2c-19,18.1-38.4,35.9-56.2,52.5c0,9.2,0,16.9,0,26.6c26,24.3,51,52.6,78.4,75.8
	c13.2-1.5,14.6-8.6,14.5-17.6c-0.3-33.2-0.1-66.5-0.2-99.7c0-16.2,0-32.4,0-50.7c-2.6-1.6-7.4-4.5-11.2-6.8
	C1906.1,357.9,1901.6,359.9,1897.1,361.9C1899.3,357.5,1901.6,359.9,1897.1,361.9z M2018.4-34.5c-7.7-28.8-15.3-57-22.7-84.6
	c-5.7-1.9-10.5-3.6-17.1-5.8c-25.4,20.7-51.3,41.7-77.1,62.6c6.4,13-0.4,20.8-7.9,28.4c10.2,30.2,20.2,60,29.7,88.3
	c11.5,2.6,21.2,4.7,30.9,6.9c9.2-10.2,18.3-20.4,27.6-30.4c9.7-10.4,19.6-20.6,28.8-30.1C2005.9-16.9,2005.9-16.9,2018.4-34.5
	C2010.7-63.2,2005.9-16.9,2018.4-34.5z M1854.5-546.3c-25.7-1.9-27.8-4.8-25.1-34.5c-14.8-15.9-30.3-32.4-46-49.2
	c-4.8,2.2-8.8,4-12.1,5.5c-3.9,19.8-7.6,38.7-11.2,57.1c5,7.1,9.8,13.9,14.2,20.2c-3.4,7.8-6.1,13.9-8.6,19.7
	c16.2,22.4,31.9,44,48,66.3c13.4-2.6,24.2,1.9,31,14.4c17.8-1.8,34.8-3.4,51.8-5.1c4.6-8.9,9.2-17.8,14.4-27.9
	C1892.8-501.2,1874-523.3,1854.5-546.3C1828.8-548.2,1874-523.3,1854.5-546.3z M1836.1-157.9c21.2-17,44.6-35.8,65.6-52.5
	c-0.7-13.7-1.3-24.8-2-38.3c-11.6-7.9-25-17.1-38.6-26.3c-11.2,10.8-21.3,6.2-31.9-1.7c-29.7,13.8-59.4,27.5-89.2,41.3
	c-1.5,5.7-2.8,11.1-4.5,17.7c23.3,20.5,46.8,41.1,68.1,59.8C1814.9-157.9,1823.5-157.9,1836.1-157.9
	C1857.3-174.8,1823.5-157.9,1836.1-157.9z M1679.1,257.5c5.4-40.4,10.7-80.2,15.5-115.8c-7.3-11.1-12.3-18.8-18.7-28.6
	c-10.6-3-24-6.8-34.9-9.9c-8.8,7.9-15.3,13.7-23.2,20.8c0,56.9,0,115.1,0,172.2c7,5.3,12.8,9.6,19.3,14.6
	c9.8-8.3,19.3-16.3,28.3-23.9C1665.5,271.9,1665.5,271.9,1679.1,257.5C1684.5,217.1,1665.5,271.9,1679.1,257.5z M1669.1,1180.2
	c0,0.9-0.1,1.9-0.1,2.8c76.6,0,153.1,0,226.9,0c10.1-10.2,18.3-18.4,28.2-28.5c0-39.8,0.1-81.5-0.2-123.3c0-3.1-3-6.3-5.5-11.1
	c-3.4,4.5-5.6,6.9-7.3,9.6c-16,24.9-31.7,49.9-47.8,74.6c-5.4,8.3-8.5,16.3-7.6,26.8c1.2,13.1-5.6,18.9-18.5,18.7
	c-2.8,0-6,0-8.4-1.2c-6.7-3.4-12.9-1.9-19.8-0.3c-38,8.8-76.1,17-114.1,25.5C1686.2,1175.8,1677.7,1178.1,1669.1,1180.2
	C1669,1181.1,1677.7,1178.1,1669.1,1180.2z M1821.2,177c-13.6,8.4-28.6,17.7-44.5,27.5c0.8,5.6,0.1,11.7,2.5,16.3
	c13.7,27.3,28,54.3,42.2,81.4c0.7,1.4,1.8,2.7,2.5,3.7c5.6,0.5,10.6,1,15.8,1.4c5.2,6.5,10,12.7,14.9,18.9c14.6,1.6,29,3.1,41.4,4.4
	c5.8-11.4,10.4-20.3,15.9-31c-21.4-38-43.5-77.4-64.4-114.6C1837.3,181.9,1829.9,179.6,1821.2,177
	C1807.5,185.4,1829.9,179.6,1821.2,177z M2138.8-118.1c13.5-4.5,25.9-8.5,38.2-12.6c17.2-5.7,34.5-11.2,51.5-17.5
	c5.2-1.9,13.2-2.6,11.8-13.3c-25.9-12.1-52.5-24.7-79.3-37.1c-1.9-0.9-4.7-1.3-6.7-0.6c-11.7,4-22.2-0.4-33.1-4.6
	c-36.8,19.2-73.5,38.2-110.6,57.5c1.9,3.5,2.5,6.8,4,7.3c28.2,7.9,56.6,15.5,84,22.9C2117.5-131.7,2121-130.3,2138.8-118.1
	C2152.4-122.6,2121-130.3,2138.8-118.1z M1710.5,648.7c-30.1,36.7-54.7,76.4-81.4,115.4c13.9,13.6,15.2,28.9,6.6,45.9
	c7.3,3.5,13.9,6.7,20.5,9.9c26.1,12.5,52.2,24.9,78.2,37.6c6.5,3.2,11.8,4.9,14.8-4.1c-9.2-26-18.5-52-27.6-77.6
	c-17.6-0.1-19.7-1.7-27.3-21.3c4.8-5.9,10.4-12.6,16.1-19.7C1710.5,706.5,1710.5,677.6,1710.5,648.7
	C1680.4,685.3,1710.5,677.6,1710.5,648.7z M1718.9,111c-0.3,9.3,4.7,11.4,10.6,13.2c9.2,2.7,18.2,6.1,27.3,9.1
	c21.3,6.9,42.7,13.6,64.1,20.5c9.7-12.7,21.2-10.1,32.6-6.2c16.9-13.4,33.4-26.4,48.7-38.6c-1-11-2-21-3.1-32.1
	c-13.7-6.8-28.8-14.3-43.6-21.7c-11.6,10.3-22.9,9.5-33.2,0.5C1787.2,74.4,1753.2,92.6,1718.9,111
	C1718.6,120.3,1753.2,92.6,1718.9,111z M1752.6-31.7c-22.2-23.7-44.1-47-66.7-71c-17.2,5.1-24-6.6-28.7-19.1
	c-24.7-4.1-48.2-8.2-71.7-11.9c-7.1-1.1-14.1-1-15.3,9.8c20.5,30.4,41.5,61.4,62.7,92.8c14.2-4.1,23.5,1.6,28.9,14.2
	c28.9-1.6,56.8-3.2,85.7-4.8C1749-24.7,1750.8-28.2,1752.6-31.7C1730.4-55.3,1750.8-28.2,1752.6-31.7z M1240.8-114.7
	c-17.2,57.3-34.5,115-51.8,172.9c3.5,2.3,6.2,4.1,10.1,6.6c10.1-9.4,19.7-18.3,29.3-27.1c9.6-8.9,19.2-17.7,29.3-26.9
	c-6.9-9.4-4.1-17.8,2.6-24.9c6.9-7.3,15.9-7.1,24.7-3.1c15-17,29.4-33.2,42.6-48.2c-1.1-7.7-2-13.8-3.1-21
	c-18.1-9-37-17.7-55.2-27.9C1260-119.5,1251.8-121.9,1240.8-114.7C1223.6-57.5,1251.8-121.9,1240.8-114.7z M1700.5-126.5
	c33.2-5.1,66.9-7.6,99.8-15.8c0-4.8,1.2-8.9-0.2-10.1c-22.9-20.6-46-40.8-68.4-60.4c-20.8,5.6-22.1,5.1-35.7-14
	c-18-0.1-36.6-0.5-53.3,0.2c-4.9,9.3-8.5,16.1-12,23c12.6,18.5,25,36.8,37.7,55c1.9,2.7,4.8,6.7,7.3,6.8
	C1686.7-141.5,1692.7-133.6,1700.5-126.5C1733.7-131.6,1692.7-133.6,1700.5-126.5z M1851.1,967.2c17,4.1,33.2,8.1,48.7,11.9
	c4.7-6.1,8.1-10.5,11.9-15.3c-26.3-42.3-52.4-84.1-78.3-126.2c-4.7-7.6-11.2-10.6-19.2-11.5c-12.6,11.4-24.9,22.5-36.2,32.7
	c-0.9,10-1.6,19-2.6,30.2c6.2,8,14,17.9,21.5,27.8c7.6,9.9,15,19.9,21.9,29.1C1841.1,945.9,1843.1,947.2,1851.1,967.2
	C1868,971.3,1843.1,947.2,1851.1,967.2z M1289.6,7.7c28,20.3,54.8,39.8,79.2,57.5c11.7-3.8,20.3-8.9,28.8-8.7
	c8.5,0.2,16.9,5.5,26.1,8.9c22-16.1,44.4-32.5,66.6-49.2c4.3-3.3,9.7-6.9,6.3-15.5c-24.4-2.8-49.6-5.7-73.3-8.4
	c-16.1,18.9-21.2,18.8-43.5-0.4c-27.3,3-56,6.1-84.8,9.5C1293.9,1.6,1292.9,3.9,1289.6,7.7C1317.7,28.1,1292.9,3.9,1289.6,7.7z
	 M1638-466.3c34-22.8,66-44.3,96.6-64.9c0-10.4,0-19.3,0-26.2c-19.8-19.7-38.8-38.6-58.7-58.5c-3.9,1.2-9.2,2.8-14.8,4.6
	c-6.2,22-12.2,43.7-18.6,65.3c-6.3,21.5-13.1,42.8-19.1,62.3C1628.9-477.1,1632.9-472.3,1638-466.3
	C1671.9-489.1,1632.9-472.3,1638-466.3z M1618.6,590.5c-3.6,79.4-2,157.3,4.5,172.1c26.6-40.1,52.9-78.5,77-115.6
	c-1.7-10.3-3-18.4-4.6-27.9c-18.4-13.3-38.1-27.6-58.1-42C1630.8,581.8,1624.9,586,1618.6,590.5
	C1614.9,669.9,1624.9,586,1618.6,590.5z M1869.9-66.7c-14.5-19.6-28.4-38.2-42.2-56.8c-6.5,3.9-13.6,3.2-16.9,11.5
	c-9.7,24.8-20.8,49-29.4,68.9c2.8,14.8,4.8,25.1,7.1,37.4c10.6,9.9,23.1,21.5,35.4,32.9c7.9-1.6,14.9-3.1,22.1-4.5
	c9.6-19,19-37.6,28.6-56.5C1864-43.8,1863.8-54.4,1869.9-66.7C1855.4-86.2,1863.8-54.4,1869.9-66.7z M1808.5-428.7
	c-29.7,20.8-59.9,41.9-90.4,63.2c0.3,5.3,0.6,10.4,1,16c36.7,16.7,73.2,33.4,109.3,49.8c4.5-3.1,8.6-5.9,12.1-8.4
	c-5.8-39.3-11.3-76.2-16.7-112.8C1818.6-423.4,1814.1-425.8,1808.5-428.7C1778.8-407.9,1814.1-425.8,1808.5-428.7z M1365.2-87
	c-1.5,7.7-2.8,14.2-4.4,22.2c9.8,10.7,20.1,22.1,30.9,34c14.6-3.1,27.5-1.5,31.5,15.8c6.1,1.2,11.6,2.8,17.2,3.4
	c15.8,1.8,31.7,3.4,47.5,4.8c5.8,0.5,11.8,0.5,14-9.4c-20.3-29.3-41.6-59.9-60.9-87.6c-11.6-2.8-19.6-4.8-30.2-7.4
	c-11,5.7-25,13-39.1,20.3C1369.6-89.9,1367.7-88.6,1365.2-87C1363.6-79.4,1367.7-88.6,1365.2-87z M1585.5,62.7
	c32.7-13.4,53.7-2.2,57,33.5c9.2,3.1,18.7,7,28.5,9.4c4.4,1.1,10.6,0.9,14.1-1.5c5.3-3.5,1.8-8.8-0.4-13.7
	c-12.4-27.3-24.4-54.7-35.1-78.7c-12-6.8-21.1-11.9-34-19.2c-23.2,2.4-50.8,5.3-78.3,8.2c-1.5,4.1-2.8,7.7-4.3,11.8
	C1550.5,29.4,1567.8,45.9,1585.5,62.7C1618.2,49.3,1567.8,45.9,1585.5,62.7z M2136.5-111c3,4.4,4.1,8.3,6.4,9.2
	c45.8,19.4,91.7,38.4,137.8,57.7c3.5-4.2,6.3-7.7,9.1-11c-9.1-27.5-18-54.3-26.1-78.8c-9.7-4.5-17.2-8-25.2-11.7
	C2205.8-134.6,2172.7-123.3,2136.5-111C2139.4-106.6,2172.7-123.3,2136.5-111z M1853.5,805.1c-6.5,10.2-11.4,17.9-16.9,26.7
	c26.1,42,53.2,85.5,81,130.1c6.1-13.2,8-94.6,4.6-136c-9.7-11-17.6-20-27-30.7C1882.1,798.4,1866.3,802.1,1853.5,805.1
	C1847,815.3,1866.3,802.1,1853.5,805.1z M1810.1,976.1c0.9-9.5,1.8-17.8,2.8-28.5c-13.6-17.6-28.8-37.2-43.2-55.8
	c-7.8,0-13.5,0-20.5,0c-10,13.8-20.3,27.9-30.1,41.4c2.3,5.7,4.1,10.4,6.1,15.4c-2.2,5.1-4.4,10.2-6.8,15.7
	c10.6,15.8,21.2,31.7,31.2,46.6c9,1.1,16.1,2,24.3,3.1C1785.7,1001.7,1797.9,988.9,1810.1,976.1
	C1811,966.6,1797.9,988.9,1810.1,976.1z M1918.2,298.6c1.2-0.4,2.5-0.8,3.7-1.2c0-58.2,0-116.5,0-175.3c-4.9-3-9.7-5.8-14.8-8.9
	c-17.4,13.5-34.5,26.6-47.9,37c-2.6,13.4-4.3,22.5-6.3,32.5C1874.3,220.9,1896.2,259.8,1918.2,298.6
	C1919.4,298.2,1896.2,259.8,1918.2,298.6z M2043.4,5.4c-12,0-20,0-29.7,0c-18.1,19.8-37.4,40.7-56.5,61.6c2.7,4.5,5,8.3,7.2,11.9
	c49.5,0,98.5,0,147.1,0c3.1-11.4,3.2-11.5-2.9-16.9c-9.4-8.4-18.7-16.7-28.2-24.9C2067.6,25.9,2054.5,14.9,2043.4,5.4
	C2031.4,5.4,2054.5,14.9,2043.4,5.4z M1367.7-215.4c-0.3-1.3-0.7-2.6-1-3.8c-26.1-4.4-52.7,0.6-78.9-1.5
	c-26.8-2.2-53.4,0.5-79.5,0.4c-3.8,6.7-6.9,12.1-10,17.4c11.2,16.6,21.9,32.6,30.2,45c14.1,3.4,24.2,5.8,36.8,8.9
	C1297.7-170,1332.7-192.7,1367.7-215.4C1367.4-216.7,1332.7-192.7,1367.7-215.4z M1750.6-646.8c13.7-23.5,19.1-24.6,42.3-9
	c30.5-9.5,61.7-18.1,91.4-30.8c-81,0-162,0-242.8,0c-3.2,5.3-5.8,9.6-8.5,14.3c7.1,7.4,14.1,14.8,22,23.1c13.7-8.8,22,0.4,30.9,10.5
	C1707.6-641.5,1729.5-644.2,1750.6-646.8C1764.3-670.3,1729.5-644.2,1750.6-646.8z M1852.7,658.5c6.4,9.4,4.1,17.6,0.8,27
	c21.5,24.7,41.9,51,66.6,78.7c1.3-8.3,2.5-12.5,2.6-16.8c0.3-11.5,0-22.9,0.1-34.4c0-36.7,0-73.4,0-110.1c0-7.4,1-15.4-9.9-17.6
	C1893.1,609.4,1873.3,633.6,1852.7,658.5C1859.1,668,1873.3,633.6,1852.7,658.5z M1897,557c-28.9-3.2-58.2-6.5-87.4-9.7
	c-4.3,4.8-8,9-11.7,13.2c10.8,30.6,21.5,60.9,32.3,91.5c3.4-0.2,6.2-0.8,8.8-0.5c3.1,0.4,6.2,1.6,9.7,2.5
	c20.1-24.4,39.7-48.2,58.7-71.3C1904.1,574.5,1901.1,567.3,1897,557C1868.1,553.8,1901.1,567.3,1897,557z M1370.4-209.9
	c-33.6,21.6-66.5,42.8-99.4,64c-7.8,5-13,11.2-8.9,21.6c21.6,10.9,43.4,21.8,63.8,32.1c8.7-3.7,15.4-6.5,22.9-9.7
	c9.7-28.2,19.7-57,29.6-85.9C1382.5-199.6,1382.5-199.6,1370.4-209.9C1336.9-188.3,1382.5-199.6,1370.4-209.9z M1827.3-282.5
	c2.2-8.8-1.6-12-7.5-14.6c-34.5-15.5-68.8-31.3-103.9-47.4c-4,3.3-7.8,6.4-11.3,9.3c4.7,29.5,9.3,57.9,13.7,85.3
	c7,3.5,12.5,6.3,18.8,9.5C1766.7-254.3,1796.9-268.3,1827.3-282.5C1829.5-291.3,1796.9-268.3,1827.3-282.5z M1682-371.2
	c-14.7-18.1-30.8-37.9-47.3-58.1c-5.5,3.8-10.8,7.5-15.6,10.8c-3.8,44.6-2,146.1,2.7,157.2c1.1,0.1,2.8,0.6,3.2,0.2
	c19.9-26,39.6-52.1,57.1-75.1C1682-349.8,1682-359.6,1682-371.2C1667.2-389.2,1682-359.6,1682-371.2z M1663-11.6
	c-4.6,7.1-7.5,11.7-10.4,16.3c12.7,28,25.2,55.2,37.3,82.6c3.3,7.6,7,13,17.7,9.2c16.1-32.8,32.7-66.4,49.2-100
	c-3.8-4.6-7-8.5-9.8-11.9C1718.6-14.1,1690.7-12.9,1663-11.6C1658.5-4.5,1690.7-12.9,1663-11.6z M2172.7,0.8
	c8.5-9,8.4-16.4,2.1-24.4c-15.5-19.7-30.7-39.6-46.2-59.3c-6.8-8.7-13-9-21.4-1.3c-12.3,11.2-24.5,22.4-36.6,33.8
	c-7.1,6.7-13.9,13.7-21,20.3c-4.9,4.6-5.7,9.4-1.8,16.2C2089.6-8.9,2131.8-4,2172.7,0.8C2181.2-8.2,2131.8-4,2172.7,0.8z
	 M1953.5-204.2c10.3,15.2,20.6,30.5,29.1,43c11.4,2.8,19.6,4.8,30.1,7.4c33.4-17.5,69.2-36.2,105.6-55.2c-3-4.7-5.1-8-7.2-11.4
	c-48.9,0-97.4,0-145.9,0C1961.3-215.1,1957.7-210,1953.5-204.2C1963.8-189.1,1957.7-210,1953.5-204.2z M1565.2-120.7
	c-12.3-2.2-13.1,5.8-14.7,11.1c-8.6,29.8-16.6,59.7-25,90.3c4.1,4.4,8.3,8.9,13,13.9c27.9-3,55.5-5.9,82.6-8.8
	c2.1-6,3.8-10.8,5.5-15.7C1605.7-60.7,1585.2-91.2,1565.2-120.7C1552.9-122.9,1585.2-91.2,1565.2-120.7z M1917.4-481.8
	c1.3-0.1,2.5-0.2,3.8-0.3c0.6-4.3,1.6-8.6,1.6-12.9c0.2-14.3-0.1-28.6-0.1-42.9c0-37.7,0.1-75.4-0.1-113.2c0-4.6,2.3-10.7-6.6-13.6
	c-19.6,27-37.3,55.9-56.2,84.4c10.8,10.6,6.7,20.8-0.7,30.5C1878.9-526.7,1898.1-504.3,1917.4-481.8
	C1918.6-481.9,1898.1-504.3,1917.4-481.8z M1537.2-132.2c-29.6,2.9-58.3,5.8-85.5,8.4c-3.5,5.9-5.7,9.7-8,13.5
	c22,31.5,43.3,62.1,64.3,92.1c9-1.9,12.9-5.4,14.7-13.5c4.8-20.9,11.2-41.4,17-62c2.6-9.1,5.3-18.2,7.7-26.7
	C1543.4-125,1540.4-128.4,1537.2-132.2C1507.5-129.3,1540.4-128.4,1537.2-132.2z M1186-200.6c0,81.8,0,161.9,0,241.9
	c0.6,0.1,1.1,0.1,1.7,0.2c15.9-52.9,31.8-105.8,47.8-158.7c-11.5-8.5-16.6-18.2-8.4-31.4c-10.6-16.1-20.7-32-31.3-47.4
	C1194.2-198.2,1190.3-198.7,1186-200.6C1186-118.8,1190.3-198.7,1186-200.6z M1798.8-134.8c-33.9,5.1-67,10-99.2,14.8
	c-2.7,6.2-4.9,11.2-6.9,15.9c21.1,22.5,41.9,44.5,62.7,66.7c6.1-0.6,11.8-1.1,17.9-1.7c12-27.7,23.8-55.2,35.6-82.6
	C1805.4-126.2,1802.7-129.8,1798.8-134.8C1764.9-129.7,1802.7-129.8,1798.8-134.8z M1207.8,78.8c38.8,3,146.2,1.8,158.6-1.7
	c0.2-1.1,0.9-2.9,0.4-3.2c-25.8-20.2-51.7-40.2-78.4-61c-8.8,9-18.9,5.9-28.5,3.9c-19.4,17.8-38.3,35.2-57,52.4
	C1205,73.2,1206.2,75.7,1207.8,78.8C1246.7,81.8,1206.2,75.7,1207.8,78.8z M2164.6,61.8c4.4,7,7.7,12.2,11.3,17.9
	c11,0,21.9,0,32.7,0c10.3,0,20.6,0.1,30.9,0.1c10.8,0,21.6-0.1,32.5-0.1c10.3,0,20.6,0.3,30.9-0.1c10.3-0.4,21,2.1,34.9-3.5
	c-44.2-22.7-84.7-43.6-123.5-63.5c-9.9,4.1-17.2,7-25.4,10.3C2181.3,35.3,2173.2,48.2,2164.6,61.8
	C2169,68.8,2173.2,48.2,2164.6,61.8z M1829.4-421.7c2,12.8,3.9,25.6,6,38.4c2.1,13.4,4.9,26.8,6.4,40.3c1.4,12.4,1.9,24.9,9.2,39.7
	c22-41.7,42.2-80.2,61.9-117.6c-5.3-8.2-9.8-15.2-15-23.2c-17.8,1.3-36.7-2.8-52.3,3.7C1839.1-432.8,1834.3-427.3,1829.4-421.7
	C1831.4-408.9,1834.3-427.3,1829.4-421.7z M1728.5,743c4.6,5.8,7,11.7,11.4,14.1c24.3,13.4,49,26,73.5,38.8c5.4-2.8,9.8-5,14.3-7.4
	c2-32.2,3.9-64,5.9-96.6c-3.7-2.4-7.4-4.7-11.3-7.2C1791.6,703.8,1761.2,722.7,1728.5,743C1733.1,748.8,1761.2,722.7,1728.5,743z
	 M1575-220.7c-48.3,0-95.2,0-142.2,0.1c-1.5,0-2.9,1.2-7.4,3.1c37.9,23.3,74.6,44.2,108.8,64.6c11.2-3.2,20.6-5.8,31.9-9
	c6.8-12.3,14.7-26.6,22.3-40.3C1583.5-209,1579.5-214.5,1575-220.7C1526.7-220.7,1579.5-214.5,1575-220.7z M1618.8,821.5
	c0,45.6,0,91.3,0,135.7c7.6,6.6,14.4,12.6,21.5,18.7c14.5-6.9,28.8-13.7,42.2-20.1c2.6-8.4,5-15.8,7.8-24.7
	C1667.8,895.1,1646,856.9,1618.8,821.5C1618.8,867.2,1646,856.9,1618.8,821.5z M1900.7-682.8c-36.1,11.1-72.1,22.2-107.6,33.1
	c-1.7,6.5-2.9,11.3-4.2,16.2c15.7,17.2,31,34.1,45.7,50.3c5-0.7,8.2-1.2,11.5-1.7c3.3-0.4,6.6-0.7,10.3-1.1
	c18.3-27.8,36.4-55.4,54.3-82.6C1907.7-672.8,1905.1-676.5,1900.7-682.8C1864.6-671.7,1905.1-676.5,1900.7-682.8z M1849,1116.6
	c21.5-34,42-66.4,60.5-95.7c-5.1-13.4-9.1-23.8-13.7-36c-14.4-3.7-30.6-7.9-45.8-11.8c-5.9,4.4-10.3,7.7-15.7,11.7
	c3.1,41.8,6.2,83.9,9.4,125.8C1843.8,1111.9,1845.9,1113.1,1849,1116.6C1870.5,1082.6,1845.9,1113.1,1849,1116.6z M2097.7-110.8
	c-27.8-7-57.1-14.4-85.6-21.5c-4.7,4.5-8,7.6-11,10.4c6.8,25.6,13.5,50.7,20.2,75.7c3.7,13.8,4.2,14.2,21.4,14.9
	c20.7-19.7,42.2-40.2,63.5-60.5C2103.6-97.7,2101.1-103.2,2097.7-110.8C2069.9-117.8,2101.1-103.2,2097.7-110.8z M1623.8,360.8
	c17.7,32.1,35.7,64.6,53.2,96.3c6.9,0,11.8,0,16.4,0c13.4-21.3,26.3-41.8,39.3-62.5c-2.8-6.2-5.4-11.8-8.1-17.6
	c-25.6-7.6-51.3-14.3-76.2-23C1638,350.3,1631.1,351.6,1623.8,360.8C1641.5,392.9,1631.1,351.6,1623.8,360.8z M1580.6,70
	c-17.7-17.8-34.6-34.7-51-51.2c-9.1-0.7-18.2-1.4-30.3-2.2c-22.8,17.1-48.3,36.1-73.9,55.3c1.9,6.2,5.4,7.9,10.6,7.9
	c46.4-0.1,92.7-0.1,139.7-0.1C1577.7,75.7,1579.4,72.3,1580.6,70C1562.9,52.2,1579.4,72.3,1580.6,70z M1832.4-126.5
	c14.8,19.6,28.8,38,42.3,55.9c4.4-0.8,7.2-1.4,12.1-2.3c11-41.3,22.3-83.5,33.7-126.3c-5.2-2.8-9.5-5.1-13.7-7.4
	c-24.3,19.3-47.9,38-72,57C1843.1-140.8,1836.4-134.2,1832.4-126.5C1847.3-106.9,1836.4-134.2,1832.4-126.5z M2305.3-58.3
	c15.3-47.6,30.1-93.7,45.1-140.4c-3.7-3-7.1-5.8-11.8-9.8c-20,14.1-39.8,28.1-60,42.4c3.2,12-1.6,21.3-9.9,28.5
	c9,27.2,17.6,53.3,26.3,79.3C2298.8-58.3,2301.6-58.3,2305.3-58.3C2320.6-105.9,2301.6-58.3,2305.3-58.3z M1921.2-263.1
	c3.2-22.8,2.2-143.2-1.8-157.2c-20.7,39.4-40.6,77.3-59.2,112.7c3.2,11.2,5.6,19.8,8.7,30.7c11,7.5,24.1,16.4,36.8,25.1
	C1911.3-256,1916.4-259.7,1921.2-263.1C1924.3-285.9,1916.4-259.7,1921.2-263.1z M2351.8,50.8c0.8-0.3,1.6-0.6,2.3-0.9
	c0-77.9,0-155.7,0-233.6c-0.7-0.1-1.4-0.3-2.2-0.4c-13.8,42.9-27.6,85.8-41.2,127.9c3.9,6.6,7.3,12.4,11.2,18.9
	c-3.9,6.4-7.4,12.2-10.8,18C2324.6,4.1,2338.2,27.5,2351.8,50.8C2352.5,50.5,2338.2,27.5,2351.8,50.8z M1629.7,1163.9
	c17-15.4,33.9-30.7,50.9-46.1c-6.3-9.7-2.7-17.3,2.6-25.3c-17.5-24.7-35.2-49.6-52.7-74.3c-7.9,1.5-12.3,4.2-12.3,11.4
	c0,6.9-0.1,13.8-0.1,20.6c0,32.7,0.1,65.3-0.1,98C1617.9,1155.6,1618.3,1162.1,1629.7,1163.9
	C1646.7,1148.5,1618.3,1162.1,1629.7,1163.9z M1817.4,1129.9c-33.7-5.5-66.6-10.8-97.1-15.8c-7.6,4.8-12.5,9.4-18.1,10.9
	c-5.6,1.4-12-0.4-19.7-0.8c-15.3,13.9-31.8,28.9-49.2,44.7c2.4,3.8,4.9,7.9,7.5,12.2c3.3-1.2,5.4-2.2,7.6-2.7
	c53.5-11.9,107-24,160.6-35.5C1816,1141.4,1819.1,1138.9,1817.4,1129.9C1783.8,1124.4,1819.1,1138.9,1817.4,1129.9z M1817.3,667.5
	c-27.6-9.4-54.9-18.7-82.2-28c-5.6,3.7-10.8,7-15.6,10.1c-3.3,35.7-2,78.3,3.2,89.9c31.9-19.7,63.6-39.3,95.6-59.1
	C1818,675.9,1817.7,672.1,1817.3,667.5C1789.7,658.1,1817.7,672.1,1817.3,667.5z M2214.9,6.5c40,20.5,80.7,41.3,121.9,62.4
	c4-3.2,7.8-6.3,12.5-10c-14.7-25.7-29-50.7-42.8-74.8c-5.2-1.4-9.4-1.8-12.7-3.7c-6.9-4.2-13-4.4-20.9-1.4
	c-15.3,5.8-31.3,9.6-46.9,14.6C2220.7-4.7,2214.9-2.9,2214.9,6.5C2254.9,27,2214.9-2.9,2214.9,6.5z M1972.5-127.8
	c2.1-11.5,3.7-19.9,5.5-29.9c-9-13-19.2-27.8-29.4-42.7c-8.6,1.6-15.7,3-22.4,4.3c-5.9,21.6-12.3,42.1-17.2,63
	c-5,21.1-13.4,41.6-15.3,67.6C1924.6-86.5,1949.3-109,1972.5-127.8C1974.6-139.3,1949.3-109,1972.5-127.8z M2337.4-217.2
	c-16.3-4.2-144.6-4.9-162.8-1.8c-2.8,4.6-5.7,9.3-9.5,15.5c26.1,12.3,51.5,24.3,75.4,35.5c7.2-3,12.2-6.6,17.5-6.9
	c5.8-0.3,11.8,2.4,18.1,3.9C2295-186.3,2316.9-198.2,2337.4-217.2C2321.1-221.5,2316.9-198.2,2337.4-217.2z M1630.9,815.5
	c-0.7,1.2-1.5,2.4-2.2,3.7c22.5,36.6,45,73.3,67.4,109.8c6.3,0,11.9,0,18.7,0c10-14,20.2-28.2,29.1-40.7c-2.5-9-4.5-16-6.6-23.4
	c-17.5-8.2-35.4-16.7-53.5-25.1C1666.2,831.6,1649.5,821.2,1630.9,815.5C1630.1,816.7,1649.5,821.2,1630.9,815.5z M1740.9-524.9
	c-0.7-0.7-1.3-1.4-2-2c-32.7,21.9-65.4,43.9-97.7,65.5c-0.8,10.3-1.5,19.7-2.1,28.5c16.7,20.4,32.8,40.2,48.9,59.8
	c12.2-1.3,11.9-11,13-18.8c2.6-19,4.2-38.2,6.5-59.2c-3.8-2.9-8.8-6.7-14.4-11c1.7-7.7,1.9-14.7,4.8-20.4c4.7-9.2,15.3-5.1,22.9-7.3
	C1727.6-501.8,1734.2-513.4,1740.9-524.9C1740.2-525.6,1734.2-513.4,1740.9-524.9z M1796.8,520.1c8.5,20.4,21.7,26.4,39.6,24
	c3.2-0.4,6.7,1.1,10.1,1.4c17.4,1.9,34.8,3.8,52.6,5.7c2.1-5.7,3.8-10.3,5.9-16c-27.4-26-54.6-51.9-81.6-77.7
	c-5.7,2.3-10.3,4.2-14.4,5.9C1804.6,484,1800.3,503.7,1796.8,520.1C1805.4,540.5,1800.3,503.7,1796.8,520.1z M1816,313.1
	c0.8-1,1.6-2,2.4-3c-15.3-29.3-30.6-58.6-44.6-85.4c-11.1,0-20.2,0-30,0c-14.7,13.3-29.9,27-45,40.6c3,6.2,5.4,11.2,7.7,15.9
	C1743.2,291.9,1779.6,302.5,1816,313.1C1816.8,312.1,1779.6,302.5,1816,313.1z M2119.7,65.4c11.8-8.2,24.4-12,39.1-5.9
	c8.9-13.9,17.4-27.2,26-40.7c-2.7-4.3-5-8-7.3-11.6c-22.8-2.4-44.8-4.5-66.9-7.1c-21.5-2.5-42.8-8.3-69.2-5.6
	C2068.2,21.4,2095.3,41.4,2119.7,65.4C2131.5,57.1,2095.3,41.4,2119.7,65.4z M2130.5-89.6c19,24.5,37.8,48.7,57,73.4
	c7.8-6.6,14.5-3.4,19.5,1.1c6.7,6.1,12.4,5.2,20.1,2.3c15.4-5.7,31.3-9.7,46.9-14.7c2.8-0.9,5.3-3.1,9.9-5.8
	c-5.4-3.4-8.8-6.3-12.7-8c-42.1-17.9-84.4-35.7-126.6-53.5C2139.3-97,2134.5-97.8,2130.5-89.6C2149.5-65.1,2134.5-97.8,2130.5-89.6z
	 M1760.8,1.4c-16.7,34.1-33.1,67.4-50.1,102.3c4.6,0,7.1,0.8,8.8-0.1c32.9-17.3,65.7-34.8,97.5-51.6c1.5-7.7,2.7-13.6,4.1-20.5
	c-13-11.4-26.3-23-39.4-34.5C1774.7-1.6,1768.2-0.2,1760.8,1.4C1744.1,35.5,1768.2-0.2,1760.8,1.4z M1727.6,610.2
	c14.3-16.8,30.2-35.4,45.6-53.5c-1.6-7.1-5.1-10.1-11.3-9.3c-7.3,1-14.6,2.6-21.9,3.2c-31.8,2.7-63.6,5.1-95.9,7.6
	c-1.2,1.7-2.8,3.4-3.7,5.4c-0.7,1.5-0.7,3.3-1.4,6.9c20.3,15,41.2,30.3,59.2,43.6C1709,612.7,1716.4,611.7,1727.6,610.2
	C1741.9,593.4,1716.4,611.7,1727.6,610.2z M1671.1,458.9c-17-30.8-33.9-61.4-52.5-95.1c0,56.1,0,108.4,0,161.4
	c4.2,2.6,8.4,5.2,13.2,8.2c12.3-14.1,24.2-27.8,37-42.6C1662.4,480.3,1665.5,469.6,1671.1,458.9
	C1654.1,428.1,1665.5,469.6,1671.1,458.9z M1776.6,561.1c-15.3,18.4-30.5,36.7-45.8,54.9c2.6,6.9,4.8,12.6,6.9,18.3
	c25,8.5,49.4,16.8,73.9,25.2c5.3,1.8,10,2.4,13.3-4.4c-10.9-30.8-22-62-33.1-93.4C1786.2,561.6,1781.7,561.4,1776.6,561.1
	C1761.3,579.5,1781.7,561.4,1776.6,561.1z M1697.2-339c-5.2,2.7-9.4,3.6-11.3,6.1c-18.5,25.2-36.5,50.6-54.4,75.6
	c3.8,7.9,7.1,15,10.9,22.9c18.2,1,36.8,2,54.4,2.9c5.6-7.1,10.1-12.8,15.3-19.5C1707-278.9,1704.2-308.1,1697.2-339
	C1692-336.2,1704.2-308.1,1697.2-339z M1910.4,762.5c-21.1-25.1-41.9-49.9-64.2-76.5c-3.3,5.2-6.7,8.1-7,11.3
	c-1.7,18.8-2.7,37.6-3.7,56.4c-0.6,11.3-0.9,22.7-1.3,35.2c5.3,4.2,10.4,11.4,19.6,9.6c15.4-3.1,30.7-6.9,43.1-9.7
	C1902.2,778.2,1906,770.8,1910.4,762.5C1889.3,737.4,1906,770.8,1910.4,762.5z M1760.6,362c0.6,0.9,1.2,1.7,1.8,2.6
	c16.4-11.1,32.7-22.3,48.3-32.9c0-5.4,0-9.3,0-14c-35.9-10.4-71.5-20.8-106.7-31c-3.6,4.6-6.5,8.1-9.2,11.7
	c-0.3,0.3,0.1,1.1,0.1,2.2c12.6,20.3,25.4,40.9,36.2,58.5C1743.4,360.3,1752,361.2,1760.6,362C1761.2,362.9,1752,361.2,1760.6,362z
	 M1713.8-369.8c15.2-10.5,30.7-21,46-31.7c13-9.1,25.8-18.4,38.7-27.6c4-2.8,7.6-6.4,5.4-11.2c-1.4-3-5.4-5.7-8.8-6.6
	c-17.3-4.9-34.8-9.5-52.4-13.4c-4.5-1-10.3-0.1-14.4,2c-5.9,2.9-10.9,7.7-14.9,10.8c-3,21.2-5.9,40.8-8.5,60.5
	C1704-380.3,1703.4-373.1,1713.8-369.8C1729-380.3,1703.4-373.1,1713.8-369.8z M1535.8-138.3c-0.5-3-0.2-5.5-1.2-6.1
	c-36.1-22.2-72.4-44.1-108.8-66.3c-5.8,4.2-10.7,7.7-16,11.6c5.9,18.6,11.4,36.3,15.6,49.7c11,7.4,18.6,12.5,28.8,19.4
	C1479.4-132.6,1507.4-135.4,1535.8-138.3C1535.3-141.3,1507.4-135.4,1535.8-138.3z M1642,552.3c13.8-0.7,26.3-1,38.7-2
	c22.1-1.9,44.2-4.5,66.3-6.3c8.4-0.7,16.1-2,25.4-8c-25.4-16.1-48.8-30.9-69.3-43.8c-12.3,1.8-21.5,3.2-32.4,4.9
	c-10.9,13.1-22.9,27.5-34.9,41.9C1638.3,544.1,1640.3,548.6,1642,552.3C1655.9,551.6,1640.3,548.6,1642,552.3z M1710.2,1090
	c14.1-12.8,28-25.5,43.6-39.6c-8.5-6.1-15.8-14.2-24.8-17.3c-25.6-8.7-51.9-15.4-78-22.6c-4.6-1.3-9.5-1.5-14.8-2.2
	c1.9,12.7,23.6,45.3,51.1,78.6C1694.7,1087.8,1701.9,1088.8,1710.2,1090C1724.3,1077.2,1701.9,1088.8,1710.2,1090z M1838.6,1110.6
	c-3.6-42.1-7.2-83.4-10.8-125.1c-3.6-1.6-7.1-3.2-10.5-4.7c-14.1,12.7-27.6,24.9-39.3,35.5c-1,11.5-1.8,20.4-2.5,29.5
	c15.8,18.9,31.9,38.2,47.9,57.5C1826.9,1107.7,1829.5,1113.4,1838.6,1110.6C1835,1068.5,1829.5,1113.4,1838.6,1110.6z M1703.4,485.3
	c23.2,14.7,45.6,28.9,68.2,43.2c6.4-2.5,12.5-5,18.4-7.3c4.7-20.7,9.3-40.8,13.9-61c-5-3.5-9.5-6.6-13.9-9.7
	c-26.3,7.2-51.7,14.6-77.3,21C1705.4,473.3,1704.5,478,1703.4,485.3C1726.6,499.9,1704.5,478,1703.4,485.3z M1626.8-198.6
	c-12.3,0-22.3,0-33,0c-7.9,13.9-15.8,27.6-23.9,41.7c2,5.5,3.9,10.6,6,16.5c27.6,4.3,55,8.5,83.4,12.9c2.8-3.7,5.7-7.6,8.7-11.7
	C1653.8-159.8,1640.2-179.4,1626.8-198.6C1614.6-198.6,1640.2-179.4,1626.8-198.6z M1769.6,1048.1c-4.4,2.2-9.4,3.6-12.9,6.7
	c-12.7,11.6-24.7,23.9-37.4,35.5c-6,5.5-5.2,10.6-1,17.3c33,5.5,66.4,11,100,16.5c2.8-3.9,4.9-6.9,6.8-9.5
	C1806.9,1092.7,1789.3,1071.7,1769.6,1048.1C1765.2,1050.3,1789.3,1071.7,1769.6,1048.1z M1736.6,762.4c-7.7,6.2-9.2,12-6.5,19.4
	c8.4,23.2,16.6,46.6,25.1,70.2c6.2,1.4,12,2.8,17,3.9c13.7-12.7,26.5-24.6,39.1-36.3c-0.3-6.5-0.6-12.1-1-18.9
	C1786,788.2,1761.6,775.4,1736.6,762.4C1728.8,768.6,1761.6,775.4,1736.6,762.4z M1707.9,135.2c-1.9,0.5-3.9,1-5.8,1.5
	c-9,40-10,81.3-17.7,120.9c6.1,6.7,11.1,3.6,15.5-0.4c14.3-13,28.4-26.2,43.2-39.9c-6-9.3-4.8-18.3,1.7-26.4
	C1732.2,171.9,1720.1,153.6,1707.9,135.2C1706,135.7,1720.1,153.6,1707.9,135.2z M1715.2,969.9c-11.8-3.2-20.2-5.6-30.6-8.4
	c-13.1,6.2-28.4,13.4-43.5,20.5c0,6.7,0,12.2,0,19.2c31.8,9.2,64.1,18.5,96.3,27.8c3.2-5,5.8-9.2,8.2-13
	C1734.7,999.4,1724.4,983.8,1715.2,969.9C1703.4,966.7,1724.4,983.8,1715.2,969.9z M1681.5-622.7c19.3,20,37.9,39.4,56.6,58.8
	c5.1-0.4,9.5-0.8,15.5-1.3c4.1-20.5,8.1-40.8,12.1-60.9c-4.3-4.5-8.5-8.9-14.1-14.7c-21.2,2.7-43.7,5.5-66.3,8.3
	C1683.8-628.5,1682.4-624.9,1681.5-622.7C1700.8-602.7,1682.4-624.9,1681.5-622.7z M1737.8,397.8c-13.6,21.6-26.9,42.6-40.6,64.3
	c2.7,2.4,5,4.5,7,6.3c23.3-6.5,45.3-13.6,67.8-18.6c13.1-2.9,21.4-8.6,24.1-23.6c-11.4-9.8-23.8-20.6-36.2-31.3
	c-4.2,1.4-7.3,2.9-10.6,3.4C1746.1,398.7,1742.8,398,1737.8,397.8C1724.2,419.3,1742.8,398,1737.8,397.8z M1918.2,57.8
	c-5.5-16.2-10.1-31.8-16-47c-5.7-14.7-7.3-31.2-18.7-46.7c-13.4,21.2-21.9,42.2-32.2,60.4c3.1,9.3,5.7,17.2,8.7,26.3
	c13.6,6.7,28.2,13.8,42.6,20.9C1907.9,67.1,1912.5,62.9,1918.2,57.8C1912.8,41.5,1912.5,62.9,1918.2,57.8z M1408.2-117.1
	c4-10.9,7-19.2,11.3-31.1c-4.4-13.9-10-31.5-15.6-48.9c-5.6-0.4-9.9-0.6-15.2-1c-11.8,33.6-23.5,66.9-34.9,99.4
	c3.6,5.6,7.2,7.1,12.3,4.3C1381-102.5,1395.9-110.5,1408.2-117.1C1412.2-128,1395.9-110.5,1408.2-117.1z M1647.5-646.6
	c-5.3-6.2-11.5-13.6-17.5-20.7c-11.8,3.9-12,3.9-12,16.8c-0.1,49.2,0,98.3,0.1,147.5c0,2.7,0.8,5.5,1.7,11.3
	c12.7-42.8,24.5-82.3,36.4-122.2c-3.2-3.6-6.6-7.4-10.3-11.5C1646.3-632.1,1646.9-638.8,1647.5-646.6
	C1642.2-652.8,1646.9-638.8,1647.5-646.6z M1640.7,345.4c28.4,8.7,57.5,17.6,90.6,27.7c-4.6-8.5-7-13.3-9.7-17.9
	c-6-10.2-11.9-20.5-18.3-30.5c-8.7-13.5-15.1-29.7-37.5-30.1c-7.6,6.5-17.4,14.9-25.1,21.5C1640.7,327.4,1640.7,335.6,1640.7,345.4
	C1669.1,354.1,1640.7,335.6,1640.7,345.4z M1816.7,158.6c-33.6-10.2-66.1-22.9-101.4-29.9c8.3,22.2,23,39.9,34.9,60.1
	c11.9-6.8,18.8,3.3,27.4,8c11.7-7.1,22.7-14.2,34-20.7C1818.3,172.3,1819.8,167.2,1816.7,158.6
	C1783.1,148.5,1819.8,167.2,1816.7,158.6z M1331.5-61.2c-14.6,17-28.6,33.2-42.5,49.4c0.5,1.6,1.1,3.2,1.6,4.8
	c31.1,2.2,61.7-5.2,92.3-7.4c1.5-4.6,2.7-8.2,4-12c-10.5-12-21-23.9-30.5-34.8C1347.1-61.2,1339.7-61.2,1331.5-61.2
	C1316.9-44.3,1339.7-61.2,1331.5-61.2z M1734.3-468.5c21.5,5.7,43.7,11.7,66.1,17.2c2.2,0.5,5.3-2.4,9.5-4.5
	c-16.4-22.9-31.6-44.5-47.5-65.7c-2.4-3.2-8.2-3.9-13-6c-8.7,14.9-16.2,27.9-23.1,39.6C1729.3-480.7,1731.6-475,1734.3-468.5
	C1755.8-462.9,1731.6-475,1734.3-468.5z"/>
</svg>
