<?xml version="1.0" encoding="iso-8859-1"?>
<!-- Generator: Adobe Illustrator 19.0.0, SVG Export Plug-In . SVG Version: 6.00 Build 0)  -->
<svg version="1.1" id="Layer_1" xmlns="http://www.w3.org/2000/svg" xmlns:xlink="http://www.w3.org/1999/xlink" x="0px" y="0px"
	 viewBox="0 0 2000 2000" style="enable-background:new 0 0 2000 2000;" xml:space="preserve">
<path d="M1425.757,849.263c-13.348,27.565-46.038,33.503-65.096,0.352c-48.221,0-96.828,0-145.436,0
	c1.393,1.572,2.787,3.145,4.18,4.717c-7.619,7.461-15.238,14.922-22.857,22.383c-1.43-1.293-2.859-2.585-4.289-3.878
	c0,57.874,0,115.748,0,174.391c12.786,6.832,23.552,16.906,23.027,32.406c-0.48,14.164-7.636,26.162-22.629,31.778
	c0,54.289,0,108.072,0,163.151c11.567,7.017,22.624,16.899,22.793,32.312c0.169,15.425-9.047,26.563-23.156,32.776
	c0,56.536,0,112.079,0,167.338c32.525,19.359,28.51,50,0.074,65.931c0,44.884,0,90.08,0,135.037
	c32.557,18.851,27.015,52.375,0.354,65.23c0,44.67,0,89.799,0,135.848c14.428,8.646,25.56,19.943,21.456,39.349
	c-3.237,15.306-14.114,23.915-28.083,26.336c-17.655,3.059-28.273-8.991-37.064-23.183c-85.817,0-171.744,0-257.708,0
	c-9.377,13.888-19.735,26.996-38.487,22.875c-13.26-2.914-23.276-11.039-26.5-25.776c-3.365-15.382,1.009-24.555,21.57-40.817
	c0-44.186,0-88.81,0-133.126c-30.687-24.05-30.803-45.412-0.111-66.65c0-44.751,0-89.949,0-134.918
	c-30.183-18.188-30.503-48.116,0.422-66.3c0-54.977,0-110.488,0-165.496c-33.342-21.99-27.928-50.677-0.353-66.989
	c0-53.449,0-107.256,0-160.823c-30.807-25.207-30.952-45.858-0.07-66.251c0-57.39,0-115.237,0-168.972
	c-10.177-9.619-18.339-17.333-30.471-28.799c-40.877,0-88.96,0-136.664,0c-24.574,31.077-46.426,31.148-66.016-0.041
	c-51.536,0-103.533,0-155.927,0c-9.109,16.694-21.638,26.585-41.671,21.271c-11.556-3.065-21.976-14.905-23.336-26.64
	c-1.852-15.977,4.333-25.904,23.323-36.666c0-84.346,0-169.116,0-254.897c-15.341-8.306-26.608-20.318-23.077-40.305
	c2.206-12.487,14.851-23.4,28.811-25.951c12.427-2.27,24.426,5.106,36.219,22.991c51.214,2.031,103.257-0.323,154.709,0.332
	c21.763-31.536,43.802-31.63,66.061-0.917c1.502,0.228,3.178,0.704,4.854,0.706c46.443,0.04,92.886,0.032,135.653,0.032
	c8.562-10.335,15.388-18.575,22.215-26.815c1.755,1.504,3.51,3.008,5.264,4.512c0-51.5,0-103.001,0-155.577
	c-13.527-6.335-22.836-17.282-22.799-32.741c0.036-14.867,9.344-25.195,23.505-32.466c0-59.188,0-118.627,0-178.726
	c-16.398-9.039-26.308-21.333-21.721-41.28c3.41-14.827,13.921-22.588,27.222-24.964c17.766-3.172,28.212,8.954,37.232,23.05
	c85.679,0,171.601,0,258.004,0c8.716-14.424,19.683-26.493,38.228-22.723c14.283,2.904,24.668,12.293,27.066,27.34
	c2.881,18.078-6.301,30.3-22.172,37.394c0,60.763,0,120.304,0,179.535c27.616,16.551,33.668,44.553,0.025,66.446
	c0,51.184,0,102.696,0,148.351c10.374,10.28,17.553,17.394,24.733,24.509c-0.987,1.215-1.974,2.431-2.962,3.646
	c48.645,0,97.29,0,147.008,0c6.359-13.108,17.174-22.999,32.399-22.809c14.345,0.18,25.675,8.39,31.051,22.873
	c52.807,0,104.862,0,157.601,0c7.217-14.866,18.497-24.729,35.983-22.279c15.19,2.129,26.242,13.193,28.077,26.165
	c2.706,19.131-6.737,31.45-23.499,39.338c0,84.559,0,168.809,0,254.193c3.158,1.942,7.061,4.032,10.63,6.589
	c15.281,10.951,17.786,34.004,5.088,48.44c-12.03,13.676-34.35,15.153-47.035,1.514c-3.428-3.686-6.126-8.052-10.327-13.666
	C1530.412,849.263,1478.453,849.263,1425.757,849.263z M1147.086,1111.86c2.26-4.398,4.521-8.795,7.144-13.899
	c-1.469-2.921-3.193-6.352-5.036-10.019c-15.753-2.458-31.335-4.89-46.473-7.253c-13.713,14.196-20.48,19.662-38.645,6.26
	c-16.087,10.834-32.451,21.855-47.274,31.838c-0.984,8.778-1.715,15.298-2.422,21.609c4.588,3.954,9.295,7.329,13.172,11.478
	c12.755,13.651,26.518,24.855,48.467,21.668c17.995-16.674,37.093-34.619,56.529-52.191c4.46-4.032,10.081-6.78,15.167-10.12
	c-3.81,4.767-7.133,10.044-11.513,14.213c-19.038,18.121-38.384,35.919-56.233,52.545c0,9.233,0,16.921,0,26.599
	c25.998,24.281,50.958,52.605,78.392,75.845c13.225-1.536,14.577-8.631,14.498-17.611c-0.292-33.247-0.149-66.499-0.164-99.749
	c-0.007-16.225-0.001-32.449-0.001-50.672c-2.623-1.607-7.385-4.523-11.167-6.84
	C1156.072,1107.942,1151.579,1109.901,1147.086,1111.86z M1268.437,715.534c-7.724-28.763-15.304-56.988-22.714-84.578
	c-5.743-1.948-10.493-3.56-17.073-5.792c-25.45,20.663-51.333,41.677-77.125,62.619c6.364,12.996-0.365,20.847-7.913,28.441
	c10.186,30.24,20.205,59.987,29.734,88.278c11.49,2.569,21.188,4.737,30.926,6.914c9.219-10.184,18.291-20.437,27.622-30.448
	c9.687-10.393,19.626-20.552,28.773-30.103C1255.917,733.112,1255.917,733.112,1268.437,715.534z M1104.472,203.717
	c-25.683-1.932-27.801-4.766-25.082-34.451c-14.831-15.853-30.344-32.435-46.009-49.179c-4.759,2.173-8.784,4.011-12.068,5.51
	c-3.886,19.835-7.583,38.701-11.184,57.085c4.995,7.107,9.8,13.946,14.215,20.228c-3.393,7.801-6.052,13.911-8.585,19.735
	c16.229,22.432,31.863,44.043,47.979,66.32c13.367-2.65,24.163,1.913,31.001,14.361c17.842-1.765,34.829-3.446,51.822-5.145
	c4.604-8.908,9.209-17.816,14.427-27.911C1142.782,248.832,1123.99,226.701,1104.472,203.717z M1086.054,592.145
	c21.208-16.987,44.639-35.755,65.552-52.506c-0.732-13.736-1.319-24.762-2.039-38.263c-11.598-7.903-25.034-17.058-38.634-26.324
	c-11.217,10.799-21.342,6.223-31.854-1.735c-29.739,13.772-59.437,27.525-89.159,41.289c-1.468,5.746-2.835,11.098-4.527,17.723
	c23.316,20.484,46.836,41.147,68.086,59.816C1064.891,592.145,1073.535,592.145,1086.054,592.145z M929.114,1007.499
	c5.385-40.359,10.702-80.2,15.455-115.824c-7.271-11.112-12.299-18.797-18.718-28.607c-10.606-3.012-24.049-6.829-34.866-9.901
	c-8.784,7.855-15.324,13.703-23.211,20.755c0,56.925,0,115.077,0,172.24c7.047,5.32,12.759,9.631,19.301,14.57
	c9.841-8.31,19.346-16.335,28.322-23.914C915.532,1021.92,915.532,1021.92,929.114,1007.499z M919.063,1930.198
	c-0.026,0.938-0.052,1.877-0.078,2.815c76.562,0,153.124,0,226.929,0c10.053-10.151,18.271-18.45,28.212-28.487
	c0-39.793,0.104-81.541-0.208-123.285c-0.024-3.146-2.999-6.27-5.49-11.14c-3.433,4.479-5.587,6.911-7.321,9.613
	c-15.957,24.862-31.677,49.879-47.838,74.606c-5.42,8.293-8.496,16.328-7.557,26.759c1.179,13.099-5.576,18.93-18.475,18.72
	c-2.828-0.046-5.992-0.016-8.403-1.22c-6.725-3.359-12.906-1.892-19.837-0.278c-37.97,8.845-76.096,17.018-114.146,25.519
	C936.211,1925.75,927.657,1928.062,919.063,1930.198z M1071.186,926.952c-13.648,8.438-28.561,17.659-44.544,27.541
	c0.76,5.551,0.149,11.667,2.473,16.314c13.672,27.337,28.021,54.335,42.174,81.429c0.736,1.409,1.774,2.661,2.456,3.669
	c5.598,0.504,10.629,0.958,15.823,1.426c5.154,6.524,10.038,12.705,14.912,18.875c14.586,1.552,28.961,3.081,41.42,4.406
	c5.82-11.373,10.381-20.287,15.856-30.986c-21.355-38.001-43.488-77.387-64.382-114.569
	C1087.271,931.93,1079.877,929.641,1071.186,926.952z M1388.845,631.895c13.508-4.452,25.886-8.494,38.239-12.613
	c17.2-5.735,34.511-11.178,51.492-17.506c5.174-1.928,13.189-2.572,11.835-13.342c-25.871-12.127-52.536-24.678-79.281-37.056
	c-1.948-0.902-4.746-1.311-6.698-0.639c-11.681,4.018-22.247-0.385-33.113-4.599c-36.846,19.164-73.467,38.211-110.566,57.507
	c1.868,3.502,2.542,6.838,4.034,7.257c28.238,7.931,56.573,15.517,84.001,22.936C1367.51,618.288,1371.031,619.685,1388.845,631.895
	z M960.532,1398.667c-30.088,36.662-54.678,76.401-81.441,115.357c13.865,13.592,15.187,28.859,6.609,45.872
	c7.271,3.519,13.872,6.735,20.492,9.912c26.077,12.516,52.22,24.897,78.198,37.616c6.493,3.179,11.769,4.851,14.83-4.083
	c-9.23-26.01-18.471-52.048-27.551-77.634c-17.599-0.085-19.715-1.698-27.27-21.306c4.811-5.866,10.368-12.64,16.134-19.67
	C960.532,1456.517,960.532,1427.592,960.532,1398.667z M968.938,860.986c-0.294,9.344,4.658,11.405,10.573,13.155
	c9.195,2.721,18.185,6.13,27.318,9.07c21.335,6.868,42.704,13.631,64.132,20.459c9.658-12.67,21.206-10.091,32.581-6.195
	c16.851-13.358,33.36-26.446,48.66-38.575c-1.047-11.016-1.991-20.95-3.053-32.122c-13.749-6.829-28.802-14.305-43.646-21.677
	c-11.625,10.339-22.914,9.471-33.224,0.484C1037.185,824.399,1003.22,842.608,968.938,860.986z M1002.588,718.325
	c-22.223-23.669-44.148-47.021-66.667-71.005c-17.161,5.059-23.985-6.626-28.707-19.074c-24.706-4.126-48.159-8.15-71.655-11.903
	c-7.113-1.136-14.06-1.039-15.308,9.819c20.548,30.429,41.478,61.425,62.675,92.817c14.168-4.056,23.534,1.605,28.906,14.18
	c28.857-1.624,56.765-3.195,85.654-4.821C999.031,725.306,1000.8,721.836,1002.588,718.325z M490.794,635.275
	c-17.164,57.26-34.466,114.981-51.817,172.863c3.524,2.321,6.22,4.096,10.078,6.637c10.105-9.356,19.688-18.255,29.301-27.12
	c9.598-8.852,19.228-17.67,29.319-26.939c-6.87-9.369-4.066-17.802,2.612-24.855c6.911-7.299,15.913-7.086,24.664-3.148
	c15.045-17.005,29.403-33.234,42.636-48.192c-1.147-7.712-2.05-13.788-3.123-21.003c-18.058-9.002-37.049-17.707-55.235-27.853
	C509.999,630.516,501.765,628.071,490.794,635.275z M950.512,623.523c33.162-5.145,66.926-7.638,99.785-15.849
	c0-4.767,1.202-8.881-0.179-10.124c-22.863-20.579-46.05-40.798-68.387-60.415c-20.83,5.608-22.137,5.077-35.69-13.968
	c-17.991-0.09-36.648-0.529-53.324,0.163c-4.868,9.277-8.452,16.108-12.044,22.952c12.602,18.455,25.032,36.813,37.682,55.019
	c1.902,2.738,4.761,6.696,7.294,6.785C936.65,608.476,942.733,616.381,950.512,623.523z M1101.074,1717.156
	c16.971,4.131,33.224,8.087,48.695,11.853c4.686-6.053,8.105-10.47,11.875-15.34c-26.274-42.268-52.429-84.128-78.3-126.162
	c-4.673-7.592-11.209-10.619-19.229-11.527c-12.623,11.412-24.853,22.468-36.22,32.744c-0.866,10.042-1.635,18.958-2.601,30.169
	c6.229,8.041,13.951,17.883,21.535,27.83c7.554,9.909,14.968,19.924,21.881,29.142
	C1091.097,1695.87,1093.078,1697.176,1101.074,1717.156z M539.628,757.746c28.027,20.342,54.83,39.796,79.231,57.507
	c11.725-3.811,20.299-8.872,28.777-8.716c8.487,0.157,16.878,5.525,26.076,8.889c21.958-16.146,44.439-32.481,66.649-49.176
	c4.334-3.258,9.748-6.885,6.339-15.504c-24.426-2.79-49.607-5.666-73.309-8.373c-16.089,18.908-21.195,18.782-43.457-0.401
	c-27.273,3.009-56.043,6.141-84.787,9.501C543.924,751.617,542.948,753.875,539.628,757.746z M887.988,283.718
	c33.955-22.799,65.96-44.288,96.583-64.85c0-10.438,0-19.264,0-26.218c-19.812-19.723-38.815-38.641-58.749-58.486
	c-3.863,1.188-9.192,2.826-14.805,4.552c-6.235,21.987-12.198,43.709-18.575,65.31c-6.342,21.482-13.098,42.842-19.073,62.303
	C878.861,272.863,882.909,277.677,887.988,283.718z M868.557,1340.455c-3.617,79.408-2.047,157.342,4.482,172.06
	c26.58-40.087,52.878-78.516,76.976-115.558c-1.695-10.315-3.024-18.395-4.579-27.856c-18.43-13.332-38.108-27.567-58.072-42.01
	C880.777,1331.771,874.856,1335.979,868.557,1340.455z M1119.901,683.319c-14.519-19.564-28.38-38.242-42.161-56.813
	c-6.505,3.895-13.602,3.162-16.861,11.482c-9.694,24.753-20.786,48.96-29.397,68.901c2.811,14.81,4.757,25.064,7.096,37.392
	c10.593,9.851,23.12,21.502,35.353,32.878c7.891-1.619,14.913-3.059,22.061-4.525c9.605-18.995,19.021-37.614,28.587-56.533
	C1114.008,706.153,1113.835,695.566,1119.901,683.319z M1058.511,321.34c-29.739,20.786-59.936,41.893-90.432,63.209
	c0.323,5.341,0.628,10.374,0.969,16c36.737,16.747,73.248,33.391,109.312,49.831c4.479-3.091,8.592-5.931,12.141-8.38
	c-5.812-39.294-11.275-76.232-16.677-112.752C1068.613,326.556,1064.103,324.227,1058.511,321.34z M615.163,662.982
	c-1.518,7.653-2.819,14.212-4.408,22.223c9.767,10.746,20.09,22.104,30.871,33.965c14.647-3.076,27.451-1.536,31.481,15.817
	c6.072,1.249,11.563,2.806,17.158,3.447c15.822,1.813,31.675,3.379,47.54,4.77c5.774,0.506,11.758,0.515,14.041-9.442
	c-20.35-29.287-41.642-59.928-60.892-87.633c-11.619-2.849-19.592-4.805-30.244-7.417c-10.962,5.701-25.029,12.996-39.069,20.342
	C619.631,660.107,617.749,661.405,615.163,662.982z M835.511,812.73c32.685-13.411,53.666-2.156,56.96,33.491
	c9.236,3.144,18.673,6.984,28.461,9.403c4.421,1.093,10.552,0.89,14.106-1.455c5.317-3.509,1.822-8.837-0.366-13.668
	c-12.355-27.275-24.415-54.684-35.082-78.687c-12.004-6.764-21.081-11.879-34.032-19.175c-23.196,2.416-50.792,5.291-78.322,8.159
	c-1.495,4.137-2.792,7.723-4.265,11.8C800.541,779.362,817.838,795.867,835.511,812.73z M1386.486,638.994
	c2.964,4.424,4.081,8.256,6.405,9.24c45.772,19.39,91.685,38.449,137.768,57.659c3.489-4.216,6.34-7.66,9.083-10.975
	c-9.12-27.541-17.986-54.313-26.107-78.838c-9.712-4.516-17.211-8.003-25.213-11.723
	C1455.814,615.437,1422.665,626.7,1386.486,638.994z M1103.499,1555.121c-6.455,10.189-11.372,17.95-16.925,26.715
	c26.148,41.99,53.224,85.47,81.036,130.134c6.053-13.169,7.982-94.621,4.581-135.961c-9.67-11.006-17.611-20.043-26.969-30.694
	C1132.085,1548.403,1116.273,1552.119,1103.499,1555.121z M1060.075,1726.137c0.948-9.532,1.77-17.799,2.832-28.472
	c-13.614-17.585-28.821-37.228-43.203-55.806c-7.822,0-13.488,0-20.497,0c-10,13.76-20.296,27.927-30.111,41.433
	c2.257,5.675,4.119,10.355,6.121,15.388c-2.175,5.057-4.381,10.186-6.767,15.734c10.576,15.808,21.224,31.725,31.159,46.575
	c8.981,1.137,16.119,2.04,24.346,3.081C1035.695,1751.741,1047.887,1738.937,1060.075,1726.137z M1168.158,1048.631
	c1.23-0.389,2.459-0.778,3.689-1.168c0-58.247,0-116.494,0-175.296c-4.906-2.961-9.661-5.832-14.786-8.925
	c-17.437,13.465-34.475,26.622-47.932,37.013c-2.578,13.368-4.332,22.462-6.276,32.542
	C1124.32,970.875,1146.239,1009.753,1168.158,1048.631z M1293.402,755.381c-11.982,0-20.018,0-29.693,0
	c-18.141,19.763-37.377,40.718-56.527,61.581c2.709,4.462,5.037,8.296,7.237,11.921c49.543,0,98.494,0,147.145,0
	c3.119-11.445,3.166-11.498-2.865-16.883c-9.358-8.355-18.717-16.712-28.206-24.918
	C1317.578,775.915,1304.54,764.89,1293.402,755.381z M617.704,534.617c-0.343-1.28-0.685-2.56-1.028-3.84
	c-26.136-4.372-52.708,0.647-78.93-1.511c-26.779-2.204-53.374,0.517-79.539,0.391c-3.835,6.712-6.891,12.06-9.963,17.438
	c11.155,16.623,21.87,32.591,30.213,45.023c14.085,3.409,24.153,5.846,36.795,8.906
	C547.739,579.967,582.722,557.292,617.704,534.617z M1000.589,103.2c13.692-23.517,19.078-24.594,42.347-9.05
	c30.484-9.54,61.66-18.094,91.383-30.812c-81.019,0-162.038,0-242.814,0c-3.174,5.3-5.778,9.648-8.535,14.251
	c7.068,7.399,14.123,14.784,22.03,23.062c13.683-8.804,22.029,0.358,30.94,10.522C957.573,108.505,979.465,105.805,1000.589,103.2z
	 M1102.731,1408.544c6.414,9.427,4.071,17.607,0.754,27.006c21.467,24.738,41.92,50.972,66.566,78.692
	c1.337-8.319,2.504-12.531,2.6-16.768c0.259-11.458,0.047-22.926,0.05-34.39c0.009-36.693,0.036-73.386,0.041-110.079
	c0.001-7.397,0.996-15.356-9.938-17.606C1143.13,1359.352,1123.256,1383.552,1102.731,1408.544z M1146.963,1306.999
	c-28.883-3.216-58.178-6.477-87.421-9.733c-4.267,4.795-8.006,8.995-11.743,13.194c10.81,30.616,21.498,60.887,32.322,91.542
	c3.446-0.229,6.203-0.814,8.846-0.483c3.127,0.392,6.155,1.575,9.716,2.549c20.131-24.435,39.672-48.154,58.713-71.267
	C1154.058,1324.546,1151.109,1317.252,1146.963,1306.999z M620.421,540.072c-33.571,21.599-66.501,42.751-99.389,63.969
	c-7.758,5.005-13.047,11.205-8.865,21.587c21.63,10.868,43.422,21.817,63.828,32.07c8.66-3.675,15.394-6.532,22.928-9.729
	c9.711-28.163,19.687-57,29.59-85.861C632.526,550.416,632.454,550.391,620.421,540.072z M1077.284,467.515
	c2.174-8.776-1.593-11.979-7.502-14.641c-34.469-15.526-68.818-31.317-103.937-47.352c-3.978,3.277-7.8,6.425-11.276,9.288
	c4.734,29.53,9.288,57.931,13.669,85.258c6.994,3.531,12.466,6.294,18.8,9.492C1016.734,495.725,1046.896,481.673,1077.284,467.515z
	 M931.961,378.825c-14.713-18.074-30.834-37.877-47.314-58.121c-5.497,3.784-10.846,7.466-15.639,10.765
	c-3.78,44.627-1.965,146.077,2.703,157.172c1.096,0.077,2.83,0.641,3.196,0.161c19.88-26.029,39.646-52.146,57.054-75.126
	C931.961,400.227,931.961,390.417,931.961,378.825z M913.007,738.376c-4.552,7.109-7.514,11.736-10.42,16.274
	c12.674,27.951,25.22,55.169,37.314,82.587c3.343,7.578,6.984,12.979,17.737,9.247c16.129-32.796,32.664-66.418,49.161-99.963
	c-3.823-4.647-7.034-8.55-9.805-11.919C968.572,735.879,940.7,737.131,913.007,738.376z M1422.7,750.835
	c8.502-9.029,8.411-16.386,2.11-24.369c-15.521-19.666-30.712-39.591-46.154-59.32c-6.771-8.651-12.981-8.964-21.429-1.254
	c-12.265,11.195-24.5,22.426-36.622,33.774c-7.108,6.654-13.865,13.683-20.985,20.325c-4.925,4.595-5.671,9.445-1.75,16.179
	C1339.645,741.079,1381.836,746.035,1422.7,750.835z M1203.539,545.766c10.251,15.164,20.647,30.543,29.055,42.979
	c11.353,2.786,19.624,4.816,30.12,7.391c33.44-17.485,69.234-36.201,105.581-55.207c-3.026-4.745-5.088-7.979-7.241-11.357
	c-48.943,0-97.4,0-145.905,0C1211.304,534.934,1207.692,539.972,1203.539,545.766z M815.181,629.315
	c-12.295-2.18-13.11,5.793-14.652,11.101c-8.649,29.774-16.614,59.747-24.978,90.257c4.117,4.407,8.313,8.898,13.016,13.932
	c27.879-2.967,55.457-5.901,82.565-8.786c2.109-6.038,3.771-10.797,5.487-15.709C855.743,689.258,835.152,658.829,815.181,629.315z
	 M1167.356,268.165c1.272-0.11,2.544-0.221,3.816-0.331c0.571-4.285,1.587-8.565,1.632-12.856
	c0.152-14.284-0.094-28.571-0.098-42.857c-0.009-37.723,0.124-75.447-0.073-113.169c-0.024-4.583,2.29-10.698-6.618-13.574
	c-19.605,27.016-37.268,55.89-56.188,84.412c10.769,10.559,6.679,20.763-0.653,30.498
	C1128.922,223.326,1148.139,245.745,1167.356,268.165z M787.165,617.788c-29.645,2.929-58.319,5.762-85.484,8.446
	c-3.462,5.875-5.688,9.653-7.974,13.533c21.953,31.467,43.315,62.085,64.261,92.108c9.003-1.856,12.877-5.373,14.745-13.457
	c4.819-20.86,11.209-41.358,17.026-61.985c2.576-9.135,5.281-18.233,7.734-26.68C793.38,625.004,790.437,621.587,787.165,617.788z
	 M435.997,549.375c0,81.809,0,161.867,0,241.926c0.573,0.069,1.146,0.138,1.718,0.208c15.923-52.889,31.846-105.778,47.78-158.701
	c-11.531-8.451-16.632-18.237-8.437-31.447c-10.575-16.136-20.712-31.956-31.35-47.431
	C444.219,551.764,440.272,551.289,435.997,549.375z M1048.81,615.219c-33.95,5.079-66.993,10.023-99.216,14.844
	c-2.697,6.198-4.868,11.186-6.929,15.924c21.138,22.479,41.878,44.533,62.697,66.672c6.122-0.575,11.757-1.105,17.935-1.686
	c11.953-27.693,23.806-55.156,35.649-82.594C1055.41,623.787,1052.672,620.233,1048.81,615.219z M457.822,828.786
	c38.828,3.027,146.232,1.8,158.614-1.678c0.171-1.115,0.872-2.907,0.437-3.247c-25.78-20.176-51.653-40.233-78.379-60.97
	c-8.843,8.983-18.922,5.924-28.527,3.907c-19.41,17.85-38.281,35.203-56.977,52.395C455.002,823.187,456.25,825.664,457.822,828.786
	z M1414.623,811.825c4.365,6.95,7.664,12.205,11.264,17.937c11.038,0,21.891-0.01,32.745,0.003
	c10.309,0.012,20.618,0.07,30.926,0.069c10.82-0.001,21.639-0.057,32.459-0.072c10.31-0.014,20.631,0.286,30.927-0.086
	c10.271-0.371,20.977,2.109,34.872-3.508c-44.169-22.703-84.748-43.561-123.463-63.461c-9.935,4.051-17.226,7.023-25.356,10.338
	C1431.279,785.325,1423.161,798.24,1414.623,811.825z M1079.42,328.343c1.987,12.762,3.947,25.601,5.993,38.426
	c2.142,13.427,4.883,26.783,6.404,40.279c1.402,12.443,1.934,24.924,9.237,39.729c21.969-41.736,42.211-80.189,61.898-117.59
	c-5.274-8.153-9.833-15.203-14.995-23.183c-17.786,1.318-36.745-2.753-52.319,3.691
	C1089.082,317.233,1084.284,322.749,1079.42,328.343z M978.489,1492.987c4.571,5.835,7.028,11.673,11.381,14.079
	c24.282,13.421,49.024,26.01,73.452,38.802c5.356-2.752,9.804-5.037,14.345-7.37c1.978-32.221,3.928-63.973,5.93-96.573
	c-3.71-2.375-7.378-4.723-11.277-7.219C1041.566,1453.807,1011.225,1472.653,978.489,1492.987z M825.023,529.309
	c-48.277,0-95.244-0.017-142.21,0.078c-1.455,0.003-2.908,1.166-7.447,3.11c37.887,23.309,74.646,44.156,108.811,64.629
	c11.236-3.15,20.561-5.764,31.943-8.955c6.818-12.284,14.737-26.552,22.348-40.264C833.494,541.027,829.53,535.543,825.023,529.309z
	 M868.847,1571.532c0,45.63,0,91.26,0,135.726c7.623,6.648,14.397,12.556,21.478,18.732c14.543-6.914,28.815-13.698,42.246-20.083
	c2.649-8.392,5.002-15.846,7.81-24.741C917.841,1645.128,896.015,1606.933,868.847,1571.532z M1150.738,67.2
	c-36.14,11.116-72.106,22.178-107.569,33.085c-1.701,6.539-2.947,11.332-4.216,16.21c15.657,17.241,30.993,34.127,45.674,50.293
	c4.959-0.722,8.214-1.249,11.484-1.658c3.31-0.414,6.635-0.712,10.281-1.095c18.315-27.84,36.425-55.367,54.331-82.583
	C1157.732,77.182,1155.145,73.49,1150.738,67.2z M1099.006,1866.574c21.503-33.982,41.993-66.364,60.543-95.68
	c-5.096-13.36-9.06-23.753-13.745-36.037c-14.356-3.71-30.602-7.909-45.845-11.849c-5.859,4.383-10.313,7.714-15.65,11.707
	c3.091,41.847,6.165,83.854,9.428,125.845C1093.842,1861.908,1095.888,1863.107,1099.006,1866.574z M1347.699,639.178
	c-27.752-6.987-57.085-14.373-85.589-21.549c-4.733,4.469-8.025,7.576-11.014,10.398c6.825,25.636,13.504,50.678,20.157,75.727
	c3.655,13.762,4.177,14.17,21.428,14.944c20.719-19.743,42.16-40.174,63.532-60.539
	C1353.599,652.33,1351.099,646.757,1347.699,639.178z M873.755,1110.796c17.719,32.056,35.688,64.565,53.23,96.301
	c6.855,0,11.835,0,16.434,0c13.387-21.28,26.324-41.844,39.302-62.473c-2.844-6.208-5.41-11.809-8.063-17.6
	c-25.636-7.608-51.277-14.286-76.185-23.049C887.979,1100.282,881.145,1101.606,873.755,1110.796z M830.576,819.982
	c-17.703-17.768-34.604-34.731-50.977-51.164c-9.068-0.674-18.209-1.353-30.262-2.249c-22.83,17.088-48.251,36.114-73.855,55.279
	c1.939,6.238,5.366,7.92,10.578,7.909c46.371-0.095,92.742-0.056,139.68-0.056C827.712,825.737,829.423,822.3,830.576,819.982z
	 M1082.404,623.473c14.849,19.607,28.817,38.049,42.338,55.901c4.436-0.85,7.24-1.388,12.112-2.322
	c11.018-41.286,22.277-83.472,33.72-126.347c-5.223-2.824-9.52-5.147-13.737-7.428c-24.327,19.285-47.876,37.953-71.951,57.038
	C1093.145,609.21,1086.408,615.799,1082.404,623.473z M1555.315,691.682c15.302-47.61,30.115-93.7,45.132-140.424
	c-3.658-3.027-7.068-5.849-11.809-9.773c-20.034,14.147-39.816,28.116-60.045,42.4c3.236,12.046-1.634,21.251-9.913,28.472
	c9.002,27.203,17.627,53.266,26.251,79.325C1548.823,691.682,1551.61,691.682,1555.315,691.682z M1171.154,486.87
	c3.17-22.796,2.217-143.211-1.811-157.24c-20.689,39.412-40.585,77.312-59.177,112.727c3.173,11.239,5.59,19.803,8.655,30.66
	c11.019,7.507,24.066,16.395,36.798,25.068C1161.345,493.953,1166.388,490.312,1171.154,486.87z M1601.772,800.813
	c0.776-0.303,1.551-0.606,2.327-0.909c0-77.862,0-155.724,0-233.586c-0.718-0.125-1.435-0.251-2.153-0.376
	c-13.797,42.875-27.595,85.75-41.166,127.923c3.89,6.6,7.308,12.4,11.153,18.922c-3.863,6.401-7.35,12.18-10.84,17.963
	C1574.643,754.09,1588.207,777.452,1601.772,800.813z M879.692,1913.859c16.992-15.361,33.903-30.65,50.941-46.054
	c-6.258-9.667-2.742-17.276,2.554-25.258c-17.536-24.722-35.21-49.64-52.731-74.342c-7.939,1.545-12.346,4.183-12.336,11.388
	c0.009,6.878-0.089,13.755-0.092,20.633c-0.015,32.675,0.074,65.35-0.085,98.024
	C867.907,1905.615,868.347,1912.142,879.692,1913.859z M1067.428,1879.916c-33.669-5.481-66.617-10.844-97.077-15.802
	c-7.608,4.763-12.457,9.423-18.132,10.89c-5.582,1.443-12.002-0.355-19.743-0.835c-15.347,13.944-31.844,28.932-49.243,44.741
	c2.361,3.835,4.872,7.915,7.484,12.157c3.35-1.191,5.414-2.176,7.588-2.66c53.497-11.932,106.97-23.974,160.554-35.503
	C1065.971,1891.373,1069.149,1888.878,1067.428,1879.916z M1067.346,1417.529c-27.607-9.388-54.854-18.653-82.248-27.968
	c-5.636,3.65-10.823,7.009-15.628,10.121c-3.279,35.692-1.958,78.286,3.238,89.861c31.865-19.698,63.576-39.301,95.62-59.109
	C1067.985,1425.939,1067.694,1422.107,1067.346,1417.529z M1464.918,756.507c39.957,20.463,80.679,41.317,121.872,62.412
	c3.965-3.177,7.829-6.273,12.507-10.02c-14.713-25.705-29.026-50.711-42.809-74.792c-5.176-1.448-9.418-1.761-12.665-3.722
	c-6.933-4.188-12.972-4.415-20.868-1.4c-15.262,5.826-31.285,9.639-46.904,14.566
	C1470.652,745.254,1464.865,747.141,1464.918,756.507z M1222.452,622.201c2.114-11.469,3.665-19.881,5.518-29.933
	c-8.954-12.982-19.19-27.823-29.419-42.655c-8.553,1.629-15.686,2.988-22.429,4.272c-5.947,21.57-12.266,42.139-17.2,63.036
	c-4.986,21.114-13.374,41.578-15.276,67.586C1174.579,663.538,1199.252,640.985,1222.452,622.201z M1587.35,532.753
	c-16.268-4.218-144.64-4.894-162.763-1.847c-2.823,4.591-5.737,9.329-9.542,15.517c26.118,12.306,51.514,24.273,75.368,35.512
	c7.156-2.966,12.248-6.576,17.519-6.858c5.807-0.311,11.778,2.435,18.093,3.949C1545.015,563.716,1566.945,551.836,1587.35,532.753z
	 M880.863,1565.456c-0.749,1.221-1.497,2.443-2.246,3.664c22.482,36.635,44.965,73.27,67.373,109.784c6.279,0,11.922,0,18.724,0
	c10.005-13.979,20.197-28.22,29.096-40.653c-2.539-9-4.509-15.978-6.602-23.399c-17.506-8.217-35.445-16.715-53.452-25.068
	C916.152,1581.618,899.485,1571.207,880.863,1565.456z M990.87,225.114c-0.665-0.677-1.329-1.354-1.994-2.032
	c-32.716,21.925-65.433,43.851-97.678,65.46c-0.759,10.268-1.452,19.656-2.103,28.464c16.678,20.399,32.843,40.17,48.857,59.757
	c12.161-1.307,11.901-11.049,12.957-18.77c2.602-19.018,4.244-38.168,6.48-59.217c-3.836-2.941-8.795-6.742-14.362-11.01
	c1.695-7.661,1.902-14.74,4.826-20.422c4.739-9.209,15.292-5.071,22.888-7.311C977.584,248.163,984.227,236.639,990.87,225.114z
	 M1046.837,1270.088c8.521,20.396,21.732,26.412,39.612,23.972c3.226-0.44,6.684,1.065,10.061,1.44
	c17.385,1.932,34.778,3.788,52.583,5.716c2.095-5.683,3.794-10.292,5.914-16.043c-27.365-26.045-54.574-51.942-81.621-77.684
	c-5.705,2.348-10.262,4.224-14.405,5.929C1054.578,1233.965,1050.343,1253.729,1046.837,1270.088z M1065.959,1063.112
	c0.797-0.992,1.595-1.984,2.393-2.976c-15.279-29.282-30.557-58.564-44.572-85.425c-11.136,0-20.245,0-29.989,0
	c-14.744,13.288-29.909,26.955-45.048,40.599c3.008,6.192,5.423,11.165,7.729,15.913
	C993.19,1041.917,1029.574,1052.515,1065.959,1063.112z M1369.654,815.354c11.798-8.212,24.382-11.973,39.075-5.929
	c8.898-13.91,17.376-27.163,26.035-40.698c-2.688-4.283-5.034-8.021-7.285-11.607c-22.77-2.384-44.846-4.487-66.867-7.062
	c-21.49-2.513-42.75-8.325-69.152-5.613C1318.197,771.355,1345.256,791.379,1369.654,815.354z M1380.459,660.388
	c19.002,24.479,37.766,48.651,56.966,73.386c7.769-6.621,14.533-3.426,19.45,1.062c6.718,6.132,12.357,5.183,20.106,2.324
	c15.351-5.665,31.296-9.706,46.911-14.684c2.845-0.907,5.287-3.077,9.864-5.841c-5.376-3.401-8.806-6.277-12.746-7.954
	c-42.149-17.941-84.379-35.693-126.588-53.493C1389.286,653.022,1384.465,652.164,1380.459,660.388z M1010.821,751.38
	c-16.722,34.119-33.053,67.439-50.144,102.311c4.628,0,7.136,0.757,8.79-0.112c32.912-17.29,65.726-34.768,97.458-51.624
	c1.533-7.718,2.708-13.631,4.068-20.478c-13.027-11.412-26.277-23.02-39.385-34.503
	C1024.724,748.434,1018.156,749.826,1010.821,751.38z M977.563,1360.201c14.294-16.773,30.197-35.435,45.629-53.543
	c-1.586-7.06-5.089-10.112-11.261-9.267c-7.321,1.002-14.578,2.631-21.925,3.249c-31.786,2.675-63.594,5.08-95.895,7.623
	c-1.219,1.701-2.758,3.39-3.734,5.358c-0.725,1.461-0.719,3.285-1.417,6.915c20.344,14.964,41.25,30.341,59.222,43.559
	C958.955,1362.667,966.388,1361.682,977.563,1360.201z M921.136,1208.937c-17.006-30.837-33.867-61.412-52.46-95.128
	c0,56.052,0,108.415,0,161.398c4.2,2.625,8.367,5.229,13.158,8.223c12.257-14.084,24.173-27.778,37.044-42.568
	C912.45,1230.329,915.516,1219.638,921.136,1208.937z M1026.621,1311.141c-15.296,18.369-30.541,36.677-45.753,54.944
	c2.602,6.901,4.757,12.617,6.891,18.277c24.993,8.522,49.441,16.814,73.851,25.218c5.33,1.835,10.034,2.366,13.342-4.361
	c-10.909-30.814-21.966-62.049-33.064-93.4C1036.2,1311.566,1031.733,1311.368,1026.621,1311.141z M947.177,411.038
	c-5.178,2.72-9.403,3.573-11.289,6.142c-18.47,25.159-36.55,50.605-54.445,75.556c3.783,7.945,7.142,15.001,10.923,22.942
	c18.165,0.981,36.791,1.987,54.381,2.937c5.588-7.118,10.063-12.818,15.285-19.47C957.015,471.08,954.196,441.925,947.177,411.038z
	 M1160.373,1512.482c-21.065-25.098-41.889-49.907-64.199-76.488c-3.342,5.207-6.718,8.112-6.998,11.29
	c-1.654,18.777-2.69,37.613-3.728,56.44c-0.626,11.349-0.879,22.719-1.342,35.203c5.29,4.236,10.371,11.414,19.575,9.55
	c15.411-3.121,30.693-6.882,43.053-9.695C1152.2,1528.24,1156.041,1520.835,1160.373,1512.482z M1010.593,1112.038
	c0.586,0.852,1.172,1.704,1.757,2.556c16.359-11.149,32.718-22.297,48.346-32.948c0-5.42,0-9.314,0-14.043
	c-35.932-10.44-71.538-20.785-106.675-30.994c-3.624,4.562-6.477,8.102-9.238,11.711c-0.259,0.339,0.051,1.112,0.141,2.232
	c12.552,20.269,25.359,40.948,36.203,58.459C993.361,1110.268,1001.977,1111.153,1010.593,1112.038z M963.802,380.235
	c15.232-10.507,30.661-21.025,45.954-31.737c12.986-9.096,25.796-18.443,38.727-27.618c3.969-2.816,7.649-6.436,5.402-11.231
	c-1.395-2.976-5.395-5.681-8.755-6.626c-17.34-4.878-34.773-9.506-52.358-13.385c-4.51-0.995-10.255-0.104-14.424,1.959
	c-5.92,2.931-10.906,7.749-14.945,10.758c-3.015,21.21-5.942,40.811-8.518,60.458C953.985,369.688,953.382,376.917,963.802,380.235z
	 M785.843,611.692c-0.519-2.995-0.235-5.546-1.165-6.116c-36.133-22.158-72.376-44.135-108.83-66.272
	c-5.807,4.189-10.74,7.747-16.026,11.56c5.865,18.644,11.409,36.267,15.638,49.711c10.964,7.367,18.614,12.507,28.816,19.362
	C729.354,617.402,757.402,614.567,785.843,611.692z M892.048,1302.31c13.817-0.688,26.298-0.952,38.711-2.007
	c22.131-1.881,44.203-4.475,66.34-6.279c8.351-0.68,16.119-2.024,25.44-8.04c-25.4-16.055-48.831-30.865-69.345-43.832
	c-12.272,1.84-21.512,3.225-32.41,4.859c-10.935,13.134-22.935,27.549-34.905,41.927
	C888.267,1294.114,890.345,1298.618,892.048,1302.31z M960.215,1839.951c14.067-12.792,28.013-25.474,43.599-39.647
	c-8.544-6.144-15.805-14.234-24.776-17.27c-25.613-8.666-51.897-15.364-77.979-22.612c-4.592-1.276-9.484-1.471-14.816-2.25
	c1.94,12.663,23.582,45.268,51.064,78.584C944.709,1837.788,951.864,1838.786,960.215,1839.951z M1088.571,1860.578
	c-3.619-42.108-7.169-83.415-10.754-125.13c-3.628-1.631-7.102-3.194-10.523-4.733c-14.108,12.74-27.61,24.934-39.349,35.534
	c-0.987,11.513-1.75,20.417-2.531,29.531c15.764,18.922,31.892,38.173,47.872,57.546
	C1076.897,1857.705,1079.457,1863.428,1088.571,1860.578z M953.438,1235.255c23.17,14.674,45.585,28.87,68.181,43.181
	c6.37-2.517,12.53-4.952,18.423-7.281c4.706-20.672,9.298-40.846,13.895-61.042c-5.009-3.493-9.532-6.646-13.867-9.669
	c-26.293,7.234-51.678,14.589-77.292,21.034C955.396,1223.336,954.473,1227.998,953.438,1235.255z M876.842,551.361
	c-12.267,0-22.308,0-32.998,0c-7.944,13.87-15.831,27.642-23.86,41.661c1.976,5.459,3.854,10.648,5.984,16.533
	c27.562,4.276,54.957,8.525,83.362,12.932c2.769-3.705,5.687-7.609,8.74-11.693C903.781,590.196,890.194,570.61,876.842,551.361z
	 M1019.585,1798.055c-4.397,2.222-9.445,3.594-12.893,6.727c-12.713,11.55-24.708,23.89-37.363,35.508
	c-5.994,5.503-5.186,10.639-0.953,17.32c33.031,5.464,66.421,10.988,100.013,16.546c2.764-3.865,4.92-6.88,6.828-9.547
	C1056.88,1842.673,1039.314,1821.658,1019.585,1798.055z M986.593,1512.425c-7.746,6.186-9.233,12.035-6.541,19.442
	c8.445,23.24,16.642,46.57,25.065,70.228c6.151,1.414,11.979,2.753,17.011,3.91c13.669-12.682,26.54-24.624,39.076-36.254
	c-0.346-6.522-0.644-12.132-1.005-18.944C1035.998,1538.187,1011.551,1525.439,986.593,1512.425z M957.919,885.242
	c-1.926,0.487-3.852,0.974-5.778,1.462c-8.984,40.006-10.03,81.289-17.699,120.927c6.106,6.718,11.086,3.617,15.484-0.371
	c14.314-12.98,28.422-26.187,43.24-39.891c-5.969-9.273-4.806-18.301,1.685-26.394C982.187,921.863,970.053,903.552,957.919,885.242
	z M965.201,1719.893c-11.768-3.239-20.223-5.566-30.612-8.426c-13.118,6.192-28.416,13.413-43.534,20.548c0,6.678,0,12.187,0,19.186
	c31.784,9.162,64.074,18.469,96.311,27.761c3.161-5.014,5.772-9.157,8.188-12.99
	C984.652,1749.421,974.357,1733.792,965.201,1719.893z M931.542,127.319c19.262,20.006,37.899,39.363,56.579,58.764
	c5.087-0.423,9.516-0.791,15.544-1.292c4.064-20.508,8.086-40.808,12.067-60.902c-4.314-4.507-8.521-8.904-14.078-14.711
	c-21.241,2.667-43.72,5.49-66.287,8.323C933.81,121.498,932.414,125.081,931.542,127.319z M987.817,1147.762
	c-13.641,21.575-26.903,42.553-40.636,64.274c2.657,2.405,4.999,4.524,6.964,6.302c23.295-6.516,45.329-13.638,67.839-18.607
	c13.083-2.889,21.43-8.582,24.111-23.609c-11.388-9.84-23.795-20.56-36.219-31.296c-4.209,1.404-7.325,2.93-10.592,3.395
	C996.135,1148.669,992.831,1148.021,987.817,1147.762z M1168.233,807.782c-5.452-16.232-10.1-31.841-15.951-46.986
	c-5.688-14.722-7.334-31.221-18.741-46.664c-13.435,21.182-21.927,42.245-32.222,60.409c3.06,9.267,5.673,17.181,8.691,26.32
	c13.627,6.675,28.223,13.825,42.621,20.878C1157.864,817.058,1162.51,812.902,1168.233,807.782z M658.231,632.901
	c3.959-10.913,6.961-19.187,11.274-31.077c-4.411-13.87-10.016-31.496-15.557-48.918c-5.559-0.361-9.915-0.643-15.202-0.986
	c-11.786,33.576-23.472,66.867-34.886,99.383c3.641,5.629,7.238,7.095,12.295,4.329C631.013,647.506,645.95,639.524,658.231,632.901
	z M897.475,103.406C892.209,97.166,886,89.81,879.977,82.674c-11.78,3.947-11.958,3.947-11.974,16.783
	c-0.062,49.175-0.019,98.35,0.07,147.525c0.005,2.737,0.775,5.473,1.659,11.313c12.742-42.82,24.48-82.261,36.366-122.205
	c-3.172-3.56-6.552-7.353-10.287-11.545C896.334,117.896,896.857,111.25,897.475,103.406z M890.678,1095.402
	c28.39,8.682,57.468,17.575,90.551,27.693c-4.555-8.467-6.953-13.275-9.667-17.899c-5.996-10.214-11.892-20.502-18.304-30.454
	c-8.696-13.496-15.125-29.719-37.526-30.094c-7.571,6.506-17.385,14.941-25.054,21.532
	C890.678,1077.369,890.678,1085.564,890.678,1095.402z M1066.657,908.619c-33.566-10.162-66.065-22.924-101.376-29.858
	c8.265,22.188,23.001,39.874,34.941,60.101c11.868-6.831,18.815,3.337,27.425,7.984c11.657-7.147,22.672-14.178,33.969-20.72
	C1068.257,922.281,1069.822,917.205,1066.657,908.619z M581.49,688.75c-14.615,16.98-28.552,33.173-42.49,49.365
	c0.538,1.597,1.075,3.195,1.613,4.792c31.101,2.193,61.711-5.17,92.321-7.366c1.509-4.575,2.696-8.175,3.955-11.992
	c-10.513-11.984-20.962-23.894-30.529-34.8C597.069,688.75,589.734,688.75,581.49,688.75z M984.26,281.465
	c21.522,5.68,43.733,11.709,66.082,17.176c2.209,0.54,5.261-2.361,9.524-4.45c-16.385-22.853-31.573-44.545-47.486-65.691
	c-2.418-3.214-8.201-3.896-12.955-5.98c-8.663,14.865-16.25,27.881-23.103,39.64C979.27,269.328,981.6,274.994,984.26,281.465z"/>
</svg>
