<?xml version="1.0" encoding="iso-8859-1"?>
<!-- Generator: Adobe Illustrator 19.0.0, SVG Export Plug-In . SVG Version: 6.00 Build 0)  -->
<svg version="1.1" id="Layer_1" xmlns="http://www.w3.org/2000/svg" xmlns:xlink="http://www.w3.org/1999/xlink" x="0px" y="0px"
	 viewBox="0 0 2000 2000" style="enable-background:new 0 0 2000 2000;" xml:space="preserve">
<path d="M22.989,995.736C9.907,460.627,460.246,44.443,927.061,19.109c277.95-15.084,523.182,64.19,729.356,251.133
	c209.667,190.11,318.726,429.904,324.23,713.198c4.654,239.528-69.927,454.841-222.551,639.422
	c-175.804,212.615-404.096,334.546-679.075,355.919c-290.691,22.594-546.709-69.038-758.253-270.086
	C135.197,1532.332,8.335,1265.041,22.989,995.736z M164.347,998.1c-10.192,440.176,367.96,856.539,866.522,838.944
	c429.541-15.158,790.444-368.804,804.624-805.273c16.456-506.54-383.236-851.58-790.512-871.517
	C542.473,135.655,156.221,549.064,164.347,998.1z M1000.78,1791.497c-427.689,4.579-803.054-350.451-792.218-813.691
	c9.771-417.737,350.3-781.778,811.399-771.539c422.925,9.391,774.03,350.549,772.616,796.96
	C1791.195,1439.778,1441.535,1791.837,1000.78,1791.497z M614.772,1104.519c-15.426,63.717-23.183,126.032-12.78,189.728
	c15.473,94.736,63.358,163.32,156.781,195.665c77.769,26.926,157.169,26.106,237.106,13.991
	c141.656-21.469,235.201-102.598,285.33-234.746c32.02-84.41,40.392-174.26,55.123-262.546
	c16.308-97.736,32.679-195.465,48.19-293.329c6.353-40.086,10.523-80.518,15.919-122.613c-74.704,0-147.174,0-221.147,0
	c-12.725,75.155-25.63,149.007-37.666,223c-19.266,118.443-37.609,237.037-57.087,355.445
	c-6.421,39.037-20.152,76.025-46.414,106.125c-44.561,51.073-102.765,47.604-161.533,35.496
	c-27.583-5.683-48.185-24.31-50.678-52.123c-3.53-39.376-1.166-79.298-0.935-118.984c0.065-11.112,1.485-22.217,2.412-35.108
	C754.87,1104.519,686.412,1104.519,614.772,1104.519z M1124.813,590.676c-135.28,0-267.881,0-403.489,0
	c2.551,11.013,3.42,20.126,6.753,28.225c14.408,35.012,46.633,38.075,77.302,38.443c92.96,1.115,185.946,0.091,278.922-0.094
	c9.837-0.02,19.674-0.003,32.014-0.003C1119.299,633.867,1121.967,612.969,1124.813,590.676z M785.52,700.823
	c-2.771,37.953,21.908,63.64,63.175,64.38c63.691,1.141,127.41,0.708,191.117,0.91c18.98,0.06,37.96,0.009,57.604,0.009
	c3.318-23.807,6.119-43.908,9.1-65.299C997.726,700.823,891.568,700.823,785.52,700.823z M850.766,806.494
	c1.907,37.878,3.709,56.497,51.949,61.987c57.64,6.56,116.597,1.547,177.585,1.547c3.144-19.272,6.587-40.379,10.365-63.534
	C1009.3,806.494,930.84,806.494,850.766,806.494z"/>
</svg>
