<?xml version="1.0" encoding="iso-8859-1"?>
<!-- Generator: Adobe Illustrator 19.0.0, SVG Export Plug-In . SVG Version: 6.00 Build 0)  -->
<svg version="1.1" id="Layer_1" xmlns="http://www.w3.org/2000/svg" xmlns:xlink="http://www.w3.org/1999/xlink" x="0px" y="0px"
	 viewBox="0 0 2000 2000" style="enable-background:new 0 0 2000 2000;" xml:space="preserve">
<path d="M987.998,11.7c287.235,165.836,572.862,330.744,857.673,495.18c0,330.116,0,657.93,0,988.271
	c-285.138,164.638-571.174,329.795-857.649,495.206c-286.342-165.343-572.686-330.687-857.628-495.222c0-330.63,0-657.912,0-988.255
	C415.132,342.473,701.154,177.324,987.998,11.7z M1672.04,607.408c-226.841-131.002-455.607-263.116-684.128-395.088
	C760.3,343.778,533.007,475.05,303.7,607.486c0,262.705,0,525.423,0,787.118c123.312,71.27,244.035,141.043,364.759,210.817
	c5.023,4.229,11.618,6.496,17.559,9.903c96.023,55.068,191.883,110.419,288.1,165.145c6.278,3.57,17.093,6.154,22.496,3.185
	c51.776-28.444,102.867-58.138,154.103-87.562c50.698-29.115,101.396-58.233,151.99-87.529
	c78.018-45.176,155.909-90.574,233.931-135.744c44.178-25.576,88.512-50.884,135.402-77.821
	C1672.04,1134.264,1672.04,872.58,1672.04,607.408z M459.02,693.793c178.32-102.946,353.484-204.069,528.96-305.373
	c176.411,101.83,353.144,203.846,529.987,305.926c0,203.501,0,407.308,0,613.071c-175.666,101.508-352.705,203.809-529.849,306.171
	c-176.906-102.194-353.816-204.391-529.098-305.647C459.02,1101.843,459.02,897.619,459.02,693.793z M793.034,759.5
	c0,70.571-3.301,139.658,0.954,208.276c4.036,65.091,40.88,109.661,103.854,130.916c52.065,17.573,105.563,4.877,159.555,9.912
	c0-28.426,0-54.861,0-82.524c-34.943,0-67.865,1.325-100.64-0.313c-48.22-2.409-73.928-21.384-81.182-63.156
	c-4.023-23.17-1.226-47.535-1.391-71.362c-0.109-15.721-0.021-31.442-0.021-48.373c105.804,0,208.219,0,310.475,0
	c0-28.732,0-56.111,0-83.377C1053.017,759.5,922.693,759.5,793.034,759.5z M787.474,1235.045c5.965,0.416,10.547,1.01,15.13,1.013
	c71.738,0.057,143.479,0.403,215.211-0.247c15.971-0.145,32.441-1.96,47.771-6.255c66.208-18.551,114.798-79.363,114.211-147.083
	c-0.341-39.266-0.084-78.538-0.092-117.807c-0.005-23.428-0.001-46.855-0.001-70.507c-87.604,0-173.688,0-260.395,0
	c0,27.607,0,54.276,0,82.044c60.187,0,118.648,0,176.655,0c0.894,2.007,1.647,2.913,1.651,3.821
	c0.149,32.984,0.353,65.969,0.284,98.953c-0.083,39.774-33.282,72.79-73.057,72.809c-73.309,0.034-146.617,0.01-219.926,0.011
	c-5.594,0-11.188,0-17.442,0C787.474,1180.011,787.474,1206.539,787.474,1235.045z"/>
</svg>
