<?xml version="1.0" encoding="iso-8859-1"?>
<!-- Generator: Adobe Illustrator 19.0.0, SVG Export Plug-In . SVG Version: 6.00 Build 0)  -->
<svg version="1.1" id="Layer_1" xmlns="http://www.w3.org/2000/svg" xmlns:xlink="http://www.w3.org/1999/xlink" x="0px" y="0px"
	 viewBox="0 0 500 500" enable-background="new 0 0 500 500" xml:space="preserve">
<path d="M26.922,249.215c0-27.131-0.533-54.275,0.169-81.388c0.558-21.558,9.3-40.208,23.631-56.326
	c8.742-9.832,19.67-16.575,30.882-23.037c34.594-19.938,69.122-39.988,103.749-59.868c10.062-5.777,19.974-12.083,30.639-16.491
	c29.128-12.039,57.149-8.282,84.115,7.503c41.433,24.254,82.947,48.376,124.636,72.186c21.57,12.319,37.193,29.479,44.47,53.253
	c2.887,9.432,4.51,19.616,4.601,29.477c0.457,49.462,0.389,98.932,0.163,148.398c-0.165,36.149-15.407,64.245-46.736,82.763
	c-32.535,19.232-65.35,37.992-98.111,56.84c-14.057,8.087-27.934,16.605-42.523,23.617c-18.206,8.749-37.545,9.77-57.312,5.294
	c-11.568-2.619-21.804-7.981-31.886-13.781c-31.512-18.129-63.032-36.248-94.389-54.642c-14.509-8.511-29.327-16.739-42.789-26.734
	c-17.872-13.269-28.014-32.106-31.814-53.962c-1.486-8.547-1.641-17.388-1.73-26.103c-0.227-22.331-0.076-44.665-0.076-66.998
	C26.716,249.215,26.819,249.215,26.922,249.215z M350.879,281.76c-8.613-8.833-16.701-17.128-24.831-25.465
	c-6.14,5.219-12.728,8.808-20.829,9.359c-18.834,1.281-36.261-13.031-36.419-30.453c-0.338-37.137-0.491-74.276-0.717-111.414
	c-0.012-2.041-0.002-4.083-0.002-6.196c-11.893,0-23.242,0-35.308,0c0,3.468,0.005,6.557-0.001,9.645
	c-0.113,61.346-0.154,122.692-0.468,184.036c-0.027,5.27-0.915,10.952-3.036,15.715c-5.802,13.028-18.588,19.888-32.89,19.182
	c-8.573-0.423-15.517-4.194-21.061-8.918c-8.532,8.254-16.819,16.27-25.355,24.528c1.39,1.33,2.655,2.692,4.071,3.871
	c24.89,20.72,57.414,21.98,83.762,3.811c18.151-12.517,28.972-29.98,29.781-52.728c0.27-7.6,0.797-15.191,1.23-23.233
	C299.284,305.921,326.748,303.812,350.879,281.76z"/>
</svg>
