<?xml version="1.0" encoding="utf-8"?>
<!-- Generator: Adobe Illustrator 25.1.0, SVG Export Plug-In . SVG Version: 6.00 Build 0)  -->
<svg version="1.1" id="Layer_1" xmlns="http://www.w3.org/2000/svg" xmlns:xlink="http://www.w3.org/1999/xlink" x="0px" y="0px"
	 viewBox="0 0 500 500" style="enable-background:new 0 0 500 500;" xml:space="preserve">
<path d="M249.1,2.2C112.7,2.2,2.2,112.7,2.2,249.1S112.7,496,249.1,496S496,385.5,496,249.1S385.5,2.2,249.1,2.2z M248.1,115.4
	c18.2,0,32.9,14.7,32.9,32.9s-14.7,32.9-32.9,32.9s-32.9-14.7-32.9-32.9S229.9,115.4,248.1,115.4z M248.1,409.1
	c-18.2,0-32.9-14.7-32.9-32.9s14.7-32.9,32.9-32.9S281,358,281,376.2S266.3,409.1,248.1,409.1z M381.6,320.9H112.1v-44h269.5V320.9z
	 M384.1,115.2c0,75.4-61.3,136.7-136.7,136.7s-136.7-61.3-136.7-136.7c0-0.1,0-0.3,0-0.4h43c0,0.1,0,0.3,0,0.4
	c0,51.6,42,93.7,93.7,93.7c51.6,0,93.7-42,93.7-93.7c0-0.1,0-0.3,0-0.4h43C384.1,114.9,384.1,115.1,384.1,115.2z"/>
</svg>
