<?xml version="1.0" encoding="utf-8"?>
<!-- Generator: Adobe Illustrator 26.2.1, SVG Export Plug-In . SVG Version: 6.00 Build 0)  -->
<svg version="1.1" id="juno" xmlns="http://www.w3.org/2000/svg" xmlns:xlink="http://www.w3.org/1999/xlink" x="0px" y="0px"
	 viewBox="0 0 500 500" style="enable-background:new 0 0 500 500;" xml:space="preserve">
<path d="M403.4,95.9c-41-41.1-95.7-63.7-153.7-63.7C191.6,32.2,137,54.8,96,95.9c-41,41.1-63.6,95.6-63.6,153.7
	c0,119.9,97.5,217.4,217.4,217.4c119.9,0,217.4-97.5,217.4-217.4C467.1,191.5,444.5,136.9,403.4,95.9z M313.2,219
	c-9.3,0-25.8,0-44.1,0c12.2,13,23.1,24.7,29.4,31.4c3.1,3.3,3.1,8.8,0,12.1c-3.1,3.3-8.2,3.3-11.3,0c-6.3-6.7-17.2-18.4-29.3-31.3
	c0,28.5,0,58.8,0,82.5c5.9,0,11.5,0,15.7,0c4.4,0,8,3.9,8,8.6s-3.6,8.5-8,8.5c-4.2,0-9.8,0-15.7,0c0,7.2,0,13.2,0,17.7
	c0,4.8-3.6,8.6-8,8.6c-4.4,0-8-3.9-8-8.6c0-4.5,0-10.5,0-17.7c-6.1,0-11.9,0-16.2,0c-4.4,0-8-3.9-8-8.6s3.6-8.5,8-8.5
	c4.3,0,10.1,0,16.2,0c0-23.7,0-53.9,0-82.4c-12.1,13-22.9,24.7-29.2,31.4c-3.1,3.3-8.2,3.3-11.3,0c-3.1-3.3-3.1-8.8,0-12.1
	c6.3-6.8,17.2-18.6,29.4-31.7c-18.5,0-35.2,0-44.6,0c-4.4,0-8-3.9-8-8.6s3.6-8.5,8-8.5c9.4,0,25.9,0,44.3,0
	c-12.1-12.9-22.9-24.5-29.2-31.2c-3.1-3.3-3.1-8.8,0-12.1c3.1-3.3,8.2-3.3,11.3,0c6.3,6.7,17.2,18.4,29.3,31.4c0-16.7,0-30.6,0-39
	c0-4.8,3.6-8.6,8-8.6c4.4,0,8,3.9,8,8.6c0,8.3,0,22.2,0,38.9c12.1-13,22.9-24.6,29.2-31.3c3.1-3.3,8.2-3.3,11.3,0
	c3.1,3.3,3.1,8.8,0,12.1c-6.3,6.7-17.1,18.3-29.1,31.3c18.3,0,34.7,0,43.9,0c4.4,0,8,3.9,8,8.6S317.6,219,313.2,219z"/>
<path d="M249.7,4.2C114.2,4.2,4.4,114.1,4.4,249.6S114.2,494.9,249.7,495c135.5,0,245.4-109.9,245.4-245.4S385.3,4.2,249.7,4.2z
	 M249.7,472.6c-123,0-223-100-223-223C26.7,190,49.9,134,92,91.9c42.1-42.1,98.1-65.3,157.7-65.3c59.6,0,115.6,23.2,157.7,65.3
	c42.1,42.1,65.3,98.1,65.3,157.7C472.7,372.6,372.7,472.6,249.7,472.6z"/>
</svg>
