<?xml version="1.0" encoding="iso-8859-1"?>
<!-- Generator: Adobe Illustrator 19.0.0, SVG Export Plug-In . SVG Version: 6.00 Build 0)  -->
<svg version="1.1" id="Layer_1" xmlns="http://www.w3.org/2000/svg" xmlns:xlink="http://www.w3.org/1999/xlink" x="0px" y="0px"
	 viewBox="0 0 2000 2000" style="enable-background:new 0 0 2000 2000;" xml:space="preserve">
<path d="M1003.188,1962.681c-523.052,4.894-965.824-426.742-965.367-965.051c0.451-530.022,433.026-964.972,967.156-964.345
	c533.307,0.626,964.961,435.809,964.779,965.631C1969.572,1535.671,1527.572,1968.119,1003.188,1962.681z M1906.524,998.217
	c-0.203-498.387-403.55-901.713-901.845-901.8c-500.346-0.087-903.763,403.064-903.563,902.965
	c0.2,498.161,403.769,900.79,902.207,901.388C1500.976,1901.368,1907.557,1497.234,1906.524,998.217z M1004.078,138.619
	c475.732,0.516,860.518,386.003,860.017,861.55c-0.498,472.688-385.757,861.677-867.23,858.107
	c-474.042-3.515-857.081-390.932-853.373-866.877C147.131,524.149,526.729,139.478,1004.078,138.619z M1841.419,997.987
	c-0.264-461.648-374.895-835.349-836.949-836.203c-457.984-0.847-837.306,369.567-838.212,835.835
	c-0.898,462.333,374.479,837.621,837.349,837.734C1466.44,1835.465,1841.684,1460.422,1841.419,997.987z M1200.606,1375.439
	c-12.812-27.144-24.357-54.892-37.436-81.901c-62.065-128.17-162.856-205.888-303.607-229.713
	c-52.801-8.938-104.913-2.723-153.463,20.405c-90.896,43.299-143.682,115.564-154.771,215.847
	c-7.696,69.597,13.298,131.23,62.589,181.464c51.519,52.505,116.094,70.238,187.923,65.042c12.357-0.894,23.214-7.293,31.712-16.475
	c6.303-6.811,9.331-15.125,5.252-24.256c-3.97-8.886-7.635-18.164-13.189-26.031c-10.037-14.218-11.326-28.95-6.993-45.208
	c2.512-9.426,4.429-19.13,5.351-28.83c1.224-12.878-4.612-21.461-16.959-25.389c-13.486-4.291-27.308-4.221-40.935-0.268
	c-6.794,1.971-13.473,4.385-20.102,6.87c-12.886,4.83-23.618,1.036-31.517-9.247c-7.156-9.315-13.846-19.251-19.057-29.749
	c-18.475-37.216-8.73-78.07,24.577-103.01c34.243-25.64,72.759-29.247,112.82-18.452c53.428,14.397,95.136,46.444,126.238,91.327
	c50.974,73.561,62.07,154.439,36.673,239.581c-22.028,73.848-68.521,126.778-141.591,154.661c-1.302,0.497-2.248,1.925-4.507,3.943
	c3.747,1.197,6.095,2.284,8.554,2.679c22.336,3.588,44.592,7.967,67.058,10.392c75.794,8.181,151.083,4.392,225.847-10.785
	c77.079-15.646,149.845-42.783,217.908-82.038c226.126-130.42,364.851-365.204,369.894-625.026
	c1.26-64.914-6.425-128.811-21.935-191.749c-13.868-56.272-35.078-109.855-61.284-161.483c-1.461-2.878-4.117-5.149-6.217-7.703
	c-0.631,0.392-1.262,0.784-1.893,1.176c0.651,6.285,1.544,12.556,1.918,18.858c5.259,88.82-14.458,171.706-59.906,248.221
	c-41.11,69.211-97.825,122.817-167.143,163.024c-57.996,33.64-118.954,59.448-186.923,64.648c-2.177,0.167-4.279,1.316-6.772,2.122
	c0.35,2.525,0.253,4.588,0.936,6.349c18.308,47.253,26.149,96.276,25.168,146.84c-0.441,22.716-2.517,45.185-9.166,67.031
	c-4.244,13.946-9.93,27.138-21.095,39.064C1213.666,1398.173,1206.209,1387.309,1200.606,1375.439z M359.391,1344.344
	c-0.588-4.954-1.421-9.894-1.727-14.866c-5.388-87.648,12.99-169.856,56.964-246.034c40.985-71.001,98.149-126.049,168.517-167.305
	c58.759-34.449,120.731-60.511,189.712-66.034c1.82-0.146,3.563-1.251,5.552-1.987c-0.172-1.848,0-3.259-0.455-4.425
	c-17.277-44.243-25.666-90.14-25.753-137.598c-0.056-30.552,1.835-60.828,13.541-89.574c4.028-9.89,8.456-19.647,17.625-27.122
	c11.02,9.175,18.461,20.44,24.217,32.564c11.574,24.38,22.183,49.215,33.458,73.739c57.435,124.921,152.768,203.821,287.135,233.858
	c54.949,12.283,110.123,9.748,162.259-12.609c103.809-44.516,161.092-124.369,166.231-237.056
	c3.546-77.766-28.176-142.261-92.144-188.501c-47.272-34.172-101.343-44.693-158.637-40.407
	c-12.359,0.924-23.13,7.356-31.684,16.528c-6.201,6.648-8.759,14.887-5.006,23.418c4.732,10.757,10.045,21.345,16.095,31.411
	c5.695,9.476,8.204,19.045,5.969,29.917c-2.448,11.904-5.118,23.791-6.845,35.807c-2.331,16.218,4.706,26.201,20.582,29.47
	c12.711,2.617,25.508,2.754,38.038-1.542c6.705-2.299,13.492-4.371,20.137-6.828c10.477-3.875,19.672-1.186,26.886,6.454
	c15.826,16.76,27.714,36.095,30.757,59.284c4.97,37.869-11.778,65.834-43.429,84.68c-37.886,22.559-78.386,22.06-118.235,6.636
	c-73.669-28.516-121.537-82.587-146.319-156.681c-20.852-62.344-19.489-125.193,4.005-186.734
	c24.563-64.341,67.972-111.116,132.71-136.872c2.247-0.894,4.309-2.255,7.568-3.989c-225.269-55.583-577.556,10.209-777.483,329.934
	c-100.237,160.3-130.915,335.377-97.956,521.367c13.246,74.745,38.533,145.441,74.522,212.134
	C357.263,1345.033,358.327,1344.689,359.391,1344.344z"/>
</svg>
