<?xml version="1.0" encoding="iso-8859-1"?>
<!-- Generator: Adobe Illustrator 19.0.0, SVG Export Plug-In . SVG Version: 6.00 Build 0)  -->
<svg version="1.1" id="Layer_1" xmlns="http://www.w3.org/2000/svg" xmlns:xlink="http://www.w3.org/1999/xlink" x="0px" y="0px"
	 viewBox="0 0 2000 2000" style="enable-background:new 0 0 2000 2000;" xml:space="preserve">
<path d="M1846.087,1489.3c-283.964,163.917-565.982,326.712-849.198,490.197c-283.432-163.651-565.2-326.34-840.667-485.392
	c0-332.945,0-657.677,0-982.871c283.137-163.501,562.235-324.669,846.579-488.868c280.279,162.09,561.834,324.918,843.285,487.686
	C1846.087,835.532,1846.087,1158.667,1846.087,1489.3z M855.09,1000.833c-147.67,85.831-284.072,165.113-425.901,247.549
	c194.914,113.247,383.353,222.733,569.888,331.112c191.401-111.411,377.734-219.873,567.947-330.593
	c-141.154-83.16-277.449-163.458-421.234-248.168c145.586-85.249,282.211-165.251,422.601-247.457
	c-191.768-112.116-378.841-221.486-566.9-331.434C810.803,532.884,623.319,642.059,431.708,753.637
	C573.997,836.714,709.656,915.92,855.09,1000.833z M999.102,1411.676c92.294-53.968,182.3-106.598,279.279-163.307
	c-93.308-55.127-180.416-107.173-268.489-157.532c-7.157-4.092-22.43,0.729-31.374,5.864
	c-83.866,48.144-167.173,97.259-258.167,150.497C817.541,1304.545,908.86,1358.427,999.102,1411.676z M1278.559,753.409
	c-99.812-57.41-190.815-109.752-281.821-162.097c-90.703,53.467-179.998,106.105-276.101,162.756
	c97.388,56.838,186.787,109.014,279.241,162.972C1093.708,861.946,1183.208,809.395,1278.559,753.409z"/>
</svg>
