<?xml version="1.0" encoding="iso-8859-1"?>
<!-- Generator: Adobe Illustrator 19.0.0, SVG Export Plug-In . SVG Version: 6.00 Build 0)  -->
<svg version="1.1" id="Layer_1" xmlns="http://www.w3.org/2000/svg" xmlns:xlink="http://www.w3.org/1999/xlink" x="0px" y="0px"
	 viewBox="0 0 2000 2000" style="enable-background:new 0 0 2000 2000;" xml:space="preserve">
<path d="M998.883,1744.996c-415.222,5.547-749.718-339.174-747.545-748.213c2.126-400.138,326.895-760.192,781.899-743.315
	c373.253,13.844,709.122,318.052,713.483,741.54C1750.961,1406.929,1415.785,1749.669,998.883,1744.996z M998.656,304.494
	c-375.672-10.973-731.369,319.517-695.666,758.921c26.392,324.819,305.946,635.668,697.209,634.996
	c390.356-0.67,700.319-311.845,698.84-704.937C1697.624,617.339,1387.139,296.58,998.656,304.494z M1151.168,1967.354
	c24.695-48.094,11.018-99.573,10.762-151.892c-12.95-3.346-22.409-7.855-31.897-7.918c-86.482-0.572-172.971-0.091-259.454-0.591
	c-21.62-0.125-35.679,8.855-36.682,30.211c-1.519,32.316-1.698,64.884,0.76,97.1c0.898,11.762,10.958,22.825,16.261,33.089
	C953.81,1967.354,1049.297,1967.354,1151.168,1967.354z M244.032,1612.286c4.097,6.618,21.982,11.985,28.551,8.55
	c31.587-16.52,62.837-34.488,91.133-55.988c8.073-6.134,12.444-29.556,7.282-38.736c-43.135-76.709-88.7-152.058-134.12-227.464
	c-5.272-8.752-14.128-15.345-24.321-26.105c-42.087,25.691-81.584,49.801-126.967,77.504
	C141.192,1442.691,191.83,1527.973,244.032,1612.286z M1772.458,1277.517c-46.461,80.041-92.806,160.156-138.161,240.827
	c-11.91,21.184,0.441,36.337,18.645,46.803c21.26,12.223,43.64,22.57,64.468,35.455c26.866,16.622,44.804,11.158,59.769-16.713
	c25.919-48.272,53.843-95.467,80.794-143.187c18.939-33.535,37.66-67.193,59.737-106.617
	c-46.342-25.916-86.736-48.506-126.934-70.986C1782.656,1269.32,1775.522,1272.237,1772.458,1277.517z M1900.407,629.955
	c-41.092-71.62-81.701-143.55-124.482-214.159c-26.708-44.08-32.155-43.982-79.264-17.891
	c-18.437,10.211-37.888,18.942-55.07,30.936c-10.033,7.004-16.493,19.126-25.501,30.092
	c60.004,89.816,102.761,185.928,167.674,270.014c45.341-27.416,84.022-50.805,121.811-73.654
	C1903.15,642.746,1903.507,635.358,1900.407,629.955z M218.663,739.617c54.962-96.846,105.389-185.701,159.712-281.422
	c-45.187-26.54-86.481-50.794-133.577-78.455c-55.165,97.947-115.727,186.162-159.852,290.33
	C134.747,695.971,175.201,717.012,218.663,739.617z M1152.936,192.582c21.966-49.36,6.393-98.601,10.225-155.601
	c-111.762-1.987-218.656-6.357-327.842,3.237c0,51.505,0,94.83,0,150.266C942.739,194.991,1045.865,191.3,1152.936,192.582z
	 M1171.915,846.695c-114.63,98.713-229.259,197.426-346.365,298.272c148.694,135.228,293.502,266.921,434.626,395.265
	c56.222,0,107.189,0,167.168,0c-148.428-134.59-290.806-263.694-434.474-393.967c151.479-139.892,297.992-275.199,448.854-414.521
	c-177.696,0-348.404,0-520.502,0c-18.07,34.64-35.902,68.825-56.175,107.687c106.523,0,204.149,0,301.776,0
	C1168.521,841.852,1170.218,844.273,1171.915,846.695z M814.448,652.682c-51.373,0-100.394,0-151.19,0
	c0,263.319,0,524.946,0,787.789c48.709,41.64,97.953,83.737,151.19,129.248C814.448,1260.051,814.448,956.403,814.448,652.682z
	 M896.25,519.745c-2.187,1.64-4.374,3.279-6.56,4.919c12.551,54.902,25.103,109.805,37.503,164.046c117.339,0,231.632,0,347.536,0
	c11.608-56.885,22.788-111.67,33.968-166.455c-2.562-0.838-5.124-1.677-7.685-2.515c-36.094,48.838-72.189,97.676-112.071,151.638
	c-30.72-80.276-58.872-153.842-89.372-233.545c-31.023,79.818-59.474,153.021-90.937,233.972
	C968.138,617.015,932.194,568.38,896.25,519.745z"/>
</svg>
