<?xml version="1.0" encoding="iso-8859-1"?>
<!-- Generator: Adobe Illustrator 19.0.0, SVG Export Plug-In . SVG Version: 6.00 Build 0)  -->
<svg version="1.1" id="Layer_1" xmlns="http://www.w3.org/2000/svg" xmlns:xlink="http://www.w3.org/1999/xlink" x="0px" y="0px"
	 viewBox="0 0 500 500" style="enable-background:new 0 0 500 500;" xml:space="preserve">
<path id="XMLID_4_" d="M41.125,127.274c71.021-41.12,140.756-81.496,211.158-122.258c70.137,40.606,140.161,81.146,211.23,122.29
	c-70.368,122.178-140.092,243.237-210.966,366.293c-24.755-40.918-47.168-81.408-70.427-121.389
	c-23.646-40.645-47.03-81.442-70.484-122.199C88.403,209.638,65.226,169.232,41.125,127.274z M247.496,15.901
	c-0.537-0.542-1.075-1.084-1.612-1.626c-64.653,38.03-129.306,76.06-194.525,114.423c1.955,1.372,2.837,2.334,3.922,2.704
	c32.985,11.234,65.954,22.515,99.036,33.458c4.06,1.343,8.825,1.576,13.108,1.054c20.524-2.503,40.987-5.495,61.485-8.217
	c39.79-5.285,79.591-10.487,119.383-15.759c32.114-4.255,64.221-8.564,96.331-12.85c-85.824-1.87-171.608-1.42-259.479-2.659
	C206.736,88.153,227.116,52.027,247.496,15.901z"/>
</svg>
