<?xml version="1.0" encoding="iso-8859-1"?>
<!-- Generator: Adobe Illustrator 19.0.0, SVG Export Plug-In . SVG Version: 6.00 Build 0)  -->
<svg version="1.1" id="Layer_1" xmlns="http://www.w3.org/2000/svg" xmlns:xlink="http://www.w3.org/1999/xlink" x="0px" y="0px"
	 viewBox="0 0 500 500" enable-background="new 0 0 500 500" xml:space="preserve">
<path d="M250.128,2c0.852,0,1.542,0,2.148,0c2.848,1.716,5.613,3.428,8.423,5.063c5.393,3.14,10.821,6.221,16.217,9.356
	c4.902,2.848,9.781,5.736,14.669,8.608c4.97,2.921,9.932,5.855,14.909,8.764c4.488,2.624,8.998,5.21,13.487,7.834
	c4.985,2.914,9.95,5.86,14.934,8.774c4.487,2.623,8.994,5.212,13.481,7.833c2.963,1.731,5.908,3.495,8.861,5.243
	c4.499,2.662,8.987,5.343,13.501,7.979c3.145,1.837,6.336,3.593,9.487,5.419c4.507,2.612,8.994,5.259,13.493,7.884
	c3.008,1.755,6.033,3.48,9.029,5.255c4.41,2.612,8.79,5.274,13.203,7.882c2.911,1.72,5.86,3.376,8.785,5.073
	c5.288,3.069,10.568,6.15,15.855,9.219c2.472,1.435,4.97,2.826,7.427,4.287c4.316,2.566,8.608,5.172,12.915,7.755
	c0.359,0.215,0.75,0.377,1.179,0.59c0,82.237,0,164.5,0,247.135c-1.298,0.768-2.797,1.651-4.294,2.54
	c-4.422,2.626-8.832,5.272-13.267,7.875c-2.959,1.737-5.969,3.386-8.927,5.124c-4.479,2.631-8.916,5.333-13.403,7.951
	c-3.232,1.886-6.54,3.643-9.77,5.533c-4.394,2.571-8.733,5.234-13.119,7.82c-3.001,1.769-6.055,3.449-9.06,5.213
	c-4.434,2.603-8.833,5.265-13.268,7.866c-2.914,1.709-5.881,3.327-8.796,5.033c-4.754,2.782-9.474,5.622-14.23,8.401
	c-3.006,1.757-6.071,3.413-9.073,5.177c-4.389,2.579-8.733,5.234-13.12,7.816c-2.956,1.741-5.965,3.392-8.928,5.122
	c-4.658,2.719-9.287,5.488-13.949,8.201c-3.137,1.826-6.325,3.563-9.463,5.389c-4.942,2.876-9.859,5.795-14.79,8.691
	c-4.25,2.496-8.503,4.988-12.756,7.479c-2.421,1.418-4.846,2.832-7.269,4.248c-3.358,1.962-6.716,3.924-10.072,5.889
	c-0.67,0.392-1.331,0.8-2.097,1.668c-1.126-0.422-2.317-0.722-3.365-1.287c-3.387-1.824-6.748-3.7-10.07-5.641
	c-5.006-2.924-9.953-5.948-14.957-8.874c-4.333-2.535-8.734-4.954-13.063-7.497c-4.175-2.452-8.28-5.023-12.444-7.492
	c-2.978-1.766-6.017-3.429-9.007-5.177c-4.555-2.662-9.083-5.37-13.638-8.033c-3.099-1.811-6.239-3.552-9.333-5.369
	c-4.443-2.609-8.85-5.278-13.293-7.887c-2.96-1.738-5.971-3.387-8.93-5.125c-4.479-2.631-8.916-5.334-13.402-7.953
	c-4.309-2.516-8.666-4.949-12.986-7.447c-5.201-3.007-10.39-6.035-15.575-9.071c-2.943-1.723-5.864-3.483-8.8-5.218
	c-4.651-2.75-9.297-5.509-13.963-8.235c-2.909-1.699-5.862-3.321-8.773-5.017c-5.164-3.009-10.306-6.054-15.465-9.071
	c-2.513-1.47-5.048-2.9-7.562-4.368c-2.455-1.434-4.895-2.893-7.255-4.291c0-82.481,0-164.749,0-247.099
	c4.53-2.699,9.065-5.432,13.629-8.113c5.2-3.054,10.427-6.062,15.642-9.091c3.328-1.932,6.665-3.849,9.979-5.803
	c4.476-2.64,8.924-5.328,13.405-7.959c2.914-1.711,5.884-3.326,8.798-5.038c4.526-2.66,9.01-5.39,13.54-8.043
	c3.033-1.776,6.135-3.434,9.167-5.211c4.466-2.617,8.885-5.314,13.348-7.935c3.05-1.791,6.16-3.479,9.21-5.27
	c4.527-2.658,9.014-5.384,13.539-8.044c2.986-1.755,6.026-3.42,9.016-5.169c4.511-2.639,8.994-5.328,13.501-7.974
	c2.917-1.713,5.865-3.372,8.782-5.083c4.645-2.723,9.264-5.491,13.917-8.199c3.055-1.778,6.175-3.446,9.226-5.232
	c4.576-2.679,9.107-5.435,13.675-8.128c2.822-1.664,5.68-3.268,8.518-4.906c4.053-2.34,8.105-4.681,12.146-7.042
	C249.875,2.461,250.011,2.148,250.128,2z M253.835,122.446c0.811,0,1.444,0,2.078,0c14.658,0,29.315,0.032,43.973-0.029
	c2.71-0.011,5.462-0.177,8.114-0.691c1.716-0.333,3.487-1.165,4.881-2.233c5.279-4.043,7.011-11.879,3.566-17.756
	c-2.696-4.598-6.649-6.949-11.819-6.986c-14.922-0.106-29.846-0.066-44.769-0.023c-5.715,0.017-11.43,0.206-17.145,0.3
	c-1.762,0.029-3.537-0.127-5.286,0.03c-3.658,0.326-6.531,2.269-8.788,5.004c-2.453,2.972-3.233,6.589-3.234,10.377
	c-0.004,59.321-0.002,118.642,0.003,177.963c0,0.633,0.069,1.267,0.087,1.9c0.015,0.519,0.003,1.039,0.003,1.537
	c-0.583,0.115-0.946,0.159-1.293,0.259c-4.871,1.402-9.281,3.728-13.558,6.428c-5.737,3.622-10.447,8.285-14.464,13.667
	c-4.231,5.67-7.199,12.046-8.919,18.855c-1.143,4.525-1.548,9.264-1.942,13.937c-0.201,2.377,0.465,4.813,0.538,7.229
	c0.137,4.488,1.299,8.76,2.896,12.868c1.408,3.622,3.212,7.11,5.08,10.527c2.573,4.707,6.009,8.762,10.021,12.338
	c3.273,2.917,6.844,5.343,10.676,7.496c4.621,2.597,9.528,4.423,14.637,5.413c4.592,0.89,9.298,1.405,14.071,0.812
	c2.934-0.364,5.852-0.48,8.768-1.252c3.661-0.969,7.206-2.09,10.65-3.684c4.1-1.898,7.793-4.366,11.276-7.187
	c3.41-2.762,6.313-5.989,8.988-9.48c2.856-3.726,5.173-7.719,6.865-12.065c1.049-2.696,2.075-5.44,2.694-8.254
	c0.802-3.65,1.498-7.377,1.668-11.096c0.175-3.816-0.253-7.672-0.57-11.497c-0.437-5.285-2.14-10.298-4.296-15.046
	c-2.163-4.764-5.006-9.187-8.478-13.222c-4.648-5.402-9.982-9.873-16.318-13.061c-3.492-1.757-7.199-3.084-10.8-4.601
	c0-36.589,0-73.449,0-110.463c0.8,0,1.371,0,1.943,0c12.055,0,24.113-0.141,36.165,0.058c6.183,0.102,11.172-4.607,12.606-10.11
	c0.97-3.725,0.534-7.389-1.574-10.735c-2.393-3.798-5.679-6.257-10.296-6.282c-12.321-0.067-24.642-0.023-36.963-0.023
	c-0.564,0-1.128,0-1.738,0C253.835,143.192,253.835,132.91,253.835,122.446z M232.075,316.121
	c-7.26,2.013-13.069,6.368-17.02,12.674c-4.166,6.65-6.292,13.901-4.731,22.012c0.779,4.048,1.757,7.86,3.843,11.442
	c3.289,5.648,7.786,9.915,13.746,12.557c5.981,2.651,12.073,3.7,18.661,2.036c6.046-1.527,11.079-4.362,15.449-8.761
	c4.482-4.513,7.011-9.993,8.234-16.036c1.049-5.182,0.551-10.414-1.054-15.508c-1.956-6.207-5.564-11.276-10.604-15.303
	c-3.012-2.406-6.433-4.204-10.189-5.107c-2.625-0.631-5.357-0.814-8.033-1.196C237.539,315.317,234.715,315.389,232.075,316.121z"/>
</svg>
