<?xml version="1.0" encoding="iso-8859-1"?>
<!-- Generator: Adobe Illustrator 19.0.0, SVG Export Plug-In . SVG Version: 6.00 Build 0)  -->
<svg version="1.1" id="Layer_1" xmlns="http://www.w3.org/2000/svg" xmlns:xlink="http://www.w3.org/1999/xlink" x="0px" y="0px"
	 viewBox="0 0 2000 2000" style="enable-background:new 0 0 2000 2000;" xml:space="preserve">
<path d="M1464.505,1084.734c41.503,0,76.122,0,116.644,0c4.396,33.272,8.417,63.705,13.5,102.182c47.494,0,94.982,0,147.547,0
	c5.095-30.286,10.248-60.911,16.609-98.719c35.776,0,72.836,0,126.127,0c-8.304,114.218-10.007,227.062-26.868,337.595
	c-10.952,71.798-61.969,127.164-125.622,164.608c-198.647,116.851-397.664,233.091-597.409,348.052
	c-93.869,54.026-190.304,52.706-283.857-1.172c-196.644-113.25-393.133-226.814-588.143-342.84
	c-99.335-59.102-147.197-149.93-146.965-266.189c0.439-220.075,0.34-440.151,0.044-660.227
	c-0.156-116.269,48.358-206.598,147.646-265.811C455.613,287.793,648.881,175.734,842.003,63.454
	c100.487-58.422,202.418-59.603,303.371-0.97c190.107,110.414,379.785,221.568,569.649,332.402
	c95.787,55.916,150.763,137.107,155.598,249.801c3.629,84.58,7.871,169.133,12.254,262.536c-143.919,0-280.078,0-416.25,0
	c-122.238-291.401-313.986-418.791-553.652-368.065c-224.564,47.53-375.523,236.259-372.926,466.232
	c2.559,226.653,162.38,413.623,388.001,453.913C1161.042,1500.911,1352.774,1368.703,1464.505,1084.734z M995.852,703.792
	c-159.281,1.793-288.141,133.471-288.138,294.44c0.003,164.808,137.143,299.965,298.694,294.375
	c159.643-5.523,285.681-138.729,283.391-299.507C1287.536,834.177,1153.26,702.02,995.852,703.792z"/>
</svg>
