<?xml version="1.0" encoding="iso-8859-1"?>
<!-- Generator: Adobe Illustrator 19.0.0, SVG Export Plug-In . SVG Version: 6.00 Build 0)  -->
<svg version="1.1" id="Layer_1" xmlns="http://www.w3.org/2000/svg" xmlns:xlink="http://www.w3.org/1999/xlink" x="0px" y="0px"
	 viewBox="0 0 500 500" style="enable-background:new 0 0 500 500;" xml:space="preserve">
<path d="M323.285,322.149c-12.208,0.163-24.425,0.67-36.62,0.36c-7.171-0.182-11.705-5.486-12.193-12.879
	c-0.251-3.792,0.028-7.616-0.086-11.42c-0.423-14.147-11.377-24.932-25.052-24.738c-13.325,0.189-23.743,10.821-24.173,24.749
	c-0.117,3.805,0.156,7.627-0.085,11.421c-0.472,7.423-4.972,12.691-12.168,12.871c-12.197,0.304-24.414-0.196-36.623-0.358
	l0.139,0.141c-0.244-2.952-0.697-5.903-0.701-8.855c-0.047-40.52-0.032-81.04-0.032-121.56c0-2.935,0-5.87,0-9.402
	c-3.396-0.169-6.018-0.393-8.641-0.413c-7.886-0.059-15.781,0.19-23.657-0.103c-11.396-0.424-19.132-8.412-19.562-19.855
	c-0.143-3.802-0.119-7.616-0.011-11.42c0.325-11.47,7.642-19.454,19.05-20.525c4.045-0.38,8.164-0.317,12.227-0.082
	c12.217,0.707,19.998,8.617,20.597,20.952c0.237,4.884,0.05,9.788,0.054,14.683c0.002,2.674,0,5.347,0,8.508
	c2.753,0.251,4.841,0.592,6.931,0.606c9.518,0.062,19.039-0.12,28.553,0.079c8.79,0.184,13.498,4.944,13.871,13.654
	c0.151,3.529-0.047,7.072,0.056,10.604c0.419,14.322,11.115,25.05,24.804,24.942c13.695-0.108,24.084-10.839,24.46-25.299
	c0.064-2.446-0.003-4.895,0.017-7.342c0.099-12.066,4.606-16.519,16.909-16.601c8.158-0.055,16.317,0.018,24.475-0.029
	c2.389-0.014,4.776-0.245,7.997-0.422c0-5.584-0.018-10.688,0.007-15.792c0.014-2.99-0.109-6,0.185-8.965
	c1.143-11.505,8.682-18.827,20.242-19.571c4.061-0.261,8.179-0.3,12.228,0.053c11.446,0.996,18.892,8.908,19.297,20.32
	c0.144,4.073,0.172,8.166-0.042,12.234c-0.578,10.973-8.32,18.853-19.313,19.257c-8.962,0.329-17.946,0.067-26.92,0.116
	c-1.574,0.009-3.147,0.26-5.7,0.486c0,3.994,0.002,7.725,0,11.457c-0.004,5.439,0.175,10.886-0.058,16.315
	c-0.37,8.583-5.307,13.392-13.944,13.789c-3.528,0.162-7.073-0.052-10.604,0.073c-14.159,0.5-24.933,11.47-24.717,25.093
	c0.211,13.294,10.857,23.671,24.823,24.118c3.804,0.122,7.627-0.154,11.418,0.096c7.405,0.487,12.715,5.058,12.866,12.195
	c0.259,12.195-0.259,24.406-0.45,36.61C323.14,322.295,323.285,322.149,323.285,322.149z M323.285,322.149
	c0.179,5.685,0.408,11.369,0.524,17.056c0.11,5.425-0.251,10.883,0.218,16.272c1.009,11.575,8.775,18.795,20.286,19.2
	c4.335,0.152,8.699,0.224,13.02-0.081c10.069-0.71,17.716-8.382,18.323-18.425c0.294-4.866,0.278-9.778,0-14.646
	c-0.505-8.842-6.475-15.861-15.187-17.828c-3.137-0.709-6.44-0.843-9.676-0.928c-9.215-0.243-18.435-0.326-27.652-0.472
	L323.285,322.149z M176.423,322.293c-9.217,0.147-18.435,0.231-27.65,0.473c-3.235,0.085-6.539,0.206-9.675,0.917
	c-8.703,1.974-14.656,8.979-15.179,17.84c-0.287,4.866-0.303,9.779-0.002,14.643c0.603,9.736,7.935,17.506,17.531,18.327
	c5.385,0.461,10.868,0.428,16.259,0.008c8.436-0.659,15.283-6.762,17.122-15.031c0.698-3.14,0.795-6.444,0.888-9.682
	c0.265-9.21,0.387-18.423,0.565-27.635L176.423,322.293z M427.803,252.885c0-2.175,0.095-4.356-0.016-6.525
	c-0.528-10.341-7.095-18.105-17.415-19.482c-5.59-0.746-11.445-0.709-17.037,0.041c-9.967,1.337-16.613,8.676-17.464,18.655
	c-0.391,4.588-0.404,9.269,0.018,13.852c1.012,11.004,8.92,18.439,19.875,18.894c4.613,0.191,9.264,0.256,13.859-0.112
	c9.629-0.772,17.159-8.37,18.066-17.986c0.229-2.425,0.034-4.89,0.034-7.336C427.749,252.885,427.776,252.885,427.803,252.885z
	 M279.363,401.068c0-1.36-0.095-2.727,0.015-4.078c1.163-14.358-11.223-23.251-22.287-22.37c-2.973,0.237-5.984-0.068-8.97,0.062
	c-11.48,0.498-19.534,7.842-20.613,19.154c-0.437,4.58-0.439,9.268-0.016,13.85c1.009,10.927,8.986,18.417,19.903,18.952
	c4.069,0.199,8.165,0.202,12.233-0.012c11.352-0.596,19.222-8.586,19.708-19.849c0.082-1.9,0.012-3.806,0.012-5.71
	C279.353,401.068,279.358,401.068,279.363,401.068z M130.941,247.45c-0.306-11.961-7.631-19.995-19.453-20.966
	c-4.317-0.354-8.719-0.354-13.03,0.05c-11.088,1.038-18.346,8.515-19.357,19.59c-0.172,1.888,0.039,3.811-0.114,5.702
	c-1.358,16.744,7.369,27.036,26.279,26.924c15.98-0.095,27.529-7.826,25.683-26.409C130.947,250.711,130.983,249.079,130.941,247.45
	z M259.044,130.035c12.294-0.452,20.016-8.327,20.301-20.746c0.087-3.8,0.147-7.611-0.028-11.406
	c-0.504-10.925-8.208-18.723-19.195-19.338c-4.332-0.242-8.698-0.218-13.033,0.003c-10.445,0.533-17.775,7.131-19.405,17.469
	c-0.419,2.659-0.324,5.412-0.329,8.122c-0.035,19.064,6.851,25.918,25.985,25.906C255.241,130.044,257.145,130.105,259.044,130.035z
	 M309.03,441.847c0.267,8.192,7.233,14.637,15.524,14.363c7.932-0.262,14.28-6.78,14.318-14.699
	c0.038-8.145-6.842-14.914-15.061-14.816C315.643,426.791,308.769,433.838,309.03,441.847z M64.49,315.575
	c-8.249-0.094-15.117,6.602-15.121,14.744c-0.004,7.788,6.464,14.462,14.305,14.759c8.38,0.318,15.11-5.996,15.304-14.36
	C79.174,322.244,72.886,315.671,64.49,315.575z M420.621,330.603c0.131,8.096,6.291,14.307,14.36,14.48
	c8.192,0.175,15.152-6.519,15.225-14.644c0.073-8.127-6.757-14.895-14.995-14.858C426.787,315.618,420.483,322.108,420.621,330.603z
	 M168.77,78.358c7.924-0.37,14.2-6.925,14.206-14.838c0.007-8.221-6.832-15.019-14.982-14.892
	c-8.216,0.128-14.778,6.993-14.588,15.262C153.595,72.092,160.651,78.737,168.77,78.358z M323.543,48.602
	c-8.092,0.304-14.894,7.612-14.467,15.541c0.42,7.784,7.236,14.278,14.96,14.254c8.056-0.025,15.043-7.141,14.876-15.15
	C338.743,55.183,331.523,48.302,323.543,48.602z M79,174.539c-0.083-8.069-6.286-14.427-14.275-14.63
	c-8.138-0.207-15.252,6.531-15.374,14.562c-0.121,7.905,7.004,15.161,14.895,15.169C72.38,189.647,79.085,182.785,79,174.539z
	 M420.628,175.216c0.231,7.921,6.727,14.35,14.578,14.428c7.862,0.078,15.06-7.133,15.018-15.045
	c-0.043-8.031-7.096-14.84-15.236-14.707C426.68,160.028,420.381,166.749,420.628,175.216z M182.976,441.354
	c-0.056-8.001-6.484-14.501-14.49-14.653c-8.335-0.157-15.139,6.562-15.077,14.889c0.059,8.018,6.461,14.472,14.496,14.614
	C176.294,456.352,183.034,449.711,182.976,441.354z M71.821,419.076c-0.095,3.958,2.995,7.303,6.949,7.521
	c4.223,0.233,7.883-3.321,7.765-7.54c-0.109-3.906-3.439-7.119-7.381-7.119C75.193,411.937,71.916,415.127,71.821,419.076z
	 M249.573,493.336c3.962,0.131,7.829-3.814,7.622-7.776c-0.202-3.864-3.614-6.924-7.608-6.825c-3.97,0.099-7.29,3.396-7.263,7.213
	C242.35,489.629,245.868,493.213,249.573,493.336z M413.388,78.583c-4.07-0.184-7.463,2.704-7.772,6.614
	c-0.32,4.044,3.359,7.979,7.439,7.957c3.713-0.02,7.283-3.502,7.404-7.219C420.585,82.062,417.414,78.765,413.388,78.583z
	 M250.32,4.247c-3.911-0.333-7.999,3.475-7.99,7.442c0.009,3.828,3.338,7.079,7.318,7.148c3.994,0.069,7.378-3.017,7.549-6.882
	C257.357,8.296,254.026,4.563,250.32,4.247z M86.523,86.195c0.271-3.911-2.721-7.273-6.745-7.582
	c-4.415-0.339-7.986,2.875-7.952,7.157c0.031,3.854,3.341,7.309,7.118,7.43C82.62,93.317,86.263,89.95,86.523,86.195z
	 M487.04,241.463c-4.21,0.081-7.598,3.899-7.166,8.074c0.397,3.836,4.003,6.85,7.838,6.552c3.833-0.298,7.035-3.872,6.843-7.637
	C494.362,244.69,490.814,241.39,487.04,241.463z M12.661,241.481c-3.769-0.143-7.366,3.075-7.645,6.84
	c-0.296,3.998,3.448,7.901,7.5,7.818c3.86-0.079,7.159-3.41,7.204-7.275C19.765,244.99,16.552,241.629,12.661,241.481z
	 M420.384,419.124c-0.09-4.164-3.982-7.57-8.153-7.134c-3.872,0.405-6.899,4.012-6.583,7.844c0.318,3.849,3.872,6.976,7.706,6.78
	C417.205,426.417,420.467,422.941,420.384,419.124z"/>
</svg>
