<?xml version="1.0" encoding="iso-8859-1"?>
<!-- Generator: Adobe Illustrator 19.0.0, SVG Export Plug-In . SVG Version: 6.00 Build 0)  -->
<svg version="1.1" id="Layer_1" xmlns="http://www.w3.org/2000/svg" xmlns:xlink="http://www.w3.org/1999/xlink" x="0px" y="0px"
	 viewBox="0 0 500 500" style="enable-background:new 0 0 500 500;" xml:space="preserve">
<path id="XMLID_4_" d="M489.182,249.333c-2.534,6.297-5.038,12.693-7.672,19.033c-18.313,44.079-36.7,88.128-54.954,132.232
	c-4.623,11.17-12.151,19.181-23.38,23.87c-49.504,20.675-98.946,41.497-148.503,62.043c-2.568,1.064-6.362,0.976-8.956-0.097
	c-48.781-20.175-97.44-40.642-146.189-60.893c-12.32-5.118-20.839-13.32-25.998-25.901c-19.945-48.642-40.422-97.066-60.451-145.674
	c-1.137-2.76-0.991-6.833,0.161-9.636c19.451-47.299,39.506-94.353,58.603-141.793c6.084-15.114,16.011-24.804,30.734-30.852
	c23.752-9.756,47.254-20.119,70.931-30.059c24.692-10.367,49.391-20.732,74.312-30.522c2.824-1.109,7.297,1.047,10.684,2.46
	c16.142,6.735,32.113,13.879,48.257,20.609c23.522,9.807,47.168,19.319,70.704,29.092c10.46,4.344,21.376,8.045,30.96,13.885
	c6.428,3.917,12.941,10.184,15.876,16.938c18.399,42.336,35.8,85.105,53.54,127.727c3.083,7.407,6.221,14.792,9.308,22.197
	C487.853,245.677,488.452,247.405,489.182,249.333z M390.652,249.213c-0.86-2.278-1.681-4.651-2.64-6.966
	c-11.057-26.699-22.695-53.177-32.899-80.197c-3.509-9.291-8.844-14.724-17.617-17.759c-1.508-0.522-3.172-0.633-4.63-1.25
	c-25.334-10.708-50.565-21.667-76.052-31.994c-3.831-1.552-9.357-1.517-13.216,0.013c-27.275,10.815-54.303,22.25-81.448,33.397
	c-7.319,3.006-12.726,7.002-15.9,15.135c-10.991,28.169-23.073,55.91-34.318,83.984c-1.35,3.371-1.265,8.239,0.099,11.632
	c11.801,29.356,24.118,58.503,36.079,87.795c1.674,4.1,4.001,6.585,8.16,8.286c29.296,11.981,58.436,24.345,87.786,36.19
	c3.412,1.377,8.302,1.562,11.665,0.208c29.983-12.079,59.81-24.55,89.567-37.18c2.532-1.074,5.09-3.758,6.175-6.315
	c12.544-29.567,24.814-59.25,37.127-88.915C389.375,253.384,389.918,251.391,390.652,249.213z M348.948,245.8
	c-8.832-21.428-17.583-42.891-26.613-64.236c-0.837-1.978-3.186-3.807-5.265-4.693c-20.701-8.827-41.447-17.553-62.315-25.972
	c-2.613-1.054-6.375-1.09-8.982-0.044c-20.849,8.361-41.588,17.002-62.236,25.848c-2.38,1.02-4.816,3.472-5.839,5.855
	c-8.856,20.641-17.507,41.373-25.884,62.213c-1.047,2.606-1.051,6.357-0.005,8.963c8.373,20.86,17.037,41.605,25.858,62.281
	c0.951,2.229,3.116,4.604,5.304,5.539c20.896,8.927,41.874,17.671,62.963,26.129c2.603,1.044,6.357,1.009,8.969-0.04
	c20.845-8.375,41.578-17.034,62.235-25.862c2.177-0.93,4.391-3.197,5.328-5.384c8.854-20.654,17.441-41.422,26.079-62.168
	c0.697-1.675,1.195-3.434,1.813-5.235C349.862,247.875,349.38,246.848,348.948,245.8z"/>
</svg>
