<?xml version="1.0" encoding="iso-8859-1"?>
<!-- Generator: Adobe Illustrator 19.0.0, SVG Export Plug-In . SVG Version: 6.00 Build 0)  -->
<svg version="1.1" id="Layer_1" xmlns="http://www.w3.org/2000/svg" xmlns:xlink="http://www.w3.org/1999/xlink" x="0px" y="0px"
	 viewBox="0 0 500 500" style="enable-background:new 0 0 500 500;" xml:space="preserve">
<path id="XMLID_4_" d="M218.799,15.601c1.696,154.205,3.378,307.117,5.084,462.146c-2.446-3.126-3.676-4.58-4.779-6.124
	c-23.93-33.523-47.994-66.953-71.571-100.722c-2.891-4.141-3.958-10.027-4.52-15.25c-4.212-39.132-8.079-78.3-12.065-117.456
	c-3.664-35.992-7.38-71.978-10.904-107.984c-0.192-1.964,0.609-4.581,1.903-6.055c31.263-35.583,62.655-71.053,94.04-106.528
	C216.411,17.147,217.044,16.852,218.799,15.601z M231.018,218.727c1.161,90.031,2.323,180.062,3.505,271.728
	c48.247-40.859,95.222-80.64,142.405-120.598c-48.445-50.936-96.437-101.397-144.429-151.857
	C232.006,218.243,231.512,218.485,231.018,218.727z M237.974,206.032c46.323,49.384,91.933,98.007,138.903,148.081
	c1.796-74.638,3.539-147.057,5.307-220.556C333.699,157.924,286.179,181.806,237.974,206.032z M229.448,9.603
	c0,62.158,0,122.579,0,184.112c50.371-23.544,100.039-46.759,150.902-70.532C329.603,84.988,279.984,47.641,229.448,9.603z"/>
</svg>
