<?xml version="1.0" encoding="iso-8859-1"?>
<!-- Generator: Adobe Illustrator 19.0.0, SVG Export Plug-In . SVG Version: 6.00 Build 0)  -->
<svg version="1.1" id="Layer_1" xmlns="http://www.w3.org/2000/svg" xmlns:xlink="http://www.w3.org/1999/xlink" x="0px" y="0px"
	 viewBox="0 0 2000 2000" style="enable-background:new 0 0 2000 2000;" xml:space="preserve">
<path d="M1969.184,1003.236c7.111,519.88-430.843,995.123-1014.661,968.325c-261.857-12.02-484.73-115.963-663.013-307.68
	c-184.964-198.901-271.734-437.453-258.594-708.7c12.609-260.283,116.16-482.275,306.559-659.872
	c199.676-186.25,439.47-272.184,712.079-259.836C1538.062,57.511,1970.36,462.677,1969.184,1003.236z M876.045,1429.53
	c6.26-141.304,12.438-280.759,18.798-424.334c3.858,5.429,5.622,7.655,7.116,10.05c83.149,133.332,166.463,266.561,249.071,400.228
	c7.139,11.552,14.834,15.516,27.704,15.476c105.661-0.329,211.323-0.148,316.985-0.206c6.66-0.004,13.319-0.708,23.049-1.26
	c-105.449-153.902-208.742-304.659-311.877-455.184c109.201-132.32,217.483-263.527,327.793-397.192c-119.498,0-234.561,0-349.242,0
	C1090.523,701.853,996.114,825.926,901.706,950c-1.073-0.428-2.146-0.857-3.219-1.285c9.171-123.611,18.343-247.222,27.528-371.029
	c-111.05,0-218.932,0-327.406,0c-3.29,55.527-6.584,109.742-9.691,163.968c-2.675,46.689-5.283,93.383-7.661,140.088
	c-4.007,78.682-7.998,157.366-11.614,236.067c-1.764,38.392-2.155,76.851-4.119,115.23c-1.736,33.934-5.673,67.766-7.005,101.707
	c-1.221,31.107-0.259,62.3-0.259,94.783C661.94,1429.53,767.231,1429.53,876.045,1429.53z"/>
</svg>
