<?xml version="1.0" encoding="iso-8859-1"?>
<!-- Generator: Adobe Illustrator 19.0.0, SVG Export Plug-In . SVG Version: 6.00 Build 0)  -->
<svg version="1.1" id="Layer_1" xmlns="http://www.w3.org/2000/svg" xmlns:xlink="http://www.w3.org/1999/xlink" x="0px" y="0px"
	 viewBox="0 0 2000 2000" style="enable-background:new 0 0 2000 2000;" xml:space="preserve">
<path d="M27.727,74.951c649.814,0,1296.32,0,1947.178,0c0,613.061,0,1225.376,0,1840.753c-648.699,0-1296.277,0-1947.178,0
	C27.727,1303.14,27.727,691.768,27.727,74.951z M169.85,220.642c0,519.715,0,1034.013,0,1550.06c555.866,0,1107.884,0,1662.5,0
	c0-518.038,0-1032.257,0-1550.06C1277.196,220.642,725.169,220.642,169.85,220.642z M1225.452,337.112
	c-199.408,223.546-398.405,446.633-598.24,670.657c197.251,217.793,392.017,432.842,584.141,644.974c162.082,0,319.889,0,485.346,0
	c-199.161-217.93-393.413-430.489-589.474-645.027c196.585-222.464,391.265-442.771,592.594-670.604
	C1533.527,337.112,1379.658,337.112,1225.452,337.112z M300.681,1152.823c248.039-274.299,489.4-541.213,736.705-814.7
	c-251.833,0-492.794,0-736.705,0C300.681,609.616,300.681,876.517,300.681,1152.823z M1021.492,1644.277
	c-161.642-178.401-318.455-351.472-471.324-520.189c-80.759,80.295-157.712,156.806-236.505,235.147c0,91.043,0,186.222,0,285.043
	C550.427,1644.277,782.851,1644.277,1021.492,1644.277z"/>
</svg>
