<?xml version="1.0" encoding="iso-8859-1"?>
<!-- Generator: Adobe Illustrator 19.0.0, SVG Export Plug-In . SVG Version: 6.00 Build 0)  -->
<svg version="1.1" id="Layer_1" xmlns="http://www.w3.org/2000/svg" xmlns:xlink="http://www.w3.org/1999/xlink" x="0px" y="0px"
	 viewBox="0 0 2000 2000" style="enable-background:new 0 0 2000 2000;" xml:space="preserve">
<path d="M30.896,999.471c0.31-535.811,435.676-970.125,971.924-969.577c535.18,0.547,969.296,435.951,968.784,971.659
	c-0.513,535.729-436.088,969.781-972.455,969.052C464.501,1969.88,30.586,1534.673,30.896,999.471z M791.649,932.201
	c0-179.338,0-357.79,0-536.304c-56.873,0-112.688,0-168.467,0c0,410.287,0,819.842,0,1229.269c56.663,0,112.459,0,169.105,0
	c0-187.433,0-374.041,0-560.923c29.934,0,59.007,0,89.378,0c0,76.796,0,153.046,0,229.192c40.594,0,79.882,0,120.291,0
	c0-76.634,0-152.547,0-229.948c10.168,2.05,19.15,3.244,27.768,5.71c29.744,8.515,47.219,30.619,60.219,56.773
	c16.042,32.272,31.216,64.975,46.783,97.483c55.472,115.837,110.841,231.723,166.495,347.473
	c17.541,36.482,45.507,56.336,87.603,55.302c43.316-1.063,86.677-0.236,130.019-0.236c3.587,0,7.174,0,12.018,0
	c-2.345-5.124-3.7-8.305-5.231-11.399c-68.176-137.745-136.248-275.542-204.629-413.186
	c-21.354-42.984-42.202-86.309-65.742-128.092c-22.827-40.518-55.591-71.296-100.908-86.494c-5.156-1.729-10.294-3.512-17.665-6.03
	c45.791-17.094,75.498-48.218,97.266-88.463c82.166-151.912,164.721-303.614,247.104-455.409
	c7.288-13.429,14.377-26.966,21.951-41.188c-3.161-0.266-4.876-0.536-6.591-0.537c-43.694-0.019-87.388-0.069-131.082,0.064
	c-5.927,0.018-12.016,0.275-17.748,1.623c-28.169,6.624-46.074,25.765-58.719,50.355
	c-71.909,139.845-143.549,279.829-215.485,419.661c-5.905,11.477-12.493,22.804-20.243,33.085
	c-13.093,17.371-31.095,27.049-54.162,30.651c0-88.921,0-176.433,0-263.882c-40.235,0-79.215,0-119.656,0
	c0,88.719,0,176.9,0,265.451C851.055,932.201,822.254,932.201,791.649,932.201z"/>
</svg>
