<?xml version="1.0" encoding="iso-8859-1"?>
<!-- Generator: Adobe Illustrator 19.0.0, SVG Export Plug-In . SVG Version: 6.00 Build 0)  -->
<svg version="1.1" id="Layer_1" xmlns="http://www.w3.org/2000/svg" xmlns:xlink="http://www.w3.org/1999/xlink" x="0px" y="0px"
	 viewBox="0 0 500 500" enable-background="new 0 0 500 500" xml:space="preserve">
<path d="M250.425,490.449C117.966,491.225,9.023,381.883,9.109,249.003C9.196,116.085,118.017,7.396,251.075,7.55
	c132.137,0.152,241.839,108.81,241.109,242.967C491.468,382.133,383.571,491.303,250.425,490.449z M195.909,115.838
	c-27.039,0-53.429,0-79.635,0c0,89.037,0,177.635,0,266.39c26.744,0,53.101,0,79.786,0c0-28.049,0-55.74,0-83.62
	c11.592,0,22.856,0,34.291,0c17.89,27.885,35.821,55.834,53.641,83.609c32.347,0,64.467,0,97.058,0
	c-34.153-49.214-67.98-97.959-101.906-146.845c33.612-39.741,67.165-79.412,101.106-119.541c-35.671,0-70.675,0-105.914,0
	c-25.879,33.173-51.81,66.412-78.428,100.533C195.909,182.189,195.909,149.14,195.909,115.838z"/>
</svg>
