<?xml version="1.0" encoding="iso-8859-1"?>
<!-- Generator: Adobe Illustrator 19.0.0, SVG Export Plug-In . SVG Version: 6.00 Build 0)  -->
<svg version="1.1" id="Layer_1" xmlns="http://www.w3.org/2000/svg" xmlns:xlink="http://www.w3.org/1999/xlink" x="0px" y="0px"
	 viewBox="0 0 2000 2000" style="enable-background:new 0 0 2000 2000;" xml:space="preserve">
<path d="M1957.329,978.067c-4.94,351.299-132.878,622.354-404.125,814.927c-565.559,401.521-1349.736,89.454-1485.835-590.205
	C12.298,927.771,53.908,665.181,219.802,433.385C424.594,147.236,707.747,9.025,1058.919,26.792
	c449.427,22.739,816.75,361.59,884.769,806.741C1951.979,887.793,1954.129,942.991,1957.329,978.067z M985.151,99.659
	c-27.356,1.774-71.8,1.804-115.322,8.153c-63.528,9.267-125.505,26.047-185.429,50C575.892,201.186,478.707,262.29,394.1,342.808
	c-22.765,21.665-42.27,46.717-63.891,69.63c-36.679,38.87-65.265,83.496-92.041,129.27
	c-83.64,142.987-119.661,298.778-119.844,463.146c-0.049,43.673,8.205,87.318,11.895,131.04
	c7.168,84.929,34.908,163.831,69.76,240.648c35.026,77.201,77.211,150.003,136.623,211.321
	c39.359,40.622,76.984,83.85,121.046,118.77c65.058,51.56,137.271,92.29,214.64,124.628c85.459,35.72,174.141,55.657,265.446,61.535
	c71.129,4.579,142.415,0.336,213.693-10.513c75.879-11.549,147.462-34.907,215.829-66.885
	c117.46-54.942,222.453-128.111,303.241-231.591c32.587-41.739,66.643-83.081,93.326-128.539
	c81.244-138.409,119.277-289.789,120.982-449.707c0.522-49.031-8.291-98.113-11.72-147.249
	c-3.207-45.951-14.727-89.887-28.126-133.656c-26.02-84.999-64.021-164.748-113.326-238.014
	c-50.456-74.978-111.034-142.517-183.098-197.696c-81.953-62.75-171.54-112.033-269.954-145.534
	C1188.564,112.771,1096.346,100.751,985.151,99.659z M779.037,1158.418c0-10.318,0-20.636,0-30.955c0-94.323,0-188.646,0-282.969
	c0-124,0.081-248-0.144-371.999c-0.019-10.736-2.061-21.468-3.023-30.831c-87.409,0-169.988,0-255.062,0
	c0,366.186,0,731.272,0,1100.627c-0.242-0.474,2.073,3.058,3.458,6.925c11.245,31.406,33.587,41.783,66.211,39.871
	c38.024-2.229,76.277-0.559,114.431-0.573c21.917-0.008,43.834-0.001,71.89-0.001c60.307-77.136,124.502-159.244,189.524-242.411
	c59.887,84.779,117.275,166.02,172.725,244.518c109.397,0,214.45,0,325.646,0c-113.346-154.063-224.376-304.977-334.712-454.947
	c118.601-152.353,236.043-303.217,355.389-456.526c-15.92,0-28.781,0-41.642,0c-74.188,0-148.376,0.13-222.563-0.057
	c-34.159-0.086-64.473,10.891-86.695,36.377c-32.866,37.692-63.725,77.174-94.608,116.544
	c-30.809,39.276-60.432,79.478-90.868,119.049c-41.852,54.413-83.859,108.708-126.062,162.848
	c-12.517,16.057-25.919,31.424-38.915,47.107C782.356,1160.149,780.696,1159.284,779.037,1158.418z"/>
</svg>
