<?xml version="1.0" encoding="utf-8"?>
<!-- Generator: Adobe Illustrator 25.1.0, SVG Export Plug-In . SVG Version: 6.00 Build 0)  -->
<svg version="1.1" id="ksm" xmlns="http://www.w3.org/2000/svg" xmlns:xlink="http://www.w3.org/1999/xlink" x="0px" y="0px"
	 viewBox="0 0 500 500" style="enable-background:new 0 0 500 500;" xml:space="preserve">
<path d="M466.4,118c-7.4-5.7-16.1-13.7-32.1-15.7c-15-2-30.3,8.1-40.5,14.7c-10.4,6.6-29.8,26.2-37.9,32.1
	c-8.1,5.9-28.7,11.5-62,31.4S130.2,284.1,130.2,284.1l33.9,0.4L12.8,362.6h15.1L6.1,379.2c0,0,19.2,5.1,35.3-5.1v4.6
	c0,0,180.1-71,214.9-52.6l-21.2,6.2c1.9,0,36.1,2.2,36.1,2.2c1.6,14.3,9.6,27.2,21.8,35.1c20.7,13.6,21.1,21.1,21.1,21.1
	s-10.7,4.4-10.7,9.9c0,0,15.8-4.9,30.6-4.4c9.4,0.4,18.6,1.9,27.6,4.4c0,0-1.1-6-15.5-9.9c-14.3-4-28.4-19.5-35.3-27.9
	c-8.6-11-10.9-25.7-5.7-38.8c5-12.8,22.2-20,57.9-38.3c42-21.8,51.6-37.9,57.5-50.5c6-12.6,14.7-37.7,19.7-49.4
	c6.2-15.1,13.8-23.2,20.2-27.9c6.4-4.9,34.7-15.5,34.7-15.5S473.3,123.6,466.4,118z"/>
</svg>
