<?xml version="1.0" encoding="iso-8859-1"?>
<!-- Generator: Adobe Illustrator 19.0.0, SVG Export Plug-In . SVG Version: 6.00 Build 0)  -->
<svg version="1.1" id="Layer_1" xmlns="http://www.w3.org/2000/svg" xmlns:xlink="http://www.w3.org/1999/xlink" x="0px" y="0px"
	 viewBox="0 0 2000 2000" style="enable-background:new 0 0 2000 2000;" xml:space="preserve">
<path d="M1372.892,762.148c186.922,199.922,370.083,395.821,547.525,585.603c0,84.87,0,160.272,0,246.905
	c-226.447-241.87-445.98-476.355-666.659-712.064c-22.553,23.344-43.341,44.861-66.958,69.306
	c6.114,7.378,12.81,16.329,20.38,24.467c189.349,203.552,378.805,407.003,568.203,610.509
	c43.653,46.904,87.343,93.777,130.547,141.092c6.867,7.521,15.893,17.234,16.046,26.069c1.283,74.325,0.731,148.681,0.731,223.028
	c-3.299,1.602-6.598,3.204-9.897,4.805c-283.277-304.225-566.555-608.449-853.921-917.065
	c-321.793,303.069-643.964,606.493-971.535,915.004c0-659.029,0-1309.973,0-1962.926c55.572,0,108.671,0,165.57,0
	c0,523.002,0,1044.115,0,1576.563c36.234-35.179,65.669-62.363,93.081-91.454c6.046-6.417,6.827-19.59,6.825-29.652
	c-0.08-470.421-0.515-940.842-0.907-1411.263c-0.012-13.789-0.001-27.578-0.001-43.893c56.894,0,109.844,0,170.075,0
	c0,435.979,0,871.054,0,1306.129c3.775,1.423,7.55,2.847,11.325,4.27C990.705,893.122,1448.088,458.664,1912.996,17.058
	c0,82.753,0,154.331,0,232.903C1737.328,416.549,1557.154,587.41,1372.892,762.148z"/>
</svg>
