<?xml version="1.0" encoding="iso-8859-1"?>
<!-- Generator: Adobe Illustrator 19.0.0, SVG Export Plug-In . SVG Version: 6.00 Build 0)  -->
<svg version="1.1" id="Layer_1" xmlns="http://www.w3.org/2000/svg" xmlns:xlink="http://www.w3.org/1999/xlink" x="0px" y="0px"
	 viewBox="0 0 500 500" enable-background="new 0 0 500 500" xml:space="preserve">
<path d="M249.522,2.002c138.501-0.62,249.321,114.962,247.15,251.629c-2.068,130.217-113.113,246.628-255.324,242.181
	C116.413,491.906,1.42,389.207,2.291,247.282C3.135,109.639,114.492,1.703,249.522,2.002z M175.333,132.435
	c-27.754,77.498-55.488,154.939-83.462,233.049c51.006,0,100.565,0,150.211,0c5.795-16.062,11.321-31.381,16.912-46.88
	c28.232,0,55.703,0,83.72,0c6.084,16.147,12.082,32.065,17.664,46.882c17.35,0,32.738,0,49.062,0
	c-28.149-78.516-55.906-155.941-83.47-232.828c-17.584,0-33.918,0-50.393,0c-22.307,62.179-44.398,123.753-66.215,184.567
	c-17.413,0-33.133,0-50.326,0c22.323-62.239,44.127-123.03,66.278-184.789C207.762,132.435,191.834,132.435,175.333,132.435z
	 M299.412,206.118c-7.555,21.046-15.11,42.093-22.876,63.729c17.122,0,32.171,0,48.874,0c-7.954-21.993-15.507-42.877-23.06-63.761
	C301.37,206.096,300.391,206.107,299.412,206.118z"/>
</svg>
