<?xml version="1.0" encoding="iso-8859-1"?>
<!-- Generator: Adobe Illustrator 19.0.0, SVG Export Plug-In . SVG Version: 6.00 Build 0)  -->
<svg version="1.1" id="Layer_1" xmlns="http://www.w3.org/2000/svg" xmlns:xlink="http://www.w3.org/1999/xlink" x="0px" y="0px"
	 viewBox="0 0 500 500" enable-background="new 0 0 500 500" xml:space="preserve">
<path d="M482.81,250.479c-0.002,22.159-0.855,44.358,0.207,66.466c1.428,29.746-10.586,53.691-31.385,72.911
	c-12.413,11.471-27.493,20.344-42.193,28.993c-37.083,21.819-74.182,43.687-112.128,63.936
	c-31.215,16.657-63.876,16.43-95.037-0.762c-44.425-24.511-88.742-49.291-132.181-75.488C38.613,387.55,20.175,359.5,20.293,321.186
	c0.148-48.3-0.287-96.602,0.006-144.9c0.219-36.2,17.539-63.832,47.516-82.11C111.968,67.255,157,41.704,202.393,16.916
	c29.989-16.376,61.426-15.609,91.504,0.673c45.924,24.86,91.73,49.976,136.943,76.097c26.97,15.581,45.024,39.108,50.998,70.242
	c1.895,9.876,0.881,20.337,0.942,30.532C482.892,213.132,482.812,231.806,482.81,250.479z M215.088,287.303
	c-7.491-13.91-14.562-27.3-21.964-40.505c-1.101-1.964-3.638-3.261-5.722-4.516c-42.617-25.669-85.261-51.293-127.918-76.896
	c-1.557-0.935-3.29-1.577-5.66-2.695c1.184,11.313,2.265,21.653,3.364,32.157c23.071,18.535,46.056,37.001,69.041,55.467
	c-0.291,0.363-0.581,0.725-0.872,1.088c-20.469-13.922-40.938-27.844-63.054-42.886c1.684,15.6,3.159,29.259,4.591,42.519
	c21.073,12.369,41.365,24.279,61.657,36.189c-0.214,0.352-0.428,0.704-0.641,1.056c-16.388-6.286-32.776-12.573-49.164-18.859
	c12.551,18.487,17.77,42.287,41.246,51.045c-3.71-0.303-7.421-0.606-12.065-0.984c7.872,13.973,14.389,26.621,29.015,34.085
	c21.004,10.718,40.806,23.786,61.144,35.813c18.816,11.126,37.661,22.202,56.637,33.385c27.719-16.453,55.137-32.727,83.594-49.619
	c-30.101-21.528-58.965-42.171-87.818-62.806c-10.197,5.697-19.899,11.117-29.795,16.647
	c-11.138-10.657-21.797-20.856-33.362-31.923C197.439,292.239,205.955,289.857,215.088,287.303z M343.444,370.177
	c10.951-6.46,21.236-13.628,32.428-18.85c13.836-6.455,17.475-19.936,26.198-31.848c-5.542,0.458-9.27,0.767-12.998,1.075
	c-0.413-0.581-0.826-1.162-1.239-1.743c25.346-6.951,30.398-30.864,42.541-49.273c-15.857,6.069-31.715,12.138-47.572,18.208
	c-0.185-0.412-0.369-0.824-0.554-1.236c20.049-11.839,40.099-23.679,60.437-35.689c1.371-13.594,2.726-27.024,4.245-42.084
	c-21.37,14.485-41.356,28.032-61.342,41.579c-0.297-0.409-0.594-0.819-0.891-1.228c22.552-18.108,45.104-36.217,67.546-54.237
	c1.053-10.712,2.054-20.905,3.167-32.23c-2.41,1.172-3.518,1.61-4.526,2.214c-42.878,25.717-85.793,51.373-128.534,77.317
	c-3.578,2.172-6.679,5.885-8.794,9.574c-7.629,13.311-14.741,26.918-21.976,40.281c-13.026-3.147-25.324-8.507-37.577-8.407
	c-12.298,0.101-24.555,5.636-36.824,8.811c-2.644,0.684-5.26,1.478-7.898,2.191c-3.449,0.932-6.905,1.834-11.566,3.07
	c8.739,8.294,16.259,15.431,23.893,22.676c9.989-5.569,19.496-10.869,29.271-16.318
	C281.765,326.101,312.491,348.058,343.444,370.177z"/>
</svg>
