<?xml version="1.0" encoding="utf-8"?>
<!-- Generator: Adobe Illustrator 25.1.0, SVG Export Plug-In . SVG Version: 6.00 Build 0)  -->
<svg version="1.1" id="lamb" xmlns="http://www.w3.org/2000/svg" xmlns:xlink="http://www.w3.org/1999/xlink" x="0px" y="0px"
	 viewBox="0 0 500 500" style="enable-background:new 0 0 500 500;" xml:space="preserve">
<path d="M497.6,88.5V21.9c0-6.4-6.4-10.8-12.3-8.5l-246.1,94.7l44.2-92.2c2.9-6-1.5-13-8.2-13h-66c-3.5,0-6.7,2-8.2,5.1l-58.7,121.1
	L96.9,8.8c-1.3-3.5-4.7-5.9-8.5-5.9H21.5c-6.4,0-10.8,6.4-8.5,12.3l95.1,247.3l-91.2-42.7C10.9,217,4,221.4,4,228v63.3
	c0,3.5,2,6.6,5.1,8.2l118.7,58.2l-118,44.8C6.3,403.8,4,407.2,4,411v66.7c0,6.4,6.4,10.7,12.3,8.5l247.5-93.7l-45.2,91
	c-3,6,1.4,13.1,8.1,13.1h67.2c3.5,0,6.7-2,8.2-5.1l56.4-116.8l45.1,116.2c1.4,3.5,4.7,5.8,8.5,5.8h66.7c6.4,0,10.8-6.4,8.5-12.3
	l-92.9-244.5l89.1,40.1c6,2.7,12.8-1.7,12.8-8.3v-63.5c0-3.5-2-6.6-5.1-8.2l-118.3-57.8l119-45.1C495.3,95.6,497.6,92.3,497.6,88.5z
	 M308.9,290.6l-76.5,28.9c-8.9-4-13.8-6.2-22.7-10.2l-28.9-76.5c4-8.9,6.2-13.8,10.2-22.7l76.5-28.9c8.9,4,13.8,6.2,22.7,10.2
	l28.9,76.5C315.1,276.7,312.9,281.7,308.9,290.6z"/>
</svg>
