<?xml version="1.0" encoding="iso-8859-1"?>
<!-- Generator: Adobe Illustrator 19.0.0, SVG Export Plug-In . SVG Version: 6.00 Build 0)  -->
<svg version="1.1" id="Layer_1" xmlns="http://www.w3.org/2000/svg" xmlns:xlink="http://www.w3.org/1999/xlink" x="0px" y="0px"
	 viewBox="0 0 2000 2000" style="enable-background:new 0 0 2000 2000;" xml:space="preserve">
<path d="M1982.73,999.66c-14.807,553.039-432.135,978.776-983.163,979.199c-553.652,0.425-982.879-428.591-981.695-982.529
	C19.067,438.054,453.727,14.278,1002.88,17.136C1558.436,20.028,1970.206,451.025,1982.73,999.66z M1005.759,1709.846
	c370.754,3.84,708.881-294.972,709.277-708.346c0.37-386.77-306.587-707.518-708.92-708.15
	c-420.818-0.661-716.846,351.976-709.144,722.509C304.886,1396.604,620.025,1711.185,1005.759,1709.846z M1637.793,1005.658
	c-1.513,352.417-287.345,631.718-644.057,629.341c-338.87-2.258-621.833-291.643-619.924-633.994
	c1.952-350.145,287.682-633.24,636.992-631.115C1357.439,371.998,1639.286,657.792,1637.793,1005.658z M764.337,629.871
	c-4.313,4.138-8.626,8.275-12.94,12.413c81.908,90.197,163.815,180.394,248.715,273.886
	c100.374-89.598,186.779-182.616,268.525-280.026c-3.299-3.52-6.599-7.04-9.898-10.561
	c-84.957,72.34-169.913,144.679-255.338,217.418C923.785,772.022,844.061,700.946,764.337,629.871z M632.756,744.01
	c-2.568,2.728-5.136,5.456-7.704,8.185c72.635,85.405,145.271,170.811,218.592,257.022c-37.511,40.854-73.409,78.88-108.071,118.001
	c-34.897,39.385-68.567,79.858-102.775,119.855c3.971,3.792,7.941,7.583,11.912,11.374c90.389-82.184,180.778-164.368,275.8-250.765
	c-96.848-90.988-186.161-174.961-275.678-258.717C641.86,746.186,636.827,745.612,632.756,744.01z M1095.032,999.98
	c94.804,96.382,180.755,190.081,281.532,268.138c3.266-2.955,6.532-5.91,9.798-8.865c-72.985-85.641-145.97-171.283-218.347-256.211
	c72.484-81.477,148.93-155.437,210.671-241.698c-3.265-3.139-6.529-6.279-9.794-9.419
	C1278.776,833.549,1188.66,915.174,1095.032,999.98z M739.994,1372.704c4.632,4.357,9.264,8.714,13.896,13.071
	c84.885-72.585,169.771-145.169,254.515-217.633c80.547,72.109,159.69,142.961,238.832,213.813
	c4.294-4.327,8.587-8.653,12.881-12.98c-82.35-90.146-164.699-180.291-252.5-276.403
	C914.091,1190.47,827.043,1281.587,739.994,1372.704z"/>
</svg>
