<?xml version="1.0" encoding="iso-8859-1"?>
<!-- Generator: Adobe Illustrator 19.0.0, SVG Export Plug-In . SVG Version: 6.00 Build 0)  -->
<svg version="1.1" id="Layer_1" xmlns="http://www.w3.org/2000/svg" xmlns:xlink="http://www.w3.org/1999/xlink" x="0px" y="0px"
	 viewBox="0 0 500 500" enable-background="new 0 0 500 500" xml:space="preserve">
<path d="M471.512,272.766c-4.8-1.17-7.876-1.919-11.452-2.791c0.427-2.552,0.806-4.816,1.329-7.942
	c9.747,1.66,19.081,3.25,28.793,4.905c-1.572,10.068-3.011,19.282-4.578,29.315c-2.753-0.258-5.232-0.491-8.147-0.764
	c0.476-4.335,0.875-7.974,1.41-12.851c-78.696,48.289-156.492,96.025-234.585,143.945C165.488,387.55,86.812,348.577,8,309.535
	c0-26.853,0-53.317,0-80.216c82.28-51.021,164.68-102.118,247.488-153.467c74.724,36.141,149.421,72.268,224.423,108.543
	c0,8.097,0,16.043,0,24.464c-78.289,48.226-156.747,96.556-235.623,145.143c-59.027-29.018-118.098-58.057-177.251-87.137
	c0-4.306,0-8.235,0-13.652c59.352,29.265,117.799,58.083,176.579,87.065c74.705-45.985,149.288-91.895,224.164-137.985
	c0-3.155,0-6.306,0-10.424c-70.17-33.93-140.731-68.049-211.592-102.314c-78.956,48.949-157.697,97.766-236.418,146.57
	c0,21.905,0,43.296,0,65.752c74.172,36.789,148.712,73.76,223.81,111.008C319.029,366.504,394.505,320.106,471.512,272.766z"/>
</svg>
