<?xml version="1.0" encoding="iso-8859-1"?>
<!-- Generator: Adobe Illustrator 19.0.0, SVG Export Plug-In . SVG Version: 6.00 Build 0)  -->
<svg version="1.1" id="Layer_1" xmlns="http://www.w3.org/2000/svg" xmlns:xlink="http://www.w3.org/1999/xlink" x="0px" y="0px"
	 viewBox="0 0 2000 2000" style="enable-background:new 0 0 2000 2000;" xml:space="preserve">
<path d="M20.402,1021.469c4.024-135.099,12.553-242.632,48.859-346.027c34.589-98.504,85.052-188.158,148.974-270.685
	c46.618-60.187,98.938-115.06,157.099-163.506C480.642,153.533,597.543,86.496,732.349,53.96
	c145.529-35.124,291.376-40.944,439.847-17.639c186.203,29.228,343.467,112.793,481.22,238.204
	c99.185,90.299,176.833,196.112,232.607,317.991c44.685,97.646,69.71,200.287,79.912,307.117
	c15.243,159.609-6.627,313.545-67.125,461.872c-54.29,133.106-135.23,247.727-240.225,345.92
	c-118.423,110.751-255.556,187.141-412.345,228.02c-114.415,29.831-230.302,38.842-348.358,27.586
	c-167.053-15.927-319.644-70.008-457.4-165.662c-108.463-75.314-197.585-169.454-269.881-279.742
	c-62.519-95.374-108.456-198.402-129.53-310.316C27.951,1137.637,25.1,1066.028,20.402,1021.469z M1121.36,1653.481
	c51.936,34.235,98.244,66.177,146.187,95.441c13.172,8.04,31.142,10.559,47.073,11.138c19.051,0.693,33.508-10.779,40.202-28.882
	c6.805-18.407,1.708-35.341-13.184-47.606c-13.477-11.1-28.985-19.695-42.974-30.224c-13.407-10.09-32.485-13.295-41.546-33.787
	c7.099-3.701,12.956-7.542,19.353-9.945c20.76-7.798,42.223-13.91,62.52-22.731c145.302-63.152,272.653-147.754,355.99-288.467
	c58.487-98.755,78.273-203.687,44.285-312.004c-37.777-120.392-122.972-195.167-249.514-218.553
	c-13.06-2.414-25.999-5.484-44.267-9.372c8.765-10.554,13.711-16.662,18.818-22.634c38.698-45.256,73.464-92.853,93.084-150.042
	c27.65-80.595,17.414-152.599-44.766-214.752c-46.674-46.654-102.884-75.136-166.114-90.199
	c-112.236-26.737-212.31,11.063-307.928,63.455c-68.01,37.264-122.736,90.893-172.787,150.337
	c-55.023,65.349-89.82,140.155-111.882,221.029c-25.558,93.687-32.055,189.416-21.47,286.308
	c15.967,146.166,65.604,278.776,158.372,393.632c37.764,46.755,78.717,90.93,117.984,136.482c4.76,5.521,8.043,12.316,13.519,20.88
	c-11.073,2.537-17.188,4.635-23.452,5.271c-118.248,12.008-234.4,6.663-347.576-35.273
	c-79.133-29.321-144.341-76.486-190.089-146.333c-26.597-40.608-45.587-86.599-64.889-131.506
	c-53.296-123.995-56.644-252.442-22.511-380.967c38.39-144.553,105.766-276.347,195.119-396.024
	c36.948-49.487,80.382-94.123,120.728-141.084c19.275-22.436,39.067-44.508,57.011-67.979c10.913-14.273,12.182-31.554,0.35-46.442
	c-11.241-14.144-27.367-19.511-44.816-14.836c-11.427,3.062-23.12,7.918-32.617,14.825c-20.138,14.647-40.218,29.823-58.033,47.137
	c-82.186,79.878-149.283,172.088-209.149,269.012C333.306,640.633,288.058,762.832,259.611,891.23
	c-18.677,84.302-17.677,169.023-6.248,253.951c8.583,63.776,28.559,124.419,53.94,183.244
	c43.662,101.194,110.303,183.67,204.046,242.547c66.448,41.734,139.243,67.075,215.88,84.716
	c92.473,21.286,185.264,22.03,278.603,14.701C1046.224,1667.218,1086.202,1658.775,1121.36,1653.481z M1203.417,1519.318
	c15.089-4.266,30.042-9.075,44.885-14.143c156.577-53.465,287.781-139.293,364.911-291.593
	c32.841-64.847,43.19-133.242,20.073-204.367c-24.174-74.38-71.713-124.867-149.385-141.611
	c-38.714-8.345-78.501-11.949-117.931-16.614c-15.541-1.839-31.49,0.055-47.152-1.108c-40.968-3.043-58.849-36.411-36.049-69.917
	c11.219-16.487,26.598-30.625,41.845-43.799c45.734-39.516,89.705-80.545,116.295-136.039
	c35.021-73.091,31.26-119.781-12.692-166.736c-25.795-27.558-60.613-42.974-96.799-51.27
	c-84.08-19.278-163.043-3.752-237.304,39.725c-37.263,21.816-66.443,52.664-96.855,82.181
	c-44.112,42.814-78.605,92.442-106.527,147.397c-35.119,69.122-50.027,142.706-54.656,219.021
	c-7.93,130.709,17.306,254.73,84.042,367.668c36.096,61.085,77.114,119.777,120.913,175.626
	c33.366,42.544,74.607,78.912,112.458,118.147C1172.998,1527.017,1188.325,1523.584,1203.417,1519.318z"/>
</svg>
