<?xml version="1.0" encoding="iso-8859-1"?>
<!-- Generator: Adobe Illustrator 19.0.0, SVG Export Plug-In . SVG Version: 6.00 Build 0)  -->
<svg version="1.1" id="Layer_1" xmlns="http://www.w3.org/2000/svg" xmlns:xlink="http://www.w3.org/1999/xlink" x="0px" y="0px"
	 viewBox="0 0 2000 2000" style="enable-background:new 0 0 2000 2000;" xml:space="preserve">
<path d="M1966.843,416.947c0,397.144,0,793.565,0,1189.719c-7.726,5.186-489.023,8.107-549.956,3.409
	c4.105-4.145,6.996-7.547,10.362-10.385c27.409-23.104,56.692-44.309,82.012-69.501c55.222-54.943,102.65-116.319,136.356-186.98
	c32.23-67.567,59.298-137.122,69.215-212.094c3.469-26.229,8.668-52.458,9.292-78.778c0.844-35.621-0.951-71.397-3.4-106.984
	c-5.809-84.422-28.754-164.727-64.89-240.774c-31.112-65.473-70.479-125.77-120.39-179.274
	c-35.257-37.795-74.132-70.971-114.432-102.856c-1.335-1.056-2.105-2.827-4.027-5.502
	C1600.931,416.947,1783.26,416.947,1966.843,416.947z M579.669,1604.645c-45.084-32.758-87.318-68.552-122.02-112.602
	c-18.363-23.31-39.586-44.712-55.455-69.57c-33.615-52.656-64.858-106.724-85.139-166.513
	c-20.955-61.779-35.527-124.88-39.469-189.848c-2.268-37.374-0.731-75.162,1.779-112.584c2.084-31.073,6.117-62.313,12.734-92.729
	c20.552-94.479,57.576-181.695,114.11-261.018c47.267-66.321,101.21-125.26,167.444-172.778c3.316-2.379,5.817-5.896,9.634-9.856
	c-184.113,0-366.038,0-548.119,0c0,397.663,0,794.412,0,1192.421c182.741,0,364.754,0,548.226,0
	C581.535,1607.065,580.855,1605.507,579.669,1604.645z M407.922,995.262c-3.93,333.441,262.171,586.828,568.882,594.429
	c342.147,8.479,609.248-263.417,604.009-597.952c-4.896-312.591-255.049-571.699-586.536-575.553
	C671.996,415.978,411.667,677.5,407.922,995.262z M620.379,1353.444c-97.611-104.242-143.859-229.472-137.653-371.961
	c11.67-267.944,223.03-490.825,516.804-491.386c139.467-0.266,262.258,52.673,360.695,153.984
	c101.085,104.036,150.883,229.983,146.508,374.737c-8.265,273.504-228.099,494.76-530.225,497.031
	C848.029,1512.074,721.267,1461.186,620.379,1353.444z M1310.146,914.397c-81.304,47.456-160.744,93.824-241.582,141.008
	c-6.2-22.853-11.76-43.344-17.126-63.123c12.18-14.918,23.658-28.977,35.153-43.057c-15.248-55.512-30.33-110.422-46.015-167.523
	c-12.495,14.52-23.578,27.4-35.259,40.974c-17.501-63.198-34.801-125.673-52.351-189.049
	c-72.884,42.352-144.382,83.899-216.048,125.544c26.242,98.584,52.186,196.049,78.174,293.678
	c-11.817,14.673-23.312,28.946-34.444,42.77c15.284,55.698,30.249,110.234,45.73,166.653c12.211-14.07,23.305-26.853,35.062-40.399
	c13.292,47.539,26.248,93.875,39.736,142.114c153.77-88.661,306.281-176.597,459.405-264.886
	C1343.759,1037.496,1327.161,976.71,1310.146,914.397z M921.503,1315.314c-15.014-54.149-29.715-107.167-44.865-161.804
	c-11.984,14.182-22.769,26.946-34.962,41.375c-8.725-31.519-17.057-61.62-25.497-92.112c10.914-13.511,21.865-27.067,34.735-43
	c-3.863-14.686-8.106-31.378-12.649-47.988c-20.946-76.581-41.992-153.135-62.901-229.726c-0.698-2.556-0.314-5.406-0.431-8.043
	c52.445-30.48,104.489-60.726,157.977-91.812c19.258,69.668,38.154,138.027,57.657,208.581
	c11.953-13.992,22.499-26.337,34.474-40.355c8.688,31.017,17.022,60.772,25.506,91.064c-10.641,13.183-21.546,26.692-34.481,42.718
	c10.104,37.897,20.741,77.792,31.763,119.129c81.307-46.952,161.105-93.032,242.184-139.852
	c10.98,39.995,21.809,79.442,32.889,119.801C1188.801,1160.805,1055.487,1237.865,921.503,1315.314z"/>
</svg>
