<?xml version="1.0" encoding="iso-8859-1"?>
<!-- Generator: Adobe Illustrator 19.0.0, SVG Export Plug-In . SVG Version: 6.00 Build 0)  -->
<svg version="1.1" id="Layer_1" xmlns="http://www.w3.org/2000/svg" xmlns:xlink="http://www.w3.org/1999/xlink" x="0px" y="0px"
	 viewBox="0 0 500 500" enable-background="new 0 0 500 500" xml:space="preserve">
<path d="M219.976,261.672c-19.493,0-38.117,0-57.764,0c-0.712,4.965-1.426,9.949-2.29,15.978c-16.418,0-32.911,0-50.253,0
	c0-16.786,0-33.274,0-50.452c16.895,0,33.021,0,49.997,0c0.744,5.319,1.444,10.331,2.228,15.933c19.629,0,39.04,0,58.342,0
	c9.95-88.283,80.265-132.811,144.886-128.444c77.367,5.229,129.465,64.991,130.046,136.798
	c0.577,71.348-50.775,132.921-129.531,138.744C304.271,394.765,231.655,353.991,219.976,261.672z M242.993,243.076
	c27.11,0,54.243,0,81.734,0c0.62-5.683,1.165-10.682,1.684-15.433c18.539,0,35.982,0,52.745,0c0,18.187,0,35.222,0,52.161
	c-18.175,0-35.162,0-52.33,0c-0.981-6.187-1.772-11.183-2.67-16.85c-25.178,0-49.628-0.02-74.078,0.032
	c-2.298,0.005-4.595,0.46-6.778,0.694c-1.184,42.608,39.489,105.026,112.942,106.038c65.008,0.895,117.947-47.909,118.287-116.768
	c0.339-68.717-52.624-118.897-118.741-117.726C282.004,136.531,241.427,199.547,242.993,243.076z M66.467,338.61
	c-44.669-39.791-50.415-113.538-16.18-157.033c16.337-20.756,37.246-34.026,62.25-40.334c36.995-9.333,70.33,1.089,101.717,23.354
	c4.47-6.308,8.399-11.852,12.277-17.325c-61.85-50.496-154.106-38.04-197.701,25.988C-14.061,236.254,2.036,323.371,68.335,368.07
	c57.634,38.857,133.495,24.104,162.549-11.234c-3.498-4.813-7.094-9.763-11.21-15.426
	C168.725,382.231,103.467,371.569,66.467,338.61z"/>
</svg>
