<?xml version="1.0" encoding="iso-8859-1"?>
<!-- Generator: Adobe Illustrator 19.0.0, SVG Export Plug-In . SVG Version: 6.00 Build 0)  -->
<svg version="1.1" id="Layer_1" xmlns="http://www.w3.org/2000/svg" xmlns:xlink="http://www.w3.org/1999/xlink" x="0px" y="0px"
	 viewBox="0 0 500 500" style="enable-background:new 0 0 500 500;" xml:space="preserve">
<path d="M6.008,249.5c0-3.881,0.016-7.762-0.004-11.643c-0.03-5.941,0.774-11.797,1.68-17.65c0.698-4.506,1.231-9.037,1.905-13.547
	c1.89-12.641,5.257-24.923,9.364-36.995c6.375-18.739,15.049-36.408,25.751-53.034c5.126-7.964,10.588-15.743,16.917-22.839
	c5.638-6.322,11.179-12.745,17.09-18.804c7.799-7.994,16.344-15.217,25.429-21.687c8.401-5.983,16.99-11.783,25.934-16.899
	c10.869-6.216,22.292-11.381,34.051-15.82c11.277-4.257,22.841-7.467,34.52-10.255c5.983-1.428,12.224-1.739,18.269-2.952
	c9.067-1.821,18.301-1.424,27.43-2.395c4.386-0.467,8.899,0.242,13.354,0.43c1.341,0.057,2.681,0.223,4.021,0.219
	c8.599-0.026,17.036,1.357,25.53,2.52c14.182,1.941,27.924,5.52,41.426,10.064c22.931,7.717,44.107,18.855,63.771,32.977
	c13.107,9.413,25.146,20.012,36.095,31.8c12.014,12.934,22.566,27.042,31.443,42.317c7.563,13.013,14.01,26.565,19.185,40.744
	c4.393,12.036,7.595,24.373,10.318,36.846c1.001,4.588,1.219,9.34,2.006,13.982c1.268,7.479,1.841,14.991,1.834,22.575
	c-0.003,3.415,0.715,6.833,0.671,10.244c-0.081,6.253-0.183,12.533-0.808,18.748c-2.167,21.538-6.315,42.678-13.729,63.077
	c-8.47,23.305-19.93,45.004-35.067,64.709c-4.43,5.767-8.866,11.513-14.003,16.694c-2.72,2.743-5.033,5.901-7.837,8.547
	c-5.185,4.892-10.631,9.506-15.905,14.305c-8.438,7.676-17.807,14.087-27.41,20.161c-10.079,6.374-20.643,11.83-31.544,16.696
	c-12.767,5.7-25.939,10.153-39.489,13.451c-6.968,1.696-14.065,2.908-21.148,4.076c-6.541,1.079-13.117,2.099-19.72,2.601
	c-5.789,0.44-11.636,0.131-17.457,0.139c-3.582,0.005-7.165-0.028-10.747-0.018c-6.39,0.019-12.706-0.737-19.006-1.724
	c-4.217-0.661-8.442-1.286-12.675-1.838c-8.897-1.159-17.53-3.47-26.133-5.911c-19.06-5.41-37.12-13.214-54.226-23.16
	c-10.443-6.071-20.546-12.692-29.715-20.631c-5.722-4.954-11.733-9.609-17.139-14.885c-5.734-5.596-10.855-11.817-16.338-17.677
	c-7.314-7.816-13.347-16.6-19.137-25.529c-6.724-10.371-12.627-21.196-17.678-32.53c-6.002-13.466-10.878-27.276-14.36-41.568
	c-1.701-6.982-3.374-13.987-4.09-21.191c-0.626-6.3-1.706-12.553-2.545-18.833c-0.137-1.029-0.079-2.086-0.081-3.13
	C6.004,259.352,6.008,254.426,6.008,249.5z M213.058,335.013c-23.212,23.392-46.452,46.352-69.706,69.889
	c9.704,10.44,19.104,20.551,28.663,30.836c33.592-33.899,67.673-66.867,101.182-100.439
	c-34.031-34.652-67.71-68.945-101.083-102.927c-10.362,10.361-20.452,20.451-30.818,30.816
	c11.753,11.753,23.755,23.749,35.749,35.753C189.026,310.932,200.998,322.932,213.058,335.013z M359.467,104.454
	c-9.539-10.29-19.042-20.541-28.544-30.79c-15.693,14.452-98.152,97.508-100.257,101.094
	c33.414,34.131,66.897,68.332,99.928,102.072c10.436-10.43,20.533-20.521,30.856-30.838c-23.625-23.625-47.538-47.538-71.892-71.893
	C312.921,150.824,336.141,127.692,359.467,104.454z M318.592,289.336c-33.875-34.446-67.573-68.711-101.442-103.151
	c-5.388,5.255-10.661,10.06-15.531,15.243c-4.922,5.238-10.594,9.79-15.184,15.696c17.137,17.175,33.972,34.063,50.826,50.932
	c16.742,16.757,33.504,33.495,50.387,50.371C298.196,308.511,308.382,298.935,318.592,289.336z"/>
</svg>
