<?xml version="1.0" encoding="utf-8"?>
<!-- Generator: Adobe Illustrator 24.2.0, SVG Export Plug-In . SVG Version: 6.00 Build 0)  -->
<svg version="1.1" id="leo" xmlns="http://www.w3.org/2000/svg" xmlns:xlink="http://www.w3.org/1999/xlink" x="0px" y="0px"
	 viewBox="0 0 500 500" style="enable-background:new 0 0 500 500;" xml:space="preserve">
<style type="text/css">
	.st0{fill:#11021E;}
</style>
<path class="st0" d="M249.7,3.4C113.2,3.4,2.6,114,2.6,250.5s110.6,247.1,247.1,247.1S496.8,387,496.8,250.5S386.2,3.4,249.7,3.4z
	 M247.5,98.4l74,43.5v82.3l-49.7,20.4v-34.9H308v-60.2l-60.5-35.2l-19.6,10.2l-13.8-7.6L247.5,98.4z M119.6,168.1l75.7-46l58.2,33.1
	l-7.3,11.9l-50.2-29l-63.1,38v38.7l-13.3,0.4V168.1z M151.2,339.3l-31.7-23.4v-75.4l57.7-30.4h48.7v34l-45.8-19.6l-47.5,23.7v60.9
	l27.3,19.3L151.2,339.3z M246.2,393L173,355.3v-70.4l13.9,0.3v61.7l59.6,30.7l20.6-8l5.9,12.2L246.2,393z M366.4,319.7l-76.3,54.1
	l-50.9-38.7v-38l-40.8-43.2h96.2l-41.8,43.2v31.7l37,28.2l62.7-44.2v-29.3h13.9V319.7z M380.7,256.7l-62.4,38.6l-7.6-11.8l54.7-34.5
	v-63.1l-26.1-21.6l9.4-10.5l32,25.8V256.7z"/>
</svg>
