<?xml version="1.0" encoding="iso-8859-1"?>
<!-- Generator: Adobe Illustrator 19.0.0, SVG Export Plug-In . SVG Version: 6.00 Build 0)  -->
<svg version="1.1" id="Layer_1" xmlns="http://www.w3.org/2000/svg" xmlns:xlink="http://www.w3.org/1999/xlink" x="0px" y="0px"
	 viewBox="0 0 500 500" enable-background="new 0 0 500 500" xml:space="preserve">
<path d="M493.233,243.803c-0.615,42.988-8.558,79.113-25.18,113.192c-22.46,46.047-56.131,81.648-100.682,106.806
	c-22.699,12.818-46.931,21.746-72.652,26.52c-10.512,1.951-21.095,2.921-31.711,4.02c-11.945,1.236-23.777,0.541-35.545-0.465
	c-18.683-1.598-37.009-5.481-54.827-11.555c-29.513-10.061-56.451-24.715-80.185-45.004
	c-39.937-34.142-66.394-76.771-79.632-127.584c-2.931-11.248-5.266-22.64-6.005-34.287c-0.647-10.199-2.03-20.424-1.734-30.598
	c1.494-51.376,16.47-98.511,46.765-140.206c34.669-47.716,80.724-79.157,137.966-93.959c10.952-2.832,22.008-4.934,33.301-5.958
	c13.273-1.203,26.451-1.847,39.849-1.092c39.48,2.224,76.108,13.565,109.864,33.684c44.378,26.449,77.31,63.441,98.539,110.675
	c9.016,20.06,15.304,40.988,18.62,62.683C491.915,223.315,492.514,236.159,493.233,243.803z M439.428,247.608
	c-0.329-23.739-4.589-48.198-14.366-71.678c-13.96-33.527-35.389-61.142-64.678-82.525c-28.056-20.482-59.464-32.27-94.142-35.353
	c-26.123-2.323-51.66,0.481-76.546,8.58C164,74.994,141.25,88.636,121.407,106.899C93.45,132.631,74.49,163.836,64.95,200.777
	c-6.485,25.113-7.578,50.471-4.078,75.992c3.992,29.111,14.471,55.833,31.035,80.202c16.452,24.204,37.308,43.603,62.504,58.361
	c24.218,14.185,50.347,22.238,78.348,24.606c23.803,2.012,47.145-0.151,70.003-6.85c23.798-6.975,45.301-18.442,64.688-33.978
	c27.278-21.861,46.891-49.269,59.534-81.712C435.522,295.485,439.215,272.616,439.428,247.608z M223.64,163.149
	c-0.055-12.274,0.271-24.559-0.296-36.703c-16.507,0-32.387,0-48.906,0c0,24.966,0,49.603,0,74.816c-8.031,0-15.437,0-22.925,0
	c0,10.574,0,20.556,0,31.068c7.786,0,15.182,0,22.715,0c0,10.693,0,20.849,0,31.595c-7.767,0-15.182,0-22.707,0
	c0,10.579,0,20.558,0,31.108c7.742,0,15.126,0,23.161,0c0,25.829,0,51.092,0,76.391c57.821,0,114.964,0,172.02,0
	c0-13.813,0-27.235,0-41.273c-41.106,0-81.837,0-123.076,0c0.089-12.049-0.087-23.473,0.136-35.421c19.682,0,38.619,0,57.732,0
	c0-10.53,0-20.52,0-30.952c-19.358,0-38.33,0-57.518,0c0-10.73,0-21.013,0-31.762c19.326,0,38.285,0,57.576,0
	c0-10.454,0-20.439,0-30.966c-19.28,0-38.243,0-57.899,0C223.653,187.842,223.696,175.495,223.64,163.149z"/>
</svg>
