<?xml version="1.0" encoding="iso-8859-1"?>
<!-- Generator: Adobe Illustrator 19.0.0, SVG Export Plug-In . SVG Version: 6.00 Build 0)  -->
<svg version="1.1" id="Layer_1" xmlns="http://www.w3.org/2000/svg" xmlns:xlink="http://www.w3.org/1999/xlink" x="0px" y="0px"
	 viewBox="0 0 500 500" enable-background="new 0 0 500 500" xml:space="preserve">
<path d="M27.889,233.359c1.376-2.542,2.428-4.487,3.538-6.538c-0.769-2.152-1.506-4.212-2.279-6.375
	c14.855-40.785,38.994-75.261,69.639-105.093c10.031-1.222,10.266-1.427,10.075-9.017c53.121-44.684,114.436-67.816,184.465-68.34
	c2.116,1.425,4.179,2.814,6.409,4.316c2.464-0.559,4.905-1.114,7.514-1.706c61.928,23.802,110.007,64.293,144.485,121.071
	c3.093,5.093,3.978,10.535,3.131,16.552c2.731,1.568,5.152,2.957,8.112,4.656c3.522,8.761,7.833,17.768,10.66,27.218
	c1.493,4.991,1.158,10.87,0.356,16.151c-6.051,39.84-16.486,70.291-36.227,104.041c-2.158,1.052-4.677,2.28-7.562,3.687
	c0,2.918,0,5.72,0,8.431c-26.934,40.618-62.083,71.791-104.83,94.514c-21.545,11.453-44.452,19.347-68.094,25.084
	c-3.91,0.949-8.413,0.919-12.352,0.041c-19.663-4.379-38.739-10.729-57.013-19.205c-4.945-2.294-9.138-6.211-14.966-10.286
	c-4.001,1.298-8.486-1.813-13.054-4.65c-20.76-12.894-39.965-27.788-56.935-45.388c-31.547-32.719-53.69-71.104-67.177-114.392
	C32.208,256.657,30.398,244.633,27.889,233.359z M69.86,249.886c-1.341,97.812,81.154,180.505,181.559,180.201
	c99.497-0.3,181.594-80.908,181.27-180.399c-0.323-99.536-80.008-179.705-181.468-180.195
	C150.664,69.007,68.714,151.368,69.86,249.886z M440.509,333.866c0.366,2.248,0.706,4.338,0.98,6.022
	c-3.914,3.206-8.077,5.38-10.49,8.792c-17.329,24.505-37.541,46.189-61.558,64.226c-27.247,20.464-56.676,36.725-89.66,46.07
	c-5.554,1.573-11.002,3.517-16.5,5.29c8.647,2.509,17.08,3.991,25.529,4.088c18.575,0.213,37.226,1.251,55.682-1.86
	c7.806-1.316,16.111-1.203,23.072-5.556c11.386-7.12,23.182-13.824,33.603-22.199c24.912-20.022,45.78-43.647,61.276-71.931
	c13.065-23.846,21.788-49.087,27.049-75.641c0.309-1.558,0.565-3.218,0.368-4.77c-2.46-19.343-4.416-38.779-10.777-57.504
	C472.42,266.477,459.788,301.464,440.509,333.866z M21.671,243.166c-3.633,12.526-6.118,25.295-7.77,38.225
	c-0.645,5.051-2.564,10.484-1.406,15.119c3.527,14.123,7.32,28.32,12.706,41.812c20.617,51.644,55.451,91.298,103.336,119.475
	c4.1,2.412,8.476,5.026,13.033,5.859c11.6,2.118,23.334,3.899,35.089,4.648c11.513,0.734,23.13,0.337,34.677-0.15
	c8.347-0.352,16.654-1.664,25.501-2.604c-1.02-1.283-1.32-2.075-1.785-2.187c-17.796-4.278-34.793-10.701-51.31-18.55
	c-2.632-1.251-5.968-1.655-8.913-1.459c-4.073,0.272-7.271-0.563-8.211-4.696c-0.844-3.708-3.538-5.078-6.3-6.681
	c-3.592-2.085-7.294-4.017-10.716-6.354c-27.741-18.947-52.181-41.376-72.244-68.458c-21.319-28.778-36.858-60.339-46.1-94.951
	c-2.289-8.572-4.198-17.246-6.566-27.048C23.401,238.554,22.355,240.808,21.671,243.166z M29.158,212.473
	c13.649-35.382,34.862-65.812,60.911-93.065c4.175-4.368,9.166-8.103,9.453-14.911c3.365-0.485,6.137-0.884,7.928-1.142
	c51.149-43.096,109.49-65.267,176.523-69.51c-2.781-0.915-3.964-1.379-5.185-1.694c-14.585-3.759-29.317-6.507-44.346-8.03
	c-22.483-2.278-44.807-1.828-67.093,1.771c-3.464,0.559-7.266,0.274-10.369,1.626c-23.535,10.251-45.638,23.054-64.996,39.986
	c-24.106,21.086-43.859,45.776-58.293,74.5c-3.003,5.975-6.718,12.004-7.857,18.408c-1.728,9.71-1.954,19.771-1.941,29.682
	c0.011,8.247,1.284,16.491,2.152,26.515C27.717,214.425,28.737,213.565,29.158,212.473z M477.189,200.951
	c-0.641-11.711-1.47-23.415-1.849-35.134c-0.203-6.271-1.893-12.079-4.613-17.511c-7.601-15.18-16.17-29.796-26.412-43.394
	c-11.253-14.941-23.818-28.647-38.514-40.233c-4.956-3.907-10.358-7.657-16.152-10.018c-18.386-7.49-37.9-10.906-57.346-14.349
	c-5.48-0.97-11.094-1.179-17.541-1.827c1.402,1.495,1.918,2.514,2.713,2.825c25.497,9.976,48.503,24.106,69.958,41.037
	c26.482,20.898,48.301,45.843,65.947,74.483c3.52,5.713,6.933,11.355,12.402,15.448c0.465,0.348,0.629,1.097,1.111,1.987
	c-0.314,1.565-0.683,3.403-1.052,5.242c1.681,3.49,3.435,6.905,4.984,10.41c1.654,3.744,3.116,7.573,4.661,11.365
	C476.053,201.172,476.621,201.061,477.189,200.951z M343.011,471.478c-30.979,2.678-61.731,1.38-91.998-4.66
	c-31.807,5.971-63.523,7.579-95.666,3.527C217.626,497.044,280.245,497.124,343.011,471.478z M311.858,34.509
	c15.493,2.205,31.23,2.643,46.379,7.3c6.22,1.912,12.79,2.69,20.896,4.326C312.526,3.3,229.023,1.524,179.276,20.642
	c3.658,0,5.765,0.148,7.844-0.029c5.412-0.462,10.814-1.556,16.216-1.532c28.586,0.127,56.83,3.039,84.288,11.499
	c4.632,1.427,9.161,3.033,12.492,0.469C305.397,32.64,308.561,34.04,311.858,34.509z M15.802,251.942
	c1.303-7.921,4.309-15.288,4.556-23.733c0.245-8.381,1.158-16.843,0.95-25.341c-0.203-8.266-0.044-16.542-0.044-25.497
	c-10.89,17.329-17.291,81.065-10.417,99.955C12.651,268.19,14.459,260.104,15.802,251.942z M479.839,213.366
	c4.019,16.302,8.037,32.602,12.055,48.901c1.874-29.314-1.276-58.038-10.756-85.771
	C480.701,188.868,480.266,201.239,479.839,213.366z M249.935,329.939c-39.089,1.557-84.395-33.597-79.844-88.08
	c3.189-38.186,38.151-74.856,85.099-72.351c41.617,2.22,76.384,36.118,76.236,80.042
	C331.263,297.724,291.505,331.493,249.935,329.939z M223.09,230.914c15.191-4.3,21.825-11.988,20.032-22.876
	c-1.58-9.594-10.578-17.294-20.256-17.334c-9.543-0.039-18.793,8.83-19.712,18.902C202.255,219.465,209.749,227.657,223.09,230.914z
	"/>
</svg>
