<?xml version="1.0" encoding="iso-8859-1"?>
<!-- Generator: Adobe Illustrator 19.0.0, SVG Export Plug-In . SVG Version: 6.00 Build 0)  -->
<svg version="1.1" id="Layer_1" xmlns="http://www.w3.org/2000/svg" xmlns:xlink="http://www.w3.org/1999/xlink" x="0px" y="0px"
	 viewBox="0 0 500 500" enable-background="new 0 0 500 500" xml:space="preserve">
<path d="M5,247.947C4.994,113.366,115.396,3.97,251.189,4c136.03,0.03,244.924,110.869,244.755,249.127
	c-0.161,132.663-112.071,241.88-247.78,241.817C113.941,494.883,5.006,384.23,5,247.947z M250.389,12.728
	C121.487,12.729,15.044,117.926,13.267,243.573C11.34,379.858,121.317,486.798,249.744,486.33
	c130.315-0.475,237.493-105.528,237.473-233.767C487.195,118.6,382.649,12.727,250.389,12.728z M134.369,104.027
	c17.975,31.331,35.168,61.3,52.308,91.178C148.293,261.897,110.3,327.91,71.728,394.93c99.172,0,196.319,0,295.02,0
	c-17.99-31.283-35.243-61.282-52.555-91.387c38.305-66.333,76.297-132.124,115.214-199.516
	C330.193,104.027,233.318,104.027,134.369,104.027z"/>
</svg>
