<?xml version="1.0" encoding="iso-8859-1"?>
<!-- Generator: Adobe Illustrator 19.0.0, SVG Export Plug-In . SVG Version: 6.00 Build 0)  -->
<svg version="1.1" id="Layer_1" xmlns="http://www.w3.org/2000/svg" xmlns:xlink="http://www.w3.org/1999/xlink" x="0px" y="0px"
	 viewBox="0 0 2000 2000" style="enable-background:new 0 0 2000 2000;" xml:space="preserve">
<path d="M993.24,20.807c545.723-7.533,988.224,430.04,983.99,978.346c-4.277,553.922-428.377,968.22-953.955,976.182
	c-571.147,8.653-991.942-434.79-995.188-973.961C24.744,446.172,474.417,23.454,993.24,20.807z M1925.139,998.787
	c4.949-498.126-401.917-909.428-889.042-920.69C476.001,65.148,80.998,526.087,87.669,996.995
	c7.321,516.771,421.446,921.44,923.012,919.91C1493.255,1915.433,1917.724,1533.55,1925.139,998.787z M166.43,996.654
	c4.43-480.908,379.487-835.838,834.18-839.37c470.098-3.652,843.534,379.27,843.706,851.992
	c0.154,425.524-354.84,838.859-860.127,828.709C539.633,1829.054,161.127,1463.754,166.43,996.654z M964.777,1088.961
	c1.772-14.288,4.141-24.527,4.145-34.768c0.048-123.806,0.603-247.621-0.806-371.414c-0.764-67.129-24.401-89.351-90.857-92.799
	c-11.534-0.599-22.965-3.175-34.443-4.838c0.181-4.189,0.362-8.378,0.543-12.566c11.944-0.921,23.905-2.804,35.83-2.602
	c65.795,1.116,131.575,3.211,197.372,4.079c90.714,1.197,182.242-5.842,271.995,3.852c201.72,21.789,259.721,187.792,213.536,329.44
	c-20.254,62.12-59.885,110.567-105.78,154.848c-18.633,17.978-38.128,35.064-59.044,54.216
	c89.983,111.15,171.055,222.102,265.1,323.999c166.852-220.717,219.839-638.737-43.422-953.516
	c-275.912-329.905-724.373-348.546-986.576-187.299c-1.201,16.091-3.821,35.415-3.879,54.746
	c-0.234,77.705-0.161,155.419,0.696,233.119c1.539,139.556,2.651,279.131,6.105,418.645c1.655,66.856,26.673,95.075,92.48,100.199
	c58.853,4.583,118.396,2.577,177.51,0.274C925.188,1105.803,944.71,1095.192,964.777,1088.961z M1129.272,1171.831
	c-2.484,13.562-5.282,21.234-5.066,28.821c2.736,96.035,4.189,192.154,9.588,288.048c3.428,60.878,18.744,72.813,80.54,79.81
	c15.542,1.76,30.839,5.68,46.249,8.607c-0.3,4.036-0.6,8.072-0.9,12.108c-32.062,10.093-65.71,3.1-98.645,2.941
	c-32.911-0.159-65.815-1.724-98.727-1.918c-34.222-0.202-68.487,1.632-102.663,0.476c-31.903-1.079-65.092,7.845-98.38-3.71
	c3.647-7.416,4.022-9.417,4.81-9.595c11.252-2.552,22.515-5.106,33.863-7.177c40.348-7.365,50.548-16.995,59.723-57.37
	c1.456-6.406,2.951-12.964,3.095-19.482c2.125-96.033,4.154-192.069,5.663-288.113c0.092-5.878-4.348-11.827-8.726-22.937
	c-39.762,0-80.349,0.424-120.922-0.119c-40.797-0.545-81.587-1.863-122.368-3.19c-40.778-1.327-81.531-3.724-122.316-4.472
	c-40.786-0.747-81.627,0.954-122.39-0.245c-38.18-1.122-77.433,12.038-114.999-6.582c10.825-7.201,21.727-9.292,32.727-10.321
	c40.424-3.779,56.179-16.723,63.319-57.139c5.027-28.453,9.741-57.421,9.936-86.191c1.24-183.026,1.271-366.061,1.33-549.093
	c0.003-10.539-3.247-21.079-5.331-33.73c-160.563,92.364-282.994,448.064-240.388,685.822
	c61.585,343.67,319.279,606.438,649.224,667.447c291.747,53.946,583.565-85.913,703.746-235.439
	c-119.561-108.835-194.703-253.453-297.222-377.26C1225.643,1171.831,1178.989,1171.831,1129.272,1171.831z M1126.155,1085.54
	c44.312,23.674,86.413,22.99,128.392,24.224c60.178,1.769,104.465-24.878,132.16-76.57c46.817-87.382,47.879-178.738,15.059-270.677
	c-18.961-53.117-55.942-92.272-107.19-115.317c-54.45-24.485-110.595-25.345-168.421-6.339
	C1126.155,791.488,1126.155,937.938,1126.155,1085.54z"/>
</svg>
