<?xml version="1.0" encoding="iso-8859-1"?>
<!-- Generator: Adobe Illustrator 19.0.0, SVG Export Plug-In . SVG Version: 6.00 Build 0)  -->
<svg version="1.1" id="Layer_1" xmlns="http://www.w3.org/2000/svg" xmlns:xlink="http://www.w3.org/1999/xlink" x="0px" y="0px"
	 viewBox="0 0 500 500" enable-background="new 0 0 500 500" xml:space="preserve">
<path d="M353.593,116.232c8.27-8.187,15.97-16.163,24.055-23.728c10.792-10.096,25.283-7.71,31.584,4.916
	c4.141,8.298,1.831,15.67-4.213,21.692c-7.878,7.85-16.374,15.08-24.672,22.639c2.385,4.076,3.36,6.331,4.839,8.185
	c26.809,33.602,40.996,72.082,46.381,114.556c7.175,56.599-6.144,109.283-28.002,160.642c-0.279,0.655-0.65,1.312-1.128,1.829
	c-0.469,0.507-1.13,0.835-2.981,2.139c-50.291-50.212-100.774-100.616-152.092-151.853c-36.436,36.363-72,71.855-108.006,107.787
	c-17.123-14.548-31.99-30.024-45.06-47.221c-41.657-54.814-62.644-117.688-72.198-185.054c-6.409-45.189-8.368-90.354-0.195-135.549
	c0.439-2.428,0.98-4.837,1.452-7.146C90.119,8.894,258.944,35.92,353.593,116.232z M218.869,249.545
	c-1.964-2.232-3.736-4.471-5.736-6.484c-16.742-16.852-33.51-33.678-50.305-50.476c-6.366-6.368-9.456-13.675-5.973-22.486
	c5.269-13.327,20.776-16.37,31.923-5.963c10.253,9.572,19.921,19.77,29.866,29.672c9.363,9.322,18.752,18.617,27.387,27.187
	c26.48-26.303,52.105-51.755,78.817-78.289C246.345,82.468,154.14,62.513,59.454,49.921c-1.224,2.348-2.017,3.245-2.143,4.228
	c-0.364,2.848-0.562,5.727-0.647,8.599c-1.24,41.922,1.901,83.486,11.278,124.408c11.228,48.996,30.326,94.442,62.341,133.799
	c2.599,3.195,5.562,6.092,8.193,8.95C165.632,302.76,191.782,276.621,218.869,249.545z M275.843,250.98
	c35.879,35.807,72.034,71.89,108.787,108.569c22.918-53.845,3.178-162.655-31.328-185.453
	C327.627,199.581,302.157,224.862,275.843,250.98z M469.55,9.497c-7.597,1.986-15.257,3.833-22.988,5.172
	c-11.321,1.961-22.775,3.162-34.091,5.145c-13.465,2.36-16.712,11.41-7.203,21.256c17.716,18.343,35.752,36.392,54.074,54.129
	c9.804,9.49,18.98,6.266,21.33-7.211c2.406-13.796,3.943-27.742,6.21-41.565c1.158-7.062,3.079-13.999,4.65-20.993
	C491.631,15.806,479.229,6.967,469.55,9.497z M84.622,398.877c-19.996,2.668-39.981,5.46-59.887,8.714
	c-3.991,0.652-7.988,3.092-11.306,5.602c-4.544,3.436-4.277,7.383-0.408,11.958c8.209,9.706,16.862,16.719,30.315,9.794
	c1.567-0.807,3.43-1.105,5.192-1.46c12.551-2.53,20.641,5.181,18.413,17.617c-0.57,3.183-1.052,6.523-2.406,9.399
	c-4.755,10.095-0.415,16.699,7.36,22.914c9.943,7.948,18.684,5.474,20.802-7.215c3.438-20.598,6.031-41.336,9.072-62.657
	C102.385,403.916,95.424,397.436,84.622,398.877z"/>
</svg>
