<?xml version="1.0" encoding="iso-8859-1"?>
<!-- Generator: Adobe Illustrator 19.0.0, SVG Export Plug-In . SVG Version: 6.00 Build 0)  -->
<svg version="1.1" id="Layer_1" xmlns="http://www.w3.org/2000/svg" xmlns:xlink="http://www.w3.org/1999/xlink" x="0px" y="0px"
	 viewBox="0 0 500 500" enable-background="new 0 0 500 500" xml:space="preserve">
<path d="M395.766,60.425c-51.337,7.609-85.351,38.973-115.897,75.367c-23.912,28.49-42.525,60.35-58.335,93.916
	c-1.682,3.571-3.539,7.06-5.748,11.446c-9.733-2.805-18.93-4.625-27.472-8.068c-28.021-11.295-40.413-32.387-36.856-69.288
	c4.372-45.364,45.695-81.622,91.465-81.822c10.471-0.046,20.944,2.061,31.432,3.006c3.968,0.358,8.423,1.354,11.841,0.001
	c3.189-1.262,6.649-4.917,7.457-8.151c0.66-2.642-1.59-7.314-4.015-9.134c-4.106-3.082-9.168-5.425-14.178-6.68
	c-24.632-6.171-49.3-6.901-72.609,4.613c-38.987,19.259-68.118,47.087-75.029,92.466c-7.161,47.018,14.468,83.176,59.148,99.555
	c5.687,2.085,11.453,3.956,17.135,5.909c-4.052,17.76-28.83,60.472-45.551,79.034c-21.654-4.625-42.821-10.427-64.379-13.392
	c-21.97-3.022-44.099-2.27-62.117,14.122C-2.207,287.025-5.377,167.566,76.521,84.163C170.015-11.047,312.655-5.932,395.766,60.425z
	 M413.139,423.819c99.516-89.824,96.428-228.574,36.445-307.638c-26.281,76.675-85.409,118.074-158.029,147.021
	c-13.798,37.024-33.253,72.293-60.227,104.373c23.42,6.77,45.941,8.436,68.728,7.71c21.28-0.677,41.09-6.415,57.403-20.324
	c10.106-8.617,18.679-19.046,27.822-28.774c5.728-6.095,11.299-12.175,19.974-6.496c4.901,6.938,3.856,13.39-0.354,18.798
	c-17.178,22.064-33.606,44.866-52.436,65.451c-23.677,25.883-53.882,33.901-87.709,23.211
	c-23.084-7.295-45.707-16.052-70.602-24.888c-25.567,18.52-55.784,31.948-91.7,31.973
	C176.379,497.732,316.119,511.391,413.139,423.819z M414.309,130.286c4.705-8.35,6.343-19.222,6.698-29.027
	c0.446-12.317-9.107-20.369-21.382-19.494c-5.866,0.418-12.037,2.146-17.264,4.844c-13.731,7.088-23.551,18.556-31.357,31.617
	c-21.31,35.653-35.223,74.484-47.645,114.576C349.407,208.322,388.455,176.173,414.309,130.286z M82.352,350.85
	c-6.385-0.618-13.122-0.587-19.348,0.762c-12.894,2.792-19.018,15.844-13.586,27.261c8.554,17.979,23.989,24.982,43.229,19.17
	c17.121-5.172,30.37-16.151,43.336-29.232C118.43,359.472,101.175,352.671,82.352,350.85z"/>
</svg>
