<?xml version="1.0" encoding="iso-8859-1"?>
<!-- Generator: Adobe Illustrator 19.0.0, SVG Export Plug-In . SVG Version: 6.00 Build 0)  -->
<svg version="1.1" id="Layer_1" xmlns="http://www.w3.org/2000/svg" xmlns:xlink="http://www.w3.org/1999/xlink" x="0px" y="0px"
	 viewBox="0 0 2000 2000" style="enable-background:new 0 0 2000 2000;" xml:space="preserve">
<path d="M1979.105,1019.104c-9.325,528.33-432.011,952.609-978.722,957.138c-279.208,2.313-519.954-104.655-712.572-308.16
	c-177.424-187.451-267.04-415.068-265.644-671.788c1.501-275.909,103.5-515.235,304.64-706.606
	C515.249,110.4,744.277,19.521,1002.778,20.77c274.98,1.328,513.793,103.286,704.914,303.495
	C1887.368,512.483,1973.924,740.558,1979.105,1019.104z M1002.356,119.796C505.648,116.333,135.5,515.552,116.611,957.18
	c-23.192,542.243,402.005,920.87,856.631,929.554c521.744,9.965,896.717-396.057,909.969-859.314
	C1897.864,515.153,1481.882,114.624,1002.356,119.796z M1800.36,922.531c-0.082,317.069-85.259,513.975-253.375,671.272
	c-168.511,157.666-372.936,229.543-603.14,213.391c-402.749-28.259-757.706-357.88-746.553-826.661
	c10.012-420.84,355.712-796.588,846.633-774.663C1450.267,224.019,1806.221,569.786,1800.36,922.531z M752.2,1165.653
	c-52.8,0-103.076,0.208-153.347-0.186c-9.363-0.073-19.016-1.505-28.01-4.117c-61.76-17.937-99.187-59.365-108.388-122.372
	c-12.637-86.543,40.918-165.704,134.409-169.621c104.179-4.364,208.701-2.158,313.036-0.466
	c45.683,0.741,85.51,20.126,108.663,60.936c16.173,28.507,25.786,60.735,38.076,90.685c44.488,0,90.1,0,135.327,0
	c8.619-50.299-9.521-103.418-26.012-132.543c-61.354-108.355-154.43-164.071-280.351-163.097
	c-92.859,0.719-185.729-0.118-278.593,0.249c-47.718,0.189-94.007,11.427-134.625,34.926
	c-100.269,58.01-155.031,144.567-154.792,263.125c0.241,119.781,62.052,199.886,163.24,253.588
	c85.549,45.402,178.714,30.441,271.367,31.833C752.2,1260.559,752.2,1214.927,752.2,1165.653z M793.76,1008.225
	c2.442,21.604,3.169,42.404,7.347,62.486c17.01,81.766,62.566,144.39,133.097,187.893c55.602,34.296,117.833,46.054,182.544,44.992
	c85.642-1.406,171.299-2.722,256.897-5.615c29.412-0.994,59.343-3.786,87.88-10.599c131.202-31.319,230.934-171.483,210.013-313.706
	c-13.307-90.458-59.192-159.085-136.346-208.155c-39.985-25.431-82.483-40.633-129.761-41.108
	c-55.872-0.561-111.754-0.132-167.118-0.132c0,45.332,0,91.616,0,138.762c46.306,0,90.532,1.143,134.679-0.241
	c88.497-2.773,153.892,62.813,156.387,149.656c2.345,81.628-60.651,147.873-142.297,147.88
	c-101.707,0.008-203.417,0.41-305.121-0.176c-47.594-0.274-87.183-19.923-110.983-61.153c-15.543-26.927-23.54-58.21-36.176-90.786
	C892.381,1008.225,845.21,1008.225,793.76,1008.225z"/>
</svg>
