<?xml version="1.0" encoding="iso-8859-1"?>
<!-- Generator: Adobe Illustrator 19.0.0, SVG Export Plug-In . SVG Version: 6.00 Build 0)  -->
<svg version="1.1" id="Layer_1" xmlns="http://www.w3.org/2000/svg" xmlns:xlink="http://www.w3.org/1999/xlink" x="0px" y="0px"
	 viewBox="0 0 2000 2000" style="enable-background:new 0 0 2000 2000;" xml:space="preserve">
<path d="M1985.371,992.781c1.295,541.551-425.294,983.266-961.174,990.729c-557.623,7.766-973.051-409.05-1006.985-922.476
	C-1.884,772.097,96.001,519.025,299.209,311.2C493.361,112.637,734.412,20.699,1009.766,13.066
	C1553.592,31.364,1980.514,453.819,1985.371,992.781z M1659.139,1089.172c3.416-0.782,6.832-1.564,10.248-2.345
	c1.023-10.489,2.902-20.976,2.917-31.466c0.059-41.775,1.155-83.646-1.299-125.295c-1.862-31.612-4.736-64.079-13.792-94.17
	c-21.807-72.457-53.86-140.936-94.349-204.944c-48.24-76.262-114.387-135.592-185.887-189.152
	c-9.986-7.48-23.599-12.386-36.071-13.826c-29.436-3.4-59.214-5.702-88.823-5.404c-95.461,0.959-190.781,4.661-285.512,18.234
	c-56.217,8.055-112.973,12.605-168.975,21.838c-68.697,11.326-137.003,25.203-205.163,39.482
	c-20.812,4.36-45.637,8.35-59.819,21.796c-33.251,31.523-64.376,66.439-90.513,104.047
	c-39.456,56.772-65.948,120.987-88.187,186.234c-10.831,31.777-18.504,65.759-20.496,99.167
	c-3.316,55.629-2.112,111.637-0.38,167.41c0.807,25.984,4.844,52.463,11.689,77.552c20.88,76.532,53.746,148.795,98.272,213.735
	c71.774,104.68,163.829,187.42,282.102,239.063c45.72,19.964,89.851,40.527,141.254,25.512c2.034-0.594,4.424,0.157,6.573-0.186
	c28.631-4.564,57.248-9.211,85.499-13.778c3.753-49.785,12.238-93.386,34.421-133.513c12.147-21.973,24.456-44.135,33.625-67.419
	c21.163-53.744,40.556-108.187,60.374-162.454c2.38-6.516,2.948-13.694,3.684-17.289c-22.952-5.059-43.605-7.511-62.744-14.258
	c-42.051-14.826-84.308-29.747-124.62-48.605c-31.145-14.57-57.951-16.659-84.334,7.224c-1.272,1.151-4.212,0.458-7.684,0.725
	c-19.39-21.87-44.474-33.474-74.721-34.371c-8.679-0.257-17.541-2.289-25.839-4.987c-7.008-2.278-15.894-5.01-19.472-10.474
	c-12.23-18.676-21.83-38.818-19.005-63.683c5.248,1.644,9.642,1.626,11.15,3.704c19.105,26.312,42.884,27.22,72.881,20.179
	c23.949-5.622,51.763-7.047,75.106-0.504c54.013,15.14,108.798,22.77,164.117,29.288c55.572,6.548,110.924,15.327,166.802,2.786
	c16.273-3.652,28.964,2.074,41.455,13.798c42.345,39.744,85.365,78.818,129.361,116.716c11.047,9.516,26.094,16.095,40.394,19.713
	c19.459,4.924,29.977-5.241,35.49-24.217c7.924-27.272-5.194-45.454-21.893-64.257c-25.94-29.21-26.095-49.681-3.567-81.909
	c7.554-10.807,15.388-21.422,22.816-32.314c9.707-14.235,8.209-26.324-7.191-35.755c-5.568-3.41-10.207-8.613-16.059-11.24
	c-49.452-22.197-84.28-62.238-120.636-99.959c-12.416-12.882-23.56-29.428-16.177-52.307c8.716-4.116,18.074-10.341,28.359-13.046
	c28.328-7.448,56.844-14.553,85.667-19.622c23.124-4.066,32.115-9.203,35.194-26.76c5.83-33.245,26.036-49.701,60.128-42.286
	c50.805,11.05,98.677,33.418,116.109,101.721c6.893,27.009,21.35,52.091,32.395,78.037c9.729,22.854,19.725,45.597,29.192,68.559
	C1642.133,1045.539,1650.518,1067.404,1659.139,1089.172z M1028.073,1603.739c1.488,2.101,2.975,4.202,4.463,6.304
	c120.159-25.615,237.519-60.006,354.377-112.005c-73.134-44.128-128.298-99.166-170.389-167.468
	c-7.239-11.747-18.248-21.172-31.51-36.194c-3.464,13.657-4.592,21.998-7.693,29.526c-6.536,15.861-10.293,35.47-21.961,46.13
	c-36.066,32.952-62.465,72.976-90.561,111.939c-16.983,23.551-18.158,25.325-0.646,48.704c11.339,15.137,8.068,25.148-3.536,36.881
	C1049.222,1579.076,1038.878,1591.635,1028.073,1603.739z M1598.263,1142.796c-18.597,48.82-36.299,92.055-51.47,136.161
	c-11.817,34.356-9.016,69.216,4.392,108.139c41.484-66.003,74.522-130.67,97.158-202.229
	C1632.583,1171.627,1617.716,1159.138,1598.263,1142.796z M1412.462,955.84c-4.938-24.249-9.595-47.12-14.812-72.736
	c-20.165,8.771-40.764,17.73-66.972,29.13C1363.396,927.87,1378.241,961.202,1412.462,955.84z"/>
</svg>
