<?xml version="1.0" encoding="iso-8859-1"?>
<!-- Generator: Adobe Illustrator 19.0.0, SVG Export Plug-In . SVG Version: 6.00 Build 0)  -->
<svg version="1.1" id="Layer_1" xmlns="http://www.w3.org/2000/svg" xmlns:xlink="http://www.w3.org/1999/xlink" x="0px" y="0px"
	 viewBox="0 0 500 500" enable-background="new 0 0 500 500" xml:space="preserve">
<path d="M307.141,207.699c63.518,0,125.98,0,186.995,0c-17.989,18.006-36.53,36.563-57.086,57.138c-58.812,0-121.232,0-183.737,0
	c44.466,44.459,88.686,88.672,131.342,131.321c0,29.178,0,55.354,0,81.458c-44.095-44.179-88.096-88.264-132.859-133.112
	c-45.613,45.925-89.879,90.495-135.637,136.566c0-28.597,0-54.857,0-82.35c43.943-43.531,88.603-87.772,134.864-133.6
	c-65.07,0-127.563,0-188.353,0c-19.622-19.463-38.117-37.807-57.205-56.74c62.834,0,125.119,0,190.748,0
	c16.282,16.703,34.45,35.34,54.031,55.428c0-82.62,0-163.252,0-244.808c19.283,19.283,37.654,37.653,56.897,56.894
	C307.141,118.678,307.141,162.72,307.141,207.699z"/>
</svg>
