<?xml version="1.0" encoding="iso-8859-1"?>
<!-- Generator: Adobe Illustrator 19.0.0, SVG Export Plug-In . SVG Version: 6.00 Build 0)  -->
<svg version="1.1" id="Layer_1" xmlns="http://www.w3.org/2000/svg" xmlns:xlink="http://www.w3.org/1999/xlink" x="0px" y="0px"
	 viewBox="0 0 500 500" enable-background="new 0 0 500 500" xml:space="preserve">
<path d="M433.891,189.465c0.217,8.322-0.507,20.065-3.179,31.573c-3.043,13.106-7.525,25.744-13.052,38.035
	c-8.006,17.805-18.321,34.186-29.721,49.974c-10.801,14.959-21.218,30.194-31.928,45.219
	c-14.499,20.341-29.305,40.464-43.629,60.926c-14.174,20.248-27.845,40.847-41.888,61.187c-3.748,5.428-7.683,10.821-12.196,15.604
	c-5.349,5.67-10.909,5.661-16.011-0.177c-5.429-6.213-10.235-13.008-14.951-19.8c-12.868-18.529-25.353-37.326-38.345-55.767
	c-19.506-27.687-39.393-55.105-58.963-82.746c-10.803-15.259-21.775-30.434-31.8-46.199c-13.483-21.202-23.435-44.058-28.649-68.785
	c-3.39-16.078-3.373-32.318-1.819-48.571c2.192-22.919,8.619-44.616,19.033-65.18c10.294-20.326,23.812-38.2,40.737-53.361
	c14.597-13.077,30.811-23.888,49.031-31.344c8.287-3.391,16.731-6.516,25.32-9.019c7.247-2.112,14.745-3.739,22.243-4.528
	c10.785-1.135,21.681-1.955,32.51-1.769c22.923,0.394,45.018,5.469,66.062,14.493c21.594,9.259,40.84,22.16,57.497,38.855
	c13.068,13.098,23.957,27.812,32.512,44.159C426.413,128.432,433.566,156.365,433.891,189.465z M249.452,39.486
	c-10.59,0.135-22.167,1.218-33.612,3.795c-15.535,3.498-30.12,9.326-43.671,17.631c-17.601,10.786-32.272,24.74-43.962,41.763
	c-14.442,21.03-23.784,44.05-26.281,69.567c-2.887,29.506,4.208,57.053,17.77,82.974c6.154,11.763,13.206,23.132,20.695,34.104
	c16.19,23.72,32.837,47.131,49.462,70.551c14.642,20.627,29.483,41.113,44.292,61.621c3.918,5.426,7.862,10.853,12.136,15.995
	c2.79,3.357,5.637,3.197,8.388-0.196c3.147-3.88,6.006-7.998,8.931-12.055c8.584-11.91,17.096-23.872,25.716-35.757
	c11.867-16.362,23.949-32.571,35.675-49.033c11.275-15.828,22.257-31.865,33.29-47.864c12.559-18.212,24.167-36.953,31.81-57.877
	c6.806-18.631,10.178-37.758,9.009-57.66c-1.168-19.885-6.679-38.522-15.714-56.146c-8.825-17.214-20.31-32.332-34.979-45.159
	c-13.692-11.974-28.894-21.032-45.919-27.28C285.702,42.3,268.362,39.619,249.452,39.486z M136.283,231.169
	c2.234,8.62,6.192,16.481,11.201,23.833c4.723,6.933,10.321,12.954,17.765,17.005c8.442,4.595,12.757,3.825,18.899-3.534
	c4.799-5.75,9.402-11.665,14.05-17.54c10.235-12.936,20.462-25.879,30.649-38.852c2.233-2.844,4.461-5.72,6.385-8.774
	c2.976-4.725,0.422-9.644-5.135-10.136c-1.398-0.124-2.841-0.092-4.23,0.103c-12.482,1.753-24.962,3.521-37.432,5.359
	c-13.96,2.057-27.927,4.079-41.851,6.361c-4.061,0.666-8.331,1.969-10.108,6.213c-1.187,2.833-1.376,6.083-1.969,8.938
	C135.114,224.043,135.381,227.688,136.283,231.169z M259.259,310.333c9.292-1.191,18.172-3.424,25.589-9.724
	c3.207-2.724,4.293-5.947,3.572-9.877c-0.396-2.161-0.947-4.333-1.752-6.373c-6.449-16.335-12.939-32.654-19.493-48.947
	c-3.522-8.755-7.144-17.472-10.837-26.157c-1.072-2.52-2.777-4.552-5.944-4.455c-3.237,0.099-5.131,2.131-6.438,4.742
	c-1.22,2.437-2.204,4.996-3.222,7.53c-6.244,15.542-12.521,31.07-18.675,46.647c-3.205,8.114-6.35,16.26-9.194,24.504
	c-1.622,4.701-1.212,9.263,3.282,12.563c1.134,0.833,2.191,1.781,3.378,2.527c9.408,5.91,19.933,7.287,31.635,7.585
	C253.27,310.759,256.286,310.714,259.259,310.333z M233.275,66.837c-5.947,1.084-11.398,3.503-16.183,7.27
	c-4.981,3.921-6.262,7.187-4.214,13.181c2.841,8.318,6.034,16.521,9.265,24.699c5.534,14.004,11.191,27.96,16.846,41.916
	c1.786,4.407,3.574,8.824,5.645,13.099c1.929,3.98,6.246,5.175,9.48,2.541c1.551-1.263,2.71-3.279,3.483-5.183
	c7.271-17.903,14.466-35.837,21.584-53.802c3.054-7.709,6.028-15.458,8.739-23.292c1.385-4.002,1.269-8.189-2.109-11.341
	c-2.033-1.897-4.413-3.518-6.856-4.866c-8.907-4.916-18.708-5.931-31.1-6.338C244.584,65.184,238.893,65.812,233.275,66.837z
	 M364.147,211.147c-2.042-4.666-6.837-5.496-11.239-6.329c-5.363-1.016-10.793-1.677-16.199-2.46
	c-9.34-1.354-18.684-2.673-28.024-4.03c-5.928-0.861-11.842-1.819-17.775-2.634c-6.382-0.877-12.773-1.697-19.174-2.421
	c-2.575-0.291-4.935,0.363-6.453,2.728c-1.691,2.635-1.146,5.222,0.304,7.741c0.438,0.761,0.936,1.497,1.476,2.191
	c4.648,5.971,9.291,11.947,13.976,17.889c8.499,10.778,16.98,21.57,25.561,32.282c4.121,5.144,8.279,10.28,12.744,15.121
	c3.403,3.69,7.753,4.891,12.509,2.458c2.894-1.481,5.844-2.956,8.459-4.859c8.405-6.118,14.051-14.525,18.734-23.614
	c3.96-7.685,6.712-15.754,7.243-24.623C365.612,217.424,365.418,214.05,364.147,211.147z M365.303,149.044
	c-1.881-12.105-7.569-22.493-14.818-32.101c-4.397-5.828-9.752-10.605-16.358-13.951c-6.832-3.46-10.924-3.09-15.985,2.652
	c-5.273,5.983-10.219,12.261-15.173,18.516c-9.872,12.464-19.689,24.974-29.45,37.525c-3.017,3.88-6.005,7.817-8.586,11.988
	c-1.808,2.922-0.415,6.741,2.796,7.892c2.139,0.767,4.66,0.967,6.942,0.74c5.532-0.549,11.026-1.483,16.532-2.286
	c11.095-1.619,22.19-3.248,33.282-4.887c9.349-1.382,18.724-2.615,28.035-4.222c10.73-1.852,13.134-4.9,13.424-15.816
	C365.735,153.077,365.614,151.045,365.303,149.044z M135.124,159.466c0.418,4.658,2.446,8.222,7.017,9.914
	c1.562,0.578,3.189,1.079,4.829,1.335c11.337,1.773,22.68,3.514,34.033,5.182c12.317,1.81,24.641,3.577,36.976,5.263
	c4.193,0.573,8.42,1.018,12.645,1.188c3.031,0.122,5.044-1.925,5.646-4.918c0.627-3.119-0.927-5.488-2.684-7.727
	c-13.982-17.82-27.969-35.636-42.02-53.401c-3.161-3.996-6.442-7.919-9.931-11.628c-2.526-2.686-5.662-4.67-9.648-3.656
	c-5.378,1.368-9.993,4.194-14.151,7.829c-7.491,6.548-12.789,14.684-17.06,23.55c-3.474,7.211-5.94,14.703-5.891,23.37
	C134.941,156.645,134.998,158.058,135.124,159.466z"/>
</svg>
