<?xml version="1.0" encoding="iso-8859-1"?>
<!-- Generator: Adobe Illustrator 19.0.0, SVG Export Plug-In . SVG Version: 6.00 Build 0)  -->
<svg version="1.1" id="Layer_1" xmlns="http://www.w3.org/2000/svg" xmlns:xlink="http://www.w3.org/1999/xlink" x="0px" y="0px"
	 viewBox="0 0 500 500" enable-background="new 0 0 500 500" xml:space="preserve">
<path d="M488.235,308.819c-8.238-13.822-17.595-25.227-30.574-33.128c-22.379-13.622-45.876-17.052-71.236-8.977
	c-23.16,7.375-37.815,23.832-50.382,43.306c-10.607,16.437-22.959,31.68-42.224,38.152c-21.303,7.157-42.449,16.67-65.386,16.031
	c-31.323-0.873-57.806-23.68-64.065-55.392c-1.968-9.97-0.478-20.654-0.308-31.007c0.274-16.75,0.136-33.54,1.304-50.234
	c1.966-28.084,15.286-51.07,34.811-70.524c14.675-14.623,25.176-31.386,28.58-51.87c3.581-21.549-2.068-41.323-14.019-59.343
	c-9.314-14.044-22.181-23.963-37.747-30.949C237.207-6.21,330.558-3.722,406.915,59.625
	C485.178,124.554,510.188,222.384,488.235,308.819z M4.374,239.227C1.351,309.12,30.188,368.143,53.527,395.263
	c0.541-1.437,1.123-2.718,1.511-4.056c4.021-13.875,11.732-25.516,21.023-36.437c22.296-26.208,34.595-56.281,33.913-91.12
	c-0.176-8.991-0.728-18.009-0.277-26.972c1.494-29.678-5.498-56.832-22.866-81.156c-5.903-8.267-12.108-16.385-17.245-25.117
	c-6.561-11.151-8.64-23.761-9.045-38.199C25.237,136.071,6.735,184.626,4.374,239.227z M396.318,428.558
	c-12.62-4.17-24.93-9.269-37.439-13.789c-22.266-8.046-45.247-10.491-68.496-6.334c-11.661,2.085-23.019,6.137-34.323,9.878
	c-14.202,4.7-25.922,13.172-35.314,24.897c-8.237,10.283-16.489,20.566-25.107,30.526c-3.592,4.151-8.149,7.468-13.096,11.908
	c43.778,12.068,86.631,12.467,129.407,1.517c38.528-9.863,72.671-28.326,103.076-55.521
	C407.885,430.524,401.825,430.378,396.318,428.558z M412.205,302.781c-24.591,0.295-43.31,20.835-43.101,45.042
	c0.199,23.028,20.669,42.582,45.063,42.531c21.014-0.044,43.969-18.956,42.198-43.835
	C457.927,323.671,436.658,302.488,412.205,302.781z M136.046,458.412c22.617,0.54,43.275-19.043,43.564-40.294
	c0.411-30.236-19.587-46.565-42.973-46.909c-26.32-0.387-44.181,20.198-43.869,43.425
	C92.947,439.505,111.695,457.83,136.046,458.412z M188.508,92.511c-0.617-25.846-18.076-43.342-44.761-43.291
	c-23.703,0.045-41.745,16.909-41.971,43.508c-0.206,24.201,18.769,43.246,42.549,43.257
	C169.741,136.638,189.077,116.339,188.508,92.511z"/>
</svg>
