<?xml version="1.0" encoding="iso-8859-1"?>
<!-- Generator: Adobe Illustrator 19.0.0, SVG Export Plug-In . SVG Version: 6.00 Build 0)  -->
<svg version="1.1" id="Layer_1" xmlns="http://www.w3.org/2000/svg" xmlns:xlink="http://www.w3.org/1999/xlink" x="0px" y="0px"
	 viewBox="0 0 500 500" enable-background="new 0 0 500 500" xml:space="preserve">
<path d="M162.599,5.25c0,127.115,0,253.865,0,381.815c3.786,0,6.749,0,9.712,0c40.883,0.002,81.775,0.432,122.643-0.353
	c8.275-0.159,17.214-3.626,24.487-7.888c8.015-4.697,11.517-13.261,9.285-23.05c-2.389-10.48-8.914-17.227-19.277-19.847
	c-3.778-0.955-7.849-1.024-11.787-1.033c-32.314-0.076-64.628-0.043-97.738-0.043c0-11.577,0-22.674,0-34.644
	c2.382-0.189,5.003-0.574,7.625-0.577c31.73-0.034,63.463-0.264,95.19,0.058c42.143,0.427,72.172,40.005,59.622,78.139
	c-8.024,24.383-33.4,43.961-60.583,44.275c-56.741,0.657-113.494,0.219-170.242,0.196c-1.154-0.001-2.307-0.435-4.575-0.891
	c0-127.158,0-254.251,0-381.979c-12.889,0-24.607,0-36.748,0c0,139.593,0,278.63,0,418.756c2.988,0.167,5.901,0.471,8.814,0.473
	c57.359,0.04,114.718,0.193,172.076-0.01c25.138-0.089,49.908-3.167,73.635-12.126c49.775-18.794,66.4-58.949,59.263-107.689
	c-6.675-45.577-46.834-77.464-93.88-77.388c-33.256,0.053-66.512,0.009-99.767,0.008c-3.301,0-6.602,0-10.562,0
	c0-11.733,0-22.781,0-34.406c3.377-0.152,6.351-0.4,9.324-0.403c30.815-0.026,61.66-0.868,92.437,0.219
	c34.438,1.216,75.868-24.603,84.241-67.259c8.901-45.344-6.511-84.335-44.507-104.331c-18.357-9.661-38.346-14.382-58.895-15.331
	c-24.057-1.111-48.178-0.836-72.272-1.148c-3.29-0.043-6.581-0.006-10.435-0.006c0-11.594,0-22.379,0-34.163
	c49.831,0.91,99.816-5.066,147.345,15.047c55.66,23.553,84.971,77.358,75.221,136.996c-5.657,34.606-19.868,63.799-49.873,84.179
	c9.206,6.796,18.253,12.771,26.513,19.685c65.787,55.061,57.937,185.943-44.581,220.381c-23.653,7.946-47.936,12.417-72.723,12.624
	c-73.219,0.611-146.444,0.503-219.667,0.652c-2.071,0.004-4.142-0.276-6.77-0.463c0-162.902,0-325.346,0-488.476
	C90.821,5.25,126.294,5.25,162.599,5.25z M202.575,190.265c28.65,0.02,57.301,0.176,85.95-0.02
	c33.456-0.229,59.227-25.065,59.298-56.795c0.072-32.222-25.729-57.102-59.711-57.302c-26.821-0.158-53.643-0.035-80.464,0.012
	c-2.634,0.005-5.267,0.347-7.996,0.539c0,11.566,0,22.394,0,34.302c3.777,0,7.052-0.001,10.326,0
	c26.821,0.012,53.645-0.185,80.463,0.133c11.889,0.141,20.401,8.529,21.305,19.697c0.943,11.652-6.521,21.201-18.492,23.376
	c-2.973,0.54-6.059,0.61-9.095,0.625c-24.992,0.117-49.985,0.172-74.977,0.242c-3.188,0.009-6.376,0.001-9.553,0.001
	c0,12.444,0,23.308,0,34.576C201.386,190.027,201.98,190.265,202.575,190.265z"/>
</svg>
