<?xml version="1.0" encoding="iso-8859-1"?>
<!-- Generator: Adobe Illustrator 19.0.0, SVG Export Plug-In . SVG Version: 6.00 Build 0)  -->
<svg version="1.1" id="Layer_1" xmlns="http://www.w3.org/2000/svg" xmlns:xlink="http://www.w3.org/1999/xlink" x="0px" y="0px"
	 viewBox="0 0 500 500" enable-background="new 0 0 500 500" xml:space="preserve">
<path d="M245.439,489.979c-89.836-3.832-160.182-41.871-204.886-118.663c-49.878-85.68-47.086-173.617,7.815-256.407
	C94.28,45.675,161.623,11.702,245.303,8.714c0,25.463,0,49.573,0,74.29c-53.646,1.13-98.071,22.004-131.623,64.009
	c-24.793,31.039-36.122,67.177-36.004,106.8c0.204,68.779,57.332,163.258,167.764,164.396
	C245.439,441.557,245.439,464.911,245.439,489.979z M253.709,489.47c133.198,2.607,243.284-114.015,239.351-238.967
	c-24.81,0-49.623,0-74.415,0c-3.205,96.141-76.696,164.903-164.936,166.473C253.709,441.5,253.709,465.496,253.709,489.47z
	 M421.441,244.84c24.05,0,48.591,0,73.124,0C493.919,101.562,371.077,3.084,256.307,7.12c0,24.038,0,48.088,0,71.352
	C355.831,90.649,410.483,146.021,421.441,244.84z M285.589,274.986c-12.462-13.51-21.98-29.749-32.708-44.842
	c-13.308-18.722-27.978-34.903-52.398-39.626c-34.805-6.733-71.277,17.947-72.701,57.963c-1.217,34.22,26.512,62.543,60.315,62.521
	c26.456-0.017,50.488-16.417,57.696-40.739c-5.036-7.734-10.332-15.866-16.62-25.522c0.766,29.165-21.669,49.959-48.956,44.732
	c-20.258-3.881-35.726-27.064-30.821-47.063c5.897-24.042,27.784-36.706,49.501-30.497c18.27,5.223,29.112,19.553,39.198,34.587
	c8.781,13.089,17.414,26.389,27.411,38.526c20.12,24.428,52.167,32.69,78.5,20.898c13.52-6.054,23.866-15.655,30.18-30.052
	c-8.312,0-15.619,0-23.357,0C329.723,295.518,304.978,296.006,285.589,274.986z M313.305,189.635
	c-24.928,1.995-46.014,20.439-52.014,43.432c5.367,8.096,11.08,16.717,16.794,25.337c-0.498-19.071,5.387-34.219,21.829-42.966
	c18.566-9.876,35.78-5.815,50.195,8.73c8.009,0,15.545,0,23.686,0C363.734,201.197,340.203,187.483,313.305,189.635z"/>
</svg>
