<?xml version="1.0" encoding="iso-8859-1"?>
<!-- Generator: Adobe Illustrator 19.0.0, SVG Export Plug-In . SVG Version: 6.00 Build 0)  -->
<svg version="1.1" id="Layer_1" xmlns="http://www.w3.org/2000/svg" xmlns:xlink="http://www.w3.org/1999/xlink" x="0px" y="0px"
	 viewBox="0 0 2000 2000" style="enable-background:new 0 0 2000 2000;" xml:space="preserve">
<path d="M1001.577,17.971c514.831,0.264,976.089,422.838,979.014,974.95c2.917,550.706-434.963,985.701-980.245,984.68
	C443.162,1976.559,20.895,1511.79,20.96,998.007C21.028,456.746,459.769,18.1,1001.577,17.971z M1434.682,898.682
	c0.433-134.984-73.166-259.234-193.448-317.5c-128.247-62.124-254.568-53.806-370.345,29.823
	c-102.479,74.022-153.781,178.81-163.526,304.838c-5.258,68.002-7.352,136.439-44.589,198.375
	c-23.037,38.317-16.897,80.194,11.19,114.747c23.501,28.911,49.841,56.12,78.039,80.477
	c53.086,45.855,110.163,52.266,170.096,10.516c31.25-21.769,66.717-31.96,104.667-38.205c51.328-8.447,103.064-18.623,152.24-35.151
	C1330.844,1195.57,1434.188,1052.589,1434.682,898.682z M367.674,572.541c-31.256-21.309-60.254-41.077-92.272-62.905
	c-64.377,100.902-111.757,202.67-129.389,320.731c37.171,7.614,70.021,14.344,105.587,21.629
	C272.931,752.087,309.188,661.723,367.674,572.541z M832.284,140.655c-117.998,23.419-221.826,66.103-319.698,133.154
	c24.697,31.118,38.544,64.142,65.845,89.916c85.245-58.037,177.425-93.232,275.427-115.39
	C846.473,211.474,840.125,179.788,832.284,140.655z M1751.287,1144.736c-23.217,101.842-59.722,193.126-116.399,279.711
	c31.454,21.093,59.431,39.854,90.793,60.885c68.423-97.339,110.316-202.047,132.272-318.275
	C1820.974,1159.318,1789.376,1152.706,1751.287,1144.736z M1169.746,1856.096c118.598-25.812,223.452-64.842,317.99-134.62
	c-21.461-31.957-40.135-59.764-58.345-86.879c-48.331,24.344-90.645,48.781-135.4,67.333c-46.084,19.103-94.546,32.468-145.21,49.43
	C1155.574,1785.296,1162.141,1818.102,1169.746,1856.096z M1634.139,572.066c58.152,86.09,94.263,179.419,117.627,278.655
	c37.304-7.278,70.419-13.739,106.479-20.775c-23.172-117.617-65.64-222.434-132.901-319.286
	C1693.192,532.307,1664.99,551.295,1634.139,572.066z M854.686,1748.44c-100.637-22.594-192.279-59.68-279.477-116.172
	c-21.318,31.787-40.764,60.782-61.362,91.494c99.309,66.261,202.529,110.189,318.581,131.323
	C840.035,1818.642,846.643,1786.979,854.686,1748.44z M1147.56,248.898c104.101,21.975,194.923,59.911,279.79,115.56
	c21.422-31.781,40.286-59.768,58.841-87.297c-71.309-64.1-249.789-135.324-319.028-127.402
	C1161.061,180.62,1154.813,212.218,1147.56,248.898z M143.837,1166.091c23.107,119.244,66.202,222.217,132.522,319.784
	c32.619-22.578,61.225-42.379,91.091-63.051c-59.069-87.129-93.963-179.024-116.853-277.569
	C213.745,1152.447,182.239,1158.596,143.837,1166.091z M606.801,1198.835c-55.502,66.518-46.458,156.941,18.576,210.093
	c59.934,48.985,144.697,42.955,191.665-15.964C724.154,1354.998,655.475,1290.718,606.801,1198.835z"/>
</svg>
