<?xml version="1.0" encoding="iso-8859-1"?>
<!-- Generator: Adobe Illustrator 19.0.0, SVG Export Plug-In . SVG Version: 6.00 Build 0)  -->
<svg version="1.1" id="Layer_1" xmlns="http://www.w3.org/2000/svg" xmlns:xlink="http://www.w3.org/1999/xlink" x="0px" y="0px"
	 viewBox="0 0 2000 2000" style="enable-background:new 0 0 2000 2000;" xml:space="preserve">
<path d="M1989.787,989.894c2.416,524.385-419.579,979.987-974.859,986.776c-547.056,6.688-980.611-425.322-998.971-950.891
	C-3.647,464.589,439.101,14.463,979.056,2.262C1545.428-10.537,1992.592,448.171,1989.787,989.894z M1004.704,104.905
	c-480.895-1.466-878.026,385.209-886.5,868.309c-8.737,498.084,392.796,900.8,883.954,900.871
	c489.107,0.07,877.548-393.527,885.228-869.481C1895.459,504.218,1489.955,105.08,1004.704,104.905z M213.03,988.557
	c-1.931-432.746,355.278-800.14,810.333-789.069c415.928,10.119,769.67,345.935,769.524,790.834
	c-0.146,444.895-361.028,795.196-801.156,789.264C553.209,1773.675,210.764,1414.873,213.03,988.557z M361.236,1377.3
	c1.257,2.555,2.514,5.111,3.772,7.666c21.544-6.969,43.275-13.413,64.602-20.995c124.093-44.116,237.016-106.835,327.607-204.141
	c38.221-41.054,72.605-85.701,108.348-129.033c16.454-19.948,31.98-40.662,47.927-61.028c3.942,13.21,4.378,25.18,3.871,37.111
	c-3.17,74.551-4.806,149.225-10.435,223.594c-4.223,55.786-11.26,111.623-21.454,166.619
	c-10.821,58.375-5.964,113.103,22.351,165.354c7.278,13.431,14.568,27.241,30.834,33.224c19.646-5.386,29.955-20.682,38.557-37.12
	c18.899-36.112,27.49-75.098,27.366-115.54c-0.182-59.214-2.678-118.42-2.941-177.634c-0.513-115.515-0.195-231.034-0.069-346.551
	c0.006-5.481,1.475-10.961,2.734-19.725c4.551,5.463,6.688,7.612,8.348,10.081c88.949,132.341,186.921,257.928,286.193,382.546
	c20.082,25.209,45.416,43.167,77.819,44.242c91.045,3.02,181.38-5.082,270.644-23.551c9.988-2.067,19.358-7.121,29.333-10.911
	c-9.123-16.671-12.839-19.024-38.364-29.431c-101.85-41.526-201.384-88.385-295.004-145.906
	c-134.252-82.485-237.009-199.825-338.496-316.68c0-9.261,0-17.515,0-25.927c3.123-0.961,5.194-2.013,7.339-2.198
	c71.226-6.137,142.422-12.674,213.703-18.093c50.62-3.848,101.397-5.641,152.008-9.578c11.427-0.889,22.457-6.869,38.281-12
	c-6.216-11.565-8.522-21.093-14.562-26.222c-33.484-28.433-69.517-50.76-116.735-43.808
	c-58.531,8.617-117.179,16.435-175.782,24.562c-33.274,4.615-66.558,9.159-98.925,13.61c-1.938-3.361-3.361-4.674-3.323-5.943
	c0.346-11.497,0.988-22.986,1.467-34.48c3.424-82.155,3.919-164.623,27.125-244.599c5.1-17.576-0.61-31.848-14.905-42.724
	c-30.147-22.936-64.276-35.669-101.966-38.604c-12.685-0.988-24.646,1.173-35.482,16.342c2.367,7.949,3.105,20.207,9.122,28.747
	c16.223,23.025,23.461,48.687,24.377,75.745c2.681,79.228,4.037,158.501,5.689,237.761c0.123,5.927-1.52,11.89-2.456,18.662
	c-21.503,3.484-41.837,7.476-62.352,9.984c-93.104,11.385-186.278,22.2-279.376,33.63c-14.401,1.768-28.773,4.855-42.722,8.854
	c-9.866,2.828-16.044,9.543-9.67,20.946c11.978,7.096,23.727,14.434,35.823,21.146c25.679,14.25,53.296,19.932,82.338,15.548
	c63.057-9.518,125.979-19.934,189.036-29.455c21.786-3.289,43.807-5.014,68.705-7.786c-8.363,34.863-19.028,64.781-39.064,90.676
	c-35.793,46.261-72.139,92.097-107.697,138.536c-52.075,68.011-107.464,132.672-176.039,185.063
	c-67.257,51.384-133.848,103.64-200.698,155.558C372.304,1367.894,366.829,1372.674,361.236,1377.3z"/>
</svg>
