<?xml version="1.0" encoding="iso-8859-1"?>
<!-- Generator: Adobe Illustrator 19.0.0, SVG Export Plug-In . SVG Version: 6.00 Build 0)  -->
<svg version="1.1" id="Layer_1" xmlns="http://www.w3.org/2000/svg" xmlns:xlink="http://www.w3.org/1999/xlink" x="0px" y="0px"
	 viewBox="0 0 500 500" style="enable-background:new 0 0 500 500;" xml:space="preserve">
<path d="M146.692,185.75c43.941,43.798,86.476,86.195,128.731,128.312c-16.235,16.267-32.421,32.486-48.615,48.712
	C168.285,303.942,109.554,244.9,51.141,186.179C111.62,125.718,172.821,64.536,234.376,3c15.117,15.659,31.083,32.197,46.877,48.557
	C237.318,95.372,192.534,140.033,146.692,185.75z M225.602,185.2c42.525,42.417,85.163,84.947,128.499,128.173
	c-44.866,44.633-89.623,89.158-133.936,133.241c16.62,16.69,32.785,32.922,48.82,49.024
	c60.926-61.049,121.966-122.212,182.783-183.152c-58.682-58.698-117.594-117.627-176.588-176.638
	C259.06,151.894,242.761,168.119,225.602,185.2z"/>
</svg>
