<?xml version="1.0" encoding="utf-8"?>
<!-- Generator: Adobe Illustrator 26.2.1, SVG Export Plug-In . SVG Version: 6.00 Build 0)  -->
<svg version="1.1" id="looks" xmlns="http://www.w3.org/2000/svg" xmlns:xlink="http://www.w3.org/1999/xlink" x="0px" y="0px"
	 viewBox="0 0 500 500" style="enable-background:new 0 0 500 500;" xml:space="preserve">
<path d="M351.3,53.3h-202L2.7,200l248,248l247.6-247.6L351.3,53.3z M252.1,300.9c-71.9,0-108.3-41.8-108.3-41.8l-58.9-59.5
	l61.1-61.1c0,0,32.9-38.7,105.2-38.7c76.3,0,105.2,38.7,105.2,38.7L418,200l-57.6,57.6C360.4,257.6,324,300.9,252.1,300.9z"/>
<path d="M251.5,124.5c-41.9,0-75.8,34-75.8,75.8s34,75.8,75.8,75.8c41.9,0,75.8-34,75.8-75.8S293.4,124.5,251.5,124.5z M251.5,233.6
	c-18.4,0-33.3-14.9-33.3-33.3s14.9-33.3,33.3-33.3s33.3,14.9,33.3,33.3S269.9,233.6,251.5,233.6z"/>
</svg>
