<?xml version="1.0" encoding="iso-8859-1"?>
<!-- Generator: Adobe Illustrator 19.0.0, SVG Export Plug-In . SVG Version: 6.00 Build 0)  -->
<svg version="1.1" id="Layer_1" xmlns="http://www.w3.org/2000/svg" xmlns:xlink="http://www.w3.org/1999/xlink" x="0px" y="0px"
	 viewBox="0 0 500 500" style="enable-background:new 0 0 500 500;" xml:space="preserve">
<path d="M14.743,328.848c1.154-17.01,7.745-31.885,19.078-44.187c7.221-7.838,16.073-14.207,24.412-20.967
	c5.151-4.175,10.71-7.847,17.337-12.651c-6.175-4.417-11.138-7.635-15.725-11.321c-8.679-6.972-18.088-13.355-25.491-21.526
	c-13.946-15.393-19.88-34.238-19.43-55.046c0.601-27.804,12.065-49.957,34.585-66.271c12.28-8.896,24.678-17.631,37.114-26.309
	c13.725-9.578,27.554-19.007,41.756-28.788c91.556,64.253,182.885,128.346,274.917,192.931
	c14.45-10.407,29.988-18.109,42.319-30.113c25.906-25.218,21.232-64.839-6.145-84.565c-14.576-10.503-29.371-20.704-44.1-30.994
	c-6.167-4.308-12.419-8.494-18.811-12.858c-24.184,16.741-47.721,33.035-71.624,49.581c-8.313-5.968-15.911-11.424-24.403-17.52
	c32.948-23.008,64.578-45.097,96.472-67.369c28.428,20.194,56.616,39.113,83.515,59.716c17.714,13.567,27.944,32.478,29.455,55.409
	c0.17,2.575,1.589,5.068,2.428,7.599c0,0.8,0,1.6,0,2.4c-0.859,2.932-1.911,5.825-2.529,8.807c-0.804,3.879-0.922,7.92-1.929,11.735
	c-5.43,20.57-17.273,36.588-34.756,48.623c-7.77,5.348-15.293,11.054-23.953,17.341c7.563,5.471,13.941,10.09,20.324,14.701
	c9.087,6.565,18.245,13.173,24.691,22.505c25.46,36.86,20.584,89.071-19.098,116.922c-19.607,13.761-39.162,27.597-58.774,41.351
	c-6.498,4.557-13.101,8.965-20.169,13.792c-91.851-64.465-183.258-128.618-275.051-193.043
	c-13.978,9.793-28.198,18.192-40.519,28.797c-14.323,12.327-20.442,28.798-18.056,48.223c2.232,18.169,12.5,30.747,26.617,40.846
	c16.248,11.622,32.724,22.925,49.113,34.349c3.209,2.237,6.471,4.397,9.804,6.657c24.101-16.806,47.653-33.228,71.476-49.84
	c8.042,5.724,15.764,11.221,24.564,17.485c-32.675,22.691-63.854,45.385-95.16,66.478c-2.586-0.918-3.858-1.089-4.794-1.742
	c-24.574-17.149-49.33-34.05-73.593-51.631c-20.617-14.939-34.038-34.555-36.008-60.788
	C14.496,346.198,14.623,330.61,14.743,328.848z M379.392,251.072C294.97,191.735,211.986,133.217,128.981,75.326
	c-2.378,1.098-3.956,1.568-5.241,2.46c-19.027,13.207-38.047,26.424-56.982,39.762c-3.574,2.517-7.311,5.124-10.054,8.447
	c-20.79,25.187-21.363,55.036,2.191,78.628c11.875,11.894,26.738,19.987,40.824,29.541c34.006-22.654,66.111-46.964,99.586-68.918
	c9.095,5.539,16.736,10.839,24.663,17.18c-3.005,2.233-4.856,3.679-6.777,5.025c-26.829,18.809-53.671,37.6-80.499,56.409
	c-3.48,2.44-7.601,4.252-10.05,9.702c83.185,58.398,166.057,116.577,248.604,174.526c1.917-0.628,3.211-0.751,4.139-1.399
	c21.602-15.084,43.603-29.646,64.575-45.564c13.455-10.212,19.574-25.769,19.4-42.185c-0.183-17.24-6.752-32.833-21.306-43.661
	c-8.648-6.434-17.619-12.436-26.472-18.593c-3.518-2.447-7.108-4.791-11.003-7.408c-33.63,23.442-66.647,46.456-99.503,69.358
	c-4.759-3.241-8.749-5.887-12.66-8.643c-3.789-2.67-8.068-4.846-10.753-9.481C313.562,297.191,346.432,276.069,379.392,251.072z"/>
</svg>
