<?xml version="1.0" encoding="iso-8859-1"?>
<!-- Generator: Adobe Illustrator 19.0.0, SVG Export Plug-In . SVG Version: 6.00 Build 0)  -->
<svg version="1.1" id="Layer_1" xmlns="http://www.w3.org/2000/svg" xmlns:xlink="http://www.w3.org/1999/xlink" x="0px" y="0px"
	 viewBox="0 0 500 500" style="enable-background:new 0 0 500 500;" xml:space="preserve">
<path id="XMLID_4_" d="M471.419,311.995c-29.266,24.235-57.655,47.685-85.977,71.212c-39.037,32.428-78.086,64.842-116.998,97.418
	c-12.936,10.83-12.684,10.966-26.29,0.086c-68.118-54.468-136.281-108.88-204.395-163.354c-3.002-2.401-5.68-5.209-9.178-8.448
	c73.497-98.899,146.842-197.593,221.251-297.719C324.236,112.194,397.403,211.519,471.419,311.995z M217.119,372.951
	c0-68.552,0-134.348,0-202.897c-32.343,43.571-63.27,85.234-94.369,127.129C154.3,322.514,184.708,346.928,217.119,372.951z
	 M284.092,378.187c32.147-26.644,62.695-51.963,93.728-77.684c-31.053-42.092-61.373-83.192-93.728-127.049
	C284.092,243.399,284.092,309.562,284.092,378.187z"/>
</svg>
