<?xml version="1.0" encoding="iso-8859-1"?>
<!-- Generator: Adobe Illustrator 19.0.0, SVG Export Plug-In . SVG Version: 6.00 Build 0)  -->
<svg version="1.1" id="Layer_1" xmlns="http://www.w3.org/2000/svg" xmlns:xlink="http://www.w3.org/1999/xlink" x="0px" y="0px"
	 viewBox="0 0 500 500" style="enable-background:new 0 0 500 500;" xml:space="preserve">
<path id="XMLID_4_" d="M273.062,210.456c22.565-7.92,43.537-15.792,65.774-24.566c-1.935,7.677-3.499,13.955-5.1,20.224
	c-3.218,12.595-6.615,25.148-9.571,37.804c-0.696,2.981-2.427,4.164-4.727,5.079c-6.161,2.451-12.341,4.861-18.574,7.12
	c-12.441,4.51-24.896,8.983-37.399,13.316c-4.476,1.551-7.138,3.701-8.395,8.936c-4.973,20.705-10.738,41.219-16.157,61.817
	c-3.613,13.733-7.076,27.506-10.737,41.225c-1.244,4.66-2.889,9.213-4.784,15.182c12.526,0.33,23.821,0.136,35.105,0.169
	c11.678,0.035,23.356,0.008,35.034,0.008c11.429,0,22.859,0,34.288,0c11.678,0,23.356,0,35.034,0c11.429,0,22.859,0,34.288,0
	c11.678,0,23.356,0,35.034,0c11.378,0,22.755,0,35.137,0c-3.436,12.311-6.75,23.711-9.78,35.186
	c-2.446,9.262-4.504,18.625-6.818,27.922c-1.954,7.849-3.91,15.702-6.165,23.466c-0.374,1.287-2.138,2.635-3.528,3.047
	c-1.836,0.544-3.937,0.219-5.923,0.219c-124.978,0.004-249.956,0.004-374.934,0.004c-2.403,0-4.807,0-7.852,0
	c13.368-51.047,26.477-101.108,39.804-151.998c-10.212,0.903-18.89,6.034-28.129,9.22c-9.421,3.249-18.737,6.804-29.117,10.598
	c3.381-12.105,6.402-22.82,9.361-33.553c2.211-8.019,4.473-16.029,6.445-24.108c0.786-3.221,2.175-4.672,5.563-5.814
	c13.445-4.529,26.669-9.714,39.972-14.661c2.554-0.95,5.137-1.835,7.64-2.906c3.776-1.617,5.948-3.97,7.036-8.518
	c5.772-24.113,12.101-48.093,18.355-72.088c4.713-18.082,9.672-36.099,14.398-54.178c5.136-19.648,9.964-39.378,15.238-58.988
	c4.329-16.098,9.166-32.058,13.671-48.109c1.513-5.389,2.697-10.87,4.042-16.353c49.441,0,98.214,0,147.758,0
	C307.302,80.062,290.45,144.239,273.062,210.456z"/>
</svg>
