<?xml version="1.0" encoding="utf-8"?>
<!-- Generator: Adobe Illustrator 25.1.0, SVG Export Plug-In . SVG Version: 6.00 Build 0)  -->
<svg version="1.1" id="LUNA" xmlns="http://www.w3.org/2000/svg" xmlns:xlink="http://www.w3.org/1999/xlink" x="0px" y="0px"
	 viewBox="0 0 500 500" style="enable-background:new 0 0 500 500;" xml:space="preserve">
<path d="M153.8,425.5c0,55.7-2,61.8-2,61.8s-0.4,0.1-1.1,0.3l0,0c-87.8-38.4-149.1-126-149.1-228c0-23.2,3.2-45.7,9.2-67v-0.1
	c4.4-11.6,7.5-19,7.5-19s47.6,50.7,86.9,115C139.7,345.2,153.8,376.8,153.8,425.5z"/>
<path d="M463.6,375.9c6.3,7.3-41.2,64.9-79,89.2c-28.2,18.1-50.8,20.7-58.8,8.1c-7.4-11.8,5.1-28.7,24.3-44.7
	C377.9,405.6,459.2,370.9,463.6,375.9z"/>
<path d="M28.3,147.8c0,0,27.6-53.3,65.3-82.2c47.6-36.5,68.4-35.8,86.1-24c14.5,9.7,4.8,33.9-22.2,55S67.1,147.5,28.3,147.8z"/>
<path d="M499,259.6c0,32.4-6.2,63.4-17.5,91.9c-6.4,2.9-14.8,5-25,5.5l0,0c-1.6,0.1-3.2,0.1-4.9,0.1c-34.6,0-120.1-19.8-190.5-49.5
	c-19.8-8.3-38.4-17.5-54.4-27.2c-72.8-44.1-69.8-75.2-70.1-88.2c-0.3-11,2.5-21.3,7.7-30.9c25.1-46.9,105.5-77.8,147.9-90.6
	c51.1-15.5,100.6-14.7,126.2,6.2c1.6,1.3,3.4,2.8,5.2,4.3c10.4,10.1,19.9,21.1,28.5,32.9C481.6,155,499,205.3,499,259.6z"/>
<path d="M209.4,98.8c31.5-16.7,64.5-27.8,81.3-32.9c23.5-7.1,46.9-10.9,67.7-10.9c10.3,0,19.8,0.9,28.5,2.7
	c-40.1-27.2-87.3-41.8-136.6-41.8c-28.5,0-56.7,5-83.2,14.6c5.2,1.2,10.2,3.5,15.4,7c5.6,3.7,8.7,9.3,8.9,16.1
	c0.5,13.9-11,31.5-30.8,47c-10.8,8.5-26.9,18-44.7,26.6c3.1,4.8,6.1,8.8,9.2,12c5.6,5.8,11.4,10.8,17.5,15.1
	C154.9,134.5,177.3,115.9,209.4,98.8z"/>
<path d="M441.4,375.8c2.4-4.2,4.8-8.8,7.1-13.7c-37-1-118.5-20.3-186.8-48.8c-11.9,8.6-21.7,17.7-29,27.2
	c-10.3,13.4-15.3,27.1-14.8,40.7c0.7,20.2,8.6,39.6,23.3,57.5c13.9,16.9,29.9,27.5,36.1,31.2c13.7,8.3,26.7,9.2,31.6,9.2
	c0.9,0,1.6,0,1.9-0.1c2-0.4,5.2-1.4,10.3-3.7c-9.5-16.3,8.7-36.5,25.7-50.6C367.6,407.6,415.1,385.3,441.4,375.8z"/>
</svg>
