<?xml version="1.0" encoding="iso-8859-1"?>
<!-- Generator: Adobe Illustrator 19.0.0, SVG Export Plug-In . SVG Version: 6.00 Build 0)  -->
<svg version="1.1" id="Layer_1" xmlns="http://www.w3.org/2000/svg" xmlns:xlink="http://www.w3.org/1999/xlink" x="0px" y="0px"
	 viewBox="0 0 500 500" enable-background="new 0 0 500 500" xml:space="preserve">
<path d="M377.4,5.45c12.512,7.582,25.023,15.165,39.749,24.089C298.485,98.395,181.11,166.504,63.407,234.803
	c0,74.806,0,148.911,0,225.796c-14.247-8.243-26.677-15.435-39.702-22.971c0-75.414,0-150.415,0-226.812
	c31.216-18.144,63.21-36.768,95.23-55.347C202.857,106.772,286.794,58.1,370.693,9.362c1.627-0.945,2.847-2.592,4.257-3.912
	C375.767,5.45,376.583,5.45,377.4,5.45z M127.5,5.45c17.756,11.017,35.393,22.234,53.303,32.995
	c17.402,10.456,35.086,20.445,54.531,31.733c-14.301,8.393-27.039,15.869-40.264,23.631
	c-36.696-21.291-73.173-42.456-110.743-64.255c12.807-8.617,24.315-16.361,35.824-24.105C122.6,5.45,125.05,5.45,127.5,5.45z
	 M119.331,266.966c0,75.279,0,149.485,0,226.099c-14.213-8.164-26.996-15.507-40.137-23.054c0-75.484,0-150.499,0-226.82
	c117.029-67.88,234.721-136.143,353.445-205.006c12.86,7.326,25.793,14.693,40.906,23.303
	C354.609,130.482,237.409,198.469,119.331,266.966z M422.867,470.126c-12.831,7.525-25.369,14.878-39.43,23.125
	c0-75.994,0-150.393,0-225.454c-38.786-22.568-77.054-44.833-117.298-68.249c14.45-8.452,27.25-15.938,40.295-23.568
	c39.377,22.854,78.098,45.327,116.433,67.576C422.867,319.469,422.867,394.499,422.867,470.126z M478.63,211.239
	c0,76.133,0,150.762,0,226.287c-12.659,7.443-25.144,14.783-39.296,23.103c0-75.781,0-149.733,0-224.985
	c-38.568-22.463-76.862-44.765-117.41-68.38c13.995-8.227,26.687-15.688,40.144-23.599
	C400.852,166.149,439.571,188.595,478.63,211.239z M367.324,307.42c0,17.397,0,31.964,0,47.324
	c-76.686,44.468-153.32,88.906-231.605,134.302c0-16.461,0-30.851,0-47.276C211.36,397.891,288.284,353.269,367.324,307.42z
	 M338.481,259.195c10.231,5.978,19.349,11.305,29.009,16.948c0.178,3.957,0.357,7.938,0.594,13.218
	c-76.953,44.632-153.97,89.301-232.665,134.943c0-16.743,0-31.493,0-47.299C202.582,338.039,270.189,298.816,338.481,259.195z
	 M27.753,61.4c14.584-8.526,27.169-15.883,40.391-23.613c36.677,21.297,73.167,42.486,111.434,64.706
	c-14.266,8.392-26.762,15.742-40.17,23.629C103.019,105.028,66.52,83.872,27.753,61.4z M262.658,433.121
	c15.972-9.267,29.61-17.18,44.047-25.557c20.112,11.65,40.057,23.202,59.995,34.752c0,16.682,0,32.765,0,51.287
	C331.715,473.266,298.264,453.82,262.658,433.121z M477.656,76.859c0,39.313,0,76.544,0,115.941
	c-13.572-7.76-26.065-14.904-39.213-22.422c0-23.186,0-46.268,0-70.847C450.465,92.581,463.278,85.173,477.656,76.859z
	 M24.473,77.159c14.633,8.504,27.155,15.782,39.495,22.953c0,23.442,0,45.742,0,69.402c-12.423,7.294-25.163,14.773-39.495,23.187
	C24.473,153.638,24.473,116.559,24.473,77.159z M134.532,289.997c0-4.905,0-9.269,0-14.06c9.221-5.438,18.279-10.78,28.355-16.723
	c23.38,13.546,46.827,27.131,72.409,41.953c-14.388,8.471-27.101,15.956-40.441,23.809
	C174.66,313.266,154.683,301.682,134.532,289.997z M421.967,108.972c0,18.049,0,33.973,0,51.923
	c-14.475-8.63-27.679-16.503-43.72-26.067C394.312,125.327,407.295,117.649,421.967,108.972z M366.999,372.669
	c0,17.969,0,33.672,0,51.809c-15.037-8.535-28.881-16.392-45.116-25.606C337.594,389.747,351.538,381.648,366.999,372.669z
	 M79.768,160.677c0-17.667,0-33.241,0-51.52c14.764,8.645,27.781,16.267,43.716,25.597
	C107.593,144.177,94.332,152.041,79.768,160.677z M179.686,333.725c-15.216,8.717-28.35,16.241-43.909,25.155
	c0-18.099,0-33.404,0-50.312C149.991,316.712,163.591,324.504,179.686,333.725z"/>
</svg>
