<?xml version="1.0" encoding="iso-8859-1"?>
<!-- Generator: Adobe Illustrator 19.0.0, SVG Export Plug-In . SVG Version: 6.00 Build 0)  -->
<svg version="1.1" id="Layer_1" xmlns="http://www.w3.org/2000/svg" xmlns:xlink="http://www.w3.org/1999/xlink" x="0px" y="0px"
	 viewBox="0 0 500 500" style="enable-background:new 0 0 500 500;" xml:space="preserve">
<path d="M250.627,493.184C122.499,494.046,15.92,396.192,5.401,269.446C-6.199,129.668,98.971,12.326,235.228,4.426
	c136.456-7.911,252.774,95.361,259.825,230.556C502.515,378.076,388.804,493.671,250.627,493.184z M475.88,248.754
	c0.266-123.218-99.15-226.371-225.196-226.705c-126.37-0.335-225.117,101.944-226.782,223.52
	c-1.691,123.456,97.023,229.236,225.67,229.765C374.321,475.846,475.864,373.524,475.88,248.754z M344.951,259.124
	c2.357,3.116,5.107,6.07,8.162,8.492c5.345,4.238,11.114,6.439,17.903,2.463c2.858-1.674,6.339-2.283,9.534-3.384
	c13.4-4.616,21.47-17.329,19.162-30.183c-2.516-14.014-13.475-22.604-28.33-22.78c-7.586-0.09-15.325-0.19-22.717-1.672
	c-58.712-11.773-109.647-37.35-148.288-84.484c-10.72-13.076-31.082-12.594-41.242,0.863c-6.128,8.116-7.113,17.195-3.307,26.433
	c3.994,9.693,11.697,14.961,22.147,15.928c8.419,0.779,16.957,0.727,25.273,2.083c37.641,6.139,71.808,20.981,103.295,42.258
	c13.127,8.87,25.384,18.766,36.482,31.083C339.316,251.085,342.042,255.278,344.951,259.124z M233.957,345.505
	c-11.622,3.848-16.969,15.154-15.354,27.252c1.546,11.58,10.446,20.626,22.125,22.488c11.682,1.863,23.426-4.513,28.285-15.597
	c1.808-4.124,2.925-8.549,4.694-12.692c13.682-32.033,36.026-57.035,63.456-77.882c2.327-1.768,4.646-3.547,5.36-4.093
	c-4.363-5.11-8.201-9.605-12.451-14.583C304.971,304.822,274.907,331.945,233.957,345.505z M166.581,435.778
	c0.618-1.162,1.336-2.318,1.865-3.555c0.65-1.522,1.143-3.112,1.83-5.023c-56.95-27.737-95.017-71.226-109.534-133.194
	c-14.443-61.656-1.114-117.898,37.244-168.382c-2.661-2.207-4.813-3.993-7.347-6.095C6.938,219.755,41.654,383.451,166.581,435.778z
	 M186.404,53.053c0.368,1.589,0.631,3.254,1.158,4.831c0.432,1.291,1.179,2.478,1.92,3.982
	c47.71-14.651,94.441-12.623,139.898,7.571c45.709,20.306,78.601,53.962,99.868,99.443c3.152-1.336,5.675-2.405,8.799-3.729
	C395.095,62.067,273.949,19.918,186.404,53.053z M194.071,98.298c-22.455-7.379-46.777,2.657-57.362,23.671
	c-10.599,21.042-4.104,46.75,14.716,60.404c18.409,13.357,47.007,10.083,58.149-3.395c-6.926-2.617-13.535-2.307-20.644-0.203
	c-19.58,5.793-39.087-5.403-45.028-25.233c-5.65-18.856,5.099-38.98,24.118-45.153c19.185-6.226,39.898,4.149,45.926,23.644
	c2.043,6.608,5.376,11.55,11.697,15.558C229.236,126.47,215.47,105.33,194.071,98.298z M358.713,286.149
	c22.275,6.653,47.047-3.857,56.994-24.862c10.269-21.686,3.1-47.213-16.768-60.553c-18.838-12.649-46.842-8.601-57.467,5.004
	c6.65,2.659,12.813,2.515,19.638,0.103c19.425-6.867,40.004,4.014,46.469,23.942c6.163,18.996-4.551,39.512-23.962,45.887
	c-19.071,6.262-40.068-4.307-45.854-23.754c-1.991-6.692-5.469-11.53-11.559-15.603C322.236,256.827,337.389,279.78,358.713,286.149
	z M206.606,340.766c-14.172,18.831-13.013,45.302,3.188,62.122c16.528,17.159,42.179,19.486,61.845,6.018
	c18.403-12.603,25.444-39.752,15.959-56.8c-6.108,6.96-6.632,8.354-6.755,17.96c-0.268,20.952-16.678,37.061-37.387,36.7
	c-20.473-0.356-37.022-17.644-36.324-37.947c0.697-20.303,18.285-36.896,38.679-35.515c7.205,0.488,12.423-2.014,17.84-5.972
	C249.119,318.111,221.012,321.624,206.606,340.766z M450.305,294.939c-2.826-0.635-5.681-1.276-8.741-1.964
	c-22.111,78.55-72.399,127.813-151.106,148.204c0.666,3.088,1.245,5.77,1.95,9.039C372.809,435.781,437.44,365.995,450.305,294.939z
	"/>
</svg>
