<?xml version="1.0" encoding="utf-8"?>
<!-- Generator: Adobe Illustrator 25.1.0, SVG Export Plug-In . SVG Version: 6.00 Build 0)  -->
<svg version="1.1" id="lxt" xmlns="http://www.w3.org/2000/svg" xmlns:xlink="http://www.w3.org/1999/xlink" x="0px" y="0px"
	 viewBox="0 0 500 500" style="enable-background:new 0 0 500 500;" xml:space="preserve">
<path d="M484.1,497.1L319.3,236.9L478.5,3.3H351.3l-96.5,140.5L160.6,3.1H34.4l152.8,237.8L14.5,497.8h139.9l97.9-148.3l102.3,147.6
	H484.1z M279.6,267.9L142.4,475.5H56.2l144.2-214.1l12,18.8L96.1,458.4l26.8-0.2l116-178L75.2,25.4h73.5l92.6,138L227.1,184
	L133.9,41l-26.5,0.2L226.5,224L363,25.5h73.4l-130,191l-12.1-19.1l108.3-157l-27.3,0.2L267.7,196.9l176,278h-77.4L265.7,329.1
	l14-21.1l101,150.2l26.8-0.1L279.6,267.9z"/>
</svg>
