<?xml version="1.0" encoding="iso-8859-1"?>
<!-- Generator: Adobe Illustrator 19.0.0, SVG Export Plug-In . SVG Version: 6.00 Build 0)  -->
<svg version="1.1" id="Layer_1" xmlns="http://www.w3.org/2000/svg" xmlns:xlink="http://www.w3.org/1999/xlink" x="0px" y="0px"
	 viewBox="0 0 500 500" style="enable-background:new 0 0 500 500;" xml:space="preserve">
<path d="M131.36,237.272c8.555,8.195,15.731,15.07,23.784,22.785c-31.294,54.7-62.669,109.542-95.15,166.318
	c55.979,0,110.654,0,166.085,0c0,10.473,0,19.148,0,28.656c-72.427,0-144.25,0-218.53,0
	C49.121,381.915,90.012,309.995,131.36,237.272z M369.407,237.85c-8.63,7.877-15.979,14.584-24.091,21.988
	c31.476,55.099,62.88,110.073,95.567,167.292c-57.156,0-111.93,0-166.154,0c0,10.368,0,19.09,0,28.239c72.632,0,144.209,0,218.615,0
	C451.356,381.677,410.27,309.567,369.407,237.85z M154.387,199.945c8.179,9.447,14.654,16.925,21.974,25.38
	c23.937-41.269,47.16-81.309,71.224-122.797c24.4,42.139,47.494,82.022,70.542,121.826c8.526-8.123,16.064-15.307,23.726-22.607
	C310.831,147.911,280.068,94.529,247.493,38C214.874,94.736,183.894,148.622,154.387,199.945z M247.917,137.089
	c-20.062,34.987-38.981,67.979-57.799,100.795c20.157,21.704,38.804,41.781,57.972,62.419
	c19.423-21.366,37.874-41.662,56.999-62.701C286.021,204.078,267.669,171.815,247.917,137.089z"/>
</svg>
