<?xml version="1.0" encoding="iso-8859-1"?>
<!-- Generator: Adobe Illustrator 19.0.0, SVG Export Plug-In . SVG Version: 6.00 Build 0)  -->
<svg version="1.1" id="Layer_1" xmlns="http://www.w3.org/2000/svg" xmlns:xlink="http://www.w3.org/1999/xlink" x="0px" y="0px"
	 viewBox="0 0 500 500" enable-background="new 0 0 500 500" xml:space="preserve">
<path d="M270.91,245.594c-29.928,54.114-59.551,107.677-89.232,161.346c-2.288-3.645-6.029-9.204-9.375-14.992
	C118.143,298.264,64.058,204.537,9.877,110.865c-5.841-10.099-9.49-20.429-2.729-31.213c6.066-9.677,16.178-10.665,26.571-10.636
	c37.512,0.107,75.026,0.207,112.538-0.015c15.013-0.089,25.885,6.273,33.291,19.04C209.866,140.303,240.167,192.576,270.91,245.594z
	 M207.84,426.068c43.458-0.184,86.919,0.056,130.377-0.161c14.254-0.071,25.867-5.267,33.433-18.458
	c39.993-69.724,80.175-139.34,120.398-208.931c10.707-18.524-2.192-32.672-21.291-33.063c-39.966-0.819-79.96-0.311-119.942-0.199
	c-11.653,0.033-21.292,4.204-27.432,14.793c-4.453,7.681-9.212,15.185-13.649,22.875c-40.241,69.738-80.442,139.5-120.78,209.473
	C191.99,422.619,198.366,426.108,207.84,426.068z"/>
</svg>
