<?xml version="1.0" encoding="iso-8859-1"?>
<!-- Generator: Adobe Illustrator 19.0.0, SVG Export Plug-In . SVG Version: 6.00 Build 0)  -->
<svg version="1.1" id="Layer_1" xmlns="http://www.w3.org/2000/svg" xmlns:xlink="http://www.w3.org/1999/xlink" x="0px" y="0px"
	 viewBox="0 0 2000 2000" style="enable-background:new 0 0 2000 2000;" xml:space="preserve">
<path d="M999.499,1979.973c-283.693-163.61-566.538-326.731-849.719-490.046c0-326.548,0-652.685,0-981.034
	c282.233-162.221,565.097-324.805,850.4-488.791c281.623,162.358,564.842,325.637,848.978,489.444c0,325.81,0,651.827,0,980.427
	C1567.743,1652.266,1285.133,1815.247,999.499,1979.973z M999.332,661.2C872.894,587.968,747.051,515.687,622.01,442.046
	c-20.311-11.962-36.734-13.595-56.784-1.277c-30.194,18.551-61.701,34.95-92.339,52.796
	c-57.929,33.742-115.638,67.863-172.508,101.28c0,272.591,0,541.521,0,810.354c97.004,55.902,192.611,110.999,294.702,169.833
	c0-161.271,0-313.99,0-469.958c137.264,78.906,270.26,155.359,403.986,232.231c135.097-77.592,268.721-154.338,408.158-234.422
	c0,160.331,0,312.335,0,469.638c100.536-57.84,196.477-113.036,291.119-167.485c0-272.865,0-542.16,0-812.035
	c-97.794-55.99-194.768-111.511-291.447-166.863C1268.848,505.757,1134.459,583.265,999.332,661.2z"/>
</svg>
