<?xml version="1.0" encoding="iso-8859-1"?>
<!-- Generator: Adobe Illustrator 19.0.0, SVG Export Plug-In . SVG Version: 6.00 Build 0)  -->
<svg version="1.1" id="Layer_1" xmlns="http://www.w3.org/2000/svg" xmlns:xlink="http://www.w3.org/1999/xlink" x="0px" y="0px"
	 viewBox="0 0 500 500" style="enable-background:new 0 0 500 500;" xml:space="preserve">
<path d="M462.656,41.8c0,2.069,0,3.802,0,5.535c0,102.641,0.064,205.281-0.061,307.921c-0.022,17.777-1.044,35.53-5.005,52.974
	c-3.367,14.825-9.067,28.519-19.122,40.157c-6.798,7.869-14.897,14.229-23.631,19.714c-11.948,7.505-24.13,14.638-36.372,22.027
	c-5.285-3.011-10.423-5.905-15.53-8.854c-51.623-29.812-103.243-59.63-154.861-89.452c-35.467-20.491-70.963-40.932-106.373-61.521
	c-11.466-6.667-22.474-14.069-32.645-22.625c-11.028-9.278-20.774-19.632-27.227-32.747c-4.996-10.155-7.81-20.953-8.432-32.137
	c-0.918-16.52-1.12-33.081-1.631-49.744c5.301-3.102,10.224-6.014,15.176-8.876c56.142-32.439,112.273-64.897,168.439-97.294
	c32.161-18.551,64.323-37.1,96.6-55.447c13.96-7.935,28.577-14.494,44.101-18.863c19.819-5.578,39.228-4.717,58.29,3.335
	c11.27,4.76,21.889,10.736,32.479,16.786C451.995,35.623,457.112,38.601,462.656,41.8z M310.492,275.622c0-22.923,0-45.129,0-67.395
	c-4.488,1.405-54.779,30.49-58.285,33.753C271.524,253.13,290.746,264.225,310.492,275.622z"/>
</svg>
