<?xml version="1.0" encoding="iso-8859-1"?>
<!-- Generator: Adobe Illustrator 19.0.0, SVG Export Plug-In . SVG Version: 6.00 Build 0)  -->
<svg version="1.1" id="Layer_1" xmlns="http://www.w3.org/2000/svg" xmlns:xlink="http://www.w3.org/1999/xlink" x="0px" y="0px"
	 viewBox="0 0 500 500" style="enable-background:new 0 0 500 500;" xml:space="preserve">
<path d="M249.938,226.509c15.108-14.954,29.224-28.954,43.379-42.915c3.366-3.32,6.605-6.85,10.358-9.677
	c7.28-5.483,17.004-5.02,23.105,0.613c6.687,6.175,7.874,16.657,1.659,24.263c-5.632,6.893-12.329,12.922-18.637,19.253
	c-11.048,11.09-22.157,22.119-34.341,34.272c13.083,13.055,25.24,25.255,37.474,37.377c14.878,14.741,24.854,31.926,29.48,52.665
	c8.838,39.62-16.629,100.691-77.419,108.982c-49.757,6.786-90.768-18.66-104.824-64.578c-9.186-30.009-5.031-58.421,14.696-83.12
	c10.775-13.491,23.752-25.223,35.741-37.742c4.293-4.483,8.605-8.948,11.071-11.512c-45.289-46.305-89.655-91.667-134.179-137.19
	c-4.004,10.605-5.676,201.779-2.196,228.85c32.387,23.744,41.415,43.623,31.994,70.449c-7.599,21.638-29.336,37.924-51.595,36.776
	c-27.546-1.421-44.392-16.671-51.836-38.782c-8.682-25.792,2.282-47.706,33.677-68.489c0-4.776,0-10.468,0-16.16
	c-0.007-82.575-0.04-165.151,0.036-247.726c0.005-5.726-0.118-11.726,1.454-17.122c3.74-12.833,16.611-17.186,27.507-9.676
	c3.421,2.358,6.225,5.639,9.209,8.601C136.143,113.94,186.514,163.981,236.906,214C240.917,217.981,245.057,221.831,249.938,226.509
	z M251.406,277.501c-17.1,16.686-32.653,30.789-46.925,46.087c-14.633,15.685-15.43,35.09-9.466,54.436
	c7.111,23.068,26.888,37.489,49.847,39.013c25.806,1.713,44.717-9.001,56.722-31.414c11.324-21.14,7.526-47.313-9.308-65.711
	C279.181,305.602,265.373,291.943,251.406,277.501z M65.497,417.121c10.577,0.16,19.489-7.95,19.724-17.949
	c0.221-9.416-9.238-19.24-18.813-19.538c-10.222-0.318-18.673,7.935-18.984,18.539C47.115,408.712,54.984,416.962,65.497,417.121z
	 M415.692,159.442c-32.173-20.988-42.586-41.991-34.878-68.259c6.924-23.594,28.461-39.988,52.629-40.061
	c23.958-0.072,46.318,16.853,52.755,39.931c7.533,27.006-3.055,48.241-34.825,67.976c0,4.829,0,10.509,0,16.19
	c0,83.096,0.005,166.191-0.013,249.287c-0.001,4.729,0.394,9.558-0.406,14.166c-1.476,8.503-9.869,14.966-18.039,14.673
	c-8.387-0.302-15.509-6.939-16.494-15.998c-0.566-5.206-0.385-10.502-0.393-15.758c-0.127-81.518-0.229-163.036-0.336-244.553
	C415.685,171.269,415.692,165.504,415.692,159.442z M451.55,106.434c0.164-10.365-6.772-17.86-16.942-18.308
	c-11.24-0.495-19.558,6.817-19.843,17.443c-0.276,10.288,8.382,18.771,18.964,18.581C443.926,123.967,451.39,116.547,451.55,106.434
	z"/>
</svg>
