<?xml version="1.0" encoding="iso-8859-1"?>
<!-- Generator: Adobe Illustrator 19.0.0, SVG Export Plug-In . SVG Version: 6.00 Build 0)  -->
<svg version="1.1" id="Layer_1" xmlns="http://www.w3.org/2000/svg" xmlns:xlink="http://www.w3.org/1999/xlink" x="0px" y="0px"
	 viewBox="0 0 500 500" style="enable-background:new 0 0 500 500;" xml:space="preserve">
<path id="XMLID_4_" d="M248.166,485.667c-59.512-0.474-112.582-21.31-157.086-62.945c-48.998-45.84-73.653-103.204-73.801-169.863
	c-0.141-63.43,22.805-118.881,67.766-163.856c47.456-47.471,105.648-70.797,172.821-68.602
	c122.018,3.988,224.264,101.454,225.138,232.63c0.447,67.128-25.291,124.874-75.132,170.815
	C363.265,464.964,310.439,485.404,248.166,485.667z M462.695,257.256c3.26-7.48,0.613-13.804,0.631-20.121
	c0.037-13.514-2.733-26.64-6.287-39.445c-13.857-49.921-42.036-90.058-84.379-119.999c-36.516-25.821-77.48-38.252-122.011-39.014
	c-18.632-0.319-36.993,2.493-54.97,7.334C146.558,59.24,107.161,86.678,76.91,127.513c-22.417,30.26-34.768,64.447-39.803,101.441
	c-0.922,6.775-1.126,13.838,0.375,20.795c3.19,0,5.892,0,9.012,0c11.957-20.741,23.916-41.484,35.592-61.739
	c17.112,0,33.234,0,49.506,0c6.576,21.466,13.023,42.515,19.647,64.138c14.083-1.382,26.743-6.636,39.897-9.065
	c6.95,3.589,13.861,7.158,20.779,10.73c8.906-11.03,17.294-21.418,25.329-31.368c12.887,6.027,24.891,11.641,36.559,17.098
	c3.847-1.89,6.865-3.311,9.814-4.862c0.769-0.404,1.325-1.213,2.223-2.069c-2.029-0.971-3.802-1.966-5.678-2.697
	c-36.573-14.253-58.786-52.104-48.315-94.193c10.739-43.168,54.409-67.566,95.961-57.278c16.865,4.176,30.983,12.771,42.014,25.937
	c10.761,12.845,17.318,27.603,18.169,44.771c0.706,14.255-0.756,27.928-7.037,40.895c-0.303,0.626,0.076,1.581,0.155,2.615
	c2.949,0.268,5.63,0.512,8.072,0.734c9.502,13.107,18.762,25.88,28.28,39.009c4.871-0.854,9.316-1.664,13.772-2.407
	c4.467-0.745,7.937,0.072,11.123,4.101C448.589,241.986,455.594,249.261,462.695,257.256z M139.238,313.464
	c18.39,2.845,35.868,5.202,53.204,8.347c12.3,2.231,24.234,6.043,34.643,13.363c10.021,7.047,12.696,18.186,6.92,28.941
	c-1.564,2.912-3.532,5.856-6.006,7.981c-6.466,5.552-13.348,10.617-20.001,15.956c-5.862,4.705-12.689,8.383-17.201,15.597
	c2.742,0.984,4.929,2.039,7.237,2.549c10.065,2.227,20.157,4.336,30.255,6.415c19.606,4.037,39.225,8.011,58.832,12.04
	c19.625,4.032,39.331,7.85,57.994,15.39c4.345,1.756,7.497,0.826,11.095-1.314c21.165-12.584,40.02-27.774,56.153-46.569
	c25.411-29.605,41.033-63.671,48.708-101.665c0.655-3.244,0.061-5.989-2.185-8.479c-9.607-10.65-19.163-21.346-28.835-32.133
	c-7.113,1.275-13.932,2.498-20.847,3.737c-11.044-13.989-20.251-29.068-31.819-42.739c-5.664,4.263-10.673,8.033-15.872,11.946
	c-6.026-7.933-11.64-15.323-17.51-23.051c-8.943,9.582-17.118,18.341-26.454,28.344c10.537-2.22,16.253-8.233,21.388-15.078
	c6.779,9.607,8.482,10.88,19.424,15.073c3.127,1.198,6.348,2.281,9.251,3.908c11.799,6.613,21.734,15.041,24.265,29.205
	c1.368,7.656,6.398,11.398,12.712,14.264c1.926,0.874,4.1,1.224,5.977,2.176c12.094,6.135,22.123,14.46,25.8,28.087
	c3.478,12.89,1.682,20.929-11.512,26.987c-5.451,2.503-11.545,3.571-17.26,5.541c-2.801,0.965-5.685,2.122-8.039,3.859
	c-4.764,3.514-6.519,8.491-6.241,14.46c0.299,6.417,0.257,12.867-0.004,19.288c-0.216,5.295-4.358,9.676-8.915,10.098
	c-4.55,0.422-8.52-2.456-9.798-7.619c-0.723-2.921-0.931-6.008-1.049-9.033c-0.215-5.504-0.159-11.017-0.274-16.526
	c-0.103-4.956-2.385-8.836-6.435-11.501c-5.441-3.581-11.54-4.735-18.219-4.626c0,5.368,0,10.209,0,15.051
	c0,4.9-0.112,9.803,0.022,14.7c0.327,11.978-3.745,18.492-16.489,23.234c-5.898,2.195-12.318,3.142-18.581,4.171
	c-17.982,2.956-35.882,2.037-53.479-2.53c-4.607-1.196-9.101-3.593-13.075-6.284c-5.683-3.848-8.494-9.787-7.607-16.63
	c1.424-10.977,6.503-20.149,15.161-27.256c5.96-4.892,12.529-8.466,19.945-10.727c6.8-2.073,13.033-5.298,17.185-11.497
	c0.9-1.344,1.943-2.592,3.17-4.216c6.89,14.55,21.835,15.177,34.055,22.521c0-11.383,0.603-21.771-0.231-32.042
	c-0.483-5.941-4.718-10.536-10.659-12.697c-2.561-0.932-5.389-1.129-7.954-2.054c-5.678-2.05-11.436-4.001-16.847-6.639
	c-6.007-2.929-8.869-8.191-8.499-14.953c0.238-4.349,0.699-8.685,1.206-14.777c-6.948,7.358-13.484,5.016-20.206,2.247
	c-7.536-3.104-15.223-5.841-23.731-9.074c-16.724,21.033-33.76,42.458-51.291,64.506c-5.238-4.057-9.912-7.678-15.092-11.69
	c8.082-10.438,15.674-20.244,23.267-30.05c-9.351-6.867-9.35-6.864-19.449-4.174c-5.278,1.406-10.545,2.861-15.845,4.177
	c-8.162,2.027-16.349,3.953-24.927,6.018c-8.218-23.277-13.609-46.902-22.134-69.78c-3.789,0-6.828,0.003-9.867,0
	c-13.279-0.014-13.195,0.033-19.664,11.478c-9.565,16.922-19.264,33.767-28.662,50.217c-7.514,1.369-14.694-0.644-21.775,2.588
	c1.97,13.77,3.218,27.252,8.135,40.26c3.694-0.21,6.652-0.379,9.485-0.54c8.75-24.582,15.94-49.127,26.065-75.043
	c7.71,22.553,14.662,42.89,22.185,64.897c5.498-15.684,10.534-30.046,16.315-46.538C126.034,274.844,132.594,294.03,139.238,313.464
	z M50.584,329.496c7.988,22.817,19.797,41.394,33.632,58.719c14.013,17.548,30.84,32.072,49.621,44.389
	c18.432,12.088,38.299,20.957,59.475,26.891c21.535,6.034,43.511,8.042,65.868,7.523c21.377-0.497,55.536-7.692,63.52-14.269
	c-2.671-0.799-5.235-1.781-7.889-2.328c-36.124-7.447-72.286-14.708-108.372-22.335c-7.946-1.679-15.786-4.187-23.4-7.045
	c-15.022-5.64-15.118-21.504-6.697-30.482c6.932-7.391,14.438-13.954,22.664-19.848c5.673-4.065,11.032-8.636,16.126-13.413
	c2.989-2.803,2.64-5.563-0.771-7.498c-4.196-2.38-8.63-4.701-13.258-5.89c-11.114-2.854-22.347-5.336-33.639-7.372
	c-7.102-1.281-14.398-1.484-21.737-2.182c-5.934,14.576-17.786,17.614-30.916,16.554c-12.054-0.973-21.417-6.575-23.486-19.427
	C77.932,330.83,65.228,330.21,50.584,329.496z M359.953,187.273c7.854-14.414,11.062-28.309,7.651-43.882
	c-6.291-28.72-33.592-52.401-67.593-47.008c-36.847,5.845-56.943,40.533-49.774,71.967c5.375,23.571,22.976,40.483,45.977,46.205
	c3.403,0.847,6.45,0.422,9.056-2.614c4.181-4.872,8.753-9.41,13.172-14.077c9.003-9.507,18.015-19.007,27.444-28.954
	C350.769,175.283,355.011,180.821,359.953,187.273z M304.006,267.263c13.03,8.786,57.975,8.594,68.71,0.22
	c-1.21-11.644-12.91-20.903-29.062-22.743C327.743,242.928,305.801,251.757,304.006,267.263z M349.361,314.654
	c21.269,8.016,56.935,7.211,68.92-1.25c-1.038-6.097-4.738-10.302-9.448-14.016c-13.015-10.262-36.077-10.652-49.765-0.719
	C353.964,302.371,348.886,306.673,349.361,314.654z M259.243,369.654c17.294,8.085,55.555,7.73,69.232-0.422
	c-4.146-14.245-16.21-21.952-34.408-21.982C275.619,347.221,263.594,354.773,259.243,369.654z M118.654,314.905
	c-2.098,6.464-3.457,10.652-5.034,15.513c3.815,0,6.404,0,10.043,0C122.045,325.407,120.679,321.176,118.654,314.905z
	 M163.13,186.092c-27.284,1.268-54.008-21.366-54.083-53.617c-0.072-30.856,24.707-54.245,54.802-54.068
	c32.265,0.189,54.161,28.416,53.6,55.258C216.929,158.513,194.906,187.569,163.13,186.092z M163.499,166.96
	c15.746-0.056,34.102-11.628,34.388-34.415c0.252-20.052-14.931-34.343-34.089-34.67c-21.424-0.367-35.173,17.905-34.976,34.832
	C129.033,150.8,144.521,167.027,163.499,166.96z"/>
</svg>
