<?xml version="1.0" encoding="utf-8"?>
<!-- Generator: Adobe Illustrator 25.1.0, SVG Export Plug-In . SVG Version: 6.00 Build 0)  -->
<svg version="1.1" id="Layer_1" xmlns="http://www.w3.org/2000/svg" xmlns:xlink="http://www.w3.org/1999/xlink" x="0px" y="0px"
	 viewBox="0 0 500 500" style="enable-background:new 0 0 500 500;" xml:space="preserve">
<g>
	<path d="M249.5,5c134.8-0.1,244.7,109.7,244.7,244.5c0,135-109.6,244.6-244.7,244.6C114.2,494,4.7,384.4,4.8,248.9
		C4.8,114.7,114.9,5.1,249.5,5z M287.8,251.6c-7.2,4.4-14.2,5-22.1,1c-7.8-3.9-16.2-6.4-24.8-9.6c-17.8,22.6-35.7,45.1-53.8,68.1
		c-5.3-4.3-10.1-8.1-15.4-12.3c8.5-10.7,16.6-21,25.3-31.9c-4.4-2.5-8.2-4.6-11.7-6.6c-17.6,4.5-34.9,8.8-52.5,13.3
		c-7.6-25-15-49.1-22.3-73.1c-9,0-17.1,0-25.6,0c-12.4,21.6-24.8,43.3-37,64.8c-7.7,0.8-14.9-0.2-22.4,2c1.1,14.8,3.3,29,7.8,42.7
		c4.1,0.3,7.5,0.9,11.1-0.5c8.6-25.3,17.1-50.7,26.3-78c8,23.8,15.3,45.5,22.6,67.2c0.5,0,1-0.1,1.5-0.1
		c5.2-15.1,10.5-30.2,16.4-47.4c7.6,22.4,14.5,42.8,21.5,63.2c7.8,0.9,15.2,1.5,22.5,2.5c21.2,2.8,42.4,5.3,62,14.8
		c21.6,10.5,23.9,29.3,6.1,45.5c-6.2,5.7-13.6,9.7-20.2,14.9c-5.9,4.6-12.2,8.9-16.8,16.4c56.3,15.3,114.1,19.2,168.4,39.2
		c63.5-30.8,110.6-101.1,116.9-164.7c-10.7-12.2-21.6-24.5-32.4-36.7c-7.7,1.3-15,2.5-22.5,3.8c-10.7-14.6-21.2-28.9-32.1-43.7
		c-7.8,0.8-11.4,8.6-18.4,11.1c-6-7.8-11.9-15.7-18.2-24c-9.8,10.5-18.9,20.3-28,30.1c10.3-1.4,17.6-6.6,22.6-15.7
		c4.7,8.7,11.7,13.4,20,16.2c20.3,6.8,34.1,19.3,37.2,41c4.3,5.3,9.7,7.8,15.4,10c15.2,6.1,26.5,16,30.4,32.7
		c2.7,11.3-0.7,18.7-10.8,24.4c-5.6,3.1-11.6,4.6-17.8,5.9c-12.1,2.4-17.5,9-17.5,21.3c0,6,0.1,12.1,0,18.1
		c-0.1,6.9-3.9,11.2-9.6,11.3c-5.8,0.1-9.7-4.1-9.9-11.1c-0.2-7,0.1-13.9-0.1-20.9c-0.2-7.9-4-13.9-11.3-16.9
		c-4.8-2.1-10.1-2.9-16.2-3.3c0,10.6,0,20.8,0,30.9c0,15.6-4.4,21.2-19.3,26.4c-11.9,4.1-24.2,4.6-36.4,4.7
		c-13.9,0.1-27.8-0.6-41.1-5.7c-15.3-5.8-20.6-17.7-14-32.8c6.1-14,16.9-23.1,31.2-27.9c9.4-3.1,18.3-6.8,23.4-17.5
		c7.7,15.7,23.6,16.2,36.6,24.2c0-10.7,0-19.9,0-29.1c-0.1-11.9-5-18-16.6-20.5c-5.9-1.3-11.8-2.4-17.2-5.3
		c-11.1-5.9-14.7-13.8-12-25.9c0.5-2.2,2-4.3,0.8-6.7c0.3-0.1,0.6-0.1,0.5-0.1C288.3,251.3,288.1,251.5,287.8,251.6z M473.5,255
		c0.5-85.6-35-151.9-106.8-197.2c-74.3-47-174.7-43.5-245.3,7.1c-61.9,44.3-94,104.8-97.4,180.9c4.8,0.8,8.2,0.7,12.2,0
		c12.3-21.5,24.7-43.2,37-64.6c17.6,0,34.5,0,51.6,0c7.1,22.8,14,45.3,21.1,68.3c14.4-3.6,28-7.1,41.9-10.5
		c7.1,3.9,14.2,7.7,21.7,11.8c9.2-11.5,18.1-22.6,27.2-34.1c12.7,7.9,25.1,14.7,39.4,18.1c3.7-1.9,7.6-3.9,12.4-6.4
		c-54.1-18.9-71-73.1-54.7-112.5c16-38.7,59.6-60.1,101-48.3c20.4,5.8,36.7,17.9,47.7,36.1c15.9,26.4,16.5,53.8,3.5,82.1
		c3.7,0.4,6.4,0.6,9.5,0.9c9.9,13.8,20,27.7,30,41.6c7.3-1.2,14.1-2.3,21.2-3.4C455.7,235.1,464.6,245.1,473.5,255z M39.4,331.1
		c29.1,68.1,78,113.6,148.2,134.6c46.7,13.9,93.4,11.6,139.1-5.4c-33.8-9.9-68.3-16-102.5-23.3c-15-3.2-30.4-4.7-44.6-10.7
		c-14.9-6.3-18-19.4-7.9-32.1c2-2.5,4.3-4.8,6.7-7.1c7.1-6.8,15-12.4,23.1-17.9c5.5-3.7,11.2-7.4,13.8-13.9
		c-7.6-10.2-46.5-20.3-75.9-20.1c-7.3,13.5-17,18.5-33.3,16.5c-15.1-1.9-21-7.3-23.6-20.8C68.7,333.8,54.7,328.8,39.4,331.1z
		 M364.6,180.6c12.7-12.8,15.5-47.5-1-70.1c-18.6-25.5-51.3-32.6-77.5-21.2c-31.2,13.6-43.5,44.5-36.5,73.8
		c6.8,28.7,32.3,46.9,55.5,47.4c14.9-15.8,29.7-31.6,44.6-47.4C356.1,168.6,358.8,175.9,364.6,180.6z M258.8,372.2
		c15.5,9.1,61.7,8.6,73.4-0.5c-2.1-13.7-17.4-23.9-36.1-24C276.5,347.6,261.2,357.6,258.8,372.2z M426.8,314.9
		c-1.4-15.4-20.3-28-43.3-25.3c-16.9,2-30.2,12.9-29.7,25.6C377.9,322.1,402.2,322.3,426.8,314.9z M379.8,265.8
		c-4-17.7-22.3-27.7-43.6-25.1c-17.1,2.1-30.1,12.8-29.8,25.7C330.7,273.1,354.9,273.6,379.8,265.8z M111,313.1
		c-1.8,6.8-5,12.1-5.2,18.4c4.1,2.4,7.7,2,12-0.6C116.3,325.1,115,319.2,111,313.1z M76.5,310.9c-0.5-6.3-3.2-11.5-6.7-17.1
		c-1.7,5.5-3.4,10.9-5.4,17.1C69.1,310.9,72.6,310.9,76.5,310.9z"/>
	<path d="M157.4,179.6c-31.6-0.9-56.2-26.3-55.6-57.5c0.6-31.4,26.5-56.5,57.5-55.8c32.2,0.7,56.8,26.5,56,58.6
		C214.5,155.5,188.1,180.4,157.4,179.6z M195.8,122.9c-0.1-20.1-17.1-37-37.4-37.1c-19.9,0-37.6,17.4-37.5,37.1
		c0.1,19.9,17.4,36.9,37.6,36.9C178.9,159.9,195.9,143.1,195.8,122.9z"/>
</g>
</svg>
