<?xml version="1.0" encoding="utf-8"?>
<!-- Generator: Adobe Illustrator 26.0.0, SVG Export Plug-In . SVG Version: 6.00 Build 0)  -->
<svg version="1.1" id="matic" xmlns="http://www.w3.org/2000/svg" xmlns:xlink="http://www.w3.org/1999/xlink" x="0px" y="0px"
	 viewBox="0 0 500 500" style="enable-background:new 0 0 500 500;" xml:space="preserve">
<path d="M377.3,163.9c-9.2-5.4-21.2-5.4-31.4,0l-72,41.7L225,232.8l-72,41.7c-9.2,5.4-21.2,5.4-31.4,0l-57.2-32.6
	c-9.2-5.4-15.7-15.4-15.7-26.3v-64.3c0-10.9,5.5-20.8,15.7-26.3l56.3-31.7c9.2-5.4,21.2-5.4,31.4,0l56.3,31.7
	c9.2,5.4,15.7,15.4,15.7,26.3V193l48.9-28.1v-41.7c0-10.9-5.5-20.8-15.7-26.3L153.1,37.1c-9.2-5.4-21.2-5.4-31.4,0l-106,59.8
	C5.5,102.3,0,112.3,0,123.2v120.5c0,10.9,5.5,20.8,15.7,26.3l106.1,59.8c9.2,5.4,21.2,5.4,31.4,0l72-40.8l48.9-28.1l72-40.8
	c9.2-5.4,21.2-5.4,31.4,0l56.3,31.7c9.2,5.4,15.7,15.4,15.7,26.3v64.3c0,10.9-5.5,20.8-15.7,26.3l-56.3,32.6
	c-9.2,5.4-21.2,5.4-31.4,0l-56.3-31.7c-9.2-5.4-15.7-15.4-15.7-26.3v-41.7l-48.9,28.1v41.7c0,10.9,5.5,20.8,15.7,26.3L347,457.5
	c9.2,5.4,21.2,5.4,31.4,0l106.1-59.8c9.2-5.4,15.7-15.4,15.7-26.3V250.9c0-10.9-5.5-20.8-15.7-26.3L377.3,163.9z"/>
</svg>
