<?xml version="1.0" encoding="utf-8"?>
<!-- Generator: Adobe Illustrator 24.2.0, SVG Export Plug-In . SVG Version: 6.00 Build 0)  -->
<svg version="1.1" id="matic" xmlns="http://www.w3.org/2000/svg" xmlns:xlink="http://www.w3.org/1999/xlink" x="0px" y="0px"
	 viewBox="0 0 500 500" style="enable-background:new 0 0 500 500;" xml:space="preserve">
<style type="text/css">
	.st0{opacity:0.4;}
	.st1{opacity:0.7;}
</style>
<polygon class="st0" points="331.9,195.9 331.9,100.6 415.2,54.5 495.5,101.4 495.5,396 415.9,442.1 332.6,395.2 332.6,290.3 
	250.8,338 167.5,289.6 167.5,395.2 86.4,442.1 3.8,394.5 3.8,102.1 86.4,55.3 "/>
<polygon points="495.5,101.4 414.8,148.4 331.9,100.6 415.2,54.5 "/>
<polygon class="st1" points="415.9,442.1 415.9,148.4 331.9,100.6 332.6,395.2 "/>
<polygon points="86.4,55.3 331.9,195.9 250.7,243.5 3.8,102.1 "/>
<polygon class="st1" points="86.4,442.1 3.8,394.5 3.8,102.1 250.7,243.5 250.8,338 85.1,242.3 "/>
</svg>
