<?xml version="1.0" encoding="iso-8859-1"?>
<!-- Generator: Adobe Illustrator 19.0.0, SVG Export Plug-In . SVG Version: 6.00 Build 0)  -->
<svg version="1.1" id="Layer_1" xmlns="http://www.w3.org/2000/svg" xmlns:xlink="http://www.w3.org/1999/xlink" x="0px" y="0px"
	 viewBox="0 0 2000 2000" style="enable-background:new 0 0 2000 2000;" xml:space="preserve">
<path d="M999.124,20.356c468.173-27.591,1024.422,400.176,980.652,1058.237c-26.69,401.265-387.45,942.002-1064.837,900.253
	C521.717,1954.609-26.3,1596.087,20.809,910.17C52.726,445.439,469.487,5.71,999.124,20.356z M140.085,999.63
	c4.383,479.768,381.49,853.719,849.61,858.219c488.772,4.698,863.852-382.326,868.174-845.928
	c4.514-484.134-379.048-871.897-854.19-872.001C525.585,139.816,140.072,523.595,140.085,999.63z M963.027,600.514
	C852.105,494.247,721.572,461.63,578.583,516.046c-139.873,53.23-228.09,159.358-235.722,310.871
	c-8.821,175.118-2.648,351.001-2.545,526.551c0.018,30.491,15.986,56.568,44.062,61.883c22.667,4.291,54.354-0.562,71.075-14.506
	c15.788-13.167,23.721-43.401,24.01-66.268c1.951-154.363-0.877-308.8,2.136-463.129c0.797-40.808,8.781-85.349,27.117-121.191
	c48.887-95.559,151.018-135.946,256.617-109.83c95.062,23.51,164.599,113.627,165.151,217.511
	c0.86,161.853,0.661,323.716-0.211,485.569c-0.19,35.356,13.588,60.388,45.071,74.122c50.409,21.99,98.545-16.536,98.693-79.067
	c0.39-164.349-0.75-328.709,0.93-493.042c0.282-27.536,7.104-57.047,18.657-82.066c45.302-98.105,148.954-148.223,252.767-125.669
	c104.005,22.596,176.207,110.311,177.049,219.513c1.248,161.851,0.086,323.719,0.64,485.577
	c0.166,48.568,28.942,79.458,70.406,78.672c40.469-0.767,68.905-30.927,69.053-76.792c0.536-165.594,3.086-331.254-0.533-496.77
	c-5.391-246.561-250.706-414.566-484.243-335.722c-72.183,24.37-126.521,72.038-177.086,130.282
	C986.504,625.953,975.501,612.465,963.027,600.514z"/>
</svg>
