<?xml version="1.0" encoding="utf-8"?>
<!-- Generator: Adobe Illustrator 25.1.0, SVG Export Plug-In . SVG Version: 6.00 Build 0)  -->
<svg version="1.1" id="MBC" xmlns="http://www.w3.org/2000/svg" xmlns:xlink="http://www.w3.org/1999/xlink" x="0px" y="0px"
	 viewBox="0 0 500 500" style="enable-background:new 0 0 500 500;" xml:space="preserve">
<path d="M250,0C111.9,0,0,111.9,0,250s111.9,250,250,250s250-111.9,250-250S388.1,0,250,0z M268.2,366.5c-13,0-25.3,0-38.3,0
	c0-13,0-25.1,0-38.3c12.7,0,25,0,38.3,0C268.2,341,268.2,353.2,268.2,366.5z M340.5,366.5c-13.2,0-25.5,0-38.9,0
	c0-49.5,0-98,0-146.5c-1-0.3-25.5,53.3-37,80.7c-10.3,0-19.9,0-31.2,0c-11.1-26.8-35.3-81.4-36-81.3c0,48.6,0,97.2,0,146.9
	c-13.9,0-26.2,0-39.4,0c0-78.3,0-155.9,0-234.4c15.6,0,30.4,0,46.7,0c14.2,35.4,44.7,107.7,45.5,107.9c14.4-36.1,28.8-72.1,43.1-108
	c16.2,0,31.3,0,47.2,0C340.5,210.4,340.5,288,340.5,366.5z"/>
</svg>
