<?xml version="1.0" encoding="iso-8859-1"?>
<!-- Generator: Adobe Illustrator 19.0.0, SVG Export Plug-In . SVG Version: 6.00 Build 0)  -->
<svg version="1.1" id="Layer_1" xmlns="http://www.w3.org/2000/svg" xmlns:xlink="http://www.w3.org/1999/xlink" x="0px" y="0px"
	 viewBox="0 0 2000 2000" style="enable-background:new 0 0 2000 2000;" xml:space="preserve">
<path d="M1673.138,1307.494c51.366-22.88,95.932-42.73,151.372-67.424c-8.054,50.715-12.732,92.265-21.414,132.959
	c-78.222,366.616-332.78,587.966-706.607,606.697c-97.598,4.89-198.399,0.789-293.929-18.25
	c-291.706-58.136-464.984-249.52-554.024-524.115c-74.887-230.946-81.872-468.03-53.105-707.263
	c0.704-5.85,4.173-11.368,5.42-14.615c43.455,46.318,86.109,91.782,136.968,145.991C472.26,524.32,644.872,232.107,934.573,18.226
	c4.714,9.39,8.596,14.255,9.668,19.676c28.945,146.395,119.874,249.528,236.058,333.59c12.863,9.307,40.014,9.251,55.647,2.392
	c46.448-20.382,90.454-46.331,141.785-73.473c1.367,15.835,1.192,27.797,3.582,39.223c14.966,71.553,28.954,143.381,46.96,214.178
	c4.426,17.403,19.868,34.866,34.833,46.293c201.339,153.744,250.524,363.801,224.791,601.927
	C1684.387,1234.513,1678.893,1266.782,1673.138,1307.494z M1427.145,1151.653c-50.454-92.095-95.491-181.24-147.032-266.451
	c-52.707-87.139-121.761-160.873-196.15-216.519c-40.981,55.228-74.373,109.521-116.952,155.262
	c-53.552,57.529-56.77,54.456-128.405,19.794c-8.455-4.091-17.387-7.196-29.057-11.969c-1.674,9.698-3.369,15.599-3.618,21.56
	c-2.859,68.389-22.96,126.123-80.566,171.283c-57.483,45.064-91.39,109.89-97.836,182.323
	c-6.335,71.189-1.381,143.382-1.381,220.328c-27.9-11.225-52.863-21.269-93.772-37.728c24.154,69.308,39.622,127.619,64.158,181.826
	c154.198,340.67,618.01,292.757,771.67,103.786c141.329-173.806,149.874-376.308,136.214-591.497
	C1474.047,1110.379,1450.114,1131.441,1427.145,1151.653z M817.669,1529.354c1.089,101.243,85.43,183.169,187.435,182.069
	c101.694-1.097,184.591-85.736,182.782-186.622c-1.838-102.457-84.828-183.027-187.338-181.875
	C898.441,1344.073,816.574,1427.529,817.669,1529.354z"/>
</svg>
