<?xml version="1.0" encoding="iso-8859-1"?>
<!-- Generator: Adobe Illustrator 19.0.0, SVG Export Plug-In . SVG Version: 6.00 Build 0)  -->
<svg version="1.1" id="Layer_1" xmlns="http://www.w3.org/2000/svg" xmlns:xlink="http://www.w3.org/1999/xlink" x="0px" y="0px"
	 viewBox="0 0 2000 2000" style="enable-background:new 0 0 2000 2000;" xml:space="preserve">
<path d="M408.177,1883.648c-123.49,0-235.321,0.543-347.141-0.312c-36.114-0.276-41.551-25.857-41.302-55.757
	c1.019-122.081,1.675-244.168,1.747-366.254c0.129-220.764,1.645-441.553-1.247-662.281
	c-1.396-106.578,40.638-179.721,134.427-231.87C394.103,434.038,632.086,298.19,868.543,159.823
	c90.766-53.113,173.863-52.139,263.808,0.261c228.066,132.867,457.951,262.616,687.287,393.299
	c105.168,59.928,157.923,149.137,157.637,270.921c-0.772,329.474-0.399,658.951-0.576,988.427
	c-0.036,66.548-4.573,70.954-71.657,71.037c-85.296,0.105-170.595,0.427-255.885-0.283c-19.171-0.16-38.31-4.202-63.159-7.128
	c-3.095-57.392-8.241-110.279-8.406-163.181c-0.738-235.804-3.264-471.679,1.664-707.387
	c2.036-97.376-29.375-163.263-119.335-203.745c-54.632-24.584-104.371-59.847-158.317-86.201
	c-65.158-31.831-96.399-15.08-98.951,57.016c-4.848,136.966-4.415,274.119-6.073,411.196c-0.303,25.074,1.227,50.244-0.443,75.212
	c-3.63,54.259-25.194,81.905-79.653,84.814c-79.902,4.269-160.23,1.474-240.356,0.283c-51.434-0.764-75.206-29.682-75.219-80.14
	c-0.036-138.802,0.037-277.605-0.662-416.405c-0.16-31.68-0.777-63.729-5.596-94.926c-7.224-46.767-32.591-65.442-73.495-44.767
	c-89.11,45.04-178.405,91.861-259.487,149.416c-26.59,18.875-38.817,72.983-39.317,111.217
	c-3.671,280.927-2.48,561.915-3.622,842.88C418.638,1833.602,412.463,1855.541,408.177,1883.648z"/>
</svg>
