<?xml version="1.0" encoding="iso-8859-1"?>
<!-- Generator: Adobe Illustrator 19.0.0, SVG Export Plug-In . SVG Version: 6.00 Build 0)  -->
<svg version="1.1" id="Layer_1" xmlns="http://www.w3.org/2000/svg" xmlns:xlink="http://www.w3.org/1999/xlink" x="0px" y="0px"
	 viewBox="0 0 500 500" style="enable-background:new 0 0 500 500;" xml:space="preserve">
<path id="XMLID_4_" d="M463.094,251.328c0,36.998-0.107,73.996,0.118,110.992c0.033,5.418-1.605,8.524-6.392,11.225
	c-55.347,31.22-110.574,62.651-165.828,94.036c-10.845,6.16-21.558,12.568-32.587,18.378c-2.313,1.219-6.395,1.456-8.569,0.221
	C183.952,448.738,118.22,411.027,52.4,373.47c-4.245-2.422-6.505-4.894-6.488-10.342c0.234-74.502,0.218-149.005,0.117-223.507
	c-0.007-4.909,1.028-8.071,5.723-10.741c66.06-37.567,131.967-75.403,198.039-112.948c2.213-1.258,6.39-1.235,8.617,0.022
	c65.522,36.995,130.867,74.305,196.401,111.278c6.225,3.512,8.508,7.414,8.433,14.595c-0.382,36.497-0.176,73-0.176,109.501
	C463.076,251.328,463.085,251.328,463.094,251.328z M444.17,250.305c0-34.259-0.064-68.517,0.082-102.775
	c0.018-4.2-1.066-6.636-4.99-8.795c-19.875-10.935-39.554-22.228-59.258-33.47c-40.274-22.979-80.484-46.068-120.863-68.861
	c-2.478-1.399-6.936-1.938-9.219-0.651c-60.577,34.145-120.966,68.623-181.477,102.885c-4.264,2.414-5.6,5.182-5.588,10.021
	c0.172,67.766,0.16,135.534,0.026,203.3c-0.01,4.961,1.116,7.886,5.864,10.565c60.139,33.932,120.129,68.128,180.059,102.428
	c4.051,2.319,6.883,2.031,10.803-0.219c59.437-34.132,118.936-68.159,178.569-101.947c4.615-2.615,6.15-5.334,6.119-10.455
	C444.088,318.323,444.189,284.314,444.17,250.305z M152.939,198.077c67.568,0,134.337,0,202.119,0
	c-6.621-27.656-13.052-54.519-19.494-81.429c-54.784,0-108.955,0-164.046,0C165.29,143.948,159.144,170.883,152.939,198.077z
	 M99.93,272.513c20.302,34.86,41.488,69.248,60.504,104.796c8.126,15.191,17.409,22.982,34.569,19.385
	c3.211-0.673,7.08-0.938,9.352-2.894c9.832-8.464,19.201-17.468,28.706-26.31c5.825-5.419,6.076-17.72,0.39-23.258
	c-9.482-9.235-19.33-18.115-28.431-27.707c-2.718-2.865-4.708-7.554-4.875-11.499c-0.59-13.966-0.047-27.977-0.429-41.958
	c-0.074-2.715-1.647-6.463-3.767-7.872c-13.272-8.821-26.824-17.234-40.493-25.432c-1.725-1.035-5.349-0.967-6.955,0.182
	c-17.016,12.171-33.8,24.664-51.357,37.589C98.259,269.531,99.07,271.037,99.93,272.513z M359.443,229.655
	c-3.144-2.385-5.351-1.927-8.491,0.164c-13.059,8.698-26.457,16.889-39.434,25.703c-2.111,1.434-3.786,5.044-3.854,7.694
	c-0.372,14.477,0.062,28.976-0.366,43.45c-0.097,3.269-1.739,7.234-4.016,9.566c-9.41,9.638-19.474,18.635-28.962,28.201
	c-2.004,2.02-3.152,5.335-3.722,8.243c-1.541,7.862,1.567,13.876,8.148,18.402c2.854,1.963,5.396,4.441,7.856,6.907
	c18.101,18.141,18.082,18.054,43.522,17.754c4.312-0.051,6.705-1.489,8.831-5.205c13.849-24.207,27.951-48.269,41.933-72.4
	c9.708-16.755,19.355-33.545,29.161-50.548C392.858,254.728,376.085,242.277,359.443,229.655z M291.518,281.098
	c-1.057-12.519-3.376-24.901,2.992-37.224c5.07-9.812,8.023-20.718,12.17-31.819c-35.562,0-70.176,0-105.513,0
	c5.456,14.041,10.772,27.42,15.795,40.909c0.963,2.587,1.264,5.645,1.033,8.416c-1.294,15.5-2.844,30.979-4.338,46.796
	c26.747,0,53.204,0,81.051,0C293.573,298.72,292.265,289.933,291.518,281.098z"/>
</svg>
