<?xml version="1.0" encoding="iso-8859-1"?>
<!-- Generator: Adobe Illustrator 19.0.0, SVG Export Plug-In . SVG Version: 6.00 Build 0)  -->
<svg version="1.1" id="Layer_1" xmlns="http://www.w3.org/2000/svg" xmlns:xlink="http://www.w3.org/1999/xlink" x="0px" y="0px"
	 viewBox="0 0 500 500" enable-background="new 0 0 500 500" xml:space="preserve">
<path d="M281.417,337.199c0,9.093,0,17.685,0,27.149c22.646,0,45.078,0,68.199,0c0,10.46,0,20.079,0,30.652
	c-22.635,0-45.289,0-68.531,0c0,5.872,0,10.812,0,16.406c22.856,0,45.344,0,68.526,0c0,9.4,0,18.187,0,28.229
	c-22.525,0-45.144,0-68.34,0c0,18.805,0,36.39,0,54.586c-19.731,0-38.879,0-58.919,0c0-17.566,0-35.357,0-54.221
	c-23.255,0-45.653,0-68.452,0c0-9.909,0-18.73,0-28.396c22.802,0,45.23,0,68.12,0c0-5.603,0-10.376,0-15.986
	c-22.483,0-44.919,0-67.946,0c0-10.443,0-20.083,0-30.787c22.299,0,44.696,0,67.499,0c0-9.917,0-18.786,0-28.244
	c-49.446-9.088-86.787-35.955-111.826-79.248C87.34,218.595,84.174,176.49,91.89,133.301
	C103.605,67.726,163.355,2.359,258.028,5.082c88.844,2.556,145.829,72.061,154.72,139.408c5.837,44.214-0.331,86.293-25.625,124.085
	C361.827,306.37,326.51,329.296,281.417,337.199z M179.376,168.67c-0.104,28.077,5.914,51.55,24.27,70.495
	c27.805,28.698,76.539,26.497,101.153-4.423c27.166-34.127,26.264-92.563-1.943-125.857c-28.468-33.603-77.661-32.708-104.805,1.965
	C184.189,128.556,179.162,149.052,179.376,168.67z"/>
</svg>
