<?xml version="1.0" encoding="iso-8859-1"?>
<!-- Generator: Adobe Illustrator 19.0.0, SVG Export Plug-In . SVG Version: 6.00 Build 0)  -->
<svg version="1.1" id="Layer_1" xmlns="http://www.w3.org/2000/svg" xmlns:xlink="http://www.w3.org/1999/xlink" x="0px" y="0px"
	 viewBox="0 0 2000 2000" style="enable-background:new 0 0 2000 2000;" xml:space="preserve">
<path d="M20.922,1100.391c3.087-368.351,93.945-591.838,271.185-778.043C484.683,120.029,724.829,17.598,1003.176,18.36
	c541.64,1.483,986.904,440.359,977.327,999.316c-8.969,523.505-432.858,958.938-978.521,961.06
	C458.454,1980.85,10.773,1531.29,20.922,1100.391z M1796.751,1461.661c183.285-282.333,203.547-777.323-144.437-1122.456
	C1297.584-12.62,735.768-15.373,377.918,313.671C3.61,657.848,17.658,1172.818,209.058,1465.531
	c21.261-34.89,41.622-69.434,63.215-103.189c8.728-13.645,17.784-29.183,30.745-37.659c61.995-40.54,125.38-78.953,187.159-117.429
	c75.223,75.194,149.65,149.593,224.097,224.011c0,106.282,0,213.723,0,323.85c-78.955,0-156.037,0-233.12,0
	c18.823,17.198,38.218,30.963,59.249,41.443c13.331,6.642,28.996,11.272,43.791,11.797c43.172,1.53,86.433,0.544,132.423,0.544
	c0,23.561,0,44.868,0,67.228c19.474,5.115,36.616,9.618,57.027,14.979c0-28.754,0-54.028,0-81.708c48.81,0,95.119,0,144.48,0
	c28.308-30.25,56.913-60.818,88.38-94.444c32.123,33.09,61.704,63.564,93.2,96.008c42.219,0,86.135,0,133.412,0
	c0,27.31,0,52.465,0,79.681c20.295-5.713,36.779-10.352,53.13-14.955c1.879-23.044,3.591-44.049,5.451-66.861
	c37.224,0,70.868-3.257,103.627,0.737c53.711,6.549,88.616-26.638,127.454-55.293c-77.256,0-154.511,0-233.116,0
	c0-109.178,0-216.027,0-311.714c77.394-83.077,149.821-160.822,222.608-238.953c58.337,36.615,111.172,71.3,165.589,103.294
	c27.526,16.184,46.932,37.501,62.343,64.912C1757.48,1402.539,1777.676,1431.626,1796.751,1461.661z M1096.091,423.212
	c-34.094,26.361-68.189,52.723-103.733,80.205c-106.571-90.87-214.056-182.52-321.227-273.901
	c-9.514,5.278-15.817,8.775-22.609,12.543c0,244.463,0,487.68,0,734.89c3.397,3.455,9.113,9.267,11.533,11.728
	c71.695,0,138.155,0,207.302,0c0-105.001,0-207.943,0-310.884c2.512-1.586,5.024-3.173,7.536-4.759
	c38.696,41.147,77.391,82.295,117.97,125.445c46.226-43.879,90.544-85.948,139.676-132.585c0,111.985,0,217.477,0,323.898
	c41.184,0,79.403,0,117.441,0c30.58-57.463,31.635-374.152,1.554-415.91c-28.315,3.833-13.378,36.503-31.09,46.973
	c-7.798-1.897-15.256-3.71-21.815-5.305c-1.259-11.285-2.466-22.097-4.1-36.74c-10.55,5.814-17.599,9.7-28.404,15.655
	c8.465-17.689,15.036-31.421,22.083-46.147c-7.15-4.157-11.844-6.887-18.461-10.734c-0.767,6.257-1.258,10.262-1.818,14.826
	c-3.714-3.088-6.685-5.557-7.286-6.057c-18.877,23.334-37.496,46.349-57.484,71.057c-4.993-8.236-7.117-11.74-10.826-17.856
	c25.611-28.391,51.804-57.428,79.765-88.425c-0.816-2.064-2.796-7.071-4.539-11.481c-17.149,14.175-33.24,27.474-51.305,42.406
	c-3.692-9.263-5.961-14.958-8.405-21.089c25.495-19.538,49.701-38.089,75.782-58.075c-8.807-10.03-16.179-18.425-22.189-25.27
	c-15.452,4.863-30.838,9.705-48.313,15.205c-4.309-1.664-10.457-4.039-15.083-5.825c-0.998-8.943-1.852-16.599-2.707-24.255
	L1096.091,423.212z M773.59,1386.775c0.088,9.519,5.542,21.124,12.285,28.116c64.274,66.645,129.345,132.522,194.249,198.558
	c6.881,7.001,14.165,13.607,22.373,21.459c77.706-75.37,154.213-149.578,229.742-222.837c0-108.863,0-215.689,0-324.357
	c-22.983-4.747-45.483-8.767-67.664-14.11c-41.472-9.989-82.588-21.518-124.213-30.785c-15.658-3.486-32.955-5.811-48.405-2.878
	c-47.55,9.027-94.622,20.624-141.773,31.677c-26.089,6.116-51.964,13.143-77.139,19.557
	C773.045,1192.96,772.698,1289.873,773.59,1386.775z M1342.204,567.267c-5.61-2.178-11.22-4.356-21.429-8.32
	c8.47,27.916,15.896,52.391,23.658,77.971c-9.806-2.765-17.594-4.961-22.285-6.283c-6.977-9.017-12.284-15.877-14.594-18.863
	c-13.642,3.495-22.751,5.829-30.986,7.939c1.944,123.131,15.542,246.691-14.718,370.096c26.928,0,50.185,0,75.258,0
	c4.486-4.881,9.982-10.861,15.794-17.185c0-116.529,0.509-232.611-0.506-348.679c-0.167-19.135-7.02-38.212-10.783-57.316
	L1342.204,567.267z M1230.44,1498.578c-61.192,61.75-121.167,122.271-181.358,183.011c22.797,22.502,47.088,46.478,72.132,71.198
	c35.204,0,71.764,0,109.225,0C1230.44,1666.306,1230.44,1582.336,1230.44,1498.578z M883.857,1752.453
	c25.803-23.843,51.838-47.901,79.448-73.414c-62.52-61.05-123.848-120.935-185.789-181.418c0,84.049,0,168.028,0,254.832
	C814.02,1752.453,848.861,1752.453,883.857,1752.453z M1095.341,422.743c19.119-4.505,38.322-8.687,57.333-13.609
	c17.93-4.643,38.783,11.731,56.512-5.157c-14.456-10.438-26.504-19.138-40.908-29.539c10.148-6.989,16.018-11.032,19.214-13.234
	c18.42,9.07,34.398,16.937,50.784,25.006c8.694-13.301,15.818-24.199,23.64-36.166c5.231-0.771,11.686-1.721,16.559-2.439
	c9.334,11.411,17.735,21.68,26.391,32.262c0,9.132,0,19.884,0,32.101c16.816-11.542,31.634-21.713,46.576-31.969
	c0-46.253,0-91.926,0-138.29c-7.241-3.726-13.671-7.035-22.399-11.526c-20.694,16.332-41.64,32.087-61.729,48.867
	c-57.261,47.831-114.174,96.079-171.223,144.163L1095.341,422.743z M1350.833,401.973c-23.327,16.016-41.966,28.814-60.605,41.611
	c0.671,1.398,1.342,2.796,2.013,4.194c19.317,0,38.633,0,58.592,0C1350.833,433.233,1350.833,420.855,1350.833,401.973z
	 M1305.74,459.687c14.656,8.121,29.311,16.242,47.473,26.306c-1.177-12.632-2.03-21.788-2.875-30.868c-16.457,0-30.087,0-43.718,0
	C1306.326,456.645,1306.033,458.166,1305.74,459.687z M1341.613,566.627c2.696,1.451,5.392,2.901,12.494,6.723
	c-2.106-17.058-3.716-30.107-5.527-44.771c-8.407,1.282-14.176,2.161-22.12,3.373c5.985,13.426,10.864,24.371,15.743,35.316
	L1341.613,566.627z"/>
</svg>
