<?xml version="1.0" encoding="iso-8859-1"?>
<!-- Generator: Adobe Illustrator 19.0.0, SVG Export Plug-In . SVG Version: 6.00 Build 0)  -->
<svg version="1.1" id="Layer_1" xmlns="http://www.w3.org/2000/svg" xmlns:xlink="http://www.w3.org/1999/xlink" x="0px" y="0px"
	 viewBox="0 0 500 500" enable-background="new 0 0 500 500" xml:space="preserve">
<path d="M204.567,169.035c19.658,0.06,36.885,16.761,36.695,35.575c-0.176,17.453-19.923,37.047-36.95,36.664
	c-19.371-0.435-34.373-17.202-35.553-37.037C167.75,187.287,186.123,166.649,204.567,169.035z M258.165,204.342
	c-0.403,17.056,19.353,36.952,36.671,36.93c19.098-0.024,34.579-17.025,35.819-36.757c1.115-17.746-17.862-37.819-35.516-35.481
	C275.232,169.031,258.625,184.889,258.165,204.342z M241.258,294.949c0.232-17.145-19.623-36.997-36.804-36.798
	c-19.219,0.222-34.485,17.138-35.692,36.903c-1.057,17.317,17.591,37.696,35.669,35.335
	C224.201,330.359,240.998,314.194,241.258,294.949z M295.34,258.15c-16.913-0.686-36.866,18.864-37.174,36.424
	c-0.321,18.302,16.704,35.484,35.485,35.814c20.624,0.363,36.472-14.295,36.732-33.973
	C330.657,275.673,315.353,258.962,295.34,258.15z M268.495,386.236c0.466,13.875,13.036,27.266,26.191,27.389
	c13.362,0.125,27.736-14.779,27.463-28.474c-0.269-13.436-14.09-26.543-27.607-26.18
	C278.943,360.499,268.017,372.025,268.495,386.236z M203.988,359.16c-14.151-0.084-27.029,13.452-26.722,26.882
	c0.308,13.497,14.3,27.592,27.382,27.583c13.543-0.009,26.436-13.914,26.23-28.288C231.2,370.808,218.902,359.249,203.988,359.16z
	 M204.387,85.797c-13.229,0.307-26.988,14.432-27.124,27.846c-0.135,13.365,13.119,27.009,26.985,26.651
	c15.106-0.39,27.035-11.949,26.643-26.469C230.972,99.53,217.694,85.488,204.387,85.797z M294.72,140.328
	c13.594,0.752,27.275-12.81,27.432-26.222c0.159-13.625-14.507-28.65-27.63-28.305c-13.246,0.348-25.85,13.719-25.983,27.564
	C267.921,127.689,279.256,139.473,294.72,140.328z M140.353,204.717c0.737-13.546-12.895-27.293-26.248-27.444
	c-13.702-0.156-28.639,14.425-28.309,27.633c0.332,13.284,13.691,25.865,27.593,25.985
	C127.681,231.402,139.508,220.257,140.353,204.717z M413.629,204.79c0.178-13.277-14.773-27.75-28.425-27.516
	c-13.37,0.229-26.998,14.112-26.145,27.563c0.994,15.684,12.917,26.636,27.1,26.047C400.024,230.707,413.452,217.951,413.629,204.79
	z M85.793,295.011c0.308,13.296,14.347,26.992,27.829,27.15c13.372,0.156,26.99-13.036,26.688-26.971
	c-0.328-15.133-11.906-26.937-26.439-26.658C99.575,268.417,85.485,281.705,85.793,295.011z M359.112,295.185
	c-0.317,13.913,13.32,27.131,26.689,26.975c13.48-0.157,27.514-13.845,27.83-27.143c0.317-13.299-13.78-26.598-28.074-26.486
	C371.03,268.252,359.457,280.036,359.112,295.185z M475.878,313.548c7.431,0.089,18.353-10.493,18.548-17.969
	c0.213-8.184-9.543-18.148-17.986-18.371c-9.366-0.247-16.702,7.529-16.764,17.77C459.616,304.656,467.286,313.445,475.878,313.548z
	 M23.268,277.209c-8.38-0.002-18.366,9.884-18.267,18.084c0.092,7.649,10.503,18.044,18.269,18.24
	c8.484,0.214,16.469-8.641,16.479-18.274C39.759,284.878,32.759,277.212,23.268,277.209z M475.992,185.879
	c-8.876-0.029-16.614,9.184-16.316,19.428c0.279,9.604,7.601,17.043,16.643,16.909c8.403-0.125,18.273-10.072,18.106-18.247
	C494.27,196.443,483.531,185.904,475.992,185.879z M22.992,185.908c-8.023,0.506-18.009,10.774-17.991,18.499
	c0.019,8.121,10.332,18.025,18.544,17.808c9.558-0.253,16.286-7.862,16.203-18.326C39.674,194.374,31.296,185.384,22.992,185.908z
	 M313.54,23.383c-0.088-7.516-10.691-18.255-18.151-18.384c-8.123-0.141-18.162,9.892-18.192,18.181
	c-0.034,9.491,7.58,16.507,17.979,16.568C304.788,39.804,313.64,31.915,313.54,23.383z M222.226,22.998
	c-0.166-7.92-9.726-17.811-17.394-17.995c-8.068-0.194-19.054,10.57-18.95,18.566c0.108,8.25,8.59,16.059,17.572,16.176
	C214.444,39.889,222.43,32.764,222.226,22.998z M185.896,475.77c-0.18,7.378,10.39,18.411,17.874,18.655
	c8.164,0.267,18.209-9.483,18.455-17.914c0.274-9.381-7.432-16.707-17.71-16.834C194.828,459.556,186.108,467.093,185.896,475.77z
	 M313.522,476.315c0.402-8.418-8.516-16.63-18.067-16.638c-10.471-0.009-18.038,6.742-18.259,16.286
	c-0.189,8.194,9.794,18.485,17.91,18.46C302.732,494.4,313.148,484.158,313.522,476.315z"/>
</svg>
