<?xml version="1.0" encoding="iso-8859-1"?>
<!-- Generator: Adobe Illustrator 19.0.0, SVG Export Plug-In . SVG Version: 6.00 Build 0)  -->
<svg version="1.1" id="Layer_1" xmlns="http://www.w3.org/2000/svg" xmlns:xlink="http://www.w3.org/1999/xlink" x="0px" y="0px"
	 viewBox="0 0 500 500" enable-background="new 0 0 500 500" xml:space="preserve">
<path d="M249.171,8.949c57.433,33.112,114.611,66.078,172.267,99.319c8.907-10.947,20.715-14.882,33.277-14.339
	c12.652,0.547,23.924,5.843,31.6,16.784c12.317,17.556,13.1,47.16-16.928,63.855c0,51.75,0,103.447,0,155.24
	c14.659,6.467,24.495,17.03,24.495,40.973c-0.183,18.294-10.338,29.401-26.089,36.237c-15.192,6.593-29.034,2.97-41.743-6.718
	c-1.806-1.377-3.495-2.908-5.672-4.73c-6.56,3.665-13.163,7.293-19.708,11.022c-18.693,10.651-37.417,21.248-56.025,32.046
	c-17.559,10.19-34.948,20.674-52.484,30.904c-12.896,7.524-25.969,14.743-38.826,22.33c-3.511,2.072-6.26,0.982-9.2-0.706
	c-12.325-7.078-24.638-14.177-36.964-21.252c-24.193-13.885-48.421-27.71-72.58-41.654c-16.665-9.619-33.227-19.416-49.865-29.082
	c-2.15-1.249-4.482-2.186-7.332-3.559c-10.374,13.544-24.787,16.274-40.198,14.31c-10.714-1.366-19.506-7.672-25.503-16.434
	c-7.428-10.851-10.005-23.18-5.975-36.155c3.821-12.304,12.028-20.997,23.814-27.291c-0.734-0.574-1.834-1.395-1.814-1.423
	c4.754-6.712,1.738-14.221,1.787-21.227c0.276-39.5-0.012-79.004-0.103-118.506c-0.013-5.486-0.002-10.972-0.002-16.176
	c-18.468-9.695-27.56-24.395-24.968-44.172c2.442-18.632,13.84-30.497,32.372-35.479c13.196-3.548,30.088,1.814,41.35,14.445
	C134.746,74.896,191.491,42.192,249.171,8.949z M436.96,174.713c-3.461-2.777-6.864-5.181-11.116-3.065
	c-5.149,2.563-10.11,5.514-15.08,8.422c-15.749,9.216-31.42,18.568-47.204,27.724c-22.819,13.237-45.691,26.382-68.593,39.474
	c-3.2,1.829-4.907,4.095-4.727,7.898c0.35,7.406-2.633,14.104-6.632,19.764c-19.082,27.013-58.737,22.846-72.267-6.128
	c-2.787-5.968-3.307-12.993-4.912-19.698c-1.777-0.966-4.022-2.11-6.194-3.38c-10.733-6.275-21.415-12.637-32.174-18.868
	c-19.509-11.299-39.067-22.514-58.591-33.788c-11.603-6.701-23.179-13.449-34.768-20.174c-4.608-2.674-9.17-4.146-13.683,0.605
	c0,52.165,0,104.372,0,156.437c10.451,5.603,16.396,10.448,20.42,17.61c6.648,11.831,6.619,24.514,3.369,37.619
	c52.612,30.382,104.775,60.504,158.032,91.258c0-4.213,0-6.98,0-9.747c0-39.013-0.004-78.026,0.01-117.039
	c0.001-2.289-0.157-4.641,0.299-6.852c0.651-3.155,2.877-4.596,6.178-4.384c3.226,0.207,5.347,1.626,5.648,4.99
	c0.181,2.025,0.102,4.076,0.103,6.115c0.004,39.268,0.003,78.536,0.003,117.804c0,2.68,0,5.361,0,9.417
	c53.704-31.044,106.024-61.288,158.514-91.629c-2.617-11.275-3.91-21.74,0.659-32.442c4.619-10.82,12.192-18.074,22.706-22.764
	C436.96,278.03,436.96,226.332,436.96,174.713z M277.343,220.015c2.661-1.032,5.177-1.663,7.343-2.903
	c16.91-9.678,33.755-19.471,50.617-29.233c23.447-13.575,46.834-27.254,70.393-40.631c3.811-2.164,5.514-4.525,5.551-8.906
	c0.04-4.751,0.249-9.726,1.691-14.18c1.52-4.694,0.086-7.031-3.71-9.163c-18.749-10.531-37.528-21.012-56.157-31.753
	c-30.728-17.716-61.345-35.626-92.03-53.418c-1.453-0.842-3.108-1.336-5.915-2.515c0,45.932,0,90.854,0,135.47
	c-10.263,2.868-12.107,1.561-12.279-7.697c-0.033-1.783-0.009-3.568-0.006-5.352c0.075-37.207,0.163-74.414,0.207-111.622
	c0.004-3.367-0.274-6.735-0.465-11.124C230.277,33.91,219.205,40,208.269,46.325c-14.648,8.472-29.146,17.204-43.789,25.685
	c-24.965,14.459-50.023,28.756-74.931,43.312c-1.874,1.095-4.097,3.744-4.043,5.61c0.217,7.532,1.264,15.041,2.048,23.008
	c44.168,25.522,88.583,51.188,132.766,76.719C239.652,206.502,258.303,206.763,277.343,220.015z"/>
</svg>
