<?xml version="1.0" encoding="iso-8859-1"?>
<!-- Generator: Adobe Illustrator 19.0.0, SVG Export Plug-In . SVG Version: 6.00 Build 0)  -->
<svg version="1.1" id="Layer_1" xmlns="http://www.w3.org/2000/svg" xmlns:xlink="http://www.w3.org/1999/xlink" x="0px" y="0px"
	 viewBox="0 0 2000 2000" style="enable-background:new 0 0 2000 2000;" xml:space="preserve">
<path d="M999.678,1980.619c-541.322-0.339-979.477-439.417-978.897-980.961c0.578-539.962,438.587-977.72,979.403-978.842
	c542.957-1.126,981.446,438.459,980.536,982.987C1979.818,1543.422,1540.389,1980.958,999.678,1980.619z M1000.82,56.23
	C478.619,58.065,57.546,472.614,55.756,997.816c-1.795,526.585,420.569,951.375,951.464,947.715
	c519.706-3.583,937.773-418.486,937.791-944.573C1945.028,473.038,1521.329,57.721,1000.82,56.23z M1001.195,1881.729
	c-480.699,5.374-883.488-396.585-882.185-883.647c1.279-478.096,397.239-879.705,884.26-878.55
	c481.309,1.141,879.307,398.265,878.552,882.234C1881.066,1485.838,1481.987,1885.587,1001.195,1881.729z M1163.785,1249.696
	c0.477-5.75,1.001-9.134,1.002-12.518c0.044-169.236,0.077-338.472-0.095-507.708c-0.006-5.93-0.652-12.676-3.455-17.661
	c-26.062-46.341-52.662-92.379-78.661-137.729c-55.648,0-109.593,0-164.06,0c-26.423,45.993-52.752,91.467-78.552,137.239
	c-2.799,4.966-3.552,11.653-3.559,17.544c-0.187,168.551-0.174,337.102-0.084,505.653c0.003,5.138,1.172,10.275,1.768,15.18
	C947.236,1249.696,1054.609,1249.696,1163.785,1249.696z M1235.223,1249.427c110.418,0,218.297,0,327.304,0
	c0.487-5.578,1.237-10.178,1.239-14.778c0.058-168.526,0.082-337.052-0.105-505.577c-0.007-5.912-0.787-12.626-3.608-17.607
	c-26.172-46.216-52.87-92.133-78.914-137.267c-55.607,0-109.515,0-163.921,0c-24.461,42.461-48.431,84.517-72.918,126.27
	c-6.421,10.949-9.333,21.929-9.307,34.759c0.337,163.044,0.227,326.09,0.23,489.135
	C1235.223,1231.854,1235.223,1239.347,1235.223,1249.427z M520.483,573.653c-26.512,45.907-53.335,91.774-79.346,138.097
	c-3.391,6.039-3.593,14.425-3.602,21.726c-0.2,165.856-0.18,331.713-0.126,497.57c0.002,5.945,0.762,11.889,1.229,18.708
	c109.272,0,217.184,0,327.282,0c0-8.531,0-15.875,0-23.22c0.01-154.891-0.678-309.789,0.611-464.669
	c0.261-31.34-5.801-58.347-22.798-84.682c-21.749-33.699-40.71-69.196-60.647-103.529
	C628.268,573.653,574.863,573.653,520.483,573.653z M510.831,1427.098c8.377,0,15.618,0,22.569,0
	c13.589-29.297,26.65-57.456,39.711-85.615c1.572,0.532,3.143,1.065,4.715,1.597c0,27.855,0,55.71,0,83.986
	c9.948,0,18.355,0,26.543,0c0-42.686,0-84.01,0-125.412c-16.593,0-31.552,0-46.439,0c-11.661,26.45-23.037,52.253-36.144,81.984
	c-13.331-30.308-24.752-56.277-35.619-80.983c-17.212,0-32.552,0-47.537,0c0,42.476,0,83.292,0,124.171c9.69,0,18.053,0,28.269,0
	c0-29.703,0-57.894,0-86.086c1.381-0.337,2.762-0.674,4.143-1.011C484.364,1368.978,497.684,1398.228,510.831,1427.098z
	 M1533.392,1301.841c0,30.089,0,58.618,0,87.147c-1.281,0.177-2.562,0.355-3.843,0.532c-18.968-29.631-37.935-59.262-55.951-87.405
	c-17.314,0-32.126,0-47.491,0c0,42.41,0,83.685,0,124.855c9.991,0,18.506,0,29.357,0c0-29.997,0-58.588,0-87.178
	c1.137-0.185,2.275-0.37,3.412-0.556c19.09,29.636,38.179,59.272,56.353,87.486c17.126,0,32.434,0,47.446,0
	c0-42.479,0-83.258,0-124.88C1553.549,1301.841,1545.572,1301.841,1533.392,1301.841z M885.5,1341.337
	c0.065-34.679-5.463-40.297-37.664-40.328c-19.148-0.019-38.302-0.301-57.441,0.089c-19.134,0.39-31.525,11.302-32.219,29.633
	c-0.828,21.849-0.96,43.798,0.147,65.626c1.002,19.761,11.966,30.997,30.624,31.705c23.215,0.881,46.522,0.866,69.726-0.169
	c10.812-0.483,22.931-3.799,26.079-16.061c4.693-18.283,7.642-37.117,2.149-55.784c-22.683,0-44.266,0-65.681,0
	c0,8.33,0,15.366,0,24.001c12.898,0,24.244,0,35.132,0c3.364,10.675-0.672,17.722-9.001,18.257
	c-18.692,1.202-37.963,4.929-57.461-4.79c-3.066-21.599-9.773-43.274,5.843-62.992c19.979,0,38.316,0,56.34,0
	c3.414,4.187,6.331,7.766,8.815,10.812C869.26,1341.337,876.631,1341.337,885.5,1341.337z M1285.791,1301.011
	c-12.297,0-24.601-0.263-36.889,0.061c-19.033,0.502-29.543,9.861-30.146,28.371c-0.732,22.505-0.666,45.069,0.023,67.578
	c0.519,16.959,6.76,26.552,23.466,27.953c28.275,2.372,56.887,1.914,85.303,0.985c17.047-0.557,25.192-13.294,25.985-28.841
	c1.146-22.474,1.579-45.165-0.241-67.556c-1.657-20.38-12.298-28.222-32.661-28.525
	C1309.021,1300.865,1297.405,1301.006,1285.791,1301.011z M655.872,1329.647c27.606,0,53.356,0,79.676,0c0-10.467,0-18.874,0-27.779
	c-36.674,0-72.008,0-108.053,0c0,42.399,0,83.756,0,125.146c37.157,0,73.064,0,108.239,0c0-9.993,0-18.48,0-28.811
	c-27.328,0-53.106,0-80.648,0c0.474-8.374,0.835-14.748,1.316-23.237c26.207,0,50.557,0,76.407,0
	c-0.615-8.73-1.066-15.121-1.673-23.729c-25.941,0-50.262,0-75.264,0C655.872,1343.596,655.872,1338.309,655.872,1329.647z
	 M1162.342,1396.157c-6.116,1.007-13.324,3.029-20.588,3.255c-45.588,1.415-47.319-0.532-46.669-46.066
	c0.131-9.164-0.046-17.992,10.057-22.842c18.161,0,36.565,0,55.264,0c2.839,5.028,5.424,9.604,7.882,13.958
	c8.452,0,16.369,0,24.116,0c2.873-28.318,2.001-30.678-16.013-43.444c-24.674,0-50.021-0.333-75.356,0.1
	c-22.314,0.381-34.054,12.06-34.576,34.134c-0.437,18.488-0.334,36.999-0.006,55.492c0.433,24.408,12.125,36.607,36.413,37.444
	c17.793,0.614,35.623,0.23,53.437,0.162c33.599-0.127,44.419-13.344,38.784-48.189c-7.908,0-15.956,0-24.897,0
	C1167.974,1384.679,1165.63,1389.455,1162.342,1396.157z M1050.815,1427.583c-18.56-42.984-36.483-84.495-54.361-125.9
	c-14.307,0-27.163,0-41.095,0c-17.654,41.806-35.227,83.419-53.078,125.69c11.984,0,21.981,0,31.425,0
	c4.261-8.223,7.967-15.375,11.819-22.811c21.046,0,41.399,0,62.187,0c4.096,7.995,8.038,15.69,11.793,23.021
	C1029.939,1427.583,1039.305,1427.583,1050.815,1427.583z M1375.657,1302.066c0,42.444,0,83.694,0,124.754
	c9.793,0,18.179,0,26.713,0c0-42.268,0-82.991,0-124.754C1393.454,1302.066,1385.496,1302.066,1375.657,1302.066z
	 M1321.202,1392.505c5.275-20.341,9.35-41.143-4.656-62.703c-23.237,2.917-47.207-6.971-68.848,7.236c0,18.985,0,36.021,0,53.589
	C1266.878,1402.432,1296.799,1403.02,1321.202,1392.505z M973.759,1333.203c-5.877,14.615-11.754,29.23-17.914,44.549
	c14.653,0,27.155,0,41.414,0c-6.859-16.027-12.928-30.208-18.997-44.388C976.761,1333.31,975.26,1333.257,973.759,1333.203z"/>
</svg>
