<?xml version="1.0" encoding="iso-8859-1"?>
<!-- Generator: Adobe Illustrator 19.0.0, SVG Export Plug-In . SVG Version: 6.00 Build 0)  -->
<svg version="1.1" id="Layer_1" xmlns="http://www.w3.org/2000/svg" xmlns:xlink="http://www.w3.org/1999/xlink" x="0px" y="0px"
	 viewBox="0 0 500 500" style="enable-background:new 0 0 500 500;" xml:space="preserve">
<path d="M463.589,126.219c0,83.869,0,164.044,0,245.084c-22.644,13.022-45.093,25.931-70.424,40.498c0-54.523,0-105.967,0-161.137
	c-49.347,26.514-93.832,54.46-141.062,80.154c-45.613-26.189-91.294-52.418-138.676-79.623c-3.966,18.891-1.483,35.942-1.926,52.789
	c-0.469,17.836-0.105,35.693-0.105,53.541c0,17.07,0,34.14,0,54.223c-25.438-14.647-47.928-27.595-70.574-40.634
	c0-81.025,0-161.173,0-244.122c37.088,19.138,70.863,40.23,105.437,59.833c34.872,19.771,69.481,40.004,105.965,61.049
	C321.512,207.993,391.212,167.876,463.589,126.219z M310.387,385.934c-19.63,11.196-38.46,21.935-57.974,33.065
	c-19.239-10.801-38.558-21.648-58.264-32.711c-20.441,11.841-40.343,23.369-63.266,36.648
	c42.623,24.61,81.935,47.307,121.349,70.064c40.222-23.184,79.185-45.643,121.694-70.145
	C350.622,409.314,330.578,397.667,310.387,385.934z M252.343,78.387c19.986,11.3,38.839,21.959,58.1,32.849
	c20.415-11.892,40.384-23.523,63.141-36.78c-42.173-24.377-81.472-47.093-121.178-70.045c-39.882,23.047-79.15,45.74-121.432,70.174
	c22.614,13.293,42.113,24.755,63.013,37.041C214.088,100.176,233.336,89.213,252.343,78.387z"/>
</svg>
