<?xml version="1.0" encoding="iso-8859-1"?>
<!-- Generator: Adobe Illustrator 19.0.0, SVG Export Plug-In . SVG Version: 6.00 Build 0)  -->
<svg version="1.1" id="Layer_1" xmlns="http://www.w3.org/2000/svg" xmlns:xlink="http://www.w3.org/1999/xlink" x="0px" y="0px"
	 viewBox="0 0 500 500" enable-background="new 0 0 500 500" xml:space="preserve">
<path d="M249.145,88.337c1.986-2.605,3.711-4.889,5.457-7.157c5.719-7.429,11.898-14.448,19.178-20.388
	c5.733-4.678,11.481-9.376,17.549-13.597c7.727-5.374,16.148-9.575,25.169-12.355c6.482-1.997,13.037-3.824,19.655-5.293
	c3.68-0.817,7.551-0.838,11.346-1.051c4.529-0.254,9.074-0.57,13.6-0.432c9.508,0.29,18.936,1.553,27.959,4.599
	c6.85,2.313,13.724,4.844,20.095,8.211c6.378,3.371,12.289,7.702,18.131,11.986c4.088,2.998,7.904,6.433,11.508,10.009
	c7.026,6.971,13.162,14.715,18.971,22.731c5.864,8.092,10.902,16.67,15.336,25.599c6.654,13.401,11.519,27.473,14.859,42.033
	c1.672,7.289,2.825,14.709,3.918,22.114c0.648,4.387,0.852,8.853,1.026,13.293c0.347,8.849,0.815,17.707,0.694,26.555
	c-0.087,6.378-0.982,12.751-1.631,19.114c-0.549,5.38-1.144,10.761-1.941,16.109c-0.679,4.562-1.404,9.148-2.583,13.598
	c-2.71,10.228-5.432,20.469-8.684,30.532c-2.332,7.216-5.339,14.236-8.393,21.19c-2.817,6.415-6.067,12.642-9.226,18.901
	c-0.315,0.624-1.326,1.276-2.015,1.277c-40.41,0.057-80.82,0.047-121.229,0.04c-0.14,0-0.28-0.036-0.625-0.082
	c-2.338-5.824-4.705-11.746-7.092-17.66c-2.926-7.249-5.789-14.526-8.829-21.727c-2.962-7.016-5.992-14.008-9.223-20.902
	c-2.157-4.603-5.322-8.163-10.642-9.555c-6.939-1.816-13.442,0.982-17.656,6.095c-3.239,3.929-4.603,8.675-6.35,13.264
	c-3.497,9.187-6.929,18.399-10.379,27.604c-4.095,10.927-8.164,21.863-12.278,32.782c-1.506,3.997-3.11,7.957-5.227,11.965
	c-0.758-2.79-1.559-5.569-2.267-8.371c-2.091-8.274-4.195-16.545-6.201-24.84c-2.04-8.44-3.934-16.916-5.956-25.361
	c-2.3-9.606-4.64-19.203-7.022-28.789c-2.009-8.087-3.802-16.246-6.239-24.205c-2.645-8.641-12.718-14.349-21.267-11.442
	c-5.6,1.904-9.524,5.998-11.318,11.792c-3.977,12.844-7.927,25.696-11.824,38.564c-2.885,9.527-5.71,19.073-8.486,28.633
	c-2.266,7.805-4.444,15.636-6.605,23.471c-0.506,1.834-1.201,3.034-3.458,2.702c-1.604-0.236-3.272-0.052-4.911-0.045
	c-37.101,0.168-74.202,0.324-111.303,0.547c-1.737,0.01-2.618-0.532-3.378-2.067c-3.267-6.61-6.864-13.063-9.959-19.75
	c-2.986-6.451-5.897-12.989-8.135-19.723c-3.56-10.707-6.722-21.558-9.675-32.451c-1.459-5.384-2.154-10.985-3.05-16.511
	c-0.909-5.606-1.675-11.237-2.431-16.866c-0.272-2.024-0.436-4.075-0.476-6.116c-0.221-11.293-0.581-22.588-0.494-33.879
	c0.045-5.824,0.654-11.68,1.478-17.454c1.553-10.875,3.451-21.69,6.582-32.264c2.96-9.995,6.487-19.739,10.895-29.202
	c4.19-8.996,9.076-17.576,14.696-25.71c3.879-5.615,8.228-10.919,12.568-16.197c3.053-3.713,6.235-7.368,9.724-10.663
	c7.605-7.183,15.724-13.729,24.867-18.943c9.742-5.555,20.051-9.634,30.996-11.943c5.201-1.097,10.538-1.643,15.841-2.127
	c4.439-0.405,8.925-0.579,13.38-0.466c9.295,0.237,18.455,1.582,27.443,4.029c8.243,2.244,16.328,5.049,23.717,9.287
	c7.073,4.057,13.993,8.522,20.414,13.534c6.35,4.956,12.285,10.538,17.852,16.37c4.652,4.873,8.511,10.504,12.715,15.804
	C248.57,87.41,248.775,87.778,249.145,88.337z M52.759,176.129c0.125,2.133,0.202,5.672,0.568,9.18
	c0.696,6.666,1.486,13.324,2.376,19.966c0.609,4.545,1.407,9.066,2.207,13.583c0.627,3.546,1.409,7.065,2.075,10.604
	c0.285,1.516,0.998,2.029,2.549,1.596c1.493-0.418,3.053-0.596,4.581-0.894c1.124-0.22,1.911-0.622,1.977-2.043
	c0.127-2.759,0.324-5.531,0.75-8.257c1.135-7.265,1.989-14.611,3.725-21.737c2.383-9.781,5.301-19.443,9.576-28.628
	c2.64-5.672,4.822-11.578,7.754-17.089c3.229-6.068,6.969-11.878,10.703-17.66c3.013-4.667,6.197-9.243,9.582-13.646
	c3.763-4.895,7.641-9.733,11.825-14.267c7.426-8.048,15.545-15.372,24.348-21.92c0.543-0.404,1.109-1.273,1.066-1.883
	c-0.199-2.811-0.556-5.616-0.999-8.401c-0.072-0.45-0.919-1.171-1.318-1.116c-6.992,0.96-14.027,1.742-20.931,3.156
	c-4.691,0.961-9.364,2.455-13.737,4.403c-5.596,2.493-11.087,5.363-16.233,8.677c-3.884,2.501-7.221,5.881-10.684,9
	c-6.748,6.079-12.107,13.347-16.933,20.952c-2.666,4.202-4.826,8.8-6.651,13.441c-2.226,5.659-4.15,11.475-5.68,17.359
	C53.196,158.416,52.853,166.574,52.759,176.129z M79.09,393.023c7.546,7.719,15.289,15.284,23.399,22.401
	c7.353,6.453,15.257,12.286,23.013,18.269c9.915,7.648,20.51,14.309,31.694,19.872c8.563,4.259,17.474,7.88,26.418,11.292
	c9.168,3.497,18.667,6,28.387,7.566c3.728,0.601,7.437,1.324,11.16,1.958c2.979,0.507,5.983,1.453,8.949,1.357
	c12.271-0.395,24.59,1.286,36.823-0.849c2.695-0.47,5.45-0.586,8.158-0.995c5.265-0.794,10.615-1.295,15.751-2.614
	c8.476-2.177,16.904-4.632,25.179-7.474c9.548-3.279,18.766-7.428,27.545-12.462c4.892-2.805,9.913-5.449,14.52-8.673
	c9.29-6.502,18.436-13.223,27.448-20.107c5.381-4.11,10.628-8.455,15.525-13.125c10.015-9.552,19.742-19.406,28.395-30.249
	c1.942-2.433,3.822-4.915,5.776-7.434c-5.941-0.239-11.599-0.606-17.26-0.669c-19.782-0.222-39.565-0.262-59.346-0.522
	c-13.271-0.174-26.541-0.532-39.806-0.96c-4.284-0.138-7.768-2.116-9.567-6.176c-3.542-7.992-6.916-16.059-10.384-24.085
	c-0.899-2.08-1.886-4.122-3.004-6.555c-0.582,0.944-0.956,1.376-1.143,1.878c-3.532,9.483-7.051,18.971-10.553,28.465
	c-2.944,7.98-5.807,15.991-8.81,23.949c-4.617,12.234-9.301,24.442-14.01,36.641c-1.041,2.696-1.731,5.825-3.573,7.856
	c-4.44,4.896-10.08,7.683-16.979,6.219c-5.635-1.196-10.141-4.549-11.907-9.847c-3.134-9.407-5.438-19.096-7.931-28.708
	c-1.651-6.368-3.002-12.815-4.531-19.215c-2.375-9.944-4.741-19.89-7.199-29.814c-2.279-9.206-4.673-18.384-7.092-27.87
	c-0.456,0.73-0.895,1.204-1.078,1.762c-1.486,4.539-2.944,9.087-4.372,13.645c-2.833,9.038-5.481,18.139-8.54,27.101
	c-1.262,3.699-3.53,7.199-7.484,8.488c-3.088,1.006-6.456,1.396-9.724,1.557c-7.09,0.351-14.194,0.473-21.294,0.527
	c-28.542,0.217-57.085,0.373-85.627,0.553c-0.351,0.002-0.702,0.034-1.597,0.079C69.489,381.968,73.981,387.797,79.09,393.023z"/>
</svg>
