<?xml version="1.0" encoding="iso-8859-1"?>
<!-- Generator: Adobe Illustrator 19.0.0, SVG Export Plug-In . SVG Version: 6.00 Build 0)  -->
<svg version="1.1" id="Layer_1" xmlns="http://www.w3.org/2000/svg" xmlns:xlink="http://www.w3.org/1999/xlink" x="0px" y="0px"
	 viewBox="0 0 2000 2000" style="enable-background:new 0 0 2000 2000;" xml:space="preserve">
<path d="M1939.912,630.252c-123.7,122.38-247.293,244.654-375.114,371.111c126.378,124.771,250.874,247.684,373.638,368.887
	c-141.238,378.416-569.384,672.809-1050.928,598.724c-484.161-74.488-830.265-474.996-832.74-964.977
	C52.367,528.384,377.729,117.17,870.81,31.999C1343.248-49.607,1769.811,214.84,1939.912,630.252z M1720.727,594.141
	c-179.413-313.261-559.569-462.566-909.079-362.515c-304.987,87.305-604.195,381.905-570.98,840.888
	c24.344,336.398,279.852,654.209,671.906,716.418c317.389,50.362,647.929-101.08,798.176-371.495
	c-94.625-94.867-187.274-187.752-285.788-286.517c-37.316,39.874-76.369,85.116-119.104,126.561
	c-97.829,94.877-212.31,139.443-350.306,111.455c-159.999-32.45-288.348-172.457-300.58-330.41
	c-13.415-173.229,81.225-327.884,237.909-387.727c156.231-59.67,292.116-21.581,410.779,89.376
	c45.305,42.363,86.747,88.856,132.933,136.546c75.34-76.402,144.512-146.979,214.237-217.006
	C1672.956,637.493,1696.554,616.735,1720.727,594.141z M1298.162,1004.428c-48.647-51.975-91.39-102.441-139.26-147.453
	c-49.255-46.315-108.693-63.379-177.09-45.523c-77.445,20.218-134.005,83.286-147.394,169.615
	c-10.627,68.518,35.317,153.484,103.406,191.235c65.949,36.564,158.598,28.845,214.62-22.614
	C1204.183,1102.163,1252.177,1050.563,1298.162,1004.428z"/>
</svg>
