<?xml version="1.0" encoding="iso-8859-1"?>
<!-- Generator: Adobe Illustrator 19.0.0, SVG Export Plug-In . SVG Version: 6.00 Build 0)  -->
<svg version="1.1" id="Layer_1" xmlns="http://www.w3.org/2000/svg" xmlns:xlink="http://www.w3.org/1999/xlink" x="0px" y="0px"
	 viewBox="0 0 500 500" enable-background="new 0 0 500 500" xml:space="preserve">
<path d="M298.277,218.792c-16.527,26.183-32.44,51.394-49.108,77.801c-17.306-25.97-32.582-51.887-49.773-78.172
	c-1.332,3.254-2.451,5.635-3.297,8.11c-17.576,51.392-35.225,102.76-52.637,154.207c-12.84,37.939-0.467,78.741,31.767,101.675
	c1.607,1.143,3.579,1.954,4.797,3.408c1.095,1.308,1.385,3.289,2.03,4.974c-1.688,0.522-3.663,1.889-5.017,1.429
	c-8.976-3.051-18.11-5.878-26.66-9.907C79.99,449.149,33.875,395.256,13.151,320.083c-6.065-22.002-7.507-44.599-7.083-67.353
	c0.846-45.432,14.011-87.063,38.467-125.224c1.523-2.376,3.392-4.531,5.428-7.222c3.426,3.682,0.97,6.069-0.248,8.365
	C42,143.198,36.117,158.441,32.097,174.407c-6.784,26.942-9.621,54.036-6.17,81.901c2.887,23.312,8.774,45.554,18.152,66.975
	c1.051,2.401,2.45,4.653,3.454,7.072c6.349,15.289,31.406,19.493,42.266,0.445c4.716-8.272,9.023-16.779,13.481-25.197
	c25.344-47.866,50.626-95.764,76.105-143.557c2.147-4.027,2.999-7.336,1.486-11.921c-2.963-8.979-5.029-18.255-7.412-27.422
	c-0.389-1.495-0.498-3.062,0.445-5.163c24.654,31.477,49.309,62.954,74.78,95.473c25.754-31.781,49.736-63.953,76.319-94.476
	c-2.315,9.083-3.929,18.424-7.157,27.17c-2.794,7.567-1.221,13.4,2.382,20.135c28.955,54.136,57.614,108.43,86.262,162.729
	c5.03,9.535,12.806,16.789,27.295,14.252c8.229-1.441,13.567-6.434,16.981-13.596c8.489-17.806,14.804-36.38,18.295-55.814
	c2.675-14.888,4.489-29.892,4.021-45.083c-1.065-34.558-8.755-67.46-24.396-98.412c-1.4-2.771-4.19-5.237-2.351-10.162
	c2.023,1.998,4.023,3.393,5.263,5.286c16.68,25.477,28.755,52.988,35.154,82.782c4.212,19.614,6.893,39.54,5.865,59.648
	c-3.249,63.573-26.43,118.638-71.452,164.022c-27.784,28.007-60.58,47.984-98.144,60.171c-3.591,1.165-6.243,1.802-8.197-3.056
	c1.889-1.518,3.756-3.226,5.822-4.646c18.973-13.043,31.069-30.71,36.588-53.102c3.964-16.083,3.39-31.909-1.852-47.478
	c-18.067-53.655-36.315-107.248-54.53-160.853C300.557,221.671,299.798,220.97,298.277,218.792z M248.384,16.665
	c15.11-0.114,31.975,7.305,40.535,32.291c0.323-17.269-7.092-28.866-19.469-36.527c-14.245-8.817-29.427-8.329-43.514,1.269
	c-11.482,7.823-17.502,18.808-17.524,34.831C216.956,24.644,232.686,16.784,248.384,16.665z"/>
</svg>
