<?xml version="1.0" encoding="utf-8"?>
<!-- Generator: Adobe Illustrator 25.1.0, SVG Export Plug-In . SVG Version: 6.00 Build 0)  -->
<svg version="1.1" id="Layer_1" xmlns="http://www.w3.org/2000/svg" xmlns:xlink="http://www.w3.org/1999/xlink" x="0px" y="0px"
	 viewBox="0 0 500 500" style="enable-background:new 0 0 500 500;" xml:space="preserve">
<path d="M252.8,3C116,2,5.2,111.1,4.2,247.9c-1,135.2,109.2,246,245.5,246.8c134.7,0.8,245.5-109.3,246.3-244.7
	C496.8,115.2,387.3,4,252.8,3z M372,315.2c0,6.2-2.5,11.5-6.4,14.5c-2.3,1.8-5.1,2.8-8.2,2.8c-8.5-0.1-14.3-7.2-14.4-17.5
	c0-6.7,0-13.4,0-20.1c0,0,0,0,0,0c0,0,0,0,0,0c0-6.7,0-13.4,0-20.1c0-5.7,0-11.4,0-17.1c0-7.1,0-14.1,0-21.2
	c-0.1-21.6-16.6-38.4-37.6-38.5c-10.3-0.1-19.6,3.5-26.6,9.6c-7.9,6.9-12.9,16.9-13,28.4c-0.2,25.1-0.1,50.3-0.1,75.4
	c0,1.9,0,3.7,0,5.6c-0.2,6.4-3.9,12-9,14.4c-1.7,0.8-3.5,1.3-5.4,1.3c-7.7,0-14.3-6.9-14.5-15.6c-0.2-7.6-0.1-15.2-0.1-22.9
	c0-19,0.1-37.9,0-56.9c-0.1-22.6-16.2-39.3-38-39.3c-7.6,0-14.6,2-20.6,5.6c-11.3,6.8-18.7,19.3-18.8,34.1
	c-0.1,26.4-0.1,52.8,0,79.1c0,4.6-1.5,8.4-4.4,11.3c-1,1-2.1,1.8-3.3,2.6c-4.3,2.6-9.2,2.3-13.5-0.5c-4.7-3.1-7.8-7.5-7.8-13.3
	c-0.1-27.8-0.9-55.7,0.2-83.5c1-23.9,15.1-44.6,35-55.7c10.4-5.8,22.4-9,34.9-8.7c18.5,0.5,34.4,7.9,46.8,21.8c2.4,2.7,4,3.3,6,2
	c0.7-0.4,1.4-1.1,2.2-1.9c3.5-3.7,7.1-6.9,11-9.6c11.6-8.3,25-12.5,40.2-12.4c31.2,0.4,60.2,25.7,63.9,56.6
	c1.7,14.4,1.2,29.2,1.4,43.8C372.2,284.7,372.1,299.9,372,315.2z"/>
</svg>
