<?xml version="1.0" encoding="iso-8859-1"?>
<!-- Generator: Adobe Illustrator 19.0.0, SVG Export Plug-In . SVG Version: 6.00 Build 0)  -->
<svg version="1.1" id="Layer_1" xmlns="http://www.w3.org/2000/svg" xmlns:xlink="http://www.w3.org/1999/xlink" x="0px" y="0px"
	 viewBox="0 0 2000 2000" style="enable-background:new 0 0 2000 2000;" xml:space="preserve">
<path d="M675.466,856.43c-22.759-38.454-42.563-71.914-62.367-105.375c-2.708,1.133-5.415,2.267-8.123,3.4
	c-28.334,95.362-56.667,190.724-86.273,290.367c101.948,26.885,198.765,52.418,295.583,77.951c1.743-2.127,3.487-4.254,5.23-6.381
	c-18.54-33.861-37.08-67.721-61.334-112.018c5.801-2.483,14.032-5.191,21.48-9.314c146.937-81.347,292.323-165.654,441.135-243.405
	c109.019-56.96,220.348-47.089,321.547,21.452c103.858,70.341,151.901,171.636,138.697,297.795
	c-12.201,116.568-76.191,198.131-177.411,254.012c-222.509,122.84-444.449,246.711-666.644,370.12
	c-57.726,32.062-115.663,63.747-173.229,96.093c-16.746,9.41-30.054,9.985-48.322-0.729
	c-123.848-72.643-249.116-142.859-373.178-215.144c-71.286-41.535-110.432-103.343-110.389-187.743
	c0.132-258.865,0.263-517.73-0.079-776.594c-0.107-81.12,38.519-141.053,105.38-180.343
	C454.56,302.826,673.003,176.845,892.05,51.955c79.93-45.572,162.672-43.428,243.901,0.061
	c20.349,10.894,40.232,22.657,64.901,36.606c-10.303,8.543-15.654,14.535-22.282,18.246
	c-138.566,77.569-277.442,154.584-415.91,232.327c-127.41,71.534-259.447,136.312-380.324,217.626
	C230.2,659.163,162.318,811.076,180.016,994.904c20.297,210.827,138.234,349.318,334.988,418.049
	c137.52,48.039,272.133,27.745,399.043-42.691c135.299-75.091,270.3-150.718,405.528-225.938
	c11.395-6.338,23.52-11.364,37.936-18.257c21.204,36.818,40.959,71.119,60.714,105.419c2.676,0.023,5.351,0.045,8.027,0.068
	c28.393-94.856,56.786-189.712,86.837-290.105c-100.744-27.008-196.666-52.724-292.588-78.44c-2.322,2.086-4.645,4.173-6.967,6.259
	c19.442,34.614,38.884,69.227,60.688,108.046c-31.366,18.197-59.625,35.199-88.439,51.201
	c-118.354,65.729-237.185,130.606-355.266,196.821c-174.196,97.682-382.268,27.525-460.395-156.006
	c-55.552-130.499-8.252-298.763,111.372-376.075c80.558-52.064,165.808-96.935,249.484-144.092
	c205.312-115.707,411.074-230.615,616.189-346.668c20.089-11.366,35.193-10.914,55.038,0.618
	c128.569,74.718,258.35,147.353,386.759,222.341c68.526,40.018,109.667,100.687,110.133,181.163
	c1.527,263.62,1.492,527.259,0.159,790.881c-0.377,74.586-36.593,133.761-100.322,171.115
	c-193.953,113.681-389.278,225.018-584.055,337.294c-18.848,10.864-38.414,20.726-56.223,33.101
	c-45.244,31.439-94.741,41.565-149.538,40.538c-45.117-0.846-85.879-8.917-123.452-34.087
	c-15.917-10.663-33.188-19.388-50.235-28.241c-7.376-3.83-15.741-5.757-23.656-8.548c2.924-4.268,5.847-8.536,8.771-12.804
	c32.503-18.298,64.926-36.74,97.522-54.871c227.179-126.364,454.6-252.296,681.525-379.114
	c146.723-81.997,230.694-209.185,249.355-374.263c24.92-220.443-103.615-423.111-305.7-501.448
	c-149.096-57.796-293.393-43.094-432.368,34.107c-135.146,75.074-270.358,150.029-405.7,224.749
	C696.181,849.994,685.838,852.521,675.466,856.43z"/>
</svg>
