<?xml version="1.0" encoding="utf-8"?>
<!-- Generator: Adobe Illustrator 25.1.0, SVG Export Plug-In . SVG Version: 6.00 Build 0)  -->
<svg version="1.1" id="Layer_2_1_" xmlns="http://www.w3.org/2000/svg" xmlns:xlink="http://www.w3.org/1999/xlink" x="0px" y="0px"
	 viewBox="0 0 500 500" style="enable-background:new 0 0 500 500;" xml:space="preserve">
<path d="M353.3,104.7c-40.5,0-77.1,16.7-103.3,43.7c0,0,0,0,0,0c-26.2-26.9-62.8-43.7-103.3-43.7c-79.5,0-144,64.5-144,144
	s64.5,144,144,144c40.5,0,77.1-16.7,103.3-43.7c21.5-22.2,36-51.3,39.7-83.6c-3.7,32.4-18.2,61.5-39.7,83.6
	c26.2,26.9,62.8,43.7,103.3,43.7c79.5,0,144-64.5,144-144S432.9,104.7,353.3,104.7z M146.7,311.4c-34.6,0-62.6-28-62.6-62.6
	c0-34.6,28-62.6,62.6-62.6c34.6,0,62.6,28,62.6,62.6C209.3,283.3,181.3,311.4,146.7,311.4z M353.3,311.4c-34.6,0-62.6-28-62.6-62.6
	c0-34.6,28-62.6,62.6-62.6c34.6,0,62.6,28,62.6,62.6C415.9,283.3,387.9,311.4,353.3,311.4z"/>
</svg>
