<?xml version="1.0" encoding="iso-8859-1"?>
<!-- Generator: Adobe Illustrator 19.0.0, SVG Export Plug-In . SVG Version: 6.00 Build 0)  -->
<svg version="1.1" id="Layer_1" xmlns="http://www.w3.org/2000/svg" xmlns:xlink="http://www.w3.org/1999/xlink" x="0px" y="0px"
	 viewBox="0 0 500 500" enable-background="new 0 0 500 500" xml:space="preserve">
<path d="M105.389,192.627c47.275-48.614,95.035-97.727,142.708-146.751c13.335,13.562,25.667,26.105,38.489,39.145
	C251.257,119.91,215.307,155.413,180,190.28c24.288,24.375,47.131,47.3,69.332,69.581c22.098-22.123,45.111-45.163,68.798-68.878
	c-10.828-10.295-22.741-21.621-35.282-33.544c12.918-13.818,24.871-26.604,36.123-38.64c24.93,25.071,49.673,49.953,74.11,74.529
	c-47.057,46.798-95.773,95.245-144.057,143.262C201.293,288.749,152.533,239.879,105.389,192.627z M394.886,319.551
	c-12.107-12.062-24.687-24.595-38.763-38.62c-35.356,35.484-71.228,71.486-108.364,108.756
	c-35.476-35.6-71.314-71.565-106.314-106.688c-12.276,12.269-24.685,24.671-36.482,36.463
	c48.109,48.254,96.675,96.965,144.981,145.417C298.256,416.438,346.813,367.752,394.886,319.551z M114.025,256.243
	c-12.182-12.506-24.797-25.455-37.649-38.649C51.806,242.736,27.242,267.871,4,291.654c11.658,12.649,24.12,26.171,35.25,38.248
	C65.203,304.336,90,279.909,114.025,256.243z M384.67,256.651c24.56,24.312,49.336,48.839,73.367,72.628
	c12.264-11.88,25.054-24.271,37.422-36.252c-24.627-24.69-49.263-49.388-73.186-73.372
	C409.948,231.78,397.247,244.277,384.67,256.651z"/>
</svg>
