<?xml version="1.0" encoding="utf-8"?>
<!-- Generator: Adobe Illustrator 26.2.1, SVG Export Plug-In . SVG Version: 6.00 Build 0)  -->
<svg version="1.1" id="mim" xmlns="http://www.w3.org/2000/svg" xmlns:xlink="http://www.w3.org/1999/xlink" x="0px" y="0px"
	 viewBox="0 0 500 500" style="enable-background:new 0 0 500 500;" xml:space="preserve">
<g>
	<polygon points="208.4,41.7 250,41.7 291.7,41.7 333.3,41.7 333.3,83.4 375,83.4 375,125 416.7,125 416.7,83.3 375,83.3 375,41.7 
		333.4,41.7 333.4,0 291.7,0 250,0 208.4,0 208.3,0 166.7,0 166.7,41.7 208.3,41.7 	"/>
	<polygon points="83.4,125 125,125 125,83.4 166.7,83.4 166.7,41.7 125,41.7 125,83.3 83.3,83.3 83.3,125 41.7,125 41.7,166.7 
		83.4,166.7 	"/>
	<polygon points="333.3,458.3 291.7,458.3 250,458.3 208.4,458.3 208.3,458.3 166.7,458.3 166.7,416.7 125,416.7 125,458.4 
		166.7,458.4 166.7,500 208.3,500 208.4,500 250,500 291.7,500 333.4,500 333.4,458.4 375,458.4 375,416.7 333.3,416.7 	"/>
	<rect x="375" y="375" width="41.7" height="41.7"/>
	<polygon points="83.4,375 83.4,333.3 41.7,333.3 41.7,291.7 41.7,250 41.7,208.4 41.7,208.3 41.7,166.7 0,166.7 0,208.3 0,208.4 
		0,250 0,291.7 0,333.4 41.7,333.4 41.7,375 83.3,375 83.3,416.7 125,416.7 125,375 	"/>
	<polygon points="458.4,166.7 458.4,125 416.7,125 416.7,166.7 458.3,166.7 458.3,208.3 458.3,208.4 458.3,250 458.3,291.7 
		458.3,333.3 416.7,333.3 416.7,375 458.4,375 458.4,333.4 500,333.4 500,291.7 500,250 500,208.4 500,208.3 500,166.7 	"/>
	<polygon points="333.3,166.7 291.7,166.7 291.7,208.3 250,208.3 208.4,208.3 208.4,166.7 166.7,166.7 166.7,125 125,125 125,166.7 
		125,208.3 125,208.4 125,250 125,291.7 125,333.3 125,333.4 125,375 166.7,375 166.7,333.4 166.7,333.3 166.7,291.7 166.7,250 
		166.7,208.4 208.3,208.4 208.3,250 250,250 291.7,250 291.7,208.4 333.3,208.4 333.3,250 333.3,291.7 333.3,333.3 333.3,333.4 
		333.3,375 375,375 375,333.4 375,333.3 375,291.7 375,250 375,208.4 375,208.3 375,166.7 375,125 333.3,125 	"/>
</g>
</svg>
