<?xml version="1.0" encoding="utf-8"?>
<!-- Generator: Adobe Illustrator 26.2.1, SVG Export Plug-In . SVG Version: 6.00 Build 0)  -->
<svg version="1.1" id="mina" xmlns="http://www.w3.org/2000/svg" xmlns:xlink="http://www.w3.org/1999/xlink" x="0px" y="0px"
	 viewBox="0 0 500 500" style="enable-background:new 0 0 500 500;" xml:space="preserve">
<path d="M250.1,476c-8.4,0.2-16.6-2.7-22.9-8.4c-6.3-5.6-10.2-13.4-10.9-21.8l-3.8-29.9c-36.3-10.4-57.5-37.2-63.1-79.9L116.7,84
	c-7-1.1-14.1-1.6-21.2-1.5c-10.5-0.1-21,1.3-31.1,4v382.1H0.3V161.5C0.3,119.8,19,90.4,53,78.1V58.3c0-22.9,14-38.2,34.6-38.2
	s33.6,12.9,37,36.3l2.5,18.4c37.3,10.4,59.1,40.4,65.5,89.1l30.2,242.9c18,3.5,36.6,3.5,54.6,0L307.6,164
	c6.3-48.7,28.4-78.7,65.5-89.2l2.5-18.3c3.3-23.4,16.5-36.3,37-36.3s34.6,15.4,34.6,38.3V78c34.1,12.2,52.7,41.7,52.7,83.4v307.2
	h-64.2v-382c-10.1-2.8-20.6-4.1-31.1-4c-7.1-0.1-14.2,0.4-21.2,1.5l-32.7,252c-5.4,41.9-27.2,69.5-63.1,79.9l-3.6,29.9
	c-0.6,8.5-4.5,16.4-10.8,22.1C267,473.6,258.6,476.5,250.1,476z M224.3,418.8l3.3,25.8c0.3,5.6,2.9,10.9,7.1,14.7
	c4.2,3.8,9.7,5.7,15.4,5.5c2.8,0.2,5.6-0.2,8.3-1.1c2.7-0.9,5.1-2.3,7.2-4.2c2.1-1.9,3.8-4.2,5-6.7s1.9-5.3,2-8.1l3.3-25.8
	C258.9,421.6,241.4,421.6,224.3,418.8z M447.3,457.4h41.3V161.5c0-35.3-14.2-59.7-41.3-71.1V457.4z M11.6,457.4H53v-367
	c-27,11.4-41.1,35.8-41.1,71.1L11.6,457.4z M128.7,87.1l32,247.3c4.6,35.8,21.5,58.9,50.1,69l-29.6-238.3
	C175.9,123.2,158.6,97.6,128.7,87.1z M371.6,87.1c-29.9,10.4-47.2,36.1-52.6,78.1l-29.6,238.1c28.7-10.1,45.6-33.2,50.1-69
	L371.6,87.1z M64.5,74.5c10.2-2.5,20.6-3.7,31.1-3.6c6.6-0.1,13.1,0.3,19.6,1.2l-2-14.3c-2.5-17.5-11.1-26.4-25.6-26.4
	S64.5,41.6,64.5,58.2V74.5z M404.7,70.8c10.5-0.1,20.9,1.2,31.1,3.6V58.3c0-16.5-8.9-26.8-23.1-26.8c-14.3,0-23.1,8.9-25.6,26.4
	l-2,14.3c6.5-0.8,13-1.2,19.6-1.2V70.8z"/>
</svg>
