<?xml version="1.0" encoding="iso-8859-1"?>
<!-- Generator: Adobe Illustrator 19.0.0, SVG Export Plug-In . SVG Version: 6.00 Build 0)  -->
<svg version="1.1" id="Layer_1" xmlns="http://www.w3.org/2000/svg" xmlns:xlink="http://www.w3.org/1999/xlink" x="0px" y="0px"
	 viewBox="0 0 2000 2000" style="enable-background:new 0 0 2000 2000;" xml:space="preserve">
<path d="M1975.789,1004.581c0.002,254.933,0.08,509.866-0.031,764.799c-0.055,127.889-83.343,210.382-212.267,210.393
	c-508.69,0.043-1017.381,0.043-1526.071-0.001c-129.101-0.011-212.158-82.336-212.181-210.606
	c-0.092-512.215-0.088-1024.43-0.004-1536.644c0.021-126.923,82.585-210.182,208.84-210.217
	c512.215-0.145,1024.429-0.153,1536.644,0.001c120.266,0.036,204.827,83.845,204.971,203.381
	C1976.004,485.317,1975.787,744.949,1975.789,1004.581z M1415.011,438.68c-64.186,112.448-128.153,224.513-193.44,338.891
	c-68.33-116.57-134.27-229.063-196.258-334.815c-279.557,0-550.367,0-822.897,0c0,370.885,0,736.771,0,1104.595
	c93.777,0,185.539,0,280.468,0c0-273.629,0-544.201,0-814.772c2.238-0.295,4.477-0.59,6.715-0.885
	c61.135,238.99,122.271,477.981,183.984,719.23c-21.045,31.624-42.57,63.968-67.016,100.701c133.199,0,260.599,0,390.491,0
	c70.484-113.281,141.187-226.912,214.832-345.272c76.611,118.47,150.109,232.126,223.136,345.053c128.482,0,254.69,0,387.91,0
	c-128.29-193.838-253.333-382.77-378.284-571.563c116.062-180.603,230.336-358.426,347.769-541.163
	C1662.431,438.68,1541.673,438.68,1415.011,438.68z M666.116,489.76c52.469,203.476,104.937,406.952,157.406,610.429
	c2.525-0.203,5.049-0.406,7.574-0.609c22.614-88.554,45.229-177.108,67.876-265.789C822.47,717.477,746.678,602.242,670.885,487.007
	C669.296,487.925,667.706,488.842,666.116,489.76z"/>
</svg>
