<?xml version="1.0" encoding="iso-8859-1"?>
<!-- Generator: Adobe Illustrator 19.0.0, SVG Export Plug-In . SVG Version: 6.00 Build 0)  -->
<svg version="1.1" id="Layer_1" xmlns="http://www.w3.org/2000/svg" xmlns:xlink="http://www.w3.org/1999/xlink" x="0px" y="0px"
	 viewBox="0 0 500 500" enable-background="new 0 0 500 500" xml:space="preserve">
<path d="M493.438,247.837c-0.746,64.369-21.528,119.499-64.009,165.714c-43.439,47.257-97.68,73.729-161.795,78.03
	c-69.492,4.663-130.69-16.446-181.992-63.818C34.392,380.44,8.324,321.12,7.493,251.607C6.726,187.405,28.587,130.902,72.501,83.918
	C119.849,33.261,178.98,7.184,248.254,6.478c65.442-0.666,122.715,21.948,170.001,67.304
	C467.975,121.472,492.457,180.548,493.438,247.837z M473.991,244.639c-2.099-44.046-13.346-80.557-34.375-113.972
	c-22-34.957-51.504-61.921-88.233-80.651c-36.224-18.472-74.884-26.651-115.486-23.696c-60.628,4.412-111.79,29.213-152.202,74.578
	c-40.956,45.976-60.05,100.338-56.307,161.863c3.78,62.139,29.668,114.151,76.544,155.05
	c44.524,38.847,96.845,57.298,155.954,54.755c61.508-2.647,113.476-27.16,155.042-72.324
	C456.421,355.156,475.432,301.257,473.991,244.639z M249.253,44.116c56.352,0.749,104.206,19.518,143.615,57.806
	c43.142,41.914,64.158,93.632,62.492,153.751c-1.44,51.953-20.424,97.223-56.391,134.951
	c-36.746,38.544-81.896,59.939-135.013,63.378c-56.995,3.69-107.443-13.539-150.007-51.544
	c-42.683-38.111-65.886-86.388-68.412-143.624c-2.566-58.128,16.344-108.991,56.65-151.117
	C142.485,65.597,192.369,44.911,249.253,44.116z M165.481,285.249c0.225,1.329,0.548,2.424,0.574,3.525
	c0.194,8.369,0.333,16.738,0.482,25.108c0.022,1.209-0.124,2.437,0.034,3.626c0.841,6.354,1.884,7.91,7.468,9.034
	c4.164,0.838,8.476,1.204,12.729,1.267c7.164,0.106,14.343-0.008,21.497-0.39c4.671-0.249,9.344-0.94,13.949-1.795
	c4.092-0.759,6.067-3.371,5.945-7.463c-0.381-12.786-0.689-25.578-1.376-38.349c-0.388-7.223-1.382-14.418-2.247-21.609
	c-1.314-10.929-4.032-21.534-7.692-31.904c-3.733-10.578-7.836-20.995-13.096-30.933c-5.789-10.939-12.754-21.019-21.6-29.707
	c-2.383-2.34-5.001-4.544-7.823-6.311c-4.962-3.108-10.792-3.137-16.346-3.219c-6.195-0.091-12.419,0.639-18.603,1.281
	c-5.259,0.546-10.499,1.354-15.705,2.287c-2.448,0.438-4.99,1.143-6.251,4.039c5.469,5.636,11.484,10.831,16.227,17.003
	c4.696,6.11,8.521,13.001,11.969,19.928c3.472,6.974,6.01,14.413,9.12,22.049c-18.546,0-36.487,0-55.135,0
	c5.039,5.566,9.652,10.661,14.418,15.926c14.876,0,29.861,0,44.958,0c2.656,10.168,4.62,20.263,5.388,30.842
	c-18.626,0-36.869,0-55.674,0c4.961,5.496,9.563,10.592,14.235,15.768C137.023,285.249,151.151,285.249,165.481,285.249z
	 M247.747,307.597c0.089,0.003,0.177,0.007,0.266,0.01c0.212,3.905,0.398,7.812,0.645,11.714c0.227,3.581,1.862,5.494,5.228,6.783
	c4.765,1.825,9.787,1.617,14.679,1.661c8.875,0.081,17.759-0.367,26.631-0.787c3.039-0.144,6.104-0.65,9.058-1.388
	c2.587-0.647,4.902-2.081,5.525-4.993c0.373-1.746,0.556-3.571,0.533-5.357c-0.053-4.133-0.274-8.264-0.444-12.395
	c-0.133-3.233-0.248-6.468-0.448-9.698c-0.427-6.896-0.77-13.801-1.398-20.679c-0.591-6.472-1.23-12.962-2.335-19.359
	c-2.064-11.94-5.593-23.49-9.938-34.807c-6.599-17.187-14.529-33.618-26.987-47.427c-3.558-3.944-7.398-7.759-11.631-10.938
	c-5.017-3.768-11.369-3.764-17.304-3.813c-6.957-0.058-13.944,0.63-20.876,1.382c-5.022,0.545-9.997,1.617-14.947,2.672
	c-1.742,0.371-3.894,0.811-4.267,3.086c-0.371,2.263,1.681,3.209,2.975,4.486c3.902,3.854,8.232,7.341,11.727,11.528
	c7.009,8.395,12.016,18.049,16.065,28.183c6.837,17.113,12.193,34.649,14.522,52.987c1.084,8.534,2.112,17.095,2.634,25.676
	C248.092,293.258,247.747,300.438,247.747,307.597z M326.24,299.737c0.317-0.002,0.635-0.003,0.952-0.005
	c0,6.178-0.119,12.358,0.038,18.532c0.123,4.817,2.272,7.467,7.016,8.241c4.64,0.757,9.375,1.295,14.067,1.285
	c8.952-0.019,17.91-0.354,26.849-0.859c3.155-0.178,6.312-1.053,9.372-1.943c2.746-0.799,4.112-3.176,4.19-5.832
	c0.188-6.419,0.263-12.857-0.016-19.271c-0.368-8.464-0.961-16.926-1.748-25.361c-0.714-7.658-1.5-15.335-2.821-22.904
	c-2.118-12.135-5.921-23.822-10.405-35.293c-4.529-11.586-9.593-22.944-16.762-33.125c-4.653-6.608-9.948-12.826-15.48-18.727
	c-2.624-2.799-6.223-5.172-9.836-6.428c-4.141-1.44-8.813-2.079-13.21-1.909c-9.431,0.364-18.844,1.365-28.241,2.336
	c-2.94,0.304-5.865,1.158-8.686,2.095c-4.046,1.344-4.377,3.487-1.181,6.228c0.171,0.146,0.365,0.267,0.527,0.422
	c3.916,3.73,8.158,7.18,11.671,11.258c6.491,7.534,11.167,16.259,15.172,25.339c5.014,11.369,8.553,23.215,11.846,35.178
	c3.851,13.989,5.491,28.283,6.609,42.653C326.63,287.643,326.24,293.705,326.24,299.737z"/>
</svg>
