<?xml version="1.0" encoding="iso-8859-1"?>
<!-- Generator: Adobe Illustrator 19.0.0, SVG Export Plug-In . SVG Version: 6.00 Build 0)  -->
<svg version="1.1" id="Layer_1" xmlns="http://www.w3.org/2000/svg" xmlns:xlink="http://www.w3.org/1999/xlink" x="0px" y="0px"
	 viewBox="0 0 500 500" style="enable-background:new 0 0 500 500;" xml:space="preserve">
<path id="XMLID_4_" d="M253.696,234.417c9.128-19.345,17.376-36.697,25.514-54.101c11.538-24.674,22.72-49.522,34.765-73.946
	c1.968-3.991,7.589-8.536,11.53-8.544c4.038-0.008,9.631,4.358,11.898,8.322c28.957,50.641,56.594,102.055,86.34,152.221
	c19.357,32.645,41.849,63.42,62.312,95.432c3.218,5.034,5.302,12.853,3.712,18.116c-0.929,3.078-10.172,5.117-15.679,5.126
	c-149.112,0.265-298.224,0.206-447.336,0.201c-1.679,0-3.638,0.551-4.985-0.12c-3.959-1.975-9.477-3.628-10.964-6.942
	c-1.404-3.129,0.214-9.394,2.772-12.233c17.734-19.678,35.45-39.444,54.351-57.98c23.446-22.993,39.011-51.553,57.629-77.948
	c15.954-22.619,30.998-45.878,46.694-68.681c7.468-10.85,14.952-10.52,22.853,0.502c17.123,23.889,34.201,47.809,51.34,71.687
	C248.161,227.921,250.164,230.108,253.696,234.417z M390.04,355.228c0.527-0.83,1.054-1.66,1.581-2.49
	c-23.139-33.006-46.278-66.012-69.981-99.823c-19.129,22.779-37.244,44.221-55.182,65.811c-4.09,4.922-0.108,6.815,3.886,8.625
	c14.242,6.454,28.864,12.237,42.539,19.737C337.881,360.799,364.326,352.753,390.04,355.228z M173.857,246.247
	c-21.2,12.948-41.875,25.071-61.872,38.225c-3.912,2.573-8.406,10.338-7.163,13.668c6.928,18.558,15.54,36.489,24.45,56.609
	c22.314-29.329,43.452-57.113,64.793-85.162C187.382,261.868,181.066,254.574,173.857,246.247z M143.791,355.081
	c25.998,0,48.754,0.067,71.508-0.113c2.076-0.016,4.684-1.086,6.117-2.566c6.986-7.219,13.962-14.498,20.22-22.333
	c1.534-1.92,1.713-7.227,0.207-8.909c-12.953-14.458-26.435-28.44-40.26-43.095C182.642,303.305,164.108,328.004,143.791,355.081z
	 M318.092,152.4c-2.5,2.804-3.38,3.442-3.791,4.303c-17.341,36.321-35.611,72.248-51.377,109.242
	c-4.999,11.729-3.307,26.31-4.863,41.388c4.119-1.784,5.279-1.923,5.825-2.575c14.798-17.698,29.066-35.869,44.476-53.014
	c7.677-8.541,9.469-17.641,9.299-28.406c-0.301-19.115,0.247-38.244,0.426-57.367C318.123,162.205,318.092,158.438,318.092,152.4z
	 M189.47,183.411c-0.878,0.273-1.756,0.547-2.633,0.82c-2.108,16.095-4.347,32.176-6.173,48.303
	c-0.259,2.284,0.848,5.373,2.41,7.115c19.907,22.193,40.001,44.219,60.104,66.235c0.973,1.066,2.468,1.656,4.309,2.848
	c0.67-2.043,1.311-3.224,1.424-4.454c2.202-23.891,0.694-46.756-18.005-64.879c-1.655-1.604-2.868-3.668-4.252-5.545
	C214.254,217.044,201.863,200.227,189.47,183.411z M392.85,255.201c0.639-0.824,1.278-1.647,1.917-2.471
	c-20.482-36.444-40.963-72.889-61.444-109.333c-1.011,0.284-2.021,0.569-3.032,0.853c-0.225,3.471-0.563,6.939-0.656,10.413
	c-0.583,21.759-0.861,43.529-1.732,65.275c-0.77,19.205-1.068,19.254,16.924,23.686C360.814,247.563,376.84,251.348,392.85,255.201z
	 M338.549,253.846c-0.307,0.846-0.614,1.691-0.921,2.537c21.056,29.904,42.112,59.808,63.167,89.712
	c1.044-0.389,2.087-0.778,3.131-1.166c1.422-22.134,3.243-44.257,3.83-66.413c0.087-3.292-5.029-8.147-8.82-9.806
	c-6.883-3.012-14.546-4.305-21.943-6.061C364.203,259.612,351.366,256.77,338.549,253.846z M116.988,354.623
	c-7.584-17.187-14.558-32.989-22.333-50.608c-16.501,17.232-31.424,32.818-46.348,48.404c0.619,0.735,1.238,1.47,1.857,2.205
	C71.783,354.623,93.402,354.623,116.988,354.623z M460.377,354.478c-13.659-20.433-26.405-39.498-39.15-58.564
	c-0.898,0.483-1.797,0.967-2.695,1.45c-1.387,18.812-2.773,37.623-4.21,57.114C429.489,354.478,443.684,354.478,460.377,354.478z
	 M173.177,196.918c-1.012-0.378-2.025-0.757-3.037-1.135c-13.656,20.252-27.311,40.504-40.967,60.756
	c0.847,0.768,1.695,1.535,2.542,2.303c12.075-7.374,24.201-14.666,36.153-22.233c1.347-0.853,2.272-3.206,2.439-4.954
	C171.41,220.089,172.251,208.5,173.177,196.918z M296.797,354.454c0.22-0.805,0.441-1.609,0.661-2.414
	c-13.157-6.143-26.276-12.372-39.527-18.305c-1.401-0.627-4.292-0.17-5.283,0.902c-5.54,5.994-10.708,12.331-17.081,19.816
	C257.279,354.454,277.038,354.454,296.797,354.454z"/>
</svg>
