<?xml version="1.0" encoding="iso-8859-1"?>
<!-- Generator: Adobe Illustrator 19.0.0, SVG Export Plug-In . SVG Version: 6.00 Build 0)  -->
<svg version="1.1" id="Layer_1" xmlns="http://www.w3.org/2000/svg" xmlns:xlink="http://www.w3.org/1999/xlink" x="0px" y="0px"
	 viewBox="0 0 2000 2000" style="enable-background:new 0 0 2000 2000;" xml:space="preserve">
<path d="M1281.186,1441.684c-88.517,51.018-177.765,102.457-267.122,153.96c-90.138-51.949-179.301-102.99-266.858-153.768
	c0-104.959,0-206.895,0-309.121c72.356-41.865,143.802-83.203,217.153-125.644c-2.336-2.516-4.486-6.123-7.656-8.043
	c-30.324-18.367-60.88-36.349-91.249-54.642c-25.668-15.461-51.144-31.24-76.785-46.746c-4.52-2.733-9.435-4.814-13.955-7.089
	c-74.806,43.198-148.36,85.674-221.81,128.09c0,93.566,0,185.084,0,275.828c-88.893,51.28-176.632,101.894-265.762,153.311
	C197.595,1396.325,108.806,1345.267,20,1294.198c0-103.474,0-205.509,0-309.321c88.427-51.11,177.767-102.747,267.127-154.397
	c0-92.532,0-183.541,0-275.651c88.686-51.242,177.156-102.359,266.633-154.058c88.854,51.18,177.855,102.445,267.482,154.071
	c0,96.095,0,191.521,0,286.684c66.136,39.888,131.261,79.166,195.253,117.76c63.059-38.05,123.742-74.666,185.393-111.867
	c0-96.352,0-192.863,0-291.231c89.377-51.696,178.644-103.329,269.174-155.692c89.076,51.491,178.489,103.177,267.82,154.815
	c0,99.272,0,196.949,0,296.705c76.207,44.152,152.729,88.487,229.55,132.996c0,103.664,0,206.122,0,309.003
	c-88.868,51.263-177.022,102.115-266.744,153.87c-88.797-51.112-177.99-102.452-267.513-153.982c0-99.593,0-198.364,0-297.319
	c-61.308-35.453-122.014-70.557-180.7-104.495c-62.213,37.581-122.52,74.011-182.954,110.517c-3.64,8.058,2.706,10.634,7.878,13.582
	c17.361,9.895,34.901,19.479,52.207,29.468c46.907,27.076,93.735,54.291,140.574,81.484c3.303,1.918,6.445,4.112,10.006,6.399
	C1281.186,1235.83,1281.186,1337.884,1281.186,1441.684z M757.906,821.984c-1.403-76.039,1.959-152.142-2.038-229.631
	c-66.928-38.661-133.553-77.148-200.725-115.95c-64.462,33.357-124.94,71.653-187.239,106.703
	c-4.268,2.401-8.467,4.977-12.426,7.848c-1.693,1.227-2.687,3.419-4.328,5.613c0,75.828,0,151.903,0,228.997
	c67.898,39.144,135.226,79.272,202.945,116.763c9.699-5.084,17.568-8.841,25.081-13.209c44.03-25.602,88.105-51.133,131.885-77.159
	C726.763,842.625,744.406,836.132,757.906,821.984z M86.043,1255.483c2.759,1.923,6.145,4.666,9.869,6.823
	c57.825,33.501,116.02,66.383,173.314,100.766c13.625,8.177,23.912,7.964,36.166-0.502c9.886-6.83,20.429-12.744,30.88-18.714
	c49.711-28.395,99.489-56.669,150.522-85.714c0.922-6.31,2.8-13.272,2.825-20.241c0.225-64.62,0.214-129.242,0.026-193.862
	c-0.024-8.102-1.473-16.2-2.132-22.968c-69.004-37.27-133.101-78.805-201.31-114.396c-67.464,38.753-133.672,76.785-200.16,114.978
	C86.043,1099.915,86.043,1177.094,86.043,1255.483z M1499.794,1022.137c0,79.152,0,155.723,0,234.358
	c66.865,38.53,134.042,77.24,201.962,116.378c68.188-39.411,135.896-78.545,202.675-117.141c0-78.478,0-154.632,0-232.735
	c-66.802-38.661-134.121-77.621-202.251-117.051C1635.126,944.442,1567.848,983.067,1499.794,1022.137z M812.057,1170.018
	c0,79.721,0,157.389,0,234.689c67.896,38.976,135.006,77.501,201.841,115.868c67.497-38.858,133.986-77.136,201.203-115.833
	c0-77.272,0-154.98,0-234.834c-66.485-38.406-133.702-77.235-201.317-116.293C945.623,1092.947,878.934,1131.428,812.057,1170.018z
	 M1672.221,826.784c0-80.227,0-157.353,0-235.184c-67.171-38.547-133.822-76.795-201.3-115.518
	c-66.822,38.481-132.753,76.448-199.205,114.717c-3.861,10.136-5.453,208.519-1.41,236.249c65.948,38.08,132.659,76.6,200.6,115.831
	C1538.524,903.883,1605.604,865.199,1672.221,826.784z M542.592,897.029c0.265,5.504,0.496,10.292,0.748,15.52
	c4.471,2.06,8.324,3.835,12.265,5.651c8.757-4.658,17.016-8.91,25.145-13.397c49.861-27.527,99.704-55.089,149.521-82.696
	c5.862-3.249,11.436-7.178,11.074-14.866c-0.352-7.459-6.297-9.597-14.218-12.05C666.557,828.617,604.815,862.69,542.592,897.029z
	 M565.452,533.652c18.338,10.635,37.121,20.5,55.501,31.063c30.25,17.384,60.168,35.355,90.623,52.367
	c5.505,3.075,12.916,2.735,18.257,3.747c7.658-9.962,6.175-16.668-1.734-21.673c-9.2-5.822-18.771-11.06-28.193-16.53
	c-44.798-26.003-89.555-52.078-134.473-77.872c-4.362-2.505-9.728-3.261-14.166-4.68c-3.807,4.215-6.347,7.026-9.482,10.497
	C545.749,523.795,556.207,528.29,565.452,533.652z M366.95,809.73c7.9,7.036,14.688,7.248,19.267,1.216
	c2.967-3.908,3.923-10.154,3.947-15.36c0.263-57.313,0.176-114.627,0.138-171.941c-0.002-3.289,0.736-7.335-0.849-9.706
	c-3.069-4.593-7.548-8.243-11.673-12.523c-4.668,3.827-7.564,6.201-10.905,8.94C366.438,677.494,365.345,744.539,366.95,809.73z
	 M473.851,1245.771c-0.684-6.766-1.158-11.454-1.526-15.096c-10.16-7.884-18.002-2.771-25.612,1.529
	c-21.446,12.118-42.591,24.773-64.124,36.732c-32.844,18.241-65.96,35.991-98.846,54.155c-6.531,3.607-11.53,8.654-8.318,18.598
	c3.31,1.883,7.513,4.273,12.718,7.233C350.796,1314.122,412.241,1279.992,473.851,1245.771z M292.879,931.345
	c-3.454,0.418-8.194,0.992-14.107,1.708c0,6.601,0,12.303,0,18.483c22.203,12.783,44.303,25.493,66.39,38.226
	c34.942,20.145,69.763,40.505,104.866,60.365c15.024,8.5,22.268,3.996,22.494-15.639
	C412.999,1000.312,353.53,966.168,292.879,931.345z M118.89,1038.456c-5.21,0-10.525,0-17.227,0
	c-1.057,6.382-2.827,12.172-2.849,17.968c-0.209,56.25-0.232,112.501,0.029,168.75c0.029,6.168,2.166,12.326,3.573,19.807
	c7.34-0.644,12.576-1.104,18.265-1.603C125.026,1211.244,123.467,1052.582,118.89,1038.456z M1712.048,963.137
	c17.509,10.273,35.245,20.163,52.693,30.536c35.166,20.906,70.124,42.163,105.354,62.96c7.098,4.19,15.012,7.184,24.801-0.128
	c-0.707-5.292-1.523-11.397-2.134-15.974c-12.898-7.193-23.983-13.033-34.737-19.431c-47.461-28.235-94.933-56.457-142.117-85.149
	c-7.364-4.478-13.82-5.575-22.666-2.073c-0.318,5.417-0.627,10.703-0.976,16.651C1699.203,954.97,1705.488,959.288,1712.048,963.137
	z M1716.96,1341.154c34.334-19.122,68.645-38.286,103.011-57.35c22.394-12.422,44.868-24.697,67.36-37.067
	c0-6.435,0-11.681,0-16.629c-7.648-5.571-14.03-3.684-20.682,0.123c-19.029,10.89-38.094,21.724-57.323,32.255
	c-36.494,19.985-73.12,39.727-109.671,59.609c-7.335,3.99-12.421,9.212-8.969,19.083
	C1700.277,1350.763,1708.614,1345.803,1716.96,1341.154z M1513.859,1049.461c-0.051,58.985-0.082,117.97,0.046,176.954
	c0.01,4.28,0.446,8.944,2.208,12.717c1.465,3.136,5.174,5.224,8.396,8.253c4.615-2.864,8.62-5.35,12.524-7.773
	c0.478-67.534,1.461-133.978-0.696-201.175c-8.095,0-13.982,0-21.561,0C1514.38,1043.032,1513.862,1046.246,1513.859,1049.461z
	 M1017.802,1077.946c-10.776,2.448-16.239,7.174-13.367,19.159c2.992,2.133,6.74,5.192,10.844,7.659
	c12.669,7.618,25.449,15.053,38.229,22.484c40.998,23.84,82.129,47.457,122.934,71.623c8.49,5.028,15.934,6.704,24.936,0.181
	c0.267-3.934,0.556-8.185,0.958-14.108C1139.745,1148.653,1078.353,1113.055,1017.802,1077.946z M1179.239,1377.138
	c-6.209,3.17-12.076,7.002-18.187,10.376c-42.7,23.572-85.437,47.076-128.128,70.665c-9.965,5.506-19.796,11.256-31.071,17.682
	c1.61,6.883,2.989,12.777,4.888,20.894c7.637-2.522,13.51-3.537,18.463-6.239c55.227-30.122,110.362-60.416,165.351-90.969
	c4.908-2.727,8.627-7.596,13.391-11.917C1194.548,1374.299,1188.892,1372.209,1179.239,1377.138z M850.817,1368.785
	c0.301-52.339,0.172-104.68,0.169-157.02c0-3.856,0.411-7.793-0.213-11.552c-1.622-9.756-6.19-12.954-19.022-13.648
	c-5.331,5.651-7.167,12.631-7.149,20.721c0.119,51.237-0.245,102.477,0.152,153.711c0.078,10.097,2.778,20.173,4.34,30.743
	c6.527,0.298,10.727,0.489,18.043,0.823C848.607,1383.452,850.774,1376.124,850.817,1368.785z M1618.507,583.906
	c-45.302-26.443-90.514-53.041-135.919-79.305c-4.346-2.514-9.797-3.118-16.754-5.219c-2.295,7.498-4.049,13.23-6.231,20.36
	c61.477,35.742,121.419,70.64,181.476,105.339c2.632,1.521,6.318,1.216,8.936,1.662c8.031-4.047,11.525-9.442,7.665-20.363
	C1645.814,599.581,1632.103,591.842,1618.507,583.906z M1472.29,918.826c25.467-14.263,51.552-29.122,77.872-43.55
	c32.066-17.578,64.404-34.66,96.474-52.23c13.041-7.144,13.966-15.819,1.493-29.435c-61.763,32.622-123.002,67.943-185.19,101.472
	C1457.357,909.397,1457.357,909.397,1472.29,918.826z M1308.065,797.274c0.422-60.689,0.258-121.382,0.258-181.356
	c-12.943-12.793-15.138-12.707-25.803-0.075c0,64.32,0,128.272,0,193.622c5.146,2.396,10.258,4.777,18.84,8.774
	C1304.383,809.137,1308.024,803.218,1308.065,797.274z"/>
</svg>
