<?xml version="1.0" encoding="iso-8859-1"?>
<!-- Generator: Adobe Illustrator 19.0.0, SVG Export Plug-In . SVG Version: 6.00 Build 0)  -->
<svg version="1.1" id="Layer_1" xmlns="http://www.w3.org/2000/svg" xmlns:xlink="http://www.w3.org/1999/xlink" x="0px" y="0px"
	 viewBox="0 0 500 500" style="enable-background:new 0 0 500 500;" xml:space="preserve">
<path id="XMLID_4_" d="M44.939,138.484c0,45.809,0,89.843,0,133.877c0,39.735,0.06,79.469-0.039,119.204
	c-0.03,12.186-5.604,17.01-17.263,16.335c-7.348-0.426-10.693-4.729-12.147-11.05c-0.736-3.197-0.763-6.603-0.764-9.915
	c-0.039-90.154,0.001-180.308-0.091-270.462c-0.009-8.359,0.318-17.104,8.991-20.482c8.145-3.172,16.237-1.862,24.187,4.16
	c56.592,42.862,113.43,85.405,170.577,127.524c8.565,6.313,12.152,13.527,12.142,23.507c-0.047,46.079,0.032,92.157-0.107,138.236
	c-0.041,13.494-4.464,18.457-15.428,18.458c-10.569,0.001-15.265-5.35-15.312-18.692c-0.147-42.069,0.097-84.139-0.27-126.205
	c-0.038-4.364-1.858-10.387-5.019-12.798c-47.69-36.369-95.741-72.266-143.724-108.25C49.399,140.974,47.935,140.271,44.939,138.484
	z M457.469,150.091c0.013,78.484,0.025,156.969,0.046,235.453c0.001,3.339-0.063,6.688,0.162,10.015
	c0.501,7.387,4.436,11.525,11.91,12.27c12.527,1.249,18.201-4.771,18.207-19.891c0.039-90.842-0.017-181.685,0.069-272.527
	c0.008-8.169-1.349-15.999-9.361-19.338c-7.915-3.298-15.898-2.399-23.278,3.625c-11.354,9.266-23.367,17.725-35.119,26.502
	c-44.846,33.496-89.552,67.182-134.662,100.318c-10.155,7.459-15.142,16.2-14.18,28.659c0.384,4.98,0.06,10.014,0.06,15.024
	c0,39.41-0.031,78.819,0.024,118.229c0.012,8.739,1.395,17.182,11.781,19.262c12.291,2.461,18.58-3.196,18.624-16.612
	c0.14-42.414,0.237-84.831-0.118-127.243c-0.06-7.168,2.29-11.431,7.95-15.605c30.052-22.163,59.781-44.764,89.654-67.17
	c18.831-14.124,37.717-28.174,58.229-43.489C457.469,143.071,457.468,146.581,457.469,150.091z"/>
</svg>
