<?xml version="1.0" encoding="iso-8859-1"?>
<!-- Generator: Adobe Illustrator 19.0.0, SVG Export Plug-In . SVG Version: 6.00 Build 0)  -->
<svg version="1.1" id="Layer_1" xmlns="http://www.w3.org/2000/svg" xmlns:xlink="http://www.w3.org/1999/xlink" x="0px" y="0px"
	 viewBox="0 0 500 500" enable-background="new 0 0 500 500" xml:space="preserve">
<path d="M7,246.034C8.428,179.4,32.623,119.852,82.895,72.271C129.907,27.777,186.36,5.288,251.537,5.396
	c67.121,0.111,124.825,24.247,171.773,71.168c47.319,47.292,71.608,105.785,71.128,173.07
	c-0.48,67.191-24.529,125.062-72.803,172.49c-47.519,46.687-104.751,70.27-171.039,70.307
	c-66.705,0.037-124.699-23.93-171.872-70.864C31.121,374.206,7.906,315.787,7,246.034z M250.385,14.964
	c-62.323,1.038-117.365,22.448-162.759,66.924C41.928,126.662,18.49,181.371,17.455,245.35
	c-1.051,64.987,21.503,121.141,66.841,167.308c45.003,45.826,100.609,69.323,164.845,69.892
	c64.807,0.574,121.15-22.635,166.892-68.199c45.437-45.261,68.544-101.226,68.552-165.532c0.008-63.884-23.25-119.182-67.922-164.62
	C371.504,38.266,315.676,16.242,250.385,14.964z M260.624,30.262c49.593,1.011,101.6,21.582,144.264,63.968
	c42.704,42.425,64.474,94.594,64.566,154.34c0.092,59.736-21.583,112.124-64.036,154.55c-43.098,43.071-96.189,64.97-156.921,64.327
	c-58.858-0.624-110.205-22.395-152.015-64.371c-43.42-43.593-64.789-96.683-64.051-158.115
	C33.83,128.519,130.396,30.558,260.624,30.262z M309.98,190.375c0,3.187,0,6.374,0,9.562c0.002,34.024-0.02,68.049,0.021,102.073
	c0.013,10.943,0.524,21.916-3.196,32.542c-5.375,8.94-15.123,7.622-23.913,9.005c0.315,2.553,0.548,4.437,0.737,5.971
	c28.894,0,57.001,0,84.955,0c0.311-1.405,0.674-2.19,0.606-2.935c-0.103-1.131-0.506-2.235-0.865-3.687
	c-2.231-0.103-4.232-0.157-6.227-0.294c-13.534-0.932-19.72-7.284-19.75-20.939c-0.093-42.223,0.04-84.448-0.091-126.671
	c-0.022-6.998,0.969-13.601,3.552-19.176c6.205-6.756,14.14-4.971,20.272-6.11c3.917-3.116,4.238-5.837,1.936-8.328
	c-18.907,0-37.246,0-56.109,0c-21.051,46.755-38.468,94.714-59.581,143.018c-10.573-25.734-19.943-49.653-30.198-73.187
	c-10.219-23.452-18.911-47.597-30.172-70.427c-18.261,0-35.451-0.062-52.64,0.075c-2.277,0.018-4.636,0.83-6.776,1.714
	c-0.865,0.358-1.243,1.896-2.138,3.391c1.427,1.503,2.767,2.914,4.113,4.331c3.914,0,7.595,0,10.925,0
	c6.256,3.575,13.4,5.158,16.932,11.913c0,40.578,0.45,81.169-0.189,121.743c-0.322,20.405-7.801,36.177-27.106,38.716
	c-0.384,0.05-0.905,0.194-1.084,0.472c-1.148,1.781-2.217,3.612-3.953,6.487c23.852,0,46.193,0,68.98,0c0-2.158,0-4.037,0-5.818
	c-0.897-0.45-1.575-0.84-2.292-1.131c-0.367-0.149-0.827-0.058-1.21-0.181c-12.314-3.974-21.555-11.037-24.219-24.501
	c-0.702-3.547-1.385-7.176-1.397-10.77c-0.118-35.254-0.098-70.509-0.09-105.764c0-1.942,0.248-3.885,0.486-7.386
	c21.885,52.984,43.105,104.359,64.353,155.801c2.884,0,5.281,0,8.409,0c7.058-17.681,14.157-35.531,21.31-53.36
	c7.173-17.879,14.141-35.846,21.674-53.573C293.527,225.341,299.419,207.02,309.98,190.375z M322.433,320.344
	c-0.108-44.642-0.096-89.285,0.039-133.926c0.014-4.792,1.104-9.576,1.578-14.376c0.049-0.496-0.705-1.071-1.721-2.507
	c-2.48,1.492-5.03,3.026-7.974,4.797c-0.489,18.433-1.123,36.294-1.389,54.161c-0.232,15.56-0.048,31.126-0.048,46.689
	c0,20.064,0,40.127,0,59.991c-1.812,2.421-3.36,4.489-5.836,7.797c4.472-0.506,7.528-0.852,10.749-1.217
	C321.807,333.994,322.45,327.312,322.433,320.344z M214.364,267.35c-9.96-24.482-19.715-49.054-30.163-73.327
	c-3.622-8.415-6.778-17.59-15.862-23.133c-3.133-0.549-6.815-1.194-10.498-1.839c9.513,6.945,13.258,17.015,17.439,26.945
	c7.622,18.106,15.771,35.989,23.391,54.095c7.301,17.348,14.115,34.9,21.32,52.289c5.524,13.333,11.322,26.552,17.531,41.066
	c1.205-3.979,1.995-6.584,3.261-10.764C232.082,311.155,223.267,289.235,214.364,267.35z M171.757,342.194
	c-2.919-4.679-5.681-9.109-8.206-13.156c-4.3,4.082-8.702,8.26-13.86,13.156C157.701,342.194,164.81,342.194,171.757,342.194z"/>
</svg>
