<?xml version="1.0" encoding="iso-8859-1"?>
<!-- Generator: Adobe Illustrator 19.0.0, SVG Export Plug-In . SVG Version: 6.00 Build 0)  -->
<svg version="1.1" id="Layer_1" xmlns="http://www.w3.org/2000/svg" xmlns:xlink="http://www.w3.org/1999/xlink" x="0px" y="0px"
	 viewBox="0 0 2000 2000" style="enable-background:new 0 0 2000 2000;" xml:space="preserve">
<path d="M1628.851,233.949c-16.698,20.389-33.435,40.824-51.432,62.798C1298.027,87.294,994.36,33.409,667.86,158.917
	c-228.014,87.65-392.819,249.321-489.51,473.18c-208.62,482.995,29.127,1009.805,485.505,1193.324
	c505.416,203.237,1011.614-79.328,1170.72-494.504c-253.75,0-506.185,0-761.299,0c0-30.797,0-58.101,0-87.685
	c294.222,0,588.5,0,882.973,0c-100.498,390.173-437.039,693.997-863.751,731.083c-484.712,42.127-898.761-255.694-1032.81-693.418
	c-125.361-409.354,22.988-850.675,384.4-1100.099C822.364-80.265,1310.856-34.746,1628.851,233.949z M1988.103,994.964
	c-0.409-63.774,5.939-54.269-54.824-54.337c-274.015-0.305-548.031-0.133-822.047-0.133c-13.212,0-26.424,0-42.051,0
	c0,30.495,0,57.823,0,86.323c305.978,0,609.168,0,916.71,0C1986.827,1013.936,1988.163,1004.446,1988.103,994.964z"/>
</svg>
