<?xml version="1.0" encoding="iso-8859-1"?>
<!-- Generator: Adobe Illustrator 19.0.0, SVG Export Plug-In . SVG Version: 6.00 Build 0)  -->
<svg version="1.1" id="Layer_1" xmlns="http://www.w3.org/2000/svg" xmlns:xlink="http://www.w3.org/1999/xlink" x="0px" y="0px"
	 viewBox="0 0 500 500" enable-background="new 0 0 500 500" xml:space="preserve">
<path d="M225.163,4.037c0,25.459,0,50.406,0,75.466c-28.838,5.313-54.513,17.191-77.267,35.261
	c-32.455,25.774-55.595,57.899-65.705,98.547c-4.99,20.062-5.83,40.336-2.503,60.879c5.177,31.965,19.021,59.629,39.942,84.048
	c18.638,21.754,40.82,38.776,67.001,50.469c12.136,5.42,24.724,9.457,38.336,11.682c0,24.914,0,50.018,0,75.126
	c-98.976-7.358-207.056-90.341-219.754-221.257C-8.596,131.878,97.374,17.009,225.163,4.037z M275.014,4.441
	c0,25.119,0,50.226,0,74.621c80.4,17.689,129.305,66.134,147.2,146.016c24.541,0,49.067,0,73.618,0
	C484.957,93.908,384.359,11.896,275.014,4.441z M495.682,275.108c-24.689,0-49.367,0-73.483,0
	c-18.332,80.348-67.382,128.646-147.245,145.876c0,24.848,0,49.796,0,74.765C392.19,486.91,486.351,398.459,495.682,275.108z"/>
</svg>
