<?xml version="1.0" encoding="iso-8859-1"?>
<!-- Generator: Adobe Illustrator 19.0.0, SVG Export Plug-In . SVG Version: 6.00 Build 0)  -->
<svg version="1.1" id="Layer_1" xmlns="http://www.w3.org/2000/svg" xmlns:xlink="http://www.w3.org/1999/xlink" x="0px" y="0px"
	 viewBox="0 0 2000 2000" style="enable-background:new 0 0 2000 2000;" xml:space="preserve">
<path d="M901.619,26.615c0,99.764,0,199.417,0,298.885c-124.932,23.815-233.899,77.906-330.068,159.808
	C509.269,538.35,456.116,598.82,413.786,668.399c-43.94,72.226-76.269,149.396-86.87,234.133
	c-4.314,34.483-9.146,69.236-9.117,103.863c0.083,99.332,24.767,193.142,69.64,281.659c39.592,78.101,92.682,146.165,156.466,205.69
	c95.846,89.446,207.428,150.27,335.463,180.06c3.91,0.91,8.064,0.747,12.096,1.156c3.083,0.312,6.154,0.737,10.234,1.233
	c0,100.423,0,200.071,0,299.826c-437.47-39.076-856.386-407.193-875.728-934.146C4.48,456.388,458.372,66.099,901.619,26.615z
	 M1682.844,901.967c97.453,0,195.198,0,294.166,0c-29.554-264.883-132.472-490.046-339.007-661.401
	c-155.885-129.333-337.863-194.426-538.97-215.339c0,101.783,0,200.684,0,298.406
	C1417.985,394.018,1612.026,585.538,1682.844,901.967z M1974.714,1100.559c-97.953,0-195.839,0-291.825,0
	c-71.912,318.25-266.323,509.412-583.888,578.607c0,97.42,0,196.323,0,297.378
	C1580.641,1937.597,1940.388,1573.863,1974.714,1100.559z"/>
</svg>
