<?xml version="1.0" encoding="iso-8859-1"?>
<!-- Generator: Adobe Illustrator 19.0.0, SVG Export Plug-In . SVG Version: 6.00 Build 0)  -->
<svg version="1.1" id="Layer_1" xmlns="http://www.w3.org/2000/svg" xmlns:xlink="http://www.w3.org/1999/xlink" x="0px" y="0px"
	 viewBox="0 0 2000 2000" style="enable-background:new 0 0 2000 2000;" xml:space="preserve">
<path d="M1686.919,1469.232c-169.356,0-338.935,0-509.77,0c-6.555,42.461-25.164,77.599-59.882,102.33
	c-24.373,17.362-51.984,27.295-82.296,26.965c-36.272-0.395-67.916-12.854-95.427-36.991c-27.652-24.26-41.14-55.482-46.981-91.915
	c-194.486,0-387.711,0-583.045,0c-9.719,53.493-35.889,95.411-88.443,117.461c-32.423,13.604-64.957,15.331-98.14,4.132
	c-72.504-24.47-112.792-96.107-93.27-171.835c17.586-68.218,89.01-122.58,181.939-98.923
	c145.046-225.817,290.569-452.377,436.72-679.916c-28.155-34.777-42.687-73.773-35.643-118.56
	c5.273-33.524,20.792-61.908,46.099-84.835c48-43.484,127.611-48.303,181.713-5.704c29.192,22.986,46.755,53.417,53.145,89.893
	c6.453,36.84-3.593,70.555-24.067,104.415c80.135,67.874,159.741,135.299,240.644,203.823
	c112.832-73.21,224.525-145.68,337.576-219.033c-19.925-42.414-22.684-85.062-2.439-127.502
	c15.624-32.752,40.202-57.068,73.97-70.515c60.341-24.029,137.263-9.195,177.798,60.711c19.424,33.499,23.161,69.574,13.503,107.31
	c-9.525,37.216-32.861,63.897-64.777,86.311c60.737,215.03,121.406,429.82,182.46,645.969
	c50.583,3.382,93.001,22.057,121.526,64.508c17.547,26.114,25.781,55.531,23.967,87.41
	c-3.768,66.199-55.293,122.437-122.197,132.298c-40.162,5.92-76.22-5.086-107.898-29.879
	C1717.74,1546.843,1714.481,1540.292,1686.919,1469.232z M893.406,1442.902c3.968-48.458,31.147-81.941,65.826-109.2
	c-32.48-105.417-63.533-208.729-97.069-314.011c-97.163,63.134-191.256,124.298-285.374,185.424
	c-94.53,61.393-189.547,122.053-282.382,183.654c5.694,20.017,10.423,36.642,15.398,54.133
	C503.655,1442.902,696.957,1442.902,893.406,1442.902z M1713.102,1372.105c-129.372-109.514-259.286-220.067-391.667-331.188
	c-63.038,106.639-124.361,210.379-186.154,314.911c23.269,24.757,37.023,53.919,41.53,87.324c171.576,0,341.175,0,509.882,0
	C1695.514,1419.424,1703.944,1396.743,1713.102,1372.105z M278.978,1368.922c192.217-124.717,383.293-248.693,576.094-373.788
	c-32.074-103.887-63.855-206.826-95.33-308.774c-19.355-2.28-35.788-4.216-52.144-6.143
	c-145.481,226.544-290.178,451.866-435.044,677.452C274.629,1361.303,276.236,1364.118,278.978,1368.922z M1334.218,1019.148
	c133.51,112.977,264.908,224.166,397.264,336.167c9.977-8.142,18.992-15.499,27.338-22.309
	c-22.149-98.343-174.594-629.792-185.623-647.251c-12.23-1.519-24.617-3.057-39.078-4.853
	C1467.999,792.781,1401.769,904.846,1334.218,1019.148z M1108.247,860.078c-62.631,40.731-123.222,80.135-183.55,119.368
	c34.872,112.935,68.96,223.33,102.903,333.257c17.048,1.948,31.433,3.591,47.201,5.393
	c63.639-107.755,126.974-214.996,191.471-324.205C1213.572,949.266,1161.664,905.311,1108.247,860.078z M1278.977,972.302
	c65.659-111.064,129.755-219.483,193.958-328.084c-2.585-3.146-4.059-5.547-6.107-7.262c-2.05-1.717-4.673-2.749-7.758-4.482
	c-109.22,70.908-218.263,141.701-329.188,213.716C1179.999,888.581,1227.789,929.004,1278.977,972.302z M1088.683,843.464
	c-80.481-68.05-157.428-133.112-234.72-198.465c-9.891,7.57-17.96,13.746-26.182,20.039
	c29.948,96.927,59.309,191.953,89.492,289.642C975.264,917.053,1030.459,881.241,1088.683,843.464z"/>
</svg>
