<?xml version="1.0" encoding="iso-8859-1"?>
<!-- Generator: Adobe Illustrator 19.0.0, SVG Export Plug-In . SVG Version: 6.00 Build 0)  -->
<svg version="1.1" id="Layer_1" xmlns="http://www.w3.org/2000/svg" xmlns:xlink="http://www.w3.org/1999/xlink" x="0px" y="0px"
	 viewBox="0 0 500 500" enable-background="new 0 0 500 500" xml:space="preserve">
<path d="M477.467,257.021c-2.388-6.706-7.098-10.395-11.59-13.899c-14.136-11.027-30.49-17.247-47.914-20.865
	c-16.081-3.338-32.146-2.274-48.313-0.355c-20.125,2.389-39.87,6.401-59.392,11.752c-2.206,0.605-5.197,0.505-7.159-0.529
	c-8.489-4.474-16.73-9.416-25.906-14.671c5.78-4.871,10.801-9.467,16.19-13.58c24.797-18.928,52.383-31.634,83.258-36.926
	c31.384-5.379,61.115-1.148,87.928,16.593c18.954,12.541,28.41,30.769,29.096,53.73c0.791,26.484-6.764,50.073-22.391,71.383
	c-14.299,19.499-33.339,31.126-56.832,35.996c-14.055,2.914-27.941,1.987-42.143,0.389c-26.249-2.953-50.107-12.676-73.472-23.833
	c-33.875-16.175-67.019-33.768-99.718-52.26c-27.803-15.723-55.802-31.19-85.218-43.866c-15.522-6.689-31.755-8.623-48.215-6.609
	c-11.889,1.455-22.798,6.515-31.583,15.094c-4.645,4.535-9.609,8.849-13.54,14.281c6.448,8.914,13.621,15.783,22.547,20.92
	c19.724,11.351,40.831,17.067,63.646,16.657c25.718-0.463,50.726-5.349,75.537-11.597c4.64-1.169,9.243-2.488,14.141-3.814
	c8.567,5.128,17.237,10.318,26.722,15.996c-2.313,2.302-4.103,4.311-6.12,6.057c-28.918,25.035-62.081,40.944-100.127,46.102
	c-23.891,3.239-46.869-0.159-68.926-10.014c-23.253-10.39-37.059-28.272-41.644-53.062c-1.64-8.866-1.6-17.9-0.762-27.122
	c1.348-14.849,5.591-28.6,11.647-41.93c4.126-9.082,10.517-16.444,18.023-23.148c9.339-8.341,19.185-15.445,30.884-20.171
	c6.687-2.701,13.549-4.42,20.53-4.702c12.11-0.489,24.456-1.359,36.359,0.339c50.744,7.242,96.013,29.141,139.957,54.196
	c12.521,7.139,24.538,15.232,37.36,21.762c27.34,13.923,53.982,29.365,83.158,39.46c11.985,4.147,24.227,6.991,36.864,7.826
	c17.172,1.134,32.443-3.776,45.465-15.206C469.747,263.948,473.628,260.443,477.467,257.021z"/>
</svg>
