<?xml version="1.0" encoding="iso-8859-1"?>
<!-- Generator: Adobe Illustrator 19.0.0, SVG Export Plug-In . SVG Version: 6.00 Build 0)  -->
<svg version="1.1" id="Layer_1" xmlns="http://www.w3.org/2000/svg" xmlns:xlink="http://www.w3.org/1999/xlink" x="0px" y="0px"
	 viewBox="0 0 2000 2000" style="enable-background:new 0 0 2000 2000;" xml:space="preserve">
<path d="M899.171,441.634c16.045,81.511,32.413,164.66,49.452,251.222c113.463,0.657,206.007,41.561,265.916,139.307
	c59.344,96.826,57.223,196.265,2.658,297.55c106.674,100.093,213.085,199.939,321.564,301.726
	c52.73-41.784,111.828-50.83,173.943-38.476c43.48,8.648,78.709,34.118,103.469,70.174c52.602,76.601,49.165,161.851-9.448,233.651
	c-52.024,63.729-159.821,84.5-226.691,45.735c-81.107-47.019-131.962-129.875-87.099-255.539
	c-104.645-98.396-210.906-198.313-319.748-300.657c-82.486,77.612-178.686,93.168-285.464,71.014
	c-52.795,149.255-104.884,296.51-156.456,442.307c55.994,78.825,36.549,166.566,5.259,207.463
	c-55.983,73.172-140.168,89.91-208.047,55.497c-93.883-47.595-122.189-126.771-86.95-226.329
	c-23.001-16.044-43.82-30.567-63.921-44.588c-84.089,42.311-158.279,26.41-206.621-40.726
	c-39.842-55.333-31.205-133.174,12.406-179.618c47.566-50.656,119.165-66.136,172.512-34.998
	c80.222,46.825,100.768,105.37,69.304,198.594c2.067,2.526,3.862,5.969,6.681,7.962c16.825,11.895,33.887,23.456,52.15,36.011
	c57.038-40.054,118.027-51.288,186.916-23.917c50.758-142.506,100.753-282.867,151.733-425.996
	c-98.533-66.031-146.678-157.585-135.334-276.77C698.81,831.902,767.82,754.671,878.651,708.52
	c-16.876-85.854-33.278-169.293-50.447-256.639c-80.002,0.568-144.87-28.673-190.887-95.061
	c-30.079-43.394-39.03-91.661-35.303-142.779c6.917-94.868,86.905-175.622,170.841-190.043
	C892.259,3.484,979.823,63.84,1015.794,149.027C1052.02,234.82,1045.987,358.636,899.171,441.634z M969.098,1148.059
	c86.144,3.382,168.154-65.111,166.9-166.19c-1.213-97.73-65.81-162.833-163.701-165.293
	c-93.341-2.346-165.067,70.891-167.629,162.025C801.737,1082.89,896.632,1153.928,969.098,1148.059z M689.492,234.717
	c-5.549,84.161,73.561,135.483,129.668,134.269c65.356-1.414,130.119-60.909,129.717-132.372
	c-0.374-66.529-53.41-130.767-129.871-130.543C744.398,106.29,687.213,160.046,689.492,234.717z M1563.97,1572.275
	c-2.998,59.759,39.725,101.924,99.107,102.873c63.153,1.01,102.218-44.942,103.782-100.006
	c1.524-53.689-47.249-102.89-101.052-103.74C1609.078,1470.505,1564.594,1514.569,1563.97,1572.275z M513.417,1809.004
	c0.414,44.605,39.528,84.357,84.43,82.382c52.634-2.315,80.646-32.914,84.14-82.773c2.993-42.707-40.586-85.715-82.615-86.406
	C555.171,1721.479,512.999,1764.065,513.417,1809.004z M220.992,1597.453c40.122,50.492,69.059,59.629,109.042,35.738
	c34.25-20.465,45.465-55.06,30.556-94.251c-12.18-32.018-48.127-51.49-82.208-44.53
	C234.941,1503.281,216.167,1536.399,220.992,1597.453z"/>
</svg>
