<?xml version="1.0" encoding="iso-8859-1"?>
<!-- Generator: Adobe Illustrator 19.0.0, SVG Export Plug-In . SVG Version: 6.00 Build 0)  -->
<svg version="1.1"
	 id="svg2" xmlns:inkscape="http://www.inkscape.org/namespaces/inkscape" xmlns:sodipodi="http://sodipodi.sourceforge.net/DTD/sodipodi-0.dtd" xmlns:cc="http://creativecommons.org/ns#" xmlns:svg="http://www.w3.org/2000/svg" xmlns:dc="http://purl.org/dc/elements/1.1/" xmlns:rdf="http://www.w3.org/1999/02/22-rdf-syntax-ns#" sodipodi:docname="Moin_logo.svg" inkscape:version="0.48.5 r10040"
	 xmlns="http://www.w3.org/2000/svg" xmlns:xlink="http://www.w3.org/1999/xlink" x="0px" y="0px" viewBox="-24 51 450 400"
	 enable-background="new -24 51 450 400" xml:space="preserve">
<path id="layer1" transform="translate(0,-652.36218)" inkscape:label="Layer 1" inkscape:groupmode="layer" d="M-7.566,1097.458
	c-7.862-0.866-13.625-7.309-13.625-15.233c0-2.393,0.386-4.292,1.261-6.204c0.295-0.644,14.487-25.316,31.539-54.825
	c17.052-29.51,31.581-54.655,32.288-55.88c5.387-9.332,11.166-19.341,12.582-21.79c0.931-1.611,3.671-6.355,6.089-10.543
	c2.418-4.188,5.74-9.934,7.383-12.769c1.643-2.835,16.722-28.93,33.509-57.988c16.787-29.059,34.024-58.896,38.304-66.306
	c17.196-29.767,20.601-35.663,33.086-57.285c7.143-12.371,13.332-23.02,13.754-23.664c1.843-2.814,4.799-5.018,8.217-6.125
	c2.688-0.871,6.444-0.872,9.138-0.003c3.025,0.976,5.317,2.528,7.3,4.942c0.536,0.652,4.689,7.617,9.229,15.478
	c14.56,25.208,21.084,36.506,28.275,48.968c3.867,6.701,9.771,16.928,13.121,22.727c8.186,14.17,19.156,33.174,35.505,61.503
	c7.474,12.951,15.751,27.29,18.394,31.864s6.967,12.06,9.609,16.635c2.642,4.575,6.359,11.006,8.26,14.292s5.613,9.717,8.25,14.292
	c4.034,7.001,18.332,31.772,22.72,39.362c0.708,1.224,5.059,8.763,9.67,16.752c11.766,20.387,18.173,31.484,22.725,39.362
	c19.183,33.195,23.463,40.717,23.929,42.056c2.953,8.487-1.954,17.711-10.599,19.922c-1.749,0.447-2.706,0.462-29.835,0.462
	c-31.184,0-29.171,0.1-32.708-1.631c-2.273-1.112-4.576-3.145-5.905-5.211c-0.522-0.812-3.316-5.587-6.209-10.613
	c-2.893-5.026-8.032-13.935-11.419-19.798s-12.458-21.573-20.158-34.91c-7.7-13.337-17.148-29.703-20.996-36.367
	s-7.471-12.769-8.051-13.566c-5.356-7.363-16.492-8.359-23.287-2.084c-1.646,1.521-2.542,2.819-5.574,8.087
	c-1.484,2.577-8.023,13.911-14.531,25.187c-6.509,11.276-12.99,22.504-14.402,24.953c-1.413,2.448-6.77,11.727-11.906,20.618
	c-5.135,8.892-12.227,21.175-15.758,27.296s-6.851,11.687-7.376,12.369c-1.89,2.453-5.22,4.562-8.384,5.307
	c-2.289,0.54-56.743,0.54-59.039,0c-3.613-0.849-7.547-3.737-9.436-6.928c-1.92-3.242-2.684-7.538-1.952-10.974
	c0.521-2.446,1.183-3.738,7.688-15.003c3.162-5.477,10.681-18.498,16.707-28.936c22.755-39.41,34.093-59.048,47.277-81.887
	c26.491-45.891,32.703-56.65,36.082-62.493c3.73-6.45,4.205-7.4,4.761-9.532c0.492-1.883,0.493-5.457,0.003-7.402
	c-0.882-3.503-3.819-8.29-6.386-10.407c-3.224-2.659-6.637-3.782-10.916-3.593c-3.958,0.175-6.888,1.336-9.799,3.883
	c-1.746,1.527-2.664,2.954-9.301,14.452c-3.347,5.799-12.201,21.139-19.676,34.09c-12.858,22.277-22.078,38.25-41.251,71.46
	c-7.823,13.551-11.063,19.162-22.663,39.245c-7.855,13.6-13.755,23.826-26.227,45.454c-6.539,11.34-12.317,21.282-12.838,22.093
	c-1.933,3.007-5.659,5.629-9.197,6.472c-1.162,0.277-6.105,0.354-28.467,0.447c-14.884,0.061-27.836,0.027-28.783-0.077
	L-7.566,1097.458z M242.714,1096.995c-5.472-1.435-9.687-5.81-11.011-11.432c-0.273-1.157-0.339-2.263-0.251-4.154
	c0.123-2.639,0.493-4.099,1.574-6.22c1.234-2.42,18.184-31.627,19.134-32.969c1.777-2.511,4.481-4.446,7.805-5.587
	c1.958-0.672,7.016-0.632,9.255,0.073c2.948,0.929,6.104,3.264,7.838,5.799c0.357,0.521,3.843,6.483,7.748,13.249
	c3.905,6.765,7.891,13.671,8.858,15.346c0.967,1.675,2.111,3.787,2.541,4.693c1.997,4.201,1.927,8.774-0.202,13.231
	c-1.273,2.666-4.127,5.562-6.749,6.849c-3.313,1.626-2.568,1.579-24.835,1.569C245.623,1097.432,244.281,1097.405,242.714,1096.995
	L242.714,1096.995z"/>
</svg>
