<?xml version="1.0" encoding="iso-8859-1"?>
<!-- Generator: Adobe Illustrator 19.0.0, SVG Export Plug-In . SVG Version: 6.00 Build 0)  -->
<svg version="1.1" id="Layer_1" xmlns="http://www.w3.org/2000/svg" xmlns:xlink="http://www.w3.org/1999/xlink" x="0px" y="0px"
	 viewBox="0 0 2000 2000" style="enable-background:new 0 0 2000 2000;" xml:space="preserve">
<path d="M1977.289,997.791c0.339,540.563-436.604,977.711-977.039,977.498c-538.457-0.212-975.201-436.752-975.539-975.081
	C24.372,459.643,461.309,22.499,1001.744,22.711C1540.205,22.922,1976.951,459.461,1977.289,997.791z M1756.811,1315.27
	c-200.114-283.772-395.64-561.037-593.5-841.612c-56.21,80.889-108.758,156.507-163.996,235.997
	c-51.361-73.469-99.407-142.195-150.174-214.815c-199.706,274.316-395.745,543.595-596.095,818.797c73.27,0,139.033,0,209.148,0
	C594.598,1133.091,728.942,949.9,866.074,762.906c16.702,26.884,30.877,49.701,45.738,73.622
	c-109.612,158.669-217.756,315.214-329.983,477.669c282.479,0,555.158,0,834.616,0c-108.12-156.669-212.692-308.196-317.295-459.768
	c18.59-27.085,34.882-50.821,53.36-77.744c132.84,183.196,261.963,361.265,390.543,538.585
	C1613.346,1315.27,1680.618,1315.27,1756.811,1315.27z M1007.403,991.461c-46.512,69.451-89.133,133.092-134.984,201.557
	c88.605,0,169.001,0,259.079,0C1088.834,1123.724,1049.812,1060.344,1007.403,991.461z"/>
</svg>
