<?xml version="1.0" encoding="iso-8859-1"?>
<!-- Generator: Adobe Illustrator 19.0.0, SVG Export Plug-In . SVG Version: 6.00 Build 0)  -->
<svg version="1.1" id="Layer_1" xmlns="http://www.w3.org/2000/svg" xmlns:xlink="http://www.w3.org/1999/xlink" x="0px" y="0px"
	 viewBox="0 0 500 500" style="enable-background:new 0 0 500 500;" xml:space="preserve">
<path d="M133.482,74.289c7.339,73.502,14.677,147.004,21.998,220.326c-49.039,44.9-97.727,89.479-146.414,134.057
	c-0.278-0.152-0.555-0.305-0.833-0.457c41.501-118.03,83.001-236.061,124.502-354.091C132.984,74.179,133.233,74.234,133.482,74.289
	z M367.92,74.122c-7.345,73.501-14.691,147.002-22.037,220.514c48.922,44.805,97.678,89.458,146.433,134.111
	c0.249-0.198,0.497-0.397,0.746-0.595C451.546,310.121,410.029,192.09,368.512,74.059C368.315,74.08,368.118,74.101,367.92,74.122z
	 M135.552,72.072c21.798,61.095,43.595,122.19,65.527,183.66c16.554-14.092,32.707-27.842,48.845-41.579c0-14.303,0-28.485,0-42.782
	c-37.978-33.249-75.969-66.509-113.961-99.77C135.826,71.757,135.689,71.914,135.552,72.072z M365.438,72.702
	c-0.227-0.131-0.454-0.261-0.681-0.392c-37.765,32.947-75.53,65.895-113.291,98.838c0,14.41,0,28.697,0,43.192
	c16.028,13.585,32.128,27.232,48.72,41.295C322.047,194.349,343.743,133.525,365.438,72.702z M135.301,77.771
	c7.115,71.657,14.231,143.313,21.425,215.762c14.824-12.573,29.083-24.668,43.332-36.755
	c-21.432-60.036-42.699-119.61-63.966-179.183C135.828,77.653,135.565,77.712,135.301,77.771z M365.268,78.036
	c-21.259,59.449-42.517,118.897-63.921,178.75c14.251,12.115,28.483,24.213,43.222,36.743
	c7.124-72.391,14.159-143.87,21.193-215.348C365.598,78.132,365.433,78.084,365.268,78.036z M201.529,256.989
	c15.974,43.233,31.877,86.274,47.78,129.315c0.205-0.072,0.41-0.145,0.615-0.217c0-56.372,0-112.743,0-169.999
	C233.451,230.009,217.562,243.438,201.529,256.989z M251.507,216.081c0,57.341,0,113.697,0,170.054
	c0.171,0.046,0.342,0.093,0.513,0.139c15.853-42.934,31.705-85.868,47.724-129.25C283.717,243.42,267.842,229.945,251.507,216.081z
	 M252.892,387.71c0.175,0.091,0.349,0.181,0.524,0.272c30.173-30.986,60.346-61.972,90.697-93.141
	c-14.555-12.334-28.694-24.317-43.345-36.733C284.717,301.558,268.805,344.634,252.892,387.71z M247.452,387.516
	c0.244-0.145,0.489-0.289,0.733-0.434c-15.847-42.899-31.694-85.797-47.639-128.962c-14.669,12.426-28.893,24.475-43.353,36.725
	C187.555,326.018,217.503,356.767,247.452,387.516z"/>
</svg>
