<?xml version="1.0" encoding="iso-8859-1"?>
<!-- Generator: Adobe Illustrator 19.0.0, SVG Export Plug-In . SVG Version: 6.00 Build 0)  -->
<svg version="1.1" id="Layer_1" xmlns="http://www.w3.org/2000/svg" xmlns:xlink="http://www.w3.org/1999/xlink" x="0px" y="0px"
	 viewBox="0 0 500 500" enable-background="new 0 0 500 500" xml:space="preserve">
<path d="M255.035,219.282c9.466-1.98,18.253-3.818,27.086-5.665c15.714,20.116,31.099,39.811,46.715,59.802
	c4.433,0,9.004,0,14.219,0c18.726-17.639,37.83-35.634,57.384-54.052c31.188,41.104,62.113,81.862,93.038,122.619
	c-0.339,0.297-0.678,0.593-1.017,0.89c-10.437-10.866-20.178-22.389-30.304-33.547c-10.317-11.368-20.523-22.836-30.763-34.273
	c-10.229-11.425-20.44-22.866-30.969-34.647c-11.735,12.812-23.218,25.349-35.099,38.321c8.027,29.502,16.098,59.166,24.169,88.83
	c-0.297,0.172-0.593,0.344-0.89,0.516c-35.352-42.36-70.705-84.72-106.216-127.27c-4.728,0-9.494,0-14.562,0
	c-0.292,1.513-0.558,2.891-1.027,5.325c-15.157-16.045-29.893-31.643-45.419-48.078c-22.615,65.74-44.925,130.593-67.236,195.446
	c-0.398-0.022-0.797-0.044-1.195-0.066c-2.319-21.491-4.638-42.983-6.996-64.837c-18.188-8.124-36.348-16.236-54.729-24.445
	c-28.23,23.145-56.281,46.142-84.332,69.139c-0.297-0.29-0.594-0.58-0.892-0.87c25.723-30.003,51.445-60.006,77.378-90.255
	c9.136,5.14,18.056,10.159,27.42,15.428c36.709-39.081,73.384-78.126,110.555-117.698
	C232.611,193.058,243.743,206.076,255.035,219.282z M288.461,168.521c-0.225,8.653,6.002,15.323,14.573,15.612
	c8.723,0.294,15.589-5.824,15.981-14.239c0.409-8.771-6.127-16.081-14.636-16.372C295.517,153.219,288.691,159.652,288.461,168.521z
	 M209.048,124.926c0.094,8.628,6.493,15.044,15.109,15.151c8.741,0.108,15.484-6.686,15.404-15.52
	c-0.077-8.436-6.844-15.233-15.167-15.233C215.584,109.324,208.952,116.067,209.048,124.926z M129.557,169.291
	c0.112,8.456,6.693,14.797,15.417,14.853c8.565,0.055,15.154-6.467,15.193-15.041c0.041-8.928-6.524-15.585-15.371-15.584
	C136.221,153.52,129.441,160.537,129.557,169.291z"/>
</svg>
