<?xml version="1.0" encoding="iso-8859-1"?>
<!-- Generator: Adobe Illustrator 19.0.0, SVG Export Plug-In . SVG Version: 6.00 Build 0)  -->
<svg version="1.1" id="Layer_1" xmlns="http://www.w3.org/2000/svg" xmlns:xlink="http://www.w3.org/1999/xlink" x="0px" y="0px"
	 viewBox="0 0 2000 2000" style="enable-background:new 0 0 2000 2000;" xml:space="preserve">
<path d="M1976.367,1001.731c0.943,534.703-445.489,994.615-1016.624,972.095C444.81,1953.521,20.69,1523.736,25.763,988.338
	C30.781,458.642,474.021,5.334,1039.125,26.065C1556.546,45.047,1977.662,473.09,1976.367,1001.731z M1903.848,1000.138
	c-0.905-498.488-407.412-905.463-902.901-903.942C502.259,97.728,97.212,503.719,98.353,1000.896
	c1.145,498.681,406.678,903.182,905.083,902.779C1498.465,1903.275,1904.748,1495.582,1903.848,1000.138z M1295.718,1048.906
	c39.783,141.888,78.965,281.635,120.85,431.022c-29.417,2.928-52.88,5.264-81.956,8.158
	c-33.035-116.791-65.115-230.207-99.292-351.037c-76.845,110.898-150.083,216.593-228.093,329.171
	c-77.386-111.61-151.077-217.891-228.213-329.141c-33.855,119.656-65.953,233.107-98.103,346.739
	c-30.721,0.028-57.644,12.563-80.209-15.05c38.916-138.698,77.838-277.42,117.878-420.127
	c-56.394-81.482-114.983-164.593-171.935-248.809c-73.807-109.139-29.382-253.366,90.982-294.787
	c74.186-25.53,142.621-11.842,199.546,42.399c55.746,53.118,73.392,119.191,52.821,193.807
	c-26.648,96.661-54.488,192.994-82.554,292.08c65.197,94.557,130.694,189.55,199.53,289.385
	c67.502-97.615,132.894-192.177,199.766-288.88c-26.814-95.306-54.342-191.583-80.949-288.114
	c-33.27-120.704,35.916-231.069,157.384-249.305c81.284-12.203,146.4,18.033,190.11,86.773
	c43.671,68.678,43.906,140.682-1.529,209.103C1414.819,878.032,1355.413,962.13,1295.718,1048.906z M747.314,946.601
	c22.936-82.613,44.391-157.678,64.5-233.101c13.193-49.484-9.006-98.982-53.397-123.762
	c-44.997-25.119-97.907-17.542-133.791,19.161c-35.309,36.114-43.932,92.13-16.494,134.075
	C651.705,809.584,697.842,874.518,747.314,946.601z M1267.24,946.034c49.061-71.373,95.25-136.099,138.677-202.628
	c27.963-42.839,19.719-97.694-15.633-133.786c-36.15-36.908-88.885-44.924-133.718-20.326
	c-43.853,24.061-67.774,75.117-54.837,123.786C1221.779,788.513,1243.883,863.402,1267.24,946.034z"/>
</svg>
