<?xml version="1.0" encoding="iso-8859-1"?>
<!-- Generator: Adobe Illustrator 19.0.0, SVG Export Plug-In . SVG Version: 6.00 Build 0)  -->
<svg version="1.1" id="Layer_1" xmlns="http://www.w3.org/2000/svg" xmlns:xlink="http://www.w3.org/1999/xlink" x="0px" y="0px"
	 viewBox="0 0 500 500" style="enable-background:new 0 0 500 500;" xml:space="preserve">
<path d="M5.468,459.934c0-79.201,0-157.573,0-237.972C87.695,277.755,168.663,332.694,250,387.882
	c80.717-54.791,161.561-109.669,243.73-165.445c0,79.911,0,158.405,0,237.497C331.388,459.934,168.915,459.934,5.468,459.934z
	 M6.3,200.742C87.442,255.849,168.59,310.96,250.388,366.514c81.411-55.282,162.686-110.471,243.614-165.425
	c0-50.568,0-100.51,0-151.499c-81.972,55.652-162.948,110.627-244.361,165.899C168.424,160.372,87.892,105.72,6.3,50.349
	C6.3,101.423,6.3,150.875,6.3,200.742z"/>
</svg>
