<?xml version="1.0" encoding="iso-8859-1"?>
<!-- Generator: Adobe Illustrator 19.0.0, SVG Export Plug-In . SVG Version: 6.00 Build 0)  -->
<svg version="1.1" id="Layer_1" xmlns="http://www.w3.org/2000/svg" xmlns:xlink="http://www.w3.org/1999/xlink" x="0px" y="0px"
	 viewBox="0 0 2000 2000" style="enable-background:new 0 0 2000 2000;" xml:space="preserve">
<path d="M28.899,999.134c4.4-545.593,443.508-973.499,981.663-972.1c522.033,1.357,975.711,429.066,966.573,990.938
	c-8.611,529.471-433.543,957.733-975.574,956.7C449.5,1973.621,30.298,1528.443,28.899,999.134z M127.726,998.69
	c-7.346,477.26,374.741,858.373,829.954,878.862c543.856,24.479,929.876-416.778,928.567-868.35
	c-1.428-492.596-385.469-886.9-883.03-889.871C472.756,116.164,117.123,564.272,127.726,998.69z M1743.619,997.011
	c6.108,403.081-324.37,740.666-732.343,745.102c-393.629,4.28-745.689-306.685-749.579-734.398
	c-3.722-409.251,316.144-744.22,736.609-748.111C1419.258,255.709,1745.047,597.114,1743.619,997.011z M296.845,1002.046
	c-6.153,380.589,309.498,693.789,680.207,706.573c411.664,14.196,723.229-322.263,734.306-683.728
	c12.469-406.87-324.34-734.209-711.765-731.944C616.387,295.188,289.389,614.516,296.845,1002.046z M752.08,603.7
	c-112.492,45.861-171.447,198.502-73.931,310.57c33.362,38.341,73.125,67.103,114.271,95.572
	c28.49,19.712,57.232,41.199,79.435,67.35c32.294,38.036,14.245,92.968-33.227,108.485c-16.698,5.458-35.87,6.283-53.617,5.032
	c-50.699-3.571-96.468-23.202-139.908-48.397c-19.873-11.526-38.981-24.372-61.936-38.823
	c-25.964,41.514-50.96,81.179-67.578,130.309c46.29,24.805,89.589,48.007,133.693,71.641c-8.281,36.918-16.451,73.34-25.673,114.45
	c34.021,6.777,62.059,12.362,91.592,18.244c10.302-39.492,19.36-74.217,29.011-111.213c22.128,1.448,41.455,2.712,61.235,4.006
	c-1.03,46.595-28.442,84.405-22.75,131.435c29.504,5.368,57.808,10.518,88.414,16.087c13.605-56.444,25.935-107.598,37.168-154.197
	c32.459-19.887,60.104-36.825,87.723-53.747c92.94,164.51,307.757,162.311,417.558,107.401
	c-5.143-35.861-10.482-73.091-16.039-111.839c-49.935,3.989-94.836,19.964-141.801,4.313
	c-48.668-16.218-84.231-42.103-97.371-97.677c42.931-2.738,81.931-5.224,119.778-7.638c0-31.212,0-57.286,0-85.662
	c-40.76-5.206-80.342,0.687-119.128-5.264c13.939-64.467,58.478-104.452,118.987-106.583c37.658-1.326,75.505,2.685,116.914,4.457
	c6.329-37.318,12.822-75.598,19.312-113.864c-52.728-24.144-104.019-24.893-155.865-23.965
	c-50.743,0.908-100.991,8.885-143.06,36.13c-42.227,27.347-78.575,63.771-115.782,94.786
	c-34.831-26.009-69.556-51.498-103.771-77.655c-19.784-15.125-39.757-30.252-57.847-47.287
	c-29.076-27.382-37.193-58.103-24.799-84.177c10.93-22.994,48.346-40.567,81.654-38.271c3.316,0.229,6.628,0.784,9.893,1.435
	c49.202,9.812,96.453,24.784,139.196,51.989c9.094,5.788,18.836,10.556,30.143,16.828c20.3-41.372,38.945-79.373,57.395-116.976
	c-17.549-15.579-31.041-27.557-45.977-40.817c7.281-35.965,14.429-71.269,22.243-109.866c-28.139-8.952-54.388-17.303-84.471-26.874
	c-12.281,36.873-23.427,70.34-35.046,105.225c-21.822-7.207-38.507-12.717-54.976-18.156c6.566-34.783,12.594-66.716,18.806-99.62
	c-30.636-13.114-56.211-28.064-87.178-20.971c-12.057,42.006-23.408,81.554-33.854,117.95
	C798.847,588.257,774.83,594.425,752.08,603.7z"/>
</svg>
