<?xml version="1.0" encoding="iso-8859-1"?>
<!-- Generator: Adobe Illustrator 19.0.0, SVG Export Plug-In . SVG Version: 6.00 Build 0)  -->
<svg version="1.1" id="Layer_1" xmlns="http://www.w3.org/2000/svg" xmlns:xlink="http://www.w3.org/1999/xlink" x="0px" y="0px"
	 viewBox="0 0 500 500" enable-background="new 0 0 500 500" xml:space="preserve">
<path d="M489.903,31.992c2.646,2.646,4.151,4.151,5.798,5.798c0,81.213-0.049,162.569,0.061,243.924
	c0.014,10.158-4.133,17.3-12.667,22.688c-14.101,8.901-27.965,18.169-40.655,29.096c-2.952,2.542-6.768,4.081-11.149,6.645
	c-1.693-1.562-3.513-3.242-5.868-5.415c0-53.146,0-106.716,0-162.147c-11.339,7.657-22.264,13.559-31.349,21.552
	c-10.763,9.47-23.352,16.002-34.673,24.493c-14.517,10.887-29.506,21.146-44.292,31.676c-7.823,5.572-15.647,11.144-23.7,16.879
	c0,50.516-0.359,100.993,0.215,151.46c0.176,15.48-4.29,26.644-18.69,33.702c-7.138,3.498-13.313,8.933-20.048,13.301
	c-1.611,1.045-3.717,1.327-6.636,2.31c-10.912-13.18-30.475-16.546-37.758-35.662c0-53.825,0-109.118,0-165.259
	c-10.819-7.478-22.065-15.092-33.141-22.946c-15.235-10.802-30.322-21.813-45.509-32.683c-14.76-10.565-29.542-21.1-44.37-31.57
	c-3.152-2.225-6.544-4.111-10.532-6.593c0,54.178,0,107.736,0,158.15c-2.98,4.362-4.442,6.503-6.49,9.5
	c-22.004-15.765-43.336-31.049-64.132-45.948c0-86.444,0-171.489,0-257.792c1.079-1.064,2.889-2.848,5.205-5.131
	c7.17,4.4,14.141,8.22,20.614,12.751c12.011,8.407,23.878,17.036,35.543,25.918c26.954,20.521,55.875,38.305,82.276,59.62
	c8.516,6.875,18.451,11.964,27.482,18.236c11.611,8.063,22.837,16.682,34.466,24.719c12.763,8.82,25.796,17.25,39.781,26.563
	c13.009-8.5,26.86-16.527,39.56-26.083c19.818-14.912,40.575-28.485,60.232-43.641c14.239-10.979,30.384-19.467,44.787-30.256
	c12.971-9.716,25.837-19.527,39.225-28.683c14.98-10.245,29.59-21.03,44.42-31.498C481.546,37.097,485.409,34.853,489.903,31.992z"
	/>
</svg>
