<?xml version="1.0" encoding="iso-8859-1"?>
<!-- Generator: Adobe Illustrator 19.0.0, SVG Export Plug-In . SVG Version: 6.00 Build 0)  -->
<svg version="1.1" id="Layer_1" xmlns="http://www.w3.org/2000/svg" xmlns:xlink="http://www.w3.org/1999/xlink" x="0px" y="0px"
	 viewBox="0 0 2000 2000" style="enable-background:new 0 0 2000 2000;" xml:space="preserve">
<path d="M20.511,1042.544c-0.056-384.998,153.081-687.111,481.798-880.978c343.039-202.314,696.318-192.322,1034.134,18.704
	c311.399,194.523,470.865,549.207,442.556,861.532c-151.084,0-302.37,0-456.837,0c-72.906-124.899-146.98-251.796-222.581-381.312
	c-100.269,143.602-197.649,283.068-296.433,424.544c-99.284-142.252-196.145-281.031-296.411-424.69
	c-75.779,130.02-149.537,256.571-222.756,382.2C329.705,1042.544,178.261,1042.544,20.511,1042.544z M317.717,924.577
	c103.227-410.474,351.868-642.593,786.291-590.037c333.268,40.318,516.412,265.108,580.213,589.05c37.727,0,75.349,0,113.024,0
	c-20.353-332.153-330.35-746.161-846.051-717.704c-416.488,22.982-718.773,370.023-741.616,718.691
	C246.517,924.577,283.387,924.577,317.717,924.577z M33.932,1162.227c175.879,0,346.018,0,516.658,0
	c54.588-93.466,108.561-185.88,165.17-282.807c96.141,137.717,190.185,272.429,287.438,411.739
	c96.882-138.822,191.404-274.264,287.503-411.965c55.6,95.341,109.587,187.914,164.86,282.693c170.021,0,341.161,0,512.554,0
	c-47.98,403.95-408.913,777.425-854.048,817.954c-301.411,27.443-569.884-53.11-791.021-266.372
	C167.231,1563.203,71.774,1380.095,33.932,1162.227z M1630.102,1280.401c-132.549,255.2-334.664,403.614-625.664,404.095
	c-292.476,0.484-495.366-148.015-627.977-404.135c-38.553,0-78.806,0-119.297,0c82.159,259.8,354.93,502.837,692.198,522.868
	c432.207,25.669,722.284-274.591,800.172-522.828C1710.099,1280.401,1670.908,1280.401,1630.102,1280.401z"/>
</svg>
