<?xml version="1.0" encoding="utf-8"?>
<!-- Generator: Adobe Illustrator 25.1.0, SVG Export Plug-In . SVG Version: 6.00 Build 0)  -->
<svg version="1.1" id="logo-m" xmlns="http://www.w3.org/2000/svg" xmlns:xlink="http://www.w3.org/1999/xlink" x="0px" y="0px"
	 viewBox="0 0 500 500" style="enable-background:new 0 0 500 500;" xml:space="preserve">
<path d="M250.6,5.3C115.9,5.3,6.7,114.5,6.7,249.2s109.2,243.9,243.9,243.9s243.9-109.2,243.9-243.9S385.3,5.3,250.6,5.3z
	 M344.1,338H151.7v-29.4h192.4V338z M344.1,215.9V282h-35.6v-69c0-12.9-1.9-27.3-20.3-27.3c-21.3,0-21.8,19.9-21.8,37.8V282h-35.6
	v-69.8c0-9.3-0.2-26.6-19.9-26.6c-22.2,0-22.2,19.2-22.2,27.3v69H153v-96h-0.1c0-7.7-0.5-15.1-1.2-22.7H186l1.2,15.6
	c3.8-5.3,13.1-18.2,37.3-18.2c27.8,0,35.6,17,38,22.7c10-19.4,26.3-22.5,38.8-22.5c24.4,0,34.2,14.6,36.8,19.4
	C344.6,190.7,344.1,205.3,344.1,215.9z"/>
</svg>
