<?xml version="1.0" encoding="iso-8859-1"?>
<!-- Generator: Adobe Illustrator 19.0.0, SVG Export Plug-In . SVG Version: 6.00 Build 0)  -->
<svg version="1.1" id="Layer_1" xmlns="http://www.w3.org/2000/svg" xmlns:xlink="http://www.w3.org/1999/xlink" x="0px" y="0px"
	 viewBox="0 0 2000 2000" style="enable-background:new 0 0 2000 2000;" xml:space="preserve">
<path d="M1002.97,11.996c488.431-7.324,979.155,397.257,973.998,999.364c-4.833,564.267-480.718,980.175-996.12,971.857
	c-510.17-8.233-980.605-450.4-959.438-1029.35C39.892,448.331,474.999,1.096,1002.97,11.996z M1885.639,957.391
	c-12.665-480.49-426.832-888.23-936.886-856.031C406.65,135.583,77.658,603.292,110.499,1049.85
	c39.59,538.328,484.851,871.678,938.239,842.143C1590.678,1856.691,1915.249,1387.016,1885.639,957.391z M325.518,1279.721
	c-1.612-30.576-1.39-53.377-4.337-75.761c-4.156-31.571-8.781-63.311-16.613-94.112c-10.624-41.778-2.585-72.019,27.678-92.264
	c29.573-19.784,57.29-15.524,83.306,5.784c29.184,23.902,33.052,52.746,15.691,94.155c-7.631,18.201-13.058,37.326-22.269,64.13
	c121.099,8.022,231.185,1.699,334.958-44.377c70.288-31.208,112.357-86.696,120.472-166.344
	c6.476-63.565,5.05-125.358-25.504-182.99c-22.722-42.859-59.629-71.946-103.732-89.163
	c-101.059-39.452-206.478-46.73-325.307-40.178c10.279,29.628,17.18,52.207,25.913,74.054c12.715,31.809,7.116,59.418-17.563,82.407
	c-22.185,20.665-47.803,27.995-76.729,13.932c-30.804-14.976-45.775-40.374-40.966-73.645
	c8.809-60.945,20.291-121.503,32.108-190.719c22.255-0.895,49.372-4.301,76.174-2.64c87.901,5.448,176.652,6.726,263.312,20.613
	c163.699,26.233,268.719,117.976,290.864,295.285c73.074,0,144.758-1.308,216.357,0.594c32.098,0.853,64.77,5.195,95.881,13.083
	c77.102,19.548,124.926,67.669,135.63,148.969c2.367,17.978,7.111,35.644,11.181,55.505c15.759,0,29.05,0,44.369,0
	c29.804-49.803,67.162-88.048,133.232-79.465c49.48,6.428,80.319,34.767,96.706,79.093c16.597,44.893,2.316,98.32-33.272,126.982
	c-36.535,29.425-77.153,43.527-122.535,19.268c-14.164-7.572-29.519-15.202-40.113-26.692
	c-22.245-24.126-47.121-25.962-82.574-14.047c0,71.453,0,144.961,0,215.471c-12.366,7.271-18.184,13.655-24.054,13.701
	c-102.269,0.823-204.649,3.778-306.783,0.108c-73.878-2.655-126.996-43.659-152.419-113.445
	c-23.696-65.045-2.901-142.265,53.171-181.721c28.616-20.137,66.792-31.938,102.013-36.187
	c50.452-6.088,102.155-1.837,153.323-1.959c22.894-0.055,45.789-0.009,67.561-0.009c11.4-80.881-18.117-118.212-96.085-120.888
	c-81.229-2.788-162.628-0.622-247.685-0.622c-6.357,19.31-13.753,38.045-18.69,57.407c-24.23,95.033-84.913,156.585-173.103,195.697
	c-89.282,39.596-184.341,44.769-279.186,50.397C440.929,1282.39,385.607,1279.721,325.518,1279.721z M1316.532,1196.494
	c-79.498,0-155.35-1.81-231.054,0.76c-38.079,1.293-60.492,26.84-63.62,61.177c-3.292,36.137,18.247,71.283,57.025,75.39
	c79.484,8.417,159.448,5.263,237.65,2.193C1316.532,1284.732,1316.532,1243.794,1316.532,1196.494z M1554.834,1165.46
	c52.528,5.437,74.46-6.846,71.407-45.799c-9.891-9.111-24.182-22.274-38.05-35.048
	C1544.453,1100.771,1534.717,1124.929,1554.834,1165.46z"/>
</svg>
