<?xml version="1.0" encoding="iso-8859-1"?>
<!-- Generator: Adobe Illustrator 19.0.0, SVG Export Plug-In . SVG Version: 6.00 Build 0)  -->
<svg version="1.1" id="Layer_1" xmlns="http://www.w3.org/2000/svg" xmlns:xlink="http://www.w3.org/1999/xlink" x="0px" y="0px"
	 viewBox="0 0 500 500" enable-background="new 0 0 500 500" xml:space="preserve">
<path d="M192.423,349.973c7.802-13.425,15.353-26.452,22.936-39.46c12.288-21.081,24.706-42.088,36.874-63.238
	c27.926-48.541,55.544-97.259,83.658-145.691c18.813-32.409,47.336-51.308,84.235-56.918c24.171-3.675,47.42,0.51,69.364,11.446
	c1.606,0.8,3.13,1.764,5.076,2.87c-3.695,6.485-7.199,12.683-10.747,18.854c-34.366,59.763-68.718,119.533-103.125,179.272
	c-9.79,16.997-19.444,34.083-29.688,50.805c-23.243,37.939-57.328,57.001-101.83,57.444c-17.966,0.179-34.767-4.507-50.879-12.084
	C196.392,352.378,194.614,351.213,192.423,349.973z M246.075,243.044c-26.926-46.656-53.688-93.408-80.928-139.881
	c-5.421-9.249-11.714-18.385-19.252-25.926C116.035,47.365,79.781,37.155,38.47,45.031C26.74,47.268,15.589,51.497,5.19,57.736
	c0.617,1.194,1.037,2.091,1.53,2.947c43.874,76.224,87.761,152.441,131.624,228.671c8.793,15.282,16.961,31.06,30.35,43.012
	c6.71,5.989,14.133,11.178,21.649,17.054c19.923-34.614,39.139-68,58.438-101.529C247.695,245.944,246.905,244.482,246.075,243.044z
	 M392.396,461.014c57.961-6.801,102.41-56.539,102.453-114.801c0.067-90.786,0.001-181.572-0.019-272.358
	c0-1.563-0.135-3.126-0.256-5.764c-1.301,1.821-2.015,2.673-2.569,3.617c-37.231,63.449-74.473,126.893-111.583,190.413
	c-1.425,2.439-2.224,5.62-2.226,8.457c-0.041,61.801,0.073,123.602,0.157,185.402c0.002,1.779,0,3.558,0,5.793
	C383.487,461.509,387.973,461.533,392.396,461.014z M5.001,66.584c0,1.424,0,2.849,0,4.273c0,91.741-0.012,183.481,0.04,275.222
	c0.003,4.473,0.219,8.999,0.917,13.409c7.653,48.377,34.949,80.329,81.123,96.164c10.844,3.719,22.148,5.249,33.823,4.816
	c0.092-1.347,0.217-2.325,0.218-3.304c0.034-63.436,0.086-126.872-0.017-190.308c-0.004-2.648-0.965-5.585-2.316-7.899
	C82.286,196.473,45.676,134.051,9.08,71.621c-1.045-1.783-2.129-3.543-3.195-5.314C5.591,66.399,5.296,66.492,5.001,66.584z"/>
</svg>
