<?xml version="1.0" encoding="iso-8859-1"?>
<!-- Generator: Adobe Illustrator 19.0.0, SVG Export Plug-In . SVG Version: 6.00 Build 0)  -->
<svg version="1.1" id="Layer_1" xmlns="http://www.w3.org/2000/svg" xmlns:xlink="http://www.w3.org/1999/xlink" x="0px" y="0px"
	 viewBox="0 0 500 500" enable-background="new 0 0 500 500" xml:space="preserve">
<path d="M175.432,428.127c-20.991,7.782-43.003,14.554-66.875,11.097c0,0.711,0,0.07,0-0.223
	c-15.029-3.631-27.14-11.287-36.064-23.738c-7.358-10.266-12.613-21.631-12.543-34.332c0.048-8.723,1.967-17.521,3.794-26.127
	c2.182-10.276,5.157-20.383,7.831-30.725c-7.603-4.074-15.523-8.221-23.352-12.535c-17.046-9.393-31.069-21.794-37.678-40.689
	C2.683,248.38,9.828,216.17,34.49,200.337c12.075-7.751,24.339-15.209,37.483-23.402c-1.054-3.04-2.664-7.259-3.982-11.567
	c-4.317-14.118-8.84-28.246-8.319-43.258c0.631-18.211,7.051-34.123,21.358-45.721c13.238-10.731,28.678-17.539,45.984-14.575
	c16.299,2.792,32.218,7.807,48.305,11.837c0.266,0.067,0.555,0.043,0.132,0.015c6.974-12.065,13.313-24.157,20.712-35.563
	c10.877-16.768,25.565-29.16,46.218-30.764c20.995-1.631,40.333,4.031,53.552,21.526c10.364,13.718,18.955,28.776,28.594,43.64
	c6.744-2.069,14.652-4.602,22.624-6.916c13.521-3.926,27.136-6.448,41.393-4.426c17.784,2.522,30.821,11.845,40.605,26.459
	c11.049,16.503,12.994,34.319,7.852,53.181c-3.035,11.135-6.157,22.247-9.207,33.378c-0.185,0.674-0.085,1.426-0.068,1.057
	c13.061,7.882,26.316,14.417,37.864,23.197c16.751,12.737,27.87,29.647,26.929,51.746c-0.942,22.119-10.06,40.207-29.439,52.189
	c-11.572,7.155-23.194,14.23-34.626,21.239c2.894,10.495,6.135,21.511,8.955,32.634c5.711,22.523,2.243,43.495-11.741,62.26
	c-2.35,3.154-6.245,5.157-9.426,7.692c0.436,0.528,0.873,1.056,1.309,1.584c-0.289-0.487-0.579-0.974-0.908-1.529
	c-10.962,8.127-23.184,13.973-36.824,13.497c-11.168-0.39-22.305-3.219-33.334-5.544c-7.731-1.629-15.257-4.23-22.273-6.226
	c-6.663,11.409-12.784,22.918-19.88,33.79c-9.844,15.083-23.283,26.65-41.202,29.856c-26.327,4.71-48.799-3.196-64.347-25.987
	C190.548,453.568,183.295,440.833,175.432,428.127z M304.981,122.484c-17.582,6.471-35.351,10.418-53.625,10.973
	c-18.461,0.56-36.062-4.01-53.394-11.598c-16.325,34.273-39.348,61.39-76.309,74.233c12.653,36.056,15.343,71.289-1.56,106.149
	c16.931,8.138,32.302,17.814,45.549,30.473c13.418,12.821,22.596,28.548,29.247,45.839c35.968-12.891,71.443-16.063,106.922,1.017
	c16.414-34.501,39.429-61.807,76.56-74.724c-12.981-36.162-15.934-71.746,1.054-106.978
	C345.525,181.671,318.408,159.529,304.981,122.484z M108.428,162.748c23.017-14.876,41.42-32.06,53.935-57.118
	c-12.87-2.505-24.815-4.45-36.558-7.243c-8.63-2.053-14.337,0.781-20.144,7.167c-5.041,5.542-7.326,11.612-6.161,18.208
	C101.769,136.603,105.257,149.229,108.428,162.748z M208.531,415.274c8.195,11.863,15.92,22.666,23.209,33.755
	c3.709,5.642,8.337,7.169,14.552,5.41c1.234-0.349,2.616-0.272,3.926-0.235c5.427,0.153,10.333-1.67,13.548-5.806
	c5.764-7.415,11.063-15.215,16.176-23.101c2.538-3.914,4.231-8.376,6.457-12.896C260.361,407.016,235.214,406.274,208.531,415.274z
	 M213.558,88.344c21.181,6.535,63.134,5.044,76.761-3.219c-6.345-9.65-13.166-18.977-18.838-28.958
	c-5.229-9.201-13.033-11.014-22.129-9.415c-4.345,0.764-9.152,2.529-12.374,5.39C226.012,61.878,220.096,75.119,213.558,88.344z
	 M391.634,337.983c-22.969,15.27-41.364,32.328-53.449,56.102c1.939,0.852,3.178,1.661,4.528,1.948
	c9.998,2.131,20.116,3.78,30.002,6.333c8.312,2.146,14.716,0.521,19.44-6.789c0.074-0.114,0.232-0.173,0.351-0.258
	c6.5-4.662,8.952-11.457,7.664-18.807C397.968,363.948,394.706,351.569,391.634,337.983z M414.872,289.366
	c13.401-5.423,24.366-14.596,35.65-23.251c1.178-0.903,2.266-2.485,2.541-3.916c2.438-12.699,1.106-24.223-11.102-31.798
	c-9.512-5.902-19.124-11.641-28.97-17.621C406.393,234.108,406.607,271.297,414.872,289.366z M161.147,391.608
	c-14.969-23.009-32.107-41.1-55.709-52.953c-6.306,14.728-6.954,29.88-9.589,44.594c-0.152,0.846,0.38,2.1,1.015,2.756
	c5.823,6.019,11.181,12.953,20.185,14.18c3.808,0.519,7.914,0.151,11.696-0.677C139.206,397.215,149.567,394.467,161.147,391.608z
	 M85.511,211.334c-13.272,5.577-23.757,14.138-34.539,22.218c-1.69,1.266-4.113,2.739-4.433,4.446
	c-1.556,8.292-3.339,17.317,3.097,24.044c5.734,5.993,12.81,10.827,19.743,15.507c5.376,3.628,11.445,6.228,17.762,9.579
	C92.806,261.259,93.288,236.574,85.511,211.334z M338.636,109.672c15.002,22.092,31.88,40.069,55.232,51.974
	c0.876-1.937,1.73-3.166,1.995-4.512c2.45-12.454,4.855-24.919,7.095-37.412c0.25-1.392-0.162-3.35-1.033-4.425
	c-6.492-8.006-13.081-15.987-25.167-14.183c-3.006,0.449-6.14,0.264-9.068,0.978C358.237,104.396,348.853,106.982,338.636,109.672z"
	/>
</svg>
