<?xml version="1.0" encoding="iso-8859-1"?>
<!-- Generator: Adobe Illustrator 19.0.0, SVG Export Plug-In . SVG Version: 6.00 Build 0)  -->
<svg version="1.1" id="Layer_1" xmlns="http://www.w3.org/2000/svg" xmlns:xlink="http://www.w3.org/1999/xlink" x="0px" y="0px"
	 viewBox="0 0 500 500" enable-background="new 0 0 500 500" xml:space="preserve">
<path d="M387.072,496.133c-3.848,0.907-8.895-0.453-13.945-2.148c-29.885-10.029-59.793-19.988-89.67-30.04
	c-2.73-0.919-5.294-2.331-8.302-3.678c0.25-2.592,0.455-4.717,0.701-7.27c28.525-8.911,56.689-17.71,84.905-26.526
	c5.73,1.582,11.572,3.196,17.775,4.909c0-112.127,0-224.156,0-337.093c-6.262,1.282-12.157,2.488-18.585,3.804
	c-27.842-13.168-56.205-26.583-84.697-40.058c0-2.542,0-4.761,0-7.91C311.314,34.833,347.537,19.473,384.029,4
	c27.213,18.852,54.147,37.51,81.358,56.36c3.459,3.425,3.094,8.109,3.092,12.749c-0.022,60.571-0.018,121.142-0.018,181.713
	c0,64.565,0.026,129.129-0.054,193.694c-0.005,4.158-0.821,8.316-1.249,12.378C440.707,472.533,415.018,483.836,387.072,496.133z
	 M388.883,18.035c-1.615,45.77-0.909,458.149,0.722,467.466c22.963-10.094,45.952-20.2,68.965-30.316c0-129.453,0-258.573,0-388.771
	C435.922,50.691,412.801,34.639,388.883,18.035z M378.478,85.084c0-23.843,0-45.981,0-69.08
	c-30.162,12.725-59.627,25.156-90.079,38.003c23.562,12.686,47.888,22.227,71.512,35.084
	C365.77,87.826,372.037,86.474,378.478,85.084z M378.489,440.836c-4.958-1.552-9.808-3.433-14.828-4.542
	c-5.422-1.199-10.142,1.784-14.998,3.634c-0.299,0.114-0.676,0.011-0.987,0.105c-18.148,5.509-36.293,11.029-56.374,17.136
	c30.174,10.1,58.373,19.538,87.187,29.182C378.489,470.686,378.489,455.859,378.489,440.836z M37.03,461.114
	c-0.54-2.81-1.213-5.94-1.712-9.097c-0.205-1.299-0.034-2.658-0.034-3.99c-0.003-124.844,0-249.687-0.033-374.531
	c-0.001-4.653-0.185-9.265,3.128-13.204c26.873-18.62,53.827-37.295,81.192-56.255c36.337,15.348,72.6,30.665,108.847,45.975
	c0,3.052,0,5.282,0,7.986c-28.526,13.506-57.136,27.051-85.355,40.412c-6.108-1.488-11.676-2.845-17.796-4.336
	c0,112.97,0,225.018,0,337.445c6.123-1.686,11.941-3.288,17.849-4.915c27.682,8.61,55.58,17.287,83.686,26.029
	c0,2.903,0,5.501,0,8.674c-3.046,1.119-6.341,2.424-9.698,3.548c-29.893,10.008-59.806,19.956-89.688,29.996
	c-5.206,1.749-10.042,1.869-15.253-0.478c-22.635-10.194-45.396-20.106-68.111-30.123C42.25,463.456,40.456,462.645,37.03,461.114z
	 M114.738,485.777c0-156.255,0-311.594,0-467.701C91.11,34.911,67.319,50.075,45.163,66.625c0,130.048,0,259.177,0,388.63
	C68.219,465.37,91.21,475.456,114.738,485.777z M142.189,89.015c3.168-1.57,4.92-2.476,6.703-3.315
	c20.116-9.464,40.247-18.898,60.338-28.415c1.529-0.724,2.787-2.019,4.986-3.656c-30.165-12.754-59.186-25.024-88.9-37.587
	c0,23.372,0,45.826,0,69.029C131.191,86.444,136.843,87.765,142.189,89.015z M212.192,457.201
	c-20.953-6.452-40.353-11.821-59.292-18.5c-10.195-3.595-18.853-1.193-28.013,2.261c0,7.774-0.032,15.083,0.009,22.393
	c0.042,7.519-0.191,15.055,0.165,23.085C154.29,476.631,182.463,467.177,212.192,457.201z"/>
</svg>
