<?xml version="1.0" encoding="iso-8859-1"?>
<!-- Generator: Adobe Illustrator 19.0.0, SVG Export Plug-In . SVG Version: 6.00 Build 0)  -->
<svg version="1.1" id="Layer_1" xmlns="http://www.w3.org/2000/svg" xmlns:xlink="http://www.w3.org/1999/xlink" x="0px" y="0px"
	 viewBox="0 0 500 500" enable-background="new 0 0 500 500" xml:space="preserve">
<path d="M5,249.287C6.303,112.018,116.1,4.074,251.766,4.892c136.003,0.821,248.274,111.738,243.34,254.65
	c-4.48,129.759-111.331,238.304-250.401,235.517C112.153,492.404,5.405,384.894,5,249.287z M327.916,144.701
	c-26.723,32.871-52.389,64.441-78.402,96.439c-26.857-31.982-53.461-63.662-81.02-96.48
	c-15.927,67.642-31.416,133.427-47.011,199.66c15.932,0,30.777,0,46.097,0c9.072-34.495,18.06-68.674,27.259-103.651
	c18.524,22.015,36.362,43.216,54.677,64.983c18.074-21.963,35.515-43.156,53.39-64.877c8.859,35.235,17.459,69.44,26,103.409
	c15.247,0,29.639,0,44.763,0C358.444,277.804,343.373,212.093,327.916,144.701z M245.786,172.828
	c-13.041-14.042-25.492-27.47-37.971-40.871c-2.915-3.13-6.479-5.007-10.356-2.207c-3.613,2.609-2.963,6.237-1.229,10.016
	c7.645,16.657,20.186,29.406,33.575,41.247c8.837,7.816,15.222,6.863,23.645-1.495c7.92-7.858,15.23-16.477,23.889-23.413
	c14.72-11.79,30.303-22.502,45.473-33.734c1.328-0.983,2.29-2.459,3.423-3.706c-0.516-0.582-1.032-1.163-1.548-1.745
	C296.207,132.38,270.012,151.174,245.786,172.828z"/>
</svg>
