<?xml version="1.0" encoding="iso-8859-1"?>
<!-- Generator: Adobe Illustrator 19.0.0, SVG Export Plug-In . SVG Version: 6.00 Build 0)  -->
<svg version="1.1" id="Layer_1" xmlns="http://www.w3.org/2000/svg" xmlns:xlink="http://www.w3.org/1999/xlink" x="0px" y="0px"
	 viewBox="0 0 500 500" enable-background="new 0 0 500 500" xml:space="preserve">
<path d="M305.325,433.496c-42.951,0.331-85.715,0.66-128.874,0.993c28.201-123.739,56.316-247.103,84.559-371.029
	c0.849,1.235,1.391,1.968,1.874,2.737c11.741,18.676,23.456,37.367,35.242,56.015c1.16,1.836,1.623,3.666,1.648,5.81
	c0.196,16.525,0.449,33.049,0.742,49.572c0.338,19.057,0.737,38.113,1.108,57.17c0.382,19.62,0.762,39.241,1.143,58.861
	c0.371,19.151,0.724,38.303,1.118,57.454c0.461,22.344,0.977,44.687,1.425,67.031C305.41,423.078,305.325,428.051,305.325,433.496z
	 M341.974,194.535c11.56,79.109,23.121,158.218,34.667,237.23c7.079,0.656,114.169,0.319,116.435-0.399
	c-50.15-79.035-100.267-158.018-150.384-237.002C342.453,194.421,342.214,194.478,341.974,194.535z M186.073,170.73
	c-0.188-0.091-0.376-0.182-0.563-0.272C126.503,257.283,67.496,344.108,8.251,431.285c32.383,0,64.253,0,96.361,0
	C131.807,344.301,158.94,257.515,186.073,170.73z M253.593,70.428c-1.135,1.696-2.257,3.401-3.406,5.088
	c-17.117,25.142-34.228,50.288-51.378,75.407c-1.446,2.118-2.535,4.329-3.3,6.782c-16.285,52.188-32.61,104.363-48.921,156.542
	c-10.856,34.728-21.705,69.459-32.553,104.189c-0.285,0.912-0.521,1.84-0.78,2.76c1.816-1.487,3.14-3.173,4.508-4.823
	c17.017-20.527,34.027-41.059,51.066-61.567c8.579-10.325,17.187-20.626,25.853-30.878c1.073-1.27,1.782-2.557,2.148-4.157
	c4.859-21.229,9.75-42.451,14.634-63.675c11.93-51.844,23.865-103.686,35.789-155.531c2.288-9.947,4.536-19.902,6.802-29.854
	C253.902,70.618,253.748,70.523,253.593,70.428z M335.108,188.584c-0.117,0.225-0.359,0.467-0.331,0.672
	c0.387,2.784-0.835,5.117-2.007,7.484c-8.12,16.401-16.211,32.816-24.356,49.204c-0.818,1.646-1.227,3.269-1.18,5.114
	c0.201,7.884,0.322,15.77,0.452,23.656c0.076,4.601,0.074,9.204,0.18,13.804c0.277,12.108,0.633,24.215,0.885,36.323
	c0.26,12.486,0.419,24.974,0.651,37.46c0.337,18.119,0.698,36.238,1.053,54.356c0.05,2.567,0.13,5.133,0.196,7.699
	c0.893-0.623,1.319-1.311,1.686-2.029c10.082-19.723,20.159-39.448,30.236-59.174c3.843-7.522,7.669-15.053,11.541-22.56
	c0.47-0.911,0.694-2.117,2.029-2.507c0.903,2.078,0.439,4.424,1.752,6.292c0.341-0.741,0.505-1.456,0.422-2.143
	c-0.37-3.07-0.783-6.135-1.23-9.195c-2.14-14.643-4.309-29.282-6.444-43.926c-1.973-13.533-3.899-27.073-5.876-40.605
	c-2.586-17.703-5.196-35.403-7.813-53.101c-0.338-2.285-0.78-4.554-1.174-6.83C335.556,188.58,335.332,188.582,335.108,188.584z"/>
</svg>
