<?xml version="1.0" encoding="iso-8859-1"?>
<!-- Generator: Adobe Illustrator 19.0.0, SVG Export Plug-In . SVG Version: 6.00 Build 0)  -->
<svg version="1.1" id="Layer_1" xmlns="http://www.w3.org/2000/svg" xmlns:xlink="http://www.w3.org/1999/xlink" x="0px" y="0px"
	 viewBox="0 0 2000 2000" style="enable-background:new 0 0 2000 2000;" xml:space="preserve">
<path d="M1161.866,34.127c-82.66,480.286-165.116,959.385-247.979,1440.853c-52.339-32.352-106.05-54.211-163.242-67.224
	c-74.457-16.943-149.499-20.695-225.577-12.719c-84.711,8.88-165.312,30.388-236.438,77.938
	c-34.341,22.958-64.165,52.674-95.852,79.177C11.186,1303.826-56.617,899.155,135.457,538.375
	C323.697,184.794,728.287-38.519,1161.866,34.127z M1259.029,475.594c-2.113,7.751-4.269,13.959-5.469,20.346
	c-6.313,33.608-12.337,67.269-18.548,100.896c-15.589,84.401-31.232,168.793-46.837,253.191
	c-14.268,77.166-28.538,154.331-42.764,231.505c-14.343,77.811-28.696,155.62-42.926,233.452
	c-12.909,70.608-25.721,141.234-38.459,211.873c-9.044,50.158-21.708,100.038-25.852,150.608
	c-5.036,61.455-32.975,109.278-75.908,149.111c-46.937,43.548-102.872,72.993-164.364,91.297
	c-23.734,7.065-47.688,13.391-74.644,20.92c401.518,124.569,925.531-31.468,1159.672-513.905
	c215.151-443.309,44.977-901.064-193.336-1116.51c75.114,185.58,114.435,370.778,16.327,559.382
	C1626.426,656.825,1475.672,530.646,1259.029,475.594z"/>
</svg>
