<?xml version="1.0" encoding="iso-8859-1"?>
<!-- Generator: Adobe Illustrator 19.0.0, SVG Export Plug-In . SVG Version: 6.00 Build 0)  -->
<svg version="1.1" id="Layer_1" xmlns="http://www.w3.org/2000/svg" xmlns:xlink="http://www.w3.org/1999/xlink" x="0px" y="0px"
	 viewBox="0 0 2000 2000" style="enable-background:new 0 0 2000 2000;" xml:space="preserve">
<path d="M14.183,1324.476c34.781-231.77,68.95-458.793,102.827-685.86c5.768-38.659,12.328-77.376,14.763-116.302
	c2.152-34.4,19.211-52.472,49.764-64.355c143.091-55.653,285.666-112.631,428.676-168.496
	c107.982-42.182,217.353-81.008,324.058-126.168c45.713-19.347,83.248-18.965,129.768-0.409
	c263.661,105.174,528.891,206.411,800.686,311.739c40.921,280.531,82.207,563.567,123.885,849.292
	c-218.016,177.661-434.458,354.04-660.904,538.572c-103.947-39.75-214.258-81.933-326.852-124.99
	c-104.241,40.716-210.5,82.221-322.842,126.101C458.565,1685.379,238.47,1506.63,14.183,1324.476z M1784.143,527.765
	c-222.479-86.547-443.314-172.455-672.016-261.422c38.177,262.099,74.703,512.866,110.664,759.753
	c-53.693,44.589-99.691,82.787-149.036,123.765c155.85,127.134,306.736,250.218,462.36,377.168
	c-142.623,56.806-277.272,110.436-423.106,168.521c70.974,28.113,128.244,50.797,188.443,74.642
	c197.138-160.793,393.109-320.634,592.555-483.308C1857.746,1036.331,1821.605,786.615,1784.143,527.765z M108.847,1287.536
	c198.957,161.119,396.575,321.154,594.54,481.471c60.441-24.398,117.748-47.532,186.776-75.396
	c-147.621-57.971-282.993-111.133-423.401-166.272c157.673-129.047,308.691-252.648,463.359-379.235
	c-52.541-43.496-100.106-82.872-149.196-123.511c36.055-249.797,71.97-498.625,109.382-757.83
	c-228.653,89.321-447.102,174.656-670.44,261.901C183.015,780.565,146.287,1031.618,108.847,1287.536z M1001.379,1206.207
	c-125.129,101.618-244.817,198.816-371.094,301.367c79.68,31.418,152.616,54.662,220.442,88.232
	c98.244,48.626,191.381,56.852,291.901,4.55c69.772-36.303,146.181-59.85,229.828-93.16
	C1244.995,1403.809,1125.246,1306.678,1001.379,1206.207z M1127.788,987.507c-40.069-276.804-79.828-551.466-119.586-826.127
	c-4.736,0.105-9.472,0.21-14.208,0.315c-39.411,276.469-78.823,552.938-117.878,826.912c46.287,37.663,86.049,70.016,126.22,102.703
	C1047.23,1054.162,1084.796,1023.08,1127.788,987.507z"/>
</svg>
