<?xml version="1.0" encoding="utf-8"?>
<!-- Generator: Adobe Illustrator 25.1.0, SVG Export Plug-In . SVG Version: 6.00 Build 0)  -->
<svg version="1.1" id="Layer_1" xmlns="http://www.w3.org/2000/svg" xmlns:xlink="http://www.w3.org/1999/xlink" x="0px" y="0px"
	 viewBox="0 0 500 500" style="enable-background:new 0 0 500 500;" xml:space="preserve">
<path d="M8.8,278.5c0-43.6,0.1-87.3-0.1-130.9c0-6,1.9-9.6,7.2-12.7C90.8,92,165.5,48.8,240.3,5.6c4.8-2.8,8.8-2.9,13.6-0.1
	c56.9,32.8,113.8,65.4,170.7,98.1c8.5,4.9,8.5,11.8,0.3,16.8c-8.2,5-16.6,9.6-24.7,14.8c-5.3,3.4-9.7,3.2-15.1,0.1
	c-42.5-24.6-85.1-48.9-127.5-73.6c-6.5-3.8-11.6-3.7-18.1,0.1C181.1,95.7,122.5,129.4,64,162.9c-5.9,3.4-8.5,7.4-8.4,14.4
	c0.2,67.9,0.2,135.8,0,203.7c0,6.9,2.3,11.2,8.4,14.4c8.3,4.3,16.3,9.4,24.5,14c9.2,5.2,15.4,1.5,15.4-9.1c0-61.3,0-122.6,0.1-184
	c0-13.6,5.2-16.6,17.1-9.8c39.5,22.5,79.1,45,118.5,67.7c6.2,3.6,11,3.5,17.1-0.1c39.7-23.4,79.6-46.4,119.4-69.6
	c10.7-6.2,16.2-3,16.2,9.5c0,61.1,0,122.3,0.1,183.4c0,12.9,5.8,16.3,17,9.8c8.1-4.7,16.2-9.5,24.5-14c5.3-2.8,7.3-6.7,7.3-12.7
	c-0.1-67.9,0-135.8-0.2-203.7c0-7.4,2.3-11.9,8.9-15.2c7.6-3.8,14.7-8.4,22-12.7c11.6-6.7,16.8-3.8,16.9,9.5
	c0.1,45.9,0.1,211.8,0.3,248.8c0,6.6-2.2,10.7-8.1,14c-40,22.9-79.7,46.2-119.7,69.1c-3.5,2-9.2,3.3-12.2,1.7
	c-2.6-1.3-3.9-7.2-3.9-11.1c-0.2-60.2-0.1-120.4-0.1-180.6c0-1.9,0.1-3.8-0.1-5.6c-0.6-8.7-6.9-12.4-14.5-8
	c-24.6,14.1-49.2,28.3-73.7,42.8c-6,3.5-10.8,3.3-16.7-0.1c-23.6-14-47.5-27.6-71.3-41.3c-9.8-5.7-16-2.1-16,9.3
	c0,62.1,0.1,124.1-0.2,186.2c0,3.8-1.8,9.1-4.5,10.9c-2.4,1.6-8,0.1-11.2-1.7c-40.3-23.2-80.3-46.7-120.5-70
	c-5.6-3.2-7.8-7.1-7.8-13.5C8.9,365.8,8.8,278.5,8.8,278.5z"/>
</svg>
