<?xml version="1.0" encoding="iso-8859-1"?>
<!-- Generator: Adobe Illustrator 19.0.0, SVG Export Plug-In . SVG Version: 6.00 Build 0)  -->
<svg version="1.1" id="Layer_1" xmlns="http://www.w3.org/2000/svg" xmlns:xlink="http://www.w3.org/1999/xlink" x="0px" y="0px"
	 viewBox="0 0 500 500" enable-background="new 0 0 500 500" xml:space="preserve">
<path d="M236.902,390.369c0,19.409,0,36.162,0,53.763c-76.699,0-152.493,0-228.902,0C8,319.855,8,196.498,8,72.32
	c76.245,0,151.663,0,228.444,0c0,17.068,0,34.185,0,53.529c-57.206,0-114.402,0-172.326,0c0,89.072,0,175.953,0,264.52
	C121.589,390.369,178.383,390.369,236.902,390.369z M264.446,72.498c0,18.154,0,35.284,0,54.015c58.12,0,114.98,0,171.867,0
	c0,88.918,0,176.189,0,265.041c-58.146,0-114.998,0-172.186,0c0,18.374,0,35.142,0,52.494c76.761,0,152.557,0,229.013,0
	c0-124.008,0-247.016,0-371.55C416.211,72.498,340.44,72.498,264.446,72.498z M386.543,226.661
	c-17.574,0.306-31.154,14.231-30.936,31.724c0.211,16.912,14.843,31.648,31.511,31.734c17.794,0.093,32.413-14.552,32.249-32.306
	C419.196,239.252,405.581,226.33,386.543,226.661z M84.76,257.144c-0.409,18.091,13.814,33.069,31.315,32.978
	c17.213-0.09,31.622-14.031,32.126-31.084c0.545-18.443-12.851-32.112-31.74-32.384C98.245,226.391,85.171,238.966,84.76,257.144z"
	/>
</svg>
