<?xml version="1.0" encoding="iso-8859-1"?>
<!-- Generator: Adobe Illustrator 19.0.0, SVG Export Plug-In . SVG Version: 6.00 Build 0)  -->
<svg version="1.1" id="Layer_1" xmlns="http://www.w3.org/2000/svg" xmlns:xlink="http://www.w3.org/1999/xlink" x="0px" y="0px"
	 viewBox="0 0 500 500" enable-background="new 0 0 500 500" xml:space="preserve">
<path d="M115.903,212.852c45.336-69.096,90.281-137.596,136.313-207.753c45.675,69.441,90.743,137.958,136.472,207.482
	c-21.495,10.781-42.636,21.383-63.867,32.032c-24.102-12.717-48.053-25.354-72.723-38.37c-21.071,11.244-72.378,38.37-72.378,38.37
	S134.486,222.306,115.903,212.852z M324.435,255.158c-23.781,13.558-47.284,26.957-70.916,40.43
	c-24.529-13.741-48.799-27.338-73.175-40.994c-21.188,10.797-42.126,21.465-64.207,32.717
	c44.91,68.526,89.949,137.249,136.104,207.676c46.38-70.721,91.183-139.038,136.229-207.724
	C366.247,276.122,345.384,265.662,324.435,255.158z M253.072,210.997c-24.036,12.507-48.025,24.991-73.352,38.17
	c25.064,14.354,49.177,28.164,73.779,42.254c23.661-13.48,47.037-26.797,73.216-41.711
	C300.64,236.002,277.187,223.673,253.072,210.997z"/>
</svg>
