<?xml version="1.0" encoding="iso-8859-1"?>
<!-- Generator: Adobe Illustrator 19.0.0, SVG Export Plug-In . SVG Version: 6.00 Build 0)  -->
<svg version="1.1" id="Layer_1" xmlns="http://www.w3.org/2000/svg" xmlns:xlink="http://www.w3.org/1999/xlink" x="0px" y="0px"
	 viewBox="0 0 500 500" enable-background="new 0 0 500 500" xml:space="preserve">
<path d="M249.996,199.981c0.856-0.789,1.631-1.458,2.357-2.178c23.872-23.676,47.74-47.356,71.608-71.036
	c0.372-0.369,0.73-0.752,1.115-1.107c2.785-2.57,5.612-2.636,8.331-0.003c4.514,4.371,8.945,8.829,13.405,13.257
	c29.064,28.852,58.125,57.709,87.191,86.559c18.51,18.373,37.028,36.737,55.543,55.106c0.521,0.516,1.047,1.027,1.554,1.557
	c2.925,3.05,2.971,5.773,0.074,8.765c-2.113,2.182-4.295,4.296-6.452,6.435c-23.571,23.385-47.142,46.768-70.714,70.152
	c-0.372,0.369-0.733,0.749-1.113,1.109c-2.978,2.811-5.817,2.862-8.796-0.066c-7.917-7.784-15.767-15.635-23.648-23.455
	c-16.356-16.231-32.715-32.46-49.076-48.686c-0.592-0.587-1.22-1.138-2.079-1.937c-0.845,0.782-1.684,1.512-2.473,2.295
	c-21.196,21.019-42.387,42.044-63.578,63.068c-2.677,2.656-5.473,5.204-7.998,7.997c-3.881,4.293-7.45,3.076-10.45,0.053
	c-12.544-12.637-25.22-25.142-37.86-37.684c-11.375-11.287-22.765-22.56-34.153-33.835c-0.587-0.581-1.208-1.128-2.012-1.876
	c-0.81,0.728-1.589,1.37-2.302,2.078c-23.871,23.677-47.736,47.36-71.602,71.042c-0.297,0.295-0.586,0.6-0.89,0.887
	c-3.127,2.955-5.945,2.966-9.025-0.075c-7.677-7.58-15.32-15.193-22.979-22.792c-17.993-17.853-35.987-35.705-53.98-53.557
	c-0.372-0.369-0.748-0.734-1.11-1.112c-2.919-3.05-2.968-5.761-0.016-8.752c4.267-4.324,8.6-8.583,12.911-12.862
	C58.8,232.58,95.82,195.835,132.845,159.093c10.929-10.845,21.868-21.68,32.803-32.518c0.446-0.442,0.88-0.902,1.36-1.305
	c2.466-2.067,5.208-2.033,7.66,0.12c0.785,0.69,1.492,1.47,2.235,2.207c23.719,23.532,47.439,47.064,71.161,70.593
	C248.645,198.766,249.263,199.304,249.996,199.981z M181.663,236.373c-23.141,25.456-46.234,50.858-69.327,76.261
	c-0.586,8.452-1.165,16.81-1.795,25.899c1.512-1.474,2.482-2.405,3.437-3.352c17.249-17.11,34.493-34.225,51.744-51.333
	c3.638-3.608,6.951-3.686,10.685-0.231c3.92,3.627,7.802,7.296,11.717,10.928c0.572,0.53,1.235,0.962,2.121,1.644
	c3.09-17.931,6.242-35.493,9.151-53.242C193.333,240.7,187.576,238.565,181.663,236.373z M344.702,294.19
	c1.093-3.046,7.909-65.255,7.456-67.822c-11.173,5.562-22.3,11.101-33.35,16.601c-11.954,19.708-23.831,39.288-35.763,58.96
	c1.975,5.561,3.924,11.047,5.995,16.877c3.312-3.279,6.343-6.273,9.366-9.274c8.694-8.631,17.373-17.278,26.083-25.893
	c3.329-3.293,6.184-3.291,9.501-0.073c1.803,1.75,3.568,3.539,5.352,5.31C341.097,290.618,342.854,292.358,344.702,294.19z
	 M102.569,294.682c-20.448-10.032-40.585-19.91-60.751-29.804c-7.4,7.339-14.566,14.445-21.548,21.369
	c7.884,8.042,15.496,15.806,23.082,23.544c19.108,3.499,38.1,6.977,57.446,10.52C101.4,311.595,101.974,303.288,102.569,294.682z
	 M272.055,254.052c2.536-18.485,5.061-36.886,7.574-55.209c-2.829-1.671-5.345-3.157-7.926-4.682
	c-0.667,0.615-1.296,1.158-1.885,1.741c-4.984,4.934-9.974,9.861-14.931,14.822c-1.456,1.457-2.987,2.559-5.199,2.451
	c-1.837-0.09-3.095-1.071-4.311-2.279c-8.319-8.26-16.651-16.505-24.988-24.747c-0.657-0.65-1.377-1.236-2.067-1.852
	c-0.107,0.095-0.214,0.189-0.32,0.284c7.765,21.497,15.529,42.995,23.29,64.481c7.573,3.103,14.997,6.144,22.356,9.159
	C266.442,256.835,269.06,255.537,272.055,254.052z M386.558,335.743c0.199-0.108,0.398-0.216,0.597-0.324
	c-1.945-18.493-3.832-36.992-5.85-55.476c-2.017-18.468-3.838-36.959-5.98-55.414c-3.868-0.55-7.362-1.047-11.158-1.587
	c-3.068,27.409-6.102,54.506-9.13,81.555C365.645,315.012,376.102,325.377,386.558,335.743z M211.209,198.054
	c-20.189-1.638-40.258-3.266-60.544-4.912c0,6.34,0,12.371,0,18.726c25.384,10.417,50.846,20.866,76.934,31.572
	C222.009,227.959,216.637,213.083,211.209,198.054z M444.148,321.508c-3.761-9.773-18.251-41.109-19.912-42.955
	c-9.013,16.095-18.007,32.156-26.958,48.14c0.8,7.425,1.585,14.703,2.392,22.192c1.447,1.38,2.966,2.819,4.475,4.269
	c1.478,1.419,2.946,2.848,4.576,4.424C420.615,345.467,432.28,333.59,444.148,321.508z M207.143,186.807
	c-2.635-7.304-5.011-13.998-7.497-20.651c-0.345-0.923-1.149-1.724-1.874-2.448c-8.371-8.36-16.766-16.697-25.164-25.031
	c-0.576-0.571-1.221-1.073-1.892-1.657c-6.632,6.774-13.137,13.418-19.93,20.356c-0.459,5.783-0.313,22.5,0.304,24.882
	C169.572,183.759,188.105,185.262,207.143,186.807z M347.664,191.786c-18.213-6.398-36.235-12.728-53.747-18.879
	c-4.732,4.755-9.189,9.234-13.677,13.743c19.216,11.413,38.7,22.985,58.135,34.527c4.959-2.498,9.703-4.888,14.588-7.349
	C351.192,206.462,349.464,199.271,347.664,191.786z M250.089,357.494c10.273-10.196,20.338-20.185,30.35-30.122
	c-1.33-3.705-2.525-7.034-3.626-10.099c-15.388-10.154-38.649-24.301-41.024-24.895c0.708,17.802,1.414,35.548,2.086,52.434
	C242.203,349.306,245.972,353.219,250.089,357.494z M103.381,282.943c1.163-17.222,2.464-33.983,3.467-51
	c-1.299,0.311-2.204,0.493-3.089,0.745c-12.166,3.459-24.299,7.039-36.512,10.322c-3.379,0.908-6.111,2.365-8.457,4.929
	c-2.741,2.995-5.72,5.772-8.76,8.809C67.85,265.497,85.39,274.109,103.381,282.943z M418.967,265.554
	c-5.672-12.513-11.274-24.872-16.848-37.169c-5.321-0.629-10.296-1.671-15.518-2.09c2.889,27.142,5.738,53.917,8.588,80.692
	c0.172,0.025,0.344,0.05,0.516,0.075C403.416,293.302,411.128,279.542,418.967,265.554z M139.356,168.089
	c-20.305,20.13-40.222,39.876-60.138,59.621c0.116,0.178,0.233,0.356,0.349,0.534c19.875-5.633,39.749-11.265,59.789-16.945
	C139.356,197.028,139.356,182.925,139.356,168.089z M410.958,218.697c0.084-0.159,0.169-0.318,0.253-0.477
	c-19.877-19.718-39.754-39.437-59.632-59.155c-0.17,0.091-0.341,0.181-0.511,0.272c4.25,17.504,8.5,35.009,12.751,52.518
	C379.753,214.167,395.355,216.432,410.958,218.697z M259.501,268.31c-17.066-7.001-34.055-13.971-51.363-21.072
	c-0.797,4.574-1.525,8.754-2.268,13.02c21.608,13.43,43.034,26.745,64.46,40.061c0.126-0.128,0.251-0.255,0.377-0.383
	C266.982,289.424,263.257,278.911,259.501,268.31z M415.054,230.364c6.736,14.878,13.192,29.139,19.605,43.303
	c14.299,5.306,28.376,10.53,42.011,15.59c1.357-1.1,2.306-1.87,3.343-2.71c-18.573-18.441-36.905-36.644-55.265-54.874
	C421.697,231.261,418.72,230.859,415.054,230.364z M113.597,294.181c0.16,0.094,0.32,0.187,0.48,0.281
	c10.263-11.293,20.526-22.586,30.894-33.995c-7.034-11.203-14.02-22.331-21.038-33.51c-2.14,0.666-3.992,1.243-5.8,1.805
	C116.607,250.781,115.102,272.481,113.597,294.181z M203.848,271.854c-2.023,11.717-3.953,22.899-5.852,33.899
	c6.638,7.401,26.214,26.49,28.436,27.684c-0.641-16.349-1.278-32.6-1.911-48.741C217.575,280.382,210.94,276.26,203.848,271.854z
	 M302.526,164.319c13.656,4.805,27.564,9.7,42.042,14.794c-2.973-12.277-5.815-24.012-8.348-34.471
	c-2.925-3.015-5.018-5.172-7.14-7.359C320.355,146.167,311.516,155.166,302.526,164.319z M326.71,226.839
	c-12.495-7.451-24.439-14.589-36.811-21.853c-2.068,14.582-3.999,28.638-5.914,43.135
	C298.382,240.949,312.273,234.03,326.71,226.839z M58.029,323.542c-0.077,0.182-0.155,0.365-0.232,0.547
	c11.169,11.092,22.339,22.185,33.615,33.383c2.382-2.581,4.57-4.951,7.385-8.001c0.354-5.336,0.774-11.657,1.21-18.224
	C85.806,328.64,71.918,326.091,58.029,323.542z M134.952,223.917c6.003,9.555,11.76,18.718,17.673,28.131
	c6.178-6.795,12.102-13.311,18.272-20.097c-9.066-3.72-17.814-7.309-26.366-10.818C141.24,222.089,138.244,222.96,134.952,223.917z
	 M278.346,288.591c7.371-12.167,14.43-23.818,21.489-35.469c-0.159-0.161-0.317-0.322-0.476-0.482
	c-9.551,4.752-19.102,9.505-28.726,14.293C273.234,274.237,275.706,281.179,278.346,288.591z M440.977,287.633
	c4.073,8.986,7.866,17.352,11.789,26.007c5.371-5.384,10.485-10.352,15.781-15.744C459.251,294.435,450.471,291.167,440.977,287.633
	z"/>
</svg>
