<?xml version="1.0" encoding="iso-8859-1"?>
<!-- Generator: Adobe Illustrator 19.0.0, SVG Export Plug-In . SVG Version: 6.00 Build 0)  -->
<svg version="1.1" id="Layer_1" xmlns="http://www.w3.org/2000/svg" xmlns:xlink="http://www.w3.org/1999/xlink" x="0px" y="0px"
	 viewBox="0 0 500 500" style="enable-background:new 0 0 500 500;" xml:space="preserve">
<path d="M251.432,483.866c-67.688-39.033-134.527-77.576-201.225-116.037c0-77.601,0-154.715,0-232.225
	c6.406-3.879,12.77-7.909,19.3-11.648c11.029-6.315,22.247-12.303,33.235-18.687c18.6-10.807,37.03-21.906,55.631-32.71
	c14.139-8.211,28.468-16.094,42.649-24.234c14.655-8.412,29.358-16.752,43.782-25.547c5.65-3.445,9.983-2.07,15.083,0.967
	c20.799,12.386,41.83,24.383,62.67,36.701c19.033,11.249,38.63,21.501,57.477,33.093c13.382,8.23,27.341,15.52,41.021,23.268
	c8.7,4.927,17.424,9.819,25.997,14.961c2.326,1.395,4.142,3.642,6.518,5.794c0,3.252,0,6.606,0,9.959
	c0.012,69.75,0.01,139.499,0.073,209.249c0.004,4.346,0.037,8.572-3.717,12.875C384.448,407.324,318.113,445.496,251.432,483.866z
	 M252.01,450.469c58.149-33.487,115.236-66.362,171.952-99.022c0-66.846,0-132.836,0-199.658c-18-10.607-36.227-21.236-54.718-31.2
	c-3.662,3.035-2.39,6.686-2.394,9.89c-0.073,59.24-0.053,118.48-0.053,177.72c0,3.335,0,6.67,0,10.025
	c-19.788,11.366-39.115,22.206-58.177,33.491c-19.023,11.261-38.968,21.026-56.609,33.506
	C252.01,407.182,252.01,428.118,252.01,450.469z M102.065,222.369l1.14,59.052l8.013-0.396l1.237-39.439l41.776,39.958l7.059-0.668
	l-0.182-58.273h-9.081c0,0-2.087,37.11-3.169,39.407c-13.226-13.899-25.753-27.063-37.721-39.64
	C107.477,222.369,102.065,222.369,102.065,222.369z M259.532,222.359l1.082,59.065l8.323-0.379c0,0,0.349-37.951,0.597-38.104
	c0.238-0.147,42.405,38.566,42.405,38.566l6.334-0.357v-58.639h-8.881l-0.541,36.622c0,0-28.658-24.249-41.948-36.774
	C264.965,222.359,259.532,222.359,259.532,222.359z M232.478,281.475l11.529-2.655l-29.49-56.816l-10.723,0.492
	c0,0-18.825,38.557-28.536,58.445c4.316,0,7.58,0,10.951,0c2.279-4.163,4.579-8.365,6.607-12.069c11.613,0,22.312,0,33.161,0
	C228.08,272.946,232.478,281.475,232.478,281.475z M208.789,234.499l-10.787,21.76l23.265,1.087L208.789,234.499z"/>
</svg>
