<?xml version="1.0" encoding="iso-8859-1"?>
<!-- Generator: Adobe Illustrator 19.0.0, SVG Export Plug-In . SVG Version: 6.00 Build 0)  -->
<svg version="1.1" id="Layer_1" xmlns="http://www.w3.org/2000/svg" xmlns:xlink="http://www.w3.org/1999/xlink" x="0px" y="0px"
	 viewBox="0 0 2000 2000" style="enable-background:new 0 0 2000 2000;" xml:space="preserve">
<path d="M286.895,1081.101c-58.525,0-110.82,0.464-163.102-0.138c-46.741-0.538-81.387-22.754-101.94-64.128
	c-18.666-37.576-9.581-80.039,24.768-111.308c42.708-38.878,87.337-75.663,131.526-112.89
	c117.78-99.223,235.917-198.024,353.636-297.319c130.65-110.202,260.962-220.803,391.488-331.152
	c58.218-49.219,102.425-46.892,161.225,3.49c100.751,86.325,202.995,170.906,304.412,256.456
	c22.165,18.697,43.492,38.39,73.674,65.126c5.194-70.911,1.469-132.203,3.1-197.262c93.308,0,185.637,0,281.282,0
	c0.771,12.749,2.159,25.144,2.17,37.541c0.102,117.636,0.656,235.279-0.566,352.903c-0.314,30.259,6.048,52.669,31.856,72.614
	c52.486,40.561,102.172,84.798,152.245,128.401c15.77,13.733,32.392,28.292,42.961,45.877
	c45.156,75.132-20.228,148.431-88.792,150.61c-41.067,1.305-82.203,0.441-123.308,0.534c-13.903,0.031-27.806,0.005-44.733,0.005
	c-2.466,19.007-4.965,34.096-6.309,49.287c-10.208,115.429-20.329,230.867-30.196,346.326
	c-7.225,84.544-14.736,169.073-20.763,253.706c-3.949,55.448-10.716,108.576-71.149,132.867
	c-12.849,5.165-27.199,9.191-40.884,9.269c-114.805,0.653-229.615,0.289-344.424,0.081c-4.102-0.007-8.201-1.58-18.491-3.697
	c0-211.878,0-424.75,0-640.402c-124.523,0-242.797,0-365.927,0c0,212.413,0,424.242,0,640.329
	c-16.375,1.682-28.401,3.958-40.432,3.99c-104.889,0.282-209.78,0.513-314.668,0.038c-68.694-0.311-109.519-34.068-117.278-102.074
	c-9.773-85.656-15.172-171.803-23.02-257.687c-9.775-106.965-20.297-213.862-30.124-320.822
	C291.93,1156.804,289.892,1121.83,286.895,1081.101z M750.246,1155.789c171.098,0,335.413,0,504.871,0
	c0,216.765,0,428.577,0,637.235c7.491,4.559,9.871,7.268,12.275,7.29c92.031,0.832,184.067,2.041,276.095,1.632
	c25.679-0.114,41.197-13.988,42.926-42.215c2.759-45.053,7.455-89.989,11.414-134.967c9.789-111.193,19.686-222.376,29.421-333.574
	c6.659-76.054,12.841-152.151,19.906-228.167c1.421-15.284,5.86-30.288,9.655-49.131c10.943-1.19,21.607-3.254,32.292-3.361
	c59.505-0.594,119.014-0.736,178.522-0.985c23.623-0.099,45.69-2.744,53.269-30.256c-19.211-34.501-866.396-753.381-919.743-780.495
	c-5.82,2.712-13.15,4.488-18.368,8.812c-54.224,44.938-108.238,90.132-162.061,135.549
	C664.184,475.244,507.752,607.455,351.303,739.645c-80.829,68.296-162.097,136.09-241.841,205.63
	c-10.929,9.53-20.881,28.619-19.418,41.983c2.31,21.092,25.049,19.07,41.603,19.243c56.691,0.593,113.399-0.242,170.084,0.594
	c16.029,0.236,32.001,4.322,45.278,6.248c2.814,8.526,4.242,11.143,4.495,13.868c4.812,51.979,9.138,104.005,14.263,155.953
	c9.011,91.343,19.094,182.583,27.614,273.97c9.05,97.071,16.012,194.34,25.468,291.369c4.568,46.871,10.614,52.047,58.001,52.668
	c82.17,1.077,164.366,0.515,246.547,0.055c7.823-0.044,15.624-4.228,26.849-7.479
	C750.246,1582.048,750.246,1371.284,750.246,1155.789z M537.108,1672.787c31.301,0,55.736,0,87.075,0c0-217.66,0-431.804,0-648.913
	c255.881,0,504.781,0,761.596,0c2.206,214.594-4.636,428.818-1.632,644.196c29.817,0,53.707,0,78.989,0
	c4.188-41.359,8.391-77.792,11.481-114.318c9.662-114.245,18.744-228.539,28.36-342.788c7.48-88.869,16.462-177.624,22.814-266.57
	c4.687-65.622,3.277-65.723,72.802-75.708c-201.254-169.717-397.799-335.464-596.763-503.249
	c-72.543,60.213-139.673,115.833-206.689,171.588c-67.389,56.065-135.447,111.362-201.77,168.664
	c-65.029,56.184-136.745,105.106-200.029,172.978c29.533,2.401,50.28,4.087,73.479,5.973
	C490.44,1149.469,513.763,1411.01,537.108,1672.787z"/>
</svg>
