<?xml version="1.0" encoding="iso-8859-1"?>
<!-- Generator: Adobe Illustrator 19.0.0, SVG Export Plug-In . SVG Version: 6.00 Build 0)  -->
<svg version="1.1" id="Layer_1" xmlns="http://www.w3.org/2000/svg" xmlns:xlink="http://www.w3.org/1999/xlink" x="0px" y="0px"
	 viewBox="0 0 500 500" style="enable-background:new 0 0 500 500;" xml:space="preserve">
<path id="XMLID_4_" d="M183.903,217.892c-20.249-0.306-34.522,4.082-34.436,34.057c0.042,14.646-7.579,26.131-21.016,30.786
	c-12.715,4.405-26.243,3.812-36.725-7.471c-10.024-10.79-12.438-23.173-7.204-36.731c5.122-13.266,15.571-19.807,29.456-21.103
	c5.765-0.538,11.658-0.189,17.325-1.193c12.504-2.215,17.794-10.056,18.036-25.547c0.359-22.979,7.434-34.385,24.606-39.666
	c20.128-6.19,40.266,6.796,42.823,27.614c4.302,35.027,4.302,35.027,39.127,39.219c17.653,2.125,28.851,15.62,28.542,34.395
	c-0.297,18.014-12.03,31.055-29.137,32.387c-19.469,1.516-33.882-8.961-36.928-26.904c-0.485-2.854-0.783-5.744-1.066-8.628
	C214.824,223.837,209.412,218.77,183.903,217.892z M485.127,169.192c-6.265-14.125-22.095-22.213-36.64-19.299
	c-16.389,3.284-27.387,16.438-27.786,33.233c-0.67,28.166-4.127,31.965-31.684,34.742c-2.056,0.207-4.127,0.364-6.191,0.372
	c-12.14,0.052-20.664,6.486-25.251,16.841c-3.052,6.891-3.983,14.952-4.708,22.599c-1.931,20.368-7.235,25.978-27.468,27.393
	c-2.471,0.173-4.968-0.036-7.439,0.129c-19.967,1.328-32.825,15.118-32.533,34.829c0.279,18.771,14.197,32.639,33.115,32.995
	c18.53,0.348,33.493-14.081,34.603-33.368c1.583-27.506,6.981-32.984,33.922-34.431c18.593-0.999,32.208-13.873,33.559-31.731
	c2.282-30.165,5.724-33.694,35.126-36.013c19.636-1.549,31.73-14.355,32.135-37.556
	C487.558,178.585,487.067,173.567,485.127,169.192z M48.53,285.021c-19.798,0.054-33.773,14.287-33.895,34.521
	c-0.112,18.522,13.927,33.158,32.213,33.584c18.893,0.44,34.583-14.272,34.739-32.576C81.76,300.339,67.46,284.969,48.53,285.021z"
	/>
</svg>
