<?xml version="1.0" encoding="iso-8859-1"?>
<!-- Generator: Adobe Illustrator 19.0.0, SVG Export Plug-In . SVG Version: 6.00 Build 0)  -->
<svg version="1.1" id="Layer_1" xmlns="http://www.w3.org/2000/svg" xmlns:xlink="http://www.w3.org/1999/xlink" x="0px" y="0px"
	 viewBox="0 0 500 500" style="enable-background:new 0 0 500 500;" xml:space="preserve">
<path id="XMLID_4_" d="M13.216,250.022c24.377-12.023,47.381-23.37,70.387-34.716c37.284-18.387,74.532-36.848,111.9-55.062
	c4.387-2.138,6.74-5.021,8.252-9.529c14.472-43.147,29.108-86.239,43.713-129.341c0.89-2.627,1.916-5.207,3.322-9.009
	c4.844,9.764,9.186,18.476,13.493,27.205c25.523,51.724,50.964,103.49,76.731,155.093c1.633,3.271,5.352,6.507,8.812,7.706
	c44.099,15.283,88.328,30.189,132.521,45.2c1.529,0.519,3.027,1.13,5.824,2.182c-3.011,1.574-5.079,2.709-7.192,3.752
	c-57.59,28.426-115.152,56.909-172.83,85.154c-5.397,2.643-8.619,5.813-10.583,11.741c-14.309,43.192-29.053,86.24-43.682,129.325
	c-0.741,2.183-1.688,4.296-2.943,7.462c-5.602-11.243-10.817-21.616-15.951-32.028c-24.579-49.844-49.201-99.667-73.591-149.603
	c-2.257-4.622-5.237-7.053-9.997-8.647c-42.925-14.371-85.78-28.95-128.652-43.478C20.116,252.535,17.51,251.559,13.216,250.022z
	 M177.849,276.908c50.712-25.011,99.712-49.177,149.179-73.574c-24.583-49.851-48.715-98.789-73.598-149.249
	C228.1,128.761,203.281,201.932,177.849,276.908z M445.856,252.743c-1.919-0.95-2.907-1.584-3.987-1.952
	c-33.111-11.265-66.202-22.593-99.405-33.58c-2.642-0.874-6.449-0.13-9.083,1.156c-45.073,22.012-90.05,44.222-135.037,66.411
	c-3.854,1.901-7.627,3.965-12.566,6.542c2.316,0.942,3.292,1.398,4.306,1.743c33.108,11.242,66.185,22.578,99.393,33.514
	c2.782,0.916,6.816-0.123,9.655-1.509c40.873-19.961,81.642-40.135,122.432-60.266C429.441,260.915,437.3,256.992,445.856,252.743z
	 M55.146,247.34c35.366,11.992,69.248,23.481,103.743,35.178c11.618-34.28,23.01-67.896,34.403-101.512
	c-0.468-0.362-0.936-0.724-1.403-1.086C146.798,202.152,101.706,224.384,55.146,247.34z M182.345,307.76
	c-0.461,0.406-0.921,0.812-1.382,1.218c22.226,45.069,44.451,90.138,67.383,136.638c12.009-35.408,23.498-69.284,35.174-103.711
	C249.312,330.36,215.828,319.06,182.345,307.76z"/>
</svg>
