<?xml version="1.0" encoding="utf-8"?>
<!-- Generator: Adobe Illustrator 25.1.0, SVG Export Plug-In . SVG Version: 6.00 Build 0)  -->
<svg version="1.1" id="Layer_1" xmlns="http://www.w3.org/2000/svg" xmlns:xlink="http://www.w3.org/1999/xlink" x="0px" y="0px"
	 viewBox="0 0 500 500" style="enable-background:new 0 0 500 500;" xml:space="preserve">
<g>
	<path d="M5,248.7c65.8-32.5,130.2-64.2,194.4-95.9C216.3,103.1,233,53.9,250.3,3c32.4,65.7,64.1,130,95.9,194.4
		c49.5,16.8,98.9,33.6,149.8,50.9c-65.7,32.4-129.8,64-194.4,95.9c-16.7,49.2-33.5,98.7-50.8,149.7c-32.4-65.7-64.1-130-95.9-194.4
		C105.3,282.8,55.9,266,5,248.7z M253.1,46.4c-26.2,77.4-51.8,152.8-78,230c52.5-25.9,102.9-50.8,154-75.9
		C303.8,149.1,278.8,98.6,253.1,46.4z M452.5,251.1c-38.6-13.1-75.4-25.6-111.8-37.9c-52.7,26-104.6,51.6-158.3,78.1
		c38.5,13.1,74.8,25.4,111.6,37.9C346.3,303.6,398.5,277.8,452.5,251.1z M155.5,282.2c12-35.3,23.7-70,35.5-104.7
		c-0.5-0.4-1-0.8-1.4-1.2c-46.5,22.9-93.1,45.9-141.1,69.6C85,258.3,119.9,270.1,155.5,282.2z M247.9,450.5
		c12.4-36.5,24.2-71.4,36.3-107c-35.4-11.9-70.1-23.6-106.9-36.1C201.2,356,224.2,402.5,247.9,450.5z"/>
</g>
</svg>
