<?xml version="1.0" encoding="iso-8859-1"?>
<!-- Generator: Adobe Illustrator 19.0.0, SVG Export Plug-In . SVG Version: 6.00 Build 0)  -->
<svg version="1.1" id="Layer_1" xmlns="http://www.w3.org/2000/svg" xmlns:xlink="http://www.w3.org/1999/xlink" x="0px" y="0px"
	 viewBox="0 0 500 500" style="enable-background:new 0 0 500 500;" xml:space="preserve">
<path d="M112.862,381.224c-33.811,0-67.621,0.012-101.432-0.043c-1.358-0.002-2.715-0.64-4.073-0.981
	c7.529-17.327,15.135-34.622,22.573-51.988c29.72-69.384,59.389-138.79,89.077-208.188c35.168,0,70.336,0,105.504,0
	c0.384,0.934,0.678,1.917,1.164,2.795c28.262,51.122,56.539,102.236,84.829,153.343c0.509,0.92,1.192,1.744,2.096,3.049
	c1.235-2.425,2.182-4.206,3.061-6.021c17.952-37.078,35.923-74.146,53.829-111.247c6.725-13.935,13.296-27.944,19.936-41.919
	c33.802,0,67.605-0.012,101.407,0.043c1.366,0.002,2.732,0.64,4.097,0.981c-0.925,1.602-1.955,3.152-2.758,4.812
	c-33.255,68.682-66.507,137.365-99.714,206.07c-7.922,16.391-15.683,32.86-23.519,49.293c-35.168,0-70.336,0-105.504,0
	c-28.242-51.007-56.484-102.014-85.113-153.721c-1.192,2.608-1.929,4.132-2.593,5.687c-13.843,32.41-27.708,64.81-41.501,97.241
	C127.04,347.334,119.98,364.292,112.862,381.224z"/>
</svg>
