<?xml version="1.0" encoding="iso-8859-1"?>
<!-- Generator: Adobe Illustrator 19.0.0, SVG Export Plug-In . SVG Version: 6.00 Build 0)  -->
<svg version="1.1" id="Layer_1" xmlns="http://www.w3.org/2000/svg" xmlns:xlink="http://www.w3.org/1999/xlink" x="0px" y="0px"
	 viewBox="0 0 500 500" style="enable-background:new 0 0 500 500;" xml:space="preserve">
<path d="M143.912,222.38c0,4.872,0,9.745,0,14.617c0,66.877-0.052,133.753,0.024,200.63c0.03,26.137-11.324,45.305-35.526,55.218
	c-24.59,10.072-54.82,0.389-68.632-24.761c-5.381-9.798-7.337-20.231-7.321-31.482c0.181-123.297,0.063-246.594,0.131-369.892
	c0.013-24.188,11.46-42.455,32.916-52.241c22.522-10.272,48.616-5.485,66.19,15.782c44.509,53.861,88.583,108.082,132.925,162.082
	c32.322,39.362,64.82,78.578,97.187,117.903c26.369,32.037,52.929,63.924,78.913,96.271c25.432,31.66,8.897,77.557-29.007,87.647
	c-22.85,6.083-42.241,0.062-57.211-17.95c-33.468-40.267-66.44-80.947-99.698-121.39c-27.371-33.285-54.863-66.47-82.299-99.701
	c-9.121-11.048-18.232-22.103-27.348-33.155C144.741,222.099,144.327,222.239,143.912,222.38z M404.191,208.417
	c16.767-14.119,31.277-30.331,43.611-48.397c17.73-25.969,29.963-53.774,27.721-86.278c-1.151-16.691-7.122-31.476-18.033-43.793
	C437.419,7.292,412.357-2.037,382.078,3.607c-22.014,4.104-38.935,15.624-51.029,34.169c-16.815,25.783-15.156,53.248-6.128,80.992
	c7.139,21.939,19.752,40.82,34.373,58.422c11.176,13.454,23.404,25.84,37.773,36.716
	C399.596,211.966,401.972,210.285,404.191,208.417z M360.546,80.722c0.047-19.587,17.205-36.65,36.783-36.58
	c19.621,0.07,36.685,17.235,36.571,36.787c-0.114,19.667-17.185,36.647-36.78,36.583C377.498,117.45,360.499,100.35,360.546,80.722z
	"/>
</svg>
