<?xml version="1.0" encoding="iso-8859-1"?>
<!-- Generator: Adobe Illustrator 19.0.0, SVG Export Plug-In . SVG Version: 6.00 Build 0)  -->
<svg version="1.1" id="Layer_1" xmlns="http://www.w3.org/2000/svg" xmlns:xlink="http://www.w3.org/1999/xlink" x="0px" y="0px"
	 viewBox="0 0 2000 2000" style="enable-background:new 0 0 2000 2000;" xml:space="preserve">
<path d="M1175.698,274.122c272.07,510.733,540.66,1014.933,813.412,1526.946c-46.505-17.354-84.711-31.473-122.814-45.865
	c-52.074-19.669-103.694-40.626-156.271-58.833c-23.028-7.975-37.898-20.848-49.516-42.209
	C1501.603,1362,1342.012,1070.211,1182.536,778.36c-7.838-14.345-16.18-28.415-27.791-48.747
	c-174.467,334.059-346.472,663.405-517.916,991.676c-86.001,0-169.125,0-257.615,0
	C645.069,1238.246,908.841,758.986,1175.698,274.122z M12.324,1055.143c201.948,76.061,395.376,148.914,591.239,222.683
	c29.153-52.517,57.495-103.573,87.043-156.801c-74.843-26.232-147.135-51.569-225.264-78.952
	c112.233-46.004,218.183-89.128,323.761-133.141c11.657-4.86,25.109-12.529,31.069-22.771
	c34.657-59.565,67.322-120.289,105.087-188.632C617.709,818.002,319.148,934.954,12.324,1055.143z M1635.967,1642.791
	c-38.747-71.473-76.565-143.484-117.187-213.876c-8.709-15.092-25.787-29.549-42.18-35.366
	c-167.9-59.58-336.444-117.345-504.842-175.517c-15.26-5.272-30.763-9.844-47.811-15.269
	c-28.601,55.603-56.037,108.942-84.513,164.302c270.381,102.131,537.033,202.854,812.109,306.76
	C1643.95,1658.654,1640.197,1650.593,1635.967,1642.791z M1216.102,319.344c25.243,47.255,46.492,87.034,67.822,126.964
	c52.365,14.621,103.727,28.962,163.497,45.65c-43.482,17.524-77.671,31.302-114.567,46.171c22.053,41.466,43.1,81.041,65.261,122.71
	c89.006-36.44,176.125-72.107,266.621-109.157c-23.182-41.251-44.251-78.741-66.217-117.828
	C1471.867,395.929,1347.353,358.645,1216.102,319.344z M744.027,300.689c120.044,32.451,234.614,63.422,349.154,94.385
	c18.51-33.787,35.123-64.111,53.078-96.885c-108.366-32.632-213.524-64.298-322.961-97.252
	C797.444,233.471,772.243,265.184,744.027,300.689z"/>
</svg>
