<?xml version="1.0" encoding="iso-8859-1"?>
<!-- Generator: Adobe Illustrator 19.0.0, SVG Export Plug-In . SVG Version: 6.00 Build 0)  -->
<svg version="1.1" id="Layer_1" xmlns="http://www.w3.org/2000/svg" xmlns:xlink="http://www.w3.org/1999/xlink" x="0px" y="0px"
	 viewBox="0 0 500 500" style="enable-background:new 0 0 500 500;" xml:space="preserve">
<path id="XMLID_4_" d="M381.206,52.568c3.4,8.726,8.944,13.682,15.914,17.533c7.226,3.993,13.373,9.72,22.134,11.095
	c5.164,0.811,8.511,6.156,8.003,11.62c-0.388,4.173,0.84,7.557,2.589,10.976c10.654,20.826,21.264,41.677,32.129,62.393
	c1.557,2.968,4.344,5.323,6.707,7.824c1.304,1.38,3.104,2.306,4.342,3.73c2.678,3.081,2.671,5.91,0.296,8.6
	c-2.384,2.701-6.038,3.82-8.522,1.379c-4.921-4.837-11.394-5.542-17.201-8.074c-4.604-2.008-8.533-5.545-12.804-8.339
	c-4.534-2.966-8.956-6.157-13.715-8.711c-7.621-4.09-15.389-7.936-23.268-11.502c-5.512-2.494-11.313-4.349-16.463-6.293
	c-4.934,1.799-6.494,4.985-6.535,9.244c-0.068,7.067-0.274,14.132-0.33,21.199c-0.303,38.53-0.613,77.06-0.846,115.59
	c-0.089,14.709-0.116,29.422,0.091,44.13c0.122,8.674,0.523,17.377,6.442,24.632c0.978,1.198,1.868,2.897,1.886,4.376
	c0.095,7.897,5.381,12.783,10.094,17.984c3.877,4.277,8.017,8.315,11.921,12.569c4.509,4.913,9.57,7.573,17.33,3.891
	c5.972-9.915,12.714-20.773,19.119-31.827c7.853-13.554,15.597-27.178,23.023-40.968c2.538-4.714,3.775-10.112,6.006-15.015
	c0.967-2.125,2.727-5.011,4.521-5.329c1.859-0.329,4.736,1.583,6.186,3.33c1.841,2.22,0.46,4.618-1.241,6.899
	c-3.035,4.069-6.018,8.268-8.314,12.774c-3.185,6.249-5.795,12.482-11.184,17.641c-3.935,3.766-5.506,9.979-8.207,15.061
	c-7.805,14.684-15.733,29.304-23.4,44.06c-1.446,2.783-1.969,6.061-2.813,9.14c-1.077,3.929-3.061,7.005-7.091,8.474
	c-14.552,5.303-27.125,14.203-40.291,22.06c-16.202,9.667-32.713,18.814-48.95,28.424c-4.623,2.736-8.97,6.047-13.065,9.538
	c-5.667,4.831-11.408,6.866-18.409,2.876c-1.868-1.065-4.162-1.738-6.313-1.899c-32.633-2.449-65.269-4.864-97.92-7.054
	c-4.705-0.316-9.535,0.29-14.231,0.983c-6.379,0.941-11.812-0.678-14.947-6.23c-2.508-4.442-6.149-7.293-10.032-10.056
	c-20.842-14.831-41.739-29.584-62.606-44.379c-4.413-3.129-8.708-6.434-13.224-9.404c-1.219-0.802-3.056-0.643-4.598-0.976
	c-7.257-1.57-11.09-5.724-12.567-12.748c-0.976-4.64-2.131-9.344-3.995-13.679c-8.861-20.607-17.857-41.159-27.14-61.578
	c-1.934-4.255-4.957-8.155-8.068-11.701c-4.211-4.8-5.855-9.448-3.17-15.763c1.832-4.309,2.504-9.189,3.182-13.888
	c0.547-3.792,0.307-7.695,0.454-11.547c1.153-30.15,2.378-60.297,3.407-90.451c0.162-4.755-0.334-9.566-0.91-14.305
	c-0.997-8.2,0.701-11.591,7.96-15.664c2.441-1.37,4.848-3.025,6.797-5.014c18.582-18.965,37.043-38.049,55.579-57.058
	c10.264-10.526,20.669-20.914,30.848-31.521c1.7-1.772,2.968-4.214,3.735-6.574c1.86-5.722,5.829-8.794,11.516-8.241
	c16.021,1.56,31.112-3.554,46.552-5.98c22.152-3.481,44.205-7.593,66.288-11.502c7.565-1.339,15.157-2.624,22.615-4.433
	c3.622-0.879,7.108-2.652,10.403-4.476c5.362-2.968,10.407-3.416,14.97,1.158c12.007,12.036,27.943,17.71,42.124,26.222
	c3.558,2.136,7.308,3.959,10.804,6.187C362.739,49.037,371.029,53.004,381.206,52.568z M203.632,353.265
	c0-16.553,0.014-34.536-0.005-52.52c-0.013-13.115,1.34-26.414-5.033-38.706c-0.145-0.28-0.211-0.608-0.28-0.921
	c-1.442-6.587,1.478-12.114,7.748-14.669c8.337-3.399,16.32,0.025,19.012,8.778c2.797,9.098,7.527,16.89,13.573,24.131
	c10.478,12.551,20.625,25.379,31.058,37.968c8.582,10.356,17.31,20.595,26.13,30.749c2.059,2.37,4.507,5.466,7.209,5.987
	c5.39,1.04,9.396,3.705,13.324,7.108c1.091,0.945,2.898,1.465,4.385,1.484c9.635,0.122,19.294,0.451,28.902-0.075
	c8.497-0.466,12.353-5.376,12.34-13.967c-0.068-44.665-0.129-89.329-0.182-133.994c-0.025-20.887,0.036-41.775-0.065-62.661
	c-0.043-8.945-3.937-13.004-12.759-13.19c-11.243-0.237-22.499,0.06-33.735-0.311c-5.314-0.176-8.577,2.387-10.812,6.502
	c-1.006,1.851-1.086,4.347-1.127,6.558c-0.378,20.547-1.108,41.104-0.729,61.64c0.143,7.763-0.365,15.963,4.259,23.359
	c1.603,2.563,1.119,6.953,0.468,10.29c-1.215,6.236-7.647,9.984-14.883,9.435c-7.495-0.569-11.379-3.911-11.668-11.255
	c-0.215-5.454-1.915-9.919-5.34-14.04c-4.501-5.416-8.677-11.103-13.148-16.546c-15.458-18.816-31.304-37.325-46.336-56.474
	c-6.63-8.447-17.138-10.828-24.476-17.958c-1.486-1.444-4.845-1.233-7.353-1.296c-6.101-0.153-12.209-0.013-18.314-0.002
	c-4.73,0.009-9.46,0.002-12.344,0.002c-9.449,8.431-11.395,17.445-9.813,27.577c0.294,1.882,0.043,3.85,0.043,5.778
	c0,56.235,0,112.47,0,168.704c0,4.796,0,9.592,0,13.066c4.856,7.626,10.895,9.445,18.091,9.191
	c7.702-0.272,15.422-0.254,23.128-0.099C191.933,363.029,198.251,361.82,203.632,353.265z M131.659,349.799
	c0.247-4.084,0.527-6.6,0.531-9.117c0.036-20.852,0.081-41.703,0.005-62.555c-0.094-25.978-0.38-51.956-0.426-77.935
	c-0.024-13.788,0.008-27.588,0.544-41.361c0.326-8.376-3.718-15.045-8.096-21.123c-2.471-3.431-7.883-4.793-12.05-6.931
	c-1.983-1.017-4.115-1.79-6.246-2.463c-7.089-2.239-10.196-0.593-12.393,6.2c-10.214,31.576-19.274,63.521-30.508,94.772
	c-2.91,8.095-6.13,16.238-7.63,24.64c-1.781,9.976-1.479,19.394,7.568,27.582c15.658,14.171,30.026,29.766,44.966,44.733
	C115.366,333.697,122.873,341.084,131.659,349.799z M217.992,274.439c-0.603,4.326-1.088,6.222-1.098,8.12
	c-0.115,22.766-0.144,45.533-0.239,68.3c-0.014,3.378,1.176,6.002,3.496,8.536c1.873,2.045,3.717,4.736,4.123,7.365
	c0.652,4.221,2.916,6.998,5.874,9.492c5.606,4.727,11.415,9.217,16.939,14.036c13.982,12.197,27.824,24.555,41.787,36.774
	c4.009,3.508,8.241,6.762,13.327,10.913c0.462-3.237,1.084-5.322,0.993-7.377c-0.295-6.708-0.789-13.41-1.322-20.105
	c-0.605-7.599-1.063-15.228-2.156-22.76c-0.382-2.633-1.993-5.462-3.858-7.431c-4.806-5.077-7.723-10.983-8.975-17.717
	c-0.97-5.217-3.389-9.508-6.725-13.571c-13.4-16.322-26.539-32.858-39.976-49.149C233.518,291.781,226.416,284.059,217.992,274.439z
	 M172.175,127.518c0.011-0.154,0.022-0.309,0.034-0.463c3.849,0,7.733,0.312,11.537-0.104c2.77-0.303,5.987-0.884,8.041-2.537
	c5.424-4.367,10.695-8.952,13.718-15.64c5.108-11.304,10.663-22.405,15.927-33.639c1.75-3.734,0.9-7.128-2.482-9.072
	c-2.169-1.247-4.731-1.952-7.206-2.502c-14.975-3.326-29.971-6.561-44.971-9.771c-3.741-0.801-7.573-2.165-11.281-1.937
	c-8.603,0.528-17.009,2.051-22.051,10.502c-9.156,15.345-18.484,30.588-27.595,45.96c-2.109,3.558-1.534,6.934,1.949,8.113
	c7.657,2.593,15.249,7.279,23.841,3.249c6.327-2.968,11.662-1.659,16.711,3.005c1.724,1.592,4.295,2.735,6.633,3.099
	C160.663,126.666,166.437,126.976,172.175,127.518z M286.007,223.798c0.819-0.077,1.639-0.154,2.458-0.231
	c0.597-3.657,1.665-7.308,1.709-10.971c0.189-15.424,0.269-30.855-0.006-46.276c-0.166-9.301-1.202-18.461-7.062-26.441
	c-1.574-2.144-2.344-5.467-2.193-8.176c0.416-7.452-3.156-12.853-7.732-18.051c-9.539-10.835-19.131-21.63-28.37-32.718
	c-3.437-4.125-6.811-5.458-11.756-2.732c-2.205,5.579-4.193,11.322-6.723,16.816c-2.654,5.763-5.86,11.27-8.762,16.922
	c-2.686,5.233-2.634,10.366,0.214,15.648c1.154,2.141,2.186,4.908,1.85,7.179c-0.785,5.309,1.113,9.459,4.213,13.307
	c12.067,14.98,24.129,29.965,36.32,44.844C268.674,203.299,277.387,213.51,286.007,223.798z M246.865,66.964
	c12.301,13.58,23.37,25.154,33.688,37.361c11.993,14.189,28.445,22.616,47.153,22.768c7.047,0.057,14.127,0.169,21.139-0.401
	c8.751-0.712,11.72-3.474,13.083-12.261c1.955-12.608,3.402-25.295,5.068-37.948c0.394-2.991-0.993-5.081-3.664-6.006
	c-2.063-0.715-4.335-1.041-6.53-1.122c-19.4-0.722-38.801-1.447-58.206-1.972c-11.854-0.321-23.718-0.305-35.577-0.412
	C258.329,66.929,253.639,66.964,246.865,66.964z M184.789,463.018c37.205-5.9,72.033-11.423,108.049-17.135
	c-2.299-2.553-3.63-4.245-5.176-5.711c-6.285-5.964-12.602-11.896-18.977-17.764c-3.06-2.817-6.146-5.634-9.443-8.161
	c-10.941-8.386-21.979-16.646-32.995-24.934c-1.28-0.963-2.589-1.931-4.005-2.663c-5.541-2.868-8.935-1.73-11.594,3.996
	c-2.018,4.346-4.041,8.714-5.652,13.218c-2.14,5.981-3.97,12.079-5.77,18.174c-1.901,6.437-3.288,13.042-5.494,19.367
	C191.444,447.968,188.444,454.285,184.789,463.018z M405.247,410.031c-9.077-8.696-17.571-16.453-25.572-24.69
	c-3.048-3.137-5.989-4.587-10.15-3.575c-4.106,0.998-7.334-0.381-10.602-2.976c-2.371-1.883-5.541-3.78-8.398-3.846
	c-10.23-0.237-20.501-0.04-30.711,0.662c-7.378,0.507-9.951,4.98-9.028,12.541c1.004,8.228,1.577,16.513,2.159,24.785
	c0.36,5.119,0.148,10.284,0.644,15.385c0.358,3.683,1.459,7.294,2.336,11.444c3.118-0.461,5.337-0.491,7.358-1.139
	c10.666-3.42,21.233-7.156,31.928-10.48C371.549,423.062,387.221,416.148,405.247,410.031z M56.689,290.205
	c-0.654,0.272-1.308,0.545-1.963,0.817c1.304,6.518,2.605,13.036,3.914,19.553c1.318,6.565,2.666,13.125,3.959,19.695
	c1.235,6.275,2.211,12.61,3.679,18.829c1.54,6.525,3.647,12.914,5.286,19.418c1.581,6.275,2.882,12.62,4.472,19.67
	c3.504-1.221,5.903-1.899,8.173-2.876c7.626-3.28,15.262-6.544,22.782-10.057c4.333-2.024,8.582-4.302,12.63-6.845
	c5.699-3.58,6.14-6.542,2.01-11.57c-2.031-2.473-4.282-4.773-6.519-7.068c-12.291-12.609-24.596-25.205-36.921-37.78
	C71.048,304.707,63.858,297.467,56.689,290.205z M163.619,455.392c-0.89-3.639-1.183-5.423-1.762-7.109
	c-4.567-13.312-9.702-26.456-13.637-39.951c-3.429-11.763-8.016-22.19-19.614-28.022c-18.062,3.769-39.9,13.096-44.883,19.395
	c1.591,1.456,3.047,3.179,4.853,4.373c6.37,4.212,12.569,8.561,18.642,13.266c15.398,11.929,31.773,22.601,47.823,33.679
	C157.205,452.516,159.756,453.449,163.619,455.392z M377.003,77.736c-0.718,11.257-0.68,20.882-2.102,30.286
	c-1.628,10.767,4.122,17.542,11.039,23.836c3.264,2.969,7.312,5.127,11.154,7.401c17.053,10.093,34.152,20.108,51.262,30.103
	c1.453,0.849,3.114,1.343,5.56,2.374C450.525,164.098,386.322,85.504,377.003,77.736z M176.338,453.012
	c0.631-0.73,1.488-1.309,1.755-2.089c5.161-15.092,10.43-30.151,15.277-45.345c2.028-6.359,3.7-12.944,4.506-19.552
	c0.963-7.89-1.904-10.678-9.509-11.014c-3.502-0.155-7.006-0.28-10.506-0.477c-9.078-0.51-20.486,0.991-26.037,3.463
	C152.787,389.783,170.656,444.649,176.338,453.012z M82.656,131.861c-3.649,1.894-5.6,2.716-7.351,3.849
	c-8.062,5.214-15.987,10.643-24.114,15.752c-9.851,6.193-12.793,12.378-11.176,23.929c0.663,4.737,1.111,9.517,1.39,14.293
	c0.802,13.73,1.341,27.476,2.253,41.198c0.336,5.051,1.427,10.052,2.173,15.075C58.044,208.462,71.326,171.457,82.656,131.861z
	 M254.475,53.246c0.131,0.744,0.262,1.489,0.393,2.233c11.483,0.227,22.965,0.523,34.449,0.661
	c11.217,0.135,22.44,0.305,33.653,0.096c11.099-0.207,22.212,3.474,33.895,0.6c-0.992-1.207-1.292-1.867-1.803-2.151
	c-15.093-8.398-30.209-16.756-45.316-25.127c-6.256-3.467-13.044-1.011-19.551-1.715c-0.803-0.087-1.79,0.68-2.557,1.237
	C276.57,37.116,265.525,45.185,254.475,53.246z M175.477,43.404c1.984,1.525,2.625,2.401,3.417,2.569
	c13.065,2.768,26.272,4.972,39.186,8.312c8.759,2.265,17.069-0.191,23.715-3.821c9.305-5.083,16.854-13.381,25.154-20.304
	c-0.259-0.594-0.519-1.188-0.778-1.783C236.365,33.182,206.294,36.268,175.477,43.404z M301.314,456.074
	c-14.293,2.163-26.883,3.907-39.414,6.01c-12.692,2.13-25.886,1.715-38.02,7.043c13.773,1.576,27.472,2.533,41.177,3.391
	c5.124,0.321,10.333-0.05,15.379,0.713c7.954,1.203,15.343,1.346,21.652-6.937C301.931,464.231,301.679,460.904,301.314,456.074z
	 M374.64,435.473c-0.144-0.641-0.288-1.283-0.432-1.924c-2.399,0.518-4.873,0.812-7.184,1.592
	c-11.521,3.888-22.914,8.182-34.528,11.761c-6.262,1.93-11.319,4.693-15.733,9.826c-3.665,4.263-4.365,8.026-2.684,14.411
	C334.739,458.913,354.925,447.604,374.64,435.473z M42.053,283.814c-5.76,9.245-8.637,19.683-6.315,25.446
	c5.349,13.277,10.605,26.648,18.642,38.796C51.901,326.965,46.949,306.419,42.053,283.814z M436.877,136.391
	c0.499-0.388,0.999-0.776,1.498-1.164c-0.398-1.164-0.614-2.435-1.224-3.475c-5.509-9.395-10.971-18.822-16.737-28.058
	c-1.253-2.006-3.428-3.869-5.604-4.774c-4.19-1.744-6.63-4.591-8.373-8.669c-2.433-5.694-3.544-6.251-11.391-8.082
	C409.184,100.496,423.03,118.443,436.877,136.391z M99.876,93.604c-11.888,9.836-22.409,20.871-31.83,32.956
	C81.626,118.425,92.071,107.245,99.876,93.604z M30.777,277.42c5.959-8.585,4.436-26.683,1.743-43.603
	C31.923,248.752,31.377,262.395,30.777,277.42z"/>
</svg>
