<?xml version="1.0" encoding="iso-8859-1"?>
<!-- Generator: Adobe Illustrator 19.0.0, SVG Export Plug-In . SVG Version: 6.00 Build 0)  -->
<svg version="1.1" id="Layer_1" xmlns="http://www.w3.org/2000/svg" xmlns:xlink="http://www.w3.org/1999/xlink" x="0px" y="0px"
	 viewBox="0 0 500 500" enable-background="new 0 0 500 500" xml:space="preserve">
<path d="M190.824,396.796c-41.267-0.006-82.534,0.016-123.802-0.017c-15.036-0.012-22.618-5.959-22.778-17.673
	c-0.167-12.205,8.004-19.076,22.875-19.08c79.266-0.019,158.532,0.028,237.798-0.018c100.146-0.059,175.17-96.425,148.827-192.804
	C435.26,99.579,378.683,53.881,304.503,52.044c-30.625-0.759-61.288-0.776-91.919-0.242c-15.174,0.264-21.367-7.53-21.953-18.824
	c-0.519-9.993,7.766-17.753,20.819-17.726c40.416,0.086,81.372-2.913,121.122,2.547c65.827,9.042,114.615,46.065,144.05,106.214
	c47.895,97.871,0.372,219.504-100.365,258.825c-23.804,9.292-48.275,14.213-73.888,14.031
	C265.188,396.604,228.006,396.801,190.824,396.796z M186.693,102.604c-41.277,0-82.565-0.46-123.822,0.45
	c-6.927,0.153-16.523,4.45-20.016,9.935c-8.067,12.666,2.338,26.27,18.809,26.283c81.329,0.066,162.659-0.207,243.986,0.166
	c26.882,0.123,46.984,13.858,58.613,37.282c10.978,22.112,9.698,45.126-4.365,66.264c-14.97,22.502-36.852,30.12-63.088,29.703
	c-39.632-0.629-79.281-0.278-118.922-0.228c-15.576,0.02-25.172,7.519-24.844,19.018c0.343,12.012,9.628,19.064,24.812,19.033
	c28.199-0.056,56.402,0.25,84.597-0.128c19.963-0.267,40.244,0.621,59.807-2.554c53.805-8.734,89.572-56.823,85.194-112.101
	c-3.958-49.977-48.98-93.476-101.834-93.102c-39.64,0.281-79.284,0.055-118.927,0.055
	C186.693,102.656,186.693,102.63,186.693,102.604z M23.98,447.813c-9.667-0.059-15.019,5.182-17.343,13.886
	c-3.248,12.167,6.234,22.618,21.303,22.811c26.893,0.345,53.793,0.167,80.691,0.174c8.149,0.002,16.331,0.327,24.44-0.268
	c11.524-0.846,19.857-9.547,19.427-19.407c-0.442-10.14-7.72-16.87-19.716-17.108c-17.516-0.346-35.043-0.089-52.566-0.072
	C61.471,447.847,42.725,447.927,23.98,447.813z M152.796,188.269c-8.546,0-17.15-0.626-25.621,0.167
	c-9.417,0.882-15.79,5.923-16.328,16.297c-0.541,10.436,3.956,18.57,14.356,19.157c17.381,0.98,34.919,0.389,52.321-0.683
	c10.262-0.633,15.968-7.744,15.837-18.057c-0.126-9.928-7.817-16.59-18.59-16.944c-7.318-0.24-14.649-0.046-21.975-0.046
	C152.796,188.195,152.796,188.232,152.796,188.269z"/>
</svg>
