<?xml version="1.0" encoding="utf-8"?>
<!-- Generator: Adobe Illustrator 25.1.0, SVG Export Plug-In . SVG Version: 6.00 Build 0)  -->
<svg version="1.1" id="nct" xmlns="http://www.w3.org/2000/svg" xmlns:xlink="http://www.w3.org/1999/xlink" x="0px" y="0px"
	 viewBox="0 0 500 500" style="enable-background:new 0 0 500 500;" xml:space="preserve">
<path d="M303.2,397.2H62.4c-9.8,0-17.8-7.9-17.8-17.8s7.9-17.8,17.8-17.8h240.8c86.2,0,156.3-70.1,156.3-156.3
	S389.4,49.1,303.2,49.1H207c-9.8,0-17.8-7.9-17.8-17.8s7.9-17.8,17.8-17.8h96.2C409,13.5,495,99.6,495,205.3S409,397.2,303.2,397.2z
	"/>
<path d="M305.5,309.3H170.3c-9.8,0-17.8-7.9-17.8-17.8s7.9-17.8,17.8-17.8h135.1c37.7,0,68.4-30.7,68.4-68.4s-30.7-68.4-68.4-68.4
	H56.9c-9.8,0-17.8-7.9-17.8-17.8s7.9-17.8,17.8-17.8h248.6c57.3,0,104,46.6,104,104C409.4,262.7,362.8,309.3,305.5,309.3z"/>
<path d="M179.1,222.6h-52.2c-9.8,0-17.8-7.9-17.8-17.8S117,187,126.9,187h52.2c9.8,0,17.8,7.9,17.8,17.8S188.9,222.6,179.1,222.6z"
	/>
<path d="M135.8,482H22.3c-9.8,0-17.8-7.9-17.8-17.8s7.9-17.8,17.8-17.8h113.5c9.8,0,17.8,7.9,17.8,17.8S145.6,482,135.8,482z"/>
</svg>
