<?xml version="1.0" encoding="iso-8859-1"?>
<!-- Generator: Adobe Illustrator 19.0.0, SVG Export Plug-In . SVG Version: 6.00 Build 0)  -->
<svg version="1.1" id="Layer_1" xmlns="http://www.w3.org/2000/svg" xmlns:xlink="http://www.w3.org/1999/xlink" x="0px" y="0px"
	 viewBox="0 0 500 500" style="enable-background:new 0 0 500 500;" xml:space="preserve">
<path id="XMLID_4_" d="M470.589,249.151c0,29.757-0.427,59.521,0.134,89.267c0.456,24.178-8.838,43.39-29.184,55.546
	c-50.241,30.018-101.067,59.061-151.764,88.312c-25.426,14.67-50.582,11.098-74.882-2.815
	c-47.413-27.146-94.771-54.397-141.833-82.146c-25.217-14.869-38.735-36.708-38.42-67.038c0.565-54.338,0.494-108.69-0.028-163.029
	c-0.286-29.822,13.131-51.258,37.977-65.83c49.376-28.959,98.972-57.549,148.72-85.863c23.698-13.488,47.465-9.938,70.2,2.872
	c46.871,26.41,93.554,53.156,140.255,79.867c25.755,14.731,41.512,34.691,39.524,66.773c-1.731,27.928-0.36,56.049-0.36,84.085
	C470.816,249.152,470.702,249.152,470.589,249.151z M372.004,250.36c0-18.972-0.505-37.964,0.218-56.909
	c0.348-9.116-3.096-14.052-10.722-18.405c-32.524-18.566-64.642-37.844-97.224-56.305c-3.682-2.086-10.421-2.542-13.944-0.559
	c-34.877,19.637-69.483,39.766-103.814,60.343c-3.538,2.12-6.725,8.023-6.798,12.227c-0.64,37.068-0.394,74.151-0.744,111.226
	c-0.1,10.647,4.161,17.07,13.683,22.373c31.145,17.345,61.538,36.042,92.706,53.344c5.095,2.828,14.09,3.866,18.829,1.263
	c33.957-18.649,67.416-38.226,100.611-58.21c3.744-2.254,6.679-8.806,6.87-13.491C372.446,288.319,371.995,269.331,372.004,250.36z
	 M339.409,200.177c-24.65,14.122-49.01,28.776-73.984,42.296c-8.982,4.862-11.977,11.056-11.913,20.64
	c0.204,30.171-0.135,60.344-0.15,90.517c-0.005,10.488,3.388,12.714,12.473,7.544c27.281-15.522,54.586-31.028,81.319-47.457
	c4.384-2.694,8.209-9.95,8.382-15.226c0.832-25.407,0.321-50.857,0.293-76.292c-0.01-8.846-0.002-17.691-0.002-30.261
	C347.658,196.017,343.411,197.884,339.409,200.177z"/>
</svg>
