<?xml version="1.0" encoding="utf-8"?>
<!-- Generator: Adobe Illustrator 25.1.0, SVG Export Plug-In . SVG Version: 6.00 Build 0)  -->
<svg version="1.1" id="Layer_1" xmlns="http://www.w3.org/2000/svg" xmlns:xlink="http://www.w3.org/1999/xlink" x="0px" y="0px"
	 viewBox="0 0 500 500" style="enable-background:new 0 0 500 500;" xml:space="preserve">
<path d="M490,236.3L309.2,30.4c-9.2-10.5-24.1-10.5-33.3,0L172,148.8l-22-25.2c-9.2-10.5-24.1-10.5-33.3,0L9.5,245.6
	c-9.2,10.5-9.2,27.4,0,37.9l113.1,128.8c9.2,10.5,24.1,10.5,33.3,0l14-16c0.1,0.1-76-86.5-76-86.5c-9.2-10.5-9.2-27.4,0-37.9
	l8.4-9.6c0.5,0.7,1,1.4,1.6,2l180.8,206c9.2,10.5,24.2,10.5,33.5,0L490,274.2C499.2,263.7,499.2,246.8,490,236.3z"/>
</svg>
