<?xml version="1.0" encoding="iso-8859-1"?>
<!-- Generator: Adobe Illustrator 19.0.0, SVG Export Plug-In . SVG Version: 6.00 Build 0)  -->
<svg version="1.1" id="Layer_1" xmlns="http://www.w3.org/2000/svg" xmlns:xlink="http://www.w3.org/1999/xlink" x="0px" y="0px"
	 viewBox="0 0 500 500" style="enable-background:new 0 0 500 500;" xml:space="preserve">
<path id="XMLID_4_" d="M211.528,491.023c-54.148-25.68-107.146-50.814-160.688-76.206c0-104.131,0-208.598,0-314.43
	c13.533,6.358,26.379,12.388,39.221,18.427c37.921,17.834,75.768,35.831,113.831,53.358c6.698,3.084,9.437,6.877,9.394,14.298
	c-0.51,86.696-0.763,173.394-1.069,260.092c-0.039,11.157,0.052,22.314-0.015,33.47C212.183,483.232,211.822,486.43,211.528,491.023
	z M444.343,96.414c-48.612,17.401-97.206,34.852-145.804,52.293c-9.174,3.292-9.229,3.294-9.231,13.414
	c-0.008,52.503,0.235,105.008-0.19,157.507c-0.071,8.705,2.549,12.928,10.532,16.584c41.136,18.837,81.939,38.402,122.866,57.696
	c10.427,4.916,20.882,9.772,31.742,14.851c0-105.6,0-209.792,0-315.155C450.458,94.669,447.33,95.345,444.343,96.414z
	 M60.799,95.507c3.484,1.686,6.956,3.399,10.455,5.055c45.891,21.715,91.824,43.34,137.63,65.233
	c5.677,2.713,10.39,2.964,16.466,0.754c71.995-26.18,144.123-51.994,216.201-77.945c2.815-1.013,5.48-2.44,9.381-4.199
	c-51.065-24.087-100.732-47.355-150.2-71.039c-6.524-3.123-11.709-3.025-18.438-0.57c-59.229,21.611-118.637,42.732-177.972,64.054
	c-14.45,5.193-28.826,10.59-43.236,15.893C60.989,93.664,60.894,94.586,60.799,95.507z"/>
</svg>
