<?xml version="1.0" encoding="iso-8859-1"?>
<!-- Generator: Adobe Illustrator 19.0.0, SVG Export Plug-In . SVG Version: 6.00 Build 0)  -->
<svg version="1.1" id="Layer_1" xmlns="http://www.w3.org/2000/svg" xmlns:xlink="http://www.w3.org/1999/xlink" x="0px" y="0px"
	 viewBox="0 0 500 500" enable-background="new 0 0 500 500" xml:space="preserve">
<path d="M250.495,3.872c134.85-0.554,242.733,108.744,245.115,239.956c2.526,139.145-109.774,251.225-247.313,250.165
	C115.343,492.968,1.55,383.575,5.489,241.026C9.058,111.873,115.685,3.454,250.495,3.872z M251.23,26.213
	C191.693,26.997,140.13,46.977,97.17,87.972c-43.014,41.047-66.253,91.636-68.823,150.898
	c-2.81,64.795,19.097,120.988,64.753,166.944c42.239,42.517,94.194,64.8,154.171,65.425
	c127.199,1.326,221.755-99.374,225.505-213.726c2.114-64.453-19.584-120.168-65.151-165.868
	C364.551,48.446,311.873,27.232,251.23,26.213z M146.624,116.06c48.227,28.857,95.765,57.302,143.545,85.891
	c0-19.391,0-38.307,0-57.189c-45.518-27.247-90.926-54.429-136.242-81.555c-20.11,9.674-45.313,29.689-55.876,42.724
	c-0.001,95.478-0.001,190.956-0.001,286.317c13.619,14.931,37.409,32.984,48.574,37.794
	C146.624,325.551,146.624,221.239,146.624,116.06z M347.237,434.467c21.191-11.093,39.59-25.28,55.738-42.121
	c0-95.803,0-191.279,0-286.861c-14.195-15.056-30.121-27.888-48.672-38.451c0,105.03,0,209.461,0,314.455
	c-47.971-28.709-95.425-57.109-143.322-85.774c0,19.306,0,38.027,0,57.197C256.398,380.096,301.788,407.264,347.237,434.467z
	 M203.66,215.924c29.155,17.435,57.649,34.474,86.475,51.711c0-19.144,0-37.765,0-56.711
	c-44.792-26.809-89.686-53.678-135.025-80.814c0,102.04,0,203.275,0,304.753c15.192,8.015,31.195,13.74,48.55,17.824
	C203.66,373.775,203.66,295.294,203.66,215.924z M297.425,281.712c-29.124-17.42-57.611-34.459-86.505-51.74
	c0,19.246,0,37.854,0,56.377c8.045,5.977,132.136,79.72,134.927,80.21c0-101.246,0-202.497,0-303.918
	c-15.305-7.861-31.175-13.807-48.422-17.631C297.425,124.004,297.425,202.485,297.425,281.712z M42.828,275.868
	c5.15,39.779,20.776,75.133,46.739,106.7c0-89.484,0-178.063,0-266.933C66.999,140.745,32.853,198.819,42.828,275.868z
	 M459.666,259.81c2.683-53.932-13.556-102.059-48.213-143.885c0,88.579,0,177.159,0,266.643
	C441.147,346.45,457.387,305.63,459.666,259.81z M290.102,135.335c0-19.365,0-38.343,0-57.205
	c-21.207-12.69-42.222-25.265-62.608-37.464c-22.951,2.619-44.207,8.499-65.101,18.226
	C205.353,84.606,247.604,109.897,290.102,135.335z M338.609,438.685c-42.871-25.657-85.093-50.925-127.66-76.401
	c0,19.47,0,38.323,0,57.197c20.809,12.453,41.466,24.815,62.608,37.467C295.987,454.389,317.531,448.568,338.609,438.685z
	 M260.067,456.969c-16.299-9.755-32.597-19.511-49.103-29.39c0,9.19,0,17.929,0,26.884c16.348,2.877,32.573,4.53,48.973,3.585
	C259.981,457.688,260.024,457.329,260.067,456.969z M290.061,70.013c0-9.289,0-18.023,0-26.707
	c-16.345-3.689-32.703-4.042-49.321-2.814C257.083,50.275,273.426,60.057,290.061,70.013z"/>
</svg>
