<?xml version="1.0" encoding="iso-8859-1"?>
<!-- Generator: Adobe Illustrator 19.0.0, SVG Export Plug-In . SVG Version: 6.00 Build 0)  -->
<svg version="1.1" id="Layer_1" xmlns="http://www.w3.org/2000/svg" xmlns:xlink="http://www.w3.org/1999/xlink" x="0px" y="0px"
	 viewBox="0 0 500 500" enable-background="new 0 0 500 500" xml:space="preserve">
<path d="M249.318,35.36c31.033,0,62.104,0.942,93.088-0.299c24.722-0.99,40.249,10.047,51.678,30.737
	c14.968,27.098,30.925,53.65,46.521,80.4c16.423,28.167,33.227,56.118,49.256,84.506c7.818,13.847,7.797,28.495-0.269,42.545
	c-13.608,23.702-27.37,47.316-41.132,70.929c-19.705,33.808-39.433,67.603-59.225,101.361
	c-8.613,14.691-21.517,23.085-38.565,23.154c-67.839,0.272-135.68,0.352-203.518-0.064c-15.131-0.093-27.828-7.462-35.631-20.544
	c-26.917-45.128-53.332-90.557-79.883-135.903c-7.227-12.342-14.339-24.753-21.364-37.21c-8.674-15.381-8.824-30.699,0.191-46.153
	c21.738-37.265,43.245-74.664,64.947-111.95C87.29,96.462,99.153,76.04,111.446,55.882c7.635-12.52,19.174-20.016,33.955-20.202
	c34.634-0.435,69.277-0.139,103.917-0.139C249.317,35.481,249.318,35.42,249.318,35.36z M273.583,379.676
	c7.426-3.047,14.766-5.739,21.838-9.012c38.64-17.884,47.427-66.881,32.69-96.736c-9.442-19.126-26.724-29.743-44.972-39.118
	c-14.111-7.25-28.252-14.515-41.863-22.639c-8.938-5.334-12.13-14.721-10.377-23.06c2.335-11.104,9.248-16.796,20.151-18.214
	c17.328-2.254,32.545,2.291,45.543,14.105c1.797,1.633,3.921,2.907,6.192,4.564c9.998-11.349,19.488-22.122,29.266-33.222
	c-16.427-17.375-34.876-29.188-58.707-32.15c0-13.183,0-26.058,0-39.24c-13.391,0-26.205,0-39.459,0c0,13.503,0,26.437,0,39.397
	c-27.664,7.522-48.448,21.513-56.933,50.698c-7.68,26.414-0.84,54.498,21.292,70.862c12.244,9.053,26.204,15.762,39.226,23.793
	c11.419,7.042,23.156,13.748,33.728,21.927c8.598,6.652,7.968,16.767,5.14,26.427c-2.565,8.761-9.467,13.576-17.659,14.607
	c-15.56,1.958-31.018,0.757-45.134-7.33c-7.722-4.424-15.413-8.904-23.845-13.78c-8.499,12.905-16.797,25.506-25.422,38.603
	c20.313,17.659,43.681,26.351,69.868,30.118c0,13.225,0,26.081,0,38.944c13.593,0,26.395,0,39.436,0
	C273.583,405.605,273.583,392.652,273.583,379.676z"/>
</svg>
