<?xml version="1.0" encoding="iso-8859-1"?>
<!-- Generator: Adobe Illustrator 19.0.0, SVG Export Plug-In . SVG Version: 6.00 Build 0)  -->
<svg version="1.1" id="Layer_1" xmlns="http://www.w3.org/2000/svg" xmlns:xlink="http://www.w3.org/1999/xlink" x="0px" y="0px"
	 viewBox="0 0 500 500" enable-background="new 0 0 500 500" xml:space="preserve">
<path d="M5.011,249.905C4.88,116.434,112.587,4.924,250.141,5C386.829,5.076,495.097,115.7,494.99,250.24
	c-0.108,136.208-110.855,246.22-247.409,244.927C112.989,493.893,4.792,384.357,5.011,249.905z M249.983,403.679
	c44.533-25.725,88.721-51.25,132.716-76.663c0-51.564,0-102.624,0-153.876c-44.299-25.584-88.49-51.106-132.725-76.653
	c-44.46,25.682-88.645,51.204-132.666,76.632c0,51.597,0,102.65,0,153.93C161.46,352.55,205.531,378.004,249.983,403.679z
	 M186.856,147.299c41.934,64.582,83.453,128.526,124.973,192.47c0.255-0.124,0.509-0.248,0.764-0.371c0-64.106,0-128.211,0-192.426
	c-20.897-12.064-41.63-24.034-62.632-36.16C228.69,123.11,207.886,135.139,186.856,147.299z M186.873,167.338
	c-0.34,0.147-0.679,0.294-1.019,0.441c0,61.376,0,122.751,0,184.529c21.24,12.266,42.598,24.6,64.129,37.034
	c19.635-11.342,39.046-22.554,58.931-34.04C268.056,292.375,227.465,229.856,186.873,167.338z M324.343,346.381
	c15.761-9.098,30.887-17.83,45.965-26.533c0-46.693,0-92.97,0-139.544c-15.071-8.696-30.09-17.363-45.965-26.523
	C324.343,218.441,324.343,281.944,324.343,346.381z M174.253,345.585c0-64.061,0-127.199,0-191.035
	c-15.335,8.863-30.08,17.385-44.598,25.777c0,46.782,0,92.917,0,139.538C144.517,328.436,159.11,336.852,174.253,345.585z"/>
</svg>
