<?xml version="1.0" encoding="utf-8"?>
<!-- Generator: Adobe Illustrator 25.1.0, SVG Export Plug-In . SVG Version: 6.00 Build 0)  -->
<svg version="1.1" id="new" xmlns="http://www.w3.org/2000/svg" xmlns:xlink="http://www.w3.org/1999/xlink" x="0px" y="0px"
	 viewBox="0 0 500 500" style="enable-background:new 0 0 500 500;" xml:space="preserve">
<path d="M497.3,259.3c0-4.9-4-8-7.6-9.9c2.5-3.3,2.7-7,1.9-9.7c-1.5-5-6.7-8.6-13.8-9.4c0.3-2,0-4-0.9-5.9c-2.8-5.8-11-9.9-20.1-9.9
	c-1.8,0-2-0.3-2.7-1.7c-4.2-7.4-12.4-11.5-25.5-12.4c-2.2,0-4.3-0.9-5.2-1.4c-3.4-6.8-13.7-10.4-30.1-10.4c-4.3,0-7.2-1.1-7.6-1.4
	c-6.5-6.5-16.8-8.9-34-8c-4.6,0-8.5-0.6-10.3-1.5c-4.6-2.7-9.8-4.5-15.6-5.3c0.3-15.4,0.4-30.7,0.3-45.9v-0.8
	c0-13.4-2.4-35.3,6.3-40.1c8.6-4.7,14.9,6.3,28.3,0.8c8.6-3.1,16.5-11.8,15.7-23.6c-0.9-11.1-12.7-15-27.6-9.5
	c-29.8,10.2-37.7,44-42.4,77.8c-1.6,9.4-2.4,19.6-3.1,28.3c-0.6,4.6-1.1,9.3-1.7,14c-3.5,0.2-6.5-0.1-8.7-1
	c-12.2-3.8-24.3-4.1-36.5-1c-4.1,0.7-9,0.7-12.9,0c-14.5-2.7-26.1-2.2-36.5,1.7c-2.9,0.5-5.6,0.8-8.1,0.9c0.4-16.6,0.5-33,0.4-49.3
	v-0.8c0-13.4-2.4-35.3,6.3-40.1c8.5-4,14.8,7,28.2,1.5c8.6-3.1,16.5-11.8,15.7-23.6S236.9,46,222,51.5c-29.8,10.2-37.7,44-42.4,77.8
	c-1.6,9.4-2.4,19.6-3.1,28.3c-0.6,5.2-1.3,10.5-1.9,15.8c-6.4,0.8-11.7,2.5-16.3,5.2c-0.7,0.4-4.3,1.4-9.8,1.4
	c-16.6-0.9-28.2,1.8-34.2,7.8c-0.6,0.4-3.5,1.6-8.1,1.6c-14.9,0.7-25.6,3-29.7,11c-0.9,0.4-2.8,1.1-6,1.6
	c-12.4,1.3-19.1,3.8-22.6,8.3c-1.3,1.7-2.1,3.7-2.3,5.9c-0.6,0.2-1.6,0.5-3,0.7c-11.8,2.1-17.9,5.4-19.8,10.6
	c-0.4,1.2-0.8,3.1-0.2,5.4C16.2,234.6,9,237.5,8,243.8c-0.5,2.9,0.4,5.5,2.6,8c-3.4,1.8-7.4,4.9-7.4,9.8c0,4.9,4,8,7.4,9.8
	c-2.2,2.5-3.1,5.2-2.6,8c1,6.1,7.9,9,14.6,10.8c-0.6,2.4-0.1,4.3,0.3,5.5c1.9,5.2,8,8.5,20,10.6c1.3,0.2,2.2,0.4,2.8,0.6
	c0.2,1.8,0.8,3.5,2,5c3.4,4.4,10.7,7.1,23.5,8.5c3.2,0.5,5.2,1.2,6.1,1.6c3.4,6.8,13.7,10.3,30,10.3c4.3,0,7.4,0.5,8.6,0.8
	c6.6,5.7,16.7,7.9,33,7c4.6,0,8.5,0.6,10.3,1.5c1.4,0.8,2.8,1.5,4.2,2.2c0,10,0.1,19.8,0.5,29c0.8,12.6,4.7,26.7-5.5,40.1
	c-17.3,1.6-12.6-8.6-28.3-3.1c-24.3,8.6-18.9,41.6-0.8,40.1c5.5,0,10.2-1.6,16.5-5.5c30.5-15.7,34.6-56.4,40.1-97.1
	c3-0.2,6.2-0.5,9.4-1c5.2-0.7,9.4-0.6,12.4,0.6c6.6,2.1,13.3,3.1,19.9,3.1c5.5,0,11-0.7,16.5-2.1c4.1-0.7,8.9-0.7,12.9,0
	c13,2.4,23.7,2.3,33.2-0.6c0,9.4,0.2,18.6,0.5,27.3c0.8,12.6,4.7,26.7-5.5,40.1c-17.3,2.4-12.6-8.6-28.3-3.1
	c-24.3,8.6-18.9,41.6-0.8,40.1c5.5,0,10.2-1.6,16.5-5.5c30.6-15.7,34.6-56.6,40.1-97.4c0.1-0.9,0.2-1.7,0.3-2.6
	c12.4,0.7,21.8-1.1,29.2-5.5c0.7-0.4,4.3-1.4,9.8-1.4c16.6,0.9,28.1-1.8,34.1-7.8c0.6-0.4,3.5-1.6,7.8-1.6c12.3,0,25.4-1.3,30-10.3
	c0.9-0.4,2.8-1.1,6-1.6c12.4-1.3,19.1-3.8,22.6-8.3c1.3-1.7,2.1-3.7,2.3-5.9c0.7-0.2,1.6-0.5,3-0.7c12.5-2.2,18.4-5,19-15.7
	c0.1,0,0.3-0.1,0.4-0.1c6.6-1.7,14.2-4.6,15.3-11.1c0.5-2.6-0.3-5.1-2.1-7.4C493.6,267,497.3,264,497.3,259.3z M148.5,328.2
	L148.5,328.2c-13.8,0.7-21.6-0.7-25.5-4.6l-1.5-1.1c-3.2-1.6-9.8-2.2-14.4-2.2c-14,0-18.9-2.9-19.5-3.8l-0.3-0.8
	c-1.8-3.6-6.7-6-14.8-7.2c-10.5-1.2-14.1-3-15.2-3.7c0-3.9-2.3-8.9-12.7-10.4c-5.4-0.9-8.2-2-9.7-2.7c1-1.9,1.3-4,0.6-6.1
	s-2.8-5.8-9.3-6.8c-2.2-0.6-3.7-1.2-4.8-1.6c2.4-1.8,3.7-4.4,3.5-7.2c-0.3-3.3-2.5-6.3-6.6-8.3c-0.3-0.2-0.7-0.4-1-0.5
	c0.4-0.2,0.9-0.4,1.4-0.6c3.7-1.8,6-4.8,6.2-8.1c0.2-2.7-1-5.3-3.4-7.1c1.1-0.5,2.8-1.1,5.1-1.7c3.7-1.3,8.1-3.2,9.1-7.5
	c0.4-1.8,0.1-3.7-0.8-5.3c1.5-0.7,4.3-1.8,9.6-2.7c11.1-1.8,12.8-7.4,12.6-11c0.1-0.1,2-2.5,14.8-3.9c7.9-1.1,12.9-3.5,14.8-7.4
	c0.8-1.9,4.9-4.3,19.7-5.1c6.7,0,13-1.9,15.9-4.9c1.3-1.4,7-5.6,25.7-4.6c4.4,0,12.3-0.4,16.4-3.2c2.4-1.5,5.4-2.5,8.9-3.1
	c-5.2,48-9.1,99.6-9.8,145.7C158.8,328.6,153,328.2,148.5,328.2z M259.1,336.2c-5.3-0.9-11.5-0.9-17.3,0.1
	c-10.6,2.7-20.6,2.4-30.2-0.5c-2.9-1.1-6.4-1.7-10.4-1.7c-2.3,0-4.9,0.2-7.9,0.5c-2.1,0.3-4.1,0.6-6,0.8c6-50.9,9.8-101,11.3-150
	c3.4,0,7-0.4,11-1.2l1-0.3c8.4-3.3,18.1-3.7,30.7-1.3c5.3,0.9,11.5,0.9,17.3-0.1c10.6-2.7,20.6-2.4,30.2,0.5c3.2,1.2,7,1.8,11.6,1.7
	c-5.4,49.4-9.4,102.8-10,150.1l-0.5,0.2C281.3,338.2,271.9,338.6,259.1,336.2z M482.4,259.3c-3.7,1.1-6.2,3.6-6.8,6.9
	c-0.5,3,0.8,5.9,3.4,7.9c-1.1,0.5-2.8,1.1-5.1,1.7c-5.6,1.9-8.7,4.1-8.7,10.3c0,1.9-0.1,2.5-0.1,2.6c-0.3,0.3-1.8,1.3-9.1,2.6
	c-11.1,1.8-12.8,7.3-12.6,11c-0.1,0.1-2,2.5-14.8,3.9c-7.9,1.1-12.8,3.5-14.8,7.4c-0.5,1.3-3.6,4.3-19.7,4.3c-6.8,0-13,1.9-16,4.9
	c-1.3,1.4-7,5.6-25.7,4.6c-4.3,0-12.3,0.4-16.4,3.2c-4.9,3-12.1,4.2-21.6,3.8c5.9-51.1,9.7-101.5,11.1-150.6c3.7,0.7,7,1.9,10,3.7
	c4.9,2.5,11.3,3,16.2,3h0.1c13.7-0.7,21.5,0.7,25.4,4.6c2.9,3,9.2,4.9,15.9,4.9c14.1,0,19,2.9,19.6,3.8l0.3,0.8
	c2.2,4.5,9.7,7.2,15,7.2c11.3,0.8,14.4,4.1,15.6,6.2c2.6,5.3,7,8,13.1,8c4.4,0,7.5,1.5,8.8,2.5c-1.3,2.1-1.5,4.7-0.5,7.1
	c1.6,3.8,5.6,6.1,10.6,6.1c2,0,3.3,0.4,4,0.8c-0.1,0-0.1,0.1-0.2,0.1c-2.9,2-4.5,5-4.2,8.1c0.2,2,1.4,5.6,6.8,7.8
	c0.4,0.2,0.8,0.4,1.1,0.5C482.9,259.1,482.7,259.2,482.4,259.3z"/>
</svg>
