<?xml version="1.0" encoding="iso-8859-1"?>
<!-- Generator: Adobe Illustrator 19.0.0, SVG Export Plug-In . SVG Version: 6.00 Build 0)  -->
<svg version="1.1" id="Layer_1" xmlns="http://www.w3.org/2000/svg" xmlns:xlink="http://www.w3.org/1999/xlink" x="0px" y="0px"
	 viewBox="0 0 2000 2000" style="enable-background:new 0 0 2000 2000;" xml:space="preserve">
<path d="M24.931,995.174c0-17.166-2.203-34.672,0.388-51.438c10.311-66.745,18.152-134.259,34.599-199.55
	c13.65-54.188,35.388-106.874,58.411-158.035c30.394-67.54,72.589-128.34,119.597-185.668
	c52.291-63.772,112.049-119.808,178.812-167.834c59.485-42.791,122.324-80.565,191.286-106.53
	c47.12-17.741,94.08-36.926,142.656-49.495c48.229-12.479,98.117-20.735,147.777-24.941c60.801-5.149,122.343-8.051,183.149-4.6
	c48.876,2.775,97.447,15.041,145.564,25.744c38.697,8.607,77.337,18.936,114.487,32.616c37.767,13.908,74.812,30.783,110.121,50.11
	c45.259,24.773,89.542,51.701,132.315,80.561c68.465,46.195,126.226,104.431,178.803,167.864
	c59.742,72.078,106.96,151.803,142.492,238.237c25.976,63.187,42.615,129.001,55.737,196.217
	c14.608,74.832,16.774,150.05,12.146,225.112c-3.153,51.135-12.783,102.716-26.558,152.135
	c-17.221,61.783-37.662,123.356-63.968,181.752c-36.111,80.164-84.979,153.626-145.827,217.518
	c-41.021,43.074-83.633,85.579-130.58,121.796c-47.128,36.357-99.552,66.294-151.492,95.811
	c-34.884,19.824-72.202,36.063-109.84,50.14c-35.467,13.265-72.359,23.512-109.384,31.621
	c-46.394,10.162-93.28,20.198-140.465,24.085c-59.923,4.937-120.899,9.26-180.428,3.534c-65.198-6.271-130.51-20.038-193.464-38.437
	c-59.532-17.398-116.92-43.151-173.703-68.672c-66.408-29.846-125.79-71.604-181.756-118.097
	c-67.572-56.135-128.815-118.703-175.918-192.802c-35.683-56.134-68.13-114.914-95.893-175.33
	c-29.012-63.134-47.535-130.615-56.686-199.914c-6.715-50.853-11.428-101.97-17.033-152.97
	C21.826,995.535,23.378,995.355,24.931,995.174z M482.676,725.427c251.768,0,501.225,0,753.072,0c0,263.526,0,525.813,0,788.449
	c97.212,0,192.023,0,287.525,0c0-6.562,0-11.848,0-17.134c0-282.77,0.346-565.541-0.528-848.308
	c-0.089-28.728-4.96-58.09-12.094-86.012c-14.487-56.704-86.136-109.513-144.815-109.528
	c-240.273-0.062-480.545-0.027-720.818-0.026c-68.696,0-142.889,56.483-154.996,123.781c-7.145,39.719-5.275,81.07-7.287,121.696
	C482.323,706.682,482.676,715.056,482.676,725.427z M482.963,1513.676c96.809,0,191.721,0,286.837,0c0-230.793,0-460.295,0-691.338
	c-95.705,0-190.794,0-286.837,0C482.963,1053.241,482.963,1283.313,482.963,1513.676z"/>
</svg>
