<?xml version="1.0" encoding="utf-8"?>
<!-- Generator: Adobe Illustrator 24.2.0, SVG Export Plug-In . SVG Version: 6.00 Build 0)  -->
<svg version="1.1" id="nex" xmlns="http://www.w3.org/2000/svg" xmlns:xlink="http://www.w3.org/1999/xlink" x="0px" y="0px"
	 viewBox="0 0 500 500" style="enable-background:new 0 0 500 500;" xml:space="preserve">
<path d="M250.5,4.5C114.7,4.5,4.7,114.5,4.7,250.3s110,245.8,245.8,245.8s245.8-110,245.8-245.8S386.3,4.5,250.5,4.5z M109.8,264.1
	l5.8-34.4c1.9-11.1,11.5-19.2,22.7-19.2H278c6.8,0,12,6,11.1,12.7l-5,36c-1.2,9.5-9.4,16.6-19,16.6H119.7
	C113.5,275.8,108.7,270.2,109.8,264.1z M330.1,313.3l-5,36c-1.2,9.5-9.4,16.6-19,16.6H197.3c-6.2,0-11-5.6-9.9-11.7l5.8-34.4
	c1.9-11.1,11.5-19.2,22.7-19.2H319C325.8,300.6,331,306.6,330.1,313.3z M330.7,131.9l-5,36c-1.2,9.5-9.4,16.6-19,16.6h-85
	c-6.2,0-11-5.6-9.9-11.7l5.8-34.4c1.9-11.1,11.5-19.2,22.7-19.2h79.3C326.4,119.2,331.6,125.2,330.7,131.9z"/>
</svg>
