<?xml version="1.0" encoding="iso-8859-1"?>
<!-- Generator: Adobe Illustrator 19.0.0, SVG Export Plug-In . SVG Version: 6.00 Build 0)  -->
<svg version="1.1" id="Layer_1" xmlns="http://www.w3.org/2000/svg" xmlns:xlink="http://www.w3.org/1999/xlink" x="0px" y="0px"
	 viewBox="0 0 2000 2000" style="enable-background:new 0 0 2000 2000;" xml:space="preserve">
<path d="M509.914,1283.627c0-188.089,0-371.179,0-561.174c326.252,190.544,649.131,379.118,975.725,569.862
	c0-192.637,0-381.472,0-572.603c-161.467-92.194-325.072-185.607-493.083-281.537c165.202-94.799,327.593-187.984,493.73-283.319
	c46.253,26.042,93.903,52.5,141.199,79.575c102.805,58.852,204.913,118.945,308.433,176.506
	c32.014,17.801,44.747,40.108,44.62,76.813c-1.132,325.21-0.78,650.425-0.864,975.638c-0.009,33.198-0.001,66.395-0.001,100.983
	c-164.307,94.487-326.072,187.512-490.264,281.933C1162.305,1658.398,836.332,1471.141,509.914,1283.627z M485.397,683.363
	c328.638,190.582,653.749,379.118,981.436,569.148c0-175.784,0-345.282,0-515.582C1137.3,547.805,808.602,359.16,479.201,170.111
	c-155.228,89.247-309.684,178.05-462.542,265.934c0,369.132,0.16,733.16-0.334,1097.187c-0.036,26.279,13.301,39.614,34.109,51.481
	c121.006,69.005,241.51,138.89,362.348,208.191c31.444,18.033,63.476,35.041,95.397,52.607
	c155.77-89.554,309.012-177.654,466.713-268.318C808.27,1480.115,647.142,1386.237,485.397,1292
	C485.397,1088.577,485.397,887.703,485.397,683.363z"/>
</svg>
