<?xml version="1.0" encoding="utf-8"?>
<!-- Generator: Adobe Illustrator 25.1.0, SVG Export Plug-In . SVG Version: 6.00 Build 0)  -->
<svg version="1.1" id="Layer_1" xmlns="http://www.w3.org/2000/svg" xmlns:xlink="http://www.w3.org/1999/xlink" x="0px" y="0px"
	 viewBox="0 0 500 500" style="enable-background:new 0 0 500 500;" xml:space="preserve">
<path d="M250.6,5.2C115.1,5.2,5.2,115.1,5.2,250.6S115.1,496,250.6,496S496,386.1,496,250.6S386.1,5.2,250.6,5.2z M367.6,334.3
	l-48.7,13.5L202.1,230.5l38.4,137.9L190.8,383L175,324.5L134.5,336l-9.2-33.5l39.7-10.4l-5.3-21.1l-39.8,10.4l-9.1-33l41-11.4
	l-20.5-72.5l49.2-13.5l115.2,116.8l-35.7-137.9l48.2-12.5l20.6,72l39.5-10.3l9.9,32.8l-40.6,11.3l5.8,20.8l39.6-10.8l9.7,31.9
	L352,277.5L367.6,334.3z"/>
</svg>
