<?xml version="1.0" encoding="iso-8859-1"?>
<!-- Generator: Adobe Illustrator 19.0.0, SVG Export Plug-In . SVG Version: 6.00 Build 0)  -->
<svg version="1.1" id="Layer_1" xmlns="http://www.w3.org/2000/svg" xmlns:xlink="http://www.w3.org/1999/xlink" x="0px" y="0px"
	 viewBox="0 0 500 500" enable-background="new 0 0 500 500" xml:space="preserve">
<path d="M9,249.151C11.645,110.969,121.985,3.917,260.619,8.306c125.886,3.985,242.221,111.235,231.953,260.808
	c-8.305,120.988-110.2,226.742-247.24,223.316C110.659,489.063,9.656,381.242,9,249.151z M312.787,165.796
	c-37.681,5.643-72.396,10.843-106.892,16.009c-3.418,34.977-6.664,68.183-10.015,102.474c8.189,0,15.462,0,22.414,0
	c0,38.265,0,75.518,0,115.883c34.035-48.692,66.542-95.199,101.274-144.889c-15.434,0.906-27.654,1.624-40.285,2.366
	C290.216,227.667,300.932,198.292,312.787,165.796z M206.793,171.781c0.475,0.743,0.95,1.487,1.425,2.23
	c32.319-4.155,64.637-8.31,96.956-12.466c0.06-1.09,0.119-2.181,0.179-3.271c-15.136-7.087-30.271-14.173-45.024-21.08
	c-1.304-30.733-7.148-40.208-30.446-48.688c-1.261,3.923-2.509,7.806-3.637,11.317c18.242,14.876,20.006,18.539,18.804,38.721
	C232.529,149.422,219.661,160.602,206.793,171.781z M228.975,319.237c1.563,0.031,3.125,0.062,4.688,0.092c0-16.28,0-32.56,0-49.345
	c-5.539-0.425-11.635-0.892-18.242-1.399c2.044-28.291,4-55.362,5.956-82.432c-1.757-0.144-3.513-0.288-5.27-0.432
	c-2.375,29.216-4.749,58.432-7.2,88.589c8,0,13.833,0,22.114,0C230.29,290.338,229.633,304.788,228.975,319.237z M230.059,329.919
	c0,9.246,0,18.492,0,27.737c0.937,0,1.874,0,2.811,0c0-9.227,0-18.454,0-27.682C231.933,329.956,230.996,329.938,230.059,329.919z"
	/>
</svg>
