<?xml version="1.0" encoding="iso-8859-1"?>
<!-- Generator: Adobe Illustrator 19.0.0, SVG Export Plug-In . SVG Version: 6.00 Build 0)  -->
<svg version="1.1" id="Layer_1" xmlns="http://www.w3.org/2000/svg" xmlns:xlink="http://www.w3.org/1999/xlink" x="0px" y="0px"
	 viewBox="0 0 2000 2000" style="enable-background:new 0 0 2000 2000;" xml:space="preserve">
<path d="M999.305,133.811c148.764,257.665,296.755,513.99,445.194,771.091c-296.942,0-592.83,0-890.364,0
	C702.558,647.815,850.599,391.388,999.305,133.811z M917.842,1816.512c-148.56-257.314-296.451-513.471-445.012-770.787
	c-148.814,257.748-296.683,513.862-445.021,770.787C325.274,1816.512,620.977,1816.512,917.842,1816.512z M1970.969,1816.831
	c-148.584-257.377-296.619-513.805-445.174-771.131c-148.618,257.41-296.696,513.886-445.219,771.131
	C1377.709,1816.831,1673.63,1816.831,1970.969,1816.831z"/>
</svg>
