<?xml version="1.0" encoding="iso-8859-1"?>
<!-- Generator: Adobe Illustrator 19.0.0, SVG Export Plug-In . SVG Version: 6.00 Build 0)  -->
<svg version="1.1" id="Layer_1" xmlns="http://www.w3.org/2000/svg" xmlns:xlink="http://www.w3.org/1999/xlink" x="0px" y="0px"
	 viewBox="0 0 500 500" style="enable-background:new 0 0 500 500;" xml:space="preserve">
<path d="M166.572,497.414c-54.451-50.13-70.13-158.161,29.586-229.691C259.287,337.072,254.389,441.667,166.572,497.414z
	 M101.072,147.733c47.668,83.113,153.893,99.379,229.47,31.785C271.283,92.812,168.354,84.39,101.072,147.733z M314.342,230.927
	c-35.276,28.918-52.191,67.727-55.848,112.836c121.405,21.411,184.54-65.631,185.23-140.487
	C395.887,192.252,352.178,199.911,314.342,230.927z M289.25,88.058c9.666,32.956,33.24,55.027,65.201,67.86
	C393.354,92.409,361.211,22.218,301.74,2C283.609,28.581,280.55,58.394,289.25,88.058z M19.191,295.89
	c47.263,32.381,120.967,22.865,154.728-52.147C110.924,209.345,41.742,232.843,19.191,295.89z M403.615,449.056
	c-6.5-52.313-72.162-103.733-145.239-71.002C280.102,455.06,354.082,475.071,403.615,449.056z M261.342,94.063
	c4.48-40.313-32.285-87.994-86.52-76.86C174.103,70.104,217.575,101.513,261.342,94.063z M39.685,378.252
	c-6.657,14.701-11.231,30.353-4.19,45.773c24.015-1.95,43.638-8.465,58.734-25.729c15.514-17.741,18.749-38.578,17.775-61.721
	C82.932,334.316,51.899,351.277,39.685,378.252z M368.542,356.25c31.739,34.611,84.849,34.187,115.654-6.652
	C451.849,314.209,395.824,316.063,368.542,356.25z"/>
</svg>
