<?xml version="1.0" encoding="iso-8859-1"?>
<!-- Generator: Adobe Illustrator 19.0.0, SVG Export Plug-In . SVG Version: 6.00 Build 0)  -->
<svg version="1.1" id="Layer_1" xmlns="http://www.w3.org/2000/svg" xmlns:xlink="http://www.w3.org/1999/xlink" x="0px" y="0px"
	 viewBox="0 0 500 500" enable-background="new 0 0 500 500" xml:space="preserve">
<path d="M248.355,4.024c137.668-1.898,246.749,110.208,246.742,244.348c-0.007,134.376-110.442,250.899-256.75,244.567
	C114.511,487.578,5.352,385.385,5.199,249.013C5.047,113.211,114.968,3.774,248.355,4.024z M472.957,249.501
	c1.279-121.151-99.874-231.597-238.872-223.752C127.232,31.781,15.696,128.934,28.218,270.626
	c8.999,101.822,98.167,205.629,232.135,200.265C378.981,466.142,472.156,368.589,472.957,249.501z M257.841,457.137
	c-109.921,5.002-202.259-77.64-214.838-180.608C27.056,145.992,121.387,51.754,224.978,40.822
	c128.914-13.605,226.383,78.913,234.029,196.155C466.252,348.081,380.234,452.762,257.841,457.137z M277.007,240.311
	c-2.25-4.478-3.852-7.259-5.091-10.193c-11.998-28.427-23.854-56.915-36.015-85.272c-1.211-2.824-4.103-6.926-6.329-7
	c-17.41-0.577-34.848-0.396-52.275-0.253c-4.331,0.036-6.229,2.334-3.69,6.463c7.678,12.488,5.286,24.838-1.163,36.602
	c-13.756,25.094-27.775,50.052-42.161,74.79c-7.316,12.581-14.284,25.613-26.435,34.616c-0.916,0.678-1.155,2.27-2.111,4.284
	c17.977,0,34.92,0.17,51.852-0.187c2.487-0.052,5.994-1.986,7.211-4.098c10.398-18.03,20.263-36.366,30.519-54.479
	c6.98-12.327,14.331-24.442,22.278-37.946c2.006,4.094,3.383,6.677,4.563,9.347c12.15,27.483,24.212,55.004,36.507,82.422
	c0.911,2.032,3.421,4.774,5.188,4.774c16.643-0.001,33.285-0.528,47.369-0.845c3.03-9.294,4.447-17.184,8.024-23.926
	c9.324-17.574,18.947-35.06,29.638-51.823c17.091-26.797,26.98-58.59,54.44-78.19c-1.016-0.876-1.444-1.569-1.878-1.573
	c-18.919-0.141-37.839-0.316-56.756-0.161c-1.895,0.015-4.584,1.61-5.539,3.261c-16.524,28.557-32.799,57.257-49.228,85.869
	C283.491,231.034,280.544,234.981,277.007,240.311z M128.04,349.234c2.018,0.811,2.547,1.209,3.075,1.21
	c60.715,0.116,121.43,0.251,182.145,0.112c2.337-0.005,5.456-2.112,6.878-4.163c11.24-16.218,22.976-31.972,37.558-45.435
	c1.078-0.995,0.784-3.476,1.362-6.485c-5.931,3.854-11.594,5.67-14.015,9.522c-4.115,6.549-10.259,8.02-16.296,8.215
	c-18.499,0.596-37.032,0.152-55.552,0.136c-17.69-0.016-35.379-0.003-53.448-0.003c4.11-7.419,7.433-14.292,11.578-20.626
	c3.31-5.057,3.619-9.483,1.025-14.938c-5.613-11.801-10.68-23.861-16.011-35.798c-1.01-2.262-2.21-4.441-4.072-8.154
	c-4.138,6.817-7.437,12.015-10.504,17.347c-11.891,20.675-23.307,41.637-35.686,62.013
	C156.91,327.275,143.458,338.542,128.04,349.234z M336.428,125.995c-2.509-1.269-3.019-1.749-3.533-1.754
	c-22.754-0.258-45.509-0.597-68.261-0.437c-1.616,0.011-4.207,3.547-4.591,5.749c-0.696,3.993,1.137,8.674-0.225,12.255
	c-3.844,10.113-1.42,19.077,2.929,28.109c1.412,2.933,2.409,6.063,3.703,9.057c4.025,9.311,8.101,18.601,12.762,29.283
	C296.985,178.747,310.945,148.929,336.428,125.995z M227.957,405.959c0.095,0.74,0.189,1.481,0.284,2.221
	c3.953,3.191,10.026,5.726,11.272,9.754c1.287,4.162-2.116,9.774-3.973,16.617c5.932-4.038,10.41-7.086,14.687-9.998
	c2.664,1.975,4.739,3.708,7.006,5.136c2.032,1.28,4.275,2.224,6.775,3.494c-1.129-5.758-3.955-11.307-2.531-15.364
	c1.461-4.161,7.078-6.863,12.446-11.584c-7.391,0-12.663,0-17.456,0c-2.17-5.845-4.025-10.839-5.879-15.834
	c-0.687-0.333-1.374-0.666-2.062-0.998C248.848,403.9,241.553,408.869,227.957,405.959z"/>
</svg>
