<?xml version="1.0" encoding="iso-8859-1"?>
<!-- Generator: Adobe Illustrator 19.0.0, SVG Export Plug-In . SVG Version: 6.00 Build 0)  -->
<svg version="1.1" id="Layer_1" xmlns="http://www.w3.org/2000/svg" xmlns:xlink="http://www.w3.org/1999/xlink" x="0px" y="0px"
	 viewBox="0 0 500 500" enable-background="new 0 0 500 500" xml:space="preserve">
<path d="M423.113,73.78c-13.493,13.491-26.811,26.808-40.366,40.361C342.12,75.545,293.955,56.603,237.705,59.92
	c-43.725,2.578-81.963,18.941-114.383,48.249c-61.665,55.747-79.585,145.546-43.679,220.253
	c36.928,76.835,114.514,114.459,189.442,106.531c90.689-9.596,154.394-79.824,166.203-158.062c-61.772,0-123.462,0-185.372,0
	c0-19.525,0-38.47,0-57.737c81.135,0,162.274,0,243.42,0c12.688,78.688-23.897,196.774-138.626,250.979
	c-117.145,55.346-252.811,10.534-316.56-96.868C-25.145,266.628,0.546,126.847,102.813,50.577
	C203.299-24.365,341.404-9.473,423.113,73.78z"/>
</svg>
