<?xml version="1.0" encoding="iso-8859-1"?>
<!-- Generator: Adobe Illustrator 19.0.0, SVG Export Plug-In . SVG Version: 6.00 Build 0)  -->
<svg version="1.1" id="Layer_1" xmlns="http://www.w3.org/2000/svg" xmlns:xlink="http://www.w3.org/1999/xlink" x="0px" y="0px"
	 viewBox="0 0 2000 2000" style="enable-background:new 0 0 2000 2000;" xml:space="preserve">
<path d="M348.998,829.271c34.467,36.437,67.237,71.079,103.697,109.622c-0.373,67.264-6.223,140.484,17.548,211.259
	c-1.757,1.189-3.514,2.378-5.271,3.567c-103.135-101.714-206.27-203.429-313.105-308.792
	c40.578-53.416,79.701-107.177,121.359-158.896c24.495-30.411,52.083-58.525,79.916-86.015
	c66.985-66.159,143.571-119.403,226.072-164.437c78.886-43.061,162.837-72.727,250.249-91.986
	c85.944-18.936,173.772-25.78,261.106-18.155c135.178,11.801,264.166,48.178,384.248,113.414
	c70.844,38.486,138.37,81.522,198.117,136.046c20.349,18.57,41.265,36.541,61.182,55.56
	c80.022,76.413,146.817,163.311,203.557,258.133c14.949,24.983,30.412,49.659,46.809,76.381
	c-28.874,40.928-58.085,82.335-88.972,126.115c-27.756-45.464-53.302-88.754-80.25-131.154
	c-60.512-95.209-131.39-181.231-218.138-254.486c-95.059-80.273-199.827-141.914-318.196-180.288
	c-52.016-16.863-104.777-30.772-159.632-33.659c-52.357-2.755-105.083-8.321-157.127-4.85
	c-75.249,5.019-148.858,21.862-220.093,48.148c-85.932,31.709-165.906,75.31-235.938,133.178
	c-54.778,45.264-101.597,100.167-151.789,150.95C351.815,821.487,350.844,825.591,348.998,829.271z M1648.898,1184.9
	c-75.048,91.696-160.816,171.15-264.647,229.609c-76.064,42.825-155.597,76.998-242.566,90.265
	c-55.253,8.429-110.798,20.455-166.254,20.682c-72.862,0.299-144.877-11.759-216.345-30.674
	c-87.731-23.219-168.918-59.497-244.742-107.022c-124.899-78.285-227.126-181.168-308.844-303.802
	c-34.942-52.437-67.082-106.741-102.38-163.211c-29.224,41.38-57.065,80.8-84.979,120.325c3.205,6.582,5.252,11.832,8.144,16.567
	c40.495,66.306,81.492,131.994,129.073,193.906c53.69,69.861,113.249,133.59,180.942,188.99
	c98.565,80.666,206.945,145.569,328.37,186.794c50.05,16.993,100.889,29.87,153.093,39.451
	c36.922,6.776,73.442,10.712,110.549,10.836c53.458,0.179,107.385,3.198,160.248-2.716c51.308-5.74,101.965-19.567,152.119-32.828
	c73.066-19.318,141.363-50.701,206.77-88.476c100.295-57.925,189.131-130.178,263.97-218.304
	c46.435-54.68,88.093-113.417,133.89-172.924c-105.046-102.843-206.878-202.538-308.71-302.234
	c13.355,71.002,22.739,140.313,9.057,208.283c36.381,37.131,70.459,71.912,105.897,108.081
	C1650.655,1179.491,1650.576,1182.85,1648.898,1184.9z M754.402,1301.516c128.5,122.912,366.783,116.725,486.458,1.968
	c-83.033-80.628-166.012-161.204-247.811-240.633C912.633,1143.273,833.507,1222.405,754.402,1301.516z M1073.31,989.888
	c81.768,78.709,162.121,156.056,242.924,233.836c91.441-128.862,97.429-319.072-11.798-456.219
	C1227.817,841.225,1151.273,914.873,1073.31,989.888z M1226.839,690.526c-126.606-101.409-329.15-100.529-456.564,2.089
	C847.91,768.059,925.359,843.32,1000.767,916.6C1078.47,838.897,1152.771,764.596,1226.839,690.526z M922.154,990.417
	c-76.265-73.314-151.857-145.981-227.527-218.722c-106.275,119.7-105.818,331.491-10.095,449.751
	C763.9,1144.28,841.412,1068.918,922.154,990.417z"/>
</svg>
