<?xml version="1.0" encoding="iso-8859-1"?>
<!-- Generator: Adobe Illustrator 19.0.0, SVG Export Plug-In . SVG Version: 6.00 Build 0)  -->
<svg version="1.1" id="Layer_1" xmlns="http://www.w3.org/2000/svg" xmlns:xlink="http://www.w3.org/1999/xlink" x="0px" y="0px"
	 viewBox="0 0 500 500" enable-background="new 0 0 500 500" xml:space="preserve">
<path d="M245.854,5.895C382.826,4.468,491.58,112.499,493.527,245.942c2,137.063-106.658,245.696-239.991,247.59
	C116.422,495.479,7.858,386.759,6.024,253.469C4.141,116.567,112.592,8.499,245.854,5.895z M313.587,268.585
	c-35.113-51.675-69.949-102.943-104.737-154.139c-0.675-0.171-1.178-0.372-1.695-0.418c-5.795-0.513-11.589-1.036-17.389-1.49
	c-15.142-1.186-31.922,10.093-36.462,26.509c-19.791,71.558-39.588,143.114-59.378,214.672c-0.277,1.002-0.5,2.018-0.825,3.341
	c6.536,0.532,12.841,1.148,19.16,1.509c2.509,0.143,5.131,0.07,7.562-0.499c14.711-3.444,24.68-12.2,28.796-26.914
	c10.144-36.26,20.141-72.562,30.204-108.845c0.209-0.755,0.506-1.486,0.946-2.765c35.217,51.826,70.105,103.167,104.993,154.511
	c6.74,0.551,13.269,1.158,19.809,1.575c2.09,0.134,4.272,0.033,6.311-0.415c15.024-3.304,25.197-12.067,29.373-27.064
	c10.979-39.433,21.826-78.902,32.73-118.356c8.65-31.298,17.307-62.593,25.953-93.892c0.325-1.177,0.561-2.379,0.851-3.621
	c-0.865-0.211-1.367-0.401-1.883-0.449c-5.475-0.507-10.946-1.064-16.429-1.468c-16.128-1.19-32.479,10.863-36.861,26.855
	c-9.895,36.109-19.991,72.162-30.011,108.237C314.361,266.338,314.042,267.195,313.587,268.585z M293.521,334.022
	c0.295,0.434,0.627,0.844,0.954,1.256c0.058,0.072,0.171,0.121,0.266,0.137c0.1,0.017,0.209-0.016,0.572-0.056
	c2.648-9.546,5.321-19.185,7.942-28.634c-3.17-5.769-103.048-152.303-105.099-154.104c-2.686,9.677-5.338,19.227-8.087,29.13
	C224.578,232.547,259.048,283.286,293.521,334.022z"/>
</svg>
