<?xml version="1.0" encoding="iso-8859-1"?>
<!-- Generator: Adobe Illustrator 19.0.0, SVG Export Plug-In . SVG Version: 6.00 Build 0)  -->
<svg version="1.1" id="Layer_1" xmlns="http://www.w3.org/2000/svg" xmlns:xlink="http://www.w3.org/1999/xlink" x="0px" y="0px"
	 viewBox="0 0 500 500" enable-background="new 0 0 500 500" xml:space="preserve">
<path d="M255.453,495.25c-3.217,0-6.531,0-9.737,0c-8.95-5.149-16.925-11.525-25.203-17.488
	c-8.109-5.841-15.933-12.088-24.452-17.381c-4.02-2.498-7.558-5.764-11.36-8.621c-6.469-4.861-12.832-9.885-19.515-14.435
	c-4.564-3.107-8.832-6.582-13.33-9.762c-5.469-3.866-10.811-7.911-16.226-11.853c-5.247-3.82-10.555-7.56-15.768-11.426
	c-5.403-4.007-10.61-8.287-16.113-12.148c-5.796-4.067-11.554-8.172-17.254-12.376c-5.075-3.744-10.25-7.343-15.227-11.235
	c-5.417-4.236-11.145-8.074-16.705-12.129c-3.51-2.56-6.784-5.496-10.483-7.734c-5.273-3.19-8.054-7.568-9.348-13.594
	c-0.596-2.776-1.026-5.451-1.027-8.229c-0.017-37.077-0.011-74.155-0.011-111.232c0-9.528-0.069-19.057,0.02-28.585
	c0.088-9.36-0.832-18.773,1.722-28.46c1.225-1.573,2.555-3.909,4.46-5.594c3.563-3.15,7.407-5.994,11.232-8.832
	c4.257-3.159,8.625-6.168,12.941-9.247c7.031-5.015,13.769-10.415,21.073-15.084c5.652-3.612,10.637-8.252,16.144-12.114
	c7.08-4.965,13.649-10.601,20.999-15.231c5.667-3.57,10.782-8.015,16.157-12.053c4.894-3.676,9.784-7.357,14.717-10.98
	c6.027-4.427,12.075-8.826,18.153-13.182c6.86-4.915,13.82-9.693,20.634-14.671c5.593-4.086,10.972-8.466,16.566-12.552
	c4.777-3.49,9.757-6.656,14.338-10.472c5.1-4.247,10.822-7.753,16.325-11.506c2.078-1.418,4.298-2.627,6.528-3.976
	c2.593,0,5.301-0.185,7.973,0.051c2.724,0.241,5.185,1.162,7.479,2.96c6.205,4.864,12.621,9.461,18.992,14.112
	c4.282,3.126,8.667,6.111,12.94,9.248c6.523,4.789,12.954,9.704,19.493,14.47c3.954,2.882,8.172,5.411,12.033,8.407
	c5.916,4.59,12.348,8.512,18.096,13.249c8.11,6.683,16.987,12.268,25.321,18.624c9.492,7.239,18.948,14.615,29.181,20.889
	c4.036,2.475,7.524,5.833,11.328,8.702c6.46,4.873,12.949,9.71,19.472,14.499c4.273,3.137,8.676,6.1,12.936,9.255
	c5.406,4.004,10.495,8.493,16.179,12.039c2.888,1.802,4.763,4.37,7.218,6.449c1.277,1.082,3.106,8.565,3.113,11.105
	c0.015,5.8,0.005,11.6,0.005,17.399c0,48.264-0.049,96.529,0.102,144.792c0.011,3.503-0.751,6.864-1.654,9.95
	c-1.169,3.997-4.801,6.804-8.251,9.321c-5.568,4.063-11.144,8.116-16.691,12.209c-4.925,3.634-9.721,7.449-14.741,10.945
	c-6.141,4.277-12.036,8.891-18.172,13.155c-6.929,4.814-13.511,10.095-20.579,14.734c-5.781,3.794-10.804,8.753-16.625,12.474
	c-8.444,5.397-15.859,12.168-24.446,17.385c-5.721,3.476-10.633,8.256-16.152,12.101c-7.096,4.942-13.635,10.616-21,15.226
	c-5.677,3.554-10.855,7.925-16.132,12.09c-4.809,3.796-10.04,6.985-14.805,10.872c-5.147,4.198-10.834,7.74-16.336,11.494
	C259.9,492.694,257.68,493.903,255.453,495.25z M283.657,108.794c0.633-0.049,0.917-0.159,1.021-0.066
	c1.211,1.078,19.498,29.27,21.693,33.375c1.011,0,1.986,0,3.102,0c0-4.868,0-9.57,0-13.427
	c-8.964-14.072-17.544-27.542-26.192-41.119c-3.356,0.122-6.558-0.163-9.708,0.193c0,19.125,0,37.757,0.002,56.389
	c0.586,0.586,1.171,1.171,1.695,1.695c2.698,0,5.33,0,8.387,0C283.657,133.366,283.657,121.057,283.657,108.794z M186.666,304.097
	c3.596-0.885,7.168,1.186,9.846-2.141c0-5.843-0.062-11.824,0.018-17.803c0.078-5.836-0.364-11.698,0.373-18.258
	c1.434,2.143,2.449,3.586,3.39,5.076c4.551,7.208,9.038,14.458,13.645,21.63c1.591,2.477,3.446,4.786,5.228,7.135
	c0.191,0.252,0.703,0.261,1.661,0.583c0.317-0.677,0.76-1.625,1.768-3.783c0-1.961,0-5.677,0-9.029
	c-9.87-13.897-17.473-28.964-27.565-41.847c-3.055,0-5.688,0-8.363,0C186.666,265.065,186.666,284.242,186.666,304.097z
	 M381.914,313.072c0,3.557,0,7.019,0,10.363c19.122,0,38.03,0,56.761,0c0-3.346,0-6.393,0-9.224
	c-0.638-0.638-1.077-1.077-1.665-1.665c-3.963,0-8.077,0-12.191,0c-3.927,0-7.856-0.068-11.782,0.02
	c-3.817,0.086-7.665-0.559-11.572,0.377c3.391-3.475,7.784-5.335,11.719-7.877c4.176-2.698,8.235-5.579,12.999-8.826
	c-3.494-2.31-6.319-4.177-8.787-5.807C405.461,298.048,393.846,305.459,381.914,313.072z M151.147,373.448c7.1,0,14.124,0,21.149,0
	c10.33,0,20.66-0.035,30.99,0.034c1.748,0.012,3.262-0.106,4.281-1.816c0-2.552,0-5.179,0-8.209c-12.414,0-24.705,0-36.86,0
	c-0.181-0.588-0.262-0.768-0.288-0.955c-0.028-0.203-0.089-0.539,0.005-0.601c7.876-5.157,15.767-10.293,23.894-15.585
	c-1.861-3.664-5.929-3.997-8.138-6.119c-12.741,7.98-25.092,15.671-36.815,23.493c0,3.145,0,5.602,0,7.975
	C149.886,372.187,150.324,372.625,151.147,373.448z M245.104,324.76c19.034,0,37.949,0,56.934,0c0-3.26,0-6.303,0-9.763
	c-12.411,0-24.71,0-38.463,0c9.476-6.104,17.731-11.422,26.257-16.914c-2.482-1.861-4.963-3.723-7.874-5.906
	c-12.703,7.037-24.747,15.156-36.854,23.177C245.104,318.508,245.104,321.552,245.104,324.76z M419.399,244.399
	c7.398,0,14.583,0,21.962,0c0,14.016,0,27.823,0,41.427c0.64,0.64,1.079,1.079,1.69,1.691c2.033,0,4.253,0,6.56,0
	c0.5-0.5,1.085-1.085,1.692-1.692c0-6.596,0-13.214,0-19.831c0-7.862,0.086-15.725-0.063-23.584
	c-0.035-1.869-0.857-3.723-1.067-4.576c-2.058-1.553-3.299-2.489-4.74-3.576c-10.452,0-21.207,0-32.074,0
	c-1.363,1.426-2.788,2.917-4.108,4.299c0,4.726,0,9.43,0,14.22c2.422,0,4.638,0,6.742,0c0.551-0.55,0.989-0.989,1.646-1.646
	c0-1.57,0-3.38,0-4.972C418.294,245.504,418.733,245.065,419.399,244.399z M53.976,326.002c14.489,0,28.705,0,42.7,0
	c0.655-0.655,1.094-1.094,1.489-1.489c0-2.266,0-4.483,0-6.533c-0.598-0.598-1.037-1.037-1.898-1.898c-11.875,0-24.177,0-36.267,0
	c0-7.607,0-14.793,0-21.569c3.064-0.741,5.846-1.413,8.44-2.04c0-2.651,0-4.705,0-6.704c-0.64-0.64-1.225-1.225-1.81-1.81
	c-4.137,0-8.275,0-12.383,0c-1.483,1.465-2.952,2.914-4.396,4.341c0,11.218,0,22.389,0,33.474
	C51.336,323.296,52.777,324.773,53.976,326.002z M313.216,203.173c-4.637,0-8.779,0-12.788,0c-1.554,1.5-3.039,2.935-4.466,4.313
	c0,11.276,0,22.455,0,33.346c1.555,1.665,2.962,3.171,4.263,4.562c14.256,0,28.329,0,42.364,0c0.623-0.623,1.209-1.209,1.623-1.623
	c0-2.398,0-4.623,0-6.621c-0.643-0.643-1.082-1.082-1.739-1.739c-11.942,0-24.103,0-36.313,0c0-7.556,0-14.892,0-22.441
	c2.496,0,4.718,0,7.055,0C313.216,209.706,313.216,206.659,313.216,203.173z M243.524,127.485c0,12.655,0,24.816,0,37.034
	c-7.821,0-15.424,0-23.465,0c0-2.483,0-4.856,0-7.171c-3.489,0-6.537,0-9.727,0c0,4.447,0,8.737,0,12.44
	c1.637,1.835,3.001,3.365,4.2,4.71c11.418,0,22.578,0,32.803,0c2.394-2.383,4.276-4.256,6.348-6.318
	c0-11.824-0.01-24.044,0.012-36.263c0.003-1.669,0.174-3.34-1.897-4.432C249.446,127.485,246.814,127.485,243.524,127.485z
	 M165.707,263.915c-0.985-7.54-3.126-14.614-5.412-21.496c-2.279-6.863-2.768-14.354-6.797-20.541c-5.841,0-11.616,0-17.723,0
	c-0.444,0.968-1.059,1.978-1.369,3.074c-0.314,1.11-0.423,2.242-0.777,3.39c-1.982,6.436-4.118,12.831-5.57,19.443
	c-1.094,4.98-3.053,9.769-4.641,14.687c2.577,3.161,6.121,0.899,9.619,1.848c3.016-10.928,5.98-21.666,8.898-32.235
	c2.239,0,4.182,0,5.453,0c3.29,10.97,6.047,21.579,9.242,31.829C159.885,263.915,162.516,263.915,165.707,263.915z M270.678,219.533
	c-14.472,0-28.676,0-43.122,0c0.123,3.394-0.161,6.593,0.213,9.942c12.61,0,24.749,0,37.103,0
	c-0.004,7.531,0.005,14.857-0.006,22.385c-2.839,0-5.055,0-7.481,0c0.13,3.399-0.169,6.595,0.193,9.716c4.653,0,8.783,0,12.614,0
	c1.669-1.554,3.176-2.957,4.62-4.301c0-11.28,0-22.438,0-33.474C273.316,222.256,271.881,220.775,270.678,219.533z M262.384,390.226
	c-1.68-1.68-2.995-2.995-4.195-4.195c-14.318,0-28.521,0-42.878,0c0,2.775,0,5.404,0,8.08c0.539,0.539,1.123,1.123,1.89,1.89
	c11.541,0,23.264,0,34.953,0c0,7.508,0,14.83,0,22.356c-2.506,0-4.721,0-6.863,0c0,3.412,0,6.6,0,9.574c4.592,0,8.877,0,12.946,0
	c1.517-1.517,2.831-2.832,4.147-4.146C262.384,412.634,262.384,401.481,262.384,390.226z M381.946,185.645
	c-0.953-7.492-3.519-14.066-5.424-20.733c-1.935-6.769-3.333-13.817-6.036-19.919c-6.589,0-12.532,0-18.569,0
	c-1.469,2.977-1.754,6.165-2.763,8.998c-1.883,5.284-3.105,10.711-4.729,16.039c-1.585,5.201-3.091,10.427-4.603,15.543
	c3.259,0,6.309,0,9.678,0c2.963-10.396,5.904-20.714,8.721-30.598c2.449,0,4.233,0,5.87,0c2.779,10.361,5.48,20.432,8.226,30.67
	C375.169,185.645,378.215,185.645,381.946,185.645z M325.718,381.91c-3.939-13.71-7.808-27.176-11.672-40.626
	c-6.317,0-12.673,0-19.213,0c-4.188,13.444-7.826,26.941-11.668,40.716c3.301,0,5.933,0,9.106,0
	c4.057-10.364,5.771-21.722,9.847-31.994c1.968,0,3.352,0,4.64,0c3.152,10.879,6.25,21.571,9.243,31.904
	C319.559,381.91,322.605,381.91,325.718,381.91z M100.499,196.433c0-3.059,0-6.666,0-10.442c-16.361,0-32.79,0-49.001,0
	c-0.656,0.656-1.095,1.095-1.489,1.489c0,2.678,0,5.309,0,7.773c0.597,0.597,1.035,1.035,1.894,1.894c9.39,0,19.207,0,29.497,0
	c-4.276,2.801-8.016,5.251-11.76,7.704c3.015,2.1,5.865,4.085,8.652,6.026C85.743,206.03,92.894,201.379,100.499,196.433z
	 M227.804,42c0,3.687,0,7.154,0,10.382c0.659,0.659,1.098,1.098,1.48,1.48c2.695,0,5.329,0,8.392,0c0-2.531,0-4.899,0-7.091
	c8.044,0,15.649,0,23.369,0c0.341,9.176-0.229,18.185,0.321,26.907c3.495,0,6.544,0,9.578,0c0-11.153,0-22.069,0-32.843
	c-1.46-1.46-2.778-2.778-4.047-4.047c-11.381,0-22.712,0-33.877,0C231.099,38.707,229.341,40.463,227.804,42z M349.975,290.175
	c-11.161,0-22.338,0-33.193,0c-2.111,1.993-4.057,3.83-5.655,5.338c0,4.273,0,8.139,0,11.886c3.319,0,6.367,0,9.841,0
	c0-2.542,0-4.911,0-7.077c8.039,0,15.64,0,23.447,0c0,8.63,0,17.06,0,25.191c2.38,3.311,5.51,1.399,8.014,2.014
	c0.75-0.75,1.336-1.336,1.925-1.921c0-10.347,0-20.695,0-30.986C352.88,293.124,351.431,291.653,349.975,290.175z M326.419,392.677
	c-12.071,7.871-24.26,15.743-36.56,23.194c0,3.337,0,6.379,0,9.542c10.353,0,20.573,0,30.803,0c0-3.28,0-6.323,0-9.792
	c-3.735,0-7.357,0-11.788,0c9.088-5.82,17.382-11.13,25.804-16.523C332.126,397.113,329.79,395.298,326.419,392.677z M139.9,129.146
	c11.046-6.952,22.038-13.869,33.152-20.864c-0.855-3.165,1.403-6.719-1.896-9.386c-9.197,0-18.458,0-27.919,0
	c-2.442,3.098-1.165,6.489-1.3,9.818c2.123,0,3.777-0.047,5.426,0.014c1.494,0.055,2.983,0.227,5.998,0.471
	c-8.099,5.059-14.868,9.287-21.778,13.603C134.343,124.906,136.71,126.713,139.9,129.146z M362.371,377.896
	c-1.344-2.617-2.272-4.748-3.488-6.7c-1.143-1.834-2.681-3.418-3.879-5.222c-1.276-1.922-2.274-4.029-3.548-5.952
	c-1.192-1.8-2.587-3.466-4.454-5.931c0,6.24,0,11.347,0,16.363c1.834,2.682,3.585,5.261,5.355,7.826
	c1.886,2.732,3.822,5.43,5.678,8.183c1.663,2.467,2.064,5.952,5.719,7.122c0.223-0.742,0.265-1.364,0.565-1.811
	c3.696-5.497,7.501-10.923,11.119-16.47c1.459-2.237,3.277-4.626,3.612-7.123c0.59-4.39,0.165-8.916,0.165-13.384
	c-0.304-0.063-0.607-0.127-0.911-0.19C373.113,362.195,367.92,369.785,362.371,377.896z M195.577,153.967
	c5.589-8.54,10.606-16.208,15.766-24.092c0.496-5.145-0.62-10.707,0.313-16.449c-5.626,7.721-10.53,15.901-15.822,23.817
	c-5.981-7.419-9.896-16.259-16.49-24.332c0,6.035,0,11.153,0,16.022c2.723,4.154,5.42,8.233,8.081,12.336
	C190.086,145.373,192.711,149.5,195.577,153.967z M118.416,306.667c0,6.214,0,11.32,0,16.423
	c5.861,7.726,9.883,16.901,16.724,24.447c5.188-8.052,10.138-15.735,15.173-23.551c0-5.19,0-10.707,0-16.634
	c-5.285,8.18-10.317,15.967-15.466,23.936C129.465,323.224,124.229,315.377,118.416,306.667z M162.455,210.507
	c-8.281-6.455-17.208-10.246-24.379-16.544c7.932-5.106,15.68-10.094,24.089-15.507c-6.475,0-11.996,0-16.711,0
	c-7.303,4.783-13.926,9.245-20.705,13.458c-1.4,0.87-2.834,1.289-2.829,2.739c8.388,5.481,16.489,10.775,24.263,15.854
	C151.493,210.507,156.417,210.507,162.455,210.507z M195.394,205.547c0.95,0.423,1.994,1.287,3.044,1.295
	c12.779,0.093,25.56,0.092,38.34,0.002c1.056-0.007,2.105-0.837,3.266-1.331c-0.123-3.454,0.154-6.65-0.186-9.796
	c-13.47,0-26.457-0.007-39.443,0.008c-1.79,0.002-3.797-0.544-5.021,1.994C195.394,199.952,195.394,202.576,195.394,205.547z
	 M79.06,160.915c12.641,0,25.275-0.005,37.908,0.006c1.848,0.002,3.756,0.243,4.805-1.767c0-2.633,0-5.267,0-7.726
	c-0.605-0.605-1.044-1.044-1.589-1.589c-13.712,0-27.528,0-41.235,0c-0.549,0.549-0.989,0.989-1.591,1.591c0,2.462,0,5.096,0,7.784
	C77.747,159.602,78.186,160.041,79.06,160.915z M378.081,217.885c14.761,0,28.971,0,43.411,0c-0.091-3.808,0.132-7.417-0.136-10.78
	c-14.75,0-28.961,0-43.275,0C378.081,210.763,378.081,214.219,378.081,217.885z M377.858,115.525
	c-1.053-1.86-2.624-1.875-4.342-1.866c-9.709,0.055-19.418,0.026-29.126,0.026c-4.903,0-9.805,0-14.925,0
	c0.137,3.613-0.16,6.809,0.179,9.748c16.396,0,32.249,0,48.215,0C377.858,120.613,377.858,117.985,377.858,115.525z
	 M203.553,403.482c-12.553,0-25.227,0-37.696,0c-0.642,0.642-1.079,1.079-1.527,1.527c0,2.614,0,5.237,0,7.723
	c0.57,0.57,1.007,1.007,1.51,1.51c13.023,0,26.11,0,39.259,0c0-3.258,0-6.293,0-9.213
	C204.548,404.478,204.111,404.041,203.553,403.482z M202.926,55.692c0,14.466,0,28.663,0,43.108
	c3.393-0.121,6.592,0.157,9.563-0.169c0-15.116,0-29.731,0-44.473c-2.804,0-5.432,0-8.029,0
	C203.991,54.627,203.553,55.065,202.926,55.692z M160.358,280.432c-14.751,0-28.961,0-43.419,0c0.122,3.393-0.16,6.594,0.169,9.544
	c14.722,0,28.932,0,43.25,0C160.358,286.734,160.358,283.692,160.358,280.432z M223.856,334.297c0,10.746,0.023,21.47-0.023,32.194
	c-0.007,1.704-0.031,3.293,2.144,4.503c2.718-0.264,5.928,0.299,8.895-0.248c0-12.967,0-25.502,0-38.173c-3.203,0-6.241,0-9.292,0
	C225.153,333,224.715,333.438,223.856,334.297z M377.799,300.913c0-11.496,0-22.79,0-34.069c-3.779,0-7.375,0-10.875,0
	c0,11.58,0,22.876,0,34.289c2.851,2.555,6.233,1.01,9.137,1.518C376.681,302.031,377.119,301.594,377.799,300.913z M400.761,169.41
	c3.253,0,6.294,0,9.251,0c0-10.821,0-21.434,0-31.941c-3.316,0-6.355,0-9.214,0c-0.606,0.606-1.043,1.043-1.588,1.588
	c0,9.532,0,19.173,0,28.802C399.659,168.308,400.097,168.745,400.761,169.41z M108.237,265.97c-0.27-0.291-0.77-0.576-0.777-0.873
	c-0.246-9.787-0.445-19.575-0.65-29.312c-3.349,0-6.532,0-9.579,0c0,10.763,0,21.23,0,31.857c3.178,0,6.215,0,9.335,0
	C106.923,267.284,107.36,266.846,108.237,265.97z M283.108,166.102c-2.866,0-5.493,0-7.994,0c0,10.84,0,21.462,0,31.903
	c3.344,0,6.387,0,9.529,0c0-10.257,0-20.319,0-30.369C284.192,167.186,283.755,166.748,283.108,166.102z M356.63,275.164
	c0-3.582,0-6.628,0-9.856c-10.433,0.038-20.651-0.037-30.643,0.041c0,3.646,0,6.692,0,9.815
	C336.272,275.164,346.342,275.164,356.63,275.164z M319.349,81.269c0-3.979,0-7.439,0-11.09c-9.189,0.024-18.167-0.023-26.925,0.027
	c0,4.06,0,7.519,0,11.063C301.462,81.269,310.29,81.269,319.349,81.269z M133.01,365.254c-0.506-0.506-0.94-1.322-1.382-1.326
	c-8.552-0.075-17.104-0.056-25.944-0.056c0.364,3.237-0.278,6.449,0.33,9.38c9.254,0,18.07,0,26.996,0
	C133.01,370.434,133.01,367.811,133.01,365.254z M254.186,474.018c0.831-0.705,1.453-1.233,1.79-1.519c0-7.063,0-13.793,0-20.321
	c-0.63-0.63-1.066-1.066-1.731-1.731c-2.939,0.308-6.142-0.292-8.912,0.251c0,7.621-0.023,14.765,0.056,21.908
	c0.005,0.441,0.816,0.872,1.356,1.412C249.257,474.018,251.874,474.018,254.186,474.018z M241.063,277.317
	c0-8.217,0-16.208,0-24.124c-3.388,0-6.573,0-9.577,0c0,8.712,0,17.119,0,25.658c2.793,0,5.417,0,8.044-0.001
	C239.968,278.413,240.405,277.976,241.063,277.317z M197.553,229.179c0-3.572,0-6.611,0-9.74c-8.185,0-16.168,0-24.14,0
	c-3.006,2.392-1.25,5.534-1.754,7.974c0.842,0.842,1.279,1.279,1.765,1.765C181.358,229.179,189.341,229.179,197.553,229.179z
	 M200.751,429.675c4.262,7.38,8.206,14.209,11.911,20.626c3.665,0,6.712,0,10.019,0c0.001-4.491-3.318-7.105-5.039-10.461
	c-1.821-3.551-3.635-7.105-5.2-10.165C208.364,429.675,204.921,429.675,200.751,429.675z M246.733,96.285
	c1.993,0,3.863,0.12,5.71-0.035c1.673-0.14,3.573,0.7,5.129-0.681c-3.944-6.976-7.737-13.685-11.61-20.534
	c-3.354,0.408-6.569-0.283-10.276,0.542C238.533,83.111,243.035,89.202,246.733,96.285z M250.499,342.567
	c4.304,7.713,7.55,14.929,11.977,20.614c3.851,0,6.866,0,10.505,0c-3.933-7.26-7.583-13.998-11.167-20.614
	C258.344,342.567,254.885,342.567,250.499,342.567z M435.801,178.505c3.449-0.209,6.899-0.415,10.347-0.65
	c0.073-0.005,0.124-0.341,0.26-0.748c-3.737-6.562-7.551-13.258-11.366-19.956c-3.528,0.149-6.721-0.178-10.524,0.297
	C427.511,165.117,432.269,171.078,435.801,178.505z M165.648,151.078c0,8.141,0,15.725,0,23.537
	c3.396-0.124,6.593,0.161,9.528-0.166c0-8.109,0-15.694,0-23.371C171.928,151.078,168.889,151.078,165.648,151.078z
	 M301.755,264.293c-2.86,0-5.499,0-7.895,0c-0.658,0.658-1.097,1.098-1.72,1.72c0.773,2.875-1.481,6.407,1.819,9.138
	c2.533,0,5.164,0,7.696,0c3.3-2.731,1.046-6.263,1.819-9.138C302.852,265.391,302.413,264.952,301.755,264.293z M128.373,151.374
	c0,2.86,0,5.499,0,7.895c0.658,0.658,1.097,1.097,1.864,1.864c2.678-1.23,6.281,1.449,8.994-2.004c0-2.492,0-5.124,0-7.656
	c-2.731-3.3-6.263-1.046-9.138-1.819C129.47,150.277,129.031,150.716,128.373,151.374z M187.604,325.805c0-2.453,0-4.659,0-6.63
	c-0.643-0.643-1.077-1.077-1.666-1.666c-3.011,0.16-6.201-0.284-9.109,0.206c0,3.502,0,6.526,0,9.639c3.225,0,6.248,0,9.226,0
	C186.536,326.873,186.971,326.438,187.604,325.805z M354.265,207.086c-3.556,0-6.584,0-9.723,0c0,3.204,0,6.228,0,9.264
	c0.569,0.569,1.149,1.149,1.729,1.729c5.547,0.011,5.547,0.011,7.995-1.736C354.265,213.382,354.265,210.359,354.265,207.086z
	 M408.745,195.608c3.041-3.341,0.853-7.252,1.68-10.78c-3.733,0-6.903,0-10.256,0c0.839,3.741-1.21,7.605,1.712,10.78
	C404.194,195.608,406.395,195.608,408.745,195.608z M274.907,284.237c3.549-0.979,7.11,1.255,9.752-2.062c0-2.51,0-5.122,0-7.815
	c-2.965-2.877-6.445-1.015-9.752-1.728C274.907,276.658,274.907,280.092,274.907,284.237z M268.704,450.301c3.57,0,6.609,0,9.934,0
	c-0.322-3.389,0.228-6.596-0.301-9.53c-3.47,0-6.509,0-9.634,0C268.704,444.011,268.704,447.045,268.704,450.301z M155.395,389.817
	c-3.585,0-6.623,0-9.869,0c0.123,3.397-0.158,6.591,0.16,9.521c3.555,0,6.593,0,9.709,0
	C155.395,396.092,155.395,393.057,155.395,389.817z M319.347,179.456c0-3.585,0-6.623,0-9.869c-3.397,0.123-6.591-0.158-9.521,0.16
	c0,3.555,0,6.593,0,9.709C313.072,179.456,316.106,179.456,319.347,179.456z M391.645,357.103c3.318,0.291,6.633,0.35,9.725-0.013
	c0-3.505,0-6.542,0-9.85c-3.392,0.357-6.6-0.247-9.725,0.368C391.645,350.901,391.645,353.785,391.645,357.103z M250.058,205.45
	c3.579,0,6.618,0,9.87,0c-0.122-3.396,0.156-6.59-0.16-9.526c-3.549,0-6.588,0-9.709,0
	C250.058,199.168,250.058,202.202,250.058,205.45z M228.934,112.226c3.593,0,6.63,0,9.942,0c-0.35-3.391,0.243-6.599-0.32-9.511
	c-3.485,0-6.522,0-9.622,0C228.934,105.966,228.934,109.001,228.934,112.226z M64.871,253.925c3.57,0,6.609,0,9.867,0
	c-0.121-3.395,0.155-6.59-0.161-9.53c-3.542,0-6.582,0-9.707,0C64.871,247.635,64.871,250.669,64.871,253.925z M324.427,96.494
	c-3.579,0-6.618,0-9.87,0c0.122,3.396-0.156,6.59,0.16,9.526c3.549,0,6.588,0,9.709,0
	C324.427,102.776,324.427,99.742,324.427,96.494z"/>
</svg>
