<?xml version="1.0" encoding="iso-8859-1"?>
<!-- Generator: Adobe Illustrator 19.0.0, SVG Export Plug-In . SVG Version: 6.00 Build 0)  -->
<svg version="1.1" id="Layer_1" xmlns="http://www.w3.org/2000/svg" xmlns:xlink="http://www.w3.org/1999/xlink" x="0px" y="0px"
	 viewBox="0 0 2000 2000" style="enable-background:new 0 0 2000 2000;" xml:space="preserve">
<path d="M1976.887,1011.601c-3.955,251.916-95.783,482.682-283.895,672.544c-187.781,189.528-418.255,286.356-683.502,289.264
	c-260.708,2.859-490.617-86.672-680.156-267.298C112.178,1499.167,10.437,1242.282,25.133,943.247
	c13.156-267.701,123.641-493.263,321.943-672.887C540.338,95.301,770.912,11.868,1030.821,20.325
	c273.963,8.915,506.64,116.318,691.567,319.425C1891.279,525.246,1974.722,745.59,1976.887,1011.601z M1886.642,1001.86
	c5.084-502.149-402.835-882.915-859.761-893.242c-528.223-11.939-892.335,404.86-913.284,835.525
	c-13.511,277.765,81.566,514.254,284.289,704.234c164.765,154.407,363.999,233.834,589.014,236.518
	C1487.088,1890.861,1888.224,1486.973,1886.642,1001.86z M164.484,1024.215c0.599-236.866,69.085-422.552,208.113-578.812
	c177.212-199.176,402.819-294.54,668.904-283.343c205.052,8.629,385.029,86.302,533.371,228.691
	c169.98,163.159,258.076,364.163,260.251,600.804c4.277,465.376-376.401,846.465-846.639,840.896
	c-216.818-2.568-406.971-80.313-563.804-230.686C253.514,1437.652,166.952,1235.124,164.484,1024.215z M1007.711,1424.298
	c58.132-153.362,88.189-312.193,111.038-471.462c-17.109-8.967-30.91-16.201-45.255-23.719c-2.879,25.448-1.894,52.398-20.79,75.455
	c-17.284-24.532-23.265-54.365-46.122-77.213c-12.031,27.09-22.844,51.436-33.783,76.067
	c-21.074-18.694-28.572-41.656-25.404-69.098c-23.045,13.093-43.791,24.88-66.599,37.839
	C903.392,1127.58,949.206,1277.283,1007.711,1424.298z M878.941,1075.744c1.024-0.629,2.048-1.258,3.072-1.887
	c-3.289-18.811-5.84-37.788-10.033-56.394c-7.052-31.289-11.309-61.753,10.843-89.514c5.858-7.342,10.176-15.913,16.609-26.162
	c-7.538,0.516-11.538,0.467-15.423,1.11c-22.014,3.647-44.088,10.966-65.977,10.421c-35.776-0.891-55.092-32.765-51.724-60.759
	c2.537-21.091,11.785-40.294,26.013-57.21c15.541-18.478,29.167-38.566,44.584-59.235c-8.264-9.163-13.458-20.151-21.493-22.934
	c-36.802-12.748-74.4-23.198-113.779-35.098c-4.594,7.634-11.637,14.523-12.515,22.125c-0.907,7.856,4.175,16.404,7.09,26.167
	c-11.007,0.757-20.161,1.386-29.926,2.057c-3.424,5.933-6.709,11.628-9.624,16.678c2.85,10.857,19.932,16.703,8.36,31.548
	c-6.466,0-13.123,0-19.045,0c-21.162,17.774-5.2,28.918,6.275,41.519c-2.061,4.442-4.231,9.12-4.53,9.765
	c-12.307,6.139-21.084,10.518-34.225,17.074c9.898,10.986,16.482,18.293,25.859,28.702c-0.221,1.712-1.032,7.987-1.784,13.806
	c-7.761,1.832-13.428,3.17-20.55,4.851c0,8.914,0,17.212,0,26.511c7.45,3.289,14.596,6.444,22.595,9.975
	c-3.272,13.735-6.543,27.467-9.732,40.854c8.389,4.247,13.001,6.582,17.185,8.701c5.351-2.539,9.982-4.737,17.817-8.456
	c0,14.584,0,26.587,0,38.753c10.247,21.402,26.085,4.746,40.414,2.49c0,9.29,0,15.754,0,22.336
	c14.919,14.682,18.91,14.295,38.509-3.854c2.939,1.239,5.878,2.477,4.64,1.956c5.516,12.086,9.396,20.588,12.655,27.73
	c8.675,0,14.023,0,19.666,0c5.248-6.852,10.358-13.524,16.377-21.383c10.729,10.172,20.383,19.324,32.68,30.982
	c8.9-13.736,15.308-23.624,21.926-33.837C861.359,1049.48,870.15,1062.612,878.941,1075.744z M1139.462,912.014
	c0.325,16.779,3.124,33.507,0.461,49.314c-6.335,37.608-15.253,74.781-23.128,112.13c1.257,0.676,2.513,1.352,3.77,2.028
	c9.567-13.472,19.135-26.944,28.189-39.694c7.294,11.03,13.569,20.518,22.039,33.325c12.634-12.465,21.983-21.689,32.402-31.969
	c5.91,9.158,10.131,15.699,14.374,22.273c6.587,0,12.576,0,21.676,0c3.366-8.442,7.038-17.65,11.301-28.339
	c14.016-3.383,29.196,30.276,44.89,0.159c-0.439-4.996-0.979-11.13-1.789-20.343c15,1.405,31.161,19.987,43.394-6.59
	c5.476-7.23-13.004-21.803,2.65-32.343c4.983,2.493,9.641,4.823,13.776,6.891c5.362-3.389,9.788-6.187,16.763-10.595
	c-3.291-13.2-6.629-26.589-9.847-39.5c8.641-3.771,15.785-6.889,24.164-10.546c-0.687-9.447-1.292-17.763-1.911-26.27
	c-7.604-1.646-13.265-2.871-18.89-4.088c-1.287-3.255-2.731-5.64-3.11-8.184c-0.487-3.266-0.118-6.661-0.118-5.827
	c9.122-10.641,15.899-18.548,25.458-29.699c-12.787-6.187-21.216-10.265-33.143-16.035c-0.654-1.455-3.014-6.706-5.219-11.611
	c20.677-16.125,21.589-25.334,5.168-39.617c-6.671-0.437-13.244-0.868-24.967-1.637c5.455-11.608,9.75-20.749,14.624-31.121
	c-2.213-4.005-5.411-9.794-9.148-16.56c-5.591,0-10.831,0.365-15.994-0.108c-4.661-0.427-9.238-1.772-14.632-2.87
	c12.968-25.313,11.75-30.814-8.626-45.535c-14.126,4.287-28.685,8.717-43.251,13.122c-14.566,4.405-29.535,7.796-43.605,13.435
	c-16.431,6.584-38.087,7.548-40.63,35.137c4.736,6.377,10.91,14.734,17.131,23.055c12.283,16.431,26.803,31.649,36.442,49.504
	c21.512,39.851,19.509,69.095-10.829,90.718C1187.809,919.339,1161.404,916.104,1139.462,912.014z M1125.227,939.521
	c1.339-1.099,2.678-2.198,4.018-3.297c-19.713-28.976-29.491-61.248-32.013-95.559c-2.601-35.388-4.096-70.857-6.398-112.06
	c-10.784-5.481-24.414-15.352-39.612-19.55c-37.127-10.256-65.986,12.065-62.022,43.802c8.272,7.706,15.531,14.468,24.702,23.012
	c-2.791,10.651-5.686,21.697-9.25,35.296c-19.362-1.179-35.899-2.187-50.387-3.069c-27.477,28.617-54.328,56.583-80.757,84.109
	c15.737-2.303,31.371-4.59,47.005-6.878c0.788,1.425,1.576,2.849,2.364,4.274c-10.994,18.555-21.988,37.111-32.982,55.666
	c1.024,1.159,2.049,2.318,3.073,3.477c21.788-16.028,43.576-32.057,64.984-47.806c2.764,22.506,5.529,45.019,8.833,71.929
	c15.36-28.311,28.061-51.723,43.222-79.668c16.605,29.733,30.489,54.592,44.372,79.452c0.971-0.399,1.943-0.799,2.914-1.198
	c-1.288-25.394-2.575-50.788-3.886-76.643C1078.457,910.404,1101.842,924.963,1125.227,939.521z M1511.167,441.994
	c-61.281,81.18-124.12,161.033-201.329,225.308c5.966,7.513,11.506,13.216,15.479,19.857c3.83,6.404,6.043,13.775,9.787,22.671
	C1424.177,638.873,1494.557,558.709,1511.167,441.994z M689.102,666.049c-77.762-63.447-138.96-144.355-200.945-224.663
	c16.607,116.9,87.502,197.293,175.309,267.39C672.344,693.979,680.237,680.824,689.102,666.049z M1038.492,1393.785
	c76.395,143.3,157.974,200.012,191.758,208.966c-62.917-86.992-115.601-180.239-166.809-277.057
	C1054.482,1350.145,1046.591,1371.682,1038.492,1393.785z M944.705,1320.911c-50.3,97.355-103.708,190.318-167.92,278.588
	c72.702-30.432,144.61-117.798,194.35-213.435C962.715,1365.309,954.203,1344.324,944.705,1320.911z M1554.354,528.517
	c-67.142,63.843-134.285,127.686-200.744,190.879c3.487,10.845,7.515,23.372,12.172,37.858
	C1451.119,699.864,1529.921,636.768,1554.354,528.517z M645.941,719.55c-66.558-63.507-133.491-127.373-200.505-191.316
	c0,4.866-1.943,11.59,0.32,16.288c13.167,27.341,25.34,55.472,41.605,80.937c24.925,39.026,60.562,68.52,96.633,96.887
	c16.316,12.832,34.266,23.587,49.994,34.278C638.768,741.798,642.631,729.817,645.941,719.55z M767.106,1503.986
	c82.746-47.495,131.308-123.004,171.63-203.982c-7.257-23.329-14.138-45.452-22.197-71.36
	C872.415,1326.389,825.747,1418.39,767.106,1503.986z M1238.052,1503.272c-57.965-86.568-106.393-178.185-148.974-276.679
	c-8.119,26.239-15.053,48.65-22.77,73.591C1107.993,1378.272,1154.498,1456.172,1238.052,1503.272z M1004.873,1718.032
	c17.783-36.202,35.005-231.537,25.243-296.229c-3.655,15.821-9.674,27.618-29.073,31.945c-6.81-9.802-14.181-20.413-21.242-30.577
	C977.664,1520.387,986.176,1617.413,1004.873,1718.032z M1585.913,624.702c-69.657,47.887-140.452,96.556-211.746,145.569
	c3.178,9.461,7.296,21.721,11.756,34.999C1472.703,764.33,1544.272,709.115,1585.913,624.702z M626.242,768.142
	c-36.62-23.918-73.023-46.738-108.392-71.063c-35.271-24.257-69.504-50.023-104.398-75.275
	c36.362,83.859,129.985,155.747,201.356,181.801C618.617,791.792,622.422,779.991,626.242,768.142z M1206.204,1281.446
	c0.989-1.317,1.977-2.634,2.966-3.951c11.821,4.386,23.642,8.771,35.464,13.157c0.925-0.981,1.849-1.962,2.774-2.943
	c-55.958-49.73-103.425-105.514-131.355-177.039c-8.305,32.091-16.609,64.181-25.101,96.995
	c45.958,30.413,91.262,59.098,124.593,103.148C1212.432,1301.024,1209.318,1291.235,1206.204,1281.446z M786.81,1311.6
	c17.172-17.204,35.365-38.034,56.27-55.644c21.084-17.761,44.861-32.325,68.193-48.809c-8.463-32.351-16.855-64.428-25.247-96.505
	c-27.66,68.702-71.639,124.43-126.516,172.409c0.845,1.345,1.69,2.691,2.535,4.036c9.792-2.614,19.584-5.227,32.911-8.785
	C791.673,1291.722,788.808,1303.432,786.81,1311.6z M603.575,946.894c-34.565-6.293-71.266-11.638-107.294-19.911
	c-36.073-8.284-71.474-19.493-112.191-30.817c14.065,13.863,24.128,25.832,36.174,35.272c36.63,28.708,79.6,43.15,124.749,51.187
	c27.017,4.809,54.399,7.569,80.829,11.143C618.595,978.512,611.704,964.006,603.575,946.894z M1611.372,897.136
	c-36.968,10.47-72.559,22.086-108.904,30.412c-36.43,8.346-73.612,13.409-106.239,19.166c-8.067,17.714-14.418,31.66-21.092,46.316
	c13.323-1.858,28.147-4.97,43.1-5.819c49.707-2.824,95.992-16.998,139.5-40.618C1579.599,934.724,1598.473,919.37,1611.372,897.136z
	 M1398.695,928.659c60.98-9.818,206.644-72.031,227.4-130.971c-72.63,36.367-146.428,67.647-220.25,84.981
	C1403.157,899.956,1400.942,914.206,1398.695,928.659z M594.003,882.357c-74.758-17.201-148.124-48.914-222.39-85.47
	c30.471,66.007,187.891,128.948,229.469,130.804C598.982,914.25,596.758,900.007,594.003,882.357z M482.904,1099.991
	c66.539,37.918,152.123,34.318,243.362-29.597c-11.581-5.47-23.42-11.062-40.583-19.17
	C624.238,1075.254,555.702,1096.453,482.904,1099.991z M1516.094,1100.663c-72.567-4.508-140.601-24.786-201.923-50.203
	c-16.052,8.068-28.317,14.233-40.637,20.425C1348.888,1120.914,1428.098,1145.477,1516.094,1100.663z M1397.161,868.769
	c68.217-21.927,193.694-111.412,203.462-158.803c-33.077,20.449-66.082,42.588-100.721,61.779
	c-34.541,19.137-70.72,35.317-107.803,53.593C1393.541,837.712,1395.261,852.471,1397.161,868.769z M609.321,822.371
	c-75.452-23.929-141.36-70.26-210.721-110.183c49.434,76.94,123.681,120.648,202.76,158.307
	C604.216,853.231,606.667,838.417,609.321,822.371z M1425.192,1197.804c-31.993-18.283-64.745-33.702-93.677-54.449
	c-29.762-21.344-55.797-47.885-83.538-72.218c-3.127,16.489-21.363,10.696-33.125,15.397
	C1262.943,1166.851,1334.649,1199.484,1425.192,1197.804z M574.186,1195.898c91.64,4.423,161.868-31.636,212.093-110.344
	c-14.758-1.887-30.248,0.782-35.363-18.324C701.547,1125.638,644.048,1169.238,574.186,1195.898z M425.767,999.472
	c42.882,54.086,185.14,56.08,237.507,38.329c-8.1-9.89-16.669-20.352-25.806-31.507
	C569.022,1007.103,498.309,1011.848,425.767,999.472z M1573.077,1001.814c-35.253,2.05-70.395,4.908-105.59,5.913
	c-35.887,1.024-71.827,0.227-106.874,0.227c-7.56,9.857-15.7,20.468-24.478,31.912c49.501,9.996,101.135,11.452,151.85,2.246
	C1518.974,1036.487,1551.088,1027.198,1573.077,1001.814z M1168.819,1085.005c-8.931-3.145-16.762-5.903-25.557-9.001
	c22.719,81.804,80.105,140.415,143.167,148.645c-16.862-21.169-36.743-43.702-53.792-68.207
	c-17.458-25.092-32.141-52.115-48.177-78.522C1180.962,1079.504,1175.539,1081.961,1168.819,1085.005z M706.914,1225.19
	c85.181-13.445,135.656-89.663,149.083-149.625c-8.644,3.234-16.53,6.184-24.331,9.103c-7.067-2.646-13.651-5.111-20.23-7.575
	C790.431,1135.198,756.659,1183.427,706.914,1225.19z M924.653,765.019c12.525,19.21,38.755,33.656,58.48,31.738
	c11.088-1.078,19.434-5.552,15.672-19.765c-23.59-12.364-27.211-32.021-17.485-58.806c-21.173-8.233-41.599-16.176-63.498-24.692
	c-10.659,7.456-20.809,14.556-31.693,22.17c-1.225,17.836-2.392,34.83-3.6,52.423c15.052-11.543,27.173-20.838,39.636-30.396
	c12.635,11.917,30.559,13.36,34.359,32.931C944.93,768.584,934.986,766.836,924.653,765.019z M719.518,1309.187
	c-24.503,6.805-46.294,12.857-68.084,18.908c0.234,1.617,0.469,3.233,0.704,4.85c22.21,0,44.419,0,69.753,0
	c-2.357,23.891-4.457,45.173-6.854,69.465c13.725-23.468,25.467-43.546,37.016-63.293c22.203,9.332,40.679,17.098,59.154,24.863
	c0.495-0.929,0.99-1.859,1.486-2.788c-16.08-12.255-32.159-24.511-50.085-38.174c4.193-7.997,8.111-15.467,12.3-23.456
	c-9.118,3.181-17.646,6.156-25.159,8.776c-17.765-15.846-34.276-30.572-50.787-45.299c-0.584,0.722-1.167,1.443-1.751,2.165
	C704.229,1279.044,711.249,1292.883,719.518,1309.187z M1240.599,1320.335c-15.558,12.935-30.099,25.026-44.64,37.116
	c0.558,0.984,1.116,1.968,1.673,2.952c18.236-7.352,36.473-14.703,52.758-21.269c12.183,20.72,23.388,39.779,34.594,58.837
	c0.812-0.338,1.624-0.676,2.437-1.013c-2.961-21.191-5.922-42.383-9.076-64.962c27.39,0,50.798,0,74.207,0
	c0.192-1.456,0.385-2.912,0.577-4.369c-23.077-6.24-46.154-12.481-71.228-19.261c9.039-16.737,17.329-32.088,25.62-47.438
	c-0.563-0.409-1.126-0.818-1.689-1.228c-18.377,16.274-36.755,32.547-54.595,48.345c-7.168-1.932-13.158-3.547-19.147-5.161
	c-0.489,1.303-0.979,2.605-1.468,3.908C1233.299,1310.426,1235.975,1314.059,1240.599,1320.335z M699.132,837.772
	c-6.903,22.478-9.999,48.231-0.801,70.276c22.047,52.839,73.74,65.05,124.476,38.458c-13.551,0-26.056,1.91-37.667-0.497
	c-13.651-2.83-28.436-6.819-39.349-14.881c-24.62-18.188-34.871-59.739-23.46-89.217c11.067-28.589,24.984-55.806,47.762-77.322
	c9.196-8.686,18.559-17.195,30.443-28.187c-26.968-10.75-49.52-19.739-74.164-29.562c-3.976,6.361-7.823,12.515-12.84,20.539
	c14.859,7.45,26.998,13.536,41.283,20.699C726.758,774.723,709.29,804.697,699.132,837.772z M1178.777,951.863
	c17.803,2.761,35.98,9.31,53.341,7.595c59.744-5.904,91.987-66.84,68.629-123.312c-13.283-32.114-29.235-62.042-55.09-88.267
	c13.452-6.713,25.537-12.744,41.341-20.632c-5.763-8.124-10.11-14.252-14.25-20.088c-25.446,10.204-47.765,19.154-68.839,27.605
	c19.355,23.933,38.151,45.245,54.709,68.174c17.662,24.459,23.947,52.598,21.043,82.923c-2.376,24.814-13.704,44.143-37.015,52.081
	c-19.697,6.708-41.132,8.309-61.798,12.17C1180.157,950.697,1179.467,951.28,1178.777,951.863z"/>
</svg>
