<?xml version="1.0" encoding="iso-8859-1"?>
<!-- Generator: Adobe Illustrator 19.0.0, SVG Export Plug-In . SVG Version: 6.00 Build 0)  -->
<svg version="1.1" id="Layer_1" xmlns="http://www.w3.org/2000/svg" xmlns:xlink="http://www.w3.org/1999/xlink" x="0px" y="0px"
	 viewBox="0 0 2000 2000" style="enable-background:new 0 0 2000 2000;" xml:space="preserve">
<path d="M933.889,1338.698c-28.441,0-52.074,0-76.834,0c0-155.635,0-310.106,0-466.46c25.844,0,51.778,0,81.537,0
	c91.734,112.463,185.665,227.62,283.421,347.465c0-119.607,0-233.714,0-348.574c27.276,0,51.745,0,77.652,0
	c0,156.056,0,311.137,0,467.538c-25.906,0-51.161,0-80.017,0c-92.912-113.69-187.617-229.573-285.76-349.664
	C933.889,1107.955,933.889,1222.49,933.889,1338.698z M1393.906,1339.867c57.525,0,113.236,0.672,168.915-0.403
	c17.069-0.33,34.298-4.421,51.023-8.54c108.098-26.621,187.965-149.295,166.695-263.306
	c-19.807-106.168-98.505-184.075-202.806-195.667c-59.827-6.65-120.999-1.205-183.827-1.205
	C1393.906,1028.482,1393.906,1183.411,1393.906,1339.867z M1474.533,948.462c63.818-2.105,127.209-8.644,180.065,41.892
	c43.988,42.058,57.983,92.875,45.874,149.203c-13.351,62.108-54.438,103.846-116.587,117.967
	c-34.297,7.793-70.867,5.586-109.352,8.077C1474.533,1157.457,1474.533,1054.136,1474.533,948.462z M186.549,1258.42
	c13.302-0.319,26.934-1.511,39.754-4.851c81.643-21.269,142.109-97.045,146.618-175.572c5.283-92.004-59.237-180.37-136.743-198.687
	c-16.653-3.936-33.75-7.95-50.711-8.268c-55.401-1.04-110.833-0.39-165.461-0.39c0,158.499,0,313.423,0,467.988
	c25.507,0,49.113,0,74.631,0c0-26.441,0-51.642,0-80.001C127.744,1258.639,157.16,1259.124,186.549,1258.42z M95.882,945.091
	c40.513,2.476,81.101-0.832,118.496,8.567c59.446,14.942,87.267,79.133,80.451,124.487
	c-9.241,61.487-57.212,103.686-116.575,103.737c-26.934,0.023-53.868,0.004-82.371,0.004
	C95.882,1102.074,95.882,1025.858,95.882,945.091z M417.131,1181.169c8.941,118.238,118.131,193.746,234.816,164.586
	c90.681-22.662,145.859-98.595,146.285-192.061c0.396-86.924,0.171-173.851,0.102-260.777c-0.005-6.903-0.933-13.805-1.478-21.328
	c-26.69,0-51.824,0-79.587,0c0,9.743,0.005,18.269-0.001,26.795c-0.064,90.115,0.079,180.231-0.284,270.345
	c-0.178,44.157-23.421,75.315-61.28,93.606c-77.851,37.614-163.285-17.349-163.579-103.954
	c-0.295-86.925-0.064-173.852-0.064-260.778c0-8.465,0-16.929,0-26.303c-26.672,0-50.344,0-76.536,0
	C415.525,975.645,409.4,1078.931,417.131,1181.169z M1829.312,1339.329c25.957,0,50.298,0,74.208,0c0-156.34,0-311.453,0-467.585
	c-25.084,0-48.736,0-74.208,0C1829.312,1028.705,1829.312,1183.753,1829.312,1339.329z M1980.253,667.474
	c-9.849-9.372-19.29-18.355-25.785-24.536c-24.826,24.346-48.245,47.314-71.225,69.851c7.032,7.931,14.853,16.752,24.509,27.641
	C1933.698,714.321,1956.833,691.041,1980.253,667.474z M1760.833,663.623c23.721,25.873,45.44,49.563,68.488,74.701
	c9.249-9.774,17.786-18.795,26.098-27.578c-22.731-22.838-45.047-45.259-70.011-70.341
	C1775.733,649.545,1766.445,658.321,1760.833,663.623z M1953.039,858.594c7.676-7.403,16.557-15.968,24.058-23.203
	c-22.891-22.977-45.741-45.912-69.842-70.103c-8.333,7.912-17.388,16.509-23.846,22.641
	C1907.297,812.172,1930.52,835.741,1953.039,858.594z M1759.928,834.577c8.766,8.343,17.764,16.909,28.194,26.836
	c22.082-23.237,44.434-46.76,68.067-71.629c-8.138-7.736-17.158-16.31-24.993-23.758
	C1806.242,790.027,1783.46,811.942,1759.928,834.577z M1870.536,728.134c-9.659,7.569-19.505,15.284-29.225,22.901
	c9.77,10.377,18.284,19.42,26.298,27.931c10.669-9.348,20.092-17.603,27.911-24.454
	C1884.627,743.012,1875.794,733.686,1870.536,728.134z"/>
</svg>
