<?xml version="1.0" encoding="iso-8859-1"?>
<!-- Generator: Adobe Illustrator 19.0.0, SVG Export Plug-In . SVG Version: 6.00 Build 0)  -->
<svg version="1.1" id="Layer_1" xmlns="http://www.w3.org/2000/svg" xmlns:xlink="http://www.w3.org/1999/xlink" x="0px" y="0px"
	 viewBox="0 0 2000 2000" style="enable-background:new 0 0 2000 2000;" xml:space="preserve">
<path d="M550.467,1869.733c69.149-228.278,138.459-453.615,204.641-679.867c8.484-29.004,6.931-64.378-0.734-94.018
	c-21.881-84.615-49.312-167.795-78.625-265.02c-96.84,318.66-190.078,625.467-285.066,938.034
	c-17.439-14.139-31.052-25.176-47.68-38.657c41.591-137.654,82.876-274.588,124.342-411.467
	c56.005-184.876,112.276-369.672,167.973-554.641c4.182-13.889,9.778-30.357,6.087-43.133
	c-27.412-94.9-57.008-189.169-95.973-284.451c-113.933,374.675-227.865,749.35-343.163,1128.515
	C-18.666,1278.146-80.939,761.427,244.24,369.942C570.683-23.066,1101.872-71.957,1467.864,134.513
	c-37.321,118.087-75.087,237.308-112.672,356.585c-38.738,122.935-77.417,245.89-115.758,368.949
	c-3.868,12.416-10.183,27.036-6.972,38.226c28.109,97.985,58.127,195.422,91.294,305.333
	c53.562-169.959,103.052-326.703,152.35-483.508c49.483-157.391,98.775-314.842,150.199-478.795
	c17.697,14.636,30.999,25.638,46.373,38.353c-47.964,154.77-95.015,307.72-142.786,460.445
	c-54.71,174.909-110.912,349.359-164.115,524.721c-7.117,23.458-5.848,52.578,0.769,76.525
	c23.677,85.693,51.326,170.288,82.468,271.537c63.354-203.751,122.355-394.137,181.768-584.395
	c59.943-191.955,120.294-383.783,181.225-578.083c214.302,284.558,265.938,808.648-69.931,1194.542
	C1398.023,2040.245,871.422,2052.191,550.467,1869.733z M833.764,383.263c34.699,114.345,66.737,220.085,98.876,325.794
	c83.533,274.754,167.178,549.474,250.593,824.264c11.424,37.632,25.71,77.071,68.837,82.599c47.767,6.123,96.925,1.4,147.79,1.4
	c-117.828-387.917-234.516-771.673-350.836-1155.54c-14.882-49.111-48.941-74.111-97.831-77.958
	C915.043,380.977,878.488,383.263,833.764,383.263z M584.127,386.153c120.548,395.444,238.859,787.002,361.386,1177.237
	c7.655,24.379,46.047,48.375,74.205,54.841c40.558,9.313,84.847,2.38,127.823,2.38c-0.428-7.005-0.004-10.375-0.906-13.34
	c-107.974-355.179-216.009-710.339-324.133-1065.472C782.722,411.135,800.936,369.601,584.127,386.153z"/>
</svg>
