<?xml version="1.0" encoding="iso-8859-1"?>
<!-- Generator: Adobe Illustrator 19.0.0, SVG Export Plug-In . SVG Version: 6.00 Build 0)  -->
<svg version="1.1" id="Layer_1" xmlns="http://www.w3.org/2000/svg" xmlns:xlink="http://www.w3.org/1999/xlink" x="0px" y="0px"
	 viewBox="0 0 2000 2000" style="enable-background:new 0 0 2000 2000;" xml:space="preserve">
<path d="M584.707,1478.84c0-314.666,0-629.281,0-946.709c230.92,192.829,459.476,383.685,690.577,576.665
	c0-176.16,0-348.999,0-522.791c-83.053-71.772-166.877-144.211-252.736-218.408c0,110.991,0,220.052,0,334.458
	c-51.641-50.34-99.66-97.148-147.448-143.732c0-182.972,0-364.79,0-550.324c189.097,168.598,375.946,335.191,564.467,503.275
	c0,313.776,0,628.978,0,947.375c-231.666-192.938-460.968-383.906-691.985-576.302c0,174.469,0,346.883,0,520.621
	c83.276,71.933,167.352,144.557,253.893,219.311c0-118.091,0-232.94,0-352.973c56.979,50.025,110.558,97.064,163.823,143.827
	c0,188.101,0,375.884,0,567.275C970.801,1812.383,778.504,1646.26,584.707,1478.84z"/>
</svg>
