<?xml version="1.0" encoding="iso-8859-1"?>
<!-- Generator: Adobe Illustrator 19.0.0, SVG Export Plug-In . SVG Version: 6.00 Build 0)  -->
<svg version="1.1" id="Layer_1" xmlns="http://www.w3.org/2000/svg" xmlns:xlink="http://www.w3.org/1999/xlink" x="0px" y="0px"
	 viewBox="0 0 2000 2000" style="enable-background:new 0 0 2000 2000;" xml:space="preserve">
<path d="M475.672,1023.374c160.452,20.486,308.697-8.705,425.692-126.735c115.948-116.973,153.589-262.107,126.093-423.905
	c226.049-9.305,519.91,182.852,526.962,530.938c6.408,316.303-251.04,565.839-565.585,549.979
	C652.403,1536.687,469.424,1253.845,475.672,1023.374z M951.072,563.829c0.913-205.98-154.445-380.794-378.309-381.525
	c-219.802-0.718-376.958,172.04-379.735,380.722c-2.739,205.838,170.474,379.088,376.753,379.28
	C769.751,943.787,950.079,787.895,951.072,563.829z M1948.22,977.988c66.073-160.711,15.942-348.048-121.842-455.314
	c-128.968-100.402-310.326-106.429-436.234-13.19c218.579,189.02,293.142,422.109,211.716,701.518
	C1735.225,1226.821,1888.529,1123.176,1948.22,977.988z M520.457,1826.641c99.295,135.577,282.466,192.172,440.079,135.974
	c150.071-53.509,253.36-197.356,246.729-350.25c-127.422,36.183-254.872,41.637-381.657,1.607
	c-129.129-40.771-230.279-121.388-314.444-225.807C418.7,1511.094,423.406,1694.128,520.457,1826.641z M1978.123,1112.794
	c-23.693,23.316-46.314,48.099-71.602,69.771c-26.391,22.618-55.35,42.24-84.568,64.21
	c-103.452,292.693-237.029,426.93-561.694,567.784c-48.428,56.449-91.735,106.929-136.846,159.512
	C1566.231,1938.138,1948.984,1541.008,1978.123,1112.794z M615.773,98.778c43.233,12.483,89.287,21.295,131.481,39.204
	c43.772,18.578,84.397,33.33,132.877,17.565c25.715-8.362,54.63-8.465,82.192-9.307c201.174-6.152,384.903,45.954,547.723,166.358
	c23.284,17.218,46.104,35.065,69.138,52.621c0.791-2.632,1.582-5.264,2.373-7.896c66.568,11.277,133.137,22.554,195.595,33.135
	C1490.235,7.744,964.882-73.792,615.773,98.778z M359.58,1553.145c-174.117-212.735-238.734-462.928-187.332-724.521
	c-26.856-81.608-48.282-146.713-67.949-206.476c-159.22,316.186-95.648,843.343,288.122,1143.907
	C381.936,1698.077,371.423,1629.918,359.58,1553.145z"/>
</svg>
