<?xml version="1.0" encoding="iso-8859-1"?>
<!-- Generator: Adobe Illustrator 19.0.0, SVG Export Plug-In . SVG Version: 6.00 Build 0)  -->
<svg version="1.1" id="Layer_1" xmlns="http://www.w3.org/2000/svg" xmlns:xlink="http://www.w3.org/1999/xlink" x="0px" y="0px"
	 viewBox="0 0 2000 2000" style="enable-background:new 0 0 2000 2000;" xml:space="preserve">
<path d="M1981.785,813.809c-37.269,44.923-73.844,90.446-111.987,134.614c-44.753,51.823-90.869,102.47-133.041,149.858
	c44.435,103.046,94.329,202.362,129.987,306.55c29.308,85.634,46.092,176.366,60.164,266.134
	c10.424,66.496-2.944,132.674-40.827,191.368c-34.413,53.318-86.419,74.683-146.526,79.486
	c-63.12,5.044-122.95-11.015-182.197-31.18c-123.161-41.918-230.065-112.293-332.113-192.373
	c33.026,16.189,66.204,32.078,99.046,48.631c69.607,35.082,142.785,59.652,220.847,61.675
	c145.991,3.782,223.929-74.937,232.282-227.667c7.887-144.198-39.451-278.313-91.141-410.433
	c-3.514-8.982-7.127-17.924-12.317-30.959c-225.398,217.28-469.712,406.698-746.396,562.359
	c91.464,86.503,179.659,169.915,267.854,253.326c-104.533-68.62-195.672-154.003-286.59-239.367
	c-67.246,31.575-131.862,63.525-197.784,92.502c-107.027,47.046-217.68,85.912-333.971,98.381
	c-82.192,8.813-168.001,13.375-240.831-42.26c-65.706-50.192-82.648-119.54-73.308-196.87
	c20.664-171.088,110.328-311.226,205.004-448.811c8.067-11.723,16.354-23.293,24.539-34.934c2.324,1.368,4.649,2.736,6.973,4.104
	c-21.313,42.862-43.647,85.252-63.724,128.685c-40.386,87.372-65.695,177.547-51.575,275.643
	c11.337,78.762,94.555,149.033,181.698,160.14c121.963,15.545,236.019-13.949,349.448-50.756
	c42.578-13.816,83.962-31.314,130.655-48.931c-216.21-227.599-402.809-470.022-558.561-746.317
	c-89.945,95.459-177.99,188.901-266.035,282.344c72.891-112.054,164.548-208.9,254.434-307.175
	C188.193,739.72,116.714,572.516,88.908,389.28c-9.813-64.664-8.151-128.7,12.613-190.702
	c27.179-81.155,92.94-125.46,178.739-127.758c61.163-1.638,118.694,12.228,175.886,31.598
	c115.882,39.248,217.02,104.824,315.965,174.516c3.046,2.146,4.987,5.862,12.062,14.458
	c-51.027-24.117-94.843-47.056-140.377-65.831c-69.865-28.806-142.871-46.416-218.996-40.578
	c-103.963,7.973-176.385,84.404-188.094,192.8c-11.215,103.824,7.309,203.715,38.254,301.893
	c16.903,53.628,36.532,106.396,57.108,165.84c228.44-214.473,469.927-405.121,748.832-559.421
	C987.877,199.252,898.233,115.561,808.588,31.87c1.782-2.054,3.563-4.109,5.345-6.163
	c95.344,81.153,190.688,162.306,288.977,245.967c26.595-12.629,55.971-25.637,84.501-40.289
	c133.022-68.316,272.433-119.004,419.789-144.323c76.376-13.123,153.785-13.014,226.282,23.174
	c67.499,33.693,99.266,88.752,102.818,163.631c4.061,85.618-19.967,164.023-52.789,241.366
	c-44.231,104.227-107.876,196.339-178.738,284.963c4.056-9.194,7.667-18.615,12.237-27.545
	c42.201-82.462,86.772-164.484,98.012-258.132c9.911-82.568,8.1-163.252-63.987-223.796
	c-42.628-35.802-93.223-50.061-146.157-53.519c-120.97-7.903-235.658,22.744-347.959,64.083c-30.388,11.186-60.46,23.23-94,36.161
	c213.817,224.835,401.573,465.916,555.026,738.993c42.326-42.248,85.36-82.739,125.491-125.927
	c43.647-46.972,84.526-96.512,126.898-144.681c2.515-2.859,7.575-3.48,11.451-5.143
	C1981.785,805.062,1981.785,809.435,1981.785,813.809z M1134.774,350.268C842.031,482.352,586.706,665.533,347.872,875.112
	c134.6,289.926,314.337,545.638,526.516,783.656c292.35-134.147,548.624-317.561,785.431-529.354
	C1525.357,842.361,1346.082,588.813,1134.774,350.268z M706.504,715.415c-51.049-0.199-95.623,47.612-95.714,102.665
	c-0.089,53.823,45.74,103.884,94.988,103.759c52.226-0.133,95.007-46.654,95.24-103.567
	C801.251,760.716,759.816,715.623,706.504,715.415z M1259.325,920.737c47.774,1.266,91.524-44.46,92.713-96.901
	c1.321-58.239-39.638-106.674-91.679-108.414c-52.319-1.749-92.651,41.336-94.228,100.659
	C1164.463,878.859,1200.362,919.174,1259.325,920.737z M1083.394,1205.105c-26.827-53.997-98.445-77.359-84.463-150.319
	c26.614-29.587,53.519-59.498,84.942-94.431c-71.354,0-133.59,0-195.428,0c-0.542,3.251-1.239,4.745-0.807,5.225
	c20.312,22.588,40.841,44.982,61.093,67.622c34.494,38.56,33.436,72.915-2.619,111.149c-17.882,18.962-35.101,38.548-56.44,62.061
	c18.378,0,29.141,0,39.904,0c-1.932-2.164-3.865-4.329-5.797-6.493c22.579-19.736,45.158-39.472,68.816-60.152
	c20.327,23.008,38.98,44.122,60.319,68.275C1063.494,1207.022,1073.156,1206.091,1083.394,1205.105z M1423.005,1195.954
	c-75.221-18.472-150.443-36.945-225.664-55.417c-1.232,5.091-2.464,10.182-3.695,15.273c75.577,18.769,151.154,37.538,226.73,56.307
	C1421.252,1206.73,1422.128,1201.342,1423.005,1195.954z M1419.644,978.079c-75.113,19.177-150.225,38.354-225.338,57.53
	c1.261,5.044,2.521,10.087,3.782,15.131c74.827-18.667,149.653-37.334,224.48-56.001
	C1421.594,989.186,1420.619,983.632,1419.644,978.079z M549.567,993.883c73.624,20.824,147.779,39.819,226.929,56.795
	c-3.359-8.337-3.931-13.214-5.727-13.717c-71.615-20.043-143.341-39.689-215.053-59.386
	C553.667,983.01,551.617,988.446,549.567,993.883z M772.318,1141.666c-74.817,16.395-149.536,33.141-222.167,57.379
	c1.248,4.501,2.497,9.002,3.745,13.503c74.054-19.111,148.109-38.222,222.163-57.333
	C774.812,1150.699,773.565,1146.182,772.318,1141.666z"/>
</svg>
