<?xml version="1.0" encoding="iso-8859-1"?>
<!-- Generator: Adobe Illustrator 19.0.0, SVG Export Plug-In . SVG Version: 6.00 Build 0)  -->
<svg version="1.1" id="Layer_1" xmlns="http://www.w3.org/2000/svg" xmlns:xlink="http://www.w3.org/1999/xlink" x="0px" y="0px"
	 viewBox="0 0 500 500" style="enable-background:new 0 0 500 500;" xml:space="preserve">
<path d="M147.713,411.059c20.953,8.999,41.436,17.796,63.754,27.381c1.93-18.49,0.775-35.295,0.984-52.021
	c0.211-16.824,0.046-33.652,0.046-54.427c15.071,21.029,27.722,38.681,39.464,55.064c0,36.727,0,71.831,0,107.026
	c-13.148-1.852-106.89-40.813-144.621-59.977c-0.205-2.437-0.669-5.376-0.67-8.316c-0.039-92.944,0.107-185.888-0.158-278.83
	c-0.05-17.384,6.074-30.795,21.326-39.164c5.134-2.817,11.348-3.664,18.045-5.71c14.41,19.562,28.849,38.965,43.077,58.52
	c29.964,41.183,59.747,82.497,89.81,123.607c3.52,4.814,7.698,9.698,12.662,12.808c19.509,12.22,39.441,23.766,59.269,35.474
	c1.446,0.854,3.311,0.999,6.01,1.766c0-80.59,0-160.555,0-242.773c-9.003-3.983-19.345-8.605-29.725-13.14
	c-10.49-4.583-21.018-9.082-32.795-14.163c-2.795,18.237-1.073,35.595-1.365,52.84c-0.308,18.219-0.069,36.447-0.069,54.672
	c0,17.418,0,34.836,0,56.401c-13.819-19.197-25.271-34.758-36.248-50.646c-2.257-3.267-3.861-7.756-3.871-11.687
	c-0.133-52.231,0.069-104.464,0.234-156.695c0.002-0.503,0.642-1.004,2.049-3.069c47.275,19.854,94.546,40.649,142.894,61.713
	c0,6.046,0,11.41,0,16.774c0,82.617,0.079,165.233-0.127,247.849c-0.019,7.767-1.102,15.711-2.979,23.252
	c-2.604,10.462-9.406,18.074-19.074,23.112c-9.302,4.848-18.207,5.36-27.491-0.429c-29.315-18.276-58.916-36.097-88.103-54.572
	c-5.445-3.447-10.208-8.582-14.063-13.835c-30.129-41.06-59.946-82.349-89.91-123.53c-2.093-2.876-4.586-5.461-8.355-9.907
	C147.713,255.489,147.713,332.292,147.713,411.059z"/>
</svg>
