<?xml version="1.0" encoding="iso-8859-1"?>
<!-- Generator: Adobe Illustrator 19.0.0, SVG Export Plug-In . SVG Version: 6.00 Build 0)  -->
<svg version="1.1" id="Layer_1" xmlns="http://www.w3.org/2000/svg" xmlns:xlink="http://www.w3.org/1999/xlink" x="0px" y="0px"
	 viewBox="0 0 2000 2000" style="enable-background:new 0 0 2000 2000;" xml:space="preserve">
<path d="M1081.198,1842.04c-39.135-13.448-76.027-25.915-112.776-38.789C670.077,1698.736,371.8,1594.025,73.396,1489.677
	c-60.006-20.983-71.891-44.017-51.936-107.917c58.598-187.639,117.555-375.166,176.23-562.781
	c57.043-182.399,113.831-364.879,171.045-547.225c3.589-11.439,9.278-22.366,15.077-32.936
	c17.51-31.915,33.829-36.052,60.178-10.685c37.181,35.795,71.495,74.55,107.553,111.534
	c179.805,184.42,359.908,368.55,539.657,553.024c171.154,175.652,341.785,351.814,513.099,527.31
	c60.777,62.261,59.328,86.17-13.685,129.969c-148.81,89.268-297.93,178.023-447.432,266.125
	C1123.949,1827.429,1101.684,1833.62,1081.198,1842.04z M1027.311,687.033c183.005,186.22,365.936,372.511,549.153,558.522
	c54.956,55.794,109.008,112.724,167.501,164.592c12.393,10.989,46.956,10.243,63.38,0.929
	c49.069-27.827,94.447-62.247,140.806-94.747c41.453-29.06,48.413-51.527,30.925-97.458
	c-129.327-339.659-258.732-679.289-388.22-1018.887c-16.975-44.52-41.014-51.247-75.541-19.468
	c-105.968,97.536-211.468,195.585-316.715,293.901c-65.277,60.977-129.765,122.798-196.314,185.859
	C1012.743,671.479,1019.845,679.436,1027.311,687.033z"/>
</svg>
