<?xml version="1.0" encoding="iso-8859-1"?>
<!-- Generator: Adobe Illustrator 19.0.0, SVG Export Plug-In . SVG Version: 6.00 Build 0)  -->
<svg version="1.1" id="Layer_1" xmlns="http://www.w3.org/2000/svg" xmlns:xlink="http://www.w3.org/1999/xlink" x="0px" y="0px"
	 viewBox="0 0 500 500" style="enable-background:new 0 0 500 500;" xml:space="preserve">
<path d="M460.24,133.63c-9.638-3.054-17.439-5.804-25.395-7.989c-15.855-4.354-31.783-6.697-48.504-5.55
	c-38.241,2.623-73.923,14.471-108.802,28.941c-33.821,14.031-65.22,32.787-94.795,54.302
	c-15.246,11.091-29.244,23.897-43.849,35.875c-3.068,2.516-6.327,4.799-9.48,7.175c-2.89-0.993-5.2-1.725-7.467-2.575
	c-11.25-4.218-20.053-1.283-25.815,9.004c-3.408,6.086-5.444,12.608-2.079,19.418c3.404,6.89,1.191,12.162-3.414,17.699
	c-13.653,16.415-27.025,33.089-36.647,52.333c-3.028,6.056-5.587,12.345-8.485,18.468c-1.381,2.917-3.053,5.696-5.201,9.659
	c-1.916-2.999-3.218-4.611-4.062-6.434c-3.103-6.703-6.811-13.249-8.91-20.268c-4.827-16.143-9.229-32.438-13.096-48.838
	c-5.453-23.123-5.309-46.722-3.616-70.203c1.087-15.068,5.459-29.663,9.077-44.357c7.708-31.302,23.577-58.328,43.011-83.37
	c9.089-11.712,19.643-22.36,30.116-32.912c29.88-30.104,67.344-45.905,108.037-53.877c40.382-7.912,81.045-7.063,120.589,5.289
	c31.627,9.88,61.105,24.958,85.389,47.713c19.586,18.352,37.754,38.428,50.037,62.872
	C457.835,127.909,458.606,129.906,460.24,133.63z M100.086,285.081c-2.089,2.281-4.785,4.769-6.932,7.664
	c-4.421,5.962-8.825,11.97-12.733,18.271c-6.332,10.209-12.572,20.5-18.264,31.072c-5.175,9.612-7.436,20.198-7.78,31.104
	c-0.453,14.389,4.217,26.495,15.623,35.915c10.455,8.635,22.934,11.802,35.747,13.488c11.398,1.5,22.813-0.912,34.067-2.787
	c15.487-2.58,30.195-7.792,44.843-13.496c27.413-10.675,53.745-22.965,77.467-40.775c28.825-21.642,56.048-44.554,76.263-75.016
	c10.138-15.277,19.644-30.598,24.953-48.298c3.091-10.306,4.033-20.922,2.267-31.22c-2.722-15.878-12.942-26.268-27.977-31.924
	c-16.207-6.097-33.058-5.415-49.599-3.192c-29.607,3.979-57.177,14.767-83.924,27.79c-20.406,9.936-38.27,23.763-56.706,36.709
	c-5.008,3.516-9.581,7.651-14.051,11.257C141.374,278.049,128.645,290.823,100.086,285.081z M190.888,486.176
	c28.135,7.644,56.711,9.318,85.706,5.95c21.274-2.471,41.899-6.924,61.731-15.261c30.174-12.684,58.126-28.532,80.312-53.218
	c4.562-5.076,9.721-9.626,14.153-14.805c22.588-26.398,38.021-56.741,48.223-89.759c2.88-9.32,4.681-19.059,6.053-28.737
	c1.383-9.757,1.089-19.752,2.471-29.51c2.312-16.316-0.844-32.046-3.241-49.907c-2.171,3.892-3.434,5.94-4.492,8.088
	c-5.583,11.337-11.228,22.645-16.642,34.062c-15.012,31.66-37.151,58.292-60.52,83.78c-22.673,24.728-50.157,44.174-77.103,63.828
	c-29.288,21.361-61.164,38.833-94.884,52.305c-22.085,8.823-44.924,15.76-68.567,23.936
	C173.404,480.181,181.988,483.758,190.888,486.176z"/>
</svg>
