<?xml version="1.0" encoding="iso-8859-1"?>
<!-- Generator: Adobe Illustrator 19.0.0, SVG Export Plug-In . SVG Version: 6.00 Build 0)  -->
<svg version="1.1" id="Layer_1" xmlns="http://www.w3.org/2000/svg" xmlns:xlink="http://www.w3.org/1999/xlink" x="0px" y="0px"
	 viewBox="0 0 500 500" style="enable-background:new 0 0 500 500;" xml:space="preserve">
<path id="XMLID_4_" d="M377.606,307.069c-34.939,0.051-35.014,0.164-62.841-18.457c-26.524-17.75-52.927-35.681-79.25-53.728
	c-7.172-4.917-14.681-7.652-23.451-7.26c-6.879,0.308-13.812,0.407-20.672-0.089c-10.636-0.769-17.003-6.808-17.818-16.062
	c-0.969-11.005,3.375-19.654,14.326-20.519c21.586-1.706,43.366-6.046,63.749,8.848c29.308,21.416,60.367,40.421,90.347,60.939
	c8.076,5.527,16.046,8.692,25.952,8.259c12.774-0.559,25.598-0.194,38.394,0.078c12.205,0.259,20.903,7.931,21.002,18.05
	c0.094,9.63-9.221,18.821-20.191,19.892c-0.977,0.095-1.969,0.048-2.954,0.048C395.336,307.07,386.471,307.069,377.606,307.069z
	 M230.901,306.875c10.73-0.979,19.908-11.067,19.372-20.53c-0.53-9.371-9.181-16.959-20.152-17.31
	c-7.869-0.252-15.827,0.57-23.602-0.326c-5.598-0.645-11.674-2.243-16.312-5.285c-27.48-18.023-54.405-36.892-81.891-54.904
	c-36.531-23.939-21.799-18.412-66.998-19.013c-3.806-0.051-7.815,0.811-11.411,2.121c-9.856,3.592-14.061,10.71-12.708,20.475
	c1.153,8.322,7.766,14.572,17.177,15.384c6.846,0.591,13.81,0.917,20.637,0.35c9.42-0.783,17.003,2.365,24.656,7.586
	c28.818,19.66,58.117,38.615,86.918,58.3c13.769,9.411,27.615,17.22,42.46,13.258C218.114,306.981,224.555,307.454,230.901,306.875z
	 M446.249,248.056c1.221,11.536,9.877,19.003,20.694,18.651c10.552-0.344,16.983-7.117,17.535-19.449
	c0.483-10.783-0.249-21.628,0.416-32.392c1.151-18.638-10.829-25.751-26.21-25.515c-33.869,0.521-67.753,0.063-101.631,0.035
	c-3.432-0.003-6.999-0.37-10.268,0.414c-7.322,1.756-13.958,4.655-16.246,13.034c-3.115,11.41,0.977,24.658,18.362,24.843
	c22.09,0.235,44.185,0.022,66.277,0.007c9.704-0.007,19.409-0.001,30.955-0.001C446.133,235.638,445.598,241.91,446.249,248.056z
	 M54.645,268.891c-5.884,0-11.773-0.173-17.65,0.036c-12.382,0.441-19.194,6.421-19.765,17.069
	c-0.585,10.911,5.29,19.494,16.656,20.46c14.106,1.199,28.471,1.206,42.575-0.009c11.129-0.959,17.39-9.843,16.974-20.269
	c-0.421-10.557-6.985-16.503-19.672-17.259c-6.352-0.378-12.744-0.066-19.118-0.066C54.645,268.865,54.645,268.878,54.645,268.891z"
	/>
</svg>
