<?xml version="1.0" encoding="iso-8859-1"?>
<!-- Generator: Adobe Illustrator 19.0.0, SVG Export Plug-In . SVG Version: 6.00 Build 0)  -->
<svg version="1.1" id="Layer_1" xmlns="http://www.w3.org/2000/svg" xmlns:xlink="http://www.w3.org/1999/xlink" x="0px" y="0px"
	 viewBox="0 0 2000 2000" style="enable-background:new 0 0 2000 2000;" xml:space="preserve">
<path d="M1984.139,1364.787c-23.37-0.336-46.741-0.671-70.111-1.007l1.852,1.724c-0.03-108.588-0.061-217.176-0.092-325.764
	c0,0-1.109,1.028-1.109,1.028c23.153-0.139,46.307-0.279,69.46-0.418C1984.139,1148.497,1984.139,1256.642,1984.139,1364.787z
	 M86.235,1168.632c-0.017-39.658-0.033-79.315-0.049-118.973l1.439,1.259c-23.255-0.245-46.509-0.49-69.764-0.735
	c0,39.326,0,78.651,0,117.977c23.265-0.248,46.53-0.495,69.796-0.743L86.235,1168.632z M439.879,1306.469
	c0-51.869,0-103.737,0-157.255c-17.218-2.434-31.072-4.392-48.94-6.918c0-137.121,0-272.18,0-407.239l1.401,1.293
	c-21.972,0-43.945,0-69.539,0c0,124.085,0,243.745,0,365.443c-18.918,0-33.916,0-48.752,0c-3.525-18.768-6.408-34.117-9.524-50.706
	c-21.823,0-41.206,0-60.59,0l1.46-1.625c0,37.426,0,74.853,0,118.268c61.426,0,120.887,0,183.109,0c0,46.17,0,86.39,0,131.321
	c-38.508,2.436-76.957,4.868-115.406,7.3l0.874-0.838c-1.043,15.37-2.085,30.74-3.189,47.012c42.215,0,78.861,0,115.349,0
	c3.277-16.729,5.961-30.435,8.663-44.226c17.399-1.292,31.915-2.371,46.432-3.449
	C441.226,1304.849,439.879,1306.469,439.879,1306.469z M547.961,449.776c55.32,0,110.641,0,169.25,0
	c3.431-18.264,6.612-35.192,10.374-55.214c161.48,0,323.554,0,487.898,0c1.41,17.176,2.698,32.876,4.537,55.278
	c59.023,0,117.054,0,175.084,0l-1.375,1.341c-3.352-17.331-6.705-34.662-11.208-57.942c-50.699,0-101.993,0-154.49,0
	c-1.758-23.205-3.07-40.516-4.524-59.707c-169.744,0-336.578,0-505.456,0c-1.1,20.505-2.028,37.794-3.24,60.372
	c-54.152,0-105.487,0-158.713,0c-2.489,22.691-4.406,40.17-6.323,57.649C549.774,451.553,547.961,449.776,547.961,449.776z
	 M1444.091,508.778c0,17.813,0,35.625,0,56.292c16.408,2.501,31.663,4.825,50.382,7.678c0,53.026,0,104.714,0,159.187
	c17.144,2.421,30.911,4.366,47.01,6.64c0,59.704,0,117.944,0,181.806c-60.313,0-121.431,0-186.012,0c0,22.095,0,38.737,0,58.216
	c80.633,0,159.862,0,242.693,0c1.576-16.99,3.163-34.1,5.001-53.908c21.071-1.387,40.132-2.641,62.554-4.117
	c2.206-18.297,4.446-36.87,6.893-57.164c18.584-2.003,35.79-3.857,58.482-6.303c-1.188-22.357-2.271-42.736-3.355-63.115l0.98,1.202
	c-19.057,0-38.114,0-57.879,0c-2.164,23.317-3.905,42.07-5.964,64.26c-19.013-0.99-34.517-1.796-54.78-2.851
	c0-42.62,0-81.102,0-118.631c-22.086-3.371-39.155-5.976-60.523-9.238c0-54.313,0-105.876,0-156.561
	c-19.011-2.641-33.172-4.609-47.332-6.576c-2.854-19.448-5.37-36.599-8.115-55.306c-18.992,0-35.23,0-51.467,0L1444.091,508.778z
	 M1857.087,793.916c0,81.14,0,162.281,0,248.764c21.207-1.062,39.954-2,58.702-2.939l-1.109,1.028c0-80.581,0-161.163,0-245.4
	c-20.82,0-39.805,0-58.791,0L1857.087,793.916z M390.938,735.057c14.528,0,29.056,0,48.834,0c0-57.27,0-112.329,0-167.388
	l1.417,1.807c-15.495,0-30.99,0-48.85,0c0,58.925,0,112.899,0,166.874L390.938,735.057z M86.185,1049.659
	c39.736-0.066,79.473-0.132,119.209-0.197c0,0-1.46,1.625-1.46,1.625c0-20.724,0-41.449,0-64.622c-41.23,0-77.743,0-116.31,0
	c0,23.311,0,43.883,0,64.454C87.625,1050.918,86.185,1049.659,86.185,1049.659z M1727.74,793.989
	c43.116-0.024,86.231-0.048,129.347-0.072c0,0-1.198,1.454-1.198,1.454c-1.648-17.446-3.296-34.893-5.172-54.753
	c-39.271,0-75.897,0-114.603,0c-2.677,19.756-5.035,37.165-7.394,54.574L1727.74,793.989z M439.773,567.669
	c18.431,0,36.862,0,59.212,0c0-21.895,0-40.366,0-58.837l1.385,1.362c-18.34,0-36.68,0-55.429,0
	c-1.548,24.469-2.649,41.876-3.751,59.282L439.773,567.669z M1395.103,449.84c-1.209,17.29-2.419,34.58-4.122,58.938
	c19.685,0,36.398,0,53.11,0l-1.432,1.509c0-19.626,0-39.253,0-59.106c-20.792,0-34.861,0-48.93,0L1395.103,449.84z M498.985,508.832
	c15.245,0,30.489,0,48.976,0c0-22.195,0-40.626,0-59.056l1.813,1.777c-15.419,0-30.838,0-49.404,0c0,21.313,0,39.977,0,58.641
	L498.985,508.832z M470.569,1599.415c0-38.879,0-75.096,0-114.002c38.069,0,74.665,0,117.491,0c0,38.636,0,77.011,0,115.386
	c19.208,0,38.415,0,62.96,0c0-41.25,0-78.078,0-115.789c24.374,0,43.103,0,66.718,0c0,39.638,0,76.488,0,116.921
	c22.664,0,40.455,0,58.246,0c0-15.847,0-31.695,0-50.21c42.235,0,81.839,0,124.035,0c0,15.886,0,29.62,0,48.491
	c-42.295,0-84.038,0-125.78,0c0,20.804,0,41.608,0,67.766c62.409-0.818,121.476,2.942,184.735-2.676c0-40.517,0-75.854,0-114.19
	c70.195,0,135.987,0,202.668,0c3.359,18.161,6.184,33.43,9.191,49.687c17.326,0,31.904,0,46.483,0c0-14.526,0-29.051,0-47.728
	c43.187,0,84.541,0,130.055,0c0,13.583,0,28.303,0,46.345c-44.491,0-87.974,0-131.458,0c2.068,22.027,4.137,44.054,6.213,66.164
	c65.419,0,126.62,0,192.983,0c0-39.074,0-75.725,0-114.82c20.569,0,35.943,0,53.03,0c2.52,17.529,4.724,32.858,7.138,49.647
	c20.589,0,38.266,0,55.942,0c2.597-15.555,5.193-31.109,8.11-48.582c39.328,0,77.197,0,117.158,0c0,16.541,0,30.169,0,47.057
	c-43.625,0-85.194,0-126.763,0c3.529,22.084,7.058,44.169,10.541,65.96c60.644,0,118.789,0,182.657,0c0-39.957,0-76.621,0-113.289
	c24.602-2.982,43.48-5.271,63.686-7.72c0-22.726,0-42.259,0-61.792l1.625,1.46c-204.873,0-409.745,0-617.66,0
	c-1.871-22.896-3.413-41.762-5.501-67.315c-18.358-0.831-37.047-1.677-55.736-2.523c0,0,1.317-1.412,1.317-1.412
	c-1.01,21.011-2.02,42.021-3.19,66.355c-125.911,0-250.824,0-378.869,0c-1.636-14.774-3.371-30.44-5.857-52.892
	c-53.72,0-108.2,0-163.007,0c-2.803-22.382-4.774-38.122-7.563-60.393c-18.611,0-35.862,0-53.113,0l1.27-1.371
	c-0.96,14.564-1.919,29.128-2.973,45.118c-9.625,4.537-19.309,9.102-28.397,13.385c-2.115,19.711-4.003,37.301-6.099,56.834
	c-20.563,1.886-39.396,3.614-60.788,5.576c-1.603,61.8-3.654,121.132,0.82,180.192c63.441,0,121.527,0,181.302,0
	c1.917-23.865,3.595-44.752,5.272-65.639C550.849,1599.415,512.236,1599.415,470.569,1599.415z M273.098,1306.35
	c-1.4-20.711-2.801-41.422-4.637-68.587c-44.805,0-89.119,0-133.433,0l1.598-1.42c0.983,20.484,1.965,40.968,3.031,63.186
	c47.347,2.109,90.831,4.046,134.315,5.983L273.098,1306.35z M1857.036,1414.567c-21.719,0-43.437,0-68.803,0
	c0,25.48,0,47.207,0,68.934l-1.625-1.46c21.583-0.482,43.166-0.964,65.694-1.468c1.239-26.552,2.198-47.098,3.158-67.643
	L1857.036,1414.567z M499.055,1365.321c0-17.705,0-35.409,0-58.852c-21.305,0-40.241,0-59.176,0c0,0,1.347-1.619,1.347-1.619
	c1.455,18.958,2.91,37.916,4.536,59.1c19.911,0,37.238,0,54.564,0L499.055,1365.321z M135.028,1237.763c0-21.649,0-43.297,0-69.131
	c-18.369,0-33.581,0-48.793,0c0,0,1.422-1.215,1.422-1.215c-0.994,21.465-1.988,42.93-3.193,68.927c21.167,0,36.665,0,52.162,0
	L135.028,1237.763z M1915.88,1365.505c-18.598,0-37.196,0-58.844,0c0,18.579,0,33.82,0,49.062l-1.577-1.636
	c19.016,0,38.033,0,61.841,0c-1.209-18.167-2.241-33.658-3.272-49.15L1915.88,1365.505z M1551.72,1360.186
	c-2.259-22.713-4.15-41.73-6.116-61.5c-21.771,0-40.535,0-60.142,0c-2.345,22.692-4.426,42.831-6.513,63.03
	c-43.401,0-82.06,0-123.138,0c-2.577-22.116-4.938-42.388-7.321-62.841c-18.211,0-33.688,0-49.221,0c0,39.432,0,75.93,0,112.555
	c144.792,0,286.241,0,429.168,0c0-38.931,0-75.294,0-113.019c-20.424,0-37.552,0-56.338,0c-1.904,21.119-3.612,40.054-5.571,61.775
	C1624.658,1360.186,1588.202,1360.186,1551.72,1360.186z M1039.704,1039.749c-18.797,2.146-37.593,4.293-56.633,6.467
	c0,107.301,0,210.85,0,316.201c21.257,1.209,38.861,2.209,56.464,3.21c0,0-1.443,1.473-1.443,1.473
	c1.799-12.627,5.084-25.246,5.156-37.883c0.468-82.723,0.493-165.452,0.002-248.175c-0.085-14.347-3.31-28.675-5.085-43.012
	L1039.704,1039.749z M1038.164,1038.031c21.971,2.061,43.942,4.121,70.801,6.64c0-87.624,0-168.929,0-250.234l1.312,1.327
	c-21.745,0-43.49,0-70.573,0c0,85.579,0,164.782,0,243.986C1039.704,1039.749,1038.164,1038.031,1038.164,1038.031z
	 M1230.235,1179.486c0,16.844,0,30.541,0,45.742c40.756,0,79.056,0,118.419,0c0-39.437,0-75.976,0-115.972
	c-19.176,0.837-34.593,1.51-53.085,2.318c0,22.839,0,41.932,0,65.047C1269.715,1177.755,1250.59,1178.594,1230.235,1179.486z
	 M1784.934,1112.087c-16.194,0-29.775,0-43.936,0c-2.39,22.817-4.497,42.929-6.665,63.617c-23.303,1.604-42.201,2.904-62.138,4.277
	c0,16.662,0,30.267,0,45.946c37.685,0,72.881,0,112.739,0C1784.934,1185.75,1784.934,1149.302,1784.934,1112.087z M1108.966,794.437
	c39.231,0.187,78.462,0.373,117.693,0.56l-1.364,1.353c0-18.841,0-37.683,0-57.187c-40.074,0-76.707,0-115.017,0
	c0,20.977,0,38.789,0,56.601L1108.966,794.437z M1226.659,794.997c0.859,19.054,1.718,38.107,2.742,60.814
	c22.899,2.655,44.665,5.178,66.431,7.701l-1.581,1.594c0-22.073,0-44.146,0-68.757c-24.895,0-46.926,0-68.956,0L1226.659,794.997z
	 M1039.535,1365.628c1.279,15.226,2.558,30.452,4.265,50.772c24.093-1.495,45.473-2.822,66.853-4.148l-1.317,1.412
	c-0.788-15.428-1.576-30.856-2.57-50.322c-25.034,1.37-46.854,2.565-68.675,3.759
	C1038.092,1367.101,1039.535,1365.628,1039.535,1365.628z M1295.832,863.512c0,18.786,0,37.571,0,58.952
	c20.237-1.065,34.029-1.79,48.721-2.563c0-19.808,0-36.503,0-54.795c-18.727,0-34.515,0-50.302,0L1295.832,863.512z
	 M1551.531,1225.611c17.247,0,30.97,0,46.866,0c0-15.829,0-29.399,0-45.247c-15.659,0-29.414,0-50.115,0
	C1549.533,1197.779,1550.502,1211.279,1551.531,1225.611z"/>
</svg>
