<?xml version="1.0" encoding="utf-8"?>
<!-- Generator: Adobe Illustrator 25.1.0, SVG Export Plug-In . SVG Version: 6.00 Build 0)  -->
<svg version="1.1" id="OAG" xmlns="http://www.w3.org/2000/svg" xmlns:xlink="http://www.w3.org/1999/xlink" x="0px" y="0px"
	 viewBox="0 0 500 500" style="enable-background:new 0 0 500 500;" xml:space="preserve">
<path d="M387,318.8l-11.1-145.4c26.2-12.7,44.3-39.6,44.3-70.7c0-43.4-35.1-78.5-78.5-78.5c-32.6,0-60.5,19.8-72.4,48.1l-105-15.6
	c-7.3-29.3-33.7-51-65.3-51C61.8,5.7,31.7,35.9,31.7,73c0,33,23.8,60.4,55.1,66.2l5.6,103c-30.9,12.9-52.6,43.4-52.6,79
	c0,47.3,38.3,85.6,85.6,85.6c29.8,0,56-15.2,71.3-38.3l94.9,30.1c-0.3,2.7-0.4,5.5-0.4,8.3c0,48.8,39.6,88.4,88.4,88.4
	s88.4-39.6,88.4-88.4C468,360.6,432.4,322.6,387,318.8z M341.7,63c21.9,0,39.7,17.8,39.7,39.7c0,21.9-17.8,39.7-39.7,39.7
	S302,124.6,302,102.7C302,80.8,319.8,63,341.7,63z M127.2,373.6c-29.9,0-54.1-24.2-54.1-54.1s24.2-54.1,54.1-54.1
	s54.1,24.2,54.1,54.1S157.1,373.6,127.2,373.6z M171.4,249.2c-13.3-8.5-29.1-13.5-46.1-13.5c-0.5,0-1,0.1-1.5,0.1l-5.3-98.2
	c22.8-6.9,40.4-25.4,46-48.7l98.7,14.6c0.2,15.3,4.7,29.5,12.4,41.5L171.4,249.2z M209.1,339.2c1.2-5.8,1.9-11.8,1.9-18
	c0-18.8-6.1-36.2-16.4-50.3l103.1-103.1c12.5,8.5,27.7,13.4,44,13.4c1,0,2,0,3-0.1l10.7,140.7c-24.3,6.9-44.3,23.9-55.3,46.2
	L209.1,339.2z"/>
</svg>
