<?xml version="1.0" encoding="iso-8859-1"?>
<!-- Generator: Adobe Illustrator 19.0.0, SVG Export Plug-In . SVG Version: 6.00 Build 0)  -->
<svg version="1.1" id="Layer_1" xmlns="http://www.w3.org/2000/svg" xmlns:xlink="http://www.w3.org/1999/xlink" x="0px" y="0px"
	 viewBox="0 0 500 500" enable-background="new 0 0 500 500" xml:space="preserve">
<path d="M20.466,202.431c6.639,6.686,13.292,13.386,20.351,20.496c-8.409,14.704-10.185,30.723-4.236,47.269
	c4.503,12.525,12.533,22.357,23.974,29.272c22.385,13.53,51.123,9.224,68.845-10.273c18.196-20.019,19.669-49.856,3.846-71.588
	c-15.673-21.526-45.692-29.4-72.071-15.388c-6.682-6.656-13.371-13.321-20.062-19.986c17.487-17.482,66.726-25.556,100.882,2.577
	c38.873,32.018,38.245,87.862,10.01,121.143c-30.553,36.013-87.675,35.973-119.617,7.111
	C-4.805,279.457,0.348,225.633,20.466,202.431z M298.117,333.83c22.391,0,44.197,0,66.299,0
	c15.681-20.042,31.404-40.137,47.403-60.585c16.086,20.546,31.912,40.76,47.264,60.369c12.193,0,23.452,0,35.632,0
	c-21.996-28.228-43.467-55.782-64.993-83.407c21.809-27.999,43.242-55.514,65.278-83.804c-12.763,0-24.086,0-35.625,0
	c-15.836,20.237-31.656,40.454-47.825,61.116c-16.028-20.471-31.735-40.533-46.919-59.926c-12.54,0-24.128,0-36.372,0
	c22.055,27.98,43.626,55.347,65.41,82.983c-21.567,27.34-43.016,54.53-64.834,82.189c-4.71-9.317-9.138-18.076-13.548-26.798
	c-10.261,0-20.116,0-31.105,0C289.129,315.857,293.672,324.94,298.117,333.83z M411.849,272.651
	c-5.838-7.54-11.424-14.754-17.092-22.074c5.742-7.447,11.287-14.639,17.344-22.494c5.853,7.59,11.444,14.841,17.068,22.135
	C423.404,257.686,417.857,264.87,411.849,272.651z M246.267,166.197c-28.246,56.507-55.904,111.838-83.765,167.575
	c11.033,0,21.077,0,31.146,0c17.13-34.356,34.184-68.56,51.787-103.865c8.734,16.989,16.723,32.53,24.703,48.051
	c10.555,0,20.771,0,31.886,0C283.285,240.397,265.002,203.749,246.267,166.197z"/>
</svg>
