<?xml version="1.0" encoding="iso-8859-1"?>
<!-- Generator: Adobe Illustrator 19.0.0, SVG Export Plug-In . SVG Version: 6.00 Build 0)  -->
<svg version="1.1" id="Layer_1" xmlns="http://www.w3.org/2000/svg" xmlns:xlink="http://www.w3.org/1999/xlink" x="0px" y="0px"
	 viewBox="0 0 500 500" enable-background="new 0 0 500 500" xml:space="preserve">
<path d="M277.047,272.418c38.588-38.457,76.227-75.875,113.747-113.413c12.716-12.722,12.908-13.052,21.813,2.215
	c10.035,17.205,16.069,36.045,19.157,55.618c6.656,42.189,0.882,82.618-19.878,120.242c-25.997,47.114-65.427,77.314-117.715,89.886
	c-44.284,10.648-87.66,6.27-128.014-14.739c-50.305-26.19-82.663-67.543-94.874-123.35c-12.414-56.734-1.003-109.199,34.668-154.646
	c32.995-42.038,77.189-65.466,131.343-69.044c37.094-2.451,71.72,5.128,104.312,22.747c10.636,5.75,10.973,7.5,2.669,15.805
	c-37.115,37.114-74.13,74.328-111.434,111.251c-4.896,4.846-5.187,7.639-0.13,12.559
	C247.613,242.046,261.981,257.091,277.047,272.418z M26.142,348.18c32.172,67.565,84.771,111.065,157.021,129.906
	c17.504,4.565,36.051,5.679,54.217,6.807c5.006,0.311,11.82-3.945,15.063-8.196c2.272-2.979,1.693-11.03-0.87-14.068
	c-3.207-3.801-9.679-6.499-14.867-6.72c-51.496-2.191-97.452-18.958-134.927-54.382c-54.474-51.494-77.825-114.953-63.425-189.379
	c14.528-75.093,59.404-126.213,130.131-154.66c22.005-8.851,45.169-12.281,68.826-13.473c5.165-0.26,12.048-3.058,14.824-7.015
	c7.322-10.435-0.595-21.967-14.6-21.936c-41.399,0.093-80.364,10.08-115.801,31.516C45.687,92.584,7.845,161.031,4.398,242.014
	C4.964,283.736,11.282,316.971,26.142,348.18z M480.037,207.677c-8.781-0.078-16.118,7.807-15.871,17.056
	c0.235,8.823,7.335,15.511,16.441,15.486c9.022-0.024,15.873-6.924,15.835-15.947C496.402,214.838,489.406,207.761,480.037,207.677z
	 M310.502,466.83c0.387-9.061-6.727-16.911-15.634-17.251c-8.607-0.328-16.853,7.453-16.996,16.039
	c-0.148,8.856,6.427,15.752,15.477,16.233C303.457,482.388,310.085,476.584,310.502,466.83z M480.932,255.949
	c-9.456-0.042-16.677,6.816-16.732,15.89c-0.058,9.692,6.349,16.175,16.148,16.34c9.211,0.155,16.154-6.866,16.119-16.3
	C496.435,262.975,489.621,255.988,480.932,255.949z M367.571,64.324c-0.214,9.199,6.337,16.684,14.91,17.036
	c8.97,0.368,17.006-7.065,17.195-15.903c0.2-9.369-6.738-16.602-16.104-16.787C374.337,48.487,367.791,54.892,367.571,64.324z
	 M420.328,384.315c-8.924-0.138-15.952,6.451-16.283,15.265c-0.357,9.505,6.276,16.905,15.419,17.201
	c9.463,0.306,16.638-6.417,16.839-15.778C436.502,391.77,429.502,384.457,420.328,384.315z M420.676,79.32
	c-9.227-0.324-16.289,6.46-16.605,15.952c-0.306,9.195,5.845,15.802,15.135,16.257c9.816,0.481,16.854-5.763,17.102-15.171
	C436.554,87.051,429.755,79.639,420.676,79.32z M294.482,14c-9.11,0.022-16.877,7.635-16.633,16.303
	c0.256,9.069,7.792,16.265,16.828,16.067c9.465-0.207,16.115-7.198,15.921-16.736C310.418,20.801,303.385,13.978,294.482,14z
	 M325.179,42.134c-0.182,10.26,5.793,16.561,15.616,16.468c9.305-0.088,16.88-7.344,16.869-16.157
	c-0.011-8.498-7.301-15.667-16.046-15.777C331.037,26.534,325.361,31.874,325.179,42.134z M465.642,134.397
	c0.183-9.249-6.934-17.106-15.571-17.189c-9.744-0.094-16.544,6.975-16.479,17.132c0.061,9.426,5.991,15.062,15.935,15.146
	C459.291,149.569,465.455,143.797,465.642,134.397z M367.569,431.441c-0.109,9.894,5.499,15.879,15,16.009
	c10.441,0.142,16.98-6.087,16.971-16.169c-0.008-9.405-6.649-15.665-16.61-15.659C373.535,415.628,367.677,421.661,367.569,431.441z
	 M470.415,303.398c-10.175-0.093-16.216,5.293-16.438,14.655c-0.227,9.544,6.431,17.33,15.177,17.75
	c8.976,0.431,16.651-7.367,16.789-17.059C486.079,309.071,480.432,303.489,470.415,303.398z M449.53,378.715
	c9.249,0.004,15.656-6.298,16.013-15.751c0.369-9.757-6.132-16.425-16.012-16.424c-9.347,0.001-15.846,6.323-15.983,15.549
	C433.406,371.687,440.157,378.71,449.53,378.715z M340.351,469.616c9.327,0.184,17.411-7.213,17.346-15.87
	c-0.063-8.355-8.302-16.363-17.159-16.675c-8.63-0.305-15.134,6.63-15.347,16.364C324.976,463.274,330.74,469.427,340.351,469.616z
	 M453.995,176.91c-0.288,10.266,5.45,16.069,15.931,16.11c9.596,0.038,15.9-5.96,16.078-15.297
	c0.186-9.745-6.264-16.281-16.157-16.373C460.488,161.263,454.263,167.374,453.995,176.91z"/>
</svg>
