<?xml version="1.0" encoding="iso-8859-1"?>
<!-- Generator: Adobe Illustrator 19.0.0, SVG Export Plug-In . SVG Version: 6.00 Build 0)  -->
<svg version="1.1" id="Layer_1" xmlns="http://www.w3.org/2000/svg" xmlns:xlink="http://www.w3.org/1999/xlink" x="0px" y="0px"
	 viewBox="0 0 2000 2000" style="enable-background:new 0 0 2000 2000;" xml:space="preserve">
<path d="M1783.433,215.024c-79.573-32.383-142.324-62.236-207.834-83.646c-122.37-39.993-238.296-9.351-345.293,50.945
	c-153.371,86.428-266.402,209.62-317.638,382.44c-3.923,13.232-7.896,26.554-10.268,40.11c-2.379,13.602-2.78,27.549-4.711,48.556
	c-108.971,71.356-227.229,138.169-288.237,268.602c-38.714-47.927-32.179-100.139-26.624-147.672
	c12.541-107.296,25.004-214.225,63.632-317.776C730.616,230.982,887.887,95.42,1121.66,45.192
	c176.231-37.864,348.907-35.367,511.098,52.932C1684.752,126.431,1738.876,155.588,1783.433,215.024z M623.541,1445.215
	c-150.314-15.015-289.142-65.766-401.229-168.739c-86.171-79.164-145.011-177.33-147.614-300.429
	c-0.593-28.034-3.254-56.021-4.08-84.055c-0.706-23.969-0.146-47.975-0.146-71.965c-54.805,182.314-30.933,353.878,64.834,515.758
	c93.474,158.005,212.722,286.424,392.064,347.509c239.084,81.433,652.637-20.436,738.866-183.299
	c-130.094-6.419-252.721-38.002-368.464-107.949C805.726,1430.308,716.585,1454.509,623.541,1445.215z M1917.553,1129.748
	c-64.695-234.364-355.396-464.815-496.046-463.803c64.749,111.567,100.892,229.656,88.304,353.382
	c296.128,237.35,393.365,691.815,56.613,943.818C1843.614,1853.783,1998.728,1423.814,1917.553,1129.748z M542.904,1391.881
	c27.709,0,54.979,0,83.971,0c80.794-270.376,266.041-411.792,536.193-441.244c19.089-127.93,13.246-221.904-44.692-310.039
	C790.559,636.366,457.107,1076.03,542.904,1391.881z M1009.984,1024.645c-151.852,62.126-209.704,106.524-255.324,195.643
	c165.337,182.069,369.234,260.131,614.414,226.076c116.681-16.207,225.436-53.685,323.456-121.603
	c-5.271-13.683-8.842-23.767-13.04-33.583c-3.224-7.538-7.239-14.738-17.93-36.192
	C1393.195,1320.777,1169.338,1256.75,1009.984,1024.645z M1145.899,1115.349c79.349,79.312,174.868,115.625,282.395,123.101
	c81.175-163.297,59.401-411.117-61.726-588.092c-80.372-117.428-175.451-214.627-302.131-287.525
	c-14.686,19.81-27.569,37.188-43.869,59.174C1204.336,632.945,1277.822,856.974,1145.899,1115.349z"/>
</svg>
