<?xml version="1.0" encoding="iso-8859-1"?>
<!-- Generator: Adobe Illustrator 19.0.0, SVG Export Plug-In . SVG Version: 6.00 Build 0)  -->
<svg version="1.1" id="Layer_1" xmlns="http://www.w3.org/2000/svg" xmlns:xlink="http://www.w3.org/1999/xlink" x="0px" y="0px"
	 viewBox="0 0 2000 2000" style="enable-background:new 0 0 2000 2000;" xml:space="preserve">
<path d="M861.218,831.956c-15.493-20.948-28.012-40.102-42.722-57.393c-80.792-94.973-185.274-125.072-302.624-95.317
	c-109.968,27.883-181.715,101.407-210.185,213.657c-41.893,165.171,61.652,319.521,212.953,357.747
	c169.108,42.725,336.81-62.928,368.005-243.345c6.549-37.877,5.304-77.042,8.998-115.483
	c10.37-107.903,53.597-202.323,121.018-285.989c81.903-101.639,188.028-167.535,314.325-195.863
	c133.406-29.923,263.95-14.252,386.637,48.508c101.896,52.124,181.178,128.741,237.133,228.901
	c6.106,10.929,10.497,22.816,16.819,36.765c-81.222,38.267-160.473,75.605-241.232,113.654
	c-12.62-18.104-23.83-34.942-35.793-51.227c-110.388-150.28-343.778-159.594-465.189-10.523
	c-48.005,58.942-69.32,125.207-69.45,199.213c-0.159,90.697-23.674,174.934-65.649,254.522
	c-53.818,102.044-132.191,179.828-233.531,234.701c-210.022,113.723-477.301,82.158-655.645-84.056
	c-97.509-90.877-157.847-203.234-175.802-334.158C4.863,868.205,53.132,707.39,176.269,576.172
	c119.719-127.576,271.107-187.194,447.689-178.369c145.321,7.263,267.405,65.41,372.245,166.288
	C931.421,643.22,884.075,729.576,861.218,831.956z M1188.699,1098.812c-24.503,100.139-68.458,187.394-135.924,265.139
	c146.755,139.983,319.236,194.379,514.595,157.104c186.025-35.494,320.909-144.229,405.889-316.887
	c-84.022-39.131-163.877-76.322-245.155-114.176C1618.485,1299.779,1333.652,1328.839,1188.699,1098.812z"/>
</svg>
