<?xml version="1.0" encoding="utf-8"?>
<!-- Generator: Adobe Illustrator 25.1.0, SVG Export Plug-In . SVG Version: 6.00 Build 0)  -->
<svg version="1.1" id="Layer_1" xmlns="http://www.w3.org/2000/svg" xmlns:xlink="http://www.w3.org/1999/xlink" x="0px" y="0px"
	 viewBox="0 0 500 500" style="enable-background:new 0 0 500 500;" xml:space="preserve">
<path d="M250.1,494.1C114.1,494.2,4.9,382.9,6,248C7,114.5,116.6,4.4,252.9,5.9C384.5,7.3,495,114.3,494.1,252.3
	C493.2,384.7,385.6,493.9,250.1,494.1z M472,261.7c0.2-135.3-101.7-234.9-224.5-233.8C130.6,28.9,25.8,125.3,28.1,253.4
	c1.1,61.4,24,113.9,68.2,156.4c51.8,49.8,114.7,69.3,185.2,60.2c49.4-6.4,92.4-28.8,127.3-65C450.5,361.7,471.3,309.9,472,261.7z"/>
<path d="M249.9,41.5c115.2-0.2,209.9,94.4,208.7,210.9c-1.2,113.4-94,205.1-206.4,206.1C136,459.6,41.9,365.1,41.7,251.8
	C41.5,135.1,134.4,41.5,249.9,41.5z M113.2,297.3c2.4,8.7,6.2,16.7,11,24.3c22.1,38.3,55.2,61.3,98.5,71c0-13.1,0-25.7,0-38.3
	c-54.3-15.4-81.7-64.6-80.1-108c1.5-39.5,26.5-84.8,80.1-100.6c0-12.5,0-25.1,0-38.2c-9,2-17.6,3.9-25.9,7.4
	c-40.4,16.9-68.7,45.6-83.5,86.8C102,233.4,102,265.4,113.2,297.3z M371.5,328.5c4.8-6.5,7.9-13.5,11.3-21.1
	c1.6-3.6,2.4-5.5,3.6-8.3c3.5-8.1,6.3-19.1,7-24.4c0.7-4.6,1.2-10.5,1.4-15.4c2.8-62-29.3-115.4-85.3-141.5
	c-10.2-4.7-20.8-8.3-31.9-10c0,13.4,0,26.4,0,39.4c29.3,0.3,68.3,40.2,77.2,79c5.4,23.4,3.2,46.3-6.9,68.1
	c-14.3,30.7-38.3,50.4-70.3,59.8c0,13,0,25.5,0,38.1c8.8-1.7,17-3.9,24.9-7C331.4,373.5,354.7,355,371.5,328.5z"/>
</svg>
