<?xml version="1.0" encoding="iso-8859-1"?>
<!-- Generator: Adobe Illustrator 19.0.0, SVG Export Plug-In . SVG Version: 6.00 Build 0)  -->
<svg version="1.1" id="Layer_1" xmlns="http://www.w3.org/2000/svg" xmlns:xlink="http://www.w3.org/1999/xlink" x="0px" y="0px"
	 viewBox="0 0 500 500" enable-background="new 0 0 500 500" xml:space="preserve">
<path d="M495.35,248.791c0.424,134.493-110.116,248.722-251.514,245.531C116.037,491.438,2.419,386.098,5.045,243.514
	C7.424,114.272,114.097,1.569,255.241,4.072C385.799,6.389,494.746,112.801,495.35,248.791z M250.557,53.055
	C142.83,52.853,54.388,140.817,54.175,248.376c-0.214,107.963,87.441,196.406,194.953,196.705
	c108.025,0.301,196.59-87.202,197.021-194.659C446.584,141.898,358.741,53.258,250.557,53.055z M249.611,65.56
	c101.649-0.169,184.103,82.068,184.191,183.708c0.088,101.407-82.468,183.622-184.325,183.563
	C149.326,432.773,66.734,350.41,66.505,250.365C66.272,148.412,148.196,65.728,249.611,65.56z M229.757,128.339
	c-42.723,2.113-108.49,54.283-103.114,128.57c4.027,55.654,59.89,117.162,102.794,112.187c0-9.507,0-19.053,0-28.683
	c-40.982-14.82-68.027-41.529-70.359-85.67c-2.643-50.046,25.758-80.168,70.678-97.298
	C229.757,147.759,229.757,138.522,229.757,128.339z M270.844,340.603c0,9.836,0,19.39,0,28.911
	c48.827,1.828,103.084-62.123,102.994-120.417c-0.09-58.505-54.239-122.284-103.039-120.375c0,9.53,0,19.1,0,28.979
	c42.699,15.968,70.5,44.212,70.551,91.404C341.402,296.324,313.637,324.595,270.844,340.603z"/>
</svg>
