<?xml version="1.0" encoding="iso-8859-1"?>
<!-- Generator: Adobe Illustrator 19.0.0, SVG Export Plug-In . SVG Version: 6.00 Build 0)  -->
<svg version="1.1" id="Layer_1" xmlns="http://www.w3.org/2000/svg" xmlns:xlink="http://www.w3.org/1999/xlink" x="0px" y="0px"
	 viewBox="0 0 500 500" enable-background="new 0 0 500 500" xml:space="preserve">
<path d="M148.284,460.853C66.401,426.168,1.907,343.134,5.113,240.824C8.134,144.4,73.067,70.432,137.062,41.363
	c-58.741,60.458-88.589,130.841-85.852,213.379C53.938,336.99,87.581,405.374,148.284,460.853z M494.078,234.209
	c-2.558-41.386-15.819-79.407-39.306-113.661c-23.267-33.933-53.21-60.229-90.259-78.355
	c56.774,59.358,86.531,129.436,84.077,211.792c-2.463,82.672-36.437,151.136-97.142,206.895
	C440.24,422.597,500.27,334.376,494.078,234.209z M100.762,153.277c12.663-24.267,28.609-45.994,50.018-63.285
	c47.462-38.333,100.048-48.212,156.934-25.15c40.555,16.441,68.854,47.047,89.511,85.079c1.863,3.43,3.914,6.756,5.878,10.131
	c-12.471-45.676-35.876-83.908-75.177-111.167c-46.362-32.157-105.758-33.333-152.672-2.46
	c-41.601,27.377-66.207,67.006-78.97,114.938C97.78,158.67,99.337,156.008,100.762,153.277z M402.47,337.254
	c-2.287,4.217-4.516,8.468-6.872,12.647c-11.163,19.795-24.753,37.614-41.776,52.844c-49.788,44.543-115.831,54.104-173.026,24.264
	c-35.324-18.429-60.658-46.866-79.206-81.725c-1.722-3.237-3.571-6.406-5.361-9.607c11.592,52.541,50.989,105.226,100.726,126.205
	c26.951,11.368,54.979,14.694,83.443,7.057c68.102-18.272,102.651-68.408,124.308-130.473
	C403.961,338.061,403.215,337.657,402.47,337.254z"/>
</svg>
