<?xml version="1.0" encoding="iso-8859-1"?>
<!-- Generator: Adobe Illustrator 19.0.0, SVG Export Plug-In . SVG Version: 6.00 Build 0)  -->
<svg version="1.1" id="Layer_1" xmlns="http://www.w3.org/2000/svg" xmlns:xlink="http://www.w3.org/1999/xlink" x="0px" y="0px"
	 viewBox="0 0 500 500" enable-background="new 0 0 500 500" xml:space="preserve">
<path d="M262.427,283.451c-20.772,4.745-36.184-1.233-44.493-17.077c-7.483-14.269-4.202-32.371,7.836-43.236
	c12.009-10.839,29.993-12.214,43.447-3.11c12.661,8.567,20.384,25.088,12.656,45.073c30.864,30.238,61.818,60.563,92.942,91.055
	c4.759-4.721,9.45-9.35,14.115-14.006c20.853-20.811,41.668-41.661,62.566-62.427c6.504-6.463,11.172-13.849,12.609-23.023
	c1.921-12.257-0.604-23.495-8.999-32.749c-7.465-8.228-15.553-15.895-23.42-23.755c-47.384-47.339-94.773-94.675-142.196-141.976
	c-5.184-5.171-10.186-10.654-15.982-15.058c-16.128-12.255-38.486-10.379-52.856,3.957
	c-34.178,34.097-68.331,68.218-102.503,102.321c-23.101,23.055-46.193,46.119-69.342,69.126
	c-5.167,5.136-9.906,10.556-12.158,17.611c-5.134,16.081-2.114,30.44,9.884,42.487c24.837,24.939,49.807,49.744,74.716,74.611
	c32.782,32.727,65.602,65.418,98.306,98.223c7.875,7.9,17.174,12.578,28.242,13.003c11.183,0.429,21.282-3.051,29.395-10.972
	c12.331-12.041,24.444-24.305,36.651-36.473c9.265-9.235,18.531-18.469,27.801-27.699c0.511-0.509,1.06-0.981,1.801-1.664
	c1.193,0.874,2.339,1.714,3.675,2.694c-0.248,12.014-0.495,23.984-0.739,35.787c-4.635,4.732-9.102,9.408-13.695,13.958
	c-11.546,11.438-23.022,22.951-34.762,34.188c-14.537,13.913-32.151,20.169-52.12,19.123c-16.943-0.887-31.846-7.232-43.994-19.228
	c-21.752-21.481-43.337-43.132-64.99-64.713C100.23,373.035,63.651,336.556,27.05,300.1c-12.221-12.172-19.699-26.733-21.104-43.944
	c-1.803-22.084,5.415-41.021,21.165-56.72c38.733-38.608,77.413-77.269,116.112-115.911c18.677-18.65,37.374-37.28,56.012-55.969
	c9.71-9.736,20.972-16.76,34.495-19.694c22.426-4.866,42.961-0.485,60.288,14.643c11.765,10.271,22.44,21.798,33.519,32.846
	c39.695,39.585,79.354,79.206,119.029,118.811c8.896,8.88,17.855,17.697,26.684,26.643c11.574,11.728,18.426,25.885,19.83,42.245
	c1.853,21.608-4.727,40.536-20.151,56.022c-27.214,27.324-54.54,54.537-81.82,81.795c-0.689,0.688-1.397,1.357-2.19,2.124
	c0,11.123-0.004,22.248,0.001,33.374c0.009,17.984,0.003,35.968,0.049,53.951c0.012,4.8-1.63,8.841-5.209,12.021
	c-5.721,5.082-13.914,3.846-18.081-2.587c-2.867-4.426-2.59-9.284-2.245-14.192c0.231-3.287,0.552-6.579,0.56-9.869
	c0.063-23.976,0.012-47.952,0.128-71.928c0.015-2.984-1.035-5.058-3.16-6.994c-15.078-13.737-30.295-27.331-45.088-41.371
	c-16.918-16.056-33.443-32.527-50.142-48.813C264.606,285.485,263.448,284.417,262.427,283.451z"/>
</svg>
