<?xml version="1.0" encoding="iso-8859-1"?>
<!-- Generator: Adobe Illustrator 19.0.0, SVG Export Plug-In . SVG Version: 6.00 Build 0)  -->
<svg version="1.1" id="Layer_1" xmlns="http://www.w3.org/2000/svg" xmlns:xlink="http://www.w3.org/1999/xlink" x="0px" y="0px"
	 viewBox="0 0 2000 2000" style="enable-background:new 0 0 2000 2000;" xml:space="preserve">
<path d="M1966.836,513.944c-73.204-126.382-178.648-210.528-321.169-243.951c-113.441-26.604-223.205-1.883-330.369,32.945
	c-225.943,73.43-428.309,186.751-592.495,361.879c-124.688,132.997-190.89,292.918-200.548,472.685
	c-8.105,150.866,30.575,290.028,139.756,403.67c112.296,116.885,238.377,212.647,391.534,269.381
	c141.805,52.53,283.071,57.02,423.207-6.788c19.416-8.841,39.46-16.311,59.3-24.196c1.01-0.401,2.851,1.286,8.222,3.925
	c-87.438,74.7-185.791,124.816-294.31,153.592c-334.143,88.605-633.896,4.025-903.693-195.901
	c-83.251-61.691-159.185-140.638-218.727-225.531c-165.333-235.724-148.167-482.637-15.836-727.57
	c72.283-133.789,174.732-243.124,291.169-339.617c224.55-186.087,469.247-337.703,756.517-402.422
	c105.963-23.873,219.84-31.893,327.988-22.565c193.263,16.669,333.079,125.065,418.269,299.294
	c29.281,59.884,50.102,123.906,74.787,186.037C1975.903,510.521,1971.37,512.233,1966.836,513.944z M688.425,1146.007
	c81.661-259.213,257.525-415.935,522.113-470.269c243.822-50.07,425.768,56.029,473.824,284.325
	c44.934,213.463,12.728,418.021-126.124,593.828c-50.122,63.463-114.069,116.007-167.856,169.691
	c120.507-30.757,227.53-100.605,312.344-198.888c212.505-246.253,274.944-538.242,217.235-850.155
	c-44.822-242.259-247.508-373.961-488.245-328.853c-334.06,62.594-589.26,238.226-729.034,557.819
	c-49.845,113.969-67.202,235.02-48.959,360.021C665.256,1224.341,676.154,1184.958,688.425,1146.007z"/>
</svg>
