<?xml version="1.0" encoding="utf-8"?>
<!-- Generator: Adobe Illustrator 24.2.0, SVG Export Plug-In . SVG Version: 6.00 Build 0)  -->
<svg version="1.1" id="OGN" xmlns="http://www.w3.org/2000/svg" xmlns:xlink="http://www.w3.org/1999/xlink" x="0px" y="0px"
	 viewBox="0 0 500 500" style="enable-background:new 0 0 500 500;" xml:space="preserve">
<path d="M368.3,202.8c26-26,50.8-50.8,76.7-76.6c4.3,11.6,9.5,23.1,12.8,35.2c22.5,81.6,18.6,161.2-25.6,234.8
	C386.5,472.3,316.3,503.9,228.8,497c-66.1-5.2-117.6-36.4-155.2-90.8C70,401,67.1,395.6,63,388.7c88.3-88.4,176.3-176.5,266.1-266.3
	c-10.9-6.6-19.7-13.2-29.4-17.6c-72.8-32.2-147,6.7-165.3,86.5c-6.9,30-8.5,60.2-4.6,90.8c0.6,5,1,10,1.8,17.5
	c-24,23.9-48.9,48.6-74.6,74.1c-2.4-3.4-4.1-5.1-4.8-7.1c-36.8-99.1-33.7-195,29.3-282.9c44.9-62.6,110.1-86,185.7-81.2
	c55.9,3.6,103.4,26,140.8,68.1c10.3,11.6,18.8,24.7,28.8,38c-45.4,45.4-89.4,89.5-133.5,133.6c-44.1,44-88.2,88-134.2,133.9
	c10.8,6.9,19.3,13.7,29,18.3c67.9,31.9,141.8-1.7,164.2-74.4c10.3-33.6,12.2-67.9,7.9-102.7C369.4,212,368.8,206.7,368.3,202.8z"/>
</svg>
