<?xml version="1.0" encoding="utf-8"?>
<!-- Generator: Adobe Illustrator 26.2.1, SVG Export Plug-In . SVG Version: 6.00 Build 0)  -->
<svg version="1.1" id="ohm" xmlns="http://www.w3.org/2000/svg" xmlns:xlink="http://www.w3.org/1999/xlink" x="0px" y="0px"
	 viewBox="0 0 500 500" style="enable-background:new 0 0 500 500;" xml:space="preserve">
<path d="M250,0C111.9,0,0,111.9,0,250s111.9,250,250,250s250-111.9,250-250S388.1,0,250,0z M359.9,329.2v31.6h-85.8v-10.9v-30.6
	c31.2-10.1,53.7-38.9,53.7-73c0-42.4-34.9-76.8-77.9-76.8S172,203.9,172,246.3c0,34.1,22.5,62.9,53.7,73v30.6v10.9h-85.8v-31.6h41.3
	c-25.2-19.4-41.3-49.3-41.3-82.8c0-58.6,49.3-106.1,110.1-106.1c60.8,0,110.1,47.5,110.1,106.1c0,33.5-16.1,63.4-41.5,82.8H359.9z"
	/>
</svg>
