<?xml version="1.0" encoding="iso-8859-1"?>
<!-- Generator: Adobe Illustrator 19.0.0, SVG Export Plug-In . SVG Version: 6.00 Build 0)  -->
<svg version="1.1" id="Layer_1" xmlns="http://www.w3.org/2000/svg" xmlns:xlink="http://www.w3.org/1999/xlink" x="0px" y="0px"
	 viewBox="0 0 500 500" enable-background="new 0 0 500 500" xml:space="preserve">
<path d="M495.612,249.365c0.136,134.981-110.373,246.061-245.603,245.633C112.221,494.563,4.715,384.328,4.111,249.66
	C3.503,114.132,114.527,3.436,250.167,3.463C385.2,3.49,495.475,113.971,495.612,249.365z M250.165,442.94
	c106.764-0.085,193.364-86.747,193.356-193.495c-0.008-107.039-86.166-193.518-193.04-193.759
	C143.016,55.445,56.09,142.022,56.258,249.131C56.428,356.735,142.761,443.025,250.165,442.94z M135.667,147.544
	c6.32,1.052,12.725,1.745,18.944,3.221c24.1,5.718,48.18,11.528,72.178,17.655c7.063,1.804,14.129,4.155,20.667,7.337
	c11.889,5.785,15.147,13.674,11.926,26.39c-0.748,2.955-1.71,5.884-2.879,8.699c-9.377,22.578-18.752,45.156-28.274,67.673
	c-10.773,25.475-22.043,31.91-48.789,25.984c-28.947-6.413-57.689-13.778-86.409-21.159c-5.792-1.488-11.461-4.325-16.525-7.572
	c-7.743-4.965-10.312-12.625-8.295-21.604c0.733-3.262,1.765-6.5,3.046-9.588c10.302-24.836,20.716-49.625,31.056-74.445
	C108.484,155.322,118.905,146.976,135.667,147.544z M122.022,249.762c2.644,1.687,4.035,3.125,5.685,3.542
	c15.403,3.901,30.797,7.871,46.313,11.278c5.802,1.274,8.936-0.829,11.497-6.743c6.68-15.424,13.156-30.939,19.466-46.518
	c0.937-2.313,0.542-5.166,0.788-8.063c-3.575-1.453-6.282-2.911-9.172-3.667c-12.719-3.327-25.453-6.616-38.256-9.598
	c-10.108-2.354-12.778-0.808-16.873,8.997c-5.774,13.827-11.498,27.675-17.09,41.575
	C123.285,243.288,122.889,246.292,122.022,249.762z M374.561,353.053c7.751-18.972,15.716-37.148,22.6-55.724
	c5.91-15.949,0.947-26.25-14.58-33.534c-2.519-1.182-5.09-2.253-8.361-3.693c20.981-14.29,42.097-25.522,63.591-39.664
	c-19.776-4.789-37.277-9.027-54.9-13.294c-26.483,16.864-52.761,33.597-80.862,51.492c9.462-22.996,18.003-43.752,26.812-65.16
	c-16.04-3.859-31.085-7.478-46.653-11.223c-18.75,45.098-37.108,89.252-55.756,134.104c16.19,4.064,30.943,7.767,46.351,11.635
	c7.1-16.679,14.096-33.113,21.098-49.563c14.419,3.505,27.82,6.603,41.131,10.048c10.804,2.796,12.397,6.207,8.214,16.509
	c-4.812,11.851-9.726,23.661-15.07,36.639C344.165,345.565,358.917,349.199,374.561,353.053z"/>
</svg>
