<?xml version="1.0" encoding="utf-8"?>
<!-- Generator: Adobe Illustrator 24.2.0, SVG Export Plug-In . SVG Version: 6.00 Build 0)  -->
<svg version="1.1" id="OKB" xmlns="http://www.w3.org/2000/svg" xmlns:xlink="http://www.w3.org/1999/xlink" x="0px" y="0px"
	 viewBox="0 0 500 500" style="enable-background:new 0 0 500 500;" xml:space="preserve">
<style type="text/css">
	.st0{opacity:0.4;}
	.st1{opacity:0.6;}
	.st2{opacity:0.5;}
	.st3{opacity:0.8;}
	.st4{opacity:0.7;}
</style>
<path class="st0" d="M223.1,223.1c17.7,4.3,36.2,4.3,53.8,0c10.1-41,42.1-72.9,83-83c14.8-60.7-22.3-122-83.1-136.8
	c-60.7-14.8-122,22.3-136.8,83.1c-4.3,17.7-4.3,36.1,0,53.8C181,150.1,213,182.1,223.1,223.1L223.1,223.1z"/>
<path class="st1" d="M276.9,276.9c-17.7-4.3-36.2-4.3-53.8,0c-10.1,41-42.1,72.9-83,83c-14.8,60.7,22.3,122,83.1,136.8
	c60.7,14.8,122-22.3,136.8-83.1c4.3-17.7,4.3-36.1,0-53.8C319,349.8,287,317.9,276.9,276.9L276.9,276.9z"/>
<path class="st2" d="M386.9,136.8c-9.1,0-18.1,1.1-26.9,3.2c-10.1,41-42,72.9-83,83c-4.3,17.7-4.3,36.2,0,53.8
	c41,10.1,72.9,42.1,83,83c60.7,14.8,122-22.4,136.8-83.1s-22.4-122-83.1-136.8C404.9,137.9,395.9,136.8,386.9,136.8L386.9,136.8z"/>
<path class="st3" d="M223.1,276.9c4.3-17.7,4.3-36.2,0-53.8c-41-10.1-72.9-42-83-83c-60.7-14.8-122,22.3-136.8,83.1
	s22.3,122,83.1,136.8c17.7,4.3,36.1,4.3,53.8,0C150.1,319,182.1,287,223.1,276.9L223.1,276.9z"/>
<path class="st4" d="M276.9,223.1c41-10.1,72.9-42.1,83-83C319,150.2,287,182.1,276.9,223.1z"/>
<path class="st4" d="M276.9,276.9c10.1,41,42,72.9,83,83C349.9,319,317.9,287,276.9,276.9L276.9,276.9z"/>
<path d="M223.1,223.1c-10.1-41-42.1-72.9-83-83C150.2,181,182.1,213,223.1,223.1z"/>
<path d="M223.1,276.9c-41,10.1-72.9,42.1-83,83C181,349.8,213,317.9,223.1,276.9L223.1,276.9z"/>
</svg>
