<?xml version="1.0" encoding="utf-8"?>
<!-- Generator: Adobe Illustrator 25.1.0, SVG Export Plug-In . SVG Version: 6.00 Build 0)  -->
<svg version="1.1" id="OKB" xmlns="http://www.w3.org/2000/svg" xmlns:xlink="http://www.w3.org/1999/xlink" x="0px" y="0px"
	 viewBox="0 0 500 500" style="enable-background:new 0 0 500 500;" xml:space="preserve">
<path d="M413.7,139.9c-8.8-2-17.8-3.1-26.8-3.1c-9.1,0-18.1,1.1-26.9,3.2c-6.3,25.7-21.2,47.8-41.5,63.2
	c20.2-15.4,35.1-37.5,41.4-63.1c14.8-60.7-22.3-122-83.1-136.8c-60.7-14.8-122,22.3-136.8,83.1c-4.3,17.7-4.3,36,0,53.7
	C79.3,125.4,18.1,162.4,3.3,223.2C-11.5,284,25.6,345.2,86.4,360c17.7,4.3,36,4.3,53.7,0c-14.7,60.7,22.4,121.9,83.1,136.7
	c60.7,14.8,122-22.3,136.8-83.1c4.3-17.7,4.3-36.1,0-53.8c0,0-0.1,0-0.1,0c-10-40.8-42-72.8-83-82.9c-17.7-4.3-36.2-4.3-53.8,0
	c4.3-17.7,4.3-36.2,0-53.8c-41-10.1-72.8-41.9-83-82.9h0c10.1,40.8,42,72.8,83,82.9c-6.4-26-21.6-48.3-42.2-63.7
	c20.7,15.4,35.8,37.7,42.2,63.7c17.7,4.3,36.2,4.3,53.8,0c0,0,0.1,0,0.1,0c-4.3,17.7-4.3,36.1,0,53.7c41,10.1,72.9,42.1,83,83
	c60.7,14.8,122-22.4,136.8-83.1S474.4,154.7,413.7,139.9z M223.1,276.9L223.1,276.9c-26,6.4-48.3,21.6-63.7,42.2
	C174.8,298.5,197.2,283.3,223.1,276.9z"/>
</svg>
