<?xml version="1.0" encoding="utf-8"?>
<!-- Generator: Adobe Illustrator 25.1.0, SVG Export Plug-In . SVG Version: 6.00 Build 0)  -->
<svg version="1.1" id="Layer_1" xmlns="http://www.w3.org/2000/svg" xmlns:xlink="http://www.w3.org/1999/xlink" x="0px" y="0px"
	 viewBox="0 0 500 500" style="enable-background:new 0 0 500 500;" xml:space="preserve">
<path d="M464.7,437.1c-33.5,19.4-67.3,38.9-101.9,58.9c-34.2-19.7-68.3-39.4-102.1-58.9c0-40.2,0-79.2,0-119.7
	c33.3-19.3,67.1-38.8,102-58.9c33.8,19.5,67.9,39.1,102,58.7C464.7,357.3,464.7,396.6,464.7,437.1z"/>
<path d="M36.6,180.5c0-39.9,0-78.9,0-119.6C70,41.5,104,21.9,138.5,2c34.3,19.8,68.1,39.3,101.8,58.7c0,40.1,0,79.2,0,119.9
	c-33.4,19.3-67.5,39-101.8,58.8C104.1,219.6,70.3,200,36.6,180.5z"/>
<path d="M463.1,180c-33.1,19.2-66,38.2-100.2,58c-33.3-19.3-66.7-38.7-100.7-58.4c0-38.7,0-77.3,0-117.9
	c32.8-19,66.5-38.5,100.7-58.3c33.5,19.3,66.7,38.4,100.2,57.8C463.1,100.6,463.1,139.6,463.1,180z"/>
<path d="M139.1,260.2c34.9,20.2,67.4,39,99.7,57.7c0,39.7,0,78,0,118.4c-32.8,18.9-66.4,38.4-100.3,57.9
	c-34.1-19.5-67.6-38.7-101.2-57.9c0-39.5,0-78.1,0-118.5C71.2,298.7,105.6,279.2,139.1,260.2z"/>
</svg>
