<?xml version="1.0" encoding="iso-8859-1"?>
<!-- Generator: Adobe Illustrator 19.0.0, SVG Export Plug-In . SVG Version: 6.00 Build 0)  -->
<svg version="1.1" id="Layer_1" xmlns="http://www.w3.org/2000/svg" xmlns:xlink="http://www.w3.org/1999/xlink" x="0px" y="0px"
	 viewBox="0 0 500 500" style="enable-background:new 0 0 500 500;" xml:space="preserve">
<path id="XMLID_4_" d="M242.264,12.932c0,11.964,0,22.858,0,34.554c-9.717,0-19.12,0-30.023,0
	c4.556,6.473,8.193,11.759,11.952,16.956c10.129,14.009,16.045,29.858,17.919,46.78c4.811,43.445-7.931,80.77-43.115,107.9
	c-64.982,50.107-160.813,19.342-182.499-62.605c-12.842-48.526,10.6-101.047,47.694-124.4
	c19.095-12.021,39.679-19.192,62.471-19.188C164.878,12.937,203.094,12.932,242.264,12.932z M128.093,207.821
	c42.178,1.683,80.055-34.165,80.508-78.848c0.453-44.706-36.052-81.174-80.376-81.239c-43.876-0.065-80.79,36.989-80.548,80.731
	C47.926,173.257,88.069,210.234,128.093,207.821z M373.94,242.719c-64.105,2.062-115.217-54.679-114.741-115.11
	c0.484-61.41,51.796-119.047,122.944-114.588c57.041,3.575,110.443,51.162,107.389,121.605
	C487.083,191.127,438.409,244.69,373.94,242.719z M374.162,207.821c39.983,2.504,80.653-33.757,80.59-80.262
	c-0.058-42.827-36.617-79.748-79.38-79.825c-45.549-0.082-81.889,36.517-81.349,81.823
	C294.578,176.114,335.994,209.952,374.162,207.821z M242.534,374.266c2.258,62.784-50.071,115.17-113.662,115.085
	C64.74,489.266,15.685,441.45,13.258,379.376c-2.76-70.607,50.044-120.114,114.526-120.81
	C191.44,257.878,245.158,309.977,242.534,374.266z M127.578,453.648c43.936,1.402,81.521-34.87,80.987-80.49
	c-0.525-44.858-35.961-80.027-80.725-79.743c-47.144,0.299-80.064,38.496-80.011,81.457
	C47.882,417.874,84.628,453.923,127.578,453.648z"/>
</svg>
