<?xml version="1.0" encoding="iso-8859-1"?>
<!-- Generator: Adobe Illustrator 19.0.0, SVG Export Plug-In . SVG Version: 6.00 Build 0)  -->
<svg version="1.1" id="Layer_1" xmlns="http://www.w3.org/2000/svg" xmlns:xlink="http://www.w3.org/1999/xlink" x="0px" y="0px"
	 viewBox="0 0 500 500" style="enable-background:new 0 0 500 500;" xml:space="preserve">
<path d="M367.301,206.623c-17.137-9.798-32.019-18.892-47.43-26.976c-21.538-11.299-45.181-15.402-69.07-15.348
	c-37.245,0.084-70.153,14.68-101.14,34.152c-25.721,16.162-50.69,33.714-77.37,48.095c-20.577,11.092-43.289,18.222-65.052,27.113
	c-0.413-0.907-0.825-1.815-1.238-2.722c16.321-10.693,32.839-21.098,48.919-32.142c29.064-19.962,57.721-40.518,86.823-60.422
	c24.227-16.57,50.364-29.347,79.332-35.142c26.833-5.367,52.518,0.283,77.167,10.818
	C324.905,165.445,347.685,182.316,367.301,206.623z M218.91,363.787c19.574,6.69,39.874,7.863,59.846,5.349
	c24.31-3.06,46.803-13.225,67.243-26.445c28.165-18.216,55.228-38.126,82.942-57.049c21.05-14.373,42.378-28.339,64.854-43.335
	c-2.805,0.271-4.196,0.21-5.476,0.558c-30.152,8.192-57.893,21.694-84.414,38.01c-27.986,17.218-55.249,35.927-84.469,50.749
	C279.269,352,236.51,353.571,194.56,336.869c-20.536-8.176-39.455-20.416-59.356-30.948
	C157.534,333.049,185.444,352.348,218.91,363.787z M203.903,238.622c5.695-9.7,11.031-18.788,16.551-28.191
	c18.061,0,35.625,0,54.509,0c-4.329-7.104-7.968-13.076-11.365-18.651c-18.232,0-35.386,0-54.304,0
	c-8.768,15.185-17.957,31.097-27.195,47.096c9.541,16.422,18.537,31.908,27.258,46.92c18.442,0,35.595,0,54.162,0
	c3.358-5.545,7.073-11.68,11.479-18.955c-19.191,0-36.827,0-54.8,0C214.624,257.189,209.226,247.841,203.903,238.622z
	 M281.941,247.6c5.45,9.58,10.787,18.96,16,28.123c-5.743,9.901-10.88,18.757-16.274,28.056c-17.942,0-35.736,0-54.48,0
	c3.868,6.838,7.208,12.744,10.53,18.615c18.39,0,36.375,0,54.715,0c9.001-15.461,18.04-30.988,27.229-46.771
	c-9.169-15.832-18.298-31.596-27.22-47.002c-18.648,0-36.603,0-54.8,0c-3.385,6.033-6.696,11.934-10.648,18.978
	C246.48,247.6,264.178,247.6,281.941,247.6z"/>
</svg>
