<?xml version="1.0" encoding="iso-8859-1"?>
<!-- Generator: Adobe Illustrator 19.0.0, SVG Export Plug-In . SVG Version: 6.00 Build 0)  -->
<svg version="1.1" id="Layer_1" xmlns="http://www.w3.org/2000/svg" xmlns:xlink="http://www.w3.org/1999/xlink" x="0px" y="0px"
	 viewBox="0 0 500 500" enable-background="new 0 0 500 500" xml:space="preserve">
<path d="M250.869,6.012c131.835-0.433,243.573,105.976,242.745,244.082c-0.859,143.356-117.875,244.868-247.65,242.735
	C115.166,490.678,4.846,383.508,6.518,246.272C8.162,111.418,118.114,4.724,250.869,6.012z M207.469,59.289
	c2.075,4.714,3.643,7.948,4.943,11.287c6.892,17.696,7.06,34.875-5.079,50.537c-8.021,10.349-16.233,20.61-25.078,30.25
	c-15.524,16.918-31.708,33.228-47.405,49.989c-10.458,11.167-20.284,22.876-27.851,36.296
	c-17.603,31.221-22.742,64.121-12.172,98.658c7.967,26.033,23.025,47.459,44.15,64.831c33.312,27.392,72.184,37.934,114.358,38.161
	c10.438,0.056,20.982-1.794,31.318-3.656c41.755-7.521,76.502-27.037,101.729-61.7c20.393-28.021,28.235-59.56,22.428-93.751
	c-4.551-26.795-17.336-49.959-35.641-69.92c-13.793-15.041-28.146-29.568-42.098-44.466c-8.716-9.306-17.527-18.567-25.592-28.424
	c-6.416-7.84-12.337-16.22-17.425-24.972c-4.804-8.264-7.016-17.465-4.087-27.217c2.548-8.484,4.887-17.032,7.393-25.817
	c-17.624,0.189-31.289,8.083-41.233,23.73C240.376,67.25,226.576,60.077,207.469,59.289z M235.175,150.945
	c25.381,25.676,51.014,51.079,78.217,74.868c15.44,13.502,29.094,28.604,38,47.42c9.128,19.285,8.907,38.509-0.37,57.689
	c-7.892,16.316-20.246,28.373-35.972,36.943c-32.067,17.475-65.731,21.992-101.145,11.982
	c-20.367-5.757-38.524-15.146-52.788-31.115c-12.324-13.797-19.065-29.792-19.029-48.55c0.032-16.447,6.874-30.341,16.01-43.222
	c11.464-16.165,26.224-29.308,40.97-42.356c10.041-8.885,19.798-18.011,29.645-28.212c-5.64-5.577-10.637-10.518-15.87-15.693
	c-13.836,12.978-26.568,25.519-39.962,37.307c-12.399,10.913-23.282,23.132-33.04,36.301
	c-19.655,26.525-26.159,55.811-15.009,87.488c11.097,31.526,34.373,51.635,64.435,64.361c23.078,9.77,47.176,13.415,72.311,11.524
	c30.595-2.302,58.229-11.9,82.124-31.267c35.208-28.537,49.729-77.598,23.938-121.264c-12.751-21.589-29.954-39.27-48.193-56.187
	c-23.914-22.179-49.565-42.644-69.407-69.923c-2.902,3.68-5.283,6.863-7.84,9.897c-2.578,3.06-5.331,5.972-8.332,9.31
	C234.554,149.698,234.71,150.474,235.175,150.945z M173.814,288.505c-4.639,13.032-2.876,25.156,5.348,36.014
	c7.121,9.402,16.156,16.713,27.203,21.311c22.17,9.229,45.027,11.019,68.39,6.002c13.655-2.932,26.484-8.045,36.959-17.625
	c10.912-9.979,19.037-21.864,16.2-37.367c-3.467-18.942-15.611-32.84-29.461-46.228c-3.047,3.337-5.459,6.004-7.901,8.644
	c-2.667,2.882-5.362,5.738-7.767,8.308c4.094,5.018,8.184,9.245,11.36,14.074c9.442,14.358,7.101,27.249-7.077,36.7
	c-22.24,14.826-45.595,15.061-69.171,3.424c-9.902-4.887-16.962-12.496-17.985-23.012c0.594-14.083,9.531-22.529,17.447-31.753
	c-5.794-5.329-11.054-10.168-16.375-15.061C189.814,260.379,178.215,276.141,173.814,288.505z M269.319,298.292
	c-2.596-15.46-5.153-30.692-7.698-45.853c14.006-15.448,15.568-27.698,4.309-37.826c-10.361-9.32-22.872-8.539-32.159,0.718
	c-4.314,4.299-6.428,9.318-6.523,15.571c-0.141,9.278,4.972,15.49,11.397,21.079c-1.474,15.71-6.554,30.617-7.166,46.416
	C244.377,303.901,256.455,304.346,269.319,298.292z"/>
</svg>
