<?xml version="1.0" encoding="iso-8859-1"?>
<!-- Generator: Adobe Illustrator 19.0.0, SVG Export Plug-In . SVG Version: 6.00 Build 0)  -->
<svg version="1.1" id="Layer_1" xmlns="http://www.w3.org/2000/svg" xmlns:xlink="http://www.w3.org/1999/xlink" x="0px" y="0px"
	 viewBox="0 0 500 500" style="enable-background:new 0 0 500 500;" xml:space="preserve">
<path id="XMLID_4_" d="M11.087,23.929c131.131,130.953,261.565,261.21,392.538,392.005c-35.627,35.405-78.666,57.654-128.755,63.994
	C156.715,494.884,56.588,431.462,19.996,318.136c-6.523-20.201-8.881-42.463-9.178-63.829c-1.043-75.028-0.351-150.08-0.289-225.122
	C10.53,27.551,10.867,25.917,11.087,23.929z M492.12,471.554c0.015-75.04,0.292-150.082-0.124-225.119
	c-0.345-62.175-23.113-115.892-67.589-158.674c-72.17-69.421-156.984-83.936-250.23-50.474
	C145.162,47.7,119.887,65.104,98.589,87.525c131.016,130.962,261.184,261.077,392.759,392.598
	C491.703,476.324,492.12,473.939,492.12,471.554z"/>
</svg>
