<?xml version="1.0" encoding="iso-8859-1"?>
<!-- Generator: Adobe Illustrator 19.0.0, SVG Export Plug-In . SVG Version: 6.00 Build 0)  -->
<svg version="1.1" id="Layer_1" xmlns="http://www.w3.org/2000/svg" xmlns:xlink="http://www.w3.org/1999/xlink" x="0px" y="0px"
	 viewBox="0 0 2000 2000" style="enable-background:new 0 0 2000 2000;" xml:space="preserve">
<path d="M1968.091,997.739c-0.013,534.464-438.508,971.664-972.762,969.888c-538.763-1.792-970.769-438.399-970.439-980.775
	C25.213,456.517,463.696,21.729,998.025,21.915C1535.354,22.103,1968.103,457.421,1968.091,997.739z M1805.789,996.645
	c6.134-430.397-343.846-806.827-802.682-809.654c-452.852-2.79-814.364,356.03-815.908,805.129
	c-1.532,445.796,358.682,805.409,803.5,809.345C1437.919,1805.422,1809.143,1441.26,1805.789,996.645z M995.575,1678.879
	c-379.742-0.11-687.26-306.907-686.462-684.852c0.803-379.712,309.753-686.381,690.866-685.766
	c377.321,0.609,684.055,310.337,684.324,688.223C1684.573,1373.165,1370.307,1683.837,995.575,1678.879z M683.928,1233.452
	c60.694,0,122.999,0,198.137,0c37.699-39.137,81.164-84.261,125.593-130.385c79.404,77.806,158.952,155.754,243.75,238.845
	c0-70.912,0-131.232,0-207.767c-43.312-39.761-94.364-86.629-153.848-141.237c78.206-77.767,153.631-152.77,227.484-226.209
	c-58.459,0-120.1,0-186.613,0c-41.772,43.687-85.348,89.259-131.214,137.228c-75.425-73.618-148.868-145.3-226.546-221.115
	c0,67.642,0,128.765,0,202.95c36.949,34.687,80.671,75.732,126.112,118.392C831.511,1081.602,757.935,1157.305,683.928,1233.452z"/>
</svg>
