<?xml version="1.0" encoding="iso-8859-1"?>
<!-- Generator: Adobe Illustrator 19.0.0, SVG Export Plug-In . SVG Version: 6.00 Build 0)  -->
<svg version="1.1" id="Layer_1" xmlns="http://www.w3.org/2000/svg" xmlns:xlink="http://www.w3.org/1999/xlink" x="0px" y="0px"
	 viewBox="0 0 2000 2000" style="enable-background:new 0 0 2000 2000;" xml:space="preserve">
<path d="M560.599,1876.011c-109.383,58.918-226.465,100.276-354.033,103.526C115.599,1981.855,47.635,1930.726,45,1846.44
	c-1.286-41.134,19.517-85.719,39.28-124.133c33.642-65.39,74.359-127.14,110.169-187.177
	C35.005,1262.782-0.414,985.939,87.149,697.23c66.734-220.031,198.117-396.026,390.084-523.963
	C849.551-74.867,1340.065-25.344,1657.477,290.893c333.12,331.887,386.818,860.998,130.23,1254.324
	C1548.99,1911.15,1055.758,2115.039,560.599,1876.011z M427.939,1630.627c3.169,3.797,6.337,7.594,9.506,11.391
	c43.382-24.304,88.972-45.442,129.55-73.764c44.352-30.955,83.569-31.45,129.825-4.517
	c101.462,59.076,212.807,87.413,329.518,78.493c344.626-26.338,597.161-304.355,595.258-650.593
	c-2.266-412.201-387.692-722.573-772.329-621.932c-411.646,107.708-606.699,576.6-393.708,952.515
	c31.71,55.966,42.362,108.065,21.368,167.637C460.414,1536.715,444.255,1583.699,427.939,1630.627z M1184.615,1079.247
	c54.057-50.336,117.548-109.457,182.254-169.708c-83.101-12.856-165.179-25.553-250.648-38.775
	c-38.938-78.68-78.193-158-121.696-245.903c-44.032,90.16-82.651,169.237-120.102,245.922
	c-87.916,13.73-170.652,26.65-253.388,39.571c-2.981,5.869-5.963,11.739-8.944,17.608
	c65.685,58.209,131.369,116.417,189.978,168.356c-16.478,102.036-30.238,187.241-45.744,283.255
	c85.711-45.883,162.8-87.151,238.888-127.883c77.707,41.762,152.15,81.771,238.7,128.286
	C1217.457,1279.584,1203.242,1192.871,1184.615,1079.247z"/>
</svg>
