<?xml version="1.0" encoding="iso-8859-1"?>
<!-- Generator: Adobe Illustrator 19.0.0, SVG Export Plug-In . SVG Version: 6.00 Build 0)  -->
<svg version="1.1" id="Layer_1" xmlns="http://www.w3.org/2000/svg" xmlns:xlink="http://www.w3.org/1999/xlink" x="0px" y="0px"
	 viewBox="0 0 2000 2000" style="enable-background:new 0 0 2000 2000;" xml:space="preserve">
<path d="M1002.35,1976.062C464.296,1977.451,7.732,1537.304,19.565,968.87C30.215,457.271,454.396-7.092,1040.313,11.882
	c505.38,16.366,953.349,435.385,944.024,1001.906C1975.702,1538.365,1547.709,1975.23,1002.35,1976.062z M1002.126,101.173
	C505.694,100.844,121.6,500.5,109.265,966.5c-13.751,519.497,406.539,929.784,909.656,920.049
	c484.02-9.366,864.281-398.683,875.948-869.02C1907.711,499.908,1486.834,98.042,1002.126,101.173z M163.588,993.101
	c-3.104-457.761,376.727-849.396,858.522-838.659c447.387,9.97,808.565,373.558,819.012,820.608
	c11.037,472.315-379.906,876.248-874.139,857.483C539.741,1816.311,162.098,1461.012,163.588,993.101z M1146.256,475.869
	C968.029,821.043,789.72,1166.375,611.059,1512.392c81.854,0,162.087,0,242.922,0c178.39-345.43,356.614-690.54,535.289-1036.523
	C1307.565,475.869,1227.329,475.869,1146.256,475.869z M1101.753,1302.152c-0.196,0-0.391,0-0.587,0
	c0,31.531,0.446,63.07-0.121,94.59c-0.606,33.688,10.169,62.739,34.563,85.837c25.64,24.278,57.521,31.106,91.91,30.569
	c64.656-1.008,129.377,0.041,193.964-2.5c53.061-2.087,97.369-52.122,97.373-105.48c0.005-66.792,0.001-133.585,0.001-200.377
	c0-61.821-49.012-110.783-110.898-110.784c-64.08-0.001-128.161-0.198-192.239,0.185c-11.282,0.067-22.807,1.489-33.778,4.124
	c-43.971,10.562-79.618,53.076-80.113,99.097C1101.452,1232.323,1101.753,1267.239,1101.753,1302.152z M902.406,684.218
	c0.162,0,0.324,0,0.486-0.001c0-32.18-1.066-64.403,0.228-96.53c2.474-61.429-52.885-114.955-113.681-112.708
	c-64.998,2.402-130.169,1.435-195.235,0.27c-56.205-1.006-109.41,48.914-108.983,108.857c0.478,67.117,0.108,134.241,0.11,201.361
	c0.002,57.673,49.571,107.122,107.385,107.124c66.443,0.002,132.886,0.073,199.328-0.09c8.349-0.021,16.799-0.665,25.023-2.07
	c44.583-7.619,84.888-54.559,85.276-99.457C902.651,755.391,902.406,719.804,902.406,684.218z M1210.384,1202.556
	c0,67.215,0,133.771,0,200.085c67.072,0,133.37,0,199.972,0c0-66.842,0-133.073,0-200.085
	C1342.719,1202.556,1276.478,1202.556,1210.384,1202.556z M594.124,784.132c67.221,0,133.475,0,199.73,0
	c0-67.169,0-133.703,0-200.424c-66.726,0-132.732,0-199.73,0C594.124,651.234,594.124,717.68,594.124,784.132z"/>
</svg>
