<?xml version="1.0" encoding="iso-8859-1"?>
<!-- Generator: Adobe Illustrator 19.0.0, SVG Export Plug-In . SVG Version: 6.00 Build 0)  -->
<svg version="1.1" id="Layer_1" xmlns="http://www.w3.org/2000/svg" xmlns:xlink="http://www.w3.org/1999/xlink" x="0px" y="0px"
	 viewBox="0 0 500 500" style="enable-background:new 0 0 500 500;" xml:space="preserve">
<path d="M326.89,153.199c38.103-26.312,57.57-61.56,58.248-108.463c20.444,12.475,36.872,27.199,50.865,44.273
	c60.149,73.386,76.555,156.046,44.082,245.05c-32.377,88.739-98.167,141.972-191.109,157.909
	c-140.822,24.147-271.95-79.316-284.08-221.923C-7.261,127.109,105.764,4.241,249.263,4c30.704-0.052,60.124,5.544,88.907,15.83
	c6.59,2.355,9.168,5.745,8.637,12.751c-3.139,41.437-22.403,73.313-56.894,95.975c-2.994,1.967-8.276,1.7-12.16,0.882
	c-70.278-14.801-136.5,29.259-148.888,99.283c-11.282,63.774,29.982,126.113,93.168,140.752
	c63.258,14.655,127.922-22.539,145.715-85.153c13.541-47.649,1.238-89.29-33.501-124.406
	C332.22,157.865,329.989,156.017,326.89,153.199z"/>
</svg>
