<?xml version="1.0" encoding="iso-8859-1"?>
<!-- Generator: Adobe Illustrator 19.0.0, SVG Export Plug-In . SVG Version: 6.00 Build 0)  -->
<svg version="1.1" id="Layer_1" xmlns="http://www.w3.org/2000/svg" xmlns:xlink="http://www.w3.org/1999/xlink" x="0px" y="0px"
	 viewBox="0 0 2000 2000" style="enable-background:new 0 0 2000 2000;" xml:space="preserve">
<path d="M1867.953,999.019c0,147.356-1.227,294.729,0.886,442.054c0.511,35.595-14.621,57.818-41.426,73.571
	c-226.252,132.956-452.953,265.148-679.563,397.494c-36.119,21.095-72.842,41.182-108.558,62.931
	c-24.572,14.963-46.902,15.277-72.379,0.752c-257.864-147.021-515.915-293.719-774.496-439.474
	c-38.632-21.776-54.968-51.214-54.694-95.202c1.845-296.702,2.955-593.411,2.799-890.117c-0.017-31.692,11.829-50.514,37.553-65.506
	C441.976,331.723,705.734,177.678,969.313,23.328c24.311-14.236,46.296-13.162,70.407,0.459
	c207.823,117.409,416.02,234.155,623.867,351.521c54.707,30.891,108.766,62.946,162.772,95.056
	c29.05,17.272,42.007,43.162,41.864,77.506C1867.596,698.251,1867.953,848.636,1867.953,999.019z M1783.133,851.708
	c-2.021,0.003-4.043,0.007-6.064,0.01c0-88.831-0.562-177.667,0.348-266.489c0.267-26.114-9.244-42.782-32.161-55.747
	c-116.569-65.948-232.137-133.667-348.765-199.509c-114.771-64.794-230.367-128.124-345.655-192.001
	c-28.922-16.025-59.232-18.443-87.884-1.61C729.731,273.375,496.87,411.001,263.886,548.417
	c-26.551,15.66-38.867,38.61-37.965,69.582c2.378,81.682,5.371,163.373,5.932,245.075c1.235,179.67,1.072,359.35,1.606,539.026
	c0.092,31.003,4.114,59.499,35.619,77.175c233.458,130.984,466.582,262.564,699.872,393.849c23.118,13.01,44.895,10.485,67.93-3.286
	c235.787-140.963,471.708-281.706,708.306-421.301c27.558-16.259,38.561-35.646,38.396-67.088
	C1782.651,1204.872,1783.133,1028.289,1783.133,851.708z M341.159,1009.506c-0.001-90.836,4.581-181.983-1.539-272.405
	c-4.412-65.178,23.63-105.424,73.514-136.689c172.44-108.079,345.376-215.368,517.936-323.257
	c46.124-28.838,93.47-28.797,140.038-4.403c167.25,87.613,332.184,179.864,501.562,263.101
	c74.673,36.696,95.763,91.704,95.539,166.088c-0.578,191.764-1.159,383.538,0.476,575.29c0.416,48.8-20.074,82.925-58.41,107.423
	c-148.135,94.666-296.917,188.322-445.505,282.278c-25.237,15.958-50.851,31.32-76.047,47.341
	c-58.142,36.97-115.24,34.418-175.393,1.941c-162.652-87.816-325.684-175.001-490.196-259.254
	c-58-29.704-79.78-77.159-81.242-135.601C339.29,1217.467,341.16,1113.463,341.159,1009.506z M413.862,893.564
	c2.113,0,4.227-0.001,6.34-0.001c0,133.121-0.302,266.243,0.171,399.363c0.156,44.041,17.918,79.501,57.046,102.139
	c37.121,21.477,74.071,43.328,111.962,63.379c111.453,58.977,222.732,118.341,335.337,175.056
	c47.279,23.813,97.843,35.878,147.843,3.417c156.532-101.624,313.038-203.288,469.583-304.892
	c36.715-23.83,54.531-57.23,53.247-101.245c-4.251-145.72-8.211-291.448-12.132-437.177c-0.488-18.15,0.209-36.33-0.118-54.488
	c-1.212-67.265-26.24-118.344-90.087-150.109c-137.857-68.586-273.779-141.053-411.353-210.221
	c-47.172-23.717-97.772-32.072-146.229-2.368C781.77,470.636,628.339,565.31,475.477,660.888
	c-41.284,25.813-67.765,60.654-62.373,114.699C416.992,814.55,413.862,854.213,413.862,893.564z M513.435,1038.329
	c0-64.591,0.921-129.199-0.273-193.767c-1.081-58.519,23.245-104.235,70.258-135.747
	c115.871-77.666,232.956-153.534,350.087-229.299c44.559-28.822,91.848-13.795,135.109,1.493
	c126.237,44.609,248.312,98.202,358.317,176.822c33.521,23.957,49.565,54.043,52.402,92.37
	c8.971,121.185,16.147,242.504,25.242,363.678c6.2,82.605-24.408,146.603-91.844,193.869
	c-97.471,68.317-194.656,137.043-292.263,205.164c-46.975,32.785-95.395,34.175-150.452,16.05
	c-125.013-41.154-241.604-98.522-355.853-163.023c-72.355-40.849-104.641-97.458-100.236-179.274
	c2.655-49.312,0.488-98.883,0.488-148.338C514.091,1038.327,513.763,1038.328,513.435,1038.329z M1413.549,997.48
	c0.933-0.044,1.867-0.089,2.8-0.134c-2.974-60.239-5.13-120.535-9.238-180.697c-2.368-34.672-13.656-66.123-40.964-90.48
	c-84.53-75.399-185.648-120.043-291.45-154.318c-60.346-19.549-119.242-14.829-173.964,24.979
	c-77.722,56.54-157.619,110.116-237.14,164.143c-30.232,20.54-47.269,48.227-52.062,83.754
	c-4.006,29.689-7.009,59.513-10.473,89.274c-11.188,96.132-13.218,192.177,8.206,287.16c3.42,15.164,14.163,31.761,26.468,41.344
	c90.443,70.433,189.525,126.029,299.678,158.761c70.806,21.04,140.601,22.533,204.792-25.862
	c66.169-49.886,135.25-95.89,202.1-144.897c51.282-37.594,77.738-87.347,71.77-153.195
	C1411.078,1064.291,1413.549,1030.774,1413.549,997.48z M1009.526,1309.981c-164.534,9.899-308.63-140.285-306.857-305.375
	c1.449-134.974,147.535-316.217,321.861-307.47c152.516,7.653,297.064,137.526,292.661,317.924
	C1313.215,1177.909,1167.956,1319.631,1009.526,1309.981z M1237.847,1005.75c9.649-119.974-94.026-233.832-227.247-233.705
	c-135.637,0.129-232.324,103.388-233.213,229.798c-0.957,136.096,105.738,233.309,231.103,234.755
	C1137.566,1238.087,1247.222,1125.304,1237.847,1005.75z"/>
</svg>
