<?xml version="1.0" encoding="iso-8859-1"?>
<!-- Generator: Adobe Illustrator 19.0.0, SVG Export Plug-In . SVG Version: 6.00 Build 0)  -->
<svg version="1.1" id="Layer_1" xmlns="http://www.w3.org/2000/svg" xmlns:xlink="http://www.w3.org/1999/xlink" x="0px" y="0px"
	 viewBox="0 0 2000 2000" style="enable-background:new 0 0 2000 2000;" xml:space="preserve">
<path d="M477.005,1228.728c0-155.578-3.119-303.833,1.109-451.878c2.768-96.949,4.021-196.624,27.251-289.767
	c54.302-217.731,217.712-344.679,442.258-357.308c177.166-9.965,339.288,25.479,458.383,171.201
	c70.719,86.531,105.809,186.856,109.265,302.532c-64.507,0-125.304,0-170.227,0c-42.315-72.81-68.638-150.117-120.737-201.065
	C1116.646,297.16,978.948,301.428,849.254,353.56c-119.237,47.929-169.492,155.267-172.201,278.949
	c-4.359,199.061-1.365,398.284-1.476,597.438c-0.005,8.821-0.001,17.643-0.001,37.204
	C608.725,1254.215,546.379,1242.152,477.005,1228.728z M744.4,847.282c251.792-18.911,502.769-18.373,749.907,41.442
	c94.638,22.905,190.629,47.068,263.912,118.277c41.488,40.314,44.363,89.894,2.102,128.752
	c-31.161,28.652-69.428,52.076-108.282,69.427c-164.709,73.554-341.664,93.148-518.596,99.161
	c-145.97,4.961-293.027-1.777-438.699-14.049c-142.364-11.993-283.09-40.442-408.961-114.52
	c-106.918-62.924-105.013-149.467,4.73-208.5c47.193-25.386,97.851-44.329,150.547-67.808c-0.922-19.315-1.918-40.195-3.083-64.607
	c-39.077,9.17-72.774,15.279-105.366,25.065c-95.221,28.592-191.216,56.387-269.337,122.347
	c-65.042,54.917-66.918,118.161-5.368,175.955c15.563,14.614,33.813,26.856,52.211,37.882
	c120.009,71.92,253.491,102.567,389.453,124.449c382.782,61.606,764.32,57.725,1142.931-29.7
	c107.252-24.766,213.614-57.524,297.676-135.094c58.011-53.531,60.116-120.485-3.272-167.098
	c-54.416-40.015-116.107-74.17-179.57-97.119c-223.582-80.853-457.952-101.619-693.442-107.272
	c-116.887-2.806-234.025,4.833-352.871,7.791c0,24.335,0,38.012,0,57.034C726.637,848.258,735.531,847.948,744.4,847.282z
	 M1007.378,1681.508c-235.358,0.85-310.607-136.419-337.734-312.83c-60.313-8.099-121.985-16.381-187.291-25.151
	c-1.445,18.24-4.58,32.406-3.36,46.187c21.415,241.835,164.048,445.855,426.052,480.821
	c164.854,22.001,265.171-22.588,344.697-169.49c7.091-13.099,15.063-25.722,25.624-43.655
	c60.478,77.787,115.794,148.933,170.297,219.034c23.748,0,44.761,0,67.681,0c0-179.115,0-355.526,0-533.513
	c-64.613,8.886-125.267,17.228-187.549,25.794C1293.523,1573.206,1183.465,1680.872,1007.378,1681.508z M886.973,963.536
	c-55.146,56.088-57.439,151.423-5.103,212.185c64.847,75.288,150.616,73.928,251.543-3.199c61.912,0,122.721,0,186.01,0
	c2.492,30.96,4.722,58.662,7.536,93.632c65.938-13.437,126.621-25.803,185.713-37.845c0-87.538,0-167.722,0-250.914
	c-128.773,0-253.119,0-375.829,0C1038.681,894.02,958.042,891.255,886.973,963.536z"/>
</svg>
