<?xml version="1.0" encoding="iso-8859-1"?>
<!-- Generator: Adobe Illustrator 19.0.0, SVG Export Plug-In . SVG Version: 6.00 Build 0)  -->
<svg version="1.1" id="Layer_1" xmlns="http://www.w3.org/2000/svg" xmlns:xlink="http://www.w3.org/1999/xlink" x="0px" y="0px"
	 viewBox="0 0 2000 2000" style="enable-background:new 0 0 2000 2000;" xml:space="preserve">
<path d="M1729.423,1026.53c41.877,146.457,82.546,288.692,124.294,434.7c-269.995,0-536.493,0-802.992,0
	c-1.065-1.553-2.13-3.106-3.195-4.659C1273.229,1314.233,1498.926,1171.895,1729.423,1026.53z M581.134,815.308
	c-3.46-0.464-6.92-0.929-10.38-1.393c-134.81,228.132-269.621,456.264-406.497,687.891
	c148.738,38.734,290.69,75.701,437.383,113.903C594.71,1345.228,587.922,1080.268,581.134,815.308z M1361.761,722.535
	c1.56-1.592,3.12-3.184,4.679-4.775c-132.318-232.936-264.637-465.873-398.032-700.704
	C863.101,126.31,759.883,233.397,653.799,343.457C893.761,471.945,1127.761,597.24,1361.761,722.535z M1386.991,374.13
	c9.119,271.295,18.068,537.53,27.017,803.764c2.541,0.764,5.082,1.527,7.623,2.291c133.176-229.595,266.352-459.19,402.762-694.361
	C1676.059,447.946,1534.61,411.826,1386.991,374.13z M632.285,1271.124c-2.06,2.04-4.121,4.079-6.181,6.119
	c130.119,231.49,260.238,462.98,391.775,696.992c108.026-109.953,211.302-215.072,317.658-323.326
	C1098.746,1523.032,865.516,1397.078,632.285,1271.124z M950.118,540.52c-0.931-1.909-1.862-3.819-2.794-5.728
	c-265.922-4.056-531.844-8.112-800.707-12.214c40.902,147.797,80.543,291.041,121.247,438.123
	C498.428,818.704,724.273,679.612,950.118,540.52z M561.144,805.329c-1.749-1.694-3.498-3.389-5.247-5.083
	c-92.785,57.201-185.571,114.402-281.363,173.456c42.491,36.428,80.14,68.705,121.303,103.995
	C453.058,983.417,507.101,894.373,561.144,805.329z M1376.307,707.162c2.39-1.116,4.78-2.232,7.17-3.349
	c-3.998-108.295-7.997-216.589-12.161-329.379c-53.949,19.51-99.862,36.113-149.72,54.144
	C1274.921,524.6,1325.614,615.881,1376.307,707.162z M649.964,356.666c-9.93,53.951-18.877,102.557-29.11,158.152
	c108.69,0,213.663,0,320.449,0C845.414,462.765,750.12,411.035,649.964,356.666z M1599.195,911.847
	c-55.083,93.702-107.905,183.559-160.727,273.415c1.988,1.69,3.975,3.38,5.963,5.069c90.281-57.672,180.563-115.344,276.135-176.396
	C1677.592,977.788,1639.74,945.951,1599.195,911.847z M614.753,1284.586c-2.656,0.649-5.313,1.298-7.969,1.947
	c3.575,108.33,7.149,216.661,10.855,328.99c52.248-19.026,98.669-35.931,149.246-54.349
	C714.316,1465.6,664.534,1375.093,614.753,1284.586z M1341.189,1635.411c9.933-54.394,18.909-103.544,28.726-157.299
	c-108.336,0-211.297,0-322.448,0C1148.151,1532.032,1242.48,1582.548,1341.189,1635.411z"/>
</svg>
