<?xml version="1.0" encoding="iso-8859-1"?>
<!-- Generator: Adobe Illustrator 19.0.0, SVG Export Plug-In . SVG Version: 6.00 Build 0)  -->
<svg version="1.1" id="Layer_1" xmlns="http://www.w3.org/2000/svg" xmlns:xlink="http://www.w3.org/1999/xlink" x="0px" y="0px"
	 viewBox="0 0 500 500" enable-background="new 0 0 500 500" xml:space="preserve">
<path d="M4.523,249.025c0.354-67.492,24.392-125.576,71.89-173.112C125.248,27.038,185.255,2.799,254.341,4.046
	C389.156,6.478,496.234,117.916,495.04,252.2c-1.164,131.001-110.408,247.916-255.661,242.413
	C109.99,489.712,3.498,381.773,4.523,249.025z M250.431,11.596c-131.2-1.341-243.201,108.67-238.61,246.217
	c4.095,122.675,105.05,231.23,241.182,229.588c130.245-1.571,234.014-107.14,234.671-236.843
	C488.35,116.905,379.336,11.311,250.431,11.596z M348.433,422.003c-1.379-2.124-2.486-3.806-3.569-5.503
	c-0.943-1.478-1.86-2.972-2.778-4.441c-98.254,53.643-204.778,11.388-250.307-63.154c0.953-0.764,1.937-1.553,3.487-2.796
	c30.896,46.415,73.585,74.908,128.341,83.211c43.833,6.646,85.277-2.295,122.93-26.082c37.18-23.488,62.783-56.364,76.664-98.153
	c8.097-24.375,11.585-58.579,7.383-69.857c-3.673,0.227-7.412,0.457-11.751,0.725c0,7.492,0.039,14.655-0.008,21.817
	c-0.105,16.154-3.586,31.737-8.88,46.852c-9.733,27.792-25.831,51.459-47.864,71c-21.127,18.737-45.48,31.238-72.952,37.99
	c-12.371,3.041-24.895,4.338-37.474,4.621c-12.6,0.283-25.219-0.9-37.572-3.747c-3.528-0.813-6.401-1.656-10.022,0.933
	c-4.266,3.05-10.92,0.116-12.973-4.658c-2.038-4.739,0.525-10.506,5.378-12.1c5.455-1.792,10.365,0.807,12.154,6.466
	c0.262,0.828,0.358,1.708,0.506,2.439c47.147,14.225,113.883,3.288,160.175-45.94c45.571-48.462,57.205-116.007,32.819-175.153
	C374.766,120.12,312.892,85.832,256.659,84.576c-0.243,3.903-0.487,7.839-0.769,12.363c44.732,2.666,81.538,20.795,110.277,54.543
	c18.06,21.208,29.308,45.881,33.441,73.424c10.368,69.093-25.82,123.716-63.471,147.718c-0.649-1.091-1.292-2.172-2.169-3.646
	c13.46-10.184,25.597-21.424,35.413-35.847c-3.404-2.51-6.414-4.729-9.989-7.365c-12.514,16.86-27.387,30.755-45.708,40.552
	c-18.224,9.746-37.552,15.613-58.729,15.973c0-1.848,0-3.109,0-4.464c6.467-0.836,12.837-1.66,19.892-2.573
	c-1.077-4.309-1.976-7.907-2.964-11.864c-2.261,0-4.491-0.264-6.641,0.04c-31.544,4.464-59.797-3.717-85.411-22.102
	c-1.646-1.182-3.17-2.544-4.683-3.899c-0.812-0.727-1.478-1.616-2.994-3.305c1.11-0.947,2.062-1.758,3.375-2.879
	c26.056,22.728,56.091,31.758,89.435,27.351c30.908-4.085,55.929-19.487,74.486-44.661c34.04-46.177,26.141-111.871-16.451-148.217
	c-0.981,0.201-2.236,0.604-3.514,0.695c-6.094,0.432-10.783-3.828-10.606-9.548c0.16-5.165,4.64-9.45,9.725-9.3
	c5.41,0.159,9.582,5.583,8.762,11.457c-0.121,0.865-0.498,1.695-0.854,2.86c13.529,11.918,23.709,26.325,31.011,43.628
	c3.879-1.488,7.503-2.878,11.105-4.26c-12.288-38.524-61.456-88.333-133.968-80.513c-5.212,7.906-10.657,10.067-15.701,6.229
	c-4.269-3.248-5.01-9.844-1.559-13.885c4.138-4.847,10.242-3.994,16.358,2.47c37.665-3.733,71.852,5.682,101.233,30.028
	c29.183,24.182,44.919,55.761,48.468,93.187c7.549,5.755,9.17,11.48,4.837,16.383c-3.265,3.694-9.796,3.929-13.418,0.483
	c-4.254-4.047-3.119-10.719,3.095-15.924c0.322-11.484-3.25-22.481-6.614-34.045c-4.37,1.779-8.042,3.274-11.689,4.759
	c22.054,67.921-18.237,135.428-82.763,151.508c0.87,3.799,1.744,7.612,2.705,11.811c10.067-1.785,19.221-5.45,27.909-9.965
	c37.082-19.27,59.742-49.69,68.814-90.363c0.391-1.754,0.318-3.612,0.703-5.368c0.555-2.529,2.156-3.191,5.231-1.761
	c-2.131,19.58-9.362,37.459-19.92,55.023c3.074,2.404,6.16,4.818,9.254,7.238c24.292-31.08,36.046-90.073,10.859-142.38
	c-27.807-57.748-84.313-87.279-139.814-84.162c-72.462,4.07-120.941,55.572-134.55,109.282c0.895,1.152,2.126,2.443,3.018,3.937
	c2.562,4.295,1.168,9.827-3.005,12.441c-4.107,2.572-10.075,1.516-12.741-2.255c-3.008-4.254-2.306-10.854,2.492-12.804
	c5.1-2.073,6.129-5.925,7.482-10.166c8.048-25.226,21.845-46.847,41.172-64.888c17.946-16.751,38.799-28.456,62.468-35.051
	c10.875-3.03,21.913-5.106,33.26-5.184c2.699-0.018,5.396-0.222,8.912-0.376c0.238-4.008,0.471-7.925,0.697-11.744
	c-13.065-3.141-46.806,2.414-70.931,13.935c-35.429,16.92-62.188,42.814-79.385,78.16c-7.812,16.056-12.847,33.058-15.144,50.896
	c-2.299,17.854-1.571,35.608,1.867,53.098c3.479,17.7,9.996,34.516,19.16,50.134c9.088,15.487,20.49,29.186,33.918,41.084
	c13.394,11.868,28.629,20.987,45.502,28.404c-0.823,1.753-1.422,3.029-2.014,4.29C74.934,360.093,39.501,211.18,137.826,120.914
	c-2.607-2.959-5.222-5.926-7.824-8.879c-56.358,45.693-82.368,135.622-45.731,212.969c1.58,0.096,3.37,0.04,5.096,0.342
	c4.798,0.842,8.467,5.726,7.862,10.272c-0.64,4.814-5.401,8.93-9.842,8.509c-5.539-0.525-10.465-5.648-8.678-10.665
	c1.822-5.113-0.225-8.754-1.959-12.736c-6.594-15.14-10.845-31.023-12.953-47.258c-1.822-14.038-2.165-28.248-0.754-42.539
	c2.934-29.714,12.516-57.021,28.17-82.223c9.566-15.401,21.32-29.091,35.058-41.002c18.936-16.418,40.155-28.958,63.965-36.829
	c15.422-5.098,31.204-8.81,47.584-8.95c10.142-0.087,20.317-0.37,30.423,0.283c12.812,0.827,25.292,3.793,37.565,7.628
	c16.636,5.199,32.223,12.578,47.341,22.476c2.41-3.338,4.722-6.541,7.258-10.054c-7.163-5.762-14.981-9.663-22.79-13.524
	c-20.531-10.151-42.211-16.323-64.983-18.937c-20.544-2.358-40.767-1.444-61.153,2.439c-28.609,5.45-54.311,17.007-78.143,33.34
	c-2.358,1.616-2.938,3.337-2.873,6.126c0.093,3.99-2.47,6.812-6.125,8.087c-3.339,1.165-6.696,0.721-9.513-1.804
	c-2.584-2.316-3.6-7.044-2.232-10.605c1.148-2.989,4.437-5.34,7.94-5.203c2.41,0.094,4.797,0.76,7.317,1.192
	c84.101-61.034,189.501-48.436,256.382,10.225c74.153,65.039,85.4,161.943,55.619,231.478c-1.138-0.562-2.255-1.114-4.007-1.979
	c20.021-52.866,19.386-105.312-3.667-156.912c-14.76-33.037-37.303-59.916-67.471-81.376c-2.306,3.448-4.501,6.732-6.956,10.404
	c6.517,5.259,12.942,10.445,19.433,15.684c5.272-1.022,10.554-2.011,13.576,3.996c1.933,3.842,1.154,8.585-1.71,11.237
	c-2.819,2.61-7.301,3.187-10.671,1.374c-4.17-2.244-5.601-5.885-4.739-12.058c-63.175-61.175-168.167-67.075-239.849-7.287
	c2.526,2.984,5.063,5.982,7.853,9.277c52.783-39.842,110.684-50.57,172.168-25.365c61.297,25.128,95.127,73.09,104.998,138.716
	c3.556-0.251,7.298-0.515,11.098-0.783c1.808-2.282,1.1-4.851,0.704-7.17c-5.476-32.016-17.229-61.364-37.75-87.262
	c1.1-1.003,2.051-1.871,2.972-2.711c16.877,13.706,38.06,63.926,40.45,96.077c2.668,35.895-2.135,70.493-18.539,102.979
	c-16.349,32.378-40.106,58.01-71.085,77.343c2.228,3.776,4.244,7.193,6.454,10.938c30.406-18.663,54.058-43.145,71.322-73.808
	c-1.232-4.024-4.135-7.802-1.276-11.692c1.523-2.072,3.693-4.112,6.021-5.055c4.591-1.86,10.329,1.956,11.224,6.896
	c1.216,6.711-2.613,10.914-11.2,12.082c-23.303,40.384-56.08,70.554-99.199,88.986c-37.397,15.986-76.389,20.729-116.339,13.294
	c-48.126-8.957-88.526-32.012-120.379-69.498C61.48,343.963,45.997,300.283,44.11,251.259c-4.093,0-7.811,0-11.496,0
	c-2.825,42.403,16.746,105.152,61.273,149.936c40.606,40.84,89.958,62.558,147.569,65.654c3.021-6.787,5.941-8.797,11.604-7.697
	c4.614,0.896,7.371,4.281,7.357,9.03c-0.013,4.246-3.046,8.104-6.959,8.851c-5.323,1.016-9.074-1.423-11.73-7.628
	c-0.997,2.961-3.519,2.393-5.613,2.171c-12.53-1.329-25.098-2.458-37.378-5.475c-16.403-4.03-32.333-9.491-47.435-17.045
	c-21.519-10.764-40.944-24.539-58.117-41.484c-28.555-28.175-48.096-61.661-58.846-100.2c-3.313-11.879-6.042-23.994-6.446-36.449
	c-0.373-11.496-1.434-23.025-0.901-34.479c0.626-13.469,2.467-26.867,5.705-40.065c8.645-35.237,24.816-66.632,48.49-93.953
	c21.848-25.214,48.208-44.614,78.872-58.093c16.963-7.457,34.514-13.018,52.757-15.831c18.733-2.888,37.573-3.983,56.643-2.076
	c24.401,2.44,47.793,8.147,70.199,18.002c19.908,8.757,38.059,20.25,54.649,34.374c16.994,14.469,31.508,31.052,43.522,49.762
	c9.002,14.019,16.294,28.93,21.948,44.692c5.497,15.324,9.38,31.017,11.348,47.081c1.976,16.125,2.632,32.342,0.882,48.648
	c-1.88,17.512-5.155,34.656-10.869,51.299c-11.924,34.733-31.161,64.815-57.771,90.15c-27.472,26.155-59.679,43.983-96.162,54.005
	c-13.863,3.808-28.05,6.212-42.384,6.806c-0.352-0.498-0.799-0.841-0.801-1.188c-0.008-1.072,0.154-2.146,0.264-3.375
	c65.043-5.988,118.349-33.7,158.28-85.221c34.899-45.028,49.536-96.605,44.271-153.248c-5.633-60.597-32.866-110.369-79.797-148.794
	c-45.511-37.262-98.485-53.602-156.812-47.937C100.19,44.111,29.743,156.078,32.378,245.955c3.695,0,7.412,0,11.721,0
	c2.21-56.409,22.535-105.015,63.322-145.205c1.051,0.95,2.106,1.904,3.605,3.259C65.476,149.794,44.464,204.826,50.51,268.958
	c4.584,48.625,25.298,90.348,60.626,124.182C185.152,464.025,288.534,459.995,348.433,422.003z M431.622,333.175
	c-2.859-0.079-5.825,2.607-5.886,5.331c-0.065,2.871,2.59,5.618,5.516,5.71c3.114,0.098,5.715-2.281,5.804-5.31
	C437.143,335.93,434.609,333.258,431.622,333.175z M108.507,220.037c0.005-3.173-2.863-5.862-6.083-5.703
	c-2.435,0.12-4.941,2.753-5.045,5.301c-0.124,3.021,2.867,6.237,5.718,6.148C105.878,225.696,108.502,222.91,108.507,220.037z
	 M380.707,254.559c2.952,0.232,6.432-2.819,6.451-5.656c0.017-2.604-3.064-5.669-5.761-5.734c-2.71-0.065-5.592,2.891-5.636,5.78
	C375.723,251.447,378.299,254.37,380.707,254.559z M120.998,85.501c-2.37,0.129-5.704,3.583-5.638,5.841
	c0.079,2.681,3.868,5.978,6.473,5.632c2.343-0.311,5.28-3.872,5.146-6.24C126.832,88.142,123.647,85.356,120.998,85.501z
	 M387.885,119.052c-0.093-3.49-2.09-5.476-5.422-5.391c-2.821,0.072-5.639,2.924-5.574,5.64c0.072,2.988,2.62,5.284,5.807,5.233
	C386.297,124.478,387.982,122.697,387.885,119.052z M250.151,474.064c5.353-2.075,6.855-3.71,6.462-6.79
	c-0.306-2.404-2.465-4.625-4.827-4.966c-2.331-0.337-4.458,1.069-5.626,3.939C244.6,470.084,247.075,472.044,250.151,474.064z
	 M87.607,329.253c-3.231,0.166-5.3,2.412-5.224,5.671c0.08,3.458,2.19,5.423,5.531,5.153c3.193-0.258,5.505-2.681,5.367-5.625
	C93.132,331.261,90.763,329.091,87.607,329.253z M318.042,151.619c-3.023,0.109-5.297,2.614-5.172,5.698
	c0.129,3.176,2.452,5.308,5.644,5.178c3.104-0.126,5.385-2.583,5.241-5.644C323.612,153.837,321.071,151.51,318.042,151.619z
	 M193.529,408.047c2.083,2.693,3.41,5.969,7.526,4.672c2.664-0.84,3.996-2.971,4.359-5.523c0.283-1.994-2.337-4.701-4.577-5.249
	C198.028,401.259,196.229,402.686,193.529,408.047z M224.828,113.692c-2.981-0.059-5.678,2.395-5.797,5.273
	c-0.119,2.886,2.378,5.601,5.336,5.802c2.883,0.196,5.696-2.382,5.767-5.288C230.205,116.564,227.622,113.747,224.828,113.692z
	 M270.968,330.759c0,2.459,0,4.92,0,7.382c0,2.476,0,4.952,0,7.555c-3.363,1.728-6.705,0.71-10.197,0.9
	c-2.119-4.317,0.073-9.016-1.523-13.488c-6.271,0-12.517,0-19.503,0c0,4.105,0,8.503,0,13.167c-4.238,0-7.734,0-11.803,0
	c0-5.418,0-10.521,0-15.456c-42.404-15.787-65.109-45.32-61.028-90.512c3.298-36.522,25.643-59.781,60.807-72.038
	c0-2.17,0-4.817,0-7.463c0-2.474,0-4.947,0-7.899c3.938,0,7.618,0,11.892,0c0,4.464,0,8.666,0,13.052c6.775,0,12.968,0,19.965,0
	c0-4.177,0-8.354,0-12.91c4.033,0,7.281,0,11.158,0c0,4.935,0,9.822,0,14.685c39.736,14.33,63.181,41.237,62.153,83.878
	C331.917,291.945,309.053,317.621,270.968,330.759z M270.971,182.938c0,41.781-0.005,83.518,0.013,125.254
	c0.001,2.47,0.188,4.941,0.317,7.41c0.01,0.189,0.224,0.395,0.39,0.541c0.155,0.137,0.371,0.204,0.56,0.302
	c28.812-9.077,53.179-38.995,47.479-79.82C316.467,213.259,290.852,184.387,270.971,182.938z M227.382,182.605
	c-27.917,7.714-49.101,37.498-48.79,67.419c0.325,31.283,22.521,58.9,48.79,66.346C227.382,271.889,227.382,227.528,227.382,182.605
	z M259.115,319.694c1.3-11.831,0.945-136.062-0.356-140.754c-6.179-0.346-12.403-0.848-18.527,0.274
	c-1.118,10.332-0.737,135.428,0.441,140.48C246.668,319.694,252.721,319.694,259.115,319.694z M163.787,367.605
	c2.535-3.733,4.668-6.873,6.933-10.208c-46.608-38.651-65.062-87.073-49.36-146.167c11.693-44.006,47.042-76.762,85.159-89.001
	c0.295,1.444,0.581,2.844,0.905,4.429c-40.023,15.546-67.397,42.952-80.623,83.746c-8.681,26.777-8.017,53.487,1.367,80.872
	c3.908-1.516,7.364-2.857,11.448-4.441c-1.05-4.622-2.099-9.111-3.087-13.613c-2.926-13.336-3.591-26.714-1.469-40.281
	c6.923-44.271,31.34-74.895,72.38-92.103c17.918-7.513,36.75-9.758,56.278-7.184c13.365,1.761,25.882,5.564,37.936,11.312
	c0.567,0.27,1.019,0.781,1.861,1.444c-0.78,1.324-1.518,2.576-2.244,3.808c-49.689-24.901-104.982-10.648-136.853,27.464
	c-32.048,38.324-33.635,94.986-6.067,133.46c1.985,0.139,4.229,0.072,6.378,0.493c4.842,0.949,8.07,5.986,7.057,10.671
	c-1.129,5.221-6.33,8.244-12.08,7.022c-4.258-0.905-7.627-5.909-6.174-10.399c1.074-3.32,0.059-5.46-1.537-8.096
	c-3.023-4.993-5.63-10.238-8.397-15.384c-0.623-1.159-1.198-2.345-1.95-3.823c-3.947,1.486-7.649,2.88-11.863,4.467
	c18.828,43.27,50.925,69.326,96.539,79.506c1.389-1.241,2.647-2.492,4.033-3.579c4.203-3.294,10.199-2.687,13.309,1.284
	c3.062,3.909,2.24,10.171-1.741,13.269c-3.734,2.905-10.578,2.705-12.613-1.539c-2.354-4.91-6.049-5.016-10.243-5.972
	c-13.234-3.018-25.67-8.181-37.335-15.154c-1.921-1.148-3.843-2.295-6.028-3.6c-3.205,2.706-4.963,6.251-7.017,9.562
	c31.845,25.051,90.76,35.898,141.075,12.486c0.158-1.238,0.204-2.775,0.566-4.234c1.515-6.123,7.601-9.259,12.893-7.066
	c4.649,1.927,6.81,7.232,5.639,11.027c-1.49,4.831-7.211,8.546-11.741,6.462c-4.218-1.94-7.358-0.619-10.872,0.827
	c-14.893,6.128-30.352,9.476-46.454,10.571c-32.771,2.228-62.995-5.505-90.701-22.791c-21.205-13.23-38.087-30.872-50.665-52.557
	c-10.413-17.952-17.083-37.257-19.345-57.808c-1.068-9.707-3.085-19.682,0.088-29.475c0.432-0.127,0.838-0.36,1.228-0.335
	c0.646,0.042,1.282,0.249,2.58,0.529C100.858,290.914,120.798,334.284,163.787,367.605z M167.921,320.597
	c0.067-2.886-2.055-5.62-4.548-5.862c-3.146-0.306-6.25,2.455-6.362,5.658c-0.109,3.115,2.25,5.691,5.348,5.84
	C165.26,326.371,167.848,323.75,167.921,320.597z M242.064,379.486c0.223-2.697-2.353-5.444-5.369-5.727
	c-3.453-0.323-5.545,1.377-5.903,4.798c-0.303,2.89,1.887,5.82,4.644,6.216C238.412,385.201,241.816,382.485,242.064,379.486z
	 M319.343,384.933c3.247,0.122,5.7-1.952,5.92-5.005c0.206-2.857-2.307-5.692-5.208-5.874c-2.885-0.181-5.64,2.296-5.799,5.214
	C314.079,382.534,316.125,384.813,319.343,384.933z"/>
</svg>
