<?xml version="1.0" encoding="utf-8"?>
<!-- Generator: Adobe Illustrator 26.2.1, SVG Export Plug-In . SVG Version: 6.00 Build 0)  -->
<svg version="1.1" id="osmo" xmlns="http://www.w3.org/2000/svg" xmlns:xlink="http://www.w3.org/1999/xlink" x="0px" y="0px"
	 viewBox="0 0 500 500" style="enable-background:new 0 0 500 500;" xml:space="preserve">
<path d="M477.8,88.4c-5.1-19.6-21.5-39.2-50.9-61C403.3,10,378.2,0,358.2,0c-4,0-7.6,0.4-11.3,1.1c-9.1,1.8-17.1,8.5-22.2,18.5
	c-6.2,11.8-7.6,27.7-3.6,37.4c1.5,3,3.3,6.7,5.5,10c-2.8,1.7-5.3,3.2-7.7,4.5c-2.9,1.6-5.6,3-7.9,4.3c-23.3-8.8-48.6-13.7-74.8-13.7
	c-118.9,0-215.2,98-215.2,218.9s96.3,219,215.2,219s215.2-98,215.2-218.9c0-44.3-13-85.4-35.2-119.9c1.8-8,4.3-16.5,7.3-25.1
	c5.1,1.5,10.2,2.2,15.3,2.2c13.5,0,25.1-5.5,32.4-15.5C478.2,112.8,481.1,99.5,477.8,88.4z M236.1,487.8
	c-112.3,0-203.2-92.5-203.2-206.7S123.7,74.3,236.1,74.3c27.9,0,54.4,5.7,78.6,16c41.4,18.9,75.8,50.9,98.5,90.9l0.1-1.4
	c16.5,29.9,26,64.4,26,101.2C439.3,395.2,348,487.8,236.1,487.8z M407.3,148.6c-21.8-29.1-50.5-52.4-83.6-67.5
	c0.1-0.1,0.2-0.1,0.3-0.2c0.1,0,0.1,0.1,0.2,0.1c11.6-6.3,28.3-17,47.6-32.6c7.3,3,16.7,8.1,28.4,15.9c13.8,9.2,25.8,19.6,33.4,27.7
	C420.8,109,412.4,132.3,407.3,148.6z M350.6,46.2c1.1-1.1,4-1.8,8.7-1.1c-3.6,3-7.3,5.5-10.9,8.1C348,50.7,348.4,48.1,350.6,46.2z
	 M440.4,101.3c1.1,1.8,1.5,3.7,1.5,4.8c0,3.3-1.1,4.4-1.8,5.2c-1.5,1.1-4.4,1.8-6.9,1.8C435.3,108.7,437.8,105,440.4,101.3z
	 M452.1,124.5c-0.4,0.3-0.9,0.6-1.2,0.8c-6.2,2.5-14.2,3.3-24.1,0.7c0.4-1,0.8-2,1.2-2.9c1.5,0.4,3.3,0.4,5.1,0.4
	c4.4,0,9.5-0.7,13.5-4.1c2.9-2.2,6.2-6.3,5.8-13.7c0-7-5.5-15.9-16.7-26.6c-8-7.8-18.9-16.3-29.8-24c-31.3-21.1-53.1-27-62.9-17
	c-6.5,6.7-5.8,14.8-3.6,20.7c-1.2,0.8-2.4,1.6-3.6,2.4c-2.2-3.2-3.9-6-4.9-8.3c-4.3-10.4,0.7-37.4,18.2-41.1
	c8.7-1.8,20.7-0.7,33.4,3.7c-0.1,0-0.2,0-0.3,0c12.2,4.1,25.4,11,38.6,20.8c26.9,20,42.2,37.7,46.9,55.1
	C470.6,103,465.6,118.3,452.1,124.5z"/>
<path d="M428.7,279.2c-2.1-21.4-39.9-33.7-89.7-38c-37.1-3-74.5,0.7-117.4,14.1c-37.1,11.1-70.5,9.2-94.9,6.3
	c-52.8-6.1-82.4-6.9-83.9,17.6h-0.2c0,108.4,86.8,196.4,193.4,196.4s193.1-88,193.1-196.4H428.7z"/>
</svg>
