<?xml version="1.0" encoding="utf-8"?>
<!-- Generator: Adobe Illustrator 25.1.0, SVG Export Plug-In . SVG Version: 6.00 Build 0)  -->
<svg version="1.1" id="Layer_1" xmlns="http://www.w3.org/2000/svg" xmlns:xlink="http://www.w3.org/1999/xlink" x="0px" y="0px"
	 viewBox="0 0 500 500" style="enable-background:new 0 0 500 500;" xml:space="preserve">
<path d="M234.5,157c17.7-27.6,34.9-54.4,52-81c-15-26.6-6-46,6.2-56.8C307,6.5,326.4,4,343.5,14.8c15.8,10.1,23.3,29.7,18.1,47.1
	c-6.2,20.6-22.9,31.1-49.9,30.8c-13.9,20.7-27.3,42.5-41.6,64.5c53.3,8.2,94.8,33.5,123.1,78.8c19.9,31.9,28.1,67,24,104.2
	c-10,90.9-89.6,154.7-177.5,149c-70.6-4.6-145.1-58.6-155-149.3c-4.9-45.4,7.8-86.7,37.1-122.2C150.9,182.3,188.7,162.3,234.5,157z
	 M331.4,356.9c-29.9,26.2-59.9,16.3-75,0.3c-16.9-18-19.3-45.7-2.1-67.1c7.4-9.3,17.1-15.6,28.9-17.5c17.7-2.9,33.8,1.1,47.8,15
	c-7.4-26.2-43.9-59.4-92.6-52.5c-38.7,5.5-73.7,36.9-75.5,84.3c-1.5,40.3,24.1,78.7,69.9,89.2C273.9,418,317.4,393.8,331.4,356.9z"
	/>
</svg>
