<?xml version="1.0" encoding="iso-8859-1"?>
<!-- Generator: Adobe Illustrator 19.0.0, SVG Export Plug-In . SVG Version: 6.00 Build 0)  -->
<svg version="1.1" id="Layer_1" xmlns="http://www.w3.org/2000/svg" xmlns:xlink="http://www.w3.org/1999/xlink" x="0px" y="0px"
	 viewBox="0 0 500 500" style="enable-background:new 0 0 500 500;" xml:space="preserve">
<path d="M234.543,156.96c17.684-27.552,34.899-54.372,51.974-80.974c-15.013-26.613-6.019-46.034,6.177-56.837
	c14.281-12.648,33.68-15.156,50.769-4.311c15.841,10.053,23.288,29.701,18.064,47.088c-6.198,20.63-22.884,31.127-49.948,30.763
	c-13.946,20.718-27.327,42.453-41.572,64.471c53.345,8.212,94.82,33.544,123.139,78.838c19.931,31.878,28.13,67.016,24.021,104.203
	c-10.043,90.892-89.571,154.725-177.471,148.952c-70.572-4.635-145.105-58.609-154.954-149.309
	c-4.926-45.369,7.83-86.672,37.059-122.175C150.942,182.276,188.686,162.293,234.543,156.96z M331.394,356.88
	c-29.854,26.158-59.934,16.257-75.029,0.258c-16.945-17.959-19.264-45.698-2.149-67.102c7.417-9.276,17.112-15.569,28.914-17.525
	c17.739-2.939,33.765,1.117,47.768,15.013c-7.419-26.207-43.911-59.362-92.603-52.484c-38.678,5.463-73.735,36.873-75.547,84.337
	c-1.537,40.259,24.095,78.728,69.898,89.173C273.944,417.97,317.421,393.764,331.394,356.88z"/>
</svg>
