<?xml version="1.0" encoding="iso-8859-1"?>
<!-- Generator: Adobe Illustrator 19.0.0, SVG Export Plug-In . SVG Version: 6.00 Build 0)  -->
<svg version="1.1" id="Layer_1" xmlns="http://www.w3.org/2000/svg" xmlns:xlink="http://www.w3.org/1999/xlink" x="0px" y="0px"
	 viewBox="0 0 2000 2000" style="enable-background:new 0 0 2000 2000;" xml:space="preserve">
<path d="M1926.465,1305.218c-19.71-19.24-35.004-33.851-49.949-48.81c-88.092-88.177-176.108-176.432-264.142-264.668
	c-85.732-85.928-171.135-172.187-257.316-257.662c-43.011-42.659-84.543-87.25-138.154-117.618
	c-72.154-40.87-149.13-62.545-232.513-60.58c-132.506,3.123-242.671,54.3-330.214,153.484
	c-42.81,48.502-72.057,104.23-90.63,166.735c-23.16,77.942-23.925,156.063-5.526,233.711
	c18.834,79.485,58.921,148.809,117.005,206.93c87.386,87.441,175.021,174.634,262.529,261.954
	c111.268,111.03,222.536,222.061,333.696,333.198c4.527,4.526,7.963,10.143,14.222,18.249
	c-21.583,6.597-40.442,14.275-60.051,17.988c-54.76,10.367-109.348,20.504-165.469,24.002
	c-53.777,3.352-106.951,0.245-160.142-3.225c-34.048-2.221-67.538-12.104-101.454-17.435
	c-47.157-7.412-91.919-22.435-136.622-38.649c-67.694-24.552-131.124-57.244-191.37-96.192
	c-122.306-79.069-221.855-181.46-297.869-304.972c-57.645-93.665-99.221-194.705-121.725-303.596
	c-11.872-57.445-18.805-114.96-21.553-173.128c-2.918-61.761,1.759-123.192,11.06-184.441
	c10.369-68.284,27.439-134.895,52.486-198.86c26.206-66.926,59.132-130.913,99.652-190.756
	c65.902-97.328,145.876-180.899,241.385-249.445c61.769-44.331,127.976-80.536,198.127-110.095
	c60.499-25.491,123.19-43.173,187.241-55.719c36.131-7.077,73.242-9.188,109.929-13.382c50.905-5.819,101.94-5.093,152.669,0.605
	c40.588,4.558,80.771,12.62,121.218,18.556c48.028,7.048,93.435,22.636,138.813,39.275c67.588,24.782,131.054,57.252,191.128,96.596
	c116.789,76.489,212.745,173.595,287.917,291.286c58.143,91.03,100.181,188.809,125.708,293.851
	c28.876,118.824,33.855,238.761,18.72,359.768c-2.545,20.347-5.503,40.756-10.143,60.701
	C1946.849,1228.464,1937.143,1263.721,1926.465,1305.218z M1453.446,1340.896c31.774,31.855,63.77,63.487,95.609,95.277
	c32.404,32.354,64.23,65.307,97.243,97.025c32.512,31.237,61.694,66.193,100.371,96.429
	c35.632-51.487,69.023-99.734,101.745-147.015c-141.719-141.875-280.414-280.722-421.314-421.777
	c-23.6,60.719-46.901,120.671-70.775,182.096C1389.1,1276.008,1421.179,1308.546,1453.446,1340.896z M1239.908,1357.864
	c-58.46,22.827-118.206,46.156-175.525,68.537c139.739,140.114,278.448,279.196,420.294,421.424
	c47.126-32.792,95.776-66.645,143.521-99.869C1497.49,1616.641,1369.233,1487.789,1239.908,1357.864z"/>
</svg>
