<?xml version="1.0" encoding="iso-8859-1"?>
<!-- Generator: Adobe Illustrator 19.0.0, SVG Export Plug-In . SVG Version: 6.00 Build 0)  -->
<svg version="1.1" id="Layer_1" xmlns="http://www.w3.org/2000/svg" xmlns:xlink="http://www.w3.org/1999/xlink" x="0px" y="0px"
	 viewBox="0 0 2000 2000" style="enable-background:new 0 0 2000 2000;" xml:space="preserve">
<g>
	<path d="M158.847,1492.785c0-331.111,0-657.769,0-984.396c279.972-165.704,559.131-330.927,841.587-498.101
		c281.374,168.468,562.073,336.531,849.941,508.888c0,323.83,0,652.223,0,987.207c-278.436,156.698-562.904,316.791-846.63,476.466
		C721.704,1819.257,442.052,1657.052,158.847,1492.785z M561.892,1250.196c150.735,88.306,296.906,173.938,442.253,259.088
		c148.013-86.817,292.311-171.456,432.274-253.551c0-170.846,0-334.75,0-502.718c-149.148-86.662-296.689-172.39-441.915-256.773
		c-147.802,89.361-289.607,175.095-432.612,261.555C561.892,922.125,561.892,1084.08,561.892,1250.196z"/>
</g>
</svg>
