<?xml version="1.0" encoding="utf-8"?>
<!-- Generator: Adobe Illustrator 25.1.0, SVG Export Plug-In . SVG Version: 6.00 Build 0)  -->
<svg version="1.1" id="ovc" xmlns="http://www.w3.org/2000/svg" xmlns:xlink="http://www.w3.org/1999/xlink" x="0px" y="0px"
	 viewBox="0 0 500 500" style="enable-background:new 0 0 500 500;" xml:space="preserve">
<path d="M495.5,257.3c0-0.8,0.1-1.7,0.1-2.5c0-1.6,0.1-3.2,0.1-4.7c0-0.2,0-0.3,0-0.5c0,0,0-0.1,0-0.1c0,0,0-0.1,0-0.1
	c0-130.6-102-237.4-230.7-245c-0.1,0-0.2,0-0.3,0c-2.1-0.1-4.2-0.2-6.3-0.3c-0.4,0-0.7,0-1.1,0c-2.3-0.1-4.7-0.1-7.1-0.1
	C114.5,3.8,4.6,113.8,4.6,249.4c0,2,0,3.9,0.1,5.9c0,0.6,0,1.3,0.1,1.9c0,1.3,0.1,2.6,0.1,3.9c0,0.8,0.1,1.5,0.1,2.3
	c0.1,1.2,0.1,2.3,0.2,3.5c0.1,0.8,0.1,1.6,0.2,2.4c0.1,1.1,0.2,2.3,0.3,3.4c0.1,0.8,0.1,1.6,0.2,2.4c0.1,1.2,0.3,2.4,0.4,3.7
	c0.2,1.5,0.4,3.1,0.6,4.6c0.1,0.9,0.2,1.7,0.4,2.6c0.2,1.1,0.3,2.2,0.5,3.3c0.1,0.7,0.2,1.4,0.3,2.1c0.2,1.2,0.4,2.4,0.6,3.5
	c0.1,0.6,0.2,1.1,0.3,1.7c0.3,1.3,0.5,2.6,0.8,3.9c0.1,0.3,0.1,0.6,0.2,0.9c4.4,20.5,11.4,40,20.5,58.2c0,0,0,0,0,0
	c0.2,0.5,0.5,1,0.7,1.5c0.1,0.2,0.2,0.3,0.2,0.5c0.8,1.6,1.7,3.2,2.5,4.8c0,0.1,0.1,0.2,0.1,0.2c0.9,1.6,1.8,3.2,2.7,4.8
	c0.2,0.3,0.4,0.7,0.6,1c0.7,1.2,1.4,2.4,2.2,3.6c0.3,0.4,0.5,0.9,0.8,1.3c0.9,1.4,1.8,2.9,2.7,4.3c0.2,0.4,0.5,0.7,0.7,1.1
	c0.7,1.1,1.4,2.2,2.1,3.2c0.4,0.6,0.7,1.1,1.1,1.7c0.7,1,1.4,2,2.1,3c0.3,0.4,0.6,0.9,0.9,1.3c0.9,1.3,1.9,2.6,2.8,3.9
	c0.4,0.6,0.8,1.1,1.3,1.7c0.7,0.9,1.3,1.7,2,2.6c0.4,0.5,0.8,1.1,1.2,1.6c1,1.3,2,2.5,3,3.7c0.4,0.4,0.7,0.9,1.1,1.3
	c0.8,0.9,1.5,1.8,2.3,2.7c0.4,0.5,0.8,1,1.2,1.4c1,1.1,2,2.2,3,3.3c0.2,0.2,0.3,0.3,0.5,0.5c1.2,1.3,2.3,2.5,3.5,3.8
	c0.3,0.3,0.6,0.7,0.9,1c1.1,1.1,2.1,2.2,3.2,3.3c0.2,0.2,0.3,0.3,0.5,0.5c1.3,1.3,2.7,2.6,4,3.9c0.1,0.1,0.1,0.1,0.2,0.2
	c1.3,1.3,2.7,2.5,4,3.8c0.1,0.1,0.1,0.1,0.2,0.2c43.6,39.6,101.5,63.8,165,63.8c132.1,0,239.8-104.3,245.3-235.1
	C495.4,259,495.4,258.2,495.5,257.3z M145.4,210.1c0-9.4,0.6-18.6,1.9-27.6c31.2-19.4,68.1-30.7,107.6-30.7
	c40.1,0,77.5,11.6,109,31.5c0.6,6.3,0.9,12.7,0.9,19.2c0,81.6-47.8,151.9-117,184.6C186.6,351.9,145.4,285.8,145.4,210.1z"/>
</svg>
