<?xml version="1.0" encoding="iso-8859-1"?>
<!-- Generator: Adobe Illustrator 19.0.0, SVG Export Plug-In . SVG Version: 6.00 Build 0)  -->
<svg version="1.1" id="Layer_1" xmlns="http://www.w3.org/2000/svg" xmlns:xlink="http://www.w3.org/1999/xlink" x="0px" y="0px"
	 viewBox="0 0 500 500" enable-background="new 0 0 500 500" xml:space="preserve">
<path d="M467.358,138.89c-30.676,0-61.17,0-91.501,0c-62.788-69.051-158.119-73.954-224.898-25.986
	c-62.531,44.915-94.654,135.366-46.426,222.759c-28.227,0-56.16,0-85.727,0C-6.688,260.839-2.535,187.748,40.616,120.087
	C92.994,37.958,169.729-1.481,267.235,4.613C374.685,11.328,443.556,85.005,467.358,138.89z M361.145,467.658
	c128.837-66.787,153.919-209.505,119.287-297.296c-27.512,0-54.988,0-83.097,0c20.033,40.159,24.893,81.428,13.106,124.018
	c-11.794,42.615-37.069,75.848-74.795,98.645c-62.543,37.792-147.986,32.326-206.435-25.885c-31.282,0-62.745,0-94.956,0
	C90.508,474.498,233.859,533.641,361.145,467.658z"/>
</svg>
