<?xml version="1.0" encoding="iso-8859-1"?>
<!-- Generator: Adobe Illustrator 19.0.0, SVG Export Plug-In . SVG Version: 6.00 Build 0)  -->
<svg version="1.1" id="Layer_1" xmlns="http://www.w3.org/2000/svg" xmlns:xlink="http://www.w3.org/1999/xlink" x="0px" y="0px"
	 viewBox="0 0 500 500" enable-background="new 0 0 500 500" xml:space="preserve">
<path d="M495.689,249.254c-5.042,137.589-105.811,240.617-245.644,246.394C111.894,490.762,8.727,390.11,3.002,249.845
	C8.142,110.432,109.625,8.645,249.074,3C387.796,8.314,490.252,109.149,495.689,249.254z M249.128,19.986
	C127.129,18.089,26.676,117.759,20.015,234.68c-7.878,138.287,102.263,239.463,218.557,244.259
	c134.371,5.542,235.492-102.428,240.429-219.598C484.556,127.503,375.226,16.952,249.128,19.986z M344.448,90.668
	c-19.445-17.304-42.13-28.035-68.095-32.052c-33.653-5.206-64.56,1.249-92.371,20.829c-35.545,25.025-53.924,59.669-54.255,103.058
	c-0.542,71.147-0.29,142.301-0.303,213.452c0,1.675,0.838,3.349,1.233,4.828c27.277,2.389,61.491-23.282,63.673-58.78
	c0.402-6.546,0.467-13.121,0.45-19.682c-0.122-45.974-0.404-91.948-0.432-137.921c-0.017-26.845,16.725-51.331,42.478-60.553
	c24.843-8.896,52.781-2.448,69.771,17.725c8.219,9.759,18.573,12.301,30.049,12.727c12.39,0.46,24.808,0.239,37.214,0.203
	c2.483-0.007,4.965-0.523,8.915-0.971C375.199,128.189,363.119,107.283,344.448,90.668z M374.032,214.911
	c-12.034-0.114-24.077,0.18-36.101-0.192c-9.012-0.279-17.38,1.111-25.004,6.528c-12.157,16.394-27.598,26.878-49.006,28.492
	c-21.025,1.585-38.081-6.018-53.866-21.489c0,27.347,0,52.32,0,77.017c87.777,29.755,152.937-17.311,173.608-89.56
	C380.372,215.423,377.204,214.941,374.032,214.911z"/>
</svg>
