<?xml version="1.0" encoding="iso-8859-1"?>
<!-- Generator: Adobe Illustrator 19.0.0, SVG Export Plug-In . SVG Version: 6.00 Build 0)  -->
<svg version="1.1" id="Layer_1" xmlns="http://www.w3.org/2000/svg" xmlns:xlink="http://www.w3.org/1999/xlink" x="0px" y="0px"
	 viewBox="0 0 500 500" style="enable-background:new 0 0 500 500;" xml:space="preserve">
<path d="M160.915,269.641c-8.662,0-17.339-0.317-25.984,0.065c-18.969,0.839-37.782,2.99-55.972,8.807
	c-3.708,1.186-7.515,2.588-10.72,4.725c-10.89,7.257-11.564,13.942-5.399,24.828c2.483,4.386,6.188,8.087,9.39,12.057
	c3.309,4.103,4.045,8.282,1.935,11.543c-2.285,3.531-6.655,4.819-11.705,3.694c-11.904-2.652-21.659-9.038-30.346-17.293
	C16.43,303.163,7.287,284.7,4.62,263.484c-2.783-22.144,3.926-42.104,17.634-59.548c10.729-13.652,23.745-24.755,38.311-34.352
	c22.717-14.967,47.32-25.853,72.91-34.376c24.889-8.289,50.49-14.007,76.463-18.185c29.516-4.748,59.165-7.24,89.003-6.703
	c13.397,0.241,26.779,2.017,40.139,3.385c25.038,2.564,49.01,9.01,71.62,20.246c18.071,8.98,34.267,20.52,48.018,35.33
	c16.821,18.115,27.418,39.363,32.179,63.665c2.742,13.994,4.139,28.061,3.38,42.25c-1.156,21.614-5.415,42.609-18.327,60.493
	c-15.782,21.861-37.131,36.982-61.774,47.604c-19.736,8.507-40.326,13.59-61.669,15.967c-22.087,2.46-44.18,2.131-66.297,0.86
	c-35.55-2.043-70.209-9.088-104.092-19.694c-24.843-7.776-48.978-17.521-71.596-30.617c-2.172-1.258-4.795-3.195-5.436-5.346
	c-1.557-5.221-0.343-9.205,6.83-9.64c13.71-0.83,27.44-1.493,41.112-2.757c15.203-1.406,30.42-2.958,45.509-5.249
	c22.447-3.409,44.848-7.201,67.139-11.503c8.465-1.634,16.617-4.998,24.82-7.838c4.153-1.438,8.113-3.418,8.253-8.831
	c0.144-5.581-2.613-9.122-7.375-11.764c-11.593-6.433-24.2-9.403-37.144-11.124c-14.507-1.929-29.021-4.26-43.604-5.028
	c-16.529-0.87-33.14-0.201-49.715-0.201C160.912,270.233,160.914,269.937,160.915,269.641z M116.387,338.364
	c-0.033,0.183-0.067,0.365-0.1,0.548c1.217,0.404,2.406,0.944,3.654,1.193c17.869,3.561,35.65,7.719,53.65,10.424
	c15.817,2.377,31.861,4.013,47.839,4.348c18.998,0.399,38.056-0.533,57.041-1.674c12.286-0.738,24.612-2.237,36.702-4.537
	c23.633-4.496,46.782-10.79,68.836-20.765c28.908-13.076,54.421-30.183,71.599-57.768c6.426-10.32,10.814-21.444,13.103-33.293
	c2.593-13.422,2.706-26.992,0.01-40.438c-1.009-5.032-1.587-10.857-4.506-14.685c-19.803-25.971-46.257-42.913-76.712-53.722
	c-30.218-10.725-61.779-13.767-93.55-14.117c-16.362-0.18-32.811,0.891-49.099,2.571c-18.743,1.933-37.383,4.969-56.005,7.922
	c-7.778,1.233-15.395,3.485-23.085,5.273c1.557,0.768,2.994,0.817,4.427,0.761c17.132-0.668,34.109,1.221,50.969,3.771
	c21.05,3.184,41.663,8.333,61.734,15.592c23.987,8.676,46.554,20.143,65.592,37.14c22.562,20.143,30.08,51.482,17.442,79.589
	c-6.637,14.76-17.152,25.863-30.9,34.511c-14.733,9.267-30.736,14.026-47.713,16.176c-7.236,0.916-14.607,0.878-21.794,2.035
	c-14.273,2.298-28.404,5.512-42.699,7.638c-20.146,2.995-40.355,5.646-60.6,7.874C146.994,336.406,131.668,337.186,116.387,338.364z
	 M351.775,281.208c0.998-0.914,1.493-1.242,1.826-1.691c9.802-13.242,14.994-27.78,14.042-44.578
	c-0.761-13.42-5.304-25.203-13.322-35.62c-9.403-12.217-22.109-20.641-35.205-28.324c-21.79-12.783-45.245-21.662-69.848-27.04
	c-16.231-3.548-32.781-5.667-49.225-8.188c-5.742-0.88-11.593-1.448-17.394-1.451c-11.834-0.007-24.142-1.499-35.389,1.214
	c-15.743,3.797-31.198,9.816-45.869,16.794c-21.895,10.413-40.183,26.004-54.508,45.626c-14.145,19.375-20.021,40.86-14.367,64.95
	c3.785,16.129,12.103,29.751,21.714,42.796c2.033,2.759,4.557,5.156,6.855,7.72c-1.105-3.324-2.874-6.15-4.136-9.187
	c-7.515-18.084-5.17-35.808,9.11-47.867c7.765-6.557,16.854-10.87,26.488-14.068c28.098-9.326,57.274-12.077,86.544-13.002
	c33.341-1.055,66.701-0.53,99.778,5.045c17.539,2.956,34.804,6.771,50.621,15.169C341.89,256.088,351.187,265.288,351.775,281.208z
	 M109.792,341.658c-0.152,0.339-0.304,0.678-0.456,1.018c1.59,1.154,3.051,2.575,4.792,3.417
	c11.657,5.642,23.158,11.686,35.115,16.614c29.112,11.999,59.231,20.552,90.295,26.074c19.641,3.491,39.373,5.906,59.222,6.689
	c22.914,0.904,45.827,0.062,68.514-4.183c32.948-6.165,62.843-18.696,88.01-41.317c9.262-8.325,17.703-17.573,22.915-28.905
	c8.624-18.75,11.61-38.676,10.992-59.355c-0.531-17.767-3.954-34.817-9.894-51.446c-1.424-3.986-3.346-7.793-5.184-12.018
	c0,5.107-0.18,9.546,0.031,13.966c0.87,18.24-2.605,35.553-10.63,51.972c-9.622,19.686-24.345,34.964-41.988,47.397
	c-21.877,15.416-46.23,25.726-71.931,32.988c-19.299,5.453-38.824,9.721-58.835,11.421c-15.27,1.298-30.543,2.938-45.845,3.388
	c-22.955,0.675-45.876-0.856-68.583-4.336c-16.326-2.502-32.553-5.687-48.775-8.817C121.564,345.07,115.71,343.202,109.792,341.658z
	 M56.947,288.737c8.855-9.028,11.629-11.057,24.484-14.662c7.605-2.133,15.502-3.369,23.343-4.477
	c10.173-1.437,20.411-3.174,30.64-3.309c21.209-0.28,42.431,0.429,63.648,0.7c22.334,0.285,44.461,2.608,66.327,7.11
	c10.78,2.22,21.44,5.077,30.702,11.439c9.139,6.278,8.141,19.555-1.767,24.347c-1.776,0.859-3.613,1.591-5.422,2.382
	c0.105,0.35,0.211,0.7,0.316,1.05c5.88-1.348,11.823-2.468,17.627-4.088c14.173-3.958,26.961-10.633,38.096-20.319
	c0.934-0.812,1.864-2.005,2.111-3.167c1.626-7.648,0.36-14.681-4.608-20.97c-5.925-7.501-14.005-11.867-22.514-15.449
	c-17.91-7.54-36.794-11.268-56.033-13.11c-15.561-1.489-31.159-3.007-46.771-3.449c-27.821-0.787-55.596,0.385-83.22,4.231
	c-15.41,2.145-30.62,5.112-45.14,10.781c-10.529,4.11-20.469,9.357-26.979,19.18C57.485,273.448,55.54,280.537,56.947,288.737z
	 M65.409,170.965c-0.033-0.111-0.066-0.222-0.099-0.333c-4.568,3.208-9.243,6.274-13.685,9.648
	c-16.635,12.635-30.884,27.328-38.79,47.106c-6.166,15.424-7.593,31.017-0.85,46.8c8.985,21.032,24.62,36.054,43.381,48.176
	c4.082,2.638,8.93,4.092,13.424,6.091c0.332-0.512,0.665-1.024,0.997-1.537c-1.222-1.017-2.623-1.882-3.639-3.074
	c-7.906-9.274-16.594-18.028-23.406-28.054c-12.51-18.413-18.772-38.807-15.438-61.476c2.322-15.791,9.006-29.627,18.77-41.934
	C52.04,184.86,58.933,178.078,65.409,170.965z M68.603,331.491c-21.711-7.694-37.297-22.095-50.697-39.761
	C22.931,308.464,51.832,334.495,68.603,331.491z"/>
</svg>
