<?xml version="1.0" encoding="utf-8"?>
<!-- Generator: Adobe Illustrator 24.2.0, SVG Export Plug-In . SVG Version: 6.00 Build 0)  -->
<svg version="1.1" id="pai" xmlns="http://www.w3.org/2000/svg" xmlns:xlink="http://www.w3.org/1999/xlink" x="0px" y="0px"
	 viewBox="0 0 500 500" style="enable-background:new 0 0 500 500;" xml:space="preserve">
<g>
	<path d="M379.7,219.9c0-0.5,0-1-0.1-1.5c0-0.7,0-1.3-0.1-2c0-0.6-0.1-1.3-0.1-1.9c0-0.5-0.1-1-0.1-1.5c-0.1-0.7-0.1-1.4-0.2-2.1
		c0-0.4-0.1-0.9-0.1-1.3c-0.1-0.7-0.2-1.5-0.3-2.2c0-0.4-0.1-0.8-0.1-1.2c-0.1-0.7-0.2-1.5-0.3-2.2c-0.1-0.4-0.1-0.8-0.2-1.2
		c-0.1-0.7-0.2-1.5-0.4-2.2c-0.1-0.4-0.1-0.8-0.2-1.2c-0.1-0.7-0.3-1.5-0.4-2.2c-0.1-0.4-0.1-0.8-0.2-1.1c-0.2-0.7-0.3-1.5-0.5-2.2
		c-0.1-0.4-0.2-0.7-0.2-1.1c-0.2-0.7-0.4-1.5-0.5-2.2c-0.1-0.3-0.2-0.7-0.3-1c-0.2-0.8-0.4-1.6-0.6-2.3c-0.1-0.3-0.2-0.6-0.2-0.9
		c-0.2-0.8-0.5-1.7-0.7-2.5c-0.1-0.2-0.1-0.4-0.2-0.6c-0.3-0.9-0.6-1.9-0.9-2.8c0-0.1-0.1-0.2-0.1-0.2c-1-3-2.2-6-3.4-9
		c-0.2-0.7-0.5-1.4-0.8-2C352,131.9,320,104.7,282,93.8c-0.3-0.1-0.5-0.1-0.8-0.2c-1.6-0.4-3.2-0.9-4.7-1.2
		c-0.4-0.1-0.9-0.2-1.3-0.3c-0.7-0.2-1.5-0.3-2.2-0.5c-0.7-0.1-1.4-0.3-2-0.4c-0.7-0.1-1.3-0.3-2-0.4c-1.2-0.2-2.5-0.4-3.7-0.6
		c-0.6-0.1-1.1-0.2-1.7-0.2c-0.9-0.1-1.8-0.2-2.6-0.3c-0.6-0.1-1.2-0.1-1.7-0.2c-1.3-0.1-2.6-0.3-4-0.4c-0.4,0-0.8-0.1-1.2-0.1
		c-1.1-0.1-2.1-0.1-3.2-0.2c-0.5,0-1,0-1.5-0.1c-1.4,0-2.7-0.1-4.1-0.1c-0.1,0-0.1,0-0.2,0c0,0,0,0,0,0s0,0,0,0
		c-74.3,0-134.8,60.5-134.8,134.8c0,1.7,0,3.3,0.1,4.9v246.5c0,10.5,8.5,19.1,19.1,19.1c10.6,0,19.1-8.6,19.2-19.3V317.5
		c8.7,8.9,18.6,16.6,29.5,22.9c8.3,4.8,17.1,8.6,26.2,11.5c0.3,0.1,0.6,0.2,0.9,0.3c0.7,0.2,1.5,0.5,2.2,0.7
		c0.5,0.2,1.1,0.3,1.7,0.5c0.6,0.2,1.3,0.4,1.9,0.5c1,0.2,1.9,0.5,2.9,0.7c0.4,0.1,0.8,0.2,1.2,0.3c1.1,0.3,2.3,0.5,3.4,0.7
		c0.4,0.1,0.8,0.1,1.1,0.2c1,0.2,2,0.4,2.9,0.5c0.4,0.1,0.7,0.1,1.1,0.2c1.2,0.2,2.4,0.4,3.6,0.5c0.1,0,0.3,0,0.4,0.1
		c1.4,0.2,2.7,0.3,4.1,0.5c0.2,0,0.5,0,0.7,0.1c1.1,0.1,2.2,0.2,3.3,0.3c0.4,0,0.8,0.1,1.2,0.1c1,0.1,2,0.1,3,0.1c0.4,0,0.8,0,1.2,0
		c1.3,0,2.7,0.1,4,0.1c37.9,0,72.1-15.7,96.6-40.8V341c0,10.5,8.5,19.1,19.1,19.1c10.6,0,19.2-8.5,19.1-19.1V223.4l0,0
		C379.7,222.2,379.7,221.1,379.7,219.9z M341.2,217c0,0.4,0.1,0.9,0.1,1.3c0,0.7,0.1,1.4,0.1,2.1c0,0.1,0,0.2,0,0.3
		c0,0.6,0,1.2,0,1.9c0,0.2,0,0.5,0,0.7c0,53.2-43.3,96.5-96.5,96.5c-13.5,0-26.6-2.8-38.5-7.9c-0.3-0.2-0.7-0.3-1-0.5
		c-0.2-0.1-0.3-0.1-0.5-0.2c-32.1-14.7-54.7-46.4-56.4-83.5v-4.4c0-26.6,10.8-50.7,28.2-68.1c17.5-17.4,41.6-28.3,68.2-28.3
		c50.8,0,92.5,39.3,96.2,89C341.2,216.3,341.2,216.7,341.2,217z"/>
	<circle cx="370.6" cy="35.9" r="28.2"/>
</g>
</svg>
