<?xml version="1.0" encoding="iso-8859-1"?>
<!-- Generator: Adobe Illustrator 19.0.0, SVG Export Plug-In . SVG Version: 6.00 Build 0)  -->
<svg version="1.1" id="Layer_1" xmlns="http://www.w3.org/2000/svg" xmlns:xlink="http://www.w3.org/1999/xlink" x="0px" y="0px"
	 viewBox="0 0 2000 2000" style="enable-background:new 0 0 2000 2000;" xml:space="preserve">
<path d="M865.553,1590.628c0,70.451,0,141.246,0,211.963c-301.593,19.25-659.575-366.645-686.344-741.002
	c-33.616-470.118,322.894-822.107,687.817-868.173c0,131.733,0,262.831,0,393.929c0,131.347,0,262.693,0,396.365
	c21.292,0,38.698,0,61.476,0c0-266.199,0-531.712,0-801.573c29.759-1.644,54.423-3.007,83.536-4.616c0,185.837,0,366.773,0,551.241
	c22.501,0,40.893,0,63.332,0c0-179.706,0-359.19,0-538.604c288.845-1.491,716.614,272.552,743.375,766.849
	c26.015,480.509-357.419,833.894-739.529,856.907c0-70.381,0-140.714,0-217.898c195.251-37.794,351.916-138.026,447.683-312.677
	c-67.405,33.547-136.446,74.427-210.284,102.838c-74.736,28.755-154.952,35.446-239.989,21.505c0-139.028,0-275.945,0-415.209
	c-22.07,0-39.368,0-61.792,0c0,134.543,0,266.897,0,405.481c-31.541-10.251-56.601-18.396-84.532-27.473c0-74.609,0-146.7,0-223.574
	c-21.112-1.271-38.574-2.323-61.326-3.693c0,63.182,0,124.326,0,187.438c-247.974-100.894-452.091-568.921-104.721-912.218
	c-189.077,57.892-365.666,264.483-386.887,506.602C350.198,1235.021,546.013,1516.646,865.553,1590.628z M1386.802,637.021
	c-30.018-33.049-57.751-63.58-85.483-94.112c-2.74,1.378-5.48,2.756-8.221,4.134c3.878,41.235,7.756,82.469,11.816,125.643
	c-41.483,18.844-80.805,36.706-127.168,57.766c48.83,11.775,90.819,21.9,133.744,32.251c3.408,22.85,6.874,43.53,9.483,64.317
	c2.573,20.499,4.276,41.107,6.362,61.667c3.232-0.219,6.464-0.437,9.696-0.656c20.709-34.563,41.418-69.127,63.026-105.189
	c43.098,8.107,84.154,15.83,137.063,25.782c-34.831-39.997-62.158-71.377-90.545-103.975
	c21.804-38.652,42.753-75.787,68.773-121.913C1467.57,602.913,1429.288,619.08,1386.802,637.021z M1881.221,990.862
	c4.428,185.237-49.226,358.054-157.019,510.633c-157.693,223.21-375.544,346.926-646.103,378.766c0,33.182,0,62.855,0,99.604
	c319.967-36.851,575.193-178.949,744.513-449.891c211.683-338.731,217.075-691.573,14.671-1035.731
	C1669.84,209.532,1409.625,58.675,1078.318,21.196c0,35.615,0,65.298,0,98.154C1522.348,166.899,1869.931,518.521,1881.221,990.862z
	 M118.447,1009.218c10-485.931,282.434-772.592,745.306-887.624c0-29.692,0-59.088,0-88.677
	C438.861,71.95-30.782,487.73,22.524,1091.034c23.242,263.041,138.716,481.896,338.329,654.286
	c144.282,124.605,311.237,200.962,504.498,225.188c0-34.837,0-63.272,0-94.157C404.723,1796.705,110.136,1413.099,118.447,1009.218z
	 M1011.145,1603.602c-27.128-1.491-51.926-2.854-78.407-4.309c0,74.153,0,145.444,0,219.983c26.729,1.19,50.228,2.237,78.407,3.492
	C1011.145,1745.842,1011.145,1675.677,1011.145,1603.602z M1011.302,23.915c-28.024,0-53.691,0-79.32,0c0,34.181,0,63.593,0,96.797
	c27.618-2.026,52.352-3.841,79.32-5.82C1011.302,80.786,1011.302,52.78,1011.302,23.915z M1011.106,1978.346
	c0-32.325,0-61.669,0-92.871c-27.108-1.895-51.87-3.625-79.317-5.543c0,33.533,0,62.978,0,98.414
	C959.81,1978.346,984.653,1978.346,1011.106,1978.346z"/>
</svg>
