<?xml version="1.0" encoding="iso-8859-1"?>
<!-- Generator: Adobe Illustrator 19.0.0, SVG Export Plug-In . SVG Version: 6.00 Build 0)  -->
<svg version="1.1" id="Layer_1" xmlns="http://www.w3.org/2000/svg" xmlns:xlink="http://www.w3.org/1999/xlink" x="0px" y="0px"
	 viewBox="0 0 2000 2000" style="enable-background:new 0 0 2000 2000;" xml:space="preserve">
<path d="M669.072,1726.106c0-54.474,0-107.673,0-165.094c8.798,3.122,16.917,4.726,23.73,8.616
	c76.674,43.782,154.705,85.464,229.15,132.779c53.677,34.115,99.936,34.473,154.246,0.327
	c88.243-55.481,180.419-104.689,270.724-156.911c84.094-48.629,167.864-97.815,251.875-146.588
	c32.425-18.824,47.248-47.965,47.318-84.124c0.405-209.369,0.095-418.738,0.284-628.107c0.039-43.244-20.485-72.152-57.408-93.352
	c-142.476-81.801-284.223-164.869-426.532-246.962c-42.771-24.673-85.938-48.791-129.98-71.074
	c-24.818-12.557-51.198-11.336-76.138,3.266c-82.388,48.236-164.64,96.71-247.406,144.291
	c-91.578,52.647-182.779,106.062-275.863,155.933c-55.16,29.553-83.215,67.536-82.472,133.816
	c2.988,266.355,1.649,532.759,1.808,799.145c0.005,8.604-1.083,17.208-1.982,30.579c-42.049-24.931-81.316-46.401-118.528-70.981
	c-21.087-13.929-28.965-37.648-28.948-62.835c0.167-253.892,2.954-507.819-0.73-761.654
	c-1.057-72.812,20.621-118.016,85.901-152.915c140.952-75.352,278.418-157.241,417.04-236.926
	c77.343-44.459,154.998-88.482,230.848-135.391c40.87-25.276,76.557-22.074,116.551,1.309
	c163.9,95.829,328.757,190.02,493.14,285.025c66.949,38.693,133.705,77.723,200.302,117.018
	c23.289,13.741,34.344,35.083,34.439,62.102c0.263,73.94,0.688,147.88,0.77,221.82c0.212,191.55-1.34,383.122,1.423,574.634
	c0.785,54.412-19.438,86.789-65.753,112.752c-142.904,80.107-284.051,163.348-425.992,245.177
	c-84.904,48.947-170.085,97.413-254.997,146.346c-25.865,14.906-53.053,17.857-78.699,3.4
	C861.614,1837.647,766.817,1782.381,669.072,1726.106z M1330.264,1002.832c0-45.421-0.311-90.845,0.089-136.263
	c0.386-43.852-22.714-73.144-58.445-93.756c-72.536-41.842-145.695-82.601-218.356-124.227
	c-28.081-16.087-57.243-25.089-87.278-8.509c-83.964,46.349-167.615,93.296-250.596,141.376
	c-32.148,18.627-47.576,47.974-47.149,86.459c0.96,86.365,1.68,172.778-0.243,259.111c-0.956,42.887,15.126,73.662,51.189,94.482
	c77.205,44.573,154.937,88.235,232.077,132.918c32.49,18.819,65.146,17.955,96.348,0.397
	c79.272-44.608,157.951-90.293,236.232-136.622c30.273-17.916,46.202-45.852,46.242-81.778c0.05-44.529,0.012-89.059,0.012-133.588
	C1330.345,1002.832,1330.305,1002.832,1330.264,1002.832z M947.158,1964.345c35.391,20.212,70.006,19.286,106.93-2.344
	c145.504-85.235,292.268-168.317,438.415-252.457c105.068-60.49,209.898-121.395,314.838-182.108
	c34.16-19.764,52.744-47.911,52.627-88.82c-0.612-213.831-0.501-427.664-0.611-641.497c-0.041-79.297-0.309-158.595,0.152-237.89
	c0.207-35.567-12.19-65.955-42.355-83.782c-116.187-68.664-233.425-135.551-350.343-202.976
	c-137.868-79.507-275.863-158.795-413.685-238.381c-35.393-20.438-70.52-21.689-106.102-0.976
	c-60.24,35.067-120.421,70.235-180.775,105.104c-183.416,105.964-365.935,213.544-550.945,316.65
	c-56.646,31.569-77.719,71.721-77.244,135.306c2.117,283.313,0.805,566.652,0.324,849.981
	c-0.056,32.942,12.535,59.527,38.914,77.271c31.459,21.161,65.135,39.031,97.916,58.217c23.911,13.995,47.927,27.81,75.664,43.889
	c0-23.096,0-40.437,0-59.825c-35.733-20.516-71.953-40.973-107.829-62.014c-29.837-17.5-51.459-41.617-53.661-77.783
	c-1.888-31.011-2.135-62.156-2.157-93.243c-0.173-241.456-0.101-482.912-0.144-724.369c-0.007-40.958,14.685-73.773,51.411-94.848
	c146.839-84.264,293.696-168.497,440.428-252.947c85.718-49.334,172.304-97.292,256.363-149.321
	c44.52-27.556,82.872-20.265,124.069,3.72c226.594,131.924,453.118,263.975,680.584,394.382
	c41.182,23.609,58.953,55.446,58.709,101.236c-0.58,108.696-0.282,217.398-0.279,326.097c0.005,155.918-0.213,311.837,0.281,467.754
	c0.135,42.569-14.748,76.778-51.961,98.312c-83.303,48.206-167.41,95.02-250.855,142.985
	c-150.486,86.5-300.773,173.346-451.03,260.242c-31.506,18.221-63.636,22.714-96.109,4.31
	c-68.446-38.792-136.407-78.437-204.631-117.621c-23.891-13.722-47.968-27.122-75.418-42.622c0,23.357,0,40.146,0,59.012
	C762.22,1857.3,854.382,1911.361,947.158,1964.345z"/>
</svg>
