<?xml version="1.0" encoding="utf-8"?>
<!-- Generator: Adobe Illustrator 25.1.0, SVG Export Plug-In . SVG Version: 6.00 Build 0)  -->
<svg version="1.1" id="Layer_1" xmlns="http://www.w3.org/2000/svg" xmlns:xlink="http://www.w3.org/1999/xlink" x="0px" y="0px"
	 viewBox="0 0 500 500" style="enable-background:new 0 0 500 500;" xml:space="preserve">
<path d="M285,212.8c-30.7,17.7-61.1,35.7-91.9,53.1c-10.2,5.8-15.2,13.5-14.7,25.4c0.6,12.3,0.3,24.7,0,37c-0.1,4.4-0.8,8.9-2.2,13
	c-2.7,7.9-9.9,11.5-17.8,9.1c-4.6-1.4-9.1-3.5-13.3-5.9c-24.1-13.7-47.9-27.7-72-41.4c-8.9-5-12.8-12.2-12.8-22.2
	c0.1-33.1,0-66.1,0-99.2c0,0-0.1,0-0.1,0c0-32.6,0.1-65.2-0.1-97.8c-0.1-10.7,4.1-18,13.4-23.3c30.7-17.5,61.3-35.3,91.8-53.2
	c9.2-5.4,17.6-5.4,26.8,0c31.1,18.3,62.3,36.4,93.5,54.4c7.6,4.4,11.4,11,11.4,19.5c0.1,37.2,0.1,74.5-0.1,111.7
	C297.1,201.9,292.7,208.4,285,212.8z M439.1,317.9c-0.1,0-0.2,0-0.3,0c0-33.3-0.1-66.6,0-99.9c0-8.3-2.5-15.3-9.8-19.5
	c-26.8-15.5-53.5-31.1-80.5-46.2c-15.3-8.5-26.6-1.5-26.9,16.2c-0.2,14.2,0,28.4-0.1,42.6c-0.1,9.3-4,16.3-12.3,21.1
	c-31.4,18.1-62.7,36.5-94.2,54.7c-8.2,4.7-12.3,11.4-12.3,21c0.1,36.3,0.1,72.6-0.2,108.9c-0.1,10.2,4.1,17.1,12.8,22.1
	c30.6,17.6,61.3,35.3,91.7,53.4c9.5,5.6,18,5.6,27.5,0c30.3-17.9,60.6-35.5,91.2-52.9c9.3-5.3,13.5-12.5,13.5-23.2
	C438.9,383.6,439.1,350.7,439.1,317.9z"/>
</svg>
