<?xml version="1.0" encoding="iso-8859-1"?>
<!-- Generator: Adobe Illustrator 19.0.0, SVG Export Plug-In . SVG Version: 6.00 Build 0)  -->
<svg version="1.1" id="Layer_1" xmlns="http://www.w3.org/2000/svg" xmlns:xlink="http://www.w3.org/1999/xlink" x="0px" y="0px"
	 viewBox="0 0 500 500" enable-background="new 0 0 500 500" xml:space="preserve">
<path d="M167.533,338.689c7.57-6.943,294.887-266.456,311.766-281.547c2.327-2.08,4.335-5.225,8.096-3.77
	c4.427,1.713,4.399,5.742,4.393,9.671c-0.017,12.818,0.034,25.636,0.026,38.454c-0.043,71.468-0.067,142.935-0.167,214.403
	c-0.023,16.681-7.102,23.766-24.085,23.791c-87.174,0.128-174.348,0.138-261.522,0.186c-10.575,0.006-21.151,0.035-31.725-0.05
	C172.569,339.813,170.827,339.262,167.533,338.689z M158.487,305.284c-43.619-0.044-87.237-0.055-130.856,0.023
	c-2.473,0.004-5.118,0.405-7.385,1.342c-8.762,3.623-13.603,9.808-13.547,19.854c0.2,35.279,0.078,70.559,0.078,105.839
	c0,1.283-0.08,2.573,0.025,3.847c0.365,4.453,1.556,5.854,5.898,5.621c2.373-0.127,5.017-0.95,6.944-2.305
	c2.817-1.981,5.031-4.797,7.62-7.127c22.313-20.082,104.05-93.442,122.511-110.144c5.321-4.814,10.386-9.91,16.722-15.982
	C162.635,305.77,160.561,305.286,158.487,305.284z"/>
</svg>
