<?xml version="1.0" encoding="iso-8859-1"?>
<!-- Generator: Adobe Illustrator 19.0.0, SVG Export Plug-In . SVG Version: 6.00 Build 0)  -->
<svg version="1.1" id="Layer_1" xmlns="http://www.w3.org/2000/svg" xmlns:xlink="http://www.w3.org/1999/xlink" x="0px" y="0px"
	 viewBox="0 0 500 500" style="enable-background:new 0 0 500 500;" xml:space="preserve">
<path d="M490.532,247.893c-1.189,2.362-2.725,8.081-6.263,11.989c-16.698,18.441-33.887,36.439-51.047,54.456
	c-2.945,3.092-6.387,5.828-9.959,8.182c-8.078,5.323-18.659,4.949-25.403-0.506c-7.223-5.843-9.883-16.581-5.679-25.705
	c1.934-4.199,4.683-8.261,7.882-11.6c16.646-17.372,33.547-34.5,50.388-51.686c1.806-1.843,3.792-3.509,5.694-5.257
	c6.386-5.871,13.714-7.134,21.452-3.488C486.076,228.275,490.742,235.088,490.532,247.893z M223.569,28.853
	c-0.653,7.429,1.895,13.481,7.176,18.528c6.839,6.536,13.723,13.026,20.549,19.575c11.756,11.28,23.407,22.671,35.253,33.856
	c6.037,5.7,12.867,10.666,21.698,9.153c18.027-3.089,24.995-22.635,12.927-36.426c-5.926-6.772-12.781-12.749-19.37-18.921
	c-13.461-12.612-27.004-25.135-40.558-37.646c-4.865-4.49-10.357-7.687-17.28-7.503C232.943,9.777,224.533,17.884,223.569,28.853z
	 M267.482,449.503c-17.389-16.731-34.754-33.49-52.331-50.022c-3.385-3.184-7.62-5.498-11.578-8.033
	c-11.54-7.389-30.081,4.737-29.714,18.401c0.201,7.465,2.799,13.241,8.111,18.268c19.112,18.087,38.105,36.3,57.188,54.418
	c1.549,1.471,3.38,2.676,5.186,3.841c7.165,4.623,14.734,4.863,22.12,0.981c7.566-3.976,10.077-11.302,11.03-16.815
	C278.177,459.777,272.798,454.619,267.482,449.503z M51.478,266.343c12.624-12.883,25.396-25.634,37.663-38.852
	c6.987-7.528,13.863-15.378,19.387-23.983c5.538-8.627,2.28-18.816-6.536-26.118c-7.278-6.028-15.418-6.345-23.57-0.103
	c-6.466,4.95-12.812,10.206-18.451,16.059c-12.825,13.311-25.165,27.088-37.746,40.636c-2.325,2.504-5.157,4.586-7.226,7.271
	c-5.836,7.574-6.053,15.847-2.017,24.275c3.719,7.766,10.205,11.274,18.618,11.523C40.237,277.137,45.999,271.934,51.478,266.343z
	 M403.955,63.911c-20.248,21.24-40.812,42.189-60.673,63.784c-10.707,11.641-2.779,29.841,10.136,33.22
	c8.412,2.201,15.317,0.656,21.232-5.294c18.559-18.669,37.078-37.379,55.391-56.287c2.924-3.019,5.219-6.916,6.933-10.792
	c6.596-14.923-2.832-29.469-19.647-29.812C412.312,57.898,407.79,59.888,403.955,63.911z M99.027,434.005
	c18.942-20.062,38.046-39.97,57.034-59.989c1.465-1.544,2.681-3.409,3.673-5.303c3.838-7.329,2.552-18.668-2.606-24.181
	c-8.585-9.175-20.648-10.149-29.681-1.296c-19.106,18.726-37.78,37.897-56.481,57.032c-2.671,2.733-4.914,6.077-6.65,9.496
	c-7.629,15.028,1.983,30.827,19.667,30.976C89.528,441.345,94.572,438.723,99.027,434.005z M152.966,158.683
	c10.227-5.982,13.07-22.954,4.756-31.477c-19.244-19.727-38.916-39.048-58.813-58.117c-3.544-3.397-8.778-5.657-13.63-6.947
	c-14.392-3.826-25.694,5.57-25.762,20.432c-0.03,6.531,2.361,11.568,7.026,15.972c20.049,18.928,40.082,37.876,59.922,57.022
	c4.47,4.314,9.551,5.492,18.343,5.239C145.638,160.608,149.817,160.525,152.966,158.683z M346.117,342.751
	c-10.577,8.198-11.059,21.963-1.431,31.518c18.326,18.188,36.857,36.171,55.43,54.108c3.06,2.955,6.504,5.725,10.226,7.741
	c9.521,5.156,21.242,2.19,27.543-6.499c6.127-8.449,5.332-19.98-2.896-27.954c-20.385-19.757-41.191-39.079-61.616-58.795
	c-3.869-3.735-8.178-4.312-13.419-5.495C355.294,339.103,349.867,339.844,346.117,342.751z M29.182,388.642
	c11.393-0.576,20.39-9.072,20.611-20.357c0.232-11.853-8.993-21.419-20.742-21.509c-11.901-0.091-20.847,8.933-20.919,21.103
	C6.568,379.96,19.266,389.143,29.182,388.642z M493.294,131.185c-0.279-11.369-9.356-20.178-20.899-20.28
	c-11.99-0.107-21.145,9.347-20.834,21.515c0.294,11.516,9.299,20.3,20.774,20.263C484.345,152.643,493.587,143.165,493.294,131.185z
	 M473.132,341.676c-12.131-0.393-21.541,8.638-21.597,20.727c-0.054,11.559,8.67,20.787,19.994,21.148
	c11.763,0.375,21.688-9.156,21.759-20.896C493.357,351.273,484.491,342.044,473.132,341.676z M138.002,450.652
	c-11.925-0.117-21.239,9.333-21.069,21.377c0.161,11.383,9.159,20.173,20.758,20.278c12.059,0.109,21.195-9.127,21.021-21.25
	C158.548,459.69,149.489,450.765,138.002,450.652z M368.509,450.652c-11.933,0.021-21.051,9.504-20.79,21.621
	c0.254,11.787,10.085,20.63,22.268,20.033c11.314-0.555,19.84-9.953,19.517-21.512C389.184,459.374,380.071,450.631,368.509,450.652
	z M49.721,136.836c-0.003-11.215-9.204-20.494-20.498-20.672c-11.623-0.183-20.648,8.313-21.088,19.852
	c-0.47,12.31,8.286,21.783,20.322,21.987C40.377,158.206,49.725,148.901,49.721,136.836z M362.975,7.125
	c-11.544,0.208-20.448,9.066-20.627,20.522c-0.185,11.796,9.447,21.331,21.363,21.149c11.386-0.174,20.519-9.36,20.508-20.627
	C384.207,16.006,375.023,6.909,362.975,7.125z M153.207,30.585c0.333-10.829-10.077-22.171-20.642-22.489
	c-11.617-0.35-21.11,9.142-21.198,21.195c-0.088,12.137,9.071,21.76,20.622,21.668C142.349,50.877,152.895,40.75,153.207,30.585z
	 M286.589,414.242c0.121,10.484,10.344,20.528,21.021,20.654c11.394,0.134,21.639-9.973,21.667-21.375
	c0.026-10.989-9.489-20.124-21.078-20.236C295.954,393.167,286.452,402.382,286.589,414.242z M213.786,86.041
	c0.092-12.297-8.988-21.719-20.72-21.498c-10.847,0.204-20.881,10.02-21.028,20.572c-0.168,11.984,8.966,21.017,21.278,21.043
	C205.095,106.183,213.698,97.729,213.786,86.041z M435.916,192.697c0.045-11.156-10.238-21.534-21.436-21.633
	c-11.457-0.101-20.532,9.874-20.231,22.236c0.293,12.022,8.464,19.623,20.925,19.466
	C426.981,212.618,435.87,204.017,435.916,192.697z M107.131,306.149c-0.091-11.23-9.019-20.455-20.288-20.963
	c-10.589-0.478-21.397,10.441-21.499,21.446c-0.082,8.855,7.998,21.202,20.586,20.246
	C98.622,326.985,107.232,318.567,107.131,306.149z"/>
</svg>
