<?xml version="1.0" encoding="iso-8859-1"?>
<!-- Generator: Adobe Illustrator 19.0.0, SVG Export Plug-In . SVG Version: 6.00 Build 0)  -->
<svg version="1.1" id="Layer_1" xmlns="http://www.w3.org/2000/svg" xmlns:xlink="http://www.w3.org/1999/xlink" x="0px" y="0px"
	 viewBox="0 0 500 500" enable-background="new 0 0 500 500" xml:space="preserve">
<path d="M493.706,244.851c-0.512,140.426-108.463,247.562-240.701,248.679c-66.41,0.561-124.222-22.438-171.805-68.841
	C32.252,376.954,7.582,318.276,7.557,249.798C7.508,115.814,116.378,8.708,247.186,7.544
	c66.963-0.596,124.985,22.365,172.908,69.023C468.848,124.036,492.58,182.637,493.706,244.851z M250.61,473.123
	c122.932,0.166,222.553-99.788,222.566-222.587c0.013-122.707-99.562-223.49-224.221-222.711
	c-121.49,0.759-221.775,99.311-221.104,224.1C28.509,374.414,128.058,473.321,250.61,473.123z M316.078,275.168
	c11.25,0,22.503-0.184,33.748,0.052c11.061,0.232,21.767-1.399,32.287-4.73c12.377-3.92,23.191-10.109,30.63-21.082
	c4.765-7.028,7.869-14.741,7.879-23.407c0.027-21.527,0.01-43.054,0.003-64.581c0-0.899,0.009-1.816-0.152-2.695
	c-2.231-12.183-8.013-22.354-17.941-29.786c-14.097-10.552-30.267-15.336-47.733-16.057c-2.121-0.088-4.249-0.012-6.641-0.012
	c1.007-4.917,1.853-9.529,2.911-14.092c1.481-6.387-3.003-10.748-7.946-10.906c-3.396-0.109-6.803-0.11-10.197,0.042
	c-3.568,0.16-6.87,2.848-7.724,6.225c-0.609,2.407-0.967,4.877-1.446,7.318c-0.74,3.772-1.487,7.543-2.228,11.297
	c-9.461,0-18.669,0-28.116,0c0.929-4.752,1.724-9.373,2.752-13.942c1.321-5.867-1.969-10.601-8.001-10.934
	c-3.526-0.195-7.079-0.083-10.611,0.078c-2.85,0.129-6.433,3.053-7.052,5.686c-0.68,2.89-1.153,5.829-1.739,8.742
	c-0.702,3.49-1.427,6.976-2.147,10.485c-49.381,0-98.471,0-147.707,0c-12.714,15.324-25.445,30.668-38.489,46.389
	c93.366,0,186.18,0,279.169,0c0,0.927-0.003,1.677,0,2.427c0.044,9.722,0.111,19.444,0.124,29.165
	c0.007,5.411,0.226,10.845-0.183,16.228c-0.675,8.878-4.827,15.561-13.396,19.008c-4.488,1.805-9.175,2.658-13.982,2.662
	c-39.721,0.031-79.442,0.019-119.163,0.02c-0.683,0-1.366,0-2.271,0c3.123-15.19,6.2-30.159,9.302-45.244
	c-20.54,0-40.798,0-61.126,0c-0.59,2.696-1.193,5.316-1.735,7.949c-1.809,8.79-3.58,17.589-5.395,26.378
	c-1.523,7.376-3.127,14.735-4.627,22.116c-2.586,12.722-5.086,25.461-7.684,38.181c-1.811,8.866-3.764,17.702-5.589,26.565
	c-3.148,15.287-6.24,30.586-9.366,45.878c-1.923,9.406-3.863,18.808-5.801,28.211c-1.157,5.61-2.326,11.218-3.504,16.897
	c20.401,0,40.706,0,61.169,0c0.93-4.403,1.864-8.718,2.751-13.042c2.066-10.078,4.093-20.165,6.168-30.242
	c1.254-6.089,2.599-12.16,3.85-18.25c2.155-10.487,4.273-20.982,6.399-31.475c1.083-5.346,2.132-10.699,3.235-16.04
	c0.779-3.774,1.622-7.536,2.435-11.298c10.357,0,20.567,0,30.85,0c-0.477,2.695-0.889,5.209-1.373,7.709
	c-0.499,2.578-0.941,5.176-1.63,7.706c-1.797,6.604,3.842,10.713,8.313,10.864c3.052,0.103,6.112,0.075,9.165,0.005
	c4.183-0.095,7.722-3.324,8.506-7.411c1.21-6.306,2.549-12.588,3.829-18.857c9.397,0,18.713,0,28.09,0
	c-1.025,5.281-1.92,10.379-3.021,15.432c-1.264,5.799,2.532,10.759,8.499,10.844c2.847,0.041,5.694,0.03,8.541,0.001
	c4.247-0.043,7.75-2.705,8.812-6.851c0.616-2.405,0.973-4.875,1.457-7.314c0.803-4.047,1.615-8.092,2.458-12.31
	C314.581,275.168,315.33,275.168,316.078,275.168z"/>
</svg>
