<?xml version="1.0" encoding="iso-8859-1"?>
<!-- Generator: Adobe Illustrator 19.0.0, SVG Export Plug-In . SVG Version: 6.00 Build 0)  -->
<svg version="1.1" id="Layer_1" xmlns="http://www.w3.org/2000/svg" xmlns:xlink="http://www.w3.org/1999/xlink" x="0px" y="0px"
	 viewBox="0 0 2000 2000" style="enable-background:new 0 0 2000 2000;" xml:space="preserve">
<path d="M18.433,999.388c0.324-541.567,440.08-981.093,981.473-980.959c541.911,0.134,982.006,440.669,981.208,982.188
	c-0.798,541.773-440.861,981.187-981.948,980.499C457.404,1980.428,18.109,1540.687,18.433,999.388z M811.94,1105.191
	c5.233,0,9.049,0,12.864,0c101.251,0,202.503,0.047,303.754-0.019c53.123-0.035,105.661-5.108,157.083-19.147
	c85.387-23.312,159.101-65.667,214.159-136.063c67.197-85.917,91.72-184.432,78.919-291.973
	c-9.939-83.495-56.081-140.886-132.707-174.424c-49.442-21.64-101.716-30.875-155.07-33.566
	c-39.503-1.992-79.148-1.445-118.731-1.494c-124.568-0.155-249.135-0.057-373.703-0.057c-4.099,0-8.198,0-12.796,0
	c-49.099,272.725-98.045,544.601-147.082,816.983c-18.807,7.884-37.531,15.804-56.311,23.592
	c-48.193,19.988-96.435,39.857-144.602,59.906c-15.331,6.381-23.419,21.642-19.644,36.188c5.276,20.33,23.773,29.52,44.019,21.327
	c31.855-12.892,63.559-26.157,95.315-39.294c21.98-9.093,43.94-18.236,67.877-28.175c-3.31,18.646-6.277,35.365-9.183,51.738
	c-40.595,16.907-80.251,33.375-119.865,49.942c-18.298,7.652-26.058,24.884-19.047,41.848c6.721,16.263,24.373,23.037,42.327,15.946
	c13.612-5.376,27.063-11.156,40.602-16.719c13.694-5.627,27.407-11.21,42.659-17.444c-5.347,30.12-10.364,58.379-15.388,86.682
	c48.567,0,95.945,0,143.233,0c9.355-51.156,18.564-101.514,27.682-151.377c3.4-1.407,5.745-2.373,8.088-3.348
	c65.523-27.25,131.07-54.439,196.552-81.787c20.131-8.407,28.307-25.146,21.24-42.481c-7.205-17.675-25.131-23.633-45.774-15.084
	c-26.751,11.079-53.453,22.276-80.192,33.383c-28.411,11.802-56.842,23.559-86.561,35.874c3.316-18.147,6.383-34.934,9.437-51.649
	c3.755-1.649,6.916-3.103,10.127-4.436c37.033-15.375,74.079-30.717,111.103-46.113c3.816-1.587,7.681-3.176,11.232-5.26
	c13.899-8.158,19.238-25.343,12.597-39.902c-6.65-14.58-23.177-22.14-38.387-16.188c-27.546,10.778-54.75,22.428-82.116,33.669
	c-3.293,1.353-6.702,2.422-11.06,3.982C800.529,1167.703,806.176,1136.767,811.94,1105.191z M845.688,971.096
	c104.084,0.019,208.173,0.515,312.25-0.341c25.658-0.211,51.661-2.877,76.839-7.815c56.742-11.129,105.442-37.781,142.318-83.147
	c39.887-49.07,56.761-105.549,49.855-168.544c-6.382-58.218-35.939-98.731-92.249-118.541
	c-33.877-11.918-68.971-15.531-104.406-15.695c-105.039-0.484-210.082-0.274-315.123-0.299c-2.18,0-4.359,0.438-7.032,0.725
	c-23.898,131.008-47.754,261.782-71.734,393.236C840.054,970.847,842.871,971.095,845.688,971.096z"/>
</svg>
