<?xml version="1.0" encoding="iso-8859-1"?>
<!-- Generator: Adobe Illustrator 19.0.0, SVG Export Plug-In . SVG Version: 6.00 Build 0)  -->
<svg version="1.1" id="Layer_1" xmlns="http://www.w3.org/2000/svg" xmlns:xlink="http://www.w3.org/1999/xlink" x="0px" y="0px"
	 viewBox="0 0 500 500" style="enable-background:new 0 0 500 500;" xml:space="preserve">
<path d="M248.759,495.779C113.396,495.714,2.934,384.924,3.018,249.31C3.102,113.568,114.032,2.913,249.94,3
	c136.885,0.087,245.981,110.828,245.838,249.545C495.639,386.361,384.452,495.844,248.759,495.779z M249.469,241.263
	c5.176,4.03,10.144,8.793,15.904,12.23c26.493,15.809,55.441,23.991,86.142,24.982c20.342,0.657,38.455-5.578,50.483-23.356
	c10.853-16.04,13.95-33.805,7.97-52.296c-5.108-15.793-24.476-21.726-34.509-11.328c11.85,1.053,17.956,6.138,20.762,17.294
	c2.86,11.37-3.486,19.513-15.185,19.555c-9.914,0.036-17.717-4.685-24.973-10.809c-17.533-14.797-34.567-30.366-56.046-39.508
	c-16.722-7.117-34.002-2.814-45.94,10.971c-1.513,1.747-3.112,3.421-4.735,5.2c-18.721-22.149-36.037-25.993-60.198-11.03
	c-16.638,10.304-31.478,23.487-47.339,35.085c-4.782,3.496-10.029,6.689-15.533,8.789c-9.225,3.519-17.427,1.305-21.568-4.675
	c-4.159-6.008-3.809-16.295,2.447-22.744c4.187-4.316,10.365-6.7,15.665-9.956c-1.586-0.593-4.413-2.247-7.416-2.674
	c-15.033-2.14-26.615,7.545-28.581,23.567c-4.897,39.916,21.076,69.638,61.346,67.807
	C185.539,276.667,220.601,266.716,249.469,241.263z"/>
</svg>
