<?xml version="1.0" encoding="utf-8"?>
<!-- Generator: Adobe Illustrator 25.1.0, SVG Export Plug-In . SVG Version: 6.00 Build 0)  -->
<svg version="1.1" id="pax" xmlns="http://www.w3.org/2000/svg" xmlns:xlink="http://www.w3.org/1999/xlink" x="0px" y="0px"
	 viewBox="0 0 500 500" style="enable-background:new 0 0 500 500;" xml:space="preserve">
<g>
	<path d="M478.8,206.7c13.7-40.6,13.8-75.5,0.4-98.6c-9.1-15.6-24.2-25.8-43.9-29.4c-8.5-1.6-16.7-3-24.7-4.3
		c-42.2-7.2-75.5-12.9-108-35.7c-47-33.2-93.2-29.7-137.3,10.3l-0.1,0l-0.1,0.1c-44.8-1-74.3,9.2-92.7,32
		c-16.9,21-22.4,49.5-28.7,82.5c-5.1,26.5-10.8,56.6-23.8,86.1c-23,52.3-26.1,94.6-9.2,125.8c16.3,30,51.1,49.7,103.6,58.6
		c15,17.2,32.4,30.7,51.7,39.9c26,12.7,47.4,18,65.8,18c39.3,0,65.6-24.1,96.3-52.2c27.2-24.9,57.9-53.1,106-74
		c32.3-14,53.1-34.5,61.6-60.8C505,276.4,499.2,242.4,478.8,206.7z M151.1,84.6c1-1.1,2-2.2,2.9-3.2c0.1-0.1,0.2-0.2,0.3-0.3
		c1-1.1,1.9-2.1,2.8-3.1c0.1-0.1,0.1-0.1,0.2-0.2c2.9-3.2,5.7-6.1,8.3-8.8c0,0,0,0,0,0c0.8-0.8,1.6-1.6,2.4-2.4
		c0.1-0.1,0.3-0.3,0.4-0.4c0.7-0.7,1.4-1.4,2.1-2c0.1-0.1,0.2-0.2,0.2-0.2c1.6,0.1,3.3,0.1,5,0.3C212.8,66.3,245.7,72,274,81
		c-0.2,0-0.3,0-0.5,0c-1.3,0.1-2.7,0.1-4,0.2c-0.3,0-0.5,0-0.8,0.1c-1.4,0.1-2.8,0.2-4.1,0.3c-0.5,0-1,0.1-1.6,0.1
		c-1,0.1-2,0.2-3,0.3c-0.6,0.1-1.1,0.1-1.7,0.2c-1.1,0.1-2.1,0.3-3.2,0.4c-0.5,0.1-0.9,0.1-1.4,0.2c-1.5,0.2-3,0.4-4.5,0.7
		c-0.3,0-0.6,0.1-0.8,0.1c-1.2,0.2-2.5,0.4-3.7,0.6c-0.5,0.1-1,0.2-1.5,0.3c-1,0.2-2.1,0.4-3.1,0.6c-0.5,0.1-1,0.2-1.6,0.3
		c-1.1,0.2-2.3,0.5-3.4,0.7c-0.4,0.1-0.8,0.2-1.1,0.2c-1.5,0.3-3,0.7-4.5,1.1c-0.4,0.1-0.7,0.2-1.1,0.3c-1.1,0.3-2.3,0.6-3.4,0.9
		c-0.5,0.1-1,0.3-1.5,0.4c-1,0.3-2.1,0.6-3.1,0.9c-0.5,0.1-1,0.3-1.5,0.4c-1.2,0.4-2.5,0.8-3.7,1.1c-0.3,0.1-0.5,0.2-0.8,0.2
		c-1.5,0.5-2.9,1-4.4,1.5c-0.4,0.1-0.8,0.3-1.3,0.4c-1.1,0.4-2.1,0.8-3.2,1.1c-0.5,0.2-1,0.4-1.5,0.6c-1,0.4-2,0.8-3.1,1.2
		c-0.5,0.2-0.9,0.4-1.4,0.5c-1.4,0.6-2.9,1.2-4.3,1.8c-42.9,18.2-77.6,48.1-100.6,86.4c-1,1.7-2,3.4-3,5.1c-0.3,0.6-0.6,1.1-0.9,1.7
		c-0.6,1.2-1.3,2.4-1.9,3.5c-0.3,0.7-0.7,1.3-1,2c-0.6,1.1-1.1,2.2-1.7,3.3c-0.3,0.7-0.7,1.4-1,2.1c-0.5,1.1-1,2.3-1.5,3.4
		c-0.3,0.7-0.6,1.4-0.9,2.1c-0.5,1.2-1,2.5-1.6,3.7c-0.2,0.6-0.5,1.2-0.7,1.8c-0.7,1.7-1.3,3.4-2,5.2c0,0.1-0.1,0.3-0.1,0.4
		c-0.7,1.9-1.3,3.7-2,5.6c-0.2,0.5-0.4,1.1-0.5,1.7c-0.4,1.3-0.9,2.7-1.3,4c-0.2,0.7-0.4,1.4-0.6,2.1c-0.4,1.2-0.7,2.5-1.1,3.7
		c-0.2,0.7-0.4,1.5-0.6,2.2c-0.3,1.2-0.6,2.5-0.9,3.7c-0.2,0.7-0.4,1.4-0.5,2.2c-0.3,1.3-0.6,2.6-0.9,3.9c-0.1,0.6-0.3,1.3-0.4,1.9
		c-0.3,1.7-0.7,3.4-1,5.1c0,0.3-0.1,0.5-0.2,0.8c-0.3,2-0.7,3.9-1,5.9c-0.1,0.6-0.2,1.1-0.2,1.7c-0.2,1.1-0.3,2.3-0.5,3.4
		c0.6-7.8,1.6-15.9,3-24c9.5-53.6,37.1-108.6,77.8-154.9c1.1-1.2,2.1-2.4,3.1-3.6C150.9,84.8,151,84.7,151.1,84.6z M415.7,152.6
		c0.9,0.8,1.8,1.6,2.7,2.4c0.3,0.3,0.6,0.5,0.9,0.8c0.7,0.7,1.4,1.4,2.2,2.1c0.4,0.4,0.8,0.8,1.3,1.2c0.6,0.6,1.1,1.1,1.7,1.7
		c0.5,0.5,1.1,1.1,1.6,1.6c0.4,0.4,0.8,0.8,1.3,1.3c0.7,0.7,1.3,1.3,2,2c0.3,0.3,0.6,0.6,0.8,0.9c0.8,0.8,1.5,1.6,2.3,2.4
		c0.2,0.2,0.3,0.3,0.5,0.5c0.9,0.9,1.7,1.9,2.6,2.8c0,0,0.1,0.1,0.1,0.1c10.4,11.5,19.6,23.6,27.1,35.8c0,0,0,0.1,0,0.1
		c-13.3,36.1-36.2,74.4-66.6,110.9c-0.8,1-1.7,2-2.6,3.1c12.1-25.4,18.5-53.5,18.7-81.9c0.1-27.5-4.4-52.3-13.6-74.1
		c-0.1-0.2-0.2-0.4-0.3-0.7c-1.4-3.2-2.8-6.4-4.4-9.5c-0.4-0.7-0.7-1.4-1.1-2.1c-0.4-0.7-0.7-1.4-1.1-2.1c-0.5-0.9-1-1.9-1.6-2.8
		c-0.3-0.5-0.5-1-0.8-1.4c-0.8-1.4-1.7-2.8-2.6-4.2c-0.2-0.3-0.4-0.6-0.6-0.9c-0.8-1.2-1.6-2.4-2.4-3.6c-0.2-0.3-0.4-0.5-0.6-0.8
		c-2.1-3-4.2-5.9-6.5-8.7c0,0,0,0,0-0.1c-4.1-5.1-8.5-9.9-13.3-14.5c0.6,0.3,1.2,0.6,1.8,1c17.6,10.1,34.6,22.5,50,36.4
		C415.4,152.4,415.6,152.5,415.7,152.6z M204.6,110.9c0.4-0.2,0.9-0.3,1.3-0.5c0.7-0.3,1.5-0.6,2.2-0.9c0.5-0.2,1.1-0.4,1.6-0.6
		c0.6-0.2,1.3-0.5,1.9-0.7c0.6-0.2,1.1-0.4,1.7-0.6c0.6-0.2,1.2-0.4,1.8-0.6c0.6-0.2,1.2-0.4,1.7-0.6c0.6-0.2,1.2-0.4,1.8-0.6
		c0.6-0.2,1.2-0.4,1.8-0.6c0.6-0.2,1.2-0.4,1.8-0.6c0.6-0.2,1.2-0.4,1.8-0.5c0.6-0.2,1.2-0.4,1.8-0.5c0.6-0.2,1.2-0.3,1.8-0.5
		c0.6-0.2,1.2-0.3,1.8-0.5c0.6-0.2,1.2-0.3,1.8-0.5c0.6-0.2,1.2-0.3,1.8-0.5c0.6-0.2,1.2-0.3,1.8-0.4c0.6-0.1,1.2-0.3,1.8-0.4
		c0.6-0.1,1.2-0.3,1.8-0.4c0.6-0.1,1.2-0.3,1.8-0.4c0.6-0.1,1.2-0.2,1.8-0.4c0.6-0.1,1.2-0.3,1.8-0.4c0.6-0.1,1.2-0.2,1.8-0.3
		c0.6-0.1,1.2-0.2,1.8-0.3c0.6-0.1,1.2-0.2,1.8-0.3c0.6-0.1,1.2-0.2,1.9-0.3c0.6-0.1,1.2-0.2,1.8-0.3c0.6-0.1,1.3-0.2,1.9-0.3
		c0.6-0.1,1.2-0.2,1.7-0.2c0.6-0.1,1.3-0.2,1.9-0.2c0.6-0.1,1.2-0.1,1.7-0.2c0.6-0.1,1.3-0.1,1.9-0.2c0.6-0.1,1.2-0.1,1.7-0.2
		c0.6-0.1,1.3-0.1,1.9-0.2c0.6,0,1.1-0.1,1.7-0.1c0.6,0,1.3-0.1,1.9-0.1c0.6,0,1.1-0.1,1.7-0.1c0.6,0,1.3-0.1,1.9-0.1
		c0.6,0,1.1,0,1.7-0.1c0.7,0,1.3-0.1,2-0.1c0.6,0,1.1,0,1.7,0c0.7,0,1.3,0,2,0c0.6,0,1.1,0,1.7,0c0.7,0,1.3,0,2,0c0.6,0,1.1,0,1.7,0
		c0.6,0,1.3,0,1.9,0c0.6,0,1.1,0,1.7,0.1c0.6,0,1.3,0,1.9,0.1c0.6,0,1.1,0.1,1.7,0.1c0.6,0,1.3,0.1,1.9,0.1c0.6,0,1.1,0.1,1.7,0.1
		c0.6,0,1.3,0.1,1.9,0.1c0.6,0,1.1,0.1,1.7,0.1c0.6,0.1,1.3,0.1,1.9,0.2c0.6,0.1,1.1,0.1,1.7,0.2c0.6,0.1,1.3,0.1,1.9,0.2
		c0.6,0.1,1.1,0.1,1.7,0.2c0.6,0.1,1.2,0.2,1.9,0.2c0.6,0.1,1.1,0.2,1.7,0.2c0.6,0.1,1.2,0.2,1.8,0.3c0.6,0.1,1.1,0.2,1.7,0.3
		c0.4,0.1,0.8,0.1,1.2,0.2c0.7,0.4,1.3,0.7,2,1.1c0.9,0.5,1.8,1,2.6,1.5c0.5,0.3,1,0.6,1.5,0.9c5.3,3.1,10.4,6.4,15.1,9.9
		c0.5,0.3,0.9,0.7,1.4,1c0.6,0.5,1.2,1,1.9,1.4c0.8,0.6,1.7,1.3,2.5,1.9c0.4,0.3,0.7,0.6,1,0.9c1.1,0.9,2.2,1.8,3.3,2.7
		c0.1,0.1,0.2,0.2,0.3,0.2c33.7,29.3,50.6,69.7,50.3,120.6c-0.2,30.6-7.8,59.5-22.6,86c-11.8,21.1-28.2,39.9-47.8,55.2
		c-4.2,3.3-8.5,6.4-13,9.3c-34.3,22.4-75.7,34.2-119.6,34.2c-27.2,0-51.6-1.6-72.5-4.8c-10.3-12.6-19-27.2-25.9-43.6
		c-1.6-3.7-3-7.5-4.4-11.3c-19.5-55.1-14.8-117.8,12.8-167.6c1-1.7,1.9-3.4,2.9-5.1c21.3-35.6,53.7-63.4,93.7-80.4
		C202.3,111.9,203.5,111.4,204.6,110.9z M294.2,50.6c35.2,24.7,71.7,30.9,113.9,38.2c7.9,1.3,16,2.7,24.5,4.3
		c15.5,2.9,26.9,10.4,33.9,22.3c10.1,17.3,10.7,43.6,1.9,75c-7.7-11.1-16.5-22-26.4-32.4c-0.1-0.1-0.2-0.2-0.3-0.3
		c-0.9-0.9-1.8-1.9-2.7-2.8c-0.2-0.2-0.4-0.4-0.6-0.6c-0.8-0.8-1.6-1.7-2.5-2.5c-0.3-0.3-0.5-0.5-0.8-0.8c-0.7-0.7-1.5-1.4-2.2-2.2
		c-0.4-0.3-0.7-0.7-1.1-1c-0.4-0.4-0.8-0.8-1.2-1.2c-1.6-1.5-3.2-3-4.8-4.5c0,0,0,0,0,0c-1-0.9-2-1.8-3-2.7c-0.1,0-0.1-0.1-0.1-0.1
		c-1-0.9-2-1.8-3.1-2.7c0,0,0,0,0,0c-13.6-11.8-28.4-22.5-43.6-31.4c-0.9-0.5-1.8-1.1-2.8-1.6c-0.3-0.1-0.5-0.3-0.8-0.4
		c-0.1-0.1-0.2-0.1-0.3-0.2c-15.6-8.8-33-15.1-51.8-18.7l0,0l0,0c-0.3-0.2-0.7-0.4-1-0.5c-0.7-0.4-1.4-0.7-2.1-1.1
		c-0.2-0.1-0.5-0.2-0.7-0.3C282.1,65,238.5,54.2,187,50.1C222,24.3,257.2,24.5,294.2,50.6z M23.7,368.5c-14.7-27-11.4-65,9.7-112.9
		c13.7-31.1,19.6-62,24.8-89.3c11.3-59.1,19-99.5,92-102.5c-0.3,0.3-0.6,0.6-0.9,0.9c-0.1,0.1-0.1,0.2-0.2,0.2
		c-0.5,0.5-0.9,1-1.4,1.5c-0.1,0.1-0.2,0.2-0.3,0.3c-0.5,0.5-0.9,1-1.4,1.5c-0.1,0.1-0.2,0.2-0.3,0.3c-0.5,0.5-0.9,1-1.4,1.5
		c-0.1,0.1-0.2,0.3-0.4,0.4c-0.4,0.5-0.9,1-1.3,1.5c-0.1,0.2-0.3,0.3-0.4,0.5c-0.4,0.5-0.9,1-1.3,1.5c-0.2,0.2-0.3,0.4-0.5,0.5
		c-0.5,0.5-1,1.1-1.5,1.6c-0.1,0.1-0.2,0.3-0.4,0.4c-0.6,0.7-1.2,1.4-1.9,2.1l0,0c-21,23.9-38.7,50.2-52.4,77.4
		c-0.1,0.2-0.2,0.5-0.3,0.7c-0.1,0.1-0.1,0.3-0.2,0.4c-13.6,27.3-23.3,55.6-28.2,83.5c-10,56.4-0.3,107,27.3,142.7
		c5,11.7,11,22.7,17.8,32.9C61.9,407.3,36,391.2,23.7,368.5z M481.7,300.5c-7.2,22.1-25.2,39.6-53.5,51.9
		c-50.3,21.8-83.4,52.2-110.1,76.6c-21.7,19.9-40.5,37.2-62.3,44.5c-23.2,7.8-49.7,3.8-83.5-12.7c-12.4-6-24-13.9-34.6-23.6
		c17,1.8,35.7,2.7,56.6,2.7c46.8,0,90.9-12.6,127.6-36.5c31.4-18.9,60.2-44,85.5-74.7c9.9-11.9,18.9-24,27.2-36.2
		c0.2-0.3,0.4-0.6,0.7-1c0.7-1.1,1.5-2.2,2.2-3.3c0.5-0.8,1-1.5,1.5-2.3c1-1.6,2-3.1,3-4.7c0.4-0.6,0.8-1.3,1.2-1.9
		c1.2-1.9,2.3-3.7,3.5-5.6c0.2-0.4,0.4-0.7,0.6-1.1c9.7-16,17.9-31.9,24.4-47.5C488.7,259.7,486.8,284.9,481.7,300.5z"/>
	<path d="M127.1,327.5c19.5,30.4,49.7,51.3,85,58.9c9.5,2,19,3.1,28.5,3.1c25.6,0,50.7-7.4,72.7-21.6c29.7-19.3,48.9-48.1,55.4-83.5
		c5.9-32.2,0.7-68.6-14.7-102.5c-14.6-32.1-41.2-54.7-74.9-63.8c-37.2-10-78.1-1.7-112.1,22.7c-29.5,21.1-50,51.6-57.7,85.9
		C101.5,261.7,107.8,297.5,127.1,327.5z M123.7,229.9c6.9-30.8,25.3-58.2,51.9-77.1c22.1-15.8,47.2-24.1,72-24.1
		c9.4,0,18.7,1.2,27.8,3.6c29.4,7.9,52.6,27.6,65.3,55.6c14.1,31.1,19,64.4,13.6,93.8c-5.7,31.3-22.7,56.8-48.9,73.8l0,0
		c-26.9,17.4-58.9,23.3-90.2,16.6c-31.4-6.8-58.3-25.4-75.7-52.5C122.3,292.9,116.7,261,123.7,229.9z"/>
</g>
</svg>
