<?xml version="1.0" encoding="iso-8859-1"?>
<!-- Generator: Adobe Illustrator 19.0.0, SVG Export Plug-In . SVG Version: 6.00 Build 0)  -->
<svg version="1.1" id="Layer_1" xmlns="http://www.w3.org/2000/svg" xmlns:xlink="http://www.w3.org/1999/xlink" x="0px" y="0px"
	 viewBox="0 0 500 500" style="enable-background:new 0 0 500 500;" xml:space="preserve">
<path d="M7.623,254.37c0-2.706,0-5.411,0-8.117c2.642-3.301,5.103-6.768,7.955-9.877c40.574-44.23,81.197-88.414,121.828-132.591
	c1.19-1.294,2.585-2.398,4.104-3.792c36.805,38.751,73.229,77.102,110.065,115.885c1.769-2.029,2.973-3.485,4.255-4.87
	c17.442-18.854,34.901-37.692,52.344-56.545c17.244-18.638,34.476-37.288,51.713-55.933c0.541,0,1.082,0,1.623,0
	c2.438,3.133,4.673,6.452,7.345,9.371c38.71,42.298,77.485,84.538,116.221,126.813c2.189,2.389,4.411,4.805,6.214,7.48
	c4.941,7.33,4.462,13.186-1.485,19.744c-9.083,10.017-18.229,19.978-27.368,29.945c-29.427,32.096-58.854,64.192-88.302,96.268
	c-4.711,5.131-9.528,10.164-14.483,15.44c-36.349-39.528-72.158-78.468-108.431-117.914
	c-36.781,39.68-72.936,78.686-109.318,117.935c-9.261-10.091-18.036-19.64-26.798-29.2c-32.712-35.69-65.463-71.344-98.069-107.13
	C13.469,263.369,10.74,258.693,7.623,254.37z M142.657,332.845c25.812-27.821,51.275-55.267,77.125-83.129
	c-25.914-27.121-51.249-53.634-76.894-80.474c-1.604,1.473-2.832,2.465-3.904,3.605c-17.966,19.106-35.925,38.219-53.854,57.36
	c-3.881,4.143-7.761,8.298-11.421,12.633c-3.407,4.036-4.351,8.702-1.846,13.543c0.971,1.877,2.576,3.462,4.041,5.043
	c20.585,22.208,41.191,44.396,61.81,66.572C139.145,329.537,140.715,330.948,142.657,332.845z M360.512,332.161
	c18.099-19.361,35.453-37.922,52.802-56.488c1.846-1.975,3.685-3.957,5.489-5.971c1.623-1.811,3.319-3.576,4.766-5.523
	c7.008-9.427,7.016-18.425-0.897-27.098c-19.861-21.768-40.025-43.26-60.089-64.842c-0.889-0.957-1.992-1.716-3.509-3.003
	c-25.331,27.331-50.44,54.424-75.877,81.869C309.069,278.229,334.586,304.981,360.512,332.161z"/>
</svg>
