<?xml version="1.0" encoding="iso-8859-1"?>
<!-- Generator: Adobe Illustrator 19.0.0, SVG Export Plug-In . SVG Version: 6.00 Build 0)  -->
<svg version="1.1" id="Layer_1" xmlns="http://www.w3.org/2000/svg" xmlns:xlink="http://www.w3.org/1999/xlink" x="0px" y="0px"
	 viewBox="0 0 500 500" style="enable-background:new 0 0 500 500;" xml:space="preserve">
<path d="M488.435,137.288c-3.655,25.786-14.303,48.936-27.314,70.974c-18.862,31.948-44.982,56.825-77.414,74.815
	c-26.069,14.461-53.916,22.579-83.918,24.613c-36.337,2.464-72.66,2.3-109.01,2.337c-3.096,0.003-6.193-0.372-10.578-0.654
	c1.316-14.056,8.514-25.29,12.694-37.396c4.261-12.342,9.672-24.287,14.685-36.667c9.026,0,16.988,0.184,24.939-0.033
	c27.54-0.753,55.135-0.799,82.601-2.686c40.406-2.776,73.55-28.445,84.923-67.902c4.207-14.595,2.798-29.676-10.819-40.292
	c-6.712-5.233-14.441-8.213-23.13-8.464c-27.539-0.795-55.071-2.118-82.614-2.421c-38.386-0.422-76.78-0.107-115.171-0.107
	c-4.312,0-8.623,0-13.528,0c-1.666-10.409,4.49-17.484,7.11-25.426c2.738-8.303,6.396-16.302,9.613-24.449
	c3.191-8.082,6.334-16.183,9.662-24.698c4.146,0,7.278-0.003,10.41,0c60.785,0.063,121.581-0.5,182.35,0.524
	c21.783,0.367,43.9,0.571,65.308,6.506c26.251,7.277,42.105,24.444,49.011,50.464C491.84,111.935,489.021,133.154,488.435,137.288z
	 M297.407,132.26c-75.468-0.043-150.937-0.053-226.405,0.025c-3.022,0.003-6.043,0.933-8.919,1.407
	c-10.66,27.445-20.974,54.001-31.471,81.027c2.701,0.881,4.152,1.767,5.604,1.769c79.416,0.067,158.831,0.059,239.143,0.059
	c10.706-27.087,21.289-53.862,31.656-80.092C304.822,131.18,300.827,132.262,297.407,132.26z M99.635,243.301
	c-3.654,8.818-6.835,17.831-10.32,26.721c-13.798,35.196-27.675,70.361-41.456,105.564c-9.867,25.207-19.677,50.437-29.361,75.715
	c-1.036,2.705-1.06,5.797-1.694,9.541c27.965,0,54.55,0,81.865,0c1.518-2.592,3.489-5.12,4.594-7.981
	c7.884-20.407,15.423-40.947,23.388-61.322c19.131-48.94,38.431-97.813,57.677-146.708c1.36-3.455,2.492-6.831-1.238-10.091
	c-25.581,0-51.43,0-78.25,0C103.269,237.269,100.967,240.084,99.635,243.301z"/>
</svg>
