<?xml version="1.0" encoding="iso-8859-1"?>
<!-- Generator: Adobe Illustrator 19.0.0, SVG Export Plug-In . SVG Version: 6.00 Build 0)  -->
<svg version="1.1" id="Layer_1" xmlns="http://www.w3.org/2000/svg" xmlns:xlink="http://www.w3.org/1999/xlink" x="0px" y="0px"
	 viewBox="0 0 500 500" enable-background="new 0 0 500 500" xml:space="preserve">
<path d="M218.28,165.56c6.608,8.138,11.156,13.738,16.929,20.848c-4.557-32.072-5.366-62.535,3.983-93.737
	c15.086,6.097,26.783,15.925,38.947,26.111C258.858,83.096,252.73,45.897,263.717,5c7.563,3.739,14.295,6.464,20.419,10.189
	c63.996,38.922,98.208,96.056,94.327,170.799c-4.169,80.304-46.688,136.246-121.46,167.001c-7.531,3.098-15.178,6.035-22.369,9.811
	c-18.891,9.919-33.341,23.715-42.585,43.769c-9.341,20.266-20.631,39.754-32.47,58.707c-7.753,12.411-18.214,23.016-34.678,29.695
	C156.04,385.123,186.708,276.937,218.28,165.56z"/>
</svg>
