<?xml version="1.0" encoding="iso-8859-1"?>
<!-- Generator: Adobe Illustrator 19.0.0, SVG Export Plug-In . SVG Version: 6.00 Build 0)  -->
<svg version="1.1" id="Layer_1" xmlns="http://www.w3.org/2000/svg" xmlns:xlink="http://www.w3.org/1999/xlink" x="0px" y="0px"
	 viewBox="0 0 2000 2000" style="enable-background:new 0 0 2000 2000;" xml:space="preserve">
<path d="M33.866,1958.413c0-20.596,0-38.908,0-57.221c0.004-423.48,0.494-846.96-0.43-1270.438
	c-0.168-76.992,24.698-141.266,79.043-195.375C221.259,327.071,329.405,218.125,437.93,109.558
	c49.726-49.746,108.008-78.451,180.231-78.369c438.662,0.499,877.326,0.174,1315.989,0.253c8.295,0.002,16.589,1.589,28.732,2.829
	c0,640.755,0,1280.672,0,1924.141C1321.314,1958.413,680.966,1958.413,33.866,1958.413z M271.453,753.316
	c67.313,1.21,123.23-53.451,123.292-120.522c0.059-63.339-55.23-119.456-118.998-120.78
	c-64.252-1.335-120.243,51.887-122.495,116.438C150.893,696.09,203.916,752.102,271.453,753.316z M153.251,1358.92
	c-0.609,66.647,55.742,123.024,122.039,122.096c63.421-0.887,119.051-56.992,119.335-120.354
	c0.291-64.785-52.959-119.639-117.641-121.184C208.834,1237.849,153.872,1290.905,153.251,1358.92z M1725.889,1239.3
	c-64.678,1.043-118.138,55.197-118.774,120.314c-0.634,64.917,58.344,122.946,123.505,121.518
	c64.71-1.418,118.118-56.227,118.009-121.104C1848.514,1292.519,1793.302,1238.212,1725.889,1239.3z M1848.677,997.509
	c0.782-67.15-54.109-121.926-121.868-121.612c-64.067,0.296-118.749,54.906-119.646,119.488
	c-0.878,63.237,53.811,120.017,117.507,122C1791.063,1119.453,1847.897,1064.513,1848.677,997.509z M756.846,635.078
	c1.068-65.649-50.198-120.404-115.209-123.05c-66.573-2.71-123.11,51.681-123.859,119.156
	c-0.739,66.586,49.716,120.299,114.939,122.362C700.959,755.705,755.734,703.427,756.846,635.078z M1484.034,268.711
	c0.15-66.247-51.103-119.576-116.785-121.515c-66.233-1.956-122.443,53.732-122.343,121.205
	c0.102,68.597,53.812,121.631,122.128,120.588C1432.69,387.988,1483.883,335.359,1484.034,268.711z M1484.312,1362.958
	c1.022-69.096-51.209-123.382-118.937-123.616c-66.28-0.229-118.37,50.585-120.275,117.328
	c-1.927,67.508,52.223,124.139,118.994,124.447C1428.964,1481.415,1483.351,1427.959,1484.312,1362.958z M1244.604,1724.551
	c1.136,67.391,57.468,121.526,124.132,119.291c65.315-2.19,116.208-56.178,115.475-122.498
	c-0.754-68.257-55.606-120.783-123.709-118.462C1294.536,1605.129,1243.495,1658.712,1244.604,1724.551z M1730.287,1602.579
	c-68.062-0.46-123.07,53.675-122.903,120.952c0.16,64.504,54.407,119,119.099,119.644c67.999,0.677,122.25-53.123,122.105-121.088
	C1848.448,1656.697,1795.311,1603.018,1730.287,1602.579z M639.369,1239.361c-67.976-1.263-121.23,51.611-121.608,120.743
	c-0.356,65.03,51.913,118.998,117.151,120.958c64.116,1.927,119.986-51.499,121.788-116.458
	C758.618,1295.411,707.291,1240.623,639.369,1239.361z M999.407,1842.688c66.674,0.985,119.273-49.356,120.86-115.672
	c1.66-69.358-49.956-123.95-117.633-124.417c-66.405-0.458-119.604,50.456-121.325,116.115
	C879.492,1787.971,930.649,1841.673,999.407,1842.688z"/>
</svg>
