<?xml version="1.0" encoding="iso-8859-1"?>
<!-- Generator: Adobe Illustrator 19.0.0, SVG Export Plug-In . SVG Version: 6.00 Build 0)  -->
<svg version="1.1" id="Layer_1" xmlns="http://www.w3.org/2000/svg" xmlns:xlink="http://www.w3.org/1999/xlink" x="0px" y="0px"
	 viewBox="0 0 2000 2000" style="enable-background:new 0 0 2000 2000;" xml:space="preserve">
<path d="M20.085,1001.633c0.078-541.689,440.077-986.541,992.311-980.76c534.422,5.595,974.396,441.313,969.493,992.227
	c-4.742,532.764-447.273,991.126-1023.228,968.558C451.215,1961.775,21.634,1544.618,20.085,1001.633z M1001.255,1894.222
	c484.019,2.96,888.53-391.111,893.01-882.253c4.604-504.813-397.573-890.993-867.553-903.346
	c-513.994-13.51-922.525,401.093-919.255,898.962C110.7,1501.299,516.035,1897.56,1001.255,1894.222z M163.669,1001.585
	c0.366-465.552,376.303-840.522,844.826-837.221c460.339,3.244,824.336,376.288,830.084,827.819
	c5.948,467.24-381.79,865.63-872.737,846.506C532.968,1821.827,163.745,1463.443,163.669,1001.585z M789.232,933.472
	c-18.548,2.667-35.092,4.698-51.513,7.463c-105.074,17.691-193.124,65.351-255.034,153.307
	c-64.209,91.223-84.108,191.666-47.431,299.264c28.784,84.442,107.035,148.491,202.953,149.251
	c146.302,1.158,292.618,0.455,438.929,0.479c1.479,0,2.958-0.857,6.457-1.938c0-304.921,0-610.112,0-915.872
	c91.495,0,180.863-0.276,270.228,0.154c30.111,0.145,47.948,13.665,58.269,42.162c9.266,25.585,9.771,51.818,3.226,78.021
	c-20.582,82.402-76.329,128.64-155.841,149.464c-18.45,4.832-37.598,7.001-57.682,10.622c3.648,54.513,7.21,107.746,10.914,163.094
	c13.281-1.508,24.936-2.657,36.541-4.177c107.399-14.068,197.815-60.166,263.763-147.046
	c65.231-85.935,87.825-182.925,60.065-288.525c-27.431-104.347-114.662-169.507-222.968-169.508c-137.105-0.002-274.211,0-411.316,0
	c-6.293,0-12.587,0-20.498,0c0,307.599,0,612.987,0,917.617c-2.572,1.234-3.514,2.083-4.458,2.083
	c-87.779,0.094-175.56,0.554-263.334-0.08c-30.022-0.217-51.201-15.563-61.101-44.453c-8.609-25.123-9.043-50.832-2.92-76.562
	c16.733-70.319,61.3-116.399,127.669-141.018c26.812-9.945,55.777-14.083,85.852-21.371
	C796.552,1043.891,792.985,990.088,789.232,933.472z"/>
</svg>
