<?xml version="1.0" encoding="iso-8859-1"?>
<!-- Generator: Adobe Illustrator 19.0.0, SVG Export Plug-In . SVG Version: 6.00 Build 0)  -->
<svg version="1.1" id="Layer_1" xmlns="http://www.w3.org/2000/svg" xmlns:xlink="http://www.w3.org/1999/xlink" x="0px" y="0px"
	 viewBox="0 0 2000 2000" style="enable-background:new 0 0 2000 2000;" xml:space="preserve">
<path d="M908.51,1978.282c0-163.489,0-324.552,0-488.815c87.78,0,169.632,0.484,251.477-0.117
	c112.583-0.827,218.508-25.235,307.588-98.1c127.459-104.257,178.173-243.765,174.083-404.275
	c-5.194-203.823-109.995-375.606-317.511-441.435c-48.576-15.409-102.599-18.279-154.189-18.744
	c-215.146-1.937-430.32-0.798-645.483-0.558c-8.241,0.009-16.48,2.371-28.42,4.205c0,71.976,0,143.329,0,222.732
	c41.487,0,83.854,0,129.067,0c0,387.748,0,767.513,0,1155.015c-148.859-56.109-267.625-146.92-366.542-261.67
	C86.586,1447,1.089,1212.558,18.525,949.318C57.271,364.355,548.221-17.911,1068.06,20.435
	c553.554,40.833,975.607,517.382,908.003,1102.096C1915.586,1645.602,1442.146,2032.354,908.51,1978.282z M907.647,1250.863
	c88.614,0,172.92,3.836,256.73-0.976c103.606-5.949,171.41-83.513,184.036-158.699c6.94-41.33,11.281-83.983,9.472-125.722
	c-4.55-104.979-83.603-198.649-178.888-205.201c-88.457-6.083-177.66-1.298-271.35-1.298
	C907.647,925.506,907.647,1088.312,907.647,1250.863z"/>
</svg>
