<?xml version="1.0" encoding="utf-8"?>
<!-- Generator: Adobe Illustrator 25.1.0, SVG Export Plug-In . SVG Version: 6.00 Build 0)  -->
<svg version="1.1" id="perl" xmlns="http://www.w3.org/2000/svg" xmlns:xlink="http://www.w3.org/1999/xlink" x="0px" y="0px"
	 viewBox="0 0 500 500" style="enable-background:new 0 0 500 500;" xml:space="preserve">
<style type="text/css">
	.st0{fill-rule:evenodd;clip-rule:evenodd;}
</style>
<path class="st0" d="M258.7,0c-2.9-0.1-5.8-0.1-8.8,0c-4.1,0-7.8,0-12.1,0h-0.5C99.5,6.9-6.6,124.3,0.3,262.2
	c3.9,77.3,43.4,148.5,107,192.7c4.6,4.1,9.6,7.7,14.9,10.8c1.3,0.7,2.8,1.1,4.3,1.3c21.2,12.1,44.1,21,67.9,26.4
	c3.9,1.3,7.9,2.3,11.9,2.7c14.5,2.6,29.1,3.9,43.8,3.9c138.1,2.4,251.9-107.5,254.3-245.6S396.8,2.4,258.7,0z M23.9,250H24
	C23.9,128.7,119.7,28.9,240.9,24.1c75.4,3.2,133.9,66.9,130.7,142.3c-1.6,38.5-19.5,74.5-49.1,99.2c-26.4-38.9-79.4-49-118.3-22.6
	c-20.9,14.2-34.4,36.9-36.9,62h-3.7c-47.3,0-85.7,38.4-85.7,85.7c0,2.1,0,4.1,0.5,6.2C43.2,356,23.8,303.9,23.9,250z M156.3,455.1
	l0.1,0.6c-12.5-5.6-24.4-12.4-35.6-20.2c-24.5-23.8-25.1-62.9-1.3-87.4c11.7-12,27.8-18.8,44.5-18.7c4.8,0,10.4,0,15-0.5
	c6.4-0.3,11.4-5.5,11.5-11.9v-3.1c0-33.9,27.4-61.4,61.3-61.4c24.2,0,46.2,14.2,56.1,36.3c2.7,5.9,9.6,8.6,15.6,6
	c0.6-0.3,1.2-0.7,1.7-1.2c67.4-45.8,89.6-134.9,51.7-207c31.8,41.2,37.1,92.1,37.1,120.8c0,79.5-66.2,139.8-128.5,155.8
	c-26.7,6.4-53.7,11-81,13.9c-29.5,4.2-51.4,29.4-51.5,59.2C153.1,442.7,154.2,449,156.3,455.1z M413.9,405.9
	C371.3,450.7,312.1,476,250.3,476l-0.4-0.1c-16.7-0.1-33.4-2-49.7-5.7c-18.5-7-27.9-27.8-20.9-46.3c4.6-12.2,15.4-20.9,28.3-22.8
	c28.4-3.1,56.5-8,84.2-14.6c70.9-18.6,146.3-87.8,146.2-179.2c1.1-42.5-10-84.4-31.9-120.8C496.5,172.6,499.9,315.6,413.9,405.9z"/>
</svg>
