<?xml version="1.0" encoding="iso-8859-1"?>
<!-- Generator: Adobe Illustrator 19.0.0, SVG Export Plug-In . SVG Version: 6.00 Build 0)  -->
<svg version="1.1" id="Layer_1" xmlns="http://www.w3.org/2000/svg" xmlns:xlink="http://www.w3.org/1999/xlink" x="0px" y="0px"
	 viewBox="0 0 500 500" enable-background="new 0 0 500 500" xml:space="preserve">
<path d="M67.212,317.187c15.615-7.311,31.269-14.641,47.3-22.148c-0.775-3.54-1.701-7.105-2.308-10.723
	c-0.635-3.781-1.357-7.614-1.365-11.425c-0.089-43.182-0.047-86.365-0.041-129.547c0-0.727,0-1.454,0-3.023
	c1.745-0.605,3.649-1.771,5.608-1.871c37.06-1.889,70.988-13.47,102.191-33.207c6.196-3.919,11.675-8.989,17.396-13.638
	c2.631-2.137,4.949-4.795,9.054-3.28c17.79,18.693,40.688,28.42,65.042,35.426c13.985,4.023,28.136,7.219,42.73,8.115
	c5.423,0.333,10.847,0.808,16.235,1.492c1.851,0.235,3.597,1.301,5.583,2.06c0,12.929,0,25.191,0,37.726c17.434,0,34.388,0,51.72,0
	c2.562-11.222,8.696-19.974,19.379-24.929c6.806-3.156,13.992-4.322,21.449-2.406c16.251,4.175,26.961,18.279,27.049,31.599
	c0.12,18.291-10.502,32.306-25.399,35.411c-15.251,3.179-36.214-3.409-42.764-28.232c-17.016,0-34.093,0-51.571,0
	c-0.081,1.583-0.216,2.989-0.217,4.395c-0.014,27.248-0.161,54.496,0.046,81.742c0.109,14.374-4.271,27.425-10.662,39.945
	c-10.757,21.073-26.776,37.719-44.682,52.81c-21.894,18.453-46.071,33.288-71.638,45.984c-1.49,0.74-3.067,1.303-5.142,2.175
	c-5.952-2.942-12.378-5.678-18.363-9.17c-11.841-6.909-23.653-13.911-35.086-21.466c-17.239-11.391-32.789-24.868-46.68-40.194
	c-9.56-10.547-17.047-22.516-23.6-35.406c-15.243,7.109-30.345,14.153-45.885,21.401c0,5.446,0.583,10.969-0.116,16.324
	c-1.667,12.773-12.287,23.641-25.284,26.62c-22.772,5.219-42.877-11.591-42.174-34.15c0.72-23.095,23.582-38.197,43.257-31.422
	C58.364,307.649,60.546,308.817,67.212,317.187z M120.992,148.191c-0.095,1.005-0.264,1.953-0.263,2.9
	c0.025,39.52,0.091,79.041,0.089,118.561c-0.001,12.976,3.293,25.062,9.284,36.503c8.421,16.083,19.968,29.706,33.238,41.903
	c23.085,21.217,49.476,37.584,77.208,51.904c1.204,0.622,3.345,0.38,4.64-0.273c16.565-8.346,32.553-17.67,47.691-28.429
	c20.805-14.787,40.026-31.217,54.594-52.466c10.692-15.595,17.15-32.445,16.979-51.806c-0.356-40.369-0.12-80.743-0.135-121.115
	c0-0.939-0.106-1.879-0.152-2.647c-44.72-3.65-86.764-14.028-121.953-43.31C207.13,129.044,166.456,143.979,120.992,148.191z
	 M39.437,313.488c-13.048-0.012-23.256,9.889-23.619,22.217c-0.409,13.89,11,24.521,23.762,24.185
	c12.836-0.338,22.709-10.186,22.986-23.205C62.8,325.742,52.371,312.128,39.437,313.488z M437.045,179.778
	c-0.029,12.268,11.006,23.096,23.627,23.184c12.183,0.084,23.309-11.042,23.02-23.595c-0.291-12.695-10.385-22.969-23.794-23.408
	C446.462,155.519,436.582,167.367,437.045,179.778z M217.101,257.646c14.07-13.964,27.99-27.728,41.852-41.551
	c11.753-11.719,23.406-23.539,35.202-35.215c1.336-1.322,3.313-1.995,5.567-3.302c8.155,8.475,15.905,16.531,23.969,24.913
	c0.817,2.981-1.552,4.979-3.55,7.004c-8.497,8.615-17.062,17.162-25.618,25.719c-23.83,23.832-47.664,47.661-71.516,71.472
	c-1.187,1.185-2.562,2.181-3.465,2.942c-3.462,0.904-5.497-0.446-7.535-2.502c-12.647-12.761-25.41-25.407-38.083-38.143
	c-1.146-1.151-1.928-2.665-3.118-4.349c1.307-1.816,2.284-3.612,3.664-5.013c5.832-5.923,11.734-11.78,17.711-17.559
	c3.742-3.618,5.833-3.572,9.569,0.113C206.837,247.194,211.821,252.315,217.101,257.646z M298.464,190.622
	c-0.719,0.601-1.017,0.814-1.272,1.069c-22.364,22.353-44.712,44.723-67.1,67.051c-3.98,3.969-8.131,7.767-12.836,12.247
	c-7.107-6.813-13.521-12.963-20.584-19.735c-4.2,5.002-8.134,9.688-11.452,13.639c10.273,10.282,21.231,21.25,31.91,31.938
	c30.795-31.08,61.957-62.53,93.26-94.123C307.245,199.522,302.929,195.147,298.464,190.622z"/>
</svg>
