<?xml version="1.0" encoding="iso-8859-1"?>
<!-- Generator: Adobe Illustrator 19.0.0, SVG Export Plug-In . SVG Version: 6.00 Build 0)  -->
<svg version="1.1" id="Layer_1" xmlns="http://www.w3.org/2000/svg" xmlns:xlink="http://www.w3.org/1999/xlink" x="0px" y="0px"
	 viewBox="0 0 2000 2000" style="enable-background:new 0 0 2000 2000;" xml:space="preserve">
<path d="M1649.244,572.345c8.104-9.645,11.16-16.997,16.047-18.537c63.643-20.058,128.354-28.807,189.24,5.605
	c75.172,42.486,91.703,160.211,34.587,223.768c-43.372,48.263-96.83,81.702-154.401,109.743
	c-99.893,48.654-206.897,72.911-315.276,92.661c-12.117,2.208-24.114,5.557-35.79,9.493c-5.523,1.862-10.156,6.362-16.627,10.608
	c6.133,38.381,45.666,38.536,69.469,64.376c-0.995,8.583-2.455,21.188-3.758,32.429c-9.295,2.551-15.093,6.196-17.902,4.595
	c-27.763-15.823-59.295-28.17-81.482-49.938c-37.302-36.598-24.502-88.672,26.24-108.15c37.199-14.279,77.51-21.068,116.884-28.94
	c90.082-18.009,178-43.069,258.523-87.674c37.61-20.833,72.454-47.793,105.268-75.82c30.813-26.317,40.049-61.342,24.351-101.219
	c-15.182-38.568-42.072-61.66-83.818-62.164c-35.333-0.426-70.712,3.067-111.68,5.104
	C1665.125,593.072,1658.062,583.854,1649.244,572.345z M1381.574,761.853c91.706-78.128,175.877-163.222,233.385-269.956
	c22.394-41.562,39.102-88.266,47.893-134.62c15.447-81.446-70.106-170.713-151.985-161.284
	c-66.113,7.613-117.445,43.602-167.699,104.115c10.408,10.917,19.239,20.181,27.942,29.31c39.149-27.39,65.713-48.88,94.942-65.75
	c44.914-25.924,83.71-19.149,118.631,15.252c31.814,31.341,34.058,68.002,20.661,107.477
	c-24.32,71.661-63.336,135.546-114.285,190.385c-54.855,59.044-115.487,112.686-172.622,169.664
	c-29.324,29.243-66.299,58.687-44.603,107.206c22,49.197,69.963,43.862,113.39,44.918c1.55,0.038,3.399,0.392,4.61-0.289
	c10.255-5.759,26.066-9.708,29.071-18.159c3.414-9.604-4.652-23.289-6.745-31.397c-34.468-9.453-66.191,7.104-97.19-21.941
	C1339.022,804.433,1358.736,781.31,1381.574,761.853z M1369.561,1195.976c26.808,7.259,52.749,17.797,78.921,27.321
	c121.057,44.05,245.455,64.403,374.224,51.486c91.928-9.222,147.023-59.183,154.938-138.554
	c9.781-98.079-78.7-186.287-192.282-185.321c-1.534,12.683-3.168,26.187-4.499,37.184c37.526,18.243,70.867,31.399,100.949,49.865
	c35.775,21.96,53.843,55.3,44.871,98.966c-9.146,44.513-37.657,70.601-81.056,79.429c-25.727,5.234-52.187,8.532-78.419,9.318
	c-110.034,3.295-215.044-22.024-318.174-57.785c-33.56-11.637-67.287-23.94-101.943-31.016
	c-59.178-12.083-97.593,30.024-80.171,88.394c8.177,27.398,24.798,52.276,41.139,85.509c18.203-11.172,31.318-19.221,43.678-26.807
	c-15.546-33.149-27.776-59.228-44.241-94.337C1334.615,1192.159,1352.8,1191.437,1369.561,1195.976z M1004.883,642.297
	c-22.628-18.188-22.223-44.387-26.369-67.874c-21.1-119.514-49.132-237.15-111.095-342.776
	c-24.771-42.227-55.657-82.498-90.549-116.741c-42.851-42.054-97.502-43.884-151.776-20.553
	c-53.199,22.869-84.593,64.161-85.322,122.178c-0.52,41.387,7.262,82.889,11.706,124.3c0.273,2.542,3.759,4.74,9.791,11.882
	c8.92-0.839,21.355-2.009,38.806-3.651c-2.928-27.475-6.826-50.058-7.347-72.719c-0.564-24.534-1.645-50.02,3.994-73.533
	c11.864-49.463,69.691-81.937,116.778-63.954c21.88,8.356,42.423,26.124,57.865,44.438
	c79.241,93.981,114.808,207.572,140.824,324.974c9.711,43.823,17.386,88.171,29.011,131.469
	c7.469,27.821,24.064,51.599,55.806,55.935c32.81,4.482,57.028-12.086,74.157-38.429c13.264-20.399,24.186-42.321,38.682-68.062
	c-14.249-9.245-24.608-15.967-34.11-22.133C1039.865,588.449,1043.095,633.477,1004.883,642.297z M1204.32,596.729
	c40.185-100.487,63.986-204.6,67.098-312.207c1.505-52.027-4.32-105.631-16.187-156.331c-14.66-62.631-63.899-93.56-125.318-102.329
	c-57.946-8.274-104.938,15.694-135.235,63.858c-21.13,33.592-33.906,72.468-49.96,109.182c-1.661,3.798-0.223,8.952-0.223,18.41
	c10.34,4.56,21.727,9.582,36.781,16.222c8.398-18.688,14.363-32.473,20.75-46.058c9.854-20.96,18.543-42.646,30.325-62.481
	c23.202-39.062,57.967-54.08,102.982-44.817c43.517,8.955,70.201,37.305,74.113,79.079c5.748,61.394,13.074,124.73,4.089,184.903
	c-12.259,82.101-39.315,161.984-59.842,242.865c-7.604,29.961-18.408,59.718-21.17,90.165
	c-4.721,52.035,33.045,82.266,83.616,66.815c28.694-8.767,54.878-25.749,88.914-42.3c-12.129-18.288-20.032-30.203-27.469-41.416
	c-32.234,14.659-58.321,26.524-89.54,40.722C1177.649,656.377,1192.664,625.878,1204.32,596.729z M569.269,785.654
	c-107.1-40.808-217.949-62.49-332.005-59.763c-45.331,1.084-93.385,10.737-134.753,28.896
	C22.962,789.705-0.181,906.914,54.507,974.067c40.07,49.203,95.594,69.823,162.544,87.036c2.248-20.238,3.851-34.672,5.055-45.512
	c-38.058-18.901-70.982-32.65-101.156-50.938c-32.969-19.982-48.721-50.888-42.777-90.764c6.351-42.603,29.282-71.779,71.131-82.606
	c23.815-6.162,48.768-9.301,73.388-10.742c119.81-7.015,233.582,20.383,345.564,60.197c36.046,12.816,74.343,23.256,112.232,25.915
	c45.744,3.209,74.187-37.587,60.382-81.795c-7.278-23.308-20.397-44.969-32.244-66.626c-12.865-23.518-29.579-23.14-52.263-2.442
	c11.482,30.819,23.153,62.144,36.521,98.027C642.292,818.338,605.917,799.619,569.269,785.654z M1742.182,1468.118
	c19.468,35.641,17.29,71.746-9.992,103.981c-27.503,32.497-61.978,48.174-103.387,33.058
	c-34.684-12.66-69.159-27.564-100.921-46.244c-97.544-57.369-176.166-136.228-247.849-222.96
	c-19.489-23.58-42.409-45.915-67.829-62.621c-36.126-23.742-77.85-9.532-91.541,29.706c-12.279,35.19-16.393,72.168-0.207,114.108
	c13.959-2.266,27.596-4.479,37.723-6.123c14.929-33.566-8.147-68.234,25.08-98.974c20.552,20.613,40.944,40.598,60.816,61.088
	c49.64,51.184,96.445,105.468,149.189,153.202c68.251,61.767,145.924,108.912,236.872,132.621
	c104.794,27.318,196.948-93.159,172.013-173.281c-15.248-48.996-39.849-90.137-73.615-127.039
	c-3.729-4.075-11.136-4.784-17.632-7.371c-6.426,4.84-13.018,8.905-18.391,14.205c-3.011,2.969-4.005,7.984-7.485,15.468
	C1705.218,1411.358,1725.996,1438.484,1742.182,1468.118z M306.522,600.821c-16.567-24.157-34.343-47.873-47.589-73.824
	c-18.311-35.875-8.373-68.94,17.387-98.577c30.723-35.347,70.225-41.239,110.151-25.722c41.536,16.143,82.166,36.765,119.524,61.067
	c81.23,52.841,148.706,121.244,211.126,195.236c23.639,28.022,51.537,53.631,81.383,74.876c25.264,17.983,51.974,11.107,71.71-9.215
	c22.892-23.571,33.965-96.685,17.517-132.8c-8.103-2.215-19.108-5.222-37.624-10.283c-2.57,22.325-3.928,39.771-6.743,56.978
	c-2.748,16.795-6.984,33.346-12.745,60.137c-21.017-19.135-33.917-29.466-45.162-41.362
	c-50.078-52.971-97.427-108.747-150.011-159.069c-71.171-68.11-153.932-117.151-248.128-150.773
	c-87.906-31.377-212.252,58.308-182.238,177.65c13.035,51.831,41.486,96.168,86.255,131.803
	C324.291,633.831,325.19,628.042,306.522,600.821z M232.492,1413.397c-54.582-0.276-85.876-28.156-97.759-81.063
	c-8.51-37.89,4.979-70.161,33.87-90.422c50.382-35.332,102.616-69.286,157.771-96.256c85.4-41.76,178.954-58.56,271.906-75.909
	c36.812-6.871,72.596-17.648,90.436-54.646c2.859-64.071-22.087-93.046-106.677-120.1c-5.759,12.398-11.868,25.549-17.471,37.611
	c29.489,21.132,53.667,38.459,78.814,56.48c-20.847,29.121-47.424,28.747-70.824,32.752
	c-105.735,18.097-208.715,44.688-305.695,91.798c-56.257,27.328-108.899,59.98-150.033,107.75
	c-38.878,45.15-45.358,97.173-24.216,152.261c20.755,54.078,59.66,87.794,118.408,89.539c39.721,1.179,79.693-5.417,119.504-9.069
	c4.005-0.368,7.67-4.436,14.181-8.439c-1.466-10.958-2.994-22.379-5.325-39.8C299.583,1408.866,266.025,1413.567,232.492,1413.397z
	 M797.394,1417.258c-46.432,123.371-71.425,250.224-62.427,382.259c2.073,30.418,9.484,61.293,19.509,90.198
	c33.082,95.383,181.747,123.347,245.617,40.792c28.937-37.403,48.238-78.716,62.466-131.647
	c-16.179-4.426-31.088-8.504-44.27-12.109c-17.41,35.744-29.636,66.035-46.257,93.683c-21.885,36.406-55.2,54.19-98.623,45.401
	c-42.163-8.534-71.657-34.354-77.17-76.746c-6.751-51.911-11.734-105.049-8.357-157.064c6.248-96.235,30.063-189.298,65.814-279.263
	c9.653-24.291,16.476-50.311,20.338-76.173c8.473-56.749-35.52-94.535-89.133-75.421c-28.224,10.062-53.745,27.703-78.932,41.095
	c10.94,41.173,19.37,46.062,47.613,32.65c19.011-9.028,37.72-18.694,61.52-30.542
	C826.902,1352.151,809.662,1384.66,797.394,1417.258z M686.52,1177.514c-13.41,15.444-25.836,31.891-40.404,46.153
	c-54.279,53.138-111.722,103.272-163.344,158.838c-61.677,66.389-109.475,142.829-135.07,230.763
	c-18.709,64.277-2.312,119.176,51.224,161.765c50.69,40.324,104.966,43.123,160.713,13.917
	c24.478-12.824,46.62-30.361,68.961-46.921c15.264-11.315,22.258-25.847,8.463-43.278c-20.421-13.918-35.068-1.8-50.47,9.336
	c-17.528,12.674-34.887,25.992-53.848,36.187c-36.216,19.473-71.594,17.463-103.255-10.791
	c-31.369-27.994-49.77-62.419-31.717-103.447c22.924-52.097,46.609-104.752,77.556-152.218
	c46.771-71.736,107.395-132.104,173.669-186.88c27.274-22.542,53.554-47.905,74.283-76.358
	c29.091-39.93,13.564-85.369-34.107-99.438c-30.022-8.86-63.04-7.566-103.583-11.74c1.709,24.091,2.799,39.445,3.861,54.424
	c34.765,2.179,61.868,3.878,88.971,5.577C681.123,1168.107,683.822,1172.811,686.52,1177.514z M1415.313,1777.783
	c-1.62,40.23-20.504,70.141-60.296,85.441c-39.07,15.022-73.258,9.176-102.542-20.245c-14.151-14.217-27.714-29.49-38.974-46.035
	c-64.69-95.056-99.923-201.859-123.556-313.267c-9.295-43.819-16.219-88.703-31.206-130.604
	c-16.961-47.419-69.919-59.894-105.843-27.231c-26.407,24.01-44.325,54.742-53.055,96.673c14.703,4.711,27.599,8.843,38.764,12.42
	c20.759-29.296,37.963-53.576,55.168-77.857c4.083,0.944,8.167,1.889,12.251,2.833c6.049,18.417,13.414,36.518,17.91,55.306
	c16.196,67.689,28.151,136.575,47.816,203.206c26.91,91.182,66.372,176.974,131.329,248.721
	c24.585,27.154,52.699,47.929,90.186,52.765c59.984,7.738,114.046-7.14,147.313-58.613c39.693-61.417,30.933-128.7,9.317-201.823
	c-17.99,8.929-30.464,15.119-39.957,19.831C1412.352,1719.273,1416.487,1748.635,1415.313,1777.783z"/>
</svg>
