<?xml version="1.0" encoding="iso-8859-1"?>
<!-- Generator: Adobe Illustrator 19.0.0, SVG Export Plug-In . SVG Version: 6.00 Build 0)  -->
<svg version="1.1" id="Layer_1" xmlns="http://www.w3.org/2000/svg" xmlns:xlink="http://www.w3.org/1999/xlink" x="0px" y="0px"
	 viewBox="0 0 500 500" enable-background="new 0 0 500 500" xml:space="preserve">
<path d="M464.354,2.689c0,4.996,0.004,9.424-0.001,13.851c-0.107,93.441-0.216,186.881-0.323,280.322
	c-0.038,33.018-13.296,49.823-45.331,57.872c-87.596,22.008-175.172,44.098-264.007,66.47c0,14.701,0,30.19,0,46.539
	c-38.476,9.361-76.077,18.509-114.826,27.937c0-5.355,0-9.429,0-13.502c0.001-142.426,0.035-284.851-0.033-427.277
	C39.822,32.46,47.639,14.762,69.08,5.241c4.367-1.939,9.466-3.137,14.23-3.142C208.859,1.95,334.407,2.004,459.956,2.039
	C460.765,2.039,461.574,2.269,464.354,2.689z M154.825,302.67c66.222-15.87,130.812-31.35,195.109-46.759
	c0-47.533,0-93.823,0-140.289c-65.436,0-130.16,0-195.109,0C154.825,177.902,154.825,239.406,154.825,302.67z"/>
</svg>
