<?xml version="1.0" encoding="iso-8859-1"?>
<!-- Generator: Adobe Illustrator 19.0.0, SVG Export Plug-In . SVG Version: 6.00 Build 0)  -->
<svg version="1.1" id="Layer_1" xmlns="http://www.w3.org/2000/svg" xmlns:xlink="http://www.w3.org/1999/xlink" x="0px" y="0px"
	 viewBox="0 0 2000 2000" style="enable-background:new 0 0 2000 2000;" xml:space="preserve">
<path d="M1000.313,1978.598c-527.304,7.966-988.499-437.721-978.443-993.179C31.371,460.543,454.688,28.564,989.748,22.6
	c561.492-6.258,1008.017,455.225,991.191,1012.731C1965.612,1543.145,1536.832,1985.724,1000.313,1978.598z M273.388,1476.582
	c173.582,272.515,531.597,467.087,936.022,370.912c181.337-43.123,331.074-140.387,454.733-278.92
	c32.037-35.89,56.787-74.74,58.685-91.992C1241.394,1476.582,759.817,1476.582,273.388,1476.582z M926.58,140.157
	c-2.463-2.362-4.926-4.724-7.39-7.086c-299.822,37.99-529.104,185.52-680.964,449.475
	c-152.531,265.12-129.842,596.608-23.494,781.922C452.515,955.504,689.548,547.831,926.58,140.157z M1078.115,138.719
	c2.659,6.165,4.568,12.238,7.693,17.602c233.839,401.259,467.772,802.463,701.77,1203.629c0.555,0.952,2.107,1.579,3.301,1.815
	c0.87,0.173,1.917-0.549,7.386-2.371c119.814-290.861,102.167-573.825-71.687-840.44
	C1561.431,265.692,1280.365,141.261,1078.115,138.719z M1329.829,1085.581c7.67-173.373-132.984-330.263-320.186-334.762
	c-192.499-4.626-336.524,154.297-337.512,326.843c-1,174.687,135.989,324.698,315.763,332.39
	C1178.796,1418.221,1333.25,1261.71,1329.829,1085.581z M1001.656,142.441C895.765,324.581,793.198,501.004,689.323,679.677
	c210.099,0,415.24,0,624.662,0C1209.751,500.384,1107.63,324.726,1001.656,142.441z M1404.681,835.637
	c-13.732,125.173-10.406,542.906-2.096,572.344c61.331,6.213,303.399,3.817,332.668-3.937
	C1624.829,1214.173,1514.755,1024.905,1404.681,835.637z M603.841,839.138c-1.964-0.735-3.927-1.47-5.891-2.206
	c-110.271,189.526-220.541,379.053-332.357,571.235c115.176,0,225.77,0,338.248,0
	C603.841,1216.978,603.841,1028.058,603.841,839.138z M223.267,1477.053c137.46,246.384,449.77,450.867,805.222,440.049
	c355.42-10.817,638.112-229.15,749.824-439.618c-17.07-6.195-25.38,3.108-33.795,15.777
	c-63.54,95.664-142.267,176.09-237.283,241.294c-145.363,99.754-306.049,151.293-481.482,157.874
	c-84.465,3.168-167.723-7.596-249.333-29.278c-176.865-46.989-326.229-138.943-446.222-277.312
	c-29.921-34.504-56.733-71.705-85.855-108.787C238.496,1477.053,231.403,1477.053,223.267,1477.053z M198.376,1391.976
	C71.068,1103.786,75.05,823.281,232.542,554.261c157.538-269.1,400.433-411.421,710.012-443.573
	c2.978-5.241,5.955-10.481,10.37-18.252c-21.885,0-40.836-1.899-59.295,0.312c-110.685,13.255-215.833,45.279-314.416,97.453
	C460.426,253.068,359.071,336.7,276.756,443.642c-46.928,60.968-85.004,126.776-116.64,196.464
	c-35.386,77.951-57.379,160.349-67.874,244.8c-11.35,91.325-10.027,183.114,6.514,274.412
	c15.236,84.095,41.301,164.318,78.882,240.904c1.799,3.666,6.33,5.99,10.524,9.786
	C192.474,1402.395,195.587,1396.9,198.376,1391.976z M1817.494,1413.955c52.282-94.157,78.235-190.636,92.68-290.018
	c13.477-92.722,9.866-185.494-6.326-278.302c-34.641-198.549-126.27-366.431-270.149-505.514
	c-112.772-109.012-246.864-183.137-398.432-223.533c-56.385-15.028-113.905-27.67-173.124-26.234
	c-3.137,0.076-6.218,2.465-11.642,4.757c5.307,7.04,9.63,12.773,12.965,17.197c632.156,52.667,1012.774,706.324,740.751,1277.549
	C1807.524,1395.859,1811.117,1402.38,1817.494,1413.955z M772.643,752.217c-33.748,0-64.972,0-95.776,0
	c-6.612,40.729-6.099,76.87,0.143,96.808C707.561,818.098,739.106,786.166,772.643,752.217z M674.197,1410.001
	c34.61-0.436,65.54,3.582,84.516-0.278c-28.094-28.813-58.581-60.082-84.516-86.681
	C674.197,1342.662,674.197,1373.644,674.197,1410.001z M1241.916,751.7c27.062,27.256,58.53,58.949,85.405,86.016
	c0-21.235,0-52.955,0-86.016C1293.421,751.7,1262.489,751.7,1241.916,751.7z M1327.49,1311.806
	c-32.473,32.701-63.407,63.851-96.166,96.84c33.625,0,63.631,0,96.166,0C1327.49,1375.88,1327.49,1344.819,1327.49,1311.806z"/>
</svg>
