<?xml version="1.0" encoding="iso-8859-1"?>
<!-- Generator: Adobe Illustrator 19.0.0, SVG Export Plug-In . SVG Version: 6.00 Build 0)  -->
<svg version="1.1" id="Layer_1" xmlns="http://www.w3.org/2000/svg" xmlns:xlink="http://www.w3.org/1999/xlink" x="0px" y="0px"
	 viewBox="0 0 2000 2000" style="enable-background:new 0 0 2000 2000;" xml:space="preserve">
<path d="M1013.581,994.292c-3.225,0.321-6.449,0.923-9.674,0.924c-204.392,0.045-408.783,0.04-613.175,0.04
	c-2.279,0-4.558,0-9.327,0c210.278-291.248,419.523-581.066,628.769-870.885c0.756,0.203,1.512,0.407,2.268,0.61
	c0,3.756,0,7.511,0,11.267c0,281.897-0.004,563.794,0.039,845.691c0.001,4.197,0.581,8.394,0.89,12.591L1013.581,994.292z
	 M1013.57,994.304c-0.368,3.224-1.037,6.437-1.037,9.65c-0.048,284.515-0.046,569.031-0.018,853.546
	c0,2.715,0.404,5.43,0.797,10.389c210.501-291.575,419.645-581.269,629.964-872.592c-6.22,0-10.065,0-13.91,0
	c-201.45,0-402.9,0.004-604.35-0.032c-3.882-0.001-7.763-0.479-11.645-0.734C1013.371,994.53,1013.581,994.292,1013.57,994.304z
	 M393.823,693.943c11.321-19.689,22.166-38.549,33.541-58.332c-125.03-71.034-249.251-141.609-374.155-212.573
	c-11.347,19.758-22.185,38.629-33.509,58.346C144.641,552.369,268.889,622.961,393.823,693.943z M1948.731,1590.227
	c11.276-19.594,22.283-38.722,33.569-58.335c-124.99-71.008-249.254-141.605-374.169-212.571
	c-11.247,19.608-22.079,38.492-33.47,58.349C1699.51,1448.614,1823.729,1519.198,1948.731,1590.227z M53.224,1590.232
	c125.293-71.192,249.548-141.794,374.177-212.61c-11.524-19.992-22.417-38.889-33.594-58.279
	c-125.021,71.033-249.302,141.646-374.11,212.558C31.099,1551.738,42.095,1570.87,53.224,1590.232z M627.928,425.038
	c20.162-11.485,39.072-22.257,58.552-33.353C614.922,267.144,543.886,143.512,472.724,19.659
	c-20.149,11.487-39.1,22.291-58.604,33.41C485.612,177.446,556.655,301.042,627.928,425.038z M1574.667,635.625
	c11.478,20,22.312,38.878,33.47,58.321c125.09-71.072,249.346-141.669,374.166-212.587c-11.461-19.902-22.32-38.76-33.565-58.288
	C1823.715,494.111,1699.509,564.688,1574.667,635.625z M686.472,1610.396c-19.872-11.323-38.999-22.222-58.582-33.382
	c-71.555,124.503-142.463,247.881-213.769,371.953c19.657,11.193,38.619,21.991,58.597,33.366
	C544.166,1858.012,615.096,1734.592,686.472,1610.396z M1374.174,1577.01c-19.937,11.351-39.019,22.214-58.625,33.376
	c71.646,124.65,142.581,248.064,213.771,371.92c19.707-11.211,38.652-21.988,58.577-33.322
	C1516.413,1824.568,1445.51,1701.166,1374.174,1577.01z M1587.863,53.006c-19.933-11.336-38.873-22.108-58.548-33.297
	c-71.35,124.148-142.412,247.795-213.795,371.999c19.919,11.314,38.848,22.066,58.626,33.3
	C1445.577,300.673,1516.578,177.086,1587.863,53.006z"/>
</svg>
