<?xml version="1.0" encoding="iso-8859-1"?>
<!-- Generator: Adobe Illustrator 19.0.0, SVG Export Plug-In . SVG Version: 6.00 Build 0)  -->
<svg version="1.1" id="Layer_1" xmlns="http://www.w3.org/2000/svg" xmlns:xlink="http://www.w3.org/1999/xlink" x="0px" y="0px"
	 viewBox="0 0 500 500" enable-background="new 0 0 500 500" xml:space="preserve">
<path d="M226.482,486.132c-14.8-2.965-27.777-7.702-40.472-13.29c-3.432-1.511-6.733-3.328-10.191-4.769
	c-6.299-2.624-8.896-7.279-8.864-14.026c0.331-69.805-0.014-139.619,1.019-209.413c0.771-52.105,26.773-89.676,74.212-109.055
	c69.29-28.305,146.119,8.854,162.847,84.702c8.197,37.166,1.673,71.527-22.078,101.816c-17.39,22.176-40.406,35.61-67.626,42.437
	c-22.798,5.718-44.978,4.467-66.851-4.082c-6.525-2.55-13.257-4.568-21.317-7.314c0,22.76,0.088,44.685-0.025,66.61
	C227.023,441.714,226.711,463.681,226.482,486.132z M288.113,187.306c-35.447,0.368-60.761,25.919-59.478,61.718
	c1.281,35.732,22.276,57.751,61.373,57.932c32.198,0.149,58.746-26.707,58.799-58.345
	C348.867,212.473,319.607,185.692,288.113,187.306z M106.598,413.242c0-2.6-0.008-5.199,0.001-7.799
	c0.069-20.098,0.246-40.196,0.189-60.293c-0.079-27.824,0.822-55.716-0.845-83.45c-1.608-26.759,0.983-52.443,11.288-77.128
	c28.681-68.706,80.256-107.123,154.401-113.022c50.738-4.037,95.616,12.322,134.282,45.496c1.794,1.54,3.731,2.913,6.079,4.735
	c14.954-15.202,29.535-30.026,44.613-45.353C388.939,15.965,312.5-7.001,224.312,13.12
	C125.688,43.846,62.175,107.348,43.615,210.646c-13.927,77.515,10.028,144.667,60.686,203.156
	C105.066,413.615,105.832,413.429,106.598,413.242z M289.232,428.485c0,21.779,0,42.57,0,63.295
	c24.509,2.418,72.619-6.367,109.244-26.438c22.262-12.2,42.577-26.938,60.016-46.02c-15.316-15.057-29.895-29.389-45.15-44.385
	C378.835,407.893,337.819,427.111,289.232,428.485z"/>
</svg>
