<?xml version="1.0" encoding="iso-8859-1"?>
<!-- Generator: Adobe Illustrator 19.0.0, SVG Export Plug-In . SVG Version: 6.00 Build 0)  -->
<svg version="1.1" id="Layer_1" xmlns="http://www.w3.org/2000/svg" xmlns:xlink="http://www.w3.org/1999/xlink" x="0px" y="0px"
	 viewBox="0 0 2000 2000" style="enable-background:new 0 0 2000 2000;" xml:space="preserve">
<path d="M44.704,1112.848c-39.135-44.682-38.131-107.17-12.682-159.125c23.473-47.922,68.776-70.891,126.189-72.033
	c49.288-0.98,84.216,19.821,116.508,52.225c50.419,50.594,651.578,650.078,702.772,700.482
	c127.795-126.137,382.825-377.657,382.825-377.657s-304.98-304.747-363.632-359.756c-60.209-56.469-71.614-142.976-30.084-199.895
	c47.247-64.754,133.185-89.959,205.654-25.213c76.242,68.116,477.247,468.502,510.036,511.739
	c33.07,43.607,40.934,121.779-30.637,190.993c-65.352,63.2-540.123,539.525-582.046,577.499
	c-52.063,47.16-146.676,36.133-191.015-7.426C803.755,1871.157,107.966,1185.077,44.704,1112.848z M1718.215,1044.061
	c42.985,43.431,89.293,71.346,153.757,62.777c44.173-5.872,109.031-64.144,113.294-107.533
	c5.728-58.311,1.966-113.364-49.235-153.395c-5.32-4.159-9.793-9.41-14.606-14.208c-92.124-91.84-669.818-667.871-771.023-766.824
	C1085.719,1.634,998.067,4.946,934.07,68.472c-103.787,103.021-468.175,465.386-585.036,582.33
	c-24.052,24.069-36.147,57.846-31.743,91.587c6.212,47.601,34.897,97.981,74.464,131.602
	c45.523,38.681,343.075,353.43,396.556,407.188c33.844,34.02,68.394,70.616,115.855,81.96c49.908,11.929,99.229,1.615,136.567-38.42
	c38.051-40.798,50.005-88.476,35.978-143.421c-9.39-36.783-36.365-57.505-61.794-82.055
	c-46.064-44.471-337.254-356.819-339.352-361.052c23.356-25.799,370.927-372.125,370.927-372.125
	S1604.584,929.252,1718.215,1044.061z"/>
</svg>
