<?xml version="1.0" encoding="utf-8"?>
<!-- Generator: Adobe Illustrator 25.1.0, SVG Export Plug-In . SVG Version: 6.00 Build 0)  -->
<svg version="1.1" id="Layer_1" xmlns="http://www.w3.org/2000/svg" xmlns:xlink="http://www.w3.org/1999/xlink" x="0px" y="0px"
	 viewBox="0 0 2500 2500" style="enable-background:new 0 0 2500 2500;" xml:space="preserve">
<g>
	<path d="M1249,28.2L1249,28.2L1249,28.2L1249,28.2L251.8,236.7v1382.1c0,202.4,207.3,393.6,431.8,542.3
		c175.9,115.3,360,216.5,550.2,304.6l16.2,6.1l0,0l0,0v0l16.2-6.1c40.5-15.2,982-415.9,982-846.9V236.7L1249,28.2z M1253,163.8
		l913.3,146.7v1307.2c0,301.5-648.3,620.2-918.3,726.5v0.3l-11.2-4.3l0,0l-5.1-2l-4-1.3l-6.1-2.7l-5.1-2l-9.1-4l-3-1l-11.1-5.1l-3-1
		l-12.1-5.1l-2-1l-6.8-2.6l-5.3-2.5h-2l-15.2-6.1h-1c-133.5-59.7-308.5-147.7-462.2-251.9l-18.2-12.1l-18.2-14.2l-17.2-12.1l-1-1
		l-16.2-12.1l-1-1l-16.2-12.1l-1-1l-16.2-12.1l-2-1l-15.2-11.1l-2-1l-14.2-11.1l-2-1.9l-13.1-11.1l-2-2l-12.1-11.1l-3-2l-11.1-11.1
		l-3-3l-11.1-11.1l-3-3l-11.1-10.1l-3-3l-10.1-10.1l-3-4l-9.1-10.1l-3-4l-9.1-10.1l-3-4l-9.1-8.1l-4-4l-7.1-9.1l-4-5.1l-7.1-9.1
		l-4-5.1l-6.1-9.1l-3-5.1l-6.1-9.1l-0.3-0.5l-2.8-5.6c-2-3-3-6.1-5.1-8.1l-4-6.1c-1.7-2.5-3.1-5.2-4-8.1l-3-6.1c-1-3-3-5.1-4-8.1
		c-0.8-2.1-1.8-4.2-3-6.1c-1.2-2.6-2.2-5.3-3-8.1c-1-3-2-4-3-7.1c-0.8-2.4-1.8-4.8-3-7.1c-1.1-2.2-1.8-4.6-2-7.1
		c0-1.1-0.6-2.6-1.2-4c-0.4-1.2-0.8-2.3-0.8-3.1c-0.2-2.5-0.9-4.9-2-7.1c-1-2-1-4-2-7.1c-1-3-1-5.1-2-8.1c-0.8-1.9-1.1-4-1-6.1
		c0-2-1-5.1-1-8.1s-1-4-1-6.1c-0.3-3.1-1-6.2-2-9.1c-1-3,0-3,0-5.1V310.5L1245,163.8h4l0,0H1253z"/>
	<path d="M557.3,376.3L557.3,376.3L557.3,376.3l-142.7,22.3v0v1184.8c0,274.2,589.6,564.6,834.3,660.7
		c142.6-55.7,401.5-177.1,592.6-322.8c14.2-11.1,29.3-22.3,42.5-33.4c65.7-53.6,120.3-110.3,155.8-168c0.2-0.3,0.4-0.7,0.6-1
		c0.1,0,0.2,0,0.4,0c27.3-44.5,43.5-90.1,43.5-135.6V398.6L1250,265l-0.5,0.1l-0.5-0.1L557.3,376.3z M1794.1,939.9
		c0,239.8-165.9,394.6-397.5,394.6v0h-318.5v1h0v59.4c-0.3-0.3-0.7-0.5-1-0.8v447.2H951.7v-563.5c0,0,0,0,0,0v-56.7h428.8
		c5.4,0,10.7-0.1,16-0.3c162.9-6.3,268.3-109.4,268.3-280c0-174-112.3-275.2-282.2-275.2H1249l-319.6,1V551.3h467.2
		c2.8,0,5.6,0,8.4,0.1C1631.2,555,1794.1,705,1794.1,939.9z M1331.9,893.3v101.2H846.5V893.3H1249v0H1331.9z"/>
</g>
</svg>
