<?xml version="1.0" encoding="iso-8859-1"?>
<!-- Generator: Adobe Illustrator 19.0.0, SVG Export Plug-In . SVG Version: 6.00 Build 0)  -->
<svg version="1.1" id="Layer_1" xmlns="http://www.w3.org/2000/svg" xmlns:xlink="http://www.w3.org/1999/xlink" x="0px" y="0px"
	 viewBox="0 0 500 500" style="enable-background:new 0 0 500 500;" xml:space="preserve">
<path id="XMLID_4_" d="M252.232,489.98c-35.807-16.255-69.63-34.535-102.23-55.048c-12.444-7.83-25.23-15.402-36.522-24.714
	c-17.276-14.247-34.102-29.359-46.038-48.648c-8.018-12.957-12.293-27.216-12.227-42.893c0.361-85.456,0.367-170.913,0.494-256.37
	c0.005-3.667,0.001-7.335,0.001-11.905c2.879-0.908,5.565-2.01,8.358-2.599c55.969-11.799,111.97-23.448,167.915-35.358
	c13.285-2.828,26.088-2.916,39.569,0.081c45.336,10.079,90.896,19.151,136.374,28.595c11.466,2.381,22.951,4.676,34.406,7.11
	c1.574,0.334,3.024,1.246,5.312,2.225c0,4.249-0.001,8.558,0,12.868c0.019,86.8-0.068,173.6,0.191,260.399
	c0.033,11.114-2.652,21.108-7.648,30.763c-11.333,21.899-28.468,38.761-47.339,53.989c-36.136,29.161-76.203,51.897-118.17,71.445
	C267.417,483.302,260.061,486.478,252.232,489.98z M69.735,63.14c0,5.274,0.003,9.246-0.001,13.217
	c-0.019,18.431-0.072,36.862-0.054,55.293c0.062,63.005,0.151,126.009,0.223,189.014c0.011,10.003,3.089,19.217,8.09,27.638
	c8.43,14.195,20.096,26.011,32.266,36.671c14.499,12.699,30.521,23.902,46.862,34.199c27.78,17.506,57.252,31.948,87.542,44.703
	c5.368,2.261,9.927,2.193,15.283-0.105c34.812-14.94,68.651-31.743,100.357-52.537c20.766-13.619,40.609-28.474,56.504-47.909
	c10.882-13.305,17.905-27.92,17.858-45.693c-0.216-81.436-0.142-162.874-0.172-244.311c-0.001-3.247,0-6.495,0-10.306
	c-15.303-2.607-29.397-5.103-43.525-7.395c-36.615-5.941-73.219-11.957-109.881-17.595c-14.112-2.17-28.198-6.145-42.714-2.534
	c-3.563,0.886-7.232,1.361-10.866,1.946c-42.256,6.799-84.518,13.563-126.77,20.386C90.898,59.411,81.088,61.187,69.735,63.14z
	 M87.941,82.065c11.42-2.032,21.859-4.047,32.352-5.727c32.385-5.183,64.793-10.216,97.185-15.354
	c9.249-1.467,18.441-4.091,27.715-4.379c10.254-0.318,20.668,0.824,30.846,2.401c35.053,5.43,70.035,11.317,105.041,17.05
	c11.202,1.835,22.395,3.731,34.482,5.747c0.228,3.916,0.613,7.494,0.619,11.072c0.112,72.02-0.031,144.041,0.407,216.059
	c0.109,17.914-6.428,32.481-17.916,45.485c-14.776,16.725-32.535,29.808-51.106,41.879c-30.125,19.581-62.316,35.091-95.404,48.66
	c-34.284-13.757-66.684-30.281-97.787-49.491c-16.849-10.407-31.8-23.228-47.319-35.339c-5.002-3.903-7.794-9.45-11.154-14.859
	c-8.773-14.119-8.166-29.188-8.139-44.544c0.118-67.339,0.128-134.678,0.177-202.017C87.944,93.71,87.941,88.711,87.941,82.065z
	 M188.413,134.544c4.183,0,7.439-0.002,10.695,0c27.477,0.015,54.958-0.231,82.43,0.133c19.6,0.26,35.903,7.298,45.768,25.41
	c4.947,9.082,5.698,18.998,6.072,29.155c1.063,28.879-19.45,53.297-52.568,53.249c-25.135-0.036-50.271,0.034-75.406,0.115
	c-3.92,0.013-7.839,0.336-11.507,0.504c-2.215,10.233-2.039,115.303,0.164,123.321c7.697,0,15.551,0,24.651,0
	c0-33.291,0-65.918,0-99.472c5.17,0,9.125,0.088,13.076-0.015c21.731-0.566,43.54-0.235,65.168-2.045
	c21.076-1.764,38.221-12.55,49.899-30.121c11.422-17.187,15.668-36.496,13.204-57.341c-2.038-17.239-8.291-32.146-20.434-44.637
	c-16.286-16.752-36.909-22.355-59.281-22.759c-23.788-0.43-47.59-0.145-71.385-0.04c-6.753,0.03-13.504,0.521-20.546,0.812
	C188.413,118.781,188.413,125.753,188.413,134.544z M172.474,178.38c0,7.314,0,13.494,0,20.158c32.268,0,63.875,0,95.824,0
	c0-7.059,0-13.487,0-20.158C236.127,178.38,204.748,178.38,172.474,178.38z"/>
</svg>
