<?xml version="1.0" encoding="iso-8859-1"?>
<!-- Generator: Adobe Illustrator 19.0.0, SVG Export Plug-In . SVG Version: 6.00 Build 0)  -->
<svg version="1.1" id="Layer_1" xmlns="http://www.w3.org/2000/svg" xmlns:xlink="http://www.w3.org/1999/xlink" x="0px" y="0px"
	 viewBox="0 0 2000 2000" style="enable-background:new 0 0 2000 2000;" xml:space="preserve">
<path d="M1537.539,1972.9c-179.68-179.629-357.972-357.871-538.195-538.043c-179.617,179.544-357.965,357.82-536.621,536.404
	c-27.971-28.983-54.71-56.689-83.803-86.835c204.785-204.801,411.687-411.721,617.345-617.395
	c208.684,208.572,415.41,415.187,625.918,625.582C1595.543,1917.881,1567.818,1944.179,1537.539,1972.9z M1619.09,107.573
	c-8.435-17.894-75.207-81.649-85.988-82.537c-176.908,176.828-354.449,354.289-532.685,532.444
	c-6.679-5.563-477.155-474.736-528.71-526.466c-7.438-7.463-13.422-8.035-21.127-0.064c-20.373,21.077-41.417,41.505-61.938,62.442
	c-3.678,3.752-6.13,8.707-7.395,10.551c207.617,207.562,413.289,413.181,620.81,620.646
	C1207.755,518.897,1413.816,312.841,1619.09,107.573z M1973.786,458.103c-28.34-28.612-54.872-55.397-80.46-81.23
	c-14.635,4.944-616.714,607.332-621.331,620.814c6.938,7.829,14.041,16.711,22.026,24.713
	c50.75,50.858,587.498,586.491,595.833,594.368c30.391-26.285,56.333-53.437,83.683-82.631
	c-179.788-179.882-357.557-357.744-537.707-537.989C1615.697,816.251,1793.822,638.096,1973.786,458.103z M561.962,995.979
	c-4.076,4.452-6.24,7.011-8.605,9.369c-42.874,42.757-460.141,460.352-518.456,518.974c-3.422,3.44-5.537,8.181-8.26,12.316
	c1.564-0.523,3.127-1.047,4.691-1.57c26.002,26.384,52.004,52.768,79.245,80.408c205.777-205.76,412.238-412.204,618.449-618.398
	C521.07,789.166,314.993,583.131,109.782,377.962c-26.774,26.751-53.802,53.755-82.879,82.807
	C204.333,638.25,382.865,816.832,561.962,995.979z"/>
</svg>
