<?xml version="1.0" encoding="iso-8859-1"?>
<!-- Generator: Adobe Illustrator 19.0.0, SVG Export Plug-In . SVG Version: 6.00 Build 0)  -->
<svg version="1.1" id="Layer_1" xmlns="http://www.w3.org/2000/svg" xmlns:xlink="http://www.w3.org/1999/xlink" x="0px" y="0px"
	 viewBox="0 0 500 500" style="enable-background:new 0 0 500 500;" xml:space="preserve">
<path d="M346.193,313.226c-15.44,0-29.498,0-44.335,0c-5.13,49.918-27.803,89.698-70.989,116.082
	c-43.261,26.43-89.38,29.718-135.636,9.622C16.72,404.822-14.259,315.456,19.565,241.492c12.94-28.296,33.14-50.372,60.051-66.092
	c27.044-15.798,56.388-22.176,87.458-19.489c30.812,2.665,58.214,14.334,82.206,34.201c10.954-10.903,21.562-21.46,32.768-32.614
	c-14.948-21.754-18.321-45.073-6.51-69.317c6.856-14.074,18.051-24.186,32.557-30.145c30.004-12.327,61.955-0.168,77.956,24.556
	c16.131,24.924,13.273,58.935-9.394,80.702c-21.059,20.222-55.034,25.53-83.959,4.283c-10.521,10.881-21.073,21.793-32.129,33.227
	c24.23,24.999,37.876,56.271,41.092,92.103c15.053,0,29.398,0,44.214,0c8.047-41.103,32.452-66.761,73.653-73.967
	c27.848-4.871,53.092,3.069,75.026,22.969c-3.348,3.974-6.485,7.698-10.058,11.94c-18.455-17.346-40.163-24.015-64.175-19.86
	c-16.937,2.931-31.546,11.597-42.231,25.715c-23.599,31.18-17.598,70.844,7.189,94.034c27.342,25.581,68.514,25.678,99.118-1.075
	c3.333,3.49,6.696,7.011,10.421,10.911c-16.834,15.204-35.847,24.212-58.228,25.083c-22.559,0.878-42.755-5.684-60.182-20.338
	C359.215,353.86,349.646,335.131,346.193,313.226z M153.777,415.522c61.831-0.045,110.919-48.688,112.472-109.05
	c1.649-64.109-47.889-113.156-107.765-115.442c-65.636-2.506-115.445,49.375-116.746,109.645
	C40.39,363.11,90.099,415.233,153.777,415.522z M283.369,116.856c-1.268,26.136,21.299,50.027,49.163,49.626
	c28.535-0.411,49.098-21.557,49.222-49.179c0.12-26.596-19.67-48.865-49.398-49.324C305.351,67.561,282.55,90.797,283.369,116.856z
	 M153.268,346.145c25.123-0.046,43.647-19.006,43.54-42.836c-0.11-24.356-18.533-42.857-43.502-42.951
	c-21.473-0.081-43.152,18.937-41.901,43.375C110.293,325.69,130.73,346.186,153.268,346.145z M332.566,155.05
	c21.002-0.246,37.083-15.092,37.32-37.617c0.24-22.737-17.315-37.476-36.793-37.989c-20.444-0.539-38.97,16.865-38.273,37.546
	C294.161,137.738,310.783,155.305,332.566,155.05z"/>
</svg>
