<?xml version="1.0" encoding="iso-8859-1"?>
<!-- Generator: Adobe Illustrator 19.0.0, SVG Export Plug-In . SVG Version: 6.00 Build 0)  -->
<svg version="1.1" id="Layer_1" xmlns="http://www.w3.org/2000/svg" xmlns:xlink="http://www.w3.org/1999/xlink" x="0px" y="0px"
	 viewBox="0 0 500 500" enable-background="new 0 0 500 500" xml:space="preserve">
<path d="M249.363,491.028C168.892,409.921,89.084,329.483,8.721,248.485C88.846,167.739,168.775,87.19,249.342,6
	c80.224,80.828,160.141,161.346,240.668,242.479C409.808,329.315,329.881,409.873,249.363,491.028z M249.571,47.855
	c-66.824,65.342-135.552,132.546-205.443,200.887c69.728,68.245,138.397,135.454,204.672,200.32
	c67.26-65.719,135.85-132.738,205.596-200.887C384.802,180.112,316.219,113.038,249.571,47.855z M380.831,248.57
	c-44.228,43.357-88.014,86.28-131.335,128.747c0-85.404,0-172.173,0-257.669C292.837,162.193,336.587,205.139,380.831,248.57z
	 M275.98,182.249c0,44.261,0,88.531,0,132.392c22.494-22.095,44.89-44.093,67.258-66.065
	C320.738,226.387,298.393,204.351,275.98,182.249z"/>
</svg>
