<?xml version="1.0" encoding="iso-8859-1"?>
<!-- Generator: Adobe Illustrator 19.0.0, SVG Export Plug-In . SVG Version: 6.00 Build 0)  -->
<svg version="1.1" id="Layer_1" xmlns="http://www.w3.org/2000/svg" xmlns:xlink="http://www.w3.org/1999/xlink" x="0px" y="0px"
	 viewBox="0 0 2000 2000" style="enable-background:new 0 0 2000 2000;" xml:space="preserve">
<path d="M1001.549,1673.738c210.791-111.459,422.332-223.315,634.237-335.363c0-225.918,0-448.784,0-674.058
	c-211.447-111.978-422.046-223.507-634.582-336.062C789.025,440.61,577.576,552.58,365.143,665.071c0,325.245,0,647.471,0,978.864
	c-99.775-52.927-193.551-102.672-288.409-152.99c0-327.303,0-651.852,0-980.274c307.189-162.599,614.71-325.373,924.411-489.302
	c308.134,163.082,615.705,325.865,924.195,489.135c0,326.9,0,650.258,0,980.931c-305.34,161.67-613.972,325.083-924.056,489.265
	c-109.526-58.029-219.8-115.999-329.387-175.239c-10.666-5.766-24.183-19.228-24.386-29.358
	c-1.871-93.648-1.105-187.349-1.105-289.182C767.253,1550.492,881.48,1610.578,1001.549,1673.738z M647.445,1190.933
	c117.83,62.563,235.371,124.973,353.361,187.621c119.858-63.525,237.417-125.833,354.748-188.019c0-124.836,0-246.117,0-372.185
	c-117.009-62.422-235.429-125.598-354.523-189.133c-119.084,63.555-237.542,126.776-353.586,188.708
	C647.445,947.678,647.445,1067.8,647.445,1190.933z"/>
</svg>
