<?xml version="1.0" encoding="iso-8859-1"?>
<!-- Generator: Adobe Illustrator 19.0.0, SVG Export Plug-In . SVG Version: 6.00 Build 0)  -->
<svg version="1.1" id="Layer_1" xmlns="http://www.w3.org/2000/svg" xmlns:xlink="http://www.w3.org/1999/xlink" x="0px" y="0px"
	 viewBox="0 0 2000 2000" style="enable-background:new 0 0 2000 2000;" xml:space="preserve">
<path d="M936.75,18.857c8.877,10.148,16.707,21.501,26.788,30.263c149.524,129.962,299.357,259.567,449.067,389.315
	c8.567,7.425,16.695,15.355,26.492,24.403c-7.455,22.186-14.644,43.58-22.877,68.083c-102.833-22.234-197.501-5.045-282.795,53.175
	c-62.069,42.366-103.788,101.291-128.098,172.423c-55.767,163.178,2.746,298.139,189.621,433.26
	c-87.493,259.992-175.294,520.898-266.963,793.298C755.427,1470.103,586.488,967.888,416.329,462.049
	c13.612-11.924,27.721-24.412,41.967-36.742C605.189,298.161,752.149,171.094,898.89,43.775
	c8.393-7.282,15.047-16.566,22.511-24.918C926.517,18.857,931.634,18.857,936.75,18.857z M1086.461,867.496
	c0.685,136.555,110.604,246.547,246.42,246.583c136.806,0.036,248.576-113.448,246.723-250.505
	c-1.84-136.078-113.241-245.645-248.731-244.637C1195.26,619.946,1085.778,731.286,1086.461,867.496z"/>
</svg>
