<?xml version="1.0" encoding="iso-8859-1"?>
<!-- Generator: Adobe Illustrator 19.0.0, SVG Export Plug-In . SVG Version: 6.00 Build 0)  -->
<svg version="1.1" id="Layer_1" xmlns="http://www.w3.org/2000/svg" xmlns:xlink="http://www.w3.org/1999/xlink" x="0px" y="0px"
	 viewBox="0 0 500 500" enable-background="new 0 0 500 500" xml:space="preserve">
<path d="M363.45,185.446c10.132-0.079,20.264-0.216,30.396-0.226c31.56-0.03,63.12-0.011,94.68-0.011c1.946,0,3.893,0,6.229,0
	c0,43.699,0,87.068,0,130.761c-43.375,0-86.636,0-130.731,0c0-1.873,0-3.75,0-5.627c0-39.572,0.007-79.145-0.019-118.717
	c-0.001-2.106-0.274-4.213-0.421-6.319L363.45,185.446z M5.244,251.403c30.456,30.36,61.209,61.015,91.23,90.941
	c30.666-30.492,61.448-61.1,91.983-91.461c-30.391-30.399-60.996-61.011-91.366-91.388C66.598,190.008,35.903,220.724,5.244,251.403
	z M363.457,185.439c0.191-1.44,0.534-2.873,0.535-4.306c0.029-41.027,0.027-82.054,0.009-123.08
	c-0.001-1.385-0.225-2.77-0.336-4.053c-43.742,0-86.98,0-130.274,0c0,43.855,0,87.395,0,131.308c43.623,0,86.908,0,130.194,0
	C363.584,185.308,363.45,185.446,363.457,185.439z M233.323,316.936c0,43.841,0,87.288,0,130.859c43.657,0,87.043,0,130.41,0
	c0-43.831,0-87.279,0-130.859C320.068,316.936,276.687,316.936,233.323,316.936z"/>
</svg>
