<?xml version="1.0" encoding="iso-8859-1"?>
<!-- Generator: Adobe Illustrator 19.0.0, SVG Export Plug-In . SVG Version: 6.00 Build 0)  -->
<svg version="1.1" id="Layer_1" xmlns="http://www.w3.org/2000/svg" xmlns:xlink="http://www.w3.org/1999/xlink" x="0px" y="0px"
	 viewBox="0 0 2000 2000" style="enable-background:new 0 0 2000 2000;" xml:space="preserve">
<path d="M23.906,986.487c41.914-26.436,78.851-49.856,115.909-73.084c140.758-88.228,281.511-176.464,422.35-264.564
	c130.421-81.583,260.764-163.294,391.852-243.793c8.534-5.241,25.592-4.944,34.555,0.106
	c136.076,76.667,271.617,154.289,406.966,232.238c151.892,87.476,303.408,175.606,455.214,263.234
	c41.968,24.225,84.384,47.675,132.123,74.599c-17.021,11.86-30.156,22.463-44.583,30.84
	c-155.609,90.353-311.265,180.626-467.235,270.352c-93.963,54.055-188.609,106.921-282.742,160.681
	c-62.879,35.911-124.79,73.571-188.368,108.181c-26.088,14.201-55.178,14.43-82.038-2.333
	c-286.18-178.596-572.343-357.219-858.545-535.781C49.616,1001.082,39.516,995.567,23.906,986.487z M990.241,1172.455
	c-82.492-1.892-111.84-14.307-117.917-47.57c-7.792-42.65,6.02-77.161,39.12-92.439c0,21.353-2.383,41.995,0.912,61.687
	c1.913,11.435,11.384,28.598,20.185,30.492c20.918,4.501,43.46,1.449,67.535,1.449c0-47.989,0-91.625,0-134.058
	c23.862-10.516,46.25-18.4,66.669-29.81c37.592-21.006,65.456-52.728,62.233-97.027c-2.929-40.268-25.044-73.837-61.825-95.506
	c-52.791-31.101-109.852-14.154-165.344-18.571c19.215,77.001,4.657,152.376,10.159,223.047
	c-33.479,16.758-65.649,28.797-93.083,47.707c-28.858,19.891-42.246,51.602-35.85,87.361c8.363,46.754,33.562,85.411,80.827,94.812
	c47.341,9.417,97.063,6.861,153.803,9.998C1005.099,1194.978,997.294,1183.146,990.241,1172.455z M1914.634,1044.666
	c-6.801-0.652-10.128-2.075-12.031-0.994c-79.713,45.317-159.348,90.774-238.89,136.392
	c-111.182,63.764-222.087,128.014-333.481,191.404c-91.896,52.295-184.873,102.713-276.218,155.94
	c-30.144,17.565-67.021,29.099-79.785,66.358c16.223,115.351,32.322,229.813,49.303,350.552
	C1323.769,1641.201,1618.114,1344.031,1914.634,1044.666z M1908.975,904.8C1615.071,617.835,1321.168,330.87,1022.866,39.61
	c-16.167,117.99-31.232,227.941-45.998,335.708c312.042,179.453,620.443,356.812,928.843,534.17
	C1906.799,907.926,1907.887,906.363,1908.975,904.8z M1000.669,1943.229c-14.616-97.271-31.237-194.279-43.665-291.823
	c-6.471-50.79-24.425-86.749-71.372-114.893c-262.596-157.426-523.17-318.223-784.465-477.819
	c-9.133-5.578-18.583-10.638-27.885-15.94c-1.069,1.474-2.139,2.947-3.208,4.421c308.116,305.328,616.231,610.656,929.359,920.951
	C1000.14,1955.521,1001.566,1949.201,1000.669,1943.229z M1000.873,34.683c-1.988-0.641-3.976-1.283-5.964-1.924
	C690.376,328.708,385.843,624.657,81.31,920.605c1.282,1.613,2.564,3.225,3.847,4.838
	C372.928,745.669,660.7,565.895,949.724,385.339C966.715,268.856,983.794,151.77,1000.873,34.683z M1051.675,880.671
	c3.337-46.354-6.72-66.605-38.217-76.512c0,41.614,0,83.138,0,124.785C1035.955,926.037,1049.69,908.254,1051.675,880.671z"/>
</svg>
