<?xml version="1.0" encoding="iso-8859-1"?>
<!-- Generator: Adobe Illustrator 19.0.0, SVG Export Plug-In . SVG Version: 6.00 Build 0)  -->
<svg version="1.1" id="Layer_1" xmlns="http://www.w3.org/2000/svg" xmlns:xlink="http://www.w3.org/1999/xlink" x="0px" y="0px"
	 viewBox="0 0 500 500" style="enable-background:new 0 0 500 500;" xml:space="preserve">
<path d="M64.958,360.975c-0.007,8.522-0.016,16.677-0.019,24.831c-0.003,8.213-0.001,16.426-0.001,24.639c0,8.035,0,16.069,0,24.104
	c0,8.197,0,16.394,0,24.537c-4.128,0.924-45.622,1.226-55.083,0.451c-0.844-4.2-1.217-321.228-0.393-333.433
	c3.989-0.825,44.53-1.099,54.138-0.336c0.755,5.121-0.217,10.437,0.618,16.202c3.86-2.787,7.139-5.352,10.612-7.621
	c7.832-5.117,16.317-8.557,25.635-10.016c7.695-1.204,15.388-2.418,23.184-2.055c17.176,0.8,33.279,5.219,47.253,15.585
	c10.027,7.438,18.28,16.615,24.796,27.336c7.418,12.203,12.871,25.151,16.137,39.097c1.842,7.865,2.991,15.805,4.338,23.742
	c1.33,7.836,0.597,15.616,0.887,23.413c0.159,4.279,0.098,8.57,0.017,12.854c-0.372,19.486-4.045,38.269-11.74,56.253
	c-4.053,9.472-9.454,17.989-15.846,26.073c-8.415,10.643-18.807,18.581-30.893,24.348c-8.397,4.007-17.231,6.548-26.628,7.54
	c-5.137,0.542-10.256,1.167-15.349,0.798c-12.637-0.915-25.219-2.366-36.67-8.497c-3.265-1.748-6.501-3.545-9.058-6.337
	C69.449,362.908,67.703,361.75,64.958,360.975z M165.657,253.12c-0.296-5.699,0.116-12.226-0.864-18.819
	c-0.796-5.355-1.267-10.772-2.239-16.142c-1.863-10.296-5.136-19.991-10.634-28.935c-4.347-7.073-9.967-12.744-17.343-16.628
	c-6.382-3.361-13.17-4.442-20.358-4.376c-5.932,0.054-11.465,1.255-16.803,3.63c-12.837,5.712-20.456,16.171-26.18,28.495
	c-6.897,14.851-8.691,30.721-9.386,46.735c-0.345,7.956-0.365,15.95,0.72,23.981c0.773,5.717,0.97,11.52,2.354,17.181
	c2.39,9.773,5.926,18.882,12.22,27.019c5.377,6.951,11.929,11.79,19.917,15.04c4.619,1.879,9.348,2.736,14.344,3.199
	c5.009,0.464,10.071,0.495,14.715-0.59c15.668-3.661,25.951-13.718,32.158-28.51c5.433-12.947,6.33-26.589,7.342-40.26
	C165.869,260.767,165.657,257.361,165.657,253.12z M299.584,373.49c0.566-39.749-0.994-79.509,0.831-119.258
	c0.538-11.707-0.594-23.469-0.66-35.18c-0.348-62.124-0.157-124.251-0.195-186.377c-0.001-1.877,0.568-3.888-0.508-5.625
	c-17.815-0.825-51.084-0.458-55.079,0.603c0,116.208,0,232.423,0.01,348.638c0,0.15,0.135,0.311,0.233,0.448
	c0.103,0.144,0.237,0.266,0.469,0.519c18.048,0,36.206,0,54.663,0C299.435,375.904,299.567,374.698,299.584,373.49z
	 M397.097,371.698c0-45.357,0.007-90.714-0.009-136.07c-0.002-5.909,1.541-11.462,3.716-16.87
	c3.922-9.751,10.409-17.682,18.667-23.894c11.458-8.619,24.347-13.829,38.996-13.693c2.631,0.024,5.262,0.003,8.276,0.003
	c0-2.251,0.034-4.004-0.005-5.755c-0.347-15.506-0.709-31.011-1.059-46.517c-0.031-1.377-0.004-2.755-0.004-4.063
	c-8.494-1.618-16.405,0.3-24.299,0.88c-6.74,0.495-13.455,2.279-20.007,4.114c-8.26,2.314-16.431,5.041-23.092,10.908
	c-1.393,1.227-3.162,2.026-5.522,3.5c0-5.649,0-10.555,0-15.382c-12.356-0.862-47.283-0.516-51.374,0.514
	c0,81.896,0,163.845,0.004,245.795c0,0.713,0.046,1.426,0.099,2.137c0.011,0.155,0.124,0.315,0.223,0.449
	c0.105,0.142,0.248,0.256,0.374,0.384c18.167,0.002,36.333,0.002,55.017,0.002C397.097,375.618,397.097,373.658,397.097,371.698z
	 M436.925,318.64c-0.755,7.856-0.51,54.221,0.291,58.29c17.921,0,35.851,0,53.947,0c0-19.48,0-38.695,0-58.29
	C472.786,318.64,454.841,318.64,436.925,318.64z"/>
</svg>
