<?xml version="1.0" encoding="iso-8859-1"?>
<!-- Generator: Adobe Illustrator 19.0.0, SVG Export Plug-In . SVG Version: 6.00 Build 0)  -->
<svg version="1.1" id="Layer_1" xmlns="http://www.w3.org/2000/svg" xmlns:xlink="http://www.w3.org/1999/xlink" x="0px" y="0px"
	 viewBox="0 0 500 500" enable-background="new 0 0 500 500" xml:space="preserve">
<path d="M122.388,354.104c-2.722,0.371-5.231,0.712-7.694,1.048c-3.557-8.812,0.085-22.905,7.658-29.354
	c2.961-2.522,6.278-4.621,9.355-7.013c9.151-7.115,9.967-12.164,3.196-21.45c-3.64-4.991-7.645-9.716-11.466-14.576
	c-7.46-9.488-7.06-18.475,1.22-27.343c0.451-0.483,1.033-0.843,1.727-1.399c-2.218-2.105-4.305-3.869-6.137-5.867
	c-5.763-6.284-10.267-13.155-10.495-22.137c-0.294-11.576,13.673-21.883,23.723-15.888c0.146,0.087,0.368,0.047,0.719,0.083
	c1.799-6.525,4.529-12.652,8.741-18.047c8.673-11.111,20.442-17.09,33.866-20.137c16.084-3.65,32.293-2.951,48.506-0.917
	c1.406,0.176,2.813,0.337,4.093,0.489c11.891-13.085,9.556-31.452-5.236-42.469c-13.15-9.794-33.338-12.51-49.256,1.829
	c-2.106-0.636-4.353-1.314-6.683-2.017c-3.077-10.789-11.379-15.799-21.249-18.677c-17.031-4.967-33.636-3.512-49.06,5.351
	c-14.262,8.195-20.777,21.207-20.639,37.513c0.058,6.799,2.915,12.353,9.309,19.577c-0.811,2.275-1.665,4.671-2.461,6.904
	c-6.251,0.301-12.32,0.433-18.356,0.951c-3.097,0.266-6.226,0.943-9.184,1.911c-12.891,4.22-17.548,12.531-16.697,25.506
	c0.637,9.715,2.924,19.32,4.423,28.982c0.364,2.344,0.634,4.714,0.743,7.082c0.325,7.01-3.68,11.323-9.364,14.417
	c-9.194,5.005-21.913,1.54-27.395-7.373c-2.109-3.428-2.725-7.018-1.689-10.553c2.524,0.583,5.066,1.17,7.614,1.759
	c0.479,5.455,3.928,8.17,8.59,9.577c5.094,1.536,9.635,0.067,12.694-4.094c1.186-1.614,1.156-4.525,0.866-6.739
	c-0.69-5.266-2.075-10.44-2.793-15.704c-0.909-6.669-1.913-13.383-2.032-20.092c-0.276-15.631,8.047-26.76,23.126-30.908
	c5.631-1.549,11.582-1.935,17.39-2.837c0.716-0.111,1.445-0.139,1.758-0.168c-1.548-4.838-3.873-9.486-4.44-14.339
	c-2.173-18.586,4.41-33.972,19.233-45.227c14.515-11.021,31.465-13.793,49.244-11.963c10.984,1.131,21.232,4.509,29.495,12.243
	c2.604,2.437,4.674,5.447,6.622,7.759c5.616-2.087,11.186-5.123,17.108-6.178c19.123-3.405,35.324,2.493,47.127,18.032
	c9.453,12.446,9.657,25.984,1.886,39.566c-0.989,1.729-2.16,3.355-3.609,5.586c2.147,10.383,4.245,21.283,6.714,32.099
	c0.988,4.328,0.651,7.823-3.472,10.403c2.885,4.538,5.853,8.836,8.436,13.353c4.145,7.25,8.39,14.478,11.935,22.025
	c3.559,7.576,1.771,11.011-6.256,13.803c-3.108,1.081-6.359,1.75-9.713,2.652c2.111,1.872,4.308,3.626,6.283,5.602
	c10.959,10.964,12.886,26.855,4.1,39.572c-4.511,6.529-10.27,12.194-15.431,18.279c-2.458,2.899-4.969,5.769-7.22,8.825
	c-4.069,5.527-5.717,11.393-1.429,17.804c-2.34,1.55-4.533,3.003-6.95,4.604c-3.884-5.742-5.096-11.687-3.069-18.22
	c2.059-6.635,6.358-11.829,10.816-16.93c5.316-6.081,10.947-11.924,15.837-18.332c6.219-8.15,5.984-16.993,0.715-25.597
	c-3.557-5.809-9.059-9.33-15.449-11.903c-5.837,8.56-13.961,13.736-23.75,16.29c-12.041,3.143-24.086,2.944-36.051-0.562
	c-0.726-0.213-1.446-0.443-2.935-0.9c-2.25,2.666-4.958,5.331-6.996,8.435c-2.288,3.485-1.468,7.139,1.033,10.333
	c3.811,4.868,7.746,9.64,11.543,14.519c1.456,1.87,2.799,3.853,3.986,5.904c5.753,9.941,4.445,18.637-4.091,26.36
	c-2.67,2.415-5.536,4.689-8.584,6.594c-7.687,4.805-10.331,11.793-9.528,20.471c0.13,1.402,0.205,2.81,0.32,4.422
	c-2.738,0.386-5.25,0.74-7.731,1.089c-3.888-10.089,0.342-23.896,9.345-30.809c3.616-2.777,7.472-5.298,10.79-8.395
	c5.578-5.209,6.177-9.608,1.831-15.923c-4.413-6.412-9.449-12.395-14.197-18.577c-2.547-3.316-4.179-6.938-4.263-11.247
	c-0.114-5.837,2.474-10.43,6.249-14.528c0.756-0.821,1.783-1.392,2.948-2.279c-10.655-7.333-16.309-16.864-17.418-29.335
	c2.804,0,5.406,0,8.237,0c0.658,5.232,2.256,10.241,5.517,14.588c4.787,6.382,11.36,9.979,18.931,11.914
	c9.397,2.401,18.835,2.365,28.228,0.01c14.142-3.546,21.832-11.96,24.343-26.573c2.59,0,5.211,0,8.166,0
	c-0.198,2.048-0.392,4.049-0.661,6.819c5.434-1.086,10.46-2.091,16.055-3.21c-6.616-14.624-15.265-27.106-23.381-39.99
	c0.562-3.206,0.454-6.782,4.858-7.959c-2.185-10.763-4.332-21.339-6.591-32.463c-6.348-0.598-12.829-1.393-19.334-1.782
	c-14.167-0.847-28.196-0.035-41.426,5.689c-16.504,7.141-25.699,19.62-26.606,37.831c-0.013,0.27-0.125,0.535-0.246,1.027
	c-2.579,0.2-5.191,0.403-7.75,0.602c-2.149-5.24-4.313-6.956-7.672-6.196c-4.484,1.015-8.054,5.606-7.163,10.213
	c0.65,3.365,1.816,6.922,3.766,9.675c2.973,4.198,6.823,7.775,10.301,11.616c0.223-0.148,0.445-0.296,0.668-0.443
	c0.78-0.214,1.56-0.428,2.481-0.681c1.224,2.304,2.42,4.554,3.767,7.089c-1.355,0.953-2.72,1.775-3.923,2.791
	c-1.952,1.649-4.002,3.25-5.649,5.179c-4.353,5.099-4.386,8.998-0.259,14.327c3.901,5.038,8.015,9.914,11.843,15.005
	c1.758,2.338,3.26,4.924,4.525,7.566c3.255,6.798,2.856,13.586-2.197,19.173c-3.968,4.388-8.774,8.084-13.503,11.701
	c-4.937,3.776-7.903,8.395-8.063,14.658c-0.049,1.898,0.062,3.8,0.12,5.7C122.244,351.703,122.321,352.824,122.388,354.104z
	 M371.134,215.572c2.28,5.035,4.927,6.982,8.523,6.425c3.405-0.528,6.052-3.257,6.468-6.669c0.503-4.124-1.602-6.829-7.069-9.006
	c-5.465-11.874-10.959-23.81-16.73-36.349c15.651,3.872,30.627,7.578,45.37,11.225c2.568,4.93,5.868,6.665,9.728,5.351
	c3.59-1.222,5.755-5.006,4.849-8.931c-1.094-4.741-4.405-6.521-9.835-5.878c-13.122-12.347-26.273-24.721-39.4-37.073
	c0.479-4.069-0.409-7.472-4.351-9.132c-4.321-1.82-7.473,0.211-9.898,3.722c-11.344-1.604-22.527-3.185-33.56-4.744
	c-3.257-5.242-6.931-5.568-11.958-3.293c-11.356-6.351-22.793-12.746-34.157-19.101c-1.837-6.235-5.259-8.784-9.815-7.398
	c-4.005,1.218-6.361,5.506-5.061,9.518c1.328,4.097,4.922,7.06,11.613,4.419c10.987,6.13,22.025,12.288,33.562,18.724
	c-15.63,6.885-30.645,13.499-45.565,20.071c-5.939-2.149-10.167-0.734-11.543,4.01c-1.347,4.644,0.51,9.006,7.126,10.505
	c8.996,18.272,18.01,36.581,26.972,54.786c-1.833,3.73-1.683,7.058,1.144,9.933c2.145,2.181,4.879,2.697,7.648,1.615
	c4.355-1.702,5.232-5.386,4.729-9.553c6.037-6.357,11.982-12.617,17.387-18.308c2.669-0.55,4.589-0.945,6.881-1.417
	C339.624,204.465,355.462,210.048,371.134,215.572z M320.821,135.602c8.45,7.7,17.713,16.141,26.975,24.581
	c-0.264,1.831-0.516,3.584-0.796,5.529c-7.901,6.451-15.924,13.003-23.444,19.143c-3.226,0.211-5.885,0.384-9.669,0.631
	c-14.787-9.928-30.62-20.559-46.838-31.449c15.729-6.929,30.989-13.652,45.789-20.172
	C315.628,134.473,317.713,134.926,320.821,135.602z M361.841,162.322c-1.18-3.102-3.22-5.152-6.555-5.724
	c-0.521-0.089-1.057-0.446-1.461-0.814c-8.289-7.549-16.561-15.119-24.691-23.324c10.039,1.402,20.077,2.803,30.196,4.216
	c2.144,2.774,4.907,4.115,8.598,3.247c11.202,10.54,22.397,21.073,33.593,31.607c-0.129,0.173-0.258,0.347-0.387,0.52
	C388.053,168.811,374.974,165.574,361.841,162.322z M302.093,186.385c2.759,1.852,5.56,3.648,8.247,5.6
	c0.893,0.649,1.491,1.705,2.316,2.685c-6.176,6.52-12.044,12.715-18.294,19.313c-0.742-0.653-1.692-1.119-2.064-1.871
	c-7.741-15.641-15.416-31.313-23.099-46.983c-0.033-0.067,0.015-0.173,0.084-0.76C280.346,171.792,291.22,179.088,302.093,186.385z
	 M355.261,172.15c5.35,11.617,10.77,23.386,16.528,35.889c-15.426-5.431-30.127-10.607-45.425-15.993
	c8.66-7.084,16.926-13.844,25.114-20.541C352.756,171.724,353.869,171.913,355.261,172.15z M465.794,143.051
	C404.388,35.604,278.356,15.197,194.282,57.831c1.172,2.419,2.343,4.839,3.512,7.252c94.383-44.567,202.317-10.216,255.338,73.076
	c26.407,41.482,36.61,86.917,29.375,135.522c-9.7,65.16-44.319,113.878-100.834,147.361c1.307,2.337,2.549,4.56,3.899,6.973
	C483.544,374.584,525.115,246.849,465.794,143.051z M460.775,284.328c17.7-80.769-21.636-163.415-96.645-200.976
	c-37.815-18.936-77.686-23.649-119.041-15.168c-23.014,4.72-44.237,13.855-63.858,27.176c1.727,2.514,3.21,4.673,4.69,6.827
	c88.855-59.311,207.098-26.278,253.08,68.213c22.304,45.833,24.129,93.257,4.617,140.405
	c-22.83,55.165-64.311,89.627-122.236,104.926c0.516,2.384,1.049,4.852,1.631,7.539
	C378.408,412.621,443.253,364.282,460.775,284.328z M333.983,260.555c8.887,1.128,12.699,7.84,8.626,15.22
	c-1.587,2.875-4.05,4.746-7.134,5.806c-7.525,2.586-15.9-0.331-19.971-6.944c-4.206-6.832-3.148-15.132,2.805-20.841
	c3.706-3.554,7.573-6.94,11.368-10.401c2.355-2.148,4.711-4.296,6.118-5.578c14.534,14.147,28.778,28.012,43.206,42.055
	c-6.978,0.402-12.346,3.494-17.066,8.131c-5.563,5.465-11.226,10.836-17.018,16.057c-6.805,6.133-16.338,5.906-22.976-0.388
	c-4.487-4.255-8.964-8.526-13.306-12.928c-5.642-5.72-11.567-10.835-20.149-11.203c-6.198-0.265-11.747,1.309-16.467,5.804
	c1.766,1.754,3.362,3.341,4.944,4.912c9.139-5.375,15.416-4.721,23.177,2.576c5.474,5.147,10.807,10.446,16.2,15.679
	c9.899,9.604,24.461,9.672,34.405,0.197c5.991-5.708,11.997-11.401,18.058-17.033c6.245-5.804,15.652-6.311,21.838-0.689
	c9.149,8.313,18.02,16.938,26.853,25.589c1.399,1.37,1.978,3.578,3.187,5.873c-2.161,0.753-3.437,1.486-4.766,1.6
	c-2.543,0.219-5.117,0.1-7.678,0.1c-46.445,0.002-92.89,0.002-139.334,0.002c-1.016,0-2.032,0-3.017,0c0,2.618,0,4.852,0,7.237
	c1.243,0,2.282,0,3.321,0c46.35,0,92.699,0.001,139.049-0.002c2.753,0,5.52,0.148,8.255-0.08c9.725-0.809,13.721-9.004,8.417-17.178
	c-0.823-1.268-1.795-2.475-2.872-3.534c-3.119-3.068-6.371-6.001-9.492-9.066c-17.239-16.93-34.473-33.864-51.67-50.837
	c-7.242-7.148-14.386-14.394-21.467-21.488c-1.877,0-3.482,0-5.081,0c-6.778,6.188-13.537,12.326-20.259,18.504
	c-8.648,7.95-10.862,19.49-5.663,29.285c5.29,9.966,16.233,14.726,27.629,12.017c10.672-2.537,17.28-12.82,14.85-23.112
	c-1.962-8.312-10.271-13.461-20.535-12.613c0,2.222,0,4.462,0,6.992C331.727,260.377,332.862,260.413,333.983,260.555z
	 M334.798,445.541c-9.571,2.018-18.137-0.504-25.001-7.13c-15.428-14.894-21.307-33.445-17.537-54.332
	c3.509-19.44,23.341-27.417,40.358-17.262c7.024,4.192,10.726,10.832,14.136,17.788c0.902,1.841,1.694,3.737,2.59,5.726
	c2.694-1.052,5.133-2.005,7.857-3.068c-1.61-3.437-2.91-6.701-4.62-9.734c-2.001-3.549-4.075-7.125-6.613-10.291
	c-10.18-12.695-29.818-16.837-44.322-9.466c-16.84,8.558-34.759,13.156-53.508,14.694c-5.365,0.44-10.755,0.568-16.377,0.852
	c0,2.708,0,5.303,0,8.094c18.825,0.387,36.999-2.408,54.229-7.959c-7.918,30.849-0.415,56.463,24.366,76.716
	c-32.62,6.992-65.328,6.566-97.928-2.6c-0.802,2.91-1.495,5.422-2.186,7.928c0.518,0.232,0.764,0.371,1.027,0.453
	c0.544,0.17,1.096,0.314,1.646,0.462c32.106,8.622,64.433,8.808,96.929,2.539c8.574-1.654,17.155-3.269,25.722-4.954
	c10.569-2.079,17.928-8.209,22.601-18.054c-2.496-1.172-4.886-2.293-7.571-3.553C347.185,439.263,342.244,443.971,334.798,445.541z
	 M88.202,349.543c11.234,29.656,30.177,53.554,55.167,72.995c0.541-0.58,0.887-0.897,1.17-1.264c1.325-1.718,2.632-3.45,3.854-5.055
	c-49.188-40.858-71.077-91.591-57.424-155.708c-2.419-0.629-4.954-1.289-7.739-2.013C75.383,289.611,76.965,319.88,88.202,349.543z
	 M102.836,193.675c-9.537,0.254-18.983,1.081-27.81,5.143c-7.296,3.357-12.662,8.548-14.131,16.694
	c-0.7,3.883-0.641,7.944-0.563,11.917c0.198,10.147,1.129,20.307,0.786,30.429c-0.424,12.539-7.639,19.166-20.168,19.763
	c-2.817,0.134-5.646,0.02-8.641,0.02c-0.187,2.89-0.355,5.493-0.565,8.75c5.012-0.308,9.761-0.264,14.403-0.951
	c12.269-1.814,20.052-9.244,22.506-21.388c0.766-3.79,1.241-7.725,1.17-11.582c-0.19-10.255-0.772-20.502-1.154-30.754
	c-0.244-6.558,2.585-11.688,8.465-14.282c4.877-2.152,10.182-3.662,15.45-4.508c5.766-0.926,11.706-0.765,17.781-1.088
	c0.151-2.509,0.304-5.043,0.492-8.174C107.923,193.664,105.378,193.607,102.836,193.675z M190.308,407.793
	c0.106-5.627,2.077-10.395,6.639-13.894c1.735-1.331,3.583-2.517,5.287-3.884c2.518-2.019,5.12-3.975,7.395-6.25
	c7.302-7.303,8.706-15.594,3.213-24.317c-4.338-6.888-9.707-13.13-14.684-19.609c-4.691-6.107-4.602-10.6,0.834-16.107
	c2.513-2.545,5.449-4.673,8.373-7.141c-1.148-2.166-2.379-4.489-3.73-7.039c-5.858,3.439-10.987,7.408-14.464,13.194
	c-4.174,6.945-3.731,13.757,0.885,20.304c1.697,2.406,3.704,4.591,5.471,6.95c3.473,4.636,7.154,9.149,10.232,14.039
	c3.025,4.807,2.658,8.716-1.264,12.741c-3.286,3.372-7.066,6.36-10.971,9.012c-10.678,7.253-13.332,18.992-10.757,31.814
	c2.58-0.344,5.176-0.69,7.533-1.004C190.299,413.466,190.255,410.629,190.308,407.793z M104.541,179.568
	c5.199,6.872,13.388,8.868,21.053,5.381c5.331-2.425,8.992-6.472,12.273-11.141c4.86-6.916,9.75-13.832,15.032-20.423
	c3.756-4.687,8.912-7.535,15.081-5.714c3.813,1.126,7.255,3.507,11.32,5.555c1.422-1.302,3.41-3.123,5.578-5.108
	c-7.351-7.015-15.399-11.038-25.483-8.621c-6.59,1.58-11.418,5.916-15.343,11.217c-4.92,6.643-9.498,13.543-14.551,20.08
	c-1.912,2.473-4.495,4.648-7.198,6.235c-3.941,2.314-7.337,1.495-10.287-1.633c-2.952-3.13-3.457-6.958-1.42-10.75
	c0.345-0.641,0.687-1.284,1.079-2.018c-2.098-1.731-4.066-3.356-6.15-5.075C99.84,164.042,99.531,172.946,104.541,179.568z
	 M224.913,219.497c1.064-2.654,2.042-5.092,3.114-7.766c-6.053-2.405-11.887-4.881-17.854-6.98
	c-1.433-0.504-3.422-0.082-4.954,0.472c-4.28,1.546-8.457,3.378-12.671,5.108c-5.315,2.182-10.625,4.374-16.072,6.617
	c1.135,2.73,2.143,5.153,3.21,7.719c9.69-3.944,19.17-7.803,28.676-11.672C213.857,215.153,219.304,217.293,224.913,219.497z
	 M217.227,225.879c-0.101-2.933-2.727-5.205-6.013-5.202c-3.357,0.003-6.085,2.474-6.062,5.49c0.024,3.001,2.766,5.329,6.209,5.271
	C214.858,231.378,217.335,229.031,217.227,225.879z"/>
</svg>
