<?xml version="1.0" encoding="iso-8859-1"?>
<!-- Generator: Adobe Illustrator 19.0.0, SVG Export Plug-In . SVG Version: 6.00 Build 0)  -->
<svg version="1.1" id="Layer_1" xmlns="http://www.w3.org/2000/svg" xmlns:xlink="http://www.w3.org/1999/xlink" x="0px" y="0px"
	 viewBox="0 0 2000 2000" style="enable-background:new 0 0 2000 2000;" xml:space="preserve">
<path d="M14.393,117.907c194.151,0,388.302,0,582.343,0c4.063-9.781,7.176-17.274,10.196-24.544c33.232,0,64.924,0,99.403,0
	c0,33.187,0,64.747,0,98.915c-30.834,10.835-64.233,0.85-95.388,5.128c-6.938-8.08-12.274-14.296-16.013-18.651
	c-153.233,0-303.519,0-458.715,0c205.282,272.077,407.913,540.64,612.393,811.654c-203.368,284.091-406.274,567.536-609.601,851.57
	c31.588,9.116,448.518,11.492,504.366,3.067c8.27-11.206,17.929-23.698,26.924-36.651c9.117-13.13,17.579-26.715,29.112-44.363
	c0-23.25,0-50.683,0-81.169c38.347,0,73.785,0,111.366,0c0,34.133,0,67.186,0,103.583c-17.177,2.265-34.058,4.49-54.492,7.184
	c-25.052,35.679-51.492,73.335-79.112,112.672c-215.913,0-433.237,0-657.705,0c219.723-306.338,436.296-608.284,654.182-912.061
	c-34.57-46.906-68.549-93.76-103.309-140.028c-94.87-126.279-190.136-252.259-285.118-378.454
	C202.402,365.718,119.859,255.465,36.79,145.61c-5.751-7.606-14.853-12.679-22.397-18.929
	C14.393,123.756,14.393,120.831,14.393,117.907z M1988.607,1899.086c-6.475-5.413-14.456-9.748-19.208-16.393
	c-212.401-297.033-424.519-594.269-637.449-892.573c78.58-103.356,157.505-207.165,234.724-308.73
	c20.056-1.688,35.511-2.988,51.282-4.315c0-34.571,0-66.094,0-99.35c-34.764,0-67.361,0-103.004,0c0,28.588,0,54.547,0,74.67
	c-88.419,117.256-172.933,229.333-257.347,341.278c205.987,287.79,409.383,571.96,615.421,859.82c-173.393,0-339.714,0-507.104,0
	c-102.635-148.079-204.814-295.501-308.952-445.749c0-23.642,0-49.505,0-76.379c-35.513,0-68.153,0-100.752,0
	c0,35.41,0,68.123,0,100.66c18.586,1.774,34.209,3.264,48.004,4.581c110.047,159.145,218.486,315.963,325.869,471.255
	c222.958,0,440.737,0,658.517,0C1988.607,1904.935,1988.607,1902.011,1988.607,1899.086z M1332.865,1358.426
	c0,24.444,0,48.719,0,71.832c35.744,0,68.299,0,100.419,0c0-36.908,0-69.998,0-105.514c-19.271-2.075-36.315-3.911-58.166-6.264
	c-75.796-107.305-153.317-217.052-231.376-327.561c183.057-244.27,365.817-484.833,550.446-730.755c-98.469,0-188.751,0-279.368,0
	c-137.437,181.269-274.108,361.525-413.376,545.209C863.264,621.624,727.374,440.923,591.521,260.271c-90.963,0-181.065,0-276.431,0
	c88.614,118.601,174.404,233.422,259.174,346.878c1.202,24.813,2.304,47.573,3.471,71.654c36.805-0.911,69.811,5.241,101.22-3.61
	c0-34.249,0-65.902,0-99.193c-20.642-1.356-39.156-2.571-55.56-3.648c-63.957-83.397-126.366-164.776-192.286-250.732
	c49,0,90.922,0,132.829,0c145.878,192.36,288.406,386.613,438.127,581.507c151.638-198.992,299.19-392.622,442.992-581.33
	c47.044,0,85.902,0,129.993,0c-170.017,224.758-337.103,445.641-505.789,668.639
	C1158.082,1114.429,1244.987,1235.749,1332.865,1358.426z M1001.505,1182.542c139.147,197.708,274.825,390.488,411.537,584.737
	c52.382,0,104.796,0,156.367,0c5.796,8.664,10.326,15.436,13.255,19.815c37.302,0,71.458,0,105.634,0c0-36.789,0-69.936,0-105.193
	c-34.91,0-67.878,0-100.407,0c-4.259,8.392-8.01,15.783-11.656,22.968c-43.793,0-86.019,0-130.577,0
	c-146.805-207.583-293.844-415.496-444.169-628.055c-149.39,212.667-295.662,420.895-440.27,626.755c-44.109,0-84.309,0-130.859,0
	c157.143-221.558,310.971-438.442,463.573-653.596c21.552-1.771,39.809-3.272,57.291-4.709c0-37.168,0-70.343,0-105.512
	c-34.785,0-67.536,0-102.731,0c0,27.327,0,51.924,0,73.043c-179.395,252.003-356.327,500.546-536.294,753.353
	c97.668,0,188.03,0,278.594,0C726.967,1572.649,862.59,1379.934,1001.505,1182.542z M815.68,369.637c0,36.986,0,71.238,0,106.246
	c21.278,1.36,39.833,2.546,56.904,3.638c43.642,59.076,85.636,115.921,128.834,174.397
	c121.299-160.699,240.864-319.102,358.964-475.564c172.696,0,340.492,0,507.228,0c6.214,7.422,11.421,13.642,13.315,15.904
	c35.696,0,65.85,0,95.84,0c0-35.321,0-67.948,0-100.918c-34.806,0-66.527,0-97.351,0c-4.481,8.95-8.152,16.28-12.254,24.472
	c-179.427,0-357.602,0-536.728,0c-110.228,143.446-213.46,291.312-326.586,436.541c-30.955-41.023-58.032-76.906-86.536-114.682
	c0-22.109,0-45.102,0-70.035C881.717,369.637,848.893,369.637,815.68,369.637z"/>
</svg>
