<?xml version="1.0" encoding="iso-8859-1"?>
<!-- Generator: Adobe Illustrator 19.0.0, SVG Export Plug-In . SVG Version: 6.00 Build 0)  -->
<svg version="1.1" id="Layer_1" xmlns="http://www.w3.org/2000/svg" xmlns:xlink="http://www.w3.org/1999/xlink" x="0px" y="0px"
	 viewBox="0 0 500 500" style="enable-background:new 0 0 500 500;" xml:space="preserve">
<path d="M428.102,190.408c-6.118,8.571-11.12,16.03-16.588,23.138c-9.149,11.891-13.189,25.653-16.007,40.002
	c-14.258,72.614-70.265,127.871-143.462,141.056c-15.829,2.851-31.938,4.178-49.518,6.41c-1.291,30.059-2.61,60.758-3.963,92.269
	c-55.512,0-110.091,0-165.234,0c-0.518-2.16-1.398-4.265-1.479-6.399c-1.733-45.78-3.343-91.565-5.063-137.346
	c-0.43-11.441-1.344-22.866-1.7-34.308c-0.279-8.97,1.93-11.644,11.108-12.477c11.121-1.009,22.335-2.027,33.469-1.707
	c42.522,1.219,84.811-1.144,126.806-7.632c13.146-2.031,25.995-5.951,38.979-9.006c-0.122-0.786-0.244-1.572-0.366-2.358
	c-15.04,1.055-30.063,2.518-45.121,3.089c-46.656,1.768-93.262,1.948-139.326-7.342c-4.481-0.904-8.945-2.269-13.152-4.037
	c-9.299-3.907-14.447-10.676-14.886-21.104c-1.396-33.179-3.04-66.349-4.722-99.515c-2.164-42.68-4.466-85.353-6.674-128.031
	c-0.156-3.011-0.02-6.037-0.02-11.087c18.613-2.259,37.113-5.533,55.738-6.531c30.796-1.65,61.686-2.824,92.511-2.405
	c49.334,0.671,97.37,8.518,141.761,31.493c55.802,28.881,89.291,73.46,97.09,135.97c0.283,2.269,0.837,4.504,1.238,6.759
	c2.728,15.37,9.833,18.903,24.256,12.083C424.425,191.084,425.206,191.052,428.102,190.408z M273.545,267.482
	c2.333,5.481,0.557,8.15-3.923,10.449c-17.772,9.122-35.438,18.452-52.977,28.005c-4.068,2.216-7.48,5.611-11.193,8.464
	c19.275,1.568,36.087-2.959,51.186-13.015c15.973-10.638,31.302-22.305,47.767-32.119c21.741-12.959,44.33-24.524,66.512-36.762
	c3.28-1.809,6.332-4.023,9.489-6.049c-3.708-0.275-6.345,1.172-9.129,2.243c-17.908,6.885-35.587,14.519-53.886,20.181
	c-9.687,2.997-20.454,3.081-30.769,3.404c-6.317,0.198-12.849-2.222-13.77-9.694c-3.625-29.416-43.747-38.41-66.221-30.749
	c0,13.036,0.208,26.754-0.062,40.463c-0.242,12.34,0.396,13.537,12.514,16.22C237.118,272.515,255.092,271.101,273.545,267.482z
	 M451.971,192.039c-1.003-12.719,10.153-14.295,17.649-19.187c9.965-6.504,17.179-14.673,17.749-27.964
	c-20.993-2.464-31.862,11.314-43.488,24.397c-5.004-0.652-11.21-4.905-14.214,3.084c5.999,7.447,11.868,14.732,18.306,22.723
	C449.693,193.825,452.034,192.839,451.971,192.039z"/>
</svg>
