<?xml version="1.0" encoding="iso-8859-1"?>
<!-- Generator: Adobe Illustrator 19.0.0, SVG Export Plug-In . SVG Version: 6.00 Build 0)  -->
<svg version="1.1" id="Layer_1" xmlns="http://www.w3.org/2000/svg" xmlns:xlink="http://www.w3.org/1999/xlink" x="0px" y="0px"
	 viewBox="0 0 2000 2000" style="enable-background:new 0 0 2000 2000;" xml:space="preserve">
<path d="M606.91,178.661c74.746-1.565,174.79-30.329,262.93-102.614c94.2-77.255,173.242-75.809,265.903,1.878
	c87.52,73.377,188.081,101.6,299.491,100.235c131.181-1.608,182.378,40.475,217.928,169.729
	c27.775,100.984,89.564,179.443,177.751,235.902c102.155,65.401,130.346,142.404,86.31,256.112
	c-42.737,110.355-42.794,217.06,3.979,327.137c41.405,97.443,10.895,184.53-80.947,240.489
	c-102.274,62.315-161.873,151.08-190.872,266.053c-26.982,106.976-110.305,159.433-221.366,151.361
	c-109.841-7.984-207.771,24.927-292.991,94.549c-93.596,76.465-178.713,75.543-270.723-1.744
	c-82.568-69.356-179.816-98.94-286.23-93.405c-121.284,6.309-199.112-45.209-228.211-160.612
	c-27.748-110.046-88.924-194.423-184.736-254.903c-95.803-60.474-126.214-142.608-83.482-245.387
	c45.831-110.234,49.038-218.599,0.023-326.591c-45.849-101.017,5.677-206.198,86.089-252.712
	c90.646-52.434,151.096-132.854,180.092-233.517C386.974,214.806,434.159,176.49,606.91,178.661z M570.14,1391.953
	c-5.597,104.775,64.779,159.834,161.836,116.927c174.164-76.994,344.334-84.005,520.888-6.886
	c124.179,54.242,195.159-7.804,177.949-142.383c-6.299-49.258-6.042-100.353-1.121-149.849
	c12.35-124.231,78.544-222.251,155.301-316.982c81.096-100.086,55.326-179.78-68.746-204.185
	c-179.511-35.311-308.852-130.898-401.805-286.446c-74.115-124.023-147.217-122.516-226.5-2.72
	c-5.307,8.019-10.852,15.906-15.703,24.196c-83.701,143.033-208.9,226.562-369.575,261.659
	c-144.662,31.599-173.905,102.908-79.401,215.204C544.815,1044.922,603.788,1203.405,570.14,1391.953z"/>
</svg>
