<?xml version="1.0" encoding="utf-8"?>
<!-- Generator: Adobe Illustrator 25.1.0, SVG Export Plug-In . SVG Version: 6.00 Build 0)  -->
<svg version="1.1" id="Layer_1" xmlns="http://www.w3.org/2000/svg" xmlns:xlink="http://www.w3.org/1999/xlink" x="0px" y="0px"
	 viewBox="0 0 500 500" style="enable-background:new 0 0 500 500;" xml:space="preserve">
<style type="text/css">
	.st0{enable-background:new    ;}
</style>
<path class="st0" d="M413.6,429.9c-42,41.8-99.9,67.7-163.8,67.7S127.9,471.7,86,429.9c42-41.8,99.9-67.7,163.8-67.7
	S371.6,388.1,413.6,429.9z"/>
<circle cx="250" cy="119.6" r="30.7"/>
<g>
	<path d="M177.1,483.6c-7.7-2.4-15.1-5.1-22.5-8.2C162,478.5,169.5,481.3,177.1,483.6z"/>
	<path d="M149.2,473.1c-7.2-3.3-14.3-6.9-21.1-10.8C134.9,466.2,142,469.8,149.2,473.1z"/>
	<path d="M118,456.2c-5-3.2-9.8-6.5-14.5-10C108.2,449.7,113.1,453,118,456.2z"/>
	<path d="M249.7,4.6c-135.3,0-245,109.7-245,245c0,67.8,27.6,129.2,72.2,173.6c44.3-44.1,105.4-71.4,172.9-71.4
		s128.5,27.2,172.9,71.4c44.5-44.4,72.1-105.8,72.1-173.6C494.8,114.2,385.1,4.5,249.7,4.6z M250,181.2c-33.9,0-61.5-27.6-61.5-61.5
		s27.6-61.5,61.5-61.5s61.5,27.6,61.5,61.5S283.9,181.2,250,181.2z"/>
	<path d="M182.9,485.3c21.3,6,43.7,9.3,66.9,9.3l0,0C226.6,494.6,204.2,491.4,182.9,485.3z"/>
</g>
</svg>
