<?xml version="1.0" encoding="iso-8859-1"?>
<!-- Generator: Adobe Illustrator 19.0.0, SVG Export Plug-In . SVG Version: 6.00 Build 0)  -->
<svg version="1.1" id="Layer_1" xmlns="http://www.w3.org/2000/svg" xmlns:xlink="http://www.w3.org/1999/xlink" x="0px" y="0px"
	 viewBox="0 0 2000 2000" style="enable-background:new 0 0 2000 2000;" xml:space="preserve">
<path d="M16.395,1813.272c328.966-547.637,654.993-1090.384,984.628-1639.135c329.546,548.628,655.524,1091.316,984.583,1639.135
	C1327.823,1813.272,675.377,1813.272,16.395,1813.272z M204.773,1721.044c533.142,0,1059.651,0,1592.711,0
	c-87.239-148.516-171.589-292.115-256.627-436.885C1384.273,1431.052,1213,1536.661,998.23,1535.766
	c-213.549-0.889-383.886-107.595-537.553-251.681C374.835,1430.662,291.085,1573.665,204.773,1721.044z M498.372,1207.192
	c294.806,307.244,703.998,312.613,1004.723,0.36C1216.202,898.255,793.094,891.882,498.372,1207.192z M638.217,980.379
	c239.737-137.697,477.03-139.097,720.825-7.396c-118.054-201.718-236.108-403.436-357.991-611.696
	C876.879,573.159,757.548,776.769,638.217,980.379z M1187.641,1206.43c0.181,103.479-86.268,191.039-187.446,189.856
	c-100.906-1.18-185.328-86.138-185.7-186.882c-0.389-105.379,81.154-189.876,185.098-191.804
	C1101.581,1015.71,1187.458,1101.944,1187.641,1206.43z M1094.226,1206.276c-0.027-50.66-44.359-94.63-94.496-93.725
	c-50.991,0.921-92.916,44.73-91.97,96.103c0.932,50.591,40.376,88.928,92.033,89.448
	C1053.775,1298.645,1094.255,1259.282,1094.226,1206.276z"/>
</svg>
