<?xml version="1.0" encoding="utf-8"?>
<!-- Generator: Adobe Illustrator 25.1.0, SVG Export Plug-In . SVG Version: 6.00 Build 0)  -->
<svg version="1.1" id="Layer_1" xmlns="http://www.w3.org/2000/svg" xmlns:xlink="http://www.w3.org/1999/xlink" x="0px" y="0px"
	 viewBox="0 0 2500 2500" style="enable-background:new 0 0 2500 2500;" xml:space="preserve">
<g id="Po.et">
	<path d="M1250,24.9C573.3,24.9,24.9,573.3,24.9,1250S573.3,2475.1,1250,2475.1S2475.1,1926.7,2475.1,1250S1926.7,24.9,1250,24.9z
		 M1260.5,2332.6c-592,0-1072.1-480-1072.1-1072.1s480-1072.1,1072.1-1072.1s1072.1,480,1072.1,1072.1S1852.5,2332.6,1260.5,2332.6z
		"/>
	<g id="poe">
		<g id="Shape_4_" transform="translate(-113 -284)">
			<path id="path7_fill" d="M1941.9,1043.4c-24.2-25.2-53.1-45.2-84.7-58.9s-65.7-20.5-99.9-20.5s-68.4,6.8-99.9,20.5
				c-31.5,13.7-60.5,34.2-84.7,59.4l-604.7,624.6c-5.8,6.8-9.5,15.8-8.9,24.7v321.8l-166.7,174H884l123.6-127.8h309.2
				c4.2,0,8.4-0.5,12.6-2.6c3.7-1.6,7.4-4.7,10-7.9l601-622.5l1.1-1.1c48.9-51,76.2-119.9,75.7-191.4c0.5-35.8-6.3-71-19.5-103.6
				C1985.5,1098.1,1966.1,1068.7,1941.9,1043.4L1941.9,1043.4z M1590.7,1116l26.3-26.8c37.3-38.4,87.8-59.9,140.4-59.9
				c52.6,0,103.1,21.6,140.4,59.9c1.1,1.1,1.1,2.1,2.1,2.1c35.8,38.9,55.7,91,55.7,145.1c-0.5,54.2-21,105.7-57.8,144.1l-26.3,26.8
				H1638l153-158.8c5.8-5.8,9.5-14.2,9.5-22.6c0-8.4-2.6-16.8-8.4-23.1c-1.1-1.1-1.1-1.1-1.1-2.1c-5.8-6.3-14.2-9.5-22.6-9.5
				c-8.4,0-16.8,3.7-22.6,9.5l-155.1,160.9L1590.7,1116L1590.7,1116z M1071.2,1994.6l125.7-130.4h233.4l-125.7,130.4H1071.2z
				 M1437.7,1614.4l149.3-155.1h233.4l-149.3,155.1H1437.7z M1620.1,1667l-139.3,144.6h-233.4l139.3-144.6H1620.1L1620.1,1667z
				 M1390.3,1323.2l149.3-155.1v245.5l-149.3,155.1V1323.2L1390.3,1323.2z M1200,1520.3l139.3-144.6v245.5L1200,1765.9V1520.3
				L1200,1520.3z M1022.3,1704.9l127.8-131.4V1819l-127.8,131.4"/>
		</g>
	</g>
</g>
</svg>
