<?xml version="1.0" encoding="iso-8859-1"?>
<!-- Generator: Adobe Illustrator 19.0.0, SVG Export Plug-In . SVG Version: 6.00 Build 0)  -->
<svg version="1.1" id="Layer_1" xmlns="http://www.w3.org/2000/svg" xmlns:xlink="http://www.w3.org/1999/xlink" x="0px" y="0px"
	 viewBox="0 0 500 500" enable-background="new 0 0 500 500" xml:space="preserve">
<path d="M249.422,493.016C116.954,494.854,1.868,383.709,4.833,243.124C7.561,113.766,113.801,2.979,251.616,4.007
	c137.289,1.025,246.261,115.217,242.513,251.512C490.449,389.349,378.903,494.801,249.422,493.016z M471.884,249.279
	c0.021-122.541-99.867-222.855-221.796-222.892C128.474,26.349,25.817,124.818,27.241,251.361
	c1.372,121.834,99.828,216.659,216.738,219.572C367.11,474.001,471.05,375.141,471.884,249.279z M248.718,462.089
	c-115.549,0.34-217.059-95.078-212.559-221.909c3.977-112.09,97.049-208.709,220.655-204.871
	c115.33,3.581,207.087,98.473,206.112,215.369C461.945,368.423,365.996,462.863,248.718,462.089z M377.809,185.291
	c-4.419-3.306-7.547-6.441-11.301-8.333c-35.829-18.056-71.762-35.908-107.673-53.8c-5.943-2.961-11.867-3.121-17.978-0.178
	c-38.831,18.702-77.698,37.33-116.567,55.953c-3.339,1.6-5.746,3.835-6.533,7.394c4.074,5.864,10.433,2.13,15.776,4.479
	c0.07,8.918,1.584,17.392,13,18.435c0,31.806,0,62.927,0,93.987c-10.464,1.428-10.464,1.428-13.565,17.618
	c-1.986,0.295-4.388,0.077-6.119,1.052c-2.211,1.245-5.149,3.207-5.551,5.288c-1.301,6.738-1.584,13.672-2.335,21.294
	c5.146,0.226,9.702,0.598,14.258,0.601c49.422,0.034,98.843,0.048,148.265-0.014c27.968-0.035,55.937-0.163,83.904-0.394
	c4.765-0.039,9.524-0.816,14.072-1.232c-0.47-6.245-0.947-11.589-1.252-16.943c-0.263-4.63-2.537-7.61-6.915-8.968
	c-1.986-0.616-4.027-1.05-5.443-1.413c-0.863-4.628-0.498-9.372-2.635-12.273c-2.222-3.015-6.863-4.247-10.829-6.474
	c0-30.308,0-61.429,0-91.573c4.266-1.909,9.084-2.574,10.913-5.269c2.18-3.212,1.797-8.163,2.544-12.473
	C369.303,190.099,372.827,188.107,377.809,185.291z M149.292,198.019c1.34,0.15,2.711,0.022,4.068,0.022
	c64.045,0,128.09,0.001,192.136,0.002c1.357,0,2.725,0.122,4.068-0.012c5.061-0.507,5.527-1.617,3.178-7.813
	c-68.783,0-137.673,0-207.048,0C144.371,196.768,144.731,197.508,149.292,198.019z M351.188,313.906
	c-1.788-0.486-3.76-0.394-5.649-0.395c-63.806-0.017-127.612-0.018-191.419,0c-2.163,0.001-4.513-0.258-6.427,0.493
	c-1.39,0.545-3.104,2.622-3.014,3.899c0.084,1.2,2.183,2.737,3.689,3.233c1.716,0.565,3.758,0.148,5.658,0.148
	c63.806,0.011,127.612,0.02,191.418,0.03c2.868,0,5.736,0,8.09,0C355.583,316.843,354.334,314.761,351.188,313.906z
	 M176.547,303.375c5.101,0,9.569,0,14.135,0c0-31.83,0-63.136,0-94.858c-4.933,0-9.386,0-14.135,0
	C176.547,240.458,176.547,271.943,176.547,303.375z M220.423,303.542c4.995,0,9.456,0,14.308,0c0-31.72,0-62.993,0-94.78
	c-4.803,0-9.268,0-14.308,0C220.423,240.81,220.423,272.08,220.423,303.542z M322.561,208.576c-4.951,0-9.405,0-14.115,0
	c0,31.958,0,63.422,0,95.061c4.931,0,9.191,0,14.115,0C322.561,271.52,322.561,240.236,322.561,208.576z M271.855,303.881
	c2.35-0.071,4.696-0.271,7.039-0.414c0-31.763,0-62.83,0-94.145c-5.191,0-9.842,0-14.605,0c0,31.725,0,62.778,0,94.575
	C267.105,303.897,269.482,303.953,271.855,303.881z"/>
</svg>
