<?xml version="1.0" encoding="iso-8859-1"?>
<!-- Generator: Adobe Illustrator 19.0.0, SVG Export Plug-In . SVG Version: 6.00 Build 0)  -->
<svg version="1.1" id="Layer_1" xmlns="http://www.w3.org/2000/svg" xmlns:xlink="http://www.w3.org/1999/xlink" x="0px" y="0px"
	 viewBox="0 0 2000 2000" style="enable-background:new 0 0 2000 2000;" xml:space="preserve">
<path d="M1003.221,1984.075C468.761,1980.235,7.813,1549.112,18.56,978.26C28.233,464.427,457.004,4.995,1028.809,18.21
	c516.251,11.93,968.981,441.391,954.393,1015.122C1970.099,1548.608,1553.121,1978.637,1003.221,1984.075z M1777.612,996.48
	c8.246-451.621-357.396-781.971-769.641-779.761c-468.309,2.511-791.067,341.412-790.46,787.36
	c0.591,434.511,330.091,745.143,724.362,774.41C1431.167,1814.809,1799.796,1400.841,1777.612,996.48z M1571.63,1031.617
	c14.889-348.899-256.562-600.355-571.927-598.627c-317.403,1.74-554.536,241.44-568.6,545.235
	c-15.449,333.703,267.674,603.154,569.696,591.908C1318.114,1577.752,1559.526,1315.236,1571.63,1031.617z"/>
</svg>
