<?xml version="1.0" encoding="iso-8859-1"?>
<!-- Generator: Adobe Illustrator 19.0.0, SVG Export Plug-In . SVG Version: 6.00 Build 0)  -->
<svg version="1.1" id="Layer_1" xmlns="http://www.w3.org/2000/svg" xmlns:xlink="http://www.w3.org/1999/xlink" x="0px" y="0px"
	 viewBox="0 0 500 500" style="enable-background:new 0 0 500 500;" xml:space="preserve">
<path d="M300.073,107.464c19.173,9.878,38.477,19.823,57.902,29.83c13.389,1.132,26.897,2.273,41.239,3.485
	c14.224-9.946,29.068-20.326,44.381-31.034c9.693-0.459,19.875-0.941,31.143-1.474c-1.697,0.749-2.426,1.181-3.215,1.402
	c-6.525,1.835-13.02,3.801-19.609,5.371c-3.668,0.874-6.237,2.536-8.421,5.755c-7.19,10.598-14.758,20.94-22.16,31.395
	c-0.67,0.947-1.192,1.999-1.981,3.34c2.902,2.559,5.757,5.077,8.621,7.603c3.038-0.297,5.966-0.519,8.877-0.882
	c6.865-0.856,13.727-1.734,20.574-2.719c1.109-0.159,2.316-0.696,3.166-1.423c5.055-4.325,10.014-8.763,15.014-13.152
	c2.221-1.949,4.379-3.984,6.715-5.786c3.672-2.833,5.74-6.526,6.752-10.991c0.365-1.61,1.276-3.097,2.501-4.515
	c0.398,4.551,0.797,9.102,1.19,13.597c-7.864,9.731-15.565,19.26-23.646,29.261c-10.816,3.218-22.152,6.591-33.63,10.006
	c2.166,6.886,4.201,13.264,6.165,19.664c0.471,1.535,0.898,3.126,1.021,4.716c0.386,5.003,0.699,10.016,0.891,15.03
	c0.363,9.456,0.565,18.918,0.948,28.372c0.203,5.017,0.647,10.024,1.014,15.523c-9.157,4.245-18.287,8.478-27.536,12.766
	c-10.746-6.743-21.461-13.471-32.181-20.191c-1.619-1.015-3.206-2.098-4.896-2.98c-8.401-4.382-14.897-11.006-21.216-17.853
	c-1.079-1.169-2.254-2.25-3.901-3.885c-0.448,6.658-0.907,12.618-1.219,18.585c-0.103,1.974-0.48,3.687-1.608,5.4
	c-9.569,14.518-19.045,29.097-28.515,43.604c-10.453,4.585-20.708,9.353-31.181,13.581c-6.782,2.738-12.368,7.236-18.414,11.068
	c-3.421,2.168-6.789,4.419-10.873,7.084c2.485-12.122,4.792-23.376,7.116-34.708c9.136-0.581,17.945-1.14,27.106-1.723
	c3.032-13.475,6-26.667,9.139-40.618c-3.131,1.398-5.509,2.423-7.856,3.515c-15.386,7.159-30.806,14.249-46.116,21.57
	c-3.196,1.528-6.354,1.376-9.463,0.858c-10.984-1.829-21.904-4.039-32.878-5.939c-6.354-1.1-12.764-1.867-19.144-2.821
	c-0.71-0.106-1.385-0.456-2.328-0.779c-5.005,3.6-10.14,7.274-15.255,10.977c-3.928,2.844-7.934,5.597-11.704,8.64
	c-2.02,1.631-3.961,3.57-5.339,5.749c-4.859,7.682-9.51,15.499-14.122,23.334c-1.129,1.918-2.651,2.955-4.657,3.748
	c-13.374,5.281-26.715,10.65-40.057,16.012c-0.943,0.379-1.817,0.928-2.845,1.461c-7.53,15.473-15.104,31.02-22.655,46.579
	c-0.777,1.6-1.071,3.164-0.597,5.087c1.255,5.087,2.126,10.269,3.203,15.683c-9.202,1.917-18.179,3.787-27.769,5.785
	c0.644-1.448,1.028-2.6,1.635-3.618c1.654-2.775,3.175-5.674,5.164-8.197c3.702-4.699,4.536-10.344,5.832-15.864
	c2.665-11.346,4.959-22.795,8.087-34.012c2.235-8.014,5.546-15.731,8.439-23.557c2.732-7.391,5.573-14.741,8.298-22.135
	c0.499-1.354,0.94-2.827,0.951-4.248c0.08-10.357,0.043-20.715,0.043-30.911c-2.98-1.782-26.914-6.96-35.432-7.682
	c-7.439,9.809-15.092,19.899-22.97,30.287c-7.673-0.213-15.231-2.088-22.808-4.298c8.104-2.343,16.208-4.687,24.519-7.09
	c6.162-11.463,12.362-22.995,18.75-34.879c12.407,0,24.963,0,37.626,0c7.241-7.663,14.348-15.185,21.399-22.648
	c16.07-5.465,31.978-11.033,48.013-16.206c3.481-1.123,5.819-3.445,8.386-5.53c13.767-11.185,27.411-22.521,41.066-33.844
	c12.744-10.568,25.438-21.197,38.172-31.778c6.935-5.762,13.953-11.425,20.841-17.243c3.169-2.676,7.099-2.651,10.783-3.434
	C282.876,110.775,291.239,109.209,300.073,107.464z"/>
</svg>
