<?xml version="1.0" encoding="iso-8859-1"?>
<!-- Generator: Adobe Illustrator 19.0.0, SVG Export Plug-In . SVG Version: 6.00 Build 0)  -->
<svg version="1.1" id="Layer_1" xmlns="http://www.w3.org/2000/svg" xmlns:xlink="http://www.w3.org/1999/xlink" x="0px" y="0px"
	 viewBox="0 0 2000 2000" style="enable-background:new 0 0 2000 2000;" xml:space="preserve">
<path d="M621.053,193.813c51.892-4.505,85.89,14.964,110.988,59.84c99.783,178.413,201.969,355.483,303.374,532.988
	c28.691,50.223,57.59,100.329,86.698,150.312c25.347,43.523,30.319,86.456,3.773,132.306
	c-62.457,107.875-123.064,216.82-184.97,325.016c-71.798,125.484-147.294,248.979-215.059,376.591
	c-36.137,68.051-170.016,66.158-212.186,2.034c-147.288-223.97-298.065-445.645-447.405-668.266
	c-8.328-12.415-15.458-25.627-23.493-38.247c-29.218-45.884-24.186-88.839,6.582-132.809
	c49.126-70.208,95.814-142.122,143.637-213.244c104.511-155.427,209.815-310.329,313.17-466.521
	C534.956,210.3,570.562,186.968,621.053,193.813z M129.53,1006.856c163.32,239.039,325.946,477.063,490.784,718.323
	c129.421-241.908,256.55-479.53,384.176-718.084C876.194,767.135,749.15,529.517,620.255,288.435
	C455.297,529.933,292.622,768.089,129.53,1006.856z M1454.07,1826.168c51.855-8.267,95.47-24.546,124.16-77.639
	c80.583-149.127,166.975-295.113,250.902-442.437c46.805-82.16,93.019-164.657,139.997-246.717
	c18.437-32.205,19.86-64.503,2.35-96.818c-22.326-41.203-45.686-81.849-68.868-122.584
	c-108.989-191.511-217.947-383.041-327.19-574.407c-34.525-60.479-105.992-92.578-179.315-80.817
	c161.193,274.242,322.15,548.084,483.097,821.907c-161.07,274.74-320.759,547.122-480.721,819.971
	C1417.001,1826.629,1435.959,1829.056,1454.07,1826.168z M1029.178,1826.28c49.109-8.311,96.643-16.119,123.487-69.558
	c34.839-69.355,76.194-135.437,114.734-202.934c91.364-160.01,181.344-320.836,274.891-479.559
	c29.389-49.864,24.136-93.288-2.399-139.664c-126.296-220.737-252.194-441.702-378.643-662.351
	c-11.16-19.474-21.538-42.494-38.761-54.786c-42.577-30.389-94.54-30.471-147.602-36.986
	c163.226,278.1,324.307,552.545,485.134,826.558c-161.49,275.398-320.68,546.873-480.655,819.687
	C997.586,1826.686,1013.788,1828.884,1029.178,1826.28z"/>
</svg>
