<?xml version="1.0" encoding="iso-8859-1"?>
<!-- Generator: Adobe Illustrator 19.0.0, SVG Export Plug-In . SVG Version: 6.00 Build 0)  -->
<svg version="1.1" id="Layer_1" xmlns="http://www.w3.org/2000/svg" xmlns:xlink="http://www.w3.org/1999/xlink" x="0px" y="0px"
	 viewBox="0 0 2000 2000" style="enable-background:new 0 0 2000 2000;" xml:space="preserve">
<path d="M339.787,1451.164c0,183.409,0,352.701,0,536.116c-92.729-52.711-175.875-99.976-258.315-146.838
	c0-536.052,0-1068.492,0-1610.661c91.538,51.863,177.671,100.663,265.023,150.154C564.921,253.933,782.537,128.398,1003.384,1
	c219.478,126.162,437.245,251.341,659.859,379.305c82.485-47.68,166.562-96.28,257.081-148.604c0,358.775,0,709.897,0,1068.352
	c-302.301,174.145-609.634,351.188-921.342,530.752C784.385,1707.215,566.903,1581.964,339.787,1451.164z M1401.971,996.856
	c-135.966,78.375-268.441,154.736-401.803,231.61c-135.863-78.227-269.971-155.444-403.888-232.551
	c-84.006,49.327-163.303,95.89-248.531,145.935c224.679,129.131,441.579,253.791,656.871,377.527
	c217.223-125.528,429.801-248.373,651.09-376.25C1562.997,1089.681,1482.367,1043.201,1401.971,996.856z M1399.901,530.7
	c-135.871-78.383-266.292-153.623-399.641-230.551c-130.734,75.35-259.356,149.482-396.492,228.521
	c139.508,80.735,271.144,156.915,400.339,231.682C1136.23,683.689,1264.758,609.114,1399.901,530.7z"/>
</svg>
