<?xml version="1.0" encoding="iso-8859-1"?>
<!-- Generator: Adobe Illustrator 19.0.0, SVG Export Plug-In . SVG Version: 6.00 Build 0)  -->
<svg version="1.1" id="Layer_1" xmlns="http://www.w3.org/2000/svg" xmlns:xlink="http://www.w3.org/1999/xlink" x="0px" y="0px"
	 viewBox="0 0 2000 2000" style="enable-background:new 0 0 2000 2000;" xml:space="preserve">
<path d="M1979.842,1003.792c3.195,541.473-447.61,984.796-997.917,977.187C455.513,1973.7,22.638,1534.627,23.719,995.445
	C24.816,448.696,479.727,9.727,1026.049,23.074C1558.088,36.071,1985.348,475.401,1979.842,1003.792z M1000.618,1895.434
	c491.023,0.03,894.757-397.085,895.211-880.536c0.474-503.532-392.814-906.845-884.55-907.1
	c-505.604-0.262-902.435,393.171-904.157,896.416C105.449,1493.5,508.379,1895.404,1000.618,1895.434z M144,1002.204
	c-2.077-463.768,380.027-851.213,834.532-859.779c480.281-9.052,870.396,372.874,881.924,836.717
	c11.904,478.955-371.901,869.753-836.997,880.946C540.565,1871.708,140.988,1479.471,144,1002.204z M532.176,907.917
	c128.754,128.947,250.52,250.895,367.298,367.847c55.027-54.77,108.953-108.445,158.331-157.592
	C929.392,989.077,798.269,857.26,669.445,727.754c-84.749,84.116-171.721,170.437-260.672,258.722
	c7.403,6.909,16.482,15.382,29.694,27.713C468.663,979.945,496.591,948.273,532.176,907.917z M1001.881,914.949
	c122.376,123.173,244.028,245.616,362.853,365.215c55.959-56.258,109.755-110.343,159.782-160.638
	c-129.886-129.543-262.313-261.619-390.299-389.266c-66.027,66.555-135.404,136.488-206.525,208.178
	c4.121,4.819,11.704,13.686,20.091,23.494C966.795,945.42,981.544,932.612,1001.881,914.949z M1757.561,888.296
	c-52.178-52.694-106.545-107.597-156.59-158.137c-67.297,67.153-136.993,136.701-208.415,207.97
	c6.051,5.384,15.334,13.645,24.362,21.678c17.428-15.235,31.968-27.947,52.227-45.657c44.854,47.046,87.534,91.812,128.018,134.275
	C1652.994,992.688,1707.038,938.734,1757.561,888.296z M586.704,1067.344c-19.237-22.035-37.694-43.178-50.611-57.974
	c-93.952,94.452-184.852,185.837-273.954,275.413c32.936,0,71.777,0,108.114,0C443.73,1210.969,515.531,1138.841,586.704,1067.344z
	 M449.866,1285.56c38.664,0,75.297,0,104.762,0c44.484-45.987,85.395-88.281,122.862-127.013
	c-13.77-17.38-30.651-38.688-44.74-56.471C569.502,1165.532,511.008,1224.218,449.866,1285.56z M629.003,1285.987
	c46.966,0,84.926,0,124.003,0c9.664-10.214,19.288-20.385,26.565-28.077c-20.585-23.271-38.707-43.757-56.34-63.689
	C692.525,1224.126,663.826,1252.074,629.003,1285.987z"/>
</svg>
