<?xml version="1.0" encoding="utf-8"?>
<!-- Generator: Adobe Illustrator 25.1.0, SVG Export Plug-In . SVG Version: 6.00 Build 0)  -->
<svg version="1.1" id="POWR" xmlns="http://www.w3.org/2000/svg" xmlns:xlink="http://www.w3.org/1999/xlink" x="0px" y="0px"
	 viewBox="0 0 500 500" style="enable-background:new 0 0 500 500;" xml:space="preserve">
<style type="text/css">
	.st0{enable-background:new    ;}
</style>
<g>
	<polygon class="st0" points="219.5,136.1 250.1,166.7 280.4,136.4 261,64 303,52.8 250.1,-0.1 197.2,52.8 238.8,64 	"/>
	<polygon class="st0" points="280.5,363.6 250.1,333.2 219.5,363.8 238.8,436 197.2,447.1 250.1,500 302.9,447.2 261.1,436 	"/>
	<polygon class="st0" points="219.5,363.8 208.3,322.1 166.6,333.3 147.3,405.5 105.6,394.3 124.9,466.5 197.2,447.1 166.7,416.6 	
		"/>
	<polygon class="st0" points="280.4,136.4 291.6,177.9 333.1,166.8 352.5,94.3 394.3,105.5 375,33.5 303,52.8 333.5,83.3 	"/>
	<polygon class="st0" points="166.6,333.3 177.8,291.6 136.3,280.5 83.4,333.4 52.7,302.7 33.4,375 105.6,394.3 94.4,352.6 	"/>
	<polygon class="st0" points="333.1,166.8 322,208.2 363.6,219.4 416.6,166.4 447.1,196.9 466.4,124.8 394.3,105.5 405.5,147.4 	"/>
	<polygon class="st0" points="136.3,280.5 166.8,250 136.2,219.4 63.8,238.8 52.7,197.3 0,250 52.7,302.7 63.9,261.1 	"/>
	<polygon class="st0" points="363.6,219.4 333.2,249.8 363.8,280.4 435.8,261.1 447,302.8 500,249.8 447.1,196.9 435.9,238.7 	"/>
	<polygon class="st0" points="136.2,219.4 177.7,208.3 166.6,166.7 94.4,147.4 105.6,105.5 33.3,124.9 52.7,197.3 83.4,166.6 	"/>
	<polygon class="st0" points="447,302.8 416.6,333.2 363.8,280.4 321.9,291.6 333,333.2 405.5,352.6 394.3,394.3 466.3,375 	"/>
	<polygon class="st0" points="166.6,166.7 208.3,177.9 219.5,136.1 166.7,83.3 197.2,52.8 124.9,33.5 105.6,105.5 147.2,94.4 	"/>
	<polygon class="st0" points="333,333.2 291.6,322.1 280.5,363.6 333.5,416.6 302.9,447.2 375,466.5 394.3,394.3 352.4,405.5 	"/>
</g>
</svg>
