<?xml version="1.0" encoding="iso-8859-1"?>
<!-- Generator: Adobe Illustrator 19.0.0, SVG Export Plug-In . SVG Version: 6.00 Build 0)  -->
<svg version="1.1" id="Layer_1" xmlns="http://www.w3.org/2000/svg" xmlns:xlink="http://www.w3.org/1999/xlink" x="0px" y="0px"
	 viewBox="0 0 500 500" enable-background="new 0 0 500 500" xml:space="preserve">
<path d="M249.042,492.857C114.893,492.553,5.613,383.258,6.001,249.782C6.397,113.579,114.894,5.124,250.441,5.436
	C385.322,5.747,493.36,115.214,492.996,251.202C492.639,384.464,382.909,493.161,249.042,492.857z M325.215,377.776
	c0.763-0.574,1.397-0.95,1.909-1.45c11.556-11.279,21.782-23.603,29.655-37.776c14.691-26.448,19.755-54.449,13.019-84.144
	c-7.716-34.012-27.092-60.742-53.751-82.235c-47.598-38.375-102.933-52.728-163.2-50.827c-1.318,0.042-2.626,0.385-4.293,0.643
	c0,1.9,0,3.422,0,4.943c0,46.076-0.036,92.151,0.047,138.226c0.009,5.239,0.206,10.563,1.128,15.701
	c8.637,48.101,35.462,80.272,83.128,93.703c15.415,4.344,31.257,5.5,47.24,4.639c9.74-14.325,15.588-29.796,17.728-46.623
	c3.511-27.616-2.616-53.494-14.852-78.098c-15.15-30.463-37.26-55.17-63.906-75.987c-6.562-5.127-13.421-9.873-20.144-14.794
	c8.388,3.33,16.467,7.168,24.306,11.446c26.994,14.732,51.175,32.933,69.826,57.756c22.435,29.86,32.568,63.917,33.397,100.856
	C326.778,348.23,325.681,362.738,325.215,377.776z"/>
</svg>
