<?xml version="1.0" encoding="iso-8859-1"?>
<!-- Generator: Adobe Illustrator 19.0.0, SVG Export Plug-In . SVG Version: 6.00 Build 0)  -->
<svg version="1.1" id="Layer_1" xmlns="http://www.w3.org/2000/svg" xmlns:xlink="http://www.w3.org/1999/xlink" x="0px" y="0px"
	 viewBox="0 0 500 500" style="enable-background:new 0 0 500 500;" xml:space="preserve">
<path d="M87.551,228.36c12.003,12.148,23.744,23.183,34.494,35.112c15.244,16.916,9.17,38.326-12.096,45.98
	c-11.036,3.973-19.923-0.346-27.16-7.254c-19.325-18.447-38.293-37.307-56.659-56.707c-11.359-11.998-10.938-25.598,0.62-38.271
	c11.716-12.847,24.302-24.903,36.571-37.242c46.447-46.71,92.92-93.394,139.385-140.087c3.068-3.083,6.052-6.257,9.241-9.211
	c16.714-15.484,30.395-15.737,47.198,0.218c16.22,15.401,31.889,31.396,47.497,47.425c7.354,7.552,13.995,15.798,22.164,25.101
	c20.307-20.759,38.39-39.406,56.667-57.861c9.464-9.556,20.44-13.445,33.771-8.267c18.691,7.259,26.324,26.466,16.65,43.901
	c-2.959,5.333-7.116,10.177-11.425,14.555c-21.359,21.7-42.855,43.268-64.492,64.69c-21.208,20.997-35.392,20.765-56.826-0.668
	c-22.819-22.817-45.553-45.718-67.089-67.341C186.551,131.083,137.963,178.826,87.551,228.36z M258.198,407.621
	c-19.828-19.732-40.401-38.8-59.103-59.551c-15.07-16.722-36.32-20.879-55.989,0.359c-21.104,22.788-43.663,44.227-65.569,66.273
	c-2.188,2.202-4.434,4.384-6.341,6.819c-10.262,13.097-9.868,29.241,0.88,40.753c10.864,11.635,29.088,12.85,42.185,2.341
	c5.306-4.257,9.984-9.338,14.702-14.278c14.122-14.786,28.122-29.689,42.94-45.36c6.578,6.141,11.156,10.165,15.453,14.47
	c18.881,18.918,37.619,37.98,56.531,56.868c16.291,16.27,30.861,16.857,46.712,1.044c60.287-60.146,120.424-120.444,180.43-180.871
	c17.505-17.627,17.399-30.398,0.26-47.884c-15.664-15.981-31.617-31.678-47.444-47.499c-0.879-0.879-1.731-1.79-2.659-2.615
	c-14.093-12.528-28.462-13.102-39.664-1.601c-11.352,11.656-11.034,26.294,1.347,39.649c7.602,8.2,15.85,15.797,23.619,23.847
	c3.264,3.382,6.04,7.234,8.871,10.671c-49.498,49.05-97.942,97.054-147.062,145.729
	C265.396,414.165,261.642,411.049,258.198,407.621z"/>
</svg>
