<?xml version="1.0" encoding="iso-8859-1"?>
<!-- Generator: Adobe Illustrator 19.0.0, SVG Export Plug-In . SVG Version: 6.00 Build 0)  -->
<svg version="1.1" id="Layer_1" xmlns="http://www.w3.org/2000/svg" xmlns:xlink="http://www.w3.org/1999/xlink" x="0px" y="0px"
	 viewBox="0 0 500 500" style="enable-background:new 0 0 500 500;" xml:space="preserve">
<path id="XMLID_4_" d="M276.238,483.887c-19.275,0-37.31,0-55.989,0c0-117.356,0-234.485,0-352.584
	c4.203,0,8.144-0.058,12.083,0.009c28.632,0.489,57.355-0.247,85.871,1.839c32.533,2.379,59.888,34.099,59.886,66.481
	c-0.003,36.444-0.469,72.895,0.128,109.329c0.625,38.18-30.003,71.44-71.551,71.777c-9.718,0.079-19.436,0.012-30.428,0.012
	c0,17.544,0,34.634,0,51.725C276.238,449.343,276.238,466.212,276.238,483.887z M276.602,323.871
	c10.443,0,19.882,0.293,29.295-0.084c9.123-0.365,15.319-5.412,15.357-12.747c0.188-36.454,0.419-72.916-0.356-109.354
	c-0.087-4.104-6.001-10.994-9.93-11.552c-11.149-1.584-22.669-0.555-34.366-0.555C276.602,234.58,276.602,278.663,276.602,323.871z
	 M196.357,135.078c-30.407-2.914-56.596,22.224-56.298,53.558c0.587,61.681,0.237,123.371,0.309,185.058
	c0.003,2.176,0.378,4.353,0.601,6.756c2.57,0.123,4.54,0.296,6.511,0.299c16.054,0.022,32.109,0.012,48.877,0.012
	C196.357,298.127,196.357,216.568,196.357,135.078z M291.583,59.097c-0.813-26.682-18.223-43.742-43.822-44.276
	c-24.338-0.508-43.77,16.448-44.591,44.402c-0.758,25.805,21.205,45.659,44.411,44.178C271.02,104.76,292.367,84.843,291.583,59.097
	z"/>
</svg>
