<?xml version="1.0" encoding="iso-8859-1"?>
<!-- Generator: Adobe Illustrator 19.0.0, SVG Export Plug-In . SVG Version: 6.00 Build 0)  -->
<svg version="1.1" id="Layer_1" xmlns="http://www.w3.org/2000/svg" xmlns:xlink="http://www.w3.org/1999/xlink" x="0px" y="0px"
	 viewBox="0 0 500 500" enable-background="new 0 0 500 500" xml:space="preserve">
<path d="M443.394,288.531c0.001,13.609-0.114,27.22,0.073,40.827c0.054,3.937-1.044,6.447-4.632,8.495
	c-24.263,13.841-48.353,27.987-72.627,41.81c-6.953,3.959-12.612,0.847-12.682-7.125c-0.243-27.488-0.127-54.98-0.056-82.471
	c0.01-3.966,1.713-6.908,5.472-9.061c24.434-13.999,48.712-28.271,73.126-42.305c6.346-3.648,11.197-0.797,11.278,6.553
	C443.505,259.679,443.393,274.106,443.394,288.531z M158.779,260.264c0.048,8.972,4.871,11.773,12.375,7.371
	c22.893-13.429,45.625-27.15,68.82-40.036c5.886-3.27,8.297-7.262,8.33-13.232c0.144-26.157,0.306-52.316,0.072-78.471
	c-0.084-9.467-4.164-13.53-14.209-7.823c-23.565,13.387-47.002,27-70.575,40.373c-3.838,2.177-5.003,4.968-4.924,9.255
	c0.249,13.62,0.092,27.247,0.092,40.872C158.76,232.47,158.705,246.367,158.779,260.264z M443.385,135.907
	c-0.033-9.978-5.315-13.13-14.047-8.067c-22.988,13.327-45.846,26.876-68.795,40.269c-3.844,2.243-7.184,4.447-7.164,9.692
	c0.106,27.489-0.05,54.98,0.111,82.469c0.047,8.107,5.24,11.345,12.111,7.451c24.068-13.639,47.941-27.622,71.97-41.331
	c4.587-2.617,6.047-6.121,5.926-11.282c-0.306-13.057-0.102-26.127-0.101-39.191C443.396,162.58,443.429,149.243,443.385,135.907z
	 M345.264,344.384c0-13.352,0.013-26.704-0.004-40.056c-0.013-10.167-4.183-12.738-12.995-7.738
	c-22.876,12.979-45.615,26.199-68.543,39.084c-5.933,3.334-8.079,7.815-8.039,14.513c0.151,25.064-0.164,50.13-0.183,75.196
	c-0.002,2.369,0.638,4.803,1.345,7.094c1.645,5.323,4.673,6.858,9.623,4.757c2.691-1.142,5.157-2.819,7.706-4.287
	c21.623-12.452,43.243-24.912,64.863-37.37c4.29-2.472,6.527-5.673,6.349-11.141c-0.434-13.338-0.141-26.699-0.141-40.051
	C345.252,344.384,345.258,344.384,345.264,344.384z M246.737,9.116c-23.259,13.39-46.515,26.786-69.723,40.265
	c-8.764,5.09-9.055,10.529-0.534,15.468c23.217,13.456,46.712,26.438,69.81,40.092c5.368,3.173,9.097,2.226,13.885-0.606
	c23.075-13.646,46.302-27.036,69.504-40.466c7.596-4.397,7.882-10.075,0.122-14.572c-23.918-13.86-47.987-27.46-72.012-41.136
	c-1.39-0.791-2.905-1.364-4.625-2.161C250.999,7.041,248.786,7.936,246.737,9.116z M259.922,328.575
	c23.299-13.472,46.549-27.031,69.795-40.595c5.102-2.977,5.809-7.624,1.613-11.689c-1.916-1.856-4.263-3.333-6.583-4.696
	c-6.027-3.544-12.151-6.922-18.228-10.381c-16.339-9.303-32.716-18.541-48.978-27.978c-3.596-2.087-6.824-2.455-10.429-0.358
	c-23.934,13.919-47.906,27.774-71.828,41.713c-7.474,4.355-7.388,10.458,0.108,14.776c23.495,13.535,46.997,27.059,70.507,40.566
	c1.567,0.901,3.233,1.631,5.181,2.604C254.177,331.166,257.208,330.144,259.922,328.575z M150.51,443.461
	c0-13.073-0.114-26.147,0.06-39.217c0.064-4.766-1.261-8.528-5.477-10.958c-24.064-13.866-48.087-27.804-72.242-41.509
	c-7.757-4.401-12.203-1.483-12.222,7.661c-0.054,26.419,0.138,52.84-0.139,79.257c-0.062,5.933,1.933,9.547,7.045,12.438
	c23.206,13.124,46.208,26.61,69.405,39.753c8.756,4.961,13.631,1.832,13.634-8.239c0.003-13.062,0.001-26.123,0.001-39.185
	C150.552,443.461,150.531,443.461,150.51,443.461z M75.516,119.14c24.384,14.283,48.897,28.345,73.291,42.61
	c4.125,2.412,7.589,1.531,11.303-0.609c23.506-13.542,47.084-26.962,70.537-40.596c7.456-4.334,7.264-9.995-0.471-14.526
	c-22.729-13.315-45.669-26.274-68.277-39.79c-5.598-3.347-10.381-3.691-15.809-0.502c-10.891,6.397-21.837,12.7-32.752,19.056
	c-11.866,6.91-23.709,13.861-35.592,20.741c-3.156,1.827-6.048,3.73-5.527,9.779C72.681,115.86,73.745,118.102,75.516,119.14z
	 M272.816,120.509c2.99,2.207,6.563,3.607,9.817,5.472c20.493,11.746,41,23.467,61.42,35.339c4.203,2.443,7.961,2.384,12.08-0.027
	c23.669-13.85,47.401-27.591,71.076-41.431c6.305-3.686,6.645-8.898,0.985-13.272c-1.492-1.153-3.1-2.18-4.74-3.116
	c-10.987-6.269-22.024-12.453-32.993-18.753c-11.193-6.429-22.164-13.272-33.592-19.246c-3.165-1.654-8.511-2.486-11.327-0.93
	c-24.482,13.536-48.656,27.633-72.786,41.795c-2.237,1.313-3.532,4.23-5.87,7.162C269.222,116.342,270.657,118.916,272.816,120.509z
	 M150.58,219.557c0-12.792-0.222-25.589,0.096-38.372c0.154-6.17-2.039-10.058-7.458-13.139
	c-23.63-13.434-47.044-27.246-70.608-40.798c-6.775-3.896-11.918-1.037-11.952,6.694c-0.12,27.76-0.165,55.522,0.14,83.279
	c0.03,2.719,1.951,6.608,4.19,7.93c23.887,14.112,47.954,27.924,72.111,41.572c8.33,4.706,13.26,1.646,13.373-7.976
	c0.152-13.062,0.038-26.127,0.038-39.19C150.533,219.557,150.557,219.557,150.58,219.557z M150.579,332.069
	c0-13.061-0.063-26.122,0.028-39.182c0.042-5.98-2.259-10.392-7.626-13.208c-4.551-2.388-9.074-4.839-13.522-7.414
	c-18.668-10.81-37.266-21.743-55.968-32.493c-7.804-4.486-12.765-2.007-12.816,6.576c-0.165,27.755-0.18,55.513,0.137,83.266
	c0.03,2.583,2.19,6.199,4.433,7.536c23.393,13.936,47.068,27.398,70.528,41.222c10.605,6.249,14.89,0.848,14.572-8.764
	c-0.414-12.5-0.101-25.024-0.101-37.537C150.355,332.069,150.467,332.069,150.579,332.069z M247.182,387.915
	c0-13.883-0.059-27.766,0.039-41.648c0.026-3.735-0.502-6.543-4.303-8.698c-23.943-13.572-47.66-27.54-71.608-41.103
	c-8.515-4.822-12.512-2.21-12.534,7.592c-0.051,22.594,0.961,45.245-0.366,67.761c-0.858,14.552,3.132,23.076,16.767,29.695
	c20.049,9.732,38.799,22.124,58.198,33.216c10.608,6.066,13.772,4.068,13.839-8.436c0.069-12.793,0.015-25.586,0.015-38.379
	C247.214,387.915,247.198,387.915,247.182,387.915z M256.555,204.073c-1.767,13.996,3.112,22.118,15.948,28.518
	c20.705,10.323,40.3,22.857,60.489,34.235c8.303,4.679,12.198,2.404,12.224-6.831c0.08-27.491-0.032-54.982,0.091-82.472
	c0.019-4.307-1.366-7.02-5.297-9.076c-6.931-3.625-13.562-7.82-20.353-11.717c-16.364-9.39-32.664-18.896-49.154-28.061
	c-10.399-5.78-13.616-3.85-13.69,7.66c-0.082,12.792-0.019,25.585-0.021,38.378C256.789,184.505,257.772,194.428,256.555,204.073z
	 M158.76,401.173c0,28.945-0.032,56.188,0.018,83.43c0.016,8.826,4.873,11.536,12.463,7.114c6.265-3.65,12.529-7.303,18.802-10.939
	c17.377-10.071,34.759-20.133,53.386-30.92C214.919,433.464,187.362,417.619,158.76,401.173z"/>
</svg>
