<?xml version="1.0" encoding="iso-8859-1"?>
<!-- Generator: Adobe Illustrator 19.0.0, SVG Export Plug-In . SVG Version: 6.00 Build 0)  -->
<svg version="1.1" id="Layer_1" xmlns="http://www.w3.org/2000/svg" xmlns:xlink="http://www.w3.org/1999/xlink" x="0px" y="0px"
	 viewBox="0 0 500 500" enable-background="new 0 0 500 500" xml:space="preserve">
<path d="M494.46,259.556c-0.897,58.014-24.662,115.581-71.518,163.581c-48.417,46.986-106.268,71.509-173.823,71.169
	c-66.559-0.336-123.528-24.878-171.203-71.199C31.026,374.928,7.003,317.306,6.429,250c0.801-67.033,24.876-124.395,71.605-172.345
	C126.41,30.751,184.2,6.267,251.664,6.579c66.556,0.308,123.878,24.478,171.134,71.221
	C469.416,123.91,494.41,185.287,494.46,259.556z M253.309,318.775c5.248-0.392,10.052-0.858,14.868-1.081
	c4.841-0.224,9.567-1.173,14.274-2.131c5.866-1.193,11.59-2.999,17.174-5.17c14.268-5.548,26.873-13.776,38.077-24.14
	c7.762-7.18,14.579-15.181,20.399-24.047c7.505-11.432,12.571-23.875,15.675-37.129c1.622-6.926,2.43-14.008,2.808-21.103
	c0.294-5.534,0.424-11.096-0.228-16.633c-0.213-1.807-0.334-3.626-0.558-5.431c-0.35-2.819-0.577-5.669-1.167-8.44
	c-1.182-5.551-2.609-11.042-4.577-16.385c-2.274-6.174-5.079-12.09-8.46-17.722c-5.333-8.884-11.918-16.753-19.436-23.88
	c-7.644-7.246-16.119-13.267-25.575-17.907c-5.826-2.858-11.849-5.172-18.126-6.862c-4.577-1.232-9.159-2.36-13.886-2.848
	c-3.611-0.373-7.202-1.036-10.819-1.219c-7.673-0.389-15.348-0.231-22.976,0.82c-3.2,0.441-6.427,0.83-9.561,1.578
	c-4.443,1.06-8.861,2.283-13.204,3.696c-10.731,3.493-20.757,8.487-30.202,14.653c-2.231,1.456-4.456,2.92-6.863,4.498
	c-0.216-0.957-0.456-1.704-0.544-2.467c-0.362-3.163-1.163-6.21-2.418-9.127c-1.068-2.483-2.351-4.839-4.221-6.847
	c-4.373-4.694-9.97-6.621-16.158-6.879c-3.465-0.144-6.985,0.064-10.424,0.527c-3.658,0.493-7.252,1.466-10.868,2.252
	c-0.659,0.143-1.294,0.398-1.742,0.539c1.191,3.542,2.461,6.862,3.423,10.269c2.363,8.366,3.944,16.889,4.827,25.544
	c0.522,5.11,1.268,10.198,1.734,15.312c0.452,4.964,0.723,9.947,0.98,14.926c0.225,4.351,0.42,8.707,0.453,13.063
	c0.056,7.366,0.317,14.729,0.201,22.097c-0.207,13.169,0.222,26.346-0.477,39.511c-0.139,2.614-0.052,5.241-0.084,7.861
	c-0.052,4.347-0.045,8.697-0.194,13.041c-0.157,4.584-0.502,9.162-0.702,13.746c-0.193,4.43-0.297,8.864-0.455,13.296
	c-0.153,4.274-0.318,8.547-0.492,12.82c-0.151,3.718-0.333,7.434-0.483,11.152c-0.163,4.036-0.298,8.072-0.455,12.108
	c-0.17,4.337-0.352,8.674-0.528,13.011c-0.148,3.641-0.331,7.28-0.437,10.922c-0.122,4.189-0.118,8.382-0.275,12.569
	c-0.163,4.349-0.54,8.69-0.669,13.039c-0.221,7.451-0.4,14.905-0.445,22.359c-0.029,4.833,0.255,9.666,0.316,14.501
	c0.037,2.943,0.255,5.855,0.984,8.709c1.327,5.194,4.415,8.891,9.539,10.616c1.847,0.622,3.849,0.902,5.803,1.065
	c4.052,0.338,8.041-0.36,11.998-1.14c4.109-0.81,8.097-2.077,11.967-3.655c3.786-1.545,7.529-3.212,10.89-5.245
	c-1.374-3.844-2.809-7.524-4.005-11.281c-2.085-6.551-3.459-13.268-4.326-20.091c-0.547-4.308-1.287-8.594-1.732-12.912
	c-0.478-4.643-0.764-9.308-1.037-13.969c-0.218-3.716-0.366-7.439-0.414-11.161c-0.176-13.649-0.358-27.298,0.339-40.94
	c0.023-0.442,0.098-0.881,0.165-1.465c7.851,5.905,16.372,10.138,25.599,13.204c0,0.708,0.029,1.334-0.005,1.957
	c-0.271,4.964-0.578,9.926-0.826,14.891c-0.194,3.877-0.322,7.758-0.473,11.637c-0.163,4.18-0.328,8.36-0.476,12.54
	c-0.185,5.23-0.352,10.461-0.527,15.692c-0.151,4.512-0.325,9.024-0.445,13.537c-0.171,6.417-0.386,12.835-0.421,19.254
	c-0.027,4.911,0.159,9.824,0.326,14.734c0.078,2.288,0.275,4.577,0.526,6.853c0.245,2.215,0.911,4.324,2.087,6.237
	c1.792,2.913,4.128,5.31,7.439,6.326c2.238,0.686,4.625,1.061,6.967,1.198c4.853,0.285,9.601-0.65,14.282-1.835
	c7.077-1.792,13.655-4.815,20.005-8.202c-0.94-2.395-1.873-4.66-2.723-6.955c-3.504-9.455-5.197-19.328-6.56-29.259
	c-0.655-4.774-1.071-9.588-1.42-14.397c-0.412-5.666-0.817-11.342-0.899-17.019c-0.161-11.117-0.097-22.236-0.123-33.355
	C253.304,323.999,253.309,321.393,253.309,318.775z M255.769,286.214c2.528-0.136,5.054-0.307,7.582-0.431
	c4.274-0.211,8.455-1.02,12.598-2.011c9.304-2.226,17.956-5.954,25.86-11.383c6.118-4.202,11.477-9.216,16.265-14.879
	c4.323-5.114,7.937-10.676,10.827-16.704c2.911-6.073,5.003-12.439,6.284-19.043c0.676-3.486,1.329-7.024,1.453-10.558
	c0.242-6.889,0.418-13.786-0.315-20.682c-0.452-4.252-1.083-8.459-2.038-12.61c-2.052-8.919-5.366-17.332-10.383-25.031
	c-4.051-6.217-8.897-11.709-14.604-16.476c-5.138-4.292-10.71-7.842-16.816-10.566c-5.134-2.291-10.471-3.958-15.984-5.027
	c-3.952-0.767-7.911-1.536-11.971-1.477c-1.268,0.018-2.547,0.021-3.803-0.128c-2.52-0.299-6.071-0.171-8.678,0.45
	c0.936,2.965,1.211,6.012,1.387,9.11c0.192,3.384,0.929,6.734,1.186,10.117c0.437,5.765,0.782,11.542,0.982,17.32
	c0.178,5.157,0.16,10.323,0.136,15.484c-0.068,14.742,0.014,29.485-0.447,44.223c-0.107,3.411-0.047,6.827-0.087,10.241
	c-0.121,10.3-0.024,20.599-0.364,30.902c-0.317,9.597-0.068,19.213-0.068,29.07C255.161,286.16,255.467,286.23,255.769,286.214z
	 M192.904,150.433c-0.08,2.599-0.068,5.202-0.095,7.803c-0.145,14.115,0.072,28.231-0.385,42.348
	c-0.439,13.552,0.051,27.119-0.504,40.679c-0.318,7.768-0.11,15.557-0.13,23.337c-0.002,0.618,0.068,1.237,0.099,1.752
	c8.576,5.877,22.964,13.082,25.949,12.912c0.202-5.271,0.447-10.542,0.597-15.816c0.196-6.892,0.362-13.786,0.457-20.681
	c0.11-7.937,0.163-15.874,0.174-23.812c0.008-5.937,0.12-11.874-0.042-17.812c-0.182-6.654-0.279-13.311-0.416-19.967
	c-0.073-3.571-0.076-7.145-0.252-10.711c-0.155-3.154-0.525-6.297-0.765-9.447c-0.216-2.841-0.292-5.695-0.591-8.526
	c-0.546-5.175-1.178-10.342-1.84-15.503c-0.284-2.213-0.735-4.405-1.136-6.762c-7.353,3.653-14.202,7.565-20.726,12.171
	C193.156,145.217,192.984,147.824,192.904,150.433z"/>
</svg>
