<?xml version="1.0" encoding="iso-8859-1"?>
<!-- Generator: Adobe Illustrator 19.0.0, SVG Export Plug-In . SVG Version: 6.00 Build 0)  -->
<svg version="1.1" id="Layer_1" xmlns="http://www.w3.org/2000/svg" xmlns:xlink="http://www.w3.org/1999/xlink" x="0px" y="0px"
	 viewBox="0 0 500 500" enable-background="new 0 0 500 500" xml:space="preserve">
<path d="M494.338,5.932c0,162.73,0,324.78,0,487.339c-162.475,0-324.525,0-487.338,0C7,331.162,7,168.887,7,5.932
	C169.026,5.932,331.3,5.932,494.338,5.932z M64.204,62.836c0,124.91,0,249.007,0,373.16c124.597,0,248.476,0,372.584,0
	c0-124.634,0-248.731,0-373.16C312.42,62.836,188.779,62.836,64.204,62.836z M178.828,308.675c0,31.797,0,62.22,0,93.064
	c-26.853,0-52.825,0-79.59,0c0-100.803,0-201.421,0-303.174c3.061-0.134,6.088-0.38,9.114-0.382
	c36.88-0.025,73.814,1.259,110.626-0.323c50.404-2.166,92.41,36.768,101.798,86.542c8.045,42.649-11.12,87.818-45.278,109.798
	c-15.047,9.683-31.556,14.469-49.449,14.473C210.851,308.678,195.652,308.675,178.828,308.675z M179.4,234.757
	c1.648,0.616,2.231,1.02,2.816,1.024c10.462,0.081,20.925,0.151,31.387,0.148c17.338-0.004,25.046-6.561,27.059-23.649
	c0.663-5.628,0.621-11.442,0.069-17.09c-1.235-12.637-8.507-22.88-18.378-23.577c-14.093-0.994-28.308-0.253-42.954-0.253
	C179.4,192.895,179.4,213.688,179.4,234.757z M401.161,345.111c-62.261,0-123.951,0-185.92,0c0,19.011,0,37.245,0,56.046
	c62.083,0,123.536,0,185.92,0C401.161,381.855,401.161,363.58,401.161,345.111z"/>
</svg>
