<?xml version="1.0" encoding="iso-8859-1"?>
<!-- Generator: Adobe Illustrator 19.0.0, SVG Export Plug-In . SVG Version: 6.00 Build 0)  -->
<svg version="1.1" id="Layer_1" xmlns="http://www.w3.org/2000/svg" xmlns:xlink="http://www.w3.org/1999/xlink" x="0px" y="0px"
	 viewBox="0 0 500 500" enable-background="new 0 0 500 500" xml:space="preserve">
<path d="M251.693,358.126c0-72.597,0-145.194,0-219.598c25.741,17.966,50.306,35.111,75.581,52.751
	c-24.79,56.042-49.41,111.701-74.031,167.36C252.727,358.468,252.21,358.297,251.693,358.126z M245.092,358.27
	c0.47-0.151,0.94-0.303,1.41-0.454c0-72.491,0-144.983,0-219.175c-25.505,17.818-49.835,34.815-75.292,52.599
	C196.062,247.424,220.577,302.847,245.092,358.27z M279.669,373.499c0.346,0.569,0.692,1.138,1.037,1.707
	c47.968-12.561,95.936-25.122,144.083-37.73c-1.541-24.967-3.034-49.176-4.673-75.731
	C372.279,299.81,325.974,336.655,279.669,373.499z M276.902,370.345c46.343-36.84,92.687-73.68,140.59-111.76
	c-25.465-7.513-48.926-14.435-72.842-21.491c-23.413,44.653-46.327,88.355-69.24,132.056
	C275.907,369.549,276.405,369.947,276.902,370.345z M221.896,369.952c0.53-0.497,1.061-0.994,1.591-1.492
	c-22.814-43.503-45.627-87.007-68.9-131.386c-24.025,7.125-47.467,14.077-72.766,21.58
	C129.523,296.555,175.709,333.254,221.896,369.952z M219.586,373.485c-46.265-36.803-92.531-73.605-140.303-111.606
	c-1.679,26.466-3.227,50.865-4.796,75.595c48.825,12.782,96.524,25.269,144.223,37.756
	C219.002,374.648,219.294,374.066,219.586,373.485z M322.356,182.715c0.418-0.459,0.837-0.917,1.255-1.376
	C300.131,128.304,276.65,75.27,253.17,22.235c-0.598,0.243-1.195,0.485-1.793,0.728c0,36.567,0,73.135,0,110.196
	C274.956,149.621,298.656,166.168,322.356,182.715z M246.361,23.079c-0.448-0.089-0.897-0.177-1.345-0.266
	c-23.395,52.919-46.79,105.838-70.185,158.757c0.501,0.361,1.002,0.722,1.503,1.083c23.575-16.501,47.15-33.002,70.027-49.014
	C246.361,96.154,246.361,59.616,246.361,23.079z M284.209,406.443c30.253,22.248,60.507,44.496,91.401,67.215
	c14.165-13.078,27.748-25.62,42.568-39.303c-45.875-10.187-89.609-19.898-133.344-29.61
	C284.625,405.311,284.417,405.877,284.209,406.443z M286.144,400.722c43.692,9.707,87.383,19.414,132.976,29.543
	c-7.82-18.917-14.918-36.089-22.177-53.648c-37.489,7.527-73.971,14.853-110.453,22.178
	C286.374,399.437,286.259,400.079,286.144,400.722z M214.174,404.787c-43.797,9.753-87.595,19.507-133.187,29.66
	c15.245,13.955,28.654,26.229,42.733,39.117c30.65-22.515,60.919-44.749,91.187-66.983
	C214.662,405.982,214.418,405.385,214.174,404.787z M213.485,400.624c0.013-0.558,0.025-1.115,0.038-1.673
	c-36.978-7.412-73.955-14.824-111.312-22.312c-7.357,17.876-14.348,34.863-22.057,53.596
	C125.742,420.11,169.614,410.367,213.485,400.624z M494.336,202.696c-23.509,18.731-47.018,37.461-70.35,56.051
	c1.5,23.433,2.943,45.991,4.387,68.55c0.718,0.133,1.436,0.265,2.154,0.398c21.675-41.299,43.351-82.598,65.026-123.897
	C495.147,203.431,494.742,203.064,494.336,202.696z M4,204.341c21.627,41.204,43.254,82.407,64.881,123.611
	c0.685-0.289,1.37-0.579,2.055-0.868c1.509-22.697,3.017-45.394,4.534-68.214c-23.64-18.809-46.835-37.262-70.029-55.716
	C4.961,203.549,4.48,203.945,4,204.341z M490.902,200.032c-0.369-0.555-0.737-1.109-1.106-1.664
	c-45.1,11.831-90.2,23.662-135.301,35.493c0.024,0.566,0.047,1.132,0.071,1.698c22.226,6.601,44.452,13.202,66.915,19.873
	C445.35,236.384,468.126,218.208,490.902,200.032z M144.729,233.816c-45.09-11.791-90.18-23.581-135.27-35.372
	c-0.252,0.658-0.504,1.315-0.756,1.973c23.03,18.302,46.059,36.603,69.225,55.013c22.674-6.71,44.77-13.249,66.865-19.787
	C144.772,235.033,144.751,234.425,144.729,233.816z M386.002,472.195c34.096-6.848,68.192-13.696,102.288-20.545
	c0.067-0.517,0.133-1.034,0.2-1.552c-21.754-4.914-43.508-9.828-65.127-14.712c-13.082,12.031-25.579,23.524-38.076,35.017
	C385.526,471.001,385.764,471.598,386.002,472.195z M94.883,383.133c-0.464-0.295-0.927-0.59-1.391-0.885
	c-27.668,20.368-55.335,40.737-83.003,61.105c0.354,0.689,0.709,1.378,1.063,2.067c20.992-4.643,41.985-9.287,63.523-14.051
	C81.913,414.719,88.398,398.926,94.883,383.133z M404.488,383.47c6.628,16.033,13.256,32.067,19.848,48.014
	c21.763,4.758,42.722,9.341,63.681,13.923c0.239-0.719,0.478-1.437,0.716-2.156c-27.57-20.254-55.14-40.509-82.71-60.763
	C405.512,382.815,405,383.142,404.488,383.47z M10.515,451.57c34.346,6.88,68.691,13.761,103.037,20.641
	c0.277-0.523,0.555-1.046,0.832-1.569c-12.933-11.797-25.865-23.595-38.673-35.279c-22.381,5.099-43.896,10.002-65.412,14.904
	C10.372,450.701,10.444,451.135,10.515,451.57z"/>
</svg>
