<?xml version="1.0" encoding="iso-8859-1"?>
<!-- Generator: Adobe Illustrator 19.0.0, SVG Export Plug-In . SVG Version: 6.00 Build 0)  -->
<svg version="1.1" id="Layer_1" xmlns="http://www.w3.org/2000/svg" xmlns:xlink="http://www.w3.org/1999/xlink" x="0px" y="0px"
	 viewBox="0 0 500 500" enable-background="new 0 0 500 500" xml:space="preserve">
<path d="M453.606,383.578c4.624,35.351-20.749,64.837-55.521,64.876c-98.39,0.11-196.78,0.122-295.169-0.007
	c-34.7-0.046-60.575-30.291-55.347-64.868c7.754,0,15.611,0,23.468,0c10.792,0,21.585-0.058,32.377,0.028
	c4.331,0.035,8.46-0.271,10.482-4.843c2.062-4.663-0.715-7.767-3.778-10.823c-30.806-30.753-61.469-61.652-92.406-92.273
	c-11.82-11.699-15.688-25.15-10.373-40.81C42.113,132.393,112.453,70.512,219.89,55.837
	c122.397-16.717,237.785,59.93,273.602,177.882c5.073,16.705,1.662,30.353-10.885,42.641
	c-31.098,30.455-61.753,61.363-92.619,92.055c-2.827,2.811-5.127,5.735-3.484,9.95c1.711,4.387,5.413,5.251,9.679,5.238
	C415.231,383.544,434.278,383.578,453.606,383.578z M179.545,272.372c-16.975,47.013,8.094,84.6,37.692,98.767
	c33.794,16.175,74.322,5.653,96.049-24.947c20.901-29.436,20.338-76.231-16.75-105.884c6.831-11.51,13.685-23.057,20.697-34.872
	c2.102,1.581,3.854,2.827,5.528,4.169c47.754,38.288,57.537,104.99,22.963,156.501c-3.77,5.617-3.638,10.179,0.389,13.441
	c3.938,3.19,8.098,2.547,12.8-2.151c36.145-36.109,72.273-72.236,108.402-108.361c7.704-7.703,10.086-16.759,6.746-27.19
	c-10.581-33.049-26.479-63.245-48.537-90.109c-13.198-16.073-28.359-30.052-45.209-41.724c-1.76-12.695-10.477-20.062-25.045-15.401
	c-70.079-30.236-139.348-29.909-208.823,0.809c-14.056-5.607-22.369-0.597-25.881,15.973
	c-44.858,32.298-74.112,75.952-92.544,127.544c-4.446,12.446-2.065,22.545,7.322,31.849
	c35.394,35.078,70.542,70.405,105.791,105.628c1.269,1.268,2.506,2.64,3.989,3.611c4.753,3.115,11.505,0.873,12.368-4.665
	c0.461-2.955-0.715-6.78-2.43-9.365c-17.852-26.923-24.244-56.216-18.202-87.936c1.679-8.816,4.962-17.327,7.644-26.44
	C157.104,259.083,168.362,265.75,179.545,272.372z M65.484,396.931c-0.773,19.545,15.662,36.215,36.128,36.246
	c99.282,0.149,198.565,0.139,297.847-0.01c14.699-0.022,25.949-6.988,32.616-20.156c2.392-4.725,3.138-10.284,4.814-16.08
	C312.148,396.931,189.01,396.931,65.484,396.931z M454.438,258.254c4.05-3.867,4.802-7.84,3.074-13.096
	c-9.58-29.138-23.628-55.854-42.655-79.929c-1.188-1.503-2.54-2.877-4.115-4.646c-8.779,8.543-17.256,16.797-25.739,25.045
	c-6.905,6.714-9.433,6.726-16.031-0.054c-12.906-13.263-27.577-24.145-44.104-32.451c-19.143-9.622-39.347-15.517-60.521-16.969
	c-9.988,8.997-17.628,8.741-27.867,0.148c-20.19,0.844-52.305,10.504-63.585,19.293c5.197,9.003,10.422,18.053,15.615,27.048
	c107.053-52.735,217.99,42.206,191.588,148.122c11.058-11.038,22.825-22.783,35.35-35.284c-0.265-20.547-5.009-41.367-13.669-61.13
	c-12.509-3.896-17.83-11.914-14.775-21.84c2.678-8.702,11.766-13.56,20.576-10.999c9.982,2.902,13.436,11.921,10.278,22.856
	c5.356,19.67,10.181,37.392,15.082,55.391C439.779,272.883,446.951,265.403,454.438,258.254z M43.126,247.387
	c-0.756,2.235-0.524,6.075,0.912,7.573c8.139,8.489,16.786,16.492,25.002,24.412c1.909-8.828,3.49-18.016,5.945-26.966
	c2.462-8.973,5.796-17.708,8.809-26.73c-4.827-13.544-0.993-20.35,14.512-25.511c33.347-47.871,78.861-75.084,136.908-81.308
	c8.78-12.439,21.696-12.342,31.003,0.21c21.079,1.915,41.315,7.211,60.609,16.096c19.253,8.867,36.309,20.959,51.961,35.957
	c7.166-7.809,13.942-15.193,21.324-23.238c-9.024-7.643-18.691-15.83-27.87-23.604c-13.369,4.464-22.84-0.197-26.278-15.377
	c-63.969-27.146-127.897-26.772-191.277,1.327c-3.864,13.586-10.569,17.538-24.371,14.853
	C87.364,156.082,59.862,197.922,43.126,247.387z M121.513,331.756c-4.931-22.108-5.067-44.289,0.968-66.33
	c6.07-22.167,17.05-41.401,32.788-57.511c4.693,4.119,8.375,7.351,12.099,10.619c-5.363,7-10.218,13.337-15.358,20.046
	c12.007,7.097,23.264,13.751,34.552,20.424c26.064-32.462,58.377-41.324,97.181-26.582c6.902-11.669,13.698-23.157,20.598-34.823
	c-1.798-0.918-2.888-1.534-4.024-2.045c-36.384-16.375-72.127-15.208-107.156,4.033c-7.921,4.351-9.992,3.874-14.557-4.01
	c-0.99-1.71-1.999-3.409-2.987-5.12c-5.262-9.113-10.52-18.228-15.991-27.708c-18.994,12.68-34.318,28.046-46.542,46.326
	c4.953,13.101-1.131,22.165-13.959,25.461c-8.476,19.74-13.298,40.385-13.536,61.267C98.055,308.28,109.71,319.944,121.513,331.756z
	 M259.724,126.156c-0.031-5.045-4.191-9.136-9.258-9.103c-5.055,0.033-9.168,4.189-9.134,9.231c0.033,4.992,4.277,9.183,9.261,9.146
	C255.593,135.394,259.755,131.167,259.724,126.156z M363.39,100.565c-4.995,0.014-8.921,3.794-9.094,8.755
	c-0.179,5.121,3.849,9.462,8.907,9.599c4.939,0.133,9.409-4.176,9.479-9.14C372.753,104.755,368.513,100.55,363.39,100.565z
	 M107.536,217.187c-0.084-4.86-4.08-8.929-8.917-9.08c-4.992-0.156-9.37,4.061-9.455,9.107c-0.086,5.114,4.031,9.239,9.213,9.229
	C103.591,226.433,107.626,222.355,107.536,217.187z M402.418,208.112c-5.038,0.226-9.094,4.686-8.836,9.716
	c0.251,4.891,4.308,8.653,9.284,8.611c5.187-0.044,9.22-4.186,9.09-9.333C411.827,212.048,407.416,207.887,402.418,208.112z
	 M137.686,100.567c-4.906-0.025-9.023,3.817-9.283,8.662c-0.264,4.927,3.927,9.487,8.911,9.695c4.989,0.208,9.374-3.978,9.484-9.055
	C146.909,104.709,142.877,100.594,137.686,100.567z"/>
</svg>
