<?xml version="1.0" encoding="iso-8859-1"?>
<!-- Generator: Adobe Illustrator 19.0.0, SVG Export Plug-In . SVG Version: 6.00 Build 0)  -->
<svg version="1.1" id="Layer_1" xmlns="http://www.w3.org/2000/svg" xmlns:xlink="http://www.w3.org/1999/xlink" x="0px" y="0px"
	 viewBox="0 0 500 500" enable-background="new 0 0 500 500" xml:space="preserve">
<path d="M7,222.637C78.32,152.131,150.705,80.571,223.853,8.257c26.545,27.337,53.601,55.201,80.658,83.065
	c1.214-0.646,2.428-1.293,3.643-1.939c0.294-5.205,0.595-10.411,0.88-15.616c0.273-4.981,0.529-9.963,0.826-15.572
	c41.368,0,81.255,0,122.007,0c0.219,4.402,0.536,7.836,0.539,11.27c0.032,45.991,0.111,91.983-0.088,137.973
	c-0.027,6.211,1.583,10.83,6.232,15.163c17.286,16.111,34.23,32.589,53.235,50.78c-18.635,17.807-35.407,34.267-52.734,50.122
	c-4.987,4.563-6.746,9.181-6.718,15.691c0.199,45.99,0.1,91.982,0.097,137.973c0,3.803,0,7.607,0,12.181
	c-142.12,0-283.431,0-425.428,0C7,401.656,7,313.703,7,222.637z M93.44,339.292c4.76,0.671,8.465,1.143,12.154,1.722
	c11.972,1.878,23.92,5.259,35.91,5.403c27.791,0.332,54.658-6.247,78.567-20.081c64.482-37.312,95.312-93.785,90.663-168.442
	c-0.658-10.573-1.219-22.106-10.381-30.976c-23.518-22.768-46.356-46.238-69.534-69.36c-2.143-2.137-4.774-3.784-7.268-5.729
	c-1.702,1.545-2.667,2.349-3.551,3.234c-59.576,59.641-119.206,119.228-178.53,179.119c-2.89,2.918-4.325,8.503-4.343,12.855
	c-0.271,67.203-0.208,134.407-0.16,201.61c0.002,3.355,0.576,6.709,0.867,9.893c19.077,0,36.872,0,55.606,0
	C93.44,418.562,93.44,379.452,93.44,339.292z M401.906,458.635c0-4.966,0-8.477,0-11.989c0-32.799,1.614-65.706-0.555-98.362
	c-1.497-22.548,4.796-39.128,22.131-52.903c7.878-6.261,14.29-14.368,23.039-23.355c-12.755-12.014-24.391-23.459-36.592-34.268
	c-6.347-5.623-8.26-11.912-8.19-20.205c0.358-42.106,0.165-84.217,0.165-126.036c-10.329-6.829-55.918-5.638-63.763,2.72
	c1.135,19.124,2.289,39.568,3.573,60.004c2.271,36.149-1.903,71.111-18.174,104.057c-38.516,77.987-101.086,117.666-188.138,118.559
	c-3.405,0.035-6.811,0.004-10.367,0.004c0,28.152,0,54.872,0,81.773C217.599,458.635,309.079,458.635,401.906,458.635z"/>
</svg>
