<?xml version="1.0" encoding="iso-8859-1"?>
<!-- Generator: Adobe Illustrator 19.0.0, SVG Export Plug-In . SVG Version: 6.00 Build 0)  -->
<svg version="1.1" id="Layer_1" xmlns="http://www.w3.org/2000/svg" xmlns:xlink="http://www.w3.org/1999/xlink" x="0px" y="0px"
	 viewBox="0 0 2000 2000" style="enable-background:new 0 0 2000 2000;" xml:space="preserve">
<path d="M986.949,1965.539c-528.454,2.119-969.489-429.858-964.353-975.071c4.877-517.749,431.357-969.09,997.486-952.434
	c501.323,14.749,938.646,428.197,931.119,980.372C1944.13,1537.115,1520.008,1966.523,986.949,1965.539z M987.34,125.372
	c-486.426-0.805-862.109,389.944-876.679,843.216c-16.646,517.899,395.874,904.875,862.329,910.156
	c503.4,5.7,876.02-393.955,890.66-845.048C1880.421,516.935,1460.967,121.457,987.34,125.372z M1809.831,1000.212
	c4.927,447.003-367.774,837.95-847.444,824.831c-432.8-11.836-790.549-366.159-798.102-805.244
	c-3.827-222.496,69.35-416.861,220.872-578.697c164.395-175.585,369.795-264.669,610.747-262.718
	C1443.576,182.009,1811.143,549.015,1809.831,1000.212z M664.929,1158.197c5.367,0,9.34,0,13.314,0
	c212.31,0,424.62,0.189,636.928-0.316c19.639-0.047,39.663-2.801,58.825-7.245c54.5-12.642,99.92-40.851,135.373-84.388
	c51.561-63.32,68.141-135.39,51.481-214.855c-13.115-62.551-47.473-111.816-98.776-149.302
	c-41.353-30.216-88.01-46.794-139.145-46.903c-241.263-0.516-482.528-0.231-723.792-0.221c-3.322,0-6.773-0.421-9.945,0.307
	c-35.771,8.216-58.186,35.501-53.351,74.845c3.849,31.323,33.444,54.895,66.417,54.843c236.272-0.375,472.545-0.068,708.817-0.319
	c43.965-0.047,79.036,16.873,104.416,52.383c29.625,41.448,29.363,98.027-0.197,139.275
	c-25.759,35.945-62.063,52.233-106.078,52.122c-50.707-0.128-101.413-0.03-152.12-0.03c-186.023,0-372.046-0.005-558.069,0.031
	c-3.955,0.001-7.993,0.038-11.853,0.783c-29.01,5.597-52.971,32.229-52.253,66.357c1.127,53.551,0.25,107.143,0.315,160.717
	c0.071,58.229-0.546,116.476,0.743,174.679c0.575,25.976,16.638,43.932,40.256,52.819c23.729,8.93,46.587,5.655,66.489-11.946
	c16.148-14.281,22.131-32.502,22.164-53.187c0.114-70.212,0.042-140.425,0.041-210.638
	C664.929,1191.789,664.929,1175.568,664.929,1158.197z"/>
</svg>
