<?xml version="1.0" encoding="iso-8859-1"?>
<!-- Generator: Adobe Illustrator 19.0.0, SVG Export Plug-In . SVG Version: 6.00 Build 0)  -->
<svg version="1.1" id="Layer_1" xmlns="http://www.w3.org/2000/svg" xmlns:xlink="http://www.w3.org/1999/xlink" x="0px" y="0px"
	 viewBox="0 0 2000 2000" style="enable-background:new 0 0 2000 2000;" xml:space="preserve">
<path d="M1560.214,1119.883c141.89,0,279.966,0,428.808,0c-7.558,44.04-11.279,81.984-20.77,118.426
	c-71.691,275.279-219.187,492.469-483.906,615.063c-149.578,69.271-306.222,74.861-465.542,37.129
	c-18.295-4.333-38.54-7.028-56.79-3.971c-339.004,56.783-597.607-73.997-784.396-349.782
	c-232.604-343.43-214.022-820.315,43.998-1146.625c187.337-236.92,433.436-341.642,737.831-289.35
	c15.428,2.65,32.609,3.773,47.456-0.146c339.214-89.531,632.279,58.243,812.437,316.354
	c83.861,120.148,137.898,252.508,162.743,396.724c2.645,15.351,0.356,31.553,0.356,53.267c-141.418,0-280.52,0-422.715,0
	c-9.325-40.127-16.79-78.013-26.976-115.153c-69.102-251.967-210.923-444.51-451.748-558.707
	c-62.413-29.596-116.767-31.068-178.696,2.331c-250.625,135.165-393.166,348.27-441.655,622.734
	c-54.089,306.16,17.249,582.247,229.898,815.149c71.819,78.658,157.624,139.969,258.02,176.86c24.766,9.1,58.56,10.354,82.944,1.201
	c263.034-98.732,417.22-295.961,496.192-558.737C1540.61,1209.698,1549.178,1165.443,1560.214,1119.883z M882.486,143.647
	c-28.601-2.602-43.727-5.199-58.848-5.169c-204.19,0.404-376.985,77.744-513.165,226.685
	C12.356,691.216-16.345,1180.535,241.195,1538.807c141.399,196.704,333.475,306.976,580.333,310.371
	c15.93,0.219,31.907-2.93,60.605-5.776c-332.675-196.666-487.457-484.245-487.832-848.473
	C393.925,629.195,549.59,340.608,882.486,143.647z"/>
</svg>
