<?xml version="1.0" encoding="iso-8859-1"?>
<!-- Generator: Adobe Illustrator 19.0.0, SVG Export Plug-In . SVG Version: 6.00 Build 0)  -->
<svg version="1.1" id="Layer_1" xmlns="http://www.w3.org/2000/svg" xmlns:xlink="http://www.w3.org/1999/xlink" x="0px" y="0px"
	 viewBox="0 0 500 500" enable-background="new 0 0 500 500" xml:space="preserve">
<path d="M107.712,138.79c-1.121,17.389-4.746,32.647-21.677,41.061c0,46.037,0,91.888,0,138.774
	c12.521,6.874,19.727,18.211,21.16,33.158c-2.226,21.261-12.548,35.167-36.592,37.281c-19.91-2.462-31.031-14.911-33.188-35.771
	c0.965-14.936,6.902-26.913,21.264-34.434c0.903-45.755,0.183-91.613,0.256-137.842c-14.85-10.637-25.52-23.496-19.864-43.497
	c2.084-7.369,5.673-13.732,11.614-19.149c6.118-5.578,13.215-7.28,21.66-8.766c6.115,1.879,13.002,3.994,19.898,6.113
	C134,91.621,175.659,67.578,217.256,43.571c0.956-3.402,2.053-6.515,2.693-9.719c3.17-15.869,14.414-23.307,28.799-26.658
	c8.902-2.073,17.221,1.452,24.181,6.846c8.462,6.558,13.864,15.2,14.065,26.397c0.011,0.618,0.437,1.229,1.08,2.924
	c41.502,23.908,83.778,48.262,126.141,72.666c9.89-5.678,20.073-7.948,30.693-3.999c8.018,2.981,14.527,8.206,18.831,15.789
	c10.038,17.687,4.228,37.683-15.531,52.308c0,45.518,0,91.407,0,138.551c1.51,1.123,3.891,2.839,6.212,4.631
	c12.191,9.412,15.757,22.491,13.102,36.657c-2.215,11.815-9.043,21.471-21.156,25.894c-4.009,1.464-8.222,2.37-13.165,3.763
	c-6.887-2.439-14.303-5.064-23.119-8.185c-40.1,23.198-81.479,47.137-123.197,71.271c1.197,13.141-3.788,23.656-13.594,31.831
	c-6.058,5.051-13.219,7.663-21.203,7.45c-19.29-0.514-32.722-15.966-34.278-39.997c-12.297-7.066-24.941-14.33-36.686-21.078
	c-7.565,0-14.131,0-21.943,0c-9.906-3.443-17.808-10.407-19.488-22.699c-1.544-11.292,1.213-21.247,10.178-28.266
	c0-53.036,0-105.344,0-158.168c-9.051-4.814-11.461-13.827-13.65-23.318c6.558-26.957,19.5-35.296,43.493-26.936
	c14.195-8.211,28.84-16.683,43.545-25.19c3.099-15.227,12.148-24.435,27.35-26.504c7.935-1.08,14.768,2.563,21.033,7.43
	c6.453,5.012,8.596,12.406,11.321,19.134c14.447,8.377,28.541,16.548,42.567,24.68c16.33-7.571,31.173-1.652,38.365,10.847
	c7.282,12.655,9.466,23.18-8.404,41.021c0,15.737,0,31.797,0,48.891c7.378,5.92,12.924,13.946,13.386,25.438
	c-4.433,19.697-7.785,23.179-29.286,29.574c-4.3-0.842-8.852-1.734-13.965-2.735c-13.671,7.818-27.507,15.731-42.603,24.364
	c-2.671,11.132-8.024,21.965-23.475,26.768c-22.311,3.816-33.973-9.722-35.889-25.91c-7.353-4.355-15.033-8.903-22.979-13.609
	c0-11.451,0-23.023,0-35.931c12.95,7.42,24.952,14.297,36.768,21.067c15.322-4.671,15.322-4.671,30.902,0.005
	c6.882-3.843,13.845-7.643,20.72-11.595c6.891-3.961,13.694-8.075,20.2-11.923c1.541-5.578,2.078-11.113,4.573-15.548
	c2.544-4.524,7.013-7.966,10.811-12.067c0-15.316,0-30.702,0-46.119c-7.992-6.744-14.914-13.999-14.736-25.714
	c-13.824-7.853-27.686-15.729-41.044-23.317c-5.4,1.953-10.04,3.631-14.825,5.362c-5.443-1.542-10.849-3.072-17.644-4.997
	c-12.642,7.233-26.386,15.097-40.022,22.9c-2.373,10.07-5.93,18.932-14.219,24.817c0,51.35,0,102.307,0,153.219
	c10.289,9.895,15.358,13.068,16.252,32.875c10.404,6.076,21.015,12.272,31.774,18.555c14.63-9.708,29.376-11.68,44.724,0.304
	c41.11-23.726,82.445-47.582,122.962-70.966c2.029-7.702,2.681-15.325,6.038-21.471c3.386-6.2,9.455-10.935,15.387-17.453
	c0-44.774,0-91.356,0-137.888c-16.092-11.883-18.956-17.472-20.339-40.437c-40.053-23.154-80.553-46.567-120.448-69.629
	c-6.412,3.557-12.084,6.703-16.059,8.907c-13.794,2.022-24.688,0.329-33.53-9.735C188.498,92.24,148.29,115.408,107.712,138.79z"/>
</svg>
