<?xml version="1.0" encoding="iso-8859-1"?>
<!-- Generator: Adobe Illustrator 19.0.0, SVG Export Plug-In . SVG Version: 6.00 Build 0)  -->
<svg version="1.1" id="Layer_1" xmlns="http://www.w3.org/2000/svg" xmlns:xlink="http://www.w3.org/1999/xlink" x="0px" y="0px"
	 viewBox="0 0 500 500" enable-background="new 0 0 500 500" xml:space="preserve">
<path d="M79.659,332.277c-12.154,0-24.309,0.121-36.461-0.033c-13.065-0.166-23.186-6.189-30.791-16.525
	c-5.652-7.682-7.903-16.41-7.243-25.959c0.198-2.871-0.385-5.787-0.395-8.683c-0.047-14.208-0.27-28.423,0.08-42.622
	c0.184-7.448-0.445-14.944,1.338-22.373c2.575-10.729,8.599-18.778,17.785-24.57c6.973-4.397,14.755-6.072,22.912-6.085
	c23.11-0.036,46.22-0.049,69.329-0.009c5.863,0.01,11.554-0.582,16.94-3.14c7.429-3.529,13.399-8.656,17.74-15.668
	c4.435-7.166,6.046-15.201,6.587-23.382c0.497-7.501,0.215-15.056,0.224-22.587c0.02-15.92-0.057-31.841,0.024-47.76
	c0.068-13.462,5.94-24.024,16.917-31.554c6.695-4.592,14.296-7.024,22.542-7.015c22.425,0.025,44.859-0.34,67.271,0.214
	c12.898,0.319,23.353,6.14,30.887,17.121c5.087,7.413,6.699,15.565,6.753,24.169c0.13,20.884,0.037,41.769,0.041,62.653
	c0.001,3.559-0.235,7.145,0.104,10.674c1.615,16.838,10.546,28.442,25.979,34.946c4.708,1.984,9.869,2.492,15.059,2.476
	c22.596-0.069,45.193-0.069,67.789,0.018c4.257,0.016,8.565,0.236,12.751,0.942c2.787,0.47,5.506,1.76,8.072,3.048
	c10.446,5.241,17.265,13.65,20.62,24.762c0.822,2.721,0.934,5.733,0.943,8.612c0.072,23.452,0.204,46.906-0.019,70.356
	c-0.13,13.668-6.518,24.255-18.063,31.324c-5.922,3.626-12.409,5.923-19.785,5.807c-20.366-0.321-40.741-0.21-61.111-0.076
	c-7.328,0.048-14.631,0.623-21.807,2.495c-11.614,3.028-19.919,9.967-25.478,20.483c-3.218,6.087-3.98,12.626-3.984,19.341
	c-0.01,15.406-0.003,30.813-0.002,46.219c0,7.874,0.044,15.749-0.011,23.623c-0.097,13.849-5.459,25.096-16.687,33.395
	c-6.806,5.03-14.452,7.499-22.908,7.501c-22.596,0.006-45.194,0.188-67.788-0.031c-14.615-0.142-25.665-6.972-33.511-19.249
	c-4.406-6.894-5.666-14.517-5.673-22.46c-0.02-22.767,0.025-45.535,0.041-68.302c0.004-6.366-0.748-12.639-3.445-18.453
	c-5.162-11.126-13.549-18.536-25.514-21.893c-4.68-1.313-9.344-1.75-14.157-1.711c-11.297,0.092-22.596,0.029-33.894,0.029
	C79.659,332.323,79.659,332.3,79.659,332.277z M363.85,135.574c6.488,1.396,13.071,2.719,19.672,3.138
	c9.04,0.574,18.136,0.29,27.208,0.335c13.615,0.068,26.348-3.716,38.256-9.882c15.737-8.148,26.73-21.103,33.847-37.113
	c5.268-11.851,8.546-24.311,9.918-37.369c1.02-9.706,1.724-19.375,1.772-29.112c0.008-1.667-0.231-3.335-0.361-5.064
	c-8.06-2.912-16.274-3.561-24.316-4.525c-8.455-1.014-17.064-0.86-25.608-0.976c-8.748-0.119-17.365,1.559-25.852,3.272
	c-8.334,1.682-16.289,5.12-23.781,9.165c-5.206,2.811-10.159,6.308-14.665,10.154c-11.846,10.112-19.438,23.147-24.483,37.736
	c-1.054,3.048-1.959,6.181-2.558,9.346c-1.108,5.848-2.68,11.614-2.599,17.677c0.056,4.249-0.54,8.505-0.809,12.759
	c-0.322,5.085-0.606,10.172-0.943,15.883C354.145,132.705,358.917,134.514,363.85,135.574z"/>
</svg>
