<?xml version="1.0" encoding="iso-8859-1"?>
<!-- Generator: Adobe Illustrator 19.0.0, SVG Export Plug-In . SVG Version: 6.00 Build 0)  -->
<svg version="1.1" id="Layer_1" xmlns="http://www.w3.org/2000/svg" xmlns:xlink="http://www.w3.org/1999/xlink" x="0px" y="0px"
	 viewBox="0 0 500 500" enable-background="new 0 0 500 500" xml:space="preserve">
<path d="M201.856,345.845c0,21.358,0.419,40.939-0.093,60.496c-0.896,34.222-16.754,59.276-48.13,73.356
	c-8.907,3.997-19.067,5.205-29.949,8.029c-0.464-5.719-1.016-9.389-1.021-13.059c-0.058-43.502-0.156-87.004,0.001-130.505
	c0.153-42.26,27.854-69.952,70.097-70.125c37.765-0.155,75.558,0.806,113.284-0.41c18.419-0.594,37.321-2.963,54.938-8.151
	c35.392-10.423,55.247-37.05,57.553-73.868c0.712-11.37,0.693-23.113-1.326-34.263c-5.623-31.059-24.628-51.842-54.542-60.358
	c-18.145-5.166-37.474-7.717-56.375-8.353c-37.723-1.268-75.521-0.132-113.282-0.51c-34.407-0.345-62.277-23.702-69.204-57.312
	c-0.757-3.672-0.735-7.505-1.166-12.29c4.157-0.508,7.754-1.326,11.353-1.33c60.233-0.071,120.468-0.352,180.697,0.124
	c23.42,0.185,46.66,2.97,69.359,9.565c67.877,19.722,105.828,66.091,110.736,136.683c2.113,30.392-1.446,60.235-13.708,88.404
	C458.4,304.064,415.929,330.34,362.08,339.98c-19.635,3.515-39.878,4.338-59.886,4.898c-28.182,0.789-56.403,0.158-84.608,0.216
	C212.915,345.103,208.244,345.527,201.856,345.845z M82.55,219.774c49.601,0.608,99.215,0.168,148.823,0.093
	c2.702-0.004,5.403-0.833,8.327-1.315c0-2.554,0.205-4.458-0.03-6.305c-5.259-41.352-36.607-70.322-78.291-70.869
	c-48.646-0.638-97.306-0.214-145.959-0.148c-3.175,0.004-6.348,0.881-9.419,1.337C7.062,185.802,39.968,219.252,82.55,219.774z"/>
</svg>
