<?xml version="1.0" encoding="iso-8859-1"?>
<!-- Generator: Adobe Illustrator 19.0.0, SVG Export Plug-In . SVG Version: 6.00 Build 0)  -->
<svg version="1.1" id="Layer_1" xmlns="http://www.w3.org/2000/svg" xmlns:xlink="http://www.w3.org/1999/xlink" x="0px" y="0px"
	 viewBox="0 0 500 500" enable-background="new 0 0 500 500" xml:space="preserve">
<path d="M215.946,495.911c-35.408-22.155-69.007-43.177-102.271-63.989c0-78.899,0-157.295,0-235.914
	c33.945-21.802,67.445-43.317,102.234-65.661c0,36.484,0,71.212,0,107.693c37.026-24.914,72.852-49.02,109.52-73.693
	C246.744,111.363,168.372,58.589,90,5.814c0.129-0.575,0.258-1.15,0.387-1.725c4.051,0,8.101-0.001,12.151,0
	c55.291,0.02,110.582-0.01,165.872,0.194c3.009,0.011,6.397,1.39,8.957,3.105c45.55,30.518,91.003,61.181,136.455,91.845
	c1.518,1.024,2.81,2.384,4.163,3.548c0,39.626,0.097,78.982-0.202,118.336c-0.022,2.85-2.196,6.743-4.583,8.362
	c-62.189,42.185-124.537,84.135-186.862,126.12c-3.258,2.195-6.544,4.346-10.392,6.899
	C215.946,406.527,215.946,450.433,215.946,495.911z"/>
</svg>
