<?xml version="1.0" encoding="iso-8859-1"?>
<!-- Generator: Adobe Illustrator 19.0.0, SVG Export Plug-In . SVG Version: 6.00 Build 0)  -->
<svg version="1.1" id="Layer_1" xmlns="http://www.w3.org/2000/svg" xmlns:xlink="http://www.w3.org/1999/xlink" x="0px" y="0px"
	 viewBox="0 0 500 500" style="enable-background:new 0 0 500 500;" xml:space="preserve">
<path d="M165.313,104.351c-25.02,25.922-49.711,51.502-75.319,78.033c84.983,0,168.537,0,252.775,0c0-7.954,0-15.826,0-25.747
	c30.07,21.355,58.722,41.704,88.312,62.718c-29.766,20.088-58.871,39.73-89.126,60.148c0-9.418,0-17.418,0-25.666
	c-88.631,0-176.563,0-265.497,0c-8.156,46.416-16.323,92.9-24.582,139.902c-40.942-50.971-65.901-142.133-31.854-232.359
	C55.354,67.751,148.084,3.803,249.782,4c102.011,0.198,187.596,62.82,223.872,146.662c-1.884-1.704-2.945-2.411-3.681-3.367
	c-14.49-18.813-34.272-29.25-56.524-35.778c-18.524-5.435-37.493-7.23-56.736-7.203c-62.062,0.086-124.125,0.035-186.187,0.037
	C168.899,104.351,167.272,104.351,165.313,104.351z M486.112,224.519c-7.367,35.972-28.167,62.329-59.657,80.514
	c-30.95,17.874-64.863,25.316-100.121,25.77c-54.298,0.699-108.611,0.185-162.918,0.185c-2.357,0-4.715,0-6.937,0
	c-4.71,26.683-9.246,52.386-13.861,78.533c-26.314,0-52.118,0-78.363,0c66.236,81.394,195.181,114.227,302.215,55.484
	c114.924-63.073,142.035-183.49,122.076-267.697C487.754,206.768,487.889,215.839,486.112,224.519z"/>
</svg>
