<?xml version="1.0" encoding="iso-8859-1"?>
<!-- Generator: Adobe Illustrator 19.0.0, SVG Export Plug-In . SVG Version: 6.00 Build 0)  -->
<svg version="1.1" id="Layer_1" xmlns="http://www.w3.org/2000/svg" xmlns:xlink="http://www.w3.org/1999/xlink" x="0px" y="0px"
	 viewBox="0 0 2000 2000" style="enable-background:new 0 0 2000 2000;" xml:space="preserve">
<path d="M21.823,208.381c13.203-21.663,26.406-43.327,40.37-66.239c50.181,29.045,99.789,57.758,152.246,88.12
	c6.92-39.297,13.515-76.748,20.448-116.118c25.9,4.41,51.197,8.718,78.363,13.343c-19.784,115.525-39.349,229.773-59.275,346.128
	c-26.4-4.46-51.752-8.743-78.476-13.258c8.355-49.458,16.451-97.383,24.724-146.352c-59.953-34.399-119.177-68.38-178.4-102.36
	C21.823,210.557,21.823,209.469,21.823,208.381z M1050.682,1002.606c0-84.656,0-166.12,0-248.038
	c56.952-33.781,113.671-67.423,172.313-102.207c6.294,39.984,12.167,77.288,18.288,116.175c26.417-4.573,51.212-8.866,77.44-13.406
	c-20.064-116.128-39.801-230.362-59.804-346.134c-27.456,4.671-52.772,8.977-78.957,13.431
	c8.419,49.951,16.507,97.934,24.597,145.932c-69.137,40.112-136.647,79.28-204.048,118.384
	c-68.392-39.701-135.456-78.631-203.6-118.188c8.21-48.61,16.314-96.597,24.658-146.002c-26.667-4.465-52.007-8.708-78.445-13.135
	c-19.972,116.466-39.567,230.738-59.348,346.089c26.706,4.588,51.684,8.88,78.312,13.455c8.182-38.641,16.209-76.544,24.643-116.375
	c61.454,34.849,121.292,68.782,181.149,102.725c0,93.178,0,185.465,0,278.461c-43.524,15.793-86.728,31.47-130.784,47.457
	c8.749,25.266,17.028,49.177,25.83,74.596c110.183-41.197,219.027-81.894,328.408-122.791
	c-8.552-26.004-16.318-49.619-24.486-74.456C1127.047,973.664,1089.447,987.914,1050.682,1002.606z M1194.204,1620.763
	c-10.954-25.579-21.302-49.742-31.934-74.569c-110.463,41.15-219.396,81.731-329.365,122.697
	c11.123,25.857,21.338,49.604,32.024,74.445c34.67-12.234,68.211-24.069,103.832-36.639c0,61.675,0,121.182,0,181.114
	c27.856,0,54.099,0,81.107,0c0-70.551,0-140,0-211.495C1098.443,1657.62,1145.824,1639.384,1194.204,1620.763z M1688.281,127.436
	c20.009,116.591,39.621,230.865,59.419,346.227c27.674-4.901,52.965-9.38,78.353-13.877c-8.501-50.186-16.556-97.737-24.662-145.584
	c60.074-34.949,119.013-69.237,178.509-103.849c-13.891-23.798-26.888-46.065-40.158-68.8
	c-51.631,29.894-101.228,58.61-152.76,88.447c-6.938-39.804-13.439-77.098-20.303-116.474
	C1739.667,118.319,1714.33,122.815,1688.281,127.436z M1645.961,532.695c27.693-4.92,52.91-9.4,78.522-13.95
	c-20.05-116.899-39.634-231.077-59.351-346.031c-26.483,4.55-51.005,8.763-78.531,13.492
	C1606.488,302.291,1626.108,416.813,1645.961,532.695z M832.899,1433.815c9.728,25.96,18.608,49.654,27.974,74.647
	c110.557-41.196,219.637-81.842,329.361-122.728c-9.432-25.277-18.311-49.074-27.88-74.72
	C1051.69,1352.263,942.724,1392.878,832.899,1433.815z M1563.452,231.759c-27.182,4.721-52.102,9.049-78.522,13.638
	c19.859,115.881,39.446,230.172,59.307,346.062c26.685-4.534,51.629-8.773,78.583-13.353
	C1602.932,462.08,1583.281,347.437,1563.452,231.759z M618.333,304.535c-26.663-4.531-51.604-8.768-78.601-13.356
	c-19.855,116.02-39.47,230.641-59.281,346.407c27.487,4.562,52.389,8.694,78.609,13.045
	C578.968,534.384,598.539,420.111,618.333,304.535z M1190.29,1150.591c-9.731-25.929-18.66-49.719-27.997-74.6
	c-110.127,41.016-219.204,81.64-329.331,122.656c9.469,25.416,18.319,49.167,27.847,74.741
	C971.845,1232.005,1080.855,1191.377,1190.29,1150.591z M832.892,1551.301c9.704,25.826,18.754,49.91,28.049,74.647
	c110.713-41.225,219.405-81.698,329.276-122.61c-9.466-25.359-18.484-49.516-27.883-74.695
	C1052.174,1469.657,943.114,1510.262,832.892,1551.301z M1521.133,637.199c-19.898-116.087-39.556-230.769-59.376-346.402
	c-27.513,4.765-52.463,9.087-78.558,13.607c19.784,115.392,39.313,229.299,59.34,346.104
	C1469.188,645.995,1494.152,641.768,1521.133,637.199z M1340.94,709.598c26.861-4.586,51.823-8.849,78.509-13.405
	c-19.891-115.937-39.551-230.522-59.405-346.24c-27.173,4.636-52.122,8.893-78.519,13.397
	C1301.398,479.163,1321.068,593.791,1340.94,709.598z M720.086,363.476c-27.044-4.511-51.964-8.667-78.635-13.116
	c-19.912,116.313-39.517,230.837-59.258,346.151c27.107,4.626,51.626,8.81,78.566,13.407
	C680.676,593.612,700.301,479.009,720.086,363.476z M1190.271,1268.214c-9.569-25.519-18.625-49.672-28-74.675
	c-110.449,41.152-219.446,81.763-329.359,122.716c9.669,25.816,18.549,49.526,27.944,74.61
	C971.284,1349.75,1080.371,1309.133,1190.271,1268.214z M355.709,532.59c19.947-116.554,39.501-230.81,59.228-346.082
	c-27.384-4.649-52.318-8.882-78.545-13.334c-19.837,115.82-39.417,230.141-59.299,346.226
	C303.965,523.909,329.265,528.154,355.709,532.59z M457.336,591.567c19.952-116.425,39.518-230.595,59.301-346.036
	c-27.191-4.608-52.104-8.83-78.553-13.313c-19.841,115.711-39.424,229.918-59.383,346.314
	C406.469,583.135,431.32,587.254,457.336,591.567z"/>
</svg>
