<?xml version="1.0" encoding="iso-8859-1"?>
<!-- Generator: Adobe Illustrator 19.0.0, SVG Export Plug-In . SVG Version: 6.00 Build 0)  -->
<svg version="1.1" id="Layer_1" xmlns="http://www.w3.org/2000/svg" xmlns:xlink="http://www.w3.org/1999/xlink" x="0px" y="0px"
	 viewBox="0 0 500 500" enable-background="new 0 0 500 500" xml:space="preserve">
<path d="M144.384,283.279c-26.654,15.88-52.345,31.186-78.836,46.969c-8.389-14.476-16.517-28.502-25.094-43.303
	c26.225-16.001,52.103-31.79,78.4-47.836c-3.522-6.104-6.75-11.701-10.389-18.008c-26.578,15.292-52.66,30.299-79.557,45.775
	c-8.385-14.472-16.526-28.521-25.087-43.296c26.497-15.315,52.769-30.499,79.513-45.957C56.696,131.327,30.39,85.608,3.571,39
	c19.712,0,38.401,0,57.643,0c62.415,107.954,124.966,216.142,188.03,325.218c53.24-92.121,105.834-183.123,158.94-275.012
	c-67.735,0-134.477,0-202.565,0c8.324,14.474,16.269,28.287,24.695,42.938c-19.607,0-38.279,0-57.715,0
	c-17.624-30.412-35.501-61.26-53.921-93.045c125.584,0,250.207,0,376.163,0c-26.845,46.498-53.21,92.163-79.97,138.513
	c26.485,15.314,52.732,30.492,79.478,45.958c-8.456,14.627-16.587,28.692-25.041,43.316c-26.634-15.328-52.723-30.344-79.552-45.784
	c-3.445,5.948-6.674,11.521-10.42,17.987c26.26,16.028,52.111,31.806,78.404,47.855c-8.464,14.621-16.609,28.692-25.069,43.307
	c-26.42-15.734-52.315-31.154-78.858-46.96c-34.794,60.187-69.369,119.995-104.571,180.887
	C214.059,403.479,179.41,343.705,144.384,283.279z"/>
</svg>
