<?xml version="1.0" encoding="iso-8859-1"?>
<!-- Generator: Adobe Illustrator 19.0.0, SVG Export Plug-In . SVG Version: 6.00 Build 0)  -->
<svg version="1.1" id="Layer_1" xmlns="http://www.w3.org/2000/svg" xmlns:xlink="http://www.w3.org/1999/xlink" x="0px" y="0px"
	 viewBox="0 0 500 500" style="enable-background:new 0 0 500 500;" xml:space="preserve">
<path d="M12.116,249.352c0-8.269,0.264-16.548-0.059-24.805c-0.554-14.196,2.905-27.574,7.437-40.811
	c0.819-2.392,0.798-5.082,1.691-7.435c4.235-11.159,7.961-22.588,13.206-33.264c4.857-9.886,10.722-19.459,17.373-28.238
	c9.915-13.086,18.745-27.114,30.91-38.405c20.154-18.705,42.542-33.994,67.552-45.626c17.643-8.206,36.075-13.752,54.903-17.996
	c8.248-1.859,16.916-2.352,25.411-2.508c15.391-0.282,30.849-0.594,46.174,0.54c10.945,0.81,21.775,3.702,32.552,6.125
	c19.518,4.387,37.989,11.529,55.669,21.005c14.642,7.848,28.175,17.204,40.568,28.11c10.007,8.806,20.359,17.369,28.433,28.167
	c6.113,8.175,12.746,16.026,18.164,24.639c6.17,9.808,11.876,20.019,16.649,30.569c6.776,14.98,12.716,30.307,15.988,46.607
	c2.193,10.924,3.868,21.728,3.657,32.929c-0.165,8.767,1.717,17.591,1.331,26.33c-1.014,22.938-3.126,45.703-10.093,67.886
	c-6.529,20.787-15.595,40.213-27.389,58.425c-7.583,11.71-15.602,23.303-25.681,32.861c-10.476,9.934-20.629,20.307-32.621,28.689
	c-12.155,8.496-24.561,16.501-37.656,23.394c-16.426,8.646-33.923,14.222-52.029,18.395c-15.099,3.48-30.196,5.445-45.639,4.803
	c-3.101-0.129-6.179-0.75-9.277-1.05c-2.256-0.219-4.659-0.834-6.771-0.33c-14.91,3.561-29.412,0.244-43.925-2.412
	c-14.585-2.67-28.551-7.554-42.052-13.523c-17.936-7.929-35.341-17.029-50.776-29.241c-8.672-6.861-16.604-14.688-24.612-22.348
	c-9.662-9.243-19.425-18.433-26.725-29.818c-3.677-5.735-7.884-11.177-11.089-17.16c-11.288-21.076-22.386-42.275-27.139-66.047
	c-2.615-13.081-5.612-26.078-4.171-39.653c0.658-6.202,0.112-12.532,0.112-18.805C12.166,249.352,12.141,249.352,12.116,249.352z
	 M250.28,44.581C138.279,43.207,43.723,134.843,44.056,251.088c0.164,57.175,21.407,106.633,62.439,146.623
	c41.275,40.227,91.764,60.305,149.043,58.508c112.834-3.541,199.455-94.521,200.455-204.796
	C457.032,136.726,361.576,42.678,250.28,44.581z M267.643,463.51c0.693,6.555,1.328,12.572,1.985,18.79
	c1.602,0.12,2.754,0.462,3.766,0.218c1.258-0.303,2.4-1.089,3.776-1.756c-0.858-6.19-1.654-11.932-2.506-18.078
	C272.015,462.995,270.185,463.211,267.643,463.51z M462.975,278.012c-0.762,2.342-1.48,4.545-2.433,7.474
	c7.059,0.915,13.095,1.697,19.731,2.557c0.168-2.811,0.277-4.618,0.414-6.914C474.659,280.068,469.141,279.097,462.975,278.012z
	 M232.264,463.367c-2.719,0-4.963,0-7.26,0c-0.502,6.314-0.961,12.086-1.475,18.562c2.632,0,4.881,0,7.123,0
	C231.176,475.887,231.657,470.347,232.264,463.367z M147.921,437.871c-3.333,6.141-6.121,11.279-9.239,17.025
	c2.377,1.198,4.462,2.249,6.94,3.499c2.958-5.832,5.604-11.049,8.371-16.504C151.946,440.536,150.363,439.488,147.921,437.871z
	 M86.547,387.764c-5.572,4.619-10.033,8.317-14.879,12.335c1.808,2.111,3.197,3.732,5.002,5.839
	c4.897-4.223,9.472-8.168,14.67-12.651C89.541,391.214,88.141,389.602,86.547,387.764z M209.832,40.381
	c2.725-6.575-0.879-12.683-1.793-19.861c-2.788,0.738-4.997,1.323-7.343,1.943c1.221,5.492,2.302,10.086,3.248,14.707
	C204.589,40.317,206.304,41.471,209.832,40.381z M299.518,21.672c-3.181,0-5.206,0-7.402,0c-1.34,5.91-2.573,11.349-3.898,17.195
	c1.763,0.729,3.237,1.484,4.799,1.918c0.692,0.192,1.564-0.263,2.544-0.462C296.794,34.508,298.007,28.792,299.518,21.672z
	 M57.173,156.061c-6.149-2.71-10.947-4.824-16.226-7.151c-1.166,2.016-2.207,3.819-3.708,6.415
	c5.793,2.682,11.036,5.11,17.167,7.949C55.383,160.727,56.202,158.593,57.173,156.061z M391.648,435.338
	c2.155-1.838,3.765-3.211,5.779-4.928c-4.022-4.961-7.725-9.528-11.804-14.56c-1.963,1.666-3.573,3.032-5.52,4.683
	C384.042,425.584,387.669,430.236,391.648,435.338z M108.559,435.166c3.976-5.069,7.618-9.714,11.569-14.751
	c-2.053-1.628-3.732-2.959-5.771-4.576c-4.02,5.079-7.682,9.706-11.603,14.661C104.856,432.189,106.53,433.535,108.559,435.166z
	 M120.365,57.034c3.386,5.194,6.548,10.044,10.197,15.642c2.283-1.616,4.17-2.952,6.178-4.374
	c-4.071-5.39-6.272-11.308-11.631-15.255C123.393,54.489,121.96,55.693,120.365,57.034z M426.679,128.162
	c5.293-3.827,9.831-7.107,14.684-10.616c-1.439-2.015-2.682-3.757-4.203-5.887c-5.325,3.634-10.341,7.058-15.671,10.696
	C423.519,124.626,424.992,126.274,426.679,128.162z M308.311,456.394c1.895,5.871,3.492,10.964,5.224,16.011
	c0.231,0.673,1.151,1.11,2.094,1.968c1.611-0.94,3.194-1.863,4.955-2.891c-1.724-5.986-3.321-11.532-5.006-17.385
	C312.81,454.972,310.978,455.551,308.311,456.394z M186.335,474.391c1.881-6.145,3.632-11.863,5.521-18.036
	c-2.659-0.726-4.673-1.276-7.186-1.962c-1.817,6.03-3.466,11.503-5.238,17.382C181.943,472.726,183.683,473.386,186.335,474.391z
	 M354.302,457.878c2.567-0.965,4.497-1.69,7.061-2.654c-3.146-6.037-5.937-11.395-9.049-17.367
	c-2.489,1.781-4.195,3.002-5.974,4.276C348.96,447.315,351.351,452.042,354.302,457.878z M458.644,201.554
	c6.404-1.447,11.787-2.663,17.794-4.02c-0.493-2.664-0.911-4.925-1.404-7.591c-6.426,1.713-12.006,3.201-17.951,4.785
	C457.632,197.128,458.049,198.953,458.644,201.554z M37.494,278.182c-6.537,1.161-12.257,2.176-18.54,3.291
	c0.771,2.474,1.307,4.191,2.072,6.645c6.306-0.977,12.202-1.891,18.696-2.898C38.829,282.402,38.261,280.606,37.494,278.182z
	 M51.411,370.562c5.349-3.097,10.33-5.982,15.815-9.159c-1.592-2.24-2.79-3.927-4.083-5.747c-5.79,2.775-11.121,5.112-15.538,9.786
	C48.883,367.162,49.969,368.623,51.411,370.562z M374.234,53.078c-4.308,5.038-8.208,9.688-9.641,16.335
	c1.858,0.989,3.472,1.848,5.368,2.858c3.357-5.322,6.442-10.214,9.986-15.832c-0.843-0.566-1.761-1.226-2.723-1.814
	C376.517,54.193,375.752,53.857,374.234,53.078z M463.732,235.962c-0.07,6.997,0.207,7.4,5.282,6.985
	c3.894-0.318,7.769-0.869,11.645-1.378c0.49-0.064,0.932-0.501,1.912-1.058c-0.102-1.536-0.221-3.328-0.389-5.856
	C475.639,235.118,469.653,235.543,463.732,235.962z M41.851,200.884c0.379-2.395,0.659-4.171,1.006-6.364
	c-6.039-1.512-11.636-2.914-18.132-4.54c-0.179,3.07-0.312,5.369-0.451,7.756c3.45,0.772,6.136,1.469,8.86,1.956
	C35.852,200.176,38.608,200.45,41.851,200.884z M86.458,83.775c4.913,5.167,8.935,9.397,14.028,14.753
	c1.747-1.825,3.225-3.368,5.161-5.39c-5.191-5.255-9.43-9.547-13.938-14.112C89.77,80.779,88.525,81.905,86.458,83.775z
	 M58.847,116.902c5.253,4.085,9.784,7.61,14.794,11.506c1.576-2.304,2.759-4.032,4.297-6.281
	c-5.187-3.753-9.872-7.143-14.768-10.685C61.811,113.158,60.801,114.434,58.847,116.902z M432.94,361.482
	c5.891,3.256,10.79,5.964,16.379,9.053c1.204-2.232,2.161-4.006,3.285-6.09c-5.424-3.324-10.206-6.254-15.376-9.422
	C435.945,356.954,434.752,358.752,432.94,361.482z M32.228,331.232c6.308-2.322,11.779-4.336,17.759-6.537
	c-1.399-2.433-2.445-4.251-3.409-5.928c-11.284,3.01-15.542,4.867-16.693,7.599C30.423,327.484,31.123,328.938,32.228,331.232z
	 M429.585,401.053c-6.089-5.055-10.693-8.878-16.034-13.313c-1.371,1.874-2.253,2.981-3.009,4.168
	c-0.265,0.416-0.224,1.028-0.469,2.319c4.198,3.419,8.681,7.07,14.268,11.62C426.273,404.082,427.624,402.846,429.585,401.053z
	 M35.239,243.418c0.233-2.533,0.417-4.53,0.598-6.497c-6.353-1.936-12.065-2.645-18.398-1.307c0.234,2.206,0.426,4.012,0.638,6.007
	C23.856,242.226,29.163,242.782,35.239,243.418z M159.037,35.502c1.558,6.938,3.794,12.452,7.674,17.421
	c1.814-0.979,3.246-1.751,4.981-2.687c-2.039-5.876-2.776-12.021-7.499-16.963C162.597,33.963,161.144,34.591,159.037,35.502z
	 M400.427,97.999c4.635-5.068,8.688-9.5,13.162-14.393c-2.543-1.507-4.13-2.447-5.493-3.254c-4.33,4.342-8.246,8.27-12.493,12.53
	C396.915,94.273,398.216,95.653,400.427,97.999z M450.908,325.21c5.974,2.029,11.435,3.884,17.23,5.853
	c0.968-2.349,1.655-4.017,2.43-5.896c-5.935-2.884-11.173-5.98-17.599-6.215C452.309,320.955,451.79,322.53,450.908,325.21z
	 M335.124,51.971c2.259-5.82,4.236-10.91,6.369-16.405c-2.848-0.872-4.797-1.468-6.939-2.124
	c-1.582,6.348-5.674,10.935-6.479,17.317C330.392,51.158,332.244,51.476,335.124,51.971z M459.553,148.829
	c-5.911,2.792-10.899,5.148-16.372,7.733c1.183,2.374,2.12,4.254,3.222,6.465c5.644-2.643,10.841-5.076,16.406-7.682
	C461.535,152.796,460.684,151.093,459.553,148.829z M246.878,17.593c0.04,6.597-0.975,12.405,0.611,18.007c2.059,0,3.644,0,5.542,0
	c0-6.149,0-11.902,0-18.007C250.951,17.593,249.37,17.593,246.878,17.593z M312.9,336.573c6.76,6.605,12.897,12.52,18.93,18.538
	c2.462,2.456,4.467,5.182,3.275,9.068c-2.051,6.683-9.449,8.484-14.941,3.338c-5.818-5.452-11.38-11.18-16.979-16.861
	c-1.392-1.412-2.495-3.109-3.664-4.591c-13.731,6.298-27.29,8.47-41.304,8.307c-7.126-0.083-14.255-0.091-21.382-0.009
	c-14.26,0.163-27.648-2.965-39.649-10.838c-20.114-13.194-31.82-31.757-32.387-55.917c-0.71-30.203-0.564-60.441-0.097-90.654
	c0.54-34.971,26.164-61.873,58.216-66.731c18.371-2.784,36.953-3.187,55.196,0.157c28.649,5.252,47.027,22.789,55.326,50.548
	c1.758,5.88,2.1,12.343,2.151,18.546c0.222,26.797-0.268,53.603,0.207,80.393C336.186,301.775,329.264,320.435,312.9,336.573z
	 M300.904,323.915c13.208-13.025,17.819-27.844,17.53-44.954c-0.448-26.509-0.194-53.032-0.03-79.548
	c0.047-7.575-1.507-14.744-4.478-21.548c-7.075-16.206-19.343-26.879-36.703-29.982c-17.713-3.166-35.83-3.142-53.574-0.163
	c-23.201,3.895-41.036,23.533-41.519,50.224c-0.251,13.872,0.741,27.761,0.888,41.646c0.174,16.535,0.441,33.086-0.052,49.609
	c-0.666,22.271,21.28,46.252,45.558,46.605c14.537,0.211,29.081,0.015,43.621,0.014c4.249,0,8.257-0.792,12.299-3.399
	c-1.108-1.323-1.916-2.445-2.881-3.412c-4.024-4.03-8.169-7.941-12.123-12.038c-2.634-2.729-3.113-5.839-1.294-9.398
	c1.794-3.509,4.495-5.336,8.258-4.497c2.319,0.518,4.774,1.709,6.512,3.311C288.955,311.95,294.705,317.825,300.904,323.915z"/>
</svg>
