<?xml version="1.0" encoding="iso-8859-1"?>
<!-- Generator: Adobe Illustrator 19.0.0, SVG Export Plug-In . SVG Version: 6.00 Build 0)  -->
<svg version="1.1" id="Layer_1" xmlns="http://www.w3.org/2000/svg" xmlns:xlink="http://www.w3.org/1999/xlink" x="0px" y="0px"
	 viewBox="0 0 500 500" enable-background="new 0 0 500 500" xml:space="preserve">
<path d="M402.984,165.291c-14.989,20.371-34.593,35.202-54.485,50.257c-0.837-5.899-1.699-11.356-2.372-16.835
	c-1.82-14.799-12.624-24.485-27.428-25.615c-42.381-3.236-84.812-0.924-127.215-1.393c-7.703-0.085-15.635,1.29-23.097,3.325
	c-9.996,2.726-16.186,9.591-18.584,20.123c-1.999,8.779-2.039,17.682-2.783,26.51c-0.774,9.194-0.309,18.511-0.069,27.767
	c0.275,10.579,0.465,21.193,1.546,31.704c0.591,5.744,2.946,11.306,4.515,16.981c-11.872,4.88-52.504,7.618-64.366,4.698
	c-0.767-3.53-1.975-7.354-2.386-11.262c-2.848-27.104-2.04-54.325-1.433-81.468c0.345-15.441,2.135-30.989,7.85-45.759
	c7.138-18.447,20.043-31.115,38.089-38.445c13.241-5.378,27.186-7.459,41.531-8.467c45.149-3.171,90.322-1.112,135.47-1.163
	c19.491-0.022,39.144,2.14,57.612,9.824C383.827,133.75,396.383,146.905,402.984,165.291z M420.386,97.694
	c14.778,7.843,22.181,19.669,20.666,36.867c-0.778,8.831-3.348,16.936-7.564,24.52c-10.931,19.66-25.598,36.148-42.655,50.788
	c-15.259,13.097-31.223,25.175-48.087,36.056c-19.739,12.736-40.357,23.918-61.689,33.768c-21.468,9.912-43.29,18.915-65.887,25.981
	c-19.713,6.164-39.572,11.539-60.001,14.99c-15.241,2.575-30.399,4.96-45.897,4.546c-4.355-0.116-8.723-0.179-13.072,0.015
	c-9.549,0.425-18.853-1.328-27.985-3.59c-11.664-2.889-22.29-7.951-30.338-17.429c-4.559-5.369-7.328-11.404-7.312-18.426
	c0.015-6.347,0.563-12.693,0.93-20.149c-3.571,4.873-6.572,9.033-9.64,13.144c-7.837,10.499-13.485,21.939-16.52,34.804
	c-3.268,13.854,2.467,29.473,14.175,37.867c13.955,10.003,30.104,13.342,46.414,14.271c15.36,0.875,30.925,1.615,46.371-1.128
	c12.438-2.208,25.184-2.778,37.547-5.287c21.791-4.424,43.273-10.206,64.453-17.07c23.525-7.624,46.492-16.604,69.211-26.391
	c23.344-10.057,46.013-21.407,68.079-33.893c15.708-8.888,31.022-18.602,45.81-28.951c14.867-10.404,29.316-21.521,43.106-33.312
	c11.548-9.873,22.335-20.764,31.582-32.938c9.827-12.938,18.965-26.359,22.074-42.747c2.103-11.086,0.471-21.351-7.09-30.44
	c-7.632-9.175-17.671-14.083-28.729-17.087c-6.966-1.892-14.277-2.478-21.362-3.985c-9.389-1.996-18.753-0.628-29.281-1.049
	C412.748,93.921,416.625,95.698,420.386,97.694z M214.22,365.873c18.654,0,37.309,0,55.732,0c1.672,1.82,3.112,3.097,4.205,4.621
	c12.339,17.213,24.868,34.298,36.786,51.799c3.861,5.67,8.344,7.69,14.859,7.595c16.069-0.236,32.143-0.078,48.216-0.096
	c0.796-0.001,1.593-0.174,2.635-0.295c1.207-1.28,2.494-2.644,3.725-3.949c0-2.659,0-5.097,0-7.541
	c-13.214-17.886-26.403-35.736-39.569-53.557c8.526-2.73,16.474-4.887,24.134-7.801c21.567-8.206,34.087-24.441,40.011-46.264
	c1.826-6.728,2.682-13.62,3.765-20.49c0.945-5.999,0.809-11.738,1.049-18.449C348.624,312.395,283.573,343.327,214.22,365.873z"/>
</svg>
