<?xml version="1.0" encoding="iso-8859-1"?>
<!-- Generator: Adobe Illustrator 19.0.0, SVG Export Plug-In . SVG Version: 6.00 Build 0)  -->
<svg version="1.1" id="Layer_1" xmlns="http://www.w3.org/2000/svg" xmlns:xlink="http://www.w3.org/1999/xlink" x="0px" y="0px"
	 viewBox="0 0 2000 2000" style="enable-background:new 0 0 2000 2000;" xml:space="preserve">
<path d="M998.019,29.012c262.077,150.805,523.373,301.161,784.148,451.217c0,11.087,0,19.925,0,28.763
	c-0.007,287.769-0.055,575.537,0.143,863.305c0.007,10.502-3.24,16.623-12.761,22.023
	c-149.821,84.975-299.396,170.382-449.016,255.71c-28.157,16.058-56.263,32.206-85.655,49.036c0,89.721,0,179.528,0,271.181
	c-35.51-20.5-68.979-39.82-102.447-59.142c-94.827-54.746-189.714-109.388-284.461-164.27
	c-83.807-48.545-167.384-97.488-251.199-146.019c-95.87-55.511-191.909-110.731-287.837-166.143
	c-26.253-15.165-52.11-31.041-78.696-45.592c-8.881-4.861-11.374-10.686-11.355-20.115c0.244-123.629,0.216-247.259,0.214-370.889
	c-0.003-165.826-0.043-331.651-0.066-497.477c-0.001-5.006,0-10.012,0-15.762C478.693,332.897,737.856,181.247,998.019,29.012z
	 M1548.864,619.49c-182.476-106.162-363.323-211.376-544.681-316.887c-184.015,105.586-367.71,210.988-550.401,315.814
	c0,212.739,0,423.955,0,635.181c182.027,103.422,363.13,206.32,547.518,311.084c-1.607-121.006-3.171-238.804-4.73-356.253
	c-78.566-46.157-155.856-91.563-233.846-137.382c0-7.066-0.008-13.343,0.001-19.62c0.112-80.589,0.56-161.181,0.003-241.766
	c-0.091-13.102,3.509-20.606,15.086-27.137c72.29-40.781,144.207-82.227,216.097-123.712c7.409-4.276,13.03-2.932,19.794,1.173
	c51.851,31.467,103.889,62.627,155.84,93.931c23.036,13.881,46.005,27.873,70.608,42.787c0,210.283,0,420.299,0,633.09
	c104.968-61.6,206.943-121.443,308.711-181.165C1548.864,1038.423,1548.864,829.259,1548.864,619.49z"/>
</svg>
