<?xml version="1.0" encoding="utf-8"?>
<!-- Generator: Adobe Illustrator 25.1.0, SVG Export Plug-In . SVG Version: 6.00 Build 0)  -->
<svg version="1.1" id="qbit" xmlns="http://www.w3.org/2000/svg" xmlns:xlink="http://www.w3.org/1999/xlink" x="0px" y="0px"
	 viewBox="0 0 500 500" style="enable-background:new 0 0 500 500;" xml:space="preserve">
<path d="M294.2,428.7c-14.1,3.4-28.8,5.3-43.9,5.3c-101.7,0-184.1-82.4-184.1-184s82.4-184.1,184-184.1S434.3,148.3,434.3,250
	c0,17.6-2.5,34.7-7.1,50.8c22.2,5.7,41.6,18.3,55.9,35.3c9.9-26.8,15.3-55.8,15.3-86.1c0-137.1-111.1-248.2-248.2-248.2
	S2,112.9,2,250s111.1,248.2,248.2,248.2c26.9,0,52.8-4.3,77.1-12.2C310.9,471,299,451.2,294.2,428.7z"/>
<g>
	<circle cx="400.1" cy="405.7" r="73.9"/>
</g>
</svg>
