<?xml version="1.0" encoding="iso-8859-1"?>
<!-- Generator: Adobe Illustrator 19.0.0, SVG Export Plug-In . SVG Version: 6.00 Build 0)  -->
<svg version="1.1" id="Layer_1" xmlns="http://www.w3.org/2000/svg" xmlns:xlink="http://www.w3.org/1999/xlink" x="0px" y="0px"
	 viewBox="0 0 500 500" enable-background="new 0 0 500 500" xml:space="preserve">
<path d="M431.033,247.133c-61.279-16.209-113.075-1.547-148.187,52.392c-31.268,48.034-25.946,97.328,5.591,144.245
	c-55.139,27.938-153.137,16.198-214.593-43.11c-74.427-71.825-89.241-181.054-36.376-266.895
	C91.077,46.717,195.919,10.15,292.981,45.183C380.288,76.695,435.333,163.733,431.033,247.133z M388.542,260.59
	c-58.85-0.082-106.375,47.151-106.391,105.736c-0.015,59.027,48.359,107.379,107.055,107.007
	c58.211-0.369,105.846-48.613,105.607-106.957C494.571,307.327,447.702,260.672,388.542,260.59z"/>
</svg>
