<?xml version="1.0" encoding="iso-8859-1"?>
<!-- Generator: Adobe Illustrator 19.0.0, SVG Export Plug-In . SVG Version: 6.00 Build 0)  -->
<svg version="1.1" id="Layer_1" xmlns="http://www.w3.org/2000/svg" xmlns:xlink="http://www.w3.org/1999/xlink" x="0px" y="0px"
	 viewBox="0 0 500 500" enable-background="new 0 0 500 500" xml:space="preserve">
<path d="M261.954,5.089C371.336,10.679,460.77,87.122,486.12,187.463c4.877,19.303,6.195,39.609,7.951,59.559
	c1.154,13.109-7.856,22.172-19.8,22.338c-12.049,0.167-20.242-8.38-20.702-21.691c-2.641-76.533-36.505-135.018-102.034-174.582
	c-30.322-18.307-63.737-26.813-99.213-27.159c-13.185-0.129-21.989-7.808-22.593-19.206c-0.61-11.521,7.644-20.86,19.306-21.591
	C253.325,4.863,257.647,5.089,261.954,5.089z M160.826,476.257c28.619,11.22,58.301,16.894,89.037,16.729
	c11.374-0.061,19.863-8.239,20.429-18.999c0.593-11.252-7.109-20.201-18.646-21.471c-3.322-0.366-6.698-0.216-10.038-0.457
	c-85.883-6.221-146.005-49.102-180.525-127.708C50.57,300.41,46.89,274.843,46.357,248.75c-0.245-11.976-9.423-20.309-20.882-19.99
	c-11.063,0.308-19.41,8.984-19.718,20.535c-0.064,2.392-0.009,4.787-0.009,7.181C7.66,352.526,69.747,440.548,160.826,476.257z
	 M161.508,237.79c-7.623,51.735,35.646,101.161,87.861,100.363c13.343-0.204,22.649-10.764,20.783-23.584
	c-1.441-9.894-9.261-16.307-20.805-17.061c-32.552-2.127-54.07-30.455-46.053-60.629c6.066-22.832,27.641-38.123,50.632-35.887
	c25.27,2.458,42.799,21.006,44.543,47.132c0.895,13.405,9.083,21.63,21.14,21.235c11.854-0.389,19.804-9.655,19.572-22.813
	c-0.839-47.466-40.756-86.419-88.715-86.571C205.314,159.832,168.213,192.285,161.508,237.79z M84.707,275.453
	c11.11,79.089,85.059,142.479,164.461,140.484c5.396-0.136,11.656-3.092,15.812-6.698c6.287-5.456,7.064-13.453,3.741-21.175
	c-3.842-8.926-11.154-12.387-20.681-12.603c-54.35-1.231-101.286-35.089-117.777-86.221c-4.193-13.001-5.08-27.151-6.727-40.865
	c-1.358-11.309-9.702-19.761-20.812-19.62c-10.857,0.138-19.336,8.352-20.012,19.506c-0.173,2.862-0.026,5.744-0.026,9.686
	C83.273,263.094,83.842,269.294,84.707,275.453z M415.407,223.254c-11.043-79.507-84.264-142.508-164.415-141.065
	c-5.048,0.091-10.75,2.505-14.889,5.549c-6.478,4.763-8,13.999-5.163,21.549c3.23,8.593,10.277,12.908,20.847,13.358
	c50.112,2.132,87.309,25.27,111.126,69.357c9.473,17.535,13.494,36.641,13.758,56.599c0.164,12.358,9.138,21.001,20.885,20.755
	c11.406-0.239,19.587-8.922,19.84-21.088c0.05-2.39,0.007-4.782,0.007-7.664C416.778,235.124,416.228,229.17,415.407,223.254z
	 M334.724,305.488c-10.227-11.026-20.759-21.834-31.906-31.918c-7.682-6.949-19.455-5.584-26.716,1.696
	c-7.203,7.222-8.428,19.079-1.458,26.706c10.142,11.098,20.86,21.725,31.951,31.878c6.146,5.626,14.003,5.795,21.495,2.025
	c7.255-3.65,10.727-9.88,11.292-20.126C338.4,313.475,337.565,308.551,334.724,305.488z"/>
</svg>
