<?xml version="1.0" encoding="iso-8859-1"?>
<!-- Generator: Adobe Illustrator 19.0.0, SVG Export Plug-In . SVG Version: 6.00 Build 0)  -->
<svg version="1.1" id="Layer_1" xmlns="http://www.w3.org/2000/svg" xmlns:xlink="http://www.w3.org/1999/xlink" x="0px" y="0px"
	 viewBox="0 0 500 500" enable-background="new 0 0 500 500" xml:space="preserve">
<path d="M359.26,404.503c0,5.81,0,11.105,0,16.648c38.811,0,77.288,0,116.063,0c0.115-1.331,0.31-2.575,0.315-3.821
	c0.03-6.965-0.033-13.931,0.029-20.896c0.06-6.713,2.348-9.428,9.101-11.065c6.829,1.58,9.156,4.276,9.178,10.951
	c0.045,13.444,0.015,26.889,0.007,40.334c0,0.784-0.073,1.568-0.11,2.296c-3.86,0.802-146.097,0.962-152.236,0.184
	c-0.076-0.54-0.225-1.145-0.238-1.752c-0.232-11.01-0.184-22.034-0.768-33.024c-0.342-6.453,2.305-10.831,7.312-14.282
	c10.175-7.014,19.385-15.138,27.767-24.209c15.34-16.6,26.853-35.531,34.726-56.718c4.752-12.786,7.883-25.975,9.417-39.476
	c1.223-10.763,1.426-21.571,0.579-32.465c-2.24-28.814-10.975-55.393-26.716-79.531c-23.068-35.372-54.923-59.187-95.44-71.386
	c-20.426-6.15-41.329-7.943-62.409-6.09c-34.057,2.994-64.614,15.351-91.222,36.883c-27.142,21.965-45.964,49.712-56.281,83.129
	c-5.977,19.357-8.535,39.215-7.218,59.392c2.405,36.86,14.991,69.895,38.44,98.626c8.537,10.46,18.167,19.779,28.944,27.921
	c3.089,2.334,6.079,4.8,9.076,7.253c1.969,1.612,3.133,3.69,3.166,6.288c0.034,2.752,0.036,5.505,0.022,8.257
	c-0.047,9.233-0.109,18.465-0.163,27.698c-0.006,1.108-0.001,2.216-0.001,3.251c-3.879,0.853-145.77,1.073-152.426,0.265
	c-0.056-1.189-0.163-2.437-0.164-3.685c-0.012-12.959-0.016-25.917-0.005-38.876c0.006-7.079,1.875-9.449,8.759-11.202
	c6.843,1.364,9.225,3.945,9.38,10.726c0.151,6.638,0.036,13.282,0.038,19.923c0,1.584,0,3.168,0,4.628
	c4.057,0.875,110.057,1.091,116.063,0.313c1.033-2.556,0.462-5.327,0.594-8.015c0.127-2.579,0.027-5.17,0.027-7.988
	c-52.52-39.479-80.515-92.003-79.886-158c0.522-54.672,22.152-100.937,62.826-137.531c76.82-69.114,194.842-63.57,264.821,14.604
	c37.497,41.888,53.216,91.525,46.952,147.443C431.327,327.312,404.065,371.217,359.26,404.503z M147.321,252.848
	c-4.843,5.861-9.981,11.51-14.439,17.651c-7.454,10.267-13.459,21.302-15.548,34.081c-2.178,13.323,3.041,25.177,15.118,31.926
	c9.659,5.398,20.299,6.44,31.006,6.348c11.5-0.099,22.854-1.941,34.065-4.551c1.043-0.243,2.104-0.411,3.274-0.637
	c0.575,1.8,1.069,3.319,1.546,4.843c3.876,12.382,8.756,24.321,15.823,35.262c4.153,6.429,8.962,12.31,15.263,16.8
	c11.969,8.529,24.499,8.404,36.399-0.315c6.107-4.474,10.768-10.259,14.838-16.54c7.086-10.934,11.877-22.914,15.83-35.263
	c0.522-1.63,1.034-3.264,1.54-4.862c0.97,0.142,1.451,0.172,1.913,0.285c14.836,3.631,29.812,5.763,45.148,4.551
	c6.186-0.489,12.171-1.777,17.842-4.214c15.458-6.644,21.172-20.817,18.512-34.61c-1.333-6.91-3.65-13.371-6.869-19.561
	c-5.718-10.997-13.267-20.671-21.61-29.766c-1.378-1.502-2.762-3-4.19-4.55c2.2-2.454,4.031-4.503,5.868-6.545
	c6.62-7.358,12.661-15.153,17.66-23.712c4.597-7.87,8.233-16.152,9.408-25.265c1.549-12.012-2.036-22.072-12.123-29.293
	c-7.9-5.656-17.04-7.619-26.502-8.173c-14.159-0.829-28.069,1.044-41.809,4.4c-1.033,0.252-2.137,0.217-3.303,0.324
	c-0.563-1.805-1.02-3.338-1.518-4.857c-4.092-12.471-8.903-24.613-16.216-35.621c-4.332-6.52-9.262-12.462-15.831-16.886
	c-11.778-7.931-23.535-7.334-34.785,0.523c-5.104,3.565-9.186,8.146-12.815,13.164c-8.534,11.801-13.951,25.075-18.395,38.812
	c-0.531,1.642-1.032,3.293-1.578,5.035c-1.375-0.199-2.333-0.267-3.257-0.481c-11.201-2.598-22.476-4.531-34.034-4.582
	c-8.96-0.039-17.77,0.663-26.191,3.989c-10.641,4.203-17.916,11.449-20.085,22.987c-1.285,6.833-0.112,13.527,2.032,20.063
	c3.891,11.858,10.546,22.147,18.292,31.772c3.935,4.891,8.148,9.558,12.351,14.463C149.003,250.921,148.135,251.863,147.321,252.848
	z M251.435,319.697c12.798,4.934,25.852,9.966,39.215,15.118c0.017,0.263,0.234,0.928,0.067,1.477
	c-3.582,11.752-7.694,23.309-14.377,33.71c-2.604,4.053-5.664,7.856-8.854,11.475c-1.78,2.019-4.116,3.655-6.441,5.067
	c-6.544,3.974-13.323,3.984-19.625-0.289c-3.56-2.414-6.954-5.385-9.63-8.738c-9.827-12.313-15.485-26.69-19.659-41.719
	c-0.076-0.274,0.08-0.611,0.142-1.01C225.505,329.689,238.426,324.71,251.435,319.697z M212.326,162.29
	c3.277-10.491,6.975-20.82,12.539-30.358c3.843-6.588,8.086-12.875,14.366-17.494c8.388-6.17,16.615-6.041,24.89,0.397
	c5.063,3.939,8.879,8.928,12.203,14.324c6.571,10.667,10.998,22.251,14.466,34.234c0.084,0.29-0.024,0.635-0.053,1.117
	c-13.106,5.048-26.279,10.122-39.285,15.131c-13.037-5.018-26.106-10.048-39.36-15.15
	C212.153,163.862,212.094,163.031,212.326,162.29z M190.834,284.731c2.201,13.917,4.383,27.712,6.653,42.066
	c-6.996,1.281-13.899,2.817-20.883,3.739c-5.585,0.737-11.27,0.996-16.909,0.97c-5.642-0.026-11.309-0.682-16.626-2.744
	c-2.826-1.096-5.65-2.458-8.088-4.233c-4.103-2.987-6.293-7.193-6.618-12.378c-0.405-6.459,1.175-12.46,3.723-18.298
	c5.04-11.548,16.038-26.731,25.911-35.757C169.019,267.035,180.025,275.963,190.834,284.731z M311.979,284.738
	c10.678-8.664,21.708-17.615,32.957-26.743c10.521,11.056,20.253,22.847,26.395,37.19c2.244,5.24,3.528,10.697,3.229,16.501
	c-0.267,5.192-2.427,9.305-6.343,12.564c-4.628,3.852-10.186,5.467-15.984,6.411c-7.888,1.284-15.793,1.29-23.686,0.051
	c-7.628-1.197-15.246-2.455-23.177-3.736C307.647,312.422,309.79,298.726,311.979,284.738z M193.788,194.01
	c-1.079,6.847-1.757,13.757-2.567,20.285c-11.15,9.047-22.052,17.894-33.371,27.079c-3.467-3.941-7.195-7.938-10.65-12.158
	c-6.575-8.031-12.355-16.574-16.147-26.333c-1.774-4.566-2.791-9.228-2.783-14.161c0.012-6.986,3.152-12.167,9.064-15.491
	c3.048-1.714,6.471-2.942,9.873-3.81c9.391-2.397,18.971-1.818,28.448-0.754c7.182,0.806,14.271,2.436,22.174,3.835
	C196.38,180.114,194.887,187.031,193.788,194.01z M311.994,214.599c-2.159-13.798-4.322-27.627-6.573-42.015
	c5.662-1.085,11.287-2.386,16.981-3.191c5.753-0.813,11.569-1.496,17.368-1.582c7.6-0.113,15.216,0.515,22.339,3.557
	c6.69,2.858,13.332,8.365,12.383,19.281c-0.263,3.029-0.782,6.087-1.623,9.005c-1.938,6.727-5.322,12.806-9.153,18.621
	c-5.174,7.854-11.158,15.068-17.678,21.839c-0.424,0.441-0.947,0.787-1.263,1.045C333.697,232.184,322.79,223.347,311.994,214.599z
	 M300.77,221.213c1.319,18.854,1.277,37.738,0.033,56.779c-15.634,10.989-32.054,20.242-49.295,28.625
	c-17.082-8.06-33.368-17.554-49.407-28.51c-1.379-18.841-1.073-37.868-0.169-56.81c16.004-11.045,32.387-20.397,49.462-28.611
	C268.536,200.878,284.895,210.274,300.77,221.213z M208.44,175.935c10.197,2.722,19.488,6.389,29.094,10.483
	c-11.449,6.635-22.549,13.068-34.292,19.874C204.991,196.08,206.662,186.321,208.44,175.935z M208.943,323.298
	c-2.807-10.062-3.977-20.028-5.448-30.113c11.468,6.633,22.601,13.071,34.035,19.685
	C228.178,316.998,218.903,320.501,208.943,323.298z M294.369,323.343c-10.247-2.688-19.461-6.369-29.088-10.445
	c11.493-6.653,22.571-13.065,34.326-19.868C297.799,303.491,296.129,313.152,294.369,323.343z M293.873,175.637
	c2.66,10.252,4.099,20.056,5.403,30.411c-11.385-6.567-22.434-12.94-34.377-19.83C275.049,182.511,284.242,179.154,293.873,175.637z
	 M189.327,229.931c1.071,4.843,0.254,8.955,0.401,13.014c0.158,4.357,0.036,8.725,0.036,13.087c0,4.128,0,8.256,0,13.168
	c-8.571-6.349-16.081-12.631-23.648-19.838C173.822,242.911,181.317,236.636,189.327,229.931z M336.608,249.344
	c-7.227,7.341-15.027,13.336-23.402,19.887c0-13.303,0-25.685,0-39.406C321.355,236.622,328.78,242.815,336.608,249.344z
	 M208.726,249.421c-0.131,24.566,18.894,43.055,42.664,43.058c25.951,0.004,42.822-21.378,42.745-42.998
	c-0.084-23.249-19.6-42.944-42.689-42.486C230.744,206.427,208.867,223.103,208.726,249.421z M220.019,249.547
	c0.042-17.228,13.435-31.465,31.638-31.318c17.733,0.143,31.07,13.712,31.168,31.306c0.107,19.184-15.666,31.699-31.393,31.581
	C235.314,281.202,219.974,268.294,220.019,249.547z"/>
</svg>
