<?xml version="1.0" encoding="utf-8"?>
<!-- Generator: Adobe Illustrator 25.1.0, SVG Export Plug-In . SVG Version: 6.00 Build 0)  -->
<svg version="1.1" id="qnt" xmlns="http://www.w3.org/2000/svg" xmlns:xlink="http://www.w3.org/1999/xlink" x="0px" y="0px"
	 viewBox="0 0 500 500" style="enable-background:new 0 0 500 500;" xml:space="preserve">
<polygon points="362.4,193 362.4,299 454.2,246.1 454.2,139.9 "/>
<polygon points="362.4,325 362.4,431.3 454.2,484.1 454.2,378.1 "/>
<polygon points="49.2,126.9 141,180 240.6,122.6 240.6,16.5 "/>
<polygon points="141,320.7 49.2,373.8 144.8,429.1 240.6,484.1 240.6,378.1 "/>
<polygon points="41.7,139.9 41.7,360.8 133.5,307.7 133.5,193 "/>
<polygon points="255.6,378.1 255.6,484.1 347.4,431.3 347.4,325 "/>
<polygon points="446.7,126.9 351.2,71.8 255.6,16.5 255.6,122.6 354.9,180 "/>
</svg>
