<?xml version="1.0" encoding="utf-8"?>
<!-- Generator: Adobe Illustrator 24.2.0, SVG Export Plug-In . SVG Version: 6.00 Build 0)  -->
<svg version="1.1" id="qnt" xmlns="http://www.w3.org/2000/svg" xmlns:xlink="http://www.w3.org/1999/xlink" x="0px" y="0px"
	 viewBox="0 0 500 500" style="enable-background:new 0 0 500 500;" xml:space="preserve">
<style type="text/css">
	.st0{opacity:0.6;}
	.st1{opacity:0.5;}
	.st2{opacity:0.8;}
</style>
<polygon class="st0" points="354.9,188.7 354.9,188.7 354.9,312 461.7,250.4 461.7,250.4 461.7,126.9 "/>
<polygon class="st1" points="461.7,373.8 461.7,373.8 354.9,312 354.9,435.6 354.9,435.6 461.7,497.1 "/>
<path class="st2" d="M248.1,126.9L248.1,126.9L248.1,126.9L248.1,126.9V3.5L34.2,126.9L141,188.7l0,0L248.1,126.9L248.1,126.9z"/>
<polygon points="248.1,373.8 141,312 141,312 34.2,373.8 141,435.6 141,435.6 141,435.6 141,435.6 248.1,497.1 "/>
<polygon class="st0" points="34.2,126.9 34.2,250.4 34.2,250.4 34.2,373.8 141,312 141,312 141,188.7 "/>
<polygon class="st2" points="354.9,312 248.1,373.8 248.1,373.8 248.1,497.1 354.9,435.6 354.9,435.6 "/>
<polygon points="354.9,188.7 461.7,126.9 354.9,65.3 354.9,65.3 354.9,65.3 354.9,65.3 354.9,65.3 354.9,65.3 248.1,3.5 
	248.1,126.9 248.1,126.9 354.9,188.7 354.9,188.7 "/>
</svg>
