<?xml version="1.0" encoding="iso-8859-1"?>
<!-- Generator: Adobe Illustrator 19.0.0, SVG Export Plug-In . SVG Version: 6.00 Build 0)  -->
<svg version="1.1" id="Layer_1" xmlns="http://www.w3.org/2000/svg" xmlns:xlink="http://www.w3.org/1999/xlink" x="0px" y="0px"
	 viewBox="0 0 2000 2000" style="enable-background:new 0 0 2000 2000;" xml:space="preserve">
<path d="M1361.771,1862.955c-23.454,14.583-39.435,28.85-58.125,35.509C776.05,2086.414,213.278,1796.686,58.745,1273.817
	C-105.844,716.921,248.641,156.164,822.986,57.824C1346.9-31.882,1855.918,343.102,1925.149,868.998
	c16.068,122.061,10.542,242.608-18.386,362.045c-6.156,25.419-7.619,55.578-41.26,63.608c-30.844,7.362-45.776-15.938-62.796-34.048
	c-60.137-63.989-118.535-129.681-180.287-192.059c-42.305-42.734-64.973-90.975-73.492-150.926
	c-34.531-243.009-216.216-436.499-457.475-481.617C860.71,392.85,664.398,462.748,519.949,647.983
	c-144.704,185.562-165.753,394.709-62.927,605.347c102.785,210.554,280.228,317.54,515.762,324.854
	c5.061,0.157,10.332,0.912,15.169-0.148c88.558-19.408,151.783,16.133,204.673,86.069c38.553,50.978,85.687,95.426,128.312,143.393
	C1332.992,1821.062,1342.641,1836.763,1361.771,1862.955z M991.218,1274.301c149.079,167.539,297.699,335.502,448.772,501.228
	c16.016,17.569,46.093,28.785,70.643,30.798c55.279,4.532,111.187,1.79,166.829,1.145c10.797-0.125,21.548-4.174,37.427-7.474
	c-8.144-14.145-12.192-25.006-19.372-33.083c-146.753-165.094-293.629-330.081-441.351-494.306
	c-11.781-13.097-29.578-28.54-45.133-29.168c-75.105-3.033-150.4-1.367-235.522-1.367
	C983.344,1260.235,985.986,1268.421,991.218,1274.301z M1264.283,1116.933c145.935,164.062,292.365,327.682,438.221,491.814
	c21.904,24.649,48.231,35.38,80.525,35.129c52.362-0.406,104.735,0.309,157.091-0.382c12.608-0.166,25.169-3.989,41.493-6.767
	c-5.564-12.401-7.275-21.119-12.361-26.835c-150.432-169.099-300.897-338.173-452.524-506.197
	c-11.389-12.62-31.214-24.08-47.537-24.681c-72.224-2.659-144.602-1.151-228.753-1.151
	C1252.569,1097.994,1256.994,1108.738,1264.283,1116.933z"/>
</svg>
