<?xml version="1.0" encoding="iso-8859-1"?>
<!-- Generator: Adobe Illustrator 19.0.0, SVG Export Plug-In . SVG Version: 6.00 Build 0)  -->
<svg version="1.1" id="Layer_1" xmlns="http://www.w3.org/2000/svg" xmlns:xlink="http://www.w3.org/1999/xlink" x="0px" y="0px"
	 viewBox="0 0 2000 2000" style="enable-background:new 0 0 2000 2000;" xml:space="preserve">
<path d="M24.59,1000.46C17.727,467.965,469.483,16.137,1021.624,26.942c512.363,10.027,971.338,435.956,956.555,1003.245
	c-13.526,519.024-452.745,963.681-1014.899,944.427C452.57,1957.122,18.824,1529.822,24.59,1000.46z M1836.332,1000.358
	c-2.829-460.989-367.352-832.622-836.544-831.756c-468.849,0.865-835.364,369.447-834.15,832.929
	c1.234,471.504,370.348,833.057,837.093,832.295C1471.182,1833.062,1833.216,1464.271,1836.332,1000.358z M1008.412,1705.769
	c-194.097,0.457-314.462-175.754-248.316-350.498c44.488-117.53,7.542-220.12-63.007-272.99
	c-36.2-27.128-82.172-47.071-126.616-56.195c-112.977-23.194-207.471-117.766-216.174-227.08
	c-9.605-120.641,63.379-230.374,177.709-267.187c104.676-33.705,204.728-2.619,279.968,86.987
	c86.42,102.919,202.838,128.623,309.384,64.964c26.606-15.897,49.807-39.555,70.224-63.373
	c72.808-84.939,183.88-116.704,286.825-79.432c101.08,36.597,169.473,134.302,168.288,240.412
	c-1.208,108.193-69.434,203.476-171.919,237.452c-27.541,9.13-56.536,13.995-84.997,20.208
	c-121.061,26.429-215.032,171.416-159.104,311.986c42.75,107.448,22.266,205.043-61.795,286.535
	C1120.952,1684.02,1061.669,1703.747,1008.412,1705.769z M1189.032,1001.386c0.142-103.215-86.903-189.947-189.661-188.98
	c-102.553,0.965-185.617,85.156-185.665,188.182c-0.048,105.291,84.776,189.986,188.742,188.453
	C1105.465,1187.523,1188.892,1103.617,1189.032,1001.386z"/>
</svg>
