<?xml version="1.0" encoding="utf-8"?>
<!-- Generator: Adobe Illustrator 25.1.0, SVG Export Plug-In . SVG Version: 6.00 Build 0)  -->
<svg version="1.1" id="Layer_1" xmlns="http://www.w3.org/2000/svg" xmlns:xlink="http://www.w3.org/1999/xlink" x="0px" y="0px"
	 viewBox="0 0 2000 2000" style="enable-background:new 0 0 2000 2000;" xml:space="preserve">
<path d="M22.9,261c0-1.9,0-3.8,0-5.7c4-3.1,8.5-5.7,12.1-9.2c70.4-70.2,140.7-140.6,211-210.9c3.6-3.6,7.4-6.9,11.7-10.9
	c104.3,104.3,207.6,207.7,310,310c290-170.1,578.3-170.2,870.1,0.5c102.2-102.2,205.8-205.8,307-307.1
	c77.9,77.9,155.5,155.5,234.7,234.7c-101.9,101.9-205.2,205.2-307.6,307.6c169.1,289.3,168.8,577.5-1.6,868.1
	c102.2,102.2,205.6,205.6,307.7,307.7c-77.7,77.7-155.3,155.3-235,235c-2.5-3.3-5.6-8.2-9.6-12.2c-95.9-96.1-192.1-192-287.7-288.3
	c-8.5-8.5-13.7-8.5-23.8-2.5c-245.9,145.7-499.6,160.3-760.4,43c-31.6-14.2-61.4-32.6-95.9-51.1c-102.4,102.4-206,206-311.4,311.4
	c-2.8-3.6-5.6-8.1-9.3-11.8c-69.9-70.1-139.9-140-209.9-209.9c-3.5-3.5-8-6.1-12-9.2c0-1.9,0-3.8,0-5.7c4-3,8.5-5.7,12-9.2
	c95.1-94.9,189.9-190.2,285.4-284.7c11.5-11.4,13.2-18.6,4.3-33c-72.3-116.4-111.3-243.6-117-380.4c-6.8-163.5,33.3-315.2,120-454.2
	c6.6-10.6,4.7-15.9-3.3-23.8c-96.9-96.4-193.5-193.2-290.3-289.9C30.7,266,26.6,263.7,22.9,261z M1122.5,885.1
	c101.2,101.2,202.3,202.3,303.3,303.3c82.4-172.5,43.7-420.2-153.8-562.7c-192-138.5-459.8-108.2-615.9,68.6
	c-158.9,180-156.4,449.8,5.4,623c162.8,174.3,395.7,175.6,529.2,106.4c-101.8-101.8-203-202.9-303.4-303.3
	C964.9,1042.6,1042.2,965.3,1122.5,885.1z"/>
</svg>
