<?xml version="1.0" encoding="iso-8859-1"?>
<!-- Generator: Adobe Illustrator 19.0.0, SVG Export Plug-In . SVG Version: 6.00 Build 0)  -->
<svg version="1.1" id="Layer_1" xmlns="http://www.w3.org/2000/svg" xmlns:xlink="http://www.w3.org/1999/xlink" x="0px" y="0px"
	 viewBox="0 0 500 500" style="enable-background:new 0 0 500 500;" xml:space="preserve">
<path d="M356.526,413.737c-32.851,20.757-68.345,31.674-107.059,31.662c-38.689-0.012-74.249-10.644-107.429-31.667
	c-25.444,25.444-50.981,50.981-76.326,76.326c-0.553,0.033-0.747,0.067-0.937,0.05c-0.186-0.016-0.427-0.023-0.541-0.137
	c-18.72-18.621-37.433-37.249-56.13-55.893c-0.386-0.385-0.585-0.957-1.142-1.902c25.523-25.525,51.072-51.075,76.386-76.389
	c-41.937-71.672-42.02-142.923-0.05-214.906c-4.164-5.109-9.609-9.82-14.604-14.948c-5.05-5.185-10.222-10.251-15.34-15.37
	c-5.257-5.257-10.513-10.513-15.77-15.77c-5.118-5.118-10.237-10.236-15.355-15.355c-5.089-5.091-10.175-10.183-14.85-14.862
	c19.51-19.511,38.664-38.666,58.203-58.205c25.096,25.095,50.651,50.649,76.068,76.065c71.735-42.135,143.177-42.164,215.176-0.125
	c25.238-25.238,50.787-50.786,75.914-75.913c19.491,19.496,38.652,38.66,58.25,58.262c-5.598,5.882-12.024,12.098-18.322,18.433
	c-6.483,6.521-12.999,13.008-19.501,19.509c-6.363,6.363-12.72,12.733-19.092,19.088c-6.364,6.346-12.743,12.677-18.979,18.88
	c42.057,71.837,42.118,143.326-0.008,215.305c25.437,25.437,51.132,51.132,76.666,76.666c-19.502,19.501-38.709,38.708-58.211,58.21
	C408.012,465.223,382.32,439.531,356.526,413.737z M353.527,294.316c19.762-38.738,12.993-98.802-32.33-135.348
	c-44.85-36.165-109.243-34.525-152.175,7.319c-41.196,40.153-47.189,104.708-10.178,152.437
	c34.88,44.981,94.871,54.528,136.54,33.871c-25.212-25.212-50.287-50.287-74.83-74.83c19.629-19.629,38.802-38.801,58.211-58.21
	C303.436,244.225,328.421,269.21,353.527,294.316z"/>
</svg>
