<?xml version="1.0" encoding="iso-8859-1"?>
<!-- Generator: Adobe Illustrator 19.0.0, SVG Export Plug-In . SVG Version: 6.00 Build 0)  -->
<svg version="1.1" id="Layer_1" xmlns="http://www.w3.org/2000/svg" xmlns:xlink="http://www.w3.org/1999/xlink" x="0px" y="0px"
	 viewBox="0 0 500 500" style="enable-background:new 0 0 500 500;" xml:space="preserve">
<path id="XMLID_4_" d="M387.554,119.26c19.12-7.125,29.055,0.208,27.249,19.695c-1.874,2.742-4.005,5.861-6.484,9.488
	c9.178,28.223,18.489,56.855,27.851,85.644c5.741,1.701,11.698,2.722,15.245,8.311c2.14,3.371,3.005,6.856,2.802,10.778
	c-0.464,8.974-5.119,13.492-17.872,16.544c-10.718,32.971-21.579,66.378-32.544,100.108c13.94,12.005,27.682,23.841,41.72,35.931
	c3.294-1.214,6.727-2.65,10.263-3.752c12.11-3.772,24.182,3.017,28.994,14.617c5.485,13.224-3.149,25.885-11.614,30.387
	c-14.716,7.826-30.293-1.589-34.51-13.731c-1.556-4.481-0.855-12.979,1.993-20.464c-13.486-11.949-27.549-23.614-41.822-35.948
	c-29.489,20.488-57.393,41.76-85.881,61.661c1.804,11.347-1.338,18.467-9.068,21.523c-10.03,3.966-16.17,1.317-24.399-11.083
	c-6.983-0.436-14.546-0.136-22.091-0.189c-7.607-0.053-15.215-0.012-22.823-0.012c-7.336,0-14.672,0-22.008,0
	c-7.524,0-15.047,0-22.641,0c-3.29,5.479-6.16,11.215-12.601,12.305c-3.547,0.6-7.708,0.293-11.028-1.025
	c-8.587-3.408-11.615-10.721-9.24-20.994c-25.029-18.036-50.226-36.193-75.847-54.656c-4.577,3.485-9.953,4.873-15.214,3.04
	c-3.382-1.178-6.702-3.762-8.998-6.574c-5.152-6.309-3.395-15.435,4.385-24.669c-9.434-28.974-18.983-58.302-28.436-87.334
	c-12.333-2.377-17.721-8.062-17.463-17.881c0.254-9.667,5.56-14.817,17.875-16.827c9.227-28.315,18.547-56.918,28.031-86.022
	c-7.373-7.251-10.084-15.889-4.234-25.291c4.364-7.015,12.756-7.962,25.337-3.72c24.539-17.712,49.298-35.583,74.471-53.752
	c-2.24-5.415-1.286-10.589,1.746-15.298c2.078-3.229,4.905-5.696,8.745-6.922c9.071-2.897,15.568,0.46,22.229,11.894
	c29.651,0,59.48,0,89.732,0c1.386-1.979,2.83-4.211,4.443-6.313c5.271-6.873,12.279-7.955,19.564-5.136
	c6.507,2.518,11.995,11.425,10.19,18.478c-0.198,0.775-0.434,1.54-0.889,3.142C337.339,83.302,362.312,101.318,387.554,119.26z
	 M184.756,264.494c15.133,26.136,30.232,52.212,45.091,77.876c3.817,0,6.758,0,9.888,0c15.061-26.002,30.062-51.899,45.14-77.93
	c-1.867-2.9-3.566-5.54-5.124-7.959c-30.257,0-60.044,0-89.996,0C188.098,259.137,186.553,261.615,184.756,264.494z M189.51,247.587
	c30.169,0,60.493,0,90.806,0c1.467-2.762,2.835-5.337,4.343-8.175c-15.027-26.005-30.1-52.091-45.044-77.952
	c-3.432-0.305-6.276-0.558-9.262-0.823c-15.291,26.575-30.465,52.946-45.457,79.001C186.612,242.594,187.959,244.914,189.51,247.587
	z M177.293,235.521c15.25-26.442,30.426-52.754,45.611-79.083c-1.61-2.363-2.955-4.336-4.105-6.023
	c-24.959,3.26-49.464,6.462-72.938,9.528c-2.4,4.464-4.282,7.966-6.306,11.732c9.868,20.993,19.814,42.151,29.604,62.976
	C171.985,234.953,174.099,235.179,177.293,235.521z M291.91,269.229c-15.019,25.894-30.019,51.756-45.079,77.722
	c1.612,2.424,2.888,4.343,4.241,6.377c24.864-3.134,49.148-6.196,72.646-9.158c2.392-4.383,4.293-7.866,6.335-11.608
	c-9.785-20.863-19.72-42.044-29.705-63.333C297.446,269.229,294.8,269.229,291.91,269.229z M323.856,159.948
	c-24.764-2.956-49.195-6.867-73.773-8.87c-1.253,2.388-2.111,4.025-3.148,6.001c14.972,25.935,29.919,51.828,44.812,77.627
	c3.062,0,5.699,0,8.603,0c10.018-21.285,19.955-42.397,29.67-63.037C327.864,167.568,326.005,164.034,323.856,159.948z
	 M222.796,347.256c-15.335-26.53-30.31-52.437-45.16-78.127c-3.005,0-5.409,0-8.279,0c-9.974,21.194-19.944,42.38-29.786,63.294
	c2.063,3.872,3.941,7.398,6.251,11.735c23.642,2.981,47.967,6.049,72.582,9.154C219.751,351.455,221.155,349.52,222.796,347.256z
	 M280.676,440.228c0.925-2.198,1.737-4.125,2.713-6.444c-14.242-19.604-28.255-39.302-42.045-57.79
	c-5.301,0.257-9.262,0.449-13.817,0.67c-13.727,18.984-27.595,38.164-41.424,57.29c1.278,2.509,2.227,4.372,3.196,6.275
	C219.65,440.228,249.715,440.228,280.676,440.228z M241.646,126.907c13.808-18.754,27.696-37.617,41.638-56.553
	c-1.135-2.446-2.121-4.57-3.098-6.673c-30.399,0-60.462,0-90.848,0c-1.005,2.145-1.998,4.263-3.146,6.712
	c14.155,19.315,28.182,38.456,41.881,57.149C232.749,127.323,237.03,127.123,241.646,126.907z M217.548,361.946
	c-24.556-3.175-48.575-6.281-72.706-9.401c-1.92,2.381-3.748,4.648-5.864,7.272c10.319,22.812,20.606,45.553,30.768,68.019
	c3.619,0.333,6.48,0.597,9.497,0.875c14.194-19.514,28.307-38.916,42.14-57.933C219.926,367.421,218.862,364.973,217.548,361.946z
	 M221.201,133.118c-14.033-19.297-28.131-38.684-42.295-58.161c-3.182,0.651-6.047,1.237-9.612,1.966
	c-9.98,22.241-20.099,44.793-30.294,67.514c2.113,2.513,3.984,4.739,5.98,7.114c24.436-3.292,48.666-6.555,72.566-9.775
	C218.939,138.479,219.977,136.019,221.201,133.118z M300.072,427.511c9.985-22.494,20.017-45.093,30.104-67.819
	c-1.72-2.428-3.401-4.801-5.06-7.144c-24.628,3.15-48.931,6.258-73.268,9.37c-1.286,3.167-2.382,5.866-3.593,8.846
	c14.159,19.497,28.227,38.868,42.1,57.971C293.946,428.283,296.792,427.924,300.072,427.511z M290.679,74.948
	c-13.796,19.955-29.012,38.824-42.377,58.705c1.438,3.109,2.545,5.504,3.85,8.327c24.62,3.194,49.138,6.375,73.312,9.512
	c2-2.767,3.542-4.899,5.106-7.061c-10.249-22.779-20.385-45.309-30.391-67.548C296.739,76.182,293.86,75.596,290.679,74.948z
	 M314.169,256.337c-2.167,3.106-4.151,5.95-6.357,9.113c9.925,21.029,19.945,42.259,29.971,63.502c2.819,0,5.447,0,7.922,0
	c11.408-21.567,22.63-42.781,33.99-64.258c-1.738-2.833-3.407-5.554-5.127-8.357C354.492,256.337,334.696,256.337,314.169,256.337z
	 M131.658,329.226c10.249-21.687,20.25-42.851,30.159-63.819c-2.208-3.197-4.168-6.035-6.23-9.02c-19.775,0-39.511,0-59.722,0
	c-1.751,2.938-3.496,5.865-5.226,8.766c11.28,21.583,22.389,42.837,33.487,64.073C126.619,329.226,128.746,329.226,131.658,329.226z
	 M124.326,174.736c-11.371,21.67-22.51,42.899-33.644,64.117c1.997,3.288,3.79,6.239,5.235,8.619c20.782,0,40.799,0,60.057,0
	c2.146-3.358,3.855-6.033,5.686-8.899c-9.999-21.213-20.085-42.611-30.09-63.838C128.903,174.736,127.049,174.736,124.326,174.736z
	 M379.347,238.933c-11.381-21.504-22.603-42.704-33.896-64.041c-2.612,0-4.929,0-7.421,0c-9.989,21.485-19.839,42.672-29.654,63.784
	c1.89,3.238,3.507,6.006,5.156,8.831c20.441,0,40.716,0,60.795,0C376.037,244.586,377.511,242.069,379.347,238.933z
	 M393.446,363.157c0-5.663,0.289-11.296-0.059-16.89c-0.754-12.11-1.945-24.193-2.749-36.3c-0.787-11.854-1.284-23.727-1.998-35.586
	c-0.082-1.364-0.743-2.692-1.538-5.417c-11.881,22.432-23.05,43.52-33.676,63.581c2.161,5.941,3.96,10.888,6.045,16.62
	C366.754,353.301,388.262,362.309,393.446,363.157z M308.38,429.683c0.338,0.32,0.676,0.641,1.015,0.961
	c26.582-19.212,53.164-38.424,80.84-58.427c-12.778-5.438-24.34-10.359-36.044-15.34c-4.124,5.828-10.416,5.87-16.235,7.239
	C328.053,386.07,318.216,407.876,308.38,429.683z M159.714,430.425c0.424-0.35,0.848-0.7,1.272-1.051
	c-9.872-21.967-19.745-43.935-28.737-63.943c-7.306-3.103-12.637-5.367-18.988-8.064c-7.95,3.534-16.967,7.543-25.895,11.513
	c0,3.343,0,6.016,0,9.524C111.246,395.575,135.48,413,159.714,430.425z M382.084,125.95c-24.259-17.515-48.249-34.835-72.239-52.156
	c-0.445,0.318-0.889,0.636-1.334,0.954c9.767,21.759,19.673,43.458,29.082,64.481c6.381,2.461,12.087,4.661,18.971,7.316
	c7.6-3.282,16.453-7.104,25.519-11.019C382.084,132.355,382.084,129.426,382.084,125.95z M130.282,141.474
	c5.847-9.738,29.268-62.728,29.932-67.936c-24.554,17.721-48.746,35.181-72.653,52.436c0,3.408,0,6.321,0,9.64
	c9.009,3.833,17.861,7.6,27.005,11.492C119.106,143.396,123.944,140.559,130.282,141.474z M353.506,171.69
	c5.358,10.245,10.738,21.09,16.634,31.647c5.784,10.356,10.63,21.268,17.885,32.59c1.949-29.947,3.784-58.13,5.605-86.118
	c-3.01-2.331-5.74-4.444-8.499-6.58c-9.229,4.164-18.224,8.222-25.488,11.5C357.327,161.131,355.616,165.858,353.506,171.69z
	 M84.353,143.189c-2.902,2.258-5.434,4.228-8.275,6.44c0.46,6.757,0.922,13.736,1.412,20.712c0.512,7.288,1.033,14.575,1.582,21.861
	c0.528,7.008,1.374,14.006,1.572,21.023c0.199,7.037,0.315,14.02,2.64,21.527c11.382-21.735,22.391-42.757,33.315-63.618
	c-1.523-2.863-3.102-5.138-3.969-7.658c-0.855-2.484-0.99-5.215-1.527-8.344C102.531,151.305,93.708,147.366,84.353,143.189z
	 M83.425,269.749c-0.491,0.152-0.982,0.303-1.472,0.455c-1.979,28.171-3.959,56.343-5.904,84.028
	c3.06,2.368,5.579,4.318,8.211,6.354c9.252-3.988,18.308-7.892,27.189-11.72c0.226-3.379,0.405-6.047,0.552-8.253
	c1.805-2.654,3.308-4.864,4.811-7.075C105.595,312.108,94.51,290.929,83.425,269.749z M41.163,266.824
	c8.385,25.806,16.927,52.097,25.559,78.664c2.728-3.199,2.236-6.796,2.481-10.212c1.043-14.536,2.115-29.071,3.094-43.611
	c0.255-3.791,0.085-7.611,0.34-11.402c0.267-3.974,0.811-7.929,1.254-12.073c-5.877-2.285-9.71-6.26-11.585-11.831
	c-4.704,0-8.986,0-13.057,0C46.745,259.599,44.452,262.567,41.163,266.824z M73.638,235.677c-1.792-25.923-3.567-51.606-5.342-77.29
	c-0.472-0.078-0.944-0.156-1.416-0.234c-8.511,26.211-17.021,52.423-25.332,78.019c2.844,4.157,5.266,7.695,7.827,11.438
	c4.016,0,8.306,0,12.623,0c1.845-2.848,3.598-5.556,5.186-8.008C69.537,238.172,71.603,236.915,73.638,235.677z M420.43,256.559
	c-3.738,0-8.22,0-11.424,0c-4.414,4.578-8.079,8.381-12.262,12.72c1.318,23.267,2.675,47.304,4.064,71.338
	c0.046,0.789,0.349,1.586,0.652,2.331c0.296,0.729,0.746,1.396,1.329,2.457c8.587-26.373,17.053-52.374,25.42-78.073
	C425.631,263.763,423.276,260.501,420.43,256.559z M402.57,158.059c-0.627,1.652-1.418,2.841-1.496,4.075
	c-1.546,24.26-3.009,48.525-4.398,71.293c4.692,5.267,8.368,9.395,12.629,14.179c3.095,0,7.358,0,11.245,0
	c2.695-3.885,5.125-7.389,7.699-11.101C419.774,210.615,411.275,184.652,402.57,158.059z"/>
</svg>
