<?xml version="1.0" encoding="utf-8"?>
<!-- Generator: Adobe Illustrator 26.2.1, SVG Export Plug-In . SVG Version: 6.00 Build 0)  -->
<svg version="1.1" id="quick" xmlns="http://www.w3.org/2000/svg" xmlns:xlink="http://www.w3.org/1999/xlink" x="0px" y="0px"
	 viewBox="0 0 500 500" style="enable-background:new 0 0 500 500;" xml:space="preserve">
<g>
	<path d="M117.9,209.4C117.8,209.4,117.8,209.5,117.9,209.4L117.9,209.4z"/>
	<path d="M359.9,0c-7.4,16.3-16.6,31.3-27.6,45c-15.6,19.4-34.9,36.1-57.7,50.3c-0.5-11.8-3.8-21.4-9.8-28.8c0,0-6.2,15.5-30.2,30.1
		c-17.3,10.5-31.7,15.8-46.7,21.2c-7.7,2.8-20.7,12.3-20.7,28.6c0,16.3,19,17.8,19,17.8s-4.9,2.5-10.1,2.5c-5.2,0-10.7-4.5-10.7-4.5
		S145.8,186,124.1,186c-15.2,0-8.9-22.6-8.9-22.6c-38.5,27.9-43.7,59.8-34.4,94.9c4-3.3,8.1-6.4,12.3-9.4c0.1-0.1,0.2-0.1,0.3-0.2
		l-0.2,0.2c14,20,34.7,29.4,60.4,30.6c0,0-8.3-4.9-8.3-14.7c0-9.7,8.2-19.3,50.4-19.3c42.2,0,72.7,19.3,72.7,19.3l0.2,0.2
		c0.2,0.2,0.5,0.6,0.9,1c1.7,2,4.9,6.7,9.3,17.1c0.3,0.5,0.5,1.1,0.7,1.7c0.6,1.7,1.1,3.5,1.5,5.4c6.6,33.9-27.2,94.6-113.5,94.7
		c-88,0.2-133.7-74.4-152.4-116.4c1,66.9,29.9,127,75.6,169.2c0.4,0.3,0.7,0.6,1.1,0.9c41.8,38.2,97.3,61.4,158.3,61.4
		c57.5,0,110.2-20.7,151-55c9.7-19.8,20.2-48.9,20.2-82.8c0,0,0,0.1,0,0.1c0,34-10.5,63.2-20.2,83c35.1-29.5,61.4-69,74.5-114.2
		v-1.9c-0.8-59.3-29-107.2-70.4-137c5.4,0.1,17.1,1,31.9,5.1c18.3,5.1,28.1,10.4,30,11.6c0.1,0.1,0.2,0.1,0.3,0.2
		c0,0-0.1-0.1-0.1-0.1c0.1,0.1,0.2,0.1,0.2,0.1c-0.1-0.1-0.3-0.2-0.4-0.3c-43.3-51-110.9-84.2-162.5-85c1.9-1.4,27.4-20.3,39.6-48.8
		c12.7-29.6,13.4-38.4,15-53s0.7-22,0.8-21.9 M202,136.8c11.3-7,20.4-9.2,28-11.7c-1.1,3.5-3.3,8.4-7.7,14.3
		c-9.4,12.4-30.8,15.4-30.8,15.4S188.1,145.3,202,136.8z M113.7,197.5c9.3,0,4.7,10.8,4.2,11.9c-0.3,0.5-0.4,0.8-0.4,0.8
		s-0.5-5.1-6-5.1c-5.4,0-14.7,11.2-15.1,11.7C96.6,216.2,104,197.5,113.7,197.5z"/>
	<path d="M401.1,445C395.5,449.7,400.9,445.5,401.1,445L401.1,445z"/>
</g>
</svg>
