<?xml version="1.0" encoding="iso-8859-1"?>
<!-- Generator: Adobe Illustrator 19.0.0, SVG Export Plug-In . SVG Version: 6.00 Build 0)  -->
<svg version="1.1" id="Layer_1" xmlns="http://www.w3.org/2000/svg" xmlns:xlink="http://www.w3.org/1999/xlink" x="0px" y="0px"
	 viewBox="0 0 500 500" enable-background="new 0 0 500 500" xml:space="preserve">
<path d="M47.785,138.003c0.542-14.634,6.126-26.807,18.425-34.514c47.158-29.55,93.987-59.707,142.169-87.506
	c25.866-14.924,54.603-14.586,80.918,0.7c47.457,27.568,94.427,55.991,141.243,84.641c28.768,17.605,28.628,50.348,0.268,68.812
	c-25.845,16.827-51.714,33.624-77.793,50.084c-20.538,12.962-36.506,29.917-48.168,51.218
	c-11.01,20.109-22.429,39.999-33.901,59.851c-12.708,21.993-32.027,22.161-44.955,0.365c-14.959-25.22-28.529-51.357-44.911-75.604
	c-8.998-13.319-21.086-25.702-34.349-34.738c-24.488-16.684-50.806-30.698-76.482-45.617
	C55.622,167.197,48.318,154.642,47.785,138.003z M249.511,280.909c9.92-15.828,18.448-29.012,26.545-42.455
	c12.118-20.12,25.375-39.357,45.277-52.543c21.291-14.106,43.086-27.455,64.764-40.97c17.582-10.961,17.731-20.375,0.163-31.386
	c-33.423-20.948-67.469-40.97-100.124-63.051c-24.447-16.531-47.797-14.569-71.987-1.639c-15.233,8.142-30.351,16.538-45.158,25.426
	c-18.35,11.014-36.833,21.93-54.317,34.228c-17.252,12.134-16.41,27.133,0.864,38.975c10.537,7.223,20.703,15.187,31.898,21.218
	c42.19,22.73,73.273,55.535,93.028,99.2C242.209,271.768,245.338,274.999,249.511,280.909z M455.533,217.315
	c-0.04-14.249-7.466-23.519-18.66-23.572c-11.206-0.052-18.364,9.028-18.383,23.619c-0.05,38.033-0.131,76.067,0.037,114.1
	c0.064,14.536-5.832,25.087-18.469,32.451c-43.218,25.184-86.424,50.396-129.338,76.094c-14.16,8.479-26.98,8.491-41.157-0.01
	c-40.967-24.565-82.013-49.032-123.656-72.419c-17.584-9.875-24.797-22.793-24.173-42.929c1.13-36.492,0.415-73.045,0.249-109.571
	c-0.055-11.996-7.462-20.643-17.437-21.326c-9.055-0.62-18.369,7.214-20.589,17.609c-0.541,2.534-0.336,5.244-0.337,7.874
	c-0.013,45.941,0.123,91.883-0.095,137.823c-0.051,10.871,4.032,18.732,13.364,24.203c60.351,35.382,120.713,70.746,180.937,106.343
	c8.754,5.175,16.241,5.126,25.108-0.134c59.522-35.31,119.212-70.337,179.017-105.166c9.965-5.803,13.999-13.511,13.754-24.909
	c-0.495-22.96-0.147-45.938-0.152-68.909C455.551,264.762,455.6,241.038,455.533,217.315z"/>
</svg>
