<?xml version="1.0" encoding="iso-8859-1"?>
<!-- Generator: Adobe Illustrator 19.0.0, SVG Export Plug-In . SVG Version: 6.00 Build 0)  -->
<svg version="1.1" id="Layer_1" xmlns="http://www.w3.org/2000/svg" xmlns:xlink="http://www.w3.org/1999/xlink" x="0px" y="0px"
	 viewBox="0 0 2000 2000" style="enable-background:new 0 0 2000 2000;" xml:space="preserve">
<path d="M1516.218,1344.651c33.672,0,66.369,0,105.41,0c3.778-14.983,8.936-29.742,10.911-44.915
	c1.87-14.364,0.402-29.162,0.402-54.803c117.968,102.921,233.216,192.318,345.067,297.549
	c-117.328,94.743-226.817,183.157-340.026,274.574c-4.406-31.685-8.345-60.02-12.868-92.549c-20.189,0-34.997,0-49.804,0
	c-245.583-0.001-491.173,1.136-736.748-0.327c-239.411-1.426-447.922-82.125-611.778-259.21
	C68.262,1293.649,1.741,1089.102,29.198,855.81c38.993-331.314,299.295-596.007,631.924-664.024
	c335.307-68.564,680.14,78.976,853.677,373.901c146.389,248.787,143.149,504.663,7.212,758.984
	c-2.385,4.462-4.934,8.841-7.132,13.392C1514.453,1338.946,1515.307,1340.448,1516.218,1344.651z M1193.627,953.103
	c6.896-205.172-164.972-379.083-373.783-379.689c-204.48-0.594-375.427,168.981-378.992,366.167
	c-3.868,213.921,163.733,389.975,378.625,388.733C1047.288,1326.996,1200.131,1138.926,1193.627,953.103z"/>
</svg>
