<?xml version="1.0" encoding="iso-8859-1"?>
<!-- Generator: Adobe Illustrator 19.0.0, SVG Export Plug-In . SVG Version: 6.00 Build 0)  -->
<svg version="1.1" id="Layer_1" xmlns="http://www.w3.org/2000/svg" xmlns:xlink="http://www.w3.org/1999/xlink" x="0px" y="0px"
	 viewBox="0 0 2000 2000" style="enable-background:new 0 0 2000 2000;" xml:space="preserve">
<path d="M564.008,1328.626c20.622,0,41.246,0.218,61.864-0.043c52.35-0.662,100.863,13.283,145.511,39.846
	c134.292,79.896,268.216,160.411,402.378,240.527c54.538,32.568,109.576,64.305,163.92,97.191
	c61.316,37.106,78.557,115.411,38.761,173.214c-14.757,21.434-34.721,36.26-59.353,44.64
	c-95.539,32.505-193.702,49.665-294.67,51.712c-155.059,3.144-302.338-28.816-441.999-96.067
	c-87.819-42.287-167.597-96.525-238.856-162.991C189.24,1574.576,90.823,1401.676,47.515,1197.849
	c-12.394-58.334-18.108-117.488-19.321-177.266c-3.062-150.877,27.195-294.55,90.813-431.158
	c45.838-98.428,106.727-186.646,182.485-264.58C440.744,181.595,607.673,86.51,803.54,48.392
	c314.169-61.141,595.658,12.667,838.693,221.451c156.04,134.049,257.232,303.7,306.603,503.691
	c25.337,102.634,32.317,206.731,23.464,312.026c-12.135,144.325-54.543,279.087-127.243,404.279
	c-6.851,11.798-14.31,23.807-23.821,33.407c-63.482,64.076-171.442,33.89-197.971-44.683
	c-70.422-208.578-143.134-416.383-214.684-624.581c-18.284-53.204-21.303-107.458-8.401-162.411
	c7.975-33.967,15.976-67.928,23.854-101.918c32.184-138.86-49.177-273.95-184.966-307.182
	c-117.28-28.703-239.234,31.131-291.477,143.44c-30.394,65.34-59.989,131.051-90.261,196.448
	c-34.209,73.904-89.53,125.532-166.774,151.327c-34.052,11.371-69.838,17.615-104.927,25.795
	c-45.673,10.647-91.495,20.659-137.152,31.376c-121.248,28.46-203.481,135.879-199.371,260.079
	c3.741,113.044,91.653,214.012,203.614,234.91c32.49,6.064,64.992,3.842,97.555,3.786c4.577-0.008,9.154-0.001,13.731-0.001
	C564.008,1329.295,564.008,1328.96,564.008,1328.626z M1438.394,1351.776c-52.084-147.118-102.25-294.913-153.613-442.288
	c-18.064-51.83-28.48-104.822-27.642-159.787c0.605-39.719,8.684-78.332,17.817-116.82c7.389-31.139,16.247-62.218,20.085-93.853
	c8.787-72.424-49.816-132.935-122.581-127.851c-49.766,3.477-83.754,30.521-104.342,75.211
	c-29.904,64.915-59.316,130.058-89.599,194.795c-50.34,107.611-131.864,181.641-244.072,220.136
	c-37.153,12.746-76.314,19.732-114.681,28.828c-49.52,11.74-99.621,21.297-148.655,34.766
	c-84.388,23.179-114.99,126.54-57.633,191.239c22.424,25.294,51.154,38.699,84.858,38.718c43.49,0.024,87.006-3.046,130.465-2.249
	c81.931,1.503,156.978,26.069,227.113,68.686c132.03,80.226,265.047,158.828,397.536,238.3
	c20.118,12.068,41.133,19.913,64.006,18.68C1403.115,1520.101,1467.068,1432.769,1438.394,1351.776z M1496.674,1741.293
	c0.013,57.681,45.701,103.552,103.237,103.652c58.086,0.101,103.888-45.008,104.139-102.566
	c0.258-59.092-44.836-104.356-103.909-104.302C1542.31,1638.13,1496.661,1683.668,1496.674,1741.293z"/>
</svg>
