<?xml version="1.0" encoding="iso-8859-1"?>
<!-- Generator: Adobe Illustrator 19.0.0, SVG Export Plug-In . SVG Version: 6.00 Build 0)  -->
<svg version="1.1" id="Layer_1" xmlns="http://www.w3.org/2000/svg" xmlns:xlink="http://www.w3.org/1999/xlink" x="0px" y="0px"
	 viewBox="0 0 500 500" style="enable-background:new 0 0 500 500;" xml:space="preserve">
<path d="M85.121,55.633c30.444-16.3,60.41-32.345,90.831-48.633c76.138,42.425,151.953,84.672,228.264,127.193
	c0,34.713,0,69.185,0,104.426c-35.909,20.226-73.308,38.28-111.094,59.844c45.982,32.602,90.151,63.919,134.374,95.273
	c0,32.94,0,65.469,0,99.541c-73.519-50.45-145.905-100.122-218.041-149.623c0-36.149,0-71.196,0-107.059
	c32.38-17.379,64.761-34.759,99.275-53.284c-45.151-25.95-88.101-50.634-133.316-76.62c-1.439,17.708-0.64,32.895-0.775,48.025
	c-0.142,15.882-0.028,31.765-0.033,47.648c-0.005,15.402-0.021,30.803-0.027,46.205c-0.006,15.402-0.004,30.803-0.008,46.205
	c-0.003,15.402-0.007,30.803-0.013,46.205c-0.006,15.883-0.016,31.766-0.019,47.649c-0.003,15.377-0.001,30.755-0.001,47.215
	c-29.534,15.851-58.991,31.661-89.418,47.992C85.121,340.782,85.121,198.895,85.121,55.633z"/>
</svg>
