<?xml version="1.0" encoding="iso-8859-1"?>
<!-- Generator: Adobe Illustrator 19.0.0, SVG Export Plug-In . SVG Version: 6.00 Build 0)  -->
<svg version="1.1" id="Layer_1" xmlns="http://www.w3.org/2000/svg" xmlns:xlink="http://www.w3.org/1999/xlink" x="0px" y="0px"
	 viewBox="0 0 500 500" enable-background="new 0 0 500 500" xml:space="preserve">
<path d="M112.392,493.451c-5.708,0-11.468-0.496-17.112,0.105c-11.031,1.176-20.714-2.513-30.278-7.148
	c-21.505-10.421-37.394-26.757-48.856-47.389c-3.547-6.384-5.043-13.876-8.188-20.526c-1.894-4.005-1.565-7.918-1.6-11.931
	c-0.088-9.988,0.482-20.01-0.164-29.956c-0.731-11.249,2.212-21.51,6.897-31.337c14.561-30.545,37.735-51.521,70.436-60.979
	c8.395-2.428,17.414-2.786,26.178-3.827c11.268-1.338,22.626-2.021,33.838-3.7c11.07-1.657,22.151-3.651,32.972-6.475
	c22.775-5.943,42.637-17.287,59.108-34.241c20.38-20.976,32.23-46.262,37.131-74.893c1.675-9.787,2.761-19.678,3.967-29.54
	c1.606-13.139,2.467-26.403,4.768-39.415c2.064-11.665,6.493-22.702,12.727-32.943c11.581-19.027,27.119-33.667,47.337-43.158
	c8.009-3.759,16.372-6.266,25.072-8.244c11.98-2.723,23.982-1.844,35.807-1.146c8.699,0.513,17.468,3.804,25.725,7.07
	c24.803,9.811,42.915,27.451,55.816,50.469c3.284,5.86,4.898,12.633,7.613,18.841c2.582,5.905,1.779,12.032,1.842,18.113
	c0.085,8.243-0.503,16.53,0.14,24.724c1.062,13.531-3.895,25.338-9.62,36.907c-7.253,14.656-17.465,27.179-30.466,37.04
	c-13.866,10.518-29.317,18.061-46.788,20.499c-19.366,2.703-38.84,4.681-58.151,7.714c-29.259,4.595-56.089,15.305-78.729,34.821
	c-15.073,12.993-26.049,29.177-33.779,47.529c-5.358,12.721-9.053,25.911-10.86,39.593c-1.652,12.51-3.185,25.037-4.601,37.576
	c-0.849,7.523-1.259,15.096-2.071,22.624c-1.065,9.874-4.778,18.923-9.344,27.61c-7.691,14.633-18.418,26.816-31.174,37.19
	c-9.208,7.489-19.514,12.988-30.828,16.863c-3.602,1.233-6.955,1.504-10.507,1.535C128.564,493.498,120.478,493.451,112.392,493.451
	z M426.502,114.928c-0.369-4.237,0.051-8.733-1.238-12.669c-7.04-21.491-31.694-34.241-53.504-24.225
	c-20.546,9.435-27.908,29.151-21.366,48.552c6.726,19.946,24.241,29.813,45.975,25.781c10.459-1.941,17.457-8.954,24.009-16.632
	C425.555,129.669,426.721,122.565,426.502,114.928z M111.233,425.807c21.398,2.436,39.073-18.965,38.65-36.731
	c-0.46-19.311-16.372-37.999-39.517-37.362c-18.633,0.513-35.612,17.667-35.539,36.877
	C74.907,409.72,92.701,427.598,111.233,425.807z M387.351,493.451c-5.23,0-10.506-0.442-15.681,0.091
	c-11.11,1.145-21.154-2.287-30.648-7.129c-29.025-14.804-48.76-37.546-57.438-69.301c-2.674-9.786-4.692-19.756-4.194-29.931
	c0.494-10.098,2.244-19.999,5.208-29.785c3.2-10.561,7.856-20.237,13.953-29.329c6.95-10.364,15.764-18.94,25.743-26.287
	c10.202-7.512,21.553-12.48,33.671-16.51c14.796-4.921,29.784-4.864,44.551-3.274c12.883,1.387,25.453,5.799,37.025,12.403
	c19.034,10.862,34.056,25.603,44.034,45.131c3.213,6.288,4.929,13.323,7.831,19.792c2.303,5.132,2.062,10.367,2.051,15.685
	c-0.02,9.351-0.438,18.728,0.118,28.046c0.543,9.109-2.572,17.166-5.595,25.336c-6.524,17.636-17.784,31.986-31.836,44.106
	c-8.145,7.025-17.524,12.276-27.575,16.394c-8.724,3.575-17.551,5.298-26.957,4.622C396.88,493.17,392.105,493.451,387.351,493.451z
	 M387.259,428.625c20.728,1.565,39.779-17.036,40.16-39.244c0.421-24.522-20.851-41.168-41.058-40.611
	c-19.484,0.538-38.878,17.269-38.749,41.533C347.715,409.739,367.718,430.712,387.259,428.625z M6.329,113.962
	c0-2.536,0.187-5.089-0.03-7.606c-1.373-15.896,3.958-30.137,11.359-43.627C30.287,39.707,49.038,23.21,73.47,13.634
	c6.963-2.729,14.78-3.194,21.972-5.445c6.367-1.992,12.755-1.553,19.183-1.921c10.394-0.595,20.247,2.143,29.887,5.121
	c16.514,5.102,30.927,14.075,43.315,26.229c15.971,15.669,26.414,34.596,30.103,56.457c3.853,22.839,2.02,45.602-8.67,66.684
	c-11.169,22.026-27.444,39.399-49.979,50.139c-15.914,7.584-32.674,11.757-50.527,10.225c-3.936-0.338-7.947,0.003-11.844-0.541
	c-20.186-2.821-38.036-10.869-53.65-24.047c-11.27-9.511-20.703-20.506-27.116-33.759c-3.2-6.614-4.756-14.005-7.655-20.788
	C4.562,132.798,7.322,123.272,6.329,113.962z M111.681,73.173c-21.384-0.172-41.135,19.413-40.46,41.782
	c0.643,21.314,17.817,40.393,41.677,39.966c20.618-0.369,41.704-17.106,39.981-44.365C151.566,89.798,131.922,72.631,111.681,73.173
	z"/>
</svg>
