<?xml version="1.0" encoding="iso-8859-1"?>
<!-- Generator: Adobe Illustrator 19.0.0, SVG Export Plug-In . SVG Version: 6.00 Build 0)  -->
<svg version="1.1" id="Layer_1" xmlns="http://www.w3.org/2000/svg" xmlns:xlink="http://www.w3.org/1999/xlink" x="0px" y="0px"
	 viewBox="0 0 2000 2000" style="enable-background:new 0 0 2000 2000;" xml:space="preserve">
<path d="M999.893,15.733c533.575-6.19,981.956,432.451,984.8,977.472c2.827,541.847-428.956,977.862-958.422,990.629
	C477.258,1997.072,20.263,1559.996,18.243,1003.423C16.19,437.942,477.744,10.744,999.893,15.733z M107.699,1000.652
	c-0.268,482.74,386.712,874.655,856.982,893.219c501.238,19.787,926.553-375.104,930.929-886.926
	c4.359-509.894-407.483-898.798-887.237-902.824C518.453,100.009,105.997,500.797,107.699,1000.652z M1397.984,1162.092
	c11.641,0,23.285,0.16,34.922-0.041c14.636-0.253,21.585,6.132,21.948,21.361c0.37,15.492-6.643,21.59-21.257,21.587
	c-28.596-0.006-57.193,0.169-85.788,0.418c-7.122,0.062-14.548-0.382-21.224,1.532c-3.241,0.929-7.106,6.854-6.952,10.353
	c0.141,3.224,4.758,7.536,8.362,8.987c4.162,1.676,9.374,0.749,14.13,0.944c33.812,1.386,33.229,1.588,44.818,35.003
	c2.106,6.073,10.439,11.725,17.138,14.16c26.073,9.478,37.332,27.142,35.759,54.739c-1.151,20.192,0.287,40.518-0.34,60.756
	c-1.03,33.263-17.474,49.654-50.732,51.695c-50.399,3.093-66.605-11.984-67.704-63.094c-0.282-13.104-0.093-26.223-0.6-39.317
	c-1.136-29.346,3.892-54.363,36.447-65.945c5.822-2.071,10.438-14.306,10.728-22.031c0.127-3.39-11.637-8.579-18.671-10.494
	c-6.659-1.813-14.261-1.048-21.33-0.298c-19.485,2.068-28.309-5.55-28.535-25.865c-0.237-21.273,10.306-26.007,29.035-25.595
	c32.135,0.706,64.309-0.233,96.463-0.697c2.028-0.029,4.03-1.914,7.92-3.887c-8.45-12.572-21.068-7.236-31.332-8.097
	c-13.644-1.145-29.08,4.186-33.924-16.871c-0.908-3.949-13.745-7.145-21.141-7.283c-44.065-0.817-88.171-1.402-132.206-0.117
	c-8.449,0.247-20.347,7.172-24.265,14.454c-11.803,21.938-29.236,29.497-52.7,29.275c-38.122-0.361-76.261,0.68-114.376,0.066
	c-20.067-0.323-27.961,8.042-26.726,27.844c1.036,16.617,0.518,33.358,0.104,50.029c-0.379,15.282,7.228,21.506,21.754,21.36
	c8.327-0.083,16.676,0.041,24.985,0.553c58.809,3.626,102.947,46.738,104.032,106.013c1.571,85.772,1.628,171.619-0.023,257.389
	c-1.168,60.688-49.509,107.576-110.158,109.67c-35.708,1.233-71.501,0.718-107.242,0.156
	c-63.855-1.005-113.602-44.279-115.762-107.542c-3.007-88.076-3.185-176.409-0.12-264.477
	c2.216-63.697,60.529-103.41,104.967-101.952c33.757,1.107,33.92-1.149,34.536-36.476c0.291-16.676-0.643-33.41,0.403-50.028
	c1.977-31.387,18.617-47.828,50.145-48.475c38.115-0.782,76.261-0.024,114.394-0.114c4.169-0.01,8.336-1.218,12.295-7.258
	c-43.797,0-87.595,0.111-131.392-0.024c-84.596-0.26-169.192-0.771-253.788-0.896c-14.907-0.022-29.643-2.491-40.471,14.822
	c-4.49,7.178-20.817,9.459-31.823,9.617c-45.261,0.649-90.549-0.802-135.82-0.459c-10.388,0.079-20.745,4.213-31.116,6.481
	c0.034,2.893,0.067,5.786,0.101,8.68c7.078,2.292,14.055,6.076,21.256,6.568c15.422,1.053,30.968,0.124,46.45,0.512
	c33.842,0.847,36.961,3.18,36.864,36.869c-0.057,19.815,2.694,31.592,26.229,37.611c31.479,8.051,48.685,31.894,48.096,66.678
	c-0.624,36.918,0.82,73.871,0.26,110.792c-0.643,42.406-25.076,69.262-66.838,73.873c-12.945,1.43-26.319,1.513-39.252,0.052
	c-40.61-4.589-66.666-33.246-67.466-74.168c-0.652-33.353,0.565-66.747-0.294-100.091c-1.019-39.554,16.344-66.619,53.52-78.949
	c13.922-4.618,19.041-11.139,19.09-25.11c0.055-15.735-3.997-25.04-22.217-23.792c-14.211,0.974-28.683,0.812-42.844-0.69
	c-35.103-3.724-44.851-19.586-34.092-53.973c1.2-3.836,3.894-7.205,7.617-13.877c-101.151-1.269-182.16-37.682-240.805-116.738
	c-46.075-62.111-64.045-132.796-51.946-209.228c24.919-157.422,176.134-284.324,383.144-223.338
	c4.209-10.076,8.865-20.477,12.944-31.1c64.887-169.015,188.158-268.388,366.548-288.627
	c199.813-22.67,381.125,96.662,449.915,280.704c1.249,3.341,2.522,6.725,3.247,10.201c4.405,21.115,13.446,28.992,37.408,22.201
	c45.177-12.805,91.45-13.343,137.852-2.614c127.18,29.405,233.548,150.358,214.607,314.5
	c-15.481,134.161-139.095,242.45-279.22,242.713c-42.628,0.08-85.257,0.012-127.885,0.012
	C1398.02,1156.493,1398.002,1159.293,1397.984,1162.092z M1111.187,1531.374c-0.037,0-0.073,0-0.11,0
	c0-38.102,0.369-76.209-0.09-114.305c-0.619-51.323-29.536-83.207-80.342-85.946c-34.413-1.855-69.16-2.1-103.501,0.422
	c-50.33,3.695-77.54,33.845-77.917,84.118c-0.581,77.388-0.608,154.789,0.145,232.174c0.537,55.222,31.016,84.849,87.175,86.216
	c27.371,0.667,54.773,0.575,82.152,0.218c62.141-0.811,91.956-30.557,92.437-92.164
	C1111.422,1605.198,1111.187,1568.285,1111.187,1531.374z M662.136,1397.881c0.148,0.001,0.297,0.001,0.445,0.002
	c0-15.489,0.294-30.984-0.058-46.464c-0.882-38.782-18.405-57.35-55.618-59.406c-43.761-2.418-68.865,13.244-72.015,50.716
	c-3.081,36.653-2.425,73.874-0.144,110.643c1.82,29.345,19.169,43.847,49.028,46.668c10.6,1.002,21.453,1.081,32.046,0.067
	c27.883-2.669,43.382-17.144,45.982-45.092C663.558,1436.123,662.136,1416.936,662.136,1397.881z M1417.034,1357.79
	c-0.267-0.004-0.535-0.008-0.802-0.013c0-9.466,0.801-19.013-0.158-28.38c-2.386-23.31-10.221-29.88-34.533-30.504
	c-27.255-0.7-35.816,5.057-38.459,29.871c-1.871,17.566-1.447,35.477-0.792,53.188c1.031,27.873,10.488,37.605,35.235,38.308
	c29.084,0.826,35.749-5.64,38.357-37.663C1416.555,1374.351,1416.666,1366.06,1417.034,1357.79z M997.178,1482.951
	c0-11.785,0.242-23.575-0.067-35.352c-0.318-12.089-5.224-19.99-18.856-20.573c-13.154-0.562-20.685,5.647-21.045,18.116
	c-0.714,24.694-1.329,49.527,0.757,74.069c0.518,6.093,10.72,14.356,17.875,16.216c11.872,3.085,20.468-3.898,21.032-17.135
	c0.501-11.76,0.105-23.559,0.105-35.34C997.046,1482.951,997.112,1482.951,997.178,1482.951z"/>
</svg>
