<?xml version="1.0" encoding="utf-8"?>
<!-- Generator: Adobe Illustrator 26.2.1, SVG Export Plug-In . SVG Version: 6.00 Build 0)  -->
<svg version="1.1" id="rari" xmlns="http://www.w3.org/2000/svg" xmlns:xlink="http://www.w3.org/1999/xlink" x="0px" y="0px"
	 viewBox="0 0 500 500" style="enable-background:new 0 0 500 500;" xml:space="preserve">
<g>
	<path d="M250,3C118,3,11,110,11,242s107,239,239,239s239-107,239-239S382,3,250,3z M353.6,279.8c-0.3,10.9-0.1,21.9-0.1,33.5
		c-5.9,0-11.2,0-16.4,0c-12.5,0-25-0.1-37.5,0.1c-3.5,0-4.7-1.2-4.6-4.6c0.2-9.5,0.1-19,0.1-28.5c0-10.3-4.4-14.9-14.9-15
		c-15-0.2-30,0-45,0c-7.7,0-15.3,0-23.5,0c-0.1,2-0.3,3.7-0.3,5.5c0,12.7,0,25.3,0,38c0,2.4,0.2,4.7-3.5,4.6
		c-17.7-0.1-35.3-0.1-53-0.1c-0.5,0-0.9-0.3-1.7-0.5c0-47.1,0-94.2,0-141.8c1.6-0.1,3.2-0.2,4.8-0.2c46.5,0,93-0.3,139.5,0.3
		c10.3,0.1,21,1.9,30.8,5.1c24.8,8.2,31.8,41.9,12.7,58.8c-3.4,2.8-7.6,4.6-11.1,6.7C346.7,248.4,354.1,261.5,353.6,279.8z"/>
	<path d="M281.4,213.1c-21.7,0-43.3,0-65,0c-1.6,0-3.2,0.1-4.9,0.2c0,4.3,0,8,0,12.2c1.9,0.1,3.4,0.3,4.9,0.3c21.7,0,43.3,0,65,0
		c7.5,0,10.5-1.9,10.5-6.3S288.7,213.1,281.4,213.1z"/>
</g>
</svg>
