<?xml version="1.0" encoding="utf-8"?>
<!-- Generator: Adobe Illustrator 26.2.1, SVG Export Plug-In . SVG Version: 6.00 Build 0)  -->
<svg version="1.1" id="ray" xmlns="http://www.w3.org/2000/svg" xmlns:xlink="http://www.w3.org/1999/xlink" x="0px" y="0px"
	 viewBox="0 0 500 500" style="enable-background:new 0 0 500 500;" xml:space="preserve">
<path d="M438.8,187.5v174.2L245,473.7L51.1,361.8V137.9L245,25.9l149,86l22.5-13L245,0L28.6,125v249.8l216.4,125l216.4-125V174.6
	L438.8,187.5z"/>
<path d="M190.8,361.9h-32.4V253.2h108.1c10.2-0.1,20-4.2,27.2-11.5s11.3-17.1,11.3-27.3c0.1-5.1-0.9-10.1-2.9-14.7
	c-2-4.7-4.8-8.9-8.5-12.4c-3.5-3.6-7.7-6.5-12.4-8.4c-4.7-2-9.7-2.9-14.7-2.9H158.3v-33.1h108.2c18.9,0.1,37.1,7.7,50.5,21.1
	c13.4,13.4,21,31.5,21.1,50.5c0.1,14.5-4.3,28.7-12.6,40.5c-7.7,11.3-18.5,20.2-31.1,25.5c-12.5,4-25.6,5.9-38.7,5.8h-64.9
	L190.8,361.9z"/>
<path d="M337.3,359.2h-37.8l-29.2-50.9c11.5-0.7,22.9-3,33.8-6.9L337.3,359.2z"/>
<path d="M416.2,151.3l22.4,12.4l22.4-12.4V125l-22.4-13l-22.4,13V151.3z"/>
</svg>
