<?xml version="1.0" encoding="iso-8859-1"?>
<!-- Generator: Adobe Illustrator 19.0.0, SVG Export Plug-In . SVG Version: 6.00 Build 0)  -->
<svg version="1.1" id="Layer_1" xmlns="http://www.w3.org/2000/svg" xmlns:xlink="http://www.w3.org/1999/xlink" x="0px" y="0px"
	 viewBox="0 0 2000 2000" style="enable-background:new 0 0 2000 2000;" xml:space="preserve">
<path d="M975.85,1981.854c-168.975-174.751-335.53-346.83-501.846-519.14c-34.408-35.648-70.432-70.133-101.443-108.597
	C177.254,1111.869,125.71,840.57,234.721,549.632C344.531,256.563,564.994,82.612,872.018,31.548
	c432.353-71.908,841.971,200.516,933.544,617.179c64.331,292.71-7.964,552.427-222.546,763.645
	c-191.859,188.851-391.374,369.926-587.582,554.356C990.721,1971.158,985.173,1974.702,975.85,1981.854z M971.203,1887.921
	c3.123-2.734,6.246-5.468,9.37-8.202c4.154-2.319,9.005-3.899,12.364-7.063c181.613-171.084,366.534-338.839,543.635-514.478
	c177.418-175.954,242.036-394.817,202.929-640.081c-61.79-387.523-428.262-671.307-850.614-604.582
	C600.118,159.136,394.498,325.23,299.401,603.5c-96.41,282.111-31.845,537.613,172.593,754.566
	c156.376,165.949,316.556,328.313,474.607,492.692C956.729,1861.292,963.089,1875.449,971.203,1887.921z M1468.402,1318.993
	c113.793-109.248,180.261-242.356,199.506-398.987c38.457-312.991-150.731-607.569-454.403-707.508
	c-299.696-98.63-640.485,31.58-791.283,302.564c-5.19,9.326-8.068,19.939-14.038,35.052c21.31,1.044,37.338,2.523,53.366,2.512
	c256.014-0.189,512.028-0.916,768.039-0.285c21.934,0.054,48.085,2.857,64.905,14.781c37.284,26.431,69.88,59.476,101.866,87.607
	c0,138.135,0.365,270.216-0.133,402.295c-0.312,82.668-68.077,149.155-151.493,149.927c-21.83,0.202-43.664,0.031-73.841,0.031
	c47.946,94.068,90.251,177.069,135.227,265.309C1363.435,1418.199,1416.31,1369.004,1468.402,1318.993z M335.427,800.211
	c-7.29,190.657,50.229,358.041,182.839,496.748c147.325,154.098,296.227,306.688,444.584,459.797
	c6.458,6.665,14.331,11.959,22.34,18.546c56.816-53.73,111.633-105.57,166.734-157.679
	c-62.66-123.133-121.472-242.89-184.21-360.554c-43.635-81.837-26.133-168.904-36.98-251.852c8.091-3.013,9.566-4.028,11.054-4.048
	c41.29-0.556,82.731,0.911,123.809-2.298c20.29-1.585,43.117-7.321,59.193-18.936c39.115-28.26,52.146-101.454,32.002-155.108
	c-17.651-47.013-49.22-66.573-108.628-66.651c-216.516-0.283-433.032-0.436-649.548-0.634c-17.792-0.016-35.584-0.002-57.478-0.002
	C338.39,777.549,335.862,788.84,335.427,800.211z"/>
</svg>
