<?xml version="1.0" encoding="iso-8859-1"?>
<!-- Generator: Adobe Illustrator 19.0.0, SVG Export Plug-In . SVG Version: 6.00 Build 0)  -->
<svg version="1.1" id="Layer_1" xmlns="http://www.w3.org/2000/svg" xmlns:xlink="http://www.w3.org/1999/xlink" x="0px" y="0px"
	 viewBox="0 0 500 500" enable-background="new 0 0 500 500" xml:space="preserve">
<path d="M307.749,487.247c0-13.678,0-27.302,0-41.78c66.925-21.987,112.958-66.053,137.098-133.958c-15.39,0-29.711,0-44.838,0
	c-19.002,42.696-50.25,73.516-94.867,89.881c-33.396,12.249-67.361,12.938-101.396,2.796
	c-68.374-20.375-115.585-83.96-115.505-155.17c0.081-71.55,46.883-134.61,115.362-155.322
	c68.371-20.679,147.834,5.655,188.719,76.54c14.966,0,30.149,0,46.477,0c-26.451-59.187-70.064-97.845-130.971-117.571
	c0-14.113,0-27.941,0-41.823c86.026,17,186.857,102.664,187.867,236.621C496.678,378.033,399.405,468.961,307.749,487.247z
	 M240.726,286.531c15.987,22.677,31.697,44.959,47.246,67.015c19.293,0,38.201,0,58.365,0c-9.402-12.815-18.077-24.64-26.752-36.464
	c-8.803-11.997-17.606-23.993-26.707-36.395c26.706-11.28,38.765-31.768,41.71-58.83c4.061-37.325-14.879-65.459-51.235-74.637
	c-8.123-2.051-16.682-3.168-25.06-3.279c-29.49-0.391-58.989-0.168-88.484-0.139c-2.363,0.002-4.726,0.305-7.015,0.463
	c0,12.908,0,25.063,0,37.486c2.405,0.139,4.279,0.34,6.152,0.342c27.584,0.022,55.169-0.175,82.75,0.083
	c21.222,0.198,33.996,12.77,33.957,32.682c-0.04,20.42-11.323,30.761-33.748,30.798c-26.764,0.045-53.529,0.011-80.293,0.011
	c-2.907,0-5.813,0-8.961,0c0,14.154,0,27.169,0,40.864C188.897,286.531,214.75,286.531,240.726,286.531z M4.434,254.411
	c3.329,136.316,107.729,220.022,196.114,234.686c0-13.867,0-27.682,0-41.389c-98.76-25.383-155.387-114.852-154.116-195.179
	c1.654-104.522,56.705-169.834,154.092-203.066c0-13.147,0-26.972,0-40.871C97.117,27.391,1.253,124.173,4.434,254.411z
	 M234.559,45.104c13.33,0,26.208,0,39.254,0c0-13.605,0-26.991,0-41.229c-13.236,0-25.887,0-39.254,0
	C234.559,18.096,234.559,31.314,234.559,45.104z M273.844,452.816c-13.294,0-26.022,0-39.012,0c0,14.064,0,27.517,0,41.113
	c13.37,0,26.081,0,39.012,0C273.844,479.014,273.844,465.77,273.844,452.816z"/>
</svg>
