<?xml version="1.0" encoding="iso-8859-1"?>
<!-- Generator: Adobe Illustrator 19.0.0, SVG Export Plug-In . SVG Version: 6.00 Build 0)  -->
<svg version="1.1" id="Layer_1" xmlns="http://www.w3.org/2000/svg" xmlns:xlink="http://www.w3.org/1999/xlink" x="0px" y="0px"
	 viewBox="0 0 500 500" style="enable-background:new 0 0 500 500;" xml:space="preserve">
<path id="XMLID_4_" d="M16.46,242.669c22.348-7.423,44.695-14.845,67.536-22.432c34.463,72.129,68.345,143.043,102.634,214.809
	c-10.427,9.304-20.861,18.458-31.093,27.832c-3.379,3.096-6.355,1.893-9.472,0.078c-12.329-7.177-25.368-13.398-36.808-21.793
	c-50.466-37.037-80.25-86.965-90.399-148.677c-0.779-4.74-1.598-9.473-2.398-14.21C16.46,266.407,16.46,254.538,16.46,242.669z
	 M487.729,91.863c-3.296-9.459-5.375-19.581-10.096-28.265C456.037,23.871,404.609,8.858,363.3,30.004
	c-27.151,13.899-42.334,36.185-44.973,66.766c1.475,1.231,2.475,2.184,3.589,2.979c29.23,20.852,54.568,45.599,74.832,75.323
	c2.754,4.039,5.91,5.057,10.46,4.928c32.885-0.925,68.288-23.135,78.259-61.478c0.682-2.622,1.505-5.207,2.262-7.81
	C487.729,104.43,487.729,98.146,487.729,91.863z M204.499,419.431c23.797-21.014,47.017-42.733,71.576-62.814
	c13.048-10.669,18.504-20.834,15.764-38.766c-6.311-41.294-9.395-83.08-13.887-124.656c-1.153-10.668-2.671-21.296-4.134-32.832
	c-60.723,19.276-120.479,38.246-180.869,57.417c33.901,70.796,67.093,140.111,100.873,210.653
	C198.178,424.767,201.4,422.168,204.499,419.431z M88.882,209.045c61.581-19.478,122.469-38.738,184.155-58.249
	c-4.202-38.952-8.293-76.882-12.357-114.55c-78.6-7.597-161.418,29.457-206.92,99.805C65.54,160.534,77.126,184.612,88.882,209.045z
	 M452.394,211.942c-30.273,26.79-60.517,53.612-90.773,80.422c-17.476,15.485-34.957,30.965-52.446,46.435
	c-3.099,2.741-6.194,4.965-5.586,10.242c3.75,32.508,7.099,65.061,10.664,97.59c0.819,7.476,1.961,14.917,2.972,22.509
	c107.414-33.798,170.224-158.011,140.859-261.546C456.064,209.128,454.122,210.414,452.394,211.942z M424.716,212.87
	c-1.717,1.189-3.373,2.471-5.128,3.601c-6.399,4.12-8.527,3.737-12.921-2.359c-1.015-1.407-1.83-2.96-2.718-4.457
	c-27.527-46.419-64.394-83.769-109.652-112.985c-14.012-9.045-13.985-9.08-7.79-24.508c0.387-0.965,0.586-2.007,0.994-2.962
	c2.022-4.732,5.676-5.924,10.257-4.291c3.505,1.25,6.863,2.91,10.421,4.446c3.547-7.029,6.776-13.427,10.272-20.355
	c-15.973-5.628-31.42-10.031-48.237-11.649c10.705,98.537,21.289,195.965,32.091,295.402
	c52.234-46.226,103.236-91.362,154.237-136.498c-1.882-4.866-3.425-8.852-5.006-12.938c-7.52,3.153-13.822,5.795-20.084,8.421
	C436.071,205.009,436.07,205.007,424.716,212.87z M308.145,472.033c-4.216-39.379-8.125-79.182-13.303-120.413
	c-33.261,29.441-64.969,57.507-96.769,85.654c7.615,15.864,14.804,30.84,21.827,45.471
	C248.908,486.23,293.565,481.152,308.145,472.033z M80.011,212.008c-10.742-22.41-20.973-43.754-31.955-66.667
	c-16.313,27.5-25.426,55.13-29.704,86.341C39.759,224.851,59.466,218.563,80.011,212.008z M161.645,469.517
	c16.207,5.811,30.794,10.224,47.168,11.71c-6.078-12.769-11.685-24.549-17.843-37.484
	C181.111,452.407,171.925,460.481,161.645,469.517z"/>
</svg>
