<?xml version="1.0" encoding="iso-8859-1"?>
<!-- Generator: Adobe Illustrator 19.0.0, SVG Export Plug-In . SVG Version: 6.00 Build 0)  -->
<svg version="1.1" id="Layer_1" xmlns="http://www.w3.org/2000/svg" xmlns:xlink="http://www.w3.org/1999/xlink" x="0px" y="0px"
	 viewBox="0 0 2000 2000" style="enable-background:new 0 0 2000 2000;" xml:space="preserve">
<path d="M1984.788,449.611c0,500.703,0,999.06,0,1499.903c-653.742,0-1306.462,0-1959.181,0c-0.734-1.263-1.468-2.527-2.201-3.79
	c323.441-134.481,646.881-268.962,971.227-403.82c0-90.856,0-180.096,0-274.595c-328.194,139.057-654.784,277.434-984.516,417.142
	c0-115.288,0-227.156,0-343.534c326.392-135.7,655.182-272.397,984.632-409.368c0-97.915,0-193.818,0-294.478
	C666.486,776.144,339.785,914.554,9.887,1054.319c0-116.698,0-228.871,0-343.618C336.961,574.769,665.069,438.409,995.41,301.119
	c0-88.601,0-176.673,0-272.855C1328.002,169.905,1655.253,309.272,1984.788,449.611z"/>
</svg>
