<?xml version="1.0" encoding="iso-8859-1"?>
<!-- Generator: Adobe Illustrator 19.0.0, SVG Export Plug-In . SVG Version: 6.00 Build 0)  -->
<svg version="1.1" id="Layer_1" xmlns="http://www.w3.org/2000/svg" xmlns:xlink="http://www.w3.org/1999/xlink" x="0px" y="0px"
	 viewBox="0 0 2000 2000" style="enable-background:new 0 0 2000 2000;" xml:space="preserve">
<path d="M1979.39,1001.142c1.87,532.5-435.408,988.13-997.099,978.319c-522.153-9.119-967.903-435.521-959.438-998.411
	C30.595,466.19,456.099,6.039,1036.254,22.762C1542.019,37.34,1979.347,457.096,1979.39,1001.142z M1166.766,985.599
	c21.233-14.879,40.697-26.586,57.944-40.955c59.318-49.42,75.187-116.38,65.094-188.275
	c-8.714-62.073-47.777-106.462-107.781-125.489c-36.694-11.636-76.305-18.478-114.772-19.26
	c-98.821-2.01-197.736,0.503-296.609,1.558c-3.195,0.034-6.349,3.879-14.992,9.513c1.78,36.358,3.71,75.787,5.845,119.383
	c-60.977,0-117.694,0-177.814,0c0,24.506,0,44.853,0,70.865c60.508,0,118.498,0,177.049,0c0,25.116,0,44.565,0,68.538
	c-60.551,0-118.384,0-177.701,0c0,24.004,0,43.369,0,67.649c60.794,0,118.706,0,176.66,0c0,133.705,0,262.479,0,392.382
	c58.076,0,112.915,0,170.557,0c0-94.424,0-185.106,0-275.32c102.843-13.934,140.534,10.615,174.231,89.073
	c6.933,16.143,13.064,32.641,19.225,49.102c17.523,46.822,34.87,93.71,51.475,138.391c59.545,0,115.076,0,169.773,0
	C1361.926,1283.82,1240.741,1041.058,1166.766,985.599z M1091.322,911.051c31.172-20.822,38.993-53.572,37.548-86.17
	c-1.636-36.93-18.88-68.923-58.622-79.57c-47.78-12.8-96.107-20.199-142.556-1.473c0,65.356,0,128.511,0,194.093
	C986.865,942,1041.658,944.226,1091.322,911.051z"/>
</svg>
