<?xml version="1.0" encoding="iso-8859-1"?>
<!-- Generator: Adobe Illustrator 19.0.0, SVG Export Plug-In . SVG Version: 6.00 Build 0)  -->
<svg version="1.1" id="Layer_1" xmlns="http://www.w3.org/2000/svg" xmlns:xlink="http://www.w3.org/1999/xlink" x="0px" y="0px"
	 viewBox="0 0 2000 2000" style="enable-background:new 0 0 2000 2000;" xml:space="preserve">
<path d="M1984.553,938.934c-52.995,41.057-105.987,82.119-158.993,123.162c-3.398,2.631-6.905,5.122-10.422,7.723
	c-125.523,0-250.722,0-378.341,0c16.042-45.339,31.439-88.856,48.631-137.442c164.269,0,331.698,0,499.127,0
	C1984.553,934.563,1984.553,936.749,1984.553,938.934z M17.447,1070.075c60.439,0,120.879,0,181.27,0c0-47.47,0-91.406,0-137.698
	c-61.96,0-121.615,0-181.27,0C17.447,978.277,17.447,1024.176,17.447,1070.075z M1482.171,1444.983
	c-3.61-5.186-8.339-9.594-12.456-14.26c-252.748,183.508-558.864,109.126-717.809-62.657
	c-180.542-195.125-184.509-479.19-45.997-674.485c76.553-107.936,178.844-182.736,307.83-212.409
	c163.795-37.681,317.877-10.674,456.755,94.062c68.837-98.877,135.769-195.018,202.528-290.912
	C1371.463,44.247,870.125,30.944,533.705,345.46c-375.019,350.6-366.904,919.068-51.477,1260.895
	c342.865,371.563,874.071,360.151,1191.071,113.754C1608.888,1627.335,1545.598,1536.112,1482.171,1444.983z M1259.939,1133.903
	c139.096-60.85,208.711-203.097,180.541-328.569c-24.383-108.603-87.777-184.12-192.794-219.682
	c-94.13-31.875-192.454-14.624-289.129-14.627c-2.591,0-5.183,3.453-7.019,4.758c0,52.953,0,104.925,0,159.883
	c67.542,0,132.878-0.113,198.214,0.035c53.399,0.121,100.859,32.486,119.544,81.136c30.682,79.887-28.802,167.461-114.398,167.922
	c-65.983,0.355-131.969,0.071-204.8,0.071c106.331,152.719,208.211,299.046,311.561,447.482
	c57.835-10.078,105.687-37.796,152.188-75.485C1362.157,1281.96,1311.281,1208.27,1259.939,1133.903z M658.598,1069.364
	c93.061,0,183.959,0,280.481,0c-25.113-47.828-48.361-92.103-70.791-134.82c-70.812,0-137.898,0-209.689,0
	C658.598,980.394,658.598,1024.123,658.598,1069.364z"/>
</svg>
