<?xml version="1.0" encoding="iso-8859-1"?>
<!-- Generator: Adobe Illustrator 19.0.0, SVG Export Plug-In . SVG Version: 6.00 Build 0)  -->
<svg version="1.1" id="Layer_1" xmlns="http://www.w3.org/2000/svg" xmlns:xlink="http://www.w3.org/1999/xlink" x="0px" y="0px"
	 viewBox="0 0 2000 2000" style="enable-background:new 0 0 2000 2000;" xml:space="preserve">
<path d="M1491.989,154.727c163.568,283.008,326.152,564.312,489.1,846.247c-163.442,282.726-326.029,563.972-488.496,845.013
	c-328.488,0-653.846,0-981.744,0C348.333,1565.074,185.688,1283.938,22.001,1001c163.407-282.55,326.606-564.74,489.424-846.273
	C839.386,154.727,1163.656,154.727,1491.989,154.727z M540.222,750.593c168.646,0,332.93,0,497.214,0
	c0.604,3.219,1.208,6.438,1.812,9.658c-166.5,135.706-333,271.412-497.636,405.6c0,125.342,0,247.405,0,374.832
	c303.541-241.341,602.097-478.719,901.945-717.124c-68.073-125.19-134.257-246.905-198.35-364.775c-238.512,0-471.271,0-704.984,0
	C540.222,555.19,540.222,648.025,540.222,750.593z M1164.156,1121.511c-75.948,61.924-149.988,122.292-225.331,183.724
	c70.102,82.553,137.179,161.542,201.763,237.597c133.423,0,262.131,0,397.923,0
	C1411.734,1400.15,1289.408,1262.477,1164.156,1121.511z"/>
</svg>
