<?xml version="1.0" encoding="iso-8859-1"?>
<!-- Generator: Adobe Illustrator 19.0.0, SVG Export Plug-In . SVG Version: 6.00 Build 0)  -->
<svg version="1.1" id="Layer_1" xmlns="http://www.w3.org/2000/svg" xmlns:xlink="http://www.w3.org/1999/xlink" x="0px" y="0px"
	 viewBox="0 0 500 500" enable-background="new 0 0 500 500" xml:space="preserve">
<path d="M99.653,406.583c3.332-12.507,6.289-23.732,9.314-34.938c7.101-26.308,14.229-52.609,21.358-78.91
	c3.307-12.2,6.416-24.46,10.074-36.554c1.399-4.626,0.685-7.684-2.894-10.957c-22.29-20.384-37.001-45.382-42.178-75.131
	c-9.654-55.471,7.526-101.616,51.466-136.839c28.75-23.047,62.58-32.693,98.942-28.167c56.134,6.987,96.582,37.013,115.768,90.595
	c20.347,56.824,7.023,107.286-36.162,149.593c-3.027,2.966-4.229,5.699-3.063,9.917c6.737,24.364,13.277,48.784,19.915,73.176
	c0.197,0.723,0.745,1.35,1.78,3.161c19.261-5.095,38.726-10.244,59.204-15.661c5.159,19.026,10.068,37.13,15.19,56.015
	c-20.514,5.6-39.825,10.872-59.867,16.343c2.92,10.937,5.687,21.306,8.821,33.045c-18.689,5.097-36.949,10.077-56.16,15.316
	c-19.503-72.125-38.696-143.103-58.09-214.825c36.193-13.765,57.581-38.597,59.013-77.592c0.822-22.391-7.636-41.774-23.343-57.764
	c-31.476-32.042-84.758-31.828-114.969,0.464c-20.641,22.063-27.902,47.969-20.024,77.23c7.837,29.112,27.635,47.499,56.228,57.333
	c-8.856,32.823-17.46,64.715-26.241,97.262c19.954,5.443,39.113,10.668,59.83,16.319c-4.96,18.517-9.851,36.773-15.029,56.105
	c-20.273-5.385-39.753-10.559-59.943-15.921c-4.416,15.872-8.568,30.797-12.97,46.621
	C136.86,416.711,118.723,411.774,99.653,406.583z M155.714,421.649c-5.126,18.646-10.089,36.698-15.421,56.092
	c20.475,5.584,40.051,10.923,60.903,16.61c5.131-18.871,10.044-36.945,15.257-56.119
	C196.03,432.656,176.574,427.344,155.714,421.649z"/>
</svg>
