<?xml version="1.0" encoding="iso-8859-1"?>
<!-- Generator: Adobe Illustrator 19.0.0, SVG Export Plug-In . SVG Version: 6.00 Build 0)  -->
<svg version="1.1" id="Layer_1" xmlns="http://www.w3.org/2000/svg" xmlns:xlink="http://www.w3.org/1999/xlink" x="0px" y="0px"
	 viewBox="0 0 500 500" enable-background="new 0 0 500 500" xml:space="preserve">
<path d="M473.008,151.772c0,9.676,0,18.843,0,28.092c-53.776,31.046-107.201,61.89-161.018,92.961
	c-1.765-2.749-3.414-5.318-5.282-8.229c-68.822,39.726-137.592,79.422-206.588,119.249c-1.665-2.779-3.179-5.306-4.996-8.338
	C82.655,382.68,70.277,389.802,57.8,396.98c-1.485-0.78-2.825-1.485-5-2.627C193.207,313.297,332.989,232.603,473.008,151.772z
	 M308.666,223.409c1.806,2.813,3.529,5.496,5.299,8.252c53.444-30.858,106.401-61.435,159.38-92.024c0-2.307,0-4.422,0-6.483
	c-6.303-3.643-12.45-7.197-18.706-10.813C315.522,202.66,176.402,282.982,37.317,363.283c0,1.839,0,3.507,0,5.497
	c20.483-11.818,40.714-23.49,61.108-35.257c1.667,2.812,3.168,5.345,4.982,8.404C172.099,302.264,240.328,262.868,308.666,223.409z
	 M472.396,220.216c0-9.589,0-18.523,0-28.102C344.176,266.151,216.439,339.91,87.743,414.223c2.778,1.102,4.55,1.805,5.697,2.26
	c13.562-7.849,26.482-15.326,39.548-22.889c1.854,3.01,3.452,5.603,5.129,8.326c57.136-32.981,113.988-65.799,170.83-98.611
	c1.683,2.868,3.175,5.411,4.949,8.435C367.18,280.975,419.961,250.495,472.396,220.216z M37.256,325.67c0,2.02,0,3.445,0,5.478
	c20.695-11.937,41.065-23.686,61.597-35.529c1.725,2.739,3.37,5.353,5.197,8.253c68.954-39.79,137.606-79.405,206.41-119.108
	c1.838,3.041,3.419,5.657,5.055,8.365c43.638-25.203,87.077-50.291,131.121-75.728c-9.397-4.511-16.843-10.726-25.426-13.424
	C292.48,178.305,164.76,252.05,37.256,325.67z M121.864,432.631c2.667,1.235,4.83,3.107,7.975,1.152
	c7.102-4.415,14.331-8.628,21.559-12.835c3.865-2.25,7.837-4.316,11.847-6.512c1.744,2.942,3.243,5.471,4.902,8.271
	c46.168-26.649,92.216-53.228,138.507-79.948c1.867,2.984,3.492,5.582,5.196,8.305c53.509-30.9,106.726-61.631,159.936-92.358
	c0-9.362,0-18.364,0-28.094C354.739,298.185,238.413,365.343,121.864,432.631z M393.989,87.118
	c-5.672-4.285-10.078-2.858-15.578,0.411c-23.305,13.851-46.852,27.296-70.336,40.844c-21.271,12.271-42.589,24.46-63.861,36.729
	c-21.631,12.477-43.232,25.007-64.844,37.516c-19.523,11.3-39.031,22.628-58.569,33.901c-19.409,11.198-38.857,22.327-58.269,33.518
	c-8.464,4.88-16.883,9.839-25.109,14.638c0,1.851,0,3.352,0,5.404c20.122-11.588,39.812-22.928,59.648-34.351
	c1.905,3.007,3.542,5.592,5.221,8.242c57.216-33.036,114.063-65.859,171.121-98.805c1.759,2.938,3.325,5.554,5.027,8.396
	c44.221-25.529,88.142-50.884,132.432-76.452C404.652,93.494,398.916,90.84,393.989,87.118z M155.86,451.146
	c2.551,3.031,4.828,2.927,7.925,1.066c12.033-7.229,24.253-14.147,36.848-21.438c1.789,2.801,3.497,5.476,5.283,8.271
	c34.375-19.839,68.508-39.539,102.817-59.34c1.826,3.103,3.369,5.725,4.957,8.423c52.619-30.386,104.942-60.601,157.153-90.751
	c0.387-9.547,0.759-18.712,1.166-28.763C366.024,329.805,260.943,390.475,155.86,451.146z M98.307,216.367
	c1.701,2.768,3.302,5.375,5.111,8.32c46.041-26.57,91.709-52.925,137.386-79.284c1.823,2.967,3.42,5.566,5.113,8.322
	c43.873-25.333,87.381-50.455,131.496-75.927c-8.665-4.992-16.605-9.567-24.358-14.034
	C247.531,124.69,142.372,185.407,37.242,246.106c0,1.768,0,3.337,0,5.496C57.807,239.736,77.92,228.131,98.307,216.367z
	 M470.667,337.023c0-9.299,0-18.399,0-28.099c-93.644,54.071-186.823,107.875-280.442,161.932c1.993,1.061,3.437,1.829,4.929,2.623
	c12.143-6.995,24.16-13.918,36.242-20.878c1.653,2.726,3.229,5.325,5.053,8.332c23.641-13.625,47.061-27.123,70.654-40.72
	c1.804,2.98,3.333,5.506,5.052,8.348C365.24,397.903,417.997,367.438,470.667,337.023z M37.352,207.456c0,1.974,0,3.48,0,5.485
	C57.68,201.2,77.655,189.663,97.606,178.14c1.887,3.039,3.496,5.63,5.173,8.332c34.311-19.806,68.246-39.395,102.268-59.035
	c1.876,3.117,3.455,5.74,5.049,8.389c44.513-25.71,88.9-51.347,133.884-77.329c-8.518-4.91-16.436-9.474-24.355-14.038
	C225.04,99.077,131.075,153.336,37.352,207.456z M225.061,490.292c1.856,1.042,3.32,1.863,4.827,2.708
	c12.866-7.429,25.742-14.865,38.941-22.486c1.697,2.717,3.336,5.341,5.177,8.288c11.777-6.781,23.421-13.486,35.338-20.349
	c1.766,2.838,3.391,5.449,5.158,8.288c52.096-30.073,103.952-60.008,155.451-89.737c0-9.695,0-18.571,0-28.138
	C388.019,396.183,306.734,443.125,225.061,490.292z M37.405,168.826c0,2,0,3.498,0,5.434c20.654-11.877,40.94-23.544,61.262-35.23
	c1.954,3.161,3.507,5.674,5.114,8.273c23.134-13.349,46.101-26.601,69.162-39.907c1.89,3.054,3.449,5.574,5.134,8.296
	c44.271-25.55,88.275-50.947,132.564-76.508c-8.365-4.792-16.245-9.307-24.453-14.009
	C203.013,73.201,120.087,121.084,37.405,168.826z M97.515,100.342c1.99,3.045,3.415,5.225,4.908,7.509
	c11.744-6.785,23.294-13.457,34.933-20.182c1.747,2.856,3.341,5.463,5.097,8.334c44.432-25.65,88.555-51.121,133.251-76.923
	c-8.523-4.93-16.369-9.469-24.303-14.058C179.997,46.245,108.659,87.431,37.362,128.593c0,1.97,0,3.786,0,6.109
	C57.789,123.259,77.462,111.299,97.515,100.342z"/>
</svg>
