<?xml version="1.0" encoding="iso-8859-1"?>
<!-- Generator: Adobe Illustrator 19.0.0, SVG Export Plug-In . SVG Version: 6.00 Build 0)  -->
<svg version="1.1" id="Layer_1" xmlns="http://www.w3.org/2000/svg" xmlns:xlink="http://www.w3.org/1999/xlink" x="0px" y="0px"
	 viewBox="0 0 500 500" style="enable-background:new 0 0 500 500;" xml:space="preserve">
<path id="XMLID_4_" d="M246.237,11.718c2.207-3.595,7.409-3.631,9.667-0.068c0.837,1.32,1.571,2.548,2.185,3.565
	c31.599,52.356,63.085,104.779,94.621,157.172c36.31,60.324,72.635,120.639,108.978,180.944c7.824,12.983,7.909,13.016-5.262,20.806
	c-65.705,38.861-131.471,77.62-197.085,116.634c-5.118,3.043-11.491,3.03-16.596-0.035
	C175.769,450.517,108.75,410.368,41.501,370.61c-7.798-4.61-7.723-8.581-3.597-15.375
	C106.672,241.99,175.302,128.661,244.027,15.391C244.658,14.351,245.399,13.084,246.237,11.718z M166.138,285.809
	c1.776-19.465,7.958-36.114,19.912-50.741c11.361-13.902,27.08-21.236,42.147-29.598c12.288-6.819,17.852-16.635,17.71-30.926
	c-0.434-43.716-0.147-87.439-0.176-131.159c-0.002-2.867-0.301-5.734-0.585-10.811C180.112,140.053,116.321,245.477,51.309,352.918
	c5.751-2.548,9.317-4.103,12.863-5.703c24.748-11.171,49.499-22.338,74.235-33.535c18.817-8.518,37.137-2.252,45.969,12.742
	c8.62,14.633,20.448,26.42,36.486,33.163c4.928,2.072,10.06,3.657,14.925,5.403c-3.071,8.349-8.043,8.329-14.813,5.624
	c-18.26-7.295-31.977-19.918-42.455-36.017c-11.165-17.156-21.699-18.001-39.52-10.345c-14.733,6.329-29.224,13.224-43.821,19.869
	c-14.328,6.522-28.655,13.044-44.424,20.223c65.869,39.281,129.986,77.517,195.144,116.374c0-23.326,0.559-44.732-0.152-66.094
	c-0.759-22.785,7.404-39.289,28.695-49.261c18.452-8.642,34.631-20.449,44.494-39.867c2.891,2.661,5.251,4.833,7.576,6.972
	c-8.246,14.294-18.558,25.05-31.975,32.853c-8.536,4.964-16.95,10.139-25.358,15.319c-8.253,5.085-12.461,12.348-12.415,22.26
	c0.09,19.531-0.15,39.063-0.239,58.595c-0.027,5.97-0.004,11.941-0.004,19.142c65.126-38.501,128.655-76.059,193.164-114.195
	c-33.245-15.428-64.768-30.115-96.344-44.688c-16.247-7.499-23.805-20.711-25.583-37.918c-2.09-20.23-10.196-37.749-26.265-50.242
	c-9.767-7.593-21.347-12.853-32.503-19.39c0.842-1.489,2.303-4.07,3.685-6.514c32.484,6.827,60.636,36.905,64.084,69.441
	c2.1,19.816,11.155,32.756,29.973,40.337c21.125,8.51,41.475,18.935,62.208,28.428c6.514,2.983,13.175,5.647,22.119,9.459
	c-65.395-108.702-129.348-215.004-193.3-321.307c-1.768,2.261-1.9,3.752-1.899,5.244c0.026,40.298,0.122,80.596,0.055,120.894
	c-0.014,8.362-0.06,16.792-1.076,25.07c-2.314,18.848-16.885,27.023-31.729,34.422c-13.219,6.588-26.008,14.127-33.131,27.253
	c-6.938,12.785-11.614,26.798-17.431,40.622C171.761,287.338,169.163,286.631,166.138,285.809z"/>
</svg>
