<?xml version="1.0" encoding="utf-8"?>
<!-- Generator: Adobe Illustrator 26.0.0, SVG Export Plug-In . SVG Version: 6.00 Build 0)  -->
<svg version="1.1" id="rep" xmlns="http://www.w3.org/2000/svg" xmlns:xlink="http://www.w3.org/1999/xlink" x="0px" y="0px"
	 viewBox="0 0 500 500" style="enable-background:new 0 0 500 500;" xml:space="preserve">
<style type="text/css">
	.st0{fill-rule:evenodd;clip-rule:evenodd;}
</style>
<path class="st0" d="M249.8,4C114.1,4,4.1,114,4.1,249.7s110,245.7,245.7,245.7s245.7-110,245.7-245.7S385.5,4,249.8,4z
	 M156.7,223.5L234,94.2c1.4-2.4,4-3.9,6.8-3.9H259c2.8,0,5.3,1.5,6.8,3.9L343,223.5c1.1,1.9,0.5,4.2-1.3,5.4l-20,12.8
	c-1.9,1.2-4.3,0.6-5.5-1.3l-64.7-108.2c-0.8-1.3-2.6-1.3-3.4,0l-64.7,108.2c-1.1,1.9-3.6,2.5-5.5,1.3l-20-12.8
	C156.1,227.7,155.5,225.3,156.7,223.5z M391.7,319.7l-137.6,88.1c-2.6,1.7-6,1.7-8.6,0l-137.6-88.1c-3.6-2.2-4.7-7-2.5-10.7l31-51.5
	c1.1-1.9,3.6-2.5,5.5-1.3l20,12.8c1.8,1.2,2.4,3.6,1.3,5.4l-17.6,29.4c-0.6,1-0.3,2.1,0.6,2.7l102.7,65.8c0.6,0.4,1.5,0.4,2.1,0
	l102.6-65.8c0.9-0.6,1.1-1.8,0.6-2.7l-17.6-29.4c-1.1-1.9-0.5-4.2,1.3-5.4l20-12.8c1.9-1.2,4.3-0.6,5.5,1.3l30.8,51.5
	C396.4,312.7,395.3,317.4,391.7,319.7z"/>
</svg>
