<?xml version="1.0" encoding="iso-8859-1"?>
<!-- Generator: Adobe Illustrator 19.0.0, SVG Export Plug-In . SVG Version: 6.00 Build 0)  -->
<svg version="1.1" id="Layer_1" xmlns="http://www.w3.org/2000/svg" xmlns:xlink="http://www.w3.org/1999/xlink" x="0px" y="0px"
	 viewBox="0 0 500 500" style="enable-background:new 0 0 500 500;" xml:space="preserve">
<path d="M320.206,278.09c9.715,12.064,19.294,24.135,29.083,36.033c4.095,4.977,6.951,10.193,7.157,16.855
	c0.505,16.323-14.907,27.725-29.922,21.104c-5.763-2.542-11.111-7.253-15.179-12.187c-14.504-17.59-28.376-35.7-42.696-53.879
	c-11.451,0-22.757,0-35.467,0c0,5.429,0.054,10.465-0.011,15.499c-0.139,10.672,0.137,21.378-0.648,32.004
	c-0.801,10.836-9.647,19.281-19.966,20.35c-9.715,1.006-19.776-5.303-23.324-15.021c-0.973-2.667-1.245-5.716-1.25-8.59
	c-0.087-53.79-0.14-107.579-0.061-161.369c0.019-12.776,9.208-22.419,22.117-22.57c26.522-0.309,53.056-0.381,79.574,0.101
	c12.977,0.236,25.533,3.648,37.04,9.824c24.116,12.944,33.174,34.338,32.579,60.529c-0.581,25.549-11.432,45.236-34.536,57.394
	c-0.969,0.51-1.911,1.079-2.828,1.68C321.586,276.031,321.433,276.411,320.206,278.09z M311.503,226.569
	c0.131-1.391,0.287-2.847,0.404-4.307c1.773-22.074-9.08-33.988-31.087-34.063c-12.837-0.044-25.675-0.065-38.511,0.039
	c-2.791,0.023-5.577,0.623-8.533,0.977c0,18.609,0,36.416,0,54.05c1.621,0.719,2.611,1.54,3.603,1.542
	c15.764,0.029,31.551,0.452,47.284-0.262C296.293,244.017,305.748,238.704,311.503,226.569z M40.323,284.579
	c-5.453-6.348-10.741-12.848-16.423-18.984c-3.223-3.48-7.09-6.364-10.459-9.333c0-14.617,0-28.158,0-41.561
	c5.98-7.62,14.94-9.631,21.728-13.285c2.732-9.846,4.993-19.03,7.885-28.01c1.622-5.036,5.01-9.144,10.542-10.384
	c1.781-0.399,3.841,0.447,7.082,0.91c5.183-9.866,10.875-20.702,16.841-32.057c3.311,1.562,5.464,2.577,7.983,3.765
	c-0.489,2.934-0.9,5.397-1.311,7.861c-0.848,1.664-1.696,3.327-2.544,4.991c-5.519,10.22-11.038,20.44-16.387,30.346
	c-6.246-0.492-8.03-3.656-8.434-9.044c-6.176,8.886-9.991,17.623-10.496,28.808c6.259,0.535,11.212,0.958,16.321,1.395
	c3.644-10.373,7.01-19.958,10.614-30.217c6.339,4.655,6.454,9.818,4.687,15.384c-1.993,6.28-4.157,12.505-6.343,19.042
	c4.242,3.433,8.168,6.611,12.452,10.078c0,13.256,0,26.413,0,40.632c-6.934,7.064-14.444,14.591-21.8,22.265
	c-3.249,3.389-6.187,7.077-9.266,10.63c0,0,0.36-0.324,0.36-0.324c-4.161-0.711-8.323-1.422-12.485-2.132L40.323,284.579z
	 M55.495,220.574c-2.93-1.337-5.2-2.373-8.125-3.708c-2.435,1.991-4.858,3.972-6.976,5.704c3.202,10.709,4.213,11.204,14.687,7.262
	C55.204,227.069,55.344,223.94,55.495,220.574z M48.848,275.262c1.517-3.339,2.263-4.982,3.737-8.227
	c-3.729,0.874-5.745,1.346-8.893,2.084C45.567,271.353,46.594,272.577,48.848,275.262z M72.04,252.414
	c-0.111-0.784-0.222-1.568-0.333-2.353c-1.355,0.251-2.709,0.503-4.064,0.754c0.071,0.533,0.143,1.066,0.214,1.599
	C69.252,252.414,70.646,252.414,72.04,252.414z M27.973,249.995c-1.433,0.672-2.259,1.059-3.694,1.732
	c1.253,1.059,2.138,1.806,3.969,3.354C28.12,252.717,28.058,251.568,27.973,249.995z M25.945,284.648
	C8.999,294.387,1.232,308.76,2.06,328.4c0.832,19.749,15.908,38.844,35.019,43.028c22.755,4.981,44.491-5.13,53.402-24.774
	c6.45-14.218,5.748-29.364,5.655-44.383c-0.019-3.117-1.02-6.68-6.722-7.595c-2.009,3.057-4.916,6.326-6.512,10.144
	c-3.67,8.777-6.484,17.909-10.047,26.734c-4.243,10.509-14.325,15.276-23.973,11.771c-13.963-5.072-17.796-19.769-7.854-31.07
	c4.357-4.953,9.441-9.258,14.002-14.041c2.996-3.142,5.991-6.49,4.398-11.988c-2.394,0.589-4.414,1.086-6.433,1.583l0.36-0.324
	c-1.593,1.211-3.185,2.422-5.324,4.049c-2.566-2.216-4.863-4.198-7.16-6.181l-0.547-0.773
	C35.511,281.087,30.873,281.816,25.945,284.648z M126.299,425.135c0.258-6.295,3.799-9.668,11.569-10.951
	c5.87,4.077,12.666,8.798,20.681,14.365c-5.24,0.42-10.908-2.431-12.358,5.718c1.02,1.391,2.658,3.625,4.296,5.859
	c9.975,4.537,19.949,9.074,30.331,13.797c-2.019,1.589-3.261,2.566-4.511,3.549c1.067,6.389,3.942,10.816,9.625,12.895
	c6.199,2.268,12.477,4.351,18.807,6.224c6.548,1.938,12.072,0.575,16.941-6.579c-11.825-5.065-24.959-2.958-34.834-10.567
	c2.201-3.024,4.225-5.805,6.455-8.869c-8.129-9.055-19.602-11.068-26.838-15.936c-1.927-6.097-2.026-11.634-4.844-14.331
	c-7.833-7.496-15.794-15.431-26.627-17.539c-17.099,5.268-20.618,11.535-16.549,30.359c6.269,4.497,13.134,10.078,20.645,14.582
	c5.118,3.069,11.11,4.396,15.555-1.375c-1.412-2.352-2.656-4.426-3.901-6.5C140.74,438.597,134.879,435.096,126.299,425.135z
	 M409.099,417.01c-1.47,2.715-2.344,6.123-4.532,8.002c-4.67,4.012-10.02,7.232-16.145,11.512c-0.655-2.828-0.81-4.821-1.593-6.525
	c-0.869-1.892-2.311-3.522-3.519-5.288c-3.608,0.878-6.753,1.643-9.898,2.408c0,0,0.353-0.199,0.353-0.199
	c-6.406,3.922-12.811,7.844-19.217,11.765c-4.641-3.498-9.234-6.397-13.246-5.74c-8.21,1.343-16.3,4.122-24.049,7.27
	c-3.657,1.485-7.736,4.63-4.53,10.746c10.275-3.207,20.266-6.326,32.273-10.074c-3.39,5.539-5.049,9.156,0.607,12.769
	c11.43-1.256,20.294-11.137,32.289-13.888c1.799,1.562,3.691,3.205,5.725,4.97c15.748,0.87,23.861-11.078,33.824-18.553
	c0-4.63,0-8.114,0-11.806c-3.258,0.909-5.691,1.588-8.123,2.267C409.319,416.646,409.099,417.01,409.099,417.01z M448.241,179.157
	c1.989,5.126,3.17,10.571,5.247,15.655c1.764,4.317,4.184,8.46,10.724,8.566c-0.138-2.585,0.145-4.767-0.429-6.695
	c-2.301-7.736-4.898-15.383-7.295-23.091c-0.292-0.938-0.04-2.046-0.04-3.311c2.322,1.069,4.215,1.941,8.194,3.774
	c1.695-1.545,3.706-3.379,5.534-5.045c-6.549-12.353-11.835-22.324-17.574-33.151c2.642-1.666,5.135-3.239,6.887-4.344
	c0-3.022,0.261-4.534-0.041-5.924c-2.544-11.728-10.39-20.088-18.793-27.723c-2.997-2.723-7.927-4.186-12.292,0.792
	c7.578,8.773,17.755,15.623,20.495,27.002c-3.677,1.805-6.868,3.371-10.841,5.321c5.177,10.401,9.717,19.521,14.922,29.978
	C445.344,165.462,445.416,171.879,448.241,179.157z M106.306,115.033c4.664-5.75,9.327-11.5,13.935-17.182
	c2.952,2.011,4.661,3.176,6.992,4.764c13.501-5.198,25.815-11.571,32.016-26.398c-2.29-1.284-3.533-1.98-4.775-2.676l0.427-0.384
	c-8.251,7.4-16.828,14.328-27.247,19.579c1.102-8.786,1.102-8.786-9.244-11.102c-6.303,7.457-13.627,16.122-20.671,24.456
	c-8.506-5.215-12.406-5.294-17.672,0.489c-5.164,5.671-9.711,11.981-13.95,18.393c-3.156,4.773-2.925,10.054,0.849,17.307
	c8.192-10.305,10.642-23.259,21.651-29.339c2.081,2.631,3.972,5.022,6.22,7.865c4.226-2.166,8.012-4.107,11.799-6.048
	C106.637,114.756,106.306,115.033,106.306,115.033z M430.328,394.597c8.024,4.485,12.784,4.907,17.328-0.459
	c5.88-6.943,10.745-14.803,15.55-22.576c2.795-4.522,1.276-8.866-3.105-13.487c-6.84,10.135-9.952,22.12-20.96,29.465
	c-1.849-3.361-3.569-6.485-5.997-10.897c-10.179,9.985-17.937,17.595-25.681,25.191c-2.26-1.393-4.384-2.702-7.128-4.394
	c-12.852,5.317-24.788,11.511-31.418,25.37c2.117,1.795,3.482,2.953,4.847,4.111l-0.353,0.199
	c9.195-7.288,18.39-14.577,27.585-21.865c-0.538,4.427-4.63,7.842,0.869,12.707c1.752-0.231,4.493-0.591,7.234-0.952
	c0,0,0.22-0.364,0.22-0.364C416.374,409.242,423.429,401.837,430.328,394.597z M398.116,91.086
	c-9.32-6.159-18.641-12.318-27.961-18.477c5.09-0.683,9.803,0.198,11.062-7.021c-0.87-1.477-2.13-3.617-3.39-5.757
	c0,0,0.427,0.311,0.427,0.311c-10.468-4.643-20.937-9.286-31.968-14.179c2.501-1.679,3.937-2.643,5.444-3.655
	c-1.324-5.863-3.889-10.127-9.172-12.099c-6.524-2.436-13.08-4.852-19.767-6.77c-6.959-1.997-10.708-0.153-15.87,7.374
	c11.597,3.537,24.252,2.983,34.435,10.161c-2.182,3.001-4.21,5.791-6.464,8.891c8.161,8.953,19.559,11.011,27.639,16.374
	c1.111,5.097,0.681,10.392,3.122,12.966c7.284,7.678,15.566,14.523,26.051,17.697c1.571,0.476,3.481-0.169,5.528-0.317
	c0.189-2.334,0.331-4.088,0.472-5.843C397.704,90.74,398.116,91.086,398.116,91.086z M303.455,45.646
	c-1.664,4.952,0.338,8.698,4.659,10.964c9.502,4.985,19.421,8.836,30.45,7.666c1.638-0.174,3.1-2.001,6.342-4.231
	c-12.521-4.458-23.187-8.256-34.495-12.282c2.848-0.916,4.874-1.568,7.333-2.359c0-3.034,0-5.721,0-9.107
	c-12.487-2.08-24.364-4.059-36.252-6.039c0.387-1.726,0.82-3.657,1.194-5.323c-2.902-4.712-6.464-7.722-11.73-7.793
	c-7.714-0.103-15.459-0.344-23.137,0.211c-5.762,0.416-10.315,3.164-11.182,11.647c12.419-2.039,24.22-3.894,35.939-1.473
	c-1.141,3.702-2.153,6.986-3.602,11.685C281.345,41.52,292.379,43.579,303.455,45.646z M154.474,73.541
	c6.249-4.074,12.497-8.149,19.091-12.448c4.684,5.729,10.002,7.764,16.183,6.119c6.334-1.686,12.733-3.404,18.735-5.97
	c4.373-1.869,9.287-4.387,7.795-12.127c-10.882,3.218-21.105,6.242-31.286,9.253c0-4.558,0-7.777,0-12.422
	c-13.891,1.894-23.052,11.793-35.337,14.876c-1.566-1.654-3.248-3.431-5.289-5.588c-3.553,0.456-7.775-0.141-10.579,1.577
	c-7.455,4.568-14.715,9.67-21.207,15.502c-3.2,2.874-5.816,7.621-2.57,12.719c5.367,0.756,7.036-3.576,9.819-6.208
	c6.224-5.887,12.429-11.826,20.189-14.379c1.62,4.512,2.833,7.889,3.982,11.087c4.604-1.002,7.753-1.688,10.902-2.373
	L154.474,73.541z M224.929,454.979c1.498-6.609-2.01-10.403-6.895-12.503c-6.366-2.737-13.037-5.026-19.797-6.494
	c-4.244-0.922-9.347-2.033-14.212,3.518c10.584,6.556,22.553,7.597,32.814,12.959c-4.324,1.335-9.037,2.24-8.034,8.824
	c4.501,6.146,11.985,3.518,18.063,5.185c6.257,1.716,12.816,2.331,19.192,3.419c-0.421,8.693,2.523,12.426,10.872,12.93
	c7.334,0.443,14.722,0.387,22.068,0.103c6.42-0.249,10.772-3.452,12.761-11.641c-12.751,1.432-24.549,4.347-36.789,1.186
	c1.467-3.139,2.663-5.698,4.787-10.242C247.861,456.67,235.974,457.03,224.929,454.979z M484.177,269.383
	c6.324-0.037,10.605-3.387,13.128-9.912c0-9.018,0-18.575,0-29.363c-2.522-2.255-5.539-4.953-10.556-9.438
	c0.786,14.314,1.412,25.735,2.086,38.012c-4.931-1.265-8.297-2.128-12.73-3.265c-4.919,10.513-3.956,21.679-6.099,32.676
	c-8.502-0.343-12.986,4.497-15.083,12.427c-1.403,5.306-3.428,10.445-4.894,15.737c-1.296,4.68-1.255,9.213,3.32,13.408
	c4.185-4.831,5.453-10.024,6.943-15.301c1.561-5.528,4.058-10.791,6.431-16.908c1.357,2.731,1.882,4.562,3.026,5.841
	c0.888,0.994,2.546,1.299,5.549,2.693C482.667,294.343,480.254,281.248,484.177,269.383z M313.808,464.76
	c2.362,7.39,7.739,10.642,14.946,9.131c7.497-1.572,14.926-3.798,22.094-6.505c6.026-2.276,7.653-6.33,6.891-14.564
	c-12.194,4.612-22.919,14.118-37.165,10.945c4.834-4.015,4.834-4.015,2.041-10.988c-10.18,1.139-20.633,2.309-30.409,3.404
	c-3.28-3.494-5.972-6.361-8.743-9.313c-8.882,0-17.317-0.156-25.743,0.059c-4.99,0.128-9.227,1.818-10.883,8.947
	c12.396,0,24.095,0,38.315,0c-4.488,2.869-6.565,4.196-8.873,5.672c0.284,2.288,0.54,4.35,1.089,8.772
	C290.212,468.359,301.689,466.609,313.808,464.76z M243.613,44.376c3.841-3.17,6.164-5.087,8.756-7.226
	c-1.18-2.36-2.106-4.212-3.478-6.956c-11.417,1.696-22.58,3.353-32.783,4.868c-3.562-3.266-5.996-6.765-9.334-8.312
	c-8.559-3.967-33.235,6.058-37.549,14.745c-0.598,1.205-0.78,2.616-1.646,5.66c14.444-2.762,25.378-14.825,40.099-10.636
	c-5.055,2.053-6.151,5.258-2.681,10.866c10.406-1.133,20.883-2.275,32.142-3.501c3.357,11.252,12.613,9.643,20.994,9.365
	c7.969-0.264,17.159,2.749,24.12-8.874C268.718,44.376,257.042,44.376,243.613,44.376z M377.827,59.831
	c10.473,0.445,16.61,7.897,24.314,14.51c-3.148,2.549-5.755,4.66-8.769,7.1c1.686,3.427,3.215,6.535,4.745,9.644l-0.412-0.345
	c1.754,1.01,3.758,1.746,5.215,3.08c4.984,4.561,9.775,9.332,14.639,14.022c0.818,1.725,1.635,3.45,2.453,5.174
	c9.933,3.194,9.933,3.194,13.375-5.403c-8.501-8.168-17.393-16.712-26.437-25.401c1.805-1.039,2.948-1.698,4.092-2.354
	c0.819-8.559,0.872-9.987-3.697-13.785c-6.163-5.124-12.707-9.848-19.425-14.224c-5.113-3.331-10.259-2.948-14.806,2.293
	c1.88,2.195,3.509,4.098,5.139,6L377.827,59.831z M444.503,353.688c-0.654,3.149-1.308,6.299-2.182,10.505
	c2.486,1.237,5.05,2.513,8.214,4.087c6.656-12.513,12.625-23.734,18.837-35.413c1.275,2.354,1.937,3.576,2.588,4.779
	c7.406-1.116,11.447-5.535,13.651-11.823c1.937-5.526,3.719-11.119,5.26-16.767c1.954-7.167,0.276-11.172-6.819-15.937
	c-3.946,11.762-2.215,25.488-11.208,34.264c-2.975-2.632-5.456-4.827-8.796-7.781c-7.139,12.413-13.46,23.404-19.78,34.395
	L444.503,353.688z M480.08,199.542c-1.362-3.295-2.724-6.59-3.886-9.399c-4.888-2.645-7.56-1.1-9.314,3.599
	c1.433,9.323,2.925,19.03,4.461,29.025c-5.411,2.633-9.577,5.42-9.463,11.575c0.143,7.724-0.27,15.46-0.039,23.179
	c0.137,4.577,1.723,8.577,8.644,9.628c0-12.814,0-25.013,0-37.212c0.513-0.041,1.026-0.082,1.539-0.123
	c0.839,2.312,1.678,4.624,2.4,6.611c5.985,3.061,8.714,0.553,9.692-2.69c-1.606-12.724-2.979-23.598-4.351-34.471
	C479.762,199.264,480.08,199.542,480.08,199.542z M479.762,199.264c7.548-2.909,9.951-5.324,8.598-12.652
	c-1.515-8.198-4.256-16.276-7.401-24.027c-1.928-4.751-5.954-8.158-12.736-7.162c0.285,2.298-0.041,4.349,0.793,5.664
	c7.462,11.763,10.617,24.705,11.063,38.455L479.762,199.264z M93.277,148.378c7.423-8.429,15.558-16.645,17.686-28.977
	c-1.593-1.494-3.125-2.931-4.657-4.368l0.331-0.277c-3.909,5.581-7.627,11.308-11.787,16.695c-3.27,4.235-7.085,8.049-10.658,12.05
	c-0.848,1.664-1.696,3.327-2.544,4.991C85.567,152.718,90.214,151.856,93.277,148.378z M444.267,353.995c0-1.353,0-2.707,0-4.836
	c-12.439-0.003-15.765,10.183-21.201,17.177c-6.388,8.22-6.05,8.844-2.837,18.651c9.496-9.986,15.769-21.568,24.273-31.299
	L444.267,353.995z M411.556,113.651c3.529,11.177,10.463,19.204,17.177,27.29c2.801,3.373,6.749,4.102,12,1.61
	c-7.005-9.985-13.863-19.759-20.72-29.534c-0.818-1.725-1.636-3.45-2.453-5.174C415.545,109.791,413.531,111.74,411.556,113.651z"/>
</svg>
