<?xml version="1.0" encoding="utf-8"?>
<!-- Generator: Adobe Illustrator 25.1.0, SVG Export Plug-In . SVG Version: 6.00 Build 0)  -->
<svg version="1.1" id="req" xmlns="http://www.w3.org/2000/svg" xmlns:xlink="http://www.w3.org/1999/xlink" x="0px" y="0px"
	 viewBox="0 0 500 500" style="enable-background:new 0 0 500 500;" xml:space="preserve">
<path d="M465.6,412.8L334.7,281.9l126.6-128.3c3.8-3.9,6.8-8.4,8.8-13.4c2-5,3.1-10.3,3.1-15.7V20.3c0-5-2-9.6-5.3-12.8
	c-3.3-3.3-7.8-5.3-12.8-5.3H72C42.9,2.2,19.2,25.9,19.2,55v392c0,28.2,23,51,51.1,50.8c27.9-0.3,50.4-22.9,50.4-50.8V98.3L376.5,98
	L225.6,247.4c-18.6,18.5-18.6,48.5-0.1,67l169.2,169.3c19.6,19.6,51.3,19.6,70.9,0C485.2,464.1,485.2,432.4,465.6,412.8z"/>
</svg>
