<?xml version="1.0" encoding="iso-8859-1"?>
<!-- Generator: Adobe Illustrator 19.0.0, SVG Export Plug-In . SVG Version: 6.00 Build 0)  -->
<svg version="1.1" id="Layer_1" xmlns="http://www.w3.org/2000/svg" xmlns:xlink="http://www.w3.org/1999/xlink" x="0px" y="0px"
	 viewBox="0 0 500 500" style="enable-background:new 0 0 500 500;" xml:space="preserve">
<path id="XMLID_4_" d="M260.706,264.664c41.007,68.076,80.447,133.553,120.312,199.734c-11.203,6.805-22.061,13.4-33.937,20.615
	c-51.743-85.989-103.318-171.699-155.793-258.905c6.495,0,11.306-0.001,16.117,0c29.56,0.006,59.12,0.06,88.679,0.006
	c39.628-0.072,76.042-27.778,84.062-63.866c9.632-43.343-8.111-82.045-46.143-100.57c-13.557-6.603-28.071-8.35-42.93-8.33
	c-63.771,0.084-127.542,0.15-191.312,0.222c-1.611,0.002-3.222,0-5.429,0c0-12.893,0-25.392,0-38.555
	c1.234-0.216,3.007-0.797,4.779-0.796c68.968,0.016,137.947-0.664,206.9,0.395c51.324,0.788,100.277,41.084,112.029,91.052
	c11.46,48.728,1.193,92.135-36.2,126.973c-20.507,19.106-45.042,30.653-73.48,31.907
	C293.371,265.208,278.329,264.664,260.706,264.664z"/>
</svg>
