<?xml version="1.0" encoding="iso-8859-1"?>
<!-- Generator: Adobe Illustrator 19.0.0, SVG Export Plug-In . SVG Version: 6.00 Build 0)  -->
<svg version="1.1" id="Layer_1" xmlns="http://www.w3.org/2000/svg" xmlns:xlink="http://www.w3.org/1999/xlink" x="0px" y="0px"
	 viewBox="0 0 2000 2000" style="enable-background:new 0 0 2000 2000;" xml:space="preserve">
<path d="M1538.521,1412.198c-220.224-221.019-452.5-454.134-685.351-687.825c47.629-45.695,101.356-97.24,153.223-147
	c226.692,227.841,458.166,460.489,690.004,693.502C1648.445,1313.799,1592.992,1363.439,1538.521,1412.198z M1012.718,26.234
	c-53.821,49-109.011,99.246-156.114,142.13c233.015,234.733,464.583,468.008,695.231,700.356
	c50.308-50.46,102.204-102.514,150.754-151.211C1471.113,485.564,1237.774,251.749,1012.718,26.234z M449.237,575.665
	c-50.091,50.655-101.918,103.066-149.568,151.252c230.242,232.302,462.275,466.411,695.921,702.148
	c52.993-54.386,104.298-107.04,148.685-152.594C911.425,1041.688,679.362,807.7,449.237,575.665z M987.105,1977.452
	c51.971-52.397,105.885-106.752,151.093-152.33c-226.952-228.335-459.782-462.585-692.126-696.344
	c-47.723,48.763-98.266,100.407-153.169,156.506C523.522,1515.227,756.234,1747.257,987.105,1977.452z M581.872,449.196
	c48.89,50.007,99.32,101.589,149.531,152.948c50.922-51.101,101.162-101.517,150.438-150.966
	c-49.8-50.948-99.599-101.893-149.821-153.272C679.566,350.759,629.483,401.223,581.872,449.196z M23.263,1000.711
	c50.678,52.683,100.848,104.839,150.931,156.903c51.054-51.755,101.662-103.058,149.694-151.75
	c-49.3-50.749-98.819-101.724-151.501-155.955C119.793,903.095,68.945,954.516,23.263,1000.711z M1676.244,988.83
	c50.929,52.319,101.136,103.896,144.748,148.697c53.661-49.744,106.521-98.746,156.822-145.375
	c-50.266-52.021-99.7-103.18-147.905-153.068C1775.75,891.863,1724.946,941.371,1676.244,988.83z M1410.436,1546.963
	c-45.995-48.798-94.617-100.383-143.942-152.713c-49.567,50.179-99.69,100.921-150.54,152.399
	c50.681,50.605,101.062,100.911,145.554,145.336C1315.987,1638.935,1367.969,1588.317,1410.436,1546.963z"/>
</svg>
