<?xml version="1.0" encoding="iso-8859-1"?>
<!-- Generator: Adobe Illustrator 19.0.0, SVG Export Plug-In . SVG Version: 6.00 Build 0)  -->
<svg version="1.1" id="Layer_1" xmlns="http://www.w3.org/2000/svg" xmlns:xlink="http://www.w3.org/1999/xlink" x="0px" y="0px"
	 viewBox="0 0 500 500" style="enable-background:new 0 0 500 500;" xml:space="preserve">
<path id="XMLID_4_" d="M251.509,9.984c129.25,0.556,239.265,103.219,239.429,239.538c0.163,134.917-106.976,239.822-238.553,240.323
	C118.418,490.354,11.33,383.689,11.688,249.199C12.048,113.904,121.304,10.386,251.509,9.984z M188.798,188.743
	c1.54-1.196,2.729-2.258,4.047-3.121c20.945-13.714,43.341-23.71,68.435-26.942c6.705-0.864,8.311-2.554,8.593-9.205
	c0.287-6.793,0.16-13.613-0.054-20.413c-0.116-3.677-2.237-5.903-6.096-5.979c-1.998-0.04-4.033-0.08-5.995,0.236
	c-25.115,4.042-48.767,12.031-70.131,26.156c-3.21,2.123-6.504,4.12-9.781,6.189c-13.584-17.043-30.237-24.79-51.672-23.763
	c-20.492,0.982-50.317,19.014-52.331,52.067c-1.653,27.128-0.554,54.43-0.471,81.654c0.021,6.928,1.403,7.952,8.685,8.291
	c3.197,0.149,6.405,0.064,9.608,0.064c65.263-0.013,130.526-0.029,195.789-0.045c4.299-0.001,8.597,0,13.684,0
	c0,17.385,0,33.617,0,50.188c-22.007,14.999-45.807,25.65-72.386,29.584c-7.424,1.099-8.168,1.72-8.398,8.784
	c-0.195,5.999-0.186,12.015-0.003,18.015c0.233,7.619,2.329,9.567,9.348,8.569c27.228-3.872,52.819-12.178,75.506-28.233
	c2.168-1.534,4.431-2.934,6.68-4.417c1.811,2.116,3.057,3.67,4.404,5.131c25.001,27.12,65.857,24.385,87.407-2.589
	c8.785-10.996,13.312-23.544,13.329-37.651c0.027-22.822,0.027-45.644,0.013-68.466c-0.009-14.345-0.029-14.354-14.664-14.355
	c-66.865-0.002-133.729,0.035-200.594-0.075c-4.176-0.007-8.784,1.572-12.952-2.049
	C188.798,220.923,188.798,205.339,188.798,188.743z M160.067,233.586c0.053-13.159,0.254-26.323,0.003-39.477
	c-0.287-15.094-11.362-26.8-25.838-27.827c-13.952-0.99-27.706,9.854-28.785,24.665c-1.119,15.355-0.249,30.856-0.249,46.837
	c18.388,0,35.787,0,54.104,0C159.669,235.838,160.062,234.712,160.067,233.586z M330.689,322.936
	c1.319,16.849,21.63,27.638,37.055,20.88c12.628-5.533,17.031-16.16,17.369-28.964c0.285-10.786,0.122-21.587,0.023-32.379
	c-0.024-2.63-0.572-5.256-0.866-7.775c-18.226,0-35.663,0-53.847,0C330.424,291.193,329.453,307.151,330.689,322.936z"/>
</svg>
