<?xml version="1.0" encoding="iso-8859-1"?>
<!-- Generator: Adobe Illustrator 19.0.0, SVG Export Plug-In . SVG Version: 6.00 Build 0)  -->
<svg version="1.1" id="Layer_1" xmlns="http://www.w3.org/2000/svg" xmlns:xlink="http://www.w3.org/1999/xlink" x="0px" y="0px"
	 viewBox="0 0 2000 2000" style="enable-background:new 0 0 2000 2000;" xml:space="preserve">
<path d="M21.96,999.048c0.191-540.986,438.379-978.11,980.191-977.81c541.793,0.299,977.918,438.774,977.388,982.654
	c-0.525,538.969-439.803,975.443-981.206,974.941C458.654,1978.332,21.769,1539.92,21.96,999.048z M800.618,1126.853
	c3.387-7.035,5.003-10.658,6.84-14.166c57.832-110.477,129.172-210.979,220.203-296.78
	c80.687-76.051,171.192-134.475,283.824-148.816c55.333-7.045,110.038-2.83,154.58,36.813
	c18.609,16.562,33.772,36.937,51.786,54.242c15.378,14.773,30.99,36.206,49.314,39.632c43.857,8.2,89.158,4.701,129.128-19.827
	c15.059-9.242,24.273-23.54,20.484-42.886c-19.46-99.353-100.269-164.462-202.148-171.12
	c-115.347-7.538-222.35,22.26-320.442,82.354c-57.048,34.95-111.6,73.953-168.286,109.522
	c-45.322,28.439-92.865,46.499-149.345,36.726c-94.672-16.381-180.683-132.904-128.8-234.045
	c32.216-62.802,76.746-112.028,150.1-133.518c-17.167-13.03-33.96-13.87-51.267-10.519
	c-75.415,14.598-133.659,56.664-181.428,114.874c-20.132,24.532-35.843,52.386-34.962,84.572
	c2.232,81.526,33.27,148.132,106.798,190.22c37.48,21.454,77.179,33.776,121.031,33.096c16.062-0.249,35.975-3.582,44.993,19.273
	c-64.578,90.329-128.941,180.357-193.47,270.618c-79.874,0-158.477,0-237.552,0c0,17.167,0,33.044,0,51.007
	c67.478,0,133.685,0,204.232,0c-20.837,31.241-39.359,59.011-58.34,87.47c-68.061,0-135.068,0-202.511,0c0,16.773,0,31.81,0,49.075
	c56.925,0,112.093,0,170.148,0c-44.297,70.095-86.744,137.262-130.355,206.272c157.554,0,310.779,0,466.982,0
	c-25.207-15.459-48.211-28.888-70.515-43.391c-43.181-28.077-81.128-61.574-101.538-110.294
	c-6.691-15.973-8.849-33.845-13.865-54.003c65.603,0,125.704,0,185.455,0c0-17.282,0-32.433,0-48.68c-58.54,0-115.503,0-177.571,0
	c10.787-30.417,20.651-58.229,30.808-86.87c68.484,0,134.118,0,200.85,0c0-17.806,0-33.685,0-50.848
	C917.582,1126.853,860.693,1126.853,800.618,1126.853z"/>
</svg>
