<?xml version="1.0" encoding="iso-8859-1"?>
<!-- Generator: Adobe Illustrator 19.0.0, SVG Export Plug-In . SVG Version: 6.00 Build 0)  -->
<svg version="1.1" id="Layer_1" xmlns="http://www.w3.org/2000/svg" xmlns:xlink="http://www.w3.org/1999/xlink" x="0px" y="0px"
	 viewBox="0 0 500 500" enable-background="new 0 0 500 500" xml:space="preserve">
<path d="M367.586,324.501c-0.308,10.509-4.688,19.931-13.784,26.907c-59.225,45.416-118.484,90.787-177.724,136.184
	c-21.081,16.155-51.867,4.188-55.893-21.941c-2.046-13.277,2.229-24.604,12.816-33.017c12.013-9.547,24.328-18.714,36.511-28.047
	c47.273-36.214,94.515-72.467,141.833-108.623c19.037-14.546,46.347-6.383,54.282,16.059
	C366.954,315.777,367.544,319.651,367.586,324.501z M367.149,36.564c-3.927-26.245-34.724-38.622-55.765-22.47
	c-31.269,24.003-62.579,47.952-93.871,71.924c-27.997,21.447-56.039,42.834-83.968,64.369c-10.489,8.088-15.077,19.02-13.512,32.145
	c3.182,26.689,34.149,39.785,55.584,23.558c17.767-13.45,35.402-27.076,53.093-40.628c41.766-31.994,83.549-63.966,125.28-96.006
	c9.049-6.948,13.303-16.398,13.64-28.138C367.5,40.008,367.405,38.274,367.149,36.564z M311.11,153.838
	c-20.812,15.958-41.635,31.903-62.454,47.852c-38.427,29.437-76.885,58.832-115.259,88.336
	c-9.944,7.646-14.396,18.049-13.567,30.501c1.521,22.853,25.22,37.98,46.739,30.062c5.291-1.947,9.602-5.343,13.981-8.698
	c41.884-32.096,83.774-64.184,125.663-96.273c15.855-12.145,31.76-24.225,47.55-36.454c9.749-7.55,14.31-17.657,13.692-29.968
	c-0.923-18.37-16.187-32.715-36.245-32.749C324.714,146.475,317.504,148.936,311.11,153.838z M119.674,41.471
	c-0.359,21.117,16.297,39.108,37.861,39.465c21.459,0.355,38.994-16.77,39.117-37.982C196.777,21.159,179.747,4,158.226,4
	C137.251,4,120.021,21.038,119.674,41.471z M329.728,417.893c-20.814-0.262-39.065,16.137-39.216,38.272
	c-0.146,21.422,17.079,38.713,38.388,38.764c21.279,0.051,38.56-17.158,38.572-38.41
	C367.484,435.421,350.403,418.153,329.728,417.893z"/>
</svg>
