<?xml version="1.0" encoding="iso-8859-1"?>
<!-- Generator: Adobe Illustrator 19.0.0, SVG Export Plug-In . SVG Version: 6.00 Build 0)  -->
<svg version="1.1" id="Layer_1" xmlns="http://www.w3.org/2000/svg" xmlns:xlink="http://www.w3.org/1999/xlink" x="0px" y="0px"
	 viewBox="0 0 2000 2000" style="enable-background:new 0 0 2000 2000;" xml:space="preserve">
<path d="M1962.155,991.248c0.636,526.075-429.9,972.716-985.422,960.648c-504.911-10.969-944.201-425.54-936.67-977.257
	c7.043-515.979,429.024-952.8,977.909-944.523C1535.3,37.916,1961.083,458.431,1962.155,991.248z M1593.719,1573.627
	c-150.208-168.698-297.926-334.599-446.423-501.376c10.791-1.883,19.718-3.604,28.698-4.982
	c94.876-14.558,160.365-68.632,198.681-154.302c41.85-93.572,49.729-192.465,33.877-293.173
	c-15.977-101.5-69.052-178.842-156.73-231.869c-30.357-18.36-61.386-36.945-98.813-36.894
	c-156.858,0.215-313.716,0.627-470.574,0.908c-53.329,0.095-106.658,0.015-159.987,0.015c-0.515,1.711-1.03,3.423-1.545,5.134
	c64.376,75.641,128.751,151.282,192.371,226.035c98.256,0,194.366,0,290.475,0c51.352,0,82.467,20.853,99.7,69.655
	c19.232,54.466,18.572,110.06,3.536,165.327c-13.57,49.876-40.672,69.85-91.723,69.696c-45.732-0.138-91.464-0.812-137.196-0.766
	c-89.971,0.09-179.942,0.517-269.913,0.8c-5.637,0.018-11.275,0.002-19.708,0.002c220.835,230.554,438.875,458.19,656.881,685.791
	C1360.326,1573.627,1474.996,1573.627,1593.719,1573.627z M649.961,1577.2c43.156-25.048,86.095-49.971,127.813-74.185
	c0-50.73,0-99.075,0-147.637c-43.222-24.901-85.811-49.436-128.083-73.79c-43.794,25.392-86.224,49.994-126.918,73.59
	c0,51.527,0,99.862,0,148.57C565.494,1528.421,607.564,1552.716,649.961,1577.2z M532.496,1367.48c0,42.765,0,82.776,0,124.033
	c36.344-21.017,70.797-40.941,107.656-62.256C602.804,1407.824,568.143,1387.935,532.496,1367.48z M644.43,1562.402
	c0-42.871,0-82.614,0-124.294c-36.322,21-70.727,40.892-107.988,62.435C573.725,1521.9,608.696,1541.932,644.43,1562.402z
	 M536.5,1358.462c37.804,21.64,72.388,41.436,108.768,62.261c0-43.124,0-82.539,0-125.333
	C607.877,1317.072,573.409,1337.059,536.5,1358.462z M659.864,1429.42c37.469,21.643,72.222,41.716,108.508,62.675
	c0-42.388,0-81.977,0-125.498C731.283,1388.071,696.68,1408.105,659.864,1429.42z M655.781,1420.297
	c36.878-21.324,71.538-41.366,107.357-62.078c-36.286-20.953-70.618-40.776-107.357-61.991
	C655.781,1338.784,655.781,1378.068,655.781,1420.297z M656.255,1562.187c36.514-21.109,71.004-41.047,106.859-61.775
	c-36.58-21.146-70.623-40.824-106.859-61.771C656.255,1480.336,656.255,1520.042,656.255,1562.187z"/>
</svg>
