<?xml version="1.0" encoding="iso-8859-1"?>
<!-- Generator: Adobe Illustrator 19.0.0, SVG Export Plug-In . SVG Version: 6.00 Build 0)  -->
<svg version="1.1" id="Layer_1" xmlns="http://www.w3.org/2000/svg" xmlns:xlink="http://www.w3.org/1999/xlink" x="0px" y="0px"
	 viewBox="0 0 500 500" enable-background="new 0 0 500 500" xml:space="preserve">
<path d="M307.358,157.002c-56.617-35.878-112.803-71.484-169.724-107.555c0,18.563,0,36.183,0,54.022c-29.028,0-57.625,0-86.529,0
	c0-32.707,0-65.122,0-97.858c1.594-0.09,3.012-0.241,4.43-0.24c48.166,0.02,96.334-0.166,144.499,0.163
	c31.903,0.218,63.402,4.04,93.9,13.898c28.362,9.168,53.8,23.27,73.701,45.992c18.429,21.042,28.547,45.601,31.016,73.533
	c1.966,22.238,0.154,43.931-7.009,65.105c-9.367,27.689-27.148,48.934-50.614,65.783c-15.219,10.927-31.859,19.127-49.361,25.671
	c-1.327,0.496-2.604,1.128-4.505,1.959c54.183,65.854,108.106,131.392,162.455,197.447c-41.906,0-83.215,0-125.167,0
	c-46.318-59.27-92.972-118.968-139.607-178.642c-10.892,0-21.698,0-32.938,0c0,59.544,0,118.91,0,178.626
	c-33.73,0-67.027,0-100.719,0c0-97.014,0-194.121,0-291.616c28.62,0,57.224,0,86.329,0c0,19.234,0,38.593,0,58.893
	C194.557,226.857,250.816,192.017,307.358,157.002z"/>
</svg>
