<?xml version="1.0" encoding="iso-8859-1"?>
<!-- Generator: Adobe Illustrator 19.0.0, SVG Export Plug-In . SVG Version: 6.00 Build 0)  -->
<svg version="1.1" id="Layer_1" xmlns="http://www.w3.org/2000/svg" xmlns:xlink="http://www.w3.org/1999/xlink" x="0px" y="0px"
	 viewBox="0 0 500 500" enable-background="new 0 0 500 500" xml:space="preserve">
<path d="M78.624,106.078c-0.798-3.236-2.915-7.946-2.968-12.679c-0.296-26.652-0.113-53.31-0.029-79.966
	c0.007-2.088,0.505-4.174,0.701-5.684c3.754-5.588,8.991-4.708,13.883-4.679c5.618,0.033,11.468-0.924,16.264,3.331
	c1.858,1.649,3.901,3.089,5.79,4.704c7.6,6.498,16.258,9.506,26.375,9.444c35.185-0.216,70.373-0.174,105.559-0.046
	c15.644,0.057,31.137,1.418,46.35,5.618c47.122,13.009,84.043,39.997,107.816,82.601c33.402,59.86,33.055,120.821,0.036,180.925
	c-14.065,25.602-34.229,46.028-59.118,61.601c-2.015,1.261-3.715,3.024-6.318,5.182c5.725,5.192,10.859,10.006,16.159,14.628
	c20.076,17.506,40.234,34.917,60.303,52.431c9.218,8.044,18.745,15.299,31.765,15.635c1.313,0.034,2.603,0.986,4.386,1.706
	c0.664,2.157,2.053,4.491,1.977,6.776c-0.449,13.477-1.117,26.95-2.031,40.403c-0.154,2.265-1.867,4.424-3.1,7.166
	c-3.312,0.245-6.43,0.69-9.545,0.672c-20.258-0.123-40.516-0.565-60.771-0.453c-11.732,0.064-20.944-4.151-29.458-12.297
	c-24.109-23.067-48.777-45.551-73.267-68.218c-17.192-15.913-34.652-31.542-51.635-47.674
	c-20.082-19.076-21.167-45.861-2.954-65.518c7.851-8.473,17.731-12.625,29.338-12.997c15.416-0.494,30.459-3.099,43.915-11.073
	c30.708-18.198,46.808-45.225,45.542-81.045c-1.229-34.794-18.295-60.562-48.918-77.001c-10.447-5.608-22.004-7.921-33.914-7.935
	c-50.825-0.063-101.649-0.116-152.474-0.112C91.847,111.523,85.427,111.789,78.624,106.078z M178.568,469.247
	c-3.238-4.218-6.111-8.728-8.991-13.208c-4.719-7.341-6.745-15.245-6.683-24.154c0.298-43.019,0.148-86.04,0.158-129.061
	c0.002-7.822-0.438-15.674,0.096-23.46c1.387-20.237,9.261-30.133,24.547-34.52c4.347-1.248,9.143-1.211,13.739-1.262
	c13.864-0.153,27.734,0.091,41.597-0.137c5.286-0.087,10.662-0.56,15.818-1.679c17.024-3.695,30.107-19.7,32.011-36.975
	c2.369-21.489-12.236-48.734-44-49.385c-23.784-0.487-47.641-0.247-71.389,1.051c-27.858,1.522-51.09,13.935-69.945,34.285
	c-19.264,20.791-27.351,46.154-28.123,73.928c-0.593,21.316-0.124,42.662-0.124,63.994c0.001,50.843-0.016,101.685,0.038,152.528
	c0.005,4.832-1.214,10.167,3.929,13.456c0.77,0.281,1.434,0.734,2.099,0.737c30.214,0.103,60.429,0.228,90.643,0.137
	c2.94-0.009,5.876-1.383,8.381-2.014C185.115,483.921,183.981,476.299,178.568,469.247z"/>
</svg>
