<?xml version="1.0" encoding="iso-8859-1"?>
<!-- Generator: Adobe Illustrator 19.0.0, SVG Export Plug-In . SVG Version: 6.00 Build 0)  -->
<svg version="1.1" id="Layer_1" xmlns="http://www.w3.org/2000/svg" xmlns:xlink="http://www.w3.org/1999/xlink" x="0px" y="0px"
	 viewBox="0 0 500 500" enable-background="new 0 0 500 500" xml:space="preserve">
<path d="M470.316,249.368c0,29.711-0.105,59.422,0.033,89.132c0.112,24.179-9.999,42.607-30.841,54.731
	c-37.053,21.554-74.288,42.794-111.445,64.169c-14.652,8.429-29.34,16.797-43.939,25.317c-22.082,12.887-44.01,12.868-66.176,0.036
	c-51.392-29.75-102.908-59.286-154.325-88.993c-21.06-12.168-31.894-30.465-31.91-54.892c-0.041-60.453-0.137-120.907,0.054-181.359
	c0.072-22.883,10.246-40.615,29.996-52.115C114.678,74.58,167.729,43.992,220.87,13.565c19.62-11.234,40.013-11.488,59.63-0.345
	c52.687,29.929,105.059,60.413,157.623,90.56c21.886,12.553,32.378,31.322,32.233,56.455
	C470.184,189.946,470.316,219.657,470.316,249.368z M443.955,249.252c0-29.921-0.161-59.843,0.069-89.763
	c0.113-14.623-5.939-25.336-18.493-32.569C373.02,96.666,320.532,66.373,267.986,36.179c-11.281-6.482-22.884-6.424-34.128,0.023
	c-52.772,30.258-105.49,60.612-158.185,91.004c-12.078,6.966-18.15,17.491-18.137,31.576c0.054,59.842,0.076,119.684-0.015,179.526
	c-0.022,14.522,5.909,25.319,18.544,32.581c51.669,29.698,103.344,59.388,154.913,89.259c13.42,7.774,26.321,7.891,39.768,0.09
	c51.174-29.684,102.418-59.25,153.741-88.675c13.241-7.591,19.736-18.368,19.564-33.788
	C443.723,308.271,443.956,278.761,443.955,249.252z M88.991,200.716c2.292-0.131,4.3-0.341,6.309-0.346
	c21.646-0.057,43.293-0.148,64.939-0.093c15.63,0.039,20.199,4.729,20.237,20.367c0.013,5.154,0.074,10.309-0.022,15.462
	c-0.209,11.122-5.013,16.202-16.135,16.932c-3.628,0.238-7.285,0.037-10.929,0.037c-0.241,0.519-0.481,1.039-0.722,1.558
	c11.732,9.65,23.465,19.301,35.197,28.951c-0.118,0.459-0.236,0.918-0.354,1.377c-8.509,0-17.024,0.151-25.523-0.14
	c-1.523-0.052-3.127-1.775-4.448-2.992c-7.276-6.705-15.119-12.939-21.533-20.397c-7.522-8.746-16.473-9.59-27.536-7.624
	c0,9.97,0,20.139,0,30.73c-6.955,0-13.003,0-19.48,0C88.991,256.555,88.991,228.87,88.991,200.716z M108.723,237.945
	c16.14,0,31.888,0.142,47.625-0.22c1.576-0.036,4.09-2.961,4.411-4.844c0.679-3.988,0.749-8.285-0.043-12.233
	c-0.396-1.971-3.203-4.883-4.98-4.928c-15.53-0.389-31.075-0.225-47.013-0.225C108.723,223.046,108.723,230.313,108.723,237.945z
	 M374.585,215.962c13.176,0,25.63,0,38.33,0c0-5.575,0-10.4,0-15.542c-32.482,0-64.53,0-97.043,0c0,5.212,0,10.022,0,15.565
	c12.837,0,25.3,0,38.472,0c0,23.293,0,45.864,0,68.802c6.987,0,13.24,0,20.24,0C374.585,261.827,374.585,239.261,374.585,215.962z
	 M229.502,222.454c-4.914-4.262-9.83-5.298-16.083-3.868c0,22.023,0,43.937,0,66.122c4.67,0,8.882,0,13.895,0
	c0-14.773,0-29.193,0-44.649c16.769,14.045,32.731,27.04,48.205,40.592c4.932,4.319,9.737,5.355,15.843,3.892
	c0-22.146,0-44.078,0-66.182c-4.655,0-8.856,0-13.479,0c0,14.753,0,29.106,0,44.668
	C261.017,248.949,245.052,235.941,229.502,222.454z"/>
</svg>
