<?xml version="1.0" encoding="iso-8859-1"?>
<!-- Generator: Adobe Illustrator 19.0.0, SVG Export Plug-In . SVG Version: 6.00 Build 0)  -->
<svg version="1.1" id="Layer_1" xmlns="http://www.w3.org/2000/svg" xmlns:xlink="http://www.w3.org/1999/xlink" x="0px" y="0px"
	 viewBox="0 0 500 500" style="enable-background:new 0 0 500 500;" xml:space="preserve">
<path d="M8.12,261.573c0.176-0.202,0.436-0.376,0.516-0.611c0.887-2.614,2.915-3.667,5.454-3.971
	c0.856-0.102,1.734-0.022,2.602-0.022c80.144,0,160.287,0,240.431,0c1.156,0,2.313,0,3.732,0c0.599-2.154,1.258-4.317,1.8-6.509
	c1.94-7.84,3.862-15.685,5.747-23.539c1.243-5.178,2.373-10.383,3.629-15.557c0.522-2.153,1.304-4.105,3.561-5.24
	c3.884-1.953,7.901,1.048,8.493,4.216c0.699,3.745,1.188,7.528,1.809,11.288c0.683,4.132,1.426,8.255,2.117,12.386
	c0.472,2.82,0.88,5.651,1.349,8.472c0.688,4.132,1.41,8.259,2.108,12.39c0.46,2.725,0.913,5.452,1.348,8.181
	c0.285,1.783,0.533,3.572,1.114,5.385c0.208-1.4,0.432-2.798,0.622-4.2c0.345-2.553,0.679-5.108,1-7.664
	c0.238-1.896,0.474-3.794,0.662-5.696c0.245-2.477,0.397-4.964,0.671-7.438c0.283-2.56,0.687-5.107,0.997-7.665
	c0.265-2.185,0.491-4.374,0.702-6.565c0.229-2.383,0.363-4.776,0.644-7.152c0.28-2.366,0.726-4.713,1.034-7.076
	c0.259-1.991,0.435-3.993,0.63-5.991c0.418-4.285,0.763-8.579,1.253-12.856c0.457-3.981,1.11-7.939,1.586-11.919
	c0.307-2.566,0.398-5.157,0.685-7.726c0.275-2.463,0.702-4.908,1.017-7.367c0.255-1.993,0.463-3.992,0.652-5.992
	c0.234-2.478,0.372-4.967,0.653-7.439c0.259-2.273,0.693-4.525,0.976-6.796c0.284-2.279,0.493-4.567,0.708-6.854
	c0.233-2.478,0.376-4.966,0.665-7.437c0.334-2.845,0.786-5.676,1.24-8.451c0.607-2.358,2.647-3.083,4.482-4.042
	c0.772,0,1.543,0,2.315,0c1.065,0.731,2.213,1.369,3.173,2.219c0.945,0.836,1.446,1.963,1.506,3.305
	c0.138,3.066,0.338,6.13,0.579,9.19c0.307,3.912,0.679,7.818,1.021,11.727c0.017,0.192,0.018,0.385,0.027,0.578
	c0.221,4.606,0.386,9.215,0.68,13.815c0.268,4.203,0.676,8.398,1.022,12.597c0.016,0.192,0.029,0.385,0.038,0.577
	c0.217,4.413,0.381,8.829,0.666,13.237c0.278,4.299,0.681,8.59,1.027,12.885c0.023,0.288,0.034,0.577,0.048,0.866
	c0.221,4.702,0.382,9.408,0.682,14.105c0.262,4.107,0.679,8.204,1.026,12.306c0.016,0.192,0.023,0.385,0.032,0.578
	c0.219,4.606,0.38,9.215,0.673,13.816c0.256,4.011,0.662,8.013,1,12.02c0.024,0.288,0.039,0.577,0.053,0.866
	c0.221,4.606,0.384,9.215,0.678,13.816c0.268,4.204,0.678,8.399,1.025,12.597c0.016,0.192,0.028,0.385,0.037,0.577
	c0.217,4.413,0.403,8.828,0.658,13.239c0.226,3.925,0.528,7.845,0.811,11.984c0.321-0.469,0.722-0.793,0.768-1.162
	c0.283-2.278,0.439-4.571,0.729-6.848c0.264-2.079,0.663-4.14,0.966-6.214c0.262-1.795,0.492-3.596,0.704-5.398
	c0.616-5.217,1.155-10.444,1.841-15.652c0.648-4.914,1.49-9.803,2.16-14.715c0.49-3.596,0.796-7.218,1.263-10.818
	c0.491-3.781,1.1-7.547,1.61-11.326c0.281-2.084,0.437-4.184,0.701-6.271c0.288-2.27,0.655-4.53,0.951-6.799
	c0.284-2.178,0.563-4.359,0.766-6.546c0.207-2.232,0.56-4.335,2.406-5.932c1.909-1.651,4.092-1.706,6.213-0.95
	c2.105,0.75,3.312,2.433,3.574,4.786c0.487,4.364,1.123,8.711,1.639,13.071c0.281,2.375,0.397,4.77,0.671,7.146
	c0.295,2.557,0.706,5.101,1.034,7.655c0.243,1.896,0.455,3.797,0.646,5.7c0.419,4.187,0.758,8.383,1.238,12.563
	c0.457,3.979,1.083,7.939,1.572,11.914c0.174,1.422,0.162,2.866,0.256,4.708c0.533-0.776,0.884-1.194,1.134-1.665
	c2.289-4.305,4.56-8.621,6.84-12.931c0.358-0.677,0.755-1.332,1.102-2.014c1.228-2.41,3.178-3.3,5.873-3.288
	c14.753,0.069,29.507,0.033,44.261,0.033c12.053,0,24.105,0,36.379,0c2.245-4.599,5.572-8.163,10.759-9.455
	c3.12-0.778,6.328-0.781,9.35,0.351c7.294,2.734,10.778,9.859,10.252,15.751c-0.645,7.229-4.588,12.916-12.455,14.579
	c-5.949,1.257-12.998-0.172-17.717-9.259c-0.607,0.057-1.234,0.139-1.863,0.167c-0.674,0.029-1.35,0.01-2.025,0.006
	c-23.404-0.148-46.807-0.298-70.211-0.446c-1.052-0.007-2.104-0.001-3.339-0.001c-0.559,0.909-1.154,1.763-1.635,2.675
	c-4.636,8.798-9.233,17.616-13.897,26.398c-0.711,1.338-1.521,2.726-2.613,3.738c-3.03,2.806-8.568,1.125-9.519-2.825
	c-0.356-1.479-0.46-3.021-0.65-4.538c-0.368-2.936-0.724-5.874-1.069-8.813c-0.234-1.995-0.457-3.991-0.654-5.989
	c-0.225-2.285-0.386-4.576-0.629-6.858c-0.232-2.182-0.534-4.357-0.834-6.765c-0.32,0.732-0.715,1.278-0.789,1.864
	c-0.457,3.601-0.794,7.217-1.262,10.816c-0.466,3.593-1.041,7.171-1.562,10.757c-0.233,1.605-0.482,3.21-0.668,4.821
	c-0.429,3.702-0.758,7.417-1.25,11.11c-0.679,5.104-1.517,10.186-2.198,15.289c-0.492,3.693-0.783,7.414-1.268,11.108
	c-0.471,3.59-1.11,7.158-1.604,10.746c-0.3,2.178-0.428,4.38-0.699,6.563c-0.258,2.081-0.611,4.15-0.903,6.227
	c-0.279,1.984-0.558,3.969-0.792,5.959c-0.425,3.606-0.716,7.23-1.257,10.818c-0.381,2.524-1.403,4.567-4.095,5.746
	c-3.752,1.644-7.721-1.828-7.969-4.729c-0.269-3.153-0.383-6.32-0.608-9.477c-0.335-4.682-0.708-9.362-1.065-14.043
	c-0.015-0.192-0.024-0.385-0.033-0.578c-0.217-4.51-0.376-9.023-0.667-13.528c-0.271-4.204-0.682-8.399-1.03-12.598
	c-0.016-0.192-0.02-0.385-0.029-0.578c-0.221-4.606-0.385-9.215-0.68-13.816c-0.269-4.204-0.679-8.399-1.025-12.598
	c-0.016-0.192-0.026-0.385-0.036-0.577c-0.216-4.413-0.379-8.829-0.664-13.238c-0.278-4.3-0.683-8.591-1.03-12.886
	c-0.023-0.288-0.035-0.577-0.048-0.866c-0.22-4.702-0.379-9.408-0.679-14.106c-0.262-4.108-0.683-8.206-1.032-12.308
	c-0.016-0.192-0.022-0.385-0.031-0.578c-0.217-4.606-0.376-9.215-0.669-13.816c-0.255-4.011-0.664-8.012-1-12.018
	c-0.04-0.48-0.055-0.963-0.078-1.444c-0.222-4.798-0.44-9.597-0.672-14.395c-0.021-0.43-0.136-0.856-0.215-1.333
	c-0.338,0.151-0.624,0.206-0.635,0.294c-0.288,2.466-0.53,4.938-0.817,7.405c-0.32,2.749-0.697,5.492-1.014,8.242
	c-0.263,2.281-0.489,4.567-0.71,6.853c-0.23,2.383-0.381,4.774-0.665,7.15c-0.282,2.366-0.707,4.714-1.027,7.076
	c-0.231,1.703-0.414,3.414-0.582,5.124c-0.42,4.284-0.761,8.578-1.245,12.855c-0.462,4.076-1.088,8.133-1.597,12.205
	c-0.273,2.184-0.427,4.382-0.675,6.569c-0.333,2.94-0.712,5.875-1.059,8.814c-0.224,1.899-0.443,3.8-0.633,5.703
	c-0.418,4.188-0.774,8.382-1.232,12.565c-0.53,4.842-1.113,9.679-1.73,14.51c-0.324,2.539-2.698,4.743-5.188,4.985
	c-3.192,0.31-5.417-1.32-6.296-3.931c-0.633-1.88-0.871-3.9-1.204-5.871c-0.982-5.822-1.948-11.647-2.874-17.477
	c-0.837-5.271-1.555-10.561-2.432-15.825c-1.064-6.385-2.279-12.744-3.353-19.127c-0.68-4.042-1.201-8.11-1.841-12.158
	c-0.132-0.834-0.477-1.634-0.799-2.699c-1.872,7.513-3.664,14.772-5.494,22.021c-0.78,3.091-2.78,4.628-5.998,4.718
	c-0.578,0.016-1.157,0.003-1.736,0.003c-82.544,0-165.087,0.001-247.631-0.006c-1.053,0-2.131,0.03-3.154-0.171
	c-2.48-0.486-3.742-2.374-4.789-4.452C8.12,263.502,8.12,262.538,8.12,261.573z M86.264,285.228c0,10.794,0.006,21.587-0.003,32.381
	c-0.003,3.376,0.558,6.663,1.737,9.81c1.756,4.686,4.5,8.613,8.921,11.23c7.073,4.187,14.599,4.962,22.366,2.694
	c6.884-2.01,11.91-6.353,14.622-13.126c1.362-3.4,2.016-6.971,2.035-10.611c0.06-11.082,0.025-22.165,0.014-33.248
	c-0.001-0.645-0.114-1.29-0.186-2.047c-3.669,0.025-7.189-0.069-10.836,0.066c0,1.254,0,2.207,0,3.16
	c0,9.83,0.031,19.66-0.023,29.49c-0.013,2.289-0.115,4.613-0.527,6.856c-1,5.446-4.103,9.219-9.567,10.632
	c-1.634,0.422-3.44,0.252-5.166,0.234c-4.032-0.043-7.152-1.893-9.497-5.086c-2.251-3.065-2.835-6.659-2.857-10.322
	c-0.066-10.793-0.02-21.587-0.029-32.381c-0.001-0.838-0.085-1.676-0.134-2.577c-3.633,0-7.082,0-10.869,0
	C86.264,283.518,86.264,284.373,86.264,285.228z M231.051,282.68c-0.442,6.379-0.252,56.941,0.222,59.151
	c6.934,0.431,34.993,0.247,37.109-0.231c0-2.874,0-5.734,0-8.767c-3.025,0-5.901,0-8.776,0c-2.989,0-5.979,0.046-8.967-0.013
	c-2.848-0.056-5.717,0.259-8.525-0.205c-0.385-5.984-0.254-14.445,0.268-16.638c2.282,0,4.593,0,6.904,0
	c2.218,0,4.437,0.047,6.653-0.013c2.275-0.061,4.575,0.279,6.72-0.207c0-2.83,0-5.496,0-8.355c-3.522,0-6.88,0.043-10.237-0.012
	c-3.43-0.056-6.875,0.24-10.304-0.176c0-5.462,0-10.72,0-16.167c4.468,0,8.793,0.009,13.118-0.003
	c4.398-0.012,8.798,0.054,13.22-0.044c0-2.985,0-5.667,0-8.557C261.176,281.988,233.301,282.179,231.051,282.68z M47.468,341.921
	c0.261-0.002,0.521-0.193,1.006-0.385c0.036-0.876,0.106-1.812,0.108-2.749c0.011-5.304-0.003-10.608,0.014-15.912
	c0.002-0.728,0.127-1.456,0.202-2.259c3.579,0,6.95-0.022,10.321,0.005c4.205,0.034,8.146-1.019,11.798-3.026
	c3.819-2.1,6.5-5.164,7.957-9.397c1.198-3.48,1.306-7.019,0.881-10.51c-0.469-3.844-2.075-7.294-5.126-9.986
	c-3.837-3.385-8.356-5.086-13.328-5.248c-7.515-0.245-15.041-0.118-22.563-0.135c-0.35-0.001-0.701,0.135-1.082,0.213
	c0,19.794,0,39.446,0,59.401C41.125,341.935,44.297,341.942,47.468,341.921z M57.884,290.607c3.036,0.242,6.008,0.849,8.351,3.206
	c1.361,1.369,2.214,2.997,2.486,4.737c0.318,2.039,0.285,4.134-0.265,6.258c-0.958,3.698-3.703,6.769-9.273,7.095
	c-3.431,0.201-6.883,0.037-10.46,0.037c0-7.109,0-14.098,0-21.383C51.938,290.556,54.928,290.371,57.884,290.607z M202.715,342.511
	c1.883,0.122,3.83-0.17,5.699-0.528c5.737-1.101,10.333-3.976,13.223-9.175c1.751-3.15,2.387-6.572,2.376-10.198
	c-0.016-5.281-2.351-9.115-6.646-11.984c-2.827-1.888-6.035-2.816-9.182-3.904c-2.794-0.965-5.617-1.818-8.208-3.308
	c-1.487-0.856-2.681-1.952-3.157-3.572c-1.047-3.567,0.894-7.398,4.394-8.659c2.576-0.928,5.236-0.942,7.921-0.347
	c2.282,0.506,4.3,1.54,6.233,2.798c1.151,0.749,2.351,1.322,4.016,0.575c1.335-1.926,2.608-4.121,3.537-6.661
	c-1.255-0.893-2.351-1.835-3.591-2.513c-1.497-0.819-3.086-1.497-4.689-2.089c-4.498-1.661-9.19-1.916-13.814-1.01
	c-4.482,0.878-8.446,2.963-11.297,6.775c-2.46,3.29-3.386,6.936-3.258,11.033c0.189,6.053,2.867,10.439,8.236,13.102
	c2.12,1.051,4.414,1.761,6.655,2.555c2.332,0.826,4.724,1.49,7.038,2.363c2.323,0.877,4.235,2.397,5.134,4.754
	c1.466,3.842-0.85,8.755-4.803,10.132c-2.943,1.025-6.011,1.027-9.05,0.257c-2.641-0.669-4.909-2.086-7.092-3.645
	c-1.217-0.869-2.465-1.484-4.508-0.88c-0.195,0.235-0.755,0.783-1.163,1.427c-0.967,1.527-1.862,3.099-2.898,4.842
	C189.231,339.993,195.671,342.053,202.715,342.511z M145.961,282.462c-0.417,3.995-0.296,57.151,0.128,59.357
	c11.419,0,22.848,0,34.317,0c0-3.072,0-6.009,0-9.159c-7.923,0-15.693,0-23.594,0c0-16.781,0-33.347,0-50.198
	C152.976,282.462,149.459,282.462,145.961,282.462z M145.785,243.603c8.388,0.002,16.779,0.112,25.164-0.064
	c3.413-0.071,6.854-0.6,10.128-1.69c9.583-3.191,16.267-9.439,19.7-19.014c1.437-4.008,1.962-8.149,1.846-12.411
	c-0.078-2.88-0.205-5.722-0.923-8.535c-1.657-6.491-4.854-12.007-10.021-16.336c-5.385-4.513-11.656-7.015-18.598-7.242
	c-9.054-0.296-18.124-0.094-27.188-0.097c-0.357,0-0.714,0.09-1.135,0.146c0,21.722,0,43.301,0,65.098
	C145.235,243.528,145.51,243.603,145.785,243.603z M170.209,187.615c3.718,0.188,7.379,0.926,10.648,2.934
	c3.845,2.362,6.334,5.798,7.792,9.989c1.691,4.86,2.166,9.8,1.313,14.954c-0.604,3.649-1.511,7.087-3.613,10.134
	c-3.356,4.866-8.059,7.691-13.898,8.079c-5.076,0.338-10.193,0.07-15.271,0.07c-0.417-2.246-0.547-41.785-0.144-46.211
	C161.549,187.564,165.889,187.397,170.209,187.615z M37.58,241.886c0,0.384,0.037,0.768,0.068,1.151
	c0.007,0.087,0.051,0.18,0.104,0.252c0.056,0.076,0.142,0.13,0.344,0.306c1.789,0,3.71,0.031,5.629-0.009
	c1.888-0.039,3.8,0.184,5.935-0.22c0.112-8.507-0.042-16.84,0.089-25.173c2.789,0,5.273,0,7.867,0
	c0.616,0.766,1.26,1.469,1.791,2.248c1.455,2.136,2.866,4.302,4.287,6.46c2.894,4.398,5.826,8.772,8.655,13.212
	c1.206,1.893,2.709,3.35,4.981,3.439c3.646,0.143,7.302,0.038,11.26,0.038c-3.693-5.403-7.162-10.555-10.714-15.65
	c-2.97-4.259-5.259-9.032-9.533-12.421c0.825-0.33,1.445-0.574,2.062-0.824c3.741-1.515,6.844-3.845,9.041-7.263
	c2.683-4.175,3.543-8.662,2.842-13.644c-0.924-6.568-4.547-10.77-10.453-13.256c-3.825-1.61-7.837-2.346-11.996-2.322
	c-4.821,0.028-9.641-0.002-14.462-0.005c-2.494-0.002-4.987,0-7.799,0C37.577,199.672,37.576,220.779,37.58,241.886z M49.84,187.687
	c0.561-0.059,1.203-0.181,1.845-0.184c2.793-0.016,5.595-0.136,8.378,0.044c3.198,0.206,6.123,1.173,8.415,3.668
	c3.828,4.166,3.168,14.416-4.893,17.006c-2.325,0.747-4.862,0.919-7.321,1.139c-2.005,0.179-4.038,0.036-6.424,0.036
	C49.84,202.061,49.84,194.961,49.84,187.687z M106.605,204.573c-0.016-5.206-0.022-10.413,0.01-15.619
	c0.003-0.428,0.302-0.854,0.528-1.453c9.566,0,19.075,0,28.689,0c0-3.16,0-6.102,0-9.07c-0.373-0.09-0.641-0.213-0.91-0.213
	c-13.303,0.013-26.606,0.037-39.909,0.063c-0.089,0-0.19,0.039-0.265,0.089c-0.077,0.052-0.13,0.141-0.323,0.361
	c0,5.529,0,11.207,0,16.885c0,14.945-0.008,29.889,0.018,44.834c0.002,1.007-0.399,2.138,0.709,3.159
	c12.654,0,25.468,0.001,38.283-0.003c0.673,0,1.345-0.046,2.017-0.083c0.08-0.004,0.162-0.087,0.231-0.147
	c0.071-0.062,0.128-0.14,0.138-0.151c0-3.118,0-6.174,0-9.428c-2.518,0-4.911,0-7.305,0c-2.41,0-4.821,0-7.231,0
	c-2.507,0-5.015,0.047-7.52-0.013c-2.366-0.057-4.757,0.267-7.066-0.21c0-6.138,0-12.088,0-18.309c7.665,0,15.229,0,22.8,0
	c0-3.217,0-6.159,0-9.265c-7.541,0-14.94,0-22.563,0C106.767,205.299,106.606,204.936,106.605,204.573z"/>
</svg>
