<?xml version="1.0" encoding="utf-8"?>
<!-- Generator: Adobe Illustrator 25.1.0, SVG Export Plug-In . SVG Version: 6.00 Build 0)  -->
<svg version="1.1" id="Layer_1" xmlns="http://www.w3.org/2000/svg" xmlns:xlink="http://www.w3.org/1999/xlink" x="0px" y="0px"
	 viewBox="0 0 500 500" style="enable-background:new 0 0 500 500;" xml:space="preserve">
<path d="M195.5,463.1c-2.5,0.2-4.7,0.6-6.8-0.7c-5.3-3.1-10.7-6-16-9.1c-2.1-1.2-3.2-3.1-3.1-5.6c0.1-1.7,0-3.4,0-5.1
	c0-63.3,0-126.5,0-189.8c0-1.7-0.1-3.4,0-5.1c0.4-4.2,3.3-6.9,7.3-6.2c5.2,0.9,10.4,2.1,15.4,3.5c3.8,1.1,5.9,3.9,5.8,8.1
	c-0.1,3.7,0,7.3,0,11c0,62.4,0,124.8,0,187.2C198.2,455.3,198.9,459.4,195.5,463.1z M307.2,35.7c-4.2,3.9-3.4,8-3.4,11.8
	c0,64.7,0,129.3,0,194c0,1.7,0,3.4,0,5.1c0.2,3.7,2,6.3,5.6,7.4c3.5,1,6.9,2,10.6,2.5c11.2,1.7,12.4,0.8,12.4-10.8
	c0-62.7,0-125.4,0-188.1c0-2.8,0-5.6,0-9.9C323.5,44,316.9,36,307.2,35.7z M256.5,219.8c4.3,2.7,7.7,0.9,8.2-4.1
	c0.1-1.4,0.1-2.8,0.1-4.2c0-65.3,0-130.5,0-195.8c0-2.2,0.5-4.5-0.8-6.6c-13.8-9.6-12.2-9.2-25.6-0.2c-0.4,0.3-0.6,0.9-0.9,1.5
	c0,65.2,0,130.4,0,196.4C244,211.3,250.1,215.8,256.5,219.8z M264.4,293.5c-1.4-3.2-3.6-3.3-5.2-4.5c-4-3-8.3-5.8-12.4-8.7
	c-2.2-1.6-4.5-2.5-7-1.4c-2.5,1.1-2.5,3.5-2.5,5.8c0,1.4,0,2.8,0,4.2c0,64.4,0,128.8,0,193.3c0,2.5,0,5,0,7.1
	c12.7,10.2,13.1,10.2,25.3,2.2c0.5-0.3,0.8-0.7,1.8-1.6C264.4,423.7,264.4,358,264.4,293.5z M379.2,75.3c-4.6-2.2-7.4,0-7.8,5.3
	c-0.1,2-0.1,4-0.1,5.9c0,50.8,0,101.7,0,152.5c0,2-0.1,4,0,5.9c0.4,5.6,3.1,7.6,8.3,5.5c6.7-2.8,13.3-5.9,19-10.9
	c0-50.5,0-101,0-152.2C392.8,81.9,385.9,78.6,379.2,75.3z M108.5,256.4c-2,0.4-3.5,1.6-5.2,3.2c0,50.5,0,101.3,0,152.4
	c5.9,5.2,12.9,8.8,20,12.1c4.1,1.9,6.9-0.4,7.3-5.2c0.2-2,0.1-4,0.1-5.9c0-51.1,0-102.2,0-153.3c0-2,0.1-4-0.1-5.9
	c-0.4-5.1-3.2-7.1-7.9-5.2c-3.8,1.6-7.8,2.8-10.9,5.8C111.8,256.9,110,256.3,108.5,256.4z M198.3,180.8c-0.1-45.1-0.1-90.3,0-135.4
	c0-3.5-0.2-6.7-2.9-9.2c-2.9-0.6-5.5-0.3-8.1,1.4c-4.2,2.7-8.4,5.4-13.1,7.4c-3.4,1.4-4.6,4.3-4.6,8.2c0.1,42.3,0.1,84.6,0,127
	c0,3.3,0.6,6.1,3.1,8.2c7.6,1,14.9,3.1,22.5,1.9C198.1,187.5,198.3,184.2,198.3,180.8z M332.2,449.6c0.1-43.7,0.1-87.5,0.2-131.2
	c0-3.1-1-5.4-3-7.4c-7.8-0.9-15.4-3.4-23.1-1.8c-1.9,2.8-2.6,5.3-2.6,8.3c0.1,45.7,0.1,91.4,0,137.1c0,3.2,0.6,6.1,2.8,8.4
	c2.3,0.3,4.6,0.9,6.6-0.5c6.1-4.2,13.4-6.7,18.5-11.2C332,450.1,332.2,449.9,332.2,449.6z M37.3,130.3c0,34.9,0,69.8,0,104.7
	c0,1.2,0,2.2-1.3,2.7c-0.7,2.9,1.2,4,4.1,5.4c9.7-5.2,16.4-14.2,24-21.4c0-33.4,0-66.1,0-98.8c0-4.3,0.1-8.5-5.1-10.2
	c-6.8,2-12.4,6.2-18.5,9.5c-2,1.1-4.4,2.5-4.6,5.5C37.3,128.1,37.3,129.1,37.3,130.3z M103.1,96.2c0,28.5,0,57.1,0,85.6
	c0,3.1-0.1,6.2,0,9.3c0.3,4.8,2.6,6.9,7,5.8c5.7-1.4,11.2-3.3,16.8-4.9c2.5-0.8,3.5-2.6,3.6-5.1c0.1-2,0.1-4,0.1-5.9
	c0-31.9,0-63.9,0-95.8c0-1.7,0.1-3.4-0.1-5.1c-0.4-4.7-3.4-6.9-7.5-4.9c-7,3.4-14.2,6.6-20,12.6C103.1,90.6,103.1,93.4,103.1,96.2z
	 M398.9,402.2c0-28.5,0-57.1,0-85.6c0-2.8,0.2-5.7,0-8.5c-0.3-5.1-2.8-7-7.8-5.6c-4.8,1.3-9.6,2.9-14.3,4.5c-5,1.7-5.1,1.8-5.3,7
	c-0.1,1.4-0.1,2.8-0.1,4.2c0,31.9,0,63.9,0,95.8c0,1.7-0.1,3.4,0.1,5.1c0.4,4.7,3.4,6.9,7.5,4.9c7-3.5,14.2-6.6,20.1-12.6
	C398.9,408.4,398.9,405.3,398.9,402.2z M441.2,277.6c0,33.1,0,66.3,0,99.7c1.4,1.4,3.1,3,4.7,4.5c2.1-0.1,1.5-2.3,2.7-2.9
	c0.5,0.8,1.1,1.7,1.8,2.8c1.9-3-0.4-6.6,1.5-9.5c1.9-0.7,2,1,2.9,1.8c1.9,1.7,5,2.4,6.3-0.3c1.3-2.7,3.2-1.6,4.9-1.9
	c0.1-2.8,0.4-5.6,0.4-8.4c0-17.2,0-34.4,0-51.6c0-15.5-0.1-31,0-46.6c0-4-0.8-7.2-5.3-8.5c-3.9,2.1-6.8,5.5-10,8.5
	C452.5,272.8,446.7,274.9,441.2,277.6z M443.3,112.3c-4.5,2-5.6,4.7-5.6,8.5c0.1,23.1,0.1,46.2,0,69.3c0,3.7,1.1,6.5,4.6,8.1
	c2.4-0.6,4.6-1.8,6.5-3.5c5-4.5,9.4-9.6,14.8-13.8c2.2-1.7,2.8-4.6,2.8-7.6c-0.1-15.5-0.1-31-0.1-47.3
	C458.9,120.1,451.1,115.5,443.3,112.3z M37.2,373.6c6,6.4,14,9.6,21.2,13.4c4-1.8,5.8-4.1,5.7-8c-0.1-23.4-0.1-46.8,0-70.2
	c0-3.8-1.3-6.4-5.3-8.1c-8.3,5.3-15.3,12.3-21.7,20C37.2,338.3,37.2,356,37.2,373.6z M440.3,274.2c-2,1.2-2.5,4.1-2.5,6.8
	c0.1,32.5,0.1,64.9,0,97.4c0,4.2,1.4,7,5.9,8.5c7.4-3.2,14.4-7.9,21.5-12.2c1.1-0.7,1.1-1.8,0.9-3c-1.7,0.3-3.6-0.7-4.9,1.9
	c-1.4,2.7-4.4,2.1-6.3,0.3c-0.9-0.8-1-2.5-2.9-1.8c-2,2.8,0.4,6.4-1.5,9.5c-0.7-1-1.2-1.9-1.8-2.8c-1.2,0.6-0.6,2.8-2.7,2.9
	c-1.6-1.5-3.2-3.1-4.7-4.5c0-33.4,0-66.6,0-99.7c5.5-2.6,11.3-4.7,10-12.4C446.8,267.2,444.4,271.6,440.3,274.2z M35.6,132.6
	c0,33.3,0,66.7,0,100c0,1.7,0.3,3.4,0.4,5c1.3-0.5,1.3-1.5,1.3-2.7c0-34.9,0-69.8,0-104.7c0-1.2,0-2.2-1.3-2.7
	C35.9,129.3,35.6,130.9,35.6,132.6z M35.6,323.3c0,15.9,0,31.8,0,47.8c0,1.2,0.5,2.1,1.6,2.6c0-17.7,0-35.3,0-53
	C36.1,321.2,35.6,322,35.6,323.3z M108.5,256.4c1.4-0.1,3.3,0.5,3.3-2C110.5,254.6,109,254.7,108.5,256.4z"/>
</svg>
