<?xml version="1.0" encoding="utf-8"?>
<!-- Generator: Adobe Illustrator 25.1.0, SVG Export Plug-In . SVG Version: 6.00 Build 0)  -->
<svg version="1.1" id="Layer_1" xmlns="http://www.w3.org/2000/svg" xmlns:xlink="http://www.w3.org/1999/xlink" x="0px" y="0px"
	 viewBox="0 0 500 500" style="enable-background:new 0 0 500 500;" xml:space="preserve">
<g>
	<path d="M249.9,2.2C113,2.2,2,113.2,2,250.1S113,498,249.9,498s247.9-111,247.9-247.9S386.8,2.2,249.9,2.2z M364.2,221.6
		c0,1.6-1.2,2.8-2.8,3h-43.2c-1.6,0-2.8,1.3-2.8,2.8v54.3c0,1.6,1.3,2.8,2.8,2.8h43.2c1.6,0,2.8,1.3,2.8,2.8v34.9
		c0,1.6-1.3,2.8-2.8,2.8h-43.2c-1.6,0-2.8,1.3-2.8,2.8v52.3c0,1.6-1.3,2.8-2.8,2.8h-34.9c-1.6,0-2.8-1.3-2.8-2.8v-52.3
		c0-1.6-1.3-2.8-2.8-2.8h-44.8c-1.6,0-2.8,1.3-2.8,2.8v52.3c0,1.6-1.3,2.8-2.8,2.8h-34.9c-1.6,0-2.8-1.3-2.8-2.8v-52.3
		c0-1.6-1.3-2.8-2.8-2.8H138c-1.6,0-2.8-1.3-2.8-2.8v-34.9c0-1.6,1.3-2.8,2.8-2.8h43.2c1.6,0,2.8-1.3,2.8-2.8v-54.3
		c0-1.6-1.3-2.8-2.8-2.8H138c-1.6,0-2.8-1.3-2.8-2.8v-34.9c0-1.6,1.3-2.8,2.8-2.8h43.2c1.6,0,2.8-1.3,2.8-2.8V129
		c0-1.6,1.3-2.8,2.8-2.8h34.9c1.6,0,2.8,1.3,2.8,2.8v52.3c0,1.6,1.3,2.8,2.8,2.8h44.8c1.6,0,2.8-1.3,2.8-2.8V129
		c0-1.6,1.3-2.8,2.8-2.8h34.9c1.6,0,2.8,1.3,2.8,2.8v52.1c0,1.6,1.3,2.8,2.8,2.8h43.2c1.6,0,2.8,1.3,2.8,2.8V221.6z"/>
	<path d="M272.4,224.3h-44.8c-1.6,0-2.8,1.3-2.8,2.8v54.3c0,1.6,1.3,2.8,2.8,2.8h44.8c1.5,0,2.8-1.3,2.8-2.8v-54.3
		C275.2,225.5,273.9,224.3,272.4,224.3z"/>
</g>
</svg>
