<?xml version="1.0" encoding="utf-8"?>
<!-- Generator: Adobe Illustrator 26.2.1, SVG Export Plug-In . SVG Version: 6.00 Build 0)  -->
<svg version="1.1"
	 id="svg5" inkscape:version="1.1 (ce6663b3b7, 2021-05-25)" sodipodi:docname="rsv.svg" xmlns:inkscape="http://www.inkscape.org/namespaces/inkscape" xmlns:sodipodi="http://sodipodi.sourceforge.net/DTD/sodipodi-0.dtd" xmlns:svg="http://www.w3.org/2000/svg"
	 xmlns="http://www.w3.org/2000/svg" xmlns:xlink="http://www.w3.org/1999/xlink" x="0px" y="0px" viewBox="0 0 500 500"
	 style="enable-background:new 0 0 500 500;" xml:space="preserve">
<path id="path930" sodipodi:nodetypes="cssssssscccccccssscssssssccccccccccccccccccccccccssssscc" d="M223.2,499.4
	C110.9,485.3,25.2,406,3.1,295.7c-4.2-21-4.2-70.8,0-91.8C23.8,100.7,100.7,23.7,204,3.1c21-4.2,70.8-4.2,91.8,0
	c103.3,20.6,180.3,97.6,200.9,200.8c4.2,21,4.2,70.8,0,91.8c-20.6,102.8-98,180.5-200,200.6C283,499,235.9,501,223.2,499.4
	L223.2,499.4z M234.5,312.9l0.5-36.3h16.3h16.3l15.8,36.8l15.8,36.8h20.2c11.1,0,20.7-0.4,21.2-0.9s-5.9-16.1-14.1-34.7
	c-8.3-18.6-15.4-35.3-15.8-37.2c-0.6-2.7,0.4-4,4.4-5.6c6.8-2.8,15.9-13.1,18.8-21.2c1.6-4.6,2.3-15.5,2.3-37.4
	c0-29.2-0.2-31.4-4-38.9c-2.2-4.4-7-10.6-10.7-13.7c-12.2-10.4-16.1-11-74.9-10.5l-52.6,0.4l-0.5,16.2l-0.5,16.2l-18.7,0.5
	l-18.7,0.5v17.5v17.5l19.6,0.5l19.6,0.5v9.1v9.1l-19.6,0.5l-19.6,0.5v17.5v17.5l19.6,0.5l19.6,0.5v37.6v37.6l19.6,0.2H234
	L234.5,312.9z M234.9,213.1V188h27.5c27.5,0,27.5,0,30.9,4.4c3,3.8,3.5,6.7,3.5,20.7c0,13.9-0.5,16.9-3.5,20.7
	c-3.5,4.4-3.5,4.4-30.9,4.4h-27.5V213.1z"/>
</svg>
