<?xml version="1.0" encoding="iso-8859-1"?>
<!-- Generator: Adobe Illustrator 19.0.0, SVG Export Plug-In . SVG Version: 6.00 Build 0)  -->
<svg version="1.1" id="Layer_1" xmlns="http://www.w3.org/2000/svg" xmlns:xlink="http://www.w3.org/1999/xlink" x="0px" y="0px"
	 viewBox="0 0 2000 2000" style="enable-background:new 0 0 2000 2000;" xml:space="preserve">
<path d="M846.991,1062.49c-5.849-43.778-11.164-83.556-17.158-128.419c-49.625-22.474-103.143-46.617-156.575-70.948
	c-31.205-14.21-62.558-15.693-95.6-5.587c-39.006,11.931-77.075,8.924-113.923-10.925c-80.226-43.216-88.543-166.864-13.57-219.253
	c91.684-64.066,181.717-11.134,202.411,64.139c15.395,55.999,48.228,90.313,92.614,120.151
	c37.904,25.481,74.988,52.18,113.417,79.026c31.083-34.873,63.403-64.805,112.835-74.888c0-13.737,0.868-26.5-0.158-39.109
	c-3.445-42.304-6.45-84.694-11.767-126.78c-4.572-36.184-15.778-69.347-45.909-94.532c-30.683-25.646-41.818-60.974-42.358-100.767
	c-0.714-52.635,27.901-86.11,70.538-109.187c44.477-24.073,89.94-19.936,129.491,10.253
	c76.136,58.113,72.878,134.588,18.959,191.967c-43.933,46.753-53.345,98.626-59.17,155.479c-3.641,35.54-5.607,71.253-8.537,109.661
	c43.54,15.276,85.319,33.319,115.009,73.979c10.738-5.948,20.78-10.502,29.729-16.647c32.392-22.245,63.974-45.691,96.694-67.43
	c39.372-26.158,66.43-58.276,80.535-106.099c28.176-95.531,123.41-126.896,202.851-73.042
	c22.438,15.211,31.901,36.375,39.579,59.777c16.33,49.773,13.792,97.828-22.088,138.223c-36.024,40.557-85.153,51.04-134.972,37.696
	c-49.334-13.214-92.898-7.927-137.351,14.632c-43.517,22.084-88.496,41.288-133.372,62.004c2.334,45.315,5.314,88.09-21.487,129.234
	c69.487,30.986,136.068,61.774,203.631,90.23c24.785,10.439,50.85,4.705,76.974-2.317c44.163-11.871,87.322-9.207,126.554,18.877
	c56.295,40.299,69.061,125.905,26.567,183.289c-41.166,55.589-124.741,65.398-179.495,20.974
	c-26.349-21.378-44.286-48.527-51.072-81.734c-6.606-32.328-23.184-57.272-49.695-76.066
	c-55.971-39.677-112.033-79.227-165.698-117.161c-34.645,18.792-65.916,35.755-101.041,54.807
	c5.364,63.431,11.293,131.152,16.737,198.913c2.741,34.114,15.196,63.234,40.847,86.424c25.15,22.738,41.491,50.954,46.405,84.366
	c7.564,51.43-15.452,97.916-61.797,123.413c-51.23,28.185-97.253,25.491-146.774-10.293c-40.18-29.035-57.262-81.982-43.272-131.542
	c8.123-28.775,22.076-54.504,45.907-73.89c22.981-18.695,34.19-44.554,36.848-72.61c6.163-65.048,9.977-130.322,14.396-195.528
	c0.422-6.228-1.594-12.62-1.975-15.345c-31.645-16.098-60.401-30.726-95.358-48.51c-61.617,40.183-128.067,83.976-188.605,136.321
	c-18.536,16.027-24.18,38.339-29.86,60.588c-8.877,34.778-27.768,63.145-56.991,83.4c-47.109,32.653-96.447,29.497-143.202,0.661
	c-41.542-25.621-65.326-64.208-60.644-114.715c5.336-57.566,36.947-97.097,90.965-117.038c31.416-11.598,63.441-8.284,96.016-0.435
	c19.845,4.782,43.404,8.192,61.903,2.033C717.115,1128.514,784.938,1096.447,846.991,1062.49z M1894.641,1399.036
	c0.012-270.505-0.154-541.009-0.419-811.514c-0.001-1.38-1.484-2.934-2.606-4.083c-0.993-1.017-2.449-1.583-6.566-4.099
	c-30.067,15.985-61.848,32.444-93.209,49.668c-36.07,19.81-54.22,50.077-54.141,91.931c0.345,183.62,0.503,367.243-0.138,550.861
	c-0.132,37.972,14.856,67.658,45.233,87.56c32.53,21.313,67.699,38.596,106.739,60.45
	C1892.443,1408.307,1894.641,1403.672,1894.641,1399.036z M215.54,1358.252c30.646-19.829,47.029-50.143,47.105-87.041
	c0.377-183.609,0.04-367.22,0.309-550.83c0.044-29.936-11.054-55.608-32.855-74.006c-35.557-30.008-76.854-51.018-122.791-69.98
	c0,281.387,0,557.953,0,844.062C147.953,1397.312,182.811,1379.428,215.54,1358.252z M919.893,1890.114
	c3.594-60.936-22.349-102.243-76.106-130.917c-67.821-36.176-133.671-76.057-200.264-114.524
	c-79.382-45.855-158.496-92.174-238.035-137.755c-37.353-21.406-76.118-29.021-116.234-6.499
	c-33.517,18.818-67.025,37.651-106.125,59.618c245.552,141.764,485.78,280.454,736.489,425.195
	C919.617,1945.342,918.269,1917.64,919.893,1890.114z M265.261,487.124c52.162,34.285,101.481,33.017,154.702-0.682
	c66.282-41.969,135.743-78.91,203.751-118.16c79.319-45.778,158.249-92.241,237.97-137.305
	c32.351-18.287,54.457-45.003,58.046-80.442c4.328-42.744,1.025-86.26,1.025-133.726
	c-245.949,142.08-486.459,281.018-735.334,424.789C217.305,459.637,242.209,471.973,265.261,487.124z M1078.447,116.938
	c-5.414,58.882,22.963,95.103,71.647,122.347c84.145,47.088,167.221,96.087,250.737,144.297
	c65.133,37.599,130.276,75.181,195.372,112.843c32.847,19.004,67.407,26.15,102.504,8.758
	c37.135-18.402,72.916-39.537,116.203-63.27c-247.698-142.725-488.194-281.3-735.967-424.068
	C1078.943,55.204,1081.264,86.307,1078.447,116.938z M1812.16,1555.921c-39.586-22.21-74.062-43.581-110.342-61.246
	c-27.466-13.373-57.223-12.43-85.341,1.066c-14.711,7.061-28.908,15.244-43.073,23.381
	c-53.861,30.943-107.594,62.108-161.412,93.125c-90.64,52.238-181.331,104.389-271.954,156.658
	c-31.093,17.933-56.698,42.065-59.322,79.247c-3.081,43.657-0.721,87.697-0.721,135.596
	C1325.053,1840.552,1565.93,1699.8,1812.16,1555.921z"/>
</svg>
