<?xml version="1.0" encoding="iso-8859-1"?>
<!-- Generator: Adobe Illustrator 19.0.0, SVG Export Plug-In . SVG Version: 6.00 Build 0)  -->
<svg version="1.1" id="Layer_1" xmlns="http://www.w3.org/2000/svg" xmlns:xlink="http://www.w3.org/1999/xlink" x="0px" y="0px"
	 viewBox="0 0 2000 2000" style="enable-background:new 0 0 2000 2000;" xml:space="preserve">
<path d="M1001.422,1967.807c-533.04,1.776-982.69-434.252-972.471-990.896c4.694-255.678,97.436-478.019,276.604-660.372
	C506.181,112.348,752.838,14.328,1038.991,24.345c249.268,8.726,465.477,102.32,642.87,277.423
	c197.718,195.167,295.996,434.608,291.062,712.52c-4.599,259.048-100.624,482.287-282.604,667.056
	C1508.531,1865.917,1259.525,1968.678,1001.422,1967.807z M1001.203,111.573C843.242,109.74,675.32,155.435,532.482,245.86
	C399.88,329.805,295.559,440.457,221.23,579.002c-64.463,120.156-99.996,248.556-103.825,384.621
	c-6.985,248.228,74.636,464.596,246.27,643.776c169.545,177,379.99,268.439,624.915,272.119
	c239.652,3.601,449.06-79.024,622.363-244.61c172.393-164.717,265.738-368.667,273.331-607.307
	c8.466-266.105-85.494-493.359-279.378-676.435C1436.003,191.679,1233.089,114.026,1001.203,111.573z M170.422,999.763
	c2.243-221.873,75.339-411.992,223.777-569.939c166.57-177.238,374.237-267.166,617.759-264.435
	c222.371,2.495,415.253,83.966,573.041,240.76c157.597,156.605,241.057,347.714,245.551,570.783
	c4.819,239.252-79.127,444.314-249.452,611.476c-168.837,165.702-374.505,245.059-610.73,236.801
	c-222.437-7.776-412.786-94.216-567.168-254.516C249.017,1410.601,172.916,1217.45,170.422,999.763z M1343.232,734.463
	c-1.16-1.886-1.773-2.692-2.182-3.59c-0.685-1.507-1.247-3.071-1.849-4.615c-13.186-33.805-31.031-64.728-55.603-91.685
	c-22.013-24.15-47.333-43.962-76.111-59.293c-45.297-24.13-93.978-34.151-145.004-34.121c-57.389,0.035-114.778,0.008-172.168,0.008
	c-44.3,0-88.602-0.146-132.901,0.053c-28.531,0.128-50.41,23.889-50.403,48.764c0.068,270.837,0.038,541.674,0.056,812.511
	c0.001,15.214,9.676,28.378,24.622,30.531c13.813,1.989,27.968,2.016,41.979,2.134c23.649,0.198,38.038-14.286,38.062-38.156
	c0.088-88.601,0.018-177.201,0.036-265.802c0-2.555,0.316-5.11,0.5-7.913c73.783,0,146.864,0,220.108,0
	c16.674,24.191,32.989,48.434,49.902,72.253c21.189,29.84,43.017,59.225,64.299,88.999c28.646,40.078,57.004,80.361,85.546,120.514
	c12.251,17.235,27.417,30.671,47.523,38.551c20.399,7.995,42.057,8.809,62.15,4.669c46.449-9.572,56.454-51.755,42.528-90.604
	c-10.875-1.002-21.562-1.514-32.097-3.066c-16.706-2.461-31.797-9.86-42.198-22.743c-23.029-28.522-44.611-58.214-66.766-87.442
	c-21.92-28.917-43.897-57.791-65.693-86.801c-10.723-14.272-21.094-28.809-31.976-43.707
	c99.918-24.15,158.86-90.624,195.309-182.101c4.707,0,9.713-0.001,14.719,0c25.842,0.007,51.684,0.021,77.526,0.021
	c21.151,0,41.182-14.061,43.478-33.698c1.298-11.101,1.532-22.326,2.329-34.791c-42.201,0-82.603,0-122.459,0
	c0-21.174,0-41.108,0-62.403c3.328,0,6.911-0.001,10.494,0c23.493,0.005,46.985-0.003,70.478,0.022
	c13.772,0.015,23.95-6.436,32.153-17.097c11.536-14.992,8.693-32.01,8.27-49.402C1432.592,734.463,1388.05,734.463,1343.232,734.463
	z M1226.486,727.383c-8.491-14.738-18.387-28.3-30.214-40.713c-37.795-39.666-84.742-58.066-138.501-58.682
	c-78.18-0.896-156.378-0.23-234.568-0.23c-3.567,0-7.134,0-10.809,0c0,136.903,0,272.599,0,408.79c4.351,0,8.001,0,11.651,0
	c79.868,0,159.737,0.206,239.603-0.209c12.867-0.067,26.016-1.668,38.526-4.677c42.503-10.222,77.521-32.796,104.635-67.137
	c7.699-9.75,15.782-19.497,20.021-32.812c-32.609,0-64.346,0-96.968,0c-0.669-13.372-2.414-26.132,1.46-38.288
	c5.925-18.593,22.104-29.806,41.753-29.981c22.817-0.204,45.638-0.025,68.458-0.057c2.903-0.004,5.806-0.283,8.556-0.427
	c2.921-20.975,4.733-41.131-0.216-62.42c-40.172,0-80.209,0-119.979,0c0-10.486-0.231-19.787,0.047-29.072
	c0.626-20.928,21.551-37.469,38.582-37.096c19.765,0.432,39.548,0.101,60.99,0.101
	C1228.008,730.905,1227.438,729.034,1226.486,727.383z"/>
</svg>
