<?xml version="1.0" encoding="iso-8859-1"?>
<!-- Generator: Adobe Illustrator 19.0.0, SVG Export Plug-In . SVG Version: 6.00 Build 0)  -->
<svg version="1.1" id="Layer_1" xmlns="http://www.w3.org/2000/svg" xmlns:xlink="http://www.w3.org/1999/xlink" x="0px" y="0px"
	 viewBox="0 0 500 500" enable-background="new 0 0 500 500" xml:space="preserve">
<path d="M348.119,139.466c-12.988,86.727-25.912,173.035-38.837,259.342c-0.312,0.021-0.624,0.042-0.936,0.064
	c-41.412-93.962-82.823-187.924-124.537-282.57C239.068,124.091,293.497,131.765,348.119,139.466z M179.521,121.572
	c-27.909,123.743-55.818,247.486-83.875,371.888c6.505-4.549,12.483-8.695,18.425-12.893c8.679-6.131,17.366-12.253,25.988-18.463
	c12.955-9.331,25.809-18.801,38.794-28.089c13.246-9.474,26.6-18.796,39.898-28.198c0.602-0.426,1.026-1.189,1.672-1.454
	c5.174-2.125,4.729-6.064,3.924-10.561c-2.114-11.802-3.844-23.672-5.844-35.496c-1.572-9.295-3.408-18.545-4.959-27.843
	c-1.425-8.541-2.609-17.122-3.929-25.681c-1.275-8.271-2.562-16.54-3.891-24.802c-1.449-9.008-2.957-18.006-4.429-27.01
	c-1.778-10.881-3.573-21.76-5.308-32.648c-1.37-8.596-2.612-17.212-3.997-25.806c-1.77-10.982-3.626-21.951-5.445-32.925
	c-1.589-9.585-3.197-19.168-4.76-28.757c-0.611-3.745-1.123-7.506-1.68-11.26C179.91,121.575,179.716,121.574,179.521,121.572z
	 M227.584,399.937c26.22,0.614,52.215,1.222,78.747,1.843c-41.479-94.242-82.862-188.268-124.245-282.293
	c-0.25,0.06-0.5,0.121-0.75,0.181C196.752,213.093,212.168,306.518,227.584,399.937z M347.497,136.257
	c-5.239-22.501-10.391-44.625-15.69-67.378c-47.362,14.908-94.765,29.829-142.169,44.75c-0.029,0.207-0.059,0.413-0.088,0.62
	C241.937,121.548,294.324,128.847,347.497,136.257z M350.684,142.667c-12.298,82.47-24.502,164.315-36.707,246.161
	c0.225,0.047,0.449,0.094,0.674,0.141c1.536-5.323,3.126-10.631,4.595-15.972c2.472-8.991,4.843-18.01,7.298-27.005
	c5.496-20.136,11.028-40.262,16.525-60.397c4.697-17.204,9.342-34.423,14.054-51.623c5.513-20.124,11.089-40.231,16.559-60.366
	c0.251-0.925,0.089-2.341-0.478-3.053C365.903,161.381,358.493,152.298,350.684,142.667z M187.421,111.209
	c47.936-15.076,95.872-30.152,144.153-45.337c-13.838-5.997-27.435-11.571-40.718-17.813c-4.913-2.309-7.93-1.001-11.963,1.814
	c-12.701,8.866-25.808,17.148-38.717,25.718c-14.249,9.46-28.454,18.987-42.678,28.485c-3.424,2.286-6.847,4.575-10.27,6.862
	C187.292,111.029,187.356,111.119,187.421,111.209z M394.776,46.47c-23.697-6.683-47.395-13.365-71.703-20.22
	c1.073,4.026,1.92,7.353,2.848,10.659c2.338,8.334,4.797,16.636,7.023,25c0.69,2.594,2.465,1.723,3.756,1.408
	c7.524-1.835,15-3.864,22.497-5.808c10.496-2.721,21.001-5.405,31.489-8.157c1.303-0.342,2.522-1.002,3.781-1.514
	C394.57,47.381,394.673,46.925,394.776,46.47z M235.031,20.671c24.069,10.469,47.357,20.6,70.646,30.73
	c0.131-0.158,0.262-0.316,0.393-0.475c-3.976-4.482-7.955-8.96-11.926-13.446c-7.076-7.991-14.135-15.996-21.228-23.972
	c-1.823-2.051-3.663-4.102-5.668-5.968c-0.625-0.581-2.04-1.04-2.715-0.73C254.988,11.194,245.507,15.718,235.031,20.671z
	 M278.386,46.605c-10.309,4.074-20.61,8.169-30.929,12.216c-11.592,4.546-23.2,9.05-34.802,13.57
	c-0.689,0.269-1.369,0.607-2.086,0.751c-5.714,1.151-9.007,4.733-11.538,9.912c-3.961,8.108-8.656,15.857-13.023,23.768
	c-0.286,0.517-0.432,1.112-0.862,2.252c31.544-20.887,62.581-41.438,93.618-61.989C278.637,46.925,278.512,46.765,278.386,46.605z
	 M276.496,44.46c-21.471,0.797-42.941,1.595-64.68,2.402c-3.021,8.909-6.021,17.757-9.125,26.91
	c24.868-9.71,49.387-19.284,73.906-28.857C276.563,44.763,276.529,44.611,276.496,44.46z M212.37,44.003
	c21.91-0.603,42.895-1.18,64.932-1.786c-2.659-1.348-4.484-2.377-6.391-3.223c-11.438-5.072-22.931-10.024-34.322-15.199
	c-2.974-1.351-4.634-0.6-6.674,1.767c-3.935,4.562-8.317,8.738-12.502,13.085C215.922,40.195,214.465,41.775,212.37,44.003z
	 M310.14,52.189c2.771-8.277,5.396-16.118,8.093-24.175c-15.004-6.442-29.959-12.862-45.522-19.543
	C285.314,23.192,297.53,37.46,310.14,52.189z M320.833,24.903c-2.84-3.033-5.664-6.081-8.523-9.096
	c-2.973-3.136-5.917-6.305-9.011-9.32c-0.903-0.88-2.266-1.801-3.43-1.818c-10.14-0.142-20.282-0.082-30.865-0.082
	c17.331,7.058,34.342,13.986,51.352,20.914C320.515,25.302,320.674,25.103,320.833,24.903z M320.767,29.717
	c-2.904,8.07-5.538,15.253-7.997,22.496c-0.178,0.525,0.728,1.812,1.427,2.18c5.065,2.664,10.207,5.182,16.186,8.178
	C327.115,51.406,324.054,40.948,320.767,29.717z"/>
</svg>
