<?xml version="1.0" encoding="iso-8859-1"?>
<!-- Generator: Adobe Illustrator 19.0.0, SVG Export Plug-In . SVG Version: 6.00 Build 0)  -->
<svg version="1.1" id="Layer_1" xmlns="http://www.w3.org/2000/svg" xmlns:xlink="http://www.w3.org/1999/xlink" x="0px" y="0px"
	 viewBox="0 0 500 500" enable-background="new 0 0 500 500" xml:space="preserve">
<path d="M250.635,5.005C384.732,4.288,495.576,115.754,493.57,251.395c-1.974,133.543-112.083,242.81-248.979,240.14
	C113.498,488.977,3.889,379.343,6.913,242.75C9.828,111.053,118.429,4.148,250.635,5.005z M315.341,268.295
	c2.49-2.575,4.476-4.689,6.525-6.739c30.365-30.366,37.408-77.126,17.313-115.025c-20.183-38.066-62.789-58.488-104.898-50.279
	c-47.335,9.228-79.14,48.482-79.302,98.557c-0.207,64.169-0.058,128.34-0.029,192.509c0.001,2.61,0.338,5.22,0.535,8.071
	c14.721,0,28.814,0,43.976,0c0-35.242,0-69.598,0-104.528c3.388-0.245,5.738-0.554,8.088-0.561
	c14.584-0.043,29.169-0.114,43.752,0.003c31.562,0.253,54.168,22.611,54.629,54.122c0.21,14.338,0.007,28.682,0.087,43.022
	c0.014,2.563,0.495,5.123,0.786,7.936c14.808,0,28.881,0,43.161,0c0.286-2.523,0.638-4.175,0.636-5.827
	c-0.025-17.257,0.636-34.555-0.34-51.76C348.685,310.05,336.645,287.023,315.341,268.295z M254.81,245.437
	c29.115-0.693,51.649-24.983,51.102-54.506c-0.532-28.71-24.306-52.024-53.074-52.048c-29.214-0.024-53.258,23.454-53.495,52.378
	c-0.125,15.31-0.046,30.623,0.001,45.934c0.007,2.355,0.337,4.709,0.615,8.321C218.93,245.516,236.879,245.864,254.81,245.437z"/>
</svg>
