<?xml version="1.0" encoding="iso-8859-1"?>
<!-- Generator: Adobe Illustrator 19.0.0, SVG Export Plug-In . SVG Version: 6.00 Build 0)  -->
<svg version="1.1" id="Layer_1" xmlns="http://www.w3.org/2000/svg" xmlns:xlink="http://www.w3.org/1999/xlink" x="0px" y="0px"
	 viewBox="0 0 500 500" enable-background="new 0 0 500 500" xml:space="preserve">
<path d="M253.632,461.547c1.248-0.882,2.434-1.871,3.753-2.631c18.819-10.853,34.879-25.019,49.541-40.92
	c6.43-6.974,12.468-14.258,17.901-22.005c4.38-6.245,8.365-12.774,12.352-19.284c2.626-4.287,5.055-8.706,7.358-13.176
	c1.431-2.776,2.415-5.78,3.685-8.643c1.357-3.061,2.963-6.02,4.188-9.131c1.479-3.756,2.681-7.621,3.984-11.445
	c1.373-4.032,2.718-8.075,4.09-12.108c0.217-0.638,0.608-1.229,0.748-1.878c1.418-6.611,3.145-13.179,4.114-19.857
	c1.621-11.163,3.023-22.374,4.004-33.61c0.797-9.12,0.535-18.296-0.795-27.398c-0.065-0.447-0.155-0.895-0.171-1.345
	c-0.372-10.767-2.355-21.336-4.546-31.816c-1.021-4.883-1.511-10.06-4.101-14.56c-0.111-0.193-0.193-0.414-0.238-0.633
	c-2.166-10.547-7.294-19.959-11.225-29.843c-4.472-11.243-10.536-21.518-16.817-31.772c-8.405-13.721-18.716-25.848-29.752-37.45
	c-9.439-9.923-19.883-18.694-30.885-26.77c-6.15-4.514-12.782-8.381-19.285-12.398c-4.196-2.592-8.523-4.979-12.848-7.356
	c-1.963-1.079-4.025-1.999-6.105-2.835c-5.208-2.093-10.456-4.087-15.676-6.152c-0.588-0.233-1.097-0.668-2.21-1.364
	c1.148-0.577,1.828-1.171,2.564-1.251c11.225-1.23,22.456-2.514,33.78-1.817c4.166,0.256,8.321,0.701,12.476,1.108
	c4.153,0.407,8.3,0.876,12.45,1.318c1.011,0.108,2.044,0.113,3.03,0.334c8.582,1.926,17.27,3.495,25.698,5.953
	c8.842,2.578,17.646,5.423,25.965,9.539c6.44,3.186,13.215,5.763,19.423,9.337c9.24,5.319,18.218,11.065,26.635,17.726
	c9.77,7.732,18.816,16.167,27.349,25.2c7.761,8.217,14.72,17.061,20.694,26.657c4.325,6.947,8.616,13.918,12.727,20.991
	c1.565,2.692,2.606,5.693,3.845,8.57c0.973,2.259,1.886,4.544,2.821,6.819c1.495,3.636,3.057,7.246,4.457,10.918
	c1.159,3.038,2.338,6.096,3.131,9.241c1.57,6.227,2.831,12.531,4.309,18.783c2.29,9.682,3.647,19.521,4.301,29.413
	c0.431,6.506-0.007,13.078-0.207,19.616c-0.159,5.186-0.483,10.37-0.849,15.547c-0.477,6.732-1.111,13.441-2.771,20.024
	c-0.882,3.499-1.242,7.131-2.158,10.619c-1.198,4.56-2.687,9.045-4.099,13.547c-1.176,3.753-2.32,7.52-3.666,11.213
	c-1.189,3.262-2.582,6.454-3.989,9.631c-1.131,2.554-2.325,5.09-3.653,7.547c-3.942,7.291-7.611,14.764-12.043,21.748
	c-5.779,9.107-12.256,17.734-19.373,25.908c-10.29,11.817-21.924,22.133-34.286,31.632c-7.4,5.686-15.269,10.764-23.625,15.007
	c-6.526,3.314-12.942,6.889-19.644,9.801c-6.075,2.64-12.429,4.67-18.737,6.729c-5.565,1.817-11.168,3.624-16.88,4.858
	c-7.931,1.714-15.964,2.983-23.983,4.257c-4.337,0.689-8.731,1.052-13.11,1.425c-1.132,0.097-2.309-0.322-3.465-0.504
	C253.752,462.256,253.692,461.902,253.632,461.547z M293.378,369.489c0.815-0.624,1.764-1.134,2.418-1.897
	c1.318-1.536,2.493-3.196,3.695-4.829c4.336-5.887,8.853-11.653,12.926-17.717c3.494-5.201,6.55-10.704,9.646-16.161
	c1.435-2.53,2.564-5.242,3.725-7.918c1.337-3.082,2.59-6.202,3.819-9.33c1.478-3.763,3.076-7.492,4.283-11.343
	c1.308-4.173,2.144-8.491,3.328-12.706c2.606-9.28,4.11-18.791,4.57-28.349c0.728-15.112,1.11-30.281-1.636-45.288
	c-1.217-6.654-2.41-13.329-4.057-19.884c-1.228-4.888-3.145-9.604-4.798-14.382c-1.1-3.18-2.085-6.418-3.462-9.478
	c-1.879-4.174-4.019-8.234-6.155-12.287c-7.835-14.864-16.719-28.959-28.549-41.101c-12.565-12.896-25.934-24.74-41.74-33.516
	c-8.051-4.47-16.177-8.906-24.625-12.527c-7.319-3.137-15.055-5.422-22.765-7.496c-7.712-2.076-15.474-4.207-23.577-4.373
	c-1.569-0.032-3.123-0.515-4.695-0.668c-5.277-0.512-10.555-1.036-15.841-1.435c-11.486-0.867-22.698,1.936-34.067,2.673
	c-1.441,0.093-2.85,0.675-4.276,1.022c-1.426,0.346-2.866,0.636-4.279,1.027c-8.147,2.254-16.386,4.237-24.398,6.9
	c-5.516,1.833-10.845,4.368-16.026,7.04c-7.586,3.912-15.144,7.938-22.382,12.448c-7.939,4.947-15.055,11.043-22.113,17.207
	c-9.062,7.915-16.334,17.454-24.503,26.174c-0.404,0.431-0.311,1.326-0.601,2.75c1.551-0.695,2.426-1.077,3.291-1.478
	c5.406-2.504,10.716-5.248,16.244-7.448c4.802-1.911,9.827-3.279,14.794-4.751c4.209-1.248,8.422-2.6,12.729-3.374
	c7.322-1.315,14.702-2.347,22.087-3.253c14.082-1.728,28.168-1.585,42.282-0.042c5.843,0.639,11.652,1.213,17.368,2.672
	c5.56,1.419,11.279,2.275,16.759,3.937c9.004,2.731,17.922,5.641,26.479,9.778c11.6,5.608,23.559,10.414,33.551,18.892
	c5.835,4.951,12.137,9.354,17.93,14.35c9.064,7.818,17.489,16.323,24.66,25.938c4.691,6.291,9.143,12.776,13.396,19.372
	c3.459,5.364,6.536,10.981,9.636,16.567c1.356,2.443,2.418,5.06,3.48,7.653c1.272,3.106,2.428,6.26,3.587,9.41
	c1.665,4.524,3.441,9.016,4.885,13.61c1.281,4.077,1.845,8.397,3.317,12.391c2.175,5.9,2.818,12.106,3.762,18.177
	c2.016,12.969,2.237,26.097,1.823,39.233c-0.36,11.445-2.388,22.663-4.144,33.923c-0.152,0.974-0.815,1.856-1.108,2.822
	c-0.635,2.093-1.185,4.212-1.77,6.32C292.647,368.996,293.012,369.243,293.378,369.489z M463.979,242.257
	c-0.902,14.731-0.733,29.524-2.55,44.204c-0.081,0.654-0.033,1.385,0.181,2.002c0.807,2.33,1.547,4.703,2.601,6.923
	c4.264,8.976,6.75,18.569,9.531,28.026c1.57,5.338,3.438,10.739,3.342,16.473c-0.007,0.44,0.073,0.933,0.275,1.317
	c2.182,4.152,2.055,8.72,2.412,13.198c0.251,3.149-0.114,6.483,0.815,9.411c1.374,4.327,1.2,8.649,1.497,13.022
	c0.616,9.062-0.055,18.066-0.813,27.065c-0.511,6.069-1.375,12.111-2.163,18.154c-0.244,1.871-0.705,3.721-1.167,5.555
	c-0.351,1.393-0.811,2.738,0.848,4.191c0.467-1.73,0.838-3.105,1.209-4.479c1.05-1.058,2.137-2.171,2.53-3.492
	c1.055-3.547,1.949-7.156,2.658-10.789c1.165-5.966,2.13-11.971,3.186-17.959c0.235-1.332,0.369-2.698,0.77-3.98
	c1.362-4.357,1.923-8.801,1.909-13.36c-0.01-3.045-0.009-6.123,0.4-9.129c2.152-15.81,0.868-31.544-0.986-47.249
	c-0.897-7.603-1.955-15.215-4.554-22.496c-0.224-0.627-0.302-1.33-0.322-2.001c-0.088-3.075-0.319-6.07-2.296-8.68
	c-0.499-0.659-0.608-1.713-0.655-2.597c-0.236-4.508-2.602-8.35-3.893-12.523c-1.12-3.621-2.719-7.097-4.166-10.613
	c-0.722-1.754-1.583-3.451-2.372-5.178c-1.67-3.657-3.308-7.328-5.01-10.969c-0.738-1.578-1.601-3.096-2.66-5.125
	C464.078,242.056,463.985,242.154,463.979,242.257z M199.745,143.906c-7.814-4.895-16.209-8.611-24.755-11.997
	c-0.8-0.317-1.859-0.526-2.63-0.274c-3.175,1.039-6.346,2.137-9.406,3.471c-4.33,1.887-8.584,3.955-12.827,6.033
	c-4.326,2.119-8.728,4.128-12.865,6.577c-5.587,3.307-11.008,6.905-16.396,10.535c-4.184,2.818-8.345,5.704-12.268,8.868
	c-5.154,4.156-10.241,8.429-15.031,12.993c-5.449,5.191-10.61,10.692-15.755,16.191c-2.379,2.543-4.414,5.406-6.617,8.114
	c-2.49,3.062-5.01,6.101-7.481,9.178c-0.735,0.915-1.575,1.887-0.515,3.551c1.337-1.107,2.575-2.042,3.712-3.088
	c5.634-5.183,11.143-10.507,16.896-15.552c3.211-2.815,6.925-5.05,10.215-7.784c6.419-5.333,13.633-9.407,20.811-13.548
	c3.768-2.174,7.547-4.334,11.391-6.367c4.634-2.451,9.239-5,14.045-7.069c5.358-2.306,11.117-3.729,16.346-6.268
	c4.326-2.1,9.001-2.716,13.428-4.307c4.713-1.694,9.591-3.322,14.742-3.49c0.646-0.021,1.273-0.423,1.92-0.613
	c1.706-0.501,3.39-1.158,5.134-1.432c3.288-0.516,6.611-0.807,10.586-1.268C201.184,145.21,200.555,144.414,199.745,143.906z
	 M323.776,125.588c-3.292-0.718-6.172-0.961-8.732-1.996c-3.634-1.47-7.332-1.37-11.586-1.781c0.901,1.26,1.461,2.074,2.053,2.864
	c2.014,2.687,4.308,5.208,6.01,8.079c4.385,7.399,8.509,14.952,12.739,22.443c1.035,1.832,2.075,3.661,2.913,5.14
	c7.243,1.603,12.936,5.486,19.426,7.989C340.533,153.029,334.328,137.866,323.776,125.588z"/>
</svg>
