<?xml version="1.0" encoding="iso-8859-1"?>
<!-- Generator: Adobe Illustrator 19.0.0, SVG Export Plug-In . SVG Version: 6.00 Build 0)  -->
<svg version="1.1" id="Layer_1" xmlns="http://www.w3.org/2000/svg" xmlns:xlink="http://www.w3.org/1999/xlink" x="0px" y="0px"
	 viewBox="0 0 2000 2000" style="enable-background:new 0 0 2000 2000;" xml:space="preserve">
<path d="M1095.429,1890.972c53.449-78.515,106.251-156.08,156.579-230.01c40.272,0,77.501,1.731,114.524-0.301
	c157.266-8.629,297.075-123.092,336.612-273.857c41.813-159.445-40.447-390.615-249.052-441.616
	c-29.052-7.103-59.665-10.742-89.583-10.908c-178.882-0.99-357.772-0.491-536.659-0.491c-7.695,0-15.389,0-24.201,0
	c-2.387-5.433-4.898-10.467-6.856-15.708c-22.471-60.17-44.9-120.356-67.202-180.589c-2.22-5.996-4.128-12.23-5.165-18.52
	c-6.78-41.147,11.367-63.216,53.005-63.422c182.729-0.905,365.482-3.565,548.184-1.629c157.531,1.67,302.945,46.786,425.276,148.19
	c185.096,153.433,302.083,428.075,187.448,716.763c-66.85,168.349-176.414,298.704-345.941,370.13
	c-161.699,68.127-326.163,59.682-490.305,6.198C1100.34,1894.632,1098.87,1893.193,1095.429,1890.972z M1140.016,1664.9
	c-115.15,0-230.299-0.02-345.449,0.043c-8.35,0.005-16.734,0.233-25.044,0.999c-70.347,6.483-140.182,2.932-208.925-13.296
	c-75.658-17.859-143.601-49.776-189.413-116.209c-44.899-65.11-68.461-137.89-71.27-216.802
	c-3.978-111.754,36.688-208.555,102.36-296.49c7.241-9.696,14.687-19.238,22.319-29.22
	c-40.624-84.457-80.84-168.068-121.871-253.371c-105.45,91.713-189.816,195.551-242.691,323.033
	c-31.748,76.546-47.893,156.24-41.329,239.091c9.079,114.596,38.872,223.883,92.208,326.064
	c55.241,105.831,131.34,193.07,239.961,245.522c178.876,86.377,362.59,93.68,547.255,19.091
	c111.948-45.218,196.44-124.501,264.917-228.455C1152.549,1664.9,1146.283,1664.9,1140.016,1664.9z M1681.156,610.379
	c-63.758-375.405-428.193-622.193-801.445-539.311c-225.978,50.179-386.169,180.121-462.601,403.607
	c-19.572,57.229-30.973,116.289-36.439,177.675c94.559,0,187.632,0,277.84,0c13.392-38.364,23.668-76.41,39.574-111.934
	c87.372-195.142,269.805-237.887,402.635-207.331c132.182,30.407,217.135,116.263,268.345,238.784
	c6.61,15.816,12.24,32.041,18.416,48.318c98.351,0,195.381,0,294.164,0C1681.425,615.392,1681.574,612.837,1681.156,610.379z
	 M363.986,696.66c145.952,307.711,291.013,613.544,437.453,922.284c47.097-58.641,92.116-113.885,135.909-170.085
	c6.647-8.531,8.916-21.261,10.948-32.459c7.68-42.328-3.605-81.563-21.81-119.256c-55.3-114.497-110.791-228.902-166.184-343.354
	c-41.388-85.516-82.739-171.05-124.374-257.128C544.818,696.66,455.739,696.66,363.986,696.66z M1267.657,1027.289
	c-109.319,163.52-218.035,327.448-328.464,490.214c-20.345,29.987-47.292,55.571-71.916,82.527
	c-6.341,6.941-15.431,11.371-25.655,18.664c121.207,0,238.677,0,355.745,0c107.437-168.536,214.353-335.9,320.596-503.691
	c7.305-11.537,11.463-25.933,13.83-39.564c6.92-39.847-11.64-65.265-51.802-66.39c-66.132-1.853-132.353-0.503-199.513-0.503
	C1276.317,1014.624,1271.921,1020.912,1267.657,1027.289z"/>
</svg>
