<?xml version="1.0" encoding="iso-8859-1"?>
<!-- Generator: Adobe Illustrator 19.0.0, SVG Export Plug-In . SVG Version: 6.00 Build 0)  -->
<svg version="1.1" id="Layer_1" xmlns="http://www.w3.org/2000/svg" xmlns:xlink="http://www.w3.org/1999/xlink" x="0px" y="0px"
	 viewBox="0 0 500 500" enable-background="new 0 0 500 500" xml:space="preserve">
<path d="M493.84,248.312c-81.104,82.046-162.472,162.948-243.882,245.209C168.365,411.883,87.553,331.024,6.314,249.739
	c1.102-1.417,2.027-2.912,3.239-4.119C21.607,233.619,236.229,19.019,246.641,8.643c1.019-1.015,2.227-1.841,4.054-3.33
	C331.766,86.196,412.488,167.002,493.84,248.312z M413.631,230.133c0,0-110.743-111.763-166.209-167.74
	C192.972,117.904,138.38,173.56,82.946,230.073c2.867,0.421,74.549,0.884,108.958,0.735c2.098-0.009,4.672-1.017,6.2-2.444
	c6.67-6.225,42.284-41.206,53.711-52.244c5.901,6.052,37.69,37.727,46.676,47.168c4.611,4.845,9.353,7.252,16.373,6.958
	C328.965,229.657,413.631,230.133,413.631,230.133z"/>
</svg>
