<?xml version="1.0" encoding="iso-8859-1"?>
<!-- Generator: Adobe Illustrator 19.0.0, SVG Export Plug-In . SVG Version: 6.00 Build 0)  -->
<svg version="1.1" id="Layer_1" xmlns="http://www.w3.org/2000/svg" xmlns:xlink="http://www.w3.org/1999/xlink" x="0px" y="0px"
	 viewBox="0 0 500 500" style="enable-background:new 0 0 500 500;" xml:space="preserve">
<path d="M318.526,399.338c-55.202,38.026-127.972,19.685-160.349-35.932c-38.15,15.491-74.787,12.966-108.664-11.344
	C25.146,334.576,10.665,310.361,6.13,280.72c-9.159-59.871,33.625-122.08,107.578-124.082
	c36.122-83.841,145.54-90.072,193.372-19.54c39.302-20.892,78.598-21.644,116.653,2.495c38.986,24.73,54.394,68.51,49.21,106.848
	c15.892,22.226,22.08,47.767,19.365,75.101c-2.58,25.977-13.899,48.235-32.335,66.842
	C426.054,422.619,364.84,431.975,318.526,399.338z M55.32,317.843c4.653,4.052,8.673,8.022,13.154,11.374
	c18.559,13.883,39.63,15.796,61.816,12.937c19.188-2.473,38.889-14.632,41.515-38.073c1.887-16.834-2.254-30.654-15.472-40.729
	c-9.326-7.109-20.382-9.542-31.265-12.61c-8.195-2.31-16.451-4.481-24.476-7.292c-4.46-1.562-7.776-4.786-7.865-10.219
	c-0.118-7.203,3.384-11.907,11.364-13.644c14.478-3.153,27.644-0.202,39.086,9.496c1.652,1.4,3.319,2.784,5.515,4.625
	c6.74-7.323,13.159-14.297,19.583-21.276c-19.691-20.198-44.768-26.249-70.351-20.331c-10.36,2.396-19.588,7.25-26.623,15.603
	c-8.076,9.59-10.158,20.916-8.813,32.882c1.289,11.472,6.3,21.4,16.997,26.611c8.802,4.288,18.311,7.184,27.626,10.345
	c9.014,3.059,18.321,5.288,27.232,8.601c6.648,2.471,8.419,8.386,7.561,15.015c-0.79,6.101-4.458,9.948-10.339,11.466
	c-15.797,4.075-30.907,2.767-44.725-6.522c-3.394-2.282-6.31-5.275-9.582-8.057C70.413,304.222,63.681,310.297,55.32,317.843z
	 M298.849,341.026c10.701,0,20.97,0,31.78,0c-18.841-49.678-37.584-99.098-56.254-148.325c-9.967,0-19.181,0-28.886,0
	c-18.749,49.271-37.508,98.568-56.383,148.17c10.617,0,20.665,0,30.837,0c3.981-11.053,7.901-21.935,11.788-32.727
	c18.528,0,36.684,0,55.17,0C290.867,319.056,294.83,329.963,298.849,341.026z M360.41,192.686c0,49.715,0,98.94,0,148.092
	c34.733,0,69.053,0,103.339,0c0-9.519,0-18.7,0-28.353c-25.012,0-49.799,0-75.017,0c0-40.172,0-79.87,0-119.739
	C379.11,192.686,369.926,192.686,360.41,192.686z M242.296,280.067c11.683,0,22.642,0,34.079,0
	c-5.723-16.695-11.329-33.052-17.043-49.722C253.614,247.037,247.999,263.425,242.296,280.067z"/>
</svg>
