<?xml version="1.0" encoding="iso-8859-1"?>
<!-- Generator: Adobe Illustrator 19.0.0, SVG Export Plug-In . SVG Version: 6.00 Build 0)  -->
<svg version="1.1" id="Layer_1" xmlns="http://www.w3.org/2000/svg" xmlns:xlink="http://www.w3.org/1999/xlink" x="0px" y="0px"
	 viewBox="0 0 500 500" style="enable-background:new 0 0 500 500;" xml:space="preserve">
<path id="XMLID_4_" d="M35.299,482.744c2.666-5.608,5.333-11.216,7.996-16.826c0.181-0.382,0.327-0.78,0.507-1.163
	c4.629-9.858,9.277-19.708,13.885-29.576c5.272-11.289,10.51-22.595,15.762-33.894c4.97-10.694,9.938-21.39,14.909-32.084
	c5.227-11.244,10.458-22.486,15.685-33.731c4.946-10.641,9.888-21.283,14.834-31.924c5.227-11.245,10.459-22.489,15.685-33.734
	c4.87-10.477,9.733-20.958,14.603-31.435c5.329-11.464,10.663-22.926,15.993-34.39c4.898-10.533,9.793-21.066,14.69-31.599
	c5.305-11.41,10.614-22.818,15.917-34.229c4.843-10.424,9.674-20.853,14.52-31.275c5.331-11.465,10.675-22.925,16.008-34.389
	c5-10.749,10.005-21.497,14.987-32.255c3.685-7.958,7.336-15.931,11.007-23.895c0.298-0.647,0.627-1.28,1.134-2.311
	c1.293,2.715,2.438,5.069,3.541,7.444c1.272,2.741,2.485,5.509,3.763,8.247c3.759,8.06,7.55,16.106,11.306,24.167
	c5.085,10.912,10.147,21.834,15.222,32.751c5.126,11.024,10.259,22.044,15.384,33.069c5.048,10.861,10.085,21.727,15.133,32.588
	c5.149,11.08,10.308,22.156,15.458,33.236c4.869,10.475,9.728,20.955,14.598,31.429c5.304,11.408,10.619,22.811,15.924,34.219
	c4.973,10.694,9.938,21.392,14.908,32.088c5.226,11.246,10.456,22.49,15.682,33.735c4.997,10.751,9.99,21.503,14.987,32.254
	c5.201,11.191,10.406,22.38,15.607,33.57c4.972,10.697,9.939,21.396,14.911,32.093c5.202,11.19,10.407,22.378,15.61,33.567
	c5.025,10.807,10.052,21.612,15.067,32.424c0.329,0.71,0.568,1.462,0.849,2.195c-144.812,0-289.625,0-434.437-0.015
	C36.389,483.092,35.844,482.865,35.299,482.744z M253.462,141.973c-0.466,0.896-0.785,1.455-1.055,2.038
	c-4.218,9.111-8.421,18.229-12.646,27.337c-5.091,10.974-10.202,21.94-15.303,32.91c-5.102,10.971-10.203,21.943-15.303,32.915
	c-5.151,11.08-10.301,22.161-15.452,33.241c-5.023,10.806-10.045,21.613-15.07,32.418c-5.331,11.464-10.665,22.926-15.995,34.39
	c-4.871,10.477-9.738,20.956-14.607,31.434c-5.176,11.138-10.346,22.279-15.534,33.411c-3.809,8.172-7.645,16.331-11.462,24.499
	c-0.192,0.41-0.315,0.853-0.506,1.382c88.671,0,177.165,0,265.823,0c-2.025-4.457-3.944-8.748-5.919-13.014
	c-4.955-10.703-9.934-21.395-14.905-32.091c-5.201-11.192-10.404-22.383-15.606-33.574c-4.998-10.752-9.997-21.504-14.995-32.256
	c-5.177-11.136-10.354-22.273-15.531-33.409c-5.025-10.808-10.052-21.615-15.075-32.424c-5.074-10.917-10.142-21.837-15.216-32.754
	c-5.126-11.028-10.243-22.06-15.387-33.079c-4.377-9.377-8.79-18.737-13.179-28.108c-0.538-1.148-1.01-2.327-1.546-3.477
	C257.208,149.94,255.411,146.124,253.462,141.973z"/>
</svg>
