<?xml version="1.0" encoding="iso-8859-1"?>
<!-- Generator: Adobe Illustrator 19.0.0, SVG Export Plug-In . SVG Version: 6.00 Build 0)  -->
<svg version="1.1" id="Layer_1" xmlns="http://www.w3.org/2000/svg" xmlns:xlink="http://www.w3.org/1999/xlink" x="0px" y="0px"
	 viewBox="0 0 500 500" style="enable-background:new 0 0 500 500;" xml:space="preserve">
<path d="M249.83,490.615c-137.833-1.482-242.75-117.128-239.768-246.55C13.003,116.417,120.99,5.545,256.689,8.758
	c133.355,3.158,238.3,116.81,235.106,246.874C488.746,379.774,385.358,490.524,249.83,490.615z M475.35,249.193
	c-0.203-125.475-99.421-224.223-224.819-224.208C130.861,25,26.098,118.336,26.336,249.992
	c0.234,129.784,102.704,224.565,224.992,224.21C381.371,473.826,476.512,369.518,475.35,249.193z M308.192,146.839
	c-1.428-1.278-2.081-2.156-2.955-2.602c-24.528-12.516-50.425-14.442-76.786-8.355c-14.466,3.341-25.656,12.295-31.433,26.451
	c-10.102,24.755-8.525,59.113,19.594,80.632c7.669,5.869,16.255,10.523,24.192,16.061c8.489,5.924,17.153,11.727,24.922,18.52
	c7.925,6.93,11.054,16.531,11.164,27.058c0.176,16.761-8.256,26.53-24.898,29.001c-11.921,1.771-23.498,0.189-34.778-3.598
	c-6.482-2.176-12.745-5.003-20.012-7.897c-4.692,10.168-7.962,20.482-11.202,31.003c1.939,1.303,3.254,2.453,4.774,3.168
	c24.649,11.584,50.362,14.765,76.9,8.623c15.454-3.577,28.4-11.977,36.099-25.989c12.78-23.258,12.274-47.177-0.103-70.548
	c-8.025-15.152-21.214-25.316-35.387-34.347c-8.464-5.394-16.905-10.848-25.066-16.682c-3.607-2.578-6.874-5.864-9.635-9.35
	c-7.35-9.28-7.95-19.767-3.725-30.423c4.134-10.427,13.749-11.986,23.246-12.422c12.967-0.594,25.46,2.179,37.45,7.175
	c2.467,1.028,5.01,1.876,8.523,3.179C302.283,165.416,305.272,156.017,308.192,146.839z M105.468,218.521
	c-15.045-0.165-27.413,11.682-27.696,26.527c-0.276,14.507,12.191,27.356,26.8,27.622c14.942,0.272,27.192-11.667,27.39-26.694
	C132.165,230.661,120.609,218.687,105.468,218.521z M370.231,245.842c0.188,15.036,12.37,26.979,27.348,26.813
	c14.729-0.164,27.051-12.782,26.826-27.473c-0.229-14.958-12.493-26.845-27.506-26.659
	C381.723,218.71,370.041,230.677,370.231,245.842z"/>
</svg>
