<?xml version="1.0" encoding="iso-8859-1"?>
<!-- Generator: Adobe Illustrator 19.0.0, SVG Export Plug-In . SVG Version: 6.00 Build 0)  -->
<svg version="1.1" id="Layer_1" xmlns="http://www.w3.org/2000/svg" xmlns:xlink="http://www.w3.org/1999/xlink" x="0px" y="0px"
	 viewBox="0 0 2000 2000" style="enable-background:new 0 0 2000 2000;" xml:space="preserve">
<path d="M213.431,1586.955c12.712,0,23.297,0.001,33.882,0c253.028-0.034,506.07,1.574,759.077-0.723
	c149.888-1.361,281.596-54.996,391.557-157.398c105.48-98.229,166.889-219.857,183.068-363.4
	c17.713-157.155-23.98-298.003-120.284-422.617c-20.455-26.467-45.157-49.661-68.021-74.252
	c-6.503-6.995-13.424-13.601-22.564-22.815c166.547,0,329.276,0,492.256,0c206.917,351.233,155.212,917.766-277.648,1238.568
	C1118.483,2129.88,503.642,1987.438,213.431,1586.955z M1769.305,396.353c-77.457-96.632-169.048-176.48-276.064-239.581
	c-133.169-78.521-276.9-122.416-430.155-132.228c-112.877-7.226-224.458,3.962-334.414,35.556
	c-196.774,56.541-359.582,163.65-490.356,319.697C159.703,473.604,101.901,579.75,63.702,696.252
	c-26.803,81.746-45.165,164.734-40.659,251.75c2.019,38.996,1.622,78.234,0.064,117.272
	c-2.889,72.393,10.272,142.105,31.653,210.679c19.31,61.932,40.542,123.097,73.54,178.906c52.705,5.623,469.916,3.481,497.067-3.759
	c-5.929-3.718-10.014-5.571-13.234-8.405c-52.568-46.263-96.686-99.261-130.53-160.881
	c-46.244-84.198-69.078-174.574-73.298-269.999c-2.073-46.883,4.75-93.028,15.161-138.551
	c28.433-124.32,90.686-228.802,186.856-312.522c112.568-97.995,244.397-145.53,393.18-145.767
	c244.376-0.39,488.754-0.04,733.13-0.003c13.961,0.002,27.922,0,45.616,0C1776.32,406.399,1773.128,401.123,1769.305,396.353z
	 M1455.451,997.496c-1.752-257.569-212.783-455.386-461.551-452.814c-255.098,2.638-457.103,206.483-454.922,459.644
	c2.245,260.616,214.221,452.569,458.528,453.069C1244.996,1457.3,1457.234,1259.551,1455.451,997.496z M779.865,790.214
	c10.702-9.158,23.299-6.197,34.608-6.219c88.95-0.171,177.937,2.053,266.84,0.139c68.07-1.465,140.838,62.191,133.792,144.548
	c-2.06,24.074-13.369,47.357-22.082,76.497c2.706,5.91,8.479,17.416,13.334,29.298c35.948,87.979-35.207,181.576-117.984,182.399
	c-99.78,0.992-199.576,0.336-299.366,0.284c-1.962-0.001-3.924-1.347-9.141-3.258C779.865,1071.814,779.865,931.044,779.865,790.214
	z M1075.591,1110.345c24.53-0.429,31.34-13.86,25.475-43.132c-9.266-11.062-21.636-12.887-35.19-12.835
	c-49.816,0.19-99.633-0.198-149.449-0.06c-8.365,0.023-16.726,1.578-26.221,2.539c0,17.814,0,33.681,0,53.834
	C954.631,1110.692,1015.127,1111.403,1075.591,1110.345z M940.263,944.595c42.052,0.631,84.102,1.96,126.151,1.853
	c11.196-0.029,22.381-4.23,35.994-7.011c0.707-13.608,1.279-24.623,1.699-32.708c-13.104-12.895-24.857-15.894-38.593-15.786
	c-50.735,0.4-101.477-0.129-152.215,0.033c-7.197,0.023-14.389,1.94-22.848,3.163c0,16.402,0,31.19,0,50.418
	C908.645,944.557,924.457,944.358,940.263,944.595z"/>
</svg>
