<?xml version="1.0" encoding="iso-8859-1"?>
<!-- Generator: Adobe Illustrator 19.0.0, SVG Export Plug-In . SVG Version: 6.00 Build 0)  -->
<svg version="1.1" id="Layer_1" xmlns="http://www.w3.org/2000/svg" xmlns:xlink="http://www.w3.org/1999/xlink" x="0px" y="0px"
	 viewBox="0 0 2000 2000" style="enable-background:new 0 0 2000 2000;" xml:space="preserve">
<path d="M445.538,718.147c49.848-149.535,147.469-253.581,301.38-298.451c39.991-11.659,83.166-16.891,124.937-17.199
	c221.959-1.638,443.94-1.461,665.907-0.579c236.016,0.937,424.547,171.982,443.492,400.634
	c18.836,227.328-140.929,428.369-372.296,468.499c-16.875,2.927-33.73,5.969-52.916,9.369c-4.077,10.15-8.617,20.83-12.69,31.685
	c-63.91,170.315-217.977,284.04-400.161,286.478c-233.819,3.13-467.766,3.812-701.557-0.25
	c-208.155-3.616-383.342-156.184-418.981-355.481c-36.752-205.523,72.69-407.645,265.925-483.933
	C337.1,739.762,390.184,732.163,445.538,718.147z M432.157,920.903c-10.937,1.086-20.076,1.055-28.774,2.997
	c-127.594,28.476-210.264,140.467-197.709,267.459c12.242,123.832,117.826,218.053,250.464,218.912
	c223.356,1.446,446.735,1.519,670.09,0.008c142.425-0.964,252.127-110.147,252.493-246.847
	c0.37-138.261-110.844-246.972-255.083-248.51c-71.363-0.761-142.743,0.148-214.112-0.281
	c-66.286-0.398-108.751-37.776-108.515-94.547c0.229-55.126,41.932-93.636,105.33-94.43c77.965-0.977,156.012-1.971,233.92,0.419
	c200.733,6.159,361.461,132.639,416.329,325.122c2.805,9.84,6.63,19.39,9.799,28.553
	c132.733-11.566,229.921-120.738,226.386-252.005c-3.534-131.25-110.903-235.485-249.4-236.622
	c-223.35-1.834-446.732-1.481-670.089-0.21C728.7,591.742,618.049,701.586,618.802,839.807
	c0.753,138.183,112.094,245.287,257.047,246.575c71.366,0.634,142.744-0.239,214.112,0.28
	c63.825,0.465,105.583,37.206,106.551,92.529c0.968,55.322-40.569,95.416-103.365,96.346c-79.281,1.174-158.668,2.229-237.881-0.451
	c-200.403-6.781-359.131-132.914-414.869-326.935C437.909,939.495,435.188,930.906,432.157,920.903z"/>
</svg>
