<?xml version="1.0" encoding="iso-8859-1"?>
<!-- Generator: Adobe Illustrator 19.0.0, SVG Export Plug-In . SVG Version: 6.00 Build 0)  -->
<svg version="1.1" id="Layer_1" xmlns="http://www.w3.org/2000/svg" xmlns:xlink="http://www.w3.org/1999/xlink" x="0px" y="0px"
	 viewBox="0 0 2000 2000" style="enable-background:new 0 0 2000 2000;" xml:space="preserve">
<path d="M1001.225,1934.909c-49.099-19.327-97.71-38.462-155.276-61.122c231.623-100.045,456.146-197.024,686.308-296.438
	c-198.68-128.167-393.326-253.733-591.482-381.563c-223.817,150.667-448.462,301.892-675.077,454.444
	c-82.447-31.904-164.807-63.776-250.98-97.121c8.509-21.593,16.083-41.096,23.864-60.515
	c97.36-242.961,194.587-485.975,292.48-728.721c6.873-17.043,16.317-34.276,28.611-47.721
	c193.99-212.16,388.638-423.719,583.208-635.349c2.569-2.794,6.072-4.73,12.505-9.631c0,29.902,0,56.856,0,85.797
	c-95.704,101.083-191.637,202.498-287.676,303.813c-78.556,82.872-157.617,165.272-235.5,248.77
	c-13.329,14.29-25.401,31.747-32.085,49.934c-79.635,216.693-158.155,433.795-236.835,650.838
	c-1.655,4.565-1.749,9.695-3.392,19.424c257.182-212.85,510.422-422.438,765.641-633.663
	c332.44,259.713,663.284,518.181,999.469,780.82C1613.427,1697.656,1307.498,1816.216,1001.225,1934.909z M1706.704,834.969
	c-26.439-45.288-46.15-96.607-80.439-134.856c-182.809-203.918-369.243-404.588-554.553-606.261
	c-6.526-7.102-14.422-12.946-27.353-24.402c10.632,247.655,20.919,487.274,31.201,726.79
	c302.313,251.024,602.834,500.561,910.223,755.799c-45.341-127.726-89.266-239.525-194.304-325.486
	c-171.175-140.087-329.958-295.315-493.717-443.922c-24.813-144.176-49.414-287.117-75.92-441.129
	c163.456,172.557,318.729,336.475,474.003,500.394C1699.463,839.586,1703.083,837.277,1706.704,834.969z"/>
</svg>
