<?xml version="1.0" encoding="iso-8859-1"?>
<!-- Generator: Adobe Illustrator 19.0.0, SVG Export Plug-In . SVG Version: 6.00 Build 0)  -->
<svg version="1.1" id="Layer_1" xmlns="http://www.w3.org/2000/svg" xmlns:xlink="http://www.w3.org/1999/xlink" x="0px" y="0px"
	 viewBox="0 0 2000 2000" style="enable-background:new 0 0 2000 2000;" xml:space="preserve">
<path d="M998.14,1971.542c-10.16-49.607-36.576-80.556-72.18-102.074c-50.041-30.243-101.518-58.288-153.515-85.074
	c-70.866-36.505-143.662-69.316-214.016-106.745c-62.068-33.02-118.84-74.263-165.632-127.638
	c-58.277-66.475-89.938-143.658-84.489-232.501c10.45-170.37,143.109-266.161,249.565-279.204
	c77.821-9.535,148.801,2.594,213.237,48.233c9.222,6.532,18.94,12.363,34.263,22.303c0-49.531,0-94.333,0-139.135
	c0-45.513,0-91.025,0-138.446c-16.772-5.106-31.932-9.902-47.195-14.341c-149.18-43.384-254.565-199.407-229.12-363.584
	c20.056-129.403,85.548-226.188,196.58-293.606c9.649-5.859,19.04-12.141,30.546-19.503c-6.155-39.851-12.278-79.492-19.376-125.445
	c53.145,28.606,101.018,54.375,151.78,81.698c103.775-19.21,208.671-18.137,313.836,18.577
	c57.8-31.469,116.239-63.286,177.338-96.551c11.02,33.749-5.254,64.03-8.12,94.885c-2.998,32.275-10.351,64.145-15.176,92.523
	c33.231,58.608,65.099,114.811,101.047,178.211c-58.248,0-107.911,0-157.845,0c-16.614,45.258,6.687,91.713-16.367,131.496
	c-26.231,15.983-53.79,13.578-85.318,11.991c-69.145-49.24-140.68-100.182-213.106-151.759c-34.728-2.978-69.94-5.997-108.363-9.291
	c-7.449,44.897,8.287,75.701,40.273,100.098c33.257,25.366,72.451,37.02,112.295,45.346
	c82.753,17.291,166.135,31.592,248.818,49.193c222.358,47.335,374.925,215.25,410.25,441.98
	c44.105,283.082-155.072,558.562-434.773,606.202c-17.564,2.991-34.978,6.858-57.416,11.298
	C1174.478,1757.719,1118.167,1878.428,998.14,1971.542z M975.811,1180.738c0-118.382,0-231.048,0-346.013
	c-27.864,0-53.027,0-77.777,0c-9.023,47.625-8.135,293.623,1.73,333.399C922.984,1171.976,947.765,1176.086,975.811,1180.738z
	 M1063.571,1164.645c76.416-32.343,112.088-91.819,106.49-174.539c-4.529-66.922-47.792-122.46-106.49-136.972
	C1063.571,956.612,1063.571,1060.136,1063.571,1164.645z M773.569,63.571c6.005,57.141,10.214,102.076,27.685,150.331
	c37.023-24.887,69.656-46.823,109.29-73.465C863.189,113.863,823.322,91.491,773.569,63.571z M1352.217,66.731
	c-44.459,20.717-81.377,37.725-115.052,62.635c35.501,33.713,61.69,49.111,95.993,56.245
	C1339.167,148.134,1345.143,110.856,1352.217,66.731z M1211.886,463.087c-13.948,18.661-8.334,34.078,9.238,48.988
	c13.627,0,27.456,0,39.256,0c17.605-15.258,21.196-30.095,9.94-48.988C1250.869,463.087,1232.095,463.087,1211.886,463.087z
	 M1096.098,322.704c11.982,10.451,23.698,20.671,37.957,33.108c5.157-9.064,8.722-15.331,12.444-21.873
	c-22.482-36.593-51.207-53.124-94.169-45.408c-1.066,8.515-1.795,14.344-2.795,22.329
	C1066.063,315.064,1081.193,318.913,1096.098,322.704z M1304.038,310.229c0.624-3.879,1.247-7.758,1.871-11.638
	c-7.992-3.554-16.753-11.185-23.823-9.85c-17.076,3.223-35.085,7.895-49.558,17.005c-20.94,13.18-21.773,24.243-9.584,48.238
	c12.187-11.129,23.932-21.854,34.965-31.928C1273.997,317.931,1289.018,314.08,1304.038,310.229z"/>
</svg>
