<?xml version="1.0" encoding="iso-8859-1"?>
<!-- Generator: Adobe Illustrator 19.0.0, SVG Export Plug-In . SVG Version: 6.00 Build 0)  -->
<svg version="1.1" id="Layer_1" xmlns="http://www.w3.org/2000/svg" xmlns:xlink="http://www.w3.org/1999/xlink" x="0px" y="0px"
	 viewBox="0 0 2000 2000" style="enable-background:new 0 0 2000 2000;" xml:space="preserve">
<path d="M1854.922,1489.67c-280.199,163.359-559.865,326.407-840.029,489.746c-281.696-164.249-560.053-326.552-838.87-489.123
	c0-325.528,0-649.843,0-980.407c276.823-161.397,556.466-324.438,838.698-488.99c280.814,163.493,560.447,326.298,840.201,489.174
	C1854.922,838.346,1854.922,1163.811,1854.922,1489.67z M1014.38,1775.125c224.446-130.777,447.359-260.661,668.701-389.629
	c0-264.429,0-524.098,0-784.638c-223.745-130.437-445.743-259.856-667.971-389.409C790.344,342.435,568.096,471.952,347.263,600.645
	c0,263.559,0,523.438,0,784.655C568.315,1514.47,788.611,1643.199,1014.38,1775.125z M1543.417,679.533
	c0,205.39,0,404.261,0,607.281c-176.155,101.617-351.571,202.807-528.784,305.034c-177.964-102.5-353.79-203.77-530.583-305.596
	c0-202.874,0-404.549,0-608.411c137.864-79.69,276.259-159.687,414.661-239.672c1.228-0.71,2.796-0.982,3.803-1.899
	c77.275-70.348,148.603-53.768,231.001,0.301c125.158,82.128,258.375,151.967,388.058,227.218
	C1529.989,668.673,1537.456,675.192,1543.417,679.533z M1269.219,1241.299c-203.791-115.225-399.334-225.786-597.599-337.887
	c0,100.266,0,194.74,0,288.884c114.957,66.264,227.797,131.308,343.021,197.726
	C1097.924,1341.369,1180.292,1293.25,1269.219,1241.299z M775.462,726.377c199.088,112.692,389.283,220.35,584.468,330.832
	c0-96.235,0-182.61,0-269.626c-114.796-66.368-228.692-132.216-345.321-199.644C937.223,632.737,859.452,677.757,775.462,726.377z"
	/>
</svg>
