<?xml version="1.0" encoding="iso-8859-1"?>
<!-- Generator: Adobe Illustrator 19.0.0, SVG Export Plug-In . SVG Version: 6.00 Build 0)  -->
<svg version="1.1" id="Layer_1" xmlns="http://www.w3.org/2000/svg" xmlns:xlink="http://www.w3.org/1999/xlink" x="0px" y="0px"
	 viewBox="0 0 2000 2000" style="enable-background:new 0 0 2000 2000;" xml:space="preserve">
<path d="M1598.55,1499.149c-10.305-6.481-19.636-12.349-27.993-17.604c-371.459,291.522-881.403,56.996-937.266-360.88
	c-26.067-7.504-150.567-9.68-231.558-3.873c-4.27,6.94-9.732,14.568-13.929,22.837c-37.302,73.511-97.602,109.773-179.455,111.407
	c-102.314,2.043-179.136-66.378-198.61-159.99c-12.996-62.468,0.124-123.31,46.988-172.85c26.541-28.057,55.099-51.378,93.608-60.82
	c97.289-23.854,188.465,11.648,234.271,96.56c4.99,9.251,9.711,18.647,15.585,29.955c74.965,0,150.585,0,228.936,0
	c34.933-238.882,160.659-408.29,390.607-490.585c140.004-50.105,280.108-36.44,420.386,18.36
	c-27.376,47.814-53.301,93.093-80.534,140.658c-117.617-46.961-234.459-41.246-346.189,15.503
	c-88.9,45.153-154.698,116.137-192.996,208.823c-71.089,172.05-23.936,379.437,143.279,498.77
	c58.165,41.509,123.614,64.636,194.921,74.392c71.041,9.72,138.046-3.339,202.641-29.34
	c66.108-26.61,123.046-67.489,166.479-129.602c54.305,39.366,106.606,77.28,156.923,113.756
	c142.811-54.866,234.791,6.518,276.967,82.71c43.317,78.253,31.93,171.073-32.728,238.238
	c-61.563,63.95-162.529,80.535-245.878,33.123C1613.409,1719.108,1557.365,1629.873,1598.55,1499.149z M209.494,932.942
	c-98.473,14.64-124.469,77.077-114.579,140.572c8.404,53.955,50.146,90.888,111.592,92.683
	c63.57,1.858,109.752-47.915,116.94-102.809C331.89,998.912,292.203,954,209.494,932.942z M1787.403,1470.756
	c-59.587-5.773-118.664,41.465-118.014,115.034c0.617,69.844,52.883,113.197,114.153,114.305
	c68.017,1.23,115.833-54.883,117.383-112.46C1902.837,1516.61,1843.4,1466.631,1787.403,1470.756z M1349.14,743.053
	c44.181-70.722,88.594-141.815,133.665-213.962c-35.31-41.127-55.3-88.774-54.687-141.3c0.517-44.254,13.605-87.031,42.825-122.715
	c64.337-78.571,165.232-98.11,246.441-57.895c88.013,43.585,124.376,124.187,111.899,219.468
	c-4.462,34.076-20.409,66.216-44.3,92.613c-24.267,26.812-52.514,47.108-87.125,60.19c-33.809,12.78-68.328,9.217-104.05,11.108
	c-47.722,76.622-95.382,153.145-143.41,230.26c63.22,70.691,92.945,153.348,87.827,245.971
	c-4.339,78.52-33.4,149.334-88.059,207.237c-120.679,127.842-302.172,143.317-438.545,48.775
	c-138.132-95.761-186.547-277.027-103.931-433.619C975.245,761.138,1143.143,658.689,1349.14,743.053z M1202.533,1263.579
	c115.507,8.784,217.172-100.149,218.987-212.696c1.976-122.531-104.233-217.665-211.637-221.629
	c-101.05-3.729-225.768,75.124-225.326,221.083C984.921,1170.871,1085.288,1268.156,1202.533,1263.579z M1630.775,503.067
	c64.955,0.012,114.124-48.094,114.155-111.688c0.032-66.458-51.367-118.26-116.544-118.318
	c-54.124-0.048-114.489,50.516-114.332,115.79C1514.21,453.581,1572.127,509.848,1630.775,503.067z M279.248,983.23
	c0,7.184,0,14.368,0,23.614c-22.67,0-44.272,0-65.875,0c-0.076,0.519-0.151,1.038-0.227,1.557c-12.177-1.71-24.353-3.42-36.53-5.13
	l1.299-0.813c-4.559,2.344-9.118,4.687-13.676,7.031c0,0,0.871-0.662,0.871-0.662c-3.428,5.148-6.856,10.296-9.956,14.951
	c3.105,16.31,17.145,17.28,29.108,23.327c7.704-3.005,16.174-6.309,24.692-9.632c17.413,6.829,34.479,13.522,50.952,19.981
	c4.71,10.805,11.836,19.863-0.64,28.478c0,0,1.053-1.272,1.053-1.272c-2.491,2.519-4.983,5.038-7.474,7.558l1.297-1.055
	c-13.815,15.601-35.036,12.212-51.816,20.209l0.751-0.707c-1.649,2.208-3.298,4.416-6.268,8.395
	c-16.425-17.127-33.447-20.446-48.892-1.049c-6.291-2.918-10.821-5.019-15.351-7.12l1.12-0.906
	c1.75,4.492,2.229,10.464,5.456,13.237c22.51,19.338,48.744,27.721,78.508,24.849c39.112-3.775,67.454-23.491,80.41-60.25
	c13.135-37.266,11.945-73.833-19.404-103.739L279.248,983.23z M132.566,1110.892c-1.523-9.656,2.666-16.029,13.26-20.588
	c15.924,3.504,33.728,14.982,51.718-1.516c18.72,15.377,37.663,5.765,56.598,2.376l-1.297,1.055c2.49-2.519,4.98-5.038,7.472-7.557
	c0.002,0-1.051,1.271-1.051,1.271c0-5.936,0-11.872,0-17.301c-14.035-10.883-29.03-12.719-44.013-14.588l0.859-0.985
	c-1.666,3.521-3.332,7.041-6.223,13.151c-20.793-15.258-49.558-11.603-63.671-35.546c-0.712-13.93,8.079-18.786,18.893-21.837
	c0,0-0.871,0.662-0.871,0.662c4.559-2.344,9.118-4.687,13.676-7.031c0,0-1.299,0.813-1.299,0.813
	c13.935-6.182,27.87-12.364,42.576-18.888c6.882,3.656,14.078,7.478,21.747,11.552c13.054-4.329,25.681-8.517,38.308-12.704
	l-0.593,0.854c-26.028-34.473-63.168-37.241-99.447-27.951c-38.304,9.808-62.708,39.58-69.651,78.239
	c-4.928,27.441-3.335,56.668,24.13,75.615L132.566,1110.892z M1881.499,1585.021c5.378,49.052-40.579,98.373-96.47,97.656
	c-53.109-0.681-99.771-38.402-98.657-99.318c1.033-56.482,43.266-98.277,100.682-97.955
	C1842.154,1485.713,1881.865,1527.598,1881.499,1585.021z M1837.482,1617.036c8.862-5.886,9.504-12.325,1.301-19.359
	c-11.519-15.052-27.564-18.991-45.415-18.492l0.634,0.694c-4.918-12.193-12.714-5.424-20.394-3.594
	c-23.489,5.599-32.776,0.66-43.745-22.035c4.565-3.925,9.13-7.851,13.694-11.776c10.141-1.896,20.282-3.793,30.411-5.718
	c6.132,3.373,12.264,6.746,17.122,9.418c27.602-12.371,27.602-12.371,59.833,1.023c2.467-2.64,6.503-6.959,9.213-9.86
	c-2.721-7.868-3.066-11.316-4.909-13.501c-1.833-2.175-5.169-3.081-9.327-5.353c-2.924,3.588-5.848,7.176-8.771,10.764l0.67-0.774
	c-15.074-2.03-30.149-4.06-49.159-6.62c-12.948,5.32-29.726,12.215-46.504,19.109c-8.66,0.755-12.828,5.15-11.403,14.075
	c-11.469,4.326-7.338,13.675-2.037,16.801c17.505,10.323,36.27,18.51,53.955,27.223c7.854-3.566,14.462-6.566,21.365-9.7
	c11.094,3.339,22.031,6.63,32.967,9.922c0.456,6.21,0.912,12.419,1.368,18.628c-2.217,2.186-4.433,4.371-6.65,6.557
	c-18.177,1.753-36.516,12.471-53.602-2.517c-16.676,8.931-32.432,11.545-49.038,2.887c-2.249-1.172-7.554,3.519-11.444,5.495
	c-7.247,3.904-9.235,8.666-2.426,14.864c3.635,1.082,7.365,3.327,10.889,3.04c14.055-1.143,28.045-3.075,42.059-4.715l-0.757-0.801
	c2.905,1.894,6.368,5.924,8.622,5.334c13.974-3.657,27.912-7.746,41.347-13.008c5.199-2.036,9.052-7.51,13.517-11.418
	C1833.074,1621.432,1835.278,1619.234,1837.482,1617.036z M1013.985,1044.235c-6.316-86.933,73.712-189.192,191.568-187.739
	c110.38,1.36,195.855,95.638,187.952,205.345c-7.048,97.83-90.583,177.682-194.673,176.249
	C1096.897,1236.687,1007.291,1148.318,1013.985,1044.235z M1153.358,1156.211c24.632,24.524,29.843,24.427,60.847,0.915
	c33.706-3.848,65.433-10.033,90.475-33.958c19.27-18.41,20.34-24.999,9.349-52.406c-21.406-23.145-49.969-28.836-79.531-32.057
	c-22.437-23.836-26.119-23.865-63.791,1.532c-13.709-3.771-29.872-7.713-45.693-12.734c-11.711-3.716-20.305-11.15-21.315-24.604
	c-1.113-14.824,7.492-22.948,19.43-29.494c20.671-11.334,43.062-15.065,67.001-17.438c10.232,14.125,23.343,21.028,40.54,14.205
	c7.74-5.581,15.305-11.035,22.309-16.084c14.056,1.518,26.591,2.871,38.088,4.112c7.27,5.962,13.611,11.163,19.878,16.304
	c21.129-1.238,33.237-12.06,40.728-33.261c-5.753-7.119-12.03-14.886-15.434-19.099c-22.73-6.205-30.869,10.019-41.82,15.656
	c-15.557,0-29.202,0-41.629,0c-8.476-6.625-15.823-12.367-25.675-20.069c-11.507,6.322-22.998,12.635-35.575,19.545
	c-44.132,7.626-90.524,13.895-110.108,66.366c17.454,41.706,53.476,48.235,90.392,52.959c23.867,21.626,23.867,21.626,60.849,3.011
	c29.198-0.871,56.407,3.152,71.632,32.584c-10.426,31.12-33.648,42.439-89.16,43.802c-8.724-10.865-20.013-17.47-37.794-11.523
	c-5.644,3.806-13.468,9.082-20.825,14.043c-13.307-0.614-25.913-1.196-39.534-1.824c-6.064-4.477-12.702-9.378-18.502-13.659
	c-30.78,2.195-33.601,4.611-40.55,33.869c7.439,12.8,17.228,21.046,34.578,16.166c6.348-5.33,13.517-11.35,20.077-16.859
	C1126.568,1156.211,1139.207,1156.211,1153.358,1156.211z M1698.157,344.332l0.93-1.007c-5.321,1.827-11.82,6.563-15.755,4.969
	c-15.647-6.339-30.274-5.418-44.808,3.163c-18.282-11.794-36.297-6.324-54.312-1.557c-1.802,8.254-3.604,16.509-5.406,24.763
	c17.844,7.547,35.775,11.409,52.382,1.316c12.039,4.484,22.746,8.144,33.178,12.466c7.667,3.177,16.063,5.963,22.143,11.224
	c6.348,5.494,10.148,13.733-1.018,19.715c-2.223,2.147-4.445,4.293-6.668,6.44c-11.916,18.892-31.112,19.304-50.273,19.805
	c0,0,0.873-0.966,0.873-0.966c-1.686,3.416-3.373,6.831-6.552,13.271c-19.456-20.296-40.893-8.199-61.349-6.177
	c-0.936-15.018-0.936-15.018,8.819-25.982c16.452,14.91,34.237,18.41,50.993-0.33c7.725,4.814,13.795,8.597,21.283,13.263
	c11.655-3.847,24.283-8.015,36.911-12.184c2.24-2.126,4.479-4.251,6.719-6.377c-10.89-27.161-26.485-28.539-63.563-17.811
	c-13.585-7.804-29.588-16.996-45.591-26.189c-9.315-16.133-8.519-18.725,7.831-25.499c3.768-4.166,6.816-10.575,11.445-12.064
	c12.23-3.933,25.145-5.734,37.787-8.383c4.633-8.056,9.737-7.419,15.165-0.823c18.5-1.498,37-2.996,55.499-4.494
	c-31.824-43.689-110.96-44.409-147.424-2.307c-19.958,23.044-25.882,49.149-23.695,78.747c2.775,37.556,23.19,63.695,55.359,78.016
	c34.033,15.151,69.324,13.955,100.693-10.528c41.859-32.67,57.004-93.044,14.709-144.275
	C1704.476,331.812,1709.323,340.623,1698.157,344.332z M216.112,1053.059c-3.251-0.446-6.502-0.893-2.44-0.335
	c-3.033-2.534-0.726-0.607,1.58,1.32L216.112,1053.059z M203.077,1110.666c-1.649-2.615-3.299-5.231-1.582-2.508
	c-0.803-3.106,0.014,0.055,0.831,3.215L203.077,1110.666z M147.417,1101.864l1.875,0.247l-0.7-2.07L147.417,1101.864z
	 M217.983,994.194c-2.121,1.732-4.242,3.464-10.882,8.888c8.01-2.287,10.666-3.045,13.323-3.803
	C219.61,997.584,218.797,995.889,217.983,994.194z M267.582,999.79l2.121,0.113l-0.961-2.095L267.582,999.79z M1728.476,1633.211
	c-5.639-1.644-8.543-2.49-11.447-3.337c0.434,3.991,0.867,7.982,1.301,11.973
	C1721.352,1639.275,1724.373,1636.704,1728.476,1633.211z M1774.631,1636.776c0.711-1.369,1.422-2.737,2.133-4.106
	c-0.867,1.216-1.733,2.432-2.599,3.648C1774.165,1636.319,1774.631,1636.776,1774.631,1636.776z M1774.165,1636.319
	c-2.26,2.135-4.521,4.269-6.781,6.403l0.757,0.801c2.163-2.249,4.327-4.498,6.49-6.746L1774.165,1636.319z M1793.368,1579.186
	c-2.469,1.984-4.938,3.967-1.747,1.404c-4.044,1.204-0.831,0.248,2.381-0.709L1793.368,1579.186z M1837.13,1529.248
	c3.18,0.615,6.36,1.23,2.154,0.417c3.268,2.623,0.892,0.716-1.484-1.191L1837.13,1529.248z M1790.027,1531.976
	c0.635,0.641,1.352,1.885,1.889,1.812c1.663-0.228,3.258-0.958,11.84-3.79C1794.414,1531.344,1792.221,1531.66,1790.027,1531.976z
	 M1202.859,1148.62c-7.522-7.164-10.343-9.852-14.232-13.555c-6.137,6.723-10.164,11.135-19.358,21.206
	C1183.072,1153.126,1189.789,1151.596,1202.859,1148.62z M1320.337,958.742c4.369-5.791,7.271-9.636,12.314-16.32
	c-8.098-0.883-12.616-1.376-24.788-2.703C1314.362,949.63,1316.863,953.443,1320.337,958.742z M1208.555,944.355
	c5.316,6.264,8.073,9.512,12.445,14.663c3.528-6.399,5.749-10.427,10.102-18.322C1222.143,942.15,1217.215,942.95,1208.555,944.355z
	 M1207.211,1056.519c0-7.619,0-12.531,0-20.674c-6.424,5.168-10.085,8.113-18.917,15.217
	C1197.672,1053.768,1201.589,1054.898,1207.211,1056.519z M1076.909,1152.516c7.083,0,12.077,0,17.071,0
	C1087.204,1139.594,1082.185,1140.898,1076.909,1152.516z M1698.157,344.332c-1.26-3.54-2.52-7.08-4.157-11.68
	c-2.533,2.665-4.392,4.623-7.781,8.188c5.502,1.062,9.185,1.774,12.868,2.485L1698.157,344.332z M1638.307,344.603
	c3.676-6.081,5.254-8.692,6.831-11.302c-3.239-0.593-6.478-1.186-9.718-1.778C1636.154,334.848,1636.888,338.173,1638.307,344.603z
	 M1629.424,444.663c-3.186-0.489-6.371-0.979-2.448-0.376c-2.994-2.551-0.709-0.604,1.575,1.342L1629.424,444.663z M1569.455,442.87
	l0.344-1.847l-2.171,0.57L1569.455,442.87z M1627.486,392.888c1.485-2.008,2.97-4.016,4.455-6.025
	c-0.849-0.643-1.698-1.285-2.547-1.927c-1.57,1.938-3.14,3.876-4.709,5.814C1625.618,391.462,1626.552,392.175,1627.486,392.888z"/>
</svg>
