<?xml version="1.0" encoding="iso-8859-1"?>
<!-- Generator: Adobe Illustrator 19.0.0, SVG Export Plug-In . SVG Version: 6.00 Build 0)  -->
<svg version="1.1" id="Layer_1" xmlns="http://www.w3.org/2000/svg" xmlns:xlink="http://www.w3.org/1999/xlink" x="0px" y="0px"
	 viewBox="0 0 500 500" style="enable-background:new 0 0 500 500;" xml:space="preserve">
<path d="M200.695,4.096c14.376-0.193,24.032,8.671,26.095,23.965c1.806,13.39-6.31,25.701-19.839,27.932
	c-25.091,4.137-47.879,14.87-67.984,28.895c-24.852,17.336-46.015,39.447-60.506,66.969
	c-25.217,47.893-31.937,97.548-15.258,149.681c4.583,14.325,1.346,25.451-9.067,32.545c-10.36,7.059-24.573,6.786-33.49-1.794
	c-3.821-3.676-6.947-9.028-8.304-14.168c-25.398-96.198-4.26-180.79,66.204-251.269c30.287-30.293,67.814-49.991,109.662-60.63
	c2.732-0.695,5.495-1.283,8.267-1.798C197.853,4.166,199.285,4.188,200.695,4.096z M472.08,137.653
	c-26.066-52.911-66.132-91.907-119.608-116.433c-16.066-7.368-33.464-12.428-50.751-16.35c-14.16-3.213-23.893,4.179-27.987,17.376
	c-5.469,17.63,3.678,31.167,23.743,35.448c38.337,8.18,69.477,28.546,95.875,56.887c17.026,18.279,30.59,38.989,39.087,62.338
	c15.012,41.253,17.566,83.229,3.941,125.666c-1.779,5.54-2.068,12.233-0.844,17.918c2.374,11.023,11.918,17.596,23.816,18.234
	c14.513,0.778,21.153-2.876,25.874-16.206c8.557-24.158,11.855-49.242,11.209-72.732
	C497.419,209.013,489.144,172.292,472.08,137.653z M299.032,488.339c52.177-8.228,94.142-35.46,130.901-71.709
	c11.369-11.211,10.12-29.297-1.155-38.941c-11.499-9.835-28.449-8.401-38.93,3.252c-2.801,3.114-5.481,6.39-8.607,9.15
	c-61.12,53.989-130.232,65.116-205.879,37.005c-26.143-9.715-48.63-25.63-67.364-46.759c-10.681-12.046-27.494-12.169-38.885-1.49
	c-10.777,10.104-10.866,26.325,0.177,37.666c49.182,50.511,109.169,76.064,179.768,78.793
	C265.72,493.001,282.422,490.959,299.032,488.339z M248.63,198.587c-28.639,0.251-49.441,21.364-49.452,50.192
	c-0.01,27.983,21.73,49.972,49.267,50.552c29.029,0.611,50.986-20.565,51.358-50.969C299.89,219.431,278.193,198.328,248.63,198.587
	z"/>
</svg>
