<?xml version="1.0" encoding="iso-8859-1"?>
<!-- Generator: Adobe Illustrator 19.0.0, SVG Export Plug-In . SVG Version: 6.00 Build 0)  -->
<svg version="1.1" id="Layer_1" xmlns="http://www.w3.org/2000/svg" xmlns:xlink="http://www.w3.org/1999/xlink" x="0px" y="0px"
	 viewBox="0 0 2000 2000" style="enable-background:new 0 0 2000 2000;" xml:space="preserve">
<path d="M1048.865,18.636c263.364,151.938,516.759,298.124,783.17,451.82c-153.874,88.879-297.477,171.825-442.799,255.764
	c-114.834-66.271-227.72-131.417-340.371-196.428C1048.865,361.304,1048.865,196.222,1048.865,18.636z M1050.19,1467.258
	c0,171.871,0,336.665,0,511.096c262.191-151.32,516.599-298.149,781.672-451.132c-153.807-88.907-296.723-171.518-442.733-255.918
	C1271.76,1339.159,1159.032,1404.332,1050.19,1467.258z M956.075,529.768c0-170.628,0-335.17,0-511.011
	C693.083,170.505,438.113,317.625,173.16,470.505c154.126,89.026,297.036,171.573,442.913,255.834
	C733.547,658.421,846.228,593.275,956.075,529.768z M173.027,1527.319C439.255,1680.8,694.31,1827.84,957.285,1979.445
	c0-178.059,0-342.909,0-510.942c-113.141-65.323-225.884-130.417-341.504-197.172
	C468.394,1356.546,325.865,1438.952,173.027,1527.319z M1427.96,800.057c0,136.057,0,264.776,0,397.908
	c143.411,82.708,287.285,165.682,438.69,253c0-305.284,0-597.778,0-904.355C1713.298,635.206,1569.38,718.353,1427.96,800.057z
	 M135.362,547.97c0,304.412,0,597.572,0,901.82c150.812-87.066,293.58-169.49,435.836-251.616c0-134.651,0-264.922,0-398.876
	C428.294,716.892,285.546,634.575,135.362,547.97z M701.436,776.148c107.599,62.898,202.718,118.501,298.826,174.682
	c99.035-57.361,195.452-113.205,302.29-175.086c-105.688-61.208-201.796-116.867-300.013-173.748
	C903.576,659.234,806.611,715.316,701.436,776.148z M661.686,851.808c0,123.048,0,234.261,0,347.416
	c97.491,55.751,193.542,110.679,296.579,169.602c0-121.799,0-230.351,0-346.114C860.831,966.566,764.808,911.232,661.686,851.808z
	 M1341.04,1199.997c0-117.224,0-227.638,0-346.912c-102.685,59.258-197.571,114.015-291.609,168.283c0,115.038,0,225.92,0,346.754
	C1152.799,1308.527,1248.87,1253.137,1341.04,1199.997z"/>
</svg>
