<?xml version="1.0" encoding="iso-8859-1"?>
<!-- Generator: Adobe Illustrator 19.0.0, SVG Export Plug-In . SVG Version: 6.00 Build 0)  -->
<svg version="1.1" id="Layer_1" xmlns="http://www.w3.org/2000/svg" xmlns:xlink="http://www.w3.org/1999/xlink" x="0px" y="0px"
	 viewBox="0 0 500 500" enable-background="new 0 0 500 500" xml:space="preserve">
<path d="M264.062,449.598c-70.756,0-141.512-0.003-212.268,0.008c-4.019,0.001-7.859-0.032-11.582-2.308
	c-4.721-2.887-7.635-7.483-6.468-12.977c0.714-3.36,2.03-6.694,3.642-9.74c3.84-7.259,8.149-14.27,11.973-21.537
	c1.159-2.203,2.938-2.625,4.801-2.834c2.728-0.306,5.511-0.154,8.27-0.154c70.003-0.004,140.007,0.019,210.01-0.053
	c4.213-0.004,8.51-0.356,12.623-1.228c12.594-2.671,20.163-16.675,15.598-29.316c-1.27-3.516-2.728-7.026-4.589-10.256
	c-15.459-26.825-31.069-53.563-46.562-80.368c-17.616-30.479-35.151-61.004-52.743-91.497c-2.73-4.732-5.495-9.448-8.4-14.074
	c-2.046-3.258-2.286-5.914-0.11-9.6c13.473-22.821,26.589-45.852,39.815-68.819c6.59-11.443,13.157-22.9,19.748-34.342
	c1.373-2.384,2.55-4.942,4.265-7.058c6.236-7.695,16.032-8.757,22.068-1.765c3.233,3.745,5.981,7.983,8.486,12.269
	c9.688,16.579,19.166,33.28,28.767,49.91c10.85,18.793,21.703,37.586,32.638,56.329c9.93,17.021,20.087,33.909,29.94,50.974
	c17.36,30.068,34.519,60.252,51.848,90.338c17.445,30.288,34.986,60.521,52.507,90.766c4.008,6.919,8.128,13.774,12.146,20.688
	c1.13,1.944,2.255,3.922,3.088,6.003c5.052,12.618-1.679,18.239-11.985,20.558c-1.912,0.43-4.001,0.083-6.008,0.083
	C405.072,449.598,334.567,449.598,264.062,449.598z M270.922,383.127c2.952-0.005,6.001-0.302,8.834-1.083
	c4.5-1.242,5.801-4.275,3.971-8.59c-1.069-2.52-2.379-4.954-3.753-7.327c-10.752-18.564-21.626-37.059-32.304-55.665
	c-10.182-17.742-20.058-35.66-30.278-53.38c-12.831-22.247-25.887-44.363-38.822-66.55c-8.292-14.223-16.497-28.496-24.848-42.684
	c-1.382-2.348-3.09-4.601-5.042-6.49c-2.471-2.393-4.982-2.389-7.206,0.275c-2.708,3.243-5.073,6.831-7.194,10.496
	c-13.342,23.063-26.555,46.2-39.848,69.292c-12.087,20.996-24.217,41.966-36.334,62.944c-15.118,26.173-30.254,52.335-45.351,78.52
	c-2.12,3.677-4.329,7.341-6.01,11.222c-1.761,4.064-0.325,6.847,3.91,7.845c3.125,0.737,6.4,1.163,9.609,1.169
	c41.903,0.075,83.807,0.05,125.71,0.05C187.617,383.172,229.269,383.194,270.922,383.127z"/>
</svg>
