<?xml version="1.0" encoding="iso-8859-1"?>
<!-- Generator: Adobe Illustrator 19.0.0, SVG Export Plug-In . SVG Version: 6.00 Build 0)  -->
<svg version="1.1" id="Layer_1" xmlns="http://www.w3.org/2000/svg" xmlns:xlink="http://www.w3.org/1999/xlink" x="0px" y="0px"
	 viewBox="0 0 2000 2000" style="enable-background:new 0 0 2000 2000;" xml:space="preserve">
<path d="M205.612,1603.911c44.663,0,87.05,0.001,129.437,0c249.868-0.009,499.736,0.244,749.604-0.145
	c118.033-0.183,157.073-66.054,98.463-168.524c-140.836-246.228-282.984-491.706-424.568-737.507
	c-4.184-7.263-7.976-14.752-13.62-25.238c87.282-150.895,173.257-303.039,263.063-452.887
	c31.567-52.672,80.006-46.329,114.974,13.075c88.763,150.792,175.721,302.648,263.372,454.095
	c189.74,327.843,380.09,655.337,568.126,984.154c17.1,29.902,33.601,72.534,25.009,101.808
	c-12.583,42.874-62.632,29.654-98.812,29.68c-549.028,0.398-1098.057,0.274-1647.086,0.202c-16.982-0.002-34.286,1.185-50.881-1.558
	c-39.775-6.576-59.183-37.494-42.733-74.712C158.36,1684.722,182.832,1645.773,205.612,1603.911z M1152.425,1517.043
	c-183.272-323.111-369.301-644.644-564.188-977.358c-23.257,32.656-38.148,50.358-49.561,70.073
	C373.703,894.733,209.035,1179.884,44.98,1465.387c-10.026,17.448-14.307,38.196-24.237,65.632c380.272,0,748.678,0,1117.084,0
	C1142.693,1526.361,1147.559,1521.702,1152.425,1517.043z"/>
</svg>
