<?xml version="1.0" encoding="iso-8859-1"?>
<!-- Generator: Adobe Illustrator 19.0.0, SVG Export Plug-In . SVG Version: 6.00 Build 0)  -->
<svg version="1.1" id="Layer_1" xmlns="http://www.w3.org/2000/svg" xmlns:xlink="http://www.w3.org/1999/xlink" x="0px" y="0px"
	 viewBox="0 0 2000 2000" style="enable-background:new 0 0 2000 2000;" xml:space="preserve">
<path d="M1847.194,1079.157c0,114.31,0,226.937,0,345.442c-546.632-317.86-1090.393-634.052-1639.593-953.406
	C473.309,317.748,735.082,166.577,999.76,13.726c282.183,163.313,564.782,326.867,846.948,490.171c0,151.675,0,302.135,0,456.958
	c-98.9-57.809-195.037-114.003-291.99-170.674c0-35.041,0-69.53,0-106.001c-184.729-106.354-369.256-212.593-554.691-319.354
	c-64.45,38.644-127.665,76.547-196.007,117.524C1153.806,682.465,1499.757,880.386,1847.194,1079.157z M154.824,568.722
	c0,118.183,0,231.536,0,345.021c346.694,198.37,692.409,396.18,1041.129,595.709c-67.611,40.616-131.602,79.057-195.962,117.72
	c-184.971-106.409-368.328-211.888-552.685-317.943c0-35.47,0-70.828,0-106.093c-97.268-56.861-193.451-113.088-292.451-170.962
	c0,154.56,0,304.968,0,456.616c281.79,163.07,563.827,326.282,845.072,489.036c264.065-152.455,525.828-303.581,791.929-457.212
	C1244.144,1202.132,700.574,886.061,154.824,568.722z"/>
</svg>
