<?xml version="1.0" encoding="iso-8859-1"?>
<!-- Generator: Adobe Illustrator 19.0.0, SVG Export Plug-In . SVG Version: 6.00 Build 0)  -->
<svg version="1.1" id="Layer_1" xmlns="http://www.w3.org/2000/svg" xmlns:xlink="http://www.w3.org/1999/xlink" x="0px" y="0px"
	 viewBox="0 0 500 500" enable-background="new 0 0 500 500" xml:space="preserve">
<path d="M477.705,3.824c0,11.187,0,21.352,0,31.518c0.003,62.935,0.268,125.871-0.122,188.804
	c-0.155,24.951-1.56,49.911-6.265,74.534c-7.185,37.6-23.792,70.642-47.995,100.131c-32.638,39.768-72.417,69.275-120.849,87.436
	c-35.103,13.163-69.287,13.014-104.227-0.515c-68.857-26.663-119.792-72.793-152.16-138.935
	c-14.096-28.805-20.041-60.169-20.435-92.026c-0.921-74.527-0.686-149.068-0.912-223.603c-0.027-8.813-0.004-17.626-0.004-27.344
	C175.877,3.824,325.656,3.824,477.705,3.824z M63.759,41.494c-0.358,4.341-0.812,7.369-0.824,10.399
	c-0.082,20.077-0.388,40.16-0.024,60.231c0.93,51.302-2.123,102.652,2.246,153.922c1.681,19.727,5.702,38.76,12.667,57.248
	c8.801,23.363,23.239,43.214,39.743,61.416c29.295,32.31,64.307,56.112,106.513,68.799c19.542,5.875,38.514,4.988,57.762-1.17
	c22.323-7.141,42.755-17.831,61.709-31.401c33.592-24.05,60.736-53.835,78.018-91.638c12.242-26.779,16.364-55.63,16.635-84.746
	c0.599-64.291,0.277-128.59,0.241-192.886c-0.002-3.356-0.834-6.711-1.294-10.175C312.491,41.494,188.887,41.494,63.759,41.494z
	 M106.683,273.056c2.266,13.506,5.496,27.396,11.34,39.658c19.985,41.937,52.226,71.489,95.001,89.853
	c25.702,11.034,50.754,10.858,76.511-0.018c37.545-15.854,65.81-42.025,87.689-75.774c12.998-20.05,17.207-42.602,19.115-65.085
	c-0.808-1.233-0.973-1.709-1.307-1.963c-59.647-45.293-119.308-90.567-178.956-135.858c-2.838-2.155-5.576-4.445-8.313-6.729
	c-0.192-0.16-0.046-0.816,0.056-1.212c0.101-0.394,0.345-0.751,0.932-1.96c6.177,0,12.835,0.394,19.427-0.094
	c9.4-0.697,17.18,1.94,24.725,7.784c37.719,29.217,75.716,58.076,113.664,86.997c9.831,7.493,19.836,14.756,30.677,22.805
	c0-48.126,0-94.76,0-142.227c-97.846,0-194.898,0-292.813,0c0,21.754,0,42.538,0,63.425
	c80.19,60.922,159.985,121.544,240.798,182.939c-6.257,6.449-11.647,12.004-17.254,17.782
	c-74.736-56.655-148.242-112.377-224.347-170.07C104.077,215.252,101.865,244.339,106.683,273.056z"/>
</svg>
