<?xml version="1.0" encoding="iso-8859-1"?>
<!-- Generator: Adobe Illustrator 19.0.0, SVG Export Plug-In . SVG Version: 6.00 Build 0)  -->
<svg version="1.1" id="Layer_1" xmlns="http://www.w3.org/2000/svg" xmlns:xlink="http://www.w3.org/1999/xlink" x="0px" y="0px"
	 viewBox="0 0 500 500" enable-background="new 0 0 500 500" xml:space="preserve">
<path d="M494.965,249.457c0.451,130.47-105.641,245.214-245.971,244.694c-134.92-0.5-243.688-109.173-244.066-244.606
	C4.543,111.283,117.271,4.442,249.399,4.001C382.573,3.557,495.398,111.848,494.965,249.457z M398.184,166.533
	c-48.162,29.43-94.938,58.013-141.218,86.293c0,53.333,0,105.782,0,159.475c47.922-29.308,94.731-57.935,141.218-86.365
	C398.184,272.893,398.184,220.726,398.184,166.533z M243.553,412.553c0-54.312,0-106.616,0-159.435
	c-46.838-28.634-93.682-57.272-141.524-86.519c0,54.493,0,106.86,0,159.425C148.84,354.644,195.459,383.148,243.553,412.553z
	 M250,85.543c-47.104,23.44-93.671,46.612-141.441,70.384c47.841,29.266,94.59,57.864,141.481,86.549
	c47.251-28.902,93.965-57.476,141.506-86.555C343.336,131.951,296.509,108.668,250,85.543z"/>
</svg>
