<?xml version="1.0" encoding="iso-8859-1"?>
<!-- Generator: Adobe Illustrator 19.0.0, SVG Export Plug-In . SVG Version: 6.00 Build 0)  -->
<svg version="1.1" id="Layer_1" xmlns="http://www.w3.org/2000/svg" xmlns:xlink="http://www.w3.org/1999/xlink" x="0px" y="0px"
	 viewBox="0 0 2000 2000" style="enable-background:new 0 0 2000 2000;" xml:space="preserve">
<path d="M1004.521,1979.377c-285.68-164.949-567.717-327.795-850.015-490.792c0-326.284,0-649.717,0-979.649
	C435.713,346.39,719.027,182.625,1004.278,17.74c282.714,163.197,564.746,326,848.351,489.712c0,326.288,0,651.425,0,982.081
	C1573.141,1650.958,1291.182,1813.81,1004.521,1979.377z M197.205,1466.121c269.395,155.539,538.741,311.05,807.34,466.13
	c270.936-156.411,538.91-311.112,806.192-465.414c0-313.423,0-624.006,0-936.328C1541.794,375.17,1273.877,220.425,1004.595,64.89
	c-270.331,156.167-539.653,311.752-807.39,466.421C197.205,845.527,197.205,1154.471,197.205,1466.121z M760.501,1277.911
	c121.769,67.536,250.515,76.193,376.898,24.278c101.073-41.518,117.881-105.288,109.377-196.599
	c-4.131-44.358-24.571-78.861-60.309-104.979c-35.642-26.047-75.255-42.373-118.104-52.716
	c-36.833-8.891-73.478-19.285-109.128-32.032c-16.338-5.842-32.548-16.612-44.438-29.262c-18.147-19.307-10.58-49.348,14.422-56.934
	c18.523-5.62,39.52-7.579,58.779-5.439c58.96,6.55,117.612,15.863,180.497,24.679c18.688-36.385,37.184-72.397,57.547-112.044
	c-27.676-11.918-48.72-21.945-70.451-30.154c-62.665-23.672-128.191-21.839-193.65-20.788c-52.293,0.839-99.62,16.477-143.169,44.92
	c-102.334,66.838-105.369,224.099-3.28,289.621c32.927,21.133,71.317,35.015,108.781,47.489
	c42.778,14.244,87.802,21.64,130.911,35.033c28.742,8.929,41.335,27.169,39.134,45.858c-2.365,20.075-23.592,36.396-52.274,39.722
	c-7.204,0.836-14.549,0.399-21.824,0.698c-74.927,3.083-148.289-3.81-221.848-38.131c-19.257,36.454-37.699,71.366-58.241,110.253
	C749.443,1269.036,754.391,1274.522,760.501,1277.911z"/>
</svg>
