<?xml version="1.0" encoding="iso-8859-1"?>
<!-- Generator: Adobe Illustrator 19.0.0, SVG Export Plug-In . SVG Version: 6.00 Build 0)  -->
<svg version="1.1" id="Layer_1" xmlns="http://www.w3.org/2000/svg" xmlns:xlink="http://www.w3.org/1999/xlink" x="0px" y="0px"
	 viewBox="0 0 2000 2000" style="enable-background:new 0 0 2000 2000;" xml:space="preserve">
<path d="M970.015,1987.175c-36.38-26.032-71.2-54.666-109.447-77.583c-94.401-56.563-190.588-110.136-285.652-165.607
	c-88.976-51.919-177.43-104.732-268.55-158.592c0-133.237,0-266.782,0-411.36c66.828,39.857,128.152,75.62,188.676,112.69
	c151.465,92.77,301.753,187.505,454.487,278.127c31.44,18.654,70.958,25.178,107.656,33.119
	c48.119,10.411,97.07,17.1,145.781,24.622c60.189,9.295,120.6,17.179,180.717,26.898c32.441,5.244,64.684,12.178,96.581,20.102
	c13.433,3.337,25.743,11.199,50.718,22.507c-99.465,53.544-186.543,98.527-271.744,146.82
	c-84.116,47.678-166.335,98.703-249.386,148.259C996.574,1987.175,983.295,1987.175,970.015,1987.175z M899.361,537.593
	c-62.87-16.206-125.173-35.253-188.747-47.93c-88.382-17.623-366.374-63.768-405.226-69.38c0,126.519,0,240.68,0,366.443
	c330.466,187.961,666.118,378.871,1006.765,572.622c-81.452,33.924-158.89,66.175-241.675,100.654
	c9.949,7.394,559.202,108.414,618.47,117.64c15.569-125.92,2.349-250.489,7.913-369.575
	c-339.343-190.543-672.807-377.786-1006.272-565.028c1.144-4.829,2.287-9.658,3.431-14.487
	c68.253-27.306,136.506-54.612,204.758-81.919C898.972,543.621,899.166,540.607,899.361,537.593z M478.093,316.832
	c127.769,21.512,256.165,39.938,383.071,65.706c74.947,15.217,150.874,34.62,220.234,65.78
	c68.085,30.587,128.062,79.008,192.223,118.587c123.826,76.383,247.849,152.457,372.558,227.38
	c12.353,7.422,30.019,6.001,47.192,9.033c0-135.971,0-261.776,0-387.945c-10.019-8.039-18.258-16.466-28.062-22.233
	c-87.909-51.707-176.298-102.601-264.146-154.41c-111.968-66.033-223.957-132.05-335.122-199.419
	c-41.588-25.203-79.743-31.836-124.688-5.293c-133.545,78.868-268.697,155.018-403.329,232.04
	c-20.497,11.726-41.573,22.439-62.381,33.62C476.459,305.395,477.276,311.113,478.093,316.832z"/>
</svg>
