<?xml version="1.0" encoding="iso-8859-1"?>
<!-- Generator: Adobe Illustrator 19.0.0, SVG Export Plug-In . SVG Version: 6.00 Build 0)  -->
<svg version="1.1" id="Layer_1" xmlns="http://www.w3.org/2000/svg" xmlns:xlink="http://www.w3.org/1999/xlink" x="0px" y="0px"
	 viewBox="0 0 2000 2000" style="enable-background:new 0 0 2000 2000;" xml:space="preserve">
<path d="M1984.488,1000.885c3.511,512.853-406.78,981.554-981.816,982.99c-550.262,1.374-995.569-441.567-984.57-1005.009
	C28.557,443.337,463.431,10.94,1014.179,16.895C1562.329,22.822,1988.008,473.334,1984.488,1000.885z M42.365,1001.666
	c4.442,531.136,423.627,948.27,942.479,956.908c551.366,9.178,982.66-437.999,975.352-971.563
	c-7.106-518.787-426.172-929.633-929.6-944.851C505.071,26.274,45.196,443.941,42.365,1001.666z M1908.074,1000.482
	c-0.005,502.973-406.01,908.315-909.629,908.145c-509.864-0.172-915.61-407.913-909.322-926.184
	C95.361,468.265,527.461,81.56,1014.701,88.938C1504.637,96.357,1908.079,501.709,1908.074,1000.482z M1595.865,1012.537
	c-14.299,0-26.719,0-39.138,0c-187.945,0-375.922,2.208-563.827-0.534c-261.034-3.809-531.722,180.101-593.824,486.499
	c-7.572,37.36-7.985,76.171-11.945,116.655c20.505,0,33.101,0,45.696,0c189.098,0,378.263-3.191,567.276,0.817
	c230.186,4.882,486.097-152.172,570.702-417.609C1589.685,1139.134,1602.301,1078.766,1595.865,1012.537z M1595.808,375.093
	c-14.192,0-26.576,0-38.959,0c-186.734,0-373.469,0.001-560.203-0.001c-270.335-0.003-500.238,167.515-581.989,425.744
	c-17.906,56.56-30.512,114.69-22.598,176.751c15.67,0,28.24,0,40.811,0c187.887,0,375.788,1.504,563.656-0.368
	c254.01-2.531,434.434-124.585,546.918-348.68C1582.363,551.004,1602.729,467.265,1595.808,375.093z"/>
</svg>
