<?xml version="1.0" encoding="iso-8859-1"?>
<!-- Generator: Adobe Illustrator 19.0.0, SVG Export Plug-In . SVG Version: 6.00 Build 0)  -->
<svg version="1.1" id="Layer_1" xmlns="http://www.w3.org/2000/svg" xmlns:xlink="http://www.w3.org/1999/xlink" x="0px" y="0px"
	 viewBox="0 0 2000 2000" style="enable-background:new 0 0 2000 2000;" xml:space="preserve">
<path d="M1253.971,1848.949c0-300.978,0-601.779,0-906.826c54.207-32.066,111.147-65.749,172.366-101.964
	c0,227.298,0,448.76,0,674.903c54.313-31.159,103.297-63.559,155.882-88.311c61.861-29.118,81.442-72.27,80.023-140.351
	c-4.386-210.439-1.86-421.027-1.468-631.556c0.056-29.983-11.697-50.702-37.688-65.663
	c-187.871-108.145-377.161-213.99-562.135-326.899c-57.389-35.03-95.406-12.427-140.533,13.885
	c-177.876,103.712-355.597,207.72-534.804,309.092c-38.049,21.523-46.395,51.553-46.273,89.094
	c0.267,82.747,1.239,165.492,1.335,248.238c0.155,133.143,0.068,266.287-0.429,399.429c-0.148,39.515,15.1,67.571,50.909,87.023
	c60.906,33.087,120.281,68.991,183.174,105.373c0-224.087,0-446.371,0-675.071c61.634,36.46,118.4,70.04,173.153,102.43
	c0,304.638,0,604.869,0,908.331c-84.818-48.739-167.565-96.15-250.177-143.796c-88.211-50.875-175.167-104.066-264.796-152.296
	c-69.205-37.24-100.274-90.415-99.769-169.266c1.705-266.293,0.436-532.607,0.017-798.912
	c-0.114-72.628,41.11-116.137,100.021-149.856c153.876-88.074,306.945-177.557,460.547-266.112
	c82.15-47.362,164.091-95.154,247.394-140.419c42.373-23.024,86.921-23.029,130.105,2.3
	c107.265,62.915,214.672,125.591,322.211,188.035c130.043,75.512,259.896,151.364,390.602,225.713
	c62.84,35.745,87.157,88.069,86.777,159.427c-1.375,258.189-0.459,516.396,0.894,774.589c0.395,75.437-25.697,131.058-94.29,169.76
	c-173.131,97.687-344.15,199.116-516.064,298.962C1259.627,1849.008,1257.626,1848.619,1253.971,1848.949z M910.035,886.731
	c0,354.047,0,705.576,0,1056.252c72.36,51.027,121.098,45.935,183.911-3.158c0-350.641,0-702.208,0-1054.07
	c111.601-64.622,222.45-128.808,335.884-194.49c-10.768-5.792-17.849-9.366-24.708-13.324
	c-117.606-67.882-235.436-135.38-352.617-203.988c-35.984-21.068-69.366-23.946-104.309,1.588
	c-14.986,10.95-32.586,18.273-48.759,27.655C792.209,565.4,685.045,627.717,573.965,692.262
	C688.066,758.287,799.159,822.572,910.035,886.731z"/>
</svg>
