<?xml version="1.0" encoding="iso-8859-1"?>
<!-- Generator: Adobe Illustrator 19.0.0, SVG Export Plug-In . SVG Version: 6.00 Build 0)  -->
<svg version="1.1" id="Layer_1" xmlns="http://www.w3.org/2000/svg" xmlns:xlink="http://www.w3.org/1999/xlink" x="0px" y="0px"
	 viewBox="0 0 500 500" style="enable-background:new 0 0 500 500;" xml:space="preserve">
<path d="M103.028,122.694c20.957-16.078,41.544-31.873,62.665-48.077c76.131,100.598,151.823,200.615,228.108,301.418
	c-20.829,16.053-41.329,31.854-62.642,48.28C255.091,323.742,179.347,223.598,103.028,122.694z M258.872,3
	c-21.221,16.309-41.908,32.208-62.624,48.129c38.388,50.737,76.205,100.719,114.265,151.021
	c21.236-16.318,41.622-31.983,62.654-48.144C334.873,103.412,297.026,53.409,258.872,3z M237.947,495.928
	c21.235-16.387,41.877-32.316,62.57-48.285c-38.545-50.911-76.297-100.774-114.228-150.873
	c-21.068,16.162-41.514,31.845-62.621,48.037C162.043,395.553,199.77,445.444,237.947,495.928z"/>
</svg>
