<?xml version="1.0" encoding="iso-8859-1"?>
<!-- Generator: Adobe Illustrator 19.0.0, SVG Export Plug-In . SVG Version: 6.00 Build 0)  -->
<svg version="1.1" id="Layer_1" xmlns="http://www.w3.org/2000/svg" xmlns:xlink="http://www.w3.org/1999/xlink" x="0px" y="0px"
	 viewBox="0 0 2000 2000" style="enable-background:new 0 0 2000 2000;" xml:space="preserve">
<path d="M895.159,1844.24c-17.37-10.284-33.602-19.895-51.332-30.392c6.609-11.716,12.839-22.759,19.813-35.12
	c18.323,10.271,34.697,19.449,51.34,28.779c44.01-42.907,92.158-46.686,145.308-15.562
	c196.915-113.692,394.277-227.642,586.768-338.779c7.402-25.419,11.587-46.846,19.93-66.51
	c8.788-20.712,27.307-33.643,47.371-44.029c0-229.626,0-458.6,0-688.944c-6.184-3.833-12.845-7.962-21.442-13.291
	c-196.954,113.701-394.303,227.631-592.884,342.271c1.4,37.551-8.379,70.914-38.446,95.514
	c-19.981,16.348-43.445,24.333-68.937,23.549c-60.096-1.848-96.215-43.334-102.508-117.367
	C692.786,870.4,494.766,756.057,297.653,642.238c-62.397,32.634-113.965,26.308-148.931-17.152
	c-30.679-38.131-30.325-93.689,0.835-131.381c34.556-41.8,86.856-48.876,144.052-18.189
	c198.236-114.448,397.476-229.475,596.103-344.148c8.707-75.018,42.342-113.548,100.835-116.533
	c50.168-2.56,96.251,31.886,106.498,79.608c12.472,58.082-15.306,102.094-83.211,129.228c0,22.037,0,45.042,0,68.929
	c-13.607,0-25.029,0-38.822,0c0-23.01,0-45.98,0-68.325c-16.324-8.001-30.53-14.963-45.875-22.484
	c-197.365,113.959-395.392,228.3-593.624,342.759c0,8.781,0,16.638,0,26.316c197.58,114.101,395.601,228.456,593.917,342.982
	c13.75-6.5,27.44-12.972,43.418-20.526c0-16.763,0-35.477,0-55.907c13.821,0,25.815,0,40.04,0c0,17.61,0,36.186,0,54.202
	c16.511,7.287,30.991,13.678,47.282,20.867c195.638-112.951,392.434-226.571,589.698-340.461
	c1.278-15.186,2.548-30.267,3.947-46.889c-3.983-3.57-8.658-7.76-14.246-12.769c6.117-10.531,12.239-21.07,18.841-32.435
	c6.493,2.414,11.712,4.355,16.662,6.195c62.972-47.445,127.289-43.699,164.977,9.26c38.038,53.45,21.578,114.761-43.427,158.484
	c0,228.145,0,457.012,0,685.424c63.307,43.432,81.798,99.545,50.555,151.846c-31.833,53.287-89.217,64.916-156.685,30.15
	c-195.536,112.897-392.251,226.475-590.47,340.921c1.35,40.712-10.816,75.77-46.027,100.037
	c-24.398,16.815-51.652,20.226-79.575,15.416C926.004,1969.322,877.885,1919.195,895.159,1844.24z M394.432,1507.97
	c-22.257-13.333-43.198-25.879-63.289-37.914c8.194-68.575-14.679-112.82-66.227-130.899c-47.306-16.592-99.22,2.359-124.804,45.559
	c-24.744,41.781-16.588,96.571,19.612,129.613c17.148,15.652,37.263,24.802,60.691,26.752c35.799,2.98,65.386-10.067,89.464-34.944
	c21.739,12.394,41.92,23.899,64.601,36.829C381.785,1530.154,387.792,1519.618,394.432,1507.97z M648.877,1701.517
	c7.301-12.953,13.271-23.545,20.022-35.521c-26.657-15.43-52.112-30.164-79.215-45.851c-6.932,11.933-12.986,22.357-20.584,35.437
	C596.974,1671.631,622.378,1686.258,648.877,1701.517z M786.341,1780.1c7.363-13.205,13.213-23.696,19.639-35.22
	c-27.596-15.776-53.069-30.338-79.33-45.35c-7.548,13.003-13.66,23.533-20.321,35.008
	C733.635,1750.391,758.961,1766.288,786.341,1780.1z M1090.494,197.47c27.166,15.646,52.523,30.25,78.93,45.459
	c7.49-12.826,13.618-23.319,20.59-35.259c-26.594-15.329-52.092-30.027-79.633-45.903
	C1103.531,174.063,1097.402,185.068,1090.494,197.47z M1247.763,241.085c-7.331,12.599-13.443,23.102-20.563,35.336
	c26.753,15.467,52.219,30.189,79.636,46.039c6.96-12.471,13.136-23.535,19.981-35.8
	C1299.625,270.983,1274.171,256.309,1247.763,241.085z M1521.772,399.375c-7.428,13.342-13.272,23.84-19.868,35.688
	c27.149,15.6,52.585,30.216,79.056,45.426c7.109-12.361,13.155-22.875,20.383-35.443
	C1573.539,429.088,1548.175,414.529,1521.772,399.375z M432.159,1576.507c27.147,15.639,52.552,30.275,79.441,45.766
	c7.259-13.177,13.296-24.137,19.733-35.822c-26.996-15.582-51.902-29.958-78.955-45.572
	C444.829,1554.182,438.896,1564.636,432.159,1576.507z M974.747,450.937c13.33,0,25.788,0,38.086,0c0-30.643,0-59.448,0-88.988
	c-13.211,0-25.22,0-38.086,0C974.747,392.21,974.747,421.119,974.747,450.937z M1012.753,1400.809c0-30.71,0-59.491,0-88.807
	c-13.263,0-25.244,0-37.947,0c0,30.336,0,59.228,0,88.807C988.19,1400.809,1000.625,1400.809,1012.753,1400.809z M1364.555,355.97
	c27.225,15.489,52.842,30.063,79.436,45.193c7.375-13.024,13.321-23.524,19.958-35.246c-27.048-15.672-52.075-30.172-79.248-45.916
	C1376.992,333.766,1371.063,344.351,1364.555,355.97z M1012.993,1629.812c-13.486,0-25.894,0-37.55,0c0,30.416,0,59.064,0,88.552
	c12.868,0,24.188,0,37.55,0C1012.993,1687.559,1012.993,1658.884,1012.993,1629.812z M1012.512,610.406c0-30.693,0-60.055,0-88.967
	c-13.463,0-25.394,0-37.364,0c0,30.451,0,59.226,0,88.967C988.325,610.406,1000.223,610.406,1012.512,610.406z M1012.757,1471.13
	c-13.192,0-25.104,0-37.057,0c0,30.685,0,59.95,0,89.496c13.186,0,24.531,0,37.057,0
	C1012.757,1530.234,1012.757,1500.899,1012.757,1471.13z M213.594,1294.671c13.341,0,25.207,0,37.408,0c0-30.021,0-58.615,0-88.183
	c-12.65,0-24.023,0-37.408,0C213.594,1237.036,213.594,1265.684,213.594,1294.671z M975.573,1154.743c0,30.409,0,59.016,0,87.114
	c13.594,0,25.46,0,37.765,0c0-29.846,0-58.001,0-87.114C998.917,1154.743,987.072,1154.743,975.573,1154.743z M250.635,1048.273
	c-13.468,0-25.338,0-37.193,0c0,30.546,0,59.341,0,89.16c12.671,0,24.102,0,37.193,0
	C250.635,1107.724,250.635,1077.867,250.635,1048.273z M250.966,978.867c0-30.585,0-59.861,0-89.335c-13.264,0-25.178,0-37.93,0
	c0,30.043,0,58.794,0,89.335C226.929,978.867,238.822,978.867,250.966,978.867z M250.769,820.579c0-30.48,0-59.667,0-88.456
	c-13.478,0-25.403,0-37.333,0c0,30.159,0,58.812,0,88.456C226.581,820.579,238.442,820.579,250.769,820.579z M975.168,768.043
	c13.153,0,25.01,0,37.32,0c0-30.482,0-59.673,0-89.177c-12.911,0-24.294,0-37.32,0C975.168,709.757,975.168,738.409,975.168,768.043
	z M514.913,1295.029c27.578-16.016,53.035-30.8,79.388-46.104c-6.482-10.932-11.873-20.021-17.902-30.189
	c-27.064,15.592-52.104,30.018-79.328,45.703C503.722,1275.841,509.046,1284.969,514.913,1295.029z M1412.102,1219.736
	c-6.313,11.468-11.385,20.681-17.016,30.908c27.362,15.563,52.993,30.141,79.312,45.111c6.337-10.926,11.405-19.666,17.638-30.412
	C1464.193,1249.457,1438.618,1234.865,1412.102,1219.736z M1199.726,1138.026c6.039-10.336,11.403-19.517,17.818-30.498
	c-27.102-15.56-52.617-30.208-79.619-45.71c-6.088,10.681-11.338,19.89-17.475,30.656
	C1147.428,1107.977,1173.089,1122.721,1199.726,1138.026z M456.878,1328.162c-6.326-10.927-11.63-20.089-17.652-30.489
	c-27.166,15.636-52.593,30.271-79.455,45.732c6.173,10.536,11.192,19.101,17.812,30.401
	C404.853,1358.108,430.294,1343.463,456.878,1328.162z M1628.763,1344.095c-27.473-15.729-52.892-30.281-79.303-45.402
	c-6.23,11.202-11.313,20.342-17.053,30.664c27.208,15.687,52.202,30.098,79.395,45.776
	C1618.089,1363.628,1623.105,1354.449,1628.763,1344.095z M1337.142,1217.027c6.131-10.798,11.356-19.999,17.421-30.681
	c-27.128-15.565-52.789-30.289-79.405-45.56c-5.938,10.289-10.979,19.024-17.61,30.515
	C1284.862,1186.993,1310.423,1201.677,1337.142,1217.027z M731.45,1170.052c-6.426-11.016-11.703-20.062-17.717-30.371
	c-27.381,15.793-52.722,30.408-79.338,45.76c6.408,11.058,11.39,19.656,17.75,30.632
	C679.59,1200.147,704.966,1185.421,731.45,1170.052z M771.655,1106.62c6.524,11.164,11.791,20.176,17.746,30.366
	c27.441-15.844,52.817-30.497,79.243-45.755c-6.117-10.725-11.049-19.371-17.454-30.599
	C823.471,1076.659,798.081,1091.34,771.655,1106.62z"/>
</svg>
