<?xml version="1.0" encoding="utf-8"?>
<!-- Generator: Adobe Illustrator 26.0.0, SVG Export Plug-In . SVG Version: 6.00 Build 0)  -->
<svg version="1.1" id="shib" xmlns="http://www.w3.org/2000/svg" xmlns:xlink="http://www.w3.org/1999/xlink" x="0px" y="0px"
	 viewBox="0 0 500 500" style="enable-background:new 0 0 500 500;" xml:space="preserve">
<g>
	<path d="M340.3,112.1c4.3,3.2,8.8,6.5,13.1,9.9c0.4,0.4,0.8,0.7,1.2,1.1c1.2,1.1,2.5,2.4,4.1,3.4c0.9,1.1,1.9,1.8,2.6,2.4
		c0.4,0.3,0.8,0.6,0.9,0.8l0.1,0.1c1.4,1.4,2.7,2.8,4.1,4.1c4.1,4.1,8,8,11.7,12.3c4.1,4.8,7.8,9.5,11.2,14.2
		c3.9,5.3,7.4,10.5,10.6,15.6l0.1,0.1c1.5,3.7,4.1,4.4,6,4.4c2.9,0,4.9-2.1,5.8-6.1c1-3.2,2-6.5,3-9.7c1.2-3.8,2.4-7.7,3.5-11.6
		c2.8-10,4.8-17.6,6.4-24.8c2.4-10.6,3.9-19.4,4.8-27.8c0.7-5.9,1.1-12,1.3-18.8c0.2-5.3-0.4-10.5-0.9-15.4l-0.2-1.6l-0.1-0.7
		c-0.1-0.2-0.1-0.5-0.2-0.7c-0.6-5.1-2.1-10.1-4.7-15.8c-2.6-6-6.7-5.3-10.1-4.1c-8.4,3.3-16.7,7.7-24.8,13.2
		c-10.6,7.3-21.4,16.4-33,27.6c-5.6,5.4-11.2,11.3-17.4,18.1c-0.6,0.7-2.1,2.4-1.9,5C337.7,109.3,338.6,110.8,340.3,112.1z
		 M363.7,91.6C374.9,80.7,385.3,72,395.4,65c6.9-4.7,13.9-8.5,21-11.4c1.6,4,2.6,7.5,3,11c0.1,0.7,0.2,1.3,0.4,1.8l0.1,1.1
		c0.5,4.8,1.1,9.4,0.9,14c-0.2,6.5-0.6,12.4-1.3,18c-0.9,8-2.3,16.5-4.6,26.8c-1.5,6.9-3.4,14.4-6.2,24.2c-1.1,3.8-2.3,7.7-3.5,11.4
		c-0.3,0.9-0.6,1.8-0.8,2.7c-2.2-3.3-4.5-6.6-7-9.9c-3.6-4.9-7.4-9.8-11.6-14.8c-3.9-4.6-8.1-8.8-12.2-12.9c-1.3-1.3-2.7-2.7-4-4
		c-0.8-0.8-1.5-1.4-2.2-1.9c-0.3-0.3-0.8-0.6-0.9-0.8l-0.8-1.4l-1.4-0.7c-0.8-0.4-1.8-1.3-2.8-2.3c-0.5-0.5-1-1-1.5-1.4l-0.2-0.2
		c-3.5-2.7-7-5.4-10.5-7.9C354.3,100.9,359.1,96,363.7,91.6z"/>
	<path d="M453.1,318.9c-0.1-0.5-0.2-1-0.2-1.4c-0.2-6.4-0.6-12-1-17.1c-0.6-6.6-1.4-13-2.4-19.6c-1.8-11-4.2-21.6-7.1-31.5
		c-1.9-6.6-4.3-13.2-6.4-18.7c-2-5.4-4.6-10.5-7.1-15.4c-1.6-3.1-3.2-6.3-4.6-9.5c-1.1-2.4-1.2-3.6-0.7-5.2
		c3.9-11.9,7.2-23.9,10.2-35.1c3.1-11.6,5.4-21.2,7.3-30.1l0-0.2c0-0.2,0.2-0.6,0.3-1.1l0.1-0.4l0.1-0.5c0.2-1.6,0.5-3.1,0.9-4.8
		c0.3-1.2,0.5-2.5,0.8-3.8c1.4-7.6,2.8-15.5,3.9-23.4c1.5-10.7,2.5-20.5,2.8-30c0.3-10.4,0.3-24-3.4-37.4
		c-1.9-7.1-4.2-12.7-7.3-17.6c-1.1-1.9-3.3-4-7.3-3.7c-8.3,0.6-16.7,2.8-26.2,7.1c-11.3,5.1-22.4,12.3-33.8,22.3
		c-4.1,3.5-7.9,7.2-11.5,10.8c-1.5,1.4-2.9,2.9-4.4,4.3l-1.7,1.9c-4.2,4.7-8.6,9.6-12.4,14.7c-5.3,6.5-11.4,14.1-17.1,22
		c-12.2-4.5-24.8-7.9-38.6-10.2c-14.3-2.3-29.1-3.2-45.2-2.7c-12.8,0.4-22.5,1.3-31.6,3c-12.5,2.3-23.8,5.6-34.4,9.9
		c-5.6-6.5-11.7-13.5-18.6-21.3c-2.7-3-5.4-5.9-8-8.8c-2-2.1-4-4.3-5.9-6.5l-0.1-0.1c0-0.1-0.1-0.1-0.1-0.2l-0.3-0.4l-0.3-0.3
		c-1.8-1.8-3.5-3.5-5.3-5.3c-1.8-1.7-3.5-3.5-5.3-5.2c-10.7-10.5-20-18.3-29.4-24.2c-9.8-6.3-18.5-9.9-27.5-11.3
		c-7.6-1.1-11.7,0.7-15.6,6.9c-3.1,4.9-4.7,10.2-5.8,14.3c-2.4,8.9-3,18-3.3,26.4c-0.2,6.6-0.1,13.5,0.2,21.1
		c0.4,7.9,1,14.9,1.6,21.5c0.8,7.1,1.8,14.1,2.7,20.6c0.2,1.9,0.6,3.7,0.9,5.4c0.5,2.6,0.9,5.1,1.1,7.5l0,0.4l3.7,16.5
		c1.5,7.2,3.4,14.6,5.7,22.5c2.6,9.5,5.8,19,9.4,28.1c-4.9,10.7-8.4,19-11.4,26.9l-0.1,0.3c-0.2,0.7-0.7,1.9-1.1,3
		c-0.4,1.1-0.8,2.2-1.2,3.1c-3.4,9.4-6.2,19-8.7,29.1c-1.4,6.1-2.8,12.4-3.8,18.5c-1.4,7.6-2.4,15.1-3,22.3
		c-0.1,1.1-0.2,2.2-0.2,3.3c-0.3,4.4-0.7,8.9-0.8,13.4c-0.5,7.4,0.2,14.9,2.2,22.2c2.6,9.6,6.9,19.2,13.1,29.3
		c10.2,16.5,23.5,31.5,41.6,47.1c21.7,18.8,46.1,34.5,72.7,46.8l2.6,1.2c4.3,1.9,8.7,3.9,13.2,5.7c2.7,1,5.3,2,7.9,2.9
		c1.3,0.5,2.6,0.9,3.9,1.4l0.1,0c0.9,0.3,1.9,0.6,2.9,1c1.5,0.5,3.1,1.1,4.6,1.6c9.5,3,19.3,5,29.2,5.9c3.7,0.4,7.4,0.6,11.2,0.6
		c7.2,0,14.7-0.7,22.7-2c9.5-1.6,19.3-4,29.2-7.2c9.1-2.9,18.5-6.6,28.8-11.3c13.4-6.2,26.2-13.3,38-21.2
		c12-7.8,22.9-16.3,32.6-25.3c4.2-3.9,8.5-7.9,12.3-12.5c0.4-0.4,1.3-1.2,1.5-1.4l0.2-0.2c8.2-9.2,14.3-17.2,19-25.2
		c0.6-1.1,1.3-2.1,1.9-3.1c2.3-3.9,4.8-7.9,6.7-12.2c4.8-10.4,7.9-20.5,9.4-31c0.5-4,0.8-7.6,0.7-11
		C453.6,322.6,453.3,320.5,453.1,318.9z M55.8,307.1c0.6-6.8,1.5-14,2.9-21.4c1-5.9,2.4-12.1,3.7-18c2.3-9.8,5-18.9,8.3-28.1l0-0.1
		c0.2-0.7,0.6-1.8,1-2.8c0.5-1.3,0.9-2.5,1.2-3.4c2.9-7.7,6.4-15.9,11.2-26.5c0.5-1.1,1.6-3.6,0.4-6.6c-3.6-9.1-6.8-18.5-9.4-28
		c-2.2-7.7-4-14.9-5.5-21.9l-3.5-15.8c-0.2-2.9-0.7-5.6-1.2-8.3c-0.3-1.7-0.6-3.3-0.8-5.1c-1-6.5-1.9-13.3-2.7-20.3
		c-0.6-6.4-1.1-13.3-1.6-20.9c-0.3-7.3-0.4-14-0.2-20.3c0.3-7.9,0.8-16.2,2.9-24.2c0.9-3.4,2.2-7.7,4.6-11.5
		c1.7-2.7,1.9-2.9,5.6-2.3c7.6,1.2,14.9,4.3,23.6,9.9c8.8,5.6,17.6,12.9,27.8,22.9c1.8,1.8,3.5,3.5,5.3,5.3c1.7,1.6,3.3,3.3,4.9,4.9
		c0.2,0.3,0.5,0.7,0.9,1.1c2,2.2,4,4.3,5.9,6.5c2.6,2.8,5.3,5.7,7.9,8.6c7.2,8.1,13.4,15.2,19.2,21.9c2.6,3.1,5.9,3.9,9.7,2.4l0.1,0
		c10.3-4.3,21.2-7.4,33.4-9.7c8.6-1.6,17.8-2.5,30.1-2.8c15.4-0.5,29.6,0.3,43.2,2.5c13.4,2.2,25.6,5.5,37.4,9.9
		c4.9,1.9,7.4,1.2,10.5-3.1c5.7-7.9,11.9-15.7,17.2-22.3l0.1-0.2c3.5-4.8,7.8-9.5,11.9-14.1l1.3-1.5c1.5-1.4,2.9-2.8,4.3-4.2
		c3.6-3.5,7.2-7.1,11-10.4c10.8-9.4,20.8-16,31.4-20.7c8-3.6,14.9-5.5,21.6-6.2c2.2,3.8,4,8.2,5.4,13.8c3.3,12.1,3.3,24.8,3,34.5
		c-0.4,9.1-1.3,18.6-2.8,29c-1.1,7.7-2.5,15.5-3.9,23c-0.2,1.1-0.4,2.2-0.7,3.4c-0.4,1.6-0.7,3.3-1,5.1c-0.2,0.6-0.4,1.2-0.5,2
		c-1.9,8.7-4.2,18.2-7.2,29.6c-2.9,11-6.2,22.8-10,34.5c-1.6,5.1-0.4,9,1.1,12.4c1.5,3.4,3.2,6.7,4.9,10c2.5,4.9,4.8,9.5,6.6,14.4
		c2,5.4,4.3,11.7,6.2,18.1c2.8,9.5,5.1,19.7,6.9,30.2c1,6.4,1.8,12.6,2.4,19c0.4,4.9,0.8,10.3,1,16.6c0,0.1,0,0.1,0,0.2
		c-1-0.2-2-0.3-3.1-0.4c-11.8-1.2-21-1.4-29.7-0.5c-11.9,1.3-23.1,4.1-33.3,8.3c-13.4,5.5-25.8,13.7-37.1,24.4
		c-0.9,0.9-1.8,1.8-2.7,2.7c-0.2-0.7-0.5-1.4-0.7-2c-2.5-7.6-6-14.7-9.5-21.5c-0.9-1.7-1.7-3.4-2.6-5.2c-1.4-2.9-3.2-5.7-5.4-8.3
		c-7.6-8.7-15.4-15.5-23.9-20.7c-13.5-8.4-29-12.7-46.2-12.7c-7.8,0-16.1,1.4-25.2,4.2c-15.1,4.7-28.3,13.6-40.2,27.2
		c-3.3,3.7-5.7,7.8-8,11.8c-0.6,1.1-1.2,2.1-1.9,3.2c-0.8,1.4-1.7,3-2.7,4.6c-1.3,2.2-2.5,4.5-3.7,6.7c-1.6,3-3.2,6.3-4.6,9.6
		c-0.5,1.1-1,2.2-1.5,3.3c-19.4-20.1-41-31.8-65.9-35.6c-9.7-1.5-19.9-1.7-31.1-0.8c-3.1,0.2-6.2,0.7-9.2,1.2c0.1-2.4,0.3-4.7,0.5-7
		C55.6,309.3,55.7,308.2,55.8,307.1z M442.4,334.6c-1.4,9.5-4.2,18.7-8.6,28.2c-1.8,3.8-3.9,7.4-6.2,11.2c-0.6,1.1-1.3,2.1-1.9,3.2
		c-4.4,7.4-10,14.8-17.7,23.5c-0.4,0.4-1.4,1.3-1.4,1.3l-0.5,0.5c-3.5,4.2-7.4,7.9-11.6,11.8c-9.2,8.6-19.8,16.8-31.3,24.3
		c-11.4,7.6-23.8,14.4-36.7,20.4c-9.9,4.5-18.9,8.1-27.7,10.9c-9.4,3-18.8,5.3-27.8,6.8c-11.3,1.9-21.6,2.3-31.3,1.4
		c-9.2-0.9-18.3-2.7-27.1-5.5c-1.5-0.5-2.9-1-4.4-1.5c-1-0.3-1.9-0.7-2.9-1c-1.3-0.5-2.6-0.9-3.9-1.4c-2.5-0.9-5.1-1.8-7.7-2.8
		c-4.3-1.6-8.5-3.5-12.6-5.4l-2.5-1.2c-25.7-11.9-49.3-27.1-70.3-45.2c-17.3-15-29.9-29.3-39.6-44.8c-5.7-9.3-9.6-18-11.9-26.7
		c-1.3-4.9-2-9.9-2-14.9c3.5-0.6,6.9-1.1,10.4-1.4c10.4-0.8,19.9-0.6,28.8,0.8c24,3.7,44.7,15.4,63.3,36c0.3,0.4,0.7,0.8,1,1.1
		c0.3,0.3,0.6,0.6,0.9,0.9l5.2,5.9l0-0.1l0.1,0.1l2.4-5.8l0.6-1.4c0.9-1.9,1.7-3.8,2.5-5.7c0.7-1.6,1.3-3.1,2.1-4.8
		c1.3-3,2.7-6,4.3-9c1.2-2.3,2.4-4.4,3.5-6.4c0.8-1.4,1.6-2.8,2.5-4.2c0.9-1.4,1.7-2.8,2.5-4.1c2-3.4,3.9-6.6,6.3-9.4
		c10.7-12.1,22.3-20,35.6-24.2c8.1-2.5,15.4-3.8,22.2-3.8c15.3,0.1,29.1,3.9,41,11.1c7.8,4.9,14.9,11.1,21.7,18.8
		c1.5,1.7,2.8,3.7,4,6.1c1,2.1,2.1,4.2,3.1,6.4c3.2,6.5,6.2,12.6,8.5,19.1c0.8,2.4,1.6,4.9,2.4,7.3l3.3,9.9l5.7-5.5
		c1.5-1.4,2.9-2.8,4.3-4.2c1.4-1.4,2.7-2.7,4.1-4c10.6-10,21.8-17.4,34-22.4c9.4-4,19.4-6.4,30.5-7.5c7.9-0.8,16.4-0.7,27.6,0.5
		c1.3,0.1,2.7,0.4,4.1,0.6C442.8,330.4,442.6,332.4,442.4,334.6z"/>
	<path d="M131.6,229.1c-3.6,0-6.2,1.7-7.8,5.2l-0.1,0.3c-1.7,4.2-2,8.3-2.3,13l-0.2,2.2l0,0.3c0,0.5,0.1,1.2,0.1,1.8
		c0.1,1.6,0.3,3.6,0.3,5.5c-0.1,5,2.6,8.2,4.6,10.1c8.4,8.2,18.7,12.8,28.5,16.5c5.9,2.3,12.5,4.2,20.2,5.9c7.5,1.7,14.4,2.6,21,2.8
		c0.4,0,0.7,0,1.1,0c2.7,0,5.4-0.4,8-1.3c5.7-2,6-6.5,5.6-9.1l0-0.1c-0.4-2.4-1.1-4.5-2.1-6.3c-3.1-6.3-8-11.6-14.8-16.2
		c-13.8-9.5-28.6-19.3-44.9-26.5C143.9,231.1,138.1,228.9,131.6,229.1z"/>
	<path d="M93.8,177.3l0.9-1.4c3.5-5.5,7.1-11.1,11-16.3c6-7.9,11.2-14.4,17-20.5c4.8-4.9,9.9-10.2,15.6-14.8
		c4.5-3.8,10-8.1,15.9-12.1l0.1-0.1c1.7-1.2,2.7-2.7,2.9-4.5c0.2-1.8-0.4-3.5-1.8-5.1l-0.1-0.1c-1.4-1.5-2.8-3-4.2-4.5
		c-2.4-2.6-4.8-5.2-7.3-7.7C137.5,84,130.5,77.2,123,71c-4.3-3.6-10.1-8.4-16.4-12.8C100.2,53.7,93.9,50,87.8,47
		c-3.7-1.8-6.8-3-9.6-3.9l-0.6-0.1c-5.1-0.8-6.8,3.1-7.8,5.4c-4.3,9.7-5.3,20-5.8,28.7c-0.4,6.1,0.1,12.1,0.6,17.8
		c0.3,3.7,0.7,7.6,1.5,12.2l0.1,0.9c0.7,4,1.3,8.2,2.2,12.2c1,5.4,2.3,11,3.9,17.3c1.8,7,3.7,14.1,5.7,21.2
		c1.7,5.8,3.5,11.5,5.3,17.2c0.9,3.3,3.6,4.5,5.6,4.5C90,180.4,92.3,180,93.8,177.3z M81.9,135.1c-1.5-6-2.7-11.5-3.8-16.8
		c-0.8-3.9-1.5-7.9-2.1-11.9l-0.1-0.9c-0.7-4.3-1.1-8-1.4-11.5c-0.5-5.7-1-11-0.6-16.4c0.4-7.8,1.3-16.1,4.4-23.9
		c1.5,0.6,3.2,1.3,5.1,2.2c5.7,2.8,11.6,6.3,17.5,10.4c6,4.2,11.5,8.7,15.7,12.2c7.2,6,14,12.6,20.2,18.8c2.4,2.4,4.7,4.9,7,7.4
		c0.5,0.5,0.9,1,1.4,1.5c-4.9,3.5-9.4,7.1-13.2,10.3c-6,5-11.5,10.4-16.4,15.6c-6.1,6.4-11.5,13.2-17.8,21.3
		c-2.7,3.6-5.2,7.3-7.7,11c-0.9-2.9-1.8-5.8-2.6-8.7C85.5,149,83.6,141.9,81.9,135.1z"/>
	<path d="M297.9,291.6c2.1,0.5,4.5,1,7.3,1c7.2,0,14.9-1.1,24.3-3.4c11.2-2.8,20.7-6.2,29.2-10.6c5.6-2.9,12-6.7,17.4-12.6
		c0.9-1,3.6-3.8,3.3-8.3l0-0.1c-0.1-1.5,0-3.1,0.1-4.8c0-0.7,0.1-1.4,0.1-2.1l0-0.2c0-4.3,0-9.1-1.5-13.7l-0.3-1.1
		c-2-6.3-4.1-7.7-11-7c-7.7,0.7-14.6,3.9-20.5,6.9c-9.5,4.7-18.3,10.3-24.8,14.7c-1,0.7-2.1,1.3-3.1,2c-5.5,3.5-11.2,7.2-16.1,12.1
		c-4.8,4.7-9.4,10.1-10.6,18C291,287.1,293.3,290.6,297.9,291.6z"/>
	<path d="M93.8,177.4C93.8,177.4,93.8,177.4,93.8,177.4L93.8,177.4C93.8,177.4,93.8,177.4,93.8,177.4z"/>
	<path d="M286.1,390.1c-3.8-0.1-7.6-0.1-11.5-0.1c-0.8,0-1.6,0.1-2.2,0.1c-0.4,0-1.1,0.1-1.5,0.1c-0.3-0.5-0.8-1.5-1-2.1
		c-0.1-0.3-0.3-0.6-0.4-0.9l-0.1-0.2c-1.1-2-2.4-3.1-3.7-3.7c0-2.1,0-4.3,0-6.3c0-0.8,0-1.6,0-2.3c3-1.3,6-3,8.9-5.3
		c7.4-5.6,11.9-12.6,13.4-20.7c0.8-4.2,0.8-8.2,0.7-12.1c0-1.5,0-2.9,0-4.2c0.1-4.3-1.7-8.7-5.1-12.2c-3.4-3.5-7.9-5.6-12.2-5.6
		h-34.7c-9.8,0-16.7,6.9-16.7,16.7c0,1.1,0,2.3,0,3.4c0,2.2,0.1,4.2,0,6.2c-0.4,7.6,2.3,14.4,8.3,20.7c6.1,6.3,13.4,10.2,19.4,12.9
		v8.6c-1.4,0.8-2.7,2.1-3.7,4.1c-0.4,0.7-0.8,1.4-1.2,2c-0.1,0.2-0.3,0.5-0.4,0.7c-6.1,0-12,0-17.9-0.3c-1-1.3-2.7-2.2-5.4-2.2
		c-2.5,0-5,0-7.6,0c-2.5,0-5,0-7.5-0.1c-1.6-0.2-3,0.1-4.2,1c-1.2,0.9-1.9,2.1-2.1,3.6c-0.2,1-0.5,3.5,1.4,5.8l0.3,0.3
		c0.2,0.2,0.4,0.4,0.6,0.6c0.7,0.7,1.5,1.5,2.4,2.3c0,0,0,0.1,0,0.1c0.1,2.6,0.6,4.9,1,7.1l0,0.1c0.2,1,0.8,3.6,3.2,5
		c0.8,0.5,1.6,0.7,2.5,0.8c0.5,1.9,1.1,3.8,1.7,5.5c1.1,3.4,2.6,7.3,5.2,10.8l3.5,4.7l4.1-4.2c3.6-3.8,4-8.1,3.9-12.1
		c-0.1-3.9-0.1-7.7-0.1-11.6c0.7,0.1,1.4,0.2,2.2,0.3c-0.5,1.4-0.5,2.9-0.4,4.2l0,0.2c0,1.6,0.6,3.9,3.2,5.7l0.1,0.1
		c1.7,1,3.4,1.7,4.8,2.3l0.9,0.4c0.7,0.3,3,1.2,5.4,0.2c0.8-0.4,1.5-0.9,2.1-1.6c0.4,0.7,0.8,1.4,1.2,2c1.5,2.6,3.9,4.2,6.6,4.4
		c2.7,0.2,5.4-0.9,7.4-3.3l0.1-0.2c0.4-0.5,0.8-0.9,1.2-1.4c0.3-0.3,0.5-0.6,0.8-1c2,1.7,4.1,1.7,5.5,1.4c4.8-1.1,8.5-5.5,8.7-10.6
		l0-0.2c0-0.7-0.1-1.5-0.3-2.3c2.1-0.3,4.2-0.6,6.4-0.9c0,1.6,0,3.1,0,4.7c0,3,0,6-0.1,9.1c0,3.6,1.7,6,2.9,7.8
		c0.3,0.5,0.7,1,0.9,1.4l5.3,9.3l3.8-10c1.1-2.8,2.1-5.6,3.2-8.3c0.9-2.2,1.7-4.4,2.6-6.7c4.5-0.2,5.8-3.2,6.2-4.7
		c1.3-4.5,2.3-8.9,3.5-13.5l2.1-8.5h-22.1C289.2,387.5,287.3,388.4,286.1,390.1z M209.3,404.2L209.3,404.2
		C209.3,404.2,209.3,404.2,209.3,404.2C209.3,404.2,209.3,404.2,209.3,404.2z"/>
</g>
</svg>
