<?xml version="1.0" encoding="iso-8859-1"?>
<!-- Generator: Adobe Illustrator 19.0.0, SVG Export Plug-In . SVG Version: 6.00 Build 0)  -->
<svg version="1.1" id="Layer_1" xmlns="http://www.w3.org/2000/svg" xmlns:xlink="http://www.w3.org/1999/xlink" x="0px" y="0px"
	 viewBox="0 0 500 500" enable-background="new 0 0 500 500" xml:space="preserve">
<path d="M409.817,163.128c-26.656,26.994-52.417,53.082-78.819,79.819c-27.154-26.629-53.326-52.295-79.602-78.063
	c-26.004,25.962-52.286,52.203-77.825,77.701c-27.178-27.183-53.622-53.632-79.657-79.673C145.293,111.533,198.118,58.707,251.825,5
	C303.8,57.02,356.459,109.725,409.817,163.128z M250.787,494.081c51.756-51.775,104.257-104.294,156.835-156.89
	c-25.774-25.371-52.435-51.615-79.65-78.404c-24.873,24.844-50.878,50.818-77.16,77.069c-26.406-25.396-53.21-51.175-79.923-76.867
	c-26.425,26.434-52.656,52.674-77.581,77.607C145.859,389.149,198.538,441.83,250.787,494.081z M250.018,326.406
	c26.145-26.159,52.178-52.205,78.565-78.606c-25.111-24.56-51.129-50.007-77.404-75.705c-26.152,26.213-52.549,52.671-79.106,79.29
	C198.276,276.605,224.625,301.966,250.018,326.406z"/>
</svg>
