<?xml version="1.0" encoding="iso-8859-1"?>
<!-- Generator: Adobe Illustrator 19.0.0, SVG Export Plug-In . SVG Version: 6.00 Build 0)  -->
<svg version="1.1" id="Layer_1" xmlns="http://www.w3.org/2000/svg" xmlns:xlink="http://www.w3.org/1999/xlink" x="0px" y="0px"
	 viewBox="0 0 500 500" enable-background="new 0 0 500 500" xml:space="preserve">
<path d="M386.897,8.869c0,5.314-0.285,10.936,0.075,16.516c0.413,6.4-3.031,8.979-8.605,9.737c-2.436,0.331-4.934,0.273-7.404,0.274
	c-35.619,0.015-71.237,0.01-108.3,0.01c-0.369,3.082-1.107,6.38-1.107,9.678c-0.01,46.624,0.074,93.249,0.165,139.873
	c0.004,2.083,0.297,4.165,0.524,7.155c2.795,0.27,5.451,0.745,8.108,0.749c33.558,0.054,67.117-0.038,100.674,0.126
	c5.066,0.025,10.127,1.163,15.862,1.868c0,7.307-0.224,13.278,0.066,19.225c0.263,5.397-2.411,7.81-7.322,8.276
	c-2.804,0.266-5.645,0.179-8.47,0.18c-30.732,0.009-61.465,0.004-92.197,0.003c-3.815,0-7.63,0-11.896,0
	c-0.55,3.25-1.285,5.583-1.289,7.918c-0.042,25.426,0.173,50.853-0.039,76.276c-0.047,5.597,1.699,8.284,6.738,11.441
	c19.965,12.507,25.463,30.656,19.513,50.772c-6.276,21.219-28.002,33.453-48.555,30.045c-18.139-3.008-38.156-19.473-36.986-43.386
	c0.826-16.867,8.049-30.356,23.333-38.351c5.637-2.949,8.169-5.714,7.962-12.804c-0.667-22.935-0.05-45.906-0.078-68.863
	c-0.005-4.101-0.726-8.202-1.186-13.024c-20.935,0-41.018,0.11-61.1-0.031c-19.648-0.139-39.335,0.63-59.574-0.494
	c0-9.927,0-18.273,0-27.789c5.624-0.493,10.773-1.318,15.926-1.335c31.085-0.103,62.17-0.021,93.255-0.002
	c2.772,0.002,5.544,0,9.451,0c0.528-5.801,1.38-10.919,1.399-16.04c0.142-39.188,0.186-78.376,0.098-117.564
	c-0.017-7.659-0.741-15.317-1.162-23.418c-3.886-0.267-6.619-0.621-9.352-0.617c-31.438,0.055-62.876,0.233-94.314,0.185
	c-4.843-0.007-9.685-0.985-15.195-1.587c0-9.018,0-17.355,0-26.938c6.036-0.512,11.862-1.432,17.688-1.437
	C209.553,5.433,285.5,5.49,361.447,5.544C369.773,5.55,378.375,3.503,386.897,8.869z M250.457,375.313
	c11.113-0.145,20.013-9.278,19.787-20.303c-0.203-9.922-9.643-19.063-19.753-19.129c-10.783-0.07-20.483,9.432-20.292,19.877
	C230.404,366.9,239.271,375.459,250.457,375.313z M118.349,401.397c20.331,51.002,57.299,83.053,112.294,91.509
	c23.454,3.606,47.18,1.799,69.651-6.745c23.954-9.109,44.339-23.692,60.15-43.992c19.54-25.088,29.701-53.785,30.553-85.57
	c0.555-20.695-3.785-40.497-12.137-59.49c-5.818-13.228-14.158-24.677-23.805-35.225c-5.631-6.157-8.551-5.963-14.842-0.102
	c-10.267,9.567-10.607,12.465-2.798,23.916c1.193,1.749,2.316,3.551,3.591,5.239c14.96,19.796,21.247,41.845,21.069,66.867
	c-0.334,47.002-32.447,86.407-75.749,99.374c-44.257,13.253-85.271,4.75-118.482-29.467c-16.595-17.098-26.753-37.997-28.756-61.864
	c-2.611-31.102,6.644-58.796,26.823-82.781c6.326-7.52,5.983-9.687-1.422-16.564c-12.662-11.759-12.922-11.753-24.433,1.348
	c-1.156,1.316-2.158,2.774-3.178,4.204c-17.221,24.149-26.63,50.818-25.897,81.681C109.321,369.6,112.282,386.177,118.349,401.397z"
	/>
</svg>
