<?xml version="1.0" encoding="iso-8859-1"?>
<!-- Generator: Adobe Illustrator 19.0.0, SVG Export Plug-In . SVG Version: 6.00 Build 0)  -->
<svg version="1.1" id="Layer_1" xmlns="http://www.w3.org/2000/svg" xmlns:xlink="http://www.w3.org/1999/xlink" x="0px" y="0px"
	 viewBox="0 0 500 500" style="enable-background:new 0 0 500 500;" xml:space="preserve">
<path d="M379.578,378.665c13.41,0,25.55,0,37.689,0c12.123,0,24.246,0,36.278,0c3.731,28.798-7.174,54.212-34.681,66.734
	c-8.258,3.759-17.233,4.968-26.362,4.962c-60.959-0.043-121.917-0.022-182.876-0.022c-34.505,0-69.01,0.091-103.514-0.037
	c-18.47-0.069-34.259-6.543-46.435-20.792c-7.069-8.273-11.376-17.754-13.097-28.611c-1.145-7.223-0.56-14.339-0.888-22.148
	c24.854,0,49.247,0,74.705,0c-1.617-2.005-2.44-3.161-3.398-4.192c-14.523-15.63-29.078-31.23-43.597-46.864
	c-17.423-18.763-34.858-37.515-52.198-56.354c-4.754-5.165-9.666-10.185-12.606-16.831C4.059,244.244,3.62,233.806,6.9,223.304
	c9.124-29.209,23.188-55.902,42.02-80.01c11.753-15.046,25.102-28.558,39.898-40.692c14.781-12.121,30.66-22.493,47.748-30.962
	c20.455-10.137,41.874-17.513,64.353-21.833c10.807-2.077,21.615-3.666,32.627-3.915c7.371-0.167,14.754-1.123,22.097-0.841
	c15.372,0.591,30.694,1.827,45.807,5.115c16.657,3.624,32.861,8.552,48.534,15.264c19.079,8.171,36.943,18.433,53.51,30.928
	c13.268,10.008,25.47,21.198,36.538,33.601c14.588,16.345,26.895,34.246,36.86,53.781c6.26,12.271,11.432,24.963,15.702,38.039
	c5.593,17.128,2.29,32.18-10.144,45.398c-14.954,15.896-29.62,32.063-44.451,48.076c-18.285,19.742-36.615,39.444-54.913,59.175
	C382.112,375.479,381.252,376.635,379.578,378.665z M316.096,345.29c10.164-11.638,20.497-23.47,30.551-34.982
	c3.837,0.227,4.583,2.518,4.903,5.076c1.703,13.644,3.371,27.292,5.056,40.938c0.629,5.099,1.27,10.196,1.967,15.784
	c2.154-2.308,3.771-4.151,5.509-5.873c1.615-1.599,2.424-3.364,2.119-5.696c-1.232-9.414-2.394-18.837-3.579-28.257
	c-0.818-6.501-1.806-12.987-2.393-19.509c-0.504-5.601,2.694-8.085,8.039-6.644c2.531,0.682,5.074,1.331,7.577,2.105
	c10.749,3.322,21.486,6.685,32.569,10.14c4.858-5.249,9.473-10.563,14.471-15.488c2.328-2.294,3.09-4.739,3.394-7.815
	c0.868-8.776,2.015-17.524,3.057-26.327c13.902-4.921,23.014-14.107,27.093-28.298c6.169,1.005,11.914,1.941,18.286,2.98
	c0.414-3.091,0.767-5.731,1.166-8.708c-6.544-1.228-12.569-2.358-18.752-3.518c-0.212-12.39-5.576-21.844-13.499-29.177
	c0.593-10.093,1.143-19.41,1.688-28.727c0.281-4.804-3.224-11.092-7.693-13.844c-1.072,12.169-2.145,24.349-3.287,37.312
	c-11.545-5.249-22.353-3.764-33.16,0.646c-3.582-6.179-6.949-11.962-10.282-17.765c-0.562-0.979-0.972-2.046-1.597-3.383
	c3.091-3.685,4.391-8.093,3.209-12.772c-1.209-4.789-4.644-8.135-8.801-10.719c-0.589-9.491-1.116-18.814-1.763-28.13
	c-0.409-5.884-0.909-11.765-1.574-17.624c-0.149-1.311-0.851-2.898-1.835-3.703c-1.974-1.614-4.317-2.776-7.507-4.74
	c1.132,18.648,2.2,36.224,3.228,53.154c-3.408,2.445-6.299,4.519-9.311,6.68c-1.122-0.438-2.353-0.871-3.546-1.39
	c-16.794-7.31-33.572-14.657-50.391-21.908c-1.545-0.666-3.122-0.903-3.38-2.992c-0.289-2.346,1.336-3.131,2.954-3.986
	c12.743-6.727,25.496-13.434,38.224-20.188c6.465-3.43,12.884-6.946,19.823-10.692c-2.769-1.66-5.006-3.285-7.483-4.355
	c-1.105-0.478-2.897-0.232-4.03,0.355c-9.595,4.97-19.111,10.091-28.648,15.173c-7.224,3.849-14.424,7.743-21.68,11.531
	c-1.52,0.794-2.963,1.694-5.024,0.556c-3.096-1.71-6.501-2.859-10.273-4.457c-5.795-16.244-11.774-33.002-17.846-50.021
	c-3.186-0.424-6.344-0.845-9.718-1.294c0.122,1.194,0.075,1.711,0.235,2.153c4.013,11.058,8.072,22.099,12.071,33.163
	c2,5.534,4.01,11.07,5.766,16.683c0.493,1.575,0.63,3.663-0.005,5.103c-1.229,2.784-3.124,5.274-4.731,7.868
	c-14.896,0-29.782,0-43.764,0c-3.407-7.356-6.531-14.099-9.895-21.36c12.208-13.893,24.914-28.353,38.063-43.316
	c-3.06-0.153-5.197-0.164-7.311-0.389c-3.012-0.32-5.113,0.688-7.152,3.094c-7.531,8.889-15.322,17.559-23.045,26.284
	c-2.592,2.928-5.275,5.776-8.244,9.017c-8.676-5.602-18.011-7.862-27.859-6.254c-9.882,1.613-17.918,6.901-24.387,14.702
	c-2.244-0.731-4.258-1.366-6.258-2.041c-9.138-3.082-18.262-6.204-27.419-9.228c-1.164-0.384-2.757-0.792-3.689-0.305
	c-2.812,1.471-5.397,3.379-8.698,5.524c14.273,4.869,27.534,9.392,41.278,14.08c-3.481,9.453-3.631,18.774-0.916,28.16
	c-14.787,8.358-29.135,16.468-44.239,25.005c0-11.384,0.015-21.85-0.004-32.316c-0.019-10.525,0.72-21.06,0.231-32.261
	c-1.673,1.145-2.544,1.917-3.553,2.402c-4.2,2.02-5.392,5.199-5.395,9.881c-0.012,17.56-0.534,35.12-0.898,52.68
	c-0.016,0.755-0.36,1.503-0.618,2.513c-16.749-1.803-33.312-3.587-50.039-5.388c-3.647,6.129-7.067,11.875-10.408,17.49
	c3.767,11.32,7.369,22.348,11.134,33.32c1.05,3.059,1.183,5.605-1.421,8.009c-1.015,0.936-1.794,2.441-2.064,3.809
	c-0.652,3.308-2.548,4.402-5.771,4.767c-6.606,0.747-13.16,1.949-20.346,3.057c1.111,3.201,1.999,5.755,3.062,8.819
	c5.78-0.983,11.258-1.696,16.627-2.896c4.403-0.984,8.355-1.352,11.296,2.926c0.343,0.499,1.06,0.741,1.661,1.141
	c-1.432,8.906-2.804,17.436-4.223,26.262c3.366,3.587,7.057,7.114,10.236,11.054c1.986,2.462,4.179,2.798,6.913,2.419
	c9.397-1.302,18.799-2.57,28.197-3.871c1.856-0.257,3.701-0.601,6.117-0.998c-0.381,1.935-0.551,3.188-0.878,4.4
	c-2.04,7.571-3.652,15.3-6.314,22.648c-2.48,6.844-1.338,11.635,4.068,16.74c7.081,6.688,6.619,7.078,16.437,4.994
	c7.18-1.524,14.412-2.801,21.049-4.078c4.434,2.507,5.241,5.849,4.646,9.971c-0.514,3.562-0.593,7.185-0.881,10.78
	c-0.419,5.225-0.691,10.468-1.326,15.667c-0.655,5.364,1.804,9.463,8.032,11.912c2.187-13.463,1.681-27.055,3.227-39.305
	c4-2.08,7.113-3.775,10.3-5.316c1.275-0.617,2.696-1.189,4.083-1.278c9.825-0.628,19.658-1.148,29.491-1.648
	c2.232-0.114,4.474-0.017,7.399-0.017c-0.916,8.539,2.127,15.454,6.599,22.003c-9.961,8.348-19.685,16.497-30.181,25.293
	c7.941,0.693,14.608,1.596,19.651-4.65c1.311-1.624,3.237-2.752,4.886-4.101c4.292-3.514,8.588-7.025,12.362-10.112
	c6.095,1.716,11.546,3.251,17.461,4.916c0.289,1.949,0.556,4.382,1.031,6.774c0.494,2.485,1.19,4.929,1.842,7.569
	c7.571,0,14.629-0.186,21.671,0.069c4.3,0.155,7.958-1.063,11.639-3.119c7.131-3.983,14.429-7.666,21.782-11.539
	c7.592,6.059,14.904,5.299,21.826-0.828c2.022,0.976,3.79,1.821,5.551,2.681c7.939,3.879,15.82,7.884,23.833,11.604
	c5.784,2.685,9.079,1.596,12.616-3.837c-12.795-6.277-25.554-12.537-38.068-18.676C317.536,351.653,316.856,348.646,316.096,345.29z
	 M65.903,398.432c3.112,18.529,19.736,32.169,38.623,32.136c96.953-0.166,193.906-0.165,290.859-0.001
	c18.801,0.032,35.524-13.462,38.641-32.136C311.304,398.432,188.621,398.432,65.903,398.432z M337.136,297.289
	c0.919-3.493,1.701-6.467,2.609-9.923c-11.18-13.273-22.545-26.767-33.509-39.784c-6.061,0-11.228,0-16.881,0
	c-12.087,20.792-24.408,41.984-36.605,62.966c2.875,3.998,5.533,7.693,8.687,12.08C286.758,314.152,312.097,305.67,337.136,297.289z
	 M158.005,309.41c3.381,1.903,5.85,0.474,8.49-1.406c6.4-4.561,12.872-9.02,19.299-13.544c8.956-6.303,17.897-12.627,27.314-19.273
	c-4.878-14.437-10.614-28.425-16.028-42.272c-3.217-0.832-6.043-1.563-9.251-2.392c-10.401,6.453-21.065,13.07-31.59,19.599
	c0.104,1.003,0.075,1.503,0.214,1.951c3.656,11.77,1.601,22.233-6.865,31.403c-0.927,1.005-1.127,2.933-1.159,4.443
	c-0.033,1.595,0.546,3.202,0.846,4.806c0.954,5.101,1.903,10.203,2.84,15.228C154.258,308.449,156.377,308.494,158.005,309.41z
	 M347.165,282.028c5.18-0.726,10.236-0.77,14.55,2.896c11.002-7.928,22.257-15.072,32.241-22.829
	c-3.577-5.407-7.404-9.83-9.638-14.949c-2.283-5.232-3.002-11.147-4.514-17.195c-2.337,0.112-5.068,0.31-7.802,0.362
	c-14.277,0.273-28.554,0.527-42.832,0.736c-1.899,0.028-3.33,0.363-4.615,2.076c-2.727,3.636-5.795,7.016-9.252,11.131
	C325.689,256.567,336.352,269.209,347.165,282.028z M50.661,181.405c4.192,12.901,8.479,25.771,12.57,38.704
	c0.713,2.254,1.905,3.188,4.089,3.511c5.849,0.866,9.175,4.647,11.049,9.951c0.587,1.66,0.999,3.382,1.557,5.304
	c7.407,2.92,14.834,5.849,20.944,8.257c4.248-4.51,7.916-8.404,12.543-13.317c-2.591-14.638-5.576-31.498-8.636-48.786
	c-18.135-2.061-36.082-4.1-54.315-6.172C50.554,180.16,50.473,180.827,50.661,181.405z M202.518,177.569
	c0.282,6.053,0.749,12.101,0.878,18.157c0.105,4.931-0.452,9.961,4.503,13.193c0.256,0.167,0.474,0.493,0.571,0.79
	c1.133,3.444,3.694,3.916,6.958,3.909c16.75-0.034,33.501,0.135,50.252,0.216c1.273,0.006,2.546-0.112,3.711-0.168
	c0.615-1.871,1.1-3.43,1.639-4.971c1.41-4.031,1.412-4.019-1.895-6.951c-11.539-10.232-23.06-20.484-34.612-30.701
	c-3.886-3.436-7.845-6.79-11.969-10.353c-5.777,5.604-12.148,9.458-20.047,11.389C202.506,174.31,202.442,175.943,202.518,177.569z
	 M277.68,197.18c3.362-2.135,5.971-4.202,8.914-5.533c2.445-1.107,3.032-2.574,2.795-4.968c-0.37-3.739-0.655-7.492-0.828-11.245
	c-0.408-8.819-0.666-17.645-1.152-26.46c-0.072-1.3-0.773-2.815-1.674-3.766c-1.877-1.984-4.083-3.658-6.052-5.371
	c-15.781,0-31.482,0-46.929,0c-1.558,4.558-3.019,8.832-4.62,13.514C244.618,167.932,261.225,182.623,277.68,197.18z
	 M358.775,165.553c-15.842-6.621-31.724-13.168-47.359-20.253c-5.053-2.289-9.28-3.307-13.647,0.709
	c-0.355,0.327-0.709,0.654-1.128,1.041c0.612,13.824,1.225,27.659,1.853,41.856c7.696,0.213,14.218,2.556,20.01,7.355
	c15.23-7.744,30.355-15.434,45.223-22.993C364.177,168.515,361.939,166.876,358.775,165.553z M192.777,174.161
	c-6.016-2.111-12.069-3.378-17.199-6.278c-5.125-2.896-9.327-7.425-14.119-11.392c-7.021,2.86-38.222,21.033-41.062,24.173
	c21.895,8.873,43.631,17.681,64.873,26.289c3.378-1.636,6.15-2.978,9.179-4.445C193.882,192.912,193.316,183.313,192.777,174.161z
	 M122.626,232.877c16.419-0.264,18.414,1.812,28.679,9.61c10.167-6.306,20.42-12.666,30.531-18.937
	c-0.227-10.157,0.71-7.843-6.773-10.951c-14.465-6.007-29.016-11.809-43.54-17.673c-5.26-2.124-10.548-4.18-17.006-6.735
	C117.387,204.007,120.017,218.5,122.626,232.877z M373.018,180.681c-1.51-0.118-3.266-0.211-4.552,0.418
	c-8.821,4.319-17.556,8.815-26.3,13.29c-5.791,2.964-11.55,5.987-16.813,8.719c1.387,6.366,2.657,12.199,4.07,18.683
	c17.257-0.451,34.889-0.912,51.866-1.356c4.078-6.344,7.849-12.211,11.91-18.529c-3.73-6.523-7.692-13.453-11.449-20.024
	C378.174,181.371,375.607,180.884,373.018,180.681z M210.378,222.843c-1.416,2.02-2.999,4.28-4.729,6.749
	c5.021,13.056,10.091,26.241,15.419,40.094c17.684-12.38,34.791-24.355,51.872-36.313c-1.312-3.611-2.42-6.664-3.824-10.53
	C249.596,222.843,230.109,222.843,210.378,222.843z M447.185,231.49c0.111,15.371-12.731,28.284-28.159,28.105
	c-16-0.186-28.034-11.97-27.987-28.071c0.049-16.874,13.251-27.692,27.697-27.936C433.657,203.337,446.689,215.329,447.185,231.49z
	 M419.531,216.538c-8.417-0.107-15.604,6.766-15.33,15.193c0.292,8.995,6.02,14.553,14.954,15.041
	c8.094,0.442,15.109-6.503,15.302-14.691C434.656,223.621,427.957,216.644,419.531,216.538z M194.067,107.068
	c14.114-1.111,28.232,10.337,28.194,27.614c-0.038,17.272-13.579,28.078-28.11,27.999c-15.601-0.085-27.946-12.609-28.045-28.175
	C166.017,120.668,178.524,105.904,194.067,107.068z M179.092,134.786c0.039,8.268,7.397,15.99,15.298,15.333
	c9.364-0.779,15.096-7.437,14.995-15.711c-0.102-8.396-6.626-14.745-15.094-14.771C185.731,119.611,179.053,126.266,179.092,134.786
	z M225.026,279.655c2.048,5.496,4.585,10.863,6.056,16.507c1.533,5.882,4.7,8.782,10.721,9.142c2.01,0.12,3.488,0.17,4.521-1.779
	c0.766-1.445,1.716-2.79,2.539-4.205c7.313-12.578,14.627-25.155,21.916-37.746c3.592-6.203,7.134-12.435,10.589-18.464
	c-1.547-3.384-3.401-2.277-5.283-0.956c-13.4,9.406-26.806,18.805-40.197,28.223c-3.724,2.619-7.408,5.294-10.876,7.776
	C225.012,279.014,224.92,279.372,225.026,279.655z M403.051,267.193c-5.843,4.026-12.067,8.263-18.235,12.579
	c-5.367,3.755-10.758,7.486-15.97,11.45c-2.873,2.186-2.426,4.377,0.989,5.538c5.555,1.889,11.166,3.619,16.771,5.359
	c9.163,2.844,18.34,5.643,28.219,8.679c2.027-13.698,3.863-26.872,4.985-40.257C413.872,269.354,408.642,268.31,403.051,267.193z
	 M288.276,344.706c1.61,0.533,2.686,0.028,3.848-1.221c2.768-2.975,6.325-4.712,10.365-4.948c2.21-0.129,4.465,0.507,6.505,0.772
	c12.954-13.468,25.327-28.329,26.282-31.754c-24.263,8.093-48.341,16.124-72.441,24.162c0,1.695,0,2.976,0,4.614
	C271.58,339.207,279.931,341.946,288.276,344.706z M140.727,315.105c3.142-2.924,2.131-6.192,1.639-9.493
	c-0.503-3.376-1.146-6.731-1.771-10.087c-0.317-1.7-0.731-3.382-1.206-5.551c-8.959,3.62-17.128,2.432-25.641-2.015
	c-3.706,13.298-7.257,26.035-11.059,39.676c12.464-2.28,23.939-4.38,35.155-6.432C138.901,318.852,139.303,316.43,140.727,315.105z
	 M205.954,321.611c3.901-8.508,10.566-13.513,18.85-16.952c-2.765-7.03-5.354-13.614-8.172-20.781
	c-17.015,11.918-33.396,23.391-49.79,34.874c0.52,1.724,0.891,2.953,1.428,4.73C181.141,322.843,193.522,322.228,205.954,321.611z
	 M66.421,253.205c-1.646,8.889-3.412,18.427-5.316,28.708c14.306-1.194,27.607-3.394,40.163-5.628
	c-0.992-7.118-1.882-13.506-2.818-20.222c0.133,0.095-0.103-0.157-0.394-0.271c-7.272-2.853-14.549-5.692-21.447-8.385
	C72.965,249.481,70.018,251.158,66.421,253.205z M318.125,218.805c0.244,10.574-9.282,19.405-19.526,19.142
	c-10.537-0.27-19.512-9.286-19.155-19.744c0.378-11.075,8.969-19.294,19.752-19.136
	C309.327,199.216,318.384,207.122,318.125,218.805z M298.915,228.466c5.773-0.022,9.957-4.06,10.072-9.721
	c0.121-5.945-4.051-10.072-10.165-10.055c-5.865,0.017-10.467,4.556-10.267,10.127C288.748,224.178,293.373,228.487,298.915,228.466
	z M109.403,262.34c-0.355-10.458,8.791-19.364,19.331-19.25c10.65,0.115,19.336,7.953,19.372,19.285
	c0.033,10.613-7.945,19.155-19.413,19.342C117.861,281.895,108.941,272.342,109.403,262.34z M138.663,262.549
	c0.09-5.811-3.946-10.121-9.596-10.246c-6.036-0.134-10.358,3.96-10.468,9.916c-0.103,5.577,4.703,10.545,10.155,10.499
	C134.079,272.673,138.578,268.056,138.663,262.549z M232.82,352.842c-10.492-0.126-19.406-9.244-19.202-19.643
	c0.206-10.545,9.13-19.258,19.765-19.03c11.166,0.24,19.091,8.945,19.185,19.586C252.66,344.243,243.386,352.969,232.82,352.842z
	 M232.928,343.718c5.806,0.07,10.141-4.253,10.178-10.149c0.036-5.815-3.94-10.075-9.554-10.236
	c-5.884-0.169-10.343,4.003-10.536,9.859C222.828,338.838,227.361,343.651,232.928,343.718z M288.447,354.361
	c-9.301-3.051-18.602-6.102-27.932-9.163c-4.042,7.655-9.41,12.952-17.104,16.15c0.997,5.439,1.952,10.657,3.037,16.577
	c14.41-7.327,28.33-14.609,42.092-22.191C288.509,355.276,288.478,354.818,288.447,354.361z"/>
</svg>
