<?xml version="1.0" encoding="iso-8859-1"?>
<!-- Generator: Adobe Illustrator 19.0.0, SVG Export Plug-In . SVG Version: 6.00 Build 0)  -->
<svg version="1.1" id="Layer_1" xmlns="http://www.w3.org/2000/svg" xmlns:xlink="http://www.w3.org/1999/xlink" x="0px" y="0px"
	 viewBox="0 0 2000 2000" style="enable-background:new 0 0 2000 2000;" xml:space="preserve">
<path d="M25.506,1976.494c0-650.329,0-1300.659,0-1950.988c650.329,0,1300.659,0,1950.988,0c0,650.329,0,1300.658,0.001,1950.988
	C1326.165,1976.494,675.835,1976.494,25.506,1976.494z M1883.999,118.858c-590.296,0-1178,0-1764.854,0
	c0,590.015,0,1177.721,0,1764.859c589.533,0,1176.471,0,1764.854,0C1883.999,1295.05,1883.999,708.113,1883.999,118.858z
	 M978.696,408.98c-3.09-6.587-6.181-13.173-9.993-21.298c15.505-28.224,44.012-35.485,72.308-36.348
	c68.415-2.088,130.755,20.089,185.543,59.941c80.644,58.66,131.353,140.117,148.844,236.379
	c11.182,61.544,4.817,126.533,3.916,189.943c-0.906,63.694-18.417,124.392-39.919,183.886
	c-36.96,102.261-98.198,185.888-195.706,236.788c-54.019,28.198-113.195,34.438-175.248,24.885
	c-100.077-15.406-168.543-77.041-227.242-150.83c-61.044-76.738-99.835-166.058-120.497-261.885
	c-11.817-54.805-12.057-110.558-6.555-167.229c6.281-64.689,20.665-126.641,42.624-187.04
	c23.633-65.003,54.184-126.648,101.149-178.594c25.695-28.419,61.008-32.865,97.421-19.632
	c50.313,18.283,90.168,48.375,117.982,95.149C975.114,411.723,976.905,410.352,978.696,408.98z M982.985,422.239
	c-17.258,23.118-33.48,39.31-43.091,58.767c-28.239,57.165-58.217,112.967-65.061,179.297
	c-9.725,94.244-1.663,184.529,41.346,269.222c20.32,40.015,46.496,77.468,99.961,90.849c13.935-9.779,33.083-18.519,45.75-32.948
	c45.453-51.778,68.866-115.238,81.008-181.417c8.086-44.076,5.904-90.096,7.577-135.274c2.273-61.387-11.008-119.341-44.295-171.226
	C1076.705,453.565,1039.189,418.704,982.985,422.239z M1366.141,1419.449c-24.134-31.136-61.323-41.634-95.986-53.673
	c-71.653-24.887-147.137-29.806-222.11-32.346c-52.758-1.787-105.74,4.572-158.652,5.459
	c-70.924,1.19-136.936,22.656-202.331,46.646c-30.726,11.272-48.306,35.412-49.704,67.89c-1.788,41.541-6.188,84.157,0.569,124.636
	c15.195,91.038,69.978,116.963,152.996,89.101c52.49-17.616,105.264-35.627,159.251-47.211
	c60.5-12.982,122.997-16.468,183.748-28.507c83.615-16.569,166.124-14.104,246.711,5.635c16.084-45.004,44.006-88.371-4.846-128.186
	c6.406-4.645,9.64-6.991,12.879-9.34C1381.263,1446.103,1375.432,1431.435,1366.141,1419.449z"/>
</svg>
