<?xml version="1.0" encoding="iso-8859-1"?>
<!-- Generator: Adobe Illustrator 19.0.0, SVG Export Plug-In . SVG Version: 6.00 Build 0)  -->
<svg version="1.1" id="Layer_1" xmlns="http://www.w3.org/2000/svg" xmlns:xlink="http://www.w3.org/1999/xlink" x="0px" y="0px"
	 viewBox="0 0 2000 2000" style="enable-background:new 0 0 2000 2000;" xml:space="preserve">
<path d="M992.383,1981.006c-528.855-6.641-977.641-433.008-970.801-994.801c6.415-526.944,433.454-971.27,993.197-965.022
	c527.315,5.887,971.311,432.232,965.647,992.27C1975.055,1544.519,1544.884,1980.957,992.383,1981.006z M497.722,905.89
	c-0.706-2.788-1.411-5.576-2.117-8.364c-140.911-0.846-281.829-0.272-423.31-0.479c-20.016,146.068,1.83,282.439,48.244,421.115
	C248.413,1178.393,373.067,1042.141,497.722,905.89z M1395.912,1806.444c-75.287-177.485-147.554-347.851-222.066-523.51
	c-71.295,115.135-138.919,224.341-207.487,335.071C1110.105,1681.064,1249.532,1742.228,1395.912,1806.444z M1330.657,951.588
	c91.88,68.589,181.179,135.252,273.415,204.108c37.307-81.433,72.954-159.242,109.366-238.72
	c-85.47-73.147-169.149-144.76-253.943-217.327C1416.589,783.551,1374.563,865.732,1330.657,951.588z M597.092,1414.758
	c112.726-107.8,219.639-210.042,329.834-315.422c-115.72-62.229-228.616-122.939-344.035-185.006
	C587.636,1081.538,592.233,1243.546,597.092,1414.758z M1053.284,304.645c-105.224,22.973-208.578,45.538-317.436,69.304
	c95.808,103.458,186.88,201.802,281.767,304.265c40.978-95.672,79.354-185.269,118.402-276.437
	C1109.102,370.179,1082.863,339.372,1053.284,304.645z M398.22,599.896c88.814-82.044,173.89-160.635,259.81-240.005
	c-48.689-51.978-96.279-102.781-143.251-152.926c-59.485,20.308-174.772,125.663-234.32,198.667
	C318.326,468.1,356.507,531.085,398.22,599.896z M1166.378,1178.884c37.101-73.129,73.166-144.218,109.024-214.898
	c-85.691-72.135-162.851-148.921-250.257-220.515c-12.63,117.792-24.568,229.131-36.762,342.853
	C1046.458,1116.523,1104.565,1146.741,1166.378,1178.884z M1401.427,1845.89c-150.629-63.85-295.303-125.176-442.351-187.508
	c0,94.512,0,184.936,0,278.361C1112.817,1939.28,1258.354,1914.541,1401.427,1845.89z M925.251,1599.875
	c69.753-112.603,136.658-220.608,203.563-328.613c-1.53-1.656-3.061-3.313-4.591-4.969
	c-162.512,67.463-325.024,134.926-493.594,204.904C733.563,1516.154,829.096,1557.878,925.251,1599.875z M589.246,878.691
	c122.306,63.617,237.454,123.512,357.293,185.846c11.807-109.225,23.196-214.577,35.02-323.958
	C850.257,786.803,723.603,831.391,589.246,878.691z M556.082,1495.903c-56.163-17.236-107.42-32.966-160.825-49.355
	c-19.553,74.102-40.705,144.91-53.62,214.912c66.776,70.161,140.34,122.682,224.67,167.602
	C562.795,1714.588,559.424,1604.792,556.082,1495.903z M688.117,392c-73.622,68.265-146.58,135.913-225.71,209.285
	c163.201,21.512,318.231,41.947,473.261,62.382c1.206-1.641,2.412-3.283,3.618-4.924C856.082,570.38,772.878,482.017,688.117,392z
	 M1631.791,1217.117c38.13,117.355,74.851,230.376,113.528,349.414c85.265-112.143,140.211-229.556,168.548-366.053
	C1817.138,1206.184,1726.883,1211.508,1631.791,1217.117z M1195.221,376.08c71.274,22.126,139.809,43.401,209.574,65.058
	c11.052-92.39,21.725-181.604,32.489-271.587c-45.711-19.051-87.676-36.54-130.777-54.503
	C1268.863,203.347,1233.241,286.9,1195.221,376.08z M422.967,640.552c45.205,74.389,85.047,139.952,124.989,205.681
	c128.251-45.135,254.37-89.519,380.489-133.903c-0.351-1.818-0.702-3.635-1.053-5.453
	C761.739,685.096,596.086,663.315,422.967,640.552z M552.284,176.337c51.911,56.26,99.094,107.397,147.758,160.138
	c92.986-20.342,186.435-40.786,279.885-61.229c0.294-2.183,0.588-4.366,0.882-6.549c-94.744-51.403-189.488-102.805-285.256-154.764
	C648.332,134.502,603.073,154.215,552.284,176.337z M1515.866,1513.698c30.89-104.209,65.792-273.201,61.231-293.264
	c-105.956,6.561-211.857,13.119-323.672,20.043C1342.926,1333.655,1427.992,1422.216,1515.866,1513.698z M903.184,1634.344
	c-101.269-43.057-199.647-84.886-303.138-128.888c3.672,108.471,7.145,211.088,10.86,320.834
	C710.861,1760.648,805.516,1698.486,903.184,1634.344z M1222.543,1271.187c-1.562,0.605-3.124,1.211-4.686,1.816
	c75.604,178.507,151.209,357.013,230.185,543.482c20.222-88.276,38.775-169.265,57.311-250.18
	C1410.57,1467.397,1316.556,1369.292,1222.543,1271.187z M486.594,992.757c-1.59-1.206-3.18-2.412-4.769-3.617
	c-102.576,111.946-205.152,223.892-311.516,339.972c68.429,21.018,130.152,43.642,195.156,58.953
	C406.681,1253.554,446.637,1123.156,486.594,992.757z M88.233,821.67c89.258-69.453,178.517-138.905,268.019-208.547
	c-34.855-56.823-68.89-112.309-104.956-171.108C163.6,557.697,111.159,682.191,88.233,821.67z M121.836,851.733
	c129.869,0,251.565,0,377.725,0c-21.164-35.595-40.171-68.075-59.69-100.246c-20.017-32.992-40.535-65.68-61.709-99.917
	C291.827,718.988,210.033,782.86,121.836,851.733z M681.415,1395.774c1.002,1.667,2.004,3.333,3.005,5
	c149.219-61.84,298.437-123.681,452.96-187.72c-58.952-31.893-113.361-61.328-169.637-91.773
	C871.615,1213.436,776.515,1304.605,681.415,1395.774z M1072.951,724.941c77.81,69.254,149.035,132.647,222.855,198.351
	c39.498-77.817,76.364-150.449,115.588-227.728C1297.077,705.486,1189.14,714.855,1072.951,724.941z M1764.373,903.985
	c56.186,53.612,112.149,107.011,169.321,161.565c12.364-136.535-10.745-269.152-60.457-404.284
	C1835.63,745.113,1800.433,823.587,1764.373,903.985z M908.334,1683.576c-92.481,59.419-181.34,116.511-275.074,176.736
	c90.265,40.625,180.521,60.838,275.074,71.722C908.334,1848.489,908.334,1768.722,908.334,1683.576z M1206.182,1198.329
	c119.962-7.005,232.075-11.552,351.709-21.994c-86.713-64.76-165.768-123.802-247.346-184.727
	C1275.981,1060.071,1243.109,1125.185,1206.182,1198.329z M539.712,991.174c-2.176,0.126-4.352,0.253-6.527,0.379
	c-41.97,136.666-83.941,273.332-126.506,411.936c48.726,14.942,96.138,29.481,148.066,45.404
	C549.626,1293.019,544.669,1142.096,539.712,991.174z M1512.363,686.378c76.399,65.62,147.442,126.639,220.063,189.014
	c33.618-73.311,65.675-143.217,100.251-218.618C1723.921,666.826,1621.758,676.268,1512.363,686.378z M1925.169,1155.026
	c-6.159-28.245-84.163-115.035-181.011-204.367c-32.609,72.765-64.684,144.34-99.001,220.914
	C1741.303,1165.892,1831.648,1160.553,1925.169,1155.026z M1155.522,355.523c37.458-88.248,72.248-170.212,108.092-254.657
	c-48.321-8.227-89.953-26.617-137.311-23.89c-20.599,60.184-40.543,118.453-59.987,175.262
	C1096.933,287.687,1124.117,319.161,1155.522,355.523z M1674.026,354.276c-57.297-63.438-120.83-114.3-195.258-156.968
	c-10.068,82.797-19.706,162.062-29.797,245.057C1527.04,411.808,1599.4,383.485,1674.026,354.276z M1829.739,574.341
	c-16.151-47.203-77.702-140.042-122.67-185.096c-66.351,25.925-134.17,52.423-208.355,81.408
	C1613.691,506.668,1720.803,540.219,1829.739,574.341z M1802.178,616.968c0.137-2.039,0.273-4.078,0.41-6.116
	c-113.678-35.104-227.356-70.209-344.136-106.271c5.012,49.645,9.386,92.97,14.271,141.35
	C1583.701,636.175,1692.94,626.572,1802.178,616.968z M304.663,1619.307c16.285-64.079,31.744-124.912,47.405-186.536
	c-38.038-11.888-71.655-23.266-105.784-32.816c-34.059-9.531-66.461-26.455-105.012-28.752
	C177.167,1457.404,254.909,1577.617,304.663,1619.307z M1428.867,649.799c-5.895-50.256-11.347-96.742-17.183-146.5
	c-102.055,57.284-202.067,113.421-302.08,169.558c0.591,1.503,1.182,3.006,1.773,4.508
	C1215.525,668.323,1319.672,659.28,1428.867,649.799z M1087.927,627.23c1.554,1.656,3.108,3.312,4.662,4.967
	c90.393-50.707,180.786-101.415,276.531-155.124c-65.95-20.82-126.707-40.001-190.789-60.231
	C1147.584,488.395,1117.756,557.813,1087.927,627.23z M1494.259,1793.589c86.218-49.317,150.471-112.403,216.584-184.579
	c-58.721-7.88-112.54-15.103-168.061-22.554C1526.4,1656.387,1511.009,1722.087,1494.259,1793.589z M1699.492,1566.358
	c-28.786-89.006-56.489-174.662-84.191-260.317c-1.898-0.207-3.797-0.414-5.695-0.621c-18.838,79.221-37.676,158.441-56.739,238.61
	C1602.755,1551.627,1647.904,1558.502,1699.492,1566.358z M1031.144,209.546c17.159-49.858,32.128-93.351,48.871-142
	c-56.837,0-108.62,0-160.403,0c-1.167,2.413-2.333,4.827-3.5,7.24C953.144,118.168,990.175,161.551,1031.144,209.546z
	 M766.025,94.198c-0.504,2.268-1.007,4.535-1.511,6.803c66.161,35.858,132.321,71.717,198.482,107.575
	c1.514-1.834,3.028-3.668,4.542-5.502c-37.012-43.173-74.025-86.345-110.022-128.333C823.799,81.911,794.912,88.055,766.025,94.198z
	"/>
</svg>
