<?xml version="1.0" encoding="utf-8"?>
<!-- Generator: Adobe Illustrator 25.1.0, SVG Export Plug-In . SVG Version: 6.00 Build 0)  -->
<svg version="1.1" id="SHUF" xmlns="http://www.w3.org/2000/svg" xmlns:xlink="http://www.w3.org/1999/xlink" x="0px" y="0px"
	 viewBox="0 0 500 500" style="enable-background:new 0 0 500 500;" xml:space="preserve">
<path d="M482.5,156.3c-7.3,0-13.3,5.6-13.9,12.7c-48.2,1.7-88.4,28.6-119.6,62.5c-4.8,5.3-9.5,10.8-13.9,16.4
	c4.8-22,10.6-39.7,16.7-53.7c6.8-15.8,14.1-26.9,21-34.4c2.8-3,5.4-5.4,7.8-7.3c3,4.1,8.1,6.4,13.5,5.6c7.6-1.2,12.8-8.4,11.6-16
	c-1.2-7.6-8.4-12.8-16-11.6c-7.5,1.2-12.7,8.2-11.6,15.7c-47.3,9.4-82.7,42.1-107.9,80.4c-6.6,10-12.5,20.3-17.7,30.7
	c-6.8-11.9-14.6-23.6-23.2-34.8c-27.9-36.2-65.6-66.4-113.3-72c0-7.2-5.5-13.3-12.8-14c-7.7-0.6-14.4,5.1-15.1,12.8
	c-0.6,7.7,5.1,14.4,12.8,15.1c5.5,0.4,10.5-2.4,13.2-6.8c2.5,1.7,5.1,3.8,7.9,6.5c7.4,6.8,15.5,17.5,23.5,32.7
	c7.4,13.9,14.7,31.8,21.3,54.3c-4.3-5.4-8.8-10.7-13.4-15.8c-30.9-33.9-71-61-119-62.8c-0.5-7.3-6.5-13.1-13.9-13.1
	c-7.7,0-14,6.2-14,13.9s6.2,14,13.9,14c5.4,0.1,10.1-3,12.5-7.6c2.6,1.5,5.5,3.4,8.5,5.8c7.9,6.2,16.8,16.2,26.1,30.7
	c16,25.3,33.3,64.6,47.2,123.6h-11.1v34.6h291.5v-34.6h-8.2c14.4-60.9,31.9-101.2,48.2-127c7.1-11.5,15.9-21.9,26.1-30.7
	c3.1-2.5,6-4.4,8.7-5.9c2.2,4.7,7,8,12.5,8c7.7,0,14-6.2,14-13.9S490.2,156.3,482.5,156.3z"/>
</svg>
