<?xml version="1.0" encoding="utf-8"?>
<!-- Generator: Adobe Illustrator 25.1.0, SVG Export Plug-In . SVG Version: 6.00 Build 0)  -->
<svg version="1.1" id="Layer_1" xmlns="http://www.w3.org/2000/svg" xmlns:xlink="http://www.w3.org/1999/xlink" x="0px" y="0px"
	 viewBox="0 0 500 500" style="enable-background:new 0 0 500 500;" xml:space="preserve">
<g>
	<path d="M371.8,369.4c-1.1,0.6-2,0.4-2.8,0.4c-40.2,0-80.4,0.5-120.5-0.1c-50.4-0.8-88.2-23.7-110.5-69
		c-34.2-69.3,5.4-153,80.7-170.6c46.6-10.9,87.7,0.8,120.8,36.2c20.1,21.6,30.5,47.6,32.1,77.1c0.3,5.4,0.3,10.8,0.3,16.2
		c0,35.5,0,71.1,0,106.6C371.8,367.3,371.8,368.4,371.8,369.4z M323,321c0-0.9,0.1-1.5,0.1-2.1c0-23.6,0-47.3,0-70.9
		c0-3.9-0.4-7.9-1-11.8c-7.4-45.6-55.9-73.1-98.6-56c-35.2,14.1-53.6,51.5-43.4,88c8.6,30.6,36.8,52.5,68.5,52.8
		c24.1,0.2,48.3,0.1,72.4,0.1C321.6,321.1,322.2,321.1,323,321z"/>
	<path d="M47.3,114.1c3.1,2.6,6.2,4.8,9.6,6.7C17.7,184.2,8.2,251.3,31.3,322.1c16.5,50.6,48,90.3,92.4,119.4
		c93.3,61,215.1,45.8,290.6-30.8c78.7-79.8,88.5-204.1,25.6-294.1c-35.8-51.2-84.6-83.3-146-95c-61.2-11.7-118.2,0.2-171,33.5
		c-2-3.4-4.2-6.5-6.9-9.9c34.9-23,73-36.4,114.4-39.5c65.2-4.8,123.7,13,174.2,54.5c107.6,88.4,117,244.4,30.9,345.5
		c-88.2,103.5-241.9,113.8-342.7,27.9C-11,345.3-13.9,203.1,47.3,114.1z"/>
	<path d="M80,102.2c-13.6,0-24.5-10.9-24.5-24.4c0-13.2,10.9-24.1,24.2-24.2c13.3-0.2,24.4,10.9,24.5,24.2
		C104.2,91.3,93.4,102.2,80,102.2z"/>
</g>
</svg>
