<?xml version="1.0" encoding="iso-8859-1"?>
<!-- Generator: Adobe Illustrator 19.0.0, SVG Export Plug-In . SVG Version: 6.00 Build 0)  -->
<svg version="1.1" id="Layer_1" xmlns="http://www.w3.org/2000/svg" xmlns:xlink="http://www.w3.org/1999/xlink" x="0px" y="0px"
	 viewBox="0 0 500 500" enable-background="new 0 0 500 500" xml:space="preserve">
<path d="M250.318,4.193C386.236,4.202,496.346,114.356,496.22,250.326c-0.125,134.716-108.59,245.669-245.913,245.678
	C113.875,496.013,4.273,386.069,4.42,249.904C4.569,112.652,115.546,4.273,250.318,4.193z M241.74,341.157c4.552,0,8.85,0,13.148,0
	c4.304,0,8.608,0,12.912,0c4.304,0,8.608-0.007,12.912,0.002c4.271,0.009,8.543-0.04,12.999,0.036c0,19.591,0,38.894,0,58.294
	c10.869,0,21.544,0,32.417,0c0-19.108,0-38.068,0-57.32c3.695,0,7.201,0,10.651,0c0.447-2.893,0.331-19.006-0.159-20.629
	c-3.393,0-6.85,0-10.51,0c0-62.876,0-125.555,0-188.193c-2.385-0.467-29.76-0.376-31.372,0.119c0,40.295,0,80.648,0,120.964
	c-0.819,0.557-1.483,1.034-2.171,1.473c-8.381,5.344-17.234,9.74-26.607,13.048c-8.543,3.015-17.298,4.994-26.41,5.19
	c-13.707,0.296-25.859-3.67-35.988-13.109c-7.555-7.041-12.717-15.642-16.022-25.377c-2.369-6.981-3.356-14.179-3.345-21.551
	c0.038-26.165,0.015-52.33,0.014-78.496c0-0.793,0-1.585,0-2.429c-11.676,0-23.048,0-34.682,0c0,0.918,0,1.718,0,2.518
	c0,30.879,0.038,61.758-0.021,92.637c-0.02,10.482,2.065,20.465,6.364,30.009c8.714,19.345,22.908,32.66,43.189,39.28
	c7.513,2.452,15.257,3.687,23.121,4.126c7.448,0.415,14.905,0.229,22.288-0.834c7.033-1.012,13.915-2.788,20.679-4.975
	c9.863-3.19,19.294-7.262,27.569-13.663c0.193-0.149,0.434-0.236,0.831-0.447c0,12.967,0,25.705,0,38.742c-0.849,0-1.646,0-2.444,0
	c-15.644,0-31.289-0.002-46.933,0.005c-0.793,0-1.585,0.07-2.434,0.11C241.74,327.564,241.74,334.228,241.74,341.157z"/>
</svg>
