<?xml version="1.0" encoding="iso-8859-1"?>
<!-- Generator: Adobe Illustrator 19.0.0, SVG Export Plug-In . SVG Version: 6.00 Build 0)  -->
<svg version="1.1" id="Layer_1" xmlns="http://www.w3.org/2000/svg" xmlns:xlink="http://www.w3.org/1999/xlink" x="0px" y="0px"
	 viewBox="0 0 2000 2000" style="enable-background:new 0 0 2000 2000;" xml:space="preserve">
<path d="M1634.549,183.577c56.698,57.502,113.193,114.797,170.22,172.633c-478.35,480.203-958.374,962.087-1438.839,1444.414
	c-59.334-60.564-115.287-117.678-169.65-173.168C673.352,1148.523,1153.572,666.43,1634.549,183.577z M1636.864,275.108
	c-452.17,454.101-901.779,905.629-1347.327,1353.08c21.656,24.187,45.531,50.852,70.088,78.279
	C811.08,1253.11,1260.144,802.154,1709.294,351.113C1686.926,327.64,1662.198,301.692,1636.864,275.108z M104.859,1542.745
	c-110.087-98.022-112.886-231.247-10.6-333.048c267.282-266.013,533.927-532.665,800.593-799.296
	c58.388-58.38,124.671-68.234,178.193-25.032c56.6,45.687,64.523,125.728,12.371,179.81
	c-95.855,99.403-194.764,195.863-292.462,293.488c-226.739,226.569-453.512,453.103-680.328,679.594
	C111.077,1539.809,108.727,1540.554,104.859,1542.745z M110.086,1447.378c5.401-4.963,8.829-7.892,12.011-11.068
	c226.244-225.875,452.478-451.76,678.688-677.669c78.703-78.598,157.783-156.827,235.758-236.141
	c25.684-26.125,24.828-57.357,1.566-80.941c-24.004-24.336-53.073-24.58-81.278-0.486c-6.223,5.316-12.131,11.027-17.925,16.815
	c-174.71,174.546-349.317,349.196-524.1,523.669c-93.613,93.447-187.011,187.12-281.519,279.657
	C87.818,1305.734,62.34,1389.081,110.086,1447.378z M1889.243,436.976c111.874,101.546,115.316,229.399,11.261,333.386
	c-271.766,271.588-543.582,543.125-815.346,814.716c-48.043,48.013-125.595,49.049-174.232,2.152
	c-45.954-44.311-50.42-120.555-4.097-168.22c108.48-111.623,219.498-220.781,329.584-330.843
	c212.072-212.025,424.204-423.989,636.344-635.947C1877.704,447.277,1883.024,442.708,1889.243,436.976z M1885.799,534.599
	c-7.853,7.142-15.67,13.705-22.876,20.884c-247.814,246.882-495.582,493.81-743.324,740.765
	c-53.867,53.696-108.202,106.942-161.139,161.541c-23.721,24.465-24.007,57.666-4.264,78.956
	c23.454,25.292,55.361,26.394,84.366,2.571c6.298-5.173,11.813-11.313,17.585-17.112
	c123.936-124.518,247.516-249.394,371.871-373.493c144.281-143.983,289.432-287.093,433.806-430.983
	C1915.77,663.962,1925.108,593.713,1885.799,534.599z"/>
</svg>
