<?xml version="1.0" encoding="iso-8859-1"?>
<!-- Generator: Adobe Illustrator 19.0.0, SVG Export Plug-In . SVG Version: 6.00 Build 0)  -->
<svg version="1.1" id="Layer_1" xmlns="http://www.w3.org/2000/svg" xmlns:xlink="http://www.w3.org/1999/xlink" x="0px" y="0px"
	 viewBox="0 0 2000 2000" style="enable-background:new 0 0 2000 2000;" xml:space="preserve">
<path d="M181.304,1520.553c117.117,37.366,225.552,79.034,337.535,105.929c144.831,34.783,284.483,18.631,400.876-86.76
	c124.645-112.863,140.163-223.571,52.714-432.449c171.958,0,335.945,0,499.931,0c161.323,0,322.645,0,482.375,0
	c33.121,340.589-293.847,731.562-690.714,840.762C843.37,2063.778,342.926,1870.131,181.304,1520.553z M605.17,101.299
	c-336.654,146.888-598.55,512.307-573.903,730c58.916-45.55,146.673-116.871,238.051-183.204
	c125.267-90.933,262.621-133.269,417.019-85.506c130.602,40.402,184.11,139.775,193.415,279.487
	c175.802-316.962,318.865-657.538,810.285-517.193C1428.374,22.737,974.536-59.861,605.17,101.299z M1116.926,568.114
	c-94.58,170.751-170.183,307.243-261.093,471.369c206.293,0,371.442,0,536.591,0C1220.201,942.432,1155.154,784.16,1116.926,568.114
	z"/>
</svg>
