<?xml version="1.0" encoding="iso-8859-1"?>
<!-- Generator: Adobe Illustrator 19.0.0, SVG Export Plug-In . SVG Version: 6.00 Build 0)  -->
<svg version="1.1" id="Layer_1" xmlns="http://www.w3.org/2000/svg" xmlns:xlink="http://www.w3.org/1999/xlink" x="0px" y="0px"
	 viewBox="0 0 2000 2000" style="enable-background:new 0 0 2000 2000;" xml:space="preserve">
<path d="M25.104,999.849C14.655,476.556,460.844,0.737,1041.032,24.404c498.356,20.329,931.879,430.088,932.592,973.914
	c0.712,542.493-436.203,981.597-987.456,976.873C456.288,1970.649,16.642,1530.921,25.104,999.849z M1020.232,1917.087
	c39.094-4.261,98.115-6.034,155.137-17.639c503.427-102.454,825.404-590.185,710.003-1090.522
	c-75.384-326.839-279.565-551.071-595.721-668.181c-79.274-29.365-162.359-51.062-248.051-40.751
	c-77.091,9.277-147.33,40.742-212.772,82.699C762.605,225.15,726.436,290.171,694.96,358.761
	c-84.252,183.597-217.09,313.552-409.521,382.957c-83.499,30.116-148.056,87.794-175.344,175.739
	c-25.103,80.9-21.736,162.439-4.798,246.388c32.4,160.58,95.405,306.115,201.796,429.61
	C488.901,1804.494,721.795,1910.605,1020.232,1917.087z M863.076,1284.019c46.008-46.36,90.267-90.957,137.533-138.584
	c38.502,41.411,79.044,85.016,119.71,128.754c95.035-94.285,184.051-182.598,268.969-266.846
	c-90.219-90.252-178.045-178.111-274.154-274.256c-39.72,40.822-81.809,84.08-125.125,128.598
	C947.001,818,903.742,774.06,859.37,728.989c-92.618,93.612-181.673,183.624-272.771,275.701
	C677.172,1096.197,766.296,1186.241,863.076,1284.019z"/>
</svg>
