<?xml version="1.0" encoding="iso-8859-1"?>
<!-- Generator: Adobe Illustrator 19.0.0, SVG Export Plug-In . SVG Version: 6.00 Build 0)  -->
<svg version="1.1" id="Layer_1" xmlns="http://www.w3.org/2000/svg" xmlns:xlink="http://www.w3.org/1999/xlink" x="0px" y="0px"
	 viewBox="0 0 2000 2000" style="enable-background:new 0 0 2000 2000;" xml:space="preserve">
<path d="M230.219,609.912c0-130.898,0-256.098,0-390.972c520.062,390.003,1034.608,775.87,1549.496,1161.994
	c0,128.152,0,254.469,0,391.045C1258.658,1381.205,743.099,994.554,230.219,609.912z M231.208,995.482
	c0,137.231,0,264.703,0,390.759c257.574,193.809,512.884,385.914,772.949,581.597c0-136.22,0-263.931,0-395.339
	C747.297,1380.75,491.468,1189.77,231.208,995.482z M1779.217,995.496c0-134.703,0-260.724,0-390.732
	c-254.674-191.746-510.951-384.698-772.843-581.879c0,135.459,0,260.787,0,391.061
	C1262.055,606.342,1517.861,798.831,1779.217,995.496z"/>
</svg>
