<?xml version="1.0" encoding="iso-8859-1"?>
<!-- Generator: Adobe Illustrator 19.0.0, SVG Export Plug-In . SVG Version: 6.00 Build 0)  -->
<svg version="1.1" id="Layer_1" xmlns="http://www.w3.org/2000/svg" xmlns:xlink="http://www.w3.org/1999/xlink" x="0px" y="0px"
	 viewBox="0 0 2000 2000" style="enable-background:new 0 0 2000 2000;" xml:space="preserve">
<path d="M1003.819,1981.505C454.656,1979.85,27.47,1531.764,15.65,1019.207C2.734,459.132,462.754-8.611,1024.525,8.453
	c543.334,16.504,959.018,454.144,960.671,990.507C1986.891,1548.495,1544.729,1974.998,1003.819,1981.505z M395.267,684.332
	c0,208.777,0,414.085,0,619.915c202.845,124.821,403.381,248.222,607.424,373.781c204.09-126.025,406.635-251.095,608.803-375.932
	c0-206.531,0-409.869,0-616.916c-204.275-125.659-409.104-251.658-609.741-375.079C794.264,438.131,594.003,561.702,395.267,684.332
	z M585.819,773.363c314.635,141.026,629.271,282.053,945.27,423.69c0-150.372,0-292.57,0-437.428c-317.554,0-629.838,0-942.121,0
	C587.918,764.204,586.868,768.783,585.819,773.363z M1417.132,1214.161C1103.273,1073.351,789.415,932.54,474.41,791.215
	c0,151.802,0,293.691,0,437.077c317.289,0,628.728,0,940.167,0C1415.429,1223.582,1416.28,1218.871,1417.132,1214.161z
	 M520.101,675.457c325.963,0,635.472,0,965.875,0c-170.139-105.259-321.968-199.19-483.094-298.872
	C843.54,475.228,687.043,572.109,520.101,675.457z M514.568,1311.606c174.751,106.714,330.989,202.123,488.839,298.516
	c157.795-96.915,312.155-191.719,486.04-298.516C1155.482,1311.606,845.806,1311.606,514.568,1311.606z"/>
</svg>
