<?xml version="1.0" encoding="iso-8859-1"?>
<!-- Generator: Adobe Illustrator 19.0.0, SVG Export Plug-In . SVG Version: 6.00 Build 0)  -->
<svg version="1.1" id="Layer_1" xmlns="http://www.w3.org/2000/svg" xmlns:xlink="http://www.w3.org/1999/xlink" x="0px" y="0px"
	 viewBox="0 0 500 500" enable-background="new 0 0 500 500" xml:space="preserve">
<path d="M258.598,495.168C115.039,495.214,1.27,385.368,4.017,244.279C5.289,178.91,29.612,122.386,75.986,76.115
	C125.361,26.848,185.582,2.601,255.171,4.062c64.338,1.351,120.194,25.03,166.136,70.33c50.676,49.969,75.412,111.15,73.641,182.14
	c-1.62,64.907-26.131,121.007-72.096,166.781C375.177,470.79,316.882,494.269,258.598,495.168z M275.999,409.874
	c1.582,7.966,2.802,15.383,4.558,22.672c3.238,13.442,10.363,24.784,19.815,34.711c0.723,0.759,2.448,1.194,3.487,0.926
	c13.784-3.561,27.221-8.144,40.134-14.181c15.971-7.466,30.909-16.632,44.782-27.508c3.81-2.987,7.435-6.208,11.707-9.794
	c-32.28,8.376-60.653,1.477-86.986-17.778c14.59-6.356,27.645-14.394,39.684-24.315c12.308,19.141,28.673,32.742,51.113,38.567
	c27.473-26.457,47.417-57.595,59.229-93.862c-26.939,28.302-67.59,31.2-83.059,27.093c3.874-6.389,8.052-12.745,11.675-19.404
	c3.648-6.705,6.744-13.71,10.161-20.748c20.136,10.186,41.167,13.932,63.23,7.408c10.657-36.903,12.08-73.732,4.242-111.571
	c-8.857,32.081-28.904,53.379-59.046,66.748c2.301-15.905,1.326-31.193-0.918-46.51c3.226-0.268,6.099-0.334,8.914-0.77
	c11.582-1.795,22.727-4.948,32.89-11.01c5.837-3.481,11.282-7.468,15.817-12.566c0.587-0.659,0.991-1.956,0.781-2.779
	c-5.231-20.491-12.764-40.114-23.748-58.2c-6.264-10.314-13.529-20.027-20.501-29.9c-2.002-2.834-4.553-5.281-7.247-8.354
	c7.912,32.018,1.568,60.402-17.88,86.641c-6.385-14.708-14.508-27.665-24.225-39.604c19.109-12.529,32.814-28.789,38.42-51.229
	c-26.554-27.369-57.559-47.336-94.388-59.409c28.18,27.059,31.908,65.357,27.629,83.893c-12.309-9.203-25.739-16.329-40.1-21.872
	c1.54-3.587,3.033-6.866,4.365-10.209c3.114-7.817,4.985-15.894,5.893-24.302c1.016-9.398-0.056-18.5-2.3-27.549
	c-0.187-0.754-1.218-1.596-2.028-1.847c-3.448-1.069-6.919-2.149-10.458-2.824c-8.547-1.629-17.117-3.164-25.718-4.472
	c-4.453-0.677-8.986-0.967-13.494-1.122c-8.124-0.28-16.273-0.719-24.378-0.36c-7.852,0.348-15.674,1.53-23.487,2.521
	c-3.829,0.485-7.608,1.368-12.153,2.208c36.202,9.458,57.664,36.759,65.88,58.595c-7.667-0.29-15.325-0.96-22.96-0.762
	c-7.668,0.199-15.314,1.262-23.04,1.953c-1.244-22.524-8.533-42.26-24.61-58.241c-4.414-0.18-19.536,4.426-41.012,13.677
	c-21.259,9.157-40.248,22.044-57.924,37.915c15.521-4.175,30.589-4.683,45.764-1.444c15.103,3.223,28.538,9.921,40.658,19.027
	c-6.877,3.696-13.791,7.033-20.307,11.02c-6.595,4.035-12.796,8.713-19.203,13.133c-12.158-18.785-28.378-32.34-50.86-38.179
	c-27.465,26.316-47.47,57.477-59.641,94.436c25.553-26.602,62.011-32.066,84.018-27.747c-9.299,12.38-16.398,25.879-22.054,40.345
	c-20.526-10.305-41.49-14.12-63.559-7.549c-10.732,36.896-12.124,73.774-4.3,111.681c8.83-32.085,28.831-53.507,59.042-66.792
	c-2.264,15.796-1.284,31.088,0.93,46.432c-22.816,1.494-42.759,8.631-58.529,25.046c0.083,7.229,11.556,38.488,19.136,52.402
	c9.603,17.628,27.648,42.963,32.299,45.345c-7.742-31.366-1.297-59.708,17.787-85.486c3.814,7.002,7.187,13.838,11.158,20.306
	c4.006,6.525,8.606,12.685,13.031,19.129c-18.682,12.362-32.57,28.629-38.11,51.06c26.476,27.466,57.444,47.45,93.699,59.018
	c-22.816-23.4-30.994-51.455-27.423-83.879c12.726,9.443,26.134,16.772,40.728,22.21c-10.12,20.546-14.253,41.493-7.591,63.715
	c36.581,10.576,73.337,11.995,110.436,4.22c-31.276-8.998-52.487-29.007-65.617-59.056
	C246.124,412.964,261.366,412.109,275.999,409.874z M399.43,249.585c-0.619,83.128-66.672,149.718-149.842,149.69
	c-83.06-0.028-150.569-66.566-149.827-151.413c0.712-81.474,66.292-148.622,150.941-148.101
	C332.731,100.266,398.681,166.059,399.43,249.585z M339.984,249.427c-0.347-50.254-40.245-89.289-88.098-90.327
	c-52.713-1.144-92,40.651-92.776,88.525c-0.849,52.359,40.598,91.281,88.185,92.288C299.575,341.02,339.922,299.12,339.984,249.427z
	 M157.103,342.381c3.988-4.378,7.8-8.562,11.612-12.747c0.113,0.077,0.225,0.154,0.338,0.23c-2.474,5.539-4.949,11.077-7.054,15.789
	c0.855,1.468,1.475,2.533,2.094,3.595c5.654-3.1,10.897-5.975,16.141-8.85c0.087,0.135,0.174,0.269,0.262,0.404
	c-3.852,4.118-7.704,8.235-11.344,12.126c1.106,1.202,2.09,2.271,3.254,3.536c5.861-6.316,11.678-12.585,16.902-18.215
	c-1.364-1.782-2.725-3.561-4.045-5.287c-5.849,3.232-11.396,6.297-17.473,9.655c2.842-6.382,5.415-12.161,8.09-18.169
	c-1.466-1.389-3.005-2.847-4.698-4.451c-6.057,6.567-11.829,12.824-17.694,19.183C154.772,340.317,155.8,341.227,157.103,342.381z
	 M242.572,356.363c3.249,8.541,6.388,16.792,9.588,25.202c1.355-0.074,2.61-0.142,3.886-0.212c0.885-5.318,1.723-10.349,2.561-15.38
	c0.153-0.027,0.306-0.053,0.459-0.08c1.776,4.856,3.552,9.713,5.351,14.632c1.376-0.061,2.56-0.114,3.796-0.169
	c1.658-8.972,3.266-17.673,4.938-26.721c-1.782,0.244-3.433,0.47-5.057,0.693c-0.824,5.4-1.623,10.638-2.421,15.875
	c-0.141,0.032-0.282,0.063-0.423,0.095c-1.861-5.023-3.722-10.046-5.613-15.147c-1.227,0.081-2.318,0.153-3.476,0.23
	c-0.957,5.524-1.872,10.803-2.787,16.083c-0.145-0.011-0.289-0.022-0.434-0.034c-1.731-5.009-3.462-10.019-5.207-15.066
	C246.078,356.363,244.513,356.363,242.572,356.363z M292.111,147.551c-0.325,8.176,6.027,13.502,12.983,13.466
	c7.723-0.039,13.642-6.127,13.978-14.345c0.311-7.6-6.894-13.797-13.712-13.568C298.708,133.328,291.263,140.289,292.111,147.551z
	 M175.627,172.163c7.671,0.017,13.545-5.72,13.329-13.439c-0.237-8.493-6.327-14.207-14.237-14.289
	c-7.543-0.078-12.881,6.153-13.148,12.778C161.241,165.401,168.838,172.461,175.627,172.163z M208.713,360.35
	c-0.52,1.46-0.966,2.714-1.452,4.078c3.061,1.151,5.888,2.214,8.716,3.278c0.025,0.318,0.05,0.637,0.075,0.955
	c-1.898,0.608-3.8,1.729-5.692,1.71c-3.399-0.034-6.488-3.312-7.131-6.786c-0.595-3.219,1.745-7.384,4.999-8.95
	c3.162-1.522,6.689-0.991,8.837,2.226c1.673,2.506,4.091,3.022,6.556,3.885c0.351-6.747-4.466-11.808-11.892-12.029
	c-6.765-0.202-12.657,4.319-13.75,13.059c-0.83,6.637,4.83,13.171,12.185,13.912c5.548,0.559,12.953-5.176,12.93-10.209
	C218.433,363.816,213.747,362.145,208.713,360.35z M339.562,177.264c1.55-6.809,2.982-13.096,4.443-19.512
	c-1.181-1.058-2.391-2.141-3.113-2.788c-6.439,6.144-12.877,12.286-19.149,18.27c1.173,1.313,2.203,2.467,3.805,4.26
	c4.049-4.091,7.944-8.026,11.691-11.811c-1.452,6.157-2.979,12.628-4.309,18.268c1.301,1.678,2.199,2.836,2.894,3.732
	c6.468-6.404,12.803-12.676,18.912-18.725c-1.031-1.075-2.098-2.187-3.439-3.585C347.55,169.168,343.765,173.004,339.562,177.264z
	 M364.183,306.264c0.261-7.567-6.428-13.639-13.801-13.556c-7.888,0.089-13.021,5.403-12.897,12.711
	c0.134,7.879,6.26,13.181,13.887,13.386C358.447,318.995,364.389,313.423,364.183,306.264z M134.476,254.23
	c-7.893-0.001-13.792,5.462-13.881,12.699c-0.091,7.358,5.594,12.98,13.189,13.003c7.707,0.023,13.544-5.87,13.739-13.024
	C147.706,260.184,141.09,253.799,134.476,254.23z M148.965,278.198c-8.012,3.02-16.074,6.058-24.161,9.106
	c0.741,1.717,1.309,3.031,1.899,4.399c5.213-1.934,10.17-3.773,15.126-5.612c0.048,0.152,0.097,0.303,0.145,0.455
	c-3.852,4.881-7.705,9.762-11.666,14.781c0.494,1.473,0.979,2.92,1.489,4.442c8.152-3.09,16.145-6.119,24.29-9.206
	c-0.596-1.665-1.08-3.02-1.608-4.495c-4.974,1.881-9.836,3.72-15.454,5.844c3.477-4.544,6.441-8.523,9.521-12.409
	C151.091,282.292,151.179,282.026,148.965,278.198z M258.763,147.298c-2.288-3.645-4.382-6.98-6.49-10.339
	c4.045-1.728,6.22-4.717,6.169-8.272c-0.048-3.437-2.243-7.156-5.394-7.749c-4.032-0.76-8.202-0.789-12.28-1.131
	c0,9.608,0,18.566,0,27.485c1.756,0,3.297,0,5.177,0c0-3.781,0-7.427,0-11.074c0.146-0.009,0.293-0.018,0.439-0.026
	c2.107,3.75,4.214,7.501,6.239,11.106C254.692,147.298,256.49,147.298,258.763,147.298z M289.31,133.931
	c0.034-5.332-4.921-10.466-10.85-11.21c-6.843-0.859-13.749,3.947-15.102,11.017c-1.361,7.113,1.539,13.496,8.254,16.064
	c5.89,2.253,12.801-0.04,15.098-4.801c-3.333-1.551-4.384-1.393-7.843-0.319c-1.603,0.498-3.578,0.426-5.229,0.004
	c-2.816-0.721-5.062-4.11-5.199-7.108c-0.17-3.727,1.753-7.111,5.008-8.606c2.806-1.288,5.794-1.31,7.777,1.103
	C283.39,132.712,286.11,133.528,289.31,133.931z M237.431,147.264c-5.178-8.067-10.287-16.027-15.487-24.13
	c-1.493,0.28-2.906,0.545-4.531,0.849c-1.364,9.501-2.718,18.935-4.11,28.629c1.877-0.439,3.491-0.817,5.2-1.216
	c0.312-2.024,0.61-3.953,0.909-5.895c3.255-0.691,6.26-1.328,9.306-1.975c1.222,1.811,2.275,3.372,3.345,4.957
	C233.821,148.084,235.488,147.705,237.431,147.264z M332.679,327.63c-2.804-2.252-5.48-4.402-8.145-6.543
	c-1.074,1.306-2.05,2.493-3.116,3.789c6.706,5.542,13.294,10.988,20.092,16.607c1.057-1.361,2.029-2.612,3.018-3.885
	c-2.75-2.29-5.314-4.427-8.075-6.727c1.853-2.175,3.514-4.125,5.164-6.061c2.841,2.336,5.484,4.511,8.178,6.727
	c1.025-1.315,1.922-2.466,3.004-3.854c-6.682-5.543-13.314-11.045-20.064-16.645c-1.002,1.34-1.918,2.565-2.919,3.904
	c2.683,2.284,5.227,4.45,7.919,6.741C335.965,323.765,334.413,325.59,332.679,327.63z M377.663,261.685
	c0.242-1.943,0.452-3.636,0.71-5.706c-3.726,1.644-7.194,3.173-10.7,4.72c-1.003-4.239-3.778-6.6-7.926-6.986
	c-3.155-0.294-6.667,2.019-7.701,5.67c-0.903,3.189-1.19,6.553-1.82,10.254c8.902,1.117,17.387,2.181,25.884,3.247
	c0.294-1.933,0.508-3.336,0.721-4.736c-3.853-0.505-7.408-0.971-10.962-1.437c-0.045-0.139-0.089-0.278-0.134-0.417
	C369.678,264.77,373.622,263.247,377.663,261.685z M239.363,381.319c1.684,0.218,3.128,0.405,5.11,0.661
	c-2.118-9.129-4.202-18.109-6.299-27.145c-1.658,0-3.022,0-4.427,0c-4.174,8.032-8.309,15.99-12.623,24.293c1.896,0,3.548,0,5.335,0
	c0.747-1.43,1.531-2.934,2.385-4.569c1.812,0.231,3.516,0.58,5.23,0.637c2.448,0.082,4.478,0.442,4.576,3.545
	C238.677,379.56,239.089,380.368,239.363,381.319z M275.678,379.139c1.877-0.59,3.311-1.041,4.916-1.545c0-1.86,0-3.671,0-5.637
	c3.023-0.993,5.914-1.943,8.856-2.91c1.259,1.591,2.43,3.071,3.612,4.565c1.555-0.502,3.097-0.999,4.981-1.607
	c-5.675-7.3-11.177-14.377-16.901-21.74c-1.311,0.354-2.744,0.742-4.16,1.125C276.545,360.702,276.12,369.733,275.678,379.139z
	 M348.48,276.688c0.728,0.253,1.363,0.494,2.01,0.696c4.923,1.535,9.862,3.022,14.768,4.613c1.966,0.638,3.224,2.055,2.464,4.183
	c-0.74,2.073-2.678,1.97-4.413,1.525c-2.574-0.659-5.1-1.503-7.65-2.257c-2.98-0.881-5.964-1.751-9.065-2.66
	c-0.466,1.764-0.844,3.193-1.252,4.741c6.356,1.9,12.408,3.82,18.526,5.499c3.813,1.046,7.978-1.6,9.142-5.478
	c1.263-4.205-0.456-8.285-4.481-9.668c-6.066-2.085-12.238-3.864-18.599-5.847C349.429,273.642,349.002,275.014,348.48,276.688z
	 M156.684,166.434c-0.985-0.661-1.627-1.266-2.389-1.57c-2.545-1.016-5.103-1.218-7.388,0.635c-2.215,1.796-3.851,4.149-3.007,7.023
	c1.606,5.469,6.298,9.206,12.575,5.641c1.042-0.592,2.166-1.146,3.322-1.406c1.624-0.366,3.073,0.283,3.412,1.976
	c0.222,1.108,0.187,2.857-0.482,3.405c-0.836,0.686-2.439,0.518-3.715,0.549c-0.533,0.013-1.076-0.413-1.754-0.697
	c-0.892,1.192-1.705,2.277-2.508,3.351c3.111,2.832,6.458,3.402,9.627,1.728c3-1.585,4.519-4.665,4.102-8.316
	c-0.737-6.453-7.84-9.416-13.696-5.789c-1.245,0.771-2.729,1.159-3.856,1.623c-3.076-2.635-3.108-2.86-0.981-5.618
	c1.096,0.109,2.349,0.234,3.188,0.317C154.376,168.286,155.453,167.422,156.684,166.434z M164.322,310.147
	c-2.329-3.911-4.609-7.739-6.915-11.611c-7.547,4.462-14.911,8.816-22.387,13.235c2.445,4.108,4.631,7.781,6.902,11.597
	c1.462-0.891,2.695-1.641,3.92-2.388c-1.502-2.567-2.883-4.927-4.332-7.404c1.904-1.098,3.661-2.111,5.457-3.146
	c1.518,2.499,2.957,4.869,4.466,7.353c1.411-0.857,2.512-1.526,3.784-2.299c-1.412-2.436-2.804-4.84-4.305-7.429
	c1.844-1.059,3.452-1.982,5.01-2.877c1.561,2.533,2.981,4.838,4.434,7.197C161.881,311.517,163.066,310.852,164.322,310.147z
	 M195.496,357.685c0.773-1.383,1.391-2.49,2.142-3.835c-2.459-1.562-4.821-3.062-7.267-4.616c1.091-1.813,2.017-3.353,2.949-4.902
	c2.535,1.455,4.966,2.851,7.482,4.295c0.896-1.446,1.601-2.584,2.362-3.812c-3.968-2.381-7.802-4.682-11.647-6.99
	c-4.46,7.443-8.832,14.739-13.373,22.318c3.976,2.363,7.746,4.603,11.621,6.906c0.9-1.456,1.602-2.591,2.367-3.829
	c-2.54-1.556-4.941-3.026-7.45-4.562c1.144-1.845,2.211-3.565,3.326-5.362C190.529,354.773,192.819,356.115,195.496,357.685z
	 M197.236,160.145c4.116-1.918,7.987-3.722,12.034-5.607c-0.739-1.631-1.365-3.01-1.959-4.321c-2.525,1.103-4.886,2.135-7.471,3.264
	c-3.157-6.72-6.224-13.247-9.356-19.913c-1.741,0.771-3.2,1.417-4.718,2.09C189.627,143.899,193.395,151.946,197.236,160.145z
	 M324.553,356.213c-4.244-5.903-8.354-11.619-12.479-17.357c1.25-0.904,2.421-1.75,3.767-2.724c-0.876-1.271-1.675-2.43-2.629-3.814
	c-3.949,2.822-7.725,5.52-11.652,8.327c0.87,1.285,1.66,2.449,2.511,3.706c1.416-0.865,2.645-1.617,4.066-2.485
	c4.155,5.764,8.218,11.4,12.34,17.119C321.757,358.115,322.954,357.301,324.553,356.213z M306.885,367.271
	c-3.243-6.508-6.369-12.781-9.517-19.097c1.427-0.743,2.784-1.448,4.228-2.2c-0.717-1.353-1.395-2.632-2.168-4.09
	c-4.324,2.151-8.448,4.204-12.673,6.306c0.695,1.416,1.321,2.69,2.013,4.097c1.522-0.664,2.821-1.23,4.29-1.871
	c3.193,6.451,6.321,12.769,9.456,19.101C304.075,368.715,305.363,368.053,306.885,367.271z M329.667,145.919
	c-5.443,7.427-10.709,14.612-16.005,21.838c1.665,1.103,3.008,1.993,4.338,2.873c5.357-7.257,10.619-14.385,15.95-21.606
	C332.371,147.88,331.05,146.922,329.667,145.919z M337.354,249.6c1.192,46.003-38.984,90.925-93.561,87.81
	c-41.414-2.363-85.031-38.381-82.144-93.538c2.198-41.978,38.442-84.686,92.892-82.196
	C298.207,163.672,337.953,200.817,337.354,249.6z M289.474,183.294c-2.097-1.848-3.931-3.535-5.838-5.135
	c-10.26-8.605-22.296-10.958-35.115-9.011c-11.488,1.744-20.712,7.774-27.971,16.921c-9.111,11.48-8.501,28.38-2.158,39.87
	c4.015,7.272,10.145,12.491,17.031,16.83c9.034,5.693,18.354,10.942,27.271,16.808c7.65,5.034,12.502,11.795,11.601,21.735
	c-0.763,8.409-4.333,14.889-11.581,19.173c-9.153,5.41-22.386,2.483-29.868-4.342c-3.027-2.761-5.587-6.034-8.5-9.228
	c-4.389,4.648-8.932,9.457-13.572,14.37c5.1,6.903,11.347,12.134,19.005,15.526c8.064,3.572,16.461,4.87,25.349,3.78
	c12.238-1.5,21.762-7.284,29.101-16.976c4.522-5.973,7.094-12.657,8.035-20.148c1.132-9.006-0.208-17.425-4.842-25.192
	c-5.173-8.671-13.212-14.303-21.56-19.51c-8.42-5.251-17.166-10.025-25.29-15.693c-11.738-8.189-11.872-25.123,0.286-33.129
	c7.907-5.206,16.249-5.467,24.579-1.499c4.142,1.972,7.821,4.916,12.027,7.625C281.051,192.253,285.037,188.013,289.474,183.294z
	 M266.709,270.376c-6.233,3.276-12.755,5.326-20.03,4.559c-7.3-0.77-13.831-3.222-19.109-8.258
	c-9.061-8.644-12.253-19.085-8.674-31.138c-2.544-3.964-5.027-7.832-7.504-11.691c-11.424,19.652-4.833,43.704,14.14,56.037
	c15.229,9.9,35.697,8.095,43.408,1.619C269.037,274.772,268.76,273.328,266.709,270.376z M291.356,253.162
	c3.912-9.561,2.319-26.03-8.121-38.049c-13.173-15.165-33.448-18.01-47.151-12.929c-0.698,4.353,0.151,7.219,3.232,10.916
	c20.914-6.288,41.502,7.607,42.345,28.345C285.058,245.55,288.251,249.409,291.356,253.162z M313.681,146.756
	c0.024-4.251-3.57-8.286-7.715-8.15c-4.898,0.162-8.421,3.834-8.525,8.745c-0.082,3.879,3.052,8.325,7.726,7.978
	C309.903,155.345,313.654,151.569,313.681,146.756z M183.684,158.861c-0.314-5.119-4.948-8.97-8.802-8.912
	c-4.291,0.064-8.031,3.9-7.909,8.228c0.11,3.886,3.651,8.64,8.851,8.2C180.254,166.378,183.941,163.047,183.684,158.861z
	 M350.398,297.894c-4.288,0.017-7.96,3.344-7.723,7.432c0.264,4.552,3.568,7.898,8.548,8.108c4.45,0.187,7.689-3.064,7.699-7.317
	C358.934,301.528,355.148,297.876,350.398,297.894z M125.814,267.286c0.22,4.287,3.534,7.495,8.236,7.461
	c4.773-0.035,8.162-3.332,8.131-7.909c-0.029-4.199-3.463-7.354-7.996-7.347C130.403,258.789,125.631,263.716,125.814,267.286z
	 M252.396,130.907c0.605-1.142,0.621-3.165-0.007-4.274c-1.376-2.429-3.984-1.824-6.434-1.73c0,2.781,0,5.435,0,8.195
	C248.581,133.501,251.092,133.365,252.396,130.907z M221.232,131.376c-0.461,3.259-0.836,5.914-1.238,8.758
	c2.216-0.483,3.968-0.865,6.036-1.316C224.378,136.255,222.937,134.02,221.232,131.376z M355.458,265.287
	c2.624,0.361,5.295,0.729,8.056,1.109c0.289-3.002,0.54-5.616-2.425-7.382C356.53,258.891,355.202,260.311,355.458,265.287z
	 M231.062,370.016c2.055,0.201,3.869,0.379,5.922,0.579c-0.671-2.895-1.236-5.328-1.95-8.407
	C233.573,365.069,232.391,367.397,231.062,370.016z M281.103,366.619c1.85-0.596,3.559-1.147,5.417-1.746
	c-1.795-2.284-3.368-4.285-5.417-6.892C281.103,361.367,281.103,363.878,281.103,366.619z"/>
</svg>
