<?xml version="1.0" encoding="iso-8859-1"?>
<!-- Generator: Adobe Illustrator 19.0.0, SVG Export Plug-In . SVG Version: 6.00 Build 0)  -->
<svg version="1.1" id="Layer_1" xmlns="http://www.w3.org/2000/svg" xmlns:xlink="http://www.w3.org/1999/xlink" x="0px" y="0px"
	 viewBox="0 0 500 500" enable-background="new 0 0 500 500" xml:space="preserve">
<path d="M495.343,250.303c0.368,134.679-110.001,247.111-249.189,244.658C110.791,492.575,4.126,381.066,5.889,246.891
	C7.666,111.577,119.947,2.39,256.401,5.505C388.037,8.511,495.681,116.67,495.343,250.303z M28.348,250.307
	c-0.51,120.691,98.346,223.523,224.537,222.307c122.71-1.183,218.787-101.014,220.13-219.691
	c1.414-124.931-100.629-225.691-223.348-225.064C127.601,28.481,28.148,128.02,28.348,250.307z M459.639,250.801
	c0.538,111.066-89.609,207.238-206.392,208.583c-119.216,1.374-210.26-95.112-211.747-205.902
	C39.932,136.598,133.826,43.305,246.265,41.094C364.866,38.761,460.749,135.493,459.639,250.801z M406.72,211.874
	c0-7.335,0.029-14.388-0.005-21.441c-0.179-37.323-29.672-67.681-66.914-68.893c-45.034-1.466-79.803,41.194-69.107,84.947
	c5.75,23.522,20.321,39.513,42.687,48.372c13.778,5.457,27.859,10.161,41.556,15.805c19.191,7.908,29.594,28.477,25.296,48.823
	c-4.095,19.389-22.324,33.832-42.472,33.779c-17.536-0.047-35.073,0.034-52.61,0.053c-7.182,0.008-14.365,0.001-21.838,0.001
	c0-77.504,0-154.243,0-231.409c-1.917-0.108-3.554-0.279-5.191-0.28c-31.573-0.018-63.147-0.041-94.72,0.019
	c-3.702,0.007-7.448,0.222-11.098,0.812c-30.496,4.928-54.25,30.185-57.484,60.975c-3.175,30.229,14.67,59.439,43.364,70.676
	c13.328,5.22,26.803,10.063,40.167,15.194c20.723,7.956,31.494,26.945,27.771,48.751c-3.055,17.891-18.654,32.598-37.176,35.048
	c-17.901,2.368-36.567-7.729-44.318-23.809c-3.14-6.514-4.66-13.322-4.659-20.512c0-6.681,0-13.361,0-19.954
	c-8.897,0-17.057,0-25.164,0c0,9.85-0.946,19.41,0.163,28.724c4.867,40.861,42.121,67.652,82.541,59.901
	c29.059-5.573,53.048-32.606,54.813-61.769c1.987-32.84-15.671-59.602-46.684-70.939c-12.652-4.625-25.319-9.233-37.821-14.242
	c-20.102-8.054-30.946-27.935-26.804-48.911c4.116-20.84,23.743-34.813,42.99-34.324c22.61,0.574,45.246,0.134,67.871,0.134
	c1.801,0,3.601,0,5.891,0c0,77.346,0,154.058,0,231.221c2.316,0,4.139,0,5.963,0c32.08,0.001,64.16,0.042,96.24-0.007
	c33.896-0.051,64.326-28.703,66.612-62.629c2.118-31.426-15.41-58.871-44.929-70.215c-13.054-5.017-26.221-9.741-39.228-14.874
	c-20.559-8.114-31.076-27.042-27.265-48.576c3.198-18.071,19.503-33.089,37.328-34.861c23.69-2.355,39.77,12.251,45.762,27.134
	c3.373,8.379,3.169,17.154,3.073,25.932c-0.042,3.789-0.007,7.579-0.007,11.343C390.194,211.874,398.227,211.874,406.72,211.874z"/>
</svg>
