<?xml version="1.0" encoding="iso-8859-1"?>
<!-- Generator: Adobe Illustrator 19.0.0, SVG Export Plug-In . SVG Version: 6.00 Build 0)  -->
<svg version="1.1" id="Layer_1" xmlns="http://www.w3.org/2000/svg" xmlns:xlink="http://www.w3.org/1999/xlink" x="0px" y="0px"
	 viewBox="0 0 500 500" enable-background="new 0 0 500 500" xml:space="preserve">
<path d="M250.553,3.774c67.234,0.222,125.214,23.789,172.704,71.226c51.863,51.804,75.679,115.268,71.86,188.349
	c-6.321,120.961-106.707,233.425-251.303,230.59C114.996,491.413,0.439,385.397,5.14,238.843
	C9.262,110.353,117.189,2.047,250.553,3.774z M262.654,388.017c0-10.744,0-21.297,0-31.361c6.269-2.92,12.111-5.186,17.509-8.236
	c19.829-11.203,39.68-22.385,59.196-34.119c16.691-10.036,25.888-24.928,25.954-44.789c0.077-23.489,0.021-46.978,0.017-70.466
	c-0.003-19.806-8.832-34.904-25.488-44.99c-19.813-11.998-40.061-23.28-60.188-34.755c-18.276-10.421-36.627-10.436-54.917,0.072
	c-19.753,11.348-39.551,22.618-59.238,34.079c-17.703,10.306-26.29,26.329-26.799,46.338c-0.583,22.861-0.645,45.764,0.021,68.62
	c0.567,19.438,8.56,35.402,25.931,45.596c16.134,9.469,32.253,18.972,48.558,28.139c9.593,5.394,19.537,10.163,29.869,15.495
	c0,9.593,0,19.75,0,30.378C249.676,388.017,255.89,388.017,262.654,388.017z M287.14,229.432
	c3.111,21.814-6.125,35.383-24.33,43.465c0,20.787,0,41.117,0,62.011c1.67-0.685,3.009-1.068,4.184-1.74
	c21.159-12.099,42.374-24.104,63.407-36.419c9.212-5.393,14.803-14.155,15.077-24.49c0.697-26.299,0.232-52.629,0.232-80.54
	C325.16,204.951,305.823,217.402,287.14,229.432z M271.326,137.284c-12.555-8.021-25.07-7.798-37.827-0.344
	c-17.387,10.159-34.911,20.081-52.342,30.164c-3.921,2.268-7.699,4.784-12.206,7.6c20.313,13.069,39.591,25.473,58.721,37.781
	c19.154-14.228,32.315-11.803,49.524-0.199c19.114-12.319,38.283-24.673,58.519-37.715c-12.662-7.372-24.224-14.104-35.741-20.809
	c-5.043,3.262-9.971,6.476-14.926,9.648c-13.519,8.657-27.062,17.276-40.568,25.953c-4.208,2.703-8.912,3.566-12.191-0.316
	c-2.152-2.548-3.353-6.997-2.89-10.302c0.36-2.565,3.605-5.201,6.168-6.901c14.576-9.67,29.332-19.068,45.019-29.198
	C276.852,140.493,274.016,139.002,271.326,137.284z M160.206,239.266c19.822,12.776,39.632,25.571,59.493,38.287
	c3.834,2.454,6.704,5.392,6.318,10.27c-0.643,8.117-8.368,11.695-15.833,7.012c-14.822-9.299-29.446-18.915-44.176-28.361
	c-2.227-1.428-4.589-2.645-7.398-4.25c-0.784,16.797,4.876,28.738,18.943,36.551c16.347,9.08,32.407,18.674,48.625,27.987
	c5.184,2.977,10.472,5.773,16.43,9.045c0-21.691,0-42.067,0-62.862c-20.186-7.425-28.063-22.453-25.308-43.599
	c-19.159-12.309-38.088-24.47-58.064-37.304c0,15.995,0,30.925,0,46.34C159.612,238.73,159.874,239.052,160.206,239.266z
	 M268.172,238.164c-0.089-8.076-8.13-15.811-16.385-15.761c-7.922,0.048-15.213,7.743-15.182,16.024
	c0.034,9.072,6.7,15.684,15.746,15.617C261.002,253.981,268.265,246.69,268.172,238.164z"/>
</svg>
