<?xml version="1.0" encoding="iso-8859-1"?>
<!-- Generator: Adobe Illustrator 19.0.0, SVG Export Plug-In . SVG Version: 6.00 Build 0)  -->
<svg version="1.1" id="Layer_1" xmlns="http://www.w3.org/2000/svg" xmlns:xlink="http://www.w3.org/1999/xlink" x="0px" y="0px"
	 viewBox="0 0 500 500" style="enable-background:new 0 0 500 500;" xml:space="preserve">
<path d="M248.886,6.462c70.52,40.529,141.03,81.054,211.518,121.565c0,1.216-0.001,2.216,0,3.216
	c0.032,34.638-0.24,69.279,0.173,103.912c0.531,44.496,0.121,88.99,0.328,133.484c0.005,0.999,0.001,1.998,0.001,3.21
	c-70.308,40.794-140.625,81.594-210.982,122.416c-9.287-5.363-18.507-10.708-27.748-16.017c-8.456-4.857-16.944-9.656-25.399-14.514
	c-8.455-4.858-16.877-9.774-25.332-14.632c-7.298-4.193-14.637-8.317-21.932-12.515c-9.246-5.32-18.459-10.698-27.7-16.027
	c-8.303-4.788-16.628-9.538-24.939-14.313c-8.6-4.942-17.187-9.906-25.792-14.84c-8.46-4.851-16.938-9.672-25.403-14.513
	c-1.954-1.118-3.866-2.314-5.848-3.378c-1.184-0.636-1.685-1.534-1.617-2.829c0.022-0.417,0.003-0.836,0.002-1.255
	c-0.028-62.08-0.055-124.16-0.087-186.24c-0.005-8.952,0.003-17.905-0.07-26.856c-0.067-8.183-0.236-16.366-0.356-24.549
	c-0.012-0.833-0.002-1.667-0.002-2.793C107.953,88.232,178.27,47.434,248.886,6.462z M248.857,22.96
	C183.322,60.979,117.838,98.967,52.219,137.034c0.19,75.825,0.381,151.608,0.571,227.456
	c65.776,37.782,131.48,75.524,197.177,113.261c65.62-38.068,131.026-76.011,196.516-114.003
	c-0.18-75.879-0.067-151.66-0.614-227.518C380.175,98.46,314.549,60.729,248.857,22.96z M227.689,248.048
	c-3.893,3.914-7.808,7.806-11.714,11.708c-17.222,17.202-34.433,34.417-51.689,51.585c-1.222,1.216-1.741,2.439-1.736,4.165
	c0.052,18.237,0.031,36.475,0.031,54.712c0,0.814,0,1.627,0,2.623c1.072,0.048,1.884,0.113,2.697,0.115
	c4.518,0.01,9.035,0.005,13.553,0.005c16.063,0,32.126-0.006,48.189,0.016c0.961,0.001,2.009-0.328,3.096,0.572
	c0,5.512,0,11.172,0,16.976c10.97,0,21.717,0,32.682,0c0.045-1.001,0.118-1.901,0.12-2.801c0.012-4.267-0.003-8.533,0.014-12.8
	c0.003-0.72,0.117-1.439,0.202-2.403c3.185,0,6.176,0,9.168,0c3.012,0,6.024,0,9.035,0c3.012,0,6.024,0,9.035,0
	c3.095,0,6.191,0,9.286,0c3.012,0,6.024,0,9.035,0c3.012,0,6.024,0.015,9.035-0.004c2.976-0.02,5.959,0.085,8.992-0.062
	c0-16.248,0-32.192,0-48.348c-0.934-0.059-1.747-0.153-2.561-0.155c-3.341-0.007-6.683,0.048-10.024,0.019
	c-17.811-0.156-35.623-0.326-53.434-0.5c-11.376-0.112-22.752-0.234-34.128-0.378c-0.67-0.008-1.551,0.408-2.053-0.903
	c24.568-24.525,49.22-49.134,74.034-73.904c-0.707-0.794-1.217-1.427-1.788-1.998c-15.735-15.731-31.476-31.456-47.217-47.182
	c-5.799-5.793-11.605-11.577-17.385-17.389c-0.477-0.48-1.334-0.819-0.978-2.055c30.93,0,61.918,0,93.009,0
	c0-16.626,0-32.977,0-49.577c-19.334,0-38.531,0-58.078,0c-0.037-6.717,0.011-13.199-0.03-19.795
	c-0.86-0.093-1.508-0.223-2.155-0.224c-9.872-0.024-19.744-0.036-29.615-0.026c-0.548,0.001-1.096,0.214-1.839,0.37
	c0,2.274,0,4.438,0,6.602c0,2.259,0.062,4.52-0.018,6.776c-0.076,2.129,0.379,4.299-0.341,6.602c-1.067,0-2.059,0-3.05,0
	c-20.664,0-41.328-0.004-61.993,0.014c-0.967,0.001-2.004-0.29-2.949,0.395c-0.035,0.409-0.1,0.819-0.1,1.23
	c-0.006,15.561,0.01,31.122-0.029,46.683c-0.004,1.554,0.541,2.649,1.634,3.725c6.14,6.044,12.216,12.153,18.314,18.239
	c14.507,14.477,29.016,28.952,43.521,43.431c0.577,0.576,1.119,1.187,1.856,1.972C228.712,246.821,228.25,247.484,227.689,248.048z"
	/>
</svg>
