<?xml version="1.0" encoding="iso-8859-1"?>
<!-- Generator: Adobe Illustrator 19.0.0, SVG Export Plug-In . SVG Version: 6.00 Build 0)  -->
<svg version="1.1" id="Layer_1" xmlns="http://www.w3.org/2000/svg" xmlns:xlink="http://www.w3.org/1999/xlink" x="0px" y="0px"
	 viewBox="0 0 2000 2000" style="enable-background:new 0 0 2000 2000;" xml:space="preserve">
<path d="M1983.488,999.428c-8.378,544.5-423.068,982.817-984.978,988.276c-536.529,5.212-986.763-448.1-980.468-985.914
	c6.522-557.237,430.761-982.589,984.66-988.26C1540.673,8.022,1981.588,460.062,1983.488,999.428z M1430.269,531.266
	c-179.33-53.926-352.262-61.141-521.062,2.383c-129.506,48.737-172.034,163.914-178.895,291.166
	c-5.921,109.799,65.584,172.551,154.386,219.186c57.238,30.059,117.871,54.623,172.018,89.382
	c93.428,59.976,85.364,184.969-15.864,232.289c-41.597,19.445-91.128,27.165-137.628,29.727
	c-83.645,4.608-167.726,1.302-256.175,1.302c-6.486,35.969-12.015,66.638-18.054,100.131
	c161.126,53.872,319.201,51.294,477.635,20.369c179.245-34.988,257.185-160.08,261.905-342.689
	c2.656-102.774-64.63-164.161-150.022-208.723c-64.854-33.844-133.423-62.883-192.35-105.189
	c-74.289-53.334-67.55-147.717,12.934-191.439c41.757-22.684,93.45-32.854,141.604-36.652c74.887-5.907,150.583-1.561,227.913-1.561
	C1415.974,597.064,1422.255,568.155,1430.269,531.266z"/>
</svg>
