<?xml version="1.0" encoding="iso-8859-1"?>
<!-- Generator: Adobe Illustrator 19.0.0, SVG Export Plug-In . SVG Version: 6.00 Build 0)  -->
<svg version="1.1" id="Layer_1" xmlns="http://www.w3.org/2000/svg" xmlns:xlink="http://www.w3.org/1999/xlink" x="0px" y="0px"
	 viewBox="0 0 2000 2000" style="enable-background:new 0 0 2000 2000;" xml:space="preserve">
<path d="M1979.854,994.576c-5.35,11.325-8.196,19.617-12.909,26.66c-4.296,6.419-10.517,11.583-16.059,17.131
	c-301.408,301.7-602.834,603.383-904.259,905.067c-3.698,3.702-7.362,7.439-11.11,11.09c-28.319,27.583-42.192,27.872-70.219-0.141
	c-307.182-307.027-614.284-614.134-921.32-921.308c-28.945-28.958-28.785-42.59,0.683-72.046
	c306.556-306.42,613.176-612.775,919.847-919.079c28.187-28.154,43.886-27.975,72.539,0.669
	c305.924,305.835,611.831,611.688,917.47,917.808C1964.539,970.464,1971.667,983.391,1979.854,994.576z M119.99,993.063
	c295.62,295.621,590.655,590.657,884.153,884.156c291.111-291.91,585.338-586.944,877.032-879.438
	c-293.124-293.122-588.224-588.221-881.478-881.473C706.87,408.153,411.734,702.299,119.99,993.063z M832.93,668.003
	c0,109.196,0,215.332,0,325.356c11.241,0,21.339-0.012,31.438,0.002c113.369,0.156,226.739,0.202,340.107,0.638
	c12.077,0.047,24.577,0.812,36.125,3.99c21.113,5.811,34.181,20.35,36.96,42.568c1.294,10.342,1.59,20.863,1.598,31.303
	c0.101,130.812,0.072,261.623,0.052,392.435c-0.001,6.975,0.104,13.972-0.385,20.921c-2.59,36.767-21.727,55.472-58.559,55.894
	c-46.214,0.529-92.439,0.173-138.659,0.214c-81.103,0.072-162.21-0.231-243.305,0.618c-13.392,0.14-27.329,3.759-39.978,8.522
	c-32.496,12.236-64.866,5.014-84.797-20.672c-20.364-26.245-20.602-58.17-0.629-84.45c20.766-27.325,52.574-34.639,86.535-20.789
	c9.41,3.838,19.746,7.579,29.676,7.632c106.39,0.562,212.785,0.402,319.178,0.321c5.892-0.004,11.784-1.06,19.361-1.787
	c0-108.212,0-215.024,0-324.647c-12.031-0.696-23.842-1.999-35.649-1.965c-111.623,0.328-223.245,1.017-334.868,1.32
	c-56.952,0.155-77.817-20.508-77.859-76.696c-0.099-132.554-0.21-265.11,0.236-397.663c0.046-13.71,1.345-28.396,6.368-40.9
	c9.915-24.684,30.988-32.865,56.873-33.072c92.431-0.741,184.855-2.298,277.283-3.396c28.775-0.342,57.557-0.15,86.334-0.309
	c21.645-0.12,42.467-0.44,63.572-9.912c27.872-12.509,59.369-1.487,76.984,21.616c18.218,23.893,19.332,55.817,2.804,80.353
	c-17.266,25.631-48.051,38.355-77.536,26.206c-23.823-9.816-47.32-9.651-71.514-9.338c-95.912,1.241-191.822,2.714-287.731,4.181
	C847.023,666.586,841.111,667.367,832.93,668.003z M1226.973,1488.964c0-149.559,0-296.408,0-446.133c-149.429,0-296.429,0-444.28,0
	c0-145.209,0-287.512,0-432.501c125.143,0,247.703,0,370.263,0c-0.019-1.479-0.038-2.957-0.057-4.436
	c-125.468,0-250.936,0-376.147,0c0,149.155,0,296.084,0,445.755c148.14,0,294.258,0,440.852,0c0,145.124,0,287.473,0,432.769
	c-126.291,0-250.124,0-373.958,0c0.02,1.516,0.04,3.031,0.06,4.547C970.643,1488.964,1097.579,1488.964,1226.973,1488.964z
	 M1232.784,566.211c-23.466,0.052-41.107,17.739-41.104,41.21c0.003,23.328,17.862,41.065,41.276,40.995
	c23.18-0.07,41.214-18.122,41.188-41.228C1274.118,584.125,1255.985,566.16,1232.784,566.211z M808.059,1486.186
	c-0.315-22.444-17.368-39.544-39.615-39.725c-22.894-0.185-41.684,18.674-41.256,41.408c0.41,21.789,18.242,39.191,40.341,39.367
	C791.34,1527.426,808.396,1510.151,808.059,1486.186z"/>
</svg>
