<?xml version="1.0" encoding="iso-8859-1"?>
<!-- Generator: Adobe Illustrator 19.0.0, SVG Export Plug-In . SVG Version: 6.00 Build 0)  -->
<svg version="1.1" id="Layer_1" xmlns="http://www.w3.org/2000/svg" xmlns:xlink="http://www.w3.org/1999/xlink" x="0px" y="0px"
	 viewBox="0 0 500 500" style="enable-background:new 0 0 500 500;" xml:space="preserve">
<path d="M320.831,259.15c-11.986,34.267-23.083,67.859-34.581,101.309c-11.443,33.289-22.632,66.665-34.382,101.328
	c-6.041-13.808-9.358-27.311-14.112-40.279c-4.933-13.457-9.303-27.12-13.872-40.71c-4.492-13.362-8.92-26.745-13.385-40.116
	c-4.551-13.627-9.099-27.255-13.672-40.875c-4.48-13.342-8.99-26.674-13.789-40.906c-15.587,9.526-29.407,20.102-43.829,29.755
	c-14.535,9.728-28.769,19.904-43.152,29.859c-14.37,9.946-28.758,19.864-43.142,29.789c-14.305,9.871-28.615,19.735-43.991,30.339
	c0.287-7.943,3.651-13.67,5.259-19.802c1.724-6.572,4.362-12.902,6.534-19.36c2.09-6.216,4.093-12.462,6.137-18.694
	c2.049-6.247,4.094-12.494,6.152-18.738c2.053-6.229,4.142-12.446,6.175-18.682c2.109-6.468,4.135-12.963,6.262-19.424
	c2.051-6.23,4.202-12.427,6.279-18.648c2.075-6.216,4.145-12.434,6.157-18.671c2.015-6.247,3.889-12.54,5.944-18.773
	c2.128-6.454,4.466-12.839,6.589-19.294c2.045-6.22,3.933-12.492,6.443-20.508c56.309-43.18,113.948-87.387,171.62-131.552
	c0.904-0.692,2.2-0.874,3.857-1.499c57.808,44.173,115.699,88.41,173.658,132.699c22.377,69.624,44.735,139.189,67.093,208.753
	c-20.46-11.466-38.796-25.15-57.691-37.998c-18.889-12.843-37.501-26.095-56.277-39.105
	C360.146,286.206,341.122,273.14,320.831,259.15z M179.756,239.891c19.941-57.244,39.536-113.497,59.126-169.752
	c0.159-0.455,0.25-0.938,0.331-1.415c0.039-0.233,0.002-0.486-0.038-0.723c-0.04-0.232-0.1-0.47-0.204-0.679
	c-0.107-0.215-0.278-0.399-0.802-1.124c-48.909,37.353-97.805,74.695-146.389,111.799C74.596,230.393,57.62,282.159,40.66,333.931
	c-0.059,0.18,0.083,0.462,0.202,0.652c0.107,0.172,0.312,0.282,0.775,0.676C87.674,303.471,133.796,271.625,179.756,239.891z
	 M460.316,334.655c0.279-0.39,0.558-0.78,0.838-1.171c-1.359-4.672-2.602-9.381-4.097-14.008
	c-7.696-23.82-15.493-47.608-23.183-71.43c-6.94-21.498-13.805-43.02-20.662-64.545c-1.056-3.314-2.5-6.14-5.436-8.368
	c-19.877-15.079-39.626-30.328-59.451-45.476c-26.477-20.231-52.979-40.428-79.494-60.61c-1.223-0.931-2.673-1.565-4.981-2.89
	c0.476,2.258,0.594,3.414,0.963,4.483c7.524,21.816,15.116,43.608,22.614,65.432c11.369,33.092,22.713,66.193,33.953,99.33
	c1.091,3.217,3.027,5.402,5.685,7.24c21.584,14.921,43.16,29.851,64.725,44.8c20.163,13.977,40.301,27.989,60.467,41.961
	C454.891,331.228,457.627,332.908,460.316,334.655z M251.641,84.687c-6.457,18.52-12.4,35.457-18.265,52.42
	c-5.793,16.758-11.47,33.555-17.265,50.313c-5.823,16.842-11.824,33.626-17.301,50.712c8.98,1.535,99.504,1.186,105.566-0.449
	C286.985,187.227,269.61,136.819,251.641,84.687z M201.657,256.405c0,1.57-0.303,2.826,0.044,3.865
	c16.319,48.977,32.669,97.944,49.813,147.997c1.169-2.671,1.844-3.954,2.306-5.31c5.173-15.174,10.291-30.366,15.468-45.539
	c10.819-31.709,21.682-63.403,32.451-95.129c0.564-1.663,0.413-3.569,0.647-5.885C268.553,256.405,235.502,256.405,201.657,256.405z
	"/>
</svg>
