<?xml version="1.0" encoding="iso-8859-1"?>
<!-- Generator: Adobe Illustrator 19.0.0, SVG Export Plug-In . SVG Version: 6.00 Build 0)  -->
<svg version="1.1" id="Layer_1" xmlns="http://www.w3.org/2000/svg" xmlns:xlink="http://www.w3.org/1999/xlink" x="0px" y="0px"
	 viewBox="0 0 500 500" style="enable-background:new 0 0 500 500;" xml:space="preserve">
<path d="M249.825,389.24c-7.091-12.814-13.791-24.921-20.555-37.146c-4.208-0.473-8.321-0.961-12.44-1.394
	c-11.037-1.161-21.932-3.168-32.737-5.644c-33.253-7.618-64.664-20.114-94.736-36.082c-22.548-11.973-43.963-25.738-64.239-41.247
	c-6.101-4.667-11.968-9.642-18.262-14.735c1.084-1.094,1.85-2.05,2.789-2.785c9.43-7.391,18.67-15.048,28.382-22.05
	c22.046-15.894,45.453-29.55,70.039-41.147c24.918-11.754,50.725-21.019,77.639-27.027c11.797-2.633,23.699-4.752,35.772-5.736
	c0.744-0.061,1.477-0.261,2.407-0.432c8.444-13.926,16.923-27.911,25.721-42.421c4.977,7.306,9.078,14.472,13.449,21.457
	c4.341,6.937,8.461,14.012,12.673,21.018c3.045,0.39,5.905,0.777,8.771,1.119c30.987,3.7,60.629,12.335,89.376,24.285
	c28.756,11.954,55.809,27.013,81.484,44.59c11.562,7.915,22.742,16.341,33.458,25.373c1.237,1.043,2.402,2.171,3.892,3.523
	c-2.478,2.154-4.688,4.179-7.006,6.072c-21.549,17.599-44.511,33.108-68.873,46.554c-23.456,12.946-47.798,23.861-73.341,32.002
	c-16.336,5.206-32.92,9.432-49.927,11.804c-6.482,0.904-12.998,1.561-19.495,2.356c-1.24,0.152-2.465,0.42-3.743,0.643
	C263.578,364.379,256.877,376.493,249.825,389.24z M237.1,175.519c-5.206,8.321-10.244,16.468-15.379,24.553
	c-5.097,8.024-9.977,16.192-15.526,24.518c-4.001-7.619-7.734-14.726-11.433-21.769c2.513-4.205,4.917-8.054,7.145-12.002
	c2.234-3.957,4.927-7.671,6.87-11.924c-0.606-0.104-0.857-0.215-1.081-0.176c-13.032,2.293-25.904,5.279-38.608,8.976
	c-26.805,7.8-52.661,18.073-77.852,30.054c-15.27,7.263-30.256,15.074-44.873,23.577c-6.189,3.6-12.285,7.361-18.724,11.23
	c1.117,0.805,1.885,1.427,2.716,1.947c22.165,13.869,45.242,26.034,68.987,36.955c24.083,11.077,48.782,20.481,74.345,27.578
	c13.241,3.676,26.654,6.526,40.214,8.705c0.505,0.081,1.058-0.137,1.798-0.246c-15.393-27.878-30.617-55.449-45.837-83.012
	c4.197-7.008,8.255-13.781,12.575-20.994c10.31,17.81,19.018,35.842,28.485,53.464c9.479,17.644,18.702,35.426,28.037,53.149
	c7.324,0,14.353,0,21.466,0c18.497-35.715,36.539-71.454,56.842-106.522c4.309,7.22,8.358,14.005,12.475,20.904
	c-15.227,27.833-30.619,55.361-46.066,83.578c4.542-0.701,8.397-1.189,12.211-1.903c24.58-4.601,48.482-11.599,71.855-20.451
	c23.495-8.898,46.361-19.197,68.395-31.259c10.724-5.871,21.139-12.307,31.664-18.537c1.468-0.869,2.989-1.769,4.163-3.441
	c-1.686-1.194-3.185-2.329-4.755-3.356c-13.744-8.984-28.129-16.851-42.748-24.289c-20.691-10.528-41.928-19.832-63.768-27.718
	c-20.642-7.453-41.706-13.428-63.276-17.549c-2.142-0.409-4.322-0.619-6.979-0.99c4.836,8.125,9.345,15.7,13.909,23.367
	c-3.871,7.431-7.705,14.789-11.823,22.695c-10.3-16.703-20.325-32.962-30.339-49.201C253.754,174.696,245.584,174.618,237.1,175.519
	z"/>
</svg>
