<?xml version="1.0" encoding="utf-8"?>
<!-- Generator: Adobe Illustrator 24.2.0, SVG Export Plug-In . SVG Version: 6.00 Build 0)  -->
<svg version="1.1" id="Layer_1" xmlns="http://www.w3.org/2000/svg" xmlns:xlink="http://www.w3.org/1999/xlink" x="0px" y="0px"
	 viewBox="0 0 500 500" style="enable-background:new 0 0 500 500;" xml:space="preserve">
<path d="M250,3.6C113.9,3.6,3.6,113.9,3.6,250S113.9,496.4,250,496.4S496.4,386.1,496.4,250S386.1,3.6,250,3.6z M192.7,376
	c-39.1,0-65.9-19.2-65.9-58.8c0-39.7,32.2-58.8,79.1-58.8c34.6,0,51,6.7,85.7,6.7c8.6,0,17.2-0.7,25.6-2.2
	C310.2,327.3,256.6,376,192.7,376z M294.1,241.6c-34.6,0-51-6.7-85.7-6.7c-8.6,0-17.2,0.7-25.6,2.2c7-64.4,60.6-113.1,124.5-113.1
	c39.1,0,65.9,19.2,65.9,58.8C373.2,222.5,341,241.6,294.1,241.6z"/>
</svg>
