<?xml version="1.0" encoding="iso-8859-1"?>
<!-- Generator: Adobe Illustrator 19.0.0, SVG Export Plug-In . SVG Version: 6.00 Build 0)  -->
<svg version="1.1" id="Layer_1" xmlns="http://www.w3.org/2000/svg" xmlns:xlink="http://www.w3.org/1999/xlink" x="0px" y="0px"
	 viewBox="0 0 500 500" style="enable-background:new 0 0 500 500;" xml:space="preserve">
<path d="M495.375,228.125c-77.662,0-155.324,0-232.986,0c-0.435,1.327-0.871,2.655-1.306,3.982
	c25.107,16.847,50.213,33.693,76.176,51.114c0,14.996,0,30.9,0,49.904c-110.91,0-221.397,0-331.884,0c0-17.5,0-35,0-52.5
	c87.869,0,175.739,0,263.608,0c0.436-1.327,0.872-2.655,1.308-3.982c-25.104-16.845-50.208-33.69-76.172-51.113
	c0-14.994,0-30.898,0-49.905c100.696,0,200.976,0,301.256,0C495.375,193.125,495.375,210.625,495.375,228.125z"/>
</svg>
