<?xml version="1.0" encoding="utf-8"?>
<!-- Generator: Adobe Illustrator 24.1.0, SVG Export Plug-In . SVG Version: 6.00 Build 0)  -->
<svg version="1.1" id="Layer_1" xmlns="http://www.w3.org/2000/svg" xmlns:xlink="http://www.w3.org/1999/xlink" x="0px" y="0px"
	 viewBox="0 0 500 500" style="enable-background:new 0 0 500 500;" xml:space="preserve">
<style type="text/css">
	.st0{fill-opacity:0.5;}
</style>
<path id="Rectangle-2" d="M281.3,219.4c16.9,0,30.6,13.7,30.6,30.6s-13.7,30.6-30.6,30.6h-79.5c-77,0-139.4-62.4-139.4-139.4
	S124.8,1.8,201.8,1.8h205c16.9,0,30.6,13.7,30.6,30.6S423.7,63,406.8,63h-205c-43.2,0-78.2,35-78.2,78.2s35,78.2,78.2,78.2H281.3z"
	/>
<path id="Rectangle-2-Copy" d="M218.6,280.7c-16.9,0-30.6-13.7-30.6-30.6s13.7-30.6,30.6-30.6h79.5c77,0,139.4,62.4,139.4,139.4
	s-62.4,139.4-139.4,139.4H93c-16.9,0-30.6-13.7-30.6-30.6s13.7-30.6,30.6-30.6h205c43.2,0,78.2-35,78.2-78.2s-35-78.2-78.2-78.2
	L218.6,280.7L218.6,280.7z"/>
<polygon id="Path-3" class="st0" points="117.2,485.9 67.5,450.2 380.6,13.1 430.4,48.8 "/>
</svg>
