<?xml version="1.0" encoding="iso-8859-1"?>
<!-- Generator: Adobe Illustrator 19.0.0, SVG Export Plug-In . SVG Version: 6.00 Build 0)  -->
<svg version="1.1" id="Layer_1" xmlns="http://www.w3.org/2000/svg" xmlns:xlink="http://www.w3.org/1999/xlink" x="0px" y="0px"
	 viewBox="0 0 500 500" enable-background="new 0 0 500 500" xml:space="preserve">
<path d="M493.045,218.298c-5.024,22.482-11.95,44.111-23.094,64.047c-9.843,17.609-21.445,34.106-36.234,48.05
	c-23.853,22.49-51.803,37.681-83.892,44.188c-13.552,2.748-27.461,5.046-41.515,4.108c-4.523-0.302-9.029-0.865-15.584-1.51
	c7.624,6.594,15.773,6.673,22.892,8.764c7.63,2.242,15.734,3.012,23.685,3.98c7.71,0.939,15.487,1.777,23.237,1.807
	c8.046,0.031,16.074,0.792,24.197-1.359c7.594-2.012,15.67-2.206,24.007-3.261c-12.635,10.685-26.115,19.287-41.008,25.725
	c-16.492,7.13-33.351,12.564-51.322,14.942c-14.861,1.967-29.657,4.158-44.644,3.297c-33.239-1.909-65.548-8.344-96.689-20.417
	c-24.627-9.548-48.142-21.353-69.633-36.59c-18.293-12.969-35.539-27.445-50.631-44.206c-4.562-5.067-7.487-11.129-9.969-17.513
	c-6.478-16.665-13.994-32.958-19.793-49.847c-5.591-16.284-10.664-32.914-13.904-49.788c-3.033-15.798-5.55-32.006-4.142-48.244
	c1.282-14.786,3.593-29.483,6.986-44.214c1.383,9.033,2.585,18.099,4.183,27.094c4.426,24.913,9.682,49.644,20.25,72.818
	c5.117,11.222,10.298,22.533,16.732,33.017c23.906,38.954,56.717,67.97,98.754,86.323c3.665,1.6,7.132,3.649,10.772,5.311
	c2.765,1.263,5.66,2.242,9.587,3.773c-0.964-2.712-1.493-4.663-2.33-6.472c-3.243-7.006-6.883-13.842-9.836-20.966
	c-10.066-24.279,3.829-51.52,27.465-59.247c15.73-5.142,31.208-7.18,47.364-3.499c0.899,0.205,1.876,0.036,2.807,0.136
	c0.897,0.097,1.781,0.319,4.025,0.739c-6.159,1.161-11.094,1.766-15.828,3.091c-3.506,0.981-7.168,2.349-10.015,4.521
	c-4.709,3.593-6.669,8.29-5.176,14.763c2.38,10.314,9.702,17.116,15.849,24.79c13.558,16.926,32.139,25.29,52.787,28.779
	c17.471,2.952,34.936,2.338,52.741-0.892c17.921-3.251,35.098-7.812,51.334-15.702c18.201-8.845,34.909-19.895,50.365-33.226
	C460.218,266.095,477.371,242.861,493.045,218.298z M40.145,252.178c-3.868,5.583-2.505,9.051-1.462,12.691
	c5.591,19.516,16.527,35.806,29.993,50.659c13.693,15.103,30.083,26.903,46.69,38.437c4.107,2.853,8.526,5.258,12.801,7.869
	C92.702,330.448,61.894,295.722,40.145,252.178z M268.057,123.494c2.041,24.768-20.097,42.397-40.185,45.338
	c-12.014,1.759-22.662,0.469-33.215-4.245c-13.987-6.248-21.87-17.107-24.408-32.427c-2.301-13.89,0.212-26.103,8.387-37.613
	c6.694-9.426,16.072-14.591,26.534-17.568c10.209-2.906,21.075-2.43,31.219,0.25c18.782,4.963,30.854,19.747,31.657,40.648
	C268.12,119.747,268.057,121.622,268.057,123.494z M181.662,123.435c0,1.249-0.102,2.508,0.015,3.746
	c2.325,24.704,12.982,35.493,33.635,39.038c15.039,2.581,27.39-4.559,34.621-17.06c10.467-18.096,11.021-45.722-7.032-61.549
	c-12.301-10.784-34.258-12.526-46.583-0.932C185.672,96.692,182.029,109.382,181.662,123.435z M406.195,164.099
	c-6.987,11.955-13.9,23.783-21.163,36.21c-3.047-1.432-6.273-2.949-9.639-4.532c14.955-25.691,29.808-51.208,45.191-77.635
	c11.297,8.83,24.601,12.169,34.319,21.835c6.495,6.46,8.327,13.363,5.291,21.853c-3.353,9.375-10.542,13.506-19.876,13.913
	c-5.122,0.223-10.302-0.909-16.275-1.513c-0.697,17.572,4.91,34.263,5.628,52.086c-3.09-1.391-5.683-2.222-7.874-3.664
	c-1.408-0.927-2.932-2.638-3.188-4.197c-1.549-9.436-2.803-18.921-4.042-28.405c-0.8-6.122-1.332-12.28-2.138-18.401
	C412.109,169.217,410.872,167.915,406.195,164.099z M428.269,126.007c-6.983,12.001-13.269,22.804-19.495,33.504
	c6.385,6.458,14.688,10.412,22.173,10.73c8.216,0.349,16.382-4.66,19.258-11.812c3.377-8.4,2.27-13.999-5.293-20.607
	C440.1,133.617,434.469,130.35,428.269,126.007z M280.238,167.348c21.467-26.761,42.058-52.431,63.953-79.726
	c5.597,34.381,10.85,66.643,16.198,99.495c-4.525-1.05-7.747-1.798-11.846-2.749c-1.14-7.972-2.344-16.162-3.456-24.365
	c-0.208-1.536,0.078-3.134-0.077-4.682c-0.82-8.194-2.142-9.486-10.336-11.448c-5.357-1.283-10.631-2.911-15.933-4.416
	c-7.479-2.123-7.64-2.07-12.058,4.211c-4.599,6.54-9.218,13.065-13.824,19.601C289.153,168.53,289.157,168.533,280.238,167.348z
	 M313.935,133.826c10.679,1.676,19.146,6.574,29.46,5.995c-3.14-11.932-2.686-23.691-6.425-35.783
	C329.098,114.219,321.992,123.407,313.935,133.826z M95.635,102.032c-6.985,5.192-11.072,12.438-9.439,20.938
	c1.636,8.518,4.971,17.125,15.17,19.168c8.114,1.625,16.354,3.17,24.588,3.493c7.498,0.294,16.368,9.204,16.452,16.181
	c0.084,6.91-0.666,13.428-6.905,17.219c-6.716,4.081-14.132,6.464-21.906,2.349c-2.745-1.453-5.292-3.279-8.154-5.076
	c0.391,2.766,0.382,5.53,1.262,7.974c0.636,1.766,2.448,4.41,3.747,4.417c6.434,0.035,13.354,0.677,19.21-1.404
	c12.295-4.369,19.502-13.498,20.689-27.114c0.992-11.382-4.779-24.192-21.896-25.629c-6.167-0.517-12.321-1.194-18.477-1.845
	c-12.221-1.292-16.195-8.471-14.756-19.039c0.963-7.077,6.391-12.135,13.619-12.946c6.07-0.681,11.442,0.518,16.198,5.679
	c0-4.105,0-7.17,0-10.692C113.477,92.453,104.153,95.7,95.635,102.032z"/>
</svg>
