<?xml version="1.0" encoding="iso-8859-1"?>
<!-- Generator: Adobe Illustrator 19.0.0, SVG Export Plug-In . SVG Version: 6.00 Build 0)  -->
<svg version="1.1" id="Layer_1" xmlns="http://www.w3.org/2000/svg" xmlns:xlink="http://www.w3.org/1999/xlink" x="0px" y="0px"
	 viewBox="0 0 500 500" style="enable-background:new 0 0 500 500;" xml:space="preserve">
<path d="M488.445,249.482c-0.069,131.873-108.303,240.357-241.771,238.804C116.942,486.776,8.314,382.151,9.781,245.797
	C11.167,116.998,115.903,7.528,254.319,10.042C383.221,12.384,488.18,116.961,488.445,249.482z M182.249,53.246
	C106.945,75.076,35.95,157.702,41.356,259.634c2.726,51.403,22.215,96.271,57.665,133.452c22.853,23.969,49.83,42.398,82.537,52.246
	c4.1-10.856-0.614-21.685,3.116-31.524c15.382,3.772,30.128,7.388,45.73,11.214c0,9.937,0,19.612,0,30.631
	c12.58,2.032,24.294,1.406,36.07,0.703c3.755-11.12-2.383-22.525,3.192-31.877c15.14-3.628,29.504-7.069,44.214-10.594
	c2.845,10.528-1.521,21.33,2.65,31.193c74.892-22.794,144.636-103.356,140.39-205.688c-3.862-93.083-74.274-168.783-141.296-185.887
	c-2.484,10.548,1.017,21.602-1.781,31.588c-15.318-3.917-30.049-7.684-45.631-11.669c-1.474-9.436-0.33-19.105-0.331-28.078
	c-2.792-4.437-6.662-4.409-10.438-4.152c-8.747,0.595-17.9-2.352-27.156,2.82c0,9.706,0,19.37,0,29.568
	c-15.799,3.99-30.788,7.774-46.356,11.706C181.693,74.831,184.915,63.826,182.249,53.246z M348.65,162.884
	c-15.4-30.936-40.038-49.791-73.994-56.353c-20.925-4.044-41.91-3.64-62.722,0.405c-14.427,2.804-28.284,7.853-40.467,16.221
	c-11.857,8.143-21.374,18.433-27.294,32.027c-6.983,16.034-8.813,32.534-5.772,49.454c3.331,18.533,11.15,34.692,25.97,47.336
	c11.469,9.785,24.369,16.279,38.707,19.753c20.006,4.848,40.282,8.571,60.32,13.296c14.415,3.399,27.1,9.41,30.388,26.036
	c-2.589,15.41-11.418,25.431-26.279,29.165c-13.565,3.409-27.506,3.699-41.038-0.511c-13.53-4.21-24.314-11.739-28.102-26.527
	c-0.24-0.939-1.444-1.631-2.579-2.844c-20.363,3.412-40.9,6.852-62.038,10.393c0,2.789-0.531,5.107,0.084,7.065
	c4.954,15.773,13.777,29.425,26.14,40.048c18.764,16.123,41.33,23.539,65.857,26.05c14.68,1.503,29.157,1.452,43.807-0.096
	c20.003-2.113,39.304-6.578,56.966-16.285c35.755-19.652,47.76-55.765,36.231-94.517c-7.005-23.546-24.789-37.758-46.372-47.529
	c-16.176-7.323-33.505-10.584-50.873-13.791c-12.486-2.306-24.963-5.072-37.073-8.831c-6.935-2.152-14.022-5.314-18.347-12.112
	c-7.884-12.394-2.557-28.118,8.766-35.279c13.719-8.676,28.524-9.091,43.461-5.57c13.907,3.278,24.304,11.412,28.496,25.919
	c0.396,1.371,1.466,2.547,2.877,4.907c20.148-4.186,40.863-6.036,62.501-11.744C353.111,172.288,350.968,167.542,348.65,162.884z"/>
</svg>
