<?xml version="1.0" encoding="iso-8859-1"?>
<!-- Generator: Adobe Illustrator 19.0.0, SVG Export Plug-In . SVG Version: 6.00 Build 0)  -->
<svg version="1.1" id="Layer_1" xmlns="http://www.w3.org/2000/svg" xmlns:xlink="http://www.w3.org/1999/xlink" x="0px" y="0px"
	 viewBox="0 0 2000 2000" style="enable-background:new 0 0 2000 2000;" xml:space="preserve">
<path d="M601.627,1573.678c10.543-54.354,20.645-103.54,29.553-152.94c20.979-116.332,27.199-232.596-0.382-349.081
	c-35.514-149.99-134.842-255.045-245.222-352.835c-40.18-35.597-83.069-69.116-118.086-109.358
	c-72.672-83.516-70.614-178.134,3.187-259.938C422.449,181.296,609.88,75.76,833.537,36.714
	c202.336-35.323,396.426-7.707,583.346,77.141c30.729,13.949,42.032,34.411,43.765,65.297
	c5.424,96.663-31.742,178.68-97.079,244.661c-78.423,79.196-162.391,153.213-247.128,225.771
	c-130.132,111.429-232.794,242.34-286.969,405.626c-23.888,72.001-33.66,148.742-49.007,223.502
	c-13.601,66.259-29.14,131.743-63.961,190.796C690.165,1514.179,652.973,1547.092,601.627,1573.678z M546.281,1841.55
	c38.006-102.594,97.562-189.073,191.127-248.458c169.858-107.808,355.309-114.61,544.65-74.902
	c91.454,19.18,179.863,52.489,270.387,76.636c53.538,14.281,108.839,20.807,163.596,4.85
	c77.333-22.537,121.344-81.744,155.283-148.991c99.672-197.491,131.292-405.828,92.839-623.91
	c-41.268-234.047-158.032-424.919-336.187-579.741c-20.717-18.004-43.676-33.427-68.995-52.623
	c6.793,41.1,14.783,75.966,17.991,111.267c11.586,127.509-3.745,252.712-36.472,376.039
	c-59.721,225.05-191.659,401.276-372.841,542.089c-118.673,92.232-240.847,179.981-361.998,268.997
	c-91.872,67.503-185.37,133.187-255.486,225.022c-26.319,34.471-49.126,71.625-75.153,109.939
	c23.899,13.814,42.535,24.585,63.059,36.448C541.437,1854.929,543.809,1848.221,546.281,1841.55z M414.805,1782.713
	c92.477-31.506,117.669-103.842,64.851-185.921c-13.645-21.205-26.921-42.647-40.421-63.946
	C240.617,1219.475,146.837,878.944,173.421,507.2c0.494-6.91,0.062-13.886,0.062-23.226
	C-83.631,866.308-19.091,1469.059,414.805,1782.713z M1708.829,1653.098c-135.572,75.379-283.19,107.701-436.107,109.342
	c-157.011,1.684-314.116-7.193-471.206-9.956c-41.285-0.726-83.279,0.402-123.869,7.156
	c-68.479,11.395-103.481,64.001-90.267,127.707c362.22,179.47,865.727,102.684,1158.179-257.189
	C1733.333,1637.834,1721.429,1646.092,1708.829,1653.098z"/>
</svg>
