<?xml version="1.0" encoding="utf-8"?>
<!-- Generator: Adobe Illustrator 25.1.0, SVG Export Plug-In . SVG Version: 6.00 Build 0)  -->
<svg version="1.1" id="sol" xmlns="http://www.w3.org/2000/svg" xmlns:xlink="http://www.w3.org/1999/xlink" x="0px" y="0px"
	 viewBox="0 0 500 500" style="enable-background:new 0 0 500 500;" xml:space="preserve">
<path d="M250,0C111.9,0,0,112,0,250s112,250,250,250s250-111.9,250-250S388,0,250,0z M107.9,177.3l36.6-36.8
	c2.1-2.1,4.8-3.2,7.6-3.2h231.3c9.6,0,14.5,11.6,7.6,18.4l-36.5,36.8c-2,2.1-4.8,3.2-7.6,3.2H115.6
	C106,195.7,101.2,184.1,107.9,177.3z M391.1,333.5l-36.6,36.9c-2,2-4.8,3.2-7.6,3.2H115.6c-9.6,0-14.4-11.6-7.7-18.4l36.6-36.9
	c2.1-2,4.8-3.2,7.6-3.2h231.3C393.1,315,398,326.6,391.1,333.5z M383.6,284.5H152.2c-2.9,0-5.6-1.1-7.6-3.2L108,244.5
	c-6.8-6.7-2-18.4,7.6-18.4H347c2.9,0,5.6,1.1,7.6,3.2l36.6,36.8C398,272.9,393.2,284.5,383.6,284.5z"/>
</svg>
