<?xml version="1.0" encoding="iso-8859-1"?>
<!-- Generator: Adobe Illustrator 19.0.0, SVG Export Plug-In . SVG Version: 6.00 Build 0)  -->
<svg version="1.1" id="Layer_1" xmlns="http://www.w3.org/2000/svg" xmlns:xlink="http://www.w3.org/1999/xlink" x="0px" y="0px"
	 viewBox="6 -5.5 512 512" style="enable-background:new 6 -5.5 512 512;" xml:space="preserve">
<g>
	<path style="fill:none;" d="M78.98,79.89c-8.11,0.2-16.23,0.03-24.34,0.28c5.59,18.36,20.89,31.01,34.06,44
		c48.36,48.34,163.56,162.66,173.3,170.92c47.84-45.18,165.95-165.17,179.54-177.54c10.13-9.72,19.79-20.28,26.23-32.87
		c0.75-1.3,1.08-2.75,1.2-4.24C437.66,79.69,139.98,78.76,78.98,79.89z M216.26,146.24c-4.13,6.79-12.28,10.7-20.14,10.27
		c-11-0.59-20.61-11.24-19.46-22.33c0.42-9.02,6.94-17.38,15.69-19.8c11.58-3.85,24.23,5.32,26.79,16.67
		C220.59,136.24,218.91,141.73,216.26,146.24z M351.28,148.32c-5.47,7.31-15.85,10-24.34,6.94c-5.36-1.9-9.43-6.4-12.08-11.29
		c-5.61-11.49,2.03-26.63,14.29-29.68c13.2-4.24,27.48,8.36,26.93,21.71C356.33,140.59,353.79,144.69,351.28,148.32z"/>
	<path style="fill:none;" d="M466.95,341.02c-0.33-64.7,0.52-129.41-0.46-194.11c-2.13,0.95-3.7,2.71-5.34,4.31
		c-48.96,45.97-95.03,94.89-142.99,141.87c-10.54,9.85-19.7,21.1-30.51,30.66c-7.5,6.38-16.17,11.88-25.92,13.9
		c-13.24-3.41-23.94-12.53-33.23-22.15c-7.04-7.49-14.06-15.02-21.64-21.97c-50.37-50.09-99.56-101.38-151.1-150.28
		c-2.1-2.01-4.06-4.23-6.58-5.75c-0.71,42.15-0.94,84.32-0.64,126.47c0.17,36.34,0.22,72.68-0.43,109.02
		c-0.64,13.77,3.2,27.22,7.67,40.1c10.61-0.24,21.27-0.02,31.8-1.52c3.83-0.72,7.98-1.24,11.1-3.8
		c11.15-8.49,17.12-21.6,26.19-31.97c3.72-4.25,7.58-8.38,11.42-12.5c1.27-1.31,2.45-2.82,4.19-3.51
		c2.76,16.68,6.22,34.71,18.52,47.24c7.1,6.46,17.32,4.65,26.07,5.82c14.7-0.15,29.68,1.23,44.07-2.5c4.9-1.17,8.74-4.63,12.49-7.76
		c11.43-10.34,18.84-24.09,28.52-35.9c2.09-2.67,3.81-5.69,6.41-7.91c1.56,9.16,3.32,18.35,6.46,27.13
		c3.75,10.92,10.71,21.27,21.18,26.7c13.9,0.24,27.86,0.99,41.72-0.49c5.74-0.63,11.9-0.88,16.77-4.37
		c15.66-9.88,23.87-27.16,35.4-41.01c2.04-2.76,4.02-5.57,6.35-8.11c2.52,21.24,10.61,43.39,28.34,56.55
		c8.35-2.26,17.18-3.35,24.93-7.4c6.94-4.35,8.74-13.16,9.12-20.76C467.26,371.69,466.87,356.35,466.95,341.02z"/>
	<path d="M329.15,114.29c-12.26,3.05-19.9,18.19-14.29,29.68c2.65,4.89,6.72,9.39,12.08,11.29c8.49,3.06,18.87,0.37,24.34-6.94
		c2.51-3.63,5.05-7.73,4.8-12.32C356.63,122.65,342.35,110.05,329.15,114.29z"/>
	<path d="M192.35,114.38c-8.75,2.42-15.27,10.78-15.69,19.8c-1.15,11.09,8.46,21.74,19.46,22.33c7.86,0.43,16.01-3.48,20.14-10.27
		c2.65-4.51,4.33-10,2.88-15.19C216.58,119.7,203.93,110.53,192.35,114.38z"/>
	<path d="M509.16,45.82c-82.37-0.42-411.97-0.4-494.4-0.04c-0.35,117.41-0.09,234.83-0.12,352.23c-0.38,8.3-1.08,16.83,1.25,24.92
		c1.17,5.42,5.91,8.83,9.04,13.1c8.17,9.76,18.75,19.88,32.41,19.48c0.868-0.052,29.21,0.68,43.63-1.32c2.4-0.11,4.2-1.89,6.17-3.04
		c8.88-5.97,17.06-14.61,18.62-25.6c0.71-3.27-0.29-6.55,0-9.83c0.05,0.77,0.14,2.29,0.19,3.05c10.31,6.39,15.27,17.91,21.45,27.81
		c2.93,5.14,8.84,7.65,14.48,8.36c7.76,0.8,55.94,0.36,72.16,0.03c7.12-0.61,12.84-5.47,17.57-10.43c2.54-2.86,5.62-5.41,7.12-9.02
		c1.98-4.33,2.66-9.3,5.73-13.07c1.57-2.03,4.1-2.82,6.38-3.77c3.24,10.79,7.02,22.15,15.26,30.25c4.76,4.81,11.62,7.12,18.33,6.66
		c1.318-0.06,33.86-0.3,50.63-0.53c3.46-0.13,7.02,0.32,10.39-0.73c5.89-1.62,10.47-5.96,14.59-10.24c2.26-2.55,4.97-4.83,6.41-7.99
		c2.19-4.47,2.8-9.73,6.03-13.67c1.57-2.01,4.08-2.82,6.35-3.74c3.26,10.78,7.02,22.12,15.26,30.21c4.74,4.78,11.53,7.18,18.22,6.75
		c7.2,0.049,23.22-0.32,33.79-4.46c16.63-6.55,30.67-18.77,40.67-33.46c2.38-3.02,2.32-7.08,2.54-10.73
		C509.53,394.01,509.56,153.22,509.16,45.82z M466.83,387.02c-0.38,7.6-2.18,16.41-9.12,20.76c-7.75,4.05-16.58,5.14-24.93,7.4
		c-17.73-13.16-25.82-35.31-28.34-56.55c-2.33,2.54-4.31,5.35-6.35,8.11c-11.53,13.85-19.74,31.13-35.4,41.01
		c-4.87,3.49-11.03,3.74-16.77,4.37c-13.86,1.48-27.82,0.73-41.72,0.49c-10.47-5.43-17.43-15.78-21.18-26.7
		c-3.14-8.78-4.9-17.97-6.46-27.13c-2.6,2.22-4.32,5.24-6.41,7.91c-9.68,11.81-17.09,25.56-28.52,35.9
		c-3.75,3.13-7.59,6.59-12.49,7.76c-14.39,3.73-29.37,2.35-44.07,2.5c-8.75-1.17-18.97,0.64-26.07-5.82
		c-12.3-12.53-15.76-30.56-18.52-47.24c-1.74,0.69-2.92,2.2-4.19,3.51c-3.84,4.12-7.7,8.25-11.42,12.5
		c-9.07,10.37-15.04,23.48-26.19,31.97c-3.12,2.56-7.27,3.08-11.1,3.8c-10.53,1.5-21.19,1.28-31.8,1.52
		c-4.47-12.88-8.31-26.33-7.67-40.1c0.65-36.34,0.36-193.34,1.07-235.49c2.52,1.52,172.28,170.51,179.32,178
		c9.29,9.62,19.99,18.74,33.23,22.15c9.75-2.02,18.42-7.52,25.92-13.9c10.81-9.56,124.54-126.56,173.5-172.53
		c1.64-1.6,3.21-3.36,5.34-4.31C467.47,211.61,467.26,371.69,466.83,387.02z M467.77,84.68c-6.44,12.59-16.1,23.15-26.23,32.87
		C427.95,129.92,309.84,249.91,262,295.09c-0.195-0.165-154.611-152.239-173.3-170.92c-13.17-12.99-28.47-25.64-34.06-44
		c8.11-0.25,16.23-0.08,24.34-0.28c13.078-0.242,380.966,0.334,389.99,0.55C468.85,81.93,468.52,83.38,467.77,84.68z"/>
</g>
</svg>
