<?xml version="1.0" encoding="iso-8859-1"?>
<!-- Generator: Adobe Illustrator 19.0.0, SVG Export Plug-In . SVG Version: 6.00 Build 0)  -->
<svg version="1.1" id="Layer_1" xmlns="http://www.w3.org/2000/svg" xmlns:xlink="http://www.w3.org/1999/xlink" x="0px" y="0px"
	 viewBox="0 0 500 500" enable-background="new 0 0 500 500" xml:space="preserve">
<path d="M19.517,323.194c5.434-17.903,10.78-35.517,16.237-53.495c-9.11-6.163-18.27-12.361-27.762-18.783
	c10.546-15.777,21.125-31.603,31.187-46.656c-7.074-8.565-13.838-16.753-21.367-25.869c15.38-12.454,30.301-24.537,43.664-35.358
	c-4.54-10.877-8.751-20.967-13.253-31.754c18.11-6.968,35.973-13.841,52.03-20.019c-1.08-11.909-2.073-22.861-3.116-34.361
	c19.268-1.273,37.365-2.468,54.977-3.631c2.576-11.37,5.045-22.269,7.581-33.462c18.344,4.246,36.088,8.353,53.752,12.442
	C218.955,22.623,224.322,13.25,230.19,3c16.154,9.256,32.009,18.342,48.052,27.534c8.156-7.663,16.098-15.125,24.255-22.79
	c12.664,13.614,24.925,26.795,37.78,40.615c9.706-4.571,19.486-9.176,29.991-14.124c8.25,16.816,16.282,33.187,24.545,50.029
	c10.547-1.576,21.035-3.142,32.432-4.845c3.012,18.922,5.907,37.117,8.75,54.976c11.411,1.829,22.351,3.582,33.487,5.366
	c-3.036,19.006-6.025,37.713-8.86,55.459c10.023,4.598,19.969,9.16,30.777,14.117c-8.221,17.15-16.38,34.17-24.287,50.664
	c8.503,7.808,16.722,15.354,25.145,23.089c-12.868,13.754-25.382,27.13-37.982,40.597c5.707,9.802,11.367,19.522,17.257,29.635
	c-16.434,9.494-32.438,18.739-48.077,27.774c2.529,10.939,5.017,21.698,7.67,33.171c-18.575,4.333-36.287,8.465-53.847,12.561
	c-0.734,11.118-1.442,21.826-2.207,33.41c-18.371-1.152-36.628-2.296-55.058-3.452c-3.892,10.093-7.78,20.177-11.972,31.047
	c-17.616-6.712-34.872-13.287-51.695-19.697c-7.005,8.795-13.918,17.476-21.088,26.477c-14.785-11.952-29.127-23.546-42.99-34.753
	c-9.363,6.295-18.455,12.408-27.896,18.756c-10.305-15.236-20.578-30.424-31.168-46.081c-10.086,3.147-20.745,6.472-31.841,9.934
	c-5.617-18.185-11.105-35.952-16.692-54.037c-11.13,0-21.86,0-33.107,0c0-18.691,0-36.913,0-55.221
	C40.882,329.872,30.654,326.675,19.517,323.194z M330.687,404.612c17.101-4.086,34.288-8.192,52.072-12.441
	c-3.606-6.534-6.899-12.501-10.375-18.8c15.586-9.071,30.745-17.895,47.071-27.396c-5.709-5.326-10.897-10.166-16.095-15.014
	c12.321-13.213,24.239-25.993,36.769-39.429c-6.673-3.376-12.77-6.46-19.52-9.874c7.817-16.25,15.543-32.311,23.416-48.678
	c-7.917-1.358-14.4-2.471-21.341-3.661c2.841-18.391,5.517-35.712,8.279-53.593c-7.391,1.106-13.706,2.051-20.599,3.083
	c-2.867-17.941-5.626-35.199-8.51-53.245c-6.667,3.097-12.439,5.779-18.663,8.67c-8.01-16.402-15.729-32.208-23.637-48.4
	c-5.32,4.938-10.185,9.454-15.22,14.127c-12.314-13.125-24.24-25.835-36.648-39.061c-3.886,6.525-7.269,12.206-10.662,17.904
	c-15.531-8.964-30.508-17.608-46.221-26.677c-1.855,7.723-3.4,14.156-4.963,20.66c-17.507-3.99-34.456-7.854-52.243-11.908
	c0.595,8.12,1.079,14.737,1.588,21.684c-18.274,1.258-35.625,2.453-53.392,3.676c2.609,6.989,5.081,13.611,7.734,20.717
	c-16.912,6.511-33.24,12.797-50.102,19.288c4.864,6.284,9.027,11.664,13.107,16.934c-14.395,11.722-27.882,22.704-41.91,34.127
	c6.151,4.268,11.784,8.176,17.592,12.205c-10.135,15.07-20.029,29.781-30.278,45.021c7.282,2.417,13.645,4.529,20.134,6.683
	c-5.144,17.271-10.182,34.188-15.485,51.993c7.543,0,13.999,0,21.017,0c0,18.402,0,36.163,0,54.305
	c7.205-2.061,13.772-3.94,20.615-5.898c5.346,17.447,10.458,34.132,15.667,51.134c6.264-4.085,11.839-7.721,17.733-11.564
	c9.983,14.865,19.635,29.237,29.774,44.335c4.791-5.831,8.892-10.822,13.471-16.396c13.825,11.083,27.527,22.068,41.724,33.449
	c2.696-6.919,5.009-12.858,7.487-19.217c16.647,6.33,32.936,12.524,50.249,19.107c0.458-7.544,0.833-13.715,1.255-20.668
	c18.017,1.138,35.351,2.233,53.465,3.378C333.484,417.82,332.157,411.554,330.687,404.612z M143.614,324.241
	c26.89,19.25,56.229,22.177,87.051,12.11c38.543-12.589,46.675-54.924,33.108-80.055c-7.87-14.579-22.308-20.448-37.065-25.499
	c-10.476-3.585-21.021-7.02-31.295-11.122c-7.431-2.967-11.183-8.796-10.302-17.184c0.824-7.849,6.02-11.779,12.673-14.182
	c16.297-5.885,30.963-2.749,44.224,8.945c8.982-9.941,17.833-19.737,27.172-30.073c-3.038-2.4-5.348-4.76-8.109-6.322
	c-27.076-15.322-55.236-16.93-83.893-5.323c-16.043,6.498-27.178,18.251-31.859,35.27c-5.531,20.109-3.946,38.991,13.954,52.352
	c8.354,6.236,18.648,10.047,28.38,14.214c9.777,4.186,20.134,7.023,29.893,11.246c7.886,3.413,12.477,9.6,11.278,18.909
	c-0.891,6.917-6.809,12.903-15.58,15.053c-18.978,4.652-34.875-0.735-47.942-15.275c-9.384,10.233-18.666,20.355-28.672,31.267
	C139.309,320.758,141.367,322.632,143.614,324.241z M279.383,299.168c11.811,0.813,22.677,1.561,33.694,2.319
	c13.813-50.47,27.398-100.111,41.074-150.082c-16.361-2.344-32.163-4.608-49.206-7.05
	C296.357,196.367,287.908,247.54,279.383,299.168z M318.25,317.374c-15.732-3.818-30.387-7.375-45.135-10.955
	c-3.61,17.444-6.977,33.714-10.484,50.662c14.748,4.258,29.527,8.526,44.991,12.991C311.193,352.366,314.694,335.01,318.25,317.374z
	"/>
</svg>
