<?xml version="1.0" encoding="iso-8859-1"?>
<!-- Generator: Adobe Illustrator 19.0.0, SVG Export Plug-In . SVG Version: 6.00 Build 0)  -->
<svg version="1.1" id="Layer_1" xmlns="http://www.w3.org/2000/svg" xmlns:xlink="http://www.w3.org/1999/xlink" x="0px" y="0px"
	 viewBox="0 0 500 500" enable-background="new 0 0 500 500" xml:space="preserve">
<path d="M206.63,353.627c0.002,9.75-7.754,17.471-17.55,17.471c-9.584-0.001-17.497-7.889-17.481-17.426
	c0.016-9.567,7.884-17.468,17.442-17.516C198.765,336.107,206.628,343.918,206.63,353.627z M189.204,233.524
	c-9.632-0.008-17.618,7.786-17.592,17.269c0.027,9.857,7.63,17.548,17.405,17.657c9.79,0.109,17.603-7.738,17.614-17.377
	C206.641,241.331,198.897,233.533,189.204,233.524z M308.816,268.449c9.845-0.188,17.239-7.832,17.31-17.554
	c0.069-9.579-7.929-17.394-17.662-17.368c-9.599,0.026-17.371,7.842-17.357,17.456C291.121,260.733,298.987,268.637,308.816,268.449
	z M338.623,319.097c9.866,0.112,17.868-7.676,17.797-17.401c-0.071-9.726-7.564-17.53-17.535-17.498
	c-11.05,0.036-17.629,9.091-17.472,17.32C321.154,310.593,328.597,318.983,338.623,319.097z M310.098,336.196
	c-9.991-0.008-17.531,7.8-17.465,17.54c0.071,10.488,8.549,17.362,17.463,17.367c9.754,0.005,17.529-7.759,17.527-17.461
	C327.826,345.221,321.149,336.206,310.098,336.196z M267.577,353.646c-0.004-9.599-7.976-17.587-17.661-17.471
	c-10.395,0.124-17.447,8.56-17.411,17.471c0.039,9.585,7.75,17.41,17.422,17.45C259.628,371.137,267.582,363.273,267.577,353.646z
	 M250.806,233.566c-9.773-0.813-18.57,6.346-19.083,16.632c-0.436,8.751,5.96,17.576,16.629,18.214
	c10.069,0.602,18.042-7.435,18.323-16.479C267.534,242.974,260.112,234.341,250.806,233.566z M249.932,165.5
	c9.616,0.025,17.503-7.725,17.613-17.307c0.108-9.383-7.743-17.356-16.917-17.615c-9.62-0.271-18.129,7.45-18.094,17.298
	C232.487,157.638,240.224,165.475,249.932,165.5z M171.607,148.243c0.004,9.328,8.09,17.316,17.481,17.267
	c9.799-0.051,17.537-7.775,17.537-17.506c0-9.637-7.755-17.377-17.409-17.377C179.384,130.627,171.603,138.412,171.607,148.243z
	 M308.519,165.476c9.701,0.011,17.385-7.498,17.581-17.094c0.201-9.871-7.671-17.753-17.426-17.756
	c-9.809-0.003-17.558,7.682-17.56,17.414C291.113,157.678,298.815,165.465,308.519,165.476z M142.715,200.352
	c0.009,9.591,7.854,17.378,17.484,17.356c9.662-0.022,17.525-7.681,17.543-17.087c0.02-9.949-7.632-17.72-17.45-17.722
	C150.521,182.897,142.706,190.657,142.715,200.352z M160.141,290.37c-6.269-0.032-11.351,5.255-11.259,11.438
	c0.091,6.12,5.25,11.18,11.374,11.155c6.222-0.026,11.4-5.215,11.348-11.372C171.366,295.333,166.799,290.404,160.141,290.37z
	 M289.663,301.721c0.046-6.162-5.144-11.375-11.346-11.395c-6.166-0.02-11.437,5.242-11.374,11.355
	c0.065,6.22,5.213,11.303,11.436,11.291C284.486,312.96,289.617,307.845,289.663,301.721z M148.919,97.187
	c0.032,5.781,4.268,10.957,11.039,11.292c6.138,0.304,11.573-4.865,11.61-11.082c0.035-5.945-4.269-11.185-11.214-11.496
	C154.217,85.771,148.885,90.93,148.919,97.187z M219.87,393.085c-6.273,0.036-11.175,4.911-11.233,11.169
	c-0.059,6.358,5.004,11.354,11.455,11.306c6.243-0.046,11.14-5.004,11.117-11.255C231.185,397.972,226.21,393.049,219.87,393.085z
	 M208.646,200.381c0.033,6.249,4.986,11.153,11.268,11.156c6.391,0.003,11.277-4.89,11.285-11.301
	c0.008-6.231-4.961-11.161-11.242-11.154C213.558,189.089,208.612,194.03,208.646,200.381z M171.589,404.445
	c0.017-6.306-4.977-11.342-11.264-11.356c-6.313-0.014-11.458,5.024-11.437,11.199c0.022,6.278,5.059,11.267,11.375,11.266
	C166.489,415.554,171.572,410.567,171.589,404.445z M338.302,189.089c-6.264,0.028-11.134,4.963-11.116,11.264
	c0.018,6.349,4.975,11.212,11.395,11.18c6.26-0.031,11.13-4.969,11.119-11.272C349.688,193.898,344.752,189.06,338.302,189.089z
	 M338.629,393.084c-6.468-0.065-11.443,4.83-11.464,11.282c-0.021,6.219,4.912,11.156,11.178,11.188
	c6.377,0.033,11.346-4.847,11.382-11.178C349.761,398.142,344.852,393.146,338.629,393.084z M220.017,290.337
	c-6.186-0.087-11.389,5.066-11.399,11.29c-0.011,6.243,5.081,11.333,11.342,11.337c6.178,0.004,11.252-5.041,11.255-11.191
	C231.219,295.413,226.335,290.425,220.017,290.337z M399.678,290.369c-6.116-0.058-11.378,5.106-11.386,11.173
	c-0.008,6.239,5.124,11.413,11.332,11.422c6.234,0.01,11.336-5.097,11.363-11.372C411.014,295.5,405.903,290.428,399.678,290.369z
	 M266.951,404.459c0.023,6.124,5.111,11.101,11.352,11.104c6.297,0.003,11.351-5.02,11.351-11.282
	c0-6.215-5.111-11.221-11.432-11.196C271.942,393.109,266.927,398.169,266.951,404.459z M278.353,85.943
	c-6.663-0.03-11.356,5.044-11.352,11.306c0.004,5.921,4.499,11.208,11.439,11.222c6.198,0.012,11.268-5.225,11.21-11.312
	C289.367,90.714,284.8,85.971,278.353,85.943z M368.858,239.7c-6.421-0.124-11.486,5.007-11.426,11.399
	c0.058,6.222,5.137,11.242,11.309,11.176c6.273-0.067,11.232-5.033,11.22-11.234C380.249,245.643,375.792,239.835,368.858,239.7z
	 M129.381,342.359c-6.27,0.048-11.365,4.987-11.425,11.074c-0.061,6.271,5.017,11.51,11.162,11.515
	c6.45,0.005,11.441-4.943,11.447-11.35C140.572,347.397,135.511,342.312,129.381,342.359z M129.381,239.677
	c-6.26-0.037-11.346,5.002-11.385,11.278c-0.038,6.22,5.111,11.383,11.313,11.343c6.228-0.04,11.244-5.03,11.249-11.189
	C140.563,244.755,135.634,239.714,129.381,239.677z M68.365,239.685c-6.284-0.031-11.34,4.982-11.395,11.3
	c-0.053,6.043,4.994,11.203,11.045,11.294c6.41,0.096,11.519-4.916,11.519-11.299C79.533,244.731,74.574,239.716,68.365,239.685z
	 M388.296,200.226c-0.006,6.208,4.992,11.258,11.184,11.301c6.354,0.043,11.494-4.934,11.502-11.139
	c0.008-6.284-4.984-11.257-11.345-11.302C393.473,189.043,388.302,194.122,388.296,200.226z M266.955,200.236
	c-0.001,6.289,5.052,11.315,11.371,11.308c6.237-0.007,11.302-4.996,11.332-11.164c0.031-6.256-5.047-11.302-11.373-11.303
	C272.058,189.076,266.956,194.101,266.955,200.236z M129.434,136.616c-6.325-0.062-11.399,4.921-11.426,11.22
	c-0.026,6.267,5.03,11.314,11.337,11.314c6.273,0,11.224-5.04,11.211-11.41C140.542,141.623,135.597,136.677,129.434,136.616z
	 M100.277,189.093c-6.451-0.034-11.399,4.79-11.425,11.141c-0.027,6.365,4.902,11.31,11.275,11.311
	c6.272,0.002,11.239-4.922,11.261-11.162C111.41,194.092,106.523,189.126,100.277,189.093z M220.031,85.902
	c-6.217-0.17-11.424,5.103-11.374,11.295c0.051,6.3,5.189,11.409,11.379,11.317c6.23-0.093,11.156-5.095,11.153-11.325
	C231.386,91.695,226.994,86.092,220.031,85.902z M100.108,290.347c-6.283,0.01-11.279,5.048-11.263,11.358
	c0.015,6.197,5.013,11.229,11.186,11.262c6.264,0.033,11.333-5.005,11.347-11.279C111.392,295.381,106.38,290.337,100.108,290.347z
	 M338.44,85.932c-7.022,0.008-11.24,5.734-11.296,11.165c-0.055,5.337,4.014,11.261,11.287,11.382
	c6.231,0.104,11.22-4.977,11.254-11.192C349.881,91.553,345.341,85.925,338.44,85.932z M100.104,397.081
	c-3.995,0.015-7.213,3.221-7.225,7.197c-0.012,4.089,3.228,7.299,7.326,7.26c4.01-0.039,7.148-3.237,7.137-7.274
	C107.332,400.292,104.081,397.066,100.104,397.081z M92.889,96.944c-0.024,4.073,3.227,7.348,7.271,7.324
	c3.961-0.024,7.172-3.267,7.171-7.242c-0.001-3.988-3.195-7.191-7.179-7.199C96.132,89.818,92.912,92.973,92.889,96.944z
	 M62.355,147.95c0.02,3.893,3.413,7.242,7.289,7.194c3.914-0.049,7.243-3.404,7.215-7.272c-0.029-4.016-3.2-7.173-7.206-7.175
	C65.521,140.695,62.335,143.862,62.355,147.95z M309.991,462.685c3.918,0.096,7.264-3.074,7.447-7.055
	c0.179-3.883-3.002-7.216-7.049-7.387c-3.995-0.168-7.335,2.92-7.468,6.904C302.785,459.241,305.923,462.586,309.991,462.685z
	 M242.009,47.034c-0.045,4.066,3.183,7.385,7.2,7.404c3.919,0.018,7.245-3.285,7.242-7.194c-0.002-4.037-3.141-7.228-7.125-7.244
	C245.254,39.984,242.053,43.06,242.009,47.034z M33.212,301.6c-0.031,3.985,3.124,7.362,7.104,7.304
	c4.231-0.062,7.257-3.018,7.377-7.264c0.112-3.959-3.197-7.121-7.243-7.159C36.407,294.443,33.243,297.556,33.212,301.6z
	 M449.65,301.517c-0.117,3.889,3.304,7.374,7.276,7.413c3.828,0.037,7.123-3.174,7.218-7.035c0.102-4.155-2.966-7.357-7.109-7.42
	C453.025,294.414,449.77,297.518,449.65,301.517z M62.339,353.461c-0.102,3.989,3.19,7.402,7.207,7.475
	c3.849,0.07,7.231-3.24,7.339-7.182c0.107-3.908-3.172-7.255-7.138-7.286C65.641,346.434,62.442,349.454,62.339,353.461z
	 M129.314,462.693c3.938-0.028,7.218-3.292,7.264-7.229c0.047-3.93-3.197-7.176-7.205-7.211c-4.061-0.035-7.25,3.06-7.279,7.064
	C122.065,459.429,125.288,462.722,129.314,462.693z M421.819,147.877c0.006,3.938,3.318,7.271,7.195,7.242
	c4.013-0.03,7.244-3.222,7.247-7.161c0.004-4.084-3.083-7.25-7.076-7.255C424.994,140.696,421.812,143.796,421.819,147.877z
	 M183.462,455.471c0.042,4.07,3.175,7.215,7.191,7.219c4.011,0.004,7.356-3.382,7.289-7.379c-0.066-3.958-3.335-7.104-7.353-7.077
	C186.541,448.261,183.42,451.43,183.462,455.471z M430.041,360.903c3.883,0.035,7.278-3.308,7.296-7.182
	c0.018-3.918-3.096-7.152-6.983-7.25c-4.192-0.106-7.432,2.931-7.496,7.027C422.794,357.598,425.963,360.866,430.041,360.903z
	 M129.264,54.431c3.994,0.005,7.363-3.383,7.304-7.346c-0.059-3.955-3.312-7.102-7.324-7.085c-4.033,0.018-7.145,3.16-7.123,7.192
	C122.143,51.235,125.293,54.427,129.264,54.431z M361.479,455.145c-0.171,3.462,2.379,7.334,7.072,7.519
	c4.032,0.159,7.4-3.19,7.412-7.21c0.012-3.988-3.159-7.167-7.188-7.208C364.797,448.206,361.67,451.285,361.479,455.145z
	 M368.751,360.923c3.927-0.028,7.198-3.326,7.214-7.273c0.016-3.979-3.198-7.194-7.203-7.206c-4.079-0.012-7.243,3.087-7.261,7.111
	C361.482,357.683,364.699,360.952,368.751,360.923z M368.629,54.431c3.92,0.036,7.289-3.233,7.334-7.116
	c0.047-4.059-3.178-7.305-7.27-7.315c-4.005-0.01-7.167,3.146-7.172,7.158C361.517,51.18,364.659,54.395,368.629,54.431z
	 M361.518,147.885c0.007,4.001,3.182,7.211,7.162,7.239c3.97,0.028,7.312-3.353,7.283-7.368c-0.028-3.95-3.255-7.061-7.321-7.059
	C364.579,140.698,361.511,143.794,361.518,147.885z M496.006,251.056c0.045-3.93-3.172-7.251-7.103-7.334
	c-3.885-0.082-7.283,3.168-7.403,7.083c-0.121,3.923,3.097,7.272,7.056,7.342C492.716,258.221,495.959,255.134,496.006,251.056z
	 M429.062,243.722c-3.832-0.079-7.235,3.308-7.243,7.208c-0.008,4.097,3.192,7.255,7.33,7.236c3.955-0.018,7.098-3.133,7.113-7.05
	C436.279,246.974,433.194,243.806,429.062,243.722z M309.887,54.438c3.855,0.152,7.356-3.077,7.531-6.947
	c0.176-3.883-3.075-7.399-6.927-7.491c-4.208-0.101-7.425,2.88-7.535,6.98C302.85,50.986,305.912,54.281,309.887,54.438z
	 M406.938,404.255c-0.052-3.936-3.337-7.161-7.297-7.163c-3.98-0.002-7.201,3.214-7.206,7.198c-0.005,4.02,3.166,7.234,7.148,7.245
	C403.628,411.547,406.991,408.218,406.938,404.255z M406.912,97.194c-0.154-4.312-3.177-7.12-7.261-7.19
	c-4.004-0.068-7.208,3.172-7.213,7.199c-0.005,4.009,3.211,7.197,7.233,7.168C403.701,104.342,407.054,101.148,406.912,97.194z
	 M190.684,54.44c3.874-0.012,7.272-3.4,7.25-7.229c-0.023-4.05-3.293-7.239-7.393-7.211c-3.997,0.028-7.079,3.195-7.06,7.257
	C183.5,51.256,186.705,54.452,190.684,54.44z M17.312,250.942c-0.019-3.92-3.323-7.216-7.237-7.221
	c-3.943-0.004-7.217,3.249-7.231,7.186c-0.014,4.068,3.055,7.183,7.116,7.224C14.088,258.172,17.332,255,17.312,250.942z
	 M249.295,462.702c3.952-0.046,7.154-3.306,7.161-7.29c0.007-3.992-3.162-7.142-7.217-7.173c-4.029-0.031-7.221,3.118-7.234,7.135
	C241.991,459.437,245.286,462.749,249.295,462.702z M40.151,207.531c3.921,0.137,7.357-3.008,7.549-6.908
	c0.191-3.875-3.017-7.366-6.919-7.531c-4.112-0.174-7.426,2.889-7.558,6.986C33.095,204.066,36.188,207.393,40.151,207.531z
	 M456.924,193.091c-3.949,0.012-7.244,3.27-7.263,7.183c-0.019,3.948,3.391,7.3,7.385,7.259c3.976-0.041,7.11-3.268,7.083-7.293
	C464.103,196.203,460.954,193.079,456.924,193.091z"/>
</svg>
