<?xml version="1.0" encoding="iso-8859-1"?>
<!-- Generator: Adobe Illustrator 19.0.0, SVG Export Plug-In . SVG Version: 6.00 Build 0)  -->
<svg version="1.1" id="Layer_1" xmlns="http://www.w3.org/2000/svg" xmlns:xlink="http://www.w3.org/1999/xlink" x="0px" y="0px"
	 viewBox="0 0 500 500" style="enable-background:new 0 0 500 500;" xml:space="preserve">
<path d="M16.383,185.087c4.422,7.451,7.542,13.223,11.138,18.682c19.343,29.359,48.148,46.599,79.097,60.771
	c49.685,22.751,102.785,34.72,155.348,48.302c41.634,10.758,83.764,20.202,121.506,41.983c23.966,13.83,34.91,34.24,29.792,55.002
	c-4.59,18.619-16.646,32.481-31.344,44.08c-23.627,18.646-51.252,28.04-80.38,33.396c-61.764,11.358-120.683,2.827-174.655-29.582
	C62.783,419.228,23.675,362.225,10.065,288.61c-5.896-31.893-3.778-63.984,3.328-95.66
	C13.817,191.058,14.765,189.284,16.383,185.087z M486.056,306.189c8.305-37.041,9.062-74.067,0.088-111.159
	C469.632,126.785,430.606,74.989,370.57,39.475C319.579,9.312,263.937,1.606,205.844,10.424
	c-38.8,5.889-74.727,18.735-102.088,48.496c-24.305,26.436-24.662,58.685,7.057,80.632c20.98,14.516,44.469,22.864,68.579,29.645
	c52.991,14.904,106.334,28.578,159.175,43.986c41.208,12.016,81.136,27.794,113.208,57.588
	c12.249,11.379,21.63,25.846,32.604,39.255C484.758,309.18,485.705,307.751,486.056,306.189z"/>
</svg>
