<?xml version="1.0" encoding="iso-8859-1"?>
<!-- Generator: Adobe Illustrator 19.0.0, SVG Export Plug-In . SVG Version: 6.00 Build 0)  -->
<svg version="1.1" id="Layer_1" xmlns="http://www.w3.org/2000/svg" xmlns:xlink="http://www.w3.org/1999/xlink" x="0px" y="0px"
	 viewBox="0 0 500 500" enable-background="new 0 0 500 500" xml:space="preserve">
<path d="M494.889,200.22c-2.263,16.118-4.276,30.616-6.338,45.106c-3.296,23.161-6.654,46.312-9.928,69.476
	c-1.965,13.898-3.634,27.841-5.893,41.69c-0.422,2.588-2.599,5.279-4.665,7.153c-29.013,26.312-58.024,52.629-87.372,78.565
	c-4.929,4.356-11.14,7.641-17.269,10.198c-34.249,14.284-68.541,28.488-103.123,41.933c-5.631,2.189-13.342,2.163-19.149,0.269
	c-44.01-14.35-87.815-29.333-131.576-44.433c-3.472-1.198-6.998-4.19-9.036-7.306c-31.884-48.747-63.898-97.421-94.718-146.837
	c-3.53-5.661-0.753-15.763,0.263-23.656c3.023-23.475,6.636-46.874,10.002-70.305c2.536-17.656,6.9-35.295,7.097-52.978
	c0.244-21.914,17.207-29.279,30.127-40.269c21.487-18.277,43.19-36.352,65.607-53.456c8.149-6.218,18.381-9.961,28.046-13.889
	c31.396-12.761,63.081-24.815,94.4-37.759c8.222-3.398,15.067-1.112,22.51,1.261c43.888,13.99,87.867,27.701,131.644,42.031
	c4.754,1.556,9.686,5.677,12.374,9.963c28.278,45.104,56.139,90.469,84.014,135.825C493.517,195.422,494.248,198.584,494.889,200.22
	z M164.117,289.945c44.435-26.824,87.263-52.679,131.824-79.579c-42.663-20.2-83.41-39.492-125.053-59.209
	C168.62,197.641,166.417,242.798,164.117,289.945z M170.453,298.465c42.601,19.818,83.711,38.943,125.889,58.564
	c1.435-46.27,2.82-90.955,4.258-137.325C256.991,246.094,214.796,271.629,170.453,298.465z M307.348,356.434
	c39.97-19.65,78.433-38.558,118.302-58.159c-38.926-26.767-75.837-52.148-114.023-78.405
	C310.18,266.065,308.785,310.584,307.348,356.434z M299.72,200.575c-6.059-44.595-11.856-87.257-17.886-131.637
	c-35.53,25.011-69.798,49.134-104.603,73.636C218.107,161.93,257.806,180.728,299.72,200.575z M315.646,210.185
	c38.449,26.296,75.882,51.898,114.74,78.474c-5.37-46.746-10.456-91.01-15.738-136.989
	C380.882,171.627,349.014,190.463,315.646,210.185z M291.777,366.368c-42.391-19.679-83.017-38.538-125.18-58.111
	c10.343,43.037,20.294,84.445,30.713,127.802C229.103,412.604,259.683,390.044,291.777,366.368z M148.38,297.036
	c-32.027-26.979-62.889-52.976-95.892-80.777c4.571,45.294,8.918,88.377,13.421,132.991
	C94.05,331.433,120.804,314.495,148.38,297.036z M423.866,313.902c-0.433-0.595-0.866-1.189-1.3-1.784
	c-37.209,18.176-74.418,36.353-112.436,54.924c20.184,23.151,39.244,45.011,58.595,67.205
	C387.364,393.57,405.615,353.736,423.866,313.902z M300.631,372.142c-30.114,22.252-59.477,43.949-90.662,66.993
	c50.765,0,99.009,0,149.047,0C338.883,416.034,319.858,394.203,300.631,372.142z M127.418,66.963
	c-22.675,41.82-44.601,82.258-67.708,124.873c34.713-17.688,66.862-34.07,99.608-50.757
	C148.55,116.059,138.217,92.052,127.418,66.963z M306.81,63.269c-0.365,0.887-0.73,1.775-1.095,2.662
	c34.738,22.049,69.477,44.097,105.882,67.204c-5.273-25.984-10.145-49.999-14.988-73.863
	C365.475,60.658,336.142,61.963,306.81,63.269z M440.052,281.257c15.126-28.197,28.988-54.04,43.008-80.175
	c-19.296-15.134-37.823-29.665-57.377-45.002C430.51,198.132,435.116,238.258,440.052,281.257z M341.119,450.841
	c-0.169-0.447-0.338-0.893-0.506-1.34c-43.518,0-87.036,0-132.787,0c14.603,12.578,27.373,23.811,40.505,34.603
	c1.718,1.412,5.613,1.451,7.954,0.609c10.957-3.943,21.744-8.367,32.553-12.714C306.28,464.985,323.693,457.897,341.119,450.841z
	 M436.879,310.416c-17.302,38.015-33.82,74.305-50.337,110.595c0.502,0.291,1.004,0.581,1.507,0.872
	c24.276-21.756,48.552-43.512,72.922-65.352C453.149,341.56,445.453,326.829,436.879,310.416z M276.374,53.883
	c-9.86-14.764-18.905-28.307-27.995-41.919c-31.317,12.404-61.26,24.264-91.202,36.124c0.215,0.756,0.429,1.512,0.644,2.268
	C196.722,51.514,235.623,52.671,276.374,53.883z M47.618,187.994c0.696,0.103,1.392,0.207,2.087,0.31
	c19.789-36.451,39.578-72.901,59.366-109.352c-0.569-0.441-1.139-0.881-1.708-1.322c-23.112,18.818-46.224,37.636-70.466,57.374
	C40.383,152.233,44.001,170.114,47.618,187.994z M174.36,439.262c0.149-0.567,0.299-1.134,0.448-1.701
	c-32.098-20.941-64.195-41.882-96.293-62.824c-0.46,0.494-0.921,0.987-1.381,1.481c11.255,21.209,22.51,42.418,33.456,63.044
	C132.593,439.262,153.476,439.262,174.36,439.262z M55.021,341.147c-3.898-39.662-7.532-76.638-11.166-113.614
	c-0.633-0.042-1.266-0.083-1.899-0.125c-9.344,20.93-18.688,41.859-28.238,63.251C27.119,307.041,40.333,323.193,55.021,341.147z
	 M464.6,341.811c5.444-38.192,10.528-73.864,15.613-109.537c-12.893,20.164-24.022,40.666-34.925,61.287
	c-1.265,2.393-2.618,6.102-1.65,8.091C449.866,314.444,456.729,326.927,464.6,341.811z M143.172,448.653
	c-0.134,0.798-0.269,1.596-0.403,2.394c26.725,9.05,53.45,18.1,80.175,27.15c-6.716-8.42-13.915-14.866-21.363-21.01
	c-3.788-3.125-7.887-7.878-12.084-8.146C174.11,448.061,158.622,448.653,143.172,448.653z M19.487,248.243
	c0.506,0.184,1.013,0.368,1.519,0.552c2.731-5.635,5.143-11.452,8.253-16.87c9.993-17.407,13.683-35.425,6.372-54.804
	c-1.207-3.2-2.166-6.493-3.24-9.743c-0.434,0.157-0.868,0.313-1.303,0.47C27.222,194.647,23.354,221.445,19.487,248.243z"/>
</svg>
