<?xml version="1.0" encoding="iso-8859-1"?>
<!-- Generator: Adobe Illustrator 19.0.0, SVG Export Plug-In . SVG Version: 6.00 Build 0)  -->
<svg version="1.1" id="Layer_1" xmlns="http://www.w3.org/2000/svg" xmlns:xlink="http://www.w3.org/1999/xlink" x="0px" y="0px"
	 viewBox="0 0 500 500" style="enable-background:new 0 0 500 500;" xml:space="preserve">
<path d="M491.669,152.347c0.085,1.675-0.707,3.215-2.599,4.565c-2.214,1.579-4.087,3.659-6.014,5.614
	c-3.911,3.968-7.689,8.07-11.653,11.983c-4.056,4.003-8.33,7.786-12.398,11.778c-3.762,3.691-7.332,7.579-11.073,11.293
	c-3.969,3.941-8.057,7.762-12.058,11.671c-1.586,1.55-3.062,3.211-4.616,4.794c-4.061,4.136-8.095,8.301-12.22,12.372
	c-4.062,4.008-8.251,7.887-12.332,11.877c-3.549,3.469-7.011,7.028-10.536,10.521c-4.424,4.384-8.907,8.709-13.302,13.122
	c-3.946,3.964-7.761,8.058-11.718,12.011c-3.806,3.803-7.747,7.472-11.577,11.251c-2.469,2.436-4.825,4.985-7.272,7.444
	c-1.932,1.942-3.945,3.803-5.885,5.738c-2.921,2.913-5.785,5.882-8.716,8.784c-3.743,3.707-7.541,7.357-11.289,11.058
	c-2.626,2.593-5.185,5.254-7.815,7.843c-3.986,3.923-8.025,7.793-12.01,11.718c-3.826,3.769-7.584,7.608-11.423,11.364
	c-4.302,4.209-8.705,8.315-12.983,12.547c-3.914,3.872-7.717,7.855-11.576,11.783c-1.63,1.659-3.277,3.3-4.921,4.945
	c-0.149,0.149-0.307,0.323-0.495,0.394c-3.25,1.234-4.066-1.99-5.858-3.323c-1.413-1.052-1.312-2.587-0.022-3.871
	c3.233-3.217,6.469-6.432,9.73-9.62c3.932-3.844,7.916-7.635,11.834-11.493c5.724-5.638,11.423-11.303,17.108-16.98
	c7.714-7.704,15.366-15.469,23.118-23.134c5.565-5.502,11.28-10.853,16.873-16.327c5.294-5.182,10.512-10.439,15.77-15.658
	c8.5-8.438,17.005-16.87,25.505-25.308c8.353-8.292,16.674-16.616,25.059-24.874c10.803-10.639,21.688-21.195,32.478-31.848
	c6.856-6.769,13.557-13.694,20.412-20.463c5.649-5.579,11.45-11.004,17.129-16.553c3.481-3.402,6.826-6.944,10.31-10.342
	c0.8-0.78,1.855-1.513,2.914-1.77C490.089,146.636,491.694,148.527,491.669,152.347z M251.411,359.26
	c0.59-0.398,0.918-1.164,1.442-1.685c8.037-7.98,16.074-15.961,24.137-23.914c5.415-5.341,10.899-10.612,16.302-15.964
	c3.977-3.939,7.86-7.973,11.812-11.937c3.659-3.67,7.349-7.31,11.035-10.953c4.353-4.302,8.727-8.582,13.07-12.894
	c3.512-3.487,6.967-7.033,10.495-10.504c2.487-2.447,5.095-4.771,7.578-7.222c4.126-4.072,8.163-8.233,12.297-12.297
	c3.766-3.702,7.642-7.292,11.412-10.99c2.85-2.795,5.587-5.705,8.414-8.524c3.508-3.497,7.071-6.939,10.584-10.432
	c2.921-2.905,5.775-5.877,8.709-8.768c3.449-3.4,7.014-6.684,10.417-10.128c4.005-4.054,7.823-8.293,11.847-12.328
	c3.862-3.871,7.89-7.577,11.834-11.367c1.821-1.75,3.644-3.5,5.417-5.298c2.281-2.313,4.478-4.71,6.776-7.007
	c2.616-2.615,5.335-5.127,7.951-7.743c3.639-3.64,7.207-7.352,10.837-11.002c3.723-3.743,7.496-7.436,11.224-11.174
	c1.242-1.245,1.327-2.615,0.145-3.963c-2.192-2.5-6.096-2.513-8.399-0.073c-2.474,2.622-4.9,5.295-7.47,7.819
	c-7.098,6.969-14.316,13.817-21.385,20.815c-10.329,10.226-20.539,20.572-30.857,30.808c-8.285,8.219-16.663,16.344-24.984,24.527
	c-8.774,8.628-17.53,17.274-26.294,25.913c-5.362,5.285-10.737,10.556-16.082,15.858c-5.646,5.6-11.253,11.239-16.896,16.842
	c-7.366,7.313-14.763,14.595-22.121,21.916c-3.671,3.653-7.256,7.393-10.935,11.037c-3.007,2.979-6.121,5.851-9.144,8.814
	c-5.591,5.479-11.145,10.994-16.724,16.485c-3.38,3.326-6.794,6.616-10.163,9.954c-2.857,2.831-5.796,5.596-8.449,8.611
	c-1.262,1.434-2.287,3.283-2.802,5.117c-0.716,2.552,1.009,4.286,3.972,4.711C248.084,361.308,249.793,360.351,251.411,359.26z
	 M110.094,161.487c31.451,0,62.902,0.011,94.353-0.026c1.891-0.002,3.853-0.129,5.656-0.643c2.977-0.848,3.869-3.151,2.009-5.629
	c-0.973-1.296-2.765-2.188-4.368-2.737c-1.34-0.459-2.942-0.182-4.427-0.182c-62.796-0.013-125.591-0.021-188.387-0.016
	c-1.16,0-2.359,0.021-3.472,0.298c-2.069,0.516-3.821,3.208-3.599,5.433c0.24,2.41,2.096,2.998,4.068,3.291
	c1.044,0.155,2.118,0.145,3.179,0.145c31.663,0.007,63.326,0.006,94.989,0.006C110.094,161.449,110.094,161.468,110.094,161.487z
	 M109.613,137.851c31.75,0,63.501,0.006,95.251-0.018c1.58-0.001,3.183-0.145,4.734-0.439c1.602-0.304,3.154-0.931,3.297-2.914
	c0.142-1.97-0.574-3.713-2.451-4.42c-1.843-0.695-3.863-1.297-5.805-1.299c-63.288-0.064-126.577-0.052-189.865-0.044
	c-0.952,0-1.932-0.036-2.852,0.164c-2.487,0.542-4.275,3.23-3.969,5.794c0.235,1.965,1.602,2.922,4.498,3.129
	c0.529,0.038,1.061,0.025,1.592,0.025c31.857,0.001,63.713,0.001,95.57,0.001C109.613,137.837,109.613,137.844,109.613,137.851z
	 M94.03,279.39c0,24.546,0.001,49.091-0.001,73.637c-0.001,7.649-0.063,15.299,0.012,22.948c0.028,2.89,1.412,4.19,4.03,4.248
	c2.542,0.056,4.108-1.281,4.495-3.956c0.151-1.045,0.15-2.118,0.15-3.178c0.012-54.722,0.015-109.445,0.022-164.167
	c0.001-8.076,0.058-16.151-0.02-24.226c-0.016-1.665-0.284-3.41-0.855-4.964c-0.61-1.658-1.985-2.808-3.933-2.7
	c-2.006,0.112-3.046,1.468-3.379,3.271c-0.326,1.763-0.535,3.576-0.537,5.367c-0.031,31.24-0.023,62.479-0.023,93.719
	C94.004,279.39,94.017,279.39,94.03,279.39z M117.854,279.004c0,31.327-0.002,62.654,0.008,93.981c0,1.272,0.113,2.544,0.194,3.815
	c0.127,1.983,1.184,3.113,3.157,3.372c2.169,0.285,4.353-0.818,4.855-2.694c0.351-1.312,0.441-2.725,0.442-4.094
	c0.018-57.557,0.013-115.115,0.011-172.672c0-5.416,0.088-10.834-0.049-16.246c-0.044-1.753-0.279-3.737-1.162-5.158
	c-0.696-1.12-2.551-2.14-3.837-2.079c-1.045,0.05-2.42,1.603-2.908,2.793c-0.617,1.506-0.648,3.32-0.65,5.001
	c-0.033,31.327-0.024,62.655-0.024,93.982C117.879,279.004,117.866,279.004,117.854,279.004z M491.951,358.504
	c-0.331-1.823-0.931-3.797-2.029-5.234c-1.655-2.164-3.842-3.922-5.809-5.846c-4.209-4.12-8.443-8.215-12.628-12.359
	c-5.323-5.273-10.582-10.61-15.915-15.873c-5.408-5.337-10.913-10.575-16.301-15.932c-5.537-5.505-10.965-11.121-16.476-16.653
	c-5.962-5.984-11.997-11.895-17.931-17.906c-1.515-1.535-3.006-1.831-4.822-0.744c-2.196,1.314-3.925,4.156-3.401,5.665
	c0.134,0.385,0.385,0.768,0.678,1.053c1.589,1.546,3.22,3.049,4.815,4.59c5.703,5.512,11.451,10.979,17.078,16.567
	c5.475,5.438,10.768,11.06,16.242,16.498c5.633,5.595,11.439,11.016,17.08,16.603c10.464,10.362,20.833,20.819,31.333,31.145
	c1.055,1.037,2.73,1.443,3.466,1.814C490.349,361.852,492.285,360.342,491.951,358.504z M380.362,289.065
	c0.608,1.723,1.702,3.418,2.98,4.736c4.048,4.173,8.301,8.145,12.442,12.228c3.831,3.777,7.605,7.612,11.43,11.395
	c3.98,3.936,8.028,7.804,11.981,11.767c5.455,5.469,10.794,11.055,16.283,16.488c5.635,5.577,11.445,10.976,17.078,16.555
	c5.119,5.07,10.063,10.317,15.194,15.375c0.695,0.685,2.383,1.314,3.001,0.946c1.844-1.1,3.875-2.421,4.913-4.195
	c1.149-1.963-1.203-3.038-2.449-4.254c-0.684-0.668-1.358-1.346-2.03-2.026c-3.488-3.532-6.925-7.116-10.473-10.586
	c-4.152-4.061-8.446-7.978-12.594-12.043c-4.143-4.062-8.16-8.252-12.272-12.347c-5.388-5.367-10.818-10.692-16.223-16.042
	c-5.634-5.576-11.278-11.142-16.883-16.746c-4.332-4.331-8.521-8.81-12.962-13.024c-1.543-1.464-3.653-2.33-4.731-2.994
	C381.385,284.354,379.491,286.595,380.362,289.065z M335.603,233.715c-3.891-3.899-7.964-7.616-11.892-11.478
	c-8.846-8.698-17.659-17.432-26.464-26.172c-14.594-14.486-29.163-28.997-43.767-43.473c-1.654-1.64-3.385-3.229-5.237-4.635
	c-1.448-1.1-3.149-1.36-4.639,0.092c-1.628,1.587-1.527,6.079,0.121,7.664c3.337,3.209,6.694,6.398,9.998,9.642
	c1.725,1.694,3.31,3.531,5.036,5.225c2.625,2.575,5.359,5.039,7.971,7.628c3.75,3.717,7.409,7.524,11.148,11.253
	c2.611,2.604,5.316,5.112,7.931,7.712c3.665,3.644,7.27,7.348,10.929,10.997c2.986,2.978,6.007,5.922,9.025,8.868
	c3.766,3.676,7.583,7.302,11.309,11.018c4.035,4.025,8.041,8.083,11.955,12.226c1.512,1.601,3.455,2.275,5.723,1.502
	c2.034-0.693,2.708-2.222,3.051-4.479C337.081,236.096,336.567,234.681,335.603,233.715z M351.623,216.253
	c-3.557-3.639-7.179-7.215-10.81-10.782c-10.743-10.552-21.535-21.053-32.25-31.633c-13.66-13.487-27.261-27.036-40.895-40.549
	c-2.884-2.858-4.359-2.938-7.722-0.513c-2.206,1.591-2.277,2.69-0.421,4.585c2.577,2.631,5.076,5.339,7.655,7.969
	c3.47,3.538,6.944,7.073,10.489,10.535c4.146,4.049,8.417,7.97,12.546,12.036c4.121,4.058,8.094,8.265,12.203,12.336
	c5.174,5.125,10.441,10.155,15.628,15.267c6.307,6.215,12.574,12.47,18.853,18.714c2.098,2.086,4.113,4.261,6.283,6.268
	c2.061,1.906,4.275,3.647,6.374,5.419C354.976,222.862,355.41,220.127,351.623,216.253z"/>
</svg>
