<?xml version="1.0" encoding="iso-8859-1"?>
<!-- Generator: Adobe Illustrator 19.0.0, SVG Export Plug-In . SVG Version: 6.00 Build 0)  -->
<svg version="1.1" id="Layer_1" xmlns="http://www.w3.org/2000/svg" xmlns:xlink="http://www.w3.org/1999/xlink" x="0px" y="0px"
	 viewBox="0 0 2000 2000" style="enable-background:new 0 0 2000 2000;" xml:space="preserve">
<path d="M1640.143,15.463c0,359.577,0,716.431,0,1079.723c-92.567-65.779-181.331-128.855-271.593-192.996
	c0-215.595,0-429.976,0-647.281c-358.38,0-713.654,0-1079.229,0c570.514,408.332,1134.775,812.189,1696.894,1214.512
	c0,104.563,0,205.463,0,312.324C1327.486,1309.555,672.914,840.344,16.146,369.559c0-115.637,0-233.468,0-354.095
	C556.379,15.463,1096.44,15.463,1640.143,15.463z M15.696,496.325c0,305.659,0,603.215,0,898.767
	c271.807,194.529,542.265,388.093,812.778,581.696c106.671-76.826,213.233-153.573,322.032-231.931
	c-75.608-53.107-147.487-103.595-218.857-153.725c-37.078,26.437-70.668,50.388-104.127,74.245
	c-181.445-130.198-359.878-258.235-536.31-384.836c0-92.535,0-181.995,0-276.289c75.386,54.868,145.164,106.594,215.92,156.946
	c126.799,90.235,254.667,178.973,381.188,269.592c116.945,83.76,232.381,169.625,349.089,253.72
	c123.025,88.646,246.151,177.186,370.729,263.616c24.506,17.002,45.457,51.089,85.974,34.309c0-94.241,0-187.859,0-284.399
	C1137.26,1299.34,578.827,899.514,15.696,496.325z"/>
</svg>
