<?xml version="1.0" encoding="iso-8859-1"?>
<!-- Generator: Adobe Illustrator 19.0.0, SVG Export Plug-In . SVG Version: 6.00 Build 0)  -->
<svg version="1.1" id="Layer_1" xmlns="http://www.w3.org/2000/svg" xmlns:xlink="http://www.w3.org/1999/xlink" x="0px" y="0px"
	 viewBox="0 0 2000 2000" style="enable-background:new 0 0 2000 2000;" xml:space="preserve">
<path d="M1523.664,668.471c-29.913-6.306-84.522-18.263-139.321-29.275c-114.005-22.908-228.721-44.779-345.214-26.347
	c-56.137,8.882-112.4,24.012-165.271,44.796c-75.029,29.494-96.726,105.636-46.359,168.54
	c31.118,38.864,72.055,72.65,114.579,99.066c118.918,73.875,251.917,114.819,384.667,156.578
	c55.2,17.364,108.923,43.258,158.714,72.984c58.963,35.202,75.71,97.354,55.106,167.526
	c-19.687,67.048-76.423,114.863-139.365,117.702c-99.326,4.479-198.71,8.025-297.943,14.051
	c-59.15,3.592-109.644,29.424-155.303,67.047c-92.859,76.515-150.753,178.392-208.422,280.84
	c-63.615,113.01-161.293,172.017-290.589,172.784c-182.361,1.082-328.3-151.505-324.536-335.477
	c3.695-180.636,157.051-326.576,338.629-315.762c64.22,3.825,127.419,23.688,191.257,35.278
	c103.095,18.716,206.915,36.618,311.549,18.678c56.059-9.612,112.352-24.558,164.979-45.884
	c75.501-30.596,93.422-107.651,38.773-168.29c-32.689-36.272-73.41-67.335-115.306-92.898
	C930.557,994.914,793.382,950.291,657.17,903.224c-51.177-17.683-100.77-43.134-146.68-72.04
	c-53.463-33.661-68.793-95.913-49.124-162.943c19.21-65.467,75.698-115.178,135.518-117.405c80.314-2.99,160.66-5.407,241.014-6.968
	c106.781-2.074,194.174-43.708,266.197-122.454c65.246-71.337,113.702-153.37,160.45-236.919
	c64.649-115.542,192.266-182.367,319.808-167.902c134.476,15.252,243.311,107.271,280.604,237.249
	C1924.711,462.107,1766.68,669.914,1523.664,668.471z"/>
</svg>
