<?xml version="1.0" encoding="iso-8859-1"?>
<!-- Generator: Adobe Illustrator 19.0.0, SVG Export Plug-In . SVG Version: 6.00 Build 0)  -->
<svg version="1.1" id="Layer_1" xmlns="http://www.w3.org/2000/svg" xmlns:xlink="http://www.w3.org/1999/xlink" x="0px" y="0px"
	 viewBox="0 0 2000 2000" style="enable-background:new 0 0 2000 2000;" xml:space="preserve">
<path d="M999.005,14.069c551.581,1.394,987.826,441.975,988.83,984.561c1.011,546.284-438.158,988.105-986.99,987.52
	c-542.289-0.578-987.166-435.146-984.164-989.523C19.661,446.161,456.522,19.266,999.005,14.069z M864.934,1465.061
	c11.392-6.777,20.918-11.589,29.523-17.698c64.352-45.686,108.59-109.177,142.304-177.88
	c74.376-151.565,82.13-312.466,56.555-476.737c-63.471,3.847-193.318,72.605-251.154,125.208
	c-126.989,115.499-169.236,257.637-139.809,425.107c-79.38-106.846-102.443-222.95-65.504-349.817
	c24.644-84.639,74.351-155.085,130.99-220.511c69.137-79.863,143.467-155.362,210.334-237.02
	c63.254-77.245,104.356-165.725,101.679-269.341c-0.579-22.406-0.084-44.839-0.084-70.496c15.627,6.898,27.7,10.091,37.309,16.809
	c75.208,52.575,128.209,122.469,159.2,208.788c21.326,59.398,33.47,120.703,44.09,183.056
	c10.496,61.624,0.004,118.042-21.086,173.64c-26.675,70.32-81.997,110.547-151.268,131c0,19.308,0,36.262,0,53.599
	c8.167,0,13.941,1.255,18.941-0.183c128.545-36.977,230.217-186.069,212.911-317.422c-9.096-69.041-20.194-138.58-39.234-205.373
	c-29.671-104.088-82.436-195.85-173.562-259.939c-54.421-38.275-114.625-62.092-183.969-68.064
	c72.404,143.098,43.454,278.469-44.255,383.549c-68.531,82.104-138.54,163.102-210.819,241.907
	c-53.366,58.184-95.883,122.739-127.159,194.363c-39.37,90.157-48.229,183.301-23.512,280.095
	c30.322,118.745,101.165,209.299,191.306,287.359c16.099,13.941,35.116,24.513,52.785,36.64c1.611-16.741-2.06-27.897-6.762-38.6
	c-39.286-89.434-68.522-180.581-62.977-280.618c3.357-60.567,19.464-115.641,50.187-167.458
	c29.455-49.68,69.195-90.168,115.997-122.115c38.739-26.443,82.247-45.9,124.149-68.729
	c27.983,100.511,7.944,192.496-15.162,282.049c-22.95,88.951-63.056,171.459-139.75,238.394
	c-14.569-144.162-3.5-270.774,125.859-353.022c0-20.722,0-39.481,0-58.733C837.239,1035.023,777.45,1295.608,864.934,1465.061z
	 M1059.014,1817.316c-352.424,54.933-852.761-218.591-894.379-774.183c-26.985-360.242,234.338-841.75,797.236-877.759
	c-8.835-19.472-16.631-36.657-24.887-54.853c-31.821,3.704-60.109,5.498-87.829,10.467
	c-185.323,33.221-345.102,118.137-479.096,248.479c-65.42,63.636-117.343,139.438-159.55,221.477
	c-47.649,92.617-76.083,189.902-89.882,293.262c-11.807,88.444-10.727,176.27,3.877,262.891
	c18.769,111.323,58.302,215.954,119.034,312.702c64.682,103.04,144.573,190.975,244.959,259.013
	c108.644,73.634,226.433,124.757,357.398,147.832c85.28,15.026,169.032,15.741,253.709,4.614
	c23.715-3.116,46.771-11.242,73.007-17.787c-110.825-103.929-193.892-227.295-214.198-297.38
	c162.316-49.876,275.875-154.992,346.75-308.114c36.75-79.397,63.957-162.059,76.137-248.515
	c7.423-52.688,6.675-106.527,9.597-159.85c-2.757-0.793-5.514-1.586-8.272-2.38c-15.703,31.815-33.707,62.764-46.156,95.806
	c-6.39,16.959,0.938,38.82-4.476,56.458c-23.11,75.299-43.691,151.96-74.397,224.214
	c-56.505,132.963-149.194,232.822-288.557,283.008c-28.279,10.184-57.065,18.961-84.679,28.078
	C922.642,1635.297,984.651,1728.735,1059.014,1817.316z M1234.587,1847.938c398.276-103.328,730.682-523.025,630.681-1028.95
	c-41.147-208.169-146.891-379.722-310.881-512.747c-110.598-89.715-236.564-151.54-385.125-179.312
	c30.904,23.462,55.11,42.557,80.095,60.571c18.37,13.244,36.314,28.653,56.921,36.979
	c198.857,80.346,345.702,216.103,440.154,408.596c74.43,151.688,100.567,311.763,77.357,478.667
	c-12.584,90.492-41.031,176.89-82.759,258.908c-79.479,156.217-195.405,276.032-350.21,358.474
	c-62.264,33.159-126.49,60.899-204.049,74.885C1207.209,1822.786,1221.72,1836.117,1234.587,1847.938z"/>
</svg>
