<?xml version="1.0" encoding="iso-8859-1"?>
<!-- Generator: Adobe Illustrator 19.0.0, SVG Export Plug-In . SVG Version: 6.00 Build 0)  -->
<svg version="1.1" id="Layer_1" xmlns="http://www.w3.org/2000/svg" xmlns:xlink="http://www.w3.org/1999/xlink" x="0px" y="0px"
	 viewBox="0 0 2000 2000" style="enable-background:new 0 0 2000 2000;" xml:space="preserve">
<path d="M655.288,375.058c-22.81,60.276-52.973,120.066-67.997,183.444c-43.763,184.609-2.659,348.557,141.229,477.699
	c43.238,38.807,98.923,63.378,145.76,98.648c48.402,36.448,97.875,73.545,138.255,118.163
	c98.691,109.045,85.014,330.179-42.689,440.966c-30.262,26.253-65.082,47.195-96.071,72.688c-23.4,19.25-47.86,17.358-73.577,10.268
	c-226.056-62.321-409.431-183.351-521.12-394.506c-114.822-217.077-114.974-438.7-3.049-657.193
	C355.1,570.876,477.578,458.927,633.996,384.191C642.348,380.2,651.018,376.878,655.288,375.058z M905.485,443.546
	c-21.28,93.392-23.541,184.734,53.014,258.331c21.091,20.276,43.318,40.581,68.278,55.386
	c66.421,39.398,134.47,76.069,202.132,113.353c198.836,109.566,337.559,271.613,420.634,482.013
	c12.374,31.339,21.818,63.835,34.282,100.719c10.582-17.326,18.094-29.069,25.065-41.124
	c110.982-191.913,133.55-392.675,57.267-601.999c-62.571-171.696-177.161-300.905-333.309-393.262
	c-142.103-84.049-296.565-121.314-462.227-115.044C935.088,343.366,917.075,392.682,905.485,443.546z M1678.423,1707.78
	c38.587-43.944,79.679-85.952,115.361-132.14c271.862-351.894,246.661-842.49-91.666-1164.67
	c-256.653-244.404-567.786-330.362-915.595-254.336C456.405,228.793,218.529,419.171,87.508,734.929
	C45.743,835.583,28.27,942.251,24.603,1050.001c-1.857,54.562,8.361,110.665,20.537,164.389
	c69.879,308.331,256.074,522.141,539.525,655.09c23.836,11.18,85.516-5.62,104.976-26.653
	c-178.997-63.738-330.042-166.626-440.571-322.947c-167.022-236.218-205.96-495.607-99.527-762.675
	c130.191-326.684,386.776-506.439,731.453-551.287c186.485-24.265,371.714-2.661,543.697,86.541
	c273.703,141.96,447.733,358.226,483.636,668.588c26.561,229.609-44.504,434.26-192.795,611.8
	c-10.214,12.228-22.038,25.27-26.239,39.906c-8.309,28.948-11.805,59.277-17.292,89.035
	C1674.143,1703.785,1676.283,1705.783,1678.423,1707.78z"/>
</svg>
