<?xml version="1.0" encoding="iso-8859-1"?>
<!-- Generator: Adobe Illustrator 19.0.0, SVG Export Plug-In . SVG Version: 6.00 Build 0)  -->
<svg version="1.1" id="Layer_1" xmlns="http://www.w3.org/2000/svg" xmlns:xlink="http://www.w3.org/1999/xlink" x="0px" y="0px"
	 viewBox="0 0 500 500" enable-background="new 0 0 500 500" xml:space="preserve">
<path d="M320.893,419.874c-23.933,23.455-47.843,46.888-72.405,70.96c-12.941-11.347-24.065-23.79-35.879-35.507
	c-11.883-11.786-23.732-23.606-35.749-35.563c-30.815,0-61.539,0-91.876,0c-0.59-0.601-0.81-0.788-0.984-1.012
	c-0.166-0.214-0.383-0.457-0.405-0.703c-0.153-1.697-0.366-3.399-0.367-5.099c-0.022-28.768-0.016-57.537-0.016-87.694
	c-3.553-3.809-7.686-8.4-11.991-12.823c-7.92-8.137-15.785-16.337-23.949-24.224c-22.081-21.332-23.81-59.279-0.414-81.912
	c9.772-9.454,19.354-19.105,28.992-28.697c2.402-2.391,4.682-4.903,7.389-7.75c0-12.145,0.193-24.37-0.062-36.585
	c-0.201-9.632,2.239-18.451,6.576-26.934c8.187-16.012,21.841-24.951,38.561-29.761c3.196-0.919,6.789-0.571,10.201-0.604
	c10.538-0.102,21.08-0.001,31.615-0.201c3.92-0.075,7.828-0.765,11.079-1.105c22.646-22.361,44.556-44.131,67.667-65.995
	c22.483,22.673,44.401,44.775,66.745,67.309c35.203,0,70.413,0,106.361,0c0.15,5.28,0.379,9.748,0.386,14.216
	c0.033,22.219,0.008,44.439,0.002,66.658c-0.002,7.372-0.025,14.744-0.009,22.116c0.008,3.926,1.767,6.987,4.509,9.738
	c7.991,8.019,15.821,16.197,23.781,24.246c20.635,20.865,22.43,57.077,0.004,80.18c-7.516,7.743-15.43,15.105-23.26,22.537
	c-3.266,3.1-4.653,6.385-4.605,11.185c0.142,14.201-0.048,28.447-1.043,42.609c-1.435,20.406-16.605,39.718-37.819,46.967
	c-7.023,2.4-14.195,3.692-21.725,3.531C348.824,419.668,335.435,419.874,320.893,419.874z M181.037,79.529
	c-31.901,30.83-63.404,61.874-94.102,92.23c0,51.279,0,101.094,0,151.534c30.488,30.928,61.171,62.054,91.475,92.795
	c47.659,0,94.607,0,141.571,0c33.053-32.313,65.929-64.453,98.433-96.229c0-45.614,0-90.265,0-134.849
	c-35.013-35.367-69.739-70.446-104.423-105.481C269.738,79.529,225.914,79.529,181.037,79.529z M318.806,79.606
	c33.98,33.667,65.686,66.767,98.921,99.284c1.563-8.505,1.395-92.695-0.067-99.284C385.4,79.606,353.055,79.606,318.806,79.606z
	 M82.731,177.897c-0.576-0.202-1.152-0.403-1.728-0.605c-2.009,1.9-4.046,3.771-6.022,5.706
	c-7.517,7.362-15.091,14.668-22.483,22.154c-3.36,3.403-6.657,6.953-9.444,10.825c-13.143,18.256-13.466,46.2,1.563,63.561
	c10.579,12.22,22.328,23.429,33.61,35.037c1.044,1.075,2.483,1.766,4.504,3.165C82.731,270.416,82.731,224.156,82.731,177.897z
	 M182.491,420.277c22.604,22.787,43.691,44.044,65.564,66.093c22.655-22.007,44.663-43.463,67.455-66.093
	C270.85,420.277,227.723,420.277,182.491,420.277z M186.016,74.565c4.467,0.599,7.14,1.265,9.813,1.269
	c33.026,0.051,66.052,0.008,99.078-0.018c2.846-0.002,5.715,0.148,8.529-0.165c1.436-0.16,2.774-1.193,4.815-2.135
	c-20.281-20.006-38.957-40.436-59.808-60.03C227.819,33.665,207.776,53.275,186.016,74.565z M173.749,416.136
	c-29.333-29.926-57.343-58.277-86.13-86.877c-1.666,12.4-1.189,81.132,0.451,86.877
	C115.892,416.136,143.728,416.136,173.749,416.136z M327.208,414.273c0.269,0.613,0.537,1.227,0.806,1.84
	c2.511,0.114,5.022,0.316,7.534,0.327c9.377,0.039,18.755-0.035,28.133,0.026c23.933,0.155,47.839-15.225,53.897-42.067
	c3.535-15.665,1.026-32.014,1.173-50.136C387.198,355.292,356.737,384.309,327.208,414.273z M422.795,313.163
	c0.581,0.236,1.163,0.473,1.744,0.709c8.031-7.909,16.31-15.584,24.046-23.772c20.384-21.574,19.439-55.394-1.268-76.005
	c-6.633-6.603-13.192-13.281-19.818-19.891c-1.052-1.05-2.285-1.918-4.696-3.914C422.108,232.319,422.288,272.741,422.795,313.163z
	 M86.758,164.148c0.593,0.37,1.185,0.741,1.778,1.111c28.909-28.033,57.448-56.444,87.582-86.016c-4.846,0-7.654,0.015-10.461-0.003
	c-7.11-0.044-14.23,0.104-21.329-0.201c-13.183-0.566-25.269,2.563-35.738,10.651c-11.873,9.173-20.152,21.113-21.585,36.15
	C85.8,138.503,86.758,151.372,86.758,164.148z M370.162,221.674c-23.148-13.509-47.613-17.568-73.744-11.247
	c-2.33,0.564-4.789,0.593-7.919,0.955c0-9.992,0-19.052,0-28.112c0-9.112,0.04-18.225-0.011-27.337
	c-0.051-8.982,0.24-17.983-0.169-26.725c-8.397-1.592-87.238-1.515-95.569-0.028c0,6.177,0,12.426,0,18.675
	c0,6.265,0,12.529,0,18.794c0,6.265,0.187,12.536-0.053,18.792c-0.235,6.118,1.078,12.368-0.999,18.803
	c-13.951,0-27.591-0.016-41.231,0.004c-13.568,0.02-27.141-0.096-40.53,0.095c-1.543,10.22-1.271,85.707,0.328,92.429
	c6.617,0,13.404,0.001,20.191,0c6.834-0.001,13.668-0.005,20.503-0.005c7.119,0,14.242-0.153,21.355,0.049
	c6.696,0.19,13.505-0.977,20.437,1.043c0,13.417-0.007,26.501,0.002,39.586c0.01,13.284-0.044,26.569,0.041,40.33
	c32.414,0,63.817,0,95.898,0c0-26.613,0-52.709,0-79.728c3.482,0.526,6.194,0.858,8.874,1.36c4.173,0.782,8.292,2.142,12.492,2.444
	c14.58,1.046,29.004-0.032,42.923-4.863c4.817-1.672,9.412-3.969,14.165-5.837c18.089-7.109,32.169-19.789,46.81-33.083
	C401.23,242.525,386.488,231.202,370.162,221.674z"/>
</svg>
