<?xml version="1.0" encoding="iso-8859-1"?>
<!-- Generator: Adobe Illustrator 19.0.0, SVG Export Plug-In . SVG Version: 6.00 Build 0)  -->
<svg version="1.1" id="Layer_1" xmlns="http://www.w3.org/2000/svg" xmlns:xlink="http://www.w3.org/1999/xlink" x="0px" y="0px"
	 viewBox="0 0 500 500" style="enable-background:new 0 0 500 500;" xml:space="preserve">
<path d="M243.176,269.588c-14.565-10.661-17.749-27.592-21.402-44.439c9.154-8.574,14.963-18.557,17.932-30.086
	c6.492,0,12.77,0,19.985,0c4.442,10.102,8.354,21.633,18.513,29.219c-0.897,12.468-3.832,23.945-10.053,34.45
	C262.824,267.727,255.745,272.578,243.176,269.588z M308.858,244.703c-1.19-5.273-2.432-10.534-3.497-15.137
	c-6.497,0-11.916,0-17.492,0c-2.152,17.415-8.363,32.57-19.58,45.458c1.12,4.585,1.868,8.84,3.232,12.888
	c1.271,3.773,3.051,7.398,4.856,10.962c8.912,17.6,27.583,14.596,36.498,3.483c5.658-7.054,9.872-14.82,12.028-24.565
	C315.737,268.321,311.597,256.844,308.858,244.703z M175.523,277.743c2.029,10.557,6.814,19.434,14.022,26.795
	c8.901,9.089,23.75,9.76,31.53-1.227c6.124-8.648,9.745-18.344,10.379-27.147c-4.939-8.79-9.649-15.721-12.854-23.29
	c-3.179-7.506-4.842-15.655-7.228-23.716c-5.155,0-10.381,0-16.407,0C190.946,246.749,188.535,264.393,175.523,277.743z
	 M140.733,256.814c1.702,3.594,3.67,7.148,6.055,10.315c6.422,8.528,16.14,9.172,24.022,1.879c4.421-4.09,7.27-9.204,8.865-14.889
	c2.72-9.695,5.082-19.491,7.631-29.388c-10.309-7.893-13.892-18.89-16.153-29.931c-6.636,0-12.581,0-18.583,0
	c-4.155,11.37-9.543,21.982-18.971,29.54C133.335,233.503,136.331,247.521,140.733,256.814z M317.21,243.24
	c2.33,8.567,4.47,17.329,10.755,24.174c8.62,9.388,19.009,8.828,26.376-1.513c8.678-12.182,11.239-26.291,13.095-40.771
	c-10.044-8.325-15.689-19.138-19.733-30.353c-6.398,0-12.365,0-18.777,0c-1.75,11.376-5.83,21.79-15.404,29.632
	C314.823,231.224,315.606,237.344,317.21,243.24z M224.275,322.574c2.75,8.526,5.732,16.988,12.006,23.687
	c8.289,8.849,16.709,9.107,25.317,2.136c10.329-8.365,14.833-19.892,16.699-32.862c-11.89-9.076-14.519-22.711-18.549-34.933
	c-7.212,0-13.522,0-20.024,0c-2.962,12.74-6.352,25.538-17.279,34.814C223.204,318.417,223.617,320.535,224.275,322.574z
	 M345.828,343.654c7.643-8.071,13.666-17.327,17.545-28.04c-9.281-9.363-9.568-22.28-12.961-32.656c-6.706,0-12.161,0-17.779,0
	c-4.055,13.459-9.675,25.326-21.227,33.724c1.992,12.432,0.1,25.742,11.395,34.395C333.201,353.665,340.132,349.668,345.828,343.654
	z M167.388,282.831c-5.901,0-11.608,0-17.735,0c-1.247,5.597-1.98,11.471-3.927,16.911c-2.049,5.723-5.26,11.03-8.322,17.246
	c3.378,9.044,9.047,17.85,16.092,25.647c6.005,6.646,13.253,11.175,23.797,8.517c11.65-8.123,9.299-21.693,11.801-34.55
	C176.783,308.17,171.97,295.788,167.388,282.831z M282.407,153.486c-0.944,13.336-4.955,25.077-14.089,34.861
	c1.571,7.758,4.269,14.927,8.506,21.413c8.197,12.547,28.762,15.917,38.202-1.182c3.279-5.939,5.644-12.198,5.574-19.299
	c-11.733-9.302-16.753-22.693-22.251-35.793C292.434,153.486,287.618,153.486,282.407,153.486z M185.565,209.137
	c9.589,16.215,28.589,12.907,36.598,2.318c5.244-6.932,8.519-14.851,9.379-21.839c-3.783-6.813-7.355-11.929-9.558-17.579
	c-2.305-5.912-3.292-12.337-4.92-18.793c-4.832,0-9.697,0-14.946,0c-5.702,13.344-10.749,27.075-22.603,36.173
	C179.969,196.864,182.094,203.268,185.565,209.137z M233.023,176.834c7.153,12.417,25.507,13.176,33.945,0.412
	c5.242-7.93,7.75-16.64,7.668-26.006c-2.323-2.696-4.82-5.053-6.635-7.851c-1.82-2.807-2.866-6.104-4.425-9.096
	c-1.843-3.537-3.473-7.289-5.903-10.395c-4.806-6.143-11.732-5.655-15.944,1.006c-1.785,2.823-3.223,6.001-4.137,9.211
	c-1.935,6.791-5.615,12.224-11.536,16.364C226.352,161.699,229.016,169.877,233.023,176.834z M141.353,276.087
	c-12.285-13.023-14.325-29.904-16.528-46.536c-4.102,0-7.688,0-11.349,0c-3.854,17.07-6.129,34.248-15.88,48.342
	c3.157,11.111,8.434,21.335,13.466,26.752c4.462,4.803,9.533,7.779,17.012,5.904C136.384,302.863,138.933,296.198,141.353,276.087z
	 M358.685,276.431c2.013,12.682,3.072,25.445,13.305,34.165c9.221,0.686,11.798-0.055,17.002-5.765
	c6.969-7.646,10.902-16.901,13.938-26.815c-10.363-14.67-12.105-32.035-16.137-48.436c-4.042,0-7.615,0-11.46,0
	C373.365,246.836,370.963,263.584,358.685,276.431z M417.288,194.57c-4.583,0.322-8.649,0.608-12.769,0.898
	c-1.295,10.106-2.796,20.171-9.961,28.443c1.695,13.884,4.684,27.33,10.466,40.053c1.815,3.994,4.317,7.501,8.259,9.41
	c5.116,1.433,8.827-0.526,11.162-4.664c2.253-3.992,4.648-8.155,5.655-12.546c2.26-9.854,3.697-19.897,5.557-30.355
	C424.928,217.191,422.056,205.157,417.288,194.57z M65.561,225.212c0.292,4.443,0.359,8.448,0.851,12.399
	c1.338,10.721,3.069,21.343,9.121,30.692c2.812,4.344,6.369,6.644,13.435,4.46c12.297-13.135,13.466-31.483,16.963-48.723
	c-7.59-8.719-8.746-18.909-10.184-28.661c-4.084-0.244-7.92-0.473-12.879-0.768C78.351,205.616,75.049,217.396,65.561,225.212z
	 M318.991,175.574c3.071,4.413,6.987,7.717,12.063,9.66c8.575,3.283,16.453,0.461,19.834-7.931
	c3.637-9.027,4.698-18.367,2.21-24.492c-7.319-8.364-12.298-14.18-17.423-19.866c-3.693-4.098-7.545-8.055-11.417-11.986
	c-0.583-0.592-1.661-0.696-2.987-1.21c-1.839,1.113-3.873,2.343-5.525,3.342c-3.231,9.164-0.65,19.437-8.739,26.625
	C309.825,159.614,313.673,167.933,318.991,175.574z M166.902,130.307c-5.684,7.256-10.715,15.119-18.471,19.835
	c-0.586,2.943-1.213,5.339-1.52,7.775c-0.87,6.895,0.359,13.591,3.169,19.814c3.589,7.948,11.088,10.609,19.272,7.558
	c6.398-2.385,11.096-6.781,14.214-12.642c3.867-7.27,7.237-14.804,10.719-22.012c-5.499-6.281-7.682-12.82-7.531-20.248
	c0.103-5.054-1.499-9.136-7.801-10.34C172.705,123.427,171.288,124.707,166.902,130.307z M214.465,320.596
	c-5.722,0-10.572,0-15.931,0c-0.775,13.84-2.505,27.178-11.521,38.425c1.983,3.716,3.624,7.376,5.775,10.706
	c5.494,8.506,13.535,12.075,23.562,11.74c6.896-0.231,11.855-3.294,14.347-9.676c1.666-4.267,2.683-8.787,4.296-14.221
	C222.48,347.948,218.716,333.784,214.465,320.596z M269.976,372.485c1.892,5.03,5.905,7.967,11.087,8.714
	c6.873,0.991,13.441-0.046,19.386-4.127c6.72-4.613,10.016-11.353,11.996-16.944c-3.164-7.651-6.335-13.671-8.11-20.078
	c-1.763-6.366-2.121-13.12-3.067-19.516c-5.451,0-10.323,0-15.491,0c-4.108,13.758-8.272,27.351-20.551,37.184
	C266.959,363.17,268.254,367.908,269.976,372.485z M90.256,283.652c-4.841,0-8.706,0-12.591,0
	c-0.713,5.677-1.108,10.906-2.083,16.024c-1.03,5.405-2.613,10.704-4.128,16.741c4.938,12.57,12.427,24.065,23.203,33.27
	c3.316,2.832,7.001,5.15,12.546,3.278c6.89-11.016,2.776-23.49,3.571-36.251C98.998,308.013,94.881,295.204,90.256,283.652z
	 M404.571,350.574c11.441-9.428,19.381-21.299,23.837-33.183c-2.402-12.769-4.426-23.523-6.407-34.052c-4.052,0-7.716,0-12.075,0
	c-4.25,12.496-9.142,24.825-20.268,33.408c0.472,12.354-3.146,24.743,3.338,36.316C398.282,354.493,401.652,352.98,404.571,350.574z
	 M396.307,190.284c-11.55-10.483-18.029-24.207-25.909-37.336c-3.144,0.216-6.064,0.417-9.344,0.643
	c1.336,12.893,0.387,24.658-7.205,35.445c4.26,7.653,8.226,15.242,12.637,22.564c4.008,6.654,9.873,9.95,18.585,7.946
	C395.095,211.953,394.642,200.832,396.307,190.284z M138.881,153.463c-3.585,0-6.516,0-9.481,0
	c-7.39,13.493-14.587,26.717-25.306,37.045c3.277,21.957,3.472,22.435,11.8,29.179c7.932,1.884,13.83-1.323,17.861-7.991
	c4.423-7.318,8.408-14.901,12.878-22.893C138.192,177.748,138.556,165.717,138.881,153.463z M56.789,229.223
	c-2.273,0.227-3.98,0.397-5.74,0.573c-3.444,16.287-6.793,32.123-10.6,50.122c3.705,9.512,5.493,22.329,15.974,31.257
	c2.499-0.17,4.89-0.332,6.922-0.47c6.215-8.137,6.6-10.152,6.553-34.621C59.229,262.804,59.436,245.752,56.789,229.223z
	 M447.875,307.434c6.227-8.282,9.088-18.03,11.905-27.756c0.459-1.586-0.258-3.583-0.662-5.338
	c-1.577-6.857-3.357-13.669-4.851-20.544c-1.742-8.018-3.265-16.083-4.88-24.116c-2.411,0-4.129,0-6.185,0
	c-1.824,16.828-2.877,33.526-12.921,47.002c0.434,11.982-1.031,23.517,5.782,33.847c2.717,0.266,5.106,0.5,9.054,0.887
	C446.103,309.986,446.942,308.675,447.875,307.434z M418.283,169.652c-1.5-10.743-4.863-19.865-14.17-26.651
	c-5.905-4.306-10.419-10.48-15.831-15.521c-2.524-2.35-5.194-5.361-10.04-3.785c-0.927,9.139,5.321,18.073,0.291,26.43
	c1.93,3.62,3.34,6.724,5.151,9.572c4.286,6.744,8.421,13.627,13.261,19.962c4.323,5.658,10.04,9.142,18.472,6.126
	C418.543,180.566,419.093,175.452,418.283,169.652z M105.367,134.258c-5.826,5.928-11.644,11.863-18.901,19.259
	c-2.218,9.569-8.162,21.009-0.971,32.524c10.241,2.91,15.923-2.62,20.434-9.045c6.001-8.548,11.13-17.709,16.671-26.666
	c-6.398-9.381,1.973-18.606-0.313-28.448C114.54,124.391,110.064,129.479,105.367,134.258z M136.716,378.954
	c5.315,2.443,10.516,3.485,15.63-0.404c3.661-7.747,3.793-9.005,2.089-20.813c-13.009-8.974-19.047-23.142-24.82-37.022
	c-3.939,0-7.219,0-11.155,0c0.442,12.503,2.77,24.818-2.751,37.101C121.735,366.532,127.283,374.618,136.716,378.954z
	 M363.513,378.978c9.582-4.582,15.654-12.499,20.334-20.562c-1.196-7.016-2.447-13.007-3.186-19.061
	c-0.763-6.252,2.771-12.565,0.425-18.64c-3.816,0-7.133,0-10.646,0c-5.416,14.844-12.339,28.425-25.131,37.626
	c-0.306,7.232-1.712,14.05,2.38,19.977C352.989,382.442,358.233,381.503,363.513,378.978z M457.429,220.114
	c-1.025,4.089-1.182,7.799-0.585,11.747c0.367,2.429,0.761,4.864,1.331,7.251c2.35,9.854,4.655,19.722,7.258,29.511
	c0.56,2.106,2.288,3.9,3.457,5.804c5.54-1.854,6.373-6.195,7.336-9.795c3.473-12.99,2.743-26.318,2.216-39.581
	c-0.058-1.451-0.945-2.892-1.549-4.293c-3.532-8.194-7.068-16.386-10.687-24.541c-0.335-0.754-1.26-1.246-2.018-1.961
	c-1.197,0.432-2.334,0.843-3.149,1.137C459.814,204.409,459.351,212.444,457.429,220.114z M35.46,267.068
	c2.978-12.862,5.849-25.753,8.379-38.708c0.488-2.498-0.761-5.322-1.141-8.005c-0.817-5.766-1.683-11.528-2.337-17.314
	c-0.269-2.383-0.045-4.822-0.045-7.342c-1.936-0.589-3.32-1.011-4.963-1.511c-4.499,9.905-8.813,19.388-13.102,28.882
	c-0.248,0.549-0.386,1.189-0.406,1.792c-0.443,13.57-1.326,27.205,2.471,40.467c0.95,3.32,1.7,7.383,5.878,8.669
	C34.309,273.348,34.803,269.906,35.46,267.068z M440.332,219.738c2.992,0,5.67,0,8.412,0c6.98-9.267,3.056-19.221,3.475-26.734
	c-9.558-14.339-18.047-27.074-26.696-40.05c-1.445,0.298-2.821,0.581-4.408,0.908c4.043,11.137,5.336,21.932,2.047,33.695
	C427.787,199.057,430.666,211.255,440.332,219.738z M47.949,193.162c0.907,8.014-3.942,18.237,4.397,27.006
	c2.766-0.142,5.443-0.279,7.869-0.404c9.59-9.377,12.718-21.394,16.999-32.539c-3.619-11.537-1.819-22.545,1.952-33.702
	c-1.967-0.205-3.136-0.327-4.435-0.463C65.69,166.599,57.176,179.347,47.949,193.162z M457.121,344.73
	c4.483-6.915,8.222-14.313,12.28-21.504c3.315-5.875,3.436-12.234,3.138-18.758c-0.292-6.385-0.094-12.791-0.175-19.187
	c-0.007-0.52-0.502-1.034-0.843-1.689c-1.655,0-3.379,0-5.137,0c-4.065,12.343-8.861,23.916-16.608,33.454
	c-1.48,6.125-3.547,11.715-4.014,17.435c-0.478,5.859-4.261,11.843,0.009,18.418C453.294,349.711,453.715,349.984,457.121,344.73z
	 M27.823,304.75c0.022,3.692-0.692,7.659,0.401,11.024c3.536,10.889,8.206,21.337,15.8,30.135c2.781,3.223,5.817,6.302,11.278,6.751
	c3.006-12.726-3.355-24.036-4.451-35.381c-8.682-10.393-12.842-22.33-17.345-34.137c-1.957,0.132-3.439,0.232-5.694,0.383
	C27.812,291.266,27.783,298.008,27.823,304.75z M63.672,348.071c0.711,3.883,0.65,8.074,2.155,11.608
	c2.672,6.276,6.934,11.71,12.42,15.858c5.212,3.941,10.97,6.648,18.117,4.97c0.452-1.272,1.385-2.513,1.159-3.483
	c-1.82-7.78-3.749-15.479-9.599-21.571c-8.585-8.938-15.744-18.923-20.918-30.256c-0.738-1.617-1.707-3.129-2.664-4.862
	c-1.783,0.117-3.24,0.213-5.748,0.378C60.433,330.609,62.073,339.336,63.672,348.071z M411.047,357.019
	c-5.177,5.565-6.811,12.952-8.229,20.213c-0.19,0.973,0.807,2.179,1.312,3.417c7.099,1.318,13.135-0.971,18.055-5.288
	c7.442-6.531,13.504-13.756,14.134-24.782c0.52-9.107,3.281-18.082,4.963-27.132c0.145-0.781-0.349-1.68-0.598-2.746
	c-1.67,0-3.139,0-5.495,0C429.542,334.802,420.986,346.335,411.047,357.019z M463.259,177.177c-0.872-4.173-2.15-8.317-3.753-12.272
	c-6.077-14.993-17.238-25.988-29.256-36.192c-2.184-1.854-4.695-4.118-8.411-2.774c0.201,0.934,0.24,1.815,0.581,2.556
	c0.896,1.948,1.893,3.851,2.907,5.742c1.449,2.704,3.416,5.23,4.348,8.096c4.738,14.571,13.992,26.484,22.555,38.787
	c1.843,2.648,3.943,5.652,8.672,5.595C464.283,183.94,463.932,180.399,463.259,177.177z M49.772,178.944
	c12.177-15.607,19.871-33.702,28.472-51.292c0.217-0.444,0.027-1.086,0.027-1.979c-4.152-0.718-7.066,1.695-9.647,4.166
	c-5.993,5.738-12.165,11.379-17.469,17.724c-6.743,8.065-11.463,17.396-13.702,27.806c-0.837,3.891-1.74,7.835,2.122,11.654
	C44.921,186.058,47.162,182.29,49.772,178.944z M486.547,229.745c-2.775,2.398-2.278,5.632-2.371,8.601
	c-0.415,13.202-0.431,26.445-5.346,39.034c-0.322,0.826-0.304,1.825-0.282,2.739c0.237,9.487-0.631,19.075,2.464,28.354
	C496.168,297.806,496.641,248.745,486.547,229.745z M11.466,296.85c1.555,4.33,3.649,8.656,7.938,11.845
	c2.851-10.638,4.127-21.211,1.765-30.818c-3.269-13.298-4.595-26.536-5.064-40.042c-0.091-2.618-0.75-5.216-1.147-7.823
	C5.478,248.343,4.666,277.916,11.466,296.85z M459.336,154.793c1.36,3.203,2.171,5.402,3.203,7.492
	c3.691,7.471,6.372,14.996,7.368,23.556c1.389,11.94,6.314,22.945,15.03,32.293C488.553,199.28,475.292,165.807,459.336,154.793z
	 M15.675,218.038c8.502-9.838,13.517-20.986,14.902-33.382c0.739-6.619,2.473-12.602,5.313-18.452
	c1.596-3.286,3.097-6.618,4.641-9.93C24.316,167.274,11.244,200.936,15.675,218.038z M23.839,328.924
	c2.954,10.721,6.889,21.107,13.121,30.338c2.879,4.265,6.791,7.971,10.746,11.328c2.913,2.473,6.544,4.523,11.362,2.382
	c-1.399-2.413-2.411-4.641-3.86-6.535c-1.861-2.433-3.857-4.85-6.172-6.834c-8.106-6.945-13.914-15.573-18.864-24.88
	c-1.837-3.455-3.688-6.903-6.382-11.943C23.788,326.029,23.466,327.572,23.839,328.924z M473.484,328.208
	c-6.018,12.625-13.51,24.101-24.19,33.433c-3.331,2.91-5.529,7.116-8.55,11.132c5.36,2.334,9.039,0.329,11.917-2.225
	c4.103-3.641,8.052-7.674,11.166-12.164c6.005-8.66,9.418-18.615,12.498-28.626c0.498-1.618,0.218-3.475,0.384-7.109
	C474.971,325.626,474.123,326.867,473.484,328.208z"/>
</svg>
