<?xml version="1.0" encoding="iso-8859-1"?>
<!-- Generator: Adobe Illustrator 19.0.0, SVG Export Plug-In . SVG Version: 6.00 Build 0)  -->
<svg version="1.1" id="Layer_1" xmlns="http://www.w3.org/2000/svg" xmlns:xlink="http://www.w3.org/1999/xlink" x="0px" y="0px"
	 viewBox="0 0 2000 2000" style="enable-background:new 0 0 2000 2000;" xml:space="preserve">
<path d="M1867.645,1002.232c0.003,136.317-2.683,272.71,1.168,408.919c1.847,65.323-25.986,106.667-78.682,136.905
	c-67.512,38.741-135.406,76.816-202.903,115.584c-172.099,98.846-344.345,197.441-515.915,297.198
	c-49.071,28.532-94.265,26.503-142.964-1.78c-238.94-138.768-478.059-277.257-718.603-413.211
	c-48.787-27.574-70.726-64.478-71.673-117.568c-0.454-25.438-0.324-50.888-0.326-76.333c-0.02-238.101-0.012-476.201-0.012-714.302
	c0-10.905,0.849-21.888-0.134-32.704c-6.51-71.624,24.583-117.879,87.477-153.389c234.26-132.264,467.042-267.184,698.992-403.469
	c52.935-31.102,99.054-33.381,152.23-2.135c239.667,140.829,480.063,280.434,721.158,418.803
	c49.555,28.44,71.57,66.104,70.794,123.086C1866.373,725.945,1867.642,864.098,1867.645,1002.232z M1552.114,944.862
	c15.742-73.524,9.42-146.112,6.921-218.511c-1.326-38.416-23.555-61.862-55.749-80.262
	c-148.809-85.052-296.954-171.267-445.492-256.795c-37.336-21.498-74.46-21.927-112.661,0.335
	c-82.571,48.119-166.16,94.49-248.85,142.408c-68.751,39.84-136.852,80.804-205.167,121.396
	c-35.811,21.279-53.144,52.257-51.876,94.574c1.252,41.76,1.504,83.635-0.095,125.372c-1.65,43.074,16.563,70.803,54.471,91.156
	c127.05,68.215,252.965,138.543,379.551,207.629c29.928,16.334,59.765,33.675,91.502,45.609
	c29.678,11.16,62.371-4.367,73.985-28.919c13.555-28.654,5.601-63.293-20.207-82.427c-13.016-9.651-27.212-17.864-41.437-25.707
	c-134.075-73.921-268.271-147.622-402.782-221.579c0-35.718,0-69.818,0-104.578c142.948-82.537,284.688-164.376,427.668-246.931
	c143.356,83.144,284.988,165.288,428.702,248.639c0,21.34-0.049,39.271,0.011,57.201c0.097,29.074-2.915,58.641,1.489,87.053
	c3.088,19.919,11.936,42.826,25.967,56.356C1486.745,984.537,1500.734,980.981,1552.114,944.862z M572.086,1250.762
	c0-56.242,0.542-101.665-0.184-147.067c-0.513-32.105-23.963-47.713-48.839-59.823c-23.644-11.51-41.758,3.071-58.523,17.764
	c-17.261,15.128-26.039,33.456-25.387,57.46c1.233,45.42,2.137,90.989-0.145,136.328c-2.509,49.854,20.7,82.602,61.597,106.054
	c75.269,43.16,150.605,86.202,225.906,129.305c78.21,44.768,156.67,89.109,234.483,134.558
	c27.991,16.349,53.947,18.616,81.289-0.648c10.25-7.222,22.779-11.112,33.744-17.432
	c140.726-81.125,280.825-163.359,422.334-243.092c42.981-24.218,62.676-58.139,63.005-105.53
	c0.291-41.815-1.264-83.688,0.398-125.439c2.185-54.909-20.372-90.853-69.729-117.096
	c-82.798-44.023-162.557-93.737-243.925-140.482c-61.038-35.065-122.935-68.645-183.727-104.124
	c-20.043-11.698-36.915-10.563-55.601,1.654c-50.058,32.728-50.149,86.077,2.76,117.599
	c86.933,51.793,175.444,100.933,262.989,151.708c52.748,30.593,104.929,62.164,156.107,92.549c0,28.23-1.681,50.132,0.401,71.671
	c2.985,30.885-7.139,50.795-35.87,65.598c-44.851,23.107-87.424,50.608-131.205,75.826
	c-85.869,49.463-171.905,98.635-262.558,150.615C858.488,1416.174,715.26,1333.452,572.086,1250.762z"/>
</svg>
