<?xml version="1.0" encoding="iso-8859-1"?>
<!-- Generator: Adobe Illustrator 19.0.0, SVG Export Plug-In . SVG Version: 6.00 Build 0)  -->
<svg version="1.1" id="Layer_1" xmlns="http://www.w3.org/2000/svg" xmlns:xlink="http://www.w3.org/1999/xlink" x="0px" y="0px"
	 viewBox="0 0 500 500" style="enable-background:new 0 0 500 500;" xml:space="preserve">
<path d="M437.772,263.34c0,0-7.104-30.542-26.206-52.657c-22.647-26.219-43.522-38.979-43.522-38.979V75.526c0,0-92.571,0-133.446,0
	s-107.7,25.912-107.7,102.854s82.351,102.955,106.395,102.955s48.736,5.441,49.162,42.522c0.42,36.545-58.677,32.989-79.115,29.382
	c-20.438-3.607-160.637-37.753-149.075-175.523C68.593,7,228.587,7,228.587,7h209.186V263.34z M54.277,491.556l209.185-0.382
	c0,0,159.994-0.292,174.01-171.032c11.311-137.791-128.95-171.682-149.395-175.251c-20.444-3.569-79.548-7.018-79.061,29.526
	c0.494,37.079,25.195,42.476,49.24,42.432c24.044-0.044,106.442,25.819,106.583,102.76s-66.637,102.975-107.512,103.05
	c-40.875,0.075-133.446,0.243-133.446,0.243l-0.175-96.177c0,0-20.899-12.722-43.593-38.9
	c-19.142-22.08-26.302-52.609-26.302-52.609L54.277,491.556z"/>
</svg>
