<?xml version="1.0" encoding="iso-8859-1"?>
<!-- Generator: Adobe Illustrator 19.0.0, SVG Export Plug-In . SVG Version: 6.00 Build 0)  -->
<svg version="1.1" id="Layer_1" xmlns="http://www.w3.org/2000/svg" xmlns:xlink="http://www.w3.org/1999/xlink" x="0px" y="0px"
	 viewBox="0 0 2000 2000" style="enable-background:new 0 0 2000 2000;" xml:space="preserve">
<path d="M478.062,1672.69c-15.065-7.829-37.108-16.141-55.577-29.424c-81.09-58.323-159.732-120.16-242.236-176.356
	c-35.633-24.271-49.176-56.514-49.386-93.67c-1.425-251.64-1.044-503.292-0.472-754.938c0.105-46.18,30.258-77.91,64.33-101.31
	c166.815-114.566,335.068-227.041,503.067-339.875c69.999-47.014,139.109-95.634,211.418-138.846
	c67.995-40.634,135.935-31.946,200.074,14.521c96.66,70.027,194.048,139.048,297.454,213.023
	c-80.33,55.685-152.094,105.145-223.562,155.03C1018.928,535.486,856.4,652.681,690.031,764.147
	c-88.216,59.105-107.575,96.566-125.949,176.573c69.976,45.55,141.895,90.76,211.968,138.668
	c34.112,23.322,65.902,50.428,96.777,78.021c69.879,62.453,60.492,167.894,4.603,225.82
	c-44.037,45.641-98.013,82.31-150.098,119.422C648.292,1558.972,567.063,1612.223,478.062,1672.69z M1168.224,564.618
	c-127.801,90.579-135.512,231.112-3.683,321.079c85.368,58.259,172.205,114.364,258.893,171.771
	c0.81,48.528-18.21,88.909-51.81,119.113c-41.144,36.986-86.098,70.068-131.35,102.089
	c-139.209,98.507-279.28,195.796-419.147,293.37c-75,52.322-150.269,104.259-232.574,161.334
	c104.869,75.396,202.863,148.816,304.048,217.539c65.938,44.784,138.941,41.439,203.826-1.182
	c223.469-146.788,444.961-296.585,667.044-445.478c52.748-35.364,104.443-71.199,94.615-147.807
	c-3.356-26.159-0.53-53.112-0.53-79.702c0.001-216.898,1.303-433.814-1.606-650.673c-0.374-27.861-15.104-64.875-36.019-81.517
	c-96.816-77.034-198.165-148.372-299.956-223.271C1399.981,404.142,1283.211,483.121,1168.224,564.618z"/>
</svg>
