<?xml version="1.0" encoding="iso-8859-1"?>
<!-- Generator: Adobe Illustrator 19.0.0, SVG Export Plug-In . SVG Version: 6.00 Build 0)  -->
<svg version="1.1" id="Layer_1" xmlns="http://www.w3.org/2000/svg" xmlns:xlink="http://www.w3.org/1999/xlink" x="0px" y="0px"
	 viewBox="0 0 2000 2000" style="enable-background:new 0 0 2000 2000;" xml:space="preserve">
<path d="M974.335,77.809c-51.954,10.56-103.874,21.293-155.87,31.642c-86.643,17.245-173.339,34.226-260.005,51.355
	c-61.164,12.089-122.398,23.847-183.445,36.503c-39.645,8.219-79.249,16.863-118.429,27.025
	c-34.465,8.94-55.645,39.16-53.503,79.628c4.153,78.461,10.2,156.833,16.264,235.18c7.968,102.951,17.151,205.807,25.009,308.766
	c10.071,131.95,19.306,263.964,28.97,395.945c8.924,121.875,17.339,243.791,27.172,365.593
	c4.714,58.396,27.671,76.749,86.158,80.377c89.964,5.581,179.762,13.802,269.666,20.41c107.305,7.888,214.664,15.045,321.971,22.906
	c121.853,8.926,243.706,17.885,365.5,27.569c102.918,8.183,205.704,18.096,308.671,25.561c18.026,1.307,40.827-0.223,53.969-10.231
	c17.117-13.035,33.505-34.206,38.514-54.729c22.679-92.914,41.172-186.849,61.299-280.389
	c30.807-143.177,61.651-286.346,92.746-429.461c2.004-9.222,6.295-17.947,17.322-27.045c2.487,8.426,7.099,16.839,7.15,25.279
	c1.244,205.251,1.4,410.51,3.175,615.755c0.624,72.14-18.062,133.693-75.593,181.972c-31.002,26.016-57.055,57.918-85.425,87.083
	c-48.647,50.009-104.834,77.391-177.656,77.438c-412.069,0.262-824.138,3.052-1236.204,5.482
	c-64.191,0.379-119.424-16.39-163.555-66.501c-37.435-42.509-78.254-82.067-118.104-122.408
	c-32.433-32.834-47.477-72.342-47.594-117.908c-1.075-417.871-2.302-835.741-2.662-1253.613
	c-0.03-34.674,3.384-69.867,10.164-103.828c3.76-18.831,14.627-38.567,27.809-52.776c47.43-51.128,97.302-99.988,146.062-149.888
	c27.465-28.107,59.361-45.549,99.804-45.486c114.954,0.181,229.909-0.188,344.864-0.116c96.103,0.06,192.206,0.342,288.308,0.783
	c12.351,0.057,24.694,1.66,37.041,2.547C974.044,71.422,974.19,74.615,974.335,77.809z M1976.025,441.692
	c-4.262-232.989-186.712-424.272-434.667-423.803c-241.983,0.458-427.585,194.004-427.381,425.822
	c0.219,249.583,203.884,435.327,432.306,428.869C1782.807,877.384,1980.343,677.725,1976.025,441.692z M1043.135,798.69
	c-150.073,167.898-300.988,335.062-449.354,504.457c-41.768,47.688-76.599,101.548-113.406,153.433
	c-13.451,18.961-22.76,40.511-11.571,65.94c31.712,12.031,58.148-4.728,80.415-20.542c55.398-39.344,109.556-80.846,161.134-125.071
	c121.287-103.996,240.887-209.962,360.936-315.397c46.707-41.022,92.782-82.763,135.479-120.902
	c-51.393-50.693-101.263-99.884-152.586-150.508C1051.818,791.903,1046.749,794.646,1043.135,798.69z M932.69,426.133
	C823.974,552.523,715.207,678.87,606.947,805.65c-50.79,59.479-103.774,117.461-140.271,187.634
	c-11.821,22.729-26.979,45.211-11.166,78.311c11.958-3.248,25.17-3.877,34.93-10.005c40.211-25.248,81.862-49.132,118.404-79.101
	c75.086-61.582,147.259-126.718,220.578-190.452c53.362-46.386,106.638-92.87,154.113-134.223
	c-10.353-86.31-19.906-165.955-30.067-250.667C945.047,414.768,938.127,419.813,932.69,426.133z M984.584,1405.166
	c-22.354,26.155-38.356,57.826-56.582,87.389c-11.045,17.915-16.986,36.614,2.375,58.679c14.225-4.92,30.304-7.669,43.32-15.504
	c40.835-24.581,83.743-47.212,120.064-77.528c130.417-108.855,258.417-220.605,387.424-331.151
	c31.118-26.665,62.594-52.911,98.689-83.387c-87.394-11.43-167.204-21.868-253.043-33.094
	C1212.685,1141.825,1097.761,1272.749,984.584,1405.166z"/>
</svg>
