<?xml version="1.0" encoding="iso-8859-1"?>
<!-- Generator: Adobe Illustrator 19.0.0, SVG Export Plug-In . SVG Version: 6.00 Build 0)  -->
<svg version="1.1" id="Layer_1" xmlns="http://www.w3.org/2000/svg" xmlns:xlink="http://www.w3.org/1999/xlink" x="0px" y="0px"
	 viewBox="0 0 2000 2000" style="enable-background:new 0 0 2000 2000;" xml:space="preserve">
<path d="M999.379,1979.79c-540.201-3.255-970.712-434.685-973.643-968.925C22.74,464.846,462.471,28.004,1005.403,30.469
	c533.284,2.421,969.35,433.322,968.939,974.536C1973.93,1545.934,1539.907,1976.949,999.379,1979.79z M1397.91,321.555
	c0.559-0.842,1.118-1.684,1.677-2.526c-2.761-0.927-5.708-1.5-8.251-2.84c-11.95-6.298-23.661-13.057-35.687-19.2
	c-93.904-47.964-193.895-75.46-298.696-82.528c-59.885-4.039-120.071-2.261-179.943,7.794
	c-59.623,10.013-117.5,25.12-173.353,47.905C602.598,311.387,513.79,370.667,436.963,448.62
	c-43.558,44.196-81.574,92.326-113.867,144.964c-66.583,108.533-104.424,226.933-113.362,353.631
	c-3.447,48.859-0.922,98.489,3.077,147.425c3.799,46.495,14.198,92.282,28.12,137.071c16.891,54.344,38.787,106.305,66.319,156.319
	c28.068,50.99,61.345,98.049,99.491,141.489c41.147,46.857,87.955,88.021,138.84,124.162c19.671,13.972,40.864,25.842,61.633,38.219
	c102.901,61.327,215.081,94.11,333.751,103.132c60.877,4.629,122.106,2.627,182.928-7.752
	c51.166-8.732,101.106-21.083,149.703-39.044c111.948-41.377,209.999-104.316,292.422-190.776
	c24.094-25.275,47.783-51.291,68.68-79.198c91.937-122.78,143.749-261.359,155.556-414.069c4.168-53.907,2.64-108.186-4.791-162.242
	c-6.938-50.469-18.184-99.691-33.87-148.01c-18.959-58.399-46.25-112.956-77.374-165.675c-1.293-2.189-5.491-2.663-8.365-3.949
	c1.06-1.637,3.172-3.86,2.786-4.451c-65.563-100.394-148.708-183.096-249.939-247.467
	C1412.128,328.219,1404.856,325.144,1397.91,321.555z M774.377,1552.096c35.603,4.772,71.097,11.483,106.86,13.584
	c31.925,1.875,64.166-1.022,96.239-2.453c32.017-1.428,62.853-9.161,92.866-19.993c72.543-26.18,130.268-72.815,179.136-131.284
	c48.9-58.507,73.176-127.459,82.087-202.011c4.583-38.348,3.003-76.952-2.15-115.519c-6.036-45.181-17.634-88.434-35.854-130.187
	c-27.424-62.846-68.833-114.763-122.092-157.268c-25.706-20.516-53.048-38.709-84.503-49.966
	c-41.951-15.014-85.881-1.855-110.093,33.538c-11.227,16.412-19.561,34.244-21.569,53.426c-3.579,34.201,1.265,62.966,41.39,82.621
	c34.924,17.108,67.816,38.008,97.208,63.956c27.805,24.547,48.369,52.652,51.545,91.374c3.243,39.548,5.727,79.016-3.767,117.954
	c-13.739,56.348-43.4,102.553-91.228,136.025c-42.725,29.9-91.487,41.64-142.725,42.865c-25.342,0.606-50.773-2.482-77.928-3.997
	c-23.768,56.395-48.052,114.014-73.439,174.247C763.948,1550.321,769.138,1551.394,774.377,1552.096z M1097.888,422.96
	c-3.956-0.595-7.996-0.732-12.006-0.865c-44.292-1.471-87.898,3.896-130.587,15.258c-106.137,28.247-192.841,85.35-256.389,175.775
	c-38.02,54.1-60.412,114.699-66.543,180.123c-3.724,39.737-2.177,79.943,4.818,119.888c7.953,45.411,20.819,88.924,41.242,130.146
	c29.195,58.928,70.368,108.108,123.068,147.337c24.824,18.479,50.972,34.675,80.827,44.694
	c39.208,13.157,81.374-2.616,102.649-32.205c17.043-23.703,25.555-49.073,24.149-78.228c-1.165-24.154-9.126-43.738-32.012-55.058
	c-6.704-3.315-13.173-7.114-19.69-10.797c-37.479-21.182-74.208-43.319-103.943-75.296c-14.943-16.069-27.032-33.934-31.339-55.383
	c-8.041-40.054-8.294-80.494-3.724-121.171c4.746-42.246,22.043-78.948,50.057-109.638c53.17-58.249,119.864-88.191,199.289-88.283
	c8.345-0.01,16.69-0.001,24.787-0.001c5.383-62.34,10.581-122.55,15.851-183.585C1104.499,424.636,1101.244,423.465,1097.888,422.96
	z"/>
</svg>
