<?xml version="1.0" encoding="iso-8859-1"?>
<!-- Generator: Adobe Illustrator 19.0.0, SVG Export Plug-In . SVG Version: 6.00 Build 0)  -->
<svg version="1.1" id="Layer_1" xmlns="http://www.w3.org/2000/svg" xmlns:xlink="http://www.w3.org/1999/xlink" x="0px" y="0px"
	 viewBox="0 0 2000 2000" style="enable-background:new 0 0 2000 2000;" xml:space="preserve">
<path d="M1553.052,573.778c139.523,0,278.634,0,425.374,0c-317.188,457.446-630.279,908.984-950.714,1371.112
	c-4.2-51.546-7.443-91.711-10.749-131.871c-9.348-113.558-19.451-227.064-27.13-340.734c-0.923-13.656,9.099-29.669,17.657-42.106
	c130.4-189.504,261.401-378.593,398.246-576.429c-106.409-100.606-213.652-202.001-314.448-297.302
	c-14.467-169.891-27.844-326.978-42.516-499.28C1222.561,235.206,1387.068,403.735,1553.052,573.778z M959.686,83.48
	C649.564,530.461,339.442,977.441,25.506,1429.92c143.557,0,278.342,0,396.734,0c180.672,171.713,351.905,334.455,523.286,497.338
	c-13.314-152.967-26.897-309.038-42.388-487.021c-93.98-88.11-200.155-187.653-305.824-286.721
	c6.66-14.974,9.188-24.291,14.369-31.769c114.646-165.477,228.405-331.591,345.2-495.542c34.267-48.103,56.073-92.42,47.59-156.045
	c-16.923-126.928-22.941-255.309-33.464-383.09C967.234,85.873,963.46,84.676,959.686,83.48z"/>
</svg>
