<?xml version="1.0" encoding="iso-8859-1"?>
<!-- Generator: Adobe Illustrator 19.0.0, SVG Export Plug-In . SVG Version: 6.00 Build 0)  -->
<svg version="1.1" id="Layer_1" xmlns="http://www.w3.org/2000/svg" xmlns:xlink="http://www.w3.org/1999/xlink" x="0px" y="0px"
	 viewBox="0 0 2000 2000" style="enable-background:new 0 0 2000 2000;" xml:space="preserve">
<path d="M1002.859,1982.456c-529.579,4.387-983.918-421.992-986.033-978.261C14.737,454.843,449.715,18.318,996.046,15.028
	c556.385-3.35,987.321,445.875,988.927,978.477C1986.628,1542.108,1550.682,1980.892,1002.859,1982.456z M997.615,1528.921
	c11.295-3.316,21.729-6.304,32.118-9.443c35.245-10.65,71.705-18.413,105.492-32.555
	c133.589-55.918,209.132-174.635,203.819-316.306c-2.934-78.228-37.156-138.67-105.483-177.246
	c-29.711-16.774-61.63-30.223-93.678-42.139c-56.271-20.922-114.093-37.764-169.959-59.651
	c-39.665-15.54-70.675-42.682-80.226-87.355c-16.457-76.971,26.97-143.897,110.429-160.922
	c42.279-8.624,87.735-12.715,130.161-7.009c65.03,8.746,129.014,26.44,192.797,42.844c37.187,9.564,55.196,1.466,64.073-36.277
	c5.897-25.07,11.725-50.166,16.917-75.388c1.624-7.891,1.074-16.229,1.743-28.464c-68.677-18.864-135.407-37.193-205.511-56.449
	c3.939-47.579,7.969-96.271,12.124-146.451c-23.926-6.472-41.122-11.2-58.361-15.764c-18.016-4.77-28.44,3.377-31.694,20.529
	c-2.552,13.453-3.097,27.276-4.792,40.903c-3.882,31.199-7.923,62.378-11.934,93.833c-25.089,0-46.943,0-70.864,0
	c0-10.235-0.684-18.583,0.126-26.783c2.617-26.487,5.017-53.035,8.962-79.34c3.641-24.274-6.253-37.74-29.436-42.822
	c-7.547-1.654-15.081-3.366-22.645-4.938c-26.404-5.488-35.085,0.027-38.341,26.341c-4.006,32.375-9.648,64.875-9.682,97.326
	c-0.037,34.599-14.172,50.644-46.905,62.167c-102.771,36.179-171.45,107.32-194.634,215.113
	c-22.43,104.287-7.331,201.298,86.798,266.335c41.53,28.695,91.676,45.846,139.409,64.381
	c49.484,19.216,101.875,31.076,150.996,51.065c55.346,22.522,75.623,66.876,63.577,125.471
	c-10.378,50.484-39.985,86.838-85.021,110.377c-84.818,44.332-175.678,44.54-266.554,29.852
	c-49.64-8.023-97.865-25.148-146.474-39.061c-28.284-8.095-47.903-2.534-54.404,21.602c-9.536,35.405-15.785,71.696-23.786,109.257
	c52.037,33.709,110.657,43.97,168.146,59.86c0,11.246,0.722,20.568-0.142,29.741c-2.173,23.073-6.742,46.067-6.897,69.116
	c-0.069,10.265,5.593,26.385,13.15,29.749c19.587,8.719,41.67,11.832,69.779,18.964c6.689-47.616,12.531-89.204,18.442-131.279
	c25.479,0,47.818,0,73.821,0c-2.423,21.118-4.062,38.842-6.55,56.447c-7.245,51.26-3.451,56.82,47.667,67.63
	c29.158,6.166,37.25,0.293,40.749-29.155C988.972,1599.078,993.194,1565.151,997.615,1528.921z"/>
</svg>
