<?xml version="1.0" encoding="iso-8859-1"?>
<!-- Generator: Adobe Illustrator 19.0.0, SVG Export Plug-In . SVG Version: 6.00 Build 0)  -->
<svg version="1.1" id="Layer_1" xmlns="http://www.w3.org/2000/svg" xmlns:xlink="http://www.w3.org/1999/xlink" x="0px" y="0px"
	 viewBox="0 0 2000 2000" style="enable-background:new 0 0 2000 2000;" xml:space="preserve">
<path d="M1243.077,1981.986c-111.849,3.264-205.176-39.909-283.677-116.545c-132.793-129.637-265.983-258.935-396.055-391.276
	c-168.44-171.379-157.056-421.783,23.259-581.167c83.476-73.786,82.901-109.328-2.983-184.215
	C415.895,562.532,397.773,317.041,542.425,150.73C686.069-14.422,936.374-32.71,1099.91,118.207
	c146.462,135.16,288.539,275.556,425.891,419.976c156.898,164.971,141.75,411.031-26.79,563.523
	c-93.349,84.46-93.09,108.138,2.131,195.126c123.217,112.564,164.671,279.502,107.324,432.202
	C1550.936,1882.218,1408.215,1981.01,1243.077,1981.986z M1226.236,417.091c-24.986,1.739-44.062,0.507-61.856,4.708
	c-152.618,36.026-258.091,127.787-300.17,278.742c-44.047,158.019,1.767,294.716,124.451,404.375
	c83.752,74.861,84.649,112.277,1.729,185.114c-86.536,76.014-136.652,168.415-138.152,288.555
	c16.932,1.191,27.782,3.448,38.281,2.348c16.387-1.717,32.959-4.28,48.718-8.96c147.414-43.774,245.568-139.592,279.56-289.06
	c34.594-152.113-9.732-284.335-128.839-388.398c-85.992-75.13-86.289-108.865-1.155-184.361
	C1174.934,633.775,1226.093,541.214,1226.236,417.091z"/>
</svg>
