<?xml version="1.0" encoding="iso-8859-1"?>
<!-- Generator: Adobe Illustrator 19.0.0, SVG Export Plug-In . SVG Version: 6.00 Build 0)  -->
<svg version="1.1" id="Layer_1" xmlns="http://www.w3.org/2000/svg" xmlns:xlink="http://www.w3.org/1999/xlink" x="0px" y="0px"
	 viewBox="0 0 500 500" style="enable-background:new 0 0 500 500;" xml:space="preserve">
<path id="XMLID_4_" d="M250.667,491.201c-2.87-3.619-1.825-7.522-0.7-11.352c2.693-9.169,5.581-18.282,8.221-27.466
	c4.942-17.192,8.179-34.608,7.289-52.647c-0.492-9.959-2.606-19.536-6.43-28.619c-7.62-18.1-15.365-36.162-23.632-53.973
	c-17.436-37.569-35.575-74.814-52.764-112.494c-9.366-20.531-16.705-41.861-21.955-63.933c-4.818-20.253-2.223-38.998,8.496-56.69
	c17.195-28.38,39.407-52.004,67.063-70.438c0.622-0.415,1.092-1.058,1.633-1.595c1.597,0,3.195,0,4.792,0
	c-1.328,13.207-2.748,26.405-3.964,39.621c-2.64,28.69-1.533,56.858,11.249,83.524c14.475,30.199,28.673,60.53,43.084,90.76
	c14.758,30.957,29.583,61.882,41.256,94.185c4.792,13.26,8.836,26.704,11.219,40.672c1.865,10.931,0.9,21.322-4.366,30.969
	c-4.958,9.083-10.14,18.131-16.142,26.539c-15.199,21.294-32.604,40.732-52.264,58.01c-6.32,5.554-13.63,9.982-20.487,14.925
	C251.732,491.201,251.199,491.201,250.667,491.201z M479.088,339.452c-0.384-0.671-0.933-1.299-1.126-2.021
	c-2.738-10.245-4.836-20.705-8.244-30.719c-8.835-25.962-20.935-50.556-32.652-75.298c-11.943-25.219-23.871-50.445-35.644-75.743
	c-7.02-15.086-8.499-31.282-7.846-47.582c0.456-11.394,2.377-22.725,3.472-34.1c0.32-3.322,0.049-6.701,0.049-11.531
	c-4.176,2.396-7.515,3.871-10.352,6.012c-17.131,12.932-32.008,28.082-43.552,46.234c-3.68,5.787-6.689,12.102-9.235,18.482
	c-2.572,6.448-3.137,13.286-2.365,20.366c1.398,12.809,5.005,24.999,9.297,37.025c10.204,28.592,23.74,55.717,36.704,83.1
	c10.8,22.813,21.259,45.789,31.678,68.779c5.736,12.657,7.344,26.091,5.757,39.804c-0.823,7.105-2.211,14.189-3.939,21.135
	c-2.18,8.76-4.96,17.371-7.496,26.042c-0.88,3.01-2.139,6.006-0.064,9.354c4.191,0.436,7.225-2.039,9.855-4.45
	c9.6-8.798,19.473-17.39,28.262-26.96c15.474-16.851,30.036-34.49,37.441-56.748C479.088,346.906,479.088,343.179,479.088,339.452z
	 M25.44,154.159c0.381,0.673,1.037,1.32,1.102,2.022c1.119,12.037,4.893,23.415,8.923,34.668
	c8.974,25.06,20.443,49.05,31.916,73.032c10.552,22.057,21.229,44.06,31.355,66.312c3.944,8.666,7.18,17.778,9.593,26.987
	c3.88,14.806,1.498,29.623-2.181,44.166c-2.345,9.268-5.354,18.366-7.944,27.575c-0.898,3.191-2.364,6.517,0.139,9.895
	c5.414-0.18,8.852-3.733,12.458-6.706c15.06-12.419,28.324-26.636,40.04-42.178c6.695-8.881,12.592-18.424,18.191-28.051
	c3.936-6.768,5.549-14.396,3.757-22.333c-1.929-8.538-3.384-17.236-6.035-25.549c-8.337-26.147-20.145-50.873-31.889-75.607
	c-12.311-25.928-24.63-51.853-36.922-77.79c-9.646-20.352-11.583-41.822-9.1-63.899c0.98-8.718,2.177-17.411,3.135-26.131
	c0.275-2.502,1.253-5.397-2.579-7.372c-3.25,2.141-6.929,4.253-10.26,6.818C67.705,78.819,57.504,88.913,48.31,100.03
	c-6.978,8.437-13.257,17.344-17.668,27.409c-1.988,4.536-3.483,9.287-5.202,13.941C25.44,145.639,25.44,149.899,25.44,154.159z"/>
</svg>
