<?xml version="1.0" encoding="utf-8"?>
<!-- Generator: Adobe Illustrator 26.2.1, SVG Export Plug-In . SVG Version: 6.00 Build 0)  -->
<svg version="1.1" id="steth" xmlns="http://www.w3.org/2000/svg" xmlns:xlink="http://www.w3.org/1999/xlink" x="0px" y="0px"
	 viewBox="0 0 500 500" style="enable-background:new 0 0 500 500;" xml:space="preserve">
<style type="text/css">
	.st0{enable-background:new    ;}
</style>
<path class="st0" d="M99.4,230.2c-45,69-34.9,159.4,24.2,217.3c34.8,34.1,80.3,51.1,125.9,51.1c0-59.8,0-128.3,0-191.1l-146.1-83.4
	L99.4,230.2z"/>
<path class="st0" d="M399.7,230.2l-4-6.1l-146.1,83.4c0,62.8,0,131.3,0,191.1c45.6,0,91.1-17,125.9-51.1
	C434.6,389.6,444.7,299.2,399.7,230.2z"/>
<polygon class="st0" points="123.7,193.1 249.6,265 375.4,193.1 249.6,121.1 "/>
<polygon class="st0" points="375.5,193.1 249.6,0 249.6,0.1 123.7,193.1 249.6,120.9 "/>
</svg>
