<?xml version="1.0" encoding="iso-8859-1"?>
<!-- Generator: Adobe Illustrator 19.0.0, SVG Export Plug-In . SVG Version: 6.00 Build 0)  -->
<svg version="1.1" id="Layer_1" xmlns="http://www.w3.org/2000/svg" xmlns:xlink="http://www.w3.org/1999/xlink" x="0px" y="0px"
	 viewBox="0 0 500 500" style="enable-background:new 0 0 500 500;" xml:space="preserve">
<path id="XMLID_4_" d="M121.903,239.398c2.149-12.959,3.63-25.333,6.326-37.435c5.513-24.747,14.008-48.529,26.109-70.85
	c24.012-44.291,57.474-79.254,102.946-101.805c34.656-17.187,71.829-23.532,109.648-17.447
	c41.725,6.714,77.635,25.991,97.824,65.155c17.228,33.419,17.611,68.117-1.113,101.877c-16.411,29.589-42.984,44.971-74.44,53.982
	c-39.772,11.393-79.92,9.659-120.448,5.57c-29.846-3.012-59.882-5.222-89.855-5.503
	C160.615,232.769,142.288,236.931,121.903,239.398z M355.424,273.515c-17.624,1.693-35.304,5.069-52.872,4.576
	c-29.71-0.834-59.325-4.583-89.027-6.28c-40.72-2.327-81.456-3.872-120.263,12.712c-25.777,11.016-47.431,26.839-58.487,53.428
	c-8.321,20.01-10.867,40.616-5.188,62.583c3.367,13.024,7.959,24.935,15.702,35.381c23.414,31.586,56.623,46.378,94.433,50.608
	c34.349,3.843,67.525-2.759,98.747-17.853c42.084-20.346,73.017-52.542,96.315-92.405c15.695-26.853,23.64-56.593,29.957-86.75
	c1.088-5.195,0.154-10.813,0.154-17.436C360.996,272.679,358.224,273.246,355.424,273.515z"/>
</svg>
