<?xml version="1.0" encoding="iso-8859-1"?>
<!-- Generator: Adobe Illustrator 19.0.0, SVG Export Plug-In . SVG Version: 6.00 Build 0)  -->
<svg version="1.1" id="Layer_1" xmlns="http://www.w3.org/2000/svg" xmlns:xlink="http://www.w3.org/1999/xlink" x="0px" y="0px"
	 viewBox="0 0 2000 2000" style="enable-background:new 0 0 2000 2000;" xml:space="preserve">
<path d="M1000.319,17.923c542.291-0.079,982.033,439.701,982.107,982.19c0.074,542.618-440.229,982.66-982.928,982.344
	c-542.274-0.315-982.001-440.477-981.772-982.744C17.954,457.357,457.669,18.002,1000.319,17.923z M1810.072,1002.98
	c-2.702-437.609-351.141-810.927-806.759-812.25c-448.34-1.302-808.293,360.339-812.999,800.346
	c-4.878,456.064,364.657,818.843,808.972,818.982C1445.378,1810.197,1808.243,1449.775,1810.072,1002.98z M1448.574,559.73
	c-1.456,23.606-0.559,47.69-11.389,69.67c-24.592,49.91-57.91,92.49-105.449,122.635c-38.108,24.165-79.343,36.635-125.051,36.573
	c-138.389-0.188-276.779,0.896-415.169,1.319c-25.471,0.078-43.512,11.867-56.13,33.302c-20.617,35.025-7.383,92.084,42.147,96.856
	c24.127,2.324,48.231,6.051,72.398,6.535c43.803,0.877,87.665,0.51,131.467-0.658c43.771-1.168,87.492-4.114,131.247-5.968
	c24.899-1.055,49.832-2.251,74.735-1.977c24.797,0.272,49.89,0.262,74.289,4.031c38.808,5.994,74.494,21.668,103.984,47.883
	c67.204,59.741,89.037,135.783,73.97,222.688c-8.319,47.985-31.229,89.651-64.902,125.082
	c-31.087,32.709-68.334,55.12-113.029,62.449c-25.754,4.223-52.099,6.024-78.225,6.553c-57.536,1.164-115.102,1.069-172.656,1.044
	c-70.168-0.031-140.338-0.816-210.504-0.593c-16.91,0.054-33.635,3.637-47.154,15.178c-28.603,24.418-43.334,55.373-43.479,93.189
	c-0.089,23.05,4.896,44.593,17.389,64.206c16.588,26.041,41.463,41.548,69.218,52.3c56.939,22.057,116.594,30.488,177.305,31.595
	c26.768,0.488,53.582-0.716,80.354-1.71c12.777-0.475,25.747-1.092,38.209-3.675c28.601-5.928,57.146-12.351,85.345-19.94
	c46.759-12.584,90.65-32.592,133.201-55.337c44.061-23.551,84.315-52.906,120.526-87.183c22.71-21.497,43.325-45.285,64.072-68.758
	c24.951-28.23,45.062-59.996,63.679-92.62c30.47-53.395,48.97-111.484,64.758-170.462c9.094-33.971,14.95-68.759,15.348-103.916
	c0.403-35.523-1.219-71.108-3.113-106.605c-1.755-32.901-8.562-65.109-17.303-96.834c-22.522-81.742-60.803-155.931-109.445-224.92
	c-16.708-23.697-35.579-45.754-60.612-65.121C1448.606,552.289,1448.802,556.022,1448.574,559.73z M545.672,1438.269
	c4.413-20.882,7.606-41.959,16.281-61.872c8.831-20.269,22.747-36.892,35.673-54.243c18.429-24.737,38.501-48.079,64.228-65.668
	c41.867-28.623,88.871-41.774,139.019-41.89c112.371-0.259,224.745,0.824,337.118,1.13c24.369,0.066,48.74-1.185,73.11-1.207
	c29.861-0.027,47.339-16.765,57.959-42.398c10.737-25.914,5.829-53.112-11.854-69.636c-12.579-11.754-28.569-14.593-44.726-14.623
	c-140.891-0.265-281.784,0.064-422.675-0.336c-28.328-0.081-56.592-3.116-83.762-12.1
	c-94.164-31.133-147.58-117.208-150.432-211.729c-1.089-36.083,5.785-71.23,21.51-103.786
	c43.657-90.383,114.811-140.038,216.521-140.806c109.634-0.828,219.28-0.194,328.92-0.167c5.204,0.001,10.408,0.446,15.611,0.428
	c22.405-0.076,44.853,0.586,67.204-0.586c30.435-1.597,54.576-15.76,72.391-40.476c17.934-24.88,26.514-52.657,22.101-83.151
	c-5.03-34.753-24.614-60.742-53.345-79.929c-45.101-30.118-96.617-41.073-149.162-47.697c-26.235-3.307-52.808-4.307-79.268-5.364
	c-41.058-1.64-82.033,0.587-122.611,6.981c-45.427,7.159-89.616,18.931-131.585,38.352c-13.503,6.248-28.197,10.021-41.421,16.746
	c-17.08,8.687-33.163,19.318-49.797,28.901c-31.313,18.039-61.92,37.281-88.205,62.186c-23.993,22.734-47.791,45.934-69.264,70.994
	c-21.095,24.618-40.577,50.914-58.232,78.119c-30.28,46.658-50.606,98.151-67.442,151.003c-14.95,46.931-26.324,94.771-27.785,144.1
	c-0.994,33.551,1.127,67.242,2.909,100.815c1.902,35.838,8.797,70.99,17.938,105.647c12.979,49.207,29.631,97.214,55.796,141.002
	c19.874,33.26,41.916,65.296,64.296,96.956c11.538,16.323,25.919,30.636,40.448,47.523
	C544.344,1445.176,544.945,1441.709,545.672,1438.269z"/>
</svg>
