<?xml version="1.0" encoding="iso-8859-1"?>
<!-- Generator: Adobe Illustrator 19.0.0, SVG Export Plug-In . SVG Version: 6.00 Build 0)  -->
<svg version="1.1" baseProfile="tiny" id="Layer_1" xmlns="http://www.w3.org/2000/svg" xmlns:xlink="http://www.w3.org/1999/xlink"
	 x="0px" y="0px" viewBox="0 0 500 500" xml:space="preserve">
<path d="M289.765,450.569c0.272,11.94-3.884,21.992-12.575,30.231c-7.047,6.68-15.316,9.961-25.029,10.218
	c-11.409,0.301-21.229-3.55-29.059-11.519c-7.745-7.883-11.593-17.684-10.953-28.897c-0.481-1.012-0.93-1.958-1.499-3.156
	c-5.271-3.005-10.753-6.1-16.205-9.247c-6.273-3.621-12.515-7.294-18.777-10.934c-4.628-2.69-9.264-5.366-13.898-8.043
	c-4.997-2.887-9.99-5.779-14.996-8.649c-4.732-2.713-9.488-5.382-14.214-8.106c-4.821-2.778-9.607-5.618-14.427-8.396
	c-5.455-3.144-10.946-6.225-16.39-9.388c-1.633-0.949-3.114-0.952-4.751-0.01c-3.361,1.933-6.853,3.538-10.662,4.475
	c-2.247,0.553-4.453,1.121-6.781,1.19c-5.084,0.152-10.083-0.115-14.99-1.717c-8.856-2.892-15.775-8.209-20.895-15.963
	c-2.395-3.628-3.888-7.651-5.047-11.766c-0.979-3.473-0.81-7.126-0.834-10.73c-0.05-7.602,2.295-14.416,6.481-20.686
	c2.811-4.211,6.389-7.715,10.73-10.155c4.008-2.252,5.421-5.074,5.4-9.708c-0.181-39.299-0.103-78.6-0.103-117.899
	c0-1.281,0-2.562,0-3.689c-0.671-2.209-2.156-3.406-3.943-4.495c-8.002-4.878-13.836-11.591-16.779-20.593
	c-1.075-3.288-1.827-6.659-1.754-10.172c0.079-3.809-0.25-7.653,0.736-11.388c1.342-5.086,3.32-9.883,6.416-14.209
	c3.274-4.574,7.486-8.086,12.296-10.812c3.813-2.161,7.967-3.539,12.368-4.261c3.063-0.503,6.098-0.59,9.16-0.558
	c6.82,0.073,13.68,2.589,19.448,6.614c1.028-0.293,2.421-0.45,3.572-1.062c3.891-2.068,7.71-4.272,11.53-6.471
	c5.182-2.983,10.342-6.004,15.507-9.018c4.715-2.751,9.41-5.538,14.139-8.265c4.725-2.724,9.495-5.372,14.221-8.094
	c4.821-2.777,9.607-5.615,14.421-8.406c3.632-2.106,7.286-4.175,10.925-6.269c4.909-2.824,9.81-5.663,14.722-8.483
	c3.367-1.932,6.777-3.792,10.108-5.785c1.436-0.859,2.72-1.973,4.132-3.013c0.22-1.902,0.535-3.657,0.61-5.423
	c0.401-9.536,3.949-17.674,10.431-24.676c5.328-5.756,11.887-9.273,19.309-11.365c1.599-0.451,3.29-0.824,4.936-0.815
	c3.908,0.021,7.793-0.335,11.735,0.443c4.628,0.914,8.809,2.721,12.723,5.143c7.403,4.581,12.723,11.001,16.017,19.084
	c0.911,2.236,1.362,4.573,1.875,6.92c0.505,2.309,0.372,4.62,0.643,6.911c0.303,2.565,1.345,4.865,3.732,6.268
	c2.261,1.329,4.529,2.647,6.796,3.967c6.803,3.962,13.589,7.953,20.416,11.873c5.185,2.977,10.452,5.812,15.63,8.8
	c7.364,4.249,14.666,8.604,22.023,12.866c4.715,2.732,9.497,5.349,14.219,8.071c4.82,2.779,9.6,5.628,14.402,8.439
	c4.165,2.438,8.31,4.91,12.514,7.279c2.056,1.158,4.184,1.041,6.233-0.187c4.268-2.558,8.853-4.039,13.795-4.859
	c3.305-0.548,6.586-0.698,9.799-0.368c8.583,0.883,16.086,4.288,22.446,10.289c4.962,4.683,8.415,10.255,10.569,16.622
	c0.893,2.639,1.371,5.485,1.588,8.272c0.37,4.75,0.124,9.515-1.249,14.126c-1.566,5.262-3.81,10.198-7.588,14.29
	c-3.1,3.358-6.381,6.503-10.432,8.746c-1.525,0.844-2.583,2.161-3.071,3.844c0,42.321,0,84.61,0,126.84
	c1.079,2.176,3.082,3.261,4.934,4.45c8.475,5.441,13.726,13.236,16.593,22.728c1.112,3.681,0.889,7.531,0.944,11.344
	c0.084,5.819-1.455,11.25-4.105,16.287c-2.763,5.25-6.495,9.756-11.468,13.247c-4.269,2.996-8.835,5.11-13.813,6.566
	c-3.632,1.062-7.298,0.973-10.991,1.052c-5.268,0.112-10.179-1.175-14.838-3.56c-1.121-0.573-2.355-0.98-3.364-1.705
	c-2.102-1.513-3.999-1.266-6.121,0.022c-3.677,2.231-7.477,4.258-11.205,6.405c-4.822,2.778-9.621,5.594-14.434,8.386
	c-4.899,2.842-9.802,5.678-14.708,8.509c-4.727,2.728-9.462,5.443-14.19,8.169c-6.362,3.669-12.718,7.346-19.081,11.013
	c-3.638,2.097-7.287,4.176-10.926,6.271c-4.908,2.824-9.811,5.657-14.718,8.482c-2.001,1.152-3.977,2.352-6.019,3.428
	C292.052,446.861,290.547,448.377,289.765,450.569z M237.541,318.362c1.819,1.671,1.56,3.207,1.56,4.679
	c0.004,24.457,0.003,48.914,0.003,73.372c0,8.222,0,16.444,0,24.744c-0.188,0.322-0.403,0.681-0.608,1.045
	c-0.203,0.361-0.397,0.729-0.566,1.041c-0.464,0.232-0.835,0.425-1.211,0.605c-4.91,2.348-8.647,6.024-11.777,10.391
	c-2.796,3.901-4.276,8.283-5.199,12.975c-0.899,4.568-0.573,8.938,0.638,13.387c1.512,5.557,4.391,10.209,8.54,14.127
	c7.835,7.399,16.896,10.76,27.726,8.583c7.692-1.546,14.106-5.066,19.06-11.276c3.991-5.003,6.006-10.796,6.848-16.947
	c0.769-5.617-0.362-11.061-2.832-16.254c-3.073-6.459-7.888-11.133-14.009-14.629c-1.073-0.613-2.03-1.429-2.832-2.002
	c0-33.26,0-66.132,0-98.903c2.3-1.593,2.307-1.547,6.248-2.187c4.63-0.752,9.217-1.709,13.743-2.973
	c3.682-1.028,7.454-1.675,11.157-0.18c3.997,1.614,8.119,2.526,12.352,3.335c4.304,0.822,8.447,0.426,12.511-0.443
	c5.201-1.113,10.241-2.909,14.718-5.992c1.458-1.004,3.121-1.228,4.761-0.165c0.613,0.397,1.312,0.659,1.944,1.029
	c5.796,3.396,11.569,6.83,17.381,10.197c4.811,2.786,9.674,5.483,14.5,8.243c5.56,3.18,11.087,6.418,16.667,9.564
	c2.095,1.181,3.816,2.627,4.69,5.056c0,1.396-0.046,2.892,0.01,4.385c0.106,2.838,0.725,5.607,1.614,8.275
	c1.694,5.084,4.588,9.406,8.479,13.139c5.295,5.079,11.668,7.78,18.801,8.608c5.866,0.681,11.564-0.597,16.804-3.229
	c7.242-3.638,12.513-9.319,15.616-16.828c2.882-6.974,2.913-14.153,0.586-21.267c-1.764-5.394-4.818-10.003-9.081-13.864
	c-5.613-5.085-12.148-7.752-19.645-8.159c-2.318-0.126-4.611,0.054-6.918,0.557c-3.599,0.786-7.038,1.919-10.269,3.674
	c-1.373,0.745-2.717,1.543-4.243,2.413c-1.916-0.98-3.796-1.859-5.597-2.879c-4.569-2.585-9.111-5.219-13.649-7.858
	c-4.718-2.744-9.408-5.536-14.129-8.274c-6.532-3.787-13.082-7.542-19.705-11.357c-0.33-0.693-0.686-1.441-0.939-1.971
	c0.861-3.692,2.104-7.107,2.357-10.593c0.32-4.408,0.474-8.854-0.354-13.327c-1.012-5.463-3.064-10.367-6.012-15.007
	c-2.053-3.232-4.902-5.843-7.002-8.982c-4.613-6.895-8.936-13.987-13.309-21.041c-0.715-1.153-1.094-2.523-0.418-4.185
	c0.644-0.507,1.406-1.266,2.306-1.79c7.35-4.276,14.715-8.528,22.097-12.748c4.644-2.655,9.352-5.199,13.987-7.87
	c6.548-3.774,13.062-7.609,19.579-11.436c4.615-2.711,9.138-5.592,13.849-8.122c2.354-1.264,4.502-3.116,7.313-3.397
	c0.986,0.473,2.001,0.822,2.866,1.396c6.71,4.456,13.929,5.739,21.919,4.479c8.703-1.373,15.452-5.814,20.455-12.613
	c5.365-7.29,7.333-15.717,5.409-24.769c-0.943-4.439-2.56-8.575-5.406-12.237c-2.303-2.963-4.874-5.575-7.91-7.752
	c-4.628-3.317-9.824-5.064-15.462-5.554c-4.487-0.39-8.835,0.441-13.001,1.978c-7.72,2.848-13.679,7.858-17.425,15.247
	c-2.347,4.629-3.536,9.602-3.573,14.82c-0.013,1.895,0.207,3.849-1.61,5.645c-1.588,0.891-3.518,1.952-5.428,3.049
	c-5.002,2.871-9.99,5.766-14.992,8.637c-5.008,2.874-10.042,5.703-15.037,8.599c-7.264,4.211-14.504,8.464-21.753,12.7
	c-6.254,3.655-12.513,7.301-18.754,10.977c-1.315,0.774-2.632,1.32-4.479,0.769c-1.998-1.797-4.092-3.932-6.438-5.739
	c-5.505-4.24-11.398-7.848-17.912-10.382c-6.358-2.473-12.898-4.116-19.687-4.867c-1.573-0.174-3.393-0.13-4.65-1.647
	c0-32.331,0-64.686,0-96.967c1.406-2.614,2.182-3.398,4.235-4.642c8.182-4.96,13.305-11.978,15.086-21.528
	c1.248-6.695,0.116-12.867-2.517-18.997c-1.903-4.43-5.028-7.837-8.529-10.924c-5.123-4.518-11.25-6.763-18.021-7.359
	c-4.5-0.397-8.822,0.468-12.98,2.03c-6.653,2.498-12.311,6.286-16.077,12.596c-2.186,3.662-3.428,7.535-4.252,11.686
	c-1.364,6.878-0.52,13.402,2.645,19.57c3.07,5.984,7.679,10.572,13.627,13.754c1.443,0.772,2.718,1.613,2.964,2.914
	c0,34.069,0,67.696,0,101.173c-1.07,1.475-2.394,2.258-3.858,2.972c-7.182,3.501-14.224,7.142-20.519,12.26
	c-4.77,3.878-10.601,5.906-16.978,5.657c-1.6-0.063-3.204-0.043-4.805-0.025c-1.841,0.022-3.437-0.514-5.044-1.489
	c-3.67-2.229-7.484-4.219-11.223-6.336c-3.564-2.018-7.11-4.066-10.656-6.113c-4.907-2.832-9.802-5.684-14.711-8.512
	c-3.638-2.096-7.297-4.157-10.937-6.25c-4.911-2.824-9.799-5.687-14.722-8.49c-3.919-2.232-7.912-4.335-11.797-6.621
	c-2.095-1.233-4.087-2.673-5.43-4.971c0.315-8.216-1.405-16.046-6.575-22.714c-5.159-6.654-11.95-10.887-20.391-12.167
	c-11.336-1.719-25.432,3.26-32.61,15.863c-6.775,11.896-5.073,27.794,5.108,37.829c9.226,9.093,24.752,14.08,41.033,3.684
	c1.128,0,2.298,0,3.282,0c1.482,0.749,2.831,1.349,4.1,2.087c6.353,3.696,12.67,7.455,19.029,11.14
	c4.811,2.788,9.683,5.469,14.497,8.251c4.818,2.784,9.58,5.667,14.401,8.447c4.725,2.724,9.506,5.353,14.23,8.078
	c0.672,0.388,1.166,1.085,1.699,1.598c-1.654,1.996-3.144,3.781-4.62,5.577c-4.091,4.977-7.501,10.36-9.91,16.365
	c-2.559,6.38-3.857,13.012-4.06,19.857c-0.043,1.444,0.456,2.898,0.486,4.353c0.073,3.601,0.942,7.029,1.95,10.451
	c1.718,5.834,3.914,11.454,7.062,16.681c0.363,0.603,0.535,1.321,0.866,2.163c-20.027,11.527-39.934,22.985-59.528,34.262
	c-1.477,0-2.543,0-3.554,0c-4.292-3.144-9.224-4.78-14.243-5.576c-5.779-0.916-11.504,0.164-16.953,2.56
	c-5.007,2.202-8.916,5.762-12.277,9.875c-3.498,4.279-5.635,9.395-6.32,14.837c-0.887,7.054,0.466,13.83,4.079,20.079
	c2.747,4.751,6.314,8.647,11.076,11.457c3.47,2.048,7.157,3.236,11.129,3.965c4.682,0.859,9.164,0.561,13.71-0.656
	c5.885-1.575,10.747-4.673,14.843-9.144c3.554-3.88,6.008-8.298,7.231-13.417c0.91-3.808,1.388-7.656,1.254-11.417
	c0.833-1.844,2.16-3.015,3.724-3.914c4.181-2.402,8.391-4.754,12.579-7.144c7.841-4.474,15.69-8.935,23.508-13.45
	c8.815-5.09,17.599-10.234,26.397-15.352c0.362-0.21,0.735-0.401,1.015-0.554c1.058,0,2.012,0,2.595,0
	c1.887,0.77,3.436,1.4,4.982,2.035c6.453,2.649,13.201,3.938,20.14,4.204c1.762,0.068,3.54-0.451,5.313-0.473
	c2.864-0.035,5.6-0.674,8.365-1.302c2.033-0.462,4.132-0.634,5.592-0.846C228.11,313.948,233.045,316.258,237.541,318.362z
	 M290.809,302.386c2.368,1.544,5.168,2.46,7.963,2.608c4.213,0.223,8.441,0.461,12.672-0.471c4.535-0.999,8.465-3.011,11.98-5.934
	c4.077-3.39,6.862-7.719,8.772-12.61c2.465-6.312,3.273-12.753,1.056-19.327c-2.368-7.021-6.403-12.859-12.866-16.63
	c-3.952-2.305-6.186-5.48-6.995-9.904c-0.903-4.94-2.462-9.715-4.67-14.208c-3.391-6.898-7.967-12.857-14.122-17.646
	c-4.955-3.855-10.329-6.782-16.186-8.897c-3.534-1.276-7.149-2.288-10.887-2.755c-3.224-0.402-6.454-0.79-9.693-1.025
	c-1.11-0.081-2.253,0.465-3.384,0.477c-5.883,0.067-11.35,1.777-16.606,4.215c-6.264,2.906-11.9,6.747-16.817,11.638
	c-2.795,2.78-6.092,4.38-10.205,4.1c-4.337-0.296-8.62,0.142-12.853,1.26c-7.424,1.96-13.735,5.854-18.994,11.293
	c-3.353,3.468-5.943,7.557-7.984,12.034c-2.17,4.759-3.165,9.714-3.613,14.823c-0.324,3.693,0.453,7.306,1.163,10.923
	c1.35,6.88,4.529,12.807,9.124,18.011c3.103,3.514,6.648,6.529,10.771,8.797c5.104,2.807,10.523,4.494,16.38,4.973
	c3.036,0.248,6.017-0.07,9.023-0.075c0.747-0.001,1.525,0.075,2.235-0.101c3.128-0.776,6.235-1.632,9.268-2.437
	c2.162,0.434,4.014,1.301,5.801,2.442c3.003,1.918,6.199,3.482,9.575,4.667c4.646,1.631,9.347,3.012,14.317,3.116
	c2.774,0.058,5.55,0.018,8.326,0.009c3.701-0.012,7.274-0.749,10.777-1.903c3.753-1.236,7.515-2.445,11.076-3.602
	C287.537,300.561,289.179,301.324,290.809,302.386z M74.69,342.778c-4.309,1.223-6.234,3.455-7.309,6.695c0,1.41,0,2.999,0,4.212
	c1.315,3.458,3.395,5.505,6.618,6.695c3.509,1.297,6.074-0.37,8.857-1.944c0.759-1.225,1.53-2.47,2.317-3.74
	C86.308,346.682,82.369,341.556,74.69,342.778z M426.582,360.76c4.406-0.894,7.053-3.588,7.897-7.919
	c0.818-4.199-1.55-7.543-6.489-9.911c-8.217-1.183-12.514,3.191-11.309,11.737C419.116,359.327,422.518,361.585,426.582,360.76z
	 M243.06,45.019c-0.941,2.015-1.696,3.968-1.149,6.264c1.269,5.332,5.481,8.1,10.918,7.549c1.913-0.907,3.7-1.82,5.132-3.468
	c1.49-1.715,1.575-3.808,2.248-5.656c-0.842-3.9-1.951-7.482-6.927-8.672c-1.332,0-3.244,0-5.254,0
	C245.955,42.081,244.044,42.91,243.06,45.019z M422.635,158.974c1.813,0,3.73,0,5.254,0c4.556-1.541,6.737-4.522,6.609-8.913
	c-0.124-4.233-2.47-6.972-6.587-8.394c-1.769,0-3.686,0-4.958,0c-3.636,0.93-5.395,3.005-6.355,5.998c0,1.809,0,3.725,0,4.999
	C417.554,156.289,419.619,158.059,422.635,158.974z M85.213,153.14c1.148-8.415-3.143-12.623-11.044-11.501
	c-3.7,1.15-5.748,3.263-6.807,6.654c0,1.309,0,2.904,0,3.738c1.06,3.947,3.344,5.813,6.587,6.947c1.715,0,3.631,0,5.383,0
	C82.446,157.73,84.252,155.816,85.213,153.14z M248.248,460.825c1.849,0,3.76,0,5,0c5.135-1.337,6.304-4.942,6.747-7.774
	c-0.238-5.014-2.142-8.088-5.794-9.21c-3.47-1.066-7.132-0.805-10.408,2.556C239.978,453.353,241.185,457.533,248.248,460.825z"/>
</svg>
