<?xml version="1.0" encoding="iso-8859-1"?>
<!-- Generator: Adobe Illustrator 19.0.0, SVG Export Plug-In . SVG Version: 6.00 Build 0)  -->
<svg version="1.1" id="Layer_1" xmlns="http://www.w3.org/2000/svg" xmlns:xlink="http://www.w3.org/1999/xlink" x="0px" y="0px"
	 viewBox="0 0 500 500" style="enable-background:new 0 0 500 500;" xml:space="preserve">
<path id="XMLID_4_" d="M240.543,14.754c7.093,0,14.186,0,21.279,0c0.858,0.367,1.696,0.992,2.577,1.059
	c5.251,0.402,10.5,0.017,15.772,1.183c6.255,1.384,12.814,1.407,19.056,2.832c23.785,5.43,46.601,13.491,67.891,25.644
	c16.847,9.617,32.345,21.029,46.495,34.247c9.766,9.123,18.443,19.245,26.493,29.929c16.561,21.982,28.872,46.131,36.79,72.446
	c3.238,10.761,6.189,21.608,7.371,32.924c0.769,7.355,2.42,14.616,2.199,22.084c-0.029,0.968,0.361,1.943,0.383,2.919
	c0.155,6.87,0.568,13.753,0.3,20.609c-0.251,6.421-1.167,12.821-1.92,19.215c-0.752,6.387-1.139,12.878-2.604,19.108
	c-4.402,18.715-10.045,37.046-18.553,54.39c-9.416,19.194-20.993,36.875-35.1,53.021c-9.343,10.693-19.534,20.322-30.534,29.234
	c-18.966,15.365-39.901,27.283-62.617,36.032c-13.021,5.015-26.376,9.073-40.21,11.275c-5.579,0.888-11.25,1.294-16.768,2.451
	c-7.924,1.662-15.985,1.517-23.963,2.088c-10.36,0.742-20.728-0.607-31.025-2.11c-6.754-0.986-13.676-1.151-20.293-2.682
	c-23.368-5.407-45.884-13.155-66.912-24.999c-16.582-9.34-31.894-20.37-45.929-33.149c-10.614-9.664-20.028-20.458-28.625-31.971
	c-14.442-19.342-25.906-40.276-33.543-63.189c-3.362-10.086-6.796-20.259-8.774-30.663c-2.029-10.673-4.091-21.473-3.904-32.483
	c0.025-1.452-0.729-2.918-1.122-4.378c0-7.093,0-14.186,0-21.279c0.365-0.868,0.987-1.717,1.054-2.608
	c0.397-5.242,0.041-10.482,1.191-15.742c1.366-6.249,1.34-12.813,2.819-19.026c4.123-17.33,9.319-34.305,16.826-50.572
	c11.323-24.533,26.32-46.496,45.123-65.794c7.079-7.266,14.829-13.937,22.684-20.376c19.597-16.065,41.571-28.005,65.289-36.867
	c11.092-4.145,22.455-7.505,33.99-9.771c10.648-2.092,21.449-4.119,32.453-3.91C237.629,15.903,239.089,15.147,240.543,14.754z
	 M377.678,57.608c-0.242-0.282-0.484-0.565-0.726-0.847c-2.549,1.734-5.093,3.476-7.648,5.202
	C351.85,73.757,334.389,85.54,316.939,97.34c-19.681,13.309-39.337,26.656-59.035,39.941c-11.616,7.834-23.319,15.54-34.935,23.374
	c-18.95,12.78-37.859,25.621-56.789,38.431c-4.057,2.745-8.201,5.368-12.173,8.23c-4.791,3.453-4.771,6.846,0.111,10.038
	c6.022,3.936,12.194,7.643,18.291,11.466c27.236,17.077,54.473,34.152,81.696,51.25c3.086,1.938,6.081,4.021,9.576,6.341
	c-50.747,49.003-101.008,97.537-151.269,146.07c14.643-9.203,28.889-18.842,43.102-28.528
	c18.701-12.744,37.372-25.531,56.063-38.288c22.499-15.356,45.009-30.695,67.507-46.052c15.005-10.242,30.005-20.492,44.992-30.761
	c11.445-7.842,22.91-15.654,34.273-23.613c4.444-3.113,4.19-7.292-0.404-10.17c-34.509-21.62-69.031-43.219-103.541-64.838
	c-1.734-1.086-3.392-2.294-5.347-3.623C292.189,143.349,334.934,100.479,377.678,57.608z"/>
</svg>
