<?xml version="1.0" encoding="iso-8859-1"?>
<!-- Generator: Adobe Illustrator 19.0.0, SVG Export Plug-In . SVG Version: 6.00 Build 0)  -->
<svg version="1.1" id="Layer_1" xmlns="http://www.w3.org/2000/svg" xmlns:xlink="http://www.w3.org/1999/xlink" x="0px" y="0px"
	 viewBox="0 0 500 500" enable-background="new 0 0 500 500" xml:space="preserve">
<path d="M459.906,290.077c-33.569,17.246-65.01,2.49-79.691-18.48c-15.879-22.679-13.807-53.267,5.135-74.19
	c18.728-20.686,51.452-25.715,76.31-11.436c13.261,7.617,22.903,18.565,27.604,33.311c4.654,14.597,2.871,28.856-3.322,42.567
	c11.881,10.5,10.868,22.299,4.352,29.448C483.563,298.686,473.158,301.437,459.906,290.077z M226.343,297.759
	c21.673-1.117,42.285-14.202,40.919-41.355c-0.541-10.759-4.907-19.554-13.865-25.849c-7.127-5.008-15.05-8.246-23.31-10.866
	c-3.096-0.982-6.217-2.372-8.785-4.299c-1.102-0.827-1.455-3.702-0.946-5.253c0.33-1.007,3.019-2.069,4.32-1.752
	c2.543,0.621,4.921,2.074,7.243,3.399c2.552,1.456,4.81,3.499,7.463,4.693c11.979,5.389,23.102-0.588,23.441-12.681
	c0.209-7.473-2.942-13.716-9.323-17.688c-17.06-10.619-34.741-11.451-52.415-1.779c-22.516,12.322-22.773,44.472-5.582,56.625
	c4.645,3.284,10.122,5.458,15.367,7.807c4.724,2.115,9.707,3.645,14.472,5.675c2.985,1.271,4.199,4.42,3.129,7.01
	c-1.089,2.636-3.584,3.749-6.751,2.103c-4.257-2.212-8.261-4.949-12.232-7.666c-11.636-7.962-26.51-2.815-28.433,10.337
	c-1.304,8.923,2.883,16.037,9.981,21.381c9.393,7.072,20.039,10.317,31.757,10.17C223.978,297.766,225.163,297.819,226.343,297.759z
	 M21.623,196.066c8.139,16.757,16.231,33.536,24.431,50.263c1.448,2.953,3.189,5.791,5.054,8.504
	c2.189,3.183,5.114,4.744,9.29,4.695c17.374-0.206,34.754-0.209,52.129-0.028c7.159,0.074,12.011-2.803,15.479-9.058
	c8.751-15.785,17.772-31.421,26.7-47.108c2.83-4.972,0.165-10.032-5.554-10.44c-1.059-0.075-2.127-0.019-3.191-0.019
	c-34.99,0-69.98,0-104.97,0c-1.386,0-2.772,0-4.114,0c-2.246-5.183-4.346-10.032-6.386-14.739c-8.73,0-17.166,0-25.567,0
	c0,4.958,0,9.644,0,14.612c5.096,0,10.02,0,14.917,0C20.521,194.007,21.113,195.016,21.623,196.066z M301.007,220.218
	c-0.035,17.961-0.105,35.922-0.086,53.883c0.006,5.542,1.111,10.877,5.03,15.066c9.483,10.134,26.928,6.741,31.632-6.283
	c1.289-3.569,1.776-7.594,1.819-11.419c0.192-17.132,0.086-34.267,0.103-51.401c0.001-1.358,0.129-2.716,0.208-4.268
	c3.448,0,6.527,0.245,9.549-0.066c3.361-0.346,6.851-0.729,9.965-1.927c6.759-2.601,10.917-9.964,10.198-17.027
	c-0.704-6.918-5.693-13.42-11.684-14.49c-4.74-0.847-9.591-1.408-14.401-1.468c-14.059-0.176-28.122-0.093-42.183,0.006
	c-4.714,0.033-9.446,0.211-14.13,0.703c-3.973,0.417-7.975,1.115-10.955,4.307c-4.531,4.853-6.253,10.457-4.552,16.938
	c1.787,6.811,6.715,10.583,13.196,11.856c5.139,1.009,10.509,0.847,16.291,1.241C301.007,217.399,301.01,218.808,301.007,220.218z
	 M67.169,266.591c-10.101,0.013-15.54,5.439-15.566,15.528c-0.026,10.23,5.534,15.742,15.794,15.655
	c10.05-0.085,15.431-5.578,15.389-15.706C82.744,271.997,77.276,266.579,67.169,266.591z M113.485,266.591
	c-10.14-0.068-15.651,5.298-15.755,15.339c-0.107,10.271,5.388,15.85,15.606,15.844c10.093-0.006,15.543-5.435,15.577-15.518
	C128.948,272.141,123.549,266.659,113.485,266.591z"/>
</svg>
