<?xml version="1.0" encoding="iso-8859-1"?>
<!-- Generator: Adobe Illustrator 19.0.0, SVG Export Plug-In . SVG Version: 6.00 Build 0)  -->
<svg version="1.1" id="Layer_1" xmlns="http://www.w3.org/2000/svg" xmlns:xlink="http://www.w3.org/1999/xlink" x="0px" y="0px"
	 viewBox="0 0 500 500" style="enable-background:new 0 0 500 500;" xml:space="preserve">
<path id="XMLID_4_" d="M14.867,328.384c3.228-5.168,6.234-9.981,9.805-15.697c12.092,6.722,23.883,13.235,35.635,19.815
	c52.966,29.659,105.923,59.334,158.88,89.009c8.655,4.85,17.395,9.56,25.902,14.659c4.499,2.697,8.168,2.809,12.958,0.108
	c62.169-35.063,124.469-69.894,186.733-104.789c6.169-3.458,12.892-6.252,18.282-10.668c3.874-3.173,7.915-8.314,8.441-12.966
	c1.232-10.881,0.394-21.996,0.394-34.669c-9.291,5.074-17.67,9.543-25.95,14.189c-60.658,34.041-121.363,67.999-181.866,102.314
	c-8.82,5.002-16.366,4.712-24.931-0.112c-67.221-37.86-134.42-75.764-201.94-113.086c-16.993-9.393-25.416-22.301-24.851-41.738
	c0.481-16.538,0.032-33.104-0.087-49.656c-0.046-6.35,2.411-10.941,8.111-14.121c36.777-20.513,73.486-41.149,110.212-61.755
	c36.263-20.347,72.563-40.631,108.746-61.12c8.294-4.697,15.717-4.839,24.286-0.011c69.983,39.434,140.148,78.543,210.253,117.759
	c3.201,1.791,6.436,3.537,9.525,5.509c10.709,6.836,10.331,21.135-0.948,27.63c-19.712,11.351-39.55,22.487-59.401,33.595
	c-53.202,29.772-106.517,59.343-159.579,89.362c-8.237,4.66-15.067,4.857-23.277,0.22
	c-60.365-34.097-120.886-67.919-181.377-101.792c-8.588-4.809-17.281-9.428-26.916-14.675c0,13.539-1.208,25.97,0.555,37.965
	c0.777,5.285,6.691,11.207,11.813,14.228c25.667,15.139,51.84,29.422,77.843,43.99c41.303,23.139,82.657,46.188,123.854,69.515
	c4.208,2.383,7.041,2.365,11.262-0.009c69.767-39.247,139.66-78.272,209.512-117.368c12.715-7.117,24.02-0.714,24.072,13.745
	c0.042,11.826-0.162,23.655,0.048,35.478c0.288,16.201-6.49,28.068-20.676,35.981c-49.124,27.4-98.191,54.901-147.262,82.394
	c-20.08,11.25-40.219,22.4-60.119,33.961c-7.285,4.232-13.809,4.652-21.265,0.461c-73.454-41.288-146.998-82.416-220.503-123.613
	C19.039,331.306,17.19,329.915,14.867,328.384z M468.184,185.345c-3.705-2.166-6.538-3.883-9.426-5.501
	c-21.658-12.137-43.327-24.255-64.993-36.378c-45.205-25.293-90.453-50.509-135.552-75.988c-4.748-2.682-8.217-2.642-12.95,0.017
	c-66.6,37.418-133.322,74.62-199.994,111.909c-3.038,1.699-5.891,3.73-8.974,5.699c1.083,1.143,1.377,1.641,1.813,1.885
	c68.252,38.244,136.563,76.384,204.698,114.836c6.425,3.626,11.155,3.757,17.671,0.027c36.549-20.92,73.408-41.299,110.156-61.871
	C402.793,221.977,434.946,203.961,468.184,185.345z"/>
</svg>
