<?xml version="1.0" encoding="iso-8859-1"?>
<!-- Generator: Adobe Illustrator 19.0.0, SVG Export Plug-In . SVG Version: 6.00 Build 0)  -->
<svg version="1.1" id="Layer_1" xmlns="http://www.w3.org/2000/svg" xmlns:xlink="http://www.w3.org/1999/xlink" x="0px" y="0px"
	 viewBox="0 0 2000 2000" style="enable-background:new 0 0 2000 2000;" xml:space="preserve">
<path d="M1337.547,405.758c0,397.476,0,791.793,0,1188.498c-110.224,96.252-221.29,193.24-335.301,292.798
	c-112.968-97.973-224.813-194.974-336.997-292.268c0-395.61,0-790.653,0-1188.398c110.479-96.167,222.211-193.425,335.898-292.384
	C1114.563,212.369,1225.924,308.95,1337.547,405.758z M282.729,1816.329c89.579-78.245,176.633-154.284,262.979-229.705
	c0-312.949,0-624.046,0-935.946c-87.944-76.235-175.687-152.296-263.975-228.829c-89.521,77.966-176.659,153.857-263.015,229.067
	c0,312.586,0,622.974,0,936.469C106.653,1663.64,194.38,1739.715,282.729,1816.329z M1983.198,655.537
	c-87.425-75.783-174.615-151.362-262.792-227.796c-89.779,78.183-177.487,154.563-263.895,229.811c0,313.089,0,623.433,0,934.883
	c87.831,76.229,175.67,152.465,264.761,229.789c87.925-76.746,174.387-152.216,261.926-228.626
	C1983.198,1279.977,1983.198,968.072,1983.198,655.537z"/>
</svg>
