<?xml version="1.0" encoding="iso-8859-1"?>
<!-- Generator: Adobe Illustrator 19.0.0, SVG Export Plug-In . SVG Version: 6.00 Build 0)  -->
<svg version="1.1" id="Layer_1" xmlns="http://www.w3.org/2000/svg" xmlns:xlink="http://www.w3.org/1999/xlink" x="0px" y="0px"
	 viewBox="0 0 2000 2000" style="enable-background:new 0 0 2000 2000;" xml:space="preserve">
<path d="M982.804,18.256c173.171-0.481,321.061,34.386,459.299,105.018c221.293,113.069,378.453,286.25,470.828,517.204
	c30.591,76.483,50.138,156.067,59.692,238.034c3.114,26.715,10.63,53.287,10.663,79.931
	c0.249,197.617-44.903,383.647-151.179,551.709c-153.068,242.056-372.403,389.33-652.588,445.529
	c-52.714,10.573-106.857,20.742-160.218,20.146c-182.96-2.04-356.84-43.765-515.019-138.497
	c-244.343-146.334-398.675-359.296-461.444-637.166c-28.038-124.12-30.893-248.986-7.322-375.049
	C63.954,673.021,122.59,534.81,214.635,411.038c68.409-91.989,151.143-169.562,247.183-232.423
	c99.799-65.322,207.94-111.369,324.621-136.529C856.817,26.91,927.743,15.447,982.804,18.256z M1297.222,725.24
	c21.739-5.8,25.428-13.765,12.299-27.398c-2.911-3.022-9.321-3.661-10.747-6.887c-1.964-4.443-2.185-10.872-0.432-15.396
	c1.691-4.366,5.363-9.037,12.747-4.506c9.464,5.807,12.635-1.88,16.365-9.193c-12.707-5.28-29.214,4.638-36.203-11.95
	c5.312-7.438,10.451-14.634,13.824-19.357c-3.345-13.984-6.114-26.728-9.534-39.295c-1.413-5.191-3.989-10.128-6.565-14.895
	c-0.622-1.151-3.346-1.167-7.657-2.486c-0.58,8.239-1.098,15.603-1.759,24.987c-8.905-8.496-16.708-15.941-23.944-22.844
	c2.41-12.348,4.532-23.224,7.939-40.678c-8.049,9.498-11.125,13.129-14.7,17.348c-5.282-9.015-9.107-15.542-12.931-22.069
	c-1.681,0.628-3.362,1.256-5.043,1.883c0.5,5.599,0.999,11.198,1.535,17.203c-6.853,3.008-13.644,5.989-22.387,9.827
	c-1.347-11.958-2.452-21.77-3.615-32.102c-3.386,0.711-6.422,1.349-9.94,2.088c-1.443-4.976-2.964-10.223-4.479-15.45
	c-13.126,2.009-26.263,3.666-32.82,18.429c-6.184-13.206-10.915-23.31-16.438-35.104c-9.648,8.115-16.642,18.654-24.168,19.048
	c-7.897,0.414-16.304-8.898-24.084-13.71c-3.024,13.478-18.015,6.378-26.164,12.173c3.805,28.105,2.669,32.671-14.027,38.699
	c-22.445,8.104-36.227-5.52-49.581-19.902c6.646-8.948,12.195-16.42,17.745-23.891c-8.351-6.13-10.717-14.467-7.065-24.564
	c-7.915,2.463-14.024,4.363-20.709,6.443c-5.03-7.914-9.634-14.217-13.207-21.057c-3.316-6.348-5.53-13.271-9.008-21.867
	c-5.797,6.077-9.974,10.456-14.998,15.723c-5.279-6.346-9.203-13.056-14.894-17.51c-14.331-11.217-21.88-9.532-31.533,8.884
	c-7.487,14.285-15.976,6.068-24.536,3.636c-2.743,8.456-5.437,16.762-8.131,25.067c-1.945-0.353-3.89-0.706-5.835-1.058
	c-1.06-12.733-2.121-25.466-3.098-37.204c-23.408,11.963-44.198,22.587-61.264,31.308c-0.864,14.785,1.689,28.022-3.235,37.284
	c-3.902,7.34-16.97,9.807-23.101,12.962c1.836,12.536,3.52,24.036,5.499,37.55c-10.002-2.974-15.923-4.735-21.359-6.351
	c-6.364,9.623-15.022,17.413-16.256,26.241c-1.007,7.204,6.858,15.648,11.044,24.053c-10.577,8.498-21.244,17.07-32.486,26.102
	c5.767,4.381,9.149,6.95,12.532,9.519c-13.168,14.485,2.132,23.265,7.527,32.952c-5.132,8.181-11.812,14.737-13.293,22.31
	c-1.56,7.975-17.1,5.376-10.979,16.975c4.26,8.072,6.49,16.113-2.087,24.565c-7.768-5.354-14.8-10.2-17.715-12.208
	c-15.707,10.119-28.208,17.988-40.514,26.152c-12.166,8.071-24.115,16.571-39.801,2.71c-3.113,13.203-5.566,23.612-8.459,35.881
	c-20.799-8.514-36.98,1.688-53.325,9.199c-20.708,9.517-20.768,30.757-25.561,49.091c7.709,5.568,15.376,11.105,23.525,16.991
	c-5.46,10.428-10.031,19.158-14.463,27.621c16.107,16.358,16.4,18.609,6.995,36.092c-2.428,4.514-6.871,11.957-5.26,13.987
	c11.28,14.218-0.808,21.561-8.127,28.636c5.484,19.925,19.656,15.289,37.65,10.491c-7.646,11.511-14.348,17.245-14.775,23.414
	c-0.468,6.776,4.844,13.952,6.927,19.17c9.06,3.012,16.431,5.461,31.356,10.422c-12.21,3.499-16.125,4.677-20.072,5.738
	c-4.675,1.256-9.378,2.411-17.892,4.587c8.686,6.709,14.159,10.161,18.632,14.617c4.156,4.14,7.245,9.35,10.154,13.224
	c5.897-1.971,9.272-3.098,10.31-3.445c1.741,12.807,5.366,23.081,3.94,32.598c-2.504,16.708,9.387,19.957,22.785,25.071
	c-6.933,10.142-12.548,18.356-17.912,26.202c2.681,2.884,7.028,6.201,9.58,10.567c6.905,11.811,18.742,15.773,28.823,10.437
	c21.864-11.575,32.534-0.042,42.967,15.894c2.884,4.406,6.62,8.255,11.438,14.167c11.185-24.606,21.206-46.652,32.339-71.143
	c6.04,15.556,11.244,28.957,18.447,47.507c1.956-14.854,2.572-23.233,4.463-31.313c0.481-2.054,5.015-3.159,9.649-5.832
	c3.815,8.549,7.242,16.228,11.106,24.885c5.856,0.633,15.556-1.108,18.218,2.437c13.61,18.124,23.412,6.024,33.882-2.663
	c5.748-4.769,11.384-9.754,16.485-15.19c2.582-2.752,6.348-8.116,5.336-9.921c-7.366-13.136,4.606-19.587,6.617-27.755
	c11.781-1.275,22.521-5.659,30.39-2.616c16.293,6.299,31.925,15.334,46.204,25.521c13.721,9.789,25.347,21.805,21.843,42.166
	c-2.07,12.033,0.018,24.729-0.464,37.1c-1.075,27.575-10.499,50.482-39.317,59.009c-20.017,5.923-40.709,9.6-61.162,13.994
	c-11.879,2.552-23.799,5.336-35.848,6.553c-11.991,1.211-24.168,0.592-36.263,0.775c0.152,1.448,0.303,2.896,0.455,4.343
	c155.616,0,311.231,0,466.847,0c-46.573-5.087-93.142-8.159-139.678-11.669c-60.893-4.592-90.079-17.231-87.448-88.455
	c0.416-11.248-0.755-22.594,0.211-33.774c2.656-30.743,13.68-58.033,36.713-79.306c13.127-12.124,28.533-22.031,40.391-35.207
	c11.428-12.698,24.141-15.003,39.252-12.606c16.143,2.561,16.566,16.05,19.293,28.03c0.292,1.282,2.977,2.02,7.989,5.17
	c0-9.801,0-17.196,0-29.044c9.452,4.055,16.724,7.175,23.772,10.199c0.772-4.227,1.537-8.414,2.062-11.29
	c10.398,2.279,20.033,4.39,32.349,7.089c0.922,29.705,28.775,60.541,4.252,92.1c5.22,8.218,9.949,15.662,12.601,19.838
	c11.36,0.704,20.498,1.271,31.025,1.924c1.507-9.999,3.047-20.222,4.958-32.905c10.11,8.028,16.409,26.841,27.408,5.757
	c-8.319-4.496-24.069-7.601-17.609-19.076c7.429-13.194-0.052-18.229-5.752-25.684c-5.213-6.819-10.99-13.206-19.838-23.734
	c11.354-0.835,17.772-1.486,24.203-1.676c2.101-0.062,6.069,1.67,6.097,1.584c5.186-16.041,14.94-8.751,23.705-4.537
	c8.306,3.993,15.998,11.255,24.548,12.308c14.909,1.837,1.828,19.011,14.298,21.773c5.935,1.315,11.023,6.922,16.181,10.983
	c1.469,1.156,1.836,3.711,2.987,6.236c-3.53,3.088-7.195,6.296-12.795,11.196c17.954,2.394,15.562,26.315,34.472,27.249
	c7.117-2.317,7.619-18.327,19.756-11.349c9.952,5.722,7.42,14.917,4.478,23.705c-0.759,2.267-1.196,4.642-1.755,6.865
	c15.956,4.968,25.804-1.035,33.692-11.957c0.659-0.912,1.609-1.846,1.711-2.843c0.064-0.625-1.204-1.387-1.87-2.061
	c-7.469,0.99-14.938,1.98-28.861,3.825c12.845-15.951,21.457-26.645,30.67-38.084c-7.701-0.818-15.292-1.624-23.061-2.449
	c0.876-3.033,2.454-6.784,1.971-7.072c-10.564-6.287-20.758-14.05-32.241-17.744c-18.811-6.051-24.016-8.552-38.938-30.222
	c15.919-5.21,31.686-10.37,48.277-15.8c-2.86-10.439-5.027-18.349-7.13-26.024c17.364-6.412,31.913-13.215,49.131-3.993
	c7.756,4.155,17.845,0.548,20.588-5.235c-3.835-8.963-9.465-15.867-8.253-21.222c1.011-4.466,10.044-7.117,15.637-10.644
	c-11.931-8.192-31.687-6.155-32.843-25.718c-7.359,0.42-16.414,3.819-21.435,0.707c-18.268-11.322-26.66,0.555-35.918,12.353
	c6.847,8.58,7.82,16.101-2.931,21.743c-5.012-4.065-10.183-11.513-14.196-10.934c-15.138,2.184-30.059-1.141-44.81-0.09
	c-27.789,1.98-27.78,3.053-39.995-19.203c-0.724-1.318,0.907-3.928,1.936-7.791c5.589,0.982,11.315,1.989,20.715,3.642
	c-2.935-11.008-5.338-20.024-8.057-30.222c12.038,0,24.125,0,36.096,0c2.608,16.645,13.632,21.483,28.255,24.668
	c-2.45-6.598-3.946-10.627-6.008-16.18c5.515-1.206,9.634-2.829,13.779-2.899c33.988-0.576,20.937-33.918,34.139-48.927
	c0.654-0.743-0.167-2.783-0.322-4.446c-10.434-0.604-20.37-1.18-29.321-1.698c-9.998-15.835-19.63-30.245-4.695-40.482
	c-1.273-8.844-2.879-13.744-2.228-18.323c0.291-2.047,5.112-3.45,7.877-5.145c-7.273-8.958-10.178-15.905,2.699-24.231
	c5.714-3.695,6.421-15.135,9.296-22.782c-9.724-0.562-22.688,5.079-28.466-9.401c-2.852-14.353,30.986-13.362,12.98-34.192
	c-3.188,1.507-7.457,2.093-8.734,4.362c-8.189,14.552-18.236,21.888-34.708,11.798c-11.652-7.138-21.442,0.821-31.731,4.413
	C1292.433,742.815,1296.498,733.589,1297.222,725.24z M363.271,1531.857c57.571,0,112.542,0.719,167.467-0.542
	c12.597-0.289,25.19-6.97,37.518-11.446c20.388-7.403,21.812-26.899,23.829-43.596c2.059-17.045-12.61-34.372-30.279-38.729
	c-14.96-3.689-30.506-6.164-45.885-6.745c-28.058-1.06-56.185-0.461-84.281-0.255c-9.931,0.073-19.428-2.611-20.159-13.036
	c-0.788-11.233,8.863-14.041,18.732-14.009c5.619,0.018,11.239-0.032,16.858-0.033c25.85-0.004,51.7,0.098,77.549-0.028
	c30.409-0.148,39.009-6.88,50.972-40.515c-52.149,0-103.764-0.573-155.346,0.481c-10.385,0.212-21.048,5.733-30.868,10.333
	c-15.562,7.289-29.554,30.96-25.639,45.056c5.087,18.315,12.227,36.161,35.39,38.564c21.981,2.28,43.919,5.067,65.941,6.827
	c26.435,2.113,53.323-3.553,79.759,3.059c-5.04,23.172-5.033,23.724-24.509,23.966c-34.836,0.432-69.694,0.707-104.516-0.111
	c-18.428-0.433-32.995,2.872-39.91,22.454C373.849,1519.343,368.78,1524.064,363.271,1531.857z M1392.187,1531.89
	c10.052,0,16.853-0.809,23.398,0.143c24.908,3.625,41.052-4.7,54.411-27.772c17.968-31.032,41.234-58.996,63.864-90.561
	c19.912,25.715,37.726,48.539,53.794,77.236c-28.737,0-53.263,0-76.86,0c-9.928,13.953-18.737,26.333-28.297,39.77
	c63.334,0,126.099,0,191.362,0c-28.096-40.605-55.066-79.407-81.823-118.355c-8.126-11.829-14.545-25-23.699-35.92
	c-21.464-25.607-42.359-24.829-64.574-1.549c-2.912,3.051-3.787,7.946-6.326,11.469
	C1463.163,1433.904,1428.76,1481.365,1392.187,1531.89z M655.696,1531.163c13.207-18.997,25.62-40.061,41.231-58.401
	c15.447-18.146,22.726-43.105,45.706-57.392c16.407,24.824,31.792,48.1,50.208,75.965c-21.053,0-36.689,0.923-52.168-0.237
	c-18.788-1.408-32.684,4.043-40.869,21.886c-2.663,5.805-6.814,10.928-10.889,17.309c62.741,0,124.058,0,187.029,0
	c-4.975-8.607-8.401-15.597-12.775-21.931c-26.375-38.188-54.025-75.55-79.01-114.619c-11.381-17.795-24.433-30.839-44.411-37.167
	c-8.84,4.95-19.217,8.201-25.861,15.065c-10.682,11.036-19.141,24.286-28.111,36.905c-28.364,39.905-56.529,79.952-86.657,122.615
	C620.618,1531.163,637.422,1531.163,655.696,1531.163z M1168.543,1363.578c2.058,4.404,2.753,6.614,3.998,8.45
	c32.885,48.496,65.137,97.445,99.074,145.195c15.213,21.405,42.648,21.57,60.374,1.665c11.671-13.105,21.348-28.022,31.562-42.381
	c26.227-36.867,52.257-73.874,79.344-112.211c-19.563,0-38.167,0-57.304,0c-27.043,38.709-52.766,78.1-83.154,116.424
	c-27.8-41.42-53.428-79.604-78.622-117.142C1205.643,1363.578,1188.867,1363.578,1168.543,1363.578z M964.547,1403.506
	c24.213,0,44.181,0,63.247,0c10.614-13.678,20.06-25.852,31.461-40.544c-62.898,0-123.36-0.235-183.813,0.384
	c-5.681,0.058-12.778,4.225-16.646,8.705c-7.689,8.904-13.586,19.355-22.294,32.226c27.748,0,53.101,0,81.395,0
	c0,43.635,0,84.545,0,125.545c17.066,0,30.944,0,46.65,0C964.547,1487.723,964.547,1447.638,964.547,1403.506z M1087.53,1528.165
	c13.761,7.183,28.595,3.187,44.444,2.53c0-56.44,0-110.658,0-166.082c-15.438,0-29.297,0-44.444,0
	C1087.53,1419.709,1087.53,1473.134,1087.53,1528.165z M1297.223,725.24c1.235-5.288,2.471-10.577,5.256-22.499
	c-12.663,11.552-19.755,18.023-28.766,26.244c-3.38-7.466-8.11-13.638-8.789-20.228c-1.9-18.442-1.239-18.51-16.453-19.124
	c-13.445,19.046-25.635,36.315-38.447,54.465c1.798,1.572,5.481,4.794,9.224,8.067c-9.144,10.351-17.87,20.766-4.377,36.638
	c27.009-16.64,56.248-29.011,86.989-37.686c0.687-0.194,0.932-1.956,1.383-2.986C1292.433,742.815,1296.498,733.589,1297.223,725.24
	z"/>
</svg>
