<?xml version="1.0" encoding="iso-8859-1"?>
<!-- Generator: Adobe Illustrator 19.0.0, SVG Export Plug-In . SVG Version: 6.00 Build 0)  -->
<svg version="1.1" id="Layer_1" xmlns="http://www.w3.org/2000/svg" xmlns:xlink="http://www.w3.org/1999/xlink" x="0px" y="0px"
	 viewBox="0 0 500 500" enable-background="new 0 0 500 500" xml:space="preserve">
<path d="M238.992,495.604c-55.092-1.167-113.23-23.422-161.08-70.482C26.988,375.039,2.309,313.693,4.151,242.683
	C5.917,174.6,32.473,116.588,82.388,69.964C131.061,24.5,189.349,2.542,255.667,4.075c66.135,1.529,123.015,26.489,169.402,73.809
	c48.165,49.133,71.492,108.981,70.173,177.348c-1.198,62.075-23.609,116.594-66.189,162.32
	C379.677,470.577,313.798,495.337,238.992,495.604z M278.697,204.302c-28.038-0.893-50.064,23.07-48.42,51.617
	c1.519,26.374,21.515,47.906,50.523,46.77c29.087-1.139,47.686-22.835,47.316-50.742
	C327.758,224.903,305.308,203.019,278.697,204.302z M394.626,245.779c-1.067-2.043-2.246-3.388-2.47-4.876
	c-1.367-9.092-6.754-15.673-12.588-22.345c-8.465-9.68-19.503-13.123-31.479-14.976c-2.478-0.383-3.516,1.136-3.644,3.277
	c-0.207,3.464,1.393,5.01,6.358,5.428c25.033,2.11,41.37,31.283,33.937,52.766c-5.136,14.842-14.391,24.813-29.927,28.441
	c-2.49,0.581-5.341,0.556-7.374,1.841c-1.536,0.971-2.033,3.585-2.992,5.467c1.332,0.665,2.776,2.053,3.978,1.868
	c4.726-0.728,9.601-1.374,14.012-3.097c14.397-5.628,24.102-15.928,28.934-30.719c0.751-2.3,1.803-4.502,2.715-6.749
	c0.298,8.882,4.954,15.781,9.844,22.047c8.684,11.129,20.41,17.541,34.724,18.634c2.147,0.164,3.929-0.312,3.814-3.075
	c-0.093-2.219,0.446-4.406-3.102-4.882c-4.402-0.591-8.851-1.618-12.997-3.198c-16.555-6.311-29.876-28.051-23.503-48.517
	c4.506-14.47,14.146-25.376,28.678-29.335c2.456-0.669,4.997-1.295,7.518-1.385c3.412-0.121,3.355-2.224,3.432-4.638
	c0.103-3.219-1.613-3.476-4.321-3.469c-9.108,0.023-17.475,3.255-24.194,8.533C403.689,220.901,395.538,231.075,394.626,245.779z
	 M197.455,212.081c2.567-0.117,6.448,0.066,10.145-0.674c1.159-0.232,2.209-2.881,2.507-4.566c0.112-0.633-1.937-1.961-3.202-2.437
	c-1.156-0.435-2.584-0.175-3.892-0.171c-20.602,0.071-41.206-0.009-61.804,0.306c-7.913,0.121-15.557,2.893-21.623,7.607
	c-13.346,10.37-21.572,23.843-21.364,41.499c0.084,7.167-1.679,14.006-5.426,20.172c-7.485,12.317-18.036,20.049-32.766,21.09
	c-3.605,0.255-2.961,2.654-3.053,4.848c-0.117,2.789,1.791,3.414,3.83,2.979c5.287-1.127,10.84-1.827,15.696-4.011
	c19.715-8.868,28.227-25.222,29.684-46.066c0.289-4.138,0.722-8.414,2.038-12.306c5.633-16.657,19.529-28.636,38.28-28.335
	c4.902,0.079,9.805,0.058,14.708,0.061C172.876,212.086,184.538,212.081,197.455,212.081z M181.006,279.207c-0.045,0-0.09,0-0.135,0
	c0-7.202-0.086-14.406,0.042-21.606c0.052-2.924-1.021-4.032-3.966-4.033c-3.168-0.001-3.773,1.567-3.666,4.281
	c0.447,11.392,0.831,22.787,1.126,34.183c0.049,1.885-0.275,3.833-0.757,5.666c-0.654,2.488-0.96,4.565,2.402,5.064
	c3.496,0.519,4.89-0.482,4.932-3.924C181.063,292.295,181.006,285.751,181.006,279.207z M237.893,252.725
	c-0.077,23.126,17.569,41.396,40.35,42.289c22.496,0.881,41.195-17.761,42.243-40.568c1.006-21.907-19.17-44.301-40.783-42.243
	C258.536,209.853,237.965,230.953,237.893,252.725z"/>
</svg>
