<?xml version="1.0" encoding="utf-8"?>
<!-- Generator: Adobe Illustrator 24.2.0, SVG Export Plug-In . SVG Version: 6.00 Build 0)  -->
<svg version="1.1" id="STX" xmlns="http://www.w3.org/2000/svg" xmlns:xlink="http://www.w3.org/1999/xlink" x="0px" y="0px"
	 viewBox="0 0 500 500" style="enable-background:new 0 0 500 500;" xml:space="preserve">
<style type="text/css">
	.st0{fill-rule:evenodd;clip-rule:evenodd;}
</style>
<path class="st0" d="M6.2,45.2C0,59.5,0,77.6,0,114v136v136c0,36.4,0,54.5,6.2,68.8c7.6,17.5,21.5,31.5,39,39
	C59.5,500,77.6,500,114,500h136h136c36.4,0,54.5,0,68.8-6.2c17.5-7.6,31.5-21.5,39-39c6.2-14.3,6.2-32.4,6.2-68.8V250V114
	c0-36.4,0-54.5-6.2-68.8c-7.6-17.5-21.5-31.5-39-39C440.5,0,422.4,0,386,0H250H114C77.6,0,58.6,0,45.2,6.2
	C27.7,13.7,13.7,27.7,6.2,45.2z M329.8,215.4c-25,0-45.2-20.2-45.2-45.2c0-24.9,20.2-45.2,45.2-45.2s45.2,20.2,45.2,45.2
	S354.8,215.4,329.8,215.4z M215.3,170.2c0,24.9-20.2,45.2-45.2,45.2c-24.9,0-45.2-20.2-45.2-45.2s20.2-45.2,45.2-45.2
	S215.3,145.3,215.3,170.2z M329.8,284.8c-25,0-45.2,20.2-45.2,45.2s20.2,45.2,45.2,45.2c24.9,0,45.2-20.2,45.2-45.2
	S354.8,284.8,329.8,284.8z M170.2,284.8c24.9,0,45.2,20.2,45.2,45.2c0,24.9-20.2,45.2-45.2,45.2c-24.9,0-45.2-20.2-45.2-45.2
	S145.2,284.8,170.2,284.8z"/>
</svg>
