<?xml version="1.0" encoding="iso-8859-1"?>
<!-- Generator: Adobe Illustrator 19.0.0, SVG Export Plug-In . SVG Version: 6.00 Build 0)  -->
<svg version="1.1" id="Layer_1" xmlns="http://www.w3.org/2000/svg" xmlns:xlink="http://www.w3.org/1999/xlink" x="0px" y="0px"
	 viewBox="0 0 500 500" style="enable-background:new 0 0 500 500;" xml:space="preserve">
<path id="XMLID_4_" d="M166.405,22.875c-26.542,19.98-52.758,39.715-80.033,60.247c11.922,9.068,23.275,17.772,34.7,26.382
	c103.609,78.079,207.231,156.141,310.849,234.207c8.241,6.208,8.394,8.439,0.488,14.617c-6.765,5.286-13.57,10.561-20.735,15.266
	c-1.81,1.188-5.062,0.181-7.651,0.183c0.578-2.796,0.204-6.63,1.911-8.195c5.377-4.929,11.535-9.006,18.452-14.211
	c-17.272-13.078-33.657-25.545-50.105-37.929C278.178,241.079,182.02,168.79,85.987,96.335C67.519,82.4,67.603,83.959,86.36,70.074
	c24.276-17.971,48.343-36.233,72.19-54.768c5.701-4.431,9.766-4.954,15.37-0.039c6.661,5.842,14.401,10.448,21.122,16.23
	c2.024,1.741,2.21,5.619,3.238,8.518c-3.206-0.104-7.169,0.964-9.48-0.527C181.144,34.544,174.083,28.68,166.405,22.875z
	 M323.353,463.489c-2.09-1.361-5.515-0.673-8.329-0.924c0.786,3.002,0.609,7.071,2.536,8.809
	c6.141,5.539,13.255,9.981,19.623,15.291c4.877,4.067,8.687,4.239,13.963,0.163c26.256-20.284,52.805-40.19,79.285-60.184
	c10.499-7.927,10.448-8.964-0.211-16.983c-34.327-25.824-68.574-51.754-102.886-77.598
	c-68.389-51.511-136.813-102.976-205.192-154.501c-11.907-8.972-23.664-18.144-35.769-27.438
	c6.362-4.787,12.109-8.543,17.074-13.142c1.855-1.718,1.888-5.404,2.752-8.192c-2.931-0.029-6.56-1.183-8.663,0.122
	c-6.523,4.049-12.481,9.015-18.632,13.659c-8.727,6.589-8.821,8.592-0.335,15.051c29.224,22.243,58.409,44.539,87.764,66.609
	c75.541,56.795,151.174,113.467,226.744,170.223c10.264,7.708,20.379,15.614,31.361,24.041
	c-27.304,20.547-53.534,40.287-80.216,60.366C336.729,473.25,330.282,468,323.353,463.489z M413.942,145.055
	c-20.355,0-40.717,0.258-61.062-0.207c-4.312-0.099-9.253-1.908-12.738-4.499c-35.679-26.524-71.059-53.45-106.757-79.947
	c-2.319-1.721-6.567-0.842-9.917-1.173c1.194,3.114,1.464,7.438,3.721,9.161c36.753,28.068,73.71,55.87,110.8,83.492
	c2.814,2.096,6.966,3.323,10.512,3.36c26.436,0.273,52.877,0.275,79.312-0.021c3.36-0.038,6.695-2.286,10.042-3.51
	c-1.969-2.99-3.336-6.75-6.008-8.842c-14.237-11.143-28.815-21.85-43.25-32.742c-41.882-31.603-83.782-63.181-125.588-94.885
	c-5.44-4.125-9.496-4.465-15.457,0.11c-35.485,27.235-71.439,53.859-107.006,80.99c-2.379,1.815-2.861,6.116-4.226,9.26
	c3.591-0.386,8.13,0.505,10.628-1.351c34.259-25.447,68.321-51.164,102.193-77.126c5.049-3.87,8.117-3.188,12.837,0.457
	c24.396,18.84,49.096,37.288,73.709,55.845c26.242,19.785,52.506,39.541,78.761,59.31
	C414.28,143.511,414.111,144.283,413.942,145.055z M96.715,356.895c20.465,0,40.934-0.213,61.392,0.181
	c4.066,0.078,8.78,1.55,12.022,3.958c34.968,25.979,69.635,52.364,104.628,78.308c2.667,1.978,8.986,3.257,10.517,1.74
	c4.419-4.378-0.71-7.121-3.865-9.51c-35.669-27.02-71.351-54.024-107.168-80.847c-2.891-2.165-6.791-4.162-10.247-4.204
	c-27.912-0.342-55.831-0.284-83.745-0.049c-2.414,0.02-6.428,1.814-6.809,3.454c-0.487,2.099,1.343,5.606,3.257,7.232
	c6.087,5.171,12.679,9.748,19.071,14.56c50.906,38.321,101.845,76.597,152.658,115.041c4.673,3.536,8.216,4.339,13.276,0.489
	c35.848-27.278,71.958-54.211,107.72-81.599c2.457-1.882,2.772-6.559,4.083-9.936c-3.408,0.621-7.577,0.195-10.101,2.031
	c-17.493,12.722-34.621,25.945-51.91,38.949c-18.67,14.041-37.388,28.018-56.277,42.167C201.813,438.58,148.906,398.68,96,358.779
	C96.238,358.151,96.477,357.523,96.715,356.895z"/>
</svg>
