<?xml version="1.0" encoding="iso-8859-1"?>
<!-- Generator: Adobe Illustrator 19.0.0, SVG Export Plug-In . SVG Version: 6.00 Build 0)  -->
<svg version="1.1" id="Layer_1" xmlns="http://www.w3.org/2000/svg" xmlns:xlink="http://www.w3.org/1999/xlink" x="0px" y="0px"
	 viewBox="0 0 2000 2000" style="enable-background:new 0 0 2000 2000;" xml:space="preserve">
<path d="M32.078,996.558C15.803,496.479,459.457,4.425,1044.367,29.616c487.879,21.012,929.676,427.644,928.614,974.671
	c-1.032,531.921-435.999,964.857-968.936,967.834C463.683,1975.139,17.051,1520.378,32.078,996.558z M997.101,656.126
	c155.029,86.866,318.784,128.51,483.992,143.744c-108.512-104.505-218.862-210.78-334.131-321.792c-92.857,0-193.962,0-296.237,0
	c-157.644,183.35-326.371,355.772-518.767,512.7c271.607,59.406,537.401,117.541,810.534,177.281
	c-51.573,58.537-97.653,110.839-145.204,164.811c-155.637-100.678-327.088-131.38-505.687-140.042
	c155.967,70.872,268.88,188.155,358.096,326.281c105.667,0,206.653,0,307.606,0c148.642-194.904,322.33-363.355,513.598-524.823
	c-272.103-61.036-536.611-120.368-806.773-180.968C910.182,758.876,952.385,708.986,997.101,656.126z M880.444,432.679
	c84.164,0,164.316,0,244.782,0c-41.499-61.184-81.375-119.976-120.331-177.409C964.324,313.106,923.175,371.765,880.444,432.679z
	 M1000.953,1745.235c41.506-59.212,82.176-117.232,124.081-177.014c-81.975,0-161.956,0-243.835,0
	C922.311,1628.992,961.494,1686.91,1000.953,1745.235z"/>
</svg>
