<?xml version="1.0" encoding="iso-8859-1"?>
<!-- Generator: Adobe Illustrator 19.0.0, SVG Export Plug-In . SVG Version: 6.00 Build 0)  -->
<svg version="1.1" id="Layer_1" xmlns="http://www.w3.org/2000/svg" xmlns:xlink="http://www.w3.org/1999/xlink" x="0px" y="0px"
	 viewBox="0 0 2000 2000" style="enable-background:new 0 0 2000 2000;" xml:space="preserve">
<path d="M998.808,23.527c541.516-2.402,983.252,437.261,977.215,989.893c-5.743,525.704-430.598,979.56-1012.775,964.654
	C472.002,1965.496-5.634,1551.647,22.801,944.562C45.541,459.058,452.745,21.191,998.808,23.527z M1010.29,72.035
	C692.389,60.278,332.062,232.497,165.214,606.809C22.647,926.651,62.041,1340.594,316.826,1618.414
	c185.768,202.563,415.751,305.654,692.398,307.601c0-48.419,0-90.469,0-132.435c-437.606-5.421-763.983-323.868-788.225-743.619
	c-10.283-178.044,26.564-348.108,130.51-496.093c159.26-226.733,379.475-345.101,658.78-348.068
	C1010.29,158.718,1010.29,116.362,1010.29,72.035z M682.159,863.669c115.56,108.084,227.703,212.973,339.846,317.861
	c-1.153,2.066-2.306,4.132-3.459,6.198c-148.542,0-297.084,0-450.991,0c61.236,91.794,119.639,179.342,178.305,267.282
	c182.012,0,363.317-1.059,544.596,0.579c62.779,0.567,101.578-33.131,127.592-82.577c38-72.23,12.729-192.142-55.826-255.615
	c-94.628-87.613-193.141-171.031-287.129-253.728C943.003,863.669,814.749,863.669,682.159,863.669z M621.686,808.408
	c271.177,0,537.664,0,810.073,0c-62.427-93.532-122.715-183.858-181.978-272.649c-149.749,0-295.177-0.287-440.602,0.259
	c-26.836,0.101-53.834,2.254-80.451,5.775c-45.47,6.015-103.462,60.896-106.259,105.284
	C619.14,699.926,621.686,753.146,621.686,808.408z"/>
</svg>
