<?xml version="1.0" encoding="iso-8859-1"?>
<!-- Generator: Adobe Illustrator 19.0.0, SVG Export Plug-In . SVG Version: 6.00 Build 0)  -->
<svg version="1.1" id="Layer_1" xmlns="http://www.w3.org/2000/svg" xmlns:xlink="http://www.w3.org/1999/xlink" x="0px" y="0px"
	 viewBox="0 0 2000 2000" style="enable-background:new 0 0 2000 2000;" xml:space="preserve">
<path d="M1783.662,114.392c0,87.518,0,174.323,0,270.554c-32.192,0-57.45,0.009-82.708-0.001
	c-318.35-0.127-636.712-1.755-955.043,0.627c-83.838,0.627-169.287,5.557-250.997,22.756
	c-146.701,30.88-234.651,148.401-240.132,299.262c-3.538,97.37,6.002,191.333,69.498,270.024
	c65.43,81.089,157.401,116.164,257.028,118.452c240.264,5.518,480.691,3.91,721.049,5.563c25.867,0.178,51.973,1.111,77.531,4.759
	c114.628,16.36,151.123,64.063,138.736,181.684c-3.121,29.641-10.241,58.86-16.855,95.686c-26.679,0-49.953,0.007-73.227-0.001
	c-249.049-0.09-498.16,2.96-747.115-1.938c-89.992-1.77-183.094-11.091-268.696-37.032
	c-197.858-59.962-318.305-199.077-367.63-400.07C8.727,796.496,9.442,648.227,55.626,503.424
	C132.668,261.868,324.424,121.058,568.15,114.23c391.66-10.972,783.815-4.328,1175.76-4.898
	C1754.45,109.317,1764.993,111.933,1783.662,114.392z M335.578,1888.895c329.16-0.067,658.323,0.472,987.479-0.757
	c60.26-0.225,121.27-2.925,180.579-12.701c134.084-22.1,249.663-80.583,338.154-187.207
	c127.654-153.812,153.779-334.552,137.178-525.107c-12.729-146.11-63.02-277.712-169.916-382.825
	c-116.129-114.192-260.762-160.075-418.814-162.113c-268.482-3.461-537.039-1.094-805.565-1.174
	c-25.707-0.008-51.415-0.001-74.738-0.001C444.465,760.164,475.514,906.267,687.1,895.332
	c131.733-6.808,264.132-1.846,396.214-0.444c121.142,1.286,242.829-1.597,363.252,8.995
	c176.886,15.559,278.632,118.267,299.568,293.698c5.798,48.585,2.286,99.6-5.365,148.175
	c-12.894,81.857-51.301,150.044-123.425,197.065c-77.248,50.362-162.396,68.396-252.754,68.506
	c-350.813,0.425-701.626,0.739-1052.439,1.088c-27.595,0.027-55.189,0.004-92.686,0.004c0,94.223,0,180.995,0,276.476
	C266.618,1888.896,301.098,1888.902,335.578,1888.895z"/>
</svg>
