<?xml version="1.0" encoding="utf-8"?>
<!-- Generator: Adobe Illustrator 26.2.1, SVG Export Plug-In . SVG Version: 6.00 Build 0)  -->
<svg version="1.1" id="sushi" xmlns="http://www.w3.org/2000/svg" xmlns:xlink="http://www.w3.org/1999/xlink" x="0px" y="0px"
	 viewBox="0 0 500 500" style="enable-background:new 0 0 500 500;" xml:space="preserve">
<g>
	<path d="M477.4,247.5c-0.1,0-0.1,0-0.2,0c-16.5-45.3-60.9-99.2-122.3-143.3c-98-70.4-206.8-92.3-239.3-47.1
		C97,83,42.2,159.2,23.6,185.1c-26.1,36.4,5.1,105.2,69.3,167.4c0.1,0,0.1,0,0.2,0c15.6,15.1,33.1,29.7,52.2,43.5
		c97.9,70.4,205.2,92.3,237.7,47.1c18.6-25.9,73.4-102.2,92-128.1C487.1,298.2,487.1,274.4,477.4,247.5z M464.4,305.9
		c-27.5,38.6-125.1,16.3-218-49.9S100.6,104.8,128.1,66.2c27.5-38.6,125.1-16.3,218,49.9S492,267.3,464.4,305.9z"/>
	<path d="M319.7,153.1c-46.2-33-94.1-44.9-107.1-26.7c-13,18.2,13.9,59.6,60.1,92.5c46.2,33,94.1,44.9,107.1,26.7
		C392.8,227.5,365.9,186,319.7,153.1z"/>
</g>
</svg>
