<?xml version="1.0" encoding="iso-8859-1"?>
<!-- Generator: Adobe Illustrator 19.0.0, SVG Export Plug-In . SVG Version: 6.00 Build 0)  -->
<svg version="1.1" id="Layer_1" xmlns="http://www.w3.org/2000/svg" xmlns:xlink="http://www.w3.org/1999/xlink" x="0px" y="0px"
	 viewBox="0 0 500 500" enable-background="new 0 0 500 500" xml:space="preserve">
<path d="M5.009,249.586C5.253,111.533,117.075,1.594,255.078,4.6c135.045,2.942,242.258,110.62,240.295,249.684
	c-1.906,135.036-112.139,240.999-246.052,240.757C112.76,494.795,3.832,382.059,5.009,249.586z M272.3,116.182
	c-44.015,61.389-88.136,122.927-133.23,185.821c74.7,0,147.811,0,221.049,0c0-10.677,0-21.375,0-32.778
	c-53.398,0-106.309,0-160.037,0c36.912-51.234,73.204-101.607,110.262-153.043C296.624,116.182,284.961,116.182,272.3,116.182z
	 M300.253,230.438c-8.813,12.386-16.735,23.521-25.144,35.338c13.117,0,25.112,0,37.041,0c15.93-22.179,31.788-44.257,48.238-67.159
	c-35.666,0-69.818,0-103.988,0c-7.448,10.405-14.802,20.68-22.776,31.821C256.183,230.438,277.411,230.438,300.253,230.438z
	 M245.528,306.862c-18.049,25.098-36.305,50.484-55.226,76.795c12.98,0,24.572,0,37.185,0
	c17.946-24.966,36.305-50.509,55.199-76.795C269.662,306.862,257.844,306.862,245.528,306.862z M208.926,197.626
	c-23.765,0-45.914,0-68.561,0c0,10.866,0,21.371,0,31.955c15.088,0,29.71,0,45.221,0
	C192.91,219.553,200.491,209.175,208.926,197.626z"/>
</svg>
