<?xml version="1.0" encoding="iso-8859-1"?>
<!-- Generator: Adobe Illustrator 19.0.0, SVG Export Plug-In . SVG Version: 6.00 Build 0)  -->
<svg version="1.1" id="Layer_1" xmlns="http://www.w3.org/2000/svg" xmlns:xlink="http://www.w3.org/1999/xlink" x="0px" y="0px"
	 viewBox="0 0 500 500" enable-background="new 0 0 500 500" xml:space="preserve">
<path d="M249.462,494.576C114.428,497.235,1.857,382.316,4.077,250.752C0.416,115.846,115.717,1.188,248.831,4.099
	C374.449,0.324,494.944,105.325,495.183,248.97C495.42,390.988,377.049,497.481,249.462,494.576z M190.668,346.847
	c13.999,17.848,38.727,23.804,58.842,16.914c22.759-7.796,36.363-29.667,36.221-50.185c-0.171-24.81-0.017-49.622-0.01-74.433
	c0.004-14.178-0.183-28.358,0.047-42.532c0.227-13.951,6.351-24.733,18.393-32.013c1.407-0.85,2.754-1.8,4.387-2.874
	c-14.261-16.28-31.904-22.395-52.217-18.274c-21.021,4.265-35.122,17.39-40.832,38.333c-1.769,6.488-2.21,13.475-2.331,20.25
	c-0.312,17.463-0.104,34.936-0.104,52.405c0,18.988-0.121,37.977,0.038,56.964c0.123,14.778-6.136,25.749-18.79,33.201
	C193.256,345.226,192.222,345.889,190.668,346.847z M291.98,249.519c-2.471,29.625,19.714,71.983,68.643,75.244
	c38.144,2.542,71.754-24.847,76.828-63.991c3.861-29.787-16.698-68.624-37.301-71.603c16.569,21.638,16.11,48.665,6.567,62.745
	c3.955-17.328,1.004-32.442-7.748-46.255c-8.929-14.092-21.758-22.777-39.859-26.677c11.195,10.164,17.132,21.187,18.488,34.685
	c1.295,12.886-4.52,29.382-12.717,34.65c8.098-22.125,5.153-38.34-8.794-51.519c-9.976-9.427-29.808-14.871-43.379-7.349
	c22.755,1.941,34.819,10.245,39.159,26.954c3.691,14.212-2.29,29.592-14.737,37.891C323.609,263.31,308.213,261.773,291.98,249.519z
	 M186.878,189.428c-14.995-6.964-33.317-2.488-43.354,7.246c-16.603,16.102-17.351,34.608-6.575,56.025
	c-10.195-10.294-14.846-21.111-15.335-33.402c-0.625-15.703,5.905-28.664,18.489-40.253c-15.568,3.209-27.025,10.161-35.825,21.194
	c-12.061,15.122-15.85,32.419-12.512,51.4c-9.957-22.993-6.692-44.295,9.458-64.838c-32.947,16.83-48.984,56.302-34.449,92.492
	c14.118,35.151,53.307,53.523,89.364,42.448c36.212-11.123,54.352-47.563,50.78-71.873c-15.873,11.947-31.17,13.492-44.737,4.352
	c-12.888-8.682-18.318-22.844-14.406-38.63C151.75,199.561,164.483,191.215,186.878,189.428z M297.468,39.264
	c-0.538-0.115-1.077-0.23-1.615-0.345c-0.535-5.175-1.069-10.349-1.634-15.816c-1.793-0.219-3.407-0.416-5.68-0.693
	c0.898,9.527,1.733,18.393,2.577,27.347c1.883,0.493,3.79,0.991,4.543,1.188c3.764-5.178,7.063-9.716,11.155-15.345
	c2.148,6.936,1.483,12.943,2.438,19.014c1.762,0.397,3.637,0.819,5.121,1.153c1.66-2.594,2.919-4.759,4.368-6.788
	c3.379-4.732,6.868-9.385,10.255-14.112c0.351-0.49,0.313-1.259,0.53-2.228c-1.919-0.392-3.565-0.728-5.037-1.028
	c-3.176,4.4-6.104,8.456-9.369,12.979c-3.195-5.447-1.545-10.973-2.694-16.396c-2.089-0.537-4.187-1.077-5.648-1.453
	C303.432,31.242,300.45,35.253,297.468,39.264z M470.74,204.26c-4.555-0.316-8.4-0.582-13.957-0.967
	c4.696-3.407,7.918-5.744,11.556-8.384c-0.556-1.934-1.161-4.037-1.6-5.561c-4.396-0.482-8.15-0.894-11.904-1.306
	c-0.081-0.483-0.162-0.966-0.243-1.449c3.224-2.295,6.448-4.591,9.769-6.955c-0.45-1.647-0.948-3.468-1.446-5.29
	c-6.431,4.616-12.556,9.012-18.892,13.559c0.509,1.469,1.077,3.107,1.588,4.583c4.836-0.147,9.311,0.355,15.504,1.189
	c-5.369,3.874-9.181,6.625-13.068,9.43c0.579,1.703,1.052,3.092,1.445,4.247c7.787,0.841,15.182,1.641,22.848,2.469
	C471.75,207.77,471.266,206.089,470.74,204.26z M70.717,134.469c0.704,0.206,1.407,0.412,2.111,0.618
	c0.11,1.552,0.657,3.232,0.247,4.632c-1.284,4.392-4.531,7.138-8.541,9.097c-0.308,0.151-0.39,0.765-0.692,1.407
	c0.836,1.025,1.743,2.136,2.653,3.251c5.382-3.049,9.142-6.877,11.132-12.353c2.928-8.056-0.363-12.298-10.078-11.801
	c-3.258,3.554-6.899,7.524-11.303,12.328c-0.735-2.529-1.683-3.974-1.39-5.096c1.286-4.94,4.969-7.856,9.631-9.88
	c-1.077-1.693-2.015-3.167-3.48-5.471c-3.476,4.186-6.924,7.781-9.681,11.845c-2.04,3.007-2.467,6.681-0.126,9.979
	c2.434,3.429,5.802,3.581,9.962,2.215C64.16,141.861,67.439,138.165,70.717,134.469z M166.195,63.774
	c-1.228-2.99-2.162-5.263-3.172-7.722c6.097-3.918,8.94,0.941,12.82,3.753c1.753-0.803,3.801-1.742,6.056-2.775
	c-2.985-1.943-5.667-3.689-8.317-5.414c3.771-6.897,3.656-7.577-2.626-12.822c-5.781,2.192-12.08,4.581-18.376,6.968
	c2.97,6.783,5.786,13.214,8.703,19.876C163.081,64.956,164.431,64.444,166.195,63.774z M91.286,89.344
	c1.202,5.342,3.792,9.121,3.551,14.499c-4.692-1.391-8.688-2.575-13.453-3.987c-0.928,1.1-2.455,2.908-3.984,4.719
	c5.379,5.102,10.287,9.758,15.446,14.651c1.257-1.49,2.139-2.536,3.026-3.587c-2.823-2.948-5.247-5.48-8.078-8.437
	c5.216-0.33,8.946,3.101,13.359,1.592c-1.096-4.368-2.091-8.332-3.086-12.297c0.329-0.145,0.658-0.29,0.987-0.435
	c2.692,2.572,5.384,5.144,8.347,7.975c1.036-1.292,2.225-2.775,3.38-4.216c-5.29-4.951-10.215-9.561-15.76-14.75
	C93.583,86.715,92.283,88.203,91.286,89.344z M337.435,433.613c3.59,6.647,6.809,12.606,10.157,18.806
	c1.248-0.696,2.725-1.52,4.342-2.422c-1.918-3.545-3.663-6.771-5.757-10.641c6.617-0.008,11.781,2.506,17.543,4.538
	c1.303-0.954,2.817-2.063,4.284-3.138c-3.541-6.381-6.816-12.281-10.228-18.428c-1.705,0.953-3.073,1.718-4.226,2.362
	c2.167,3.933,4.066,7.379,6.785,12.316c-7.093-2.107-12.702-3.774-19.019-5.651C340.588,431.779,339.085,432.653,337.435,433.613z
	 M387.129,70.634c-4.646,5.582-9.139,10.98-13.769,16.543c1.519,1.283,2.828,2.39,3.972,3.356c1.98-2.164,3.789-4.14,6.328-6.914
	c1.503,1.629,2.491,2.698,3.243,3.513c-0.523,4.022-0.937,7.21-1.383,10.64c1.505,1.081,2.979,2.139,4.683,3.362
	c0.544-3.524,0.996-6.448,1.504-9.733c4.106,1.156,7.552,0.828,9.249-3.094c1.735-4.009-0.696-6.715-3.539-9.1
	C393.939,76.292,390.445,73.397,387.129,70.634z M274.489,451.634c0.238,4.332,0.442,8.036,0.748,13.607
	c-5.652-4.71-9.994-8.328-14.793-12.327c-1.14,0.092-2.844,0.229-4.507,0.363c0.635,7.207,1.24,14.066,1.867,21.184
	c1.902-0.202,3.303-0.35,4.962-0.526c-0.471-4.398-0.887-8.284-1.445-13.497c5.641,4.737,10.228,8.588,14.936,12.54
	c1.583-0.125,3.282-0.259,5.051-0.399c-0.819-7.369-1.581-14.221-2.36-21.224C277.166,451.467,275.94,451.543,274.489,451.634z
	 M424.581,144.91c4.682,6.486,5.317,15.513,14.967,17.181c1.444-0.394,2.959-0.639,4.337-1.211c7.096-2.95,9.131-8.099,5.853-15.191
	c-1.776-3.841-3.91-7.516-5.92-11.336C437.267,137.948,431.211,141.272,424.581,144.91z M453.309,258.285
	c-0.341,4.745-0.629,8.507-0.872,12.272c-0.065,1.006-0.071,2.028,0.024,3.031c0.447,4.702,2.697,7.408,7.151,8.685
	c7.06,2.023,12.756-1.261,14.073-8.577c0.785-4.359,0.797-8.858,1.161-13.342C467.516,259.65,460.768,259.002,453.309,258.285z
	 M428.078,394.963c-6.646-5.901-12.994-11.538-19.681-17.475c-1.392,1.619-2.646,3.077-3.788,4.406
	c2.74,2.528,5.27,4.862,8.258,7.618c-2.979,3.385-5.587,6.349-8.314,9.446c1.19,1.073,2.271,2.048,3.152,2.842
	c2.894-3.093,5.58-5.964,8.484-9.067c1.751,1.574,2.933,2.636,4.381,3.939c-4.187,4.738-7.955,9.001-11.911,13.479
	c1.283,1.057,2.412,1.987,3.501,2.884C417.639,406.813,422.926,400.811,428.078,394.963z M364.767,62.103
	c0.129-6.662-5.886-12.321-13.399-12.605c-6.517-0.246-11.253,3.986-11.511,10.286c-0.285,6.957,6.059,12.982,13.772,13.081
	C360.014,72.946,364.643,68.474,364.767,62.103z M458.552,308.335c1.508,0.855,2.641,1.498,3.806,2.159
	c-1.317,4.753-2.503,9.034-3.789,13.673c1.706,0.343,2.806,0.564,3.975,0.799c1.887-6.672,3.645-12.884,5.461-19.307
	c-7.2-2.152-13.839-4.136-20.67-6.177c-2.119,6.916-4.075,13.298-6.086,19.861c1.493,0.516,2.405,0.832,3.632,1.256
	c1.71-5.077,3.353-9.953,5.047-14.981c1.956,0.801,3.085,1.263,4.333,1.774c-0.834,3.379-1.583,6.414-2.402,9.729
	c1.542,0.185,2.464,0.296,3.446,0.414C456.385,314.479,457.373,311.678,458.552,308.335z M31.862,307.232
	c2.172,6.589,4.241,12.865,6.275,19.033c7.21-2.292,13.822-4.394,20.598-6.547c-2.172-6.878-4.213-13.343-6.33-20.045
	c-1.387,0.587-2.512,1.063-3.626,1.535c1.477,4.966,2.871,9.651,4.3,14.457c-1.811,0.66-2.932,1.068-4.335,1.579
	c-1.211-3.028-2.312-5.78-3.562-8.904c-1.347,0.222-2.511,0.414-3.521,0.581c0.903,3.324,1.727,6.353,2.699,9.932
	c-2.083,0-3.199,0-4.404,0c-1.511-4.522-2.936-8.785-4.454-13.329C34.181,306.144,33.094,306.654,31.862,307.232z M34.796,223.788
	c-0.669,4.158-1.218,7.564-1.811,11.248c-2.81-0.319-4.965-0.564-7.405-0.841c-0.281,2.101-0.495,3.7-0.729,5.452
	c7.518,0.624,14.419,1.196,21.515,1.785c0-2.197,0-3.622,0-5.281c-2.923-0.314-5.592-0.6-8.896-0.954
	c0.415-4.137,0.777-7.742,1.172-11.666c3.499,0.257,6.195,0.455,9.241,0.678c0-1.7,0-3.336,0-5.139
	c-6.998-0.671-13.669-1.311-20.744-1.989c0,2.035,0,3.419,0,4.835C29.607,222.518,31.774,223.048,34.796,223.788z M149.924,427.054
	c0,8.736,0,16.451,0,24.231c1.857,0.78,3.658,1.537,4.529,1.903c6.423-5.209,12.257-9.939,18.318-14.854
	c-1.726-0.846-3.279-1.606-4.607-2.257c-1.595,1.308-2.921,2.395-4.455,3.653c-3.099-1.543-5.962-2.968-8.795-4.378
	c0.187-2.239,0.324-3.887,0.474-5.682C153.577,428.803,152.03,428.062,149.924,427.054z M296.282,447.71
	c6.07,6.349,11.276,11.794,16.906,17.684c1.317-0.427,3.152-1.022,4.374-1.418c1.114-8.019,2.133-15.349,3.269-23.522
	c-2.513,1.038-4.046,1.671-5.168,2.135c-0.096,1.982-0.164,3.404-0.25,5.166c-3.346,0.932-6.418,1.788-9.606,2.676
	c-1.155-1.654-1.995-2.857-2.99-4.282C301.074,446.565,299.162,447.022,296.282,447.71z M124.19,62.459
	c-1.203,0.991-2.686,2.212-3.414,2.813c1.378,8.041,2.619,15.282,3.985,23.257c1.95-1.442,3.1-2.294,4.119-3.047
	c-0.394-2.006-0.714-3.637-1.081-5.506c2.872-1.938,5.516-3.723,8.097-5.465c1.878,1.107,3.352,1.975,5.118,3.015
	c1.405-1.224,2.83-2.465,4.374-3.81C138.325,69.965,131.691,66.442,124.19,62.459z M28.497,261.162
	c-2.981,4.998-3.744,9.611-2.584,14.438c1.476,6.138,6.102,9.444,12.155,8.953c5.886-0.477,9.765-4.756,10.13-11.146
	c0.274-4.8-1.646-8.825-4.42-12.541c-0.257-0.344-0.741-0.518-1.401-0.959c-0.833,0.701-1.736,1.462-2.611,2.199
	c6.307,9.586,5.517,13.984-2.905,17.386c-7.64-3.105-8.675-6.112-5.505-16.415C30.626,262.588,29.838,262.061,28.497,261.162z
	 M211.209,467.634c6.38,4.941,8.908,5.89,14.259,5.602c6.126-0.33,10.625-4.498,11.102-10.287c0.432-5.241-3.261-9.955-8.963-11.532
	c-5.157-1.426-9.911-0.494-14.574,2.21c0.619,1.242,1.163,2.334,1.559,3.127c2.793-0.748,5.181-1.773,7.631-1.952
	c3.508-0.258,6.509,1.364,8.101,4.545c1.174,2.345,1.016,4.956-0.957,7.046c-2.485,2.631-5.521,3.518-8.932,2.196
	c-2.286-0.886-4.441-2.106-7.221-3.449C212.724,465.751,212.105,466.52,211.209,467.634z M53.81,360.807
	c6.744-3.816,12.816-7.251,19.163-10.842c-1.047-1.813-1.895-3.281-2.822-4.886c-6.469,3.428-12.647,6.702-19.169,10.158
	c-1.857-3.128-3.381-5.695-5.035-8.481c-1.211,0.705-2.436,1.417-3.87,2.252c4.361,7.698,8.529,15.054,12.924,22.811
	c1.698-1.304,2.643-2.03,3.476-2.67C56.953,366.425,55.607,364.019,53.81,360.807z M201.647,33.841
	c1.313,5.631,2.611,11.198,3.94,16.902c1.865-0.465,3.534-0.882,4.902-1.223c-0.635-5.961-3.373-11.273-2.408-17.335
	c2.592-0.463,4.745-0.847,7.004-1.25c-0.192-1.042-0.222-1.813-0.491-2.487c-0.263-0.66-0.771-1.223-1.04-1.63
	c-6.995,1.501-13.753,2.952-20.79,4.462c0.411,1.402,0.68,2.319,1.036,3.535C196.379,34.494,198.774,34.197,201.647,33.841z
	 M117.217,409.189c3.685,2.809,7.176,5.469,11,8.384c-3.712,5.032-6.953,9.424-10.412,14.114c1.348,0.922,2.869,1.963,4.387,3.002
	c4.412-5.949,8.465-11.414,12.789-17.244c-5.205-3.901-10.166-7.618-15.43-11.563C118.623,407.196,117.933,408.175,117.217,409.189z
	 M418.505,128.152c-3.399-4.313-5.995-7.606-8.728-11.074c4.84-4.049,9.045-7.566,13.403-11.213
	c-1.157-1.523-2.034-2.677-3.072-4.043c-5.673,4.508-11.137,8.85-16.986,13.497c4.073,5.109,8.082,10.137,12.234,15.346
	C416.759,129.546,417.527,128.934,418.505,128.152z M391.824,424.007c-4.776-5.876-9.159-11.269-13.658-16.805
	c-1.913,1.364-3.252,2.318-4.282,3.052c5.08,6.338,9.307,11.612,13.736,17.139C389.111,426.192,390.243,425.28,391.824,424.007z
	 M190.106,443.914c-2.097,7.105-4.067,13.781-6.122,20.746c1.717,0.491,3.364,0.963,5.06,1.448
	c2.034-6.808,4.021-13.456,6.097-20.406C193.524,445.128,191.972,444.577,190.106,443.914z M453.168,238.316
	c7.523-0.627,14.234-1.186,21.289-1.774c-0.311-2.032-0.557-3.635-0.759-4.959c-7.188,0.483-13.89,0.934-20.53,1.38
	C453.168,234.911,453.168,236.357,453.168,238.316z M388.144,77.581c-0.829,1.351-1.446,2.358-2.279,3.716
	c2.966,2.199,5.687,4.217,8.365,6.203c1.065-0.924,1.607-1.394,2.406-2.087C394.913,81.575,391.962,79.355,388.144,77.581z
	 M430.598,147.737c2.288,3.399,4.169,6.192,5.825,8.652c5.853,0.322,9.191-1.517,10.471-7.069c-1.196-2.428-2.509-5.094-4.054-8.232
	C438.702,143.336,435.011,145.34,430.598,147.737z M469.814,264.986c-4.368,0-8.457,0-12.503,0
	c-1.498,6.499-1.498,6.499,1.984,11.553c2.603,0,5.481,0,8.5,0C470.015,272.349,470.532,269.088,469.814,264.986z M348.22,54.988
	c-2.68,2.226-4.291,5.022-2.763,8.562c1.286,2.979,3.747,4.728,7.158,4.693c4.328-0.045,6.134-2.884,7.296-6.983
	C356.635,53.993,355.913,53.616,348.22,54.988z"/>
</svg>
