<?xml version="1.0" encoding="iso-8859-1"?>
<!-- Generator: Adobe Illustrator 19.0.0, SVG Export Plug-In . SVG Version: 6.00 Build 0)  -->
<svg version="1.1" id="Layer_1" xmlns="http://www.w3.org/2000/svg" xmlns:xlink="http://www.w3.org/1999/xlink" x="0px" y="0px"
	 viewBox="0 0 2000 2000" style="enable-background:new 0 0 2000 2000;" xml:space="preserve">
<path d="M1880.751,1000.782c-0.03,113.833-1.458,227.688,0.388,341.491c1.707,105.269-45.712,185.341-131.551,237.139
	c-199.371,120.306-401.43,236.249-604.102,350.953c-94.879,53.697-195.149,52.597-289.746-1.189
	c-199.954-113.691-399.037-229.007-596.352-347.203c-95.133-56.987-140.361-145.643-139.925-257.836
	c0.854-219.87,0.088-439.747,0.319-659.62c0.123-117.541,52.555-205.694,153.451-264.328
	C461.389,290.844,650.759,183.581,838.476,73.493c111.595-65.446,220.882-63.204,331.199,0.683
	c181.61,105.174,363.083,210.588,545.011,315.21c115.312,66.313,175.848,159.943,167.362,298.038
	C1875.652,791.509,1880.782,896.303,1880.751,1000.782z"/>
</svg>
