<?xml version="1.0" encoding="iso-8859-1"?>
<!-- Generator: Adobe Illustrator 19.0.0, SVG Export Plug-In . SVG Version: 6.00 Build 0)  -->
<svg version="1.1" id="Layer_1" xmlns="http://www.w3.org/2000/svg" xmlns:xlink="http://www.w3.org/1999/xlink" x="0px" y="0px"
	 viewBox="0 0 500 500" enable-background="new 0 0 500 500" xml:space="preserve">
<path d="M80.598,164.393c-17.794,0-34.651,0-51.508,0c-4.913,0-9.833-0.156-14.738,0.046c-4.492,0.185-9.101-0.851-9.854-5.294
	c-0.565-3.335,0.944-8.206,3.318-10.666c18.575-19.244,37.579-38.074,56.457-57.024c5.972-5.995,11.884-12.052,17.972-17.926
	c6.355-6.132,11.162-6.038,17.57,0.293c28.348,28.008,56.652,56.06,84.981,84.086c1.129,1.117,2.354,2.137,3.798,3.441
	c2.305-2.046,4.347-3.778,6.301-5.604c20.936-19.572,41.747-39.281,62.916-58.596c2.883-2.631,7.541-4.688,11.38-4.694
	c55.678-0.074,111.356,0.255,167.035,0.472c16.377,0.064,32.757-0.09,49.127,0.276c3.096,0.069,8.293,1.53,8.799,3.371
	c1.267,4.607,2.235,9.714-3.013,13.991c-56.909,46.377-113.628,92.988-170.4,139.533c-14.352,11.766-28.588,23.679-43.146,35.186
	c-4.099,3.24-5.428,6.66-5.423,11.771c0.044,42.033-0.201,84.067-0.37,126.1c-0.009,2.18,0.192,4.424-0.245,6.526
	c-1.142,5.497-6.125,8.102-11.205,5.696c-2.402-1.138-4.544-3.005-6.512-4.853c-54.914-51.569-109.698-103.277-164.799-154.646
	c-6.38-5.948-8.943-12.103-8.806-20.639c0.438-27.288,0.286-54.585,0.361-81.878C80.603,170.926,80.598,168.49,80.598,164.393z
	 M458.242,112.492c-0.262-0.59-0.525-1.18-0.787-1.77c-1.853,0-3.706-0.008-5.559,0.001c-58.671,0.277-117.343,0.476-176.011,1.029
	c-3.572,0.034-7.867,2.072-10.564,4.551c-47.014,43.218-93.832,86.648-140.687,130.039c-6.156,5.701-12.274,11.441-18.993,17.706
	c26.958,24.33,53.391,48.185,79.931,72.137C276.91,261.254,367.576,186.873,458.242,112.492z M102.351,105.418
	c0,45.46,0,90.121,0,135.985c24.115-22.771,47.204-44.572,68.839-65C147.958,152.447,125.314,129.097,102.351,105.418z
	 M253.322,399.74c0-29.838,0-60.724,0-93.184c-17.916,14.982-34.767,29.075-52.391,43.813
	C218.756,367.166,236.157,383.565,253.322,399.74z M80.314,106.373c-13.328,13.409-26.433,26.593-38.998,39.235
	c12.086,0,25.379,0,38.998,0C80.314,131.858,80.314,118.923,80.314,106.373z"/>
</svg>
