<?xml version="1.0" encoding="iso-8859-1"?>
<!-- Generator: Adobe Illustrator 19.0.0, SVG Export Plug-In . SVG Version: 6.00 Build 0)  -->
<svg version="1.1" id="Layer_1" xmlns="http://www.w3.org/2000/svg" xmlns:xlink="http://www.w3.org/1999/xlink" x="0px" y="0px"
	 viewBox="0 0 500 500" enable-background="new 0 0 500 500" xml:space="preserve">
<path d="M203.915,285.3c-1.622,1.527-3.246,2.891-4.677,4.434c-5.853,6.313-11.259,13.1-17.547,18.939
	c-11.393,10.579-23.166,20.863-36.818,28.47c-13.901,7.746-28.889,12.192-44.993,12.058c-8.381-0.07-16.841,0.47-25.121-0.497
	c-10.84-1.265-21.399-4.532-30.781-10.183c-14.009-8.438-25.262-19.666-32.111-34.896c-3.42-7.605-5.851-15.274-5.866-23.774
	c-0.021-11.274,0.546-22.231,4.726-33.017c4.194-10.82,11.925-18.554,20.318-25.619c8.632-7.266,19.46-10.868,29.92-14.777
	c2.295-0.858,5.185-0.126,9.623-0.126c-14.635,3.846-26.142,9.775-35.748,18.92c-9.173,8.732-14.285,19.364-16.02,32.206
	c-1.787,13.225,0.249,25.531,5.677,37.274c8.367,18.102,22.964,29.187,41.926,34.6c13.822,3.945,27.741,4.224,42.036,1.943
	c17.476-2.789,32.175-10.966,45.957-21.217c14.34-10.666,25.642-24.566,38.907-37.13c-1.609-1.859-2.909-3.484-4.336-4.99
	c-10.386-10.961-20.844-21.853-31.177-32.863c-4.218-4.494-8.252-9.166-12.21-13.891c-0.891-1.064-1.113-2.689-0.567-4.981
	c3.179,2.525,6.533,4.86,9.504,7.61c9.696,8.973,19.174,18.184,28.894,27.131c5.523,5.084,11.354,9.832,17.499,15.121
	c3.954-2.079,6.8-6.045,10.043-9.507c2.749-2.935,5.082-6.266,7.886-9.141c7.367-7.554,14.769-15.082,22.376-22.392
	c22.314-21.445,46.398-40.486,74.652-53.66c12.269-5.721,25.077-9.641,38.326-12.755c15.49-3.642,31.013-3.308,46.507-2.668
	c9.954,0.411,19.775,3.422,29.221,7.055c15.236,5.859,28.605,14.525,39.542,26.662c11.661,12.94,19.166,27.824,22.331,45.225
	c2.11,11.601,2.007,23.177,1.12,34.573c-1.612,20.7-7.603,40.114-21.38,56.563c-13.025,15.551-29.741,24.466-49.031,29.379
	c-18.645,4.748-37.673,6.031-56.692,4.708c-33.671-2.343-66.27-9.331-96.291-25.723c-11.038-6.027-21.653-12.692-31.412-20.612
	C226.721,304.495,215.527,294.976,203.915,285.3z M210.26,273.92c3.347,2.869,5.633,5.14,8.217,6.995
	c25.013,17.958,51.211,33.764,79.897,45.339c20.847,8.412,42.374,13.938,64.661,15.909c16.088,1.423,32.116-0.642,47.523-5.704
	c13.022-4.279,24.684-10.717,33.536-21.826c4.033-5.061,8.263-9.929,10.675-15.897c7.979-19.741,12.668-39.875,9.413-61.56
	c-2.589-17.245-10.481-31.39-22.757-42.918c-14.224-13.358-32.011-20.45-51.191-22.049c-14.305-1.193-28.757-0.751-43.188,2.58
	c-20.521,4.737-39.593,12.229-56.938,24.042c-9.668,6.584-19.277,13.305-28.453,20.545c-6.952,5.485-13.323,11.742-19.673,17.942
	c-3.618,3.532-6.666,7.646-9.985,11.486C224.83,257.093,217.656,265.375,210.26,273.92z M127.735,202.85
	c0.542-9.544-8.775-18.1-18.633-17.966c-9.706,0.131-17.387,8.246-17.293,18.268c0.107,11.28,6.228,17.446,17.325,17.453
	C121.063,222.231,127.269,211.051,127.735,202.85z"/>
</svg>
