<?xml version="1.0" encoding="iso-8859-1"?>
<!-- Generator: Adobe Illustrator 19.0.0, SVG Export Plug-In . SVG Version: 6.00 Build 0)  -->
<svg version="1.1" id="Layer_1" xmlns="http://www.w3.org/2000/svg" xmlns:xlink="http://www.w3.org/1999/xlink" x="0px" y="0px"
	 viewBox="0 0 2000 2000" style="enable-background:new 0 0 2000 2000;" xml:space="preserve">
<path d="M997.344,1972.577C473.649,1977.93,17.87,1551.45,20.002,993.359C22.107,442.494,467.793,22.602,990.061,19.476
	c541.988-3.244,967.956,428.139,984.1,941.464C1992.496,1543.938,1520.677,1979.901,997.344,1972.577z M800.38,1502.172
	c134.662,0,263.872,0,396.68,0c0,64.924,0,126.42,0,186.744c24.637,0,45.574,0,69.668,0c0-65.505,0-128.334,0-193.378
	c33.752-1.865,64.553-2.342,95.079-5.49c83.507-8.611,135.368-63.923,135.596-147.504c0.625-229.432,0.396-458.87-0.512-688.302
	c-0.355-89.873-53.337-145.305-142.585-152.159c-28.176-2.164-56.477-2.704-89.472-4.203c0-66.684,0-130.385,0-194.509
	c-25.835,0-46.612,0-70.579,0c0,64.214,0,125.873,0,188.684c-132.551,0-261.844,0-394.444,0c0-64.397,0-125.983,0-188.051
	c-25.08,0-46.747,0-70.381,0c0,34.424,0,65.412,0,96.4c0,31.824,0,63.649,0,97.454c-34.213,1.555-63.941,1.717-93.426,4.474
	c-82.318,7.698-135.515,63.596-138.892,145.522c-1.67,40.523-2.602,81.102-2.704,121.658c-0.38,150.59-0.65,301.182-0.134,451.77
	c0.159,46.532,1.703,93.139,4.841,139.561c4.24,62.734,44.962,110.422,106.186,123.707c25.438,5.52,52.055,5.648,78.148,8.097
	c14.848,1.393,29.721,2.52,47.92,4.047c0,66.61,0,129.386,0,192.446c24.666,0,45.496,0,69.014,0
	C800.38,1626.148,800.38,1565.52,800.38,1502.172z M447.231,1242.529c0-21.987,0-41.57,0-61.683c-56.946,0-111.778,0-166.235,0
	c0,22.437,0,40.947,0,61.683C336.468,1242.529,389.541,1242.529,447.231,1242.529z M1548.529,1242.24c57.161,0,110.298,0,163.911,0
	c0-23.06,0-43.307,0-62.02c-57.139,0-110.201,0-163.911,0C1548.529,1202.239,1548.529,1221.17,1548.529,1242.24z M280.691,814.568
	c57.747,0,111.898,0,166.331,0c0-21.555,0-40.029,0-60.432c-56.175,0-110.258,0-166.331,0
	C280.691,775.034,280.691,793.478,280.691,814.568z M1714.296,754.029c-57.772,0-110.804,0-164.669,0c0,21.875,0,41.337,0,61.993
	c55.461,0,108.619,0,164.669,0C1714.296,794.844,1714.296,775.395,1714.296,754.029z M1424.41,819.247
	c-61.164-5.893-123.2,9.558-174.491-33.367c-45.442-38.03-66.605-103.249-49.307-159.839c19.813,0,39.464,0,60.232,0
	c9.689,40.072-1.726,87.025,41.989,110.477c38.53,20.67,80.256,15.903,123.259,13.276c0-40.399,1.818-78.502-0.552-116.343
	c-2.042-32.595-27.893-56.323-60.669-60.405c-13.006-1.62-26.243-1.914-39.376-1.917c-169.723-0.038-339.445,0.01-509.168,0.208
	c-58.547,0.068-117.138-0.653-175.627,1.357c-42.713,1.468-70.557,25.178-73.656,63.882c-3.003,37.511-0.651,75.451-0.651,114.724
	c25.091,0,46.487,0.448,67.849-0.205c9.452-0.289,18.929-2.374,28.233-4.388c44.979-9.735,64.39-33.065,67.005-79.431
	c0.78-13.822,2.455-27.594,3.65-40.619c24.683,0,45.316,0,65.395,0c16.78,100.227-44.973,198.859-163.267,190.82
	c-22.12-1.503-44.43-0.215-66.788-0.215c0,122.386,0,238.749,0,357.76c28.809,0,54.993-0.553,81.148,0.098
	c102.381,2.548,169.905,90.442,146.56,190.969c-20.66,0-41.379,0-64.006,0c-4.367-41.492,3.34-87.678-40.517-109.468
	c-38.087-18.923-80.12-18.227-125.856-12.061c0,28.063,0.078,54.035-0.015,80.007c-0.26,72.174,24.6,97.156,96.256,97.043
	c207.973-0.328,415.946-0.556,623.919-0.841c25.096-0.035,50.264,0.984,75.268-0.58c29.88-1.869,57.324-15.742,60.931-45.969
	c5.115-42.867,1.298-86.8,1.298-134.252c-32.171,2.112-62.013,1.956-91.123,6.494c-40.216,6.27-59.62,28.873-64.814,69.514
	c-2.105,16.47-3.597,33.019-5.713,52.75c-12.347,0-22.866,0.26-33.368-0.074c-10.339-0.328-20.659-1.257-30.438-1.886
	c-16.055-116.998,47.293-191.364,160.803-191.755c21.281-0.073,42.562-0.01,65.605-0.01
	C1424.41,1053.225,1424.41,936.822,1424.41,819.247z"/>
</svg>
