<?xml version="1.0" encoding="iso-8859-1"?>
<!-- Generator: Adobe Illustrator 19.0.0, SVG Export Plug-In . SVG Version: 6.00 Build 0)  -->
<svg version="1.1" id="Layer_1" xmlns="http://www.w3.org/2000/svg" xmlns:xlink="http://www.w3.org/1999/xlink" x="0px" y="0px"
	 viewBox="0 0 500 500" enable-background="new 0 0 500 500" xml:space="preserve">
<path d="M492.655,155.679c1.637,10.71-3.802,17.788-13.587,22.581c-18.418,9.022-36.478,18.819-55.166,27.228
	c-10.96,4.932-14.653,11.875-14.714,23.827c-0.177,34.831-1.983,69.652-2.598,104.486c-0.174,9.844-3.599,16.389-12.367,20.982
	c-36.781,19.268-73.363,38.916-110.132,58.207c-6.099,3.2-12.854,8.306-19.438,1.011c-4.428-4.907-3.841-19.181,1.084-24.656
	c3.012-3.348,6.973-6.074,10.951-8.281c16.586-9.205,33.346-18.095,50.03-27.125c11.722-6.345,23.178-13.243,35.205-18.941
	c10.685-5.062,14.733-12.451,14.519-24.292c-0.547-30.27-0.009-60.559,0.104-90.841c0.013-3.592-0.035-7.19,0.153-10.775
	c0.487-9.299,4.049-16.304,12.9-20.952c28.591-15.013,56.904-30.557,85.328-45.89c1.354-0.73,2.687-1.544,4.12-2.074
	c8.177-3.02,12.499-0.26,13.573,8.726C492.861,150.925,492.655,153.002,492.655,155.679z M248.16,119.802
	c-36.923,18.703-73.408,37.5-111.609,58.134c28.802,14.814,54.062,30.339,82.161,40.43c19.664,7.061,39.152,7.217,58.573,0.248
	c28.011-10.051,53.747-24.791,82.562-40.579C321.095,157.83,284.855,138.935,248.16,119.802z M20.956,178.858
	c19.374,9.376,38.5,19.264,57.86,28.67c7.214,3.505,10.713,8.436,10.887,16.753c0.717,34.317,2.743,68.628,2.572,102.932
	c-0.078,15.648,5.844,24.399,19.346,31.211c28.809,14.534,56.981,30.329,85.476,45.49c8.139,4.33,16.281,8.78,24.808,12.218
	c8.786,3.542,13.936,0.046,15.05-9.109c1.295-10.642-1.751-19.204-11.808-24.437c-5.906-3.073-11.704-6.355-17.556-9.533
	c-23.413-12.715-46.553-25.973-70.361-37.901c-11.452-5.738-14.89-13.594-14.604-25.778c0.614-26.146,0.159-52.322-0.193-78.481
	c-0.103-7.637-1.916-15.259-1.917-22.888c-0.003-11.478-6.65-17.43-15.813-22.303c-23.973-12.748-47.775-25.814-71.675-38.699
	c-4.056-2.186-8.143-4.393-12.418-6.079c-9.077-3.579-13.402-0.706-14.295,9.17c-0.138,1.526-0.019,3.076-0.019,5.471
	C4.556,166.779,10.654,173.872,20.956,178.858z M232.6,286.2c-3.261-15.188-10.449-27.811-22.517-37.426
	c-7.598-6.053-15.414-11.972-23.732-16.951c-16.571-9.918-33.556-19.146-50.701-28.847c-2.862,10.217-1.142,105.263,1.787,120.847
	c32.244,16.875,64.786,33.905,97.805,51.185C238.691,354.43,236.663,305.126,232.6,286.2z M365.928,211.512
	c0.063-2.481-2.097-5.018-3.4-7.925c-5.906,3.278-10.881,5.879-15.701,8.742c-15.829,9.402-31.88,18.47-47.328,28.465
	c-20.996,13.585-33.501,32.831-34.888,58.234c-1.254,22.96-1.943,45.952-2.761,68.934c-0.066,1.859,0.8,3.752,1.587,7.166
	c33.376-17.509,65.875-34.559,99.152-52.016C363.78,285.067,365.001,248.294,365.928,211.512z M137.041,166.813
	c5.58-2.569,10.917-5.661,16.396-8.454c27.86-14.202,55.798-28.252,83.554-42.654c8.465-4.392,16.27-4.835,24.774-0.161
	c13.022,7.157,26.324,13.809,39.548,20.596c20.065,10.298,39.991,20.889,60.308,30.665c14.349,6.905,29.538,1.029,39.444-15.188
	c-4.435-2.984-8.722-6.439-13.499-8.971c-11.774-6.241-23.784-12.036-35.679-18.05c-30.651-15.494-61.403-30.796-91.87-46.645
	c-9.267-4.821-17.421-4.208-26.137,0.761c-9.346,5.327-18.948,10.212-28.5,15.169c-30.94,16.056-61.953,31.974-92.825,48.16
	c-5.221,2.737-9.885,6.537-14.704,9.778C108.013,168.97,121.694,173.879,137.041,166.813z M419.261,220.525
	c0.248,10.907-0.945,21.206,0.833,32.764c21.119-10.738,40.62-20.652,60.179-30.597c0-10.426,0-20.029,0-32.345
	C458.934,200.901,439.359,210.584,419.261,220.525z M21.439,189.584c0,12.109,0,22.133,0,32.572
	c19.252,9.802,38.041,19.368,58.462,29.765c0-12.402,0-22.445,0-33.458C60.857,209.056,41.622,199.554,21.439,189.584z"/>
</svg>
