<?xml version="1.0" encoding="utf-8"?>
<!-- Generator: Adobe Illustrator 25.1.0, SVG Export Plug-In . SVG Version: 6.00 Build 0)  -->
<svg version="1.1" id="sxp" xmlns="http://www.w3.org/2000/svg" xmlns:xlink="http://www.w3.org/1999/xlink" x="0px" y="0px"
	 viewBox="0 0 500 500" style="enable-background:new 0 0 500 500;" xml:space="preserve">
<path d="M250,0C111.9,0,0,111.9,0,250s111.9,250,250,250s250-111.9,250-250S388.1,0,250,0z M122.5,286c-2.9,3-5.7,6-8.5,9
	c-0.4,0.5-0.9,1-1.5,1.5c-2.9,2.4-4.5,2.5-6.7-0.6c-3.3-4.5-6.3-9.2-8.8-14.1c-4.5-8.2-6.9-17.3-7.1-26.6c-0.1-1-0.1-1.9-0.1-2.9
	c0-16.2,5.6-31.9,15.9-44.4c2.5-2.9,5.4-5.5,8-8.3c4.4-4.7,8.9-9.5,13.4-14.2c5.9-6,11.8-11.9,17.7-17.8c3.7-3.8,7.1-7.5,11.2-11.6
	c4-4.1,8.4-8.3,12.3-12.2c3.9-3.9,7.8-7.8,11.7-11.8c7.8-7.6,15-15.4,22.7-23c10.2-10.5,23.7-17.1,38.2-18.8
	c3.2-0.4,6.4-0.6,9.8-0.6h0.5c9.5,0,18.9,2.1,27.5,6.1c4.8,2.6,9.5,5.6,13.8,9c2.8,2.1,2.6,2.7,0.3,5.6c-0.5,0.7-1.1,1.3-1.7,1.9
	c-9.3,9.6-18.7,19.1-28,28.5c-4.2,4.3-7.8,7.6-12.7,12.6c-4.9,5-9.5,9.9-14.5,14.9c-3.5,3.6-7.2,7.1-10.8,10.8
	c-5.8,6-11.5,12.2-17.3,18.2c-4.5,4.5-8.6,8.7-13.4,13.7c-4.9,4.9-10.1,10.5-14.4,14.9c-4.3,4.4-8.7,8.7-13.1,13.3
	c-4.3,4.6-8.6,9.4-13,14c-2.1,2.2-4.3,4.2-6.3,6.4c-4.3,4.5-8.7,9.3-12.8,13.6C130.8,277.4,126.6,281.7,122.5,286z M413.9,263.5
	c-1.2,11.2-5.1,21.9-11.3,31.3c-3.4,4.5-7,8.9-11,12.9c-4.9,5.3-9.9,10.3-14.9,15.2c-5,4.9-10.5,10.1-14.9,14.5
	c-4.4,4.3-8.7,8.8-13.1,13.2l-14.4,14.5c-5.3,5.1-10.3,10.4-15.3,15.4c-6.9,7-13.4,14.2-20.8,20.7c-9.6,8.8-21.8,14.4-34.8,15.9
	c-13.1,1.8-26.5-0.1-38.5-5.5c-4.9-2.5-9.5-5.5-13.8-8.8c-2.6-1.8-2.6-3.3-0.4-5.6c3.6-3.9,7.5-7.7,11.3-11.5
	c2.2-2.2,4.4-4.4,6.6-6.6c4.7-4.6,9.3-9.3,14.3-13.9c0.4-0.4,0.8-0.7,1.2-1.1c4.4-4.6,9.2-9.6,13.3-13.8c4.1-4.2,8.4-8.3,12.6-12.5
	l5.6-5.8c0.9-0.9,1.7-1.9,2.5-2.8c5.8-5.7,11.4-11.4,17.1-17.1c4.4-4.4,9-8.7,13.4-13.1c6.2-6.2,12.5-12.3,18.5-18.7
	c5-5.5,8-12.5,8.7-19.9c0.1-1.3,0.2-2.5,0.2-3.8c0-7.4-2.3-14.5-6.4-20.6c-0.4-1-1.1-1.9-2-2.5c-2.4-1.7-5.8-1-7.4,1.4
	c-8.1,7.9-16.2,15.9-24.3,23.8L270,283.9c-6.3,6.1-12.7,12.2-18.9,18.3c-7.7,7.6-15.2,15.2-22.9,22.8c-3.8,3.8-7.7,7.5-11.6,11.2
	l-16.5,16c-3,2.7-6.7,4.7-10.7,5.7c-5.4,1.4-11,1.6-16.4,0.5c-5.7-0.9-11-3.8-15-8c-6.5-6.8-13.2-13.5-19.9-20.2
	c-2.7-2.8-2.7-3.2,0-5.8c13.8-13.9,27.8-27.9,41.7-41.9l31.5-31.5l17-17.1c4.8-4.6,9.7-9.4,14.3-13.9c4.6-4.5,9.2-9.4,13.5-13.7
	c4.2-4.3,8.6-8.6,12.9-12.9c5.2-5.2,10.6-10.6,15.6-15.6l15.2-14.9c0.5-0.5,1-1,1.5-1.5c5.3-6.4,13.1-10,21.4-10h0.6l1.7-0.1h0.2
	c8.9,0,17.4,3.8,23.3,10.4c13.5,13.9,27.2,27.7,41,41.4c5.3,4.7,10,10.1,13.9,16c5.4,8.4,9,17.8,10.5,27.7
	C414.6,252.3,414.6,257.9,413.9,263.5z"/>
</svg>
