<?xml version="1.0" encoding="iso-8859-1"?>
<!-- Generator: Adobe Illustrator 19.0.0, SVG Export Plug-In . SVG Version: 6.00 Build 0)  -->
<svg version="1.1" id="Layer_1" xmlns="http://www.w3.org/2000/svg" xmlns:xlink="http://www.w3.org/1999/xlink" x="0px" y="0px"
	 viewBox="0 0 500 500" style="enable-background:new 0 0 500 500;" xml:space="preserve">
<path id="XMLID_4_" d="M282.993,235.829c5.466-0.705,10.578-0.752,15.627,0.059c22.924,3.683,41.358,14.886,55.143,33.559
	c7.64,10.349,9.044,21.773,5.229,33.986c-3.986,12.763-11.507,23.247-20.794,32.595c-10.436,10.505-22.489,18.812-35.606,25.576
	c-5.454,2.812-10.961,5.637-16.707,7.733c-6.33,2.308-12.914,3.988-19.475,5.582c-13.332,3.239-26.899,5.019-40.586,5.876
	c-11.987,0.751-23.969,0.629-35.947-0.262c-13.676-1.018-27.195-3.064-40.563-6.109c-17.621-4.014-34.691-9.698-51.122-17.221
	c-30.258-13.853-56.874-32.722-78.983-57.74c-0.434-0.492-0.856-0.994-1.082-1.696c1.957,1.755,3.896,3.53,5.873,5.263
	c11.869,10.402,24.936,19.056,38.783,26.575c15.656,8.502,32.035,15.31,48.971,20.776c13.672,4.413,27.594,7.859,41.752,10.351
	c19.864,3.496,39.861,5.191,60.028,4.297c18.31-0.812,36.218-3.883,53.589-9.888c11.123-3.845,21.848-8.491,31.62-15.126
	c7.994-5.428,14.973-11.871,19.866-20.34c5.888-10.19,7.095-21.007,4.188-32.313c-2.828-10.999-8.776-20.315-15.972-28.915
	c-6.729-8.042-14.424-15.077-22.642-21.559C283.862,236.637,283.573,236.349,282.993,235.829z M205.243,250.326
	c-6.039-7.855-11.316-16.154-14.885-25.455c-3.147-8.201-4.595-16.638-3.176-25.379c1.561-9.619,6.487-17.423,13.548-23.956
	c9.599-8.883,21.149-14.315,33.327-18.557c11.533-4.018,23.405-6.731,35.434-8.761c11.472-1.936,23.025-3.101,34.642-3.813
	c17.122-1.048,34.213-0.624,51.277,0.817c16.949,1.432,33.732,4.056,50.329,7.812c12.543,2.839,24.917,6.285,37.101,10.412
	c12.233,4.143,24.222,8.898,35.923,14.369c2.358,1.103,4.711,2.215,7.067,3.322c-0.335-0.56-0.774-0.913-1.246-1.216
	c-17.882-11.473-37.119-20.061-57.215-26.802c-14.701-4.932-29.692-8.772-44.904-11.754c-17.412-3.413-34.983-5.675-52.688-6.723
	c-25.553-1.513-51.043-0.928-76.387,3.031c-12.053,1.883-23.974,4.361-35.543,8.3c-17.191,5.852-32.649,14.696-45.948,27.122
	c-7.626,7.126-14.051,15.158-17.542,25.186c-3.047,8.752-2.698,17.271,2.062,25.379c3.732,6.357,9.211,10.95,15.378,14.793
	c7.505,4.677,15.669,7.869,24.063,10.506c3.329,1.046,6.72,1.893,10.535,2.957C205.824,251.127,205.545,250.718,205.243,250.326z
	 M351.777,351.647c9.996-3.528,19.754-7.591,28.965-12.885c9.98-5.736,19.1-12.533,26.277-21.65
	c11.232-14.268,14.555-30.188,9.558-47.695c-3.059-10.714-8.723-20.044-15.931-28.445c-14.666-17.096-32.852-29.195-53.906-36.858
	c-20.231-7.363-41.134-10.738-62.721-8.738c-5.943,0.551-11.762,1.679-17.174,4.345c-2.488,1.226-4.738,2.791-6.17,5.249
	c-2.073,3.558-1.226,6.998,0.692,10.273c2.717,4.639,6.727,8.068,10.91,11.313c0.367,0.285,0.751,0.547,1.127,0.819
	c-0.655-1.164-1.495-2.082-2.215-3.085c-0.72-1.003-1.403-2.05-1.958-3.151c-2.116-4.196-1.207-8.226,2.569-10.97
	c1.363-0.99,2.889-1.832,4.454-2.456c6.764-2.696,13.88-3.039,21.043-2.884c10.662,0.23,21.037,2.181,31.215,5.292
	c16.468,5.034,31.43,12.826,44.335,24.329c11.979,10.677,20.672,23.558,25.619,38.873c5.438,16.834,3.347,32.636-6.79,47.221
	c-6.914,9.948-16.138,17.378-26.43,23.538c-4.467,2.674-9.119,5.038-13.687,7.542C351.587,351.628,351.695,351.676,351.777,351.647z
	 M177.633,154.423c-0.239,0.075-0.481,0.141-0.716,0.225c-10.298,3.683-20.099,8.39-29.263,14.373
	c-10.955,7.152-20.713,15.594-28.128,26.505c-5.042,7.418-8.471,15.483-9.395,24.471c-1.069,10.404,1.51,20.018,6.851,28.879
	c8.064,13.379,19.436,23.331,32.873,31.05c8.589,4.934,17.681,8.724,27.175,11.5c10.662,3.117,21.501,5.148,32.69,4.422
	c3.781-0.245,7.462-1,10.948-2.568c5.205-2.342,7.746-6.656,6.695-12.231c-0.498-2.64-1.534-5.245-2.719-7.675
	c-2.059-4.223-4.995-7.877-8.363-11.663c0.934,2.144,1.818,3.885,2.463,5.71c2.158,6.105,0.227,10.575-5.741,13.045
	c-5.153,2.133-10.616,2.131-16.037,1.65c-9.792-0.869-19.17-3.433-28.23-7.25c-15.906-6.703-28.301-17.464-37.175-32.217
	c-4.679-7.778-6.997-16.303-6.736-25.415c0.294-10.257,3.779-19.498,9.428-27.955c8.578-12.843,20.228-22.245,33.609-29.648
	c3.244-1.795,6.602-3.383,9.907-5.066C177.724,154.518,177.679,154.47,177.633,154.423z"/>
</svg>
