<?xml version="1.0" encoding="iso-8859-1"?>
<!-- Generator: Adobe Illustrator 19.0.0, SVG Export Plug-In . SVG Version: 6.00 Build 0)  -->
<svg version="1.1" id="Layer_1" xmlns="http://www.w3.org/2000/svg" xmlns:xlink="http://www.w3.org/1999/xlink" x="0px" y="0px"
	 viewBox="0 0 500 500" enable-background="new 0 0 500 500" xml:space="preserve">
<path d="M212.389,287.046c0,9.153,0,17.346,0,25.731c-25.966,0-51.45,0-77.25,0c0-25.671,0-51.013,0-77.018
	c25.387,0,50.837,0,76.64,0c0-8.789,0-16.917,0-25.634c-25.584,0-50.904,0-76.587,0c0-8.88,0-17.177,0-25.75
	c34.275,0,68.382,0,102.931,0c0,34.005,0,68.034,0,102.671C229.811,287.046,221.498,287.046,212.389,287.046z M211.75,286.871
	c0-8.505,0-16.625,0-24.946c-16.858,0-33.365,0-50.062,0c0,8.455,0,16.575,0,24.946C178.388,286.871,194.772,286.871,211.75,286.871
	z M263.721,210.094c0-9.001,0-17.047,0-25.543c34.276,0,68.463,0,102.921,0c0,34.023,0,67.953,0,102.393c-8.225,0-16.396,0-25.122,0
	c0,8.769,0,17.049,0,25.743c-26.162,0-51.765,0-77.682,0c0-25.528,0-50.876,0-76.938c25.426,0,50.865,0,76.586,0
	c0-8.84,0-16.966,0-25.656C314.812,210.094,289.492,210.094,263.721,210.094z M340.468,261.927c-16.888,0-33.406,0-50.242,0
	c0,8.443,0,16.548,0,24.879c16.951,0,33.468,0,50.242,0C340.468,278.492,340.468,270.492,340.468,261.927z M468.939,261.903
	c0,8.702,0,16.822,0,25.424c-17.204,0-33.947,0-50.613,0c0,8.819,0,17.133,0,25.362c25.859,0,51.321,0,76.671,0
	c0-25.901,0-51.384,0-77.244c-25.549,0-50.727,0-76.176,0c0-8.52,0-16.657,0-25.375c17.068,0,33.795,0,50.833,0
	c0-8.876,0-17.171,0-25.579c-25.904,0-51.527,0-77.146,0c0,25.747,0,51.103,0,77.412
	C418.397,261.903,443.712,261.903,468.939,261.903z M83.868,235.837c-25.833,0-51.333,0-77.056,0c0,25.749,0,51.215,0,76.951
	c34.379,0,68.427,0,102.792,0c0-8.606,0-16.895,0-25.824c-25.676,0-51.128,0-76.462,0c0-8.775,0-16.905,0-25.389
	c17.019,0,33.629,0,50.726,0C83.868,252.517,83.868,244.216,83.868,235.837z M7.013,184.398c0,8.58,0,16.86,0,25.157
	c8.573,0,16.712,0,25.139,0c0-8.506,0-16.656,0-25.157C23.408,184.398,15.234,184.398,7.013,184.398z"/>
</svg>
