<?xml version="1.0" encoding="iso-8859-1"?>
<!-- Generator: Adobe Illustrator 19.0.0, SVG Export Plug-In . SVG Version: 6.00 Build 0)  -->
<svg version="1.1" id="Layer_1" xmlns="http://www.w3.org/2000/svg" xmlns:xlink="http://www.w3.org/1999/xlink" x="0px" y="0px"
	 viewBox="0 0 500 500" enable-background="new 0 0 500 500" xml:space="preserve">
<path d="M263.643,371.839c16.887-16.987,33.544-33.743,50.217-50.514c16.433,16.564,33.021,33.286,50.113,50.514
	C330.201,371.839,296.795,371.839,263.643,371.839z M254.705,391.6c0,33.601,0,67.037,0,101.14
	c17.342-17.213,33.983-33.729,51.049-50.668C288.486,425,271.741,408.444,254.705,391.6z M392.805,243.042
	c33.144,0,66.288,0,99.519,0c-17.088-17.19-33.798-34-49.96-50.258c-16.673,16.338-33.383,32.713-50.093,49.088
	C392.449,242.263,392.627,242.653,392.805,243.042z M305.02,55.383c-16.627-16.596-33.26-33.198-50.35-50.257
	c0,33.477,0,66.622,0,99.751C271.608,88.227,288.39,71.73,305.02,55.383z M263.169,113.206c0.296,0.393,0.591,0.785,0.887,1.178
	c33.128,0,66.257,0,98.94,0c-16.594-16.688-33.17-33.357-50.427-50.712C296.285,80,279.727,96.603,263.169,113.206z
	 M433.216,185.147c-16.562-16.727-33.196-33.527-49.876-50.374c0,32.93,0,66.132,0,100.261
	C400.751,217.619,417.35,201.016,433.216,185.147z M372.139,234.188c0-33.241,0-66.545,0-100.242
	c-17.028,17.01-33.551,33.516-49.92,49.869C338.892,200.639,355.5,217.398,372.139,234.188z M105.533,242.944
	C88.835,225.9,72.432,209.156,56.771,193.17c-16.932,16.779-33.555,33.251-50.228,49.774
	C39.56,242.944,72.602,242.944,105.533,242.944z M264.316,125.643c16.444,16.681,33.04,33.517,49.147,49.856
	c16.543-16.566,33.16-33.206,49.787-49.856C330.104,125.643,296.758,125.643,264.316,125.643z M383.485,363.264
	c17.224-17.057,34.043-33.714,50.322-49.835c-16.684-16.739-33.297-33.406-50.322-50.487
	C383.485,296.625,383.485,329.801,383.485,363.264z M176.603,313.171c-16.543-16.44-33.307-33.1-50.624-50.309
	c0,33.798,0,67.101,0,101.055C143.359,346.495,160.054,329.76,176.603,313.171z M372.262,362.336c0-32.663,0-65.834,0-98.918
	c-16.804,16.674-33.407,33.15-49.758,49.376C339.086,329.304,355.792,345.938,372.262,362.336z M135.134,383.285
	c16.61,16.913,33.214,33.819,49.461,50.363c16.86-16.67,33.647-33.268,50.936-50.363
	C201.459,383.285,167.971,383.285,135.134,383.285z M243.459,392.47c-16.853,16.76-33.568,33.384-49.951,49.678
	c16.415,16.466,32.855,32.956,49.951,50.105C243.459,458.356,243.459,425.232,243.459,392.47z M7.356,254.628
	c16.285,16.571,32.811,33.388,49.176,50.04c16.508-16.341,33.068-32.734,50.551-50.04C72.585,254.628,39.458,254.628,7.356,254.628z
	 M135.366,125.735c16.655,16.874,33.088,33.524,49.495,50.147c16.663-16.658,33.123-33.114,50.162-50.147
	C201.287,125.735,168.222,125.735,135.366,125.735z M442.409,305.082c16.859-16.955,33.397-33.587,50.314-50.601
	c-33.733,0-67.078,0-99.649,0C409.405,271.23,425.927,288.177,442.409,305.082z M133.697,371.734c34.835,0,67.937,0,101.98,0
	c-17.314-17.287-33.752-33.7-51.042-50.964C167.496,337.613,150.832,354.158,133.697,371.734z M114.836,363.492
	c0-33.763,0-66.998,0-100.395c-17.04,16.896-33.658,33.374-50.323,49.898C81.258,329.799,97.77,346.367,114.836,363.492z
	 M314.25,433.891c16.39-16.615,32.894-33.346,50.084-50.772c-34.107,0-67.548,0-100.654,0
	C280.527,400.033,297.295,416.868,314.25,433.891z M114.42,135.543c-16.586,16.261-33.254,32.601-49.921,48.941
	c16.585,16.577,33.146,33.129,49.921,49.895C114.42,200.937,114.42,167.813,114.42,135.543z M175.96,184.463
	c-16.628-16.416-33.215-32.791-49.641-49.008c0,32.426,0,65.4,0,98.419C143.113,217.159,159.663,200.686,175.96,184.463z
	 M243.073,5.985C226.27,22.91,209.949,39.35,193.28,56.14c16.29,16.136,32.763,32.454,49.793,49.323
	C243.073,71.968,243.073,39.139,243.073,5.985z M185.967,64.795c-16.764,16.558-33.253,32.845-49.722,49.113
	c32.345,0,64.898,0,97.908,0C217.363,96.795,201.149,80.269,185.967,64.795z"/>
</svg>
