<?xml version="1.0" encoding="iso-8859-1"?>
<!-- Generator: Adobe Illustrator 19.0.0, SVG Export Plug-In . SVG Version: 6.00 Build 0)  -->
<svg version="1.1" id="Layer_1" xmlns="http://www.w3.org/2000/svg" xmlns:xlink="http://www.w3.org/1999/xlink" x="0px" y="0px"
	 viewBox="0 0 500 500" enable-background="new 0 0 500 500" xml:space="preserve">
<path d="M287.618,493.414c-12.004-8.741-23.809-17.338-35.774-26.051c-11.432,8.665-22.841,17.312-34.323,26.015
	c-2.802-0.472-5.625-0.913-8.434-1.428c-14.272-2.614-28.284-6.227-42.001-10.973c-11.981-4.145-23.627-9.075-34.885-14.902
	c-17.032-8.815-32.869-19.4-47.367-31.982c-15.131-13.131-28.282-28-39.343-44.7c-11.575-17.476-20.422-36.253-26.708-56.252
	c-3.881-12.349-6.709-24.935-8.599-37.727c-0.772-5.227-1.232-10.501-1.776-15.76c-0.885-8.559-0.995-17.147-0.992-25.744
	c0.022-72.462,0.003-144.924,0.023-217.385c0.003-10.524,4.534-18.767,13.097-24.753c6.108-4.269,12.972-6.31,20.441-6.309
	c138.642,0.004,277.283,0,415.925,0.014c6.118,0.001,12.05,1.121,17.659,3.626c10.758,4.804,17.165,13.004,18.989,24.683
	c0.257,1.646,0.344,3.335,0.345,5.004c0.019,39.155,0.042,78.311,0.006,117.466c-0.033,35.194-0.097,70.389-0.25,105.583
	c-0.023,5.334-0.546,10.67-0.934,15.998c-0.829,11.384-2.685,22.615-5.23,33.734c-3.681,16.081-8.992,31.606-15.986,46.552
	c-5.101,10.901-10.994,21.354-17.738,31.324c-6.07,8.974-12.733,17.48-19.982,25.536c-5.183,5.76-10.62,11.264-16.35,16.471
	c-13.342,12.126-27.86,22.644-43.525,31.574c-22.968,13.093-47.423,22.289-73.244,27.88
	C296.336,491.846,291.969,492.584,287.618,493.414z M251.806,453.135c0.627,0.446,1.112,0.785,1.589,1.133
	c4.808,3.511,9.615,7.022,14.42,10.535c6.727,4.918,13.454,9.837,20.179,14.758c0.573,0.419,1.109,0.76,1.917,0.629
	c8.004-1.302,15.943-2.901,23.784-4.981c25.878-6.865,49.807-17.939,71.82-33.174c15.744-10.897,29.898-23.576,42.45-38.025
	c13.128-15.112,24.082-31.673,32.849-49.681c5.552-11.406,10.145-23.176,13.738-35.34c3.667-12.412,6.286-25.034,7.793-37.894
	c1.013-8.647,1.601-17.311,1.601-26.017c-0.002-71.11,0.002-142.22-0.017-213.331c0-1.613-0.101-3.251-0.391-4.835
	c-1.057-5.778-3.784-10.648-8.195-14.561c-5.149-4.567-11.225-6.495-18.031-6.494c-137.834,0.008-275.667,0.005-413.501,0.02
	c-1.561,0-3.131,0.123-4.68,0.322c-12.683,1.634-21.984,12.877-21.976,25.028c0.045,71.11,0.017,142.22,0.036,213.331
	c0.001,3.89,0.151,7.782,0.325,11.669c0.135,3.017,0.394,6.03,0.633,9.042c0.66,8.3,1.956,16.508,3.616,24.661
	c4.457,21.881,11.991,42.657,22.537,62.33c9.355,17.453,20.835,33.402,34.325,47.896c6.238,6.702,12.88,12.989,19.893,18.875
	c22.086,18.537,46.771,32.483,74.077,41.756c12.979,4.408,26.263,7.572,39.823,9.598c1.307,0.195,2.234-0.065,3.261-0.82
	c9.414-6.928,18.86-13.812,28.297-20.708C246.551,456.975,249.125,455.094,251.806,453.135z M290.995,472.074
	c-13.057-9.544-26.031-19.028-39.164-28.628c-13.221,9.66-26.444,19.323-39.665,28.984c-11.073-1.688-21.904-4.189-32.534-7.545
	c-27.793-8.773-52.881-22.499-75.27-41.163c-5.991-4.994-11.729-10.262-17.141-15.873c-15.662-16.236-28.645-34.384-38.806-54.544
	c-9.311-18.472-15.847-37.881-19.724-58.186c-1.245-6.521-2.136-13.099-2.765-19.715c-0.661-6.947-0.963-13.899-0.961-20.876
	c0.02-70.948,0.065-141.897-0.055-212.845c-0.015-8.641,6.937-18.04,18.028-18.018c0.217,0,0.433,0,0.65,0
	c137.997,0,275.995,0.002,413.992-0.01c4.612,0,8.756,1.236,12.282,4.263c4.034,3.463,6.266,7.851,6.268,13.193
	c0.022,72.79,0.032,145.579-0.013,218.369c-0.005,7.179-0.703,14.331-1.56,21.466c-1.137,9.456-2.89,18.789-5.261,28.007
	c-7.708,29.976-21.164,57.119-40.247,81.476c-4.807,6.135-9.951,11.975-15.387,17.565c-17.324,17.815-37.072,32.308-59.258,43.5
	c-17.833,8.996-36.562,15.364-56.129,19.305c-1.218,0.245-2.441,0.465-3.665,0.679C293.44,471.683,292.268,471.866,290.995,472.074z
	 M424.41,71.2c-113.886,0-227.592,0-341.39,0c0,29.035,0,57.977,0,87.124c41.749,0,83.412,0,125.245,0c0,7.11,0,14.019,0,20.875
	c14.658,10.741,29.181,21.383,43.711,32.03c14.648-10.737,29.174-21.384,43.72-32.046c0-6.789,0-13.503,0.003-20.216
	c0-0.105,0.042-0.211,0.075-0.313c0.015-0.048,0.049-0.093,0.083-0.131c0.036-0.04,0.083-0.069,0.261-0.212
	c4.623,0,9.382,0,14.142,0c4.766,0,9.532,0,14.297,0s9.532,0,14.297,0s9.532,0,14.297,0c4.712,0,9.423,0,14.135,0
	c4.766,0,9.532,0,14.297,0s9.532,0,14.297,0c4.766,0,9.532,0.005,14.297-0.001c4.738-0.006,9.477,0.028,14.231-0.022
	C424.41,129.14,424.41,100.235,424.41,71.2z M301.514,458.426c0-87.932,0-175.542,0-263.442
	c-16.646,12.196-33.075,24.233-49.543,36.298c-16.487-12.079-32.877-24.088-49.349-36.156c-0.109,0.323-0.197,0.463-0.197,0.603
	c0.011,87.398,0.028,174.796,0.049,262.194c0,0.038,0.051,0.085,0.089,0.112c0.043,0.031,0.098,0.044,0.249,0.107
	c16.359-11.955,32.765-23.943,49.163-35.927C268.503,434.295,284.88,446.266,301.514,458.426z"/>
</svg>
