<?xml version="1.0" encoding="iso-8859-1"?>
<!-- Generator: Adobe Illustrator 19.0.0, SVG Export Plug-In . SVG Version: 6.00 Build 0)  -->
<svg version="1.1" id="Layer_1" xmlns="http://www.w3.org/2000/svg" xmlns:xlink="http://www.w3.org/1999/xlink" x="0px" y="0px"
	 viewBox="0 0 2000 2000" style="enable-background:new 0 0 2000 2000;" xml:space="preserve">
<path d="M513.163,1853.388c-162.682-283.666-325.392-567.38-488.576-851.921C187.332,717.715,350.25,433.662,513.165,149.612
	c325.72,0,650.875,0,976.668,0c162.699,283.667,325.425,567.382,488.579,851.841c-162.771,283.827-325.676,567.886-488.574,851.936
	C1164.108,1853.388,838.955,1853.388,513.163,1853.388z M1343.672,411.559c-228.515,0-455.807,0-684.349,0
	C545.35,607.892,431.348,804.277,317.136,1001.022c102.24,178.267,204.336,356.282,307.686,536.485
	c126.102-179.275,250.928-356.735,376.724-535.576c125.789,178.839,250.695,356.424,376.669,535.526
	c103.948-181.267,206.038-359.293,307.638-536.465C1571.155,803.417,1457.404,607.472,1343.672,411.559z"/>
</svg>
