<?xml version="1.0" encoding="iso-8859-1"?>
<!-- Generator: Adobe Illustrator 19.0.0, SVG Export Plug-In . SVG Version: 6.00 Build 0)  -->
<svg version="1.1" id="Layer_1" xmlns="http://www.w3.org/2000/svg" xmlns:xlink="http://www.w3.org/1999/xlink" x="0px" y="0px"
	 viewBox="0 0 2000 2000" style="enable-background:new 0 0 2000 2000;" xml:space="preserve">
<path d="M1003.882,16.522c536.985-0.004,976.891,441.612,976.579,980.376c-0.31,536.57-440.346,978.9-973.504,978.576
	C461.21,1975.143,20.969,1537.07,21.539,994.909C22.108,453.749,461.1,16.525,1003.882,16.522z M133.261,988.495
	c-2.899,478.378,383.258,872.074,857.964,874.714c481.631,2.679,875.948-383.552,877.668-859.67
	c1.726-477.906-382.582-871.827-853.372-874.718C528.906,125.833,136.169,508.515,133.261,988.495z M1452.871,515.89
	c0,53.922,0,104.354,0,160.197c-82.978,0-162.921,0-245.16,0c0,38.948,0,72.48,0,110.587c80.781,0,160.788,0,244.433,0
	c0,54.718,0,105.011,0,160.599c-79.406,0-159.316,0-243.142,0c0,95.623,0,186.123,0,281.53c80.035,0,160.041,0,243.381,0
	c0,55.171,0,105.595,0,162.453c-81.093,0-162.421,0-247.759,0c0,53.908,0,101.507,0,151.762c-50.019,0-95.849,0-146.052,0
	c0-48.141,0-95.519,0-146.885c-38.69,0-73.111,0-111.427,0c0,48.332,0,95.869,0,146.545c-50.852,0-97.931,0-149.284,0
	c0-49.494,0-97.095,0-148.842c-102.585-2.778-187.967-36.731-250.546-116.328c-44.56-56.678-68.586-120.935-67.43-193.754
	c2.542-160.207,104.281-258.398,314.795-301.963c0-32.872,0-66.238,0-105.292c-82.142,0-162.058,0-244.825,0
	c0-56.07,0-106.476,0-160.609C850.559,515.89,1149.441,515.89,1452.871,515.89z M794.059,949.418
	c-60.584-0.255-105.265,22.295-132.879,73.202c-27.584,50.852-24.544,102.508,9.334,148.887
	c29.486,40.366,69.455,63.695,123.545,56.083C794.059,1133.664,794.059,1042.799,794.059,949.418z M950.09,951.609
	c0,94.434,0,184.852,0,274.302c36.874,0,69.865,0,103.041,0c0-93.382,0-182.575,0-274.302
	C1018.247,951.609,986.269,951.609,950.09,951.609z M949.801,678.449c0,35.221,0,69.399,0,106.404c34.695,0,67.555,0,102.942,0
	c0-36.371,0-70.528,0-106.404C1018.646,678.449,988.141,678.449,949.801,678.449z"/>
</svg>
