<?xml version="1.0" encoding="iso-8859-1"?>
<!-- Generator: Adobe Illustrator 19.0.0, SVG Export Plug-In . SVG Version: 6.00 Build 0)  -->
<svg version="1.1" id="Layer_1" xmlns="http://www.w3.org/2000/svg" xmlns:xlink="http://www.w3.org/1999/xlink" x="0px" y="0px"
	 viewBox="0 0 2000 2000" style="enable-background:new 0 0 2000 2000;" xml:space="preserve">
<path d="M999.148,17.066c542.651,0.015,981.112,438.126,981.736,980.953c0.622,540.639-440.81,981.547-982.078,980.913
	c-541.897-0.635-980.745-440.947-979.669-982.935C20.212,454.557,458.201,17.051,999.148,17.066z M1332.817,1040.673
	c58.314,87.131,114.256,170.716,169.094,252.653c34.81,0,66.659,0,103.64,0c-74.854-108.517-146.693-212.663-218.042-316.098
	c66.236-96.767,129.747-189.551,195.724-285.939c-35.831,0-65.937,0-98.413,0c-48.661,73.65-97.904,148.182-149.485,226.252
	c-52.014-78.627-100.979-152.645-148.738-224.839c-35.066,0-67.163,0-104.605,0c67.309,96.806,132.006,189.855,197.287,283.744
	c-72.923,106.885-144.527,211.836-218.66,320.495c39.529,0,70.898,0,103.741,0
	C1219.706,1212.747,1274.946,1128.712,1332.817,1040.673z M354.233,684.47c0,25.231,0,47.385,0,73.151c59.292,0,116.467,0,177.736,0
	c0,181.587,0,359.563,0,537.92c35.129,0,65.978,0,100.186,0c0-180.427,0-358.463,0-540.111c38.586,0,73.935,0,109.453,0
	c0-25.798,0-47.857,0-70.96C611.885,684.47,484.671,684.47,354.233,684.47z M681.416,1296.937
	c134.787,6.702,257.262-16.876,338.376-134.032c74.292-107.302,72.676-224.047,9.56-335.415
	c-49.523-87.381-131.615-129.893-231.823-139.01c0,27.993,0,51.315,0,74.906c7.585,2.287,12.689,3.83,17.796,5.365
	c111.902,33.646,168.197,113.572,165.427,234.864c-2.293,100.393-70.142,182.83-175.536,207.233
	c-39.609,9.171-81.285,9.419-123.799,13.924C681.416,1247.24,681.416,1270.542,681.416,1296.937z"/>
</svg>
