<?xml version="1.0" encoding="iso-8859-1"?>
<!-- Generator: Adobe Illustrator 19.0.0, SVG Export Plug-In . SVG Version: 6.00 Build 0)  -->
<svg version="1.1" id="Layer_1" xmlns="http://www.w3.org/2000/svg" xmlns:xlink="http://www.w3.org/1999/xlink" x="0px" y="0px"
	 viewBox="0 0 500 500" enable-background="new 0 0 500 500" xml:space="preserve">
<path d="M278.327,2.29c21.793-1.282,38.382,8.172,54.011,21.418c35.343,29.954,71.289,59.196,106.88,88.859
	c11.587,9.657,23.697,18.902,34.033,29.792c14.863,15.659,19.661,35.287,16.048,56.438c-9.709,56.841-20.349,113.527-29.538,170.449
	c-3.54,21.93-11.756,40.639-30.393,52.583c-10.942,7.012-23.984,10.943-36.374,15.458c-27.297,9.947-54.807,19.307-82.178,29.054
	c-24.694,8.794-49.106,18.441-74.037,26.491c-22.1,7.136-43.113,2.704-61.202-11.726c-24.034-19.172-47.453-39.116-71.1-58.772
	c-22.725-18.889-45.164-38.132-68.173-56.668c-23.351-18.811-31.602-42.63-26.355-71.791c8.542-47.474,16.885-94.985,25.316-142.479
	c1.896-10.683,3.64-21.396,5.746-32.038c5.033-25.439,20.039-42.81,44.157-51.619c52.453-19.158,105.086-37.823,157.691-56.562
	C254.572,7.004,265.775,0.555,278.327,2.29z M199.504,220.452c-0.336,3.42-0.351,5.772-0.824,8.028
	c-2.914,13.91-6.036,27.778-8.888,41.701c-3.538,17.275-7.124,34.52-2.474,52.262c4.546,17.345,17.089,34.065,34.691,35.445
	c21.296,1.67,42.822,0.396,65.337,0.396c2.747-12.478,5.638-25.606,8.835-40.126c-16.773,0-31.223,0.144-45.669-0.04
	c-14.695-0.188-18.792-4.945-17.456-19.65c0.175-1.923,0.356-3.855,0.71-5.75c4.169-22.271,8.35-44.541,12.608-66.795
	c0.341-1.784,1.273-3.455,2.258-6.035c22.328,0,44.41,0,67.204,0c2.418-12.319,4.658-23.735,7.214-36.758
	c-23.243,0-45.187,0-67.982,0c3.213-17.359,6.148-33.219,9.198-49.697c-11.622-0.15-20.548-2.487-27.993,8.85
	c-14.412,21.947-36.079,35.989-59.844,46.448c-1.936,10.414-3.807,20.48-5.896,31.72
	C180.593,220.452,189.634,220.452,199.504,220.452z"/>
</svg>
