<?xml version="1.0" encoding="iso-8859-1"?>
<!-- Generator: Adobe Illustrator 19.0.0, SVG Export Plug-In . SVG Version: 6.00 Build 0)  -->
<svg version="1.1" id="Layer_1" xmlns="http://www.w3.org/2000/svg" xmlns:xlink="http://www.w3.org/1999/xlink" x="0px" y="0px"
	 viewBox="0 0 500 500" enable-background="new 0 0 500 500" xml:space="preserve">
<path d="M149.537,45.752c3.228,0,6.457,0,9.685,0c61.43,0,122.86-0.039,184.29,0.084c4.408,0.009,9.891-2.15,12.917,2.815
	c3.387,5.556-1.915,9.321-4.205,13.339c-16.347,28.691-33.149,57.123-49.411,85.861c-4.784,8.454-9.195,16.349-22.678,13.572
	c-42.73-37.025-87.011-75.395-131.292-113.765C149.075,47.023,149.306,46.387,149.537,45.752z M352.596,454.284
	c-1.672-1.567-3.291-3.195-5.024-4.691c-39.178-33.819-78.546-67.422-117.397-101.613c-7.172-6.312-13.708-9.752-23.871-5.313
	c-1.599,2.693-3.838,6.387-6.004,10.124c-17.073,29.449-34.191,58.872-51.119,88.404c-2.035,3.551-6.276,6.88-3.922,11.7
	c2.716,5.561,8.23,3.365,12.582,3.374c61.458,0.126,122.917,0.086,184.376,0.086c3.28,0,6.56,0,9.839,0
	C352.236,455.664,352.416,454.974,352.596,454.284z M118.286,70.516c-31.209,54.055-62.388,108.127-93.568,162.199
	c-0.667,1.157-1.461,2.271-1.931,3.506c-1.452,3.816,0.495,7.51,4.56,8.235c2.268,0.405,4.658,0.15,6.993,0.151
	c20.707,0.006,41.416-0.158,62.121,0.088c7.558,0.09,13.383-0.962,19.258-7.3c4.651-5.019,6.276-9.226,6.258-15.481
	c-0.141-48.762-0.075-97.524-0.073-146.287c0-2.509,0-5.019,0-9.399C119.831,68.661,118.881,69.486,118.286,70.516z M380.186,68.571
	c0,49.382,0.067,98.765-0.063,148.147c-0.023,8.705-1.009,17.439,8.493,22.441c0.8,0.421,1.061,1.855,1.86,2.294
	c2.193,1.202,4.532,3.003,6.827,3.023c25.03,0.219,50.063,0.255,75.094,0.072c7.02-0.051,8.939-4.204,5.481-10.656
	c-0.787-1.468-1.652-2.895-2.485-4.339c-26.993-46.805-53.98-93.613-80.984-140.411c-4.106-7.115-8.288-14.187-12.434-21.278
	C381.379,68.098,380.782,68.335,380.186,68.571z M135.041,78.688c0,45.79,0.192,91.582-0.153,137.37
	c-0.073,9.725,0.787,17.979,9.344,24.457c3.098,2.346,5.444,4.177,9.411,4.157c24.064-0.118,48.131-0.17,72.194,0.031
	c5.14,0.043,8.399-1.371,9.21-6.699c-22.443-42.345-93.372-163.279-100.006-169.79C135.041,72.32,135.041,75.504,135.041,78.688z
	 M121.905,434.001c0-2.263,0-4.527,0-6.79c-0.002-47.056-0.231-94.114,0.18-141.167c0.086-9.845-1.083-18.017-9.633-24.25
	c-2.564-1.869-4.638-3.368-7.819-3.363c-25.03,0.042-50.06-0.078-75.089,0.089c-7.025,0.047-8.832,3.456-5.701,9.584
	c0.606,1.187,1.324,2.317,1.992,3.473c21.836,37.834,43.66,75.674,65.515,113.497c9.489,16.422,19.041,32.809,28.564,49.211
	C120.577,434.19,121.241,434.096,121.905,434.001z M383.776,431.507c29.086-50.318,58.145-100.653,87.202-150.988
	c2.673-4.63,5.501-9.182,7.917-13.943c2.004-3.949,0.204-7.272-4.151-7.964c-2.285-0.363-4.667-0.151-7.004-0.152
	c-22.061-0.008-44.164,0.789-66.164-0.371c-9.727-0.513-13.109,6.5-19.018,10.65c-4.006,2.813-2.292,7.406-2.3,11.213
	c-0.11,49.47-0.078,98.94-0.081,148.41c0,1.85,0,3.7,0,7.462C382.246,433.365,383.182,432.535,383.776,431.507z M366.861,433.966
	c0-2.192,0-4.383,0-6.575c-0.001-48.394-0.137-96.788,0.138-145.18c0.042-7.437-1.276-12.877-7.335-18.152
	c-4.431-3.857-8.151-5.77-13.871-5.706c-22.358,0.247-44.732,0.517-67.078-0.059c-12.4-0.32-13.506,3.721-8.064,12.993
	c29.714,50.621,58.815,101.602,88.152,152.445c2.096,3.632,4.389,7.15,6.59,10.721C365.882,434.29,366.372,434.128,366.861,433.966z
	 M366.235,232.55c0-54.771,0-109.541,0-166.015c-1.797,2.677-2.752,3.937-3.539,5.294c-16.579,28.626-33.003,57.343-49.814,85.831
	c-3.541,6-6.714,11.305-2.436,18.201c0.95,1.531,1.063,4.02,0.655,5.868c-1.031,4.676,1.154,7.465,4.465,10.256
	c11.756,9.911,23.346,20.016,35.009,30.037c4.515,3.879,9.056,7.728,13.586,11.59C364.853,233.258,365.544,232.904,366.235,232.55z
	 M136.293,434.796c1.428-2.125,2.576-3.641,3.525-5.273c16.788-28.851,33.489-57.752,50.38-86.543
	c2.979-5.078,5.436-9.648,1.491-15.441c-1.151-1.69-1.196-4.65-0.739-6.815c1.093-5.173-1.653-8.03-5.155-10.973
	c-9.712-8.163-19.25-16.534-28.891-24.783c-6.313-5.401-12.688-10.731-19.924-16.845
	C134.655,276.823,134.28,423.592,136.293,434.796z M272.879,180.441c0.812-6.074-2.137-9.245-6.062-12.625
	c-29.313-25.25-58.554-50.583-87.849-75.853c-6.153-5.308-12.438-10.464-18.661-15.69c0.013,3.64,1.182,6.257,2.607,8.727
	c13.488,23.396,27.01,46.772,40.541,70.143c13.534,23.376,27.042,46.767,40.659,70.094c5.117,8.765,8.589,8.679,13.884-0.246
	c6.123-10.321,12.092-20.733,17.668-30.313C274.396,188.752,272.346,184.424,272.879,180.441z M229.087,321.217
	c-0.73,6.766,2.759,10.412,7.152,14.203c34.084,29.411,68.112,58.887,102.19,88.306c1.532,1.323,3.379,2.282,7.011,4.693
	c-3.984-6.874-6.663-11.481-9.326-16.096c-25.999-45.056-52.149-90.026-77.843-135.255c-4.302-7.573-9.355-9.25-14.085-0.37
	c-5.79,10.87-12.21,21.404-18.003,31.466C227.344,312.958,229.517,317.228,229.087,321.217z M354.441,28.322
	c-2.963-1.526-5.935-3.064-9.013-4.334C301.591,5.9,256.107,2.509,209.588,9.135c-19.618,2.794-38.486,8.454-56.649,16.373
	c-2.417,1.054-5.903,1.349-6.379,5.974c69.824,0,139.088,0,209.413,0C354.995,29.402,354.88,28.548,354.441,28.322z M31.116,140.99
	C16.863,169.16,8.757,198.956,6.87,231.686c6.687-6.136,103.024-172.614,104.633-181.855C77.18,73.511,50.018,103.631,31.116,140.99
	z M350.195,470c-67.4,0.159-134.8,0.355-202.2,0.571c-0.252,0.001-0.569,0.307-0.738,0.552c-0.181,0.264-0.224,0.623-0.326,0.94
	c37.58,31.258,169.026,31.274,209.668-1.182C353.328,470.417,351.761,469.997,350.195,470z M389.209,49.809
	c0.986,2.726,1.489,4.877,2.488,6.767c24.125,45.659,96.036,168.174,102.093,174.042C502.555,181.077,439.754,71.72,389.209,49.809z
	 M7.141,272.445c0.211,3.298,0.365,6.606,0.742,9.887C16,352.97,51.544,407.381,107.163,449.861
	c1.263,0.965,3.136,1.131,7.045,2.457C78.508,390.459,44.043,330.74,8.997,270.015C7.501,271.947,7.126,272.208,7.141,272.445z
	 M470.956,360.918c13.522-26.242,26.422-73.645,22.045-90.956c-34.408,59.58-68.235,118.143-102.018,176.732
	c-0.739,1.281-0.969,2.855-1.621,4.861C410.587,443.663,452.831,396.094,470.956,360.918z M351.81,241.541
	c-15.405-13.358-30.77-26.766-46.318-39.957c-5.858-4.97-15.777-3.326-19.694,3.18c-5.86,9.733-11.5,19.603-17.02,29.534
	c-3.443,6.194-1.028,10.224,6.341,10.264c25.729,0.14,51.46,0.054,77.903,0.054C352.288,242.698,352.233,241.908,351.81,241.541z
	 M159.367,268.989c12.075,10.477,24.088,21.029,36.301,31.345c5.636,4.761,16.15,4.267,19.429-1.075
	c6.616-10.78,12.848-21.803,18.956-32.882c2.098-3.805,0.033-7.134-4.341-7.837c-1.625-0.261-3.323-0.083-4.988-0.083
	c-22.655-0.002-45.31-0.013-67.965,0.018c-2.279,0.003-4.557,0.272-8.605,0.531C152.952,263.282,156.124,266.176,159.367,268.989z"
	/>
</svg>
