<?xml version="1.0" encoding="iso-8859-1"?>
<!-- Generator: Adobe Illustrator 19.0.0, SVG Export Plug-In . SVG Version: 6.00 Build 0)  -->
<svg version="1.1" id="Layer_1" xmlns="http://www.w3.org/2000/svg" xmlns:xlink="http://www.w3.org/1999/xlink" x="0px" y="0px"
	 viewBox="0 0 2000 2000" style="enable-background:new 0 0 2000 2000;" xml:space="preserve">
<path d="M33.083,857.8c9.958-89.323,35.581-174.484,72.907-255.557c29.983-65.124,65.35-127.176,108.628-185.558
	c49.929-67.353,108.445-125.134,171.683-178.444c54.605-46.032,114.281-85.754,180.598-113.582
	c58.244-24.441,115.968-51.739,176.446-68.857c88.374-25.014,179.935-35.918,272.098-31.319
	c60.791,3.033,122.12,6.837,181.776,17.968c66.003,12.315,130.654,32.141,190.995,63.826c30.806,16.176,63.898,27.959,95.001,43.626
	c20.721,10.438,40.185,23.589,59.466,36.627c85.325,57.701,158.923,128.235,222.915,208.588
	c82.687,103.828,139.189,221.719,175.607,348.509c33.318,116,36.385,235.906,28.469,355.395
	c-3.466,52.318-14.11,105.078-28.708,155.55c-30.008,103.748-72.706,201.933-134.295,292.124
	c-46.29,67.787-99.196,129.396-160.666,182.268c-49.693,42.742-104.752,80.584-161.659,113.229
	c-59.017,33.854-121.427,63.668-185.537,86.177c-51.396,18.044-107.154,26.497-161.704,32.024
	c-71.722,7.267-144.511,13.416-216.189,9.134c-77.005-4.6-154.663-14.414-227.495-45.144
	c-36.248-15.294-75.446-24.442-110.051-42.585c-51.772-27.143-101.428-58.6-150.511-90.49
	c-29.747-19.327-57.645-41.834-84.746-64.829c-67.025-56.871-123.124-123.977-168.759-198.516
	c-35.928-58.683-70.97-119.364-95.064-183.423c-23.564-62.653-38.257-129.639-48.386-196.363
	C15.844,1016.057,32.013,867.398,33.083,857.8z M997.24,98.875C509.916,91.013,78.68,505.203,95.811,1031.604
	c15.319,470.718,402.96,855.692,870.444,869.352c531.71,15.536,947.39-408.47,935.427-930.537
	C1891.226,514.085,1507.238,91.902,997.24,98.875z M1858.686,1001.881c0,38.344,5.636,77.736-1.256,114.798
	c-11.782,63.351-29.215,125.935-48.57,187.49c-11.792,37.502-29.706,73.493-48.216,108.388
	c-51.951,97.941-122.083,181.266-206.992,252.624c-57.337,48.186-120.033,88.125-187.496,119.456
	c-75.213,34.929-153.599,62.838-237.275,68.547c-75.279,5.136-150.895,10.076-226.194,8.223
	c-39.639-0.975-79.495-14.713-118.215-26.19c-52.214-15.477-104.669-31.365-154.8-52.376
	c-91.559-38.374-171.217-96.326-239.831-167.295c-43.522-45.015-83.966-94.17-118.736-146.184
	c-42.467-63.527-74.238-132.788-97.796-206.785c-31.868-100.102-42.414-201.744-38.25-305.159
	c3.655-90.771,20.339-178.881,53.432-265.153c31.342-81.71,73.587-155.99,125.194-224.959
	c29.764-39.776,66.806-74.49,102.879-109.076c62.277-59.709,133.47-107.537,212.129-142.623
	c43.865-19.566,91.095-31.434,136.036-48.774c111.722-43.107,228.404-29.362,342.809-25.605
	c80.505,2.644,158.158,30.095,233.41,63.263c54.584,24.059,106.373,51.165,154.4,85.79c61.137,44.077,120.88,90.615,165.445,152.006
	c43.75,60.269,89.59,120.585,122.159,186.943c29.502,60.109,46.703,127.432,61.233,193.359
	c12.849,58.299,14.543,119.057,21.162,178.73C1863.127,1001.506,1860.907,1001.693,1858.686,1001.881z M983.366,1689.602
	c-7.537-177.014-7.364-352.36,64.61-526.85c-22.742,5.613-36.806,9.084-55.729,13.754c-2.11-1.793-7.824-6.65-15.419-13.105
	c30.013-131.465,78.156-255.131,138.231-381.453c-31.475,5.691-59.347,10.731-95.07,17.191
	c28.281-70.897,61.803-128.08,107.883-185.135c49.152,12.576,97.543,24.957,152.373,38.985
	c-10.698-30.604-19.286-55.171-27.874-79.738c2.497-2.22,4.995-4.44,7.493-6.66c113.647,24.083,213.22,82.907,317.606,140.897
	c1.231-13.24,3.578-19.857,2.097-25.463c-13.517-51.162-23.88-103.623-42.84-152.742c-16.583-42.961-42.076-82.688-65.849-122.521
	c-5.872-9.84-19.479-18.153-31.032-20.94c-35.999-8.684-72.512-18.611-109.198-20.393c-87.064-4.23-174.34-4.377-261.539-5.078
	c-7.543-0.061-15.152,7.986-20.699,11.12c7.466,20.313,13.18,35.859,21.413,58.258c-132.805,2.861-254.372,22.276-377.728,61.721
	c12.451,16.715,21.497,28.86,35.621,47.82c-137.28,29.06-267.551,62.372-374.056,152.137
	c158.323-37.428,316.157-72.864,483.798-39.386c-12.874,54.01-27.053,105.952-37.312,158.656
	c-10.201,52.405-19.823,105.253-22.302,162.329c26.386-6.054,46.092-10.575,73.325-16.823
	c-25.893,127.713-22.131,249.001,1.602,372.388c17.335-6.123,31.998-11.303,54.599-19.287
	C904.87,1444.564,916.775,1572.763,983.366,1689.602z"/>
</svg>
