<?xml version="1.0" encoding="iso-8859-1"?>
<!-- Generator: Adobe Illustrator 19.0.0, SVG Export Plug-In . SVG Version: 6.00 Build 0)  -->
<svg version="1.1" id="Layer_1" xmlns="http://www.w3.org/2000/svg" xmlns:xlink="http://www.w3.org/1999/xlink" x="0px" y="0px"
	 viewBox="0 0 500 500" enable-background="new 0 0 500 500" xml:space="preserve">
<path d="M492.968,248.455c-1.696,133.248-107.248,244.31-247.272,242.113C112.102,488.472,7.407,382.329,6.949,248.567
	C6.486,113.33,114.109,2.23,255.257,5.053C388.737,7.721,491.359,114.505,492.968,248.455z M234.181,246.859
	c-16.525,5.371-32.541,11.308-45.985,22.012c-27.94,22.246-53.423,46.898-71.94,77.892c-7.789,13.038-12.804,27.079-13.766,42.303
	c-0.815,12.906,6.697,20.71,19.464,20.404c12.768-0.306,24.909-3.26,35.892-10.035c25.726-15.87,47.048-36.173,63.312-61.843
	c12.769-20.154,23.257-41.281,30.192-64.129c0.817-2.691,1.497-5.423,2.53-9.192c2.481,2.214,3.761,3.281,4.957,4.435
	c12.093,11.666,25.884,20.823,41.489,26.976c25.275,9.965,51.217,17.274,78.372,20.397c21.981,2.528,43.329,2.116,63.887-7.088
	c11.134-4.984,15.852-17.426,9.326-27.482c-4.358-6.715-9.445-13.513-15.702-18.332c-16.528-12.733-35.645-20.445-55.787-25.781
	c-21.284-5.639-42.944-6.751-64.773-5.986c-19.394,0.68-38.643,2.396-56.846,10.018c-0.649,0.272-1.737-0.506-2.727-0.829
	c0.117-1.243,0.084-2.252,0.321-3.192c4.261-16.89,7.32-34.029,4.769-51.396c-3.548-24.16-8.9-47.94-17.428-70.953
	c-6.736-18.176-14.704-35.676-27.514-50.363c-5.962-6.836-12.747-13.323-21.914-16.057c-7.888-2.352-15.814-0.401-19.25,5.148
	c-6.137,9.909-10.723,20.62-11.541,32.319c-1.266,18.115,1.335,36.073,5.861,53.483c8.856,34.072,26.644,63.607,49.01,90.48
	C223.125,235.757,228.531,240.887,234.181,246.859z"/>
</svg>
