<?xml version="1.0" encoding="utf-8"?>
<!-- Generator: Adobe Illustrator 24.2.0, SVG Export Plug-In . SVG Version: 6.00 Build 0)  -->
<svg version="1.1" id="tfuel" xmlns="http://www.w3.org/2000/svg" xmlns:xlink="http://www.w3.org/1999/xlink" x="0px" y="0px"
	 viewBox="0 0 500 500" style="enable-background:new 0 0 500 500;" xml:space="preserve">
<path d="M367.2,189.2c0,44.4-33,48.1-41.4,48.1c-8.5,0-35.9-8.1-35.9-38c0-21.2,13.7-26.5,13.7-77c0-73.2-74.9-117.1-74.9-117.1
	s3.9,37.8-5.9,73C207.9,132,74.3,199.3,83.1,311.2c12.6,159.2,181.4,182.5,181.4,182.5s1-7.2,14.8-24.3c23-28.7,61.2-28.5,91.8-49.6
	c30.6-21.1,51.7-57,51.7-108.7C422.8,244.1,367.2,189.2,367.2,189.2z M348.1,329.9h-63.9v64h-62.5v-64h-64v-62.5h190.4V329.9z"/>
</svg>
