<?xml version="1.0" encoding="iso-8859-1"?>
<!-- Generator: Adobe Illustrator 19.0.0, SVG Export Plug-In . SVG Version: 6.00 Build 0)  -->
<svg version="1.1" id="Layer_1" xmlns="http://www.w3.org/2000/svg" xmlns:xlink="http://www.w3.org/1999/xlink" x="0px" y="0px"
	 viewBox="0 0 500 500" enable-background="new 0 0 500 500" xml:space="preserve">
<path d="M190.37,377.911c0-43.816,0-87.538,0-131.39c-18.123,0-36.039,0-54.162,0c-0.191,4.842-0.057,9.685-0.082,14.524
	c-0.025,4.868-0.005,9.737-0.005,14.605c0,4.807,0,9.615,0,14.422c0,4.868,0,9.737,0,14.605s0,9.737,0,14.605s0,9.737,0,14.605
	s0,9.737,0,14.605s0,9.737,0,14.605c0,4.807,0,9.615,0,14.422c0,4.868,0,9.737,0,14.605c0,4.868,0,9.737,0,14.605s0,9.737,0,14.605
	c0,4.868,0,9.737,0,14.605s0,9.737,0,14.605c0,4.807,0,9.615,0,14.422c0,4.868,0,9.737,0,14.605c0,4.862,0,9.725,0,14.55
	c-1.415,0.397-60.216,0.51-62.835,0.125c0-82.508,0-165.047,0-247.773c-21.236,0-42.264,0-63.233,0
	c-0.46-1.487-0.648-58.537-0.238-62.962c21.045-0.03,42.117-0.012,63.368-0.02c0-60.397,0-120.612,0-180.951
	c21.016,0,41.852,0,62.872,0c0,60.225,0,120.436,0,180.593c1.436,0.429,51.819,0.542,54.279,0.142c0-57.136,0-114.307,0-171.59
	c21.042,0,41.877,0,62.913,0c0,57.247,0,114.414,0,171.695c13.065,0,25.93,0,38.892,0c0.059-0.391,0.152-0.738,0.156-1.085
	c0.102-8.907,1.279-17.71,2.682-26.481c2.076-12.975,4.794-25.818,8.343-38.475c2.678-9.55,5.709-18.978,10.079-27.921
	c1.607-3.288,3.456-6.423,5.68-9.336c3.618-4.738,7.063-9.616,10.846-14.218c12.768-15.535,28.884-26.442,47.455-33.878
	c12.072-4.834,24.584-8.058,37.383-10.239c20.298-3.459,40.757-4.177,61.292-3.638c1.033,0.027,2.066,0.067,3.099,0.114
	c0.109,0.005,0.213,0.096,0.437,0.204c0,20.604,0,41.265,0,62.067c-0.41-0.051-0.809-0.057-1.183-0.155
	c-12.545-3.285-25.307-4.896-38.267-4.753c-13.562,0.15-26.753,2.295-39.26,7.818c-11.664,5.151-21.318,12.811-28.88,23.09
	c-9.062,12.318-15.971,25.69-19.917,40.525c-2.712,10.196-3.827,20.547-3.116,31.082c0.098,1.455,0.296,2.904,0.469,4.354
	c0.035,0.296,0.167,0.58,0.298,1.016c20.169,0,40.352,0,60.665,0c0,20.992,0,41.829,0,62.874c-19.123,0-38.197,0-57.411,0
	c-0.094,0.897-0.217,1.605-0.237,2.314c-0.619,22.776,4.502,43.916,17.916,62.679c5.91,8.267,13.462,14.843,21.539,20.878
	c5.134,3.836,10.534,7.217,16.465,9.695c6.613,2.763,13.536,4.321,20.625,5.177c12.903,1.557,25.857,1.55,38.819,1.152
	c6.689-0.205,13.376-0.475,20.064-0.702c1.089-0.037,2.181-0.005,3.273-0.005c0.383,1.277,0.552,45.599,0.173,49.289
	c-0.356,0.082-0.746,0.223-1.145,0.255c-13.477,1.101-26.978,1.385-40.49,1.03c-13.572-0.356-27.093-1.415-40.501-3.609
	c-13.775-2.254-27.271-5.54-40.113-11.173c-10.139-4.448-19.183-10.413-26.881-18.469c-8.337-8.724-16.396-17.65-23.181-27.664
	c-9.726-14.355-16.361-30.077-20.759-46.792c-2.944-11.192-4.957-22.558-6.266-34.051c-0.296-2.598-0.517-5.204-0.782-7.805
	c-0.067-0.66-0.169-1.316-0.265-2.055c-12.616,0-25.132,0-37.916,0c-0.126,2.709-0.044,5.418-0.059,8.123
	c-0.015,2.738-0.003,5.477-0.003,8.215s0,5.477,0,8.215s0,5.477,0,8.215c0,2.738,0,5.477,0,8.215c0,2.738,0,5.477,0,8.215
	c0,2.738,0,5.477,0,8.215c0,2.738,0,5.477,0,8.215s0,5.477,0,8.215s0,5.477,0,8.215c0,2.738,0,5.477,0,8.215
	c0,2.738,0,5.477,0,8.215s0,5.477,0,8.215s0,5.477,0,8.215s0,5.477,0,8.215c0,2.724,0,5.449,0,8.289
	C232.246,377.911,211.412,377.911,190.37,377.911z"/>
</svg>
