<?xml version="1.0" encoding="iso-8859-1"?>
<!-- Generator: Adobe Illustrator 19.0.0, SVG Export Plug-In . SVG Version: 6.00 Build 0)  -->
<svg version="1.1" id="Layer_1" xmlns="http://www.w3.org/2000/svg" xmlns:xlink="http://www.w3.org/1999/xlink" x="0px" y="0px"
	 viewBox="0 0 500 500" style="enable-background:new 0 0 500 500;" xml:space="preserve">
<path d="M128.488,486.078c-7.801-7.759-15.651-15.566-23.444-23.317c0-141.085,0-281.849,0-422.081
	c8.079-8.173,15.861-16.045,24.396-24.68c80.599,0,162.3,0,243.733,0c8.092,7.803,16.058,15.484,23.775,22.925
	c0,141.475,0,282.238,0,423.126c-7.991,7.565-16.034,15.178-25.382,24.028C292.158,486.078,210.433,486.078,128.488,486.078z
	 M349.404,438.577c0-125.252,0-249.631,0-374.37c-66.258,0-131.509,0-196.851,0c0,125.539,0,249.629,0,374.37
	C218.228,438.577,283.274,438.577,349.404,438.577z M228.01,136.928c0,16.133,0,31.173,0,47.281c-16.721,0-32.196,0-48.149,0
	c0,16.505,0,31.9,0,47.963c47.839,0,94.973,0,142.302,0c0-16.361,0-31.742,0-48.481c-16.293,0-31.711,0-47.754,0
	c0-16.118,0-30.866,0-46.764C258.365,136.928,243.813,136.928,228.01,136.928z M274.208,319.809c17.45,0,32.875,0,48.147,0
	c0-16.018,0-30.699,0-45.961c-47.697,0-94.844,0-142.484,0c0,15.587,0,30.561,0,47.212c16.44,0,32.208,0,49.17,0
	c0,17.098,0,32.525,0,48.293c15.229,0,29.168,0,45.167,0C274.208,353.259,274.208,337.152,274.208,319.809z"/>
</svg>
