<?xml version="1.0" encoding="utf-8"?>
<!-- Generator: Adobe Illustrator 25.1.0, SVG Export Plug-In . SVG Version: 6.00 Build 0)  -->
<svg version="1.1" id="thr" xmlns="http://www.w3.org/2000/svg" xmlns:xlink="http://www.w3.org/1999/xlink" x="0px" y="0px"
	 viewBox="0 0 500 500" style="enable-background:new 0 0 500 500;" xml:space="preserve">
<path d="M421.8,410.5c0-6.9,5.6-12.5,12.5-12.5c4.7,0,8.8,2.6,10.9,6.5c5.4-6.8,10.4-13.9,15.1-21.2c-4.7-1.9-8.1-6.5-8.1-11.9
	c0-7.1,5.8-12.8,12.8-12.8c2.9,0,5.6,1,7.8,2.6c4.9-9.9,9.3-20.1,12.9-30.7c-4.5-3.4-7.5-8.8-7.5-14.9c0-9.5,7.1-17.3,16.3-18.4
	c2.9-15.3,4.5-31,4.5-47.1C499,112.5,387.6,1,250.2,1S1.3,112.5,1.3,249.9s111.4,248.9,248.9,248.9c28.3,0,55.5-4.7,80.9-13.4
	c0.1-4,3.3-7.1,7.2-7.1c2.1,0,4,0.9,5.4,2.4c21.7-8.8,42-20.6,60.1-34.9c1.2-2.2,3.3-4,5.8-4.7c7.1-5.9,13.8-12.2,20.2-18.9
	C425.1,420.3,421.8,415.8,421.8,410.5z M409.4,262.7c0-7.1,5.8-12.8,12.8-12.8c7.1,0,12.8,5.8,12.8,12.8c0,7.1-5.8,12.8-12.8,12.8
	C415.2,275.6,409.4,269.8,409.4,262.7z M441.7,334.1c-10.3,0-18.6-8.3-18.6-18.6c0-10.3,8.3-18.6,18.6-18.6
	c10.3,0,18.6,8.3,18.6,18.6C460.3,325.7,452,334.1,441.7,334.1z M492.1,262.7c0,7.1-5.8,12.8-12.8,12.8c-7.1,0-12.8-5.8-12.8-12.8
	c0-7.1,5.8-12.8,12.8-12.8C486.3,249.9,492.1,255.7,492.1,262.7z M475.1,174.3c5.3,0,9.6,4.3,9.6,9.6c0,5.3-4.3,9.6-9.6,9.6
	c-5.3,0-9.6-4.3-9.6-9.6C465.6,178.6,469.8,174.3,475.1,174.3z M453.1,210.9c6.9,0,12.5,5.6,12.5,12.5c0,6.9-5.6,12.5-12.5,12.5
	c-6.9,0-12.5-5.6-12.5-12.5C440.5,216.5,446.1,210.9,453.1,210.9z M431.1,141.4c4,0,7.2,3.2,7.2,7.2c0,4-3.2,7.2-7.2,7.2
	c-4,0-7.2-3.2-7.2-7.2C423.9,144.6,427.1,141.4,431.1,141.4z M416.7,174.3c5.3,0,9.6,4.3,9.6,9.6c0,5.3-4.3,9.6-9.6,9.6
	c-5.3,0-9.6-4.3-9.6-9.6C407.1,178.6,411.4,174.3,416.7,174.3z M395.2,210.9c6.9,0,12.5,5.6,12.5,12.5c0,6.9-5.6,12.5-12.5,12.5
	c-6.9,0-12.5-5.6-12.5-12.5C382.7,216.5,388.3,210.9,395.2,210.9z M386.7,296.8c10.3,0,18.6,8.3,18.6,18.6
	c0,10.3-8.3,18.6-18.6,18.6c-10.3,0-18.6-8.3-18.6-18.6C368.1,305.2,376.4,296.8,386.7,296.8z M365.3,275.6
	c-7.1,0-12.8-5.8-12.8-12.8c0-7.1,5.8-12.8,12.8-12.8c7.1,0,12.8,5.8,12.8,12.8C378.1,269.8,372.4,275.6,365.3,275.6z M372.2,141.4
	c4,0,7.2,3.2,7.2,7.2c0,4-3.2,7.2-7.2,7.2c-4,0-7.2-3.2-7.2-7.2C364.9,144.6,368.2,141.4,372.2,141.4z M358,174.3
	c5.3,0,9.6,4.3,9.6,9.6c0,5.3-4.3,9.6-9.6,9.6c-5.3,0-9.6-4.3-9.6-9.6C348.5,178.6,352.7,174.3,358,174.3z M337.6,210.9
	c6.9,0,12.5,5.6,12.5,12.5c0,6.9-5.6,12.5-12.5,12.5c-6.9,0-12.5-5.6-12.5-12.5C325.1,216.5,330.7,210.9,337.6,210.9z M313.2,141.4
	c4,0,7.2,3.2,7.2,7.2c0,4-3.2,7.2-7.2,7.2c-4,0-7.2-3.2-7.2-7.2C306,144.6,309.2,141.4,313.2,141.4z M321.3,262.7
	c0,7.1-5.8,12.8-12.8,12.8c-7.1,0-12.8-5.8-12.8-12.8c0-7.1,5.8-12.8,12.8-12.8C315.5,249.9,321.3,255.7,321.3,262.7z M299.6,174.3
	c5.3,0,9.6,4.3,9.6,9.6c0,5.3-4.3,9.6-9.6,9.6c-5.3,0-9.6-4.3-9.6-9.6C290,178.6,294.3,174.3,299.6,174.3z M279.8,210.9
	c6.9,0,12.5,5.6,12.5,12.5c0,6.9-5.6,12.5-12.5,12.5c-6.9,0-12.5-5.6-12.5-12.5C267.3,216.5,272.9,210.9,279.8,210.9z M254.1,141.4
	c4,0,7.2,3.2,7.2,7.2c0,4-3.2,7.2-7.2,7.2s-7.2-3.2-7.2-7.2C246.9,144.6,250.1,141.4,254.1,141.4z M264.3,262.7
	c0,7.1-5.8,12.8-12.8,12.8s-12.8-5.8-12.8-12.8c0-7.1,5.8-12.8,12.8-12.8S264.3,255.7,264.3,262.7z M241.1,174.3
	c5.3,0,9.6,4.3,9.6,9.6c0,5.3-4.3,9.6-9.6,9.6c-5.3,0-9.6-4.3-9.6-9.6C231.5,178.6,235.8,174.3,241.1,174.3z M222,210.9
	c6.9,0,12.5,5.6,12.5,12.5c0,6.9-5.6,12.5-12.5,12.5c-6.9,0-12.5-5.6-12.5-12.5C209.5,216.5,215.1,210.9,222,210.9z M195.1,141.4
	c4,0,7.2,3.2,7.2,7.2c0,4-3.2,7.2-7.2,7.2s-7.2-3.2-7.2-7.2C187.9,144.6,191.1,141.4,195.1,141.4z M182.6,174.3
	c5.3,0,9.6,4.3,9.6,9.6c0,5.3-4.3,9.6-9.6,9.6s-9.6-4.3-9.6-9.6C173.1,178.6,177.4,174.3,182.6,174.3z M77.2,155.9
	c-4,0-7.2-3.2-7.2-7.2c0-4,3.2-7.2,7.2-7.2c4,0,7.2,3.2,7.2,7.2C84.5,152.6,81.2,155.9,77.2,155.9z M124,193.4
	c-5.3,0-9.6-4.3-9.6-9.6c0-5.3,4.3-9.6,9.6-9.6c5.3,0,9.6,4.3,9.6,9.6C133.5,189.1,129.3,193.4,124,193.4z M136.2,155.9
	c-4,0-7.2-3.2-7.2-7.2c0-4,3.2-7.2,7.2-7.2s7.2,3.2,7.2,7.2C143.4,152.6,140.2,155.9,136.2,155.9z M164.3,235.9
	c-6.9,0-12.5-5.6-12.5-12.5c0-6.9,5.6-12.5,12.5-12.5c6.9,0,12.5,5.6,12.5,12.5C176.9,230.3,171.3,235.9,164.3,235.9z M181.6,262.7
	c0-7.1,5.8-12.8,12.8-12.8c7.1,0,12.8,5.8,12.8,12.8c0,7.1-5.8,12.8-12.8,12.8C187.4,275.6,181.6,269.8,181.6,262.7z M202.7,315.4
	c0-10.3,8.3-18.6,18.6-18.6c10.3,0,18.6,8.3,18.6,18.6c0,10.3-8.3,18.6-18.6,18.6C211.1,334.1,202.7,325.7,202.7,315.4z
	 M237.3,384.1c-7.1,0-12.8-5.8-12.8-12.8c0-7.1,5.8-12.8,12.8-12.8c7.1,0,12.8,5.8,12.8,12.8C250.2,378.4,244.4,384.1,237.3,384.1z
	 M261,423c-6.9,0-12.5-5.6-12.5-12.5c0-6.9,5.6-12.5,12.5-12.5c6.9,0,12.5,5.6,12.5,12.5C273.5,417.4,267.9,423,261,423z
	 M257.9,315.4c0-10.3,8.3-18.6,18.6-18.6c10.3,0,18.6,8.3,18.6,18.6c0,10.3-8.3,18.6-18.6,18.6C266.2,334.1,257.9,325.7,257.9,315.4
	z M281.4,371.3c0-7.1,5.8-12.8,12.8-12.8c7.1,0,12.8,5.8,12.8,12.8c0,7.1-5.8,12.8-12.8,12.8C287.2,384.1,281.4,378.4,281.4,371.3z
	 M295.3,459.7c-5.3,0-9.6-4.3-9.6-9.6c0-5.3,4.3-9.6,9.6-9.6c5.3,0,9.6,4.3,9.6,9.6C304.8,455.4,300.6,459.7,295.3,459.7z
	 M318.8,423c-6.9,0-12.5-5.6-12.5-12.5c0-6.9,5.6-12.5,12.5-12.5c6.9,0,12.5,5.6,12.5,12.5C331.3,417.4,325.7,423,318.8,423z
	 M331.5,334.1c-10.3,0-18.6-8.3-18.6-18.6c0-10.3,8.3-18.6,18.6-18.6c10.3,0,18.6,8.3,18.6,18.6
	C350.1,325.7,341.8,334.1,331.5,334.1z M338.4,371.3c0-7.1,5.8-12.8,12.8-12.8c7.1,0,12.8,5.8,12.8,12.8c0,7.1-5.8,12.8-12.8,12.8
	C344.2,384.1,338.4,378.4,338.4,371.3z M353.7,459.7c-5.3,0-9.6-4.3-9.6-9.6c0-5.3,4.3-9.6,9.6-9.6c5.3,0,9.6,4.3,9.6,9.6
	C363.3,455.4,359,459.7,353.7,459.7z M376.6,423c-6.9,0-12.5-5.6-12.5-12.5c0-6.9,5.6-12.5,12.5-12.5c6.9,0,12.5,5.6,12.5,12.5
	C389.2,417.4,383.5,423,376.6,423z M408.1,384.1c-7.1,0-12.8-5.8-12.8-12.8c0-7.1,5.8-12.8,12.8-12.8c7.1,0,12.8,5.8,12.8,12.8
	C420.9,378.4,415.2,384.1,408.1,384.1z"/>
</svg>
