<?xml version="1.0" encoding="iso-8859-1"?>
<!-- Generator: Adobe Illustrator 19.0.0, SVG Export Plug-In . SVG Version: 6.00 Build 0)  -->
<svg version="1.1" id="Layer_1" xmlns="http://www.w3.org/2000/svg" xmlns:xlink="http://www.w3.org/1999/xlink" x="0px" y="0px"
	 viewBox="0 0 2000 2000" style="enable-background:new 0 0 2000 2000;" xml:space="preserve">
<path d="M1002.461,134.973c-99.748,57.572-199.126,114.931-300.993,173.726c249.585,144.12,497.161,287.081,745.429,430.44
	c0,326.996,0,653.986,0,982.451c-147.323,84.945-295.143,170.177-444.542,256.319c-33.155-19.377-66.618-38.934-100.767-58.891
	c0-287.546,0-574.687,0-863.216c-214.586-123.9-428.911-247.65-645.673-372.806c0,249.005,0,495.912,0,744.105
	c-34.956,0-67.901,0-101.686,0c0-306.224,0-612.069,0-920.573c283.412,163.624,565.475,326.469,848.324,489.768
	c0,286.9,0,573.531,0,863.614c115.782-66.806,229.174-132.233,343.103-197.97c0-287.25,0-574.398,0-863.173
	c-281.48-162.54-563.562-325.427-848.043-489.699c169.329-97.917,336.398-194.528,504.804-291.911
	c282.484,163.09,565.052,326.228,847.945,489.554c0,306.871,0,613.202,0,920.605c-33.126,0-65.711,0-99.854,0
	c0-286.757,0-573.283,0-860.502C1500.761,422.637,1251.873,278.957,1002.461,134.973z"/>
</svg>
