<?xml version="1.0" encoding="iso-8859-1"?>
<!-- Generator: Adobe Illustrator 19.0.0, SVG Export Plug-In . SVG Version: 6.00 Build 0)  -->
<svg version="1.1" id="Layer_1" xmlns="http://www.w3.org/2000/svg" xmlns:xlink="http://www.w3.org/1999/xlink" x="0px" y="0px"
	 viewBox="0 0 2000 2000" style="enable-background:new 0 0 2000 2000;" xml:space="preserve">
<path d="M995.816,15.84c532.662-4.109,1002.941,441.146,983.309,1022.317c-16.95,501.767-437.872,964.931-1023.473,946.074
	C454.995,1968.109-10.479,1546.287,10.696,958.16C28.94,451.43,450.02,14.243,995.816,15.84z M587.017,892.543
	c-22.706-5.871-43.209-10.214-63.095-16.505c-47.144-14.916-92.977-32.802-127.502-70.481
	c-32.239-35.184-38.791-86.489,1.997-119.571c18.909-15.336,42.181-26.907,65.271-35.167c65.29-23.356,131.795-9.963,197.874-2.129
	c38.148,4.523,76.261,9.336,114.39,14.013c36.609,4.491,73.227,8.903,109.825,13.483c37.607,4.706,75.168,9.793,112.798,14.307
	c38.653,4.637,77.376,8.677,116.046,13.172c41.226,4.792,82.375,10.305,123.651,14.596c46.419,4.826,93.12,7.274,139.374,13.258
	c50.341,6.512,100.207,8.419,149.772-3.939c51.055-12.73,101.427-27.374,133.767-73.826c22.626-32.5,34.407-68.745,39.954-108.205
	c8.061-57.339-3.992-106.453-46.745-147.236c-49.845-47.548-109.332-76.864-175.087-94.322
	c-23.348-6.199-47.393-9.777-72.687-14.867c0,17.167,0,30.413,0,43.663c28.703,9.967,57.538,18.533,85.211,29.921
	c44.405,18.272,87.589,39.672,113.461,82.847c7.431,12.401,11.544,28.447,12.085,43.01c1.611,43.311-26.564,66.814-61.843,83.197
	c-41.15,19.11-85.613,26.265-130.185,24.548c-43.381-1.671-86.529-9.615-129.756-14.985c-38.089-4.732-76.141-9.768-114.222-14.568
	c-36.095-4.549-72.208-8.955-108.311-13.44c-38.613-4.797-77.213-9.704-115.839-14.394c-37.619-4.568-75.271-8.864-112.897-13.385
	c-39.663-4.766-79.293-9.808-118.97-14.451c-39.201-4.588-78.69-7.293-117.609-13.573c-61.716-9.957-121.329-6.8-178.852,19.604
	c-39.995,18.358-77.845,39.632-103.375,77.003c-50.84,74.419-52.827,151.352-6.394,219.4c22.349,32.752,53.778,54.342,88.244,72.342
	c53.834,28.115,111.494,43.203,172.278,52.517C582.212,922.431,584.538,907.966,587.017,892.543z M1053.682,746.733
	c-46.525,0-90.815,0-135.455,0c-19.763,56.068-39.636,111.759-59.033,167.616c-52.644,151.6-105.944,302.982-157.169,455.061
	c-19.302,57.305-47.353,112.406-52.118,173.864c-3.462,44.655,2.264,87.882,40.018,118.804
	c23.435,19.195,49.832,33.401,79.561,41.456c36.652,9.93,70.946,6.619,102.78-14.614c47.296-31.546,88.42-70.218,128.669-111.645
	c-16.139-6.919-31.336-13.434-46.714-20.027c-8.61,9.813-16.578,19.867-25.546,28.932c-28.339,28.646-58.279,55.209-99.789,62.71
	c-24.225,4.378-47.162-4.982-54.042-30.767c-5.838-21.882-6.006-43.652,0.969-65.159c9.739-30.031,19.879-59.935,30.139-89.793
	c56.135-163.36,112.243-326.728,168.604-490.01C1000.479,898.061,1026.958,823.153,1053.682,746.733z"/>
</svg>
