<?xml version="1.0" encoding="iso-8859-1"?>
<!-- Generator: Adobe Illustrator 19.0.0, SVG Export Plug-In . SVG Version: 6.00 Build 0)  -->
<svg version="1.1" id="Layer_1" xmlns="http://www.w3.org/2000/svg" xmlns:xlink="http://www.w3.org/1999/xlink" x="0px" y="0px"
	 viewBox="0 0 500 500" enable-background="new 0 0 500 500" xml:space="preserve">
<path d="M249.806,86.931c73.003-0.001,146.006,0.097,219.008-0.128c8.802-0.027,21.289,8.513,22.833,17.927
	c0.628,3.827,1.57,7.68,1.574,11.522c0.089,91.819-0.002,183.639,0.164,275.458c0.019,10.636-9.141,23.296-18.636,24.819
	c-3.131,0.502-6.26,1.458-9.391,1.46c-143.883,0.073-287.767,0.047-431.651,0.095c-11.473,0.004-19.788-4.997-24.902-15.069
	c-1.516-2.987-2.656-6.557-2.661-9.862c-0.14-93.941-0.183-187.883-0.028-281.825c0.02-12.333,11.232-24.426,24.256-24.417
	C103.517,86.955,176.661,86.931,249.806,86.931z M95.126,394.381c102.371,0,204.999,0,307.934,0
	c7.132-37.391,29.474-60.111,66.156-68.16c0-51.187,0-101.768,0-152.304c-32.967-4.734-60.92-33.504-64.534-63.723
	c-1.802-0.332-3.942-1.07-6.083-1.071c-99.73-0.057-199.46-0.049-299.19-0.049c-1.53,0-3.06,0-4.668,0
	c-8.008,35.428-29.577,56.965-64.776,64.987c0,50.647,0,101.258,0,152.362C65.96,334.85,87.828,357.137,95.126,394.381z
	 M469.251,350.422c-22.228,4.768-39.024,24.426-41.917,43.652c13.997,0,27.969,0,41.917,0
	C469.251,379.152,469.251,364.814,469.251,350.422z M70.373,394.253c-0.428-14.137-15.139-37.859-40.265-43.454
	c0,14.347,0,28.701,0,43.454C43.623,394.253,56.834,394.253,70.373,394.253z M428.637,109.072
	c1.848,20.266,25.967,40.495,40.884,40.165c0-6.323,0-12.656,0-18.989c0-6.34,0-12.681,0-19.765
	c-2.294-0.483-4.487-1.298-6.697-1.347c-7.618-0.166-15.242-0.064-22.864-0.064C436.199,109.072,432.438,109.072,428.637,109.072z
	 M30.001,149.51c16.646-2.325,36.631-20.405,40.169-40.437c-1.46,0-2.819,0-4.178,0c-9.894,0-19.79-0.087-29.682,0.068
	c-2.182,0.034-4.351,0.927-6.309,1.375C30.001,124.104,30.001,136.794,30.001,149.51z M251.316,363.984
	c-41.208-0.796-72.96-18.889-95.195-53.381c-6.308-9.785-10.326-20.791-12.962-32.366c-3.35-14.709-4.015-29.424-1.012-44.011
	c7.45-36.198,27.799-62.872,61.075-79.271c13.709-6.757,28.258-10.051,43.669-10.62c34.874-1.287,63.924,11.088,87.417,36.42
	c11.055,11.92,18.807,25.935,23.517,41.732c4.091,13.721,5.862,27.613,4.396,41.689c-2.368,22.735-10.817,43.11-25.692,60.716
	c-13.184,15.605-29.568,26.602-48.677,33.286C276.167,362.268,263.98,364.721,251.316,363.984z M251.349,341.819
	c49.501,0.597,89.384-40.152,88.954-88.036c-0.443-49.369-40.124-88.035-89.084-87.667c-50.741,0.381-88.167,39.73-88.566,87.471
	C162.246,302.378,202.276,342.178,251.349,341.819z M257.315,247.457c-0.001-13.279,0.132-26.561-0.11-39.836
	c-0.051-2.788-0.977-5.846-2.393-8.255c-2.052-3.491-8.196-4.936-12.553-3.675c-3.816,1.104-7.131,5.38-7.148,9.843
	c-0.088,22.037-0.068,44.075-0.06,66.113c0,0.653,0.292,1.306,0.492,2.145c20.913,0,41.654,0.093,62.393-0.081
	c4.042-0.034,8.136-4.877,8.581-9.057c0.76-7.126-4.348-12.765-11.752-12.8c-12.273-0.058-24.546-0.016-37.45-0.016
	C257.316,249.952,257.316,248.704,257.315,247.457z"/>
</svg>
