<?xml version="1.0" encoding="iso-8859-1"?>
<!-- Generator: Adobe Illustrator 19.0.0, SVG Export Plug-In . SVG Version: 6.00 Build 0)  -->
<svg version="1.1" id="Layer_1" xmlns="http://www.w3.org/2000/svg" xmlns:xlink="http://www.w3.org/1999/xlink" x="0px" y="0px"
	 viewBox="0 0 500 500" enable-background="new 0 0 500 500" xml:space="preserve">
<path d="M250.431,65.336c69.476,0.002,138.952-0.052,208.428,0.092c6.315,0.013,13.212-0.1,18.833,2.251
	c18.653,7.802,21.239,32.714,4.898,45.382c-10.768,8.348-22.177,15.87-33.285,23.781c-24.175,17.218-48.26,34.566-72.567,51.595
	c-6.485,4.544-10.721,10.087-13.661,17.511c-28.738,72.558-57.816,144.981-86.651,217.501c-2.93,7.368-6.89,13.646-13.932,17.439
	c-14.576,7.85-31.611,1.257-38.441-15.26c-9.178-22.196-17.894-44.584-26.775-66.903c-20.417-51.308-40.891-102.593-61.129-153.971
	c-2.78-7.056-7.261-12.029-13.344-16.324c-34.731-24.526-69.386-49.161-103.896-73.996C2.945,102.946,1.573,83.427,15.99,71.498
	c3.737-3.092,9.118-4.7,14.01-5.747c4.622-0.989,9.594-0.406,14.412-0.407C113.085,65.33,181.758,65.334,250.431,65.336z
	 M362.774,181.662c9.163-6.448,17.37-12.154,25.506-17.959c27.737-19.792,55.376-39.724,83.23-59.351
	c5.932-4.18,9.198-9.136,7.32-16.217c-1.923-7.25-7.713-9.711-14.694-9.947c-1.604-0.054-3.211,0.009-4.817,0.009
	c-60.618,0.011-121.237,0.021-181.855,0.031c-2.983,0-5.967,0-11.932,0C299.19,114.029,330.686,147.53,362.774,181.662z
	 M231.841,80.592c-0.438-0.789-0.876-1.578-1.313-2.368c-64.587,0-129.173-0.049-193.76,0.054
	c-9.315,0.015-14.627,3.456-16.059,9.735c-1.776,7.787,2.078,12.591,8.292,16.953c26.567,18.647,52.859,37.686,79.282,56.539
	c9.373,6.688,18.834,13.251,28.579,20.099C168.882,147.551,200.361,114.071,231.841,80.592z M351.625,189.764
	c-31.331-33.275-62.127-65.983-93.983-99.816c0,56.612,0,110.873,0,166.757C289.559,233.972,320.168,212.17,351.625,189.764z
	 M242.106,89.712c-32.088,34.106-62.771,66.717-94.141,100.061c31.589,22.475,62.419,44.409,94.141,66.979
	C242.106,200.575,242.106,146.24,242.106,89.712z M154.715,211.355c-0.191,2.244-0.351,2.652-0.233,2.95
	c27.204,68.294,54.409,136.588,81.72,204.84c1.068,2.668,3.15,4.93,6.031,9.317c0-53.367,0-104.117,0-154.714
	C213.154,253.016,184.496,232.586,154.715,211.355z M257.264,425.865c1.048,0.198,2.097,0.396,3.145,0.594
	c28.411-71.051,56.823-142.101,85.234-213.151c-0.652-0.372-1.304-0.744-1.956-1.116c-28.926,20.639-57.853,41.279-86.423,61.665
	C257.264,325.104,257.264,375.485,257.264,425.865z"/>
</svg>
