<?xml version="1.0" encoding="iso-8859-1"?>
<!-- Generator: Adobe Illustrator 19.0.0, SVG Export Plug-In . SVG Version: 6.00 Build 0)  -->
<svg version="1.1" id="Layer_1" xmlns="http://www.w3.org/2000/svg" xmlns:xlink="http://www.w3.org/1999/xlink" x="0px" y="0px"
	 viewBox="0 0 500 500" enable-background="new 0 0 500 500" xml:space="preserve">
<path d="M133.078,140.574c3.995,5.294,7.002,10.435,11.099,14.467c8.571,8.434,18.662,11.264,30.682,7.493
	c17.068-5.354,31.853-15.033,47.098-23.815c23.657-13.628,47.528-26.847,73.257-36.134c20.86-7.53,42.319-12.892,65.119-14.131
	c13.133,25.11,17.588,52.564,23.895,79.598c9.527,3.739,19.042,7.208,28.346,11.173c27.361,11.66,52.382,26.722,71.625,50.055
	c9.169,11.118,10.038,23.844,6.361,36.875c-4.277,15.154-13.077,27.853-23.215,39.857c-25.057,29.671-56.353,51.31-89.225,71.141
	c-22.727,13.711-46.397,25.356-71.046,35.169c-23.367,9.303-47.131,17.482-72.193,20.016c-18.018,1.822-36.394,2.861-54.395,1.463
	c-26.814-2.082-53.536-5.981-79.016-15.68c-30.651-11.667-57.607-28.281-75.847-56.406c-11.979-18.471-19.406-38.573-18.558-61.021
	c0.322-8.53,0.318-17.18,1.809-25.535c2.872-16.094,12.308-29.013,23.074-40.618c23.616-25.455,52.478-43.616,83.989-57.651
	c6.325-2.817,9.435-6.915,10.805-13.526C128.338,155.674,130.917,148.186,133.078,140.574z M113.427,233.464
	c-2.148,10.79-3.991,19.832-5.743,28.892c-3.262,16.867-0.374,32.274,11.333,45.355c13.052,14.584,29.719,23.707,48.119,29.143
	c20.499,6.056,41.506,3.866,62.003-0.397c13.992-2.91,27.758-7.374,41.228-12.24c32.78-11.843,63.572-27.704,91.553-48.599
	c10.013-7.478,19.616-15.512,24.712-27.743c3.15-7.559,3.829-15.387,5.386-23.204c2.124-10.666-1.168-20.581-1.777-30.83
	c-0.102-1.719-1.466-3.363-2.179-4.898c-9.913,8.073-19.299,16.39-29.368,23.778c-22.437,16.463-46.376,30.369-71.805,41.85
	c-20.95,9.459-42.155,17.906-64.789,22.261c-27.513,5.294-53.836,2.108-78.15-12.405
	C131.688,257.107,121.592,247.268,113.427,233.464z M139.788,126.721c1.014,3.305,2.062,6.599,3.034,9.916
	c4.082,13.921,15.016,21.422,28.535,16.91c12.752-4.256,25.175-10.286,36.7-17.26c22.594-13.671,45.575-26.502,69.879-36.791
	c24.054-10.183,49.062-17.085,75.568-20.312c-4.086-2.687-8.32-5.516-12.938-6.458c-17.666-3.604-35.343-7.693-53.228-9.541
	c-20.712-2.14-41.643-2.251-62.49-2.929c-5.569-0.181-11.191,1.291-16.763,1.129c-17.877-0.52-32.497,6.394-42.663,20.573
	c-9.873,13.771-18.056,28.753-26.981,43.204C138.89,125.682,139.339,126.202,139.788,126.721z"/>
</svg>
