<?xml version="1.0" encoding="iso-8859-1"?>
<!-- Generator: Adobe Illustrator 19.0.0, SVG Export Plug-In . SVG Version: 6.00 Build 0)  -->
<svg version="1.1" id="Layer_1" xmlns="http://www.w3.org/2000/svg" xmlns:xlink="http://www.w3.org/1999/xlink" x="0px" y="0px"
	 viewBox="0 0 2000 2000" style="enable-background:new 0 0 2000 2000;" xml:space="preserve">
<path d="M1000.391,16.805c537.282-1.048,992.339,438.351,980.934,1004.152c-10.403,516.082-435.44,969.22-1006.001,957.337
	C460.837,1967.58,7.631,1543.167,20.113,972.141C31.477,452.229,456.2,18.16,1000.391,16.805z M1271.503,1332.517
	c67.23,0.715,124.215-14.966,177.064-46.165c138.647-81.847,202.024-250.703,144.568-402.786
	c-46.391-122.795-136.619-196.557-267.543-217.122c-77.748-12.212-151.587,1.833-218.33,43.029
	c-108.328,66.863-163.038,165.596-164.666,292.929c-0.398,31.168-7.639,60.285-20.551,87.947
	c-41.812,89.577-136.131,141.547-235.999,123.961c-85.26-15.013-144.124-66.281-171.809-148.723
	c-29.207-86.976-1.327-178.659,69.723-238.046c39.603-33.102,86.285-49.266,137.513-49.954c32.175-0.432,62.966,8.223,93.414,19.382
	c12.589,4.614,29.559,3.892,42.483-0.477c23.089-7.805,35.438-27.065,35.661-51.706c0.228-25.194-11.858-43.766-35.285-54.01
	c-76.302-33.366-154.591-37.438-233.919-13.303c-173.902,52.91-282.182,242.926-218.274,426.553
	c44.264,127.182,135.484,203.16,269.388,224.774c78.242,12.629,152.548-1.74,219.667-43.361
	c108.723-67.419,162.416-166.867,164.296-294.712c0.744-50.577,17.81-95.82,50.872-133.806
	c50.699-58.25,114.663-84.858,192.537-77.136c54.662,5.42,100.654,28.513,136.763,68.564
	c86.503,95.948,77.377,232.756-20.278,317.906c-40.235,35.083-88.474,51.209-141.309,51.532c-31.105,0.19-61.456-6.815-90.17-19.714
	c-4.977-2.236-10.64-3.752-16.069-4.044c-31.114-1.673-56.039,17.066-62.624,46.553c-5.728,25.65,9.698,53.508,36.649,65.045
	C1187.402,1323.659,1231.23,1333.751,1271.503,1332.517z M1279.092,905.735c-54.247,0.002-95.594,40.522-93.218,95.43
	c2.252,52.017,33.252,86.985,91.582,88.685c46.346,1.351,94.646-35.274,93.08-93.585
	C1369.17,945.406,1342.674,908.203,1279.092,905.735z M720.155,1089.651c53.865,2.885,95.085-41.624,95.497-90.805
	c0.462-55.246-37.629-92.303-90.95-93.321c-52.28-0.998-95.629,40.756-94.186,91.528
	C632.067,1051.605,659.772,1086.397,720.155,1089.651z"/>
</svg>
