<?xml version="1.0" encoding="utf-8"?>
<!-- Generator: Adobe Illustrator 26.2.1, SVG Export Plug-In . SVG Version: 6.00 Build 0)  -->
<svg version="1.1" id="titan" xmlns="http://www.w3.org/2000/svg" xmlns:xlink="http://www.w3.org/1999/xlink" x="0px" y="0px"
	 viewBox="0 0 500 500" style="enable-background:new 0 0 500 500;" xml:space="preserve">
<path d="M457.5,114.4c-18.5,0.3-44.1,2-75.3,6.9c-32.1-33.2-77.2-53.9-127-53.9c-97.6,0-176.8,79.2-176.8,176.8
	c0,0.9,0.1,1.8,0.1,2.6C53.8,264.7,33,282,16.5,297c-27.7,25.1-11,71.2,26.4,72.7c20.9,0.8,47.3-1.1,80.4-7.8
	c32.4,36.3,79.5,59.1,131.9,59.1c97.6,0,176.8-79.2,176.8-176.8c0-4.2-0.2-8.3-0.5-12.5c31.9-22,50.3-41.1,60.4-57.1
	C508.5,148.3,488.7,113.9,457.5,114.4z M56.6,323.4c0,0,11.7-10.2,30.3-24.8c2.5,7.6,5.4,15,8.8,22.2
	C70,324.3,56.6,323.4,56.6,323.4z M255.2,114.2c25,0,48.3,7.1,68.1,19.3c-31.6,8-66.7,19.1-104.3,34.7
	c-33.1,13.7-63.2,29.4-90.2,45.6C142.5,156.6,193.9,114.2,255.2,114.2z M127.4,268.2C159.9,245,199.2,219.9,235,205
	c38-15.7,87.1-26.1,128.5-32.8c7.8,11.7,13.7,24.7,17.4,38.6c-12.7,7.7-27.5,16.1-44.9,25.1C326,225.5,311.9,219,296.3,219
	c-30.6,0-55.3,24.8-55.3,55.3c0,1.8,0.1,3.5,0.3,5.2c0,0,0,0,0,0c-38.2,15.4-70.8,25.4-97.5,31.9
	C135.9,298.3,130.3,283.7,127.4,268.2z M288.5,300.6c-32.1-8.6-20.9-59.4,12.1-53.3c36,5.3,25.6,62-10.2,53.8 M255.2,374.3
	c-29.3,0-56.3-9.7-78-26c25.4-7.6,53.8-17.5,85.3-30.2c0,0,0,0,0,0c9.3,7.2,21.1,11.5,33.8,11.5c29.3,0,53.2-22.8,55.2-51.5
	c0,0,0,0,0,0c11.8-5.9,22.7-11.6,32.7-17.2C376,324.9,321.4,374.3,255.2,374.3z M421.4,183.8c-2.3-6.3-5-12.4-8-18.4
	c20.1-2.3,33-3.3,33-3.3S439.6,170.1,421.4,183.8z"/>
</svg>
