<?xml version="1.0" encoding="iso-8859-1"?>
<!-- Generator: Adobe Illustrator 19.0.0, SVG Export Plug-In . SVG Version: 6.00 Build 0)  -->
<svg version="1.1" id="Layer_1" xmlns="http://www.w3.org/2000/svg" xmlns:xlink="http://www.w3.org/1999/xlink" x="0px" y="0px"
	 viewBox="0 0 500 500" enable-background="new 0 0 500 500" xml:space="preserve">
<path d="M249.509,494.355c-22.879,0-45.76-0.147-68.638,0.033c-39.569,0.311-74.713-12.795-106.536-35.406
	c-21.129-15.013-36.393-35.194-48.796-57.798c-8.347-15.211-13.804-31.428-17.558-48.168c-2.011-8.965-2.772-18.373-2.823-27.588
	C4.89,276.81,5.085,228.191,5.004,179.573c-0.061-36.827,10.868-70.169,31.549-100.435c20.409-29.868,47.933-50.342,81.698-63.259
	c20.153-7.709,40.638-11.899,62.131-11.87c48.21,0.064,96.42-0.099,144.63,0.074c23.135,0.083,45.127,5.904,66.208,15.081
	c17.836,7.765,33.863,18.596,48.413,31.392c12.533,11.021,22.345,24.564,30.902,38.748c10.565,17.512,17.924,36.565,22.014,56.641
	c1.758,8.63,2.626,17.585,2.667,26.399c0.24,51.477,0.513,102.961-0.077,154.432c-0.249,21.717-5.547,42.688-14.518,62.635
	c-8.15,18.122-18.841,34.663-32.005,49.399c-11.908,13.33-26.472,23.701-41.964,32.548c-16.379,9.353-33.931,16.035-52.365,19.939
	c-8.606,1.823-17.536,2.778-26.336,2.903c-26.142,0.37-52.294,0.133-78.441,0.133C249.509,494.339,249.509,494.347,249.509,494.355z
	 M410.506,158.369c-3.448,3.742-6.737,6.841-9.477,10.368c-10.65,13.708-21.132,27.546-31.664,41.345
	c-23.511,30.805-47.015,61.615-70.519,92.425c-5.389,7.064-11.03,13.96-16.009,21.303c-1.906,2.811-2.867,6.611-3.135,10.048
	c-0.151,1.94,1.981,4.058,3.055,6.041c11.146,0,21.717,0,33.431,0c16.012-20.883,32.381-42.231,49.162-64.117
	c16.324,21.543,32.31,42.638,48.488,63.987c11.138,0,22.504,0,33.609,0c5.25-7.544,5.225-10.005-0.51-17.277
	c-13.272-16.828-26.698-33.535-39.928-50.396c-6.677-8.51-13.065-17.247-19.639-25.956c1.629-1.842,3.058-3.292,4.3-4.888
	c14.634-18.816,29.278-37.624,43.822-56.51c3.183-4.133,6.235-8.411,8.891-12.893c3.508-5.923,3.093-7.241-2.512-13.48
	C431.779,158.369,421.575,158.369,410.506,158.369z M105.898,164.508c0,57.318,0,113.246,0,169.398
	c1.892,2.019,3.824,4.081,6.11,6.52c9.916-2.008,20.786,3.102,30.435-3.742c0-16.619,0-32.529,0-48.44
	c0-15.928-0.109-31.857,0.031-47.783c0.138-15.771-0.62-31.572,0.51-47.715c17.894,0,34.996,0,52.107,0
	c2.144-2.271,4.087-4.329,5.904-6.253c0-7.251,0-14.192,0-21.479c-1.312-2.087-2.755-4.382-4.135-6.575c-28.691,0-56.847,0-85.319,0
	C109.695,160.423,107.771,162.493,105.898,164.508z M259.716,334.549c0-58.772,0-115.497,0-172.709
	c-1.065-0.979-2.259-2.076-3.591-3.3c-8.959,0-17.887,0-27.181,0c-1.79,1.984-3.683,4.081-5.474,6.066c0,55.393,0,110.504,0,166.652
	c1.648,2.509,3.78,5.752,5.552,8.449c8.994,0,16.741,0,25.86,0C256.206,338.294,258.143,336.228,259.716,334.549z M282.305,167.63
	c13.481,17.512,26.93,34.982,40.059,52.036c11.351,0,21.869,0,32.841,0c1.637-2.775,3.236-5.485,5.25-8.899
	c-13.163-17.467-26.416-35.053-39.208-52.027c-12.126,0-22.999,0-34.095,0C285.51,161.751,284.023,164.479,282.305,167.63z
	 M90.754,161.624c-2.038-1.364-3.344-2.99-4.679-3.014c-11.341-0.204-22.687-0.117-34.712-0.117
	c-4.63,10.333-1.25,20.505-2.4,30.292c2.911,1.637,5.33,2.998,7.093,3.989c9.847,0,18.829,0,28.185,0
	c2.051-1.336,4.341-2.827,6.512-4.241C90.754,179.506,90.754,170.958,90.754,161.624z"/>
</svg>
