<?xml version="1.0" encoding="iso-8859-1"?>
<!-- Generator: Adobe Illustrator 19.0.0, SVG Export Plug-In . SVG Version: 6.00 Build 0)  -->
<svg version="1.1" id="Layer_1" xmlns="http://www.w3.org/2000/svg" xmlns:xlink="http://www.w3.org/1999/xlink" x="0px" y="0px"
	 viewBox="0 0 500 500" style="enable-background:new 0 0 500 500;" xml:space="preserve">
<path d="M295.609,170.277c42.481,0,85.753,0,129.026,0c0.344,0.553,0.688,1.106,1.032,1.658
	c-7.608,8.189-15.217,16.379-22.919,24.669c-6.011,0.266-11.761,0.521-17.97,0.796c0,16.356,0,31.921,0,49.669
	c24.799-26.3,48.547-51.485,71.961-76.316c12.179,0,23.732,0,37.263,0c-37.282,39.818-73.285,78.268-109.704,117.164
	c0,14.539,0,29.321,0,44.928c-9.613,0-18.612,0-28.8,0c0-44.82,0-89.674,0-135.192c-13.275,0-25.398,0-37.869,0
	c24.157,62.195,12.176,113.964-45.796,150.073c-38.032,23.689-90.949,19.358-125.306-8.972
	c-46.405-38.265-55.038-86.046-31.532-141.184c-12.646,0-24.777,0-38.111,0c0,45.164,0,90.018,0,135.485c-10.22,0-19.251,0-29.167,0
	c0-44.9,0-89.571,0-135.282c-6.471-0.458-12.166-0.861-18.626-1.318C21.775,188.56,14.114,180.291,5,170.452
	c45.424,0,88.624,0,130.865,0C183.873,127.032,251.412,129.826,295.609,170.277z M215.044,333.731
	c45.696,0.965,84.506-35.858,85.551-81.17c1.064-46.141-35.794-83.823-83.271-85.134c-46.058-1.272-86.136,36.452-86.121,82.439
	C131.217,296.811,168.65,332.952,215.044,333.731z M440.178,259.311c-7.288,7.812-13.292,14.248-19.786,21.209
	c13.674,18.007,26.945,35.483,39.934,52.589c11.417,0,22.125,0,34.828,0C476.393,307.925,458.626,284.075,440.178,259.311z
	 M215.931,192.776c30.552-1.834,58.716,26.934,58.478,58.489c-0.224,29.717-27.411,58.484-58.827,57.479
	c-32.595-1.042-57.543-25.586-57.918-58.244C157.277,216.86,187.387,191.015,215.931,192.776z M187.998,250.958
	c0.138,15.755,12.691,28.369,28.052,28.19c15.76-0.184,28.089-12.569,28.102-28.231c0.013-16.216-12.499-28.753-28.56-28.617
	C200.116,222.43,187.86,235.16,187.998,250.958z"/>
</svg>
