<?xml version="1.0" encoding="iso-8859-1"?>
<!-- Generator: Adobe Illustrator 19.0.0, SVG Export Plug-In . SVG Version: 6.00 Build 0)  -->
<svg version="1.1" id="Layer_1" xmlns="http://www.w3.org/2000/svg" xmlns:xlink="http://www.w3.org/1999/xlink" x="0px" y="0px"
	 viewBox="0 0 500 500" enable-background="new 0 0 500 500" xml:space="preserve">
<path d="M308.032,213.117c-0.558,6.589-1.301,11.356-1.312,16.124c-0.092,41.26-0.111,82.521-0.031,123.781
	c0.053,27.232,11.103,41.765,37.352,49.213c17.358,4.925,34.882,5.779,52.571,1.664c4.298-1,8.709-1.516,13.054-2.252
	c1.502,2.253,2.949,3.689,3.537,5.418c6.847,20.135,13.507,40.333,20.345,60.471c2.454,7.226-1.886,10.593-7.451,12.159
	c-17.588,4.95-35.087,11.508-53.06,13.531c-40.516,4.559-78.991-4.003-113.811-25.652c-36.457-22.667-53.817-57.044-54.138-99.007
	c-0.78-101.856-0.194-203.722-0.391-305.583c-0.016-8.091,3.441-12.321,10.442-15.329c23.677-10.172,47.261-20.563,70.795-31.063
	c7.797-3.479,15.334-7.539,23.513-11.592c0,41.338,0,81.84,0,123.516c44.469,0,88.114,0,132.437,0c0,28.329,0,55.853,0,84.601
	C397.731,213.117,353.506,213.117,308.032,213.117z M137.457,136.974c-16.783-19.846-43.948-20.448-61.867-1.619
	c-22.784,23.94-23.139,61.253-0.818,85.758c18.087,19.856,46.016,19.391,63.188-1.315c9.798-11.815,14.8-25.474,13.891-41.025
	C152.786,162.873,147.602,148.972,137.457,136.974z"/>
</svg>
