<?xml version="1.0" encoding="utf-8"?>
<!-- Generator: Adobe Illustrator 24.1.0, SVG Export Plug-In . SVG Version: 6.00 Build 0)  -->
<svg version="1.1" id="TKN" xmlns="http://www.w3.org/2000/svg" xmlns:xlink="http://www.w3.org/1999/xlink" x="0px" y="0px"
	 viewBox="0 0 500 500" style="enable-background:new 0 0 500 500;" xml:space="preserve">
<path d="M147.3,223.6c0-60.4,0.1-120.7-0.1-181.1c0-9,3.6-14.6,11.1-18.5c12.6-6.6,25.3-13.1,37.7-20.1c7.3-4.1,14.2-3.8,21.1,0.3
	c37.4,22.1,74.8,44.3,112.1,66.4c6,3.6,12,7.3,18.1,10.8c6.4,3.6,9.4,9,9.4,16.1c0,118.4,0,236.7,0,355.1c0,7.9-3.8,13.3-10.4,17
	c-14.2,8-28.6,15.8-42.5,24.3c-8,4.9-14.8,4.6-22.8,0c-34.5-20.2-69.2-40-103.8-59.9c-6.5-3.7-12.9-7.5-19.5-11.2
	c-7.1-4-10.7-9.4-10.7-18.1C147.4,344.4,147.3,284,147.3,223.6z M291.6,303.7c0-54.2-0.1-108.4,0.1-162.6c0-8.3-3.1-14-10-17.9
	c-36-20.7-72.1-41.4-108.1-62.1c-7.6-4.3-10.7-2.3-10.7,6.6c0,110.8,0,221.6-0.1,332.3c0,4.5,1.4,7.2,5.4,9.5
	c37.3,21.3,74.6,42.7,111.8,64.2c9,5.2,11.6,3.8,11.6-6.6C291.6,412.6,291.6,358.1,291.6,303.7z"/>
<path d="M170.5,400.1c-0.2-3-0.5-5.2-0.5-7.4c0-104.4,0-208.8,0-313.2c0-8.2,2.4-9.5,9.7-5.3c32,18.3,64,36.7,96,55
	c6.1,3.5,8.8,8.5,8.8,15.5c-0.1,62-0.1,124,0,185.9c0,3.9-0.9,6.4-4.6,8.4c-34.8,19.6-69.5,39.3-104.3,59
	C174.5,398.7,173,399.1,170.5,400.1z"/>
</svg>
