<?xml version="1.0" encoding="iso-8859-1"?>
<!-- Generator: Adobe Illustrator 19.0.0, SVG Export Plug-In . SVG Version: 6.00 Build 0)  -->
<svg version="1.1" id="Layer_1" xmlns="http://www.w3.org/2000/svg" xmlns:xlink="http://www.w3.org/1999/xlink" x="0px" y="0px"
	 viewBox="0 0 2000 2000" style="enable-background:new 0 0 2000 2000;" xml:space="preserve">
<path d="M647.054,757.482c-21.796-0.971-39.644-0.844-57.269-2.763c-28.1-3.059-46.47-21.641-44.864-43.593
	c1.478-20.197,18.783-35.943,45.146-38.096c19.534-1.595,39.303-0.314,62.909-0.314c2.941-19.25,6.225-34.964,7.623-50.845
	c8.718-99.061,18.048-198.085,25.156-297.267c6.972-97.279,40.776-181.035,119.316-241.806
	c95.756-74.092,202.701-89.189,314.115-44.185c113.991,46.044,178.865,134.112,192.149,256.666
	c11.607,107.085,19.417,214.58,29.086,321.878c1.462,16.227,3.908,32.365,6.738,55.359c21.033,0,40.334-0.915,59.515,0.213
	c29.141,1.714,48.507,17.529,49.922,38.919c1.513,22.878-19.208,41.122-50.726,43.28c-15.933,1.091-32.002,0.191-52.835,0.191
	c8.035,95.804,15.196,184.578,22.974,273.298c26.346,300.489,52.995,600.95,79.288,901.444
	c3.453,39.461-10.369,55.381-48.922,58.423c-8.236,0.65-16.568,0.082-24.856,0.082c-251.971-0.004-503.941-0.007-755.912-0.015
	c-9.946,0-19.935,0.544-29.831-0.177c-39.397-2.871-52.88-16.977-49.751-57.682c6.73-87.571,15.23-175.006,22.908-262.505
	c24.918-283.978,49.821-567.957,74.618-851.945C645.111,798.176,645.719,780.227,647.054,757.482z M632.714,1903.335
	c249.08,0,490.051,0,735.244,0c-4.658-54.763-9.047-106.367-13.495-158.662c-238.638,0-471.285,0-707.263,0
	C642.339,1797.907,637.734,1848.349,632.714,1903.335z M676.388,1408.655c217.518,0,429.943,0,646.639,0
	c-2.545-55.165-3.416-106.903-15.129-156.558c-208.179,0-411.044,0-617.986,0C685.427,1304.017,681.193,1353.034,676.388,1408.655z
	 M1268.086,758.671c-179.979,0-355.808,0-534.917,0c-4.392,53.511-8.527,103.896-12.903,157.207c189.739,0,373.816,0,561.61,0
	C1277.246,863.095,1272.942,814.025,1268.086,758.671z M876.471,380.729c0,26.36-1.13,52.782,0.301,79.064
	c1.597,29.316,17.742,46.582,40.568,46.799c23.448,0.223,40.275-16.073,41.23-45.996c1.628-51.02,1.637-102.166,0.015-153.186
	c-0.898-28.265-20.117-45.745-42.743-44.334c-20.636,1.287-37.39,18.336-39.053,43.54
	C875.166,331.22,876.437,356.016,876.471,380.729z M1042.579,384.431c-0.029,0-0.058,0-0.086,0c0,24.682-0.893,49.404,0.228,74.035
	c1.37,30.096,15.76,46.662,39.053,47.745c23.827,1.107,40.688-14.779,41.586-44.543c1.537-50.963,1.47-102.027,0.225-153.003
	c-0.703-28.755-18.291-46.268-41.008-45.626c-22.517,0.637-38.4,18.473-39.758,47.358
	C1041.66,335.024,1042.579,359.749,1042.579,384.431z M620.646,200.121c-9.122-9.044-19.704-18.098-31.418-22.819
	C460.359,125.366,331.168,74.228,201.997,23.043c-7.627-3.022-15.735-6.045-23.78-6.56c-19.911-1.274-35.899,6.349-43.446,25.825
	c-7.666,19.784-0.892,36.065,16.181,47.26c9.558,6.267,20.564,10.533,31.277,14.798c101.399,40.37,202.877,80.544,304.33,120.781
	c27.678,10.977,55.934,20.726,82.847,33.337c24.013,11.252,56.223-8.872,59.755-39.39
	C627.286,214.623,625.946,205.375,620.646,200.121z M1829.595,16.228c-9.564-0.139-19.677,2.689-28.713,6.263
	c-129.173,51.096-258.221,102.512-387.232,154.017c-7.638,3.049-15.366,6.631-21.914,11.497
	c-15.979,11.875-25.594,27.56-15.178,47.052c9.948,18.617,25.455,30.746,48.749,24.976c6.379-1.58,12.464-4.408,18.613-6.843
	c73.801-29.224,147.622-58.401,221.37-87.757c55.316-22.019,110.402-44.624,165.867-66.258c21.68-8.457,37.721-20.332,38.342-43.489
	C1868.107,33.921,1850.604,16.532,1829.595,16.228z M565.135,512.584c-35.689,13.057-70.327,29.004-105.33,43.913
	c-95.845,40.822-191.745,81.519-287.408,122.766c-35.267,15.206-47.064,34.762-37.692,58.857
	c10.122,26.024,34.552,31.601,71.577,16.295c3.056-1.263,5.961-2.891,9.007-4.18c94.443-39.96,188.912-79.86,283.337-119.863
	c30.461-12.905,60.929-25.807,91.171-39.215c19.119-8.477,33.839-20.917,33.903-42.841
	C621.746,519.839,593.859,502.074,565.135,512.584z M1382.466,533.559c-11.316,15.391-4.968,32.721,8.614,44.323
	c9.751,8.329,22.439,13.648,34.455,18.83c103.269,44.534,206.653,88.8,310.074,132.977c25.846,11.04,51.502,22.807,78.078,31.774
	c23.141,7.808,45.67-3.223,53.162-23.669c8.239-22.482-2.112-38.501-20.384-50.363c-6.848-4.446-14.911-7.06-22.506-10.309
	c-124.686-53.323-249.372-106.645-374.11-159.845c-9.078-3.872-18.557-6.802-33.324-12.154
	C1406.122,513.506,1391.402,521.406,1382.466,533.559z M1638.818,425.897c43.183-0.299,66.453-15.488,65.635-42.399
	c-0.756-24.851-23.394-39.925-63.231-40.21c-69.241-0.495-138.489-0.247-207.733,0.001c-9.799,0.035-20.154,0.135-29.27,3.162
	c-18.474,6.135-32.011,18.564-31.159,39.571c0.839,20.721,14.719,32.661,33.561,37.798c9.308,2.537,19.573,2.016,29.41,2.077
	c34.621,0.215,69.244,0.084,103.867,0.065C1572.87,425.943,1605.846,426.126,1638.818,425.897z M460.605,425.809
	c39.56,0,79.149,0.932,118.67-0.31c28.897-0.908,48.547-17.566,49.653-38.475c1.174-22.186-20.291-40.792-50.535-43.612
	c-4.908-0.458-9.883-0.272-14.827-0.273c-67.582-0.011-135.166-0.273-202.744,0.24c-12.953,0.098-28.267-0.422-38.188,5.996
	c-11.043,7.144-24.358,22.387-23.611,33.203c0.93,13.476,13.131,28.512,24.496,38.093c7.341,6.189,21.893,4.879,33.243,5.06
	c34.606,0.553,69.227,0.201,103.842,0.201C460.605,425.89,460.605,425.849,460.605,425.809z"/>
</svg>
