<?xml version="1.0" encoding="iso-8859-1"?>
<!-- Generator: Adobe Illustrator 19.0.0, SVG Export Plug-In . SVG Version: 6.00 Build 0)  -->
<svg version="1.1" id="Layer_1" xmlns="http://www.w3.org/2000/svg" xmlns:xlink="http://www.w3.org/1999/xlink" x="0px" y="0px"
	 viewBox="0 0 500 500" enable-background="new 0 0 500 500" xml:space="preserve">
<path d="M253.957,414.985C186.06,375.78,118.514,336.777,50.775,297.664c0-64.812,0-129.306,0-195.21
	C118.099,69.823,185.98,36.922,253.904,4c67.67,32.787,135.209,65.511,202.999,98.356c0,65.05,0,129.498,0,195.377
	C390.208,336.266,322.712,375.262,253.957,414.985z M210.855,190.462c-17.129-24.562-18.951-49.275-3.191-73.468
	c13.93-21.384,30.474-41.065,47.776-64.036c15.827,19.858,29.948,36.275,42.597,53.757c18.36,25.374,24.465,52.058,4.583,80.789
	c44.117-23.463,88.234-46.927,133.237-70.862c-61.542-29.816-121.603-58.916-181.917-88.137
	c-60.295,29.213-120.451,58.358-181.98,88.169C119.28,141.812,165.067,166.137,210.855,190.462z M72.705,128.771
	c0,53.318,0,104.466,0,156.196c58.401,33.69,116.624,67.278,176.182,101.635c0-39.478,0.005-76.205-0.039-112.932
	c-0.001-0.637-0.583-1.273-1.336-2.812c-1.287,2.027-2.272,3.588-3.267,5.144c-15.248,23.838-36.229,33.635-63.967,28.089
	c-32.781-6.555-59.871-24.594-83.867-42.506c10.751-9.353,21.919-17.702,31.431-27.635c18.559-19.38,36.478-39.173,66.687-40.414
	C154.395,172.199,114.26,150.863,72.705,128.771z M414.418,263.255c-22.588,11.898-45.881,25.083-70.008,36.506
	c-12.989,6.15-27.157,8.611-42.208,5.204c-19.427-4.397-31.835-16.945-42.651-33.779c0,38.968,0,76.374,0,115.165
	c59.431-34.33,117.589-67.924,175.514-101.384c0-52.079,0-103.168,0-156.119c-41.064,21.813-81.02,43.037-122.665,65.158
	c6.297,0.999,10.241,1.561,14.161,2.257c24.411,4.336,39.04,22.452,55.245,38.656C391.253,244.367,401.978,252.538,414.418,263.255z
	 M255.192,459.027c-67.981-39.21-135.746-78.296-204.447-117.921c0,5.009,0,8.436,0,11.971
	c68.585,39.595,136.691,78.915,204.457,118.037c68.046-39.294,135.179-78.061,202.177-116.749c0-4.016,0-7.155,0-11.987
	C388.914,381.878,322.089,420.432,255.192,459.027z M255.151,448.25c67.342-38.857,134.486-77.6,201.872-116.483
	c0-3.56,0-6.952,0-12.014c-68.007,39.229-134.754,77.731-201.82,116.418c-68.184-39.322-135.971-78.415-204.725-118.066
	c0,4.66,0,7.816,0,11.968C118.886,369.571,186.744,408.752,255.151,448.25z M255.182,493.925
	c67.567-39,134.99-77.917,202.57-116.925c-0.306-3.878-0.543-6.88-0.902-11.428c-67.915,39.15-134.644,77.615-201.674,116.255
	c-68.107-39.267-135.861-78.33-204.68-118.007c0,4.863,0,8.015,0,11.971C118.937,415.291,186.778,454.446,255.182,493.925z"/>
</svg>
