<?xml version="1.0" encoding="iso-8859-1"?>
<!-- Generator: Adobe Illustrator 19.0.0, SVG Export Plug-In . SVG Version: 6.00 Build 0)  -->
<svg version="1.1" id="Layer_1" xmlns="http://www.w3.org/2000/svg" xmlns:xlink="http://www.w3.org/1999/xlink" x="0px" y="0px"
	 viewBox="0 0 500 500" style="enable-background:new 0 0 500 500;" xml:space="preserve">
<path d="M460,370.134c-69.743,40.234-139.467,80.456-209.48,120.846c-70.262-40.552-139.961-80.779-209.676-121.015
	c0-80.594,0-160.49,0-241.791C110.285,88.049,180.326,47.576,250.51,7.02C320.563,47.455,390.283,87.699,460,127.94
	C460,209.045,460,289.322,460,370.134z M104.567,164.738c48.637-28.072,97.166-56.082,145.985-84.259
	c49.037,28.311,97.509,56.296,145.92,84.246c0,51.881,0,102.541,0,153.522c12.288,6.952,24.221,13.703,37.205,21.049
	c0-67.269,0-131.645,0-196.323C372.509,107.67,311.703,72.575,250.51,37.258c-61.185,35.329-121.972,70.428-182.76,105.528
	c0,65.12,0,129.733,0,196.421c13.263-7.585,24.96-14.274,36.816-21.054C104.567,266.826,104.567,216.163,104.567,164.738z
	 M250.599,152.569c28.735,16.646,56.416,32.682,83.867,48.584c0,28.03,0,54.629,0,81.243c11.74,6.681,23.072,13.13,35.672,20.3
	c0-42.419,0-82.685,0-123.623c-40.007-23.093-79.959-46.153-119.623-69.048c-40.664,23.495-80.3,46.397-119.424,69.002
	c0,41.352,0,81.527,0,123.608c12.676-7.238,24.006-13.707,35.893-20.494c0-27.233,0-54.187,0-81.345
	C194.975,184.651,222.393,168.837,250.599,152.569z M250.507,264.163c-56.488,32.628-112.549,65.011-170.12,98.265
	c13.55,7.862,25.309,14.685,37.238,21.606c44.454-25.649,88.527-51.077,132.9-76.679c44.58,25.712,88.668,51.14,133.073,76.75
	c12.1-7.151,23.934-14.144,36.969-21.847C362.786,328.928,306.838,296.655,250.507,264.163z M179.994,420.148
	c24.019-13.821,47.299-27.216,70.552-40.596c24.042,13.779,47.383,27.156,70.781,40.566c11.967-7.078,23.405-13.843,36.233-21.431
	c-36.92-21.303-71.732-41.39-107.034-61.759c-35.232,20.357-70.232,40.58-107.051,61.854
	C156.66,406.496,167.982,413.12,179.994,420.148z M250.445,234.077c18.723,10.624,37.437,21.243,57.4,32.571
	c0-18.066,0-33.793,0-50.269c-18.822-10.946-37.632-21.886-57.139-33.231c-18.738,10.788-37.51,21.596-56.204,32.359
	c0,16.825,0,32.868,0,50.689C213.918,255.048,231.971,244.684,250.445,234.077z M206.743,435.431
	c15.844,9.116,29.768,17.127,43.963,25.294c14.478-8.423,28.325-16.479,43.592-25.36c-15.83-9.137-29.792-17.196-43.759-25.258
	C236.381,418.294,222.685,426.213,206.743,435.431z"/>
</svg>
