<?xml version="1.0" encoding="iso-8859-1"?>
<!-- Generator: Adobe Illustrator 19.0.0, SVG Export Plug-In . SVG Version: 6.00 Build 0)  -->
<svg version="1.1" id="Layer_1" xmlns="http://www.w3.org/2000/svg" xmlns:xlink="http://www.w3.org/1999/xlink" x="0px" y="0px"
	 viewBox="0 0 500 500" style="enable-background:new 0 0 500 500;" xml:space="preserve">
<path d="M13.722,186.646c2.257-8.447,4.528-16.89,6.764-25.343c0.726-2.745,1.358-5.514,2.14-8.711c16.584,0,33.091,0,50.532,0
	c-2.838,12.395-5.655,24.692-8.587,37.498c-17.163,0-34.006,0-50.848,0C13.722,188.942,13.722,187.794,13.722,186.646z
	 M330.542,159.333c-8.551,36.719-17.104,73.438-25.61,110.168c-5.542,23.931-10.948,47.894-16.576,71.805
	c-0.78,3.313-1.09,6.149,1.643,8.592c0.554,0.169,1.088,0.475,1.622,0.474c31.258-0.077,62.524,0.187,93.771-0.446
	c14.027-0.285,27.812-3.454,40.861-8.879c17.937-7.457,31.817-19.121,38.19-38.225c0.339-1.015,1.077-1.897,1.888-3.281
	c4.25,0,8.475,0,13.036,0c1.849-6.673,3.57-12.881,5.519-19.911c-6.229,0-11.859,0-17.62,0c-1.688-8.834-3.603-17.209-10.718-22.365
	c-6.487-4.701-13.764-8.311-20.485-12.279c6.398-3.245,13.18-5.825,18.95-9.853c5.753-4.017,10.492-9.486,16.836-15.4
	c3.202,0,8.001,0,13.328,0c1.755-6.549,3.394-12.665,5.077-18.949c-5.462-1.324-10.471,0.631-15.132-1.555
	c-0.062-21.017-11.303-33.502-29.983-40.632c-9.195-3.51-18.769-5.821-28.406-6.009c-27.782-0.542-55.582-0.191-84.3-0.191
	C331.725,154.977,331.053,157.137,330.542,159.333z M353.506,264.727c14.884-0.572,29.435-1.064,43.812,1.546
	c8.667,1.573,15.675,5.984,17.008,15.68c1.305,9.496-1.737,17.591-9.657,23.255c-6.387,4.567-13.786,6.604-21.545,7.789
	c-13.359,2.04-26.684,0.54-41.145,1.228C345.974,297.071,349.693,281.103,353.506,264.727z M404.679,189.576
	c7.052,1.448,13.696,3.648,15.177,11.681c1.613,8.751-0.89,16.494-8.265,22.058c-4.651,3.509-10.09,5.859-15.786,6.114
	c-11.069,0.496-22.175,0.145-34.171,0.145c3.113-13.548,6.141-26.728,9.481-41.264C382.55,188.978,393.624,187.306,404.679,189.576z
	 M103.051,296.668c4.135-17.81,8.051-35.672,12.316-53.45c4.236-17.66,7.524-35.571,12.598-52.752
	c20.469,0,39.969-0.002,59.47,0.017c0.243,0,0.505,0.237,0.724,0.407c0.211,0.164,0.377,0.384,0.763,0.79
	c-3.668,15.687-7.384,31.526-11.073,47.372c-8.097,34.779-16.198,69.556-24.221,104.352c-0.476,2.064-0.286,4.282-0.418,6.647
	c15.776,0,30.851,0,46.4,0c15.21-65.81,30.517-131.3,45.581-197.521c-54.038,0-106.975,0-160.406,0
	c-0.721,2.682-1.538,5.377-2.166,8.116c-4.787,20.884-9.464,41.794-14.312,62.664c-9.439,40.624-18.978,81.225-28.413,121.85
	c-0.351,1.51-0.045,3.173-0.045,4.969c17.118,0,33.656,0,50.655,0C94.721,332.17,98.927,314.429,103.051,296.668z M282.272,319.47
	c4.978-21.425,9.829-42.881,14.953-64.272c0.94-3.924,0.285-7.212-1.261-10.743c-12.384-28.296-24.658-56.641-37.015-84.949
	c-0.566-1.297-1.609-2.386-2.928-4.292c-5.629,23.91-11,46.688-16.349,69.47c-0.945,4.026-0.562,7.799,1.28,11.67
	c3.193,6.708,5.893,13.652,8.805,20.494c9.937,23.346,19.877,46.69,30.199,70.937C280.908,324.391,281.695,321.955,282.272,319.47z"
	/>
</svg>
