<?xml version="1.0" encoding="iso-8859-1"?>
<!-- Generator: Adobe Illustrator 19.0.0, SVG Export Plug-In . SVG Version: 6.00 Build 0)  -->
<svg version="1.1" id="Layer_1" xmlns="http://www.w3.org/2000/svg" xmlns:xlink="http://www.w3.org/1999/xlink" x="0px" y="0px"
	 viewBox="0 0 500 500" enable-background="new 0 0 500 500" xml:space="preserve">
<path d="M241.315,117.332c-34.876,57.372-69.289,113.982-104.503,171.91c34.762,0,68.318,0,102.177,0
	c14.525,25.48,28.675,50.301,43.401,76.132c-92.637,0-184.101,0-277.138,0C69.009,256.655,132.158,148.973,196.063,40
	C211.486,66.357,226.276,91.632,241.315,117.332z M164.431,277.838c30.95,0,60.124,0,89.56,0
	c16.347-29.119,32.586-58.046,49.651-88.444c33.871,59.879,66.874,118.225,99.809,176.449c29.547,0,59.328,0,90.128,0
	C430.152,257.234,367.4,149.781,303.776,40.834C256.878,120.6,210.916,198.774,164.431,277.838z M303.685,223.174
	c-15.224,25.783-29.627,50.175-44.125,74.728c17.203,28.845,34.191,57.33,51.928,87.07c-69.282,0-137.033,0-205.007,0
	c-14.896,25.276-29.5,50.059-44.752,75.939c127.139,0,252.589,0,379.577,0C395.263,381.372,349.833,302.893,303.685,223.174z"/>
</svg>
