<?xml version="1.0" encoding="iso-8859-1"?>
<!-- Generator: Adobe Illustrator 19.0.0, SVG Export Plug-In . SVG Version: 6.00 Build 0)  -->
<svg version="1.1" id="Layer_1" xmlns="http://www.w3.org/2000/svg" xmlns:xlink="http://www.w3.org/1999/xlink" x="0px" y="0px"
	 viewBox="0 0 2000 2000" style="enable-background:new 0 0 2000 2000;" xml:space="preserve">
<path d="M22.398,994.374C18.772,472.988,449.059,35.809,970.093,19.823c552.98-16.966,1010.697,425.913,1010.578,975.342
	c-0.119,552.675-440.589,975.873-963.934,982.684C446.242,1985.276,10.904,1515.547,22.398,994.374z M123.611,995.567
	c-3.86,465.727,365.741,873.87,866.371,878.861c495.25,4.938,886.314-378.525,886.723-881.777
	c0.374-461.759-362.041-871.419-883.976-871.804C493.626,120.48,121.711,528.07,123.611,995.567z M1822.707,1000.084
	c7.45,434.93-359.772,835.802-842.702,823.766c-440.031-10.967-816.669-377.541-803.351-848.002
	c12.367-436.851,381.34-803.782,836.205-798.833C1455.007,181.827,1830.225,557.109,1822.707,1000.084z M1355.429,1326.348
	c-14.005,10.348-25.898,18.001-36.504,27.146c-126.918,109.433-273.801,148.864-435.104,107.531
	c-217.104-55.632-363.11-237.543-360.137-472.939c2.534-200.655,131.586-371.95,321.399-439.131
	c12.1-4.283,23.491-10.569,35.971-16.27c0-62.73,0-122.832,0-186.661c-111.567,13.96-205.808,60.046-290.742,125.086
	c-131.581,100.76-215.216,234.351-245.846,396.57c-67.256,356.184,137.079,679.024,476.36,778.046
	c303.317,88.525,606.13-75.678,693.163-230.219C1461.622,1386.06,1409.245,1356.608,1355.429,1326.348z M1108.704,346.559
	c0,48.123,1.757,94.156-0.56,139.983c-1.832,36.233,15.13,52.992,47.04,64.925c52.65,19.689,104.708,41.796,147.27,80.352
	c10.917,9.889,20.393,21.369,33.285,35.038c-156.066,97.383-313.113,183.58-466.641,280.28
	c40.198,67.258,77.161,129.104,116.083,194.227c82.041-48.899,157.997-95.719,235.457-139.906
	c77.77-44.363,152.379-94.694,234.528-134.773c17.855,45.797,21.691,87.354,19.96,129.246c-1.763,42.668-6.143,85.228-9.428,127.833
	c19.479,21.73,128.242,83.087,161.686,91.213c58.69-106.811,65.54-366.742-56.984-567.3
	C1452.038,453.933,1223.244,344.26,1108.704,346.559z"/>
</svg>
