<?xml version="1.0" encoding="iso-8859-1"?>
<!-- Generator: Adobe Illustrator 19.0.0, SVG Export Plug-In . SVG Version: 6.00 Build 0)  -->
<svg version="1.1" id="Layer_1" xmlns="http://www.w3.org/2000/svg" xmlns:xlink="http://www.w3.org/1999/xlink" x="0px" y="0px"
	 viewBox="0 0 500 500" enable-background="new 0 0 500 500" xml:space="preserve">
<path d="M6.887,70.826c162.636-27.762,324.605-27.764,487.797-0.03c-5.115,35.498-10.174,70.604-15.233,105.711
	c-0.443,0.171-0.886,0.341-1.328,0.512c-5.675-11.874-11.351-23.747-17.282-36.156c-138.022-20.838-276.1-21.134-415.289-0.831
	c-7.024,11.998-14.342,24.501-21.661,37.003c-0.517,0.011-1.034,0.021-1.551,0.032C17.225,141.904,12.111,106.74,6.887,70.826z
	 M361.845,216.087c-74.986-5.211-148.677-5.266-223.397,0.041c1.974,30.175,3.914,59.838,5.896,90.149
	c70.998-4.879,140.969-4.853,211.821,0.015C358.107,275.468,359.961,246.021,361.845,216.087z M298.263,451.622
	c0.835-26.412,1.658-52.429,2.515-79.504c-34.131-1.698-67.524-1.945-101.419,0.124c0.899,27.218,1.758,53.239,2.622,79.38
	C234.392,451.622,266.013,451.622,298.263,451.622z"/>
</svg>
