<?xml version="1.0" encoding="iso-8859-1"?>
<!-- Generator: Adobe Illustrator 19.0.0, SVG Export Plug-In . SVG Version: 6.00 Build 0)  -->
<svg version="1.1" id="Layer_1" xmlns="http://www.w3.org/2000/svg" xmlns:xlink="http://www.w3.org/1999/xlink" x="0px" y="0px"
	 viewBox="0 0 2000 2000" style="enable-background:new 0 0 2000 2000;" xml:space="preserve">
<path d="M1981.03,997.589c3.933,540.313-444.457,983.49-986.285,979.943c-530.962-3.476-977.898-439.606-973.893-989.654
	c3.871-531.722,444.1-977.693,992.19-971.352C1546.643,22.699,1984.917,460.588,1981.03,997.589z M629.024,1715.156
	c-9.169,24.662-18.344,49.322-27.505,73.987c-11.426,30.761-0.839,58.297,27.523,71.62c31.321,14.713,61.735,7.2,76.753-21.846
	c13.06-25.259,22.788-52.242,35.099-81.063c-12.407-5.396-22.737-9.888-33.39-14.522c-14.277,31.067-26.968,58.686-41.216,89.689
	c-12.522-4.294-21.908-7.513-35.793-12.274c13.228-33.652,25.002-63.605,38.392-97.667c-16.087-2.632-28.569-4.675-41.052-6.717
	c-10.718-10.142-21.435-20.284-32.096-30.372c-23.493,7.989-43.656,14.846-66.513,22.619c10.563-15.895,18.991-28.576,28.931-43.534
	c-11.641-6.594-20.852-11.812-32.917-18.646c-24.398,39.042-47.955,76.74-72.62,116.211c12.354,7.208,21.514,12.552,31.211,18.209
	c10.18-14.505,18.978-27.041,29.728-42.359c1.919,25.469,3.476,46.125,4.943,65.599c14.174,7.989,25.097,14.146,40.007,22.55
	c-3.469-31.629-6.392-58.288-9.534-86.935C576.924,1731.133,602.974,1723.145,629.024,1715.156z M1706.064,1523.567
	c28.634,0,57.268,0,85.131,0c6.548-10.494,11.672-18.705,18.24-29.231c-37.644-27.285-73.854-53.531-111.745-80.996
	c-7.48,11.628-13.268,20.624-19.906,30.944c18.876,14.591,36.217,27.996,53.558,41.4c-0.81,1.418-1.621,2.836-2.431,4.254
	c-26.345-2.281-52.69-4.562-79.747-6.905c-8.035,9.546-15.636,18.575-24.882,29.56c38.554,27.896,74.81,54.129,113.348,82.014
	c7.903-12.403,13.45-21.106,18.926-29.7c-18.21-15.394-33.963-28.711-49.716-42.028L1706.064,1523.567z M1766.289,998.77
	c-2.497-425.692-338.2-764.297-761.428-766.159c-427.982-1.883-768.023,339.853-767.73,765.593
	c0.288,418.724,334.55,762.633,763.792,763.146C1426.655,1761.86,1762.519,1420.364,1766.289,998.77z M996.714,1803.315
	c18.968,46.644,36.187,88.988,54.155,133.173c14.597-0.958,28.171-1.85,41.266-2.71c4.196-26.825,7.744-49.506,11.947-76.376
	c11.542,25.925,21.64,48.603,32.503,73.003c13.624-3.335,25.027-6.126,37.561-9.194c8.584-46.333,18.165-90.992,20.68-140.92
	c-15.675,3.539-26.947,6.085-37.982,8.576c-5.968,24.94,2.141,49.85-10.197,74.649c-10.408-26.766-19.495-50.136-28.806-74.082
	c-13.724,3.049-25.271,5.615-38.645,8.586c-3.968,25.984-7.962,52.134-12.795,83.783c-11.294-30.379-20.352-54.744-29.18-78.488
	C1024.417,1803.315,1014.66,1803.315,996.714,1803.315z M1103.156,196.876c15.884,0,28.69,0,41.501,0
	c15.738-39.076,30.783-76.429,47.058-116.839c-15.777-1.856-27.131-3.192-39.009-4.589c-7.858,24.279-14.536,44.911-23.771,73.444
	c-3.462-19.051-5.424-30.709-7.731-42.298c-2.294-11.523-4.933-22.978-7.211-33.489c-13.764-2.489-24.393-4.412-37.003-6.693
	c-9.819,23.434-19.236,45.909-31.47,75.106c-4.905-30.732-8.496-53.235-12.394-77.659c-12.074-1.949-23.375-3.774-39.968-6.452
	c9.947,47.406,18.788,89.538,27.821,132.591c15.71,0,27.494,0,39.724,0c8.266-19.125,16.238-37.569,27.032-62.542
	C1093.707,154.337,1098.139,174.288,1103.156,196.876z M798.481,1915.252c49.86-13.901,60.722-25.322,61.338-67.442
	c-21.949-5.355-44.67-10.898-68.226-16.645c-3.209,10.217-5.396,17.181-8.017,25.526c11.466,4.746,21.033,8.705,32.479,13.442
	c-22.498,9.665-36.155,7.318-44.719-6.079c-10.276-16.077-4.809-34.527,16.798-54.973c6.945,0,14.598,0,23.728,0
	c13.585,17.993,30.968,29.185,55.576,24.416c-9.935-42.322-37.568-64.843-74.207-61.838c-33.393,2.738-60.949,28.392-64.726,61
	C723.22,1878.289,750.768,1908.39,798.481,1915.252z M493.924,1648.032c-12.84-54.35-37.431-76.108-81.587-72.184
	c-32.432,2.882-62.47,36.382-63.087,70.359c-0.594,32.74,27.439,66.204,59.245,69.647
	C442.393,1719.525,480.942,1710.716,493.924,1648.032z M1573.122,1589.01c-39.741,0.128-72.528,32.242-72.281,70.796
	c0.24,37.523,34.627,69.741,74.017,69.349c39.26-0.391,69.795-30.798,69.467-69.177
	C1643.975,1619.181,1613.573,1588.879,1573.122,1589.01z M1697.811,574.244c35.501-27.513,67.295-52.152,101.57-78.714
	c-9.663-10.542-16.662-18.178-24.177-26.377c-17.963,12.931-33.718,24.273-54.094,38.941c9.104-29.892,16.599-54.5,24.585-80.721
	c-6.453-7.791-13.295-16.052-19.804-23.912c-30.207,14.166-84.873,56.862-99.499,77.82c6.603,7.672,13.486,15.668,20.802,24.169
	c17.992-13.885,33.99-26.23,53.853-41.559c-8.632,29.433-15.921,54.286-23.432,79.895
	C1684.06,553.507,1690.026,562.504,1697.811,574.244z M799.307,132.41c11.385-4.708,22.717-9.394,34.727-14.36
	c-24.482-34.853-74.636-34.073-105.691-7.404c-25.122,21.575-27.778,60.472-7.049,87.232c19.167,24.743,64.488,30.17,93.697,11.22
	c28.25-18.328,34.992-45.681,17.856-77.818c-22.239,6.365-44.82,12.829-68.367,19.568c2.637,9.65,4.299,15.73,6.163,22.549
	c10.739-0.474,20.176-0.89,32.45-1.432c-25.037,21.436-25.556,21.447-52.362,3.324c-6.216-14.826-9.517-29.371,4.835-42.161
	C769.589,120.633,784.11,124.864,799.307,132.41z M1633.537,335.231c-17.292-52.105-50.463-78.192-88.918-69.932
	c-30.271,6.502-54.351,38.632-50.638,68.493c4.306,34.625,39.24,74.363,92.429,63.63
	C1620.91,379.256,1622.947,376.568,1633.537,335.231z M407.89,297.912c-39.225-0.532-75.958,33.876-76.417,71.581
	c-0.419,34.363,27.847,62.273,63.19,62.395c40.576,0.14,74.689-33.345,74.346-72.977C468.723,326.001,441.03,298.362,407.89,297.912
	z M959.933,1797.186c-17.217,0-29.045,0-40.825,0c-18.786,43.537-36.938,85.603-56.389,130.679c15.129,0,26.794,0,38.31,0
	c4.765-6.379,9.203-12.318,14.006-18.748c12.611,2.016,24.445,3.909,35.076,5.609c5.037,7.784,9.117,14.088,13.065,20.191
	c6.583,1.187,11.933,2.504,17.359,3.026c4.987,0.479,10.057,0.102,18.95,0.102C986.017,1888.897,978.014,1841.894,959.933,1797.186z
	 M1228.549,1767.132c0,48.939,0,94.894,0,144.587c12.74-4.383,22.633-7.786,31.218-10.74c2.526-9.58,4.412-16.73,6.34-24.042
	c12.664-3.996,24.156-7.622,35.85-11.312c6.859,6.219,13.123,11.898,20.589,18.667c11.191-5.275,21.502-10.136,32.788-15.455
	c-29.526-39.71-57.061-76.742-85.297-114.717C1256.341,1758.416,1244.083,1762.26,1228.549,1767.132z M1518.582,1727.014
	c-13.209,11.497-25.507,19.256-33.852,30.065c-18.373,23.798-17.756,24.487-54.442,13.171c-3.425-12.13-7.655-27.112-11.708-41.467
	c10.027-8.369,16.692-13.932,23.225-19.385c21.848,1.438,42.857,2.191,52.686-22.527c-54.644-30.839-98.037-7.842-113.633,58.733
	c16.409,54.103,48.814,79.217,87.915,68.136C1508.917,1802.363,1530.801,1768.439,1518.582,1727.014z M496.865,212.625
	c-1.355,20.844-2.431,37.409-3.887,59.804c-11.824-15.27-19.736-25.487-29.303-37.842c-9.944,6.865-19.168,13.234-29.352,20.265
	c24.597,36.235,47.156,69.466,70.65,104.077c11.314-8.76,19.535-15.125,28.098-21.755c-8.472-13.751-15.088-24.49-23.243-37.727
	c22.848,5.479,42.578,10.211,62.339,14.949c10.029-10.027,24.248-11.954,29.873-26.604c-24.889-6.912-47.866-13.294-71.107-19.748
	c-7.813-25.784,12.185-51.164,0.611-79.32C518.356,197.811,507.721,205.142,496.865,212.625z M936.439,170.895
	c6.78,7.25,13.184,14.097,19.596,20.953c6.32-0.446,11.906-0.271,17.222-1.383c4.951-1.035,9.614-3.442,16.541-6.049
	c-20.525-41.27-39.891-80.211-60.019-120.683c-15.223,3.365-27.786,6.142-41.335,9.137c-11.108,41.726-21.916,82.324-33.116,124.396
	c14.111,0,24.813,0,35.43,0c3.303-6.747,6.096-12.453,9.562-19.532C911.874,175.547,923.655,173.315,936.439,170.895z
	 M1302.267,246.155c-3.13-47.499-5.937-90.107-8.834-134.077c-12.817-4.594-24.931-8.936-39.32-14.093
	c-27.262,34.802-54.133,69.106-83.925,107.138c15.305,4.419,25.37,7.324,34.998,10.104c7.46-5.539,13.584-10.086,19.388-14.395
	c12.966,4.463,25.215,8.679,35.086,12.076c2.957,9.51,4.895,15.744,6.958,22.379
	C1276.443,238.283,1285.731,241.114,1302.267,246.155z M559.646,174.418c12.837,26.577,22.558,49.965,35.068,71.751
	c14.464,25.186,37.929,31.608,65.398,20.825c28.991-11.38,48.081-36.893,40.24-60.188c-9.281-27.574-23.186-53.592-36.059-82.464
	c-13.059,7.395-21.955,12.433-31.461,17.815c12.118,28.147,22.838,53.048,34.857,80.967c-10.399,6.569-18.865,11.918-31.335,19.795
	c-8.915-16.965-16.039-30.049-22.715-43.359c-6.8-13.559-13.159-27.34-20.327-42.311
	C581.414,163.317,571.862,168.188,559.646,174.418z M1432.032,213.35c20.579,1.798,31.186,8.378,37.932,21.244
	c7.697,14.682,20.219,21.989,36.385,24.864c4.182-46.974-14.055-67.004-68.268-79.428c-33.826,1.919-54.497,17.293-63.627,47.523
	c-0.819,43.509,8.893,63.968,40.929,78.131c23.956,10.591,48.375,12.195,70.859-7.255c-16.323-17.847-35.745-22.447-60.059-20.569
	c-6.918-9.61-14.174-19.689-22.905-31.816C1414.374,233.429,1423.406,223.159,1432.032,213.35z M1836.259,1064.31
	c17.293-8.112,31.465-14.759,43.76-20.526c14.677,7.309,27.109,13.5,42.23,21.029c-1.216-19.326-2.221-35.302-3.092-49.154
	c11.068-12.357,20.108-22.449,32.196-35.945c-18.31-2.061-30.189-3.398-43.967-4.949c-8.448-12.831-17.225-26.162-27.249-41.386
	c-10.694,15.676-20.164,29.558-28.021,41.075c-15.618,2.101-26.987,3.631-42.858,5.766c12.31,14.187,21.402,24.665,31.435,36.228
	C1839.364,1030.801,1837.988,1045.65,1836.259,1064.31z M129.573,931.938c-11.425,17.056-20.933,31.248-28.529,42.588
	c-16.042,2.32-27.33,3.952-43.309,6.262c13.137,14.326,22.553,24.594,32.513,35.456c-1.606,15.05-3.192,29.915-5.188,48.614
	c17.815-8.332,32.113-15.019,44.144-20.647c14.945,7.023,27.219,12.791,42.349,19.902c-1.517-19.316-2.698-34.356-3.77-48.017
	c10.601-11.623,19.853-21.767,32.207-35.314c-18.235-2.839-30.896-4.81-45.674-7.111
	C146.879,961.128,139.16,948.108,129.573,931.938z M343.729,1512.023c-26.989,22.911-52.733,44.765-79.616,67.587
	c8.338,10.246,14.997,18.428,22.674,27.861c28.768-22.87,55.981-44.504,86.762-68.974c6.44,10.703,11.578,19.242,17.421,28.953
	c10.375-8.339,16.86-13.551,24.689-19.843c-23.571-27.985-45.897-54.492-69.354-82.341c-8.206,7.063-13.669,11.766-20.152,17.347
	C331.943,1492.303,336.879,1500.561,343.729,1512.023z M365.975,489.124c-24.881-21.504-47.985-41.472-71.762-62.021
	c6.48-10.322,12.076-19.236,18.414-29.331c-7.371-5.584-12.922-9.79-19.724-14.943c-23.59,28.256-48.364,52.685-67.283,82.981
	c7.875,5.728,12.936,9.41,18.645,13.562c9.085-8.249,16.912-15.356,24.923-22.63c25.405,20.577,49.15,39.811,74.895,60.663
	C351.967,507.22,358.362,498.958,365.975,489.124z M1688.503,1646.171c9.311-10.597,16.741-19.055,25.16-28.637
	c-34.519-31.286-67.024-60.746-100.743-91.306c-9.35,10.348-16.441,18.194-24.717,27.353
	C1621.467,1584.287,1653.022,1613.417,1688.503,1646.171z M1586.222,438.967c6.116,7.852,12.524,16.079,20.755,26.648
	c34.009-33.039,62.85-61.058,94.466-91.773c-10.08-10.182-17.533-17.71-25.625-25.884
	C1644.413,379.858,1616.104,408.614,1586.222,438.967z M1240.774,411.539c9.561,8.533,19.122,17.065,30.781,27.471
	c41.131-7.738,74.587,13.184,103.768,39.131c17.003-2.656,31.449-4.913,49.523-7.736c1.502,15.571,2.597,26.933,3.968,41.145
	c-21.684,0-39.853,0-59.026,0c-4.958,19.986-2.917,36.105,11.048,50.11c7.019,7.039,12.622,15.502,19.726,22.44
	c20.841,20.353,40.153,41.14,42.4,72.626c0.519,7.275,5.152,14.645,9.136,21.216c16.589,27.356,26.447,55.396,18.276,88.374
	c-3.725,15.034,1.304,21.071,20.401,41.271c-5.862,18.654-11.833,38.609-18.408,58.363c-11.403,34.26-14.104,68.642-8.659,104.746
	c3.932,26.074,1.755,53.076,2.218,79.665c0.436,25.02,5.43,48.252,25.619,67.584c16.755-8.551,33.17-16.929,49.321-25.171
	c18.243,13.156,25.15,29.794,25.288,49.717c0.161,23.289-0.536,46.607,0.421,69.86c0.524,12.735,3.692,25.362,5.907,39.573
	c34.154,10.432,65.592,20.034,96.835,29.577c-3.102,61.019-122.496,231.565-233.696,304.245c-2.105-0.583-4.729-0.557-6.238-1.842
	c-44.533-37.929-97.042-61.378-150.34-83.578c-39.872-16.608-79.237-34.435-119.119-51.018
	c-57.84-24.05-111.242-54.661-154.782-103.663c-18.93,15.595-38.761,16.502-62.062,12.877
	c-41.438-6.446-83.718-7.648-125.692-10.326c-8.265-0.527-16.737,2.188-29.923,4.109c6.358,15.204,11.319,26.797,16.07,38.476
	c16.258,39.966-1.917,74.37-46.122,85.326c-4.207-36.967-8.4-73.811-13.068-114.828c-12.39,8.745-21.299,14.666-29.808,21.114
	c-19.436,14.731-38.584,29.112-63.562,34.534c-11.346,2.463-22.03,10.335-31.735,17.488c-17.738,13.075-33.323,29.054-55.958,34.599
	c-5.819,1.426-10.809,7.233-15.615,11.642c-33.543,30.773-81.932,28.087-116.457-8.899c8.605-4.916,16.161-10.823,24.734-13.88
	c77.345-27.582,152.23-59.724,219.88-107.484c22.381-15.8,48.141-26.814,72.807-40.262c11.399-23.547,22.25-47.697,34.604-71.053
	c16.238-30.697,39.334-53.13,75.794-58.145c7.567-1.041,14.839-4.374,22.187-6.828c22.266-7.437,43.362-7.557,62.566,8.517
	c3.968,3.321,9.417,4.874,15.43,7.861c7.235-26.271-2.005-47.436-13.733-67.472c-3.562-6.085-11.221-12.689-17.765-13.602
	c-26.997-3.767-39.303-22.588-48.147-43.259c-15.259-8.06-28.871-15.25-44.375-23.439c-0.903-14.226-1.795-28.279-2.908-45.815
	c-26.25,0-53.123,0-82.516,0c-7.488-24.295-14.212-46.114-20.837-67.61c25.572-36.999,51.33-72.738,75.415-109.572
	c21.181-32.393,40.803-65.828,60.37-99.238c4.108-7.015,4.974-15.928,8.362-27.472c6.236-3.396,15.638-8.517,26.857-14.627
	c-5.55-13.111-10.614-25.077-17.971-42.458c13.783,5.963,24.005,10.385,37.845,16.373c47.308-23.426,98.884-34.104,155.615-10.203
	c-9.684,5.937-17.464,10.706-32.634,20.005c56.535,5.92,105.119,11.008,153.703,16.096c0.412,1.567,0.824,3.133,1.236,4.7
	c-25.16,10.013-50.32,20.026-83.484,33.224c25.464,10.633,44.014,18.379,66.732,27.866c-14.769,5.35-26.729,9.683-38.69,14.016
	c0.266,1.796,0.533,3.591,0.799,5.387c28.087,5.041,56.174,10.082,92.151,16.539c-25.482,5.575-43.469,9.511-66.516,14.553
	c14.944,13.074,26.207,22.928,38.56,33.735c-4.821,5.202-9.041,9.755-14.72,15.883c25.325,28.33,54.696,52.034,82.641,77.333
	c2.516-1.48,5.033-2.96,7.549-4.44c-3.015-14.65-5.568-29.414-9.158-43.921c-5.023-20.301-12.141-40.163-15.986-60.659
	c-6.273-33.442,11.776-67.182,42.72-81.975c31.221,12.342,44.761,43.125,65.051,67.126c41.734-43.527,31.033-105.224-25.386-131.628
	c-3.885-19.387-7.891-40.941-12.572-62.347c-5.889-26.935-17.287-49.99-45.937-61.418c-6.072,4.818-11.783,9.351-18.618,14.775
	c-2.586-13.475-4.842-25.226-7.566-39.415c-12.759,0-24.688-0.251-36.603,0.038c-167.384,4.059-334.75,9.576-502.158,11.571
	c-60.232,0.718-120.564-6.993-180.85-10.857c-0.012-2.718-0.025-5.437-0.037-8.155c236.94-16.939,473.879-33.879,711.903-50.896
	c-2.379-18.659-4.271-33.493-6.163-48.327L1240.774,411.539z M961.278,1086.579c28.331-42.876,38.548-88.112,33.537-136.434
	c-3.097-29.865-28.125-45.453-57.937-36.655c-34.945,10.313-67.157,26.607-94.761,49.565
	C844.388,1002.313,891.411,1051.163,961.278,1086.579z M940.051,1273.271c-20.837-27.526-42.024-42.316-70.992-36.648
	c-29.702,5.812-43.192,29.466-57.677,61.198C856.385,1289.234,895.53,1281.765,940.051,1273.271z M1276.564,793.771
	c11.215,7.746,11.215,7.746,18.263-4.353C1287.102,791.26,1281.833,792.516,1276.564,793.771z M1313.553,779.799
	c0.349,3.102,0.698,6.203,1.047,9.305c5.3-1.655,10.6-3.311,15.9-4.966c-0.367-1.81-0.735-3.619-1.102-5.429
	C1324.116,779.073,1318.835,779.436,1313.553,779.799z M1241.393,410.899c-0.822-0.175-1.643-0.35-2.465-0.525
	c0.615,0.389,1.23,0.777,1.845,1.166L1241.393,410.899z M1706.839,1522.879c-1.647-1.071-3.295-2.143-1.311-0.852
	c-0.597-1.718-0.031-0.089,0.535,1.54L1706.839,1522.879z M393.171,1667.296c3.41,2.973,7.113,7.209,11.714,9.924
	c4.517,2.665,9.947,3.783,13.943,5.21c33.876-15.943,36.852-20.56,33.854-53.444c-7.169-5.849-15.506-12.651-24.451-19.95
	C389.632,1624.197,385.503,1631.482,393.171,1667.296z M1571.339,1622.187c-18.06,4.341-30.021,13.832-33.477,32.195
	c3.908,23.297,17.199,37.075,42.583,41.373c7.947-5.889,16.531-12.251,24.223-17.951
	C1612.206,1643.391,1595.069,1630.635,1571.339,1622.187z M1536.658,349.728c3.531,5.579,7.433,10.924,8.628,12.663
	c40.642,1.76,49.17-7.369,46.672-45.892c-8.091-6.077-17.449-13.106-24.94-18.733c-25.473,3.002-35.384,16.624-38.017,38.414
	C1531.318,340.316,1533.767,345.162,1536.658,349.728z M434.766,364.854c-5.666-18.946-16.264-32.634-41.214-33.559
	c-7.068,5.412-15.538,11.898-23.129,17.71c0,12.08,0,21.773,0,30.298C401.241,407.205,417.015,403.457,434.766,364.854z
	 M946.856,1880.722c-2.983-10.573-5.493-19.471-9.618-34.095c-5.553,14.805-8.868,23.643-12.788,34.095
	C932.809,1880.722,939.003,1880.722,946.856,1880.722z M1261.344,1806.034c1.673,16.871,2.588,26.098,3.634,36.638
	c7.029-0.651,12.228-1.132,23.287-2.156C1278.342,1827.806,1272.048,1819.744,1261.344,1806.034z M907.806,145.224
	c8.378-0.87,13.288-1.38,20.271-2.105c-3.85-8.747-6.918-15.718-12.836-29.167C911.908,127.967,910.17,135.28,907.806,145.224z
	 M1240.712,175.62c7.139,2.063,12.514,3.617,19.334,5.588c0-10.362,0-17.764,0-33.573
	C1251.264,160.347,1246.592,167.109,1240.712,175.62z"/>
</svg>
