<?xml version="1.0" encoding="iso-8859-1"?>
<!-- Generator: Adobe Illustrator 19.0.0, SVG Export Plug-In . SVG Version: 6.00 Build 0)  -->
<svg version="1.1" id="Layer_1" xmlns="http://www.w3.org/2000/svg" xmlns:xlink="http://www.w3.org/1999/xlink" x="0px" y="0px"
	 viewBox="0 0 2000 2000" style="enable-background:new 0 0 2000 2000;" xml:space="preserve">
<path d="M994.68,22.243c57.057,68.962,113.997,138.021,171.213,206.85c33.89,40.769,68.214,81.176,105.569,125.58
	c-79.304,67.489-158.034,134.489-240.359,204.548c-24.703-29.178-48.523-57.312-73.699-87.049
	c33.179-53.975,65.447-106.468,101.658-165.375c-76.112-48.527-151.795-96.78-231.399-147.534
	c40.672-34.447,79.342-66.624,117.277-99.644c13.07-11.377,24.31-24.857,36.386-37.377C985.778,22.243,990.229,22.243,994.68,22.243
	z M1976.12,963.624c-40.225-46.783-80.451-93.566-121.873-141.741c-52.279,80.15-102.899,157.755-154.489,236.849
	c-58.548-37.917-114.009-73.835-170.498-110.419c-27.747,23.566-54.198,46.032-81.109,68.888
	c69.345,81.729,135.925,160.198,204.19,240.654c61.776-52.498,121.304-104.048,181.919-154.286
	c46.577-38.603,94.522-75.554,141.859-113.24C1976.12,981.427,1976.12,972.526,1976.12,963.624z M1402.82,1889.772
	c34.143-66.663,65.6-128.081,99.543-194.354c-93.143-14.928-180.453-28.922-269.949-43.266
	c10.351-66.967,19.916-128.848,29.685-192.047c-34.968-17.943-68.059-34.923-102.468-52.579
	c-49.282,95.18-96.896,187.138-145.839,281.663C1143.784,1756.213,1272.684,1822.674,1402.82,1889.772z M1006.513,302.955
	c-131.48-67.669-258.552-133.069-388.303-199.848c-33.567,65.179-65.907,127.976-99.759,193.708
	c92.524,15.041,180.25,29.301,269.625,43.83c-10.117,67.128-19.592,129.996-28.919,191.877
	c35.057,18.013,66.379,34.107,102.268,52.548C910.424,489.794,958.064,397.161,1006.513,302.955z M989.693,1433.927
	c-81.59,69.243-160.316,136.056-240.443,204.057c95.628,113.495,187.427,222.444,281.228,333.771
	c55.637-47.278,107.514-91.36,163.379-138.832c-79.123-49.933-153.725-97.013-232.691-146.847
	c34.43-55.677,67.437-109.052,102.468-165.702C1038.245,1490.691,1014.715,1463.181,989.693,1433.927z M391.787,684.682
	c40.631,56.206,78.059,107.981,115.796,160.184c36.138-12.294,69.24-23.555,105.288-35.818
	c-32.154-100.602-63.586-198.945-95.764-299.619c-138.577,44.27-274.737,87.768-414.59,132.445
	c21.117,67.582,41.353,132.346,63.496,203.211C244.068,789.629,317.508,737.454,391.787,684.682z M1407.214,1182.673
	c33.085,102.972,64.765,201.571,96.599,300.648c138.871-44.594,275.373-88.428,414.84-133.214
	c-21.981-68.694-42.902-134.07-64.706-202.208c-77.129,54.974-149.921,106.855-224.905,160.301
	c-38.796-54.338-75.869-106.265-114.46-160.316C1478.238,1159.66,1443.262,1170.993,1407.214,1182.673z M1460.072,1522.169
	c-16.073-68.248-30.862-131.043-45.839-194.64c-38.172-2.013-72.116-3.803-108.919-5.744
	c-8.604,105.511-16.997,208.442-25.516,312.922c147.232,12.495,290.077,24.618,434.119,36.842
	c5.878-70.917,11.353-136.982,17.297-208.686C1637.134,1483.441,1548.955,1502.728,1460.072,1522.169z M336.008,1701.698
	c72.03,5.062,137.446,9.658,208.279,14.636c-20.674-91.43-40.511-179.159-61.131-270.354
	c68.117-15.772,132.096-30.585,194.924-45.132c2.999-38.667,5.622-72.491,8.428-108.669
	c-105.708-9.048-208.739-17.867-315.082-26.969C359.192,1415.985,347.675,1557.91,336.008,1701.698z M560.328,469.077
	c15.442,65.105,30.811,129.905,46.188,194.737c38.352,2.89,72.123,5.434,108.972,8.211c8.686-107.057,17.037-209.981,25.506-314.362
	c-147.193-12.346-290.026-24.326-433.725-36.379c-6.057,71.905-11.62,137.945-17.614,209.112
	C381.692,509.547,468.935,489.782,560.328,469.077z M1648.674,727.231c12.154-146.408,24.005-289.156,36.073-434.521
	c-72.746-5.957-139.425-11.416-208.633-17.083c20.961,92.568,40.89,180.582,61.39,271.117
	c-67.367,15.768-131.275,30.727-194.097,45.431c-3.287,38.46-6.176,72.256-9.338,109.248
	C1442.479,710.316,1543.853,718.632,1648.674,727.231z M1902.216,604.979c-63.055-32.615-122.171-63.193-185.165-95.776
	c-16.619,94.412-32.227,183.083-48.11,273.319c-68.329-11.403-132.176-22.057-195.468-32.619
	c-16.975,33.083-32.521,63.382-50.028,97.502c93.461,48.173,185.226,95.472,279.269,143.945
	C1770.061,860.922,1835.371,734.437,1902.216,604.979z M351.386,1209.876c67.095,11.16,131.988,21.953,196.701,32.717
	c17.303-34.309,32.52-64.483,49.18-97.52c-94.594-48.508-186.519-95.647-279.762-143.463
	c-67.071,130.243-132.521,257.34-198.858,386.159c62.835,32.476,122.275,63.198,185.061,95.649
	C319.948,1390.242,335.42,1301.479,351.386,1209.876z M656.218,1904.181c66.76-21.284,129.423-41.262,196.551-62.663
	c-54.365-78.26-106.428-153.208-159.197-229.171c55.982-39.514,108.938-76.892,163.344-115.294
	c-11.449-35.134-22.499-69.042-33.707-103.436c-100.836,32.168-197.515,63.01-299.524,95.552
	C568.373,1629.107,611.878,1765.336,656.218,1904.181z M1363.97,88.367c-67.923,21.766-131.132,42.022-196.285,62.9
	c54.611,78.619,106.25,152.959,159.113,229.062c-53.842,38.365-106.874,76.153-162.894,116.07
	c11.164,34.434,21.855,67.406,33.172,102.31c101.672-32.484,199.165-63.633,299.856-95.804
	C1451.707,361.904,1408.33,226.666,1363.97,88.367z M368.627,734.61C256.771,829.32,147.312,922.001,35.164,1016.959
	c44.947,52.852,87.316,102.673,131.399,154.51c52.551-81.012,102.83-158.521,154.131-237.607
	c59.299,37.82,115.802,73.858,172.385,109.946c27.071-22.956,51.432-43.615,79.428-67.356
	C503.207,894.249,436.472,815.087,368.627,734.61z"/>
</svg>
