<?xml version="1.0" encoding="iso-8859-1"?>
<!-- Generator: Adobe Illustrator 19.0.0, SVG Export Plug-In . SVG Version: 6.00 Build 0)  -->
<svg version="1.1" id="Layer_1" xmlns="http://www.w3.org/2000/svg" xmlns:xlink="http://www.w3.org/1999/xlink" x="0px" y="0px"
	 viewBox="0 0 500 500" style="enable-background:new 0 0 500 500;" xml:space="preserve">
<path d="M250.603,487.066c-9.994-0.655-20.039-0.897-29.967-2.097c-7.664-0.927-15.214-2.927-22.757-4.693
	c-4.977-1.166-8.24-7.474-6.757-12.424c2.092-6.982,3.983-8.754,11.189-8.288c6.477,0.419,12.885,1.845,19.34,2.701
	c5.696,0.755,11.4,1.654,17.126,1.916c7.44,0.34,14.959,0.672,22.344-0.036c6.687-0.641,13.409-1.639,20.08-2.562
	c10.822-1.496,21.372-3.84,31.782-6.89c6.648-1.948,13.141-4.482,19.596-7.026c19.054-7.509,36.02-18.475,52.14-31.026
	c10.763-8.38,20.132-18.167,29.151-28.169c8.7-9.647,15.805-20.718,22.579-31.887c9.026-14.883,15.294-30.996,20.121-47.588
	c2.573-8.847,4.648-17.873,5.967-27.152c2.122-14.93,3.437-29.796,2.645-44.81c-0.313-5.939-1.671-11.819-2.446-17.74
	c-0.838-6.409-2.118-12.703-3.523-19.024c-2.698-12.137-6.641-23.791-11.401-35.223c-5.521-13.258-12.269-25.862-20.781-37.42
	c-5.582-7.58-11.539-14.91-17.718-22.012c-3.578-4.112-7.637-7.85-11.468-11.755c-11.128-11.343-23.949-20.424-37.315-28.793
	c-13.184-8.254-27.464-14.225-42.133-19.254c-10.758-3.689-21.813-6.143-32.991-8.317c-5.016-0.976-10.08-0.285-14.802-1.483
	c-8.149-2.068-16.295-1.194-24.443-1.393c-9.718-0.237-19.207,1.966-28.8,2.937c-14.328,1.449-27.645,6.1-41.066,10.621
	c-17.582,5.923-33.214,15.459-48.619,25.658c-15.628,10.346-28.605,23.502-40.969,37.184c-8.673,9.597-15.578,20.782-22.277,31.962
	c-10.424,17.397-17.526,36.122-22.28,55.73c-2.436,10.047-3.776,20.322-5.213,30.591c-1.298,9.279-1.438,18.457-1.059,27.617
	c0.32,7.732,1.599,15.499,2.641,23.226c1.459,10.823,4.136,21.277,6.573,31.839c0.863,3.74-1.468,6.564-4.129,8.811
	c-3.374,2.85-7.127,3.824-11.603,2.275c-3.404-1.178-5.495-3.634-6.164-6.585c-1.702-7.506-4.506-14.742-5.189-22.52
	c-0.405-4.611-1.736-9.141-2.65-13.708c-0.152-0.76-0.453-1.526-0.429-2.281c0.42-13.73-3.275-27.367-1.386-41.062
	c0.921-6.679,1.404-13.421,2.546-20.106c1.132-6.63,2.217-13.27,3.501-19.899c2.266-11.695,6.118-22.899,10.271-33.956
	c6.293-16.754,15.236-32.232,25.161-47.073c4.361-6.52,9.457-12.589,14.599-18.535c6.06-7.008,12.161-14.055,18.902-20.384
	c13.194-12.389,27.629-23.175,43.299-32.381c17.443-10.247,35.906-17.859,55.345-23.203c9.445-2.597,19.093-4.325,28.67-6.324
	c7.254-1.514,14.807,0.476,21.694-2.772c8.654,0.659,17.443-1.631,26.004,1.204c0.728,0.241,1.566,0.243,2.348,0.218
	c9.485-0.312,18.668,1.623,27.983,3.087c10.5,1.65,20.752,4.068,30.704,7.469c21.929,7.492,42.559,17.685,61.687,30.923
	c15.878,10.988,29.783,24.154,42.717,38.303c9.865,10.791,18.515,22.682,25.836,35.366c6.58,11.4,12.491,23.192,17.013,35.609
	c1.934,5.31,4.119,10.548,5.698,15.962c2.085,7.155,3.91,14.404,5.437,21.699c1.759,8.403,2.205,17.04,3.53,25.478
	c1.33,8.467,1.134,16.825,1.298,25.243c0.215,11.05-1.636,21.907-3.034,32.832c-3.805,29.729-14.722,56.944-29.097,82.842
	c-9.8,17.655-22.644,33.141-36.797,47.573c-12.225,12.465-25.562,23.672-40.197,32.973c-11.489,7.302-23.63,13.696-36.481,18.768
	c-10.796,4.261-21.507,8.542-32.793,11.257c-6.501,1.564-13.073,2.839-19.556,4.471c-7.638,1.924-15.555,1.173-23.276,2.875
	c-5.077,1.119-10.602,0.212-15.926,0.212C250.62,486.787,250.612,486.926,250.603,487.066z M74.051,268.844
	c0.952,7.196,1.699,14.469,3.4,21.5c1.197,4.95,2.94,9.886,4.295,14.789c3.276,11.848,8.593,22.817,14.541,33.254
	c9.257,16.245,20.886,30.946,35.012,43.426c11.327,10.008,23.388,18.964,36.963,25.806c13.881,6.996,28.214,12.283,43.537,15.499
	c11.834,2.484,23.674,3.824,35.643,4.377c4.652,0.215,9.359-1.197,14.051-1.276c8.14-0.138,15.989-1.772,23.954-3.214
	c12.854-2.327,24.75-7.103,36.519-12.374c10.451-4.681,19.927-10.914,29.284-17.57c14.394-10.239,26.171-22.988,37.056-36.544
	c5.96-7.423,10.411-16.107,15.16-24.44c4.711-8.266,7.445-17.421,10.898-26.249c2.451-6.266,3.811-12.795,4.976-19.381
	c1.139-6.444-1.924-10.387-8.231-10.624c-1.594-0.06-3.194-0.122-4.787-0.065c-4.947,0.177-6.338,1.209-7.976,5.891
	c-0.591,1.69-1.111,3.406-1.611,5.125c-3.082,10.61-6.145,21.229-11.238,31.109c-7.575,14.696-16.334,28.568-28.489,39.989
	c-5.39,5.064-10.967,9.928-16.452,14.891c-8.226,7.442-17.86,13.003-27.773,17.397c-10.244,4.542-20.704,8.861-32.079,10.926
	c-11.869,2.154-23.741,3.354-35.703,3.981c-3.848,0.202-7.752-1.147-11.653-1.357c-4.452-0.239-8.782-0.566-13.226-1.498
	c-17.892-3.753-34.941-9.547-50.374-19.443c-6.807-4.365-13.536-9-19.638-14.278c-6.653-5.754-12.922-11.999-18.842-18.569
	c-7.049-7.822-12.541-16.777-17.499-25.869c-5.795-10.625-10.347-21.96-13.425-33.795c-3.088-11.876-5.013-23.929-5.484-36.165
	c-0.283-7.351,0.467-14.668,1.238-22.033c1.169-11.168,3.488-21.932,6.66-32.624c4.137-13.948,9.831-27.325,17.961-39.253
	c11.027-16.177,24.356-30.429,41.195-40.938c12.562-7.839,25.835-13.963,40.216-17.852c6.726-1.819,13.327-3.638,20.26-4.771
	c7.985-1.305,15.999-1.895,23.995-2.795c4.988-0.561,9.912,0.947,14.824,1.249c7.336,0.451,14.391,1.729,21.515,3.343
	c16.587,3.759,31.953,10.19,46.309,19.306c11.536,7.325,21.82,16.027,30.879,26.213c2.44,2.743,4.742,5.608,7.105,8.419
	c3.384,4.026,6.591,8.219,10.198,12.034c3.739,3.956,8.704,3.837,13.323,0.162c4.289-3.413,6.064-9.268,3.646-13.255
	c-2.292-3.777-4.664-7.605-7.595-10.877c-9.448-10.548-18.541-21.377-29.798-30.267c-12.959-10.234-26.834-18.458-42.104-24.756
	c-17.91-7.387-36.218-12.082-55.655-12.804c-4.62-0.172-9.304-1.608-14.048-1.168c-2.841,0.264-5.624,1.18-8.465,1.403
	c-5.478,0.429-10.899,0.407-16.428,1.458c-9.408,1.789-18.688,3.746-27.871,6.535c-27.556,8.368-51.005,23.417-71.091,43.7
	c-6.586,6.65-12.308,14.323-17.511,22.136c-7.438,11.169-14.322,22.724-18.458,35.689c-4.076,12.775-8.202,25.432-9.891,38.902
	c-1.205,9.605-1.704,19.245-3.255,28.788C72.69,256.369,73.229,262.625,74.051,268.844z M298.122,210.298
	c7.333-0.064,10.974-3.982,10.875-11.245c-0.073-5.383-3.851-9.476-9.219-9.519c-5.339-0.043-10.62-0.557-16.03-0.374
	c-20.731,0.698-41.5,0.22-62.254,0.307c-2.684,0.011-3.854-0.584-3.742-3.499c0.195-5.048-0.161-10.121,0.113-15.162
	c0.29-5.348-2.192-9.409-6.271-11.908c-2.75-1.685-5.827-3.597-10.074-2.036c-7.84,2.88-9.564,5.508-10.753,14.403
	c-0.664,4.966-0.242,10.101-0.039,15.149c0.104,2.582-0.819,2.449-2.936,2.268c-2.546-0.219-5.164,0.615-7.761,0.714
	c-4.25,0.162-8.516-0.041-12.763,0.167c-4.772,0.233-10.169,5.705-10.013,9.873c0.195,5.212,5.452,10.771,10.48,10.869
	c5.586,0.109,11.176,0.008,16.763,0.03c6.116,0.024,6.139,0.04,6.143,6.524c0.012,19.425-0.304,38.857,0.136,58.272
	c0.216,9.531,1.743,18.825,5.916,27.896c4.895,10.64,11.44,19.41,20.895,26.054c12.849,9.028,27.093,13.999,42.912,13.787
	c2.542-0.034,5.061-1.334,7.608-1.403c14.074-0.383,24.971-8.038,35.928-15.509c3.855-2.629,6.299-6.95,5.743-11.247
	c-1.381-10.684-12.822-15.196-21.842-9.116c-1.952,1.315-3.829,2.748-5.68,4.204c-9.275,7.299-20.365,9.431-31.197,7.191
	c-13.948-2.884-25.217-10.828-30.634-24.962c-1.185-3.092-2.476-6.41-2.506-9.636c-0.215-22.882-0.054-45.768-0.187-68.651
	c-0.018-3.048,1.18-3.47,3.753-3.451c12.772,0.094,25.545,0.043,38.317,0.043C272.578,210.329,285.351,210.41,298.122,210.298z"/>
</svg>
