<?xml version="1.0" encoding="iso-8859-1"?>
<!-- Generator: Adobe Illustrator 19.0.0, SVG Export Plug-In . SVG Version: 6.00 Build 0)  -->
<svg version="1.1" id="Layer_1" xmlns="http://www.w3.org/2000/svg" xmlns:xlink="http://www.w3.org/1999/xlink" x="0px" y="0px"
	 viewBox="0 0 500 500" style="enable-background:new 0 0 500 500;" xml:space="preserve">
<path d="M249.316,487.777C117.319,488.026,13.013,379.683,11.98,251.643C10.931,121.688,118.998,6.591,260.565,12.197
	c120.028,4.753,232.077,105.612,227.156,247.486C483.452,382.757,381.628,488.373,249.316,487.777z M44.706,250.158
	c0.32,112.539,90.845,203.766,202.396,205.076c116.626,1.369,206.916-92.128,208.085-202.236
	c1.257-118.307-93.286-206.435-201.032-208.18C136.059,42.906,44.996,137.55,44.706,250.158z M250.232,441.981
	C143.273,442.797,57.475,354.529,57.803,249.8C58.139,142.664,145.48,57.831,249.921,57.862
	c105.831,0.032,192.382,85.964,192.22,192.114C441.976,358.113,354.311,442.497,250.232,441.981z M214.964,163.549
	c-18.968,0-37.6,0-56.863,0c-3.354,14.998-6.644,29.707-10.117,45.236c19.433,0,37.69,0,56.755,0
	c-1.89,8.471-3.652,16.276-5.372,24.09c-5.872,26.667-11.999,53.283-17.456,80.035c-2.128,10.431-1.615,20.976,4.022,30.687
	c8.784,15.133,23.347,21.073,39.332,22.082c22.864,1.443,45.859,0.834,68.798,1.037c1.266,0.011,2.538-0.559,3.889-0.879
	c3.563-15.152,7.068-30.062,10.792-45.901c-3.328,0-5.508-0.004-7.688,0.001c-13.501,0.027-27.003,0.163-40.503,0.058
	c-18.562-0.144-24.719-6.911-21.425-25.152c3.297-18.257,7.748-36.306,11.72-54.44c2.282-10.42,4.616-20.828,7.054-31.811
	c21.731,0,42.922,0,64.244,0c3.595-15.249,7.022-29.791,10.688-45.342c-21.808,0-42.792,0-64.246,0
	c3.972-18.319,7.743-35.712,11.571-53.366c-18.235,0-35.669,0-53.385,0C222.813,127.889,218.926,145.547,214.964,163.549z
	 M342.914,235.734c4.293-17.926,8.487-35.314,12.581-52.725c0.39-1.659,0.691-3.668,0.118-5.164
	c-2.052-5.354-4.498-10.557-6.794-15.817c-0.608-0.023-1.216-0.046-1.824-0.069c-4.862,20.231-9.724,40.462-14.722,61.261
	c-21.488,0-42.775,0-64.017,0c-5.956,27.628-11.774,54.616-17.753,82.353c5.363,0,9.195,0,13.09,0
	c5.216-23.795,10.272-46.861,15.309-69.839C300.615,235.734,321.482,235.734,342.914,235.734z M324.19,318.319
	c-0.485,0.062-0.97,0.125-1.455,0.187c-4.72,20.496-9.439,40.992-14.168,61.528c-22.271,0-43.842-0.094-65.411,0.031
	c-16.318,0.094-32.293-1.393-47.054-9.104c-3.765-1.967-7.31-4.354-10.957-6.548c-0.403,0.49-0.806,0.98-1.208,1.47
	c4.74,4.573,9.025,9.777,14.31,13.596c13.337,9.633,28.801,13.428,45.008,13.657c23.389,0.332,46.785,0.094,70.179,0.068
	c1.742-0.002,3.483-0.264,5.607-0.437c4.478-19.401,8.894-38.532,13.306-57.643C329.562,329.386,326.876,323.853,324.19,318.319z
	 M285.397,149.266c5.393,0,9.114,0,12.753,0c4.657-14.306,9.338-28.154-3.568-41.463
	C291.483,121.791,288.502,135.249,285.397,149.266z M142.24,223.285c3.988,3.186,6.777,5.572,9.734,7.727
	c2.326,1.695,4.785,4.261,7.317,4.427c8.465,0.558,16.99,0.211,25.728,0.211c0.932-4.499,1.696-8.184,2.562-12.366
	C172.671,223.285,158.238,223.285,142.24,223.285z"/>
</svg>
