<?xml version="1.0" encoding="iso-8859-1"?>
<!-- Generator: Adobe Illustrator 19.0.0, SVG Export Plug-In . SVG Version: 6.00 Build 0)  -->
<svg version="1.1" id="Layer_1" xmlns="http://www.w3.org/2000/svg" xmlns:xlink="http://www.w3.org/1999/xlink" x="0px" y="0px"
	 viewBox="0 0 500 500" enable-background="new 0 0 500 500" xml:space="preserve">
<path d="M248.911,6.05c0,39.584,0,78.614,0,118.299c-5.423,0.992-10.33,2.303-15.314,2.733
	c-29.114,2.51-52.952,15.736-72.584,36.587c-33.208,35.271-42.142,77.435-28.036,122.672c13.82,44.321,45.312,73.258,91.125,82.804
	c34.086,7.102,67.451,2.176,96.848-18.49c8.39-5.898,15.8-13.191,24.443-20.509c29.316,24.594,59.072,49.557,88.789,74.487
	c-51.914,67.609-158.932,110.049-262.456,73.277C47.629,433.83-12.067,310.945,14.032,195.747
	C41.655,73.819,148.614,6.354,248.911,6.05z M436.286,92.342c-9.737-10.005-18.374-18.88-28.11-28.884
	c-26.165,30.926-51.644,60.745-76.981,92.002c5.284,4.542,9.487,8.155,14.419,12.394
	C375.407,143.041,405.193,118.235,436.286,92.342z M493.377,247.386c-0.965-13.446-1.858-25.901-2.872-40.024
	c-39.694,6.999-78.184,13.785-117.319,20.685c0.55,7.186,1.03,13.456,1.481,19.339C415.158,247.386,453.664,247.386,493.377,247.386
	z M461.189,369.601c5.811-12.2,10.977-23.046,16.208-34.029c-0.906-1.388-1.409-3.213-2.443-3.591
	c-35.934-13.145-71.917-26.154-108.445-39.382c-2.65,6.058-4.964,11.347-7.683,17.564
	C393.464,330.276,426.964,349.728,461.189,369.601z"/>
</svg>
