<?xml version="1.0" encoding="iso-8859-1"?>
<!-- Generator: Adobe Illustrator 19.0.0, SVG Export Plug-In . SVG Version: 6.00 Build 0)  -->
<svg version="1.1" id="Layer_1" xmlns="http://www.w3.org/2000/svg" xmlns:xlink="http://www.w3.org/1999/xlink" x="0px" y="0px"
	 viewBox="0 0 2000 2000" style="enable-background:new 0 0 2000 2000;" xml:space="preserve">
<path d="M997.162,1983.288c-532.636-1.11-977.311-431.721-977.019-983.995C20.432,455.244,453.809,17.815,996.359,16.402
	c544.706-1.419,980.601,436.866,981.017,981.87C1977.803,1557.281,1527.873,1985.593,997.162,1983.288z M997.213,1885.565
	c487.215,1.236,883.186-395.079,884.611-884.967c1.429-491.106-398.865-879.353-871.094-885.908
	c-494.359-6.862-895.922,396.23-897.04,882.689C112.575,1482.303,504.523,1886.11,997.213,1885.565z M936.759,710.494
	c54.461-64.244,108.912-128.477,162.307-191.463c0-83.317,0-165.287,0-250.382c-245.902,255.536-489.678,508.863-731.189,759.835
	c0,120.29,0,236.74,0,354.534c121.915-142.875,242.557-284.258,363.199-425.641c1.74,0.744,3.48,1.488,5.219,2.232
	c0,250.927,0,501.855,0,752.782c1.481,0.539,2.962,1.078,4.443,1.617c65.057-73.718,130.113-147.435,196.021-222.117
	C936.759,1231.111,936.759,971.074,936.759,710.494z M1199.375,708.534c-66.017,0-130.735,0-195.993,0
	c0,262.051,0,522.882,0,784.471c65.873,0,130.627,0,195.993,0C1199.375,1230.212,1199.375,969.347,1199.375,708.534z
	 M1133.651,266.332c0,83.506,0,165.567,0,248.454c65.715,0,130.353,0,195.671,0c0-83.028,0-165.142,0-248.454
	C1263.356,266.332,1198.765,266.332,1133.651,266.332z"/>
</svg>
