<?xml version="1.0" encoding="utf-8"?>
<!-- Generator: Adobe Illustrator 25.1.0, SVG Export Plug-In . SVG Version: 6.00 Build 0)  -->
<svg version="1.1" id="TRB" xmlns="http://www.w3.org/2000/svg" xmlns:xlink="http://www.w3.org/1999/xlink" x="0px" y="0px"
	 viewBox="0 0 500 500" style="enable-background:new 0 0 500 500;" xml:space="preserve">
<path d="M250.3,1.3C113.2,1.3,2,112.5,2,249.6s111.2,248.3,248.3,248.3s248.3-111.2,248.3-248.3S387.4,1.3,250.3,1.3z M308.5,269.5
	c-58.8,32.2-120.4,63.3-186.3,77c-0.2-0.5-0.5-1-0.7-1.4c38.8-26.5,81.9-46.2,120.6-73c13.2-9.2,27.4-18.6,36-32.5
	c17.4-35.6-109.5-25.7-128.6-27.9c-0.1-0.4-0.1-0.7-0.2-1.1c52.6-15.7,158.2-35.2,210.1-20C416.5,208.7,329,257,308.5,269.5z"/>
</svg>
