<?xml version="1.0" encoding="iso-8859-1"?>
<!-- Generator: Adobe Illustrator 19.0.0, SVG Export Plug-In . SVG Version: 6.00 Build 0)  -->
<svg version="1.1" id="Layer_1" xmlns="http://www.w3.org/2000/svg" xmlns:xlink="http://www.w3.org/1999/xlink" x="0px" y="0px"
	 viewBox="0 0 2000 2000" style="enable-background:new 0 0 2000 2000;" xml:space="preserve">
<path d="M1248.606,619.136c-35.782,0-69.159,0-104.482,0c-33.253-43.121-78.199-68.875-134.394-71.646
	c-47.249-2.33-88.688,12.764-124.854,44.311c-72.472,63.216-78.03,182.018-8.257,252.959
	c60.098,61.105,182.279,85.414,270.288-21.752c33.662,0,66.983,0,102.282,0c-35.662,86.68-100.268,136.336-187.408,161.292
	c0,138.017,0,275.713,0,413.377c26.514,12.481,53.677,24.278,79.901,37.885c27.13,14.077,47.493,36.672,67.629,59.044
	c19.689,21.875,33.835,47.511,43.438,75.007c9.84,28.174,16.821,56.986,16.683,87.695c-0.136,30.342-3.324,59.788-12.776,88.363
	c-32.602,98.563-131.474,197.513-283.355,183.061c-108.06-10.283-202.103-83.579-231.418-200.022
	c-18.155-72.115-8.439-142.824,32-207.654c39.66-63.581,97.912-101.173,168.071-120.89c0-139.989,0-277.73,0-415.222
	c-155.85-46.744-223.404-171.191-205.163-303.547c15.778-114.487,98.304-207.389,229.926-225.888
	C1082.92,439.177,1195.184,498.65,1248.606,619.136z M827.873,1662.668c-5.434,98.084,87.744,175.94,173.223,175.209
	c90.3-0.773,175.175-76.347,174.859-174.375c-0.327-101.45-84.272-173.083-171.715-175.196
	C913.434,1486.112,822.683,1566.808,827.873,1662.668z M1458.561,666.179c22.614-84.985,70.735-148.042,148.625-185.952
	c54.941-26.74,113.252-34.045,172.888-20.221c125.673,29.133,212.498,143.972,209.892,267.229
	c-2.533,119.776-86.735,233.172-219.488,259.107c-112.732,22.024-265.125-36.986-311.518-205.408c-190.781,0-382.055,0-574.674,0
	c-19.248-38.662-18.362-75.972-1.519-114.756C1074.152,666.179,1264.66,666.179,1458.561,666.179z M1895.37,721.762
	c4.607-91.808-75.637-174.622-174.183-174.598c-94.016,0.023-173.304,79.982-174.124,173.085
	c-0.814,92.441,74.01,178.52,175.236,177.38C1832.718,896.386,1900.147,805.096,1895.37,721.762z M1001.833,196.025
	c232.738,0.221,421.291,97.674,569.487,276.38c36.488-21.1,75.475-35.01,117.161-41.062
	c-8.364-30.611-105.499-134.622-179.503-190.05c-138.877-104.019-295.708-160.3-467.951-169.144
	c-157.876-8.106-307.668,27.57-446.466,104.036c-113.33,62.434-208.498,145.911-284.638,254.682
	c44.668,4.31,83.54,18.307,121.628,39.739C581.812,292.928,769.954,195.805,1001.833,196.025z M543.882,665.204
	c49.678,0,98.556,0,149.952,0c-1.56,20.504-4.107,38.959-4.042,57.405c0.063,17.92,2.804,35.831,4.46,54.788
	c-16.176,5.711-32.536,1.963-48.5,2.609c-17.219,0.696-34.489,0.157-51.736,0.157c-16.28,0-32.56,0-50.483,0
	c-22.981,86.017-72.487,149.536-153.165,186.611c-59.157,27.185-121.158,32.205-182.895,13.543
	C76.086,940.603,7.512,827.018,12.891,714.452c7.045-147.449,109.537-245.082,242.532-259.275
	C370.509,442.895,499.876,507.683,543.882,665.204z M280.946,547.235c-95.301,0.854-175.211,73.656-174.878,175.198
	c0.328,100.181,73.322,174.409,174.664,174.83c101.75,0.423,175.055-78.07,174.926-175.022
	C455.526,624.283,379.482,548.187,280.946,547.235z M714.393,1650.785c0.839-21.179,3.195-42.298,4.869-63.223
	c-245.765-114.655-391.33-304.657-437.066-571.801c-4.29-0.804-8.425-2.372-12.494-2.216c-34.079,1.31-65.991-7.862-97.551-19.251
	c-4.262-1.538-9.232-1.114-14.442-1.658c15.595,165.217,72.407,312.086,172.607,441.843
	c100.544,130.201,227.724,224.243,383.89,281.441C714.206,1693.536,713.546,1672.13,714.393,1650.785z M1289.245,1585.648
	c3.317,21.074,8.299,41.975,9.45,63.085c1.128,20.71-1.639,41.633-2.745,63.411c158.577-55.068,316.63-176.057,419.475-336.98
	c85.637-133.997,129.863-296.636,125.659-383.079c-37.931,14.895-76.632,24.125-120.061,21.011
	C1676.429,1280.4,1531.196,1469.036,1289.245,1585.648z M459.902,491.304c20.012,17.866,40.403,36.069,61.945,55.3
	c123.5-148.78,281.25-232.125,478.742-232.552c198.2-0.428,356.306,83.328,477.448,228.568
	c20.358-20.368,39.739-39.759,59.604-59.634C1250.322,126.299,722.988,153.391,459.902,491.304z M1684.87,1014.952
	c-13.239-2.632-26.754-4.536-39.8-8.134c-12.925-3.564-25.378-8.838-40.127-14.108c-36.742,229.389-161.731,391.336-371.043,488.158
	c14.134,23.741,27.987,47.011,42.543,71.461C1494.045,1465.302,1664.626,1235.787,1684.87,1014.952z M321.494,1043.679
	c10.162,63.599,30.924,123.801,59.662,181.16c43.53,86.884,101.457,162.385,176.894,224.568
	c47.851,39.444,99.002,72.914,155.452,98.339c4.812,2.168,10.486,2.422,13.947,3.172c14.862-25.049,28.195-47.519,41.906-70.629
	c-5.422-2.556-10.007-4.71-14.586-6.876c-92.057-43.543-170.987-103.225-233.305-184.767
	c-54.82-71.732-92.317-150.996-111.79-238.948c-4.184-18.9-7.694-37.95-11.315-55.94c-28.138,8.063-54.134,15.512-82.133,23.535
	C317.932,1025.753,320.053,1034.662,321.494,1043.679z M905.196,1597.666c6.259,13.019,9.861,20.511,13.65,28.391
	c5.776,2.47,11.882,5.082,18.365,7.854c1.905-2.172,4.953-4.074,4.871-5.829c-0.34-7.246-1.629-14.447-2.693-22.619
	c14.908-3.443,30.47-6.136,39.831-22.543c0-6.929,0-15.277,0-27.53c8.026,5.488,13.551,9.265,19.974,13.657
	c-4.441-17.223,15.85-14.8,20.659-25.875c-0.92-3.455-1.902-7.139-3.268-12.266c9.601,1.238,19.505-5.173,26.307,6.654
	c4.781-2.238,9.569-6.11,14.508-6.314c4.577-0.189,9.5,3.203,13.955,5.604c47.736,25.723,73.773,67.358,77.599,119.769
	c4.844,66.349-34.33,129.951-103.769,151.358c-17.409,5.367-37.634,1.091-56.483,2.417c-26.114,1.836-48.992-5.885-70.09-20.609
	c-38.753-27.045-61.761-62.875-64.44-111.086c-1.559-28.057,2.045-54.413,20.376-81.288c0.75,13.89,1.342,24.842,1.92,35.542
	C885.218,1622.204,893.623,1611.88,905.196,1597.666z M960.443,1728.797c3.49,10.198,6.216,18.263,9.054,26.289
	c0.251,0.71,1.233,1.162,1.875,1.733c45.255-0.183,45.255-0.183,64.682,11.058c13.512-4.984,21.103-15.618,26.69-29.726
	c-7.642-12.031-15.209-23.943-23.627-37.197c-2.248,6.066-3.688,9.953-5.89,15.897c-6.702-5.776-12.602-10.862-20.429-17.607
	C996.241,1708.589,978.94,1718.355,960.443,1728.797z M1787.106,736.689c-3.79,7.255-5.474,14.88-10.22,18.754
	c-15.347,12.528-22.394,27.26-16.282,46.017c-17.081,13.097-19.375,42.464-48.944,37.935
	c-11.119-12.547-20.783-26.019-18.505-45.188c0.626-5.271-2.857-11.098-4.722-16.579c-2.413-7.092-5.095-14.093-8.306-22.906
	c-4.873-1.607-11.045-4.513-17.513-5.534c-6.596-1.041-13.485-0.23-20.825-0.23c-5.819-9.915-10.954-18.665-14.306-24.376
	c1.125-26.35,17.104-39.344,33.138-52.718c9.413,0,18.854,0,25.262,0c8.959,5.843,18.051,15.43,21.98,13.647
	c11.618-5.274,21.407,4.744,31.78,0.621c1.512-0.601,2.733-1.935,4.686-3.368c0.225-2.693,0.488-5.843,0.748-8.961
	c-5.466-1.756-9.887-3.176-19.682-6.323c12.726-3.733,20.35-5.969,28.526-8.367c-14.719-20.781-23.715,3.587-34.004,4.023
	c-9.77-4.555-18.395-8.577-27.534-12.838c-9.271,5.481-18.315,10.828-32.187,19.03c2.945-9.574,3.357-14.432,5.844-17.72
	c1.565-2.069,8.078-0.726,9.229-2.724c8.812-15.294,22.685-18.921,38.865-19.452c3.261-0.107,6.83-4.676,9.303-7.916
	c0.935-1.225-0.826-4.508-1.299-6.593c-6.311-1.27-10.427,15.825-17.986-0.314c7.477-4.953,15.174-10.053,22.703-15.04
	c5.291,2.783,9.852,5.183,14.364,7.556c16.329-1.83,21.308-13.114,23.844-26.881c-34.052-12.916-66.639-7.783-98.628,3.552
	c-10.956,3.882-21.798,8.901-27.467,21.201c-2.037,4.42-8.678,7.061-13.636,9.738c-33.429,18.049-54.159,68.63-47.204,107.125
	c2.741,15.172,9.836,26.832,16.803,37.886c0,9.322,0.363,17.093-0.084,24.817c-0.688,11.89,3.751,21.291,11.339,30.298
	c38.502,45.705,89.249,62.721,145.596,52.242c76.966-14.313,131.771-90.589,115.189-165.408
	c-6.088-4.938-12.486-10.128-21.406-17.363c-2.193,14.957-3.923,26.758-6.25,42.632c-4.161-7.058-7.051-10.844-8.782-15.101
	c-5.844-14.367-15.161-21.989-31.7-19.976c-6.997,0.852-14.365-1.337-23.31-2.339c2.745,7.163,4.349,12.335,13.837,9.806
	c3.366-0.897,7.963,2.827,15.357,5.784c-13.802,11.021-24.869,19.857-39.513,31.55
	C1773.715,736.689,1779.637,736.689,1787.106,736.689z M145.652,785.456c28.473,64.01,106.076,100.712,164.241,84.251
	c7.739-22.581,25.892-40.63,27.179-64.183c-7.404-9.967-14.474-18.441-20.371-27.664c-8.948-13.994,3.219-48.666,18.502-53.829
	c2.368-0.8,5.068-0.75,7.623-0.842c9.495-0.343,18.657-0.083,27,5.963c14.224,10.308,28.905,19.987,44.158,30.455
	c-13.107,37.504-38.608,64.63-72.172,85.344c-8.78,5.418-16.319,12.847-28.23,22.403c69.136-11.313,113.837-76.973,116.4-125.952
	c3.928-75.069-33.748-141.688-95.684-156.906c-0.248,2.807-0.488,5.515-0.791,8.935c-13.475-3.793-22.157-18.375-38.194-14.131
	c-4.659,7.323-9.488,14.914-14.98,23.545c7.845,4.105,15.16,7.932,23.14,12.108c1.785-6.135,3.128-10.753,5.108-17.561
	c10.874,4.855,20.76,9.268,32.98,14.724c-6.415,2.833-9.3,4.107-12.721,5.618c2.205,3.42,4.047,6.277,4.425,6.863
	c-10.309,15.923-20.029,30.935-29.75,45.949c-12.769-8.682-22.603,4.111-33.441,1.997c-6.676,19.209-6.676,19.209,8.281,30.42
	c4.076-3.167,8.379-6.512,12.682-9.856c-0.305,7.452-2.154,13.471,7.279,16.379c7.894,2.433,9.237,9.336,6.872,14.752
	c-18.995-8.504-37.962-16.995-55.11-24.672c-13.264-19.463-25.566-37.515-37.738-55.375c5.988-14.874,16.414-27.959,9.116-44.134
	c-4.148-2.248-7.896-4.279-12.689-6.877C137.959,632.645,115.816,718.381,145.652,785.456z"/>
</svg>
