<?xml version="1.0" encoding="iso-8859-1"?>
<!-- Generator: Adobe Illustrator 19.0.0, SVG Export Plug-In . SVG Version: 6.00 Build 0)  -->
<svg version="1.1" id="Layer_1" xmlns="http://www.w3.org/2000/svg" xmlns:xlink="http://www.w3.org/1999/xlink" x="0px" y="0px"
	 viewBox="0 0 2000 2000" style="enable-background:new 0 0 2000 2000;" xml:space="preserve">
<path d="M552.673,1967.787c-0.899,0-1.798,0-2.696,0c0-324.749,0-649.499,0-973.939
	c-147.583-81.315-293.951-161.959-442.102-243.587c147.967-81.533,293.848-161.917,441.922-243.509
	C401.409,424.968,255.584,344.598,107.86,263.18c149.198-82.171,295.722-162.869,442.068-243.469
	c148.088,81.567,295.027,162.502,442.786,243.887c0,161.904,0,323.261,0,486.242c147.561-81.276,293.376-161.591,441.304-243.07
	c-148.476-81.833-294.249-162.176-441.974-243.594c149.383-82.263,295.899-162.948,442.09-243.454
	c148.244,81.653,295.172,162.582,441.807,243.349c0,487.847,0,974.364,0,1461.132c-4.505,2.541-8.775,4.999-13.089,7.376
	c-137.963,76.026-275.936,152.033-413.868,228.114c-4.189,2.31-7.961,5.378-11.928,8.093c-0.899,0-1.798,0-2.696,0
	c0-324.709,0-649.417,0-973.873c-147.681-81.35-294.073-161.99-442.235-243.605c0,326.263,0,650.017,0,973.726
	c-5.018,2.819-9.296,5.262-13.61,7.639c-137.944,76.014-275.897,152.011-413.813,228.077
	C560.495,1962.071,556.674,1965.092,552.673,1967.787z"/>
</svg>
