<?xml version="1.0" encoding="iso-8859-1"?>
<!-- Generator: Adobe Illustrator 19.0.0, SVG Export Plug-In . SVG Version: 6.00 Build 0)  -->
<svg version="1.1" id="Layer_1" xmlns="http://www.w3.org/2000/svg" xmlns:xlink="http://www.w3.org/1999/xlink" x="0px" y="0px"
	 viewBox="0 0 500 500" enable-background="new 0 0 500 500" xml:space="preserve">
<path d="M393.092,6.748c13.47,18.08,24.299,38.304,51.644,38.701c3.825,13.773,8.009,27.681,11.535,41.755
	c11.041,44.07,14.066,88.987,11.459,134.122c-2.239,38.758-12.493,75.788-29.618,110.766
	c-13.887,28.365-32.236,53.649-54.207,76.194c-25.986,26.665-55.625,48.562-89.239,64.745
	c-14.485,6.974-29.393,13.066-43.233,19.171c-35.924-11.648-67.824-28.329-96.918-50.289c-28.974-21.869-54.155-47.082-74.31-77.768
	c-19.699-29.991-32.842-62.359-41.052-96.797c-3.819-16.021-5.391-32.743-6.324-49.241c-1.044-18.465-1.175-37.099,0.016-55.548
	c2.2-34.07,8.553-67.532,18.136-100.334c1.669-5.715,3.628-11.344,5.357-16.713c26.698-0.776,38.084-20.22,51.386-38.763
	C202.188,6.748,297.55,6.748,393.092,6.748z M77.925,65.72c-0.625,1.304-0.985,1.852-1.162,2.454
	c-10.35,35.182-16.593,71.102-18.445,107.705c-2.331,46.08,3.607,91.044,21.664,133.739c32.057,75.794,89.358,125.3,164.615,155.482
	c3.401,1.364,8.21,1.233,11.72-0.013c27.049-9.601,51.839-23.653,74.641-40.889c73.741-55.739,109.372-130.915,112.198-222.514
	c0.924-29.949-2.591-59.546-8.049-88.884c-2.964-15.927-7.379-31.584-10.991-46.739c-20.693-6.993-34.259-20.827-45.996-36.605
	c-85.172,0-169.944,0-255.289,0C111.149,45.184,97.418,58.866,77.925,65.72z M92.642,77.729
	c19.863-5.098,31.423-18.455,41.754-33.594c77.15,0,154.161,0,231.919,0c10.222,14.43,21.311,28.784,41.892,33.527
	c2.322,8.553,5.213,17.968,7.418,27.542c8.312,36.097,12.938,72.67,10.392,109.705c-2.812,40.887-12.663,79.598-33.848,115.621
	c-31.846,54.154-78.264,89.91-135.346,113.266c-3.892,1.592-9.607,1.094-13.679-0.484c-41.694-16.156-77.719-40.708-107.258-74.405
	c-23.086-26.336-39.933-56.223-49.947-89.872c-9.501-31.925-13.141-64.632-11.463-97.765
	C76.261,146.054,82.367,111.471,92.642,77.729z M193.881,181.241c-1.803,0.188-3.038,0.296-4.267,0.448
	c-20.185,2.492-22.109,4.546-22.213,25.116c-0.122,24.075-0.172,48.153,0.067,72.226c0.053,5.354,0.867,10.859,2.337,16.007
	c2.729,9.555,6.457,11.986,16.615,11.993c42.051,0.029,84.101,0.035,126.152-0.008c14.439-0.015,22.317-7.199,22.469-21.596
	c0.31-29.521,0.159-59.048,0.021-88.572c-0.035-7.426-4.677-12.117-12.161-13.263c-5.318-0.815-10.63-1.662-15.837-2.478
	c-5.173-47.567-28.541-61.04-57.912-60.632C217.421,120.923,195.892,139.856,193.881,181.241z M272.921,143.868
	c-16.101-9.985-32.391-9.306-47.444,1.22c-12.372,8.652-13.325,22.643-13.725,37.188c25.999,0,51.123,0,77.807,0
	C286.66,167.301,287.099,152.66,272.921,143.868z M235.203,282.761c10.065,0,19.36,0,29.016,0
	c-0.314-5.876-0.109-11.032-0.951-16.012c-1.962-11.593-6.843-23.356,3.707-33.536c0.414-0.399,0.458-1.171,0.707-1.755
	c3.868-9.067,1.971-16.13-6.072-22.58c-6.342-5.086-15.718-5.422-22.062-0.789c-7.832,5.719-10.582,14.646-6.641,23.298
	c1.806,3.964,4.583,7.485,7.757,12.541C238.959,256.06,237.163,268.829,235.203,282.761z"/>
</svg>
