<?xml version="1.0" encoding="iso-8859-1"?>
<!-- Generator: Adobe Illustrator 19.0.0, SVG Export Plug-In . SVG Version: 6.00 Build 0)  -->
<svg version="1.1" id="Layer_1" xmlns="http://www.w3.org/2000/svg" xmlns:xlink="http://www.w3.org/1999/xlink" x="0px" y="0px"
	 viewBox="0 0 500 500" enable-background="new 0 0 500 500" xml:space="preserve">
<path d="M489.36,249.1c0.216,131.046-106.682,237.984-238.025,238.112C119.239,487.341,11.843,380.8,11.601,249.386
	C11.359,117.848,118.565,10.196,249.935,10.061C382.6,9.924,489.141,116.293,489.36,249.1z M251.73,71.24
	c-96.776-1.281-177.045,77.471-178.4,175.029c-1.359,97.792,77.022,178.686,174.593,180.192
	c96.857,1.495,179.06-77.601,180.417-173.598C429.753,152.914,351.619,72.563,251.73,71.24z M359.639,166.575
	c-73.321,0-145.871,0-218.629,0c0,22.096,0,43.356,0,66.04c25.091,0,49.591,0,75.061,0c0,50.768,0,100.11,0,149.162
	c22.594,0,44.155,0,66.747,0c0-50.211,0-99.528,0-149.649c26.069,0,51.088,0,76.821,0
	C359.639,209.303,359.639,188.047,359.639,166.575z"/>
</svg>
