<?xml version="1.0" encoding="iso-8859-1"?>
<!-- Generator: Adobe Illustrator 19.0.0, SVG Export Plug-In . SVG Version: 6.00 Build 0)  -->
<svg version="1.1" id="Layer_1" xmlns="http://www.w3.org/2000/svg" xmlns:xlink="http://www.w3.org/1999/xlink" x="0px" y="0px"
	 viewBox="0 0 2000 2000" style="enable-background:new 0 0 2000 2000;" xml:space="preserve">
<path d="M32.51,868.149c127.501,31.76,254.23,63.327,383.051,95.416c-5.303,197.82,66.908,364.727,224.675,490.869
	c117.408,93.873,253.474,134.656,403.125,123.645c309.897-22.802,556.952-285.656,542.295-614.123
	c127.343-31.68,254.435-63.299,381.445-94.896c41.594,235.047-26.32,606.716-331.228,867.961
	c-312.309,267.585-758.471,311.424-1114.184,109.438C150.956,1635.941-20.05,1232.869,32.51,868.149z M57.452,737.118
	c-5.589,24.609-10.935,48.146-16.619,73.174c136.98,51.104,278.323,75.089,417.585,107.293
	c140.634,32.521,283.416,46.787,428.551,52.857c5.637,181.362-2.91,360.161-25.404,539.28
	c68.425,18.494,135.612,23.132,204.486,14.213c40.127-184.162,63.511-369.116,72.158-556.518
	c280.886-20.95,554.479-70.026,826.227-155.363c-19.342-64.814-38.125-127.753-57.014-191.048
	C1297.691,834.11,684.366,882.782,57.452,737.118z M1641.643,256.862c-238.428,109.157-483.612,190.506-738.41,242.978
	c-255.864,52.692-513.849,74.449-776.426,54.739c-14.749,34.086-28.833,66.635-44.413,102.641
	c600.027,98.836,1175.071,23.557,1737.156-195.97C1768.249,383.131,1709.681,315.889,1641.643,256.862z M193.293,450.76
	c422.794-27.873,812.067-159.162,1187.824-353.477C890.344-105.158,398.705,123.476,193.293,450.76z"/>
</svg>
