<?xml version="1.0" encoding="iso-8859-1"?>
<!-- Generator: Adobe Illustrator 19.0.0, SVG Export Plug-In . SVG Version: 6.00 Build 0)  -->
<svg version="1.1" id="Layer_1" xmlns="http://www.w3.org/2000/svg" xmlns:xlink="http://www.w3.org/1999/xlink" x="0px" y="0px"
	 viewBox="0 0 500 500" style="enable-background:new 0 0 500 500;" xml:space="preserve">
<path id="XMLID_4_" d="M480.642,164.961C391.465,274,302.188,383.16,211.808,493.669C147.299,330.784,83.274,169.123,18.664,5.984
	c15.882,2.813,30.498,5.322,45.082,8c53.836,9.885,107.667,19.803,161.491,29.752c51.788,9.573,103.574,19.16,155.331,28.902
	c3.016,0.568,6.356,1.951,8.541,4.017c29.975,28.347,59.777,56.878,89.599,85.387C479.321,162.627,479.676,163.481,480.642,164.961z
	 M70.709,64.279c-0.449,0.325-0.898,0.65-1.347,0.975c46.741,118.032,93.483,236.065,140.224,354.097
	c2.079-2.431,2.647-4.404,2.887-6.415c7.973-66.968,15.739-133.961,24.109-200.878c0.918-7.339-1.234-11.043-6.494-15.383
	c-37.492-30.933-74.686-62.227-112.027-93.343C102.343,90.236,86.497,77.292,70.709,64.279z M431.898,184.506
	c-4.714,0.288-7.574,0.172-10.32,0.674c-50.334,9.201-100.627,18.638-151.012,27.547c-6.814,1.205-9.293,3.76-10.077,10.486
	c-6.713,57.59-13.775,115.138-20.675,172.706c-0.944,7.873-1.57,15.784-2.344,23.678c0.615,0.139,1.23,0.278,1.845,0.417
	C303.119,341.988,366.923,263.964,431.898,184.506z M90.24,44.611c-0.324,0.638-0.647,1.277-0.971,1.915
	c53.045,44.153,106.091,88.305,159.72,132.944c34.219-28.613,68.087-56.933,103.286-86.366C263.56,76.687,176.9,60.649,90.24,44.611
	z M379.993,103.015c-32.041,26.805-63.837,53.405-95.634,80.006c0.367,0.519,0.735,1.038,1.102,1.557
	c49.761-9.079,99.523-18.158,151.14-27.575C416.647,137.972,398.546,120.709,379.993,103.015z"/>
</svg>
