<?xml version="1.0" encoding="utf-8"?>
<!-- Generator: Adobe Illustrator 25.1.0, SVG Export Plug-In . SVG Version: 6.00 Build 0)  -->
<svg version="1.1" id="Layer_1" xmlns="http://www.w3.org/2000/svg" xmlns:xlink="http://www.w3.org/1999/xlink" x="0px" y="0px"
	 viewBox="0 0 2000 2000" style="enable-background:new 0 0 2000 2000;" xml:space="preserve">
<g>
	<path d="M201.8,20c43.6,10.2,89.7,20.8,135.8,31.7c408.4,95.9,816.8,191.7,1225,288.3c19.5,4.6,39.3,13.7,55.7,25.2
		c85.1,59.7,169.1,120.9,253.5,181.7c28,20.2,29.6,30.1,9.2,59.2c-315.5,449.2-631,898.5-947,1347.3c-7.3,10.3-22.6,23.8-31.4,22
		c-11-2.2-23.5-17.1-28-29.3C659.1,1366.9,444.4,787.4,229.6,207.9C211.7,159.7,193.5,111.5,176,63C166.7,37.3,176.4,20.1,201.8,20z
		 M265.9,89c250.5,291,496.5,576.8,743.5,863.8c179.9-188.6,356.9-374.4,537-563.2C1118.9,289.3,696.2,190.1,265.9,89z M267.7,146
		c-1.2,1.1-2.4,2.2-3.6,3.3c211.6,570.8,423.2,1141.5,634.8,1712.3c5.7-11.1,7.4-20.9,8.5-30.7c28.3-273.1,89.3-849.1,89.3-849.1
		s-368.7-424.8-541.4-622C392.7,288.5,330.2,217.3,267.7,146z M934.8,1853.5c1.4,0.7,2.9,1.4,4.3,2.1
		c292.1-415.9,584.2-831.8,876.4-1247.6c-11.7,0.7-20.8,4.3-29.5,8.5c-230.2,112-762.8,373.4-762.8,373.4s-43.5,437.7-62.6,618.9
		C951.9,1690.3,943.3,1771.9,934.8,1853.5z M1574.8,398.1c-169.9,178.1-550.1,562.3-548.8,564c246.5-120.7,538.9-268.7,789-391.1
		C1733.6,512.5,1655.5,456.2,1574.8,398.1z"/>
</g>
</svg>
