<?xml version="1.0" encoding="iso-8859-1"?>
<!-- Generator: Adobe Illustrator 19.0.0, SVG Export Plug-In . SVG Version: 6.00 Build 0)  -->
<svg version="1.1" id="Layer_1" xmlns="http://www.w3.org/2000/svg" xmlns:xlink="http://www.w3.org/1999/xlink" x="0px" y="0px"
	 viewBox="0 0 500 500" enable-background="new 0 0 500 500" xml:space="preserve">
<path d="M406.296,313.261c-4.381,0-7.924,0-11.468,0c-9.807,0-19.614,0-32.084,0c5.558-45.507-7.351-84.047-42.904-112.703
	c-20.565-16.576-44.67-26.333-71.455-24.144c-34.167,2.792-63.38,16.457-85.145,44.192c-21.299,27.141-26.492,58.346-22.586,91.954
	c-15.696,0-29.498,0-44.34,0c-4.586-63.368,13.813-116.274,67.596-151.947c51.159-33.932,106.494-37.03,160.894-8.971
	C383.473,181.902,414.803,239.609,406.296,313.261z M313.741,363.185c-42.457-0.023-84.914,0.059-127.371,0.189
	c-28.249,0.086-41.541,16.895-35.358,45.623c66.958,0,134.11,0,202.401,0C356.186,378.494,342.68,363.201,313.741,363.185z
	 M353.301,494.866c3.23-28.983-10.05-44.007-38.571-43.872c-40.908,0.193-81.825,1.063-122.719,0.407
	c-17.037-0.273-31.637,2.607-42.858,17.012c0,7.572,0,15.785,0,26.454C218.194,494.866,285.763,494.866,353.301,494.866z
	 M353.889,289.169c-17.94-19.058-39.066-20.491-61.397-19.764c-28.515,0.929-57.152,1.431-85.608-0.165
	c-21.934-1.23-40.596,4.269-57.033,17.708c0,8.476,0,17.013,0,25.658c68.408,0,135.699,0,204.038,0
	C353.889,302.654,353.889,294.434,353.889,289.169z M128.092,130.269c-15.983-16.022-31.838-32.344-49.321-46.628
	c-9.471-7.738-20.91-2.536-29.402,4.832c-7.93,6.88-10.34,23.125-3.155,31.124c14.032,15.622,28.424,31.569,45.239,43.863
	c17.214,12.585,38.659-0.539,38.569-24.483C129.839,138.02,130.465,132.648,128.092,130.269z M419.326,159.168
	c11.995-10.55,23.113-22.153,34.056-33.826c9.666-10.311,9.943-27.237,1.388-36.359c-9.281-9.895-24.686-11.251-35.894-1.589
	c-13.65,11.768-26.611,24.399-39.197,37.314c-7.793,7.996-9.212,18.293-4.287,28.372c4.546,9.303,11.498,15.946,24.351,16.013
	C406.342,165.866,414.004,163.848,419.326,159.168z M226.511,56.131c0,7.746-0.062,15.493,0.012,23.238
	c0.176,18.381,8.716,28.024,24.879,28.191c16.448,0.17,25.987-9.363,26.222-27.243c0.211-15.997-0.176-32.012-0.713-48.006
	c-0.516-15.368-11.665-27.077-25.377-27.308c-12.883-0.217-24.691,12.973-24.867,27.89c-0.092,7.745-0.016,15.492-0.016,23.239
	C226.604,56.131,226.558,56.131,226.511,56.131z"/>
</svg>
