<?xml version="1.0" encoding="utf-8"?>
<!-- Generator: Adobe Illustrator 25.1.0, SVG Export Plug-In . SVG Version: 6.00 Build 0)  -->
<svg version="1.1" id="ttc" xmlns="http://www.w3.org/2000/svg" xmlns:xlink="http://www.w3.org/1999/xlink" x="0px" y="0px"
	 viewBox="0 0 500 500" style="enable-background:new 0 0 500 500;" xml:space="preserve">
<path d="M452,120.6L258.5,4.7c-5-3-11.3-3-16.3,0L48.6,120.5c-4.8,2.9-7.7,8.1-7.7,13.7v232.6c0,5.6,2.9,10.8,7.7,13.6l193.5,115.8
	c5,3,11.3,3,16.3,0L452,380.5c4.8-2.9,7.7-8.1,7.7-13.6V134.2C459.7,128.6,456.8,123.4,452,120.6z M361.9,205.3
	c0,3.8-3.1,6.9-6.9,6.9h-71.2v155.5c0,3.8-3.1,6.9-6.9,6.9h-53.6c-3.8,0-6.9-3.1-6.9-6.9V212.3h-71.9c-3.8,0-6.9-3.1-6.9-6.9v-49.6
	c0-3.8,3.1-6.9,6.9-6.9h210.4c3.8,0,6.9,3.1,7,6.8V205.3z"/>
</svg>
