<?xml version="1.0" encoding="iso-8859-1"?>
<!-- Generator: Adobe Illustrator 19.0.0, SVG Export Plug-In . SVG Version: 6.00 Build 0)  -->
<svg version="1.1" id="Layer_1" xmlns="http://www.w3.org/2000/svg" xmlns:xlink="http://www.w3.org/1999/xlink" x="0px" y="0px"
	 viewBox="0 0 2000 2000" style="enable-background:new 0 0 2000 2000;" xml:space="preserve">
<path d="M1132.42,1884.441c-233.714,0.014-467.428,0.022-701.142-0.004c-17.59-0.002-35.433,1.612-52.719-0.747
	c-46.108-6.292-76.881-39.853-80.241-85.011c-3.72-50.006,21.869-89.343,69.479-100.943c21.551-5.251,44.717-5.173,67.16-5.271
	c251.253-1.091,502.508-1.744,753.763-2.522c12.56-0.039,25.199,0.741,37.666-0.371c63.54-5.666,97.987-55.305,79.265-116.245
	c-5.808-18.905-16.167-36.688-26.178-53.98c-66.323-114.563-133.732-228.504-199.246-343.525
	c-13.245-23.254-25.115-49.586-28.486-75.679c-6.466-50.058,16.492-82.67,61.094-98.998c37.334-13.668,76.363-0.807,102.758,40.079
	c37.908,58.72,72.924,119.339,108.222,179.705c80.679,137.973,162.183,275.498,240.244,414.944
	c22.903,40.913,51.392,56.594,96.778,54.429c57.671-2.751,115.565-0.816,173.362-0.972c12.562-0.034,25.161-1.097,37.678-0.443
	c61.787,3.229,112.81,47.657,113.197,98.094c0.395,51.55-49.216,96.063-113.825,96.886c-123.119,1.568-246.271,0.536-369.409,0.555
	C1378.7,1884.443,1255.56,1884.428,1132.42,1884.441z M1838.972,1458.288c-183.342-317.526-367.408-634.633-551.046-951.987
	c-59.764-103.281-118.083-207.403-178.446-310.33c-36.085-61.53-100.938-80.243-155.721-27.285
	c-28.901,27.938-32.602,78.158-6.424,125.011c34.019,60.889,67.221,122.519,105.832,180.46c27.311,40.984,28.7,75.238,1.029,115.764
	c-26.561,38.901-48.009,81.304-71.532,122.268c-88.05,153.332-176.801,306.269-263.616,460.297
	c-30.452,54.029-16.668,111.836,28.139,139.208c47.253,28.866,95.561,14.804,131.222-43.169
	c44.402-72.182,85.595-146.342,127.987-219.755c36.081-62.484,69.276-126.823,108.529-187.236
	c43.781-67.382,112.818-66.623,158.938-1.921c7.226,10.137,12.146,21.895,18.442,32.723
	c110.241,189.592,220.423,379.219,330.893,568.678c25.083,43.018,48.93,87.03,77.513,127.653
	c26.089,37.079,62.219,46.614,98.677,33.798c44.179-15.53,66.366-44.905,67.15-103.284
	C1861.062,1506.911,1852.262,1481.304,1838.972,1458.288z M726.425,1544.003c102.961,0,205.923,0.229,308.883-0.179
	c22.5-0.089,45.504,0.108,67.382-4.284c48.767-9.79,72.107-41.124,71.249-90.596c-0.851-49.048-32.761-85.818-81.313-91.624
	c-17.342-2.074-35.118-0.599-52.695-0.602c-138.119-0.024-276.242,0.542-414.357-0.193
	c-107.525-0.573-145.966-64.264-92.938-157.153c127.432-223.219,256.751-445.36,384.983-668.125
	c9.909-17.213,19.854-35.146,25.331-54.036c18.997-65.519-27.306-119.851-95.428-117.332c-54.897,2.03-74.304,41.997-96.733,81.132
	c-143.823,250.95-287.816,501.803-432.093,752.492c-96.988,168.522-195.317,336.278-291.366,505.331
	c-29.723,52.314-11.672,113.13,35.23,136.279c41.291,20.38,101.077,0.166,128.064-45.048
	c37.065-62.1,74.243-124.214,108.605-187.818c21.423-39.653,49.699-56.024,95.804-54.795c110.396,2.942,220.924,0.95,331.399,0.95
	C726.428,1546.936,726.427,1545.469,726.425,1544.003z"/>
</svg>
