<?xml version="1.0" encoding="utf-8"?>
<!-- Generator: Adobe Illustrator 25.1.0, SVG Export Plug-In . SVG Version: 6.00 Build 0)  -->
<svg version="1.1" id="tube" xmlns="http://www.w3.org/2000/svg" xmlns:xlink="http://www.w3.org/1999/xlink" x="0px" y="0px"
	 viewBox="0 0 500 500" style="enable-background:new 0 0 500 500;" xml:space="preserve">
<path d="M249.7,4C114,4,4,114,4,249.7s110,245.7,245.7,245.7s245.7-110,245.7-245.7S385.4,4,249.7,4z M396.1,396.1
	c-19,19-41.1,34-65.8,44.4c-25.5,10.8-52.7,16.3-80.6,16.3s-55.1-5.5-80.6-16.3c-24.6-10.5-46.8-25.4-65.8-44.4
	c-19-19-34-41.1-44.4-65.8c-10.8-25.5-16.3-52.7-16.3-80.6s5.5-55.1,16.3-80.6c10.5-24.6,25.4-46.8,44.4-65.8s41.1-34,65.8-44.4
	c25.5-10.8,52.6-16.3,80.6-16.3s55.1,5.5,80.6,16.3c24.6,10.5,46.8,25.4,65.8,44.4s34,41.1,44.4,65.8c10.8,25.5,16.3,52.7,16.3,80.6
	c0,27.9-5.5,55.1-16.3,80.6C430,354.9,415.1,377.1,396.1,396.1z"/>
<g>
	<polygon points="202.2,334.6 340.3,250.4 202.2,165.8 	"/>
	<path d="M249.7,61.5c-103.9,0-188.2,84.3-188.2,188.2s84.2,188.2,188.2,188.2s188.2-84.3,188.2-188.2S353.6,61.5,249.7,61.5z
		 M350.1,266.4L212,350.6c-3,1.9-6.4,2.8-9.8,2.8c-3.2,0-6.4-0.8-9.3-2.4c-6-3.3-9.7-9.7-9.7-16.5V165.8c0-6.8,3.7-13.2,9.7-16.5
		c2.9-1.6,6.1-2.4,9.3-2.4c3.4,0,6.8,0.9,9.9,2.6l138.1,84.6c5.6,3.5,9,9.6,9,16.2C359.2,256.9,355.7,263,350.1,266.4z M386.4,188.1
		c-1.5,0.8-2.9,1.1-4.4,1.1c-3.4,0-6.8-1.9-8.4-5.2c-22.5-44.2-73-75-122.9-75c-5.2,0-9.5-4.2-9.5-9.5s4.2-9.5,9.5-9.5
		c28.4,0,56.9,8.4,82.4,24.2c24.7,15.3,45.1,37,57.4,61.2C392.9,180.1,391,185.8,386.4,188.1z"/>
</g>
</svg>
