<?xml version="1.0" encoding="iso-8859-1"?>
<!-- Generator: Adobe Illustrator 19.0.0, SVG Export Plug-In . SVG Version: 6.00 Build 0)  -->
<svg version="1.1" id="Layer_1" xmlns="http://www.w3.org/2000/svg" xmlns:xlink="http://www.w3.org/1999/xlink" x="0px" y="0px"
	 viewBox="0 0 2000 2000" style="enable-background:new 0 0 2000 2000;" xml:space="preserve">
<path d="M996.042,28.071c543.383,5.477,955,424.651,974.621,958.406c-14.464,562.481-431.976,969.031-980.12,981.209
	c-536.417-15.638-966.51-438.84-959.111-986.272C38.529,456.391,461.458,34.043,996.042,28.071z M1106.788,856.427
	c0.598,5.603,0.304,7.061,0.899,7.737c3.665,4.166,7.477,8.208,11.337,12.197c28.232,29.177,45.622,66.023,48.804,104.263
	c5.933,71.313-17.525,133.659-78.766,177.012c-26.935,19.067-57.011,27.401-89.858,32.656c-50.364,8.057-94.47-6.51-132.565-34.042
	c-80.883-58.457-97.743-164.156-53.06-245.341c31.421-57.09,81.044-93.325,148.059-94.365c123.49-1.917,247.031-0.491,370.551-0.463
	c37.051,0.008,74.103,0.077,111.154-0.044c13.486-0.044,23.464-2.47,23.397-20.437c-0.307-81.971,0.75-163.946,0.718-245.92
	c-0.009-24.037-2.82-26.833-27.506-27.341c-24.656-0.507-49.349,1.312-74.032,1.55c-136.74,1.319-273.561-7.037-410.215,3.13
	c-25.482,1.896-51.445,3.278-76.094,9.336c-86.965,21.374-164.435,61.205-229.599,123.68
	c-83.543,80.095-133.949,177.949-146.681,292.211c-9.48,85.084,3.578,168.977,40.624,247.515
	c30.772,65.238,73.297,121.688,128.565,168.416c52.555,44.435,111.806,76.236,177.765,95.593
	c51.305,15.056,103.966,13.933,156.713,13.712c78.027-0.327,148.826-24.587,215.22-63.207
	c57.678-33.551,105.435-79.045,143.864-133.026c53.974-75.818,87.771-159.016,87.537-254.53
	c-0.123-50.349-0.314-99.925-14.083-148.991c-4.679-16.672-12.06-21.557-27.928-21.135c-26.928,0.715-53.894-0.128-80.844-0.148
	C1256.73,856.393,1182.697,856.427,1106.788,856.427z M1499.787,511.951c0,61.15-0.003,117.209,0.001,173.269
	c0.003,47.139,0.415,94.283-0.186,141.415c-0.219,17.22,6.317,24.416,23.755,23.948c28.039-0.752,56.113-0.128,84.171-0.2
	c17.441-0.044,34.882-0.299,51.602-0.452c0-115.28,0-225.79,0-337.98C1605.53,511.951,1554.38,511.951,1499.787,511.951z
	 M987.649,1087.459c0,19.458,0.153,31.814-0.045,44.166c-0.181,11.306,6.91,16.071,16.402,17.993
	c21.333,4.32,51.25-21.103,50.84-42.838c-0.437-23.109-22.769-54.018-44.782-61.983c-17.144-6.203-27.669,2.087-25.337,19.939
	C986.019,1074.632,987.273,1084.534,987.649,1087.459z M947.091,1046.241c-1.045-2.292-3.079-11.324-8.582-16.989
	c-2.97-3.058-12.916-2.415-17.906,0.119c-17.582,8.927-34.357,19.437-51.484,29.266c-26.543,15.231-27.518,27.903-4.713,47.116
	c15.209,12.814,32.584,11.864,46.845,3.477C931.722,1097.19,947.072,1079.097,947.091,1046.241z M1063.408,964.866
	c-16.532-3.027-32.092,4.167-44.093,19.099c-8.513,10.592-5.606,21.392,6.72,26.871c17.899,7.956,35.531,16.818,54.057,22.928
	c9.422,3.107,22.239,4.51,30.495,0.482c11.492-5.607,13.865-19.164,11.283-32.141
	C1117.332,979.301,1095.502,964.71,1063.408,964.866z M1051.545,884.995c-12.147-25.687-30.436-35.231-52.895-26.002
	c-30.234,12.424-43.008,61.905-22.932,88.827c10.83,14.523,20.363,14.855,31.373-0.061
	C1022.079,927.453,1036.307,906.588,1051.545,884.995z M873.26,902.046c-8.552,11.021-17.163,18.873-21.444,28.626
	c-3.66,8.338-5.397,19.836-2.696,28.236c9.81,30.517,55.574,47.93,83.608,33.297c16.235-8.474,16.093-23.48,0.674-35.126
	c-10.623-8.023-20.08-17.608-29.916-26.65C893.867,921.586,884.426,912.548,873.26,902.046z M952.834,1006.061
	c11.142,11.501,18.108,25.501,32.398,16.157c7.109-4.648,15.07-16.116,13.92-23.053c-1.22-7.361-16.535-19.7-19.164-18.225
	C969.617,986.759,961.811,997.149,952.834,1006.061z"/>
</svg>
