<?xml version="1.0" encoding="iso-8859-1"?>
<!-- Generator: Adobe Illustrator 19.0.0, SVG Export Plug-In . SVG Version: 6.00 Build 0)  -->
<svg version="1.1" id="Layer_1" xmlns="http://www.w3.org/2000/svg" xmlns:xlink="http://www.w3.org/1999/xlink" x="0px" y="0px"
	 viewBox="0 0 500 500" enable-background="new 0 0 500 500" xml:space="preserve">
<path d="M378.376,112.863c17.457,9.63,32.303,20.83,45.514,34.321c24.845,25.373,42.274,55.09,50.992,89.472
	c6.559,25.868,7.783,52.182,3.077,78.679c-5.097,28.698-15.756,55.076-32.645,78.757c-18.214,25.539-41.742,45.376-68.312,61.801
	c-36.107,22.322-75.831,33.331-117.761,35.509c-35.15,1.826-69.293-5.454-101.675-18.995
	c-46.225-19.329-83.125-50.353-110.641-92.354c-1.396-2.131-2.763-4.288-4.006-6.51c-0.437-0.781-0.46-1.794,0.4-4.005
	c2.084,1.891,4.268,3.683,6.237,5.687c28.277,28.778,61.672,49.365,100.314,60.731c41.538,12.218,83.482,12.857,125.573,1.912
	c45.11-11.73,83.619-34.571,114.083-69.649c35.488-40.863,49.909-88.817,43.318-142.756c-4.835-39.572-21.093-73.787-48.632-102.641
	c-2.177-2.281-4.096-4.809-6.099-7.251C377.98,115.409,378.153,114.996,378.376,112.863z M123.576,379.687
	c-2.669-3.001-5.35-5.991-8.005-9.004c-39.961-45.347-54.449-98.184-43.7-157.217c7.288-40.025,26.899-74.004,57.683-101.126
	c60.687-53.468,130.55-72.111,209.647-54.755c46.221,10.142,85.192,33.181,117.394,67.796c1.29,1.386,3.056,2.329,4.601,3.478
	c-0.802-4.713-2.774-8.266-4.992-11.658c-12.469-19.066-27.246-36.14-44.41-51.134C378.85,37.29,340.698,18.829,297.945,10.495
	c-34.837-6.791-69.724-5.942-104.331,2.92C136.791,27.966,89.857,57.589,56.282,105.958c-31.625,45.56-41.001,96.455-29.012,150.552
	c9.343,42.154,31.864,76.901,64.697,104.766c9.103,7.725,19.369,14.08,29.101,21.063
	C121.905,381.455,122.741,380.571,123.576,379.687z M230.096,366.508c22.142-7.93,48.802-26.761,48.023-60.664
	c-0.754-32.81-0.185-65.65-0.129-98.477c0.006-3.701,0.451-7.401,0.741-11.839c7.208-0.322,13.515-0.395,19.784-0.921
	c25.34-2.124,44.642-13.824,56.813-36.463c1.401-2.605,2.066-5.606,3.471-9.542c-4.206-0.327-6.963-0.725-9.72-0.727
	c-42.388-0.029-84.778-0.203-127.164,0.154c-9.485,0.08-19.154,1.198-28.388,3.347c-20.167,4.694-35.927,15.932-45.876,34.485
	c-1.223,2.281-1.697,4.964-2.996,8.914c27.823,0.565,54.046-0.245,81.465,0.506c0,58.003,0,114.211,0,170.56
	C228.873,366.326,229.583,366.691,230.096,366.508z"/>
</svg>
