<?xml version="1.0" encoding="utf-8"?>
<!-- Generator: Adobe Illustrator 26.2.1, SVG Export Plug-In . SVG Version: 6.00 Build 0)  -->
<svg version="1.1" id="twt" xmlns="http://www.w3.org/2000/svg" xmlns:xlink="http://www.w3.org/1999/xlink" x="0px" y="0px"
	 viewBox="0 0 500 500" style="enable-background:new 0 0 500 500;" xml:space="preserve">
<g>
	<path d="M249.9,0C111.8,0-0.1,111.9-0.1,250s111.9,250,250,250s250-111.9,250-250S388,0,249.9,0z M370.6,324.6
		c-13.4,34.5-35,46.2-62.4,61.1c-13.7,7.4-29.3,15.9-47.6,29c-2.5,2-5.7,3-8.9,3s-6.4-1-9.1-2.9c-18.3-13.1-33.8-21.5-47.5-29
		c-27.3-14.8-48.9-26.5-62.3-61.1c-12.1-31.2-17.4-80.7-18.8-176.4c-0.1-4.2,1.6-8.2,4.5-11.2c2.9-3,6.9-4.7,11.1-4.7
		c0.8,0,1.7,0,2.8,0c18.3,0.1,66.7,0.5,109.3-35.1c5.8-4.8,14.2-4.8,20,0c42.6,35.6,91.2,35.2,109.4,35.1c1,0,2,0,2.8,0
		c4.2,0,8.2,1.7,11.1,4.7c2.9,3,4.6,7,4.5,11.2C388.1,243.9,382.8,293.4,370.6,324.6z"/>
	<path d="M251.7,129.1c-39.8,28.6-82.1,33.7-106.2,34.5c1.7,80.4,6.5,124.3,16.4,149.8c9.2,23.8,23,31.3,48.1,44.9
		c11.6,6.3,25.7,13.9,41.7,24.7c16.1-10.8,30.1-18.4,41.8-24.7c25.1-13.6,38.9-21.1,48.1-44.9c9.9-25.5,14.8-69.4,16.5-149.8
		c-10.4-0.3-24-1.4-39.5-4.9C293.9,153.2,271.4,143.3,251.7,129.1z"/>
</g>
</svg>
