<?xml version="1.0" encoding="iso-8859-1"?>
<!-- Generator: Adobe Illustrator 19.0.0, SVG Export Plug-In . SVG Version: 6.00 Build 0)  -->
<svg version="1.1" id="Layer_1" xmlns="http://www.w3.org/2000/svg" xmlns:xlink="http://www.w3.org/1999/xlink" x="0px" y="0px"
	 viewBox="0 0 500 500" enable-background="new 0 0 500 500" xml:space="preserve">
<path d="M248.731,494.935C130.868,498.482,2.032,403.051,2.001,248.118C1.973,110.13,111.011,1.606,248.785,2.001
	C403.083,2.443,496.101,130.878,495.63,249.419C495.099,383.142,382.839,497.77,248.731,494.935z M480.54,249.117
	C480.876,121.733,377.061,17.35,249.411,16.724C122.138,16.1,16.469,121.64,16.717,249.136
	c0.248,127.427,104.632,231.508,232.109,231.435C376.649,480.498,480.203,377.06,480.54,249.117z M249.856,32.5
	c119.743,0.534,216.623,98.123,215.721,217.298c-0.907,119.818-98.613,216.536-217.682,215.479
	C128.529,464.218,32.527,367.411,32.88,248.461C33.236,128.628,130.352,31.967,249.856,32.5z M301.265,79.253
	c-21.504-34.943-73.708-44.624-105.112,0.426c-73.886,24.527-129.205,93.994-123.686,184.169
	c-32.624,41.576-9.411,95.789,43.556,101.48c35.731,39.101,80.233,60.471,133.734,60.317c53.499-0.155,97.84-21.901,133.244-60.969
	c41.521-5.222,72.813-50.035,42.668-97.558C432.665,179.818,381.359,106.232,301.265,79.253z M359.856,362.421
	c-9.651-6.555-19.377-13.161-29.255-19.87c-48.813,39.362-113.799,40.848-164.905-1.828c-9.537,7.114-18.925,14.116-28.276,21.092
	C195.12,426.783,308.762,422.54,359.856,362.421z M298.99,108.763c-0.173-27.287-22.081-49.035-49.527-49.165
	c-27.5-0.13-49.653,21.358-50.087,48.584c-0.441,27.641,21.952,50.59,49.492,50.724C276.464,159.039,299.165,136.329,298.99,108.763
	z M166.653,304.472c-0.066-27.354-21.704-49.099-49.22-49.464c-27.662-0.366-50.127,22.037-50.033,49.898
	c0.092,27.414,21.853,49.223,49.254,49.363C144.75,354.413,166.721,332.531,166.653,304.472z M427.756,304.547
	c0.031-27.149-22.019-49.315-49.264-49.524c-27.757-0.213-50.446,22.248-50.311,49.805c0.133,27.235,22.078,49.208,49.379,49.444
	C405.46,354.512,427.724,332.457,427.756,304.547z M146.429,181.364c12.685-19.232,29.845-33.46,49.058-43.393
	c-2.32-12.916-4.391-24.453-6.448-35.903c-63.303,20.218-104.713,95.111-98.497,148.205c11.482-1.977,22.982-3.958,35.562-6.124
	C127.05,221.863,133.726,200.622,146.429,181.364z M351.934,181.33c12.844,19.264,18.946,40.736,20.682,62.547
	c12.496,2.856,23.945,5.472,35.347,8.077c6.238-50.414-30.788-127.059-98.766-150.13c-1.959,11.472-3.931,23.023-6.198,36.302
	C322.625,148.193,339.322,162.414,351.934,181.33z"/>
</svg>
