<?xml version="1.0" encoding="iso-8859-1"?>
<!-- Generator: Adobe Illustrator 19.0.0, SVG Export Plug-In . SVG Version: 6.00 Build 0)  -->
<svg version="1.1" id="Layer_1" xmlns="http://www.w3.org/2000/svg" xmlns:xlink="http://www.w3.org/1999/xlink" x="0px" y="0px"
	 viewBox="0 0 2000 2000" style="enable-background:new 0 0 2000 2000;" xml:space="preserve">
<path d="M1979.2,886.228c-71.143,0-140.386,0-210.457,0c-41.862-235.413-160.838-418.986-364.282-544.027
	c-163.47-100.472-342.129-133.301-530.794-100.947c-375.199,64.342-661.985,399.559-638.524,807.251
	c20.736,360.324,297.943,675.415,683.441,719.021c421.251,47.649,790.94-250.896,850.477-650.836c69.56,0,139.402,0,209.308,0
	c-32.174,395.575-379.115,840.568-927.558,865.965C496.245,2008.336,37.5,1578.574,22.464,1025.191
	C7.727,482.778,443.532,26.789,983.218,18.281C1541.368,9.482,1937.328,442.616,1979.2,886.228z M1438.61,848.055
	c0-76.863,0-150.9,0-224.534c-290.496,0-579.108,0-867.419,0c0,75.822,0,149.789,0,226.16c107.272,0,212.523,0,320.407,0
	c0,232.997,0,463.564,0,694.671c76.527,0,150.367,0,225.956,0c0-231.807,0-461.747,0-696.297
	C1226.775,848.055,1332.756,848.055,1438.61,848.055z"/>
</svg>
