<?xml version="1.0" encoding="iso-8859-1"?>
<!-- Generator: Adobe Illustrator 19.0.0, SVG Export Plug-In . SVG Version: 6.00 Build 0)  -->
<svg version="1.1" id="Layer_1" xmlns="http://www.w3.org/2000/svg" xmlns:xlink="http://www.w3.org/1999/xlink" x="0px" y="0px"
	 viewBox="0 0 500 500" style="enable-background:new 0 0 500 500;" xml:space="preserve">
<path d="M239.666,491.796c0-62.77-0.128-123.789,0.345-184.804c0.026-3.354,4.379-7.809,7.839-9.833
	c58.801-34.405,117.779-68.509,176.72-102.674c12.616-7.313,25.241-14.61,39.065-22.61c0.256,4.361,0.604,7.552,0.606,10.743
	c0.033,57.983-0.118,115.968,0.207,173.949c0.04,7.124-2.344,10.661-8.415,14.052c-70.279,39.257-140.386,78.823-210.545,118.296
	C244.075,489.71,242.579,490.36,239.666,491.796z M262.772,13.208c-71.166,39.994-142.367,79.927-213.329,120.28
	c-3.107,1.767-5.67,7.394-5.694,11.24c-0.358,58.302-0.26,116.607-0.219,174.911c0.002,3.135,0.441,6.27,0.78,10.769
	c73.921-42.766,146.357-84.622,218.649-126.724c2.355-1.372,4.614-5.246,4.626-7.963c0.261-61.01,0.2-122.022,0.2-184.722
	C265.142,12.155,263.898,12.576,262.772,13.208z M319.267,84.003c0,55.094,0,108.435,0,163.43
	c46.722-26.83,92.328-53.018,139.1-79.877C411.255,139.257,365.55,111.803,319.267,84.003z M50.636,334.939
	c46.598,28.003,92.049,55.316,138.573,83.275c0-55.161,0-108.322,0-163.563C142.297,281.83,97.009,308.07,50.636,334.939z"/>
</svg>
