<?xml version="1.0" encoding="iso-8859-1"?>
<!-- Generator: Adobe Illustrator 19.0.0, SVG Export Plug-In . SVG Version: 6.00 Build 0)  -->
<svg version="1.1" id="Layer_1" xmlns="http://www.w3.org/2000/svg" xmlns:xlink="http://www.w3.org/1999/xlink" x="0px" y="0px"
	 viewBox="0 0 500 500" style="enable-background:new 0 0 500 500;" xml:space="preserve">
<path d="M249.43,495.111c-59.006,0-115.309,0-171.995,0c-13.751-14.569-27.679-29.325-43.363-45.941c0-119.432,0-242.435,0-366.341
	c26.115,0,52.048,0,78.885,0c0,106.101,0,212.457,0,318.16c5.281,5.36,9.796,9.942,14.2,14.412c23.327,0,46.27,0,69.258,0
	c10.944-6.496,16.04-15.04,15.989-28.809c-0.461-124.447-0.154-248.897-0.073-373.347c0.002-3.177,0-6.354,0-10.246
	c71.958,0,143.171,0,213.122,0c14.523,14.176,28.605,27.921,42.908,41.881c0,46.466,0,93.066,0,141.406
	c-6.476,6.866-13.943,14.784-22.091,23.425c8.047,7.114,15.54,13.737,22.104,19.54c0,49.341,0,96.636,0,143.794
	c-14.243,13.989-28.283,27.779-43.518,42.742c-42.943,0-87.713,0-133.776,0c0,7.886-0.81,15.394,0.193,22.652
	c1.455,10.528-3.082,17.493-10.271,24.336C269.869,473.374,259.474,484.75,249.43,495.111z M388.885,152.527
	c0-17.8,0-37.16,0-55.196c-5.201-5.788-9.704-10.801-13.177-14.667c-29.022,0-56.461,0-83.618,0c0,29.629,0,58.43,0,87.315
	c27.692,0,54.218,0,82.098,0C378.265,165.137,382.874,159.664,388.885,152.527z M373.472,248.112c-27.465,0-54.236,0-81.76,0
	c0,29.199,0,57.954,0,87.259c28.217,0,55.66,0,82.765,0c4.847-4.759,9.41-9.241,14.32-14.062c0-18.863,0-38.179,0-57.295
	C383.457,258.474,378.261,253.082,373.472,248.112z"/>
</svg>
