<?xml version="1.0" encoding="iso-8859-1"?>
<!-- Generator: Adobe Illustrator 19.0.0, SVG Export Plug-In . SVG Version: 6.00 Build 0)  -->
<svg version="1.1" id="Layer_1" xmlns="http://www.w3.org/2000/svg" xmlns:xlink="http://www.w3.org/1999/xlink" x="0px" y="0px"
	 viewBox="0 0 2000 2000" style="enable-background:new 0 0 2000 2000;" xml:space="preserve">
<path d="M605.416,1414.267c-101.248,0-202.495,0-308.396,0c-14.708,66.808-29.33,133.228-44.545,202.341
	c-77.206,0-153.231,0-234.057,0c15.484-73.856,30.72-146.528,46.668-222.595c73.894,0,145.339,0,221.237,0
	c23.057-100.908,45.478-199.033,68.842-301.281c104.806,0,208.971,0,317.957,0c16.921-77.444,33.144-151.692,50.365-230.506
	c100.967,0,200.406,1.997,299.703-0.875c46.934-1.357,94.706-7.767,140.115-19.536c61.635-15.974,95.928-61.361,96.769-115.062
	c0.902-57.599-32.44-99.338-97.572-119.053c-23.333-7.063-47.83-14.111-71.869-14.373c-129.009-1.403-258.042-0.663-392.55-0.663
	c-18.715,80.475-37.798,162.529-57.863,248.805c-91.724,0-182.769,0-276.862,0c-18.356,84.415-35.9,165.098-53.598,246.487
	c-91.869,0-181.021,0-273.124,0c18.178-86.18,35.632-168.932,54.235-257.127c90.462,0,179.678,0,272.608,0
	c19.703-85.327,38.292-165.835,58.193-252.022c-70.33,0-136.558,0-212.386,0c14.609-72.327,27.899-138.13,41.573-205.83
	c76.583,0,149.554,0,226.349,0c-13.055,64.673-25.552,126.583-38.912,192.767c81.405,0,160.293,0,246.182,0
	c15.341-91.099,31.183-185.165,46.995-279.062c9.698-1.776,16.017-3.955,22.333-3.943c284.627,0.537,569.298-1.378,853.858,3.349
	c105.583,1.754,209.367,26.522,288.528,104.721c107.072,105.771,99.961,235.967,64.176,366.359
	c-32.597,118.777-120.822,177.459-239.335,194.999c-5.982,0.885-11.872,2.394-24.279,4.941c11.72,4.713,17.293,8.112,23.283,9.194
	c157.515,28.453,229.538,132.993,246.798,282.47c5.766,49.935,6.799,101.93-0.185,151.55
	c-24.773,176.006-135.018,278.625-325.671,306.306c-51.583,7.489-104.092,11.767-156.197,11.962
	c-297.739,1.11-595.485,0.553-893.228,0.484c-9.622-0.002-19.243-0.852-34.664-1.582c15.91-103.395,31.408-204.116,46.939-304.83
	c129.139-0.089,258.328,2.501,387.31-1.521c56.244-1.754,114.41-10.102,167.487-27.976c66.324-22.336,92.94-80.526,90.065-148.178
	c-2.581-60.723-41.417-97.714-95.876-117.881c-24.204-8.963-50.298-17.299-75.696-17.804c-127.404-2.533-254.86-2.471-382.3-2.882
	c-5.889-0.019-11.792,4.19-16.817,6.098C653.529,1207.637,629.472,1310.952,605.416,1414.267z"/>
</svg>
