<?xml version="1.0" encoding="iso-8859-1"?>
<!-- Generator: Adobe Illustrator 19.0.0, SVG Export Plug-In . SVG Version: 6.00 Build 0)  -->
<svg version="1.1" id="Layer_1" xmlns="http://www.w3.org/2000/svg" xmlns:xlink="http://www.w3.org/1999/xlink" x="0px" y="0px"
	 viewBox="0 0 2000 2000" style="enable-background:new 0 0 2000 2000;" xml:space="preserve">
<path d="M1001.882,23.447c537.505-1.065,977.57,439.272,976.875,979.781c-0.684,531.969-435.325,981.29-988.961,975.259
	c-262.501-2.859-489.015-98.117-674.575-281.128C118.114,1502.963,20.142,1263.617,23.366,985.25
	C29.396,464.65,455.972,22.576,1001.882,23.447z M981.089,943.335c-50.349-51.229-102.268-104.055-155.481-158.197
	c-81.456,67.343-142.568,141.851-158.879,245.397c-0.984,6.249-0.136,13.113,1.301,19.36c5.413,23.528,11.423,46.919,17.21,70.362
	c0.495,7.301,5.798,13.119,8.997,19.926c14.342,30.525,26.112,62.426,42.417,91.83c47.697,86.014,116.355,154.944,188.133,220.347
	c88.845,80.953,183.431,152.722,309.628,164.161c36.49,3.308,71.057-2.342,104.926-16.585
	c48.12-20.238,87.731-51.986,124.042-88.338c68.498-68.577,136.145-138.005,204.869-206.354
	c78.21-77.783,157.21-154.771,233.8-230.074c-8.373-33.207-127.646-156.606-161.542-168.685
	c-92.911,93.509-185.768,189.48-281.535,282.455c-62.991,61.154-114.378,135.181-192.474,179.14
	c-46.835,0.084-91.248,5.835-133.246-26.028c-67.273-51.041-127.72-108.922-177.835-175.507
	c-55.949-74.336-48.6-130.279,12.996-201.932C972.406,959.967,974.832,953.977,981.089,943.335z M629.653,542.306
	c6.888,8.801,14.914,21.21,25.021,31.591c40.302,41.392,81.328,82.078,121.948,123.162
	c89.355,90.377,178.905,180.563,267.772,271.418c29.305,29.961,53.948,64.351,46.478,108.86
	c-5.479,32.645-15.343,65.104-38.543,91.396c-10.043,11.381-17.938,24.658-28.994,40.131
	c49.048,46.068,89.061,100.217,149.932,130.333c5.79-4.114,9.475-5.769,11.831-8.548c54.073-63.788,100.049-131.314,124.224-213.586
	c19.58-66.634,18.01-126.991-16.097-188.395c-28.111-50.61-68.28-89.728-108.389-129.546
	c-136.116-135.131-272.258-270.237-408.89-405.849C729.075,441.022,681.331,489.66,629.653,542.306z M104.533,1065.682
	c4.79,5.386,10.285,12.241,16.463,18.412c139.672,139.522,279.29,279.098,419.295,418.286
	c20.179,20.061,40.836,40.188,63.802,56.781c44.278,31.991,91.821,54.061,149.422,53.543c83.365-0.75,149.78-39.494,218.978-85.752
	c-51.344-48.697-100.544-95.36-148.764-141.094c-4.2-0.697-6.775-1.531-9.326-1.462c-5.186,0.14-10.451,0.292-15.524,1.268
	c-57.945,11.15-104.713-7.533-144.937-49.981c-56.362-59.478-114.622-117.155-171.997-175.674
	c-78.015-79.571-155.96-159.209-234.8-239.701C197.035,971.386,151.601,1017.701,104.533,1065.682z M1171.64,742.691
	c4.987-0.436,13.883,1.543,17.404-1.929c66.194-65.278,131.75-131.201,201.008-200.563
	c-51.526-50.564-99.469-98.215-148.435-144.789c-5.264-5.007-16.481-3.757-23.901-5.207
	c-66.859,68.218-137.793,129.049-197.972,205.389C1071.357,645.576,1119.648,692.342,1171.64,742.691z"/>
</svg>
