<?xml version="1.0" encoding="iso-8859-1"?>
<!-- Generator: Adobe Illustrator 19.0.0, SVG Export Plug-In . SVG Version: 6.00 Build 0)  -->
<svg version="1.1" id="Layer_1" xmlns="http://www.w3.org/2000/svg" xmlns:xlink="http://www.w3.org/1999/xlink" x="0px" y="0px"
	 viewBox="0 0 2000 2000" style="enable-background:new 0 0 2000 2000;" xml:space="preserve">
<path d="M1297.46,1903.836c0-156.176,0-310.275,0-465.503c10.424-3.174,19.412-6.164,28.538-8.652
	c143.703-39.179,239.654-162.683,240.197-311.701c0.699-192.005,0.174-384.015,0.175-576.023c0-13.244,0-26.487,0-31.22
	c140.484-139.886,276.065-274.89,412.061-410.307c0.438,5.657,1.722,14.511,1.724,23.365c0.099,375.562,2.018,751.14-0.912,1126.679
	c-1.101,141.12-58.521,265.522-144.108,375.568c-129.849,166.958-302.079,258.927-512.584,279.208
	c-4.8,0.462-9.647,0.629-14.469,0.588C1305.74,1905.819,1303.404,1904.999,1297.46,1903.836z M508.85,338.576
	c-1.335,91.69-0.61,183.411-0.71,275.118c-0.067,61.458-0.013,122.917-0.013,190.088c-56.86,54.962-115.729,111.865-173.546,167.752
	c0,31.253,0,58.874,0,92.037c-104.092,103.321-210.172,208.614-314.4,312.069c0,18.651,0,34.628,0,50.606
	c2.426,1.538,4.851,3.075,7.277,4.613c300.807-300.934,601.614-601.867,900.289-900.669c0-92.306,0.123-177.898-0.049-263.49
	c-0.094-46.728,10.709-90.771,31.083-132.662c3.989-8.202,7.404-16.682,12.202-27.571c-169.795,0-335.86,0-510.192,0
	C509.18,181.555,510,259.654,508.85,338.576z M580.261,1499.188c111.947,249.255,384.062,406.51,615.427,403.907
	c0-155.026,0-310.083,0-465.253c-154.533-37.168-244.814-133.193-268.308-283.924
	C812.735,1267.953,696.981,1383.09,580.261,1499.188z M508.852,1092.508c0,55.988,0,114.97,0,179.836
	c-56.145,54.305-115.037,111.267-174.155,168.447c0,30.475,0,59.241,0,89.793c-105.583,104.623-210.982,209.064-314.358,311.499
	c0,20.597,0,37.713,0,51.522c301.39-300.022,603.018-600.282,905.503-901.395c0-103.271,0-207.859,0-314.892
	C785.676,816.88,648.174,953.788,508.852,1092.508z"/>
</svg>
