<?xml version="1.0" encoding="iso-8859-1"?>
<!-- Generator: Adobe Illustrator 19.0.0, SVG Export Plug-In . SVG Version: 6.00 Build 0)  -->
<svg version="1.1" id="Layer_1" xmlns="http://www.w3.org/2000/svg" xmlns:xlink="http://www.w3.org/1999/xlink" x="0px" y="0px"
	 viewBox="0 0 2000 2000" style="enable-background:new 0 0 2000 2000;" xml:space="preserve">
<path d="M1051.47,1073.066c17.239-13.285,29.961-25.202,44.558-34.012c151.955-91.716,340.398-48.084,433.438,102.672
	c145.165,235.216,97.517,605.731-183.386,770.681c-85.403,50.15-178.583,67.297-276.361,68.472
	c-146.702,1.762-283.875-28.286-405.629-114.335c-130.188-92.01-201.932-218.222-220.783-375.625
	c-10.711-89.439-0.914-176.179,17.25-264.957c35.577-173.883,138.714-309.254,234.577-450.064
	c65.259-95.857,132.08-190.955,191.468-290.413c50.028-83.783,78.769-177.643,83.346-275.656
	c2.482-53.141-7.424-106.88-12.094-160.319c-0.86-9.846-3.405-19.545-5.92-33.442c7.063,5.942,11.597,9.206,15.486,13.112
	c67.561,67.853,127.103,141.954,176.193,224.381c93.835,157.56,98.866,317.56,1.52,473.199
	c-53.142,84.964-118.108,162.853-181.03,241.296c-73.148,91.192-150.434,179.258-204.76,283.745
	c-40.273,77.458-77.097,157.293-71.37,247.31c10.172,159.885,85.517,279.679,229.422,353.162
	c68.136,34.793,137.871,33.528,206.539,0.369c100.641-48.598,170.865-122.269,198.313-234.185
	c28.216-115.045,25.921-226.836-23.303-335.931c-43.755-96.974-116.212-162.747-216.192-198.51
	C1074.213,1080.961,1065.632,1078.019,1051.47,1073.066z M1339.706,601.221c-38.067,81.191-20.739,156.959,28.613,225.685
	c29.347,40.868,65.207,77.513,100.977,113.212c58.385,58.27,116.768,115.953,146.199,195.641c0.224,0.607,2.235,0.554,9.706,2.176
	c-12.156-47.211-20.923-92.443-35.54-135.697c-29.975-88.704-84.802-162.915-143.958-234.124
	c-46.197-55.609-87.306-113.675-92.793-190.57C1348.482,585.423,1343.533,593.059,1339.706,601.221z M437.205,942.966
	c-56.873,118.954-80.683,244.472-71.72,376.094c0.328,4.811,1.717,9.549,2.931,16.026c2.698-3.048,4.219-3.953,4.336-5.014
	c12.016-109.026,49.468-210.291,93.395-309.75c14.555-32.955,28.184-66.55,39.013-100.87
	c19.798-62.749,23.969-126.299-0.392-190.229C500.316,806.222,469.796,874.798,437.205,942.966z M1233.216,1657.606
	c0.96-3.72,2.093-7.412,2.78-11.184c8.819-48.41-6.925-95.473-38.944-116.63c-0.437,0.506-1.241,1.002-1.256,1.521
	c-0.244,8.436-0.198,16.883-0.585,25.311c-3.487,75.887-36.271,135.521-104.648,169.467c-32.208,15.99-69.702,21.482-104.978,31.079
	c-18.781,5.109-37.941,8.828-56.93,13.174C1026.765,1842.372,1203.541,1772.653,1233.216,1657.606z M755.903,586.158
	c5.861-18.543,3.428-44.26-5.099-61.91c-22.047-45.638-66.771-60.69-118.643-76.177c66.267,97.357,40.44,190.771,10.892,285.311
	C698.5,697.203,736.466,647.652,755.903,586.158z M1114.058,930.592c21.49-5.411,41.78-11.92,61.53-19.783
	c77.005-30.658,88.268-60.345,51.42-133.987c-0.645-1.288-2-2.22-6.279-6.809C1211.447,842.419,1152.394,878.966,1114.058,930.592z"
	/>
</svg>
