<?xml version="1.0" encoding="iso-8859-1"?>
<!-- Generator: Adobe Illustrator 19.0.0, SVG Export Plug-In . SVG Version: 6.00 Build 0)  -->
<svg version="1.1" id="Layer_1" xmlns="http://www.w3.org/2000/svg" xmlns:xlink="http://www.w3.org/1999/xlink" x="0px" y="0px"
	 viewBox="0 0 2000 2000" style="enable-background:new 0 0 2000 2000;" xml:space="preserve">
<path d="M1886.814,1343.441c-38.081,45.513-61.983,45.482-99.986,0.323c0-92.76-0.04-187.893,0.01-283.026
	c0.074-143.897,0.506-287.794,0.171-431.69c-0.129-55.497-20.051-99.48-71.466-128.295
	c-114.952-64.422-228.869-130.703-342.879-196.795c-66.465-38.53-132.183-78.346-198.453-117.215
	c-37.873-22.213-75.42-45.182-114.508-65.07c-38.256-19.464-78.322-19.562-116.31,2.136
	c-135.142,77.188-270.098,154.703-404.922,232.445c-85.417,49.253-170.737,98.686-255.584,148.912
	c-43.058,25.488-64.18,63.177-63.985,114.714c0.87,230.237,0.418,460.479,0.249,690.718c-0.008,10.854,0.095,22.373-3.301,32.417
	c-6.675,19.745-28.913,34.044-49.122,32.603c-21.659-1.545-37.562-13.54-45.691-33.113c-4.501-10.838-6.148-23.583-6.133-35.464
	c0.204-156.057,1.116-312.113,1.451-468.17c0.15-69.706-0.901-139.414-0.832-209.12c0.053-53.626,7.08-106.192,43.589-148.398
	c21.309-24.635,44.157-50.561,71.695-66.754c165.565-97.359,332.721-192.012,499.274-287.695
	c51.2-29.414,102.896-58.057,153.062-89.155C938.108,3.677,998.862-0.66,1058.26,10.463c35.94,6.731,68.843,31.759,102.088,50.392
	c83.379,46.731,166.368,94.168,249.147,141.956c70.253,40.557,139.965,82.051,209.971,123.036
	c56.799,33.253,114.693,64.765,170.257,99.96c64.062,40.578,96.283,101.902,96.656,176.928
	c1.179,236.876,0.435,473.761,0.435,710.642C1886.814,1323.306,1886.814,1333.235,1886.814,1343.441z M1748.39,1462.811
	c-86.506,49.002-172.51,98.894-258.494,148.811c-139.999,81.276-279.852,162.804-419.759,244.238
	c-44.708,26.023-89.057,27.116-134.333,0.415c-50.957-30.052-102.853-58.505-154.058-88.141
	c-172.638-99.918-345.297-199.801-517.553-300.374c-25.984-15.171-51.972-23.264-81.425-16.035
	c-31.088,28.173-33.158,46.075-5.33,74.96c15.128,15.702,32.331,30.318,50.922,41.592c47.973,29.09,97.429,55.72,145.953,83.916
	c168.881,98.13,337.452,196.794,506.482,294.667c81.953,47.453,164.499,45.744,246.152-1.4
	c122.383-70.661,244.537-141.716,366.851-212.497c93.774-54.265,187.79-108.114,281.381-162.691
	c28.635-16.698,54.348-37.145,70.992-68.41c0-8.795,0-18.639,0-31.875c-12.949-9.066-26.986-18.893-41.841-29.293
	C1782.666,1449.103,1764.304,1453.796,1748.39,1462.811z M1672.498,587.671c19.009,31.964,24.402,66.012,24.048,103.496
	c-2.004,212.381-2.204,424.783-2.094,637.177c0.024,45.143-18.338,78.142-56.735,100.06
	c-173.823,99.225-347.825,198.136-521.794,297.104c-19.835,11.284-40.125,21.786-59.756,33.406
	c-35.345,20.921-70.544,20.052-105.711,0.257c-40.917-23.032-81.717-46.277-122.399-69.722
	c-98.581-56.813-197.091-113.749-295.575-170.73c-54.04-31.266-107.973-62.719-161.948-94.098
	c-45.007-26.165-64.457-65.421-64.358-117.273c0.403-212.396-0.109-424.795-0.64-637.191c-0.132-52.654,18.639-93.45,67.646-117.781
	c9.449-4.691,17.296-12.608,25.882-19.037l-1.627-1.828c-16.108,8.503-32.498,16.516-48.265,25.608
	c-34.998,20.18-49.517,53.565-49.676,91.218c-0.967,228.025-0.712,456.056-0.257,684.084c0.076,37.864,18.704,68.994,48.898,89.318
	c42.519,28.62,87.875,53.058,132.28,78.834c78.366,45.491,156.971,90.571,235.399,135.956
	c75.86,43.899,151.393,88.372,227.651,131.565c12.815,7.258,28.324,10.669,43.042,13.478c35.459,6.769,66.125-6.079,96.449-23.609
	c121.294-70.117,243.213-139.152,364.839-208.698c66.495-38.022,133.026-75.986,199.229-114.512
	c37.885-22.047,59.684-56.37,59.895-99.489c1.097-223.595,0.985-447.201-0.075-670.796c-0.138-29.068-3.696-59.913-31.535-79.483
	C1674.371,585.879,1673.433,586.774,1672.498,587.671z M1229.344,319.935c22.322,14.675,44.078,30.308,67.065,43.854
	c85.186,50.202,170.727,99.805,256.323,149.307c6.353,3.674,14.202,4.762,21.356,7.053l0.909-1.104
	c-2.678-3.31-4.691-7.759-8.13-9.763c-96.939-56.484-193.885-112.96-291.228-168.743c-14.661-8.402-31.284-13.38-47-19.943
	L1229.344,319.935z M571.127,432.842c13.686-5.652,28.134-9.953,40.928-17.182c64.927-36.687,129.465-74.066,193.986-111.466
	c4.291-2.487,7.317-7.156,10.931-10.81l0.605,0.629c-7.987,2.178-16.778,2.892-23.831,6.769
	c-48.537,26.68-97.126,53.317-144.839,81.427c-26.578,15.658-51.503,34.121-77.173,51.32L571.127,432.842z M943.169,220.263
	c2.169,0.215,4.831,1.361,6.437,0.511c52.161-27.59,95.964-3.567,139.34,22.512c18.538,11.145,36.474,23.321,55.283,33.968
	c5.12,2.898,12.421,1.943,18.72,2.756c0,0-0.559,0.607-0.559,0.607c-41.924-34.673-88.529-62.084-140.296-77.74
	c-26.752-8.091-56.234-5.224-78.382,18.008C943.714,220.884,943.169,220.263,943.169,220.263z M399.063,533.34
	c22.976-11.839,46.189-23.244,68.871-35.621c31.42-17.145,62.555-34.827,93.5-52.815c4.162-2.419,6.506-7.964,9.693-12.062
	c0,0,0.609,0.686,0.609,0.686c-58.1,32.662-116.199,65.323-174.299,97.985C397.436,531.513,399.063,533.34,399.063,533.34z
	 M1574.088,520.149c4.395,4.558,8.123,10.141,13.295,13.502c28.175,18.309,56.706,36.071,85.114,54.021
	c0.936-0.897,1.874-1.792,2.813-2.684c-24.689-35.29-62.938-49.952-100.313-65.942L1574.088,520.149z M838.291,281.851
	c38.052-15.263,74.61-33.071,104.878-61.588c0,0,0.545,0.621,0.545,0.621c-35.591,19.759-71.183,39.517-106.774,59.276
	C836.94,280.16,838.291,281.851,838.291,281.851z M1162.95,280.009c18.505,19.338,39.885,33.896,66.394,39.926l-0.704,0.662
	c-15.889-23.591-41.337-31.342-66.249-39.98L1162.95,280.009z M816.973,293.383c7.106-3.844,14.212-7.688,21.319-11.532
	c0,0-1.351-1.691-1.351-1.691c-6.454,4.617-12.909,9.235-19.363,13.852L816.973,293.383z M801.053,1365.16
	c93.458,14.232,173.55-11.113,243.263-72.975c51.559-45.753,78.34-105.57,90.395-171.578c5.083-27.836,2.861-57.49,0.571-86.046
	c-2.117-26.412-29.876-45.432-57.468-43.224c-26.706,2.137-45.727,21.978-48.055,49.375c-2.696,31.722-0.087,65.329-9.88,94.757
	c-35.908,107.904-158.551,159.654-261.341,101.97c-62.413-35.025-91.101-90.64-93.553-159.316
	c-2.604-72.912-0.586-145.988-0.588-218.993c-0.001-39.821,0.458-79.648-0.143-119.46c-0.538-35.609-24.721-57.043-59.448-53.986
	c-28.235,2.485-46.528,24.264-46.607,57.24c-0.258,107.294,0.607,214.596-0.457,321.88c-0.406,40.956,3.899,80.641,19.009,120.801
	c-29.932,17.343-58.75,34.932-88.404,50.974c-29.718,16.077-49.477,36.884-41.685,75.888c9.369,23.134,30.238,32.767,60.225,36.318
	c40.462-21.702,84.309-45.22,128.363-68.848C686.614,1325.057,737.726,1355.516,801.053,1365.16z M1434.875,883.02
	c-2.512-20.364-6.27-40.575-9.449-60.659c31.607-18.998,59.565-38.808,90.07-53.231c26.649-12.599,41.313-30.741,45.275-58.815
	c-14.974-41.34-31.099-55.448-61.52-50.735c-11.538,1.788-22.934,7.389-33.317,13.183c-31.216,17.417-61.901,35.785-92.258,53.47
	c-4.475-4.187-7.2-6.193-9.255-8.739c-92.061-114.028-251.589-129.552-366.079-62.624
	c-82.052,47.966-131.957,121.06-139.817,214.864c-6.909,82.452-2,165.945-1.204,248.968c0.359,37.452,32.426,59.838,68.119,49.237
	c7.25-2.153,13.96-6.124,20.638-9.13c6.225-9.943,12.014-19.19,17.28-27.602c0-76.621-1.129-151.928,0.668-227.164
	c0.56-23.466,5.242-48.389,14.556-69.811c32.79-75.416,91.683-109.03,174.467-109.638c72.651-0.533,170.057,69.933,169.236,160.558
	c-0.059,6.55,1.207,13.232,2.7,19.657c12.193,52.47,45.439,66.764,92.7,40.166C1433.577,924.776,1437.525,904.506,1434.875,883.02z
	 M1264.542,1216.022c-31.543,30.116-72.219,42.888-113.837,45.986c-36.036,2.682-54.681,17.917-60.59,52.541
	c2.484,9.009,5.121,18.578,6.989,25.352c17.134,26.774,40.63,33.032,67.627,29.886c13.057-1.522,26.052-3.903,38.927-6.597
	c66.854-13.987,121.678-47.418,164.916-100.598c49.501-60.884,68.971-130.818,66.599-208.196
	c-1.264-41.216-22.108-62.787-63.633-63.079c-44.283-0.311-88.648,1.591-132.834-0.491c-55.605-2.62-84.805,46.307-51.789,94.227
	c40.237,26.571,88.368,4.688,135.543,18.832C1319.717,1151.569,1295.89,1186.092,1264.542,1216.022z M1080.851,854.518
	c-28.215-0.948-57.372,26.647-57.367,56.388c0.006,31.487,22.424,58.486,60.978,59.96c31.409,1.201,51.777-23.355,52.135-58.751
	C1136.982,874.069,1119.31,855.81,1080.851,854.518z"/>
</svg>
