<?xml version="1.0" encoding="iso-8859-1"?>
<!-- Generator: Adobe Illustrator 19.0.0, SVG Export Plug-In . SVG Version: 6.00 Build 0)  -->
<svg version="1.1" id="Layer_1" xmlns="http://www.w3.org/2000/svg" xmlns:xlink="http://www.w3.org/1999/xlink" x="0px" y="0px"
	 viewBox="0 0 2000 2000" style="enable-background:new 0 0 2000 2000;" xml:space="preserve">
<path d="M1113.48,1148.535c0-27.948-3.219-48.911,0.627-68.487c9.978-50.785,49.161-81.621,103.38-77.515
	c28.314,2.144,42.492-7.267,57.82-29.057c42.378-60.242,75.035-125.155,89.626-196.829
	c39.12-192.165-44.682-379.147-238.647-459.209c-16.318-6.735-33.01-13.493-50.191-16.932c-15.638-3.13-31.022-3.89-41.415,15.74
	c-26.049,49.2-118.666,51.821-151.076,7.962c-4.261-5.766-10.405-10.142-16.745-16.18
	c-104.987,33.416-181.713,98.403-232.073,194.923c-98.007,187.839-27.982,394.899,126.162,504.267
	c3.617,2.567,7.538,4.707,11.326,7.033c38.695,23.759,69.453,23.664,93.324-0.285c25.934-26.019,31.965-75.334,9.605-106.854
	c-17.94-25.29-39.794-47.854-60.425-71.173c-23.802-26.904-43.081-55.92-54.205-90.763
	c-39.371-123.318,16.521-247.134,137.157-295.438c112.333-44.98,242.749-0.897,298.003,113.87
	c38.347,79.649,36.946,161.115-13.98,236.569c-18.118,26.845-41.024,50.678-63.299,74.427
	c-16.323,17.403-40.885,19.191-56.022,7.104c-17.284-13.802-19.848-39.085-4.174-59.767c11.549-15.239,24.997-29.108,38.219-42.996
	c49.979-52.494,51.523-127.152,29.762-173.483c-27.917-59.437-88.502-97.412-154.173-91.63
	c-103.93,9.151-171.084,117.034-131.418,210.116c9.656,22.659,25.399,43.131,40.532,62.937
	c16.18,21.176,35.186,40.171,52.539,60.476c52.391,61.305,42.19,149.245,12.677,195.411
	c-38.683,60.51-104.722,85.776-173.437,62.715c-70.578-23.687-121.116-73.866-165.266-130.271
	c-119.684-152.906-135.224-371.991-32.696-537.64c62.425-100.855,150.943-170.096,263.271-207.496
	c17.02-5.667,27.066-13.241,37.038-27.486c38.742-55.345,105.834-61.043,152.71-11.989c14.493,15.166,29.912,22.774,48.948,26.772
	c124.859,26.222,223.341,93.051,295.29,197.338c64.533,93.538,90.101,198.216,80.399,311.789
	c-10.014,117.219-54.001,220.3-126.216,312.151c-13.142,16.716-19.969,33.702-18.805,56.804
	c2.872,56.991-36.519,99.759-93.861,101.475c-24.817,0.743-42.124,8.746-57.931,26.051c-22.982,25.159-49.28,47.648-69.862,74.565
	c-45.791,59.883-62.55,130.321-63.107,204.329c-1.018,135.16-0.21,270.334-0.245,405.502c-0.004,13.36,0.516,26.857-1.141,40.048
	c-2.517,20.042-16.334,33.875-33.742,36.172c-17.101,2.256-38.895-12.068-43.918-30.787c-2.63-9.801-2.39-20.537-2.399-30.851
	c-0.135-150.023-2.903-300.116,0.88-450.044c2.585-102.431,42.148-192.599,114.75-266.698
	C1076.767,1185.102,1096.79,1165.286,1113.48,1148.535z M1254.251,1101.034c0.577-24.712-15.631-44.115-38.193-45.722
	c-24.362-1.736-48.602,17.272-50.541,39.631c-1.948,22.464,23.977,49.427,47.059,48.944
	C1235.785,1143.401,1253.692,1124.988,1254.251,1101.034z M955.366,299.856c25.814,0.476,45.617-18.734,45.209-43.856
	c-0.344-21.19-21.923-43.22-42.873-43.771c-24.426-0.642-43.255,19.349-43.37,46.048
	C914.22,284.104,929.291,299.375,955.366,299.856z M1521.965,449.449c-83.317-175.182-214.906-291.308-402.672-335.999
	C779.837,32.655,472.243,254.039,406.021,559.993c-25.806,119.23-15.258,235.458,29.294,348.985
	c8.897,22.671,20.788,33.749,47.378,37.838c65.207,10.026,99.77,65.032,80.242,127.745c-7.514,24.132-1.403,38.94,10.74,56.607
	c47.032,68.43,92.838,137.711,140.406,205.763c32.337,46.262,49.716,97.969,55.268,152.855c4.616,45.632,3.621,91.941,3.153,137.93
	c-0.233,22.83-15.231,36.715-35.439,38.341c-19.873,1.599-37.593-10.284-42.44-31.322c-2.947-12.79-2.202-26.48-2.672-39.782
	c-1.152-32.599-0.052-65.42-3.502-97.763c-5.447-51.071-28.077-95.692-57.112-137.608c-43.876-63.344-86.974-127.23-129.967-191.18
	c-11.321-16.839-24.168-25.965-46.098-28.946c-59.354-8.068-97.236-62.006-81.464-119.107c6.744-24.416,1.321-42.737-5.616-63.717
	c-14.816-44.809-31.122-89.331-42.437-135.054c-32.395-130.907-17.751-259.17,32.525-382.724
	c80.837-198.659,225.282-331.939,429.726-395.132c188.198-58.171,369.07-33.035,538.284,67.701
	c113.783,67.736,199.132,162.679,257.009,281.765c8.8,18.107,18.96,30.031,38.804,38.083
	c73.987,30.025,89.724,97.802,38.644,160.963c-8.979,11.103-14.077,20.762-11.971,35.838
	c15.656,112.066-9.67,218.728-50.102,321.489c-43.873,111.508-109.854,210.307-197.583,292.267
	c-57.05,53.298-85.98,118.82-103.349,192.291c-12.821,54.232-8.008,109.164-9.568,163.879c-0.378,13.257,0.214,27.023-3.178,39.602
	c-5.203,19.298-21.408,29.349-40.231,28.523c-18.382-0.806-34.288-13.141-35.207-33.633c-5.893-131.398-4.552-261.912,73.47-376.746
	c15.691-23.094,34.887-44.276,54.854-63.914c91.282-89.775,160.648-193.276,202.19-314.904
	c24.779-72.548,33.499-147.195,30.109-223.422c-0.863-19.414-5.61-35.021-25.712-47.381c-53.627-32.973-64.02-82.042-33.486-137.285
	C1513.832,463.691,1516.78,458.599,1521.965,449.449z M1593.889,567.968c25.372-1.028,43.146-20.165,43.022-46.319
	c-0.12-25.092-20.657-44.935-44.965-43.447c-24.51,1.501-46.136,23.779-44.555,45.899
	C1549.094,547.944,1571.29,568.883,1593.889,567.968z M470.195,1001.126c-24.956-0.695-46.139,19.738-45.515,43.905
	c0.575,22.281,20.36,40.634,44.146,40.952c25.387,0.339,43.731-15.776,44.548-39.134
	C514.299,1020.398,496.799,1001.867,470.195,1001.126z"/>
</svg>
