<?xml version="1.0" encoding="iso-8859-1"?>
<!-- Generator: Adobe Illustrator 19.0.0, SVG Export Plug-In . SVG Version: 6.00 Build 0)  -->
<svg version="1.1" id="Layer_1" xmlns="http://www.w3.org/2000/svg" xmlns:xlink="http://www.w3.org/1999/xlink" x="0px" y="0px"
	 viewBox="0 0 2000 2000" style="enable-background:new 0 0 2000 2000;" xml:space="preserve">
<path d="M929.865,1986.95c-51.253-28.625-98.254-54.025-144.438-80.833c-126.677-73.529-252.923-147.8-379.518-221.47
	c-57.61-33.525-115.761-66.119-173.452-99.504c-82.917-47.983-118.236-121.439-116.758-215.713
	c2.1-134.008,3.732-268.036,3.841-402.057c0.087-107.018-1.767-214.051-3.932-321.053c-1.908-94.338,28.592-170.867,113.69-220.082
	c59.422-34.365,118.294-69.68,182.679-107.68c0,27.661,0.007,48.45-0.001,69.239c-0.076,204.33,0.027,408.661-0.331,612.991
	c-0.126,71.901,3.154,144.204-3.209,215.603c-9.046,101.508,40.238,160.609,124.072,205.956
	c133.814,72.382,265.057,149.517,397.357,224.626C929.865,1759.639,929.865,1869.643,929.865,1986.95z M1598.637,325.669
	c0,21.886-0.051,43.772,0.008,65.658c0.479,178.135,0.9,356.269,1.5,534.404c0.358,106.227,0.725,212.454,1.632,318.677
	c0.548,64.139-19.858,116.537-78.752,149.168c-39.707,22-79.339,44.156-118.573,66.984
	c-108.943,63.386-217.66,127.16-327.578,191.43c0,109.153,0,219.546,0,334.323c27.958-14.041,52.484-24.727,75.408-38.15
	c107.847-63.152,214.846-127.757,322.938-190.483c97.681-56.684,196.74-110.992,294.466-167.598
	c40.956-23.723,82.624-50.252,99.422-96.771c13.585-37.622,24.228-78.473,25.045-118.122c2.186-106.088-2.879-212.3-2.718-318.46
	c0.211-139.707,3.758-279.41,3.702-419.114c-0.029-73.238-15.393-143.56-80.692-187.801
	c-67.686-45.858-138.889-86.524-208.554-129.461C1603.472,322.125,1601.054,323.897,1598.637,325.669z M1339.277,1079.686
	c-80.344-46.382-160.242-93.593-241.555-138.22c-61.953-34.002-126.04-31.107-187.892,1.387
	c-53.523,28.118-106.203,57.932-158.39,88.477c-66.841,39.123-132.814,79.729-199.256,119.753c0,38.156,0,75.711,0,115.744
	c150.281,86.854,301.195,174.074,453.52,262.11c152.026-87.804,302.999-175.001,454.226-262.344c0-39.54,0-77.036,0-115.926
	C1418.441,1126.231,1379.042,1102.641,1339.277,1079.686z M1458.249,692.011c-30.88-18.37-61.225-36.8-91.927-54.613
	c-88.029-51.075-175.391-103.379-264.594-152.324c-63.985-35.109-130.577-33.704-195.068,1.128
	c-49.726,26.857-98.897,54.792-147.696,83.306c-69.066,40.355-137.563,81.683-204.919,121.772c0,113.18,0,224.351,0,339.523
	c52.32-29.566,101.594-56.856,150.327-85.079c74.125-42.929,147.751-86.718,221.825-129.734
	c50.557-29.359,101.713-32.936,153.461-2.164c15.911,9.461,33.007,16.914,49.038,26.188
	c101.502,58.721,202.839,117.727,304.3,176.52c7.31,4.236,15.17,7.525,25.253,12.471
	C1458.249,914.349,1458.249,803.655,1458.249,692.011z M1393.196,201.684c-95.57-55.714-190.117-113.316-287.338-165.984
	c-30.894-16.736-69.039-28.211-103.647-27.683c-34.581,0.528-71.687,13.918-102.78,30.74
	C812.243,85.928,727.576,137.76,641.935,187.79c-30.398,17.758-60.736,35.621-88.468,51.891c0,114.108,0,223.97,0,337.975
	c23.013-12.404,43.557-22.766,63.419-34.303c99.122-57.578,198.548-114.658,296.898-173.533
	c63.422-37.966,123.411-36.883,186.647,1.848c97.084,59.461,196.095,115.788,294.545,173.002
	c19.781,11.496,40.712,21.012,63.48,32.651c0-114.349,0-224.447,0-337.417C1437.613,227.695,1415.43,214.646,1393.196,201.684z"/>
</svg>
