<?xml version="1.0" encoding="iso-8859-1"?>
<!-- Generator: Adobe Illustrator 19.0.0, SVG Export Plug-In . SVG Version: 6.00 Build 0)  -->
<svg version="1.1" id="Layer_1" xmlns="http://www.w3.org/2000/svg" xmlns:xlink="http://www.w3.org/1999/xlink" x="0px" y="0px"
	 viewBox="0 0 500 500" enable-background="new 0 0 500 500" xml:space="preserve">
<path d="M213.891,273.171c-25.012-2.705-48.834,5.181-72.771,23.563C95.897,262.746,50.631,228.727,2.894,192.85
	c5.814,0,8.519,0.01,11.225-0.001c44.58-0.185,89.162-0.25,133.74-0.634c13.175-0.114,26.461-0.263,39.472-2.043
	c8.319-1.138,16.297-5.106,24.305-8.13c56.192-21.22,112.355-42.516,168.519-63.808c17.271-6.548,34.517-13.162,52.676-18.106
	c-44.349,37.291-88.698,74.581-134.748,113.302c4.393,2.605,7.67,5.316,11.434,6.635c10.626,3.721,13.625,8.629,14.97,19.644
	c2.018,16.523,4.539,33.091,8.447,49.253c5.998,24.807,13.357,49.286,20.314,74.54c-17.539,0.957-35.172,1.734-52.772,2.973
	c-6.757,0.476-11.686-2.648-14.353-7.786c-11.16-21.497-28.135-36.53-48.757-48.788
	C224.284,302.126,217.628,288.399,213.891,273.171z M286.571,231.818c-5.141,25.994-2.867,29.875,19.585,35.523
	C308.156,245.127,303.734,236.778,286.571,231.818z M97.774,477.8c48.316-34.74,96.631-69.481,145.352-104.513
	c48.974,35.195,97.607,70.144,148.678,106.846c-10.251-32.156-19.64-61.608-28.97-90.875c-20.126,0-39.547-0.966-58.825,0.281
	c-18.004,1.165-30.72-4.357-39.751-20.448c-5.723-10.197-10.219-21.95-21.508-28.006c-19.472-10.447-35.772-24.207-45.663-44.025
	c-2.662,0-4.508-0.506-5.9,0.075c-24.381,10.177-46.828,20.674-54.789,50.654c-11.466,43.177-26.62,85.375-40.2,127.991
	C96.724,476.453,97.249,477.127,97.774,477.8z M495.428,191.309c-14.065,0-24.977,0.081-35.888-0.015
	c-30.473-0.268-60.946-0.702-91.419-0.793c-3.444-0.01-7.573,0.852-10.206,2.858c-6.745,5.139-12.826,11.15-18.22,15.963
	c2.519,8.743,5.295,16.293,6.819,24.089c3.591,18.366,6.586,36.849,10.239,57.662C403.64,257.342,448.489,225.077,495.428,191.309z
	 M280.243,129.631c-12.499-35.332-24.675-69.748-37.751-106.71c-15.45,47.101-30.043,91.588-45.519,138.767
	C226.315,150.392,253.021,140.111,280.243,129.631z"/>
</svg>
