<?xml version="1.0" encoding="utf-8"?>
<!-- Generator: Adobe Illustrator 25.1.0, SVG Export Plug-In . SVG Version: 6.00 Build 0)  -->
<svg version="1.1" id="ult" xmlns="http://www.w3.org/2000/svg" xmlns:xlink="http://www.w3.org/1999/xlink" x="0px" y="0px"
	 viewBox="0 0 500 500" style="enable-background:new 0 0 500 500;" xml:space="preserve">
<style type="text/css">
	.st0{fill-rule:evenodd;clip-rule:evenodd;}
</style>
<path class="st0" d="M480.2,2.5L480.2,2.5h-0.1H356.9h-2.1v91.4v29.7v142.3c-2.1,55.2-48.9,99.8-104.1,99.8c-1.2,0-2.4,0-3.6-0.1
	c-0.4,0-0.9,0-1.3,0c-0.6,0-1.1-0.1-1.7-0.1c-52.3-3.4-95.5-46.6-97.5-99.6V123.6V93.9V2.5H21.3v265.6
	c0,125.3,102,229.4,229.4,229.4c122.1,0,224-96.8,229.2-219.6c0.2-4,0.3-8,0.3-12V2.5z"/>
</svg>
