<?xml version="1.0" encoding="iso-8859-1"?>
<!-- Generator: Adobe Illustrator 19.0.0, SVG Export Plug-In . SVG Version: 6.00 Build 0)  -->
<svg version="1.1" id="Layer_1" xmlns="http://www.w3.org/2000/svg" xmlns:xlink="http://www.w3.org/1999/xlink" x="0px" y="0px"
	 viewBox="0 0 2000 2000" style="enable-background:new 0 0 2000 2000;" xml:space="preserve">
<path d="M992.912,29.886c526.887-3.497,981.779,431.402,965.819,995.078c-7.159,252.827-101.661,471.764-280.288,651.138
	c-189.835,190.628-422.026,286.273-690.812,285.613c-524.25-1.286-974.065-430.224-960.575-993.616
	C39.211,460.477,455.753,29.22,992.912,29.886z M994.09,117.23c-161.397-0.582-311.422,40.78-449.469,123.145
	c-136.774,81.605-244.271,192.612-321.403,332.38C155.95,694.648,119.022,825.468,115.171,964.381
	c-6.828,246.266,74.315,461.08,244.544,638.81C528.419,1779.327,738,1870.398,981.792,1873.674
	c239.585,3.219,448.552-80.131,620.908-246.69c169.227-163.534,260.677-365.392,267.82-600.89
	c8.021-264.467-85.76-490.261-278.734-671.838C1424.471,196.823,1223.582,119.892,994.09,117.23z M1818.417,992.4
	c-2.447,229.421-81.784,425.48-242.395,585.835c-169.548,169.277-376.853,250.336-616.129,241.546
	c-213.887-7.857-398.512-89.685-549.585-241.243c-154.972-155.471-236.668-344.237-241.465-564.633
	c-4.748-218.147,66.067-409.628,212.43-570.586c168.35-185.139,380.515-277.38,630.599-272.499
	c222.73,4.347,414.618,88.693,570.471,248.124C1738.105,578.279,1815.567,771.442,1818.417,992.4z M898.524,853.998
	c2.462,3.023,3.406,3.868,3.969,4.918c19.939,37.19,39.972,74.331,59.722,111.621c38.989,73.616,77.927,147.259,116.52,221.082
	c3.288,6.289,7.045,8.696,13.686,8.603c14.334-0.2,28.672-0.057,43.009-0.055c7.505,0.001,15.009,0,23.077,0
	c0-139.56,0-277.377,0-415.346c-17.965,0-35.408,0-54.51,0c0,114.568,0,228.458,0,342.348c-0.622,0.025-1.245,0.051-1.867,0.076
	c-60.671-114.423-121.342-228.845-181.677-342.634c-25.996,0-50.909,0-76.125,0c0,138.522,0,276.539,0,414.636
	c18.61,0,36.039,0,54.196,0C898.524,1084.409,898.524,970.493,898.524,853.998z M1271.679,1199.239
	c3.088,0.411,4.995,0.886,6.903,0.888c48.322,0.036,96.661,0.791,144.956-0.351c19.91-0.471,40.194-3.198,59.474-8.149
	c32.52-8.35,59.121-26.335,73.433-58.051c10.247-22.708,12.993-46.928,8.695-71.602c-5.353-30.731-19.94-55.795-47.437-71.695
	c-10.707-6.191-22.608-10.318-34.326-15.546c27.575-6.377,49.1-20.437,59.079-47.388c8.276-22.352,9.225-45.598,3.327-69.025
	c-4.658-18.501-13.768-33.995-28.694-45.93c-25.38-20.295-55.143-27.786-86.807-28.117c-49.334-0.515-98.678-0.136-148.017-0.136
	c-3.521,0-7.042,0-10.585,0C1271.679,923.077,1271.679,1060.641,1271.679,1199.239z M418.958,784.537c0,5.778,0,10.408,0,15.037
	c0.003,74.357-0.467,148.719,0.279,223.069c0.245,24.378,1.68,49.08,6.008,73.012c9.293,51.383,38.209,87.38,89.349,103.001
	c34.434,10.518,69.464,11.954,104.98,5.721c37.493-6.58,69.217-22.104,91.379-54.461c21.648-31.607,27.122-67.668,27.547-104.367
	c0.949-82.015,0.299-164.049,0.3-246.075c0-4.83,0-9.661,0-14.673c-20.295,0-38.766,0-57.799,0c0,2.614,0,4.566,0,6.518
	c-0.003,82.021,0.219,164.044-0.194,246.063c-0.086,17.086-1.128,34.412-4.169,51.186c-6.125,33.782-23.685,58.91-58.538,68.746
	c-22.366,6.311-45.099,6.706-67.726,2.534c-15.928-2.937-30.965-8.733-43.157-20.228c-22.848-21.541-29.476-50.059-29.92-79.183
	c-1.299-85.322-0.662-170.674-0.782-256.015c-0.009-6.539-0.001-13.078-0.001-19.884
	C456.785,784.537,438.558,784.537,418.958,784.537z M1345.433,1153.919c35.474-1.183,71.155-0.508,106.349-4.31
	c26.626-2.876,46.738-19.105,52.171-46.82c2.912-14.857,2.397-30.789,0.957-46.001c-2.203-23.257-15.801-40.114-37.342-47.877
	c-14.545-5.242-30.643-7.621-46.183-8.337c-27.92-1.288-55.942-0.379-83.921-0.342c-3.203,0.004-6.406,0.308-9.928,0.489
	c0,51.085,0,101.283,0,153.224C1334.256,1153.945,1339.85,1154.105,1345.433,1153.919z M1328,954.082
	c4.986,0.308,9.998,0.843,15.013,0.867c5.267,0.025,10.534-0.535,15.806-0.671c27.368-0.707,54.912,0.359,82.065-2.422
	c44.539-4.562,59.349-43.373,48.69-80.656c-8.269-28.925-32.462-39.019-60.901-40.609c-33.183-1.855-66.549-0.433-100.673-0.433
	C1328,871.121,1328,911.799,1328,954.082z"/>
</svg>
