<?xml version="1.0" encoding="iso-8859-1"?>
<!-- Generator: Adobe Illustrator 19.0.0, SVG Export Plug-In . SVG Version: 6.00 Build 0)  -->
<svg version="1.1" id="Layer_1" xmlns="http://www.w3.org/2000/svg" xmlns:xlink="http://www.w3.org/1999/xlink" x="0px" y="0px"
	 viewBox="0 0 2000 2000" style="enable-background:new 0 0 2000 2000;" xml:space="preserve">
<path d="M196.49,1120.121c-63.536,0-122.811,0-187.015,0c0-100.375,0-196.747,0-296.754c62.409,0,122.835,0,185.094,0
	c0-42.196,0-80.877,0-125.933c-59.982,0-121.048,0-185.569,0C9,594.251,9,497.429,9,396.5c63.747,0,123.973,0,186.853,0
	c0-117.489,0-230.926,0-348.652c139.578,0,276.532,0,420.506,0c2.075,12.954,6.759,28.981,6.869,45.04
	c0.685,99.9,0.345,199.808,0.345,302.915c229.82,0,457.846,0,688.341,0c0,100.23,0,197.274,0,299.422
	c-229.849,0-459.031,0-689.354,0c0,44.549,0,83.951,0,127.569c231.011,0,459.106,0,689.489,0c0,99.126,0,194.036,0,294.642
	c-228.875,0-457.828,0-689.887,0c-4.243,59.29,1.833,111.785,20.903,161.979c51.612,135.849,157.605,203.537,294.147,234.094
	c107.42,24.04,215.194,24.001,320.639-2.442c149.819-37.57,264.437-128.375,296.04-295.296c8.858-46.788,4.507-96.268,4.502-144.513
	c-0.036-328.855-0.58-657.71-0.671-986.565c-0.003-12.127,2.994-24.255,4.736-37.473c141.235,0,279.341,0,421.294,0
	c0,17.418,0,30.952,0,44.486c0,372.579,3.818,745.209-1.199,1117.72c-4.072,302.298-189.866,589.023-502.573,691.12
	c-109.919,35.888-221.837,57.006-337.468,53.486c-98.428-2.996-198.468,0.844-294.81-15.713
	c-264.464-45.449-468.783-178.499-582.417-431.192c-49.601-110.3-75.969-224.875-68.884-346.311
	C197.066,1149.42,196.49,1137.952,196.49,1120.121z"/>
</svg>
