<?xml version="1.0" encoding="iso-8859-1"?>
<!-- Generator: Adobe Illustrator 19.0.0, SVG Export Plug-In . SVG Version: 6.00 Build 0)  -->
<svg version="1.1" id="Layer_1" xmlns="http://www.w3.org/2000/svg" xmlns:xlink="http://www.w3.org/1999/xlink" x="0px" y="0px"
	 viewBox="0 0 2000 2000" style="enable-background:new 0 0 2000 2000;" xml:space="preserve">
<path d="M1976.155,999.326c-4.509,535.081-435.396,981.603-993.4,973.12c-518.903-7.889-965.561-431.251-956.566-994.18
	c8.268-517.425,431.365-964.921,995.88-954.62C1541.374,33.122,1971.202,454.41,1976.155,999.326z M1086.963,963.168
	c6.02,4.37,8.381,5.279,9.478,6.995c83.24,130.207,166.02,260.711,250.126,390.355c7.778,11.99,23.173,24.744,36.363,26.376
	c31.224,3.862,63.25,1.297,94.951,1.218c16.849-0.042,25.345-8.153,25.199-25.508c-0.26-30.886,0.005-61.776,0.036-92.665
	c0.125-124.347,0.011-248.696,0.574-373.041c0.106-23.417-10.439-31.483-32.792-30.924c-37.368,0.934-74.777,0.242-112.168,0.258
	c-32.895,0.014-40.996,8.119-41.06,41.328c-0.071,36.69-0.016,73.379-0.016,115.354c-7.353-10.195-11.275-15.118-14.652-20.39
	c-82.523-128.851-165.255-257.57-247.11-386.845c-9.788-15.459-21.636-23.238-38.922-23.58c-25.95-0.513-51.92-0.869-77.868-0.445
	c-34.003,0.556-40.929,8.024-40.933,42.205c-0.019,167.45,0.026,334.899-0.033,502.348c-0.015,42.604-21.97,71.808-63.937,80.865
	c-20.222,4.364-41.536,4.928-62.362,4.991c-57.69,0.175-93.162-35.792-93.17-93.135c-0.022-165.011,0.002-330.022-0.018-495.033
	c-0.004-33.18-9.624-43.355-43.073-43.873c-33.319-0.516-66.67-0.783-99.976,0.07c-38.487,0.986-42.634,5.707-42.624,44.167
	c0.047,173.95-0.399,347.903,0.561,521.848c0.537,97.373,46.851,168.573,132.694,212.372c91.481,46.676,188.184,47.4,283.914,17.6
	c84.859-26.416,147.24-83.042,165.839-171.745c11.951-56.998,8.224-117.34,10.807-176.215
	C1087.834,1014.354,1086.963,990.505,1086.963,963.168z M1413.435,593.074c-20.304,0-40.61-0.158-60.913,0.04
	c-24.844,0.243-35.923,9.823-36.599,34.632c-0.995,36.499-0.94,73.052-0.255,109.561c0.446,23.739,12.749,35.717,36.603,36.072
	c39.788,0.592,79.595,0.505,119.386,0.039c24.481-0.287,36.013-12.809,36.173-38.241c0.225-35.734,0.224-71.472-0.003-107.206
	c-0.152-23.946-11.137-34.521-35.915-34.846C1452.422,592.869,1432.927,593.074,1413.435,593.074z"/>
</svg>
