<?xml version="1.0" encoding="iso-8859-1"?>
<!-- Generator: Adobe Illustrator 19.0.0, SVG Export Plug-In . SVG Version: 6.00 Build 0)  -->
<svg version="1.1" id="Layer_1" xmlns="http://www.w3.org/2000/svg" xmlns:xlink="http://www.w3.org/1999/xlink" x="0px" y="0px"
	 viewBox="0 0 2000 2000" style="enable-background:new 0 0 2000 2000;" xml:space="preserve">
<path d="M1973.032,1000.337c1.012,544.207-445.261,991.502-1002.316,979.001c-535.063-12.007-963.043-453.5-956.162-995.092
	C21.223,459.312,460.833-6.651,1045.572,21.397C1552.029,45.691,1973.761,465.659,1973.032,1000.337z M995.159,110.07
	c-484.407-4.411-898.376,394.384-891.738,901.768c6.307,482.093,392.626,867.971,869.056,878.324
	c513.918,11.168,908.221-400.743,912.217-882.024C1888.85,507.576,1480.867,107.151,995.159,110.07z M993.928,1835.428
	c-451.583,4.924-857.733-376.856-835.594-876.327c18.653-420.814,368.617-803.904,854.952-795.751
	c438.91,7.358,836.884,374.953,816.102,876.984C1811.829,1464.509,1456.542,1836.741,993.928,1835.428z M799.658,863.954
	c0-100.292,0-199.263,0-298.507c-70.638,0-139.32,0-210.339,0c0,99.951,0,198.857,0,299.523c-59.433,0-116.55,0-173.781,0
	c0,39.792,0,77.759,0,117.217c58.98,0,116.189,0,173.911,0c0,20.874,0,40.207,0,61.64c-58.764,0-116.514,0-174.292,0
	c0,40.105,0,78.069,0,117.294c59.048,0,116.335,0,175.809,0c2.241,105.749,41.704,196.252,113.519,270.662
	c72.659,75.285,163.623,116.476,268.56,121.981c99.579,5.224,189.949-23.439,268.445-85.026
	c99.169-77.807,149.627-181.64,156.395-308.683c59.338,0,117.141,0,175.075,0c0-39.381,0-76.769,0-116.713
	c-59.076,0-116.754,0-174.168,0c0-21.92,0-41.239,0-62.129c58.53,0,115.708,0,173.905,0c0-39.581,0-77.547,0-117.239
	c-58.615,0-115.765,0-175.175,0c0-100.603,0-199.493,0-298.582c-71.003,0-139.698,0-210.17,0c0,99.92,0,198.861,0,298.562
	C1057.964,863.954,930.359,863.954,799.658,863.954z M1007.119,1342.931c106.195-7.376,180.091-99.053,176.797-181.689
	c-126.715,0-253.449,0-381.688,0C807.144,1269.131,901.798,1350.247,1007.119,1342.931z M801.718,982.712
	c0,20.526,0,39.929,0,60.623c128.478,0,256.233,0,384.602,0c0-21.109,0-40.529,0-60.623
	C1056.756,982.712,929.533,982.712,801.718,982.712z"/>
</svg>
