<?xml version="1.0" encoding="iso-8859-1"?>
<!-- Generator: Adobe Illustrator 19.0.0, SVG Export Plug-In . SVG Version: 6.00 Build 0)  -->
<svg version="1.1" id="Layer_1" xmlns="http://www.w3.org/2000/svg" xmlns:xlink="http://www.w3.org/1999/xlink" x="0px" y="0px"
	 viewBox="0 0 2000 2000" style="enable-background:new 0 0 2000 2000;" xml:space="preserve">
<path d="M1686.321,1470.541c-282.794,167.071-585.068,206.891-903.765,161.715c7.383-1.701,14.762-3.419,22.15-5.098
	c7.489-1.702,14.988-3.357,22.479-5.048c97.364-21.976,184.618-63.316,255.045-135.598
	c135.465-139.035,123.422-354.808-26.415-478.071c-79.176-65.134-172.755-94.129-272.613-104.755
	c-114.554-12.19-229.604-20.033-343.914-34.042c-41.813-5.125-84.318-17.705-122.694-35.233
	C213.18,787.177,201.1,670.642,290.368,599.883c61.841-49.019,135.008-67.039,211.892-71.458
	c147.845-8.498,285.009,27.498,412.427,102.195c118.513,69.476,220.269,159.524,315.156,257.783
	C1400.574,1065.199,1544.241,1263.273,1686.321,1470.541z M13.83,983.295c0.103,165.633,76.235,292.87,208.265,386.657
	c143.958,102.26,306.827,143.115,482.357,131.178c82.168-5.588,159.9-27.843,226.471-79.508
	c62.56-48.552,95.495-111.404,85.879-191.635c-9.74-81.258-61.938-130.827-135.014-154.472
	c-59.992-19.412-123.162-31.254-185.835-39.625c-105.392-14.077-212.106-18.772-317.174-34.633
	C233.129,979.27,115.07,917.668,75.843,752.438C34.815,827.684,13.781,903.206,13.83,983.295z M638.079,389.847
	c20.761,3.082,34.573,4.846,48.273,7.242c15.116,2.644,30.187,5.609,45.181,8.879c196.092,42.753,361.095,144.082,511.158,272.824
	c188.024,161.309,340.308,353.676,480.527,556.373c6.353,9.183,12.734,18.347,24.098,34.717c0-238.942,0-467.87,0-698.5
	C1455.865,339.622,964.636,296.055,638.079,389.847z M1898.82,1262.865c115.298-144.805,123.164-372.474,0-535.055
	C1898.82,908.688,1898.82,1084.536,1898.82,1262.865z"/>
</svg>
