<?xml version="1.0" encoding="iso-8859-1"?>
<!-- Generator: Adobe Illustrator 19.0.0, SVG Export Plug-In . SVG Version: 6.00 Build 0)  -->
<svg version="1.1" id="Layer_1" xmlns="http://www.w3.org/2000/svg" xmlns:xlink="http://www.w3.org/1999/xlink" x="0px" y="0px"
	 viewBox="0 0 500 500" enable-background="new 0 0 500 500" xml:space="preserve">
<path d="M492.538,491.746c-161.829,0-322.657,0-483.444,0C7.64,485.668,7.052,25.3,8.438,9.365C8.613,9.157,8.758,8.91,8.97,8.752
	c0.204-0.151,0.477-0.295,0.719-0.295c156.536-0.091,313.071-0.17,469.607-0.249c4.051-0.002,8.102,0,11.795,0
	c0.53,0.632,0.718,0.83,0.876,1.05c0.152,0.212,0.392,0.447,0.392,0.672c0.071,158.711,0.125,317.422,0.179,476.133
	C492.538,487.652,492.538,489.241,492.538,491.746z M481.529,20.699c-0.773-0.427-1.232-0.903-1.692-0.903
	c-150.345-0.074-300.69-0.117-451.034-0.149c-2.709-0.001-5.418,0.128-8.126,0.227c-0.223,0.008-0.453,0.239-0.65,0.403
	c-0.207,0.172-0.378,0.388-0.362,0.371c0,153.714,0,307.214,0,460.643c9.968,1.328,455.792,1.016,461.864-0.303
	C481.529,327.533,481.529,174.03,481.529,20.699z M100.368,175.495c0,36.613,0.117,73.228-0.069,109.84
	c-0.058,11.455,0.975,22.767,3.563,33.843c4.141,17.718,13.59,31.727,30.395,39.926c9.58,4.674,19.729,6.936,30.368,8.032
	c17.224,1.775,34.063,0.996,50.274-5.384c16.705-6.574,28.917-18.069,34.883-35.181c3.376-9.681,5.448-19.807,5.462-30.193
	c0.056-41.766,0.106-83.532,0.111-125.298c0-1.496-0.504-2.992-0.793-4.6c-8.255-0.219-16.001-0.229-24.215-0.048
	c0,3.626,0.02,6.309-0.003,8.992c-0.325,37.664-0.684,75.327-0.967,112.991c-0.067,8.984-1.184,17.759-3.505,26.467
	c-3.685,13.826-12.376,22.725-25.973,26.382c-14.04,3.776-28.424,4.456-42.521,0.501c-16.035-4.499-25.903-15.429-28.943-31.786
	c-1.424-7.658-1.895-15.581-1.954-23.39c-0.275-36.881-0.258-73.763-0.344-110.645c-0.007-2.926-0.001-5.851-0.001-9.184
	c-8.736,0-16.737,0-25.767,0C100.368,170.119,100.368,172.807,100.368,175.495z M299.36,355.413c0-19.537-0.133-39.076,0.063-58.611
	c0.084-8.372,0.31-16.811,1.429-25.09c2.054-15.209,7.361-25.842,25.326-31.131c5.049-1.487,10.726-1.39,16.081-1.174
	c12.041,0.486,21.023,8.135,23.581,19.814c0.919,4.196,1.494,8.556,1.518,12.846c0.156,27.948,0.117,55.897,0.141,83.845
	c0.002,2.633,0,5.266,0,8.097c8.549,0,16.244,0,24.427,0c0-2.915,0-5.328,0-7.741c0-29.034,0.007-58.069-0.009-87.103
	c-0.002-3.255,0.164-6.547-0.245-9.758c-2.978-23.379-12.274-32.672-29.406-38.777c-8.297-2.957-17.036-2.991-25.724-2.421
	c-13.282,0.871-24.535,6.118-33.55,16.012c-1.501,1.647-3.116,3.192-5.048,5.16c-1.426-6.372,0.567-12.161-1.45-17.84
	c-7.141,0.19-14.078-0.93-20.832,0.611c-1.575,18.961-0.889,135.933,0.87,142.059c7.154,0,14.398,0,22.829,0
	C299.36,360.784,299.36,358.098,299.36,355.413z M189.237,81.137c-0.815,6.412-1.228,12.907-2.526,19.22
	c-2.966,14.434-14.907,21.864-29.134,18.384c-7.103-1.737-12.199-6.381-14.385-13.125c-5.127-15.822-5.687-31.977-0.371-47.856
	c4.323-12.914,16.527-18.366,29.361-14.011c4.838,1.641,8.427,4.616,10.941,9.051c2.984,5.263,4.711,10.914,5.16,16.896
	c0.283,3.769,0.053,7.576,0.053,11.366C188.636,81.086,188.936,81.111,189.237,81.137z M179.881,81.039
	c-0.2-0.038-0.399-0.077-0.599-0.115c-0.212-4.332-0.077-8.719-0.742-12.981c-0.573-3.678-1.49-7.522-3.249-10.752
	c-4.485-8.24-15.629-9.312-21.11-2.214c-1.446,1.872-2.53,4.242-3.081,6.55c-3.004,12.568-2.876,25.221-0.389,37.861
	c0.308,1.566,0.951,3.11,1.677,4.544c5.123,10.109,16.381,10.866,22.726,1.506c0.886-1.307,1.63-2.88,1.88-4.421
	C178.071,94.376,178.938,87.701,179.881,81.039z M98.923,61.972c2.102-9.692,9.424-13.126,19.206-11.147
	c7.705,1.559,11.833,9.625,8.821,16.996c-1.297,3.173-3.269,6.309-5.663,8.744c-5.49,5.582-11.56,10.589-17.143,16.086
	c-4.596,4.526-9.062,9.231-13.133,14.226c-2.281,2.799-3.97,6.27-2.948,10.479c16.527,0,32.666,0,49.048,0c0-2.834,0-5.307,0-8.273
	c-11.997,0-23.356,0.003-34.716-0.018c-0.232,0-0.522-0.218-0.676-0.418c-0.118-0.153-0.062-0.439-0.159-1.465
	c3.178-2.942,6.728-6.215,10.262-9.506c6.134-5.712,12.556-11.157,18.257-17.273c2.829-3.035,4.934-7.103,6.304-11.071
	c3.693-10.696-1.877-21.87-12.586-25.213c-4.026-1.257-8.499-1.623-12.748-1.528c-12.526,0.279-19.828,7.494-21.581,21.513
	c2.726,0.425,5.487,0.855,8.801,1.371C98.631,63.532,98.755,62.747,98.923,61.972z M239.807,455.497
	c-3.13,1.358-5.315,0.486-6.911-2.741c-7.897,4.028-15.968,6.661-24.074,0.668c-4.565,5.021-7.341,4.855-13.841-1.207
	c0-8.85,0-18.273,0-27.59c-1.917-0.911-3.309-1.572-4.714-2.239c0-0.959,0-1.764,0-2.863c1.299-0.57,2.701-1.186,4.478-1.966
	c0-2.589,0-5.243,0-8.142c1.879-1.29,3.586-2.462,6.119-4.201c0,4.522,0,8.177,0,12.163c2.361,0.743,4.277,1.346,6.418,2.02
	c0,1.025,0,2.014,0,3.299c-1.834,0.431-3.587,0.843-5.649,1.327c0,8.719,0,17.272,0,26.202c1.411,0.342,2.593,0.629,3.537,0.857
	c0.526-0.554,0.855-0.735,0.879-0.95c1.318-11.68,3.902-14.185,15.414-15.438c3.447-0.375,6.835-1.285,10.332-1.965
	c1.659-3.279,0.989-5.851-1.984-8.97c-3.53,0-7.708,0-12.02,0c-1.588,2.002-3.08,3.882-4.817,6.072
	c-1.294-0.098-2.819-0.212-4.095-0.309c-0.42-0.965-0.881-1.493-0.797-1.91c1.113-5.496,4.811-8.337,10.092-9.046
	c3.436-0.461,7.022-0.817,10.42-0.346c7.891,1.092,10.143,3.903,10.293,11.805c0.082,4.332-0.094,8.671,0.052,13
	C239.074,447.038,239.485,451.04,239.807,455.497z M212.546,445.726c4.364,6.672,7.72,7.846,13.668,5.342
	c5.519-2.323,7.117-6.123,5.193-13.432C225.533,441.137,216.686,436.891,212.546,445.726z M63.259,60.573c0,7.081,0,13.281,0,19.481
	c0,6.23-0.149,12.465,0.042,18.69c0.189,6.137-0.86,12.354,0.8,18.953c2.795-0.138,5.363-0.264,8.123-0.401
	c0-25.125,0-49.635,0-74.405c-2.218,0-4,0-5.77,0c-5.088,8.741-13.15,13.728-21.242,18.614c0,2.654,0,5.045,0,9.125
	C51.65,67.043,57.093,64.009,63.259,60.573z M331.18,421.804c-0.717-0.984-1.445-1.984-2.356-3.235
	c-1.135,0.209-2.345,0.431-3.632,0.668c0,12.111-0.01,23.734,0.042,35.357c0.002,0.413,0.628,0.824,1.136,1.448
	c1.349-0.152,2.839-0.319,4.759-0.535c0-3.498-0.022-6.443,0.005-9.388c0.043-4.603-0.193-9.235,0.253-13.8
	c0.778-7.976,5.666-10.464,14.2-7.162c4.274,9.641,0.377,20.495,2.776,30.85c1.665-0.103,2.906-0.18,4.724-0.293
	c0-6.396-0.068-12.304,0.033-18.209c0.041-2.408,0.093-4.911,0.753-7.194c2.19-7.575,8.199-9.095,15.569-3.269
	c0,9,0,18.658,0,28.836c2.535-0.155,4.224-0.259,6.232-0.382c0-9.185,0.176-17.832-0.051-26.467
	c-0.212-8.07-5.732-12.629-13.43-10.902c-3.274,0.734-6.243,2.823-10.064,4.635C344.829,416.241,341.036,416.034,331.18,421.804z
	 M41.676,431.937c0.004,2.708-0.009,5.42,0.119,8.124c0.352,7.441,3.576,13.03,10.864,15.519
	c17.023,5.814,29.383-2.752,29.735-20.609c0.171-8.665,0.061-17.336,0.002-26.003c-0.01-1.532-0.397-3.061-0.662-4.968
	c-2.182,0.292-3.911,0.523-5.865,0.785c0,9.408,0.264,18.348-0.091,27.263c-0.243,6.09-0.114,12.576-5.601,16.971
	c-3.058,0.746-5.933,1.447-8.479,2.068c-11.941-3.074-13.397-4.912-13.458-16.814c-0.035-6.772,0.011-13.544-0.017-20.316
	c-0.013-3.16-0.117-6.319-0.179-9.418c-1.595-0.236-2.375-0.447-3.154-0.441c-0.766,0.006-1.531,0.231-3.216,0.514
	C41.671,414.1,41.662,423.019,41.676,431.937z M166.605,453.887c-3.324,1.17-5.327,1.874-8.334,2.932
	c-0.848-18.006-0.172-34.88-0.379-52.083c1.507-0.286,2.495-0.603,3.488-0.619c0.741-0.012,1.489,0.364,2.837,0.732
	c0,5.291,0,10.604,0,16.94c2.441-1.258,3.901-2.164,5.472-2.795c8.133-3.269,16.782,0.418,19.862,8.641
	c1.915,5.112,2.671,10.313,1.011,15.825C186.737,456.161,177.166,460.086,166.605,453.887z M185.545,438.16
	c-0.661-3.159-1.007-5.551-1.674-7.849c-1.24-4.272-4.027-6.947-8.607-7.253c-4.605-0.308-7.699,2.124-9.523,6.086
	c-2.613,5.676-2.614,11.556,0.092,17.148c3.318,6.857,12.215,7.437,16.323,0.963C183.946,444.432,184.573,440.872,185.545,438.16z
	 M121.168,437.579c0.084-1.619,0.084-3.246,0.275-4.85c1.048-8.807,7.449-14.727,16.212-15.051
	c9.124-0.337,16.512,5.343,17.876,14.201c0.527,3.425,0.496,7.043,0.059,10.489c-1.14,8.987-8.109,14.658-17.465,14.631
	c-9.042-0.026-15.724-6.16-16.718-15.379C121.263,440.281,121.247,438.928,121.168,437.579z M149.832,438.158
	c-0.329-3.111-0.289-5.043-0.769-6.837c-1.479-5.531-5.837-8.628-11.316-8.285c-5.484,0.343-9.173,3.855-9.744,9.875
	c-0.327,3.448-0.312,7.015,0.19,10.434c0.67,4.565,4.276,7.629,8.736,8.216c5.228,0.688,8.945-1.172,10.985-6.072
	C149.021,442.828,149.403,439.867,149.832,438.158z M295.435,418.431c-2.641,0.414-4.363,0.684-6.156,0.965
	c0,8.661-0.168,16.805,0.044,24.94c0.241,9.229,6.968,14.295,15.953,12.062c2.755-0.685,5.319-2.142,7.973-3.247
	c1.511,2.754,3.466,3.93,6.846,1.721c0-5.776,0.168-11.716-0.046-17.641c-0.221-6.114,0.957-12.328-0.688-18.218
	c-1.97,0-3.499,0-5.678,0c0,3.01,0.004,5.671-0.001,8.331c-0.009,4.614,0.103,9.232-0.071,13.84
	c-0.164,4.356-1.906,8.088-6.22,9.613c-4.079,1.441-8.078,1.164-11.957-4.849C295.435,437.671,295.435,428.296,295.435,418.431z
	 M250.278,434.821c0.176-9.636,4.363-12.674,14.852-10.297c5.935,9.482,0.717,20.801,3.565,31.461
	c1.876-0.17,3.576-0.325,5.67-0.515c0-2.673,0.002-4.81,0-6.947c-0.006-5.96,0.242-11.933-0.076-17.875
	c-0.534-9.991-7.816-14.999-17.369-12.122c-2.041,0.615-3.913,1.789-5.923,2.734c-1.718-1.8-3.5-3.95-6.748-1.719
	c0,11.909,0,23.944,0,36.239c1.974,0,3.511,0,6.005,0C250.254,448.301,250.154,441.559,250.278,434.821z M89.145,419.348
	c0,12.312,0,24.142,0,36.618c1.84-0.159,3.271-0.282,4.74-0.409c1.31-9.761-1.271-19.418,2.531-28.324
	c7.187-5.523,9.368-5.482,15.842,0.909c0,8.623,0,17.997,0,27.841c2.498-0.21,4.21-0.354,6.171-0.519
	c0-9.425,0.165-18.338-0.062-27.241c-0.137-5.371-2.969-8.3-8.034-9.784c-5.706-1.672-10.616,0.003-15.247,3.452
	c-0.677-1.051-1.217-1.888-2.239-3.475C91.377,418.787,90.16,419.093,89.145,419.348z M279.767,418.984c0,12.521,0,24.518,0,37.087
	c1.952-0.295,3.385-0.511,4.729-0.714c0-12.275,0-24.082,0-36.761C282.326,418.774,281.088,418.876,279.767,418.984z"/>
</svg>
