<?xml version="1.0" encoding="iso-8859-1"?>
<!-- Generator: Adobe Illustrator 19.0.0, SVG Export Plug-In . SVG Version: 6.00 Build 0)  -->
<svg version="1.1" id="Layer_1" xmlns="http://www.w3.org/2000/svg" xmlns:xlink="http://www.w3.org/1999/xlink" x="0px" y="0px"
	 viewBox="0 0 500 500" enable-background="new 0 0 500 500" xml:space="preserve">
<path d="M414.922,338.922c-55.078-84.44-109.158-167.351-164.08-251.552C194.85,171.552,139.727,254.429,83.665,338.718
	c3.992,0,6.519,0.181,9.013-0.028c27.917-2.338,55.828-4.747,83.743-7.111c10.059-0.852,15.102,3.283,15.185,13.129
	c0.35,41.826,0.515,83.654,0.763,125.481c0.028,4.747,0.198,9.494,0.225,14.242c0.05,8.688-5.159,11.875-12.779,7.698
	c-8.696-4.767-17.315-9.678-25.929-14.592c-32.979-18.812-65.939-37.658-98.917-56.473c-7.022-4.006-14.249-7.676-21.098-11.955
	c-12.93-8.079-18.972-20.277-18.991-35.223c-0.089-67.383,0.009-134.766,0.124-202.149c0.013-7.642,0.157-15.325,0.947-22.916
	c1.175-11.298,7.44-19.921,16.883-25.582c20.064-12.028,40.476-23.477,60.787-35.092c32.414-18.536,64.862-37.013,97.295-55.514
	c13.102-7.474,25.885-15.6,39.403-22.226c12.557-6.155,25.864-5.897,38.37,0.99c18.315,10.088,36.471,20.468,54.654,30.794
	c33.058,18.772,66.085,37.599,99.129,56.396c12.13,6.9,24.234,13.848,36.416,20.655c15.759,8.807,23.791,21.828,23.744,40.205
	c-0.182,70.323-0.094,140.646-0.025,210.969c0.019,19.051-7.445,32.559-25.071,41.84c-28.251,14.877-55.543,31.575-83.26,47.468
	c-18.732,10.741-37.427,21.551-56.283,32.072c-8.361,4.665-13.091,1.763-13.066-7.744c0.122-46.12,0.31-92.241,0.558-138.361
	c0.056-10.481,6.058-15.24,16.751-14.25c28.117,2.601,56.252,5.013,84.384,7.457C408.739,339.082,410.888,338.922,414.922,338.922z"
	/>
</svg>
