<?xml version="1.0" encoding="iso-8859-1"?>
<!-- Generator: Adobe Illustrator 19.0.0, SVG Export Plug-In . SVG Version: 6.00 Build 0)  -->
<svg version="1.1" id="Layer_1" xmlns="http://www.w3.org/2000/svg" xmlns:xlink="http://www.w3.org/1999/xlink" x="0px" y="0px"
	 viewBox="0 0 500 500" enable-background="new 0 0 500 500" xml:space="preserve">
<path d="M169.747,318.082c53.315,0,106.655,0,160.335,0c0.138-6.281,0.044-12.482,0.062-18.681c0.017-6.16,0.004-12.32,0.004-18.48
	c0-6.24,0-12.48,0-18.72c0-6.24,0-12.48,0-18.72c0-6.16,0-12.32,0-18.48c0-6.24,0-12.48,0-18.72c0-6.16,0-12.32,0-18.48
	c0-6.24,0-12.48,0-18.72s0-12.48,0-18.72c0-6.16,0-12.32,0-18.48c0-6.24,0-12.48,0-18.72c0-6.24,0-12.48,0-18.72
	c0-6.16,0-12.32,0-18.48c0-6.24,0-12.48,0-18.72c0-6.16,0-12.32,0-18.48c0-6.221,0-12.442,0-18.942
	c1.409-0.093,2.576-0.236,3.742-0.237c22.56-0.013,45.12-0.01,67.68-0.01c28.96,0,57.92,0,86.88,0c0.875,0,1.75,0,2.728,0
	c0.167,0.691,0.446,1.292,0.434,1.887c-0.059,2.948-0.29,5.894-0.291,8.841c-0.016,123.04-0.039,246.079,0.027,369.119
	c0.006,11.952-2.985,22.966-9.36,32.959c-2.734,4.286-6.253,8.087-9.551,11.994c-4.783,5.665-10.462,10.401-16.664,14.364
	c-8.905,5.69-18.308,10.477-28.308,14.042c-11.88,4.234-24.113,6.884-36.586,8.535c-8.498,1.125-17.036,1.501-25.604,1.513
	c-30.076,0.042-60.153,0.199-90.229,0.203c-35.038,0.004-70.076-0.108-105.115-0.167c-12.4-0.021-24.799-0.036-37.199-0.05
	c-14.193-0.016-28.251-1.351-42.172-4.167c-14.104-2.853-27.644-7.267-40.346-14.114c-5.432-2.928-10.787-6.04-15.446-10.066
	c-11.034-9.534-19.737-20.727-23.391-35.196c-1.593-6.309-2.287-12.745-2.287-19.252C9.086,277.057,9.087,154.097,9.087,31.138
	c0-3.747,0-7.493,0-11.387c53.216,0,106.518,0,159.611,0c0.269,0.229,0.34,0.272,0.386,0.333c0.047,0.063,0.071,0.143,0.102,0.216
	c0.03,0.073,0.063,0.147,0.082,0.223c0.018,0.077,0.021,0.158,0.029,0.238c0.008,0.08,0.015,0.159,0.019,0.239
	c0.004,0.08,0.006,0.16,0.007,0.24c0.003,0.16,0.005,0.32,0.007,0.48c0.001,0.08,0.001,0.16,0.001,0.24c0,0.08,0,0.16,0.001,0.24
	c0,0.24,0,0.48,0,0.72c0,97.6,0,195.199,0.001,292.799c0,0.16,0.001,0.32,0.001,0.48c0,0.08,0.001,0.16,0.002,0.24
	c0.001,0.08,0.001,0.16,0.003,0.24c0.002,0.08,0.005,0.16,0.008,0.24c0.003,0.08,0.003,0.16,0.011,0.24
	c0.008,0.079,0.022,0.158,0.035,0.237c0.013,0.079,0.014,0.163,0.043,0.235C169.464,317.703,169.523,317.763,169.747,318.082z"/>
</svg>
