<?xml version="1.0" encoding="utf-8"?>
<!-- Generator: Adobe Illustrator 26.2.1, SVG Export Plug-In . SVG Version: 6.00 Build 0)  -->
<svg version="1.1" id="Layer_1" xmlns="http://www.w3.org/2000/svg" xmlns:xlink="http://www.w3.org/1999/xlink" x="0px" y="0px"
	 viewBox="0 0 500 500" style="enable-background:new 0 0 500 500;" xml:space="preserve">
<g>
	<path d="M226.2,231.1c0,12.3,0,24.6,0,37.4c16.3,0,32.1,0,47.8,0.1c-0.2-12.3-0.3-24.6-0.5-37.5C257,231.1,241.5,231.1,226.2,231.1
		z"/>
	<path d="M297.1,269.8c-7.6-1-15.4-0.8-23.1-1.2c0.1,20.5,0.1,41,0.1,62c11.9,0.6,23,1.4,33.7-2.8c8.6-3.4,14.5-9.6,16.2-18.7
		C327.8,288.4,320.2,272.9,297.1,269.8z"/>
	<path d="M225.9,169.7c-11.3-1.7-24.4-0.8-32.5,2c-7.2,2.5-13,6.7-16.4,13.7c-9.3,19.2,0.5,40.4,21.5,44.4
		c8.9,1.7,18.3,0.9,27.5,1.2C226,210.5,226.3,190,225.9,169.7z"/>
	<path d="M250,0C111.9,0,0,111.9,0,250s111.9,250,250,250s250-111.9,250-250S388.1,0,250,0z M359.8,342C349,356,334,363.4,317,366.6
		c-8.6,1.6-17.6,1.9-26.4,2.5c-5.1,0.3-10.3,0.1-16.7,0.1c-0.7,19.9,0.1,39.4-0.5,59.3c-15.9,0-31.1,0-47.5,0c0-19.6,0-39,0-59.1
		c-31.4,0-61.6,0-92.2,0c0-12.8,0-25,0-38c30.5,0,60.6,0,91.9,0c0.5-21,0.2-62.8,0.2-62.8l-9.4,0.3c0,0-25.9,0.5-38.6-3
		c-24.3-6.7-42.8-20.4-49-45.7c-6.6-27-2.4-52.1,20.1-71.2c14-11.9,31.2-16.3,49.3-17.3c8.7-0.5,17.6-0.2,27.7-0.2
		c0-20.2,0-58.1,0-58.1l47.7-0.7l0.7,58.4h91.3c0,0,0,24.9,0,37.8c-30.5,0-60.6,0-91.3,0c0,21,0,41.1,0,62.3
		c6.6,0,13.1-0.5,19.4,0.1c10.3,0.9,20.8,1.4,30.7,4.2c25,7,42.2,22.8,47.3,48.8C375.7,304.9,373.2,324.8,359.8,342z"/>
</g>
<path d="M226.1,231c-9.2-0.3-18.7,0.5-27.7-1.2c-20.9-4-30.8-25.2-21.5-44.4c3.4-7,9.1-11.3,16.4-13.7c8.1-2.8,21.3-3.6,32.5-2
	c0.4,20.3,0.2,40.9,0.1,61.4L226.1,231z"/>
<path d="M274,268.6c7.7,0.4,15.5,0.2,23.2,1.2c23.1,3.1,30.7,18.6,26.9,39.3c-1.7,9.1-7.6,15.3-16.2,18.7
	c-10.7,4.2-21.9,3.4-33.7,2.8C274.1,309.6,274.1,289.1,274,268.6L274,268.6z"/>
<path d="M226,231.1c15.4,0,30.9,0,47.5,0c0.2,12.9,0.3,25.2,0.5,37.5l0.1-0.1c-15.8,0-31.6,0-48,0c0-12.9,0-25.2,0-37.5L226,231.1z"
	/>
</svg>
