<?xml version="1.0" encoding="utf-8"?>
<!-- Generator: Adobe Illustrator 25.1.0, SVG Export Plug-In . SVG Version: 6.00 Build 0)  -->
<svg version="1.1" id="USDS" xmlns="http://www.w3.org/2000/svg" xmlns:xlink="http://www.w3.org/1999/xlink" x="0px" y="0px"
	 viewBox="0 0 500 500" style="enable-background:new 0 0 500 500;" xml:space="preserve">
<path d="M263.6,335.8c0,6.3,0,12,0,17.8c0,4.4-2,6.3-6.5,6.7c-17.9,1.6-18.5,1.1-19.1-16.7c-0.1-2.5-0.5-4.9-0.8-7.7
	c-4.7-0.8-9-1.4-13.3-2.3c-20.5-4.4-34.5-25.7-29.9-46c0.5-2.1,3.3-5,5.2-5.2c7.1-0.6,14.4-0.4,21.6-0.3c4.2,0.1,5.9,2.8,5.7,6.6
	c-0.6,14.8,7.1,18.1,19.9,17.9c5.2-0.1,10.5-0.2,15.7-0.9c6.6-0.9,10-5.2,11-11.8c2.6-16.9-2.2-23.5-19.3-26.1
	c-7.9-1.2-16-1.8-23.9-3c-24.5-3.7-36-16.8-36.5-41.6c-0.2-8.3-0.4-16.7,1-24.9c3-17.3,13.6-27.2,30.9-30.3c3.5-0.6,7-1.2,11.7-2
	c0-5.6,0.1-11.1,0-16.5c-0.2-6,2.6-8.4,8.6-8.4c20.5,0.1,18.2-0.9,18.3,16.8c0,2.7,0.3,5.4,0.5,8.2c3.1,0.6,5.5,1.2,7.9,1.6
	c25.8,3.9,33.6,27,32.2,46.9c-0.3,4.1-2.9,5.7-6.8,5.7c-6.6,0-13.3,0-20,0c-4.5,0-6.1-2.4-6.5-6.7c-1.7-15.3-3.9-17.2-19.3-17.4
	c-3.6,0-7.2-0.1-10.8,0.1c-10,0.6-13.6,4.3-14.5,14.5c-0.2,2.2-0.2,4.4-0.2,6.6c0,10.4,3.9,15.2,14.3,16.9
	c6.6,1.1,13.3,1.1,19.8,2.2c8.1,1.4,16.5,2.7,24.2,5.5c11.4,4.2,19,13,20.3,25.3c1.2,11.5,2,23.3,0.6,34.7
	c-2.1,17.8-13.8,28.6-31.5,31.9C271.4,334.8,268.3,335.1,263.6,335.8z"/>
<path d="M60.8,196.8C84,114.1,159.9,53.5,250,53.5s166,60.6,189.2,143.3h55.1C469.9,84.3,369.8,0,250,0S30.1,84.3,5.7,196.8H60.8z"
	/>
<path d="M446.5,250c0,7.3-0.4,14.5-1.2,21.7h53.7c0.6-7.1,1-14.4,1-21.7c0-7.1-0.3-14.2-0.9-21.1h-53.7
	C446.1,235.8,446.5,242.9,446.5,250z"/>
<path d="M53.5,250c0-7.1,0.4-14.2,1.1-21.1H0.9c-0.6,7-0.9,14-0.9,21.1c0,7.3,0.3,14.5,0.9,21.7h53.7
	C53.9,264.5,53.5,257.3,53.5,250z"/>
<path d="M439.1,303.8c-23.4,82.4-99.2,142.8-189.1,142.8S84.3,386.2,60.9,303.8H5.8C30.4,416,130.4,500,250,500
	s219.6-84,244.2-196.2H439.1z"/>
</svg>
