<?xml version="1.0" encoding="iso-8859-1"?>
<!-- Generator: Adobe Illustrator 19.0.0, SVG Export Plug-In . SVG Version: 6.00 Build 0)  -->
<svg version="1.1" id="Layer_1" xmlns="http://www.w3.org/2000/svg" xmlns:xlink="http://www.w3.org/1999/xlink" x="0px" y="0px"
	 viewBox="0 0 500 500" style="enable-background:new 0 0 500 500;" xml:space="preserve">
<path id="XMLID_4_" d="M13.088,249.461c0.982-68.663,25.696-127.207,76.097-174.127c46.286-43.089,101.454-64.274,164.838-63.571
	C322.53,12.523,380.278,38.3,426.679,88.26c42.268,45.51,63.31,99.919,63.053,162.244c-0.282,68.401-25.462,126.402-74.998,173.157
	c-49.018,46.267-108.081,67.075-175.375,64.479c-28.208-1.088-55.331-7.501-81.207-18.54c-30.658-13.078-57.493-31.838-80.457-56.16
	c-19.539-20.695-34.885-44.153-45.913-70.23C19.165,313.375,12.372,282.167,13.088,249.461z M251.538,132.295
	c-18.462,0-36.925,0-55.387,0c-17.309,0-34.617-0.02-51.926,0.018c-3.357,0.007-3.46,0.112-3.47,3.444
	c-0.043,14.077-0.019,28.155-0.018,42.232c0,8.501,0.001,8.502,8.183,8.502c22.617,0,45.233-0.021,67.85,0.016
	c5.147,0.008,5.423,0.315,5.458,5.498c0.055,8.308,0.06,16.616-0.003,24.924c-0.036,4.741-0.283,5.101-5.096,5.209
	c-11.221,0.251-22.336,1.446-33.48,2.728c-9.291,1.069-18.455,2.638-27.655,4.216c-11.012,1.888-21.663,4.93-32.111,8.693
	c-4.911,1.769-9.546,4.36-13.463,7.975c-5.603,5.171-6.193,10.591-0.261,15.775c2.886,2.522,6.158,4.917,9.672,6.339
	c7.332,2.967,14.814,5.752,22.468,7.686c10.111,2.555,20.408,4.442,30.699,6.186c5.837,0.989,11.823,1.081,17.736,1.643
	c8.851,0.842,17.681,2.01,26.55,2.522c5.791,0.334,4.954,0.611,4.956,4.913c0.008,18.232,0.004,36.463,0.004,54.695
	c0,16.847-0.021,33.694,0.018,50.541c0.008,3.345,0.114,3.464,3.481,3.472c17.539,0.043,35.079,0.041,52.618,0.003
	c3.415-0.007,3.431-0.113,3.543-3.406c0.047-1.383,0.008-2.769,0.008-4.154c0-32.771,0-65.542,0.001-98.313
	c0-1.846-0.191-3.726,0.111-5.522c0.133-0.79,1.212-1.916,1.982-2.023c4.518-0.624,9.066-1.29,13.615-1.382
	c9.159-0.186,18.157-1.648,27.223-2.657c11.327-1.261,22.501-3.235,33.555-5.838c9.033-2.127,18.052-4.553,26.235-9.135
	c3.153-1.766,6.293-3.779,8.9-6.248c4.786-4.532,4.588-9.601,0.626-13.234c-2.977-2.729-6.22-5.413-9.804-7.191
	c-16.273-8.074-33.996-11.044-51.699-13.928c-4.722-0.769-9.551-0.881-14.279-1.622c-9.266-1.453-18.569-2.364-27.943-2.568
	c-0.923-0.02-1.847,0.018-2.769-0.012c-5.688-0.187-5.723-0.191-5.746-5.629c-0.033-7.846-0.014-15.693-0.007-23.54
	c0.007-7.926-0.398-6.598,6.655-6.613c22.847-0.049,45.695-0.025,68.542-0.014c5.597,0.003,5.389,0.271,5.381-5.144
	c-0.022-14.539-0.001-29.078-0.011-43.618c-0.004-5.825,0.588-5.439-5.704-5.439C321.695,132.294,286.617,132.295,251.538,132.295z
	 M225.753,266.589c-3.351-0.025-3.465-0.131-3.489-3.531c-0.065-9.226-0.023-18.452-0.023-27.678c0-9.782-0.506-10.072-10.535-8.719
	c-7.898,1.066-15.849,1.733-23.779,2.56c-5.221,0.544-10.484,0.816-15.659,1.643c-6.717,1.075-13.392,2.463-20.037,3.93
	c-9.093,2.008-18.093,4.36-26.074,9.457c-1.331,0.85-2.755,1.691-3.787,2.847c-2.096,2.351-2.111,4.853-0.116,7.296
	c2.67,3.269,6.268,5.16,10.11,6.827c11.552,5.014,23.861,7.203,36.096,9.329c11.643,2.023,23.468,3.174,35.261,4.104
	c11.877,0.937,23.813,1.554,35.723,1.541c14.457-0.016,28.928,0.913,43.391-1.065c7.664-1.048,15.494-0.352,23.292-1.359
	c7.887-1.019,15.808-2.034,23.72-2.83c11.83-1.191,23.264-3.969,34.543-7.324c5.133-1.527,9.913-4.537,14.54-7.382
	c4.492-2.762,3.703-9.068-0.698-11.386c-4.02-2.117-8.05-4.368-12.328-5.816c-13.149-4.452-26.733-7.02-40.536-8.443
	c-4.766-0.491-9.529-1.011-14.295-1.507c-8.388-0.873-16.767-1.851-25.169-2.554c-3.891-0.326-3.967-0.079-3.984,4.273
	c-0.037,9.687,0.008,19.375-0.018,29.062c-0.018,6.712-0.047,6.727-7.034,6.744c-7.84,0.018-15.68,0.004-23.52,0.004
	C242.817,266.61,234.284,266.652,225.753,266.589z"/>
</svg>
