<?xml version="1.0" encoding="utf-8"?>
<!-- Generator: Adobe Illustrator 24.1.0, SVG Export Plug-In . SVG Version: 6.00 Build 0)  -->
<svg version="1.1" id="Layer_1" xmlns="http://www.w3.org/2000/svg" xmlns:xlink="http://www.w3.org/1999/xlink" x="0px" y="0px"
	 viewBox="0 0 500 500" style="enable-background:new 0 0 500 500;" xml:space="preserve">
<style type="text/css">
	.st0{fill-rule:evenodd;clip-rule:evenodd;}
</style>
<g>
	<path class="st0" d="M499.6,226.2L408.5,34.7c-0.6-1.3-1.9-2.2-3.4-2.2H94.9c-1.4,0-2.7,0.8-3.4,2.2L0.4,226.2
		c-0.7,1.5-0.4,3.2,0.8,4.3l246.2,235.9c1.5,1.4,3.7,1.4,5.2,0l246.2-235.9C500,229.4,500.3,227.6,499.6,226.2z M281.6,256.2v122.1
		h-63V256.2c-70.9-3.3-124.2-17.3-124.2-34.1c0-16.8,53.3-30.8,124.2-34.1v-38.1h-87.2V91.8h237.4v58.1h-87.2V188
		c70.8,3.3,123.9,17.3,123.9,34.1C405.5,238.9,352.3,252.9,281.6,256.2z"/>
	<path class="st0" d="M281.5,192.4V235c-1.7,0.2-11.5,1-30.9,1c-16.2,0-27.9-0.7-32-1v-42.6c-62.7,2.8-109.4,13.6-109.4,26.7
		c0,13,46.8,23.9,109.4,26.7c4,0.2,15.5,0.7,31.7,0.7c20.4,0,29.5-0.6,31.3-0.7c62.5-2.8,109-13.7,109-26.7S344,195.2,281.5,192.4z"
		/>
</g>
</svg>
