<?xml version="1.0" encoding="iso-8859-1"?>
<!-- Generator: Adobe Illustrator 19.0.0, SVG Export Plug-In . SVG Version: 6.00 Build 0)  -->
<svg version="1.1" id="Layer_1" xmlns="http://www.w3.org/2000/svg" xmlns:xlink="http://www.w3.org/1999/xlink" x="0px" y="0px"
	 viewBox="0 0 2000 2000" style="enable-background:new 0 0 2000 2000;" xml:space="preserve">
<path d="M1627.599,244.476c15.522,13.553,28.484,24.871,42.875,37.436c-11.22,36.435-22.245,72.767-33.591,108.998
	c-93.806,299.561-187.711,599.09-281.283,898.724c-2.244,7.185-3.131,16.107-1.03,23.137c28.99,96.994,58.606,193.8,88.174,290.62
	c0.487,1.596,2.302,2.786,7.825,9.16c103.286-330.511,205.493-657.569,308.053-985.756
	c123.214,219.349,144.663,605.834-95.645,903.771c-277.511,344.061-739.23,398.84-1071.711,212.387
	c60.254-198.625,120.736-397.998,181.491-598.276c-31.793-104.067-63.83-208.93-97.327-318.575
	c-96.358,316.817-191.109,628.35-286.697,942.633c-15.738-13.229-29.723-24.984-44.2-37.153
	c20.81-68.559,41.188-135.985,61.741-203.356c78.653-257.819,157.496-515.579,235.611-773.561
	c3.492-11.532,3.554-25.894,0.143-37.44c-27.682-93.712-56.57-187.069-85.142-280.518c-0.686-2.243-1.972-4.302-4.899-10.542
	c-5.409,12.03-10.477,20.695-13.334,30.037c-71.895,235.02-143.571,470.106-215.251,705.192
	c-22.377,73.388-44.635,146.811-67.027,220.194c-1.197,3.922-3.13,7.62-5.012,12.122c-142.714-248.75-152.2-651.772,110.194-950.849
	c286.979-327.099,741.582-365.969,1063.266-175.877c-66.152,208.296-132.505,417.226-198.885,626.241
	c31.948,104.412,63.867,208.73,97.443,318.461C1425.599,886.695,1526.084,567.223,1627.599,244.476z M582.36,386.684
	c1.413,6.315,1.973,9.925,3.029,13.384c50.048,163.922,100.098,327.844,150.235,491.74
	c68.032,222.39,136.164,444.75,204.176,667.146c10.609,34.689,35.557,58.636,68.898,62.52c46.737,5.445,94.582,1.375,143.555,1.375
	c-1.611-6.744-3.016-14.429-5.282-21.851c-54.104-177.179-108.392-354.302-162.456-531.494
	c-62.193-203.832-124.169-407.73-186.319-611.575c-11.953-39.204-46.073-68.969-85.948-70.804
	C669.694,385.167,626.978,386.684,582.36,386.684z M832.105,389.686c24.811,81.064,49.628,162.103,74.418,243.15
	c94.094,307.631,188.313,615.224,282.086,922.953c11.022,36.169,35.511,61.515,70.301,65.672
	c47.221,5.642,95.622,1.405,143.953,1.405c-1.184-4.57-2.343-9.849-3.915-15.001c-117.055-383.513-234.162-767.01-351.196-1150.529
	c-11.083-36.319-35.074-62.75-71.858-66.491C928.905,386.066,881.062,389.686,832.105,389.686z M220.462,403.732
	c-301.335,392.974-230.72,887.201-20.213,1161.703c9.927-31.828,18.901-63.066,29.553-93.721c5.345-15.381,2.796-27.722-4.985-41.53
	c-63.235-112.22-99.324-233.118-108.787-361.237c-6.342-85.861-1.461-171.496,17.343-256.118
	c43.213-194.472,139.811-357.285,290.816-486.632C563.896,206.53,725.98,136.963,909.58,118.209
	c113.183-11.561,224.989-4.273,333.514,29.43c66.153,20.544,129.896,48.846,196.042,74.169
	c7.986-25.232,17.398-54.969,26.998-85.301C1075.381-78.669,534.751-6.134,220.462,403.732z M1761.457,1620.607
	c309.996-379.111,262.183-876.352,51.562-1167.926c-12.484,39.773-24.59,78.343-35.083,111.774
	c171.834,361.298,148.552,698.961-102.647,1010.668c-110.312,136.884-255.412,227.367-424.726,276.177
	c-231.742,66.806-454.946,41.622-670.289-68.737c-9.243,30.887-18.01,60.185-27.113,90.604
	C905.983,2062.52,1433.595,2021.566,1761.457,1620.607z"/>
</svg>
