<?xml version="1.0" encoding="iso-8859-1"?>
<!-- Generator: Adobe Illustrator 19.0.0, SVG Export Plug-In . SVG Version: 6.00 Build 0)  -->
<svg version="1.1" id="Layer_1" xmlns="http://www.w3.org/2000/svg" xmlns:xlink="http://www.w3.org/1999/xlink" x="0px" y="0px"
	 viewBox="0 0 2000 2000" style="enable-background:new 0 0 2000 2000;" xml:space="preserve">
<path d="M1007.428,1814.257c-14.138,57.089-27.332,110.368-41.112,166.01c-38.597-9.096-72.834-17.164-110.867-26.126
	c11.398-51.195,21.904-98.387,32.956-148.025c-55.354-16.016-107.973-31.241-163.546-47.32
	c-12.589,50.727-24.691,99.487-38.613,155.586c-36.773-8.507-72.072-16.673-111.148-25.712
	c14.404-64.065,27.896-124.077,41.279-183.603c-305.303-211.212-440.003-494.176-374.734-862.901
	c-16.971-13.659-32.222-25.787-47.307-38.118c-13.539-11.068-26.895-22.36-46.964-39.078c196.402,0,384.438,0,578.146,0
	c-19.774,83.983-39.616,165.917-58.239,248.126c-13.698,60.468-26.718,121.125-38.135,182.055
	c-4.172,22.266-4.357,45.599-3.789,68.381c3.914,156.966,85.118,251.208,240.721,271.208c56.124,7.214,114.827,6.404,170.993-1.024
	c164.895-21.808,270.021-120.757,317.132-275.758c40.312-132.635,69.199-268.795,101.668-403.75
	c44.278-184.034,87.159-368.404,138.261-553.313c6.278,32.494,9.729,65.882,19.646,97.224c9.495,30.01,20.665,61.865,39.747,86.099
	c195.089,247.761,246.62,522.291,132.478,815.378c-115.042,295.396-341.646,462.081-654.683,510.6
	c-20.904,3.24-42.366,3.242-63.595,3.929C1048.387,1814.75,1029.016,1814.257,1007.428,1814.257z M981.336,599.558
	c-36.788,150.652-74.943,300.982-110.279,451.972c-14.083,60.176-25.204,121.44-31.783,182.84
	c-4.517,42.159,9.938,81.074,50.747,104.01c75.905,42.659,189.961,14.849,232.451-61.359c21.948-39.364,38.54-83.228,49.257-127.086
	c54.261-222.046,105.801-444.757,158.293-667.235c29.149-123.543,58.294-247.086,88.449-374.905
	c-39.678-8.815-75.061-16.677-111.808-24.841c-13.311,52.189-24.868,97.504-36.834,144.421
	c-57.469-11.121-110.874-21.456-166.349-32.192c11.358-52.652,21.825-101.176,32.944-152.725
	c-39.868-9.502-73.88-17.607-110.021-26.221c-15.581,63.14-29.895,121.141-44.263,179.366
	c-260.316,24.968-464.609,139.279-621.632,359.447c215.823,0,420.543,0,628.285,0C985.652,574.137,984.387,587.066,981.336,599.558z
	"/>
</svg>
