<?xml version="1.0" encoding="iso-8859-1"?>
<!-- Generator: Adobe Illustrator 19.0.0, SVG Export Plug-In . SVG Version: 6.00 Build 0)  -->
<svg version="1.1" id="Layer_1" xmlns="http://www.w3.org/2000/svg" xmlns:xlink="http://www.w3.org/1999/xlink" x="0px" y="0px"
	 viewBox="0 0 500 500" enable-background="new 0 0 500 500" xml:space="preserve">
<path d="M464.507,249.891c0,36.834-0.292,73.672,0.195,110.499c0.13,9.83-3.802,15.402-11.937,20.041
	c-63.063,35.96-126.029,72.091-188.88,108.422c-8.942,5.169-16.653,5.279-25.701,0.043
	c-61.712-35.713-123.627-71.075-185.476-106.552c-2.502-1.435-5.053-2.798-7.477-4.357c-4.931-3.17-8.157-7.32-7.696-13.623
	c0.192-2.616-0.015-5.259-0.015-7.89c-0.003-71.563,0.239-143.128-0.25-214.688c-0.078-11.374,4.083-17.617,13.64-23.044
	c62.237-35.339,124.204-71.154,186.26-106.811c0.91-0.523,1.858-0.983,2.746-1.54c7.423-4.65,14.628-4.406,22.237,0.027
	c24.225,14.113,48.608,27.957,72.928,41.908c39.782,22.821,79.526,45.707,119.376,68.407c7.147,4.071,10.254,9.464,10.183,17.866
	C464.331,175.695,464.507,212.794,464.507,249.891z M454.453,360.901c0-76.578,0-152.024,0-228.257
	C388.615,94.86,322.756,57.064,256.204,18.87c0,76.681,0,152.335,0,228.263c19.181,11.011,38.17,21.912,58.091,33.348
	c0-4.048,0.001-6.916,0-9.783c-0.009-17.63,0.123-35.261-0.096-52.888c-0.091-7.331,2.665-12.335,9.135-15.975
	c11.883-6.684,23.481-13.872,35.211-20.829c5.638-3.344,11.174-6.891,16.987-9.9c9.001-4.66,17.223,0.16,17.709,10.123
	c0.102,2.101,0.073,4.209,0.073,6.314c0.005,43.153,0.006,86.306,0.007,129.459c0,2.859,0,5.717,0,8.794
	C413.659,337.475,433.62,348.937,454.453,360.901z M245.89,18.843C181.226,55.944,117.269,92.64,52.375,129.874
	c3.256,2.026,5.377,3.441,7.584,4.705c38.672,22.166,77.309,44.393,116.079,66.388c6.381,3.62,9.5,8.104,9.4,15.698
	c-0.249,18.94,0.14,37.889,0.31,56.835c0.021,2.298,0.275,4.594,0.479,7.802c20.461-11.737,40.158-23.035,59.664-34.224
	C245.89,170.886,245.89,95.417,245.89,18.843z M388.701,334.997c-1.902,1.079-3.266,1.832-4.61,2.619
	c-40.937,23.983-81.918,47.893-122.763,72.031c-6.652,3.931-12.481,3.945-19.082,0.003c-13.275-7.929-26.821-15.404-40.254-23.07
	c-29.801-17.007-59.601-34.016-89.541-51.104c-19.772,11.359-39.444,22.661-60.355,34.674
	c67.047,38.456,132.851,76.199,197.945,113.535c10.299-3.873,194.487-110.099,198.473-114.358
	C428.683,357.945,408.931,346.608,388.701,334.997z M383.2,325.011c1.339-16.204,0.775-138.178-0.671-144.226
	c-1.236,0.084-2.775-0.264-3.759,0.322c-17.847,10.626-35.626,21.363-53.418,32.076c0,2.674,0.002,4.767,0,6.859
	c-0.02,21.837-0.084,43.675-0.02,65.512c0.012,4.063-0.11,7.907-3.73,10.529c-6.347,3.42-12.621,7.011-18.907,10.58
	c-6.649,3.775-13.186,7.61-19.417,12.178c-6.609,4.846-14.889,7.362-21.74,11.943c-6.87,4.594-12.952,6.897-19.681,0.363
	c-0.519-0.504-1.498-0.495-2.172-0.883c-12.391-7.155-24.717-14.424-37.167-21.476c-7.209-4.083-14.612-7.826-21.266-11.369
	c-2.76,0.842-4.686,1.067-6.23,1.956c-15.55,8.945-31.055,17.968-46.507,27.081c-1.152,0.679-1.799,2.215-2.685,3.358
	c13.72,10.312,25.818,16.936,28.841,16.521c2.929,2.331,5.152,4.614,7.811,6.133c16.889,9.649,33.911,19.067,50.816,28.69
	c10.371,5.904,20.566,12.115,30.943,18.008c2.442,1.387,5.298,2.045,8.684,3.307c41.856-24.593,83.829-49.243,125.774-73.943
	C380.457,327.497,381.943,326.007,383.2,325.011z M106.473,173.012c-19.682-11.273-38.961-22.314-58.408-33.452
	c-1.527,8.823-1.181,215.01,0.382,220.864c19.547-11.253,38.995-22.449,58.026-33.405
	C106.473,275.201,106.473,224.48,106.473,173.012z M117.292,180.789c0,47.306,0,92.71,0,139.574
	c19.643-10.364,37.524-21.673,56.366-32.004c2.919-25.231,1.066-50.631,1.454-76.232
	C155.296,202.63,138.294,189.252,117.292,180.789z M250.97,255.988c-20.254,11.64-39.828,22.889-60.149,34.567
	c20.692,11.791,40.423,23.035,60.136,34.269c19.845-11.641,39.102-22.937,59.346-34.812
	C289.891,278.307,270.623,267.258,250.97,255.988z"/>
</svg>
