<?xml version="1.0" encoding="iso-8859-1"?>
<!-- Generator: Adobe Illustrator 19.0.0, SVG Export Plug-In . SVG Version: 6.00 Build 0)  -->
<svg version="1.1" id="Layer_1" xmlns="http://www.w3.org/2000/svg" xmlns:xlink="http://www.w3.org/1999/xlink" x="0px" y="0px"
	 viewBox="0 0 2000 2000" style="enable-background:new 0 0 2000 2000;" xml:space="preserve">
<path d="M304.912,332.728c128.97,0,254.864,0,383.287,0c0,17.849,0,34.042,0,50.236c0.007,301.331,0.27,602.661-0.141,903.991
	c-0.117,85.72,14.693,166.507,67.302,237.158c40.908,54.937,97.254,86.515,162.742,95.13c48.993,6.445,101.145,6.929,149.393-2.593
	c117.824-23.252,184.581-102.105,209.251-217.167c7.394-34.487,11.419-70.372,11.542-105.635
	c0.932-267.419,0.51-534.843,0.51-808.373c50.644,65.752,110.505,107.105,191.712,107.346
	c80.834,0.24,140.711-40.221,193.046-105.738c0,14.373,0,23.093,0,31.814c0,282.097,2.798,564.233-1.202,846.273
	c-1.947,137.29-44.579,263.844-134.119,372.101c-100.679,121.724-230.734,190.244-384.098,219.432
	c-145.943,27.776-290.913,24.326-431.561-23.43c-205.486-69.771-341.647-207.653-396.379-421.516
	c-16.216-63.362-21.716-126.985-21.581-192.029c0.657-317.815,0.298-635.633,0.298-953.449
	C304.912,356.267,304.912,346.254,304.912,332.728z M1674.085,214.413c-2.083-104.585-88.493-194.518-195.885-193.37
	c-110.26,1.179-196.344,85.254-197.235,195.045c-0.932,114.846,96.936,200.547,196.03,195.777
	C1586.941,417.244,1676.134,317.268,1674.085,214.413z"/>
</svg>
