<?xml version="1.0" encoding="iso-8859-1"?>
<!-- Generator: Adobe Illustrator 19.0.0, SVG Export Plug-In . SVG Version: 6.00 Build 0)  -->
<svg version="1.1" id="Layer_1" xmlns="http://www.w3.org/2000/svg" xmlns:xlink="http://www.w3.org/1999/xlink" x="0px" y="0px"
	 viewBox="0 0 2000 2000" style="enable-background:new 0 0 2000 2000;" xml:space="preserve">
<path d="M1979.582,996.513c5.697,528.457-427.278,981.514-977.072,980.639c-546.899-0.87-979.788-438.932-978.867-981.828
	C24.56,454.17,456.238,18.308,1001.527,16.849C1550.951,15.379,1984.695,467.703,1979.582,996.513z M1320.68,1119.051
	c-0.63-13.66-3.498-22.786-0.99-30.058c16.118-46.745,35.621-92.422,49.795-139.714c20.235-67.514,35.293-136.576,55.342-204.152
	c40.121-135.228,82.439-269.803,122.958-404.916c4.952-16.511,4.433-34.662,6.671-53.965c-42.183,0-76.706,0-115.668,0
	c-85.805,286.815-171.7,573.932-259.124,866.159c-101.136,27.14-202.051,54.22-313.511,84.131
	C771.948,923.364,678.507,612.74,586.125,305.634c-45.261-6.807-85.509-12.861-133.02-20.007
	c98.439,328.675,195.087,651.373,294.149,982.13c-89.931,25.012-177.552,49.382-269.27,74.891
	c9.827,38.708,19.238,75.78,29.417,115.876c95.437-24.659,185.664-47.973,278.254-71.897
	c10.283,35.408,19.378,66.725,30.995,106.725c-105.935,50.809-225.88,57.259-333.151,102.269c7.257,34,13.549,63.484,20.062,94
	c7.648,4.83,16.037,10.128,24.373,15.393c103.97-29.693,207.152-59.161,318.346-90.918c41.479,79.769,51.272,173.685,91.501,270.681
	c40.947,2.749,89.389,6.002,138.044,9.268c42.591-129.664,81.988-249.606,120.519-366.912
	c122.025-34.812,237.24-67.681,354.563-101.151c-12.334-42.02-21.563-73.465-32.613-111.112
	c-91.924,22.512-180.732,44.262-270.609,66.273c-4.653-5.33-9.319-10.676-11.193-12.823c16.927-40.221,32.654-77.59,47.463-112.777
	c88.819-39.89,186.616-44.704,269.82-89.177c-11.36-38.364-20.548-69.393-30.498-102.997
	C1454.488,1082.276,1390.732,1099.798,1320.68,1119.051z M897.255,1352.921c13.284,41.881,23.733,74.826,36.482,115.021
	c58.21-16.315,112.779-31.609,171.366-48.029c11.867-43.34,23.282-85.028,36.162-132.068
	C1050.029,1312.176,973.961,1332.463,897.255,1352.921z M1057.367,1551.692c-32.333,11.811-64.666,23.622-93.875,34.292
	c14.228,58.623,26.257,108.186,39.271,161.811c11.155-12.061,19.404-20.98,19.648-21.244
	c16.051-61.718,29.258-112.501,42.465-163.283C1062.374,1559.409,1059.87,1555.55,1057.367,1551.692z"/>
</svg>
