<?xml version="1.0" encoding="iso-8859-1"?>
<!-- Generator: Adobe Illustrator 19.0.0, SVG Export Plug-In . SVG Version: 6.00 Build 0)  -->
<svg version="1.1" id="Layer_1" xmlns="http://www.w3.org/2000/svg" xmlns:xlink="http://www.w3.org/1999/xlink" x="0px" y="0px"
	 viewBox="0 0 500 500" style="enable-background:new 0 0 500 500;" xml:space="preserve">
<path d="M11.399,248.989C10.791,118.14,117.517,8.027,253.573,9.448c130.84,1.367,237.482,108.398,236.579,241.705
	c-0.873,128.871-107.659,241.671-248.266,237.031C116.691,484.054,11.289,380.908,11.399,248.989z M250.667,466.867
	c118.703,0.775,217.342-95.964,218.236-215.752c0.921-123.391-97.259-216.721-210.596-220.298
	C131.401,26.811,31.48,129.14,32.455,250.619C33.42,370.81,132.029,467.607,250.667,466.867z M455.001,248.884
	c0.387,111.579-89.029,200.539-195.981,204.281c-120.373,4.212-206.836-90.165-212.406-191.637
	C39.85,138.301,137.59,45.721,247.569,44.379C363.597,42.964,455.6,136.873,455.001,248.884z M126.72,123.732
	c0.507,1.988,0.843,3.495,1.277,4.974c14.687,50.006,29.393,100.006,44.075,150.014c9.033,30.765,18.044,61.536,27.022,92.316
	c0.594,2.037,1.479,2.904,3.807,2.874c11.377-0.147,22.757-0.062,34.136-0.082c0.762-0.001,1.524-0.197,2.266-0.299
	c24.419-83.167,48.794-166.183,73.267-249.536c-1.503-0.109-2.519-0.245-3.536-0.246c-11.776-0.016-23.554,0.093-35.327-0.085
	c-2.956-0.045-4.034,0.982-4.837,3.736c-14.214,48.775-28.539,97.518-42.854,146.263c-2.015,6.861-4.105,13.7-6.446,21.503
	c-6.498-22.088-12.705-43.124-18.875-64.172c-10.129-34.551-20.263-69.101-30.293-103.682c-0.797-2.749-1.976-3.756-4.904-3.656
	c-6.872,0.235-13.758,0.078-20.639,0.078C138.942,123.732,133.023,123.732,126.72,123.732z M344.255,333.032
	c-24.726,0-49.04-0.027-73.353,0.104c-0.937,0.005-2.31,1.356-2.713,2.381c-1.195,3.035-2.043,6.209-2.96,9.349
	c-2.78,9.518-5.528,19.046-8.314,28.656c29.38,0,58.378,0,87.341,0C344.255,360.007,344.255,346.816,344.255,333.032z
	 M344.141,309.134c0-13.858,0-27.277,0-40.905c-18.254,0-36.229-0.037-54.203,0.104c-0.937,0.007-2.397,1.355-2.709,2.359
	c-3.026,9.757-5.862,19.572-8.744,29.374c-0.864,2.94-1.703,5.887-2.622,9.069C298.967,309.134,321.411,309.134,344.141,309.134z
	 M294.905,244.119c16.732,0,33.019,0,49.252,0c0-13.578,0-26.87,0-40.507c-12.005,0-23.75-0.047-35.494,0.098
	c-0.846,0.01-2.102,1.273-2.436,2.214c-1.354,3.821-2.45,7.735-3.591,11.63C300.069,226.319,297.531,235.093,294.905,244.119z
	 M374.428,268.468c-7.523,0-14.727,0-22.067,0c0,13.647,0,27.05,0,40.588c7.513,0,14.707,0,22.067,0
	C374.428,295.442,374.428,282.119,374.428,268.468z M352.362,333.28c0,13.57,0,26.93,0,40.331c7.532,0,14.721,0,22.07,0
	c0-13.501,0-26.77,0-40.331C367.111,333.28,359.913,333.28,352.362,333.28z M374.371,244.274c0-13.708,0-27.005,0-40.672
	c-6.405,0-12.596,0.151-18.774-0.068c-2.841-0.101-3.628,0.824-3.599,3.572c0.124,11.37,0.043,22.742,0.073,34.114
	c0.003,0.995,0.26,1.989,0.409,3.054C359.873,244.274,366.975,244.274,374.371,244.274z"/>
</svg>
