<?xml version="1.0" encoding="iso-8859-1"?>
<!-- Generator: Adobe Illustrator 19.0.0, SVG Export Plug-In . SVG Version: 6.00 Build 0)  -->
<svg version="1.1" id="Layer_1" xmlns="http://www.w3.org/2000/svg" xmlns:xlink="http://www.w3.org/1999/xlink" x="0px" y="0px"
	 viewBox="0 0 500 500" style="enable-background:new 0 0 500 500;" xml:space="preserve">
<path id="XMLID_4_" d="M99.66,25.653c5,9.516,10.002,18.648,14.65,27.958c11.027,22.089,21.877,44.268,32.817,66.401
	c13.017,26.334,26.036,52.669,39.09,78.984c8.496,17.126,17.122,34.189,25.573,51.337c9.169,18.603,18.016,37.367,27.37,55.876
	c5.309,10.505,10.686,21.084,17.207,30.845c11.936,17.864,43.146,17.741,55.546-1.898c4.93-7.809,8.949-16.222,13.044-24.527
	c21.251-43.096,42.325-86.279,63.603-129.362c10.045-20.338,20.515-40.465,30.585-60.79c5.959-12.027,11.334-24.343,17.298-36.367
	c6.361-12.823,13.165-25.424,19.655-38.184c2.548-5.011,4.416-10.398,7.274-15.209c1.617-2.723,4.378-6.157,7.042-6.571
	c5.122-0.795,10.819-0.58,15.756,0.925c4.625,1.41,5.38,6.542,2.929,11.473c-8.138,16.368-16.386,32.681-24.45,49.085
	c-8.436,17.161-16.623,34.445-25.076,51.597c-8.917,18.093-18.103,36.053-27.016,54.147c-8.312,16.874-16.304,33.906-24.647,50.766
	c-11.597,23.436-23.52,46.71-35.061,70.172c-12.691,25.8-25,51.789-37.676,77.597c-10.521,21.421-21.479,42.628-31.967,64.065
	c-6.827,13.954-18.725,20.96-33.189,21.157c-14.601,0.199-26.735-7.144-33.452-20.77c-21.775-44.172-43.182-88.526-64.864-132.744
	c-8.425-17.181-17.369-34.107-25.785-51.292c-11.013-22.486-21.646-45.157-32.614-67.666c-8.73-17.917-17.724-35.705-26.585-53.557
	c-7.886-15.889-15.734-31.796-23.631-47.679C36.951,89.081,30.7,76.798,24.625,64.428c-3.711-7.557-7.411-15.134-10.713-22.874
	c-4.797-11.245-0.336-17.567,11.612-17.379c22.1,0.348,44.203,0.472,66.304,0.741C94.072,24.943,96.312,25.327,99.66,25.653z"/>
</svg>
