<?xml version="1.0" encoding="iso-8859-1"?>
<!-- Generator: Adobe Illustrator 19.0.0, SVG Export Plug-In . SVG Version: 6.00 Build 0)  -->
<svg version="1.1" id="Layer_1" xmlns="http://www.w3.org/2000/svg" xmlns:xlink="http://www.w3.org/1999/xlink" x="0px" y="0px"
	 viewBox="0 0 2000 2000" style="enable-background:new 0 0 2000 2000;" xml:space="preserve">
<path d="M783.249,78.624c63.06-8.938,272.52-6.911,312.74,3.174c-114.247,497.587-228.514,995.264-342.407,1491.308
	c-40.861,9.76-336.078,11.285-391.946,2.103C247.452,1077.856,132.872,578.782,17.454,76.057c109.461,0,213.937,0,323.996,0
	c70.427,367.799,140.81,735.364,211.192,1102.928c3.232-0.105,6.463-0.21,9.695-0.315C635.819,812.764,709.3,446.859,783.249,78.624
	z M1980.39,1055.321c1.686-13.761,3.411-21.815,3.551-29.897c1.733-100.363-10.385-199.491-30.386-297.5
	c-7.723-37.847-19.421-75.573-34.636-111.07c-41.261-96.26-112.881-159.714-215.619-184.291
	c-107.664-25.756-215.307-23.299-321.36,9.01c-81.077,24.7-144.432,74.173-187.808,146.983
	c-37.667,63.227-58.595,132.647-69.171,205.42c-16.909,116.341-13.784,233.263-9.844,350.081
	c3.099,91.887,17.58,181.834,57.647,266.029c41.667,87.557,109.253,145.28,201.325,174.065
	c83.81,26.201,169.62,30.072,256.404,19.77c187.323-22.236,283.839-130.875,317.863-299.363
	c6.823-33.788,7.684-68.779,11.418-104.403c-90.27,0-174.065,0-259.584,0c-2.199,12.597-3.116,22.583-5.752,32.093
	c-9.001,32.476-16.154,65.759-28.533,96.939c-20.735,52.231-61.112,80.237-117.863,80.506c-55.983,0.265-90.62-32.109-113.751-79.69
	c-3.686-7.583-6.631-15.595-9.218-23.634c-25.799-80.182-26.153-162.276-20.67-251.047
	C1597.404,1055.321,1787.972,1055.321,1980.39,1055.321z M1430.673,694.121c29.794-64.463,91.829-92.813,160.396-75.568
	c41.28,10.382,67.664,38.291,81.491,77.189c20.617,57.999,26.263,118.157,22.865,178.836
	c-40.328,10.163-240.352,11.281-291.049,1.646C1397.078,813.553,1403.889,752.072,1430.673,694.121z M1788.457,1929.737
	c42.352-1.361,68.19-21.258,73.346-62.312c4.17-33.199,4.18-67.717,0.165-100.94c-4.711-38.977-25.452-55.82-64.426-59.312
	c-20.205-1.81-40.698-1.139-61.031-0.55c-18.013,0.522-42.669-3.365-42.07,23.536c0.522,23.445,23.83,20.116,39.794,19.592
	c97.342-3.197,85.526-2.031,85.524,100.933c0,1.689-0.312,3.377-0.427,5.068c-1.114,16.348-10.534,24.966-26.233,25.034
	c-69.534,0.302-139.074,0.392-208.603-0.304c-17.705-0.177-27.766-10.518-28.07-29.216c-0.247-15.237,0.997-31.018-2.699-45.463
	c-1.906-7.448-13.422-17.616-20.072-17.242c-6.906,0.388-16.811,11.054-18.905,18.949c-3.379,12.74-2.077,26.915-1.619,40.445
	c1.816,53.685,28.867,80.85,81.946,81.912c30.523,0.611,61.068,0.111,91.604,0.101
	C1720.608,1929.958,1754.564,1930.827,1788.457,1929.737z M304.866,1706.446c-30.465,0-60.929-0.003-91.394,0.004
	c-3.385,0.001-6.782-0.123-10.152,0.112c-43.693,3.049-67.111,20.978-72.237,63.329c-3.818,31.539-2.063,64.08,0.318,95.943
	c2.03,27.165,17.638,52.458,43.223,57.39c35.763,6.893,73.513,4.624,110.344,3.654c5.789-0.152,15.439-14.079,15.544-21.743
	c0.093-6.818-9.327-17.045-16.793-19.903c-10.582-4.05-23.226-3.567-34.986-3.546c-72.463,0.131-77.909,9.934-76.525-79.083
	c0.105-6.764,0.258-13.533,0.627-20.287c1.12-20.496,12.787-30.356,32.547-31.391c11.82-0.619,23.674-0.773,35.513-0.793
	c47.389-0.079,94.786-0.534,142.167,0.121c49.138,0.68,50.654,2.727,53.763,51.061c0.647,10.058,0.417,20.868,4.206,29.797
	c2.828,6.663,11.245,14.665,17.604,15.056c6.163,0.379,15.631-6.761,18.917-13.064c28.642-54.943-9.58-123.088-71.154-126.225
	c-33.762-1.72-67.683-0.307-101.532-0.307C304.866,1706.528,304.866,1706.487,304.866,1706.446z M1378.588,1930.381
	c83.81,7.253,101.36-66.609,86.87-129.222c-1.359-5.872-12.118-13.462-18.279-13.256c-6.397,0.213-16.11,7.857-17.991,14.157
	c-3.785,12.674-3.698,26.619-4.38,40.081c-1.707,33.691-4.606,38.399-38.11,38.984c-62.744,1.095-125.534,1.048-188.278-0.061
	c-29.992-0.53-32.858-5.191-35.517-36.941c-1.126-13.445-0.077-27.707-4.475-40.003c-2.607-7.289-13.354-14.305-21.526-15.906
	c-4.409-0.864-15.198,9.389-16.009,15.56c-2.618,19.91-4.731,40.645-1.962,60.349c6.017,42.826,32.221,64.445,76.494,65.668
	c32.205,0.89,64.455,0.174,96.685,0.186C1320.947,1929.987,1349.965,1927.903,1378.588,1930.381z M989.744,1930.363
	c80.252,6.237,95.646-76.633,80.258-129.394c-1.735-5.949-12.236-13.049-18.522-12.909c-6.166,0.138-15.474,7.772-17.461,14.01
	c-3.47,10.889-2.606,23.22-3.168,34.965c-1.864,38.93-5.595,43.746-44.09,44.288c-59.135,0.832-118.301,0.847-177.434-0.064
	c-38.167-0.588-40.768-4.432-42.553-45.52c-0.439-10.099,1.547-21.258-2.168-29.975c-3.312-7.77-13.096-17.884-19.785-17.713
	c-7.027,0.181-18.085,10.402-19.749,17.924c-3.581,16.182-4.106,33.615-2.599,50.238c4.255,46.937,32.213,72.454,79.725,73.608
	c32.09,0.78,64.213,0.149,96.321,0.154C928.937,1929.982,959.508,1928.013,989.744,1930.363z M605.871,1930.13
	c22.408,0.553,38.982-9.474,53.374-24.894c18.496-19.816,28.282-82.638,15.068-105.784c-3.42-5.99-13.571-12.171-19.778-11.401
	c-6.18,0.767-14.894,9.466-16.139,15.914c-2.851,14.768-1.238,30.334-2.52,45.484c-1.642,19.4-11.526,31.662-32.317,31.703
	c-67.824,0.135-135.651,0.302-203.472-0.148c-17.798-0.118-28.38-9.278-28.036-28.501c0.212-11.862,2.534-24.658-1.078-35.349
	c-3.761-11.132-12.097-26.918-20.958-28.804c-17.055-3.63-20.753,12.879-21.397,27.16c-0.535,11.847-0.661,23.751-0.189,35.599
	c2.065,51.817,27.525,77.485,79.055,78.72c32.2,0.772,64.433,0.144,96.652,0.114C538.049,1929.911,571.978,1929.292,605.871,1930.13
	z M597.714,1706.716c-29.142,0.553-56.899,10.52-64.522,39.847c-6.999,26.927-4.548,56.569-3.978,84.969
	c0.104,5.206,11.052,14.063,17.15,14.197c6.145,0.135,16.154-7.4,17.972-13.509c3.761-12.641,3.45-26.548,4.383-39.964
	c2.516-36.193,5.833-40.959,42.329-41.679c59.313-1.169,118.677-1.137,177.995-0.121c36.701,0.628,39.76,5.229,42.433,41.198
	c1.111,14.952,2.802,30.073,6.607,44.49c1.241,4.7,10.718,11.059,15.181,10.197c7.068-1.365,17.627-7.298,18.691-12.839
	c3.143-16.367,3.15-33.498,2.959-50.314c-0.584-51.406-22.174-74.302-73.778-76.419c-33.849-1.389-67.802-0.262-101.708-0.234
	C665.523,1706.566,631.608,1706.073,597.714,1706.716z M1098.049,1706.441c-30.51,0-61.027-0.409-91.53,0.082
	c-71.562,1.152-110.781,60.483-82.557,125.597c2.779,6.413,11.955,13.923,18.145,13.908c6.298-0.015,16.245-7.615,18.093-13.828
	c3.757-12.631,3.427-26.547,4.26-39.966c2.187-35.212,6.659-41.137,42.076-41.777c59.306-1.072,118.657-1.012,177.967-0.027
	c36.665,0.609,40.045,5.411,42.469,40.965c1.023,15,1.401,30.666,6.191,44.615c5.052,14.714,24.17,14.446,32.132,1.118
	c30.899-51.725-6.219-126.704-65.568-130.207c-33.782-1.994-67.779-0.361-101.679-0.361
	C1098.049,1706.52,1098.049,1706.48,1098.049,1706.441z M1395.163,1706.679c-65.916,2.253-104.434,68.003-74.587,127.448
	c2.995,5.965,13.437,12.32,19.468,11.497c6.331-0.863,15.181-9.429,16.455-15.903c2.896-14.715,2.323-30.214,2.24-45.39
	c-0.114-20.751,10.55-32.922,30.264-33.202c67.748-0.961,135.523-1.002,203.274-0.197c19.403,0.231,31.005,11.497,31.039,32.532
	c0.025,15.198-1.157,30.975,2.589,45.35c1.913,7.34,12.79,14.947,20.969,16.976c4.233,1.05,15.114-8.998,16.524-15.445
	c3.2-14.631,3.409-30.163,3.034-45.284c-1.329-53.591-24.088-76.616-78.131-78.404c-30.464-1.008-60.989-0.182-91.487-0.182
	C1462.929,1706.476,1429.01,1705.522,1395.163,1706.679z"/>
</svg>
