<?xml version="1.0" encoding="iso-8859-1"?>
<!-- Generator: Adobe Illustrator 19.0.0, SVG Export Plug-In . SVG Version: 6.00 Build 0)  -->
<svg version="1.1" id="Layer_1" xmlns="http://www.w3.org/2000/svg" xmlns:xlink="http://www.w3.org/1999/xlink" x="0px" y="0px"
	 viewBox="0 0 500 500" enable-background="new 0 0 500 500" xml:space="preserve">
<path d="M11.252,264.925c0-14.58,0-28.899,0-43.408c39.978,0,79.876,0,120.153,0c-1.652-3.998-3.164-7.713-4.72-11.41
	c-4.289-10.188-8.633-20.353-12.859-30.567c-0.611-1.476-1.519-1.596-2.834-1.595c-32.321,0.023-64.641,0.018-96.962,0.018
	c-0.859,0-1.718,0-2.718,0c0-14.509,0-28.88,0-43.401c27.709,0,55.367,0,83.457,0C76.152,90.959,57.655,47.64,39.036,4.037
	c0.957,0,1.586,0,2.215,0c14.204,0,28.407,0.026,42.611-0.037c1.53-0.007,2.274,0.456,2.876,1.866
	c23.778,55.693,47.592,111.37,71.412,167.045c6.618,15.469,13.305,30.908,19.864,46.402c0.713,1.683,1.568,2.172,3.336,2.17
	c45.002-0.05,90.005-0.052,135.007,0.007c1.935,0.003,2.834-0.511,3.638-2.354c27.699-63.447,55.473-126.86,83.234-190.279
	c3.39-7.746,6.737-15.511,10.188-23.229c0.302-0.674,1.232-1.52,1.874-1.524c15.286-0.085,30.573-0.066,46.306-0.066
	c-19.043,43.534-37.982,86.829-57.047,130.412c28.417,0,56.548,0,84.796,0c0,14.538,0,28.858,0,43.511c-0.802,0-1.635,0-2.469,0
	c-33.045,0-66.09,0.016-99.135-0.044c-1.734-0.003-2.495,0.534-3.173,2.104c-5.675,13.135-11.456,26.223-17.197,39.33
	c-0.256,0.583-0.434,1.201-0.718,1.999c40.931,0,81.69,0,122.63,0c0,14.53,0,28.901,0,43.574c-0.847,0-1.757,0-2.667,0
	c-45.51,0-91.019,0.013-136.529-0.045c-1.915-0.002-2.884,0.476-3.681,2.314c-13.478,31.093-27.035,62.152-40.585,93.213
	c-14.734,33.778-29.479,67.551-44.218,101.327c-4.335,9.934-8.663,19.87-12.999,29.803c-0.28,0.641-0.6,1.265-1.046,2.2
	c-3.19-7.491-6.249-14.65-9.289-21.817c-14.585-34.388-29.158-68.781-43.75-103.166c-14.394-33.92-28.819-67.827-43.162-101.768
	c-0.677-1.601-1.424-2.106-3.146-2.104c-44.712,0.053-89.425,0.042-134.137,0.042C13.213,264.925,12.35,264.925,11.252,264.925z
	 M299.853,265.077c-34.217,0-68.213,0-102.475,0c16.974,39.603,33.852,78.981,50.902,118.759
	C265.612,343.924,282.724,304.519,299.853,265.077z"/>
</svg>
