<?xml version="1.0" encoding="iso-8859-1"?>
<!-- Generator: Adobe Illustrator 19.0.0, SVG Export Plug-In . SVG Version: 6.00 Build 0)  -->
<svg version="1.1" id="Layer_1" xmlns="http://www.w3.org/2000/svg" xmlns:xlink="http://www.w3.org/1999/xlink" x="0px" y="0px"
	 viewBox="0 0 500 500" enable-background="new 0 0 500 500" xml:space="preserve">
<path d="M250.061,454.946c-0.39-0.534-0.773-1.009-1.102-1.519c-11.571-17.936-23.148-35.868-34.699-53.817
	c-4.463-6.935-8.862-13.91-13.294-20.864c-0.409-0.642-0.836-1.275-1.283-1.892c-1.52-2.095-3.606-3.191-6.162-3.4
	c-2.139-0.174-4.284-0.28-6.423-0.463c-4.415-0.376-8.828-0.775-13.24-1.18c-3.31-0.304-6.622-0.585-9.924-0.957
	c-5.365-0.606-10.726-1.245-16.081-1.933c-4.05-0.521-8.096-1.092-12.129-1.729c-5.264-0.831-10.528-1.679-15.769-2.645
	c-9.329-1.718-18.588-3.775-27.769-6.167c-13.885-3.617-27.537-7.959-40.845-13.338c-8.569-3.464-16.763-7.655-24.305-13.037
	c-4.067-2.902-8.005-5.962-11.383-9.681c-2.344-2.58-4.379-5.368-5.833-8.553c-2.784-6.096-2.771-12.202-0.01-18.296
	c1.708-3.77,4.176-7.013,7.046-9.966c4.715-4.852,10.06-8.904,15.818-12.429c7.301-4.471,15.097-7.884,23.146-10.733
	c9.734-3.446,19.68-6.187,29.671-8.766c8.647-2.232,17.304-4.422,25.96-6.621c0.804-0.204,1.629-0.323,2.438-0.506
	c0.392-0.089,0.771-0.235,1.084-0.333c0.062-0.174,0.1-0.232,0.1-0.291c0-0.067-0.028-0.135-0.054-0.199
	c-0.026-0.064-0.063-0.123-0.096-0.184c-0.067-0.122-0.13-0.245-0.202-0.363c-0.072-0.118-0.157-0.229-0.232-0.345
	C79.853,190.716,45.218,136.693,10.584,82.669c-0.075-0.117-0.146-0.236-0.214-0.356c-0.034-0.06-0.059-0.125-0.083-0.19
	c-0.024-0.065-0.043-0.132-0.105-0.325c0.367-0.122,0.732-0.337,1.105-0.352c2.216-0.087,4.433-0.166,6.65-0.176
	c20.658-0.098,41.317-0.182,61.975-0.269c0.485-0.002,0.972-0.017,1.456,0.011c2.574,0.149,4.673,1.191,6.156,3.345
	c0.629,0.913,1.239,1.839,1.836,2.773c12.927,20.195,25.842,40.398,38.779,60.587c26.921,42.011,53.858,84.011,80.781,126.021
	c12.639,19.721,25.258,39.454,37.889,59.18c1.044,1.63,1.944,3.362,3.359,4.792c0.659-0.057,0.787-0.682,1.063-1.104
	c5.571-8.529,11.141-17.059,16.685-25.606c36.582-56.397,73.158-112.798,109.734-169.199c11.953-18.432,23.9-36.868,35.853-55.3
	c0.565-0.872,1.15-1.732,1.745-2.584c1.289-1.85,3.039-2.693,5.322-2.655c4.505,0.077,9.012,0.049,13.518,0.058
	c18.649,0.034,37.298,0.062,55.946,0.104c0.877,0.002,1.799-0.189,2.566,0.287c0.064,0.141,0.111,0.198,0.112,0.257
	c0.001,0.065-0.036,0.133-0.062,0.196c-0.026,0.064-0.056,0.127-0.092,0.186c-0.146,0.236-0.292,0.471-0.444,0.703
	c-35.628,54.785-71.255,109.571-106.882,164.357c-0.075,0.115-0.132,0.243-0.193,0.367c-0.03,0.062-0.048,0.13-0.117,0.32
	c0.34,0.156,0.675,0.375,1.042,0.467c8.328,2.082,16.682,4.061,24.983,6.244c11.057,2.907,21.961,6.305,32.507,10.772
	c12.277,5.2,23.631,11.888,33.6,20.811c1.394,1.248,2.82,2.471,4.117,3.816c3.342,3.464,5.686,7.48,6.523,12.292
	c0.572,3.285,0.22,6.485-0.809,9.627c-1.157,3.533-3.019,6.684-5.298,9.596c-3.75,4.794-8.244,8.78-13.285,12.168
	c-3.457,2.323-7.079,4.354-10.796,6.228c-14.148,7.132-28.898,12.698-44.143,16.968c-10.675,2.99-21.48,5.414-32.425,7.175
	c-6.49,1.044-12.994,2.01-19.507,2.903c-6.308,0.865-12.631,1.616-18.953,2.37c-4.262,0.508-8.535,0.918-12.799,1.403
	c-4.194,0.477-8.384,0.993-12.576,1.49c-3.299,0.391-6.594,0.829-9.9,1.152c-2.554,0.25-4.354,1.627-5.838,3.565
	c-0.336,0.439-0.629,0.913-0.933,1.377c-15.046,23.035-30.086,46.074-45.142,69.102c-1.516,2.319-3.126,4.576-4.701,6.855
	C250.483,454.632,250.304,454.735,250.061,454.946z M172.483,336.766c-0.051-1.57-0.62-2.643-1.308-3.71
	c-12.422-19.283-24.825-38.579-37.236-57.869c-2.737-4.254-5.494-8.496-8.232-12.75c-0.452-0.703-0.873-1.425-1.648-1.828
	c-1.464-0.759-2.949-1.122-4.587-0.486c-2.001,0.776-4.04,1.453-6.054,2.195c-6.112,2.251-12.167,4.637-18.027,7.495
	c-2.747,1.34-5.396,2.838-7.828,4.699c-3.538,2.707-6.691,5.82-9.609,9.175c-0.408,0.469-0.776,0.978-1.124,1.495
	c-3.325,4.94-3.135,10.789,0.53,15.474c0.724,0.926,1.537,1.786,2.349,2.639c4.964,5.214,10.583,9.533,17.037,12.79
	c9.622,4.856,19.652,8.618,30.01,11.54c14.02,3.955,28.334,6.474,42.704,8.718C170.401,336.491,171.35,336.608,172.483,336.766z
	 M328.167,335.375c1.909,0.24,3.598,0.355,5.31-0.086c3.084-0.794,6.189-1.505,9.277-2.28c11.548-2.897,23.101-5.776,34.636-8.724
	c4.83-1.234,9.624-2.6,14.24-4.533c7.366-3.084,14.017-7.25,19.748-12.84c1.896-1.849,3.573-3.87,4.795-6.237
	c1.263-2.447,1.979-5.039,1.801-7.8c-0.182-2.818-1.102-5.435-2.669-7.777c-2.897-4.33-6.502-7.916-11.233-10.245
	c-7.955-3.915-15.916-7.82-23.875-11.729c-0.311-0.153-0.621-0.308-0.942-0.437c-1.852-0.742-3.161-0.512-4.503,0.975
	c-0.783,0.868-1.434,1.865-2.074,2.85c-8.014,12.313-16.022,24.63-24.017,36.956c-6.524,10.058-13.031,20.128-19.539,30.197
	C328.795,334.171,328.533,334.716,328.167,335.375z M252.331,272.962c3.012-4.899,6.015-9.803,9.025-14.703
	c35.647-58.033,71.295-116.066,106.944-174.098c4.823-7.852,9.659-15.696,14.477-23.551c0.377-0.614,0.944-1.169,0.917-2.097
	c-0.484,0-0.896,0-1.308,0c-88.447,0.006-176.894,0.012-265.34,0.021c-0.066,0-0.138,0.03-0.195,0.066
	c-0.047,0.03-0.075,0.089-0.142,0.175c0.05,0.165,0.069,0.382,0.172,0.546c44.632,71.704,89.271,143.405,133.915,215.101
	c0.058,0.094,0.21,0.13,0.412,0.248C251.58,274.106,251.973,273.545,252.331,272.962z"/>
</svg>
