<?xml version="1.0" encoding="utf-8"?>
<!-- Generator: Adobe Illustrator 25.1.0, SVG Export Plug-In . SVG Version: 6.00 Build 0)  -->
<svg version="1.1" id="vidt" xmlns="http://www.w3.org/2000/svg" xmlns:xlink="http://www.w3.org/1999/xlink" x="0px" y="0px"
	 viewBox="0 0 500 500" style="enable-background:new 0 0 500 500;" xml:space="preserve">
<g>
	<path d="M364,244.2l-78.4-46c-1.5-0.9-3.4,0.2-3.4,1.9v91.3c0,1.7,1.9,2.8,3.4,1.9l78.4-45.2C365.5,247.2,365.5,245.1,364,244.2z"
		/>
	<path d="M249.5,2.6C113.1,2.6,2.6,113.1,2.6,249.5s110.5,246.9,246.9,246.9s246.9-110.5,246.9-246.9S385.9,2.6,249.5,2.6z
		 M428.2,267.6L166.9,418.3c-3.8,2.2-8,3.3-12.3,3.3c-6,0-12-2.2-16.7-6.6c-5.1-4.7-7.8-11.5-7.8-18.5V97.9
		c0-13.3,10.4-24.7,23.7-25.1c13.9-0.5,25.3,10.7,25.3,24.5v253.6c0,1.7,1.9,2.8,3.4,1.9l49.5-28.6c0.7-0.4,1.1-1.1,1.1-1.9V154
		c0-6.8,2.5-13.4,7.4-18.1c8.2-7.9,20.2-9.1,29.5-3.6L427.9,225c5.8,3.4,10.2,8.8,11.8,15.3C442.4,251.2,437.5,262.2,428.2,267.6z"
		/>
</g>
</svg>
