<?xml version="1.0" encoding="utf-8"?>
<!-- Generator: Adobe Illustrator 25.1.0, SVG Export Plug-In . SVG Version: 6.00 Build 0)  -->
<svg version="1.1" id="vin" xmlns="http://www.w3.org/2000/svg" xmlns:xlink="http://www.w3.org/1999/xlink" x="0px" y="0px"
	 viewBox="0 0 500 500" style="enable-background:new 0 0 500 500;" xml:space="preserve">
<path d="M330.9,89.5c-29.6,0-57.3,7.9-81.3,21.6c-24-13.6-51.6-21.5-81.1-21.5C77.8,89.5,4.2,163.2,4.2,253.8S77.8,418,168.4,418
	c29.6,0,57.4-7.9,81.4-21.6c24,13.6,51.6,21.5,81.1,21.5c90.6,0,164.3-73.7,164.3-164.3S421.5,89.5,330.9,89.5z M330.9,335.4
	c-6.5,0-12.7-0.8-18.8-2.2c13.1-23.6,20.6-50.7,20.6-79.5c0-1-0.1-1.9-0.1-2.9h-82.5c0,1,0.1,2,0.1,3c0,45.1-36.6,81.7-81.7,81.7
	c-45.1,0-81.7-36.6-81.7-81.7s36.6-81.7,81.7-81.7c6.4,0,12.7,0.8,18.7,2.2c-12.7,22.9-20.1,49.2-20.5,77.1h82.5
	c1.3-44,37.3-79.4,81.7-79.4c45.1,0,81.7,36.6,81.7,81.7C412.6,298.8,376,335.4,330.9,335.4z"/>
</svg>
