<?xml version="1.0" encoding="iso-8859-1"?>
<!-- Generator: Adobe Illustrator 19.0.0, SVG Export Plug-In . SVG Version: 6.00 Build 0)  -->
<svg version="1.1" id="Layer_1" xmlns="http://www.w3.org/2000/svg" xmlns:xlink="http://www.w3.org/1999/xlink" x="0px" y="0px"
	 viewBox="0 0 2000 2000" style="enable-background:new 0 0 2000 2000;" xml:space="preserve">
<path d="M1001.763,28.578c530.288,4.085,981.022,429.565,962.033,1002.312c-16.458,496.402-419.691,941.978-996.567,928.131
	c-503.45-12.084-955.803-427.047-932.722-1011.053C54.029,454.006,452.978,32.999,1001.763,28.578z M855.476,732.701
	c-83.823-49.398-160.127-95.47-237.524-139.625c-62.367-35.58-127.391-66.649-188.667-103.941
	c-37.874-23.05-71.173-25.394-110.137-4.962c-69.958,36.685-97.856,109.004-49.695,188.631
	c50.978,84.287,105.025,166.715,157.498,250.102c14.879,23.645,28.315,48.208,43.487,71.655
	c76.116,117.628,152.847,234.857,228.855,352.554c63.064,97.653,123.858,196.823,189.13,292.964
	c17.658,26.009,44.846,55.022,73.023,62.532c67.947,18.109,117.589-10.189,155.588-72.292
	c41.099-67.169,81.976-134.505,124.658-200.666c64.56-100.073,131.269-198.76,195.796-298.853
	c50.547-78.407,98.635-158.395,148.808-237.048c45.572-71.44,92.656-141.915,138.733-213.035
	c24.322-37.541,37.295-76.44,23.866-122.733c-9.86-33.991-37.536-47.776-60.956-67.384c-29.393-24.609-60.785-30.6-95.501-11.947
	c-57.999,31.163-116.605,61.249-173.873,93.698c-35.052,19.861-67.124,44.996-102.239,64.726
	c-58.219,32.712-117.873,62.862-176.799,94.322c-28.795,15.373-57.289,31.308-85.96,46.913
	c-42.847,23.321-86.381,45.469-128.422,70.161c-44.417,26.088-87.181,54.978-131.312,81.574c-6.584,3.968-16.697,2.08-31.843,3.546
	C794.551,863.626,824.668,798.906,855.476,732.701z M1357.776,808.116c-18.697,9.372-36.033,21.415-54.368,31.564
	c-56.441,31.241-113.096,62.097-169.632,93.167c-46.956,25.806-93.941,51.559-140.768,77.597
	c-62.202,34.587-124.816,68.488-186.14,104.575c-28.788,16.941-30.631,36.445-13.962,62.084
	c51.486,79.192,101.184,159.57,153.961,237.88c13.257,19.67,33.542,41.741,54.281,46.437c11.619,2.631,34.07-25.957,45.992-44.175
	c50.488-77.15,98.653-155.816,148.051-233.685c71.661-112.962,142.1-226.76,216.855-337.644c14.46-21.449,9.888-32.95-3.347-58.107
	C1390.768,794.833,1373.62,800.173,1357.776,808.116z"/>
</svg>
