<?xml version="1.0" encoding="iso-8859-1"?>
<!-- Generator: Adobe Illustrator 19.0.0, SVG Export Plug-In . SVG Version: 6.00 Build 0)  -->
<svg version="1.1" id="Layer_1" xmlns="http://www.w3.org/2000/svg" xmlns:xlink="http://www.w3.org/1999/xlink" x="0px" y="0px"
	 viewBox="0 0 500 500" enable-background="new 0 0 500 500" xml:space="preserve">
<path d="M248.596,494.929C112.076,494.731,2.754,384.501,3.018,247.312C3.28,110.932,113.674,1.673,250.878,2.001
	c136.308,0.326,245.425,110.835,245.033,248.161C495.524,385.932,385.191,495.128,248.596,494.929z M240.474,421.141
	c43.791-0.101,71.071-37.419,57.406-73.281c-22.903-60.106-46.778-119.856-71.229-179.352c-11.441-27.84-43.03-39.796-70.62-28.807
	c-27.43,10.926-42.177,41.569-31.413,69.548c23.096,60.032,46.917,119.795,71.331,179.303
	C204.772,410.058,222.838,420.165,240.474,421.141z M338.339,294.452c36.351-0.515,62.989-35.245,52.148-69.867
	c-6.501-20.761-14.91-41.091-24.287-60.744c-12.65-26.514-43.674-36.619-71.164-24.806c-25.777,11.077-38.936,41.893-28.977,68.895
	c6.527,17.699,13.429,35.276,20.726,52.672C295.822,282.146,315.517,294.775,338.339,294.452z"/>
</svg>
