<?xml version="1.0" encoding="iso-8859-1"?>
<!-- Generator: Adobe Illustrator 19.0.0, SVG Export Plug-In . SVG Version: 6.00 Build 0)  -->
<svg version="1.1" id="Layer_1" xmlns="http://www.w3.org/2000/svg" xmlns:xlink="http://www.w3.org/1999/xlink" x="0px" y="0px"
	 viewBox="0 0 2000 2000" style="enable-background:new 0 0 2000 2000;" xml:space="preserve">
<path d="M100.748,715.724c30.848,53.427,60.087,102.065,86.846,152.033c5.633,10.52,3.963,26.105,2.614,39.038
	c-24.453,234.44,39.388,441.602,191.161,621.759c104.719,124.304,236.797,206.532,391.424,253.948
	c8.609,2.64,17.287,5.057,25.262,7.382c49.268-20.097,54.167-34.973,27.693-80.853c-218.051-377.89-436.06-755.804-654.11-1133.694
	c-51.477-89.212-103.061-178.362-157.023-271.74c119.889,0,234.889,0,346.998,0c298.957-286.213,865.048-373.539,1276.898-1.768
	c112.203,0,225.826,0,345.926,0c-50.239,87.541-98.362,171.395-147.74,257.434c123.448,248.384,143.101,505.197,48.115,767.499
	c-70.339,194.238-195.315,347.939-367.259,461.01c-351.237,230.973-789.806,197.471-1098.475-43.873
	C81.517,1479.964-11.96,1051.058,100.748,715.724z M999.324,1069.838c-122.471-212.156-242.247-419.643-361.347-625.96
	c-79.864,0-156.618,0-237.668,0c-26.828,34.299-54.867,70.147-82.82,105.884c227.67,394.41,453.564,785.744,681.802,1181.138
	c228.343-395.593,454.382-787.194,681.98-1181.495c-28.127-35.998-56.174-71.893-82.31-105.343c-82.43,0-160.126,0-238.244,0
	C1240.969,651.411,1121.569,858.162,999.324,1069.838z M1191.234,1791.19c540.881-144.633,732.906-702.196,563.677-1089.948
	c-200.984,348.237-400.997,694.79-603.862,1046.286C1165.783,1763.537,1179.802,1778.769,1191.234,1791.19z M998.565,809.234
	c6.982-10.856,11.61-17.453,15.636-24.401c82.053-141.6,164.628-282.903,245.661-425.085c23.264-40.82,55.608-60.325,102.053-58.295
	c16.745,0.732,33.549,0.118,55.244,0.118c-270.441-174.408-645.26-135.367-830.564,1.479c29.553,0,56.524-3.045,82.536,0.656
	c48.991,6.969,66.047,49.247,87.307,86.125C836.088,527.996,915.896,666.069,998.565,809.234z"/>
</svg>
