<?xml version="1.0" encoding="iso-8859-1"?>
<!-- Generator: Adobe Illustrator 19.0.0, SVG Export Plug-In . SVG Version: 6.00 Build 0)  -->
<svg version="1.1" id="Layer_1" xmlns="http://www.w3.org/2000/svg" xmlns:xlink="http://www.w3.org/1999/xlink" x="0px" y="0px"
	 viewBox="0 0 2000 2000" style="enable-background:new 0 0 2000 2000;" xml:space="preserve">
<path d="M1778.253,21.118c2.536,86.266,6.376,172.518,7.272,258.801c1.077,103.669-1.837,207.389-0.05,311.036
	c0.85,49.286-13.566,89.534-43.755,128.478c-63.355,81.727-123.109,166.246-191.544,259.424c0,205.571-0.209,420.508,0.131,635.444
	c0.098,62.066,1.397,124.139,2.808,186.193c2.43,106.961-63.393,177.364-167.276,175.61c-329.109-5.558-658.372-1.925-987.575-2.125
	c-113.3-0.069-165.141-51.278-165.317-165.056c-0.492-318.834,0.959-637.676-0.925-956.499
	c-0.512-86.597,25.283-151.688,114.975-181.656c5.837-15.594,11.746-31.378,18.344-49.002
	c16.221,15.034,31.216,28.931,47.253,43.794c300.197,0,600.616,0,901.263,0c150.116-216.573,299.391-431.933,448.667-647.294
	C1767.767,19.219,1773.01,20.168,1778.253,21.118z M1438.096,1929.031c48.654-32.507,55.385-68.192,55.195-109.57
	c-1.06-230.464-0.393-460.936-0.775-691.405c-0.026-15.917-3.775-31.827-7.646-62.365
	c-208.684,281.433-407.938,550.148-614.153,828.251c-177.521-238.421-347.681-466.955-518.306-696.114
	c0-157.072,0-311.042,0-473.427c-18.387,9.436-35.261,12.442-38.424,20.701c-13.435,35.08-31.94,71.646-32.226,107.798
	c-2.496,315.902-1.473,631.833-1.467,947.755c0,10.356-0.68,20.835,0.61,31.048c8.572,67.866,37.2,95.177,106.455,96.055
	c121.677,1.544,243.381,1.156,365.075,1.231C982.793,1929.133,1213.151,1929.031,1438.096,1929.031z M447.987,719.711
	c145.162,200.934,280.808,388.694,423.444,586.132c138.781-200.894,268.895-389.241,404.91-586.132
	C996.327,719.711,732.08,719.711,447.987,719.711z"/>
</svg>
