<?xml version="1.0" encoding="iso-8859-1"?>
<!-- Generator: Adobe Illustrator 19.0.0, SVG Export Plug-In . SVG Version: 6.00 Build 0)  -->
<svg version="1.1" id="Layer_1" xmlns="http://www.w3.org/2000/svg" xmlns:xlink="http://www.w3.org/1999/xlink" x="0px" y="0px"
	 viewBox="0 0 2000 2000" style="enable-background:new 0 0 2000 2000;" xml:space="preserve">
<path d="M1001.688,1708.985c205.303-354.598,409.882-707.944,616.457-1064.739c-9.548-0.635-15.282-0.918-20.997-1.414
	c-31.375-2.721-63.083-3.52-94.025-8.798c-31.638-5.397-38.328-18.723-28.327-49.4c8.519-26.132,9.104-49.543-8.16-73.606
	c-6.229-8.683-5.634-25.285-2.607-36.818c3.747-14.278,11.379-28.54,20.639-40.178c26.642-33.483,54.786-65.781,82.748-98.194
	c5.056-5.86,11.496-11.135,18.348-14.607c4.055-2.055,12.915-1.981,14.725,0.584c2.819,3.997,3.897,12.511,1.417,16.295
	c-5.755,8.781-13.7,16.281-21.445,23.569c-13.936,13.115-28.919,25.154-42.419,38.685c-9.206,9.227-14.687,21.318-5.764,33.498
	c8.786,11.992,21.458,8.581,32.224,3.1c10.433-5.311,20.417-12.035,29.409-19.559c49.704-41.59,89.874-91.514,125.761-145.156
	c5.27-7.878,10.894-16.367,18.421-21.603c5.49-3.82,16.245-5.92,21.224-2.98c4.953,2.925,8.839,13.836,7.443,19.928
	c-2.265,9.887-7.482,20.395-14.538,27.635c-18.054,18.526-37.702,35.511-56.911,52.893c-19.215,17.388-39.014,34.145-57.867,51.911
	c-8.545,8.052-16.239,17.311-22.91,26.993c-22.463,32.599-13.699,60.84,24.632,71.259c25.262,6.867,52.055,9.813,78.314,10.912
	c41.595,1.741,83.316,0.464,130.665,0.464c-283.438,490.311-564.781,976.999-847.113,1465.398c-3.849-5.98-6.7-10.041-9.181-14.318
	c-83.384-143.759-166.836-287.478-250.021-431.352c-23.2-40.126-43.157-81.633-51.143-127.971
	c-8.175-47.432,2.681-89.932,34.161-126.032c58.117-66.649,116.964-132.667,176.042-198.469
	c9.272-10.327,20.516-19.598,32.508-26.454c5.62-3.213,18.242-2.342,22.118,1.842c3.919,4.23,4.081,17.113,0.383,22.214
	c-9.456,13.046-21.412,24.485-33.377,35.467c-31.941,29.316-65.221,57.22-96.325,87.38c-15.191,14.73-27.159,32.918-39.675,50.2
	c-4.488,6.198-8.771,14.348-8.73,21.582c0.055,9.783,1.546,22.819,7.804,28.207c4.494,3.869,19.137-0.246,26.851-4.836
	c10.918-6.497,18.835-17.928,29.564-24.895c6.667-4.329,16.163-4.302,24.389-6.23c1.194,8.449,5.152,17.725,2.93,25.151
	c-3.282,10.968-9.34,22.092-17.047,30.578c-32.86,36.172-36.054,74.045-11.578,116.05c51.9,89.073,103.012,178.605,154.511,267.911
	C996.548,1703.398,998.623,1705.286,1001.688,1708.985z M407.606,643.059c179.189-0.001,358.378-0.137,537.566,0.067
	c67.245,0.076,131.457-9.155,186.089-53.322c13.977-11.3,29.531-10.921,42.858,2.102c13.258,12.956,28.49,13.885,43.589,6.373
	c14.984-7.455,29.952-16.054,42.577-26.89c21.331-18.309,41.387-38.217,60.973-58.427
	c122.708-126.624,245.316-253.346,367.465-380.509c17.873-18.606,34.043-39.065,49.178-59.985
	c6.995-9.668,11.379-22.153,13.761-34.001c3.182-15.822-4.354-23.945-20.324-21.721c-9.156,1.275-19.905,5.924-25.877,12.655
	c-24.262,27.346-48.073,55.245-70.013,84.469c-67.077,89.348-137.541,175.891-217.602,253.854
	c-36.565,35.608-77.897,66.35-117.459,98.822c-6.367,5.226-14.451,9.814-22.367,11.253c-6.677,1.214-14.263-2.572-21.447-4.145
	c2.021-7.017,2.996-14.604,6.407-20.864c2.517-4.619,9.633-6.731,12.157-11.35c3.766-6.891,9.375-17.257,6.742-22.03
	c-3.318-6.014-15.154-12.164-21.526-10.662c-13.69,3.226-27.946,9.147-38.931,17.816c-35.36,27.903-73.535,49.872-116.502,63.548
	c-51.069,16.255-103.587,20.538-156.829,20.49c-259.198-0.233-518.397-0.188-777.596-0.182c-4.618,0-9.235,0.74-15.226,1.252
	c2.624,5.056,4.051,8.078,5.712,10.967C271.591,715.039,382.095,907.5,493.036,1099.708c11.505,19.932,24.179,39.546,38.788,57.264
	c48.334,58.622,122.442,67.088,181.474,19.38c26.124-21.113,49.023-46.425,72.164-70.982
	c64.521-68.47,128.611-137.351,192.338-206.562c10.92-11.859,20.332-25.517,28.155-39.613c3.048-5.491,2.534-17.299-1.364-21.115
	c-4.105-4.018-16.503-5.197-21.22-1.868c-12.5,8.823-25.489,19.061-33.488,31.757c-23.858,37.868-48.84,74.744-83.346,103.565
	c-16.656,13.912-35.704,25.4-54.912,35.659c-12.794,6.833-26.784,8.585-35.379-9.436c-4.905-10.284-15.175-9.231-23.29-3.474
	c-7.725,5.48-14.149,12.789-21.165,19.273c-11.97,11.063-22.924,23.578-36.144,32.865c-29.282,20.57-59.873,15.92-82.366-11.803
	c-9.172-11.305-16.921-23.909-24.244-36.544c-64.966-112.086-129.697-224.309-194.47-336.507c-2.785-4.824-5.299-9.806-9.98-18.509
	C394.48,643.059,401.043,643.059,407.606,643.059z M1133.776,711.414c0.016-12.734-6.635-19.706-19.705-19.733
	c-18.059-0.038-38.259,19.22-38.899,37.574c-0.44,12.611,5.788,19.918,15.785,20.598
	C1112.383,750.451,1133.752,730.073,1133.776,711.414z M1357.827,308.315c1,5.583,8.664,13.245,14.198,14.091
	c13.317,2.035,30.801-16.363,28.29-29.336c-1.146-5.924-7.899-10.763-10.288-13.788
	C1371.486,279.993,1355.51,295.373,1357.827,308.315z M937.186,1168.823c-11.72-2.389-27.207,12.164-25.992,24.843
	c0.512,5.34,6.673,13.145,11.662,14.437c11.102,2.875,25.851-12.367,26.731-29.711
	C946.923,1176.214,942.583,1169.923,937.186,1168.823z"/>
</svg>
