<?xml version="1.0" encoding="iso-8859-1"?>
<!-- Generator: Adobe Illustrator 19.0.0, SVG Export Plug-In . SVG Version: 6.00 Build 0)  -->
<svg version="1.1" id="Layer_1" xmlns="http://www.w3.org/2000/svg" xmlns:xlink="http://www.w3.org/1999/xlink" x="0px" y="0px"
	 viewBox="0 0 500 500" enable-background="new 0 0 500 500" xml:space="preserve">
<g>
	<path d="M250.551,497C113.986,497.434,1.122,384.927,3.968,245.176C6.7,111.063,117.801,1.11,255.947,3.974
		c134.081,2.78,244.042,113.9,241.066,252.098C494.139,389.559,384.68,497.255,250.551,497z M439.214,117.583
		c-32.874,0-65.265,0-97.788,0c-30.463,62.456-60.908,124.875-91.545,187.69c-30.703-62.95-61.138-125.35-91.514-187.631
		c-32.643,0-65.077,0-97.788,0c62.834,121.58,125.541,242.914,188.266,364.282c0.741,0,1.383,0,2.079,0
		C313.653,360.543,376.355,239.215,439.214,117.583z M249.992,216.651c15.206-0.015,27.515-12.346,27.386-27.438
		c-0.129-15.077-12.367-27.244-27.401-27.239c-15.218,0.005-27.487,12.23-27.478,27.378
		C222.509,204.588,234.672,216.666,249.992,216.651z M415.651,330.211c0.007-15.302-12.116-27.573-27.252-27.584
		c-14.984-0.011-27.381,12.306-27.421,27.244c-0.041,15.281,12.105,27.613,27.211,27.629
		C403.52,357.516,415.643,345.469,415.651,330.211z"/>
</g>
</svg>
