<?xml version="1.0" encoding="iso-8859-1"?>
<!-- Generator: Adobe Illustrator 19.0.0, SVG Export Plug-In . SVG Version: 6.00 Build 0)  -->
<svg version="1.1" id="Layer_1" xmlns="http://www.w3.org/2000/svg" xmlns:xlink="http://www.w3.org/1999/xlink" x="0px" y="0px"
	 viewBox="0 0 2000 2000" style="enable-background:new 0 0 2000 2000;" xml:space="preserve">
<path d="M360.525,311.929c-9.783,28.028-19.789,50.326-25.272,73.686c-12.634,53.818,3.762,102.179,33.719,146.418
	c55.837,82.459,112.366,164.45,168.675,246.589c95.41,139.175,190.531,278.55,286.525,417.321
	c28.869,41.734,54.064,86.025,91.496,121.86c39.402,37.722,120.904,41.584,163.139,8.205c32.709-25.85,52.453-59.666,74.857-91.691
	c98.93-141.414,195.759-284.298,293.247-426.72c62.256-90.951,123.903-182.322,186.644-272.936
	c40.89-59.055,46.304-143.853,7.332-214.191c7.697,2.341,13.045,3.038,17.455,5.449c58.651,32.074,118.876,61.69,175.273,97.353
	c64.448,40.755,103.272,100.344,117.737,177.107c14.703,78.025-4.016,147.188-46.476,210.951
	c-64.481,96.833-130.667,192.536-196.527,288.445c-105.118,153.078-210.582,305.918-315.864,458.883
	c-69.038,100.307-138.833,200.108-206.651,301.235c-31.537,47.027-69.72,85.315-122.796,105.483
	c-78.19,29.712-172.885-4.192-216.948-67.454c-69.661-100.014-139.277-200.061-208.467-300.402
	c-125.431-181.905-250.51-364.054-375.786-546.066C206.465,971.003,150.888,890.689,95.55,810.211
	C53.289,748.75,36.566,679.903,45.993,606.868c7.111-55.09,30.472-104.634,70.165-145.727
	c30.249-31.315,65.102-54.897,103.87-74.294c42.647-21.336,83.901-45.454,125.796-68.298
	C349.127,316.75,352.693,315.434,360.525,311.929z M973.396,23.893c-34.052,0.862-66.303,9.321-96.05,25.073
	c-84.355,44.67-168.705,89.403-251.997,136.005c-65.203,36.481-82.841,118.869-42.648,180.663
	c42.84,65.864,87.517,130.544,132.005,195.321c47.21,68.739,94.908,137.145,142.848,205.378
	c25.747,36.646,51.279,73.545,79.016,108.665c33.678,42.643,98.291,38.552,130.977-1.007c18.044-21.838,34.307-45.216,50.465-68.529
	c46.26-66.745,92.01-133.844,138.048-200.744c55.317-80.384,111.962-159.894,165.47-241.463
	c20.677-31.52,23.364-68.342,11.971-105.877c-13.006-42.851-45.478-65.833-81.787-85.685
	c-65.934-36.049-131.516-72.778-198.111-107.564c-29.516-15.418-59.501-31.044-93.572-35.335
	c-19.042-2.398-37.958-5.796-59.414-9.13C991.356,21.166,982.405,23.665,973.396,23.893z"/>
</svg>
