<?xml version="1.0" encoding="iso-8859-1"?>
<!-- Generator: Adobe Illustrator 19.0.0, SVG Export Plug-In . SVG Version: 6.00 Build 0)  -->
<svg version="1.1" id="Layer_1" xmlns="http://www.w3.org/2000/svg" xmlns:xlink="http://www.w3.org/1999/xlink" x="0px" y="0px"
	 viewBox="0 0 2000 2000" style="enable-background:new 0 0 2000 2000;" xml:space="preserve">
<path d="M1021.302,808.327c316.54-167.808,633.339-335.753,950.139-503.699c2.496,2.567,4.992,5.133,7.489,7.7
	c-316.364,468.734-632.728,937.468-957.627,1418.848C1021.302,1415.318,1021.302,1115.573,1021.302,808.327z M20.227,298.902
	c-2.409,2.739-4.818,5.477-7.227,8.216c314.795,466.266,629.589,932.533,944.384,1398.799c4.049-1.143,8.099-2.285,12.148-3.428
	c-10.061-295.709-20.122-591.418-30.348-891.991C630.028,638.387,325.127,468.644,20.227,298.902z M1929.054,272.155
	c-13.473,2.186-27.121,3.611-40.393,6.67c-269.999,62.222-539.816,125.245-810.077,186.301c-37.958,8.575-80.17,17.512-116.804,9.59
	c-213.102-46.083-425.092-97.294-637.528-146.469c-83.907-19.423-167.995-38.066-252.001-57.064c-0.927,2.805-1.853,5.61-2.78,8.414
	C371.95,425.386,674.428,571.174,978.258,717.614c318.815-145.785,635.515-290.602,952.214-435.42
	C1930,278.848,1929.527,275.501,1929.054,272.155z"/>
</svg>
