<?xml version="1.0" encoding="iso-8859-1"?>
<!-- Generator: Adobe Illustrator 19.0.0, SVG Export Plug-In . SVG Version: 6.00 Build 0)  -->
<svg version="1.1" id="Layer_1" xmlns="http://www.w3.org/2000/svg" xmlns:xlink="http://www.w3.org/1999/xlink" x="0px" y="0px"
	 viewBox="0 0 2000 2000" style="enable-background:new 0 0 2000 2000;" xml:space="preserve">
<path d="M1411.055,869.53c-122.64,0-241.965-0.107-361.29,0.102c-20.666,0.036-32.619,10.039-32.567,25.462
	c0.05,14.717,12.77,24.788,33.276,25.092c49.087,0.727,98.248-0.439,147.252,1.865c47.101,2.214,88.618,20.279,125.906,49.872
	c63.858,50.681,50.688,147.748,6.957,191.169c-45.306,44.985-101.281,61.61-162.823,61.793
	c-196.463,0.584-392.928,0.211-589.392,0.166c-2.426,0-4.851-0.536-11.184-1.282c32.299-42.381,63.138-82.847,93.773-123.045
	c168.481,0,335.716,0.085,502.95-0.184c11.649-0.019,24.24-0.427,34.628-4.823c7.764-3.286,17.662-13.355,17.577-20.294
	c-0.1-8.229-8.161-19.716-15.901-23.675c-10.46-5.351-23.866-6.374-36.066-6.642c-45.977-1.012-92.088,0.909-137.942-1.794
	c-56.082-3.306-104.744-25.034-141.67-68.99c-57.123-67.997-40.145-157.748,37.674-200.68
	c34.569-19.071,71.953-27.809,110.975-27.957c169.099-0.641,338.201-0.622,507.302-0.772c5.418-0.005,10.838,0.762,18.137,1.311
	c0,110.869,0,220.596,0,332.815c69.473,0,136.991,0,204.509,0c67.001,0,134.001,0,204.395,0
	c-38.776,326.596-187.083,586.436-470.293,753.582c-335.636,198.088-680.783,195.387-1009.122-14.496
	c-327.301-209.219-464.412-523.031-449.328-906.06c1.886-1.126,3.772-2.252,5.659-3.379c11.086,15.103,22.319,30.101,33.231,45.328
	c49.193,68.641,98.484,137.214,147.196,206.196c6.232,8.825,10.581,19.522,13.614,29.987
	c92.54,319.255,296.894,523.92,625.038,588.374c258.103,50.697,486.551-23.273,679.575-201.709
	c100.427-92.838,169.708-206.498,211.595-336.74c1.268-3.943,1.981-8.064,3.617-14.86c-116.307,0-230.843,0-347.257,0
	C1411.055,1105.6,1411.055,988.408,1411.055,869.53z M1080.518,196.997c168.875,16.713,317.854,81.588,443.911,194.98
	c163.408,146.989,251.003,332.242,267.966,551.896c58.891,0,116.85,0,174.857,0c-14.48-449.106-371.704-895.412-906.435-927.769
	C549.48-14.838,164.003,350.7,70.771,745.065c2.017,3.062,4.258,6.743,6.768,10.231c91.349,126.993,182.57,254.08,274.229,380.849
	c17.416,24.087,34.962,48.439,55.312,69.961c33.013,34.915,73.642,34.887,108.806,2.106c9.939-9.265,19.052-19.692,27.137-30.626
	c102.602-138.771,204.958-277.724,307.302-416.684c3.046-4.136,5.288-8.864,8.851-14.926c-62.447,0-122.052,0-182.873,0
	c-70.19,97.866-140.642,196.096-211.665,295.124C393.669,941.502,323.45,842.96,253.18,744.346
	C367.173,395.288,704.039,159.738,1080.518,196.997z"/>
</svg>
