<?xml version="1.0" encoding="iso-8859-1"?>
<!-- Generator: Adobe Illustrator 19.0.0, SVG Export Plug-In . SVG Version: 6.00 Build 0)  -->
<svg version="1.1" id="Layer_1" xmlns="http://www.w3.org/2000/svg" xmlns:xlink="http://www.w3.org/1999/xlink" x="0px" y="0px"
	 viewBox="0 0 500 500" style="enable-background:new 0 0 500 500;" xml:space="preserve">
<path d="M463.764,146.956c50.911,102.296,19.954,236.875-88.689,303.673c-105.621,64.94-241.043,38.123-313.698-61.134
	C-15.574,284.368,6.116,145.923,100.806,67.563c97.637-80.799,232.473-67.032,311.276,9.568
	c-2.217,6.769-98.934,146.125-160.914,231.843c-20.808-27.104-41.559-54.134-62.399-81.279c-33.742,0-67.342,0-102.155,0
	c-9.179,10.217-18.92,21.059-29.609,32.957c18.596,0,35.899,0,53.412,0c7.664,9.951,15.147,19.505,22.457,29.189
	c23.262,30.819,46.472,61.676,69.676,92.538c10.25,13.633,20.297,27.423,30.732,40.912c3.565,4.608,8.035,8.516,10.905,11.507
	c11.039,2.203,16.613-1.554,21.899-9.191c29.658-42.85,59.889-85.304,89.98-127.853c33.897-47.931,67.847-95.826,101.808-143.712
	C459.475,151.784,461.415,149.765,463.764,146.956z"/>
</svg>
