<?xml version="1.0" encoding="iso-8859-1"?>
<!-- Generator: Adobe Illustrator 19.0.0, SVG Export Plug-In . SVG Version: 6.00 Build 0)  -->
<svg version="1.1" id="Layer_1" xmlns="http://www.w3.org/2000/svg" xmlns:xlink="http://www.w3.org/1999/xlink" x="0px" y="0px"
	 viewBox="0 0 2000 2000" style="enable-background:new 0 0 2000 2000;" xml:space="preserve">
<path d="M12.972,996.075c0.442-536.847,421.859-957.858,928.7-982.388c592.597-28.68,1005.576,428.214,1036.433,908.527
	c39.095,608.553-430.554,1019.594-895.683,1054.109c-286.379,21.251-537.507-62.973-750.767-255.89
	C127.447,1535.705,12.357,1271.057,12.972,996.075z M103.561,995.635c-2.533,488.91,390.696,882.984,868.487,894.51
	c520.074,12.546,913.734-404.533,918.577-881.557c5.148-507.132-395.581-883.756-844.654-905.874
	C505.88,76.114,98.014,513.16,103.561,995.635z M1836.01,997.145c3.578,456.805-374.449,838.262-838.609,839.478
	c-454.783,1.192-863.818-379.244-839.848-885.042c19.828-418.409,370.065-807.095,864.065-795.525
	C1463.522,166.404,1838.72,532.146,1836.01,997.145z M413.494,530.997c65.226,200.145,130.014,398.947,194.527,596.908
	c27.686,0,53.201,0,79.767,0c20.393-62.266,40.553-123.818,60.554-184.885c49.215,0,97.124,0,147.239,0
	c0,173.733,0,346.369,0,518.491c28.99,0,55.727,0,84.54,0c0-173.613,0-345.635,0-518.406c55.344,0,108.553,0,164.296,0
	c0,173.702,0,346.279,0,518.588c29.369,0,56.176,0,84.903,0c0-84.498,0-167.598,0-251.103c42.974,0,83.974,0,124.674,0
	c43.115,85.095,85.514,168.777,127.354,251.356c33.538,0,65.038,0,98.956,0c-45.682-86.836-90.356-171.756-135.589-257.739
	c31.086-11.939,58.733-27.694,77.822-55.522c35.56-51.838,39.873-108.921,26.222-167.831
	c-16.088-69.422-73.57-117.661-151.061-117.087c-198.87,1.472-397.758,0.492-596.639,0.491c-7.872,0-15.744,0-27.002,0
	c36.716-112.935,72.414-222.744,108.242-332.946c-31.227,0-60.888,0-90.82,0c-47.375,154.48-94.466,308.033-141.556,461.585
	c-1.323-0.071-2.646-0.142-3.969-0.213c-47.209-153.954-94.418-307.907-141.574-461.687
	C473.62,530.997,444.611,530.997,413.494,530.997z M1395.909,1129.363c30.775,0.608,50.382-14.19,60.747-40.743
	c13.678-35.04,13.531-71.301-0.52-106.373c-8.109-20.239-23.172-34.4-45.579-38.947c-1.313-0.267-2.57-1.171-3.853-1.172
	c-58.699-0.06-117.398-0.052-176.888-0.052c0,62.679,0,123.425,0,186.983C1286.37,1129.059,1341.158,1128.28,1395.909,1129.363z"/>
</svg>
