<?xml version="1.0" encoding="iso-8859-1"?>
<!-- Generator: Adobe Illustrator 19.0.0, SVG Export Plug-In . SVG Version: 6.00 Build 0)  -->
<svg version="1.1" id="Layer_1" xmlns="http://www.w3.org/2000/svg" xmlns:xlink="http://www.w3.org/1999/xlink" x="0px" y="0px"
	 viewBox="0 0 2000 2000" style="enable-background:new 0 0 2000 2000;" xml:space="preserve">
<path d="M1223.114,997.296c0.021-137.856-0.267-275.714,0.153-413.569c0.187-61.459,28.1-94.718,77.219-94.359
	c48.816,0.357,78.779,33.896,78.959,95.151c0.802,273.769,0.748,547.542,0.084,821.311c-0.154,63.413-32.592,99.606-82.563,97.44
	c-48.851-2.118-73.672-34.609-73.794-98.23C1222.912,1269.126,1223.093,1133.211,1223.114,997.296z M921.312,1869.882
	c0.125,77.847,23.791,111.338,78.29,112.105c55.151,0.776,80.838-33.532,80.881-109.51c0.148-263.572,0.107-527.144,0-790.716
	c-0.031-76.509-24.922-112.066-78.2-112.723c-53.957-0.666-80.862,35.572-80.97,110.128c-0.192,131.786-0.054,263.572-0.056,395.358
	C921.254,1606.31,921.101,1738.096,921.312,1869.882z M778.522,586.366c-0.133-63.35-25.317-95.427-74.611-96.806
	c-48.463-1.356-81.272,32.687-81.495,92.547c-1.03,275.664-1.006,551.337-0.019,827.001c0.216,60.35,32.123,94.704,80.086,94.18
	c49.315-0.539,75.856-33.282,76.011-95.74c0.338-135.892,0.104-271.786,0.11-407.679
	C778.611,862.034,778.81,724.199,778.522,586.366z M325.519,933.025c0.13,60.607,28.429,96.364,75.475,97.064
	c48.359,0.719,80.587-33.732,80.8-93.843c0.98-275.812,1.044-551.63,0.11-827.442c-0.2-59.126-33.944-95.4-80.838-94.504
	c-47.761,0.913-75.449,35.81-75.592,97.107c-0.318,135.965-0.099,271.931-0.073,407.896
	C325.426,657.211,325.224,795.118,325.519,933.025z M1676.369,105.668c-0.256-57.176-28.843-90.398-75.509-91.202
	c-45.492-0.784-79.602,33.613-79.822,88.541c-1.113,277.701-1.183,555.411-0.18,833.113c0.219,60.51,32.711,95.298,80.318,94.394
	c46.668-0.887,75.135-37.079,75.276-97.552c0.321-137.882,0.101-275.765,0.109-413.647S1676.986,243.548,1676.369,105.668z
	 M1978.076,110.702c-0.97-56.817-34.98-94.769-81.384-93.266c-44.3,1.435-76.836,37.808-77.361,91.828
	c-1.151,118.266-1.063,236.556-0.052,354.824c0.476,55.727,36.406,94.911,81.807,93.468c43.387-1.379,76.009-39.158,76.939-92.032
	c1.057-60.089,0.245-120.212,0.258-180.319C1978.296,227.037,1979.068,168.855,1978.076,110.702z M24.138,469.412
	c1.144,51.358,37.299,91.815,80.426,87.733c49.217-4.659,77.345-34.975,77.802-84.746c1.122-122.06,1.125-244.147-0.176-366.205
	c-0.526-49.332-26.35-80.706-77.524-83.815c-46.454-2.822-79.221,32.548-80.469,86.646c-1.384,60.035-0.317,120.126-0.345,180.193
	C23.826,349.286,22.801,409.375,24.138,469.412z"/>
</svg>
