<?xml version="1.0" encoding="iso-8859-1"?>
<!-- Generator: Adobe Illustrator 19.0.0, SVG Export Plug-In . SVG Version: 6.00 Build 0)  -->
<svg version="1.1" id="Layer_1" xmlns="http://www.w3.org/2000/svg" xmlns:xlink="http://www.w3.org/1999/xlink" x="0px" y="0px"
	 viewBox="0 0 500 500" style="enable-background:new 0 0 500 500;" xml:space="preserve">
<path id="XMLID_4_" d="M46.356,409.556c0-90.485,0-180.582,0-271.455c2.319,0.68,4.27,1.093,6.1,1.814
	c16.62,6.546,33.181,13.246,49.852,19.659c4.213,1.621,5.223,4.246,5.211,8.462c-0.124,43.452-0.076,86.905-0.076,130.358
	c0,2.551,0,5.102,0,8.611c8.753-5.009,16.998-9.619,25.139-14.406c28.36-16.675,56.676-33.423,85.025-50.116
	c8.855-5.214,18.172-9.765,26.516-15.692c6.702-4.761,11.76-4.15,18.502-0.07c27.337,16.548,55.04,32.491,82.583,48.701
	c15.463,9.1,30.865,18.305,46.327,27.407c2.085,1.228,4.36,2.134,7.294,3.55c0-48.453,0-96.014,0-143.93
	c20.189-8.23,40.072-16.336,60.803-24.787c0,91.041,0,181.009,0,272.058c-6.213-3.504-12.155-6.747-17.995-10.166
	c-39.858-23.339-79.701-46.704-119.535-70.085c-21.015-12.335-42.057-24.625-62.951-37.161c-3.945-2.367-7.012-2.854-11.18-0.367
	c-26.218,15.644-52.586,31.037-78.911,46.504c-23.546,13.834-47.116,27.63-70.646,41.492c-16.191,9.538-32.326,19.173-48.519,28.709
	C48.981,409.186,47.765,409.211,46.356,409.556z M54.62,127.038c16.787,6.863,33.57,13.734,50.417,20.447
	c1.203,0.479,3.137,0.217,4.299-0.451c29.476-16.936,58.886-33.984,88.324-50.987c17.113-9.884,34.263-19.707,51.37-29.601
	c2.724-1.576,5.031-2.396,8.258-0.495c21.984,12.949,44.086,25.698,66.192,38.439c24.269,13.989,48.628,27.823,72.816,41.95
	c2.77,1.618,4.718,1.67,7.522,0.505c12.909-5.369,25.94-10.441,38.876-15.746c3.632-1.489,7.088-3.408,11.418-5.516
	c-23.648-13.493-46.271-26.252-68.75-39.26c-42.763-24.747-85.456-49.615-128.131-74.512c-3.014-1.758-5.322-1.469-8.19,0.354
	c-6.009,3.817-12.248,7.275-18.428,10.819c-26.316,15.088-52.701,30.058-78.955,45.253c-32.798,18.982-65.494,38.142-98.398,57.321
	C53.998,126.379,54.238,126.882,54.62,127.038z M95.497,396.233c1.909,1.311,2.95,2.14,4.092,2.792
	c20.35,11.611,40.763,23.113,61.059,34.817c29.658,17.101,59.273,34.279,88.791,51.62c3.154,1.853,5.401,1.413,8.167-0.205
	c18.032-10.55,36.07-21.09,54.168-31.525c25.571-14.744,51.204-29.38,76.792-44.095c7.27-4.181,14.474-8.475,22.187-12.999
	c-1.523-1.312-2.282-2.192-3.231-2.749c-12.291-7.218-24.704-14.235-36.87-21.657c-4.374-2.668-7.696-2.014-11.899,0.444
	c-33.56,19.628-67.281,38.981-100.867,58.564c-2.996,1.747-5.266,1.933-8.201,0.098c-4.867-3.043-9.982-5.688-14.96-8.555
	c-30.899-17.798-61.79-35.611-93.073-53.644C126.225,378.195,111.23,386.997,95.497,396.233z"/>
</svg>
