<?xml version="1.0" encoding="iso-8859-1"?>
<!-- Generator: Adobe Illustrator 19.0.0, SVG Export Plug-In . SVG Version: 6.00 Build 0)  -->
<svg version="1.1" id="Layer_1" xmlns="http://www.w3.org/2000/svg" xmlns:xlink="http://www.w3.org/1999/xlink" x="0px" y="0px"
	 viewBox="0 0 2000 2000" style="enable-background:new 0 0 2000 2000;" xml:space="preserve">
<path d="M416.806,1815.05c23.198-5.738,40.599-8.374,56.792-14.305c164.134-60.124,327.718-121.784,492.48-180.119
	c22.294-7.893,52.529-6.281,75.183,1.831c170.214,60.949,339.423,124.704,509.045,187.312c12.12,4.474,25.03,6.806,49.494,13.297
	c-192.836-317.494-380.438-626.371-569.238-937.221c21.276-33.319,42.436-66.456,67.075-105.042
	c27.548,44.738,52.613,84.856,77.108,125.318c173.743,286.995,347.274,574.118,521.146,861.034
	c23.99,39.588,49.773,78.084,74.201,117.412c19.571,31.507,30.23,63.273-12.056,98.939c-13.357-1.071-37.403,1.94-57.7-5.406
	c-169.842-61.473-339.003-124.825-508.349-187.667c-49.809-18.483-100.268-35.478-149.014-56.444
	c-23.517-10.114-44.415-9.233-66.585-1.048c-169.958,62.753-339.884,125.595-509.763,188.562
	c-50.882,18.86-101.134,39.553-152.556,56.772c-27.081,9.069-59.024,13.541-78.975-11.872c-20.874-26.589-10.584-54.231,7.2-82.407
	c238.457-377.812,475.812-756.319,713.54-1134.59c64.515-102.656,129.158-205.233,194.3-307.491c8.8-13.815,19.574-27,31.752-37.881
	c16.348-14.606,35.336-17.011,54.967-4.009c19.955,13.217,30.957,30.645,23.267,54.456c-5.03,15.575-12.449,30.811-21.191,44.692
	c-218.678,347.242-437.747,694.237-656.561,1041.393c-51.338,81.45-102.074,163.279-152.839,245.088
	C425.374,1792.356,423.131,1800.242,416.806,1815.05z M972.15,574.137C868.041,401.877,764.291,229.4,659.995,57.254
	c-26.48-43.707-68.544-59.27-98.675-38.336c-27.078,18.812-26.76,52.621,0.54,97.673
	c100.093,165.183,199.925,330.525,300.263,495.558c22.705,37.345,47.054,73.69,73.368,114.742
	c24.237-38.015,44.552-69.877,67.466-105.816C991.972,604.398,981.499,589.607,972.15,574.137z"/>
</svg>
