<?xml version="1.0" encoding="iso-8859-1"?>
<!-- Generator: Adobe Illustrator 19.0.0, SVG Export Plug-In . SVG Version: 6.00 Build 0)  -->
<svg version="1.1" id="Layer_1" xmlns="http://www.w3.org/2000/svg" xmlns:xlink="http://www.w3.org/1999/xlink" x="0px" y="0px"
	 viewBox="0 0 2000 2000" style="enable-background:new 0 0 2000 2000;" xml:space="preserve">
<path d="M977.334,990.953c-0.001-39.631-1.467-79.329,0.33-118.878c2.99-65.819-47.855-109.805-106.085-106.87
	c-29.504,1.487-60.28,0.71-88.817-6.059c-73.81-17.508-122.96-93.3-112.046-166.91c11.89-80.196,79.882-138.007,158.31-134.604
	c78.85,3.421,142.351,64.371,147.469,142.363c1.384,21.091,0.628,42.322,0.851,63.489c0.648,61.567,40.945,101.963,102.228,102.292
	c29.858,0.16,59.721-0.214,89.576,0.098c87.295,0.912,154.083,67.803,154.724,155.41c0.461,62.972-0.168,125.952,0.183,188.925
	c0.448,80.417,60.333,147.882,136.631,154.56c82.526,7.223,158.482-44.188,166.538-125.899
	c8.046-81.614,7.531-165.185-0.034-246.898c-6.993-75.54-71.558-123.167-150.617-126.199
	c-78.61-3.014-141.408-58.237-151.597-133.31c-9.99-73.601,34.667-144.239,105.798-167.351
	c96.164-31.247,196.902,39.376,200.331,140.443c3.327,98.052,67.441,159.819,165.403,160.508
	c23.166,0.163,47.166,0.242,69.302,6.024c66.35,17.332,110.597,76.066,111.828,146.951c1.122,64.584,1.4,129.23-0.067,193.801
	c-2.01,88.493-68.503,151.776-157.281,152.782c-23.243,0.263-47.114-0.271-69.569,4.676
	c-70.372,15.503-117.12,75.486-119.478,149.519c-2.598,81.537-56.616,141.773-136.88,152.636
	c-85.401,11.559-167.594-57.943-169.944-145.065c-1.26-46.703-15.063-87.304-49.522-119.745
	c-23.586-22.205-51.285-38.007-83.672-39.553c-32.777-1.565-66.756-2.943-98.484,3.76c-63.91,13.502-108.417,69.168-114.467,134.245
	c-1.654,17.79-2.043,36.008-6.368,53.185c-18.006,71.504-90.8,122.074-161.754,113.691c-80.153-9.47-138.661-71.846-140.443-149.728
	c-2.132-93.18-67.784-157.359-160.995-157.914c-20.555-0.122-41.581,0.617-61.564-3.277
	c-72.587-14.147-122.679-74.955-123.333-149.053c-0.709-80.342-1.47-160.721,0.211-241.034
	c1.347-64.376-46.618-109.705-106.613-106.724c-28.982,1.44-59.157,0.74-87.236-5.735C56.487,742.51,6.502,668.021,16.394,595.422
	c10.995-80.696,75.258-138.328,153.74-137.875c77.034,0.444,142.659,58.042,151.335,134.469c2.742,24.154,1.835,48.751,2.108,73.151
	c0.666,59.488,40.95,100.126,100.343,100.593c30.4,0.239,60.806-0.21,91.205,0.117c87.473,0.941,154.107,67.943,154.483,155.478
	c0.27,62.974-0.122,125.951,0.118,188.926c0.303,79.405,59.328,146.568,135.283,154.375c81.13,8.339,153.541-42.777,168.612-122.571
	c5.468-28.948,2.97-59.442,3.627-89.242C977.702,1032.221,977.335,1011.583,977.334,990.953z"/>
</svg>
