<?xml version="1.0" encoding="iso-8859-1"?>
<!-- Generator: Adobe Illustrator 19.0.0, SVG Export Plug-In . SVG Version: 6.00 Build 0)  -->
<svg version="1.1" id="Layer_1" xmlns="http://www.w3.org/2000/svg" xmlns:xlink="http://www.w3.org/1999/xlink" x="0px" y="0px"
	 viewBox="0 0 500 500" style="enable-background:new 0 0 500 500;" xml:space="preserve">
<path id="XMLID_4_" d="M50.568,320.247c-11.463-45.83-22.684-90.691-34.063-136.183c11.528,0,21.867,0,33.259,0
	c7.317,28.73,14.741,57.883,22.822,89.613c7.779-31.491,14.884-60.256,22.124-89.566c12.435,0,25.506,0,40.031,0
	c8.546,28.131,14.186,57.784,22.943,87.5c5.419-14.849,8.112-29.739,12.015-44.214c3.864-14.331,6.998-28.864,10.68-43.322
	c11.508,0,21.848,0,33.256,0c-10.122,40.538-20.236,81.039-30.349,121.54c0.64,0.251,1.281,0.503,1.921,0.754
	c23.539-40.788,47.078-81.577,70.715-122.535c13.481,0,27.095,0,41.237,0c19.354,33.43,38.908,67.205,58.667,101.334
	c9.621-11.51,18.447-22.068,27.618-33.041c-30.041-36.946-60.149-73.974-90.722-111.574c16.22,0,32.003,0,48.555,0
	c23.838,29.193,48.271,59.1,72.687,89.022c24.313,29.796,48.606,59.608,73.569,90.223c-16.89,0-32.693,0-48.661,0
	c-10.133-12.436-20.526-25.191-31.152-38.232c-10.339,12.602-20.474,24.956-31.273,38.118c-12.978,0-26.941,0-41.473,0
	c-5.779-9.923-11.948-20.516-18.487-31.745c-20.613,0-41.879,0-64.717,0c6.009-10.646,11.447-20.28,17.064-30.233
	c9.567,0,29.171,0,29.171,0l-10.267-18.855L276.92,221.11L269.667,232l-24.995,42.245l-24.123,40.535l-10.34,19.007
	c0,0-11.275,19.828-16.782,29.822c-12.957,0-26.026,0-40.715,0c7.37-14.754,23.909-42.378,23.909-42.378l-40.954-1.219
	c0,0-12.876-52.749-21.759-78.728c-6.184,24.971-12.368,49.942-18.85,76.121c-0.259,0.259-1.547,1.547-2.834,2.837
	C78.562,320.247,64.902,320.247,50.568,320.247z M456.598,220.537l15.436-18.075l13.377-18.316c0,0-30.2,0-45.064,0
	c-7.501,9-15.056,18.065-22.554,27.062c8.194,9.593,23.677,27.719,23.677,27.719L456.598,220.537z"/>
</svg>
