<?xml version="1.0" encoding="iso-8859-1"?>
<!-- Generator: Adobe Illustrator 19.0.0, SVG Export Plug-In . SVG Version: 6.00 Build 0)  -->
<svg version="1.1" id="Layer_1" xmlns="http://www.w3.org/2000/svg" xmlns:xlink="http://www.w3.org/1999/xlink" x="0px" y="0px"
	 viewBox="750 -750 2000 2000" enable-background="new 750 -750 2000 2000" xml:space="preserve">
<path d="M2401.87-188.21L1906.14-685.5c-85.79-86-225.92-86-311.38,0l-495.4,496.31c-28.49,28.56-28.49,75.5,0,104.05l150.29,150.67
	l99.87,92.57c29.484,27.574,75.296,27.574,104.78,0l200.05-185.47c54.723-50.874,139.437-50.874,194.16,0l200.06,185.46
	c29.357,27.575,75.094,27.575,104.45,0l99.87-92.57l149-149.35c28.812-28.829,28.812-75.551,0-104.38 M817.12,406.24l777.31,779.26
	c85.79,86,225.92,86,311.38,0l777.31-779.25c134.9-135.24,39.95-175-58.94-268.83l-121.8-115.87c-29.47-27.9-75-27.57-104.78,0
	L2197.55,207c-54.723,50.874-139.437,50.874-194.16,0L1803.33,21.54c-29.357-27.575-75.093-27.575-104.45,0L1498.82,207
	c-54.723,50.874-139.438,50.874-194.16,0L1104.6,21.54c-29.484-27.574-75.296-27.574-104.78,0l-112,103.73
	C785,221.11,676.33,265.1,817.12,406.24"/>
</svg>
