<?xml version="1.0" encoding="iso-8859-1"?>
<!-- Generator: Adobe Illustrator 19.0.0, SVG Export Plug-In . SVG Version: 6.00 Build 0)  -->
<svg version="1.1" id="Layer_1" xmlns="http://www.w3.org/2000/svg" xmlns:xlink="http://www.w3.org/1999/xlink" x="0px" y="0px"
	 viewBox="0 0 2000 2000" style="enable-background:new 0 0 2000 2000;" xml:space="preserve">
<path d="M1185.607,1965.336c7.854-21.744,15.656-43.508,23.572-65.229c24.939-68.43,49.679-136.935,74.953-205.241
	c26.815-72.473,54.399-144.662,81.198-217.141c31.448-85.055,62.183-170.374,93.646-255.424
	c36.074-97.514,72.685-194.828,108.913-292.285c27.149-73.032,53.719-146.282,81.225-219.178
	c13.471-35.702-4.855-60.182-42.89-58.778c-70.679,2.607-141.596,2.691-212.275,0.077c-48.47-1.792-77.771,24.417-92.102,64.142
	c-38.297,106.161-76.7,212.286-115.616,318.222c-33.233,90.466-67.516,180.547-100.816,270.989
	c-30.443,82.681-59.915,165.72-90.32,248.416c-36.536,99.368-73.671,198.515-110.415,297.807
	c-15.344,41.464-30.349,83.054-45.933,125.748c-31.337-8.492-60.479-16.39-92.314-25.017c9.244-25.894,17.766-50.123,26.535-74.263
	c22.489-61.903,44.781-123.88,67.721-185.615c27.616-74.321,56.201-148.283,83.658-222.662
	c24.778-67.119,48.189-134.742,72.962-201.862c24.376-66.045,49.863-131.679,74.564-197.606
	c17.961-47.938,35.629-95.987,53.034-144.129c7.57-20.94-8.896-46.518-31.738-46.738c-82.882-0.801-165.816-1.855-248.644,0.394
	c-30.493,0.828-53.758,21.174-64.802,49.847c-29.596,76.836-57.807,154.211-86.043,231.564
	c-27.606,75.63-54.175,151.639-81.902,227.224c-35.803,97.6-72.396,194.909-108.462,292.413
	c-16.84,45.526-33.24,91.214-50.298,138.088c-24.984-19.082-48.993-37.42-73.113-55.842
	c21.141-58.449,41.522-115.738,62.579-172.777c27.409-74.248,55.496-148.245,83.028-222.448
	c25.121-67.704,49.903-135.533,74.797-203.32c2.627-7.155,5.177-14.348,7.465-21.616c9.126-28.996-5.016-50.427-35.287-50.671
	c-79.06-0.638-158.133-0.783-237.19,0.002c-36.718,0.365-64.475,28.041-79.309,71.635c-17.542,51.551-36.922,102.479-55.604,153.64
	c-16.299,44.637-32.67,89.248-49.196,133.801c-2.043,5.507-5.241,10.585-10.782,21.567c-17.937-39.786-34.387-73.744-48.726-108.571
	c-37.597-91.317-56.285-187.786-67.893-284.914c-8.363-69.974-6.752-141.358,8.871-211.096
	c12.902-57.589,24.391-115.692,41.24-172.155c30.617-102.604,81.437-195.46,144.942-281.573
	c83.263-112.907,187.218-202.445,308.636-271.551c62.889-35.793,129.747-63.336,199.627-82.96
	c109.117-30.644,219.806-50.381,333.597-41.534c41.122,3.197,82.445,9.572,122.503,19.316
	c57.255,13.927,114.814,28.634,169.806,49.446c153.847,58.224,283.358,152.071,390.151,277.29
	c69.498,81.489,124.206,172.144,163.995,271.252c25.794,64.248,43.616,131.033,56.255,199.517
	c12.795,69.327,20.874,138.737,15.938,208.832c-3.475,49.347-8.805,99.22-20.293,147.184
	c-15.468,64.584-33.531,129.182-57.807,190.891c-53.473,135.925-137.632,251.748-245.363,350.28
	c-82.242,75.219-174.354,135.906-277.735,177.363c-60.817,24.388-124.303,42.117-186.589,62.841
	C1189.574,1970.394,1187.59,1967.865,1185.607,1965.336z"/>
</svg>
