<?xml version="1.0" encoding="iso-8859-1"?>
<!-- Generator: Adobe Illustrator 19.0.0, SVG Export Plug-In . SVG Version: 6.00 Build 0)  -->
<svg version="1.1" id="Layer_1" xmlns="http://www.w3.org/2000/svg" xmlns:xlink="http://www.w3.org/1999/xlink" x="0px" y="0px"
	 viewBox="0 0 500 500" enable-background="new 0 0 500 500" xml:space="preserve">
<path d="M249.449,210.834c2.152-3.474,3.618-5.69,4.937-7.991c16.623-28.992,33.357-57.921,49.763-87.036
	c5.962-10.58,14.509-15.467,26.576-15.435c47.061,0.127,94.122-0.019,141.183,0.036c19.474,0.023,28.072,14.743,18.404,31.464
	c-49.106,84.927-98.249,169.831-147.407,254.728c-6.622,11.436-15.534,15.707-25.372,10.859c-4.488-2.211-8.538-6.695-11.146-11.115
	c-17.951-30.419-35.466-61.096-53.133-91.683c-0.916-1.587-1.941-3.111-3.591-5.742c-2.644,4.418-4.857,8.008-6.967,11.659
	c-16.584,28.702-33.163,57.407-49.712,86.129c-9.645,16.739-26.531,16.954-36.245,0.193C107.416,301.8,58.17,216.656,8.955,131.495
	c-9.528-16.488-1.175-30.979,17.909-31.016c47.061-0.091,94.122,0.066,141.183-0.08c12.431-0.039,20.967,5.205,27.05,16.054
	c16.343,29.148,33.118,58.054,49.742,87.044C246.042,205.594,247.408,207.598,249.449,210.834z M57.123,138.624
	c39.487,68.519,78.218,135.725,117.661,204.168c16.875-29.315,32.67-57.157,48.947-84.712c3.554-6.016,3.3-10.697-0.09-16.495
	c-18.633-31.868-37.108-63.829-55.335-95.93c-3.242-5.709-7.1-7.878-13.648-7.802c-29.075,0.338-58.156,0.19-87.234,0.257
	C64.561,138.116,61.698,138.387,57.123,138.624z M324.303,342.69c39.521-68.581,78.221-135.735,116.935-202.915
	c-1.481-0.845-1.923-1.318-2.368-1.32c-32.917-0.158-65.836-0.394-98.751-0.177c-2.566,0.017-6.111,2.643-7.516,5.042
	c-19.646,33.533-39.119,67.169-58.205,101.022c-1.634,2.898-1.634,8.302-0.008,11.208
	C290.438,284.238,306.992,312.642,324.303,342.69z"/>
</svg>
