<?xml version="1.0" encoding="iso-8859-1"?>
<!-- Generator: Adobe Illustrator 19.0.0, SVG Export Plug-In . SVG Version: 6.00 Build 0)  -->
<svg version="1.1" id="Layer_1" xmlns="http://www.w3.org/2000/svg" xmlns:xlink="http://www.w3.org/1999/xlink" x="0px" y="0px"
	 viewBox="0 0 2000 2000" style="enable-background:new 0 0 2000 2000;" xml:space="preserve">
<path d="M1503.557,1064.159c-25.014-52.975-42.887-104.817-40.914-161.432c2.457-70.534,47.203-113.192,122.59-123.275
	c40.774-5.453,72.353,7.978,97.895,37.066c20,22.777,37.13,48.075,54.201,70.501c9.574-23.187,17.623-49.263,30.504-72.68
	c43.86-79.736,115.325-70.722,171.185-31.199c25.53,18.063,34.676,50.162,39.513,80.801c7.485,47.414-0.922,92.659-23.199,135.529
	c-15.146-11.731-28.874-24.378-44.45-34.052c-47.201-29.315-84.835-15.811-103.221,36.373
	c-16.937,48.069-17.597,98.166-15.866,148.167c2.944,85.054-26.335,159.224-74.738,226.985
	c-49.507,69.308-115.981,118.256-190.451,157.96c-93.454,49.825-195.589,71.405-297.65,92.568
	c-167.098,34.649-336.05,48.511-506.529,36.049c-129.916-9.497-259.687-26.292-379.938-77.533
	c-72.242-30.784-137.712-78.172-188.825-146.118c62.3,17.867,123.361,22.833,185.029,19.962
	c98.841-4.604,189.392-51.269,221.459-159.075c1.494-5.021,3.2-9.979,4.294-13.375c22.801,8.922,44.901,18.404,67.662,25.868
	c5.456,1.789,13.115-3.136,19.76-4.974c-4.38-4.714-7.913-11.899-13.278-13.736c-32.757-11.218-65.414-23.077-87.723-50.983
	c-11.154-13.953-17.483-31.679-26.92-47.134c-3.533-5.786-9.691-9.969-14.652-14.883c-2.063,6.559-7.751,14.875-5.57,19.377
	c10.21,21.07,22.918,40.912,33.986,61.593c3.257,6.085,7.082,14.268,5.545,20.159c-24.218,92.862-86.883,140.36-180.073,153.44
	c-70.8,9.937-139.156-1.293-207.822-16.44c-19.883-4.386-29.728-15.542-39.339-31.145c-45.952-74.602-67.851-157.294-81.544-242.492
	c-23.146-144.02-10.749-284.345,50.58-418.014c70.588-153.849,189.856-259.429,341.882-326.749
	c177.821-78.742,358.003-81.808,534.258,6.792c121.465,61.058,203.887,161.789,271.303,277.369
	c46.004,78.869,68.518,165.231,92.174,251.942c24.743,90.697,56.906,178.899,107.207,259.141
	c12.655,20.188,27.337,39.561,43.609,56.948c72.467,77.435,184.465,54.88,220.665-45.443
	c20.381-56.484,17.516-114.488-6.779-169.602c-23.241-52.723-70.12-63.294-115.417-28.443
	C1551.309,1027.403,1528.659,1044.84,1503.557,1064.159z M1061.145,1374.151c-55.169,2.031-104.41,24.057-134.55,60.187
	c-27.225,32.635-29.038,50.484-4.282,85.572c29.307,41.537,71.12,68.943,114.19,94.105c4.97,2.904,14.151,0.766,20.606-1.371
	c77.562-25.683,109.61-107.946,89.21-177.877C1132.782,1388.359,1109.716,1372.363,1061.145,1374.151z M560.365,1002.781
	c5.974-50.288-42.653-100.154-96.122-98.552c-63.359,1.899-99.761,46.321-98.419,97.964c1.603,61.723,44.252,96.764,99.399,96.562
	C526.787,1098.529,564.487,1045.914,560.365,1002.781z M468.271,1030.969c0.384,21.992,16.702,37.245,39.432,36.859
	c21.529-0.366,38.493-17.754,37.925-38.874c-0.566-21.046-18.292-37.413-40.199-37.119
	C483.377,992.13,467.877,1008.454,468.271,1030.969z"/>
</svg>
