<?xml version="1.0" encoding="iso-8859-1"?>
<!-- Generator: Adobe Illustrator 19.0.0, SVG Export Plug-In . SVG Version: 6.00 Build 0)  -->
<svg version="1.1" id="Layer_1" xmlns="http://www.w3.org/2000/svg" xmlns:xlink="http://www.w3.org/1999/xlink" x="0px" y="0px"
	 viewBox="0 0 2000 2000" style="enable-background:new 0 0 2000 2000;" xml:space="preserve">
<path d="M157.022,1487.403c0-325.864,0-650.827,0-976.518c281.492-162.5,563.181-325.113,845.198-487.915
	c281.863,162.693,563.837,325.45,844.907,487.686c0,326.758,0,651.384,0,976.999c-281.235,162.319-562.691,324.766-844.789,487.583
	C720.608,1812.651,438.727,1649.976,157.022,1487.403z M821.849,316.456c0,330.043,0,659.036,0,989.189
	c-81.515-41.825-161.888-83.064-242.677-124.516c0-242.553,0-485.072,0-729.302c-84.565,47.687-167.986,94.729-249.776,140.851
	c0,268.139,0,534.548,0,800.861c224.948,130.201,448.725,259.724,672.739,389.384c226.007-130.526,451.953-261.018,677.536-391.299
	c0-266.503,0-532.251,0-798.12c-86.198-46.952-172.057-93.719-259.203-141.188c0,243.961,0,486.399,0,728.64
	c-79.062,41.758-157.385,83.125-236.794,125.067c0-330.745,0-659.608,0-989.482c-60.176-38.281-120.526-76.672-181.474-115.444
	C942.042,239.575,882.006,277.976,821.849,316.456z"/>
</svg>
