<?xml version="1.0" encoding="iso-8859-1"?>
<!-- Generator: Adobe Illustrator 19.0.0, SVG Export Plug-In . SVG Version: 6.00 Build 0)  -->
<svg version="1.1" id="Layer_1" xmlns="http://www.w3.org/2000/svg" xmlns:xlink="http://www.w3.org/1999/xlink" x="0px" y="0px"
	 viewBox="0 0 500 500" enable-background="new 0 0 500 500" xml:space="preserve">
<path d="M57.41,471.985c69.783-65.229,139.275-130.769,209.562-196.11c6.271,26.125,12.457,51.894,18.646,77.678
	c2.416-0.784,2.435-0.816,1.962-2.786c-5.486-22.888-10.954-45.779-16.462-68.662c-4.954-20.581-9.945-41.154-14.93-61.728
	c-4.81-19.854-9.638-39.704-14.45-59.558c-2.693-11.111-5.352-22.23-8.065-33.337c-1.879-7.691-3.876-15.353-5.692-23.059
	c-0.352-1.494-1.24-1.893-2.444-2.281c-19.008-6.121-38.011-12.26-57.014-18.397C114.672,66.354,60.82,48.96,6.969,31.561
	c-0.675-0.218-1.329-0.504-1.905-1.081c3.091,0.182,6.182,0.357,9.272,0.548c10.344,0.637,275.032,16.984,281.932,17.334
	c1.201,0.061,1.607,0.704,2.035,1.596c4.28,8.911,8.577,17.814,12.87,26.718c17.145,35.557,34.307,71.106,51.428,106.674
	c7.54,15.664,14.983,31.374,22.501,47.048c4.859,10.131,9.768,20.237,14.663,30.35c4.275,8.834,8.563,17.661,12.838,26.496
	c0.257,0.532,0.447,1.096,0.627,1.545c-59.429,30.491-118.613,61.182-177.851,91.767c-59.241,30.586-118.466,61.203-177.699,91.806
	C57.59,472.237,57.5,472.111,57.41,471.985z M366.21,183.967c16.559,34.211,33.09,68.361,49.665,102.604
	c10.672-5.515,21.125-10.917,31.567-16.314c0.44-32.045,0.878-63.923,1.32-96.111c15.211,4.988,30.057,10.124,45.459,15.185
	c-11.614-31.191-23.035-61.864-34.584-92.882C428.317,125.789,397.283,154.859,366.21,183.967z M35.221,112.75
	c0.707,0.533,1.493,0.842,2.295,1.101c56.998,18.423,113.995,36.847,171.006,55.229c1.389,0.448,2.075,1.117,2.403,2.541
	c2.139,9.301,4.354,18.584,6.55,27.872c7.571,32.012,15.143,64.024,22.721,96.034c0.116,0.491,0.311,0.963,0.539,1.656
	c8.62-8.063,17.053-15.951,25.461-23.815c-12.038-49.62-24.028-99.039-36.055-148.609
	C164.993,120.746,100.107,116.748,35.221,112.75z"/>
</svg>
