<?xml version="1.0" encoding="iso-8859-1"?>
<!-- Generator: Adobe Illustrator 19.0.0, SVG Export Plug-In . SVG Version: 6.00 Build 0)  -->
<svg version="1.1" id="Layer_1" xmlns="http://www.w3.org/2000/svg" xmlns:xlink="http://www.w3.org/1999/xlink" x="0px" y="0px"
	 viewBox="0 0 2000 2000" style="enable-background:new 0 0 2000 2000;" xml:space="preserve">
<path d="M839.477,434.791c61.581-51.639,127.907-89.94,204.376-108.836c142.547-35.224,275.897-14.08,398.898,66.795
	c12.784,8.405,23.905,20.112,33.852,31.924c40.899,48.571,86.759,93.07,116.633,150.56c25.499,49.069,36.722,102.211,40.217,155.44
	c6.395,97.419,5.537,195.3,8.522,292.964c1.267,41.466,6.23,82.86,6.463,124.304c0.179,31.824,0.241,65.012-8.388,95.085
	c-6.743,23.496-22.33,49.913-41.985,63.208c-55.898,37.81-110.596,52.996-178.56,12.449c-37.618-22.443-57.274-59.789-58.37-103.194
	c-3.583-141.933-6.69-283.911-7.083-425.879c-0.231-83.148-75.882-163.776-150.467-175.092
	c-71.799-10.893-121.105,23.727-164.63,72.15c-29.721,33.066-36.507,74.748-36.409,118.057
	c0.274,120.876,0.522,241.757-0.245,362.629c-0.164,25.845-1.111,52.648-7.96,77.268c-11.297,40.612-38.145,69.088-80.054,81.879
	c-23.596,7.202-46.055,16.357-71.989,14.473c-82-5.958-141.741-63.905-142.134-144.802c-0.634-130.448-1.305-260.915,0.238-391.349
	c0.986-83.371-42.982-141.616-109.429-177.319c-68.646-36.884-147.11-14.795-203.213,54.025
	c-28.34,34.763-40.316,74.33-39.485,120.788c2.419,135.195,0.765,270.462,0.897,405.701c0.067,68.424,20.662,132.095,50.55,192.224
	c19.536,39.301,42.909,77.474,69.811,112.071c19.275,24.788,45.637,45.124,71.733,63.284c33.107,23.038,42.92,54.944,35.762,90.103
	c-13.43,65.963-56.464,114.979-128.711,125.171c-33.466,4.721-65.676-8.172-94.475-25.992
	c-88.79-54.943-161.611-126.283-213.966-216.802c-43.86-75.832-70.19-157.849-78.822-245.477
	c-11.084-112.517-24.164-224.844-34.478-337.428c-5.006-54.647-8.155-109.704-7.871-164.553
	c1.206-232.722,151.503-422.357,372.304-476.245c156.658-38.233,301.938-6.923,428.918,96.43
	C825.462,425.307,831.54,429.141,839.477,434.791z M377.139,1113.855c2.699,60.116-3.567,119.698,12.118,180.45
	c22.039,85.362,58.41,160.63,119.178,223.157c29.995,30.864,62.402,58.742,102.946,78.955
	c32.329,16.118,63.674,36.404,98.357,44.365c54.236,12.451,109.363,18.542,166.247,17.643
	c58.471-0.924,112.439-13.994,163.86-36.613c42.455-18.675,81.607-45.379,120.761-70.777c15.347-9.955,26.415-13.035,40.928-0.547
	c14.227,12.242,28.634,25.072,44.984,33.898c48.06,25.945,96.224,52.465,151.09,61.731c38.206,6.452,76.587,15.99,114.942,16.249
	c37.171,0.25,75.132-6.711,111.422-15.794c38.265-9.577,78.599-19.555,111.454-39.949c44.144-27.402,89.26-54.057,123.837-97.145
	c33.717-42.017,71.844-79.244,84.974-133.899c4.011-16.697,9.649-33.348,17.049-48.822c22.517-47.09,24.111-97.99,23.977-147.933
	c-0.132-49.361-9.235-98.64-12.88-148.067c-3.49-47.332-4.164-94.871-7.648-142.203c-3.725-50.604-8.838-101.12-14.15-151.589
	c-8.625-81.938-25.171-161.692-56.512-238.704c-27.15-66.713-70.729-121.758-117.431-173.813
	c-28.65-31.934-65.757-57.43-102.198-80.968c-61.981-40.036-131.111-49.512-186.176,16.908
	c-40.138,48.414-41.112,98.788,0.642,148.398c24.445,29.044,51.892,55.553,76.513,84.46
	c45.667,53.616,78.612,114.478,88.934,184.536c8.079,54.838,12.576,110.456,14.62,165.877
	c4.042,109.589,6.622,219.278,6.834,328.932c0.06,31.077-5.279,64.125-16.743,92.834c-20.462,51.245-65.727,77.842-115.749,95.604
	c-85.978,30.531-201.223-31.301-209.561-141.207c-6.208-81.834-6.155-164.177-7.745-246.316
	c-1.089-56.229,0.398-112.505-0.535-168.74c-0.33-19.866-3.8-39.767-6.904-59.484c-10.995-69.839-86.778-111.367-142.992-107.269
	c-86.842,6.332-143.655,63.786-144.827,155.695c-1.647,129.234,0.159,258.509-0.928,387.754
	c-0.205,24.351-2.046,50.88-11.752,72.542c-27.692,61.806-78.172,99.074-143.875,113.45c-18.006,3.94-38.69,2.316-56.789-2.196
	c-40.752-10.162-75.277-31.158-102.555-64.705c-25.152-30.933-42.966-63.147-42.781-104.427
	c0.596-132.842,1.382-265.707-0.708-398.52c-0.446-28.33-7.331-59.357-20.61-84.122c-30.592-57.052-80.949-76.532-146.441-71.702
	c-72.231,5.327-130.155,72.652-127.995,141.787c2.278,72.934,0.511,145.994,0.511,218.999
	C376.831,1039.669,375.477,1076.83,377.139,1113.855z"/>
</svg>
