<?xml version="1.0" encoding="iso-8859-1"?>
<!-- Generator: Adobe Illustrator 19.0.0, SVG Export Plug-In . SVG Version: 6.00 Build 0)  -->
<svg version="1.1" id="Layer_1" xmlns="http://www.w3.org/2000/svg" xmlns:xlink="http://www.w3.org/1999/xlink" x="0px" y="0px"
	 viewBox="0 0 500 500" enable-background="new 0 0 500 500" xml:space="preserve">
<path d="M77.041,75.411c14.678,45.109,28.149,90.137,42.224,134.971c14.028,44.684,27.866,89.428,41.794,134.169
	c20.627,0,40.61,0,61.115,0c8.869-32.525,17.772-65.174,26.674-97.822c0.344-0.063,0.687-0.125,1.031-0.188
	c8.852,32.497,17.703,64.994,26.634,97.782c20.594,0,40.72,0,61.335,0c9.491-34.035,18.957-67.98,28.423-101.925
	c0.354-0.061,0.709-0.122,1.063-0.182c17.232,61.685,34.464,123.369,51.716,185.123c-91.559,88.911-246.701,94.592-344.957-6.852
	C-28.542,314.519-10.599,159.367,77.041,75.411z M455.36,383.794c59.373-86.944,58.665-220.106-32.958-310.305
	c-86.766-85.418-216.368-90.391-305.896-30.436c25.348,80.34,50.752,160.857,76.156,241.375c0.385-0.048,0.771-0.096,1.156-0.144
	c9.364-39.779,18.728-79.558,28.11-119.417c18.478,0,36.508,0,54.795,0c9.437,39.881,18.822,79.541,28.207,119.201
	c0.375,0.052,0.75,0.104,1.125,0.156c11.112-39.809,22.225-79.617,33.337-119.426c18.599,0,36.425,0,54.924,0
	C414.607,237.594,434.893,310.37,455.36,383.794z"/>
</svg>
