<?xml version="1.0" encoding="iso-8859-1"?>
<!-- Generator: Adobe Illustrator 19.0.0, SVG Export Plug-In . SVG Version: 6.00 Build 0)  -->
<svg version="1.1" id="Layer_1" xmlns="http://www.w3.org/2000/svg" xmlns:xlink="http://www.w3.org/1999/xlink" x="0px" y="0px"
	 viewBox="0 0 500 500" enable-background="new 0 0 500 500" xml:space="preserve">
<path d="M429.994,81.221c-2.24,13.008-4.461,25.927-6.689,38.845c-2.252,13.054-4.512,26.106-6.766,39.16
	c-2.417,13.995-4.833,27.991-7.244,41.988c-2.388,13.862-4.764,27.726-7.154,41.588c-2.39,13.862-4.791,27.721-7.183,41.583
	c-0.499,2.893-0.98,5.79-1.472,8.685c-0.765,4.499-3.148,7.667-7.611,9.003c-6.2,1.856-12.708-2.489-13.25-8.931
	c-0.624-7.421-1.086-14.855-1.608-22.284c-0.652-9.269-1.297-18.539-1.938-27.809c-0.453-6.544-0.89-13.088-1.342-19.632
	c-0.641-9.27-1.293-18.539-1.933-27.809c-0.457-6.612-0.897-13.225-1.355-19.837c-0.637-9.202-1.285-18.403-1.923-27.605
	c-0.449-6.475-0.978-12.947-1.32-19.428c-1.522-28.893-22.556-52.95-51.081-57.97c-35.117-6.18-66.518,17.678-72.023,50.395
	c-0.837,4.972-1.133,10.04-1.585,15.072c-0.819,9.118-1.569,18.242-2.343,27.363c-0.595,7.012-1.178,14.024-1.773,21.036
	c-0.774,9.122-1.557,18.243-2.331,27.364c-0.595,7.012-1.176,14.025-1.771,21.036c-0.774,9.122-1.558,18.243-2.332,27.364
	c-0.595,7.012-1.175,14.025-1.77,21.036c-0.774,9.122-1.559,18.242-2.334,27.364c-0.59,6.944-1.167,13.888-1.756,20.832
	c-0.78,9.19-1.568,18.379-2.347,27.569c-0.456,5.378-0.906,10.756-1.353,16.135c-0.541,6.507-5.55,11.455-12.17,12.014
	c-6.101,0.515-12.043-3.632-13.445-9.732c-0.668-2.907-0.755-5.954-1.02-8.946c-0.81-9.119-1.584-18.24-2.361-27.362
	c-0.603-7.08-1.183-14.161-1.788-21.24c-0.756-8.849-1.532-17.696-2.29-26.545c-0.607-7.079-1.194-14.16-1.8-21.239
	c-0.763-8.917-1.541-17.833-2.305-26.749c-0.601-7.011-1.186-14.024-1.786-21.035c-0.769-8.985-1.535-17.97-2.324-26.953
	c-0.407-4.626-0.678-9.274-1.325-13.868c-3.136-22.288-18.961-40.914-40.443-47.77c-33.575-10.716-69.214,10.307-75.94,44.891
	c-1.002,5.153-1.481,10.41-2.164,15.624c-1.197,9.142-2.368,18.287-3.545,27.432c-1.151,8.942-2.293,17.884-3.445,26.826
	c-1.168,9.077-2.344,18.153-3.514,27.229c-1.013,7.857-2.021,15.716-3.035,23.573c-1.179,9.144-2.301,18.297-3.567,27.429
	c-0.74,5.338-1.37,10.73-2.678,15.939c-1.292,5.142-3.374,10.086-5.119,15.114c-0.059,0.169-0.216,0.303-0.34,0.469
	c-46.742-89.192-34.68-223.787,70.443-304.651C204.713-26.424,347.647-8.194,429.994,81.221z M397.596,445.907
	c109.516-82.286,117.734-219.023,73.965-303.68c-0.183,0.923-0.355,1.706-0.491,2.496c-1.442,8.344-2.878,16.688-4.317,25.032
	c-2.251,13.055-4.504,26.109-6.755,39.164c-2.262,13.122-4.522,26.244-6.783,39.366c-2.389,13.862-4.768,27.726-7.175,41.585
	c-0.993,5.718-1.77,11.491-3.119,17.125c-7.88,32.915-40.025,53.17-73.18,46.245c-27.07-5.654-47.35-29.299-48.834-56.874
	c-0.356-6.618-0.861-13.228-1.302-19.841c-0.65-9.749-1.306-19.498-1.955-29.247c-0.445-6.682-0.876-13.364-1.322-20.045
	c-0.642-9.613-1.296-19.225-1.938-28.838c-0.459-6.886-0.899-13.773-1.359-20.659c-0.632-9.476-1.278-18.952-1.911-28.428
	c-0.433-6.477-0.789-12.959-1.299-19.43c-0.551-6.991-6.295-12.174-13.167-12.037c-6.772,0.135-12.189,5.465-12.624,12.393
	c-0.257,4.092-0.55,8.181-0.825,12.271c-0.445,6.613-0.886,13.226-1.336,19.839c-0.639,9.407-1.288,18.814-1.925,28.222
	c-0.457,6.749-0.896,13.499-1.357,20.248c-0.758,11.112-1.537,22.222-2.29,33.334c-0.609,8.999-1.179,18-1.791,26.999
	c-0.751,11.044-1.539,22.084-2.289,33.128c-0.62,9.135-1.196,18.273-1.808,27.409c-0.791,11.794-1.583,23.588-2.405,35.38
	c-0.394,5.653-0.683,11.316-2,16.868c-7.919,33.397-40.783,55.279-75.364,48.225c-29.234-5.963-50.01-30.602-51.399-60.371
	c-0.331-7.098-0.862-14.186-1.308-21.279c-0.647-10.297-1.302-20.594-1.948-30.892c-0.449-7.161-0.885-14.322-1.335-21.483
	c-0.643-10.229-1.296-20.458-1.938-30.687c-0.454-7.229-0.892-14.459-1.346-21.688c-0.638-10.161-1.284-20.322-1.93-30.482
	c-0.533-8.388-1.011-16.78-1.628-25.161c-0.527-7.157-7.697-12.073-14.622-10.154c-4.975,1.378-8.064,5.292-8.688,10.974
	c-1.275,11.611-2.546,23.222-3.845,34.83c-1.436,12.83-2.908,25.656-4.351,38.485c-1.505,13.372-2.994,26.746-4.491,40.118
	c-1.649,14.73-3.276,29.463-4.956,44.19c-1.499,13.131-4.932,25.762-10.518,37.728c-3.435,7.359-7.392,14.474-11.112,21.699
	c-0.339,0.659-0.664,1.326-0.976,1.95C142.852,502.714,288.957,527.534,397.596,445.907z"/>
</svg>
