<?xml version="1.0" encoding="iso-8859-1"?>
<!-- Generator: Adobe Illustrator 19.0.0, SVG Export Plug-In . SVG Version: 6.00 Build 0)  -->
<svg version="1.1" id="Layer_1" xmlns="http://www.w3.org/2000/svg" xmlns:xlink="http://www.w3.org/1999/xlink" x="0px" y="0px"
	 viewBox="0 0 500 500" style="enable-background:new 0 0 500 500;" xml:space="preserve">
<path id="XMLID_4_" d="M376.728,227.134c0-29.732-0.025-59.463,0.012-89.195c0.015-11.766,3.885-16.337,15.2-19.17
	c25.464-6.377,50.884-12.934,76.322-19.414c9.931-2.53,19.556,3.655,21.13,13.757c0.417,2.676,0.224,5.455,0.225,8.187
	c0.01,58.096,0.017,116.193,0.002,174.289c-0.004,15.131-3.778,19.199-18.952,22.811c-23.21,5.525-46.349,11.363-69.426,17.421
	c-15.551,4.082-24.488-2.381-24.504-18.464C376.707,287.281,376.728,257.208,376.728,227.134z M267.936,311.182
	c0-32.109-0.014-64.219,0.005-96.328c0.012-19.997,8.15-33.844,28.429-36.83c2.849-0.419,5.54-1.906,8.507-2.972
	c0-20.621,0.231-40.767-0.095-60.904c-0.169-10.44-9.571-17.506-19.605-15.037c-26.102,6.424-52.153,13.055-78.196,19.712
	c-11.385,2.91-14.976,7.633-14.981,19.408c-0.026,59.778-0.031,119.557,0.001,179.335c0.008,14.707,9.058,22.335,22.953,18.954
	c17.225-4.191,34.336-8.855,52.982-13.701C267.936,318.595,267.936,314.889,267.936,311.182z M126.161,118.097
	c-0.43-14.708-10.489-21.199-24.567-17.544c-24.444,6.345-48.978,12.352-73.518,18.321c-11.149,2.712-15.43,7.746-15.426,19.041
	c0.012,40.67,0.052,81.34,0.004,122.01c-0.022,18.788,0.522,37.62-0.582,56.35c-0.874,14.825,8.581,23.409,23.658,20.116
	c4.904-1.071,9.72-2.542,14.581-3.814c10.927-2.86,21.857-5.71,32.884-8.59c0-33.189-0.122-65.296,0.091-97.402
	c0.049-7.412,0.928-14.861,1.978-22.213c2.052-14.371,10.099-22.637,24.295-25.911c5.271-1.216,10.453-2.819,16.733-4.534
	C126.291,154.944,126.699,136.506,126.161,118.097z M175.566,315.753c-0.005-41.688-0.001-83.376-0.001-125.064
	c0-3.703,0-7.407,0-12.014c-21.658,5.073-42.261,9.726-62.764,14.787c-7.876,1.944-13.179,9.615-13.18,17.655
	c-0.008,59.457-0.006,118.913,0,178.37c0,2.39-0.132,4.804,0.143,7.167c0.894,7.666,7.458,16.069,16.503,14.174
	c9.844-2.063,19.807-3.571,29.623-5.753c15.423-3.429,30.701-7.53,46.164-10.753c10.938-2.28,19.903-8.67,20.348-16.534
	c0.44-7.779,0.096-15.602,0.096-24.101C187.88,352.174,175.569,339.077,175.566,315.753z M321.837,188.038
	c-7.181,1.782-14.345,3.748-21.627,4.975c-9.906,1.668-15.847,8.094-15.848,18.202c-0.01,60.196-0.006,120.393-0.002,180.589
	c0,2.052-0.147,4.127,0.101,6.151c0.705,5.749,6.443,12.658,11.323,12.568c6.721-0.124,13.514-0.778,20.111-2.059
	c7.608-1.478,15.023-3.935,22.544-5.882c15.968-4.133,31.899-8.43,47.951-12.212c7.198-1.696,10.048-6.764,10.653-12.908
	c0.759-7.714,0.183-15.56,0.183-22.91c-1.522-0.672-2.143-1.214-2.694-1.15c-18.272,2.117-35.17-16.905-34.601-36.473
	c1.222-42.034,0.375-84.127,0.375-126.196c0-3.678,0-7.355,0-12.44C346.533,181.789,334.199,184.97,321.837,188.038z"/>
</svg>
