<?xml version="1.0" encoding="iso-8859-1"?>
<!-- Generator: Adobe Illustrator 19.0.0, SVG Export Plug-In . SVG Version: 6.00 Build 0)  -->
<svg version="1.1" id="Layer_1" xmlns="http://www.w3.org/2000/svg" xmlns:xlink="http://www.w3.org/1999/xlink" x="0px" y="0px"
	 viewBox="0 0 500 500" style="enable-background:new 0 0 500 500;" xml:space="preserve">
<path d="M12.696,192.573c-1.467-7.506,0.423-13.301,4.174-19.508c9.483-15.694,17.919-32.02,26.771-48.095
	c4.502-8.175,8.939-16.385,13.505-24.524c9.259-16.502,18.496-33.018,27.925-49.423c4.645-8.083,9.698-15.931,14.999-24.591
	c3.645-2.393,8.628-2.37,13.607-2.373c36.336-0.02,72.672-0.083,109.008-0.049c41.027,0.038,82.054,0.173,123.081,0.244
	c14.052,0.025,28.104-0.042,42.156-0.002c3.173,0.009,6.345,0.285,8.663,0.397c31.018,55.124,61.534,109.355,92.114,163.7
	c-7.052,7.932-14.415,15.783-21.276,24.051c-7.063,8.512-13.57,17.483-20.448,26.152c-4.158,5.24-8.561,10.285-12.848,15.423
	c-8.575,10.277-17.08,20.613-25.734,30.823c-10.178,12.009-20.601,23.811-30.702,35.884c-11.985,14.324-23.632,28.932-35.62,43.253
	c-18.324,21.891-36.882,43.586-55.209,65.476c-9.755,11.652-19.176,23.583-28.873,35.284c-2.536,3.06-5.542,5.731-8.588,8.84
	c-4.989-4.596-10.243-7.852-12.256-14.105c-0.332-1.032-1.37-1.857-2.14-2.726c-8.118-9.157-16.307-18.252-24.356-27.469
	c-6.094-6.978-12.577-13.717-17.852-21.283c-5.029-7.212-11.087-13.291-17.065-19.579c-3.583-3.769-6.261-8.381-9.557-12.443
	c-9.173-11.305-18.364-22.599-27.724-33.749c-8.262-9.841-16.84-19.416-25.131-29.233c-7.129-8.441-13.957-17.135-21.085-25.576
	c-9.035-10.7-18.237-21.259-27.368-31.878c-2.096-2.438-4.217-4.856-6.288-7.315c-8.64-10.255-17.335-20.465-25.876-30.801
	C25.832,209.064,19.152,200.591,12.696,192.573z M370.243,284.222c-5.292-9.372-9.866-19.034-15.873-27.703
	c-6.925-9.993-11.448-21.307-18.57-31.171c-4.025-5.575-6.681-12.125-10.172-18.108c-1.132-1.941-2.958-3.477-4.053-4.727
	c-3.359,0.392-5.923,0.95-8.487,0.952c-36.347,0.021-72.694-0.036-109.042-0.069c-9.635-0.009-19.27-0.001-29.259-0.001
	c-7.929,13.6-15.734,26.9-23.453,40.25c-7.662,13.251-15.237,26.551-23.12,40.302c4.13,5.602,7.663,10.948,11.745,15.836
	c19.112,22.893,38.389,45.648,57.572,68.481c4.685,5.576,9.274,11.234,13.845,16.904c6.028,7.476,11.994,15.001,17.989,22.504
	c3.627,4.54,7.166,9.155,10.919,13.589c2.177,2.572,4.699,4.851,7.49,7.695c5.842-6.197,11.275-11.489,16.15-17.252
	c6.22-7.352,11.851-15.2,17.984-22.628c10.416-12.616,20.987-25.105,31.566-37.585c11.873-14.006,23.871-27.907,35.733-41.924
	C356.351,301.126,363.339,292.551,370.243,284.222z M49.669,173.282c18.819,2.09,36.481,1.626,54.107,1.591
	c18.03-0.036,36.059-0.41,53.991-0.634c1.392-1.669,2.528-2.678,3.227-3.93c4.358-7.796,8.435-15.72,13.334-23.242
	c5.532-8.494,8.846-18.201,14.636-26.733c6.63-9.77,11.589-20.669,17.335-31.044c4.34-7.836,8.847-15.579,13.134-23.443
	c1.891-3.469,3.42-7.136,5.545-11.625c-4.047-0.643-7.703-1.714-11.363-1.728c-29.587-0.112-59.175-0.079-88.762,0.081
	c-3.048,0.016-6.091,1.152-8.408,1.622c-4.558,8.103-8.495,15.258-12.578,22.328c-9.042,15.658-18.163,31.271-27.24,46.909
	c-3.178,5.474-6.364,10.944-9.47,16.46c-3.56,6.321-7.119,12.645-10.515,19.055C54.36,163.257,52.362,167.716,49.669,173.282z
	 M338.881,173.668c1.814,0.12,2.976,0.257,4.139,0.265c32.514,0.223,65.028,0.463,97.543,0.553c1.507,0.004,3.017-1.349,4.484-2.05
	c0-1.306,0.304-2.328-0.047-3.015c-3.571-6.987-7.086-14.012-10.935-20.847c-6.254-11.105-12.867-22.008-19.104-33.122
	c-6.26-11.155-12.204-22.486-18.37-33.694c-2.937-5.339-5.993-10.615-9.133-15.837c-2.663-4.429-5.522-8.74-8.474-13.385
	c-3.24,0-5.832-0.001-8.425,0c-8.494,0.003-16.987,0.039-25.481,0.005c-21.684-0.086-43.369-0.171-65.053-0.35
	c-2.626-0.022-4.651,0.325-5.427,4.507c7.113,12.631,14.792,26.013,22.222,39.532c7.432,13.52,14.703,27.131,21.88,40.789
	c5.361,10.202,10.384,20.582,15.731,30.791C335.605,170.052,337.517,171.905,338.881,173.668z M248.439,72.591
	c-6.134,6.202-8.884,13.31-12.545,19.85c-3.695,6.601-7.721,13.018-11.377,19.64c-3.818,6.916-7.296,14.02-11.053,20.97
	c-3.603,6.666-7.432,13.209-11.056,19.865c-3.531,6.485-6.927,13.043-11.033,20.799c8.217,0.48,15.122,1.224,22.025,1.209
	c11.657-0.024,23.313-0.563,34.971-0.812c4.1-0.087,8.205,0.014,12.307,0.077c13.117,0.201,26.232,0.487,39.35,0.556
	c1.51,0.008,3.026-1.149,4.735-1.846c-1.052-3.812-1.355-7.465-2.993-10.365c-4.843-8.574-10.456-16.711-15.323-25.272
	c-9.048-15.916-17.788-32.008-26.639-48.036c-1.696-3.071-3.089-6.337-5.034-9.236C253.062,77.44,250.775,75.275,248.439,72.591z
	 M61.367,209.837c15.507,17.117,30.468,33.632,46.216,51.015c12.14-18.219,22.55-35.974,31.674-55.127
	c-1.787-0.931-3.006-2.117-4.228-2.12c-23.339-0.066-46.678,0.006-70.017,0.073c-0.231,0.001-0.462,0.315-1.118,0.791
	C63.237,205.865,62.383,207.678,61.367,209.837z M436.097,207c-1.638-3.83-4.505-3.483-7.057-3.492
	c-21.632-0.084-43.265-0.14-64.897-0.057c-2.095,0.008-4.185,1.016-7.339,1.835c10.46,18.039,20.274,35.022,30.194,51.943
	c0.659,1.123,2.12,1.776,3.798,3.122c3.064-3.107,6.099-5.782,8.655-8.856c6.663-8.013,13.056-16.248,19.669-24.303
	C424.769,220.31,430.574,213.557,436.097,207z"/>
</svg>
