<?xml version="1.0" encoding="iso-8859-1"?>
<!-- Generator: Adobe Illustrator 19.0.0, SVG Export Plug-In . SVG Version: 6.00 Build 0)  -->
<svg version="1.1" id="Layer_1" xmlns="http://www.w3.org/2000/svg" xmlns:xlink="http://www.w3.org/1999/xlink" x="0px" y="0px"
	 viewBox="0 0 2000 2000" style="enable-background:new 0 0 2000 2000;" xml:space="preserve">
<path d="M1003.751,1225.614c-257.733,256.487-503.612,504.277-751.26,750.234c-5.786-3.423-11.573-6.845-17.359-10.268
	c-1.93-15.64-5.448-31.272-5.532-46.922c-0.512-95.761-3.435-191.694,1.556-287.198c1.663-31.823,16.594-69.993,38.522-92.584
	c153.239-157.875,311.011-311.343,464.725-468.767c40.43-41.406,89.749-35.217,136.125-37.252
	c100.611-4.414,201.774-5.308,302.224,0.617c34.828,2.054,75.9,20.629,101.006,45.108
	c153.918,150.07,305.403,302.726,454.132,457.938c23.931,24.974,40.557,66.549,42.32,101.373
	c5.416,106.971,1.972,214.391,1.972,339.876c-30.291-19.052-51.632-27.719-66.73-42.685
	c-220.703-218.758-440.663-438.266-660.428-657.968C1030.874,1262.971,1019.765,1245.783,1003.751,1225.614z M239.192,27.863
	c-3.223,10.546-9.181,21.075-9.247,31.641c-0.665,105.874-2.611,211.838,1.307,317.573c0.939,25.353,16.785,55.344,35.116,74.045
	c155.271,158.407,311.829,315.592,470.575,470.506c20.44,19.946,55.295,34.119,83.985,35.044
	c119.2,3.84,238.666,3.756,357.872-0.016c28.931-0.915,64.32-14.098,84.72-33.976c160.069-155.97,317.809-314.356,474.41-473.822
	c17.219-17.535,31.419-46.296,32.176-70.319c3.439-109.126,1.717-218.419,1.245-327.65c-0.032-7.394-5.056-14.766-7.572-21.639
	c-8.084-0.569-15.172-3.189-17.478-0.929c-247.85,242.861-495.342,486.088-746.672,733.045
	C750.645,512.705,503.313,265.693,255.98,18.682C250.384,21.742,244.788,24.802,239.192,27.863z"/>
</svg>
