<?xml version="1.0" encoding="iso-8859-1"?>
<!-- Generator: Adobe Illustrator 19.0.0, SVG Export Plug-In . SVG Version: 6.00 Build 0)  -->
<svg version="1.1" id="Layer_1" xmlns="http://www.w3.org/2000/svg" xmlns:xlink="http://www.w3.org/1999/xlink" x="0px" y="0px"
	 viewBox="0 0 2000 2000" style="enable-background:new 0 0 2000 2000;" xml:space="preserve">
<path d="M540.107,684.94c55.403,17.186,90.709,55.207,117.68,101.792c37.623,64.984,51.773,136.779,54.684,210.806
	c1.781,45.307,0.329,90.742,0.329,136.119c3.992,1.34,7.985,2.68,11.977,4.02c10.117-24.986,24.186-49.144,29.63-75.11
	c18.212-86.858,17.168-174.412-2.362-261.001c-38.73-171.715-44.378-341.925,21.21-508.917
	C814.417,187.85,883.573,105.084,977.346,42.948c10.185-6.749,21.503-11.79,41.581-22.642
	c-93.539,216.417-83.461,422.121,13.081,624.455c43.216,90.573,99.141,172.39,174.352,242.936
	c11.037-76.967,27.981-148.564,68.263-212.791c40.422-64.45,94.269-114.697,164.682-159.832
	c-7.471,36.898-14.624,66.63-19.392,96.739c-20.849,131.659,0.869,257.436,53.236,378.994
	c34.071,79.087,68.635,158.007,100.494,237.992c87.479,219.621,10.838,469.925-188.94,621.543
	c-278.854,211.632-695.438,152.462-894.182-129.137c-110.026-155.896-130.969-325.047-60.572-503.469
	c18.433-46.718,40.726-91.917,61.402-137.743c10.633-23.568,22.697-46.548,32.243-70.539
	C571.425,889.253,574.365,829.386,540.107,684.94z M731.174,1543.868c-5.69,20.819-10.95,38.6-15.392,56.583
	c-17.696,71.639-11.453,141.047,30.682,202.252c15.958,23.18,41.592,44.536,67.548,55.173
	c125.231,51.316,251.075,47.44,377.936,0.143c49.804-18.568,72.728-51.071,82.007-99.931c12.56-66.129,0.383-128.141-29.986-189.442
	c52.558-60.052,104.394-119.279,156.436-178.742c0-17.75,0-34.758,0-53.65c-60.577-71.486-121.594-143.492-181.555-214.25
	c-52.798,0-99.957,0-142.28,0c-25.351-26.971-47.121-50.132-68.891-73.293c-2.07,1.69-4.14,3.381-6.21,5.071
	c3.977,21.467,7.953,42.935,12.676,68.432c-81.513,0-157.281,0-236.393,0c-58.44,69.165-118.477,136.729-173.943,207.857
	c-18.15,23.275-13.962,54.107,8.345,78.918C652.322,1453.665,691.703,1499.05,731.174,1543.868z M1356.065,1363.638
	c-119.963,136.396-236.509,268.908-355.866,404.615c-119.136-135.439-236.375-268.721-355.748-404.429
	c54.528-65.086,107.76-128.626,160.756-191.883c129.922,0,257.581,0,389.655,0
	C1246.582,1233.444,1299.909,1296.859,1356.065,1363.638z M996.318,1660.092c2.657-0.15,5.314-0.3,7.971-0.45
	c29.937-89.264,59.874-178.527,91.108-271.658c-65.584,0-125.699,0-190.656,0C936.377,1481.987,966.348,1571.04,996.318,1660.092z
	 M1140.151,1385.946c-27.627,82.482-53.986,161.18-80.346,239.877c2.522,1.205,5.043,2.41,7.565,3.614
	c69.011-78.864,138.021-157.727,213.07-243.492C1227.09,1385.946,1185.774,1385.946,1140.151,1385.946z M933.335,1629.44
	c2.38-1.775,4.76-3.551,7.14-5.326c-26.969-79.658-53.938-159.316-79.821-235.765c-48.421,0-90.015,0-139.255,0
	C795.707,1472.88,864.521,1551.16,933.335,1629.44z M917.639,1339.202c58.847,0,108.656,0,164.909,0
	c-29.043-39.802-53.994-73.995-82.347-112.851C972.062,1264.813,947.067,1298.978,917.639,1339.202z M719.047,1340.294
	c46.906,0,83.188,0,125.511,0c-12.374-36.225-23.27-68.124-36.637-107.258C775.53,1272.128,749.741,1303.25,719.047,1340.294z
	 M1156.395,1340.689c43.822,0,80.106,0,126.01,0c-32.173-38.349-59.179-70.54-90.672-108.078
	C1178.405,1273.372,1168.367,1304.072,1156.395,1340.689z M956.817,1214.724c-40.623,0-72.654,0-110.214,0
	c11.816,34.57,22.095,64.643,35.154,102.852C908.363,1281.118,929.892,1251.618,956.817,1214.724z M1119.061,1318.426
	c13.641-40.811,23.502-70.311,34.269-102.522c-36.889,0-69.385,0-108.92,0C1070.345,1251.522,1091.738,1280.903,1119.061,1318.426z"
	/>
</svg>
