<?xml version="1.0" encoding="iso-8859-1"?>
<!-- Generator: Adobe Illustrator 19.0.0, SVG Export Plug-In . SVG Version: 6.00 Build 0)  -->
<svg version="1.1" id="Layer_1" xmlns="http://www.w3.org/2000/svg" xmlns:xlink="http://www.w3.org/1999/xlink" x="0px" y="0px"
	 viewBox="0 0 2000 2000" style="enable-background:new 0 0 2000 2000;" xml:space="preserve">
<path d="M24.548,999.55C24.773,465.416,461.503,11.773,1025.435,23.842c517.522,11.076,962.232,436.195,952.854,997.627
	c-8.644,517.513-436.367,969.101-1002.599,955.606C457.478,1964.725,26.162,1543.308,24.548,999.55z M1754.68,1003.239
	c5.945-414.917-340.059-761.377-764.361-753.061c-417.021,8.173-745.629,348.018-739.457,767.669
	c5.886,400.209,349.295,772.827,821.046,734.481C1436.972,1722.655,1760.302,1405.076,1754.68,1003.239z M1166.756,465.462
	c15.769-44.23,30.591-85.803,45.263-126.955c185.411,34.777,412.684,226.215,477.479,486.385
	c81.25,326.24-63.908,650.223-350.257,803.334c-270.452,144.61-596.027,84.553-767.32-70.772
	c61.14-167.432,122.814-336.33,184.064-504.064c130.663-13.423,256.867-28.078,383.408-38.732
	c71.719-6.038,118.356,63.618,95.781,137.153c-34.909,113.711-136.649,185.891-271.37,190.752
	c-49.063,1.771-98.244,0.285-151.627,0.285c-20.004,53.409-39.509,105.484-61.13,163.209
	c169.09,80.672,336.549,86.002,501.414,2.731c207.207-104.658,314.409-279.335,314.606-509.721
	C1567.256,777.376,1438.755,564.24,1166.756,465.462z M911.339,1070.67c-19.32,52.868-36.859,100.861-56.587,154.845
	c70.256,3.384,136.111,17.788,188.577-34.611c26.223-26.189,39.582-59.425,17.156-108.346
	C1014.225,1078.871,963.739,1074.847,911.339,1070.67z M758.254,1003.808c68.707-189.75,135.206-373.402,203.719-562.62
	c-204.286,23.786-353.297,119.438-451.195,291.5c-59.462,104.508-80.455,218.344-65.475,337.694
	c14.942,119.043,65.689,222.536,144.62,311.517c-18.78,50.765-36.595,98.921-54.783,148.085
	c-216.465-180.462-311.827-515.036-182.552-811.855c131.725-302.443,472.16-490.481,819.161-403.62
	c-41.504,115.543-82.901,230.789-126.342,351.724c45,0,83.837-2.321,122.242,0.749c29.686,2.373,60.274,7.77,87.905,18.44
	c50.473,19.491,69.621,62.314,56.912,114.957c-25.099,103.968-104.443,164.37-210.523,170.754
	C990.182,977.86,878.867,992.011,758.254,1003.808z M1000.48,787.857c-15.155,44.013-29.605,85.979-44.872,130.317
	c34.727,0,63.647,2.158,92.117-0.497c44.711-4.169,78.376-37.62,83.155-80.044c3.219-28.57-8.693-47.888-39.115-49.458
	C1063.037,786.692,1034.172,787.857,1000.48,787.857z"/>
</svg>
