<?xml version="1.0" encoding="iso-8859-1"?>
<!-- Generator: Adobe Illustrator 19.0.0, SVG Export Plug-In . SVG Version: 6.00 Build 0)  -->
<svg version="1.1" id="Layer_1" xmlns="http://www.w3.org/2000/svg" xmlns:xlink="http://www.w3.org/1999/xlink" x="0px" y="0px"
	 viewBox="0 0 2000 2000" style="enable-background:new 0 0 2000 2000;" xml:space="preserve">
<path d="M478.229,1175.358c222.039,51.017,421.354,96.813,637.16,146.398c-361.953,222.366-708.181,435.072-1064.944,654.249
	c0-660.125,0-1309.461,0-1968.998c317.053,154.836,628.036,306.707,941.849,459.961C1307.329,313.356,1620.37,160.717,1943.823,3
	c0,40.094,0.001,65.677,0,91.259c-0.025,483.407-7.592,966.981,3.141,1450.149c5.283,237.812-261.13,482.712-532.921,431.49
	c-180.33-33.985-251.565-227.355-143.261-394.63c127.86-197.48,307.718-280.606,549.336-224.874c0-256.059,0-509.074,0-762.088
	c0-25.466,0-50.932,0-90.663C1371.589,728.165,934.714,946.853,478.229,1175.358z"/>
</svg>
