<?xml version="1.0" encoding="iso-8859-1"?>
<!-- Generator: Adobe Illustrator 19.0.0, SVG Export Plug-In . SVG Version: 6.00 Build 0)  -->
<svg version="1.1" id="Layer_1" xmlns="http://www.w3.org/2000/svg" xmlns:xlink="http://www.w3.org/1999/xlink" x="0px" y="0px"
	 viewBox="0 0 500 500" enable-background="new 0 0 500 500" xml:space="preserve">
<path d="M322.096,337.069c-24.18,41.998-48.304,83.899-72.624,126.14c-24.047-41.77-47.943-83.278-71.881-124.858
	C235.535,237.513,293.454,136.72,351.38,35.913c47.917,0,95.777,0,144.092,0c-53.405,92.766-106.684,185.315-160.177,278.235
	c-22.082-37.993-43.946-75.61-65.945-113.46c-4.485,7.8-8.802,15.31-13.184,22.932C278.1,261.364,300.065,299.16,322.096,337.069z
	 M243.438,155.916c-4.414,7.679-8.808,15.322-13.29,23.119c-27.786-47.808-55.468-95.438-83.124-143.024
	c-47.789,0-95.46,0-143.388,0c53.595,93.094,107.089,186.009,160.718,279.163c53.523-93.141,106.929-186.078,160.434-279.188
	c-50.431,0-100.572,0-151.045,0C197.049,76.089,220.241,115.998,243.438,155.916z"/>
</svg>
