<?xml version="1.0" encoding="iso-8859-1"?>
<!-- Generator: Adobe Illustrator 19.0.0, SVG Export Plug-In . SVG Version: 6.00 Build 0)  -->
<svg version="1.1" id="Layer_1" xmlns="http://www.w3.org/2000/svg" xmlns:xlink="http://www.w3.org/1999/xlink" x="0px" y="0px"
	 viewBox="0 0 500 500" enable-background="new 0 0 500 500" xml:space="preserve">
<path d="M274.584,353.157c-0.001-15.003,0.078-30.007-0.063-45.009c-0.03-3.225,0.787-5.602,3.145-7.919
	c12.503-12.287,24.827-24.755,37.244-37.129c5.467-5.448,9.09-5.46,14.503-0.108c4.941,4.886,9.732,9.93,14.817,14.66
	c1.331,1.238,3.501,2.19,5.299,2.212c14.211,0.178,28.427,0.167,42.639,0.007c1.655-0.019,3.69-0.888,4.881-2.048
	c9.05-8.813,17.996-17.737,26.799-26.796c1.258-1.294,2.193-3.494,2.223-5.293c0.196-11.684,0.196-23.374,0-35.057
	c-0.03-1.798-0.971-3.996-2.23-5.291c-9.024-9.285-18.169-18.458-27.471-27.464c-1.384-1.34-3.78-2.258-5.727-2.293
	c-11.683-0.21-23.374,0.026-35.057-0.185c-3.453-0.062-5.824,1-8.247,3.429c-54.653,54.787-109.409,109.47-164.037,164.282
	c-2.928,2.938-5.834,4.036-9.902,4.015c-29.69-0.149-59.381-0.124-89.072-0.02c-3.369,0.012-5.831-0.786-8.305-3.285
	c-21.551-21.776-43.23-43.428-64.972-65.014c-2.203-2.187-3.053-4.371-3.043-7.435C8.108,242.198,8.111,212.981,8,183.764
	c-0.011-2.945,0.883-4.957,2.943-7.004c21.956-21.819,43.842-43.709,65.67-65.656c1.924-1.935,3.824-2.797,6.587-2.788
	c30.006,0.093,60.013,0.093,90.02,0c2.776-0.009,4.658,0.897,6.572,2.835c12.428,12.586,24.984,25.045,37.476,37.567
	c5.671,5.685,5.712,9.29,0.13,14.881c-11.047,11.064-22.116,22.107-33.213,33.121c-5.073,5.035-8.802,5.064-13.824,0.123
	c-6.191-6.092-12.375-12.195-18.426-18.424c-1.884-1.939-3.777-2.893-6.571-2.856c-11.527,0.153-23.058,0.135-34.585,0.009
	c-2.583-0.028-4.398,0.777-6.189,2.599c-8.857,9.009-17.787,17.948-26.806,26.793c-1.852,1.816-2.53,3.687-2.504,6.229
	c0.111,11.054,0.116,22.11-0.003,33.164c-0.028,2.561,0.707,4.409,2.545,6.214c9.016,8.849,17.955,17.779,26.805,26.795
	c1.815,1.849,3.686,2.534,6.232,2.512c12.002-0.107,24.007-0.158,36.006,0.025c3.268,0.05,5.535-0.933,7.844-3.247
	c54.769-54.894,109.639-109.687,164.377-164.612c2.829-2.839,5.596-3.872,9.503-3.853c29.532,0.142,59.066,0.123,88.598,0.013
	c3.222-0.012,5.573,0.768,7.903,3.116c21.689,21.863,43.474,43.631,65.318,65.339c2.071,2.058,2.922,4.093,2.911,7.026
	c-0.106,29.69-0.108,59.382,0.002,89.072c0.011,2.944-0.876,4.96-2.938,7.009c-21.621,21.484-43.179,43.032-64.655,64.661
	c-2.078,2.093-4.144,2.874-7.044,2.858c-20.056-0.112-40.114-0.065-60.171-0.056c-11.545,0.005-16.645,5.148-16.683,16.845
	c-0.038,11.687-0.018,23.374-0.059,35.06c-0.026,7.428-2.587,10.161-9.846,10.194c-15.793,0.071-31.586,0.068-47.379,0
	c-7.131-0.031-9.926-2.944-9.946-10.211C274.556,383.796,274.585,368.477,274.584,353.157z"/>
</svg>
