<?xml version="1.0" encoding="iso-8859-1"?>
<!-- Generator: Adobe Illustrator 19.0.0, SVG Export Plug-In . SVG Version: 6.00 Build 0)  -->
<svg version="1.1" id="Layer_1" xmlns="http://www.w3.org/2000/svg" xmlns:xlink="http://www.w3.org/1999/xlink" x="0px" y="0px"
	 viewBox="0 0 2000 2000" style="enable-background:new 0 0 2000 2000;" xml:space="preserve">
<path d="M214.087,793.408c-64.854-47.392-128.831-94.144-194.55-142.169c30.839-41.55,60.874-82.016,92.867-125.121
	c54.114,38.791,104.796,75.121,156.21,111.977c26.123-41.741,52.24-83.472,80.567-128.734
	C291.064,466.678,232,423.301,170.694,378.277c30.238-41.206,59.985-81.744,91.91-125.249
	c68.207,48.855,133.148,95.37,197.767,141.655c228.717-208.309,542.694-234.459,750.587-168.315
	c-56.946,54.443-112.805,107.846-168.488,161.081c-398.115-22.323-678.835,295.74-656.578,652.418
	c19.258,308.629,268.9,551.033,568.242,569.986c361.487,22.887,678.382-280.232,645.869-666.858
	c53.744-48.848,111.821-101.634,170.655-155.109c32.038,109.958,33.157,225.603,17.582,347.429
	c61.224,44.585,125.041,91.057,191.337,139.335c-30.012,41.283-60.054,82.607-91.585,125.979
	c-48.53-34.66-94.39-67.412-141.914-101.354c-23.085,43.55-45.051,84.99-68.744,129.687c40.548,29.672,81.215,59.431,122.859,89.904
	c-30.793,42.012-61.188,83.482-92.357,126.008c-44.503-32.064-85.646-61.707-128.991-92.937
	c-126.937,131.789-279.281,218.324-462.005,243.548c-194.067,26.79-380.548-0.824-546.292-109.026
	C245.553,1474.291,136.682,1146.557,214.087,793.408z M982.918,1358.005c-172.392-13.089-328.856-150.827-329.358-353.253
	c-0.472-190.26,158.09-364.45,382.02-351.67c42.124-41.536,81.778-80.637,120.843-119.157
	c-219.575-70.464-462.788,15.144-584.838,233.923c-101.506,181.953-83.635,460.28,129.046,629.021
	c164.402,130.435,430.833,153.172,623.804-5.493c181.018-148.837,216.805-369.886,157.025-531.545
	c-38.329,38.495-76.969,77.302-117.172,117.679C1385.975,1196.44,1195.418,1374.139,982.918,1358.005z"/>
</svg>
