<?xml version="1.0" encoding="iso-8859-1"?>
<!-- Generator: Adobe Illustrator 19.0.0, SVG Export Plug-In . SVG Version: 6.00 Build 0)  -->
<svg version="1.1" id="Layer_1" xmlns="http://www.w3.org/2000/svg" xmlns:xlink="http://www.w3.org/1999/xlink" x="0px" y="0px"
	 viewBox="0 0 2000 2000" style="enable-background:new 0 0 2000 2000;" xml:space="preserve">
<path d="M56.186,1208.408c67.041,87.574,156.465,128.879,260.464,148.088c93.044,176.07,234.504,301.236,421.125,369.4
	c221.247,80.809,443.271,65.998,643.884-54.346C1808.485,1415.492,1886.128,904,1621.338,537.889
	c-105.071-145.274-249.69-240.017-424.314-287.547c-179.561-48.876-353.257-29.588-520.158,46.781
	c-162.547,74.382-282.192,197.295-364.239,347.578C205.231,660.837,125.285,708.187,58.33,792.897
	c0-22.772-3.793-39.548,0.698-53.698c14.416-45.371,29.156-91.022,48.933-134.198c21.822-47.645,47.235-93.987,74.843-138.574
	c57.447-92.786,133.665-170.32,217.49-238.196c61.859-50.092,132.37-89.057,206.032-122.783
	c60.139-27.536,122.38-46.652,185.333-61.471c52.467-12.35,105.927-27.781,161.885-22.311c28.508,2.785,57.534,1.065,86.301,0.374
	c69.747-1.684,136.234,14.747,203.398,31.322c56.67,13.984,111.836,31.466,163.936,56.433c48.322,23.16,94.383,51.46,139.833,80.061
	c61.269,38.555,115.787,86.135,164.289,139.567c38.671,42.6,76.657,86.733,108.144,134.658
	c28.99,44.118,49.142,94.081,72.67,141.726c7.845,15.884,14.718,32.315,20.937,48.904c25.219,67.286,40.757,136.695,54.057,207.479
	c11.019,58.621,14.128,116.766,9.874,174.653c-4.678,63.694-17.438,127.022-30.062,189.832
	c-7.751,38.562-20.065,76.491-33.445,113.585c-31.12,86.25-73.8,166.348-129.8,239.492
	c-63.212,82.573-136.148,153.688-220.002,216.072c-76.664,57.037-162.324,93.937-248.157,131.232
	c-37.281,16.201-78.665,24.563-119.033,31.74c-91.864,16.323-184.57,29.897-278.025,18.425
	c-46.875-5.758-92.85-18.979-139.193-29.012c-28.616-6.196-57.75-10.875-85.574-19.655c-31.228-9.853-62.449-21.203-91.504-36.123
	c-46.587-23.93-92.433-49.689-136.745-77.592c-118.414-74.562-212.157-175.2-288.504-290.771
	c-38.303-57.987-70.366-121.192-91.555-188.449c-11.119-35.302-20.569-71.151-30.019-106.949
	C53.724,1222.414,55.819,1215.188,56.186,1208.408z M1015.75,1639.451c43.593,0,80.212,0,121.43,0c0-65.969,0-130.031,0-195.136
	c11.184-1.813,18.129-4.225,24.924-3.844c63.003,3.498,121.516-12.998,179.835-35.266c78.327-29.911,128.577-88.072,143.331-165.39
	c10.889-57.074,16.676-120.754-11.824-178.222c-25.6-51.625-66.89-84.127-123.179-97.291c-3.368-0.785-6.629-2.044-10.854-3.361
	c0-7.154,0-13.984,0-18.331c11.228-8.032,21.656-13.653,29.803-21.613c58.174-56.843,68.661-132.664,43.219-212.941
	c-6.758-21.325-18.18-43.24-33.273-59.477c-53.388-57.454-122.337-81.86-199.468-87.071c-14.92-1.008-29.472-7.406-45.903-11.774
	c0-66.962,0-127.497,0-186.981c-40.189,0-76.793,0-118.882,0c0,62.478,0,122.783,0,182.425c-32.323,0-59.024,0-90.259,0
	c0-62.651,0-121.898,0-182.865c-40.103,0-119.997,0-119.997,0v197.734c0,0-90.151-0.813-127.274,0.23
	c-37.555,1.058-108.835,0.446-108.835,0.446l-0.015,121.394l156.084,1.331c0,0-1.18,57.16-1.065,76.714
	c0.921,158.222,0.18,316.443,0.496,474.672c0.057,29.343-10.853,51.783-34.741,69.171c-30.228,0-60.103,0-96.355,0
	c-7.622,43.837-15.222,87.581-23.549,135.471c79.773,0,152.399,0,222.917,0c7.255,10.717,12.444,18.374,16.575,24.47
	c0,44.932-0.18,88.064,0.094,131.203c0.094,15.251,1.295,30.487,1.922,44.096c40.815,0,75.167,0,112.246,0
	c1.238-14.827,3.109-27.659,3.231-40.506c0.367-38.353-0.864-76.75,0.461-115.068c0.489-14.171,6.348-28.155,9.119-39.562
	c27.392,0,48.768,0,79.809,0C1015.75,1511.674,1015.75,1575.376,1015.75,1639.451z M931.256,1048.597
	c25.456,0,51.294-0.338,77.117,0.079c37.151,0.597,74.62-0.993,111.361,3.339c49.308,5.815,94.391,23.844,121.682,68.963
	c7.326,12.106,9.184,28.292,10.753,42.909c1.777,16.568,0.41,33.474,0.41,48.948c-34.323,46.234-76.937,66.682-132.449,79.37
	c-62.399,14.265-122.675,4.937-188.874,12.473C931.256,1217.686,931.256,1136.668,931.256,1048.597z M1200.6,839.067
	c-28.99,55.483-77.671,74.706-136.86,77.75c-41.499,2.13-82.81,7.895-131.52,12.768c-4.239-80.14-1.123-154.681-2.785-232.978
	c18.784-1.338,35.086-3.858,51.301-3.39c39.527,1.144,79.888-0.713,118.256,6.945c34.165,6.816,69.006,20.145,87.978,55.123
	c3.152,5.808,8.298,10.522,13.624,17.115C1200.6,796.093,1200.6,817.663,1200.6,839.067z M673.836,994.273
	c-0.619-169.6-141.754-318.279-322.172-318.271c-191.451,0.007-330.672,154.76-327.937,327.563
	c2.677,169.168,134.781,319.422,327.923,320.107C536.774,1319.518,674.505,1178.138,673.836,994.273z M606.305,1000.088
	c0.367,119.516-94.304,267.956-285.323,252.353c-121.142-9.896-226.199-115.356-227.012-252.77
	c-0.77-129.995,107.144-263.292,256.909-251.216C511.9,741.33,605.931,877.658,606.305,1000.088z M477.973,1148.097
	c3.815-13.012,8.154-27.802,12.494-42.6c-2.605-1.72-5.218-3.44-7.823-5.168c-16.834,11.609-33.661,23.218-52.194,36
	c-58.959,3.195-122.43,20.044-167.189-40.009c-32.042-64.609-27.198-129.663-0.828-194.797c0.741-0.216,2.159-0.238,2.987-0.943
	c2.555-2.188,4.981-4.549,7.291-6.996c30.739-32.581,68.74-49.768,112.951-42.815c32.56,5.124,64.349,16.201,75.404,55.008
	c2.31,8.097,14.574,13.365,27.515,24.441c0-31.632,0-53.928,0-76.7c-50.38-33.028-106.244-27.695-159.704-20.152
	c-47.594,6.715-81.148,40.016-105.625,83.746c-4.894,26.226-14.322,54.597-14.337,82.969c-0.007,28.572,9.342,57.145,14.552,85.53
	C273.301,1169.537,360.631,1195.231,477.973,1148.097z M207.671,1115.264c2.102-1.583,4.21-3.167,6.312-4.743
	c-34.165-68.509-31.509-138.861-6.312-210.35c-2.771-0.496-5.549-0.993-8.32-1.49c-8.262,7.643-16.517,15.287-19.684,18.216
	c-30.732,58.016-27.659,111.404-0.072,172.105C186.115,1095.104,196.897,1105.187,207.671,1115.264z M295.944,1049.95
	c13.732,0,26.586,0,38.757,0c8.226-9.155,15.913-17.712,22.865-25.449c0-13.782,0-26.665,0-40.275
	c-10.767-6.542-20.821-12.653-31.696-19.26c-2.231-8.773-4.642-18.288-8.658-34.086
	C295.836,972.393,280.412,1007.71,295.944,1049.95z M413.544,1047.971c11.666,0,22.232,0,39.311,0
	c-29.285-31.236-2.929-50.841,7.399-73.051c-9.486-8.522-17.604-15.812-26.385-23.7c-8.305,11.911-15.575,22.333-20.332,29.148
	C413.544,1005.356,413.544,1025.99,413.544,1047.971z M377.141,1051.123c19.252-26.759,20.915-48.429,3.858-73.044
	C372.182,1003.751,368.397,1025.537,377.141,1051.123z"/>
</svg>
