<?xml version="1.0" encoding="iso-8859-1"?>
<!-- Generator: Adobe Illustrator 19.0.0, SVG Export Plug-In . SVG Version: 6.00 Build 0)  -->
<svg version="1.1" id="Layer_1" xmlns="http://www.w3.org/2000/svg" xmlns:xlink="http://www.w3.org/1999/xlink" x="0px" y="0px"
	 viewBox="0 0 2000 2000" style="enable-background:new 0 0 2000 2000;" xml:space="preserve">
<path d="M869.939,1029.825c9.315,12.168,21.74,17.907,36.19,20.576c12.928,24.464,32.583,41.855,58.513,51.326
	c30.741,11.228,61.59,9.17,89.464-7.551c59.305-35.578,70.093-106.647,33.302-157.516c-14.599-20.185-34.693-33.349-58.956-39.953
	c-24.949-6.791-49.083-4.111-72.273,6.5c-22.585,10.335-39.209,27.413-50.609,48.294c-14.922,2.242-26.03,8.821-35.333,20.591
	c0-3.164-0.527-5.495,0.097-7.461c2.003-6.304,4.051-12.647,6.799-18.646c3.032-6.62,6.563-13.059,10.399-19.254
	c7.982-12.892,18.572-23.665,30.219-33.096c8.595-6.96,18.392-12.374,28.627-17.06c8.356-3.826,17.004-6.482,25.751-8.541
	c7.29-1.716,14.718-3.86,22.493-3.1c3.961,0.387,7.994,0.148,11.991,0.052c9.691-0.234,18.929,2.049,28.261,4.352
	c7.874,1.943,15.539,4.372,22.778,7.841c6.714,3.218,13.114,7.15,19.429,11.124c8.513,5.357,16.088,11.968,22.827,19.392
	c5.373,5.919,10.651,12.051,15.026,18.71c4.028,6.13,6.828,13.072,10.097,19.692c1.09,2.207,2.045,4.49,2.909,6.795
	c3.504,9.349,5.663,18.993,7.511,28.828c1.531,8.145,1.963,16.224,1.372,24.267c-0.65,8.85-2.423,17.649-4.177,26.376
	c-1.077,5.358-2.788,10.628-4.647,15.782c-4.324,11.984-10.254,23.113-18.035,33.276c-8.783,11.473-18.917,21.354-30.568,30.022
	c-10.652,7.925-22.554,13.052-34.48,18.234c-5.18,2.251-10.93,3.413-16.539,4.41c-12.764,2.268-25.645,4.154-38.63,2.56
	c-6.513-0.8-12.901-2.637-19.34-4.031c-3.976-0.861-8.024-1.511-11.89-2.731c-4.339-1.369-8.677-2.946-12.714-5.019
	c-6.473-3.325-12.843-6.904-19-10.781c-16.453-10.36-29.478-24.343-40.086-40.401c-5.322-8.057-9.777-16.839-12.721-26.184
	c-1.545-4.905-2.858-9.886-4.171-14.86C869.597,1031.771,869.888,1030.767,869.939,1029.825z M1003.265,1089.716
	c6.057,0,11.145,0,16.872,0c0-9.166,0-18.067,0-27.113c1.554-0.252,2.519-0.587,3.463-0.534c8.754,0.486,16.884-1.806,24.987-4.9
	c10.883-4.156,17.865-12.237,19.915-22.98c1.513-7.93,2.317-16.778-1.643-24.763c-3.557-7.173-9.294-11.689-17.115-13.518
	c-0.468-0.109-0.921-0.284-1.508-0.467c0-0.994,0-1.943,0-2.547c1.56-1.116,3.009-1.897,4.141-3.003
	c8.083-7.898,9.54-18.433,6.005-29.587c-0.939-2.963-2.526-6.008-4.623-8.264c-7.418-7.983-16.998-11.374-27.715-12.098
	c-2.073-0.14-4.095-1.029-6.378-1.636c0-9.304,0-17.715,0-25.98c-5.584,0-10.67,0-16.518,0c0,8.681,0,17.06,0,25.347
	c-4.491,0-8.201,0-12.541,0c0-8.705,0-16.937,0-25.408c-5.572,0-16.673,0-16.673,0v27.474c0,0-12.526-0.113-17.684,0.032
	c-5.218,0.147-15.122,0.062-15.122,0.062l-0.002,16.867l21.687,0.185c0,0-0.164,7.942-0.148,10.659
	c0.128,21.984,0.025,43.968,0.069,65.953c0.008,4.077-1.508,7.195-4.827,9.611c-4.2,0-8.351,0-13.388,0
	c-1.059,6.091-2.115,12.169-3.272,18.823c11.084,0,21.175,0,30.973,0c1.008,1.489,1.729,2.553,2.303,3.4
	c0,6.243-0.025,12.236,0.013,18.23c0.013,2.119,0.18,4.236,0.267,6.127c5.671,0,10.444,0,15.596,0
	c0.172-2.06,0.432-3.843,0.449-5.628c0.051-5.329-0.12-10.664,0.064-15.988c0.068-1.969,0.882-3.912,1.267-5.497
	c3.806,0,6.776,0,11.089,0C1003.265,1071.962,1003.265,1080.813,1003.265,1089.716z M991.525,1007.62
	c3.537,0,7.127-0.047,10.715,0.011c5.162,0.083,10.368-0.138,15.473,0.464c6.851,0.808,13.115,3.313,16.907,9.582
	c1.018,1.682,1.276,3.931,1.494,5.962c0.247,2.302,0.057,4.651,0.057,6.801c-4.769,6.424-10.69,9.265-18.403,11.028
	c-8.67,1.982-17.045,0.686-26.243,1.733C991.525,1031.114,991.525,1019.857,991.525,1007.62z M1028.949,978.507
	c-4.028,7.709-10.792,10.38-19.016,10.803c-5.766,0.296-11.506,1.097-18.274,1.774c-0.589-11.135-0.156-21.492-0.387-32.371
	c2.61-0.186,4.875-0.536,7.128-0.471c5.492,0.159,11.1-0.099,16.431,0.965c4.747,0.947,9.588,2.799,12.224,7.659
	c0.438,0.807,1.153,1.462,1.893,2.378C1028.949,972.536,1028.949,975.533,1028.949,978.507z M955.758,1000.072
	c-0.086-23.565-19.696-44.223-44.764-44.222c-26.601,0.001-45.945,21.503-45.565,45.513c0.372,23.505,18.727,44.382,45.563,44.477
	C936.714,1045.263,955.851,1025.619,955.758,1000.072z M946.375,1000.88c0.051,16.606-13.103,37.231-39.644,35.063
	c-16.832-1.375-31.429-16.028-31.542-35.121c-0.107-18.062,14.887-36.583,35.696-34.905
	C933.258,964.927,946.323,983.869,946.375,1000.88z M928.544,1021.445c0.53-1.808,1.133-3.863,1.736-5.919
	c-0.362-0.239-0.725-0.478-1.087-0.718c-2.339,1.613-4.677,3.226-7.252,5.002c-8.192,0.444-17.011,2.785-23.23-5.559
	c-4.452-8.977-3.779-18.016-0.115-27.066c0.103-0.03,0.3-0.033,0.415-0.131c0.355-0.304,0.692-0.632,1.013-0.972
	c4.271-4.527,9.551-6.915,15.694-5.949c4.524,0.712,8.941,2.251,10.477,7.643c0.321,1.125,2.025,1.857,3.823,3.396
	c0-4.395,0-7.493,0-10.657c-7-4.589-14.762-3.848-22.19-2.8c-6.613,0.933-11.275,5.56-14.676,11.636
	c-0.68,3.644-1.99,7.586-1.992,11.528c-0.001,3.97,1.298,7.94,2.022,11.884C900.106,1024.424,912.24,1027.994,928.544,1021.445z
	 M890.987,1016.883c0.292-0.22,0.585-0.44,0.877-0.659c-4.747-9.519-4.378-19.294-0.877-29.227
	c-0.385-0.069-0.771-0.138-1.156-0.207c-1.148,1.062-2.295,2.124-2.735,2.531c-4.27,8.061-3.843,15.479-0.01,23.913
	C887.992,1014.082,889.49,1015.483,890.987,1016.883z M903.252,1007.808c1.908,0,3.694,0,5.385,0
	c1.143-1.272,2.211-2.461,3.177-3.536c0-1.915,0-3.705,0-5.596c-1.496-0.909-2.893-1.758-4.404-2.676
	c-0.31-1.219-0.645-2.541-1.203-4.736C903.237,997.032,901.094,1001.939,903.252,1007.808z M919.592,1007.533
	c1.621,0,3.089,0,5.462,0c-4.069-4.34-0.407-7.064,1.028-10.15c-1.318-1.184-2.446-2.197-3.666-3.293
	c-1.154,1.655-2.164,3.103-2.825,4.05C919.592,1001.612,919.592,1004.479,919.592,1007.533z M914.534,1007.971
	c2.675-3.718,2.906-6.729,0.536-10.149C913.845,1001.389,913.319,1004.416,914.534,1007.971z"/>
</svg>
