<?xml version="1.0" encoding="iso-8859-1"?>
<!-- Generator: Adobe Illustrator 19.0.0, SVG Export Plug-In . SVG Version: 6.00 Build 0)  -->
<svg version="1.1" id="Layer_1" xmlns="http://www.w3.org/2000/svg" xmlns:xlink="http://www.w3.org/1999/xlink" x="0px" y="0px"
	 viewBox="0 0 2000 2000" style="enable-background:new 0 0 2000 2000;" xml:space="preserve">
<path d="M1950.822,657.789c-36.319,0-70.965,0-108.646,0c-112.045-243.709-295.363-412.183-552.218-495.782
	c-186.943-60.845-376.051-59.577-562.173,3.896C338.37,298.706,94.298,661.774,121.643,1062.641
	c26.957,395.183,323.581,724.164,722,803.898c390.435,78.136,872.165-126.679,1031.095-605.556c33.53,0,68.001,0,110.454,0
	c-24.174,59.11-42.634,118.018-71.096,171.615c-187.576,353.222-484.215,541.532-882.239,551.906
	c-351.738,9.168-631.584-143.527-838.076-426.563c-111.442-152.751-167.6-326.636-176.876-516.138
	C-5.849,576.939,310.874,158.109,765.085,46.794c352.542-86.399,668.759-5.118,939.617,240.321
	c103.552,93.834,179.159,207.478,235.136,334.803c2.903,6.603,5.229,13.484,7.431,20.362
	C1948.684,646.694,1949.378,651.338,1950.822,657.789z M1690.084,509.552C1406.718,140.47,889.003,65,509.5,336.167
	c-273.04,195.096-407.107,547.372-320.052,862.425c91.76,332.079,311.464,538.268,646.069,614.472
	c367.31,83.652,747.879-94.601,925.15-425.691c21.1-39.408,37.068-81.564,56.802-125.539c-36.155,0-63.447,0-89.805,0
	c-144.544,358.881-508.028,539.674-866.136,472.317c-323.706-60.887-576.122-332.01-608.638-649.009
	c-34.344-334.815,150.916-641.123,469.227-771.232c154.327-63.081,314.128-73.506,475.747-32.372
	c216.996,55.228,379.074,183.82,488.453,375.609c31.72,0,60.085,0,99.081,0C1751.087,603.585,1724.106,553.866,1690.084,509.552z
	 M1612.552,608.741c-223.625-323.815-660.537-412.033-994.538-200.972c-282.181,178.315-402.878,533.357-283.835,834.925
	c204.895,519.052,897.599,624.144,1245.719,187.91c39.842-49.926,69.741-107.787,108.914-169.293c-38.64,0-63.424,0-87.563,0
	c-157.892,309.822-482.237,413.061-744.442,349.594c-267.654-64.785-467.921-290.553-490.328-552.999
	c-23.662-277.14,126.699-524.919,387.42-638.372c232.168-101.029,587.742-69.234,804.385,238.061
	c26.112-0.034,52.215-0.034,84.097-0.034C1630.934,638.729,1622.531,623.19,1612.552,608.741z M673.186,1433.032
	c-246.167-190.068-285.93-540.643-87.588-778.349C685.64,534.786,815.356,467.754,970.474,456.349
	c193.553-14.231,353.544,57.617,478.027,200.645c23.836,0,43.64,0,64.815,0c-123.771-195.017-423.993-327.563-717.199-218.157
	c-268.707,100.265-437.968,394.274-381.451,672.687c60.115,296.136,326.674,503.884,623.35,493.1
	c278.003-10.104,486.095-214.976,521.487-343.943c-17.03,0-33.778,0-52.142,0C1326.238,1573.968,931.072,1632.15,673.186,1433.032z"
	/>
</svg>
