<?xml version="1.0" encoding="iso-8859-1"?>
<!-- Generator: Adobe Illustrator 19.0.0, SVG Export Plug-In . SVG Version: 6.00 Build 0)  -->
<svg version="1.1" id="Layer_1" xmlns="http://www.w3.org/2000/svg" xmlns:xlink="http://www.w3.org/1999/xlink" x="0px" y="0px"
	 viewBox="0 0 500 500" enable-background="new 0 0 500 500" xml:space="preserve">
<path d="M45.492,251.25c-12.489-8.426-24.721-16.679-37.016-24.974c0.363-4.326,0.594-8.345,1.056-12.337
	c1.666-14.407,4.366-28.612,8.5-42.529c9.872-33.233,26.284-62.79,49.69-88.415c24.308-26.613,53.433-46.279,86.694-59.922
	c17.559-7.203,35.742-12.279,54.47-15.355c16.788-2.757,33.701-3.947,50.699-3.254c37.884,1.545,73.651,10.94,106.813,29.542
	c22.334,12.528,41.961,28.448,58.87,47.711c22.833,26.013,38.98,55.802,50.079,88.448c5.944,17.483,10.298,35.363,13.205,53.597
	c0.096,0.602,0.243,1.196,0.424,2.072c-13.698,8.803-28.14,16.384-42.526,24.45c14.278,8.401,28.396,16.707,42.662,25.1
	c-1.064,6.764-1.935,13.328-3.149,19.829c-4.4,23.562-11.816,46.129-22.644,67.544c-12.536,24.792-28.9,46.73-49.244,65.653
	c-31.352,29.163-68.003,48.493-109.528,58.682c-22.519,5.525-45.389,7.81-68.543,6.851c-34.391-1.423-67.102-9.551-97.768-25.345
	c-29.524-15.206-54.434-36.013-74.806-62.251c-22.987-29.605-38.155-62.98-47.331-99.135c-3-11.822-4.97-23.905-7.401-35.871
	c-0.08-0.395-0.051-0.813-0.071-1.182C20.918,263.856,33.16,257.576,45.492,251.25z M27.605,280.06
	c0.415,2.366,0.716,4.574,1.195,6.742c3.622,16.407,7.909,32.648,14.51,48.121c4.23,9.915,9.08,19.59,14.092,29.142
	c7.159,13.644,16.365,25.926,26.555,37.437c11.365,12.839,24.297,23.932,38.54,33.477c10.862,7.279,22.277,13.59,34.411,18.458
	c8.097,3.249,16.326,6.247,24.671,8.777c7.064,2.142,14.345,3.629,21.597,5.068c5.187,1.03,10.468,1.703,15.739,2.171
	c6.782,0.602,13.596,1.159,20.396,1.16c9.826,0,19.674-0.212,29.471-0.921c6.371-0.461,12.681-1.887,18.993-3.025
	c5.848-1.055,11.764-1.942,17.466-3.552c8.291-2.341,16.528-4.974,24.583-8.024c7.988-3.024,15.963-6.26,23.505-10.237
	c9.224-4.864,18.226-10.242,26.899-16.035c13.25-8.849,25.058-19.455,35.789-31.268c9.585-10.551,17.912-22.001,24.964-34.36
	c6.575-11.523,11.909-23.613,15.962-36.268c3.201-9.994,5.539-20.187,7.234-30.525c0.711-4.336,1.049-8.733,1.567-13.193
	c-18.662-11.659-37.167-23.221-56.048-35.018c20.001-11.319,39.71-22.473,59.794-33.839c-2.991-9.536-5.61-19.216-9.074-28.582
	c-4.028-10.892-8.58-21.607-13.327-32.209c-2.834-6.33-6.418-12.33-9.773-18.418c-6.543-11.873-14.38-22.879-22.971-33.331
	c-3.866-4.703-8.191-9.031-12.355-13.485c-12.054-12.894-25.773-23.757-40.945-32.704c-7.196-4.244-14.766-7.869-22.255-11.597
	c-11.063-5.507-22.834-9.151-34.779-12.036c-8.473-2.047-17.166-3.271-25.813-4.482c-5.78-0.81-11.653-1.298-17.486-1.314
	c-9.36-0.027-18.733,0.248-28.077,0.799c-5.964,0.352-11.895,1.367-17.822,2.213c-3.017,0.431-6.009,1.08-8.986,1.745
	c-5.151,1.15-10.356,2.141-15.403,3.649c-7.23,2.16-14.442,4.46-21.471,7.191c-7.396,2.874-14.728,6.012-21.792,9.614
	c-7.463,3.806-14.617,8.23-21.836,12.501c-10.106,5.98-19.358,13.164-28.015,21.041c-6.357,5.784-12.357,11.99-18.212,18.29
	c-4.611,4.961-8.958,10.201-13.073,15.584C57.882,129.464,51.156,141,45.358,153.083c-4.714,9.824-8.56,19.995-11.535,30.453
	c-1.997,7.021-3.383,14.222-4.879,21.376c-0.677,3.238-0.956,6.559-1.395,9.697c18.317,11.76,36.323,23.321,54.837,35.208
	C63.703,260.131,45.61,270.12,27.605,280.06z M247.324,216.863c-12.226-20.922-24.2-41.413-36.233-62.005
	c-10.476,0.962-20.742,1.905-31.439,2.887c17.189,28.256,34.184,56.194,51.208,84.181c-18.788,32.444-37.816,64.761-56.736,97.544
	c10.665,0.744,20.636,1.44,30.675,2.141c13.204-22.687,26.37-45.312,39.736-68.277c13.214,23.121,26.154,45.765,39.077,68.376
	c11.324-0.317,22.383-0.627,34.086-0.955c-17.628-33.389-35.083-66.453-52.537-99.514c15.832-27.577,31.749-54.927,47.586-82.71
	c-10.081-0.332-19.492-0.641-29.14-0.958C271.59,177.21,259.542,196.896,247.324,216.863z"/>
</svg>
