<?xml version="1.0" encoding="iso-8859-1"?>
<!-- Generator: Adobe Illustrator 19.0.0, SVG Export Plug-In . SVG Version: 6.00 Build 0)  -->
<svg version="1.1" id="Layer_1" xmlns="http://www.w3.org/2000/svg" xmlns:xlink="http://www.w3.org/1999/xlink" x="0px" y="0px"
	 viewBox="0 0 500 500" style="enable-background:new 0 0 500 500;" xml:space="preserve">
<path d="M191.205,331.232c0-54.122,0-107.065,0-160.965c3.023,0,5.652,0,8.281,0c18.37,0,36.748,0.314,55.109-0.099
	c14.953-0.336,28.76,3.382,41.315,10.985c16.917,10.244,28.272,25.331,32.8,44.559c4.715,20.021,4.615,40.118-3.398,59.641
	c-9.883,24.082-28.094,37.828-52.957,43.926c-8.043,1.973-16.065,1.934-24.166,1.944
	C229.509,331.248,210.829,331.232,191.205,331.232z M229.393,298.991c7.583,0,14.34,0.398,21.035-0.075
	c19.71-1.393,35.216-10.041,40.908-32.172c2.275-8.848,2.497-17.736,1.276-26.163c-2.574-17.773-9.893-30.814-28.917-36.017
	c-8.731-2.388-24.007-2.883-34.301-0.667C229.393,234.995,229.393,266.195,229.393,298.991z M367.971,194.343
	c36.58,45.799,73.159,91.599,109.512,137.114c4.337-0.333,7.598-0.584,10.635-0.817c0-53.769,0-106.747,0-159.707
	c-4.08,0-7.573,0-11.311,0c0,23.546,0,46.347,0,69.149c0,22.743,0,45.486,0,70.774c-15.18-16.304-26.494-32.668-39.099-47.923
	c-12.478-15.1-24.145-30.866-36.36-46.187c-12.41-15.567-25.055-30.946-37.729-46.571c-3.346,0.276-6.22,0.513-8.776,0.724
	c0,53.782,0,106.756,0,159.867c3.855,0,7.122,0,11.312,0c0-45.536,0-90.626,0-135.716
	C366.761,194.815,367.366,194.579,367.971,194.343z M13.073,191.493c0.183,6.973-0.873,14.043,0.727,20.698
	c13.426,0,26.185,0,39.645,0c0-7.238,0.136-13.967-0.038-20.688c-0.18-6.974,0.853-14.043-0.796-21.06c-13.108,0-25.63,0-39.577,0
	C13.035,178.039,12.896,184.77,13.073,191.493z M74.376,191.462c0.21,6.965-0.998,14.045,0.849,20.715c13.352,0,26.1,0,39.519,0
	c0-7.252,0.141-13.981-0.039-20.7c-0.186-6.968,0.88-14.034-0.822-21.038c-13.084,0-25.6,0-39.551,0
	C74.332,178.022,74.173,184.748,74.376,191.462z M74.378,250.767c0.213,6.963-1.015,14.044,0.843,20.655c13.367,0,26.123,0,39.523,0
	c0-7.268,0.152-14.001-0.042-20.723c-0.201-6.965,0.949-14.038-0.877-20.993c-13.054,0-25.572,0-39.491,0
	C74.333,237.316,74.172,244.047,74.378,250.767z M153.815,170.309c-6.652,0.206-13.416-0.92-20.228,0.923
	c0,7.294-0.248,14.104,0.071,20.888c0.311,6.624-1.493,13.475,1.384,19.842c12.842,0,25.253,0,38.628,0
	c0.658-13.866,0.167-27.035,0.366-41.696C166.617,170.266,160.21,170.111,153.815,170.309z M153.773,331.211
	c6.633-0.099,13.319,0.447,20.226-0.466c0-7.645,0.178-14.402-0.051-21.144c-0.225-6.625,1.07-13.389-0.953-19.742
	c-11.67-1.868-31.803-1.483-38.911,0.79c0,12.939,0,26.052,0,40.582C141.021,331.232,147.398,331.306,153.773,331.211z
	 M135.02,229.652c-2.109,10.688-1.889,33.845,0.155,41.031c9.198,1.983,30.644,1.794,38.332-0.48c0-12.98,0-26.12,0-40.588
	C160.202,229.503,147.489,229.402,135.02,229.652z"/>
</svg>
