<?xml version="1.0" encoding="iso-8859-1"?>
<!-- Generator: Adobe Illustrator 19.0.0, SVG Export Plug-In . SVG Version: 6.00 Build 0)  -->
<svg version="1.1" id="Layer_1" xmlns="http://www.w3.org/2000/svg" xmlns:xlink="http://www.w3.org/1999/xlink" x="0px" y="0px"
	 viewBox="0 0 500 500" enable-background="new 0 0 500 500" xml:space="preserve">
<path d="M158.669,211.582c-1.418-22.124,4.529-42.038,17.296-60.243c4.389-6.259,8.539-13.453,10.065-20.788
	c2.997-14.411-8.255-31.106-23.358-36.058c-13.521-4.433-25.572-11.156-32.592-24.947c-13.176-25.883,2.488-53.923,25.335-60.971
	c23.099-7.125,44.658,0.182,55.388,25.359c4.904,11.507,3.841,24.175-0.921,36.166c-7.774,19.577,5.22,39.748,20.311,43.811
	c4.025,1.084,8.261,2.017,12.39,1.974c24.503-0.255,45.837,7.468,63.731,24.376c16.533,15.622,36.276,19.88,57.244,12.803
	c8.73-2.946,17.176-9.857,23.201-17.089c16.228-19.478,37.146-24.074,59.936-19.278c16.301,3.431,33.602,21.834,37.151,40.072
	c4.592,23.59-2.844,42.022-21.03,56.542c-15.533,12.403-40.713,14.607-57.284,3.903c-9.195-5.94-18.809-7.08-28.782-7.455
	c-22.184-0.835-38.946,8.241-49.094,28.545c-7.72,15.448-18.165,28.803-32.591,38.454c-13.087,8.755-27.346,14.227-43.604,13.916
	c-13.686-0.261-27.046-0.5-40.188-5.731c-11.318-4.505-21.486,2.437-30.752,7.597c-13.73,7.645-18.322,21.494-20.009,36.333
	c-0.92,8.093-0.493,16.486-2.477,24.285c-6.155,24.189-21.962,39.304-45.967,45.959c-4.087,1.133-8.033,3.082-12.18,3.637
	c-25.267,3.379-57.41-13.551-69.708-39.14c-16.137-33.576-1.772-73.224,28.493-90.022c15.146-8.406,31.912-12.149,49.567-7.453
	c16.745,4.454,30.115-1.965,41.283-13.948c7.188-7.712,10.381-17.118,9.754-27.736C159.022,220.166,158.868,215.873,158.669,211.582
	z M246.489,339.982c-40.245-0.497-75.967,33.926-75.491,76.08c0.485,42.886,35.194,74.366,75.474,75.127
	c35.414,0.669,76.937-31.541,74.363-74.503C320.836,373.233,288.694,340.504,246.489,339.982z M470.503,335.09
	c0.16-37.172-29.623-66.871-67.432-67.241c-35.165-0.343-64.822,29.764-66.487,64.647c-1.67,34.988,27.383,69.658,66.219,69.22
	C440.573,401.962,470.341,372.666,470.503,335.09z M64.518,221.721c30.882-0.712,52.998-21.631,53.321-52.441
	c0.301-28.717-22.505-51.217-50.969-51.883c-33.014-0.772-55.033,29.245-52.701,52.595C13.998,197.184,37.637,222.34,64.518,221.721
	z M325.098,5.536c-29.316,0.951-43.782,22.527-44.132,44.025c-0.325,19.961,15.738,43.358,44.547,43.258
	c24.361-0.084,42.493-18.542,42.502-43.062C370.487,24.361,347.285,4.816,325.098,5.536z"/>
</svg>
