<?xml version="1.0" encoding="iso-8859-1"?>
<!-- Generator: Adobe Illustrator 19.0.0, SVG Export Plug-In . SVG Version: 6.00 Build 0)  -->
<svg version="1.1" id="Layer_1" xmlns="http://www.w3.org/2000/svg" xmlns:xlink="http://www.w3.org/1999/xlink" x="0px" y="0px"
	 viewBox="0 0 500 500" style="enable-background:new 0 0 500 500;" xml:space="preserve">
<path id="XMLID_4_" d="M251.843,487.58C107.599,407.915,10.516,242.11,14.242,76.336C159.126-10.621,350.603-6.48,487.937,75.589
	C495.455,218.217,412.879,396.525,251.843,487.58z M34.934,90.788c0.654,12.804,0.73,24.609,1.983,36.288
	c1.649,15.37,4.524,30.605,6.33,45.961c3.016,25.639,16.388,44.958,36.282,60.217c23.146,17.753,49.64,24.165,78.104,19.272
	c28.469-4.894,51.031-20.025,67.366-44.143c10.082-14.886,15.589-31.53,16.734-49.147c0.895-13.777,1.226-27.345,5.461-40.736
	c10.533-33.31,30.828-58.008,62.342-73.318c3.962-1.925,7.959-3.778,13.65-6.474C219.963,23.098,124.848,40.256,34.934,90.788z
	 M371.11,363.915c63.852-81.49,96.879-171.575,96.551-273.59c-26.603-14.773-52.896-27.619-81.345-35.33
	c-7.95-2.155-16.522-3.823-24.619-3.209c-12.453,0.944-24.892,2.657-36.853,7.51c-42.622,17.289-62.62,54.583-64.062,93.183
	c-0.511,13.662,3.099,27.31,8.455,40.151c8.977,21.522,24.298,37.394,44.247,49.002c18.077,10.519,32.142,24.876,42.383,43.113
	c9.881,17.596,16.278,36.036,15.296,56.573C370.834,348.172,371.11,355.056,371.11,363.915z M251.372,464.854
	c29.886-16.885,55.442-36.914,79.738-58.637c1.908-1.706,3.709-3.695,5.021-5.877c12.534-20.833,18.956-43.403,15.658-67.625
	c-6.63-48.693-41.236-83.462-92.399-88.719c-20.42-2.098-39.979,2.856-58.001,13.144c-11.836,6.757-24.521,11.56-37.885,14.011
	c-31.962,5.863-61.768,0.086-89.128-17.673c-2.404-1.561-4.909-2.967-7.366-4.445C103.749,342.807,165.78,413.999,251.372,464.854z"
	/>
</svg>
