<?xml version="1.0" encoding="iso-8859-1"?>
<!-- Generator: Adobe Illustrator 19.0.0, SVG Export Plug-In . SVG Version: 6.00 Build 0)  -->
<svg version="1.1" id="Layer_1" xmlns="http://www.w3.org/2000/svg" xmlns:xlink="http://www.w3.org/1999/xlink" x="0px" y="0px"
	 viewBox="0 0 2000 2000" style="enable-background:new 0 0 2000 2000;" xml:space="preserve">
<path d="M999.746,1976.125c0-654.42,0-1304.418,0-1957.618c32.483-9.225,62.674,0.828,89.103,13.928
	c55.308,27.416,108.527,59.113,162.155,89.834c56.033,32.099,111.284,65.564,167.337,97.629
	c81.104,46.396,162.711,91.911,243.918,138.127c33.833,19.255,66.854,39.948,100.831,58.937
	c85.055,47.535,124.853,121.147,124.995,217.015c0.367,246.376,1.001,492.757-0.365,739.125
	c-0.463,83.373-37.996,150.875-109.92,192.93c-177.489,103.781-356.801,204.443-535.276,306.541
	c-40.757,23.316-80.005,49.555-121.952,70.421C1083.991,1961.191,1047.514,1984.903,999.746,1976.125z M763.478,114.433
	c-21.075,11.552-38.538,21.124-56.036,30.716c-2.151,3.56-6.123,7.064-6.125,10.57c-0.274,559.605-0.263,1119.211-0.263,1682.808
	c17.455,11.245,38.18,24.598,62.424,40.217C763.478,1287.752,763.478,702.327,763.478,114.433z M912.825,27.229
	c-25.906,16.292-46.639,29.331-63.737,40.084c0,622.446,0,1237.988,0,1856.276c18.844,11.671,39.012,24.162,63.737,39.476
	C912.825,1317.439,912.825,676.327,912.825,27.229z M616.951,1792.233c0-532.967,0-1060.288,0-1593.276
	c-24.52,14.234-45.962,26.681-65.865,38.234c0,508.372,0,1012.97,0,1518.253C572.106,1767.185,592.409,1778.525,616.951,1792.233z
	 M403.171,1670.069c18.207,10.364,35.696,20.502,53.412,30.224c2.987,1.639,6.959,1.483,9.824,2.032c0-472.074,0-942.903,0-1419.302
	c-24.668,15.264-43.889,27.158-63.236,39.129C403.171,773.882,403.171,1221.247,403.171,1670.069z M318.378,369.123
	c-21.414,11.706-42.101,23.014-63.7,34.82c0,392.467,0,784.76,0,1182.036c18.635,10.036,39.071,21.042,63.7,34.307
	C318.378,1200.323,318.378,785.348,318.378,369.123z M113.805,603.246c-0.177,131.223-0.061,262.446-0.061,393.668
	s-0.914,262.455,0.48,393.663c0.51,48.046,18.711,90.728,55.949,132.039c0-354.392,0-701.763,0-1056.124
	C135.367,510.405,113.874,552.435,113.805,603.246z"/>
</svg>
