<?xml version="1.0" encoding="iso-8859-1"?>
<!-- Generator: Adobe Illustrator 19.0.0, SVG Export Plug-In . SVG Version: 6.00 Build 0)  -->
<svg version="1.1" id="Layer_1" xmlns="http://www.w3.org/2000/svg" xmlns:xlink="http://www.w3.org/1999/xlink" x="0px" y="0px"
	 viewBox="0 0 2000 2000" style="enable-background:new 0 0 2000 2000;" xml:space="preserve">
<path d="M34.758,923.528c3.538-211.675,103.472-448.51,305.506-638.665c189.666-178.515,418.1-266.354,678.279-261.656
	c271.266,4.898,502.906,107.909,689.05,305.49c187.263,198.769,272.764,438.094,260.63,710.063
	c-10.88,243.885-103.802,455.684-274.966,629.09c-199.257,201.867-444.139,297.764-727.939,290.041
	c-133.299-3.627-260.624-35.921-380.993-93.503c-175.703-84.054-313.279-210.811-413.37-377.388
	C79.134,1334.187,33.885,1167.913,34.758,923.528z M121.3,1071.503c3.491,200.251,114.749,432.463,333.352,609.681
	c151.959,123.191,329.656,186.891,525.795,190.399c512.178,9.159,888.041-396.393,901.828-847.828
	c8.023-262.698-83.294-487.933-272.357-669.998c-167.276-161.084-370.486-244.08-602.723-244.224
	C714.4,109.351,479.284,232.738,296.547,459.358C183.768,618.018,119.983,792.884,121.3,1071.503z M478.651,412.919
	c-12.253-7.202-23.853-14.021-35.731-21.002c-0.26-3.253-0.516-6.448-0.754-9.428c92.962-85.777,200.105-145.806,321.075-183.618
	c0,17.039,0,32.724,0,49.646c159.151,60.589,317.855,60.482,477.202-0.064c0-16.934,0-32.57,0-48.365
	c79.119,19.725,215.382,81.624,327.296,188.101c-13.767,8.136-27.222,16.087-42.012,24.828
	c26.825,167.701,105.772,304.978,238.334,412.758c14.214-8.06,28.17-15.974,43.347-24.58c28.85,126.912,28.66,252.17,0.123,379.084
	c-14.761-8.288-28.707-16.119-43.286-24.305c-61.446,47.857-111.995,105.888-152.445,172.779
	c-44.746,73.994-73.33,153.754-85.357,239.677c14.104,8.312,27.437,16.169,40.909,24.108
	c-63.34,70.774-253.057,180.597-326.39,188.92c0-15.655,0-31.25,0-48.037c-159.382-61.051-318.126-61.277-477.744-0.209
	c0,8.779,0,16.744,0,24.709c0,7.658,0,15.316,0,24.875c-123.386-39.027-232.509-99.8-326.886-189.732
	c14.337-8.441,28.242-16.628,42.131-24.806c-27.475-168.486-106.434-306.028-238.664-413.266
	c-14.661,8.356-28.507,16.248-42.701,24.338c-28.391-122.925-30.289-244.261-0.07-377.386c13.679,7.748,27.029,15.31,42.657,24.162
	C372.075,719.516,451.246,581.887,478.651,412.919z M1639.91,989.198c-1.479-353.231-283.336-623.699-609.797-635.538
	c-385.438-13.979-657.388,291.568-665.87,615.977c-9.84,376.369,289.209,656.593,631.228,659.33
	C1354.458,1631.84,1640.732,1342.397,1639.91,989.198z M1027.506,1573.796c-348.784,0.786-621.482-266.913-608.945-607.031
	c11.265-305.6,264.886-560.753,583.6-559.273c167.353,0.777,309.333,62.589,423.911,183.254
	c110.689,116.569,163.08,257.807,159.214,418.378c-2.338,97.091-28.844,188.52-77.904,272.748
	c-53.502,91.854-126.546,164.576-219.034,216.807C1199.746,1548.713,1104.249,1574.507,1027.506,1573.796z M1238.678,989.296
	c0-33.346,0.362-66.696-0.105-100.035c-0.441-31.519-13.335-57.529-40.146-74.189c-34.777-21.609-72.793-23.313-111.669-12.574
	c-33.392,9.224-56.518,29.763-64.853,63.785c-3.968,16.199-5.616,33.345-5.63,50.065c-0.05,59.096,0.505,118.206,1.981,177.283
	c0.662,26.507,10.733,50.067,32.937,65.927c40.255,28.753,84.737,31.819,129.955,15.318c35.505-12.956,54.901-41.226,57.08-78.506
	C1240.307,1060.792,1238.676,1024.998,1238.678,989.296z M981.371,1175.39c0-66.349,0-131.999,0-198.037
	c-37.825,0-75.067,0-111.61,0c0,18.998,0,37.418,0,56.459c6.463,0,11.703,0,17.839,0c0,20.622,0.142,40.592-0.096,60.558
	c-0.062,5.231-0.953,10.525-2.088,15.652c-1.855,8.374-8.977,10.806-15.982,11.074c-6.295,0.241-11.263-3.402-12.084-10.691
	c-0.439-3.899-1.762-7.759-1.767-11.638c-0.109-72.195-0.11-144.39,0.002-216.585c0.006-3.855,1.008-7.752,1.886-11.552
	c1.82-7.883,7.227-10.61,14.841-9.661c7.573,0.945,10.887,5.959,11.195,12.963c0.849,19.294,1.431,38.6,2.071,57.902
	c0.119,3.59,0.017,7.187,0.017,10.346c32.75,0,64.526,0,97.529,0c-1.099-20.138-1.935-39.679-3.284-59.183
	c-1.961-28.356-13.869-51.123-38.586-66.306c-40.625-24.956-83.561-26.79-126.911-9.738c-26.454,10.405-46.573,29.118-52.314,58.634
	c-2.897,14.894-4.35,30.255-4.617,45.437c-0.645,36.755-0.459,73.53-0.126,110.293c0.238,26.309,0.551,52.657,2.273,78.894
	c0.694,10.575,3.794,21.571,8.293,31.211c14.534,31.139,40.268,47.868,73.849,52.043c22.24,2.765,43.017-1.704,59.572-18.34
	c3.909-3.928,7.189-8.484,11.197-13.275c3.193,8.317,6.053,15.77,9.036,23.539C941.415,1175.39,961.007,1175.39,981.371,1175.39z
	 M514.885,805.088c-0.174,1.674-0.542,2.725-0.341,3.653c8.941,41.358,17.826,82.73,26.965,124.045
	c4.261,19.264,9.161,38.045,4.73,58.385c-6.295,28.902-10.785,58.208-15.651,87.407c-5.354,32.13-10.26,64.335-15.433,96.956
	c30.85,0,61.826,0,94.025,0c6.222-41.264,12.472-82.722,18.856-125.059c9.524,42.534,18.885,84.338,27.935,124.754
	c32.126,0,61.295,0,91.173,0c-14.691-59.012-29.273-116.972-43.45-175.031c-2.947-12.068-7.883-25.099-5.903-36.658
	c6.806-39.73,16.376-78.982,24.668-118.463c2.734-13.019,4.786-26.182,7.2-39.562c-28.355,0-55.226,0-81.64,0
	c-6.55,31.655-12.929,62.488-19.843,95.903c-6.93-34.016-13.261-65.09-19.625-96.329
	C577.104,805.088,546.431,805.088,514.885,805.088z M1488.592,1175.485c-0.431-2.383-0.68-4.332-1.143-6.229
	c-13.659-55.893-27.475-111.749-40.915-167.695c-3.056-12.722-8.496-26.354-6.507-38.533c6.449-39.488,15.864-78.49,24.085-117.69
	c2.774-13.229,5.396-26.49,8.133-39.961c-28.87,0-55.802,0-82.091,0c-6.491,31.858-12.834,62.991-19.697,96.675
	c-6.943-34.124-13.324-65.487-19.68-96.726c-31.782,0-62.719,0-93.648,0c-0.152,1.562-0.51,2.613-0.308,3.542
	c8.421,38.775,17.253,77.466,25.189,116.339c3.481,17.05,8.586,34.811,6.927,51.655c-3.632,36.868-11.019,73.373-17.056,109.996
	c-4.817,29.222-9.906,58.398-15.04,88.57c31.446,0,62.328,0,94.466,0c6.241-41.346,12.487-82.721,18.926-125.379
	c9.477,42.758,18.679,84.275,27.803,125.436C1429.557,1175.485,1458.899,1175.485,1488.592,1175.485z M1114.297,1085.547
	c0.001,7.017-0.675,14.123,0.216,21.026c0.993,7.688,4.694,14.587,13.757,14.44c8.993-0.146,13.809-5.656,14.276-14.738
	c0.531-10.328,1.592-20.658,1.525-30.981c-0.423-64.42-1.056-128.839-1.779-193.256c-0.051-4.546-0.19-9.838-2.459-13.399
	c-2.223-3.489-7.429-7.457-10.949-7.132c-4.349,0.402-9.78,4.159-12.042,8.04c-2.463,4.227-2.423,10.255-2.45,15.503
	c-0.184,35.421-0.096,70.842-0.096,106.264C1114.295,1022.724,1114.294,1054.136,1114.297,1085.547z"/>
</svg>
