<?xml version="1.0" encoding="iso-8859-1"?>
<!-- Generator: Adobe Illustrator 19.0.0, SVG Export Plug-In . SVG Version: 6.00 Build 0)  -->
<svg version="1.1" id="Layer_1" xmlns="http://www.w3.org/2000/svg" xmlns:xlink="http://www.w3.org/1999/xlink" x="0px" y="0px"
	 viewBox="0 0 500 500" enable-background="new 0 0 500 500" xml:space="preserve">
<path d="M495.737,248.796c0.133,135.106-110,245.413-245.283,245.67C114.658,494.724,4.15,384.64,4,248.957
	C3.85,113.242,114.27,2.636,249.789,2.757C385.697,2.878,495.604,112.825,495.737,248.796z M122.773,347.187
	c42.709,37.755,85.293,75.4,128.122,113.262c43.561-38.555,85.979-76.098,127.756-113.074c0-91.328,0-181.61,0-272.101
	c-85.578,0-170.566,0-255.879,0C122.773,166.051,122.773,256.09,122.773,347.187z M364.765,340.599
	c-37.325,33.088-75.133,66.604-113.878,100.951c-38.39-33.979-76.601-67.8-114.45-101.299c0-84.169,0-167.353,0-251.322
	c76.104,0,151.751,0,228.328,0C364.765,172.188,364.765,255.578,364.765,340.599z M272.175,116.116c0,22.127,0,43.158,0,64.601
	c-13.159,8.302-26.131,16.486-40.886,25.795c0-31.473,0-60.719,0-90.086c-23.233,0-45.36,0-67.756,0c0,70.073,0,139.357,0,208.868
	c29.069,25.697,58.084,51.345,87.736,77.558c30.265-26.719,59.57-52.59,88.438-78.076c0-69.761,0-138.965,0-208.66
	C317.179,116.116,295.299,116.116,272.175,116.116z M325.98,206.346c0-25.556,0-50.609,0-75.935c-13.717,0-26.759,0-40.584,0
	c0,19.755,0,38.762,0,58.457c-18.081,11.639-35.932,23.131-53.403,34.377c0,14.175,0,27.583,0,42.596
	C264.09,245.524,295.086,225.903,325.98,206.346z M177.669,240.5c14.219-8.984,27.204-17.189,39.739-25.109
	c0-28.929,0-56.853,0-85.222c-13.533,0-26.317,0-39.739,0C177.669,167.218,177.669,203.128,177.669,240.5z M285.833,320.877
	c13.618,0,26.666,0,40.234,0c0-32.287,0-64.016,0-97.518c-14.17,8.926-27.133,17.091-40.234,25.343
	C285.833,272.84,285.833,296.607,285.833,320.877z M217.393,232.369c-14.231,9.005-27.232,17.233-39.621,25.073
	c0,21.938,0,42.752,0,63.724c13.47,0,26.04,0,39.621,0C217.393,291.463,217.393,262.665,217.393,232.369z M195.92,334.527
	c19.36,17.123,37.271,32.963,55.39,48.989c18.386-16.256,35.785-31.639,55.408-48.989
	C269.063,334.527,233.589,334.527,195.92,334.527z M232.227,320.871c13.522,0,26.28,0,39.269,0c0-20.902,0-41.241,0-62.964
	c-13.813,8.7-26.547,16.721-39.269,24.735C232.227,296.182,232.227,308.582,232.227,320.871z"/>
</svg>
