<?xml version="1.0" encoding="iso-8859-1"?>
<!-- Generator: Adobe Illustrator 19.0.0, SVG Export Plug-In . SVG Version: 6.00 Build 0)  -->
<svg version="1.1" id="Layer_1" xmlns="http://www.w3.org/2000/svg" xmlns:xlink="http://www.w3.org/1999/xlink" x="0px" y="0px"
	 viewBox="0 0 2000 2000" style="enable-background:new 0 0 2000 2000;" xml:space="preserve">
<path d="M1973.445,217.609c4.534,26.41,10.542,45.147,10.562,63.891c0.516,482.018,0.494,964.037,0.292,1446.056
	c-0.023,55.88-18.381,67.532-69.041,45.45c-92.131-40.16-183.874-81.235-276.458-120.317
	c-40.087-16.922-55.564-43.731-55.453-87.511c0.947-373.69,0.613-747.386-0.58-1121.076c-0.121-38.014,7.847-67.618,44.563-83.853
	c98.481-43.544,196.932-87.16,295.694-130.061C1935.64,224.706,1950.028,223.298,1973.445,217.609z M11.687,1718.964
	c0.053,69.855,16.988,79.752,80.505,47.151c89.461-45.917,178.064-93.56,268.289-137.912c39.383-19.36,53.057-46.605,52.907-89.882
	c-1.267-366.237-1.537-732.484,0.348-1098.716c0.225-43.689-17.316-66.958-53.19-82.87c-91.841-40.737-183.528-81.83-275.66-121.899
	c-58.182-25.304-73.151-14.905-73.205,49.836c-0.2,239.95-0.08,479.9-0.071,719.851
	C11.618,1242.669,11.507,1480.817,11.687,1718.964z M1410.174,1019.195c0-61.373-1.164-122.776,0.459-184.106
	c0.901-34.024-9.576-56.94-40.725-74.451c-108.084-60.76-213.991-125.444-322.874-184.689
	c-19.034-10.357-53.289-10.589-72.247-0.286c-107.33,58.334-213.393,119.312-316.79,184.315
	c-21.47,13.497-41.499,47.386-42.335,72.537c-4.074,122.587-3.71,245.481,0.761,368.06c0.923,25.295,19.853,59.509,41.04,72.863
	c101.764,64.141,206.016,124.66,312.16,181.26c22.447,11.97,62.045,12.485,84.295,0.598
	c107.632-57.501,213.149-119.263,316.614-183.993c19.634-12.283,35.563-44.024,37.663-68.141
	c5.304-60.911,1.758-122.593,1.758-183.966C1410.027,1019.195,1410.1,1019.195,1410.174,1019.195z"/>
</svg>
