<?xml version="1.0" encoding="iso-8859-1"?>
<!-- Generator: Adobe Illustrator 19.0.0, SVG Export Plug-In . SVG Version: 6.00 Build 0)  -->
<svg version="1.1" id="Layer_1" xmlns="http://www.w3.org/2000/svg" xmlns:xlink="http://www.w3.org/1999/xlink" x="0px" y="0px"
	 viewBox="0 0 2000 2000" style="enable-background:new 0 0 2000 2000;" xml:space="preserve">
<path d="M1184.302,948.559c152.862-218.485,304.663-435.454,459.583-656.881c7.109,11.859,13.451,20.215,17.522,29.56
	c81.711,187.566,163.151,375.249,244.669,562.899c22.523,51.847,45.12,103.663,68.38,157.094
	c-100.253,206.881-200.735,414.235-303.145,625.568C1508.174,1426.204,1346.962,1188.449,1184.302,948.559z M421.791,403.639
	C289.442,592.772,159.07,779.08,28.507,965.659c117.365,194.849,233.793,388.143,350.895,582.555
	c139.433-199.818,277.315-397.414,415.8-595.874C670.434,769.001,546.685,587.161,421.791,403.639z M1337.574,1793.92
	c-120.244-181.342-238.528-359.726-356.883-538.218c-26.635,39.9-53.103,80.761-80.776,120.789
	c-104.133,150.627-208.581,301.037-313.229,451.307c-6.209,8.916-15.196,15.898-23.942,24.858
	c24.806,41.158,50.981,84.589,79.288,131.555C874.775,1920.535,1105.317,1857.462,1337.574,1793.92z M1309.923,195.297
	C1104.428,133.208,901.502,71.895,697.266,10.186c-27.699,39.611-54.685,78.202-83.035,118.743
	c11.044,1.352,19.177,2.347,28.375,3.473c115.997,174.992,231.867,349.793,347.963,524.933
	C1096.883,503.521,1203.066,349.897,1309.923,195.297z"/>
</svg>
