<?xml version="1.0" encoding="iso-8859-1"?>
<!-- Generator: Adobe Illustrator 19.0.0, SVG Export Plug-In . SVG Version: 6.00 Build 0)  -->
<svg version="1.1" id="Layer_1" xmlns="http://www.w3.org/2000/svg" xmlns:xlink="http://www.w3.org/1999/xlink" x="0px" y="0px"
	 viewBox="0 0 2000 2000" style="enable-background:new 0 0 2000 2000;" xml:space="preserve">
<path d="M997.763,1975.045C486.954,1988.515-7.988,1545.285,22.769,941.801C46.708,472.094,453.753-5.562,1057.55,23.66
	c469.563,22.726,947.748,431.797,917.623,1035.073C1951.165,1539.518,1538.028,1984.456,997.763,1975.045z M951.787,439.335
	c0,16.284,0,29.632,0,42.98c-0.001,234.542,1.353,469.1-1.277,703.613c-0.462,41.181-10.075,86-28.57,122.496
	c-44.8,88.409-120.745,135.734-221.879,140.239c0,41.707,0,82.616,0,129.656c39.909-8.31,76.053-14.052,111.212-23.47
	c140.542-37.648,260.044-184.38,262.191-328.59c3.14-210.811,1.941-421.686,2.675-632.533c0.03-8.668,0.918-17.332,1.573-28.977
	c48.139,0,94.204,1.1,140.134-0.903c9.489-0.414,25.831-11.77,26.435-19.117c2.828-34.391,1.256-69.145,1.256-105.394
	C1147.414,439.335,1052.036,439.335,951.787,439.335z"/>
</svg>
