<?xml version="1.0" encoding="iso-8859-1"?>
<!-- Generator: Adobe Illustrator 19.0.0, SVG Export Plug-In . SVG Version: 6.00 Build 0)  -->
<svg version="1.1" id="Layer_1" xmlns="http://www.w3.org/2000/svg" xmlns:xlink="http://www.w3.org/1999/xlink" x="0px" y="0px"
	 viewBox="0 0 500 500" style="enable-background:new 0 0 500 500;" xml:space="preserve">
<path id="XMLID_4_" d="M340.092,485.748c-4.562-36.443-18.186-66.788-43.055-93.288c-14.785,18.734-31.081,17.572-47.017,5.406
	c-11.463,13.577-21.522,27.398-33.535,39.238c-15.065,14.848-32.467,26.4-53.772,31.594c-27.087,6.604-49.133-10.175-50.338-38.035
	c-1.72-39.78,15.001-72.333,37.861-102.815c-19.809-19.089-20.944-23.516-11.24-45.372c-32.673-14.73-66.213-16.51-100.753-6.364
	c-0.509-0.871-1.018-1.742-1.527-2.614c4.49-6.084,8.503-12.6,13.551-18.178c24.641-27.23,52.395-50.345,89.126-58.808
	c13.237-3.05,27.353-2.697,41.086-2.984c5.974-0.125,9.514-1.152,12.834-6.803c18.259-31.088,36.163-62.457,56.066-92.486
	c17.116-25.824,42.885-42.144,70.73-54.755c25.448-11.525,52.364-18.504,79.884-22.906c9.627-1.54,19.497-1.565,29.258-2.25
	c10.179-0.715,17.512,3.753,19.807,13.562c4.612,19.712,9.044,39.524,12.13,59.515c2.015,13.053,2.234,26.503,2.038,39.757
	c-0.69,46.777-14.422,88.613-46.581,123.863c-16.985,18.618-32.621,38.486-48.406,58.16c-2.19,2.729-3.574,8.466-2.213,11.328
	c18.618,39.167,16.68,78.376,0.57,117.46c-5.456,13.238-12.632,25.783-19.335,38.48
	C345.462,479.861,342.513,482.665,340.092,485.748z M448.157,115.26c1.134-24.799-3.47-51.621-11.309-78.056
	c-1.705-5.748-4.178-7.851-10.326-7.778c-27.69,0.329-54.239,6.513-80.119,15.549c-41.645,14.54-76.699,37.665-98.718,77.538
	c-10.309,18.667-21.833,36.658-32.378,55.199c-21.396,37.618-42.603,75.345-63.66,113.154c-6.144,11.031-4.699,15.745,5.38,22.99
	c16.83,12.099,33.589,24.298,50.466,36.331c17.134,12.217,34.318,24.368,51.592,36.387c9.923,6.904,16.829,7.241,22.798,0.701
	c9.381-10.28,18.388-20.906,27.422-31.497c20.923-24.53,41.902-49.014,62.6-73.733c15.999-19.108,32.387-37.965,47.206-57.969
	C442.327,192.731,449.157,156.365,448.157,115.26z M394.717,159.591c1.618,31.572-25.896,61.973-61.385,61.735
	c-35.389-0.238-62.125-30.725-60.904-63.291c1.231-32.833,27.958-60.142,61.55-59.753C367.377,98.67,395.507,125.42,394.717,159.591
	z M333.53,206.884c25.001,0.038,46.68-21.71,46.791-46.939c0.112-25.587-20.356-45.876-45.559-46.642
	c-25.731-0.782-47.494,19.476-47.929,46.4C286.431,184.61,308.801,206.846,333.53,206.884z"/>
</svg>
