<?xml version="1.0" encoding="utf-8"?>
<!-- Generator: Adobe Illustrator 25.1.0, SVG Export Plug-In . SVG Version: 6.00 Build 0)  -->
<svg version="1.1" id="Layer_1" xmlns="http://www.w3.org/2000/svg" xmlns:xlink="http://www.w3.org/1999/xlink" x="0px" y="0px"
	 viewBox="0 0 500 500" style="enable-background:new 0 0 500 500;" xml:space="preserve">
<style type="text/css">
	.st0{fill-rule:evenodd;clip-rule:evenodd;}
</style>
<g>
	<path class="st0" d="M94,390.1c-14.5-23.9-45.7-31.5-69.6-17c-3.8,2.3-7.2,5.1-10.2,8.1c0.1-0.2,0.2-0.4,0.3-0.6
		C5.5,389.9,0.2,402.4,0,415.5c-0.2,12.6,4.3,24.3,11.8,33.2c0.1,0.1,0.2,0.3,0.3,0.4c0.3,0.4,0.7,0.8,1,1.1c0.3,0.4,0.6,0.7,1,1.1
		c0.1,0.1,0.3,0.3,0.4,0.4c16,16.4,41.8,20.4,62.3,8c24-14.4,31.7-45.5,17.3-69.5C94.1,390.2,94.1,390.1,94,390.1z"/>
	<path class="st0" d="M499.5,410.5c-0.9-6.9-3.1-13.6-6.5-19.7l-64.4-117.4L316.3,67.9C295.6,30,248,16,210,36.8
		c-13.1,7.2-23.9,18-31.1,31.1L59.5,286.4h0l-7.4,13.5c-1.2,2.4-2.1,4.9-2.7,7.4c-0.6,2.5-0.8,5.1-0.8,7.6
		c0.3,11.1,6.5,21.8,17.1,27.2c2.4,1.2,5,2.2,7.7,2.7c8.3,1.9,18,2.6,28.7,2.6c25.9,0,57.9-4.1,90.9-4.1c26.1,0,52.8,2.6,77.5,11.9
		c2.1,0.8,4.1,1.6,6.1,2.4c0.6,0.3,1.2,0.5,1.9,0.8c1.4,0.6,2.7,1.2,4.1,1.8c0.7,0.3,1.4,0.7,2.2,1c1.2,0.6,2.4,1.1,3.6,1.7
		c0.8,0.4,1.5,0.7,2.2,1.1c1.1,0.6,2.2,1.1,3.3,1.7c0.8,0.4,1.5,0.8,2.2,1.2c1.1,0.6,2.1,1.1,3.2,1.7c0.7,0.4,1.5,0.8,2.2,1.3
		c1,0.6,2,1.2,3,1.8c0.7,0.4,1.5,0.9,2.2,1.3c1,0.6,1.9,1.2,2.9,1.8c0.7,0.5,1.5,0.9,2.2,1.4c0.9,0.6,1.8,1.2,2.7,1.8
		c0.7,0.5,1.4,1,2.2,1.5c0.9,0.6,1.7,1.2,2.6,1.8c0.7,0.5,1.5,1,2.2,1.6c0.8,0.6,1.6,1.2,2.4,1.7c0.8,0.6,1.5,1.1,2.3,1.7
		c0.7,0.5,1.4,1.1,2.1,1.6c0.8,0.6,1.6,1.3,2.5,1.9c0.5,0.4,0.9,0.8,1.4,1.1c14.9,11.9,27.8,24.6,40.2,36.6
		c14.9,14.8,28.3,28,42.6,36.3c8.8,5.7,19.1,8.8,29.6,8.8h0.2c0.3,0,0.6,0,1,0c2,0,4-0.1,6.1-0.3C482,468.4,503.4,440.8,499.5,410.5
		z"/>
</g>
</svg>
