<?xml version="1.0" encoding="iso-8859-1"?>
<!-- Generator: Adobe Illustrator 19.0.0, SVG Export Plug-In . SVG Version: 6.00 Build 0)  -->
<svg version="1.1" id="Layer_1" xmlns="http://www.w3.org/2000/svg" xmlns:xlink="http://www.w3.org/1999/xlink" x="0px" y="0px"
	 viewBox="0 0 500 500" enable-background="new 0 0 500 500" xml:space="preserve">
<path d="M488,5.631c-59.243,71.241-118.487,142.482-177.73,213.723c0.642,0.823,1.284,1.646,1.926,2.469
	c3.391-2.06,6.868-3.99,10.158-6.2c20.499-13.771,41.841-25.546,66.753-29.302c17.38-2.62,33.186,0.929,44.059,15.131
	c11.609,15.164,12.497,32.426,4.622,50.007c-11.9,26.568-52.849,24.304-66.014,7.169c-8.768-11.412-3.819-28.33,9.985-32.167
	c5.657-1.572,10.444,0.844,11.692,6.557c0.879,4.027-0.38,8.521-0.758,13.844c5.895,6.182,13.668,5.892,21.08,0.746
	c8.597-5.969,7.621-15.399,6.453-24.161c-1.22-9.148-7.429-14.997-16.145-16.153c-6.615-0.877-13.81,0.096-20.367,1.749
	c-28.172,7.1-50.752,24.439-73.482,41.347c-5.03,3.742-9.615,8.082-15.393,12.986c21.868,41.595,29.055,84.978,12.476,130.371
	c-11.599,31.756-31.16,57.136-59.707,75.695c-57.763,37.551-132.777,31.514-183.759-14.429
	c-51.842-46.718-63.81-121.04-33.262-181.262c18.124-35.729,46.956-60.555,84.871-73.818c37.088-12.974,74.158-10.674,110.819,4.204
	c22.922-23.951,44.89-47.297,58.013-77.166c3.697-8.415,6.403-17.919,6.722-27.023c0.594-16.963-18.815-27.653-33.713-19.571
	c-8.142,4.417-9.308,8.344-7.311,24.616c0.916,0.512,2.076,1.671,2.714,1.433c6.98-2.611,13.702-3.932,18.062,4.078
	c2.675,4.915-2.548,13.924-10.112,18.205c-9.514,5.385-20.713,2.135-27.468-8.739c-8.655-13.932-9.139-28.828-1.589-43.15
	c8.365-15.868,23.519-20.455,40.071-19.445c28.754,1.754,45.84,25.729,40.044,54.306c-3.437,16.948-10.991,31.981-19.98,46.462
	c-2.565,4.132-5.238,8.197-6.873,13.291c18.646-11.185,33.969-26.361,50.365-40.154c16.881-14.201,33.662-28.521,50.468-42.812
	c16.805-14.291,33.552-28.65,50.389-42.904c16.567-14.025,33.215-27.954,49.828-41.926C486.603,4.305,487.302,4.968,488,5.631z
	 M164.485,213.312C99.543,211.237,35.04,265.527,35.081,343.122c0.042,78.993,67.196,129.814,129.991,129.76
	c72.859-0.063,132.079-62.893,130.275-133.178C293.6,271.623,235.66,210.949,164.485,213.312z M167.109,318.266
	c-13.555-0.802-26.151,10.181-26.802,23.369c-0.671,13.595,10.491,24.96,24.601,25.048c13.855,0.086,23.795-9.342,24.174-22.931
	C189.464,330.073,179.939,319.025,167.109,318.266z"/>
</svg>
