<?xml version="1.0" encoding="iso-8859-1"?>
<!-- Generator: Adobe Illustrator 19.0.0, SVG Export Plug-In . SVG Version: 6.00 Build 0)  -->
<svg version="1.1" id="Layer_1" xmlns="http://www.w3.org/2000/svg" xmlns:xlink="http://www.w3.org/1999/xlink" x="0px" y="0px"
	 viewBox="0 0 2000 2000" style="enable-background:new 0 0 2000 2000;" xml:space="preserve">
<path d="M1564.14,1757.293c-95.922-166.186-190.698-330.388-286.811-496.906c-92.952,161.025-184.605,319.801-277.364,480.493
	c-92.747-160.677-184.49-319.614-277.358-480.501c-95.151,164.841-189.586,328.444-285.011,493.76
	c-140.768-243.907-280.494-486.008-420.607-728.781C161.691,774.617,306.279,524.072,451.011,273.28c141.13,0,281.718,0,423.746,0
	c41.187,71.287,82.737,143.203,125.223,216.739c42.31-73.265,83.617-144.792,125.133-216.683c140.931,0,281.497,0,423.81,0
	c144.808,250.911,290.049,502.573,435.801,755.121C1844.951,1270.671,1705.213,1512.825,1564.14,1757.293z M1818.7,1028.489
	c-67.984-117.803-135.505-234.802-203.783-353.114c-85.132,147.506-169.534,293.748-254.028,440.15
	c67.934,117.72,135.464,234.74,203.769,353.104C1649.516,1321.608,1733.761,1175.651,1818.7,1028.489z M639.038,1115.521
	c-84.68-146.717-168.911-292.655-254.047-440.162c-68.06,117.949-134.924,233.826-201.959,349.999
	c84.659,146.691,168.954,292.754,254.02,440.151C504.657,1348.368,571.538,1232.48,639.038,1115.521z M1277.321,970.699
	c85.617-148.355,169.831-294.277,254.019-440.154c-22.677-39.275-44.88-77.728-66.873-115.817c-85.12,0-169.225,0-253.846,0
	c-42.359,73.41-84.594,146.606-127.066,220.213C1147.714,746.115,1211.731,857.045,1277.321,970.699z M535.523,414.568
	c-22.35,38.736-44.521,77.161-66.933,116.004c84.681,146.715,169.009,292.819,254.034,440.129
	c65.305-113.171,129.53-224.471,193.764-335.787c-42.77-74.092-85-147.249-127.196-220.346
	C704.592,414.568,620.863,414.568,535.523,414.568z M806.148,1115.546c64.823,112.263,128.892,223.221,193.851,335.719
	c65.61-113.712,129.782-224.932,193.737-335.776c-64.702-112.096-128.654-222.894-193.769-335.706
	C934.737,892.783,870.577,1003.931,806.148,1115.546z"/>
</svg>
