<?xml version="1.0" encoding="iso-8859-1"?>
<!-- Generator: Adobe Illustrator 19.0.0, SVG Export Plug-In . SVG Version: 6.00 Build 0)  -->
<svg version="1.1" id="Layer_1" xmlns="http://www.w3.org/2000/svg" xmlns:xlink="http://www.w3.org/1999/xlink" x="0px" y="0px"
	 viewBox="0 0 2000 2000" style="enable-background:new 0 0 2000 2000;" xml:space="preserve">
<path d="M1966.524,994.403c3.868,533.436-434.693,977.854-981.899,971.565c-265.327-3.05-495.151-100.946-681.323-291.771
	C102.258,1468.127,11.387,1218.47,26.591,931.803C51.342,465.135,448.234,8.305,1028.594,23.885
	c252.724,6.785,471.558,102.566,650.445,280.288C1869.469,493.361,1965.256,725.04,1966.524,994.403z M996.212,111.158
	c-245.763,1.326-456.972,88.815-629.385,262.866C201.007,541.418,113.639,746.55,111.747,981.988
	c-4.027,500.972,386.904,873.886,838.139,895.607c256.66,12.354,480.499-72.49,664.856-252.949
	c169.21-165.633,259.71-369.578,265.539-605.219C1892.803,513.173,1486.136,108.207,996.212,111.158z M995.993,1822.087
	c-447.448,6.889-844.039-370.198-828.853-855.671c13.309-425.493,363.093-811.61,851.981-801.39
	c428.562,8.959,821.4,364.353,805.404,863.581C1810.957,1452.039,1456.581,1825.694,995.993,1822.087z M937.476,647.005
	c68.458,0,135.419-0.438,202.368,0.254c21.428,0.222,43.076,20.841,45.103,42.994c2.492,27.243,2.573,54.708,3.626,82.08
	c0.854,22.202,14.978,42.386,33.352,43.265c32.012,1.532,64.246,2.829,96.162,0.754c34.897-2.269,48.15-19.242,48.171-54.748
	c0.045-77.108,0.037-154.216,0.004-231.325c-0.015-35.667-20.689-56.325-56.395-56.33c-160.25-0.022-320.5-0.009-480.75-0.009
	c-57.664,0-115.327-0.114-172.99,0.057c-22.819,0.068-47.416,15.26-49.284,35.032c-4.324,45.773-10.136,91.406,18.906,134.088
	c28.187,41.426,51.557,86.154,76.625,129.672c41.229,71.574,82.022,143.4,123.235,214.983c9.062,15.74,7.635,30.137-3.209,44.076
	c-29.648,38.111-59.54,76.034-88.981,114.304c-42.533,55.29-85.04,110.604-126.95,166.366
	c-14.599,19.425-34.434,38.646-39.329,60.741c-6.99,31.548-5.712,66.043-1.85,98.553c3.546,29.845,26.114,44.366,56.549,44.377
	c249.428,0.086,498.857,0.096,748.285-0.005c34.979-0.014,59.979-22.717,60.239-57.647c0.789-105.934,0.659-211.88,0.045-317.816
	c-0.17-29.31-20.244-46.938-49.892-47.017c-30.843-0.082-61.689-0.259-92.529,0.056c-27.739,0.283-45.869,18.333-46.409,45.882
	c-0.315,16.086-1.153,32.272,0.15,48.258c3.596,44.143-27.359,76.218-74.36,75.259c-80.427-1.641-160.912-0.454-241.373-0.454
	c-15.699,0-31.398,0-50.206,0c65.844-88.678,129.399-174.15,192.806-259.733c23.696-31.983,28.795-67.109,9.838-102.147
	C1032.853,816.585,985.539,733.285,937.476,647.005z"/>
</svg>
