<?xml version="1.0" encoding="iso-8859-1"?>
<!-- Generator: Adobe Illustrator 19.0.0, SVG Export Plug-In . SVG Version: 6.00 Build 0)  -->
<svg version="1.1" id="Layer_1" xmlns="http://www.w3.org/2000/svg" xmlns:xlink="http://www.w3.org/1999/xlink" x="0px" y="0px"
	 viewBox="0 0 2000 2000" style="enable-background:new 0 0 2000 2000;" xml:space="preserve">
<path d="M211.633,428.285c53.808,51.357,105.425,100.623,156.893,149.747c-237.536,381.525-107.901,777.812,124.418,983.974
	c284.027,252.049,667.794,262.131,964.746,44.485c250.128-183.327,441.273-595.617,169.658-1045.165
	c47.545-46.783,98.302-96.728,150.198-147.792c259.822,317.47,305.289,880.546-76.998,1271.22
	c-363.219,371.188-959.246,407.818-1365.429,31.355C-48.375,1360.674-68.093,791.479,211.633,428.285z M1634.701,253.016
	C1411.384,71.554,1157.151-8.577,868.586,30.548c-189.465,25.688-357.637,99.943-498.264,224.129
	c214.437,214.976,423.876,424.942,631.109,632.697C1210.478,677.968,1420.653,467.432,1634.701,253.016z M669.477,1428.856
	c214.435,167.037,548.993,149.182,745.77-77.2c162.597-187.059,154.472-487.219,44.287-624.887
	c-154.491,155.802-308.07,310.683-463.248,467.177c-152.24-152.693-305.515-306.424-461.225-462.596
	C410.94,932.092,437.951,1248.506,669.477,1428.856z"/>
</svg>
