<?xml version="1.0" encoding="iso-8859-1"?>
<!-- Generator: Adobe Illustrator 19.0.0, SVG Export Plug-In . SVG Version: 6.00 Build 0)  -->
<svg version="1.1" id="Layer_1" xmlns="http://www.w3.org/2000/svg" xmlns:xlink="http://www.w3.org/1999/xlink" x="0px" y="0px"
	 viewBox="0 0 500 500" style="enable-background:new 0 0 500 500;" xml:space="preserve">
<path id="XMLID_4_" d="M20.281,267.315c0-10.774,0-21.548,0-32.322c0.348-0.562,0.968-1.108,1.001-1.687
	c0.251-4.359,0.62-8.697,1.051-13.044c0.749-7.558,2.306-14.955,3.972-22.265c3.088-13.549,7.643-26.705,13.265-39.443
	c9.56-21.66,21.909-41.646,37.66-59.298c12.488-13.995,26.178-26.795,41.749-37.481c17.086-11.726,35.3-21.161,54.778-28.193
	c10.26-3.704,20.718-6.686,31.445-8.699c4.064-0.762,8.105-1.722,12.202-2.208c5.47-0.648,10.986-0.903,16.476-1.397
	c0.398-0.036,0.743-0.65,1.113-0.995c10.774,0,21.548,0,32.322,0c0.563,0.348,1.128,1.003,1.689,0.999
	c7.06-0.053,13.941,1.242,20.885,2.309c9.702,1.491,19.14,3.919,28.513,6.699c17.824,5.287,34.617,12.922,50.624,22.336
	c12.321,7.246,24.016,15.448,34.501,25.111c8.585,7.912,16.526,16.562,24.372,25.229c9.977,11.02,18.109,23.409,25.265,36.416
	c7.564,13.749,13.895,28.052,18.444,43.093c3.104,10.266,5.393,20.698,7.236,31.292c1.497,8.605,2.403,17.264,2.918,25.884
	c0.818,13.696,0.209,27.414-1.806,41.094c-1.348,9.151-2.779,18.27-5.003,27.221c-1.34,5.393-2.366,10.981-5.057,15.876
	c-29.104,0.758-64.13,0.425-68.907-0.715c0-63.921,0-127.913,0-192.128c-2.62,0.502-3.684,2.496-5.098,3.908
	c-46.816,46.753-93.589,93.548-140.404,140.301c-1.426,1.425-2.502,3.429-4.876,3.858c-49.008-49.011-97.966-97.971-146.925-146.928
	c-0.271-0.271-0.557-0.532-0.864-0.761c-0.14-0.105-0.343-0.137-0.523-0.173c-0.188-0.038-0.382-0.041-1.21-0.12
	c0,64.175,0,128.293,0,192.635c-23.178,0-45.983,0-68.868,0c-0.524-1.256-1.181-2.423-1.507-3.677
	c-1.985-7.63-3.98-15.259-5.794-22.93c-0.951-4.021-1.756-8.101-2.242-12.2c-0.649-5.473-0.904-10.992-1.399-16.484
	C21.242,268.031,20.627,267.685,20.281,267.315z M153.532,460.38c42.141,19.378,86.046,25.835,131.76,19.183
	c40.635-5.913,77.248-21.937,109.351-47.46c21.153-16.817,39.218-36.671,53.502-60.857c-32.625,0-64.448,0-95.926,0
	c-0.442-0.646-0.578-0.782-0.636-0.946c-0.063-0.177-0.071-0.379-0.071-0.57c-0.015-39.232-0.027-78.465-0.04-117.697
	c0-0.384,0.005-0.772-0.044-1.152c-0.022-0.171-0.148-0.346-0.268-0.483c-0.112-0.128-0.28-0.207-0.975-0.697
	c-16.313,16.308-32.707,32.707-49.104,49.103c-16.552,16.552-33.104,33.104-49.94,49.94c-4.395-4.393-8.449-8.444-12.501-12.495
	c-4.216-4.215-8.432-8.431-12.647-12.647c-4.08-4.08-8.16-8.159-12.239-12.239c-4.08-4.08-8.159-8.16-12.239-12.24
	c-4.216-4.216-8.431-8.432-12.647-12.647c-4.08-4.08-8.159-8.159-12.239-12.239c-4.216-4.216-8.401-8.462-12.657-12.637
	c-4.057-3.981-7.876-8.227-13.109-12.705c0,41.432,0,81.688,0,122.318c-32.589,0-64.634,0-96.905,0
	C77.216,409.74,114.325,442.351,153.532,460.38z"/>
</svg>
