<?xml version="1.0" encoding="iso-8859-1"?>
<!-- Generator: Adobe Illustrator 19.0.0, SVG Export Plug-In . SVG Version: 6.00 Build 0)  -->
<svg version="1.1" id="Layer_1" xmlns="http://www.w3.org/2000/svg" xmlns:xlink="http://www.w3.org/1999/xlink" x="0px" y="0px"
	 viewBox="0 0 500 500" style="enable-background:new 0 0 500 500;" xml:space="preserve">
<path d="M451.13,121.247c-135.129,0-267.086,0-401.81,0C117.799,82.043,183.983,44.153,250.626,6
	C316.669,43.961,382.664,81.894,451.13,121.247z M253.008,488.679c65.222-113.197,130.444-226.394,195.665-339.59
	c-0.556-0.404-1.112-0.809-1.668-1.213c-65.484,37.5-130.968,74.999-196.076,112.284c0,76.496,0,152.157,0,227.817
	C251.622,488.21,252.315,488.445,253.008,488.679z M248.665,257.348c66.547-38.147,132.422-75.91,200.817-115.116
	c-132.988,0-262.83,0-395.45,0C120.593,181.6,184.857,219.608,248.665,257.348z M52.535,145.468
	c-0.535,0.566-1.07,1.133-1.606,1.699c64.613,112.138,129.225,224.276,195.223,338.817c0-77.135,0-151.361,0-226.241
	C181.87,221.804,117.202,183.636,52.535,145.468z M473.869,148.239c-65.452,113.604-130.904,227.208-196.356,340.812
	c0.812,0.735,1.625,1.471,2.437,2.206c61.929-37.747,123.858-75.494,186.182-113.483c3.132-76.237,6.267-152.527,9.402-228.816
	C474.979,148.718,474.424,148.479,473.869,148.239z M25.462,149.803c3.089,76.424,6.177,152.849,9.237,228.559
	c63.548,38.774,125.654,76.668,187.76,114.561c0.571-0.505,1.142-1.011,1.713-1.516C158.47,377.341,92.766,263.275,27.063,149.209
	C26.529,149.407,25.996,149.605,25.462,149.803z"/>
</svg>
