<?xml version="1.0" encoding="utf-8"?>
<!-- Generator: Adobe Illustrator 25.1.0, SVG Export Plug-In . SVG Version: 6.00 Build 0)  -->
<svg version="1.1" id="xmx" xmlns="http://www.w3.org/2000/svg" xmlns:xlink="http://www.w3.org/1999/xlink" x="0px" y="0px"
	 viewBox="0 0 500 500" style="enable-background:new 0 0 500 500;" xml:space="preserve">
<g>
	<polygon points="249.5,441.3 484.4,497.9 484.4,471.3 249.5,414.4 	"/>
	<polygon points="249.5,384.7 484.4,441.3 484.4,414.7 249.5,357.8 	"/>
	<polygon points="248.7,117.2 13.8,60.3 13.8,87.1 248.7,143.8 	"/>
	<polygon points="248.7,59.5 13.8,2.6 13.8,29.5 248.7,86.1 	"/>
	<polygon points="245.1,172.9 13.8,116.9 13.8,143.8 208.2,190.6 13.5,284.3 13.2,315 484.6,88.2 484.6,57.7 	"/>
	<polygon points="13.2,379.7 484.6,152.8 484.6,122.4 13.5,349 	"/>
	<polygon points="13.2,443.1 252.8,327.8 484.4,383.7 484.4,357.1 289.9,309.9 484.6,216.2 484.6,185.7 13.5,412.3 	"/>
</g>
</svg>
