<?xml version="1.0" encoding="iso-8859-1"?>
<!-- Generator: Adobe Illustrator 19.0.0, SVG Export Plug-In . SVG Version: 6.00 Build 0)  -->
<svg version="1.1" id="Layer_1" xmlns="http://www.w3.org/2000/svg" xmlns:xlink="http://www.w3.org/1999/xlink" x="0px" y="0px"
	 viewBox="0 0 500 500" enable-background="new 0 0 500 500" xml:space="preserve">
<path d="M8.883,212.214c39.174,0,78.485,0,119.53,0c-6.683,25.407-13.284,50.279-19.748,75.186
	c-2.465,9.5-5.251,18.983-6.742,28.651c-1.588,10.296,0.381,19.734,11.173,24.949c10.133,4.896,22.584,3.7,30.137-5.69
	c5.698-7.084,9.81-16.072,12.451-24.866c7.464-24.852,13.482-50.134,20.698-75.065c5.447-18.819,17.549-29.034,33.763-30.036
	c16.423-1.015,26,8.237,22.735,24.537c-4.858,24.254-11.495,48.152-17.414,72.192c-0.841,3.417-2.072,6.743-2.838,10.174
	c-3.342,14.968,1.409,24.98,13.967,29.697c12.374,4.649,27.384-0.456,33.099-12.802c4.583-9.901,7.504-20.639,10.49-31.196
	c5.675-20.06,10.344-40.415,16.432-60.342c4.74-15.513,12.241-28.784,31.034-31.563c19.261-2.848,31.334,7.918,26.995,26.696
	c-5.114,22.131-10.847,44.181-17.656,65.844c-9.365,29.796-5.112,46.87,33.873,45.41c38.101-1.427,76.298-0.31,114.803-0.31
	c-35.858,97.17-156.355,182.377-294.922,141.846C50.632,447.469-11.775,319.132,8.883,212.214z M38.034,157.452
	c41.025,0,82.05,0.068,123.075-0.037c13.656-0.035,25.045,3.299,29.749,19.048c14.894-12.291,30.341-20.79,49.847-19.7
	c20.352,1.137,34.337,11.5,43.285,27.306c11.42-7.344,21.294-15.652,32.633-20.611c32.291-14.123,80.548-9.223,84.169,42.36
	c0.488,6.957-0.436,14.24-2.01,21.072c-4.722,20.504-10.089,40.859-15.327,61.763c36.757,0,72.504,0,108.122,0
	C512.484,181.869,447.105,49.48,314.203,13.274C189.667-20.652,66.428,48.288,23.941,157.452
	C29.443,157.452,33.738,157.452,38.034,157.452z"/>
</svg>
