<?xml version="1.0" encoding="iso-8859-1"?>
<!-- Generator: Adobe Illustrator 19.0.0, SVG Export Plug-In . SVG Version: 6.00 Build 0)  -->
<svg version="1.1" id="Layer_1" xmlns="http://www.w3.org/2000/svg" xmlns:xlink="http://www.w3.org/1999/xlink" x="0px" y="0px"
	 viewBox="0 0 500 500" enable-background="new 0 0 500 500" xml:space="preserve">
<path d="M243.861,5.783c0,2.304,0,4.608,0,6.912c0,68.007-0.058,136.014,0.111,204.021c0.013,5.381-1.236,8.178-6.61,10.482
	c-16.199,6.944-24.936,24.316-20.508,41.4c3.667,14.148,17.468,27.233,35.087,27.151c15.989-0.075,31.469-12.515,35.096-28.184
	c3.55-15.339-4.346-32.535-19.297-39.085c-6.859-3.005-8.344-6.823-8.319-13.72c0.251-67.203,0.151-134.407,0.151-201.611
	c0-2.877,0-5.753,0-8.63c0.513-0.173,1.025-0.346,1.538-0.519c71.899,119.202,143.799,238.404,215.99,358.089
	c-22.993,13.757-45.768,27.538-68.691,41.067c-49.659,29.309-99.444,58.404-149.027,87.841c-5.387,3.198-8.931,3.404-14.664-0.03
	c-54.515-32.653-109.328-64.807-164.065-97.09c-17.745-10.466-35.516-20.886-53.556-31.493
	C98.851,243.415,170.556,124.526,242.261,5.637C242.794,5.685,243.328,5.734,243.861,5.783z"/>
</svg>
