<?xml version="1.0" encoding="iso-8859-1"?>
<!-- Generator: Adobe Illustrator 19.0.0, SVG Export Plug-In . SVG Version: 6.00 Build 0)  -->
<svg version="1.1" id="Layer_1" xmlns="http://www.w3.org/2000/svg" xmlns:xlink="http://www.w3.org/1999/xlink" x="0px" y="0px"
	 viewBox="0 0 2000 2000" style="enable-background:new 0 0 2000 2000;" xml:space="preserve">
<path d="M24.273,191.544c114.696,0,216.117,0,316.847,0c459.754,447.422,918.908,894.259,1384.712,1347.567
	c0-376.081,0-741.169,0-1109.876c-64.467,0-127.419,0-193.506,0c0,208.155,0,417.644,0,627.133
	c-2.937,2.508-5.875,5.016-8.812,7.523C1227.75,775.394,931.986,486.897,631.629,193.919c114.883,0,224.031,0,339.415,0
	c90.83,87.189,186.105,178.644,286.838,275.339c0-94.578,0-184.34,0-276.241c242.807,0,480.009,0,720.472,0
	c0,536.813,0,1073.949,0,1615.493c-93.94,0-190.022,0-288.863,0C1137.892,1272.894,585.207,736.224,24.273,191.544z
	 M1381.8,1808.089c-203.879-209.705-398.701-410.095-593.558-610.52c-206.041,201.328-409.52,400.152-612.998,598.976
	c2.518,4.743,5.037,9.487,7.555,14.23c106.806,0,213.613,0,349.808,0c77.902-78.783,170.642-172.572,261.448-264.404
	c86.074,81.768,177.068,168.21,275.501,261.718C1163.909,1808.089,1268.031,1808.089,1381.8,1808.089z M303.171,1075.035
	c-91.822,88.198-181.87,174.692-268.358,257.766c0,113.055,0,220.262,0,335.86c207.515-202.911,405.894-396.888,594.327-581.141
	C423.049,883.366,223.248,685.444,29.576,493.593c0,94.308,0,201.618,0,312.459C119.64,894.597,209.254,982.701,303.171,1075.035z"
	/>
</svg>
