<?xml version="1.0" encoding="utf-8"?>
<!-- Generator: Adobe Illustrator 25.1.0, SVG Export Plug-In . SVG Version: 6.00 Build 0)  -->
<svg version="1.1" id="XNS" xmlns="http://www.w3.org/2000/svg" xmlns:xlink="http://www.w3.org/1999/xlink" x="0px" y="0px"
	 viewBox="0 0 500 500" style="enable-background:new 0 0 500 500;" xml:space="preserve">
<path d="M4.6,478.7v18h18.1l58.3-63v-18H62.9L4.6,478.7z"/>
<path d="M174.4,496.7l28.7-63.5v-17.5h-18.7l-28.7,63.5v17.5H174.4z"/>
<path d="M497.1,349.2v-18.6L436,297.8h-17.6v18.6l61.1,32.8L497.1,349.2L497.1,349.2z"/>
<path d="M497.1,168.1v-18.6h-17.6l-61.1,32.8V201H436L497.1,168.1z"/>
<path d="M155.7,2v17.5L184.4,83h18.7V65.5L174.4,2H155.7z"/>
<path d="M494.9,20V2h-18.1l-58.3,63v18h18.1L494.9,20z"/>
<path d="M322.2,173.6h-27.3v27.3h27.3V173.6z"/>
<path d="M296.4,415.8v17.5l28.7,63.5h18.7v-17.5l-28.7-63.5H296.4z"/>
<path d="M343.8,2h-18.7l-28.7,63.5V83h18.7l28.7-63.5V2z"/>
<path d="M494.9,496.7v-18l-58.3-63h-18.1v18l58.3,63H494.9z"/>
<path d="M2.4,330.6v18.6H20l61-32.8v-18.6H63.5L2.4,330.6z"/>
<path d="M4.6,2v18l58.3,63H81V65L22.7,2H4.6z"/>
<path d="M177.3,325.1h27.3v-27.3h-27.3V325.1z"/>
<path d="M2.4,149.5v18.6L63.5,201H81v-18.6l-61-32.9H2.4z"/>
<path d="M177.3,200.9h27.3v-27.3h-27.3V200.9z"/>
<path d="M322.2,297.8h-27.3v27.3h27.3V297.8z"/>
</svg>
