<?xml version="1.0" encoding="iso-8859-1"?>
<!-- Generator: Adobe Illustrator 19.0.0, SVG Export Plug-In . SVG Version: 6.00 Build 0)  -->
<svg version="1.1" id="Layer_1" xmlns="http://www.w3.org/2000/svg" xmlns:xlink="http://www.w3.org/1999/xlink" x="0px" y="0px"
	 viewBox="0 0 500 500" enable-background="new 0 0 500 500" xml:space="preserve">
<path d="M155.882,459.702c2.892-3.24,0.711-6.045-0.678-9.296c0.461-7.835,3.598-14.929,8.922-21.399
	c0.628,0.154,1.405,0.231,2.087,0.528c13.389,5.825,27.266,10.083,41.589,12.867c8.547,1.662,17.104,3.298,25.7,4.672
	c5.091,0.814,10.303,0.863,15.395,1.67c7.15,1.133,14.263,0.189,21.318-0.32c15.878-1.146,31.3-4.646,46.197-10.441
	c9.293-3.615,18.534-7.308,27.407-11.877c10.687-5.504,20.811-11.9,30.342-19.222c5.361-4.118,10.617-8.361,15.359-13.208
	c4.482-4.582,9.291-8.872,13.506-13.685c7.588-8.665,14.433-17.905,20.458-27.763c4.757-7.783,9.05-15.807,12.722-24.119
	c4.424-10.013,8.07-20.349,10.52-31.051c1.463-6.391,2.797-12.814,4.047-19.251c0.476-2.45,1.459-13.611,1.74-16.685
	c0.219-2.395,0.364-4.797,0.553-7.196c0.443-14.817-2.981-39.412-2.815-37.49c-3.044-12.72-6.568-25.206-11.52-37.282
	c-4.112-10.026-9.012-19.635-14.669-28.868c-0.46-0.751-1.219-1.465-0.53-2.499c0.49,0.076,0.991,0.154,1.788,0.279
	c-1.159-2.034-2.196-3.852-3.438-6.03c0.929,0.28,1.624,0.405,2.246,0.691c9.263,4.247,18.804,7.654,28.797,9.76
	c1.784,0.376,3.487,1.133,5.327,1.747c0.764-0.473,1.526-0.969,2.311-1.426c3.757-2.187,5.506-5.954,4.444-10.118
	c-0.504-1.975-1.305-3.896-2.16-5.755c-1.295-2.813-2.759-5.549-4.136-8.325c-0.091-0.183-0.054-0.43-0.126-1.12
	c0.691,0.514,1.159,0.862,1.793,1.334c0.271-1.467-0.763-2.366-1.195-3.438c-0.412-1.024-0.931-2.005-0.941-3.297
	c0.647,0.956,1.338,1.886,1.934,2.873c9.765,16.186,17.518,33.28,23.243,51.302c3.049,9.596,5.28,19.39,7.362,29.226
	c0.071,0.335,3.5,24.224,3.509,24.323c1.167,13.074,1.135,26.181,0.701,39.274c-0.188,5.691-1.265,11.35-1.869,17.031
	c-1.027,9.665-3.069,19.121-5.482,28.525c-3.072,11.975-7.043,23.63-11.986,34.95c-4.726,10.824-10.159,21.281-16.368,31.342
	c-5.064,8.206-10.66,16.034-16.593,23.612c-3.321,4.242-7.013,8.198-10.621,12.208c-2.92,3.245-5.834,6.512-8.976,9.535
	c-9.19,8.84-18.935,17.021-29.327,24.435c-12.352,8.813-25.481,16.282-39.219,22.658c-14.332,6.652-29.227,11.786-44.631,15.325
	c-6.882,1.581-13.829,2.94-20.803,4.042c-5.186,0.819-10.477,0.951-15.697,1.584c-9.745,1.181-19.52,0.67-29.279,0.568
	c-5.249-0.055-10.501-0.706-15.732-1.275c-5.444-0.592-10.896-1.221-16.288-2.163c-14.636-2.555-28.927-6.437-42.848-11.647
	c-2.139-0.8-4.281-1.596-6.402-2.44c-1.676-0.667-2.872-1.855-3.551-3.544C157.521,469.369,155.824,464.884,155.882,459.702z
	 M87.485,64.801c-8.284,7.305-16.059,15.121-23.291,23.482c-7.231,8.359-13.885,17.144-19.91,26.406
	c-6.083,9.353-11.477,19.087-16.237,29.182c-4.706,9.981-8.612,20.265-11.945,30.771c-3.333,10.507-5.968,21.204-7.685,32.086
	c-1.705,10.806-2.484,33.383-2.484,33.383s-0.963,20.507,2.98,47.846c0.701,4.858,1.754,9.667,2.914,14.432
	c4.503,18.491,10.863,36.324,19.343,53.375c7.004,14.084,15.217,27.431,24.505,40.129c6.714,9.178,13.853,18.006,21.725,26.204
	c4.453,4.637,9.197,9.002,13.931,13.36c6.08,5.598,12.628,10.624,19.365,15.411c8.691,6.176,17.677,11.884,27.083,16.897
	c5.054,2.694,10.279,5.068,15.451,7.536c0.483,0.231,1.138,0.101,2.175,0.168c-1.283-1.401-2.255-2.375-3.121-3.435
	c-0.792-0.969-1.47-2.032-2.465-3.428c2.946,1.223,2.946,1.223,4.551,1.05c-6.308-5.973-10.546-13.043-11.964-20.833
	c0.29-8.097,2.685-14.801,6.959-20.931c-1.082-0.902-1.931-1.61-2.789-2.325c0.767-1.226,1.49-2.381,2.116-3.382
	c-4.844-3.378-9.69-6.785-14.564-10.151c-7.728-5.337-14.809-11.467-21.625-17.891c-3.584-3.378-6.937-7.019-10.218-10.698
	c-4.342-4.868-8.766-9.696-12.699-14.887c-6.937-9.155-13.12-18.842-18.467-29.018C63.332,324.722,57.174,309.25,53.053,293
	c-0.756-2.983-1.79-5.925-2.295-8.929c-3.112-18.51-3.147-34.025-3.016-36.528c0.281-5.37,0.741-10.733,1.23-16.089
	c0.404-4.42,0.745-8.863,1.495-13.231c0.899-5.234,2.061-10.434,3.359-15.586c3.129-12.417,7.365-24.451,12.908-36.013
	c3.532-7.368,7.396-14.542,11.767-21.458c7.046-11.149,15.146-21.459,24.228-30.998c5.471-5.747,11.202-11.227,17.413-16.189
	c0.574-0.459,0.877-1.259,1.294-1.884c-0.751-1.165-1.417-2.199-2.054-3.187c0.541-0.74,0.999-1.367,1.49-2.038
	c-0.616-0.943-1.077-1.865-1.734-2.617c-3.833-4.388-6.584-9.415-8.454-14.878c-0.726-2.121-0.891-4.48-1.026-6.748
	c-0.274-4.602,1.184-8.796,3.375-12.788c0.559-1.019,1.498-1.953,1.41-3.556c-1.406,0.722-2.527,1.298-4.228,2.172
	c0.687-1.589,1.028-2.539,1.495-3.421c0.735-1.387,1.556-2.729,2.693-4.702C104.514,50.794,95.766,57.498,87.485,64.801z
	 M143.833,81.307c2.86-1.659,5.658-3.426,8.531-5.061c13.906-7.917,28.618-13.932,44.011-18.233
	c6.781-1.895,13.628-3.599,20.655-4.426c3.509-0.413,6.993-1.048,10.507-1.408c5.122-0.524,10.254-0.986,15.392-1.288
	c3.212-0.189,6.446-0.117,9.665-0.017c5.735,0.178,11.491,0.211,17.191,0.78c5.655,0.564,11.251,1.723,16.875,2.604
	c7.526,1.179,14.848,3.174,22.13,5.377c14.204,4.296,27.613,10.375,40.482,17.72c14.383,8.208,27.381,18.251,39.267,29.731
	c8.592,8.299,16.377,17.317,23.245,27.115c1.116,1.592,2.601,2.672,4.737,3.064c4.098,0.753,8.13,1.88,12.178,2.895
	c7.842,1.966,15.67,3.989,23.523,5.911c1.05,0.257,2.272,0.574,3.303-0.381c-0.19-1.907-0.098-3.906-0.65-5.707
	c-0.552-1.804,0.073-3.956-1.543-5.439c1.036-2.03-0.786-3.771-0.566-5.846c0.183-1.726-0.84-3.579-1.524-6.094
	c0-0.31,0.173-1.45-0.037-2.515c-0.409-2.08-1.395-4.105-1.468-6.177c-0.078-2.214-0.771-3.957-1.978-5.706
	c-13.547-19.631-29.608-36.909-48.202-51.854c-22.253-17.887-46.929-31.334-73.954-40.473c-10.547-3.567-21.255-6.561-32.353-7.88
	c-4.898-0.582-9.822-0.941-14.718-1.535c-8-0.971-16.035-1.337-24.078-1.289c-6.779,0.041-13.564,0.255-20.331,0.659
	c-6.763,0.404-13.541,0.879-20.248,1.799c-7.389,1.013-14.729,2.443-22.045,3.915c-10.249,2.063-20.404,4.567-30.169,8.352
	c-14.71,5.703-28.69,12.879-41.973,21.399c-0.758,0.486-1.467,1.051-2.236,1.606c0.41,3.396,0.685,6.697,1.228,9.953
	c1.187,7.125,4.546,13.215,9.706,18.162c4.045,3.879,8.489,7.342,13.032,11.226C142.413,81.866,143.18,81.685,143.833,81.307z
	 M202.218,213.739c-0.506-1.39-0.776-2.222-1.107-3.029c-4.248-10.357-8.493-20.716-12.765-31.064
	c-2.759-6.683-5.527-13.363-8.357-20.016c-1.683-3.957-3.478-7.867-5.269-11.777c-0.304-0.664-0.844-1.219-1.011-1.454
	c-2.274,0.227-4.067,0.545-5.863,0.561c-6.906,0.061-13.812,0.03-20.718,0.021c-1.945-0.002-3.895,0.154-5.762-0.719
	c-0.478-0.224-1.21,0.094-1.88,0.169c0.951,2.819,1.695,5.461,2.722,7.987c3.069,7.547,6.315,15.023,9.373,22.574
	c7.627,18.83,15.2,37.682,22.766,56.536c1.191,2.967,2.232,5.993,3.426,9.217c-10.735,15.895-21.393,31.677-32.236,47.732
	c1.042,0.048,1.699,0.077,2.41,0.11c0.325,0.534,0.673,1.105,1.096,1.801c22.949-11.958,45.363-23.637,67.863-35.361
	c0.934-6.068,4.427-10.613,7.873-15.189c0.62-0.824,1.115-1.741,1.703-2.59c6.418-9.258,12.568-18.718,19.35-27.702
	c5.961-7.897,11.66-15.96,17.277-24.092c1.111-1.609,2.283-3.131,2.13-5.302c-0.047-0.67,0.635-1.39,1.049-2.221
	c2.574-0.157,5.088-0.421,7.604-0.443c6.083-0.054,12.167,0.018,18.251,0.014c7.711-0.004,15.423-0.025,23.134-0.053
	c11.049-0.04,22.098-0.123,33.146-0.125c4.006-0.001,8.012,0.176,12.953,0.293c4.047-1.518,33.018-16.661,35.831-18.938
	c-0.332-0.602-0.583-1.351-1.074-1.877c-0.618-0.662-1.48-1.09-2.154-1.709c-7.335-6.738-16.259-9.421-25.919-9.453
	c-38.674-0.127-77.349-0.045-116.023-0.066c-1.212-0.001-2.424-0.284-3.985-0.479C231.718,168.359,217.313,190.997,202.218,213.739z
	 M227.546,179.093c0-0.084,0-0.167,0-0.251c11.699,0,23.398,0,35.096,0c0,0.084,0,0.167,0,0.251
	C250.943,179.093,239.245,179.093,227.546,179.093z M254.772,259.286c-0.728,3.805-1.411,7.619-2.087,11.434
	c-1.318,7.435-2.63,14.87-3.93,22.308c-1.048,5.995-2.086,11.992-3.108,17.992c-0.417,2.448,0.013,4.738,1.096,7
	c1.636,3.417,3.078,6.926,4.619,10.388c2.289,5.143,4.613,10.27,6.881,15.422c0.99,2.249,2.613,3.39,5.097,3.357
	c2.991-0.04,5.986,0.074,8.974-0.034c2.688-0.097,4.034-1.298,4.487-3.886c0.533-3.048,0.968-6.115,1.412-9.178
	c1.252-8.628,2.474-17.261,3.732-25.889c1.093-7.495,2.21-14.986,3.331-22.476c0.662-4.423,1.325-8.846,2.045-13.26
	c0.397-2.436,1.126-3.07,3.661-3.226c1.836-0.113,3.68-0.113,5.52-0.125c8.744-0.059,17.488-0.155,26.231-0.142
	c10.353,0.015,20.706,0.115,31.059,0.205c3.926,0.034,7.803-0.337,11.629-1.211c12.285-2.807,21.595-9.929,28.74-20.058
	c5.353-7.589,8.877-16.068,11.073-25.038c1.462-5.973,2.795-12.041,3.398-18.144c0.574-5.811,0.35-11.736,0.014-17.584
	c-0.135-2.341-0.103-5.002-1.594-6.907c-1.895,1.052-3.617,2.061-5.386,2.98c-6.932,3.603-13.881,7.172-20.817,10.766
	c-1.433,0.742-2.818,1.461-4.55,1.342c-0.658-0.045-1.362,0.587-1.716,0.755c-0.372,4.279-0.548,8.165-1.08,12.001
	c-0.869,6.265-3.319,11.845-7.91,16.345c-1.232,1.208-2.69,2.242-3.694,3.613c-1.708,2.332-4.068,3.655-6.537,4.864
	c-7.548,3.694-15.671,5.074-23.939,5.736c-6.415,0.514-12.846,0.531-19.268,0.011c-3.431-0.278-6.886-0.444-10.275-1.001
	c-2.515-0.413-4.791-0.165-7.006,0.973c-11.038,5.67-22.091,11.312-33.086,17.065c-1.868,0.977-3.626,1.956-6.14,1.492
	C255.265,258.08,254.892,258.659,254.772,259.286z M196.535,288.454c0.39,2.359,0.405,5.05,1.295,7.412
	c6.026,15.999,12.222,31.933,18.407,47.872c0.697,1.797,1.668,3.487,2.539,5.281c1.521,0.281,2.858,0.733,4.198,0.742
	c9.661,0.062,19.323,0.027,28.985,0.04c1.551,0.002,2.957-0.292,4.096-1.584c0.17-1.262,0.347-2.58,0.526-3.906
	c-4.606-12.4-28.605-68.817-30.289-71.03C216.377,278.337,206.61,283.317,196.535,288.454z M118.007,349.716
	c9.77,0.13,19.544-0.015,29.314,0.122c3.698,0.052,6.205-1.277,8.255-4.422c8.142-12.495,16.536-24.826,24.696-37.31
	c2.235-3.42,5.615-6.316,5.379-11.074c-0.056-1.132,1.136-2.327,1.977-3.912c-0.965,0.311-1.605,0.402-2.121,0.705
	c-1.478,0.867-2.847,1.933-4.362,2.721c-13.95,7.253-27.912,14.483-41.892,21.678c-5.816,2.993-11.696,5.862-17.516,8.847
	c-0.879,0.451-1.796,1.087-2.346,1.88c-3.509,5.064-6.921,10.196-10.22,15.092c0.242,1.559,0.446,2.867,0.73,4.692
	C112.545,349.701,115.321,349.68,118.007,349.716z M296.147,189.046c-2.032,0.325-4.11,0.44-6.171,0.479
	c-6.096,0.115-12.193,0.134-18.29,0.225c-1.601,0.024-3.178,0.076-4.463-1.511c-2.413,3.48-1.967,7.307-2.739,10.785
	c-0.791,3.564-1.103,7.232-1.672,10.847c-0.584,3.713-1.449,7.397-1.774,11.13c-0.311,3.57-1.813,7.034-1.341,10.8
	c5.503-1.65,33.739-16.208,36.946-19.01c0.757-4.395,1.555-8.875,2.293-13.364c0.463-2.816,0.852-5.645,1.243-8.473
	c0.153-1.105,0.578-2.295-0.833-3.283C298.214,188.178,297.222,188.874,296.147,189.046z"/>
</svg>
