<?xml version="1.0" encoding="iso-8859-1"?>
<!-- Generator: Adobe Illustrator 19.0.0, SVG Export Plug-In . SVG Version: 6.00 Build 0)  -->
<svg version="1.1" id="Layer_1" xmlns="http://www.w3.org/2000/svg" xmlns:xlink="http://www.w3.org/1999/xlink" x="0px" y="0px"
	 viewBox="0 0 500 500" enable-background="new 0 0 500 500" xml:space="preserve">
<path d="M199.129,275.939c13.44,15.954,26.445,31.391,39.786,47.227c11.637-1.523,23.171-3.033,36.733-4.808
	c-28.282-33.323-55.444-65.326-83.601-98.503c-30.899,52.823-61.027,104.327-92.249,157.701c-1.321-4.191-2.196-6.506-2.782-8.892
	c-27.618-112.52-55.213-225.045-82.79-337.575c-0.695-2.838-1.562-5.717-1.663-8.602c-0.414-11.731,9.87-19.067,22.326-15.642
	c16.013,4.402,31.903,9.247,47.85,13.891c45.729,13.318,91.46,26.627,137.185,39.955c2.301,0.671,4.557,1.495,8.119,2.673
	c-14.954,26.917-29.549,53.188-44.8,80.641c-13.905-16.407-26.939-31.785-40.352-47.612c-11.604,1.49-23.095,2.966-36.737,4.717
	c28.387,33.465,55.441,65.36,83.515,98.455c24.733-42.687,48.855-84.32,73.143-126.24c6.129,1.713,11.512,3.165,16.864,4.722
	c64.963,18.904,129.925,37.809,194.875,56.753c11.142,3.25,16.089,9.668,13.973,19.597c-0.841,3.944-3.649,7.975-6.623,10.879
	c-33.028,32.252-66.252,64.303-99.448,96.383c-75.351,72.815-150.714,145.617-226.083,218.414c-2.282,2.204-4.533,4.486-7.058,6.387
	c-8.898,6.699-21.523,3.623-24.613-6.955c-5.054-17.303-8.985-34.943-13.021-52.525c-0.517-2.252,0.634-5.322,1.907-7.487
	c27.109-46.085,54.341-92.097,81.579-138.106C196.122,279.763,197.385,278.316,199.129,275.939z"/>
</svg>
