<?xml version="1.0" encoding="iso-8859-1"?>
<!-- Generator: Adobe Illustrator 19.0.0, SVG Export Plug-In . SVG Version: 6.00 Build 0)  -->
<svg version="1.1" id="Layer_1" xmlns="http://www.w3.org/2000/svg" xmlns:xlink="http://www.w3.org/1999/xlink" x="0px" y="0px"
	 viewBox="0 0 2000 2000" style="enable-background:new 0 0 2000 2000;" xml:space="preserve">
<path d="M997.369,14.095c541.152-8.878,989.976,444.7,989.748,983.244c-0.222,526.911-424.64,988.604-991.939,987.107
	C434.94,1982.967,9.061,1525.34,9.909,995.219C10.769,457.87,458.376,6.256,997.369,14.095z M845.403,1151.764
	c87.795,0,172.671,0.904,257.511-0.458c32.615-0.523,65.576-3.914,97.646-9.917c177.733-33.275,294.98-203.405,297.283-368.546
	c2.194-157.389-55.77-282.286-192.06-364.447c-79.942-48.192-169.252-54.047-261.019-46.355
	c-128.135,10.741-225.863,63.688-282.068,184.256c-55.486,119.028-64.308,246.671-73.055,374.412
	c-2.493,36.412-0.382,73.14-0.382,112.075c-55.962,5.747-107.472,11.037-164.604,16.905c0,33.918,0,66.726,0,102.956
	c59.069,0,110.855,0,167.703,0c0,43.279,0,83.266,0,125.03c-55.35,4.93-110.673,9.859-166.298,14.814c0,26.621,0,47.776,0,74.156
	c61.039,0,119.129,0,177.285,0c6.37,93.626,12.382,182.004,18.489,271.78c40.998,0,78.368,0,121.12,0c0-91.68,0-180.245,0-273.323
	c117.165,0,228.994,0,342.31,0c0-33.42,0-62.071,0-93.95c-115.728,0-226.543,0-339.861,0
	C845.403,1231.396,845.403,1194.887,845.403,1151.764z M1076.299,1022.05c116.374-1.472,212.049-64.1,251.89-163.237
	c41.746-103.879,13.336-228.27-66.53-299.709c-104.834-93.773-324.139-97.322-382.555,92.558
	c-37.543,122.034-34.764,247.388-32.378,370.567C926.365,1022.228,1001.343,1022.999,1076.299,1022.05z"/>
</svg>
