<?xml version="1.0" encoding="iso-8859-1"?>
<!-- Generator: Adobe Illustrator 19.0.0, SVG Export Plug-In . SVG Version: 6.00 Build 0)  -->
<svg version="1.1" id="Layer_1" xmlns="http://www.w3.org/2000/svg" xmlns:xlink="http://www.w3.org/1999/xlink" x="0px" y="0px"
	 viewBox="0 0 2000 2000" style="enable-background:new 0 0 2000 2000;" xml:space="preserve">
<path d="M1007.186,1979.667c-554.253,1.44-994.969-442.752-988.769-998c5.868-525.516,439.115-972.871,993.415-967.19
	c524.162,5.373,993.217,431.397,971.21,1032.034C1965.079,1536.768,1549.118,1979.987,1007.186,1979.667z M1369.954,372.028
	c0,90.287,0.001,171.468,0,252.649c-0.001,82.555,3.262,165.279-1.029,247.61c-3.516,67.466-10.743,135.684-25.916,201.352
	c-18.103,78.345-113.481,138.651-196.843,131.811c0-275.497,0-551.259,0-832.26c-93.132,0-184.424,0-279.486,0
	c0,280.894,0,556.937,0,843.282c-38.281-12.473-71.531-19.999-101.91-33.832c-88.005-40.072-116.211-118.009-117.4-206.361
	c-2.52-187.351-1.068-374.756-1.242-562.138c-0.012-12.803-0.001-25.607-0.001-40.255c-94.569,0-185.439,0-277.273,0
	c0,176.424-2.502,349.222,1.148,521.891c1.612,76.261,12.006,152.892,24.92,228.239c24.206,141.223,152.04,237.459,275.645,273.199
	c62.701,18.129,127.678,28.386,194.254,42.77c0,24.717,0,54.205,0,87.605c-57.513,0-113.162,0-172.38,0c0,43.548,0,83.239,0,128.925
	c57.494,0,114.161,0,175.388,0c0,49.691,0,93.541,0,140.059c95.159,0,185.552,0,277.953,0c0-46.953,0-89.395,0-140.22
	c57.383,0,112.562,0,166.034,0c0-47.107,0-85.599,0-127.877c-56.999,0-109.955,0-164.631,0c0-34.376,0-64.774,0-88.549
	c69.708-14.827,135.618-23.8,198.266-43.269c114.529-35.592,202.231-106.71,253.542-217.422
	c31.992-69.027,39.689-142.927,39.561-218.185c-0.329-194.711-0.11-389.422-0.11-589.023
	C1550.792,372.028,1460.927,372.028,1369.954,372.028z"/>
</svg>
