<?xml version="1.0" encoding="iso-8859-1"?>
<!-- Generator: Adobe Illustrator 19.0.0, SVG Export Plug-In . SVG Version: 6.00 Build 0)  -->
<svg version="1.1" id="Layer_1" xmlns="http://www.w3.org/2000/svg" xmlns:xlink="http://www.w3.org/1999/xlink" x="0px" y="0px"
	 viewBox="0 0 2000 2000" style="enable-background:new 0 0 2000 2000;" xml:space="preserve">
<path d="M671.601,1275.75c0,45.114,0.777,85.457-0.375,125.744c-0.473,16.543,11.347,23.975,20.134,32.894
	c60.165,61.071,121.111,121.371,181.783,181.942c27.588,27.542,55.142,55.12,82.682,82.71c36.183,36.249,53.013,36.633,88.982,0.767
	c92.165-91.901,184.118-184.016,276.152-276.048c124.563-124.561,249.122-249.125,373.682-373.688
	c4.76-4.76,9.475-9.566,14.264-14.297c20.838-20.587,28.791-44.41-1.666-74.863c-221.36-221.332-442.861-442.524-663.815-664.26
	c-27.225-27.321-54.35-28.767-82.709-0.304C740.627,517.239,519.661,737.255,299.032,957.608
	c-6.308,6.3-12.858,12.709-17.615,20.142c-12.085,18.882-10.319,34.239,5.426,50.758c20.075,21.062,41.238,41.128,60.559,62.845
	c6.845,7.693,13.553,18.916,13.695,28.623c1.081,74.002,0.585,148.029,0.289,222.047c-0.016,3.903-2.667,7.796-5.189,14.694
	c-28.877-28.03-56.007-53.671-82.367-80.079c-77.772-77.916-155.23-156.145-232.838-234.225
	c-11.915-11.988-24.682-24.25-22.213-42.741c1.533-11.479,4.309-25.295,11.748-33.059c36.123-37.695,74.279-73.431,111.211-110.365
	c58.286-58.291,116.13-117.023,174.233-175.497c66.506-66.931,132.97-133.904,199.672-200.639
	c76.335-76.372,152.938-152.477,229.377-228.746c71.792-71.632,143.267-143.585,215.402-214.87
	c29.539-29.191,49.527-28.606,79.549,1.399c307.928,307.742,615.572,615.769,923.859,923.15
	c22.238,22.173,23.486,56.862,0.35,79.927c-52.049,51.89-104.051,103.829-156.101,155.718
	c-67.793,67.584-135.666,135.088-203.409,202.723c-76.74,76.618-153.391,153.326-230.049,230.026
	c-66.708,66.744-133.422,133.482-200.037,200.318c-46.224,46.376-92.225,92.974-138.454,139.345
	c-15.443,15.49-42.87,22.3-71.335-2.928c-15.77-13.977-30.328-29.339-45.191-44.316
	c-103.489-104.279-206.702-208.834-310.446-312.858c-57.109-57.263-115.419-113.333-172.258-170.859
	c-7.642-7.734-13.859-20.83-13.932-31.49c-0.93-135.759-0.497-271.526-0.778-407.291c-0.032-15.671,6.263-26.633,17.218-37.533
	c51.86-51.6,102.714-104.208,154.282-156.104c61.646-62.039,123.648-123.726,185.505-185.555
	c60.209-60.182,120.149-120.638,180.772-180.399c27.388-26.998,50.858-26.807,78.143,0.419
	c173.939,173.564,347.688,347.32,521.282,521.23c26.398,26.446,27.767,47.662,2.974,75.46
	c-27.358,30.673-56.553,59.747-85.622,88.844c-43.171,43.212-87.091,85.674-130.411,128.738
	c-65.469,65.082-130.769,130.334-195.994,195.661c-36.12,36.177-72.01,72.584-107.87,109.019
	c-25.334,25.741-49.016,27.745-75.235,2.661c-54.322-51.97-107.708-104.927-161.059-157.902
	c-39.784-39.503-78.85-79.728-118.446-119.423C684.802,1281.54,680.178,1280.294,671.601,1275.75z M768.245,1002.023
	c7.245,11.147,11.905,21.17,19.082,28.837c24.371,26.036,49.339,51.532,74.621,76.689c35.604,35.428,71.208,70.883,107.753,105.327
	c22.322,21.039,37.879,20.613,61.756,1.601c4.359-3.471,8.145-7.675,12.105-11.632c54.678-54.645,108.979-109.673,164.151-163.813
	c29.26-28.713,27.703-53.096,0.59-79.33c-56.352-54.524-111.084-110.719-166.643-166.065c-26.589-26.487-50.274-28.336-77.243-2.208
	c-59.532,57.677-117.958,116.512-176.011,175.683C779.701,975.985,775.448,989.223,768.245,1002.023z"/>
</svg>
