<?xml version="1.0" encoding="iso-8859-1"?>
<!-- Generator: Adobe Illustrator 19.0.0, SVG Export Plug-In . SVG Version: 6.00 Build 0)  -->
<svg version="1.1" id="Layer_1" xmlns="http://www.w3.org/2000/svg" xmlns:xlink="http://www.w3.org/1999/xlink" x="0px" y="0px"
	 viewBox="0 0 500 500" style="enable-background:new 0 0 500 500;" xml:space="preserve">
<path d="M439.804,363.1c22.286,2.303,35.816,17.247,39.523,35.13c2.975,14.352-5.703,34.072-21.35,42.042
	c-9.746,4.964-19.626,6.586-30.353,3.604c-10.319-2.869-17.505-9.695-23.903-18.287c-17.422,3.846-34.501,7.635-51.59,11.384
	c-18.275,4.009-36.569,7.931-54.833,11.987c-12.463,2.767-24.889,5.703-37.334,8.556c-5.816,1.333-11.6,3.499-17.464,3.753
	c-6.957,0.301-10.042,3.949-12.293,9.643c-4.494,11.369-13.355,17.94-24.656,21.445c-25.874,8.026-51.216-11.328-52.161-36.631
	c-0.955-1.138-1.842-2.936-3.288-3.804c-18.909-11.356-37.898-22.581-57.454-34.188c-13.298,10.054-27.79,14.59-44.223,8.25
	c-9.638-3.718-16.636-10.3-21.312-19.316c-6.144-11.847-6.452-23.769-0.824-36.143c5.632-12.383,16.23-18.427,28.252-23.548
	c0-2.885-0.177-5.564,0.03-8.212c1.023-13.06,2.217-26.107,3.213-39.169c0.683-8.957,1.194-17.927,1.688-26.897
	c0.806-14.641,1.429-29.292,2.356-43.925c0.315-4.978,1.315-9.913,1.959-14.558c-23.309-12.576-29.745-35.455-21.901-53.842
	c9.104-21.342,29.937-30.023,55.724-22.468c39.668-26.976,80.045-54.434,120.419-81.891c0.149-16.448,5.617-30.246,18.189-40.552
	c9.841-8.068,21.61-12.437,34.104-11.278c31.595,2.932,50.547,30.29,44.306,61.205c27.552,33.963,56.025,68.241,84.353,102.127
	c28.77-1.539,39.99,14.14,45.737,27.745c6.533,15.466,0.655,35.451-18.978,49.771C430.615,284.143,434.201,323.602,439.804,363.1z
	 M233.878,445.452c14.108-1.012,27.268-5.896,40.854-8.423c13.721-2.553,27.191-6.43,40.812-9.55
	c13.878-3.179,27.806-6.139,41.71-9.205c13.606-3,27.209-6.011,39.876-8.81c-0.342-20.853,8.84-34.566,25.981-43.89
	c-4.55-38.852-9.074-77.48-13.65-116.545c-8.41,0.175-15.398-1.26-22.455-4.344c-7.253-3.169-10.48-10.57-17.313-13.987
	c-40.045,10.568-79.991,21.109-120.421,31.779c-7.148,17.237-20.738,26.575-39.235,28.679c-0.824,41.559-1.631,82.281-2.435,122.854
	C220.544,421.225,230.879,429.87,233.878,445.452z M80.634,217.406c-0.945,7.413-2.104,14.132-2.6,20.9
	c-0.963,13.131-1.595,26.286-2.276,39.436c-0.232,4.479,0.045,8.992-0.334,13.453c-1.464,17.201-3.109,34.387-4.654,51.581
	c-0.129,1.437-0.017,2.895-0.017,4.204c12.156,4.459,22.71,9.819,28.881,21.496c6.1,11.542,5.154,23.453,2.441,35.382
	c18.472,11.039,36.211,21.639,52.958,31.647c5.941-5.921,10.377-11.736,16.106-15.668c5.951-4.084,13.151-6.346,19.836-9.419
	c0.897-41.12,1.791-82.112,2.69-123.282c-20.735-10.527-26.186-28.069-23.734-48.811c-21.183-11.192-41.613-21.987-61.723-32.612
	C94.626,215.33,91.825,215.141,80.634,217.406z M250.725,244.283c19.552-4.147,38.274-9.784,57.136-14.773
	c19.202-5.079,38.721-9.083,57.26-15.718c-2.536-17.173,5.538-29.077,17.398-39.528c-25.184-30.481-50.15-60.698-74.719-90.433
	c-7.441,5.155-14.1,10.747-21.617,14.708c-7.943,4.186-17.091,4.751-26.215,4.619c-12.2,35.651-24.27,70.921-36.553,106.817
	C237.878,216.748,247.513,227.279,250.725,244.283z M221.373,73.849c-36.866,25.225-73.415,50.233-109.272,74.768
	c2.799,6.959,6.811,13.597,7.951,20.696c1.177,7.327-0.439,15.103-0.842,22.869c19.351,10.42,38.942,20.971,57.919,31.189
	c4.814-3.488,8.867-7.083,13.505-9.604c4.868-2.647,10.295-4.266,15.963-6.527c12.429-36.627,25.86-73.254,37.343-109.89
	c-4.766-3.91-9.008-6.768-12.453-10.385C227.859,83.157,224.993,78.622,221.373,73.849z M267.292,85.113
	c17.375,1.652,32.074-13.983,32.384-30.82c0.322-17.466-14.032-32.982-31.832-32.948c-20.115,0.039-32.884,15.981-33.175,31.858
	C234.373,69.339,249.096,86.758,267.292,85.113z M104.953,174.921c-2.73-6.395-3.804-13.33-9.737-17.872
	c-6.101-4.67-12.91-6.323-20.232-5.218c-10.349,1.562-20.5,14.456-19.839,24.534c0.801,12.209,10.186,22.124,21.934,23.683
	c6.413,0.851,11.808-1.598,16.898-4.638C101.303,191.035,103.187,183.294,104.953,174.921z M415.131,394.677
	c-0.171,9.314-1.83,18.206,4.892,25.364c4.833,5.147,10.794,9.27,17.904,8.764c14.163-1.008,24.167-8.033,24.511-24.071
	c0.33-15.379-10.879-27.08-31.46-23.931c-2.68,1.701-5.94,3.29-8.588,5.585C419.729,388.696,417.678,391.708,415.131,394.677z
	 M406.107,232.704c12.308,0.036,24.113-10.172,23.97-24.863c-0.123-12.592-8.984-23.317-25.075-23.723
	c-12.699-0.32-23.353,11.623-23.657,26.161C381.112,221.369,393.718,232.785,406.107,232.704z M210.808,225.499
	c-11.134-1.71-25.337,9.612-24.85,23.571c0.453,12.992,11.211,25.165,23.58,24.406c15.923-0.977,24.19-9.729,24.841-24.076
	C234.989,235.958,225.082,225.989,210.808,225.499z M169.841,452.813c-0.949,13.055,10.878,25.117,23.707,24.709
	c14.275-0.453,23.733-9.771,24.666-24.378c0.808-12.647-11.516-24.232-24.613-24.027
	C179.254,429.342,168.906,441.544,169.841,452.813z M87.174,394.201c-0.819-6.889,1.353-13.94-3.756-20.015
	c-4.878-5.802-10.86-9.513-18.194-10.592c-9.486-1.396-23.252,7.594-24.845,16.816c-2.049,11.863,0.46,24.504,13.009,29.296
	c6.128,2.34,12.394,2.179,18.525,0.823C80.162,408.703,83.342,401.552,87.174,394.201z"/>
</svg>
