<?xml version="1.0" encoding="iso-8859-1"?>
<!-- Generator: Adobe Illustrator 19.0.0, SVG Export Plug-In . SVG Version: 6.00 Build 0)  -->
<svg version="1.1" id="Layer_1" xmlns="http://www.w3.org/2000/svg" xmlns:xlink="http://www.w3.org/1999/xlink" x="0px" y="0px"
	 viewBox="0 0 500 500" enable-background="new 0 0 500 500" xml:space="preserve">
<path d="M455.17,6.021c-36.45,123.086-72.901,246.171-109.914,371.16C247.212,320.84,149.527,264.704,50.098,207.566
	C186.089,139.016,319.516,71.758,452.943,4.501C453.685,5.007,454.428,5.514,455.17,6.021z M422.417,487.979
	c1.161,0.83,2.321,1.66,3.462,2.477c1.814-20.627,35.298-463.395,36.807-481.281c0.109-1.291-0.715-2.66-1.105-3.993
	c-0.564-0.025-1.128-0.05-1.692-0.074c-36.89,124.463-73.78,248.926-110.616,373.206c1.853,2.022,3.222,3.186,4.19,4.621
	c14.35,21.272,28.779,42.492,42.907,63.911C405.356,460.469,422.417,487.979,422.417,487.979z M418.566,490.691
	c0,0-16.905-26.423-25.412-39.243c-13.587-20.474-27.319-40.851-41.093-61.2c-2.195-3.242-4.339-7.132-7.519-8.984
	c-11.409-6.643-23.447-12.203-34.898-18.78c-41.912-24.071-83.708-48.347-125.503-72.621
	c-40.156-23.323-80.238-46.775-120.443-70.013c-2.021-1.168-4.902-0.847-7.382-1.219c-0.173,0.465-0.346,0.93-0.519,1.394
	c120.149,91.33,361.596,274.863,361.596,274.863L418.566,490.691z"/>
</svg>
