<?xml version="1.0" encoding="iso-8859-1"?>
<!-- Generator: Adobe Illustrator 19.0.0, SVG Export Plug-In . SVG Version: 6.00 Build 0)  -->
<svg version="1.1" id="Layer_1" xmlns="http://www.w3.org/2000/svg" xmlns:xlink="http://www.w3.org/1999/xlink" x="0px" y="0px"
	 viewBox="0 0 500 500" style="enable-background:new 0 0 500 500;" xml:space="preserve">
<path id="XMLID_4_" d="M30.16,251.523c0.327-51.439,35.351-93.407,85.22-99.869c44.217-5.729,77.899,12.666,101.346,50.516
	c14.834,23.948,41.772,29.008,61.592,12.126c13.97-11.898,16.278-30.144,7.891-48.769c-5.917-13.14-12.026-26.81-14.307-40.851
	c-6.159-37.901,7.677-69.184,37.813-92.239c29.916-22.888,63.611-27.516,98.419-12.755c39.384,16.702,60.455,48.06,61.467,90.284
	c1.236,51.556-36.305,92.309-80.706,98.36c-8.522,1.161-17.049,2.383-25.612,3.131c-20.929,1.83-36.834,17.795-37.726,38.195
	c-0.878,20.098,13.425,35.636,35.134,39.203c17.149,2.817,35.21,3.93,51.009,10.362c40.3,16.405,60.927,58.443,57.838,96.584
	c-4.354,53.772-44.781,84.899-82.15,91.47c-60.563,10.65-118.249-35.157-117.315-100.758c0.236-16.572,5.686-32.03,13.436-46.576
	c7.319-13.736,10.728-27.544,3.105-42.366c-12.28-23.877-42.712-29.043-61.418-9.889c-5.538,5.671-9.665,12.744-14.286,19.282
	c-24.589,34.79-64.181,49.902-105.687,40.276c-37.808-8.769-68.216-42.421-74.352-82.519C30.154,260.039,30.34,255.22,30.16,251.523
	z"/>
</svg>
