<?xml version="1.0" encoding="iso-8859-1"?>
<!-- Generator: Adobe Illustrator 19.0.0, SVG Export Plug-In . SVG Version: 6.00 Build 0)  -->
<svg version="1.1" id="Layer_1" xmlns="http://www.w3.org/2000/svg" xmlns:xlink="http://www.w3.org/1999/xlink" x="0px" y="0px"
	 viewBox="0 0 500 500" enable-background="new 0 0 500 500" xml:space="preserve">
<path d="M250.735,425.645c30.126-69.216,60.1-138.08,90.15-207.121c-0.686-0.25-1.267-0.483-1.861-0.675
	c-25.798-8.365-51.597-16.728-77.396-25.089c-58.594-18.988-117.187-37.981-175.787-56.952c-5.555-1.798-9.427-5.313-11.74-10.675
	C62.449,98.118,50.753,71.12,39.115,44.098c-0.548-1.272-0.829-2.701-1.004-4.085c-1.839-14.551,8.658-28.614,23.1-30.93
	c1.792-0.287,3.636-0.358,5.456-0.359c48.526-0.019,97.051-0.015,145.577-0.015c73.907,0,147.815,0.004,221.722-0.007
	c6.64-0.001,12.677,1.782,17.93,5.897c5.722,4.482,8.757,10.494,9.759,17.607c0.632,4.485,0.313,8.932-0.688,13.33
	c-0.272,1.197-0.64,2.394-1.137,3.514c-12.558,28.291-25.139,56.571-37.717,84.852c-0.214,0.481-0.447,0.953-0.762,1.624
	c-11.31-4.035-22.584-8.056-34.106-12.167c10.548-25.165,21.041-50.2,31.541-75.251c-1.383-0.386-332.848-0.541-336.16-0.178
	c0.177,0.507,0.32,0.995,0.514,1.461c7.705,18.527,15.423,37.048,23.1,55.586c0.433,1.046,1.08,1.524,2.113,1.844
	c25.006,7.747,50.004,15.522,75.003,23.29c60.505,18.801,121.01,37.6,181.515,56.401c10.056,3.125,20.11,6.254,30.165,9.383
	c0.605,0.188,1.208,0.386,1.957,0.625c-0.302,0.725-0.53,1.311-0.787,1.884c-39.38,87.591-78.761,175.183-118.153,262.769
	c-1.423,3.164-2.805,6.363-4.484,9.391c-3.97,7.159-9.3,13.092-16.107,17.753c-4.632,3.172-8.93,3.167-13.553,0.046
	c-8.627-5.824-15.145-13.423-19.374-22.882c-6.581-14.719-12.969-29.523-19.43-44.295c-32.426-74.129-64.849-148.26-97.272-222.391
	c-0.257-0.587-0.5-1.181-0.854-2.021c0.595,0.171,0.972,0.238,1.315,0.384c16.176,6.92,32.345,13.856,48.533,20.749
	c1.041,0.443,1.508,1.186,1.925,2.119c13.559,30.357,27.129,60.71,40.695,91.064c16.758,37.497,33.515,74.996,50.275,112.492
	C249.974,424.15,250.268,424.699,250.735,425.645z"/>
</svg>
