<?xml version="1.0" encoding="iso-8859-1"?>
<!-- Generator: Adobe Illustrator 19.0.0, SVG Export Plug-In . SVG Version: 6.00 Build 0)  -->
<svg version="1.1" id="Layer_1" xmlns="http://www.w3.org/2000/svg" xmlns:xlink="http://www.w3.org/1999/xlink" x="0px" y="0px"
	 viewBox="0 0 500 500" enable-background="new 0 0 500 500" xml:space="preserve">
<path d="M464.942,393.904c0-48.468,0-96.477,0-145.331c-20.229-11.646-40.63-23.391-61.068-35.158c0-8.445,0-17.192,0-27.618
	c28.949,15.164,55.236,32.833,83.602,47.344c0,57.559,0,115.476,0,174.515c-2.598,1.819-139.415,82.135-143.697,84.249
	c-5.627,2.779-10.978-0.061-15.022-2.93c-11.116-7.887-63.644-37.406-78.423-46.062c-5.735,3.845-56.467,32.425-74.158,44.277
	c-11.2,7.503-20.49,4.893-30.178-1.204c-15.51-9.76-127.593-74.76-132-77.501c0-59.077,0-117.37,0-174.875
	c13.062-7.651,76.777-44.308,89.281-51.062c0-30.482,0-61.667,0-92.352c14.424-8.661,137.791-79.788,149.135-85.854
	c19.299,10.856,132.463,76.003,147.703,84.751c0,58.093,0,116.365,0,175.71c-27.638,15.976-56.168,32.467-85.832,49.614
	c0-10.408,0-19.155,0-28.056c20.64-11.836,41.751-23.942,63.549-36.442c0-16.283,0-33.445,0-51.313
	c-12.59-7.56-25.695-15.429-38.403-23.06c-21.935,12.798-43.402,25.323-64.421,37.587c11.809,6.92,23.836,13.968,35.582,20.851
	c0,58.157,0,115.088,0,173.434c-9.411,9.846-23.963,13.618-35.464,22.066c21.29,12.326,42.976,24.881,64.144,37.136
	C381.432,442.226,423.211,418.051,464.942,393.904z M226.043,429.577c-11.763-7.164-23.975-14.601-35.764-21.782
	c0-31.859,0-62.67,0-93.438c-29.083-16.769-58.097-33.497-87.444-50.418c0-17.347,0-34.482,0-53.507
	c-23.071,13.207-44.895,25.701-66.499,38.069c0,48.932,0,96.918,0,144.723c0.841,0.841,1.397,1.683,2.178,2.136
	c15.438,8.951,101.165,58.016,115.432,66.374c5.448,3.192,10.084,3.804,16.025,0.131
	C184.387,452.951,222.349,431.73,226.043,429.577z M377.998,104.476L252.403,32.322l-126.565,72.456c0,0-0.835,52.213,0.853,63.77
	c13.048-7.61,24.681-14.394,35.472-20.687c29.95,17.305,59.315,34.273,88.761,51.287c30.189-17.525,59.521-34.552,88.143-51.168
	c12.993,7.424,25.628,14.643,38.929,22.244C377.998,147.314,377.998,104.476,377.998,104.476z M189.94,234.716
	c12.085-7.103,24.317-14.292,36.542-21.477c-21.592-12.582-43.036-25.078-64.126-37.368c-12.202,7.039-24.27,14.001-36.061,20.803
	c0,18.019,0,36.106,0,52.905c21.441,12.356,41.996,24.202,63.646,36.679C189.94,268.281,189.94,252.06,189.94,234.716z
	 M253.81,322.008c12.569-7.645,23.76-14.452,34.235-20.824c0-17.954,0-35.072,0-52.176c-12.676-7.601-25.022-15.004-36.818-22.077
	c-12.798,7.379-25.594,14.757-38.183,22.016c0,16.822,0,33.009,0,49.557C225.735,307.873,239.292,315.642,253.81,322.008z
	 M250.651,415.009c12.922-7.235,25.417-14.231,37.857-21.197c0-21.088,0.004-41.592-0.028-62.096
	c-0.001-0.373-0.368-0.803-0.668-1.101c-0.242-0.241-0.642-0.322-0.596-0.301c-11.955,6.676-23.694,13.232-35.195,19.654
	c-13.279-7.627-25.929-14.892-38.909-22.348c0,22,0,43.812,0,66.38C225.243,400.79,237.739,407.783,250.651,415.009z"/>
</svg>
