<?xml version="1.0" encoding="iso-8859-1"?>
<!-- Generator: Adobe Illustrator 19.0.0, SVG Export Plug-In . SVG Version: 6.00 Build 0)  -->
<svg version="1.1" id="Layer_1" xmlns="http://www.w3.org/2000/svg" xmlns:xlink="http://www.w3.org/1999/xlink" x="0px" y="0px"
	 viewBox="0 0 500 500" enable-background="new 0 0 500 500" xml:space="preserve">
<path d="M263.422,6.016c107.309,1.919,230.369,93.896,230.647,242.961c0.269,144.121-117.317,241.96-235.254,244.013
	c6.173-9,11.948-17.824,18.246-26.256c1.241-1.661,4.437-2.174,6.842-2.607c97.251-17.514,167.571-89.88,181.682-187.058
	c16.243-111.852-64.733-222.793-176.488-241.795c-3.518-0.598-7.023-1.325-10.564-1.73c-14.659-1.675-14.977-1.991-15.108-17.298
	C263.398,13.061,263.422,9.874,263.422,6.016z M6.316,261.744C12.68,400.009,128.904,490.438,236.44,492.627
	c0-4.459-0.141-8.917,0.03-13.363c0.327-8.506-1.672-14.181-12.121-13.959c-6.365,0.135-12.816-1.765-19.161-3.075
	C97.61,440.01,21.952,336.299,33.813,227.382c10.646-97.767,83.704-175.653,180.293-192.433c3.552-0.617,7.899-2.076,9.988-4.666
	c6.024-7.468,11.08-15.717,17.076-24.477C122.309,7.094-0.668,109.984,6.316,261.744z M357.239,268.593
	c-5.002-12.075-11.901-24.218-20.795-33.629c-13.934-14.744-29.544-28.194-45.796-40.392c-27.499-20.639-53.485-42.54-69.541-73.56
	c-6.377-12.321-10.035-26.049-15.076-39.525c-10.931,12.786-21.238,26.626-24.643,43.864c-5.482,27.759,5.168,51.702,22.996,71.437
	c15.072,16.683,32.642,31.454,50.591,45.121c38.191,29.082,71.843,60.92,80.94,112.08
	C364.155,322.774,369.739,298.768,357.239,268.593z M136.509,209.403c2.172,18.305,9.987,34.068,20.768,48.626
	c16.913,22.839,40.202,38.38,62.403,55.333c35.182,26.865,64.604,58.132,72.242,106.276c12.286-14.49,22.698-28.522,26.169-45.965
	c5.453-27.398-5.022-51.226-22.678-70.651c-15.782-17.363-34.223-32.618-52.89-46.985c-37.577-28.923-70.37-60.736-79.227-111.988
	C147.437,164.408,133.411,183.297,136.509,209.403z M288.092,62.438c85.835,17.833,149.23,91.85,152.827,178.434
	c3.704,89.158-52.475,168.254-138.067,192.627c-12.239,3.485-17.712,9.203-18.593,20.924c79.592-8.573,177.989-87.298,173.53-212.39
	C453.568,123.582,356.751,48.7,270.76,43.594C276.06,59.008,277.154,60.166,288.092,62.438z M211.316,437.247
	c-84.872-17.29-148.93-91.184-152.691-175.351c-4.082-91.343,50.832-170.093,137.227-195.184
	c11.963-3.474,18.449-8.558,18.855-22.233C151.17,56.716,101.424,89.209,69.831,145.531C28.056,220.007,30.58,294.99,77.353,366.447
	c35.128,53.667,86.536,82.787,151.791,90.927C225.119,447.057,222.411,439.507,211.316,437.247z M165.973,368.743
	c39.361,29.735,75.1,61.571,83.18,113.632c29.194-24.528,35.776-61.793,17.125-96.059c-15.502-28.481-39.762-48.25-67.065-66.735
	C187.913,336.293,177.081,352.313,165.973,368.743z M225.19,94.852c11.774,37.388,39.678,60.942,70.736,82.786
	c11.451-16.956,22.292-33.01,33.285-49.29c-37.925-29.082-71.324-60.662-79.492-112.154
	C229.826,40.262,215.469,63.983,225.19,94.852z"/>
</svg>
