<?xml version="1.0" encoding="iso-8859-1"?>
<!-- Generator: Adobe Illustrator 19.0.0, SVG Export Plug-In . SVG Version: 6.00 Build 0)  -->
<svg version="1.1" id="Layer_1" xmlns="http://www.w3.org/2000/svg" xmlns:xlink="http://www.w3.org/1999/xlink" x="0px" y="0px"
	 viewBox="0 0 500 500" enable-background="new 0 0 500 500" xml:space="preserve">
<path d="M495.105,249.937c0.745,134.894-110.007,246.226-246.236,245.495c-65.959-0.354-123.311-23.528-170.425-69.567
	C26.047,374.663,1.394,311.584,4.157,238.342C8.804,115.129,111.969,0.364,257.463,4.088
	C385.76,7.372,495.544,113.321,495.105,249.937z M249.608,473.547c123.717,0.24,221.364-99.253,223.952-218.13
	c2.827-129.866-101.928-228.003-220.402-229.478C126.019,24.356,27.377,126.419,25.571,245.808
	C23.64,373.511,127.066,474.22,249.608,473.547z M249.594,459.285C136.01,460.474,36.12,365.834,39.846,242.541
	c3.283-108.636,92.978-203.613,212.617-202.489c111.951,1.053,208.609,93.303,206.924,213.216
	C457.807,365.713,365.281,459.973,249.594,459.285z M120.319,170.163c0.969,2.043,1.658,3.577,2.415,5.077
	c11.601,23.013,23.119,46.068,34.902,68.987c2.149,4.18,1.865,7.423-0.256,11.53c-12.548,24.301-24.796,48.757-37.26,73.388
	c43.304,29.564,86.477,59.038,129.49,88.404c43.505-29.727,86.724-59.258,129.921-88.774c-1.44-2.2-2.391-3.395-3.069-4.73
	c-12.029-23.671-24.082-47.331-35.91-71.102c-0.854-1.716-0.711-4.608,0.146-6.386c5.952-12.356,12.216-24.562,18.38-36.816
	c6.598-13.118,13.195-26.236,19.828-39.424c-42.17-28.808-83.957-57.312-125.663-85.935c-2.822-1.937-4.684-1.807-7.446,0.12
	c-17.952,12.527-36.012,24.9-54.102,37.227C167.993,137.88,144.23,153.943,120.319,170.163z M232.337,146.367
	c-16.398,32.489-32.652,65.051-49.252,97.436c-2.231,4.353-2.343,7.657-0.12,11.916c12.412,23.784,24.678,47.645,36.801,71.578
	c8.704,17.183,17.088,34.528,25.662,51.778c1.211,2.437,2.686,4.742,4.216,7.418c0.901-1.492,1.478-2.322,1.93-3.214
	c11.186-22.048,22.36-44.102,33.534-66.156c10.541-20.803,21.14-41.577,31.526-62.458c1.058-2.128,1.925-5.435,1.021-7.288
	c-9.05-18.572-18.511-36.944-27.813-55.394c-9.062-17.974-18.037-35.991-27.124-53.952c-4.159-8.22-8.493-16.351-13.178-25.349
	C243.49,124.519,237.863,135.418,232.337,146.367z M274.18,121.691c18.105,35.877,36.21,71.755,54.72,108.433
	c8.307-16.334,16.131-31.459,23.701-46.71c3.669-7.391,3.365-7.366-3.408-11.984c-17.339-11.821-34.562-23.811-51.889-35.651
	c-7.389-5.049-14.92-9.892-22.387-14.828C274.671,121.199,274.425,121.445,274.18,121.691z M224.261,121.062
	c-1.275,0.729-2.605,1.377-3.816,2.202c-7.457,5.08-14.882,10.206-22.326,15.304c-17.223,11.794-34.426,23.618-51.703,35.332
	c-2.583,1.751-3.162,3.227-1.563,6.174c4.322,7.969,8.249,16.152,12.34,24.247c4.181,8.272,8.371,16.539,13.085,25.848
	c18.557-36.796,36.618-72.609,54.68-108.423C224.726,121.518,224.494,121.29,224.261,121.062z M225.189,378.129
	c-18.174-35.951-36.349-71.902-54.664-108.131c-0.606,0.861-1.154,1.471-1.515,2.177c-7.757,15.118-15.21,30.402-23.386,45.289
	c-2.873,5.231-0.866,7.273,3.061,9.902c16.948,11.344,33.788,22.849,50.646,34.326c8.377,5.703,16.71,11.473,25.062,17.213
	C224.659,378.645,224.924,378.387,225.189,378.129z M273.761,378.505c0.935,0,1.133,0.063,1.239-0.009
	c26.172-17.782,52.36-35.54,78.417-53.489c1.011-0.696,1.531-3.567,0.966-4.843c-2.867-6.468-6.114-12.77-9.329-19.079
	c-5.238-10.279-10.554-20.518-16.14-31.361C310.348,306.344,292.133,342.27,273.761,378.505z"/>
</svg>
