<?xml version="1.0" encoding="iso-8859-1"?>
<!-- Generator: Adobe Illustrator 19.0.0, SVG Export Plug-In . SVG Version: 6.00 Build 0)  -->
<svg version="1.1" id="Layer_1" xmlns="http://www.w3.org/2000/svg" xmlns:xlink="http://www.w3.org/1999/xlink" x="0px" y="0px"
	 viewBox="0 0 2000 2000" style="enable-background:new 0 0 2000 2000;" xml:space="preserve">
<path d="M1699.802,992.84c-1.392,17.664-10.891,27.613-20.947,37.66c-235.798,235.604-471.48,471.325-707.182,707.026
	c-26.125,26.125-53.329,51.279-78.029,78.688c-20.312,22.54-49.701,21.177-70.01,0.584
	c-116.932-118.57-235.07-235.951-352.933-353.602c-126.477-126.25-253.128-252.324-379.631-378.546
	c-20.882-20.836-41.824-41.641-61.961-63.188c-19.412-20.771-18.719-36.799,0.841-57.335c2.83-2.972,5.782-5.829,8.684-8.731
	c260.085-260.088,520.17-520.174,780.255-780.262c3.483-3.483,6.799-7.151,10.461-10.434c17.957-16.099,38.813-16.707,56.625-0.115
	c21.578,20.1,42.286,41.144,63.151,61.998c243.706,243.577,487.321,487.243,731.203,730.643
	C1691.344,968.216,1696.244,981.222,1699.802,992.84z M1011.667,1113.68c-0.27-1.952-0.54-3.903-0.811-5.854
	c7.64-1.249,15.25-3.305,22.925-3.582c16.405-0.591,32.854,0.118,49.264-0.395c25.218-0.788,33.079-7.282,42.068-34.822
	c-3.63-6.402-7.976-14.068-11.119-19.613c-28.028-17.845-59.389-2.479-85.904-15.43c5.576-2.752,10.941-3.695,16.318-3.764
	c16.423-0.211,32.959,1.03,49.229-0.561c8.206-0.802,17.943-4.615,23.396-10.434c7.823-8.346,10.874-19.644,4.629-31.678
	c-5.976-11.515-14.757-16.653-27.594-16.611c-54.203,0.175-108.436,1.182-162.602-0.245c-56.409-1.485-54.882,10.691-72.876,50.851
	c-2.3,5.132-3.111,10.914-5.189,16.166c-5.936,14.998-11.809,30.04-18.373,44.767c-9.955,22.336-39.37,38.053-67.33,32.504
	c-49.618-9.848-63.993-50.975-54.969-87.476c6.394-25.864,14.335-51.343,20.947-77.158c1.457-5.69,0.213-12.071,0.213-18.984
	c-30.85,4.04-53.949,16.361-68.589,43.21c-15.681,28.759-25.51,59.636-33.109,91.083c-4.665,19.304-9.658,37.753-24.972,55.737
	c-26.531,13.483-55.884,28.4-84.522,42.954c56.359,56.289,111.265,111.126,167.943,167.733c8.099-3.828,18.779-8.874,31.039-14.668
	c-9.361-31.378-8.694-60.699,15.891-85.858c24.841-25.422,52.775-29.192,81.193-16.386c13.942-2.376,26.336-8.32,35.979-5.345
	c20.962,6.467,41.386,2.104,62.01,2.852c11.989,0.435,23.917,2.571,39.38,4.344c33.342-14.17,63.097-1.317,87.311,24.696
	c21.087,0.932,41.123,3.257,49.66-19.709c6.629-17.834-3.966-29.133-15.819-38.652c-22.982-1.406-45.209,2.304-65.167-10.772
	c26.973,0,53.947,0,79.444,0c7.778-6.474,14.002-11.654,17.863-14.867c1.17-37.866-5.88-44.855-38.89-44.113
	C1050.919,1114.04,1031.288,1113.68,1011.667,1113.68z M1022.128,696.641c-17.758,27.392-35.491,50.732-48.802,76.368
	c-14.212,27.373-36.661,34.327-64.174,35.477c-22.052,0.921-44.029,3.63-66.081,4.528c-28.965,1.18-46.307,14.99-53.845,43.29
	c-14.147,53.113-29.175,105.998-44.372,158.823c-5.071,17.628-7.079,35.058-3.118,53.602c5.73,5.298,11.653,10.774,16.723,15.461
	c11.58,0,21.428,0,30.984,0c14.647-5.086,22.49-15.508,26.563-29.847c5.728-20.17,10.927-40.64,18.695-60.043
	c9.18-22.93,10.834-50.219,39.131-67.828c8.258-0.739,21.187-2.829,34.126-2.896c65.645-0.341,131.293-0.157,193.808-0.157
	c33.958-21.028,46.941-53.642,67.707-79.484C1119.681,794.16,1071.658,746.153,1022.128,696.641z M819.777,1310.403
	c5.313,8.948,9.746,16.415,14.938,25.161c8.516,0,17.979,2.768,23.918-0.627c9.718-5.555,17.142-15.121,26.598-23.994
	c5.869,13.372,11.624,27.203,30.841,29.19c4.546-2.653,11.735-5.376,16.881-10.255c5.49-5.205,9.049-12.447,13.714-19.179
	c29.935,42.862,48.869,40.857,74.198-7.189c-0.119-17.116,3.902-35.602-11.351-50.128c-7.737-3.736-15.68-7.573-25.091-12.118
	c-11.504,6.09-23.508,12.444-33.442,17.703c-10.877-5.745-21.235-15.387-31.923-15.769c-12.408-0.443-25.107,7.241-39.257,11.918
	c-3.611-3.085-9.147-7.814-14.403-12.304c-9.677,0-18.573,0-27.163,0c-6.337,4.715-12.126,9.023-18.638,13.868
	c-3.075-2.782-5.812-5.673-8.95-8.03c-24.912-18.714-60.476-3.127-61.377,27.146c-0.352,11.812,1.059,24.517,5.244,35.447
	c8.258,21.568,16.784,25.145,44,22.449C804.455,1327.187,811.411,1319.567,819.777,1310.403z M1966.067,954.743
	c-89.563-89.785-179.124-179.573-268.959-269.086c-56.835-56.631-114.285-112.643-171.167-169.227
	c-49.058-48.801-97.725-97.997-146.524-147.058c-46.099-46.348-92.027-92.867-138.266-139.075
	c-22.493-22.478-45.011-44.979-68.485-66.411c-16.58-15.138-36.09-16.059-50.807-2.18c-20.945,19.753-40.431,41.053-62.535,63.74
	c5.89,5.137,12.376,10.168,18.146,15.918c239.987,239.125,479.912,478.311,719.836,717.499c21.598,21.531,22.888,40.364,4.289,64.83
	c-2.943,3.872-6.694,7.144-10.168,10.595c-44.042,43.753-88.208,87.382-132.131,131.254
	c-65.989,65.911-131.79,132.012-197.71,197.992c-82.508,82.582-164.986,165.194-247.62,247.649
	c-32.75,32.679-66.041,64.816-98.786,97.501c-18.68,18.645-36.756,37.896-55.619,57.408c26.767,22.567,46.338,50.378,72.856,66.678
	c11.898,0,20.86,0,30.925,0c45.063-44.273,90.524-88.537,135.537-133.252c71.023-70.553,141.7-141.454,212.61-212.121
	c64.778-64.556,129.795-128.872,194.481-193.521c85.667-85.619,171.166-171.405,256.58-257.277
	c9.111-9.16,17.172-19.366,24.354-27.533c0-11.111,0-19.311,0-30.818C1980.103,970.536,1973.516,962.21,1966.067,954.743z"/>
</svg>
