<?xml version="1.0" encoding="iso-8859-1"?>
<!-- Generator: Adobe Illustrator 19.0.0, SVG Export Plug-In . SVG Version: 6.00 Build 0)  -->
<svg version="1.1" id="Layer_1" xmlns="http://www.w3.org/2000/svg" xmlns:xlink="http://www.w3.org/1999/xlink" x="0px" y="0px"
	 viewBox="0 0 2000 2000" style="enable-background:new 0 0 2000 2000;" xml:space="preserve">
<path d="M1983.524,998.694c-6.671,27.962-9.438,56.163-19.978,81.076c-76.468,180.75-154.416,360.874-232.097,541.11
	c-23.644,54.859-63.587,92.783-119.43,114.591c-181.33,70.814-362.672,141.602-543.63,213.358
	c-56.554,22.425-110.499,13.06-164.13-7.845c-172.033-67.058-343.877-134.597-515.836-201.843
	c-61.148-23.912-104.115-65.22-129.945-126.447c-75.347-178.599-151.931-356.679-228.644-534.698
	c-23.307-54.087-23.502-107.74-0.632-161.297c77.43-181.326,154.983-362.603,233.344-543.528
	c23.058-53.237,61.971-91.339,116.89-112.758C556.653,191.3,733.734,121.836,910.757,52.227
	c54.179-21.304,108.506-23.651,162.955-2.424c183.442,71.514,367.042,142.641,549.908,215.603
	c50.599,20.188,85.248,59.242,106.927,109.606c77.413,179.848,155.608,359.363,232.045,539.624
	C1973.597,940.588,1976.588,969.938,1983.524,998.694z M1022.458,438.805c-201.374,1.054-362.001,95.249-382.511,278.025
	c-11.268,100.419,10.589,190.259,95.94,255.347c69.934,53.331,153.453,73.167,235.454,97.864
	c71.777,21.617,145.261,41.498,212.249,73.986c67.596,32.782,74.98,121.43,23.607,176.8
	c-38.129,41.095-88.444,54.234-141.221,57.011c-117.274,6.172-219.541-34.318-311.434-105.137
	c-44.166-34.037-104.768-28.027-134.772,11.927c-32.044,42.67-19.753,99.151,29.242,132.641
	c138.477,94.653,289.049,140.682,458.692,122.9c161.058-16.883,300.757-106.942,318.148-284.097
	c8.115-82.67-7.793-159.683-68.5-221.388c-72.568-73.762-168.547-99.139-263.822-126.4c-64.92-18.576-129.849-37.812-193.135-61.19
	c-49.748-18.377-76.644-59.532-74.386-112.162c2.279-53.102,31.951-90.131,82.981-110.101
	c59.741-23.379,120.946-25.012,180.037-5.454c54.313,17.976,106.41,43.61,157.748,69.335
	c46.839,23.47,102.534,13.374,127.157-27.715c27.398-45.718,12.692-96.317-34.674-126.565
	C1237.913,469.709,1126.714,440.332,1022.458,438.805z"/>
</svg>
