<?xml version="1.0" encoding="iso-8859-1"?>
<!-- Generator: Adobe Illustrator 19.0.0, SVG Export Plug-In . SVG Version: 6.00 Build 0)  -->
<svg version="1.1" id="Layer_1" xmlns="http://www.w3.org/2000/svg" xmlns:xlink="http://www.w3.org/1999/xlink" x="0px" y="0px"
	 viewBox="0 0 2000 2000" style="enable-background:new 0 0 2000 2000;" xml:space="preserve">
<path d="M1171.067,1977.086c-84.793,0-169.585,0-254.378,0c-85.012-15.009-164.864-43.878-243.004-81.028
	c-123.226-58.584-237.928-128.796-336.117-223.992c-25.203-24.435-55.357-49.564-67.097-80.5
	c-12.457-32.826-33.915-54.177-55.301-77.764c-14.258-15.725-31.758-28.777-44.482-45.548
	c-12.222-16.109-19.571-35.821-30.081-53.338c-60.14-100.242-89.103-207.87-80.703-325.323c3.777-52.813,3.66-105.893,6.17-158.812
	c4.631-97.618,22.989-191.72,62.036-282.45c69.964-162.568,170.257-302.316,307.124-413.938
	c105.33-85.902,228.301-139.45,359.074-173.779c164.85-43.274,326.873-36.42,479.49,33.587c13.697-4.755,24.935-12.826,34.72-11.339
	c44.811,6.81,85.739,19.174,118.733,56.471c23.523,26.59,57.641,44.471,88.724,63.467c19.226,11.75,44.885,14.313,61.83,28.14
	c24.826,20.259,42.723,48.784,66.539,70.539c145.779,133.165,243.066,294.593,281.643,488.646
	c48.101,241.959,12.56,470.385-120.199,680.902c-22.45,35.598-46.712,70.054-70.136,105.038c0,0,1.446-1.428,1.446-1.428
	c-58.07,54.048-116.139,108.096-174.209,162.144c1,1.697,2,3.394,3.001,5.09c47.107-32.576,94.214-65.153,141.321-97.729
	c1.273,0.923,2.546,1.846,3.818,2.77c-4.774,7.88-9.548,15.76-14.698,24.263c8.813,2.726,14.828,4.587,18.39,5.689
	c0,13.792,0,25.604,0,43.457c-12.962,2.438-26.549,4.995-46.833,8.811c-43.993,33.26-94.023,71.085-144.053,108.909
	c1.486,2.489,2.971,4.978,4.457,7.467c9.469-1.113,18.939-2.225,28.408-3.338c-76.673,54.57-157.082,96.804-272.912,101.928
	C1259.292,1951.267,1215.18,1964.176,1171.067,1977.086z M959.856,1727.447c-13.979-16.726-22.107-27.208-31.008-36.988
	c-105.368-115.764-133.551-251.122-97.063-400.318c30.651-125.329,102.205-225.64,203.786-303.873
	c63.918-49.226,129.502-95.916,178.194-161.924c52.805-71.582,86.393-149.695,76.679-240.091
	c-19.566-182.069-157.657-306.157-340.389-306.039c-178.852,0.116-333.311,66.667-454.722,194.693
	C289.175,690.3,236.926,948.931,338.581,1228.099c96.691,265.537,293.359,428.33,570.159,491.499
	C922.757,1722.796,937.222,1724.033,959.856,1727.447z M1428.739,1284.187c-14.458-16.839-22.382-27.537-31.76-36.755
	c-65.146-64.04-160.583-73.465-232.408-23.336c-76.155,53.151-102.768,144.744-66.195,227.827
	c32.185,73.116,109.685,116.699,189.943,106.818c84.252-10.373,142.598-66.079,158.537-153.018
	c20.664-112.714,40.249-225.624,60.708-338.376c10.899-60.066,22.661-119.975,35.468-187.518
	c45.11,3.948,88.405,1.489,127.657,12.916c39.91,11.618,75.836,36.922,113.072,56.01c-8.911-93.933-146.229-156.853-267.638-134.028
	C1487.665,967.611,1459.068,1121.243,1428.739,1284.187z M1121.833,15.914c4.388,4.583,8.324,12.549,13.238,13.206
	c35.166,4.704,70.531,7.92,105.833,11.609c0.396-1.747,0.791-3.495,1.187-5.242c-15.469-6.524-30.937-13.048-46.406-19.573
	C1171.067,15.914,1146.45,15.914,1121.833,15.914z M1737.1,1574.637c1.029,5.84,2.057,11.681,4.988,28.317
	c88.146-89.866,158.266-179.691,191.279-294.332c-4.922,0.705-8.711,2.579-10.013,5.545
	c-41.498,94.549-110.626,170.277-171.503,251.588c-3.588,4.792-10.716,6.935-16.196,10.31
	C1735.654,1576.065,1737.099,1574.637,1737.1,1574.637z M713.14,1935.141c-45.863-15.8-91.726-31.6-137.59-47.4
	c37.384,38.328,87.092,44.195,133.789,57.977C710.606,1942.192,711.873,1938.666,713.14,1935.141z M844.206,850.624
	c101.875-1.178,182.179-82.768,181.035-183.935c-1.144-101.196-83.294-182.672-183.371-181.868
	c-100.861,0.81-180.987,82.473-180.636,184.1C661.583,770.125,743.814,851.785,844.206,850.624z"/>
</svg>
