<?xml version="1.0" encoding="iso-8859-1"?>
<!-- Generator: Adobe Illustrator 19.0.0, SVG Export Plug-In . SVG Version: 6.00 Build 0)  -->
<svg version="1.1" id="Layer_1" xmlns="http://www.w3.org/2000/svg" xmlns:xlink="http://www.w3.org/1999/xlink" x="0px" y="0px"
	 viewBox="0 0 2000 2000" style="enable-background:new 0 0 2000 2000;" xml:space="preserve">
<path d="M301.658,416.194c103.609,0,206.495,0,310.178,0c0-86.101,0-171.459,0-257.507c-23.213-22.873-47.096-46.408-70.065-69.041
	c0-21.355,0-40.505,0-60.637c3.83,0,7.171,0,10.512,0c62.528,0,125.056-0.093,187.583,0.167c5.319,0.022,11.086,1.483,15.864,3.851
	c23.383,11.594,46.501,23.723,70.441,36.038c0,115.237,0,230.533,0,345.991c268.923,0,536.951,0,805.074,0
	c26.086,26.091,52.647,52.657,79.677,79.692c-163.089,163.065-326.62,326.574-490.152,490.082c0.327,0.372,0.654,0.744,0.982,1.116
	c14.539-4.18,29.047-8.473,43.623-12.52c46.736-12.977,92.63-6.899,137.722,7.523c70.628,22.59,136.868,54.056,189.931,107.165
	c65.485,65.541,105.211,145.61,124.84,235.712c10.947,50.248,17.513,101.132,16.443,152.717
	c-1.83,88.279-20.804,172.548-59.665,252.093c-46.267,94.704-119.982,159.267-216.96,198.769
	c-87.416,35.607-178.186,48.629-272.127,43.435c-56.268-3.111-111.284-11.63-163.812-32.778
	c-115.036-46.315-198.362-168.788-195.506-287.535c1.216-50.558,21.88-90.14,67.759-114.098
	c25.604-13.37,53.534-15.857,81.805-13.218c70.276,6.559,114.787,54.453,117.172,125.016c1.332,39.406-6.214,76.047-35.877,104.21
	c-12.817,12.168-28.591,21.22-44.275,32.597c6.009,5.902,13.138,13.971,21.332,20.753c23.843,19.737,52.44,29.174,81.942,36.385
	c53.656,13.116,107.931,19.797,162.69,9.428c98.97-18.74,166.897-76.063,204.207-169.371
	c28.247-70.642,37.703-144.623,37.486-220.229c-0.193-67.316-7.735-133.442-30.752-197.149
	c-18.578-51.421-44.568-98.344-88.74-132.18c-60.007-45.965-127.722-67.653-203.566-56.498
	c-35.111,5.164-66.624,21.487-97.919,37.686c-32.839,16.999-66.016,33.345-99.064,49.938c-1.303,0.654-2.806,0.911-5.035,1.609
	c0-15.607-0.301-30.498,0.235-45.358c0.118-3.262,2.838-6.699,4.997-9.579c142.119-189.616,284.304-379.182,426.48-568.755
	c2.536-3.381,5.043-6.784,8.47-11.399c-203.752,0-405.762,0-609.028,0c-0.148,2.979-0.452,6.236-0.452,9.494
	c-0.02,199.716-0.04,399.432,0.009,599.149c0.009,35.175,5.168,69.345,19.991,101.687c26.03,56.797,72.694,77.518,133.323,71.498
	c37.55-3.729,69.189-21.079,97.91-44.498c29.109-23.736,54.72-50.625,74.784-82.601c12.014-19.146,38.113-18.634,53.778,1.148
	c10.044,12.684,14.176,27.17,12.401,43.605c-3.961,36.671-23.733,65.935-45.229,93.652
	c-54.568,70.363-126.859,105.91-216.278,105.453c-48.94-0.25-97.45-4.307-145.402-14.931
	c-110.243-24.426-172.348-94.489-192.445-203.473c-4.647-25.202-5.988-51.314-6.05-77.014
	c-0.477-196.915-0.262-393.832-0.262-590.748c0-3.963,0-7.926,0-12.804c-104.083,0-207.21,0-310.979,0
	C301.658,491.843,301.658,454.673,301.658,416.194z"/>
</svg>
