<?xml version="1.0" encoding="iso-8859-1"?>
<!-- Generator: Adobe Illustrator 19.0.0, SVG Export Plug-In . SVG Version: 6.00 Build 0)  -->
<svg version="1.1" id="Layer_1" xmlns="http://www.w3.org/2000/svg" xmlns:xlink="http://www.w3.org/1999/xlink" x="0px" y="0px"
	 viewBox="0 0 500 500" style="enable-background:new 0 0 500 500;" xml:space="preserve">
<path d="M360.315,36.002c9.409-0.093,14.985,3.509,19.671,11.544c20.162,34.57,95.611,160.418,112.76,189.013
	c3.258,5.433,3.417,10.663,0.119,16.25c-28.962,49.069-104.732,177.503-113.102,192.948c-4.512,8.327-10.696,11.197-19.903,11.159
	c-58.038-0.237-205.117-0.234-220.609,0.061c-8.092,0.154-13.469-2.69-17.738-9.948C86.933,388.227,10.781,259.965,7.335,254.619
	C3.811,249.151,3.952,244,7.258,238.431c14.393-24.244,28.646-48.57,42.918-72.886c23.016-39.216,46.166-78.354,68.864-117.753
	c4.274-7.419,9.064-10.844,17.96-10.805C163.428,37.101,323.247,36.367,360.315,36.002z M178.769,313.057
	c-0.265-0.001-0.529-0.003-0.794-0.004c0,4.855,0.034,9.711-0.016,14.565c-0.021,2.057,0.56,3.242,2.847,3.794
	c9.913,2.391,18.778,6.662,25.695,14.516c0.836,0.949,3.262,1.135,4.709,0.754c1.99-0.523,3.764-1.896,5.604-2.952
	c26.266-15.076,113.925-65.525,131.573-75.523c3.702-2.097,5.051-4.047,3.328-8.576c-3.668-9.64-3.729-19.687-0.087-29.383
	c1.386-3.691,0.822-5.637-2.55-7.236c-1.633-0.774-117.4-66.682-135.05-76.679c-5.303-3.004-5.537-3.113-9.822,1.336
	c-4.806,4.99-10.846,7.69-17.096,9.986c-6.903,2.535-7.028,2.352-7.085,8.868C179.591,215.367,179.184,264.212,178.769,313.057z
	 M352.212,431.623c2.206-0.915,5.688-1.243,6.776-3.03c2.772-4.549,5.489-9.565,6.43-14.722c4.35-23.837,8.045-47.794,12.061-71.693
	c2.51-14.934,5.089-29.858,7.825-44.752c0.724-3.943-0.495-5.697-4.173-7.49c-5.927-2.889-11.652-6.457-16.839-10.531
	c-5.99-4.704-5.726-5.129-12.083-1.484c-39.702,22.764-129.631,74.306-134.851,77.385c-1.832,1.08-3.418,2.202-2.43,5.041
	c2.32,6.671,3.066,13.6,1.943,20.613c-0.49,3.062,0.673,4.558,3.579,5.16c1.17,0.242,2.246,0.909,3.389,1.31
	c39.114,13.723,78.226,27.454,117.359,41.122C344.603,429.743,348.158,430.505,352.212,431.623z M170.023,164.715
	c0.054-3.779-0.707-6.019-5.119-6.954c-4.34-0.92-8.499-3.129-12.464-5.276c-6.05-3.277-6.026-3.555-11.364,0.81
	c-32.37,26.469-64.817,52.846-96.994,79.548c-13.422,11.139-13.473,15.992,0.236,27.857c20.861,18.055,42.155,35.61,63.303,53.333
	c9.987,8.37,20.122,16.565,30.053,25c2.729,2.318,4.501,2.33,7.719,0.313c5.055-3.169,10.68-5.926,16.436-7.324
	c4.63-1.124,5.632-3.045,5.696-7.252C167.923,298.386,169.867,175.613,170.023,164.715z M352.318,61.261
	c-3.75,1.061-7.572,1.918-11.239,3.215c-28.524,10.092-108.817,38.923-120.47,43.158c-2.817,1.024-4.233,2.392-3.955,5.976
	c0.392,5.046-0.014,10.234-0.742,15.266c-0.844,5.834-1.2,5.864,4.054,8.892c12.325,7.104,101.841,57.97,134.217,76.396
	c2.907,1.655,4.865,1.95,7.511-1.159c4.94-5.804,11.207-10.151,18.431-12.946c5.981-2.314,5.919-2.347,4.871-8.424
	c-5.972-34.605-11.869-69.223-17.918-103.815c-1.291-7.38-1.78-14.983-6.571-21.45C358.328,63.43,356.468,61.113,352.318,61.261z
	 M398.658,210.772c-19.562-0.862-35.324,16.752-34.988,34.058c0.373,19.232,15.227,34.12,34.932,34.127
	c19.484,0.007,35.185-15.28,35.016-34.093C433.443,225.629,418.143,210.709,398.658,210.772z M57,208.668
	c5.074-4.206,56.563-46.345,77.198-63.252c5.434-4.452,5.204-4.457,2.612-11.049c-5.888-14.979-4.266-29.073,5.502-42.041
	c1.957-2.598,5.649-5.143,5.613-7.67c-0.045-3.182-3.042-6.356-4.875-9.468c-1.357-2.305-2.891-4.506-5.037-7.821
	C110.34,114.634,56.662,208.269,57,208.668z M148.255,430.991c55.937,0,110.362,0,165.947,0
	c-2.289-1.265-66.29-24.046-96.361-34.844c-4.413-1.585-5.7,0.322-7.8,3.296c-11.458,16.231-27.412,22.097-46.743,19.42
	c-7.824-1.084-7.789-1.284-11.361,5.441C150.965,426.133,149.941,427.934,148.255,430.991z M312.638,62.997
	c-54.146,0-108.773,0-164.626,0c3.042,4.908,5.476,8.37,7.416,12.09c2.013,3.859,4.129,4.587,8.647,3.367
	c18.193-4.912,35.491,1.491,46.179,16.97c2.263,3.278,3.676,3.555,7.119,2.311C248.064,86.647,312.085,63.33,312.638,62.997z
	 M462.68,252.069c-1.281-0.791-1.532-1.072-1.799-1.09c-1.503-0.1-3.009-0.191-4.515-0.186c-9.559,0.029-7.556-1.224-10.348,7.525
	c-6.168,19.327-21.075,31.908-42.443,34.702c-7.096,0.928-7.183,0.735-8.384,7.707c-4.984,28.932-14.686,88.933-14.469,91.261
	C408.411,344.72,435.455,298.549,462.68,252.069z M201.462,375.405c0.115-16.313-12.887-29.465-29.166-29.504
	c-15.926-0.037-30.65,13.506-30.223,28.886c0.476,17.155,13.02,28.797,29.595,29.348
	C188.516,404.695,202.756,389.381,201.462,375.405z M464.2,240.052c-28.148-47.135-55.593-93.094-83.517-139.854
	c-0.181,1.986,11.46,71.441,14.163,87.224c1.367,7.98,1.203,8.008,8.916,9.144c0.3,0.044,0.605,0.055,0.903,0.112
	c19.974,3.763,34.514,14.254,41.12,34.013c3.118,9.325,2.775,9.439,12.396,9.363C459.673,240.042,461.165,240.052,464.2,240.052z
	 M57.314,287.266c27.086,45.634,54.172,91.268,81.856,137.91c2.821-5.036,4.966-8.866,7.168-12.799
	c-1.13-1.01-1.995-1.851-2.929-2.607c-15.221-12.337-22.519-34.173-11.703-54.895c2.217-4.248,1.339-6.152-1.958-8.883
	C105.932,326.258,57.725,287.008,57.314,287.266z M175.322,145.035c14.764-0.044,28.385-12.816,27.527-27.031
	c-1.005-16.648-11.478-25.961-27.529-27.048c-13.991-0.947-27.304,12.415-27.605,26.103
	C147.385,132.066,160.228,145.08,175.322,145.035z"/>
</svg>
