<?xml version="1.0" encoding="iso-8859-1"?>
<!-- Generator: Adobe Illustrator 19.0.0, SVG Export Plug-In . SVG Version: 6.00 Build 0)  -->
<svg version="1.1" id="Layer_1" xmlns="http://www.w3.org/2000/svg" xmlns:xlink="http://www.w3.org/1999/xlink" x="0px" y="0px"
	 viewBox="0 0 500 500" style="enable-background:new 0 0 500 500;" xml:space="preserve">
<path id="XMLID_4_" d="M94.077,94.144c0,25.614,0,50.258,0,76.039c28.803,0,57.325,0,85.484,0
	C125.313,224.357,71.464,278.132,18.016,331.506c0-12.83,0.002-27.112,0-41.394c-0.014-77.51-0.036-155.021-0.042-232.532
	c-0.002-25.486,14.436-39.905,40.198-39.92c129.635-0.074,259.27-0.105,388.905-0.121c20.072-0.002,33.182,7.526,39.047,24.26
	c6.032,17.207,1.002,31.76-12.078,44.788C368.079,192.131,262.395,297.956,156.645,403.716c-2.275,2.275-4.311,4.788-7.501,8.355
	c88.42,0,175.182,0,262.628,0c0-25.385,0-50.264,0-76.295c-28.305,0-56.826,0-84.995,0
	c53.982-53.974,107.562-107.546,161.539-161.515c0,5.032-0.001,10.908,0,16.784c0.01,86.31,0.004,172.62,0.04,258.93
	c0.01,23.389-15.711,39.419-40.415,39.463c-129.632,0.229-259.264,0.263-388.896,0.02c-17.73-0.033-32.609-7.302-38.87-25.072
	c-5.862-16.637-1.605-31.233,11.289-44.074c107.199-106.762,214.151-213.772,321.16-320.724c1.376-1.376,2.521-2.984,4.575-5.443
	C268.986,94.144,181.967,94.144,94.077,94.144z"/>
</svg>
