<?xml version="1.0" encoding="iso-8859-1"?>
<!-- Generator: Adobe Illustrator 19.0.0, SVG Export Plug-In . SVG Version: 6.00 Build 0)  -->
<svg version="1.1" id="Layer_1" xmlns="http://www.w3.org/2000/svg" xmlns:xlink="http://www.w3.org/1999/xlink" x="0px" y="0px"
	 viewBox="0 0 500 500" enable-background="new 0 0 500 500" xml:space="preserve">
<path d="M250.069,492.955C115.715,492.972,7.193,384.362,7.003,250.069C6.813,116.162,116.193,6.153,251.584,7.005
	C384.915,7.844,493.607,116.706,493.05,251.581C492.5,384.464,383.706,492.938,250.069,492.955z M250.616,43.311
	C137.881,43.05,45.219,133.07,43.37,246.577c-1.886,115.829,91.022,209.184,205.218,210.137
	c113.604,0.948,207.132-90.961,208.084-204.888C457.626,137.741,366,43.851,250.616,43.311z M249.537,451.569
	c-109.31,0.123-201.155-88.418-201.183-201.424C48.327,138.242,138.955,48.263,250.031,48.346
	c111.678,0.084,201.743,91.158,201.619,201.926C451.526,361.595,360.474,452.226,249.537,451.569z M142.061,146.704
	c1.948,3.181,3.133,5.271,4.463,7.266c25.277,37.931,50.51,75.892,75.934,113.725c3.305,4.918,4.823,9.812,4.759,15.77
	c-0.26,24.286-0.109,48.577-0.11,72.866c0,2.863,0,5.727,0,8.442c12.899,1.543,37.935,1.062,44.035-0.855c0-2.743,0-5.679,0-8.614
	c0.001-24.289,0.102-48.579-0.077-72.867c-0.037-5.077,1.139-9.254,4.055-13.513c25.905-37.839,51.6-75.822,77.351-113.766
	c1.736-2.559,3.42-5.153,5.558-8.38c-17.668,0-34.079,0-50.671,0c-18.8,28.665-37.523,57.211-56.904,86.763
	c-19.525-29.745-38.395-58.491-57.002-86.837C176.052,146.704,159.626,146.704,142.061,146.704z"/>
</svg>
