<?xml version="1.0" encoding="utf-8"?>
<!-- Generator: Adobe Illustrator 25.1.0, SVG Export Plug-In . SVG Version: 6.00 Build 0)  -->
<svg version="1.1" id="Layer_1" xmlns="http://www.w3.org/2000/svg" xmlns:xlink="http://www.w3.org/1999/xlink" x="0px" y="0px"
	 viewBox="0 0 500 500" style="enable-background:new 0 0 500 500;" xml:space="preserve">
<path d="M250.1,5C114.9,5,5.3,114.6,5.3,249.8s109.6,244.8,244.8,244.8S494.9,385,494.9,249.8S385.3,5,250.1,5z M249.2,415.1
	c-42.5,0-77.1-34.6-77.1-77.1c0-12.2,2.8-23.9,8.2-34.6l-25.7,4.8l-4.1-21.6l70.9-13.3l9.2,69l-21.8,2.9l-5-37.4
	c-5.6,9-9.7,20.1-9.7,30.2c0,30.4,24.7,55.1,55.1,55.1c30.4,0,55.1-24.7,55.1-55.1c0-19.1-10.3-36.2-30.7-50.8l-0.1-0.1l-1.2-0.9
	v-27.3l14.1,10.4c26,18.7,39.8,42.5,39.9,68.7C326.3,380.5,291.7,415.1,249.2,415.1z M240.3,355.2V156.3h22v198.9H240.3z
	 M288.1,238.5l-18.9-67.3l21.2-5.9l9,32.2c3.5-8.6,4.6-19.8,4.8-24c-0.1-30.4-24.8-55-55.1-55c-30.4,0-55.1,24.7-55.1,55.1
	c0,18.3,9.1,35.4,24.3,45.7l0.3,0.2l11.7,8.6v27.3l-24.5-18C184.6,223,172,199.2,172,173.6c0-42.5,34.6-77.1,77.1-77.1
	s77.1,34.6,77.1,77.1v0.3c0,1.9-0.6,17.2-6.1,31.1l28.5-9.2l6.7,21L288.1,238.5z"/>
</svg>
