<?xml version="1.0" encoding="iso-8859-1"?>
<!-- Generator: Adobe Illustrator 19.0.0, SVG Export Plug-In . SVG Version: 6.00 Build 0)  -->
<svg version="1.1" id="Layer_1" xmlns="http://www.w3.org/2000/svg" xmlns:xlink="http://www.w3.org/1999/xlink" x="0px" y="0px"
	 viewBox="0 0 2000 2000" style="enable-background:new 0 0 2000 2000;" xml:space="preserve">
<path d="M1427.858,510.145c294.429-0.935,546.202,241.426,539.917,552.306c-5.771,285.493-238.228,528.295-540.649,528.186
	c-300.494-0.109-528.948-240.737-539.313-517.421C875.798,752.434,1133.991,508.537,1427.858,510.145z M1688.982,1050.559
	c1.783-140.474-113.575-266.499-271.469-262.544c-131.693,3.299-257.377,115.936-251.879,273.294
	c4.653,133.188,117.104,250.298,256.472,251.772C1574.703,1314.696,1690.362,1192.445,1688.982,1050.559z M247.696,1590.874
	c114.337,0.086,228.674-0.075,343.01,0.26c11.136,0.033,17.951-3.273,23.362-13.278c33.941-62.757,68.489-125.186,102.669-187.814
	c37.897-69.438,75.868-138.839,113.043-208.662c3.997-7.507,4.56-17.854,3.834-26.645c-1.369-16.586-7.07-33.008-7.002-49.482
	c0.185-45.2,1.198-90.473,4.201-135.562c3.024-45.403,16.409-88.878,32.19-131.273c19.568-52.569,46.93-101.164,80.411-146.227
	c45.034-60.611,99.338-111.226,163.563-151.049c15.001-9.301,30.269-18.17,45.414-27.238c-0.189-0.81-0.377-1.619-0.566-2.429
	c-110.198,0-220.397,0-331.25,0C757.36,627.412,694.451,742.785,630.257,860.515c-4.977-4.623-9.049-7.166-11.443-10.811
	c-72.107-109.739-144.131-219.532-215.835-329.534c-4.938-7.576-10.539-10.175-19.073-10.166
	c-115.97,0.122-231.94,0.027-347.909,0.129c-4.406,0.004-8.811,1.465-13.996,2.385c145.971,222.488,290.796,443.229,435.58,663.908
	c-75.532,138.177-149.862,274.155-225.389,412.322C239.319,1589.76,243.507,1590.871,247.696,1590.874z M1556.583,1105.717
	c-28.838,66.566-108.619,100.757-174.647,75c-96.902-37.801-121.92-157.012-47.576-229.388
	c41.839-40.731,96.24-47.82,141.471-30.804c45.744,17.209,74.934,50.534,89.371,97.199c1.367,4.419,6.157,10.882,9.613,11.047
	c21.407,1.022,42.887,0.514,63.867,0.514c5.143-16.427-5.704-54.199-24.855-85.949c-30.879-51.193-74.785-86.388-133.191-100.163
	c-126.944-29.94-246.141,50.438-263.118,177.714c-17.417,130.572,73.046,231.294,190.255,242.797
	c138.929,13.635,226.744-99.625,233.168-190.163c-24.004-0.906-47.849-1.161-72.212,0.557
	C1564.176,1086.006,1560.778,1096.034,1556.583,1105.717z"/>
</svg>
