<?xml version="1.0" encoding="utf-8"?>
<!-- Generator: Adobe Illustrator 25.1.0, SVG Export Plug-In . SVG Version: 6.00 Build 0)  -->
<svg version="1.1" id="Layer_1" xmlns="http://www.w3.org/2000/svg" xmlns:xlink="http://www.w3.org/1999/xlink" x="0px" y="0px"
	 viewBox="0 0 2500 2500" style="enable-background:new 0 0 2500 2500;" xml:space="preserve">
<ellipse transform="matrix(0.7071 -0.7071 0.7071 0.7071 -846.1686 1066.3882)" cx="864.2" cy="1554.6" rx="203.1" ry="203.1"/>
<circle cx="1252.9" cy="1165.9" r="203.1"/>
<circle cx="1641.6" cy="1554.6" r="203.1"/>
<circle cx="2030.4" cy="1165.9" r="203.1"/>
<circle cx="475.4" cy="1165.9" r="203.1"/>
<circle cx="669.8" cy="1360.2" r="72.5"/>
<ellipse transform="matrix(0.1602 -0.9871 0.9871 0.1602 -453.7026 2187.2166)" cx="1058.5" cy="1360.2" rx="72.5" ry="72.5"/>
<circle cx="1447.3" cy="1360.2" r="72.5"/>
<circle cx="1836" cy="1360.2" r="72.5"/>
<path d="M1250,2454.5c-162.6,0-320.4-31.8-468.9-94.7c-71.4-30.2-140.2-67.6-204.6-111.1c-63.8-43.1-123.8-92.6-178.3-147.1
	s-104-114.5-147.1-178.3c-43.5-64.4-80.9-133.2-111.1-204.6c-62.8-148.5-94.7-306.3-94.7-468.9c0-162.6,31.8-320.4,94.7-468.9
	c30.2-71.4,67.6-140.2,111.1-204.6c43.1-63.8,92.6-123.8,147.1-178.3s114.5-104,178.3-147.1c64.4-43.5,133.2-80.9,204.6-111.1
	c148.5-62.8,306.3-94.7,468.9-94.7c162.6,0,320.4,31.8,468.9,94.7c71.4,30.2,140.2,67.6,204.6,111.1
	c63.8,43.1,123.8,92.6,178.3,147.1s104,114.5,147.1,178.3c43.5,64.4,80.9,133.2,111.1,204.6c62.8,148.5,94.7,306.3,94.7,468.9
	c0,162.6-31.8,320.4-94.7,468.9c-30.2,71.4-67.6,140.2-111.1,204.6c-43.1,63.8-92.6,123.8-147.1,178.3s-114.5,104-178.3,147.1
	c-64.4,43.5-133.2,80.9-204.6,111.1C1570.4,2422.7,1412.6,2454.5,1250,2454.5z M1250,52.5c-161.7,0-318.5,31.7-466.1,94.1
	c-71,30-139.4,67.2-203.4,110.4c-63.4,42.8-123,92-177.2,146.2S299.8,517,257,580.4c-43.3,64-80.4,132.5-110.4,203.4
	C84.1,931.5,52.5,1088.3,52.5,1250s31.7,318.5,94.1,466.1c30,71,67.2,139.4,110.4,203.4c42.8,63.4,92,123,146.2,177.2
	C457.4,2151,517,2200.2,580.4,2243c64,43.2,132.5,80.4,203.4,110.4c147.6,62.4,304.5,94.1,466.1,94.1s318.5-31.7,466.1-94.1
	c71-30,139.4-67.2,203.4-110.4c63.4-42.8,123-92,177.2-146.2c54.2-54.2,103.4-113.8,146.2-177.2c43.2-64,80.4-132.5,110.4-203.4
	c62.4-147.6,94.1-304.5,94.1-466.1s-31.7-318.5-94.1-466.1c-30-71-67.2-139.4-110.4-203.4c-42.8-63.4-92-123-146.2-177.2
	C2042.6,349,1983,299.8,1919.6,257c-64-43.3-132.5-80.4-203.4-110.4C1568.5,84.1,1411.7,52.5,1250,52.5z"/>
</svg>
