<?xml version="1.0" encoding="iso-8859-1"?>
<!-- Generator: Adobe Illustrator 19.0.0, SVG Export Plug-In . SVG Version: 6.00 Build 0)  -->
<svg version="1.1" id="Layer_1" xmlns="http://www.w3.org/2000/svg" xmlns:xlink="http://www.w3.org/1999/xlink" x="0px" y="0px"
	 viewBox="0 0 500 500" enable-background="new 0 0 500 500" xml:space="preserve">
<path d="M387.832,270.975c16.173,28.79,4.167,55.934-13.735,68.288c-19.797,13.661-46.742,11.329-63.801-5.758
	c-16.967-16.995-19.484-43.798-5.936-63.374c5.19-7.498,11.878-13.263,20.166-17.096c8.111-3.751,16.63-5.333,25.557-4.492
	c9.007,0.849,17.22,3.982,24.892,9.264c-0.581-14.256,6.954-23.446,18.602-23.263c10.626,0.166,18.863,9.208,18.131,19.903
	C410.937,265.696,401.334,272.507,387.832,270.975z M87.558,162.126c-19.462-14.572-46.403-13.201-64.337,3.535
	c-17.571,16.397-20.819,43.294-7.561,63.557c6.643,10.153,15.878,17.069,27.491,20.528c14.455,4.305,28.185,2.045,41.621-5.891
	c-0.895,6.298-0.551,11.838,3.09,16.652c3.782,5.001,8.888,7.579,15.087,7.543c10.106-0.058,18.226-8.365,18.271-18.381
	c0.051-11.331-8.285-18.129-22.938-18.41C116.239,202.768,104.727,174.982,87.558,162.126z M115.247,266.187
	c-15.122,17.888-15.487,45.033-0.647,63.307c15.321,18.866,41.9,24.209,62.804,12.592c10.598-5.89,18.353-14.421,22.663-25.748
	c5.948-15.632,4.049-30.741-4.424-45.299c13.974,1.301,23.461-5.551,24.072-16.964c0.556-10.387-7.708-19.317-18.075-19.535
	c-11.647-0.244-19.117,8.764-18.755,23.069C156.83,240.705,129.629,249.174,115.247,266.187z M298.283,194.015
	c-2.146-13.42-8.858-24.236-19.82-32.319c-18.486-13.631-44.282-12.682-61.736,2.221c-17.635,15.057-22.722,39.921-12.236,60.56
	c5.244,10.322,13.175,18.035,23.763,22.798c16.344,7.352,32.291,5.669,47.889-3.122c-0.447,14.839,5.909,23.308,17.453,23.928
	c9.872,0.53,18.603-7.491,19.053-17.514c0.22-4.913-1.156-9.297-4.438-13.009c-4.819-5.45-11.043-6.999-18.904-5.877
	C297.368,219.742,300.418,207.369,298.283,194.015z M491.395,201.893c-0.029-27.374-22.531-49.861-49.926-49.893
	c-27.595-0.032-50.223,22.69-50.046,50.252c0.176,27.385,22.741,49.707,50.16,49.621
	C468.974,251.788,491.424,229.261,491.395,201.893z"/>
</svg>
