<?xml version="1.0" encoding="iso-8859-1"?>
<!-- Generator: Adobe Illustrator 19.0.0, SVG Export Plug-In . SVG Version: 6.00 Build 0)  -->
<svg version="1.1" id="Layer_1" xmlns="http://www.w3.org/2000/svg" xmlns:xlink="http://www.w3.org/1999/xlink" x="0px" y="0px"
	 viewBox="0 0 2000 2000" style="enable-background:new 0 0 2000 2000;" xml:space="preserve">
<path d="M1983.252,1001.69c2.137,543.072-448.115,990.952-999.035,981.742c-528.461-8.835-970.704-443.793-965.456-992.66
	c5.131-536.636,445.8-978.288,993.692-972.209C1552.714,24.558,1985.76,467.397,1983.252,1001.69z M1556.841,1599.665
	c9.804-19.011,18.713-36.959,28.24-54.573c9.301-17.195,13.006-37.286,29.926-50.572c16.872-13.248,24.287-32.85,32.239-54.931
	c-25.136-7.314-47.751-13.895-69.123-20.114c-1.964-7.232-3.276-12.061-4.803-17.684c-27.565-9.568-55.734-17.304-82.161-28.979
	c-43.702-19.306-82.309-47.947-123.561-71.802c-4.401-2.545-9.814-4.857-12.382-8.818c-20.648-31.849-60.285-40.234-83.786-70.107
	c-2.786-25.119-27.163-32.706-42.995-46.225c-18.877-32.349-37.11-63.595-56.409-96.668c-20.935-1.274-25.737-18.231-30.892-37.738
	c97.247,0,191.374,0,289.325,0c0,68.536,0,135.535,0,203.522c68.32,0,132.786,0,198.641,0c0-260.841,0-519.655,0-780.047
	c-6.479-0.775-11.297-1.859-16.115-1.856c-403.989,0.223-807.979,0.529-1211.968,0.93c-0.956,0.001-1.941,1.466-2.859,2.307
	c-0.942,0.863-1.817,1.799-2.721,2.703c-7.234,142.18-3.7,746.89,4.968,777.988c31.434,0,63.331,0.678,95.186-0.188
	c32.621-0.887,65.62,4.001,100.26-3.774c0-67.688,0-133.752,0-198.616c4.673-2.152,6.863-4.039,9.061-4.046
	c81.817-0.267,163.636-0.522,245.452-0.176c6.712,0.028,13.405,4.307,17.196,5.61c-6.594,17.526-12.654,32.445-17.844,47.66
	c-13.127,38.48-25.759,77.062-62.188,101.354c-5.124,3.417-11.119,8.777-12.36,14.229c-7.176,31.506-31.298,47.27-55.066,64.71
	c-20.922,15.351-39.438,33.98-63.009,54.665c-7.439,3.953-22.489,7.948-31.455,17.597c-15.751,16.951-34.756,23.661-55.754,30.172
	c-21.621,6.704-46.352,13.526-61.336,28.621c-14.872,14.981-29.842,20.748-48.375,25.459c-26.627,6.769-52.685,15.773-82.94,25.033
	c24.57,58.816,47.229,113.06,69.781,167.046c16.316-3.731,29.645-6.778,43.338-9.909c2.461-5.566,4.937-11.168,7.148-16.168
	c39.493-11.856,79.316-20.872,116.697-35.948c30.893-12.459,58.718-32.218,89.815-45.404c16.86-7.149,34.538-16.752,46.479-30.063
	c16.689-18.605,37.075-29.785,58.106-40.959c17.729-9.42,37.938-15.68,40.966-40.448c0.494-4.042,6.01-8.808,10.332-10.834
	c36.022-16.886,48.816-53.043,64.991-76.198c37.772-29.902,54.182-64.618,67.112-101.374c5.389-15.319,8.348-31.722,24.5-37.985
	c45.687,66.269,90.205,130.84,134.496,195.084c23.412,3.05,42.748,14.333,49.518,33.454c7.428,20.979,22.615,29.208,38.771,38.952
	c32.123,19.374,66.474,36.037,95.421,59.381c22.687,18.296,45.871,30.736,68.996,34.843
	C1450.667,1576.014,1503.771,1583.965,1556.841,1599.665z M1425.33,619.437c-106.746,0-213.568,0-323.783,0
	c-0.004,83.823-0.101,165.985,0.059,248.532c111.412,0,218.233,0,324.822,0C1432.244,824.292,1431.364,648.647,1425.33,619.437z
	 M597.614,621.984c-5.757,58.923-3.891,219.795,2.856,246.293c105.555,5.587,272.38,3.259,301.37-4.409
	c0-80.097,0-160.409,0-240.497C873.535,616.238,635.265,615.324,597.614,621.984z"/>
</svg>
