<?xml version="1.0" encoding="iso-8859-1"?>
<!-- Generator: Adobe Illustrator 19.0.0, SVG Export Plug-In . SVG Version: 6.00 Build 0)  -->
<svg version="1.1" id="Layer_1" xmlns="http://www.w3.org/2000/svg" xmlns:xlink="http://www.w3.org/1999/xlink" x="0px" y="0px"
	 viewBox="0 0 500 500" enable-background="new 0 0 500 500" xml:space="preserve">
<path d="M250.159,4.156c40.601,0,81.209-0.475,121.798,0.23c16.643,0.289,33.506,1.273,49.527,7.074
	c38.689,14.009,62.229,41.108,69.623,81.608c2.169,11.879,3.562,24.079,3.609,36.138c0.312,80.18,0.515,160.364-0.072,240.541
	c-0.159,21.685-2.313,43.436-12.388,63.54c-13.109,26.16-33.346,44.296-61.069,52.919c-12.529,3.897-26.089,6.069-39.212,6.212
	c-85.002,0.928-170.015,1.584-255.018,1.165c-23.677-0.117-47.321-3.38-68.591-16.4c-27.232-16.67-43.716-40.495-49.347-71.5
	c-2.552-14.051-3.666-28.54-3.729-42.838c-0.347-78.343-0.514-156.691,0.058-235.032c0.161-22.108,2.382-44.231,13.101-64.56
	C34.355,33.087,58.947,14.504,92.18,8.055c13.241-2.569,26.95-3.565,40.464-3.73C171.81,3.848,210.986,4.156,250.159,4.156z
	 M231.741,279.642c-0.953,10.39-1.638,19.866-2.728,29.295c-1.849,16.006-3.945,31.983-5.954,47.971
	c-1.157,9.21-2.513,18.398-3.468,27.628c-0.728,7.034-1.418,14.126-1.314,21.18c0.153,10.358,10.189,15.632,18.924,10.056
	c2.62-1.672,5.01-4.198,6.629-6.865c11.611-19.125,22.995-38.387,34.451-57.605c18.909-31.721,37.843-63.427,56.716-95.169
	c6.681-11.237,13.42-22.448,19.758-33.879c5.344-9.638,0.542-17.918-10.404-18.627c-1.623-0.105-3.254-0.136-4.881-0.136
	c-19.781,0.005-39.563-0.117-59.34,0.14c-4.721,0.061-6.127-1.525-5.686-5.992c0.954-9.664,1.971-19.339,2.402-29.035
	c1.02-22.923,1.872-45.856,2.46-68.794c0.233-9.076-7.553-15.096-15.971-12.013c-3.863,1.415-7.689,4.892-9.935,8.444
	c-15.066,23.824-29.711,47.914-44.475,71.928c-13.71,22.301-27.458,44.578-41.069,66.939c-5.847,9.607-12.001,19.105-16.855,29.21
	c-3.286,6.84,2.207,13.872,9.849,14.073c18.327,0.481,36.656,0.864,54.986,1.234C220.896,279.728,225.958,279.642,231.741,279.642z"
	/>
</svg>
