<?xml version="1.0" encoding="iso-8859-1"?>
<!-- Generator: Adobe Illustrator 19.0.0, SVG Export Plug-In . SVG Version: 6.00 Build 0)  -->
<svg version="1.1" id="Layer_1" xmlns="http://www.w3.org/2000/svg" xmlns:xlink="http://www.w3.org/1999/xlink" x="0px" y="0px"
	 viewBox="0 0 500 500" style="enable-background:new 0 0 500 500;" xml:space="preserve">
<path d="M491.32,251.224c0.075,133.039-105.668,233.397-225.683,239.85c-71.786,3.86-134.099-19.326-184.933-69.838
	C30.981,371.827,7.815,310.895,10.162,240.69C14.251,118.344,116.904,6.116,258.914,10.178
	C385.217,13.791,492.019,118.288,491.32,251.224z M78.609,199.181c-28.768,94.084,23.406,195.344,119.655,225.623
	c46.979,14.779,92.879,10.339,136.807-11.697c24.453-12.266,45.113-29.403,62.196-52.388c-82.152,0-163.077,0-244.444,0
	c0.913-1.883,1.501-3.296,2.252-4.615c16.165-28.429,32.396-56.82,48.516-85.274c23.652-41.751,47.232-83.543,70.815-125.333
	c1.266-2.244,2.771-3.29,5.571-3.272c21.316,0.138,42.634,0.071,63.951,0.096c0.977,0.001,1.954,0.282,3.396,0.505
	c-30.435,53.697-60.594,106.908-90.961,160.484c57.16,0,113.646,0,170.048,0c27.77-93.457-22.385-191.984-115.648-223.923
	c-83.447-28.577-165.609,9.419-202.525,62.767c52.374,0,104.324,0,156.987,0c-0.827,1.697-1.23,2.648-1.735,3.542
	c-9.352,16.548-18.794,33.046-28.009,49.67c-1.692,3.052-3.686,3.9-7.051,3.892c-47.493-0.113-94.986-0.077-142.479-0.077
	C83.464,199.181,80.977,199.181,78.609,199.181z M397.469,132.23c27.62,34.822,42.468,74.264,42.493,118.943
	c0.025,44.795-14.465,84.529-41.83,118.614c10.899,10.898,21.494,21.493,32.053,32.051c86.244-103.052,60.456-235.496-0.382-301.951
	C419.103,110.59,408.39,121.307,397.469,132.23z"/>
</svg>
