<?xml version="1.0" encoding="iso-8859-1"?>
<!-- Generator: Adobe Illustrator 19.0.0, SVG Export Plug-In . SVG Version: 6.00 Build 0)  -->
<svg version="1.1" id="Layer_1" xmlns="http://www.w3.org/2000/svg" xmlns:xlink="http://www.w3.org/1999/xlink" x="0px" y="0px"
	 viewBox="0 0 2000 2000" style="enable-background:new 0 0 2000 2000;" xml:space="preserve">
<path d="M1969.812,849.939c-255.118,94.595-508.255,188.456-764.183,283.351c-8.846-18.813-17.739-37.729-25.376-53.972
	c131.089-100.505,152.428-228.674,100.444-374.252c76.105-28.66,147.455-55.529,227.29-85.594
	c-31.646-33.724-56.863-65.542-86.933-91.805c-151.966-132.726-329.6-182.618-527.628-150.14
	c-120.59,19.778-226.02,75.302-315.269,160.348c-11.193,10.666-28.176,21.398-42.604,21.574
	c-134.195,1.637-268.419,0.968-410.331,0.968c49.101-118.422,122.855-213.852,211.089-291.646
	C548.337,81.833,798.559-15.793,1083.825,10.116C1628.548,59.588,1947.184,509.073,1969.812,849.939z M46.808,1174.748
	c25.801,280.206,298.772,720.113,849.581,803.692c360.547,54.709,904.675-241.416,988.353-556.597
	c-143.057,0.026-286.107,0.026-422.37,0.026c-180.483,173.272-385.11,238.366-623.15,174.962
	c-125.694-33.48-232.731-99.307-314.704-208.78c65.071-24.45,122.247-45.933,184.702-69.4
	c20.683-36.921,43.137-78.371,66.908-119.052c23.387-40.023,48.109-79.265,65.62-107.982
	c-44.688-59.921-82.818-111.049-127.537-171.012C497.935,1002.962,271.429,1089.214,46.808,1174.748z M1217.777,779.163
	c-23.44-84.984-106.071-156.667-212.21-153.033c-108.432,3.712-176.153,71.588-198.251,148.435
	c-33.769,117.429,17.086,216.981,150.438,272.381c-59.046,102.436-117.66,204.123-177.82,308.492c156.802,0,308.931,0,464.277,0
	c-59.804-104.379-117.673-205.38-175.401-306.136C1206.306,969.951,1248.09,889.067,1217.777,779.163z"/>
</svg>
