<?xml version="1.0" encoding="iso-8859-1"?>
<!-- Generator: Adobe Illustrator 19.0.0, SVG Export Plug-In . SVG Version: 6.00 Build 0)  -->
<svg version="1.1" id="Layer_2" xmlns="http://www.w3.org/2000/svg" xmlns:xlink="http://www.w3.org/1999/xlink" x="0px" y="0px"
	 viewBox="0 0 500 500" style="enable-background:new 0 0 500 500;" xml:space="preserve">
<path id="XMLID_1_" d="M244.462,215.369c-23.355,31.369-45.523,63.694-70.206,93.973c-14.131,17.335-9.333,35.32-10.287,54.172
	c18.806,0,36.058,0.455,53.267-0.207c7.684-0.296,10.374,1.812,9.986,9.499c-0.507,10.052-0.124,20.149-0.124,30.021
	c17.352,0,33.168,0,49.936,0c0-13.416,0-26.048,0-39.944c21.505,0,42.059,0,62.269,0c0-18.41,0-35.516,0-53.53
	c-32.167,0-63.626,0-96.098,0c1.087-2.228,1.455-3.402,2.146-4.337c29.086-39.331,58.222-78.625,87.256-117.994
	c1.62-2.197,3.391-4.966,3.459-7.512c0.348-13.059,0.161-26.132,0.161-40.119c-20.054,0-39.422,0-59.763,0
	c0-13.884,0-26.86,0-40.328c-16.79,0-32.577,0-49.386,0c0,13.423,0,26.351,0,40.364c-19.031,0-37.064,0-54.788,0
	c0,18.853,0,36.576,0,54.964c29.455,0,58.125,0,89.319,0C254.808,202.677,249.347,208.808,244.462,215.369z M251.92,15.761
	c-130.427,0-236.159,105.732-236.159,236.159S121.493,488.079,251.92,488.079S488.079,382.347,488.079,251.92
	S382.347,15.761,251.92,15.761z M251.92,436.302c-101.831,0-184.382-82.551-184.382-184.382S150.089,67.538,251.92,67.538
	s184.382,82.551,184.382,184.382S353.751,436.302,251.92,436.302z"/>
</svg>
