<?xml version="1.0" encoding="utf-8"?>
<!-- Generator: Adobe Illustrator 24.1.0, SVG Export Plug-In . SVG Version: 6.00 Build 0)  -->
<svg version="1.1" id="ZEN" xmlns="http://www.w3.org/2000/svg" xmlns:xlink="http://www.w3.org/1999/xlink" x="0px" y="0px"
	 viewBox="0 0 500 500" style="enable-background:new 0 0 500 500;" xml:space="preserve">
<g>
	<path d="M449.8,107l-40.2,62.3c12.3,24.2,19.3,51.7,19.3,80.7c0,98.7-80.1,178.8-178.8,178.8c-29,0-56.4-6.9-80.6-19.2l-62.2,40.2
		c40.3,28.8,89.5,45.9,142.9,45.9c135.7,0,245.6-110,245.6-245.6C495.7,196.7,478.7,147.3,449.8,107z"/>
	<path d="M250.1,373c60.5,0,110.8-43.5,121.3-100.9c-19.1-4.1-39-6.3-59.4-6.3c-61.3,0-118,19.6-164.3,52.8
		C169.9,351.4,207.5,373,250.1,373z"/>
	<path d="M310.9,243.4c21.5,0,42.4,2.3,62.6,6.7c0-68.2-55.2-123.4-123.4-123.4s-123.4,55.2-123.4,123.4c0,5.6,0.4,11.1,1.1,16.5
		c-31.1,23.6-45.8,42.3-46.3,42.9c-6.6-18.6-10.2-38.6-10.2-59.4c0-98.7,80.1-178.8,178.8-178.8c28.9,0,56.2,6.9,80.4,19.1
		l62.3-40.3C352.5,21.3,303.3,4.4,250.1,4.4C114.4,4.4,4.5,114.4,4.5,250c0,54.6,17.9,105,48,145.8c11.6-21,25.8-40.5,42-58
		c0,0,24.2-25.3,42.8-38C186,264.3,246,243.4,310.9,243.4z"/>
</g>
</svg>
