<?xml version="1.0" encoding="iso-8859-1"?>
<!-- Generator: Adobe Illustrator 19.0.0, SVG Export Plug-In . SVG Version: 6.00 Build 0)  -->
<svg version="1.1" id="Layer_1" xmlns="http://www.w3.org/2000/svg" xmlns:xlink="http://www.w3.org/1999/xlink" x="0px" y="0px"
	 viewBox="0 0 500 500" style="enable-background:new 0 0 500 500;" xml:space="preserve">
<path d="M454.991,419.502c-40.443,23.536-80.498,46.845-120.473,70.108c-40.315-23.363-80.409-46.597-120.674-69.931
	c0-45.896,0-91.267,0-138.229c13.923-8.255,28.841-17.1,43.542-25.815c10.505,1.951,17.875,8.554,26.157,13.187
	c17.137,9.588,34.028,19.616,51.58,29.788c9.348-5.252,18.388-10.292,27.39-15.398c13.835-7.848,27.76-15.548,41.393-23.732
	c4.143-2.487,7.867-3.457,11.994-1.075c13.106,7.564,26.13,15.268,39.091,22.862C454.991,327.347,454.991,372.717,454.991,419.502z
	 M215.758,76.176c0,17.905,0,35.065,0,53.122c25.621,14.859,51.385,29.8,77.149,44.742c0,29.292,0,57.849,0,87.33
	c14.272,8.064,28.613,16.167,43.171,24.392c39.826-23.172,79.445-46.223,118.662-69.042c0-47.371,0-93.89,0-140.329
	C414.527,53.123,374.755,30.109,334.818,7C294.075,30.673,254.921,53.422,215.758,76.176z M161.177,110.036
	c-14.09,7.902-27.556,15.324-40.893,22.97c-13.374,7.666-26.856,15.184-39.855,23.45c-12.952,8.236-27.256,14.353-38.864,23.449
	c0,47.348,0,93.491,0,140.066c39.939,23.08,79.719,46.068,119.171,68.867c14.562-8.719,28.433-17.024,40.853-24.46
	c3.239-31.515-0.878-61.513,2.421-91.189c25.694-15.145,50.704-29.888,75.963-44.777c0-16.623,0-32.579,0-49.545
	C240.201,155.824,200.863,133.031,161.177,110.036z"/>
</svg>
