<?xml version="1.0" encoding="iso-8859-1"?>
<!-- Generator: Adobe Illustrator 19.0.0, SVG Export Plug-In . SVG Version: 6.00 Build 0)  -->
<svg version="1.1" id="Layer_1" xmlns="http://www.w3.org/2000/svg" xmlns:xlink="http://www.w3.org/1999/xlink" x="0px" y="0px"
	 viewBox="0 0 2000 2000" style="enable-background:new 0 0 2000 2000;" xml:space="preserve">
<path d="M12.838,1790.654c0-4.446,0-8.893,0-13.339c7.825-10.366,16.835-20.044,23.303-31.197
	c261.215-450.374,522.181-900.892,783.241-1351.356c36.005-62.127,72.333-124.066,107.151-183.759c351.334,0,698.59,0,1058.301,0
	c-305.059,531.621-606.064,1056.177-907.908,1582.196c-12.386,0-23.396,0.004-34.405-0.001
	c-311.119-0.136-622.238-0.211-933.357-0.501C77.055,1792.668,44.947,1791.366,12.838,1790.654z M1978.113,1790.444
	c0-431.292,0-859.607,0-1287.921c-1.893-0.719-3.786-1.439-5.679-2.158c-245.578,428.932-491.156,857.864-738.615,1290.079
	C1485.173,1790.444,1732.175,1790.444,1978.113,1790.444z M51.826,1448.908c244.791-417.035,484.925-826.135,727.088-1238.691
	c-244.877,0-484.31,0-727.088,0C51.826,622.543,51.826,1031.2,51.826,1448.908z"/>
</svg>
