<?xml version="1.0" encoding="iso-8859-1"?>
<!-- Generator: Adobe Illustrator 19.0.0, SVG Export Plug-In . SVG Version: 6.00 Build 0)  -->
<svg version="1.1" id="Layer_1" xmlns="http://www.w3.org/2000/svg" xmlns:xlink="http://www.w3.org/1999/xlink" x="0px" y="0px"
	 viewBox="0 0 2000 2000" style="enable-background:new 0 0 2000 2000;" xml:space="preserve">
<path d="M1586.423,705.302c130.667,30.544,237.939,97.955,309.408,211.754c98.18,156.33,108.664,322.443,23.619,486.355
	c-88.27,170.127-233.133,261.254-426.624,265.281c-144.553,3.008-289.218,0.593-443.538,0.593
	c54.264-69.747,103.659-133.235,155.195-199.475c91.926,0,183.842,0.612,275.747-0.126
	c197.263-1.584,332.718-170.857,284.754-361.732c-29.646-117.978-113.287-186.667-231.086-207.715
	c-62.58-11.182-101.395-37.362-126.822-97.954c-160.372-382.16-699.599-388.379-903.803-102.274
	c-13.085,18.334-26.984,36.087-42.847,57.234c-71.484,0-144.794,0-224.695,0c115.705-236.255,284.715-398.704,549.751-443.498
	C1083.217,263.424,1412.095,361.432,1586.423,705.302z M859.669,928.656c-235.526,0-462.647,0-692.531,0
	c-19.598,53.986-38.878,107.097-60.996,168.023c119.13,0,230.824,0,353.25,0c-149.614,195.807-292.268,382.505-439.225,574.833
	c277.34,0,544.445,0,815.809,0c49.156-63.092,99.349-127.515,156.056-200.298c-184.318,0-356.978,0-544.535,0
	C589.258,1284.609,722.377,1109.38,859.669,928.656z"/>
</svg>
