<?xml version="1.0" encoding="iso-8859-1"?>
<!-- Generator: Adobe Illustrator 19.0.0, SVG Export Plug-In . SVG Version: 6.00 Build 0)  -->
<svg version="1.1" id="Layer_1" xmlns="http://www.w3.org/2000/svg" xmlns:xlink="http://www.w3.org/1999/xlink" x="0px" y="0px"
	 viewBox="0 0 2000 2000" style="enable-background:new 0 0 2000 2000;" xml:space="preserve">
<path d="M1982.88,997.999c-0.805,537.106-436.224,995.354-1010.662,981.312C460.571,1966.805,4.586,1547.087,19.582,966.141
	C32.729,456.862,451.591,0.902,1033.153,16.844C1549.763,31.005,1979.25,450.608,1982.88,997.999z M1159.575,658.474
	c-75.335,90.003-146.287,174.768-217.637,260.009c-92.214,0-182.922,0-274.309,0c0,47.223,0,92.403,0,141.048
	c50.801,0,100.503,0,155.06,0c-85.082,100.53-166.352,196.557-246.635,291.417c0,46.732,0,91.786,0,137.299
	c282.369,0,562.764,0,843.761,0c0-54.168,0-106.817,0-162.662c-196.404,0-391.18,0-592.245,0
	c73.257-86.962,142.316-168.94,213.646-253.616c87.481,0,177.34,0,266.478,0c0-48.541,0-94.429,0-143.74
	c-48.486,0-94.889,0-145.219,0c72.019-85.464,140.866-166.688,209.066-248.452c15.885-19.044,38.427-38.351,42.324-60.304
	c6.927-39.024,1.946-80.163,1.946-121.49c-275.896,0-549.437,0-823.452,0c0,54.132,0,106.685,0,160.491
	C779.54,658.474,964.96,658.474,1159.575,658.474z"/>
</svg>
