<?xml version="1.0" encoding="iso-8859-1"?>
<!-- Generator: Adobe Illustrator 19.0.0, SVG Export Plug-In . SVG Version: 6.00 Build 0)  -->
<svg version="1.1" id="Layer_1" xmlns="http://www.w3.org/2000/svg" xmlns:xlink="http://www.w3.org/1999/xlink" x="0px" y="0px"
	 viewBox="0 0 2000 2000" style="enable-background:new 0 0 2000 2000;" xml:space="preserve">
<path d="M1977.57,937.439c1.449,334.485-96.181,567.736-286.499,757.226c-207.008,206.107-461.658,299.671-754.985,283.862
	c-489.24-26.368-923.281-431.003-920.286-987.58C18.693,453.55,451.188,16.521,1000.891,17.246
	C1538.781,17.955,1984.557,456.396,1977.57,937.439z M904.414,321.936c-3.555-23.289-17.407-24.318-36.514-18.634
	c-64.71,19.25-104.572,63.209-102.243,119.21c0.854,20.521,6.362,43.458,17.307,60.413c23.741,36.778,64.84,46.818,104.163,52.639
	c0.894,5.336,1.892,7.37,1.277,8.182c-21.194,27.964-43.31,55.261-63.741,83.766c-131.285,183.168-181.415,385.62-137.999,607.816
	c19.374,99.151,76.169,170.675,178.762,193.496c41.158,9.155,84.815,8.594,127.394,9.419c41.335,0.801,82.879-5.047,124.094-3.058
	c70.765,3.416,109.567,48.337,101.75,114.038c-7.021,59.013-51.677,128.189-133.826,108.316
	c-29.551-7.148-58.996-16.518-89.024-19.502c-49.07-4.876-72.03,23.705-60.218,70.857c6.796,27.131,28.532,39.295,52.641,45.929
	c82.47,22.693,183.539-13.64,232.602-84.018c55.435-79.519,62.486-168.333,39.693-258.958
	c-22.926-91.155-71.72-124.875-166.46-124.883c-59.821-0.006-119.77,2.667-179.434-0.354
	c-84.283-4.268-132.037-43.95-155.343-124.643c-18.098-62.661-17.283-125.925-10.72-190.92
	c16.173-160.157,81.405-296.395,190.18-412.763c12.296-13.154,31.955-22.52,49.838-26.805
	c67.195-16.103,134.126-33.32,188.636-77.794c21.658-17.67,40.492-41.871,53.06-66.892c18.785-37.398,0.95-59.098-41.263-50.889
	c-27.901,5.426-57.525,14.062-80.612,29.747c-54.3,36.893-104.941,79.144-157.556,118.568c-10.4,7.792-22.671,17.014-34.678,17.956
	c-29.05,2.28-71.427-27.333-80.967-52.468c-12.036-31.712-2.26-74.372,24.059-96.732
	C873.041,341.273,889.13,332.303,904.414,321.936z"/>
</svg>
