<?xml version="1.0" encoding="iso-8859-1"?>
<!-- Generator: Adobe Illustrator 19.0.0, SVG Export Plug-In . SVG Version: 6.00 Build 0)  -->
<svg version="1.1" id="Layer_1" xmlns="http://www.w3.org/2000/svg" xmlns:xlink="http://www.w3.org/1999/xlink" x="0px" y="0px"
	 viewBox="0 0 500 500" style="enable-background:new 0 0 500 500;" xml:space="preserve">
<path id="XMLID_4_" d="M424.983,208.671c-85.272,42.214-169.384,83.853-255.498,126.484
	c62.722,30.065,123.109,59.011,184.762,88.563c0-4.865,0-7.824,0-10.783c0-43.025,0.138-86.051-0.155-129.073
	c-0.042-6.17,1.875-9,7.544-11.375c20.945-8.775,41.623-18.189,63.345-27.779c0,8.224-0.002,15.497,0,22.769
	c0.024,63.304,0.015,126.608,0.145,189.912c0.01,4.661-0.185,8.142-5.445,10.355c-19.737,8.303-39.178,17.312-58.958,25.505
	c-3.388,1.404-8.518,1.435-11.788-0.12c-87.386-41.549-174.65-83.355-261.826-125.344c-2.553-1.23-5.551-4.87-5.602-7.44
	c-0.44-22.451-0.254-44.914-0.254-67.546c62.093-30.257,123.953-60.401,187.361-91.298c-18.695-9.099-35.82-17.557-53.049-25.796
	c-42.811-20.471-85.709-40.759-128.415-61.446c-2.684-1.3-5.646-5.362-5.71-8.202c-0.463-20.542-0.399-41.104,0.04-61.647
	c0.057-2.647,2.636-6.535,5.053-7.635c20.898-9.511,41.997-18.585,63.139-27.546c1.811-0.768,4.663-0.408,6.531,0.481
	c39.798,18.934,79.509,38.053,119.269,57.066c47.347,22.642,94.709,45.251,142.111,67.779c5.307,2.522,7.872,5.409,7.653,12.135
	C424.548,167.764,424.983,188.875,424.983,208.671z"/>
</svg>
