<?xml version="1.0" encoding="iso-8859-1"?>
<!-- Generator: Adobe Illustrator 19.0.0, SVG Export Plug-In . SVG Version: 6.00 Build 0)  -->
<svg version="1.1" id="Layer_1" xmlns="http://www.w3.org/2000/svg" xmlns:xlink="http://www.w3.org/1999/xlink" x="0px" y="0px"
	 viewBox="0 0 2000 2000" style="enable-background:new 0 0 2000 2000;" xml:space="preserve">
<path d="M1022.804,1356.453c111.801,25.877,214.439,52.449,318.281,72.911c113.612,22.388,228.217,39.895,342.64,57.936
	c42.654,6.725,85.99,12.124,129.066,12.511c73.165,0.656,136.792,71.259,113.185,158.137
	c-28.283,104.089-95.231,177.814-199.104,208.481c-118.587,35.012-240.165,57.603-362.827,76.06
	c-178.581,26.871-357.802,29.644-536.763,18.82c-138.844-8.397-279.811-18.215-411.594-67.91
	c-199.579-75.261-330.58-215.83-378.788-426.827c-11.792-51.611-21.812-104.279-25.529-156.964
	c-12.178-172.621,58.832-305.019,200.875-401.753c60.611-41.277,125.84-73.1,193.615-99.924
	c158.93-62.901,318.202-124.939,484.025-189.949c-14.681-7.482-23.578-14.685-33.521-16.682
	c-136.604-27.429-272.938-56.552-410.223-80.102c-79.302-13.603-160.071-19.428-240.403-26.046
	c-95.341-7.854-142.067-75.707-114.52-168.498c30.556-102.924,98.282-168.783,199.693-199.57
	c111.021-33.705,225.096-53.606,339.533-72.093c186.017-30.052,373.292-30.585,560.33-21.236
	c129.392,6.468,259.084,21.88,383.844,58.74c187.693,55.454,321.036,172.613,380.982,362.857
	c15.802,50.149,26.969,103.058,30.809,155.394c7.089,96.629-26.074,181.47-90.779,254.189
	c-63.999,71.926-143.089,124.272-226.697,168.453c-121.722,64.322-246.401,123.06-369.968,183.875
	c-77.707,38.244-155.75,75.806-233.481,114.003C1053.492,1337.16,1042.371,1344.827,1022.804,1356.453z M928.209,1398.527
	c-71.44,33.068-148.077,68.543-224.716,104.015c-67.529,31.256-115.227,81.177-141.68,150.936
	c-28.049,73.969-10.68,129.464,56.88,170.592c87.441,53.231,184.329,77.269,285.652,80.694
	c151.527,5.122,302.582,0.412,453.128-22.221c120.436-18.106,239.634-41.372,355.904-76.671
	c76.034-23.084,126.162-77.058,148.862-154.682c15.349-52.489-4.143-84.661-57.245-90.776
	c-48.765-5.615-98.037-7.465-146.525-14.718c-89.17-13.338-178.487-26.719-266.733-44.969
	C1240.219,1469.392,1089.478,1434.303,928.209,1398.527z M140.989,370.136c6.38,40.52,29.359,60.926,67.422,65.022
	c35.194,3.787,70.563,6.224,105.615,11.013c101.176,13.824,202.838,25.243,303.175,43.757
	c117.595,21.698,234.064,49.567,350.858,75.496c23.647,5.25,45.418,5.17,68.339-4.258c47.26-19.439,95.442-36.626,143.075-55.174
	c53.505-20.834,105.059-45.897,148.373-84.101c106.983-94.362,83.957-241.828-35.332-289.667
	c-59.076-23.691-120.07-38.816-183.094-40.659c-116.275-3.4-232.352-3.365-348.691,8.686
	c-145.108,15.031-287.271,42.749-428.413,78.173C228.778,204.41,164.625,267.756,140.989,370.136z"/>
</svg>
