<?xml version="1.0" encoding="iso-8859-1"?>
<!-- Generator: Adobe Illustrator 19.0.0, SVG Export Plug-In . SVG Version: 6.00 Build 0)  -->
<svg version="1.1" id="Layer_1" xmlns="http://www.w3.org/2000/svg" xmlns:xlink="http://www.w3.org/1999/xlink" x="0px" y="0px"
	 viewBox="0 0 500 500" enable-background="new 0 0 500 500" xml:space="preserve">
<path d="M447.603,287.942c-10.803,0-20.857-0.255-30.878,0.21c-2.06,0.095-5.038,2.479-5.805,4.49
	c-3.164,8.298-5.639,16.859-9.059,27.467c-12.52-10.98-24.148-21.178-35.856-31.446c20.456-27.543,28.928-58.225,38.612-88.348
	c1.295-4.027,2.993-5.102,7.064-5.637c24.394-3.204,48.728-6.868,73.217-10.397c0.641,35.31-3.009,72.513,8.41,109.61
	c-14.747,9.05-29.492,18.099-45.706,28.05C447.603,309.251,447.603,298.592,447.603,287.942z M417.631,270.862
	c10.819,0,19.437,0,29.444,0c-1.582-16.384-3.122-32.338-4.662-48.291c-0.872-0.157-1.744-0.315-2.616-0.472
	C432.678,237.76,425.559,253.421,417.631,270.862z M125.308,191.634c-2.894,0-4.454,0.038-6.012-0.006
	c-29.144-0.812-58.728,3.581-87.047-7.427c-1.197-0.465-4.155,1.046-4.919,2.407c-10.98,19.565-16.833,40.537-17.589,63.884
	c15.584-12.311,32.588-15.974,52.156-17.237C42.187,259.136,23.522,283.643,6,306.65c34.752,0,69.75,0,103.924,0
	c3.399-18.842,6.617-36.683,9.87-54.716c-13.532,11.683-29.312,17.242-48.038,20.201C90.046,244.64,107.384,218.577,125.308,191.634
	z M279.856,305.396c25.863,2.45,50.921,4.824,76.559,7.253c3.112-15.383,6.332-31.3,9.374-46.339
	c-11.102,2.299-22.236,4.604-33.37,6.909c-0.628-0.84-1.256-1.68-1.884-2.52c11.232-29.648,22.465-59.297,33.825-89.284
	c-23.553,2.656-47.104,6.202-68.267,16.951C301.531,236.652,284.83,270.481,279.856,305.396z M264.989,312.753
	c2.986-15.257,6.079-31.065,9.039-46.19c-11.648,2.279-22.617,4.425-33.587,6.571c-0.548-0.774-1.095-1.547-1.643-2.321
	c11.193-29.528,22.386-59.057,33.942-89.545c-9.206,1.332-18.474,1.969-27.371,4.131c-12.285,2.985-24.341,6.962-36.381,10.867
	c-3.258,1.057-4.65,2.978-4.061,7.731c1.128,9.097,1.216,18.73-0.529,27.699c-4.786,24.603-10.746,48.978-16.299,73.697
	C213.792,307.852,239.021,310.267,264.989,312.753z M132.384,296.401c-0.219,1.985,0.888,5.058,2.424,6.144
	c10.005,7.069,20.3,13.729,30.112,20.264c8.94-45.29,17.528-88.798,26.073-132.091c-13.834-2.206-28.703-4.578-45.724-7.293
	C140.914,221.219,136.534,258.797,132.384,296.401z"/>
</svg>
