<?xml version="1.0" encoding="iso-8859-1"?>
<!-- Generator: Adobe Illustrator 19.0.0, SVG Export Plug-In . SVG Version: 6.00 Build 0)  -->
<svg version="1.1" id="Layer_1" xmlns="http://www.w3.org/2000/svg" xmlns:xlink="http://www.w3.org/1999/xlink" x="0px" y="0px"
	 viewBox="0 0 2000 2000" style="enable-background:new 0 0 2000 2000;" xml:space="preserve">
<path d="M1785.496,1580.215c-93.359,0-183.708,0-282.083,0c13.369-15.619,21.936-26.951,31.823-36.983
	c220.453-223.672,285.479-542.622,168.456-827.218c-117.727-286.306-390.529-467.963-707.056-469.422
	c-199.878-0.921-399.763-0.172-603.829-0.172c219.187-224.358,766.043-357.708,1199.169-27.579
	C2052.068,569.525,2085.382,1194.69,1785.496,1580.215z M393.441,1766.828c422.942,335.649,978.307,220.369,1205.237-4.282
	c-23.088,0-41.827-0.025-60.567,0.004c-181.071,0.276-362.325,5.906-543.171-0.325c-324.952-11.196-564.898-165.146-690.499-465.128
	c-125.386-299.47-67.232-576.839,150.693-818.971c14.679-16.31,30.24-31.826,51.256-53.861c-103.729,0-197.339,0-294.359,0
	C-101.565,826.716-16.878,1441.196,393.441,1766.828z M1404.6,774.462c-1.661-102.502-71.92-175.785-173.892-177.167
	c-154.036-2.086-308.143-2.105-462.178,0.017c-98.932,1.363-171.37,73.808-172.742,172.73
	c-2.137,154.034-2.036,308.137-0.126,462.177c1.261,101.757,74.705,173.016,177.119,173.856
	c152.128,1.247,304.285,1.391,456.409-0.064c102.566-0.981,173.636-72.833,175.397-175.141
	c1.292-75.084,0.253-150.208,0.256-225.315C1404.847,928.522,1405.848,851.474,1404.6,774.462z M1179.045,1177.472
	c-117.235,0-233.081,0-353.617,0c0-114.993,0-230.868,0-350.95c116.16,0,232.23,0,353.617,0
	C1179.045,946.393,1179.045,1059.302,1179.045,1177.472z"/>
</svg>
