<?xml version="1.0" encoding="iso-8859-1"?>
<!-- Generator: Adobe Illustrator 19.0.0, SVG Export Plug-In . SVG Version: 6.00 Build 0)  -->
<svg version="1.1" id="Layer_1" xmlns="http://www.w3.org/2000/svg" xmlns:xlink="http://www.w3.org/1999/xlink" x="0px" y="0px"
	 viewBox="0 0 500 500" enable-background="new 0 0 500 500" xml:space="preserve">
<path d="M399.227,343.67c1.938,0,3.066-0.001,4.194,0c19.324,0.022,38.648-0.025,57.971,0.091
	c12.738,0.076,22.72,5.497,29.225,16.49c6.33,10.698,7.123,21.958,1.027,33.001c-6.071,10.999-15.528,17.223-28.338,17.253
	c-108.952,0.251-217.904,0.509-326.855,0.553c-20.057,0.008-39.444-4.402-58.329-11.086c-15.7-5.557-30.119-13.286-42.431-24.634
	c-17.995-16.585-28.391-37.033-31.169-61.38c-2.372-20.791,2.325-40.301,10.619-59.136C27.457,226.855,46.829,204.334,70.069,185
	c9.97-8.294,20.634-15.749,30.889-23.707c1.994-1.547,3.551-3.657,5.31-5.507c-0.133-0.224-0.266-0.448-0.399-0.672
	c-1.027,0-2.053,0-3.08,0c-20.197-0.01-40.395,0.08-60.592-0.064c-13.559-0.097-24.368-5.601-30.862-17.786
	c-11.959-22.439,5.305-44.503,21.47-46.791c8.614-1.22,17.432-1.371,26.158-1.379c103.903-0.099,207.805-0.124,311.708-0.056
	c20.115,0.013,39.845,2.609,58.676,10.279c17.428,7.098,32.853,16.997,44.87,31.697c16.396,20.056,22.139,43.303,19.498,68.657
	c-3.465,33.263-17.161,62.348-37.536,88.528c-13.207,16.971-28.995,31.252-45.964,44.324c-2.297,1.77-4.419,3.788-6.483,5.832
	C402.297,339.778,401.099,341.44,399.227,343.67z M195.419,343.709c6.78-0.429,13.572-0.732,20.339-1.31
	c23.082-1.972,45.219-7.8,66.598-16.615c13.547-5.585,26.493-12.352,38.942-20.068c19.751-12.24,38.113-26.112,51.829-45.237
	c8.371-11.672,15.302-24.091,17.562-38.549c2.918-18.672-3.079-34.027-17.7-45.944c-11.99-9.772-26.082-14.816-41.134-17.069
	c-23.079-3.454-46.087-2.307-68.876,2.584c-24.202,5.194-47.214,13.725-69.016,25.445c-24.952,13.413-47.2,30.206-64.573,52.852
	c-8.344,10.877-14.718,22.831-17.367,36.443c-2.873,14.766-0.261,28.378,9.268,40.318c7.422,9.3,17.317,15.081,28.174,19.4
	C164.221,341.83,179.672,343.546,195.419,343.709z"/>
</svg>
