<?xml version="1.0" encoding="iso-8859-1"?>
<!-- Generator: Adobe Illustrator 19.0.0, SVG Export Plug-In . SVG Version: 6.00 Build 0)  -->
<svg version="1.1" id="Layer_1" xmlns="http://www.w3.org/2000/svg" xmlns:xlink="http://www.w3.org/1999/xlink" x="0px" y="0px"
	 viewBox="0 0 500 500" enable-background="new 0 0 500 500" xml:space="preserve">
<path d="M249.081,4.974c18.072,10.429,36.047,20.797,54.018,31.172c45.658,26.361,91.283,52.778,136.989,79.055
	c13.586,7.811,20.081,19.302,20.059,34.938c-0.093,65.737-0.08,131.475-0.006,197.212c0.018,15.619-6.528,27.092-20.115,34.912
	c-62.39,35.911-124.706,71.949-187.052,107.937c-1.285,0.742-2.599,1.433-4.091,2.253c-1.433-0.801-2.863-1.579-4.272-2.392
	c-62.346-35.987-124.676-72.003-187.046-107.948c-13.226-7.622-19.792-18.806-19.772-34.145
	c0.085-66.336,0.067-132.672,0.012-199.009c-0.012-14.795,6.307-25.834,19.04-33.189c62.851-36.308,125.722-72.58,188.589-108.858
	C246.584,6.249,247.779,5.664,249.081,4.974z M314.16,192.399c-54.732-31.597-108.716-62.762-162.749-93.955
	c-27.235,15.709-54.247,31.289-81.209,46.841c0,31.513,0,62.702,0,94.207c26.97,15.572,53.967,31.159,81.182,46.873
	C205.449,255.155,259.442,223.986,314.16,192.399z M183.644,79.797c54.881,31.677,108.892,62.851,162.807,93.971
	c21.801-12.594,43.202-24.956,65.228-37.68c-54.734-31.598-108.655-62.726-162.768-93.965
	C227.44,54.517,205.998,66.894,183.644,79.797z M346.387,211.051c-54.283,31.342-108.133,62.435-162.679,93.929
	c22.238,12.857,43.659,25.24,65.201,37.694c54.132-31.249,108.114-62.41,162.802-93.979
	C389.525,235.91,368.093,223.559,346.387,211.051z M427.765,276.82c-49.116,28.309-97.487,56.19-146.566,84.478
	c22.255,12.848,43.669,25.211,65.246,37.668c27.223-15.716,54.325-31.363,81.319-46.948
	C427.765,327.005,427.765,302.389,427.765,276.82z M151.331,323.645c-21.67,12.523-43.036,24.872-65.167,37.662
	c22.275,12.861,43.688,25.224,65.247,37.672c21.564-12.482,43.034-24.909,65.172-37.723
	C194.302,348.413,172.978,336.122,151.331,323.645z M314.129,417.579c-22.34-12.895-43.747-25.251-65.186-37.626
	c-21.708,12.514-43.129,24.863-65.278,37.631c22.121,12.774,43.637,25.199,65.27,37.691
	C270.508,442.801,291.902,430.431,314.129,417.579z M427.566,220.595c0-19.245,0-37.472,0-56.387
	c-16.397,9.468-32.246,18.62-48.787,28.171C395.471,202.033,411.272,211.172,427.566,220.595z M119.091,305.007
	c-16.54-9.549-32.435-18.726-48.745-28.143c0,19.004,0,37.237,0,56.269C86.717,323.687,102.524,314.566,119.091,305.007z"/>
</svg>
