<?xml version="1.0" encoding="iso-8859-1"?>
<!-- Generator: Adobe Illustrator 19.0.0, SVG Export Plug-In . SVG Version: 6.00 Build 0)  -->
<svg version="1.1" id="Layer_1" xmlns="http://www.w3.org/2000/svg" xmlns:xlink="http://www.w3.org/1999/xlink" x="0px" y="0px"
	 viewBox="0 0 500 500" enable-background="new 0 0 500 500" xml:space="preserve">
<path d="M237.22,400.623c8.336-6.513,6.74-7.785,3.714-14.519c-11.085-24.662-22.13-49.342-32.978-74.109
	c-1.996-4.556-3.913-7.198-9.745-7.773c-9.142-0.902-13.511-9.394-10.746-18.387c0.675-2.196,1.986-4.196,3.461-7.222
	c-4.99,0.906-9.14,1.537-13.234,2.425c-12.17,2.639-24.28,5.573-36.498,7.964c-3.818,0.747-5.275,2.666-6.263,6.047
	c-1.197,4.096,2.22,4.897,4.274,6.352c9.879,7.003,20.035,13.618,29.845,20.713c4.29,3.103,7.688,4.351,13.39,2.262
	c10.562-3.869,20.085,4.337,18.607,14.809c-1.011,7.159-8.339,13.033-15.148,12.143c-7.829-1.024-13.953-7.672-12.894-15.601
	c0.561-4.195-0.036-6.197-3.516-8.506c-10.988-7.289-21.643-15.078-32.523-22.532c-4.923-3.373-7.379-3.232-11.223,0.574
	c-0.998,0.988-1.64,3.04-1.422,4.443c2.682,17.221,5.556,34.412,8.378,51.611c1.094,6.669,2.44,13.31,3.199,20.017
	c0.633,5.601,1.542,10,8.19,11.986c5.473,1.635,8.24,7.027,8.157,12.71c-0.076,5.15-2.495,9.53-7.471,12.137
	c-6.183,3.239-12.651,2.182-17.473-3.132c-4.693-5.173-5.74-12.714-0.247-17.266c6.425-5.324,5.951-10.836,4.786-17.645
	c-3.897-22.78-7.465-45.616-11.179-68.428c-0.415-2.552-1.129-5.385-4.364-4.881c-1.626,0.253-3.587,1.964-4.355,3.528
	c-4.237,8.623-7.922,17.521-12.274,26.082c-2.223,4.373-2.373,7.521,1.184,11.421c4.12,4.517,3.125,10.043,0.099,14.902
	c-2.847,4.571-7.212,6.698-12.717,6.375c-6.329-0.371-11.18-4.437-12.822-10.918c-1.425-5.624,1.034-11.545,6.15-14.677
	c0.905-0.554,1.951-1.358,2.889-1.304c9.858,0.569,11.714-7.313,14.806-13.869c1.669-3.539,2.736-7.462,4.907-10.645
	c5.445-7.982,5.312-15.169-1.11-22.603c-1.795-2.078-3.16-3.437-5.949-3.422c-11.78,0.066-23.57,0.277-35.336-0.145
	c-4.408-0.158-5.307,2.849-6.967,5.362c-3.261,4.934-7.778,7.301-13.596,6.659c-6.198-0.684-11.423-5.868-12.284-11.707
	c-0.899-6.093,2.386-12.431,7.837-15.12c5.302-2.615,13.457-1.773,16.255,3.725c3.826,7.516,9.507,7.185,15.988,7.058
	c8.921-0.175,17.854-0.256,26.769,0.027c4.237,0.134,6.265-1.599,7.991-5.281c1.75-3.734,3.252-6.671,0.146-10.647
	c-6.58-8.422-12.721-17.189-18.925-25.899c-2.584-3.627-4.378-6.183-10.208-4.096c-7.448,2.665-14.925-3.187-16.57-10.975
	c-1.489-7.05,2.516-13.865,9.342-15.895c7.702-2.29,15.341,1.603,17.792,9.438c0.692,2.213,1.018,5.128,0.144,7.123
	c-1.876,4.284-0.66,7.438,1.837,10.837c6.54,8.903,12.883,17.951,19.349,26.909c2.055,2.848,3.612,5.69,8.52,4.059
	c4.069-1.353,5.384-3.072,6.099-7.167c3.486-19.968,7.269-39.89,11.378-59.738c0.715-3.455,0.221-5.107-2.514-7.044
	c-5.1-3.613-7.196-8.662-5.675-14.927c1.582-6.517,6.164-10.145,13.087-10.395c6.088-0.221,11.785,3.355,13.5,8.473
	c2.189,6.529,0.362,14.961-5.437,16.753c-8.203,2.534-9.512,8.277-10.707,15.104c-3.126,17.864-6.436,35.696-9.787,53.519
	c-0.54,2.871-1.397,5.194,2,7.259c3.382,2.056,5.667,1.454,8.544-0.755c16.115-12.372,32.398-24.526,48.447-36.983
	c1.617-1.255,2.889-4.036,2.896-6.114c0.048-14.816,5.827-19.921,21.046-17.164c-15.08-18.162-29.718-35.796-44.363-53.424
	c-2.28-2.744-4.796-5.319-6.837-8.229c-3.083-4.396-6.403-7.07-12.416-5.806c-2.828,0.594-6.495-0.489-9.148-1.958
	c-3.324-1.841-5.577-1.618-8.466,0.649c-9.258,7.265-18.63,14.392-28.116,21.357c-2.622,1.925-3.852,3.876-3.209,7.143
	c0.336,1.708,0.218,3.571-0.032,5.316c-1.069,7.484-7.875,12.786-15.159,11.937c-6.705-0.782-12.47-7.119-12.591-13.84
	c-0.139-7.751,5.238-13.679,12.978-14.213c1.409-0.097,3.148-0.378,4.211,0.276c7.041,4.328,11.759,0.056,16.836-3.969
	c6.985-5.537,14.234-10.742,21.355-16.109c2.878-2.169,5.511-4.13,4.311-8.731c-1.163-4.458-3.796-5.28-7.751-5.545
	c-4.958-0.332-9.864-1.377-14.807-1.99c-5.306-0.658-9.693-0.557-13.716,4.772c-4.679,6.198-14.638,5.306-19.799-0.363
	c-5.472-6.011-4.922-14.675,1.27-20.012c6.395-5.512,15.647-4.496,20.655,2.388c1.016,1.396,1.364,3.269,2.339,4.706
	c0.921,1.358,2.124,3.275,3.441,3.491c8.076,1.321,16.204,2.421,24.356,3.111c1.624,0.137,3.76-1.536,4.962-2.963
	c0.421-0.5-0.905-3.146-2.023-4.165c-10.021-9.134-20.162-18.137-30.294-27.148c-4.266-3.794-8.635-7.472-12.888-11.281
	c-5.176-4.636-9.223-10.522-18.247-6.493c-5.059,2.259-10.584-1.3-13.378-6.457c-2.705-4.993-2.601-10.386,0.64-15.253
	c3.309-4.969,8.202-6.687,13.99-5.694c7.469,1.282,13.39,9.082,11.216,16.596c-1.406,4.857,0.074,7.187,3.217,9.928
	c15.859,13.831,31.652,27.737,47.47,41.615c0.268,0.235,0.52,0.573,0.834,0.655c1.807,0.472,3.631,0.881,5.449,1.312
	c0.157-1.602,0.795-3.342,0.384-4.783c-1.466-5.133-3.282-10.167-4.978-15.234c-2.818-8.421-5.789-16.794-8.414-25.275
	c-1.558-5.032-3.714-8.129-9.574-9.758c-10.865-3.02-13.485-15.337-5.689-22.807c5.323-5.1,12.892-5.581,18.452-1.173
	c5.989,4.748,7.717,13.107,2.612,18.912c-3.965,4.508-4.122,8.085-2.142,13.369c4.485,11.971,8.223,24.221,12.255,36.362
	c0.561,1.69,0.739,3.618,1.692,5.033c0.882,1.31,2.59,2.898,3.888,2.858c1.274-0.039,2.68-1.831,3.66-3.132
	c0.571-0.757,0.339-2.079,0.604-3.112c4.065-15.857,8.147-31.71,12.238-47.561c1.244-4.82,2.011-8.93-3.06-12.871
	c-4.626-3.595-4.383-9.671-2.281-14.873c2.023-5.008,6.264-7.572,11.771-7.852c6.993-0.356,12.797,3.567,14.686,9.995
	c1.839,6.256-0.757,14.106-7.412,15.766c-8.053,2.008-9.338,7.615-10.888,13.69c-3.689,14.454-7.222,28.948-10.751,43.442
	c-0.556,2.282-0.764,4.648-1.385,8.563c2.513-1.638,4.154-2.205,5.032-3.354c19.278-25.213,38.459-50.501,57.7-75.742
	c2.069-2.714,3.238-5.047,1.231-8.64c-1.27-2.273-1.334-5.554-1.056-8.293c0.711-7.002,7.176-12.256,14.115-11.97
	c6.751,0.278,13.626,7.248,13.879,14.071c0.226,6.098-5.305,14.219-11.297,13.396c-11.474-1.576-15.57,6.379-20.807,13.199
	c-17.589,22.903-35.024,45.923-53.002,69.533c0.562,1.092,1.465,2.516,2.055,4.06c1.597,4.183,4.26,5.846,8.964,5.49
	c13.515-1.022,27.075-1.443,40.589-2.472c2.001-0.152,4-2.143,5.711-3.618c1.011-0.872,1.312-2.512,2.175-3.618
	c5.304-6.806,14.399-7.639,20.698-1.961c6.127,5.523,6.361,13.807,0.564,19.927c-5.558,5.867-15.666,6.867-19.639,0.074
	c-4.421-7.561-10.097-6.556-16.322-6.246c-11.756,0.586-23.507,1.308-35.242,2.212c-1.826,0.141-4.487,1.093-5.141,2.452
	c-1.554,3.224,1.82,4.126,3.828,5.231c15.911,8.757,31.875,17.417,47.833,26.088c15.012,8.157,30.081,16.209,45.026,24.487
	c4.219,2.337,7.268,3.508,12.364,0.337c8.534-5.31,17.812-0.435,20.624,9.479c0.537,1.892,0.589,3.921,1.006,6.893
	c18.621-21.507,36.611-42.213,54.444-63.055c1.11-1.297,0.979-3.656,1.425-5.521c-1.874-0.409-3.861-1.444-5.604-1.129
	c-13.994,2.53-27.947,5.287-41.9,8.035c-4.851,0.955-9.096,2.106-10.561,8.247c-1.119,4.689-5.554,7.292-10.4,8.217
	c-6.233,1.189-12.453-2.092-15.04-7.705c-2.533-5.496-1.005-12.874,3.446-16.641c4.871-4.123,12.576-5.509,16.645-0.885
	c5.806,6.597,11.523,5.888,18.827,4.159c12.091-2.863,24.432-4.665,36.656-6.976c1.38-0.261,2.773-0.758,4.007-1.429
	c3.205-1.742,3.595-5.653,0.626-7.808c-1.992-1.446-4.36-2.391-6.604-3.469c-23.726-11.395-47.49-22.713-71.173-34.199
	c-5.247-2.545-9.58-4.116-15.47-0.19c-6.319,4.213-14.2,0.791-17.952-6.048c-3.615-6.589-1.232-14.793,5.358-18.439
	c6.733-3.725,14.586-1.9,18.781,4.528c0.932,1.428,2.038,3.339,1.803,4.828c-1.102,6.986,3.536,9.011,8.594,11.42
	c24.733,11.781,49.356,23.794,74.02,35.721c1.599,0.773,3.154,1.883,4.838,2.146c1.139,0.179,2.678-0.611,3.626-1.439
	c0.502-0.438,0.354-1.954,0.08-2.857c-0.299-0.987-1.045-1.853-1.658-2.728c-16.973-24.236-33.977-48.45-50.908-72.715
	c-2.56-3.669-4.611-5.712-10.241-4.679c-7.348,1.348-14.813-6.713-14.88-13.742c-0.064-6.677,6.537-14.009,13.244-14.709
	c6.855-0.716,14.111,4.936,14.96,12.408c0.338,2.975-0.571,6.37-1.825,9.165c-1.152,2.567-1.515,4.352,0.207,6.787
	c18.307,25.889,36.509,51.853,54.793,77.758c0.295,0.417,1.254,0.365,2.728,0.744c0.231-1.629,0.853-3.24,0.607-4.705
	c-2.821-16.831-5.879-33.623-8.624-50.465c-0.792-4.856-3.801-6.901-7.819-8.941c-10.922-5.542-10.098-14.767-5.049-21.127
	c4.783-6.025,14.56-6.824,20.175-1.943c5.915,5.141,7.221,14.919,0.973,19.818c-5.814,4.558-5.082,8.807-3.981,14.63
	c2.709,14.328,4.63,28.805,7.271,43.148c0.585,3.176,2.274,8.025,4.44,8.642c4.51,1.284,4.891-4,6.173-7.012
	c5.713-13.421,11.079-26.991,16.891-40.368c1.591-3.661,1.857-6.111-1.114-9.393c-7.105-7.845-1.87-19.157,6.172-21.772
	c7.173-2.333,15.016,0.758,17.734,7.551c2.77,6.924-0.035,16.767-6.896,17.855c-10.667,1.692-13.072,9.12-16.197,17.073
	c-4.162,10.592-8.776,21.005-13.151,31.514c-0.812,1.95-1.989,3.994-1.962,5.981c0.032,2.341,1.671,3.891,4.387,2.635
	c0.634-0.293,1.156-0.83,1.725-1.26c20.158-15.268,40.315-30.537,60.545-45.861c-0.948-2.359-1.878-4.264-2.489-6.266
	c-2.435-7.975,2.302-16.37,10.166-18.171c7.69-1.761,16.116,4.041,17.365,11.958c1.2,7.605-5.599,16.223-13.79,15.477
	c-7.294-0.665-11.993,2.377-17.15,6.394c-14.91,11.614-30.07,22.907-45.112,34.351c-2.554,1.943-5.219,3.815-7.419,6.115
	c-0.968,1.012-1.276,3.056-1.113,4.547c0.063,0.575,2.308,1.4,3.482,1.29c10.286-0.967,20.551-2.149,30.829-3.198
	c3.096-0.316,5.392-1.289,6.26-4.71c0.421-1.659,1.533-3.235,2.627-4.615c5.026-6.338,13.901-7.343,20.03-2.373
	c5.914,4.796,6.802,14.517,1.842,20.167c-5.415,6.168-16.117,7.116-20.635,0.385c-3.921-5.842-8.133-5.256-13.41-4.615
	c-8.13,0.987-16.292,1.716-24.437,2.586c-2.886,0.308-5.624,0.717-6.64,4.229c-1.138,3.931,0.949,5.773,3.895,7.687
	c11.956,7.769,23.819,15.685,35.659,23.63c2.703,1.814,4.721,1.264,7.68-0.052c10.961-4.874,20.581,0.51,20.952,11.181
	c0.268,7.717-4.94,14.001-12.364,14.917c-6.911,0.853-15.526-4.749-15.096-11.839c0.52-8.581-4.078-11.796-10.052-15.468
	c-10.011-6.153-19.702-12.827-29.509-19.309c-2.453-1.621-4.48-2.781-7.633-0.596c-3.204,2.221-5.412,4.085-4.713,8.424
	c1.923,11.948,3.556,23.942,5.321,35.916c0.363,2.461,1.038,4.901,1.151,7.37c0.305,6.7,1.448,12,9.209,14.826
	c6.023,2.193,7.879,9.45,6.138,15.461c-1.787,6.171-7.132,10.316-13.329,10.336c-6.208,0.02-11.653-3.957-13.706-10.076
	c-1.953-5.821-0.152-10.874,4.476-14.266c4.468-3.275,4.92-6.599,3.957-11.822c-2.902-15.732-4.988-31.615-7.391-47.439
	c-0.16-1.052-0.123-2.175-0.49-3.147c-0.788-2.091-4.038-2.59-5.212-0.722c-1.124,1.789-1.932,3.804-2.691,5.792
	c-10.269,26.907-20.5,53.828-30.759,80.739c-0.998,2.618-2.196,4.762-0.181,7.883c7.531,11.665,6.294,16.828-6.399,25.213
	c11.614,2.991,22.174,5.715,32.737,8.426c2.06,0.529,4.175,0.878,6.194,1.53c7.566,2.445,14.656,4.646,21.347-2.865
	c2.999-3.367,8.547-4.042,13.08-1.822c4.284,2.097,7.297,1.265,10.406-2.034c9.776-10.375,19.609-20.7,29.618-30.849
	c2.762-2.801,2.05-5.126,1.281-8.523c-2.195-9.704,2.969-16.942,11.827-17.769c5.865-0.548,10.483,1.585,13.599,6.645
	c3.146,5.108,2.903,10.365-0.496,15.07c-3.297,4.563-8.28,8.076-13.775,5.886c-5.624-2.242-8.397-0.206-11.832,3.482
	c-9.239,9.922-18.782,19.561-28.175,29.34c-1.949,2.029-3.99,3.784-2.213,7.347c1.75,3.507,3.425,5.717,7.873,5.603
	c11.773-0.302,23.563-0.325,35.335-0.03c4.537,0.113,5.788-2.634,7.827-5.721c4.065-6.153,11.602-7.898,17.859-4.865
	c6.252,3.031,9.11,10.289,6.918,17.211c-1.7,5.368-5.539,8.388-10.816,9.086c-5.549,0.734-11.474-0.477-13.86-5.772
	c-2.483-5.512-6.049-5.953-11.002-5.856c-10.704,0.211-21.417,0.087-32.125-0.022c-3.527-0.036-5.227,1.645-7.598,4.346
	c-6.064,6.908-5.863,13.305-1.768,20.859c2.868,5.289,4.755,11.107,7.151,16.658c1.127,2.611,2.422,5.151,3.868,8.205
	c2.605-0.162,5.363-0.736,8.015-0.418c6.554,0.787,12.022,6.423,12.723,12.596c0.698,6.144-3.044,12.381-8.705,14.51
	c-6.356,2.391-13.38,0.216-17.009-5.367c-2.979-4.582-3.104-9.501-0.619-14.199c1.443-2.727,2.038-5.04,0.747-7.971
	c-4.447-10.095-8.62-20.312-13.183-30.353c-0.722-1.588-2.913-2.508-4.426-3.737c-1.189,1.479-3.188,2.829-3.446,4.455
	c-3.732,23.549-7.265,47.13-10.758,70.717c-0.811,5.473-1.055,10.118,4.411,14.634c7.352,6.073,5.157,16.979-3.065,21.478
	c-7.065,3.865-15.326,1.524-19.353-5.486c-3.612-6.288-1.871-15.872,5.14-18.31c7.451-2.591,8.085-7.213,8.956-13.497
	c3.177-22.907,6.775-45.758,10.483-68.587c0.652-4.015,0.565-6.781-3.625-8.633c-1.845-0.816-3.57-2.541-4.663-4.285
	c-2.17-3.462-4.715-3.227-8.231-2.357c-22.768,5.635-45.609,10.979-68.405,16.502c-4.776,1.157-8.427,2.548-10.127,8.772
	c-2.513,9.201-14.451,11.561-21.963,5.398c-1.606-1.318-2.819-3.114-5.448-6.086c0,9.137,0.03,16.773-0.007,24.409
	c-0.059,12.493-0.16,24.986-0.248,37.479c-0.013,1.784-0.5,3.72,0.042,5.31c0.622,1.827,1.823,4.117,3.374,4.766
	c1.342,0.561,4.045-0.361,5.258-1.541c9.461-9.2,18.709-18.62,28.02-27.974c4.028-4.047,7.969-8.183,12.096-12.126
	c4.388-4.192,7.943-7.655,5.525-15.249c-2.465-7.743,5.216-15.151,13.687-15.34c8.097-0.18,14.108,5.952,13.913,14.193
	c-0.206,8.678-7.54,16.324-15.236,13.491c-7.545-2.777-10.419,1.17-14.331,5.126c-13.296,13.445-26.572,26.91-39.845,40.378
	c-1.194,1.211-2.314,2.495-4.737,5.119c3.183,0,4.756,0.396,6.017-0.064c8.679-3.159,17.258-6.596,25.944-9.735
	c4.258-1.539,6.97-3.365,7.852-8.655c1.352-8.106,8.164-12.067,15.669-10.67c5.902,1.099,10.694,5.517,11.632,11.132
	c0.896,5.362-1.054,9.881-5.117,13.35c-4.782,4.084-11.459,5.563-15.605,1.181c-6.04-6.382-11.26-3.45-17.08-1.257
	c-5.655,2.131-11.132,4.886-16.936,6.432c-5.795,1.543-8.161,4.804-7.995,10.485c0.03,1.01-0.232,2.03-0.431,3.618
	c11.164,6.141,22.401,12.25,33.554,18.51c2.767,1.553,5.214,2.059,7.875-0.051c0.816-0.647,1.896-0.986,2.888-1.383
	c7.701-3.083,15.788,0.079,18.634,7.267c2.863,7.23-0.966,16.114-8.029,18.631c-7.383,2.632-17.752-1.213-17.876-8.677
	c-0.19-11.466-8.435-13.69-15.402-17.844c-7.629-4.549-15.547-8.611-22.499-12.425c-13.03,3.113-14.811,12.012-13.311,22.842
	c0.437,3.154,0.152,6.417,0.086,9.628c-0.117,5.693-0.256,10.459,6.27,14.173c7.212,4.105,7.176,14.798,1.474,20.57
	c-5.833,5.904-13.968,5.802-19.906-0.248c-6.105-6.221-6.378-16.005,1.212-20.358c7.248-4.158,7.139-9.477,6.89-15.908
	c-0.179-4.634-0.492-9.332,0.042-13.909c0.815-6.996-1.795-11.071-8.132-14.256c-4.193-2.107-7.099-1.835-10.792,0.304
	c-8.316,4.817-16.681,9.574-25.238,13.941c-4.525,2.309-6.602,4.887-6.764,10.465c-0.257,8.837-7.994,13.879-16.473,12.082
	c-7.602-1.611-12.956-9.932-10.885-16.918c2.429-8.196,11.602-13.986,18.248-9.617c7.102,4.669,11.803,1.781,17.367-1.282
	c7.489-4.122,14.933-8.329,22.491-12.321c3.752-1.982,5.807-4.172,5.472-9.052c-0.321-4.691-2.905-5.971-6.372-7.211
	c-9.716-3.473-19.509-6.759-29.084-10.589c-4.759-1.903-8.421-2.156-12.587,1.583c-4.798,4.307-10.407,4.041-15.714,0.221
	c-4.995-3.595-7.34-9.629-5.745-14.862c1.969-6.46,7.042-10.653,13.101-10.83c6.173-0.18,12.704,3.565,13.432,9.929
	c0.836,7.313,5.114,9.06,10.783,10.777c5.428,1.644,10.636,4.006,15.96,6.002C225.867,396.482,231.197,398.409,237.22,400.623z
	 M284.384,214.032c-12.57,3.402-21.633-0.303-21.755-9.436c-0.106-7.931-4.643-10.311-9.88-13.145
	c-27.836-15.062-55.692-30.087-83.554-45.1c-2.653-1.429-5.4-2.684-8.104-4.019c23.768,28.92,48.087,56.854,72.444,84.755
	c5.208,5.966,9.584,13.949,19.79,8.982c8.961,4.035,13.527-1.837,18.297-7.84C275.152,223.787,279.2,219.756,284.384,214.032z
	 M203.769,275.485c1.159,0.912,1.7,1.351,2.254,1.772c10.564,8.014,11.482,11.463,4.426,22.951c-2.27,3.697-0.546,6.025,0.68,8.785
	c10.975,24.7,22.006,49.375,33.058,74.041c1.18,2.633,2.593,5.161,4.81,9.541c-0.51-33.626-1.199-64.991-1.323-96.357
	c-0.035-8.792,0.214-16.962-9.526-21.054c-0.599-0.252-1.061-0.958-1.459-1.541c-2.627-3.852-6.219-4.121-10.379-3.133
	C219.05,272.214,211.739,273.731,203.769,275.485z M368.361,291.59c-0.124-0.583-0.249-1.166-0.373-1.749
	c-25.972-5.726-52.01-11.178-77.884-17.32c-9.765-2.318-18.573-3.563-25.539,5.556c-0.395,0.517-1.19,0.772-1.844,1.038
	c-3.548,1.449-4.256,4.253-4.19,7.775c0.153,8.162,0.049,16.329,0.049,24.704c10.084-11.059,14.637-11.635,25.624-2.586
	c3.095,2.55,5.743,1.752,8.862,0.987c12.04-2.953,24.112-5.775,36.154-8.716C342.277,298.092,355.315,294.824,368.361,291.59z
	 M303.711,264.57c-1.251-3.577-2.162-5.458-2.559-7.442c-1.742-8.712,1.545-15.242,10.133-17.09c5.886-1.267,7.937-4.43,9.824-9.405
	c7.931-20.903,16.266-41.652,24.359-62.494c1.878-4.836,3.388-9.815,5.067-14.729c-2.791,0.453-4.032,1.954-5.277,3.452
	c-14.099,16.961-28.232,33.893-42.284,50.892c-9.295,11.245-18.521,22.549-27.676,33.908c-3.023,3.751-1.3,15.506,2.862,16.791
	C286.139,260.917,294.419,262.41,303.711,264.57z M133.221,281.191c3.835-0.591,5.206-0.701,6.526-1.021
	c25.222-6.114,50.364-12.586,75.694-18.215c9.611-2.136,17.742-4.567,18.093-17.312c-5.706-6.94-12.192-14.829-19.185-23.335
	c1.358,15.046-6.359,22.176-19.582,18.249c-4.075-1.21-6.497-0.708-9.531,1.646C168.659,254.066,151.98,266.794,133.221,281.191z"/>
</svg>
