<?xml version="1.0" encoding="iso-8859-1"?>
<!-- Generator: Adobe Illustrator 19.0.0, SVG Export Plug-In . SVG Version: 6.00 Build 0)  -->
<svg version="1.1" id="Layer_1" xmlns="http://www.w3.org/2000/svg" xmlns:xlink="http://www.w3.org/1999/xlink" x="0px" y="0px"
	 viewBox="0 0 2000 2000" style="enable-background:new 0 0 2000 2000;" xml:space="preserve">
<path d="M1533.262,1579.21c82.987,0,161.149,0,246.867,0c-228.501,265.986-502.407,420.235-855.453,396.943
	c-385.37-25.425-707.66-282.544-842.39-622.828c-137.962-348.444-29.567-728.024,81.926-843.903
	c429.389,0,859.161-0.529,1288.929,0.641c56.387,0.153,98.237,32.884,119.058,84.101c20.284,49.895,29.476,104.117-17.326,145.925
	c-70.37,62.862-142.515,123.836-215.631,183.499c-101.403,82.746-204.376,163.568-306.815,245.04
	c-4.705,3.742-10.757,5.79-16.181,8.628c1.639,3.234,3.279,6.468,4.918,9.702c246.365,0,492.73,0,739.291,0
	c73.758-261.274,22.999-572.27-261.602-802.907c-311.871-252.737-724.402-248.149-1051.618,44.725
	c-78.605,0.002-157.209,0.002-246.518,0.002C402.042,185.469,646.614,33.898,957.65,17.258
	c410.725-21.974,755.976,205.74,918.036,534.91c156.349,317.57,139.494,632.43-33.434,936.258
	c-375.334,0-742.125,0.407-1108.914-0.362c-68.785-0.144-138.203-0.127-206.148-9.115c-60.071-7.946-107.566-45.406-122.487-105.795
	c-15.215-61.581,8.594-117.418,56.235-158.081c70.676-60.326,144.646-116.79,217.123-175.01
	c90.428-72.64,180.725-145.444,271.288-217.915c3.547-2.839,9.257-2.974,13.96-4.369c-2.226-2.859-4.453-5.719-6.679-8.578
	c-237.873,0-475.745,0-714.04,0c-72.033,168.363-30.429,543.619,224.749,770.731
	C773.667,1852.569,1191.409,1864.184,1533.262,1579.21z"/>
</svg>
