<?xml version="1.0" encoding="utf-8"?>
<!-- Generator: Adobe Illustrator 24.1.0, SVG Export Plug-In . SVG Version: 6.00 Build 0)  -->
<svg version="1.1" id="ABYSS" xmlns="http://www.w3.org/2000/svg" xmlns:xlink="http://www.w3.org/1999/xlink" x="0px" y="0px"
	 viewBox="0 0 500 500" style="enable-background:new 0 0 500 500;" xml:space="preserve">
<path d="M249.9,1.8c-137,0-248,111.1-248,248s111.1,248,248,248s248-111.1,248-248S386.9,1.8,249.9,1.8z M380.8,318.7
	c-43.3,30.8-86.9,61.7-131.1,93.2c-43.9-31.2-87.7-62.3-131.4-93.4c0-62.9,0-125.4,0-188.1C189,87.1,313.4,88.3,380.8,130
	C380.8,192.6,380.8,255.3,380.8,318.7z"/>
<path d="M321.4,175.6c0,40.1,0,80.1,0,121c-9.9,6.9-20.2,14-31.9,22.1c0-17.1,0-32.6,0-48.7c-26.7,0-52.5,0-79.3,0
	c0,15.6,0,31,0,46.5c-0.6,0.3-1.2,0.7-1.7,1c-10-7.1-20-14.1-29.9-21.1c0-40.6,0-80.7,0-120.6C226.1,161.7,273.4,161.7,321.4,175.6z
	 M289.1,199.8c-26.9-4.9-52.8-5.3-78.6,0.1c0,12.6,0,24,0,35.6c26.6,0,52.4,0,78.6,0C289.1,223.3,289.1,212,289.1,199.8z"/>
</svg>
