<?xml version="1.0" encoding="utf-8"?>
<!-- Generator: Adobe Illustrator 24.1.0, SVG Export Plug-In . SVG Version: 6.00 Build 0)  -->
<svg version="1.1" id="ATOM" xmlns="http://www.w3.org/2000/svg" xmlns:xlink="http://www.w3.org/1999/xlink" x="0px" y="0px"
	 viewBox="0 0 500 500" style="enable-background:new 0 0 500 500;" xml:space="preserve">
<style type="text/css">
	.st0{fill:#010202;}
</style>
<path class="st0" d="M250.7,2.6c-30.2,0-54.7,110.5-54.7,246.7s24.5,246.7,54.7,246.7c30.2,0,54.7-110.5,54.7-246.7
	S280.9,2.6,250.7,2.6z M250.7,483.6c-17.3,0-44.2-104.5-44.2-233.4S232,16.8,250.7,16.8c17.6,0,44.2,104.5,44.2,233.4
	S269.2,483.6,250.7,483.6z"/>
<path class="st0" d="M464.9,126.8c-15-26.2-123.1,7.3-241.4,75s-202,143.8-187,170c15,26.2,123.1-7.3,241.4-75
	S479.9,153.1,464.9,126.8z M47.4,365.6c-8.6-15.1,68.8-90.2,180.7-154.2s215.2-93.8,224.5-77.5c8.7,15.2-68.8,90.2-180.7,154.2
	S56.5,381.7,47.4,365.6z"/>
<path class="st0" d="M463.9,373.6c15.2-26.1-67.9-102.9-185.6-171.5S52.8,99,37.5,125.1C22.3,151.2,105.4,228,223.2,296.6
	S448.7,399.7,463.9,373.6z M48.3,131.4c8.7-15,112.5,14.5,223.9,79.4S461,350.3,451.6,366.4c-8.8,15.2-112.5-14.5-223.9-79.4
	S39,147.3,48.3,131.4z"/>
<circle class="st0" cx="368" cy="139.9" r="18.1"/>
<circle class="st0" cx="94.2" cy="199" r="18.1"/>
<circle class="st0" cx="215.2" cy="410.2" r="18.1"/>
<circle class="st0" cx="249.9" cy="250.2" r="29"/>
</svg>
