<?xml version="1.0" encoding="utf-8"?>
<!-- Generator: Adobe Illustrator 24.1.0, SVG Export Plug-In . SVG Version: 6.00 Build 0)  -->
<svg version="1.1" id="BITG" xmlns="http://www.w3.org/2000/svg" xmlns:xlink="http://www.w3.org/1999/xlink" x="0px" y="0px"
	 viewBox="0 0 500 500" style="enable-background:new 0 0 500 500;" xml:space="preserve">
<path d="M177.2,427.9c0,0-19.6,0.1-28.4,0c-12-0.1-18.4-5.3-18.5-14.6c-0.1-9.5,6.1-15.1,17.9-15.5c8.5-0.3,16.9-0.1,26.3-0.1
	c0-43.4,0-84.9,0-127.5c-43.4-15.8-76.3-44.3-101.3-83.5c35.4,4.7,68.4-2.9,101.4-15.4c0-21.9,0-67.4,0-67.4s-11.6,0.2-17.2-0.1
	c-4.5-0.2-9,0.1-13.4-0.3c-8.5-0.9-13.4-6.2-13.5-14.1c0-8.1,5.5-14,14.2-14.6c6.5-0.4,13.1-0.1,19.6-0.2c3.7-0.1,13.1,0.2,13.1,0.2
	s-0.1-8.9,0-12.5c0.1-14.1,0-28.3,0.2-42.4c0.1-11.8,4.9-17.5,14.2-17.6c9.4-0.1,14.4,5.7,14.6,17.2c0.2,14.1,0,28.3,0.1,42.4
	c0,3.7-0.1,11.8-0.1,11.8h58.5c0,0-0.3-7.6-0.3-11.2c0.1-14.5-0.1-28.9,0.2-43.4c0.2-11,6.3-17.2,15.4-16.8
	c9,0.4,13.3,5.6,13.4,17.2c0.2,13.8,0,27.6,0.2,41.3c0,4-0.1,13.8-0.1,13.8s16.3,0.1,23.4,0c19.5-0.2,38.5,2.2,56.2,11
	c58,28.8,63.6,115.5,9.8,151.5c-1.7,1.1-3.3,2.3-5.5,3.7c7.4,6.4,14.7,12,21.2,18.4c28,27.9,33.5,62,23.6,98.4
	c-10.2,37.2-36.2,59.3-73.7,67.3c-10,2.1-20.5,2.3-30.8,2.9c-6.8,0.4-22.9,0.1-22.9,0.1s0.1,8.2,0,11.8c-0.2,13.1,0.1,26.2-0.1,39.3
	c-0.2,12.8-5.7,19-15.6,18.7c-9.5-0.3-14.5-6.5-14.7-18.6c-0.2-12.7,0-25.5-0.1-38.2c0-3.7,0.3-12,0.3-12h-58c0,0,0.1,7.4,0,11.1
	c-0.1,13.1,0,26.2-0.1,39.3c-0.1,12.3-5,18.3-14.6,18.5c-9.8,0.2-14.7-5.6-14.9-18c-0.1-13.1,0-26.2-0.1-39.3
	C177,436.8,177.2,427.9,177.2,427.9z M207.5,397.4c0,0,6.8,0,9.7,0c35.4,0,70.8,0.1,106.3-0.1c6.1,0,12.3-1.1,18.4-2.3
	c26.2-5.2,55.5-28,53.2-71.9c-1.7-32.4-23.1-57.2-56.5-62.5c-6.2-1-13.6-1.9-19,0.5c-32.4,14.7-66.2,20.3-101.5,18.1
	c-3.3-0.2-6.6,0.3-10.6,0.5C207.5,319,207.5,397.4,207.5,397.4z M239.2,198.7c4.7,0.5,9.5,1.3,14.2,1.6c27.5,1.5,53.9,8,78.7,19.6
	c10.1,4.7,18.5,3.2,27.2-1.9c23.9-13.9,31.2-35.8,28.7-61.6c-2.3-24.1-16.2-39.7-39.1-46.9c-7.5-2.3-15.5-4-23.3-4.2
	c-35.8-0.8-71.6-1-107.4-1.3c-3.6,0-10.5,0-10.5,0s0,38.5,0,57.6c25-5.7,48.8-9.4,72.8-2.7c24,6.8,43.4,20.4,58.7,40.8
	C305.8,187.5,272.5,188,239.2,198.7z"/>
</svg>
