<?xml version="1.0" encoding="utf-8"?>
<!-- Generator: Adobe Illustrator 24.1.0, SVG Export Plug-In . SVG Version: 6.00 Build 0)  -->
<svg version="1.1" id="NPXS" xmlns="http://www.w3.org/2000/svg" xmlns:xlink="http://www.w3.org/1999/xlink" x="0px" y="0px"
	 viewBox="0 0 500 500" style="enable-background:new 0 0 500 500;" xml:space="preserve">
<path d="M250.1,0C112.1,0,0.2,111.9,0.2,249.9s111.9,249.9,249.9,249.9S500,387.9,500,249.9S388.1,0,250.1,0z M344,139.4l16.6,16.6
	l-83.9,83.9l-16.6-16.6L344,139.4z M156,139.3l83.9,83.9l-16.6,16.6l-83.9-83.9L156,139.3z M156,360.6L139.4,344l83.9-83.9
	l16.6,16.6L156,360.6z M250.1,266.6L233.5,250l16.6-16.6l16.6,16.6L250.1,266.6z M344,360.5l-83.9-83.9l16.6-16.6l83.9,83.9
	L344,360.5z"/>
</svg>
